<?xml version="1.0" encoding="utf-8" standalone="no"?>
<!DOCTYPE svg PUBLIC "-//W3C//DTD SVG 1.1//EN"
  "http://www.w3.org/Graphics/SVG/1.1/DTD/svg11.dtd">
<!-- Created with matplotlib (https://matplotlib.org/) -->
<svg height="432pt" version="1.1" viewBox="0 0 576 432" width="576pt" xmlns="http://www.w3.org/2000/svg" xmlns:xlink="http://www.w3.org/1999/xlink">
 <defs>
  <style type="text/css">
*{stroke-linecap:butt;stroke-linejoin:round;}
  </style>
 </defs>
 <g id="figure_1">
  <g id="patch_1">
   <path d="M 0 432 
L 576 432 
L 576 0 
L 0 0 
z
" style="fill:#ffffff;"/>
  </g>
  <g id="axes_1">
   <g id="patch_2">
    <path d="M 61.2 374.8 
L 556.1 374.8 
L 556.1 56.448219 
L 61.2 56.448219 
z
" style="fill:#ffffff;"/>
   </g>
   <g id="PolyCollection_1">
    <path clip-path="url(#pcad07af5a9)" d="M 83.695455 360.297796 
L 83.695455 360.329464 
L 92.877273 358.912298 
L 102.059091 284.902961 
L 111.240909 239.181532 
L 120.422727 221.47091 
L 129.604545 204.259068 
L 138.786364 196.009418 
L 147.968182 192.33587 
L 157.15 185.843823 
L 166.331818 178.940085 
L 175.513636 178.51256 
L 184.695455 171.490065 
L 193.877273 168.251958 
L 203.059091 161.728243 
L 212.240909 159.566866 
L 221.422727 154.159466 
L 230.604545 153.177742 
L 239.786364 148.775817 
L 248.968182 146.72528 
L 258.15 144.088876 
L 267.331818 142.347107 
L 276.513636 142.196682 
L 285.695455 137.834343 
L 294.877273 135.292944 
L 304.059091 132.743628 
L 313.240909 131.635229 
L 322.422727 128.032935 
L 331.604545 126.314917 
L 340.786364 126.322835 
L 349.968182 124.683989 
L 359.15 121.778402 
L 368.331818 122.395938 
L 377.513636 119.735782 
L 386.695455 118.556129 
L 395.877273 118.421538 
L 405.059091 115.793051 
L 414.240909 117.115212 
L 423.422727 114.344216 
L 432.604545 114.257128 
L 441.786364 113.251652 
L 450.968182 111.311955 
L 460.15 110.037297 
L 469.331818 108.667633 
L 478.513636 107.891755 
L 487.695455 108.327197 
L 496.877273 107.202964 
L 506.059091 105.540367 
L 515.240909 105.516615 
L 524.422727 104.914913 
L 533.604545 105.31077 
L 533.604545 98.597043 
L 533.604545 98.597043 
L 524.422727 101.518464 
L 515.240909 101.320536 
L 506.059091 102.104332 
L 496.877273 103.561084 
L 487.695455 105.247433 
L 478.513636 105.508698 
L 469.331818 105.651207 
L 460.15 109.649358 
L 450.968182 108.992236 
L 441.786364 109.831452 
L 432.604545 111.05069 
L 423.422727 114.201708 
L 414.240909 112.578696 
L 405.059091 113.243735 
L 395.877273 113.307072 
L 386.695455 116.252244 
L 377.513636 117.962345 
L 368.331818 118.991572 
L 359.15 120.092053 
L 349.968182 119.054909 
L 340.786364 120.519578 
L 331.604545 121.588391 
L 322.422727 124.438558 
L 313.240909 126.124906 
L 304.059091 127.003708 
L 294.877273 127.755835 
L 285.695455 130.50308 
L 276.513636 131.746069 
L 267.331818 131.658981 
L 258.15 137.84226 
L 248.968182 139.045664 
L 239.786364 141.420803 
L 230.604545 144.397644 
L 221.422727 146.772783 
L 212.240909 151.22221 
L 203.059091 154.705748 
L 193.877273 157.769677 
L 184.695455 162.401199 
L 175.513636 167.286068 
L 166.331818 170.524175 
L 157.15 180.11182 
L 147.968182 184.014965 
L 138.786364 189.992399 
L 129.604545 202.414377 
L 120.422727 208.755999 
L 111.240909 226.838725 
L 102.059091 242.538395 
L 92.877273 292.725086 
L 83.695455 360.297796 
z
" style="fill:#1f77b4;fill-opacity:0.5;"/>
   </g>
   <g id="PolyCollection_2">
    <path clip-path="url(#pcad07af5a9)" d="M 83.695455 360.329464 
L 83.695455 360.329464 
L 92.877273 360.329464 
L 102.059091 333.783326 
L 111.240909 320.427126 
L 120.422727 300.040515 
L 129.604545 312.533747 
L 138.786364 285.78968 
L 147.968182 271.174657 
L 157.15 267.738622 
L 166.331818 257.430518 
L 175.513636 258.839767 
L 184.695455 248.982939 
L 193.877273 242.403804 
L 203.059091 232.546976 
L 212.240909 231.589003 
L 221.422727 225.009868 
L 230.604545 219.626219 
L 239.786364 213.815045 
L 248.968182 214.012973 
L 258.15 210.893624 
L 267.331818 206.90339 
L 276.513636 211.249895 
L 285.695455 200.150078 
L 294.877273 198.455812 
L 304.059091 200.403426 
L 313.240909 197.529507 
L 322.422727 192.692141 
L 331.604545 190.340753 
L 340.786364 191.100797 
L 349.968182 190.190327 
L 359.15 189.081929 
L 368.331818 191.457068 
L 377.513636 189.905311 
L 386.695455 184.711673 
L 395.877273 184.14164 
L 405.059091 180.301831 
L 414.240909 180.3335 
L 423.422727 180.468091 
L 432.604545 177.831686 
L 441.786364 175.915741 
L 450.968182 178.465057 
L 460.15 175.377376 
L 469.331818 173.390176 
L 478.513636 172.693469 
L 487.695455 172.835977 
L 496.877273 169.13076 
L 506.059091 168.354881 
L 515.240909 169.059506 
L 524.422727 167.737345 
L 533.604545 165.15636 
L 533.604545 159.80438 
L 533.604545 159.80438 
L 524.422727 162.440785 
L 515.240909 162.820807 
L 506.059091 163.715443 
L 496.877273 162.773304 
L 487.695455 167.333571 
L 478.513636 166.486438 
L 469.331818 166.826875 
L 460.15 167.88777 
L 450.968182 169.29702 
L 441.786364 169.87497 
L 432.604545 171.276302 
L 423.422727 172.740971 
L 414.240909 173.279336 
L 405.059091 174.363983 
L 395.877273 174.031464 
L 386.695455 178.655068 
L 377.513636 174.284812 
L 368.331818 178.536311 
L 359.15 182.882816 
L 349.968182 188.899835 
L 340.786364 188.488144 
L 331.604545 186.358436 
L 322.422727 186.667204 
L 313.240909 191.069129 
L 304.059091 191.575825 
L 294.877273 197.331579 
L 285.695455 198.439977 
L 276.513636 200.514266 
L 267.331818 202.826068 
L 258.15 206.950893 
L 248.968182 208.122628 
L 239.786364 213.047083 
L 230.604545 218.16155 
L 221.422727 223.466027 
L 212.240909 229.229698 
L 203.059091 229.30887 
L 193.877273 238.35815 
L 184.695455 246.845314 
L 175.513636 251.54809 
L 166.331818 251.001808 
L 157.15 260.668624 
L 147.968182 267.746539 
L 138.786364 269.322048 
L 129.604545 283.52538 
L 120.422727 280.548539 
L 111.240909 294.126418 
L 102.059091 332.983695 
L 92.877273 360.329464 
L 83.695455 360.329464 
z
" style="fill:#ff7f0e;fill-opacity:0.5;"/>
   </g>
   <g id="PolyCollection_3">
    <path clip-path="url(#pcad07af5a9)" d="M 83.695455 355.135827 
L 83.695455 360.329464 
L 92.877273 360.329464 
L 102.059091 322.453912 
L 111.240909 280.152683 
L 120.422727 247.953712 
L 129.604545 239.411128 
L 138.786364 221.344236 
L 147.968182 205.897915 
L 157.15 196.801131 
L 166.331818 190.554515 
L 175.513636 183.896209 
L 184.695455 183.571606 
L 193.877273 177.142896 
L 203.059091 170.714186 
L 212.240909 165.773897 
L 221.422727 161.276966 
L 230.604545 157.888434 
L 239.786364 155.220361 
L 248.968182 154.499903 
L 258.15 151.261796 
L 267.331818 148.395795 
L 276.513636 145.81481 
L 285.695455 143.170489 
L 294.877273 142.521284 
L 304.059091 141.468306 
L 313.240909 139.599863 
L 322.422727 136.013402 
L 331.604545 135.190021 
L 340.786364 134.010368 
L 349.968182 131.516472 
L 359.15 129.869709 
L 368.331818 129.109665 
L 377.513636 128.579217 
L 386.695455 127.43915 
L 395.877273 126.180326 
L 405.059091 123.931861 
L 414.240909 123.021391 
L 423.422727 121.992164 
L 432.604545 119.529937 
L 441.786364 119.332008 
L 450.968182 119.680362 
L 460.15 117.954428 
L 469.331818 115.468449 
L 478.513636 115.278437 
L 487.695455 112.752873 
L 496.877273 112.380768 
L 506.059091 108.913064 
L 515.240909 108.058014 
L 524.422727 107.939257 
L 533.604545 105.88872 
L 533.604545 102.492271 
L 533.604545 102.492271 
L 524.422727 103.964858 
L 515.240909 103.386907 
L 506.059091 104.740737 
L 496.877273 104.45572 
L 487.695455 106.96545 
L 478.513636 105.572035 
L 469.331818 107.385058 
L 460.15 109.704777 
L 450.968182 110.013546 
L 441.786364 111.003187 
L 432.604545 111.557386 
L 423.422727 111.755314 
L 414.240909 114.36005 
L 405.059091 114.41547 
L 395.877273 116.806444 
L 386.695455 118.397787 
L 377.513636 120.662086 
L 368.331818 121.208368 
L 359.15 121.588391 
L 349.968182 123.702264 
L 340.786364 125.364862 
L 331.604545 127.051211 
L 322.422727 130.146809 
L 313.240909 132.165677 
L 304.059091 134.841667 
L 294.877273 137.383066 
L 285.695455 136.98721 
L 276.513636 139.172338 
L 267.331818 142.323356 
L 258.15 145.426871 
L 248.968182 148.443298 
L 239.786364 153.874449 
L 230.604545 157.76176 
L 221.422727 160.303159 
L 212.240909 161.443226 
L 203.059091 166.652698 
L 193.877273 172.115518 
L 184.695455 174.823177 
L 175.513636 174.688586 
L 166.331818 181.275638 
L 157.15 189.65988 
L 147.968182 192.22503 
L 138.786364 195.225622 
L 129.604545 209.405203 
L 120.422727 214.709681 
L 111.240909 225.081122 
L 102.059091 235.555486 
L 92.877273 304.513694 
L 83.695455 355.135827 
z
" style="fill:#2ca02c;fill-opacity:0.5;"/>
   </g>
   <g id="PolyCollection_4">
    <path clip-path="url(#pcad07af5a9)" d="M 83.695455 290.777472 
L 83.695455 321.622613 
L 92.877273 219.729142 
L 102.059091 193.048412 
L 111.240909 175.005271 
L 120.422727 160.421916 
L 129.604545 151.768492 
L 138.786364 147.200308 
L 147.968182 139.845294 
L 157.15 134.073705 
L 166.331818 129.838041 
L 175.513636 126.394089 
L 184.695455 122.03175 
L 193.877273 117.265637 
L 203.059091 112.887464 
L 212.240909 110.844844 
L 221.422727 107.812583 
L 230.604545 104.218206 
L 239.786364 102.872294 
L 248.968182 100.893011 
L 258.15 99.10374 
L 267.331818 96.997783 
L 276.513636 94.883909 
L 285.695455 93.150057 
L 294.877273 91.471626 
L 304.059091 90.046542 
L 313.240909 88.819387 
L 322.422727 88.233519 
L 331.604545 87.077618 
L 340.786364 85.779209 
L 349.968182 82.936959 
L 359.15 82.509434 
L 368.331818 81.662301 
L 377.513636 80.530151 
L 386.695455 80.886422 
L 395.877273 79.603847 
L 405.059091 80.553902 
L 414.240909 77.957084 
L 423.422727 76.848685 
L 432.604545 77.727487 
L 441.786364 77.394967 
L 450.968182 75.605696 
L 460.15 74.671474 
L 469.331818 74.236032 
L 478.513636 74.283535 
L 487.695455 73.515573 
L 496.877273 73.016794 
L 506.059091 72.700109 
L 515.240909 72.169661 
L 524.422727 72.430926 
L 533.604545 71.393782 
L 533.604545 70.918754 
L 533.604545 70.918754 
L 524.422727 71.417534 
L 515.240909 71.243357 
L 506.059091 72.391341 
L 496.877273 72.826783 
L 487.695455 73.095965 
L 478.513636 72.985126 
L 469.331818 73.982684 
L 460.15 74.402292 
L 450.968182 74.734811 
L 441.786364 75.091082 
L 432.604545 75.764038 
L 423.422727 76.104475 
L 414.240909 77.086199 
L 405.059091 77.965001 
L 395.877273 77.117868 
L 386.695455 78.867554 
L 377.513636 79.144653 
L 368.331818 79.809692 
L 359.15 81.401035 
L 349.968182 82.604439 
L 340.786364 83.103219 
L 331.604545 84.631225 
L 322.422727 84.868739 
L 313.240909 87.330966 
L 304.059091 87.67932 
L 294.877273 89.452757 
L 285.695455 92.611692 
L 276.513636 92.809621 
L 267.331818 95.279765 
L 258.15 96.031893 
L 248.968182 99.51543 
L 239.786364 100.117132 
L 230.604545 103.014802 
L 221.422727 105.864969 
L 212.240909 107.852169 
L 203.059091 112.37285 
L 193.877273 112.855795 
L 184.695455 117.716914 
L 175.513636 121.073777 
L 166.331818 126.346586 
L 157.15 130.550582 
L 147.968182 137.105967 
L 138.786364 143.130903 
L 129.604545 149.029165 
L 120.422727 159.598535 
L 111.240909 172.9389 
L 102.059091 192.787146 
L 92.877273 215.343051 
L 83.695455 290.777472 
z
" style="fill:#d62728;fill-opacity:0.5;"/>
   </g>
   <g id="matplotlib.axis_1">
    <g id="xtick_1">
     <g id="line2d_1">
      <defs>
       <path d="M 0 0 
L 0 3.5 
" id="m1fa207aa36" style="stroke:#000000;stroke-width:0.8;"/>
      </defs>
      <g>
       <use style="stroke:#000000;stroke-width:0.8;" x="83.695455" xlink:href="#m1fa207aa36" y="374.8"/>
      </g>
     </g>
     <g id="text_1">
      <!-- 0 -->
      <defs>
       <path d="M 31.78125 66.40625 
Q 24.171875 66.40625 20.328125 58.90625 
Q 16.5 51.421875 16.5 36.375 
Q 16.5 21.390625 20.328125 13.890625 
Q 24.171875 6.390625 31.78125 6.390625 
Q 39.453125 6.390625 43.28125 13.890625 
Q 47.125 21.390625 47.125 36.375 
Q 47.125 51.421875 43.28125 58.90625 
Q 39.453125 66.40625 31.78125 66.40625 
z
M 31.78125 74.21875 
Q 44.046875 74.21875 50.515625 64.515625 
Q 56.984375 54.828125 56.984375 36.375 
Q 56.984375 17.96875 50.515625 8.265625 
Q 44.046875 -1.421875 31.78125 -1.421875 
Q 19.53125 -1.421875 13.0625 8.265625 
Q 6.59375 17.96875 6.59375 36.375 
Q 6.59375 54.828125 13.0625 64.515625 
Q 19.53125 74.21875 31.78125 74.21875 
z
" id="DejaVuSans-48"/>
      </defs>
      <g transform="translate(78.92358 393.197656)scale(0.15 -0.15)">
       <use xlink:href="#DejaVuSans-48"/>
      </g>
     </g>
    </g>
    <g id="xtick_2">
     <g id="line2d_2">
      <g>
       <use style="stroke:#000000;stroke-width:0.8;" x="175.513636" xlink:href="#m1fa207aa36" y="374.8"/>
      </g>
     </g>
     <g id="text_2">
      <!-- 10 -->
      <defs>
       <path d="M 12.40625 8.296875 
L 28.515625 8.296875 
L 28.515625 63.921875 
L 10.984375 60.40625 
L 10.984375 69.390625 
L 28.421875 72.90625 
L 38.28125 72.90625 
L 38.28125 8.296875 
L 54.390625 8.296875 
L 54.390625 0 
L 12.40625 0 
z
" id="DejaVuSans-49"/>
      </defs>
      <g transform="translate(165.969886 393.197656)scale(0.15 -0.15)">
       <use xlink:href="#DejaVuSans-49"/>
       <use x="63.623047" xlink:href="#DejaVuSans-48"/>
      </g>
     </g>
    </g>
    <g id="xtick_3">
     <g id="line2d_3">
      <g>
       <use style="stroke:#000000;stroke-width:0.8;" x="267.331818" xlink:href="#m1fa207aa36" y="374.8"/>
      </g>
     </g>
     <g id="text_3">
      <!-- 20 -->
      <defs>
       <path d="M 19.1875 8.296875 
L 53.609375 8.296875 
L 53.609375 0 
L 7.328125 0 
L 7.328125 8.296875 
Q 12.9375 14.109375 22.625 23.890625 
Q 32.328125 33.6875 34.8125 36.53125 
Q 39.546875 41.84375 41.421875 45.53125 
Q 43.3125 49.21875 43.3125 52.78125 
Q 43.3125 58.59375 39.234375 62.25 
Q 35.15625 65.921875 28.609375 65.921875 
Q 23.96875 65.921875 18.8125 64.3125 
Q 13.671875 62.703125 7.8125 59.421875 
L 7.8125 69.390625 
Q 13.765625 71.78125 18.9375 73 
Q 24.125 74.21875 28.421875 74.21875 
Q 39.75 74.21875 46.484375 68.546875 
Q 53.21875 62.890625 53.21875 53.421875 
Q 53.21875 48.921875 51.53125 44.890625 
Q 49.859375 40.875 45.40625 35.40625 
Q 44.1875 33.984375 37.640625 27.21875 
Q 31.109375 20.453125 19.1875 8.296875 
z
" id="DejaVuSans-50"/>
      </defs>
      <g transform="translate(257.788068 393.197656)scale(0.15 -0.15)">
       <use xlink:href="#DejaVuSans-50"/>
       <use x="63.623047" xlink:href="#DejaVuSans-48"/>
      </g>
     </g>
    </g>
    <g id="xtick_4">
     <g id="line2d_4">
      <g>
       <use style="stroke:#000000;stroke-width:0.8;" x="359.15" xlink:href="#m1fa207aa36" y="374.8"/>
      </g>
     </g>
     <g id="text_4">
      <!-- 30 -->
      <defs>
       <path d="M 40.578125 39.3125 
Q 47.65625 37.796875 51.625 33 
Q 55.609375 28.21875 55.609375 21.1875 
Q 55.609375 10.40625 48.1875 4.484375 
Q 40.765625 -1.421875 27.09375 -1.421875 
Q 22.515625 -1.421875 17.65625 -0.515625 
Q 12.796875 0.390625 7.625 2.203125 
L 7.625 11.71875 
Q 11.71875 9.328125 16.59375 8.109375 
Q 21.484375 6.890625 26.8125 6.890625 
Q 36.078125 6.890625 40.9375 10.546875 
Q 45.796875 14.203125 45.796875 21.1875 
Q 45.796875 27.640625 41.28125 31.265625 
Q 36.765625 34.90625 28.71875 34.90625 
L 20.21875 34.90625 
L 20.21875 43.015625 
L 29.109375 43.015625 
Q 36.375 43.015625 40.234375 45.921875 
Q 44.09375 48.828125 44.09375 54.296875 
Q 44.09375 59.90625 40.109375 62.90625 
Q 36.140625 65.921875 28.71875 65.921875 
Q 24.65625 65.921875 20.015625 65.03125 
Q 15.375 64.15625 9.8125 62.3125 
L 9.8125 71.09375 
Q 15.4375 72.65625 20.34375 73.4375 
Q 25.25 74.21875 29.59375 74.21875 
Q 40.828125 74.21875 47.359375 69.109375 
Q 53.90625 64.015625 53.90625 55.328125 
Q 53.90625 49.265625 50.4375 45.09375 
Q 46.96875 40.921875 40.578125 39.3125 
z
" id="DejaVuSans-51"/>
      </defs>
      <g transform="translate(349.60625 393.197656)scale(0.15 -0.15)">
       <use xlink:href="#DejaVuSans-51"/>
       <use x="63.623047" xlink:href="#DejaVuSans-48"/>
      </g>
     </g>
    </g>
    <g id="xtick_5">
     <g id="line2d_5">
      <g>
       <use style="stroke:#000000;stroke-width:0.8;" x="450.968182" xlink:href="#m1fa207aa36" y="374.8"/>
      </g>
     </g>
     <g id="text_5">
      <!-- 40 -->
      <defs>
       <path d="M 37.796875 64.3125 
L 12.890625 25.390625 
L 37.796875 25.390625 
z
M 35.203125 72.90625 
L 47.609375 72.90625 
L 47.609375 25.390625 
L 58.015625 25.390625 
L 58.015625 17.1875 
L 47.609375 17.1875 
L 47.609375 0 
L 37.796875 0 
L 37.796875 17.1875 
L 4.890625 17.1875 
L 4.890625 26.703125 
z
" id="DejaVuSans-52"/>
      </defs>
      <g transform="translate(441.424432 393.197656)scale(0.15 -0.15)">
       <use xlink:href="#DejaVuSans-52"/>
       <use x="63.623047" xlink:href="#DejaVuSans-48"/>
      </g>
     </g>
    </g>
    <g id="xtick_6">
     <g id="line2d_6">
      <g>
       <use style="stroke:#000000;stroke-width:0.8;" x="542.786364" xlink:href="#m1fa207aa36" y="374.8"/>
      </g>
     </g>
     <g id="text_6">
      <!-- 50 -->
      <defs>
       <path d="M 10.796875 72.90625 
L 49.515625 72.90625 
L 49.515625 64.59375 
L 19.828125 64.59375 
L 19.828125 46.734375 
Q 21.96875 47.46875 24.109375 47.828125 
Q 26.265625 48.1875 28.421875 48.1875 
Q 40.625 48.1875 47.75 41.5 
Q 54.890625 34.8125 54.890625 23.390625 
Q 54.890625 11.625 47.5625 5.09375 
Q 40.234375 -1.421875 26.90625 -1.421875 
Q 22.3125 -1.421875 17.546875 -0.640625 
Q 12.796875 0.140625 7.71875 1.703125 
L 7.71875 11.625 
Q 12.109375 9.234375 16.796875 8.0625 
Q 21.484375 6.890625 26.703125 6.890625 
Q 35.15625 6.890625 40.078125 11.328125 
Q 45.015625 15.765625 45.015625 23.390625 
Q 45.015625 31 40.078125 35.4375 
Q 35.15625 39.890625 26.703125 39.890625 
Q 22.75 39.890625 18.8125 39.015625 
Q 14.890625 38.140625 10.796875 36.28125 
z
" id="DejaVuSans-53"/>
      </defs>
      <g transform="translate(533.242614 393.197656)scale(0.15 -0.15)">
       <use xlink:href="#DejaVuSans-53"/>
       <use x="63.623047" xlink:href="#DejaVuSans-48"/>
      </g>
     </g>
    </g>
    <g id="text_7">
     <!-- Global Communication Rounds -->
     <defs>
      <path d="M 59.515625 10.40625 
L 59.515625 29.984375 
L 43.40625 29.984375 
L 43.40625 38.09375 
L 69.28125 38.09375 
L 69.28125 6.78125 
Q 63.578125 2.734375 56.6875 0.65625 
Q 49.8125 -1.421875 42 -1.421875 
Q 24.90625 -1.421875 15.25 8.5625 
Q 5.609375 18.5625 5.609375 36.375 
Q 5.609375 54.25 15.25 64.234375 
Q 24.90625 74.21875 42 74.21875 
Q 49.125 74.21875 55.546875 72.453125 
Q 61.96875 70.703125 67.390625 67.28125 
L 67.390625 56.78125 
Q 61.921875 61.421875 55.765625 63.765625 
Q 49.609375 66.109375 42.828125 66.109375 
Q 29.4375 66.109375 22.71875 58.640625 
Q 16.015625 51.171875 16.015625 36.375 
Q 16.015625 21.625 22.71875 14.15625 
Q 29.4375 6.6875 42.828125 6.6875 
Q 48.046875 6.6875 52.140625 7.59375 
Q 56.25 8.5 59.515625 10.40625 
z
" id="DejaVuSans-71"/>
      <path d="M 9.421875 75.984375 
L 18.40625 75.984375 
L 18.40625 0 
L 9.421875 0 
z
" id="DejaVuSans-108"/>
      <path d="M 30.609375 48.390625 
Q 23.390625 48.390625 19.1875 42.75 
Q 14.984375 37.109375 14.984375 27.296875 
Q 14.984375 17.484375 19.15625 11.84375 
Q 23.34375 6.203125 30.609375 6.203125 
Q 37.796875 6.203125 41.984375 11.859375 
Q 46.1875 17.53125 46.1875 27.296875 
Q 46.1875 37.015625 41.984375 42.703125 
Q 37.796875 48.390625 30.609375 48.390625 
z
M 30.609375 56 
Q 42.328125 56 49.015625 48.375 
Q 55.71875 40.765625 55.71875 27.296875 
Q 55.71875 13.875 49.015625 6.21875 
Q 42.328125 -1.421875 30.609375 -1.421875 
Q 18.84375 -1.421875 12.171875 6.21875 
Q 5.515625 13.875 5.515625 27.296875 
Q 5.515625 40.765625 12.171875 48.375 
Q 18.84375 56 30.609375 56 
z
" id="DejaVuSans-111"/>
      <path d="M 48.6875 27.296875 
Q 48.6875 37.203125 44.609375 42.84375 
Q 40.53125 48.484375 33.40625 48.484375 
Q 26.265625 48.484375 22.1875 42.84375 
Q 18.109375 37.203125 18.109375 27.296875 
Q 18.109375 17.390625 22.1875 11.75 
Q 26.265625 6.109375 33.40625 6.109375 
Q 40.53125 6.109375 44.609375 11.75 
Q 48.6875 17.390625 48.6875 27.296875 
z
M 18.109375 46.390625 
Q 20.953125 51.265625 25.265625 53.625 
Q 29.59375 56 35.59375 56 
Q 45.5625 56 51.78125 48.09375 
Q 58.015625 40.1875 58.015625 27.296875 
Q 58.015625 14.40625 51.78125 6.484375 
Q 45.5625 -1.421875 35.59375 -1.421875 
Q 29.59375 -1.421875 25.265625 0.953125 
Q 20.953125 3.328125 18.109375 8.203125 
L 18.109375 0 
L 9.078125 0 
L 9.078125 75.984375 
L 18.109375 75.984375 
z
" id="DejaVuSans-98"/>
      <path d="M 34.28125 27.484375 
Q 23.390625 27.484375 19.1875 25 
Q 14.984375 22.515625 14.984375 16.5 
Q 14.984375 11.71875 18.140625 8.90625 
Q 21.296875 6.109375 26.703125 6.109375 
Q 34.1875 6.109375 38.703125 11.40625 
Q 43.21875 16.703125 43.21875 25.484375 
L 43.21875 27.484375 
z
M 52.203125 31.203125 
L 52.203125 0 
L 43.21875 0 
L 43.21875 8.296875 
Q 40.140625 3.328125 35.546875 0.953125 
Q 30.953125 -1.421875 24.3125 -1.421875 
Q 15.921875 -1.421875 10.953125 3.296875 
Q 6 8.015625 6 15.921875 
Q 6 25.140625 12.171875 29.828125 
Q 18.359375 34.515625 30.609375 34.515625 
L 43.21875 34.515625 
L 43.21875 35.40625 
Q 43.21875 41.609375 39.140625 45 
Q 35.0625 48.390625 27.6875 48.390625 
Q 23 48.390625 18.546875 47.265625 
Q 14.109375 46.140625 10.015625 43.890625 
L 10.015625 52.203125 
Q 14.9375 54.109375 19.578125 55.046875 
Q 24.21875 56 28.609375 56 
Q 40.484375 56 46.34375 49.84375 
Q 52.203125 43.703125 52.203125 31.203125 
z
" id="DejaVuSans-97"/>
      <path id="DejaVuSans-32"/>
      <path d="M 64.40625 67.28125 
L 64.40625 56.890625 
Q 59.421875 61.53125 53.78125 63.8125 
Q 48.140625 66.109375 41.796875 66.109375 
Q 29.296875 66.109375 22.65625 58.46875 
Q 16.015625 50.828125 16.015625 36.375 
Q 16.015625 21.96875 22.65625 14.328125 
Q 29.296875 6.6875 41.796875 6.6875 
Q 48.140625 6.6875 53.78125 8.984375 
Q 59.421875 11.28125 64.40625 15.921875 
L 64.40625 5.609375 
Q 59.234375 2.09375 53.4375 0.328125 
Q 47.65625 -1.421875 41.21875 -1.421875 
Q 24.65625 -1.421875 15.125 8.703125 
Q 5.609375 18.84375 5.609375 36.375 
Q 5.609375 53.953125 15.125 64.078125 
Q 24.65625 74.21875 41.21875 74.21875 
Q 47.75 74.21875 53.53125 72.484375 
Q 59.328125 70.75 64.40625 67.28125 
z
" id="DejaVuSans-67"/>
      <path d="M 52 44.1875 
Q 55.375 50.25 60.0625 53.125 
Q 64.75 56 71.09375 56 
Q 79.640625 56 84.28125 50.015625 
Q 88.921875 44.046875 88.921875 33.015625 
L 88.921875 0 
L 79.890625 0 
L 79.890625 32.71875 
Q 79.890625 40.578125 77.09375 44.375 
Q 74.3125 48.1875 68.609375 48.1875 
Q 61.625 48.1875 57.5625 43.546875 
Q 53.515625 38.921875 53.515625 30.90625 
L 53.515625 0 
L 44.484375 0 
L 44.484375 32.71875 
Q 44.484375 40.625 41.703125 44.40625 
Q 38.921875 48.1875 33.109375 48.1875 
Q 26.21875 48.1875 22.15625 43.53125 
Q 18.109375 38.875 18.109375 30.90625 
L 18.109375 0 
L 9.078125 0 
L 9.078125 54.6875 
L 18.109375 54.6875 
L 18.109375 46.1875 
Q 21.1875 51.21875 25.484375 53.609375 
Q 29.78125 56 35.6875 56 
Q 41.65625 56 45.828125 52.96875 
Q 50 49.953125 52 44.1875 
z
" id="DejaVuSans-109"/>
      <path d="M 8.5 21.578125 
L 8.5 54.6875 
L 17.484375 54.6875 
L 17.484375 21.921875 
Q 17.484375 14.15625 20.5 10.265625 
Q 23.53125 6.390625 29.59375 6.390625 
Q 36.859375 6.390625 41.078125 11.03125 
Q 45.3125 15.671875 45.3125 23.6875 
L 45.3125 54.6875 
L 54.296875 54.6875 
L 54.296875 0 
L 45.3125 0 
L 45.3125 8.40625 
Q 42.046875 3.421875 37.71875 1 
Q 33.40625 -1.421875 27.6875 -1.421875 
Q 18.265625 -1.421875 13.375 4.4375 
Q 8.5 10.296875 8.5 21.578125 
z
M 31.109375 56 
z
" id="DejaVuSans-117"/>
      <path d="M 54.890625 33.015625 
L 54.890625 0 
L 45.90625 0 
L 45.90625 32.71875 
Q 45.90625 40.484375 42.875 44.328125 
Q 39.84375 48.1875 33.796875 48.1875 
Q 26.515625 48.1875 22.3125 43.546875 
Q 18.109375 38.921875 18.109375 30.90625 
L 18.109375 0 
L 9.078125 0 
L 9.078125 54.6875 
L 18.109375 54.6875 
L 18.109375 46.1875 
Q 21.34375 51.125 25.703125 53.5625 
Q 30.078125 56 35.796875 56 
Q 45.21875 56 50.046875 50.171875 
Q 54.890625 44.34375 54.890625 33.015625 
z
" id="DejaVuSans-110"/>
      <path d="M 9.421875 54.6875 
L 18.40625 54.6875 
L 18.40625 0 
L 9.421875 0 
z
M 9.421875 75.984375 
L 18.40625 75.984375 
L 18.40625 64.59375 
L 9.421875 64.59375 
z
" id="DejaVuSans-105"/>
      <path d="M 48.78125 52.59375 
L 48.78125 44.1875 
Q 44.96875 46.296875 41.140625 47.34375 
Q 37.3125 48.390625 33.40625 48.390625 
Q 24.65625 48.390625 19.8125 42.84375 
Q 14.984375 37.3125 14.984375 27.296875 
Q 14.984375 17.28125 19.8125 11.734375 
Q 24.65625 6.203125 33.40625 6.203125 
Q 37.3125 6.203125 41.140625 7.25 
Q 44.96875 8.296875 48.78125 10.40625 
L 48.78125 2.09375 
Q 45.015625 0.34375 40.984375 -0.53125 
Q 36.96875 -1.421875 32.421875 -1.421875 
Q 20.0625 -1.421875 12.78125 6.34375 
Q 5.515625 14.109375 5.515625 27.296875 
Q 5.515625 40.671875 12.859375 48.328125 
Q 20.21875 56 33.015625 56 
Q 37.15625 56 41.109375 55.140625 
Q 45.0625 54.296875 48.78125 52.59375 
z
" id="DejaVuSans-99"/>
      <path d="M 18.3125 70.21875 
L 18.3125 54.6875 
L 36.8125 54.6875 
L 36.8125 47.703125 
L 18.3125 47.703125 
L 18.3125 18.015625 
Q 18.3125 11.328125 20.140625 9.421875 
Q 21.96875 7.515625 27.59375 7.515625 
L 36.8125 7.515625 
L 36.8125 0 
L 27.59375 0 
Q 17.1875 0 13.234375 3.875 
Q 9.28125 7.765625 9.28125 18.015625 
L 9.28125 47.703125 
L 2.6875 47.703125 
L 2.6875 54.6875 
L 9.28125 54.6875 
L 9.28125 70.21875 
z
" id="DejaVuSans-116"/>
      <path d="M 44.390625 34.1875 
Q 47.5625 33.109375 50.5625 29.59375 
Q 53.5625 26.078125 56.59375 19.921875 
L 66.609375 0 
L 56 0 
L 46.6875 18.703125 
Q 43.0625 26.03125 39.671875 28.421875 
Q 36.28125 30.8125 30.421875 30.8125 
L 19.671875 30.8125 
L 19.671875 0 
L 9.8125 0 
L 9.8125 72.90625 
L 32.078125 72.90625 
Q 44.578125 72.90625 50.734375 67.671875 
Q 56.890625 62.453125 56.890625 51.90625 
Q 56.890625 45.015625 53.6875 40.46875 
Q 50.484375 35.9375 44.390625 34.1875 
z
M 19.671875 64.796875 
L 19.671875 38.921875 
L 32.078125 38.921875 
Q 39.203125 38.921875 42.84375 42.21875 
Q 46.484375 45.515625 46.484375 51.90625 
Q 46.484375 58.296875 42.84375 61.546875 
Q 39.203125 64.796875 32.078125 64.796875 
z
" id="DejaVuSans-82"/>
      <path d="M 45.40625 46.390625 
L 45.40625 75.984375 
L 54.390625 75.984375 
L 54.390625 0 
L 45.40625 0 
L 45.40625 8.203125 
Q 42.578125 3.328125 38.25 0.953125 
Q 33.9375 -1.421875 27.875 -1.421875 
Q 17.96875 -1.421875 11.734375 6.484375 
Q 5.515625 14.40625 5.515625 27.296875 
Q 5.515625 40.1875 11.734375 48.09375 
Q 17.96875 56 27.875 56 
Q 33.9375 56 38.25 53.625 
Q 42.578125 51.265625 45.40625 46.390625 
z
M 14.796875 27.296875 
Q 14.796875 17.390625 18.875 11.75 
Q 22.953125 6.109375 30.078125 6.109375 
Q 37.203125 6.109375 41.296875 11.75 
Q 45.40625 17.390625 45.40625 27.296875 
Q 45.40625 37.203125 41.296875 42.84375 
Q 37.203125 48.484375 30.078125 48.484375 
Q 22.953125 48.484375 18.875 42.84375 
Q 14.796875 37.203125 14.796875 27.296875 
z
" id="DejaVuSans-100"/>
      <path d="M 44.28125 53.078125 
L 44.28125 44.578125 
Q 40.484375 46.53125 36.375 47.5 
Q 32.28125 48.484375 27.875 48.484375 
Q 21.1875 48.484375 17.84375 46.4375 
Q 14.5 44.390625 14.5 40.28125 
Q 14.5 37.15625 16.890625 35.375 
Q 19.28125 33.59375 26.515625 31.984375 
L 29.59375 31.296875 
Q 39.15625 29.25 43.1875 25.515625 
Q 47.21875 21.78125 47.21875 15.09375 
Q 47.21875 7.46875 41.1875 3.015625 
Q 35.15625 -1.421875 24.609375 -1.421875 
Q 20.21875 -1.421875 15.453125 -0.5625 
Q 10.6875 0.296875 5.421875 2 
L 5.421875 11.28125 
Q 10.40625 8.6875 15.234375 7.390625 
Q 20.0625 6.109375 24.8125 6.109375 
Q 31.15625 6.109375 34.5625 8.28125 
Q 37.984375 10.453125 37.984375 14.40625 
Q 37.984375 18.0625 35.515625 20.015625 
Q 33.0625 21.96875 24.703125 23.78125 
L 21.578125 24.515625 
Q 13.234375 26.265625 9.515625 29.90625 
Q 5.8125 33.546875 5.8125 39.890625 
Q 5.8125 47.609375 11.28125 51.796875 
Q 16.75 56 26.8125 56 
Q 31.78125 56 36.171875 55.265625 
Q 40.578125 54.546875 44.28125 53.078125 
z
" id="DejaVuSans-115"/>
     </defs>
     <g transform="translate(193.207422 411.714844)scale(0.15 -0.15)">
      <use xlink:href="#DejaVuSans-71"/>
      <use x="77.490234" xlink:href="#DejaVuSans-108"/>
      <use x="105.273438" xlink:href="#DejaVuSans-111"/>
      <use x="166.455078" xlink:href="#DejaVuSans-98"/>
      <use x="229.931641" xlink:href="#DejaVuSans-97"/>
      <use x="291.210938" xlink:href="#DejaVuSans-108"/>
      <use x="318.994141" xlink:href="#DejaVuSans-32"/>
      <use x="350.78125" xlink:href="#DejaVuSans-67"/>
      <use x="420.605469" xlink:href="#DejaVuSans-111"/>
      <use x="481.787109" xlink:href="#DejaVuSans-109"/>
      <use x="579.199219" xlink:href="#DejaVuSans-109"/>
      <use x="676.611328" xlink:href="#DejaVuSans-117"/>
      <use x="739.990234" xlink:href="#DejaVuSans-110"/>
      <use x="803.369141" xlink:href="#DejaVuSans-105"/>
      <use x="831.152344" xlink:href="#DejaVuSans-99"/>
      <use x="886.132812" xlink:href="#DejaVuSans-97"/>
      <use x="947.412109" xlink:href="#DejaVuSans-116"/>
      <use x="986.621094" xlink:href="#DejaVuSans-105"/>
      <use x="1014.404297" xlink:href="#DejaVuSans-111"/>
      <use x="1075.585938" xlink:href="#DejaVuSans-110"/>
      <use x="1138.964844" xlink:href="#DejaVuSans-32"/>
      <use x="1170.751953" xlink:href="#DejaVuSans-82"/>
      <use x="1235.734375" xlink:href="#DejaVuSans-111"/>
      <use x="1296.916016" xlink:href="#DejaVuSans-117"/>
      <use x="1360.294922" xlink:href="#DejaVuSans-110"/>
      <use x="1423.673828" xlink:href="#DejaVuSans-100"/>
      <use x="1487.150391" xlink:href="#DejaVuSans-115"/>
     </g>
    </g>
   </g>
   <g id="matplotlib.axis_2">
    <g id="ytick_1">
     <g id="line2d_7">
      <defs>
       <path d="M 0 0 
L -3.5 0 
" id="m4011d1b20d" style="stroke:#000000;stroke-width:0.8;"/>
      </defs>
      <g>
       <use style="stroke:#000000;stroke-width:0.8;" x="61.2" xlink:href="#m4011d1b20d" y="349.123558"/>
      </g>
     </g>
     <g id="text_8">
      <!-- 20 -->
      <g transform="translate(35.1125 354.822386)scale(0.15 -0.15)">
       <use xlink:href="#DejaVuSans-50"/>
       <use x="63.623047" xlink:href="#DejaVuSans-48"/>
      </g>
     </g>
    </g>
    <g id="ytick_2">
     <g id="line2d_8">
      <g>
       <use style="stroke:#000000;stroke-width:0.8;" x="61.2" xlink:href="#m4011d1b20d" y="308.161512"/>
      </g>
     </g>
     <g id="text_9">
      <!-- 25 -->
      <g transform="translate(35.1125 313.86034)scale(0.15 -0.15)">
       <use xlink:href="#DejaVuSans-50"/>
       <use x="63.623047" xlink:href="#DejaVuSans-53"/>
      </g>
     </g>
    </g>
    <g id="ytick_3">
     <g id="line2d_9">
      <g>
       <use style="stroke:#000000;stroke-width:0.8;" x="61.2" xlink:href="#m4011d1b20d" y="267.199465"/>
      </g>
     </g>
     <g id="text_10">
      <!-- 30 -->
      <g transform="translate(35.1125 272.898293)scale(0.15 -0.15)">
       <use xlink:href="#DejaVuSans-51"/>
       <use x="63.623047" xlink:href="#DejaVuSans-48"/>
      </g>
     </g>
    </g>
    <g id="ytick_4">
     <g id="line2d_10">
      <g>
       <use style="stroke:#000000;stroke-width:0.8;" x="61.2" xlink:href="#m4011d1b20d" y="226.237419"/>
      </g>
     </g>
     <g id="text_11">
      <!-- 35 -->
      <g transform="translate(35.1125 231.936247)scale(0.15 -0.15)">
       <use xlink:href="#DejaVuSans-51"/>
       <use x="63.623047" xlink:href="#DejaVuSans-53"/>
      </g>
     </g>
    </g>
    <g id="ytick_5">
     <g id="line2d_11">
      <g>
       <use style="stroke:#000000;stroke-width:0.8;" x="61.2" xlink:href="#m4011d1b20d" y="185.275373"/>
      </g>
     </g>
     <g id="text_12">
      <!-- 40 -->
      <g transform="translate(35.1125 190.974201)scale(0.15 -0.15)">
       <use xlink:href="#DejaVuSans-52"/>
       <use x="63.623047" xlink:href="#DejaVuSans-48"/>
      </g>
     </g>
    </g>
    <g id="ytick_6">
     <g id="line2d_12">
      <g>
       <use style="stroke:#000000;stroke-width:0.8;" x="61.2" xlink:href="#m4011d1b20d" y="144.313326"/>
      </g>
     </g>
     <g id="text_13">
      <!-- 45 -->
      <g transform="translate(35.1125 150.012155)scale(0.15 -0.15)">
       <use xlink:href="#DejaVuSans-52"/>
       <use x="63.623047" xlink:href="#DejaVuSans-53"/>
      </g>
     </g>
    </g>
    <g id="ytick_7">
     <g id="line2d_13">
      <g>
       <use style="stroke:#000000;stroke-width:0.8;" x="61.2" xlink:href="#m4011d1b20d" y="103.35128"/>
      </g>
     </g>
     <g id="text_14">
      <!-- 50 -->
      <g transform="translate(35.1125 109.050108)scale(0.15 -0.15)">
       <use xlink:href="#DejaVuSans-53"/>
       <use x="63.623047" xlink:href="#DejaVuSans-48"/>
      </g>
     </g>
    </g>
    <g id="ytick_8">
     <g id="line2d_14">
      <g>
       <use style="stroke:#000000;stroke-width:0.8;" x="61.2" xlink:href="#m4011d1b20d" y="62.389234"/>
      </g>
     </g>
     <g id="text_15">
      <!-- 55 -->
      <g transform="translate(35.1125 68.088062)scale(0.15 -0.15)">
       <use xlink:href="#DejaVuSans-53"/>
       <use x="63.623047" xlink:href="#DejaVuSans-53"/>
      </g>
     </g>
    </g>
    <g id="text_16">
     <!-- Test Accuracy -->
     <defs>
      <path d="M -0.296875 72.90625 
L 61.375 72.90625 
L 61.375 64.59375 
L 35.5 64.59375 
L 35.5 0 
L 25.59375 0 
L 25.59375 64.59375 
L -0.296875 64.59375 
z
" id="DejaVuSans-84"/>
      <path d="M 56.203125 29.59375 
L 56.203125 25.203125 
L 14.890625 25.203125 
Q 15.484375 15.921875 20.484375 11.0625 
Q 25.484375 6.203125 34.421875 6.203125 
Q 39.59375 6.203125 44.453125 7.46875 
Q 49.3125 8.734375 54.109375 11.28125 
L 54.109375 2.78125 
Q 49.265625 0.734375 44.1875 -0.34375 
Q 39.109375 -1.421875 33.890625 -1.421875 
Q 20.796875 -1.421875 13.15625 6.1875 
Q 5.515625 13.8125 5.515625 26.8125 
Q 5.515625 40.234375 12.765625 48.109375 
Q 20.015625 56 32.328125 56 
Q 43.359375 56 49.78125 48.890625 
Q 56.203125 41.796875 56.203125 29.59375 
z
M 47.21875 32.234375 
Q 47.125 39.59375 43.09375 43.984375 
Q 39.0625 48.390625 32.421875 48.390625 
Q 24.90625 48.390625 20.390625 44.140625 
Q 15.875 39.890625 15.1875 32.171875 
z
" id="DejaVuSans-101"/>
      <path d="M 34.1875 63.1875 
L 20.796875 26.90625 
L 47.609375 26.90625 
z
M 28.609375 72.90625 
L 39.796875 72.90625 
L 67.578125 0 
L 57.328125 0 
L 50.6875 18.703125 
L 17.828125 18.703125 
L 11.1875 0 
L 0.78125 0 
z
" id="DejaVuSans-65"/>
      <path d="M 41.109375 46.296875 
Q 39.59375 47.171875 37.8125 47.578125 
Q 36.03125 48 33.890625 48 
Q 26.265625 48 22.1875 43.046875 
Q 18.109375 38.09375 18.109375 28.8125 
L 18.109375 0 
L 9.078125 0 
L 9.078125 54.6875 
L 18.109375 54.6875 
L 18.109375 46.1875 
Q 20.953125 51.171875 25.484375 53.578125 
Q 30.03125 56 36.53125 56 
Q 37.453125 56 38.578125 55.875 
Q 39.703125 55.765625 41.0625 55.515625 
z
" id="DejaVuSans-114"/>
      <path d="M 32.171875 -5.078125 
Q 28.375 -14.84375 24.75 -17.8125 
Q 21.140625 -20.796875 15.09375 -20.796875 
L 7.90625 -20.796875 
L 7.90625 -13.28125 
L 13.1875 -13.28125 
Q 16.890625 -13.28125 18.9375 -11.515625 
Q 21 -9.765625 23.484375 -3.21875 
L 25.09375 0.875 
L 2.984375 54.6875 
L 12.5 54.6875 
L 29.59375 11.921875 
L 46.6875 54.6875 
L 56.203125 54.6875 
z
" id="DejaVuSans-121"/>
     </defs>
     <g transform="translate(27.992969 267.017859)rotate(-90)scale(0.15 -0.15)">
      <use xlink:href="#DejaVuSans-84"/>
      <use x="44.083984" xlink:href="#DejaVuSans-101"/>
      <use x="105.607422" xlink:href="#DejaVuSans-115"/>
      <use x="157.707031" xlink:href="#DejaVuSans-116"/>
      <use x="196.916016" xlink:href="#DejaVuSans-32"/>
      <use x="228.703125" xlink:href="#DejaVuSans-65"/>
      <use x="295.361328" xlink:href="#DejaVuSans-99"/>
      <use x="350.341797" xlink:href="#DejaVuSans-99"/>
      <use x="405.322266" xlink:href="#DejaVuSans-117"/>
      <use x="468.701172" xlink:href="#DejaVuSans-114"/>
      <use x="509.814453" xlink:href="#DejaVuSans-97"/>
      <use x="571.09375" xlink:href="#DejaVuSans-99"/>
      <use x="626.074219" xlink:href="#DejaVuSans-121"/>
     </g>
    </g>
   </g>
   <g id="line2d_15">
    <path clip-path="url(#pcad07af5a9)" d="M 83.695455 360.31363 
L 92.877273 325.818692 
L 102.059091 263.720678 
L 111.240909 233.010128 
L 120.422727 215.113455 
L 129.604545 203.336723 
L 138.786364 193.000909 
L 147.968182 188.175418 
L 157.15 182.977821 
L 166.331818 174.73213 
L 175.513636 172.899314 
L 184.695455 166.945632 
L 193.877273 163.010818 
L 203.059091 158.216995 
L 212.240909 155.394538 
L 221.422727 150.466124 
L 230.604545 148.787693 
L 239.786364 145.09831 
L 248.968182 142.885472 
L 258.15 140.965568 
L 267.331818 137.003044 
L 276.513636 136.971375 
L 285.695455 134.168711 
L 294.877273 131.524389 
L 304.059091 129.873668 
L 313.240909 128.880068 
L 322.422727 126.235746 
L 331.604545 123.951654 
L 340.786364 123.421206 
L 349.968182 121.869449 
L 359.15 120.935227 
L 368.331818 120.693755 
L 377.513636 118.849063 
L 386.695455 117.404187 
L 395.877273 115.864305 
L 405.059091 114.518393 
L 414.240909 114.846954 
L 423.422727 114.272962 
L 432.604545 112.653909 
L 441.786364 111.541552 
L 450.968182 110.152095 
L 460.15 109.843327 
L 469.331818 107.15942 
L 478.513636 106.700226 
L 487.695455 106.787315 
L 496.877273 105.382024 
L 506.059091 103.822349 
L 515.240909 103.418576 
L 524.422727 103.216689 
L 533.604545 101.953907 
" style="fill:none;stroke:#1f77b4;stroke-linecap:square;stroke-width:1.5;"/>
   </g>
   <g id="line2d_16">
    <path clip-path="url(#pcad07af5a9)" d="M 83.695455 360.329464 
L 92.877273 360.329464 
L 102.059091 333.38351 
L 111.240909 307.276772 
L 120.422727 290.294527 
L 129.604545 298.029564 
L 138.786364 277.555864 
L 147.968182 269.460598 
L 157.15 264.203623 
L 166.331818 254.216163 
L 175.513636 255.193928 
L 184.695455 247.914127 
L 193.877273 240.380977 
L 203.059091 230.927923 
L 212.240909 230.409351 
L 221.422727 224.237948 
L 230.604545 218.893884 
L 239.786364 213.431064 
L 248.968182 211.067801 
L 258.15 208.922258 
L 267.331818 204.864729 
L 276.513636 205.88208 
L 285.695455 199.295028 
L 294.877273 197.893695 
L 304.059091 195.989626 
L 313.240909 194.299318 
L 322.422727 189.679672 
L 331.604545 188.349594 
L 340.786364 189.794471 
L 349.968182 189.545081 
L 359.15 185.982372 
L 368.331818 184.99669 
L 377.513636 182.095061 
L 386.695455 181.683371 
L 395.877273 179.086552 
L 405.059091 177.332907 
L 414.240909 176.806418 
L 423.422727 176.604531 
L 432.604545 174.553994 
L 441.786364 172.895356 
L 450.968182 173.881038 
L 460.15 171.632573 
L 469.331818 170.108526 
L 478.513636 169.589953 
L 487.695455 170.084774 
L 496.877273 165.952032 
L 506.059091 166.035162 
L 515.240909 165.940156 
L 524.422727 165.089065 
L 533.604545 162.48037 
" style="fill:none;stroke:#ff7f0e;stroke-linecap:square;stroke-width:1.5;"/>
   </g>
   <g id="line2d_17">
    <path clip-path="url(#pcad07af5a9)" d="M 83.695455 357.732646 
L 92.877273 332.421579 
L 102.059091 279.004699 
L 111.240909 252.616902 
L 120.422727 231.331697 
L 129.604545 224.408166 
L 138.786364 208.284929 
L 147.968182 199.061472 
L 157.15 193.230506 
L 166.331818 185.915077 
L 175.513636 179.292397 
L 184.695455 179.197391 
L 193.877273 174.629207 
L 203.059091 168.683442 
L 212.240909 163.608561 
L 221.422727 160.790063 
L 230.604545 157.825097 
L 239.786364 154.547405 
L 248.968182 151.4716 
L 258.15 148.344333 
L 267.331818 145.359575 
L 276.513636 142.493574 
L 285.695455 140.078849 
L 294.877273 139.952175 
L 304.059091 138.154986 
L 313.240909 135.88277 
L 322.422727 133.080106 
L 331.604545 131.120616 
L 340.786364 129.687615 
L 349.968182 127.609368 
L 359.15 125.72905 
L 368.331818 125.159016 
L 377.513636 124.620652 
L 386.695455 122.918468 
L 395.877273 121.493385 
L 405.059091 119.173666 
L 414.240909 118.690721 
L 423.422727 116.873739 
L 432.604545 115.543661 
L 441.786364 115.167598 
L 450.968182 114.846954 
L 460.15 113.829602 
L 469.331818 111.426753 
L 478.513636 110.425236 
L 487.695455 109.859161 
L 496.877273 108.418244 
L 506.059091 106.8269 
L 515.240909 105.722461 
L 524.422727 105.952058 
L 533.604545 104.190496 
" style="fill:none;stroke:#2ca02c;stroke-linecap:square;stroke-width:1.5;"/>
   </g>
   <g id="line2d_18">
    <path clip-path="url(#pcad07af5a9)" d="M 83.695455 306.200042 
L 92.877273 217.536097 
L 102.059091 192.917779 
L 111.240909 173.972085 
L 120.422727 160.010225 
L 129.604545 150.398829 
L 138.786364 145.165606 
L 147.968182 138.47563 
L 157.15 132.312144 
L 166.331818 128.092313 
L 175.513636 123.733933 
L 184.695455 119.874332 
L 193.877273 115.060716 
L 203.059091 112.630157 
L 212.240909 109.348507 
L 221.422727 106.838776 
L 230.604545 103.616504 
L 239.786364 101.494713 
L 248.968182 100.204221 
L 258.15 97.567816 
L 267.331818 96.138774 
L 276.513636 93.846765 
L 285.695455 92.880875 
L 294.877273 90.462191 
L 304.059091 88.862931 
L 313.240909 88.075177 
L 322.422727 86.551129 
L 331.604545 85.854421 
L 340.786364 84.441214 
L 349.968182 82.770699 
L 359.15 81.955235 
L 368.331818 80.735996 
L 377.513636 79.837402 
L 386.695455 79.876988 
L 395.877273 78.360857 
L 405.059091 79.259452 
L 414.240909 77.521641 
L 423.422727 76.47658 
L 432.604545 76.745763 
L 441.786364 76.243025 
L 450.968182 75.170254 
L 460.15 74.536883 
L 469.331818 74.109358 
L 478.513636 73.63433 
L 487.695455 73.305769 
L 496.877273 72.921789 
L 506.059091 72.545725 
L 515.240909 71.706509 
L 524.422727 71.92423 
L 533.604545 71.156268 
" style="fill:none;stroke:#d62728;stroke-linecap:square;stroke-width:1.5;"/>
   </g>
   <g id="patch_3">
    <path d="M 61.2 374.8 
L 61.2 56.448219 
" style="fill:none;stroke:#000000;stroke-linecap:square;stroke-linejoin:miter;stroke-width:0.8;"/>
   </g>
   <g id="patch_4">
    <path d="M 556.1 374.8 
L 556.1 56.448219 
" style="fill:none;stroke:#000000;stroke-linecap:square;stroke-linejoin:miter;stroke-width:0.8;"/>
   </g>
   <g id="patch_5">
    <path d="M 61.2 374.8 
L 556.1 374.8 
" style="fill:none;stroke:#000000;stroke-linecap:square;stroke-linejoin:miter;stroke-width:0.8;"/>
   </g>
   <g id="patch_6">
    <path d="M 61.2 56.448219 
L 556.1 56.448219 
" style="fill:none;stroke:#000000;stroke-linecap:square;stroke-linejoin:miter;stroke-width:0.8;"/>
   </g>
   <g id="legend_1">
    <g id="patch_7">
     <path d="M 59.052344 42.712639 
L 558.247656 42.712639 
Q 561.247656 42.712639 561.247656 39.712639 
L 561.247656 19.195452 
Q 561.247656 16.195452 558.247656 16.195452 
L 59.052344 16.195452 
Q 56.052344 16.195452 56.052344 19.195452 
L 56.052344 39.712639 
Q 56.052344 42.712639 59.052344 42.712639 
z
" style="fill:#ffffff;opacity:0.8;stroke:#cccccc;stroke-linejoin:miter;"/>
    </g>
    <g id="line2d_19">
     <path d="M 62.052344 28.343108 
L 92.052344 28.343108 
" style="fill:none;stroke:#1f77b4;stroke-linecap:square;stroke-width:1.5;"/>
    </g>
    <g id="line2d_20"/>
    <g id="text_17">
     <!-- FedAvg -->
     <defs>
      <path d="M 9.8125 72.90625 
L 51.703125 72.90625 
L 51.703125 64.59375 
L 19.671875 64.59375 
L 19.671875 43.109375 
L 48.578125 43.109375 
L 48.578125 34.8125 
L 19.671875 34.8125 
L 19.671875 0 
L 9.8125 0 
z
" id="DejaVuSans-70"/>
      <path d="M 2.984375 54.6875 
L 12.5 54.6875 
L 29.59375 8.796875 
L 46.6875 54.6875 
L 56.203125 54.6875 
L 35.6875 0 
L 23.484375 0 
z
" id="DejaVuSans-118"/>
      <path d="M 45.40625 27.984375 
Q 45.40625 37.75 41.375 43.109375 
Q 37.359375 48.484375 30.078125 48.484375 
Q 22.859375 48.484375 18.828125 43.109375 
Q 14.796875 37.75 14.796875 27.984375 
Q 14.796875 18.265625 18.828125 12.890625 
Q 22.859375 7.515625 30.078125 7.515625 
Q 37.359375 7.515625 41.375 12.890625 
Q 45.40625 18.265625 45.40625 27.984375 
z
M 54.390625 6.78125 
Q 54.390625 -7.171875 48.1875 -13.984375 
Q 42 -20.796875 29.203125 -20.796875 
Q 24.46875 -20.796875 20.265625 -20.09375 
Q 16.0625 -19.390625 12.109375 -17.921875 
L 12.109375 -9.1875 
Q 16.0625 -11.328125 19.921875 -12.34375 
Q 23.78125 -13.375 27.78125 -13.375 
Q 36.625 -13.375 41.015625 -8.765625 
Q 45.40625 -4.15625 45.40625 5.171875 
L 45.40625 9.625 
Q 42.625 4.78125 38.28125 2.390625 
Q 33.9375 0 27.875 0 
Q 17.828125 0 11.671875 7.65625 
Q 5.515625 15.328125 5.515625 27.984375 
Q 5.515625 40.671875 11.671875 48.328125 
Q 17.828125 56 27.875 56 
Q 33.9375 56 38.28125 53.609375 
Q 42.625 51.21875 45.40625 46.390625 
L 45.40625 54.6875 
L 54.390625 54.6875 
z
" id="DejaVuSans-103"/>
     </defs>
     <g transform="translate(104.052344 33.593108)scale(0.15 -0.15)">
      <use xlink:href="#DejaVuSans-70"/>
      <use x="52.019531" xlink:href="#DejaVuSans-101"/>
      <use x="113.542969" xlink:href="#DejaVuSans-100"/>
      <use x="177.019531" xlink:href="#DejaVuSans-65"/>
      <use x="239.552734" xlink:href="#DejaVuSans-118"/>
      <use x="298.732422" xlink:href="#DejaVuSans-103"/>
     </g>
    </g>
    <g id="line2d_21">
     <path d="M 188.3875 28.343108 
L 218.3875 28.343108 
" style="fill:none;stroke:#ff7f0e;stroke-linecap:square;stroke-width:1.5;"/>
    </g>
    <g id="line2d_22"/>
    <g id="text_18">
     <!-- FedMed -->
     <defs>
      <path d="M 9.8125 72.90625 
L 24.515625 72.90625 
L 43.109375 23.296875 
L 61.8125 72.90625 
L 76.515625 72.90625 
L 76.515625 0 
L 66.890625 0 
L 66.890625 64.015625 
L 48.09375 14.015625 
L 38.1875 14.015625 
L 19.390625 64.015625 
L 19.390625 0 
L 9.8125 0 
z
" id="DejaVuSans-77"/>
     </defs>
     <g transform="translate(230.3875 33.593108)scale(0.15 -0.15)">
      <use xlink:href="#DejaVuSans-70"/>
      <use x="52.019531" xlink:href="#DejaVuSans-101"/>
      <use x="113.542969" xlink:href="#DejaVuSans-100"/>
      <use x="177.019531" xlink:href="#DejaVuSans-77"/>
      <use x="263.298828" xlink:href="#DejaVuSans-101"/>
      <use x="324.822266" xlink:href="#DejaVuSans-100"/>
     </g>
    </g>
    <g id="line2d_23">
     <path d="M 318.636719 28.343108 
L 348.636719 28.343108 
" style="fill:none;stroke:#2ca02c;stroke-linecap:square;stroke-width:1.5;"/>
    </g>
    <g id="line2d_24"/>
    <g id="text_19">
     <!-- FedProx -->
     <defs>
      <path d="M 19.671875 64.796875 
L 19.671875 37.40625 
L 32.078125 37.40625 
Q 38.96875 37.40625 42.71875 40.96875 
Q 46.484375 44.53125 46.484375 51.125 
Q 46.484375 57.671875 42.71875 61.234375 
Q 38.96875 64.796875 32.078125 64.796875 
z
M 9.8125 72.90625 
L 32.078125 72.90625 
Q 44.34375 72.90625 50.609375 67.359375 
Q 56.890625 61.8125 56.890625 51.125 
Q 56.890625 40.328125 50.609375 34.8125 
Q 44.34375 29.296875 32.078125 29.296875 
L 19.671875 29.296875 
L 19.671875 0 
L 9.8125 0 
z
" id="DejaVuSans-80"/>
      <path d="M 54.890625 54.6875 
L 35.109375 28.078125 
L 55.90625 0 
L 45.3125 0 
L 29.390625 21.484375 
L 13.484375 0 
L 2.875 0 
L 24.125 28.609375 
L 4.6875 54.6875 
L 15.28125 54.6875 
L 29.78125 35.203125 
L 44.28125 54.6875 
z
" id="DejaVuSans-120"/>
     </defs>
     <g transform="translate(360.636719 33.593108)scale(0.15 -0.15)">
      <use xlink:href="#DejaVuSans-70"/>
      <use x="52.019531" xlink:href="#DejaVuSans-101"/>
      <use x="113.542969" xlink:href="#DejaVuSans-100"/>
      <use x="177.019531" xlink:href="#DejaVuSans-80"/>
      <use x="235.572266" xlink:href="#DejaVuSans-114"/>
      <use x="274.435547" xlink:href="#DejaVuSans-111"/>
      <use x="332.492188" xlink:href="#DejaVuSans-120"/>
     </g>
    </g>
    <g id="line2d_25">
     <path d="M 449.389844 28.343108 
L 479.389844 28.343108 
" style="fill:none;stroke:#d62728;stroke-linecap:square;stroke-width:1.5;"/>
    </g>
    <g id="line2d_26"/>
    <g id="text_20">
     <!-- qFedAvg -->
     <defs>
      <path d="M 14.796875 27.296875 
Q 14.796875 17.390625 18.875 11.75 
Q 22.953125 6.109375 30.078125 6.109375 
Q 37.203125 6.109375 41.296875 11.75 
Q 45.40625 17.390625 45.40625 27.296875 
Q 45.40625 37.203125 41.296875 42.84375 
Q 37.203125 48.484375 30.078125 48.484375 
Q 22.953125 48.484375 18.875 42.84375 
Q 14.796875 37.203125 14.796875 27.296875 
z
M 45.40625 8.203125 
Q 42.578125 3.328125 38.25 0.953125 
Q 33.9375 -1.421875 27.875 -1.421875 
Q 17.96875 -1.421875 11.734375 6.484375 
Q 5.515625 14.40625 5.515625 27.296875 
Q 5.515625 40.1875 11.734375 48.09375 
Q 17.96875 56 27.875 56 
Q 33.9375 56 38.25 53.625 
Q 42.578125 51.265625 45.40625 46.390625 
L 45.40625 54.6875 
L 54.390625 54.6875 
L 54.390625 -20.796875 
L 45.40625 -20.796875 
z
" id="DejaVuSans-113"/>
     </defs>
     <g transform="translate(491.389844 33.593108)scale(0.15 -0.15)">
      <use xlink:href="#DejaVuSans-113"/>
      <use x="63.476562" xlink:href="#DejaVuSans-70"/>
      <use x="115.496094" xlink:href="#DejaVuSans-101"/>
      <use x="177.019531" xlink:href="#DejaVuSans-100"/>
      <use x="240.496094" xlink:href="#DejaVuSans-65"/>
      <use x="303.029297" xlink:href="#DejaVuSans-118"/>
      <use x="362.208984" xlink:href="#DejaVuSans-103"/>
     </g>
    </g>
   </g>
  </g>
 </g>
 <defs>
  <clipPath id="pcad07af5a9">
   <rect height="318.351781" width="494.9" x="61.2" y="56.448219"/>
  </clipPath>
 </defs>
</svg>
