<?xml version="1.0" encoding="utf-8" standalone="no"?>
<!DOCTYPE svg PUBLIC "-//W3C//DTD SVG 1.1//EN"
  "http://www.w3.org/Graphics/SVG/1.1/DTD/svg11.dtd">
<!-- Created with matplotlib (https://matplotlib.org/) -->
<svg height="432pt" version="1.1" viewBox="0 0 576 432" width="576pt" xmlns="http://www.w3.org/2000/svg" xmlns:xlink="http://www.w3.org/1999/xlink">
 <defs>
  <style type="text/css">
*{stroke-linecap:butt;stroke-linejoin:round;}
  </style>
 </defs>
 <g id="figure_1">
  <g id="patch_1">
   <path d="M 0 432 
L 576 432 
L 576 0 
L 0 0 
z
" style="fill:#ffffff;"/>
  </g>
  <g id="axes_1">
   <g id="patch_2">
    <path d="M 61.2 374.8 
L 556.1 374.8 
L 556.1 56.448219 
L 61.2 56.448219 
z
" style="fill:#ffffff;"/>
   </g>
   <g id="PolyCollection_1">
    <path clip-path="url(#pfdd7a7b33e)" d="M 83.695455 304.530872 
L 83.695455 360.329465 
L 92.877273 280.529856 
L 102.059091 190.220383 
L 111.240909 159.084383 
L 120.422727 144.345448 
L 129.604545 131.507501 
L 138.786364 131.423757 
L 147.968182 122.8735 
L 157.15 120.118324 
L 166.331818 117.455266 
L 175.513636 116.182358 
L 184.695455 111.325209 
L 193.877273 112.003535 
L 203.059091 105.881853 
L 212.240909 107.364121 
L 221.422727 106.250326 
L 230.604545 104.634068 
L 239.786364 101.786774 
L 248.968182 101.602537 
L 258.15 103.386283 
L 267.331818 100.790221 
L 276.513636 98.261154 
L 285.695455 98.420267 
L 294.877273 96.904502 
L 304.059091 95.874451 
L 313.240909 96.268048 
L 322.422727 93.73898 
L 331.604545 93.387256 
L 340.786364 91.327155 
L 349.968182 92.055727 
L 359.15 93.203019 
L 368.331818 91.377401 
L 377.513636 90.171488 
L 386.695455 91.762623 
L 395.877273 92.315333 
L 405.059091 91.796121 
L 414.240909 94.283316 
L 423.422727 90.271981 
L 432.604545 89.895133 
L 441.786364 90.565085 
L 450.968182 93.663611 
L 460.15 92.357205 
L 469.331818 93.286763 
L 478.513636 89.652276 
L 487.695455 87.935525 
L 496.877273 89.166561 
L 506.059091 89.434541 
L 515.240909 87.876904 
L 524.422727 87.332568 
L 533.604545 86.227148 
L 533.604545 84.661136 
L 533.604545 84.661136 
L 524.422727 85.599069 
L 515.240909 83.279361 
L 506.059091 84.041431 
L 496.877273 85.389709 
L 487.695455 87.340943 
L 478.513636 85.063107 
L 469.331818 86.394636 
L 460.15 85.079856 
L 450.968182 88.999073 
L 441.786364 87.692667 
L 432.604545 88.354244 
L 423.422727 89.417793 
L 414.240909 88.856708 
L 405.059091 86.679366 
L 395.877273 85.741433 
L 386.695455 85.607443 
L 377.513636 89.987251 
L 368.331818 89.124689 
L 359.15 90.489715 
L 349.968182 89.225182 
L 340.786364 88.881831 
L 331.604545 92.097599 
L 322.422727 90.598582 
L 313.240909 93.069029 
L 304.059091 91.971983 
L 294.877273 93.05228 
L 285.695455 94.333562 
L 276.513636 93.697108 
L 267.331818 94.601543 
L 258.15 97.314847 
L 248.968182 97.800562 
L 239.786364 96.393663 
L 230.604545 97.247852 
L 221.422727 97.708443 
L 212.240909 102.414853 
L 203.059091 101.460172 
L 193.877273 103.955742 
L 184.695455 108.377422 
L 175.513636 107.079391 
L 166.331818 109.348852 
L 157.15 115.411914 
L 147.968182 118.342952 
L 138.786364 120.151822 
L 129.604545 130.184347 
L 120.422727 133.860706 
L 111.240909 146.690279 
L 102.059091 166.077003 
L 92.877273 205.47853 
L 83.695455 304.530872 
z
" style="fill:#1f77b4;fill-opacity:0.5;"/>
   </g>
   <g id="PolyCollection_2">
    <path clip-path="url(#pfdd7a7b33e)" d="M 83.695455 358.671334 
L 83.695455 360.329465 
L 92.877273 329.829919 
L 102.059091 261.38599 
L 111.240909 232.511077 
L 120.422727 211.248488 
L 129.604545 209.741097 
L 138.786364 201.05685 
L 147.968182 182.909536 
L 157.15 175.498197 
L 166.331818 170.900654 
L 175.513636 167.643014 
L 184.695455 164.259759 
L 193.877273 160.424286 
L 203.059091 154.084869 
L 212.240909 151.597674 
L 221.422727 151.79866 
L 230.604545 147.01688 
L 239.786364 142.854806 
L 248.968182 140.225246 
L 258.15 141.079434 
L 267.331818 143.265151 
L 276.513636 139.68091 
L 285.695455 133.65972 
L 294.877273 134.162184 
L 304.059091 132.646419 
L 313.240909 133.190754 
L 322.422727 129.288286 
L 331.604545 130.410455 
L 340.786364 128.911439 
L 349.968182 129.556267 
L 359.15 128.836069 
L 368.331818 127.035574 
L 377.513636 128.911439 
L 386.695455 125.285326 
L 395.877273 126.323751 
L 405.059091 124.53163 
L 414.240909 125.796164 
L 423.422727 125.452813 
L 432.604545 123.987294 
L 441.786364 120.227191 
L 450.968182 122.496652 
L 460.15 117.237532 
L 469.331818 119.498619 
L 478.513636 119.716353 
L 487.695455 120.017831 
L 496.877273 120.712906 
L 506.059091 118.535563 
L 515.240909 117.723247 
L 524.422727 118.24246 
L 533.604545 116.701571 
L 533.604545 115.344919 
L 533.604545 115.344919 
L 524.422727 113.603045 
L 515.240909 116.023245 
L 506.059091 118.485317 
L 496.877273 118.09172 
L 487.695455 118.51044 
L 478.513636 117.40502 
L 469.331818 117.698124 
L 460.15 116.16561 
L 450.968182 119.666107 
L 441.786364 119.339505 
L 432.604545 118.435071 
L 423.422727 122.429657 
L 414.240909 123.149855 
L 405.059091 124.246901 
L 395.877273 121.21537 
L 386.695455 121.709459 
L 377.513636 122.019312 
L 368.331818 126.809465 
L 359.15 127.328678 
L 349.968182 126.74247 
L 340.786364 127.981881 
L 331.604545 127.990255 
L 322.422727 128.89469 
L 313.240909 130.502574 
L 304.059091 128.618335 
L 294.877273 127.646905 
L 285.695455 131.097156 
L 276.513636 134.271051 
L 267.331818 135.024747 
L 258.15 138.23214 
L 248.968182 139.387806 
L 239.786364 138.742978 
L 230.604545 144.04397 
L 221.422727 145.877962 
L 212.240909 143.993724 
L 203.059091 146.12082 
L 193.877273 149.64644 
L 184.695455 163.774044 
L 175.513636 164.485868 
L 166.331818 164.79572 
L 157.15 165.440549 
L 147.968182 178.060762 
L 138.786364 177.357312 
L 129.604545 179.543029 
L 120.422727 196.760785 
L 111.240909 211.893317 
L 102.059091 240.97759 
L 92.877273 325.307745 
L 83.695455 358.671334 
z
" style="fill:#ff7f0e;fill-opacity:0.5;"/>
   </g>
   <g id="PolyCollection_3">
    <path clip-path="url(#pfdd7a7b33e)" d="M 83.695455 305.59442 
L 83.695455 320.626459 
L 92.877273 235.693347 
L 102.059091 188.369642 
L 111.240909 169.041538 
L 120.422727 165.783899 
L 129.604545 144.270079 
L 138.786364 130.904544 
L 147.968182 125.285326 
L 157.15 121.190247 
L 166.331818 116.324723 
L 175.513636 113.452306 
L 184.695455 108.997128 
L 193.877273 103.252293 
L 203.059091 100.790221 
L 212.240909 100.162141 
L 221.422727 98.905982 
L 230.604545 97.071989 
L 239.786364 100.220762 
L 248.968182 94.040459 
L 258.15 92.717304 
L 267.331818 91.494643 
L 276.513636 91.904988 
L 285.695455 91.067548 
L 294.877273 88.412865 
L 304.059091 91.980357 
L 313.240909 89.643901 
L 322.422727 88.622225 
L 331.604545 89.375921 
L 340.786364 89.518285 
L 349.968182 87.860155 
L 359.15 89.819764 
L 368.331818 88.55523 
L 377.513636 88.052766 
L 386.695455 87.098085 
L 395.877273 89.87001 
L 405.059091 89.87001 
L 414.240909 89.392669 
L 423.422727 85.992665 
L 432.604545 85.305965 
L 441.786364 82.584286 
L 450.968182 81.261132 
L 460.15 82.081823 
L 469.331818 83.999559 
L 478.513636 82.148818 
L 487.695455 83.028129 
L 496.877273 82.065074 
L 506.059091 79.669997 
L 515.240909 80.055219 
L 524.422727 82.575912 
L 533.604545 82.11532 
L 533.604545 77.392162 
L 533.604545 77.392162 
L 524.422727 78.003493 
L 515.240909 74.335508 
L 506.059091 76.429106 
L 496.877273 74.444375 
L 487.695455 78.263099 
L 478.513636 77.986744 
L 469.331818 77.224674 
L 460.15 78.212852 
L 450.968182 76.688713 
L 441.786364 79.594628 
L 432.604545 78.757188 
L 423.422727 78.497582 
L 414.240909 79.00842 
L 405.059091 81.093644 
L 395.877273 80.331574 
L 386.695455 81.035023 
L 377.513636 79.887731 
L 368.331818 83.865569 
L 359.15 81.403497 
L 349.968182 82.11532 
L 340.786364 83.555716 
L 331.604545 87.567051 
L 322.422727 84.150298 
L 313.240909 84.05818 
L 304.059091 87.985771 
L 294.877273 87.190204 
L 285.695455 84.719757 
L 276.513636 87.500056 
L 267.331818 88.111387 
L 258.15 91.544889 
L 248.968182 93.638488 
L 239.786364 96.108934 
L 230.604545 95.221248 
L 221.422727 96.041939 
L 212.240909 97.189231 
L 203.059091 98.110414 
L 193.877273 102.339484 
L 184.695455 104.181851 
L 175.513636 107.121263 
L 166.331818 110.939987 
L 157.15 118.753298 
L 147.968182 121.709459 
L 138.786364 130.644938 
L 129.604545 138.114898 
L 120.422727 153.699647 
L 111.240909 165.482421 
L 102.059091 183.654857 
L 92.877273 230.182995 
L 83.695455 305.59442 
z
" style="fill:#2ca02c;fill-opacity:0.5;"/>
   </g>
   <g id="PolyCollection_4">
    <path clip-path="url(#pfdd7a7b33e)" d="M 83.695455 299.271752 
L 83.695455 306.549101 
L 92.877273 256.612585 
L 102.059091 176.126276 
L 111.240909 169.08341 
L 120.422727 152.359744 
L 129.604545 132.143955 
L 138.786364 133.45036 
L 147.968182 132.872527 
L 157.15 125.905031 
L 166.331818 119.867092 
L 175.513636 119.255761 
L 184.695455 112.522748 
L 193.877273 110.939987 
L 203.059091 105.036039 
L 212.240909 105.002541 
L 221.422727 99.83554 
L 230.604545 97.398591 
L 239.786364 95.799081 
L 248.968182 93.102526 
L 258.15 91.879865 
L 267.331818 91.980357 
L 276.513636 91.670505 
L 285.695455 91.971983 
L 294.877273 86.40301 
L 304.059091 85.724685 
L 313.240909 86.017788 
L 322.422727 86.82173 
L 331.604545 84.007934 
L 340.786364 84.100052 
L 349.968182 82.031576 
L 359.15 82.785272 
L 368.331818 81.08527 
L 377.513636 81.629605 
L 386.695455 78.698567 
L 395.877273 77.48428 
L 405.059091 77.584773 
L 414.240909 77.55965 
L 423.422727 76.30349 
L 432.604545 76.546348 
L 441.786364 76.353737 
L 450.968182 76.956693 
L 460.15 75.884771 
L 469.331818 74.812848 
L 478.513636 74.385754 
L 487.695455 73.941911 
L 496.877273 73.61531 
L 506.059091 73.029102 
L 515.240909 73.472945 
L 524.422727 71.982303 
L 533.604545 71.588706 
L 533.604545 71.186735 
L 533.604545 71.186735 
L 524.422727 71.546834 
L 515.240909 70.918754 
L 506.059091 71.839938 
L 496.877273 72.819742 
L 487.695455 73.33058 
L 478.513636 73.238462 
L 469.331818 73.941911 
L 460.15 75.265065 
L 450.968182 74.85472 
L 441.786364 76.144377 
L 432.604545 75.75078 
L 423.422727 76.152751 
L 414.240909 77.392162 
L 405.059091 77.400536 
L 395.877273 77.149304 
L 386.695455 78.514331 
L 377.513636 79.879357 
L 368.331818 78.840932 
L 359.15 80.122214 
L 349.968182 79.753741 
L 340.786364 80.18921 
L 331.604545 79.795613 
L 322.422727 80.390195 
L 313.240909 83.37148 
L 304.059091 85.58232 
L 294.877273 86.026163 
L 285.695455 87.943899 
L 276.513636 89.350797 
L 267.331818 91.017302 
L 258.15 90.983804 
L 248.968182 92.784299 
L 239.786364 89.669024 
L 230.604545 95.782333 
L 221.422727 96.812383 
L 212.240909 100.338003 
L 203.059091 100.346378 
L 193.877273 102.004508 
L 184.695455 109.373975 
L 175.513636 109.734074 
L 166.331818 112.104028 
L 157.15 117.714873 
L 147.968182 122.597145 
L 138.786364 120.403053 
L 129.604545 126.457741 
L 120.422727 145.810967 
L 111.240909 163.882911 
L 102.059091 169.242524 
L 92.877273 235.550982 
L 83.695455 299.271752 
z
" style="fill:#d62728;fill-opacity:0.5;"/>
   </g>
   <g id="matplotlib.axis_1">
    <g id="xtick_1">
     <g id="line2d_1">
      <defs>
       <path d="M 0 0 
L 0 3.5 
" id="m28ff715855" style="stroke:#000000;stroke-width:0.8;"/>
      </defs>
      <g>
       <use style="stroke:#000000;stroke-width:0.8;" x="83.695455" xlink:href="#m28ff715855" y="374.8"/>
      </g>
     </g>
     <g id="text_1">
      <!-- 0 -->
      <defs>
       <path d="M 31.78125 66.40625 
Q 24.171875 66.40625 20.328125 58.90625 
Q 16.5 51.421875 16.5 36.375 
Q 16.5 21.390625 20.328125 13.890625 
Q 24.171875 6.390625 31.78125 6.390625 
Q 39.453125 6.390625 43.28125 13.890625 
Q 47.125 21.390625 47.125 36.375 
Q 47.125 51.421875 43.28125 58.90625 
Q 39.453125 66.40625 31.78125 66.40625 
z
M 31.78125 74.21875 
Q 44.046875 74.21875 50.515625 64.515625 
Q 56.984375 54.828125 56.984375 36.375 
Q 56.984375 17.96875 50.515625 8.265625 
Q 44.046875 -1.421875 31.78125 -1.421875 
Q 19.53125 -1.421875 13.0625 8.265625 
Q 6.59375 17.96875 6.59375 36.375 
Q 6.59375 54.828125 13.0625 64.515625 
Q 19.53125 74.21875 31.78125 74.21875 
z
" id="DejaVuSans-48"/>
      </defs>
      <g transform="translate(78.92358 393.197656)scale(0.15 -0.15)">
       <use xlink:href="#DejaVuSans-48"/>
      </g>
     </g>
    </g>
    <g id="xtick_2">
     <g id="line2d_2">
      <g>
       <use style="stroke:#000000;stroke-width:0.8;" x="175.513636" xlink:href="#m28ff715855" y="374.8"/>
      </g>
     </g>
     <g id="text_2">
      <!-- 10 -->
      <defs>
       <path d="M 12.40625 8.296875 
L 28.515625 8.296875 
L 28.515625 63.921875 
L 10.984375 60.40625 
L 10.984375 69.390625 
L 28.421875 72.90625 
L 38.28125 72.90625 
L 38.28125 8.296875 
L 54.390625 8.296875 
L 54.390625 0 
L 12.40625 0 
z
" id="DejaVuSans-49"/>
      </defs>
      <g transform="translate(165.969886 393.197656)scale(0.15 -0.15)">
       <use xlink:href="#DejaVuSans-49"/>
       <use x="63.623047" xlink:href="#DejaVuSans-48"/>
      </g>
     </g>
    </g>
    <g id="xtick_3">
     <g id="line2d_3">
      <g>
       <use style="stroke:#000000;stroke-width:0.8;" x="267.331818" xlink:href="#m28ff715855" y="374.8"/>
      </g>
     </g>
     <g id="text_3">
      <!-- 20 -->
      <defs>
       <path d="M 19.1875 8.296875 
L 53.609375 8.296875 
L 53.609375 0 
L 7.328125 0 
L 7.328125 8.296875 
Q 12.9375 14.109375 22.625 23.890625 
Q 32.328125 33.6875 34.8125 36.53125 
Q 39.546875 41.84375 41.421875 45.53125 
Q 43.3125 49.21875 43.3125 52.78125 
Q 43.3125 58.59375 39.234375 62.25 
Q 35.15625 65.921875 28.609375 65.921875 
Q 23.96875 65.921875 18.8125 64.3125 
Q 13.671875 62.703125 7.8125 59.421875 
L 7.8125 69.390625 
Q 13.765625 71.78125 18.9375 73 
Q 24.125 74.21875 28.421875 74.21875 
Q 39.75 74.21875 46.484375 68.546875 
Q 53.21875 62.890625 53.21875 53.421875 
Q 53.21875 48.921875 51.53125 44.890625 
Q 49.859375 40.875 45.40625 35.40625 
Q 44.1875 33.984375 37.640625 27.21875 
Q 31.109375 20.453125 19.1875 8.296875 
z
" id="DejaVuSans-50"/>
      </defs>
      <g transform="translate(257.788068 393.197656)scale(0.15 -0.15)">
       <use xlink:href="#DejaVuSans-50"/>
       <use x="63.623047" xlink:href="#DejaVuSans-48"/>
      </g>
     </g>
    </g>
    <g id="xtick_4">
     <g id="line2d_4">
      <g>
       <use style="stroke:#000000;stroke-width:0.8;" x="359.15" xlink:href="#m28ff715855" y="374.8"/>
      </g>
     </g>
     <g id="text_4">
      <!-- 30 -->
      <defs>
       <path d="M 40.578125 39.3125 
Q 47.65625 37.796875 51.625 33 
Q 55.609375 28.21875 55.609375 21.1875 
Q 55.609375 10.40625 48.1875 4.484375 
Q 40.765625 -1.421875 27.09375 -1.421875 
Q 22.515625 -1.421875 17.65625 -0.515625 
Q 12.796875 0.390625 7.625 2.203125 
L 7.625 11.71875 
Q 11.71875 9.328125 16.59375 8.109375 
Q 21.484375 6.890625 26.8125 6.890625 
Q 36.078125 6.890625 40.9375 10.546875 
Q 45.796875 14.203125 45.796875 21.1875 
Q 45.796875 27.640625 41.28125 31.265625 
Q 36.765625 34.90625 28.71875 34.90625 
L 20.21875 34.90625 
L 20.21875 43.015625 
L 29.109375 43.015625 
Q 36.375 43.015625 40.234375 45.921875 
Q 44.09375 48.828125 44.09375 54.296875 
Q 44.09375 59.90625 40.109375 62.90625 
Q 36.140625 65.921875 28.71875 65.921875 
Q 24.65625 65.921875 20.015625 65.03125 
Q 15.375 64.15625 9.8125 62.3125 
L 9.8125 71.09375 
Q 15.4375 72.65625 20.34375 73.4375 
Q 25.25 74.21875 29.59375 74.21875 
Q 40.828125 74.21875 47.359375 69.109375 
Q 53.90625 64.015625 53.90625 55.328125 
Q 53.90625 49.265625 50.4375 45.09375 
Q 46.96875 40.921875 40.578125 39.3125 
z
" id="DejaVuSans-51"/>
      </defs>
      <g transform="translate(349.60625 393.197656)scale(0.15 -0.15)">
       <use xlink:href="#DejaVuSans-51"/>
       <use x="63.623047" xlink:href="#DejaVuSans-48"/>
      </g>
     </g>
    </g>
    <g id="xtick_5">
     <g id="line2d_5">
      <g>
       <use style="stroke:#000000;stroke-width:0.8;" x="450.968182" xlink:href="#m28ff715855" y="374.8"/>
      </g>
     </g>
     <g id="text_5">
      <!-- 40 -->
      <defs>
       <path d="M 37.796875 64.3125 
L 12.890625 25.390625 
L 37.796875 25.390625 
z
M 35.203125 72.90625 
L 47.609375 72.90625 
L 47.609375 25.390625 
L 58.015625 25.390625 
L 58.015625 17.1875 
L 47.609375 17.1875 
L 47.609375 0 
L 37.796875 0 
L 37.796875 17.1875 
L 4.890625 17.1875 
L 4.890625 26.703125 
z
" id="DejaVuSans-52"/>
      </defs>
      <g transform="translate(441.424432 393.197656)scale(0.15 -0.15)">
       <use xlink:href="#DejaVuSans-52"/>
       <use x="63.623047" xlink:href="#DejaVuSans-48"/>
      </g>
     </g>
    </g>
    <g id="xtick_6">
     <g id="line2d_6">
      <g>
       <use style="stroke:#000000;stroke-width:0.8;" x="542.786364" xlink:href="#m28ff715855" y="374.8"/>
      </g>
     </g>
     <g id="text_6">
      <!-- 50 -->
      <defs>
       <path d="M 10.796875 72.90625 
L 49.515625 72.90625 
L 49.515625 64.59375 
L 19.828125 64.59375 
L 19.828125 46.734375 
Q 21.96875 47.46875 24.109375 47.828125 
Q 26.265625 48.1875 28.421875 48.1875 
Q 40.625 48.1875 47.75 41.5 
Q 54.890625 34.8125 54.890625 23.390625 
Q 54.890625 11.625 47.5625 5.09375 
Q 40.234375 -1.421875 26.90625 -1.421875 
Q 22.3125 -1.421875 17.546875 -0.640625 
Q 12.796875 0.140625 7.71875 1.703125 
L 7.71875 11.625 
Q 12.109375 9.234375 16.796875 8.0625 
Q 21.484375 6.890625 26.703125 6.890625 
Q 35.15625 6.890625 40.078125 11.328125 
Q 45.015625 15.765625 45.015625 23.390625 
Q 45.015625 31 40.078125 35.4375 
Q 35.15625 39.890625 26.703125 39.890625 
Q 22.75 39.890625 18.8125 39.015625 
Q 14.890625 38.140625 10.796875 36.28125 
z
" id="DejaVuSans-53"/>
      </defs>
      <g transform="translate(533.242614 393.197656)scale(0.15 -0.15)">
       <use xlink:href="#DejaVuSans-53"/>
       <use x="63.623047" xlink:href="#DejaVuSans-48"/>
      </g>
     </g>
    </g>
    <g id="text_7">
     <!-- Global Communication Rounds -->
     <defs>
      <path d="M 59.515625 10.40625 
L 59.515625 29.984375 
L 43.40625 29.984375 
L 43.40625 38.09375 
L 69.28125 38.09375 
L 69.28125 6.78125 
Q 63.578125 2.734375 56.6875 0.65625 
Q 49.8125 -1.421875 42 -1.421875 
Q 24.90625 -1.421875 15.25 8.5625 
Q 5.609375 18.5625 5.609375 36.375 
Q 5.609375 54.25 15.25 64.234375 
Q 24.90625 74.21875 42 74.21875 
Q 49.125 74.21875 55.546875 72.453125 
Q 61.96875 70.703125 67.390625 67.28125 
L 67.390625 56.78125 
Q 61.921875 61.421875 55.765625 63.765625 
Q 49.609375 66.109375 42.828125 66.109375 
Q 29.4375 66.109375 22.71875 58.640625 
Q 16.015625 51.171875 16.015625 36.375 
Q 16.015625 21.625 22.71875 14.15625 
Q 29.4375 6.6875 42.828125 6.6875 
Q 48.046875 6.6875 52.140625 7.59375 
Q 56.25 8.5 59.515625 10.40625 
z
" id="DejaVuSans-71"/>
      <path d="M 9.421875 75.984375 
L 18.40625 75.984375 
L 18.40625 0 
L 9.421875 0 
z
" id="DejaVuSans-108"/>
      <path d="M 30.609375 48.390625 
Q 23.390625 48.390625 19.1875 42.75 
Q 14.984375 37.109375 14.984375 27.296875 
Q 14.984375 17.484375 19.15625 11.84375 
Q 23.34375 6.203125 30.609375 6.203125 
Q 37.796875 6.203125 41.984375 11.859375 
Q 46.1875 17.53125 46.1875 27.296875 
Q 46.1875 37.015625 41.984375 42.703125 
Q 37.796875 48.390625 30.609375 48.390625 
z
M 30.609375 56 
Q 42.328125 56 49.015625 48.375 
Q 55.71875 40.765625 55.71875 27.296875 
Q 55.71875 13.875 49.015625 6.21875 
Q 42.328125 -1.421875 30.609375 -1.421875 
Q 18.84375 -1.421875 12.171875 6.21875 
Q 5.515625 13.875 5.515625 27.296875 
Q 5.515625 40.765625 12.171875 48.375 
Q 18.84375 56 30.609375 56 
z
" id="DejaVuSans-111"/>
      <path d="M 48.6875 27.296875 
Q 48.6875 37.203125 44.609375 42.84375 
Q 40.53125 48.484375 33.40625 48.484375 
Q 26.265625 48.484375 22.1875 42.84375 
Q 18.109375 37.203125 18.109375 27.296875 
Q 18.109375 17.390625 22.1875 11.75 
Q 26.265625 6.109375 33.40625 6.109375 
Q 40.53125 6.109375 44.609375 11.75 
Q 48.6875 17.390625 48.6875 27.296875 
z
M 18.109375 46.390625 
Q 20.953125 51.265625 25.265625 53.625 
Q 29.59375 56 35.59375 56 
Q 45.5625 56 51.78125 48.09375 
Q 58.015625 40.1875 58.015625 27.296875 
Q 58.015625 14.40625 51.78125 6.484375 
Q 45.5625 -1.421875 35.59375 -1.421875 
Q 29.59375 -1.421875 25.265625 0.953125 
Q 20.953125 3.328125 18.109375 8.203125 
L 18.109375 0 
L 9.078125 0 
L 9.078125 75.984375 
L 18.109375 75.984375 
z
" id="DejaVuSans-98"/>
      <path d="M 34.28125 27.484375 
Q 23.390625 27.484375 19.1875 25 
Q 14.984375 22.515625 14.984375 16.5 
Q 14.984375 11.71875 18.140625 8.90625 
Q 21.296875 6.109375 26.703125 6.109375 
Q 34.1875 6.109375 38.703125 11.40625 
Q 43.21875 16.703125 43.21875 25.484375 
L 43.21875 27.484375 
z
M 52.203125 31.203125 
L 52.203125 0 
L 43.21875 0 
L 43.21875 8.296875 
Q 40.140625 3.328125 35.546875 0.953125 
Q 30.953125 -1.421875 24.3125 -1.421875 
Q 15.921875 -1.421875 10.953125 3.296875 
Q 6 8.015625 6 15.921875 
Q 6 25.140625 12.171875 29.828125 
Q 18.359375 34.515625 30.609375 34.515625 
L 43.21875 34.515625 
L 43.21875 35.40625 
Q 43.21875 41.609375 39.140625 45 
Q 35.0625 48.390625 27.6875 48.390625 
Q 23 48.390625 18.546875 47.265625 
Q 14.109375 46.140625 10.015625 43.890625 
L 10.015625 52.203125 
Q 14.9375 54.109375 19.578125 55.046875 
Q 24.21875 56 28.609375 56 
Q 40.484375 56 46.34375 49.84375 
Q 52.203125 43.703125 52.203125 31.203125 
z
" id="DejaVuSans-97"/>
      <path id="DejaVuSans-32"/>
      <path d="M 64.40625 67.28125 
L 64.40625 56.890625 
Q 59.421875 61.53125 53.78125 63.8125 
Q 48.140625 66.109375 41.796875 66.109375 
Q 29.296875 66.109375 22.65625 58.46875 
Q 16.015625 50.828125 16.015625 36.375 
Q 16.015625 21.96875 22.65625 14.328125 
Q 29.296875 6.6875 41.796875 6.6875 
Q 48.140625 6.6875 53.78125 8.984375 
Q 59.421875 11.28125 64.40625 15.921875 
L 64.40625 5.609375 
Q 59.234375 2.09375 53.4375 0.328125 
Q 47.65625 -1.421875 41.21875 -1.421875 
Q 24.65625 -1.421875 15.125 8.703125 
Q 5.609375 18.84375 5.609375 36.375 
Q 5.609375 53.953125 15.125 64.078125 
Q 24.65625 74.21875 41.21875 74.21875 
Q 47.75 74.21875 53.53125 72.484375 
Q 59.328125 70.75 64.40625 67.28125 
z
" id="DejaVuSans-67"/>
      <path d="M 52 44.1875 
Q 55.375 50.25 60.0625 53.125 
Q 64.75 56 71.09375 56 
Q 79.640625 56 84.28125 50.015625 
Q 88.921875 44.046875 88.921875 33.015625 
L 88.921875 0 
L 79.890625 0 
L 79.890625 32.71875 
Q 79.890625 40.578125 77.09375 44.375 
Q 74.3125 48.1875 68.609375 48.1875 
Q 61.625 48.1875 57.5625 43.546875 
Q 53.515625 38.921875 53.515625 30.90625 
L 53.515625 0 
L 44.484375 0 
L 44.484375 32.71875 
Q 44.484375 40.625 41.703125 44.40625 
Q 38.921875 48.1875 33.109375 48.1875 
Q 26.21875 48.1875 22.15625 43.53125 
Q 18.109375 38.875 18.109375 30.90625 
L 18.109375 0 
L 9.078125 0 
L 9.078125 54.6875 
L 18.109375 54.6875 
L 18.109375 46.1875 
Q 21.1875 51.21875 25.484375 53.609375 
Q 29.78125 56 35.6875 56 
Q 41.65625 56 45.828125 52.96875 
Q 50 49.953125 52 44.1875 
z
" id="DejaVuSans-109"/>
      <path d="M 8.5 21.578125 
L 8.5 54.6875 
L 17.484375 54.6875 
L 17.484375 21.921875 
Q 17.484375 14.15625 20.5 10.265625 
Q 23.53125 6.390625 29.59375 6.390625 
Q 36.859375 6.390625 41.078125 11.03125 
Q 45.3125 15.671875 45.3125 23.6875 
L 45.3125 54.6875 
L 54.296875 54.6875 
L 54.296875 0 
L 45.3125 0 
L 45.3125 8.40625 
Q 42.046875 3.421875 37.71875 1 
Q 33.40625 -1.421875 27.6875 -1.421875 
Q 18.265625 -1.421875 13.375 4.4375 
Q 8.5 10.296875 8.5 21.578125 
z
M 31.109375 56 
z
" id="DejaVuSans-117"/>
      <path d="M 54.890625 33.015625 
L 54.890625 0 
L 45.90625 0 
L 45.90625 32.71875 
Q 45.90625 40.484375 42.875 44.328125 
Q 39.84375 48.1875 33.796875 48.1875 
Q 26.515625 48.1875 22.3125 43.546875 
Q 18.109375 38.921875 18.109375 30.90625 
L 18.109375 0 
L 9.078125 0 
L 9.078125 54.6875 
L 18.109375 54.6875 
L 18.109375 46.1875 
Q 21.34375 51.125 25.703125 53.5625 
Q 30.078125 56 35.796875 56 
Q 45.21875 56 50.046875 50.171875 
Q 54.890625 44.34375 54.890625 33.015625 
z
" id="DejaVuSans-110"/>
      <path d="M 9.421875 54.6875 
L 18.40625 54.6875 
L 18.40625 0 
L 9.421875 0 
z
M 9.421875 75.984375 
L 18.40625 75.984375 
L 18.40625 64.59375 
L 9.421875 64.59375 
z
" id="DejaVuSans-105"/>
      <path d="M 48.78125 52.59375 
L 48.78125 44.1875 
Q 44.96875 46.296875 41.140625 47.34375 
Q 37.3125 48.390625 33.40625 48.390625 
Q 24.65625 48.390625 19.8125 42.84375 
Q 14.984375 37.3125 14.984375 27.296875 
Q 14.984375 17.28125 19.8125 11.734375 
Q 24.65625 6.203125 33.40625 6.203125 
Q 37.3125 6.203125 41.140625 7.25 
Q 44.96875 8.296875 48.78125 10.40625 
L 48.78125 2.09375 
Q 45.015625 0.34375 40.984375 -0.53125 
Q 36.96875 -1.421875 32.421875 -1.421875 
Q 20.0625 -1.421875 12.78125 6.34375 
Q 5.515625 14.109375 5.515625 27.296875 
Q 5.515625 40.671875 12.859375 48.328125 
Q 20.21875 56 33.015625 56 
Q 37.15625 56 41.109375 55.140625 
Q 45.0625 54.296875 48.78125 52.59375 
z
" id="DejaVuSans-99"/>
      <path d="M 18.3125 70.21875 
L 18.3125 54.6875 
L 36.8125 54.6875 
L 36.8125 47.703125 
L 18.3125 47.703125 
L 18.3125 18.015625 
Q 18.3125 11.328125 20.140625 9.421875 
Q 21.96875 7.515625 27.59375 7.515625 
L 36.8125 7.515625 
L 36.8125 0 
L 27.59375 0 
Q 17.1875 0 13.234375 3.875 
Q 9.28125 7.765625 9.28125 18.015625 
L 9.28125 47.703125 
L 2.6875 47.703125 
L 2.6875 54.6875 
L 9.28125 54.6875 
L 9.28125 70.21875 
z
" id="DejaVuSans-116"/>
      <path d="M 44.390625 34.1875 
Q 47.5625 33.109375 50.5625 29.59375 
Q 53.5625 26.078125 56.59375 19.921875 
L 66.609375 0 
L 56 0 
L 46.6875 18.703125 
Q 43.0625 26.03125 39.671875 28.421875 
Q 36.28125 30.8125 30.421875 30.8125 
L 19.671875 30.8125 
L 19.671875 0 
L 9.8125 0 
L 9.8125 72.90625 
L 32.078125 72.90625 
Q 44.578125 72.90625 50.734375 67.671875 
Q 56.890625 62.453125 56.890625 51.90625 
Q 56.890625 45.015625 53.6875 40.46875 
Q 50.484375 35.9375 44.390625 34.1875 
z
M 19.671875 64.796875 
L 19.671875 38.921875 
L 32.078125 38.921875 
Q 39.203125 38.921875 42.84375 42.21875 
Q 46.484375 45.515625 46.484375 51.90625 
Q 46.484375 58.296875 42.84375 61.546875 
Q 39.203125 64.796875 32.078125 64.796875 
z
" id="DejaVuSans-82"/>
      <path d="M 45.40625 46.390625 
L 45.40625 75.984375 
L 54.390625 75.984375 
L 54.390625 0 
L 45.40625 0 
L 45.40625 8.203125 
Q 42.578125 3.328125 38.25 0.953125 
Q 33.9375 -1.421875 27.875 -1.421875 
Q 17.96875 -1.421875 11.734375 6.484375 
Q 5.515625 14.40625 5.515625 27.296875 
Q 5.515625 40.1875 11.734375 48.09375 
Q 17.96875 56 27.875 56 
Q 33.9375 56 38.25 53.625 
Q 42.578125 51.265625 45.40625 46.390625 
z
M 14.796875 27.296875 
Q 14.796875 17.390625 18.875 11.75 
Q 22.953125 6.109375 30.078125 6.109375 
Q 37.203125 6.109375 41.296875 11.75 
Q 45.40625 17.390625 45.40625 27.296875 
Q 45.40625 37.203125 41.296875 42.84375 
Q 37.203125 48.484375 30.078125 48.484375 
Q 22.953125 48.484375 18.875 42.84375 
Q 14.796875 37.203125 14.796875 27.296875 
z
" id="DejaVuSans-100"/>
      <path d="M 44.28125 53.078125 
L 44.28125 44.578125 
Q 40.484375 46.53125 36.375 47.5 
Q 32.28125 48.484375 27.875 48.484375 
Q 21.1875 48.484375 17.84375 46.4375 
Q 14.5 44.390625 14.5 40.28125 
Q 14.5 37.15625 16.890625 35.375 
Q 19.28125 33.59375 26.515625 31.984375 
L 29.59375 31.296875 
Q 39.15625 29.25 43.1875 25.515625 
Q 47.21875 21.78125 47.21875 15.09375 
Q 47.21875 7.46875 41.1875 3.015625 
Q 35.15625 -1.421875 24.609375 -1.421875 
Q 20.21875 -1.421875 15.453125 -0.5625 
Q 10.6875 0.296875 5.421875 2 
L 5.421875 11.28125 
Q 10.40625 8.6875 15.234375 7.390625 
Q 20.0625 6.109375 24.8125 6.109375 
Q 31.15625 6.109375 34.5625 8.28125 
Q 37.984375 10.453125 37.984375 14.40625 
Q 37.984375 18.0625 35.515625 20.015625 
Q 33.0625 21.96875 24.703125 23.78125 
L 21.578125 24.515625 
Q 13.234375 26.265625 9.515625 29.90625 
Q 5.8125 33.546875 5.8125 39.890625 
Q 5.8125 47.609375 11.28125 51.796875 
Q 16.75 56 26.8125 56 
Q 31.78125 56 36.171875 55.265625 
Q 40.578125 54.546875 44.28125 53.078125 
z
" id="DejaVuSans-115"/>
     </defs>
     <g transform="translate(193.207422 411.714844)scale(0.15 -0.15)">
      <use xlink:href="#DejaVuSans-71"/>
      <use x="77.490234" xlink:href="#DejaVuSans-108"/>
      <use x="105.273438" xlink:href="#DejaVuSans-111"/>
      <use x="166.455078" xlink:href="#DejaVuSans-98"/>
      <use x="229.931641" xlink:href="#DejaVuSans-97"/>
      <use x="291.210938" xlink:href="#DejaVuSans-108"/>
      <use x="318.994141" xlink:href="#DejaVuSans-32"/>
      <use x="350.78125" xlink:href="#DejaVuSans-67"/>
      <use x="420.605469" xlink:href="#DejaVuSans-111"/>
      <use x="481.787109" xlink:href="#DejaVuSans-109"/>
      <use x="579.199219" xlink:href="#DejaVuSans-109"/>
      <use x="676.611328" xlink:href="#DejaVuSans-117"/>
      <use x="739.990234" xlink:href="#DejaVuSans-110"/>
      <use x="803.369141" xlink:href="#DejaVuSans-105"/>
      <use x="831.152344" xlink:href="#DejaVuSans-99"/>
      <use x="886.132812" xlink:href="#DejaVuSans-97"/>
      <use x="947.412109" xlink:href="#DejaVuSans-116"/>
      <use x="986.621094" xlink:href="#DejaVuSans-105"/>
      <use x="1014.404297" xlink:href="#DejaVuSans-111"/>
      <use x="1075.585938" xlink:href="#DejaVuSans-110"/>
      <use x="1138.964844" xlink:href="#DejaVuSans-32"/>
      <use x="1170.751953" xlink:href="#DejaVuSans-82"/>
      <use x="1235.734375" xlink:href="#DejaVuSans-111"/>
      <use x="1296.916016" xlink:href="#DejaVuSans-117"/>
      <use x="1360.294922" xlink:href="#DejaVuSans-110"/>
      <use x="1423.673828" xlink:href="#DejaVuSans-100"/>
      <use x="1487.150391" xlink:href="#DejaVuSans-115"/>
     </g>
    </g>
   </g>
   <g id="matplotlib.axis_2">
    <g id="ytick_1">
     <g id="line2d_7">
      <defs>
       <path d="M 0 0 
L -3.5 0 
" id="m1cb2abfc39" style="stroke:#000000;stroke-width:0.8;"/>
      </defs>
      <g>
       <use style="stroke:#000000;stroke-width:0.8;" x="61.2" xlink:href="#m1cb2abfc39" y="348.476346"/>
      </g>
     </g>
     <g id="text_8">
      <!-- 20 -->
      <g transform="translate(35.1125 354.175174)scale(0.15 -0.15)">
       <use xlink:href="#DejaVuSans-50"/>
       <use x="63.623047" xlink:href="#DejaVuSans-48"/>
      </g>
     </g>
    </g>
    <g id="ytick_2">
     <g id="line2d_8">
      <g>
       <use style="stroke:#000000;stroke-width:0.8;" x="61.2" xlink:href="#m1cb2abfc39" y="305.148484"/>
      </g>
     </g>
     <g id="text_9">
      <!-- 25 -->
      <g transform="translate(35.1125 310.847312)scale(0.15 -0.15)">
       <use xlink:href="#DejaVuSans-50"/>
       <use x="63.623047" xlink:href="#DejaVuSans-53"/>
      </g>
     </g>
    </g>
    <g id="ytick_3">
     <g id="line2d_9">
      <g>
       <use style="stroke:#000000;stroke-width:0.8;" x="61.2" xlink:href="#m1cb2abfc39" y="261.820621"/>
      </g>
     </g>
     <g id="text_10">
      <!-- 30 -->
      <g transform="translate(35.1125 267.519449)scale(0.15 -0.15)">
       <use xlink:href="#DejaVuSans-51"/>
       <use x="63.623047" xlink:href="#DejaVuSans-48"/>
      </g>
     </g>
    </g>
    <g id="ytick_4">
     <g id="line2d_10">
      <g>
       <use style="stroke:#000000;stroke-width:0.8;" x="61.2" xlink:href="#m1cb2abfc39" y="218.492758"/>
      </g>
     </g>
     <g id="text_11">
      <!-- 35 -->
      <g transform="translate(35.1125 224.191587)scale(0.15 -0.15)">
       <use xlink:href="#DejaVuSans-51"/>
       <use x="63.623047" xlink:href="#DejaVuSans-53"/>
      </g>
     </g>
    </g>
    <g id="ytick_5">
     <g id="line2d_11">
      <g>
       <use style="stroke:#000000;stroke-width:0.8;" x="61.2" xlink:href="#m1cb2abfc39" y="175.164896"/>
      </g>
     </g>
     <g id="text_12">
      <!-- 40 -->
      <g transform="translate(35.1125 180.863724)scale(0.15 -0.15)">
       <use xlink:href="#DejaVuSans-52"/>
       <use x="63.623047" xlink:href="#DejaVuSans-48"/>
      </g>
     </g>
    </g>
    <g id="ytick_6">
     <g id="line2d_12">
      <g>
       <use style="stroke:#000000;stroke-width:0.8;" x="61.2" xlink:href="#m1cb2abfc39" y="131.837033"/>
      </g>
     </g>
     <g id="text_13">
      <!-- 45 -->
      <g transform="translate(35.1125 137.535861)scale(0.15 -0.15)">
       <use xlink:href="#DejaVuSans-52"/>
       <use x="63.623047" xlink:href="#DejaVuSans-53"/>
      </g>
     </g>
    </g>
    <g id="ytick_7">
     <g id="line2d_13">
      <g>
       <use style="stroke:#000000;stroke-width:0.8;" x="61.2" xlink:href="#m1cb2abfc39" y="88.509171"/>
      </g>
     </g>
     <g id="text_14">
      <!-- 50 -->
      <g transform="translate(35.1125 94.207999)scale(0.15 -0.15)">
       <use xlink:href="#DejaVuSans-53"/>
       <use x="63.623047" xlink:href="#DejaVuSans-48"/>
      </g>
     </g>
    </g>
    <g id="text_15">
     <!-- Test Accuracy -->
     <defs>
      <path d="M -0.296875 72.90625 
L 61.375 72.90625 
L 61.375 64.59375 
L 35.5 64.59375 
L 35.5 0 
L 25.59375 0 
L 25.59375 64.59375 
L -0.296875 64.59375 
z
" id="DejaVuSans-84"/>
      <path d="M 56.203125 29.59375 
L 56.203125 25.203125 
L 14.890625 25.203125 
Q 15.484375 15.921875 20.484375 11.0625 
Q 25.484375 6.203125 34.421875 6.203125 
Q 39.59375 6.203125 44.453125 7.46875 
Q 49.3125 8.734375 54.109375 11.28125 
L 54.109375 2.78125 
Q 49.265625 0.734375 44.1875 -0.34375 
Q 39.109375 -1.421875 33.890625 -1.421875 
Q 20.796875 -1.421875 13.15625 6.1875 
Q 5.515625 13.8125 5.515625 26.8125 
Q 5.515625 40.234375 12.765625 48.109375 
Q 20.015625 56 32.328125 56 
Q 43.359375 56 49.78125 48.890625 
Q 56.203125 41.796875 56.203125 29.59375 
z
M 47.21875 32.234375 
Q 47.125 39.59375 43.09375 43.984375 
Q 39.0625 48.390625 32.421875 48.390625 
Q 24.90625 48.390625 20.390625 44.140625 
Q 15.875 39.890625 15.1875 32.171875 
z
" id="DejaVuSans-101"/>
      <path d="M 34.1875 63.1875 
L 20.796875 26.90625 
L 47.609375 26.90625 
z
M 28.609375 72.90625 
L 39.796875 72.90625 
L 67.578125 0 
L 57.328125 0 
L 50.6875 18.703125 
L 17.828125 18.703125 
L 11.1875 0 
L 0.78125 0 
z
" id="DejaVuSans-65"/>
      <path d="M 41.109375 46.296875 
Q 39.59375 47.171875 37.8125 47.578125 
Q 36.03125 48 33.890625 48 
Q 26.265625 48 22.1875 43.046875 
Q 18.109375 38.09375 18.109375 28.8125 
L 18.109375 0 
L 9.078125 0 
L 9.078125 54.6875 
L 18.109375 54.6875 
L 18.109375 46.1875 
Q 20.953125 51.171875 25.484375 53.578125 
Q 30.03125 56 36.53125 56 
Q 37.453125 56 38.578125 55.875 
Q 39.703125 55.765625 41.0625 55.515625 
z
" id="DejaVuSans-114"/>
      <path d="M 32.171875 -5.078125 
Q 28.375 -14.84375 24.75 -17.8125 
Q 21.140625 -20.796875 15.09375 -20.796875 
L 7.90625 -20.796875 
L 7.90625 -13.28125 
L 13.1875 -13.28125 
Q 16.890625 -13.28125 18.9375 -11.515625 
Q 21 -9.765625 23.484375 -3.21875 
L 25.09375 0.875 
L 2.984375 54.6875 
L 12.5 54.6875 
L 29.59375 11.921875 
L 46.6875 54.6875 
L 56.203125 54.6875 
z
" id="DejaVuSans-121"/>
     </defs>
     <g transform="translate(27.992969 267.017859)rotate(-90)scale(0.15 -0.15)">
      <use xlink:href="#DejaVuSans-84"/>
      <use x="44.083984" xlink:href="#DejaVuSans-101"/>
      <use x="105.607422" xlink:href="#DejaVuSans-115"/>
      <use x="157.707031" xlink:href="#DejaVuSans-116"/>
      <use x="196.916016" xlink:href="#DejaVuSans-32"/>
      <use x="228.703125" xlink:href="#DejaVuSans-65"/>
      <use x="295.361328" xlink:href="#DejaVuSans-99"/>
      <use x="350.341797" xlink:href="#DejaVuSans-99"/>
      <use x="405.322266" xlink:href="#DejaVuSans-117"/>
      <use x="468.701172" xlink:href="#DejaVuSans-114"/>
      <use x="509.814453" xlink:href="#DejaVuSans-97"/>
      <use x="571.09375" xlink:href="#DejaVuSans-99"/>
      <use x="626.074219" xlink:href="#DejaVuSans-121"/>
     </g>
    </g>
   </g>
   <g id="line2d_14">
    <path clip-path="url(#pfdd7a7b33e)" d="M 83.695455 332.430168 
L 92.877273 243.004193 
L 102.059091 178.148693 
L 111.240909 152.887331 
L 120.422727 139.103077 
L 129.604545 130.845924 
L 138.786364 125.787789 
L 147.968182 120.608226 
L 157.15 117.765119 
L 166.331818 113.402059 
L 175.513636 111.630875 
L 184.695455 109.851316 
L 193.877273 107.979639 
L 203.059091 103.671013 
L 212.240909 104.889487 
L 221.422727 101.979385 
L 230.604545 100.94096 
L 239.786364 99.090219 
L 248.968182 99.701549 
L 258.15 100.350565 
L 267.331818 97.695882 
L 276.513636 95.979131 
L 285.695455 96.376915 
L 294.877273 94.978391 
L 304.059091 93.923217 
L 313.240909 94.668538 
L 322.422727 92.168781 
L 331.604545 92.742427 
L 340.786364 90.104493 
L 349.968182 90.640454 
L 359.15 91.846367 
L 368.331818 90.251045 
L 377.513636 90.07937 
L 386.695455 88.685033 
L 395.877273 89.028383 
L 405.059091 89.237743 
L 414.240909 91.570012 
L 423.422727 89.844887 
L 432.604545 89.124689 
L 441.786364 89.128876 
L 450.968182 91.331342 
L 460.15 88.718531 
L 469.331818 89.8407 
L 478.513636 87.357691 
L 487.695455 87.638234 
L 496.877273 87.278135 
L 506.059091 86.737986 
L 515.240909 85.578133 
L 524.422727 86.465818 
L 533.604545 85.444142 
" style="fill:none;stroke:#1f77b4;stroke-linecap:square;stroke-width:1.5;"/>
   </g>
   <g id="line2d_15">
    <path clip-path="url(#pfdd7a7b33e)" d="M 83.695455 359.500399 
L 92.877273 327.568832 
L 102.059091 251.18179 
L 111.240909 222.202197 
L 120.422727 204.004637 
L 129.604545 194.642063 
L 138.786364 189.207081 
L 147.968182 180.485149 
L 157.15 170.469373 
L 166.331818 167.848187 
L 175.513636 166.064441 
L 184.695455 164.016902 
L 193.877273 155.035363 
L 203.059091 150.102845 
L 212.240909 147.795699 
L 221.422727 148.838311 
L 230.604545 145.530425 
L 239.786364 140.798892 
L 248.968182 139.806526 
L 258.15 139.655787 
L 267.331818 139.144949 
L 276.513636 136.975981 
L 285.695455 132.378438 
L 294.877273 130.904544 
L 304.059091 130.632377 
L 313.240909 131.846664 
L 322.422727 129.091488 
L 331.604545 129.200355 
L 340.786364 128.44666 
L 349.968182 128.149369 
L 359.15 128.082373 
L 368.331818 126.92252 
L 377.513636 125.465375 
L 386.695455 123.497392 
L 395.877273 123.76956 
L 405.059091 124.389265 
L 414.240909 124.473009 
L 423.422727 123.941235 
L 432.604545 121.211182 
L 441.786364 119.783348 
L 450.968182 121.081379 
L 460.15 116.701571 
L 469.331818 118.598371 
L 478.513636 118.560687 
L 487.695455 119.264136 
L 496.877273 119.402313 
L 506.059091 118.51044 
L 515.240909 116.873246 
L 524.422727 115.922752 
L 533.604545 116.023245 
" style="fill:none;stroke:#ff7f0e;stroke-linecap:square;stroke-width:1.5;"/>
   </g>
   <g id="line2d_16">
    <path clip-path="url(#pfdd7a7b33e)" d="M 83.695455 313.110439 
L 92.877273 232.938171 
L 102.059091 186.012249 
L 111.240909 167.26198 
L 120.422727 159.741773 
L 129.604545 141.192488 
L 138.786364 130.774741 
L 147.968182 123.497392 
L 157.15 119.971772 
L 166.331818 113.632355 
L 175.513636 110.286784 
L 184.695455 106.589489 
L 193.877273 102.795888 
L 203.059091 99.450318 
L 212.240909 98.675686 
L 221.422727 97.47396 
L 230.604545 96.146619 
L 239.786364 98.164848 
L 248.968182 93.839473 
L 258.15 92.131097 
L 267.331818 89.803015 
L 276.513636 89.702522 
L 285.695455 87.893653 
L 294.877273 87.801534 
L 304.059091 89.983064 
L 313.240909 86.851041 
L 322.422727 86.386262 
L 331.604545 88.471486 
L 340.786364 86.537001 
L 349.968182 84.987738 
L 359.15 85.61163 
L 368.331818 86.210399 
L 377.513636 83.970249 
L 386.695455 84.066554 
L 395.877273 85.100792 
L 405.059091 85.481827 
L 414.240909 84.200545 
L 423.422727 82.245123 
L 432.604545 82.031576 
L 441.786364 81.089457 
L 450.968182 78.974922 
L 460.15 80.147338 
L 469.331818 80.612116 
L 478.513636 80.067781 
L 487.695455 80.645614 
L 496.877273 78.254724 
L 506.059091 78.049552 
L 515.240909 77.195363 
L 524.422727 80.289702 
L 533.604545 79.753741 
" style="fill:none;stroke:#2ca02c;stroke-linecap:square;stroke-width:1.5;"/>
   </g>
   <g id="line2d_17">
    <path clip-path="url(#pfdd7a7b33e)" d="M 83.695455 302.910427 
L 92.877273 246.081783 
L 102.059091 172.6844 
L 111.240909 166.483161 
L 120.422727 149.085356 
L 129.604545 129.300848 
L 138.786364 126.926707 
L 147.968182 127.734836 
L 157.15 121.809952 
L 166.331818 115.98556 
L 175.513636 114.494918 
L 184.695455 110.948362 
L 193.877273 106.472248 
L 203.059091 102.691208 
L 212.240909 102.670272 
L 221.422727 98.323961 
L 230.604545 96.590462 
L 239.786364 92.734053 
L 248.968182 92.943413 
L 258.15 91.431835 
L 267.331818 91.49883 
L 276.513636 90.510651 
L 285.695455 89.957941 
L 294.877273 86.214587 
L 304.059091 85.653502 
L 313.240909 84.694634 
L 322.422727 83.605963 
L 331.604545 81.901773 
L 340.786364 82.144631 
L 349.968182 80.892659 
L 359.15 81.453743 
L 368.331818 79.963101 
L 377.513636 80.754481 
L 386.695455 78.606449 
L 395.877273 77.316792 
L 405.059091 77.492654 
L 414.240909 77.475906 
L 423.422727 76.228121 
L 432.604545 76.148564 
L 441.786364 76.249057 
L 450.968182 75.905707 
L 460.15 75.574918 
L 469.331818 74.37738 
L 478.513636 73.812108 
L 487.695455 73.636246 
L 496.877273 73.217526 
L 506.059091 72.43452 
L 515.240909 72.19585 
L 524.422727 71.764568 
L 533.604545 71.387721 
" style="fill:none;stroke:#d62728;stroke-linecap:square;stroke-width:1.5;"/>
   </g>
   <g id="patch_3">
    <path d="M 61.2 374.8 
L 61.2 56.448219 
" style="fill:none;stroke:#000000;stroke-linecap:square;stroke-linejoin:miter;stroke-width:0.8;"/>
   </g>
   <g id="patch_4">
    <path d="M 556.1 374.8 
L 556.1 56.448219 
" style="fill:none;stroke:#000000;stroke-linecap:square;stroke-linejoin:miter;stroke-width:0.8;"/>
   </g>
   <g id="patch_5">
    <path d="M 61.2 374.8 
L 556.1 374.8 
" style="fill:none;stroke:#000000;stroke-linecap:square;stroke-linejoin:miter;stroke-width:0.8;"/>
   </g>
   <g id="patch_6">
    <path d="M 61.2 56.448219 
L 556.1 56.448219 
" style="fill:none;stroke:#000000;stroke-linecap:square;stroke-linejoin:miter;stroke-width:0.8;"/>
   </g>
   <g id="legend_1">
    <g id="patch_7">
     <path d="M 59.052344 42.712639 
L 558.247656 42.712639 
Q 561.247656 42.712639 561.247656 39.712639 
L 561.247656 19.195452 
Q 561.247656 16.195452 558.247656 16.195452 
L 59.052344 16.195452 
Q 56.052344 16.195452 56.052344 19.195452 
L 56.052344 39.712639 
Q 56.052344 42.712639 59.052344 42.712639 
z
" style="fill:#ffffff;opacity:0.8;stroke:#cccccc;stroke-linejoin:miter;"/>
    </g>
    <g id="line2d_18">
     <path d="M 62.052344 28.343108 
L 92.052344 28.343108 
" style="fill:none;stroke:#1f77b4;stroke-linecap:square;stroke-width:1.5;"/>
    </g>
    <g id="line2d_19"/>
    <g id="text_16">
     <!-- FedAvg -->
     <defs>
      <path d="M 9.8125 72.90625 
L 51.703125 72.90625 
L 51.703125 64.59375 
L 19.671875 64.59375 
L 19.671875 43.109375 
L 48.578125 43.109375 
L 48.578125 34.8125 
L 19.671875 34.8125 
L 19.671875 0 
L 9.8125 0 
z
" id="DejaVuSans-70"/>
      <path d="M 2.984375 54.6875 
L 12.5 54.6875 
L 29.59375 8.796875 
L 46.6875 54.6875 
L 56.203125 54.6875 
L 35.6875 0 
L 23.484375 0 
z
" id="DejaVuSans-118"/>
      <path d="M 45.40625 27.984375 
Q 45.40625 37.75 41.375 43.109375 
Q 37.359375 48.484375 30.078125 48.484375 
Q 22.859375 48.484375 18.828125 43.109375 
Q 14.796875 37.75 14.796875 27.984375 
Q 14.796875 18.265625 18.828125 12.890625 
Q 22.859375 7.515625 30.078125 7.515625 
Q 37.359375 7.515625 41.375 12.890625 
Q 45.40625 18.265625 45.40625 27.984375 
z
M 54.390625 6.78125 
Q 54.390625 -7.171875 48.1875 -13.984375 
Q 42 -20.796875 29.203125 -20.796875 
Q 24.46875 -20.796875 20.265625 -20.09375 
Q 16.0625 -19.390625 12.109375 -17.921875 
L 12.109375 -9.1875 
Q 16.0625 -11.328125 19.921875 -12.34375 
Q 23.78125 -13.375 27.78125 -13.375 
Q 36.625 -13.375 41.015625 -8.765625 
Q 45.40625 -4.15625 45.40625 5.171875 
L 45.40625 9.625 
Q 42.625 4.78125 38.28125 2.390625 
Q 33.9375 0 27.875 0 
Q 17.828125 0 11.671875 7.65625 
Q 5.515625 15.328125 5.515625 27.984375 
Q 5.515625 40.671875 11.671875 48.328125 
Q 17.828125 56 27.875 56 
Q 33.9375 56 38.28125 53.609375 
Q 42.625 51.21875 45.40625 46.390625 
L 45.40625 54.6875 
L 54.390625 54.6875 
z
" id="DejaVuSans-103"/>
     </defs>
     <g transform="translate(104.052344 33.593108)scale(0.15 -0.15)">
      <use xlink:href="#DejaVuSans-70"/>
      <use x="52.019531" xlink:href="#DejaVuSans-101"/>
      <use x="113.542969" xlink:href="#DejaVuSans-100"/>
      <use x="177.019531" xlink:href="#DejaVuSans-65"/>
      <use x="239.552734" xlink:href="#DejaVuSans-118"/>
      <use x="298.732422" xlink:href="#DejaVuSans-103"/>
     </g>
    </g>
    <g id="line2d_20">
     <path d="M 188.3875 28.343108 
L 218.3875 28.343108 
" style="fill:none;stroke:#ff7f0e;stroke-linecap:square;stroke-width:1.5;"/>
    </g>
    <g id="line2d_21"/>
    <g id="text_17">
     <!-- FedMed -->
     <defs>
      <path d="M 9.8125 72.90625 
L 24.515625 72.90625 
L 43.109375 23.296875 
L 61.8125 72.90625 
L 76.515625 72.90625 
L 76.515625 0 
L 66.890625 0 
L 66.890625 64.015625 
L 48.09375 14.015625 
L 38.1875 14.015625 
L 19.390625 64.015625 
L 19.390625 0 
L 9.8125 0 
z
" id="DejaVuSans-77"/>
     </defs>
     <g transform="translate(230.3875 33.593108)scale(0.15 -0.15)">
      <use xlink:href="#DejaVuSans-70"/>
      <use x="52.019531" xlink:href="#DejaVuSans-101"/>
      <use x="113.542969" xlink:href="#DejaVuSans-100"/>
      <use x="177.019531" xlink:href="#DejaVuSans-77"/>
      <use x="263.298828" xlink:href="#DejaVuSans-101"/>
      <use x="324.822266" xlink:href="#DejaVuSans-100"/>
     </g>
    </g>
    <g id="line2d_22">
     <path d="M 318.636719 28.343108 
L 348.636719 28.343108 
" style="fill:none;stroke:#2ca02c;stroke-linecap:square;stroke-width:1.5;"/>
    </g>
    <g id="line2d_23"/>
    <g id="text_18">
     <!-- FedProx -->
     <defs>
      <path d="M 19.671875 64.796875 
L 19.671875 37.40625 
L 32.078125 37.40625 
Q 38.96875 37.40625 42.71875 40.96875 
Q 46.484375 44.53125 46.484375 51.125 
Q 46.484375 57.671875 42.71875 61.234375 
Q 38.96875 64.796875 32.078125 64.796875 
z
M 9.8125 72.90625 
L 32.078125 72.90625 
Q 44.34375 72.90625 50.609375 67.359375 
Q 56.890625 61.8125 56.890625 51.125 
Q 56.890625 40.328125 50.609375 34.8125 
Q 44.34375 29.296875 32.078125 29.296875 
L 19.671875 29.296875 
L 19.671875 0 
L 9.8125 0 
z
" id="DejaVuSans-80"/>
      <path d="M 54.890625 54.6875 
L 35.109375 28.078125 
L 55.90625 0 
L 45.3125 0 
L 29.390625 21.484375 
L 13.484375 0 
L 2.875 0 
L 24.125 28.609375 
L 4.6875 54.6875 
L 15.28125 54.6875 
L 29.78125 35.203125 
L 44.28125 54.6875 
z
" id="DejaVuSans-120"/>
     </defs>
     <g transform="translate(360.636719 33.593108)scale(0.15 -0.15)">
      <use xlink:href="#DejaVuSans-70"/>
      <use x="52.019531" xlink:href="#DejaVuSans-101"/>
      <use x="113.542969" xlink:href="#DejaVuSans-100"/>
      <use x="177.019531" xlink:href="#DejaVuSans-80"/>
      <use x="235.572266" xlink:href="#DejaVuSans-114"/>
      <use x="274.435547" xlink:href="#DejaVuSans-111"/>
      <use x="332.492188" xlink:href="#DejaVuSans-120"/>
     </g>
    </g>
    <g id="line2d_24">
     <path d="M 449.389844 28.343108 
L 479.389844 28.343108 
" style="fill:none;stroke:#d62728;stroke-linecap:square;stroke-width:1.5;"/>
    </g>
    <g id="line2d_25"/>
    <g id="text_19">
     <!-- qFedAvg -->
     <defs>
      <path d="M 14.796875 27.296875 
Q 14.796875 17.390625 18.875 11.75 
Q 22.953125 6.109375 30.078125 6.109375 
Q 37.203125 6.109375 41.296875 11.75 
Q 45.40625 17.390625 45.40625 27.296875 
Q 45.40625 37.203125 41.296875 42.84375 
Q 37.203125 48.484375 30.078125 48.484375 
Q 22.953125 48.484375 18.875 42.84375 
Q 14.796875 37.203125 14.796875 27.296875 
z
M 45.40625 8.203125 
Q 42.578125 3.328125 38.25 0.953125 
Q 33.9375 -1.421875 27.875 -1.421875 
Q 17.96875 -1.421875 11.734375 6.484375 
Q 5.515625 14.40625 5.515625 27.296875 
Q 5.515625 40.1875 11.734375 48.09375 
Q 17.96875 56 27.875 56 
Q 33.9375 56 38.25 53.625 
Q 42.578125 51.265625 45.40625 46.390625 
L 45.40625 54.6875 
L 54.390625 54.6875 
L 54.390625 -20.796875 
L 45.40625 -20.796875 
z
" id="DejaVuSans-113"/>
     </defs>
     <g transform="translate(491.389844 33.593108)scale(0.15 -0.15)">
      <use xlink:href="#DejaVuSans-113"/>
      <use x="63.476562" xlink:href="#DejaVuSans-70"/>
      <use x="115.496094" xlink:href="#DejaVuSans-101"/>
      <use x="177.019531" xlink:href="#DejaVuSans-100"/>
      <use x="240.496094" xlink:href="#DejaVuSans-65"/>
      <use x="303.029297" xlink:href="#DejaVuSans-118"/>
      <use x="362.208984" xlink:href="#DejaVuSans-103"/>
     </g>
    </g>
   </g>
  </g>
 </g>
 <defs>
  <clipPath id="pfdd7a7b33e">
   <rect height="318.351781" width="494.9" x="61.2" y="56.448219"/>
  </clipPath>
 </defs>
</svg>
