<?xml version="1.0" encoding="utf-8" standalone="no"?>
<!DOCTYPE svg PUBLIC "-//W3C//DTD SVG 1.1//EN"
  "http://www.w3.org/Graphics/SVG/1.1/DTD/svg11.dtd">
<svg height="345.6pt" version="1.1" viewBox="0 0 460.8 345.6" width="460.8pt" xmlns="http://www.w3.org/2000/svg" xmlns:xlink="http://www.w3.org/1999/xlink">
 <metadata>
  <rdf:RDF xmlns:cc="http://creativecommons.org/ns#" xmlns:dc="http://purl.org/dc/elements/1.1/" xmlns:rdf="http://www.w3.org/1999/02/22-rdf-syntax-ns#">
   <cc:Work>
    <dc:type rdf:resource="http://purl.org/dc/dcmitype/StillImage"/>
    <dc:date>2021-05-07T18:59:37.941028</dc:date>
    <dc:format>image/svg+xml</dc:format>
    <dc:creator>
     <cc:Agent>
      <dc:title>Matplotlib v3.4.1, https://matplotlib.org/</dc:title>
     </cc:Agent>
    </dc:creator>
   </cc:Work>
  </rdf:RDF>
 </metadata>
 <defs>
  <style type="text/css">*{stroke-linecap:butt;stroke-linejoin:round;}</style>
 </defs>
 <g id="figure_1">
  <g id="patch_1">
   <path d="M 0 345.6 
L 460.8 345.6 
L 460.8 0 
L 0 0 
z
" style="fill:#ffffff;"/>
  </g>
  <g id="axes_1">
   <g id="patch_2">
    <path d="M 48.470023 201.960889 
L 450 201.960889 
L 450 10.8 
L 48.470023 10.8 
z
" style="fill:#ffffff;"/>
   </g>
   <g id="matplotlib.axis_1">
    <g id="xtick_1">
     <g id="line2d_1">
      <path clip-path="url(#p3d57cfdb9a)" d="M 66.721385 201.960889 
L 66.721385 10.8 
" style="fill:none;stroke:#b0b0b0;stroke-linecap:square;stroke-width:0.8;"/>
     </g>
     <g id="line2d_2">
      <defs>
       <path d="M 0 0 
L 0 3.5 
" id="mb7c9be63c0" style="stroke:#000000;stroke-width:0.8;"/>
      </defs>
      <g>
       <use style="stroke:#000000;stroke-width:0.8;" x="66.721385" xlink:href="#mb7c9be63c0" y="201.960889"/>
      </g>
     </g>
     <g id="text_1">
      <!-- FedAvg LSTM -->
      <g transform="translate(18.540897 261.043723)rotate(-45)scale(0.1 -0.1)">
       <defs>
        <path d="M 628 4666 
L 3309 4666 
L 3309 4134 
L 1259 4134 
L 1259 2759 
L 3109 2759 
L 3109 2228 
L 1259 2228 
L 1259 0 
L 628 0 
L 628 4666 
z
" id="DejaVuSans-46" transform="scale(0.015625)"/>
        <path d="M 3597 1894 
L 3597 1613 
L 953 1613 
Q 991 1019 1311 708 
Q 1631 397 2203 397 
Q 2534 397 2845 478 
Q 3156 559 3463 722 
L 3463 178 
Q 3153 47 2828 -22 
Q 2503 -91 2169 -91 
Q 1331 -91 842 396 
Q 353 884 353 1716 
Q 353 2575 817 3079 
Q 1281 3584 2069 3584 
Q 2775 3584 3186 3129 
Q 3597 2675 3597 1894 
z
M 3022 2063 
Q 3016 2534 2758 2815 
Q 2500 3097 2075 3097 
Q 1594 3097 1305 2825 
Q 1016 2553 972 2059 
L 3022 2063 
z
" id="DejaVuSans-65" transform="scale(0.015625)"/>
        <path d="M 2906 2969 
L 2906 4863 
L 3481 4863 
L 3481 0 
L 2906 0 
L 2906 525 
Q 2725 213 2448 61 
Q 2172 -91 1784 -91 
Q 1150 -91 751 415 
Q 353 922 353 1747 
Q 353 2572 751 3078 
Q 1150 3584 1784 3584 
Q 2172 3584 2448 3432 
Q 2725 3281 2906 2969 
z
M 947 1747 
Q 947 1113 1208 752 
Q 1469 391 1925 391 
Q 2381 391 2643 752 
Q 2906 1113 2906 1747 
Q 2906 2381 2643 2742 
Q 2381 3103 1925 3103 
Q 1469 3103 1208 2742 
Q 947 2381 947 1747 
z
" id="DejaVuSans-64" transform="scale(0.015625)"/>
        <path d="M 2188 4044 
L 1331 1722 
L 3047 1722 
L 2188 4044 
z
M 1831 4666 
L 2547 4666 
L 4325 0 
L 3669 0 
L 3244 1197 
L 1141 1197 
L 716 0 
L 50 0 
L 1831 4666 
z
" id="DejaVuSans-41" transform="scale(0.015625)"/>
        <path d="M 191 3500 
L 800 3500 
L 1894 563 
L 2988 3500 
L 3597 3500 
L 2284 0 
L 1503 0 
L 191 3500 
z
" id="DejaVuSans-76" transform="scale(0.015625)"/>
        <path d="M 2906 1791 
Q 2906 2416 2648 2759 
Q 2391 3103 1925 3103 
Q 1463 3103 1205 2759 
Q 947 2416 947 1791 
Q 947 1169 1205 825 
Q 1463 481 1925 481 
Q 2391 481 2648 825 
Q 2906 1169 2906 1791 
z
M 3481 434 
Q 3481 -459 3084 -895 
Q 2688 -1331 1869 -1331 
Q 1566 -1331 1297 -1286 
Q 1028 -1241 775 -1147 
L 775 -588 
Q 1028 -725 1275 -790 
Q 1522 -856 1778 -856 
Q 2344 -856 2625 -561 
Q 2906 -266 2906 331 
L 2906 616 
Q 2728 306 2450 153 
Q 2172 0 1784 0 
Q 1141 0 747 490 
Q 353 981 353 1791 
Q 353 2603 747 3093 
Q 1141 3584 1784 3584 
Q 2172 3584 2450 3431 
Q 2728 3278 2906 2969 
L 2906 3500 
L 3481 3500 
L 3481 434 
z
" id="DejaVuSans-67" transform="scale(0.015625)"/>
        <path id="DejaVuSans-20" transform="scale(0.015625)"/>
        <path d="M 628 4666 
L 1259 4666 
L 1259 531 
L 3531 531 
L 3531 0 
L 628 0 
L 628 4666 
z
" id="DejaVuSans-4c" transform="scale(0.015625)"/>
        <path d="M 3425 4513 
L 3425 3897 
Q 3066 4069 2747 4153 
Q 2428 4238 2131 4238 
Q 1616 4238 1336 4038 
Q 1056 3838 1056 3469 
Q 1056 3159 1242 3001 
Q 1428 2844 1947 2747 
L 2328 2669 
Q 3034 2534 3370 2195 
Q 3706 1856 3706 1288 
Q 3706 609 3251 259 
Q 2797 -91 1919 -91 
Q 1588 -91 1214 -16 
Q 841 59 441 206 
L 441 856 
Q 825 641 1194 531 
Q 1563 422 1919 422 
Q 2459 422 2753 634 
Q 3047 847 3047 1241 
Q 3047 1584 2836 1778 
Q 2625 1972 2144 2069 
L 1759 2144 
Q 1053 2284 737 2584 
Q 422 2884 422 3419 
Q 422 4038 858 4394 
Q 1294 4750 2059 4750 
Q 2388 4750 2728 4690 
Q 3069 4631 3425 4513 
z
" id="DejaVuSans-53" transform="scale(0.015625)"/>
        <path d="M -19 4666 
L 3928 4666 
L 3928 4134 
L 2272 4134 
L 2272 0 
L 1638 0 
L 1638 4134 
L -19 4134 
L -19 4666 
z
" id="DejaVuSans-54" transform="scale(0.015625)"/>
        <path d="M 628 4666 
L 1569 4666 
L 2759 1491 
L 3956 4666 
L 4897 4666 
L 4897 0 
L 4281 0 
L 4281 4097 
L 3078 897 
L 2444 897 
L 1241 4097 
L 1241 0 
L 628 0 
L 628 4666 
z
" id="DejaVuSans-4d" transform="scale(0.015625)"/>
       </defs>
       <use xlink:href="#DejaVuSans-46"/>
       <use x="52.019531" xlink:href="#DejaVuSans-65"/>
       <use x="113.542969" xlink:href="#DejaVuSans-64"/>
       <use x="177.019531" xlink:href="#DejaVuSans-41"/>
       <use x="239.552734" xlink:href="#DejaVuSans-76"/>
       <use x="298.732422" xlink:href="#DejaVuSans-67"/>
       <use x="362.208984" xlink:href="#DejaVuSans-20"/>
       <use x="393.996094" xlink:href="#DejaVuSans-4c"/>
       <use x="449.708984" xlink:href="#DejaVuSans-53"/>
       <use x="513.185547" xlink:href="#DejaVuSans-54"/>
       <use x="574.269531" xlink:href="#DejaVuSans-4d"/>
      </g>
     </g>
    </g>
    <g id="xtick_2">
     <g id="line2d_3">
      <path clip-path="url(#p3d57cfdb9a)" d="M 127.559261 201.960889 
L 127.559261 10.8 
" style="fill:none;stroke:#b0b0b0;stroke-linecap:square;stroke-width:0.8;"/>
     </g>
     <g id="line2d_4">
      <g>
       <use style="stroke:#000000;stroke-width:0.8;" x="127.559261" xlink:href="#mb7c9be63c0" y="201.960889"/>
      </g>
     </g>
     <g id="text_2">
      <!-- FedMed LSTM -->
      <g transform="translate(77.533666 262.88883)rotate(-45)scale(0.1 -0.1)">
       <use xlink:href="#DejaVuSans-46"/>
       <use x="52.019531" xlink:href="#DejaVuSans-65"/>
       <use x="113.542969" xlink:href="#DejaVuSans-64"/>
       <use x="177.019531" xlink:href="#DejaVuSans-4d"/>
       <use x="263.298828" xlink:href="#DejaVuSans-65"/>
       <use x="324.822266" xlink:href="#DejaVuSans-64"/>
       <use x="388.298828" xlink:href="#DejaVuSans-20"/>
       <use x="420.085938" xlink:href="#DejaVuSans-4c"/>
       <use x="475.798828" xlink:href="#DejaVuSans-53"/>
       <use x="539.275391" xlink:href="#DejaVuSans-54"/>
       <use x="600.359375" xlink:href="#DejaVuSans-4d"/>
      </g>
     </g>
    </g>
    <g id="xtick_3">
     <g id="line2d_5">
      <path clip-path="url(#p3d57cfdb9a)" d="M 188.397136 201.960889 
L 188.397136 10.8 
" style="fill:none;stroke:#b0b0b0;stroke-linecap:square;stroke-width:0.8;"/>
     </g>
     <g id="line2d_6">
      <g>
       <use style="stroke:#000000;stroke-width:0.8;" x="188.397136" xlink:href="#mb7c9be63c0" y="201.960889"/>
      </g>
     </g>
     <g id="text_3">
      <!-- FedProx LSTM -->
      <g transform="translate(138.133997 263.126374)rotate(-45)scale(0.1 -0.1)">
       <defs>
        <path d="M 1259 4147 
L 1259 2394 
L 2053 2394 
Q 2494 2394 2734 2622 
Q 2975 2850 2975 3272 
Q 2975 3691 2734 3919 
Q 2494 4147 2053 4147 
L 1259 4147 
z
M 628 4666 
L 2053 4666 
Q 2838 4666 3239 4311 
Q 3641 3956 3641 3272 
Q 3641 2581 3239 2228 
Q 2838 1875 2053 1875 
L 1259 1875 
L 1259 0 
L 628 0 
L 628 4666 
z
" id="DejaVuSans-50" transform="scale(0.015625)"/>
        <path d="M 2631 2963 
Q 2534 3019 2420 3045 
Q 2306 3072 2169 3072 
Q 1681 3072 1420 2755 
Q 1159 2438 1159 1844 
L 1159 0 
L 581 0 
L 581 3500 
L 1159 3500 
L 1159 2956 
Q 1341 3275 1631 3429 
Q 1922 3584 2338 3584 
Q 2397 3584 2469 3576 
Q 2541 3569 2628 3553 
L 2631 2963 
z
" id="DejaVuSans-72" transform="scale(0.015625)"/>
        <path d="M 1959 3097 
Q 1497 3097 1228 2736 
Q 959 2375 959 1747 
Q 959 1119 1226 758 
Q 1494 397 1959 397 
Q 2419 397 2687 759 
Q 2956 1122 2956 1747 
Q 2956 2369 2687 2733 
Q 2419 3097 1959 3097 
z
M 1959 3584 
Q 2709 3584 3137 3096 
Q 3566 2609 3566 1747 
Q 3566 888 3137 398 
Q 2709 -91 1959 -91 
Q 1206 -91 779 398 
Q 353 888 353 1747 
Q 353 2609 779 3096 
Q 1206 3584 1959 3584 
z
" id="DejaVuSans-6f" transform="scale(0.015625)"/>
        <path d="M 3513 3500 
L 2247 1797 
L 3578 0 
L 2900 0 
L 1881 1375 
L 863 0 
L 184 0 
L 1544 1831 
L 300 3500 
L 978 3500 
L 1906 2253 
L 2834 3500 
L 3513 3500 
z
" id="DejaVuSans-78" transform="scale(0.015625)"/>
       </defs>
       <use xlink:href="#DejaVuSans-46"/>
       <use x="52.019531" xlink:href="#DejaVuSans-65"/>
       <use x="113.542969" xlink:href="#DejaVuSans-64"/>
       <use x="177.019531" xlink:href="#DejaVuSans-50"/>
       <use x="235.572266" xlink:href="#DejaVuSans-72"/>
       <use x="274.435547" xlink:href="#DejaVuSans-6f"/>
       <use x="332.492188" xlink:href="#DejaVuSans-78"/>
       <use x="391.671875" xlink:href="#DejaVuSans-20"/>
       <use x="423.458984" xlink:href="#DejaVuSans-4c"/>
       <use x="479.171875" xlink:href="#DejaVuSans-53"/>
       <use x="542.648438" xlink:href="#DejaVuSans-54"/>
       <use x="603.732422" xlink:href="#DejaVuSans-4d"/>
      </g>
     </g>
    </g>
    <g id="xtick_4">
     <g id="line2d_7">
      <path clip-path="url(#p3d57cfdb9a)" d="M 249.235011 201.960889 
L 249.235011 10.8 
" style="fill:none;stroke:#b0b0b0;stroke-linecap:square;stroke-width:0.8;"/>
     </g>
     <g id="line2d_8">
      <g>
       <use style="stroke:#000000;stroke-width:0.8;" x="249.235011" xlink:href="#mb7c9be63c0" y="201.960889"/>
      </g>
     </g>
     <g id="text_4">
      <!-- qFedAvg_001_uniform LSTM -->
      <g transform="translate(148.387221 313.514361)rotate(-45)scale(0.1 -0.1)">
       <defs>
        <path d="M 947 1747 
Q 947 1113 1208 752 
Q 1469 391 1925 391 
Q 2381 391 2643 752 
Q 2906 1113 2906 1747 
Q 2906 2381 2643 2742 
Q 2381 3103 1925 3103 
Q 1469 3103 1208 2742 
Q 947 2381 947 1747 
z
M 2906 525 
Q 2725 213 2448 61 
Q 2172 -91 1784 -91 
Q 1150 -91 751 415 
Q 353 922 353 1747 
Q 353 2572 751 3078 
Q 1150 3584 1784 3584 
Q 2172 3584 2448 3432 
Q 2725 3281 2906 2969 
L 2906 3500 
L 3481 3500 
L 3481 -1331 
L 2906 -1331 
L 2906 525 
z
" id="DejaVuSans-71" transform="scale(0.015625)"/>
        <path d="M 3263 -1063 
L 3263 -1509 
L -63 -1509 
L -63 -1063 
L 3263 -1063 
z
" id="DejaVuSans-5f" transform="scale(0.015625)"/>
        <path d="M 2034 4250 
Q 1547 4250 1301 3770 
Q 1056 3291 1056 2328 
Q 1056 1369 1301 889 
Q 1547 409 2034 409 
Q 2525 409 2770 889 
Q 3016 1369 3016 2328 
Q 3016 3291 2770 3770 
Q 2525 4250 2034 4250 
z
M 2034 4750 
Q 2819 4750 3233 4129 
Q 3647 3509 3647 2328 
Q 3647 1150 3233 529 
Q 2819 -91 2034 -91 
Q 1250 -91 836 529 
Q 422 1150 422 2328 
Q 422 3509 836 4129 
Q 1250 4750 2034 4750 
z
" id="DejaVuSans-30" transform="scale(0.015625)"/>
        <path d="M 794 531 
L 1825 531 
L 1825 4091 
L 703 3866 
L 703 4441 
L 1819 4666 
L 2450 4666 
L 2450 531 
L 3481 531 
L 3481 0 
L 794 0 
L 794 531 
z
" id="DejaVuSans-31" transform="scale(0.015625)"/>
        <path d="M 544 1381 
L 544 3500 
L 1119 3500 
L 1119 1403 
Q 1119 906 1312 657 
Q 1506 409 1894 409 
Q 2359 409 2629 706 
Q 2900 1003 2900 1516 
L 2900 3500 
L 3475 3500 
L 3475 0 
L 2900 0 
L 2900 538 
Q 2691 219 2414 64 
Q 2138 -91 1772 -91 
Q 1169 -91 856 284 
Q 544 659 544 1381 
z
M 1991 3584 
L 1991 3584 
z
" id="DejaVuSans-75" transform="scale(0.015625)"/>
        <path d="M 3513 2113 
L 3513 0 
L 2938 0 
L 2938 2094 
Q 2938 2591 2744 2837 
Q 2550 3084 2163 3084 
Q 1697 3084 1428 2787 
Q 1159 2491 1159 1978 
L 1159 0 
L 581 0 
L 581 3500 
L 1159 3500 
L 1159 2956 
Q 1366 3272 1645 3428 
Q 1925 3584 2291 3584 
Q 2894 3584 3203 3211 
Q 3513 2838 3513 2113 
z
" id="DejaVuSans-6e" transform="scale(0.015625)"/>
        <path d="M 603 3500 
L 1178 3500 
L 1178 0 
L 603 0 
L 603 3500 
z
M 603 4863 
L 1178 4863 
L 1178 4134 
L 603 4134 
L 603 4863 
z
" id="DejaVuSans-69" transform="scale(0.015625)"/>
        <path d="M 2375 4863 
L 2375 4384 
L 1825 4384 
Q 1516 4384 1395 4259 
Q 1275 4134 1275 3809 
L 1275 3500 
L 2222 3500 
L 2222 3053 
L 1275 3053 
L 1275 0 
L 697 0 
L 697 3053 
L 147 3053 
L 147 3500 
L 697 3500 
L 697 3744 
Q 697 4328 969 4595 
Q 1241 4863 1831 4863 
L 2375 4863 
z
" id="DejaVuSans-66" transform="scale(0.015625)"/>
        <path d="M 3328 2828 
Q 3544 3216 3844 3400 
Q 4144 3584 4550 3584 
Q 5097 3584 5394 3201 
Q 5691 2819 5691 2113 
L 5691 0 
L 5113 0 
L 5113 2094 
Q 5113 2597 4934 2840 
Q 4756 3084 4391 3084 
Q 3944 3084 3684 2787 
Q 3425 2491 3425 1978 
L 3425 0 
L 2847 0 
L 2847 2094 
Q 2847 2600 2669 2842 
Q 2491 3084 2119 3084 
Q 1678 3084 1418 2786 
Q 1159 2488 1159 1978 
L 1159 0 
L 581 0 
L 581 3500 
L 1159 3500 
L 1159 2956 
Q 1356 3278 1631 3431 
Q 1906 3584 2284 3584 
Q 2666 3584 2933 3390 
Q 3200 3197 3328 2828 
z
" id="DejaVuSans-6d" transform="scale(0.015625)"/>
       </defs>
       <use xlink:href="#DejaVuSans-71"/>
       <use x="63.476562" xlink:href="#DejaVuSans-46"/>
       <use x="115.496094" xlink:href="#DejaVuSans-65"/>
       <use x="177.019531" xlink:href="#DejaVuSans-64"/>
       <use x="240.496094" xlink:href="#DejaVuSans-41"/>
       <use x="303.029297" xlink:href="#DejaVuSans-76"/>
       <use x="362.208984" xlink:href="#DejaVuSans-67"/>
       <use x="425.685547" xlink:href="#DejaVuSans-5f"/>
       <use x="475.685547" xlink:href="#DejaVuSans-30"/>
       <use x="539.308594" xlink:href="#DejaVuSans-30"/>
       <use x="602.931641" xlink:href="#DejaVuSans-31"/>
       <use x="666.554688" xlink:href="#DejaVuSans-5f"/>
       <use x="716.554688" xlink:href="#DejaVuSans-75"/>
       <use x="779.933594" xlink:href="#DejaVuSans-6e"/>
       <use x="843.3125" xlink:href="#DejaVuSans-69"/>
       <use x="871.095703" xlink:href="#DejaVuSans-66"/>
       <use x="906.300781" xlink:href="#DejaVuSans-6f"/>
       <use x="967.482422" xlink:href="#DejaVuSans-72"/>
       <use x="1006.845703" xlink:href="#DejaVuSans-6d"/>
       <use x="1104.257812" xlink:href="#DejaVuSans-20"/>
       <use x="1136.044922" xlink:href="#DejaVuSans-4c"/>
       <use x="1191.757812" xlink:href="#DejaVuSans-53"/>
       <use x="1255.234375" xlink:href="#DejaVuSans-54"/>
       <use x="1316.318359" xlink:href="#DejaVuSans-4d"/>
      </g>
     </g>
    </g>
    <g id="xtick_5">
     <g id="line2d_9">
      <path clip-path="url(#p3d57cfdb9a)" d="M 310.072887 201.960889 
L 310.072887 10.8 
" style="fill:none;stroke:#b0b0b0;stroke-linecap:square;stroke-width:0.8;"/>
     </g>
     <g id="line2d_10">
      <g>
       <use style="stroke:#000000;stroke-width:0.8;" x="310.072887" xlink:href="#mb7c9be63c0" y="201.960889"/>
      </g>
     </g>
     <g id="text_5">
      <!-- qFedAvg_1_weighted LSTM -->
      <g transform="translate(212.95619 309.783268)rotate(-45)scale(0.1 -0.1)">
       <defs>
        <path d="M 269 3500 
L 844 3500 
L 1563 769 
L 2278 3500 
L 2956 3500 
L 3675 769 
L 4391 3500 
L 4966 3500 
L 4050 0 
L 3372 0 
L 2619 2869 
L 1863 0 
L 1184 0 
L 269 3500 
z
" id="DejaVuSans-77" transform="scale(0.015625)"/>
        <path d="M 3513 2113 
L 3513 0 
L 2938 0 
L 2938 2094 
Q 2938 2591 2744 2837 
Q 2550 3084 2163 3084 
Q 1697 3084 1428 2787 
Q 1159 2491 1159 1978 
L 1159 0 
L 581 0 
L 581 4863 
L 1159 4863 
L 1159 2956 
Q 1366 3272 1645 3428 
Q 1925 3584 2291 3584 
Q 2894 3584 3203 3211 
Q 3513 2838 3513 2113 
z
" id="DejaVuSans-68" transform="scale(0.015625)"/>
        <path d="M 1172 4494 
L 1172 3500 
L 2356 3500 
L 2356 3053 
L 1172 3053 
L 1172 1153 
Q 1172 725 1289 603 
Q 1406 481 1766 481 
L 2356 481 
L 2356 0 
L 1766 0 
Q 1100 0 847 248 
Q 594 497 594 1153 
L 594 3053 
L 172 3053 
L 172 3500 
L 594 3500 
L 594 4494 
L 1172 4494 
z
" id="DejaVuSans-74" transform="scale(0.015625)"/>
       </defs>
       <use xlink:href="#DejaVuSans-71"/>
       <use x="63.476562" xlink:href="#DejaVuSans-46"/>
       <use x="115.496094" xlink:href="#DejaVuSans-65"/>
       <use x="177.019531" xlink:href="#DejaVuSans-64"/>
       <use x="240.496094" xlink:href="#DejaVuSans-41"/>
       <use x="303.029297" xlink:href="#DejaVuSans-76"/>
       <use x="362.208984" xlink:href="#DejaVuSans-67"/>
       <use x="425.685547" xlink:href="#DejaVuSans-5f"/>
       <use x="475.685547" xlink:href="#DejaVuSans-31"/>
       <use x="539.308594" xlink:href="#DejaVuSans-5f"/>
       <use x="589.308594" xlink:href="#DejaVuSans-77"/>
       <use x="671.095703" xlink:href="#DejaVuSans-65"/>
       <use x="732.619141" xlink:href="#DejaVuSans-69"/>
       <use x="760.402344" xlink:href="#DejaVuSans-67"/>
       <use x="823.878906" xlink:href="#DejaVuSans-68"/>
       <use x="887.257812" xlink:href="#DejaVuSans-74"/>
       <use x="926.466797" xlink:href="#DejaVuSans-65"/>
       <use x="987.990234" xlink:href="#DejaVuSans-64"/>
       <use x="1051.466797" xlink:href="#DejaVuSans-20"/>
       <use x="1083.253906" xlink:href="#DejaVuSans-4c"/>
       <use x="1138.966797" xlink:href="#DejaVuSans-53"/>
       <use x="1202.443359" xlink:href="#DejaVuSans-54"/>
       <use x="1263.527344" xlink:href="#DejaVuSans-4d"/>
      </g>
     </g>
    </g>
    <g id="xtick_6">
     <g id="line2d_11">
      <path clip-path="url(#p3d57cfdb9a)" d="M 370.910762 201.960889 
L 370.910762 10.8 
" style="fill:none;stroke:#b0b0b0;stroke-linecap:square;stroke-width:0.8;"/>
     </g>
     <g id="line2d_12">
      <g>
       <use style="stroke:#000000;stroke-width:0.8;" x="370.910762" xlink:href="#mb7c9be63c0" y="201.960889"/>
      </g>
     </g>
     <g id="text_6">
      <!-- qFedAvg_001_weighted LSTM -->
      <g transform="translate(264.796131 318.781202)rotate(-45)scale(0.1 -0.1)">
       <use xlink:href="#DejaVuSans-71"/>
       <use x="63.476562" xlink:href="#DejaVuSans-46"/>
       <use x="115.496094" xlink:href="#DejaVuSans-65"/>
       <use x="177.019531" xlink:href="#DejaVuSans-64"/>
       <use x="240.496094" xlink:href="#DejaVuSans-41"/>
       <use x="303.029297" xlink:href="#DejaVuSans-76"/>
       <use x="362.208984" xlink:href="#DejaVuSans-67"/>
       <use x="425.685547" xlink:href="#DejaVuSans-5f"/>
       <use x="475.685547" xlink:href="#DejaVuSans-30"/>
       <use x="539.308594" xlink:href="#DejaVuSans-30"/>
       <use x="602.931641" xlink:href="#DejaVuSans-31"/>
       <use x="666.554688" xlink:href="#DejaVuSans-5f"/>
       <use x="716.554688" xlink:href="#DejaVuSans-77"/>
       <use x="798.341797" xlink:href="#DejaVuSans-65"/>
       <use x="859.865234" xlink:href="#DejaVuSans-69"/>
       <use x="887.648438" xlink:href="#DejaVuSans-67"/>
       <use x="951.125" xlink:href="#DejaVuSans-68"/>
       <use x="1014.503906" xlink:href="#DejaVuSans-74"/>
       <use x="1053.712891" xlink:href="#DejaVuSans-65"/>
       <use x="1115.236328" xlink:href="#DejaVuSans-64"/>
       <use x="1178.712891" xlink:href="#DejaVuSans-20"/>
       <use x="1210.5" xlink:href="#DejaVuSans-4c"/>
       <use x="1266.212891" xlink:href="#DejaVuSans-53"/>
       <use x="1329.689453" xlink:href="#DejaVuSans-54"/>
       <use x="1390.773438" xlink:href="#DejaVuSans-4d"/>
      </g>
     </g>
    </g>
    <g id="xtick_7">
     <g id="line2d_13">
      <path clip-path="url(#p3d57cfdb9a)" d="M 431.748637 201.960889 
L 431.748637 10.8 
" style="fill:none;stroke:#b0b0b0;stroke-linecap:square;stroke-width:0.8;"/>
     </g>
     <g id="line2d_14">
      <g>
       <use style="stroke:#000000;stroke-width:0.8;" x="431.748637" xlink:href="#mb7c9be63c0" y="201.960889"/>
      </g>
     </g>
     <g id="text_7">
      <!-- qFedAvg_1_uniform LSTM -->
      <g transform="translate(339.898781 304.516427)rotate(-45)scale(0.1 -0.1)">
       <use xlink:href="#DejaVuSans-71"/>
       <use x="63.476562" xlink:href="#DejaVuSans-46"/>
       <use x="115.496094" xlink:href="#DejaVuSans-65"/>
       <use x="177.019531" xlink:href="#DejaVuSans-64"/>
       <use x="240.496094" xlink:href="#DejaVuSans-41"/>
       <use x="303.029297" xlink:href="#DejaVuSans-76"/>
       <use x="362.208984" xlink:href="#DejaVuSans-67"/>
       <use x="425.685547" xlink:href="#DejaVuSans-5f"/>
       <use x="475.685547" xlink:href="#DejaVuSans-31"/>
       <use x="539.308594" xlink:href="#DejaVuSans-5f"/>
       <use x="589.308594" xlink:href="#DejaVuSans-75"/>
       <use x="652.6875" xlink:href="#DejaVuSans-6e"/>
       <use x="716.066406" xlink:href="#DejaVuSans-69"/>
       <use x="743.849609" xlink:href="#DejaVuSans-66"/>
       <use x="779.054688" xlink:href="#DejaVuSans-6f"/>
       <use x="840.236328" xlink:href="#DejaVuSans-72"/>
       <use x="879.599609" xlink:href="#DejaVuSans-6d"/>
       <use x="977.011719" xlink:href="#DejaVuSans-20"/>
       <use x="1008.798828" xlink:href="#DejaVuSans-4c"/>
       <use x="1064.511719" xlink:href="#DejaVuSans-53"/>
       <use x="1127.988281" xlink:href="#DejaVuSans-54"/>
       <use x="1189.072266" xlink:href="#DejaVuSans-4d"/>
      </g>
     </g>
    </g>
    <g id="text_8">
     <!-- Algorithms -->
     <g transform="translate(222.143605 332.046864)scale(0.1 -0.1)">
      <defs>
       <path d="M 603 4863 
L 1178 4863 
L 1178 0 
L 603 0 
L 603 4863 
z
" id="DejaVuSans-6c" transform="scale(0.015625)"/>
       <path d="M 2834 3397 
L 2834 2853 
Q 2591 2978 2328 3040 
Q 2066 3103 1784 3103 
Q 1356 3103 1142 2972 
Q 928 2841 928 2578 
Q 928 2378 1081 2264 
Q 1234 2150 1697 2047 
L 1894 2003 
Q 2506 1872 2764 1633 
Q 3022 1394 3022 966 
Q 3022 478 2636 193 
Q 2250 -91 1575 -91 
Q 1294 -91 989 -36 
Q 684 19 347 128 
L 347 722 
Q 666 556 975 473 
Q 1284 391 1588 391 
Q 1994 391 2212 530 
Q 2431 669 2431 922 
Q 2431 1156 2273 1281 
Q 2116 1406 1581 1522 
L 1381 1569 
Q 847 1681 609 1914 
Q 372 2147 372 2553 
Q 372 3047 722 3315 
Q 1072 3584 1716 3584 
Q 2034 3584 2315 3537 
Q 2597 3491 2834 3397 
z
" id="DejaVuSans-73" transform="scale(0.015625)"/>
      </defs>
      <use xlink:href="#DejaVuSans-41"/>
      <use x="68.408203" xlink:href="#DejaVuSans-6c"/>
      <use x="96.191406" xlink:href="#DejaVuSans-67"/>
      <use x="159.667969" xlink:href="#DejaVuSans-6f"/>
      <use x="220.849609" xlink:href="#DejaVuSans-72"/>
      <use x="261.962891" xlink:href="#DejaVuSans-69"/>
      <use x="289.746094" xlink:href="#DejaVuSans-74"/>
      <use x="328.955078" xlink:href="#DejaVuSans-68"/>
      <use x="392.333984" xlink:href="#DejaVuSans-6d"/>
      <use x="489.746094" xlink:href="#DejaVuSans-73"/>
     </g>
    </g>
   </g>
   <g id="matplotlib.axis_2">
    <g id="ytick_1">
     <g id="line2d_15">
      <path clip-path="url(#p3d57cfdb9a)" d="M 48.470023 188.410557 
L 450 188.410557 
" style="fill:none;stroke:#b0b0b0;stroke-linecap:square;stroke-width:0.8;"/>
     </g>
     <g id="line2d_16">
      <defs>
       <path d="M 0 0 
L -3.5 0 
" id="m69d4946e2a" style="stroke:#000000;stroke-width:0.8;"/>
      </defs>
      <g>
       <use style="stroke:#000000;stroke-width:0.8;" x="48.470023" xlink:href="#m69d4946e2a" y="188.410557"/>
      </g>
     </g>
     <g id="text_9">
      <!-- 4 -->
      <g transform="translate(35.107523 192.209775)scale(0.1 -0.1)">
       <defs>
        <path d="M 2419 4116 
L 825 1625 
L 2419 1625 
L 2419 4116 
z
M 2253 4666 
L 3047 4666 
L 3047 1625 
L 3713 1625 
L 3713 1100 
L 3047 1100 
L 3047 0 
L 2419 0 
L 2419 1100 
L 313 1100 
L 313 1709 
L 2253 4666 
z
" id="DejaVuSans-34" transform="scale(0.015625)"/>
       </defs>
       <use xlink:href="#DejaVuSans-34"/>
      </g>
     </g>
    </g>
    <g id="ytick_2">
     <g id="line2d_17">
      <path clip-path="url(#p3d57cfdb9a)" d="M 48.470023 160.095516 
L 450 160.095516 
" style="fill:none;stroke:#b0b0b0;stroke-linecap:square;stroke-width:0.8;"/>
     </g>
     <g id="line2d_18">
      <g>
       <use style="stroke:#000000;stroke-width:0.8;" x="48.470023" xlink:href="#m69d4946e2a" y="160.095516"/>
      </g>
     </g>
     <g id="text_10">
      <!-- 5 -->
      <g transform="translate(35.107523 163.894735)scale(0.1 -0.1)">
       <defs>
        <path d="M 691 4666 
L 3169 4666 
L 3169 4134 
L 1269 4134 
L 1269 2991 
Q 1406 3038 1543 3061 
Q 1681 3084 1819 3084 
Q 2600 3084 3056 2656 
Q 3513 2228 3513 1497 
Q 3513 744 3044 326 
Q 2575 -91 1722 -91 
Q 1428 -91 1123 -41 
Q 819 9 494 109 
L 494 744 
Q 775 591 1075 516 
Q 1375 441 1709 441 
Q 2250 441 2565 725 
Q 2881 1009 2881 1497 
Q 2881 1984 2565 2268 
Q 2250 2553 1709 2553 
Q 1456 2553 1204 2497 
Q 953 2441 691 2322 
L 691 4666 
z
" id="DejaVuSans-35" transform="scale(0.015625)"/>
       </defs>
       <use xlink:href="#DejaVuSans-35"/>
      </g>
     </g>
    </g>
    <g id="ytick_3">
     <g id="line2d_19">
      <path clip-path="url(#p3d57cfdb9a)" d="M 48.470023 131.780475 
L 450 131.780475 
" style="fill:none;stroke:#b0b0b0;stroke-linecap:square;stroke-width:0.8;"/>
     </g>
     <g id="line2d_20">
      <g>
       <use style="stroke:#000000;stroke-width:0.8;" x="48.470023" xlink:href="#m69d4946e2a" y="131.780475"/>
      </g>
     </g>
     <g id="text_11">
      <!-- 6 -->
      <g transform="translate(35.107523 135.579694)scale(0.1 -0.1)">
       <defs>
        <path d="M 2113 2584 
Q 1688 2584 1439 2293 
Q 1191 2003 1191 1497 
Q 1191 994 1439 701 
Q 1688 409 2113 409 
Q 2538 409 2786 701 
Q 3034 994 3034 1497 
Q 3034 2003 2786 2293 
Q 2538 2584 2113 2584 
z
M 3366 4563 
L 3366 3988 
Q 3128 4100 2886 4159 
Q 2644 4219 2406 4219 
Q 1781 4219 1451 3797 
Q 1122 3375 1075 2522 
Q 1259 2794 1537 2939 
Q 1816 3084 2150 3084 
Q 2853 3084 3261 2657 
Q 3669 2231 3669 1497 
Q 3669 778 3244 343 
Q 2819 -91 2113 -91 
Q 1303 -91 875 529 
Q 447 1150 447 2328 
Q 447 3434 972 4092 
Q 1497 4750 2381 4750 
Q 2619 4750 2861 4703 
Q 3103 4656 3366 4563 
z
" id="DejaVuSans-36" transform="scale(0.015625)"/>
       </defs>
       <use xlink:href="#DejaVuSans-36"/>
      </g>
     </g>
    </g>
    <g id="ytick_4">
     <g id="line2d_21">
      <path clip-path="url(#p3d57cfdb9a)" d="M 48.470023 103.465434 
L 450 103.465434 
" style="fill:none;stroke:#b0b0b0;stroke-linecap:square;stroke-width:0.8;"/>
     </g>
     <g id="line2d_22">
      <g>
       <use style="stroke:#000000;stroke-width:0.8;" x="48.470023" xlink:href="#m69d4946e2a" y="103.465434"/>
      </g>
     </g>
     <g id="text_12">
      <!-- 7 -->
      <g transform="translate(35.107523 107.264653)scale(0.1 -0.1)">
       <defs>
        <path d="M 525 4666 
L 3525 4666 
L 3525 4397 
L 1831 0 
L 1172 0 
L 2766 4134 
L 525 4134 
L 525 4666 
z
" id="DejaVuSans-37" transform="scale(0.015625)"/>
       </defs>
       <use xlink:href="#DejaVuSans-37"/>
      </g>
     </g>
    </g>
    <g id="ytick_5">
     <g id="line2d_23">
      <path clip-path="url(#p3d57cfdb9a)" d="M 48.470023 75.150394 
L 450 75.150394 
" style="fill:none;stroke:#b0b0b0;stroke-linecap:square;stroke-width:0.8;"/>
     </g>
     <g id="line2d_24">
      <g>
       <use style="stroke:#000000;stroke-width:0.8;" x="48.470023" xlink:href="#m69d4946e2a" y="75.150394"/>
      </g>
     </g>
     <g id="text_13">
      <!-- 8 -->
      <g transform="translate(35.107523 78.949612)scale(0.1 -0.1)">
       <defs>
        <path d="M 2034 2216 
Q 1584 2216 1326 1975 
Q 1069 1734 1069 1313 
Q 1069 891 1326 650 
Q 1584 409 2034 409 
Q 2484 409 2743 651 
Q 3003 894 3003 1313 
Q 3003 1734 2745 1975 
Q 2488 2216 2034 2216 
z
M 1403 2484 
Q 997 2584 770 2862 
Q 544 3141 544 3541 
Q 544 4100 942 4425 
Q 1341 4750 2034 4750 
Q 2731 4750 3128 4425 
Q 3525 4100 3525 3541 
Q 3525 3141 3298 2862 
Q 3072 2584 2669 2484 
Q 3125 2378 3379 2068 
Q 3634 1759 3634 1313 
Q 3634 634 3220 271 
Q 2806 -91 2034 -91 
Q 1263 -91 848 271 
Q 434 634 434 1313 
Q 434 1759 690 2068 
Q 947 2378 1403 2484 
z
M 1172 3481 
Q 1172 3119 1398 2916 
Q 1625 2713 2034 2713 
Q 2441 2713 2670 2916 
Q 2900 3119 2900 3481 
Q 2900 3844 2670 4047 
Q 2441 4250 2034 4250 
Q 1625 4250 1398 4047 
Q 1172 3844 1172 3481 
z
" id="DejaVuSans-38" transform="scale(0.015625)"/>
       </defs>
       <use xlink:href="#DejaVuSans-38"/>
      </g>
     </g>
    </g>
    <g id="ytick_6">
     <g id="line2d_25">
      <path clip-path="url(#p3d57cfdb9a)" d="M 48.470023 46.835353 
L 450 46.835353 
" style="fill:none;stroke:#b0b0b0;stroke-linecap:square;stroke-width:0.8;"/>
     </g>
     <g id="line2d_26">
      <g>
       <use style="stroke:#000000;stroke-width:0.8;" x="48.470023" xlink:href="#m69d4946e2a" y="46.835353"/>
      </g>
     </g>
     <g id="text_14">
      <!-- 9 -->
      <g transform="translate(35.107523 50.634571)scale(0.1 -0.1)">
       <defs>
        <path d="M 703 97 
L 703 672 
Q 941 559 1184 500 
Q 1428 441 1663 441 
Q 2288 441 2617 861 
Q 2947 1281 2994 2138 
Q 2813 1869 2534 1725 
Q 2256 1581 1919 1581 
Q 1219 1581 811 2004 
Q 403 2428 403 3163 
Q 403 3881 828 4315 
Q 1253 4750 1959 4750 
Q 2769 4750 3195 4129 
Q 3622 3509 3622 2328 
Q 3622 1225 3098 567 
Q 2575 -91 1691 -91 
Q 1453 -91 1209 -44 
Q 966 3 703 97 
z
M 1959 2075 
Q 2384 2075 2632 2365 
Q 2881 2656 2881 3163 
Q 2881 3666 2632 3958 
Q 2384 4250 1959 4250 
Q 1534 4250 1286 3958 
Q 1038 3666 1038 3163 
Q 1038 2656 1286 2365 
Q 1534 2075 1959 2075 
z
" id="DejaVuSans-39" transform="scale(0.015625)"/>
       </defs>
       <use xlink:href="#DejaVuSans-39"/>
      </g>
     </g>
    </g>
    <g id="ytick_7">
     <g id="line2d_27">
      <path clip-path="url(#p3d57cfdb9a)" d="M 48.470023 18.520312 
L 450 18.520312 
" style="fill:none;stroke:#b0b0b0;stroke-linecap:square;stroke-width:0.8;"/>
     </g>
     <g id="line2d_28">
      <g>
       <use style="stroke:#000000;stroke-width:0.8;" x="48.470023" xlink:href="#m69d4946e2a" y="18.520312"/>
      </g>
     </g>
     <g id="text_15">
      <!-- 10 -->
      <g transform="translate(28.745023 22.319531)scale(0.1 -0.1)">
       <use xlink:href="#DejaVuSans-31"/>
       <use x="63.623047" xlink:href="#DejaVuSans-30"/>
      </g>
     </g>
    </g>
    <g id="text_16">
     <!-- Entropy -->
     <g transform="translate(22.665335 125.804663)rotate(-90)scale(0.1 -0.1)">
      <defs>
       <path d="M 628 4666 
L 3578 4666 
L 3578 4134 
L 1259 4134 
L 1259 2753 
L 3481 2753 
L 3481 2222 
L 1259 2222 
L 1259 531 
L 3634 531 
L 3634 0 
L 628 0 
L 628 4666 
z
" id="DejaVuSans-45" transform="scale(0.015625)"/>
       <path d="M 1159 525 
L 1159 -1331 
L 581 -1331 
L 581 3500 
L 1159 3500 
L 1159 2969 
Q 1341 3281 1617 3432 
Q 1894 3584 2278 3584 
Q 2916 3584 3314 3078 
Q 3713 2572 3713 1747 
Q 3713 922 3314 415 
Q 2916 -91 2278 -91 
Q 1894 -91 1617 61 
Q 1341 213 1159 525 
z
M 3116 1747 
Q 3116 2381 2855 2742 
Q 2594 3103 2138 3103 
Q 1681 3103 1420 2742 
Q 1159 2381 1159 1747 
Q 1159 1113 1420 752 
Q 1681 391 2138 391 
Q 2594 391 2855 752 
Q 3116 1113 3116 1747 
z
" id="DejaVuSans-70" transform="scale(0.015625)"/>
       <path d="M 2059 -325 
Q 1816 -950 1584 -1140 
Q 1353 -1331 966 -1331 
L 506 -1331 
L 506 -850 
L 844 -850 
Q 1081 -850 1212 -737 
Q 1344 -625 1503 -206 
L 1606 56 
L 191 3500 
L 800 3500 
L 1894 763 
L 2988 3500 
L 3597 3500 
L 2059 -325 
z
" id="DejaVuSans-79" transform="scale(0.015625)"/>
      </defs>
      <use xlink:href="#DejaVuSans-45"/>
      <use x="63.183594" xlink:href="#DejaVuSans-6e"/>
      <use x="126.5625" xlink:href="#DejaVuSans-74"/>
      <use x="165.771484" xlink:href="#DejaVuSans-72"/>
      <use x="204.634766" xlink:href="#DejaVuSans-6f"/>
      <use x="265.816406" xlink:href="#DejaVuSans-70"/>
      <use x="329.292969" xlink:href="#DejaVuSans-79"/>
     </g>
    </g>
   </g>
   <g id="LineCollection_1">
    <path clip-path="url(#p3d57cfdb9a)" d="M 66.721385 156.427773 
L 66.721385 151.004211 
" style="fill:none;stroke:#000000;stroke-width:3;"/>
    <path clip-path="url(#p3d57cfdb9a)" d="M 127.559261 193.271758 
L 127.559261 189.441137 
" style="fill:none;stroke:#000000;stroke-width:3;"/>
    <path clip-path="url(#p3d57cfdb9a)" d="M 188.397136 156.996807 
L 188.397136 153.505526 
" style="fill:none;stroke:#000000;stroke-width:3;"/>
    <path clip-path="url(#p3d57cfdb9a)" d="M 249.235011 148.312291 
L 249.235011 147.364382 
" style="fill:none;stroke:#000000;stroke-width:3;"/>
    <path clip-path="url(#p3d57cfdb9a)" d="M 310.072887 135.276387 
L 310.072887 135.10844 
" style="fill:none;stroke:#000000;stroke-width:3;"/>
    <path clip-path="url(#p3d57cfdb9a)" d="M 370.910762 145.453731 
L 370.910762 144.429662 
" style="fill:none;stroke:#000000;stroke-width:3;"/>
    <path clip-path="url(#p3d57cfdb9a)" d="M 431.748637 138.78386 
L 431.748637 132.387466 
" style="fill:none;stroke:#000000;stroke-width:3;"/>
   </g>
   <g id="LineCollection_2">
    <path clip-path="url(#p3d57cfdb9a)" d="M 66.721385 156.427773 
L 66.721385 151.004211 
" style="fill:none;stroke:#000000;"/>
    <path clip-path="url(#p3d57cfdb9a)" d="M 127.559261 193.271758 
L 127.559261 189.441137 
" style="fill:none;stroke:#000000;"/>
    <path clip-path="url(#p3d57cfdb9a)" d="M 188.397136 156.996807 
L 188.397136 153.505526 
" style="fill:none;stroke:#000000;"/>
    <path clip-path="url(#p3d57cfdb9a)" d="M 249.235011 148.312291 
L 249.235011 147.364382 
" style="fill:none;stroke:#000000;"/>
    <path clip-path="url(#p3d57cfdb9a)" d="M 310.072887 135.276387 
L 310.072887 135.10844 
" style="fill:none;stroke:#000000;"/>
    <path clip-path="url(#p3d57cfdb9a)" d="M 370.910762 145.453731 
L 370.910762 144.429662 
" style="fill:none;stroke:#000000;"/>
    <path clip-path="url(#p3d57cfdb9a)" d="M 431.748637 138.78386 
L 431.748637 132.387466 
" style="fill:none;stroke:#000000;"/>
   </g>
   <g id="LineCollection_3">
    <path clip-path="url(#p3d57cfdb9a)" d="M 66.721385 19.489131 
L 66.721385 19.489131 
" style="fill:none;stroke:#ff0000;"/>
    <path clip-path="url(#p3d57cfdb9a)" d="M 127.559261 19.489131 
L 127.559261 19.489131 
" style="fill:none;stroke:#ff0000;"/>
    <path clip-path="url(#p3d57cfdb9a)" d="M 188.397136 19.489131 
L 188.397136 19.489131 
" style="fill:none;stroke:#ff0000;"/>
    <path clip-path="url(#p3d57cfdb9a)" d="M 249.235011 19.489131 
L 249.235011 19.489131 
" style="fill:none;stroke:#ff0000;"/>
    <path clip-path="url(#p3d57cfdb9a)" d="M 310.072887 19.489131 
L 310.072887 19.489131 
" style="fill:none;stroke:#ff0000;"/>
    <path clip-path="url(#p3d57cfdb9a)" d="M 370.910762 19.489131 
L 370.910762 19.489131 
" style="fill:none;stroke:#ff0000;"/>
    <path clip-path="url(#p3d57cfdb9a)" d="M 431.748637 19.489131 
L 431.748637 19.489131 
" style="fill:none;stroke:#ff0000;"/>
   </g>
   <g id="line2d_29">
    <defs>
     <path d="M 0 3 
C 0.795609 3 1.55874 2.683901 2.12132 2.12132 
C 2.683901 1.55874 3 0.795609 3 0 
C 3 -0.795609 2.683901 -1.55874 2.12132 -2.12132 
C 1.55874 -2.683901 0.795609 -3 0 -3 
C -0.795609 -3 -1.55874 -2.683901 -2.12132 -2.12132 
C -2.683901 -1.55874 -3 -0.795609 -3 0 
C -3 0.795609 -2.683901 1.55874 -2.12132 2.12132 
C -1.55874 2.683901 -0.795609 3 0 3 
z
" id="m62be41dd12" style="stroke:#000000;"/>
    </defs>
    <g clip-path="url(#p3d57cfdb9a)">
     <use style="stroke:#000000;" x="66.721385" xlink:href="#m62be41dd12" y="153.715992"/>
     <use style="stroke:#000000;" x="127.559261" xlink:href="#m62be41dd12" y="191.356448"/>
     <use style="stroke:#000000;" x="188.397136" xlink:href="#m62be41dd12" y="155.251166"/>
     <use style="stroke:#000000;" x="249.235011" xlink:href="#m62be41dd12" y="147.838337"/>
     <use style="stroke:#000000;" x="310.072887" xlink:href="#m62be41dd12" y="135.192414"/>
     <use style="stroke:#000000;" x="370.910762" xlink:href="#m62be41dd12" y="144.941696"/>
     <use style="stroke:#000000;" x="431.748637" xlink:href="#m62be41dd12" y="135.585663"/>
    </g>
   </g>
   <g id="line2d_30">
    <defs>
     <path d="M 0 1.5 
C 0.397805 1.5 0.77937 1.341951 1.06066 1.06066 
C 1.341951 0.77937 1.5 0.397805 1.5 0 
C 1.5 -0.397805 1.341951 -0.77937 1.06066 -1.06066 
C 0.77937 -1.341951 0.397805 -1.5 0 -1.5 
C -0.397805 -1.5 -0.77937 -1.341951 -1.06066 -1.06066 
C -1.341951 -0.77937 -1.5 -0.397805 -1.5 0 
C -1.5 0.397805 -1.341951 0.77937 -1.06066 1.06066 
C -0.77937 1.341951 -0.397805 1.5 0 1.5 
z
" id="m89d198be03" style="stroke:#000000;"/>
    </defs>
    <g clip-path="url(#p3d57cfdb9a)">
     <use style="stroke:#000000;" x="66.721385" xlink:href="#m89d198be03" y="153.715992"/>
     <use style="stroke:#000000;" x="127.559261" xlink:href="#m89d198be03" y="191.356448"/>
     <use style="stroke:#000000;" x="188.397136" xlink:href="#m89d198be03" y="155.251166"/>
     <use style="stroke:#000000;" x="249.235011" xlink:href="#m89d198be03" y="147.838337"/>
     <use style="stroke:#000000;" x="310.072887" xlink:href="#m89d198be03" y="135.192414"/>
     <use style="stroke:#000000;" x="370.910762" xlink:href="#m89d198be03" y="144.941696"/>
     <use style="stroke:#000000;" x="431.748637" xlink:href="#m89d198be03" y="135.585663"/>
    </g>
   </g>
   <g id="line2d_31">
    <defs>
     <path d="M -0 4.242641 
L 4.242641 0 
L 0 -4.242641 
L -4.242641 -0 
z
" id="m075f2d91b5" style="stroke:#ff0000;stroke-linejoin:miter;"/>
    </defs>
    <g clip-path="url(#p3d57cfdb9a)">
     <use style="fill:#ff0000;stroke:#ff0000;stroke-linejoin:miter;" x="66.721385" xlink:href="#m075f2d91b5" y="19.489131"/>
     <use style="fill:#ff0000;stroke:#ff0000;stroke-linejoin:miter;" x="127.559261" xlink:href="#m075f2d91b5" y="19.489131"/>
     <use style="fill:#ff0000;stroke:#ff0000;stroke-linejoin:miter;" x="188.397136" xlink:href="#m075f2d91b5" y="19.489131"/>
     <use style="fill:#ff0000;stroke:#ff0000;stroke-linejoin:miter;" x="249.235011" xlink:href="#m075f2d91b5" y="19.489131"/>
     <use style="fill:#ff0000;stroke:#ff0000;stroke-linejoin:miter;" x="310.072887" xlink:href="#m075f2d91b5" y="19.489131"/>
     <use style="fill:#ff0000;stroke:#ff0000;stroke-linejoin:miter;" x="370.910762" xlink:href="#m075f2d91b5" y="19.489131"/>
     <use style="fill:#ff0000;stroke:#ff0000;stroke-linejoin:miter;" x="431.748637" xlink:href="#m075f2d91b5" y="19.489131"/>
    </g>
   </g>
   <g id="patch_3">
    <path d="M 48.470023 201.960889 
L 48.470023 10.8 
" style="fill:none;stroke:#000000;stroke-linecap:square;stroke-linejoin:miter;stroke-width:0.8;"/>
   </g>
   <g id="patch_4">
    <path d="M 450 201.960889 
L 450 10.8 
" style="fill:none;stroke:#000000;stroke-linecap:square;stroke-linejoin:miter;stroke-width:0.8;"/>
   </g>
   <g id="patch_5">
    <path d="M 48.470023 201.960889 
L 450 201.960889 
" style="fill:none;stroke:#000000;stroke-linecap:square;stroke-linejoin:miter;stroke-width:0.8;"/>
   </g>
   <g id="patch_6">
    <path d="M 48.470023 10.8 
L 450 10.8 
" style="fill:none;stroke:#000000;stroke-linecap:square;stroke-linejoin:miter;stroke-width:0.8;"/>
   </g>
  </g>
 </g>
 <defs>
  <clipPath id="p3d57cfdb9a">
   <rect height="191.160889" width="401.529977" x="48.470023" y="10.8"/>
  </clipPath>
 </defs>
</svg>
