<?xml version="1.0" encoding="utf-8" standalone="no"?>
<!DOCTYPE svg PUBLIC "-//W3C//DTD SVG 1.1//EN"
  "http://www.w3.org/Graphics/SVG/1.1/DTD/svg11.dtd">
<svg height="432pt" version="1.1" viewBox="0 0 576 432" width="576pt" xmlns="http://www.w3.org/2000/svg" xmlns:xlink="http://www.w3.org/1999/xlink">
 <metadata>
  <rdf:RDF xmlns:cc="http://creativecommons.org/ns#" xmlns:dc="http://purl.org/dc/elements/1.1/" xmlns:rdf="http://www.w3.org/1999/02/22-rdf-syntax-ns#">
   <cc:Work>
    <dc:type rdf:resource="http://purl.org/dc/dcmitype/StillImage"/>
    <dc:date>2021-05-07T22:04:30.824011</dc:date>
    <dc:format>image/svg+xml</dc:format>
    <dc:creator>
     <cc:Agent>
      <dc:title>Matplotlib v3.4.1, https://matplotlib.org/</dc:title>
     </cc:Agent>
    </dc:creator>
   </cc:Work>
  </rdf:RDF>
 </metadata>
 <defs>
  <style type="text/css">*{stroke-linecap:butt;stroke-linejoin:round;}</style>
 </defs>
 <g id="figure_1">
  <g id="patch_1">
   <path d="M 0 432 
L 576 432 
L 576 0 
L 0 0 
z
" style="fill:#ffffff;"/>
  </g>
  <g id="axes_1">
   <g id="patch_2">
    <path d="M 60.77 376 
L 556.505 376 
L 556.505 56.601989 
L 60.77 56.601989 
z
" style="fill:#ffffff;"/>
   </g>
   <g id="PolyCollection_1">
    <path clip-path="url(#p533a4c1947)" d="M 83.303409 254.785019 
L 83.303409 288.786402 
L 92.500719 285.933952 
L 101.698029 250.727871 
L 110.895339 205.882888 
L 120.092648 192.28781 
L 129.289958 153.852159 
L 138.487268 168.652159 
L 147.684578 157.485337 
L 156.881888 131.637624 
L 166.079198 104.651986 
L 175.276507 136.912729 
L 184.473817 109.287669 
L 193.671127 115.315278 
L 202.868437 114.683151 
L 212.065747 111.227136 
L 221.263057 104.812039 
L 230.460366 104.371444 
L 239.657676 98.178892 
L 248.854986 101.992288 
L 258.052296 105.559557 
L 267.249606 113.328471 
L 276.446916 121.467576 
L 285.644225 97.576124 
L 294.841535 100.951256 
L 304.038845 100.74705 
L 313.236155 101.075813 
L 322.433465 100.472711 
L 331.630775 100.283475 
L 340.828084 92.668466 
L 350.025394 93.427816 
L 359.222704 98.987489 
L 368.420014 86.531756 
L 377.617324 93.03201 
L 386.814634 91.829372 
L 396.011943 80.827051 
L 405.209253 86.333059 
L 414.406563 92.76438 
L 423.603873 85.138017 
L 432.801183 83.566769 
L 441.998493 86.713363 
L 451.195802 80.62082 
L 460.393112 94.262614 
L 469.590422 91.952056 
L 478.787732 83.204277 
L 487.985042 90.753413 
L 497.182352 80.774646 
L 506.379661 87.128485 
L 515.576971 82.95296 
L 524.774281 82.696807 
L 533.971591 91.472518 
L 533.971591 72.617994 
L 533.971591 72.617994 
L 524.774281 72.611769 
L 515.576971 72.862267 
L 506.379661 76.455377 
L 497.182352 71.831797 
L 487.985042 75.363699 
L 478.787732 74.299783 
L 469.590422 79.569323 
L 460.393112 76.920998 
L 451.195802 77.389891 
L 441.998493 75.012781 
L 432.801183 79.003792 
L 423.603873 75.912594 
L 414.406563 81.29025 
L 405.209253 76.068618 
L 396.011943 76.508126 
L 386.814634 75.80769 
L 377.617324 73.929518 
L 368.420014 80.092006 
L 359.222704 80.809175 
L 350.025394 83.835598 
L 340.828084 80.541747 
L 331.630775 82.215323 
L 322.433465 83.71492 
L 313.236155 88.009435 
L 304.038845 78.880731 
L 294.841535 83.405258 
L 285.644225 86.442624 
L 276.446916 97.003377 
L 267.249606 89.098564 
L 258.052296 89.098843 
L 248.854986 87.937377 
L 239.657676 87.359807 
L 230.460366 90.962489 
L 221.263057 99.134945 
L 212.065747 91.875432 
L 202.868437 92.134851 
L 193.671127 96.400341 
L 184.473817 92.294948 
L 175.276507 96.588843 
L 166.079198 101.659365 
L 156.881888 104.059432 
L 147.684578 110.637324 
L 138.487268 119.905388 
L 129.289958 120.519187 
L 120.092648 131.228593 
L 110.895339 180.795892 
L 101.698029 199.957702 
L 92.500719 229.433948 
L 83.303409 254.785019 
z
" style="fill:#1f77b4;fill-opacity:0.5;"/>
   </g>
   <g id="PolyCollection_2">
    <path clip-path="url(#p533a4c1947)" d="M 83.303409 253.721223 
L 83.303409 329.368904 
L 92.500719 361.481909 
L 101.698029 350.180233 
L 110.895339 316.84538 
L 120.092648 344.732014 
L 129.289958 304.686888 
L 138.487268 305.171506 
L 147.684578 255.487865 
L 156.881888 310.625305 
L 166.079198 254.291251 
L 175.276507 285.93252 
L 184.473817 239.620871 
L 193.671127 305.732762 
L 202.868437 220.268351 
L 212.065747 244.340234 
L 221.263057 210.510388 
L 230.460366 207.801789 
L 239.657676 225.60223 
L 248.854986 193.730874 
L 258.052296 291.431435 
L 267.249606 279.637165 
L 276.446916 227.651092 
L 285.644225 218.630451 
L 294.841535 223.805555 
L 304.038845 190.15242 
L 313.236155 206.169535 
L 322.433465 197.822711 
L 331.630775 235.483293 
L 340.828084 191.561806 
L 350.025394 232.166385 
L 359.222704 188.649178 
L 368.420014 187.489491 
L 377.617324 197.31961 
L 386.814634 193.642787 
L 396.011943 191.46806 
L 405.209253 193.492222 
L 414.406563 202.353263 
L 423.603873 187.204283 
L 432.801183 213.281919 
L 441.998493 176.352713 
L 451.195802 174.196995 
L 460.393112 224.535319 
L 469.590422 223.288161 
L 478.787732 181.508503 
L 487.985042 186.662832 
L 497.182352 170.416889 
L 506.379661 169.023536 
L 515.576971 250.053291 
L 524.774281 228.26962 
L 533.971591 211.317183 
L 533.971591 157.966611 
L 533.971591 157.966611 
L 524.774281 137.129856 
L 515.576971 126.661371 
L 506.379661 158.377185 
L 497.182352 150.059613 
L 487.985042 158.977291 
L 478.787732 162.61167 
L 469.590422 171.159254 
L 460.393112 151.166043 
L 451.195802 154.048142 
L 441.998493 150.203591 
L 432.801183 170.86361 
L 423.603873 166.373358 
L 414.406563 162.032913 
L 405.209253 159.747653 
L 396.011943 150.625513 
L 386.814634 148.450786 
L 377.617324 146.293913 
L 368.420014 156.461798 
L 359.222704 157.328712 
L 350.025394 164.30763 
L 340.828084 166.74457 
L 331.630775 174.670274 
L 322.433465 181.594084 
L 313.236155 169.025176 
L 304.038845 170.518322 
L 294.841535 154.09129 
L 285.644225 184.261131 
L 276.446916 169.836223 
L 267.249606 169.697341 
L 258.052296 158.071955 
L 248.854986 177.748404 
L 239.657676 178.978186 
L 230.460366 179.721407 
L 221.263057 167.217574 
L 212.065747 185.234919 
L 202.868437 192.418466 
L 193.671127 196.124469 
L 184.473817 151.448876 
L 175.276507 190.76109 
L 166.079198 194.536605 
L 156.881888 181.098924 
L 147.684578 196.211008 
L 138.487268 184.526123 
L 129.289958 181.970841 
L 120.092648 264.028384 
L 110.895339 208.993288 
L 101.698029 320.222591 
L 92.500719 242.211989 
L 83.303409 253.721223 
z
" style="fill:#ff7f0e;fill-opacity:0.5;"/>
   </g>
   <g id="PolyCollection_3">
    <path clip-path="url(#p533a4c1947)" d="M 83.303409 288.015328 
L 83.303409 322.771671 
L 92.500719 259.174507 
L 101.698029 213.3639 
L 110.895339 199.757848 
L 120.092648 193.515959 
L 129.289958 165.660906 
L 138.487268 140.404198 
L 147.684578 159.008134 
L 156.881888 140.315265 
L 166.079198 125.468863 
L 175.276507 134.186608 
L 184.473817 109.678994 
L 193.671127 113.438347 
L 202.868437 125.333045 
L 212.065747 119.319289 
L 221.263057 112.130683 
L 230.460366 102.467955 
L 239.657676 100.63404 
L 248.854986 125.14889 
L 258.052296 115.718088 
L 267.249606 94.530193 
L 276.446916 93.672126 
L 285.644225 96.086134 
L 294.841535 108.487672 
L 304.038845 91.675309 
L 313.236155 94.339067 
L 322.433465 85.814779 
L 331.630775 89.119653 
L 340.828084 91.208183 
L 350.025394 89.993872 
L 359.222704 97.748924 
L 368.420014 92.111243 
L 377.617324 87.59049 
L 386.814634 90.996074 
L 396.011943 88.941045 
L 405.209253 93.270105 
L 414.406563 89.075705 
L 423.603873 84.508114 
L 432.801183 80.045086 
L 441.998493 86.55637 
L 451.195802 93.754724 
L 460.393112 82.66743 
L 469.590422 92.632665 
L 478.787732 82.86464 
L 487.985042 89.269156 
L 497.182352 81.677176 
L 506.379661 87.306964 
L 515.576971 82.880034 
L 524.774281 85.15994 
L 533.971591 80.322915 
L 533.971591 73.972362 
L 533.971591 73.972362 
L 524.774281 73.357421 
L 515.576971 73.27296 
L 506.379661 76.445781 
L 497.182352 75.826885 
L 487.985042 72.456989 
L 478.787732 75.483838 
L 469.590422 71.12008 
L 460.393112 74.836631 
L 451.195802 75.908938 
L 441.998493 77.534141 
L 432.801183 75.432374 
L 423.603873 76.373614 
L 414.406563 79.23689 
L 405.209253 78.757924 
L 396.011943 77.682717 
L 386.814634 80.863072 
L 377.617324 80.722105 
L 368.420014 79.410136 
L 359.222704 83.398807 
L 350.025394 80.345324 
L 340.828084 78.793246 
L 331.630775 81.895076 
L 322.433465 81.14675 
L 313.236155 85.11983 
L 304.038845 82.041554 
L 294.841535 90.899461 
L 285.644225 86.074897 
L 276.446916 81.395804 
L 267.249606 83.070987 
L 258.052296 82.655746 
L 248.854986 87.580029 
L 239.657676 88.957859 
L 230.460366 84.92846 
L 221.263057 89.114167 
L 212.065747 102.698215 
L 202.868437 91.786841 
L 193.671127 96.757321 
L 184.473817 93.930224 
L 175.276507 102.017098 
L 166.079198 104.317276 
L 156.881888 106.359209 
L 147.684578 108.77676 
L 138.487268 98.670526 
L 129.289958 124.923242 
L 120.092648 129.493794 
L 110.895339 159.730711 
L 101.698029 168.75503 
L 92.500719 207.048336 
L 83.303409 288.015328 
z
" style="fill:#2ca02c;fill-opacity:0.5;"/>
   </g>
   <g id="PolyCollection_4">
    <path clip-path="url(#p533a4c1947)" d="M 83.303409 234.880886 
L 83.303409 314.793136 
L 92.500719 295.12443 
L 101.698029 265.407588 
L 110.895339 250.04812 
L 120.092648 240.849996 
L 129.289958 230.152822 
L 138.487268 214.250999 
L 147.684578 207.658726 
L 156.881888 194.634024 
L 166.079198 185.880341 
L 175.276507 182.779024 
L 184.473817 169.171804 
L 193.671127 169.61621 
L 202.868437 170.978723 
L 212.065747 165.4336 
L 221.263057 161.733374 
L 230.460366 160.995531 
L 239.657676 156.872038 
L 248.854986 159.168099 
L 258.052296 159.228168 
L 267.249606 155.884284 
L 276.446916 154.429546 
L 285.644225 154.651308 
L 294.841535 153.131558 
L 304.038845 151.543313 
L 313.236155 150.146466 
L 322.433465 150.4038 
L 331.630775 149.599424 
L 340.828084 149.617983 
L 350.025394 147.985572 
L 359.222704 146.900021 
L 368.420014 148.169255 
L 377.617324 146.29891 
L 386.814634 147.320662 
L 396.011943 146.271992 
L 405.209253 144.739193 
L 414.406563 145.282142 
L 423.603873 146.127524 
L 432.801183 145.009449 
L 441.998493 144.898619 
L 451.195802 144.881201 
L 460.393112 144.655638 
L 469.590422 145.02942 
L 478.787732 142.970928 
L 487.985042 144.240293 
L 497.182352 142.865862 
L 506.379661 143.321272 
L 515.576971 143.950726 
L 524.774281 142.887381 
L 533.971591 142.975072 
L 533.971591 119.823879 
L 533.971591 119.823879 
L 524.774281 119.377898 
L 515.576971 120.355847 
L 506.379661 120.371578 
L 497.182352 120.813647 
L 487.985042 121.000205 
L 478.787732 121.322303 
L 469.590422 122.99951 
L 460.393112 122.572786 
L 451.195802 122.147096 
L 441.998493 123.570591 
L 432.801183 122.205633 
L 423.603873 123.062143 
L 414.406563 123.066992 
L 405.209253 123.463182 
L 396.011943 124.278537 
L 386.814634 126.311819 
L 377.617324 125.318962 
L 368.420014 126.623961 
L 359.222704 125.598408 
L 350.025394 127.087821 
L 340.828084 128.21716 
L 331.630775 128.609289 
L 322.433465 129.232484 
L 313.236155 128.262374 
L 304.038845 129.146973 
L 294.841535 130.694047 
L 285.644225 130.561843 
L 276.446916 132.437986 
L 267.249606 132.957832 
L 258.052296 131.214962 
L 248.854986 132.876046 
L 239.657676 131.743268 
L 230.460366 134.46411 
L 221.263057 134.927028 
L 212.065747 137.510783 
L 202.868437 137.902755 
L 193.671127 138.718254 
L 184.473817 141.764309 
L 175.276507 140.685025 
L 166.079198 141.759688 
L 156.881888 144.226446 
L 147.684578 148.052419 
L 138.487268 153.027474 
L 129.289958 156.391188 
L 120.092648 159.169219 
L 110.895339 163.686449 
L 101.698029 178.639518 
L 92.500719 213.683702 
L 83.303409 234.880886 
z
" style="fill:#d62728;fill-opacity:0.5;"/>
   </g>
   <g id="matplotlib.axis_1">
    <g id="xtick_1">
     <g id="line2d_1">
      <defs>
       <path d="M 0 0 
L 0 3.5 
" id="mc4b2804f63" style="stroke:#000000;stroke-width:0.8;"/>
      </defs>
      <g>
       <use style="stroke:#000000;stroke-width:0.8;" x="83.303409" xlink:href="#mc4b2804f63" y="376"/>
      </g>
     </g>
     <g id="text_1">
      <!-- 0 -->
      <g transform="translate(78.531534 394.397656)scale(0.15 -0.15)">
       <defs>
        <path d="M 2034 4250 
Q 1547 4250 1301 3770 
Q 1056 3291 1056 2328 
Q 1056 1369 1301 889 
Q 1547 409 2034 409 
Q 2525 409 2770 889 
Q 3016 1369 3016 2328 
Q 3016 3291 2770 3770 
Q 2525 4250 2034 4250 
z
M 2034 4750 
Q 2819 4750 3233 4129 
Q 3647 3509 3647 2328 
Q 3647 1150 3233 529 
Q 2819 -91 2034 -91 
Q 1250 -91 836 529 
Q 422 1150 422 2328 
Q 422 3509 836 4129 
Q 1250 4750 2034 4750 
z
" id="DejaVuSans-30" transform="scale(0.015625)"/>
       </defs>
       <use xlink:href="#DejaVuSans-30"/>
      </g>
     </g>
    </g>
    <g id="xtick_2">
     <g id="line2d_2">
      <g>
       <use style="stroke:#000000;stroke-width:0.8;" x="175.276507" xlink:href="#mc4b2804f63" y="376"/>
      </g>
     </g>
     <g id="text_2">
      <!-- 10 -->
      <g transform="translate(165.732757 394.397656)scale(0.15 -0.15)">
       <defs>
        <path d="M 794 531 
L 1825 531 
L 1825 4091 
L 703 3866 
L 703 4441 
L 1819 4666 
L 2450 4666 
L 2450 531 
L 3481 531 
L 3481 0 
L 794 0 
L 794 531 
z
" id="DejaVuSans-31" transform="scale(0.015625)"/>
       </defs>
       <use xlink:href="#DejaVuSans-31"/>
       <use x="63.623047" xlink:href="#DejaVuSans-30"/>
      </g>
     </g>
    </g>
    <g id="xtick_3">
     <g id="line2d_3">
      <g>
       <use style="stroke:#000000;stroke-width:0.8;" x="267.249606" xlink:href="#mc4b2804f63" y="376"/>
      </g>
     </g>
     <g id="text_3">
      <!-- 20 -->
      <g transform="translate(257.705856 394.397656)scale(0.15 -0.15)">
       <defs>
        <path d="M 1228 531 
L 3431 531 
L 3431 0 
L 469 0 
L 469 531 
Q 828 903 1448 1529 
Q 2069 2156 2228 2338 
Q 2531 2678 2651 2914 
Q 2772 3150 2772 3378 
Q 2772 3750 2511 3984 
Q 2250 4219 1831 4219 
Q 1534 4219 1204 4116 
Q 875 4013 500 3803 
L 500 4441 
Q 881 4594 1212 4672 
Q 1544 4750 1819 4750 
Q 2544 4750 2975 4387 
Q 3406 4025 3406 3419 
Q 3406 3131 3298 2873 
Q 3191 2616 2906 2266 
Q 2828 2175 2409 1742 
Q 1991 1309 1228 531 
z
" id="DejaVuSans-32" transform="scale(0.015625)"/>
       </defs>
       <use xlink:href="#DejaVuSans-32"/>
       <use x="63.623047" xlink:href="#DejaVuSans-30"/>
      </g>
     </g>
    </g>
    <g id="xtick_4">
     <g id="line2d_4">
      <g>
       <use style="stroke:#000000;stroke-width:0.8;" x="359.222704" xlink:href="#mc4b2804f63" y="376"/>
      </g>
     </g>
     <g id="text_4">
      <!-- 30 -->
      <g transform="translate(349.678954 394.397656)scale(0.15 -0.15)">
       <defs>
        <path d="M 2597 2516 
Q 3050 2419 3304 2112 
Q 3559 1806 3559 1356 
Q 3559 666 3084 287 
Q 2609 -91 1734 -91 
Q 1441 -91 1130 -33 
Q 819 25 488 141 
L 488 750 
Q 750 597 1062 519 
Q 1375 441 1716 441 
Q 2309 441 2620 675 
Q 2931 909 2931 1356 
Q 2931 1769 2642 2001 
Q 2353 2234 1838 2234 
L 1294 2234 
L 1294 2753 
L 1863 2753 
Q 2328 2753 2575 2939 
Q 2822 3125 2822 3475 
Q 2822 3834 2567 4026 
Q 2313 4219 1838 4219 
Q 1578 4219 1281 4162 
Q 984 4106 628 3988 
L 628 4550 
Q 988 4650 1302 4700 
Q 1616 4750 1894 4750 
Q 2613 4750 3031 4423 
Q 3450 4097 3450 3541 
Q 3450 3153 3228 2886 
Q 3006 2619 2597 2516 
z
" id="DejaVuSans-33" transform="scale(0.015625)"/>
       </defs>
       <use xlink:href="#DejaVuSans-33"/>
       <use x="63.623047" xlink:href="#DejaVuSans-30"/>
      </g>
     </g>
    </g>
    <g id="xtick_5">
     <g id="line2d_5">
      <g>
       <use style="stroke:#000000;stroke-width:0.8;" x="451.195802" xlink:href="#mc4b2804f63" y="376"/>
      </g>
     </g>
     <g id="text_5">
      <!-- 40 -->
      <g transform="translate(441.652052 394.397656)scale(0.15 -0.15)">
       <defs>
        <path d="M 2419 4116 
L 825 1625 
L 2419 1625 
L 2419 4116 
z
M 2253 4666 
L 3047 4666 
L 3047 1625 
L 3713 1625 
L 3713 1100 
L 3047 1100 
L 3047 0 
L 2419 0 
L 2419 1100 
L 313 1100 
L 313 1709 
L 2253 4666 
z
" id="DejaVuSans-34" transform="scale(0.015625)"/>
       </defs>
       <use xlink:href="#DejaVuSans-34"/>
       <use x="63.623047" xlink:href="#DejaVuSans-30"/>
      </g>
     </g>
    </g>
    <g id="xtick_6">
     <g id="line2d_6">
      <g>
       <use style="stroke:#000000;stroke-width:0.8;" x="543.168901" xlink:href="#mc4b2804f63" y="376"/>
      </g>
     </g>
     <g id="text_6">
      <!-- 50 -->
      <g transform="translate(533.625151 394.397656)scale(0.15 -0.15)">
       <defs>
        <path d="M 691 4666 
L 3169 4666 
L 3169 4134 
L 1269 4134 
L 1269 2991 
Q 1406 3038 1543 3061 
Q 1681 3084 1819 3084 
Q 2600 3084 3056 2656 
Q 3513 2228 3513 1497 
Q 3513 744 3044 326 
Q 2575 -91 1722 -91 
Q 1428 -91 1123 -41 
Q 819 9 494 109 
L 494 744 
Q 775 591 1075 516 
Q 1375 441 1709 441 
Q 2250 441 2565 725 
Q 2881 1009 2881 1497 
Q 2881 1984 2565 2268 
Q 2250 2553 1709 2553 
Q 1456 2553 1204 2497 
Q 953 2441 691 2322 
L 691 4666 
z
" id="DejaVuSans-35" transform="scale(0.015625)"/>
       </defs>
       <use xlink:href="#DejaVuSans-35"/>
       <use x="63.623047" xlink:href="#DejaVuSans-30"/>
      </g>
     </g>
    </g>
    <g id="text_7">
     <!-- Global Communication Rounds -->
     <g transform="translate(193.194922 412.914844)scale(0.15 -0.15)">
      <defs>
       <path d="M 3809 666 
L 3809 1919 
L 2778 1919 
L 2778 2438 
L 4434 2438 
L 4434 434 
Q 4069 175 3628 42 
Q 3188 -91 2688 -91 
Q 1594 -91 976 548 
Q 359 1188 359 2328 
Q 359 3472 976 4111 
Q 1594 4750 2688 4750 
Q 3144 4750 3555 4637 
Q 3966 4525 4313 4306 
L 4313 3634 
Q 3963 3931 3569 4081 
Q 3175 4231 2741 4231 
Q 1884 4231 1454 3753 
Q 1025 3275 1025 2328 
Q 1025 1384 1454 906 
Q 1884 428 2741 428 
Q 3075 428 3337 486 
Q 3600 544 3809 666 
z
" id="DejaVuSans-47" transform="scale(0.015625)"/>
       <path d="M 603 4863 
L 1178 4863 
L 1178 0 
L 603 0 
L 603 4863 
z
" id="DejaVuSans-6c" transform="scale(0.015625)"/>
       <path d="M 1959 3097 
Q 1497 3097 1228 2736 
Q 959 2375 959 1747 
Q 959 1119 1226 758 
Q 1494 397 1959 397 
Q 2419 397 2687 759 
Q 2956 1122 2956 1747 
Q 2956 2369 2687 2733 
Q 2419 3097 1959 3097 
z
M 1959 3584 
Q 2709 3584 3137 3096 
Q 3566 2609 3566 1747 
Q 3566 888 3137 398 
Q 2709 -91 1959 -91 
Q 1206 -91 779 398 
Q 353 888 353 1747 
Q 353 2609 779 3096 
Q 1206 3584 1959 3584 
z
" id="DejaVuSans-6f" transform="scale(0.015625)"/>
       <path d="M 3116 1747 
Q 3116 2381 2855 2742 
Q 2594 3103 2138 3103 
Q 1681 3103 1420 2742 
Q 1159 2381 1159 1747 
Q 1159 1113 1420 752 
Q 1681 391 2138 391 
Q 2594 391 2855 752 
Q 3116 1113 3116 1747 
z
M 1159 2969 
Q 1341 3281 1617 3432 
Q 1894 3584 2278 3584 
Q 2916 3584 3314 3078 
Q 3713 2572 3713 1747 
Q 3713 922 3314 415 
Q 2916 -91 2278 -91 
Q 1894 -91 1617 61 
Q 1341 213 1159 525 
L 1159 0 
L 581 0 
L 581 4863 
L 1159 4863 
L 1159 2969 
z
" id="DejaVuSans-62" transform="scale(0.015625)"/>
       <path d="M 2194 1759 
Q 1497 1759 1228 1600 
Q 959 1441 959 1056 
Q 959 750 1161 570 
Q 1363 391 1709 391 
Q 2188 391 2477 730 
Q 2766 1069 2766 1631 
L 2766 1759 
L 2194 1759 
z
M 3341 1997 
L 3341 0 
L 2766 0 
L 2766 531 
Q 2569 213 2275 61 
Q 1981 -91 1556 -91 
Q 1019 -91 701 211 
Q 384 513 384 1019 
Q 384 1609 779 1909 
Q 1175 2209 1959 2209 
L 2766 2209 
L 2766 2266 
Q 2766 2663 2505 2880 
Q 2244 3097 1772 3097 
Q 1472 3097 1187 3025 
Q 903 2953 641 2809 
L 641 3341 
Q 956 3463 1253 3523 
Q 1550 3584 1831 3584 
Q 2591 3584 2966 3190 
Q 3341 2797 3341 1997 
z
" id="DejaVuSans-61" transform="scale(0.015625)"/>
       <path id="DejaVuSans-20" transform="scale(0.015625)"/>
       <path d="M 4122 4306 
L 4122 3641 
Q 3803 3938 3442 4084 
Q 3081 4231 2675 4231 
Q 1875 4231 1450 3742 
Q 1025 3253 1025 2328 
Q 1025 1406 1450 917 
Q 1875 428 2675 428 
Q 3081 428 3442 575 
Q 3803 722 4122 1019 
L 4122 359 
Q 3791 134 3420 21 
Q 3050 -91 2638 -91 
Q 1578 -91 968 557 
Q 359 1206 359 2328 
Q 359 3453 968 4101 
Q 1578 4750 2638 4750 
Q 3056 4750 3426 4639 
Q 3797 4528 4122 4306 
z
" id="DejaVuSans-43" transform="scale(0.015625)"/>
       <path d="M 3328 2828 
Q 3544 3216 3844 3400 
Q 4144 3584 4550 3584 
Q 5097 3584 5394 3201 
Q 5691 2819 5691 2113 
L 5691 0 
L 5113 0 
L 5113 2094 
Q 5113 2597 4934 2840 
Q 4756 3084 4391 3084 
Q 3944 3084 3684 2787 
Q 3425 2491 3425 1978 
L 3425 0 
L 2847 0 
L 2847 2094 
Q 2847 2600 2669 2842 
Q 2491 3084 2119 3084 
Q 1678 3084 1418 2786 
Q 1159 2488 1159 1978 
L 1159 0 
L 581 0 
L 581 3500 
L 1159 3500 
L 1159 2956 
Q 1356 3278 1631 3431 
Q 1906 3584 2284 3584 
Q 2666 3584 2933 3390 
Q 3200 3197 3328 2828 
z
" id="DejaVuSans-6d" transform="scale(0.015625)"/>
       <path d="M 544 1381 
L 544 3500 
L 1119 3500 
L 1119 1403 
Q 1119 906 1312 657 
Q 1506 409 1894 409 
Q 2359 409 2629 706 
Q 2900 1003 2900 1516 
L 2900 3500 
L 3475 3500 
L 3475 0 
L 2900 0 
L 2900 538 
Q 2691 219 2414 64 
Q 2138 -91 1772 -91 
Q 1169 -91 856 284 
Q 544 659 544 1381 
z
M 1991 3584 
L 1991 3584 
z
" id="DejaVuSans-75" transform="scale(0.015625)"/>
       <path d="M 3513 2113 
L 3513 0 
L 2938 0 
L 2938 2094 
Q 2938 2591 2744 2837 
Q 2550 3084 2163 3084 
Q 1697 3084 1428 2787 
Q 1159 2491 1159 1978 
L 1159 0 
L 581 0 
L 581 3500 
L 1159 3500 
L 1159 2956 
Q 1366 3272 1645 3428 
Q 1925 3584 2291 3584 
Q 2894 3584 3203 3211 
Q 3513 2838 3513 2113 
z
" id="DejaVuSans-6e" transform="scale(0.015625)"/>
       <path d="M 603 3500 
L 1178 3500 
L 1178 0 
L 603 0 
L 603 3500 
z
M 603 4863 
L 1178 4863 
L 1178 4134 
L 603 4134 
L 603 4863 
z
" id="DejaVuSans-69" transform="scale(0.015625)"/>
       <path d="M 3122 3366 
L 3122 2828 
Q 2878 2963 2633 3030 
Q 2388 3097 2138 3097 
Q 1578 3097 1268 2742 
Q 959 2388 959 1747 
Q 959 1106 1268 751 
Q 1578 397 2138 397 
Q 2388 397 2633 464 
Q 2878 531 3122 666 
L 3122 134 
Q 2881 22 2623 -34 
Q 2366 -91 2075 -91 
Q 1284 -91 818 406 
Q 353 903 353 1747 
Q 353 2603 823 3093 
Q 1294 3584 2113 3584 
Q 2378 3584 2631 3529 
Q 2884 3475 3122 3366 
z
" id="DejaVuSans-63" transform="scale(0.015625)"/>
       <path d="M 1172 4494 
L 1172 3500 
L 2356 3500 
L 2356 3053 
L 1172 3053 
L 1172 1153 
Q 1172 725 1289 603 
Q 1406 481 1766 481 
L 2356 481 
L 2356 0 
L 1766 0 
Q 1100 0 847 248 
Q 594 497 594 1153 
L 594 3053 
L 172 3053 
L 172 3500 
L 594 3500 
L 594 4494 
L 1172 4494 
z
" id="DejaVuSans-74" transform="scale(0.015625)"/>
       <path d="M 2841 2188 
Q 3044 2119 3236 1894 
Q 3428 1669 3622 1275 
L 4263 0 
L 3584 0 
L 2988 1197 
Q 2756 1666 2539 1819 
Q 2322 1972 1947 1972 
L 1259 1972 
L 1259 0 
L 628 0 
L 628 4666 
L 2053 4666 
Q 2853 4666 3247 4331 
Q 3641 3997 3641 3322 
Q 3641 2881 3436 2590 
Q 3231 2300 2841 2188 
z
M 1259 4147 
L 1259 2491 
L 2053 2491 
Q 2509 2491 2742 2702 
Q 2975 2913 2975 3322 
Q 2975 3731 2742 3939 
Q 2509 4147 2053 4147 
L 1259 4147 
z
" id="DejaVuSans-52" transform="scale(0.015625)"/>
       <path d="M 2906 2969 
L 2906 4863 
L 3481 4863 
L 3481 0 
L 2906 0 
L 2906 525 
Q 2725 213 2448 61 
Q 2172 -91 1784 -91 
Q 1150 -91 751 415 
Q 353 922 353 1747 
Q 353 2572 751 3078 
Q 1150 3584 1784 3584 
Q 2172 3584 2448 3432 
Q 2725 3281 2906 2969 
z
M 947 1747 
Q 947 1113 1208 752 
Q 1469 391 1925 391 
Q 2381 391 2643 752 
Q 2906 1113 2906 1747 
Q 2906 2381 2643 2742 
Q 2381 3103 1925 3103 
Q 1469 3103 1208 2742 
Q 947 2381 947 1747 
z
" id="DejaVuSans-64" transform="scale(0.015625)"/>
       <path d="M 2834 3397 
L 2834 2853 
Q 2591 2978 2328 3040 
Q 2066 3103 1784 3103 
Q 1356 3103 1142 2972 
Q 928 2841 928 2578 
Q 928 2378 1081 2264 
Q 1234 2150 1697 2047 
L 1894 2003 
Q 2506 1872 2764 1633 
Q 3022 1394 3022 966 
Q 3022 478 2636 193 
Q 2250 -91 1575 -91 
Q 1294 -91 989 -36 
Q 684 19 347 128 
L 347 722 
Q 666 556 975 473 
Q 1284 391 1588 391 
Q 1994 391 2212 530 
Q 2431 669 2431 922 
Q 2431 1156 2273 1281 
Q 2116 1406 1581 1522 
L 1381 1569 
Q 847 1681 609 1914 
Q 372 2147 372 2553 
Q 372 3047 722 3315 
Q 1072 3584 1716 3584 
Q 2034 3584 2315 3537 
Q 2597 3491 2834 3397 
z
" id="DejaVuSans-73" transform="scale(0.015625)"/>
      </defs>
      <use xlink:href="#DejaVuSans-47"/>
      <use x="77.490234" xlink:href="#DejaVuSans-6c"/>
      <use x="105.273438" xlink:href="#DejaVuSans-6f"/>
      <use x="166.455078" xlink:href="#DejaVuSans-62"/>
      <use x="229.931641" xlink:href="#DejaVuSans-61"/>
      <use x="291.210938" xlink:href="#DejaVuSans-6c"/>
      <use x="318.994141" xlink:href="#DejaVuSans-20"/>
      <use x="350.78125" xlink:href="#DejaVuSans-43"/>
      <use x="420.605469" xlink:href="#DejaVuSans-6f"/>
      <use x="481.787109" xlink:href="#DejaVuSans-6d"/>
      <use x="579.199219" xlink:href="#DejaVuSans-6d"/>
      <use x="676.611328" xlink:href="#DejaVuSans-75"/>
      <use x="739.990234" xlink:href="#DejaVuSans-6e"/>
      <use x="803.369141" xlink:href="#DejaVuSans-69"/>
      <use x="831.152344" xlink:href="#DejaVuSans-63"/>
      <use x="886.132812" xlink:href="#DejaVuSans-61"/>
      <use x="947.412109" xlink:href="#DejaVuSans-74"/>
      <use x="986.621094" xlink:href="#DejaVuSans-69"/>
      <use x="1014.404297" xlink:href="#DejaVuSans-6f"/>
      <use x="1075.585938" xlink:href="#DejaVuSans-6e"/>
      <use x="1138.964844" xlink:href="#DejaVuSans-20"/>
      <use x="1170.751953" xlink:href="#DejaVuSans-52"/>
      <use x="1235.734375" xlink:href="#DejaVuSans-6f"/>
      <use x="1296.916016" xlink:href="#DejaVuSans-75"/>
      <use x="1360.294922" xlink:href="#DejaVuSans-6e"/>
      <use x="1423.673828" xlink:href="#DejaVuSans-64"/>
      <use x="1487.150391" xlink:href="#DejaVuSans-73"/>
     </g>
    </g>
   </g>
   <g id="matplotlib.axis_2">
    <g id="ytick_1">
     <g id="line2d_7">
      <defs>
       <path d="M 0 0 
L -3.5 0 
" id="m47b38f3776" style="stroke:#000000;stroke-width:0.8;"/>
      </defs>
      <g>
       <use style="stroke:#000000;stroke-width:0.8;" x="60.77" xlink:href="#m47b38f3776" y="321.099652"/>
      </g>
     </g>
     <g id="text_8">
      <!-- 20 -->
      <g transform="translate(34.6825 326.79848)scale(0.15 -0.15)">
       <use xlink:href="#DejaVuSans-32"/>
       <use x="63.623047" xlink:href="#DejaVuSans-30"/>
      </g>
     </g>
    </g>
    <g id="ytick_2">
     <g id="line2d_8">
      <g>
       <use style="stroke:#000000;stroke-width:0.8;" x="60.77" xlink:href="#m47b38f3776" y="254.390725"/>
      </g>
     </g>
     <g id="text_9">
      <!-- 40 -->
      <g transform="translate(34.6825 260.089553)scale(0.15 -0.15)">
       <use xlink:href="#DejaVuSans-34"/>
       <use x="63.623047" xlink:href="#DejaVuSans-30"/>
      </g>
     </g>
    </g>
    <g id="ytick_3">
     <g id="line2d_9">
      <g>
       <use style="stroke:#000000;stroke-width:0.8;" x="60.77" xlink:href="#m47b38f3776" y="187.681797"/>
      </g>
     </g>
     <g id="text_10">
      <!-- 60 -->
      <g transform="translate(34.6825 193.380625)scale(0.15 -0.15)">
       <defs>
        <path d="M 2113 2584 
Q 1688 2584 1439 2293 
Q 1191 2003 1191 1497 
Q 1191 994 1439 701 
Q 1688 409 2113 409 
Q 2538 409 2786 701 
Q 3034 994 3034 1497 
Q 3034 2003 2786 2293 
Q 2538 2584 2113 2584 
z
M 3366 4563 
L 3366 3988 
Q 3128 4100 2886 4159 
Q 2644 4219 2406 4219 
Q 1781 4219 1451 3797 
Q 1122 3375 1075 2522 
Q 1259 2794 1537 2939 
Q 1816 3084 2150 3084 
Q 2853 3084 3261 2657 
Q 3669 2231 3669 1497 
Q 3669 778 3244 343 
Q 2819 -91 2113 -91 
Q 1303 -91 875 529 
Q 447 1150 447 2328 
Q 447 3434 972 4092 
Q 1497 4750 2381 4750 
Q 2619 4750 2861 4703 
Q 3103 4656 3366 4563 
z
" id="DejaVuSans-36" transform="scale(0.015625)"/>
       </defs>
       <use xlink:href="#DejaVuSans-36"/>
       <use x="63.623047" xlink:href="#DejaVuSans-30"/>
      </g>
     </g>
    </g>
    <g id="ytick_4">
     <g id="line2d_10">
      <g>
       <use style="stroke:#000000;stroke-width:0.8;" x="60.77" xlink:href="#m47b38f3776" y="120.97287"/>
      </g>
     </g>
     <g id="text_11">
      <!-- 80 -->
      <g transform="translate(34.6825 126.671698)scale(0.15 -0.15)">
       <defs>
        <path d="M 2034 2216 
Q 1584 2216 1326 1975 
Q 1069 1734 1069 1313 
Q 1069 891 1326 650 
Q 1584 409 2034 409 
Q 2484 409 2743 651 
Q 3003 894 3003 1313 
Q 3003 1734 2745 1975 
Q 2488 2216 2034 2216 
z
M 1403 2484 
Q 997 2584 770 2862 
Q 544 3141 544 3541 
Q 544 4100 942 4425 
Q 1341 4750 2034 4750 
Q 2731 4750 3128 4425 
Q 3525 4100 3525 3541 
Q 3525 3141 3298 2862 
Q 3072 2584 2669 2484 
Q 3125 2378 3379 2068 
Q 3634 1759 3634 1313 
Q 3634 634 3220 271 
Q 2806 -91 2034 -91 
Q 1263 -91 848 271 
Q 434 634 434 1313 
Q 434 1759 690 2068 
Q 947 2378 1403 2484 
z
M 1172 3481 
Q 1172 3119 1398 2916 
Q 1625 2713 2034 2713 
Q 2441 2713 2670 2916 
Q 2900 3119 2900 3481 
Q 2900 3844 2670 4047 
Q 2441 4250 2034 4250 
Q 1625 4250 1398 4047 
Q 1172 3844 1172 3481 
z
" id="DejaVuSans-38" transform="scale(0.015625)"/>
       </defs>
       <use xlink:href="#DejaVuSans-38"/>
       <use x="63.623047" xlink:href="#DejaVuSans-30"/>
      </g>
     </g>
    </g>
    <g id="text_12">
     <!-- Test Accuracy -->
     <g transform="translate(27.562969 267.694744)rotate(-90)scale(0.15 -0.15)">
      <defs>
       <path d="M -19 4666 
L 3928 4666 
L 3928 4134 
L 2272 4134 
L 2272 0 
L 1638 0 
L 1638 4134 
L -19 4134 
L -19 4666 
z
" id="DejaVuSans-54" transform="scale(0.015625)"/>
       <path d="M 3597 1894 
L 3597 1613 
L 953 1613 
Q 991 1019 1311 708 
Q 1631 397 2203 397 
Q 2534 397 2845 478 
Q 3156 559 3463 722 
L 3463 178 
Q 3153 47 2828 -22 
Q 2503 -91 2169 -91 
Q 1331 -91 842 396 
Q 353 884 353 1716 
Q 353 2575 817 3079 
Q 1281 3584 2069 3584 
Q 2775 3584 3186 3129 
Q 3597 2675 3597 1894 
z
M 3022 2063 
Q 3016 2534 2758 2815 
Q 2500 3097 2075 3097 
Q 1594 3097 1305 2825 
Q 1016 2553 972 2059 
L 3022 2063 
z
" id="DejaVuSans-65" transform="scale(0.015625)"/>
       <path d="M 2188 4044 
L 1331 1722 
L 3047 1722 
L 2188 4044 
z
M 1831 4666 
L 2547 4666 
L 4325 0 
L 3669 0 
L 3244 1197 
L 1141 1197 
L 716 0 
L 50 0 
L 1831 4666 
z
" id="DejaVuSans-41" transform="scale(0.015625)"/>
       <path d="M 2631 2963 
Q 2534 3019 2420 3045 
Q 2306 3072 2169 3072 
Q 1681 3072 1420 2755 
Q 1159 2438 1159 1844 
L 1159 0 
L 581 0 
L 581 3500 
L 1159 3500 
L 1159 2956 
Q 1341 3275 1631 3429 
Q 1922 3584 2338 3584 
Q 2397 3584 2469 3576 
Q 2541 3569 2628 3553 
L 2631 2963 
z
" id="DejaVuSans-72" transform="scale(0.015625)"/>
       <path d="M 2059 -325 
Q 1816 -950 1584 -1140 
Q 1353 -1331 966 -1331 
L 506 -1331 
L 506 -850 
L 844 -850 
Q 1081 -850 1212 -737 
Q 1344 -625 1503 -206 
L 1606 56 
L 191 3500 
L 800 3500 
L 1894 763 
L 2988 3500 
L 3597 3500 
L 2059 -325 
z
" id="DejaVuSans-79" transform="scale(0.015625)"/>
      </defs>
      <use xlink:href="#DejaVuSans-54"/>
      <use x="44.083984" xlink:href="#DejaVuSans-65"/>
      <use x="105.607422" xlink:href="#DejaVuSans-73"/>
      <use x="157.707031" xlink:href="#DejaVuSans-74"/>
      <use x="196.916016" xlink:href="#DejaVuSans-20"/>
      <use x="228.703125" xlink:href="#DejaVuSans-41"/>
      <use x="295.361328" xlink:href="#DejaVuSans-63"/>
      <use x="350.341797" xlink:href="#DejaVuSans-63"/>
      <use x="405.322266" xlink:href="#DejaVuSans-75"/>
      <use x="468.701172" xlink:href="#DejaVuSans-72"/>
      <use x="509.814453" xlink:href="#DejaVuSans-61"/>
      <use x="571.09375" xlink:href="#DejaVuSans-63"/>
      <use x="626.074219" xlink:href="#DejaVuSans-79"/>
     </g>
    </g>
   </g>
   <g id="line2d_11">
    <path clip-path="url(#p533a4c1947)" d="M 83.303409 271.785711 
L 92.500719 257.68395 
L 101.698029 225.342787 
L 110.895339 193.33939 
L 120.092648 161.758202 
L 129.289958 137.185673 
L 138.487268 144.278774 
L 147.684578 134.061331 
L 156.881888 117.848528 
L 166.079198 103.155676 
L 175.276507 116.750786 
L 184.473817 100.791309 
L 193.671127 105.857809 
L 202.868437 103.409001 
L 212.065747 101.551284 
L 221.263057 101.973492 
L 230.460366 97.666967 
L 239.657676 92.769349 
L 248.854986 94.964833 
L 258.052296 97.3292 
L 267.249606 101.213517 
L 276.446916 109.235477 
L 285.644225 92.009374 
L 294.841535 92.178257 
L 304.038845 89.81389 
L 313.236155 94.542624 
L 322.433465 92.093816 
L 331.630775 91.249399 
L 340.828084 86.605106 
L 350.025394 88.631707 
L 359.222704 89.898332 
L 368.420014 83.311881 
L 377.617324 83.480764 
L 386.814634 83.818531 
L 396.011943 78.667589 
L 405.209253 81.200839 
L 414.406563 87.027315 
L 423.603873 80.525305 
L 432.801183 81.285281 
L 441.998493 80.863072 
L 451.195802 79.005355 
L 460.393112 85.591806 
L 469.590422 85.76069 
L 478.787732 78.75203 
L 487.985042 83.058556 
L 497.182352 76.303221 
L 506.379661 81.791931 
L 515.576971 77.907613 
L 524.774281 77.654288 
L 533.971591 82.045256 
" style="fill:none;stroke:#1f77b4;stroke-linecap:square;stroke-width:1.5;"/>
   </g>
   <g id="line2d_12">
    <path clip-path="url(#p533a4c1947)" d="M 83.303409 291.545064 
L 92.500719 301.846949 
L 101.698029 335.201412 
L 110.895339 262.919334 
L 120.092648 304.380199 
L 129.289958 243.328864 
L 138.487268 244.848815 
L 147.684578 225.849437 
L 156.881888 245.862115 
L 166.079198 224.413928 
L 175.276507 238.346805 
L 184.473817 195.534874 
L 193.671127 250.928616 
L 202.868437 206.343409 
L 212.065747 214.787577 
L 221.263057 188.863981 
L 230.460366 193.761598 
L 239.657676 202.290208 
L 248.854986 185.739639 
L 258.052296 224.751695 
L 267.249606 224.667253 
L 276.446916 198.743657 
L 285.644225 201.445791 
L 294.841535 188.948423 
L 304.038845 180.335371 
L 313.236155 187.597356 
L 322.433465 189.708398 
L 331.630775 205.076783 
L 340.828084 179.153188 
L 350.025394 198.237007 
L 359.222704 172.988945 
L 368.420014 171.975645 
L 377.617324 171.806762 
L 386.814634 171.046786 
L 396.011943 171.046786 
L 405.209253 176.619937 
L 414.406563 182.193088 
L 423.603873 176.788821 
L 432.801183 192.072765 
L 441.998493 163.278152 
L 451.195802 164.122569 
L 460.393112 187.850681 
L 469.590422 197.223707 
L 478.787732 172.060087 
L 487.985042 172.820062 
L 497.182352 160.238251 
L 506.379661 163.70036 
L 515.576971 188.357331 
L 524.774281 182.699738 
L 533.971591 184.641897 
" style="fill:none;stroke:#ff7f0e;stroke-linecap:square;stroke-width:1.5;"/>
   </g>
   <g id="line2d_13">
    <path clip-path="url(#p533a4c1947)" d="M 83.303409 305.393499 
L 92.500719 233.111421 
L 101.698029 191.059465 
L 110.895339 179.744279 
L 120.092648 161.504877 
L 129.289958 145.292074 
L 138.487268 119.537362 
L 147.684578 133.892447 
L 156.881888 123.337237 
L 166.079198 114.893069 
L 175.276507 118.101853 
L 184.473817 101.804609 
L 193.671127 105.097834 
L 202.868437 108.559943 
L 212.065747 111.008752 
L 221.263057 100.622425 
L 230.460366 93.698208 
L 239.657676 94.795949 
L 248.854986 106.36446 
L 258.052296 99.186917 
L 267.249606 88.80059 
L 276.446916 87.533965 
L 285.644225 91.080515 
L 294.841535 99.693567 
L 304.038845 86.858431 
L 313.236155 89.729449 
L 322.433465 83.480764 
L 331.630775 85.507365 
L 340.828084 85.000715 
L 350.025394 85.169598 
L 359.222704 90.573865 
L 368.420014 85.76069 
L 377.617324 84.156298 
L 386.814634 85.929573 
L 396.011943 83.311881 
L 405.209253 86.014015 
L 414.406563 84.156298 
L 423.603873 80.440864 
L 432.801183 77.73873 
L 441.998493 82.045256 
L 451.195802 84.831831 
L 460.393112 78.75203 
L 469.590422 81.876372 
L 478.787732 79.174239 
L 487.985042 80.863072 
L 497.182352 78.75203 
L 506.379661 81.876372 
L 515.576971 78.076497 
L 524.774281 79.25868 
L 533.971591 77.147638 
" style="fill:none;stroke:#2ca02c;stroke-linecap:square;stroke-width:1.5;"/>
   </g>
   <g id="line2d_14">
    <path clip-path="url(#p533a4c1947)" d="M 83.303409 274.837011 
L 92.500719 254.404066 
L 101.698029 222.023553 
L 110.895339 206.867285 
L 120.092648 200.009607 
L 129.289958 193.272005 
L 138.487268 183.639236 
L 147.684578 177.855572 
L 156.881888 169.430235 
L 166.079198 163.820014 
L 175.276507 161.732025 
L 184.473817 155.468056 
L 193.671127 154.167232 
L 202.868437 154.440739 
L 212.065747 151.472192 
L 221.263057 148.330201 
L 230.460366 147.729821 
L 239.657676 144.307653 
L 248.854986 146.022072 
L 258.052296 145.221565 
L 267.249606 144.421058 
L 276.446916 143.433766 
L 285.644225 142.606575 
L 294.841535 141.912802 
L 304.038845 140.345143 
L 313.236155 139.20442 
L 322.433465 139.818142 
L 331.630775 139.104357 
L 340.828084 138.917572 
L 350.025394 137.536697 
L 359.222704 136.249215 
L 368.420014 137.396608 
L 377.617324 135.808936 
L 386.814634 136.81624 
L 396.011943 135.275264 
L 405.209253 134.101187 
L 414.406563 134.174567 
L 423.603873 134.594833 
L 432.801183 133.607541 
L 441.998493 134.234605 
L 451.195802 133.514148 
L 460.393112 133.614212 
L 469.590422 134.014465 
L 478.787732 132.146615 
L 487.985042 132.620249 
L 497.182352 131.839754 
L 506.379661 131.846425 
L 515.576971 132.153286 
L 524.774281 131.13264 
L 533.971591 131.399476 
" style="fill:none;stroke:#d62728;stroke-linecap:square;stroke-width:1.5;"/>
   </g>
   <g id="patch_3">
    <path d="M 60.77 376 
L 60.77 56.601988 
" style="fill:none;stroke:#000000;stroke-linecap:square;stroke-linejoin:miter;stroke-width:0.8;"/>
   </g>
   <g id="patch_4">
    <path d="M 556.505 376 
L 556.505 56.601988 
" style="fill:none;stroke:#000000;stroke-linecap:square;stroke-linejoin:miter;stroke-width:0.8;"/>
   </g>
   <g id="patch_5">
    <path d="M 60.77 376 
L 556.505 376 
" style="fill:none;stroke:#000000;stroke-linecap:square;stroke-linejoin:miter;stroke-width:0.8;"/>
   </g>
   <g id="patch_6">
    <path d="M 60.77 56.601989 
L 556.505 56.601989 
" style="fill:none;stroke:#000000;stroke-linecap:square;stroke-linejoin:miter;stroke-width:0.8;"/>
   </g>
   <g id="legend_1">
    <g id="patch_7">
     <path d="M 59.039844 42.709474 
L 558.235156 42.709474 
Q 561.235156 42.709474 561.235156 39.709474 
L 561.235156 19.192287 
Q 561.235156 16.192287 558.235156 16.192287 
L 59.039844 16.192287 
Q 56.039844 16.192287 56.039844 19.192287 
L 56.039844 39.709474 
Q 56.039844 42.709474 59.039844 42.709474 
z
" style="fill:#ffffff;opacity:0.8;stroke:#cccccc;stroke-linejoin:miter;"/>
    </g>
    <g id="line2d_15">
     <path d="M 62.039844 28.339943 
L 92.039844 28.339943 
" style="fill:none;stroke:#1f77b4;stroke-linecap:square;stroke-width:1.5;"/>
    </g>
    <g id="line2d_16"/>
    <g id="text_13">
     <!-- FedAvg -->
     <g transform="translate(104.039844 33.589943)scale(0.15 -0.15)">
      <defs>
       <path d="M 628 4666 
L 3309 4666 
L 3309 4134 
L 1259 4134 
L 1259 2759 
L 3109 2759 
L 3109 2228 
L 1259 2228 
L 1259 0 
L 628 0 
L 628 4666 
z
" id="DejaVuSans-46" transform="scale(0.015625)"/>
       <path d="M 191 3500 
L 800 3500 
L 1894 563 
L 2988 3500 
L 3597 3500 
L 2284 0 
L 1503 0 
L 191 3500 
z
" id="DejaVuSans-76" transform="scale(0.015625)"/>
       <path d="M 2906 1791 
Q 2906 2416 2648 2759 
Q 2391 3103 1925 3103 
Q 1463 3103 1205 2759 
Q 947 2416 947 1791 
Q 947 1169 1205 825 
Q 1463 481 1925 481 
Q 2391 481 2648 825 
Q 2906 1169 2906 1791 
z
M 3481 434 
Q 3481 -459 3084 -895 
Q 2688 -1331 1869 -1331 
Q 1566 -1331 1297 -1286 
Q 1028 -1241 775 -1147 
L 775 -588 
Q 1028 -725 1275 -790 
Q 1522 -856 1778 -856 
Q 2344 -856 2625 -561 
Q 2906 -266 2906 331 
L 2906 616 
Q 2728 306 2450 153 
Q 2172 0 1784 0 
Q 1141 0 747 490 
Q 353 981 353 1791 
Q 353 2603 747 3093 
Q 1141 3584 1784 3584 
Q 2172 3584 2450 3431 
Q 2728 3278 2906 2969 
L 2906 3500 
L 3481 3500 
L 3481 434 
z
" id="DejaVuSans-67" transform="scale(0.015625)"/>
      </defs>
      <use xlink:href="#DejaVuSans-46"/>
      <use x="52.019531" xlink:href="#DejaVuSans-65"/>
      <use x="113.542969" xlink:href="#DejaVuSans-64"/>
      <use x="177.019531" xlink:href="#DejaVuSans-41"/>
      <use x="239.552734" xlink:href="#DejaVuSans-76"/>
      <use x="298.732422" xlink:href="#DejaVuSans-67"/>
     </g>
    </g>
    <g id="line2d_17">
     <path d="M 188.375 28.339943 
L 218.375 28.339943 
" style="fill:none;stroke:#ff7f0e;stroke-linecap:square;stroke-width:1.5;"/>
    </g>
    <g id="line2d_18"/>
    <g id="text_14">
     <!-- FedMed -->
     <g transform="translate(230.375 33.589943)scale(0.15 -0.15)">
      <defs>
       <path d="M 628 4666 
L 1569 4666 
L 2759 1491 
L 3956 4666 
L 4897 4666 
L 4897 0 
L 4281 0 
L 4281 4097 
L 3078 897 
L 2444 897 
L 1241 4097 
L 1241 0 
L 628 0 
L 628 4666 
z
" id="DejaVuSans-4d" transform="scale(0.015625)"/>
      </defs>
      <use xlink:href="#DejaVuSans-46"/>
      <use x="52.019531" xlink:href="#DejaVuSans-65"/>
      <use x="113.542969" xlink:href="#DejaVuSans-64"/>
      <use x="177.019531" xlink:href="#DejaVuSans-4d"/>
      <use x="263.298828" xlink:href="#DejaVuSans-65"/>
      <use x="324.822266" xlink:href="#DejaVuSans-64"/>
     </g>
    </g>
    <g id="line2d_19">
     <path d="M 318.624219 28.339943 
L 348.624219 28.339943 
" style="fill:none;stroke:#2ca02c;stroke-linecap:square;stroke-width:1.5;"/>
    </g>
    <g id="line2d_20"/>
    <g id="text_15">
     <!-- FedProx -->
     <g transform="translate(360.624219 33.589943)scale(0.15 -0.15)">
      <defs>
       <path d="M 1259 4147 
L 1259 2394 
L 2053 2394 
Q 2494 2394 2734 2622 
Q 2975 2850 2975 3272 
Q 2975 3691 2734 3919 
Q 2494 4147 2053 4147 
L 1259 4147 
z
M 628 4666 
L 2053 4666 
Q 2838 4666 3239 4311 
Q 3641 3956 3641 3272 
Q 3641 2581 3239 2228 
Q 2838 1875 2053 1875 
L 1259 1875 
L 1259 0 
L 628 0 
L 628 4666 
z
" id="DejaVuSans-50" transform="scale(0.015625)"/>
       <path d="M 3513 3500 
L 2247 1797 
L 3578 0 
L 2900 0 
L 1881 1375 
L 863 0 
L 184 0 
L 1544 1831 
L 300 3500 
L 978 3500 
L 1906 2253 
L 2834 3500 
L 3513 3500 
z
" id="DejaVuSans-78" transform="scale(0.015625)"/>
      </defs>
      <use xlink:href="#DejaVuSans-46"/>
      <use x="52.019531" xlink:href="#DejaVuSans-65"/>
      <use x="113.542969" xlink:href="#DejaVuSans-64"/>
      <use x="177.019531" xlink:href="#DejaVuSans-50"/>
      <use x="235.572266" xlink:href="#DejaVuSans-72"/>
      <use x="274.435547" xlink:href="#DejaVuSans-6f"/>
      <use x="332.492188" xlink:href="#DejaVuSans-78"/>
     </g>
    </g>
    <g id="line2d_21">
     <path d="M 449.377344 28.339943 
L 479.377344 28.339943 
" style="fill:none;stroke:#d62728;stroke-linecap:square;stroke-width:1.5;"/>
    </g>
    <g id="line2d_22"/>
    <g id="text_16">
     <!-- qFedAvg -->
     <g transform="translate(491.377344 33.589943)scale(0.15 -0.15)">
      <defs>
       <path d="M 947 1747 
Q 947 1113 1208 752 
Q 1469 391 1925 391 
Q 2381 391 2643 752 
Q 2906 1113 2906 1747 
Q 2906 2381 2643 2742 
Q 2381 3103 1925 3103 
Q 1469 3103 1208 2742 
Q 947 2381 947 1747 
z
M 2906 525 
Q 2725 213 2448 61 
Q 2172 -91 1784 -91 
Q 1150 -91 751 415 
Q 353 922 353 1747 
Q 353 2572 751 3078 
Q 1150 3584 1784 3584 
Q 2172 3584 2448 3432 
Q 2725 3281 2906 2969 
L 2906 3500 
L 3481 3500 
L 3481 -1331 
L 2906 -1331 
L 2906 525 
z
" id="DejaVuSans-71" transform="scale(0.015625)"/>
      </defs>
      <use xlink:href="#DejaVuSans-71"/>
      <use x="63.476562" xlink:href="#DejaVuSans-46"/>
      <use x="115.496094" xlink:href="#DejaVuSans-65"/>
      <use x="177.019531" xlink:href="#DejaVuSans-64"/>
      <use x="240.496094" xlink:href="#DejaVuSans-41"/>
      <use x="303.029297" xlink:href="#DejaVuSans-76"/>
      <use x="362.208984" xlink:href="#DejaVuSans-67"/>
     </g>
    </g>
   </g>
  </g>
 </g>
 <defs>
  <clipPath id="p533a4c1947">
   <rect height="319.398011" width="495.735" x="60.77" y="56.601989"/>
  </clipPath>
 </defs>
</svg>
