<?xml version="1.0" encoding="utf-8" standalone="no"?>
<!DOCTYPE svg PUBLIC "-//W3C//DTD SVG 1.1//EN"
  "http://www.w3.org/Graphics/SVG/1.1/DTD/svg11.dtd">
<svg height="345.6pt" version="1.1" viewBox="0 0 460.8 345.6" width="460.8pt" xmlns="http://www.w3.org/2000/svg" xmlns:xlink="http://www.w3.org/1999/xlink">
 <metadata>
  <rdf:RDF xmlns:cc="http://creativecommons.org/ns#" xmlns:dc="http://purl.org/dc/elements/1.1/" xmlns:rdf="http://www.w3.org/1999/02/22-rdf-syntax-ns#">
   <cc:Work>
    <dc:type rdf:resource="http://purl.org/dc/dcmitype/StillImage"/>
    <dc:date>2021-05-07T11:38:03.000925</dc:date>
    <dc:format>image/svg+xml</dc:format>
    <dc:creator>
     <cc:Agent>
      <dc:title>Matplotlib v3.4.1, https://matplotlib.org/</dc:title>
     </cc:Agent>
    </dc:creator>
   </cc:Work>
  </rdf:RDF>
 </metadata>
 <defs>
  <style type="text/css">*{stroke-linecap:butt;stroke-linejoin:round;}</style>
 </defs>
 <g id="figure_1">
  <g id="patch_1">
   <path d="M 0 345.6 
L 460.8 345.6 
L 460.8 0 
L 0 0 
z
" style="fill:#ffffff;"/>
  </g>
  <g id="axes_1">
   <g id="patch_2">
    <path d="M 44.57 303.64 
L 450 303.64 
L 450 48.38 
L 44.57 48.38 
z
" style="fill:#ffffff;"/>
   </g>
   <g id="PolyCollection_1">
    <path clip-path="url(#p110624b5c2)" d="M 62.998636 225.52505 
L 62.998636 252.853156 
L 70.520529 235.932412 
L 78.042421 203.697326 
L 85.564314 174.706017 
L 93.086206 156.36336 
L 100.608098 131.405804 
L 108.129991 139.594854 
L 115.651883 129.793306 
L 123.173776 114.818672 
L 130.695668 91.32507 
L 138.21756 115.376949 
L 145.739453 92.668856 
L 153.261345 93.772655 
L 160.783237 88.223697 
L 168.30513 85.355798 
L 175.827022 86.401015 
L 183.348915 83.094989 
L 190.870807 78.946841 
L 198.392699 78.04999 
L 205.914592 85.571673 
L 213.436484 89.466771 
L 220.958377 92.750806 
L 228.480269 76.005439 
L 236.002161 81.664314 
L 243.524054 81.12939 
L 251.045946 84.490528 
L 258.567839 83.14023 
L 266.089731 77.521506 
L 273.611623 75.247842 
L 281.133516 76.997268 
L 288.655408 78.582693 
L 296.177301 69.404832 
L 303.699193 75.816183 
L 311.221085 71.839507 
L 318.742978 67.777971 
L 326.26487 71.366998 
L 333.786763 80.374834 
L 341.308655 69.107407 
L 348.830547 69.89299 
L 356.35244 72.941906 
L 363.874332 67.122872 
L 371.396224 76.826741 
L 378.918117 74.240535 
L 386.440009 66.809551 
L 393.961902 71.815293 
L 401.483794 66.296429 
L 409.005686 69.189905 
L 416.527579 69.326556 
L 424.049471 68.861514 
L 431.571364 75.611722 
L 431.571364 62.85766 
L 431.571364 62.85766 
L 424.049471 61.670047 
L 416.527579 60.212777 
L 409.005686 62.617377 
L 401.483794 59.982727 
L 393.961902 60.417229 
L 386.440009 60.320086 
L 378.918117 66.780289 
L 371.396224 62.209628 
L 363.874332 63.266942 
L 356.35244 62.550793 
L 348.830547 64.465735 
L 341.308655 62.841621 
L 333.786763 61.07123 
L 326.26487 63.133473 
L 318.742978 62.186603 
L 311.221085 61.810483 
L 303.699193 61.377478 
L 296.177301 64.953892 
L 288.655408 68.24975 
L 281.133516 67.283733 
L 273.611623 66.198222 
L 266.089731 68.176962 
L 258.567839 67.377629 
L 251.045946 70.563229 
L 243.524054 65.277813 
L 236.002161 66.44385 
L 228.480269 72.244472 
L 220.958377 74.634922 
L 213.436484 71.256858 
L 205.914592 72.31702 
L 198.392699 70.766908 
L 190.870807 68.877829 
L 183.348915 70.116059 
L 175.827022 79.000258 
L 168.30513 73.241629 
L 160.783237 76.327095 
L 153.261345 76.87325 
L 145.739453 75.567353 
L 138.21756 81.20862 
L 130.695668 86.124681 
L 123.173776 91.689173 
L 115.651883 88.479524 
L 108.129991 97.95554 
L 100.608098 94.237858 
L 93.086206 115.773253 
L 85.564314 141.230357 
L 78.042421 173.473665 
L 70.520529 201.339222 
L 62.998636 225.52505 
z
" style="fill:#1f77b4;fill-opacity:0.5;"/>
   </g>
   <g id="PolyCollection_2">
    <path clip-path="url(#p110624b5c2)" d="M 62.998636 232.273542 
L 62.998636 284.092806 
L 70.520529 289.22614 
L 78.042421 292.037273 
L 85.564314 228.860856 
L 93.086206 285.899409 
L 100.608098 257.026399 
L 108.129991 256.08952 
L 115.651883 255.861025 
L 123.173776 265.492299 
L 130.695668 215.478848 
L 138.21756 237.561515 
L 145.739453 202.056283 
L 153.261345 259.690489 
L 160.783237 173.985007 
L 168.30513 202.653845 
L 175.827022 174.478822 
L 183.348915 165.516153 
L 190.870807 172.733189 
L 198.392699 147.220338 
L 205.914592 228.709913 
L 213.436484 219.950679 
L 220.958377 190.659422 
L 228.480269 168.693741 
L 236.002161 147.407038 
L 243.524054 144.276026 
L 251.045946 166.7731 
L 258.567839 155.276787 
L 266.089731 173.103771 
L 273.611623 151.179462 
L 281.133516 172.840652 
L 288.655408 147.986171 
L 296.177301 149.71636 
L 303.699193 156.66767 
L 311.221085 145.243554 
L 318.742978 148.110197 
L 326.26487 154.877331 
L 333.786763 152.860541 
L 341.308655 140.000192 
L 348.830547 168.359349 
L 356.35244 144.895696 
L 363.874332 134.467427 
L 371.396224 178.873218 
L 378.918117 185.464691 
L 386.440009 141.106381 
L 393.961902 143.932284 
L 401.483794 130.884199 
L 409.005686 138.372215 
L 416.527579 200.745676 
L 424.049471 191.11818 
L 431.571364 165.937197 
L 431.571364 115.979945 
L 431.571364 115.979945 
L 424.049471 99.020277 
L 416.527579 94.779159 
L 409.005686 121.574173 
L 401.483794 108.083663 
L 393.961902 118.565547 
L 386.440009 125.36036 
L 378.918117 132.597885 
L 371.396224 111.832226 
L 363.874332 121.368304 
L 356.35244 112.215757 
L 348.830547 130.567409 
L 341.308655 120.229689 
L 333.786763 124.378957 
L 326.26487 125.338849 
L 318.742978 116.088595 
L 311.221085 116.68729 
L 303.699193 119.012613 
L 296.177301 127.523138 
L 288.655408 118.197077 
L 281.133516 118.715272 
L 273.611623 125.918289 
L 266.089731 134.327795 
L 258.567839 141.240275 
L 251.045946 125.633305 
L 243.524054 127.2936 
L 236.002161 122.603373 
L 228.480269 144.69119 
L 220.958377 133.923506 
L 213.436484 141.628164 
L 205.914592 128.474779 
L 198.392699 138.523967 
L 190.870807 136.115845 
L 183.348915 140.639691 
L 175.827022 130.684795 
L 168.30513 141.773636 
L 160.783237 147.479492 
L 153.261345 155.893885 
L 145.739453 130.464466 
L 138.21756 145.137602 
L 130.695668 166.511534 
L 123.173776 159.163869 
L 115.651883 149.801073 
L 108.129991 161.762803 
L 100.608098 160.11719 
L 93.086206 228.62423 
L 85.564314 161.067347 
L 78.042421 266.286127 
L 70.520529 180.789005 
L 62.998636 232.273542 
z
" style="fill:#ff7f0e;fill-opacity:0.5;"/>
   </g>
   <g id="PolyCollection_3">
    <path clip-path="url(#p110624b5c2)" d="M 62.998636 239.379619 
L 62.998636 279.396425 
L 70.520529 235.383897 
L 78.042421 217.183919 
L 85.564314 167.523781 
L 93.086206 157.470915 
L 100.608098 144.383249 
L 108.129991 133.249267 
L 115.651883 108.412931 
L 123.173776 115.624598 
L 130.695668 104.909123 
L 138.21756 95.823804 
L 145.739453 115.451863 
L 153.261345 94.046677 
L 160.783237 83.558492 
L 168.30513 81.327875 
L 175.827022 91.863799 
L 183.348915 93.385074 
L 190.870807 81.435884 
L 198.392699 79.366859 
L 205.914592 77.605257 
L 213.436484 82.363139 
L 220.958377 79.341416 
L 228.480269 80.045803 
L 236.002161 85.793079 
L 243.524054 78.861212 
L 251.045946 78.227522 
L 258.567839 79.24208 
L 266.089731 75.346298 
L 273.611623 74.052394 
L 281.133516 75.320674 
L 288.655408 74.265595 
L 296.177301 74.282215 
L 303.699193 74.456915 
L 311.221085 78.101142 
L 318.742978 74.56334 
L 326.26487 73.776122 
L 333.786763 76.969443 
L 341.308655 73.595756 
L 348.830547 73.782005 
L 356.35244 73.050408 
L 363.874332 73.459091 
L 371.396224 75.379574 
L 378.918117 72.474716 
L 386.440009 73.712805 
L 393.961902 72.346213 
L 401.483794 73.553597 
L 409.005686 73.897548 
L 416.527579 72.242831 
L 424.049471 74.54817 
L 431.571364 74.406086 
L 431.571364 63.779802 
L 431.571364 63.779802 
L 424.049471 64.629945 
L 416.527579 61.8324 
L 409.005686 63.721352 
L 401.483794 63.214823 
L 393.961902 61.445524 
L 386.440009 63.339108 
L 378.918117 62.025755 
L 371.396224 65.641249 
L 363.874332 64.15981 
L 356.35244 64.284999 
L 348.830547 64.97087 
L 341.308655 65.582359 
L 333.786763 68.020291 
L 326.26487 64.69326 
L 318.742978 64.614775 
L 311.221085 67.739073 
L 303.699193 65.288187 
L 296.177301 66.171622 
L 288.655408 65.196014 
L 281.133516 70.377794 
L 273.611623 65.125721 
L 266.089731 68.934703 
L 258.567839 66.881629 
L 251.045946 70.164135 
L 243.524054 71.08966 
L 236.002161 74.221816 
L 228.480269 73.590486 
L 220.958377 72.593911 
L 213.436484 73.115858 
L 205.914592 72.912603 
L 198.392699 75.686898 
L 190.870807 77.30329 
L 183.348915 76.126856 
L 175.827022 72.970487 
L 168.30513 73.867629 
L 160.783237 76.739896 
L 153.261345 81.276872 
L 145.739453 83.543402 
L 138.21756 80.208479 
L 130.695668 87.282295 
L 123.173776 88.331805 
L 115.651883 95.826965 
L 108.129991 93.10313 
L 100.608098 111.027242 
L 93.086206 135.785971 
L 85.564314 120.63022 
L 78.042421 158.569604 
L 70.520529 189.839259 
L 62.998636 239.379619 
z
" style="fill:#2ca02c;fill-opacity:0.5;"/>
   </g>
   <g id="PolyCollection_4">
    <path clip-path="url(#p110624b5c2)" d="M 62.998636 254.792317 
L 62.998636 289.741246 
L 70.520529 273.547219 
L 78.042421 271.399816 
L 85.564314 266.44809 
L 93.086206 261.717602 
L 100.608098 257.034874 
L 108.129991 250.76435 
L 115.651883 244.117947 
L 123.173776 238.995363 
L 130.695668 234.936883 
L 138.21756 230.881549 
L 145.739453 227.226365 
L 153.261345 224.915018 
L 160.783237 222.234988 
L 168.30513 220.101187 
L 175.827022 218.552383 
L 183.348915 217.34054 
L 190.870807 215.240847 
L 198.392699 214.102628 
L 205.914592 212.249126 
L 213.436484 211.381134 
L 220.958377 210.266847 
L 228.480269 209.509123 
L 236.002161 208.586074 
L 243.524054 207.496845 
L 251.045946 205.794308 
L 258.567839 204.498863 
L 266.089731 202.735431 
L 273.611623 201.08859 
L 281.133516 199.173366 
L 288.655408 197.444656 
L 296.177301 195.560627 
L 303.699193 194.301007 
L 311.221085 192.561395 
L 318.742978 191.016985 
L 326.26487 188.824484 
L 333.786763 186.393797 
L 341.308655 184.65793 
L 348.830547 182.938485 
L 356.35244 181.141436 
L 363.874332 179.672279 
L 371.396224 178.125307 
L 378.918117 177.254798 
L 386.440009 175.090664 
L 393.961902 173.685003 
L 401.483794 172.164001 
L 409.005686 170.800832 
L 416.527579 169.744917 
L 424.049471 168.78564 
L 431.571364 167.568234 
L 431.571364 125.010394 
L 431.571364 125.010394 
L 424.049471 125.215133 
L 416.527579 125.700397 
L 409.005686 126.268192 
L 401.483794 126.607119 
L 393.961902 126.989777 
L 386.440009 127.386993 
L 378.918117 127.440063 
L 371.396224 128.159669 
L 363.874332 128.561149 
L 356.35244 128.939661 
L 348.830547 129.303826 
L 341.308655 129.712 
L 333.786763 130.652455 
L 326.26487 130.965277 
L 318.742978 130.933989 
L 311.221085 131.539595 
L 303.699193 132.588283 
L 296.177301 133.187531 
L 288.655408 133.543101 
L 281.133516 134.065189 
L 273.611623 134.344773 
L 266.089731 135.351857 
L 258.567839 135.884015 
L 251.045946 136.537021 
L 243.524054 137.566795 
L 236.002161 138.168463 
L 228.480269 138.83553 
L 220.958377 139.779902 
L 213.436484 141.173966 
L 205.914592 142.467188 
L 198.392699 144.230638 
L 190.870807 146.754164 
L 183.348915 149.223255 
L 175.827022 152.009097 
L 168.30513 155.096263 
L 160.783237 157.553641 
L 153.261345 162.398665 
L 145.739453 166.705335 
L 138.21756 171.179896 
L 130.695668 177.404324 
L 123.173776 183.054507 
L 115.651883 188.323664 
L 108.129991 191.979419 
L 100.608098 195.619122 
L 93.086206 197.16248 
L 85.564314 200.561739 
L 78.042421 203.627778 
L 70.520529 211.995295 
L 62.998636 254.792317 
z
" style="fill:#d62728;fill-opacity:0.5;"/>
   </g>
   <g id="matplotlib.axis_1">
    <g id="xtick_1">
     <g id="line2d_1">
      <defs>
       <path d="M 0 0 
L 0 3.5 
" id="m5b797a99e7" style="stroke:#000000;stroke-width:0.8;"/>
      </defs>
      <g>
       <use style="stroke:#000000;stroke-width:0.8;" x="62.998636" xlink:href="#m5b797a99e7" y="303.64"/>
      </g>
     </g>
     <g id="text_1">
      <!-- 0 -->
      <g transform="translate(59.817386 318.238437)scale(0.1 -0.1)">
       <defs>
        <path d="M 2034 4250 
Q 1547 4250 1301 3770 
Q 1056 3291 1056 2328 
Q 1056 1369 1301 889 
Q 1547 409 2034 409 
Q 2525 409 2770 889 
Q 3016 1369 3016 2328 
Q 3016 3291 2770 3770 
Q 2525 4250 2034 4250 
z
M 2034 4750 
Q 2819 4750 3233 4129 
Q 3647 3509 3647 2328 
Q 3647 1150 3233 529 
Q 2819 -91 2034 -91 
Q 1250 -91 836 529 
Q 422 1150 422 2328 
Q 422 3509 836 4129 
Q 1250 4750 2034 4750 
z
" id="DejaVuSans-30" transform="scale(0.015625)"/>
       </defs>
       <use xlink:href="#DejaVuSans-30"/>
      </g>
     </g>
    </g>
    <g id="xtick_2">
     <g id="line2d_2">
      <g>
       <use style="stroke:#000000;stroke-width:0.8;" x="138.21756" xlink:href="#m5b797a99e7" y="303.64"/>
      </g>
     </g>
     <g id="text_2">
      <!-- 10 -->
      <g transform="translate(131.85506 318.238437)scale(0.1 -0.1)">
       <defs>
        <path d="M 794 531 
L 1825 531 
L 1825 4091 
L 703 3866 
L 703 4441 
L 1819 4666 
L 2450 4666 
L 2450 531 
L 3481 531 
L 3481 0 
L 794 0 
L 794 531 
z
" id="DejaVuSans-31" transform="scale(0.015625)"/>
       </defs>
       <use xlink:href="#DejaVuSans-31"/>
       <use x="63.623047" xlink:href="#DejaVuSans-30"/>
      </g>
     </g>
    </g>
    <g id="xtick_3">
     <g id="line2d_3">
      <g>
       <use style="stroke:#000000;stroke-width:0.8;" x="213.436484" xlink:href="#m5b797a99e7" y="303.64"/>
      </g>
     </g>
     <g id="text_3">
      <!-- 20 -->
      <g transform="translate(207.073984 318.238437)scale(0.1 -0.1)">
       <defs>
        <path d="M 1228 531 
L 3431 531 
L 3431 0 
L 469 0 
L 469 531 
Q 828 903 1448 1529 
Q 2069 2156 2228 2338 
Q 2531 2678 2651 2914 
Q 2772 3150 2772 3378 
Q 2772 3750 2511 3984 
Q 2250 4219 1831 4219 
Q 1534 4219 1204 4116 
Q 875 4013 500 3803 
L 500 4441 
Q 881 4594 1212 4672 
Q 1544 4750 1819 4750 
Q 2544 4750 2975 4387 
Q 3406 4025 3406 3419 
Q 3406 3131 3298 2873 
Q 3191 2616 2906 2266 
Q 2828 2175 2409 1742 
Q 1991 1309 1228 531 
z
" id="DejaVuSans-32" transform="scale(0.015625)"/>
       </defs>
       <use xlink:href="#DejaVuSans-32"/>
       <use x="63.623047" xlink:href="#DejaVuSans-30"/>
      </g>
     </g>
    </g>
    <g id="xtick_4">
     <g id="line2d_4">
      <g>
       <use style="stroke:#000000;stroke-width:0.8;" x="288.655408" xlink:href="#m5b797a99e7" y="303.64"/>
      </g>
     </g>
     <g id="text_4">
      <!-- 30 -->
      <g transform="translate(282.292908 318.238437)scale(0.1 -0.1)">
       <defs>
        <path d="M 2597 2516 
Q 3050 2419 3304 2112 
Q 3559 1806 3559 1356 
Q 3559 666 3084 287 
Q 2609 -91 1734 -91 
Q 1441 -91 1130 -33 
Q 819 25 488 141 
L 488 750 
Q 750 597 1062 519 
Q 1375 441 1716 441 
Q 2309 441 2620 675 
Q 2931 909 2931 1356 
Q 2931 1769 2642 2001 
Q 2353 2234 1838 2234 
L 1294 2234 
L 1294 2753 
L 1863 2753 
Q 2328 2753 2575 2939 
Q 2822 3125 2822 3475 
Q 2822 3834 2567 4026 
Q 2313 4219 1838 4219 
Q 1578 4219 1281 4162 
Q 984 4106 628 3988 
L 628 4550 
Q 988 4650 1302 4700 
Q 1616 4750 1894 4750 
Q 2613 4750 3031 4423 
Q 3450 4097 3450 3541 
Q 3450 3153 3228 2886 
Q 3006 2619 2597 2516 
z
" id="DejaVuSans-33" transform="scale(0.015625)"/>
       </defs>
       <use xlink:href="#DejaVuSans-33"/>
       <use x="63.623047" xlink:href="#DejaVuSans-30"/>
      </g>
     </g>
    </g>
    <g id="xtick_5">
     <g id="line2d_5">
      <g>
       <use style="stroke:#000000;stroke-width:0.8;" x="363.874332" xlink:href="#m5b797a99e7" y="303.64"/>
      </g>
     </g>
     <g id="text_5">
      <!-- 40 -->
      <g transform="translate(357.511832 318.238437)scale(0.1 -0.1)">
       <defs>
        <path d="M 2419 4116 
L 825 1625 
L 2419 1625 
L 2419 4116 
z
M 2253 4666 
L 3047 4666 
L 3047 1625 
L 3713 1625 
L 3713 1100 
L 3047 1100 
L 3047 0 
L 2419 0 
L 2419 1100 
L 313 1100 
L 313 1709 
L 2253 4666 
z
" id="DejaVuSans-34" transform="scale(0.015625)"/>
       </defs>
       <use xlink:href="#DejaVuSans-34"/>
       <use x="63.623047" xlink:href="#DejaVuSans-30"/>
      </g>
     </g>
    </g>
    <g id="xtick_6">
     <g id="line2d_6">
      <g>
       <use style="stroke:#000000;stroke-width:0.8;" x="439.093256" xlink:href="#m5b797a99e7" y="303.64"/>
      </g>
     </g>
     <g id="text_6">
      <!-- 50 -->
      <g transform="translate(432.730756 318.238437)scale(0.1 -0.1)">
       <defs>
        <path d="M 691 4666 
L 3169 4666 
L 3169 4134 
L 1269 4134 
L 1269 2991 
Q 1406 3038 1543 3061 
Q 1681 3084 1819 3084 
Q 2600 3084 3056 2656 
Q 3513 2228 3513 1497 
Q 3513 744 3044 326 
Q 2575 -91 1722 -91 
Q 1428 -91 1123 -41 
Q 819 9 494 109 
L 494 744 
Q 775 591 1075 516 
Q 1375 441 1709 441 
Q 2250 441 2565 725 
Q 2881 1009 2881 1497 
Q 2881 1984 2565 2268 
Q 2250 2553 1709 2553 
Q 1456 2553 1204 2497 
Q 953 2441 691 2322 
L 691 4666 
z
" id="DejaVuSans-35" transform="scale(0.015625)"/>
       </defs>
       <use xlink:href="#DejaVuSans-35"/>
       <use x="63.623047" xlink:href="#DejaVuSans-30"/>
      </g>
     </g>
    </g>
    <g id="text_7">
     <!-- Global Communication Rounds -->
     <g transform="translate(170.323281 331.916562)scale(0.1 -0.1)">
      <defs>
       <path d="M 3809 666 
L 3809 1919 
L 2778 1919 
L 2778 2438 
L 4434 2438 
L 4434 434 
Q 4069 175 3628 42 
Q 3188 -91 2688 -91 
Q 1594 -91 976 548 
Q 359 1188 359 2328 
Q 359 3472 976 4111 
Q 1594 4750 2688 4750 
Q 3144 4750 3555 4637 
Q 3966 4525 4313 4306 
L 4313 3634 
Q 3963 3931 3569 4081 
Q 3175 4231 2741 4231 
Q 1884 4231 1454 3753 
Q 1025 3275 1025 2328 
Q 1025 1384 1454 906 
Q 1884 428 2741 428 
Q 3075 428 3337 486 
Q 3600 544 3809 666 
z
" id="DejaVuSans-47" transform="scale(0.015625)"/>
       <path d="M 603 4863 
L 1178 4863 
L 1178 0 
L 603 0 
L 603 4863 
z
" id="DejaVuSans-6c" transform="scale(0.015625)"/>
       <path d="M 1959 3097 
Q 1497 3097 1228 2736 
Q 959 2375 959 1747 
Q 959 1119 1226 758 
Q 1494 397 1959 397 
Q 2419 397 2687 759 
Q 2956 1122 2956 1747 
Q 2956 2369 2687 2733 
Q 2419 3097 1959 3097 
z
M 1959 3584 
Q 2709 3584 3137 3096 
Q 3566 2609 3566 1747 
Q 3566 888 3137 398 
Q 2709 -91 1959 -91 
Q 1206 -91 779 398 
Q 353 888 353 1747 
Q 353 2609 779 3096 
Q 1206 3584 1959 3584 
z
" id="DejaVuSans-6f" transform="scale(0.015625)"/>
       <path d="M 3116 1747 
Q 3116 2381 2855 2742 
Q 2594 3103 2138 3103 
Q 1681 3103 1420 2742 
Q 1159 2381 1159 1747 
Q 1159 1113 1420 752 
Q 1681 391 2138 391 
Q 2594 391 2855 752 
Q 3116 1113 3116 1747 
z
M 1159 2969 
Q 1341 3281 1617 3432 
Q 1894 3584 2278 3584 
Q 2916 3584 3314 3078 
Q 3713 2572 3713 1747 
Q 3713 922 3314 415 
Q 2916 -91 2278 -91 
Q 1894 -91 1617 61 
Q 1341 213 1159 525 
L 1159 0 
L 581 0 
L 581 4863 
L 1159 4863 
L 1159 2969 
z
" id="DejaVuSans-62" transform="scale(0.015625)"/>
       <path d="M 2194 1759 
Q 1497 1759 1228 1600 
Q 959 1441 959 1056 
Q 959 750 1161 570 
Q 1363 391 1709 391 
Q 2188 391 2477 730 
Q 2766 1069 2766 1631 
L 2766 1759 
L 2194 1759 
z
M 3341 1997 
L 3341 0 
L 2766 0 
L 2766 531 
Q 2569 213 2275 61 
Q 1981 -91 1556 -91 
Q 1019 -91 701 211 
Q 384 513 384 1019 
Q 384 1609 779 1909 
Q 1175 2209 1959 2209 
L 2766 2209 
L 2766 2266 
Q 2766 2663 2505 2880 
Q 2244 3097 1772 3097 
Q 1472 3097 1187 3025 
Q 903 2953 641 2809 
L 641 3341 
Q 956 3463 1253 3523 
Q 1550 3584 1831 3584 
Q 2591 3584 2966 3190 
Q 3341 2797 3341 1997 
z
" id="DejaVuSans-61" transform="scale(0.015625)"/>
       <path id="DejaVuSans-20" transform="scale(0.015625)"/>
       <path d="M 4122 4306 
L 4122 3641 
Q 3803 3938 3442 4084 
Q 3081 4231 2675 4231 
Q 1875 4231 1450 3742 
Q 1025 3253 1025 2328 
Q 1025 1406 1450 917 
Q 1875 428 2675 428 
Q 3081 428 3442 575 
Q 3803 722 4122 1019 
L 4122 359 
Q 3791 134 3420 21 
Q 3050 -91 2638 -91 
Q 1578 -91 968 557 
Q 359 1206 359 2328 
Q 359 3453 968 4101 
Q 1578 4750 2638 4750 
Q 3056 4750 3426 4639 
Q 3797 4528 4122 4306 
z
" id="DejaVuSans-43" transform="scale(0.015625)"/>
       <path d="M 3328 2828 
Q 3544 3216 3844 3400 
Q 4144 3584 4550 3584 
Q 5097 3584 5394 3201 
Q 5691 2819 5691 2113 
L 5691 0 
L 5113 0 
L 5113 2094 
Q 5113 2597 4934 2840 
Q 4756 3084 4391 3084 
Q 3944 3084 3684 2787 
Q 3425 2491 3425 1978 
L 3425 0 
L 2847 0 
L 2847 2094 
Q 2847 2600 2669 2842 
Q 2491 3084 2119 3084 
Q 1678 3084 1418 2786 
Q 1159 2488 1159 1978 
L 1159 0 
L 581 0 
L 581 3500 
L 1159 3500 
L 1159 2956 
Q 1356 3278 1631 3431 
Q 1906 3584 2284 3584 
Q 2666 3584 2933 3390 
Q 3200 3197 3328 2828 
z
" id="DejaVuSans-6d" transform="scale(0.015625)"/>
       <path d="M 544 1381 
L 544 3500 
L 1119 3500 
L 1119 1403 
Q 1119 906 1312 657 
Q 1506 409 1894 409 
Q 2359 409 2629 706 
Q 2900 1003 2900 1516 
L 2900 3500 
L 3475 3500 
L 3475 0 
L 2900 0 
L 2900 538 
Q 2691 219 2414 64 
Q 2138 -91 1772 -91 
Q 1169 -91 856 284 
Q 544 659 544 1381 
z
M 1991 3584 
L 1991 3584 
z
" id="DejaVuSans-75" transform="scale(0.015625)"/>
       <path d="M 3513 2113 
L 3513 0 
L 2938 0 
L 2938 2094 
Q 2938 2591 2744 2837 
Q 2550 3084 2163 3084 
Q 1697 3084 1428 2787 
Q 1159 2491 1159 1978 
L 1159 0 
L 581 0 
L 581 3500 
L 1159 3500 
L 1159 2956 
Q 1366 3272 1645 3428 
Q 1925 3584 2291 3584 
Q 2894 3584 3203 3211 
Q 3513 2838 3513 2113 
z
" id="DejaVuSans-6e" transform="scale(0.015625)"/>
       <path d="M 603 3500 
L 1178 3500 
L 1178 0 
L 603 0 
L 603 3500 
z
M 603 4863 
L 1178 4863 
L 1178 4134 
L 603 4134 
L 603 4863 
z
" id="DejaVuSans-69" transform="scale(0.015625)"/>
       <path d="M 3122 3366 
L 3122 2828 
Q 2878 2963 2633 3030 
Q 2388 3097 2138 3097 
Q 1578 3097 1268 2742 
Q 959 2388 959 1747 
Q 959 1106 1268 751 
Q 1578 397 2138 397 
Q 2388 397 2633 464 
Q 2878 531 3122 666 
L 3122 134 
Q 2881 22 2623 -34 
Q 2366 -91 2075 -91 
Q 1284 -91 818 406 
Q 353 903 353 1747 
Q 353 2603 823 3093 
Q 1294 3584 2113 3584 
Q 2378 3584 2631 3529 
Q 2884 3475 3122 3366 
z
" id="DejaVuSans-63" transform="scale(0.015625)"/>
       <path d="M 1172 4494 
L 1172 3500 
L 2356 3500 
L 2356 3053 
L 1172 3053 
L 1172 1153 
Q 1172 725 1289 603 
Q 1406 481 1766 481 
L 2356 481 
L 2356 0 
L 1766 0 
Q 1100 0 847 248 
Q 594 497 594 1153 
L 594 3053 
L 172 3053 
L 172 3500 
L 594 3500 
L 594 4494 
L 1172 4494 
z
" id="DejaVuSans-74" transform="scale(0.015625)"/>
       <path d="M 2841 2188 
Q 3044 2119 3236 1894 
Q 3428 1669 3622 1275 
L 4263 0 
L 3584 0 
L 2988 1197 
Q 2756 1666 2539 1819 
Q 2322 1972 1947 1972 
L 1259 1972 
L 1259 0 
L 628 0 
L 628 4666 
L 2053 4666 
Q 2853 4666 3247 4331 
Q 3641 3997 3641 3322 
Q 3641 2881 3436 2590 
Q 3231 2300 2841 2188 
z
M 1259 4147 
L 1259 2491 
L 2053 2491 
Q 2509 2491 2742 2702 
Q 2975 2913 2975 3322 
Q 2975 3731 2742 3939 
Q 2509 4147 2053 4147 
L 1259 4147 
z
" id="DejaVuSans-52" transform="scale(0.015625)"/>
       <path d="M 2906 2969 
L 2906 4863 
L 3481 4863 
L 3481 0 
L 2906 0 
L 2906 525 
Q 2725 213 2448 61 
Q 2172 -91 1784 -91 
Q 1150 -91 751 415 
Q 353 922 353 1747 
Q 353 2572 751 3078 
Q 1150 3584 1784 3584 
Q 2172 3584 2448 3432 
Q 2725 3281 2906 2969 
z
M 947 1747 
Q 947 1113 1208 752 
Q 1469 391 1925 391 
Q 2381 391 2643 752 
Q 2906 1113 2906 1747 
Q 2906 2381 2643 2742 
Q 2381 3103 1925 3103 
Q 1469 3103 1208 2742 
Q 947 2381 947 1747 
z
" id="DejaVuSans-64" transform="scale(0.015625)"/>
       <path d="M 2834 3397 
L 2834 2853 
Q 2591 2978 2328 3040 
Q 2066 3103 1784 3103 
Q 1356 3103 1142 2972 
Q 928 2841 928 2578 
Q 928 2378 1081 2264 
Q 1234 2150 1697 2047 
L 1894 2003 
Q 2506 1872 2764 1633 
Q 3022 1394 3022 966 
Q 3022 478 2636 193 
Q 2250 -91 1575 -91 
Q 1294 -91 989 -36 
Q 684 19 347 128 
L 347 722 
Q 666 556 975 473 
Q 1284 391 1588 391 
Q 1994 391 2212 530 
Q 2431 669 2431 922 
Q 2431 1156 2273 1281 
Q 2116 1406 1581 1522 
L 1381 1569 
Q 847 1681 609 1914 
Q 372 2147 372 2553 
Q 372 3047 722 3315 
Q 1072 3584 1716 3584 
Q 2034 3584 2315 3537 
Q 2597 3491 2834 3397 
z
" id="DejaVuSans-73" transform="scale(0.015625)"/>
      </defs>
      <use xlink:href="#DejaVuSans-47"/>
      <use x="77.490234" xlink:href="#DejaVuSans-6c"/>
      <use x="105.273438" xlink:href="#DejaVuSans-6f"/>
      <use x="166.455078" xlink:href="#DejaVuSans-62"/>
      <use x="229.931641" xlink:href="#DejaVuSans-61"/>
      <use x="291.210938" xlink:href="#DejaVuSans-6c"/>
      <use x="318.994141" xlink:href="#DejaVuSans-20"/>
      <use x="350.78125" xlink:href="#DejaVuSans-43"/>
      <use x="420.605469" xlink:href="#DejaVuSans-6f"/>
      <use x="481.787109" xlink:href="#DejaVuSans-6d"/>
      <use x="579.199219" xlink:href="#DejaVuSans-6d"/>
      <use x="676.611328" xlink:href="#DejaVuSans-75"/>
      <use x="739.990234" xlink:href="#DejaVuSans-6e"/>
      <use x="803.369141" xlink:href="#DejaVuSans-69"/>
      <use x="831.152344" xlink:href="#DejaVuSans-63"/>
      <use x="886.132812" xlink:href="#DejaVuSans-61"/>
      <use x="947.412109" xlink:href="#DejaVuSans-74"/>
      <use x="986.621094" xlink:href="#DejaVuSans-69"/>
      <use x="1014.404297" xlink:href="#DejaVuSans-6f"/>
      <use x="1075.585938" xlink:href="#DejaVuSans-6e"/>
      <use x="1138.964844" xlink:href="#DejaVuSans-20"/>
      <use x="1170.751953" xlink:href="#DejaVuSans-52"/>
      <use x="1235.734375" xlink:href="#DejaVuSans-6f"/>
      <use x="1296.916016" xlink:href="#DejaVuSans-75"/>
      <use x="1360.294922" xlink:href="#DejaVuSans-6e"/>
      <use x="1423.673828" xlink:href="#DejaVuSans-64"/>
      <use x="1487.150391" xlink:href="#DejaVuSans-73"/>
     </g>
    </g>
   </g>
   <g id="matplotlib.axis_2">
    <g id="ytick_1">
     <g id="line2d_7">
      <defs>
       <path d="M 0 0 
L -3.5 0 
" id="m8f907050a4" style="stroke:#000000;stroke-width:0.8;"/>
      </defs>
      <g>
       <use style="stroke:#000000;stroke-width:0.8;" x="44.57" xlink:href="#m8f907050a4" y="271.790867"/>
      </g>
     </g>
     <g id="text_8">
      <!-- 20 -->
      <g transform="translate(24.845 275.590085)scale(0.1 -0.1)">
       <use xlink:href="#DejaVuSans-32"/>
       <use x="63.623047" xlink:href="#DejaVuSans-30"/>
      </g>
     </g>
    </g>
    <g id="ytick_2">
     <g id="line2d_8">
      <g>
       <use style="stroke:#000000;stroke-width:0.8;" x="44.57" xlink:href="#m8f907050a4" y="215.800881"/>
      </g>
     </g>
     <g id="text_9">
      <!-- 40 -->
      <g transform="translate(24.845 219.6001)scale(0.1 -0.1)">
       <use xlink:href="#DejaVuSans-34"/>
       <use x="63.623047" xlink:href="#DejaVuSans-30"/>
      </g>
     </g>
    </g>
    <g id="ytick_3">
     <g id="line2d_9">
      <g>
       <use style="stroke:#000000;stroke-width:0.8;" x="44.57" xlink:href="#m8f907050a4" y="159.810895"/>
      </g>
     </g>
     <g id="text_10">
      <!-- 60 -->
      <g transform="translate(24.845 163.610114)scale(0.1 -0.1)">
       <defs>
        <path d="M 2113 2584 
Q 1688 2584 1439 2293 
Q 1191 2003 1191 1497 
Q 1191 994 1439 701 
Q 1688 409 2113 409 
Q 2538 409 2786 701 
Q 3034 994 3034 1497 
Q 3034 2003 2786 2293 
Q 2538 2584 2113 2584 
z
M 3366 4563 
L 3366 3988 
Q 3128 4100 2886 4159 
Q 2644 4219 2406 4219 
Q 1781 4219 1451 3797 
Q 1122 3375 1075 2522 
Q 1259 2794 1537 2939 
Q 1816 3084 2150 3084 
Q 2853 3084 3261 2657 
Q 3669 2231 3669 1497 
Q 3669 778 3244 343 
Q 2819 -91 2113 -91 
Q 1303 -91 875 529 
Q 447 1150 447 2328 
Q 447 3434 972 4092 
Q 1497 4750 2381 4750 
Q 2619 4750 2861 4703 
Q 3103 4656 3366 4563 
z
" id="DejaVuSans-36" transform="scale(0.015625)"/>
       </defs>
       <use xlink:href="#DejaVuSans-36"/>
       <use x="63.623047" xlink:href="#DejaVuSans-30"/>
      </g>
     </g>
    </g>
    <g id="ytick_4">
     <g id="line2d_10">
      <g>
       <use style="stroke:#000000;stroke-width:0.8;" x="44.57" xlink:href="#m8f907050a4" y="103.82091"/>
      </g>
     </g>
     <g id="text_11">
      <!-- 80 -->
      <g transform="translate(24.845 107.620128)scale(0.1 -0.1)">
       <defs>
        <path d="M 2034 2216 
Q 1584 2216 1326 1975 
Q 1069 1734 1069 1313 
Q 1069 891 1326 650 
Q 1584 409 2034 409 
Q 2484 409 2743 651 
Q 3003 894 3003 1313 
Q 3003 1734 2745 1975 
Q 2488 2216 2034 2216 
z
M 1403 2484 
Q 997 2584 770 2862 
Q 544 3141 544 3541 
Q 544 4100 942 4425 
Q 1341 4750 2034 4750 
Q 2731 4750 3128 4425 
Q 3525 4100 3525 3541 
Q 3525 3141 3298 2862 
Q 3072 2584 2669 2484 
Q 3125 2378 3379 2068 
Q 3634 1759 3634 1313 
Q 3634 634 3220 271 
Q 2806 -91 2034 -91 
Q 1263 -91 848 271 
Q 434 634 434 1313 
Q 434 1759 690 2068 
Q 947 2378 1403 2484 
z
M 1172 3481 
Q 1172 3119 1398 2916 
Q 1625 2713 2034 2713 
Q 2441 2713 2670 2916 
Q 2900 3119 2900 3481 
Q 2900 3844 2670 4047 
Q 2441 4250 2034 4250 
Q 1625 4250 1398 4047 
Q 1172 3844 1172 3481 
z
" id="DejaVuSans-38" transform="scale(0.015625)"/>
       </defs>
       <use xlink:href="#DejaVuSans-38"/>
       <use x="63.623047" xlink:href="#DejaVuSans-30"/>
      </g>
     </g>
    </g>
    <g id="text_12">
     <!-- Test Accuracy -->
     <g transform="translate(18.765313 210.2725)rotate(-90)scale(0.1 -0.1)">
      <defs>
       <path d="M -19 4666 
L 3928 4666 
L 3928 4134 
L 2272 4134 
L 2272 0 
L 1638 0 
L 1638 4134 
L -19 4134 
L -19 4666 
z
" id="DejaVuSans-54" transform="scale(0.015625)"/>
       <path d="M 3597 1894 
L 3597 1613 
L 953 1613 
Q 991 1019 1311 708 
Q 1631 397 2203 397 
Q 2534 397 2845 478 
Q 3156 559 3463 722 
L 3463 178 
Q 3153 47 2828 -22 
Q 2503 -91 2169 -91 
Q 1331 -91 842 396 
Q 353 884 353 1716 
Q 353 2575 817 3079 
Q 1281 3584 2069 3584 
Q 2775 3584 3186 3129 
Q 3597 2675 3597 1894 
z
M 3022 2063 
Q 3016 2534 2758 2815 
Q 2500 3097 2075 3097 
Q 1594 3097 1305 2825 
Q 1016 2553 972 2059 
L 3022 2063 
z
" id="DejaVuSans-65" transform="scale(0.015625)"/>
       <path d="M 2188 4044 
L 1331 1722 
L 3047 1722 
L 2188 4044 
z
M 1831 4666 
L 2547 4666 
L 4325 0 
L 3669 0 
L 3244 1197 
L 1141 1197 
L 716 0 
L 50 0 
L 1831 4666 
z
" id="DejaVuSans-41" transform="scale(0.015625)"/>
       <path d="M 2631 2963 
Q 2534 3019 2420 3045 
Q 2306 3072 2169 3072 
Q 1681 3072 1420 2755 
Q 1159 2438 1159 1844 
L 1159 0 
L 581 0 
L 581 3500 
L 1159 3500 
L 1159 2956 
Q 1341 3275 1631 3429 
Q 1922 3584 2338 3584 
Q 2397 3584 2469 3576 
Q 2541 3569 2628 3553 
L 2631 2963 
z
" id="DejaVuSans-72" transform="scale(0.015625)"/>
       <path d="M 2059 -325 
Q 1816 -950 1584 -1140 
Q 1353 -1331 966 -1331 
L 506 -1331 
L 506 -850 
L 844 -850 
Q 1081 -850 1212 -737 
Q 1344 -625 1503 -206 
L 1606 56 
L 191 3500 
L 800 3500 
L 1894 763 
L 2988 3500 
L 3597 3500 
L 2059 -325 
z
" id="DejaVuSans-79" transform="scale(0.015625)"/>
      </defs>
      <use xlink:href="#DejaVuSans-54"/>
      <use x="44.083984" xlink:href="#DejaVuSans-65"/>
      <use x="105.607422" xlink:href="#DejaVuSans-73"/>
      <use x="157.707031" xlink:href="#DejaVuSans-74"/>
      <use x="196.916016" xlink:href="#DejaVuSans-20"/>
      <use x="228.703125" xlink:href="#DejaVuSans-41"/>
      <use x="295.361328" xlink:href="#DejaVuSans-63"/>
      <use x="350.341797" xlink:href="#DejaVuSans-63"/>
      <use x="405.322266" xlink:href="#DejaVuSans-75"/>
      <use x="468.701172" xlink:href="#DejaVuSans-72"/>
      <use x="509.814453" xlink:href="#DejaVuSans-61"/>
      <use x="571.09375" xlink:href="#DejaVuSans-63"/>
      <use x="626.074219" xlink:href="#DejaVuSans-79"/>
     </g>
    </g>
   </g>
   <g id="line2d_11">
    <path clip-path="url(#p110624b5c2)" d="M 62.998636 239.189103 
L 70.520529 218.635817 
L 78.042421 188.585496 
L 85.564314 157.968187 
L 93.086206 136.068306 
L 100.608098 112.821831 
L 108.129991 118.775197 
L 115.651883 109.136415 
L 123.173776 103.253922 
L 130.695668 88.724876 
L 138.21756 98.292785 
L 145.739453 84.118105 
L 153.261345 85.322952 
L 160.783237 82.275396 
L 168.30513 79.298713 
L 175.827022 82.700637 
L 183.348915 76.605524 
L 190.870807 73.912335 
L 198.392699 74.408449 
L 205.914592 78.944346 
L 213.436484 80.361814 
L 220.958377 83.692864 
L 228.480269 74.124955 
L 236.002161 74.054082 
L 243.524054 73.203601 
L 251.045946 77.526878 
L 258.567839 75.25893 
L 266.089731 72.849234 
L 273.611623 70.723032 
L 281.133516 72.1405 
L 288.655408 73.416221 
L 296.177301 67.179362 
L 303.699193 68.59683 
L 311.221085 66.824995 
L 318.742978 64.982287 
L 326.26487 67.250236 
L 333.786763 70.723032 
L 341.308655 65.974514 
L 348.830547 67.179362 
L 356.35244 67.746349 
L 363.874332 65.194907 
L 371.396224 69.518184 
L 378.918117 70.510412 
L 386.440009 63.564819 
L 393.961902 66.116261 
L 401.483794 63.139578 
L 409.005686 65.903641 
L 416.527579 64.769667 
L 424.049471 65.26578 
L 431.571364 69.234691 
" style="fill:none;stroke:#1f77b4;stroke-linecap:square;stroke-width:1.5;"/>
   </g>
   <g id="line2d_12">
    <path clip-path="url(#p110624b5c2)" d="M 62.998636 258.183174 
L 70.520529 235.007572 
L 78.042421 279.1617 
L 85.564314 194.964101 
L 93.086206 257.26182 
L 100.608098 208.571794 
L 108.129991 208.926161 
L 115.651883 202.831049 
L 123.173776 212.328084 
L 130.695668 190.995191 
L 138.21756 191.349558 
L 145.739453 166.260375 
L 153.261345 207.792187 
L 160.783237 160.732249 
L 168.30513 172.21374 
L 175.827022 152.581809 
L 183.348915 153.077922 
L 190.870807 154.424517 
L 198.392699 142.872153 
L 205.914592 178.592346 
L 213.436484 180.789422 
L 220.958377 162.291464 
L 228.480269 156.692466 
L 236.002161 135.005205 
L 243.524054 135.784813 
L 251.045946 146.203203 
L 258.567839 148.258531 
L 266.089731 153.715783 
L 273.611623 138.548875 
L 281.133516 145.777962 
L 288.655408 133.091624 
L 296.177301 138.619749 
L 303.699193 137.840141 
L 311.221085 130.965422 
L 318.742978 132.099396 
L 326.26487 140.10809 
L 333.786763 138.619749 
L 341.308655 130.114941 
L 348.830547 149.463379 
L 356.35244 128.555726 
L 363.874332 127.917866 
L 371.396224 145.352722 
L 378.918117 159.031288 
L 386.440009 133.23337 
L 393.961902 131.248915 
L 401.483794 119.483931 
L 409.005686 129.973194 
L 416.527579 147.762417 
L 424.049471 145.069228 
L 431.571364 140.958571 
" style="fill:none;stroke:#ff7f0e;stroke-linecap:square;stroke-width:1.5;"/>
   </g>
   <g id="line2d_13">
    <path clip-path="url(#p110624b5c2)" d="M 62.998636 259.388022 
L 70.520529 212.611578 
L 78.042421 187.876762 
L 85.564314 144.077001 
L 93.086206 146.628443 
L 100.608098 127.705245 
L 108.129991 113.176198 
L 115.651883 102.119948 
L 123.173776 101.978201 
L 130.695668 96.095709 
L 138.21756 88.016142 
L 145.739453 99.497632 
L 153.261345 87.661775 
L 160.783237 80.149194 
L 168.30513 77.597752 
L 175.827022 82.417143 
L 183.348915 84.755965 
L 190.870807 79.369587 
L 198.392699 77.526878 
L 205.914592 75.25893 
L 213.436484 77.739499 
L 220.958377 75.967664 
L 228.480269 76.818144 
L 236.002161 80.007447 
L 243.524054 74.975436 
L 251.045946 74.195829 
L 258.567839 73.061854 
L 266.089731 72.1405 
L 273.611623 69.589058 
L 281.133516 72.849234 
L 288.655408 69.730805 
L 296.177301 70.226918 
L 303.699193 69.872551 
L 311.221085 72.920108 
L 318.742978 69.589058 
L 326.26487 69.234691 
L 333.786763 72.494867 
L 341.308655 69.589058 
L 348.830547 69.376438 
L 356.35244 68.667704 
L 363.874332 68.80945 
L 371.396224 70.510412 
L 378.918117 67.250236 
L 386.440009 68.525957 
L 393.961902 66.895869 
L 401.483794 68.38421 
L 409.005686 68.80945 
L 416.527579 67.037615 
L 424.049471 69.589058 
L 431.571364 69.092944 
" style="fill:none;stroke:#2ca02c;stroke-linecap:square;stroke-width:1.5;"/>
   </g>
   <g id="line2d_14">
    <path clip-path="url(#p110624b5c2)" d="M 62.998636 272.266781 
L 70.520529 242.771257 
L 78.042421 237.513797 
L 85.564314 233.504914 
L 93.086206 229.440041 
L 100.608098 226.326998 
L 108.129991 221.371884 
L 115.651883 216.220806 
L 123.173776 211.024935 
L 130.695668 206.170603 
L 138.21756 201.030723 
L 145.739453 196.96585 
L 153.261345 193.656842 
L 160.783237 189.894315 
L 168.30513 187.598725 
L 175.827022 185.28074 
L 183.348915 183.281897 
L 190.870807 180.997506 
L 198.392699 179.166633 
L 205.914592 177.358157 
L 213.436484 176.27755 
L 220.958377 175.023374 
L 228.480269 174.172327 
L 236.002161 173.377269 
L 243.524054 172.53182 
L 251.045946 171.165664 
L 258.567839 170.191439 
L 266.089731 169.043644 
L 273.611623 167.716681 
L 281.133516 166.619278 
L 288.655408 165.493879 
L 296.177301 164.374079 
L 303.699193 163.444645 
L 311.221085 162.050495 
L 318.742978 160.975487 
L 326.26487 159.89488 
L 333.786763 158.523126 
L 341.308655 157.184965 
L 348.830547 156.121155 
L 356.35244 155.040549 
L 363.874332 154.116714 
L 371.396224 153.142488 
L 378.918117 152.34743 
L 386.440009 151.238829 
L 393.961902 150.33739 
L 401.483794 149.38556 
L 409.005686 148.534512 
L 416.527579 147.722657 
L 424.049471 147.000387 
L 431.571364 146.289314 
" style="fill:none;stroke:#d62728;stroke-linecap:square;stroke-width:1.5;"/>
   </g>
   <g id="patch_3">
    <path d="M 44.57 303.64 
L 44.57 48.38 
" style="fill:none;stroke:#000000;stroke-linecap:square;stroke-linejoin:miter;stroke-width:0.8;"/>
   </g>
   <g id="patch_4">
    <path d="M 450 303.64 
L 450 48.38 
" style="fill:none;stroke:#000000;stroke-linecap:square;stroke-linejoin:miter;stroke-width:0.8;"/>
   </g>
   <g id="patch_5">
    <path d="M 44.57 303.64 
L 450 303.64 
" style="fill:none;stroke:#000000;stroke-linecap:square;stroke-linejoin:miter;stroke-width:0.8;"/>
   </g>
   <g id="patch_6">
    <path d="M 44.57 48.38 
L 450 48.38 
" style="fill:none;stroke:#000000;stroke-linecap:square;stroke-linejoin:miter;stroke-width:0.8;"/>
   </g>
   <g id="text_13">
    <!-- Local Rounds 25 -->
    <g transform="translate(198.174063 20.88)scale(0.12 -0.12)">
     <defs>
      <path d="M 628 4666 
L 1259 4666 
L 1259 531 
L 3531 531 
L 3531 0 
L 628 0 
L 628 4666 
z
" id="DejaVuSans-4c" transform="scale(0.015625)"/>
     </defs>
     <use xlink:href="#DejaVuSans-4c"/>
     <use x="53.962891" xlink:href="#DejaVuSans-6f"/>
     <use x="115.144531" xlink:href="#DejaVuSans-63"/>
     <use x="170.125" xlink:href="#DejaVuSans-61"/>
     <use x="231.404297" xlink:href="#DejaVuSans-6c"/>
     <use x="259.1875" xlink:href="#DejaVuSans-20"/>
     <use x="290.974609" xlink:href="#DejaVuSans-52"/>
     <use x="355.957031" xlink:href="#DejaVuSans-6f"/>
     <use x="417.138672" xlink:href="#DejaVuSans-75"/>
     <use x="480.517578" xlink:href="#DejaVuSans-6e"/>
     <use x="543.896484" xlink:href="#DejaVuSans-64"/>
     <use x="607.373047" xlink:href="#DejaVuSans-73"/>
     <use x="659.472656" xlink:href="#DejaVuSans-20"/>
     <use x="691.259766" xlink:href="#DejaVuSans-32"/>
     <use x="754.882812" xlink:href="#DejaVuSans-35"/>
    </g>
   </g>
   <g id="legend_1">
    <g id="patch_7">
     <path d="M 80.886563 45.532125 
L 413.683438 45.532125 
Q 415.683438 45.532125 415.683438 43.532125 
L 415.683438 29.854 
Q 415.683438 27.854 413.683438 27.854 
L 80.886563 27.854 
Q 78.886563 27.854 78.886563 29.854 
L 78.886563 43.532125 
Q 78.886563 45.532125 80.886563 45.532125 
z
" style="fill:#ffffff;opacity:0.8;stroke:#cccccc;stroke-linejoin:miter;"/>
    </g>
    <g id="line2d_15">
     <path d="M 82.886563 35.952438 
L 102.886563 35.952438 
" style="fill:none;stroke:#1f77b4;stroke-linecap:square;stroke-width:1.5;"/>
    </g>
    <g id="line2d_16"/>
    <g id="text_14">
     <!-- FedAvg -->
     <g transform="translate(110.886563 39.452438)scale(0.1 -0.1)">
      <defs>
       <path d="M 628 4666 
L 3309 4666 
L 3309 4134 
L 1259 4134 
L 1259 2759 
L 3109 2759 
L 3109 2228 
L 1259 2228 
L 1259 0 
L 628 0 
L 628 4666 
z
" id="DejaVuSans-46" transform="scale(0.015625)"/>
       <path d="M 191 3500 
L 800 3500 
L 1894 563 
L 2988 3500 
L 3597 3500 
L 2284 0 
L 1503 0 
L 191 3500 
z
" id="DejaVuSans-76" transform="scale(0.015625)"/>
       <path d="M 2906 1791 
Q 2906 2416 2648 2759 
Q 2391 3103 1925 3103 
Q 1463 3103 1205 2759 
Q 947 2416 947 1791 
Q 947 1169 1205 825 
Q 1463 481 1925 481 
Q 2391 481 2648 825 
Q 2906 1169 2906 1791 
z
M 3481 434 
Q 3481 -459 3084 -895 
Q 2688 -1331 1869 -1331 
Q 1566 -1331 1297 -1286 
Q 1028 -1241 775 -1147 
L 775 -588 
Q 1028 -725 1275 -790 
Q 1522 -856 1778 -856 
Q 2344 -856 2625 -561 
Q 2906 -266 2906 331 
L 2906 616 
Q 2728 306 2450 153 
Q 2172 0 1784 0 
Q 1141 0 747 490 
Q 353 981 353 1791 
Q 353 2603 747 3093 
Q 1141 3584 1784 3584 
Q 2172 3584 2450 3431 
Q 2728 3278 2906 2969 
L 2906 3500 
L 3481 3500 
L 3481 434 
z
" id="DejaVuSans-67" transform="scale(0.015625)"/>
      </defs>
      <use xlink:href="#DejaVuSans-46"/>
      <use x="52.019531" xlink:href="#DejaVuSans-65"/>
      <use x="113.542969" xlink:href="#DejaVuSans-64"/>
      <use x="177.019531" xlink:href="#DejaVuSans-41"/>
      <use x="239.552734" xlink:href="#DejaVuSans-76"/>
      <use x="298.732422" xlink:href="#DejaVuSans-67"/>
     </g>
    </g>
    <g id="line2d_17">
     <path d="M 167.11 35.952438 
L 187.11 35.952438 
" style="fill:none;stroke:#ff7f0e;stroke-linecap:square;stroke-width:1.5;"/>
    </g>
    <g id="line2d_18"/>
    <g id="text_15">
     <!-- FedMed -->
     <g transform="translate(195.11 39.452438)scale(0.1 -0.1)">
      <defs>
       <path d="M 628 4666 
L 1569 4666 
L 2759 1491 
L 3956 4666 
L 4897 4666 
L 4897 0 
L 4281 0 
L 4281 4097 
L 3078 897 
L 2444 897 
L 1241 4097 
L 1241 0 
L 628 0 
L 628 4666 
z
" id="DejaVuSans-4d" transform="scale(0.015625)"/>
      </defs>
      <use xlink:href="#DejaVuSans-46"/>
      <use x="52.019531" xlink:href="#DejaVuSans-65"/>
      <use x="113.542969" xlink:href="#DejaVuSans-64"/>
      <use x="177.019531" xlink:href="#DejaVuSans-4d"/>
      <use x="263.298828" xlink:href="#DejaVuSans-65"/>
      <use x="324.822266" xlink:href="#DejaVuSans-64"/>
     </g>
    </g>
    <g id="line2d_19">
     <path d="M 253.942813 35.952438 
L 273.942813 35.952438 
" style="fill:none;stroke:#2ca02c;stroke-linecap:square;stroke-width:1.5;"/>
    </g>
    <g id="line2d_20"/>
    <g id="text_16">
     <!-- FedProx -->
     <g transform="translate(281.942813 39.452438)scale(0.1 -0.1)">
      <defs>
       <path d="M 1259 4147 
L 1259 2394 
L 2053 2394 
Q 2494 2394 2734 2622 
Q 2975 2850 2975 3272 
Q 2975 3691 2734 3919 
Q 2494 4147 2053 4147 
L 1259 4147 
z
M 628 4666 
L 2053 4666 
Q 2838 4666 3239 4311 
Q 3641 3956 3641 3272 
Q 3641 2581 3239 2228 
Q 2838 1875 2053 1875 
L 1259 1875 
L 1259 0 
L 628 0 
L 628 4666 
z
" id="DejaVuSans-50" transform="scale(0.015625)"/>
       <path d="M 3513 3500 
L 2247 1797 
L 3578 0 
L 2900 0 
L 1881 1375 
L 863 0 
L 184 0 
L 1544 1831 
L 300 3500 
L 978 3500 
L 1906 2253 
L 2834 3500 
L 3513 3500 
z
" id="DejaVuSans-78" transform="scale(0.015625)"/>
      </defs>
      <use xlink:href="#DejaVuSans-46"/>
      <use x="52.019531" xlink:href="#DejaVuSans-65"/>
      <use x="113.542969" xlink:href="#DejaVuSans-64"/>
      <use x="177.019531" xlink:href="#DejaVuSans-50"/>
      <use x="235.572266" xlink:href="#DejaVuSans-72"/>
      <use x="274.435547" xlink:href="#DejaVuSans-6f"/>
      <use x="332.492188" xlink:href="#DejaVuSans-78"/>
     </g>
    </g>
    <g id="line2d_21">
     <path d="M 341.111563 35.952438 
L 361.111563 35.952438 
" style="fill:none;stroke:#d62728;stroke-linecap:square;stroke-width:1.5;"/>
    </g>
    <g id="line2d_22"/>
    <g id="text_17">
     <!-- qFedAvg -->
     <g transform="translate(369.111563 39.452438)scale(0.1 -0.1)">
      <defs>
       <path d="M 947 1747 
Q 947 1113 1208 752 
Q 1469 391 1925 391 
Q 2381 391 2643 752 
Q 2906 1113 2906 1747 
Q 2906 2381 2643 2742 
Q 2381 3103 1925 3103 
Q 1469 3103 1208 2742 
Q 947 2381 947 1747 
z
M 2906 525 
Q 2725 213 2448 61 
Q 2172 -91 1784 -91 
Q 1150 -91 751 415 
Q 353 922 353 1747 
Q 353 2572 751 3078 
Q 1150 3584 1784 3584 
Q 2172 3584 2448 3432 
Q 2725 3281 2906 2969 
L 2906 3500 
L 3481 3500 
L 3481 -1331 
L 2906 -1331 
L 2906 525 
z
" id="DejaVuSans-71" transform="scale(0.015625)"/>
      </defs>
      <use xlink:href="#DejaVuSans-71"/>
      <use x="63.476562" xlink:href="#DejaVuSans-46"/>
      <use x="115.496094" xlink:href="#DejaVuSans-65"/>
      <use x="177.019531" xlink:href="#DejaVuSans-64"/>
      <use x="240.496094" xlink:href="#DejaVuSans-41"/>
      <use x="303.029297" xlink:href="#DejaVuSans-76"/>
      <use x="362.208984" xlink:href="#DejaVuSans-67"/>
     </g>
    </g>
   </g>
  </g>
 </g>
 <defs>
  <clipPath id="p110624b5c2">
   <rect height="255.26" width="405.43" x="44.57" y="48.38"/>
  </clipPath>
 </defs>
</svg>
