<?xml version="1.0" encoding="utf-8" standalone="no"?>
<!DOCTYPE svg PUBLIC "-//W3C//DTD SVG 1.1//EN"
  "http://www.w3.org/Graphics/SVG/1.1/DTD/svg11.dtd">
<svg height="432pt" version="1.1" viewBox="0 0 576 432" width="576pt" xmlns="http://www.w3.org/2000/svg" xmlns:xlink="http://www.w3.org/1999/xlink">
 <metadata>
  <rdf:RDF xmlns:cc="http://creativecommons.org/ns#" xmlns:dc="http://purl.org/dc/elements/1.1/" xmlns:rdf="http://www.w3.org/1999/02/22-rdf-syntax-ns#">
   <cc:Work>
    <dc:type rdf:resource="http://purl.org/dc/dcmitype/StillImage"/>
    <dc:date>2021-05-07T22:04:31.593453</dc:date>
    <dc:format>image/svg+xml</dc:format>
    <dc:creator>
     <cc:Agent>
      <dc:title>Matplotlib v3.4.1, https://matplotlib.org/</dc:title>
     </cc:Agent>
    </dc:creator>
   </cc:Work>
  </rdf:RDF>
 </metadata>
 <defs>
  <style type="text/css">*{stroke-linecap:butt;stroke-linejoin:round;}</style>
 </defs>
 <g id="figure_1">
  <g id="patch_1">
   <path d="M 0 432 
L 576 432 
L 576 0 
L 0 0 
z
" style="fill:#ffffff;"/>
  </g>
  <g id="axes_1">
   <g id="patch_2">
    <path d="M 60.77 376 
L 556.505 376 
L 556.505 56.601989 
L 60.77 56.601989 
z
" style="fill:#ffffff;"/>
   </g>
   <g id="PolyCollection_1">
    <path clip-path="url(#p3aa86e1f79)" d="M 83.303409 276.414573 
L 83.303409 313.067445 
L 92.500719 296.609103 
L 101.698029 244.651747 
L 110.895339 201.757765 
L 120.092648 202.94016 
L 129.289958 157.458778 
L 138.487268 171.154553 
L 147.684578 150.304237 
L 156.881888 129.099414 
L 166.079198 112.423881 
L 175.276507 126.97399 
L 184.473817 105.1525 
L 193.671127 112.128355 
L 202.868437 104.069656 
L 212.065747 103.327252 
L 221.263057 106.103748 
L 230.460366 101.298094 
L 239.657676 93.605029 
L 248.854986 94.608789 
L 258.052296 99.363241 
L 267.249606 107.395183 
L 276.446916 113.057318 
L 285.644225 93.861401 
L 294.841535 97.412287 
L 304.038845 99.380783 
L 313.236155 100.069896 
L 322.433465 100.593296 
L 331.630775 96.340182 
L 340.828084 88.381051 
L 350.025394 94.534568 
L 359.222704 98.56725 
L 368.420014 85.253809 
L 377.617324 87.706746 
L 386.814634 86.074407 
L 396.011943 79.669007 
L 405.209253 85.837617 
L 414.406563 85.141958 
L 423.603873 81.312829 
L 432.801183 82.582574 
L 441.998493 84.815548 
L 451.195802 80.721551 
L 460.393112 90.773786 
L 469.590422 89.815393 
L 478.787732 79.235845 
L 487.985042 83.74064 
L 497.182352 79.028274 
L 506.379661 84.617394 
L 515.576971 81.876336 
L 524.774281 80.121484 
L 533.971591 89.158595 
L 533.971591 73.857829 
L 533.971591 73.857829 
L 524.774281 71.820194 
L 515.576971 71.12008 
L 506.379661 73.30113 
L 497.182352 71.682876 
L 487.985042 71.365251 
L 478.787732 73.233202 
L 469.590422 77.77156 
L 460.393112 75.75843 
L 451.195802 73.681182 
L 441.998493 75.388241 
L 432.801183 77.445426 
L 423.603873 75.023589 
L 414.406563 76.116569 
L 405.209253 73.487224 
L 396.011943 72.62425 
L 386.814634 73.602014 
L 377.617324 72.848623 
L 368.420014 77.762614 
L 359.222704 77.809184 
L 350.025394 82.017656 
L 340.828084 82.018536 
L 331.630775 80.739411 
L 322.433465 79.826299 
L 313.236155 83.513912 
L 304.038845 76.116703 
L 294.841535 80.018884 
L 285.644225 86.558194 
L 276.446916 91.972822 
L 267.249606 84.626526 
L 258.052296 85.626883 
L 248.854986 83.701331 
L 239.657676 84.177722 
L 230.460366 87.032033 
L 221.263057 91.191649 
L 212.065747 89.046036 
L 202.868437 90.061529 
L 193.671127 88.507045 
L 184.473817 91.967108 
L 175.276507 97.217217 
L 166.079198 97.528369 
L 156.881888 108.451804 
L 147.684578 106.583838 
L 138.487268 116.496704 
L 129.289958 115.777731 
L 120.092648 130.064817 
L 110.895339 164.998817 
L 101.698029 207.362796 
L 92.500719 239.432874 
L 83.303409 276.414573 
z
" style="fill:#1f77b4;fill-opacity:0.5;"/>
   </g>
   <g id="PolyCollection_2">
    <path clip-path="url(#p3aa86e1f79)" d="M 83.303409 293.633632 
L 83.303409 353.858958 
L 92.500719 361.481909 
L 101.698029 350.59311 
L 110.895339 314.991219 
L 120.092648 361.160054 
L 129.289958 313.496421 
L 138.487268 314.099036 
L 147.684578 315.188233 
L 156.881888 320.413954 
L 166.079198 257.241672 
L 175.276507 295.409146 
L 184.473817 245.256596 
L 193.671127 301.71546 
L 202.868437 222.402386 
L 212.065747 257.063325 
L 221.263057 206.992874 
L 230.460366 211.121319 
L 239.657676 226.925627 
L 248.854986 198.889095 
L 258.052296 286.249878 
L 267.249606 276.350504 
L 276.446916 236.939327 
L 285.644225 229.881501 
L 294.841535 201.352481 
L 304.038845 190.807879 
L 313.236155 211.560046 
L 322.433465 206.531292 
L 331.630775 233.775114 
L 340.828084 195.131445 
L 350.025394 227.422506 
L 359.222704 180.130178 
L 368.420014 181.889699 
L 377.617324 202.626012 
L 386.814634 191.795151 
L 396.011943 189.493994 
L 405.209253 192.528504 
L 414.406563 194.590501 
L 423.603873 176.621993 
L 432.801183 207.517854 
L 441.998493 170.356927 
L 451.195802 169.76311 
L 460.393112 232.49721 
L 469.590422 222.617651 
L 478.787732 179.739768 
L 487.985042 181.987605 
L 497.182352 161.480906 
L 506.379661 174.135614 
L 515.576971 255.367118 
L 524.774281 242.033616 
L 533.971591 201.86889 
L 533.971591 155.043474 
L 533.971591 155.043474 
L 524.774281 125.426125 
L 515.576971 115.432625 
L 506.379661 146.564091 
L 497.182352 151.484055 
L 487.985042 161.21317 
L 478.787732 159.593635 
L 469.590422 165.057894 
L 460.393112 136.193058 
L 451.195802 147.069223 
L 441.998493 146.475406 
L 432.801183 161.699783 
L 423.603873 157.965091 
L 414.406563 153.708172 
L 405.209253 158.758592 
L 396.011943 147.905723 
L 386.814634 142.616142 
L 377.617324 140.398973 
L 368.420014 151.642646 
L 359.222704 156.91796 
L 350.025394 155.50672 
L 340.828084 157.386178 
L 331.630775 172.35834 
L 322.433465 178.683199 
L 313.236155 161.876541 
L 304.038845 166.631854 
L 294.841535 142.903031 
L 285.644225 169.04458 
L 276.446916 161.283596 
L 267.249606 182.871413 
L 258.052296 164.534137 
L 248.854986 180.524339 
L 239.657676 178.856248 
L 230.460366 182.179494 
L 221.263057 168.553189 
L 212.065747 179.481732 
L 202.868437 183.731069 
L 193.671127 194.949644 
L 184.473817 159.822121 
L 175.276507 179.633836 
L 166.079198 197.585505 
L 156.881888 194.35748 
L 147.684578 177.785289 
L 138.487268 179.050276 
L 129.289958 172.972885 
L 120.092648 254.866195 
L 110.895339 212.788646 
L 101.698029 325.728976 
L 92.500719 271.947512 
L 83.303409 293.633632 
z
" style="fill:#ff7f0e;fill-opacity:0.5;"/>
   </g>
   <g id="PolyCollection_3">
    <path clip-path="url(#p3aa86e1f79)" d="M 83.303409 266.931115 
L 83.303409 323.254062 
L 92.500719 280.05436 
L 101.698029 219.712871 
L 110.895339 198.901585 
L 120.092648 176.469858 
L 129.289958 179.503423 
L 138.487268 146.972907 
L 147.684578 144.422819 
L 156.881888 143.899227 
L 166.079198 145.188417 
L 175.276507 151.393803 
L 184.473817 111.99876 
L 193.671127 130.074957 
L 202.868437 123.955347 
L 212.065747 107.828635 
L 221.263057 123.469261 
L 230.460366 106.530893 
L 239.657676 113.61215 
L 248.854986 103.079936 
L 258.052296 104.38964 
L 267.249606 98.216499 
L 276.446916 111.735606 
L 285.644225 98.712451 
L 294.841535 96.87049 
L 304.038845 96.147209 
L 313.236155 94.563981 
L 322.433465 95.238073 
L 331.630775 96.857708 
L 340.828084 96.410932 
L 350.025394 94.803186 
L 359.222704 103.997516 
L 368.420014 98.683162 
L 377.617324 99.953188 
L 386.814634 95.535763 
L 396.011943 95.623419 
L 405.209253 94.079213 
L 414.406563 93.994514 
L 423.603873 95.093601 
L 432.801183 94.485788 
L 441.998493 96.931686 
L 451.195802 93.92417 
L 460.393112 96.185886 
L 469.590422 95.559932 
L 478.787732 93.64764 
L 487.985042 94.135347 
L 497.182352 94.308139 
L 506.379661 93.729814 
L 515.576971 93.651781 
L 524.774281 93.799066 
L 533.971591 95.249867 
L 533.971591 72.864456 
L 533.971591 72.864456 
L 524.774281 72.381571 
L 515.576971 74.98991 
L 506.379661 75.439245 
L 497.182352 75.2125 
L 487.985042 73.627396 
L 478.787732 74.994051 
L 469.590422 82.750188 
L 460.393112 75.795807 
L 451.195802 75.596469 
L 441.998493 81.026854 
L 432.801183 75.738009 
L 423.603873 78.997568 
L 414.406563 74.822967 
L 405.209253 78.957219 
L 396.011943 80.577225 
L 386.814634 82.774357 
L 377.617324 76.071667 
L 368.420014 87.53749 
L 359.222704 79.058923 
L 350.025394 77.881666 
L 340.828084 86.645507 
L 331.630775 89.187155 
L 322.433465 86.763628 
L 313.236155 81.460873 
L 304.038845 89.721864 
L 294.841535 86.889107 
L 285.644225 88.387149 
L 276.446916 86.966108 
L 267.249606 86.070467 
L 258.052296 82.885749 
L 248.854986 88.414404 
L 239.657676 93.527466 
L 230.460366 89.885557 
L 221.263057 96.678786 
L 212.065747 95.970978 
L 202.868437 84.414796 
L 193.671127 92.358355 
L 184.473817 92.152432 
L 175.276507 108.658485 
L 166.079198 112.930186 
L 156.881888 100.683576 
L 147.684578 118.793682 
L 138.487268 137.865716 
L 129.289958 134.164696 
L 120.092648 126.475095 
L 110.895339 156.780252 
L 101.698029 168.138464 
L 92.500719 242.451816 
L 83.303409 266.931115 
z
" style="fill:#2ca02c;fill-opacity:0.5;"/>
   </g>
   <g id="PolyCollection_4">
    <path clip-path="url(#p3aa86e1f79)" d="M 83.303409 271.855712 
L 83.303409 337.731013 
L 92.500719 323.708961 
L 101.698029 300.160805 
L 110.895339 280.802179 
L 120.092648 266.567075 
L 129.289958 258.291739 
L 138.487268 249.999678 
L 147.684578 243.707245 
L 156.881888 238.011223 
L 166.079198 231.820097 
L 175.276507 226.573085 
L 184.473817 221.272451 
L 193.671127 213.944138 
L 202.868437 205.941125 
L 212.065747 202.19778 
L 221.263057 199.887981 
L 230.460366 195.88651 
L 239.657676 191.244138 
L 248.854986 185.310246 
L 258.052296 182.168442 
L 267.249606 181.094131 
L 276.446916 181.307657 
L 285.644225 177.314635 
L 294.841535 176.66582 
L 304.038845 175.956533 
L 313.236155 172.257949 
L 322.433465 170.566946 
L 331.630775 170.325972 
L 340.828084 168.717899 
L 350.025394 166.647266 
L 359.222704 164.42594 
L 368.420014 164.962774 
L 377.617324 164.665701 
L 386.814634 164.434808 
L 396.011943 162.606739 
L 405.209253 162.842662 
L 414.406563 160.606954 
L 423.603873 161.566801 
L 432.801183 159.901567 
L 441.998493 159.003946 
L 451.195802 157.420856 
L 460.393112 155.861049 
L 469.590422 156.522821 
L 478.787732 157.794594 
L 487.985042 156.874643 
L 497.182352 156.497314 
L 506.379661 154.846996 
L 515.576971 154.154915 
L 524.774281 155.26048 
L 533.971591 154.981751 
L 533.971591 131.570645 
L 533.971591 131.570645 
L 524.774281 131.458565 
L 515.576971 131.119842 
L 506.379661 132.538643 
L 497.182352 133.165855 
L 487.985042 133.71898 
L 478.787732 133.104552 
L 469.590422 132.848713 
L 460.393112 133.163301 
L 451.195802 133.978236 
L 441.998493 134.117181 
L 432.801183 135.483202 
L 423.603873 135.859413 
L 414.406563 135.652721 
L 405.209253 136.986069 
L 396.011943 137.638614 
L 386.814634 137.79644 
L 377.617324 137.884957 
L 368.420014 138.476676 
L 359.222704 138.263591 
L 350.025394 139.208588 
L 340.828084 140.123741 
L 331.630775 140.709874 
L 322.433465 141.038282 
L 313.236155 141.694247 
L 304.038845 142.189651 
L 294.841535 141.896986 
L 285.644225 142.872994 
L 276.446916 144.490473 
L 267.249606 145.287269 
L 258.052296 146.462713 
L 248.854986 146.570556 
L 239.657676 147.802552 
L 230.460366 148.381835 
L 221.263057 148.907649 
L 212.065747 150.56964 
L 202.868437 152.492346 
L 193.671127 154.349373 
L 184.473817 155.28405 
L 175.276507 157.371501 
L 166.079198 159.137616 
L 156.881888 161.528891 
L 147.684578 163.845886 
L 138.487268 166.816335 
L 129.289958 174.716958 
L 120.092648 185.370121 
L 110.895339 206.478397 
L 101.698029 230.698367 
L 92.500719 251.270415 
L 83.303409 271.855712 
z
" style="fill:#d62728;fill-opacity:0.5;"/>
   </g>
   <g id="matplotlib.axis_1">
    <g id="xtick_1">
     <g id="line2d_1">
      <defs>
       <path d="M 0 0 
L 0 3.5 
" id="m1e2f00395e" style="stroke:#000000;stroke-width:0.8;"/>
      </defs>
      <g>
       <use style="stroke:#000000;stroke-width:0.8;" x="83.303409" xlink:href="#m1e2f00395e" y="376"/>
      </g>
     </g>
     <g id="text_1">
      <!-- 0 -->
      <g transform="translate(78.531534 394.397656)scale(0.15 -0.15)">
       <defs>
        <path d="M 2034 4250 
Q 1547 4250 1301 3770 
Q 1056 3291 1056 2328 
Q 1056 1369 1301 889 
Q 1547 409 2034 409 
Q 2525 409 2770 889 
Q 3016 1369 3016 2328 
Q 3016 3291 2770 3770 
Q 2525 4250 2034 4250 
z
M 2034 4750 
Q 2819 4750 3233 4129 
Q 3647 3509 3647 2328 
Q 3647 1150 3233 529 
Q 2819 -91 2034 -91 
Q 1250 -91 836 529 
Q 422 1150 422 2328 
Q 422 3509 836 4129 
Q 1250 4750 2034 4750 
z
" id="DejaVuSans-30" transform="scale(0.015625)"/>
       </defs>
       <use xlink:href="#DejaVuSans-30"/>
      </g>
     </g>
    </g>
    <g id="xtick_2">
     <g id="line2d_2">
      <g>
       <use style="stroke:#000000;stroke-width:0.8;" x="175.276507" xlink:href="#m1e2f00395e" y="376"/>
      </g>
     </g>
     <g id="text_2">
      <!-- 10 -->
      <g transform="translate(165.732757 394.397656)scale(0.15 -0.15)">
       <defs>
        <path d="M 794 531 
L 1825 531 
L 1825 4091 
L 703 3866 
L 703 4441 
L 1819 4666 
L 2450 4666 
L 2450 531 
L 3481 531 
L 3481 0 
L 794 0 
L 794 531 
z
" id="DejaVuSans-31" transform="scale(0.015625)"/>
       </defs>
       <use xlink:href="#DejaVuSans-31"/>
       <use x="63.623047" xlink:href="#DejaVuSans-30"/>
      </g>
     </g>
    </g>
    <g id="xtick_3">
     <g id="line2d_3">
      <g>
       <use style="stroke:#000000;stroke-width:0.8;" x="267.249606" xlink:href="#m1e2f00395e" y="376"/>
      </g>
     </g>
     <g id="text_3">
      <!-- 20 -->
      <g transform="translate(257.705856 394.397656)scale(0.15 -0.15)">
       <defs>
        <path d="M 1228 531 
L 3431 531 
L 3431 0 
L 469 0 
L 469 531 
Q 828 903 1448 1529 
Q 2069 2156 2228 2338 
Q 2531 2678 2651 2914 
Q 2772 3150 2772 3378 
Q 2772 3750 2511 3984 
Q 2250 4219 1831 4219 
Q 1534 4219 1204 4116 
Q 875 4013 500 3803 
L 500 4441 
Q 881 4594 1212 4672 
Q 1544 4750 1819 4750 
Q 2544 4750 2975 4387 
Q 3406 4025 3406 3419 
Q 3406 3131 3298 2873 
Q 3191 2616 2906 2266 
Q 2828 2175 2409 1742 
Q 1991 1309 1228 531 
z
" id="DejaVuSans-32" transform="scale(0.015625)"/>
       </defs>
       <use xlink:href="#DejaVuSans-32"/>
       <use x="63.623047" xlink:href="#DejaVuSans-30"/>
      </g>
     </g>
    </g>
    <g id="xtick_4">
     <g id="line2d_4">
      <g>
       <use style="stroke:#000000;stroke-width:0.8;" x="359.222704" xlink:href="#m1e2f00395e" y="376"/>
      </g>
     </g>
     <g id="text_4">
      <!-- 30 -->
      <g transform="translate(349.678954 394.397656)scale(0.15 -0.15)">
       <defs>
        <path d="M 2597 2516 
Q 3050 2419 3304 2112 
Q 3559 1806 3559 1356 
Q 3559 666 3084 287 
Q 2609 -91 1734 -91 
Q 1441 -91 1130 -33 
Q 819 25 488 141 
L 488 750 
Q 750 597 1062 519 
Q 1375 441 1716 441 
Q 2309 441 2620 675 
Q 2931 909 2931 1356 
Q 2931 1769 2642 2001 
Q 2353 2234 1838 2234 
L 1294 2234 
L 1294 2753 
L 1863 2753 
Q 2328 2753 2575 2939 
Q 2822 3125 2822 3475 
Q 2822 3834 2567 4026 
Q 2313 4219 1838 4219 
Q 1578 4219 1281 4162 
Q 984 4106 628 3988 
L 628 4550 
Q 988 4650 1302 4700 
Q 1616 4750 1894 4750 
Q 2613 4750 3031 4423 
Q 3450 4097 3450 3541 
Q 3450 3153 3228 2886 
Q 3006 2619 2597 2516 
z
" id="DejaVuSans-33" transform="scale(0.015625)"/>
       </defs>
       <use xlink:href="#DejaVuSans-33"/>
       <use x="63.623047" xlink:href="#DejaVuSans-30"/>
      </g>
     </g>
    </g>
    <g id="xtick_5">
     <g id="line2d_5">
      <g>
       <use style="stroke:#000000;stroke-width:0.8;" x="451.195802" xlink:href="#m1e2f00395e" y="376"/>
      </g>
     </g>
     <g id="text_5">
      <!-- 40 -->
      <g transform="translate(441.652052 394.397656)scale(0.15 -0.15)">
       <defs>
        <path d="M 2419 4116 
L 825 1625 
L 2419 1625 
L 2419 4116 
z
M 2253 4666 
L 3047 4666 
L 3047 1625 
L 3713 1625 
L 3713 1100 
L 3047 1100 
L 3047 0 
L 2419 0 
L 2419 1100 
L 313 1100 
L 313 1709 
L 2253 4666 
z
" id="DejaVuSans-34" transform="scale(0.015625)"/>
       </defs>
       <use xlink:href="#DejaVuSans-34"/>
       <use x="63.623047" xlink:href="#DejaVuSans-30"/>
      </g>
     </g>
    </g>
    <g id="xtick_6">
     <g id="line2d_6">
      <g>
       <use style="stroke:#000000;stroke-width:0.8;" x="543.168901" xlink:href="#m1e2f00395e" y="376"/>
      </g>
     </g>
     <g id="text_6">
      <!-- 50 -->
      <g transform="translate(533.625151 394.397656)scale(0.15 -0.15)">
       <defs>
        <path d="M 691 4666 
L 3169 4666 
L 3169 4134 
L 1269 4134 
L 1269 2991 
Q 1406 3038 1543 3061 
Q 1681 3084 1819 3084 
Q 2600 3084 3056 2656 
Q 3513 2228 3513 1497 
Q 3513 744 3044 326 
Q 2575 -91 1722 -91 
Q 1428 -91 1123 -41 
Q 819 9 494 109 
L 494 744 
Q 775 591 1075 516 
Q 1375 441 1709 441 
Q 2250 441 2565 725 
Q 2881 1009 2881 1497 
Q 2881 1984 2565 2268 
Q 2250 2553 1709 2553 
Q 1456 2553 1204 2497 
Q 953 2441 691 2322 
L 691 4666 
z
" id="DejaVuSans-35" transform="scale(0.015625)"/>
       </defs>
       <use xlink:href="#DejaVuSans-35"/>
       <use x="63.623047" xlink:href="#DejaVuSans-30"/>
      </g>
     </g>
    </g>
    <g id="text_7">
     <!-- Global Communication Rounds -->
     <g transform="translate(193.194922 412.914844)scale(0.15 -0.15)">
      <defs>
       <path d="M 3809 666 
L 3809 1919 
L 2778 1919 
L 2778 2438 
L 4434 2438 
L 4434 434 
Q 4069 175 3628 42 
Q 3188 -91 2688 -91 
Q 1594 -91 976 548 
Q 359 1188 359 2328 
Q 359 3472 976 4111 
Q 1594 4750 2688 4750 
Q 3144 4750 3555 4637 
Q 3966 4525 4313 4306 
L 4313 3634 
Q 3963 3931 3569 4081 
Q 3175 4231 2741 4231 
Q 1884 4231 1454 3753 
Q 1025 3275 1025 2328 
Q 1025 1384 1454 906 
Q 1884 428 2741 428 
Q 3075 428 3337 486 
Q 3600 544 3809 666 
z
" id="DejaVuSans-47" transform="scale(0.015625)"/>
       <path d="M 603 4863 
L 1178 4863 
L 1178 0 
L 603 0 
L 603 4863 
z
" id="DejaVuSans-6c" transform="scale(0.015625)"/>
       <path d="M 1959 3097 
Q 1497 3097 1228 2736 
Q 959 2375 959 1747 
Q 959 1119 1226 758 
Q 1494 397 1959 397 
Q 2419 397 2687 759 
Q 2956 1122 2956 1747 
Q 2956 2369 2687 2733 
Q 2419 3097 1959 3097 
z
M 1959 3584 
Q 2709 3584 3137 3096 
Q 3566 2609 3566 1747 
Q 3566 888 3137 398 
Q 2709 -91 1959 -91 
Q 1206 -91 779 398 
Q 353 888 353 1747 
Q 353 2609 779 3096 
Q 1206 3584 1959 3584 
z
" id="DejaVuSans-6f" transform="scale(0.015625)"/>
       <path d="M 3116 1747 
Q 3116 2381 2855 2742 
Q 2594 3103 2138 3103 
Q 1681 3103 1420 2742 
Q 1159 2381 1159 1747 
Q 1159 1113 1420 752 
Q 1681 391 2138 391 
Q 2594 391 2855 752 
Q 3116 1113 3116 1747 
z
M 1159 2969 
Q 1341 3281 1617 3432 
Q 1894 3584 2278 3584 
Q 2916 3584 3314 3078 
Q 3713 2572 3713 1747 
Q 3713 922 3314 415 
Q 2916 -91 2278 -91 
Q 1894 -91 1617 61 
Q 1341 213 1159 525 
L 1159 0 
L 581 0 
L 581 4863 
L 1159 4863 
L 1159 2969 
z
" id="DejaVuSans-62" transform="scale(0.015625)"/>
       <path d="M 2194 1759 
Q 1497 1759 1228 1600 
Q 959 1441 959 1056 
Q 959 750 1161 570 
Q 1363 391 1709 391 
Q 2188 391 2477 730 
Q 2766 1069 2766 1631 
L 2766 1759 
L 2194 1759 
z
M 3341 1997 
L 3341 0 
L 2766 0 
L 2766 531 
Q 2569 213 2275 61 
Q 1981 -91 1556 -91 
Q 1019 -91 701 211 
Q 384 513 384 1019 
Q 384 1609 779 1909 
Q 1175 2209 1959 2209 
L 2766 2209 
L 2766 2266 
Q 2766 2663 2505 2880 
Q 2244 3097 1772 3097 
Q 1472 3097 1187 3025 
Q 903 2953 641 2809 
L 641 3341 
Q 956 3463 1253 3523 
Q 1550 3584 1831 3584 
Q 2591 3584 2966 3190 
Q 3341 2797 3341 1997 
z
" id="DejaVuSans-61" transform="scale(0.015625)"/>
       <path id="DejaVuSans-20" transform="scale(0.015625)"/>
       <path d="M 4122 4306 
L 4122 3641 
Q 3803 3938 3442 4084 
Q 3081 4231 2675 4231 
Q 1875 4231 1450 3742 
Q 1025 3253 1025 2328 
Q 1025 1406 1450 917 
Q 1875 428 2675 428 
Q 3081 428 3442 575 
Q 3803 722 4122 1019 
L 4122 359 
Q 3791 134 3420 21 
Q 3050 -91 2638 -91 
Q 1578 -91 968 557 
Q 359 1206 359 2328 
Q 359 3453 968 4101 
Q 1578 4750 2638 4750 
Q 3056 4750 3426 4639 
Q 3797 4528 4122 4306 
z
" id="DejaVuSans-43" transform="scale(0.015625)"/>
       <path d="M 3328 2828 
Q 3544 3216 3844 3400 
Q 4144 3584 4550 3584 
Q 5097 3584 5394 3201 
Q 5691 2819 5691 2113 
L 5691 0 
L 5113 0 
L 5113 2094 
Q 5113 2597 4934 2840 
Q 4756 3084 4391 3084 
Q 3944 3084 3684 2787 
Q 3425 2491 3425 1978 
L 3425 0 
L 2847 0 
L 2847 2094 
Q 2847 2600 2669 2842 
Q 2491 3084 2119 3084 
Q 1678 3084 1418 2786 
Q 1159 2488 1159 1978 
L 1159 0 
L 581 0 
L 581 3500 
L 1159 3500 
L 1159 2956 
Q 1356 3278 1631 3431 
Q 1906 3584 2284 3584 
Q 2666 3584 2933 3390 
Q 3200 3197 3328 2828 
z
" id="DejaVuSans-6d" transform="scale(0.015625)"/>
       <path d="M 544 1381 
L 544 3500 
L 1119 3500 
L 1119 1403 
Q 1119 906 1312 657 
Q 1506 409 1894 409 
Q 2359 409 2629 706 
Q 2900 1003 2900 1516 
L 2900 3500 
L 3475 3500 
L 3475 0 
L 2900 0 
L 2900 538 
Q 2691 219 2414 64 
Q 2138 -91 1772 -91 
Q 1169 -91 856 284 
Q 544 659 544 1381 
z
M 1991 3584 
L 1991 3584 
z
" id="DejaVuSans-75" transform="scale(0.015625)"/>
       <path d="M 3513 2113 
L 3513 0 
L 2938 0 
L 2938 2094 
Q 2938 2591 2744 2837 
Q 2550 3084 2163 3084 
Q 1697 3084 1428 2787 
Q 1159 2491 1159 1978 
L 1159 0 
L 581 0 
L 581 3500 
L 1159 3500 
L 1159 2956 
Q 1366 3272 1645 3428 
Q 1925 3584 2291 3584 
Q 2894 3584 3203 3211 
Q 3513 2838 3513 2113 
z
" id="DejaVuSans-6e" transform="scale(0.015625)"/>
       <path d="M 603 3500 
L 1178 3500 
L 1178 0 
L 603 0 
L 603 3500 
z
M 603 4863 
L 1178 4863 
L 1178 4134 
L 603 4134 
L 603 4863 
z
" id="DejaVuSans-69" transform="scale(0.015625)"/>
       <path d="M 3122 3366 
L 3122 2828 
Q 2878 2963 2633 3030 
Q 2388 3097 2138 3097 
Q 1578 3097 1268 2742 
Q 959 2388 959 1747 
Q 959 1106 1268 751 
Q 1578 397 2138 397 
Q 2388 397 2633 464 
Q 2878 531 3122 666 
L 3122 134 
Q 2881 22 2623 -34 
Q 2366 -91 2075 -91 
Q 1284 -91 818 406 
Q 353 903 353 1747 
Q 353 2603 823 3093 
Q 1294 3584 2113 3584 
Q 2378 3584 2631 3529 
Q 2884 3475 3122 3366 
z
" id="DejaVuSans-63" transform="scale(0.015625)"/>
       <path d="M 1172 4494 
L 1172 3500 
L 2356 3500 
L 2356 3053 
L 1172 3053 
L 1172 1153 
Q 1172 725 1289 603 
Q 1406 481 1766 481 
L 2356 481 
L 2356 0 
L 1766 0 
Q 1100 0 847 248 
Q 594 497 594 1153 
L 594 3053 
L 172 3053 
L 172 3500 
L 594 3500 
L 594 4494 
L 1172 4494 
z
" id="DejaVuSans-74" transform="scale(0.015625)"/>
       <path d="M 2841 2188 
Q 3044 2119 3236 1894 
Q 3428 1669 3622 1275 
L 4263 0 
L 3584 0 
L 2988 1197 
Q 2756 1666 2539 1819 
Q 2322 1972 1947 1972 
L 1259 1972 
L 1259 0 
L 628 0 
L 628 4666 
L 2053 4666 
Q 2853 4666 3247 4331 
Q 3641 3997 3641 3322 
Q 3641 2881 3436 2590 
Q 3231 2300 2841 2188 
z
M 1259 4147 
L 1259 2491 
L 2053 2491 
Q 2509 2491 2742 2702 
Q 2975 2913 2975 3322 
Q 2975 3731 2742 3939 
Q 2509 4147 2053 4147 
L 1259 4147 
z
" id="DejaVuSans-52" transform="scale(0.015625)"/>
       <path d="M 2906 2969 
L 2906 4863 
L 3481 4863 
L 3481 0 
L 2906 0 
L 2906 525 
Q 2725 213 2448 61 
Q 2172 -91 1784 -91 
Q 1150 -91 751 415 
Q 353 922 353 1747 
Q 353 2572 751 3078 
Q 1150 3584 1784 3584 
Q 2172 3584 2448 3432 
Q 2725 3281 2906 2969 
z
M 947 1747 
Q 947 1113 1208 752 
Q 1469 391 1925 391 
Q 2381 391 2643 752 
Q 2906 1113 2906 1747 
Q 2906 2381 2643 2742 
Q 2381 3103 1925 3103 
Q 1469 3103 1208 2742 
Q 947 2381 947 1747 
z
" id="DejaVuSans-64" transform="scale(0.015625)"/>
       <path d="M 2834 3397 
L 2834 2853 
Q 2591 2978 2328 3040 
Q 2066 3103 1784 3103 
Q 1356 3103 1142 2972 
Q 928 2841 928 2578 
Q 928 2378 1081 2264 
Q 1234 2150 1697 2047 
L 1894 2003 
Q 2506 1872 2764 1633 
Q 3022 1394 3022 966 
Q 3022 478 2636 193 
Q 2250 -91 1575 -91 
Q 1294 -91 989 -36 
Q 684 19 347 128 
L 347 722 
Q 666 556 975 473 
Q 1284 391 1588 391 
Q 1994 391 2212 530 
Q 2431 669 2431 922 
Q 2431 1156 2273 1281 
Q 2116 1406 1581 1522 
L 1381 1569 
Q 847 1681 609 1914 
Q 372 2147 372 2553 
Q 372 3047 722 3315 
Q 1072 3584 1716 3584 
Q 2034 3584 2315 3537 
Q 2597 3491 2834 3397 
z
" id="DejaVuSans-73" transform="scale(0.015625)"/>
      </defs>
      <use xlink:href="#DejaVuSans-47"/>
      <use x="77.490234" xlink:href="#DejaVuSans-6c"/>
      <use x="105.273438" xlink:href="#DejaVuSans-6f"/>
      <use x="166.455078" xlink:href="#DejaVuSans-62"/>
      <use x="229.931641" xlink:href="#DejaVuSans-61"/>
      <use x="291.210938" xlink:href="#DejaVuSans-6c"/>
      <use x="318.994141" xlink:href="#DejaVuSans-20"/>
      <use x="350.78125" xlink:href="#DejaVuSans-43"/>
      <use x="420.605469" xlink:href="#DejaVuSans-6f"/>
      <use x="481.787109" xlink:href="#DejaVuSans-6d"/>
      <use x="579.199219" xlink:href="#DejaVuSans-6d"/>
      <use x="676.611328" xlink:href="#DejaVuSans-75"/>
      <use x="739.990234" xlink:href="#DejaVuSans-6e"/>
      <use x="803.369141" xlink:href="#DejaVuSans-69"/>
      <use x="831.152344" xlink:href="#DejaVuSans-63"/>
      <use x="886.132812" xlink:href="#DejaVuSans-61"/>
      <use x="947.412109" xlink:href="#DejaVuSans-74"/>
      <use x="986.621094" xlink:href="#DejaVuSans-69"/>
      <use x="1014.404297" xlink:href="#DejaVuSans-6f"/>
      <use x="1075.585938" xlink:href="#DejaVuSans-6e"/>
      <use x="1138.964844" xlink:href="#DejaVuSans-20"/>
      <use x="1170.751953" xlink:href="#DejaVuSans-52"/>
      <use x="1235.734375" xlink:href="#DejaVuSans-6f"/>
      <use x="1296.916016" xlink:href="#DejaVuSans-75"/>
      <use x="1360.294922" xlink:href="#DejaVuSans-6e"/>
      <use x="1423.673828" xlink:href="#DejaVuSans-64"/>
      <use x="1487.150391" xlink:href="#DejaVuSans-73"/>
     </g>
    </g>
   </g>
   <g id="matplotlib.axis_2">
    <g id="ytick_1">
     <g id="line2d_7">
      <defs>
       <path d="M 0 0 
L -3.5 0 
" id="m21b7095011" style="stroke:#000000;stroke-width:0.8;"/>
      </defs>
      <g>
       <use style="stroke:#000000;stroke-width:0.8;" x="60.77" xlink:href="#m21b7095011" y="332.62367"/>
      </g>
     </g>
     <g id="text_8">
      <!-- 20 -->
      <g transform="translate(34.6825 338.322498)scale(0.15 -0.15)">
       <use xlink:href="#DejaVuSans-32"/>
       <use x="63.623047" xlink:href="#DejaVuSans-30"/>
      </g>
     </g>
    </g>
    <g id="ytick_2">
     <g id="line2d_8">
      <g>
       <use style="stroke:#000000;stroke-width:0.8;" x="60.77" xlink:href="#m21b7095011" y="263.186774"/>
      </g>
     </g>
     <g id="text_9">
      <!-- 40 -->
      <g transform="translate(34.6825 268.885602)scale(0.15 -0.15)">
       <use xlink:href="#DejaVuSans-34"/>
       <use x="63.623047" xlink:href="#DejaVuSans-30"/>
      </g>
     </g>
    </g>
    <g id="ytick_3">
     <g id="line2d_9">
      <g>
       <use style="stroke:#000000;stroke-width:0.8;" x="60.77" xlink:href="#m21b7095011" y="193.749878"/>
      </g>
     </g>
     <g id="text_10">
      <!-- 60 -->
      <g transform="translate(34.6825 199.448706)scale(0.15 -0.15)">
       <defs>
        <path d="M 2113 2584 
Q 1688 2584 1439 2293 
Q 1191 2003 1191 1497 
Q 1191 994 1439 701 
Q 1688 409 2113 409 
Q 2538 409 2786 701 
Q 3034 994 3034 1497 
Q 3034 2003 2786 2293 
Q 2538 2584 2113 2584 
z
M 3366 4563 
L 3366 3988 
Q 3128 4100 2886 4159 
Q 2644 4219 2406 4219 
Q 1781 4219 1451 3797 
Q 1122 3375 1075 2522 
Q 1259 2794 1537 2939 
Q 1816 3084 2150 3084 
Q 2853 3084 3261 2657 
Q 3669 2231 3669 1497 
Q 3669 778 3244 343 
Q 2819 -91 2113 -91 
Q 1303 -91 875 529 
Q 447 1150 447 2328 
Q 447 3434 972 4092 
Q 1497 4750 2381 4750 
Q 2619 4750 2861 4703 
Q 3103 4656 3366 4563 
z
" id="DejaVuSans-36" transform="scale(0.015625)"/>
       </defs>
       <use xlink:href="#DejaVuSans-36"/>
       <use x="63.623047" xlink:href="#DejaVuSans-30"/>
      </g>
     </g>
    </g>
    <g id="ytick_4">
     <g id="line2d_10">
      <g>
       <use style="stroke:#000000;stroke-width:0.8;" x="60.77" xlink:href="#m21b7095011" y="124.312982"/>
      </g>
     </g>
     <g id="text_11">
      <!-- 80 -->
      <g transform="translate(34.6825 130.01181)scale(0.15 -0.15)">
       <defs>
        <path d="M 2034 2216 
Q 1584 2216 1326 1975 
Q 1069 1734 1069 1313 
Q 1069 891 1326 650 
Q 1584 409 2034 409 
Q 2484 409 2743 651 
Q 3003 894 3003 1313 
Q 3003 1734 2745 1975 
Q 2488 2216 2034 2216 
z
M 1403 2484 
Q 997 2584 770 2862 
Q 544 3141 544 3541 
Q 544 4100 942 4425 
Q 1341 4750 2034 4750 
Q 2731 4750 3128 4425 
Q 3525 4100 3525 3541 
Q 3525 3141 3298 2862 
Q 3072 2584 2669 2484 
Q 3125 2378 3379 2068 
Q 3634 1759 3634 1313 
Q 3634 634 3220 271 
Q 2806 -91 2034 -91 
Q 1263 -91 848 271 
Q 434 634 434 1313 
Q 434 1759 690 2068 
Q 947 2378 1403 2484 
z
M 1172 3481 
Q 1172 3119 1398 2916 
Q 1625 2713 2034 2713 
Q 2441 2713 2670 2916 
Q 2900 3119 2900 3481 
Q 2900 3844 2670 4047 
Q 2441 4250 2034 4250 
Q 1625 4250 1398 4047 
Q 1172 3844 1172 3481 
z
" id="DejaVuSans-38" transform="scale(0.015625)"/>
       </defs>
       <use xlink:href="#DejaVuSans-38"/>
       <use x="63.623047" xlink:href="#DejaVuSans-30"/>
      </g>
     </g>
    </g>
    <g id="text_12">
     <!-- Test Accuracy -->
     <g transform="translate(27.562969 267.694744)rotate(-90)scale(0.15 -0.15)">
      <defs>
       <path d="M -19 4666 
L 3928 4666 
L 3928 4134 
L 2272 4134 
L 2272 0 
L 1638 0 
L 1638 4134 
L -19 4134 
L -19 4666 
z
" id="DejaVuSans-54" transform="scale(0.015625)"/>
       <path d="M 3597 1894 
L 3597 1613 
L 953 1613 
Q 991 1019 1311 708 
Q 1631 397 2203 397 
Q 2534 397 2845 478 
Q 3156 559 3463 722 
L 3463 178 
Q 3153 47 2828 -22 
Q 2503 -91 2169 -91 
Q 1331 -91 842 396 
Q 353 884 353 1716 
Q 353 2575 817 3079 
Q 1281 3584 2069 3584 
Q 2775 3584 3186 3129 
Q 3597 2675 3597 1894 
z
M 3022 2063 
Q 3016 2534 2758 2815 
Q 2500 3097 2075 3097 
Q 1594 3097 1305 2825 
Q 1016 2553 972 2059 
L 3022 2063 
z
" id="DejaVuSans-65" transform="scale(0.015625)"/>
       <path d="M 2188 4044 
L 1331 1722 
L 3047 1722 
L 2188 4044 
z
M 1831 4666 
L 2547 4666 
L 4325 0 
L 3669 0 
L 3244 1197 
L 1141 1197 
L 716 0 
L 50 0 
L 1831 4666 
z
" id="DejaVuSans-41" transform="scale(0.015625)"/>
       <path d="M 2631 2963 
Q 2534 3019 2420 3045 
Q 2306 3072 2169 3072 
Q 1681 3072 1420 2755 
Q 1159 2438 1159 1844 
L 1159 0 
L 581 0 
L 581 3500 
L 1159 3500 
L 1159 2956 
Q 1341 3275 1631 3429 
Q 1922 3584 2338 3584 
Q 2397 3584 2469 3576 
Q 2541 3569 2628 3553 
L 2631 2963 
z
" id="DejaVuSans-72" transform="scale(0.015625)"/>
       <path d="M 2059 -325 
Q 1816 -950 1584 -1140 
Q 1353 -1331 966 -1331 
L 506 -1331 
L 506 -850 
L 844 -850 
Q 1081 -850 1212 -737 
Q 1344 -625 1503 -206 
L 1606 56 
L 191 3500 
L 800 3500 
L 1894 763 
L 2988 3500 
L 3597 3500 
L 2059 -325 
z
" id="DejaVuSans-79" transform="scale(0.015625)"/>
      </defs>
      <use xlink:href="#DejaVuSans-54"/>
      <use x="44.083984" xlink:href="#DejaVuSans-65"/>
      <use x="105.607422" xlink:href="#DejaVuSans-73"/>
      <use x="157.707031" xlink:href="#DejaVuSans-74"/>
      <use x="196.916016" xlink:href="#DejaVuSans-20"/>
      <use x="228.703125" xlink:href="#DejaVuSans-41"/>
      <use x="295.361328" xlink:href="#DejaVuSans-63"/>
      <use x="350.341797" xlink:href="#DejaVuSans-63"/>
      <use x="405.322266" xlink:href="#DejaVuSans-75"/>
      <use x="468.701172" xlink:href="#DejaVuSans-72"/>
      <use x="509.814453" xlink:href="#DejaVuSans-61"/>
      <use x="571.09375" xlink:href="#DejaVuSans-63"/>
      <use x="626.074219" xlink:href="#DejaVuSans-79"/>
     </g>
    </g>
   </g>
   <g id="line2d_11">
    <path clip-path="url(#p3aa86e1f79)" d="M 83.303409 294.741009 
L 92.500719 268.020988 
L 101.698029 226.007272 
L 110.895339 183.378291 
L 120.092648 166.502488 
L 129.289958 136.618255 
L 138.487268 143.825629 
L 147.684578 128.444038 
L 156.881888 118.775609 
L 166.079198 104.976125 
L 175.276507 112.095604 
L 184.473817 98.559804 
L 193.671127 100.3177 
L 202.868437 97.065592 
L 212.065747 96.186644 
L 221.263057 98.647699 
L 230.460366 94.165064 
L 239.657676 88.891375 
L 248.854986 89.15506 
L 258.052296 92.495062 
L 267.249606 96.010855 
L 276.446916 102.51507 
L 285.644225 90.209797 
L 294.841535 88.715586 
L 304.038845 87.748743 
L 313.236155 91.791904 
L 322.433465 90.209797 
L 331.630775 88.539796 
L 340.828084 85.199794 
L 350.025394 88.276112 
L 359.222704 88.188217 
L 368.420014 81.508212 
L 377.617324 80.277684 
L 386.814634 79.83821 
L 396.011943 76.146629 
L 405.209253 79.662421 
L 414.406563 80.629264 
L 423.603873 78.168209 
L 432.801183 80.014 
L 441.998493 80.101895 
L 451.195802 77.201366 
L 460.393112 83.266108 
L 469.590422 83.793477 
L 478.787732 76.234523 
L 487.985042 77.552946 
L 497.182352 75.355575 
L 506.379661 78.959262 
L 515.576971 76.498208 
L 524.774281 75.970839 
L 533.971591 81.508212 
" style="fill:none;stroke:#1f77b4;stroke-linecap:square;stroke-width:1.5;"/>
   </g>
   <g id="line2d_12">
    <path clip-path="url(#p3aa86e1f79)" d="M 83.303409 323.746295 
L 92.500719 316.714711 
L 101.698029 338.161043 
L 110.895339 263.889933 
L 120.092648 308.013125 
L 129.289958 243.234653 
L 138.487268 246.574656 
L 147.684578 246.486761 
L 156.881888 257.385717 
L 166.079198 227.413588 
L 175.276507 237.521491 
L 184.473817 202.539359 
L 193.671127 248.332552 
L 202.868437 203.066727 
L 212.065747 218.272529 
L 221.263057 187.773031 
L 230.460366 196.650407 
L 239.657676 202.890938 
L 248.854986 189.706717 
L 258.052296 225.392008 
L 267.249606 229.610959 
L 276.446916 199.111461 
L 285.644225 199.46304 
L 294.841535 172.127756 
L 304.038845 178.719866 
L 313.236155 186.718294 
L 322.433465 192.607246 
L 331.630775 203.066727 
L 340.828084 176.258812 
L 350.025394 191.464613 
L 359.222704 168.524069 
L 368.420014 166.766173 
L 377.617324 171.512492 
L 386.814634 167.205647 
L 396.011943 168.699859 
L 405.209253 175.643548 
L 414.406563 174.149336 
L 423.603873 167.293542 
L 432.801183 184.608818 
L 441.998493 158.416166 
L 451.195802 158.416166 
L 460.393112 184.345134 
L 469.590422 193.837773 
L 478.787732 169.666701 
L 487.985042 171.600387 
L 497.182352 156.482481 
L 506.379661 160.349852 
L 515.576971 185.399872 
L 524.774281 183.72987 
L 533.971591 178.456182 
" style="fill:none;stroke:#ff7f0e;stroke-linecap:square;stroke-width:1.5;"/>
   </g>
   <g id="line2d_13">
    <path clip-path="url(#p3aa86e1f79)" d="M 83.303409 295.092588 
L 92.500719 261.253088 
L 101.698029 193.925668 
L 110.895339 177.840918 
L 120.092648 151.472477 
L 129.289958 156.83406 
L 138.487268 142.419312 
L 147.684578 131.608251 
L 156.881888 122.291401 
L 166.079198 129.059301 
L 175.276507 130.026144 
L 184.473817 102.075596 
L 193.671127 111.216656 
L 202.868437 104.185071 
L 212.065747 101.899807 
L 221.263057 110.074023 
L 230.460366 98.208225 
L 239.657676 103.569808 
L 248.854986 95.74717 
L 258.052296 93.637695 
L 267.249606 92.143483 
L 276.446916 99.350857 
L 285.644225 93.5498 
L 294.841535 91.879799 
L 304.038845 92.934536 
L 313.236155 88.012427 
L 322.433465 91.000851 
L 331.630775 93.022431 
L 340.828084 91.52822 
L 350.025394 86.342426 
L 359.222704 91.52822 
L 368.420014 93.110326 
L 377.617324 88.012427 
L 386.814634 89.15506 
L 396.011943 88.100322 
L 405.209253 86.518216 
L 414.406563 84.40874 
L 423.603873 87.045584 
L 432.801183 85.111899 
L 441.998493 88.97927 
L 451.195802 84.76032 
L 460.393112 85.990847 
L 469.590422 89.15506 
L 478.787732 84.320846 
L 487.985042 83.881371 
L 497.182352 84.76032 
L 506.379661 84.58453 
L 515.576971 84.320846 
L 524.774281 83.090318 
L 533.971591 84.057161 
" style="fill:none;stroke:#2ca02c;stroke-linecap:square;stroke-width:1.5;"/>
   </g>
   <g id="line2d_14">
    <path clip-path="url(#p3aa86e1f79)" d="M 83.303409 304.793362 
L 92.500719 287.489688 
L 101.698029 265.429586 
L 110.895339 243.640288 
L 120.092648 225.968598 
L 129.289958 216.504349 
L 138.487268 208.408007 
L 147.684578 203.776566 
L 156.881888 199.770057 
L 166.079198 195.478857 
L 175.276507 191.972293 
L 184.473817 188.278251 
L 193.671127 184.146755 
L 202.868437 179.216736 
L 212.065747 176.38371 
L 221.263057 174.397815 
L 230.460366 172.134172 
L 239.657676 169.523345 
L 248.854986 165.940401 
L 258.052296 164.315578 
L 267.249606 163.1907 
L 276.446916 162.899065 
L 285.644225 160.093814 
L 294.841535 159.281403 
L 304.038845 159.073092 
L 313.236155 156.976098 
L 322.433465 155.802614 
L 331.630775 155.517923 
L 340.828084 154.42082 
L 350.025394 152.927927 
L 359.222704 151.344766 
L 368.420014 151.719725 
L 377.617324 151.275329 
L 386.814634 151.115624 
L 396.011943 150.122676 
L 405.209253 149.914365 
L 414.406563 148.129837 
L 423.603873 148.713107 
L 432.801183 147.692385 
L 441.998493 146.560563 
L 451.195802 145.699546 
L 460.393112 144.512175 
L 469.590422 144.685767 
L 478.787732 145.449573 
L 487.985042 145.296812 
L 497.182352 144.831585 
L 506.379661 143.69282 
L 515.576971 142.637379 
L 524.774281 143.359522 
L 533.971591 143.276198 
" style="fill:none;stroke:#d62728;stroke-linecap:square;stroke-width:1.5;"/>
   </g>
   <g id="patch_3">
    <path d="M 60.77 376 
L 60.77 56.601988 
" style="fill:none;stroke:#000000;stroke-linecap:square;stroke-linejoin:miter;stroke-width:0.8;"/>
   </g>
   <g id="patch_4">
    <path d="M 556.505 376 
L 556.505 56.601988 
" style="fill:none;stroke:#000000;stroke-linecap:square;stroke-linejoin:miter;stroke-width:0.8;"/>
   </g>
   <g id="patch_5">
    <path d="M 60.77 376 
L 556.505 376 
" style="fill:none;stroke:#000000;stroke-linecap:square;stroke-linejoin:miter;stroke-width:0.8;"/>
   </g>
   <g id="patch_6">
    <path d="M 60.77 56.601989 
L 556.505 56.601989 
" style="fill:none;stroke:#000000;stroke-linecap:square;stroke-linejoin:miter;stroke-width:0.8;"/>
   </g>
   <g id="legend_1">
    <g id="patch_7">
     <path d="M 59.039844 42.709474 
L 558.235156 42.709474 
Q 561.235156 42.709474 561.235156 39.709474 
L 561.235156 19.192287 
Q 561.235156 16.192287 558.235156 16.192287 
L 59.039844 16.192287 
Q 56.039844 16.192287 56.039844 19.192287 
L 56.039844 39.709474 
Q 56.039844 42.709474 59.039844 42.709474 
z
" style="fill:#ffffff;opacity:0.8;stroke:#cccccc;stroke-linejoin:miter;"/>
    </g>
    <g id="line2d_15">
     <path d="M 62.039844 28.339943 
L 92.039844 28.339943 
" style="fill:none;stroke:#1f77b4;stroke-linecap:square;stroke-width:1.5;"/>
    </g>
    <g id="line2d_16"/>
    <g id="text_13">
     <!-- FedAvg -->
     <g transform="translate(104.039844 33.589943)scale(0.15 -0.15)">
      <defs>
       <path d="M 628 4666 
L 3309 4666 
L 3309 4134 
L 1259 4134 
L 1259 2759 
L 3109 2759 
L 3109 2228 
L 1259 2228 
L 1259 0 
L 628 0 
L 628 4666 
z
" id="DejaVuSans-46" transform="scale(0.015625)"/>
       <path d="M 191 3500 
L 800 3500 
L 1894 563 
L 2988 3500 
L 3597 3500 
L 2284 0 
L 1503 0 
L 191 3500 
z
" id="DejaVuSans-76" transform="scale(0.015625)"/>
       <path d="M 2906 1791 
Q 2906 2416 2648 2759 
Q 2391 3103 1925 3103 
Q 1463 3103 1205 2759 
Q 947 2416 947 1791 
Q 947 1169 1205 825 
Q 1463 481 1925 481 
Q 2391 481 2648 825 
Q 2906 1169 2906 1791 
z
M 3481 434 
Q 3481 -459 3084 -895 
Q 2688 -1331 1869 -1331 
Q 1566 -1331 1297 -1286 
Q 1028 -1241 775 -1147 
L 775 -588 
Q 1028 -725 1275 -790 
Q 1522 -856 1778 -856 
Q 2344 -856 2625 -561 
Q 2906 -266 2906 331 
L 2906 616 
Q 2728 306 2450 153 
Q 2172 0 1784 0 
Q 1141 0 747 490 
Q 353 981 353 1791 
Q 353 2603 747 3093 
Q 1141 3584 1784 3584 
Q 2172 3584 2450 3431 
Q 2728 3278 2906 2969 
L 2906 3500 
L 3481 3500 
L 3481 434 
z
" id="DejaVuSans-67" transform="scale(0.015625)"/>
      </defs>
      <use xlink:href="#DejaVuSans-46"/>
      <use x="52.019531" xlink:href="#DejaVuSans-65"/>
      <use x="113.542969" xlink:href="#DejaVuSans-64"/>
      <use x="177.019531" xlink:href="#DejaVuSans-41"/>
      <use x="239.552734" xlink:href="#DejaVuSans-76"/>
      <use x="298.732422" xlink:href="#DejaVuSans-67"/>
     </g>
    </g>
    <g id="line2d_17">
     <path d="M 188.375 28.339943 
L 218.375 28.339943 
" style="fill:none;stroke:#ff7f0e;stroke-linecap:square;stroke-width:1.5;"/>
    </g>
    <g id="line2d_18"/>
    <g id="text_14">
     <!-- FedMed -->
     <g transform="translate(230.375 33.589943)scale(0.15 -0.15)">
      <defs>
       <path d="M 628 4666 
L 1569 4666 
L 2759 1491 
L 3956 4666 
L 4897 4666 
L 4897 0 
L 4281 0 
L 4281 4097 
L 3078 897 
L 2444 897 
L 1241 4097 
L 1241 0 
L 628 0 
L 628 4666 
z
" id="DejaVuSans-4d" transform="scale(0.015625)"/>
      </defs>
      <use xlink:href="#DejaVuSans-46"/>
      <use x="52.019531" xlink:href="#DejaVuSans-65"/>
      <use x="113.542969" xlink:href="#DejaVuSans-64"/>
      <use x="177.019531" xlink:href="#DejaVuSans-4d"/>
      <use x="263.298828" xlink:href="#DejaVuSans-65"/>
      <use x="324.822266" xlink:href="#DejaVuSans-64"/>
     </g>
    </g>
    <g id="line2d_19">
     <path d="M 318.624219 28.339943 
L 348.624219 28.339943 
" style="fill:none;stroke:#2ca02c;stroke-linecap:square;stroke-width:1.5;"/>
    </g>
    <g id="line2d_20"/>
    <g id="text_15">
     <!-- FedProx -->
     <g transform="translate(360.624219 33.589943)scale(0.15 -0.15)">
      <defs>
       <path d="M 1259 4147 
L 1259 2394 
L 2053 2394 
Q 2494 2394 2734 2622 
Q 2975 2850 2975 3272 
Q 2975 3691 2734 3919 
Q 2494 4147 2053 4147 
L 1259 4147 
z
M 628 4666 
L 2053 4666 
Q 2838 4666 3239 4311 
Q 3641 3956 3641 3272 
Q 3641 2581 3239 2228 
Q 2838 1875 2053 1875 
L 1259 1875 
L 1259 0 
L 628 0 
L 628 4666 
z
" id="DejaVuSans-50" transform="scale(0.015625)"/>
       <path d="M 3513 3500 
L 2247 1797 
L 3578 0 
L 2900 0 
L 1881 1375 
L 863 0 
L 184 0 
L 1544 1831 
L 300 3500 
L 978 3500 
L 1906 2253 
L 2834 3500 
L 3513 3500 
z
" id="DejaVuSans-78" transform="scale(0.015625)"/>
      </defs>
      <use xlink:href="#DejaVuSans-46"/>
      <use x="52.019531" xlink:href="#DejaVuSans-65"/>
      <use x="113.542969" xlink:href="#DejaVuSans-64"/>
      <use x="177.019531" xlink:href="#DejaVuSans-50"/>
      <use x="235.572266" xlink:href="#DejaVuSans-72"/>
      <use x="274.435547" xlink:href="#DejaVuSans-6f"/>
      <use x="332.492188" xlink:href="#DejaVuSans-78"/>
     </g>
    </g>
    <g id="line2d_21">
     <path d="M 449.377344 28.339943 
L 479.377344 28.339943 
" style="fill:none;stroke:#d62728;stroke-linecap:square;stroke-width:1.5;"/>
    </g>
    <g id="line2d_22"/>
    <g id="text_16">
     <!-- qFedAvg -->
     <g transform="translate(491.377344 33.589943)scale(0.15 -0.15)">
      <defs>
       <path d="M 947 1747 
Q 947 1113 1208 752 
Q 1469 391 1925 391 
Q 2381 391 2643 752 
Q 2906 1113 2906 1747 
Q 2906 2381 2643 2742 
Q 2381 3103 1925 3103 
Q 1469 3103 1208 2742 
Q 947 2381 947 1747 
z
M 2906 525 
Q 2725 213 2448 61 
Q 2172 -91 1784 -91 
Q 1150 -91 751 415 
Q 353 922 353 1747 
Q 353 2572 751 3078 
Q 1150 3584 1784 3584 
Q 2172 3584 2448 3432 
Q 2725 3281 2906 2969 
L 2906 3500 
L 3481 3500 
L 3481 -1331 
L 2906 -1331 
L 2906 525 
z
" id="DejaVuSans-71" transform="scale(0.015625)"/>
      </defs>
      <use xlink:href="#DejaVuSans-71"/>
      <use x="63.476562" xlink:href="#DejaVuSans-46"/>
      <use x="115.496094" xlink:href="#DejaVuSans-65"/>
      <use x="177.019531" xlink:href="#DejaVuSans-64"/>
      <use x="240.496094" xlink:href="#DejaVuSans-41"/>
      <use x="303.029297" xlink:href="#DejaVuSans-76"/>
      <use x="362.208984" xlink:href="#DejaVuSans-67"/>
     </g>
    </g>
   </g>
  </g>
 </g>
 <defs>
  <clipPath id="p3aa86e1f79">
   <rect height="319.398011" width="495.735" x="60.77" y="56.601989"/>
  </clipPath>
 </defs>
</svg>
