<?xml version="1.0" encoding="utf-8" standalone="no"?>
<!DOCTYPE svg PUBLIC "-//W3C//DTD SVG 1.1//EN"
  "http://www.w3.org/Graphics/SVG/1.1/DTD/svg11.dtd">
<svg height="432pt" version="1.1" viewBox="0 0 576 432" width="576pt" xmlns="http://www.w3.org/2000/svg" xmlns:xlink="http://www.w3.org/1999/xlink">
 <metadata>
  <rdf:RDF xmlns:cc="http://creativecommons.org/ns#" xmlns:dc="http://purl.org/dc/elements/1.1/" xmlns:rdf="http://www.w3.org/1999/02/22-rdf-syntax-ns#">
   <cc:Work>
    <dc:type rdf:resource="http://purl.org/dc/dcmitype/StillImage"/>
    <dc:date>2021-05-07T22:04:26.597186</dc:date>
    <dc:format>image/svg+xml</dc:format>
    <dc:creator>
     <cc:Agent>
      <dc:title>Matplotlib v3.4.1, https://matplotlib.org/</dc:title>
     </cc:Agent>
    </dc:creator>
   </cc:Work>
  </rdf:RDF>
 </metadata>
 <defs>
  <style type="text/css">*{stroke-linecap:butt;stroke-linejoin:round;}</style>
 </defs>
 <g id="figure_1">
  <g id="patch_1">
   <path d="M 0 432 
L 576 432 
L 576 0 
L 0 0 
z
" style="fill:#ffffff;"/>
  </g>
  <g id="axes_1">
   <g id="patch_2">
    <path d="M 70.22 376 
L 551.78 376 
L 551.78 56.601989 
L 70.22 56.601989 
z
" style="fill:#ffffff;"/>
   </g>
   <g id="PolyCollection_1">
    <path clip-path="url(#p8cf0e2ba04)" d="M 92.109091 301.928189 
L 92.109091 328.794671 
L 101.043414 281.398869 
L 109.977737 213.495059 
L 118.912059 201.776464 
L 127.846382 159.164884 
L 136.780705 131.892241 
L 145.715028 128.835882 
L 154.649351 138.646095 
L 163.583673 122.501465 
L 172.517996 122.911385 
L 181.452319 118.300174 
L 190.386642 96.627547 
L 199.320965 92.17755 
L 208.255288 90.732017 
L 217.18961 94.120909 
L 226.123933 94.002217 
L 235.058256 83.257955 
L 243.992579 81.654132 
L 252.926902 94.864188 
L 261.861224 95.329811 
L 270.795547 92.103412 
L 279.72987 84.604804 
L 288.664193 80.487667 
L 297.598516 81.345862 
L 306.532839 78.438024 
L 315.467161 83.311916 
L 324.401484 82.30193 
L 333.335807 84.131879 
L 342.27013 79.468077 
L 351.204453 87.31714 
L 360.138776 79.145951 
L 369.073098 76.956408 
L 378.007421 78.838385 
L 386.941744 76.782453 
L 395.876067 76.228334 
L 404.81039 75.225818 
L 413.744712 77.336956 
L 422.679035 78.605349 
L 431.613358 77.060414 
L 440.547681 73.71292 
L 449.482004 74.650046 
L 458.416327 75.509332 
L 467.350649 75.242079 
L 476.284972 75.794783 
L 485.219295 74.650046 
L 494.153618 75.342115 
L 503.087941 73.75119 
L 512.022263 76.255284 
L 520.956586 73.822991 
L 529.890909 73.936766 
L 529.890909 71.380317 
L 529.890909 71.380317 
L 520.956586 71.973426 
L 512.022263 72.576916 
L 503.087941 72.045227 
L 494.153618 72.052083 
L 485.219295 72.424595 
L 476.284972 71.12008 
L 467.350649 72.152118 
L 458.416327 73.003311 
L 449.482004 72.424595 
L 440.547681 72.083497 
L 431.613358 72.25112 
L 422.679035 73.102856 
L 413.744712 72.453912 
L 404.81039 73.446604 
L 395.876067 73.722313 
L 386.941744 74.28664 
L 378.007421 73.189377 
L 369.073098 75.390909 
L 360.138776 73.6807 
L 351.204453 73.498415 
L 342.27013 72.719463 
L 333.335807 71.890334 
L 324.401484 73.240949 
L 315.467161 76.704749 
L 306.532839 74.22885 
L 297.598516 75.475241 
L 288.664193 75.374768 
L 279.72987 76.210751 
L 270.795547 73.026151 
L 261.861224 73.474648 
L 252.926902 76.656498 
L 243.992579 78.682089 
L 235.058256 78.835825 
L 226.123933 78.157581 
L 217.18961 80.595339 
L 208.255288 76.953995 
L 199.320965 79.183358 
L 190.386642 82.722264 
L 181.452319 84.05768 
L 172.517996 84.239811 
L 163.583673 89.922407 
L 154.649351 98.223822 
L 145.715028 112.188265 
L 136.780705 106.096122 
L 127.846382 132.668689 
L 118.912059 159.56057 
L 109.977737 176.921583 
L 101.043414 185.551469 
L 92.109091 301.928189 
z
" style="fill:#1f77b4;fill-opacity:0.5;"/>
   </g>
   <g id="PolyCollection_2">
    <path clip-path="url(#p8cf0e2ba04)" d="M 92.109091 334.110848 
L 92.109091 361.481909 
L 101.043414 340.906073 
L 109.977737 316.247418 
L 118.912059 320.552085 
L 127.846382 327.583928 
L 136.780705 234.330303 
L 145.715028 276.722065 
L 154.649351 293.311551 
L 163.583673 279.851937 
L 172.517996 233.507628 
L 181.452319 258.276992 
L 190.386642 206.798244 
L 199.320965 186.241597 
L 208.255288 198.365816 
L 217.18961 222.699971 
L 226.123933 228.086481 
L 235.058256 205.939774 
L 243.992579 165.476711 
L 252.926902 170.040763 
L 261.861224 177.537936 
L 270.795547 169.127091 
L 279.72987 174.820854 
L 288.664193 167.610889 
L 297.598516 173.086547 
L 306.532839 164.5337 
L 315.467161 197.135769 
L 324.401484 211.683808 
L 333.335807 139.068908 
L 342.27013 176.253025 
L 351.204453 206.705507 
L 360.138776 245.333552 
L 369.073098 243.204876 
L 378.007421 208.516678 
L 386.941744 175.371031 
L 395.876067 182.156008 
L 404.81039 185.217983 
L 413.744712 189.204894 
L 422.679035 154.477248 
L 431.613358 131.206798 
L 440.547681 148.185144 
L 449.482004 129.709405 
L 458.416327 99.536716 
L 467.350649 131.38194 
L 476.284972 131.514076 
L 485.219295 145.526867 
L 494.153618 122.514053 
L 503.087941 128.236153 
L 512.022263 142.655374 
L 520.956586 123.04141 
L 529.890909 146.056141 
L 529.890909 88.576883 
L 529.890909 88.576883 
L 520.956586 86.346679 
L 512.022263 101.724112 
L 503.087941 104.159978 
L 494.153618 109.083188 
L 485.219295 110.676197 
L 476.284972 90.176924 
L 467.350649 85.036384 
L 458.416327 87.801999 
L 449.482004 100.609611 
L 440.547681 86.288101 
L 431.613358 100.55022 
L 422.679035 102.20515 
L 413.744712 88.727987 
L 404.81039 98.786465 
L 395.876067 136.839837 
L 386.941744 123.173221 
L 378.007421 111.597613 
L 369.073098 98.479455 
L 360.138776 83.568533 
L 351.204453 80.65428 
L 342.27013 91.45406 
L 333.335807 85.33832 
L 324.401484 72.160862 
L 315.467161 121.380741 
L 306.532839 99.977823 
L 297.598516 106.603892 
L 288.664193 110.641548 
L 279.72987 122.604951 
L 270.795547 109.444902 
L 261.861224 113.336968 
L 252.926902 119.236361 
L 243.992579 115.971287 
L 235.058256 99.954269 
L 226.123933 131.652771 
L 217.18961 134.962167 
L 208.255288 138.045838 
L 199.320965 120.611114 
L 190.386642 147.348777 
L 181.452319 148.117457 
L 172.517996 108.815815 
L 163.583673 140.922539 
L 154.649351 192.332821 
L 145.715028 186.393599 
L 136.780705 172.543481 
L 127.846382 266.709532 
L 118.912059 230.761074 
L 109.977737 217.969487 
L 101.043414 292.692792 
L 92.109091 334.110848 
z
" style="fill:#ff7f0e;fill-opacity:0.5;"/>
   </g>
   <g id="PolyCollection_3">
    <path clip-path="url(#p8cf0e2ba04)" d="M 92.109091 265.107917 
L 92.109091 294.034368 
L 101.043414 294.42878 
L 109.977737 219.222591 
L 118.912059 168.658276 
L 127.846382 174.894446 
L 136.780705 143.197149 
L 145.715028 133.005109 
L 154.649351 128.571168 
L 163.583673 125.489608 
L 172.517996 102.043351 
L 181.452319 100.394507 
L 190.386642 102.360021 
L 199.320965 93.78458 
L 208.255288 87.768859 
L 217.18961 86.405952 
L 226.123933 89.390536 
L 235.058256 85.384763 
L 243.992579 89.021041 
L 252.926902 88.67256 
L 261.861224 85.127276 
L 270.795547 86.545888 
L 279.72987 86.769607 
L 288.664193 86.182934 
L 297.598516 85.127762 
L 306.532839 83.670425 
L 315.467161 84.779602 
L 324.401484 95.790742 
L 333.335807 84.081785 
L 342.27013 83.121902 
L 351.204453 83.958339 
L 360.138776 83.645843 
L 369.073098 83.57328 
L 378.007421 83.889462 
L 386.941744 83.360286 
L 395.876067 83.767908 
L 404.81039 83.97784 
L 413.744712 83.629195 
L 422.679035 83.888239 
L 431.613358 82.889866 
L 440.547681 82.571019 
L 449.482004 82.903291 
L 458.416327 83.130094 
L 467.350649 83.543043 
L 476.284972 83.96268 
L 485.219295 84.092818 
L 494.153618 83.64442 
L 503.087941 83.498193 
L 512.022263 82.852902 
L 520.956586 82.995474 
L 529.890909 82.648093 
L 529.890909 71.456783 
L 529.890909 71.456783 
L 520.956586 72.547405 
L 512.022263 72.530199 
L 503.087941 73.163133 
L 494.153618 73.815796 
L 485.219295 74.645623 
L 476.284972 73.97687 
L 467.350649 74.076951 
L 458.416327 73.691009 
L 449.482004 73.118922 
L 440.547681 72.332748 
L 431.613358 72.493235 
L 422.679035 74.530645 
L 413.744712 74.470134 
L 404.81039 75.559491 
L 395.876067 75.769423 
L 386.941744 73.940152 
L 378.007421 76.286981 
L 369.073098 74.685826 
L 360.138776 74.293707 
L 351.204453 75.099657 
L 342.27013 74.018758 
L 333.335807 76.893548 
L 324.401484 78.446172 
L 315.467161 76.994622 
L 306.532839 75.707127 
L 297.598516 76.326905 
L 288.664193 79.266186 
L 279.72987 78.519734 
L 270.795547 80.820569 
L 261.861224 79.842509 
L 252.926902 81.410124 
L 243.992579 82.978979 
L 235.058256 79.744801 
L 226.123933 81.011703 
L 217.18961 79.522502 
L 208.255288 79.278041 
L 199.320965 82.36967 
L 190.386642 84.978694 
L 181.452319 85.825761 
L 172.517996 89.609372 
L 163.583673 98.278507 
L 154.649351 95.676281 
L 145.715028 98.272576 
L 136.780705 90.796762 
L 127.846382 113.583788 
L 118.912059 132.602203 
L 109.977737 192.604313 
L 101.043414 253.688818 
L 92.109091 265.107917 
z
" style="fill:#2ca02c;fill-opacity:0.5;"/>
   </g>
   <g id="PolyCollection_4">
    <path clip-path="url(#p8cf0e2ba04)" d="M 92.109091 301.947531 
L 92.109091 335.486807 
L 101.043414 311.021994 
L 109.977737 290.31628 
L 118.912059 276.86639 
L 127.846382 272.640168 
L 136.780705 267.41928 
L 145.715028 261.023915 
L 154.649351 252.466802 
L 163.583673 247.367263 
L 172.517996 241.78953 
L 181.452319 237.714229 
L 190.386642 234.69151 
L 199.320965 230.808422 
L 208.255288 227.217886 
L 217.18961 223.058773 
L 226.123933 217.76324 
L 235.058256 211.82504 
L 243.992579 205.789696 
L 252.926902 200.30252 
L 261.861224 194.678769 
L 270.795547 188.998524 
L 279.72987 184.678282 
L 288.664193 180.183863 
L 297.598516 177.130461 
L 306.532839 174.161698 
L 315.467161 170.77799 
L 324.401484 168.54055 
L 333.335807 165.536954 
L 342.27013 163.115295 
L 351.204453 160.107512 
L 360.138776 158.311718 
L 369.073098 156.820366 
L 378.007421 155.624958 
L 386.941744 153.961476 
L 395.876067 153.740589 
L 404.81039 152.750234 
L 413.744712 151.647319 
L 422.679035 150.35894 
L 431.613358 149.620327 
L 440.547681 149.121548 
L 449.482004 148.172665 
L 458.416327 146.526092 
L 467.350649 145.75053 
L 476.284972 145.322494 
L 485.219295 144.477672 
L 494.153618 143.494831 
L 503.087941 143.407373 
L 512.022263 142.967601 
L 520.956586 142.087603 
L 529.890909 141.743583 
L 529.890909 125.902945 
L 529.890909 125.902945 
L 520.956586 126.631836 
L 512.022263 126.875237 
L 503.087941 127.356905 
L 494.153618 127.90057 
L 485.219295 129.227641 
L 476.284972 130.074229 
L 467.350649 130.90844 
L 458.416327 131.521349 
L 449.482004 132.374025 
L 440.547681 134.479779 
L 431.613358 135.483074 
L 422.679035 137.420424 
L 413.744712 138.429335 
L 404.81039 139.472238 
L 395.876067 140.96851 
L 386.941744 141.050562 
L 378.007421 143.401025 
L 369.073098 144.692243 
L 360.138776 145.952589 
L 351.204453 147.034718 
L 342.27013 149.176901 
L 333.335807 151.589647 
L 324.401484 153.07965 
L 315.467161 154.338633 
L 306.532839 156.773883 
L 297.598516 160.040619 
L 288.664193 161.985714 
L 279.72987 164.017111 
L 270.795547 166.033347 
L 261.861224 169.226697 
L 252.926902 172.261959 
L 243.992579 176.001806 
L 235.058256 179.597406 
L 226.123933 183.328015 
L 217.18961 185.871034 
L 208.255288 190.19422 
L 199.320965 193.684888 
L 190.386642 197.375281 
L 181.452319 200.815265 
L 172.517996 204.250333 
L 163.583673 207.432592 
L 154.649351 212.367914 
L 145.715028 217.241107 
L 136.780705 224.629476 
L 127.846382 228.875439 
L 118.912059 242.396407 
L 109.977737 255.415831 
L 101.043414 273.536827 
L 92.109091 301.947531 
z
" style="fill:#d62728;fill-opacity:0.5;"/>
   </g>
   <g id="matplotlib.axis_1">
    <g id="xtick_1">
     <g id="line2d_1">
      <defs>
       <path d="M 0 0 
L 0 3.5 
" id="m95dce5c02b" style="stroke:#000000;stroke-width:0.8;"/>
      </defs>
      <g>
       <use style="stroke:#000000;stroke-width:0.8;" x="92.109091" xlink:href="#m95dce5c02b" y="376"/>
      </g>
     </g>
     <g id="text_1">
      <!-- 0 -->
      <g transform="translate(87.337216 394.397656)scale(0.15 -0.15)">
       <defs>
        <path d="M 2034 4250 
Q 1547 4250 1301 3770 
Q 1056 3291 1056 2328 
Q 1056 1369 1301 889 
Q 1547 409 2034 409 
Q 2525 409 2770 889 
Q 3016 1369 3016 2328 
Q 3016 3291 2770 3770 
Q 2525 4250 2034 4250 
z
M 2034 4750 
Q 2819 4750 3233 4129 
Q 3647 3509 3647 2328 
Q 3647 1150 3233 529 
Q 2819 -91 2034 -91 
Q 1250 -91 836 529 
Q 422 1150 422 2328 
Q 422 3509 836 4129 
Q 1250 4750 2034 4750 
z
" id="DejaVuSans-30" transform="scale(0.015625)"/>
       </defs>
       <use xlink:href="#DejaVuSans-30"/>
      </g>
     </g>
    </g>
    <g id="xtick_2">
     <g id="line2d_2">
      <g>
       <use style="stroke:#000000;stroke-width:0.8;" x="181.452319" xlink:href="#m95dce5c02b" y="376"/>
      </g>
     </g>
     <g id="text_2">
      <!-- 10 -->
      <g transform="translate(171.908569 394.397656)scale(0.15 -0.15)">
       <defs>
        <path d="M 794 531 
L 1825 531 
L 1825 4091 
L 703 3866 
L 703 4441 
L 1819 4666 
L 2450 4666 
L 2450 531 
L 3481 531 
L 3481 0 
L 794 0 
L 794 531 
z
" id="DejaVuSans-31" transform="scale(0.015625)"/>
       </defs>
       <use xlink:href="#DejaVuSans-31"/>
       <use x="63.623047" xlink:href="#DejaVuSans-30"/>
      </g>
     </g>
    </g>
    <g id="xtick_3">
     <g id="line2d_3">
      <g>
       <use style="stroke:#000000;stroke-width:0.8;" x="270.795547" xlink:href="#m95dce5c02b" y="376"/>
      </g>
     </g>
     <g id="text_3">
      <!-- 20 -->
      <g transform="translate(261.251797 394.397656)scale(0.15 -0.15)">
       <defs>
        <path d="M 1228 531 
L 3431 531 
L 3431 0 
L 469 0 
L 469 531 
Q 828 903 1448 1529 
Q 2069 2156 2228 2338 
Q 2531 2678 2651 2914 
Q 2772 3150 2772 3378 
Q 2772 3750 2511 3984 
Q 2250 4219 1831 4219 
Q 1534 4219 1204 4116 
Q 875 4013 500 3803 
L 500 4441 
Q 881 4594 1212 4672 
Q 1544 4750 1819 4750 
Q 2544 4750 2975 4387 
Q 3406 4025 3406 3419 
Q 3406 3131 3298 2873 
Q 3191 2616 2906 2266 
Q 2828 2175 2409 1742 
Q 1991 1309 1228 531 
z
" id="DejaVuSans-32" transform="scale(0.015625)"/>
       </defs>
       <use xlink:href="#DejaVuSans-32"/>
       <use x="63.623047" xlink:href="#DejaVuSans-30"/>
      </g>
     </g>
    </g>
    <g id="xtick_4">
     <g id="line2d_4">
      <g>
       <use style="stroke:#000000;stroke-width:0.8;" x="360.138776" xlink:href="#m95dce5c02b" y="376"/>
      </g>
     </g>
     <g id="text_4">
      <!-- 30 -->
      <g transform="translate(350.595026 394.397656)scale(0.15 -0.15)">
       <defs>
        <path d="M 2597 2516 
Q 3050 2419 3304 2112 
Q 3559 1806 3559 1356 
Q 3559 666 3084 287 
Q 2609 -91 1734 -91 
Q 1441 -91 1130 -33 
Q 819 25 488 141 
L 488 750 
Q 750 597 1062 519 
Q 1375 441 1716 441 
Q 2309 441 2620 675 
Q 2931 909 2931 1356 
Q 2931 1769 2642 2001 
Q 2353 2234 1838 2234 
L 1294 2234 
L 1294 2753 
L 1863 2753 
Q 2328 2753 2575 2939 
Q 2822 3125 2822 3475 
Q 2822 3834 2567 4026 
Q 2313 4219 1838 4219 
Q 1578 4219 1281 4162 
Q 984 4106 628 3988 
L 628 4550 
Q 988 4650 1302 4700 
Q 1616 4750 1894 4750 
Q 2613 4750 3031 4423 
Q 3450 4097 3450 3541 
Q 3450 3153 3228 2886 
Q 3006 2619 2597 2516 
z
" id="DejaVuSans-33" transform="scale(0.015625)"/>
       </defs>
       <use xlink:href="#DejaVuSans-33"/>
       <use x="63.623047" xlink:href="#DejaVuSans-30"/>
      </g>
     </g>
    </g>
    <g id="xtick_5">
     <g id="line2d_5">
      <g>
       <use style="stroke:#000000;stroke-width:0.8;" x="449.482004" xlink:href="#m95dce5c02b" y="376"/>
      </g>
     </g>
     <g id="text_5">
      <!-- 40 -->
      <g transform="translate(439.938254 394.397656)scale(0.15 -0.15)">
       <defs>
        <path d="M 2419 4116 
L 825 1625 
L 2419 1625 
L 2419 4116 
z
M 2253 4666 
L 3047 4666 
L 3047 1625 
L 3713 1625 
L 3713 1100 
L 3047 1100 
L 3047 0 
L 2419 0 
L 2419 1100 
L 313 1100 
L 313 1709 
L 2253 4666 
z
" id="DejaVuSans-34" transform="scale(0.015625)"/>
       </defs>
       <use xlink:href="#DejaVuSans-34"/>
       <use x="63.623047" xlink:href="#DejaVuSans-30"/>
      </g>
     </g>
    </g>
    <g id="xtick_6">
     <g id="line2d_6">
      <g>
       <use style="stroke:#000000;stroke-width:0.8;" x="538.825232" xlink:href="#m95dce5c02b" y="376"/>
      </g>
     </g>
     <g id="text_6">
      <!-- 50 -->
      <g transform="translate(529.281482 394.397656)scale(0.15 -0.15)">
       <defs>
        <path d="M 691 4666 
L 3169 4666 
L 3169 4134 
L 1269 4134 
L 1269 2991 
Q 1406 3038 1543 3061 
Q 1681 3084 1819 3084 
Q 2600 3084 3056 2656 
Q 3513 2228 3513 1497 
Q 3513 744 3044 326 
Q 2575 -91 1722 -91 
Q 1428 -91 1123 -41 
Q 819 9 494 109 
L 494 744 
Q 775 591 1075 516 
Q 1375 441 1709 441 
Q 2250 441 2565 725 
Q 2881 1009 2881 1497 
Q 2881 1984 2565 2268 
Q 2250 2553 1709 2553 
Q 1456 2553 1204 2497 
Q 953 2441 691 2322 
L 691 4666 
z
" id="DejaVuSans-35" transform="scale(0.015625)"/>
       </defs>
       <use xlink:href="#DejaVuSans-35"/>
       <use x="63.623047" xlink:href="#DejaVuSans-30"/>
      </g>
     </g>
    </g>
    <g id="text_7">
     <!-- Global Communication Rounds -->
     <g transform="translate(195.557422 412.914844)scale(0.15 -0.15)">
      <defs>
       <path d="M 3809 666 
L 3809 1919 
L 2778 1919 
L 2778 2438 
L 4434 2438 
L 4434 434 
Q 4069 175 3628 42 
Q 3188 -91 2688 -91 
Q 1594 -91 976 548 
Q 359 1188 359 2328 
Q 359 3472 976 4111 
Q 1594 4750 2688 4750 
Q 3144 4750 3555 4637 
Q 3966 4525 4313 4306 
L 4313 3634 
Q 3963 3931 3569 4081 
Q 3175 4231 2741 4231 
Q 1884 4231 1454 3753 
Q 1025 3275 1025 2328 
Q 1025 1384 1454 906 
Q 1884 428 2741 428 
Q 3075 428 3337 486 
Q 3600 544 3809 666 
z
" id="DejaVuSans-47" transform="scale(0.015625)"/>
       <path d="M 603 4863 
L 1178 4863 
L 1178 0 
L 603 0 
L 603 4863 
z
" id="DejaVuSans-6c" transform="scale(0.015625)"/>
       <path d="M 1959 3097 
Q 1497 3097 1228 2736 
Q 959 2375 959 1747 
Q 959 1119 1226 758 
Q 1494 397 1959 397 
Q 2419 397 2687 759 
Q 2956 1122 2956 1747 
Q 2956 2369 2687 2733 
Q 2419 3097 1959 3097 
z
M 1959 3584 
Q 2709 3584 3137 3096 
Q 3566 2609 3566 1747 
Q 3566 888 3137 398 
Q 2709 -91 1959 -91 
Q 1206 -91 779 398 
Q 353 888 353 1747 
Q 353 2609 779 3096 
Q 1206 3584 1959 3584 
z
" id="DejaVuSans-6f" transform="scale(0.015625)"/>
       <path d="M 3116 1747 
Q 3116 2381 2855 2742 
Q 2594 3103 2138 3103 
Q 1681 3103 1420 2742 
Q 1159 2381 1159 1747 
Q 1159 1113 1420 752 
Q 1681 391 2138 391 
Q 2594 391 2855 752 
Q 3116 1113 3116 1747 
z
M 1159 2969 
Q 1341 3281 1617 3432 
Q 1894 3584 2278 3584 
Q 2916 3584 3314 3078 
Q 3713 2572 3713 1747 
Q 3713 922 3314 415 
Q 2916 -91 2278 -91 
Q 1894 -91 1617 61 
Q 1341 213 1159 525 
L 1159 0 
L 581 0 
L 581 4863 
L 1159 4863 
L 1159 2969 
z
" id="DejaVuSans-62" transform="scale(0.015625)"/>
       <path d="M 2194 1759 
Q 1497 1759 1228 1600 
Q 959 1441 959 1056 
Q 959 750 1161 570 
Q 1363 391 1709 391 
Q 2188 391 2477 730 
Q 2766 1069 2766 1631 
L 2766 1759 
L 2194 1759 
z
M 3341 1997 
L 3341 0 
L 2766 0 
L 2766 531 
Q 2569 213 2275 61 
Q 1981 -91 1556 -91 
Q 1019 -91 701 211 
Q 384 513 384 1019 
Q 384 1609 779 1909 
Q 1175 2209 1959 2209 
L 2766 2209 
L 2766 2266 
Q 2766 2663 2505 2880 
Q 2244 3097 1772 3097 
Q 1472 3097 1187 3025 
Q 903 2953 641 2809 
L 641 3341 
Q 956 3463 1253 3523 
Q 1550 3584 1831 3584 
Q 2591 3584 2966 3190 
Q 3341 2797 3341 1997 
z
" id="DejaVuSans-61" transform="scale(0.015625)"/>
       <path id="DejaVuSans-20" transform="scale(0.015625)"/>
       <path d="M 4122 4306 
L 4122 3641 
Q 3803 3938 3442 4084 
Q 3081 4231 2675 4231 
Q 1875 4231 1450 3742 
Q 1025 3253 1025 2328 
Q 1025 1406 1450 917 
Q 1875 428 2675 428 
Q 3081 428 3442 575 
Q 3803 722 4122 1019 
L 4122 359 
Q 3791 134 3420 21 
Q 3050 -91 2638 -91 
Q 1578 -91 968 557 
Q 359 1206 359 2328 
Q 359 3453 968 4101 
Q 1578 4750 2638 4750 
Q 3056 4750 3426 4639 
Q 3797 4528 4122 4306 
z
" id="DejaVuSans-43" transform="scale(0.015625)"/>
       <path d="M 3328 2828 
Q 3544 3216 3844 3400 
Q 4144 3584 4550 3584 
Q 5097 3584 5394 3201 
Q 5691 2819 5691 2113 
L 5691 0 
L 5113 0 
L 5113 2094 
Q 5113 2597 4934 2840 
Q 4756 3084 4391 3084 
Q 3944 3084 3684 2787 
Q 3425 2491 3425 1978 
L 3425 0 
L 2847 0 
L 2847 2094 
Q 2847 2600 2669 2842 
Q 2491 3084 2119 3084 
Q 1678 3084 1418 2786 
Q 1159 2488 1159 1978 
L 1159 0 
L 581 0 
L 581 3500 
L 1159 3500 
L 1159 2956 
Q 1356 3278 1631 3431 
Q 1906 3584 2284 3584 
Q 2666 3584 2933 3390 
Q 3200 3197 3328 2828 
z
" id="DejaVuSans-6d" transform="scale(0.015625)"/>
       <path d="M 544 1381 
L 544 3500 
L 1119 3500 
L 1119 1403 
Q 1119 906 1312 657 
Q 1506 409 1894 409 
Q 2359 409 2629 706 
Q 2900 1003 2900 1516 
L 2900 3500 
L 3475 3500 
L 3475 0 
L 2900 0 
L 2900 538 
Q 2691 219 2414 64 
Q 2138 -91 1772 -91 
Q 1169 -91 856 284 
Q 544 659 544 1381 
z
M 1991 3584 
L 1991 3584 
z
" id="DejaVuSans-75" transform="scale(0.015625)"/>
       <path d="M 3513 2113 
L 3513 0 
L 2938 0 
L 2938 2094 
Q 2938 2591 2744 2837 
Q 2550 3084 2163 3084 
Q 1697 3084 1428 2787 
Q 1159 2491 1159 1978 
L 1159 0 
L 581 0 
L 581 3500 
L 1159 3500 
L 1159 2956 
Q 1366 3272 1645 3428 
Q 1925 3584 2291 3584 
Q 2894 3584 3203 3211 
Q 3513 2838 3513 2113 
z
" id="DejaVuSans-6e" transform="scale(0.015625)"/>
       <path d="M 603 3500 
L 1178 3500 
L 1178 0 
L 603 0 
L 603 3500 
z
M 603 4863 
L 1178 4863 
L 1178 4134 
L 603 4134 
L 603 4863 
z
" id="DejaVuSans-69" transform="scale(0.015625)"/>
       <path d="M 3122 3366 
L 3122 2828 
Q 2878 2963 2633 3030 
Q 2388 3097 2138 3097 
Q 1578 3097 1268 2742 
Q 959 2388 959 1747 
Q 959 1106 1268 751 
Q 1578 397 2138 397 
Q 2388 397 2633 464 
Q 2878 531 3122 666 
L 3122 134 
Q 2881 22 2623 -34 
Q 2366 -91 2075 -91 
Q 1284 -91 818 406 
Q 353 903 353 1747 
Q 353 2603 823 3093 
Q 1294 3584 2113 3584 
Q 2378 3584 2631 3529 
Q 2884 3475 3122 3366 
z
" id="DejaVuSans-63" transform="scale(0.015625)"/>
       <path d="M 1172 4494 
L 1172 3500 
L 2356 3500 
L 2356 3053 
L 1172 3053 
L 1172 1153 
Q 1172 725 1289 603 
Q 1406 481 1766 481 
L 2356 481 
L 2356 0 
L 1766 0 
Q 1100 0 847 248 
Q 594 497 594 1153 
L 594 3053 
L 172 3053 
L 172 3500 
L 594 3500 
L 594 4494 
L 1172 4494 
z
" id="DejaVuSans-74" transform="scale(0.015625)"/>
       <path d="M 2841 2188 
Q 3044 2119 3236 1894 
Q 3428 1669 3622 1275 
L 4263 0 
L 3584 0 
L 2988 1197 
Q 2756 1666 2539 1819 
Q 2322 1972 1947 1972 
L 1259 1972 
L 1259 0 
L 628 0 
L 628 4666 
L 2053 4666 
Q 2853 4666 3247 4331 
Q 3641 3997 3641 3322 
Q 3641 2881 3436 2590 
Q 3231 2300 2841 2188 
z
M 1259 4147 
L 1259 2491 
L 2053 2491 
Q 2509 2491 2742 2702 
Q 2975 2913 2975 3322 
Q 2975 3731 2742 3939 
Q 2509 4147 2053 4147 
L 1259 4147 
z
" id="DejaVuSans-52" transform="scale(0.015625)"/>
       <path d="M 2906 2969 
L 2906 4863 
L 3481 4863 
L 3481 0 
L 2906 0 
L 2906 525 
Q 2725 213 2448 61 
Q 2172 -91 1784 -91 
Q 1150 -91 751 415 
Q 353 922 353 1747 
Q 353 2572 751 3078 
Q 1150 3584 1784 3584 
Q 2172 3584 2448 3432 
Q 2725 3281 2906 2969 
z
M 947 1747 
Q 947 1113 1208 752 
Q 1469 391 1925 391 
Q 2381 391 2643 752 
Q 2906 1113 2906 1747 
Q 2906 2381 2643 2742 
Q 2381 3103 1925 3103 
Q 1469 3103 1208 2742 
Q 947 2381 947 1747 
z
" id="DejaVuSans-64" transform="scale(0.015625)"/>
       <path d="M 2834 3397 
L 2834 2853 
Q 2591 2978 2328 3040 
Q 2066 3103 1784 3103 
Q 1356 3103 1142 2972 
Q 928 2841 928 2578 
Q 928 2378 1081 2264 
Q 1234 2150 1697 2047 
L 1894 2003 
Q 2506 1872 2764 1633 
Q 3022 1394 3022 966 
Q 3022 478 2636 193 
Q 2250 -91 1575 -91 
Q 1294 -91 989 -36 
Q 684 19 347 128 
L 347 722 
Q 666 556 975 473 
Q 1284 391 1588 391 
Q 1994 391 2212 530 
Q 2431 669 2431 922 
Q 2431 1156 2273 1281 
Q 2116 1406 1581 1522 
L 1381 1569 
Q 847 1681 609 1914 
Q 372 2147 372 2553 
Q 372 3047 722 3315 
Q 1072 3584 1716 3584 
Q 2034 3584 2315 3537 
Q 2597 3491 2834 3397 
z
" id="DejaVuSans-73" transform="scale(0.015625)"/>
      </defs>
      <use xlink:href="#DejaVuSans-47"/>
      <use x="77.490234" xlink:href="#DejaVuSans-6c"/>
      <use x="105.273438" xlink:href="#DejaVuSans-6f"/>
      <use x="166.455078" xlink:href="#DejaVuSans-62"/>
      <use x="229.931641" xlink:href="#DejaVuSans-61"/>
      <use x="291.210938" xlink:href="#DejaVuSans-6c"/>
      <use x="318.994141" xlink:href="#DejaVuSans-20"/>
      <use x="350.78125" xlink:href="#DejaVuSans-43"/>
      <use x="420.605469" xlink:href="#DejaVuSans-6f"/>
      <use x="481.787109" xlink:href="#DejaVuSans-6d"/>
      <use x="579.199219" xlink:href="#DejaVuSans-6d"/>
      <use x="676.611328" xlink:href="#DejaVuSans-75"/>
      <use x="739.990234" xlink:href="#DejaVuSans-6e"/>
      <use x="803.369141" xlink:href="#DejaVuSans-69"/>
      <use x="831.152344" xlink:href="#DejaVuSans-63"/>
      <use x="886.132812" xlink:href="#DejaVuSans-61"/>
      <use x="947.412109" xlink:href="#DejaVuSans-74"/>
      <use x="986.621094" xlink:href="#DejaVuSans-69"/>
      <use x="1014.404297" xlink:href="#DejaVuSans-6f"/>
      <use x="1075.585938" xlink:href="#DejaVuSans-6e"/>
      <use x="1138.964844" xlink:href="#DejaVuSans-20"/>
      <use x="1170.751953" xlink:href="#DejaVuSans-52"/>
      <use x="1235.734375" xlink:href="#DejaVuSans-6f"/>
      <use x="1296.916016" xlink:href="#DejaVuSans-75"/>
      <use x="1360.294922" xlink:href="#DejaVuSans-6e"/>
      <use x="1423.673828" xlink:href="#DejaVuSans-64"/>
      <use x="1487.150391" xlink:href="#DejaVuSans-73"/>
     </g>
    </g>
   </g>
   <g id="matplotlib.axis_2">
    <g id="ytick_1">
     <g id="line2d_7">
      <defs>
       <path d="M 0 0 
L -3.5 0 
" id="mcb4cd67f1c" style="stroke:#000000;stroke-width:0.8;"/>
      </defs>
      <g>
       <use style="stroke:#000000;stroke-width:0.8;" x="70.22" xlink:href="#mcb4cd67f1c" y="321.273219"/>
      </g>
     </g>
     <g id="text_8">
      <!-- 20 -->
      <g transform="translate(44.1325 326.972047)scale(0.15 -0.15)">
       <use xlink:href="#DejaVuSans-32"/>
       <use x="63.623047" xlink:href="#DejaVuSans-30"/>
      </g>
     </g>
    </g>
    <g id="ytick_2">
     <g id="line2d_8">
      <g>
       <use style="stroke:#000000;stroke-width:0.8;" x="70.22" xlink:href="#mcb4cd67f1c" y="258.160881"/>
      </g>
     </g>
     <g id="text_9">
      <!-- 40 -->
      <g transform="translate(44.1325 263.859709)scale(0.15 -0.15)">
       <use xlink:href="#DejaVuSans-34"/>
       <use x="63.623047" xlink:href="#DejaVuSans-30"/>
      </g>
     </g>
    </g>
    <g id="ytick_3">
     <g id="line2d_9">
      <g>
       <use style="stroke:#000000;stroke-width:0.8;" x="70.22" xlink:href="#mcb4cd67f1c" y="195.048543"/>
      </g>
     </g>
     <g id="text_10">
      <!-- 60 -->
      <g transform="translate(44.1325 200.747371)scale(0.15 -0.15)">
       <defs>
        <path d="M 2113 2584 
Q 1688 2584 1439 2293 
Q 1191 2003 1191 1497 
Q 1191 994 1439 701 
Q 1688 409 2113 409 
Q 2538 409 2786 701 
Q 3034 994 3034 1497 
Q 3034 2003 2786 2293 
Q 2538 2584 2113 2584 
z
M 3366 4563 
L 3366 3988 
Q 3128 4100 2886 4159 
Q 2644 4219 2406 4219 
Q 1781 4219 1451 3797 
Q 1122 3375 1075 2522 
Q 1259 2794 1537 2939 
Q 1816 3084 2150 3084 
Q 2853 3084 3261 2657 
Q 3669 2231 3669 1497 
Q 3669 778 3244 343 
Q 2819 -91 2113 -91 
Q 1303 -91 875 529 
Q 447 1150 447 2328 
Q 447 3434 972 4092 
Q 1497 4750 2381 4750 
Q 2619 4750 2861 4703 
Q 3103 4656 3366 4563 
z
" id="DejaVuSans-36" transform="scale(0.015625)"/>
       </defs>
       <use xlink:href="#DejaVuSans-36"/>
       <use x="63.623047" xlink:href="#DejaVuSans-30"/>
      </g>
     </g>
    </g>
    <g id="ytick_4">
     <g id="line2d_10">
      <g>
       <use style="stroke:#000000;stroke-width:0.8;" x="70.22" xlink:href="#mcb4cd67f1c" y="131.936205"/>
      </g>
     </g>
     <g id="text_11">
      <!-- 80 -->
      <g transform="translate(44.1325 137.635033)scale(0.15 -0.15)">
       <defs>
        <path d="M 2034 2216 
Q 1584 2216 1326 1975 
Q 1069 1734 1069 1313 
Q 1069 891 1326 650 
Q 1584 409 2034 409 
Q 2484 409 2743 651 
Q 3003 894 3003 1313 
Q 3003 1734 2745 1975 
Q 2488 2216 2034 2216 
z
M 1403 2484 
Q 997 2584 770 2862 
Q 544 3141 544 3541 
Q 544 4100 942 4425 
Q 1341 4750 2034 4750 
Q 2731 4750 3128 4425 
Q 3525 4100 3525 3541 
Q 3525 3141 3298 2862 
Q 3072 2584 2669 2484 
Q 3125 2378 3379 2068 
Q 3634 1759 3634 1313 
Q 3634 634 3220 271 
Q 2806 -91 2034 -91 
Q 1263 -91 848 271 
Q 434 634 434 1313 
Q 434 1759 690 2068 
Q 947 2378 1403 2484 
z
M 1172 3481 
Q 1172 3119 1398 2916 
Q 1625 2713 2034 2713 
Q 2441 2713 2670 2916 
Q 2900 3119 2900 3481 
Q 2900 3844 2670 4047 
Q 2441 4250 2034 4250 
Q 1625 4250 1398 4047 
Q 1172 3844 1172 3481 
z
" id="DejaVuSans-38" transform="scale(0.015625)"/>
       </defs>
       <use xlink:href="#DejaVuSans-38"/>
       <use x="63.623047" xlink:href="#DejaVuSans-30"/>
      </g>
     </g>
    </g>
    <g id="ytick_5">
     <g id="line2d_11">
      <g>
       <use style="stroke:#000000;stroke-width:0.8;" x="70.22" xlink:href="#mcb4cd67f1c" y="68.823868"/>
      </g>
     </g>
     <g id="text_12">
      <!-- 100 -->
      <g transform="translate(34.58875 74.522696)scale(0.15 -0.15)">
       <use xlink:href="#DejaVuSans-31"/>
       <use x="63.623047" xlink:href="#DejaVuSans-30"/>
       <use x="127.246094" xlink:href="#DejaVuSans-30"/>
      </g>
     </g>
    </g>
    <g id="text_13">
     <!-- Test Accuracy -->
     <g transform="translate(27.469219 267.694744)rotate(-90)scale(0.15 -0.15)">
      <defs>
       <path d="M -19 4666 
L 3928 4666 
L 3928 4134 
L 2272 4134 
L 2272 0 
L 1638 0 
L 1638 4134 
L -19 4134 
L -19 4666 
z
" id="DejaVuSans-54" transform="scale(0.015625)"/>
       <path d="M 3597 1894 
L 3597 1613 
L 953 1613 
Q 991 1019 1311 708 
Q 1631 397 2203 397 
Q 2534 397 2845 478 
Q 3156 559 3463 722 
L 3463 178 
Q 3153 47 2828 -22 
Q 2503 -91 2169 -91 
Q 1331 -91 842 396 
Q 353 884 353 1716 
Q 353 2575 817 3079 
Q 1281 3584 2069 3584 
Q 2775 3584 3186 3129 
Q 3597 2675 3597 1894 
z
M 3022 2063 
Q 3016 2534 2758 2815 
Q 2500 3097 2075 3097 
Q 1594 3097 1305 2825 
Q 1016 2553 972 2059 
L 3022 2063 
z
" id="DejaVuSans-65" transform="scale(0.015625)"/>
       <path d="M 2188 4044 
L 1331 1722 
L 3047 1722 
L 2188 4044 
z
M 1831 4666 
L 2547 4666 
L 4325 0 
L 3669 0 
L 3244 1197 
L 1141 1197 
L 716 0 
L 50 0 
L 1831 4666 
z
" id="DejaVuSans-41" transform="scale(0.015625)"/>
       <path d="M 2631 2963 
Q 2534 3019 2420 3045 
Q 2306 3072 2169 3072 
Q 1681 3072 1420 2755 
Q 1159 2438 1159 1844 
L 1159 0 
L 581 0 
L 581 3500 
L 1159 3500 
L 1159 2956 
Q 1341 3275 1631 3429 
Q 1922 3584 2338 3584 
Q 2397 3584 2469 3576 
Q 2541 3569 2628 3553 
L 2631 2963 
z
" id="DejaVuSans-72" transform="scale(0.015625)"/>
       <path d="M 2059 -325 
Q 1816 -950 1584 -1140 
Q 1353 -1331 966 -1331 
L 506 -1331 
L 506 -850 
L 844 -850 
Q 1081 -850 1212 -737 
Q 1344 -625 1503 -206 
L 1606 56 
L 191 3500 
L 800 3500 
L 1894 763 
L 2988 3500 
L 3597 3500 
L 2059 -325 
z
" id="DejaVuSans-79" transform="scale(0.015625)"/>
      </defs>
      <use xlink:href="#DejaVuSans-54"/>
      <use x="44.083984" xlink:href="#DejaVuSans-65"/>
      <use x="105.607422" xlink:href="#DejaVuSans-73"/>
      <use x="157.707031" xlink:href="#DejaVuSans-74"/>
      <use x="196.916016" xlink:href="#DejaVuSans-20"/>
      <use x="228.703125" xlink:href="#DejaVuSans-41"/>
      <use x="295.361328" xlink:href="#DejaVuSans-63"/>
      <use x="350.341797" xlink:href="#DejaVuSans-63"/>
      <use x="405.322266" xlink:href="#DejaVuSans-75"/>
      <use x="468.701172" xlink:href="#DejaVuSans-72"/>
      <use x="509.814453" xlink:href="#DejaVuSans-61"/>
      <use x="571.09375" xlink:href="#DejaVuSans-63"/>
      <use x="626.074219" xlink:href="#DejaVuSans-79"/>
     </g>
    </g>
   </g>
   <g id="line2d_12">
    <path clip-path="url(#p8cf0e2ba04)" d="M 92.109091 315.36143 
L 101.043414 233.475169 
L 109.977737 195.208321 
L 118.912059 180.668517 
L 127.846382 145.916786 
L 136.780705 118.994182 
L 145.715028 120.512073 
L 154.649351 118.434958 
L 163.583673 106.211936 
L 172.517996 103.575598 
L 181.452319 101.178927 
L 190.386642 89.674906 
L 199.320965 85.680454 
L 208.255288 83.843006 
L 217.18961 87.358124 
L 226.123933 86.079899 
L 235.058256 81.04689 
L 243.992579 80.168111 
L 252.926902 85.760343 
L 261.861224 84.402229 
L 270.795547 82.564782 
L 279.72987 80.407778 
L 288.664193 77.931218 
L 297.598516 78.410552 
L 306.532839 76.333437 
L 315.467161 80.008332 
L 324.401484 77.771439 
L 333.335807 78.011107 
L 342.27013 76.09377 
L 351.204453 80.407778 
L 360.138776 76.413326 
L 369.073098 76.173659 
L 378.007421 76.013881 
L 386.941744 75.534547 
L 395.876067 74.975323 
L 404.81039 74.336211 
L 413.744712 74.895434 
L 422.679035 75.854103 
L 431.613358 74.655767 
L 440.547681 72.898208 
L 449.482004 73.537321 
L 458.416327 74.256322 
L 467.350649 73.697099 
L 476.284972 73.457432 
L 485.219295 73.537321 
L 494.153618 73.697099 
L 503.087941 72.898208 
L 512.022263 74.4161 
L 520.956586 72.898208 
L 529.890909 72.658541 
" style="fill:none;stroke:#1f77b4;stroke-linecap:square;stroke-width:1.5;"/>
   </g>
   <g id="line2d_13">
    <path clip-path="url(#p8cf0e2ba04)" d="M 92.109091 347.796378 
L 101.043414 316.799433 
L 109.977737 267.108453 
L 118.912059 275.656579 
L 127.846382 297.14673 
L 136.780705 203.436892 
L 145.715028 231.557832 
L 154.649351 242.822186 
L 163.583673 210.387238 
L 172.517996 171.161722 
L 181.452319 203.197225 
L 190.386642 177.07351 
L 199.320965 153.426356 
L 208.255288 168.205827 
L 217.18961 178.831069 
L 226.123933 179.869626 
L 235.058256 152.947022 
L 243.992579 140.723999 
L 252.926902 144.638562 
L 261.861224 145.437452 
L 270.795547 139.285997 
L 279.72987 148.712903 
L 288.664193 139.126218 
L 297.598516 139.84522 
L 306.532839 132.255761 
L 315.467161 159.258255 
L 324.401484 141.922335 
L 333.335807 112.203614 
L 342.27013 133.853542 
L 351.204453 143.679893 
L 360.138776 164.451043 
L 369.073098 170.842165 
L 378.007421 160.057146 
L 386.941744 149.272126 
L 395.876067 159.497922 
L 404.81039 142.002224 
L 413.744712 138.96644 
L 422.679035 128.341199 
L 431.613358 115.878509 
L 440.547681 117.236623 
L 449.482004 115.159508 
L 458.416327 93.669357 
L 467.350649 108.209162 
L 476.284972 110.8455 
L 485.219295 128.101532 
L 494.153618 115.79862 
L 503.087941 116.198065 
L 512.022263 122.189743 
L 520.956586 104.694044 
L 529.890909 117.316512 
" style="fill:none;stroke:#ff7f0e;stroke-linecap:square;stroke-width:1.5;"/>
   </g>
   <g id="line2d_14">
    <path clip-path="url(#p8cf0e2ba04)" d="M 92.109091 279.571142 
L 101.043414 274.058799 
L 109.977737 205.913452 
L 118.912059 150.63024 
L 127.846382 144.239117 
L 136.780705 116.996956 
L 145.715028 115.638842 
L 154.649351 112.123725 
L 163.583673 111.884057 
L 172.517996 95.826361 
L 181.452319 93.110134 
L 190.386642 93.669357 
L 199.320965 88.077125 
L 208.255288 83.52345 
L 217.18961 82.964227 
L 226.123933 85.20112 
L 235.058256 82.564782 
L 243.992579 86.00001 
L 252.926902 85.041342 
L 261.861224 82.484893 
L 270.795547 83.683228 
L 279.72987 82.644671 
L 288.664193 82.72456 
L 297.598516 80.727334 
L 306.532839 79.688776 
L 315.467161 80.887112 
L 324.401484 87.118457 
L 333.335807 80.487667 
L 342.27013 78.57033 
L 351.204453 79.528998 
L 360.138776 78.969775 
L 369.073098 79.129553 
L 378.007421 80.088222 
L 386.941744 78.650219 
L 395.876067 79.768665 
L 404.81039 79.768665 
L 413.744712 79.049664 
L 422.679035 79.209442 
L 431.613358 77.69155 
L 440.547681 77.451883 
L 449.482004 78.011107 
L 458.416327 78.410552 
L 467.350649 78.809997 
L 476.284972 78.969775 
L 485.219295 79.36922 
L 494.153618 78.730108 
L 503.087941 78.330663 
L 512.022263 77.69155 
L 520.956586 77.771439 
L 529.890909 77.052438 
" style="fill:none;stroke:#2ca02c;stroke-linecap:square;stroke-width:1.5;"/>
   </g>
   <g id="line2d_15">
    <path clip-path="url(#p8cf0e2ba04)" d="M 92.109091 318.717169 
L 101.043414 292.279411 
L 109.977737 272.866055 
L 118.912059 259.631398 
L 127.846382 250.757804 
L 136.780705 246.024378 
L 145.715028 239.132511 
L 154.649351 232.417358 
L 163.583673 227.399927 
L 172.517996 223.019931 
L 181.452319 219.264747 
L 190.386642 216.033395 
L 199.320965 212.246655 
L 208.255288 208.706053 
L 217.18961 204.464904 
L 226.123933 200.545628 
L 235.058256 195.711223 
L 243.992579 190.895751 
L 252.926902 186.282239 
L 261.861224 181.952733 
L 270.795547 177.515936 
L 279.72987 174.347696 
L 288.664193 171.084788 
L 297.598516 168.58554 
L 306.532839 165.46779 
L 315.467161 162.558312 
L 324.401484 160.8101 
L 333.335807 158.563301 
L 342.27013 156.146098 
L 351.204453 153.571115 
L 360.138776 152.132153 
L 369.073098 150.756304 
L 378.007421 149.512991 
L 386.941744 147.506019 
L 395.876067 147.354549 
L 404.81039 146.111236 
L 413.744712 145.038327 
L 422.679035 143.889682 
L 431.613358 142.551701 
L 440.547681 141.800664 
L 449.482004 140.273345 
L 458.416327 139.023721 
L 467.350649 138.329485 
L 476.284972 137.698362 
L 485.219295 136.852656 
L 494.153618 135.697701 
L 503.087941 135.382139 
L 512.022263 134.921419 
L 520.956586 134.359719 
L 529.890909 133.823264 
" style="fill:none;stroke:#d62728;stroke-linecap:square;stroke-width:1.5;"/>
   </g>
   <g id="patch_3">
    <path d="M 70.22 376 
L 70.22 56.601989 
" style="fill:none;stroke:#000000;stroke-linecap:square;stroke-linejoin:miter;stroke-width:0.8;"/>
   </g>
   <g id="patch_4">
    <path d="M 551.78 376 
L 551.78 56.601989 
" style="fill:none;stroke:#000000;stroke-linecap:square;stroke-linejoin:miter;stroke-width:0.8;"/>
   </g>
   <g id="patch_5">
    <path d="M 70.22 376 
L 551.78 376 
" style="fill:none;stroke:#000000;stroke-linecap:square;stroke-linejoin:miter;stroke-width:0.8;"/>
   </g>
   <g id="patch_6">
    <path d="M 70.22 56.601989 
L 551.78 56.601989 
" style="fill:none;stroke:#000000;stroke-linecap:square;stroke-linejoin:miter;stroke-width:0.8;"/>
   </g>
   <g id="legend_1">
    <g id="patch_7">
     <path d="M 61.402344 42.709474 
L 560.597656 42.709474 
Q 563.597656 42.709474 563.597656 39.709474 
L 563.597656 19.192287 
Q 563.597656 16.192287 560.597656 16.192287 
L 61.402344 16.192287 
Q 58.402344 16.192287 58.402344 19.192287 
L 58.402344 39.709474 
Q 58.402344 42.709474 61.402344 42.709474 
z
" style="fill:#ffffff;opacity:0.8;stroke:#cccccc;stroke-linejoin:miter;"/>
    </g>
    <g id="line2d_16">
     <path d="M 64.402344 28.339943 
L 94.402344 28.339943 
" style="fill:none;stroke:#1f77b4;stroke-linecap:square;stroke-width:1.5;"/>
    </g>
    <g id="line2d_17"/>
    <g id="text_14">
     <!-- FedAvg -->
     <g transform="translate(106.402344 33.589943)scale(0.15 -0.15)">
      <defs>
       <path d="M 628 4666 
L 3309 4666 
L 3309 4134 
L 1259 4134 
L 1259 2759 
L 3109 2759 
L 3109 2228 
L 1259 2228 
L 1259 0 
L 628 0 
L 628 4666 
z
" id="DejaVuSans-46" transform="scale(0.015625)"/>
       <path d="M 191 3500 
L 800 3500 
L 1894 563 
L 2988 3500 
L 3597 3500 
L 2284 0 
L 1503 0 
L 191 3500 
z
" id="DejaVuSans-76" transform="scale(0.015625)"/>
       <path d="M 2906 1791 
Q 2906 2416 2648 2759 
Q 2391 3103 1925 3103 
Q 1463 3103 1205 2759 
Q 947 2416 947 1791 
Q 947 1169 1205 825 
Q 1463 481 1925 481 
Q 2391 481 2648 825 
Q 2906 1169 2906 1791 
z
M 3481 434 
Q 3481 -459 3084 -895 
Q 2688 -1331 1869 -1331 
Q 1566 -1331 1297 -1286 
Q 1028 -1241 775 -1147 
L 775 -588 
Q 1028 -725 1275 -790 
Q 1522 -856 1778 -856 
Q 2344 -856 2625 -561 
Q 2906 -266 2906 331 
L 2906 616 
Q 2728 306 2450 153 
Q 2172 0 1784 0 
Q 1141 0 747 490 
Q 353 981 353 1791 
Q 353 2603 747 3093 
Q 1141 3584 1784 3584 
Q 2172 3584 2450 3431 
Q 2728 3278 2906 2969 
L 2906 3500 
L 3481 3500 
L 3481 434 
z
" id="DejaVuSans-67" transform="scale(0.015625)"/>
      </defs>
      <use xlink:href="#DejaVuSans-46"/>
      <use x="52.019531" xlink:href="#DejaVuSans-65"/>
      <use x="113.542969" xlink:href="#DejaVuSans-64"/>
      <use x="177.019531" xlink:href="#DejaVuSans-41"/>
      <use x="239.552734" xlink:href="#DejaVuSans-76"/>
      <use x="298.732422" xlink:href="#DejaVuSans-67"/>
     </g>
    </g>
    <g id="line2d_18">
     <path d="M 190.7375 28.339943 
L 220.7375 28.339943 
" style="fill:none;stroke:#ff7f0e;stroke-linecap:square;stroke-width:1.5;"/>
    </g>
    <g id="line2d_19"/>
    <g id="text_15">
     <!-- FedMed -->
     <g transform="translate(232.7375 33.589943)scale(0.15 -0.15)">
      <defs>
       <path d="M 628 4666 
L 1569 4666 
L 2759 1491 
L 3956 4666 
L 4897 4666 
L 4897 0 
L 4281 0 
L 4281 4097 
L 3078 897 
L 2444 897 
L 1241 4097 
L 1241 0 
L 628 0 
L 628 4666 
z
" id="DejaVuSans-4d" transform="scale(0.015625)"/>
      </defs>
      <use xlink:href="#DejaVuSans-46"/>
      <use x="52.019531" xlink:href="#DejaVuSans-65"/>
      <use x="113.542969" xlink:href="#DejaVuSans-64"/>
      <use x="177.019531" xlink:href="#DejaVuSans-4d"/>
      <use x="263.298828" xlink:href="#DejaVuSans-65"/>
      <use x="324.822266" xlink:href="#DejaVuSans-64"/>
     </g>
    </g>
    <g id="line2d_20">
     <path d="M 320.986719 28.339943 
L 350.986719 28.339943 
" style="fill:none;stroke:#2ca02c;stroke-linecap:square;stroke-width:1.5;"/>
    </g>
    <g id="line2d_21"/>
    <g id="text_16">
     <!-- FedProx -->
     <g transform="translate(362.986719 33.589943)scale(0.15 -0.15)">
      <defs>
       <path d="M 1259 4147 
L 1259 2394 
L 2053 2394 
Q 2494 2394 2734 2622 
Q 2975 2850 2975 3272 
Q 2975 3691 2734 3919 
Q 2494 4147 2053 4147 
L 1259 4147 
z
M 628 4666 
L 2053 4666 
Q 2838 4666 3239 4311 
Q 3641 3956 3641 3272 
Q 3641 2581 3239 2228 
Q 2838 1875 2053 1875 
L 1259 1875 
L 1259 0 
L 628 0 
L 628 4666 
z
" id="DejaVuSans-50" transform="scale(0.015625)"/>
       <path d="M 3513 3500 
L 2247 1797 
L 3578 0 
L 2900 0 
L 1881 1375 
L 863 0 
L 184 0 
L 1544 1831 
L 300 3500 
L 978 3500 
L 1906 2253 
L 2834 3500 
L 3513 3500 
z
" id="DejaVuSans-78" transform="scale(0.015625)"/>
      </defs>
      <use xlink:href="#DejaVuSans-46"/>
      <use x="52.019531" xlink:href="#DejaVuSans-65"/>
      <use x="113.542969" xlink:href="#DejaVuSans-64"/>
      <use x="177.019531" xlink:href="#DejaVuSans-50"/>
      <use x="235.572266" xlink:href="#DejaVuSans-72"/>
      <use x="274.435547" xlink:href="#DejaVuSans-6f"/>
      <use x="332.492188" xlink:href="#DejaVuSans-78"/>
     </g>
    </g>
    <g id="line2d_22">
     <path d="M 451.739844 28.339943 
L 481.739844 28.339943 
" style="fill:none;stroke:#d62728;stroke-linecap:square;stroke-width:1.5;"/>
    </g>
    <g id="line2d_23"/>
    <g id="text_17">
     <!-- qFedAvg -->
     <g transform="translate(493.739844 33.589943)scale(0.15 -0.15)">
      <defs>
       <path d="M 947 1747 
Q 947 1113 1208 752 
Q 1469 391 1925 391 
Q 2381 391 2643 752 
Q 2906 1113 2906 1747 
Q 2906 2381 2643 2742 
Q 2381 3103 1925 3103 
Q 1469 3103 1208 2742 
Q 947 2381 947 1747 
z
M 2906 525 
Q 2725 213 2448 61 
Q 2172 -91 1784 -91 
Q 1150 -91 751 415 
Q 353 922 353 1747 
Q 353 2572 751 3078 
Q 1150 3584 1784 3584 
Q 2172 3584 2448 3432 
Q 2725 3281 2906 2969 
L 2906 3500 
L 3481 3500 
L 3481 -1331 
L 2906 -1331 
L 2906 525 
z
" id="DejaVuSans-71" transform="scale(0.015625)"/>
      </defs>
      <use xlink:href="#DejaVuSans-71"/>
      <use x="63.476562" xlink:href="#DejaVuSans-46"/>
      <use x="115.496094" xlink:href="#DejaVuSans-65"/>
      <use x="177.019531" xlink:href="#DejaVuSans-64"/>
      <use x="240.496094" xlink:href="#DejaVuSans-41"/>
      <use x="303.029297" xlink:href="#DejaVuSans-76"/>
      <use x="362.208984" xlink:href="#DejaVuSans-67"/>
     </g>
    </g>
   </g>
  </g>
 </g>
 <defs>
  <clipPath id="p8cf0e2ba04">
   <rect height="319.398011" width="481.56" x="70.22" y="56.601989"/>
  </clipPath>
 </defs>
</svg>
