<?xml version="1.0" encoding="utf-8" standalone="no"?>
<!DOCTYPE svg PUBLIC "-//W3C//DTD SVG 1.1//EN"
  "http://www.w3.org/Graphics/SVG/1.1/DTD/svg11.dtd">
<svg height="345.6pt" version="1.1" viewBox="0 0 460.8 345.6" width="460.8pt" xmlns="http://www.w3.org/2000/svg" xmlns:xlink="http://www.w3.org/1999/xlink">
 <metadata>
  <rdf:RDF xmlns:cc="http://creativecommons.org/ns#" xmlns:dc="http://purl.org/dc/elements/1.1/" xmlns:rdf="http://www.w3.org/1999/02/22-rdf-syntax-ns#">
   <cc:Work>
    <dc:type rdf:resource="http://purl.org/dc/dcmitype/StillImage"/>
    <dc:date>2021-05-07T18:58:13.426373</dc:date>
    <dc:format>image/svg+xml</dc:format>
    <dc:creator>
     <cc:Agent>
      <dc:title>Matplotlib v3.4.1, https://matplotlib.org/</dc:title>
     </cc:Agent>
    </dc:creator>
   </cc:Work>
  </rdf:RDF>
 </metadata>
 <defs>
  <style type="text/css">*{stroke-linecap:butt;stroke-linejoin:round;}</style>
 </defs>
 <g id="figure_1">
  <g id="patch_1">
   <path d="M 0 345.6 
L 460.8 345.6 
L 460.8 0 
L 0 0 
z
" style="fill:#ffffff;"/>
  </g>
  <g id="axes_1">
   <g id="patch_2">
    <path d="M 50.87 303.64 
L 450 303.64 
L 450 32.876829 
L 50.87 32.876829 
z
" style="fill:#ffffff;"/>
   </g>
   <g id="PolyCollection_1">
    <path clip-path="url(#p2b465af67b)" d="M 69.012273 240.279984 
L 69.012273 270.946926 
L 76.417282 248.375086 
L 83.822291 186.230524 
L 91.227301 158.850326 
L 98.63231 112.719321 
L 106.037319 100.3462 
L 113.442328 104.689634 
L 120.847338 110.554418 
L 128.252347 88.547051 
L 135.657356 88.296527 
L 143.062365 81.53302 
L 150.467375 63.125572 
L 157.872384 67.736652 
L 165.277393 67.874578 
L 172.682403 60.31176 
L 180.087412 73.159045 
L 187.492421 59.707512 
L 194.89743 54.554087 
L 202.30244 66.734737 
L 209.707449 66.36179 
L 217.112458 62.406574 
L 224.517468 64.079884 
L 231.922477 57.190641 
L 239.327486 59.025291 
L 246.732495 52.692373 
L 254.137505 58.207837 
L 261.542514 52.087843 
L 268.947523 51.610448 
L 276.352532 53.933608 
L 283.757542 52.872587 
L 291.162551 50.646773 
L 298.56756 50.372208 
L 305.97257 52.498173 
L 313.377579 50.648393 
L 320.782588 50.533707 
L 328.187597 48.689899 
L 335.592607 51.183732 
L 342.997616 50.785386 
L 350.402625 48.874852 
L 357.807635 48.656318 
L 365.212644 50.135271 
L 372.617653 48.376158 
L 380.022662 50.385395 
L 387.427672 49.781013 
L 394.832681 50.148031 
L 402.23769 49.722252 
L 409.642699 46.757818 
L 417.047709 49.426198 
L 424.452718 47.495432 
L 431.857727 46.644199 
L 431.857727 45.950918 
L 431.857727 45.950918 
L 424.452718 45.371613 
L 417.047709 46.296082 
L 409.642699 45.293445 
L 402.23769 45.184246 
L 394.832681 47.341775 
L 387.427672 45.533376 
L 380.022662 45.200921 
L 372.617653 46.802267 
L 365.212644 46.946643 
L 357.807635 46.65807 
L 350.402625 46.5755 
L 342.997616 46.296529 
L 335.592607 46.849927 
L 328.187597 46.896417 
L 320.782588 46.820135 
L 313.377579 47.657194 
L 305.97257 47.303013 
L 298.56756 48.205306 
L 291.162551 47.794777 
L 283.757542 48.560162 
L 276.352532 47.635104 
L 268.947523 48.462665 
L 261.542514 46.217744 
L 254.137505 49.615199 
L 246.732495 48.604412 
L 239.327486 50.157381 
L 231.922477 49.952577 
L 224.517468 47.958022 
L 217.112458 48.543624 
L 209.707449 46.627861 
L 202.30244 48.702258 
L 194.89743 51.365459 
L 187.492421 51.78654 
L 180.087412 48.668237 
L 172.682403 57.98047 
L 165.277393 49.737834 
L 157.872384 54.498521 
L 150.467375 56.254366 
L 143.062365 56.745853 
L 135.657356 55.420888 
L 128.252347 64.143959 
L 120.847338 66.881959 
L 113.442328 79.816848 
L 106.037319 78.177885 
L 98.63231 93.269403 
L 91.227301 125.861297 
L 83.822291 136.958786 
L 76.417282 161.558974 
L 69.012273 240.279984 
z
" style="fill:#1f77b4;fill-opacity:0.5;"/>
   </g>
   <g id="PolyCollection_2">
    <path clip-path="url(#p2b465af67b)" d="M 69.012273 268.433317 
L 69.012273 291.332583 
L 76.417282 279.640098 
L 83.822291 245.634557 
L 91.227301 262.299318 
L 98.63231 258.912653 
L 106.037319 171.109312 
L 113.442328 199.084032 
L 120.847338 230.951634 
L 128.252347 230.09418 
L 135.657356 184.179217 
L 143.062365 190.626222 
L 150.467375 149.20822 
L 157.872384 130.731221 
L 165.277393 153.966738 
L 172.682403 185.055146 
L 180.087412 187.088575 
L 187.492421 159.538325 
L 194.89743 137.718085 
L 202.30244 134.504078 
L 209.707449 152.549437 
L 217.112458 138.409529 
L 224.517468 131.64236 
L 231.922477 130.081439 
L 239.327486 125.046168 
L 246.732495 121.398066 
L 254.137505 142.637943 
L 261.542514 155.982964 
L 268.947523 81.258669 
L 276.352532 110.926746 
L 283.757542 156.139159 
L 291.162551 171.250797 
L 298.56756 151.769211 
L 305.97257 155.949725 
L 313.377579 124.7389 
L 320.782588 116.178646 
L 328.187597 129.143582 
L 335.592607 161.649391 
L 342.997616 120.721779 
L 350.402625 87.396044 
L 357.807635 117.729796 
L 365.212644 88.584052 
L 372.617653 78.473833 
L 380.022662 92.481252 
L 387.427672 88.680392 
L 394.832681 108.598017 
L 402.23769 87.043965 
L 409.642699 82.979089 
L 417.047709 100.768535 
L 424.452718 82.545506 
L 431.857727 117.439493 
L 431.857727 60.676702 
L 431.857727 60.676702 
L 424.452718 56.141257 
L 417.047709 69.189846 
L 409.642699 67.672467 
L 402.23769 69.861915 
L 394.832681 75.908465 
L 387.427672 56.804549 
L 380.022662 58.850122 
L 372.617653 60.756785 
L 365.212644 75.935787 
L 357.807635 58.210982 
L 350.402625 69.237909 
L 342.997616 75.477569 
L 335.592607 61.878632 
L 328.187597 68.687329 
L 320.782588 90.761823 
L 313.377579 84.92084 
L 305.97257 65.130954 
L 298.56756 75.565791 
L 291.162551 47.654465 
L 283.757542 52.568836 
L 276.352532 68.141194 
L 268.947523 62.730673 
L 261.542514 54.356594 
L 254.137505 90.543492 
L 246.732495 66.507505 
L 239.327486 74.688232 
L 231.922477 84.337026 
L 224.517468 90.526027 
L 217.112458 84.438676 
L 209.707449 76.417129 
L 202.30244 84.401184 
L 194.89743 77.516161 
L 187.492421 64.533552 
L 180.087412 95.039741 
L 172.682403 96.393353 
L 165.277393 102.328502 
L 157.872384 99.187089 
L 150.467375 112.253635 
L 143.062365 118.830769 
L 135.657356 67.76519 
L 128.252347 101.252944 
L 120.847338 137.105651 
L 113.442328 144.771739 
L 106.037319 123.119761 
L 98.63231 215.060243 
L 91.227301 188.015918 
L 83.822291 179.935312 
L 76.417282 232.402593 
L 69.012273 268.433317 
z
" style="fill:#ff7f0e;fill-opacity:0.5;"/>
   </g>
   <g id="PolyCollection_3">
    <path clip-path="url(#p2b465af67b)" d="M 69.012273 213.639363 
L 69.012273 265.500148 
L 76.417282 222.463753 
L 83.822291 190.884794 
L 91.227301 168.274912 
L 98.63231 128.409715 
L 106.037319 89.244769 
L 113.442328 97.068375 
L 120.847338 85.734377 
L 128.252347 77.408632 
L 135.657356 84.206898 
L 143.062365 62.249096 
L 150.467375 59.126033 
L 157.872384 63.388309 
L 165.277393 62.660364 
L 172.682403 59.825177 
L 180.087412 59.222042 
L 187.492421 54.947628 
L 194.89743 54.469474 
L 202.30244 54.878442 
L 209.707449 61.309902 
L 217.112458 51.509171 
L 224.517468 57.24869 
L 231.922477 53.377509 
L 239.327486 58.132838 
L 246.732495 52.442168 
L 254.137505 52.807885 
L 261.542514 50.536018 
L 268.947523 53.721315 
L 276.352532 51.030484 
L 283.757542 49.866016 
L 291.162551 50.35246 
L 298.56756 50.698714 
L 305.97257 50.839216 
L 313.377579 53.074875 
L 320.782588 51.819262 
L 328.187597 51.819262 
L 335.592607 53.031529 
L 342.997616 51.183727 
L 350.402625 50.797382 
L 357.807635 50.778051 
L 365.212644 52.255551 
L 372.617653 50.823151 
L 380.022662 51.673971 
L 387.427672 50.815564 
L 394.832681 50.767284 
L 402.23769 50.67748 
L 409.642699 50.728475 
L 417.047709 50.664194 
L 424.452718 50.728475 
L 431.857727 51.107193 
L 431.857727 47.334357 
L 431.857727 47.334357 
L 424.452718 46.897294 
L 417.047709 46.553685 
L 409.642699 46.897294 
L 402.23769 46.676361 
L 394.832681 46.994448 
L 387.427672 47.082132 
L 380.022662 47.719324 
L 372.617653 47.210509 
L 365.212644 47.545635 
L 357.807635 47.119645 
L 350.402625 47.236278 
L 342.997616 47.937641 
L 335.592607 48.129293 
L 328.187597 47.845961 
L 320.782588 47.845961 
L 313.377579 48.22191 
L 305.97257 47.330407 
L 298.56756 46.791092 
L 291.162551 47.6812 
L 283.757542 47.895717 
L 276.352532 48.906665 
L 268.947523 48.663178 
L 261.542514 47.769569 
L 254.137505 48.760827 
L 246.732495 48.718653 
L 239.327486 47.378817 
L 231.922477 49.142948 
L 224.517468 49.622601 
L 217.112458 49.923577 
L 209.707449 50.59204 
L 202.30244 50.905141 
L 194.89743 51.178145 
L 187.492421 50.699991 
L 180.087412 52.815864 
L 172.682403 53.708328 
L 165.277393 57.127465 
L 157.872384 54.903921 
L 150.467375 54.543436 
L 143.062365 54.819462 
L 135.657356 62.909606 
L 128.252347 66.716674 
L 120.847338 66.956633 
L 113.442328 71.122481 
L 106.037319 71.604054 
L 98.63231 89.407839 
L 91.227301 106.783299 
L 83.822291 130.401027 
L 76.417282 149.128584 
L 69.012273 213.639363 
z
" style="fill:#2ca02c;fill-opacity:0.5;"/>
   </g>
   <g id="PolyCollection_4">
    <path clip-path="url(#p2b465af67b)" d="M 69.012273 224.674007 
L 69.012273 261.014596 
L 76.417282 228.054613 
L 83.822291 210.545329 
L 91.227301 197.148509 
L 98.63231 191.577626 
L 106.037319 189.714353 
L 113.442328 181.990457 
L 120.847338 174.846382 
L 128.252347 167.070652 
L 135.657356 159.703099 
L 143.062365 151.371339 
L 150.467375 142.593588 
L 157.872384 134.484939 
L 165.277393 128.493812 
L 172.682403 123.536253 
L 180.087412 120.16631 
L 187.492421 116.854025 
L 194.89743 114.484728 
L 202.30244 113.051948 
L 209.707449 110.756142 
L 217.112458 108.660588 
L 224.517468 106.786338 
L 231.922477 105.122033 
L 239.327486 104.486378 
L 246.732495 105.039239 
L 254.137505 103.824197 
L 261.542514 103.616972 
L 268.947523 103.018271 
L 276.352532 101.713624 
L 283.757542 100.883663 
L 291.162551 101.651176 
L 298.56756 101.145944 
L 305.97257 100.282266 
L 313.377579 99.913654 
L 320.782588 99.86725 
L 328.187597 99.22395 
L 335.592607 98.809069 
L 342.997616 98.870072 
L 350.402625 99.10926 
L 357.807635 99.079963 
L 365.212644 98.889652 
L 372.617653 98.895078 
L 380.022662 98.398498 
L 387.427672 97.443342 
L 394.832681 97.372987 
L 402.23769 97.346524 
L 409.642699 97.390069 
L 417.047709 96.911687 
L 424.452718 96.963655 
L 431.857727 96.613209 
L 431.857727 81.793404 
L 431.857727 81.793404 
L 424.452718 82.012238 
L 417.047709 82.031982 
L 409.642699 82.627712 
L 402.23769 82.896821 
L 394.832681 83.192592 
L 387.427672 83.884856 
L 380.022662 84.293823 
L 372.617653 84.463192 
L 365.212644 84.253795 
L 357.807635 84.643505 
L 350.402625 84.904218 
L 342.997616 85.121924 
L 335.592607 85.258115 
L 328.187597 86.185874 
L 320.782588 86.197782 
L 313.377579 86.226566 
L 305.97257 86.674279 
L 298.56756 86.831008 
L 291.162551 87.303218 
L 283.757542 88.414447 
L 276.352532 88.68008 
L 268.947523 89.502175 
L 261.542514 90.525383 
L 254.137505 90.898179 
L 246.732495 91.713209 
L 239.327486 92.770902 
L 231.922477 93.88605 
L 224.517468 95.186295 
L 217.112458 96.437711 
L 209.707449 97.704128 
L 202.30244 98.727328 
L 194.89743 100.742447 
L 187.492421 103.045538 
L 180.087412 104.888992 
L 172.682403 107.587782 
L 165.277393 111.824623 
L 157.872384 114.97419 
L 150.467375 117.671108 
L 143.062365 124.500206 
L 135.657356 129.251132 
L 128.252347 132.925451 
L 120.847338 140.745828 
L 113.442328 149.659729 
L 106.037319 157.488977 
L 98.63231 165.980144 
L 91.227301 177.938771 
L 83.822291 192.146632 
L 76.417282 199.180809 
L 69.012273 224.674007 
z
" style="fill:#d62728;fill-opacity:0.5;"/>
   </g>
   <g id="matplotlib.axis_1">
    <g id="xtick_1">
     <g id="line2d_1">
      <defs>
       <path d="M 0 0 
L 0 3.5 
" id="m67a07ef0ae" style="stroke:#000000;stroke-width:0.8;"/>
      </defs>
      <g>
       <use style="stroke:#000000;stroke-width:0.8;" x="69.012273" xlink:href="#m67a07ef0ae" y="303.64"/>
      </g>
     </g>
     <g id="text_1">
      <!-- 0 -->
      <g transform="translate(65.831023 318.238437)scale(0.1 -0.1)">
       <defs>
        <path d="M 2034 4250 
Q 1547 4250 1301 3770 
Q 1056 3291 1056 2328 
Q 1056 1369 1301 889 
Q 1547 409 2034 409 
Q 2525 409 2770 889 
Q 3016 1369 3016 2328 
Q 3016 3291 2770 3770 
Q 2525 4250 2034 4250 
z
M 2034 4750 
Q 2819 4750 3233 4129 
Q 3647 3509 3647 2328 
Q 3647 1150 3233 529 
Q 2819 -91 2034 -91 
Q 1250 -91 836 529 
Q 422 1150 422 2328 
Q 422 3509 836 4129 
Q 1250 4750 2034 4750 
z
" id="DejaVuSans-30" transform="scale(0.015625)"/>
       </defs>
       <use xlink:href="#DejaVuSans-30"/>
      </g>
     </g>
    </g>
    <g id="xtick_2">
     <g id="line2d_2">
      <g>
       <use style="stroke:#000000;stroke-width:0.8;" x="143.062365" xlink:href="#m67a07ef0ae" y="303.64"/>
      </g>
     </g>
     <g id="text_2">
      <!-- 10 -->
      <g transform="translate(136.699865 318.238437)scale(0.1 -0.1)">
       <defs>
        <path d="M 794 531 
L 1825 531 
L 1825 4091 
L 703 3866 
L 703 4441 
L 1819 4666 
L 2450 4666 
L 2450 531 
L 3481 531 
L 3481 0 
L 794 0 
L 794 531 
z
" id="DejaVuSans-31" transform="scale(0.015625)"/>
       </defs>
       <use xlink:href="#DejaVuSans-31"/>
       <use x="63.623047" xlink:href="#DejaVuSans-30"/>
      </g>
     </g>
    </g>
    <g id="xtick_3">
     <g id="line2d_3">
      <g>
       <use style="stroke:#000000;stroke-width:0.8;" x="217.112458" xlink:href="#m67a07ef0ae" y="303.64"/>
      </g>
     </g>
     <g id="text_3">
      <!-- 20 -->
      <g transform="translate(210.749958 318.238437)scale(0.1 -0.1)">
       <defs>
        <path d="M 1228 531 
L 3431 531 
L 3431 0 
L 469 0 
L 469 531 
Q 828 903 1448 1529 
Q 2069 2156 2228 2338 
Q 2531 2678 2651 2914 
Q 2772 3150 2772 3378 
Q 2772 3750 2511 3984 
Q 2250 4219 1831 4219 
Q 1534 4219 1204 4116 
Q 875 4013 500 3803 
L 500 4441 
Q 881 4594 1212 4672 
Q 1544 4750 1819 4750 
Q 2544 4750 2975 4387 
Q 3406 4025 3406 3419 
Q 3406 3131 3298 2873 
Q 3191 2616 2906 2266 
Q 2828 2175 2409 1742 
Q 1991 1309 1228 531 
z
" id="DejaVuSans-32" transform="scale(0.015625)"/>
       </defs>
       <use xlink:href="#DejaVuSans-32"/>
       <use x="63.623047" xlink:href="#DejaVuSans-30"/>
      </g>
     </g>
    </g>
    <g id="xtick_4">
     <g id="line2d_4">
      <g>
       <use style="stroke:#000000;stroke-width:0.8;" x="291.162551" xlink:href="#m67a07ef0ae" y="303.64"/>
      </g>
     </g>
     <g id="text_4">
      <!-- 30 -->
      <g transform="translate(284.800051 318.238437)scale(0.1 -0.1)">
       <defs>
        <path d="M 2597 2516 
Q 3050 2419 3304 2112 
Q 3559 1806 3559 1356 
Q 3559 666 3084 287 
Q 2609 -91 1734 -91 
Q 1441 -91 1130 -33 
Q 819 25 488 141 
L 488 750 
Q 750 597 1062 519 
Q 1375 441 1716 441 
Q 2309 441 2620 675 
Q 2931 909 2931 1356 
Q 2931 1769 2642 2001 
Q 2353 2234 1838 2234 
L 1294 2234 
L 1294 2753 
L 1863 2753 
Q 2328 2753 2575 2939 
Q 2822 3125 2822 3475 
Q 2822 3834 2567 4026 
Q 2313 4219 1838 4219 
Q 1578 4219 1281 4162 
Q 984 4106 628 3988 
L 628 4550 
Q 988 4650 1302 4700 
Q 1616 4750 1894 4750 
Q 2613 4750 3031 4423 
Q 3450 4097 3450 3541 
Q 3450 3153 3228 2886 
Q 3006 2619 2597 2516 
z
" id="DejaVuSans-33" transform="scale(0.015625)"/>
       </defs>
       <use xlink:href="#DejaVuSans-33"/>
       <use x="63.623047" xlink:href="#DejaVuSans-30"/>
      </g>
     </g>
    </g>
    <g id="xtick_5">
     <g id="line2d_5">
      <g>
       <use style="stroke:#000000;stroke-width:0.8;" x="365.212644" xlink:href="#m67a07ef0ae" y="303.64"/>
      </g>
     </g>
     <g id="text_5">
      <!-- 40 -->
      <g transform="translate(358.850144 318.238437)scale(0.1 -0.1)">
       <defs>
        <path d="M 2419 4116 
L 825 1625 
L 2419 1625 
L 2419 4116 
z
M 2253 4666 
L 3047 4666 
L 3047 1625 
L 3713 1625 
L 3713 1100 
L 3047 1100 
L 3047 0 
L 2419 0 
L 2419 1100 
L 313 1100 
L 313 1709 
L 2253 4666 
z
" id="DejaVuSans-34" transform="scale(0.015625)"/>
       </defs>
       <use xlink:href="#DejaVuSans-34"/>
       <use x="63.623047" xlink:href="#DejaVuSans-30"/>
      </g>
     </g>
    </g>
    <g id="xtick_6">
     <g id="line2d_6">
      <g>
       <use style="stroke:#000000;stroke-width:0.8;" x="439.262737" xlink:href="#m67a07ef0ae" y="303.64"/>
      </g>
     </g>
     <g id="text_6">
      <!-- 50 -->
      <g transform="translate(432.900237 318.238437)scale(0.1 -0.1)">
       <defs>
        <path d="M 691 4666 
L 3169 4666 
L 3169 4134 
L 1269 4134 
L 1269 2991 
Q 1406 3038 1543 3061 
Q 1681 3084 1819 3084 
Q 2600 3084 3056 2656 
Q 3513 2228 3513 1497 
Q 3513 744 3044 326 
Q 2575 -91 1722 -91 
Q 1428 -91 1123 -41 
Q 819 9 494 109 
L 494 744 
Q 775 591 1075 516 
Q 1375 441 1709 441 
Q 2250 441 2565 725 
Q 2881 1009 2881 1497 
Q 2881 1984 2565 2268 
Q 2250 2553 1709 2553 
Q 1456 2553 1204 2497 
Q 953 2441 691 2322 
L 691 4666 
z
" id="DejaVuSans-35" transform="scale(0.015625)"/>
       </defs>
       <use xlink:href="#DejaVuSans-35"/>
       <use x="63.623047" xlink:href="#DejaVuSans-30"/>
      </g>
     </g>
    </g>
    <g id="text_7">
     <!-- Global Communication Rounds -->
     <g transform="translate(173.473281 331.916562)scale(0.1 -0.1)">
      <defs>
       <path d="M 3809 666 
L 3809 1919 
L 2778 1919 
L 2778 2438 
L 4434 2438 
L 4434 434 
Q 4069 175 3628 42 
Q 3188 -91 2688 -91 
Q 1594 -91 976 548 
Q 359 1188 359 2328 
Q 359 3472 976 4111 
Q 1594 4750 2688 4750 
Q 3144 4750 3555 4637 
Q 3966 4525 4313 4306 
L 4313 3634 
Q 3963 3931 3569 4081 
Q 3175 4231 2741 4231 
Q 1884 4231 1454 3753 
Q 1025 3275 1025 2328 
Q 1025 1384 1454 906 
Q 1884 428 2741 428 
Q 3075 428 3337 486 
Q 3600 544 3809 666 
z
" id="DejaVuSans-47" transform="scale(0.015625)"/>
       <path d="M 603 4863 
L 1178 4863 
L 1178 0 
L 603 0 
L 603 4863 
z
" id="DejaVuSans-6c" transform="scale(0.015625)"/>
       <path d="M 1959 3097 
Q 1497 3097 1228 2736 
Q 959 2375 959 1747 
Q 959 1119 1226 758 
Q 1494 397 1959 397 
Q 2419 397 2687 759 
Q 2956 1122 2956 1747 
Q 2956 2369 2687 2733 
Q 2419 3097 1959 3097 
z
M 1959 3584 
Q 2709 3584 3137 3096 
Q 3566 2609 3566 1747 
Q 3566 888 3137 398 
Q 2709 -91 1959 -91 
Q 1206 -91 779 398 
Q 353 888 353 1747 
Q 353 2609 779 3096 
Q 1206 3584 1959 3584 
z
" id="DejaVuSans-6f" transform="scale(0.015625)"/>
       <path d="M 3116 1747 
Q 3116 2381 2855 2742 
Q 2594 3103 2138 3103 
Q 1681 3103 1420 2742 
Q 1159 2381 1159 1747 
Q 1159 1113 1420 752 
Q 1681 391 2138 391 
Q 2594 391 2855 752 
Q 3116 1113 3116 1747 
z
M 1159 2969 
Q 1341 3281 1617 3432 
Q 1894 3584 2278 3584 
Q 2916 3584 3314 3078 
Q 3713 2572 3713 1747 
Q 3713 922 3314 415 
Q 2916 -91 2278 -91 
Q 1894 -91 1617 61 
Q 1341 213 1159 525 
L 1159 0 
L 581 0 
L 581 4863 
L 1159 4863 
L 1159 2969 
z
" id="DejaVuSans-62" transform="scale(0.015625)"/>
       <path d="M 2194 1759 
Q 1497 1759 1228 1600 
Q 959 1441 959 1056 
Q 959 750 1161 570 
Q 1363 391 1709 391 
Q 2188 391 2477 730 
Q 2766 1069 2766 1631 
L 2766 1759 
L 2194 1759 
z
M 3341 1997 
L 3341 0 
L 2766 0 
L 2766 531 
Q 2569 213 2275 61 
Q 1981 -91 1556 -91 
Q 1019 -91 701 211 
Q 384 513 384 1019 
Q 384 1609 779 1909 
Q 1175 2209 1959 2209 
L 2766 2209 
L 2766 2266 
Q 2766 2663 2505 2880 
Q 2244 3097 1772 3097 
Q 1472 3097 1187 3025 
Q 903 2953 641 2809 
L 641 3341 
Q 956 3463 1253 3523 
Q 1550 3584 1831 3584 
Q 2591 3584 2966 3190 
Q 3341 2797 3341 1997 
z
" id="DejaVuSans-61" transform="scale(0.015625)"/>
       <path id="DejaVuSans-20" transform="scale(0.015625)"/>
       <path d="M 4122 4306 
L 4122 3641 
Q 3803 3938 3442 4084 
Q 3081 4231 2675 4231 
Q 1875 4231 1450 3742 
Q 1025 3253 1025 2328 
Q 1025 1406 1450 917 
Q 1875 428 2675 428 
Q 3081 428 3442 575 
Q 3803 722 4122 1019 
L 4122 359 
Q 3791 134 3420 21 
Q 3050 -91 2638 -91 
Q 1578 -91 968 557 
Q 359 1206 359 2328 
Q 359 3453 968 4101 
Q 1578 4750 2638 4750 
Q 3056 4750 3426 4639 
Q 3797 4528 4122 4306 
z
" id="DejaVuSans-43" transform="scale(0.015625)"/>
       <path d="M 3328 2828 
Q 3544 3216 3844 3400 
Q 4144 3584 4550 3584 
Q 5097 3584 5394 3201 
Q 5691 2819 5691 2113 
L 5691 0 
L 5113 0 
L 5113 2094 
Q 5113 2597 4934 2840 
Q 4756 3084 4391 3084 
Q 3944 3084 3684 2787 
Q 3425 2491 3425 1978 
L 3425 0 
L 2847 0 
L 2847 2094 
Q 2847 2600 2669 2842 
Q 2491 3084 2119 3084 
Q 1678 3084 1418 2786 
Q 1159 2488 1159 1978 
L 1159 0 
L 581 0 
L 581 3500 
L 1159 3500 
L 1159 2956 
Q 1356 3278 1631 3431 
Q 1906 3584 2284 3584 
Q 2666 3584 2933 3390 
Q 3200 3197 3328 2828 
z
" id="DejaVuSans-6d" transform="scale(0.015625)"/>
       <path d="M 544 1381 
L 544 3500 
L 1119 3500 
L 1119 1403 
Q 1119 906 1312 657 
Q 1506 409 1894 409 
Q 2359 409 2629 706 
Q 2900 1003 2900 1516 
L 2900 3500 
L 3475 3500 
L 3475 0 
L 2900 0 
L 2900 538 
Q 2691 219 2414 64 
Q 2138 -91 1772 -91 
Q 1169 -91 856 284 
Q 544 659 544 1381 
z
M 1991 3584 
L 1991 3584 
z
" id="DejaVuSans-75" transform="scale(0.015625)"/>
       <path d="M 3513 2113 
L 3513 0 
L 2938 0 
L 2938 2094 
Q 2938 2591 2744 2837 
Q 2550 3084 2163 3084 
Q 1697 3084 1428 2787 
Q 1159 2491 1159 1978 
L 1159 0 
L 581 0 
L 581 3500 
L 1159 3500 
L 1159 2956 
Q 1366 3272 1645 3428 
Q 1925 3584 2291 3584 
Q 2894 3584 3203 3211 
Q 3513 2838 3513 2113 
z
" id="DejaVuSans-6e" transform="scale(0.015625)"/>
       <path d="M 603 3500 
L 1178 3500 
L 1178 0 
L 603 0 
L 603 3500 
z
M 603 4863 
L 1178 4863 
L 1178 4134 
L 603 4134 
L 603 4863 
z
" id="DejaVuSans-69" transform="scale(0.015625)"/>
       <path d="M 3122 3366 
L 3122 2828 
Q 2878 2963 2633 3030 
Q 2388 3097 2138 3097 
Q 1578 3097 1268 2742 
Q 959 2388 959 1747 
Q 959 1106 1268 751 
Q 1578 397 2138 397 
Q 2388 397 2633 464 
Q 2878 531 3122 666 
L 3122 134 
Q 2881 22 2623 -34 
Q 2366 -91 2075 -91 
Q 1284 -91 818 406 
Q 353 903 353 1747 
Q 353 2603 823 3093 
Q 1294 3584 2113 3584 
Q 2378 3584 2631 3529 
Q 2884 3475 3122 3366 
z
" id="DejaVuSans-63" transform="scale(0.015625)"/>
       <path d="M 1172 4494 
L 1172 3500 
L 2356 3500 
L 2356 3053 
L 1172 3053 
L 1172 1153 
Q 1172 725 1289 603 
Q 1406 481 1766 481 
L 2356 481 
L 2356 0 
L 1766 0 
Q 1100 0 847 248 
Q 594 497 594 1153 
L 594 3053 
L 172 3053 
L 172 3500 
L 594 3500 
L 594 4494 
L 1172 4494 
z
" id="DejaVuSans-74" transform="scale(0.015625)"/>
       <path d="M 2841 2188 
Q 3044 2119 3236 1894 
Q 3428 1669 3622 1275 
L 4263 0 
L 3584 0 
L 2988 1197 
Q 2756 1666 2539 1819 
Q 2322 1972 1947 1972 
L 1259 1972 
L 1259 0 
L 628 0 
L 628 4666 
L 2053 4666 
Q 2853 4666 3247 4331 
Q 3641 3997 3641 3322 
Q 3641 2881 3436 2590 
Q 3231 2300 2841 2188 
z
M 1259 4147 
L 1259 2491 
L 2053 2491 
Q 2509 2491 2742 2702 
Q 2975 2913 2975 3322 
Q 2975 3731 2742 3939 
Q 2509 4147 2053 4147 
L 1259 4147 
z
" id="DejaVuSans-52" transform="scale(0.015625)"/>
       <path d="M 2906 2969 
L 2906 4863 
L 3481 4863 
L 3481 0 
L 2906 0 
L 2906 525 
Q 2725 213 2448 61 
Q 2172 -91 1784 -91 
Q 1150 -91 751 415 
Q 353 922 353 1747 
Q 353 2572 751 3078 
Q 1150 3584 1784 3584 
Q 2172 3584 2448 3432 
Q 2725 3281 2906 2969 
z
M 947 1747 
Q 947 1113 1208 752 
Q 1469 391 1925 391 
Q 2381 391 2643 752 
Q 2906 1113 2906 1747 
Q 2906 2381 2643 2742 
Q 2381 3103 1925 3103 
Q 1469 3103 1208 2742 
Q 947 2381 947 1747 
z
" id="DejaVuSans-64" transform="scale(0.015625)"/>
       <path d="M 2834 3397 
L 2834 2853 
Q 2591 2978 2328 3040 
Q 2066 3103 1784 3103 
Q 1356 3103 1142 2972 
Q 928 2841 928 2578 
Q 928 2378 1081 2264 
Q 1234 2150 1697 2047 
L 1894 2003 
Q 2506 1872 2764 1633 
Q 3022 1394 3022 966 
Q 3022 478 2636 193 
Q 2250 -91 1575 -91 
Q 1294 -91 989 -36 
Q 684 19 347 128 
L 347 722 
Q 666 556 975 473 
Q 1284 391 1588 391 
Q 1994 391 2212 530 
Q 2431 669 2431 922 
Q 2431 1156 2273 1281 
Q 2116 1406 1581 1522 
L 1381 1569 
Q 847 1681 609 1914 
Q 372 2147 372 2553 
Q 372 3047 722 3315 
Q 1072 3584 1716 3584 
Q 2034 3584 2315 3537 
Q 2597 3491 2834 3397 
z
" id="DejaVuSans-73" transform="scale(0.015625)"/>
      </defs>
      <use xlink:href="#DejaVuSans-47"/>
      <use x="77.490234" xlink:href="#DejaVuSans-6c"/>
      <use x="105.273438" xlink:href="#DejaVuSans-6f"/>
      <use x="166.455078" xlink:href="#DejaVuSans-62"/>
      <use x="229.931641" xlink:href="#DejaVuSans-61"/>
      <use x="291.210938" xlink:href="#DejaVuSans-6c"/>
      <use x="318.994141" xlink:href="#DejaVuSans-20"/>
      <use x="350.78125" xlink:href="#DejaVuSans-43"/>
      <use x="420.605469" xlink:href="#DejaVuSans-6f"/>
      <use x="481.787109" xlink:href="#DejaVuSans-6d"/>
      <use x="579.199219" xlink:href="#DejaVuSans-6d"/>
      <use x="676.611328" xlink:href="#DejaVuSans-75"/>
      <use x="739.990234" xlink:href="#DejaVuSans-6e"/>
      <use x="803.369141" xlink:href="#DejaVuSans-69"/>
      <use x="831.152344" xlink:href="#DejaVuSans-63"/>
      <use x="886.132812" xlink:href="#DejaVuSans-61"/>
      <use x="947.412109" xlink:href="#DejaVuSans-74"/>
      <use x="986.621094" xlink:href="#DejaVuSans-69"/>
      <use x="1014.404297" xlink:href="#DejaVuSans-6f"/>
      <use x="1075.585938" xlink:href="#DejaVuSans-6e"/>
      <use x="1138.964844" xlink:href="#DejaVuSans-20"/>
      <use x="1170.751953" xlink:href="#DejaVuSans-52"/>
      <use x="1235.734375" xlink:href="#DejaVuSans-6f"/>
      <use x="1296.916016" xlink:href="#DejaVuSans-75"/>
      <use x="1360.294922" xlink:href="#DejaVuSans-6e"/>
      <use x="1423.673828" xlink:href="#DejaVuSans-64"/>
      <use x="1487.150391" xlink:href="#DejaVuSans-73"/>
     </g>
    </g>
   </g>
   <g id="matplotlib.axis_2">
    <g id="ytick_1">
     <g id="line2d_7">
      <defs>
       <path d="M 0 0 
L -3.5 0 
" id="mbf17802d9e" style="stroke:#000000;stroke-width:0.8;"/>
      </defs>
      <g>
       <use style="stroke:#000000;stroke-width:0.8;" x="50.87" xlink:href="#mbf17802d9e" y="257.924835"/>
      </g>
     </g>
     <g id="text_8">
      <!-- 20 -->
      <g transform="translate(31.145 261.724054)scale(0.1 -0.1)">
       <use xlink:href="#DejaVuSans-32"/>
       <use x="63.623047" xlink:href="#DejaVuSans-30"/>
      </g>
     </g>
    </g>
    <g id="ytick_2">
     <g id="line2d_8">
      <g>
       <use style="stroke:#000000;stroke-width:0.8;" x="50.87" xlink:href="#mbf17802d9e" y="204.21923"/>
      </g>
     </g>
     <g id="text_9">
      <!-- 40 -->
      <g transform="translate(31.145 208.018449)scale(0.1 -0.1)">
       <use xlink:href="#DejaVuSans-34"/>
       <use x="63.623047" xlink:href="#DejaVuSans-30"/>
      </g>
     </g>
    </g>
    <g id="ytick_3">
     <g id="line2d_9">
      <g>
       <use style="stroke:#000000;stroke-width:0.8;" x="50.87" xlink:href="#mbf17802d9e" y="150.513625"/>
      </g>
     </g>
     <g id="text_10">
      <!-- 60 -->
      <g transform="translate(31.145 154.312844)scale(0.1 -0.1)">
       <defs>
        <path d="M 2113 2584 
Q 1688 2584 1439 2293 
Q 1191 2003 1191 1497 
Q 1191 994 1439 701 
Q 1688 409 2113 409 
Q 2538 409 2786 701 
Q 3034 994 3034 1497 
Q 3034 2003 2786 2293 
Q 2538 2584 2113 2584 
z
M 3366 4563 
L 3366 3988 
Q 3128 4100 2886 4159 
Q 2644 4219 2406 4219 
Q 1781 4219 1451 3797 
Q 1122 3375 1075 2522 
Q 1259 2794 1537 2939 
Q 1816 3084 2150 3084 
Q 2853 3084 3261 2657 
Q 3669 2231 3669 1497 
Q 3669 778 3244 343 
Q 2819 -91 2113 -91 
Q 1303 -91 875 529 
Q 447 1150 447 2328 
Q 447 3434 972 4092 
Q 1497 4750 2381 4750 
Q 2619 4750 2861 4703 
Q 3103 4656 3366 4563 
z
" id="DejaVuSans-36" transform="scale(0.015625)"/>
       </defs>
       <use xlink:href="#DejaVuSans-36"/>
       <use x="63.623047" xlink:href="#DejaVuSans-30"/>
      </g>
     </g>
    </g>
    <g id="ytick_4">
     <g id="line2d_10">
      <g>
       <use style="stroke:#000000;stroke-width:0.8;" x="50.87" xlink:href="#mbf17802d9e" y="96.80802"/>
      </g>
     </g>
     <g id="text_11">
      <!-- 80 -->
      <g transform="translate(31.145 100.607239)scale(0.1 -0.1)">
       <defs>
        <path d="M 2034 2216 
Q 1584 2216 1326 1975 
Q 1069 1734 1069 1313 
Q 1069 891 1326 650 
Q 1584 409 2034 409 
Q 2484 409 2743 651 
Q 3003 894 3003 1313 
Q 3003 1734 2745 1975 
Q 2488 2216 2034 2216 
z
M 1403 2484 
Q 997 2584 770 2862 
Q 544 3141 544 3541 
Q 544 4100 942 4425 
Q 1341 4750 2034 4750 
Q 2731 4750 3128 4425 
Q 3525 4100 3525 3541 
Q 3525 3141 3298 2862 
Q 3072 2584 2669 2484 
Q 3125 2378 3379 2068 
Q 3634 1759 3634 1313 
Q 3634 634 3220 271 
Q 2806 -91 2034 -91 
Q 1263 -91 848 271 
Q 434 634 434 1313 
Q 434 1759 690 2068 
Q 947 2378 1403 2484 
z
M 1172 3481 
Q 1172 3119 1398 2916 
Q 1625 2713 2034 2713 
Q 2441 2713 2670 2916 
Q 2900 3119 2900 3481 
Q 2900 3844 2670 4047 
Q 2441 4250 2034 4250 
Q 1625 4250 1398 4047 
Q 1172 3844 1172 3481 
z
" id="DejaVuSans-38" transform="scale(0.015625)"/>
       </defs>
       <use xlink:href="#DejaVuSans-38"/>
       <use x="63.623047" xlink:href="#DejaVuSans-30"/>
      </g>
     </g>
    </g>
    <g id="ytick_5">
     <g id="line2d_11">
      <g>
       <use style="stroke:#000000;stroke-width:0.8;" x="50.87" xlink:href="#mbf17802d9e" y="43.102415"/>
      </g>
     </g>
     <g id="text_12">
      <!-- 100 -->
      <g transform="translate(24.7825 46.901634)scale(0.1 -0.1)">
       <use xlink:href="#DejaVuSans-31"/>
       <use x="63.623047" xlink:href="#DejaVuSans-30"/>
       <use x="127.246094" xlink:href="#DejaVuSans-30"/>
      </g>
     </g>
    </g>
    <g id="text_13">
     <!-- Test Accuracy -->
     <g transform="translate(18.702813 202.520914)rotate(-90)scale(0.1 -0.1)">
      <defs>
       <path d="M -19 4666 
L 3928 4666 
L 3928 4134 
L 2272 4134 
L 2272 0 
L 1638 0 
L 1638 4134 
L -19 4134 
L -19 4666 
z
" id="DejaVuSans-54" transform="scale(0.015625)"/>
       <path d="M 3597 1894 
L 3597 1613 
L 953 1613 
Q 991 1019 1311 708 
Q 1631 397 2203 397 
Q 2534 397 2845 478 
Q 3156 559 3463 722 
L 3463 178 
Q 3153 47 2828 -22 
Q 2503 -91 2169 -91 
Q 1331 -91 842 396 
Q 353 884 353 1716 
Q 353 2575 817 3079 
Q 1281 3584 2069 3584 
Q 2775 3584 3186 3129 
Q 3597 2675 3597 1894 
z
M 3022 2063 
Q 3016 2534 2758 2815 
Q 2500 3097 2075 3097 
Q 1594 3097 1305 2825 
Q 1016 2553 972 2059 
L 3022 2063 
z
" id="DejaVuSans-65" transform="scale(0.015625)"/>
       <path d="M 2188 4044 
L 1331 1722 
L 3047 1722 
L 2188 4044 
z
M 1831 4666 
L 2547 4666 
L 4325 0 
L 3669 0 
L 3244 1197 
L 1141 1197 
L 716 0 
L 50 0 
L 1831 4666 
z
" id="DejaVuSans-41" transform="scale(0.015625)"/>
       <path d="M 2631 2963 
Q 2534 3019 2420 3045 
Q 2306 3072 2169 3072 
Q 1681 3072 1420 2755 
Q 1159 2438 1159 1844 
L 1159 0 
L 581 0 
L 581 3500 
L 1159 3500 
L 1159 2956 
Q 1341 3275 1631 3429 
Q 1922 3584 2338 3584 
Q 2397 3584 2469 3576 
Q 2541 3569 2628 3553 
L 2631 2963 
z
" id="DejaVuSans-72" transform="scale(0.015625)"/>
       <path d="M 2059 -325 
Q 1816 -950 1584 -1140 
Q 1353 -1331 966 -1331 
L 506 -1331 
L 506 -850 
L 844 -850 
Q 1081 -850 1212 -737 
Q 1344 -625 1503 -206 
L 1606 56 
L 191 3500 
L 800 3500 
L 1894 763 
L 2988 3500 
L 3597 3500 
L 2059 -325 
z
" id="DejaVuSans-79" transform="scale(0.015625)"/>
      </defs>
      <use xlink:href="#DejaVuSans-54"/>
      <use x="44.083984" xlink:href="#DejaVuSans-65"/>
      <use x="105.607422" xlink:href="#DejaVuSans-73"/>
      <use x="157.707031" xlink:href="#DejaVuSans-74"/>
      <use x="196.916016" xlink:href="#DejaVuSans-20"/>
      <use x="228.703125" xlink:href="#DejaVuSans-41"/>
      <use x="295.361328" xlink:href="#DejaVuSans-63"/>
      <use x="350.341797" xlink:href="#DejaVuSans-63"/>
      <use x="405.322266" xlink:href="#DejaVuSans-75"/>
      <use x="468.701172" xlink:href="#DejaVuSans-72"/>
      <use x="509.814453" xlink:href="#DejaVuSans-61"/>
      <use x="571.09375" xlink:href="#DejaVuSans-63"/>
      <use x="626.074219" xlink:href="#DejaVuSans-79"/>
     </g>
    </g>
   </g>
   <g id="line2d_12">
    <path clip-path="url(#p2b465af67b)" d="M 69.012273 255.613455 
L 76.417282 204.96703 
L 83.822291 161.594655 
L 91.227301 142.355812 
L 98.63231 102.994362 
L 106.037319 89.262043 
L 113.442328 92.253241 
L 120.847338 88.718189 
L 128.252347 76.345505 
L 135.657356 71.858707 
L 143.062365 69.139436 
L 150.467375 59.689969 
L 157.872384 61.117586 
L 165.277393 58.806206 
L 172.682403 59.146115 
L 180.087412 60.913641 
L 187.492421 55.747026 
L 194.89743 52.959773 
L 202.30244 57.718497 
L 209.707449 56.494825 
L 217.112458 55.475099 
L 224.517468 56.018953 
L 231.922477 53.571609 
L 239.327486 54.591336 
L 246.732495 50.648393 
L 254.137505 53.911518 
L 261.542514 49.152793 
L 268.947523 50.036557 
L 276.352532 50.784356 
L 283.757542 50.716374 
L 291.162551 49.220775 
L 298.56756 49.288757 
L 305.97257 49.900593 
L 313.377579 49.152793 
L 320.782588 48.676921 
L 328.187597 47.793158 
L 335.592607 49.01683 
L 342.997616 48.540957 
L 350.402625 47.725176 
L 357.807635 47.657194 
L 365.212644 48.540957 
L 372.617653 47.589212 
L 380.022662 47.793158 
L 387.427672 47.657194 
L 394.832681 48.744903 
L 402.23769 47.453249 
L 409.642699 46.025632 
L 417.047709 47.86114 
L 424.452718 46.433522 
L 431.857727 46.297559 
" style="fill:none;stroke:#1f77b4;stroke-linecap:square;stroke-width:1.5;"/>
   </g>
   <g id="line2d_13">
    <path clip-path="url(#p2b465af67b)" d="M 69.012273 279.88295 
L 76.417282 256.021346 
L 83.822291 212.784934 
L 91.227301 225.157618 
L 98.63231 236.986448 
L 106.037319 147.114536 
L 113.442328 171.927886 
L 120.847338 184.028642 
L 128.252347 165.673562 
L 135.657356 125.972203 
L 143.062365 154.728496 
L 150.467375 130.730928 
L 157.872384 114.959155 
L 165.277393 128.14762 
L 172.682403 140.724249 
L 180.087412 141.064158 
L 187.492421 112.035939 
L 194.89743 107.617123 
L 202.30244 109.452631 
L 209.707449 114.483283 
L 217.112458 111.424103 
L 224.517468 111.084194 
L 231.922477 107.209232 
L 239.327486 99.8672 
L 246.732495 93.952785 
L 254.137505 116.590718 
L 261.542514 105.169779 
L 268.947523 71.994671 
L 276.352532 89.53397 
L 283.757542 104.353998 
L 291.162551 109.452631 
L 298.56756 113.667501 
L 305.97257 110.540339 
L 313.377579 104.82987 
L 320.782588 103.470234 
L 328.187597 98.915455 
L 335.592607 111.764011 
L 342.997616 98.099674 
L 350.402625 78.316976 
L 357.807635 87.970389 
L 365.212644 82.25992 
L 372.617653 69.615309 
L 380.022662 75.665687 
L 387.427672 72.742471 
L 394.832681 92.253241 
L 402.23769 78.45294 
L 409.642699 75.325778 
L 417.047709 84.979191 
L 424.452718 69.343382 
L 431.857727 89.058097 
" style="fill:none;stroke:#ff7f0e;stroke-linecap:square;stroke-width:1.5;"/>
   </g>
   <g id="line2d_14">
    <path clip-path="url(#p2b465af67b)" d="M 69.012273 239.569755 
L 76.417282 185.796168 
L 83.822291 160.64291 
L 91.227301 137.529106 
L 98.63231 108.908777 
L 106.037319 80.424412 
L 113.442328 84.095428 
L 120.847338 76.345505 
L 128.252347 72.062653 
L 135.657356 73.558252 
L 143.062365 58.534279 
L 150.467375 56.834734 
L 157.872384 59.146115 
L 165.277393 59.893914 
L 172.682403 56.766753 
L 180.087412 56.018953 
L 187.492421 52.823809 
L 194.89743 52.823809 
L 202.30244 52.891791 
L 209.707449 55.950971 
L 217.112458 50.716374 
L 224.517468 53.435645 
L 231.922477 51.260229 
L 239.327486 52.755828 
L 246.732495 50.580411 
L 254.137505 50.784356 
L 261.542514 49.152793 
L 268.947523 51.192247 
L 276.352532 49.968575 
L 283.757542 48.880866 
L 291.162551 49.01683 
L 298.56756 48.744903 
L 305.97257 49.084812 
L 313.377579 50.648393 
L 320.782588 49.832611 
L 328.187597 49.832611 
L 335.592607 50.580411 
L 342.997616 49.560684 
L 350.402625 49.01683 
L 357.807635 48.948848 
L 365.212644 49.900593 
L 372.617653 49.01683 
L 380.022662 49.696648 
L 387.427672 48.948848 
L 394.832681 48.880866 
L 402.23769 48.676921 
L 409.642699 48.812884 
L 417.047709 48.608939 
L 424.452718 48.812884 
L 431.857727 49.220775 
" style="fill:none;stroke:#2ca02c;stroke-linecap:square;stroke-width:1.5;"/>
   </g>
   <g id="line2d_15">
    <path clip-path="url(#p2b465af67b)" d="M 69.012273 242.844302 
L 76.417282 213.617711 
L 83.822291 201.345981 
L 91.227301 187.54364 
L 98.63231 178.778885 
L 106.037319 173.601665 
L 113.442328 165.825093 
L 120.847338 157.796105 
L 128.252347 149.998051 
L 135.657356 144.477115 
L 143.062365 137.935773 
L 150.467375 130.132348 
L 157.872384 124.729564 
L 165.277393 120.159217 
L 172.682403 115.562017 
L 180.087412 112.527651 
L 187.492421 109.949782 
L 194.89743 107.613588 
L 202.30244 105.889638 
L 209.707449 104.230135 
L 217.112458 102.549149 
L 224.517468 100.986316 
L 231.922477 99.504042 
L 239.327486 98.62864 
L 246.732495 98.376224 
L 254.137505 97.361188 
L 261.542514 97.071178 
L 268.947523 96.260223 
L 276.352532 95.196852 
L 283.757542 94.649055 
L 291.162551 94.477197 
L 298.56756 93.988476 
L 305.97257 93.478273 
L 313.377579 93.07011 
L 320.782588 93.032516 
L 328.187597 92.704912 
L 335.592607 92.033592 
L 342.997616 91.995998 
L 350.402625 92.006739 
L 357.807635 91.861734 
L 365.212644 91.571724 
L 372.617653 91.679135 
L 380.022662 91.34616 
L 387.427672 90.664099 
L 394.832681 90.282789 
L 402.23769 90.121672 
L 409.642699 90.008891 
L 417.047709 89.471835 
L 424.452718 89.487946 
L 431.857727 89.203307 
" style="fill:none;stroke:#d62728;stroke-linecap:square;stroke-width:1.5;"/>
   </g>
   <g id="patch_3">
    <path d="M 50.87 303.64 
L 50.87 32.876829 
" style="fill:none;stroke:#000000;stroke-linecap:square;stroke-linejoin:miter;stroke-width:0.8;"/>
   </g>
   <g id="patch_4">
    <path d="M 450 303.64 
L 450 32.876829 
" style="fill:none;stroke:#000000;stroke-linecap:square;stroke-linejoin:miter;stroke-width:0.8;"/>
   </g>
   <g id="patch_5">
    <path d="M 50.87 303.64 
L 450 303.64 
" style="fill:none;stroke:#000000;stroke-linecap:square;stroke-linejoin:miter;stroke-width:0.8;"/>
   </g>
   <g id="patch_6">
    <path d="M 50.87 32.876829 
L 450 32.876829 
" style="fill:none;stroke:#000000;stroke-linecap:square;stroke-linejoin:miter;stroke-width:0.8;"/>
   </g>
   <g id="legend_1">
    <g id="patch_7">
     <path d="M 84.036563 28.478637 
L 416.833438 28.478637 
Q 418.833438 28.478637 418.833438 26.478637 
L 418.833438 12.800512 
Q 418.833438 10.800512 416.833438 10.800512 
L 84.036563 10.800512 
Q 82.036563 10.800512 82.036563 12.800512 
L 82.036563 26.478637 
Q 82.036563 28.478637 84.036563 28.478637 
z
" style="fill:#ffffff;opacity:0.8;stroke:#cccccc;stroke-linejoin:miter;"/>
    </g>
    <g id="line2d_16">
     <path d="M 86.036563 18.898949 
L 106.036563 18.898949 
" style="fill:none;stroke:#1f77b4;stroke-linecap:square;stroke-width:1.5;"/>
    </g>
    <g id="line2d_17"/>
    <g id="text_14">
     <!-- FedAvg -->
     <g transform="translate(114.036563 22.398949)scale(0.1 -0.1)">
      <defs>
       <path d="M 628 4666 
L 3309 4666 
L 3309 4134 
L 1259 4134 
L 1259 2759 
L 3109 2759 
L 3109 2228 
L 1259 2228 
L 1259 0 
L 628 0 
L 628 4666 
z
" id="DejaVuSans-46" transform="scale(0.015625)"/>
       <path d="M 191 3500 
L 800 3500 
L 1894 563 
L 2988 3500 
L 3597 3500 
L 2284 0 
L 1503 0 
L 191 3500 
z
" id="DejaVuSans-76" transform="scale(0.015625)"/>
       <path d="M 2906 1791 
Q 2906 2416 2648 2759 
Q 2391 3103 1925 3103 
Q 1463 3103 1205 2759 
Q 947 2416 947 1791 
Q 947 1169 1205 825 
Q 1463 481 1925 481 
Q 2391 481 2648 825 
Q 2906 1169 2906 1791 
z
M 3481 434 
Q 3481 -459 3084 -895 
Q 2688 -1331 1869 -1331 
Q 1566 -1331 1297 -1286 
Q 1028 -1241 775 -1147 
L 775 -588 
Q 1028 -725 1275 -790 
Q 1522 -856 1778 -856 
Q 2344 -856 2625 -561 
Q 2906 -266 2906 331 
L 2906 616 
Q 2728 306 2450 153 
Q 2172 0 1784 0 
Q 1141 0 747 490 
Q 353 981 353 1791 
Q 353 2603 747 3093 
Q 1141 3584 1784 3584 
Q 2172 3584 2450 3431 
Q 2728 3278 2906 2969 
L 2906 3500 
L 3481 3500 
L 3481 434 
z
" id="DejaVuSans-67" transform="scale(0.015625)"/>
      </defs>
      <use xlink:href="#DejaVuSans-46"/>
      <use x="52.019531" xlink:href="#DejaVuSans-65"/>
      <use x="113.542969" xlink:href="#DejaVuSans-64"/>
      <use x="177.019531" xlink:href="#DejaVuSans-41"/>
      <use x="239.552734" xlink:href="#DejaVuSans-76"/>
      <use x="298.732422" xlink:href="#DejaVuSans-67"/>
     </g>
    </g>
    <g id="line2d_18">
     <path d="M 170.26 18.898949 
L 190.26 18.898949 
" style="fill:none;stroke:#ff7f0e;stroke-linecap:square;stroke-width:1.5;"/>
    </g>
    <g id="line2d_19"/>
    <g id="text_15">
     <!-- FedMed -->
     <g transform="translate(198.26 22.398949)scale(0.1 -0.1)">
      <defs>
       <path d="M 628 4666 
L 1569 4666 
L 2759 1491 
L 3956 4666 
L 4897 4666 
L 4897 0 
L 4281 0 
L 4281 4097 
L 3078 897 
L 2444 897 
L 1241 4097 
L 1241 0 
L 628 0 
L 628 4666 
z
" id="DejaVuSans-4d" transform="scale(0.015625)"/>
      </defs>
      <use xlink:href="#DejaVuSans-46"/>
      <use x="52.019531" xlink:href="#DejaVuSans-65"/>
      <use x="113.542969" xlink:href="#DejaVuSans-64"/>
      <use x="177.019531" xlink:href="#DejaVuSans-4d"/>
      <use x="263.298828" xlink:href="#DejaVuSans-65"/>
      <use x="324.822266" xlink:href="#DejaVuSans-64"/>
     </g>
    </g>
    <g id="line2d_20">
     <path d="M 257.092813 18.898949 
L 277.092813 18.898949 
" style="fill:none;stroke:#2ca02c;stroke-linecap:square;stroke-width:1.5;"/>
    </g>
    <g id="line2d_21"/>
    <g id="text_16">
     <!-- FedProx -->
     <g transform="translate(285.092813 22.398949)scale(0.1 -0.1)">
      <defs>
       <path d="M 1259 4147 
L 1259 2394 
L 2053 2394 
Q 2494 2394 2734 2622 
Q 2975 2850 2975 3272 
Q 2975 3691 2734 3919 
Q 2494 4147 2053 4147 
L 1259 4147 
z
M 628 4666 
L 2053 4666 
Q 2838 4666 3239 4311 
Q 3641 3956 3641 3272 
Q 3641 2581 3239 2228 
Q 2838 1875 2053 1875 
L 1259 1875 
L 1259 0 
L 628 0 
L 628 4666 
z
" id="DejaVuSans-50" transform="scale(0.015625)"/>
       <path d="M 3513 3500 
L 2247 1797 
L 3578 0 
L 2900 0 
L 1881 1375 
L 863 0 
L 184 0 
L 1544 1831 
L 300 3500 
L 978 3500 
L 1906 2253 
L 2834 3500 
L 3513 3500 
z
" id="DejaVuSans-78" transform="scale(0.015625)"/>
      </defs>
      <use xlink:href="#DejaVuSans-46"/>
      <use x="52.019531" xlink:href="#DejaVuSans-65"/>
      <use x="113.542969" xlink:href="#DejaVuSans-64"/>
      <use x="177.019531" xlink:href="#DejaVuSans-50"/>
      <use x="235.572266" xlink:href="#DejaVuSans-72"/>
      <use x="274.435547" xlink:href="#DejaVuSans-6f"/>
      <use x="332.492188" xlink:href="#DejaVuSans-78"/>
     </g>
    </g>
    <g id="line2d_22">
     <path d="M 344.261563 18.898949 
L 364.261563 18.898949 
" style="fill:none;stroke:#d62728;stroke-linecap:square;stroke-width:1.5;"/>
    </g>
    <g id="line2d_23"/>
    <g id="text_17">
     <!-- qFedAvg -->
     <g transform="translate(372.261563 22.398949)scale(0.1 -0.1)">
      <defs>
       <path d="M 947 1747 
Q 947 1113 1208 752 
Q 1469 391 1925 391 
Q 2381 391 2643 752 
Q 2906 1113 2906 1747 
Q 2906 2381 2643 2742 
Q 2381 3103 1925 3103 
Q 1469 3103 1208 2742 
Q 947 2381 947 1747 
z
M 2906 525 
Q 2725 213 2448 61 
Q 2172 -91 1784 -91 
Q 1150 -91 751 415 
Q 353 922 353 1747 
Q 353 2572 751 3078 
Q 1150 3584 1784 3584 
Q 2172 3584 2448 3432 
Q 2725 3281 2906 2969 
L 2906 3500 
L 3481 3500 
L 3481 -1331 
L 2906 -1331 
L 2906 525 
z
" id="DejaVuSans-71" transform="scale(0.015625)"/>
      </defs>
      <use xlink:href="#DejaVuSans-71"/>
      <use x="63.476562" xlink:href="#DejaVuSans-46"/>
      <use x="115.496094" xlink:href="#DejaVuSans-65"/>
      <use x="177.019531" xlink:href="#DejaVuSans-64"/>
      <use x="240.496094" xlink:href="#DejaVuSans-41"/>
      <use x="303.029297" xlink:href="#DejaVuSans-76"/>
      <use x="362.208984" xlink:href="#DejaVuSans-67"/>
     </g>
    </g>
   </g>
  </g>
 </g>
 <defs>
  <clipPath id="p2b465af67b">
   <rect height="270.763171" width="399.13" x="50.87" y="32.876829"/>
  </clipPath>
 </defs>
</svg>
