<?xml version="1.0" encoding="utf-8" standalone="no"?>
<!DOCTYPE svg PUBLIC "-//W3C//DTD SVG 1.1//EN"
  "http://www.w3.org/Graphics/SVG/1.1/DTD/svg11.dtd">
<svg height="345.6pt" version="1.1" viewBox="0 0 460.8 345.6" width="460.8pt" xmlns="http://www.w3.org/2000/svg" xmlns:xlink="http://www.w3.org/1999/xlink">
 <metadata>
  <rdf:RDF xmlns:cc="http://creativecommons.org/ns#" xmlns:dc="http://purl.org/dc/elements/1.1/" xmlns:rdf="http://www.w3.org/1999/02/22-rdf-syntax-ns#">
   <cc:Work>
    <dc:type rdf:resource="http://purl.org/dc/dcmitype/StillImage"/>
    <dc:date>2021-05-07T11:38:02.241966</dc:date>
    <dc:format>image/svg+xml</dc:format>
    <dc:creator>
     <cc:Agent>
      <dc:title>Matplotlib v3.4.1, https://matplotlib.org/</dc:title>
     </cc:Agent>
    </dc:creator>
   </cc:Work>
  </rdf:RDF>
 </metadata>
 <defs>
  <style type="text/css">*{stroke-linecap:butt;stroke-linejoin:round;}</style>
 </defs>
 <g id="figure_1">
  <g id="patch_1">
   <path d="M 0 345.6 
L 460.8 345.6 
L 460.8 0 
L 0 0 
z
" style="fill:#ffffff;"/>
  </g>
  <g id="axes_1">
   <g id="patch_2">
    <path d="M 50.87 303.64 
L 450 303.64 
L 450 48.38 
L 50.87 48.38 
z
" style="fill:#ffffff;"/>
   </g>
   <g id="PolyCollection_1">
    <path clip-path="url(#pb20e97a070)" d="M 69.012273 216.764948 
L 69.012273 262.500773 
L 76.417282 249.301562 
L 83.822291 203.936925 
L 91.227301 169.705577 
L 98.63231 167.785343 
L 106.037319 128.628303 
L 113.442328 145.237288 
L 120.847338 123.407896 
L 128.252347 110.281404 
L 135.657356 93.05667 
L 143.062365 115.826206 
L 150.467375 90.454664 
L 157.872384 93.155169 
L 165.277393 90.129358 
L 172.682403 86.340946 
L 180.087412 85.726368 
L 187.492421 86.954361 
L 194.89743 79.505168 
L 202.30244 79.525773 
L 209.707449 86.752417 
L 217.112458 89.97991 
L 224.517468 97.542764 
L 231.922477 79.505195 
L 239.327486 84.404144 
L 246.732495 84.60226 
L 254.137505 84.182149 
L 261.542514 86.202133 
L 268.947523 83.1254 
L 276.352532 77.663136 
L 283.757542 79.208207 
L 291.162551 82.324922 
L 298.56756 73.946585 
L 305.97257 78.930173 
L 313.377579 76.63993 
L 320.782588 67.876849 
L 328.187597 73.888404 
L 335.592607 75.230722 
L 342.997616 69.167283 
L 350.402625 72.002193 
L 357.807635 77.098586 
L 365.212644 71.835073 
L 372.617653 76.862343 
L 380.022662 74.160827 
L 387.427672 68.810673 
L 394.832681 71.970633 
L 402.23769 68.770868 
L 409.642699 72.671338 
L 417.047709 70.516396 
L 424.452718 71.091701 
L 431.857727 78.049884 
L 431.857727 63.655764 
L 431.857727 63.655764 
L 424.452718 62.128202 
L 417.047709 61.552897 
L 409.642699 65.151003 
L 402.23769 61.428685 
L 394.832681 62.543706 
L 387.427672 61.964184 
L 380.022662 68.983084 
L 372.617653 61.966781 
L 365.212644 64.692832 
L 357.807635 64.031757 
L 350.402625 67.833714 
L 342.997616 64.771751 
L 335.592607 68.776146 
L 328.187597 64.365416 
L 320.782588 64.33627 
L 313.377579 65.065719 
L 305.97257 62.775475 
L 298.56756 67.039932 
L 291.162551 67.14734 
L 283.757542 69.976403 
L 276.352532 66.343731 
L 268.947523 70.517822 
L 261.542514 70.892918 
L 254.137505 71.330814 
L 246.732495 66.164438 
L 239.327486 69.670557 
L 231.922477 73.131244 
L 224.517468 80.263258 
L 217.112458 72.724363 
L 209.707449 76.095682 
L 202.30244 74.117449 
L 194.89743 74.713359 
L 187.492421 76.612868 
L 180.087412 78.27234 
L 172.682403 73.774454 
L 165.277393 76.602048 
L 157.872384 80.336067 
L 150.467375 77.571177 
L 143.062365 83.122267 
L 135.657356 85.899962 
L 128.252347 91.831245 
L 120.847338 94.094156 
L 113.442328 100.023219 
L 106.037319 92.900881 
L 98.63231 114.726147 
L 91.227301 140.852021 
L 83.822291 176.23255 
L 76.417282 211.698233 
L 69.012273 216.764948 
z
" style="fill:#1f77b4;fill-opacity:0.5;"/>
   </g>
   <g id="PolyCollection_2">
    <path clip-path="url(#pb20e97a070)" d="M 69.012273 224.479636 
L 69.012273 275.065579 
L 76.417282 292.037273 
L 83.822291 290.659661 
L 91.227301 217.336218 
L 98.63231 289.941553 
L 106.037319 258.501605 
L 113.442328 262.708425 
L 120.847338 256.189042 
L 128.252347 275.734916 
L 135.657356 213.549596 
L 143.062365 247.111388 
L 150.467375 194.770111 
L 157.872384 256.936219 
L 165.277393 180.356771 
L 172.682403 204.538494 
L 180.087412 170.716313 
L 187.492421 174.418969 
L 194.89743 186.984759 
L 202.30244 157.264298 
L 209.707449 238.091618 
L 217.112458 227.657339 
L 224.517468 191.702423 
L 231.922477 170.838517 
L 239.327486 160.913225 
L 246.732495 152.796566 
L 254.137505 174.997964 
L 261.542514 161.53588 
L 268.947523 188.626702 
L 276.352532 152.368784 
L 283.757542 180.417572 
L 291.162551 139.105364 
L 298.56756 148.476909 
L 305.97257 159.318315 
L 313.377579 156.510189 
L 320.782588 154.630209 
L 328.187597 156.715047 
L 335.592607 163.51573 
L 342.997616 143.917913 
L 350.402625 162.709201 
L 357.807635 147.164465 
L 365.212644 140.460792 
L 372.617653 184.077754 
L 380.022662 189.023661 
L 387.427672 143.629754 
L 394.832681 147.334304 
L 402.23769 135.590823 
L 409.642699 140.353235 
L 417.047709 208.619452 
L 424.452718 197.853022 
L 431.857727 163.709348 
L 431.857727 126.568757 
L 431.857727 126.568757 
L 424.452718 104.937962 
L 417.047709 97.335708 
L 409.642699 125.618243 
L 402.23769 119.306039 
L 394.832681 126.259963 
L 387.427672 131.834253 
L 380.022662 137.642471 
L 372.617653 118.857056 
L 365.212644 127.236601 
L 357.807635 121.395885 
L 350.402625 133.897257 
L 342.997616 128.957223 
L 335.592607 131.652466 
L 328.187597 120.762527 
L 320.782588 116.950491 
L 313.377579 113.344596 
L 305.97257 116.289518 
L 298.56756 124.542053 
L 291.162551 127.297593 
L 283.757542 124.386978 
L 276.352532 123.526701 
L 268.947523 133.724644 
L 261.542514 145.426063 
L 254.137505 130.094238 
L 246.732495 126.550749 
L 239.327486 119.440873 
L 231.922477 142.307953 
L 224.517468 130.505096 
L 217.112458 143.882564 
L 209.707449 138.913681 
L 202.30244 149.553819 
L 194.89743 147.447987 
L 187.492421 144.624374 
L 180.087412 143.580766 
L 172.682403 144.564524 
L 165.277393 148.61058 
L 157.872384 156.888585 
L 150.467375 133.765761 
L 143.062365 151.899318 
L 135.657356 169.352577 
L 128.252347 164.985386 
L 120.847338 141.671055 
L 113.442328 150.684901 
L 106.037319 157.912071 
L 98.63231 224.130107 
L 91.227301 178.366486 
L 83.822291 263.108028 
L 76.417282 215.13073 
L 69.012273 224.479636 
z
" style="fill:#ff7f0e;fill-opacity:0.5;"/>
   </g>
   <g id="PolyCollection_3">
    <path clip-path="url(#pb20e97a070)" d="M 69.012273 226.902325 
L 69.012273 270.054018 
L 76.417282 237.535687 
L 83.822291 219.802537 
L 91.227301 185.565499 
L 98.63231 161.829506 
L 106.037319 136.445319 
L 113.442328 115.576775 
L 120.847338 111.97016 
L 128.252347 113.144628 
L 135.657356 113.311837 
L 143.062365 109.017623 
L 150.467375 107.061685 
L 157.872384 113.902536 
L 165.277393 108.515057 
L 172.682403 108.126286 
L 180.087412 107.648616 
L 187.492421 111.015915 
L 194.89743 106.22631 
L 202.30244 107.069436 
L 209.707449 106.260135 
L 217.112458 108.826331 
L 224.517468 106.48058 
L 231.922477 107.043158 
L 239.327486 105.734447 
L 246.732495 105.988081 
L 254.137505 105.941736 
L 261.542514 108.824068 
L 268.947523 106.093558 
L 276.352532 106.394947 
L 283.757542 105.911731 
L 291.162551 105.36641 
L 298.56756 106.505952 
L 305.97257 107.060741 
L 313.377579 105.218498 
L 320.782588 106.256373 
L 328.187597 108.172933 
L 335.592607 105.351669 
L 342.997616 105.227866 
L 350.402625 105.397157 
L 357.807635 105.722684 
L 365.212644 105.567608 
L 372.617653 105.216146 
L 380.022662 105.242988 
L 387.427672 105.40155 
L 394.832681 105.423578 
L 402.23769 105.16659 
L 409.642699 105.438025 
L 417.047709 105.418838 
L 424.452718 105.385102 
L 431.857727 105.298733 
L 431.857727 60.713542 
L 431.857727 60.713542 
L 424.452718 62.496913 
L 417.047709 62.463177 
L 409.642699 63.019295 
L 402.23769 59.982727 
L 394.832681 62.889915 
L 387.427672 62.048986 
L 380.022662 60.769287 
L 372.617653 60.652302 
L 365.212644 62.314407 
L 357.807635 64.316724 
L 350.402625 62.484858 
L 342.997616 60.784409 
L 335.592607 60.948258 
L 328.187597 71.071351 
L 320.782588 64.502166 
L 313.377579 61.081429 
L 305.97257 71.464412 
L 298.56756 64.540239 
L 291.162551 61.364996 
L 283.757542 66.28507 
L 276.352532 69.685161 
L 268.947523 67.110026 
L 261.542514 76.748569 
L 254.137505 67.261848 
L 246.732495 66.352546 
L 239.327486 64.592613 
L 231.922477 74.070867 
L 224.517468 70.318659 
L 217.112458 78.328394 
L 209.707449 69.532321 
L 202.30244 72.606327 
L 194.89743 69.566145 
L 187.492421 79.878291 
L 180.087412 76.485758 
L 172.682403 78.884613 
L 165.277393 84.248889 
L 157.872384 88.497765 
L 150.467375 75.634428 
L 143.062365 82.020409 
L 135.657356 89.376117 
L 128.252347 91.413066 
L 120.847338 94.601101 
L 113.442328 98.329622 
L 106.037319 121.759545 
L 98.63231 125.859728 
L 91.227301 155.770904 
L 83.822291 146.70345 
L 76.417282 190.671737 
L 69.012273 226.902325 
z
" style="fill:#2ca02c;fill-opacity:0.5;"/>
   </g>
   <g id="PolyCollection_4">
    <path clip-path="url(#pb20e97a070)" d="M 69.012273 219.913876 
L 69.012273 286.526941 
L 76.417282 281.2003 
L 83.822291 270.644993 
L 91.227301 260.162421 
L 98.63231 248.092701 
L 106.037319 235.840868 
L 113.442328 229.408577 
L 120.847338 223.927667 
L 128.252347 219.403243 
L 135.657356 216.197303 
L 143.062365 213.348357 
L 150.467375 211.178119 
L 157.872384 207.864835 
L 165.277393 203.932333 
L 172.682403 200.31851 
L 180.087412 196.809505 
L 187.492421 192.272318 
L 194.89743 188.17905 
L 202.30244 184.473021 
L 209.707449 180.640559 
L 217.112458 176.374331 
L 224.517468 172.513959 
L 231.922477 170.525599 
L 239.327486 168.910018 
L 246.732495 165.802581 
L 254.137505 164.084574 
L 261.542514 161.403591 
L 268.947523 158.910356 
L 276.352532 157.914563 
L 283.757542 156.562405 
L 291.162551 155.887085 
L 298.56756 154.389909 
L 305.97257 152.413027 
L 313.377579 149.881137 
L 320.782588 149.136549 
L 328.187597 149.124985 
L 335.592607 147.922835 
L 342.997616 148.07384 
L 350.402625 147.327644 
L 357.807635 145.169561 
L 365.212644 144.409281 
L 372.617653 144.077726 
L 380.022662 143.765292 
L 387.427672 142.249315 
L 394.832681 141.158265 
L 402.23769 140.548535 
L 409.642699 140.840067 
L 417.047709 139.549009 
L 424.452718 139.331432 
L 431.857727 138.392055 
L 431.857727 116.772179 
L 431.857727 116.772179 
L 424.452718 117.321259 
L 417.047709 117.626347 
L 409.642699 117.982818 
L 402.23769 118.547045 
L 394.832681 118.562239 
L 387.427672 118.902835 
L 380.022662 119.363893 
L 372.617653 118.8583 
L 365.212644 119.15167 
L 357.807635 119.948021 
L 350.402625 120.675955 
L 342.997616 120.668306 
L 335.592607 120.739775 
L 328.187597 120.935184 
L 320.782588 121.366749 
L 313.377579 121.553867 
L 305.97257 121.73756 
L 298.56756 121.839972 
L 291.162551 122.172121 
L 283.757542 122.723927 
L 276.352532 123.610136 
L 268.947523 124.068714 
L 261.542514 125.245491 
L 254.137505 125.632321 
L 246.732495 126.141318 
L 239.327486 127.022039 
L 231.922477 127.451666 
L 224.517468 127.985729 
L 217.112458 129.124756 
L 209.707449 130.005636 
L 202.30244 130.354489 
L 194.89743 130.875224 
L 187.492421 132.110861 
L 180.087412 133.561589 
L 172.682403 135.154243 
L 165.277393 136.244399 
L 157.872384 137.368107 
L 150.467375 138.940599 
L 143.062365 140.360838 
L 135.657356 143.602068 
L 128.252347 147.440735 
L 120.847338 153.437772 
L 113.442328 162.205149 
L 106.037319 171.236906 
L 98.63231 182.618593 
L 91.227301 191.21684 
L 83.822291 200.129661 
L 76.417282 205.811037 
L 69.012273 219.913876 
z
" style="fill:#d62728;fill-opacity:0.5;"/>
   </g>
   <g id="matplotlib.axis_1">
    <g id="xtick_1">
     <g id="line2d_1">
      <defs>
       <path d="M 0 0 
L 0 3.5 
" id="m1703a5290f" style="stroke:#000000;stroke-width:0.8;"/>
      </defs>
      <g>
       <use style="stroke:#000000;stroke-width:0.8;" x="69.012273" xlink:href="#m1703a5290f" y="303.64"/>
      </g>
     </g>
     <g id="text_1">
      <!-- 0 -->
      <g transform="translate(65.831023 318.238437)scale(0.1 -0.1)">
       <defs>
        <path d="M 2034 4250 
Q 1547 4250 1301 3770 
Q 1056 3291 1056 2328 
Q 1056 1369 1301 889 
Q 1547 409 2034 409 
Q 2525 409 2770 889 
Q 3016 1369 3016 2328 
Q 3016 3291 2770 3770 
Q 2525 4250 2034 4250 
z
M 2034 4750 
Q 2819 4750 3233 4129 
Q 3647 3509 3647 2328 
Q 3647 1150 3233 529 
Q 2819 -91 2034 -91 
Q 1250 -91 836 529 
Q 422 1150 422 2328 
Q 422 3509 836 4129 
Q 1250 4750 2034 4750 
z
" id="DejaVuSans-30" transform="scale(0.015625)"/>
       </defs>
       <use xlink:href="#DejaVuSans-30"/>
      </g>
     </g>
    </g>
    <g id="xtick_2">
     <g id="line2d_2">
      <g>
       <use style="stroke:#000000;stroke-width:0.8;" x="143.062365" xlink:href="#m1703a5290f" y="303.64"/>
      </g>
     </g>
     <g id="text_2">
      <!-- 10 -->
      <g transform="translate(136.699865 318.238437)scale(0.1 -0.1)">
       <defs>
        <path d="M 794 531 
L 1825 531 
L 1825 4091 
L 703 3866 
L 703 4441 
L 1819 4666 
L 2450 4666 
L 2450 531 
L 3481 531 
L 3481 0 
L 794 0 
L 794 531 
z
" id="DejaVuSans-31" transform="scale(0.015625)"/>
       </defs>
       <use xlink:href="#DejaVuSans-31"/>
       <use x="63.623047" xlink:href="#DejaVuSans-30"/>
      </g>
     </g>
    </g>
    <g id="xtick_3">
     <g id="line2d_3">
      <g>
       <use style="stroke:#000000;stroke-width:0.8;" x="217.112458" xlink:href="#m1703a5290f" y="303.64"/>
      </g>
     </g>
     <g id="text_3">
      <!-- 20 -->
      <g transform="translate(210.749958 318.238437)scale(0.1 -0.1)">
       <defs>
        <path d="M 1228 531 
L 3431 531 
L 3431 0 
L 469 0 
L 469 531 
Q 828 903 1448 1529 
Q 2069 2156 2228 2338 
Q 2531 2678 2651 2914 
Q 2772 3150 2772 3378 
Q 2772 3750 2511 3984 
Q 2250 4219 1831 4219 
Q 1534 4219 1204 4116 
Q 875 4013 500 3803 
L 500 4441 
Q 881 4594 1212 4672 
Q 1544 4750 1819 4750 
Q 2544 4750 2975 4387 
Q 3406 4025 3406 3419 
Q 3406 3131 3298 2873 
Q 3191 2616 2906 2266 
Q 2828 2175 2409 1742 
Q 1991 1309 1228 531 
z
" id="DejaVuSans-32" transform="scale(0.015625)"/>
       </defs>
       <use xlink:href="#DejaVuSans-32"/>
       <use x="63.623047" xlink:href="#DejaVuSans-30"/>
      </g>
     </g>
    </g>
    <g id="xtick_4">
     <g id="line2d_4">
      <g>
       <use style="stroke:#000000;stroke-width:0.8;" x="291.162551" xlink:href="#m1703a5290f" y="303.64"/>
      </g>
     </g>
     <g id="text_4">
      <!-- 30 -->
      <g transform="translate(284.800051 318.238437)scale(0.1 -0.1)">
       <defs>
        <path d="M 2597 2516 
Q 3050 2419 3304 2112 
Q 3559 1806 3559 1356 
Q 3559 666 3084 287 
Q 2609 -91 1734 -91 
Q 1441 -91 1130 -33 
Q 819 25 488 141 
L 488 750 
Q 750 597 1062 519 
Q 1375 441 1716 441 
Q 2309 441 2620 675 
Q 2931 909 2931 1356 
Q 2931 1769 2642 2001 
Q 2353 2234 1838 2234 
L 1294 2234 
L 1294 2753 
L 1863 2753 
Q 2328 2753 2575 2939 
Q 2822 3125 2822 3475 
Q 2822 3834 2567 4026 
Q 2313 4219 1838 4219 
Q 1578 4219 1281 4162 
Q 984 4106 628 3988 
L 628 4550 
Q 988 4650 1302 4700 
Q 1616 4750 1894 4750 
Q 2613 4750 3031 4423 
Q 3450 4097 3450 3541 
Q 3450 3153 3228 2886 
Q 3006 2619 2597 2516 
z
" id="DejaVuSans-33" transform="scale(0.015625)"/>
       </defs>
       <use xlink:href="#DejaVuSans-33"/>
       <use x="63.623047" xlink:href="#DejaVuSans-30"/>
      </g>
     </g>
    </g>
    <g id="xtick_5">
     <g id="line2d_5">
      <g>
       <use style="stroke:#000000;stroke-width:0.8;" x="365.212644" xlink:href="#m1703a5290f" y="303.64"/>
      </g>
     </g>
     <g id="text_5">
      <!-- 40 -->
      <g transform="translate(358.850144 318.238437)scale(0.1 -0.1)">
       <defs>
        <path d="M 2419 4116 
L 825 1625 
L 2419 1625 
L 2419 4116 
z
M 2253 4666 
L 3047 4666 
L 3047 1625 
L 3713 1625 
L 3713 1100 
L 3047 1100 
L 3047 0 
L 2419 0 
L 2419 1100 
L 313 1100 
L 313 1709 
L 2253 4666 
z
" id="DejaVuSans-34" transform="scale(0.015625)"/>
       </defs>
       <use xlink:href="#DejaVuSans-34"/>
       <use x="63.623047" xlink:href="#DejaVuSans-30"/>
      </g>
     </g>
    </g>
    <g id="xtick_6">
     <g id="line2d_6">
      <g>
       <use style="stroke:#000000;stroke-width:0.8;" x="439.262737" xlink:href="#m1703a5290f" y="303.64"/>
      </g>
     </g>
     <g id="text_6">
      <!-- 50 -->
      <g transform="translate(432.900237 318.238437)scale(0.1 -0.1)">
       <defs>
        <path d="M 691 4666 
L 3169 4666 
L 3169 4134 
L 1269 4134 
L 1269 2991 
Q 1406 3038 1543 3061 
Q 1681 3084 1819 3084 
Q 2600 3084 3056 2656 
Q 3513 2228 3513 1497 
Q 3513 744 3044 326 
Q 2575 -91 1722 -91 
Q 1428 -91 1123 -41 
Q 819 9 494 109 
L 494 744 
Q 775 591 1075 516 
Q 1375 441 1709 441 
Q 2250 441 2565 725 
Q 2881 1009 2881 1497 
Q 2881 1984 2565 2268 
Q 2250 2553 1709 2553 
Q 1456 2553 1204 2497 
Q 953 2441 691 2322 
L 691 4666 
z
" id="DejaVuSans-35" transform="scale(0.015625)"/>
       </defs>
       <use xlink:href="#DejaVuSans-35"/>
       <use x="63.623047" xlink:href="#DejaVuSans-30"/>
      </g>
     </g>
    </g>
    <g id="text_7">
     <!-- Global Communication Rounds -->
     <g transform="translate(173.473281 331.916562)scale(0.1 -0.1)">
      <defs>
       <path d="M 3809 666 
L 3809 1919 
L 2778 1919 
L 2778 2438 
L 4434 2438 
L 4434 434 
Q 4069 175 3628 42 
Q 3188 -91 2688 -91 
Q 1594 -91 976 548 
Q 359 1188 359 2328 
Q 359 3472 976 4111 
Q 1594 4750 2688 4750 
Q 3144 4750 3555 4637 
Q 3966 4525 4313 4306 
L 4313 3634 
Q 3963 3931 3569 4081 
Q 3175 4231 2741 4231 
Q 1884 4231 1454 3753 
Q 1025 3275 1025 2328 
Q 1025 1384 1454 906 
Q 1884 428 2741 428 
Q 3075 428 3337 486 
Q 3600 544 3809 666 
z
" id="DejaVuSans-47" transform="scale(0.015625)"/>
       <path d="M 603 4863 
L 1178 4863 
L 1178 0 
L 603 0 
L 603 4863 
z
" id="DejaVuSans-6c" transform="scale(0.015625)"/>
       <path d="M 1959 3097 
Q 1497 3097 1228 2736 
Q 959 2375 959 1747 
Q 959 1119 1226 758 
Q 1494 397 1959 397 
Q 2419 397 2687 759 
Q 2956 1122 2956 1747 
Q 2956 2369 2687 2733 
Q 2419 3097 1959 3097 
z
M 1959 3584 
Q 2709 3584 3137 3096 
Q 3566 2609 3566 1747 
Q 3566 888 3137 398 
Q 2709 -91 1959 -91 
Q 1206 -91 779 398 
Q 353 888 353 1747 
Q 353 2609 779 3096 
Q 1206 3584 1959 3584 
z
" id="DejaVuSans-6f" transform="scale(0.015625)"/>
       <path d="M 3116 1747 
Q 3116 2381 2855 2742 
Q 2594 3103 2138 3103 
Q 1681 3103 1420 2742 
Q 1159 2381 1159 1747 
Q 1159 1113 1420 752 
Q 1681 391 2138 391 
Q 2594 391 2855 752 
Q 3116 1113 3116 1747 
z
M 1159 2969 
Q 1341 3281 1617 3432 
Q 1894 3584 2278 3584 
Q 2916 3584 3314 3078 
Q 3713 2572 3713 1747 
Q 3713 922 3314 415 
Q 2916 -91 2278 -91 
Q 1894 -91 1617 61 
Q 1341 213 1159 525 
L 1159 0 
L 581 0 
L 581 4863 
L 1159 4863 
L 1159 2969 
z
" id="DejaVuSans-62" transform="scale(0.015625)"/>
       <path d="M 2194 1759 
Q 1497 1759 1228 1600 
Q 959 1441 959 1056 
Q 959 750 1161 570 
Q 1363 391 1709 391 
Q 2188 391 2477 730 
Q 2766 1069 2766 1631 
L 2766 1759 
L 2194 1759 
z
M 3341 1997 
L 3341 0 
L 2766 0 
L 2766 531 
Q 2569 213 2275 61 
Q 1981 -91 1556 -91 
Q 1019 -91 701 211 
Q 384 513 384 1019 
Q 384 1609 779 1909 
Q 1175 2209 1959 2209 
L 2766 2209 
L 2766 2266 
Q 2766 2663 2505 2880 
Q 2244 3097 1772 3097 
Q 1472 3097 1187 3025 
Q 903 2953 641 2809 
L 641 3341 
Q 956 3463 1253 3523 
Q 1550 3584 1831 3584 
Q 2591 3584 2966 3190 
Q 3341 2797 3341 1997 
z
" id="DejaVuSans-61" transform="scale(0.015625)"/>
       <path id="DejaVuSans-20" transform="scale(0.015625)"/>
       <path d="M 4122 4306 
L 4122 3641 
Q 3803 3938 3442 4084 
Q 3081 4231 2675 4231 
Q 1875 4231 1450 3742 
Q 1025 3253 1025 2328 
Q 1025 1406 1450 917 
Q 1875 428 2675 428 
Q 3081 428 3442 575 
Q 3803 722 4122 1019 
L 4122 359 
Q 3791 134 3420 21 
Q 3050 -91 2638 -91 
Q 1578 -91 968 557 
Q 359 1206 359 2328 
Q 359 3453 968 4101 
Q 1578 4750 2638 4750 
Q 3056 4750 3426 4639 
Q 3797 4528 4122 4306 
z
" id="DejaVuSans-43" transform="scale(0.015625)"/>
       <path d="M 3328 2828 
Q 3544 3216 3844 3400 
Q 4144 3584 4550 3584 
Q 5097 3584 5394 3201 
Q 5691 2819 5691 2113 
L 5691 0 
L 5113 0 
L 5113 2094 
Q 5113 2597 4934 2840 
Q 4756 3084 4391 3084 
Q 3944 3084 3684 2787 
Q 3425 2491 3425 1978 
L 3425 0 
L 2847 0 
L 2847 2094 
Q 2847 2600 2669 2842 
Q 2491 3084 2119 3084 
Q 1678 3084 1418 2786 
Q 1159 2488 1159 1978 
L 1159 0 
L 581 0 
L 581 3500 
L 1159 3500 
L 1159 2956 
Q 1356 3278 1631 3431 
Q 1906 3584 2284 3584 
Q 2666 3584 2933 3390 
Q 3200 3197 3328 2828 
z
" id="DejaVuSans-6d" transform="scale(0.015625)"/>
       <path d="M 544 1381 
L 544 3500 
L 1119 3500 
L 1119 1403 
Q 1119 906 1312 657 
Q 1506 409 1894 409 
Q 2359 409 2629 706 
Q 2900 1003 2900 1516 
L 2900 3500 
L 3475 3500 
L 3475 0 
L 2900 0 
L 2900 538 
Q 2691 219 2414 64 
Q 2138 -91 1772 -91 
Q 1169 -91 856 284 
Q 544 659 544 1381 
z
M 1991 3584 
L 1991 3584 
z
" id="DejaVuSans-75" transform="scale(0.015625)"/>
       <path d="M 3513 2113 
L 3513 0 
L 2938 0 
L 2938 2094 
Q 2938 2591 2744 2837 
Q 2550 3084 2163 3084 
Q 1697 3084 1428 2787 
Q 1159 2491 1159 1978 
L 1159 0 
L 581 0 
L 581 3500 
L 1159 3500 
L 1159 2956 
Q 1366 3272 1645 3428 
Q 1925 3584 2291 3584 
Q 2894 3584 3203 3211 
Q 3513 2838 3513 2113 
z
" id="DejaVuSans-6e" transform="scale(0.015625)"/>
       <path d="M 603 3500 
L 1178 3500 
L 1178 0 
L 603 0 
L 603 3500 
z
M 603 4863 
L 1178 4863 
L 1178 4134 
L 603 4134 
L 603 4863 
z
" id="DejaVuSans-69" transform="scale(0.015625)"/>
       <path d="M 3122 3366 
L 3122 2828 
Q 2878 2963 2633 3030 
Q 2388 3097 2138 3097 
Q 1578 3097 1268 2742 
Q 959 2388 959 1747 
Q 959 1106 1268 751 
Q 1578 397 2138 397 
Q 2388 397 2633 464 
Q 2878 531 3122 666 
L 3122 134 
Q 2881 22 2623 -34 
Q 2366 -91 2075 -91 
Q 1284 -91 818 406 
Q 353 903 353 1747 
Q 353 2603 823 3093 
Q 1294 3584 2113 3584 
Q 2378 3584 2631 3529 
Q 2884 3475 3122 3366 
z
" id="DejaVuSans-63" transform="scale(0.015625)"/>
       <path d="M 1172 4494 
L 1172 3500 
L 2356 3500 
L 2356 3053 
L 1172 3053 
L 1172 1153 
Q 1172 725 1289 603 
Q 1406 481 1766 481 
L 2356 481 
L 2356 0 
L 1766 0 
Q 1100 0 847 248 
Q 594 497 594 1153 
L 594 3053 
L 172 3053 
L 172 3500 
L 594 3500 
L 594 4494 
L 1172 4494 
z
" id="DejaVuSans-74" transform="scale(0.015625)"/>
       <path d="M 2841 2188 
Q 3044 2119 3236 1894 
Q 3428 1669 3622 1275 
L 4263 0 
L 3584 0 
L 2988 1197 
Q 2756 1666 2539 1819 
Q 2322 1972 1947 1972 
L 1259 1972 
L 1259 0 
L 628 0 
L 628 4666 
L 2053 4666 
Q 2853 4666 3247 4331 
Q 3641 3997 3641 3322 
Q 3641 2881 3436 2590 
Q 3231 2300 2841 2188 
z
M 1259 4147 
L 1259 2491 
L 2053 2491 
Q 2509 2491 2742 2702 
Q 2975 2913 2975 3322 
Q 2975 3731 2742 3939 
Q 2509 4147 2053 4147 
L 1259 4147 
z
" id="DejaVuSans-52" transform="scale(0.015625)"/>
       <path d="M 2906 2969 
L 2906 4863 
L 3481 4863 
L 3481 0 
L 2906 0 
L 2906 525 
Q 2725 213 2448 61 
Q 2172 -91 1784 -91 
Q 1150 -91 751 415 
Q 353 922 353 1747 
Q 353 2572 751 3078 
Q 1150 3584 1784 3584 
Q 2172 3584 2448 3432 
Q 2725 3281 2906 2969 
z
M 947 1747 
Q 947 1113 1208 752 
Q 1469 391 1925 391 
Q 2381 391 2643 752 
Q 2906 1113 2906 1747 
Q 2906 2381 2643 2742 
Q 2381 3103 1925 3103 
Q 1469 3103 1208 2742 
Q 947 2381 947 1747 
z
" id="DejaVuSans-64" transform="scale(0.015625)"/>
       <path d="M 2834 3397 
L 2834 2853 
Q 2591 2978 2328 3040 
Q 2066 3103 1784 3103 
Q 1356 3103 1142 2972 
Q 928 2841 928 2578 
Q 928 2378 1081 2264 
Q 1234 2150 1697 2047 
L 1894 2003 
Q 2506 1872 2764 1633 
Q 3022 1394 3022 966 
Q 3022 478 2636 193 
Q 2250 -91 1575 -91 
Q 1294 -91 989 -36 
Q 684 19 347 128 
L 347 722 
Q 666 556 975 473 
Q 1284 391 1588 391 
Q 1994 391 2212 530 
Q 2431 669 2431 922 
Q 2431 1156 2273 1281 
Q 2116 1406 1581 1522 
L 1381 1569 
Q 847 1681 609 1914 
Q 372 2147 372 2553 
Q 372 3047 722 3315 
Q 1072 3584 1716 3584 
Q 2034 3584 2315 3537 
Q 2597 3491 2834 3397 
z
" id="DejaVuSans-73" transform="scale(0.015625)"/>
      </defs>
      <use xlink:href="#DejaVuSans-47"/>
      <use x="77.490234" xlink:href="#DejaVuSans-6c"/>
      <use x="105.273438" xlink:href="#DejaVuSans-6f"/>
      <use x="166.455078" xlink:href="#DejaVuSans-62"/>
      <use x="229.931641" xlink:href="#DejaVuSans-61"/>
      <use x="291.210938" xlink:href="#DejaVuSans-6c"/>
      <use x="318.994141" xlink:href="#DejaVuSans-20"/>
      <use x="350.78125" xlink:href="#DejaVuSans-43"/>
      <use x="420.605469" xlink:href="#DejaVuSans-6f"/>
      <use x="481.787109" xlink:href="#DejaVuSans-6d"/>
      <use x="579.199219" xlink:href="#DejaVuSans-6d"/>
      <use x="676.611328" xlink:href="#DejaVuSans-75"/>
      <use x="739.990234" xlink:href="#DejaVuSans-6e"/>
      <use x="803.369141" xlink:href="#DejaVuSans-69"/>
      <use x="831.152344" xlink:href="#DejaVuSans-63"/>
      <use x="886.132812" xlink:href="#DejaVuSans-61"/>
      <use x="947.412109" xlink:href="#DejaVuSans-74"/>
      <use x="986.621094" xlink:href="#DejaVuSans-69"/>
      <use x="1014.404297" xlink:href="#DejaVuSans-6f"/>
      <use x="1075.585938" xlink:href="#DejaVuSans-6e"/>
      <use x="1138.964844" xlink:href="#DejaVuSans-20"/>
      <use x="1170.751953" xlink:href="#DejaVuSans-52"/>
      <use x="1235.734375" xlink:href="#DejaVuSans-6f"/>
      <use x="1296.916016" xlink:href="#DejaVuSans-75"/>
      <use x="1360.294922" xlink:href="#DejaVuSans-6e"/>
      <use x="1423.673828" xlink:href="#DejaVuSans-64"/>
      <use x="1487.150391" xlink:href="#DejaVuSans-73"/>
     </g>
    </g>
   </g>
   <g id="matplotlib.axis_2">
    <g id="ytick_1">
     <g id="line2d_7">
      <defs>
       <path d="M 0 0 
L -3.5 0 
" id="mbcb37c7421" style="stroke:#000000;stroke-width:0.8;"/>
      </defs>
      <g>
       <use style="stroke:#000000;stroke-width:0.8;" x="50.87" xlink:href="#mbcb37c7421" y="276.30854"/>
      </g>
     </g>
     <g id="text_8">
      <!-- 20 -->
      <g transform="translate(31.145 280.107759)scale(0.1 -0.1)">
       <use xlink:href="#DejaVuSans-32"/>
       <use x="63.623047" xlink:href="#DejaVuSans-30"/>
      </g>
     </g>
    </g>
    <g id="ytick_2">
     <g id="line2d_8">
      <g>
       <use style="stroke:#000000;stroke-width:0.8;" x="50.87" xlink:href="#mbcb37c7421" y="247.902867"/>
      </g>
     </g>
     <g id="text_9">
      <!-- 30 -->
      <g transform="translate(31.145 251.702086)scale(0.1 -0.1)">
       <use xlink:href="#DejaVuSans-33"/>
       <use x="63.623047" xlink:href="#DejaVuSans-30"/>
      </g>
     </g>
    </g>
    <g id="ytick_3">
     <g id="line2d_9">
      <g>
       <use style="stroke:#000000;stroke-width:0.8;" x="50.87" xlink:href="#mbcb37c7421" y="219.497194"/>
      </g>
     </g>
     <g id="text_10">
      <!-- 40 -->
      <g transform="translate(31.145 223.296413)scale(0.1 -0.1)">
       <use xlink:href="#DejaVuSans-34"/>
       <use x="63.623047" xlink:href="#DejaVuSans-30"/>
      </g>
     </g>
    </g>
    <g id="ytick_4">
     <g id="line2d_10">
      <g>
       <use style="stroke:#000000;stroke-width:0.8;" x="50.87" xlink:href="#mbcb37c7421" y="191.091521"/>
      </g>
     </g>
     <g id="text_11">
      <!-- 50 -->
      <g transform="translate(31.145 194.89074)scale(0.1 -0.1)">
       <use xlink:href="#DejaVuSans-35"/>
       <use x="63.623047" xlink:href="#DejaVuSans-30"/>
      </g>
     </g>
    </g>
    <g id="ytick_5">
     <g id="line2d_11">
      <g>
       <use style="stroke:#000000;stroke-width:0.8;" x="50.87" xlink:href="#mbcb37c7421" y="162.685848"/>
      </g>
     </g>
     <g id="text_12">
      <!-- 60 -->
      <g transform="translate(31.145 166.485067)scale(0.1 -0.1)">
       <defs>
        <path d="M 2113 2584 
Q 1688 2584 1439 2293 
Q 1191 2003 1191 1497 
Q 1191 994 1439 701 
Q 1688 409 2113 409 
Q 2538 409 2786 701 
Q 3034 994 3034 1497 
Q 3034 2003 2786 2293 
Q 2538 2584 2113 2584 
z
M 3366 4563 
L 3366 3988 
Q 3128 4100 2886 4159 
Q 2644 4219 2406 4219 
Q 1781 4219 1451 3797 
Q 1122 3375 1075 2522 
Q 1259 2794 1537 2939 
Q 1816 3084 2150 3084 
Q 2853 3084 3261 2657 
Q 3669 2231 3669 1497 
Q 3669 778 3244 343 
Q 2819 -91 2113 -91 
Q 1303 -91 875 529 
Q 447 1150 447 2328 
Q 447 3434 972 4092 
Q 1497 4750 2381 4750 
Q 2619 4750 2861 4703 
Q 3103 4656 3366 4563 
z
" id="DejaVuSans-36" transform="scale(0.015625)"/>
       </defs>
       <use xlink:href="#DejaVuSans-36"/>
       <use x="63.623047" xlink:href="#DejaVuSans-30"/>
      </g>
     </g>
    </g>
    <g id="ytick_6">
     <g id="line2d_12">
      <g>
       <use style="stroke:#000000;stroke-width:0.8;" x="50.87" xlink:href="#mbcb37c7421" y="134.280175"/>
      </g>
     </g>
     <g id="text_13">
      <!-- 70 -->
      <g transform="translate(31.145 138.079394)scale(0.1 -0.1)">
       <defs>
        <path d="M 525 4666 
L 3525 4666 
L 3525 4397 
L 1831 0 
L 1172 0 
L 2766 4134 
L 525 4134 
L 525 4666 
z
" id="DejaVuSans-37" transform="scale(0.015625)"/>
       </defs>
       <use xlink:href="#DejaVuSans-37"/>
       <use x="63.623047" xlink:href="#DejaVuSans-30"/>
      </g>
     </g>
    </g>
    <g id="ytick_7">
     <g id="line2d_13">
      <g>
       <use style="stroke:#000000;stroke-width:0.8;" x="50.87" xlink:href="#mbcb37c7421" y="105.874502"/>
      </g>
     </g>
     <g id="text_14">
      <!-- 80 -->
      <g transform="translate(31.145 109.673721)scale(0.1 -0.1)">
       <defs>
        <path d="M 2034 2216 
Q 1584 2216 1326 1975 
Q 1069 1734 1069 1313 
Q 1069 891 1326 650 
Q 1584 409 2034 409 
Q 2484 409 2743 651 
Q 3003 894 3003 1313 
Q 3003 1734 2745 1975 
Q 2488 2216 2034 2216 
z
M 1403 2484 
Q 997 2584 770 2862 
Q 544 3141 544 3541 
Q 544 4100 942 4425 
Q 1341 4750 2034 4750 
Q 2731 4750 3128 4425 
Q 3525 4100 3525 3541 
Q 3525 3141 3298 2862 
Q 3072 2584 2669 2484 
Q 3125 2378 3379 2068 
Q 3634 1759 3634 1313 
Q 3634 634 3220 271 
Q 2806 -91 2034 -91 
Q 1263 -91 848 271 
Q 434 634 434 1313 
Q 434 1759 690 2068 
Q 947 2378 1403 2484 
z
M 1172 3481 
Q 1172 3119 1398 2916 
Q 1625 2713 2034 2713 
Q 2441 2713 2670 2916 
Q 2900 3119 2900 3481 
Q 2900 3844 2670 4047 
Q 2441 4250 2034 4250 
Q 1625 4250 1398 4047 
Q 1172 3844 1172 3481 
z
" id="DejaVuSans-38" transform="scale(0.015625)"/>
       </defs>
       <use xlink:href="#DejaVuSans-38"/>
       <use x="63.623047" xlink:href="#DejaVuSans-30"/>
      </g>
     </g>
    </g>
    <g id="ytick_8">
     <g id="line2d_14">
      <g>
       <use style="stroke:#000000;stroke-width:0.8;" x="50.87" xlink:href="#mbcb37c7421" y="77.468829"/>
      </g>
     </g>
     <g id="text_15">
      <!-- 90 -->
      <g transform="translate(31.145 81.268048)scale(0.1 -0.1)">
       <defs>
        <path d="M 703 97 
L 703 672 
Q 941 559 1184 500 
Q 1428 441 1663 441 
Q 2288 441 2617 861 
Q 2947 1281 2994 2138 
Q 2813 1869 2534 1725 
Q 2256 1581 1919 1581 
Q 1219 1581 811 2004 
Q 403 2428 403 3163 
Q 403 3881 828 4315 
Q 1253 4750 1959 4750 
Q 2769 4750 3195 4129 
Q 3622 3509 3622 2328 
Q 3622 1225 3098 567 
Q 2575 -91 1691 -91 
Q 1453 -91 1209 -44 
Q 966 3 703 97 
z
M 1959 2075 
Q 2384 2075 2632 2365 
Q 2881 2656 2881 3163 
Q 2881 3666 2632 3958 
Q 2384 4250 1959 4250 
Q 1534 4250 1286 3958 
Q 1038 3666 1038 3163 
Q 1038 2656 1286 2365 
Q 1534 2075 1959 2075 
z
" id="DejaVuSans-39" transform="scale(0.015625)"/>
       </defs>
       <use xlink:href="#DejaVuSans-39"/>
       <use x="63.623047" xlink:href="#DejaVuSans-30"/>
      </g>
     </g>
    </g>
    <g id="ytick_9">
     <g id="line2d_15">
      <g>
       <use style="stroke:#000000;stroke-width:0.8;" x="50.87" xlink:href="#mbcb37c7421" y="49.063156"/>
      </g>
     </g>
     <g id="text_16">
      <!-- 100 -->
      <g transform="translate(24.7825 52.862375)scale(0.1 -0.1)">
       <use xlink:href="#DejaVuSans-31"/>
       <use x="63.623047" xlink:href="#DejaVuSans-30"/>
       <use x="127.246094" xlink:href="#DejaVuSans-30"/>
      </g>
     </g>
    </g>
    <g id="text_17">
     <!-- Test Accuracy -->
     <g transform="translate(18.702813 210.2725)rotate(-90)scale(0.1 -0.1)">
      <defs>
       <path d="M -19 4666 
L 3928 4666 
L 3928 4134 
L 2272 4134 
L 2272 0 
L 1638 0 
L 1638 4134 
L -19 4134 
L -19 4666 
z
" id="DejaVuSans-54" transform="scale(0.015625)"/>
       <path d="M 3597 1894 
L 3597 1613 
L 953 1613 
Q 991 1019 1311 708 
Q 1631 397 2203 397 
Q 2534 397 2845 478 
Q 3156 559 3463 722 
L 3463 178 
Q 3153 47 2828 -22 
Q 2503 -91 2169 -91 
Q 1331 -91 842 396 
Q 353 884 353 1716 
Q 353 2575 817 3079 
Q 1281 3584 2069 3584 
Q 2775 3584 3186 3129 
Q 3597 2675 3597 1894 
z
M 3022 2063 
Q 3016 2534 2758 2815 
Q 2500 3097 2075 3097 
Q 1594 3097 1305 2825 
Q 1016 2553 972 2059 
L 3022 2063 
z
" id="DejaVuSans-65" transform="scale(0.015625)"/>
       <path d="M 2188 4044 
L 1331 1722 
L 3047 1722 
L 2188 4044 
z
M 1831 4666 
L 2547 4666 
L 4325 0 
L 3669 0 
L 3244 1197 
L 1141 1197 
L 716 0 
L 50 0 
L 1831 4666 
z
" id="DejaVuSans-41" transform="scale(0.015625)"/>
       <path d="M 2631 2963 
Q 2534 3019 2420 3045 
Q 2306 3072 2169 3072 
Q 1681 3072 1420 2755 
Q 1159 2438 1159 1844 
L 1159 0 
L 581 0 
L 581 3500 
L 1159 3500 
L 1159 2956 
Q 1341 3275 1631 3429 
Q 1922 3584 2338 3584 
Q 2397 3584 2469 3576 
Q 2541 3569 2628 3553 
L 2631 2963 
z
" id="DejaVuSans-72" transform="scale(0.015625)"/>
       <path d="M 2059 -325 
Q 1816 -950 1584 -1140 
Q 1353 -1331 966 -1331 
L 506 -1331 
L 506 -850 
L 844 -850 
Q 1081 -850 1212 -737 
Q 1344 -625 1503 -206 
L 1606 56 
L 191 3500 
L 800 3500 
L 1894 763 
L 2988 3500 
L 3597 3500 
L 2059 -325 
z
" id="DejaVuSans-79" transform="scale(0.015625)"/>
      </defs>
      <use xlink:href="#DejaVuSans-54"/>
      <use x="44.083984" xlink:href="#DejaVuSans-65"/>
      <use x="105.607422" xlink:href="#DejaVuSans-73"/>
      <use x="157.707031" xlink:href="#DejaVuSans-74"/>
      <use x="196.916016" xlink:href="#DejaVuSans-20"/>
      <use x="228.703125" xlink:href="#DejaVuSans-41"/>
      <use x="295.361328" xlink:href="#DejaVuSans-63"/>
      <use x="350.341797" xlink:href="#DejaVuSans-63"/>
      <use x="405.322266" xlink:href="#DejaVuSans-75"/>
      <use x="468.701172" xlink:href="#DejaVuSans-72"/>
      <use x="509.814453" xlink:href="#DejaVuSans-61"/>
      <use x="571.09375" xlink:href="#DejaVuSans-63"/>
      <use x="626.074219" xlink:href="#DejaVuSans-79"/>
     </g>
    </g>
   </g>
   <g id="line2d_16">
    <path clip-path="url(#pb20e97a070)" d="M 69.012273 239.632861 
L 76.417282 230.499898 
L 83.822291 190.084737 
L 91.227301 155.278799 
L 98.63231 141.255745 
L 106.037319 110.764592 
L 113.442328 122.630253 
L 120.847338 108.751026 
L 128.252347 101.056324 
L 135.657356 89.478316 
L 143.062365 99.474236 
L 150.467375 84.012921 
L 157.872384 86.745618 
L 165.277393 83.365703 
L 172.682403 80.0577 
L 180.087412 81.999354 
L 187.492421 81.783615 
L 194.89743 77.109263 
L 202.30244 76.821611 
L 209.707449 81.424049 
L 217.112458 81.352136 
L 224.517468 88.903011 
L 231.922477 76.318219 
L 239.327486 77.03735 
L 246.732495 75.383349 
L 254.137505 77.756481 
L 261.542514 78.547525 
L 268.947523 76.821611 
L 276.352532 72.003434 
L 283.757542 74.592305 
L 291.162551 74.736131 
L 298.56756 70.493259 
L 305.97257 70.852824 
L 313.377579 70.852824 
L 320.782588 66.10656 
L 328.187597 69.12691 
L 335.592607 72.003434 
L 342.997616 66.969517 
L 350.402625 69.917954 
L 357.807635 70.565172 
L 365.212644 68.263953 
L 372.617653 69.414562 
L 380.022662 71.571955 
L 387.427672 65.387429 
L 394.832681 67.257169 
L 402.23769 65.099776 
L 409.642699 68.911171 
L 417.047709 66.034647 
L 424.452718 66.609951 
L 431.857727 70.852824 
" style="fill:none;stroke:#1f77b4;stroke-linecap:square;stroke-width:1.5;"/>
   </g>
   <g id="line2d_17">
    <path clip-path="url(#pb20e97a070)" d="M 69.012273 249.772607 
L 76.417282 253.584001 
L 83.822291 276.883845 
L 91.227301 197.851352 
L 98.63231 257.03583 
L 106.037319 208.206838 
L 113.442328 206.696663 
L 120.847338 198.930048 
L 128.252347 220.360151 
L 135.657356 191.451086 
L 143.062365 199.505353 
L 150.467375 164.267936 
L 157.872384 206.912402 
L 165.277393 164.483675 
L 172.682403 174.551509 
L 180.087412 157.148539 
L 187.492421 159.521672 
L 194.89743 167.216373 
L 202.30244 153.409058 
L 209.707449 188.502649 
L 217.112458 185.769952 
L 224.517468 161.10376 
L 231.922477 156.573235 
L 239.327486 140.177049 
L 246.732495 139.673657 
L 254.137505 152.546101 
L 261.542514 153.480972 
L 268.947523 161.175673 
L 276.352532 137.947743 
L 283.757542 152.402275 
L 291.162551 133.201478 
L 298.56756 136.509481 
L 305.97257 137.803917 
L 313.377579 134.927393 
L 320.782588 135.79035 
L 328.187597 138.738787 
L 335.592607 147.584098 
L 342.997616 136.437568 
L 350.402625 148.303229 
L 357.807635 134.280175 
L 365.212644 133.848696 
L 372.617653 151.467405 
L 380.022662 163.333066 
L 387.427672 137.732004 
L 394.832681 136.797133 
L 402.23769 127.448431 
L 409.642699 132.985739 
L 417.047709 152.97758 
L 424.452718 151.395492 
L 431.857727 145.139052 
" style="fill:none;stroke:#ff7f0e;stroke-linecap:square;stroke-width:1.5;"/>
   </g>
   <g id="line2d_18">
    <path clip-path="url(#pb20e97a070)" d="M 69.012273 248.478172 
L 76.417282 214.103712 
L 83.822291 183.252993 
L 91.227301 170.668202 
L 98.63231 143.844617 
L 106.037319 129.102432 
L 113.442328 106.953198 
L 120.847338 103.28563 
L 128.252347 102.278847 
L 135.657356 101.343977 
L 143.062365 95.519016 
L 150.467375 91.348057 
L 157.872384 101.200151 
L 165.277393 96.381973 
L 172.682403 93.505449 
L 180.087412 92.067187 
L 187.492421 95.447103 
L 194.89743 87.896228 
L 202.30244 89.837881 
L 209.707449 87.896228 
L 217.112458 93.577362 
L 224.517468 88.39962 
L 231.922477 90.557012 
L 239.327486 85.16353 
L 246.732495 86.170314 
L 254.137505 86.601792 
L 261.542514 92.786318 
L 268.947523 86.601792 
L 276.352532 88.040054 
L 283.757542 86.0984 
L 291.162551 83.365703 
L 298.56756 85.523096 
L 305.97257 89.262577 
L 313.377579 83.149964 
L 320.782588 85.37927 
L 328.187597 89.622142 
L 335.592607 83.149964 
L 342.997616 83.006137 
L 350.402625 83.941008 
L 357.807635 85.019704 
L 365.212644 83.941008 
L 372.617653 82.934224 
L 380.022662 83.006137 
L 387.427672 83.725268 
L 394.832681 84.156747 
L 402.23769 82.574659 
L 409.642699 84.22866 
L 417.047709 83.941008 
L 424.452718 83.941008 
L 431.857727 83.006137 
" style="fill:none;stroke:#2ca02c;stroke-linecap:square;stroke-width:1.5;"/>
   </g>
   <g id="line2d_19">
    <path clip-path="url(#pb20e97a070)" d="M 69.012273 253.220409 
L 76.417282 243.505669 
L 83.822291 235.387327 
L 91.227301 225.689631 
L 98.63231 215.355647 
L 106.037319 203.538887 
L 113.442328 195.806863 
L 120.847338 188.68272 
L 128.252347 183.421989 
L 135.657356 179.899686 
L 143.062365 176.854598 
L 150.467375 175.059359 
L 157.872384 172.616471 
L 165.277393 170.088366 
L 172.682403 167.736377 
L 180.087412 165.185547 
L 187.492421 162.191589 
L 194.89743 159.527137 
L 202.30244 157.413755 
L 209.707449 155.323097 
L 217.112458 152.749543 
L 224.517468 150.249844 
L 231.922477 148.988632 
L 239.327486 147.966028 
L 246.732495 145.97195 
L 254.137505 144.858448 
L 261.542514 143.324541 
L 268.947523 141.489535 
L 276.352532 140.762349 
L 283.757542 139.643166 
L 291.162551 139.029603 
L 298.56756 138.114941 
L 305.97257 137.075293 
L 313.377579 135.717502 
L 320.782588 135.251649 
L 328.187597 135.030085 
L 335.592607 134.331305 
L 342.997616 134.371073 
L 350.402625 134.001799 
L 357.807635 132.558791 
L 365.212644 131.780476 
L 372.617653 131.468013 
L 380.022662 131.564593 
L 387.427672 130.576075 
L 394.832681 129.860252 
L 402.23769 129.54779 
L 409.642699 129.411443 
L 417.047709 128.587678 
L 424.452718 128.326346 
L 431.857727 127.582117 
" style="fill:none;stroke:#d62728;stroke-linecap:square;stroke-width:1.5;"/>
   </g>
   <g id="patch_3">
    <path d="M 50.87 303.64 
L 50.87 48.38 
" style="fill:none;stroke:#000000;stroke-linecap:square;stroke-linejoin:miter;stroke-width:0.8;"/>
   </g>
   <g id="patch_4">
    <path d="M 450 303.64 
L 450 48.38 
" style="fill:none;stroke:#000000;stroke-linecap:square;stroke-linejoin:miter;stroke-width:0.8;"/>
   </g>
   <g id="patch_5">
    <path d="M 50.87 303.64 
L 450 303.64 
" style="fill:none;stroke:#000000;stroke-linecap:square;stroke-linejoin:miter;stroke-width:0.8;"/>
   </g>
   <g id="patch_6">
    <path d="M 50.87 48.38 
L 450 48.38 
" style="fill:none;stroke:#000000;stroke-linecap:square;stroke-linejoin:miter;stroke-width:0.8;"/>
   </g>
   <g id="text_18">
    <!-- Local Rounds 10 -->
    <g transform="translate(201.324062 20.88)scale(0.12 -0.12)">
     <defs>
      <path d="M 628 4666 
L 1259 4666 
L 1259 531 
L 3531 531 
L 3531 0 
L 628 0 
L 628 4666 
z
" id="DejaVuSans-4c" transform="scale(0.015625)"/>
     </defs>
     <use xlink:href="#DejaVuSans-4c"/>
     <use x="53.962891" xlink:href="#DejaVuSans-6f"/>
     <use x="115.144531" xlink:href="#DejaVuSans-63"/>
     <use x="170.125" xlink:href="#DejaVuSans-61"/>
     <use x="231.404297" xlink:href="#DejaVuSans-6c"/>
     <use x="259.1875" xlink:href="#DejaVuSans-20"/>
     <use x="290.974609" xlink:href="#DejaVuSans-52"/>
     <use x="355.957031" xlink:href="#DejaVuSans-6f"/>
     <use x="417.138672" xlink:href="#DejaVuSans-75"/>
     <use x="480.517578" xlink:href="#DejaVuSans-6e"/>
     <use x="543.896484" xlink:href="#DejaVuSans-64"/>
     <use x="607.373047" xlink:href="#DejaVuSans-73"/>
     <use x="659.472656" xlink:href="#DejaVuSans-20"/>
     <use x="691.259766" xlink:href="#DejaVuSans-31"/>
     <use x="754.882812" xlink:href="#DejaVuSans-30"/>
    </g>
   </g>
   <g id="legend_1">
    <g id="patch_7">
     <path d="M 84.036563 45.532125 
L 416.833438 45.532125 
Q 418.833438 45.532125 418.833438 43.532125 
L 418.833438 29.854 
Q 418.833438 27.854 416.833438 27.854 
L 84.036563 27.854 
Q 82.036563 27.854 82.036563 29.854 
L 82.036563 43.532125 
Q 82.036563 45.532125 84.036563 45.532125 
z
" style="fill:#ffffff;opacity:0.8;stroke:#cccccc;stroke-linejoin:miter;"/>
    </g>
    <g id="line2d_20">
     <path d="M 86.036563 35.952438 
L 106.036563 35.952438 
" style="fill:none;stroke:#1f77b4;stroke-linecap:square;stroke-width:1.5;"/>
    </g>
    <g id="line2d_21"/>
    <g id="text_19">
     <!-- FedAvg -->
     <g transform="translate(114.036563 39.452438)scale(0.1 -0.1)">
      <defs>
       <path d="M 628 4666 
L 3309 4666 
L 3309 4134 
L 1259 4134 
L 1259 2759 
L 3109 2759 
L 3109 2228 
L 1259 2228 
L 1259 0 
L 628 0 
L 628 4666 
z
" id="DejaVuSans-46" transform="scale(0.015625)"/>
       <path d="M 191 3500 
L 800 3500 
L 1894 563 
L 2988 3500 
L 3597 3500 
L 2284 0 
L 1503 0 
L 191 3500 
z
" id="DejaVuSans-76" transform="scale(0.015625)"/>
       <path d="M 2906 1791 
Q 2906 2416 2648 2759 
Q 2391 3103 1925 3103 
Q 1463 3103 1205 2759 
Q 947 2416 947 1791 
Q 947 1169 1205 825 
Q 1463 481 1925 481 
Q 2391 481 2648 825 
Q 2906 1169 2906 1791 
z
M 3481 434 
Q 3481 -459 3084 -895 
Q 2688 -1331 1869 -1331 
Q 1566 -1331 1297 -1286 
Q 1028 -1241 775 -1147 
L 775 -588 
Q 1028 -725 1275 -790 
Q 1522 -856 1778 -856 
Q 2344 -856 2625 -561 
Q 2906 -266 2906 331 
L 2906 616 
Q 2728 306 2450 153 
Q 2172 0 1784 0 
Q 1141 0 747 490 
Q 353 981 353 1791 
Q 353 2603 747 3093 
Q 1141 3584 1784 3584 
Q 2172 3584 2450 3431 
Q 2728 3278 2906 2969 
L 2906 3500 
L 3481 3500 
L 3481 434 
z
" id="DejaVuSans-67" transform="scale(0.015625)"/>
      </defs>
      <use xlink:href="#DejaVuSans-46"/>
      <use x="52.019531" xlink:href="#DejaVuSans-65"/>
      <use x="113.542969" xlink:href="#DejaVuSans-64"/>
      <use x="177.019531" xlink:href="#DejaVuSans-41"/>
      <use x="239.552734" xlink:href="#DejaVuSans-76"/>
      <use x="298.732422" xlink:href="#DejaVuSans-67"/>
     </g>
    </g>
    <g id="line2d_22">
     <path d="M 170.26 35.952438 
L 190.26 35.952438 
" style="fill:none;stroke:#ff7f0e;stroke-linecap:square;stroke-width:1.5;"/>
    </g>
    <g id="line2d_23"/>
    <g id="text_20">
     <!-- FedMed -->
     <g transform="translate(198.26 39.452438)scale(0.1 -0.1)">
      <defs>
       <path d="M 628 4666 
L 1569 4666 
L 2759 1491 
L 3956 4666 
L 4897 4666 
L 4897 0 
L 4281 0 
L 4281 4097 
L 3078 897 
L 2444 897 
L 1241 4097 
L 1241 0 
L 628 0 
L 628 4666 
z
" id="DejaVuSans-4d" transform="scale(0.015625)"/>
      </defs>
      <use xlink:href="#DejaVuSans-46"/>
      <use x="52.019531" xlink:href="#DejaVuSans-65"/>
      <use x="113.542969" xlink:href="#DejaVuSans-64"/>
      <use x="177.019531" xlink:href="#DejaVuSans-4d"/>
      <use x="263.298828" xlink:href="#DejaVuSans-65"/>
      <use x="324.822266" xlink:href="#DejaVuSans-64"/>
     </g>
    </g>
    <g id="line2d_24">
     <path d="M 257.092813 35.952438 
L 277.092813 35.952438 
" style="fill:none;stroke:#2ca02c;stroke-linecap:square;stroke-width:1.5;"/>
    </g>
    <g id="line2d_25"/>
    <g id="text_21">
     <!-- FedProx -->
     <g transform="translate(285.092813 39.452438)scale(0.1 -0.1)">
      <defs>
       <path d="M 1259 4147 
L 1259 2394 
L 2053 2394 
Q 2494 2394 2734 2622 
Q 2975 2850 2975 3272 
Q 2975 3691 2734 3919 
Q 2494 4147 2053 4147 
L 1259 4147 
z
M 628 4666 
L 2053 4666 
Q 2838 4666 3239 4311 
Q 3641 3956 3641 3272 
Q 3641 2581 3239 2228 
Q 2838 1875 2053 1875 
L 1259 1875 
L 1259 0 
L 628 0 
L 628 4666 
z
" id="DejaVuSans-50" transform="scale(0.015625)"/>
       <path d="M 3513 3500 
L 2247 1797 
L 3578 0 
L 2900 0 
L 1881 1375 
L 863 0 
L 184 0 
L 1544 1831 
L 300 3500 
L 978 3500 
L 1906 2253 
L 2834 3500 
L 3513 3500 
z
" id="DejaVuSans-78" transform="scale(0.015625)"/>
      </defs>
      <use xlink:href="#DejaVuSans-46"/>
      <use x="52.019531" xlink:href="#DejaVuSans-65"/>
      <use x="113.542969" xlink:href="#DejaVuSans-64"/>
      <use x="177.019531" xlink:href="#DejaVuSans-50"/>
      <use x="235.572266" xlink:href="#DejaVuSans-72"/>
      <use x="274.435547" xlink:href="#DejaVuSans-6f"/>
      <use x="332.492188" xlink:href="#DejaVuSans-78"/>
     </g>
    </g>
    <g id="line2d_26">
     <path d="M 344.261563 35.952438 
L 364.261563 35.952438 
" style="fill:none;stroke:#d62728;stroke-linecap:square;stroke-width:1.5;"/>
    </g>
    <g id="line2d_27"/>
    <g id="text_22">
     <!-- qFedAvg -->
     <g transform="translate(372.261563 39.452438)scale(0.1 -0.1)">
      <defs>
       <path d="M 947 1747 
Q 947 1113 1208 752 
Q 1469 391 1925 391 
Q 2381 391 2643 752 
Q 2906 1113 2906 1747 
Q 2906 2381 2643 2742 
Q 2381 3103 1925 3103 
Q 1469 3103 1208 2742 
Q 947 2381 947 1747 
z
M 2906 525 
Q 2725 213 2448 61 
Q 2172 -91 1784 -91 
Q 1150 -91 751 415 
Q 353 922 353 1747 
Q 353 2572 751 3078 
Q 1150 3584 1784 3584 
Q 2172 3584 2448 3432 
Q 2725 3281 2906 2969 
L 2906 3500 
L 3481 3500 
L 3481 -1331 
L 2906 -1331 
L 2906 525 
z
" id="DejaVuSans-71" transform="scale(0.015625)"/>
      </defs>
      <use xlink:href="#DejaVuSans-71"/>
      <use x="63.476562" xlink:href="#DejaVuSans-46"/>
      <use x="115.496094" xlink:href="#DejaVuSans-65"/>
      <use x="177.019531" xlink:href="#DejaVuSans-64"/>
      <use x="240.496094" xlink:href="#DejaVuSans-41"/>
      <use x="303.029297" xlink:href="#DejaVuSans-76"/>
      <use x="362.208984" xlink:href="#DejaVuSans-67"/>
     </g>
    </g>
   </g>
  </g>
 </g>
 <defs>
  <clipPath id="pb20e97a070">
   <rect height="255.26" width="399.13" x="50.87" y="48.38"/>
  </clipPath>
 </defs>
</svg>
