<?xml version="1.0" encoding="utf-8" standalone="no"?>
<!DOCTYPE svg PUBLIC "-//W3C//DTD SVG 1.1//EN"
  "http://www.w3.org/Graphics/SVG/1.1/DTD/svg11.dtd">
<svg height="432pt" version="1.1" viewBox="0 0 576 432" width="576pt" xmlns="http://www.w3.org/2000/svg" xmlns:xlink="http://www.w3.org/1999/xlink">
 <metadata>
  <rdf:RDF xmlns:cc="http://creativecommons.org/ns#" xmlns:dc="http://purl.org/dc/elements/1.1/" xmlns:rdf="http://www.w3.org/1999/02/22-rdf-syntax-ns#">
   <cc:Work>
    <dc:type rdf:resource="http://purl.org/dc/dcmitype/StillImage"/>
    <dc:date>2021-05-07T22:04:23.711279</dc:date>
    <dc:format>image/svg+xml</dc:format>
    <dc:creator>
     <cc:Agent>
      <dc:title>Matplotlib v3.4.1, https://matplotlib.org/</dc:title>
     </cc:Agent>
    </dc:creator>
   </cc:Work>
  </rdf:RDF>
 </metadata>
 <defs>
  <style type="text/css">*{stroke-linecap:butt;stroke-linejoin:round;}</style>
 </defs>
 <g id="figure_1">
  <g id="patch_1">
   <path d="M 0 432 
L 576 432 
L 576 0 
L 0 0 
z
" style="fill:#ffffff;"/>
  </g>
  <g id="axes_1">
   <g id="patch_2">
    <path d="M 70.22 376 
L 551.78 376 
L 551.78 56.601989 
L 70.22 56.601989 
z
" style="fill:#ffffff;"/>
   </g>
   <g id="PolyCollection_1">
    <path clip-path="url(#pbfc53b3661)" d="M 92.109091 302.191006 
L 92.109091 333.401132 
L 101.043414 319.255749 
L 109.977737 251.600081 
L 118.912059 216.025306 
L 127.846382 171.029536 
L 136.780705 139.274744 
L 145.715028 141.717549 
L 154.649351 160.749632 
L 163.583673 143.324825 
L 172.517996 133.597617 
L 181.452319 128.059895 
L 190.386642 106.208392 
L 199.320965 108.633981 
L 208.255288 106.690633 
L 217.18961 100.201381 
L 226.123933 120.248805 
L 235.058256 96.873461 
L 243.992579 90.663276 
L 252.926902 106.15752 
L 261.861224 102.001964 
L 270.795547 102.344723 
L 279.72987 108.207049 
L 288.664193 88.906628 
L 297.598516 95.818909 
L 306.532839 82.300649 
L 315.467161 90.156101 
L 324.401484 84.163424 
L 333.335807 88.245388 
L 342.27013 88.384782 
L 351.204453 100.727398 
L 360.138776 82.118789 
L 369.073098 82.199279 
L 378.007421 84.594737 
L 386.941744 82.494385 
L 395.876067 81.402361 
L 404.81039 78.613292 
L 413.744712 82.594963 
L 422.679035 86.198949 
L 431.613358 81.420443 
L 440.547681 77.056371 
L 449.482004 79.620577 
L 458.416327 81.614826 
L 467.350649 78.395252 
L 476.284972 85.493565 
L 485.219295 77.350096 
L 494.153618 77.141163 
L 503.087941 76.448497 
L 512.022263 82.21318 
L 520.956586 77.553716 
L 529.890909 77.990106 
L 529.890909 73.084855 
L 529.890909 73.084855 
L 520.956586 73.844687 
L 512.022263 74.198586 
L 503.087941 74.303021 
L 494.153618 73.772076 
L 485.219295 73.239701 
L 476.284972 72.05025 
L 467.350649 73.164873 
L 458.416327 74.958661 
L 449.482004 75.173975 
L 440.547681 74.827196 
L 431.613358 73.212388 
L 422.679035 73.285522 
L 413.744712 75.919181 
L 404.81039 76.504703 
L 395.876067 76.78834 
L 386.941744 77.960415 
L 378.007421 76.992113 
L 369.073098 77.770357 
L 360.138776 78.982896 
L 351.204453 72.826832 
L 342.27013 74.010674 
L 333.335807 75.443838 
L 324.401484 76.938261 
L 315.467161 80.648866 
L 306.532839 78.962758 
L 297.598516 80.161141 
L 288.664193 80.92801 
L 279.72987 72.948084 
L 270.795547 76.061147 
L 261.861224 77.859398 
L 252.926902 79.687533 
L 243.992579 82.567511 
L 235.058256 79.430031 
L 226.123933 77.88707 
L 217.18961 90.818755 
L 208.255288 82.065404 
L 199.320965 88.046402 
L 190.386642 90.31027 
L 181.452319 90.129428 
L 172.517996 85.400312 
L 163.583673 96.696881 
L 154.649351 100.619293 
L 145.715028 117.548998 
L 136.780705 122.094181 
L 127.846382 122.036774 
L 118.912059 183.130212 
L 109.977737 214.022914 
L 101.043414 238.063254 
L 92.109091 302.191006 
z
" style="fill:#1f77b4;fill-opacity:0.5;"/>
   </g>
   <g id="PolyCollection_2">
    <path clip-path="url(#pbfc53b3661)" d="M 92.109091 339.122213 
L 92.109091 361.481909 
L 101.043414 360.547377 
L 109.977737 315.810313 
L 118.912059 324.769895 
L 127.846382 329.587273 
L 136.780705 241.958994 
L 145.715028 259.943959 
L 154.649351 298.695176 
L 163.583673 280.334323 
L 172.517996 246.682233 
L 181.452319 242.44724 
L 190.386642 205.974918 
L 199.320965 175.834957 
L 208.255288 201.903326 
L 217.18961 237.619519 
L 226.123933 241.163306 
L 235.058256 220.66391 
L 243.992579 169.255005 
L 252.926902 181.953306 
L 261.861224 187.866373 
L 270.795547 181.18359 
L 279.72987 182.45811 
L 288.664193 175.99124 
L 297.598516 163.198849 
L 306.532839 184.590896 
L 315.467161 191.936921 
L 324.401484 205.214035 
L 333.335807 133.846457 
L 342.27013 167.963887 
L 351.204453 207.49993 
L 360.138776 246.357997 
L 369.073098 212.350589 
L 378.007421 198.891868 
L 386.941744 166.968238 
L 395.876067 165.26988 
L 404.81039 178.662278 
L 413.744712 193.958628 
L 422.679035 159.742683 
L 431.613358 136.084348 
L 440.547681 155.177701 
L 449.482004 162.304078 
L 458.416327 121.161876 
L 467.350649 142.975138 
L 476.284972 151.664824 
L 485.219295 163.982541 
L 494.153618 141.190982 
L 503.087941 134.530424 
L 512.022263 147.581403 
L 520.956586 136.260313 
L 529.890909 168.923206 
L 529.890909 100.855228 
L 529.890909 100.855228 
L 520.956586 93.734669 
L 512.022263 112.008587 
L 503.087941 119.399319 
L 494.153618 122.927206 
L 485.219295 118.086716 
L 476.284972 102.911804 
L 467.350649 98.50206 
L 458.416327 99.776711 
L 449.482004 109.415013 
L 440.547681 97.134828 
L 431.613358 114.772689 
L 422.679035 115.210835 
L 413.744712 101.048338 
L 404.81039 103.083537 
L 395.876067 131.677742 
L 386.941744 129.494221 
L 378.007421 108.2442 
L 369.073098 104.650481 
L 360.138776 73.554057 
L 351.204453 90.256299 
L 342.27013 106.342746 
L 333.335807 95.825082 
L 324.401484 88.499161 
L 315.467161 142.530055 
L 306.532839 103.947216 
L 297.598516 112.563276 
L 288.664193 119.015726 
L 279.72987 138.585994 
L 270.795547 118.189853 
L 261.861224 117.652481 
L 252.926902 120.169399 
L 243.992579 111.682203 
L 235.058256 107.495933 
L 226.123933 133.572288 
L 217.18961 142.776322 
L 208.255288 154.719476 
L 199.320965 146.179476 
L 190.386642 150.324441 
L 181.452319 156.546556 
L 172.517996 113.498439 
L 163.583673 145.66694 
L 154.649351 189.083644 
L 145.715028 203.900101 
L 136.780705 193.422107 
L 127.846382 284.819367 
L 118.912059 243.54616 
L 109.977737 242.640738 
L 101.043414 304.154605 
L 92.109091 339.122213 
z
" style="fill:#ff7f0e;fill-opacity:0.5;"/>
   </g>
   <g id="PolyCollection_3">
    <path clip-path="url(#pbfc53b3661)" d="M 92.109091 278.925434 
L 92.109091 330.144402 
L 101.043414 274.02347 
L 109.977737 217.140099 
L 118.912059 181.167778 
L 127.846382 158.284294 
L 136.780705 137.186071 
L 145.715028 141.948053 
L 154.649351 133.468726 
L 163.583673 120.635098 
L 172.517996 99.582092 
L 181.452319 95.060981 
L 190.386642 102.427497 
L 199.320965 103.523357 
L 208.255288 102.077586 
L 217.18961 99.851516 
L 226.123933 90.976401 
L 235.058256 91.805787 
L 243.992579 87.643739 
L 252.926902 91.212994 
L 261.861224 90.321068 
L 270.795547 84.120423 
L 279.72987 83.752219 
L 288.664193 85.415278 
L 297.598516 84.370782 
L 306.532839 85.186176 
L 315.467161 81.209992 
L 324.401484 82.254976 
L 333.335807 82.491499 
L 342.27013 81.797434 
L 351.204453 79.832696 
L 360.138776 81.323985 
L 369.073098 78.171585 
L 378.007421 80.532401 
L 386.941744 81.585225 
L 395.876067 80.459117 
L 404.81039 84.680859 
L 413.744712 83.71102 
L 422.679035 80.113976 
L 431.613358 78.554172 
L 440.547681 77.798207 
L 449.482004 78.359502 
L 458.416327 78.185561 
L 467.350649 79.344051 
L 476.284972 79.456423 
L 485.219295 78.745766 
L 494.153618 80.617521 
L 503.087941 77.894954 
L 512.022263 80.390805 
L 520.956586 77.205618 
L 529.890909 77.346235 
L 529.890909 72.273234 
L 529.890909 72.273234 
L 520.956586 71.12008 
L 512.022263 72.624812 
L 503.087941 73.180007 
L 494.153618 74.177031 
L 485.219295 74.269852 
L 476.284972 74.20608 
L 467.350649 73.995009 
L 458.416327 74.344892 
L 449.482004 74.332673 
L 440.547681 73.923639 
L 431.613358 75.108331 
L 422.679035 75.327461 
L 413.744712 74.803124 
L 404.81039 73.995005 
L 395.876067 73.850271 
L 386.941744 74.988262 
L 378.007421 75.232479 
L 369.073098 76.299525 
L 360.138776 76.381552 
L 351.204453 76.417349 
L 342.27013 77.687038 
L 333.335807 78.933629 
L 324.401484 75.774004 
L 315.467161 77.465872 
L 306.532839 77.694444 
L 297.598516 79.318445 
L 288.664193 78.759113 
L 279.72987 80.422172 
L 270.795547 79.08364 
L 261.861224 79.998734 
L 252.926902 82.664678 
L 243.992579 82.514342 
L 235.058256 82.395327 
L 226.123933 85.003648 
L 217.18961 85.508372 
L 208.255288 87.001894 
L 199.320965 84.10063 
L 190.386642 92.635673 
L 181.452319 88.681694 
L 172.517996 90.305994 
L 163.583673 93.511191 
L 154.649351 101.86306 
L 145.715028 105.351114 
L 136.780705 130.166544 
L 127.846382 132.194474 
L 118.912059 155.239855 
L 109.977737 183.956075 
L 101.043414 235.26429 
L 92.109091 278.925434 
z
" style="fill:#2ca02c;fill-opacity:0.5;"/>
   </g>
   <g id="PolyCollection_4">
    <path clip-path="url(#pbfc53b3661)" d="M 92.109091 255.383675 
L 92.109091 332.720119 
L 101.043414 295.745518 
L 109.977737 262.303107 
L 118.912059 241.716128 
L 127.846382 223.823584 
L 136.780705 191.231432 
L 145.715028 179.349194 
L 154.649351 167.82405 
L 163.583673 156.867957 
L 172.517996 152.491217 
L 181.452319 147.600539 
L 190.386642 144.483333 
L 199.320965 140.758518 
L 208.255288 139.066912 
L 217.18961 138.430788 
L 226.123933 136.692599 
L 235.058256 136.560334 
L 243.992579 136.709209 
L 252.926902 134.061296 
L 261.861224 133.696011 
L 270.795547 133.431491 
L 279.72987 132.641631 
L 288.664193 132.598477 
L 297.598516 132.664729 
L 306.532839 130.507682 
L 315.467161 131.43167 
L 324.401484 130.702062 
L 333.335807 130.480713 
L 342.27013 129.603393 
L 351.204453 129.757337 
L 360.138776 129.849406 
L 369.073098 128.995094 
L 378.007421 129.639206 
L 386.941744 129.140112 
L 395.876067 129.359371 
L 404.81039 128.553708 
L 413.744712 128.431745 
L 422.679035 128.589308 
L 431.613358 128.026521 
L 440.547681 127.836978 
L 449.482004 128.052328 
L 458.416327 128.024067 
L 467.350649 127.588421 
L 476.284972 127.986514 
L 485.219295 127.175723 
L 494.153618 127.82457 
L 503.087941 127.492267 
L 512.022263 127.078087 
L 520.956586 127.301387 
L 529.890909 127.165693 
L 529.890909 107.324334 
L 529.890909 107.324334 
L 520.956586 107.776335 
L 512.022263 107.02866 
L 503.087941 107.176624 
L 494.153618 109.373966 
L 485.219295 107.978655 
L 476.284972 108.138839 
L 467.350649 107.770373 
L 458.416327 107.884094 
L 449.482004 108.532961 
L 440.547681 108.812191 
L 431.613358 109.018703 
L 422.679035 109.273579 
L 413.744712 109.303383 
L 404.81039 108.98978 
L 395.876067 109.116764 
L 386.941744 110.07703 
L 378.007421 110.625567 
L 369.073098 110.31148 
L 360.138776 110.364263 
L 351.204453 111.210115 
L 342.27013 111.287404 
L 333.335807 112.377586 
L 324.401484 112.296773 
L 315.467161 113.240818 
L 306.532839 112.836104 
L 297.598516 113.374791 
L 288.664193 113.79877 
L 279.72987 114.828799 
L 270.795547 115.316538 
L 261.861224 115.000913 
L 252.926902 117.701865 
L 243.992579 118.477916 
L 235.058256 120.60707 
L 226.123933 121.471331 
L 217.18961 123.208211 
L 208.255288 124.731229 
L 199.320965 128.162794 
L 190.386642 130.097741 
L 181.452319 130.53226 
L 172.517996 135.990131 
L 163.583673 142.562411 
L 154.649351 148.649485 
L 145.715028 154.7041 
L 136.780705 163.26344 
L 127.846382 177.891336 
L 118.912059 199.310504 
L 109.977737 225.521966 
L 101.043414 229.257676 
L 92.109091 255.383675 
z
" style="fill:#d62728;fill-opacity:0.5;"/>
   </g>
   <g id="matplotlib.axis_1">
    <g id="xtick_1">
     <g id="line2d_1">
      <defs>
       <path d="M 0 0 
L 0 3.5 
" id="m4c538cd33f" style="stroke:#000000;stroke-width:0.8;"/>
      </defs>
      <g>
       <use style="stroke:#000000;stroke-width:0.8;" x="92.109091" xlink:href="#m4c538cd33f" y="376"/>
      </g>
     </g>
     <g id="text_1">
      <!-- 0 -->
      <g transform="translate(87.337216 394.397656)scale(0.15 -0.15)">
       <defs>
        <path d="M 2034 4250 
Q 1547 4250 1301 3770 
Q 1056 3291 1056 2328 
Q 1056 1369 1301 889 
Q 1547 409 2034 409 
Q 2525 409 2770 889 
Q 3016 1369 3016 2328 
Q 3016 3291 2770 3770 
Q 2525 4250 2034 4250 
z
M 2034 4750 
Q 2819 4750 3233 4129 
Q 3647 3509 3647 2328 
Q 3647 1150 3233 529 
Q 2819 -91 2034 -91 
Q 1250 -91 836 529 
Q 422 1150 422 2328 
Q 422 3509 836 4129 
Q 1250 4750 2034 4750 
z
" id="DejaVuSans-30" transform="scale(0.015625)"/>
       </defs>
       <use xlink:href="#DejaVuSans-30"/>
      </g>
     </g>
    </g>
    <g id="xtick_2">
     <g id="line2d_2">
      <g>
       <use style="stroke:#000000;stroke-width:0.8;" x="181.452319" xlink:href="#m4c538cd33f" y="376"/>
      </g>
     </g>
     <g id="text_2">
      <!-- 10 -->
      <g transform="translate(171.908569 394.397656)scale(0.15 -0.15)">
       <defs>
        <path d="M 794 531 
L 1825 531 
L 1825 4091 
L 703 3866 
L 703 4441 
L 1819 4666 
L 2450 4666 
L 2450 531 
L 3481 531 
L 3481 0 
L 794 0 
L 794 531 
z
" id="DejaVuSans-31" transform="scale(0.015625)"/>
       </defs>
       <use xlink:href="#DejaVuSans-31"/>
       <use x="63.623047" xlink:href="#DejaVuSans-30"/>
      </g>
     </g>
    </g>
    <g id="xtick_3">
     <g id="line2d_3">
      <g>
       <use style="stroke:#000000;stroke-width:0.8;" x="270.795547" xlink:href="#m4c538cd33f" y="376"/>
      </g>
     </g>
     <g id="text_3">
      <!-- 20 -->
      <g transform="translate(261.251797 394.397656)scale(0.15 -0.15)">
       <defs>
        <path d="M 1228 531 
L 3431 531 
L 3431 0 
L 469 0 
L 469 531 
Q 828 903 1448 1529 
Q 2069 2156 2228 2338 
Q 2531 2678 2651 2914 
Q 2772 3150 2772 3378 
Q 2772 3750 2511 3984 
Q 2250 4219 1831 4219 
Q 1534 4219 1204 4116 
Q 875 4013 500 3803 
L 500 4441 
Q 881 4594 1212 4672 
Q 1544 4750 1819 4750 
Q 2544 4750 2975 4387 
Q 3406 4025 3406 3419 
Q 3406 3131 3298 2873 
Q 3191 2616 2906 2266 
Q 2828 2175 2409 1742 
Q 1991 1309 1228 531 
z
" id="DejaVuSans-32" transform="scale(0.015625)"/>
       </defs>
       <use xlink:href="#DejaVuSans-32"/>
       <use x="63.623047" xlink:href="#DejaVuSans-30"/>
      </g>
     </g>
    </g>
    <g id="xtick_4">
     <g id="line2d_4">
      <g>
       <use style="stroke:#000000;stroke-width:0.8;" x="360.138776" xlink:href="#m4c538cd33f" y="376"/>
      </g>
     </g>
     <g id="text_4">
      <!-- 30 -->
      <g transform="translate(350.595026 394.397656)scale(0.15 -0.15)">
       <defs>
        <path d="M 2597 2516 
Q 3050 2419 3304 2112 
Q 3559 1806 3559 1356 
Q 3559 666 3084 287 
Q 2609 -91 1734 -91 
Q 1441 -91 1130 -33 
Q 819 25 488 141 
L 488 750 
Q 750 597 1062 519 
Q 1375 441 1716 441 
Q 2309 441 2620 675 
Q 2931 909 2931 1356 
Q 2931 1769 2642 2001 
Q 2353 2234 1838 2234 
L 1294 2234 
L 1294 2753 
L 1863 2753 
Q 2328 2753 2575 2939 
Q 2822 3125 2822 3475 
Q 2822 3834 2567 4026 
Q 2313 4219 1838 4219 
Q 1578 4219 1281 4162 
Q 984 4106 628 3988 
L 628 4550 
Q 988 4650 1302 4700 
Q 1616 4750 1894 4750 
Q 2613 4750 3031 4423 
Q 3450 4097 3450 3541 
Q 3450 3153 3228 2886 
Q 3006 2619 2597 2516 
z
" id="DejaVuSans-33" transform="scale(0.015625)"/>
       </defs>
       <use xlink:href="#DejaVuSans-33"/>
       <use x="63.623047" xlink:href="#DejaVuSans-30"/>
      </g>
     </g>
    </g>
    <g id="xtick_5">
     <g id="line2d_5">
      <g>
       <use style="stroke:#000000;stroke-width:0.8;" x="449.482004" xlink:href="#m4c538cd33f" y="376"/>
      </g>
     </g>
     <g id="text_5">
      <!-- 40 -->
      <g transform="translate(439.938254 394.397656)scale(0.15 -0.15)">
       <defs>
        <path d="M 2419 4116 
L 825 1625 
L 2419 1625 
L 2419 4116 
z
M 2253 4666 
L 3047 4666 
L 3047 1625 
L 3713 1625 
L 3713 1100 
L 3047 1100 
L 3047 0 
L 2419 0 
L 2419 1100 
L 313 1100 
L 313 1709 
L 2253 4666 
z
" id="DejaVuSans-34" transform="scale(0.015625)"/>
       </defs>
       <use xlink:href="#DejaVuSans-34"/>
       <use x="63.623047" xlink:href="#DejaVuSans-30"/>
      </g>
     </g>
    </g>
    <g id="xtick_6">
     <g id="line2d_6">
      <g>
       <use style="stroke:#000000;stroke-width:0.8;" x="538.825232" xlink:href="#m4c538cd33f" y="376"/>
      </g>
     </g>
     <g id="text_6">
      <!-- 50 -->
      <g transform="translate(529.281482 394.397656)scale(0.15 -0.15)">
       <defs>
        <path d="M 691 4666 
L 3169 4666 
L 3169 4134 
L 1269 4134 
L 1269 2991 
Q 1406 3038 1543 3061 
Q 1681 3084 1819 3084 
Q 2600 3084 3056 2656 
Q 3513 2228 3513 1497 
Q 3513 744 3044 326 
Q 2575 -91 1722 -91 
Q 1428 -91 1123 -41 
Q 819 9 494 109 
L 494 744 
Q 775 591 1075 516 
Q 1375 441 1709 441 
Q 2250 441 2565 725 
Q 2881 1009 2881 1497 
Q 2881 1984 2565 2268 
Q 2250 2553 1709 2553 
Q 1456 2553 1204 2497 
Q 953 2441 691 2322 
L 691 4666 
z
" id="DejaVuSans-35" transform="scale(0.015625)"/>
       </defs>
       <use xlink:href="#DejaVuSans-35"/>
       <use x="63.623047" xlink:href="#DejaVuSans-30"/>
      </g>
     </g>
    </g>
    <g id="text_7">
     <!-- Global Communication Rounds -->
     <g transform="translate(195.557422 412.914844)scale(0.15 -0.15)">
      <defs>
       <path d="M 3809 666 
L 3809 1919 
L 2778 1919 
L 2778 2438 
L 4434 2438 
L 4434 434 
Q 4069 175 3628 42 
Q 3188 -91 2688 -91 
Q 1594 -91 976 548 
Q 359 1188 359 2328 
Q 359 3472 976 4111 
Q 1594 4750 2688 4750 
Q 3144 4750 3555 4637 
Q 3966 4525 4313 4306 
L 4313 3634 
Q 3963 3931 3569 4081 
Q 3175 4231 2741 4231 
Q 1884 4231 1454 3753 
Q 1025 3275 1025 2328 
Q 1025 1384 1454 906 
Q 1884 428 2741 428 
Q 3075 428 3337 486 
Q 3600 544 3809 666 
z
" id="DejaVuSans-47" transform="scale(0.015625)"/>
       <path d="M 603 4863 
L 1178 4863 
L 1178 0 
L 603 0 
L 603 4863 
z
" id="DejaVuSans-6c" transform="scale(0.015625)"/>
       <path d="M 1959 3097 
Q 1497 3097 1228 2736 
Q 959 2375 959 1747 
Q 959 1119 1226 758 
Q 1494 397 1959 397 
Q 2419 397 2687 759 
Q 2956 1122 2956 1747 
Q 2956 2369 2687 2733 
Q 2419 3097 1959 3097 
z
M 1959 3584 
Q 2709 3584 3137 3096 
Q 3566 2609 3566 1747 
Q 3566 888 3137 398 
Q 2709 -91 1959 -91 
Q 1206 -91 779 398 
Q 353 888 353 1747 
Q 353 2609 779 3096 
Q 1206 3584 1959 3584 
z
" id="DejaVuSans-6f" transform="scale(0.015625)"/>
       <path d="M 3116 1747 
Q 3116 2381 2855 2742 
Q 2594 3103 2138 3103 
Q 1681 3103 1420 2742 
Q 1159 2381 1159 1747 
Q 1159 1113 1420 752 
Q 1681 391 2138 391 
Q 2594 391 2855 752 
Q 3116 1113 3116 1747 
z
M 1159 2969 
Q 1341 3281 1617 3432 
Q 1894 3584 2278 3584 
Q 2916 3584 3314 3078 
Q 3713 2572 3713 1747 
Q 3713 922 3314 415 
Q 2916 -91 2278 -91 
Q 1894 -91 1617 61 
Q 1341 213 1159 525 
L 1159 0 
L 581 0 
L 581 4863 
L 1159 4863 
L 1159 2969 
z
" id="DejaVuSans-62" transform="scale(0.015625)"/>
       <path d="M 2194 1759 
Q 1497 1759 1228 1600 
Q 959 1441 959 1056 
Q 959 750 1161 570 
Q 1363 391 1709 391 
Q 2188 391 2477 730 
Q 2766 1069 2766 1631 
L 2766 1759 
L 2194 1759 
z
M 3341 1997 
L 3341 0 
L 2766 0 
L 2766 531 
Q 2569 213 2275 61 
Q 1981 -91 1556 -91 
Q 1019 -91 701 211 
Q 384 513 384 1019 
Q 384 1609 779 1909 
Q 1175 2209 1959 2209 
L 2766 2209 
L 2766 2266 
Q 2766 2663 2505 2880 
Q 2244 3097 1772 3097 
Q 1472 3097 1187 3025 
Q 903 2953 641 2809 
L 641 3341 
Q 956 3463 1253 3523 
Q 1550 3584 1831 3584 
Q 2591 3584 2966 3190 
Q 3341 2797 3341 1997 
z
" id="DejaVuSans-61" transform="scale(0.015625)"/>
       <path id="DejaVuSans-20" transform="scale(0.015625)"/>
       <path d="M 4122 4306 
L 4122 3641 
Q 3803 3938 3442 4084 
Q 3081 4231 2675 4231 
Q 1875 4231 1450 3742 
Q 1025 3253 1025 2328 
Q 1025 1406 1450 917 
Q 1875 428 2675 428 
Q 3081 428 3442 575 
Q 3803 722 4122 1019 
L 4122 359 
Q 3791 134 3420 21 
Q 3050 -91 2638 -91 
Q 1578 -91 968 557 
Q 359 1206 359 2328 
Q 359 3453 968 4101 
Q 1578 4750 2638 4750 
Q 3056 4750 3426 4639 
Q 3797 4528 4122 4306 
z
" id="DejaVuSans-43" transform="scale(0.015625)"/>
       <path d="M 3328 2828 
Q 3544 3216 3844 3400 
Q 4144 3584 4550 3584 
Q 5097 3584 5394 3201 
Q 5691 2819 5691 2113 
L 5691 0 
L 5113 0 
L 5113 2094 
Q 5113 2597 4934 2840 
Q 4756 3084 4391 3084 
Q 3944 3084 3684 2787 
Q 3425 2491 3425 1978 
L 3425 0 
L 2847 0 
L 2847 2094 
Q 2847 2600 2669 2842 
Q 2491 3084 2119 3084 
Q 1678 3084 1418 2786 
Q 1159 2488 1159 1978 
L 1159 0 
L 581 0 
L 581 3500 
L 1159 3500 
L 1159 2956 
Q 1356 3278 1631 3431 
Q 1906 3584 2284 3584 
Q 2666 3584 2933 3390 
Q 3200 3197 3328 2828 
z
" id="DejaVuSans-6d" transform="scale(0.015625)"/>
       <path d="M 544 1381 
L 544 3500 
L 1119 3500 
L 1119 1403 
Q 1119 906 1312 657 
Q 1506 409 1894 409 
Q 2359 409 2629 706 
Q 2900 1003 2900 1516 
L 2900 3500 
L 3475 3500 
L 3475 0 
L 2900 0 
L 2900 538 
Q 2691 219 2414 64 
Q 2138 -91 1772 -91 
Q 1169 -91 856 284 
Q 544 659 544 1381 
z
M 1991 3584 
L 1991 3584 
z
" id="DejaVuSans-75" transform="scale(0.015625)"/>
       <path d="M 3513 2113 
L 3513 0 
L 2938 0 
L 2938 2094 
Q 2938 2591 2744 2837 
Q 2550 3084 2163 3084 
Q 1697 3084 1428 2787 
Q 1159 2491 1159 1978 
L 1159 0 
L 581 0 
L 581 3500 
L 1159 3500 
L 1159 2956 
Q 1366 3272 1645 3428 
Q 1925 3584 2291 3584 
Q 2894 3584 3203 3211 
Q 3513 2838 3513 2113 
z
" id="DejaVuSans-6e" transform="scale(0.015625)"/>
       <path d="M 603 3500 
L 1178 3500 
L 1178 0 
L 603 0 
L 603 3500 
z
M 603 4863 
L 1178 4863 
L 1178 4134 
L 603 4134 
L 603 4863 
z
" id="DejaVuSans-69" transform="scale(0.015625)"/>
       <path d="M 3122 3366 
L 3122 2828 
Q 2878 2963 2633 3030 
Q 2388 3097 2138 3097 
Q 1578 3097 1268 2742 
Q 959 2388 959 1747 
Q 959 1106 1268 751 
Q 1578 397 2138 397 
Q 2388 397 2633 464 
Q 2878 531 3122 666 
L 3122 134 
Q 2881 22 2623 -34 
Q 2366 -91 2075 -91 
Q 1284 -91 818 406 
Q 353 903 353 1747 
Q 353 2603 823 3093 
Q 1294 3584 2113 3584 
Q 2378 3584 2631 3529 
Q 2884 3475 3122 3366 
z
" id="DejaVuSans-63" transform="scale(0.015625)"/>
       <path d="M 1172 4494 
L 1172 3500 
L 2356 3500 
L 2356 3053 
L 1172 3053 
L 1172 1153 
Q 1172 725 1289 603 
Q 1406 481 1766 481 
L 2356 481 
L 2356 0 
L 1766 0 
Q 1100 0 847 248 
Q 594 497 594 1153 
L 594 3053 
L 172 3053 
L 172 3500 
L 594 3500 
L 594 4494 
L 1172 4494 
z
" id="DejaVuSans-74" transform="scale(0.015625)"/>
       <path d="M 2841 2188 
Q 3044 2119 3236 1894 
Q 3428 1669 3622 1275 
L 4263 0 
L 3584 0 
L 2988 1197 
Q 2756 1666 2539 1819 
Q 2322 1972 1947 1972 
L 1259 1972 
L 1259 0 
L 628 0 
L 628 4666 
L 2053 4666 
Q 2853 4666 3247 4331 
Q 3641 3997 3641 3322 
Q 3641 2881 3436 2590 
Q 3231 2300 2841 2188 
z
M 1259 4147 
L 1259 2491 
L 2053 2491 
Q 2509 2491 2742 2702 
Q 2975 2913 2975 3322 
Q 2975 3731 2742 3939 
Q 2509 4147 2053 4147 
L 1259 4147 
z
" id="DejaVuSans-52" transform="scale(0.015625)"/>
       <path d="M 2906 2969 
L 2906 4863 
L 3481 4863 
L 3481 0 
L 2906 0 
L 2906 525 
Q 2725 213 2448 61 
Q 2172 -91 1784 -91 
Q 1150 -91 751 415 
Q 353 922 353 1747 
Q 353 2572 751 3078 
Q 1150 3584 1784 3584 
Q 2172 3584 2448 3432 
Q 2725 3281 2906 2969 
z
M 947 1747 
Q 947 1113 1208 752 
Q 1469 391 1925 391 
Q 2381 391 2643 752 
Q 2906 1113 2906 1747 
Q 2906 2381 2643 2742 
Q 2381 3103 1925 3103 
Q 1469 3103 1208 2742 
Q 947 2381 947 1747 
z
" id="DejaVuSans-64" transform="scale(0.015625)"/>
       <path d="M 2834 3397 
L 2834 2853 
Q 2591 2978 2328 3040 
Q 2066 3103 1784 3103 
Q 1356 3103 1142 2972 
Q 928 2841 928 2578 
Q 928 2378 1081 2264 
Q 1234 2150 1697 2047 
L 1894 2003 
Q 2506 1872 2764 1633 
Q 3022 1394 3022 966 
Q 3022 478 2636 193 
Q 2250 -91 1575 -91 
Q 1294 -91 989 -36 
Q 684 19 347 128 
L 347 722 
Q 666 556 975 473 
Q 1284 391 1588 391 
Q 1994 391 2212 530 
Q 2431 669 2431 922 
Q 2431 1156 2273 1281 
Q 2116 1406 1581 1522 
L 1381 1569 
Q 847 1681 609 1914 
Q 372 2147 372 2553 
Q 372 3047 722 3315 
Q 1072 3584 1716 3584 
Q 2034 3584 2315 3537 
Q 2597 3491 2834 3397 
z
" id="DejaVuSans-73" transform="scale(0.015625)"/>
      </defs>
      <use xlink:href="#DejaVuSans-47"/>
      <use x="77.490234" xlink:href="#DejaVuSans-6c"/>
      <use x="105.273438" xlink:href="#DejaVuSans-6f"/>
      <use x="166.455078" xlink:href="#DejaVuSans-62"/>
      <use x="229.931641" xlink:href="#DejaVuSans-61"/>
      <use x="291.210938" xlink:href="#DejaVuSans-6c"/>
      <use x="318.994141" xlink:href="#DejaVuSans-20"/>
      <use x="350.78125" xlink:href="#DejaVuSans-43"/>
      <use x="420.605469" xlink:href="#DejaVuSans-6f"/>
      <use x="481.787109" xlink:href="#DejaVuSans-6d"/>
      <use x="579.199219" xlink:href="#DejaVuSans-6d"/>
      <use x="676.611328" xlink:href="#DejaVuSans-75"/>
      <use x="739.990234" xlink:href="#DejaVuSans-6e"/>
      <use x="803.369141" xlink:href="#DejaVuSans-69"/>
      <use x="831.152344" xlink:href="#DejaVuSans-63"/>
      <use x="886.132812" xlink:href="#DejaVuSans-61"/>
      <use x="947.412109" xlink:href="#DejaVuSans-74"/>
      <use x="986.621094" xlink:href="#DejaVuSans-69"/>
      <use x="1014.404297" xlink:href="#DejaVuSans-6f"/>
      <use x="1075.585938" xlink:href="#DejaVuSans-6e"/>
      <use x="1138.964844" xlink:href="#DejaVuSans-20"/>
      <use x="1170.751953" xlink:href="#DejaVuSans-52"/>
      <use x="1235.734375" xlink:href="#DejaVuSans-6f"/>
      <use x="1296.916016" xlink:href="#DejaVuSans-75"/>
      <use x="1360.294922" xlink:href="#DejaVuSans-6e"/>
      <use x="1423.673828" xlink:href="#DejaVuSans-64"/>
      <use x="1487.150391" xlink:href="#DejaVuSans-73"/>
     </g>
    </g>
   </g>
   <g id="matplotlib.axis_2">
    <g id="ytick_1">
     <g id="line2d_7">
      <defs>
       <path d="M 0 0 
L -3.5 0 
" id="m755eb363f9" style="stroke:#000000;stroke-width:0.8;"/>
      </defs>
      <g>
       <use style="stroke:#000000;stroke-width:0.8;" x="70.22" xlink:href="#m755eb363f9" y="324.184062"/>
      </g>
     </g>
     <g id="text_8">
      <!-- 20 -->
      <g transform="translate(44.1325 329.88289)scale(0.15 -0.15)">
       <use xlink:href="#DejaVuSans-32"/>
       <use x="63.623047" xlink:href="#DejaVuSans-30"/>
      </g>
     </g>
    </g>
    <g id="ytick_2">
     <g id="line2d_8">
      <g>
       <use style="stroke:#000000;stroke-width:0.8;" x="70.22" xlink:href="#m755eb363f9" y="260.304127"/>
      </g>
     </g>
     <g id="text_9">
      <!-- 40 -->
      <g transform="translate(44.1325 266.002956)scale(0.15 -0.15)">
       <use xlink:href="#DejaVuSans-34"/>
       <use x="63.623047" xlink:href="#DejaVuSans-30"/>
      </g>
     </g>
    </g>
    <g id="ytick_3">
     <g id="line2d_9">
      <g>
       <use style="stroke:#000000;stroke-width:0.8;" x="70.22" xlink:href="#m755eb363f9" y="196.424193"/>
      </g>
     </g>
     <g id="text_10">
      <!-- 60 -->
      <g transform="translate(44.1325 202.123021)scale(0.15 -0.15)">
       <defs>
        <path d="M 2113 2584 
Q 1688 2584 1439 2293 
Q 1191 2003 1191 1497 
Q 1191 994 1439 701 
Q 1688 409 2113 409 
Q 2538 409 2786 701 
Q 3034 994 3034 1497 
Q 3034 2003 2786 2293 
Q 2538 2584 2113 2584 
z
M 3366 4563 
L 3366 3988 
Q 3128 4100 2886 4159 
Q 2644 4219 2406 4219 
Q 1781 4219 1451 3797 
Q 1122 3375 1075 2522 
Q 1259 2794 1537 2939 
Q 1816 3084 2150 3084 
Q 2853 3084 3261 2657 
Q 3669 2231 3669 1497 
Q 3669 778 3244 343 
Q 2819 -91 2113 -91 
Q 1303 -91 875 529 
Q 447 1150 447 2328 
Q 447 3434 972 4092 
Q 1497 4750 2381 4750 
Q 2619 4750 2861 4703 
Q 3103 4656 3366 4563 
z
" id="DejaVuSans-36" transform="scale(0.015625)"/>
       </defs>
       <use xlink:href="#DejaVuSans-36"/>
       <use x="63.623047" xlink:href="#DejaVuSans-30"/>
      </g>
     </g>
    </g>
    <g id="ytick_4">
     <g id="line2d_10">
      <g>
       <use style="stroke:#000000;stroke-width:0.8;" x="70.22" xlink:href="#m755eb363f9" y="132.544258"/>
      </g>
     </g>
     <g id="text_11">
      <!-- 80 -->
      <g transform="translate(44.1325 138.243086)scale(0.15 -0.15)">
       <defs>
        <path d="M 2034 2216 
Q 1584 2216 1326 1975 
Q 1069 1734 1069 1313 
Q 1069 891 1326 650 
Q 1584 409 2034 409 
Q 2484 409 2743 651 
Q 3003 894 3003 1313 
Q 3003 1734 2745 1975 
Q 2488 2216 2034 2216 
z
M 1403 2484 
Q 997 2584 770 2862 
Q 544 3141 544 3541 
Q 544 4100 942 4425 
Q 1341 4750 2034 4750 
Q 2731 4750 3128 4425 
Q 3525 4100 3525 3541 
Q 3525 3141 3298 2862 
Q 3072 2584 2669 2484 
Q 3125 2378 3379 2068 
Q 3634 1759 3634 1313 
Q 3634 634 3220 271 
Q 2806 -91 2034 -91 
Q 1263 -91 848 271 
Q 434 634 434 1313 
Q 434 1759 690 2068 
Q 947 2378 1403 2484 
z
M 1172 3481 
Q 1172 3119 1398 2916 
Q 1625 2713 2034 2713 
Q 2441 2713 2670 2916 
Q 2900 3119 2900 3481 
Q 2900 3844 2670 4047 
Q 2441 4250 2034 4250 
Q 1625 4250 1398 4047 
Q 1172 3844 1172 3481 
z
" id="DejaVuSans-38" transform="scale(0.015625)"/>
       </defs>
       <use xlink:href="#DejaVuSans-38"/>
       <use x="63.623047" xlink:href="#DejaVuSans-30"/>
      </g>
     </g>
    </g>
    <g id="ytick_5">
     <g id="line2d_11">
      <g>
       <use style="stroke:#000000;stroke-width:0.8;" x="70.22" xlink:href="#m755eb363f9" y="68.664323"/>
      </g>
     </g>
     <g id="text_12">
      <!-- 100 -->
      <g transform="translate(34.58875 74.363151)scale(0.15 -0.15)">
       <use xlink:href="#DejaVuSans-31"/>
       <use x="63.623047" xlink:href="#DejaVuSans-30"/>
       <use x="127.246094" xlink:href="#DejaVuSans-30"/>
      </g>
     </g>
    </g>
    <g id="text_13">
     <!-- Test Accuracy -->
     <g transform="translate(27.469219 267.694744)rotate(-90)scale(0.15 -0.15)">
      <defs>
       <path d="M -19 4666 
L 3928 4666 
L 3928 4134 
L 2272 4134 
L 2272 0 
L 1638 0 
L 1638 4134 
L -19 4134 
L -19 4666 
z
" id="DejaVuSans-54" transform="scale(0.015625)"/>
       <path d="M 3597 1894 
L 3597 1613 
L 953 1613 
Q 991 1019 1311 708 
Q 1631 397 2203 397 
Q 2534 397 2845 478 
Q 3156 559 3463 722 
L 3463 178 
Q 3153 47 2828 -22 
Q 2503 -91 2169 -91 
Q 1331 -91 842 396 
Q 353 884 353 1716 
Q 353 2575 817 3079 
Q 1281 3584 2069 3584 
Q 2775 3584 3186 3129 
Q 3597 2675 3597 1894 
z
M 3022 2063 
Q 3016 2534 2758 2815 
Q 2500 3097 2075 3097 
Q 1594 3097 1305 2825 
Q 1016 2553 972 2059 
L 3022 2063 
z
" id="DejaVuSans-65" transform="scale(0.015625)"/>
       <path d="M 2188 4044 
L 1331 1722 
L 3047 1722 
L 2188 4044 
z
M 1831 4666 
L 2547 4666 
L 4325 0 
L 3669 0 
L 3244 1197 
L 1141 1197 
L 716 0 
L 50 0 
L 1831 4666 
z
" id="DejaVuSans-41" transform="scale(0.015625)"/>
       <path d="M 2631 2963 
Q 2534 3019 2420 3045 
Q 2306 3072 2169 3072 
Q 1681 3072 1420 2755 
Q 1159 2438 1159 1844 
L 1159 0 
L 581 0 
L 581 3500 
L 1159 3500 
L 1159 2956 
Q 1341 3275 1631 3429 
Q 1922 3584 2338 3584 
Q 2397 3584 2469 3576 
Q 2541 3569 2628 3553 
L 2631 2963 
z
" id="DejaVuSans-72" transform="scale(0.015625)"/>
       <path d="M 2059 -325 
Q 1816 -950 1584 -1140 
Q 1353 -1331 966 -1331 
L 506 -1331 
L 506 -850 
L 844 -850 
Q 1081 -850 1212 -737 
Q 1344 -625 1503 -206 
L 1606 56 
L 191 3500 
L 800 3500 
L 1894 763 
L 2988 3500 
L 3597 3500 
L 2059 -325 
z
" id="DejaVuSans-79" transform="scale(0.015625)"/>
      </defs>
      <use xlink:href="#DejaVuSans-54"/>
      <use x="44.083984" xlink:href="#DejaVuSans-65"/>
      <use x="105.607422" xlink:href="#DejaVuSans-73"/>
      <use x="157.707031" xlink:href="#DejaVuSans-74"/>
      <use x="196.916016" xlink:href="#DejaVuSans-20"/>
      <use x="228.703125" xlink:href="#DejaVuSans-41"/>
      <use x="295.361328" xlink:href="#DejaVuSans-63"/>
      <use x="350.341797" xlink:href="#DejaVuSans-63"/>
      <use x="405.322266" xlink:href="#DejaVuSans-75"/>
      <use x="468.701172" xlink:href="#DejaVuSans-72"/>
      <use x="509.814453" xlink:href="#DejaVuSans-61"/>
      <use x="571.09375" xlink:href="#DejaVuSans-63"/>
      <use x="626.074219" xlink:href="#DejaVuSans-79"/>
     </g>
    </g>
   </g>
   <g id="line2d_12">
    <path clip-path="url(#pbfc53b3661)" d="M 92.109091 317.796069 
L 101.043414 278.659501 
L 109.977737 232.811497 
L 118.912059 199.577759 
L 127.846382 146.533155 
L 136.780705 130.684462 
L 145.715028 129.633273 
L 154.649351 130.684462 
L 163.583673 120.010853 
L 172.517996 109.498965 
L 181.452319 109.094662 
L 190.386642 98.259331 
L 199.320965 98.340191 
L 208.255288 94.378018 
L 217.18961 95.510068 
L 226.123933 99.067938 
L 235.058256 88.151746 
L 243.992579 86.615393 
L 252.926902 92.922526 
L 261.861224 89.930681 
L 270.795547 89.202935 
L 279.72987 90.577566 
L 288.664193 84.917319 
L 297.598516 87.990025 
L 306.532839 80.631703 
L 315.467161 85.402483 
L 324.401484 80.550843 
L 333.335807 81.844613 
L 342.27013 81.197728 
L 351.204453 86.777115 
L 360.138776 80.550843 
L 369.073098 79.984818 
L 378.007421 80.793425 
L 386.941744 80.2274 
L 395.876067 79.09535 
L 404.81039 77.558997 
L 413.744712 79.257072 
L 422.679035 79.742236 
L 431.613358 77.316415 
L 440.547681 75.941784 
L 449.482004 77.397276 
L 458.416327 78.286744 
L 467.350649 75.780063 
L 476.284972 78.771908 
L 485.219295 75.294899 
L 494.153618 75.45662 
L 503.087941 75.375759 
L 512.022263 78.205883 
L 520.956586 75.699202 
L 529.890909 75.537481 
" style="fill:none;stroke:#1f77b4;stroke-linecap:square;stroke-width:1.5;"/>
   </g>
   <g id="line2d_13">
    <path clip-path="url(#pbfc53b3661)" d="M 92.109091 350.302061 
L 101.043414 332.350991 
L 109.977737 279.225526 
L 118.912059 284.158027 
L 127.846382 307.20332 
L 136.780705 217.690551 
L 145.715028 231.92203 
L 154.649351 243.88941 
L 163.583673 213.000631 
L 172.517996 180.090336 
L 181.452319 199.496898 
L 190.386642 178.14968 
L 199.320965 161.007216 
L 208.255288 178.311401 
L 217.18961 190.197921 
L 226.123933 187.367797 
L 235.058256 164.079922 
L 243.992579 140.468604 
L 252.926902 151.061353 
L 261.861224 152.759427 
L 270.795547 149.686721 
L 279.72987 160.522052 
L 288.664193 147.503483 
L 297.598516 137.881063 
L 306.532839 144.269056 
L 315.467161 167.233488 
L 324.401484 146.856598 
L 333.335807 114.83577 
L 342.27013 137.153316 
L 351.204453 148.878115 
L 360.138776 159.956027 
L 369.073098 158.500535 
L 378.007421 153.568034 
L 386.941744 148.231229 
L 395.876067 148.473811 
L 404.81039 140.872908 
L 413.744712 147.503483 
L 422.679035 137.476759 
L 431.613358 125.428518 
L 440.547681 126.156264 
L 449.482004 135.859546 
L 458.416327 110.469293 
L 467.350649 120.738599 
L 476.284972 127.288314 
L 485.219295 141.034629 
L 494.153618 132.059094 
L 503.087941 126.964871 
L 512.022263 129.794995 
L 520.956586 114.997491 
L 529.890909 134.889217 
" style="fill:none;stroke:#ff7f0e;stroke-linecap:square;stroke-width:1.5;"/>
   </g>
   <g id="line2d_14">
    <path clip-path="url(#pbfc53b3661)" d="M 92.109091 304.534918 
L 101.043414 254.64388 
L 109.977737 200.548087 
L 118.912059 168.203816 
L 127.846382 145.239384 
L 136.780705 133.676307 
L 145.715028 123.649583 
L 154.649351 117.665893 
L 163.583673 107.073145 
L 172.517996 94.944043 
L 181.452319 91.871337 
L 190.386642 97.531585 
L 199.320965 93.811994 
L 208.255288 94.53974 
L 217.18961 92.679944 
L 226.123933 87.990025 
L 235.058256 87.100557 
L 243.992579 85.07904 
L 252.926902 86.938836 
L 261.861224 85.159901 
L 270.795547 81.602031 
L 279.72987 82.087195 
L 288.664193 82.087195 
L 297.598516 81.844613 
L 306.532839 81.44031 
L 315.467161 79.337932 
L 324.401484 79.01449 
L 333.335807 80.712564 
L 342.27013 79.742236 
L 351.204453 78.125022 
L 360.138776 78.852768 
L 369.073098 77.235555 
L 378.007421 77.88244 
L 386.941744 78.286744 
L 395.876067 77.154694 
L 404.81039 79.337932 
L 413.744712 79.257072 
L 422.679035 77.720719 
L 431.613358 76.831251 
L 440.547681 75.860923 
L 449.482004 76.346087 
L 458.416327 76.265227 
L 467.350649 76.66953 
L 476.284972 76.831251 
L 485.219295 76.507809 
L 494.153618 77.397276 
L 503.087941 75.537481 
L 512.022263 76.507809 
L 520.956586 74.162849 
L 529.890909 74.809734 
" style="fill:none;stroke:#2ca02c;stroke-linecap:square;stroke-width:1.5;"/>
   </g>
   <g id="line2d_15">
    <path clip-path="url(#pbfc53b3661)" d="M 92.109091 294.051897 
L 101.043414 262.501597 
L 109.977737 243.912536 
L 118.912059 220.513316 
L 127.846382 200.85746 
L 136.780705 177.247436 
L 145.715028 167.026647 
L 154.649351 158.236768 
L 163.583673 149.715184 
L 172.517996 144.240674 
L 181.452319 139.066399 
L 190.386642 137.290537 
L 199.320965 134.460656 
L 208.255288 131.89907 
L 217.18961 130.8195 
L 226.123933 129.081965 
L 235.058256 128.583702 
L 243.992579 127.593563 
L 252.926902 125.881581 
L 261.861224 124.348462 
L 270.795547 124.374014 
L 279.72987 123.735215 
L 288.664193 123.198623 
L 297.598516 123.01976 
L 306.532839 121.671893 
L 315.467161 122.336244 
L 324.401484 121.499417 
L 333.335807 121.429149 
L 342.27013 120.445398 
L 351.204453 120.483726 
L 360.138776 120.106835 
L 369.073098 119.653287 
L 378.007421 120.132386 
L 386.941744 119.608571 
L 395.876067 119.238067 
L 404.81039 118.771744 
L 413.744712 118.867564 
L 422.679035 118.931444 
L 431.613358 118.522612 
L 440.547681 118.324584 
L 449.482004 118.292644 
L 458.416327 117.954081 
L 467.350649 117.679397 
L 476.284972 118.062677 
L 485.219295 117.577189 
L 494.153618 118.599268 
L 503.087941 117.334445 
L 512.022263 117.053374 
L 520.956586 117.538861 
L 529.890909 117.245013 
" style="fill:none;stroke:#d62728;stroke-linecap:square;stroke-width:1.5;"/>
   </g>
   <g id="patch_3">
    <path d="M 70.22 376 
L 70.22 56.601989 
" style="fill:none;stroke:#000000;stroke-linecap:square;stroke-linejoin:miter;stroke-width:0.8;"/>
   </g>
   <g id="patch_4">
    <path d="M 551.78 376 
L 551.78 56.601989 
" style="fill:none;stroke:#000000;stroke-linecap:square;stroke-linejoin:miter;stroke-width:0.8;"/>
   </g>
   <g id="patch_5">
    <path d="M 70.22 376 
L 551.78 376 
" style="fill:none;stroke:#000000;stroke-linecap:square;stroke-linejoin:miter;stroke-width:0.8;"/>
   </g>
   <g id="patch_6">
    <path d="M 70.22 56.601989 
L 551.78 56.601989 
" style="fill:none;stroke:#000000;stroke-linecap:square;stroke-linejoin:miter;stroke-width:0.8;"/>
   </g>
   <g id="legend_1">
    <g id="patch_7">
     <path d="M 61.402344 42.709474 
L 560.597656 42.709474 
Q 563.597656 42.709474 563.597656 39.709474 
L 563.597656 19.192287 
Q 563.597656 16.192287 560.597656 16.192287 
L 61.402344 16.192287 
Q 58.402344 16.192287 58.402344 19.192287 
L 58.402344 39.709474 
Q 58.402344 42.709474 61.402344 42.709474 
z
" style="fill:#ffffff;opacity:0.8;stroke:#cccccc;stroke-linejoin:miter;"/>
    </g>
    <g id="line2d_16">
     <path d="M 64.402344 28.339943 
L 94.402344 28.339943 
" style="fill:none;stroke:#1f77b4;stroke-linecap:square;stroke-width:1.5;"/>
    </g>
    <g id="line2d_17"/>
    <g id="text_14">
     <!-- FedAvg -->
     <g transform="translate(106.402344 33.589943)scale(0.15 -0.15)">
      <defs>
       <path d="M 628 4666 
L 3309 4666 
L 3309 4134 
L 1259 4134 
L 1259 2759 
L 3109 2759 
L 3109 2228 
L 1259 2228 
L 1259 0 
L 628 0 
L 628 4666 
z
" id="DejaVuSans-46" transform="scale(0.015625)"/>
       <path d="M 191 3500 
L 800 3500 
L 1894 563 
L 2988 3500 
L 3597 3500 
L 2284 0 
L 1503 0 
L 191 3500 
z
" id="DejaVuSans-76" transform="scale(0.015625)"/>
       <path d="M 2906 1791 
Q 2906 2416 2648 2759 
Q 2391 3103 1925 3103 
Q 1463 3103 1205 2759 
Q 947 2416 947 1791 
Q 947 1169 1205 825 
Q 1463 481 1925 481 
Q 2391 481 2648 825 
Q 2906 1169 2906 1791 
z
M 3481 434 
Q 3481 -459 3084 -895 
Q 2688 -1331 1869 -1331 
Q 1566 -1331 1297 -1286 
Q 1028 -1241 775 -1147 
L 775 -588 
Q 1028 -725 1275 -790 
Q 1522 -856 1778 -856 
Q 2344 -856 2625 -561 
Q 2906 -266 2906 331 
L 2906 616 
Q 2728 306 2450 153 
Q 2172 0 1784 0 
Q 1141 0 747 490 
Q 353 981 353 1791 
Q 353 2603 747 3093 
Q 1141 3584 1784 3584 
Q 2172 3584 2450 3431 
Q 2728 3278 2906 2969 
L 2906 3500 
L 3481 3500 
L 3481 434 
z
" id="DejaVuSans-67" transform="scale(0.015625)"/>
      </defs>
      <use xlink:href="#DejaVuSans-46"/>
      <use x="52.019531" xlink:href="#DejaVuSans-65"/>
      <use x="113.542969" xlink:href="#DejaVuSans-64"/>
      <use x="177.019531" xlink:href="#DejaVuSans-41"/>
      <use x="239.552734" xlink:href="#DejaVuSans-76"/>
      <use x="298.732422" xlink:href="#DejaVuSans-67"/>
     </g>
    </g>
    <g id="line2d_18">
     <path d="M 190.7375 28.339943 
L 220.7375 28.339943 
" style="fill:none;stroke:#ff7f0e;stroke-linecap:square;stroke-width:1.5;"/>
    </g>
    <g id="line2d_19"/>
    <g id="text_15">
     <!-- FedMed -->
     <g transform="translate(232.7375 33.589943)scale(0.15 -0.15)">
      <defs>
       <path d="M 628 4666 
L 1569 4666 
L 2759 1491 
L 3956 4666 
L 4897 4666 
L 4897 0 
L 4281 0 
L 4281 4097 
L 3078 897 
L 2444 897 
L 1241 4097 
L 1241 0 
L 628 0 
L 628 4666 
z
" id="DejaVuSans-4d" transform="scale(0.015625)"/>
      </defs>
      <use xlink:href="#DejaVuSans-46"/>
      <use x="52.019531" xlink:href="#DejaVuSans-65"/>
      <use x="113.542969" xlink:href="#DejaVuSans-64"/>
      <use x="177.019531" xlink:href="#DejaVuSans-4d"/>
      <use x="263.298828" xlink:href="#DejaVuSans-65"/>
      <use x="324.822266" xlink:href="#DejaVuSans-64"/>
     </g>
    </g>
    <g id="line2d_20">
     <path d="M 320.986719 28.339943 
L 350.986719 28.339943 
" style="fill:none;stroke:#2ca02c;stroke-linecap:square;stroke-width:1.5;"/>
    </g>
    <g id="line2d_21"/>
    <g id="text_16">
     <!-- FedProx -->
     <g transform="translate(362.986719 33.589943)scale(0.15 -0.15)">
      <defs>
       <path d="M 1259 4147 
L 1259 2394 
L 2053 2394 
Q 2494 2394 2734 2622 
Q 2975 2850 2975 3272 
Q 2975 3691 2734 3919 
Q 2494 4147 2053 4147 
L 1259 4147 
z
M 628 4666 
L 2053 4666 
Q 2838 4666 3239 4311 
Q 3641 3956 3641 3272 
Q 3641 2581 3239 2228 
Q 2838 1875 2053 1875 
L 1259 1875 
L 1259 0 
L 628 0 
L 628 4666 
z
" id="DejaVuSans-50" transform="scale(0.015625)"/>
       <path d="M 3513 3500 
L 2247 1797 
L 3578 0 
L 2900 0 
L 1881 1375 
L 863 0 
L 184 0 
L 1544 1831 
L 300 3500 
L 978 3500 
L 1906 2253 
L 2834 3500 
L 3513 3500 
z
" id="DejaVuSans-78" transform="scale(0.015625)"/>
      </defs>
      <use xlink:href="#DejaVuSans-46"/>
      <use x="52.019531" xlink:href="#DejaVuSans-65"/>
      <use x="113.542969" xlink:href="#DejaVuSans-64"/>
      <use x="177.019531" xlink:href="#DejaVuSans-50"/>
      <use x="235.572266" xlink:href="#DejaVuSans-72"/>
      <use x="274.435547" xlink:href="#DejaVuSans-6f"/>
      <use x="332.492188" xlink:href="#DejaVuSans-78"/>
     </g>
    </g>
    <g id="line2d_22">
     <path d="M 451.739844 28.339943 
L 481.739844 28.339943 
" style="fill:none;stroke:#d62728;stroke-linecap:square;stroke-width:1.5;"/>
    </g>
    <g id="line2d_23"/>
    <g id="text_17">
     <!-- qFedAvg -->
     <g transform="translate(493.739844 33.589943)scale(0.15 -0.15)">
      <defs>
       <path d="M 947 1747 
Q 947 1113 1208 752 
Q 1469 391 1925 391 
Q 2381 391 2643 752 
Q 2906 1113 2906 1747 
Q 2906 2381 2643 2742 
Q 2381 3103 1925 3103 
Q 1469 3103 1208 2742 
Q 947 2381 947 1747 
z
M 2906 525 
Q 2725 213 2448 61 
Q 2172 -91 1784 -91 
Q 1150 -91 751 415 
Q 353 922 353 1747 
Q 353 2572 751 3078 
Q 1150 3584 1784 3584 
Q 2172 3584 2448 3432 
Q 2725 3281 2906 2969 
L 2906 3500 
L 3481 3500 
L 3481 -1331 
L 2906 -1331 
L 2906 525 
z
" id="DejaVuSans-71" transform="scale(0.015625)"/>
      </defs>
      <use xlink:href="#DejaVuSans-71"/>
      <use x="63.476562" xlink:href="#DejaVuSans-46"/>
      <use x="115.496094" xlink:href="#DejaVuSans-65"/>
      <use x="177.019531" xlink:href="#DejaVuSans-64"/>
      <use x="240.496094" xlink:href="#DejaVuSans-41"/>
      <use x="303.029297" xlink:href="#DejaVuSans-76"/>
      <use x="362.208984" xlink:href="#DejaVuSans-67"/>
     </g>
    </g>
   </g>
  </g>
 </g>
 <defs>
  <clipPath id="pbfc53b3661">
   <rect height="319.398011" width="481.56" x="70.22" y="56.601989"/>
  </clipPath>
 </defs>
</svg>
