<?xml version="1.0" encoding="utf-8" standalone="no"?>
<!DOCTYPE svg PUBLIC "-//W3C//DTD SVG 1.1//EN"
  "http://www.w3.org/Graphics/SVG/1.1/DTD/svg11.dtd">
<svg height="345.6pt" version="1.1" viewBox="0 0 460.8 345.6" width="460.8pt" xmlns="http://www.w3.org/2000/svg" xmlns:xlink="http://www.w3.org/1999/xlink">
 <metadata>
  <rdf:RDF xmlns:cc="http://creativecommons.org/ns#" xmlns:dc="http://purl.org/dc/elements/1.1/" xmlns:rdf="http://www.w3.org/1999/02/22-rdf-syntax-ns#">
   <cc:Work>
    <dc:type rdf:resource="http://purl.org/dc/dcmitype/StillImage"/>
    <dc:date>2021-05-07T12:06:36.254874</dc:date>
    <dc:format>image/svg+xml</dc:format>
    <dc:creator>
     <cc:Agent>
      <dc:title>Matplotlib v3.4.1, https://matplotlib.org/</dc:title>
     </cc:Agent>
    </dc:creator>
   </cc:Work>
  </rdf:RDF>
 </metadata>
 <defs>
  <style type="text/css">*{stroke-linecap:butt;stroke-linejoin:round;}</style>
 </defs>
 <g id="figure_1">
  <g id="patch_1">
   <path d="M 0 345.6 
L 460.8 345.6 
L 460.8 0 
L 0 0 
z
" style="fill:#ffffff;"/>
  </g>
  <g id="axes_1">
   <g id="patch_2">
    <path d="M 50.87 303.64 
L 450 303.64 
L 450 32.876829 
L 50.87 32.876829 
z
" style="fill:#ffffff;"/>
   </g>
   <g id="PolyCollection_1">
    <path clip-path="url(#p7bbd2999d8)" d="M 69.012273 240.847128 
L 69.012273 263.622642 
L 76.417282 223.443815 
L 83.822291 165.87974 
L 91.227301 155.945539 
L 98.63231 119.822439 
L 106.037319 96.70261 
L 113.442328 94.111644 
L 120.847338 102.428052 
L 128.252347 88.74177 
L 135.657356 89.089272 
L 143.062365 85.180211 
L 150.467375 66.807682 
L 157.872384 63.035288 
L 165.277393 61.809867 
L 172.682403 64.682731 
L 180.087412 64.582112 
L 187.492421 55.473883 
L 194.89743 54.114275 
L 202.30244 65.312831 
L 209.707449 65.707553 
L 217.112458 62.972439 
L 224.517468 56.615647 
L 231.922477 53.125427 
L 239.327486 53.852945 
L 246.732495 51.387884 
L 254.137505 55.519626 
L 261.542514 54.663431 
L 268.947523 56.214734 
L 276.352532 52.26109 
L 283.757542 58.914974 
L 291.162551 51.988015 
L 298.56756 50.131874 
L 305.97257 51.727282 
L 313.377579 49.984407 
L 320.782588 49.514664 
L 328.187597 48.664801 
L 335.592607 50.454476 
L 342.997616 51.529731 
L 350.402625 50.220043 
L 357.807635 47.382273 
L 365.212644 48.176703 
L 372.617653 48.905145 
L 380.022662 48.678587 
L 387.427672 49.14713 
L 394.832681 48.176703 
L 402.23769 48.76339 
L 409.642699 47.414716 
L 417.047709 49.53751 
L 424.452718 47.475583 
L 431.857727 47.572034 
L 431.857727 45.404856 
L 431.857727 45.404856 
L 424.452718 45.907652 
L 417.047709 46.419249 
L 409.642699 45.96852 
L 402.23769 45.974332 
L 394.832681 46.290122 
L 387.427672 45.184246 
L 380.022662 46.059135 
L 372.617653 46.780717 
L 365.212644 46.290122 
L 357.807635 46.000963 
L 350.402625 46.143062 
L 342.997616 46.865104 
L 335.592607 46.314975 
L 328.187597 47.156509 
L 320.782588 47.390236 
L 313.377579 47.868633 
L 305.97257 46.93845 
L 298.56756 48.804754 
L 291.162551 47.35496 
L 283.757542 47.200431 
L 276.352532 46.54009 
L 268.947523 45.837213 
L 261.542514 46.98217 
L 254.137505 49.918536 
L 246.732495 47.819642 
L 239.327486 48.876245 
L 231.922477 48.791071 
L 224.517468 49.499759 
L 217.112458 46.800079 
L 209.707449 47.180282 
L 202.30244 49.877631 
L 194.89743 51.594785 
L 187.492421 51.725111 
L 180.087412 51.150144 
L 172.682403 53.216704 
L 165.277393 50.129829 
L 157.872384 52.019726 
L 150.467375 55.019762 
L 143.062365 56.151833 
L 135.657356 56.306231 
L 128.252347 61.123536 
L 120.847338 68.160892 
L 113.442328 79.998964 
L 106.037319 74.834475 
L 98.63231 97.360828 
L 91.227301 120.157873 
L 83.822291 134.875319 
L 76.417282 142.191129 
L 69.012273 240.847128 
z
" style="fill:#1f77b4;fill-opacity:0.5;"/>
   </g>
   <g id="PolyCollection_2">
    <path clip-path="url(#p7bbd2999d8)" d="M 69.012273 268.129323 
L 69.012273 291.332583 
L 76.417282 273.889837 
L 83.822291 252.985964 
L 91.227301 256.635157 
L 98.63231 262.596259 
L 106.037319 183.542394 
L 113.442328 219.479149 
L 120.847338 233.542548 
L 128.252347 222.132434 
L 135.657356 182.844989 
L 143.062365 203.842713 
L 150.467375 160.202651 
L 157.872384 142.776172 
L 165.277393 153.054232 
L 172.682403 173.683016 
L 180.087412 178.249321 
L 187.492421 159.4749 
L 194.89743 125.173162 
L 202.30244 129.042244 
L 209.707449 135.39782 
L 217.112458 128.267697 
L 224.517468 133.094469 
L 231.922477 126.982367 
L 239.327486 131.624245 
L 246.732495 124.373743 
L 254.137505 152.011484 
L 261.542514 164.344289 
L 268.947523 102.786483 
L 276.352532 134.308562 
L 283.757542 160.124035 
L 291.162551 192.870175 
L 298.56756 191.065633 
L 305.97257 161.659419 
L 313.377579 133.56087 
L 320.782588 139.312696 
L 328.187597 141.908423 
L 335.592607 145.288246 
L 342.997616 115.84859 
L 350.402625 96.12154 
L 357.807635 110.514587 
L 365.212644 94.852155 
L 372.617653 69.273871 
L 380.022662 96.270013 
L 387.427672 96.382028 
L 394.832681 108.261087 
L 402.23769 88.752441 
L 409.642699 93.603235 
L 417.047709 105.826837 
L 424.452718 89.199497 
L 431.857727 108.709768 
L 431.857727 59.982895 
L 431.857727 59.982895 
L 424.452718 58.092286 
L 417.047709 71.128192 
L 409.642699 73.193148 
L 402.23769 77.366698 
L 394.832681 78.717139 
L 387.427672 61.339297 
L 380.022662 56.981509 
L 372.617653 59.326003 
L 365.212644 70.183396 
L 357.807635 58.042628 
L 350.402625 70.133049 
L 342.997616 71.535982 
L 335.592607 60.110991 
L 328.187597 68.637861 
L 320.782588 100.896834 
L 313.377579 89.311237 
L 305.97257 79.498252 
L 298.56756 68.3776 
L 291.162551 55.737169 
L 283.757542 53.26667 
L 276.352532 62.421964 
L 268.947523 57.237469 
L 261.542514 46.066547 
L 254.137505 87.7917 
L 246.732495 69.647811 
L 239.327486 75.264926 
L 231.922477 78.687767 
L 224.517468 88.829498 
L 217.112458 77.673335 
L 209.707449 80.972755 
L 202.30244 85.973845 
L 194.89743 83.205945 
L 187.492421 69.627844 
L 180.087412 96.499604 
L 172.682403 99.305077 
L 165.277393 101.919197 
L 157.872384 87.139264 
L 150.467375 109.805574 
L 143.062365 110.457207 
L 135.657356 77.140039 
L 128.252347 104.357861 
L 120.847338 147.939883 
L 113.442328 142.905028 
L 106.037319 131.163872 
L 98.63231 210.991227 
L 91.227301 180.516653 
L 83.822291 169.672845 
L 76.417282 233.018008 
L 69.012273 268.129323 
z
" style="fill:#ff7f0e;fill-opacity:0.5;"/>
   </g>
   <g id="PolyCollection_3">
    <path clip-path="url(#p7bbd2999d8)" d="M 69.012273 209.633491 
L 69.012273 234.155301 
L 76.417282 234.489656 
L 83.822291 170.735139 
L 91.227301 127.870269 
L 98.63231 133.156855 
L 106.037319 106.286116 
L 113.442328 97.646021 
L 120.847338 93.887237 
L 128.252347 91.274908 
L 135.657356 71.39882 
L 143.062365 70.001046 
L 150.467375 71.667271 
L 157.872384 64.397615 
L 165.277393 59.29791 
L 172.682403 58.142533 
L 180.087412 60.672653 
L 187.492421 57.27684 
L 194.89743 60.359422 
L 202.30244 60.064004 
L 209.707449 57.058561 
L 217.112458 58.26116 
L 224.517468 58.450814 
L 231.922477 57.953474 
L 239.327486 57.058974 
L 246.732495 55.823546 
L 254.137505 56.763828 
L 261.542514 66.098298 
L 268.947523 56.172268 
L 276.352532 55.358546 
L 283.757542 56.067619 
L 291.162551 55.802707 
L 298.56756 55.741193 
L 305.97257 56.00923 
L 313.377579 55.560631 
L 320.782588 55.906184 
L 328.187597 56.08415 
L 335.592607 55.788593 
L 342.997616 56.008193 
L 350.402625 55.161842 
L 357.807635 54.891547 
L 365.212644 55.173223 
L 372.617653 55.365491 
L 380.022662 55.71556 
L 387.427672 56.071299 
L 394.832681 56.18162 
L 402.23769 55.8015 
L 409.642699 55.677539 
L 417.047709 55.130507 
L 424.452718 55.251369 
L 431.857727 54.956885 
L 431.857727 45.469679 
L 431.857727 45.469679 
L 424.452718 46.394232 
L 417.047709 46.379646 
L 409.642699 46.916202 
L 402.23769 47.469484 
L 394.832681 48.172953 
L 387.427672 47.606031 
L 380.022662 47.690873 
L 372.617653 47.363699 
L 365.212644 46.878724 
L 357.807635 46.21226 
L 350.402625 46.34831 
L 342.997616 48.075483 
L 335.592607 48.024186 
L 328.187597 48.947666 
L 320.782588 49.125632 
L 313.377579 47.574905 
L 305.97257 49.564381 
L 298.56756 48.207035 
L 291.162551 47.874623 
L 283.757542 48.557852 
L 276.352532 47.641541 
L 268.947523 50.078586 
L 261.542514 51.394791 
L 254.137505 50.164269 
L 246.732495 49.072822 
L 239.327486 49.598226 
L 231.922477 52.089941 
L 224.517468 51.457152 
L 217.112458 53.407638 
L 209.707449 52.578508 
L 202.30244 53.907421 
L 194.89743 55.237386 
L 187.492421 52.495677 
L 180.087412 53.569668 
L 172.682403 52.307228 
L 165.277393 52.099991 
L 157.872384 54.720857 
L 150.467375 56.932604 
L 143.062365 57.650688 
L 135.657356 60.858167 
L 128.252347 68.20725 
L 120.847338 66.001266 
L 113.442328 68.202222 
L 106.037319 61.864753 
L 98.63231 81.181991 
L 91.227301 97.304466 
L 83.822291 148.170034 
L 76.417282 199.953182 
L 69.012273 209.633491 
z
" style="fill:#2ca02c;fill-opacity:0.5;"/>
   </g>
   <g id="PolyCollection_4">
    <path clip-path="url(#p7bbd2999d8)" d="M 69.012273 240.863525 
L 69.012273 269.295764 
L 76.417282 248.556216 
L 83.822291 231.003368 
L 91.227301 219.601497 
L 98.63231 216.018804 
L 106.037319 211.592902 
L 113.442328 206.171361 
L 120.847338 198.917243 
L 128.252347 194.594212 
L 135.657356 189.865802 
L 143.062365 186.411049 
L 150.467375 183.8486 
L 157.872384 180.556791 
L 165.277393 177.512987 
L 172.682403 173.987184 
L 180.087412 169.498004 
L 187.492421 164.464015 
L 194.89743 159.347675 
L 202.30244 154.696033 
L 209.707449 149.928612 
L 217.112458 145.113301 
L 224.517468 141.450903 
L 231.922477 137.640851 
L 239.327486 135.052391 
L 246.732495 132.535682 
L 254.137505 129.667213 
L 261.542514 127.770468 
L 268.947523 125.224231 
L 276.352532 123.171319 
L 283.757542 120.621532 
L 291.162551 119.099185 
L 298.56756 117.834921 
L 305.97257 116.821538 
L 313.377579 115.411355 
L 320.782588 115.224102 
L 328.187597 114.38455 
L 335.592607 113.449575 
L 342.997616 112.357378 
L 350.402625 111.731235 
L 357.807635 111.308405 
L 365.212644 110.504009 
L 372.617653 109.10816 
L 380.022662 108.450693 
L 387.427672 108.087834 
L 394.832681 107.371653 
L 402.23769 106.538469 
L 409.642699 106.464329 
L 417.047709 106.091521 
L 424.452718 105.34552 
L 431.857727 105.053885 
L 431.857727 91.625306 
L 431.857727 91.625306 
L 424.452718 92.243208 
L 417.047709 92.449547 
L 409.642699 92.85787 
L 402.23769 93.318752 
L 394.832681 94.443749 
L 387.427672 95.161427 
L 380.022662 95.868613 
L 372.617653 96.388194 
L 365.212644 97.111032 
L 357.807635 98.896143 
L 350.402625 99.746665 
L 342.997616 101.389015 
L 335.592607 102.244298 
L 328.187597 103.128398 
L 320.782588 104.396832 
L 313.377579 104.46639 
L 305.97257 106.458947 
L 298.56756 107.553551 
L 291.162551 108.621984 
L 283.757542 109.539336 
L 276.352532 111.355329 
L 268.947523 113.400685 
L 261.542514 114.663805 
L 254.137505 115.731082 
L 246.732495 117.795516 
L 239.327486 120.564825 
L 231.922477 122.21374 
L 224.517468 123.935815 
L 217.112458 125.645038 
L 209.707449 128.352136 
L 202.30244 130.925217 
L 194.89743 134.095597 
L 187.492421 137.143693 
L 180.087412 140.306242 
L 172.682403 142.462035 
L 165.277393 146.126927 
L 157.872384 149.08607 
L 150.467375 152.214526 
L 143.062365 155.130702 
L 135.657356 158.042711 
L 128.252347 160.740407 
L 120.847338 164.924226 
L 113.442328 169.055376 
L 106.037319 175.318716 
L 98.63231 178.918144 
L 91.227301 190.38027 
L 83.822291 201.417222 
L 76.417282 216.778928 
L 69.012273 240.863525 
z
" style="fill:#d62728;fill-opacity:0.5;"/>
   </g>
   <g id="matplotlib.axis_1">
    <g id="xtick_1">
     <g id="line2d_1">
      <defs>
       <path d="M 0 0 
L 0 3.5 
" id="m9305398650" style="stroke:#000000;stroke-width:0.8;"/>
      </defs>
      <g>
       <use style="stroke:#000000;stroke-width:0.8;" x="69.012273" xlink:href="#m9305398650" y="303.64"/>
      </g>
     </g>
     <g id="text_1">
      <!-- 0 -->
      <g transform="translate(65.831023 318.238437)scale(0.1 -0.1)">
       <defs>
        <path d="M 2034 4250 
Q 1547 4250 1301 3770 
Q 1056 3291 1056 2328 
Q 1056 1369 1301 889 
Q 1547 409 2034 409 
Q 2525 409 2770 889 
Q 3016 1369 3016 2328 
Q 3016 3291 2770 3770 
Q 2525 4250 2034 4250 
z
M 2034 4750 
Q 2819 4750 3233 4129 
Q 3647 3509 3647 2328 
Q 3647 1150 3233 529 
Q 2819 -91 2034 -91 
Q 1250 -91 836 529 
Q 422 1150 422 2328 
Q 422 3509 836 4129 
Q 1250 4750 2034 4750 
z
" id="DejaVuSans-30" transform="scale(0.015625)"/>
       </defs>
       <use xlink:href="#DejaVuSans-30"/>
      </g>
     </g>
    </g>
    <g id="xtick_2">
     <g id="line2d_2">
      <g>
       <use style="stroke:#000000;stroke-width:0.8;" x="143.062365" xlink:href="#m9305398650" y="303.64"/>
      </g>
     </g>
     <g id="text_2">
      <!-- 10 -->
      <g transform="translate(136.699865 318.238437)scale(0.1 -0.1)">
       <defs>
        <path d="M 794 531 
L 1825 531 
L 1825 4091 
L 703 3866 
L 703 4441 
L 1819 4666 
L 2450 4666 
L 2450 531 
L 3481 531 
L 3481 0 
L 794 0 
L 794 531 
z
" id="DejaVuSans-31" transform="scale(0.015625)"/>
       </defs>
       <use xlink:href="#DejaVuSans-31"/>
       <use x="63.623047" xlink:href="#DejaVuSans-30"/>
      </g>
     </g>
    </g>
    <g id="xtick_3">
     <g id="line2d_3">
      <g>
       <use style="stroke:#000000;stroke-width:0.8;" x="217.112458" xlink:href="#m9305398650" y="303.64"/>
      </g>
     </g>
     <g id="text_3">
      <!-- 20 -->
      <g transform="translate(210.749958 318.238437)scale(0.1 -0.1)">
       <defs>
        <path d="M 1228 531 
L 3431 531 
L 3431 0 
L 469 0 
L 469 531 
Q 828 903 1448 1529 
Q 2069 2156 2228 2338 
Q 2531 2678 2651 2914 
Q 2772 3150 2772 3378 
Q 2772 3750 2511 3984 
Q 2250 4219 1831 4219 
Q 1534 4219 1204 4116 
Q 875 4013 500 3803 
L 500 4441 
Q 881 4594 1212 4672 
Q 1544 4750 1819 4750 
Q 2544 4750 2975 4387 
Q 3406 4025 3406 3419 
Q 3406 3131 3298 2873 
Q 3191 2616 2906 2266 
Q 2828 2175 2409 1742 
Q 1991 1309 1228 531 
z
" id="DejaVuSans-32" transform="scale(0.015625)"/>
       </defs>
       <use xlink:href="#DejaVuSans-32"/>
       <use x="63.623047" xlink:href="#DejaVuSans-30"/>
      </g>
     </g>
    </g>
    <g id="xtick_4">
     <g id="line2d_4">
      <g>
       <use style="stroke:#000000;stroke-width:0.8;" x="291.162551" xlink:href="#m9305398650" y="303.64"/>
      </g>
     </g>
     <g id="text_4">
      <!-- 30 -->
      <g transform="translate(284.800051 318.238437)scale(0.1 -0.1)">
       <defs>
        <path d="M 2597 2516 
Q 3050 2419 3304 2112 
Q 3559 1806 3559 1356 
Q 3559 666 3084 287 
Q 2609 -91 1734 -91 
Q 1441 -91 1130 -33 
Q 819 25 488 141 
L 488 750 
Q 750 597 1062 519 
Q 1375 441 1716 441 
Q 2309 441 2620 675 
Q 2931 909 2931 1356 
Q 2931 1769 2642 2001 
Q 2353 2234 1838 2234 
L 1294 2234 
L 1294 2753 
L 1863 2753 
Q 2328 2753 2575 2939 
Q 2822 3125 2822 3475 
Q 2822 3834 2567 4026 
Q 2313 4219 1838 4219 
Q 1578 4219 1281 4162 
Q 984 4106 628 3988 
L 628 4550 
Q 988 4650 1302 4700 
Q 1616 4750 1894 4750 
Q 2613 4750 3031 4423 
Q 3450 4097 3450 3541 
Q 3450 3153 3228 2886 
Q 3006 2619 2597 2516 
z
" id="DejaVuSans-33" transform="scale(0.015625)"/>
       </defs>
       <use xlink:href="#DejaVuSans-33"/>
       <use x="63.623047" xlink:href="#DejaVuSans-30"/>
      </g>
     </g>
    </g>
    <g id="xtick_5">
     <g id="line2d_5">
      <g>
       <use style="stroke:#000000;stroke-width:0.8;" x="365.212644" xlink:href="#m9305398650" y="303.64"/>
      </g>
     </g>
     <g id="text_5">
      <!-- 40 -->
      <g transform="translate(358.850144 318.238437)scale(0.1 -0.1)">
       <defs>
        <path d="M 2419 4116 
L 825 1625 
L 2419 1625 
L 2419 4116 
z
M 2253 4666 
L 3047 4666 
L 3047 1625 
L 3713 1625 
L 3713 1100 
L 3047 1100 
L 3047 0 
L 2419 0 
L 2419 1100 
L 313 1100 
L 313 1709 
L 2253 4666 
z
" id="DejaVuSans-34" transform="scale(0.015625)"/>
       </defs>
       <use xlink:href="#DejaVuSans-34"/>
       <use x="63.623047" xlink:href="#DejaVuSans-30"/>
      </g>
     </g>
    </g>
    <g id="xtick_6">
     <g id="line2d_6">
      <g>
       <use style="stroke:#000000;stroke-width:0.8;" x="439.262737" xlink:href="#m9305398650" y="303.64"/>
      </g>
     </g>
     <g id="text_6">
      <!-- 50 -->
      <g transform="translate(432.900237 318.238437)scale(0.1 -0.1)">
       <defs>
        <path d="M 691 4666 
L 3169 4666 
L 3169 4134 
L 1269 4134 
L 1269 2991 
Q 1406 3038 1543 3061 
Q 1681 3084 1819 3084 
Q 2600 3084 3056 2656 
Q 3513 2228 3513 1497 
Q 3513 744 3044 326 
Q 2575 -91 1722 -91 
Q 1428 -91 1123 -41 
Q 819 9 494 109 
L 494 744 
Q 775 591 1075 516 
Q 1375 441 1709 441 
Q 2250 441 2565 725 
Q 2881 1009 2881 1497 
Q 2881 1984 2565 2268 
Q 2250 2553 1709 2553 
Q 1456 2553 1204 2497 
Q 953 2441 691 2322 
L 691 4666 
z
" id="DejaVuSans-35" transform="scale(0.015625)"/>
       </defs>
       <use xlink:href="#DejaVuSans-35"/>
       <use x="63.623047" xlink:href="#DejaVuSans-30"/>
      </g>
     </g>
    </g>
    <g id="text_7">
     <!-- Global Communication Rounds -->
     <g transform="translate(173.473281 331.916562)scale(0.1 -0.1)">
      <defs>
       <path d="M 3809 666 
L 3809 1919 
L 2778 1919 
L 2778 2438 
L 4434 2438 
L 4434 434 
Q 4069 175 3628 42 
Q 3188 -91 2688 -91 
Q 1594 -91 976 548 
Q 359 1188 359 2328 
Q 359 3472 976 4111 
Q 1594 4750 2688 4750 
Q 3144 4750 3555 4637 
Q 3966 4525 4313 4306 
L 4313 3634 
Q 3963 3931 3569 4081 
Q 3175 4231 2741 4231 
Q 1884 4231 1454 3753 
Q 1025 3275 1025 2328 
Q 1025 1384 1454 906 
Q 1884 428 2741 428 
Q 3075 428 3337 486 
Q 3600 544 3809 666 
z
" id="DejaVuSans-47" transform="scale(0.015625)"/>
       <path d="M 603 4863 
L 1178 4863 
L 1178 0 
L 603 0 
L 603 4863 
z
" id="DejaVuSans-6c" transform="scale(0.015625)"/>
       <path d="M 1959 3097 
Q 1497 3097 1228 2736 
Q 959 2375 959 1747 
Q 959 1119 1226 758 
Q 1494 397 1959 397 
Q 2419 397 2687 759 
Q 2956 1122 2956 1747 
Q 2956 2369 2687 2733 
Q 2419 3097 1959 3097 
z
M 1959 3584 
Q 2709 3584 3137 3096 
Q 3566 2609 3566 1747 
Q 3566 888 3137 398 
Q 2709 -91 1959 -91 
Q 1206 -91 779 398 
Q 353 888 353 1747 
Q 353 2609 779 3096 
Q 1206 3584 1959 3584 
z
" id="DejaVuSans-6f" transform="scale(0.015625)"/>
       <path d="M 3116 1747 
Q 3116 2381 2855 2742 
Q 2594 3103 2138 3103 
Q 1681 3103 1420 2742 
Q 1159 2381 1159 1747 
Q 1159 1113 1420 752 
Q 1681 391 2138 391 
Q 2594 391 2855 752 
Q 3116 1113 3116 1747 
z
M 1159 2969 
Q 1341 3281 1617 3432 
Q 1894 3584 2278 3584 
Q 2916 3584 3314 3078 
Q 3713 2572 3713 1747 
Q 3713 922 3314 415 
Q 2916 -91 2278 -91 
Q 1894 -91 1617 61 
Q 1341 213 1159 525 
L 1159 0 
L 581 0 
L 581 4863 
L 1159 4863 
L 1159 2969 
z
" id="DejaVuSans-62" transform="scale(0.015625)"/>
       <path d="M 2194 1759 
Q 1497 1759 1228 1600 
Q 959 1441 959 1056 
Q 959 750 1161 570 
Q 1363 391 1709 391 
Q 2188 391 2477 730 
Q 2766 1069 2766 1631 
L 2766 1759 
L 2194 1759 
z
M 3341 1997 
L 3341 0 
L 2766 0 
L 2766 531 
Q 2569 213 2275 61 
Q 1981 -91 1556 -91 
Q 1019 -91 701 211 
Q 384 513 384 1019 
Q 384 1609 779 1909 
Q 1175 2209 1959 2209 
L 2766 2209 
L 2766 2266 
Q 2766 2663 2505 2880 
Q 2244 3097 1772 3097 
Q 1472 3097 1187 3025 
Q 903 2953 641 2809 
L 641 3341 
Q 956 3463 1253 3523 
Q 1550 3584 1831 3584 
Q 2591 3584 2966 3190 
Q 3341 2797 3341 1997 
z
" id="DejaVuSans-61" transform="scale(0.015625)"/>
       <path id="DejaVuSans-20" transform="scale(0.015625)"/>
       <path d="M 4122 4306 
L 4122 3641 
Q 3803 3938 3442 4084 
Q 3081 4231 2675 4231 
Q 1875 4231 1450 3742 
Q 1025 3253 1025 2328 
Q 1025 1406 1450 917 
Q 1875 428 2675 428 
Q 3081 428 3442 575 
Q 3803 722 4122 1019 
L 4122 359 
Q 3791 134 3420 21 
Q 3050 -91 2638 -91 
Q 1578 -91 968 557 
Q 359 1206 359 2328 
Q 359 3453 968 4101 
Q 1578 4750 2638 4750 
Q 3056 4750 3426 4639 
Q 3797 4528 4122 4306 
z
" id="DejaVuSans-43" transform="scale(0.015625)"/>
       <path d="M 3328 2828 
Q 3544 3216 3844 3400 
Q 4144 3584 4550 3584 
Q 5097 3584 5394 3201 
Q 5691 2819 5691 2113 
L 5691 0 
L 5113 0 
L 5113 2094 
Q 5113 2597 4934 2840 
Q 4756 3084 4391 3084 
Q 3944 3084 3684 2787 
Q 3425 2491 3425 1978 
L 3425 0 
L 2847 0 
L 2847 2094 
Q 2847 2600 2669 2842 
Q 2491 3084 2119 3084 
Q 1678 3084 1418 2786 
Q 1159 2488 1159 1978 
L 1159 0 
L 581 0 
L 581 3500 
L 1159 3500 
L 1159 2956 
Q 1356 3278 1631 3431 
Q 1906 3584 2284 3584 
Q 2666 3584 2933 3390 
Q 3200 3197 3328 2828 
z
" id="DejaVuSans-6d" transform="scale(0.015625)"/>
       <path d="M 544 1381 
L 544 3500 
L 1119 3500 
L 1119 1403 
Q 1119 906 1312 657 
Q 1506 409 1894 409 
Q 2359 409 2629 706 
Q 2900 1003 2900 1516 
L 2900 3500 
L 3475 3500 
L 3475 0 
L 2900 0 
L 2900 538 
Q 2691 219 2414 64 
Q 2138 -91 1772 -91 
Q 1169 -91 856 284 
Q 544 659 544 1381 
z
M 1991 3584 
L 1991 3584 
z
" id="DejaVuSans-75" transform="scale(0.015625)"/>
       <path d="M 3513 2113 
L 3513 0 
L 2938 0 
L 2938 2094 
Q 2938 2591 2744 2837 
Q 2550 3084 2163 3084 
Q 1697 3084 1428 2787 
Q 1159 2491 1159 1978 
L 1159 0 
L 581 0 
L 581 3500 
L 1159 3500 
L 1159 2956 
Q 1366 3272 1645 3428 
Q 1925 3584 2291 3584 
Q 2894 3584 3203 3211 
Q 3513 2838 3513 2113 
z
" id="DejaVuSans-6e" transform="scale(0.015625)"/>
       <path d="M 603 3500 
L 1178 3500 
L 1178 0 
L 603 0 
L 603 3500 
z
M 603 4863 
L 1178 4863 
L 1178 4134 
L 603 4134 
L 603 4863 
z
" id="DejaVuSans-69" transform="scale(0.015625)"/>
       <path d="M 3122 3366 
L 3122 2828 
Q 2878 2963 2633 3030 
Q 2388 3097 2138 3097 
Q 1578 3097 1268 2742 
Q 959 2388 959 1747 
Q 959 1106 1268 751 
Q 1578 397 2138 397 
Q 2388 397 2633 464 
Q 2878 531 3122 666 
L 3122 134 
Q 2881 22 2623 -34 
Q 2366 -91 2075 -91 
Q 1284 -91 818 406 
Q 353 903 353 1747 
Q 353 2603 823 3093 
Q 1294 3584 2113 3584 
Q 2378 3584 2631 3529 
Q 2884 3475 3122 3366 
z
" id="DejaVuSans-63" transform="scale(0.015625)"/>
       <path d="M 1172 4494 
L 1172 3500 
L 2356 3500 
L 2356 3053 
L 1172 3053 
L 1172 1153 
Q 1172 725 1289 603 
Q 1406 481 1766 481 
L 2356 481 
L 2356 0 
L 1766 0 
Q 1100 0 847 248 
Q 594 497 594 1153 
L 594 3053 
L 172 3053 
L 172 3500 
L 594 3500 
L 594 4494 
L 1172 4494 
z
" id="DejaVuSans-74" transform="scale(0.015625)"/>
       <path d="M 2841 2188 
Q 3044 2119 3236 1894 
Q 3428 1669 3622 1275 
L 4263 0 
L 3584 0 
L 2988 1197 
Q 2756 1666 2539 1819 
Q 2322 1972 1947 1972 
L 1259 1972 
L 1259 0 
L 628 0 
L 628 4666 
L 2053 4666 
Q 2853 4666 3247 4331 
Q 3641 3997 3641 3322 
Q 3641 2881 3436 2590 
Q 3231 2300 2841 2188 
z
M 1259 4147 
L 1259 2491 
L 2053 2491 
Q 2509 2491 2742 2702 
Q 2975 2913 2975 3322 
Q 2975 3731 2742 3939 
Q 2509 4147 2053 4147 
L 1259 4147 
z
" id="DejaVuSans-52" transform="scale(0.015625)"/>
       <path d="M 2906 2969 
L 2906 4863 
L 3481 4863 
L 3481 0 
L 2906 0 
L 2906 525 
Q 2725 213 2448 61 
Q 2172 -91 1784 -91 
Q 1150 -91 751 415 
Q 353 922 353 1747 
Q 353 2572 751 3078 
Q 1150 3584 1784 3584 
Q 2172 3584 2448 3432 
Q 2725 3281 2906 2969 
z
M 947 1747 
Q 947 1113 1208 752 
Q 1469 391 1925 391 
Q 2381 391 2643 752 
Q 2906 1113 2906 1747 
Q 2906 2381 2643 2742 
Q 2381 3103 1925 3103 
Q 1469 3103 1208 2742 
Q 947 2381 947 1747 
z
" id="DejaVuSans-64" transform="scale(0.015625)"/>
       <path d="M 2834 3397 
L 2834 2853 
Q 2591 2978 2328 3040 
Q 2066 3103 1784 3103 
Q 1356 3103 1142 2972 
Q 928 2841 928 2578 
Q 928 2378 1081 2264 
Q 1234 2150 1697 2047 
L 1894 2003 
Q 2506 1872 2764 1633 
Q 3022 1394 3022 966 
Q 3022 478 2636 193 
Q 2250 -91 1575 -91 
Q 1294 -91 989 -36 
Q 684 19 347 128 
L 347 722 
Q 666 556 975 473 
Q 1284 391 1588 391 
Q 1994 391 2212 530 
Q 2431 669 2431 922 
Q 2431 1156 2273 1281 
Q 2116 1406 1581 1522 
L 1381 1569 
Q 847 1681 609 1914 
Q 372 2147 372 2553 
Q 372 3047 722 3315 
Q 1072 3584 1716 3584 
Q 2034 3584 2315 3537 
Q 2597 3491 2834 3397 
z
" id="DejaVuSans-73" transform="scale(0.015625)"/>
      </defs>
      <use xlink:href="#DejaVuSans-47"/>
      <use x="77.490234" xlink:href="#DejaVuSans-6c"/>
      <use x="105.273438" xlink:href="#DejaVuSans-6f"/>
      <use x="166.455078" xlink:href="#DejaVuSans-62"/>
      <use x="229.931641" xlink:href="#DejaVuSans-61"/>
      <use x="291.210938" xlink:href="#DejaVuSans-6c"/>
      <use x="318.994141" xlink:href="#DejaVuSans-20"/>
      <use x="350.78125" xlink:href="#DejaVuSans-43"/>
      <use x="420.605469" xlink:href="#DejaVuSans-6f"/>
      <use x="481.787109" xlink:href="#DejaVuSans-6d"/>
      <use x="579.199219" xlink:href="#DejaVuSans-6d"/>
      <use x="676.611328" xlink:href="#DejaVuSans-75"/>
      <use x="739.990234" xlink:href="#DejaVuSans-6e"/>
      <use x="803.369141" xlink:href="#DejaVuSans-69"/>
      <use x="831.152344" xlink:href="#DejaVuSans-63"/>
      <use x="886.132812" xlink:href="#DejaVuSans-61"/>
      <use x="947.412109" xlink:href="#DejaVuSans-74"/>
      <use x="986.621094" xlink:href="#DejaVuSans-69"/>
      <use x="1014.404297" xlink:href="#DejaVuSans-6f"/>
      <use x="1075.585938" xlink:href="#DejaVuSans-6e"/>
      <use x="1138.964844" xlink:href="#DejaVuSans-20"/>
      <use x="1170.751953" xlink:href="#DejaVuSans-52"/>
      <use x="1235.734375" xlink:href="#DejaVuSans-6f"/>
      <use x="1296.916016" xlink:href="#DejaVuSans-75"/>
      <use x="1360.294922" xlink:href="#DejaVuSans-6e"/>
      <use x="1423.673828" xlink:href="#DejaVuSans-64"/>
      <use x="1487.150391" xlink:href="#DejaVuSans-73"/>
     </g>
    </g>
   </g>
   <g id="matplotlib.axis_2">
    <g id="ytick_1">
     <g id="line2d_7">
      <defs>
       <path d="M 0 0 
L -3.5 0 
" id="m732c446a40" style="stroke:#000000;stroke-width:0.8;"/>
      </defs>
      <g>
       <use style="stroke:#000000;stroke-width:0.8;" x="50.87" xlink:href="#m732c446a40" y="257.246484"/>
      </g>
     </g>
     <g id="text_8">
      <!-- 20 -->
      <g transform="translate(31.145 261.045702)scale(0.1 -0.1)">
       <use xlink:href="#DejaVuSans-32"/>
       <use x="63.623047" xlink:href="#DejaVuSans-30"/>
      </g>
     </g>
    </g>
    <g id="ytick_2">
     <g id="line2d_8">
      <g>
       <use style="stroke:#000000;stroke-width:0.8;" x="50.87" xlink:href="#m732c446a40" y="203.744282"/>
      </g>
     </g>
     <g id="text_9">
      <!-- 40 -->
      <g transform="translate(31.145 207.543501)scale(0.1 -0.1)">
       <use xlink:href="#DejaVuSans-34"/>
       <use x="63.623047" xlink:href="#DejaVuSans-30"/>
      </g>
     </g>
    </g>
    <g id="ytick_3">
     <g id="line2d_9">
      <g>
       <use style="stroke:#000000;stroke-width:0.8;" x="50.87" xlink:href="#m732c446a40" y="150.242081"/>
      </g>
     </g>
     <g id="text_10">
      <!-- 60 -->
      <g transform="translate(31.145 154.0413)scale(0.1 -0.1)">
       <defs>
        <path d="M 2113 2584 
Q 1688 2584 1439 2293 
Q 1191 2003 1191 1497 
Q 1191 994 1439 701 
Q 1688 409 2113 409 
Q 2538 409 2786 701 
Q 3034 994 3034 1497 
Q 3034 2003 2786 2293 
Q 2538 2584 2113 2584 
z
M 3366 4563 
L 3366 3988 
Q 3128 4100 2886 4159 
Q 2644 4219 2406 4219 
Q 1781 4219 1451 3797 
Q 1122 3375 1075 2522 
Q 1259 2794 1537 2939 
Q 1816 3084 2150 3084 
Q 2853 3084 3261 2657 
Q 3669 2231 3669 1497 
Q 3669 778 3244 343 
Q 2819 -91 2113 -91 
Q 1303 -91 875 529 
Q 447 1150 447 2328 
Q 447 3434 972 4092 
Q 1497 4750 2381 4750 
Q 2619 4750 2861 4703 
Q 3103 4656 3366 4563 
z
" id="DejaVuSans-36" transform="scale(0.015625)"/>
       </defs>
       <use xlink:href="#DejaVuSans-36"/>
       <use x="63.623047" xlink:href="#DejaVuSans-30"/>
      </g>
     </g>
    </g>
    <g id="ytick_4">
     <g id="line2d_10">
      <g>
       <use style="stroke:#000000;stroke-width:0.8;" x="50.87" xlink:href="#m732c446a40" y="96.73988"/>
      </g>
     </g>
     <g id="text_11">
      <!-- 80 -->
      <g transform="translate(31.145 100.539098)scale(0.1 -0.1)">
       <defs>
        <path d="M 2034 2216 
Q 1584 2216 1326 1975 
Q 1069 1734 1069 1313 
Q 1069 891 1326 650 
Q 1584 409 2034 409 
Q 2484 409 2743 651 
Q 3003 894 3003 1313 
Q 3003 1734 2745 1975 
Q 2488 2216 2034 2216 
z
M 1403 2484 
Q 997 2584 770 2862 
Q 544 3141 544 3541 
Q 544 4100 942 4425 
Q 1341 4750 2034 4750 
Q 2731 4750 3128 4425 
Q 3525 4100 3525 3541 
Q 3525 3141 3298 2862 
Q 3072 2584 2669 2484 
Q 3125 2378 3379 2068 
Q 3634 1759 3634 1313 
Q 3634 634 3220 271 
Q 2806 -91 2034 -91 
Q 1263 -91 848 271 
Q 434 634 434 1313 
Q 434 1759 690 2068 
Q 947 2378 1403 2484 
z
M 1172 3481 
Q 1172 3119 1398 2916 
Q 1625 2713 2034 2713 
Q 2441 2713 2670 2916 
Q 2900 3119 2900 3481 
Q 2900 3844 2670 4047 
Q 2441 4250 2034 4250 
Q 1625 4250 1398 4047 
Q 1172 3844 1172 3481 
z
" id="DejaVuSans-38" transform="scale(0.015625)"/>
       </defs>
       <use xlink:href="#DejaVuSans-38"/>
       <use x="63.623047" xlink:href="#DejaVuSans-30"/>
      </g>
     </g>
    </g>
    <g id="ytick_5">
     <g id="line2d_11">
      <g>
       <use style="stroke:#000000;stroke-width:0.8;" x="50.87" xlink:href="#m732c446a40" y="43.237678"/>
      </g>
     </g>
     <g id="text_12">
      <!-- 100 -->
      <g transform="translate(24.7825 47.036897)scale(0.1 -0.1)">
       <use xlink:href="#DejaVuSans-31"/>
       <use x="63.623047" xlink:href="#DejaVuSans-30"/>
       <use x="127.246094" xlink:href="#DejaVuSans-30"/>
      </g>
     </g>
    </g>
    <g id="text_13">
     <!-- Test Accuracy -->
     <g transform="translate(18.702813 202.520914)rotate(-90)scale(0.1 -0.1)">
      <defs>
       <path d="M -19 4666 
L 3928 4666 
L 3928 4134 
L 2272 4134 
L 2272 0 
L 1638 0 
L 1638 4134 
L -19 4134 
L -19 4666 
z
" id="DejaVuSans-54" transform="scale(0.015625)"/>
       <path d="M 3597 1894 
L 3597 1613 
L 953 1613 
Q 991 1019 1311 708 
Q 1631 397 2203 397 
Q 2534 397 2845 478 
Q 3156 559 3463 722 
L 3463 178 
Q 3153 47 2828 -22 
Q 2503 -91 2169 -91 
Q 1331 -91 842 396 
Q 353 884 353 1716 
Q 353 2575 817 3079 
Q 1281 3584 2069 3584 
Q 2775 3584 3186 3129 
Q 3597 2675 3597 1894 
z
M 3022 2063 
Q 3016 2534 2758 2815 
Q 2500 3097 2075 3097 
Q 1594 3097 1305 2825 
Q 1016 2553 972 2059 
L 3022 2063 
z
" id="DejaVuSans-65" transform="scale(0.015625)"/>
       <path d="M 2188 4044 
L 1331 1722 
L 3047 1722 
L 2188 4044 
z
M 1831 4666 
L 2547 4666 
L 4325 0 
L 3669 0 
L 3244 1197 
L 1141 1197 
L 716 0 
L 50 0 
L 1831 4666 
z
" id="DejaVuSans-41" transform="scale(0.015625)"/>
       <path d="M 2631 2963 
Q 2534 3019 2420 3045 
Q 2306 3072 2169 3072 
Q 1681 3072 1420 2755 
Q 1159 2438 1159 1844 
L 1159 0 
L 581 0 
L 581 3500 
L 1159 3500 
L 1159 2956 
Q 1341 3275 1631 3429 
Q 1922 3584 2338 3584 
Q 2397 3584 2469 3576 
Q 2541 3569 2628 3553 
L 2631 2963 
z
" id="DejaVuSans-72" transform="scale(0.015625)"/>
       <path d="M 2059 -325 
Q 1816 -950 1584 -1140 
Q 1353 -1331 966 -1331 
L 506 -1331 
L 506 -850 
L 844 -850 
Q 1081 -850 1212 -737 
Q 1344 -625 1503 -206 
L 1606 56 
L 191 3500 
L 800 3500 
L 1894 763 
L 2988 3500 
L 3597 3500 
L 2059 -325 
z
" id="DejaVuSans-79" transform="scale(0.015625)"/>
      </defs>
      <use xlink:href="#DejaVuSans-54"/>
      <use x="44.083984" xlink:href="#DejaVuSans-65"/>
      <use x="105.607422" xlink:href="#DejaVuSans-73"/>
      <use x="157.707031" xlink:href="#DejaVuSans-74"/>
      <use x="196.916016" xlink:href="#DejaVuSans-20"/>
      <use x="228.703125" xlink:href="#DejaVuSans-41"/>
      <use x="295.361328" xlink:href="#DejaVuSans-63"/>
      <use x="350.341797" xlink:href="#DejaVuSans-63"/>
      <use x="405.322266" xlink:href="#DejaVuSans-75"/>
      <use x="468.701172" xlink:href="#DejaVuSans-72"/>
      <use x="509.814453" xlink:href="#DejaVuSans-61"/>
      <use x="571.09375" xlink:href="#DejaVuSans-63"/>
      <use x="626.074219" xlink:href="#DejaVuSans-79"/>
     </g>
    </g>
   </g>
   <g id="line2d_12">
    <path clip-path="url(#p7bbd2999d8)" d="M 69.012273 252.234885 
L 76.417282 182.817472 
L 83.822291 150.37753 
L 91.227301 138.051706 
L 98.63231 108.591633 
L 106.037319 85.768542 
L 113.442328 87.055304 
L 120.847338 85.294472 
L 128.252347 74.932653 
L 135.657356 72.697751 
L 143.062365 70.666022 
L 150.467375 60.913722 
L 157.872384 57.527507 
L 165.277393 55.969848 
L 172.682403 58.949717 
L 180.087412 57.866128 
L 187.492421 53.599497 
L 194.89743 52.85453 
L 202.30244 57.595231 
L 209.707449 56.443918 
L 217.112458 54.886259 
L 224.517468 53.057703 
L 231.922477 50.958249 
L 239.327486 51.364595 
L 246.732495 49.603763 
L 254.137505 52.719081 
L 261.542514 50.822801 
L 268.947523 51.025973 
L 276.352532 49.40059 
L 283.757542 53.057703 
L 291.162551 49.671487 
L 298.56756 49.468314 
L 305.97257 49.332866 
L 313.377579 48.92652 
L 320.782588 48.45245 
L 328.187597 47.910655 
L 335.592607 48.384726 
L 342.997616 49.197417 
L 350.402625 48.181553 
L 357.807635 46.691618 
L 365.212644 47.233412 
L 372.617653 47.842931 
L 380.022662 47.368861 
L 387.427672 47.165688 
L 394.832681 47.233412 
L 402.23769 47.368861 
L 409.642699 46.691618 
L 417.047709 47.97838 
L 424.452718 46.691618 
L 431.857727 46.488445 
" style="fill:none;stroke:#1f77b4;stroke-linecap:square;stroke-width:1.5;"/>
   </g>
   <g id="line2d_13">
    <path clip-path="url(#p7bbd2999d8)" d="M 69.012273 279.730953 
L 76.417282 253.453922 
L 83.822291 211.329404 
L 91.227301 218.575905 
L 98.63231 236.793743 
L 106.037319 157.353133 
L 113.442328 181.192089 
L 120.847338 190.741216 
L 128.252347 163.245148 
L 135.657356 129.992514 
L 143.062365 157.14996 
L 150.467375 135.004112 
L 157.872384 114.957718 
L 165.277393 127.486714 
L 172.682403 136.494047 
L 180.087412 137.374463 
L 187.492421 114.551372 
L 194.89743 104.189553 
L 202.30244 107.508044 
L 209.707449 108.185287 
L 217.112458 102.970516 
L 224.517468 110.961984 
L 231.922477 102.835067 
L 239.327486 103.444586 
L 246.732495 97.010777 
L 254.137505 119.901592 
L 261.542514 105.205418 
L 268.947523 80.011976 
L 276.352532 98.365263 
L 283.757542 106.695353 
L 291.162551 124.303672 
L 298.56756 129.721616 
L 305.97257 120.578835 
L 313.377579 111.436054 
L 320.782588 120.104765 
L 328.187597 105.273142 
L 335.592607 102.699619 
L 342.997616 93.692286 
L 350.402625 83.127294 
L 357.807635 84.278607 
L 365.212644 82.517775 
L 372.617653 64.299937 
L 380.022662 76.625761 
L 387.427672 78.860663 
L 394.832681 93.489113 
L 402.23769 83.05957 
L 409.642699 83.398191 
L 417.047709 88.477514 
L 424.452718 73.645891 
L 431.857727 84.346332 
" style="fill:none;stroke:#ff7f0e;stroke-linecap:square;stroke-width:1.5;"/>
   </g>
   <g id="line2d_14">
    <path clip-path="url(#p7bbd2999d8)" d="M 69.012273 221.894396 
L 76.417282 217.221419 
L 83.822291 159.452586 
L 91.227301 112.587367 
L 98.63231 107.169423 
L 106.037319 84.075435 
L 113.442328 82.924121 
L 120.847338 79.944252 
L 128.252347 79.741079 
L 135.657356 66.128494 
L 143.062365 63.825867 
L 150.467375 64.299937 
L 157.872384 59.559236 
L 165.277393 55.698951 
L 172.682403 55.22488 
L 180.087412 57.121161 
L 187.492421 54.886259 
L 194.89743 57.798404 
L 202.30244 56.985712 
L 209.707449 54.818535 
L 217.112458 55.834399 
L 224.517468 54.953983 
L 231.922477 55.021707 
L 239.327486 53.3286 
L 246.732495 52.448184 
L 254.137505 53.464048 
L 261.542514 58.746544 
L 268.947523 53.125427 
L 276.352532 51.500044 
L 283.757542 52.312735 
L 291.162551 51.838665 
L 298.56756 51.974114 
L 305.97257 52.786805 
L 313.377579 51.567768 
L 320.782588 52.515908 
L 328.187597 52.515908 
L 335.592607 51.906389 
L 342.997616 52.041838 
L 350.402625 50.755076 
L 357.807635 50.551903 
L 365.212644 51.025973 
L 372.617653 51.364595 
L 380.022662 51.703216 
L 387.427672 51.838665 
L 394.832681 52.177287 
L 402.23769 51.635492 
L 409.642699 51.296871 
L 417.047709 50.755076 
L 424.452718 50.822801 
L 431.857727 50.213282 
" style="fill:none;stroke:#2ca02c;stroke-linecap:square;stroke-width:1.5;"/>
   </g>
   <g id="line2d_15">
    <path clip-path="url(#p7bbd2999d8)" d="M 69.012273 255.079644 
L 76.417282 232.667572 
L 83.822291 216.210295 
L 91.227301 204.990884 
L 98.63231 197.468474 
L 106.037319 193.455809 
L 113.442328 187.613369 
L 120.847338 181.920734 
L 128.252347 177.667309 
L 135.657356 173.954257 
L 143.062365 170.770876 
L 150.467375 168.031563 
L 157.872384 164.821431 
L 165.277393 161.819957 
L 172.682403 158.224609 
L 180.087412 154.902123 
L 187.492421 150.803854 
L 194.89743 146.721636 
L 202.30244 142.810625 
L 209.707449 139.140374 
L 217.112458 135.379169 
L 224.517468 132.693359 
L 231.922477 129.927295 
L 239.327486 127.808608 
L 246.732495 125.165599 
L 254.137505 122.699148 
L 261.542514 121.217137 
L 268.947523 119.312458 
L 276.352532 117.263324 
L 283.757542 115.080434 
L 291.162551 113.860584 
L 298.56756 112.694236 
L 305.97257 111.640243 
L 313.377579 109.938873 
L 320.782588 109.810467 
L 328.187597 108.756474 
L 335.592607 107.846937 
L 342.997616 106.873197 
L 350.402625 105.73895 
L 357.807635 105.102274 
L 365.212644 103.80752 
L 372.617653 102.748177 
L 380.022662 102.159653 
L 387.427672 101.624631 
L 394.832681 100.907701 
L 402.23769 99.928611 
L 409.642699 99.6611 
L 417.047709 99.270534 
L 424.452718 98.794364 
L 431.857727 98.339595 
" style="fill:none;stroke:#d62728;stroke-linecap:square;stroke-width:1.5;"/>
   </g>
   <g id="patch_3">
    <path d="M 50.87 303.64 
L 50.87 32.876829 
" style="fill:none;stroke:#000000;stroke-linecap:square;stroke-linejoin:miter;stroke-width:0.8;"/>
   </g>
   <g id="patch_4">
    <path d="M 450 303.64 
L 450 32.876829 
" style="fill:none;stroke:#000000;stroke-linecap:square;stroke-linejoin:miter;stroke-width:0.8;"/>
   </g>
   <g id="patch_5">
    <path d="M 50.87 303.64 
L 450 303.64 
" style="fill:none;stroke:#000000;stroke-linecap:square;stroke-linejoin:miter;stroke-width:0.8;"/>
   </g>
   <g id="patch_6">
    <path d="M 50.87 32.876829 
L 450 32.876829 
" style="fill:none;stroke:#000000;stroke-linecap:square;stroke-linejoin:miter;stroke-width:0.8;"/>
   </g>
   <g id="legend_1">
    <g id="patch_7">
     <path d="M 84.036563 28.478637 
L 416.833438 28.478637 
Q 418.833438 28.478637 418.833438 26.478637 
L 418.833438 12.800512 
Q 418.833438 10.800512 416.833438 10.800512 
L 84.036563 10.800512 
Q 82.036563 10.800512 82.036563 12.800512 
L 82.036563 26.478637 
Q 82.036563 28.478637 84.036563 28.478637 
z
" style="fill:#ffffff;opacity:0.8;stroke:#cccccc;stroke-linejoin:miter;"/>
    </g>
    <g id="line2d_16">
     <path d="M 86.036563 18.898949 
L 106.036563 18.898949 
" style="fill:none;stroke:#1f77b4;stroke-linecap:square;stroke-width:1.5;"/>
    </g>
    <g id="line2d_17"/>
    <g id="text_14">
     <!-- FedAvg -->
     <g transform="translate(114.036563 22.398949)scale(0.1 -0.1)">
      <defs>
       <path d="M 628 4666 
L 3309 4666 
L 3309 4134 
L 1259 4134 
L 1259 2759 
L 3109 2759 
L 3109 2228 
L 1259 2228 
L 1259 0 
L 628 0 
L 628 4666 
z
" id="DejaVuSans-46" transform="scale(0.015625)"/>
       <path d="M 191 3500 
L 800 3500 
L 1894 563 
L 2988 3500 
L 3597 3500 
L 2284 0 
L 1503 0 
L 191 3500 
z
" id="DejaVuSans-76" transform="scale(0.015625)"/>
       <path d="M 2906 1791 
Q 2906 2416 2648 2759 
Q 2391 3103 1925 3103 
Q 1463 3103 1205 2759 
Q 947 2416 947 1791 
Q 947 1169 1205 825 
Q 1463 481 1925 481 
Q 2391 481 2648 825 
Q 2906 1169 2906 1791 
z
M 3481 434 
Q 3481 -459 3084 -895 
Q 2688 -1331 1869 -1331 
Q 1566 -1331 1297 -1286 
Q 1028 -1241 775 -1147 
L 775 -588 
Q 1028 -725 1275 -790 
Q 1522 -856 1778 -856 
Q 2344 -856 2625 -561 
Q 2906 -266 2906 331 
L 2906 616 
Q 2728 306 2450 153 
Q 2172 0 1784 0 
Q 1141 0 747 490 
Q 353 981 353 1791 
Q 353 2603 747 3093 
Q 1141 3584 1784 3584 
Q 2172 3584 2450 3431 
Q 2728 3278 2906 2969 
L 2906 3500 
L 3481 3500 
L 3481 434 
z
" id="DejaVuSans-67" transform="scale(0.015625)"/>
      </defs>
      <use xlink:href="#DejaVuSans-46"/>
      <use x="52.019531" xlink:href="#DejaVuSans-65"/>
      <use x="113.542969" xlink:href="#DejaVuSans-64"/>
      <use x="177.019531" xlink:href="#DejaVuSans-41"/>
      <use x="239.552734" xlink:href="#DejaVuSans-76"/>
      <use x="298.732422" xlink:href="#DejaVuSans-67"/>
     </g>
    </g>
    <g id="line2d_18">
     <path d="M 170.26 18.898949 
L 190.26 18.898949 
" style="fill:none;stroke:#ff7f0e;stroke-linecap:square;stroke-width:1.5;"/>
    </g>
    <g id="line2d_19"/>
    <g id="text_15">
     <!-- FedMed -->
     <g transform="translate(198.26 22.398949)scale(0.1 -0.1)">
      <defs>
       <path d="M 628 4666 
L 1569 4666 
L 2759 1491 
L 3956 4666 
L 4897 4666 
L 4897 0 
L 4281 0 
L 4281 4097 
L 3078 897 
L 2444 897 
L 1241 4097 
L 1241 0 
L 628 0 
L 628 4666 
z
" id="DejaVuSans-4d" transform="scale(0.015625)"/>
      </defs>
      <use xlink:href="#DejaVuSans-46"/>
      <use x="52.019531" xlink:href="#DejaVuSans-65"/>
      <use x="113.542969" xlink:href="#DejaVuSans-64"/>
      <use x="177.019531" xlink:href="#DejaVuSans-4d"/>
      <use x="263.298828" xlink:href="#DejaVuSans-65"/>
      <use x="324.822266" xlink:href="#DejaVuSans-64"/>
     </g>
    </g>
    <g id="line2d_20">
     <path d="M 257.092813 18.898949 
L 277.092813 18.898949 
" style="fill:none;stroke:#2ca02c;stroke-linecap:square;stroke-width:1.5;"/>
    </g>
    <g id="line2d_21"/>
    <g id="text_16">
     <!-- FedProx -->
     <g transform="translate(285.092813 22.398949)scale(0.1 -0.1)">
      <defs>
       <path d="M 1259 4147 
L 1259 2394 
L 2053 2394 
Q 2494 2394 2734 2622 
Q 2975 2850 2975 3272 
Q 2975 3691 2734 3919 
Q 2494 4147 2053 4147 
L 1259 4147 
z
M 628 4666 
L 2053 4666 
Q 2838 4666 3239 4311 
Q 3641 3956 3641 3272 
Q 3641 2581 3239 2228 
Q 2838 1875 2053 1875 
L 1259 1875 
L 1259 0 
L 628 0 
L 628 4666 
z
" id="DejaVuSans-50" transform="scale(0.015625)"/>
       <path d="M 3513 3500 
L 2247 1797 
L 3578 0 
L 2900 0 
L 1881 1375 
L 863 0 
L 184 0 
L 1544 1831 
L 300 3500 
L 978 3500 
L 1906 2253 
L 2834 3500 
L 3513 3500 
z
" id="DejaVuSans-78" transform="scale(0.015625)"/>
      </defs>
      <use xlink:href="#DejaVuSans-46"/>
      <use x="52.019531" xlink:href="#DejaVuSans-65"/>
      <use x="113.542969" xlink:href="#DejaVuSans-64"/>
      <use x="177.019531" xlink:href="#DejaVuSans-50"/>
      <use x="235.572266" xlink:href="#DejaVuSans-72"/>
      <use x="274.435547" xlink:href="#DejaVuSans-6f"/>
      <use x="332.492188" xlink:href="#DejaVuSans-78"/>
     </g>
    </g>
    <g id="line2d_22">
     <path d="M 344.261563 18.898949 
L 364.261563 18.898949 
" style="fill:none;stroke:#d62728;stroke-linecap:square;stroke-width:1.5;"/>
    </g>
    <g id="line2d_23"/>
    <g id="text_17">
     <!-- qFedAvg -->
     <g transform="translate(372.261563 22.398949)scale(0.1 -0.1)">
      <defs>
       <path d="M 947 1747 
Q 947 1113 1208 752 
Q 1469 391 1925 391 
Q 2381 391 2643 752 
Q 2906 1113 2906 1747 
Q 2906 2381 2643 2742 
Q 2381 3103 1925 3103 
Q 1469 3103 1208 2742 
Q 947 2381 947 1747 
z
M 2906 525 
Q 2725 213 2448 61 
Q 2172 -91 1784 -91 
Q 1150 -91 751 415 
Q 353 922 353 1747 
Q 353 2572 751 3078 
Q 1150 3584 1784 3584 
Q 2172 3584 2448 3432 
Q 2725 3281 2906 2969 
L 2906 3500 
L 3481 3500 
L 3481 -1331 
L 2906 -1331 
L 2906 525 
z
" id="DejaVuSans-71" transform="scale(0.015625)"/>
      </defs>
      <use xlink:href="#DejaVuSans-71"/>
      <use x="63.476562" xlink:href="#DejaVuSans-46"/>
      <use x="115.496094" xlink:href="#DejaVuSans-65"/>
      <use x="177.019531" xlink:href="#DejaVuSans-64"/>
      <use x="240.496094" xlink:href="#DejaVuSans-41"/>
      <use x="303.029297" xlink:href="#DejaVuSans-76"/>
      <use x="362.208984" xlink:href="#DejaVuSans-67"/>
     </g>
    </g>
   </g>
  </g>
 </g>
 <defs>
  <clipPath id="p7bbd2999d8">
   <rect height="270.763171" width="399.13" x="50.87" y="32.876829"/>
  </clipPath>
 </defs>
</svg>
