<?xml version="1.0" encoding="utf-8" standalone="no"?>
<!DOCTYPE svg PUBLIC "-//W3C//DTD SVG 1.1//EN"
  "http://www.w3.org/Graphics/SVG/1.1/DTD/svg11.dtd">
<svg height="345.6pt" version="1.1" viewBox="0 0 460.8 345.6" width="460.8pt" xmlns="http://www.w3.org/2000/svg" xmlns:xlink="http://www.w3.org/1999/xlink">
 <metadata>
  <rdf:RDF xmlns:cc="http://creativecommons.org/ns#" xmlns:dc="http://purl.org/dc/elements/1.1/" xmlns:rdf="http://www.w3.org/1999/02/22-rdf-syntax-ns#">
   <cc:Work>
    <dc:type rdf:resource="http://purl.org/dc/dcmitype/StillImage"/>
    <dc:date>2021-04-27T22:08:07.924649</dc:date>
    <dc:format>image/svg+xml</dc:format>
    <dc:creator>
     <cc:Agent>
      <dc:title>Matplotlib v3.4.1, https://matplotlib.org/</dc:title>
     </cc:Agent>
    </dc:creator>
   </cc:Work>
  </rdf:RDF>
 </metadata>
 <defs>
  <style type="text/css">*{stroke-linecap:butt;stroke-linejoin:round;}</style>
 </defs>
 <g id="figure_1">
  <g id="patch_1">
   <path d="M 0 345.6 
L 460.8 345.6 
L 460.8 0 
L 0 0 
z
" style="fill:#ffffff;"/>
  </g>
  <g id="axes_1">
   <g id="patch_2">
    <path d="M 50.87 303.64 
L 366.25 303.64 
L 366.25 26.88 
L 50.87 26.88 
z
" style="fill:#ffffff;"/>
   </g>
   <g id="PolyCollection_1">
    <path clip-path="url(#pfd82ba579e)" d="M 65.205455 239.684131 
L 65.205455 266.727864 
L 71.05666 254.470818 
L 76.907866 195.846838 
L 82.759072 165.021115 
L 88.610278 126.032052 
L 94.461484 98.516363 
L 100.31269 100.633066 
L 106.163896 117.124462 
L 112.015102 102.025778 
L 117.866308 93.597104 
L 123.717514 88.798639 
L 129.56872 69.864201 
L 135.419926 71.965986 
L 141.271132 70.282065 
L 147.122338 64.659095 
L 152.973544 82.03029 
L 158.82475 61.775436 
L 164.675955 56.394279 
L 170.527161 69.820119 
L 176.378367 66.21931 
L 182.229573 66.516312 
L 188.080779 71.596047 
L 193.931985 54.872134 
L 199.783191 60.861661 
L 205.634397 49.14802 
L 211.485603 55.954809 
L 217.336809 50.762124 
L 223.188015 54.299167 
L 229.039221 54.419952 
L 234.890427 65.114891 
L 240.741633 48.990437 
L 246.592839 49.060182 
L 252.444045 51.135858 
L 258.29525 49.315893 
L 264.146456 48.369649 
L 269.997662 45.952906 
L 275.848868 49.403044 
L 281.700074 52.525917 
L 287.55128 48.385317 
L 293.402486 44.603827 
L 299.253692 46.825724 
L 305.104898 48.553751 
L 310.956104 45.763974 
L 316.80731 51.914698 
L 322.658516 44.858341 
L 328.509722 44.677299 
L 334.360928 44.077101 
L 340.212134 49.072228 
L 346.06334 45.034779 
L 351.914545 45.412913 
L 351.914545 41.162487 
L 351.914545 41.162487 
L 346.06334 41.820886 
L 340.212134 42.127541 
L 334.360928 42.218035 
L 328.509722 41.757968 
L 322.658516 41.296662 
L 316.80731 40.265997 
L 310.956104 41.231823 
L 305.104898 42.78615 
L 299.253692 42.972721 
L 293.402486 42.672235 
L 287.55128 41.272995 
L 281.700074 41.336367 
L 275.848868 43.618445 
L 269.997662 44.125803 
L 264.146456 44.371576 
L 258.29525 45.387185 
L 252.444045 44.548146 
L 246.592839 45.222499 
L 240.741633 46.27317 
L 234.890427 40.938909 
L 229.039221 41.964714 
L 223.188015 43.206559 
L 217.336809 44.501484 
L 211.485603 47.716741 
L 205.634397 46.25572 
L 199.783191 47.294125 
L 193.931985 47.958621 
L 188.080779 41.043975 
L 182.229573 43.74146 
L 176.378367 45.299653 
L 170.527161 46.883741 
L 164.675955 49.379257 
L 158.82475 46.660615 
L 152.973544 45.323631 
L 147.122338 56.529002 
L 141.271132 48.944179 
L 135.419926 54.126744 
L 129.56872 56.088397 
L 123.717514 55.931697 
L 117.866308 51.833894 
L 112.015102 61.622428 
L 106.163896 65.021218 
L 100.31269 79.690893 
L 94.461484 83.629317 
L 88.610278 83.579574 
L 82.759072 136.517349 
L 76.907866 163.286032 
L 71.05666 184.117108 
L 65.205455 239.684131 
z
" style="fill:#1f77b4;fill-opacity:0.5;"/>
   </g>
   <g id="PolyCollection_2">
    <path clip-path="url(#pfd82ba579e)" d="M 65.205455 271.68521 
L 65.205455 291.06 
L 71.05666 290.250223 
L 76.907866 251.485331 
L 82.759072 259.248853 
L 88.610278 263.423136 
L 94.461484 187.492787 
L 100.31269 203.076851 
L 106.163896 236.654977 
L 112.015102 220.745204 
L 117.866308 191.585498 
L 123.717514 187.915855 
L 129.56872 156.312403 
L 135.419926 130.195973 
L 141.271132 152.784348 
L 147.122338 183.73261 
L 152.973544 186.803319 
L 158.82475 169.040489 
L 164.675955 124.494411 
L 170.527161 135.497554 
L 176.378367 140.621256 
L 182.229573 134.830591 
L 188.080779 135.934969 
L 193.931985 130.331393 
L 199.783191 119.246721 
L 205.634397 137.783038 
L 211.485603 144.148407 
L 217.336809 155.653093 
L 223.188015 93.812724 
L 229.039221 123.375651 
L 234.890427 157.633834 
L 240.741633 191.304546 
L 246.592839 161.836954 
L 252.444045 150.174904 
L 258.29525 122.512916 
L 264.146456 121.04128 
L 269.997662 132.645861 
L 275.848868 145.900226 
L 281.700074 116.251936 
L 287.55128 95.751868 
L 293.402486 112.296356 
L 299.253692 118.471397 
L 305.104898 82.82147 
L 310.956104 101.722773 
L 316.80731 109.25243 
L 322.658516 119.925795 
L 328.509722 100.176793 
L 334.360928 94.405385 
L 340.212134 105.714125 
L 346.06334 95.904343 
L 351.914545 124.206906 
L 351.914545 65.225657 
L 351.914545 65.225657 
L 346.06334 59.055656 
L 340.212134 74.890099 
L 334.360928 81.294206 
L 328.509722 84.351138 
L 322.658516 80.156829 
L 316.80731 67.00769 
L 310.956104 63.186625 
L 305.104898 64.291116 
L 299.253692 72.642754 
L 293.402486 62.001911 
L 287.55128 77.285207 
L 281.700074 77.664864 
L 275.848868 65.392988 
L 269.997662 67.156498 
L 264.146456 91.933522 
L 258.29525 90.04149 
L 252.444045 71.628239 
L 246.592839 68.514263 
L 240.741633 41.569054 
L 234.890427 56.041631 
L 229.039221 69.980619 
L 223.188015 60.86701 
L 217.336809 54.519062 
L 211.485603 101.337106 
L 205.634397 67.904881 
L 199.783191 75.37074 
L 193.931985 80.961821 
L 188.080779 97.919558 
L 182.229573 80.246197 
L 176.378367 79.780562 
L 170.527161 81.961484 
L 164.675955 74.607286 
L 158.82475 70.979862 
L 152.973544 93.575155 
L 147.122338 101.550498 
L 141.271132 111.899301 
L 135.419926 104.499348 
L 129.56872 108.090981 
L 123.717514 113.482476 
L 117.866308 76.181063 
L 112.015102 104.055233 
L 106.163896 141.676028 
L 100.31269 154.514563 
L 94.461484 145.435328 
L 88.610278 224.631518 
L 82.759072 188.868074 
L 76.907866 188.083522 
L 71.05666 241.3856 
L 65.205455 271.68521 
z
" style="fill:#ff7f0e;fill-opacity:0.5;"/>
   </g>
   <g id="PolyCollection_3">
    <path clip-path="url(#pfd82ba579e)" d="M 65.205455 219.524395 
L 65.205455 263.905891 
L 71.05666 215.276819 
L 76.907866 165.987089 
L 82.759072 134.816889 
L 88.610278 114.988234 
L 94.461484 96.706517 
L 100.31269 100.832798 
L 106.163896 93.485419 
L 112.015102 82.365015 
L 117.866308 64.122478 
L 123.717514 60.204912 
L 129.56872 66.588036 
L 135.419926 67.537605 
L 141.271132 66.284836 
L 147.122338 64.355935 
L 152.973544 56.665603 
L 158.82475 57.384271 
L 164.675955 53.777835 
L 170.527161 56.870612 
L 176.378367 56.097754 
L 182.229573 50.724863 
L 188.080779 50.405812 
L 193.931985 51.846862 
L 199.783191 50.9418 
L 205.634397 51.648344 
L 211.485603 48.20296 
L 217.336809 49.108444 
L 223.188015 49.313392 
L 229.039221 48.711981 
L 234.890427 47.009526 
L 240.741633 48.301736 
L 246.592839 45.570165 
L 252.444045 47.615824 
L 258.29525 48.528101 
L 264.146456 47.552323 
L 269.997662 51.210484 
L 275.848868 50.370113 
L 281.700074 47.253257 
L 287.55128 45.901679 
L 293.402486 45.246631 
L 299.253692 45.732996 
L 305.104898 45.582276 
L 310.956104 46.586113 
L 316.80731 46.683484 
L 322.658516 46.067696 
L 328.509722 47.689581 
L 334.360928 45.330463 
L 340.212134 47.493131 
L 346.06334 44.73315 
L 351.914545 44.854995 
L 351.914545 40.459214 
L 351.914545 40.459214 
L 346.06334 39.46 
L 340.212134 40.763858 
L 334.360928 41.244937 
L 328.509722 42.108863 
L 322.658516 42.189293 
L 316.80731 42.134035 
L 310.956104 41.951141 
L 305.104898 42.254316 
L 299.253692 42.243728 
L 293.402486 41.889298 
L 287.55128 42.91584 
L 281.700074 43.105717 
L 275.848868 42.651376 
L 269.997662 41.951138 
L 264.146456 41.825725 
L 258.29525 42.8118 
L 252.444045 43.023415 
L 246.592839 43.948015 
L 240.741633 44.019092 
L 234.890427 44.05011 
L 229.039221 45.150302 
L 223.188015 46.23048 
L 217.336809 43.492649 
L 211.485603 44.958661 
L 205.634397 45.15672 
L 199.783191 46.563925 
L 193.931985 46.079261 
L 188.080779 47.52031 
L 182.229573 46.360465 
L 176.378367 47.153399 
L 170.527161 49.463453 
L 164.675955 49.333186 
L 158.82475 49.230059 
L 152.973544 51.490183 
L 147.122338 51.927529 
L 141.271132 53.221672 
L 135.419926 50.707712 
L 129.56872 58.10337 
L 123.717514 54.677228 
L 117.866308 56.084692 
L 112.015102 58.862012 
L 106.163896 66.098949 
L 100.31269 69.121365 
L 94.461484 90.624061 
L 88.610278 92.381273 
L 82.759072 112.350213 
L 76.907866 137.232963 
L 71.05666 181.691792 
L 65.205455 219.524395 
z
" style="fill:#2ca02c;fill-opacity:0.5;"/>
   </g>
   <g id="PolyCollection_4">
    <path clip-path="url(#pfd82ba579e)" d="M 65.205455 199.125341 
L 65.205455 266.137763 
L 71.05666 234.099084 
L 76.907866 205.121064 
L 82.759072 187.282342 
L 88.610278 171.778362 
L 94.461484 143.537097 
L 100.31269 133.241077 
L 106.163896 123.254481 
L 112.015102 113.760971 
L 117.866308 109.968504 
L 123.717514 105.730706 
L 129.56872 103.029631 
L 135.419926 99.80206 
L 141.271132 98.336275 
L 147.122338 97.78507 
L 152.973544 96.278921 
L 158.82475 96.164313 
L 164.675955 96.293314 
L 170.527161 93.998883 
L 176.378367 93.682362 
L 182.229573 93.453154 
L 188.080779 92.768737 
L 193.931985 92.731344 
L 199.783191 92.788751 
L 205.634397 90.919659 
L 211.485603 91.7203 
L 217.336809 91.08809 
L 223.188015 90.89629 
L 229.039221 90.136088 
L 234.890427 90.269481 
L 240.741633 90.34926 
L 246.592839 89.608993 
L 252.444045 90.16712 
L 258.29525 89.734653 
L 264.146456 89.924642 
L 269.997662 89.226531 
L 275.848868 89.120849 
L 281.700074 89.257378 
L 287.55128 88.76972 
L 293.402486 88.60548 
L 299.253692 88.792082 
L 305.104898 88.767594 
L 310.956104 88.390104 
L 316.80731 88.735054 
L 322.658516 88.032499 
L 328.509722 88.594729 
L 334.360928 88.306787 
L 340.212134 87.947898 
L 346.06334 88.141388 
L 351.914545 88.023808 
L 351.914545 70.83117 
L 351.914545 70.83117 
L 346.06334 71.222831 
L 340.212134 70.574967 
L 334.360928 70.703178 
L 328.509722 72.607187 
L 322.658516 71.398143 
L 316.80731 71.536943 
L 310.956104 71.217665 
L 305.104898 71.316205 
L 299.253692 71.878452 
L 293.402486 72.120405 
L 287.55128 72.29935 
L 281.700074 72.520201 
L 275.848868 72.546026 
L 269.997662 72.274287 
L 264.146456 72.38432 
L 258.29525 73.216395 
L 252.444045 73.691705 
L 246.592839 73.419548 
L 240.741633 73.465284 
L 234.890427 74.198219 
L 229.039221 74.26519 
L 223.188015 75.209838 
L 217.336809 75.139813 
L 211.485603 75.957834 
L 205.634397 75.607147 
L 199.783191 76.073921 
L 193.931985 76.441302 
L 188.080779 77.333827 
L 182.229573 77.756455 
L 176.378367 77.482965 
L 170.527161 79.823354 
L 164.675955 80.495806 
L 158.82475 82.340728 
L 152.973544 83.089615 
L 147.122338 84.594631 
L 141.271132 85.914333 
L 135.419926 88.887802 
L 129.56872 90.564443 
L 123.717514 90.940956 
L 117.866308 95.670229 
L 112.015102 101.365143 
L 106.163896 106.639624 
L 100.31269 111.885978 
L 94.461484 119.30269 
L 88.610278 131.977836 
L 82.759072 150.537654 
L 76.907866 173.250019 
L 71.05666 176.487031 
L 65.205455 199.125341 
z
" style="fill:#d62728;fill-opacity:0.5;"/>
   </g>
   <g id="matplotlib.axis_1">
    <g id="xtick_1">
     <g id="line2d_1">
      <path clip-path="url(#pfd82ba579e)" d="M 65.205455 303.64 
L 65.205455 26.88 
" style="fill:none;stroke:#b0b0b0;stroke-linecap:square;stroke-width:0.8;"/>
     </g>
     <g id="line2d_2">
      <defs>
       <path d="M 0 0 
L 0 3.5 
" id="me5d6e0319c" style="stroke:#000000;stroke-width:0.8;"/>
      </defs>
      <g>
       <use style="stroke:#000000;stroke-width:0.8;" x="65.205455" xlink:href="#me5d6e0319c" y="303.64"/>
      </g>
     </g>
     <g id="text_1">
      <!-- 0 -->
      <g transform="translate(62.024205 318.238437)scale(0.1 -0.1)">
       <defs>
        <path d="M 2034 4250 
Q 1547 4250 1301 3770 
Q 1056 3291 1056 2328 
Q 1056 1369 1301 889 
Q 1547 409 2034 409 
Q 2525 409 2770 889 
Q 3016 1369 3016 2328 
Q 3016 3291 2770 3770 
Q 2525 4250 2034 4250 
z
M 2034 4750 
Q 2819 4750 3233 4129 
Q 3647 3509 3647 2328 
Q 3647 1150 3233 529 
Q 2819 -91 2034 -91 
Q 1250 -91 836 529 
Q 422 1150 422 2328 
Q 422 3509 836 4129 
Q 1250 4750 2034 4750 
z
" id="DejaVuSans-30" transform="scale(0.015625)"/>
       </defs>
       <use xlink:href="#DejaVuSans-30"/>
      </g>
     </g>
    </g>
    <g id="xtick_2">
     <g id="line2d_3">
      <path clip-path="url(#pfd82ba579e)" d="M 123.717514 303.64 
L 123.717514 26.88 
" style="fill:none;stroke:#b0b0b0;stroke-linecap:square;stroke-width:0.8;"/>
     </g>
     <g id="line2d_4">
      <g>
       <use style="stroke:#000000;stroke-width:0.8;" x="123.717514" xlink:href="#me5d6e0319c" y="303.64"/>
      </g>
     </g>
     <g id="text_2">
      <!-- 10 -->
      <g transform="translate(117.355014 318.238437)scale(0.1 -0.1)">
       <defs>
        <path d="M 794 531 
L 1825 531 
L 1825 4091 
L 703 3866 
L 703 4441 
L 1819 4666 
L 2450 4666 
L 2450 531 
L 3481 531 
L 3481 0 
L 794 0 
L 794 531 
z
" id="DejaVuSans-31" transform="scale(0.015625)"/>
       </defs>
       <use xlink:href="#DejaVuSans-31"/>
       <use x="63.623047" xlink:href="#DejaVuSans-30"/>
      </g>
     </g>
    </g>
    <g id="xtick_3">
     <g id="line2d_5">
      <path clip-path="url(#pfd82ba579e)" d="M 182.229573 303.64 
L 182.229573 26.88 
" style="fill:none;stroke:#b0b0b0;stroke-linecap:square;stroke-width:0.8;"/>
     </g>
     <g id="line2d_6">
      <g>
       <use style="stroke:#000000;stroke-width:0.8;" x="182.229573" xlink:href="#me5d6e0319c" y="303.64"/>
      </g>
     </g>
     <g id="text_3">
      <!-- 20 -->
      <g transform="translate(175.867073 318.238437)scale(0.1 -0.1)">
       <defs>
        <path d="M 1228 531 
L 3431 531 
L 3431 0 
L 469 0 
L 469 531 
Q 828 903 1448 1529 
Q 2069 2156 2228 2338 
Q 2531 2678 2651 2914 
Q 2772 3150 2772 3378 
Q 2772 3750 2511 3984 
Q 2250 4219 1831 4219 
Q 1534 4219 1204 4116 
Q 875 4013 500 3803 
L 500 4441 
Q 881 4594 1212 4672 
Q 1544 4750 1819 4750 
Q 2544 4750 2975 4387 
Q 3406 4025 3406 3419 
Q 3406 3131 3298 2873 
Q 3191 2616 2906 2266 
Q 2828 2175 2409 1742 
Q 1991 1309 1228 531 
z
" id="DejaVuSans-32" transform="scale(0.015625)"/>
       </defs>
       <use xlink:href="#DejaVuSans-32"/>
       <use x="63.623047" xlink:href="#DejaVuSans-30"/>
      </g>
     </g>
    </g>
    <g id="xtick_4">
     <g id="line2d_7">
      <path clip-path="url(#pfd82ba579e)" d="M 240.741633 303.64 
L 240.741633 26.88 
" style="fill:none;stroke:#b0b0b0;stroke-linecap:square;stroke-width:0.8;"/>
     </g>
     <g id="line2d_8">
      <g>
       <use style="stroke:#000000;stroke-width:0.8;" x="240.741633" xlink:href="#me5d6e0319c" y="303.64"/>
      </g>
     </g>
     <g id="text_4">
      <!-- 30 -->
      <g transform="translate(234.379133 318.238437)scale(0.1 -0.1)">
       <defs>
        <path d="M 2597 2516 
Q 3050 2419 3304 2112 
Q 3559 1806 3559 1356 
Q 3559 666 3084 287 
Q 2609 -91 1734 -91 
Q 1441 -91 1130 -33 
Q 819 25 488 141 
L 488 750 
Q 750 597 1062 519 
Q 1375 441 1716 441 
Q 2309 441 2620 675 
Q 2931 909 2931 1356 
Q 2931 1769 2642 2001 
Q 2353 2234 1838 2234 
L 1294 2234 
L 1294 2753 
L 1863 2753 
Q 2328 2753 2575 2939 
Q 2822 3125 2822 3475 
Q 2822 3834 2567 4026 
Q 2313 4219 1838 4219 
Q 1578 4219 1281 4162 
Q 984 4106 628 3988 
L 628 4550 
Q 988 4650 1302 4700 
Q 1616 4750 1894 4750 
Q 2613 4750 3031 4423 
Q 3450 4097 3450 3541 
Q 3450 3153 3228 2886 
Q 3006 2619 2597 2516 
z
" id="DejaVuSans-33" transform="scale(0.015625)"/>
       </defs>
       <use xlink:href="#DejaVuSans-33"/>
       <use x="63.623047" xlink:href="#DejaVuSans-30"/>
      </g>
     </g>
    </g>
    <g id="xtick_5">
     <g id="line2d_9">
      <path clip-path="url(#pfd82ba579e)" d="M 299.253692 303.64 
L 299.253692 26.88 
" style="fill:none;stroke:#b0b0b0;stroke-linecap:square;stroke-width:0.8;"/>
     </g>
     <g id="line2d_10">
      <g>
       <use style="stroke:#000000;stroke-width:0.8;" x="299.253692" xlink:href="#me5d6e0319c" y="303.64"/>
      </g>
     </g>
     <g id="text_5">
      <!-- 40 -->
      <g transform="translate(292.891192 318.238437)scale(0.1 -0.1)">
       <defs>
        <path d="M 2419 4116 
L 825 1625 
L 2419 1625 
L 2419 4116 
z
M 2253 4666 
L 3047 4666 
L 3047 1625 
L 3713 1625 
L 3713 1100 
L 3047 1100 
L 3047 0 
L 2419 0 
L 2419 1100 
L 313 1100 
L 313 1709 
L 2253 4666 
z
" id="DejaVuSans-34" transform="scale(0.015625)"/>
       </defs>
       <use xlink:href="#DejaVuSans-34"/>
       <use x="63.623047" xlink:href="#DejaVuSans-30"/>
      </g>
     </g>
    </g>
    <g id="xtick_6">
     <g id="line2d_11">
      <path clip-path="url(#pfd82ba579e)" d="M 357.765751 303.64 
L 357.765751 26.88 
" style="fill:none;stroke:#b0b0b0;stroke-linecap:square;stroke-width:0.8;"/>
     </g>
     <g id="line2d_12">
      <g>
       <use style="stroke:#000000;stroke-width:0.8;" x="357.765751" xlink:href="#me5d6e0319c" y="303.64"/>
      </g>
     </g>
     <g id="text_6">
      <!-- 50 -->
      <g transform="translate(351.403251 318.238437)scale(0.1 -0.1)">
       <defs>
        <path d="M 691 4666 
L 3169 4666 
L 3169 4134 
L 1269 4134 
L 1269 2991 
Q 1406 3038 1543 3061 
Q 1681 3084 1819 3084 
Q 2600 3084 3056 2656 
Q 3513 2228 3513 1497 
Q 3513 744 3044 326 
Q 2575 -91 1722 -91 
Q 1428 -91 1123 -41 
Q 819 9 494 109 
L 494 744 
Q 775 591 1075 516 
Q 1375 441 1709 441 
Q 2250 441 2565 725 
Q 2881 1009 2881 1497 
Q 2881 1984 2565 2268 
Q 2250 2553 1709 2553 
Q 1456 2553 1204 2497 
Q 953 2441 691 2322 
L 691 4666 
z
" id="DejaVuSans-35" transform="scale(0.015625)"/>
       </defs>
       <use xlink:href="#DejaVuSans-35"/>
       <use x="63.623047" xlink:href="#DejaVuSans-30"/>
      </g>
     </g>
    </g>
    <g id="text_7">
     <!-- Global Communication Rounds -->
     <g transform="translate(131.598281 331.916562)scale(0.1 -0.1)">
      <defs>
       <path d="M 3809 666 
L 3809 1919 
L 2778 1919 
L 2778 2438 
L 4434 2438 
L 4434 434 
Q 4069 175 3628 42 
Q 3188 -91 2688 -91 
Q 1594 -91 976 548 
Q 359 1188 359 2328 
Q 359 3472 976 4111 
Q 1594 4750 2688 4750 
Q 3144 4750 3555 4637 
Q 3966 4525 4313 4306 
L 4313 3634 
Q 3963 3931 3569 4081 
Q 3175 4231 2741 4231 
Q 1884 4231 1454 3753 
Q 1025 3275 1025 2328 
Q 1025 1384 1454 906 
Q 1884 428 2741 428 
Q 3075 428 3337 486 
Q 3600 544 3809 666 
z
" id="DejaVuSans-47" transform="scale(0.015625)"/>
       <path d="M 603 4863 
L 1178 4863 
L 1178 0 
L 603 0 
L 603 4863 
z
" id="DejaVuSans-6c" transform="scale(0.015625)"/>
       <path d="M 1959 3097 
Q 1497 3097 1228 2736 
Q 959 2375 959 1747 
Q 959 1119 1226 758 
Q 1494 397 1959 397 
Q 2419 397 2687 759 
Q 2956 1122 2956 1747 
Q 2956 2369 2687 2733 
Q 2419 3097 1959 3097 
z
M 1959 3584 
Q 2709 3584 3137 3096 
Q 3566 2609 3566 1747 
Q 3566 888 3137 398 
Q 2709 -91 1959 -91 
Q 1206 -91 779 398 
Q 353 888 353 1747 
Q 353 2609 779 3096 
Q 1206 3584 1959 3584 
z
" id="DejaVuSans-6f" transform="scale(0.015625)"/>
       <path d="M 3116 1747 
Q 3116 2381 2855 2742 
Q 2594 3103 2138 3103 
Q 1681 3103 1420 2742 
Q 1159 2381 1159 1747 
Q 1159 1113 1420 752 
Q 1681 391 2138 391 
Q 2594 391 2855 752 
Q 3116 1113 3116 1747 
z
M 1159 2969 
Q 1341 3281 1617 3432 
Q 1894 3584 2278 3584 
Q 2916 3584 3314 3078 
Q 3713 2572 3713 1747 
Q 3713 922 3314 415 
Q 2916 -91 2278 -91 
Q 1894 -91 1617 61 
Q 1341 213 1159 525 
L 1159 0 
L 581 0 
L 581 4863 
L 1159 4863 
L 1159 2969 
z
" id="DejaVuSans-62" transform="scale(0.015625)"/>
       <path d="M 2194 1759 
Q 1497 1759 1228 1600 
Q 959 1441 959 1056 
Q 959 750 1161 570 
Q 1363 391 1709 391 
Q 2188 391 2477 730 
Q 2766 1069 2766 1631 
L 2766 1759 
L 2194 1759 
z
M 3341 1997 
L 3341 0 
L 2766 0 
L 2766 531 
Q 2569 213 2275 61 
Q 1981 -91 1556 -91 
Q 1019 -91 701 211 
Q 384 513 384 1019 
Q 384 1609 779 1909 
Q 1175 2209 1959 2209 
L 2766 2209 
L 2766 2266 
Q 2766 2663 2505 2880 
Q 2244 3097 1772 3097 
Q 1472 3097 1187 3025 
Q 903 2953 641 2809 
L 641 3341 
Q 956 3463 1253 3523 
Q 1550 3584 1831 3584 
Q 2591 3584 2966 3190 
Q 3341 2797 3341 1997 
z
" id="DejaVuSans-61" transform="scale(0.015625)"/>
       <path id="DejaVuSans-20" transform="scale(0.015625)"/>
       <path d="M 4122 4306 
L 4122 3641 
Q 3803 3938 3442 4084 
Q 3081 4231 2675 4231 
Q 1875 4231 1450 3742 
Q 1025 3253 1025 2328 
Q 1025 1406 1450 917 
Q 1875 428 2675 428 
Q 3081 428 3442 575 
Q 3803 722 4122 1019 
L 4122 359 
Q 3791 134 3420 21 
Q 3050 -91 2638 -91 
Q 1578 -91 968 557 
Q 359 1206 359 2328 
Q 359 3453 968 4101 
Q 1578 4750 2638 4750 
Q 3056 4750 3426 4639 
Q 3797 4528 4122 4306 
z
" id="DejaVuSans-43" transform="scale(0.015625)"/>
       <path d="M 3328 2828 
Q 3544 3216 3844 3400 
Q 4144 3584 4550 3584 
Q 5097 3584 5394 3201 
Q 5691 2819 5691 2113 
L 5691 0 
L 5113 0 
L 5113 2094 
Q 5113 2597 4934 2840 
Q 4756 3084 4391 3084 
Q 3944 3084 3684 2787 
Q 3425 2491 3425 1978 
L 3425 0 
L 2847 0 
L 2847 2094 
Q 2847 2600 2669 2842 
Q 2491 3084 2119 3084 
Q 1678 3084 1418 2786 
Q 1159 2488 1159 1978 
L 1159 0 
L 581 0 
L 581 3500 
L 1159 3500 
L 1159 2956 
Q 1356 3278 1631 3431 
Q 1906 3584 2284 3584 
Q 2666 3584 2933 3390 
Q 3200 3197 3328 2828 
z
" id="DejaVuSans-6d" transform="scale(0.015625)"/>
       <path d="M 544 1381 
L 544 3500 
L 1119 3500 
L 1119 1403 
Q 1119 906 1312 657 
Q 1506 409 1894 409 
Q 2359 409 2629 706 
Q 2900 1003 2900 1516 
L 2900 3500 
L 3475 3500 
L 3475 0 
L 2900 0 
L 2900 538 
Q 2691 219 2414 64 
Q 2138 -91 1772 -91 
Q 1169 -91 856 284 
Q 544 659 544 1381 
z
M 1991 3584 
L 1991 3584 
z
" id="DejaVuSans-75" transform="scale(0.015625)"/>
       <path d="M 3513 2113 
L 3513 0 
L 2938 0 
L 2938 2094 
Q 2938 2591 2744 2837 
Q 2550 3084 2163 3084 
Q 1697 3084 1428 2787 
Q 1159 2491 1159 1978 
L 1159 0 
L 581 0 
L 581 3500 
L 1159 3500 
L 1159 2956 
Q 1366 3272 1645 3428 
Q 1925 3584 2291 3584 
Q 2894 3584 3203 3211 
Q 3513 2838 3513 2113 
z
" id="DejaVuSans-6e" transform="scale(0.015625)"/>
       <path d="M 603 3500 
L 1178 3500 
L 1178 0 
L 603 0 
L 603 3500 
z
M 603 4863 
L 1178 4863 
L 1178 4134 
L 603 4134 
L 603 4863 
z
" id="DejaVuSans-69" transform="scale(0.015625)"/>
       <path d="M 3122 3366 
L 3122 2828 
Q 2878 2963 2633 3030 
Q 2388 3097 2138 3097 
Q 1578 3097 1268 2742 
Q 959 2388 959 1747 
Q 959 1106 1268 751 
Q 1578 397 2138 397 
Q 2388 397 2633 464 
Q 2878 531 3122 666 
L 3122 134 
Q 2881 22 2623 -34 
Q 2366 -91 2075 -91 
Q 1284 -91 818 406 
Q 353 903 353 1747 
Q 353 2603 823 3093 
Q 1294 3584 2113 3584 
Q 2378 3584 2631 3529 
Q 2884 3475 3122 3366 
z
" id="DejaVuSans-63" transform="scale(0.015625)"/>
       <path d="M 1172 4494 
L 1172 3500 
L 2356 3500 
L 2356 3053 
L 1172 3053 
L 1172 1153 
Q 1172 725 1289 603 
Q 1406 481 1766 481 
L 2356 481 
L 2356 0 
L 1766 0 
Q 1100 0 847 248 
Q 594 497 594 1153 
L 594 3053 
L 172 3053 
L 172 3500 
L 594 3500 
L 594 4494 
L 1172 4494 
z
" id="DejaVuSans-74" transform="scale(0.015625)"/>
       <path d="M 2841 2188 
Q 3044 2119 3236 1894 
Q 3428 1669 3622 1275 
L 4263 0 
L 3584 0 
L 2988 1197 
Q 2756 1666 2539 1819 
Q 2322 1972 1947 1972 
L 1259 1972 
L 1259 0 
L 628 0 
L 628 4666 
L 2053 4666 
Q 2853 4666 3247 4331 
Q 3641 3997 3641 3322 
Q 3641 2881 3436 2590 
Q 3231 2300 2841 2188 
z
M 1259 4147 
L 1259 2491 
L 2053 2491 
Q 2509 2491 2742 2702 
Q 2975 2913 2975 3322 
Q 2975 3731 2742 3939 
Q 2509 4147 2053 4147 
L 1259 4147 
z
" id="DejaVuSans-52" transform="scale(0.015625)"/>
       <path d="M 2906 2969 
L 2906 4863 
L 3481 4863 
L 3481 0 
L 2906 0 
L 2906 525 
Q 2725 213 2448 61 
Q 2172 -91 1784 -91 
Q 1150 -91 751 415 
Q 353 922 353 1747 
Q 353 2572 751 3078 
Q 1150 3584 1784 3584 
Q 2172 3584 2448 3432 
Q 2725 3281 2906 2969 
z
M 947 1747 
Q 947 1113 1208 752 
Q 1469 391 1925 391 
Q 2381 391 2643 752 
Q 2906 1113 2906 1747 
Q 2906 2381 2643 2742 
Q 2381 3103 1925 3103 
Q 1469 3103 1208 2742 
Q 947 2381 947 1747 
z
" id="DejaVuSans-64" transform="scale(0.015625)"/>
       <path d="M 2834 3397 
L 2834 2853 
Q 2591 2978 2328 3040 
Q 2066 3103 1784 3103 
Q 1356 3103 1142 2972 
Q 928 2841 928 2578 
Q 928 2378 1081 2264 
Q 1234 2150 1697 2047 
L 1894 2003 
Q 2506 1872 2764 1633 
Q 3022 1394 3022 966 
Q 3022 478 2636 193 
Q 2250 -91 1575 -91 
Q 1294 -91 989 -36 
Q 684 19 347 128 
L 347 722 
Q 666 556 975 473 
Q 1284 391 1588 391 
Q 1994 391 2212 530 
Q 2431 669 2431 922 
Q 2431 1156 2273 1281 
Q 2116 1406 1581 1522 
L 1381 1569 
Q 847 1681 609 1914 
Q 372 2147 372 2553 
Q 372 3047 722 3315 
Q 1072 3584 1716 3584 
Q 2034 3584 2315 3537 
Q 2597 3491 2834 3397 
z
" id="DejaVuSans-73" transform="scale(0.015625)"/>
      </defs>
      <use xlink:href="#DejaVuSans-47"/>
      <use x="77.490234" xlink:href="#DejaVuSans-6c"/>
      <use x="105.273438" xlink:href="#DejaVuSans-6f"/>
      <use x="166.455078" xlink:href="#DejaVuSans-62"/>
      <use x="229.931641" xlink:href="#DejaVuSans-61"/>
      <use x="291.210938" xlink:href="#DejaVuSans-6c"/>
      <use x="318.994141" xlink:href="#DejaVuSans-20"/>
      <use x="350.78125" xlink:href="#DejaVuSans-43"/>
      <use x="420.605469" xlink:href="#DejaVuSans-6f"/>
      <use x="481.787109" xlink:href="#DejaVuSans-6d"/>
      <use x="579.199219" xlink:href="#DejaVuSans-6d"/>
      <use x="676.611328" xlink:href="#DejaVuSans-75"/>
      <use x="739.990234" xlink:href="#DejaVuSans-6e"/>
      <use x="803.369141" xlink:href="#DejaVuSans-69"/>
      <use x="831.152344" xlink:href="#DejaVuSans-63"/>
      <use x="886.132812" xlink:href="#DejaVuSans-61"/>
      <use x="947.412109" xlink:href="#DejaVuSans-74"/>
      <use x="986.621094" xlink:href="#DejaVuSans-69"/>
      <use x="1014.404297" xlink:href="#DejaVuSans-6f"/>
      <use x="1075.585938" xlink:href="#DejaVuSans-6e"/>
      <use x="1138.964844" xlink:href="#DejaVuSans-20"/>
      <use x="1170.751953" xlink:href="#DejaVuSans-52"/>
      <use x="1235.734375" xlink:href="#DejaVuSans-6f"/>
      <use x="1296.916016" xlink:href="#DejaVuSans-75"/>
      <use x="1360.294922" xlink:href="#DejaVuSans-6e"/>
      <use x="1423.673828" xlink:href="#DejaVuSans-64"/>
      <use x="1487.150391" xlink:href="#DejaVuSans-73"/>
     </g>
    </g>
   </g>
   <g id="matplotlib.axis_2">
    <g id="ytick_1">
     <g id="line2d_13">
      <path clip-path="url(#pfd82ba579e)" d="M 50.87 258.741227 
L 366.25 258.741227 
" style="fill:none;stroke:#b0b0b0;stroke-linecap:square;stroke-width:0.8;"/>
     </g>
     <g id="line2d_14">
      <defs>
       <path d="M 0 0 
L -3.5 0 
" id="m335f3c1b23" style="stroke:#000000;stroke-width:0.8;"/>
      </defs>
      <g>
       <use style="stroke:#000000;stroke-width:0.8;" x="50.87" xlink:href="#m335f3c1b23" y="258.741227"/>
      </g>
     </g>
     <g id="text_8">
      <!-- 20 -->
      <g transform="translate(31.145 262.540445)scale(0.1 -0.1)">
       <use xlink:href="#DejaVuSans-32"/>
       <use x="63.623047" xlink:href="#DejaVuSans-30"/>
      </g>
     </g>
    </g>
    <g id="ytick_2">
     <g id="line2d_15">
      <path clip-path="url(#pfd82ba579e)" d="M 50.87 203.388939 
L 366.25 203.388939 
" style="fill:none;stroke:#b0b0b0;stroke-linecap:square;stroke-width:0.8;"/>
     </g>
     <g id="line2d_16">
      <g>
       <use style="stroke:#000000;stroke-width:0.8;" x="50.87" xlink:href="#m335f3c1b23" y="203.388939"/>
      </g>
     </g>
     <g id="text_9">
      <!-- 40 -->
      <g transform="translate(31.145 207.188157)scale(0.1 -0.1)">
       <use xlink:href="#DejaVuSans-34"/>
       <use x="63.623047" xlink:href="#DejaVuSans-30"/>
      </g>
     </g>
    </g>
    <g id="ytick_3">
     <g id="line2d_17">
      <path clip-path="url(#pfd82ba579e)" d="M 50.87 148.03665 
L 366.25 148.03665 
" style="fill:none;stroke:#b0b0b0;stroke-linecap:square;stroke-width:0.8;"/>
     </g>
     <g id="line2d_18">
      <g>
       <use style="stroke:#000000;stroke-width:0.8;" x="50.87" xlink:href="#m335f3c1b23" y="148.03665"/>
      </g>
     </g>
     <g id="text_10">
      <!-- 60 -->
      <g transform="translate(31.145 151.835869)scale(0.1 -0.1)">
       <defs>
        <path d="M 2113 2584 
Q 1688 2584 1439 2293 
Q 1191 2003 1191 1497 
Q 1191 994 1439 701 
Q 1688 409 2113 409 
Q 2538 409 2786 701 
Q 3034 994 3034 1497 
Q 3034 2003 2786 2293 
Q 2538 2584 2113 2584 
z
M 3366 4563 
L 3366 3988 
Q 3128 4100 2886 4159 
Q 2644 4219 2406 4219 
Q 1781 4219 1451 3797 
Q 1122 3375 1075 2522 
Q 1259 2794 1537 2939 
Q 1816 3084 2150 3084 
Q 2853 3084 3261 2657 
Q 3669 2231 3669 1497 
Q 3669 778 3244 343 
Q 2819 -91 2113 -91 
Q 1303 -91 875 529 
Q 447 1150 447 2328 
Q 447 3434 972 4092 
Q 1497 4750 2381 4750 
Q 2619 4750 2861 4703 
Q 3103 4656 3366 4563 
z
" id="DejaVuSans-36" transform="scale(0.015625)"/>
       </defs>
       <use xlink:href="#DejaVuSans-36"/>
       <use x="63.623047" xlink:href="#DejaVuSans-30"/>
      </g>
     </g>
    </g>
    <g id="ytick_4">
     <g id="line2d_19">
      <path clip-path="url(#pfd82ba579e)" d="M 50.87 92.684362 
L 366.25 92.684362 
" style="fill:none;stroke:#b0b0b0;stroke-linecap:square;stroke-width:0.8;"/>
     </g>
     <g id="line2d_20">
      <g>
       <use style="stroke:#000000;stroke-width:0.8;" x="50.87" xlink:href="#m335f3c1b23" y="92.684362"/>
      </g>
     </g>
     <g id="text_11">
      <!-- 80 -->
      <g transform="translate(31.145 96.483581)scale(0.1 -0.1)">
       <defs>
        <path d="M 2034 2216 
Q 1584 2216 1326 1975 
Q 1069 1734 1069 1313 
Q 1069 891 1326 650 
Q 1584 409 2034 409 
Q 2484 409 2743 651 
Q 3003 894 3003 1313 
Q 3003 1734 2745 1975 
Q 2488 2216 2034 2216 
z
M 1403 2484 
Q 997 2584 770 2862 
Q 544 3141 544 3541 
Q 544 4100 942 4425 
Q 1341 4750 2034 4750 
Q 2731 4750 3128 4425 
Q 3525 4100 3525 3541 
Q 3525 3141 3298 2862 
Q 3072 2584 2669 2484 
Q 3125 2378 3379 2068 
Q 3634 1759 3634 1313 
Q 3634 634 3220 271 
Q 2806 -91 2034 -91 
Q 1263 -91 848 271 
Q 434 634 434 1313 
Q 434 1759 690 2068 
Q 947 2378 1403 2484 
z
M 1172 3481 
Q 1172 3119 1398 2916 
Q 1625 2713 2034 2713 
Q 2441 2713 2670 2916 
Q 2900 3119 2900 3481 
Q 2900 3844 2670 4047 
Q 2441 4250 2034 4250 
Q 1625 4250 1398 4047 
Q 1172 3844 1172 3481 
z
" id="DejaVuSans-38" transform="scale(0.015625)"/>
       </defs>
       <use xlink:href="#DejaVuSans-38"/>
       <use x="63.623047" xlink:href="#DejaVuSans-30"/>
      </g>
     </g>
    </g>
    <g id="ytick_5">
     <g id="line2d_21">
      <path clip-path="url(#pfd82ba579e)" d="M 50.87 37.332074 
L 366.25 37.332074 
" style="fill:none;stroke:#b0b0b0;stroke-linecap:square;stroke-width:0.8;"/>
     </g>
     <g id="line2d_22">
      <g>
       <use style="stroke:#000000;stroke-width:0.8;" x="50.87" xlink:href="#m335f3c1b23" y="37.332074"/>
      </g>
     </g>
     <g id="text_12">
      <!-- 100 -->
      <g transform="translate(24.7825 41.131293)scale(0.1 -0.1)">
       <use xlink:href="#DejaVuSans-31"/>
       <use x="63.623047" xlink:href="#DejaVuSans-30"/>
       <use x="127.246094" xlink:href="#DejaVuSans-30"/>
      </g>
     </g>
    </g>
    <g id="text_13">
     <!-- Test Accuracy -->
     <g transform="translate(18.702813 199.5225)rotate(-90)scale(0.1 -0.1)">
      <defs>
       <path d="M -19 4666 
L 3928 4666 
L 3928 4134 
L 2272 4134 
L 2272 0 
L 1638 0 
L 1638 4134 
L -19 4134 
L -19 4666 
z
" id="DejaVuSans-54" transform="scale(0.015625)"/>
       <path d="M 3597 1894 
L 3597 1613 
L 953 1613 
Q 991 1019 1311 708 
Q 1631 397 2203 397 
Q 2534 397 2845 478 
Q 3156 559 3463 722 
L 3463 178 
Q 3153 47 2828 -22 
Q 2503 -91 2169 -91 
Q 1331 -91 842 396 
Q 353 884 353 1716 
Q 353 2575 817 3079 
Q 1281 3584 2069 3584 
Q 2775 3584 3186 3129 
Q 3597 2675 3597 1894 
z
M 3022 2063 
Q 3016 2534 2758 2815 
Q 2500 3097 2075 3097 
Q 1594 3097 1305 2825 
Q 1016 2553 972 2059 
L 3022 2063 
z
" id="DejaVuSans-65" transform="scale(0.015625)"/>
       <path d="M 2188 4044 
L 1331 1722 
L 3047 1722 
L 2188 4044 
z
M 1831 4666 
L 2547 4666 
L 4325 0 
L 3669 0 
L 3244 1197 
L 1141 1197 
L 716 0 
L 50 0 
L 1831 4666 
z
" id="DejaVuSans-41" transform="scale(0.015625)"/>
       <path d="M 2631 2963 
Q 2534 3019 2420 3045 
Q 2306 3072 2169 3072 
Q 1681 3072 1420 2755 
Q 1159 2438 1159 1844 
L 1159 0 
L 581 0 
L 581 3500 
L 1159 3500 
L 1159 2956 
Q 1341 3275 1631 3429 
Q 1922 3584 2338 3584 
Q 2397 3584 2469 3576 
Q 2541 3569 2628 3553 
L 2631 2963 
z
" id="DejaVuSans-72" transform="scale(0.015625)"/>
       <path d="M 2059 -325 
Q 1816 -950 1584 -1140 
Q 1353 -1331 966 -1331 
L 506 -1331 
L 506 -850 
L 844 -850 
Q 1081 -850 1212 -737 
Q 1344 -625 1503 -206 
L 1606 56 
L 191 3500 
L 800 3500 
L 1894 763 
L 2988 3500 
L 3597 3500 
L 2059 -325 
z
" id="DejaVuSans-79" transform="scale(0.015625)"/>
      </defs>
      <use xlink:href="#DejaVuSans-54"/>
      <use x="44.083984" xlink:href="#DejaVuSans-65"/>
      <use x="105.607422" xlink:href="#DejaVuSans-73"/>
      <use x="157.707031" xlink:href="#DejaVuSans-74"/>
      <use x="196.916016" xlink:href="#DejaVuSans-20"/>
      <use x="228.703125" xlink:href="#DejaVuSans-41"/>
      <use x="295.361328" xlink:href="#DejaVuSans-63"/>
      <use x="350.341797" xlink:href="#DejaVuSans-63"/>
      <use x="405.322266" xlink:href="#DejaVuSans-75"/>
      <use x="468.701172" xlink:href="#DejaVuSans-72"/>
      <use x="509.814453" xlink:href="#DejaVuSans-61"/>
      <use x="571.09375" xlink:href="#DejaVuSans-63"/>
      <use x="626.074219" xlink:href="#DejaVuSans-79"/>
     </g>
    </g>
   </g>
   <g id="line2d_23">
    <path clip-path="url(#pfd82ba579e)" d="M 65.205455 253.205998 
L 71.05666 219.293963 
L 76.907866 179.566435 
L 82.759072 150.769232 
L 88.610278 104.805813 
L 94.461484 91.07284 
L 100.31269 90.16198 
L 106.163896 91.07284 
L 112.015102 81.824103 
L 117.866308 72.715499 
L 123.717514 72.365168 
L 129.56872 62.976299 
L 135.419926 63.046365 
L 141.271132 59.613122 
L 147.122338 60.594048 
L 152.973544 63.676961 
L 158.82475 54.218025 
L 164.675955 52.886768 
L 170.527161 58.35193 
L 176.378367 55.759481 
L 182.229573 55.128886 
L 188.080779 56.320011 
L 193.931985 51.415378 
L 199.783191 54.077893 
L 205.634397 47.70187 
L 211.485603 51.835775 
L 217.336809 47.631804 
L 223.188015 48.752863 
L 229.039221 48.192333 
L 234.890427 53.0269 
L 240.741633 47.631804 
L 246.592839 47.14134 
L 252.444045 47.842002 
L 258.29525 47.351539 
L 264.146456 46.370612 
L 269.997662 45.039355 
L 275.848868 46.510745 
L 281.700074 46.931142 
L 287.55128 44.829156 
L 293.402486 43.638031 
L 299.253692 44.899222 
L 305.104898 45.66995 
L 310.956104 43.497899 
L 316.80731 46.090348 
L 322.658516 43.077502 
L 328.509722 43.217634 
L 334.360928 43.147568 
L 340.212134 45.599884 
L 346.06334 43.427832 
L 351.914545 43.2877 
" style="fill:none;stroke:#1f77b4;stroke-linecap:square;stroke-width:1.5;"/>
   </g>
   <g id="line2d_24">
    <path clip-path="url(#pfd82ba579e)" d="M 65.205455 281.372605 
L 71.05666 265.817912 
L 76.907866 219.784426 
L 82.759072 224.058464 
L 88.610278 244.027327 
L 94.461484 166.464058 
L 100.31269 178.795707 
L 106.163896 189.165502 
L 112.015102 162.400219 
L 117.866308 133.883281 
L 123.717514 150.699166 
L 129.56872 132.201692 
L 135.419926 117.34766 
L 141.271132 132.341824 
L 147.122338 142.641554 
L 152.973544 140.189237 
L 158.82475 120.010175 
L 164.675955 99.550849 
L 170.527161 108.729519 
L 176.378367 110.200909 
L 182.229573 107.538394 
L 188.080779 116.927263 
L 193.931985 105.646607 
L 199.783191 97.308731 
L 205.634397 102.843959 
L 211.485603 122.742757 
L 217.336809 105.086077 
L 223.188015 77.339867 
L 229.039221 96.678135 
L 234.890427 106.837732 
L 240.741633 116.4368 
L 246.592839 115.175608 
L 252.444045 110.901571 
L 258.29525 106.277203 
L 264.146456 106.487401 
L 269.997662 99.90118 
L 275.848868 105.646607 
L 281.700074 96.9584 
L 287.55128 86.518538 
L 293.402486 87.149133 
L 299.253692 95.557076 
L 305.104898 73.556293 
L 310.956104 82.454699 
L 316.80731 88.13006 
L 322.658516 100.041312 
L 328.509722 92.263965 
L 334.360928 87.849795 
L 340.212134 90.302112 
L 346.06334 77.48 
L 351.914545 94.716282 
" style="fill:none;stroke:#ff7f0e;stroke-linecap:square;stroke-width:1.5;"/>
   </g>
   <g id="line2d_25">
    <path clip-path="url(#pfd82ba579e)" d="M 65.205455 241.715143 
L 71.05666 198.484305 
L 76.907866 151.610026 
L 82.759072 123.583551 
L 88.610278 103.684754 
L 94.461484 93.665289 
L 100.31269 84.977082 
L 106.163896 79.792184 
L 112.015102 70.613513 
L 117.866308 60.103585 
L 123.717514 57.44107 
L 129.56872 62.345703 
L 135.419926 59.122658 
L 141.271132 59.753254 
L 147.122338 58.141732 
L 152.973544 54.077893 
L 158.82475 53.307165 
L 164.675955 51.55551 
L 170.527161 53.167033 
L 176.378367 51.625576 
L 182.229573 48.542664 
L 188.080779 48.963061 
L 193.931985 48.963061 
L 199.783191 48.752863 
L 205.634397 48.402532 
L 211.485603 46.580811 
L 217.336809 46.300546 
L 223.188015 47.771936 
L 229.039221 46.931142 
L 234.890427 45.529818 
L 240.741633 46.160414 
L 246.592839 44.75909 
L 252.444045 45.31962 
L 258.29525 45.66995 
L 264.146456 44.689024 
L 269.997662 46.580811 
L 275.848868 46.510745 
L 281.700074 45.179487 
L 287.55128 44.408759 
L 293.402486 43.567965 
L 299.253692 43.988362 
L 305.104898 43.918296 
L 310.956104 44.268627 
L 316.80731 44.408759 
L 322.658516 44.128494 
L 328.509722 44.899222 
L 334.360928 43.2877 
L 340.212134 44.128494 
L 346.06334 42.096575 
L 351.914545 42.657104 
" style="fill:none;stroke:#2ca02c;stroke-linecap:square;stroke-width:1.5;"/>
   </g>
   <g id="line2d_26">
    <path clip-path="url(#pfd82ba579e)" d="M 65.205455 232.631552 
L 71.05666 205.293057 
L 76.907866 189.185541 
L 82.759072 168.909998 
L 88.610278 151.878099 
L 94.461484 131.419894 
L 100.31269 122.563527 
L 106.163896 114.947053 
L 112.015102 107.563057 
L 117.866308 102.819366 
L 123.717514 98.335831 
L 129.56872 96.797037 
L 135.419926 94.344931 
L 141.271132 92.125304 
L 147.122338 91.189851 
L 152.973544 89.684268 
L 158.82475 89.25252 
L 164.675955 88.39456 
L 170.527161 86.911119 
L 176.378367 85.582664 
L 182.229573 85.604805 
L 188.080779 85.051282 
L 193.931985 84.586323 
L 199.783191 84.431336 
L 205.634397 83.263403 
L 211.485603 83.839067 
L 217.336809 83.113952 
L 223.188015 83.053064 
L 229.039221 82.200639 
L 234.890427 82.23385 
L 240.741633 81.907272 
L 246.592839 81.514271 
L 252.444045 81.929413 
L 258.29525 81.475524 
L 264.146456 81.154481 
L 269.997662 80.750409 
L 275.848868 80.833437 
L 281.700074 80.88879 
L 287.55128 80.534535 
L 293.402486 80.362943 
L 299.253692 80.335267 
L 305.104898 80.0419 
L 310.956104 79.803885 
L 316.80731 80.135999 
L 322.658516 79.715321 
L 328.509722 80.600958 
L 334.360928 79.504982 
L 340.212134 79.261432 
L 346.06334 79.68211 
L 351.914545 79.427489 
" style="fill:none;stroke:#d62728;stroke-linecap:square;stroke-width:1.5;"/>
   </g>
   <g id="patch_3">
    <path d="M 50.87 303.64 
L 50.87 26.88 
" style="fill:none;stroke:#000000;stroke-linecap:square;stroke-linejoin:miter;stroke-width:0.8;"/>
   </g>
   <g id="patch_4">
    <path d="M 366.25 303.64 
L 366.25 26.88 
" style="fill:none;stroke:#000000;stroke-linecap:square;stroke-linejoin:miter;stroke-width:0.8;"/>
   </g>
   <g id="patch_5">
    <path d="M 50.87 303.64 
L 366.25 303.64 
" style="fill:none;stroke:#000000;stroke-linecap:square;stroke-linejoin:miter;stroke-width:0.8;"/>
   </g>
   <g id="patch_6">
    <path d="M 50.87 26.88 
L 366.25 26.88 
" style="fill:none;stroke:#000000;stroke-linecap:square;stroke-linejoin:miter;stroke-width:0.8;"/>
   </g>
   <g id="text_14">
    <!-- MNIST Local Rounds 01 -->
    <g transform="translate(138.632812 20.88)scale(0.12 -0.12)">
     <defs>
      <path d="M 628 4666 
L 1569 4666 
L 2759 1491 
L 3956 4666 
L 4897 4666 
L 4897 0 
L 4281 0 
L 4281 4097 
L 3078 897 
L 2444 897 
L 1241 4097 
L 1241 0 
L 628 0 
L 628 4666 
z
" id="DejaVuSans-4d" transform="scale(0.015625)"/>
      <path d="M 628 4666 
L 1478 4666 
L 3547 763 
L 3547 4666 
L 4159 4666 
L 4159 0 
L 3309 0 
L 1241 3903 
L 1241 0 
L 628 0 
L 628 4666 
z
" id="DejaVuSans-4e" transform="scale(0.015625)"/>
      <path d="M 628 4666 
L 1259 4666 
L 1259 0 
L 628 0 
L 628 4666 
z
" id="DejaVuSans-49" transform="scale(0.015625)"/>
      <path d="M 3425 4513 
L 3425 3897 
Q 3066 4069 2747 4153 
Q 2428 4238 2131 4238 
Q 1616 4238 1336 4038 
Q 1056 3838 1056 3469 
Q 1056 3159 1242 3001 
Q 1428 2844 1947 2747 
L 2328 2669 
Q 3034 2534 3370 2195 
Q 3706 1856 3706 1288 
Q 3706 609 3251 259 
Q 2797 -91 1919 -91 
Q 1588 -91 1214 -16 
Q 841 59 441 206 
L 441 856 
Q 825 641 1194 531 
Q 1563 422 1919 422 
Q 2459 422 2753 634 
Q 3047 847 3047 1241 
Q 3047 1584 2836 1778 
Q 2625 1972 2144 2069 
L 1759 2144 
Q 1053 2284 737 2584 
Q 422 2884 422 3419 
Q 422 4038 858 4394 
Q 1294 4750 2059 4750 
Q 2388 4750 2728 4690 
Q 3069 4631 3425 4513 
z
" id="DejaVuSans-53" transform="scale(0.015625)"/>
      <path d="M 628 4666 
L 1259 4666 
L 1259 531 
L 3531 531 
L 3531 0 
L 628 0 
L 628 4666 
z
" id="DejaVuSans-4c" transform="scale(0.015625)"/>
     </defs>
     <use xlink:href="#DejaVuSans-4d"/>
     <use x="86.279297" xlink:href="#DejaVuSans-4e"/>
     <use x="161.083984" xlink:href="#DejaVuSans-49"/>
     <use x="190.576172" xlink:href="#DejaVuSans-53"/>
     <use x="254.052734" xlink:href="#DejaVuSans-54"/>
     <use x="315.136719" xlink:href="#DejaVuSans-20"/>
     <use x="346.923828" xlink:href="#DejaVuSans-4c"/>
     <use x="400.886719" xlink:href="#DejaVuSans-6f"/>
     <use x="462.068359" xlink:href="#DejaVuSans-63"/>
     <use x="517.048828" xlink:href="#DejaVuSans-61"/>
     <use x="578.328125" xlink:href="#DejaVuSans-6c"/>
     <use x="606.111328" xlink:href="#DejaVuSans-20"/>
     <use x="637.898438" xlink:href="#DejaVuSans-52"/>
     <use x="702.880859" xlink:href="#DejaVuSans-6f"/>
     <use x="764.0625" xlink:href="#DejaVuSans-75"/>
     <use x="827.441406" xlink:href="#DejaVuSans-6e"/>
     <use x="890.820312" xlink:href="#DejaVuSans-64"/>
     <use x="954.296875" xlink:href="#DejaVuSans-73"/>
     <use x="1006.396484" xlink:href="#DejaVuSans-20"/>
     <use x="1038.183594" xlink:href="#DejaVuSans-30"/>
     <use x="1101.806641" xlink:href="#DejaVuSans-31"/>
    </g>
   </g>
   <g id="legend_1">
    <g id="patch_7">
     <path d="M 373.25 196.11625 
L 447.821875 196.11625 
Q 449.821875 196.11625 449.821875 194.11625 
L 449.821875 136.40375 
Q 449.821875 134.40375 447.821875 134.40375 
L 373.25 134.40375 
Q 371.25 134.40375 371.25 136.40375 
L 371.25 194.11625 
Q 371.25 196.11625 373.25 196.11625 
z
" style="fill:#ffffff;opacity:0.8;stroke:#cccccc;stroke-linejoin:miter;"/>
    </g>
    <g id="line2d_27">
     <path d="M 375.25 142.502187 
L 395.25 142.502187 
" style="fill:none;stroke:#1f77b4;stroke-linecap:square;stroke-width:1.5;"/>
    </g>
    <g id="line2d_28"/>
    <g id="text_15">
     <!-- FedAvg -->
     <g transform="translate(403.25 146.002187)scale(0.1 -0.1)">
      <defs>
       <path d="M 628 4666 
L 3309 4666 
L 3309 4134 
L 1259 4134 
L 1259 2759 
L 3109 2759 
L 3109 2228 
L 1259 2228 
L 1259 0 
L 628 0 
L 628 4666 
z
" id="DejaVuSans-46" transform="scale(0.015625)"/>
       <path d="M 191 3500 
L 800 3500 
L 1894 563 
L 2988 3500 
L 3597 3500 
L 2284 0 
L 1503 0 
L 191 3500 
z
" id="DejaVuSans-76" transform="scale(0.015625)"/>
       <path d="M 2906 1791 
Q 2906 2416 2648 2759 
Q 2391 3103 1925 3103 
Q 1463 3103 1205 2759 
Q 947 2416 947 1791 
Q 947 1169 1205 825 
Q 1463 481 1925 481 
Q 2391 481 2648 825 
Q 2906 1169 2906 1791 
z
M 3481 434 
Q 3481 -459 3084 -895 
Q 2688 -1331 1869 -1331 
Q 1566 -1331 1297 -1286 
Q 1028 -1241 775 -1147 
L 775 -588 
Q 1028 -725 1275 -790 
Q 1522 -856 1778 -856 
Q 2344 -856 2625 -561 
Q 2906 -266 2906 331 
L 2906 616 
Q 2728 306 2450 153 
Q 2172 0 1784 0 
Q 1141 0 747 490 
Q 353 981 353 1791 
Q 353 2603 747 3093 
Q 1141 3584 1784 3584 
Q 2172 3584 2450 3431 
Q 2728 3278 2906 2969 
L 2906 3500 
L 3481 3500 
L 3481 434 
z
" id="DejaVuSans-67" transform="scale(0.015625)"/>
      </defs>
      <use xlink:href="#DejaVuSans-46"/>
      <use x="52.019531" xlink:href="#DejaVuSans-65"/>
      <use x="113.542969" xlink:href="#DejaVuSans-64"/>
      <use x="177.019531" xlink:href="#DejaVuSans-41"/>
      <use x="239.552734" xlink:href="#DejaVuSans-76"/>
      <use x="298.732422" xlink:href="#DejaVuSans-67"/>
     </g>
    </g>
    <g id="line2d_29">
     <path d="M 375.25 157.180312 
L 395.25 157.180312 
" style="fill:none;stroke:#ff7f0e;stroke-linecap:square;stroke-width:1.5;"/>
    </g>
    <g id="line2d_30"/>
    <g id="text_16">
     <!-- FedMed -->
     <g transform="translate(403.25 160.680312)scale(0.1 -0.1)">
      <use xlink:href="#DejaVuSans-46"/>
      <use x="52.019531" xlink:href="#DejaVuSans-65"/>
      <use x="113.542969" xlink:href="#DejaVuSans-64"/>
      <use x="177.019531" xlink:href="#DejaVuSans-4d"/>
      <use x="263.298828" xlink:href="#DejaVuSans-65"/>
      <use x="324.822266" xlink:href="#DejaVuSans-64"/>
     </g>
    </g>
    <g id="line2d_31">
     <path d="M 375.25 171.858437 
L 395.25 171.858437 
" style="fill:none;stroke:#2ca02c;stroke-linecap:square;stroke-width:1.5;"/>
    </g>
    <g id="line2d_32"/>
    <g id="text_17">
     <!-- FedProx -->
     <g transform="translate(403.25 175.358437)scale(0.1 -0.1)">
      <defs>
       <path d="M 1259 4147 
L 1259 2394 
L 2053 2394 
Q 2494 2394 2734 2622 
Q 2975 2850 2975 3272 
Q 2975 3691 2734 3919 
Q 2494 4147 2053 4147 
L 1259 4147 
z
M 628 4666 
L 2053 4666 
Q 2838 4666 3239 4311 
Q 3641 3956 3641 3272 
Q 3641 2581 3239 2228 
Q 2838 1875 2053 1875 
L 1259 1875 
L 1259 0 
L 628 0 
L 628 4666 
z
" id="DejaVuSans-50" transform="scale(0.015625)"/>
       <path d="M 3513 3500 
L 2247 1797 
L 3578 0 
L 2900 0 
L 1881 1375 
L 863 0 
L 184 0 
L 1544 1831 
L 300 3500 
L 978 3500 
L 1906 2253 
L 2834 3500 
L 3513 3500 
z
" id="DejaVuSans-78" transform="scale(0.015625)"/>
      </defs>
      <use xlink:href="#DejaVuSans-46"/>
      <use x="52.019531" xlink:href="#DejaVuSans-65"/>
      <use x="113.542969" xlink:href="#DejaVuSans-64"/>
      <use x="177.019531" xlink:href="#DejaVuSans-50"/>
      <use x="235.572266" xlink:href="#DejaVuSans-72"/>
      <use x="274.435547" xlink:href="#DejaVuSans-6f"/>
      <use x="332.492188" xlink:href="#DejaVuSans-78"/>
     </g>
    </g>
    <g id="line2d_33">
     <path d="M 375.25 186.536563 
L 395.25 186.536563 
" style="fill:none;stroke:#d62728;stroke-linecap:square;stroke-width:1.5;"/>
    </g>
    <g id="line2d_34"/>
    <g id="text_18">
     <!-- qFedAvg -->
     <g transform="translate(403.25 190.036563)scale(0.1 -0.1)">
      <defs>
       <path d="M 947 1747 
Q 947 1113 1208 752 
Q 1469 391 1925 391 
Q 2381 391 2643 752 
Q 2906 1113 2906 1747 
Q 2906 2381 2643 2742 
Q 2381 3103 1925 3103 
Q 1469 3103 1208 2742 
Q 947 2381 947 1747 
z
M 2906 525 
Q 2725 213 2448 61 
Q 2172 -91 1784 -91 
Q 1150 -91 751 415 
Q 353 922 353 1747 
Q 353 2572 751 3078 
Q 1150 3584 1784 3584 
Q 2172 3584 2448 3432 
Q 2725 3281 2906 2969 
L 2906 3500 
L 3481 3500 
L 3481 -1331 
L 2906 -1331 
L 2906 525 
z
" id="DejaVuSans-71" transform="scale(0.015625)"/>
      </defs>
      <use xlink:href="#DejaVuSans-71"/>
      <use x="63.476562" xlink:href="#DejaVuSans-46"/>
      <use x="115.496094" xlink:href="#DejaVuSans-65"/>
      <use x="177.019531" xlink:href="#DejaVuSans-64"/>
      <use x="240.496094" xlink:href="#DejaVuSans-41"/>
      <use x="303.029297" xlink:href="#DejaVuSans-76"/>
      <use x="362.208984" xlink:href="#DejaVuSans-67"/>
     </g>
    </g>
   </g>
  </g>
 </g>
 <defs>
  <clipPath id="pfd82ba579e">
   <rect height="276.76" width="315.38" x="50.87" y="26.88"/>
  </clipPath>
 </defs>
</svg>
