<?xml version="1.0" encoding="utf-8" standalone="no"?>
<!DOCTYPE svg PUBLIC "-//W3C//DTD SVG 1.1//EN"
  "http://www.w3.org/Graphics/SVG/1.1/DTD/svg11.dtd">
<svg height="345.6pt" version="1.1" viewBox="0 0 460.8 345.6" width="460.8pt" xmlns="http://www.w3.org/2000/svg" xmlns:xlink="http://www.w3.org/1999/xlink">
 <metadata>
  <rdf:RDF xmlns:cc="http://creativecommons.org/ns#" xmlns:dc="http://purl.org/dc/elements/1.1/" xmlns:rdf="http://www.w3.org/1999/02/22-rdf-syntax-ns#">
   <cc:Work>
    <dc:type rdf:resource="http://purl.org/dc/dcmitype/StillImage"/>
    <dc:date>2021-05-07T18:58:17.900512</dc:date>
    <dc:format>image/svg+xml</dc:format>
    <dc:creator>
     <cc:Agent>
      <dc:title>Matplotlib v3.4.1, https://matplotlib.org/</dc:title>
     </cc:Agent>
    </dc:creator>
   </cc:Work>
  </rdf:RDF>
 </metadata>
 <defs>
  <style type="text/css">*{stroke-linecap:butt;stroke-linejoin:round;}</style>
 </defs>
 <g id="figure_1">
  <g id="patch_1">
   <path d="M 0 345.6 
L 460.8 345.6 
L 460.8 0 
L 0 0 
z
" style="fill:#ffffff;"/>
  </g>
  <g id="axes_1">
   <g id="patch_2">
    <path d="M 44.57 303.64 
L 450 303.64 
L 450 32.876829 
L 44.57 32.876829 
z
" style="fill:#ffffff;"/>
   </g>
   <g id="PolyCollection_1">
    <path clip-path="url(#p96042b0dd9)" d="M 62.998636 200.882464 
L 62.998636 229.706446 
L 70.520529 227.288338 
L 78.042421 197.4431 
L 85.564314 159.426677 
L 93.086206 147.901726 
L 100.608098 115.318684 
L 108.129991 127.865083 
L 115.651883 118.398637 
L 123.173776 96.486764 
L 130.695668 73.610237 
L 138.21756 100.958627 
L 145.739453 77.540044 
L 153.261345 82.649826 
L 160.783237 82.113954 
L 168.30513 79.184187 
L 175.827022 73.745919 
L 183.348915 73.372414 
L 190.870807 68.122803 
L 198.392699 71.355533 
L 205.914592 74.379612 
L 213.436484 80.965551 
L 220.958377 87.865312 
L 228.480269 67.611819 
L 236.002161 70.473019 
L 243.524054 70.299907 
L 251.045946 70.57861 
L 258.567839 70.067342 
L 266.089731 69.906921 
L 273.611623 63.451452 
L 281.133516 64.095175 
L 288.655408 68.808276 
L 296.177301 58.249181 
L 303.699193 63.759639 
L 311.221085 62.740127 
L 318.742978 53.413133 
L 326.26487 58.08074 
L 333.786763 63.532761 
L 341.308655 57.067667 
L 348.830547 55.735673 
L 356.35244 58.403135 
L 363.874332 53.238305 
L 371.396224 64.802859 
L 378.918117 62.84413 
L 386.440009 55.428378 
L 393.961902 61.828004 
L 401.483794 53.368707 
L 409.005686 58.755045 
L 416.527579 55.215329 
L 424.049471 54.998181 
L 431.571364 62.437611 
L 431.571364 46.454071 
L 431.571364 46.454071 
L 424.049471 46.448795 
L 416.527579 46.66115 
L 409.005686 49.707135 
L 401.483794 45.78759 
L 393.961902 48.781688 
L 386.440009 47.879774 
L 378.918117 52.34692 
L 371.396224 50.101856 
L 363.874332 50.49935 
L 356.35244 48.484204 
L 348.830547 51.867502 
L 341.308655 49.247002 
L 333.786763 53.805801 
L 326.26487 49.379269 
L 318.742978 49.751852 
L 311.221085 49.158072 
L 303.699193 47.56589 
L 296.177301 52.790013 
L 288.655408 53.397979 
L 281.133516 55.963567 
L 273.611623 53.171272 
L 266.089731 54.590012 
L 258.567839 55.861265 
L 251.045946 59.501853 
L 243.524054 51.76318 
L 236.002161 55.598756 
L 228.480269 58.173621 
L 220.958377 67.126285 
L 213.436484 60.42514 
L 205.914592 60.425376 
L 198.392699 59.440768 
L 190.870807 58.951144 
L 183.348915 62.005244 
L 175.827022 68.933278 
L 168.30513 62.779173 
L 160.783237 62.99909 
L 153.261345 66.615073 
L 145.739453 63.13481 
L 138.21756 66.774872 
L 130.695668 71.073304 
L 123.173776 73.107912 
L 115.651883 78.684186 
L 108.129991 86.540999 
L 100.608098 87.061334 
L 93.086206 96.140015 
L 85.564314 138.159686 
L 78.042421 154.403721 
L 70.520529 179.391609 
L 62.998636 200.882464 
z
" style="fill:#1f77b4;fill-opacity:0.5;"/>
   </g>
   <g id="PolyCollection_2">
    <path clip-path="url(#p96042b0dd9)" d="M 62.998636 199.980653 
L 62.998636 264.109437 
L 70.520529 291.332583 
L 78.042421 281.751818 
L 85.564314 253.492874 
L 93.086206 277.133201 
L 100.608098 243.185759 
L 108.129991 243.596584 
L 115.651883 201.478287 
L 123.173776 248.219932 
L 130.695668 200.463883 
L 138.21756 227.287125 
L 145.739453 188.027366 
L 153.261345 244.072378 
L 160.783237 171.621661 
L 168.30513 192.02811 
L 175.827022 163.349545 
L 183.348915 161.053386 
L 190.870807 176.143348 
L 198.392699 149.125054 
L 205.914592 231.948718 
L 213.436484 221.950366 
L 220.958377 177.880229 
L 228.480269 170.233164 
L 236.002161 174.620253 
L 243.524054 146.091492 
L 251.045946 159.669676 
L 258.567839 152.593826 
L 266.089731 184.519818 
L 273.611623 147.28627 
L 281.133516 181.707977 
L 288.655408 144.817149 
L 296.177301 143.834048 
L 303.699193 152.167332 
L 311.221085 149.05038 
L 318.742978 147.206799 
L 326.26487 148.922741 
L 333.786763 156.434509 
L 341.308655 143.592269 
L 348.830547 165.699055 
L 356.35244 134.393071 
L 363.874332 132.565605 
L 371.396224 175.238896 
L 378.918117 174.181643 
L 386.440009 138.763787 
L 393.961902 143.133265 
L 401.483794 129.361097 
L 409.005686 128.17991 
L 416.527579 196.871238 
L 424.049471 178.404574 
L 431.571364 164.033489 
L 431.571364 118.806627 
L 431.571364 118.806627 
L 424.049471 101.142692 
L 416.527579 92.268246 
L 409.005686 119.154682 
L 401.483794 112.10363 
L 393.961902 119.66341 
L 386.440009 122.744381 
L 378.918117 129.990422 
L 371.396224 113.041583 
L 363.874332 115.484824 
L 356.35244 112.225684 
L 348.830547 129.739796 
L 341.308655 125.933276 
L 333.786763 122.253752 
L 326.26487 120.316469 
L 318.742978 112.58336 
L 311.221085 110.73978 
L 303.699193 108.911334 
L 296.177301 117.530953 
L 288.655408 118.265861 
L 281.133516 124.182097 
L 273.611623 126.247963 
L 266.089731 132.966817 
L 258.567839 138.836337 
L 251.045946 128.181301 
L 243.524054 129.447085 
L 236.002161 115.521402 
L 228.480269 141.097272 
L 220.958377 128.868849 
L 213.436484 128.751115 
L 205.914592 118.89593 
L 198.392699 135.576239 
L 190.870807 136.618763 
L 183.348915 137.248813 
L 175.827022 126.648943 
L 168.30513 141.92278 
L 160.783237 148.012487 
L 153.261345 151.154175 
L 145.739453 113.28135 
L 138.21756 146.60748 
L 130.695668 149.808096 
L 123.173776 138.416575 
L 115.651883 151.227537 
L 108.129991 141.321913 
L 100.608098 139.155725 
L 93.086206 208.718338 
L 85.564314 162.063455 
L 78.042421 256.355836 
L 70.520529 190.223933 
L 62.998636 199.980653 
z
" style="fill:#ff7f0e;fill-opacity:0.5;"/>
   </g>
   <g id="PolyCollection_3">
    <path clip-path="url(#p96042b0dd9)" d="M 62.998636 229.052783 
L 62.998636 258.516766 
L 70.520529 204.603563 
L 78.042421 165.768552 
L 85.564314 154.234299 
L 93.086206 148.942864 
L 100.608098 125.329309 
L 108.129991 103.918448 
L 115.651883 119.689557 
L 123.173776 103.843058 
L 130.695668 91.257322 
L 138.21756 98.647613 
L 145.739453 77.871781 
L 153.261345 81.058697 
L 160.783237 91.142185 
L 168.30513 86.044145 
L 175.827022 79.950151 
L 183.348915 71.758769 
L 190.870807 70.204105 
L 198.392699 90.986071 
L 205.914592 82.9913 
L 213.436484 65.029693 
L 220.958377 64.302284 
L 228.480269 66.34871 
L 236.002161 76.861862 
L 243.524054 62.609524 
L 251.045946 64.86767 
L 258.567839 57.641378 
L 266.089731 60.443018 
L 273.611623 62.213527 
L 281.133516 61.184119 
L 288.655408 67.758307 
L 296.177301 62.979077 
L 303.699193 59.146701 
L 311.221085 62.033715 
L 318.742978 60.291606 
L 326.26487 63.96148 
L 333.786763 60.405762 
L 341.308655 56.533679 
L 348.830547 52.750238 
L 356.35244 58.270047 
L 363.874332 64.372305 
L 371.396224 54.973277 
L 378.918117 63.421102 
L 386.440009 55.140457 
L 393.961902 60.569756 
L 401.483794 54.133809 
L 409.005686 58.906347 
L 416.527579 55.153507 
L 424.049471 57.086251 
L 431.571364 52.985762 
L 431.571364 47.60221 
L 431.571364 47.60221 
L 424.049471 47.080906 
L 416.527579 47.009306 
L 409.005686 49.699 
L 401.483794 49.174344 
L 393.961902 46.317583 
L 386.440009 48.883533 
L 378.918117 45.184246 
L 371.396224 48.334876 
L 363.874332 49.243903 
L 356.35244 50.621636 
L 348.830547 48.839906 
L 341.308655 49.637822 
L 333.786763 52.065107 
L 326.26487 51.659073 
L 318.742978 50.747588 
L 311.221085 53.443669 
L 303.699193 53.324168 
L 296.177301 52.211972 
L 288.655408 55.593287 
L 281.133516 53.004759 
L 273.611623 51.689016 
L 266.089731 54.31853 
L 258.567839 53.684151 
L 251.045946 57.052249 
L 243.524054 54.442703 
L 236.002161 61.951814 
L 228.480269 57.861888 
L 220.958377 53.895282 
L 213.436484 55.315384 
L 205.914592 54.963372 
L 198.392699 59.137833 
L 190.870807 60.30586 
L 183.348915 56.890019 
L 175.827022 60.438368 
L 168.30513 71.953968 
L 160.783237 62.704072 
L 153.261345 66.917696 
L 145.739453 64.521082 
L 138.21756 71.376565 
L 130.695668 73.326493 
L 123.173776 75.057501 
L 115.651883 77.106931 
L 108.129991 68.539576 
L 100.608098 90.794783 
L 93.086206 94.669375 
L 85.564314 120.302106 
L 78.042421 127.952289 
L 70.520529 160.414661 
L 62.998636 229.052783 
z
" style="fill:#2ca02c;fill-opacity:0.5;"/>
   </g>
   <g id="PolyCollection_4">
    <path clip-path="url(#p96042b0dd9)" d="M 62.998636 184.00914 
L 62.998636 251.753125 
L 70.520529 235.07938 
L 78.042421 209.887531 
L 85.564314 196.866854 
L 93.086206 189.069331 
L 100.608098 180.00102 
L 108.129991 166.520572 
L 115.651883 160.932107 
L 123.173776 149.890681 
L 130.695668 142.469924 
L 138.21756 139.840846 
L 145.739453 128.305602 
L 153.261345 128.682338 
L 160.783237 129.83738 
L 168.30513 125.136615 
L 175.827022 121.999824 
L 183.348915 121.374333 
L 190.870807 117.878725 
L 198.392699 119.825163 
L 205.914592 119.876087 
L 213.436484 117.041377 
L 220.958377 115.808152 
L 228.480269 115.996146 
L 236.002161 114.707809 
L 243.524054 113.361406 
L 251.045946 112.177258 
L 258.567839 112.395408 
L 266.089731 111.713514 
L 273.611623 111.729247 
L 281.133516 110.345404 
L 288.655408 109.42515 
L 296.177301 110.501118 
L 303.699193 108.91557 
L 311.221085 109.78174 
L 318.742978 108.892751 
L 326.26487 107.593352 
L 333.786763 108.053626 
L 341.308655 108.770281 
L 348.830547 107.822456 
L 356.35244 107.728502 
L 363.874332 107.713736 
L 371.396224 107.52252 
L 378.918117 107.839387 
L 386.440009 106.094341 
L 393.961902 107.17042 
L 401.483794 106.005274 
L 409.005686 106.391339 
L 416.527579 106.924945 
L 424.049471 106.023516 
L 431.571364 106.097854 
L 431.571364 86.471901 
L 431.571364 86.471901 
L 424.049471 86.09383 
L 416.527579 86.922866 
L 409.005686 86.936202 
L 401.483794 87.310957 
L 393.961902 87.469107 
L 386.440009 87.74216 
L 378.918117 89.163978 
L 371.396224 88.802231 
L 363.874332 88.441361 
L 356.35244 89.6481 
L 348.830547 88.490985 
L 341.308655 89.217073 
L 333.786763 89.221184 
L 326.26487 89.557046 
L 318.742978 90.248247 
L 311.221085 91.97192 
L 303.699193 91.130246 
L 296.177301 92.236533 
L 288.655408 91.367141 
L 281.133516 92.629761 
L 273.611623 93.587135 
L 266.089731 93.919554 
L 258.567839 94.447855 
L 251.045946 93.625464 
L 243.524054 94.375364 
L 236.002161 95.686865 
L 228.480269 95.574792 
L 220.958377 97.165254 
L 213.436484 97.605943 
L 205.914592 96.12846 
L 198.392699 97.536611 
L 190.870807 96.576321 
L 183.348915 98.88286 
L 175.827022 99.275289 
L 168.30513 101.465615 
L 160.783237 101.797901 
L 153.261345 102.489224 
L 145.739453 105.071454 
L 138.21756 104.156514 
L 130.695668 105.067537 
L 123.173776 107.158681 
L 115.651883 110.402072 
L 108.129991 114.619574 
L 100.608098 117.471094 
L 93.086206 119.826113 
L 85.564314 123.655504 
L 78.042421 136.331664 
L 70.520529 166.039658 
L 62.998636 184.00914 
z
" style="fill:#d62728;fill-opacity:0.5;"/>
   </g>
   <g id="matplotlib.axis_1">
    <g id="xtick_1">
     <g id="line2d_1">
      <defs>
       <path d="M 0 0 
L 0 3.5 
" id="m8e341650cd" style="stroke:#000000;stroke-width:0.8;"/>
      </defs>
      <g>
       <use style="stroke:#000000;stroke-width:0.8;" x="62.998636" xlink:href="#m8e341650cd" y="303.64"/>
      </g>
     </g>
     <g id="text_1">
      <!-- 0 -->
      <g transform="translate(59.817386 318.238437)scale(0.1 -0.1)">
       <defs>
        <path d="M 2034 4250 
Q 1547 4250 1301 3770 
Q 1056 3291 1056 2328 
Q 1056 1369 1301 889 
Q 1547 409 2034 409 
Q 2525 409 2770 889 
Q 3016 1369 3016 2328 
Q 3016 3291 2770 3770 
Q 2525 4250 2034 4250 
z
M 2034 4750 
Q 2819 4750 3233 4129 
Q 3647 3509 3647 2328 
Q 3647 1150 3233 529 
Q 2819 -91 2034 -91 
Q 1250 -91 836 529 
Q 422 1150 422 2328 
Q 422 3509 836 4129 
Q 1250 4750 2034 4750 
z
" id="DejaVuSans-30" transform="scale(0.015625)"/>
       </defs>
       <use xlink:href="#DejaVuSans-30"/>
      </g>
     </g>
    </g>
    <g id="xtick_2">
     <g id="line2d_2">
      <g>
       <use style="stroke:#000000;stroke-width:0.8;" x="138.21756" xlink:href="#m8e341650cd" y="303.64"/>
      </g>
     </g>
     <g id="text_2">
      <!-- 10 -->
      <g transform="translate(131.85506 318.238437)scale(0.1 -0.1)">
       <defs>
        <path d="M 794 531 
L 1825 531 
L 1825 4091 
L 703 3866 
L 703 4441 
L 1819 4666 
L 2450 4666 
L 2450 531 
L 3481 531 
L 3481 0 
L 794 0 
L 794 531 
z
" id="DejaVuSans-31" transform="scale(0.015625)"/>
       </defs>
       <use xlink:href="#DejaVuSans-31"/>
       <use x="63.623047" xlink:href="#DejaVuSans-30"/>
      </g>
     </g>
    </g>
    <g id="xtick_3">
     <g id="line2d_3">
      <g>
       <use style="stroke:#000000;stroke-width:0.8;" x="213.436484" xlink:href="#m8e341650cd" y="303.64"/>
      </g>
     </g>
     <g id="text_3">
      <!-- 20 -->
      <g transform="translate(207.073984 318.238437)scale(0.1 -0.1)">
       <defs>
        <path d="M 1228 531 
L 3431 531 
L 3431 0 
L 469 0 
L 469 531 
Q 828 903 1448 1529 
Q 2069 2156 2228 2338 
Q 2531 2678 2651 2914 
Q 2772 3150 2772 3378 
Q 2772 3750 2511 3984 
Q 2250 4219 1831 4219 
Q 1534 4219 1204 4116 
Q 875 4013 500 3803 
L 500 4441 
Q 881 4594 1212 4672 
Q 1544 4750 1819 4750 
Q 2544 4750 2975 4387 
Q 3406 4025 3406 3419 
Q 3406 3131 3298 2873 
Q 3191 2616 2906 2266 
Q 2828 2175 2409 1742 
Q 1991 1309 1228 531 
z
" id="DejaVuSans-32" transform="scale(0.015625)"/>
       </defs>
       <use xlink:href="#DejaVuSans-32"/>
       <use x="63.623047" xlink:href="#DejaVuSans-30"/>
      </g>
     </g>
    </g>
    <g id="xtick_4">
     <g id="line2d_4">
      <g>
       <use style="stroke:#000000;stroke-width:0.8;" x="288.655408" xlink:href="#m8e341650cd" y="303.64"/>
      </g>
     </g>
     <g id="text_4">
      <!-- 30 -->
      <g transform="translate(282.292908 318.238437)scale(0.1 -0.1)">
       <defs>
        <path d="M 2597 2516 
Q 3050 2419 3304 2112 
Q 3559 1806 3559 1356 
Q 3559 666 3084 287 
Q 2609 -91 1734 -91 
Q 1441 -91 1130 -33 
Q 819 25 488 141 
L 488 750 
Q 750 597 1062 519 
Q 1375 441 1716 441 
Q 2309 441 2620 675 
Q 2931 909 2931 1356 
Q 2931 1769 2642 2001 
Q 2353 2234 1838 2234 
L 1294 2234 
L 1294 2753 
L 1863 2753 
Q 2328 2753 2575 2939 
Q 2822 3125 2822 3475 
Q 2822 3834 2567 4026 
Q 2313 4219 1838 4219 
Q 1578 4219 1281 4162 
Q 984 4106 628 3988 
L 628 4550 
Q 988 4650 1302 4700 
Q 1616 4750 1894 4750 
Q 2613 4750 3031 4423 
Q 3450 4097 3450 3541 
Q 3450 3153 3228 2886 
Q 3006 2619 2597 2516 
z
" id="DejaVuSans-33" transform="scale(0.015625)"/>
       </defs>
       <use xlink:href="#DejaVuSans-33"/>
       <use x="63.623047" xlink:href="#DejaVuSans-30"/>
      </g>
     </g>
    </g>
    <g id="xtick_5">
     <g id="line2d_5">
      <g>
       <use style="stroke:#000000;stroke-width:0.8;" x="363.874332" xlink:href="#m8e341650cd" y="303.64"/>
      </g>
     </g>
     <g id="text_5">
      <!-- 40 -->
      <g transform="translate(357.511832 318.238437)scale(0.1 -0.1)">
       <defs>
        <path d="M 2419 4116 
L 825 1625 
L 2419 1625 
L 2419 4116 
z
M 2253 4666 
L 3047 4666 
L 3047 1625 
L 3713 1625 
L 3713 1100 
L 3047 1100 
L 3047 0 
L 2419 0 
L 2419 1100 
L 313 1100 
L 313 1709 
L 2253 4666 
z
" id="DejaVuSans-34" transform="scale(0.015625)"/>
       </defs>
       <use xlink:href="#DejaVuSans-34"/>
       <use x="63.623047" xlink:href="#DejaVuSans-30"/>
      </g>
     </g>
    </g>
    <g id="xtick_6">
     <g id="line2d_6">
      <g>
       <use style="stroke:#000000;stroke-width:0.8;" x="439.093256" xlink:href="#m8e341650cd" y="303.64"/>
      </g>
     </g>
     <g id="text_6">
      <!-- 50 -->
      <g transform="translate(432.730756 318.238437)scale(0.1 -0.1)">
       <defs>
        <path d="M 691 4666 
L 3169 4666 
L 3169 4134 
L 1269 4134 
L 1269 2991 
Q 1406 3038 1543 3061 
Q 1681 3084 1819 3084 
Q 2600 3084 3056 2656 
Q 3513 2228 3513 1497 
Q 3513 744 3044 326 
Q 2575 -91 1722 -91 
Q 1428 -91 1123 -41 
Q 819 9 494 109 
L 494 744 
Q 775 591 1075 516 
Q 1375 441 1709 441 
Q 2250 441 2565 725 
Q 2881 1009 2881 1497 
Q 2881 1984 2565 2268 
Q 2250 2553 1709 2553 
Q 1456 2553 1204 2497 
Q 953 2441 691 2322 
L 691 4666 
z
" id="DejaVuSans-35" transform="scale(0.015625)"/>
       </defs>
       <use xlink:href="#DejaVuSans-35"/>
       <use x="63.623047" xlink:href="#DejaVuSans-30"/>
      </g>
     </g>
    </g>
    <g id="text_7">
     <!-- Global Communication Rounds -->
     <g transform="translate(170.323281 331.916562)scale(0.1 -0.1)">
      <defs>
       <path d="M 3809 666 
L 3809 1919 
L 2778 1919 
L 2778 2438 
L 4434 2438 
L 4434 434 
Q 4069 175 3628 42 
Q 3188 -91 2688 -91 
Q 1594 -91 976 548 
Q 359 1188 359 2328 
Q 359 3472 976 4111 
Q 1594 4750 2688 4750 
Q 3144 4750 3555 4637 
Q 3966 4525 4313 4306 
L 4313 3634 
Q 3963 3931 3569 4081 
Q 3175 4231 2741 4231 
Q 1884 4231 1454 3753 
Q 1025 3275 1025 2328 
Q 1025 1384 1454 906 
Q 1884 428 2741 428 
Q 3075 428 3337 486 
Q 3600 544 3809 666 
z
" id="DejaVuSans-47" transform="scale(0.015625)"/>
       <path d="M 603 4863 
L 1178 4863 
L 1178 0 
L 603 0 
L 603 4863 
z
" id="DejaVuSans-6c" transform="scale(0.015625)"/>
       <path d="M 1959 3097 
Q 1497 3097 1228 2736 
Q 959 2375 959 1747 
Q 959 1119 1226 758 
Q 1494 397 1959 397 
Q 2419 397 2687 759 
Q 2956 1122 2956 1747 
Q 2956 2369 2687 2733 
Q 2419 3097 1959 3097 
z
M 1959 3584 
Q 2709 3584 3137 3096 
Q 3566 2609 3566 1747 
Q 3566 888 3137 398 
Q 2709 -91 1959 -91 
Q 1206 -91 779 398 
Q 353 888 353 1747 
Q 353 2609 779 3096 
Q 1206 3584 1959 3584 
z
" id="DejaVuSans-6f" transform="scale(0.015625)"/>
       <path d="M 3116 1747 
Q 3116 2381 2855 2742 
Q 2594 3103 2138 3103 
Q 1681 3103 1420 2742 
Q 1159 2381 1159 1747 
Q 1159 1113 1420 752 
Q 1681 391 2138 391 
Q 2594 391 2855 752 
Q 3116 1113 3116 1747 
z
M 1159 2969 
Q 1341 3281 1617 3432 
Q 1894 3584 2278 3584 
Q 2916 3584 3314 3078 
Q 3713 2572 3713 1747 
Q 3713 922 3314 415 
Q 2916 -91 2278 -91 
Q 1894 -91 1617 61 
Q 1341 213 1159 525 
L 1159 0 
L 581 0 
L 581 4863 
L 1159 4863 
L 1159 2969 
z
" id="DejaVuSans-62" transform="scale(0.015625)"/>
       <path d="M 2194 1759 
Q 1497 1759 1228 1600 
Q 959 1441 959 1056 
Q 959 750 1161 570 
Q 1363 391 1709 391 
Q 2188 391 2477 730 
Q 2766 1069 2766 1631 
L 2766 1759 
L 2194 1759 
z
M 3341 1997 
L 3341 0 
L 2766 0 
L 2766 531 
Q 2569 213 2275 61 
Q 1981 -91 1556 -91 
Q 1019 -91 701 211 
Q 384 513 384 1019 
Q 384 1609 779 1909 
Q 1175 2209 1959 2209 
L 2766 2209 
L 2766 2266 
Q 2766 2663 2505 2880 
Q 2244 3097 1772 3097 
Q 1472 3097 1187 3025 
Q 903 2953 641 2809 
L 641 3341 
Q 956 3463 1253 3523 
Q 1550 3584 1831 3584 
Q 2591 3584 2966 3190 
Q 3341 2797 3341 1997 
z
" id="DejaVuSans-61" transform="scale(0.015625)"/>
       <path id="DejaVuSans-20" transform="scale(0.015625)"/>
       <path d="M 4122 4306 
L 4122 3641 
Q 3803 3938 3442 4084 
Q 3081 4231 2675 4231 
Q 1875 4231 1450 3742 
Q 1025 3253 1025 2328 
Q 1025 1406 1450 917 
Q 1875 428 2675 428 
Q 3081 428 3442 575 
Q 3803 722 4122 1019 
L 4122 359 
Q 3791 134 3420 21 
Q 3050 -91 2638 -91 
Q 1578 -91 968 557 
Q 359 1206 359 2328 
Q 359 3453 968 4101 
Q 1578 4750 2638 4750 
Q 3056 4750 3426 4639 
Q 3797 4528 4122 4306 
z
" id="DejaVuSans-43" transform="scale(0.015625)"/>
       <path d="M 3328 2828 
Q 3544 3216 3844 3400 
Q 4144 3584 4550 3584 
Q 5097 3584 5394 3201 
Q 5691 2819 5691 2113 
L 5691 0 
L 5113 0 
L 5113 2094 
Q 5113 2597 4934 2840 
Q 4756 3084 4391 3084 
Q 3944 3084 3684 2787 
Q 3425 2491 3425 1978 
L 3425 0 
L 2847 0 
L 2847 2094 
Q 2847 2600 2669 2842 
Q 2491 3084 2119 3084 
Q 1678 3084 1418 2786 
Q 1159 2488 1159 1978 
L 1159 0 
L 581 0 
L 581 3500 
L 1159 3500 
L 1159 2956 
Q 1356 3278 1631 3431 
Q 1906 3584 2284 3584 
Q 2666 3584 2933 3390 
Q 3200 3197 3328 2828 
z
" id="DejaVuSans-6d" transform="scale(0.015625)"/>
       <path d="M 544 1381 
L 544 3500 
L 1119 3500 
L 1119 1403 
Q 1119 906 1312 657 
Q 1506 409 1894 409 
Q 2359 409 2629 706 
Q 2900 1003 2900 1516 
L 2900 3500 
L 3475 3500 
L 3475 0 
L 2900 0 
L 2900 538 
Q 2691 219 2414 64 
Q 2138 -91 1772 -91 
Q 1169 -91 856 284 
Q 544 659 544 1381 
z
M 1991 3584 
L 1991 3584 
z
" id="DejaVuSans-75" transform="scale(0.015625)"/>
       <path d="M 3513 2113 
L 3513 0 
L 2938 0 
L 2938 2094 
Q 2938 2591 2744 2837 
Q 2550 3084 2163 3084 
Q 1697 3084 1428 2787 
Q 1159 2491 1159 1978 
L 1159 0 
L 581 0 
L 581 3500 
L 1159 3500 
L 1159 2956 
Q 1366 3272 1645 3428 
Q 1925 3584 2291 3584 
Q 2894 3584 3203 3211 
Q 3513 2838 3513 2113 
z
" id="DejaVuSans-6e" transform="scale(0.015625)"/>
       <path d="M 603 3500 
L 1178 3500 
L 1178 0 
L 603 0 
L 603 3500 
z
M 603 4863 
L 1178 4863 
L 1178 4134 
L 603 4134 
L 603 4863 
z
" id="DejaVuSans-69" transform="scale(0.015625)"/>
       <path d="M 3122 3366 
L 3122 2828 
Q 2878 2963 2633 3030 
Q 2388 3097 2138 3097 
Q 1578 3097 1268 2742 
Q 959 2388 959 1747 
Q 959 1106 1268 751 
Q 1578 397 2138 397 
Q 2388 397 2633 464 
Q 2878 531 3122 666 
L 3122 134 
Q 2881 22 2623 -34 
Q 2366 -91 2075 -91 
Q 1284 -91 818 406 
Q 353 903 353 1747 
Q 353 2603 823 3093 
Q 1294 3584 2113 3584 
Q 2378 3584 2631 3529 
Q 2884 3475 3122 3366 
z
" id="DejaVuSans-63" transform="scale(0.015625)"/>
       <path d="M 1172 4494 
L 1172 3500 
L 2356 3500 
L 2356 3053 
L 1172 3053 
L 1172 1153 
Q 1172 725 1289 603 
Q 1406 481 1766 481 
L 2356 481 
L 2356 0 
L 1766 0 
Q 1100 0 847 248 
Q 594 497 594 1153 
L 594 3053 
L 172 3053 
L 172 3500 
L 594 3500 
L 594 4494 
L 1172 4494 
z
" id="DejaVuSans-74" transform="scale(0.015625)"/>
       <path d="M 2841 2188 
Q 3044 2119 3236 1894 
Q 3428 1669 3622 1275 
L 4263 0 
L 3584 0 
L 2988 1197 
Q 2756 1666 2539 1819 
Q 2322 1972 1947 1972 
L 1259 1972 
L 1259 0 
L 628 0 
L 628 4666 
L 2053 4666 
Q 2853 4666 3247 4331 
Q 3641 3997 3641 3322 
Q 3641 2881 3436 2590 
Q 3231 2300 2841 2188 
z
M 1259 4147 
L 1259 2491 
L 2053 2491 
Q 2509 2491 2742 2702 
Q 2975 2913 2975 3322 
Q 2975 3731 2742 3939 
Q 2509 4147 2053 4147 
L 1259 4147 
z
" id="DejaVuSans-52" transform="scale(0.015625)"/>
       <path d="M 2906 2969 
L 2906 4863 
L 3481 4863 
L 3481 0 
L 2906 0 
L 2906 525 
Q 2725 213 2448 61 
Q 2172 -91 1784 -91 
Q 1150 -91 751 415 
Q 353 922 353 1747 
Q 353 2572 751 3078 
Q 1150 3584 1784 3584 
Q 2172 3584 2448 3432 
Q 2725 3281 2906 2969 
z
M 947 1747 
Q 947 1113 1208 752 
Q 1469 391 1925 391 
Q 2381 391 2643 752 
Q 2906 1113 2906 1747 
Q 2906 2381 2643 2742 
Q 2381 3103 1925 3103 
Q 1469 3103 1208 2742 
Q 947 2381 947 1747 
z
" id="DejaVuSans-64" transform="scale(0.015625)"/>
       <path d="M 2834 3397 
L 2834 2853 
Q 2591 2978 2328 3040 
Q 2066 3103 1784 3103 
Q 1356 3103 1142 2972 
Q 928 2841 928 2578 
Q 928 2378 1081 2264 
Q 1234 2150 1697 2047 
L 1894 2003 
Q 2506 1872 2764 1633 
Q 3022 1394 3022 966 
Q 3022 478 2636 193 
Q 2250 -91 1575 -91 
Q 1294 -91 989 -36 
Q 684 19 347 128 
L 347 722 
Q 666 556 975 473 
Q 1284 391 1588 391 
Q 1994 391 2212 530 
Q 2431 669 2431 922 
Q 2431 1156 2273 1281 
Q 2116 1406 1581 1522 
L 1381 1569 
Q 847 1681 609 1914 
Q 372 2147 372 2553 
Q 372 3047 722 3315 
Q 1072 3584 1716 3584 
Q 2034 3584 2315 3537 
Q 2597 3491 2834 3397 
z
" id="DejaVuSans-73" transform="scale(0.015625)"/>
      </defs>
      <use xlink:href="#DejaVuSans-47"/>
      <use x="77.490234" xlink:href="#DejaVuSans-6c"/>
      <use x="105.273438" xlink:href="#DejaVuSans-6f"/>
      <use x="166.455078" xlink:href="#DejaVuSans-62"/>
      <use x="229.931641" xlink:href="#DejaVuSans-61"/>
      <use x="291.210938" xlink:href="#DejaVuSans-6c"/>
      <use x="318.994141" xlink:href="#DejaVuSans-20"/>
      <use x="350.78125" xlink:href="#DejaVuSans-43"/>
      <use x="420.605469" xlink:href="#DejaVuSans-6f"/>
      <use x="481.787109" xlink:href="#DejaVuSans-6d"/>
      <use x="579.199219" xlink:href="#DejaVuSans-6d"/>
      <use x="676.611328" xlink:href="#DejaVuSans-75"/>
      <use x="739.990234" xlink:href="#DejaVuSans-6e"/>
      <use x="803.369141" xlink:href="#DejaVuSans-69"/>
      <use x="831.152344" xlink:href="#DejaVuSans-63"/>
      <use x="886.132812" xlink:href="#DejaVuSans-61"/>
      <use x="947.412109" xlink:href="#DejaVuSans-74"/>
      <use x="986.621094" xlink:href="#DejaVuSans-69"/>
      <use x="1014.404297" xlink:href="#DejaVuSans-6f"/>
      <use x="1075.585938" xlink:href="#DejaVuSans-6e"/>
      <use x="1138.964844" xlink:href="#DejaVuSans-20"/>
      <use x="1170.751953" xlink:href="#DejaVuSans-52"/>
      <use x="1235.734375" xlink:href="#DejaVuSans-6f"/>
      <use x="1296.916016" xlink:href="#DejaVuSans-75"/>
      <use x="1360.294922" xlink:href="#DejaVuSans-6e"/>
      <use x="1423.673828" xlink:href="#DejaVuSans-64"/>
      <use x="1487.150391" xlink:href="#DejaVuSans-73"/>
     </g>
    </g>
   </g>
   <g id="matplotlib.axis_2">
    <g id="ytick_1">
     <g id="line2d_7">
      <defs>
       <path d="M 0 0 
L -3.5 0 
" id="m5c97abe041" style="stroke:#000000;stroke-width:0.8;"/>
      </defs>
      <g>
       <use style="stroke:#000000;stroke-width:0.8;" x="44.57" xlink:href="#m5c97abe041" y="257.099346"/>
      </g>
     </g>
     <g id="text_8">
      <!-- 20 -->
      <g transform="translate(24.845 260.898565)scale(0.1 -0.1)">
       <use xlink:href="#DejaVuSans-32"/>
       <use x="63.623047" xlink:href="#DejaVuSans-30"/>
      </g>
     </g>
    </g>
    <g id="ytick_2">
     <g id="line2d_8">
      <g>
       <use style="stroke:#000000;stroke-width:0.8;" x="44.57" xlink:href="#m5c97abe041" y="200.548209"/>
      </g>
     </g>
     <g id="text_9">
      <!-- 40 -->
      <g transform="translate(24.845 204.347428)scale(0.1 -0.1)">
       <use xlink:href="#DejaVuSans-34"/>
       <use x="63.623047" xlink:href="#DejaVuSans-30"/>
      </g>
     </g>
    </g>
    <g id="ytick_3">
     <g id="line2d_9">
      <g>
       <use style="stroke:#000000;stroke-width:0.8;" x="44.57" xlink:href="#m5c97abe041" y="143.997072"/>
      </g>
     </g>
     <g id="text_10">
      <!-- 60 -->
      <g transform="translate(24.845 147.796291)scale(0.1 -0.1)">
       <defs>
        <path d="M 2113 2584 
Q 1688 2584 1439 2293 
Q 1191 2003 1191 1497 
Q 1191 994 1439 701 
Q 1688 409 2113 409 
Q 2538 409 2786 701 
Q 3034 994 3034 1497 
Q 3034 2003 2786 2293 
Q 2538 2584 2113 2584 
z
M 3366 4563 
L 3366 3988 
Q 3128 4100 2886 4159 
Q 2644 4219 2406 4219 
Q 1781 4219 1451 3797 
Q 1122 3375 1075 2522 
Q 1259 2794 1537 2939 
Q 1816 3084 2150 3084 
Q 2853 3084 3261 2657 
Q 3669 2231 3669 1497 
Q 3669 778 3244 343 
Q 2819 -91 2113 -91 
Q 1303 -91 875 529 
Q 447 1150 447 2328 
Q 447 3434 972 4092 
Q 1497 4750 2381 4750 
Q 2619 4750 2861 4703 
Q 3103 4656 3366 4563 
z
" id="DejaVuSans-36" transform="scale(0.015625)"/>
       </defs>
       <use xlink:href="#DejaVuSans-36"/>
       <use x="63.623047" xlink:href="#DejaVuSans-30"/>
      </g>
     </g>
    </g>
    <g id="ytick_4">
     <g id="line2d_10">
      <g>
       <use style="stroke:#000000;stroke-width:0.8;" x="44.57" xlink:href="#m5c97abe041" y="87.445935"/>
      </g>
     </g>
     <g id="text_11">
      <!-- 80 -->
      <g transform="translate(24.845 91.245154)scale(0.1 -0.1)">
       <defs>
        <path d="M 2034 2216 
Q 1584 2216 1326 1975 
Q 1069 1734 1069 1313 
Q 1069 891 1326 650 
Q 1584 409 2034 409 
Q 2484 409 2743 651 
Q 3003 894 3003 1313 
Q 3003 1734 2745 1975 
Q 2488 2216 2034 2216 
z
M 1403 2484 
Q 997 2584 770 2862 
Q 544 3141 544 3541 
Q 544 4100 942 4425 
Q 1341 4750 2034 4750 
Q 2731 4750 3128 4425 
Q 3525 4100 3525 3541 
Q 3525 3141 3298 2862 
Q 3072 2584 2669 2484 
Q 3125 2378 3379 2068 
Q 3634 1759 3634 1313 
Q 3634 634 3220 271 
Q 2806 -91 2034 -91 
Q 1263 -91 848 271 
Q 434 634 434 1313 
Q 434 1759 690 2068 
Q 947 2378 1403 2484 
z
M 1172 3481 
Q 1172 3119 1398 2916 
Q 1625 2713 2034 2713 
Q 2441 2713 2670 2916 
Q 2900 3119 2900 3481 
Q 2900 3844 2670 4047 
Q 2441 4250 2034 4250 
Q 1625 4250 1398 4047 
Q 1172 3844 1172 3481 
z
" id="DejaVuSans-38" transform="scale(0.015625)"/>
       </defs>
       <use xlink:href="#DejaVuSans-38"/>
       <use x="63.623047" xlink:href="#DejaVuSans-30"/>
      </g>
     </g>
    </g>
    <g id="text_12">
     <!-- Test Accuracy -->
     <g transform="translate(18.765313 202.520914)rotate(-90)scale(0.1 -0.1)">
      <defs>
       <path d="M -19 4666 
L 3928 4666 
L 3928 4134 
L 2272 4134 
L 2272 0 
L 1638 0 
L 1638 4134 
L -19 4134 
L -19 4666 
z
" id="DejaVuSans-54" transform="scale(0.015625)"/>
       <path d="M 3597 1894 
L 3597 1613 
L 953 1613 
Q 991 1019 1311 708 
Q 1631 397 2203 397 
Q 2534 397 2845 478 
Q 3156 559 3463 722 
L 3463 178 
Q 3153 47 2828 -22 
Q 2503 -91 2169 -91 
Q 1331 -91 842 396 
Q 353 884 353 1716 
Q 353 2575 817 3079 
Q 1281 3584 2069 3584 
Q 2775 3584 3186 3129 
Q 3597 2675 3597 1894 
z
M 3022 2063 
Q 3016 2534 2758 2815 
Q 2500 3097 2075 3097 
Q 1594 3097 1305 2825 
Q 1016 2553 972 2059 
L 3022 2063 
z
" id="DejaVuSans-65" transform="scale(0.015625)"/>
       <path d="M 2188 4044 
L 1331 1722 
L 3047 1722 
L 2188 4044 
z
M 1831 4666 
L 2547 4666 
L 4325 0 
L 3669 0 
L 3244 1197 
L 1141 1197 
L 716 0 
L 50 0 
L 1831 4666 
z
" id="DejaVuSans-41" transform="scale(0.015625)"/>
       <path d="M 2631 2963 
Q 2534 3019 2420 3045 
Q 2306 3072 2169 3072 
Q 1681 3072 1420 2755 
Q 1159 2438 1159 1844 
L 1159 0 
L 581 0 
L 581 3500 
L 1159 3500 
L 1159 2956 
Q 1341 3275 1631 3429 
Q 1922 3584 2338 3584 
Q 2397 3584 2469 3576 
Q 2541 3569 2628 3553 
L 2631 2963 
z
" id="DejaVuSans-72" transform="scale(0.015625)"/>
       <path d="M 2059 -325 
Q 1816 -950 1584 -1140 
Q 1353 -1331 966 -1331 
L 506 -1331 
L 506 -850 
L 844 -850 
Q 1081 -850 1212 -737 
Q 1344 -625 1503 -206 
L 1606 56 
L 191 3500 
L 800 3500 
L 1894 763 
L 2988 3500 
L 3597 3500 
L 2059 -325 
z
" id="DejaVuSans-79" transform="scale(0.015625)"/>
      </defs>
      <use xlink:href="#DejaVuSans-54"/>
      <use x="44.083984" xlink:href="#DejaVuSans-65"/>
      <use x="105.607422" xlink:href="#DejaVuSans-73"/>
      <use x="157.707031" xlink:href="#DejaVuSans-74"/>
      <use x="196.916016" xlink:href="#DejaVuSans-20"/>
      <use x="228.703125" xlink:href="#DejaVuSans-41"/>
      <use x="295.361328" xlink:href="#DejaVuSans-63"/>
      <use x="350.341797" xlink:href="#DejaVuSans-63"/>
      <use x="405.322266" xlink:href="#DejaVuSans-75"/>
      <use x="468.701172" xlink:href="#DejaVuSans-72"/>
      <use x="509.814453" xlink:href="#DejaVuSans-61"/>
      <use x="571.09375" xlink:href="#DejaVuSans-63"/>
      <use x="626.074219" xlink:href="#DejaVuSans-79"/>
     </g>
    </g>
   </g>
   <g id="line2d_11">
    <path clip-path="url(#p96042b0dd9)" d="M 62.998636 215.294455 
L 70.520529 203.339974 
L 78.042421 175.92341 
L 85.564314 148.793181 
L 93.086206 122.020871 
L 100.608098 101.190009 
L 108.129991 107.203041 
L 115.651883 98.541411 
L 123.173776 84.797338 
L 130.695668 72.341771 
L 138.21756 83.866749 
L 145.739453 70.337427 
L 153.261345 74.63245 
L 160.783237 72.556522 
L 168.30513 70.98168 
L 175.827022 71.339599 
L 183.348915 67.688829 
L 190.870807 63.536973 
L 198.392699 65.39815 
L 205.914592 67.402494 
L 213.436484 70.695345 
L 220.958377 77.495798 
L 228.480269 62.89272 
L 236.002161 63.035887 
L 243.524054 61.031543 
L 251.045946 65.040232 
L 258.567839 62.964304 
L 266.089731 62.248467 
L 273.611623 58.311362 
L 281.133516 60.029371 
L 288.655408 61.103127 
L 296.177301 55.519597 
L 303.699193 55.662765 
L 311.221085 55.949099 
L 318.742978 51.582493 
L 326.26487 53.730004 
L 333.786763 58.669281 
L 341.308655 53.157334 
L 348.830547 53.801588 
L 356.35244 53.443669 
L 363.874332 51.868828 
L 371.396224 57.452357 
L 378.918117 57.595525 
L 386.440009 51.654076 
L 393.961902 55.304846 
L 401.483794 49.578149 
L 409.005686 54.23109 
L 416.527579 50.938239 
L 424.049471 50.723488 
L 431.571364 54.445841 
" style="fill:none;stroke:#1f77b4;stroke-linecap:square;stroke-width:1.5;"/>
   </g>
   <g id="line2d_12">
    <path clip-path="url(#p96042b0dd9)" d="M 62.998636 232.045045 
L 70.520529 240.778258 
L 78.042421 269.053827 
L 85.564314 207.778164 
L 93.086206 242.92577 
L 100.608098 191.170742 
L 108.129991 192.459249 
L 115.651883 176.352912 
L 123.173776 193.318253 
L 130.695668 175.135989 
L 138.21756 186.947303 
L 145.739453 150.654358 
L 153.261345 197.613276 
L 160.783237 159.817074 
L 168.30513 166.975445 
L 175.827022 144.999244 
L 183.348915 149.1511 
L 190.870807 156.381055 
L 198.392699 142.350647 
L 205.914592 175.422324 
L 213.436484 175.35074 
L 220.958377 153.374539 
L 228.480269 155.665218 
L 236.002161 145.070828 
L 243.524054 137.769289 
L 251.045946 143.925488 
L 258.567839 145.715081 
L 266.089731 158.743318 
L 273.611623 136.767117 
L 281.133516 152.945037 
L 288.655408 131.541505 
L 296.177301 130.682501 
L 303.699193 130.539333 
L 311.221085 129.89508 
L 318.742978 129.89508 
L 326.26487 134.619605 
L 333.786763 139.34413 
L 341.308655 134.762772 
L 348.830547 147.719425 
L 356.35244 123.309378 
L 363.874332 124.025215 
L 371.396224 144.140239 
L 378.918117 152.086032 
L 386.440009 130.754084 
L 393.961902 131.398338 
L 401.483794 120.732364 
L 409.005686 123.667296 
L 416.527579 144.569742 
L 424.049471 139.773633 
L 431.571364 141.420058 
" style="fill:none;stroke:#ff7f0e;stroke-linecap:square;stroke-width:1.5;"/>
   </g>
   <g id="line2d_13">
    <path clip-path="url(#p96042b0dd9)" d="M 62.998636 243.784774 
L 70.520529 182.509112 
L 78.042421 146.860421 
L 85.564314 137.268203 
L 93.086206 121.80612 
L 100.608098 108.062046 
L 108.129991 86.229012 
L 115.651883 98.398244 
L 123.173776 89.450279 
L 130.695668 82.291907 
L 138.21756 85.012089 
L 145.739453 71.196431 
L 153.261345 73.988196 
L 160.783237 76.923129 
L 168.30513 78.999056 
L 175.827022 70.194259 
L 183.348915 64.324394 
L 190.870807 65.254983 
L 198.392699 75.061952 
L 205.914592 68.977336 
L 213.436484 60.172539 
L 220.958377 59.098783 
L 228.480269 62.105299 
L 236.002161 69.406838 
L 243.524054 58.526113 
L 251.045946 60.95996 
L 258.567839 55.662765 
L 266.089731 57.380774 
L 273.611623 56.951271 
L 281.133516 57.094439 
L 288.655408 61.675797 
L 296.177301 57.595525 
L 303.699193 56.235434 
L 311.221085 57.738692 
L 318.742978 55.519597 
L 326.26487 57.810276 
L 333.786763 56.235434 
L 341.308655 53.085751 
L 348.830547 50.795072 
L 356.35244 54.445841 
L 363.874332 56.808104 
L 371.396224 51.654076 
L 378.918117 54.302674 
L 386.440009 52.011995 
L 393.961902 53.443669 
L 401.483794 51.654076 
L 409.005686 54.302674 
L 416.527579 51.081407 
L 424.049471 52.083579 
L 431.571364 50.293986 
" style="fill:none;stroke:#2ca02c;stroke-linecap:square;stroke-width:1.5;"/>
   </g>
   <g id="line2d_14">
    <path clip-path="url(#p96042b0dd9)" d="M 62.998636 217.881132 
L 70.520529 200.559519 
L 78.042421 173.109597 
L 85.564314 160.261179 
L 93.086206 154.447722 
L 100.608098 148.736057 
L 108.129991 140.570073 
L 115.651883 135.66709 
L 123.173776 128.524681 
L 130.695668 123.76873 
L 138.21756 121.99868 
L 145.739453 116.688528 
L 153.261345 115.585781 
L 160.783237 115.817641 
L 168.30513 113.301115 
L 175.827022 110.637556 
L 183.348915 110.128596 
L 190.870807 107.227523 
L 198.392699 108.680887 
L 205.914592 108.002273 
L 213.436484 107.32366 
L 220.958377 106.486703 
L 228.480269 105.785469 
L 236.002161 105.197337 
L 243.524054 103.868385 
L 251.045946 102.901361 
L 258.567839 103.421631 
L 266.089731 102.816534 
L 273.611623 102.658191 
L 281.133516 101.487582 
L 288.655408 100.396145 
L 296.177301 101.368825 
L 303.699193 100.022908 
L 311.221085 100.87683 
L 318.742978 99.570499 
L 326.26487 98.575199 
L 333.786763 98.637405 
L 341.308655 98.993677 
L 348.830547 98.15672 
L 356.35244 98.688301 
L 363.874332 98.077549 
L 371.396224 98.162376 
L 378.918117 98.501682 
L 386.440009 96.918251 
L 393.961902 97.319764 
L 401.483794 96.658115 
L 409.005686 96.66377 
L 416.527579 96.923906 
L 424.049471 96.058673 
L 431.571364 96.284878 
" style="fill:none;stroke:#d62728;stroke-linecap:square;stroke-width:1.5;"/>
   </g>
   <g id="patch_3">
    <path d="M 44.57 303.64 
L 44.57 32.876829 
" style="fill:none;stroke:#000000;stroke-linecap:square;stroke-linejoin:miter;stroke-width:0.8;"/>
   </g>
   <g id="patch_4">
    <path d="M 450 303.64 
L 450 32.876829 
" style="fill:none;stroke:#000000;stroke-linecap:square;stroke-linejoin:miter;stroke-width:0.8;"/>
   </g>
   <g id="patch_5">
    <path d="M 44.57 303.64 
L 450 303.64 
" style="fill:none;stroke:#000000;stroke-linecap:square;stroke-linejoin:miter;stroke-width:0.8;"/>
   </g>
   <g id="patch_6">
    <path d="M 44.57 32.876829 
L 450 32.876829 
" style="fill:none;stroke:#000000;stroke-linecap:square;stroke-linejoin:miter;stroke-width:0.8;"/>
   </g>
   <g id="legend_1">
    <g id="patch_7">
     <path d="M 80.886563 28.478637 
L 413.683438 28.478637 
Q 415.683438 28.478637 415.683438 26.478637 
L 415.683438 12.800512 
Q 415.683438 10.800512 413.683438 10.800512 
L 80.886563 10.800512 
Q 78.886563 10.800512 78.886563 12.800512 
L 78.886563 26.478637 
Q 78.886563 28.478637 80.886563 28.478637 
z
" style="fill:#ffffff;opacity:0.8;stroke:#cccccc;stroke-linejoin:miter;"/>
    </g>
    <g id="line2d_15">
     <path d="M 82.886563 18.898949 
L 102.886563 18.898949 
" style="fill:none;stroke:#1f77b4;stroke-linecap:square;stroke-width:1.5;"/>
    </g>
    <g id="line2d_16"/>
    <g id="text_13">
     <!-- FedAvg -->
     <g transform="translate(110.886563 22.398949)scale(0.1 -0.1)">
      <defs>
       <path d="M 628 4666 
L 3309 4666 
L 3309 4134 
L 1259 4134 
L 1259 2759 
L 3109 2759 
L 3109 2228 
L 1259 2228 
L 1259 0 
L 628 0 
L 628 4666 
z
" id="DejaVuSans-46" transform="scale(0.015625)"/>
       <path d="M 191 3500 
L 800 3500 
L 1894 563 
L 2988 3500 
L 3597 3500 
L 2284 0 
L 1503 0 
L 191 3500 
z
" id="DejaVuSans-76" transform="scale(0.015625)"/>
       <path d="M 2906 1791 
Q 2906 2416 2648 2759 
Q 2391 3103 1925 3103 
Q 1463 3103 1205 2759 
Q 947 2416 947 1791 
Q 947 1169 1205 825 
Q 1463 481 1925 481 
Q 2391 481 2648 825 
Q 2906 1169 2906 1791 
z
M 3481 434 
Q 3481 -459 3084 -895 
Q 2688 -1331 1869 -1331 
Q 1566 -1331 1297 -1286 
Q 1028 -1241 775 -1147 
L 775 -588 
Q 1028 -725 1275 -790 
Q 1522 -856 1778 -856 
Q 2344 -856 2625 -561 
Q 2906 -266 2906 331 
L 2906 616 
Q 2728 306 2450 153 
Q 2172 0 1784 0 
Q 1141 0 747 490 
Q 353 981 353 1791 
Q 353 2603 747 3093 
Q 1141 3584 1784 3584 
Q 2172 3584 2450 3431 
Q 2728 3278 2906 2969 
L 2906 3500 
L 3481 3500 
L 3481 434 
z
" id="DejaVuSans-67" transform="scale(0.015625)"/>
      </defs>
      <use xlink:href="#DejaVuSans-46"/>
      <use x="52.019531" xlink:href="#DejaVuSans-65"/>
      <use x="113.542969" xlink:href="#DejaVuSans-64"/>
      <use x="177.019531" xlink:href="#DejaVuSans-41"/>
      <use x="239.552734" xlink:href="#DejaVuSans-76"/>
      <use x="298.732422" xlink:href="#DejaVuSans-67"/>
     </g>
    </g>
    <g id="line2d_17">
     <path d="M 167.11 18.898949 
L 187.11 18.898949 
" style="fill:none;stroke:#ff7f0e;stroke-linecap:square;stroke-width:1.5;"/>
    </g>
    <g id="line2d_18"/>
    <g id="text_14">
     <!-- FedMed -->
     <g transform="translate(195.11 22.398949)scale(0.1 -0.1)">
      <defs>
       <path d="M 628 4666 
L 1569 4666 
L 2759 1491 
L 3956 4666 
L 4897 4666 
L 4897 0 
L 4281 0 
L 4281 4097 
L 3078 897 
L 2444 897 
L 1241 4097 
L 1241 0 
L 628 0 
L 628 4666 
z
" id="DejaVuSans-4d" transform="scale(0.015625)"/>
      </defs>
      <use xlink:href="#DejaVuSans-46"/>
      <use x="52.019531" xlink:href="#DejaVuSans-65"/>
      <use x="113.542969" xlink:href="#DejaVuSans-64"/>
      <use x="177.019531" xlink:href="#DejaVuSans-4d"/>
      <use x="263.298828" xlink:href="#DejaVuSans-65"/>
      <use x="324.822266" xlink:href="#DejaVuSans-64"/>
     </g>
    </g>
    <g id="line2d_19">
     <path d="M 253.942813 18.898949 
L 273.942813 18.898949 
" style="fill:none;stroke:#2ca02c;stroke-linecap:square;stroke-width:1.5;"/>
    </g>
    <g id="line2d_20"/>
    <g id="text_15">
     <!-- FedProx -->
     <g transform="translate(281.942813 22.398949)scale(0.1 -0.1)">
      <defs>
       <path d="M 1259 4147 
L 1259 2394 
L 2053 2394 
Q 2494 2394 2734 2622 
Q 2975 2850 2975 3272 
Q 2975 3691 2734 3919 
Q 2494 4147 2053 4147 
L 1259 4147 
z
M 628 4666 
L 2053 4666 
Q 2838 4666 3239 4311 
Q 3641 3956 3641 3272 
Q 3641 2581 3239 2228 
Q 2838 1875 2053 1875 
L 1259 1875 
L 1259 0 
L 628 0 
L 628 4666 
z
" id="DejaVuSans-50" transform="scale(0.015625)"/>
       <path d="M 3513 3500 
L 2247 1797 
L 3578 0 
L 2900 0 
L 1881 1375 
L 863 0 
L 184 0 
L 1544 1831 
L 300 3500 
L 978 3500 
L 1906 2253 
L 2834 3500 
L 3513 3500 
z
" id="DejaVuSans-78" transform="scale(0.015625)"/>
      </defs>
      <use xlink:href="#DejaVuSans-46"/>
      <use x="52.019531" xlink:href="#DejaVuSans-65"/>
      <use x="113.542969" xlink:href="#DejaVuSans-64"/>
      <use x="177.019531" xlink:href="#DejaVuSans-50"/>
      <use x="235.572266" xlink:href="#DejaVuSans-72"/>
      <use x="274.435547" xlink:href="#DejaVuSans-6f"/>
      <use x="332.492188" xlink:href="#DejaVuSans-78"/>
     </g>
    </g>
    <g id="line2d_21">
     <path d="M 341.111563 18.898949 
L 361.111563 18.898949 
" style="fill:none;stroke:#d62728;stroke-linecap:square;stroke-width:1.5;"/>
    </g>
    <g id="line2d_22"/>
    <g id="text_16">
     <!-- qFedAvg -->
     <g transform="translate(369.111563 22.398949)scale(0.1 -0.1)">
      <defs>
       <path d="M 947 1747 
Q 947 1113 1208 752 
Q 1469 391 1925 391 
Q 2381 391 2643 752 
Q 2906 1113 2906 1747 
Q 2906 2381 2643 2742 
Q 2381 3103 1925 3103 
Q 1469 3103 1208 2742 
Q 947 2381 947 1747 
z
M 2906 525 
Q 2725 213 2448 61 
Q 2172 -91 1784 -91 
Q 1150 -91 751 415 
Q 353 922 353 1747 
Q 353 2572 751 3078 
Q 1150 3584 1784 3584 
Q 2172 3584 2448 3432 
Q 2725 3281 2906 2969 
L 2906 3500 
L 3481 3500 
L 3481 -1331 
L 2906 -1331 
L 2906 525 
z
" id="DejaVuSans-71" transform="scale(0.015625)"/>
      </defs>
      <use xlink:href="#DejaVuSans-71"/>
      <use x="63.476562" xlink:href="#DejaVuSans-46"/>
      <use x="115.496094" xlink:href="#DejaVuSans-65"/>
      <use x="177.019531" xlink:href="#DejaVuSans-64"/>
      <use x="240.496094" xlink:href="#DejaVuSans-41"/>
      <use x="303.029297" xlink:href="#DejaVuSans-76"/>
      <use x="362.208984" xlink:href="#DejaVuSans-67"/>
     </g>
    </g>
   </g>
  </g>
 </g>
 <defs>
  <clipPath id="p96042b0dd9">
   <rect height="270.763171" width="405.43" x="44.57" y="32.876829"/>
  </clipPath>
 </defs>
</svg>
