<?xml version="1.0" encoding="utf-8" standalone="no"?>
<!DOCTYPE svg PUBLIC "-//W3C//DTD SVG 1.1//EN"
  "http://www.w3.org/Graphics/SVG/1.1/DTD/svg11.dtd">
<svg height="345.6pt" version="1.1" viewBox="0 0 460.8 345.6" width="460.8pt" xmlns="http://www.w3.org/2000/svg" xmlns:xlink="http://www.w3.org/1999/xlink">
 <metadata>
  <rdf:RDF xmlns:cc="http://creativecommons.org/ns#" xmlns:dc="http://purl.org/dc/elements/1.1/" xmlns:rdf="http://www.w3.org/1999/02/22-rdf-syntax-ns#">
   <cc:Work>
    <dc:type rdf:resource="http://purl.org/dc/dcmitype/StillImage"/>
    <dc:date>2021-04-30T09:52:35.430104</dc:date>
    <dc:format>image/svg+xml</dc:format>
    <dc:creator>
     <cc:Agent>
      <dc:title>Matplotlib v3.4.1, https://matplotlib.org/</dc:title>
     </cc:Agent>
    </dc:creator>
   </cc:Work>
  </rdf:RDF>
 </metadata>
 <defs>
  <style type="text/css">*{stroke-linecap:butt;stroke-linejoin:round;}</style>
 </defs>
 <g id="figure_1">
  <g id="patch_1">
   <path d="M 0 345.6 
L 460.8 345.6 
L 460.8 0 
L 0 0 
z
" style="fill:#ffffff;"/>
  </g>
  <g id="axes_1">
   <g id="patch_2">
    <path d="M 44.57 303.64 
L 366.25 303.64 
L 366.25 26.88 
L 44.57 26.88 
z
" style="fill:#ffffff;"/>
   </g>
   <g id="PolyCollection_1">
    <path clip-path="url(#pba7d65d1c8)" d="M 59.191818 218.945595 
L 59.191818 248.575489 
L 65.159907 230.229547 
L 71.127996 195.27937 
L 77.096085 163.846186 
L 83.064174 143.958565 
L 89.032263 116.898889 
L 95.000353 125.777684 
L 100.968442 115.150573 
L 106.936531 98.914658 
L 112.90462 73.442241 
L 118.872709 99.519958 
L 124.840798 74.899211 
L 130.808887 76.095981 
L 136.776976 70.079646 
L 142.745065 66.97019 
L 148.713154 68.103444 
L 154.681243 64.518958 
L 160.649332 60.021421 
L 166.617421 59.049029 
L 172.58551 67.204247 
L 178.553599 71.427421 
L 184.521688 74.988064 
L 190.489777 56.83227 
L 196.457866 62.96778 
L 202.425955 62.3878 
L 208.394045 66.03204 
L 214.362134 64.568009 
L 220.330223 58.476032 
L 226.298312 56.010863 
L 232.266401 57.907638 
L 238.23449 59.626601 
L 244.202579 49.675708 
L 250.170668 56.627073 
L 256.138757 52.315451 
L 262.106846 47.91182 
L 268.074935 51.803143 
L 274.043024 61.56969 
L 280.011113 49.353232 
L 285.979202 50.204983 
L 291.947291 53.510703 
L 297.91538 47.201544 
L 303.883469 57.722748 
L 309.851558 54.918712 
L 315.819647 46.861833 
L 321.787737 52.289198 
L 327.755826 46.305492 
L 333.723915 49.442679 
L 339.692004 49.590839 
L 345.660093 49.086628 
L 351.628182 56.405391 
L 351.628182 42.577082 
L 351.628182 42.577082 
L 345.660093 41.289439 
L 339.692004 39.709426 
L 333.723915 42.31656 
L 327.755826 39.46 
L 321.787737 39.931099 
L 315.819647 39.825774 
L 309.851558 46.830106 
L 303.883469 41.874468 
L 297.91538 43.020837 
L 291.947291 42.244368 
L 285.979202 44.320601 
L 280.011113 42.559693 
L 274.043024 40.640185 
L 268.074935 42.876126 
L 262.106846 41.849503 
L 256.138757 41.441704 
L 250.170668 40.972227 
L 244.202579 44.849876 
L 238.23449 48.423336 
L 232.266401 47.375953 
L 226.298312 46.199013 
L 220.330223 48.344417 
L 214.362134 47.477759 
L 208.394045 50.931674 
L 202.425955 45.201079 
L 196.457866 46.465329 
L 190.489777 52.754525 
L 184.521688 55.346318 
L 178.553599 51.683727 
L 172.58551 52.833184 
L 166.617421 51.152509 
L 160.649332 49.104317 
L 154.681243 50.446841 
L 148.713154 60.079336 
L 142.745065 53.83567 
L 136.776976 57.181019 
L 130.808887 57.773175 
L 124.840798 56.357285 
L 118.872709 62.473704 
L 112.90462 67.803835 
L 106.936531 73.837011 
L 100.968442 70.35702 
L 95.000353 80.631181 
L 89.032263 76.600367 
L 83.064174 99.949642 
L 77.096085 127.550942 
L 71.127996 162.510035 
L 65.159907 192.722648 
L 59.191818 218.945595 
z
" style="fill:#1f77b4;fill-opacity:0.5;"/>
   </g>
   <g id="PolyCollection_2">
    <path clip-path="url(#pba7d65d1c8)" d="M 59.191818 226.262499 
L 59.191818 282.446388 
L 65.159907 288.012091 
L 71.127996 291.06 
L 77.096085 222.56237 
L 83.064174 284.405157 
L 89.032263 253.100235 
L 95.000353 252.084445 
L 100.968442 251.836705 
L 106.936531 262.279201 
L 112.90462 208.053224 
L 118.872709 231.995866 
L 124.840798 193.500105 
L 130.808887 255.988716 
L 136.776976 163.064446 
L 142.745065 194.147998 
L 148.713154 163.599854 
L 154.681243 153.882279 
L 160.649332 161.70719 
L 166.617421 134.045447 
L 172.58551 222.398713 
L 178.553599 212.901707 
L 184.521688 181.143312 
L 190.489777 157.327508 
L 196.457866 134.247872 
L 202.425955 130.853142 
L 208.394045 155.245096 
L 214.362134 142.780473 
L 220.330223 162.108986 
L 226.298312 138.338039 
L 232.266401 161.823705 
L 238.23449 134.875784 
L 244.202579 136.751703 
L 250.170668 144.288508 
L 256.138757 131.902162 
L 262.106846 135.010257 
L 268.074935 142.347372 
L 274.043024 140.160712 
L 280.011113 126.217164 
L 285.979202 156.964951 
L 291.947291 131.525005 
L 297.91538 120.218385 
L 303.883469 168.36438 
L 309.851558 175.511039 
L 315.819647 127.416525 
L 321.787737 130.480447 
L 327.755826 116.33335 
L 333.723915 124.452066 
L 339.692004 192.079108 
L 345.660093 181.640709 
L 351.628182 154.338786 
L 351.628182 100.173743 
L 351.628182 100.173743 
L 345.660093 81.785598 
L 339.692004 77.18726 
L 333.723915 106.23916 
L 327.755826 91.612374 
L 321.787737 102.977124 
L 315.819647 110.34425 
L 309.851558 118.191376 
L 303.883469 95.67667 
L 297.91538 106.015952 
L 291.947291 96.092505 
L 285.979202 115.989877 
L 280.011113 104.781434 
L 274.043024 109.280185 
L 268.074935 110.320927 
L 262.106846 100.291544 
L 256.138757 100.940666 
L 250.170668 103.461845 
L 244.202579 112.689194 
L 238.23449 102.577619 
L 232.266401 103.139461 
L 226.298312 110.949172 
L 220.330223 120.066992 
L 214.362134 127.561696 
L 208.394045 110.640184 
L 202.425955 112.440322 
L 196.457866 107.355048 
L 190.489777 131.303274 
L 184.521688 119.628652 
L 178.553599 127.982257 
L 172.58551 113.72099 
L 166.617421 124.616599 
L 160.649332 122.005646 
L 154.681243 126.910526 
L 148.713154 116.117151 
L 142.745065 128.139981 
L 136.776976 134.326429 
L 130.808887 143.449548 
L 124.840798 115.878264 
L 118.872709 131.787286 
L 112.90462 154.961499 
L 106.936531 146.994956 
L 100.968442 136.843551 
L 95.000353 149.812792 
L 89.032263 148.028573 
L 83.064174 222.305813 
L 77.096085 149.058759 
L 71.127996 263.139891 
L 65.159907 170.44153 
L 59.191818 226.262499 
z
" style="fill:#ff7f0e;fill-opacity:0.5;"/>
   </g>
   <g id="PolyCollection_3">
    <path clip-path="url(#pba7d65d1c8)" d="M 59.191818 233.967105 
L 59.191818 277.35444 
L 65.159907 229.634833 
L 71.127996 209.90191 
L 77.096085 156.059005 
L 83.064174 145.159408 
L 89.032263 130.969395 
L 95.000353 118.897622 
L 100.968442 91.969376 
L 106.936531 99.788466 
L 112.90462 88.17045 
L 118.872709 78.319894 
L 124.840798 99.601181 
L 130.808887 76.393083 
L 136.776976 65.021501 
L 142.745065 62.603003 
L 148.713154 74.026346 
L 154.681243 75.675755 
L 160.649332 62.72011 
L 166.617421 60.476815 
L 172.58551 58.566837 
L 178.553599 63.725466 
L 184.521688 60.44923 
L 190.489777 61.212946 
L 196.457866 67.444302 
L 202.425955 59.928579 
L 208.394045 59.241515 
L 214.362134 60.341526 
L 220.330223 56.117611 
L 226.298312 54.714725 
L 232.266401 56.089829 
L 238.23449 54.945882 
L 244.202579 54.963902 
L 250.170668 55.153318 
L 256.138757 59.10449 
L 262.106846 55.268707 
L 268.074935 54.415183 
L 274.043024 57.877471 
L 280.011113 54.219625 
L 285.979202 54.421561 
L 291.947291 53.628344 
L 297.91538 54.071449 
L 303.883469 56.15369 
L 309.851558 53.004162 
L 315.819647 54.346533 
L 321.787737 52.864835 
L 327.755826 54.173915 
L 333.723915 54.546837 
L 339.692004 52.752746 
L 345.660093 55.252259 
L 351.628182 55.098207 
L 351.628182 43.576894 
L 351.628182 43.576894 
L 345.660093 44.498643 
L 339.692004 41.465466 
L 333.723915 43.513521 
L 327.755826 42.964328 
L 321.787737 41.046005 
L 315.819647 43.099082 
L 309.851558 41.675108 
L 303.883469 45.595127 
L 297.91538 43.988909 
L 291.947291 44.124643 
L 285.979202 44.868284 
L 280.011113 45.531277 
L 274.043024 48.17455 
L 268.074935 44.56729 
L 262.106846 44.482195 
L 256.138757 47.869646 
L 250.170668 45.212327 
L 244.202579 46.170172 
L 238.23449 45.112391 
L 232.266401 50.730621 
L 226.298312 45.036177 
L 220.330223 49.165981 
L 214.362134 46.939981 
L 208.394045 50.498966 
L 202.425955 51.502446 
L 196.457866 54.898417 
L 190.489777 54.21391 
L 184.521688 53.133397 
L 178.553599 53.699306 
L 172.58551 53.478931 
L 166.617421 56.486899 
L 160.649332 58.239436 
L 154.681243 56.963914 
L 148.713154 53.541691 
L 142.745065 54.514397 
L 136.776976 57.628589 
L 130.808887 62.547705 
L 124.840798 65.00514 
L 118.872709 61.389323 
L 112.90462 69.058951 
L 106.936531 70.196859 
L 100.968442 78.323321 
L 95.000353 75.370063 
L 89.032263 94.803884 
L 83.064174 121.647988 
L 77.096085 105.215701 
L 71.127996 146.350637 
L 65.159907 180.254067 
L 59.191818 233.967105 
z
" style="fill:#2ca02c;fill-opacity:0.5;"/>
   </g>
   <g id="PolyCollection_4">
    <path clip-path="url(#pba7d65d1c8)" d="M 59.191818 250.677982 
L 59.191818 288.570584 
L 65.159907 271.012569 
L 71.127996 268.684295 
L 77.096085 263.315495 
L 83.064174 258.186569 
L 89.032263 253.109425 
L 95.000353 246.310748 
L 100.968442 239.104533 
L 106.936531 233.550485 
L 112.90462 229.150167 
L 118.872709 224.753262 
L 124.840798 220.790209 
L 130.808887 218.284182 
L 136.776976 215.378419 
L 142.745065 213.064893 
L 148.713154 211.385636 
L 154.681243 210.071722 
L 160.649332 207.795177 
L 166.617421 206.561088 
L 172.58551 204.551469 
L 178.553599 203.610369 
L 184.521688 202.402228 
L 190.489777 201.580682 
L 196.457866 200.579887 
L 202.425955 199.398914 
L 208.394045 197.552976 
L 214.362134 196.148418 
L 220.330223 194.236456 
L 226.298312 192.450905 
L 232.266401 190.374367 
L 238.23449 188.500051 
L 244.202579 186.457334 
L 250.170668 185.09162 
L 256.138757 183.205483 
L 262.106846 181.530991 
L 268.074935 179.15382 
L 274.043024 176.518401 
L 280.011113 174.636327 
L 285.979202 172.772056 
L 291.947291 170.823645 
L 297.91538 169.230745 
L 303.883469 167.553475 
L 309.851558 166.609645 
L 315.819647 164.26323 
L 321.787737 162.739173 
L 327.755826 161.090061 
L 333.723915 159.612075 
L 339.692004 158.467223 
L 345.660093 157.427148 
L 351.628182 156.107202 
L 351.628182 109.964807 
L 351.628182 109.964807 
L 345.660093 110.186791 
L 339.692004 110.712928 
L 333.723915 111.328547 
L 327.755826 111.696021 
L 321.787737 112.110909 
L 315.819647 112.541582 
L 309.851558 112.599121 
L 303.883469 113.379338 
L 297.91538 113.814634 
L 291.947291 114.225028 
L 285.979202 114.619866 
L 280.011113 115.062419 
L 274.043024 116.082086 
L 268.074935 116.421257 
L 262.106846 116.387334 
L 256.138757 117.043948 
L 250.170668 118.180966 
L 244.202579 118.830687 
L 238.23449 119.216206 
L 232.266401 119.782268 
L 226.298312 120.085401 
L 220.330223 121.177309 
L 214.362134 121.754289 
L 208.394045 122.462297 
L 202.425955 123.578807 
L 196.457866 124.231152 
L 190.489777 124.954405 
L 184.521688 125.978319 
L 178.553599 127.489802 
L 172.58551 128.891949 
L 166.617421 130.803931 
L 160.649332 133.540008 
L 154.681243 136.217065 
L 148.713154 139.237553 
L 142.745065 142.584744 
L 136.776976 145.249102 
L 130.808887 150.502212 
L 124.840798 155.171623 
L 118.872709 160.023067 
L 112.90462 166.771765 
L 106.936531 172.897851 
L 100.968442 178.610818 
L 95.000353 182.574489 
L 89.032263 186.520756 
L 83.064174 188.194108 
L 77.096085 191.879679 
L 71.127996 195.203964 
L 65.159907 204.276259 
L 59.191818 250.677982 
z
" style="fill:#d62728;fill-opacity:0.5;"/>
   </g>
   <g id="matplotlib.axis_1">
    <g id="xtick_1">
     <g id="line2d_1">
      <path clip-path="url(#pba7d65d1c8)" d="M 59.191818 303.64 
L 59.191818 26.88 
" style="fill:none;stroke:#b0b0b0;stroke-linecap:square;stroke-width:0.8;"/>
     </g>
     <g id="line2d_2">
      <defs>
       <path d="M 0 0 
L 0 3.5 
" id="m03e3326c37" style="stroke:#000000;stroke-width:0.8;"/>
      </defs>
      <g>
       <use style="stroke:#000000;stroke-width:0.8;" x="59.191818" xlink:href="#m03e3326c37" y="303.64"/>
      </g>
     </g>
     <g id="text_1">
      <!-- 0 -->
      <g transform="translate(56.010568 318.238437)scale(0.1 -0.1)">
       <defs>
        <path d="M 2034 4250 
Q 1547 4250 1301 3770 
Q 1056 3291 1056 2328 
Q 1056 1369 1301 889 
Q 1547 409 2034 409 
Q 2525 409 2770 889 
Q 3016 1369 3016 2328 
Q 3016 3291 2770 3770 
Q 2525 4250 2034 4250 
z
M 2034 4750 
Q 2819 4750 3233 4129 
Q 3647 3509 3647 2328 
Q 3647 1150 3233 529 
Q 2819 -91 2034 -91 
Q 1250 -91 836 529 
Q 422 1150 422 2328 
Q 422 3509 836 4129 
Q 1250 4750 2034 4750 
z
" id="DejaVuSans-30" transform="scale(0.015625)"/>
       </defs>
       <use xlink:href="#DejaVuSans-30"/>
      </g>
     </g>
    </g>
    <g id="xtick_2">
     <g id="line2d_3">
      <path clip-path="url(#pba7d65d1c8)" d="M 118.872709 303.64 
L 118.872709 26.88 
" style="fill:none;stroke:#b0b0b0;stroke-linecap:square;stroke-width:0.8;"/>
     </g>
     <g id="line2d_4">
      <g>
       <use style="stroke:#000000;stroke-width:0.8;" x="118.872709" xlink:href="#m03e3326c37" y="303.64"/>
      </g>
     </g>
     <g id="text_2">
      <!-- 10 -->
      <g transform="translate(112.510209 318.238437)scale(0.1 -0.1)">
       <defs>
        <path d="M 794 531 
L 1825 531 
L 1825 4091 
L 703 3866 
L 703 4441 
L 1819 4666 
L 2450 4666 
L 2450 531 
L 3481 531 
L 3481 0 
L 794 0 
L 794 531 
z
" id="DejaVuSans-31" transform="scale(0.015625)"/>
       </defs>
       <use xlink:href="#DejaVuSans-31"/>
       <use x="63.623047" xlink:href="#DejaVuSans-30"/>
      </g>
     </g>
    </g>
    <g id="xtick_3">
     <g id="line2d_5">
      <path clip-path="url(#pba7d65d1c8)" d="M 178.553599 303.64 
L 178.553599 26.88 
" style="fill:none;stroke:#b0b0b0;stroke-linecap:square;stroke-width:0.8;"/>
     </g>
     <g id="line2d_6">
      <g>
       <use style="stroke:#000000;stroke-width:0.8;" x="178.553599" xlink:href="#m03e3326c37" y="303.64"/>
      </g>
     </g>
     <g id="text_3">
      <!-- 20 -->
      <g transform="translate(172.191099 318.238437)scale(0.1 -0.1)">
       <defs>
        <path d="M 1228 531 
L 3431 531 
L 3431 0 
L 469 0 
L 469 531 
Q 828 903 1448 1529 
Q 2069 2156 2228 2338 
Q 2531 2678 2651 2914 
Q 2772 3150 2772 3378 
Q 2772 3750 2511 3984 
Q 2250 4219 1831 4219 
Q 1534 4219 1204 4116 
Q 875 4013 500 3803 
L 500 4441 
Q 881 4594 1212 4672 
Q 1544 4750 1819 4750 
Q 2544 4750 2975 4387 
Q 3406 4025 3406 3419 
Q 3406 3131 3298 2873 
Q 3191 2616 2906 2266 
Q 2828 2175 2409 1742 
Q 1991 1309 1228 531 
z
" id="DejaVuSans-32" transform="scale(0.015625)"/>
       </defs>
       <use xlink:href="#DejaVuSans-32"/>
       <use x="63.623047" xlink:href="#DejaVuSans-30"/>
      </g>
     </g>
    </g>
    <g id="xtick_4">
     <g id="line2d_7">
      <path clip-path="url(#pba7d65d1c8)" d="M 238.23449 303.64 
L 238.23449 26.88 
" style="fill:none;stroke:#b0b0b0;stroke-linecap:square;stroke-width:0.8;"/>
     </g>
     <g id="line2d_8">
      <g>
       <use style="stroke:#000000;stroke-width:0.8;" x="238.23449" xlink:href="#m03e3326c37" y="303.64"/>
      </g>
     </g>
     <g id="text_4">
      <!-- 30 -->
      <g transform="translate(231.87199 318.238437)scale(0.1 -0.1)">
       <defs>
        <path d="M 2597 2516 
Q 3050 2419 3304 2112 
Q 3559 1806 3559 1356 
Q 3559 666 3084 287 
Q 2609 -91 1734 -91 
Q 1441 -91 1130 -33 
Q 819 25 488 141 
L 488 750 
Q 750 597 1062 519 
Q 1375 441 1716 441 
Q 2309 441 2620 675 
Q 2931 909 2931 1356 
Q 2931 1769 2642 2001 
Q 2353 2234 1838 2234 
L 1294 2234 
L 1294 2753 
L 1863 2753 
Q 2328 2753 2575 2939 
Q 2822 3125 2822 3475 
Q 2822 3834 2567 4026 
Q 2313 4219 1838 4219 
Q 1578 4219 1281 4162 
Q 984 4106 628 3988 
L 628 4550 
Q 988 4650 1302 4700 
Q 1616 4750 1894 4750 
Q 2613 4750 3031 4423 
Q 3450 4097 3450 3541 
Q 3450 3153 3228 2886 
Q 3006 2619 2597 2516 
z
" id="DejaVuSans-33" transform="scale(0.015625)"/>
       </defs>
       <use xlink:href="#DejaVuSans-33"/>
       <use x="63.623047" xlink:href="#DejaVuSans-30"/>
      </g>
     </g>
    </g>
    <g id="xtick_5">
     <g id="line2d_9">
      <path clip-path="url(#pba7d65d1c8)" d="M 297.91538 303.64 
L 297.91538 26.88 
" style="fill:none;stroke:#b0b0b0;stroke-linecap:square;stroke-width:0.8;"/>
     </g>
     <g id="line2d_10">
      <g>
       <use style="stroke:#000000;stroke-width:0.8;" x="297.91538" xlink:href="#m03e3326c37" y="303.64"/>
      </g>
     </g>
     <g id="text_5">
      <!-- 40 -->
      <g transform="translate(291.55288 318.238437)scale(0.1 -0.1)">
       <defs>
        <path d="M 2419 4116 
L 825 1625 
L 2419 1625 
L 2419 4116 
z
M 2253 4666 
L 3047 4666 
L 3047 1625 
L 3713 1625 
L 3713 1100 
L 3047 1100 
L 3047 0 
L 2419 0 
L 2419 1100 
L 313 1100 
L 313 1709 
L 2253 4666 
z
" id="DejaVuSans-34" transform="scale(0.015625)"/>
       </defs>
       <use xlink:href="#DejaVuSans-34"/>
       <use x="63.623047" xlink:href="#DejaVuSans-30"/>
      </g>
     </g>
    </g>
    <g id="xtick_6">
     <g id="line2d_11">
      <path clip-path="url(#pba7d65d1c8)" d="M 357.596271 303.64 
L 357.596271 26.88 
" style="fill:none;stroke:#b0b0b0;stroke-linecap:square;stroke-width:0.8;"/>
     </g>
     <g id="line2d_12">
      <g>
       <use style="stroke:#000000;stroke-width:0.8;" x="357.596271" xlink:href="#m03e3326c37" y="303.64"/>
      </g>
     </g>
     <g id="text_6">
      <!-- 50 -->
      <g transform="translate(351.233771 318.238437)scale(0.1 -0.1)">
       <defs>
        <path d="M 691 4666 
L 3169 4666 
L 3169 4134 
L 1269 4134 
L 1269 2991 
Q 1406 3038 1543 3061 
Q 1681 3084 1819 3084 
Q 2600 3084 3056 2656 
Q 3513 2228 3513 1497 
Q 3513 744 3044 326 
Q 2575 -91 1722 -91 
Q 1428 -91 1123 -41 
Q 819 9 494 109 
L 494 744 
Q 775 591 1075 516 
Q 1375 441 1709 441 
Q 2250 441 2565 725 
Q 2881 1009 2881 1497 
Q 2881 1984 2565 2268 
Q 2250 2553 1709 2553 
Q 1456 2553 1204 2497 
Q 953 2441 691 2322 
L 691 4666 
z
" id="DejaVuSans-35" transform="scale(0.015625)"/>
       </defs>
       <use xlink:href="#DejaVuSans-35"/>
       <use x="63.623047" xlink:href="#DejaVuSans-30"/>
      </g>
     </g>
    </g>
    <g id="text_7">
     <!-- Global Communication Rounds -->
     <g transform="translate(128.448281 331.916562)scale(0.1 -0.1)">
      <defs>
       <path d="M 3809 666 
L 3809 1919 
L 2778 1919 
L 2778 2438 
L 4434 2438 
L 4434 434 
Q 4069 175 3628 42 
Q 3188 -91 2688 -91 
Q 1594 -91 976 548 
Q 359 1188 359 2328 
Q 359 3472 976 4111 
Q 1594 4750 2688 4750 
Q 3144 4750 3555 4637 
Q 3966 4525 4313 4306 
L 4313 3634 
Q 3963 3931 3569 4081 
Q 3175 4231 2741 4231 
Q 1884 4231 1454 3753 
Q 1025 3275 1025 2328 
Q 1025 1384 1454 906 
Q 1884 428 2741 428 
Q 3075 428 3337 486 
Q 3600 544 3809 666 
z
" id="DejaVuSans-47" transform="scale(0.015625)"/>
       <path d="M 603 4863 
L 1178 4863 
L 1178 0 
L 603 0 
L 603 4863 
z
" id="DejaVuSans-6c" transform="scale(0.015625)"/>
       <path d="M 1959 3097 
Q 1497 3097 1228 2736 
Q 959 2375 959 1747 
Q 959 1119 1226 758 
Q 1494 397 1959 397 
Q 2419 397 2687 759 
Q 2956 1122 2956 1747 
Q 2956 2369 2687 2733 
Q 2419 3097 1959 3097 
z
M 1959 3584 
Q 2709 3584 3137 3096 
Q 3566 2609 3566 1747 
Q 3566 888 3137 398 
Q 2709 -91 1959 -91 
Q 1206 -91 779 398 
Q 353 888 353 1747 
Q 353 2609 779 3096 
Q 1206 3584 1959 3584 
z
" id="DejaVuSans-6f" transform="scale(0.015625)"/>
       <path d="M 3116 1747 
Q 3116 2381 2855 2742 
Q 2594 3103 2138 3103 
Q 1681 3103 1420 2742 
Q 1159 2381 1159 1747 
Q 1159 1113 1420 752 
Q 1681 391 2138 391 
Q 2594 391 2855 752 
Q 3116 1113 3116 1747 
z
M 1159 2969 
Q 1341 3281 1617 3432 
Q 1894 3584 2278 3584 
Q 2916 3584 3314 3078 
Q 3713 2572 3713 1747 
Q 3713 922 3314 415 
Q 2916 -91 2278 -91 
Q 1894 -91 1617 61 
Q 1341 213 1159 525 
L 1159 0 
L 581 0 
L 581 4863 
L 1159 4863 
L 1159 2969 
z
" id="DejaVuSans-62" transform="scale(0.015625)"/>
       <path d="M 2194 1759 
Q 1497 1759 1228 1600 
Q 959 1441 959 1056 
Q 959 750 1161 570 
Q 1363 391 1709 391 
Q 2188 391 2477 730 
Q 2766 1069 2766 1631 
L 2766 1759 
L 2194 1759 
z
M 3341 1997 
L 3341 0 
L 2766 0 
L 2766 531 
Q 2569 213 2275 61 
Q 1981 -91 1556 -91 
Q 1019 -91 701 211 
Q 384 513 384 1019 
Q 384 1609 779 1909 
Q 1175 2209 1959 2209 
L 2766 2209 
L 2766 2266 
Q 2766 2663 2505 2880 
Q 2244 3097 1772 3097 
Q 1472 3097 1187 3025 
Q 903 2953 641 2809 
L 641 3341 
Q 956 3463 1253 3523 
Q 1550 3584 1831 3584 
Q 2591 3584 2966 3190 
Q 3341 2797 3341 1997 
z
" id="DejaVuSans-61" transform="scale(0.015625)"/>
       <path id="DejaVuSans-20" transform="scale(0.015625)"/>
       <path d="M 4122 4306 
L 4122 3641 
Q 3803 3938 3442 4084 
Q 3081 4231 2675 4231 
Q 1875 4231 1450 3742 
Q 1025 3253 1025 2328 
Q 1025 1406 1450 917 
Q 1875 428 2675 428 
Q 3081 428 3442 575 
Q 3803 722 4122 1019 
L 4122 359 
Q 3791 134 3420 21 
Q 3050 -91 2638 -91 
Q 1578 -91 968 557 
Q 359 1206 359 2328 
Q 359 3453 968 4101 
Q 1578 4750 2638 4750 
Q 3056 4750 3426 4639 
Q 3797 4528 4122 4306 
z
" id="DejaVuSans-43" transform="scale(0.015625)"/>
       <path d="M 3328 2828 
Q 3544 3216 3844 3400 
Q 4144 3584 4550 3584 
Q 5097 3584 5394 3201 
Q 5691 2819 5691 2113 
L 5691 0 
L 5113 0 
L 5113 2094 
Q 5113 2597 4934 2840 
Q 4756 3084 4391 3084 
Q 3944 3084 3684 2787 
Q 3425 2491 3425 1978 
L 3425 0 
L 2847 0 
L 2847 2094 
Q 2847 2600 2669 2842 
Q 2491 3084 2119 3084 
Q 1678 3084 1418 2786 
Q 1159 2488 1159 1978 
L 1159 0 
L 581 0 
L 581 3500 
L 1159 3500 
L 1159 2956 
Q 1356 3278 1631 3431 
Q 1906 3584 2284 3584 
Q 2666 3584 2933 3390 
Q 3200 3197 3328 2828 
z
" id="DejaVuSans-6d" transform="scale(0.015625)"/>
       <path d="M 544 1381 
L 544 3500 
L 1119 3500 
L 1119 1403 
Q 1119 906 1312 657 
Q 1506 409 1894 409 
Q 2359 409 2629 706 
Q 2900 1003 2900 1516 
L 2900 3500 
L 3475 3500 
L 3475 0 
L 2900 0 
L 2900 538 
Q 2691 219 2414 64 
Q 2138 -91 1772 -91 
Q 1169 -91 856 284 
Q 544 659 544 1381 
z
M 1991 3584 
L 1991 3584 
z
" id="DejaVuSans-75" transform="scale(0.015625)"/>
       <path d="M 3513 2113 
L 3513 0 
L 2938 0 
L 2938 2094 
Q 2938 2591 2744 2837 
Q 2550 3084 2163 3084 
Q 1697 3084 1428 2787 
Q 1159 2491 1159 1978 
L 1159 0 
L 581 0 
L 581 3500 
L 1159 3500 
L 1159 2956 
Q 1366 3272 1645 3428 
Q 1925 3584 2291 3584 
Q 2894 3584 3203 3211 
Q 3513 2838 3513 2113 
z
" id="DejaVuSans-6e" transform="scale(0.015625)"/>
       <path d="M 603 3500 
L 1178 3500 
L 1178 0 
L 603 0 
L 603 3500 
z
M 603 4863 
L 1178 4863 
L 1178 4134 
L 603 4134 
L 603 4863 
z
" id="DejaVuSans-69" transform="scale(0.015625)"/>
       <path d="M 3122 3366 
L 3122 2828 
Q 2878 2963 2633 3030 
Q 2388 3097 2138 3097 
Q 1578 3097 1268 2742 
Q 959 2388 959 1747 
Q 959 1106 1268 751 
Q 1578 397 2138 397 
Q 2388 397 2633 464 
Q 2878 531 3122 666 
L 3122 134 
Q 2881 22 2623 -34 
Q 2366 -91 2075 -91 
Q 1284 -91 818 406 
Q 353 903 353 1747 
Q 353 2603 823 3093 
Q 1294 3584 2113 3584 
Q 2378 3584 2631 3529 
Q 2884 3475 3122 3366 
z
" id="DejaVuSans-63" transform="scale(0.015625)"/>
       <path d="M 1172 4494 
L 1172 3500 
L 2356 3500 
L 2356 3053 
L 1172 3053 
L 1172 1153 
Q 1172 725 1289 603 
Q 1406 481 1766 481 
L 2356 481 
L 2356 0 
L 1766 0 
Q 1100 0 847 248 
Q 594 497 594 1153 
L 594 3053 
L 172 3053 
L 172 3500 
L 594 3500 
L 594 4494 
L 1172 4494 
z
" id="DejaVuSans-74" transform="scale(0.015625)"/>
       <path d="M 2841 2188 
Q 3044 2119 3236 1894 
Q 3428 1669 3622 1275 
L 4263 0 
L 3584 0 
L 2988 1197 
Q 2756 1666 2539 1819 
Q 2322 1972 1947 1972 
L 1259 1972 
L 1259 0 
L 628 0 
L 628 4666 
L 2053 4666 
Q 2853 4666 3247 4331 
Q 3641 3997 3641 3322 
Q 3641 2881 3436 2590 
Q 3231 2300 2841 2188 
z
M 1259 4147 
L 1259 2491 
L 2053 2491 
Q 2509 2491 2742 2702 
Q 2975 2913 2975 3322 
Q 2975 3731 2742 3939 
Q 2509 4147 2053 4147 
L 1259 4147 
z
" id="DejaVuSans-52" transform="scale(0.015625)"/>
       <path d="M 2906 2969 
L 2906 4863 
L 3481 4863 
L 3481 0 
L 2906 0 
L 2906 525 
Q 2725 213 2448 61 
Q 2172 -91 1784 -91 
Q 1150 -91 751 415 
Q 353 922 353 1747 
Q 353 2572 751 3078 
Q 1150 3584 1784 3584 
Q 2172 3584 2448 3432 
Q 2725 3281 2906 2969 
z
M 947 1747 
Q 947 1113 1208 752 
Q 1469 391 1925 391 
Q 2381 391 2643 752 
Q 2906 1113 2906 1747 
Q 2906 2381 2643 2742 
Q 2381 3103 1925 3103 
Q 1469 3103 1208 2742 
Q 947 2381 947 1747 
z
" id="DejaVuSans-64" transform="scale(0.015625)"/>
       <path d="M 2834 3397 
L 2834 2853 
Q 2591 2978 2328 3040 
Q 2066 3103 1784 3103 
Q 1356 3103 1142 2972 
Q 928 2841 928 2578 
Q 928 2378 1081 2264 
Q 1234 2150 1697 2047 
L 1894 2003 
Q 2506 1872 2764 1633 
Q 3022 1394 3022 966 
Q 3022 478 2636 193 
Q 2250 -91 1575 -91 
Q 1294 -91 989 -36 
Q 684 19 347 128 
L 347 722 
Q 666 556 975 473 
Q 1284 391 1588 391 
Q 1994 391 2212 530 
Q 2431 669 2431 922 
Q 2431 1156 2273 1281 
Q 2116 1406 1581 1522 
L 1381 1569 
Q 847 1681 609 1914 
Q 372 2147 372 2553 
Q 372 3047 722 3315 
Q 1072 3584 1716 3584 
Q 2034 3584 2315 3537 
Q 2597 3491 2834 3397 
z
" id="DejaVuSans-73" transform="scale(0.015625)"/>
      </defs>
      <use xlink:href="#DejaVuSans-47"/>
      <use x="77.490234" xlink:href="#DejaVuSans-6c"/>
      <use x="105.273438" xlink:href="#DejaVuSans-6f"/>
      <use x="166.455078" xlink:href="#DejaVuSans-62"/>
      <use x="229.931641" xlink:href="#DejaVuSans-61"/>
      <use x="291.210938" xlink:href="#DejaVuSans-6c"/>
      <use x="318.994141" xlink:href="#DejaVuSans-20"/>
      <use x="350.78125" xlink:href="#DejaVuSans-43"/>
      <use x="420.605469" xlink:href="#DejaVuSans-6f"/>
      <use x="481.787109" xlink:href="#DejaVuSans-6d"/>
      <use x="579.199219" xlink:href="#DejaVuSans-6d"/>
      <use x="676.611328" xlink:href="#DejaVuSans-75"/>
      <use x="739.990234" xlink:href="#DejaVuSans-6e"/>
      <use x="803.369141" xlink:href="#DejaVuSans-69"/>
      <use x="831.152344" xlink:href="#DejaVuSans-63"/>
      <use x="886.132812" xlink:href="#DejaVuSans-61"/>
      <use x="947.412109" xlink:href="#DejaVuSans-74"/>
      <use x="986.621094" xlink:href="#DejaVuSans-69"/>
      <use x="1014.404297" xlink:href="#DejaVuSans-6f"/>
      <use x="1075.585938" xlink:href="#DejaVuSans-6e"/>
      <use x="1138.964844" xlink:href="#DejaVuSans-20"/>
      <use x="1170.751953" xlink:href="#DejaVuSans-52"/>
      <use x="1235.734375" xlink:href="#DejaVuSans-6f"/>
      <use x="1296.916016" xlink:href="#DejaVuSans-75"/>
      <use x="1360.294922" xlink:href="#DejaVuSans-6e"/>
      <use x="1423.673828" xlink:href="#DejaVuSans-64"/>
      <use x="1487.150391" xlink:href="#DejaVuSans-73"/>
     </g>
    </g>
   </g>
   <g id="matplotlib.axis_2">
    <g id="ytick_1">
     <g id="line2d_13">
      <path clip-path="url(#pba7d65d1c8)" d="M 44.57 269.108283 
L 366.25 269.108283 
" style="fill:none;stroke:#b0b0b0;stroke-linecap:square;stroke-width:0.8;"/>
     </g>
     <g id="line2d_14">
      <defs>
       <path d="M 0 0 
L -3.5 0 
" id="m3d3b3a77d9" style="stroke:#000000;stroke-width:0.8;"/>
      </defs>
      <g>
       <use style="stroke:#000000;stroke-width:0.8;" x="44.57" xlink:href="#m3d3b3a77d9" y="269.108283"/>
      </g>
     </g>
     <g id="text_8">
      <!-- 20 -->
      <g transform="translate(24.845 272.907501)scale(0.1 -0.1)">
       <use xlink:href="#DejaVuSans-32"/>
       <use x="63.623047" xlink:href="#DejaVuSans-30"/>
      </g>
     </g>
    </g>
    <g id="ytick_2">
     <g id="line2d_15">
      <path clip-path="url(#pba7d65d1c8)" d="M 44.57 208.402381 
L 366.25 208.402381 
" style="fill:none;stroke:#b0b0b0;stroke-linecap:square;stroke-width:0.8;"/>
     </g>
     <g id="line2d_16">
      <g>
       <use style="stroke:#000000;stroke-width:0.8;" x="44.57" xlink:href="#m3d3b3a77d9" y="208.402381"/>
      </g>
     </g>
     <g id="text_9">
      <!-- 40 -->
      <g transform="translate(24.845 212.2016)scale(0.1 -0.1)">
       <use xlink:href="#DejaVuSans-34"/>
       <use x="63.623047" xlink:href="#DejaVuSans-30"/>
      </g>
     </g>
    </g>
    <g id="ytick_3">
     <g id="line2d_17">
      <path clip-path="url(#pba7d65d1c8)" d="M 44.57 147.69648 
L 366.25 147.69648 
" style="fill:none;stroke:#b0b0b0;stroke-linecap:square;stroke-width:0.8;"/>
     </g>
     <g id="line2d_18">
      <g>
       <use style="stroke:#000000;stroke-width:0.8;" x="44.57" xlink:href="#m3d3b3a77d9" y="147.69648"/>
      </g>
     </g>
     <g id="text_10">
      <!-- 60 -->
      <g transform="translate(24.845 151.495698)scale(0.1 -0.1)">
       <defs>
        <path d="M 2113 2584 
Q 1688 2584 1439 2293 
Q 1191 2003 1191 1497 
Q 1191 994 1439 701 
Q 1688 409 2113 409 
Q 2538 409 2786 701 
Q 3034 994 3034 1497 
Q 3034 2003 2786 2293 
Q 2538 2584 2113 2584 
z
M 3366 4563 
L 3366 3988 
Q 3128 4100 2886 4159 
Q 2644 4219 2406 4219 
Q 1781 4219 1451 3797 
Q 1122 3375 1075 2522 
Q 1259 2794 1537 2939 
Q 1816 3084 2150 3084 
Q 2853 3084 3261 2657 
Q 3669 2231 3669 1497 
Q 3669 778 3244 343 
Q 2819 -91 2113 -91 
Q 1303 -91 875 529 
Q 447 1150 447 2328 
Q 447 3434 972 4092 
Q 1497 4750 2381 4750 
Q 2619 4750 2861 4703 
Q 3103 4656 3366 4563 
z
" id="DejaVuSans-36" transform="scale(0.015625)"/>
       </defs>
       <use xlink:href="#DejaVuSans-36"/>
       <use x="63.623047" xlink:href="#DejaVuSans-30"/>
      </g>
     </g>
    </g>
    <g id="ytick_4">
     <g id="line2d_19">
      <path clip-path="url(#pba7d65d1c8)" d="M 44.57 86.990578 
L 366.25 86.990578 
" style="fill:none;stroke:#b0b0b0;stroke-linecap:square;stroke-width:0.8;"/>
     </g>
     <g id="line2d_20">
      <g>
       <use style="stroke:#000000;stroke-width:0.8;" x="44.57" xlink:href="#m3d3b3a77d9" y="86.990578"/>
      </g>
     </g>
     <g id="text_11">
      <!-- 80 -->
      <g transform="translate(24.845 90.789797)scale(0.1 -0.1)">
       <defs>
        <path d="M 2034 2216 
Q 1584 2216 1326 1975 
Q 1069 1734 1069 1313 
Q 1069 891 1326 650 
Q 1584 409 2034 409 
Q 2484 409 2743 651 
Q 3003 894 3003 1313 
Q 3003 1734 2745 1975 
Q 2488 2216 2034 2216 
z
M 1403 2484 
Q 997 2584 770 2862 
Q 544 3141 544 3541 
Q 544 4100 942 4425 
Q 1341 4750 2034 4750 
Q 2731 4750 3128 4425 
Q 3525 4100 3525 3541 
Q 3525 3141 3298 2862 
Q 3072 2584 2669 2484 
Q 3125 2378 3379 2068 
Q 3634 1759 3634 1313 
Q 3634 634 3220 271 
Q 2806 -91 2034 -91 
Q 1263 -91 848 271 
Q 434 634 434 1313 
Q 434 1759 690 2068 
Q 947 2378 1403 2484 
z
M 1172 3481 
Q 1172 3119 1398 2916 
Q 1625 2713 2034 2713 
Q 2441 2713 2670 2916 
Q 2900 3119 2900 3481 
Q 2900 3844 2670 4047 
Q 2441 4250 2034 4250 
Q 1625 4250 1398 4047 
Q 1172 3844 1172 3481 
z
" id="DejaVuSans-38" transform="scale(0.015625)"/>
       </defs>
       <use xlink:href="#DejaVuSans-38"/>
       <use x="63.623047" xlink:href="#DejaVuSans-30"/>
      </g>
     </g>
    </g>
    <g id="text_12">
     <!-- Test Accuracy -->
     <g transform="translate(18.765313 199.5225)rotate(-90)scale(0.1 -0.1)">
      <defs>
       <path d="M -19 4666 
L 3928 4666 
L 3928 4134 
L 2272 4134 
L 2272 0 
L 1638 0 
L 1638 4134 
L -19 4134 
L -19 4666 
z
" id="DejaVuSans-54" transform="scale(0.015625)"/>
       <path d="M 3597 1894 
L 3597 1613 
L 953 1613 
Q 991 1019 1311 708 
Q 1631 397 2203 397 
Q 2534 397 2845 478 
Q 3156 559 3463 722 
L 3463 178 
Q 3153 47 2828 -22 
Q 2503 -91 2169 -91 
Q 1331 -91 842 396 
Q 353 884 353 1716 
Q 353 2575 817 3079 
Q 1281 3584 2069 3584 
Q 2775 3584 3186 3129 
Q 3597 2675 3597 1894 
z
M 3022 2063 
Q 3016 2534 2758 2815 
Q 2500 3097 2075 3097 
Q 1594 3097 1305 2825 
Q 1016 2553 972 2059 
L 3022 2063 
z
" id="DejaVuSans-65" transform="scale(0.015625)"/>
       <path d="M 2188 4044 
L 1331 1722 
L 3047 1722 
L 2188 4044 
z
M 1831 4666 
L 2547 4666 
L 4325 0 
L 3669 0 
L 3244 1197 
L 1141 1197 
L 716 0 
L 50 0 
L 1831 4666 
z
" id="DejaVuSans-41" transform="scale(0.015625)"/>
       <path d="M 2631 2963 
Q 2534 3019 2420 3045 
Q 2306 3072 2169 3072 
Q 1681 3072 1420 2755 
Q 1159 2438 1159 1844 
L 1159 0 
L 581 0 
L 581 3500 
L 1159 3500 
L 1159 2956 
Q 1341 3275 1631 3429 
Q 1922 3584 2338 3584 
Q 2397 3584 2469 3576 
Q 2541 3569 2628 3553 
L 2631 2963 
z
" id="DejaVuSans-72" transform="scale(0.015625)"/>
       <path d="M 2059 -325 
Q 1816 -950 1584 -1140 
Q 1353 -1331 966 -1331 
L 506 -1331 
L 506 -850 
L 844 -850 
Q 1081 -850 1212 -737 
Q 1344 -625 1503 -206 
L 1606 56 
L 191 3500 
L 800 3500 
L 1894 763 
L 2988 3500 
L 3597 3500 
L 2059 -325 
z
" id="DejaVuSans-79" transform="scale(0.015625)"/>
      </defs>
      <use xlink:href="#DejaVuSans-54"/>
      <use x="44.083984" xlink:href="#DejaVuSans-65"/>
      <use x="105.607422" xlink:href="#DejaVuSans-73"/>
      <use x="157.707031" xlink:href="#DejaVuSans-74"/>
      <use x="196.916016" xlink:href="#DejaVuSans-20"/>
      <use x="228.703125" xlink:href="#DejaVuSans-41"/>
      <use x="295.361328" xlink:href="#DejaVuSans-63"/>
      <use x="350.341797" xlink:href="#DejaVuSans-63"/>
      <use x="405.322266" xlink:href="#DejaVuSans-75"/>
      <use x="468.701172" xlink:href="#DejaVuSans-72"/>
      <use x="509.814453" xlink:href="#DejaVuSans-61"/>
      <use x="571.09375" xlink:href="#DejaVuSans-63"/>
      <use x="626.074219" xlink:href="#DejaVuSans-79"/>
     </g>
    </g>
   </g>
   <g id="line2d_21">
    <path clip-path="url(#pba7d65d1c8)" d="M 59.191818 233.760542 
L 65.159907 211.476098 
L 71.127996 178.894702 
L 77.096085 145.698564 
L 83.064174 121.954104 
L 89.032263 96.749628 
L 95.000353 103.204433 
L 100.968442 92.753797 
L 106.936531 86.375835 
L 112.90462 70.623038 
L 118.872709 80.996831 
L 124.840798 65.628248 
L 130.808887 66.934578 
L 136.776976 63.630332 
L 142.745065 60.40293 
L 148.713154 64.09139 
L 154.681243 57.482899 
L 160.649332 54.562869 
L 166.617421 55.100769 
L 172.58551 60.018716 
L 178.553599 61.555574 
L 184.521688 65.167191 
L 190.489777 54.793397 
L 196.457866 54.716555 
L 202.425955 53.79444 
L 208.394045 58.481857 
L 214.362134 56.022884 
L 220.330223 53.410225 
L 226.298312 51.104938 
L 232.266401 52.641796 
L 238.23449 54.024968 
L 244.202579 47.262792 
L 250.170668 48.79965 
L 256.138757 46.878577 
L 262.106846 44.880662 
L 268.074935 47.339635 
L 274.043024 51.104938 
L 280.011113 45.956462 
L 285.979202 47.262792 
L 291.947291 47.877535 
L 297.91538 45.11119 
L 303.883469 49.798608 
L 309.851558 50.874409 
L 315.819647 43.343803 
L 321.787737 46.110148 
L 327.755826 42.882746 
L 333.723915 45.879619 
L 339.692004 44.650133 
L 345.660093 45.188033 
L 351.628182 49.491236 
" style="fill:none;stroke:#1f77b4;stroke-linecap:square;stroke-width:1.5;"/>
   </g>
   <g id="line2d_22">
    <path clip-path="url(#pba7d65d1c8)" d="M 59.191818 254.354443 
L 65.159907 229.226811 
L 71.127996 277.099946 
L 77.096085 185.810565 
L 83.064174 253.355485 
L 89.032263 200.564404 
L 95.000353 200.948619 
L 100.968442 194.340128 
L 106.936531 204.637078 
L 112.90462 181.507361 
L 118.872709 181.891576 
L 124.840798 154.689185 
L 130.808887 199.719132 
L 136.776976 148.695437 
L 142.745065 161.143989 
L 148.713154 139.858502 
L 154.681243 140.396403 
L 160.649332 141.856418 
L 166.617421 129.331023 
L 172.58551 168.059852 
L 178.553599 170.441982 
L 184.521688 150.385982 
L 190.489777 144.315391 
L 196.457866 120.80146 
L 202.425955 121.646732 
L 208.394045 132.94264 
L 214.362134 135.171085 
L 220.330223 141.087989 
L 226.298312 124.643606 
L 232.266401 132.481583 
L 238.23449 118.726701 
L 244.202579 124.720449 
L 250.170668 123.875176 
L 256.138757 116.421414 
L 262.106846 117.650901 
L 268.074935 126.33415 
L 274.043024 124.720449 
L 280.011113 115.499299 
L 285.979202 136.477414 
L 291.947291 113.808755 
L 297.91538 113.117169 
L 303.883469 132.020525 
L 309.851558 146.851208 
L 315.819647 118.880387 
L 321.787737 116.728786 
L 327.755826 103.972862 
L 333.723915 115.345613 
L 339.692004 134.633184 
L 345.660093 131.713154 
L 351.628182 127.256265 
" style="fill:none;stroke:#ff7f0e;stroke-linecap:square;stroke-width:1.5;"/>
   </g>
   <g id="line2d_23">
    <path clip-path="url(#pba7d65d1c8)" d="M 59.191818 255.660773 
L 65.159907 204.94445 
L 71.127996 178.126273 
L 77.096085 130.637353 
L 83.064174 133.403698 
L 89.032263 112.88664 
L 95.000353 97.133843 
L 100.968442 85.146348 
L 106.936531 84.992662 
L 112.90462 78.614701 
L 118.872709 69.854608 
L 124.840798 82.30316 
L 130.808887 69.470394 
L 136.776976 61.325045 
L 142.745065 58.5587 
L 148.713154 63.784018 
L 154.681243 66.319834 
L 160.649332 60.479773 
L 166.617421 58.481857 
L 172.58551 56.022884 
L 178.553599 58.712386 
L 184.521688 56.791313 
L 190.489777 57.713428 
L 196.457866 61.171359 
L 202.425955 55.715512 
L 208.394045 54.87024 
L 214.362134 53.640754 
L 220.330223 52.641796 
L 226.298312 49.875451 
L 232.266401 53.410225 
L 238.23449 50.029137 
L 244.202579 50.567037 
L 250.170668 50.182823 
L 256.138757 53.487068 
L 262.106846 49.875451 
L 268.074935 49.491236 
L 274.043024 53.02601 
L 280.011113 49.875451 
L 285.979202 49.644922 
L 291.947291 48.876493 
L 297.91538 49.030179 
L 303.883469 50.874409 
L 309.851558 47.339635 
L 315.819647 48.722807 
L 321.787737 46.95542 
L 327.755826 48.569121 
L 333.723915 49.030179 
L 339.692004 47.109106 
L 345.660093 49.875451 
L 351.628182 49.337551 
" style="fill:none;stroke:#2ca02c;stroke-linecap:square;stroke-width:1.5;"/>
   </g>
   <g id="line2d_24">
    <path clip-path="url(#pba7d65d1c8)" d="M 59.191818 269.624283 
L 65.159907 237.644414 
L 71.127996 231.94413 
L 77.096085 227.597587 
L 83.064174 223.190339 
L 89.032263 219.815091 
L 95.000353 214.442618 
L 100.968442 208.857675 
L 106.936531 203.224168 
L 112.90462 197.960966 
L 118.872709 192.388164 
L 124.840798 187.980916 
L 130.808887 184.393197 
L 136.776976 180.31376 
L 142.745065 177.824819 
L 148.713154 175.311594 
L 154.681243 173.144394 
L 160.649332 170.667593 
L 166.617421 168.68251 
L 172.58551 166.721709 
L 178.553599 165.550085 
L 184.521688 164.190273 
L 190.489777 163.267543 
L 196.457866 162.40552 
L 202.425955 161.48886 
L 208.394045 160.007636 
L 214.362134 158.951354 
L 220.330223 157.706883 
L 226.298312 156.268153 
L 232.266401 155.078317 
L 238.23449 153.858129 
L 244.202579 152.644011 
L 250.170668 151.636293 
L 256.138757 150.124716 
L 262.106846 148.959162 
L 268.074935 147.787538 
L 274.043024 146.300244 
L 280.011113 144.849373 
L 285.979202 143.695961 
L 291.947291 142.524337 
L 297.91538 141.522689 
L 303.883469 140.466407 
L 309.851558 139.604383 
L 315.819647 138.402406 
L 321.787737 137.425041 
L 327.755826 136.393041 
L 333.723915 135.470311 
L 339.692004 134.590075 
L 345.660093 133.806969 
L 351.628182 133.036004 
" style="fill:none;stroke:#d62728;stroke-linecap:square;stroke-width:1.5;"/>
   </g>
   <g id="patch_3">
    <path d="M 44.57 303.64 
L 44.57 26.88 
" style="fill:none;stroke:#000000;stroke-linecap:square;stroke-linejoin:miter;stroke-width:0.8;"/>
   </g>
   <g id="patch_4">
    <path d="M 366.25 303.64 
L 366.25 26.88 
" style="fill:none;stroke:#000000;stroke-linecap:square;stroke-linejoin:miter;stroke-width:0.8;"/>
   </g>
   <g id="patch_5">
    <path d="M 44.57 303.64 
L 366.25 303.64 
" style="fill:none;stroke:#000000;stroke-linecap:square;stroke-linejoin:miter;stroke-width:0.8;"/>
   </g>
   <g id="patch_6">
    <path d="M 44.57 26.88 
L 366.25 26.88 
" style="fill:none;stroke:#000000;stroke-linecap:square;stroke-linejoin:miter;stroke-width:0.8;"/>
   </g>
   <g id="text_13">
    <!-- MNIST Local Rounds 25 -->
    <g transform="translate(135.482812 20.88)scale(0.12 -0.12)">
     <defs>
      <path d="M 628 4666 
L 1569 4666 
L 2759 1491 
L 3956 4666 
L 4897 4666 
L 4897 0 
L 4281 0 
L 4281 4097 
L 3078 897 
L 2444 897 
L 1241 4097 
L 1241 0 
L 628 0 
L 628 4666 
z
" id="DejaVuSans-4d" transform="scale(0.015625)"/>
      <path d="M 628 4666 
L 1478 4666 
L 3547 763 
L 3547 4666 
L 4159 4666 
L 4159 0 
L 3309 0 
L 1241 3903 
L 1241 0 
L 628 0 
L 628 4666 
z
" id="DejaVuSans-4e" transform="scale(0.015625)"/>
      <path d="M 628 4666 
L 1259 4666 
L 1259 0 
L 628 0 
L 628 4666 
z
" id="DejaVuSans-49" transform="scale(0.015625)"/>
      <path d="M 3425 4513 
L 3425 3897 
Q 3066 4069 2747 4153 
Q 2428 4238 2131 4238 
Q 1616 4238 1336 4038 
Q 1056 3838 1056 3469 
Q 1056 3159 1242 3001 
Q 1428 2844 1947 2747 
L 2328 2669 
Q 3034 2534 3370 2195 
Q 3706 1856 3706 1288 
Q 3706 609 3251 259 
Q 2797 -91 1919 -91 
Q 1588 -91 1214 -16 
Q 841 59 441 206 
L 441 856 
Q 825 641 1194 531 
Q 1563 422 1919 422 
Q 2459 422 2753 634 
Q 3047 847 3047 1241 
Q 3047 1584 2836 1778 
Q 2625 1972 2144 2069 
L 1759 2144 
Q 1053 2284 737 2584 
Q 422 2884 422 3419 
Q 422 4038 858 4394 
Q 1294 4750 2059 4750 
Q 2388 4750 2728 4690 
Q 3069 4631 3425 4513 
z
" id="DejaVuSans-53" transform="scale(0.015625)"/>
      <path d="M 628 4666 
L 1259 4666 
L 1259 531 
L 3531 531 
L 3531 0 
L 628 0 
L 628 4666 
z
" id="DejaVuSans-4c" transform="scale(0.015625)"/>
     </defs>
     <use xlink:href="#DejaVuSans-4d"/>
     <use x="86.279297" xlink:href="#DejaVuSans-4e"/>
     <use x="161.083984" xlink:href="#DejaVuSans-49"/>
     <use x="190.576172" xlink:href="#DejaVuSans-53"/>
     <use x="254.052734" xlink:href="#DejaVuSans-54"/>
     <use x="315.136719" xlink:href="#DejaVuSans-20"/>
     <use x="346.923828" xlink:href="#DejaVuSans-4c"/>
     <use x="400.886719" xlink:href="#DejaVuSans-6f"/>
     <use x="462.068359" xlink:href="#DejaVuSans-63"/>
     <use x="517.048828" xlink:href="#DejaVuSans-61"/>
     <use x="578.328125" xlink:href="#DejaVuSans-6c"/>
     <use x="606.111328" xlink:href="#DejaVuSans-20"/>
     <use x="637.898438" xlink:href="#DejaVuSans-52"/>
     <use x="702.880859" xlink:href="#DejaVuSans-6f"/>
     <use x="764.0625" xlink:href="#DejaVuSans-75"/>
     <use x="827.441406" xlink:href="#DejaVuSans-6e"/>
     <use x="890.820312" xlink:href="#DejaVuSans-64"/>
     <use x="954.296875" xlink:href="#DejaVuSans-73"/>
     <use x="1006.396484" xlink:href="#DejaVuSans-20"/>
     <use x="1038.183594" xlink:href="#DejaVuSans-32"/>
     <use x="1101.806641" xlink:href="#DejaVuSans-35"/>
    </g>
   </g>
   <g id="legend_1">
    <g id="patch_7">
     <path d="M 373.25 196.11625 
L 447.821875 196.11625 
Q 449.821875 196.11625 449.821875 194.11625 
L 449.821875 136.40375 
Q 449.821875 134.40375 447.821875 134.40375 
L 373.25 134.40375 
Q 371.25 134.40375 371.25 136.40375 
L 371.25 194.11625 
Q 371.25 196.11625 373.25 196.11625 
z
" style="fill:#ffffff;opacity:0.8;stroke:#cccccc;stroke-linejoin:miter;"/>
    </g>
    <g id="line2d_25">
     <path d="M 375.25 142.502187 
L 395.25 142.502187 
" style="fill:none;stroke:#1f77b4;stroke-linecap:square;stroke-width:1.5;"/>
    </g>
    <g id="line2d_26"/>
    <g id="text_14">
     <!-- FedAvg -->
     <g transform="translate(403.25 146.002187)scale(0.1 -0.1)">
      <defs>
       <path d="M 628 4666 
L 3309 4666 
L 3309 4134 
L 1259 4134 
L 1259 2759 
L 3109 2759 
L 3109 2228 
L 1259 2228 
L 1259 0 
L 628 0 
L 628 4666 
z
" id="DejaVuSans-46" transform="scale(0.015625)"/>
       <path d="M 191 3500 
L 800 3500 
L 1894 563 
L 2988 3500 
L 3597 3500 
L 2284 0 
L 1503 0 
L 191 3500 
z
" id="DejaVuSans-76" transform="scale(0.015625)"/>
       <path d="M 2906 1791 
Q 2906 2416 2648 2759 
Q 2391 3103 1925 3103 
Q 1463 3103 1205 2759 
Q 947 2416 947 1791 
Q 947 1169 1205 825 
Q 1463 481 1925 481 
Q 2391 481 2648 825 
Q 2906 1169 2906 1791 
z
M 3481 434 
Q 3481 -459 3084 -895 
Q 2688 -1331 1869 -1331 
Q 1566 -1331 1297 -1286 
Q 1028 -1241 775 -1147 
L 775 -588 
Q 1028 -725 1275 -790 
Q 1522 -856 1778 -856 
Q 2344 -856 2625 -561 
Q 2906 -266 2906 331 
L 2906 616 
Q 2728 306 2450 153 
Q 2172 0 1784 0 
Q 1141 0 747 490 
Q 353 981 353 1791 
Q 353 2603 747 3093 
Q 1141 3584 1784 3584 
Q 2172 3584 2450 3431 
Q 2728 3278 2906 2969 
L 2906 3500 
L 3481 3500 
L 3481 434 
z
" id="DejaVuSans-67" transform="scale(0.015625)"/>
      </defs>
      <use xlink:href="#DejaVuSans-46"/>
      <use x="52.019531" xlink:href="#DejaVuSans-65"/>
      <use x="113.542969" xlink:href="#DejaVuSans-64"/>
      <use x="177.019531" xlink:href="#DejaVuSans-41"/>
      <use x="239.552734" xlink:href="#DejaVuSans-76"/>
      <use x="298.732422" xlink:href="#DejaVuSans-67"/>
     </g>
    </g>
    <g id="line2d_27">
     <path d="M 375.25 157.180312 
L 395.25 157.180312 
" style="fill:none;stroke:#ff7f0e;stroke-linecap:square;stroke-width:1.5;"/>
    </g>
    <g id="line2d_28"/>
    <g id="text_15">
     <!-- FedMed -->
     <g transform="translate(403.25 160.680312)scale(0.1 -0.1)">
      <use xlink:href="#DejaVuSans-46"/>
      <use x="52.019531" xlink:href="#DejaVuSans-65"/>
      <use x="113.542969" xlink:href="#DejaVuSans-64"/>
      <use x="177.019531" xlink:href="#DejaVuSans-4d"/>
      <use x="263.298828" xlink:href="#DejaVuSans-65"/>
      <use x="324.822266" xlink:href="#DejaVuSans-64"/>
     </g>
    </g>
    <g id="line2d_29">
     <path d="M 375.25 171.858437 
L 395.25 171.858437 
" style="fill:none;stroke:#2ca02c;stroke-linecap:square;stroke-width:1.5;"/>
    </g>
    <g id="line2d_30"/>
    <g id="text_16">
     <!-- FedProx -->
     <g transform="translate(403.25 175.358437)scale(0.1 -0.1)">
      <defs>
       <path d="M 1259 4147 
L 1259 2394 
L 2053 2394 
Q 2494 2394 2734 2622 
Q 2975 2850 2975 3272 
Q 2975 3691 2734 3919 
Q 2494 4147 2053 4147 
L 1259 4147 
z
M 628 4666 
L 2053 4666 
Q 2838 4666 3239 4311 
Q 3641 3956 3641 3272 
Q 3641 2581 3239 2228 
Q 2838 1875 2053 1875 
L 1259 1875 
L 1259 0 
L 628 0 
L 628 4666 
z
" id="DejaVuSans-50" transform="scale(0.015625)"/>
       <path d="M 3513 3500 
L 2247 1797 
L 3578 0 
L 2900 0 
L 1881 1375 
L 863 0 
L 184 0 
L 1544 1831 
L 300 3500 
L 978 3500 
L 1906 2253 
L 2834 3500 
L 3513 3500 
z
" id="DejaVuSans-78" transform="scale(0.015625)"/>
      </defs>
      <use xlink:href="#DejaVuSans-46"/>
      <use x="52.019531" xlink:href="#DejaVuSans-65"/>
      <use x="113.542969" xlink:href="#DejaVuSans-64"/>
      <use x="177.019531" xlink:href="#DejaVuSans-50"/>
      <use x="235.572266" xlink:href="#DejaVuSans-72"/>
      <use x="274.435547" xlink:href="#DejaVuSans-6f"/>
      <use x="332.492188" xlink:href="#DejaVuSans-78"/>
     </g>
    </g>
    <g id="line2d_31">
     <path d="M 375.25 186.536563 
L 395.25 186.536563 
" style="fill:none;stroke:#d62728;stroke-linecap:square;stroke-width:1.5;"/>
    </g>
    <g id="line2d_32"/>
    <g id="text_17">
     <!-- qFedAvg -->
     <g transform="translate(403.25 190.036563)scale(0.1 -0.1)">
      <defs>
       <path d="M 947 1747 
Q 947 1113 1208 752 
Q 1469 391 1925 391 
Q 2381 391 2643 752 
Q 2906 1113 2906 1747 
Q 2906 2381 2643 2742 
Q 2381 3103 1925 3103 
Q 1469 3103 1208 2742 
Q 947 2381 947 1747 
z
M 2906 525 
Q 2725 213 2448 61 
Q 2172 -91 1784 -91 
Q 1150 -91 751 415 
Q 353 922 353 1747 
Q 353 2572 751 3078 
Q 1150 3584 1784 3584 
Q 2172 3584 2448 3432 
Q 2725 3281 2906 2969 
L 2906 3500 
L 3481 3500 
L 3481 -1331 
L 2906 -1331 
L 2906 525 
z
" id="DejaVuSans-71" transform="scale(0.015625)"/>
      </defs>
      <use xlink:href="#DejaVuSans-71"/>
      <use x="63.476562" xlink:href="#DejaVuSans-46"/>
      <use x="115.496094" xlink:href="#DejaVuSans-65"/>
      <use x="177.019531" xlink:href="#DejaVuSans-64"/>
      <use x="240.496094" xlink:href="#DejaVuSans-41"/>
      <use x="303.029297" xlink:href="#DejaVuSans-76"/>
      <use x="362.208984" xlink:href="#DejaVuSans-67"/>
     </g>
    </g>
   </g>
  </g>
 </g>
 <defs>
  <clipPath id="pba7d65d1c8">
   <rect height="276.76" width="321.68" x="44.57" y="26.88"/>
  </clipPath>
 </defs>
</svg>
