<?xml version="1.0" encoding="utf-8" standalone="no"?>
<!DOCTYPE svg PUBLIC "-//W3C//DTD SVG 1.1//EN"
  "http://www.w3.org/Graphics/SVG/1.1/DTD/svg11.dtd">
<svg height="345.6pt" version="1.1" viewBox="0 0 460.8 345.6" width="460.8pt" xmlns="http://www.w3.org/2000/svg" xmlns:xlink="http://www.w3.org/1999/xlink">
 <metadata>
  <rdf:RDF xmlns:cc="http://creativecommons.org/ns#" xmlns:dc="http://purl.org/dc/elements/1.1/" xmlns:rdf="http://www.w3.org/1999/02/22-rdf-syntax-ns#">
   <cc:Work>
    <dc:type rdf:resource="http://purl.org/dc/dcmitype/StillImage"/>
    <dc:date>2021-04-30T09:52:30.884608</dc:date>
    <dc:format>image/svg+xml</dc:format>
    <dc:creator>
     <cc:Agent>
      <dc:title>Matplotlib v3.4.1, https://matplotlib.org/</dc:title>
     </cc:Agent>
    </dc:creator>
   </cc:Work>
  </rdf:RDF>
 </metadata>
 <defs>
  <style type="text/css">*{stroke-linecap:butt;stroke-linejoin:round;}</style>
 </defs>
 <g id="figure_1">
  <g id="patch_1">
   <path d="M 0 345.6 
L 460.8 345.6 
L 460.8 0 
L 0 0 
z
" style="fill:#ffffff;"/>
  </g>
  <g id="axes_1">
   <g id="patch_2">
    <path d="M 50.87 303.64 
L 366.25 303.64 
L 366.25 26.88 
L 50.87 26.88 
z
" style="fill:#ffffff;"/>
   </g>
   <g id="PolyCollection_1">
    <path clip-path="url(#pb218e78ef6)" d="M 65.205455 238.876695 
L 65.205455 270.222844 
L 71.05666 247.151085 
L 76.907866 183.630154 
L 82.759072 155.643543 
L 88.610278 108.490834 
L 94.461484 95.843675 
L 100.31269 100.283306 
L 106.163896 106.277983 
L 112.015102 83.783199 
L 117.866308 83.527127 
L 123.717514 76.613822 
L 129.56872 57.798689 
L 135.419926 62.511894 
L 141.271132 62.652875 
L 147.122338 54.922556 
L 152.973544 68.054381 
L 158.82475 54.304925 
L 164.675955 49.037363 
L 170.527161 61.487789 
L 176.378367 61.106582 
L 182.229573 57.063766 
L 188.080779 58.774136 
L 193.931985 51.732312 
L 199.783191 53.607595 
L 205.634397 47.134416 
L 211.485603 52.772036 
L 217.336809 46.516498 
L 223.188015 46.02853 
L 229.039221 48.403142 
L 234.890427 47.318621 
L 240.741633 45.043511 
L 246.592839 44.762865 
L 252.444045 46.935915 
L 258.29525 45.045166 
L 264.146456 44.927941 
L 269.997662 43.043296 
L 275.848868 45.592363 
L 281.700074 45.185194 
L 287.55128 43.232346 
L 293.402486 43.008972 
L 299.253692 44.52068 
L 305.104898 42.722607 
L 310.956104 44.776344 
L 316.80731 44.158576 
L 322.658516 44.533722 
L 328.509722 44.098514 
L 334.360928 41.068423 
L 340.212134 43.795902 
L 346.06334 41.822374 
L 351.914545 40.952288 
L 351.914545 40.243653 
L 351.914545 40.243653 
L 346.06334 39.651517 
L 340.212134 40.596461 
L 334.360928 39.571618 
L 328.509722 39.46 
L 322.658516 41.665314 
L 316.80731 39.816862 
L 310.956104 39.477044 
L 305.104898 41.113857 
L 299.253692 41.261431 
L 293.402486 40.966467 
L 287.55128 40.882067 
L 281.700074 40.596918 
L 275.848868 41.162573 
L 269.997662 41.210092 
L 264.146456 41.13212 
L 258.29525 41.987719 
L 252.444045 41.625693 
L 246.592839 42.54797 
L 240.741633 42.128349 
L 234.890427 42.910686 
L 229.039221 41.96514 
L 223.188015 42.811029 
L 217.336809 40.516388 
L 211.485603 43.989089 
L 205.634397 42.955916 
L 199.783191 44.54328 
L 193.931985 44.33394 
L 188.080779 42.29521 
L 182.229573 42.893781 
L 176.378367 40.935588 
L 170.527161 43.055929 
L 164.675955 45.778114 
L 158.82475 46.208521 
L 152.973544 43.021155 
L 147.122338 52.539634 
L 141.271132 44.114441 
L 135.419926 48.980566 
L 129.56872 50.7753 
L 123.717514 51.277672 
L 117.866308 49.923362 
L 112.015102 58.839631 
L 106.163896 61.638271 
L 100.31269 74.859641 
L 94.461484 73.184379 
L 88.610278 88.610141 
L 82.759072 121.923877 
L 76.907866 133.267152 
L 71.05666 158.412181 
L 65.205455 238.876695 
z
" style="fill:#1f77b4;fill-opacity:0.5;"/>
   </g>
   <g id="PolyCollection_2">
    <path clip-path="url(#pb218e78ef6)" d="M 65.205455 267.653564 
L 65.205455 291.06 
L 71.05666 279.108551 
L 76.907866 244.34986 
L 82.759072 261.38371 
L 88.610278 257.922037 
L 94.461484 168.174039 
L 100.31269 196.76834 
L 106.163896 229.341741 
L 112.015102 228.465296 
L 117.866308 181.533414 
L 123.717514 188.123207 
L 129.56872 145.787884 
L 135.419926 126.901659 
L 141.271132 150.651793 
L 147.122338 182.428743 
L 152.973544 184.507209 
L 158.82475 156.346779 
L 164.675955 134.043267 
L 170.527161 130.758077 
L 176.378367 149.203102 
L 182.229573 134.750026 
L 188.080779 127.832978 
L 193.931985 126.237486 
L 199.783191 121.090694 
L 205.634397 117.361794 
L 211.485603 139.07209 
L 217.336809 152.712674 
L 223.188015 76.333396 
L 229.039221 106.658557 
L 234.890427 152.872329 
L 240.741633 168.318658 
L 246.592839 148.405596 
L 252.444045 152.678699 
L 258.29525 120.776621 
L 264.146456 112.026775 
L 269.997662 125.278857 
L 275.848868 158.504601 
L 281.700074 116.670529 
L 287.55128 82.6067 
L 293.402486 113.61228 
L 299.253692 83.82102 
L 305.104898 73.486881 
L 310.956104 87.804534 
L 316.80731 83.919494 
L 322.658516 104.278252 
L 328.509722 82.246823 
L 334.360928 78.091919 
L 340.212134 96.275363 
L 346.06334 77.648733 
L 351.914545 113.315547 
L 351.914545 55.295582 
L 351.914545 55.295582 
L 346.06334 50.659686 
L 340.212134 63.997274 
L 334.360928 62.446288 
L 328.509722 64.684227 
L 322.658516 70.864695 
L 316.80731 51.337668 
L 310.956104 53.428547 
L 305.104898 55.377438 
L 299.253692 70.892623 
L 293.402486 52.775251 
L 287.55128 64.046401 
L 281.700074 70.424256 
L 275.848868 56.524132 
L 269.997662 63.483626 
L 264.146456 86.047024 
L 258.29525 80.076676 
L 252.444045 59.848485 
L 246.592839 70.514432 
L 240.741633 41.984929 
L 234.890427 47.008143 
L 229.039221 62.925396 
L 223.188015 57.395043 
L 217.336809 48.835496 
L 211.485603 85.823858 
L 205.634397 61.255524 
L 199.783191 69.617437 
L 193.931985 79.479931 
L 188.080779 85.806006 
L 182.229573 79.583832 
L 176.378367 71.384625 
L 170.527161 79.54551 
L 164.675955 72.507998 
L 158.82475 59.237853 
L 152.973544 90.419688 
L 147.122338 91.80328 
L 141.271132 97.86988 
L 135.419926 94.658892 
L 129.56872 108.014834 
L 123.717514 114.737637 
L 117.866308 62.541064 
L 112.015102 96.770501 
L 106.163896 133.417269 
L 100.31269 141.253145 
L 94.461484 119.121621 
L 88.610278 213.098389 
L 82.759072 185.45509 
L 76.907866 177.195516 
L 71.05666 230.824836 
L 65.205455 267.653564 
z
" style="fill:#ff7f0e;fill-opacity:0.5;"/>
   </g>
   <g id="PolyCollection_3">
    <path clip-path="url(#pb218e78ef6)" d="M 65.205455 211.64604 
L 65.205455 264.655431 
L 71.05666 220.665871 
L 76.907866 188.387506 
L 82.759072 165.276863 
L 88.610278 124.528736 
L 94.461484 84.49637 
L 100.31269 92.493252 
L 106.163896 80.90823 
L 112.015102 72.398088 
L 117.866308 79.346921 
L 123.717514 56.9028 
L 129.56872 53.710568 
L 135.419926 58.067244 
L 141.271132 57.323177 
L 147.122338 54.425197 
L 152.973544 53.808704 
L 158.82475 49.439621 
L 164.675955 48.950876 
L 170.527161 49.368902 
L 176.378367 55.942805 
L 182.229573 45.925009 
L 188.080779 51.791646 
L 193.931985 47.834727 
L 199.783191 52.695376 
L 205.634397 46.87867 
L 211.485603 47.252487 
L 217.336809 44.930303 
L 223.188015 48.186147 
L 229.039221 45.43572 
L 234.890427 44.245461 
L 240.741633 44.742679 
L 246.592839 45.096602 
L 252.444045 45.240216 
L 258.29525 47.52539 
L 264.146456 46.241967 
L 269.997662 46.241967 
L 275.848868 47.481084 
L 281.700074 45.592357 
L 287.55128 45.197455 
L 293.402486 45.177696 
L 299.253692 46.68792 
L 305.104898 45.223795 
L 310.956104 46.093459 
L 316.80731 45.21604 
L 322.658516 45.166691 
L 328.509722 45.074898 
L 334.360928 45.127023 
L 340.212134 45.061317 
L 346.06334 45.127023 
L 351.914545 45.514128 
L 351.914545 41.657732 
L 351.914545 41.657732 
L 346.06334 41.210988 
L 340.212134 40.859769 
L 334.360928 41.210988 
L 328.509722 40.985163 
L 322.658516 41.310295 
L 316.80731 41.399921 
L 310.956104 42.051225 
L 305.104898 41.531141 
L 299.253692 41.873689 
L 293.402486 41.438265 
L 287.55128 41.557481 
L 281.700074 42.274378 
L 275.848868 42.470274 
L 269.997662 42.180666 
L 264.146456 42.180666 
L 258.29525 42.564942 
L 252.444045 41.653695 
L 246.592839 41.102434 
L 240.741633 42.012256 
L 234.890427 42.231524 
L 229.039221 43.264863 
L 223.188015 43.015984 
L 217.336809 42.102583 
L 211.485603 43.115795 
L 205.634397 43.072687 
L 199.783191 41.703176 
L 193.931985 43.506379 
L 188.080779 43.996655 
L 182.229573 44.304298 
L 176.378367 44.987566 
L 170.527161 45.307601 
L 164.675955 45.586651 
L 158.82475 45.097907 
L 152.973544 47.260642 
L 147.122338 48.172873 
L 141.271132 51.667737 
L 135.419926 49.394946 
L 129.56872 49.026476 
L 123.717514 49.308616 
L 117.866308 57.577939 
L 112.015102 61.469325 
L 106.163896 61.714599 
L 100.31269 65.972712 
L 94.461484 66.464951 
L 88.610278 84.663052 
L 82.759072 102.423341 
L 76.907866 126.564152 
L 71.05666 145.706485 
L 65.205455 211.64604 
z
" style="fill:#2ca02c;fill-opacity:0.5;"/>
   </g>
   <g id="PolyCollection_4">
    <path clip-path="url(#pb218e78ef6)" d="M 65.205455 222.925078 
L 65.205455 260.070534 
L 71.05666 226.380557 
L 76.907866 208.48348 
L 82.759072 194.789949 
L 88.610278 189.095683 
L 94.461484 187.191142 
L 100.31269 179.296178 
L 106.163896 171.993877 
L 112.015102 164.045931 
L 117.866308 156.515202 
L 123.717514 147.998912 
L 129.56872 139.026752 
L 135.419926 130.738514 
L 141.271132 124.614696 
L 147.122338 119.547338 
L 152.973544 116.102758 
L 158.82475 112.717113 
L 164.675955 110.295341 
L 170.527161 108.830828 
L 176.378367 106.484174 
L 182.229573 104.342208 
L 188.080779 102.426447 
L 193.931985 100.725282 
L 199.783191 100.075549 
L 205.634397 100.640654 
L 211.485603 99.398702 
L 217.336809 99.186887 
L 223.188015 98.574926 
L 229.039221 97.241384 
L 234.890427 96.393041 
L 240.741633 97.177553 
L 246.592839 96.661131 
L 252.444045 95.778325 
L 258.29525 95.401549 
L 264.146456 95.354117 
L 269.997662 94.696568 
L 275.848868 94.272499 
L 281.700074 94.334853 
L 287.55128 94.579339 
L 293.402486 94.549393 
L 299.253692 94.354867 
L 305.104898 94.360413 
L 310.956104 93.852834 
L 316.80731 92.876524 
L 322.658516 92.804611 
L 328.509722 92.777561 
L 334.360928 92.822071 
L 340.212134 92.333095 
L 346.06334 92.386213 
L 351.914545 92.028005 
L 351.914545 76.879974 
L 351.914545 76.879974 
L 346.06334 77.103654 
L 340.212134 77.123835 
L 334.360928 77.73276 
L 328.509722 78.007829 
L 322.658516 78.31015 
L 316.80731 79.017747 
L 310.956104 79.435771 
L 305.104898 79.608891 
L 299.253692 79.394857 
L 293.402486 79.793198 
L 287.55128 80.059685 
L 281.700074 80.282213 
L 275.848868 80.421421 
L 269.997662 81.369728 
L 264.146456 81.381899 
L 258.29525 81.411321 
L 252.444045 81.868949 
L 246.592839 82.029149 
L 240.741633 82.511818 
L 234.890427 83.647658 
L 229.039221 83.919175 
L 223.188015 84.759478 
L 217.336809 85.805347 
L 211.485603 86.186399 
L 205.634397 87.019481 
L 199.783191 88.1006 
L 193.931985 89.240446 
L 188.080779 90.569488 
L 182.229573 91.848621 
L 176.378367 93.143086 
L 170.527161 94.188947 
L 164.675955 96.248698 
L 158.82475 98.602797 
L 152.973544 100.487079 
L 147.122338 103.245642 
L 141.271132 107.57632 
L 135.419926 110.795643 
L 129.56872 113.552293 
L 123.717514 120.53264 
L 117.866308 125.388789 
L 112.015102 129.144487 
L 106.163896 137.138069 
L 100.31269 146.249394 
L 94.461484 154.252043 
L 88.610278 162.931271 
L 82.759072 175.154756 
L 76.907866 189.677291 
L 71.05666 196.86726 
L 65.205455 222.925078 
z
" style="fill:#d62728;fill-opacity:0.5;"/>
   </g>
   <g id="matplotlib.axis_1">
    <g id="xtick_1">
     <g id="line2d_1">
      <path clip-path="url(#pb218e78ef6)" d="M 65.205455 303.64 
L 65.205455 26.88 
" style="fill:none;stroke:#b0b0b0;stroke-linecap:square;stroke-width:0.8;"/>
     </g>
     <g id="line2d_2">
      <defs>
       <path d="M 0 0 
L 0 3.5 
" id="mf417351410" style="stroke:#000000;stroke-width:0.8;"/>
      </defs>
      <g>
       <use style="stroke:#000000;stroke-width:0.8;" x="65.205455" xlink:href="#mf417351410" y="303.64"/>
      </g>
     </g>
     <g id="text_1">
      <!-- 0 -->
      <g transform="translate(62.024205 318.238437)scale(0.1 -0.1)">
       <defs>
        <path d="M 2034 4250 
Q 1547 4250 1301 3770 
Q 1056 3291 1056 2328 
Q 1056 1369 1301 889 
Q 1547 409 2034 409 
Q 2525 409 2770 889 
Q 3016 1369 3016 2328 
Q 3016 3291 2770 3770 
Q 2525 4250 2034 4250 
z
M 2034 4750 
Q 2819 4750 3233 4129 
Q 3647 3509 3647 2328 
Q 3647 1150 3233 529 
Q 2819 -91 2034 -91 
Q 1250 -91 836 529 
Q 422 1150 422 2328 
Q 422 3509 836 4129 
Q 1250 4750 2034 4750 
z
" id="DejaVuSans-30" transform="scale(0.015625)"/>
       </defs>
       <use xlink:href="#DejaVuSans-30"/>
      </g>
     </g>
    </g>
    <g id="xtick_2">
     <g id="line2d_3">
      <path clip-path="url(#pb218e78ef6)" d="M 123.717514 303.64 
L 123.717514 26.88 
" style="fill:none;stroke:#b0b0b0;stroke-linecap:square;stroke-width:0.8;"/>
     </g>
     <g id="line2d_4">
      <g>
       <use style="stroke:#000000;stroke-width:0.8;" x="123.717514" xlink:href="#mf417351410" y="303.64"/>
      </g>
     </g>
     <g id="text_2">
      <!-- 10 -->
      <g transform="translate(117.355014 318.238437)scale(0.1 -0.1)">
       <defs>
        <path d="M 794 531 
L 1825 531 
L 1825 4091 
L 703 3866 
L 703 4441 
L 1819 4666 
L 2450 4666 
L 2450 531 
L 3481 531 
L 3481 0 
L 794 0 
L 794 531 
z
" id="DejaVuSans-31" transform="scale(0.015625)"/>
       </defs>
       <use xlink:href="#DejaVuSans-31"/>
       <use x="63.623047" xlink:href="#DejaVuSans-30"/>
      </g>
     </g>
    </g>
    <g id="xtick_3">
     <g id="line2d_5">
      <path clip-path="url(#pb218e78ef6)" d="M 182.229573 303.64 
L 182.229573 26.88 
" style="fill:none;stroke:#b0b0b0;stroke-linecap:square;stroke-width:0.8;"/>
     </g>
     <g id="line2d_6">
      <g>
       <use style="stroke:#000000;stroke-width:0.8;" x="182.229573" xlink:href="#mf417351410" y="303.64"/>
      </g>
     </g>
     <g id="text_3">
      <!-- 20 -->
      <g transform="translate(175.867073 318.238437)scale(0.1 -0.1)">
       <defs>
        <path d="M 1228 531 
L 3431 531 
L 3431 0 
L 469 0 
L 469 531 
Q 828 903 1448 1529 
Q 2069 2156 2228 2338 
Q 2531 2678 2651 2914 
Q 2772 3150 2772 3378 
Q 2772 3750 2511 3984 
Q 2250 4219 1831 4219 
Q 1534 4219 1204 4116 
Q 875 4013 500 3803 
L 500 4441 
Q 881 4594 1212 4672 
Q 1544 4750 1819 4750 
Q 2544 4750 2975 4387 
Q 3406 4025 3406 3419 
Q 3406 3131 3298 2873 
Q 3191 2616 2906 2266 
Q 2828 2175 2409 1742 
Q 1991 1309 1228 531 
z
" id="DejaVuSans-32" transform="scale(0.015625)"/>
       </defs>
       <use xlink:href="#DejaVuSans-32"/>
       <use x="63.623047" xlink:href="#DejaVuSans-30"/>
      </g>
     </g>
    </g>
    <g id="xtick_4">
     <g id="line2d_7">
      <path clip-path="url(#pb218e78ef6)" d="M 240.741633 303.64 
L 240.741633 26.88 
" style="fill:none;stroke:#b0b0b0;stroke-linecap:square;stroke-width:0.8;"/>
     </g>
     <g id="line2d_8">
      <g>
       <use style="stroke:#000000;stroke-width:0.8;" x="240.741633" xlink:href="#mf417351410" y="303.64"/>
      </g>
     </g>
     <g id="text_4">
      <!-- 30 -->
      <g transform="translate(234.379133 318.238437)scale(0.1 -0.1)">
       <defs>
        <path d="M 2597 2516 
Q 3050 2419 3304 2112 
Q 3559 1806 3559 1356 
Q 3559 666 3084 287 
Q 2609 -91 1734 -91 
Q 1441 -91 1130 -33 
Q 819 25 488 141 
L 488 750 
Q 750 597 1062 519 
Q 1375 441 1716 441 
Q 2309 441 2620 675 
Q 2931 909 2931 1356 
Q 2931 1769 2642 2001 
Q 2353 2234 1838 2234 
L 1294 2234 
L 1294 2753 
L 1863 2753 
Q 2328 2753 2575 2939 
Q 2822 3125 2822 3475 
Q 2822 3834 2567 4026 
Q 2313 4219 1838 4219 
Q 1578 4219 1281 4162 
Q 984 4106 628 3988 
L 628 4550 
Q 988 4650 1302 4700 
Q 1616 4750 1894 4750 
Q 2613 4750 3031 4423 
Q 3450 4097 3450 3541 
Q 3450 3153 3228 2886 
Q 3006 2619 2597 2516 
z
" id="DejaVuSans-33" transform="scale(0.015625)"/>
       </defs>
       <use xlink:href="#DejaVuSans-33"/>
       <use x="63.623047" xlink:href="#DejaVuSans-30"/>
      </g>
     </g>
    </g>
    <g id="xtick_5">
     <g id="line2d_9">
      <path clip-path="url(#pb218e78ef6)" d="M 299.253692 303.64 
L 299.253692 26.88 
" style="fill:none;stroke:#b0b0b0;stroke-linecap:square;stroke-width:0.8;"/>
     </g>
     <g id="line2d_10">
      <g>
       <use style="stroke:#000000;stroke-width:0.8;" x="299.253692" xlink:href="#mf417351410" y="303.64"/>
      </g>
     </g>
     <g id="text_5">
      <!-- 40 -->
      <g transform="translate(292.891192 318.238437)scale(0.1 -0.1)">
       <defs>
        <path d="M 2419 4116 
L 825 1625 
L 2419 1625 
L 2419 4116 
z
M 2253 4666 
L 3047 4666 
L 3047 1625 
L 3713 1625 
L 3713 1100 
L 3047 1100 
L 3047 0 
L 2419 0 
L 2419 1100 
L 313 1100 
L 313 1709 
L 2253 4666 
z
" id="DejaVuSans-34" transform="scale(0.015625)"/>
       </defs>
       <use xlink:href="#DejaVuSans-34"/>
       <use x="63.623047" xlink:href="#DejaVuSans-30"/>
      </g>
     </g>
    </g>
    <g id="xtick_6">
     <g id="line2d_11">
      <path clip-path="url(#pb218e78ef6)" d="M 357.765751 303.64 
L 357.765751 26.88 
" style="fill:none;stroke:#b0b0b0;stroke-linecap:square;stroke-width:0.8;"/>
     </g>
     <g id="line2d_12">
      <g>
       <use style="stroke:#000000;stroke-width:0.8;" x="357.765751" xlink:href="#mf417351410" y="303.64"/>
      </g>
     </g>
     <g id="text_6">
      <!-- 50 -->
      <g transform="translate(351.403251 318.238437)scale(0.1 -0.1)">
       <defs>
        <path d="M 691 4666 
L 3169 4666 
L 3169 4134 
L 1269 4134 
L 1269 2991 
Q 1406 3038 1543 3061 
Q 1681 3084 1819 3084 
Q 2600 3084 3056 2656 
Q 3513 2228 3513 1497 
Q 3513 744 3044 326 
Q 2575 -91 1722 -91 
Q 1428 -91 1123 -41 
Q 819 9 494 109 
L 494 744 
Q 775 591 1075 516 
Q 1375 441 1709 441 
Q 2250 441 2565 725 
Q 2881 1009 2881 1497 
Q 2881 1984 2565 2268 
Q 2250 2553 1709 2553 
Q 1456 2553 1204 2497 
Q 953 2441 691 2322 
L 691 4666 
z
" id="DejaVuSans-35" transform="scale(0.015625)"/>
       </defs>
       <use xlink:href="#DejaVuSans-35"/>
       <use x="63.623047" xlink:href="#DejaVuSans-30"/>
      </g>
     </g>
    </g>
    <g id="text_7">
     <!-- Global Communication Rounds -->
     <g transform="translate(131.598281 331.916562)scale(0.1 -0.1)">
      <defs>
       <path d="M 3809 666 
L 3809 1919 
L 2778 1919 
L 2778 2438 
L 4434 2438 
L 4434 434 
Q 4069 175 3628 42 
Q 3188 -91 2688 -91 
Q 1594 -91 976 548 
Q 359 1188 359 2328 
Q 359 3472 976 4111 
Q 1594 4750 2688 4750 
Q 3144 4750 3555 4637 
Q 3966 4525 4313 4306 
L 4313 3634 
Q 3963 3931 3569 4081 
Q 3175 4231 2741 4231 
Q 1884 4231 1454 3753 
Q 1025 3275 1025 2328 
Q 1025 1384 1454 906 
Q 1884 428 2741 428 
Q 3075 428 3337 486 
Q 3600 544 3809 666 
z
" id="DejaVuSans-47" transform="scale(0.015625)"/>
       <path d="M 603 4863 
L 1178 4863 
L 1178 0 
L 603 0 
L 603 4863 
z
" id="DejaVuSans-6c" transform="scale(0.015625)"/>
       <path d="M 1959 3097 
Q 1497 3097 1228 2736 
Q 959 2375 959 1747 
Q 959 1119 1226 758 
Q 1494 397 1959 397 
Q 2419 397 2687 759 
Q 2956 1122 2956 1747 
Q 2956 2369 2687 2733 
Q 2419 3097 1959 3097 
z
M 1959 3584 
Q 2709 3584 3137 3096 
Q 3566 2609 3566 1747 
Q 3566 888 3137 398 
Q 2709 -91 1959 -91 
Q 1206 -91 779 398 
Q 353 888 353 1747 
Q 353 2609 779 3096 
Q 1206 3584 1959 3584 
z
" id="DejaVuSans-6f" transform="scale(0.015625)"/>
       <path d="M 3116 1747 
Q 3116 2381 2855 2742 
Q 2594 3103 2138 3103 
Q 1681 3103 1420 2742 
Q 1159 2381 1159 1747 
Q 1159 1113 1420 752 
Q 1681 391 2138 391 
Q 2594 391 2855 752 
Q 3116 1113 3116 1747 
z
M 1159 2969 
Q 1341 3281 1617 3432 
Q 1894 3584 2278 3584 
Q 2916 3584 3314 3078 
Q 3713 2572 3713 1747 
Q 3713 922 3314 415 
Q 2916 -91 2278 -91 
Q 1894 -91 1617 61 
Q 1341 213 1159 525 
L 1159 0 
L 581 0 
L 581 4863 
L 1159 4863 
L 1159 2969 
z
" id="DejaVuSans-62" transform="scale(0.015625)"/>
       <path d="M 2194 1759 
Q 1497 1759 1228 1600 
Q 959 1441 959 1056 
Q 959 750 1161 570 
Q 1363 391 1709 391 
Q 2188 391 2477 730 
Q 2766 1069 2766 1631 
L 2766 1759 
L 2194 1759 
z
M 3341 1997 
L 3341 0 
L 2766 0 
L 2766 531 
Q 2569 213 2275 61 
Q 1981 -91 1556 -91 
Q 1019 -91 701 211 
Q 384 513 384 1019 
Q 384 1609 779 1909 
Q 1175 2209 1959 2209 
L 2766 2209 
L 2766 2266 
Q 2766 2663 2505 2880 
Q 2244 3097 1772 3097 
Q 1472 3097 1187 3025 
Q 903 2953 641 2809 
L 641 3341 
Q 956 3463 1253 3523 
Q 1550 3584 1831 3584 
Q 2591 3584 2966 3190 
Q 3341 2797 3341 1997 
z
" id="DejaVuSans-61" transform="scale(0.015625)"/>
       <path id="DejaVuSans-20" transform="scale(0.015625)"/>
       <path d="M 4122 4306 
L 4122 3641 
Q 3803 3938 3442 4084 
Q 3081 4231 2675 4231 
Q 1875 4231 1450 3742 
Q 1025 3253 1025 2328 
Q 1025 1406 1450 917 
Q 1875 428 2675 428 
Q 3081 428 3442 575 
Q 3803 722 4122 1019 
L 4122 359 
Q 3791 134 3420 21 
Q 3050 -91 2638 -91 
Q 1578 -91 968 557 
Q 359 1206 359 2328 
Q 359 3453 968 4101 
Q 1578 4750 2638 4750 
Q 3056 4750 3426 4639 
Q 3797 4528 4122 4306 
z
" id="DejaVuSans-43" transform="scale(0.015625)"/>
       <path d="M 3328 2828 
Q 3544 3216 3844 3400 
Q 4144 3584 4550 3584 
Q 5097 3584 5394 3201 
Q 5691 2819 5691 2113 
L 5691 0 
L 5113 0 
L 5113 2094 
Q 5113 2597 4934 2840 
Q 4756 3084 4391 3084 
Q 3944 3084 3684 2787 
Q 3425 2491 3425 1978 
L 3425 0 
L 2847 0 
L 2847 2094 
Q 2847 2600 2669 2842 
Q 2491 3084 2119 3084 
Q 1678 3084 1418 2786 
Q 1159 2488 1159 1978 
L 1159 0 
L 581 0 
L 581 3500 
L 1159 3500 
L 1159 2956 
Q 1356 3278 1631 3431 
Q 1906 3584 2284 3584 
Q 2666 3584 2933 3390 
Q 3200 3197 3328 2828 
z
" id="DejaVuSans-6d" transform="scale(0.015625)"/>
       <path d="M 544 1381 
L 544 3500 
L 1119 3500 
L 1119 1403 
Q 1119 906 1312 657 
Q 1506 409 1894 409 
Q 2359 409 2629 706 
Q 2900 1003 2900 1516 
L 2900 3500 
L 3475 3500 
L 3475 0 
L 2900 0 
L 2900 538 
Q 2691 219 2414 64 
Q 2138 -91 1772 -91 
Q 1169 -91 856 284 
Q 544 659 544 1381 
z
M 1991 3584 
L 1991 3584 
z
" id="DejaVuSans-75" transform="scale(0.015625)"/>
       <path d="M 3513 2113 
L 3513 0 
L 2938 0 
L 2938 2094 
Q 2938 2591 2744 2837 
Q 2550 3084 2163 3084 
Q 1697 3084 1428 2787 
Q 1159 2491 1159 1978 
L 1159 0 
L 581 0 
L 581 3500 
L 1159 3500 
L 1159 2956 
Q 1366 3272 1645 3428 
Q 1925 3584 2291 3584 
Q 2894 3584 3203 3211 
Q 3513 2838 3513 2113 
z
" id="DejaVuSans-6e" transform="scale(0.015625)"/>
       <path d="M 603 3500 
L 1178 3500 
L 1178 0 
L 603 0 
L 603 3500 
z
M 603 4863 
L 1178 4863 
L 1178 4134 
L 603 4134 
L 603 4863 
z
" id="DejaVuSans-69" transform="scale(0.015625)"/>
       <path d="M 3122 3366 
L 3122 2828 
Q 2878 2963 2633 3030 
Q 2388 3097 2138 3097 
Q 1578 3097 1268 2742 
Q 959 2388 959 1747 
Q 959 1106 1268 751 
Q 1578 397 2138 397 
Q 2388 397 2633 464 
Q 2878 531 3122 666 
L 3122 134 
Q 2881 22 2623 -34 
Q 2366 -91 2075 -91 
Q 1284 -91 818 406 
Q 353 903 353 1747 
Q 353 2603 823 3093 
Q 1294 3584 2113 3584 
Q 2378 3584 2631 3529 
Q 2884 3475 3122 3366 
z
" id="DejaVuSans-63" transform="scale(0.015625)"/>
       <path d="M 1172 4494 
L 1172 3500 
L 2356 3500 
L 2356 3053 
L 1172 3053 
L 1172 1153 
Q 1172 725 1289 603 
Q 1406 481 1766 481 
L 2356 481 
L 2356 0 
L 1766 0 
Q 1100 0 847 248 
Q 594 497 594 1153 
L 594 3053 
L 172 3053 
L 172 3500 
L 594 3500 
L 594 4494 
L 1172 4494 
z
" id="DejaVuSans-74" transform="scale(0.015625)"/>
       <path d="M 2841 2188 
Q 3044 2119 3236 1894 
Q 3428 1669 3622 1275 
L 4263 0 
L 3584 0 
L 2988 1197 
Q 2756 1666 2539 1819 
Q 2322 1972 1947 1972 
L 1259 1972 
L 1259 0 
L 628 0 
L 628 4666 
L 2053 4666 
Q 2853 4666 3247 4331 
Q 3641 3997 3641 3322 
Q 3641 2881 3436 2590 
Q 3231 2300 2841 2188 
z
M 1259 4147 
L 1259 2491 
L 2053 2491 
Q 2509 2491 2742 2702 
Q 2975 2913 2975 3322 
Q 2975 3731 2742 3939 
Q 2509 4147 2053 4147 
L 1259 4147 
z
" id="DejaVuSans-52" transform="scale(0.015625)"/>
       <path d="M 2906 2969 
L 2906 4863 
L 3481 4863 
L 3481 0 
L 2906 0 
L 2906 525 
Q 2725 213 2448 61 
Q 2172 -91 1784 -91 
Q 1150 -91 751 415 
Q 353 922 353 1747 
Q 353 2572 751 3078 
Q 1150 3584 1784 3584 
Q 2172 3584 2448 3432 
Q 2725 3281 2906 2969 
z
M 947 1747 
Q 947 1113 1208 752 
Q 1469 391 1925 391 
Q 2381 391 2643 752 
Q 2906 1113 2906 1747 
Q 2906 2381 2643 2742 
Q 2381 3103 1925 3103 
Q 1469 3103 1208 2742 
Q 947 2381 947 1747 
z
" id="DejaVuSans-64" transform="scale(0.015625)"/>
       <path d="M 2834 3397 
L 2834 2853 
Q 2591 2978 2328 3040 
Q 2066 3103 1784 3103 
Q 1356 3103 1142 2972 
Q 928 2841 928 2578 
Q 928 2378 1081 2264 
Q 1234 2150 1697 2047 
L 1894 2003 
Q 2506 1872 2764 1633 
Q 3022 1394 3022 966 
Q 3022 478 2636 193 
Q 2250 -91 1575 -91 
Q 1294 -91 989 -36 
Q 684 19 347 128 
L 347 722 
Q 666 556 975 473 
Q 1284 391 1588 391 
Q 1994 391 2212 530 
Q 2431 669 2431 922 
Q 2431 1156 2273 1281 
Q 2116 1406 1581 1522 
L 1381 1569 
Q 847 1681 609 1914 
Q 372 2147 372 2553 
Q 372 3047 722 3315 
Q 1072 3584 1716 3584 
Q 2034 3584 2315 3537 
Q 2597 3491 2834 3397 
z
" id="DejaVuSans-73" transform="scale(0.015625)"/>
      </defs>
      <use xlink:href="#DejaVuSans-47"/>
      <use x="77.490234" xlink:href="#DejaVuSans-6c"/>
      <use x="105.273438" xlink:href="#DejaVuSans-6f"/>
      <use x="166.455078" xlink:href="#DejaVuSans-62"/>
      <use x="229.931641" xlink:href="#DejaVuSans-61"/>
      <use x="291.210938" xlink:href="#DejaVuSans-6c"/>
      <use x="318.994141" xlink:href="#DejaVuSans-20"/>
      <use x="350.78125" xlink:href="#DejaVuSans-43"/>
      <use x="420.605469" xlink:href="#DejaVuSans-6f"/>
      <use x="481.787109" xlink:href="#DejaVuSans-6d"/>
      <use x="579.199219" xlink:href="#DejaVuSans-6d"/>
      <use x="676.611328" xlink:href="#DejaVuSans-75"/>
      <use x="739.990234" xlink:href="#DejaVuSans-6e"/>
      <use x="803.369141" xlink:href="#DejaVuSans-69"/>
      <use x="831.152344" xlink:href="#DejaVuSans-63"/>
      <use x="886.132812" xlink:href="#DejaVuSans-61"/>
      <use x="947.412109" xlink:href="#DejaVuSans-74"/>
      <use x="986.621094" xlink:href="#DejaVuSans-69"/>
      <use x="1014.404297" xlink:href="#DejaVuSans-6f"/>
      <use x="1075.585938" xlink:href="#DejaVuSans-6e"/>
      <use x="1138.964844" xlink:href="#DejaVuSans-20"/>
      <use x="1170.751953" xlink:href="#DejaVuSans-52"/>
      <use x="1235.734375" xlink:href="#DejaVuSans-6f"/>
      <use x="1296.916016" xlink:href="#DejaVuSans-75"/>
      <use x="1360.294922" xlink:href="#DejaVuSans-6e"/>
      <use x="1423.673828" xlink:href="#DejaVuSans-64"/>
      <use x="1487.150391" xlink:href="#DejaVuSans-73"/>
     </g>
    </g>
   </g>
   <g id="matplotlib.axis_2">
    <g id="ytick_1">
     <g id="line2d_13">
      <path clip-path="url(#pb218e78ef6)" d="M 50.87 256.912342 
L 366.25 256.912342 
" style="fill:none;stroke:#b0b0b0;stroke-linecap:square;stroke-width:0.8;"/>
     </g>
     <g id="line2d_14">
      <defs>
       <path d="M 0 0 
L -3.5 0 
" id="mce42e2034b" style="stroke:#000000;stroke-width:0.8;"/>
      </defs>
      <g>
       <use style="stroke:#000000;stroke-width:0.8;" x="50.87" xlink:href="#mce42e2034b" y="256.912342"/>
      </g>
     </g>
     <g id="text_8">
      <!-- 20 -->
      <g transform="translate(31.145 260.71156)scale(0.1 -0.1)">
       <use xlink:href="#DejaVuSans-32"/>
       <use x="63.623047" xlink:href="#DejaVuSans-30"/>
      </g>
     </g>
    </g>
    <g id="ytick_2">
     <g id="line2d_15">
      <path clip-path="url(#pb218e78ef6)" d="M 50.87 202.017272 
L 366.25 202.017272 
" style="fill:none;stroke:#b0b0b0;stroke-linecap:square;stroke-width:0.8;"/>
     </g>
     <g id="line2d_16">
      <g>
       <use style="stroke:#000000;stroke-width:0.8;" x="50.87" xlink:href="#mce42e2034b" y="202.017272"/>
      </g>
     </g>
     <g id="text_9">
      <!-- 40 -->
      <g transform="translate(31.145 205.81649)scale(0.1 -0.1)">
       <use xlink:href="#DejaVuSans-34"/>
       <use x="63.623047" xlink:href="#DejaVuSans-30"/>
      </g>
     </g>
    </g>
    <g id="ytick_3">
     <g id="line2d_17">
      <path clip-path="url(#pb218e78ef6)" d="M 50.87 147.122202 
L 366.25 147.122202 
" style="fill:none;stroke:#b0b0b0;stroke-linecap:square;stroke-width:0.8;"/>
     </g>
     <g id="line2d_18">
      <g>
       <use style="stroke:#000000;stroke-width:0.8;" x="50.87" xlink:href="#mce42e2034b" y="147.122202"/>
      </g>
     </g>
     <g id="text_10">
      <!-- 60 -->
      <g transform="translate(31.145 150.92142)scale(0.1 -0.1)">
       <defs>
        <path d="M 2113 2584 
Q 1688 2584 1439 2293 
Q 1191 2003 1191 1497 
Q 1191 994 1439 701 
Q 1688 409 2113 409 
Q 2538 409 2786 701 
Q 3034 994 3034 1497 
Q 3034 2003 2786 2293 
Q 2538 2584 2113 2584 
z
M 3366 4563 
L 3366 3988 
Q 3128 4100 2886 4159 
Q 2644 4219 2406 4219 
Q 1781 4219 1451 3797 
Q 1122 3375 1075 2522 
Q 1259 2794 1537 2939 
Q 1816 3084 2150 3084 
Q 2853 3084 3261 2657 
Q 3669 2231 3669 1497 
Q 3669 778 3244 343 
Q 2819 -91 2113 -91 
Q 1303 -91 875 529 
Q 447 1150 447 2328 
Q 447 3434 972 4092 
Q 1497 4750 2381 4750 
Q 2619 4750 2861 4703 
Q 3103 4656 3366 4563 
z
" id="DejaVuSans-36" transform="scale(0.015625)"/>
       </defs>
       <use xlink:href="#DejaVuSans-36"/>
       <use x="63.623047" xlink:href="#DejaVuSans-30"/>
      </g>
     </g>
    </g>
    <g id="ytick_4">
     <g id="line2d_19">
      <path clip-path="url(#pb218e78ef6)" d="M 50.87 92.227131 
L 366.25 92.227131 
" style="fill:none;stroke:#b0b0b0;stroke-linecap:square;stroke-width:0.8;"/>
     </g>
     <g id="line2d_20">
      <g>
       <use style="stroke:#000000;stroke-width:0.8;" x="50.87" xlink:href="#mce42e2034b" y="92.227131"/>
      </g>
     </g>
     <g id="text_11">
      <!-- 80 -->
      <g transform="translate(31.145 96.02635)scale(0.1 -0.1)">
       <defs>
        <path d="M 2034 2216 
Q 1584 2216 1326 1975 
Q 1069 1734 1069 1313 
Q 1069 891 1326 650 
Q 1584 409 2034 409 
Q 2484 409 2743 651 
Q 3003 894 3003 1313 
Q 3003 1734 2745 1975 
Q 2488 2216 2034 2216 
z
M 1403 2484 
Q 997 2584 770 2862 
Q 544 3141 544 3541 
Q 544 4100 942 4425 
Q 1341 4750 2034 4750 
Q 2731 4750 3128 4425 
Q 3525 4100 3525 3541 
Q 3525 3141 3298 2862 
Q 3072 2584 2669 2484 
Q 3125 2378 3379 2068 
Q 3634 1759 3634 1313 
Q 3634 634 3220 271 
Q 2806 -91 2034 -91 
Q 1263 -91 848 271 
Q 434 634 434 1313 
Q 434 1759 690 2068 
Q 947 2378 1403 2484 
z
M 1172 3481 
Q 1172 3119 1398 2916 
Q 1625 2713 2034 2713 
Q 2441 2713 2670 2916 
Q 2900 3119 2900 3481 
Q 2900 3844 2670 4047 
Q 2441 4250 2034 4250 
Q 1625 4250 1398 4047 
Q 1172 3844 1172 3481 
z
" id="DejaVuSans-38" transform="scale(0.015625)"/>
       </defs>
       <use xlink:href="#DejaVuSans-38"/>
       <use x="63.623047" xlink:href="#DejaVuSans-30"/>
      </g>
     </g>
    </g>
    <g id="ytick_5">
     <g id="line2d_21">
      <path clip-path="url(#pb218e78ef6)" d="M 50.87 37.332061 
L 366.25 37.332061 
" style="fill:none;stroke:#b0b0b0;stroke-linecap:square;stroke-width:0.8;"/>
     </g>
     <g id="line2d_22">
      <g>
       <use style="stroke:#000000;stroke-width:0.8;" x="50.87" xlink:href="#mce42e2034b" y="37.332061"/>
      </g>
     </g>
     <g id="text_12">
      <!-- 100 -->
      <g transform="translate(24.7825 41.13128)scale(0.1 -0.1)">
       <use xlink:href="#DejaVuSans-31"/>
       <use x="63.623047" xlink:href="#DejaVuSans-30"/>
       <use x="127.246094" xlink:href="#DejaVuSans-30"/>
      </g>
     </g>
    </g>
    <g id="text_13">
     <!-- Test Accuracy -->
     <g transform="translate(18.702813 199.5225)rotate(-90)scale(0.1 -0.1)">
      <defs>
       <path d="M -19 4666 
L 3928 4666 
L 3928 4134 
L 2272 4134 
L 2272 0 
L 1638 0 
L 1638 4134 
L -19 4134 
L -19 4666 
z
" id="DejaVuSans-54" transform="scale(0.015625)"/>
       <path d="M 3597 1894 
L 3597 1613 
L 953 1613 
Q 991 1019 1311 708 
Q 1631 397 2203 397 
Q 2534 397 2845 478 
Q 3156 559 3463 722 
L 3463 178 
Q 3153 47 2828 -22 
Q 2503 -91 2169 -91 
Q 1331 -91 842 396 
Q 353 884 353 1716 
Q 353 2575 817 3079 
Q 1281 3584 2069 3584 
Q 2775 3584 3186 3129 
Q 3597 2675 3597 1894 
z
M 3022 2063 
Q 3016 2534 2758 2815 
Q 2500 3097 2075 3097 
Q 1594 3097 1305 2825 
Q 1016 2553 972 2059 
L 3022 2063 
z
" id="DejaVuSans-65" transform="scale(0.015625)"/>
       <path d="M 2188 4044 
L 1331 1722 
L 3047 1722 
L 2188 4044 
z
M 1831 4666 
L 2547 4666 
L 4325 0 
L 3669 0 
L 3244 1197 
L 1141 1197 
L 716 0 
L 50 0 
L 1831 4666 
z
" id="DejaVuSans-41" transform="scale(0.015625)"/>
       <path d="M 2631 2963 
Q 2534 3019 2420 3045 
Q 2306 3072 2169 3072 
Q 1681 3072 1420 2755 
Q 1159 2438 1159 1844 
L 1159 0 
L 581 0 
L 581 3500 
L 1159 3500 
L 1159 2956 
Q 1341 3275 1631 3429 
Q 1922 3584 2338 3584 
Q 2397 3584 2469 3576 
Q 2541 3569 2628 3553 
L 2631 2963 
z
" id="DejaVuSans-72" transform="scale(0.015625)"/>
       <path d="M 2059 -325 
Q 1816 -950 1584 -1140 
Q 1353 -1331 966 -1331 
L 506 -1331 
L 506 -850 
L 844 -850 
Q 1081 -850 1212 -737 
Q 1344 -625 1503 -206 
L 1606 56 
L 191 3500 
L 800 3500 
L 1894 763 
L 2988 3500 
L 3597 3500 
L 2059 -325 
z
" id="DejaVuSans-79" transform="scale(0.015625)"/>
      </defs>
      <use xlink:href="#DejaVuSans-54"/>
      <use x="44.083984" xlink:href="#DejaVuSans-65"/>
      <use x="105.607422" xlink:href="#DejaVuSans-73"/>
      <use x="157.707031" xlink:href="#DejaVuSans-74"/>
      <use x="196.916016" xlink:href="#DejaVuSans-20"/>
      <use x="228.703125" xlink:href="#DejaVuSans-41"/>
      <use x="295.361328" xlink:href="#DejaVuSans-63"/>
      <use x="350.341797" xlink:href="#DejaVuSans-63"/>
      <use x="405.322266" xlink:href="#DejaVuSans-75"/>
      <use x="468.701172" xlink:href="#DejaVuSans-72"/>
      <use x="509.814453" xlink:href="#DejaVuSans-61"/>
      <use x="571.09375" xlink:href="#DejaVuSans-63"/>
      <use x="626.074219" xlink:href="#DejaVuSans-79"/>
     </g>
    </g>
   </g>
   <g id="line2d_23">
    <path clip-path="url(#pb218e78ef6)" d="M 65.205455 254.549769 
L 71.05666 202.781633 
L 76.907866 158.448653 
L 82.759072 138.78371 
L 88.610278 98.550488 
L 94.461484 84.514027 
L 100.31269 87.571474 
L 106.163896 83.958127 
L 112.015102 71.311415 
L 117.866308 66.725244 
L 123.717514 63.945747 
L 129.56872 54.286994 
L 135.419926 55.74623 
L 141.271132 53.383658 
L 147.122338 53.731095 
L 152.973544 55.537768 
L 158.82475 50.256723 
L 164.675955 47.407739 
L 170.527161 52.271859 
L 176.378367 51.021085 
L 182.229573 49.978774 
L 188.080779 50.534673 
L 193.931985 48.033126 
L 199.783191 49.075437 
L 205.634397 45.045166 
L 211.485603 48.380563 
L 217.336809 43.516443 
L 223.188015 44.419779 
L 229.039221 45.184141 
L 234.890427 45.114654 
L 240.741633 43.58593 
L 246.592839 43.655417 
L 252.444045 44.280804 
L 258.29525 43.516443 
L 264.146456 43.030031 
L 269.997662 42.126694 
L 275.848868 43.377468 
L 281.700074 42.891056 
L 287.55128 42.057207 
L 293.402486 41.987719 
L 299.253692 42.891056 
L 305.104898 41.918232 
L 310.956104 42.126694 
L 316.80731 41.987719 
L 322.658516 43.099518 
L 328.509722 41.779257 
L 334.360928 40.320021 
L 340.212134 42.196181 
L 346.06334 40.736945 
L 351.914545 40.597971 
" style="fill:none;stroke:#1f77b4;stroke-linecap:square;stroke-width:1.5;"/>
   </g>
   <g id="line2d_24">
    <path clip-path="url(#pb218e78ef6)" d="M 65.205455 279.356782 
L 71.05666 254.966694 
L 76.907866 210.772688 
L 82.759072 223.4194 
L 88.610278 235.510213 
L 94.461484 143.64783 
L 100.31269 169.010742 
L 106.163896 181.379505 
L 112.015102 162.617899 
L 117.866308 122.037239 
L 123.717514 151.430422 
L 129.56872 126.901359 
L 135.419926 110.780275 
L 141.271132 124.260837 
L 147.122338 137.116012 
L 152.973544 137.463449 
L 158.82475 107.792316 
L 164.675955 103.275633 
L 170.527161 105.151793 
L 176.378367 110.293863 
L 182.229573 107.166929 
L 188.080779 106.819492 
L 193.931985 102.858708 
L 199.783191 95.354066 
L 205.634397 89.308659 
L 211.485603 112.447974 
L 217.336809 100.774085 
L 223.188015 66.864219 
L 229.039221 84.791976 
L 234.890427 99.940236 
L 240.741633 105.151793 
L 246.592839 109.460014 
L 252.444045 106.263592 
L 258.29525 100.426648 
L 264.146456 99.0369 
L 269.997662 94.381242 
L 275.848868 107.514366 
L 281.700074 93.547393 
L 287.55128 73.32655 
L 293.402486 83.193765 
L 299.253692 77.356821 
L 305.104898 64.432159 
L 310.956104 70.616541 
L 316.80731 67.628581 
L 322.658516 87.571474 
L 328.509722 73.465525 
L 334.360928 70.269103 
L 340.212134 80.136318 
L 346.06334 64.154209 
L 351.914545 84.305564 
" style="fill:none;stroke:#ff7f0e;stroke-linecap:square;stroke-width:1.5;"/>
   </g>
   <g id="line2d_25">
    <path clip-path="url(#pb218e78ef6)" d="M 65.205455 238.150736 
L 71.05666 183.186178 
L 76.907866 157.475829 
L 82.759072 133.850102 
L 88.610278 104.595894 
L 94.461484 75.480661 
L 100.31269 79.232982 
L 106.163896 71.311415 
L 112.015102 66.933707 
L 117.866308 68.46243 
L 123.717514 53.105708 
L 129.56872 51.368522 
L 135.419926 53.731095 
L 141.271132 54.495457 
L 147.122338 51.299035 
L 152.973544 50.534673 
L 158.82475 47.268764 
L 164.675955 47.268764 
L 170.527161 47.338251 
L 176.378367 50.465186 
L 182.229573 45.114654 
L 188.080779 47.894151 
L 193.931985 45.670553 
L 199.783191 47.199276 
L 205.634397 44.975679 
L 211.485603 45.184141 
L 217.336809 43.516443 
L 223.188015 45.601066 
L 229.039221 44.350292 
L 234.890427 43.238493 
L 240.741633 43.377468 
L 246.592839 43.099518 
L 252.444045 43.446955 
L 258.29525 45.045166 
L 264.146456 44.211317 
L 269.997662 44.211317 
L 275.848868 44.975679 
L 281.700074 43.933367 
L 287.55128 43.377468 
L 293.402486 43.30798 
L 299.253692 44.280804 
L 305.104898 43.377468 
L 310.956104 44.072342 
L 316.80731 43.30798 
L 322.658516 43.238493 
L 328.509722 43.030031 
L 334.360928 43.169005 
L 340.212134 42.960543 
L 346.06334 43.169005 
L 351.914545 43.58593 
" style="fill:none;stroke:#2ca02c;stroke-linecap:square;stroke-width:1.5;"/>
   </g>
   <g id="line2d_26">
    <path clip-path="url(#pb218e78ef6)" d="M 65.205455 241.497806 
L 71.05666 211.623909 
L 76.907866 199.080385 
L 82.759072 184.972352 
L 88.610278 176.013477 
L 94.461484 170.721592 
L 100.31269 162.772786 
L 106.163896 154.565973 
L 112.015102 146.595209 
L 117.866308 140.951996 
L 123.717514 134.265776 
L 129.56872 126.289522 
L 135.419926 120.767078 
L 141.271132 116.095508 
L 147.122338 111.39649 
L 152.973544 108.294918 
L 158.82475 105.659955 
L 164.675955 103.27202 
L 170.527161 101.509888 
L 176.378367 99.81363 
L 182.229573 98.095414 
L 188.080779 96.497968 
L 193.931985 94.982864 
L 199.783191 94.088074 
L 205.634397 93.830067 
L 211.485603 92.792551 
L 217.336809 92.496117 
L 223.188015 91.667202 
L 229.039221 90.580279 
L 234.890427 90.02035 
L 240.741633 89.844685 
L 246.592839 89.34514 
L 252.444045 88.823637 
L 258.29525 88.406435 
L 264.146456 88.368008 
L 269.997662 88.033148 
L 275.848868 87.34696 
L 281.700074 87.308533 
L 287.55128 87.319512 
L 293.402486 87.171295 
L 299.253692 86.874862 
L 305.104898 86.984652 
L 310.956104 86.644303 
L 316.80731 85.947135 
L 322.658516 85.55738 
L 328.509722 85.392695 
L 334.360928 85.277416 
L 340.212134 84.728465 
L 346.06334 84.744933 
L 351.914545 84.453989 
" style="fill:none;stroke:#d62728;stroke-linecap:square;stroke-width:1.5;"/>
   </g>
   <g id="patch_3">
    <path d="M 50.87 303.64 
L 50.87 26.88 
" style="fill:none;stroke:#000000;stroke-linecap:square;stroke-linejoin:miter;stroke-width:0.8;"/>
   </g>
   <g id="patch_4">
    <path d="M 366.25 303.64 
L 366.25 26.88 
" style="fill:none;stroke:#000000;stroke-linecap:square;stroke-linejoin:miter;stroke-width:0.8;"/>
   </g>
   <g id="patch_5">
    <path d="M 50.87 303.64 
L 366.25 303.64 
" style="fill:none;stroke:#000000;stroke-linecap:square;stroke-linejoin:miter;stroke-width:0.8;"/>
   </g>
   <g id="patch_6">
    <path d="M 50.87 26.88 
L 366.25 26.88 
" style="fill:none;stroke:#000000;stroke-linecap:square;stroke-linejoin:miter;stroke-width:0.8;"/>
   </g>
   <g id="text_14">
    <!-- MNIST Local Rounds 10 -->
    <g transform="translate(138.632812 20.88)scale(0.12 -0.12)">
     <defs>
      <path d="M 628 4666 
L 1569 4666 
L 2759 1491 
L 3956 4666 
L 4897 4666 
L 4897 0 
L 4281 0 
L 4281 4097 
L 3078 897 
L 2444 897 
L 1241 4097 
L 1241 0 
L 628 0 
L 628 4666 
z
" id="DejaVuSans-4d" transform="scale(0.015625)"/>
      <path d="M 628 4666 
L 1478 4666 
L 3547 763 
L 3547 4666 
L 4159 4666 
L 4159 0 
L 3309 0 
L 1241 3903 
L 1241 0 
L 628 0 
L 628 4666 
z
" id="DejaVuSans-4e" transform="scale(0.015625)"/>
      <path d="M 628 4666 
L 1259 4666 
L 1259 0 
L 628 0 
L 628 4666 
z
" id="DejaVuSans-49" transform="scale(0.015625)"/>
      <path d="M 3425 4513 
L 3425 3897 
Q 3066 4069 2747 4153 
Q 2428 4238 2131 4238 
Q 1616 4238 1336 4038 
Q 1056 3838 1056 3469 
Q 1056 3159 1242 3001 
Q 1428 2844 1947 2747 
L 2328 2669 
Q 3034 2534 3370 2195 
Q 3706 1856 3706 1288 
Q 3706 609 3251 259 
Q 2797 -91 1919 -91 
Q 1588 -91 1214 -16 
Q 841 59 441 206 
L 441 856 
Q 825 641 1194 531 
Q 1563 422 1919 422 
Q 2459 422 2753 634 
Q 3047 847 3047 1241 
Q 3047 1584 2836 1778 
Q 2625 1972 2144 2069 
L 1759 2144 
Q 1053 2284 737 2584 
Q 422 2884 422 3419 
Q 422 4038 858 4394 
Q 1294 4750 2059 4750 
Q 2388 4750 2728 4690 
Q 3069 4631 3425 4513 
z
" id="DejaVuSans-53" transform="scale(0.015625)"/>
      <path d="M 628 4666 
L 1259 4666 
L 1259 531 
L 3531 531 
L 3531 0 
L 628 0 
L 628 4666 
z
" id="DejaVuSans-4c" transform="scale(0.015625)"/>
     </defs>
     <use xlink:href="#DejaVuSans-4d"/>
     <use x="86.279297" xlink:href="#DejaVuSans-4e"/>
     <use x="161.083984" xlink:href="#DejaVuSans-49"/>
     <use x="190.576172" xlink:href="#DejaVuSans-53"/>
     <use x="254.052734" xlink:href="#DejaVuSans-54"/>
     <use x="315.136719" xlink:href="#DejaVuSans-20"/>
     <use x="346.923828" xlink:href="#DejaVuSans-4c"/>
     <use x="400.886719" xlink:href="#DejaVuSans-6f"/>
     <use x="462.068359" xlink:href="#DejaVuSans-63"/>
     <use x="517.048828" xlink:href="#DejaVuSans-61"/>
     <use x="578.328125" xlink:href="#DejaVuSans-6c"/>
     <use x="606.111328" xlink:href="#DejaVuSans-20"/>
     <use x="637.898438" xlink:href="#DejaVuSans-52"/>
     <use x="702.880859" xlink:href="#DejaVuSans-6f"/>
     <use x="764.0625" xlink:href="#DejaVuSans-75"/>
     <use x="827.441406" xlink:href="#DejaVuSans-6e"/>
     <use x="890.820312" xlink:href="#DejaVuSans-64"/>
     <use x="954.296875" xlink:href="#DejaVuSans-73"/>
     <use x="1006.396484" xlink:href="#DejaVuSans-20"/>
     <use x="1038.183594" xlink:href="#DejaVuSans-31"/>
     <use x="1101.806641" xlink:href="#DejaVuSans-30"/>
    </g>
   </g>
   <g id="legend_1">
    <g id="patch_7">
     <path d="M 373.25 196.11625 
L 447.821875 196.11625 
Q 449.821875 196.11625 449.821875 194.11625 
L 449.821875 136.40375 
Q 449.821875 134.40375 447.821875 134.40375 
L 373.25 134.40375 
Q 371.25 134.40375 371.25 136.40375 
L 371.25 194.11625 
Q 371.25 196.11625 373.25 196.11625 
z
" style="fill:#ffffff;opacity:0.8;stroke:#cccccc;stroke-linejoin:miter;"/>
    </g>
    <g id="line2d_27">
     <path d="M 375.25 142.502187 
L 395.25 142.502187 
" style="fill:none;stroke:#1f77b4;stroke-linecap:square;stroke-width:1.5;"/>
    </g>
    <g id="line2d_28"/>
    <g id="text_15">
     <!-- FedAvg -->
     <g transform="translate(403.25 146.002187)scale(0.1 -0.1)">
      <defs>
       <path d="M 628 4666 
L 3309 4666 
L 3309 4134 
L 1259 4134 
L 1259 2759 
L 3109 2759 
L 3109 2228 
L 1259 2228 
L 1259 0 
L 628 0 
L 628 4666 
z
" id="DejaVuSans-46" transform="scale(0.015625)"/>
       <path d="M 191 3500 
L 800 3500 
L 1894 563 
L 2988 3500 
L 3597 3500 
L 2284 0 
L 1503 0 
L 191 3500 
z
" id="DejaVuSans-76" transform="scale(0.015625)"/>
       <path d="M 2906 1791 
Q 2906 2416 2648 2759 
Q 2391 3103 1925 3103 
Q 1463 3103 1205 2759 
Q 947 2416 947 1791 
Q 947 1169 1205 825 
Q 1463 481 1925 481 
Q 2391 481 2648 825 
Q 2906 1169 2906 1791 
z
M 3481 434 
Q 3481 -459 3084 -895 
Q 2688 -1331 1869 -1331 
Q 1566 -1331 1297 -1286 
Q 1028 -1241 775 -1147 
L 775 -588 
Q 1028 -725 1275 -790 
Q 1522 -856 1778 -856 
Q 2344 -856 2625 -561 
Q 2906 -266 2906 331 
L 2906 616 
Q 2728 306 2450 153 
Q 2172 0 1784 0 
Q 1141 0 747 490 
Q 353 981 353 1791 
Q 353 2603 747 3093 
Q 1141 3584 1784 3584 
Q 2172 3584 2450 3431 
Q 2728 3278 2906 2969 
L 2906 3500 
L 3481 3500 
L 3481 434 
z
" id="DejaVuSans-67" transform="scale(0.015625)"/>
      </defs>
      <use xlink:href="#DejaVuSans-46"/>
      <use x="52.019531" xlink:href="#DejaVuSans-65"/>
      <use x="113.542969" xlink:href="#DejaVuSans-64"/>
      <use x="177.019531" xlink:href="#DejaVuSans-41"/>
      <use x="239.552734" xlink:href="#DejaVuSans-76"/>
      <use x="298.732422" xlink:href="#DejaVuSans-67"/>
     </g>
    </g>
    <g id="line2d_29">
     <path d="M 375.25 157.180312 
L 395.25 157.180312 
" style="fill:none;stroke:#ff7f0e;stroke-linecap:square;stroke-width:1.5;"/>
    </g>
    <g id="line2d_30"/>
    <g id="text_16">
     <!-- FedMed -->
     <g transform="translate(403.25 160.680312)scale(0.1 -0.1)">
      <use xlink:href="#DejaVuSans-46"/>
      <use x="52.019531" xlink:href="#DejaVuSans-65"/>
      <use x="113.542969" xlink:href="#DejaVuSans-64"/>
      <use x="177.019531" xlink:href="#DejaVuSans-4d"/>
      <use x="263.298828" xlink:href="#DejaVuSans-65"/>
      <use x="324.822266" xlink:href="#DejaVuSans-64"/>
     </g>
    </g>
    <g id="line2d_31">
     <path d="M 375.25 171.858437 
L 395.25 171.858437 
" style="fill:none;stroke:#2ca02c;stroke-linecap:square;stroke-width:1.5;"/>
    </g>
    <g id="line2d_32"/>
    <g id="text_17">
     <!-- FedProx -->
     <g transform="translate(403.25 175.358437)scale(0.1 -0.1)">
      <defs>
       <path d="M 1259 4147 
L 1259 2394 
L 2053 2394 
Q 2494 2394 2734 2622 
Q 2975 2850 2975 3272 
Q 2975 3691 2734 3919 
Q 2494 4147 2053 4147 
L 1259 4147 
z
M 628 4666 
L 2053 4666 
Q 2838 4666 3239 4311 
Q 3641 3956 3641 3272 
Q 3641 2581 3239 2228 
Q 2838 1875 2053 1875 
L 1259 1875 
L 1259 0 
L 628 0 
L 628 4666 
z
" id="DejaVuSans-50" transform="scale(0.015625)"/>
       <path d="M 3513 3500 
L 2247 1797 
L 3578 0 
L 2900 0 
L 1881 1375 
L 863 0 
L 184 0 
L 1544 1831 
L 300 3500 
L 978 3500 
L 1906 2253 
L 2834 3500 
L 3513 3500 
z
" id="DejaVuSans-78" transform="scale(0.015625)"/>
      </defs>
      <use xlink:href="#DejaVuSans-46"/>
      <use x="52.019531" xlink:href="#DejaVuSans-65"/>
      <use x="113.542969" xlink:href="#DejaVuSans-64"/>
      <use x="177.019531" xlink:href="#DejaVuSans-50"/>
      <use x="235.572266" xlink:href="#DejaVuSans-72"/>
      <use x="274.435547" xlink:href="#DejaVuSans-6f"/>
      <use x="332.492188" xlink:href="#DejaVuSans-78"/>
     </g>
    </g>
    <g id="line2d_33">
     <path d="M 375.25 186.536563 
L 395.25 186.536563 
" style="fill:none;stroke:#d62728;stroke-linecap:square;stroke-width:1.5;"/>
    </g>
    <g id="line2d_34"/>
    <g id="text_18">
     <!-- qFedAvg -->
     <g transform="translate(403.25 190.036563)scale(0.1 -0.1)">
      <defs>
       <path d="M 947 1747 
Q 947 1113 1208 752 
Q 1469 391 1925 391 
Q 2381 391 2643 752 
Q 2906 1113 2906 1747 
Q 2906 2381 2643 2742 
Q 2381 3103 1925 3103 
Q 1469 3103 1208 2742 
Q 947 2381 947 1747 
z
M 2906 525 
Q 2725 213 2448 61 
Q 2172 -91 1784 -91 
Q 1150 -91 751 415 
Q 353 922 353 1747 
Q 353 2572 751 3078 
Q 1150 3584 1784 3584 
Q 2172 3584 2448 3432 
Q 2725 3281 2906 2969 
L 2906 3500 
L 3481 3500 
L 3481 -1331 
L 2906 -1331 
L 2906 525 
z
" id="DejaVuSans-71" transform="scale(0.015625)"/>
      </defs>
      <use xlink:href="#DejaVuSans-71"/>
      <use x="63.476562" xlink:href="#DejaVuSans-46"/>
      <use x="115.496094" xlink:href="#DejaVuSans-65"/>
      <use x="177.019531" xlink:href="#DejaVuSans-64"/>
      <use x="240.496094" xlink:href="#DejaVuSans-41"/>
      <use x="303.029297" xlink:href="#DejaVuSans-76"/>
      <use x="362.208984" xlink:href="#DejaVuSans-67"/>
     </g>
    </g>
   </g>
  </g>
 </g>
 <defs>
  <clipPath id="pb218e78ef6">
   <rect height="276.76" width="315.38" x="50.87" y="26.88"/>
  </clipPath>
 </defs>
</svg>
