<?xml version="1.0" encoding="utf-8" standalone="no"?>
<!DOCTYPE svg PUBLIC "-//W3C//DTD SVG 1.1//EN"
  "http://www.w3.org/Graphics/SVG/1.1/DTD/svg11.dtd">
<svg height="345.6pt" version="1.1" viewBox="0 0 460.8 345.6" width="460.8pt" xmlns="http://www.w3.org/2000/svg" xmlns:xlink="http://www.w3.org/1999/xlink">
 <metadata>
  <rdf:RDF xmlns:cc="http://creativecommons.org/ns#" xmlns:dc="http://purl.org/dc/elements/1.1/" xmlns:rdf="http://www.w3.org/1999/02/22-rdf-syntax-ns#">
   <cc:Work>
    <dc:type rdf:resource="http://purl.org/dc/dcmitype/StillImage"/>
    <dc:date>2021-05-07T11:38:00.832691</dc:date>
    <dc:format>image/svg+xml</dc:format>
    <dc:creator>
     <cc:Agent>
      <dc:title>Matplotlib v3.4.1, https://matplotlib.org/</dc:title>
     </cc:Agent>
    </dc:creator>
   </cc:Work>
  </rdf:RDF>
 </metadata>
 <defs>
  <style type="text/css">*{stroke-linecap:butt;stroke-linejoin:round;}</style>
 </defs>
 <g id="figure_1">
  <g id="patch_1">
   <path d="M 0 345.6 
L 460.8 345.6 
L 460.8 0 
L 0 0 
z
" style="fill:#ffffff;"/>
  </g>
  <g id="axes_1">
   <g id="patch_2">
    <path d="M 44.57 303.64 
L 450 303.64 
L 450 48.38 
L 44.57 48.38 
z
" style="fill:#ffffff;"/>
   </g>
   <g id="PolyCollection_1">
    <path clip-path="url(#p5e7b45c5f7)" d="M 62.998636 206.766084 
L 62.998636 233.939682 
L 70.520529 231.660029 
L 78.042421 203.523649 
L 85.564314 167.683944 
L 93.086206 156.818881 
L 100.608098 126.101456 
L 108.129991 137.929482 
L 115.651883 129.005059 
L 123.173776 108.347801 
L 130.695668 86.781123 
L 138.21756 112.563617 
L 145.739453 90.485919 
L 153.261345 95.303129 
L 160.783237 94.797939 
L 168.30513 92.035924 
L 175.827022 86.909036 
L 183.348915 86.556917 
L 190.870807 81.607885 
L 198.392699 84.655517 
L 205.914592 87.506445 
L 213.436484 93.715291 
L 220.958377 100.219991 
L 228.480269 81.126158 
L 236.002161 83.823533 
L 243.524054 83.660334 
L 251.045946 83.923078 
L 258.567839 83.441085 
L 266.089731 83.289848 
L 273.611623 77.204002 
L 281.133516 77.810868 
L 288.655408 82.254109 
L 296.177301 72.2996 
L 303.699193 77.494544 
L 311.221085 76.533406 
L 318.742978 67.740451 
L 326.26487 72.140803 
L 333.786763 77.280656 
L 341.308655 71.185736 
L 348.830547 69.930009 
L 356.35244 72.444738 
L 363.874332 67.575633 
L 371.396224 78.478031 
L 378.918117 76.631454 
L 386.440009 69.640308 
L 393.961902 75.673509 
L 401.483794 67.698569 
L 409.005686 72.776499 
L 416.527579 69.439458 
L 424.049471 69.234743 
L 431.571364 76.248211 
L 431.571364 61.179846 
L 431.571364 61.179846 
L 424.049471 61.174872 
L 416.527579 61.375068 
L 409.005686 64.246648 
L 401.483794 60.551525 
L 393.961902 63.374189 
L 386.440009 62.523917 
L 378.918117 66.735286 
L 371.396224 64.618769 
L 363.874332 64.993503 
L 356.35244 63.093739 
L 348.830547 66.283319 
L 341.308655 63.812861 
L 333.786763 68.110635 
L 326.26487 63.937554 
L 318.742978 64.288805 
L 311.221085 63.729023 
L 303.699193 62.228005 
L 296.177301 67.153009 
L 288.655408 67.726164 
L 281.133516 70.144854 
L 273.611623 67.512438 
L 266.089731 68.849945 
L 258.567839 70.048409 
L 251.045946 73.480547 
L 243.524054 66.184969 
L 236.002161 69.800931 
L 228.480269 72.228366 
L 220.958377 80.668424 
L 213.436484 74.350969 
L 205.914592 74.351192 
L 198.392699 73.422959 
L 190.870807 72.96137 
L 183.348915 75.840601 
L 175.827022 82.371954 
L 168.30513 76.570216 
L 160.783237 76.777542 
L 153.261345 80.186483 
L 145.739453 76.90549 
L 138.21756 80.337132 
L 130.695668 84.389448 
L 123.173776 86.307559 
L 115.651883 91.564551 
L 108.129991 98.971504 
L 100.608098 99.462046 
L 93.086206 108.020907 
L 85.564314 147.634643 
L 78.042421 162.948589 
L 70.520529 186.505738 
L 62.998636 206.766084 
z
" style="fill:#1f77b4;fill-opacity:0.5;"/>
   </g>
   <g id="PolyCollection_2">
    <path clip-path="url(#p5e7b45c5f7)" d="M 62.998636 205.915908 
L 62.998636 266.37285 
L 70.520529 292.037273 
L 78.042421 283.005076 
L 85.564314 256.364163 
L 93.086206 278.650909 
L 100.608098 246.647206 
L 108.129991 247.034509 
L 115.651883 207.327792 
L 123.173776 251.393136 
L 130.695668 206.37147 
L 138.21756 231.658885 
L 145.739453 194.647035 
L 153.261345 247.48306 
L 160.783237 179.180676 
L 168.30513 198.418707 
L 175.827022 171.3822 
L 183.348915 169.217512 
L 190.870807 183.443463 
L 198.392699 157.972164 
L 205.914592 236.053568 
L 213.436484 226.627695 
L 220.958377 185.080896 
L 228.480269 177.871681 
L 236.002161 182.007577 
L 243.524054 155.112296 
L 251.045946 167.913029 
L 258.567839 161.242324 
L 266.089731 191.34032 
L 273.611623 156.238664 
L 281.133516 188.689476 
L 288.655408 153.910918 
L 296.177301 152.984108 
L 303.699193 160.84025 
L 311.221085 157.901766 
L 318.742978 156.163744 
L 326.26487 157.781435 
L 333.786763 164.863099 
L 341.308655 152.756172 
L 348.830547 173.597183 
L 356.35244 144.083695 
L 363.874332 142.360865 
L 371.396224 182.590798 
L 378.918117 181.59408 
L 386.440009 148.204156 
L 393.961902 152.323449 
L 401.483794 139.339839 
L 409.005686 138.226283 
L 416.527579 202.98453 
L 424.049471 185.575217 
L 431.571364 172.026983 
L 431.571364 129.389689 
L 431.571364 129.389689 
L 424.049471 112.737143 
L 416.527579 104.370824 
L 409.005686 129.717816 
L 401.483794 123.070488 
L 393.961902 130.197415 
L 386.440009 133.101978 
L 378.918117 139.93313 
L 371.396224 123.954736 
L 363.874332 126.258084 
L 356.35244 123.185553 
L 348.830547 139.696854 
L 341.308655 136.108285 
L 333.786763 132.639441 
L 326.26487 130.813081 
L 318.742978 123.52275 
L 311.221085 121.784728 
L 303.699193 120.060974 
L 296.177301 128.187056 
L 288.655408 128.879886 
L 281.133516 134.457374 
L 273.611623 136.404954 
L 266.089731 142.739105 
L 258.567839 148.272551 
L 251.045946 138.227594 
L 243.524054 139.420903 
L 236.002161 126.292567 
L 228.480269 150.404032 
L 220.958377 138.875775 
L 213.436484 138.764782 
L 205.914592 129.473878 
L 198.392699 145.199118 
L 190.870807 146.18195 
L 183.348915 146.775925 
L 175.827022 136.782975 
L 168.30513 151.182274 
L 160.783237 156.9233 
L 153.261345 159.885104 
L 145.739453 124.180774 
L 138.21756 155.59874 
L 130.695668 158.616097 
L 123.173776 147.876824 
L 115.651883 159.954265 
L 108.129991 150.61581 
L 100.608098 148.573653 
L 93.086206 214.153298 
L 85.564314 170.169747 
L 78.042421 259.0632 
L 70.520529 196.717832 
L 62.998636 205.915908 
z
" style="fill:#ff7f0e;fill-opacity:0.5;"/>
   </g>
   <g id="PolyCollection_3">
    <path clip-path="url(#p5e7b45c5f7)" d="M 62.998636 233.323446 
L 62.998636 261.100401 
L 70.520529 210.274123 
L 78.042421 173.6627 
L 85.564314 162.788867 
L 93.086206 157.800406 
L 100.608098 135.538899 
L 108.129991 115.353967 
L 115.651883 130.222065 
L 123.173776 115.282893 
L 130.695668 103.417783 
L 138.21756 110.384926 
L 145.739453 90.798662 
L 153.261345 93.803104 
L 160.783237 103.309239 
L 168.30513 98.503099 
L 175.827022 92.75803 
L 183.348915 85.035665 
L 190.870807 83.570017 
L 198.392699 103.162064 
L 205.914592 95.625051 
L 213.436484 78.691878 
L 220.958377 78.006118 
L 228.480269 79.935372 
L 236.002161 89.846569 
L 243.524054 76.410281 
L 251.045946 78.539132 
L 258.567839 71.726598 
L 266.089731 74.367823 
L 273.611623 76.036958 
L 281.133516 75.066491 
L 288.655408 81.264259 
L 296.177301 76.758675 
L 303.699193 73.14573 
L 311.221085 75.867442 
L 318.742978 74.225081 
L 326.26487 77.684827 
L 333.786763 74.3327 
L 341.308655 70.682323 
L 348.830547 67.115511 
L 356.35244 72.319271 
L 363.874332 78.07213 
L 371.396224 69.211265 
L 378.918117 77.17539 
L 386.440009 69.368873 
L 393.961902 74.487304 
L 401.483794 68.419863 
L 409.005686 72.919138 
L 416.527579 69.381176 
L 424.049471 71.203256 
L 431.571364 67.33755 
L 431.571364 62.262245 
L 431.571364 62.262245 
L 424.049471 61.77079 
L 416.527579 61.70329 
L 409.005686 64.238979 
L 401.483794 63.744363 
L 393.961902 61.051173 
L 386.440009 63.470203 
L 378.918117 59.982727 
L 371.396224 62.952961 
L 363.874332 63.80994 
L 356.35244 65.108787 
L 348.830547 63.429074 
L 341.308655 64.181304 
L 333.786763 66.469609 
L 326.26487 66.086823 
L 318.742978 65.227527 
L 311.221085 67.769239 
L 303.699193 67.656579 
L 296.177301 66.608065 
L 288.655408 69.795775 
L 281.133516 67.355459 
L 273.611623 66.115052 
L 266.089731 68.594007 
L 258.567839 67.995951 
L 251.045946 71.171201 
L 243.524054 68.71107 
L 236.002161 75.79023 
L 228.480269 71.934482 
L 220.958377 68.194993 
L 213.436484 69.533784 
L 205.914592 69.201927 
L 198.392699 73.137369 
L 190.870807 74.238519 
L 183.348915 71.01826 
L 175.827022 74.363439 
L 168.30513 85.219687 
L 160.783237 76.499416 
L 153.261345 80.471779 
L 145.739453 78.212388 
L 138.21756 84.675345 
L 130.695668 86.513626 
L 123.173776 88.14552 
L 115.651883 90.077605 
L 108.129991 82.000794 
L 100.608098 102.981728 
L 93.086206 106.634471 
L 85.564314 130.799541 
L 78.042421 138.011695 
L 70.520529 168.615359 
L 62.998636 233.323446 
z
" style="fill:#2ca02c;fill-opacity:0.5;"/>
   </g>
   <g id="PolyCollection_4">
    <path clip-path="url(#p5e7b45c5f7)" d="M 62.998636 190.858881 
L 62.998636 254.724028 
L 70.520529 239.004977 
L 78.042421 215.255545 
L 85.564314 202.980398 
L 93.086206 195.62934 
L 100.608098 187.080256 
L 108.129991 174.371662 
L 115.651883 169.103178 
L 123.173776 158.693954 
L 130.695668 151.698089 
L 138.21756 149.219545 
L 145.739453 138.344778 
L 153.261345 138.699943 
L 160.783237 139.788851 
L 168.30513 135.357239 
L 175.827022 132.400052 
L 183.348915 131.810375 
L 190.870807 128.514916 
L 198.392699 130.349907 
L 205.914592 130.397914 
L 213.436484 127.725512 
L 220.958377 126.562899 
L 228.480269 126.740128 
L 236.002161 125.525558 
L 243.524054 124.256247 
L 251.045946 123.139899 
L 258.567839 123.345559 
L 266.089731 122.702709 
L 273.611623 122.717541 
L 281.133516 121.412933 
L 288.655408 120.54537 
L 296.177301 121.559731 
L 303.699193 120.064968 
L 311.221085 120.881543 
L 318.742978 120.043455 
L 326.26487 118.818456 
L 333.786763 119.252376 
L 341.308655 119.927997 
L 348.830547 119.034442 
L 356.35244 118.945868 
L 363.874332 118.931948 
L 371.396224 118.751679 
L 378.918117 119.050403 
L 386.440009 117.405275 
L 393.961902 118.41974 
L 401.483794 117.321307 
L 409.005686 117.685267 
L 416.527579 118.18832 
L 424.049471 117.338505 
L 431.571364 117.408586 
L 431.571364 98.906363 
L 431.571364 98.906363 
L 424.049471 98.549939 
L 416.527579 99.331507 
L 409.005686 99.344079 
L 401.483794 99.697376 
L 393.961902 99.846472 
L 386.440009 100.10389 
L 378.918117 101.444299 
L 371.396224 101.103264 
L 363.874332 100.763057 
L 356.35244 101.900701 
L 348.830547 100.809839 
L 341.308655 101.494354 
L 333.786763 101.498229 
L 326.26487 101.81486 
L 318.742978 102.466485 
L 311.221085 104.091465 
L 303.699193 103.297983 
L 296.177301 104.340927 
L 288.655408 103.521314 
L 281.133516 104.71164 
L 273.611623 105.614197 
L 266.089731 105.927583 
L 258.567839 106.425635 
L 251.045946 105.650332 
L 243.524054 106.357295 
L 236.002161 107.593702 
L 228.480269 107.488046 
L 220.958377 108.987442 
L 213.436484 109.402899 
L 205.914592 108.010013 
L 198.392699 109.337537 
L 190.870807 108.43223 
L 183.348915 110.606703 
L 175.827022 110.976663 
L 168.30513 113.041576 
L 160.783237 113.354837 
L 153.261345 114.006576 
L 145.739453 116.440955 
L 138.21756 115.578402 
L 130.695668 116.437262 
L 123.173776 118.408673 
L 115.651883 121.466356 
L 108.129991 125.442375 
L 100.608098 128.130625 
L 93.086206 130.350802 
L 85.564314 133.960932 
L 78.042421 145.911289 
L 70.520529 173.918284 
L 62.998636 190.858881 
z
" style="fill:#d62728;fill-opacity:0.5;"/>
   </g>
   <g id="matplotlib.axis_1">
    <g id="xtick_1">
     <g id="line2d_1">
      <defs>
       <path d="M 0 0 
L 0 3.5 
" id="m951dd007eb" style="stroke:#000000;stroke-width:0.8;"/>
      </defs>
      <g>
       <use style="stroke:#000000;stroke-width:0.8;" x="62.998636" xlink:href="#m951dd007eb" y="303.64"/>
      </g>
     </g>
     <g id="text_1">
      <!-- 0 -->
      <g transform="translate(59.817386 318.238437)scale(0.1 -0.1)">
       <defs>
        <path d="M 2034 4250 
Q 1547 4250 1301 3770 
Q 1056 3291 1056 2328 
Q 1056 1369 1301 889 
Q 1547 409 2034 409 
Q 2525 409 2770 889 
Q 3016 1369 3016 2328 
Q 3016 3291 2770 3770 
Q 2525 4250 2034 4250 
z
M 2034 4750 
Q 2819 4750 3233 4129 
Q 3647 3509 3647 2328 
Q 3647 1150 3233 529 
Q 2819 -91 2034 -91 
Q 1250 -91 836 529 
Q 422 1150 422 2328 
Q 422 3509 836 4129 
Q 1250 4750 2034 4750 
z
" id="DejaVuSans-30" transform="scale(0.015625)"/>
       </defs>
       <use xlink:href="#DejaVuSans-30"/>
      </g>
     </g>
    </g>
    <g id="xtick_2">
     <g id="line2d_2">
      <g>
       <use style="stroke:#000000;stroke-width:0.8;" x="138.21756" xlink:href="#m951dd007eb" y="303.64"/>
      </g>
     </g>
     <g id="text_2">
      <!-- 10 -->
      <g transform="translate(131.85506 318.238437)scale(0.1 -0.1)">
       <defs>
        <path d="M 794 531 
L 1825 531 
L 1825 4091 
L 703 3866 
L 703 4441 
L 1819 4666 
L 2450 4666 
L 2450 531 
L 3481 531 
L 3481 0 
L 794 0 
L 794 531 
z
" id="DejaVuSans-31" transform="scale(0.015625)"/>
       </defs>
       <use xlink:href="#DejaVuSans-31"/>
       <use x="63.623047" xlink:href="#DejaVuSans-30"/>
      </g>
     </g>
    </g>
    <g id="xtick_3">
     <g id="line2d_3">
      <g>
       <use style="stroke:#000000;stroke-width:0.8;" x="213.436484" xlink:href="#m951dd007eb" y="303.64"/>
      </g>
     </g>
     <g id="text_3">
      <!-- 20 -->
      <g transform="translate(207.073984 318.238437)scale(0.1 -0.1)">
       <defs>
        <path d="M 1228 531 
L 3431 531 
L 3431 0 
L 469 0 
L 469 531 
Q 828 903 1448 1529 
Q 2069 2156 2228 2338 
Q 2531 2678 2651 2914 
Q 2772 3150 2772 3378 
Q 2772 3750 2511 3984 
Q 2250 4219 1831 4219 
Q 1534 4219 1204 4116 
Q 875 4013 500 3803 
L 500 4441 
Q 881 4594 1212 4672 
Q 1544 4750 1819 4750 
Q 2544 4750 2975 4387 
Q 3406 4025 3406 3419 
Q 3406 3131 3298 2873 
Q 3191 2616 2906 2266 
Q 2828 2175 2409 1742 
Q 1991 1309 1228 531 
z
" id="DejaVuSans-32" transform="scale(0.015625)"/>
       </defs>
       <use xlink:href="#DejaVuSans-32"/>
       <use x="63.623047" xlink:href="#DejaVuSans-30"/>
      </g>
     </g>
    </g>
    <g id="xtick_4">
     <g id="line2d_4">
      <g>
       <use style="stroke:#000000;stroke-width:0.8;" x="288.655408" xlink:href="#m951dd007eb" y="303.64"/>
      </g>
     </g>
     <g id="text_4">
      <!-- 30 -->
      <g transform="translate(282.292908 318.238437)scale(0.1 -0.1)">
       <defs>
        <path d="M 2597 2516 
Q 3050 2419 3304 2112 
Q 3559 1806 3559 1356 
Q 3559 666 3084 287 
Q 2609 -91 1734 -91 
Q 1441 -91 1130 -33 
Q 819 25 488 141 
L 488 750 
Q 750 597 1062 519 
Q 1375 441 1716 441 
Q 2309 441 2620 675 
Q 2931 909 2931 1356 
Q 2931 1769 2642 2001 
Q 2353 2234 1838 2234 
L 1294 2234 
L 1294 2753 
L 1863 2753 
Q 2328 2753 2575 2939 
Q 2822 3125 2822 3475 
Q 2822 3834 2567 4026 
Q 2313 4219 1838 4219 
Q 1578 4219 1281 4162 
Q 984 4106 628 3988 
L 628 4550 
Q 988 4650 1302 4700 
Q 1616 4750 1894 4750 
Q 2613 4750 3031 4423 
Q 3450 4097 3450 3541 
Q 3450 3153 3228 2886 
Q 3006 2619 2597 2516 
z
" id="DejaVuSans-33" transform="scale(0.015625)"/>
       </defs>
       <use xlink:href="#DejaVuSans-33"/>
       <use x="63.623047" xlink:href="#DejaVuSans-30"/>
      </g>
     </g>
    </g>
    <g id="xtick_5">
     <g id="line2d_5">
      <g>
       <use style="stroke:#000000;stroke-width:0.8;" x="363.874332" xlink:href="#m951dd007eb" y="303.64"/>
      </g>
     </g>
     <g id="text_5">
      <!-- 40 -->
      <g transform="translate(357.511832 318.238437)scale(0.1 -0.1)">
       <defs>
        <path d="M 2419 4116 
L 825 1625 
L 2419 1625 
L 2419 4116 
z
M 2253 4666 
L 3047 4666 
L 3047 1625 
L 3713 1625 
L 3713 1100 
L 3047 1100 
L 3047 0 
L 2419 0 
L 2419 1100 
L 313 1100 
L 313 1709 
L 2253 4666 
z
" id="DejaVuSans-34" transform="scale(0.015625)"/>
       </defs>
       <use xlink:href="#DejaVuSans-34"/>
       <use x="63.623047" xlink:href="#DejaVuSans-30"/>
      </g>
     </g>
    </g>
    <g id="xtick_6">
     <g id="line2d_6">
      <g>
       <use style="stroke:#000000;stroke-width:0.8;" x="439.093256" xlink:href="#m951dd007eb" y="303.64"/>
      </g>
     </g>
     <g id="text_6">
      <!-- 50 -->
      <g transform="translate(432.730756 318.238437)scale(0.1 -0.1)">
       <defs>
        <path d="M 691 4666 
L 3169 4666 
L 3169 4134 
L 1269 4134 
L 1269 2991 
Q 1406 3038 1543 3061 
Q 1681 3084 1819 3084 
Q 2600 3084 3056 2656 
Q 3513 2228 3513 1497 
Q 3513 744 3044 326 
Q 2575 -91 1722 -91 
Q 1428 -91 1123 -41 
Q 819 9 494 109 
L 494 744 
Q 775 591 1075 516 
Q 1375 441 1709 441 
Q 2250 441 2565 725 
Q 2881 1009 2881 1497 
Q 2881 1984 2565 2268 
Q 2250 2553 1709 2553 
Q 1456 2553 1204 2497 
Q 953 2441 691 2322 
L 691 4666 
z
" id="DejaVuSans-35" transform="scale(0.015625)"/>
       </defs>
       <use xlink:href="#DejaVuSans-35"/>
       <use x="63.623047" xlink:href="#DejaVuSans-30"/>
      </g>
     </g>
    </g>
    <g id="text_7">
     <!-- Global Communication Rounds -->
     <g transform="translate(170.323281 331.916562)scale(0.1 -0.1)">
      <defs>
       <path d="M 3809 666 
L 3809 1919 
L 2778 1919 
L 2778 2438 
L 4434 2438 
L 4434 434 
Q 4069 175 3628 42 
Q 3188 -91 2688 -91 
Q 1594 -91 976 548 
Q 359 1188 359 2328 
Q 359 3472 976 4111 
Q 1594 4750 2688 4750 
Q 3144 4750 3555 4637 
Q 3966 4525 4313 4306 
L 4313 3634 
Q 3963 3931 3569 4081 
Q 3175 4231 2741 4231 
Q 1884 4231 1454 3753 
Q 1025 3275 1025 2328 
Q 1025 1384 1454 906 
Q 1884 428 2741 428 
Q 3075 428 3337 486 
Q 3600 544 3809 666 
z
" id="DejaVuSans-47" transform="scale(0.015625)"/>
       <path d="M 603 4863 
L 1178 4863 
L 1178 0 
L 603 0 
L 603 4863 
z
" id="DejaVuSans-6c" transform="scale(0.015625)"/>
       <path d="M 1959 3097 
Q 1497 3097 1228 2736 
Q 959 2375 959 1747 
Q 959 1119 1226 758 
Q 1494 397 1959 397 
Q 2419 397 2687 759 
Q 2956 1122 2956 1747 
Q 2956 2369 2687 2733 
Q 2419 3097 1959 3097 
z
M 1959 3584 
Q 2709 3584 3137 3096 
Q 3566 2609 3566 1747 
Q 3566 888 3137 398 
Q 2709 -91 1959 -91 
Q 1206 -91 779 398 
Q 353 888 353 1747 
Q 353 2609 779 3096 
Q 1206 3584 1959 3584 
z
" id="DejaVuSans-6f" transform="scale(0.015625)"/>
       <path d="M 3116 1747 
Q 3116 2381 2855 2742 
Q 2594 3103 2138 3103 
Q 1681 3103 1420 2742 
Q 1159 2381 1159 1747 
Q 1159 1113 1420 752 
Q 1681 391 2138 391 
Q 2594 391 2855 752 
Q 3116 1113 3116 1747 
z
M 1159 2969 
Q 1341 3281 1617 3432 
Q 1894 3584 2278 3584 
Q 2916 3584 3314 3078 
Q 3713 2572 3713 1747 
Q 3713 922 3314 415 
Q 2916 -91 2278 -91 
Q 1894 -91 1617 61 
Q 1341 213 1159 525 
L 1159 0 
L 581 0 
L 581 4863 
L 1159 4863 
L 1159 2969 
z
" id="DejaVuSans-62" transform="scale(0.015625)"/>
       <path d="M 2194 1759 
Q 1497 1759 1228 1600 
Q 959 1441 959 1056 
Q 959 750 1161 570 
Q 1363 391 1709 391 
Q 2188 391 2477 730 
Q 2766 1069 2766 1631 
L 2766 1759 
L 2194 1759 
z
M 3341 1997 
L 3341 0 
L 2766 0 
L 2766 531 
Q 2569 213 2275 61 
Q 1981 -91 1556 -91 
Q 1019 -91 701 211 
Q 384 513 384 1019 
Q 384 1609 779 1909 
Q 1175 2209 1959 2209 
L 2766 2209 
L 2766 2266 
Q 2766 2663 2505 2880 
Q 2244 3097 1772 3097 
Q 1472 3097 1187 3025 
Q 903 2953 641 2809 
L 641 3341 
Q 956 3463 1253 3523 
Q 1550 3584 1831 3584 
Q 2591 3584 2966 3190 
Q 3341 2797 3341 1997 
z
" id="DejaVuSans-61" transform="scale(0.015625)"/>
       <path id="DejaVuSans-20" transform="scale(0.015625)"/>
       <path d="M 4122 4306 
L 4122 3641 
Q 3803 3938 3442 4084 
Q 3081 4231 2675 4231 
Q 1875 4231 1450 3742 
Q 1025 3253 1025 2328 
Q 1025 1406 1450 917 
Q 1875 428 2675 428 
Q 3081 428 3442 575 
Q 3803 722 4122 1019 
L 4122 359 
Q 3791 134 3420 21 
Q 3050 -91 2638 -91 
Q 1578 -91 968 557 
Q 359 1206 359 2328 
Q 359 3453 968 4101 
Q 1578 4750 2638 4750 
Q 3056 4750 3426 4639 
Q 3797 4528 4122 4306 
z
" id="DejaVuSans-43" transform="scale(0.015625)"/>
       <path d="M 3328 2828 
Q 3544 3216 3844 3400 
Q 4144 3584 4550 3584 
Q 5097 3584 5394 3201 
Q 5691 2819 5691 2113 
L 5691 0 
L 5113 0 
L 5113 2094 
Q 5113 2597 4934 2840 
Q 4756 3084 4391 3084 
Q 3944 3084 3684 2787 
Q 3425 2491 3425 1978 
L 3425 0 
L 2847 0 
L 2847 2094 
Q 2847 2600 2669 2842 
Q 2491 3084 2119 3084 
Q 1678 3084 1418 2786 
Q 1159 2488 1159 1978 
L 1159 0 
L 581 0 
L 581 3500 
L 1159 3500 
L 1159 2956 
Q 1356 3278 1631 3431 
Q 1906 3584 2284 3584 
Q 2666 3584 2933 3390 
Q 3200 3197 3328 2828 
z
" id="DejaVuSans-6d" transform="scale(0.015625)"/>
       <path d="M 544 1381 
L 544 3500 
L 1119 3500 
L 1119 1403 
Q 1119 906 1312 657 
Q 1506 409 1894 409 
Q 2359 409 2629 706 
Q 2900 1003 2900 1516 
L 2900 3500 
L 3475 3500 
L 3475 0 
L 2900 0 
L 2900 538 
Q 2691 219 2414 64 
Q 2138 -91 1772 -91 
Q 1169 -91 856 284 
Q 544 659 544 1381 
z
M 1991 3584 
L 1991 3584 
z
" id="DejaVuSans-75" transform="scale(0.015625)"/>
       <path d="M 3513 2113 
L 3513 0 
L 2938 0 
L 2938 2094 
Q 2938 2591 2744 2837 
Q 2550 3084 2163 3084 
Q 1697 3084 1428 2787 
Q 1159 2491 1159 1978 
L 1159 0 
L 581 0 
L 581 3500 
L 1159 3500 
L 1159 2956 
Q 1366 3272 1645 3428 
Q 1925 3584 2291 3584 
Q 2894 3584 3203 3211 
Q 3513 2838 3513 2113 
z
" id="DejaVuSans-6e" transform="scale(0.015625)"/>
       <path d="M 603 3500 
L 1178 3500 
L 1178 0 
L 603 0 
L 603 3500 
z
M 603 4863 
L 1178 4863 
L 1178 4134 
L 603 4134 
L 603 4863 
z
" id="DejaVuSans-69" transform="scale(0.015625)"/>
       <path d="M 3122 3366 
L 3122 2828 
Q 2878 2963 2633 3030 
Q 2388 3097 2138 3097 
Q 1578 3097 1268 2742 
Q 959 2388 959 1747 
Q 959 1106 1268 751 
Q 1578 397 2138 397 
Q 2388 397 2633 464 
Q 2878 531 3122 666 
L 3122 134 
Q 2881 22 2623 -34 
Q 2366 -91 2075 -91 
Q 1284 -91 818 406 
Q 353 903 353 1747 
Q 353 2603 823 3093 
Q 1294 3584 2113 3584 
Q 2378 3584 2631 3529 
Q 2884 3475 3122 3366 
z
" id="DejaVuSans-63" transform="scale(0.015625)"/>
       <path d="M 1172 4494 
L 1172 3500 
L 2356 3500 
L 2356 3053 
L 1172 3053 
L 1172 1153 
Q 1172 725 1289 603 
Q 1406 481 1766 481 
L 2356 481 
L 2356 0 
L 1766 0 
Q 1100 0 847 248 
Q 594 497 594 1153 
L 594 3053 
L 172 3053 
L 172 3500 
L 594 3500 
L 594 4494 
L 1172 4494 
z
" id="DejaVuSans-74" transform="scale(0.015625)"/>
       <path d="M 2841 2188 
Q 3044 2119 3236 1894 
Q 3428 1669 3622 1275 
L 4263 0 
L 3584 0 
L 2988 1197 
Q 2756 1666 2539 1819 
Q 2322 1972 1947 1972 
L 1259 1972 
L 1259 0 
L 628 0 
L 628 4666 
L 2053 4666 
Q 2853 4666 3247 4331 
Q 3641 3997 3641 3322 
Q 3641 2881 3436 2590 
Q 3231 2300 2841 2188 
z
M 1259 4147 
L 1259 2491 
L 2053 2491 
Q 2509 2491 2742 2702 
Q 2975 2913 2975 3322 
Q 2975 3731 2742 3939 
Q 2509 4147 2053 4147 
L 1259 4147 
z
" id="DejaVuSans-52" transform="scale(0.015625)"/>
       <path d="M 2906 2969 
L 2906 4863 
L 3481 4863 
L 3481 0 
L 2906 0 
L 2906 525 
Q 2725 213 2448 61 
Q 2172 -91 1784 -91 
Q 1150 -91 751 415 
Q 353 922 353 1747 
Q 353 2572 751 3078 
Q 1150 3584 1784 3584 
Q 2172 3584 2448 3432 
Q 2725 3281 2906 2969 
z
M 947 1747 
Q 947 1113 1208 752 
Q 1469 391 1925 391 
Q 2381 391 2643 752 
Q 2906 1113 2906 1747 
Q 2906 2381 2643 2742 
Q 2381 3103 1925 3103 
Q 1469 3103 1208 2742 
Q 947 2381 947 1747 
z
" id="DejaVuSans-64" transform="scale(0.015625)"/>
       <path d="M 2834 3397 
L 2834 2853 
Q 2591 2978 2328 3040 
Q 2066 3103 1784 3103 
Q 1356 3103 1142 2972 
Q 928 2841 928 2578 
Q 928 2378 1081 2264 
Q 1234 2150 1697 2047 
L 1894 2003 
Q 2506 1872 2764 1633 
Q 3022 1394 3022 966 
Q 3022 478 2636 193 
Q 2250 -91 1575 -91 
Q 1294 -91 989 -36 
Q 684 19 347 128 
L 347 722 
Q 666 556 975 473 
Q 1284 391 1588 391 
Q 1994 391 2212 530 
Q 2431 669 2431 922 
Q 2431 1156 2273 1281 
Q 2116 1406 1581 1522 
L 1381 1569 
Q 847 1681 609 1914 
Q 372 2147 372 2553 
Q 372 3047 722 3315 
Q 1072 3584 1716 3584 
Q 2034 3584 2315 3537 
Q 2597 3491 2834 3397 
z
" id="DejaVuSans-73" transform="scale(0.015625)"/>
      </defs>
      <use xlink:href="#DejaVuSans-47"/>
      <use x="77.490234" xlink:href="#DejaVuSans-6c"/>
      <use x="105.273438" xlink:href="#DejaVuSans-6f"/>
      <use x="166.455078" xlink:href="#DejaVuSans-62"/>
      <use x="229.931641" xlink:href="#DejaVuSans-61"/>
      <use x="291.210938" xlink:href="#DejaVuSans-6c"/>
      <use x="318.994141" xlink:href="#DejaVuSans-20"/>
      <use x="350.78125" xlink:href="#DejaVuSans-43"/>
      <use x="420.605469" xlink:href="#DejaVuSans-6f"/>
      <use x="481.787109" xlink:href="#DejaVuSans-6d"/>
      <use x="579.199219" xlink:href="#DejaVuSans-6d"/>
      <use x="676.611328" xlink:href="#DejaVuSans-75"/>
      <use x="739.990234" xlink:href="#DejaVuSans-6e"/>
      <use x="803.369141" xlink:href="#DejaVuSans-69"/>
      <use x="831.152344" xlink:href="#DejaVuSans-63"/>
      <use x="886.132812" xlink:href="#DejaVuSans-61"/>
      <use x="947.412109" xlink:href="#DejaVuSans-74"/>
      <use x="986.621094" xlink:href="#DejaVuSans-69"/>
      <use x="1014.404297" xlink:href="#DejaVuSans-6f"/>
      <use x="1075.585938" xlink:href="#DejaVuSans-6e"/>
      <use x="1138.964844" xlink:href="#DejaVuSans-20"/>
      <use x="1170.751953" xlink:href="#DejaVuSans-52"/>
      <use x="1235.734375" xlink:href="#DejaVuSans-6f"/>
      <use x="1296.916016" xlink:href="#DejaVuSans-75"/>
      <use x="1360.294922" xlink:href="#DejaVuSans-6e"/>
      <use x="1423.673828" xlink:href="#DejaVuSans-64"/>
      <use x="1487.150391" xlink:href="#DejaVuSans-73"/>
     </g>
    </g>
   </g>
   <g id="matplotlib.axis_2">
    <g id="ytick_1">
     <g id="line2d_7">
      <defs>
       <path d="M 0 0 
L -3.5 0 
" id="m388257e15e" style="stroke:#000000;stroke-width:0.8;"/>
      </defs>
      <g>
       <use style="stroke:#000000;stroke-width:0.8;" x="44.57" xlink:href="#m388257e15e" y="259.764139"/>
      </g>
     </g>
     <g id="text_8">
      <!-- 20 -->
      <g transform="translate(24.845 263.563357)scale(0.1 -0.1)">
       <use xlink:href="#DejaVuSans-32"/>
       <use x="63.623047" xlink:href="#DejaVuSans-30"/>
      </g>
     </g>
    </g>
    <g id="ytick_2">
     <g id="line2d_8">
      <g>
       <use style="stroke:#000000;stroke-width:0.8;" x="44.57" xlink:href="#m388257e15e" y="206.450968"/>
      </g>
     </g>
     <g id="text_9">
      <!-- 40 -->
      <g transform="translate(24.845 210.250186)scale(0.1 -0.1)">
       <use xlink:href="#DejaVuSans-34"/>
       <use x="63.623047" xlink:href="#DejaVuSans-30"/>
      </g>
     </g>
    </g>
    <g id="ytick_3">
     <g id="line2d_9">
      <g>
       <use style="stroke:#000000;stroke-width:0.8;" x="44.57" xlink:href="#m388257e15e" y="153.137797"/>
      </g>
     </g>
     <g id="text_10">
      <!-- 60 -->
      <g transform="translate(24.845 156.937016)scale(0.1 -0.1)">
       <defs>
        <path d="M 2113 2584 
Q 1688 2584 1439 2293 
Q 1191 2003 1191 1497 
Q 1191 994 1439 701 
Q 1688 409 2113 409 
Q 2538 409 2786 701 
Q 3034 994 3034 1497 
Q 3034 2003 2786 2293 
Q 2538 2584 2113 2584 
z
M 3366 4563 
L 3366 3988 
Q 3128 4100 2886 4159 
Q 2644 4219 2406 4219 
Q 1781 4219 1451 3797 
Q 1122 3375 1075 2522 
Q 1259 2794 1537 2939 
Q 1816 3084 2150 3084 
Q 2853 3084 3261 2657 
Q 3669 2231 3669 1497 
Q 3669 778 3244 343 
Q 2819 -91 2113 -91 
Q 1303 -91 875 529 
Q 447 1150 447 2328 
Q 447 3434 972 4092 
Q 1497 4750 2381 4750 
Q 2619 4750 2861 4703 
Q 3103 4656 3366 4563 
z
" id="DejaVuSans-36" transform="scale(0.015625)"/>
       </defs>
       <use xlink:href="#DejaVuSans-36"/>
       <use x="63.623047" xlink:href="#DejaVuSans-30"/>
      </g>
     </g>
    </g>
    <g id="ytick_4">
     <g id="line2d_10">
      <g>
       <use style="stroke:#000000;stroke-width:0.8;" x="44.57" xlink:href="#m388257e15e" y="99.824626"/>
      </g>
     </g>
     <g id="text_11">
      <!-- 80 -->
      <g transform="translate(24.845 103.623845)scale(0.1 -0.1)">
       <defs>
        <path d="M 2034 2216 
Q 1584 2216 1326 1975 
Q 1069 1734 1069 1313 
Q 1069 891 1326 650 
Q 1584 409 2034 409 
Q 2484 409 2743 651 
Q 3003 894 3003 1313 
Q 3003 1734 2745 1975 
Q 2488 2216 2034 2216 
z
M 1403 2484 
Q 997 2584 770 2862 
Q 544 3141 544 3541 
Q 544 4100 942 4425 
Q 1341 4750 2034 4750 
Q 2731 4750 3128 4425 
Q 3525 4100 3525 3541 
Q 3525 3141 3298 2862 
Q 3072 2584 2669 2484 
Q 3125 2378 3379 2068 
Q 3634 1759 3634 1313 
Q 3634 634 3220 271 
Q 2806 -91 2034 -91 
Q 1263 -91 848 271 
Q 434 634 434 1313 
Q 434 1759 690 2068 
Q 947 2378 1403 2484 
z
M 1172 3481 
Q 1172 3119 1398 2916 
Q 1625 2713 2034 2713 
Q 2441 2713 2670 2916 
Q 2900 3119 2900 3481 
Q 2900 3844 2670 4047 
Q 2441 4250 2034 4250 
Q 1625 4250 1398 4047 
Q 1172 3844 1172 3481 
z
" id="DejaVuSans-38" transform="scale(0.015625)"/>
       </defs>
       <use xlink:href="#DejaVuSans-38"/>
       <use x="63.623047" xlink:href="#DejaVuSans-30"/>
      </g>
     </g>
    </g>
    <g id="text_12">
     <!-- Test Accuracy -->
     <g transform="translate(18.765313 210.2725)rotate(-90)scale(0.1 -0.1)">
      <defs>
       <path d="M -19 4666 
L 3928 4666 
L 3928 4134 
L 2272 4134 
L 2272 0 
L 1638 0 
L 1638 4134 
L -19 4134 
L -19 4666 
z
" id="DejaVuSans-54" transform="scale(0.015625)"/>
       <path d="M 3597 1894 
L 3597 1613 
L 953 1613 
Q 991 1019 1311 708 
Q 1631 397 2203 397 
Q 2534 397 2845 478 
Q 3156 559 3463 722 
L 3463 178 
Q 3153 47 2828 -22 
Q 2503 -91 2169 -91 
Q 1331 -91 842 396 
Q 353 884 353 1716 
Q 353 2575 817 3079 
Q 1281 3584 2069 3584 
Q 2775 3584 3186 3129 
Q 3597 2675 3597 1894 
z
M 3022 2063 
Q 3016 2534 2758 2815 
Q 2500 3097 2075 3097 
Q 1594 3097 1305 2825 
Q 1016 2553 972 2059 
L 3022 2063 
z
" id="DejaVuSans-65" transform="scale(0.015625)"/>
       <path d="M 2188 4044 
L 1331 1722 
L 3047 1722 
L 2188 4044 
z
M 1831 4666 
L 2547 4666 
L 4325 0 
L 3669 0 
L 3244 1197 
L 1141 1197 
L 716 0 
L 50 0 
L 1831 4666 
z
" id="DejaVuSans-41" transform="scale(0.015625)"/>
       <path d="M 2631 2963 
Q 2534 3019 2420 3045 
Q 2306 3072 2169 3072 
Q 1681 3072 1420 2755 
Q 1159 2438 1159 1844 
L 1159 0 
L 581 0 
L 581 3500 
L 1159 3500 
L 1159 2956 
Q 1341 3275 1631 3429 
Q 1922 3584 2338 3584 
Q 2397 3584 2469 3576 
Q 2541 3569 2628 3553 
L 2631 2963 
z
" id="DejaVuSans-72" transform="scale(0.015625)"/>
       <path d="M 2059 -325 
Q 1816 -950 1584 -1140 
Q 1353 -1331 966 -1331 
L 506 -1331 
L 506 -850 
L 844 -850 
Q 1081 -850 1212 -737 
Q 1344 -625 1503 -206 
L 1606 56 
L 191 3500 
L 800 3500 
L 1894 763 
L 2988 3500 
L 3597 3500 
L 2059 -325 
z
" id="DejaVuSans-79" transform="scale(0.015625)"/>
      </defs>
      <use xlink:href="#DejaVuSans-54"/>
      <use x="44.083984" xlink:href="#DejaVuSans-65"/>
      <use x="105.607422" xlink:href="#DejaVuSans-73"/>
      <use x="157.707031" xlink:href="#DejaVuSans-74"/>
      <use x="196.916016" xlink:href="#DejaVuSans-20"/>
      <use x="228.703125" xlink:href="#DejaVuSans-41"/>
      <use x="295.361328" xlink:href="#DejaVuSans-63"/>
      <use x="350.341797" xlink:href="#DejaVuSans-63"/>
      <use x="405.322266" xlink:href="#DejaVuSans-75"/>
      <use x="468.701172" xlink:href="#DejaVuSans-72"/>
      <use x="509.814453" xlink:href="#DejaVuSans-61"/>
      <use x="571.09375" xlink:href="#DejaVuSans-63"/>
      <use x="626.074219" xlink:href="#DejaVuSans-79"/>
     </g>
    </g>
   </g>
   <g id="line2d_11">
    <path clip-path="url(#p5e7b45c5f7)" d="M 62.998636 220.352883 
L 70.520529 209.082884 
L 78.042421 183.236119 
L 85.564314 157.659294 
L 93.086206 132.419894 
L 100.608098 112.781751 
L 108.129991 118.450493 
L 115.651883 110.284805 
L 123.173776 97.32768 
L 130.695668 85.585285 
L 138.21756 96.450375 
L 145.739453 83.695705 
L 153.261345 87.744806 
L 160.783237 85.787741 
L 168.30513 84.30307 
L 175.827022 84.640495 
L 183.348915 81.198759 
L 190.870807 77.284627 
L 198.392699 79.039238 
L 205.914592 80.928819 
L 213.436484 84.03313 
L 220.958377 90.444207 
L 228.480269 76.677262 
L 236.002161 76.812232 
L 243.524054 74.922651 
L 251.045946 78.701813 
L 258.567839 76.744747 
L 266.089731 76.069897 
L 273.611623 72.35822 
L 281.133516 73.977861 
L 288.655408 74.990136 
L 296.177301 69.726304 
L 303.699193 69.861274 
L 311.221085 70.131214 
L 318.742978 66.014628 
L 326.26487 68.039179 
L 333.786763 72.695645 
L 341.308655 67.499298 
L 348.830547 68.106664 
L 356.35244 67.769239 
L 363.874332 66.284568 
L 371.396224 71.5484 
L 378.918117 71.68337 
L 386.440009 66.082113 
L 393.961902 69.523849 
L 401.483794 64.125047 
L 409.005686 68.511574 
L 416.527579 65.407263 
L 424.049471 65.204808 
L 431.571364 68.714029 
" style="fill:none;stroke:#1f77b4;stroke-linecap:square;stroke-width:1.5;"/>
   </g>
   <g id="line2d_12">
    <path clip-path="url(#p5e7b45c5f7)" d="M 62.998636 236.144379 
L 70.520529 244.377553 
L 78.042421 271.034138 
L 85.564314 213.266955 
L 93.086206 246.402103 
L 100.608098 197.610429 
L 108.129991 198.82516 
L 115.651883 183.641029 
L 123.173776 199.63498 
L 130.695668 182.493783 
L 138.21756 193.628813 
L 145.739453 159.413904 
L 153.261345 203.684082 
L 160.783237 168.051988 
L 168.30513 174.80049 
L 175.827022 154.082587 
L 183.348915 157.996719 
L 190.870807 164.812706 
L 198.392699 151.585641 
L 205.914592 182.763723 
L 213.436484 182.696238 
L 220.958377 161.978335 
L 228.480269 164.137856 
L 236.002161 154.150072 
L 243.524054 147.2666 
L 251.045946 153.070312 
L 258.567839 154.757437 
L 266.089731 167.039712 
L 273.611623 146.321809 
L 281.133516 161.573425 
L 288.655408 141.395402 
L 296.177301 140.585582 
L 303.699193 140.450612 
L 311.221085 139.843247 
L 318.742978 139.843247 
L 326.26487 144.297258 
L 333.786763 148.75127 
L 341.308655 144.432228 
L 348.830547 156.647018 
L 356.35244 133.634624 
L 363.874332 134.309475 
L 371.396224 153.272767 
L 378.918117 160.763605 
L 386.440009 140.653067 
L 393.961902 141.260432 
L 401.483794 131.205163 
L 409.005686 133.972049 
L 416.527579 153.677677 
L 424.049471 149.15618 
L 431.571364 150.708336 
" style="fill:none;stroke:#ff7f0e;stroke-linecap:square;stroke-width:1.5;"/>
   </g>
   <g id="line2d_13">
    <path clip-path="url(#p5e7b45c5f7)" d="M 62.998636 247.211924 
L 70.520529 189.444741 
L 78.042421 155.837198 
L 85.564314 146.794204 
L 93.086206 132.217439 
L 100.608098 119.260314 
L 108.129991 98.677381 
L 115.651883 110.149835 
L 123.173776 101.714207 
L 130.695668 94.965704 
L 138.21756 97.530135 
L 145.739453 84.505525 
L 153.261345 87.137441 
L 160.783237 89.904327 
L 168.30513 91.861393 
L 175.827022 83.560735 
L 183.348915 78.026963 
L 190.870807 78.904268 
L 198.392699 88.149716 
L 205.914592 82.413489 
L 213.436484 74.112831 
L 220.958377 73.100556 
L 228.480269 75.934927 
L 236.002161 82.818399 
L 243.524054 72.560675 
L 251.045946 74.855166 
L 258.567839 69.861274 
L 266.089731 71.480915 
L 273.611623 71.076005 
L 281.133516 71.210975 
L 288.655408 75.530017 
L 296.177301 71.68337 
L 303.699193 70.401155 
L 311.221085 71.81834 
L 318.742978 69.726304 
L 326.26487 71.885825 
L 333.786763 70.401155 
L 341.308655 67.431813 
L 348.830547 65.272293 
L 356.35244 68.714029 
L 363.874332 70.941035 
L 371.396224 66.082113 
L 378.918117 68.579059 
L 386.440009 66.419538 
L 393.961902 67.769239 
L 401.483794 66.082113 
L 409.005686 68.579059 
L 416.527579 65.542233 
L 424.049471 66.487023 
L 431.571364 64.799897 
" style="fill:none;stroke:#2ca02c;stroke-linecap:square;stroke-width:1.5;"/>
   </g>
   <g id="line2d_14">
    <path clip-path="url(#p5e7b45c5f7)" d="M 62.998636 222.791455 
L 70.520529 206.46163 
L 78.042421 180.583417 
L 85.564314 168.470665 
L 93.086206 162.990071 
L 100.608098 157.605441 
L 108.129991 149.907019 
L 115.651883 145.284767 
L 123.173776 138.551313 
L 130.695668 134.067676 
L 138.21756 132.398973 
L 145.739453 127.392867 
L 153.261345 126.35326 
L 160.783237 126.571844 
L 168.30513 124.199408 
L 175.827022 121.688357 
L 183.348915 121.208539 
L 190.870807 118.473573 
L 198.392699 119.843722 
L 205.914592 119.203964 
L 213.436484 118.564206 
L 220.958377 117.775171 
L 228.480269 117.114087 
L 236.002161 116.55963 
L 243.524054 115.306771 
L 251.045946 114.395116 
L 258.567839 114.885597 
L 266.089731 114.315146 
L 273.611623 114.165869 
L 281.133516 113.062286 
L 288.655408 112.033342 
L 296.177301 112.950329 
L 303.699193 111.681475 
L 311.221085 112.486504 
L 318.742978 111.25497 
L 326.26487 110.316658 
L 333.786763 110.375303 
L 341.308655 110.711176 
L 348.830547 109.922141 
L 356.35244 110.423284 
L 363.874332 109.847502 
L 371.396224 109.927472 
L 378.918117 110.247351 
L 386.440009 108.754582 
L 393.961902 109.133106 
L 401.483794 108.509342 
L 409.005686 108.514673 
L 416.527579 108.759913 
L 424.049471 107.944222 
L 431.571364 108.157475 
" style="fill:none;stroke:#d62728;stroke-linecap:square;stroke-width:1.5;"/>
   </g>
   <g id="patch_3">
    <path d="M 44.57 303.64 
L 44.57 48.38 
" style="fill:none;stroke:#000000;stroke-linecap:square;stroke-linejoin:miter;stroke-width:0.8;"/>
   </g>
   <g id="patch_4">
    <path d="M 450 303.64 
L 450 48.38 
" style="fill:none;stroke:#000000;stroke-linecap:square;stroke-linejoin:miter;stroke-width:0.8;"/>
   </g>
   <g id="patch_5">
    <path d="M 44.57 303.64 
L 450 303.64 
" style="fill:none;stroke:#000000;stroke-linecap:square;stroke-linejoin:miter;stroke-width:0.8;"/>
   </g>
   <g id="patch_6">
    <path d="M 44.57 48.38 
L 450 48.38 
" style="fill:none;stroke:#000000;stroke-linecap:square;stroke-linejoin:miter;stroke-width:0.8;"/>
   </g>
   <g id="text_13">
    <!-- Local Rounds 01 -->
    <g transform="translate(198.174063 20.88)scale(0.12 -0.12)">
     <defs>
      <path d="M 628 4666 
L 1259 4666 
L 1259 531 
L 3531 531 
L 3531 0 
L 628 0 
L 628 4666 
z
" id="DejaVuSans-4c" transform="scale(0.015625)"/>
     </defs>
     <use xlink:href="#DejaVuSans-4c"/>
     <use x="53.962891" xlink:href="#DejaVuSans-6f"/>
     <use x="115.144531" xlink:href="#DejaVuSans-63"/>
     <use x="170.125" xlink:href="#DejaVuSans-61"/>
     <use x="231.404297" xlink:href="#DejaVuSans-6c"/>
     <use x="259.1875" xlink:href="#DejaVuSans-20"/>
     <use x="290.974609" xlink:href="#DejaVuSans-52"/>
     <use x="355.957031" xlink:href="#DejaVuSans-6f"/>
     <use x="417.138672" xlink:href="#DejaVuSans-75"/>
     <use x="480.517578" xlink:href="#DejaVuSans-6e"/>
     <use x="543.896484" xlink:href="#DejaVuSans-64"/>
     <use x="607.373047" xlink:href="#DejaVuSans-73"/>
     <use x="659.472656" xlink:href="#DejaVuSans-20"/>
     <use x="691.259766" xlink:href="#DejaVuSans-30"/>
     <use x="754.882812" xlink:href="#DejaVuSans-31"/>
    </g>
   </g>
   <g id="legend_1">
    <g id="patch_7">
     <path d="M 80.886563 45.532125 
L 413.683438 45.532125 
Q 415.683438 45.532125 415.683438 43.532125 
L 415.683438 29.854 
Q 415.683438 27.854 413.683438 27.854 
L 80.886563 27.854 
Q 78.886563 27.854 78.886563 29.854 
L 78.886563 43.532125 
Q 78.886563 45.532125 80.886563 45.532125 
z
" style="fill:#ffffff;opacity:0.8;stroke:#cccccc;stroke-linejoin:miter;"/>
    </g>
    <g id="line2d_15">
     <path d="M 82.886563 35.952438 
L 102.886563 35.952438 
" style="fill:none;stroke:#1f77b4;stroke-linecap:square;stroke-width:1.5;"/>
    </g>
    <g id="line2d_16"/>
    <g id="text_14">
     <!-- FedAvg -->
     <g transform="translate(110.886563 39.452438)scale(0.1 -0.1)">
      <defs>
       <path d="M 628 4666 
L 3309 4666 
L 3309 4134 
L 1259 4134 
L 1259 2759 
L 3109 2759 
L 3109 2228 
L 1259 2228 
L 1259 0 
L 628 0 
L 628 4666 
z
" id="DejaVuSans-46" transform="scale(0.015625)"/>
       <path d="M 191 3500 
L 800 3500 
L 1894 563 
L 2988 3500 
L 3597 3500 
L 2284 0 
L 1503 0 
L 191 3500 
z
" id="DejaVuSans-76" transform="scale(0.015625)"/>
       <path d="M 2906 1791 
Q 2906 2416 2648 2759 
Q 2391 3103 1925 3103 
Q 1463 3103 1205 2759 
Q 947 2416 947 1791 
Q 947 1169 1205 825 
Q 1463 481 1925 481 
Q 2391 481 2648 825 
Q 2906 1169 2906 1791 
z
M 3481 434 
Q 3481 -459 3084 -895 
Q 2688 -1331 1869 -1331 
Q 1566 -1331 1297 -1286 
Q 1028 -1241 775 -1147 
L 775 -588 
Q 1028 -725 1275 -790 
Q 1522 -856 1778 -856 
Q 2344 -856 2625 -561 
Q 2906 -266 2906 331 
L 2906 616 
Q 2728 306 2450 153 
Q 2172 0 1784 0 
Q 1141 0 747 490 
Q 353 981 353 1791 
Q 353 2603 747 3093 
Q 1141 3584 1784 3584 
Q 2172 3584 2450 3431 
Q 2728 3278 2906 2969 
L 2906 3500 
L 3481 3500 
L 3481 434 
z
" id="DejaVuSans-67" transform="scale(0.015625)"/>
      </defs>
      <use xlink:href="#DejaVuSans-46"/>
      <use x="52.019531" xlink:href="#DejaVuSans-65"/>
      <use x="113.542969" xlink:href="#DejaVuSans-64"/>
      <use x="177.019531" xlink:href="#DejaVuSans-41"/>
      <use x="239.552734" xlink:href="#DejaVuSans-76"/>
      <use x="298.732422" xlink:href="#DejaVuSans-67"/>
     </g>
    </g>
    <g id="line2d_17">
     <path d="M 167.11 35.952438 
L 187.11 35.952438 
" style="fill:none;stroke:#ff7f0e;stroke-linecap:square;stroke-width:1.5;"/>
    </g>
    <g id="line2d_18"/>
    <g id="text_15">
     <!-- FedMed -->
     <g transform="translate(195.11 39.452438)scale(0.1 -0.1)">
      <defs>
       <path d="M 628 4666 
L 1569 4666 
L 2759 1491 
L 3956 4666 
L 4897 4666 
L 4897 0 
L 4281 0 
L 4281 4097 
L 3078 897 
L 2444 897 
L 1241 4097 
L 1241 0 
L 628 0 
L 628 4666 
z
" id="DejaVuSans-4d" transform="scale(0.015625)"/>
      </defs>
      <use xlink:href="#DejaVuSans-46"/>
      <use x="52.019531" xlink:href="#DejaVuSans-65"/>
      <use x="113.542969" xlink:href="#DejaVuSans-64"/>
      <use x="177.019531" xlink:href="#DejaVuSans-4d"/>
      <use x="263.298828" xlink:href="#DejaVuSans-65"/>
      <use x="324.822266" xlink:href="#DejaVuSans-64"/>
     </g>
    </g>
    <g id="line2d_19">
     <path d="M 253.942813 35.952438 
L 273.942813 35.952438 
" style="fill:none;stroke:#2ca02c;stroke-linecap:square;stroke-width:1.5;"/>
    </g>
    <g id="line2d_20"/>
    <g id="text_16">
     <!-- FedProx -->
     <g transform="translate(281.942813 39.452438)scale(0.1 -0.1)">
      <defs>
       <path d="M 1259 4147 
L 1259 2394 
L 2053 2394 
Q 2494 2394 2734 2622 
Q 2975 2850 2975 3272 
Q 2975 3691 2734 3919 
Q 2494 4147 2053 4147 
L 1259 4147 
z
M 628 4666 
L 2053 4666 
Q 2838 4666 3239 4311 
Q 3641 3956 3641 3272 
Q 3641 2581 3239 2228 
Q 2838 1875 2053 1875 
L 1259 1875 
L 1259 0 
L 628 0 
L 628 4666 
z
" id="DejaVuSans-50" transform="scale(0.015625)"/>
       <path d="M 3513 3500 
L 2247 1797 
L 3578 0 
L 2900 0 
L 1881 1375 
L 863 0 
L 184 0 
L 1544 1831 
L 300 3500 
L 978 3500 
L 1906 2253 
L 2834 3500 
L 3513 3500 
z
" id="DejaVuSans-78" transform="scale(0.015625)"/>
      </defs>
      <use xlink:href="#DejaVuSans-46"/>
      <use x="52.019531" xlink:href="#DejaVuSans-65"/>
      <use x="113.542969" xlink:href="#DejaVuSans-64"/>
      <use x="177.019531" xlink:href="#DejaVuSans-50"/>
      <use x="235.572266" xlink:href="#DejaVuSans-72"/>
      <use x="274.435547" xlink:href="#DejaVuSans-6f"/>
      <use x="332.492188" xlink:href="#DejaVuSans-78"/>
     </g>
    </g>
    <g id="line2d_21">
     <path d="M 341.111563 35.952438 
L 361.111563 35.952438 
" style="fill:none;stroke:#d62728;stroke-linecap:square;stroke-width:1.5;"/>
    </g>
    <g id="line2d_22"/>
    <g id="text_17">
     <!-- qFedAvg -->
     <g transform="translate(369.111563 39.452438)scale(0.1 -0.1)">
      <defs>
       <path d="M 947 1747 
Q 947 1113 1208 752 
Q 1469 391 1925 391 
Q 2381 391 2643 752 
Q 2906 1113 2906 1747 
Q 2906 2381 2643 2742 
Q 2381 3103 1925 3103 
Q 1469 3103 1208 2742 
Q 947 2381 947 1747 
z
M 2906 525 
Q 2725 213 2448 61 
Q 2172 -91 1784 -91 
Q 1150 -91 751 415 
Q 353 922 353 1747 
Q 353 2572 751 3078 
Q 1150 3584 1784 3584 
Q 2172 3584 2448 3432 
Q 2725 3281 2906 2969 
L 2906 3500 
L 3481 3500 
L 3481 -1331 
L 2906 -1331 
L 2906 525 
z
" id="DejaVuSans-71" transform="scale(0.015625)"/>
      </defs>
      <use xlink:href="#DejaVuSans-71"/>
      <use x="63.476562" xlink:href="#DejaVuSans-46"/>
      <use x="115.496094" xlink:href="#DejaVuSans-65"/>
      <use x="177.019531" xlink:href="#DejaVuSans-64"/>
      <use x="240.496094" xlink:href="#DejaVuSans-41"/>
      <use x="303.029297" xlink:href="#DejaVuSans-76"/>
      <use x="362.208984" xlink:href="#DejaVuSans-67"/>
     </g>
    </g>
   </g>
  </g>
 </g>
 <defs>
  <clipPath id="p5e7b45c5f7">
   <rect height="255.26" width="405.43" x="44.57" y="48.38"/>
  </clipPath>
 </defs>
</svg>
