<?xml version="1.0" encoding="utf-8" standalone="no"?>
<!DOCTYPE svg PUBLIC "-//W3C//DTD SVG 1.1//EN"
  "http://www.w3.org/Graphics/SVG/1.1/DTD/svg11.dtd">
<svg height="345.6pt" version="1.1" viewBox="0 0 460.8 345.6" width="460.8pt" xmlns="http://www.w3.org/2000/svg" xmlns:xlink="http://www.w3.org/1999/xlink">
 <metadata>
  <rdf:RDF xmlns:cc="http://creativecommons.org/ns#" xmlns:dc="http://purl.org/dc/elements/1.1/" xmlns:rdf="http://www.w3.org/1999/02/22-rdf-syntax-ns#">
   <cc:Work>
    <dc:type rdf:resource="http://purl.org/dc/dcmitype/StillImage"/>
    <dc:date>2021-05-07T11:37:56.869616</dc:date>
    <dc:format>image/svg+xml</dc:format>
    <dc:creator>
     <cc:Agent>
      <dc:title>Matplotlib v3.4.1, https://matplotlib.org/</dc:title>
     </cc:Agent>
    </dc:creator>
   </cc:Work>
  </rdf:RDF>
 </metadata>
 <defs>
  <style type="text/css">*{stroke-linecap:butt;stroke-linejoin:round;}</style>
 </defs>
 <g id="figure_1">
  <g id="patch_1">
   <path d="M 0 345.6 
L 460.8 345.6 
L 460.8 0 
L 0 0 
z
" style="fill:#ffffff;"/>
  </g>
  <g id="axes_1">
   <g id="patch_2">
    <path d="M 50.87 303.64 
L 450 303.64 
L 450 48.38 
L 50.87 48.38 
z
" style="fill:#ffffff;"/>
   </g>
   <g id="PolyCollection_1">
    <path clip-path="url(#pb100fc72b0)" d="M 69.012273 244.442479 
L 69.012273 265.913928 
L 76.417282 228.035632 
L 83.822291 173.767522 
L 91.227301 164.402127 
L 98.63231 130.347338 
L 106.037319 108.551288 
L 113.442328 106.108674 
L 120.847338 113.948907 
L 128.252347 101.046265 
L 135.657356 101.37387 
L 143.062365 97.688631 
L 150.467375 80.368064 
L 157.872384 76.811667 
L 165.277393 75.65641 
L 172.682403 78.364781 
L 180.087412 78.269924 
L 187.492421 69.683207 
L 194.89743 68.401447 
L 202.30244 78.958804 
L 209.707449 79.330925 
L 217.112458 76.752416 
L 224.517468 70.759597 
L 231.922477 67.469218 
L 239.327486 68.15508 
L 246.732495 65.831162 
L 254.137505 69.726332 
L 261.542514 68.91916 
L 268.947523 70.381639 
L 276.352532 66.654371 
L 283.757542 72.927271 
L 291.162551 66.396931 
L 298.56756 64.647068 
L 305.97257 66.151127 
L 313.377579 64.508045 
L 320.782588 64.065198 
L 328.187597 63.263996 
L 335.592607 64.951198 
L 342.997616 65.964887 
L 350.402625 64.730188 
L 357.807635 62.054901 
L 365.212644 62.803844 
L 372.617653 63.490578 
L 380.022662 63.276992 
L 387.427672 63.718708 
L 394.832681 62.803844 
L 402.23769 63.356939 
L 409.642699 62.085486 
L 417.047709 64.086736 
L 424.452718 62.142869 
L 431.857727 62.233797 
L 431.857727 60.190706 
L 431.857727 60.190706 
L 424.452718 60.664714 
L 417.047709 61.147018 
L 409.642699 60.722096 
L 402.23769 60.727576 
L 394.832681 61.025284 
L 387.427672 59.982727 
L 380.022662 60.807523 
L 372.617653 61.487789 
L 365.212644 61.025284 
L 357.807635 60.752681 
L 350.402625 60.886645 
L 342.997616 61.567344 
L 335.592607 61.048714 
L 328.187597 61.842065 
L 320.782588 62.062408 
L 313.377579 62.513413 
L 305.97257 61.636491 
L 298.56756 63.395935 
L 291.162551 62.029152 
L 283.757542 61.883471 
L 276.352532 61.260939 
L 268.947523 60.598308 
L 261.542514 61.677707 
L 254.137505 64.445945 
L 246.732495 62.467228 
L 239.327486 63.463333 
L 231.922477 63.383036 
L 224.517468 64.051146 
L 217.112458 61.506042 
L 209.707449 61.864476 
L 202.30244 64.407382 
L 194.89743 66.026216 
L 187.492421 66.149081 
L 180.087412 65.607034 
L 172.682403 67.555268 
L 165.277393 64.64514 
L 157.872384 66.426826 
L 150.467375 69.255088 
L 143.062365 70.32234 
L 135.657356 70.467897 
L 128.252347 75.009377 
L 120.847338 81.643793 
L 113.442328 92.804049 
L 106.037319 87.935264 
L 98.63231 109.171818 
L 91.227301 130.663566 
L 83.822291 144.538331 
L 76.417282 151.435257 
L 69.012273 244.442479 
z
" style="fill:#1f77b4;fill-opacity:0.5;"/>
   </g>
   <g id="PolyCollection_2">
    <path clip-path="url(#pb100fc72b0)" d="M 69.012273 270.162569 
L 69.012273 292.037273 
L 76.417282 275.593251 
L 83.822291 255.886278 
L 91.227301 259.326528 
L 98.63231 264.946314 
L 106.037319 190.41886 
L 113.442328 224.297973 
L 120.847338 237.55614 
L 128.252347 226.799338 
L 135.657356 189.761386 
L 143.062365 209.556838 
L 150.467375 168.415488 
L 157.872384 151.986802 
L 165.277393 161.676368 
L 172.682403 181.124004 
L 180.087412 185.428855 
L 187.492421 167.729406 
L 194.89743 135.391693 
L 202.30244 139.039242 
L 209.707449 145.030915 
L 217.112458 138.309044 
L 224.517468 142.859448 
L 231.922477 137.097309 
L 239.327486 141.473405 
L 246.732495 134.638047 
L 254.137505 160.693326 
L 261.542514 172.319986 
L 268.947523 114.286815 
L 276.352532 144.004025 
L 283.757542 168.341374 
L 291.162551 199.212557 
L 298.56756 197.511338 
L 305.97257 169.788845 
L 313.377579 143.299144 
L 320.782588 148.721636 
L 328.187597 151.168739 
L 335.592607 154.355042 
L 342.997616 126.601021 
L 350.402625 108.003489 
L 357.807635 121.572429 
L 365.212644 106.806785 
L 372.617653 82.693046 
L 380.022662 108.143461 
L 387.427672 108.249063 
L 394.832681 119.447958 
L 402.23769 101.056325 
L 409.642699 105.629376 
L 417.047709 117.153087 
L 424.452718 101.477784 
L 431.857727 119.870949 
L 431.857727 73.934046 
L 431.857727 73.934046 
L 424.452718 72.151687 
L 417.047709 84.441193 
L 409.642699 86.387915 
L 402.23769 90.322499 
L 394.832681 91.595618 
L 387.427672 75.212784 
L 380.022662 71.104511 
L 372.617653 73.314766 
L 365.212644 83.550494 
L 357.807635 72.104873 
L 350.402625 83.503029 
L 342.997616 84.825634 
L 335.592607 74.054807 
L 328.187597 82.093451 
L 320.782588 112.505362 
L 313.377579 101.583126 
L 305.97257 92.332006 
L 298.56756 81.848092 
L 291.162551 69.931418 
L 283.757542 67.602373 
L 276.352532 76.23346 
L 268.947523 71.345816 
L 261.542514 60.81451 
L 254.137505 100.150593 
L 246.732495 83.045574 
L 239.327486 88.341069 
L 231.922477 91.567927 
L 224.517468 101.12897 
L 217.112458 90.611578 
L 209.707449 93.722082 
L 202.30244 98.436824 
L 194.89743 95.827406 
L 187.492421 83.02675 
L 180.087412 108.359906 
L 172.682403 111.004746 
L 165.277393 113.469188 
L 157.872384 99.535514 
L 150.467375 120.904012 
L 143.062365 121.518334 
L 135.657356 90.108817 
L 128.252347 115.768221 
L 120.847338 156.854853 
L 113.442328 152.108281 
L 106.037319 141.039391 
L 98.63231 216.296047 
L 91.227301 187.566365 
L 83.822291 177.343444 
L 76.417282 237.061633 
L 69.012273 270.162569 
z
" style="fill:#ff7f0e;fill-opacity:0.5;"/>
   </g>
   <g id="PolyCollection_3">
    <path clip-path="url(#pb100fc72b0)" d="M 69.012273 215.016051 
L 69.012273 238.133808 
L 76.417282 238.449019 
L 83.822291 178.344914 
L 91.227301 137.934371 
L 98.63231 142.918261 
L 106.037319 117.586069 
L 113.442328 109.440682 
L 120.847338 105.897117 
L 128.252347 103.434362 
L 135.657356 84.696325 
L 143.062365 83.378585 
L 150.467375 84.949406 
L 157.872384 78.095991 
L 165.277393 73.288281 
L 172.682403 72.199058 
L 180.087412 74.58431 
L 187.492421 71.382933 
L 194.89743 74.289013 
L 202.30244 74.01051 
L 209.707449 71.177152 
L 217.112458 72.310893 
L 224.517468 72.489688 
L 231.922477 72.020824 
L 239.327486 71.17754 
L 246.732495 70.01285 
L 254.137505 70.899294 
L 261.542514 79.699297 
L 268.947523 70.341605 
L 276.352532 69.574475 
L 283.757542 70.242948 
L 291.162551 69.993204 
L 298.56756 69.935212 
L 305.97257 70.187902 
L 313.377579 69.764989 
L 320.782588 70.090757 
L 328.187597 70.258532 
L 335.592607 69.979898 
L 342.997616 70.186925 
L 350.402625 69.389033 
L 357.807635 69.134214 
L 365.212644 69.399763 
L 372.617653 69.581022 
L 380.022662 69.911047 
L 387.427672 70.246417 
L 394.832681 70.350422 
L 402.23769 69.992067 
L 409.642699 69.875203 
L 417.047709 69.359492 
L 424.452718 69.473435 
L 431.857727 69.195811 
L 431.857727 60.251817 
L 431.857727 60.251817 
L 424.452718 61.123433 
L 417.047709 61.109682 
L 409.642699 61.615517 
L 402.23769 62.137119 
L 394.832681 62.800309 
L 387.427672 62.265848 
L 380.022662 62.345832 
L 372.617653 62.037391 
L 365.212644 61.580184 
L 357.807635 60.95188 
L 350.402625 61.080141 
L 342.997616 62.70842 
L 335.592607 62.66006 
L 328.187597 63.530664 
L 320.782588 63.69844 
L 313.377579 62.236503 
L 305.97257 64.112068 
L 298.56756 62.83244 
L 291.162551 62.519061 
L 283.757542 63.16317 
L 276.352532 62.299324 
L 268.947523 64.596831 
L 261.542514 65.837673 
L 254.137505 64.677608 
L 246.732495 63.648654 
L 239.327486 64.143975 
L 231.922477 66.493021 
L 224.517468 65.896464 
L 217.112458 67.73527 
L 209.707449 66.953614 
L 202.30244 68.206437 
L 194.89743 69.460252 
L 187.492421 66.875526 
L 180.087412 67.888023 
L 172.682403 66.697867 
L 165.277393 66.502496 
L 157.872384 68.973298 
L 150.467375 71.058406 
L 143.062365 71.735375 
L 135.657356 74.759202 
L 128.252347 81.687496 
L 120.847338 79.607821 
L 113.442328 81.682756 
L 106.037319 75.708154 
L 98.63231 93.919338 
L 91.227301 109.118684 
L 83.822291 157.071827 
L 76.417282 205.89001 
L 69.012273 215.016051 
z
" style="fill:#2ca02c;fill-opacity:0.5;"/>
   </g>
   <g id="PolyCollection_4">
    <path clip-path="url(#pb100fc72b0)" d="M 69.012273 244.457937 
L 69.012273 271.262223 
L 76.417282 251.710166 
L 83.822291 235.162347 
L 91.227301 224.413316 
L 98.63231 221.035758 
L 106.037319 216.863271 
L 113.442328 211.752153 
L 120.847338 204.913386 
L 128.252347 200.837881 
L 135.657356 196.380207 
L 143.062365 193.123263 
L 150.467375 190.707533 
L 157.872384 187.604205 
L 165.277393 184.734681 
L 172.682403 181.410756 
L 180.087412 177.178614 
L 187.492421 172.432858 
L 194.89743 167.609466 
L 202.30244 163.224164 
L 209.707449 158.729713 
L 217.112458 154.190113 
L 224.517468 150.737414 
L 231.922477 147.145516 
L 239.327486 144.705264 
L 246.732495 142.332655 
L 254.137505 139.628427 
L 261.542514 137.840285 
L 268.947523 135.439839 
L 276.352532 133.50447 
L 283.757542 131.100677 
L 291.162551 129.665495 
L 298.56756 128.47362 
L 305.97257 127.518261 
L 313.377579 126.188822 
L 320.782588 126.01229 
L 328.187597 125.220808 
L 335.592607 124.339368 
L 342.997616 123.309707 
L 350.402625 122.719415 
L 357.807635 122.320795 
L 365.212644 121.562456 
L 372.617653 120.24653 
L 380.022662 119.626707 
L 387.427672 119.284625 
L 394.832681 118.609451 
L 402.23769 117.823973 
L 409.642699 117.754078 
L 417.047709 117.402616 
L 424.452718 116.699329 
L 431.857727 116.424392 
L 431.857727 103.764697 
L 431.857727 103.764697 
L 424.452718 104.34722 
L 417.047709 104.541744 
L 409.642699 104.926688 
L 402.23769 105.361181 
L 394.832681 106.421764 
L 387.427672 107.09835 
L 380.022662 107.765044 
L 372.617653 108.254875 
L 365.212644 108.936326 
L 357.807635 110.619226 
L 350.402625 111.421049 
L 342.997616 112.969362 
L 335.592607 113.775674 
L 328.187597 114.609154 
L 320.782588 115.804961 
L 313.377579 115.870535 
L 305.97257 117.749004 
L 298.56756 118.780934 
L 291.162551 119.788191 
L 283.757542 120.653019 
L 276.352532 122.365032 
L 268.947523 124.293277 
L 261.542514 125.484074 
L 254.137505 126.490242 
L 246.732495 128.436472 
L 239.327486 131.047217 
L 231.922477 132.60172 
L 224.517468 134.225193 
L 217.112458 135.836551 
L 209.707449 138.388648 
L 202.30244 140.814402 
L 194.89743 143.803254 
L 187.492421 146.676824 
L 180.087412 149.658294 
L 172.682403 151.690652 
L 165.277393 155.145702 
L 157.872384 157.935413 
L 150.467375 160.884741 
L 143.062365 163.633945 
L 135.657356 166.37922 
L 128.252347 168.922453 
L 120.847338 172.866718 
L 113.442328 176.76133 
L 106.037319 182.666048 
L 98.63231 186.059383 
L 91.227301 196.865218 
L 83.822291 207.270223 
L 76.417282 221.75236 
L 69.012273 244.457937 
z
" style="fill:#d62728;fill-opacity:0.5;"/>
   </g>
   <g id="matplotlib.axis_1">
    <g id="xtick_1">
     <g id="line2d_1">
      <defs>
       <path d="M 0 0 
L 0 3.5 
" id="mda72bf1c05" style="stroke:#000000;stroke-width:0.8;"/>
      </defs>
      <g>
       <use style="stroke:#000000;stroke-width:0.8;" x="69.012273" xlink:href="#mda72bf1c05" y="303.64"/>
      </g>
     </g>
     <g id="text_1">
      <!-- 0 -->
      <g transform="translate(65.831023 318.238437)scale(0.1 -0.1)">
       <defs>
        <path d="M 2034 4250 
Q 1547 4250 1301 3770 
Q 1056 3291 1056 2328 
Q 1056 1369 1301 889 
Q 1547 409 2034 409 
Q 2525 409 2770 889 
Q 3016 1369 3016 2328 
Q 3016 3291 2770 3770 
Q 2525 4250 2034 4250 
z
M 2034 4750 
Q 2819 4750 3233 4129 
Q 3647 3509 3647 2328 
Q 3647 1150 3233 529 
Q 2819 -91 2034 -91 
Q 1250 -91 836 529 
Q 422 1150 422 2328 
Q 422 3509 836 4129 
Q 1250 4750 2034 4750 
z
" id="DejaVuSans-30" transform="scale(0.015625)"/>
       </defs>
       <use xlink:href="#DejaVuSans-30"/>
      </g>
     </g>
    </g>
    <g id="xtick_2">
     <g id="line2d_2">
      <g>
       <use style="stroke:#000000;stroke-width:0.8;" x="143.062365" xlink:href="#mda72bf1c05" y="303.64"/>
      </g>
     </g>
     <g id="text_2">
      <!-- 10 -->
      <g transform="translate(136.699865 318.238437)scale(0.1 -0.1)">
       <defs>
        <path d="M 794 531 
L 1825 531 
L 1825 4091 
L 703 3866 
L 703 4441 
L 1819 4666 
L 2450 4666 
L 2450 531 
L 3481 531 
L 3481 0 
L 794 0 
L 794 531 
z
" id="DejaVuSans-31" transform="scale(0.015625)"/>
       </defs>
       <use xlink:href="#DejaVuSans-31"/>
       <use x="63.623047" xlink:href="#DejaVuSans-30"/>
      </g>
     </g>
    </g>
    <g id="xtick_3">
     <g id="line2d_3">
      <g>
       <use style="stroke:#000000;stroke-width:0.8;" x="217.112458" xlink:href="#mda72bf1c05" y="303.64"/>
      </g>
     </g>
     <g id="text_3">
      <!-- 20 -->
      <g transform="translate(210.749958 318.238437)scale(0.1 -0.1)">
       <defs>
        <path d="M 1228 531 
L 3431 531 
L 3431 0 
L 469 0 
L 469 531 
Q 828 903 1448 1529 
Q 2069 2156 2228 2338 
Q 2531 2678 2651 2914 
Q 2772 3150 2772 3378 
Q 2772 3750 2511 3984 
Q 2250 4219 1831 4219 
Q 1534 4219 1204 4116 
Q 875 4013 500 3803 
L 500 4441 
Q 881 4594 1212 4672 
Q 1544 4750 1819 4750 
Q 2544 4750 2975 4387 
Q 3406 4025 3406 3419 
Q 3406 3131 3298 2873 
Q 3191 2616 2906 2266 
Q 2828 2175 2409 1742 
Q 1991 1309 1228 531 
z
" id="DejaVuSans-32" transform="scale(0.015625)"/>
       </defs>
       <use xlink:href="#DejaVuSans-32"/>
       <use x="63.623047" xlink:href="#DejaVuSans-30"/>
      </g>
     </g>
    </g>
    <g id="xtick_4">
     <g id="line2d_4">
      <g>
       <use style="stroke:#000000;stroke-width:0.8;" x="291.162551" xlink:href="#mda72bf1c05" y="303.64"/>
      </g>
     </g>
     <g id="text_4">
      <!-- 30 -->
      <g transform="translate(284.800051 318.238437)scale(0.1 -0.1)">
       <defs>
        <path d="M 2597 2516 
Q 3050 2419 3304 2112 
Q 3559 1806 3559 1356 
Q 3559 666 3084 287 
Q 2609 -91 1734 -91 
Q 1441 -91 1130 -33 
Q 819 25 488 141 
L 488 750 
Q 750 597 1062 519 
Q 1375 441 1716 441 
Q 2309 441 2620 675 
Q 2931 909 2931 1356 
Q 2931 1769 2642 2001 
Q 2353 2234 1838 2234 
L 1294 2234 
L 1294 2753 
L 1863 2753 
Q 2328 2753 2575 2939 
Q 2822 3125 2822 3475 
Q 2822 3834 2567 4026 
Q 2313 4219 1838 4219 
Q 1578 4219 1281 4162 
Q 984 4106 628 3988 
L 628 4550 
Q 988 4650 1302 4700 
Q 1616 4750 1894 4750 
Q 2613 4750 3031 4423 
Q 3450 4097 3450 3541 
Q 3450 3153 3228 2886 
Q 3006 2619 2597 2516 
z
" id="DejaVuSans-33" transform="scale(0.015625)"/>
       </defs>
       <use xlink:href="#DejaVuSans-33"/>
       <use x="63.623047" xlink:href="#DejaVuSans-30"/>
      </g>
     </g>
    </g>
    <g id="xtick_5">
     <g id="line2d_5">
      <g>
       <use style="stroke:#000000;stroke-width:0.8;" x="365.212644" xlink:href="#mda72bf1c05" y="303.64"/>
      </g>
     </g>
     <g id="text_5">
      <!-- 40 -->
      <g transform="translate(358.850144 318.238437)scale(0.1 -0.1)">
       <defs>
        <path d="M 2419 4116 
L 825 1625 
L 2419 1625 
L 2419 4116 
z
M 2253 4666 
L 3047 4666 
L 3047 1625 
L 3713 1625 
L 3713 1100 
L 3047 1100 
L 3047 0 
L 2419 0 
L 2419 1100 
L 313 1100 
L 313 1709 
L 2253 4666 
z
" id="DejaVuSans-34" transform="scale(0.015625)"/>
       </defs>
       <use xlink:href="#DejaVuSans-34"/>
       <use x="63.623047" xlink:href="#DejaVuSans-30"/>
      </g>
     </g>
    </g>
    <g id="xtick_6">
     <g id="line2d_6">
      <g>
       <use style="stroke:#000000;stroke-width:0.8;" x="439.262737" xlink:href="#mda72bf1c05" y="303.64"/>
      </g>
     </g>
     <g id="text_6">
      <!-- 50 -->
      <g transform="translate(432.900237 318.238437)scale(0.1 -0.1)">
       <defs>
        <path d="M 691 4666 
L 3169 4666 
L 3169 4134 
L 1269 4134 
L 1269 2991 
Q 1406 3038 1543 3061 
Q 1681 3084 1819 3084 
Q 2600 3084 3056 2656 
Q 3513 2228 3513 1497 
Q 3513 744 3044 326 
Q 2575 -91 1722 -91 
Q 1428 -91 1123 -41 
Q 819 9 494 109 
L 494 744 
Q 775 591 1075 516 
Q 1375 441 1709 441 
Q 2250 441 2565 725 
Q 2881 1009 2881 1497 
Q 2881 1984 2565 2268 
Q 2250 2553 1709 2553 
Q 1456 2553 1204 2497 
Q 953 2441 691 2322 
L 691 4666 
z
" id="DejaVuSans-35" transform="scale(0.015625)"/>
       </defs>
       <use xlink:href="#DejaVuSans-35"/>
       <use x="63.623047" xlink:href="#DejaVuSans-30"/>
      </g>
     </g>
    </g>
    <g id="text_7">
     <!-- Global Communication Rounds -->
     <g transform="translate(173.473281 331.916562)scale(0.1 -0.1)">
      <defs>
       <path d="M 3809 666 
L 3809 1919 
L 2778 1919 
L 2778 2438 
L 4434 2438 
L 4434 434 
Q 4069 175 3628 42 
Q 3188 -91 2688 -91 
Q 1594 -91 976 548 
Q 359 1188 359 2328 
Q 359 3472 976 4111 
Q 1594 4750 2688 4750 
Q 3144 4750 3555 4637 
Q 3966 4525 4313 4306 
L 4313 3634 
Q 3963 3931 3569 4081 
Q 3175 4231 2741 4231 
Q 1884 4231 1454 3753 
Q 1025 3275 1025 2328 
Q 1025 1384 1454 906 
Q 1884 428 2741 428 
Q 3075 428 3337 486 
Q 3600 544 3809 666 
z
" id="DejaVuSans-47" transform="scale(0.015625)"/>
       <path d="M 603 4863 
L 1178 4863 
L 1178 0 
L 603 0 
L 603 4863 
z
" id="DejaVuSans-6c" transform="scale(0.015625)"/>
       <path d="M 1959 3097 
Q 1497 3097 1228 2736 
Q 959 2375 959 1747 
Q 959 1119 1226 758 
Q 1494 397 1959 397 
Q 2419 397 2687 759 
Q 2956 1122 2956 1747 
Q 2956 2369 2687 2733 
Q 2419 3097 1959 3097 
z
M 1959 3584 
Q 2709 3584 3137 3096 
Q 3566 2609 3566 1747 
Q 3566 888 3137 398 
Q 2709 -91 1959 -91 
Q 1206 -91 779 398 
Q 353 888 353 1747 
Q 353 2609 779 3096 
Q 1206 3584 1959 3584 
z
" id="DejaVuSans-6f" transform="scale(0.015625)"/>
       <path d="M 3116 1747 
Q 3116 2381 2855 2742 
Q 2594 3103 2138 3103 
Q 1681 3103 1420 2742 
Q 1159 2381 1159 1747 
Q 1159 1113 1420 752 
Q 1681 391 2138 391 
Q 2594 391 2855 752 
Q 3116 1113 3116 1747 
z
M 1159 2969 
Q 1341 3281 1617 3432 
Q 1894 3584 2278 3584 
Q 2916 3584 3314 3078 
Q 3713 2572 3713 1747 
Q 3713 922 3314 415 
Q 2916 -91 2278 -91 
Q 1894 -91 1617 61 
Q 1341 213 1159 525 
L 1159 0 
L 581 0 
L 581 4863 
L 1159 4863 
L 1159 2969 
z
" id="DejaVuSans-62" transform="scale(0.015625)"/>
       <path d="M 2194 1759 
Q 1497 1759 1228 1600 
Q 959 1441 959 1056 
Q 959 750 1161 570 
Q 1363 391 1709 391 
Q 2188 391 2477 730 
Q 2766 1069 2766 1631 
L 2766 1759 
L 2194 1759 
z
M 3341 1997 
L 3341 0 
L 2766 0 
L 2766 531 
Q 2569 213 2275 61 
Q 1981 -91 1556 -91 
Q 1019 -91 701 211 
Q 384 513 384 1019 
Q 384 1609 779 1909 
Q 1175 2209 1959 2209 
L 2766 2209 
L 2766 2266 
Q 2766 2663 2505 2880 
Q 2244 3097 1772 3097 
Q 1472 3097 1187 3025 
Q 903 2953 641 2809 
L 641 3341 
Q 956 3463 1253 3523 
Q 1550 3584 1831 3584 
Q 2591 3584 2966 3190 
Q 3341 2797 3341 1997 
z
" id="DejaVuSans-61" transform="scale(0.015625)"/>
       <path id="DejaVuSans-20" transform="scale(0.015625)"/>
       <path d="M 4122 4306 
L 4122 3641 
Q 3803 3938 3442 4084 
Q 3081 4231 2675 4231 
Q 1875 4231 1450 3742 
Q 1025 3253 1025 2328 
Q 1025 1406 1450 917 
Q 1875 428 2675 428 
Q 3081 428 3442 575 
Q 3803 722 4122 1019 
L 4122 359 
Q 3791 134 3420 21 
Q 3050 -91 2638 -91 
Q 1578 -91 968 557 
Q 359 1206 359 2328 
Q 359 3453 968 4101 
Q 1578 4750 2638 4750 
Q 3056 4750 3426 4639 
Q 3797 4528 4122 4306 
z
" id="DejaVuSans-43" transform="scale(0.015625)"/>
       <path d="M 3328 2828 
Q 3544 3216 3844 3400 
Q 4144 3584 4550 3584 
Q 5097 3584 5394 3201 
Q 5691 2819 5691 2113 
L 5691 0 
L 5113 0 
L 5113 2094 
Q 5113 2597 4934 2840 
Q 4756 3084 4391 3084 
Q 3944 3084 3684 2787 
Q 3425 2491 3425 1978 
L 3425 0 
L 2847 0 
L 2847 2094 
Q 2847 2600 2669 2842 
Q 2491 3084 2119 3084 
Q 1678 3084 1418 2786 
Q 1159 2488 1159 1978 
L 1159 0 
L 581 0 
L 581 3500 
L 1159 3500 
L 1159 2956 
Q 1356 3278 1631 3431 
Q 1906 3584 2284 3584 
Q 2666 3584 2933 3390 
Q 3200 3197 3328 2828 
z
" id="DejaVuSans-6d" transform="scale(0.015625)"/>
       <path d="M 544 1381 
L 544 3500 
L 1119 3500 
L 1119 1403 
Q 1119 906 1312 657 
Q 1506 409 1894 409 
Q 2359 409 2629 706 
Q 2900 1003 2900 1516 
L 2900 3500 
L 3475 3500 
L 3475 0 
L 2900 0 
L 2900 538 
Q 2691 219 2414 64 
Q 2138 -91 1772 -91 
Q 1169 -91 856 284 
Q 544 659 544 1381 
z
M 1991 3584 
L 1991 3584 
z
" id="DejaVuSans-75" transform="scale(0.015625)"/>
       <path d="M 3513 2113 
L 3513 0 
L 2938 0 
L 2938 2094 
Q 2938 2591 2744 2837 
Q 2550 3084 2163 3084 
Q 1697 3084 1428 2787 
Q 1159 2491 1159 1978 
L 1159 0 
L 581 0 
L 581 3500 
L 1159 3500 
L 1159 2956 
Q 1366 3272 1645 3428 
Q 1925 3584 2291 3584 
Q 2894 3584 3203 3211 
Q 3513 2838 3513 2113 
z
" id="DejaVuSans-6e" transform="scale(0.015625)"/>
       <path d="M 603 3500 
L 1178 3500 
L 1178 0 
L 603 0 
L 603 3500 
z
M 603 4863 
L 1178 4863 
L 1178 4134 
L 603 4134 
L 603 4863 
z
" id="DejaVuSans-69" transform="scale(0.015625)"/>
       <path d="M 3122 3366 
L 3122 2828 
Q 2878 2963 2633 3030 
Q 2388 3097 2138 3097 
Q 1578 3097 1268 2742 
Q 959 2388 959 1747 
Q 959 1106 1268 751 
Q 1578 397 2138 397 
Q 2388 397 2633 464 
Q 2878 531 3122 666 
L 3122 134 
Q 2881 22 2623 -34 
Q 2366 -91 2075 -91 
Q 1284 -91 818 406 
Q 353 903 353 1747 
Q 353 2603 823 3093 
Q 1294 3584 2113 3584 
Q 2378 3584 2631 3529 
Q 2884 3475 3122 3366 
z
" id="DejaVuSans-63" transform="scale(0.015625)"/>
       <path d="M 1172 4494 
L 1172 3500 
L 2356 3500 
L 2356 3053 
L 1172 3053 
L 1172 1153 
Q 1172 725 1289 603 
Q 1406 481 1766 481 
L 2356 481 
L 2356 0 
L 1766 0 
Q 1100 0 847 248 
Q 594 497 594 1153 
L 594 3053 
L 172 3053 
L 172 3500 
L 594 3500 
L 594 4494 
L 1172 4494 
z
" id="DejaVuSans-74" transform="scale(0.015625)"/>
       <path d="M 2841 2188 
Q 3044 2119 3236 1894 
Q 3428 1669 3622 1275 
L 4263 0 
L 3584 0 
L 2988 1197 
Q 2756 1666 2539 1819 
Q 2322 1972 1947 1972 
L 1259 1972 
L 1259 0 
L 628 0 
L 628 4666 
L 2053 4666 
Q 2853 4666 3247 4331 
Q 3641 3997 3641 3322 
Q 3641 2881 3436 2590 
Q 3231 2300 2841 2188 
z
M 1259 4147 
L 1259 2491 
L 2053 2491 
Q 2509 2491 2742 2702 
Q 2975 2913 2975 3322 
Q 2975 3731 2742 3939 
Q 2509 4147 2053 4147 
L 1259 4147 
z
" id="DejaVuSans-52" transform="scale(0.015625)"/>
       <path d="M 2906 2969 
L 2906 4863 
L 3481 4863 
L 3481 0 
L 2906 0 
L 2906 525 
Q 2725 213 2448 61 
Q 2172 -91 1784 -91 
Q 1150 -91 751 415 
Q 353 922 353 1747 
Q 353 2572 751 3078 
Q 1150 3584 1784 3584 
Q 2172 3584 2448 3432 
Q 2725 3281 2906 2969 
z
M 947 1747 
Q 947 1113 1208 752 
Q 1469 391 1925 391 
Q 2381 391 2643 752 
Q 2906 1113 2906 1747 
Q 2906 2381 2643 2742 
Q 2381 3103 1925 3103 
Q 1469 3103 1208 2742 
Q 947 2381 947 1747 
z
" id="DejaVuSans-64" transform="scale(0.015625)"/>
       <path d="M 2834 3397 
L 2834 2853 
Q 2591 2978 2328 3040 
Q 2066 3103 1784 3103 
Q 1356 3103 1142 2972 
Q 928 2841 928 2578 
Q 928 2378 1081 2264 
Q 1234 2150 1697 2047 
L 1894 2003 
Q 2506 1872 2764 1633 
Q 3022 1394 3022 966 
Q 3022 478 2636 193 
Q 2250 -91 1575 -91 
Q 1294 -91 989 -36 
Q 684 19 347 128 
L 347 722 
Q 666 556 975 473 
Q 1284 391 1588 391 
Q 1994 391 2212 530 
Q 2431 669 2431 922 
Q 2431 1156 2273 1281 
Q 2116 1406 1581 1522 
L 1381 1569 
Q 847 1681 609 1914 
Q 372 2147 372 2553 
Q 372 3047 722 3315 
Q 1072 3584 1716 3584 
Q 2034 3584 2315 3537 
Q 2597 3491 2834 3397 
z
" id="DejaVuSans-73" transform="scale(0.015625)"/>
      </defs>
      <use xlink:href="#DejaVuSans-47"/>
      <use x="77.490234" xlink:href="#DejaVuSans-6c"/>
      <use x="105.273438" xlink:href="#DejaVuSans-6f"/>
      <use x="166.455078" xlink:href="#DejaVuSans-62"/>
      <use x="229.931641" xlink:href="#DejaVuSans-61"/>
      <use x="291.210938" xlink:href="#DejaVuSans-6c"/>
      <use x="318.994141" xlink:href="#DejaVuSans-20"/>
      <use x="350.78125" xlink:href="#DejaVuSans-43"/>
      <use x="420.605469" xlink:href="#DejaVuSans-6f"/>
      <use x="481.787109" xlink:href="#DejaVuSans-6d"/>
      <use x="579.199219" xlink:href="#DejaVuSans-6d"/>
      <use x="676.611328" xlink:href="#DejaVuSans-75"/>
      <use x="739.990234" xlink:href="#DejaVuSans-6e"/>
      <use x="803.369141" xlink:href="#DejaVuSans-69"/>
      <use x="831.152344" xlink:href="#DejaVuSans-63"/>
      <use x="886.132812" xlink:href="#DejaVuSans-61"/>
      <use x="947.412109" xlink:href="#DejaVuSans-74"/>
      <use x="986.621094" xlink:href="#DejaVuSans-69"/>
      <use x="1014.404297" xlink:href="#DejaVuSans-6f"/>
      <use x="1075.585938" xlink:href="#DejaVuSans-6e"/>
      <use x="1138.964844" xlink:href="#DejaVuSans-20"/>
      <use x="1170.751953" xlink:href="#DejaVuSans-52"/>
      <use x="1235.734375" xlink:href="#DejaVuSans-6f"/>
      <use x="1296.916016" xlink:href="#DejaVuSans-75"/>
      <use x="1360.294922" xlink:href="#DejaVuSans-6e"/>
      <use x="1423.673828" xlink:href="#DejaVuSans-64"/>
      <use x="1487.150391" xlink:href="#DejaVuSans-73"/>
     </g>
    </g>
   </g>
   <g id="matplotlib.axis_2">
    <g id="ytick_1">
     <g id="line2d_7">
      <defs>
       <path d="M 0 0 
L -3.5 0 
" id="m18b59093cb" style="stroke:#000000;stroke-width:0.8;"/>
      </defs>
      <g>
       <use style="stroke:#000000;stroke-width:0.8;" x="50.87" xlink:href="#m18b59093cb" y="259.902852"/>
      </g>
     </g>
     <g id="text_8">
      <!-- 20 -->
      <g transform="translate(31.145 263.70207)scale(0.1 -0.1)">
       <use xlink:href="#DejaVuSans-32"/>
       <use x="63.623047" xlink:href="#DejaVuSans-30"/>
      </g>
     </g>
    </g>
    <g id="ytick_2">
     <g id="line2d_8">
      <g>
       <use style="stroke:#000000;stroke-width:0.8;" x="50.87" xlink:href="#m18b59093cb" y="209.464042"/>
      </g>
     </g>
     <g id="text_9">
      <!-- 40 -->
      <g transform="translate(31.145 213.263261)scale(0.1 -0.1)">
       <use xlink:href="#DejaVuSans-34"/>
       <use x="63.623047" xlink:href="#DejaVuSans-30"/>
      </g>
     </g>
    </g>
    <g id="ytick_3">
     <g id="line2d_9">
      <g>
       <use style="stroke:#000000;stroke-width:0.8;" x="50.87" xlink:href="#m18b59093cb" y="159.025233"/>
      </g>
     </g>
     <g id="text_10">
      <!-- 60 -->
      <g transform="translate(31.145 162.824452)scale(0.1 -0.1)">
       <defs>
        <path d="M 2113 2584 
Q 1688 2584 1439 2293 
Q 1191 2003 1191 1497 
Q 1191 994 1439 701 
Q 1688 409 2113 409 
Q 2538 409 2786 701 
Q 3034 994 3034 1497 
Q 3034 2003 2786 2293 
Q 2538 2584 2113 2584 
z
M 3366 4563 
L 3366 3988 
Q 3128 4100 2886 4159 
Q 2644 4219 2406 4219 
Q 1781 4219 1451 3797 
Q 1122 3375 1075 2522 
Q 1259 2794 1537 2939 
Q 1816 3084 2150 3084 
Q 2853 3084 3261 2657 
Q 3669 2231 3669 1497 
Q 3669 778 3244 343 
Q 2819 -91 2113 -91 
Q 1303 -91 875 529 
Q 447 1150 447 2328 
Q 447 3434 972 4092 
Q 1497 4750 2381 4750 
Q 2619 4750 2861 4703 
Q 3103 4656 3366 4563 
z
" id="DejaVuSans-36" transform="scale(0.015625)"/>
       </defs>
       <use xlink:href="#DejaVuSans-36"/>
       <use x="63.623047" xlink:href="#DejaVuSans-30"/>
      </g>
     </g>
    </g>
    <g id="ytick_4">
     <g id="line2d_10">
      <g>
       <use style="stroke:#000000;stroke-width:0.8;" x="50.87" xlink:href="#m18b59093cb" y="108.586424"/>
      </g>
     </g>
     <g id="text_11">
      <!-- 80 -->
      <g transform="translate(31.145 112.385643)scale(0.1 -0.1)">
       <defs>
        <path d="M 2034 2216 
Q 1584 2216 1326 1975 
Q 1069 1734 1069 1313 
Q 1069 891 1326 650 
Q 1584 409 2034 409 
Q 2484 409 2743 651 
Q 3003 894 3003 1313 
Q 3003 1734 2745 1975 
Q 2488 2216 2034 2216 
z
M 1403 2484 
Q 997 2584 770 2862 
Q 544 3141 544 3541 
Q 544 4100 942 4425 
Q 1341 4750 2034 4750 
Q 2731 4750 3128 4425 
Q 3525 4100 3525 3541 
Q 3525 3141 3298 2862 
Q 3072 2584 2669 2484 
Q 3125 2378 3379 2068 
Q 3634 1759 3634 1313 
Q 3634 634 3220 271 
Q 2806 -91 2034 -91 
Q 1263 -91 848 271 
Q 434 634 434 1313 
Q 434 1759 690 2068 
Q 947 2378 1403 2484 
z
M 1172 3481 
Q 1172 3119 1398 2916 
Q 1625 2713 2034 2713 
Q 2441 2713 2670 2916 
Q 2900 3119 2900 3481 
Q 2900 3844 2670 4047 
Q 2441 4250 2034 4250 
Q 1625 4250 1398 4047 
Q 1172 3844 1172 3481 
z
" id="DejaVuSans-38" transform="scale(0.015625)"/>
       </defs>
       <use xlink:href="#DejaVuSans-38"/>
       <use x="63.623047" xlink:href="#DejaVuSans-30"/>
      </g>
     </g>
    </g>
    <g id="ytick_5">
     <g id="line2d_11">
      <g>
       <use style="stroke:#000000;stroke-width:0.8;" x="50.87" xlink:href="#m18b59093cb" y="58.147615"/>
      </g>
     </g>
     <g id="text_12">
      <!-- 100 -->
      <g transform="translate(24.7825 61.946834)scale(0.1 -0.1)">
       <use xlink:href="#DejaVuSans-31"/>
       <use x="63.623047" xlink:href="#DejaVuSans-30"/>
       <use x="127.246094" xlink:href="#DejaVuSans-30"/>
      </g>
     </g>
    </g>
    <g id="text_13">
     <!-- Test Accuracy -->
     <g transform="translate(18.702813 210.2725)rotate(-90)scale(0.1 -0.1)">
      <defs>
       <path d="M -19 4666 
L 3928 4666 
L 3928 4134 
L 2272 4134 
L 2272 0 
L 1638 0 
L 1638 4134 
L -19 4134 
L -19 4666 
z
" id="DejaVuSans-54" transform="scale(0.015625)"/>
       <path d="M 3597 1894 
L 3597 1613 
L 953 1613 
Q 991 1019 1311 708 
Q 1631 397 2203 397 
Q 2534 397 2845 478 
Q 3156 559 3463 722 
L 3463 178 
Q 3153 47 2828 -22 
Q 2503 -91 2169 -91 
Q 1331 -91 842 396 
Q 353 884 353 1716 
Q 353 2575 817 3079 
Q 1281 3584 2069 3584 
Q 2775 3584 3186 3129 
Q 3597 2675 3597 1894 
z
M 3022 2063 
Q 3016 2534 2758 2815 
Q 2500 3097 2075 3097 
Q 1594 3097 1305 2825 
Q 1016 2553 972 2059 
L 3022 2063 
z
" id="DejaVuSans-65" transform="scale(0.015625)"/>
       <path d="M 2188 4044 
L 1331 1722 
L 3047 1722 
L 2188 4044 
z
M 1831 4666 
L 2547 4666 
L 4325 0 
L 3669 0 
L 3244 1197 
L 1141 1197 
L 716 0 
L 50 0 
L 1831 4666 
z
" id="DejaVuSans-41" transform="scale(0.015625)"/>
       <path d="M 2631 2963 
Q 2534 3019 2420 3045 
Q 2306 3072 2169 3072 
Q 1681 3072 1420 2755 
Q 1159 2438 1159 1844 
L 1159 0 
L 581 0 
L 581 3500 
L 1159 3500 
L 1159 2956 
Q 1341 3275 1631 3429 
Q 1922 3584 2338 3584 
Q 2397 3584 2469 3576 
Q 2541 3569 2628 3553 
L 2631 2963 
z
" id="DejaVuSans-72" transform="scale(0.015625)"/>
       <path d="M 2059 -325 
Q 1816 -950 1584 -1140 
Q 1353 -1331 966 -1331 
L 506 -1331 
L 506 -850 
L 844 -850 
Q 1081 -850 1212 -737 
Q 1344 -625 1503 -206 
L 1606 56 
L 191 3500 
L 800 3500 
L 1894 763 
L 2988 3500 
L 3597 3500 
L 2059 -325 
z
" id="DejaVuSans-79" transform="scale(0.015625)"/>
      </defs>
      <use xlink:href="#DejaVuSans-54"/>
      <use x="44.083984" xlink:href="#DejaVuSans-65"/>
      <use x="105.607422" xlink:href="#DejaVuSans-73"/>
      <use x="157.707031" xlink:href="#DejaVuSans-74"/>
      <use x="196.916016" xlink:href="#DejaVuSans-20"/>
      <use x="228.703125" xlink:href="#DejaVuSans-41"/>
      <use x="295.361328" xlink:href="#DejaVuSans-63"/>
      <use x="350.341797" xlink:href="#DejaVuSans-63"/>
      <use x="405.322266" xlink:href="#DejaVuSans-75"/>
      <use x="468.701172" xlink:href="#DejaVuSans-72"/>
      <use x="509.814453" xlink:href="#DejaVuSans-61"/>
      <use x="571.09375" xlink:href="#DejaVuSans-63"/>
      <use x="626.074219" xlink:href="#DejaVuSans-79"/>
     </g>
    </g>
   </g>
   <g id="line2d_12">
    <path clip-path="url(#pb100fc72b0)" d="M 69.012273 255.178204 
L 76.417282 189.735445 
L 83.822291 159.152927 
L 91.227301 147.532846 
L 98.63231 119.759578 
L 106.037319 98.243276 
L 113.442328 99.456361 
L 120.847338 97.79635 
L 128.252347 88.027821 
L 135.657356 85.920883 
L 143.062365 84.005486 
L 150.467375 74.811576 
L 157.872384 71.619246 
L 165.277393 70.150775 
L 172.682403 72.960025 
L 180.087412 71.938479 
L 187.492421 67.916144 
L 194.89743 67.213831 
L 202.30244 71.683093 
L 209.707449 70.597701 
L 217.112458 69.129229 
L 224.517468 67.405371 
L 231.922477 65.426127 
L 239.327486 65.809206 
L 246.732495 64.149195 
L 254.137505 67.086138 
L 261.542514 65.298434 
L 268.947523 65.489973 
L 276.352532 63.957655 
L 283.757542 67.405371 
L 291.162551 64.213042 
L 298.56756 64.021502 
L 305.97257 63.893809 
L 313.377579 63.510729 
L 320.782588 63.063803 
L 328.187597 62.55303 
L 335.592607 62.999956 
L 342.997616 63.766115 
L 350.402625 62.808416 
L 357.807635 61.403791 
L 365.212644 61.914564 
L 372.617653 62.489184 
L 380.022662 62.042257 
L 387.427672 61.850718 
L 394.832681 61.914564 
L 402.23769 62.042257 
L 409.642699 61.403791 
L 417.047709 62.616877 
L 424.452718 61.403791 
L 431.857727 61.212252 
" style="fill:none;stroke:#1f77b4;stroke-linecap:square;stroke-width:1.5;"/>
   </g>
   <g id="line2d_13">
    <path clip-path="url(#pb100fc72b0)" d="M 69.012273 281.099921 
L 76.417282 256.327442 
L 83.822291 216.614861 
L 91.227301 223.446447 
L 98.63231 240.62118 
L 106.037319 165.729126 
L 113.442328 188.203127 
L 120.847338 197.205496 
L 128.252347 171.283779 
L 135.657356 139.935102 
L 143.062365 165.537586 
L 150.467375 144.65975 
L 157.872384 125.761158 
L 165.277393 137.572778 
L 172.682403 146.064375 
L 180.087412 146.894381 
L 187.492421 125.378078 
L 194.89743 115.60955 
L 202.30244 118.738033 
L 209.707449 119.376499 
L 217.112458 114.460311 
L 224.517468 121.994209 
L 231.922477 114.332618 
L 239.327486 114.907237 
L 246.732495 108.841811 
L 254.137505 130.421959 
L 261.542514 116.567248 
L 268.947523 92.816316 
L 276.352532 110.118742 
L 283.757542 117.971874 
L 291.162551 134.571988 
L 298.56756 139.679715 
L 305.97257 131.060425 
L 313.377579 122.441135 
L 320.782588 130.613499 
L 328.187597 116.631095 
L 335.592607 114.204924 
L 342.997616 105.713328 
L 350.402625 95.753259 
L 357.807635 96.838651 
L 365.212644 95.17864 
L 372.617653 78.003906 
L 380.022662 89.623986 
L 387.427672 91.730923 
L 394.832681 105.521788 
L 402.23769 95.689412 
L 409.642699 96.008645 
L 417.047709 100.79714 
L 424.452718 86.814736 
L 431.857727 96.902498 
" style="fill:none;stroke:#ff7f0e;stroke-linecap:square;stroke-width:1.5;"/>
   </g>
   <g id="line2d_14">
    <path clip-path="url(#pb100fc72b0)" d="M 69.012273 226.57493 
L 76.417282 222.169515 
L 83.822291 167.70837 
L 91.227301 123.526527 
L 98.63231 118.4188 
L 106.037319 96.647111 
L 113.442328 95.561719 
L 120.847338 92.752469 
L 128.252347 92.560929 
L 135.657356 79.727764 
L 143.062365 77.55698 
L 150.467375 78.003906 
L 157.872384 73.534644 
L 165.277393 69.895388 
L 172.682403 69.448462 
L 180.087412 71.236167 
L 187.492421 69.129229 
L 194.89743 71.874633 
L 202.30244 71.108474 
L 209.707449 69.065383 
L 217.112458 70.023082 
L 224.517468 69.193076 
L 231.922477 69.256922 
L 239.327486 67.660758 
L 246.732495 66.830752 
L 254.137505 67.788451 
L 261.542514 72.768485 
L 268.947523 67.469218 
L 276.352532 65.9369 
L 283.757542 66.703059 
L 291.162551 66.256133 
L 298.56756 66.383826 
L 305.97257 67.149985 
L 313.377579 66.000746 
L 320.782588 66.894598 
L 328.187597 66.894598 
L 335.592607 66.319979 
L 342.997616 66.447672 
L 350.402625 65.234587 
L 357.807635 65.043047 
L 365.212644 65.489973 
L 372.617653 65.809206 
L 380.022662 66.128439 
L 387.427672 66.256133 
L 394.832681 66.575366 
L 402.23769 66.064593 
L 409.642699 65.74536 
L 417.047709 65.234587 
L 424.452718 65.298434 
L 431.857727 64.723814 
" style="fill:none;stroke:#2ca02c;stroke-linecap:square;stroke-width:1.5;"/>
   </g>
   <g id="line2d_15">
    <path clip-path="url(#pb100fc72b0)" d="M 69.012273 257.86008 
L 76.417282 236.731263 
L 83.822291 221.216285 
L 91.227301 210.639267 
L 98.63231 203.54757 
L 106.037319 199.764659 
L 113.442328 194.256742 
L 120.847338 188.890052 
L 128.252347 184.880167 
L 135.657356 181.379714 
L 143.062365 178.378604 
L 150.467375 175.796137 
L 157.872384 172.769809 
L 165.277393 169.940192 
L 172.682403 166.550704 
L 180.087412 163.418454 
L 187.492421 159.554841 
L 194.89743 155.70636 
L 202.30244 152.019283 
L 209.707449 148.55918 
L 217.112458 145.013332 
L 224.517468 142.481304 
L 231.922477 139.873618 
L 239.327486 137.876241 
L 246.732495 135.384564 
L 254.137505 133.059334 
L 261.542514 131.662179 
L 268.947523 129.866558 
L 276.352532 127.934751 
L 283.757542 125.876848 
L 291.162551 124.726843 
L 298.56756 123.627277 
L 305.97257 122.633633 
L 313.377579 121.029678 
L 320.782588 120.908625 
L 328.187597 119.914981 
L 335.592607 119.057521 
L 342.997616 118.139535 
L 350.402625 117.070232 
L 357.807635 116.47001 
L 365.212644 115.249391 
L 372.617653 114.250703 
L 380.022662 113.695876 
L 387.427672 113.191488 
L 394.832681 112.515607 
L 402.23769 111.592577 
L 409.642699 111.340383 
L 417.047709 110.97218 
L 424.452718 110.523275 
L 431.857727 110.094545 
" style="fill:none;stroke:#d62728;stroke-linecap:square;stroke-width:1.5;"/>
   </g>
   <g id="patch_3">
    <path d="M 50.87 303.64 
L 50.87 48.38 
" style="fill:none;stroke:#000000;stroke-linecap:square;stroke-linejoin:miter;stroke-width:0.8;"/>
   </g>
   <g id="patch_4">
    <path d="M 450 303.64 
L 450 48.38 
" style="fill:none;stroke:#000000;stroke-linecap:square;stroke-linejoin:miter;stroke-width:0.8;"/>
   </g>
   <g id="patch_5">
    <path d="M 50.87 303.64 
L 450 303.64 
" style="fill:none;stroke:#000000;stroke-linecap:square;stroke-linejoin:miter;stroke-width:0.8;"/>
   </g>
   <g id="patch_6">
    <path d="M 50.87 48.38 
L 450 48.38 
" style="fill:none;stroke:#000000;stroke-linecap:square;stroke-linejoin:miter;stroke-width:0.8;"/>
   </g>
   <g id="text_14">
    <!-- Local Rounds 25 -->
    <g transform="translate(201.324062 20.88)scale(0.12 -0.12)">
     <defs>
      <path d="M 628 4666 
L 1259 4666 
L 1259 531 
L 3531 531 
L 3531 0 
L 628 0 
L 628 4666 
z
" id="DejaVuSans-4c" transform="scale(0.015625)"/>
     </defs>
     <use xlink:href="#DejaVuSans-4c"/>
     <use x="53.962891" xlink:href="#DejaVuSans-6f"/>
     <use x="115.144531" xlink:href="#DejaVuSans-63"/>
     <use x="170.125" xlink:href="#DejaVuSans-61"/>
     <use x="231.404297" xlink:href="#DejaVuSans-6c"/>
     <use x="259.1875" xlink:href="#DejaVuSans-20"/>
     <use x="290.974609" xlink:href="#DejaVuSans-52"/>
     <use x="355.957031" xlink:href="#DejaVuSans-6f"/>
     <use x="417.138672" xlink:href="#DejaVuSans-75"/>
     <use x="480.517578" xlink:href="#DejaVuSans-6e"/>
     <use x="543.896484" xlink:href="#DejaVuSans-64"/>
     <use x="607.373047" xlink:href="#DejaVuSans-73"/>
     <use x="659.472656" xlink:href="#DejaVuSans-20"/>
     <use x="691.259766" xlink:href="#DejaVuSans-32"/>
     <use x="754.882812" xlink:href="#DejaVuSans-35"/>
    </g>
   </g>
   <g id="legend_1">
    <g id="patch_7">
     <path d="M 84.036563 45.532125 
L 416.833438 45.532125 
Q 418.833438 45.532125 418.833438 43.532125 
L 418.833438 29.854 
Q 418.833438 27.854 416.833438 27.854 
L 84.036563 27.854 
Q 82.036563 27.854 82.036563 29.854 
L 82.036563 43.532125 
Q 82.036563 45.532125 84.036563 45.532125 
z
" style="fill:#ffffff;opacity:0.8;stroke:#cccccc;stroke-linejoin:miter;"/>
    </g>
    <g id="line2d_16">
     <path d="M 86.036563 35.952438 
L 106.036563 35.952438 
" style="fill:none;stroke:#1f77b4;stroke-linecap:square;stroke-width:1.5;"/>
    </g>
    <g id="line2d_17"/>
    <g id="text_15">
     <!-- FedAvg -->
     <g transform="translate(114.036563 39.452438)scale(0.1 -0.1)">
      <defs>
       <path d="M 628 4666 
L 3309 4666 
L 3309 4134 
L 1259 4134 
L 1259 2759 
L 3109 2759 
L 3109 2228 
L 1259 2228 
L 1259 0 
L 628 0 
L 628 4666 
z
" id="DejaVuSans-46" transform="scale(0.015625)"/>
       <path d="M 191 3500 
L 800 3500 
L 1894 563 
L 2988 3500 
L 3597 3500 
L 2284 0 
L 1503 0 
L 191 3500 
z
" id="DejaVuSans-76" transform="scale(0.015625)"/>
       <path d="M 2906 1791 
Q 2906 2416 2648 2759 
Q 2391 3103 1925 3103 
Q 1463 3103 1205 2759 
Q 947 2416 947 1791 
Q 947 1169 1205 825 
Q 1463 481 1925 481 
Q 2391 481 2648 825 
Q 2906 1169 2906 1791 
z
M 3481 434 
Q 3481 -459 3084 -895 
Q 2688 -1331 1869 -1331 
Q 1566 -1331 1297 -1286 
Q 1028 -1241 775 -1147 
L 775 -588 
Q 1028 -725 1275 -790 
Q 1522 -856 1778 -856 
Q 2344 -856 2625 -561 
Q 2906 -266 2906 331 
L 2906 616 
Q 2728 306 2450 153 
Q 2172 0 1784 0 
Q 1141 0 747 490 
Q 353 981 353 1791 
Q 353 2603 747 3093 
Q 1141 3584 1784 3584 
Q 2172 3584 2450 3431 
Q 2728 3278 2906 2969 
L 2906 3500 
L 3481 3500 
L 3481 434 
z
" id="DejaVuSans-67" transform="scale(0.015625)"/>
      </defs>
      <use xlink:href="#DejaVuSans-46"/>
      <use x="52.019531" xlink:href="#DejaVuSans-65"/>
      <use x="113.542969" xlink:href="#DejaVuSans-64"/>
      <use x="177.019531" xlink:href="#DejaVuSans-41"/>
      <use x="239.552734" xlink:href="#DejaVuSans-76"/>
      <use x="298.732422" xlink:href="#DejaVuSans-67"/>
     </g>
    </g>
    <g id="line2d_18">
     <path d="M 170.26 35.952438 
L 190.26 35.952438 
" style="fill:none;stroke:#ff7f0e;stroke-linecap:square;stroke-width:1.5;"/>
    </g>
    <g id="line2d_19"/>
    <g id="text_16">
     <!-- FedMed -->
     <g transform="translate(198.26 39.452438)scale(0.1 -0.1)">
      <defs>
       <path d="M 628 4666 
L 1569 4666 
L 2759 1491 
L 3956 4666 
L 4897 4666 
L 4897 0 
L 4281 0 
L 4281 4097 
L 3078 897 
L 2444 897 
L 1241 4097 
L 1241 0 
L 628 0 
L 628 4666 
z
" id="DejaVuSans-4d" transform="scale(0.015625)"/>
      </defs>
      <use xlink:href="#DejaVuSans-46"/>
      <use x="52.019531" xlink:href="#DejaVuSans-65"/>
      <use x="113.542969" xlink:href="#DejaVuSans-64"/>
      <use x="177.019531" xlink:href="#DejaVuSans-4d"/>
      <use x="263.298828" xlink:href="#DejaVuSans-65"/>
      <use x="324.822266" xlink:href="#DejaVuSans-64"/>
     </g>
    </g>
    <g id="line2d_20">
     <path d="M 257.092813 35.952438 
L 277.092813 35.952438 
" style="fill:none;stroke:#2ca02c;stroke-linecap:square;stroke-width:1.5;"/>
    </g>
    <g id="line2d_21"/>
    <g id="text_17">
     <!-- FedProx -->
     <g transform="translate(285.092813 39.452438)scale(0.1 -0.1)">
      <defs>
       <path d="M 1259 4147 
L 1259 2394 
L 2053 2394 
Q 2494 2394 2734 2622 
Q 2975 2850 2975 3272 
Q 2975 3691 2734 3919 
Q 2494 4147 2053 4147 
L 1259 4147 
z
M 628 4666 
L 2053 4666 
Q 2838 4666 3239 4311 
Q 3641 3956 3641 3272 
Q 3641 2581 3239 2228 
Q 2838 1875 2053 1875 
L 1259 1875 
L 1259 0 
L 628 0 
L 628 4666 
z
" id="DejaVuSans-50" transform="scale(0.015625)"/>
       <path d="M 3513 3500 
L 2247 1797 
L 3578 0 
L 2900 0 
L 1881 1375 
L 863 0 
L 184 0 
L 1544 1831 
L 300 3500 
L 978 3500 
L 1906 2253 
L 2834 3500 
L 3513 3500 
z
" id="DejaVuSans-78" transform="scale(0.015625)"/>
      </defs>
      <use xlink:href="#DejaVuSans-46"/>
      <use x="52.019531" xlink:href="#DejaVuSans-65"/>
      <use x="113.542969" xlink:href="#DejaVuSans-64"/>
      <use x="177.019531" xlink:href="#DejaVuSans-50"/>
      <use x="235.572266" xlink:href="#DejaVuSans-72"/>
      <use x="274.435547" xlink:href="#DejaVuSans-6f"/>
      <use x="332.492188" xlink:href="#DejaVuSans-78"/>
     </g>
    </g>
    <g id="line2d_22">
     <path d="M 344.261563 35.952438 
L 364.261563 35.952438 
" style="fill:none;stroke:#d62728;stroke-linecap:square;stroke-width:1.5;"/>
    </g>
    <g id="line2d_23"/>
    <g id="text_18">
     <!-- qFedAvg -->
     <g transform="translate(372.261563 39.452438)scale(0.1 -0.1)">
      <defs>
       <path d="M 947 1747 
Q 947 1113 1208 752 
Q 1469 391 1925 391 
Q 2381 391 2643 752 
Q 2906 1113 2906 1747 
Q 2906 2381 2643 2742 
Q 2381 3103 1925 3103 
Q 1469 3103 1208 2742 
Q 947 2381 947 1747 
z
M 2906 525 
Q 2725 213 2448 61 
Q 2172 -91 1784 -91 
Q 1150 -91 751 415 
Q 353 922 353 1747 
Q 353 2572 751 3078 
Q 1150 3584 1784 3584 
Q 2172 3584 2448 3432 
Q 2725 3281 2906 2969 
L 2906 3500 
L 3481 3500 
L 3481 -1331 
L 2906 -1331 
L 2906 525 
z
" id="DejaVuSans-71" transform="scale(0.015625)"/>
      </defs>
      <use xlink:href="#DejaVuSans-71"/>
      <use x="63.476562" xlink:href="#DejaVuSans-46"/>
      <use x="115.496094" xlink:href="#DejaVuSans-65"/>
      <use x="177.019531" xlink:href="#DejaVuSans-64"/>
      <use x="240.496094" xlink:href="#DejaVuSans-41"/>
      <use x="303.029297" xlink:href="#DejaVuSans-76"/>
      <use x="362.208984" xlink:href="#DejaVuSans-67"/>
     </g>
    </g>
   </g>
  </g>
 </g>
 <defs>
  <clipPath id="pb100fc72b0">
   <rect height="255.26" width="399.13" x="50.87" y="48.38"/>
  </clipPath>
 </defs>
</svg>
