<?xml version="1.0" encoding="utf-8" standalone="no"?>
<!DOCTYPE svg PUBLIC "-//W3C//DTD SVG 1.1//EN"
  "http://www.w3.org/Graphics/SVG/1.1/DTD/svg11.dtd">
<svg height="345.6pt" version="1.1" viewBox="0 0 460.8 345.6" width="460.8pt" xmlns="http://www.w3.org/2000/svg" xmlns:xlink="http://www.w3.org/1999/xlink">
 <metadata>
  <rdf:RDF xmlns:cc="http://creativecommons.org/ns#" xmlns:dc="http://purl.org/dc/elements/1.1/" xmlns:rdf="http://www.w3.org/1999/02/22-rdf-syntax-ns#">
   <cc:Work>
    <dc:type rdf:resource="http://purl.org/dc/dcmitype/StillImage"/>
    <dc:date>2021-05-07T18:58:18.700019</dc:date>
    <dc:format>image/svg+xml</dc:format>
    <dc:creator>
     <cc:Agent>
      <dc:title>Matplotlib v3.4.1, https://matplotlib.org/</dc:title>
     </cc:Agent>
    </dc:creator>
   </cc:Work>
  </rdf:RDF>
 </metadata>
 <defs>
  <style type="text/css">*{stroke-linecap:butt;stroke-linejoin:round;}</style>
 </defs>
 <g id="figure_1">
  <g id="patch_1">
   <path d="M 0 345.6 
L 460.8 345.6 
L 460.8 0 
L 0 0 
z
" style="fill:#ffffff;"/>
  </g>
  <g id="axes_1">
   <g id="patch_2">
    <path d="M 44.57 303.64 
L 450 303.64 
L 450 32.876829 
L 44.57 32.876829 
z
" style="fill:#ffffff;"/>
   </g>
   <g id="PolyCollection_1">
    <path clip-path="url(#p6c77010704)" d="M 62.998636 219.218479 
L 62.998636 250.290206 
L 70.520529 236.337981 
L 78.042421 192.292188 
L 85.564314 155.929688 
L 93.086206 156.932038 
L 100.608098 118.376122 
L 108.129991 129.986437 
L 115.651883 112.311005 
L 123.173776 94.335048 
L 130.695668 80.198703 
L 138.21756 92.533263 
L 145.739453 74.034538 
L 153.261345 79.948177 
L 160.783237 73.116579 
L 168.30513 72.487221 
L 175.827022 74.840939 
L 183.348915 70.767044 
L 190.870807 64.245404 
L 198.392699 65.096321 
L 205.914592 69.126812 
L 213.436484 75.935727 
L 220.958377 80.735687 
L 228.480269 64.462738 
L 236.002161 67.47293 
L 243.524054 69.141682 
L 251.045946 69.725864 
L 258.567839 70.169565 
L 266.089731 66.564074 
L 273.611623 59.816883 
L 281.133516 65.033402 
L 288.655408 68.452026 
L 296.177301 57.165828 
L 303.699193 59.245254 
L 311.221085 57.861473 
L 318.742978 52.431425 
L 326.26487 57.660739 
L 333.786763 57.071008 
L 341.308655 53.824942 
L 348.830547 54.901342 
L 356.35244 56.794301 
L 363.874332 53.323697 
L 371.396224 61.845275 
L 378.918117 61.032818 
L 386.440009 52.06422 
L 393.961902 55.883069 
L 401.483794 51.888257 
L 409.005686 56.62632 
L 416.527579 54.302643 
L 424.049471 52.815003 
L 431.571364 60.47603 
L 431.571364 47.505116 
L 431.571364 47.505116 
L 424.049471 45.777753 
L 416.527579 45.184246 
L 409.005686 47.033187 
L 401.483794 45.661345 
L 393.961902 45.392085 
L 386.440009 46.975602 
L 378.918117 50.822903 
L 371.396224 49.116313 
L 363.874332 47.355368 
L 356.35244 48.802493 
L 348.830547 50.546429 
L 341.308655 48.493366 
L 333.786763 49.419918 
L 326.26487 47.190944 
L 318.742978 46.459376 
L 311.221085 47.288255 
L 303.699193 46.649583 
L 296.177301 50.815319 
L 288.655408 50.854798 
L 281.133516 54.422444 
L 273.611623 54.42319 
L 266.089731 53.338838 
L 258.567839 52.564766 
L 251.045946 55.690865 
L 243.524054 49.420031 
L 236.002161 52.728026 
L 228.480269 58.271593 
L 220.958377 62.861734 
L 213.436484 56.634061 
L 205.914592 57.482093 
L 198.392699 55.849745 
L 190.870807 56.253596 
L 183.348915 58.673281 
L 175.827022 62.199511 
L 168.30513 60.380611 
L 160.783237 61.241474 
L 153.261345 59.923692 
L 145.739453 62.85689 
L 138.21756 67.307563 
L 130.695668 67.571336 
L 123.173776 76.831456 
L 115.651883 75.247926 
L 108.129991 83.651356 
L 100.608098 83.041861 
L 93.086206 95.153448 
L 85.564314 124.768036 
L 78.042421 160.681239 
L 70.520529 187.867995 
L 62.998636 219.218479 
z
" style="fill:#1f77b4;fill-opacity:0.5;"/>
   </g>
   <g id="PolyCollection_2">
    <path clip-path="url(#p6c77010704)" d="M 62.998636 233.815586 
L 62.998636 284.870381 
L 70.520529 291.332583 
L 78.042421 282.101825 
L 85.564314 251.921047 
L 93.086206 291.059738 
L 100.608098 250.653862 
L 108.129991 251.164716 
L 115.651883 252.088061 
L 123.173776 256.518059 
L 130.695668 202.965042 
L 138.21756 235.320742 
L 145.739453 192.804937 
L 153.261345 240.666792 
L 160.783237 173.430745 
L 168.30513 202.813852 
L 175.827022 160.367645 
L 183.348915 163.86745 
L 190.870807 177.265231 
L 198.392699 153.497831 
L 205.914592 227.556159 
L 213.436484 219.164165 
L 220.958377 185.754141 
L 228.480269 179.771013 
L 236.002161 155.586116 
L 243.524054 146.647144 
L 251.045946 164.239372 
L 258.567839 159.976348 
L 266.089731 183.071745 
L 273.611623 150.31236 
L 281.133516 177.68645 
L 288.655408 137.59534 
L 296.177301 139.086939 
L 303.699193 156.665726 
L 311.221085 147.484084 
L 318.742978 145.533325 
L 326.26487 148.105769 
L 333.786763 149.853785 
L 341.308655 134.621347 
L 348.830547 160.812685 
L 356.35244 129.310265 
L 363.874332 128.806869 
L 371.396224 181.988427 
L 378.918117 173.613232 
L 386.440009 137.264378 
L 393.961902 139.169936 
L 401.483794 121.785799 
L 409.005686 132.51357 
L 416.527579 201.375926 
L 424.049471 190.072721 
L 431.571364 156.023891 
L 431.571364 116.328597 
L 431.571364 116.328597 
L 424.049471 91.221091 
L 416.527579 82.749305 
L 409.005686 109.140372 
L 401.483794 113.311172 
L 393.961902 121.558831 
L 386.440009 120.185903 
L 378.918117 124.818118 
L 371.396224 100.34854 
L 363.874332 109.568587 
L 356.35244 109.065191 
L 348.830547 121.971348 
L 341.308655 118.805338 
L 333.786763 115.196621 
L 326.26487 119.478013 
L 318.742978 110.277714 
L 311.221085 105.793579 
L 303.699193 103.914019 
L 296.177301 113.445614 
L 288.655408 117.917654 
L 281.133516 116.721305 
L 273.611623 118.314577 
L 266.089731 131.006923 
L 258.567839 136.368693 
L 251.045946 122.12119 
L 243.524054 126.15241 
L 236.002161 106.036783 
L 228.480269 128.19775 
L 220.958377 121.618533 
L 213.436484 139.919167 
L 205.914592 124.374114 
L 198.392699 137.929482 
L 190.870807 136.515392 
L 183.348915 139.332606 
L 175.827022 127.781183 
L 168.30513 137.045633 
L 160.783237 140.647922 
L 153.261345 150.158241 
L 145.739453 120.379598 
L 138.21756 137.174577 
L 130.695668 152.392739 
L 123.173776 149.656247 
L 115.651883 135.607508 
L 108.129991 136.679876 
L 100.608098 131.527891 
L 93.086206 200.951279 
L 85.564314 165.280892 
L 78.042421 261.023761 
L 70.520529 215.431619 
L 62.998636 233.815586 
z
" style="fill:#ff7f0e;fill-opacity:0.5;"/>
   </g>
   <g id="PolyCollection_3">
    <path clip-path="url(#p6c77010704)" d="M 62.998636 211.17907 
L 62.998636 258.925703 
L 70.520529 222.304035 
L 78.042421 171.150764 
L 85.564314 153.508419 
L 93.086206 134.492379 
L 100.608098 137.064022 
L 108.129991 109.486938 
L 115.651883 107.325153 
L 123.173776 106.881288 
L 130.695668 107.974173 
L 138.21756 113.234663 
L 145.739453 79.838316 
L 153.261345 95.162044 
L 160.783237 89.974269 
L 168.30513 76.303177 
L 175.827022 89.5622 
L 183.348915 75.203042 
L 190.870807 81.206034 
L 198.392699 72.277564 
L 205.914592 73.387839 
L 213.436484 68.154684 
L 220.958377 79.615233 
L 228.480269 68.575117 
L 236.002161 67.013633 
L 243.524054 66.400485 
L 251.045946 65.058337 
L 258.567839 65.629784 
L 266.089731 67.002796 
L 273.611623 66.624052 
L 281.133516 65.261117 
L 288.655408 73.055424 
L 296.177301 68.550288 
L 303.699193 69.626927 
L 311.221085 65.882144 
L 318.742978 65.956453 
L 326.26487 64.647384 
L 333.786763 64.575582 
L 341.308655 65.507311 
L 348.830547 64.99205 
L 356.35244 67.06551 
L 363.874332 64.515949 
L 371.396224 66.433274 
L 378.918117 65.902633 
L 386.440009 64.281527 
L 393.961902 64.69497 
L 401.483794 64.841452 
L 409.005686 64.351188 
L 416.527579 64.285037 
L 424.049471 64.409895 
L 431.571364 65.639782 
L 431.571364 46.663005 
L 431.571364 46.663005 
L 424.049471 46.253649 
L 416.527579 48.464816 
L 409.005686 48.84573 
L 401.483794 48.653511 
L 393.961902 47.309772 
L 386.440009 48.468326 
L 378.918117 55.043433 
L 371.396224 49.147998 
L 363.874332 48.979014 
L 356.35244 53.582512 
L 348.830547 49.099002 
L 341.308655 51.862226 
L 333.786763 48.323293 
L 326.26487 51.828021 
L 318.742978 53.201348 
L 311.221085 55.063922 
L 303.699193 49.381853 
L 296.177301 59.101772 
L 288.655408 51.914239 
L 281.133516 50.916243 
L 273.611623 58.345611 
L 266.089731 60.500241 
L 258.567839 58.445746 
L 251.045946 53.950443 
L 243.524054 60.95353 
L 236.002161 58.552118 
L 228.480269 59.822053 
L 220.958377 58.617394 
L 213.436484 57.858133 
L 205.914592 55.158353 
L 198.392699 59.845157 
L 190.870807 64.179651 
L 183.348915 61.092297 
L 175.827022 66.851119 
L 168.30513 66.251089 
L 160.783237 56.454571 
L 153.261345 63.188561 
L 145.739453 63.013995 
L 138.21756 77.006665 
L 130.695668 80.627913 
L 123.173776 70.246098 
L 115.651883 85.598573 
L 108.129991 101.766502 
L 100.608098 98.629037 
L 93.086206 92.110335 
L 85.564314 117.800915 
L 78.042421 127.429609 
L 70.520529 190.427242 
L 62.998636 211.17907 
z
" style="fill:#2ca02c;fill-opacity:0.5;"/>
   </g>
   <g id="PolyCollection_4">
    <path clip-path="url(#p6c77010704)" d="M 62.998636 215.353797 
L 62.998636 271.198244 
L 70.520529 259.311334 
L 78.042421 239.348864 
L 85.564314 222.937983 
L 93.086206 210.870462 
L 100.608098 203.855215 
L 108.129991 196.825789 
L 115.651883 191.491507 
L 123.173776 186.66282 
L 130.695668 181.414418 
L 138.21756 176.966371 
L 145.739453 172.472866 
L 153.261345 166.260437 
L 160.783237 159.476046 
L 168.30513 156.302701 
L 175.827022 154.344616 
L 183.348915 150.95245 
L 190.870807 147.016974 
L 198.392699 141.986638 
L 205.914592 139.323238 
L 213.436484 138.412512 
L 220.958377 138.593524 
L 228.480269 135.208521 
L 236.002161 134.658501 
L 243.524054 134.057218 
L 251.045946 130.921818 
L 258.567839 129.488305 
L 266.089731 129.284024 
L 273.611623 127.920813 
L 281.133516 126.165476 
L 288.655408 124.282391 
L 296.177301 124.737481 
L 303.699193 124.485644 
L 311.221085 124.289909 
L 318.742978 122.740201 
L 326.26487 122.9402 
L 333.786763 121.044924 
L 341.308655 121.858615 
L 348.830547 120.446947 
L 356.35244 119.686006 
L 363.874332 118.343974 
L 371.396224 117.021679 
L 378.918117 117.582684 
L 386.440009 118.660803 
L 393.961902 117.880934 
L 401.483794 117.56106 
L 409.005686 116.162037 
L 416.527579 115.575339 
L 424.049471 116.512559 
L 431.571364 116.276273 
L 431.571364 96.429983 
L 431.571364 96.429983 
L 424.049471 96.33497 
L 416.527579 96.047825 
L 409.005686 97.250584 
L 401.483794 97.782291 
L 393.961902 98.251191 
L 386.440009 97.730322 
L 378.918117 97.51344 
L 371.396224 97.780125 
L 363.874332 98.47097 
L 356.35244 98.588757 
L 348.830547 99.746774 
L 341.308655 100.065699 
L 333.786763 99.89048 
L 326.26487 101.020799 
L 318.742978 101.57398 
L 311.221085 101.707774 
L 303.699193 101.782813 
L 296.177301 102.284431 
L 288.655408 102.103793 
L 281.133516 102.904894 
L 273.611623 103.680697 
L 266.089731 104.177579 
L 258.567839 104.455981 
L 251.045946 105.012061 
L 243.524054 105.43203 
L 236.002161 105.183929 
L 228.480269 106.01132 
L 220.958377 107.382505 
L 213.436484 108.057973 
L 205.914592 109.054431 
L 198.392699 109.145853 
L 190.870807 110.190252 
L 183.348915 110.681328 
L 175.827022 111.127076 
L 168.30513 112.535995 
L 160.783237 114.16593 
L 153.261345 115.740187 
L 145.739453 116.53254 
L 138.21756 118.302135 
L 130.695668 119.799323 
L 123.173776 121.826477 
L 115.651883 123.790663 
L 108.129991 126.308801 
L 100.608098 133.006393 
L 93.086206 142.037395 
L 85.564314 159.931507 
L 78.042421 180.463494 
L 70.520529 197.90303 
L 62.998636 215.353797 
z
" style="fill:#d62728;fill-opacity:0.5;"/>
   </g>
   <g id="matplotlib.axis_1">
    <g id="xtick_1">
     <g id="line2d_1">
      <defs>
       <path d="M 0 0 
L 0 3.5 
" id="md0abee40ad" style="stroke:#000000;stroke-width:0.8;"/>
      </defs>
      <g>
       <use style="stroke:#000000;stroke-width:0.8;" x="62.998636" xlink:href="#md0abee40ad" y="303.64"/>
      </g>
     </g>
     <g id="text_1">
      <!-- 0 -->
      <g transform="translate(59.817386 318.238437)scale(0.1 -0.1)">
       <defs>
        <path d="M 2034 4250 
Q 1547 4250 1301 3770 
Q 1056 3291 1056 2328 
Q 1056 1369 1301 889 
Q 1547 409 2034 409 
Q 2525 409 2770 889 
Q 3016 1369 3016 2328 
Q 3016 3291 2770 3770 
Q 2525 4250 2034 4250 
z
M 2034 4750 
Q 2819 4750 3233 4129 
Q 3647 3509 3647 2328 
Q 3647 1150 3233 529 
Q 2819 -91 2034 -91 
Q 1250 -91 836 529 
Q 422 1150 422 2328 
Q 422 3509 836 4129 
Q 1250 4750 2034 4750 
z
" id="DejaVuSans-30" transform="scale(0.015625)"/>
       </defs>
       <use xlink:href="#DejaVuSans-30"/>
      </g>
     </g>
    </g>
    <g id="xtick_2">
     <g id="line2d_2">
      <g>
       <use style="stroke:#000000;stroke-width:0.8;" x="138.21756" xlink:href="#md0abee40ad" y="303.64"/>
      </g>
     </g>
     <g id="text_2">
      <!-- 10 -->
      <g transform="translate(131.85506 318.238437)scale(0.1 -0.1)">
       <defs>
        <path d="M 794 531 
L 1825 531 
L 1825 4091 
L 703 3866 
L 703 4441 
L 1819 4666 
L 2450 4666 
L 2450 531 
L 3481 531 
L 3481 0 
L 794 0 
L 794 531 
z
" id="DejaVuSans-31" transform="scale(0.015625)"/>
       </defs>
       <use xlink:href="#DejaVuSans-31"/>
       <use x="63.623047" xlink:href="#DejaVuSans-30"/>
      </g>
     </g>
    </g>
    <g id="xtick_3">
     <g id="line2d_3">
      <g>
       <use style="stroke:#000000;stroke-width:0.8;" x="213.436484" xlink:href="#md0abee40ad" y="303.64"/>
      </g>
     </g>
     <g id="text_3">
      <!-- 20 -->
      <g transform="translate(207.073984 318.238437)scale(0.1 -0.1)">
       <defs>
        <path d="M 1228 531 
L 3431 531 
L 3431 0 
L 469 0 
L 469 531 
Q 828 903 1448 1529 
Q 2069 2156 2228 2338 
Q 2531 2678 2651 2914 
Q 2772 3150 2772 3378 
Q 2772 3750 2511 3984 
Q 2250 4219 1831 4219 
Q 1534 4219 1204 4116 
Q 875 4013 500 3803 
L 500 4441 
Q 881 4594 1212 4672 
Q 1544 4750 1819 4750 
Q 2544 4750 2975 4387 
Q 3406 4025 3406 3419 
Q 3406 3131 3298 2873 
Q 3191 2616 2906 2266 
Q 2828 2175 2409 1742 
Q 1991 1309 1228 531 
z
" id="DejaVuSans-32" transform="scale(0.015625)"/>
       </defs>
       <use xlink:href="#DejaVuSans-32"/>
       <use x="63.623047" xlink:href="#DejaVuSans-30"/>
      </g>
     </g>
    </g>
    <g id="xtick_4">
     <g id="line2d_4">
      <g>
       <use style="stroke:#000000;stroke-width:0.8;" x="288.655408" xlink:href="#md0abee40ad" y="303.64"/>
      </g>
     </g>
     <g id="text_4">
      <!-- 30 -->
      <g transform="translate(282.292908 318.238437)scale(0.1 -0.1)">
       <defs>
        <path d="M 2597 2516 
Q 3050 2419 3304 2112 
Q 3559 1806 3559 1356 
Q 3559 666 3084 287 
Q 2609 -91 1734 -91 
Q 1441 -91 1130 -33 
Q 819 25 488 141 
L 488 750 
Q 750 597 1062 519 
Q 1375 441 1716 441 
Q 2309 441 2620 675 
Q 2931 909 2931 1356 
Q 2931 1769 2642 2001 
Q 2353 2234 1838 2234 
L 1294 2234 
L 1294 2753 
L 1863 2753 
Q 2328 2753 2575 2939 
Q 2822 3125 2822 3475 
Q 2822 3834 2567 4026 
Q 2313 4219 1838 4219 
Q 1578 4219 1281 4162 
Q 984 4106 628 3988 
L 628 4550 
Q 988 4650 1302 4700 
Q 1616 4750 1894 4750 
Q 2613 4750 3031 4423 
Q 3450 4097 3450 3541 
Q 3450 3153 3228 2886 
Q 3006 2619 2597 2516 
z
" id="DejaVuSans-33" transform="scale(0.015625)"/>
       </defs>
       <use xlink:href="#DejaVuSans-33"/>
       <use x="63.623047" xlink:href="#DejaVuSans-30"/>
      </g>
     </g>
    </g>
    <g id="xtick_5">
     <g id="line2d_5">
      <g>
       <use style="stroke:#000000;stroke-width:0.8;" x="363.874332" xlink:href="#md0abee40ad" y="303.64"/>
      </g>
     </g>
     <g id="text_5">
      <!-- 40 -->
      <g transform="translate(357.511832 318.238437)scale(0.1 -0.1)">
       <defs>
        <path d="M 2419 4116 
L 825 1625 
L 2419 1625 
L 2419 4116 
z
M 2253 4666 
L 3047 4666 
L 3047 1625 
L 3713 1625 
L 3713 1100 
L 3047 1100 
L 3047 0 
L 2419 0 
L 2419 1100 
L 313 1100 
L 313 1709 
L 2253 4666 
z
" id="DejaVuSans-34" transform="scale(0.015625)"/>
       </defs>
       <use xlink:href="#DejaVuSans-34"/>
       <use x="63.623047" xlink:href="#DejaVuSans-30"/>
      </g>
     </g>
    </g>
    <g id="xtick_6">
     <g id="line2d_6">
      <g>
       <use style="stroke:#000000;stroke-width:0.8;" x="439.093256" xlink:href="#md0abee40ad" y="303.64"/>
      </g>
     </g>
     <g id="text_6">
      <!-- 50 -->
      <g transform="translate(432.730756 318.238437)scale(0.1 -0.1)">
       <defs>
        <path d="M 691 4666 
L 3169 4666 
L 3169 4134 
L 1269 4134 
L 1269 2991 
Q 1406 3038 1543 3061 
Q 1681 3084 1819 3084 
Q 2600 3084 3056 2656 
Q 3513 2228 3513 1497 
Q 3513 744 3044 326 
Q 2575 -91 1722 -91 
Q 1428 -91 1123 -41 
Q 819 9 494 109 
L 494 744 
Q 775 591 1075 516 
Q 1375 441 1709 441 
Q 2250 441 2565 725 
Q 2881 1009 2881 1497 
Q 2881 1984 2565 2268 
Q 2250 2553 1709 2553 
Q 1456 2553 1204 2497 
Q 953 2441 691 2322 
L 691 4666 
z
" id="DejaVuSans-35" transform="scale(0.015625)"/>
       </defs>
       <use xlink:href="#DejaVuSans-35"/>
       <use x="63.623047" xlink:href="#DejaVuSans-30"/>
      </g>
     </g>
    </g>
    <g id="text_7">
     <!-- Global Communication Rounds -->
     <g transform="translate(170.323281 331.916562)scale(0.1 -0.1)">
      <defs>
       <path d="M 3809 666 
L 3809 1919 
L 2778 1919 
L 2778 2438 
L 4434 2438 
L 4434 434 
Q 4069 175 3628 42 
Q 3188 -91 2688 -91 
Q 1594 -91 976 548 
Q 359 1188 359 2328 
Q 359 3472 976 4111 
Q 1594 4750 2688 4750 
Q 3144 4750 3555 4637 
Q 3966 4525 4313 4306 
L 4313 3634 
Q 3963 3931 3569 4081 
Q 3175 4231 2741 4231 
Q 1884 4231 1454 3753 
Q 1025 3275 1025 2328 
Q 1025 1384 1454 906 
Q 1884 428 2741 428 
Q 3075 428 3337 486 
Q 3600 544 3809 666 
z
" id="DejaVuSans-47" transform="scale(0.015625)"/>
       <path d="M 603 4863 
L 1178 4863 
L 1178 0 
L 603 0 
L 603 4863 
z
" id="DejaVuSans-6c" transform="scale(0.015625)"/>
       <path d="M 1959 3097 
Q 1497 3097 1228 2736 
Q 959 2375 959 1747 
Q 959 1119 1226 758 
Q 1494 397 1959 397 
Q 2419 397 2687 759 
Q 2956 1122 2956 1747 
Q 2956 2369 2687 2733 
Q 2419 3097 1959 3097 
z
M 1959 3584 
Q 2709 3584 3137 3096 
Q 3566 2609 3566 1747 
Q 3566 888 3137 398 
Q 2709 -91 1959 -91 
Q 1206 -91 779 398 
Q 353 888 353 1747 
Q 353 2609 779 3096 
Q 1206 3584 1959 3584 
z
" id="DejaVuSans-6f" transform="scale(0.015625)"/>
       <path d="M 3116 1747 
Q 3116 2381 2855 2742 
Q 2594 3103 2138 3103 
Q 1681 3103 1420 2742 
Q 1159 2381 1159 1747 
Q 1159 1113 1420 752 
Q 1681 391 2138 391 
Q 2594 391 2855 752 
Q 3116 1113 3116 1747 
z
M 1159 2969 
Q 1341 3281 1617 3432 
Q 1894 3584 2278 3584 
Q 2916 3584 3314 3078 
Q 3713 2572 3713 1747 
Q 3713 922 3314 415 
Q 2916 -91 2278 -91 
Q 1894 -91 1617 61 
Q 1341 213 1159 525 
L 1159 0 
L 581 0 
L 581 4863 
L 1159 4863 
L 1159 2969 
z
" id="DejaVuSans-62" transform="scale(0.015625)"/>
       <path d="M 2194 1759 
Q 1497 1759 1228 1600 
Q 959 1441 959 1056 
Q 959 750 1161 570 
Q 1363 391 1709 391 
Q 2188 391 2477 730 
Q 2766 1069 2766 1631 
L 2766 1759 
L 2194 1759 
z
M 3341 1997 
L 3341 0 
L 2766 0 
L 2766 531 
Q 2569 213 2275 61 
Q 1981 -91 1556 -91 
Q 1019 -91 701 211 
Q 384 513 384 1019 
Q 384 1609 779 1909 
Q 1175 2209 1959 2209 
L 2766 2209 
L 2766 2266 
Q 2766 2663 2505 2880 
Q 2244 3097 1772 3097 
Q 1472 3097 1187 3025 
Q 903 2953 641 2809 
L 641 3341 
Q 956 3463 1253 3523 
Q 1550 3584 1831 3584 
Q 2591 3584 2966 3190 
Q 3341 2797 3341 1997 
z
" id="DejaVuSans-61" transform="scale(0.015625)"/>
       <path id="DejaVuSans-20" transform="scale(0.015625)"/>
       <path d="M 4122 4306 
L 4122 3641 
Q 3803 3938 3442 4084 
Q 3081 4231 2675 4231 
Q 1875 4231 1450 3742 
Q 1025 3253 1025 2328 
Q 1025 1406 1450 917 
Q 1875 428 2675 428 
Q 3081 428 3442 575 
Q 3803 722 4122 1019 
L 4122 359 
Q 3791 134 3420 21 
Q 3050 -91 2638 -91 
Q 1578 -91 968 557 
Q 359 1206 359 2328 
Q 359 3453 968 4101 
Q 1578 4750 2638 4750 
Q 3056 4750 3426 4639 
Q 3797 4528 4122 4306 
z
" id="DejaVuSans-43" transform="scale(0.015625)"/>
       <path d="M 3328 2828 
Q 3544 3216 3844 3400 
Q 4144 3584 4550 3584 
Q 5097 3584 5394 3201 
Q 5691 2819 5691 2113 
L 5691 0 
L 5113 0 
L 5113 2094 
Q 5113 2597 4934 2840 
Q 4756 3084 4391 3084 
Q 3944 3084 3684 2787 
Q 3425 2491 3425 1978 
L 3425 0 
L 2847 0 
L 2847 2094 
Q 2847 2600 2669 2842 
Q 2491 3084 2119 3084 
Q 1678 3084 1418 2786 
Q 1159 2488 1159 1978 
L 1159 0 
L 581 0 
L 581 3500 
L 1159 3500 
L 1159 2956 
Q 1356 3278 1631 3431 
Q 1906 3584 2284 3584 
Q 2666 3584 2933 3390 
Q 3200 3197 3328 2828 
z
" id="DejaVuSans-6d" transform="scale(0.015625)"/>
       <path d="M 544 1381 
L 544 3500 
L 1119 3500 
L 1119 1403 
Q 1119 906 1312 657 
Q 1506 409 1894 409 
Q 2359 409 2629 706 
Q 2900 1003 2900 1516 
L 2900 3500 
L 3475 3500 
L 3475 0 
L 2900 0 
L 2900 538 
Q 2691 219 2414 64 
Q 2138 -91 1772 -91 
Q 1169 -91 856 284 
Q 544 659 544 1381 
z
M 1991 3584 
L 1991 3584 
z
" id="DejaVuSans-75" transform="scale(0.015625)"/>
       <path d="M 3513 2113 
L 3513 0 
L 2938 0 
L 2938 2094 
Q 2938 2591 2744 2837 
Q 2550 3084 2163 3084 
Q 1697 3084 1428 2787 
Q 1159 2491 1159 1978 
L 1159 0 
L 581 0 
L 581 3500 
L 1159 3500 
L 1159 2956 
Q 1366 3272 1645 3428 
Q 1925 3584 2291 3584 
Q 2894 3584 3203 3211 
Q 3513 2838 3513 2113 
z
" id="DejaVuSans-6e" transform="scale(0.015625)"/>
       <path d="M 603 3500 
L 1178 3500 
L 1178 0 
L 603 0 
L 603 3500 
z
M 603 4863 
L 1178 4863 
L 1178 4134 
L 603 4134 
L 603 4863 
z
" id="DejaVuSans-69" transform="scale(0.015625)"/>
       <path d="M 3122 3366 
L 3122 2828 
Q 2878 2963 2633 3030 
Q 2388 3097 2138 3097 
Q 1578 3097 1268 2742 
Q 959 2388 959 1747 
Q 959 1106 1268 751 
Q 1578 397 2138 397 
Q 2388 397 2633 464 
Q 2878 531 3122 666 
L 3122 134 
Q 2881 22 2623 -34 
Q 2366 -91 2075 -91 
Q 1284 -91 818 406 
Q 353 903 353 1747 
Q 353 2603 823 3093 
Q 1294 3584 2113 3584 
Q 2378 3584 2631 3529 
Q 2884 3475 3122 3366 
z
" id="DejaVuSans-63" transform="scale(0.015625)"/>
       <path d="M 1172 4494 
L 1172 3500 
L 2356 3500 
L 2356 3053 
L 1172 3053 
L 1172 1153 
Q 1172 725 1289 603 
Q 1406 481 1766 481 
L 2356 481 
L 2356 0 
L 1766 0 
Q 1100 0 847 248 
Q 594 497 594 1153 
L 594 3053 
L 172 3053 
L 172 3500 
L 594 3500 
L 594 4494 
L 1172 4494 
z
" id="DejaVuSans-74" transform="scale(0.015625)"/>
       <path d="M 2841 2188 
Q 3044 2119 3236 1894 
Q 3428 1669 3622 1275 
L 4263 0 
L 3584 0 
L 2988 1197 
Q 2756 1666 2539 1819 
Q 2322 1972 1947 1972 
L 1259 1972 
L 1259 0 
L 628 0 
L 628 4666 
L 2053 4666 
Q 2853 4666 3247 4331 
Q 3641 3997 3641 3322 
Q 3641 2881 3436 2590 
Q 3231 2300 2841 2188 
z
M 1259 4147 
L 1259 2491 
L 2053 2491 
Q 2509 2491 2742 2702 
Q 2975 2913 2975 3322 
Q 2975 3731 2742 3939 
Q 2509 4147 2053 4147 
L 1259 4147 
z
" id="DejaVuSans-52" transform="scale(0.015625)"/>
       <path d="M 2906 2969 
L 2906 4863 
L 3481 4863 
L 3481 0 
L 2906 0 
L 2906 525 
Q 2725 213 2448 61 
Q 2172 -91 1784 -91 
Q 1150 -91 751 415 
Q 353 922 353 1747 
Q 353 2572 751 3078 
Q 1150 3584 1784 3584 
Q 2172 3584 2448 3432 
Q 2725 3281 2906 2969 
z
M 947 1747 
Q 947 1113 1208 752 
Q 1469 391 1925 391 
Q 2381 391 2643 752 
Q 2906 1113 2906 1747 
Q 2906 2381 2643 2742 
Q 2381 3103 1925 3103 
Q 1469 3103 1208 2742 
Q 947 2381 947 1747 
z
" id="DejaVuSans-64" transform="scale(0.015625)"/>
       <path d="M 2834 3397 
L 2834 2853 
Q 2591 2978 2328 3040 
Q 2066 3103 1784 3103 
Q 1356 3103 1142 2972 
Q 928 2841 928 2578 
Q 928 2378 1081 2264 
Q 1234 2150 1697 2047 
L 1894 2003 
Q 2506 1872 2764 1633 
Q 3022 1394 3022 966 
Q 3022 478 2636 193 
Q 2250 -91 1575 -91 
Q 1294 -91 989 -36 
Q 684 19 347 128 
L 347 722 
Q 666 556 975 473 
Q 1284 391 1588 391 
Q 1994 391 2212 530 
Q 2431 669 2431 922 
Q 2431 1156 2273 1281 
Q 2116 1406 1581 1522 
L 1381 1569 
Q 847 1681 609 1914 
Q 372 2147 372 2553 
Q 372 3047 722 3315 
Q 1072 3584 1716 3584 
Q 2034 3584 2315 3537 
Q 2597 3491 2834 3397 
z
" id="DejaVuSans-73" transform="scale(0.015625)"/>
      </defs>
      <use xlink:href="#DejaVuSans-47"/>
      <use x="77.490234" xlink:href="#DejaVuSans-6c"/>
      <use x="105.273438" xlink:href="#DejaVuSans-6f"/>
      <use x="166.455078" xlink:href="#DejaVuSans-62"/>
      <use x="229.931641" xlink:href="#DejaVuSans-61"/>
      <use x="291.210938" xlink:href="#DejaVuSans-6c"/>
      <use x="318.994141" xlink:href="#DejaVuSans-20"/>
      <use x="350.78125" xlink:href="#DejaVuSans-43"/>
      <use x="420.605469" xlink:href="#DejaVuSans-6f"/>
      <use x="481.787109" xlink:href="#DejaVuSans-6d"/>
      <use x="579.199219" xlink:href="#DejaVuSans-6d"/>
      <use x="676.611328" xlink:href="#DejaVuSans-75"/>
      <use x="739.990234" xlink:href="#DejaVuSans-6e"/>
      <use x="803.369141" xlink:href="#DejaVuSans-69"/>
      <use x="831.152344" xlink:href="#DejaVuSans-63"/>
      <use x="886.132812" xlink:href="#DejaVuSans-61"/>
      <use x="947.412109" xlink:href="#DejaVuSans-74"/>
      <use x="986.621094" xlink:href="#DejaVuSans-69"/>
      <use x="1014.404297" xlink:href="#DejaVuSans-6f"/>
      <use x="1075.585938" xlink:href="#DejaVuSans-6e"/>
      <use x="1138.964844" xlink:href="#DejaVuSans-20"/>
      <use x="1170.751953" xlink:href="#DejaVuSans-52"/>
      <use x="1235.734375" xlink:href="#DejaVuSans-6f"/>
      <use x="1296.916016" xlink:href="#DejaVuSans-75"/>
      <use x="1360.294922" xlink:href="#DejaVuSans-6e"/>
      <use x="1423.673828" xlink:href="#DejaVuSans-64"/>
      <use x="1487.150391" xlink:href="#DejaVuSans-73"/>
     </g>
    </g>
   </g>
   <g id="matplotlib.axis_2">
    <g id="ytick_1">
     <g id="line2d_7">
      <defs>
       <path d="M 0 0 
L -3.5 0 
" id="m8e0513c49c" style="stroke:#000000;stroke-width:0.8;"/>
      </defs>
      <g>
       <use style="stroke:#000000;stroke-width:0.8;" x="44.57" xlink:href="#m8e0513c49c" y="266.868598"/>
      </g>
     </g>
     <g id="text_8">
      <!-- 20 -->
      <g transform="translate(24.845 270.667817)scale(0.1 -0.1)">
       <use xlink:href="#DejaVuSans-32"/>
       <use x="63.623047" xlink:href="#DejaVuSans-30"/>
      </g>
     </g>
    </g>
    <g id="ytick_2">
     <g id="line2d_8">
      <g>
       <use style="stroke:#000000;stroke-width:0.8;" x="44.57" xlink:href="#m8e0513c49c" y="208.004881"/>
      </g>
     </g>
     <g id="text_9">
      <!-- 40 -->
      <g transform="translate(24.845 211.8041)scale(0.1 -0.1)">
       <use xlink:href="#DejaVuSans-34"/>
       <use x="63.623047" xlink:href="#DejaVuSans-30"/>
      </g>
     </g>
    </g>
    <g id="ytick_3">
     <g id="line2d_9">
      <g>
       <use style="stroke:#000000;stroke-width:0.8;" x="44.57" xlink:href="#m8e0513c49c" y="149.141164"/>
      </g>
     </g>
     <g id="text_10">
      <!-- 60 -->
      <g transform="translate(24.845 152.940383)scale(0.1 -0.1)">
       <defs>
        <path d="M 2113 2584 
Q 1688 2584 1439 2293 
Q 1191 2003 1191 1497 
Q 1191 994 1439 701 
Q 1688 409 2113 409 
Q 2538 409 2786 701 
Q 3034 994 3034 1497 
Q 3034 2003 2786 2293 
Q 2538 2584 2113 2584 
z
M 3366 4563 
L 3366 3988 
Q 3128 4100 2886 4159 
Q 2644 4219 2406 4219 
Q 1781 4219 1451 3797 
Q 1122 3375 1075 2522 
Q 1259 2794 1537 2939 
Q 1816 3084 2150 3084 
Q 2853 3084 3261 2657 
Q 3669 2231 3669 1497 
Q 3669 778 3244 343 
Q 2819 -91 2113 -91 
Q 1303 -91 875 529 
Q 447 1150 447 2328 
Q 447 3434 972 4092 
Q 1497 4750 2381 4750 
Q 2619 4750 2861 4703 
Q 3103 4656 3366 4563 
z
" id="DejaVuSans-36" transform="scale(0.015625)"/>
       </defs>
       <use xlink:href="#DejaVuSans-36"/>
       <use x="63.623047" xlink:href="#DejaVuSans-30"/>
      </g>
     </g>
    </g>
    <g id="ytick_4">
     <g id="line2d_10">
      <g>
       <use style="stroke:#000000;stroke-width:0.8;" x="44.57" xlink:href="#m8e0513c49c" y="90.277447"/>
      </g>
     </g>
     <g id="text_11">
      <!-- 80 -->
      <g transform="translate(24.845 94.076666)scale(0.1 -0.1)">
       <defs>
        <path d="M 2034 2216 
Q 1584 2216 1326 1975 
Q 1069 1734 1069 1313 
Q 1069 891 1326 650 
Q 1584 409 2034 409 
Q 2484 409 2743 651 
Q 3003 894 3003 1313 
Q 3003 1734 2745 1975 
Q 2488 2216 2034 2216 
z
M 1403 2484 
Q 997 2584 770 2862 
Q 544 3141 544 3541 
Q 544 4100 942 4425 
Q 1341 4750 2034 4750 
Q 2731 4750 3128 4425 
Q 3525 4100 3525 3541 
Q 3525 3141 3298 2862 
Q 3072 2584 2669 2484 
Q 3125 2378 3379 2068 
Q 3634 1759 3634 1313 
Q 3634 634 3220 271 
Q 2806 -91 2034 -91 
Q 1263 -91 848 271 
Q 434 634 434 1313 
Q 434 1759 690 2068 
Q 947 2378 1403 2484 
z
M 1172 3481 
Q 1172 3119 1398 2916 
Q 1625 2713 2034 2713 
Q 2441 2713 2670 2916 
Q 2900 3119 2900 3481 
Q 2900 3844 2670 4047 
Q 2441 4250 2034 4250 
Q 1625 4250 1398 4047 
Q 1172 3844 1172 3481 
z
" id="DejaVuSans-38" transform="scale(0.015625)"/>
       </defs>
       <use xlink:href="#DejaVuSans-38"/>
       <use x="63.623047" xlink:href="#DejaVuSans-30"/>
      </g>
     </g>
    </g>
    <g id="text_12">
     <!-- Test Accuracy -->
     <g transform="translate(18.765313 202.520914)rotate(-90)scale(0.1 -0.1)">
      <defs>
       <path d="M -19 4666 
L 3928 4666 
L 3928 4134 
L 2272 4134 
L 2272 0 
L 1638 0 
L 1638 4134 
L -19 4134 
L -19 4666 
z
" id="DejaVuSans-54" transform="scale(0.015625)"/>
       <path d="M 3597 1894 
L 3597 1613 
L 953 1613 
Q 991 1019 1311 708 
Q 1631 397 2203 397 
Q 2534 397 2845 478 
Q 3156 559 3463 722 
L 3463 178 
Q 3153 47 2828 -22 
Q 2503 -91 2169 -91 
Q 1331 -91 842 396 
Q 353 884 353 1716 
Q 353 2575 817 3079 
Q 1281 3584 2069 3584 
Q 2775 3584 3186 3129 
Q 3597 2675 3597 1894 
z
M 3022 2063 
Q 3016 2534 2758 2815 
Q 2500 3097 2075 3097 
Q 1594 3097 1305 2825 
Q 1016 2553 972 2059 
L 3022 2063 
z
" id="DejaVuSans-65" transform="scale(0.015625)"/>
       <path d="M 2188 4044 
L 1331 1722 
L 3047 1722 
L 2188 4044 
z
M 1831 4666 
L 2547 4666 
L 4325 0 
L 3669 0 
L 3244 1197 
L 1141 1197 
L 716 0 
L 50 0 
L 1831 4666 
z
" id="DejaVuSans-41" transform="scale(0.015625)"/>
       <path d="M 2631 2963 
Q 2534 3019 2420 3045 
Q 2306 3072 2169 3072 
Q 1681 3072 1420 2755 
Q 1159 2438 1159 1844 
L 1159 0 
L 581 0 
L 581 3500 
L 1159 3500 
L 1159 2956 
Q 1341 3275 1631 3429 
Q 1922 3584 2338 3584 
Q 2397 3584 2469 3576 
Q 2541 3569 2628 3553 
L 2631 2963 
z
" id="DejaVuSans-72" transform="scale(0.015625)"/>
       <path d="M 2059 -325 
Q 1816 -950 1584 -1140 
Q 1353 -1331 966 -1331 
L 506 -1331 
L 506 -850 
L 844 -850 
Q 1081 -850 1212 -737 
Q 1344 -625 1503 -206 
L 1606 56 
L 191 3500 
L 800 3500 
L 1894 763 
L 2988 3500 
L 3597 3500 
L 2059 -325 
z
" id="DejaVuSans-79" transform="scale(0.015625)"/>
      </defs>
      <use xlink:href="#DejaVuSans-54"/>
      <use x="44.083984" xlink:href="#DejaVuSans-65"/>
      <use x="105.607422" xlink:href="#DejaVuSans-73"/>
      <use x="157.707031" xlink:href="#DejaVuSans-74"/>
      <use x="196.916016" xlink:href="#DejaVuSans-20"/>
      <use x="228.703125" xlink:href="#DejaVuSans-41"/>
      <use x="295.361328" xlink:href="#DejaVuSans-63"/>
      <use x="350.341797" xlink:href="#DejaVuSans-63"/>
      <use x="405.322266" xlink:href="#DejaVuSans-75"/>
      <use x="468.701172" xlink:href="#DejaVuSans-72"/>
      <use x="509.814453" xlink:href="#DejaVuSans-61"/>
      <use x="571.09375" xlink:href="#DejaVuSans-63"/>
      <use x="626.074219" xlink:href="#DejaVuSans-79"/>
     </g>
    </g>
   </g>
   <g id="line2d_11">
    <path clip-path="url(#p6c77010704)" d="M 62.998636 234.754342 
L 70.520529 212.102988 
L 78.042421 176.486714 
L 85.564314 140.348862 
L 93.086206 126.042743 
L 100.608098 100.708992 
L 108.129991 106.818897 
L 115.651883 93.779466 
L 123.173776 85.583252 
L 130.695668 73.885019 
L 138.21756 79.920413 
L 145.739453 68.445714 
L 153.261345 69.935935 
L 160.783237 67.179026 
L 168.30513 66.433916 
L 175.827022 68.520225 
L 183.348915 64.720162 
L 190.870807 60.2495 
L 198.392699 60.473033 
L 205.914592 63.304453 
L 213.436484 66.284894 
L 220.958377 71.79871 
L 228.480269 61.367166 
L 236.002161 60.100478 
L 243.524054 59.280857 
L 251.045946 62.708364 
L 258.567839 61.367166 
L 266.089731 59.951456 
L 273.611623 57.120037 
L 281.133516 59.727923 
L 288.655408 59.653412 
L 296.177301 53.990573 
L 303.699193 52.947419 
L 311.221085 52.574864 
L 318.742978 49.4454 
L 326.26487 52.425842 
L 333.786763 53.245463 
L 341.308655 51.159154 
L 348.830547 52.723886 
L 356.35244 52.798397 
L 363.874332 50.339533 
L 371.396224 55.480794 
L 378.918117 55.92786 
L 386.440009 49.519911 
L 393.961902 50.637577 
L 401.483794 48.774801 
L 409.005686 51.829753 
L 416.527579 49.743444 
L 424.049471 49.296378 
L 431.571364 53.990573 
" style="fill:none;stroke:#1f77b4;stroke-linecap:square;stroke-width:1.5;"/>
   </g>
   <g id="line2d_12">
    <path clip-path="url(#p6c77010704)" d="M 62.998636 259.342984 
L 70.520529 253.382101 
L 78.042421 271.562793 
L 85.564314 208.600969 
L 93.086206 246.005509 
L 100.608098 191.090876 
L 108.129991 193.922296 
L 115.651883 193.847785 
L 123.173776 203.087153 
L 130.695668 177.67889 
L 138.21756 186.247659 
L 145.739453 156.592267 
L 153.261345 195.412516 
L 160.783237 157.039334 
L 168.30513 169.929743 
L 175.827022 144.074414 
L 183.348915 151.600028 
L 190.870807 156.890312 
L 198.392699 145.713656 
L 205.914592 175.965136 
L 213.436484 179.541666 
L 220.958377 153.686337 
L 228.480269 153.984381 
L 236.002161 130.81145 
L 243.524054 136.399777 
L 251.045946 143.180281 
L 258.567839 148.172521 
L 266.089731 157.039334 
L 273.611623 134.313468 
L 281.133516 147.203877 
L 288.655408 127.756497 
L 296.177301 126.266277 
L 303.699193 130.289872 
L 311.221085 126.638832 
L 318.742978 127.905519 
L 326.26487 133.791891 
L 333.786763 132.525203 
L 341.308655 126.713343 
L 348.830547 141.392016 
L 356.35244 119.187728 
L 363.874332 119.187728 
L 371.396224 141.168483 
L 378.918117 149.215675 
L 386.440009 128.725141 
L 393.961902 130.364383 
L 401.483794 117.548486 
L 409.005686 120.826971 
L 416.527579 142.062616 
L 424.049471 140.646906 
L 431.571364 136.176244 
" style="fill:none;stroke:#ff7f0e;stroke-linecap:square;stroke-width:1.5;"/>
   </g>
   <g id="line2d_13">
    <path clip-path="url(#p6c77010704)" d="M 62.998636 235.052387 
L 70.520529 206.365638 
L 78.042421 149.290186 
L 85.564314 135.654667 
L 93.086206 113.301357 
L 100.608098 117.84653 
L 108.129991 105.62672 
L 115.651883 96.461863 
L 123.173776 88.563693 
L 130.695668 94.301043 
L 138.21756 95.120664 
L 145.739453 71.426155 
L 153.261345 79.175303 
L 160.783237 73.21442 
L 168.30513 71.277133 
L 175.827022 78.206659 
L 183.348915 68.14767 
L 190.870807 72.692843 
L 198.392699 66.061361 
L 205.914592 64.273096 
L 213.436484 63.006408 
L 220.958377 69.116313 
L 228.480269 64.198585 
L 236.002161 62.782875 
L 243.524054 63.677008 
L 251.045946 59.50439 
L 258.567839 62.037765 
L 266.089731 63.751519 
L 273.611623 62.484831 
L 281.133516 58.08868 
L 288.655408 62.484831 
L 296.177301 63.82603 
L 303.699193 59.50439 
L 311.221085 60.473033 
L 318.742978 59.578901 
L 326.26487 58.237702 
L 333.786763 56.449437 
L 341.308655 58.684768 
L 348.830547 57.045526 
L 356.35244 60.324011 
L 363.874332 56.747482 
L 371.396224 57.790636 
L 378.918117 60.473033 
L 386.440009 56.374926 
L 393.961902 56.002371 
L 401.483794 56.747482 
L 409.005686 56.598459 
L 416.527579 56.374926 
L 424.049471 55.331772 
L 431.571364 56.151393 
" style="fill:none;stroke:#2ca02c;stroke-linecap:square;stroke-width:1.5;"/>
   </g>
   <g id="line2d_14">
    <path clip-path="url(#p6c77010704)" d="M 62.998636 243.27602 
L 70.520529 228.607182 
L 78.042421 209.906179 
L 85.564314 191.434745 
L 93.086206 176.453929 
L 100.608098 168.430804 
L 108.129991 161.567295 
L 115.651883 157.641085 
L 123.173776 154.244648 
L 130.695668 150.606871 
L 138.21756 147.634253 
L 145.739453 144.502703 
L 153.261345 141.000312 
L 160.783237 136.820988 
L 168.30513 134.419348 
L 175.827022 132.735846 
L 183.348915 130.816889 
L 190.870807 128.603613 
L 198.392699 125.566245 
L 205.914592 124.188834 
L 213.436484 123.235242 
L 220.958377 122.988015 
L 228.480269 120.60992 
L 236.002161 119.921215 
L 243.524054 119.744624 
L 251.045946 117.966939 
L 258.567839 116.972143 
L 266.089731 116.730801 
L 273.611623 115.800755 
L 281.133516 114.535185 
L 288.655408 113.193092 
L 296.177301 113.510956 
L 303.699193 113.134228 
L 311.221085 112.998842 
L 318.742978 112.157091 
L 326.26487 111.980499 
L 333.786763 110.467702 
L 341.308655 110.962157 
L 348.830547 110.09686 
L 356.35244 109.137382 
L 363.874332 108.407472 
L 371.396224 107.400902 
L 378.918117 107.548062 
L 386.440009 108.195562 
L 393.961902 108.066062 
L 401.483794 107.671675 
L 409.005686 106.70631 
L 416.527579 105.811582 
L 424.049471 106.423765 
L 431.571364 106.353128 
" style="fill:none;stroke:#d62728;stroke-linecap:square;stroke-width:1.5;"/>
   </g>
   <g id="patch_3">
    <path d="M 44.57 303.64 
L 44.57 32.876829 
" style="fill:none;stroke:#000000;stroke-linecap:square;stroke-linejoin:miter;stroke-width:0.8;"/>
   </g>
   <g id="patch_4">
    <path d="M 450 303.64 
L 450 32.876829 
" style="fill:none;stroke:#000000;stroke-linecap:square;stroke-linejoin:miter;stroke-width:0.8;"/>
   </g>
   <g id="patch_5">
    <path d="M 44.57 303.64 
L 450 303.64 
" style="fill:none;stroke:#000000;stroke-linecap:square;stroke-linejoin:miter;stroke-width:0.8;"/>
   </g>
   <g id="patch_6">
    <path d="M 44.57 32.876829 
L 450 32.876829 
" style="fill:none;stroke:#000000;stroke-linecap:square;stroke-linejoin:miter;stroke-width:0.8;"/>
   </g>
   <g id="legend_1">
    <g id="patch_7">
     <path d="M 80.886563 28.478637 
L 413.683438 28.478637 
Q 415.683438 28.478637 415.683438 26.478637 
L 415.683438 12.800512 
Q 415.683438 10.800512 413.683438 10.800512 
L 80.886563 10.800512 
Q 78.886563 10.800512 78.886563 12.800512 
L 78.886563 26.478637 
Q 78.886563 28.478637 80.886563 28.478637 
z
" style="fill:#ffffff;opacity:0.8;stroke:#cccccc;stroke-linejoin:miter;"/>
    </g>
    <g id="line2d_15">
     <path d="M 82.886563 18.898949 
L 102.886563 18.898949 
" style="fill:none;stroke:#1f77b4;stroke-linecap:square;stroke-width:1.5;"/>
    </g>
    <g id="line2d_16"/>
    <g id="text_13">
     <!-- FedAvg -->
     <g transform="translate(110.886563 22.398949)scale(0.1 -0.1)">
      <defs>
       <path d="M 628 4666 
L 3309 4666 
L 3309 4134 
L 1259 4134 
L 1259 2759 
L 3109 2759 
L 3109 2228 
L 1259 2228 
L 1259 0 
L 628 0 
L 628 4666 
z
" id="DejaVuSans-46" transform="scale(0.015625)"/>
       <path d="M 191 3500 
L 800 3500 
L 1894 563 
L 2988 3500 
L 3597 3500 
L 2284 0 
L 1503 0 
L 191 3500 
z
" id="DejaVuSans-76" transform="scale(0.015625)"/>
       <path d="M 2906 1791 
Q 2906 2416 2648 2759 
Q 2391 3103 1925 3103 
Q 1463 3103 1205 2759 
Q 947 2416 947 1791 
Q 947 1169 1205 825 
Q 1463 481 1925 481 
Q 2391 481 2648 825 
Q 2906 1169 2906 1791 
z
M 3481 434 
Q 3481 -459 3084 -895 
Q 2688 -1331 1869 -1331 
Q 1566 -1331 1297 -1286 
Q 1028 -1241 775 -1147 
L 775 -588 
Q 1028 -725 1275 -790 
Q 1522 -856 1778 -856 
Q 2344 -856 2625 -561 
Q 2906 -266 2906 331 
L 2906 616 
Q 2728 306 2450 153 
Q 2172 0 1784 0 
Q 1141 0 747 490 
Q 353 981 353 1791 
Q 353 2603 747 3093 
Q 1141 3584 1784 3584 
Q 2172 3584 2450 3431 
Q 2728 3278 2906 2969 
L 2906 3500 
L 3481 3500 
L 3481 434 
z
" id="DejaVuSans-67" transform="scale(0.015625)"/>
      </defs>
      <use xlink:href="#DejaVuSans-46"/>
      <use x="52.019531" xlink:href="#DejaVuSans-65"/>
      <use x="113.542969" xlink:href="#DejaVuSans-64"/>
      <use x="177.019531" xlink:href="#DejaVuSans-41"/>
      <use x="239.552734" xlink:href="#DejaVuSans-76"/>
      <use x="298.732422" xlink:href="#DejaVuSans-67"/>
     </g>
    </g>
    <g id="line2d_17">
     <path d="M 167.11 18.898949 
L 187.11 18.898949 
" style="fill:none;stroke:#ff7f0e;stroke-linecap:square;stroke-width:1.5;"/>
    </g>
    <g id="line2d_18"/>
    <g id="text_14">
     <!-- FedMed -->
     <g transform="translate(195.11 22.398949)scale(0.1 -0.1)">
      <defs>
       <path d="M 628 4666 
L 1569 4666 
L 2759 1491 
L 3956 4666 
L 4897 4666 
L 4897 0 
L 4281 0 
L 4281 4097 
L 3078 897 
L 2444 897 
L 1241 4097 
L 1241 0 
L 628 0 
L 628 4666 
z
" id="DejaVuSans-4d" transform="scale(0.015625)"/>
      </defs>
      <use xlink:href="#DejaVuSans-46"/>
      <use x="52.019531" xlink:href="#DejaVuSans-65"/>
      <use x="113.542969" xlink:href="#DejaVuSans-64"/>
      <use x="177.019531" xlink:href="#DejaVuSans-4d"/>
      <use x="263.298828" xlink:href="#DejaVuSans-65"/>
      <use x="324.822266" xlink:href="#DejaVuSans-64"/>
     </g>
    </g>
    <g id="line2d_19">
     <path d="M 253.942813 18.898949 
L 273.942813 18.898949 
" style="fill:none;stroke:#2ca02c;stroke-linecap:square;stroke-width:1.5;"/>
    </g>
    <g id="line2d_20"/>
    <g id="text_15">
     <!-- FedProx -->
     <g transform="translate(281.942813 22.398949)scale(0.1 -0.1)">
      <defs>
       <path d="M 1259 4147 
L 1259 2394 
L 2053 2394 
Q 2494 2394 2734 2622 
Q 2975 2850 2975 3272 
Q 2975 3691 2734 3919 
Q 2494 4147 2053 4147 
L 1259 4147 
z
M 628 4666 
L 2053 4666 
Q 2838 4666 3239 4311 
Q 3641 3956 3641 3272 
Q 3641 2581 3239 2228 
Q 2838 1875 2053 1875 
L 1259 1875 
L 1259 0 
L 628 0 
L 628 4666 
z
" id="DejaVuSans-50" transform="scale(0.015625)"/>
       <path d="M 3513 3500 
L 2247 1797 
L 3578 0 
L 2900 0 
L 1881 1375 
L 863 0 
L 184 0 
L 1544 1831 
L 300 3500 
L 978 3500 
L 1906 2253 
L 2834 3500 
L 3513 3500 
z
" id="DejaVuSans-78" transform="scale(0.015625)"/>
      </defs>
      <use xlink:href="#DejaVuSans-46"/>
      <use x="52.019531" xlink:href="#DejaVuSans-65"/>
      <use x="113.542969" xlink:href="#DejaVuSans-64"/>
      <use x="177.019531" xlink:href="#DejaVuSans-50"/>
      <use x="235.572266" xlink:href="#DejaVuSans-72"/>
      <use x="274.435547" xlink:href="#DejaVuSans-6f"/>
      <use x="332.492188" xlink:href="#DejaVuSans-78"/>
     </g>
    </g>
    <g id="line2d_21">
     <path d="M 341.111563 18.898949 
L 361.111563 18.898949 
" style="fill:none;stroke:#d62728;stroke-linecap:square;stroke-width:1.5;"/>
    </g>
    <g id="line2d_22"/>
    <g id="text_16">
     <!-- qFedAvg -->
     <g transform="translate(369.111563 22.398949)scale(0.1 -0.1)">
      <defs>
       <path d="M 947 1747 
Q 947 1113 1208 752 
Q 1469 391 1925 391 
Q 2381 391 2643 752 
Q 2906 1113 2906 1747 
Q 2906 2381 2643 2742 
Q 2381 3103 1925 3103 
Q 1469 3103 1208 2742 
Q 947 2381 947 1747 
z
M 2906 525 
Q 2725 213 2448 61 
Q 2172 -91 1784 -91 
Q 1150 -91 751 415 
Q 353 922 353 1747 
Q 353 2572 751 3078 
Q 1150 3584 1784 3584 
Q 2172 3584 2448 3432 
Q 2725 3281 2906 2969 
L 2906 3500 
L 3481 3500 
L 3481 -1331 
L 2906 -1331 
L 2906 525 
z
" id="DejaVuSans-71" transform="scale(0.015625)"/>
      </defs>
      <use xlink:href="#DejaVuSans-71"/>
      <use x="63.476562" xlink:href="#DejaVuSans-46"/>
      <use x="115.496094" xlink:href="#DejaVuSans-65"/>
      <use x="177.019531" xlink:href="#DejaVuSans-64"/>
      <use x="240.496094" xlink:href="#DejaVuSans-41"/>
      <use x="303.029297" xlink:href="#DejaVuSans-76"/>
      <use x="362.208984" xlink:href="#DejaVuSans-67"/>
     </g>
    </g>
   </g>
  </g>
 </g>
 <defs>
  <clipPath id="p6c77010704">
   <rect height="270.763171" width="405.43" x="44.57" y="32.876829"/>
  </clipPath>
 </defs>
</svg>
