<?xml version="1.0" encoding="utf-8" standalone="no"?>
<!DOCTYPE svg PUBLIC "-//W3C//DTD SVG 1.1//EN"
  "http://www.w3.org/Graphics/SVG/1.1/DTD/svg11.dtd">
<svg height="345.6pt" version="1.1" viewBox="0 0 460.8 345.6" width="460.8pt" xmlns="http://www.w3.org/2000/svg" xmlns:xlink="http://www.w3.org/1999/xlink">
 <metadata>
  <rdf:RDF xmlns:cc="http://creativecommons.org/ns#" xmlns:dc="http://purl.org/dc/elements/1.1/" xmlns:rdf="http://www.w3.org/1999/02/22-rdf-syntax-ns#">
   <cc:Work>
    <dc:type rdf:resource="http://purl.org/dc/dcmitype/StillImage"/>
    <dc:date>2021-05-07T11:37:55.791312</dc:date>
    <dc:format>image/svg+xml</dc:format>
    <dc:creator>
     <cc:Agent>
      <dc:title>Matplotlib v3.4.1, https://matplotlib.org/</dc:title>
     </cc:Agent>
    </dc:creator>
   </cc:Work>
  </rdf:RDF>
 </metadata>
 <defs>
  <style type="text/css">*{stroke-linecap:butt;stroke-linejoin:round;}</style>
 </defs>
 <g id="figure_1">
  <g id="patch_1">
   <path d="M 0 345.6 
L 460.8 345.6 
L 460.8 0 
L 0 0 
z
" style="fill:#ffffff;"/>
  </g>
  <g id="axes_1">
   <g id="patch_2">
    <path d="M 50.87 303.64 
L 450 303.64 
L 450 48.38 
L 50.87 48.38 
z
" style="fill:#ffffff;"/>
   </g>
   <g id="PolyCollection_1">
    <path clip-path="url(#pcc0085d593)" d="M 69.012273 245.10445 
L 69.012273 283.884152 
L 76.417282 233.189077 
L 83.822291 193.72768 
L 91.227301 171.795387 
L 98.63231 133.473478 
L 106.037319 113.643055 
L 113.442328 118.788816 
L 120.847338 121.161996 
L 128.252347 113.871138 
L 135.657356 108.742588 
L 143.062365 109.775919 
L 150.467375 89.222133 
L 157.872384 91.07072 
L 165.277393 88.276518 
L 172.682403 87.021373 
L 180.087412 97.938283 
L 187.492421 80.269498 
L 194.89743 78.679639 
L 202.30244 91.525367 
L 209.707449 90.503015 
L 217.112458 88.089688 
L 224.517468 82.995702 
L 231.922477 82.186638 
L 239.327486 79.038584 
L 246.732495 75.301765 
L 254.137505 79.065732 
L 261.542514 77.332637 
L 268.947523 77.666609 
L 276.352532 77.273105 
L 283.757542 79.511153 
L 291.162551 75.532513 
L 298.56756 75.048676 
L 305.97257 75.779263 
L 313.377579 74.606694 
L 320.782588 75.477474 
L 328.187597 73.552977 
L 335.592607 76.232629 
L 342.997616 74.869246 
L 350.402625 73.606442 
L 357.807635 72.55404 
L 365.212644 73.588164 
L 372.617653 73.384244 
L 380.022662 72.884729 
L 387.427672 72.17858 
L 394.832681 73.268306 
L 402.23769 72.274496 
L 409.642699 72.824589 
L 417.047709 73.129117 
L 424.452718 72.249185 
L 431.857727 71.73241 
L 431.857727 71.050924 
L 431.857727 71.050924 
L 424.452718 70.534149 
L 417.047709 71.396122 
L 409.642699 70.954119 
L 402.23769 70.63326 
L 394.832681 71.381356 
L 387.427672 70.604755 
L 380.022662 70.645136 
L 372.617653 71.265417 
L 365.212644 70.937075 
L 357.807635 70.60256 
L 350.402625 71.292063 
L 342.997616 71.149055 
L 335.592607 71.527577 
L 328.187597 73.087433 
L 320.782588 72.033889 
L 313.377579 71.909294 
L 305.97257 71.856522 
L 298.56756 73.33364 
L 291.162551 71.730006 
L 283.757542 72.479395 
L 276.352532 71.482476 
L 268.947523 72.582033 
L 261.542514 71.671787 
L 254.137505 73.795768 
L 246.732495 73.204972 
L 239.327486 75.191556 
L 231.922477 71.670236 
L 224.517468 74.469404 
L 217.112458 72.734808 
L 209.707449 72.063385 
L 202.30244 74.276 
L 194.89743 76.17261 
L 187.492421 76.697921 
L 180.087412 74.208596 
L 172.682403 81.766117 
L 165.277393 76.653897 
L 157.872384 77.965614 
L 150.467375 80.560732 
L 143.062365 79.292324 
L 135.657356 79.827968 
L 128.252347 88.261395 
L 120.847338 92.292921 
L 113.442328 101.384878 
L 106.037319 98.816487 
L 98.63231 113.575324 
L 91.227301 142.814454 
L 83.822291 157.213326 
L 76.417282 187.552559 
L 69.012273 245.10445 
z
" style="fill:#1f77b4;fill-opacity:0.5;"/>
   </g>
   <g id="PolyCollection_2">
    <path clip-path="url(#pcc0085d593)" d="M 69.012273 274.651135 
L 69.012273 292.037273 
L 76.417282 288.656448 
L 83.822291 259.410087 
L 91.227301 266.819547 
L 98.63231 271.249572 
L 106.037319 200.418986 
L 113.442328 214.983762 
L 120.847338 245.019735 
L 128.252347 238.359654 
L 135.657356 199.722477 
L 143.062365 210.396458 
L 150.467375 163.734063 
L 157.872384 140.163698 
L 165.277393 167.997542 
L 172.682403 196.706978 
L 180.087412 194.844085 
L 187.492421 179.023313 
L 194.89743 150.600405 
L 202.30244 144.815499 
L 209.707449 154.026174 
L 217.112458 150.611539 
L 224.517468 153.781776 
L 231.922477 151.232855 
L 239.327486 147.509412 
L 246.732495 149.692092 
L 254.137505 150.942425 
L 261.542514 172.738996 
L 268.947523 114.89867 
L 276.352532 156.682179 
L 283.757542 175.83355 
L 291.162551 210.996808 
L 298.56756 189.853554 
L 305.97257 176.763535 
L 313.377579 152.088869 
L 320.782588 145.223818 
L 328.187597 160.376692 
L 335.592607 170.100787 
L 342.997616 141.666104 
L 350.402625 118.554336 
L 357.807635 133.984044 
L 365.212644 111.305035 
L 372.617653 97.450678 
L 380.022662 118.732503 
L 387.427672 121.27214 
L 394.832681 136.259518 
L 402.23769 109.861591 
L 409.642699 109.844293 
L 417.047709 117.456021 
L 424.452718 105.745452 
L 431.857727 134.762457 
L 431.857727 84.91355 
L 431.857727 84.91355 
L 424.452718 80.834356 
L 417.047709 92.390663 
L 409.642699 87.684634 
L 402.23769 93.266316 
L 394.832681 99.964589 
L 387.427672 86.459374 
L 380.022662 81.409281 
L 372.617653 83.778992 
L 365.212644 93.191512 
L 357.807635 89.67346 
L 350.402625 89.550443 
L 342.997616 96.797595 
L 335.592607 90.261149 
L 328.187597 85.552314 
L 320.782588 115.386961 
L 313.377579 111.632455 
L 305.97257 89.81949 
L 298.56756 88.798386 
L 291.162551 77.360033 
L 283.757542 73.206002 
L 276.352532 89.37125 
L 268.947523 87.980394 
L 261.542514 79.535523 
L 254.137505 111.53468 
L 246.732495 85.038952 
L 239.327486 96.428846 
L 231.922477 102.285882 
L 224.517468 122.630572 
L 217.112458 112.487676 
L 209.707449 112.43243 
L 202.30244 111.191673 
L 194.89743 100.927582 
L 187.492421 91.790054 
L 180.087412 112.922557 
L 172.682403 116.907488 
L 165.277393 121.479095 
L 157.872384 121.442455 
L 150.467375 128.479853 
L 143.062365 132.332709 
L 135.657356 87.887833 
L 128.252347 116.562849 
L 120.847338 167.758906 
L 113.442328 164.823101 
L 106.037319 139.697323 
L 98.63231 239.82229 
L 91.227301 194.981283 
L 83.822291 193.681217 
L 76.417282 252.027803 
L 69.012273 274.651135 
z
" style="fill:#ff7f0e;fill-opacity:0.5;"/>
   </g>
   <g id="PolyCollection_3">
    <path clip-path="url(#pcc0085d593)" d="M 69.012273 239.545086 
L 69.012273 270.282559 
L 76.417282 223.752295 
L 83.822291 193.621063 
L 91.227301 163.138804 
L 98.63231 136.750023 
L 106.037319 115.653173 
L 113.442328 120.381411 
L 120.847338 123.940152 
L 128.252347 120.656523 
L 135.657356 118.078922 
L 143.062365 117.452203 
L 150.467375 114.082298 
L 157.872384 116.736814 
L 165.277393 112.564171 
L 172.682403 113.147188 
L 180.087412 112.475855 
L 187.492421 111.959197 
L 194.89743 110.546895 
L 202.30244 111.175709 
L 209.707449 111.310546 
L 217.112458 110.590454 
L 224.517468 108.879585 
L 231.922477 109.035374 
L 239.327486 109.096374 
L 246.732495 108.935568 
L 254.137505 108.388586 
L 261.542514 110.329155 
L 268.947523 108.714928 
L 276.352532 108.080842 
L 283.757542 107.63068 
L 291.162551 108.072198 
L 298.56756 108.015147 
L 305.97257 108.054988 
L 313.377579 107.855798 
L 320.782588 107.63304 
L 328.187597 107.761533 
L 335.592607 107.974923 
L 342.997616 107.743758 
L 350.402625 107.062858 
L 357.807635 107.785724 
L 365.212644 107.472564 
L 372.617653 107.261711 
L 380.022662 107.235014 
L 387.427672 107.237502 
L 394.832681 107.524764 
L 402.23769 107.498542 
L 409.642699 107.14618 
L 417.047709 107.321939 
L 424.452718 107.293178 
L 431.857727 107.355487 
L 431.857727 60.934316 
L 431.857727 60.934316 
L 424.452718 60.747782 
L 417.047709 60.843443 
L 409.642699 60.272671 
L 402.23769 61.288949 
L 394.832681 61.51157 
L 387.427672 60.554615 
L 380.022662 60.557102 
L 372.617653 60.654826 
L 365.212644 61.314927 
L 357.807635 62.245985 
L 350.402625 59.982727 
L 342.997616 62.039107 
L 335.592607 62.678894 
L 328.187597 62.021331 
L 320.782588 61.776559 
L 313.377579 62.549175 
L 305.97257 63.096517 
L 298.56756 63.011935 
L 291.162551 63.079307 
L 283.757542 61.903341 
L 276.352532 63.195085 
L 268.947523 65.049434 
L 261.542514 65.923644 
L 254.137505 64.007136 
L 246.732495 65.326482 
L 239.327486 65.663363 
L 231.922477 65.973206 
L 224.517468 65.382464 
L 217.112458 69.394999 
L 209.707449 71.909873 
L 202.30244 71.547023 
L 194.89743 68.94087 
L 187.492421 72.754284 
L 180.087412 75.597015 
L 172.682403 75.423368 
L 165.277393 74.264481 
L 157.872384 83.902657 
L 150.467375 78.843022 
L 143.062365 82.316315 
L 135.657356 87.039735 
L 128.252347 86.826147 
L 120.847338 98.8464 
L 113.442328 96.557316 
L 106.037319 100.041336 
L 98.63231 122.243273 
L 91.227301 142.885932 
L 83.822291 157.568786 
L 76.417282 170.114232 
L 69.012273 239.545086 
z
" style="fill:#2ca02c;fill-opacity:0.5;"/>
   </g>
   <g id="PolyCollection_4">
    <path clip-path="url(#pcc0085d593)" d="M 69.012273 233.38111 
L 69.012273 273.805557 
L 76.417282 228.849874 
L 83.822291 214.995548 
L 91.227301 207.454588 
L 98.63231 196.972591 
L 106.037319 184.917008 
L 113.442328 168.754857 
L 120.847338 159.731087 
L 128.252347 152.08455 
L 135.657356 145.709357 
L 143.062365 138.062625 
L 150.467375 133.905134 
L 157.872384 130.758355 
L 165.277393 128.67131 
L 172.682403 127.802407 
L 180.087412 126.591908 
L 187.492421 123.694403 
L 194.89743 123.427876 
L 202.30244 122.227653 
L 209.707449 121.784661 
L 217.112458 120.81491 
L 224.517468 121.314966 
L 231.922477 120.118794 
L 239.327486 119.531086 
L 246.732495 119.275815 
L 254.137505 119.274 
L 261.542514 118.458865 
L 268.947523 118.697804 
L 276.352532 118.590058 
L 283.757542 118.028886 
L 291.162551 117.158667 
L 298.56756 116.950711 
L 305.97257 116.63225 
L 313.377579 116.459607 
L 320.782588 116.38183 
L 328.187597 116.461305 
L 335.592607 115.714269 
L 342.997616 115.809245 
L 350.402625 115.339145 
L 357.807635 115.237135 
L 365.212644 115.005269 
L 372.617653 115.093424 
L 380.022662 115.408664 
L 387.427672 115.034595 
L 394.832681 115.331815 
L 402.23769 115.026934 
L 409.642699 115.161237 
L 417.047709 115.054345 
L 424.452718 114.990572 
L 431.857727 114.528798 
L 431.857727 99.891508 
L 431.857727 99.891508 
L 424.452718 100.845156 
L 417.047709 100.918993 
L 409.642699 101.087322 
L 402.23769 100.798964 
L 394.832681 101.241112 
L 387.427672 101.007549 
L 380.022662 101.527948 
L 372.617653 101.037184 
L 365.212644 101.144997 
L 357.807635 101.905893 
L 350.402625 102.108592 
L 342.997616 103.10306 
L 335.592607 102.618107 
L 328.187597 103.217688 
L 320.782588 103.120235 
L 313.377579 103.5929 
L 305.97257 103.852747 
L 298.56756 104.458242 
L 291.162551 104.731923 
L 283.757542 106.279717 
L 276.352532 106.858747 
L 268.947523 106.515097 
L 261.542514 106.400181 
L 254.137505 107.020127 
L 246.732495 107.598241 
L 239.327486 107.303654 
L 231.922477 107.728365 
L 224.517468 109.313891 
L 217.112458 109.568215 
L 209.707449 110.515181 
L 202.30244 110.888023 
L 194.89743 112.685744 
L 187.492421 113.205563 
L 180.087412 115.881283 
L 172.682403 116.685795 
L 165.277393 118.706713 
L 157.872384 122.340334 
L 150.467375 127.047183 
L 143.062365 130.202707 
L 135.657356 134.744335 
L 128.252347 140.58699 
L 120.847338 143.408681 
L 113.442328 149.77763 
L 106.037319 158.405029 
L 98.63231 167.492318 
L 91.227301 176.049718 
L 83.822291 184.039087 
L 76.417282 202.54289 
L 69.012273 233.38111 
z
" style="fill:#d62728;fill-opacity:0.5;"/>
   </g>
   <g id="matplotlib.axis_1">
    <g id="xtick_1">
     <g id="line2d_1">
      <defs>
       <path d="M 0 0 
L 0 3.5 
" id="mee17ca460f" style="stroke:#000000;stroke-width:0.8;"/>
      </defs>
      <g>
       <use style="stroke:#000000;stroke-width:0.8;" x="69.012273" xlink:href="#mee17ca460f" y="303.64"/>
      </g>
     </g>
     <g id="text_1">
      <!-- 0 -->
      <g transform="translate(65.831023 318.238437)scale(0.1 -0.1)">
       <defs>
        <path d="M 2034 4250 
Q 1547 4250 1301 3770 
Q 1056 3291 1056 2328 
Q 1056 1369 1301 889 
Q 1547 409 2034 409 
Q 2525 409 2770 889 
Q 3016 1369 3016 2328 
Q 3016 3291 2770 3770 
Q 2525 4250 2034 4250 
z
M 2034 4750 
Q 2819 4750 3233 4129 
Q 3647 3509 3647 2328 
Q 3647 1150 3233 529 
Q 2819 -91 2034 -91 
Q 1250 -91 836 529 
Q 422 1150 422 2328 
Q 422 3509 836 4129 
Q 1250 4750 2034 4750 
z
" id="DejaVuSans-30" transform="scale(0.015625)"/>
       </defs>
       <use xlink:href="#DejaVuSans-30"/>
      </g>
     </g>
    </g>
    <g id="xtick_2">
     <g id="line2d_2">
      <g>
       <use style="stroke:#000000;stroke-width:0.8;" x="143.062365" xlink:href="#mee17ca460f" y="303.64"/>
      </g>
     </g>
     <g id="text_2">
      <!-- 10 -->
      <g transform="translate(136.699865 318.238437)scale(0.1 -0.1)">
       <defs>
        <path d="M 794 531 
L 1825 531 
L 1825 4091 
L 703 3866 
L 703 4441 
L 1819 4666 
L 2450 4666 
L 2450 531 
L 3481 531 
L 3481 0 
L 794 0 
L 794 531 
z
" id="DejaVuSans-31" transform="scale(0.015625)"/>
       </defs>
       <use xlink:href="#DejaVuSans-31"/>
       <use x="63.623047" xlink:href="#DejaVuSans-30"/>
      </g>
     </g>
    </g>
    <g id="xtick_3">
     <g id="line2d_3">
      <g>
       <use style="stroke:#000000;stroke-width:0.8;" x="217.112458" xlink:href="#mee17ca460f" y="303.64"/>
      </g>
     </g>
     <g id="text_3">
      <!-- 20 -->
      <g transform="translate(210.749958 318.238437)scale(0.1 -0.1)">
       <defs>
        <path d="M 1228 531 
L 3431 531 
L 3431 0 
L 469 0 
L 469 531 
Q 828 903 1448 1529 
Q 2069 2156 2228 2338 
Q 2531 2678 2651 2914 
Q 2772 3150 2772 3378 
Q 2772 3750 2511 3984 
Q 2250 4219 1831 4219 
Q 1534 4219 1204 4116 
Q 875 4013 500 3803 
L 500 4441 
Q 881 4594 1212 4672 
Q 1544 4750 1819 4750 
Q 2544 4750 2975 4387 
Q 3406 4025 3406 3419 
Q 3406 3131 3298 2873 
Q 3191 2616 2906 2266 
Q 2828 2175 2409 1742 
Q 1991 1309 1228 531 
z
" id="DejaVuSans-32" transform="scale(0.015625)"/>
       </defs>
       <use xlink:href="#DejaVuSans-32"/>
       <use x="63.623047" xlink:href="#DejaVuSans-30"/>
      </g>
     </g>
    </g>
    <g id="xtick_4">
     <g id="line2d_4">
      <g>
       <use style="stroke:#000000;stroke-width:0.8;" x="291.162551" xlink:href="#mee17ca460f" y="303.64"/>
      </g>
     </g>
     <g id="text_4">
      <!-- 30 -->
      <g transform="translate(284.800051 318.238437)scale(0.1 -0.1)">
       <defs>
        <path d="M 2597 2516 
Q 3050 2419 3304 2112 
Q 3559 1806 3559 1356 
Q 3559 666 3084 287 
Q 2609 -91 1734 -91 
Q 1441 -91 1130 -33 
Q 819 25 488 141 
L 488 750 
Q 750 597 1062 519 
Q 1375 441 1716 441 
Q 2309 441 2620 675 
Q 2931 909 2931 1356 
Q 2931 1769 2642 2001 
Q 2353 2234 1838 2234 
L 1294 2234 
L 1294 2753 
L 1863 2753 
Q 2328 2753 2575 2939 
Q 2822 3125 2822 3475 
Q 2822 3834 2567 4026 
Q 2313 4219 1838 4219 
Q 1578 4219 1281 4162 
Q 984 4106 628 3988 
L 628 4550 
Q 988 4650 1302 4700 
Q 1616 4750 1894 4750 
Q 2613 4750 3031 4423 
Q 3450 4097 3450 3541 
Q 3450 3153 3228 2886 
Q 3006 2619 2597 2516 
z
" id="DejaVuSans-33" transform="scale(0.015625)"/>
       </defs>
       <use xlink:href="#DejaVuSans-33"/>
       <use x="63.623047" xlink:href="#DejaVuSans-30"/>
      </g>
     </g>
    </g>
    <g id="xtick_5">
     <g id="line2d_5">
      <g>
       <use style="stroke:#000000;stroke-width:0.8;" x="365.212644" xlink:href="#mee17ca460f" y="303.64"/>
      </g>
     </g>
     <g id="text_5">
      <!-- 40 -->
      <g transform="translate(358.850144 318.238437)scale(0.1 -0.1)">
       <defs>
        <path d="M 2419 4116 
L 825 1625 
L 2419 1625 
L 2419 4116 
z
M 2253 4666 
L 3047 4666 
L 3047 1625 
L 3713 1625 
L 3713 1100 
L 3047 1100 
L 3047 0 
L 2419 0 
L 2419 1100 
L 313 1100 
L 313 1709 
L 2253 4666 
z
" id="DejaVuSans-34" transform="scale(0.015625)"/>
       </defs>
       <use xlink:href="#DejaVuSans-34"/>
       <use x="63.623047" xlink:href="#DejaVuSans-30"/>
      </g>
     </g>
    </g>
    <g id="xtick_6">
     <g id="line2d_6">
      <g>
       <use style="stroke:#000000;stroke-width:0.8;" x="439.262737" xlink:href="#mee17ca460f" y="303.64"/>
      </g>
     </g>
     <g id="text_6">
      <!-- 50 -->
      <g transform="translate(432.900237 318.238437)scale(0.1 -0.1)">
       <defs>
        <path d="M 691 4666 
L 3169 4666 
L 3169 4134 
L 1269 4134 
L 1269 2991 
Q 1406 3038 1543 3061 
Q 1681 3084 1819 3084 
Q 2600 3084 3056 2656 
Q 3513 2228 3513 1497 
Q 3513 744 3044 326 
Q 2575 -91 1722 -91 
Q 1428 -91 1123 -41 
Q 819 9 494 109 
L 494 744 
Q 775 591 1075 516 
Q 1375 441 1709 441 
Q 2250 441 2565 725 
Q 2881 1009 2881 1497 
Q 2881 1984 2565 2268 
Q 2250 2553 1709 2553 
Q 1456 2553 1204 2497 
Q 953 2441 691 2322 
L 691 4666 
z
" id="DejaVuSans-35" transform="scale(0.015625)"/>
       </defs>
       <use xlink:href="#DejaVuSans-35"/>
       <use x="63.623047" xlink:href="#DejaVuSans-30"/>
      </g>
     </g>
    </g>
    <g id="text_7">
     <!-- Global Communication Rounds -->
     <g transform="translate(173.473281 331.916562)scale(0.1 -0.1)">
      <defs>
       <path d="M 3809 666 
L 3809 1919 
L 2778 1919 
L 2778 2438 
L 4434 2438 
L 4434 434 
Q 4069 175 3628 42 
Q 3188 -91 2688 -91 
Q 1594 -91 976 548 
Q 359 1188 359 2328 
Q 359 3472 976 4111 
Q 1594 4750 2688 4750 
Q 3144 4750 3555 4637 
Q 3966 4525 4313 4306 
L 4313 3634 
Q 3963 3931 3569 4081 
Q 3175 4231 2741 4231 
Q 1884 4231 1454 3753 
Q 1025 3275 1025 2328 
Q 1025 1384 1454 906 
Q 1884 428 2741 428 
Q 3075 428 3337 486 
Q 3600 544 3809 666 
z
" id="DejaVuSans-47" transform="scale(0.015625)"/>
       <path d="M 603 4863 
L 1178 4863 
L 1178 0 
L 603 0 
L 603 4863 
z
" id="DejaVuSans-6c" transform="scale(0.015625)"/>
       <path d="M 1959 3097 
Q 1497 3097 1228 2736 
Q 959 2375 959 1747 
Q 959 1119 1226 758 
Q 1494 397 1959 397 
Q 2419 397 2687 759 
Q 2956 1122 2956 1747 
Q 2956 2369 2687 2733 
Q 2419 3097 1959 3097 
z
M 1959 3584 
Q 2709 3584 3137 3096 
Q 3566 2609 3566 1747 
Q 3566 888 3137 398 
Q 2709 -91 1959 -91 
Q 1206 -91 779 398 
Q 353 888 353 1747 
Q 353 2609 779 3096 
Q 1206 3584 1959 3584 
z
" id="DejaVuSans-6f" transform="scale(0.015625)"/>
       <path d="M 3116 1747 
Q 3116 2381 2855 2742 
Q 2594 3103 2138 3103 
Q 1681 3103 1420 2742 
Q 1159 2381 1159 1747 
Q 1159 1113 1420 752 
Q 1681 391 2138 391 
Q 2594 391 2855 752 
Q 3116 1113 3116 1747 
z
M 1159 2969 
Q 1341 3281 1617 3432 
Q 1894 3584 2278 3584 
Q 2916 3584 3314 3078 
Q 3713 2572 3713 1747 
Q 3713 922 3314 415 
Q 2916 -91 2278 -91 
Q 1894 -91 1617 61 
Q 1341 213 1159 525 
L 1159 0 
L 581 0 
L 581 4863 
L 1159 4863 
L 1159 2969 
z
" id="DejaVuSans-62" transform="scale(0.015625)"/>
       <path d="M 2194 1759 
Q 1497 1759 1228 1600 
Q 959 1441 959 1056 
Q 959 750 1161 570 
Q 1363 391 1709 391 
Q 2188 391 2477 730 
Q 2766 1069 2766 1631 
L 2766 1759 
L 2194 1759 
z
M 3341 1997 
L 3341 0 
L 2766 0 
L 2766 531 
Q 2569 213 2275 61 
Q 1981 -91 1556 -91 
Q 1019 -91 701 211 
Q 384 513 384 1019 
Q 384 1609 779 1909 
Q 1175 2209 1959 2209 
L 2766 2209 
L 2766 2266 
Q 2766 2663 2505 2880 
Q 2244 3097 1772 3097 
Q 1472 3097 1187 3025 
Q 903 2953 641 2809 
L 641 3341 
Q 956 3463 1253 3523 
Q 1550 3584 1831 3584 
Q 2591 3584 2966 3190 
Q 3341 2797 3341 1997 
z
" id="DejaVuSans-61" transform="scale(0.015625)"/>
       <path id="DejaVuSans-20" transform="scale(0.015625)"/>
       <path d="M 4122 4306 
L 4122 3641 
Q 3803 3938 3442 4084 
Q 3081 4231 2675 4231 
Q 1875 4231 1450 3742 
Q 1025 3253 1025 2328 
Q 1025 1406 1450 917 
Q 1875 428 2675 428 
Q 3081 428 3442 575 
Q 3803 722 4122 1019 
L 4122 359 
Q 3791 134 3420 21 
Q 3050 -91 2638 -91 
Q 1578 -91 968 557 
Q 359 1206 359 2328 
Q 359 3453 968 4101 
Q 1578 4750 2638 4750 
Q 3056 4750 3426 4639 
Q 3797 4528 4122 4306 
z
" id="DejaVuSans-43" transform="scale(0.015625)"/>
       <path d="M 3328 2828 
Q 3544 3216 3844 3400 
Q 4144 3584 4550 3584 
Q 5097 3584 5394 3201 
Q 5691 2819 5691 2113 
L 5691 0 
L 5113 0 
L 5113 2094 
Q 5113 2597 4934 2840 
Q 4756 3084 4391 3084 
Q 3944 3084 3684 2787 
Q 3425 2491 3425 1978 
L 3425 0 
L 2847 0 
L 2847 2094 
Q 2847 2600 2669 2842 
Q 2491 3084 2119 3084 
Q 1678 3084 1418 2786 
Q 1159 2488 1159 1978 
L 1159 0 
L 581 0 
L 581 3500 
L 1159 3500 
L 1159 2956 
Q 1356 3278 1631 3431 
Q 1906 3584 2284 3584 
Q 2666 3584 2933 3390 
Q 3200 3197 3328 2828 
z
" id="DejaVuSans-6d" transform="scale(0.015625)"/>
       <path d="M 544 1381 
L 544 3500 
L 1119 3500 
L 1119 1403 
Q 1119 906 1312 657 
Q 1506 409 1894 409 
Q 2359 409 2629 706 
Q 2900 1003 2900 1516 
L 2900 3500 
L 3475 3500 
L 3475 0 
L 2900 0 
L 2900 538 
Q 2691 219 2414 64 
Q 2138 -91 1772 -91 
Q 1169 -91 856 284 
Q 544 659 544 1381 
z
M 1991 3584 
L 1991 3584 
z
" id="DejaVuSans-75" transform="scale(0.015625)"/>
       <path d="M 3513 2113 
L 3513 0 
L 2938 0 
L 2938 2094 
Q 2938 2591 2744 2837 
Q 2550 3084 2163 3084 
Q 1697 3084 1428 2787 
Q 1159 2491 1159 1978 
L 1159 0 
L 581 0 
L 581 3500 
L 1159 3500 
L 1159 2956 
Q 1366 3272 1645 3428 
Q 1925 3584 2291 3584 
Q 2894 3584 3203 3211 
Q 3513 2838 3513 2113 
z
" id="DejaVuSans-6e" transform="scale(0.015625)"/>
       <path d="M 603 3500 
L 1178 3500 
L 1178 0 
L 603 0 
L 603 3500 
z
M 603 4863 
L 1178 4863 
L 1178 4134 
L 603 4134 
L 603 4863 
z
" id="DejaVuSans-69" transform="scale(0.015625)"/>
       <path d="M 3122 3366 
L 3122 2828 
Q 2878 2963 2633 3030 
Q 2388 3097 2138 3097 
Q 1578 3097 1268 2742 
Q 959 2388 959 1747 
Q 959 1106 1268 751 
Q 1578 397 2138 397 
Q 2388 397 2633 464 
Q 2878 531 3122 666 
L 3122 134 
Q 2881 22 2623 -34 
Q 2366 -91 2075 -91 
Q 1284 -91 818 406 
Q 353 903 353 1747 
Q 353 2603 823 3093 
Q 1294 3584 2113 3584 
Q 2378 3584 2631 3529 
Q 2884 3475 3122 3366 
z
" id="DejaVuSans-63" transform="scale(0.015625)"/>
       <path d="M 1172 4494 
L 1172 3500 
L 2356 3500 
L 2356 3053 
L 1172 3053 
L 1172 1153 
Q 1172 725 1289 603 
Q 1406 481 1766 481 
L 2356 481 
L 2356 0 
L 1766 0 
Q 1100 0 847 248 
Q 594 497 594 1153 
L 594 3053 
L 172 3053 
L 172 3500 
L 594 3500 
L 594 4494 
L 1172 4494 
z
" id="DejaVuSans-74" transform="scale(0.015625)"/>
       <path d="M 2841 2188 
Q 3044 2119 3236 1894 
Q 3428 1669 3622 1275 
L 4263 0 
L 3584 0 
L 2988 1197 
Q 2756 1666 2539 1819 
Q 2322 1972 1947 1972 
L 1259 1972 
L 1259 0 
L 628 0 
L 628 4666 
L 2053 4666 
Q 2853 4666 3247 4331 
Q 3641 3997 3641 3322 
Q 3641 2881 3436 2590 
Q 3231 2300 2841 2188 
z
M 1259 4147 
L 1259 2491 
L 2053 2491 
Q 2509 2491 2742 2702 
Q 2975 2913 2975 3322 
Q 2975 3731 2742 3939 
Q 2509 4147 2053 4147 
L 1259 4147 
z
" id="DejaVuSans-52" transform="scale(0.015625)"/>
       <path d="M 2906 2969 
L 2906 4863 
L 3481 4863 
L 3481 0 
L 2906 0 
L 2906 525 
Q 2725 213 2448 61 
Q 2172 -91 1784 -91 
Q 1150 -91 751 415 
Q 353 922 353 1747 
Q 353 2572 751 3078 
Q 1150 3584 1784 3584 
Q 2172 3584 2448 3432 
Q 2725 3281 2906 2969 
z
M 947 1747 
Q 947 1113 1208 752 
Q 1469 391 1925 391 
Q 2381 391 2643 752 
Q 2906 1113 2906 1747 
Q 2906 2381 2643 2742 
Q 2381 3103 1925 3103 
Q 1469 3103 1208 2742 
Q 947 2381 947 1747 
z
" id="DejaVuSans-64" transform="scale(0.015625)"/>
       <path d="M 2834 3397 
L 2834 2853 
Q 2591 2978 2328 3040 
Q 2066 3103 1784 3103 
Q 1356 3103 1142 2972 
Q 928 2841 928 2578 
Q 928 2378 1081 2264 
Q 1234 2150 1697 2047 
L 1894 2003 
Q 2506 1872 2764 1633 
Q 3022 1394 3022 966 
Q 3022 478 2636 193 
Q 2250 -91 1575 -91 
Q 1294 -91 989 -36 
Q 684 19 347 128 
L 347 722 
Q 666 556 975 473 
Q 1284 391 1588 391 
Q 1994 391 2212 530 
Q 2431 669 2431 922 
Q 2431 1156 2273 1281 
Q 2116 1406 1581 1522 
L 1381 1569 
Q 847 1681 609 1914 
Q 372 2147 372 2553 
Q 372 3047 722 3315 
Q 1072 3584 1716 3584 
Q 2034 3584 2315 3537 
Q 2597 3491 2834 3397 
z
" id="DejaVuSans-73" transform="scale(0.015625)"/>
      </defs>
      <use xlink:href="#DejaVuSans-47"/>
      <use x="77.490234" xlink:href="#DejaVuSans-6c"/>
      <use x="105.273438" xlink:href="#DejaVuSans-6f"/>
      <use x="166.455078" xlink:href="#DejaVuSans-62"/>
      <use x="229.931641" xlink:href="#DejaVuSans-61"/>
      <use x="291.210938" xlink:href="#DejaVuSans-6c"/>
      <use x="318.994141" xlink:href="#DejaVuSans-20"/>
      <use x="350.78125" xlink:href="#DejaVuSans-43"/>
      <use x="420.605469" xlink:href="#DejaVuSans-6f"/>
      <use x="481.787109" xlink:href="#DejaVuSans-6d"/>
      <use x="579.199219" xlink:href="#DejaVuSans-6d"/>
      <use x="676.611328" xlink:href="#DejaVuSans-75"/>
      <use x="739.990234" xlink:href="#DejaVuSans-6e"/>
      <use x="803.369141" xlink:href="#DejaVuSans-69"/>
      <use x="831.152344" xlink:href="#DejaVuSans-63"/>
      <use x="886.132812" xlink:href="#DejaVuSans-61"/>
      <use x="947.412109" xlink:href="#DejaVuSans-74"/>
      <use x="986.621094" xlink:href="#DejaVuSans-69"/>
      <use x="1014.404297" xlink:href="#DejaVuSans-6f"/>
      <use x="1075.585938" xlink:href="#DejaVuSans-6e"/>
      <use x="1138.964844" xlink:href="#DejaVuSans-20"/>
      <use x="1170.751953" xlink:href="#DejaVuSans-52"/>
      <use x="1235.734375" xlink:href="#DejaVuSans-6f"/>
      <use x="1296.916016" xlink:href="#DejaVuSans-75"/>
      <use x="1360.294922" xlink:href="#DejaVuSans-6e"/>
      <use x="1423.673828" xlink:href="#DejaVuSans-64"/>
      <use x="1487.150391" xlink:href="#DejaVuSans-73"/>
     </g>
    </g>
   </g>
   <g id="matplotlib.axis_2">
    <g id="ytick_1">
     <g id="line2d_7">
      <defs>
       <path d="M 0 0 
L -3.5 0 
" id="m157c60f725" style="stroke:#000000;stroke-width:0.8;"/>
      </defs>
      <g>
       <use style="stroke:#000000;stroke-width:0.8;" x="50.87" xlink:href="#m157c60f725" y="264.867566"/>
      </g>
     </g>
     <g id="text_8">
      <!-- 20 -->
      <g transform="translate(31.145 268.666785)scale(0.1 -0.1)">
       <use xlink:href="#DejaVuSans-32"/>
       <use x="63.623047" xlink:href="#DejaVuSans-30"/>
      </g>
     </g>
    </g>
    <g id="ytick_2">
     <g id="line2d_8">
      <g>
       <use style="stroke:#000000;stroke-width:0.8;" x="50.87" xlink:href="#m157c60f725" y="215.720955"/>
      </g>
     </g>
     <g id="text_9">
      <!-- 40 -->
      <g transform="translate(31.145 219.520174)scale(0.1 -0.1)">
       <use xlink:href="#DejaVuSans-34"/>
       <use x="63.623047" xlink:href="#DejaVuSans-30"/>
      </g>
     </g>
    </g>
    <g id="ytick_3">
     <g id="line2d_9">
      <g>
       <use style="stroke:#000000;stroke-width:0.8;" x="50.87" xlink:href="#m157c60f725" y="166.574344"/>
      </g>
     </g>
     <g id="text_10">
      <!-- 60 -->
      <g transform="translate(31.145 170.373563)scale(0.1 -0.1)">
       <defs>
        <path d="M 2113 2584 
Q 1688 2584 1439 2293 
Q 1191 2003 1191 1497 
Q 1191 994 1439 701 
Q 1688 409 2113 409 
Q 2538 409 2786 701 
Q 3034 994 3034 1497 
Q 3034 2003 2786 2293 
Q 2538 2584 2113 2584 
z
M 3366 4563 
L 3366 3988 
Q 3128 4100 2886 4159 
Q 2644 4219 2406 4219 
Q 1781 4219 1451 3797 
Q 1122 3375 1075 2522 
Q 1259 2794 1537 2939 
Q 1816 3084 2150 3084 
Q 2853 3084 3261 2657 
Q 3669 2231 3669 1497 
Q 3669 778 3244 343 
Q 2819 -91 2113 -91 
Q 1303 -91 875 529 
Q 447 1150 447 2328 
Q 447 3434 972 4092 
Q 1497 4750 2381 4750 
Q 2619 4750 2861 4703 
Q 3103 4656 3366 4563 
z
" id="DejaVuSans-36" transform="scale(0.015625)"/>
       </defs>
       <use xlink:href="#DejaVuSans-36"/>
       <use x="63.623047" xlink:href="#DejaVuSans-30"/>
      </g>
     </g>
    </g>
    <g id="ytick_4">
     <g id="line2d_10">
      <g>
       <use style="stroke:#000000;stroke-width:0.8;" x="50.87" xlink:href="#m157c60f725" y="117.427733"/>
      </g>
     </g>
     <g id="text_11">
      <!-- 80 -->
      <g transform="translate(31.145 121.226952)scale(0.1 -0.1)">
       <defs>
        <path d="M 2034 2216 
Q 1584 2216 1326 1975 
Q 1069 1734 1069 1313 
Q 1069 891 1326 650 
Q 1584 409 2034 409 
Q 2484 409 2743 651 
Q 3003 894 3003 1313 
Q 3003 1734 2745 1975 
Q 2488 2216 2034 2216 
z
M 1403 2484 
Q 997 2584 770 2862 
Q 544 3141 544 3541 
Q 544 4100 942 4425 
Q 1341 4750 2034 4750 
Q 2731 4750 3128 4425 
Q 3525 4100 3525 3541 
Q 3525 3141 3298 2862 
Q 3072 2584 2669 2484 
Q 3125 2378 3379 2068 
Q 3634 1759 3634 1313 
Q 3634 634 3220 271 
Q 2806 -91 2034 -91 
Q 1263 -91 848 271 
Q 434 634 434 1313 
Q 434 1759 690 2068 
Q 947 2378 1403 2484 
z
M 1172 3481 
Q 1172 3119 1398 2916 
Q 1625 2713 2034 2713 
Q 2441 2713 2670 2916 
Q 2900 3119 2900 3481 
Q 2900 3844 2670 4047 
Q 2441 4250 2034 4250 
Q 1625 4250 1398 4047 
Q 1172 3844 1172 3481 
z
" id="DejaVuSans-38" transform="scale(0.015625)"/>
       </defs>
       <use xlink:href="#DejaVuSans-38"/>
       <use x="63.623047" xlink:href="#DejaVuSans-30"/>
      </g>
     </g>
    </g>
    <g id="ytick_5">
     <g id="line2d_11">
      <g>
       <use style="stroke:#000000;stroke-width:0.8;" x="50.87" xlink:href="#m157c60f725" y="68.281122"/>
      </g>
     </g>
     <g id="text_12">
      <!-- 100 -->
      <g transform="translate(24.7825 72.080341)scale(0.1 -0.1)">
       <use xlink:href="#DejaVuSans-31"/>
       <use x="63.623047" xlink:href="#DejaVuSans-30"/>
       <use x="127.246094" xlink:href="#DejaVuSans-30"/>
      </g>
     </g>
    </g>
    <g id="text_13">
     <!-- Test Accuracy -->
     <g transform="translate(18.702813 210.2725)rotate(-90)scale(0.1 -0.1)">
      <defs>
       <path d="M -19 4666 
L 3928 4666 
L 3928 4134 
L 2272 4134 
L 2272 0 
L 1638 0 
L 1638 4134 
L -19 4134 
L -19 4666 
z
" id="DejaVuSans-54" transform="scale(0.015625)"/>
       <path d="M 3597 1894 
L 3597 1613 
L 953 1613 
Q 991 1019 1311 708 
Q 1631 397 2203 397 
Q 2534 397 2845 478 
Q 3156 559 3463 722 
L 3463 178 
Q 3153 47 2828 -22 
Q 2503 -91 2169 -91 
Q 1331 -91 842 396 
Q 353 884 353 1716 
Q 353 2575 817 3079 
Q 1281 3584 2069 3584 
Q 2775 3584 3186 3129 
Q 3597 2675 3597 1894 
z
M 3022 2063 
Q 3016 2534 2758 2815 
Q 2500 3097 2075 3097 
Q 1594 3097 1305 2825 
Q 1016 2553 972 2059 
L 3022 2063 
z
" id="DejaVuSans-65" transform="scale(0.015625)"/>
       <path d="M 2188 4044 
L 1331 1722 
L 3047 1722 
L 2188 4044 
z
M 1831 4666 
L 2547 4666 
L 4325 0 
L 3669 0 
L 3244 1197 
L 1141 1197 
L 716 0 
L 50 0 
L 1831 4666 
z
" id="DejaVuSans-41" transform="scale(0.015625)"/>
       <path d="M 2631 2963 
Q 2534 3019 2420 3045 
Q 2306 3072 2169 3072 
Q 1681 3072 1420 2755 
Q 1159 2438 1159 1844 
L 1159 0 
L 581 0 
L 581 3500 
L 1159 3500 
L 1159 2956 
Q 1341 3275 1631 3429 
Q 1922 3584 2338 3584 
Q 2397 3584 2469 3576 
Q 2541 3569 2628 3553 
L 2631 2963 
z
" id="DejaVuSans-72" transform="scale(0.015625)"/>
       <path d="M 2059 -325 
Q 1816 -950 1584 -1140 
Q 1353 -1331 966 -1331 
L 506 -1331 
L 506 -850 
L 844 -850 
Q 1081 -850 1212 -737 
Q 1344 -625 1503 -206 
L 1606 56 
L 191 3500 
L 800 3500 
L 1894 763 
L 2988 3500 
L 3597 3500 
L 2059 -325 
z
" id="DejaVuSans-79" transform="scale(0.015625)"/>
      </defs>
      <use xlink:href="#DejaVuSans-54"/>
      <use x="44.083984" xlink:href="#DejaVuSans-65"/>
      <use x="105.607422" xlink:href="#DejaVuSans-73"/>
      <use x="157.707031" xlink:href="#DejaVuSans-74"/>
      <use x="196.916016" xlink:href="#DejaVuSans-20"/>
      <use x="228.703125" xlink:href="#DejaVuSans-41"/>
      <use x="295.361328" xlink:href="#DejaVuSans-63"/>
      <use x="350.341797" xlink:href="#DejaVuSans-63"/>
      <use x="405.322266" xlink:href="#DejaVuSans-75"/>
      <use x="468.701172" xlink:href="#DejaVuSans-72"/>
      <use x="509.814453" xlink:href="#DejaVuSans-61"/>
      <use x="571.09375" xlink:href="#DejaVuSans-63"/>
      <use x="626.074219" xlink:href="#DejaVuSans-79"/>
     </g>
    </g>
   </g>
   <g id="line2d_12">
    <path clip-path="url(#pcc0085d593)" d="M 69.012273 264.494301 
L 76.417282 210.370818 
L 83.822291 175.470503 
L 91.227301 157.30492 
L 98.63231 123.524401 
L 106.037319 106.229771 
L 113.442328 110.086847 
L 120.847338 106.727458 
L 128.252347 101.066266 
L 135.657356 94.285278 
L 143.062365 94.534122 
L 150.467375 84.891432 
L 157.872384 84.518167 
L 165.277393 82.465207 
L 172.682403 84.393745 
L 180.087412 86.07344 
L 187.492421 78.48371 
L 194.89743 77.426124 
L 202.30244 82.900684 
L 209.707449 81.2832 
L 217.112458 80.412248 
L 224.517468 78.732553 
L 231.922477 76.928437 
L 239.327486 77.11507 
L 246.732495 74.253368 
L 254.137505 76.43075 
L 261.542514 74.502212 
L 268.947523 75.124321 
L 276.352532 74.37779 
L 283.757542 75.995274 
L 291.162551 73.631259 
L 298.56756 74.191158 
L 305.97257 73.817892 
L 313.377579 73.257994 
L 320.782588 73.755681 
L 328.187597 73.320205 
L 335.592607 73.880103 
L 342.997616 73.00915 
L 350.402625 72.449252 
L 357.807635 71.5783 
L 365.212644 72.26262 
L 372.617653 72.324831 
L 380.022662 71.764932 
L 387.427672 71.391667 
L 394.832681 72.324831 
L 402.23769 71.453878 
L 409.642699 71.889354 
L 417.047709 72.26262 
L 424.452718 71.391667 
L 431.857727 71.391667 
" style="fill:none;stroke:#1f77b4;stroke-linecap:square;stroke-width:1.5;"/>
   </g>
   <g id="line2d_13">
    <path clip-path="url(#pcc0085d593)" d="M 69.012273 283.344204 
L 76.417282 270.342126 
L 83.822291 226.545652 
L 91.227301 230.900415 
L 98.63231 255.535931 
L 106.037319 170.058155 
L 113.442328 189.903432 
L 120.847338 206.38932 
L 128.252347 177.461252 
L 135.657356 143.805155 
L 143.062365 171.364584 
L 150.467375 146.106958 
L 157.872384 130.803077 
L 165.277393 144.738318 
L 172.682403 156.807233 
L 180.087412 153.883321 
L 187.492421 135.406683 
L 194.89743 125.763994 
L 202.30244 128.003586 
L 209.707449 133.229302 
L 217.112458 131.549607 
L 224.517468 138.206174 
L 231.922477 126.759368 
L 239.327486 121.969129 
L 246.732495 117.365522 
L 254.137505 131.238553 
L 261.542514 126.137259 
L 268.947523 101.439532 
L 276.352532 123.026714 
L 283.757542 124.519776 
L 291.162551 144.17842 
L 298.56756 139.32597 
L 305.97257 133.291513 
L 313.377579 131.860662 
L 320.782588 130.305389 
L 328.187597 122.964503 
L 335.592607 130.180968 
L 342.997616 119.231849 
L 350.402625 104.05239 
L 357.807635 111.828752 
L 365.212644 102.248274 
L 372.617653 90.614835 
L 380.022662 100.070892 
L 387.427672 103.865757 
L 394.832681 118.112053 
L 402.23769 101.563954 
L 409.642699 98.764463 
L 417.047709 104.923342 
L 424.452718 93.289904 
L 431.857727 109.838003 
" style="fill:none;stroke:#ff7f0e;stroke-linecap:square;stroke-width:1.5;"/>
   </g>
   <g id="line2d_14">
    <path clip-path="url(#pcc0085d593)" d="M 69.012273 254.913822 
L 76.417282 196.933263 
L 83.822291 175.594925 
L 91.227301 153.012368 
L 98.63231 129.496648 
L 106.037319 107.847255 
L 113.442328 108.469364 
L 120.847338 111.393276 
L 128.252347 103.741335 
L 135.657356 102.559328 
L 143.062365 99.884259 
L 150.467375 96.46266 
L 157.872384 100.319736 
L 165.277393 93.414326 
L 172.682403 94.285278 
L 180.087412 94.036435 
L 187.492421 92.35674 
L 194.89743 89.743883 
L 202.30244 91.361366 
L 209.707449 91.61021 
L 217.112458 89.992726 
L 224.517468 87.131025 
L 231.922477 87.50429 
L 239.327486 87.379868 
L 246.732495 87.131025 
L 254.137505 86.197861 
L 261.542514 88.126399 
L 268.947523 86.882181 
L 276.352532 85.637963 
L 283.757542 84.767011 
L 291.162551 85.575752 
L 298.56756 85.513541 
L 305.97257 85.575752 
L 313.377579 85.202487 
L 320.782588 84.7048 
L 328.187597 84.891432 
L 335.592607 85.326909 
L 342.997616 84.891432 
L 350.402625 83.522793 
L 357.807635 85.015854 
L 365.212644 84.393745 
L 372.617653 83.958269 
L 380.022662 83.896058 
L 387.427672 83.896058 
L 394.832681 84.518167 
L 402.23769 84.393745 
L 409.642699 83.709425 
L 417.047709 84.082691 
L 424.452718 84.02048 
L 431.857727 84.144902 
" style="fill:none;stroke:#2ca02c;stroke-linecap:square;stroke-width:1.5;"/>
   </g>
   <g id="line2d_15">
    <path clip-path="url(#pcc0085d593)" d="M 69.012273 253.593334 
L 76.417282 215.696382 
L 83.822291 199.517318 
L 91.227301 191.752153 
L 98.63231 182.232455 
L 106.037319 171.661018 
L 113.442328 159.266243 
L 120.847338 151.569884 
L 128.252347 146.33577 
L 135.657356 140.226846 
L 143.062365 134.132666 
L 150.467375 130.476158 
L 157.872384 126.549344 
L 165.277393 123.689011 
L 172.682403 122.244101 
L 180.087412 121.236596 
L 187.492421 118.449983 
L 194.89743 118.05681 
L 202.30244 116.557838 
L 209.707449 116.149921 
L 217.112458 115.191562 
L 224.517468 115.314429 
L 231.922477 113.92358 
L 239.327486 113.41737 
L 246.732495 113.437028 
L 254.137505 113.147063 
L 261.542514 112.429523 
L 268.947523 112.606451 
L 276.352532 112.724402 
L 283.757542 112.154302 
L 291.162551 110.945295 
L 298.56756 110.704477 
L 305.97257 110.242499 
L 313.377579 110.026254 
L 320.782588 109.751033 
L 328.187597 109.839496 
L 335.592607 109.166188 
L 342.997616 109.456153 
L 350.402625 108.723868 
L 357.807635 108.571514 
L 365.212644 108.075133 
L 372.617653 108.065304 
L 380.022662 108.468306 
L 387.427672 108.021072 
L 394.832681 108.286464 
L 402.23769 107.912949 
L 409.642699 108.12428 
L 417.047709 107.986669 
L 424.452718 107.917864 
L 431.857727 107.210153 
" style="fill:none;stroke:#d62728;stroke-linecap:square;stroke-width:1.5;"/>
   </g>
   <g id="patch_3">
    <path d="M 50.87 303.64 
L 50.87 48.38 
" style="fill:none;stroke:#000000;stroke-linecap:square;stroke-linejoin:miter;stroke-width:0.8;"/>
   </g>
   <g id="patch_4">
    <path d="M 450 303.64 
L 450 48.38 
" style="fill:none;stroke:#000000;stroke-linecap:square;stroke-linejoin:miter;stroke-width:0.8;"/>
   </g>
   <g id="patch_5">
    <path d="M 50.87 303.64 
L 450 303.64 
" style="fill:none;stroke:#000000;stroke-linecap:square;stroke-linejoin:miter;stroke-width:0.8;"/>
   </g>
   <g id="patch_6">
    <path d="M 50.87 48.38 
L 450 48.38 
" style="fill:none;stroke:#000000;stroke-linecap:square;stroke-linejoin:miter;stroke-width:0.8;"/>
   </g>
   <g id="text_14">
    <!-- Local Rounds 05 -->
    <g transform="translate(201.324062 20.88)scale(0.12 -0.12)">
     <defs>
      <path d="M 628 4666 
L 1259 4666 
L 1259 531 
L 3531 531 
L 3531 0 
L 628 0 
L 628 4666 
z
" id="DejaVuSans-4c" transform="scale(0.015625)"/>
     </defs>
     <use xlink:href="#DejaVuSans-4c"/>
     <use x="53.962891" xlink:href="#DejaVuSans-6f"/>
     <use x="115.144531" xlink:href="#DejaVuSans-63"/>
     <use x="170.125" xlink:href="#DejaVuSans-61"/>
     <use x="231.404297" xlink:href="#DejaVuSans-6c"/>
     <use x="259.1875" xlink:href="#DejaVuSans-20"/>
     <use x="290.974609" xlink:href="#DejaVuSans-52"/>
     <use x="355.957031" xlink:href="#DejaVuSans-6f"/>
     <use x="417.138672" xlink:href="#DejaVuSans-75"/>
     <use x="480.517578" xlink:href="#DejaVuSans-6e"/>
     <use x="543.896484" xlink:href="#DejaVuSans-64"/>
     <use x="607.373047" xlink:href="#DejaVuSans-73"/>
     <use x="659.472656" xlink:href="#DejaVuSans-20"/>
     <use x="691.259766" xlink:href="#DejaVuSans-30"/>
     <use x="754.882812" xlink:href="#DejaVuSans-35"/>
    </g>
   </g>
   <g id="legend_1">
    <g id="patch_7">
     <path d="M 84.036563 45.532125 
L 416.833438 45.532125 
Q 418.833438 45.532125 418.833438 43.532125 
L 418.833438 29.854 
Q 418.833438 27.854 416.833438 27.854 
L 84.036563 27.854 
Q 82.036563 27.854 82.036563 29.854 
L 82.036563 43.532125 
Q 82.036563 45.532125 84.036563 45.532125 
z
" style="fill:#ffffff;opacity:0.8;stroke:#cccccc;stroke-linejoin:miter;"/>
    </g>
    <g id="line2d_16">
     <path d="M 86.036563 35.952438 
L 106.036563 35.952438 
" style="fill:none;stroke:#1f77b4;stroke-linecap:square;stroke-width:1.5;"/>
    </g>
    <g id="line2d_17"/>
    <g id="text_15">
     <!-- FedAvg -->
     <g transform="translate(114.036563 39.452438)scale(0.1 -0.1)">
      <defs>
       <path d="M 628 4666 
L 3309 4666 
L 3309 4134 
L 1259 4134 
L 1259 2759 
L 3109 2759 
L 3109 2228 
L 1259 2228 
L 1259 0 
L 628 0 
L 628 4666 
z
" id="DejaVuSans-46" transform="scale(0.015625)"/>
       <path d="M 191 3500 
L 800 3500 
L 1894 563 
L 2988 3500 
L 3597 3500 
L 2284 0 
L 1503 0 
L 191 3500 
z
" id="DejaVuSans-76" transform="scale(0.015625)"/>
       <path d="M 2906 1791 
Q 2906 2416 2648 2759 
Q 2391 3103 1925 3103 
Q 1463 3103 1205 2759 
Q 947 2416 947 1791 
Q 947 1169 1205 825 
Q 1463 481 1925 481 
Q 2391 481 2648 825 
Q 2906 1169 2906 1791 
z
M 3481 434 
Q 3481 -459 3084 -895 
Q 2688 -1331 1869 -1331 
Q 1566 -1331 1297 -1286 
Q 1028 -1241 775 -1147 
L 775 -588 
Q 1028 -725 1275 -790 
Q 1522 -856 1778 -856 
Q 2344 -856 2625 -561 
Q 2906 -266 2906 331 
L 2906 616 
Q 2728 306 2450 153 
Q 2172 0 1784 0 
Q 1141 0 747 490 
Q 353 981 353 1791 
Q 353 2603 747 3093 
Q 1141 3584 1784 3584 
Q 2172 3584 2450 3431 
Q 2728 3278 2906 2969 
L 2906 3500 
L 3481 3500 
L 3481 434 
z
" id="DejaVuSans-67" transform="scale(0.015625)"/>
      </defs>
      <use xlink:href="#DejaVuSans-46"/>
      <use x="52.019531" xlink:href="#DejaVuSans-65"/>
      <use x="113.542969" xlink:href="#DejaVuSans-64"/>
      <use x="177.019531" xlink:href="#DejaVuSans-41"/>
      <use x="239.552734" xlink:href="#DejaVuSans-76"/>
      <use x="298.732422" xlink:href="#DejaVuSans-67"/>
     </g>
    </g>
    <g id="line2d_18">
     <path d="M 170.26 35.952438 
L 190.26 35.952438 
" style="fill:none;stroke:#ff7f0e;stroke-linecap:square;stroke-width:1.5;"/>
    </g>
    <g id="line2d_19"/>
    <g id="text_16">
     <!-- FedMed -->
     <g transform="translate(198.26 39.452438)scale(0.1 -0.1)">
      <defs>
       <path d="M 628 4666 
L 1569 4666 
L 2759 1491 
L 3956 4666 
L 4897 4666 
L 4897 0 
L 4281 0 
L 4281 4097 
L 3078 897 
L 2444 897 
L 1241 4097 
L 1241 0 
L 628 0 
L 628 4666 
z
" id="DejaVuSans-4d" transform="scale(0.015625)"/>
      </defs>
      <use xlink:href="#DejaVuSans-46"/>
      <use x="52.019531" xlink:href="#DejaVuSans-65"/>
      <use x="113.542969" xlink:href="#DejaVuSans-64"/>
      <use x="177.019531" xlink:href="#DejaVuSans-4d"/>
      <use x="263.298828" xlink:href="#DejaVuSans-65"/>
      <use x="324.822266" xlink:href="#DejaVuSans-64"/>
     </g>
    </g>
    <g id="line2d_20">
     <path d="M 257.092813 35.952438 
L 277.092813 35.952438 
" style="fill:none;stroke:#2ca02c;stroke-linecap:square;stroke-width:1.5;"/>
    </g>
    <g id="line2d_21"/>
    <g id="text_17">
     <!-- FedProx -->
     <g transform="translate(285.092813 39.452438)scale(0.1 -0.1)">
      <defs>
       <path d="M 1259 4147 
L 1259 2394 
L 2053 2394 
Q 2494 2394 2734 2622 
Q 2975 2850 2975 3272 
Q 2975 3691 2734 3919 
Q 2494 4147 2053 4147 
L 1259 4147 
z
M 628 4666 
L 2053 4666 
Q 2838 4666 3239 4311 
Q 3641 3956 3641 3272 
Q 3641 2581 3239 2228 
Q 2838 1875 2053 1875 
L 1259 1875 
L 1259 0 
L 628 0 
L 628 4666 
z
" id="DejaVuSans-50" transform="scale(0.015625)"/>
       <path d="M 3513 3500 
L 2247 1797 
L 3578 0 
L 2900 0 
L 1881 1375 
L 863 0 
L 184 0 
L 1544 1831 
L 300 3500 
L 978 3500 
L 1906 2253 
L 2834 3500 
L 3513 3500 
z
" id="DejaVuSans-78" transform="scale(0.015625)"/>
      </defs>
      <use xlink:href="#DejaVuSans-46"/>
      <use x="52.019531" xlink:href="#DejaVuSans-65"/>
      <use x="113.542969" xlink:href="#DejaVuSans-64"/>
      <use x="177.019531" xlink:href="#DejaVuSans-50"/>
      <use x="235.572266" xlink:href="#DejaVuSans-72"/>
      <use x="274.435547" xlink:href="#DejaVuSans-6f"/>
      <use x="332.492188" xlink:href="#DejaVuSans-78"/>
     </g>
    </g>
    <g id="line2d_22">
     <path d="M 344.261563 35.952438 
L 364.261563 35.952438 
" style="fill:none;stroke:#d62728;stroke-linecap:square;stroke-width:1.5;"/>
    </g>
    <g id="line2d_23"/>
    <g id="text_18">
     <!-- qFedAvg -->
     <g transform="translate(372.261563 39.452438)scale(0.1 -0.1)">
      <defs>
       <path d="M 947 1747 
Q 947 1113 1208 752 
Q 1469 391 1925 391 
Q 2381 391 2643 752 
Q 2906 1113 2906 1747 
Q 2906 2381 2643 2742 
Q 2381 3103 1925 3103 
Q 1469 3103 1208 2742 
Q 947 2381 947 1747 
z
M 2906 525 
Q 2725 213 2448 61 
Q 2172 -91 1784 -91 
Q 1150 -91 751 415 
Q 353 922 353 1747 
Q 353 2572 751 3078 
Q 1150 3584 1784 3584 
Q 2172 3584 2448 3432 
Q 2725 3281 2906 2969 
L 2906 3500 
L 3481 3500 
L 3481 -1331 
L 2906 -1331 
L 2906 525 
z
" id="DejaVuSans-71" transform="scale(0.015625)"/>
      </defs>
      <use xlink:href="#DejaVuSans-71"/>
      <use x="63.476562" xlink:href="#DejaVuSans-46"/>
      <use x="115.496094" xlink:href="#DejaVuSans-65"/>
      <use x="177.019531" xlink:href="#DejaVuSans-64"/>
      <use x="240.496094" xlink:href="#DejaVuSans-41"/>
      <use x="303.029297" xlink:href="#DejaVuSans-76"/>
      <use x="362.208984" xlink:href="#DejaVuSans-67"/>
     </g>
    </g>
   </g>
  </g>
 </g>
 <defs>
  <clipPath id="pcc0085d593">
   <rect height="255.26" width="399.13" x="50.87" y="48.38"/>
  </clipPath>
 </defs>
</svg>
