<?xml version="1.0" encoding="utf-8" standalone="no"?>
<!DOCTYPE svg PUBLIC "-//W3C//DTD SVG 1.1//EN"
  "http://www.w3.org/Graphics/SVG/1.1/DTD/svg11.dtd">
<svg height="345.6pt" version="1.1" viewBox="0 0 460.8 345.6" width="460.8pt" xmlns="http://www.w3.org/2000/svg" xmlns:xlink="http://www.w3.org/1999/xlink">
 <metadata>
  <rdf:RDF xmlns:cc="http://creativecommons.org/ns#" xmlns:dc="http://purl.org/dc/elements/1.1/" xmlns:rdf="http://www.w3.org/1999/02/22-rdf-syntax-ns#">
   <cc:Work>
    <dc:type rdf:resource="http://purl.org/dc/dcmitype/StillImage"/>
    <dc:date>2021-04-30T09:52:31.363679</dc:date>
    <dc:format>image/svg+xml</dc:format>
    <dc:creator>
     <cc:Agent>
      <dc:title>Matplotlib v3.4.1, https://matplotlib.org/</dc:title>
     </cc:Agent>
    </dc:creator>
   </cc:Work>
  </rdf:RDF>
 </metadata>
 <defs>
  <style type="text/css">*{stroke-linecap:butt;stroke-linejoin:round;}</style>
 </defs>
 <g id="figure_1">
  <g id="patch_1">
   <path d="M 0 345.6 
L 460.8 345.6 
L 460.8 0 
L 0 0 
z
" style="fill:#ffffff;"/>
  </g>
  <g id="axes_1">
   <g id="patch_2">
    <path d="M 50.87 303.64 
L 366.25 303.64 
L 366.25 26.88 
L 50.87 26.88 
z
" style="fill:#ffffff;"/>
   </g>
   <g id="PolyCollection_1">
    <path clip-path="url(#p38e06f0cec)" d="M 65.205455 239.456399 
L 65.205455 262.736342 
L 71.05666 221.667639 
L 76.907866 162.828643 
L 82.759072 152.67442 
L 88.610278 115.75127 
L 94.461484 92.119386 
L 100.31269 89.471036 
L 106.163896 97.971635 
L 112.015102 83.982231 
L 117.866308 84.337429 
L 123.717514 80.341791 
L 129.56872 61.56235 
L 135.419926 57.706405 
L 141.271132 56.453843 
L 147.122338 59.390335 
L 152.973544 59.287488 
L 158.82475 49.977531 
L 164.675955 48.58781 
L 170.527161 60.034391 
L 176.378367 60.437855 
L 182.229573 57.642164 
L 188.080779 51.144582 
L 193.931985 47.577062 
L 199.783191 48.320692 
L 205.634397 45.801036 
L 211.485603 50.024288 
L 217.336809 49.14913 
L 223.188015 50.73479 
L 229.039221 46.693582 
L 234.890427 53.494835 
L 240.741633 46.414458 
L 246.592839 44.517208 
L 252.444045 46.14795 
L 258.29525 44.366475 
L 264.146456 43.886328 
L 269.997662 43.017643 
L 275.848868 44.846955 
L 281.700074 45.946024 
L 287.55128 44.607329 
L 293.402486 41.706709 
L 299.253692 42.518734 
L 305.104898 43.26331 
L 310.956104 43.031733 
L 316.80731 43.510654 
L 322.658516 42.518734 
L 328.509722 43.118415 
L 334.360928 41.73987 
L 340.212134 43.90968 
L 346.06334 41.802086 
L 351.914545 41.900673 
L 351.914545 39.685496 
L 351.914545 39.685496 
L 346.06334 40.199429 
L 340.212134 40.722356 
L 334.360928 40.261645 
L 328.509722 40.267585 
L 322.658516 40.590369 
L 316.80731 39.46 
L 310.956104 40.354266 
L 305.104898 41.09183 
L 299.253692 40.590369 
L 293.402486 40.294806 
L 287.55128 40.440052 
L 281.700074 41.178086 
L 275.848868 40.615773 
L 269.997662 41.475945 
L 264.146456 41.714848 
L 258.29525 42.20384 
L 252.444045 41.253056 
L 246.592839 43.160695 
L 240.741633 41.678791 
L 234.890427 41.52084 
L 229.039221 40.845873 
L 223.188015 40.127429 
L 217.336809 41.297744 
L 211.485603 44.299144 
L 205.634397 42.153765 
L 199.783191 43.233769 
L 193.931985 43.146709 
L 188.080779 43.871092 
L 182.229573 41.11162 
L 176.378367 41.500245 
L 170.527161 44.257334 
L 164.675955 46.012519 
L 158.82475 46.145732 
L 152.973544 45.55803 
L 147.122338 47.67036 
L 141.271132 44.515117 
L 135.419926 46.446872 
L 129.56872 49.513352 
L 123.717514 50.670496 
L 117.866308 50.828313 
L 112.015102 55.752312 
L 106.163896 62.94553 
L 100.31269 75.045791 
L 94.461484 69.766918 
L 88.610278 92.792182 
L 82.759072 116.094134 
L 76.907866 131.13754 
L 71.05666 138.61538 
L 65.205455 239.456399 
z
" style="fill:#1f77b4;fill-opacity:0.5;"/>
   </g>
   <g id="PolyCollection_2">
    <path clip-path="url(#p38e06f0cec)" d="M 65.205455 267.342837 
L 65.205455 291.06 
L 71.05666 273.230934 
L 76.907866 251.864084 
L 82.759072 255.5941 
L 88.610278 261.687228 
L 94.461484 180.882488 
L 100.31269 217.615165 
L 106.163896 231.990038 
L 112.015102 220.327215 
L 117.866308 180.169636 
L 123.717514 201.632415 
L 129.56872 157.025818 
L 135.419926 139.21338 
L 141.271132 149.719077 
L 147.122338 170.804745 
L 152.973544 175.472184 
L 158.82475 156.28195 
L 164.675955 121.220501 
L 170.527161 125.175274 
L 176.378367 131.671613 
L 182.229573 124.383573 
L 188.080779 129.317248 
L 193.931985 123.069776 
L 199.783191 127.814462 
L 205.634397 120.403376 
L 211.485603 148.653235 
L 217.336809 161.259185 
L 223.188015 98.338004 
L 229.039221 130.558231 
L 234.890427 156.945462 
L 240.741633 190.416859 
L 246.592839 188.57235 
L 252.444045 158.51485 
L 258.29525 129.793979 
L 264.146456 135.673196 
L 269.997662 138.326413 
L 275.848868 141.781091 
L 281.700074 111.68941 
L 287.55128 91.525447 
L 293.402486 106.23727 
L 299.253692 90.227948 
L 305.104898 64.08316 
L 310.956104 91.677208 
L 316.80731 91.791705 
L 322.658516 103.933859 
L 328.509722 83.993139 
L 334.360928 88.951367 
L 340.212134 101.445696 
L 346.06334 84.450096 
L 351.914545 104.392478 
L 351.914545 54.586408 
L 351.914545 54.586408 
L 346.06334 52.653926 
L 340.212134 65.978549 
L 334.360928 68.08924 
L 328.509722 72.355226 
L 322.658516 73.735576 
L 316.80731 55.972852 
L 310.956104 51.518548 
L 305.104898 53.914967 
L 299.253692 65.012829 
L 293.402486 52.603168 
L 287.55128 64.961366 
L 281.700074 66.395371 
L 275.848868 54.717341 
L 269.997662 63.433063 
L 264.146456 96.406504 
L 258.29525 84.564311 
L 252.444045 74.533988 
L 246.592839 63.167038 
L 240.741633 50.246648 
L 234.890427 47.721433 
L 229.039221 57.079497 
L 223.188015 51.780177 
L 217.336809 40.361843 
L 211.485603 83.011119 
L 205.634397 64.465381 
L 199.783191 70.206904 
L 193.931985 73.705553 
L 188.080779 84.071902 
L 182.229573 72.668653 
L 176.378367 76.041148 
L 170.527161 81.153002 
L 164.675955 78.323799 
L 158.82475 64.444972 
L 152.973544 91.911885 
L 147.122338 94.779493 
L 141.271132 97.45151 
L 135.419926 82.344233 
L 129.56872 105.512553 
L 123.717514 106.178619 
L 117.866308 72.123546 
L 112.015102 99.944185 
L 106.163896 144.491457 
L 100.31269 139.34509 
L 94.461484 127.343892 
L 88.610278 208.939254 
L 82.759072 177.789733 
L 76.907866 166.705758 
L 71.05666 231.453881 
L 65.205455 267.342837 
z
" style="fill:#ff7f0e;fill-opacity:0.5;"/>
   </g>
   <g id="PolyCollection_3">
    <path clip-path="url(#p38e06f0cec)" d="M 65.205455 207.551447 
L 65.205455 232.616363 
L 71.05666 232.958123 
L 76.907866 167.791578 
L 82.759072 123.977343 
L 88.610278 129.381015 
L 94.461484 101.915147 
L 100.31269 93.083692 
L 106.163896 89.241659 
L 112.015102 86.571472 
L 117.866308 66.255171 
L 123.717514 64.82644 
L 129.56872 66.529568 
L 135.419926 59.098905 
L 141.271132 53.886252 
L 147.122338 52.705286 
L 152.973544 55.291443 
L 158.82475 51.82042 
L 164.675955 54.971274 
L 170.527161 54.669313 
L 176.378367 51.597307 
L 182.229573 52.826541 
L 188.080779 53.020395 
L 193.931985 52.512039 
L 199.783191 51.597728 
L 205.634397 50.334938 
L 211.485603 51.296045 
L 217.336809 60.837254 
L 223.188015 50.691384 
L 229.039221 49.85964 
L 234.890427 50.584417 
L 240.741633 50.313638 
L 246.592839 50.250761 
L 252.444045 50.524735 
L 258.29525 50.0662 
L 264.146456 50.419407 
L 269.997662 50.601314 
L 275.848868 50.299211 
L 281.700074 50.523675 
L 287.55128 49.658579 
L 293.402486 49.382297 
L 299.253692 49.670212 
L 305.104898 49.866738 
L 310.956104 50.224561 
L 316.80731 50.588178 
L 322.658516 50.700943 
L 328.509722 50.312404 
L 334.360928 50.185698 
L 340.212134 49.62655 
L 346.06334 49.750089 
L 351.914545 49.449082 
L 351.914545 39.751755 
L 351.914545 39.751755 
L 346.06334 40.696785 
L 340.212134 40.681876 
L 334.360928 41.230316 
L 328.509722 41.795851 
L 322.658516 42.514901 
L 316.80731 41.935423 
L 310.956104 42.022144 
L 305.104898 41.687723 
L 299.253692 41.192007 
L 293.402486 40.510783 
L 287.55128 40.649846 
L 281.700074 42.415272 
L 275.848868 42.362838 
L 269.997662 43.306772 
L 264.146456 43.48868 
L 258.29525 41.903607 
L 252.444045 43.937146 
L 246.592839 42.549738 
L 240.741633 42.209964 
L 234.890427 42.908324 
L 229.039221 41.971719 
L 223.188015 44.462739 
L 217.336809 45.808096 
L 211.485603 44.55032 
L 205.634397 43.4347 
L 199.783191 43.971741 
L 193.931985 46.518642 
L 188.080779 45.871838 
L 182.229573 47.865523 
L 176.378367 47.018029 
L 170.527161 48.376375 
L 164.675955 49.735796 
L 158.82475 46.933364 
L 152.973544 48.031142 
L 147.122338 46.740741 
L 141.271132 46.528915 
L 135.419926 49.207827 
L 129.56872 51.468559 
L 123.717514 52.202547 
L 117.866308 55.481066 
L 112.015102 62.992915 
L 106.163896 60.738073 
L 100.31269 62.987775 
L 94.461484 56.509945 
L 88.610278 76.255019 
L 82.759072 92.734572 
L 76.907866 144.726705 
L 71.05666 197.656739 
L 65.205455 207.551447 
z
" style="fill:#2ca02c;fill-opacity:0.5;"/>
   </g>
   <g id="PolyCollection_4">
    <path clip-path="url(#p38e06f0cec)" d="M 65.205455 239.473159 
L 65.205455 268.535112 
L 71.05666 247.336228 
L 76.907866 229.394621 
L 82.759072 217.740223 
L 88.610278 214.07818 
L 94.461484 209.554254 
L 100.31269 204.012638 
L 106.163896 196.597856 
L 112.015102 192.17908 
L 117.866308 187.345946 
L 123.717514 183.814677 
L 129.56872 181.195475 
L 135.419926 177.83076 
L 141.271132 174.719542 
L 147.122338 171.11565 
L 152.973544 166.527044 
L 158.82475 161.381563 
L 164.675955 156.151907 
L 170.527161 151.397241 
L 176.378367 146.524232 
L 182.229573 141.602271 
L 188.080779 137.858759 
L 193.931985 133.964322 
L 199.783191 131.318534 
L 205.634397 128.746085 
L 211.485603 125.814086 
L 217.336809 123.875332 
L 223.188015 121.272701 
L 229.039221 119.174321 
L 234.890427 116.568062 
L 240.741633 115.011998 
L 246.592839 113.719733 
L 252.444045 112.683906 
L 258.29525 111.242491 
L 264.146456 111.051091 
L 269.997662 110.192944 
L 275.848868 109.237261 
L 281.700074 108.120875 
L 287.55128 107.480863 
L 293.402486 107.048668 
L 299.253692 106.226457 
L 305.104898 104.799693 
L 310.956104 104.127664 
L 316.80731 103.756769 
L 322.658516 103.024726 
L 328.509722 102.173089 
L 334.360928 102.097307 
L 340.212134 101.716242 
L 346.06334 100.953719 
L 351.914545 100.655625 
L 351.914545 86.929631 
L 351.914545 86.929631 
L 346.06334 87.561218 
L 340.212134 87.772127 
L 334.360928 88.189494 
L 328.509722 88.660584 
L 322.658516 89.810497 
L 316.80731 90.54407 
L 310.956104 91.266918 
L 305.104898 91.798007 
L 299.253692 92.536855 
L 293.402486 94.361502 
L 287.55128 95.230861 
L 281.700074 96.909585 
L 275.848868 97.783811 
L 269.997662 98.687493 
L 264.146456 99.98402 
L 258.29525 100.055118 
L 252.444045 102.091806 
L 246.592839 103.210653 
L 240.741633 104.302749 
L 234.890427 105.240419 
L 229.039221 107.096632 
L 223.188015 109.187289 
L 217.336809 110.478384 
L 211.485603 111.569299 
L 205.634397 113.679456 
L 199.783191 116.510099 
L 193.931985 118.195534 
L 188.080779 119.955749 
L 182.229573 121.702828 
L 176.378367 124.469882 
L 170.527161 127.099952 
L 164.675955 130.340549 
L 158.82475 133.456154 
L 152.973544 136.688746 
L 147.122338 138.892285 
L 141.271132 142.638347 
L 135.419926 145.663029 
L 129.56872 148.860773 
L 123.717514 151.841537 
L 117.866308 154.81804 
L 112.015102 157.575484 
L 106.163896 161.851966 
L 100.31269 166.074613 
L 94.461484 172.476672 
L 88.610278 176.15582 
L 82.759072 187.871808 
L 76.907866 199.153205 
L 71.05666 214.85514 
L 65.205455 239.473159 
z
" style="fill:#d62728;fill-opacity:0.5;"/>
   </g>
   <g id="matplotlib.axis_1">
    <g id="xtick_1">
     <g id="line2d_1">
      <path clip-path="url(#p38e06f0cec)" d="M 65.205455 303.64 
L 65.205455 26.88 
" style="fill:none;stroke:#b0b0b0;stroke-linecap:square;stroke-width:0.8;"/>
     </g>
     <g id="line2d_2">
      <defs>
       <path d="M 0 0 
L 0 3.5 
" id="m9cdcda56fc" style="stroke:#000000;stroke-width:0.8;"/>
      </defs>
      <g>
       <use style="stroke:#000000;stroke-width:0.8;" x="65.205455" xlink:href="#m9cdcda56fc" y="303.64"/>
      </g>
     </g>
     <g id="text_1">
      <!-- 0 -->
      <g transform="translate(62.024205 318.238437)scale(0.1 -0.1)">
       <defs>
        <path d="M 2034 4250 
Q 1547 4250 1301 3770 
Q 1056 3291 1056 2328 
Q 1056 1369 1301 889 
Q 1547 409 2034 409 
Q 2525 409 2770 889 
Q 3016 1369 3016 2328 
Q 3016 3291 2770 3770 
Q 2525 4250 2034 4250 
z
M 2034 4750 
Q 2819 4750 3233 4129 
Q 3647 3509 3647 2328 
Q 3647 1150 3233 529 
Q 2819 -91 2034 -91 
Q 1250 -91 836 529 
Q 422 1150 422 2328 
Q 422 3509 836 4129 
Q 1250 4750 2034 4750 
z
" id="DejaVuSans-30" transform="scale(0.015625)"/>
       </defs>
       <use xlink:href="#DejaVuSans-30"/>
      </g>
     </g>
    </g>
    <g id="xtick_2">
     <g id="line2d_3">
      <path clip-path="url(#p38e06f0cec)" d="M 123.717514 303.64 
L 123.717514 26.88 
" style="fill:none;stroke:#b0b0b0;stroke-linecap:square;stroke-width:0.8;"/>
     </g>
     <g id="line2d_4">
      <g>
       <use style="stroke:#000000;stroke-width:0.8;" x="123.717514" xlink:href="#m9cdcda56fc" y="303.64"/>
      </g>
     </g>
     <g id="text_2">
      <!-- 10 -->
      <g transform="translate(117.355014 318.238437)scale(0.1 -0.1)">
       <defs>
        <path d="M 794 531 
L 1825 531 
L 1825 4091 
L 703 3866 
L 703 4441 
L 1819 4666 
L 2450 4666 
L 2450 531 
L 3481 531 
L 3481 0 
L 794 0 
L 794 531 
z
" id="DejaVuSans-31" transform="scale(0.015625)"/>
       </defs>
       <use xlink:href="#DejaVuSans-31"/>
       <use x="63.623047" xlink:href="#DejaVuSans-30"/>
      </g>
     </g>
    </g>
    <g id="xtick_3">
     <g id="line2d_5">
      <path clip-path="url(#p38e06f0cec)" d="M 182.229573 303.64 
L 182.229573 26.88 
" style="fill:none;stroke:#b0b0b0;stroke-linecap:square;stroke-width:0.8;"/>
     </g>
     <g id="line2d_6">
      <g>
       <use style="stroke:#000000;stroke-width:0.8;" x="182.229573" xlink:href="#m9cdcda56fc" y="303.64"/>
      </g>
     </g>
     <g id="text_3">
      <!-- 20 -->
      <g transform="translate(175.867073 318.238437)scale(0.1 -0.1)">
       <defs>
        <path d="M 1228 531 
L 3431 531 
L 3431 0 
L 469 0 
L 469 531 
Q 828 903 1448 1529 
Q 2069 2156 2228 2338 
Q 2531 2678 2651 2914 
Q 2772 3150 2772 3378 
Q 2772 3750 2511 3984 
Q 2250 4219 1831 4219 
Q 1534 4219 1204 4116 
Q 875 4013 500 3803 
L 500 4441 
Q 881 4594 1212 4672 
Q 1544 4750 1819 4750 
Q 2544 4750 2975 4387 
Q 3406 4025 3406 3419 
Q 3406 3131 3298 2873 
Q 3191 2616 2906 2266 
Q 2828 2175 2409 1742 
Q 1991 1309 1228 531 
z
" id="DejaVuSans-32" transform="scale(0.015625)"/>
       </defs>
       <use xlink:href="#DejaVuSans-32"/>
       <use x="63.623047" xlink:href="#DejaVuSans-30"/>
      </g>
     </g>
    </g>
    <g id="xtick_4">
     <g id="line2d_7">
      <path clip-path="url(#p38e06f0cec)" d="M 240.741633 303.64 
L 240.741633 26.88 
" style="fill:none;stroke:#b0b0b0;stroke-linecap:square;stroke-width:0.8;"/>
     </g>
     <g id="line2d_8">
      <g>
       <use style="stroke:#000000;stroke-width:0.8;" x="240.741633" xlink:href="#m9cdcda56fc" y="303.64"/>
      </g>
     </g>
     <g id="text_4">
      <!-- 30 -->
      <g transform="translate(234.379133 318.238437)scale(0.1 -0.1)">
       <defs>
        <path d="M 2597 2516 
Q 3050 2419 3304 2112 
Q 3559 1806 3559 1356 
Q 3559 666 3084 287 
Q 2609 -91 1734 -91 
Q 1441 -91 1130 -33 
Q 819 25 488 141 
L 488 750 
Q 750 597 1062 519 
Q 1375 441 1716 441 
Q 2309 441 2620 675 
Q 2931 909 2931 1356 
Q 2931 1769 2642 2001 
Q 2353 2234 1838 2234 
L 1294 2234 
L 1294 2753 
L 1863 2753 
Q 2328 2753 2575 2939 
Q 2822 3125 2822 3475 
Q 2822 3834 2567 4026 
Q 2313 4219 1838 4219 
Q 1578 4219 1281 4162 
Q 984 4106 628 3988 
L 628 4550 
Q 988 4650 1302 4700 
Q 1616 4750 1894 4750 
Q 2613 4750 3031 4423 
Q 3450 4097 3450 3541 
Q 3450 3153 3228 2886 
Q 3006 2619 2597 2516 
z
" id="DejaVuSans-33" transform="scale(0.015625)"/>
       </defs>
       <use xlink:href="#DejaVuSans-33"/>
       <use x="63.623047" xlink:href="#DejaVuSans-30"/>
      </g>
     </g>
    </g>
    <g id="xtick_5">
     <g id="line2d_9">
      <path clip-path="url(#p38e06f0cec)" d="M 299.253692 303.64 
L 299.253692 26.88 
" style="fill:none;stroke:#b0b0b0;stroke-linecap:square;stroke-width:0.8;"/>
     </g>
     <g id="line2d_10">
      <g>
       <use style="stroke:#000000;stroke-width:0.8;" x="299.253692" xlink:href="#m9cdcda56fc" y="303.64"/>
      </g>
     </g>
     <g id="text_5">
      <!-- 40 -->
      <g transform="translate(292.891192 318.238437)scale(0.1 -0.1)">
       <defs>
        <path d="M 2419 4116 
L 825 1625 
L 2419 1625 
L 2419 4116 
z
M 2253 4666 
L 3047 4666 
L 3047 1625 
L 3713 1625 
L 3713 1100 
L 3047 1100 
L 3047 0 
L 2419 0 
L 2419 1100 
L 313 1100 
L 313 1709 
L 2253 4666 
z
" id="DejaVuSans-34" transform="scale(0.015625)"/>
       </defs>
       <use xlink:href="#DejaVuSans-34"/>
       <use x="63.623047" xlink:href="#DejaVuSans-30"/>
      </g>
     </g>
    </g>
    <g id="xtick_6">
     <g id="line2d_11">
      <path clip-path="url(#p38e06f0cec)" d="M 357.765751 303.64 
L 357.765751 26.88 
" style="fill:none;stroke:#b0b0b0;stroke-linecap:square;stroke-width:0.8;"/>
     </g>
     <g id="line2d_12">
      <g>
       <use style="stroke:#000000;stroke-width:0.8;" x="357.765751" xlink:href="#m9cdcda56fc" y="303.64"/>
      </g>
     </g>
     <g id="text_6">
      <!-- 50 -->
      <g transform="translate(351.403251 318.238437)scale(0.1 -0.1)">
       <defs>
        <path d="M 691 4666 
L 3169 4666 
L 3169 4134 
L 1269 4134 
L 1269 2991 
Q 1406 3038 1543 3061 
Q 1681 3084 1819 3084 
Q 2600 3084 3056 2656 
Q 3513 2228 3513 1497 
Q 3513 744 3044 326 
Q 2575 -91 1722 -91 
Q 1428 -91 1123 -41 
Q 819 9 494 109 
L 494 744 
Q 775 591 1075 516 
Q 1375 441 1709 441 
Q 2250 441 2565 725 
Q 2881 1009 2881 1497 
Q 2881 1984 2565 2268 
Q 2250 2553 1709 2553 
Q 1456 2553 1204 2497 
Q 953 2441 691 2322 
L 691 4666 
z
" id="DejaVuSans-35" transform="scale(0.015625)"/>
       </defs>
       <use xlink:href="#DejaVuSans-35"/>
       <use x="63.623047" xlink:href="#DejaVuSans-30"/>
      </g>
     </g>
    </g>
    <g id="text_7">
     <!-- Global Communication Rounds -->
     <g transform="translate(131.598281 331.916562)scale(0.1 -0.1)">
      <defs>
       <path d="M 3809 666 
L 3809 1919 
L 2778 1919 
L 2778 2438 
L 4434 2438 
L 4434 434 
Q 4069 175 3628 42 
Q 3188 -91 2688 -91 
Q 1594 -91 976 548 
Q 359 1188 359 2328 
Q 359 3472 976 4111 
Q 1594 4750 2688 4750 
Q 3144 4750 3555 4637 
Q 3966 4525 4313 4306 
L 4313 3634 
Q 3963 3931 3569 4081 
Q 3175 4231 2741 4231 
Q 1884 4231 1454 3753 
Q 1025 3275 1025 2328 
Q 1025 1384 1454 906 
Q 1884 428 2741 428 
Q 3075 428 3337 486 
Q 3600 544 3809 666 
z
" id="DejaVuSans-47" transform="scale(0.015625)"/>
       <path d="M 603 4863 
L 1178 4863 
L 1178 0 
L 603 0 
L 603 4863 
z
" id="DejaVuSans-6c" transform="scale(0.015625)"/>
       <path d="M 1959 3097 
Q 1497 3097 1228 2736 
Q 959 2375 959 1747 
Q 959 1119 1226 758 
Q 1494 397 1959 397 
Q 2419 397 2687 759 
Q 2956 1122 2956 1747 
Q 2956 2369 2687 2733 
Q 2419 3097 1959 3097 
z
M 1959 3584 
Q 2709 3584 3137 3096 
Q 3566 2609 3566 1747 
Q 3566 888 3137 398 
Q 2709 -91 1959 -91 
Q 1206 -91 779 398 
Q 353 888 353 1747 
Q 353 2609 779 3096 
Q 1206 3584 1959 3584 
z
" id="DejaVuSans-6f" transform="scale(0.015625)"/>
       <path d="M 3116 1747 
Q 3116 2381 2855 2742 
Q 2594 3103 2138 3103 
Q 1681 3103 1420 2742 
Q 1159 2381 1159 1747 
Q 1159 1113 1420 752 
Q 1681 391 2138 391 
Q 2594 391 2855 752 
Q 3116 1113 3116 1747 
z
M 1159 2969 
Q 1341 3281 1617 3432 
Q 1894 3584 2278 3584 
Q 2916 3584 3314 3078 
Q 3713 2572 3713 1747 
Q 3713 922 3314 415 
Q 2916 -91 2278 -91 
Q 1894 -91 1617 61 
Q 1341 213 1159 525 
L 1159 0 
L 581 0 
L 581 4863 
L 1159 4863 
L 1159 2969 
z
" id="DejaVuSans-62" transform="scale(0.015625)"/>
       <path d="M 2194 1759 
Q 1497 1759 1228 1600 
Q 959 1441 959 1056 
Q 959 750 1161 570 
Q 1363 391 1709 391 
Q 2188 391 2477 730 
Q 2766 1069 2766 1631 
L 2766 1759 
L 2194 1759 
z
M 3341 1997 
L 3341 0 
L 2766 0 
L 2766 531 
Q 2569 213 2275 61 
Q 1981 -91 1556 -91 
Q 1019 -91 701 211 
Q 384 513 384 1019 
Q 384 1609 779 1909 
Q 1175 2209 1959 2209 
L 2766 2209 
L 2766 2266 
Q 2766 2663 2505 2880 
Q 2244 3097 1772 3097 
Q 1472 3097 1187 3025 
Q 903 2953 641 2809 
L 641 3341 
Q 956 3463 1253 3523 
Q 1550 3584 1831 3584 
Q 2591 3584 2966 3190 
Q 3341 2797 3341 1997 
z
" id="DejaVuSans-61" transform="scale(0.015625)"/>
       <path id="DejaVuSans-20" transform="scale(0.015625)"/>
       <path d="M 4122 4306 
L 4122 3641 
Q 3803 3938 3442 4084 
Q 3081 4231 2675 4231 
Q 1875 4231 1450 3742 
Q 1025 3253 1025 2328 
Q 1025 1406 1450 917 
Q 1875 428 2675 428 
Q 3081 428 3442 575 
Q 3803 722 4122 1019 
L 4122 359 
Q 3791 134 3420 21 
Q 3050 -91 2638 -91 
Q 1578 -91 968 557 
Q 359 1206 359 2328 
Q 359 3453 968 4101 
Q 1578 4750 2638 4750 
Q 3056 4750 3426 4639 
Q 3797 4528 4122 4306 
z
" id="DejaVuSans-43" transform="scale(0.015625)"/>
       <path d="M 3328 2828 
Q 3544 3216 3844 3400 
Q 4144 3584 4550 3584 
Q 5097 3584 5394 3201 
Q 5691 2819 5691 2113 
L 5691 0 
L 5113 0 
L 5113 2094 
Q 5113 2597 4934 2840 
Q 4756 3084 4391 3084 
Q 3944 3084 3684 2787 
Q 3425 2491 3425 1978 
L 3425 0 
L 2847 0 
L 2847 2094 
Q 2847 2600 2669 2842 
Q 2491 3084 2119 3084 
Q 1678 3084 1418 2786 
Q 1159 2488 1159 1978 
L 1159 0 
L 581 0 
L 581 3500 
L 1159 3500 
L 1159 2956 
Q 1356 3278 1631 3431 
Q 1906 3584 2284 3584 
Q 2666 3584 2933 3390 
Q 3200 3197 3328 2828 
z
" id="DejaVuSans-6d" transform="scale(0.015625)"/>
       <path d="M 544 1381 
L 544 3500 
L 1119 3500 
L 1119 1403 
Q 1119 906 1312 657 
Q 1506 409 1894 409 
Q 2359 409 2629 706 
Q 2900 1003 2900 1516 
L 2900 3500 
L 3475 3500 
L 3475 0 
L 2900 0 
L 2900 538 
Q 2691 219 2414 64 
Q 2138 -91 1772 -91 
Q 1169 -91 856 284 
Q 544 659 544 1381 
z
M 1991 3584 
L 1991 3584 
z
" id="DejaVuSans-75" transform="scale(0.015625)"/>
       <path d="M 3513 2113 
L 3513 0 
L 2938 0 
L 2938 2094 
Q 2938 2591 2744 2837 
Q 2550 3084 2163 3084 
Q 1697 3084 1428 2787 
Q 1159 2491 1159 1978 
L 1159 0 
L 581 0 
L 581 3500 
L 1159 3500 
L 1159 2956 
Q 1366 3272 1645 3428 
Q 1925 3584 2291 3584 
Q 2894 3584 3203 3211 
Q 3513 2838 3513 2113 
z
" id="DejaVuSans-6e" transform="scale(0.015625)"/>
       <path d="M 603 3500 
L 1178 3500 
L 1178 0 
L 603 0 
L 603 3500 
z
M 603 4863 
L 1178 4863 
L 1178 4134 
L 603 4134 
L 603 4863 
z
" id="DejaVuSans-69" transform="scale(0.015625)"/>
       <path d="M 3122 3366 
L 3122 2828 
Q 2878 2963 2633 3030 
Q 2388 3097 2138 3097 
Q 1578 3097 1268 2742 
Q 959 2388 959 1747 
Q 959 1106 1268 751 
Q 1578 397 2138 397 
Q 2388 397 2633 464 
Q 2878 531 3122 666 
L 3122 134 
Q 2881 22 2623 -34 
Q 2366 -91 2075 -91 
Q 1284 -91 818 406 
Q 353 903 353 1747 
Q 353 2603 823 3093 
Q 1294 3584 2113 3584 
Q 2378 3584 2631 3529 
Q 2884 3475 3122 3366 
z
" id="DejaVuSans-63" transform="scale(0.015625)"/>
       <path d="M 1172 4494 
L 1172 3500 
L 2356 3500 
L 2356 3053 
L 1172 3053 
L 1172 1153 
Q 1172 725 1289 603 
Q 1406 481 1766 481 
L 2356 481 
L 2356 0 
L 1766 0 
Q 1100 0 847 248 
Q 594 497 594 1153 
L 594 3053 
L 172 3053 
L 172 3500 
L 594 3500 
L 594 4494 
L 1172 4494 
z
" id="DejaVuSans-74" transform="scale(0.015625)"/>
       <path d="M 2841 2188 
Q 3044 2119 3236 1894 
Q 3428 1669 3622 1275 
L 4263 0 
L 3584 0 
L 2988 1197 
Q 2756 1666 2539 1819 
Q 2322 1972 1947 1972 
L 1259 1972 
L 1259 0 
L 628 0 
L 628 4666 
L 2053 4666 
Q 2853 4666 3247 4331 
Q 3641 3997 3641 3322 
Q 3641 2881 3436 2590 
Q 3231 2300 2841 2188 
z
M 1259 4147 
L 1259 2491 
L 2053 2491 
Q 2509 2491 2742 2702 
Q 2975 2913 2975 3322 
Q 2975 3731 2742 3939 
Q 2509 4147 2053 4147 
L 1259 4147 
z
" id="DejaVuSans-52" transform="scale(0.015625)"/>
       <path d="M 2906 2969 
L 2906 4863 
L 3481 4863 
L 3481 0 
L 2906 0 
L 2906 525 
Q 2725 213 2448 61 
Q 2172 -91 1784 -91 
Q 1150 -91 751 415 
Q 353 922 353 1747 
Q 353 2572 751 3078 
Q 1150 3584 1784 3584 
Q 2172 3584 2448 3432 
Q 2725 3281 2906 2969 
z
M 947 1747 
Q 947 1113 1208 752 
Q 1469 391 1925 391 
Q 2381 391 2643 752 
Q 2906 1113 2906 1747 
Q 2906 2381 2643 2742 
Q 2381 3103 1925 3103 
Q 1469 3103 1208 2742 
Q 947 2381 947 1747 
z
" id="DejaVuSans-64" transform="scale(0.015625)"/>
       <path d="M 2834 3397 
L 2834 2853 
Q 2591 2978 2328 3040 
Q 2066 3103 1784 3103 
Q 1356 3103 1142 2972 
Q 928 2841 928 2578 
Q 928 2378 1081 2264 
Q 1234 2150 1697 2047 
L 1894 2003 
Q 2506 1872 2764 1633 
Q 3022 1394 3022 966 
Q 3022 478 2636 193 
Q 2250 -91 1575 -91 
Q 1294 -91 989 -36 
Q 684 19 347 128 
L 347 722 
Q 666 556 975 473 
Q 1284 391 1588 391 
Q 1994 391 2212 530 
Q 2431 669 2431 922 
Q 2431 1156 2273 1281 
Q 2116 1406 1581 1522 
L 1381 1569 
Q 847 1681 609 1914 
Q 372 2147 372 2553 
Q 372 3047 722 3315 
Q 1072 3584 1716 3584 
Q 2034 3584 2315 3537 
Q 2597 3491 2834 3397 
z
" id="DejaVuSans-73" transform="scale(0.015625)"/>
      </defs>
      <use xlink:href="#DejaVuSans-47"/>
      <use x="77.490234" xlink:href="#DejaVuSans-6c"/>
      <use x="105.273438" xlink:href="#DejaVuSans-6f"/>
      <use x="166.455078" xlink:href="#DejaVuSans-62"/>
      <use x="229.931641" xlink:href="#DejaVuSans-61"/>
      <use x="291.210938" xlink:href="#DejaVuSans-6c"/>
      <use x="318.994141" xlink:href="#DejaVuSans-20"/>
      <use x="350.78125" xlink:href="#DejaVuSans-43"/>
      <use x="420.605469" xlink:href="#DejaVuSans-6f"/>
      <use x="481.787109" xlink:href="#DejaVuSans-6d"/>
      <use x="579.199219" xlink:href="#DejaVuSans-6d"/>
      <use x="676.611328" xlink:href="#DejaVuSans-75"/>
      <use x="739.990234" xlink:href="#DejaVuSans-6e"/>
      <use x="803.369141" xlink:href="#DejaVuSans-69"/>
      <use x="831.152344" xlink:href="#DejaVuSans-63"/>
      <use x="886.132812" xlink:href="#DejaVuSans-61"/>
      <use x="947.412109" xlink:href="#DejaVuSans-74"/>
      <use x="986.621094" xlink:href="#DejaVuSans-69"/>
      <use x="1014.404297" xlink:href="#DejaVuSans-6f"/>
      <use x="1075.585938" xlink:href="#DejaVuSans-6e"/>
      <use x="1138.964844" xlink:href="#DejaVuSans-20"/>
      <use x="1170.751953" xlink:href="#DejaVuSans-52"/>
      <use x="1235.734375" xlink:href="#DejaVuSans-6f"/>
      <use x="1296.916016" xlink:href="#DejaVuSans-75"/>
      <use x="1360.294922" xlink:href="#DejaVuSans-6e"/>
      <use x="1423.673828" xlink:href="#DejaVuSans-64"/>
      <use x="1487.150391" xlink:href="#DejaVuSans-73"/>
     </g>
    </g>
   </g>
   <g id="matplotlib.axis_2">
    <g id="ytick_1">
     <g id="line2d_13">
      <path clip-path="url(#p38e06f0cec)" d="M 50.87 256.218966 
L 366.25 256.218966 
" style="fill:none;stroke:#b0b0b0;stroke-linecap:square;stroke-width:0.8;"/>
     </g>
     <g id="line2d_14">
      <defs>
       <path d="M 0 0 
L -3.5 0 
" id="ma778094897" style="stroke:#000000;stroke-width:0.8;"/>
      </defs>
      <g>
       <use style="stroke:#000000;stroke-width:0.8;" x="50.87" xlink:href="#ma778094897" y="256.218966"/>
      </g>
     </g>
     <g id="text_8">
      <!-- 20 -->
      <g transform="translate(31.145 260.018185)scale(0.1 -0.1)">
       <use xlink:href="#DejaVuSans-32"/>
       <use x="63.623047" xlink:href="#DejaVuSans-30"/>
      </g>
     </g>
    </g>
    <g id="ytick_2">
     <g id="line2d_15">
      <path clip-path="url(#p38e06f0cec)" d="M 50.87 201.531804 
L 366.25 201.531804 
" style="fill:none;stroke:#b0b0b0;stroke-linecap:square;stroke-width:0.8;"/>
     </g>
     <g id="line2d_16">
      <g>
       <use style="stroke:#000000;stroke-width:0.8;" x="50.87" xlink:href="#ma778094897" y="201.531804"/>
      </g>
     </g>
     <g id="text_9">
      <!-- 40 -->
      <g transform="translate(31.145 205.331023)scale(0.1 -0.1)">
       <use xlink:href="#DejaVuSans-34"/>
       <use x="63.623047" xlink:href="#DejaVuSans-30"/>
      </g>
     </g>
    </g>
    <g id="ytick_3">
     <g id="line2d_17">
      <path clip-path="url(#p38e06f0cec)" d="M 50.87 146.844643 
L 366.25 146.844643 
" style="fill:none;stroke:#b0b0b0;stroke-linecap:square;stroke-width:0.8;"/>
     </g>
     <g id="line2d_18">
      <g>
       <use style="stroke:#000000;stroke-width:0.8;" x="50.87" xlink:href="#ma778094897" y="146.844643"/>
      </g>
     </g>
     <g id="text_10">
      <!-- 60 -->
      <g transform="translate(31.145 150.643862)scale(0.1 -0.1)">
       <defs>
        <path d="M 2113 2584 
Q 1688 2584 1439 2293 
Q 1191 2003 1191 1497 
Q 1191 994 1439 701 
Q 1688 409 2113 409 
Q 2538 409 2786 701 
Q 3034 994 3034 1497 
Q 3034 2003 2786 2293 
Q 2538 2584 2113 2584 
z
M 3366 4563 
L 3366 3988 
Q 3128 4100 2886 4159 
Q 2644 4219 2406 4219 
Q 1781 4219 1451 3797 
Q 1122 3375 1075 2522 
Q 1259 2794 1537 2939 
Q 1816 3084 2150 3084 
Q 2853 3084 3261 2657 
Q 3669 2231 3669 1497 
Q 3669 778 3244 343 
Q 2819 -91 2113 -91 
Q 1303 -91 875 529 
Q 447 1150 447 2328 
Q 447 3434 972 4092 
Q 1497 4750 2381 4750 
Q 2619 4750 2861 4703 
Q 3103 4656 3366 4563 
z
" id="DejaVuSans-36" transform="scale(0.015625)"/>
       </defs>
       <use xlink:href="#DejaVuSans-36"/>
       <use x="63.623047" xlink:href="#DejaVuSans-30"/>
      </g>
     </g>
    </g>
    <g id="ytick_4">
     <g id="line2d_19">
      <path clip-path="url(#p38e06f0cec)" d="M 50.87 92.157482 
L 366.25 92.157482 
" style="fill:none;stroke:#b0b0b0;stroke-linecap:square;stroke-width:0.8;"/>
     </g>
     <g id="line2d_20">
      <g>
       <use style="stroke:#000000;stroke-width:0.8;" x="50.87" xlink:href="#ma778094897" y="92.157482"/>
      </g>
     </g>
     <g id="text_11">
      <!-- 80 -->
      <g transform="translate(31.145 95.9567)scale(0.1 -0.1)">
       <defs>
        <path d="M 2034 2216 
Q 1584 2216 1326 1975 
Q 1069 1734 1069 1313 
Q 1069 891 1326 650 
Q 1584 409 2034 409 
Q 2484 409 2743 651 
Q 3003 894 3003 1313 
Q 3003 1734 2745 1975 
Q 2488 2216 2034 2216 
z
M 1403 2484 
Q 997 2584 770 2862 
Q 544 3141 544 3541 
Q 544 4100 942 4425 
Q 1341 4750 2034 4750 
Q 2731 4750 3128 4425 
Q 3525 4100 3525 3541 
Q 3525 3141 3298 2862 
Q 3072 2584 2669 2484 
Q 3125 2378 3379 2068 
Q 3634 1759 3634 1313 
Q 3634 634 3220 271 
Q 2806 -91 2034 -91 
Q 1263 -91 848 271 
Q 434 634 434 1313 
Q 434 1759 690 2068 
Q 947 2378 1403 2484 
z
M 1172 3481 
Q 1172 3119 1398 2916 
Q 1625 2713 2034 2713 
Q 2441 2713 2670 2916 
Q 2900 3119 2900 3481 
Q 2900 3844 2670 4047 
Q 2441 4250 2034 4250 
Q 1625 4250 1398 4047 
Q 1172 3844 1172 3481 
z
" id="DejaVuSans-38" transform="scale(0.015625)"/>
       </defs>
       <use xlink:href="#DejaVuSans-38"/>
       <use x="63.623047" xlink:href="#DejaVuSans-30"/>
      </g>
     </g>
    </g>
    <g id="ytick_5">
     <g id="line2d_21">
      <path clip-path="url(#p38e06f0cec)" d="M 50.87 37.47032 
L 366.25 37.47032 
" style="fill:none;stroke:#b0b0b0;stroke-linecap:square;stroke-width:0.8;"/>
     </g>
     <g id="line2d_22">
      <g>
       <use style="stroke:#000000;stroke-width:0.8;" x="50.87" xlink:href="#ma778094897" y="37.47032"/>
      </g>
     </g>
     <g id="text_12">
      <!-- 100 -->
      <g transform="translate(24.7825 41.269539)scale(0.1 -0.1)">
       <use xlink:href="#DejaVuSans-31"/>
       <use x="63.623047" xlink:href="#DejaVuSans-30"/>
       <use x="127.246094" xlink:href="#DejaVuSans-30"/>
      </g>
     </g>
    </g>
    <g id="text_13">
     <!-- Test Accuracy -->
     <g transform="translate(18.702813 199.5225)rotate(-90)scale(0.1 -0.1)">
      <defs>
       <path d="M -19 4666 
L 3928 4666 
L 3928 4134 
L 2272 4134 
L 2272 0 
L 1638 0 
L 1638 4134 
L -19 4134 
L -19 4666 
z
" id="DejaVuSans-54" transform="scale(0.015625)"/>
       <path d="M 3597 1894 
L 3597 1613 
L 953 1613 
Q 991 1019 1311 708 
Q 1631 397 2203 397 
Q 2534 397 2845 478 
Q 3156 559 3463 722 
L 3463 178 
Q 3153 47 2828 -22 
Q 2503 -91 2169 -91 
Q 1331 -91 842 396 
Q 353 884 353 1716 
Q 353 2575 817 3079 
Q 1281 3584 2069 3584 
Q 2775 3584 3186 3129 
Q 3597 2675 3597 1894 
z
M 3022 2063 
Q 3016 2534 2758 2815 
Q 2500 3097 2075 3097 
Q 1594 3097 1305 2825 
Q 1016 2553 972 2059 
L 3022 2063 
z
" id="DejaVuSans-65" transform="scale(0.015625)"/>
       <path d="M 2188 4044 
L 1331 1722 
L 3047 1722 
L 2188 4044 
z
M 1831 4666 
L 2547 4666 
L 4325 0 
L 3669 0 
L 3244 1197 
L 1141 1197 
L 716 0 
L 50 0 
L 1831 4666 
z
" id="DejaVuSans-41" transform="scale(0.015625)"/>
       <path d="M 2631 2963 
Q 2534 3019 2420 3045 
Q 2306 3072 2169 3072 
Q 1681 3072 1420 2755 
Q 1159 2438 1159 1844 
L 1159 0 
L 581 0 
L 581 3500 
L 1159 3500 
L 1159 2956 
Q 1341 3275 1631 3429 
Q 1922 3584 2338 3584 
Q 2397 3584 2469 3576 
Q 2541 3569 2628 3553 
L 2631 2963 
z
" id="DejaVuSans-72" transform="scale(0.015625)"/>
       <path d="M 2059 -325 
Q 1816 -950 1584 -1140 
Q 1353 -1331 966 -1331 
L 506 -1331 
L 506 -850 
L 844 -850 
Q 1081 -850 1212 -737 
Q 1344 -625 1503 -206 
L 1606 56 
L 191 3500 
L 800 3500 
L 1894 763 
L 2988 3500 
L 3597 3500 
L 2059 -325 
z
" id="DejaVuSans-79" transform="scale(0.015625)"/>
      </defs>
      <use xlink:href="#DejaVuSans-54"/>
      <use x="44.083984" xlink:href="#DejaVuSans-65"/>
      <use x="105.607422" xlink:href="#DejaVuSans-73"/>
      <use x="157.707031" xlink:href="#DejaVuSans-74"/>
      <use x="196.916016" xlink:href="#DejaVuSans-20"/>
      <use x="228.703125" xlink:href="#DejaVuSans-41"/>
      <use x="295.361328" xlink:href="#DejaVuSans-63"/>
      <use x="350.341797" xlink:href="#DejaVuSans-63"/>
      <use x="405.322266" xlink:href="#DejaVuSans-75"/>
      <use x="468.701172" xlink:href="#DejaVuSans-72"/>
      <use x="509.814453" xlink:href="#DejaVuSans-61"/>
      <use x="571.09375" xlink:href="#DejaVuSans-63"/>
      <use x="626.074219" xlink:href="#DejaVuSans-79"/>
     </g>
    </g>
   </g>
   <g id="line2d_23">
    <path clip-path="url(#p38e06f0cec)" d="M 65.205455 251.096371 
L 71.05666 180.14151 
L 76.907866 146.983092 
L 82.759072 134.384277 
L 88.610278 104.271726 
L 94.461484 80.943152 
L 100.31269 82.258413 
L 106.163896 80.458583 
L 112.015102 69.867272 
L 117.866308 67.582871 
L 123.717514 65.506144 
L 129.56872 55.537851 
L 135.419926 52.076638 
L 141.271132 50.48448 
L 147.122338 53.530347 
L 152.973544 52.422759 
L 158.82475 48.061631 
L 164.675955 47.300165 
L 170.527161 52.145862 
L 176.378367 50.96905 
L 182.229573 49.376892 
L 188.080779 47.507837 
L 193.931985 45.361885 
L 199.783191 45.777231 
L 205.634397 43.9774 
L 211.485603 47.161716 
L 217.336809 45.223437 
L 223.188015 45.43111 
L 229.039221 43.769728 
L 234.890427 47.507837 
L 240.741633 44.046625 
L 246.592839 43.838952 
L 252.444045 43.700503 
L 258.29525 43.285158 
L 264.146456 42.800588 
L 269.997662 42.246794 
L 275.848868 42.731364 
L 281.700074 43.562055 
L 287.55128 42.523691 
L 293.402486 41.000757 
L 299.253692 41.554551 
L 305.104898 42.17757 
L 310.956104 41.693 
L 316.80731 41.485327 
L 322.658516 41.554551 
L 328.509722 41.693 
L 334.360928 41.000757 
L 340.212134 42.316018 
L 346.06334 41.000757 
L 351.914545 40.793085 
" style="fill:none;stroke:#1f77b4;stroke-linecap:square;stroke-width:1.5;"/>
   </g>
   <g id="line2d_24">
    <path clip-path="url(#p38e06f0cec)" d="M 65.205455 279.201418 
L 71.05666 252.342407 
L 76.907866 209.284921 
L 82.759072 216.691916 
L 88.610278 235.313241 
L 94.461484 154.11319 
L 100.31269 178.480128 
L 106.163896 188.240747 
L 112.015102 160.1357 
L 117.866308 126.146591 
L 123.717514 153.905517 
L 129.56872 131.269186 
L 135.419926 110.778806 
L 141.271132 123.585293 
L 147.122338 132.792119 
L 152.973544 133.692035 
L 158.82475 110.363461 
L 164.675955 99.77215 
L 170.527161 103.164138 
L 176.378367 103.856381 
L 182.229573 98.526113 
L 188.080779 106.694575 
L 193.931985 98.387665 
L 199.783191 99.010683 
L 205.634397 92.434379 
L 211.485603 115.832177 
L 217.336809 100.810514 
L 223.188015 75.059091 
L 229.039221 93.818864 
L 234.890427 102.333447 
L 240.741633 120.331753 
L 246.592839 125.869694 
L 252.444045 116.524419 
L 258.29525 107.179145 
L 264.146456 116.03985 
L 269.997662 100.879738 
L 275.848868 98.249216 
L 281.700074 89.04239 
L 287.55128 78.243406 
L 293.402486 79.420219 
L 299.253692 77.620388 
L 305.104898 58.999064 
L 310.956104 71.597878 
L 316.80731 73.882278 
L 322.658516 88.834717 
L 328.509722 78.174182 
L 334.360928 78.520303 
L 340.212134 83.712123 
L 346.06334 68.552011 
L 351.914545 79.489443 
" style="fill:none;stroke:#ff7f0e;stroke-linecap:square;stroke-width:1.5;"/>
   </g>
   <g id="line2d_25">
    <path clip-path="url(#p38e06f0cec)" d="M 65.205455 220.083905 
L 71.05666 215.307431 
L 76.907866 156.259142 
L 82.759072 108.355957 
L 88.610278 102.818017 
L 94.461484 79.212546 
L 100.31269 78.035734 
L 106.163896 74.989866 
L 112.015102 74.782194 
L 117.866308 60.868118 
L 123.717514 58.514494 
L 129.56872 58.999064 
L 135.419926 54.153366 
L 141.271132 50.207583 
L 147.122338 49.723013 
L 152.973544 51.661293 
L 158.82475 49.376892 
L 164.675955 52.353535 
L 170.527161 51.522844 
L 176.378367 49.307668 
L 182.229573 50.346032 
L 188.080779 49.446116 
L 193.931985 49.515341 
L 199.783191 47.784734 
L 205.634397 46.884819 
L 211.485603 47.923183 
L 217.336809 53.322675 
L 223.188015 47.577062 
L 229.039221 45.915679 
L 234.890427 46.74637 
L 240.741633 46.261801 
L 246.592839 46.400249 
L 252.444045 47.23094 
L 258.29525 45.984904 
L 264.146456 46.954043 
L 269.997662 46.954043 
L 275.848868 46.331025 
L 281.700074 46.469473 
L 287.55128 45.154213 
L 293.402486 44.94654 
L 299.253692 45.43111 
L 305.104898 45.777231 
L 310.956104 46.123352 
L 316.80731 46.261801 
L 322.658516 46.607922 
L 328.509722 46.054128 
L 334.360928 45.708007 
L 340.212134 45.154213 
L 346.06334 45.223437 
L 351.914545 44.600419 
" style="fill:none;stroke:#2ca02c;stroke-linecap:square;stroke-width:1.5;"/>
   </g>
   <g id="line2d_26">
    <path clip-path="url(#p38e06f0cec)" d="M 65.205455 254.004136 
L 71.05666 231.095684 
L 76.907866 214.273913 
L 82.759072 202.806015 
L 88.610278 195.117 
L 94.461484 191.015463 
L 100.31269 185.043625 
L 106.163896 179.224911 
L 112.015102 174.877282 
L 117.866308 171.081993 
L 123.717514 167.828107 
L 129.56872 165.028124 
L 135.419926 161.746895 
L 141.271132 158.678945 
L 147.122338 155.003968 
L 152.973544 151.607895 
L 158.82475 147.418858 
L 164.675955 143.246228 
L 170.527161 139.248596 
L 176.378367 135.497057 
L 182.229573 131.65255 
L 188.080779 128.907254 
L 193.931985 126.079928 
L 199.783191 123.914316 
L 205.634397 121.212771 
L 211.485603 118.691692 
L 217.336809 117.176858 
L 223.188015 115.229995 
L 229.039221 113.135477 
L 234.890427 110.904241 
L 240.741633 109.657373 
L 246.592839 108.465193 
L 252.444045 107.387856 
L 258.29525 105.648804 
L 264.146456 105.517555 
L 269.997662 104.440218 
L 275.848868 103.510536 
L 281.700074 102.51523 
L 287.55128 101.355862 
L 293.402486 100.705085 
L 299.253692 99.381656 
L 305.104898 98.29885 
L 310.956104 97.697291 
L 316.80731 97.15042 
L 322.658516 96.417612 
L 328.509722 95.416836 
L 334.360928 95.143401 
L 340.212134 94.744184 
L 346.06334 94.257469 
L 351.914545 93.792628 
" style="fill:none;stroke:#d62728;stroke-linecap:square;stroke-width:1.5;"/>
   </g>
   <g id="patch_3">
    <path d="M 50.87 303.64 
L 50.87 26.88 
" style="fill:none;stroke:#000000;stroke-linecap:square;stroke-linejoin:miter;stroke-width:0.8;"/>
   </g>
   <g id="patch_4">
    <path d="M 366.25 303.64 
L 366.25 26.88 
" style="fill:none;stroke:#000000;stroke-linecap:square;stroke-linejoin:miter;stroke-width:0.8;"/>
   </g>
   <g id="patch_5">
    <path d="M 50.87 303.64 
L 366.25 303.64 
" style="fill:none;stroke:#000000;stroke-linecap:square;stroke-linejoin:miter;stroke-width:0.8;"/>
   </g>
   <g id="patch_6">
    <path d="M 50.87 26.88 
L 366.25 26.88 
" style="fill:none;stroke:#000000;stroke-linecap:square;stroke-linejoin:miter;stroke-width:0.8;"/>
   </g>
   <g id="text_14">
    <!-- MNIST Local Rounds 25 -->
    <g transform="translate(138.632812 20.88)scale(0.12 -0.12)">
     <defs>
      <path d="M 628 4666 
L 1569 4666 
L 2759 1491 
L 3956 4666 
L 4897 4666 
L 4897 0 
L 4281 0 
L 4281 4097 
L 3078 897 
L 2444 897 
L 1241 4097 
L 1241 0 
L 628 0 
L 628 4666 
z
" id="DejaVuSans-4d" transform="scale(0.015625)"/>
      <path d="M 628 4666 
L 1478 4666 
L 3547 763 
L 3547 4666 
L 4159 4666 
L 4159 0 
L 3309 0 
L 1241 3903 
L 1241 0 
L 628 0 
L 628 4666 
z
" id="DejaVuSans-4e" transform="scale(0.015625)"/>
      <path d="M 628 4666 
L 1259 4666 
L 1259 0 
L 628 0 
L 628 4666 
z
" id="DejaVuSans-49" transform="scale(0.015625)"/>
      <path d="M 3425 4513 
L 3425 3897 
Q 3066 4069 2747 4153 
Q 2428 4238 2131 4238 
Q 1616 4238 1336 4038 
Q 1056 3838 1056 3469 
Q 1056 3159 1242 3001 
Q 1428 2844 1947 2747 
L 2328 2669 
Q 3034 2534 3370 2195 
Q 3706 1856 3706 1288 
Q 3706 609 3251 259 
Q 2797 -91 1919 -91 
Q 1588 -91 1214 -16 
Q 841 59 441 206 
L 441 856 
Q 825 641 1194 531 
Q 1563 422 1919 422 
Q 2459 422 2753 634 
Q 3047 847 3047 1241 
Q 3047 1584 2836 1778 
Q 2625 1972 2144 2069 
L 1759 2144 
Q 1053 2284 737 2584 
Q 422 2884 422 3419 
Q 422 4038 858 4394 
Q 1294 4750 2059 4750 
Q 2388 4750 2728 4690 
Q 3069 4631 3425 4513 
z
" id="DejaVuSans-53" transform="scale(0.015625)"/>
      <path d="M 628 4666 
L 1259 4666 
L 1259 531 
L 3531 531 
L 3531 0 
L 628 0 
L 628 4666 
z
" id="DejaVuSans-4c" transform="scale(0.015625)"/>
     </defs>
     <use xlink:href="#DejaVuSans-4d"/>
     <use x="86.279297" xlink:href="#DejaVuSans-4e"/>
     <use x="161.083984" xlink:href="#DejaVuSans-49"/>
     <use x="190.576172" xlink:href="#DejaVuSans-53"/>
     <use x="254.052734" xlink:href="#DejaVuSans-54"/>
     <use x="315.136719" xlink:href="#DejaVuSans-20"/>
     <use x="346.923828" xlink:href="#DejaVuSans-4c"/>
     <use x="400.886719" xlink:href="#DejaVuSans-6f"/>
     <use x="462.068359" xlink:href="#DejaVuSans-63"/>
     <use x="517.048828" xlink:href="#DejaVuSans-61"/>
     <use x="578.328125" xlink:href="#DejaVuSans-6c"/>
     <use x="606.111328" xlink:href="#DejaVuSans-20"/>
     <use x="637.898438" xlink:href="#DejaVuSans-52"/>
     <use x="702.880859" xlink:href="#DejaVuSans-6f"/>
     <use x="764.0625" xlink:href="#DejaVuSans-75"/>
     <use x="827.441406" xlink:href="#DejaVuSans-6e"/>
     <use x="890.820312" xlink:href="#DejaVuSans-64"/>
     <use x="954.296875" xlink:href="#DejaVuSans-73"/>
     <use x="1006.396484" xlink:href="#DejaVuSans-20"/>
     <use x="1038.183594" xlink:href="#DejaVuSans-32"/>
     <use x="1101.806641" xlink:href="#DejaVuSans-35"/>
    </g>
   </g>
   <g id="legend_1">
    <g id="patch_7">
     <path d="M 373.25 196.11625 
L 447.821875 196.11625 
Q 449.821875 196.11625 449.821875 194.11625 
L 449.821875 136.40375 
Q 449.821875 134.40375 447.821875 134.40375 
L 373.25 134.40375 
Q 371.25 134.40375 371.25 136.40375 
L 371.25 194.11625 
Q 371.25 196.11625 373.25 196.11625 
z
" style="fill:#ffffff;opacity:0.8;stroke:#cccccc;stroke-linejoin:miter;"/>
    </g>
    <g id="line2d_27">
     <path d="M 375.25 142.502187 
L 395.25 142.502187 
" style="fill:none;stroke:#1f77b4;stroke-linecap:square;stroke-width:1.5;"/>
    </g>
    <g id="line2d_28"/>
    <g id="text_15">
     <!-- FedAvg -->
     <g transform="translate(403.25 146.002187)scale(0.1 -0.1)">
      <defs>
       <path d="M 628 4666 
L 3309 4666 
L 3309 4134 
L 1259 4134 
L 1259 2759 
L 3109 2759 
L 3109 2228 
L 1259 2228 
L 1259 0 
L 628 0 
L 628 4666 
z
" id="DejaVuSans-46" transform="scale(0.015625)"/>
       <path d="M 191 3500 
L 800 3500 
L 1894 563 
L 2988 3500 
L 3597 3500 
L 2284 0 
L 1503 0 
L 191 3500 
z
" id="DejaVuSans-76" transform="scale(0.015625)"/>
       <path d="M 2906 1791 
Q 2906 2416 2648 2759 
Q 2391 3103 1925 3103 
Q 1463 3103 1205 2759 
Q 947 2416 947 1791 
Q 947 1169 1205 825 
Q 1463 481 1925 481 
Q 2391 481 2648 825 
Q 2906 1169 2906 1791 
z
M 3481 434 
Q 3481 -459 3084 -895 
Q 2688 -1331 1869 -1331 
Q 1566 -1331 1297 -1286 
Q 1028 -1241 775 -1147 
L 775 -588 
Q 1028 -725 1275 -790 
Q 1522 -856 1778 -856 
Q 2344 -856 2625 -561 
Q 2906 -266 2906 331 
L 2906 616 
Q 2728 306 2450 153 
Q 2172 0 1784 0 
Q 1141 0 747 490 
Q 353 981 353 1791 
Q 353 2603 747 3093 
Q 1141 3584 1784 3584 
Q 2172 3584 2450 3431 
Q 2728 3278 2906 2969 
L 2906 3500 
L 3481 3500 
L 3481 434 
z
" id="DejaVuSans-67" transform="scale(0.015625)"/>
      </defs>
      <use xlink:href="#DejaVuSans-46"/>
      <use x="52.019531" xlink:href="#DejaVuSans-65"/>
      <use x="113.542969" xlink:href="#DejaVuSans-64"/>
      <use x="177.019531" xlink:href="#DejaVuSans-41"/>
      <use x="239.552734" xlink:href="#DejaVuSans-76"/>
      <use x="298.732422" xlink:href="#DejaVuSans-67"/>
     </g>
    </g>
    <g id="line2d_29">
     <path d="M 375.25 157.180312 
L 395.25 157.180312 
" style="fill:none;stroke:#ff7f0e;stroke-linecap:square;stroke-width:1.5;"/>
    </g>
    <g id="line2d_30"/>
    <g id="text_16">
     <!-- FedMed -->
     <g transform="translate(403.25 160.680312)scale(0.1 -0.1)">
      <use xlink:href="#DejaVuSans-46"/>
      <use x="52.019531" xlink:href="#DejaVuSans-65"/>
      <use x="113.542969" xlink:href="#DejaVuSans-64"/>
      <use x="177.019531" xlink:href="#DejaVuSans-4d"/>
      <use x="263.298828" xlink:href="#DejaVuSans-65"/>
      <use x="324.822266" xlink:href="#DejaVuSans-64"/>
     </g>
    </g>
    <g id="line2d_31">
     <path d="M 375.25 171.858437 
L 395.25 171.858437 
" style="fill:none;stroke:#2ca02c;stroke-linecap:square;stroke-width:1.5;"/>
    </g>
    <g id="line2d_32"/>
    <g id="text_17">
     <!-- FedProx -->
     <g transform="translate(403.25 175.358437)scale(0.1 -0.1)">
      <defs>
       <path d="M 1259 4147 
L 1259 2394 
L 2053 2394 
Q 2494 2394 2734 2622 
Q 2975 2850 2975 3272 
Q 2975 3691 2734 3919 
Q 2494 4147 2053 4147 
L 1259 4147 
z
M 628 4666 
L 2053 4666 
Q 2838 4666 3239 4311 
Q 3641 3956 3641 3272 
Q 3641 2581 3239 2228 
Q 2838 1875 2053 1875 
L 1259 1875 
L 1259 0 
L 628 0 
L 628 4666 
z
" id="DejaVuSans-50" transform="scale(0.015625)"/>
       <path d="M 3513 3500 
L 2247 1797 
L 3578 0 
L 2900 0 
L 1881 1375 
L 863 0 
L 184 0 
L 1544 1831 
L 300 3500 
L 978 3500 
L 1906 2253 
L 2834 3500 
L 3513 3500 
z
" id="DejaVuSans-78" transform="scale(0.015625)"/>
      </defs>
      <use xlink:href="#DejaVuSans-46"/>
      <use x="52.019531" xlink:href="#DejaVuSans-65"/>
      <use x="113.542969" xlink:href="#DejaVuSans-64"/>
      <use x="177.019531" xlink:href="#DejaVuSans-50"/>
      <use x="235.572266" xlink:href="#DejaVuSans-72"/>
      <use x="274.435547" xlink:href="#DejaVuSans-6f"/>
      <use x="332.492188" xlink:href="#DejaVuSans-78"/>
     </g>
    </g>
    <g id="line2d_33">
     <path d="M 375.25 186.536563 
L 395.25 186.536563 
" style="fill:none;stroke:#d62728;stroke-linecap:square;stroke-width:1.5;"/>
    </g>
    <g id="line2d_34"/>
    <g id="text_18">
     <!-- qFedAvg -->
     <g transform="translate(403.25 190.036563)scale(0.1 -0.1)">
      <defs>
       <path d="M 947 1747 
Q 947 1113 1208 752 
Q 1469 391 1925 391 
Q 2381 391 2643 752 
Q 2906 1113 2906 1747 
Q 2906 2381 2643 2742 
Q 2381 3103 1925 3103 
Q 1469 3103 1208 2742 
Q 947 2381 947 1747 
z
M 2906 525 
Q 2725 213 2448 61 
Q 2172 -91 1784 -91 
Q 1150 -91 751 415 
Q 353 922 353 1747 
Q 353 2572 751 3078 
Q 1150 3584 1784 3584 
Q 2172 3584 2448 3432 
Q 2725 3281 2906 2969 
L 2906 3500 
L 3481 3500 
L 3481 -1331 
L 2906 -1331 
L 2906 525 
z
" id="DejaVuSans-71" transform="scale(0.015625)"/>
      </defs>
      <use xlink:href="#DejaVuSans-71"/>
      <use x="63.476562" xlink:href="#DejaVuSans-46"/>
      <use x="115.496094" xlink:href="#DejaVuSans-65"/>
      <use x="177.019531" xlink:href="#DejaVuSans-64"/>
      <use x="240.496094" xlink:href="#DejaVuSans-41"/>
      <use x="303.029297" xlink:href="#DejaVuSans-76"/>
      <use x="362.208984" xlink:href="#DejaVuSans-67"/>
     </g>
    </g>
   </g>
  </g>
 </g>
 <defs>
  <clipPath id="p38e06f0cec">
   <rect height="276.76" width="315.38" x="50.87" y="26.88"/>
  </clipPath>
 </defs>
</svg>
