<?xml version="1.0" encoding="utf-8" standalone="no"?>
<!DOCTYPE svg PUBLIC "-//W3C//DTD SVG 1.1//EN"
  "http://www.w3.org/Graphics/SVG/1.1/DTD/svg11.dtd">
<svg height="345.6pt" version="1.1" viewBox="0 0 460.8 345.6" width="460.8pt" xmlns="http://www.w3.org/2000/svg" xmlns:xlink="http://www.w3.org/1999/xlink">
 <metadata>
  <rdf:RDF xmlns:cc="http://creativecommons.org/ns#" xmlns:dc="http://purl.org/dc/elements/1.1/" xmlns:rdf="http://www.w3.org/1999/02/22-rdf-syntax-ns#">
   <cc:Work>
    <dc:type rdf:resource="http://purl.org/dc/dcmitype/StillImage"/>
    <dc:date>2021-05-07T12:06:40.834464</dc:date>
    <dc:format>image/svg+xml</dc:format>
    <dc:creator>
     <cc:Agent>
      <dc:title>Matplotlib v3.4.1, https://matplotlib.org/</dc:title>
     </cc:Agent>
    </dc:creator>
   </cc:Work>
  </rdf:RDF>
 </metadata>
 <defs>
  <style type="text/css">*{stroke-linecap:butt;stroke-linejoin:round;}</style>
 </defs>
 <g id="figure_1">
  <g id="patch_1">
   <path d="M 0 345.6 
L 460.8 345.6 
L 460.8 0 
L 0 0 
z
" style="fill:#ffffff;"/>
  </g>
  <g id="axes_1">
   <g id="patch_2">
    <path d="M 44.57 303.64 
L 450 303.64 
L 450 32.876829 
L 44.57 32.876829 
z
" style="fill:#ffffff;"/>
   </g>
   <g id="PolyCollection_1">
    <path clip-path="url(#peb32043d00)" d="M 62.998636 220.780752 
L 62.998636 249.768626 
L 70.520529 231.820203 
L 78.042421 197.627326 
L 85.564314 166.875234 
L 93.086206 147.418539 
L 100.608098 120.945191 
L 108.129991 129.631601 
L 115.651883 119.234757 
L 123.173776 103.350642 
L 130.695668 78.43016 
L 138.21756 103.942826 
L 145.739453 79.855561 
L 153.261345 81.026399 
L 160.783237 75.140426 
L 168.30513 72.098346 
L 175.827022 73.207044 
L 183.348915 69.700227 
L 190.870807 65.300142 
L 198.392699 64.348821 
L 205.914592 72.327331 
L 213.436484 76.458997 
L 220.958377 79.942488 
L 228.480269 62.180094 
L 236.002161 68.18266 
L 243.524054 67.615247 
L 251.045946 71.180523 
L 258.567839 69.748215 
L 266.089731 63.788239 
L 273.611623 61.376485 
L 281.133516 63.232161 
L 288.655408 64.913877 
L 296.177301 55.1786 
L 303.699193 61.979343 
L 311.221085 57.761145 
L 318.742978 53.452932 
L 326.26487 57.259938 
L 333.786763 66.814863 
L 341.308655 54.863111 
L 348.830547 55.696406 
L 356.35244 58.930498 
L 363.874332 52.758046 
L 371.396224 63.051277 
L 378.918117 60.307999 
L 386.440009 52.425696 
L 393.961902 57.735461 
L 401.483794 51.881409 
L 409.005686 54.95062 
L 416.527579 55.09557 
L 424.049471 54.602284 
L 431.571364 61.762464 
L 431.571364 48.233787 
L 431.571364 48.233787 
L 424.049471 46.974044 
L 416.527579 45.428267 
L 409.005686 47.97891 
L 401.483794 45.184246 
L 393.961902 45.645137 
L 386.440009 45.542094 
L 378.918117 52.394656 
L 371.396224 47.546397 
L 363.874332 48.667927 
L 356.35244 47.908282 
L 348.830547 49.939528 
L 341.308655 48.216774 
L 333.786763 46.338859 
L 326.26487 48.526352 
L 318.742978 47.521973 
L 311.221085 47.12301 
L 303.699193 46.663706 
L 296.177301 50.457333 
L 288.655408 53.953364 
L 281.133516 52.928676 
L 273.611623 51.777237 
L 266.089731 53.876156 
L 258.567839 53.028276 
L 251.045946 56.407352 
L 243.524054 50.800927 
L 236.002161 52.037783 
L 228.480269 58.190705 
L 220.958377 60.726339 
L 213.436484 57.143109 
L 205.914592 58.26766 
L 198.392699 56.623401 
L 190.870807 54.61959 
L 183.348915 55.933024 
L 175.827022 65.356803 
L 168.30513 59.248424 
L 160.783237 62.521286 
L 153.261345 63.100611 
L 145.739453 61.715401 
L 138.21756 67.699289 
L 130.695668 72.913927 
L 123.173776 78.816377 
L 115.651883 75.41179 
L 108.129991 85.463331 
L 100.608098 81.519856 
L 93.086206 104.3632 
L 85.564314 131.366435 
L 78.042421 165.568035 
L 70.520529 195.126002 
L 62.998636 220.780752 
z
" style="fill:#1f77b4;fill-opacity:0.5;"/>
   </g>
   <g id="PolyCollection_2">
    <path clip-path="url(#peb32043d00)" d="M 62.998636 227.939112 
L 62.998636 282.905611 
L 70.520529 288.350716 
L 78.042421 291.332583 
L 85.564314 224.319158 
L 93.086206 284.821938 
L 100.608098 254.19533 
L 108.129991 253.20155 
L 115.651883 252.959177 
L 123.173776 263.175406 
L 130.695668 210.124396 
L 138.21756 233.548249 
L 145.739453 195.886614 
L 153.261345 257.021223 
L 160.783237 166.110433 
L 168.30513 196.520468 
L 175.827022 166.63424 
L 183.348915 157.127226 
L 190.870807 164.782587 
L 198.392699 137.720218 
L 205.914592 224.159048 
L 213.436484 214.867822 
L 220.958377 183.797567 
L 228.480269 160.497804 
L 236.002161 137.918256 
L 243.524054 134.597083 
L 251.045946 158.460513 
L 258.567839 146.265974 
L 266.089731 165.175676 
L 273.611623 141.919798 
L 281.133516 164.896577 
L 288.655408 138.532563 
L 296.177301 140.367834 
L 303.699193 147.741332 
L 311.221085 135.623373 
L 318.742978 138.664122 
L 326.26487 145.842257 
L 333.786763 143.702977 
L 341.308655 130.061557 
L 348.830547 160.143103 
L 356.35244 135.254388 
L 363.874332 124.19276 
L 371.396224 171.295529 
L 378.918117 178.287334 
L 386.440009 131.23493 
L 393.961902 134.232464 
L 401.483794 120.391906 
L 409.005686 128.334705 
L 416.527579 194.496407 
L 424.049471 184.284187 
L 431.571364 157.573841 
L 431.571364 104.582445 
L 431.571364 104.582445 
L 424.049471 86.592734 
L 416.527579 82.094033 
L 409.005686 110.516437 
L 401.483794 96.206584 
L 393.961902 107.325082 
L 386.440009 114.532577 
L 378.918117 122.209672 
L 371.396224 100.182815 
L 363.874332 110.298065 
L 356.35244 100.589639 
L 348.830547 120.055875 
L 341.308655 109.090297 
L 333.786763 113.491569 
L 326.26487 114.50976 
L 318.742978 104.697693 
L 311.221085 105.33275 
L 303.699193 107.799301 
L 296.177301 116.826711 
L 288.655408 106.934233 
L 281.133516 107.483901 
L 273.611623 115.124392 
L 266.089731 124.044648 
L 258.567839 131.376956 
L 251.045946 114.8221 
L 243.524054 116.583232 
L 236.002161 111.608145 
L 228.480269 135.037462 
L 220.958377 123.615805 
L 213.436484 131.788404 
L 205.914592 117.83615 
L 198.392699 128.495674 
L 190.870807 125.941295 
L 183.348915 130.739896 
L 175.827022 120.180391 
L 168.30513 131.942711 
L 160.783237 137.995111 
L 153.261345 146.92055 
L 145.739453 119.946681 
L 138.21756 135.510986 
L 130.695668 158.183061 
L 123.173776 150.389137 
L 115.651883 140.457692 
L 108.129991 153.145916 
L 100.608098 151.400357 
L 93.086206 224.06816 
L 85.564314 152.408222 
L 78.042421 264.017447 
L 70.520529 173.327671 
L 62.998636 227.939112 
z
" style="fill:#ff7f0e;fill-opacity:0.5;"/>
   </g>
   <g id="PolyCollection_3">
    <path clip-path="url(#peb32043d00)" d="M 62.998636 235.476776 
L 62.998636 277.923995 
L 70.520529 231.238375 
L 78.042421 211.933024 
L 85.564314 159.256786 
L 93.086206 148.593361 
L 100.608098 134.710818 
L 108.129991 122.900616 
L 115.651883 96.55585 
L 123.173776 104.205515 
L 130.695668 92.839239 
L 138.21756 83.202124 
L 145.739453 104.022289 
L 153.261345 81.317064 
L 160.783237 70.19188 
L 168.30513 67.825787 
L 175.827022 79.001609 
L 183.348915 80.615279 
L 190.870807 67.940356 
L 198.392699 65.745669 
L 205.914592 63.877076 
L 213.436484 68.923928 
L 220.958377 65.718681 
L 228.480269 66.465849 
L 236.002161 72.562184 
L 243.524054 65.209312 
L 251.045946 64.537135 
L 258.567839 65.613312 
L 266.089731 61.48092 
L 273.611623 60.108431 
L 281.133516 61.45374 
L 288.655408 60.33458 
L 296.177301 60.35221 
L 303.699193 60.537521 
L 311.221085 64.403079 
L 318.742978 60.65041 
L 326.26487 59.81538 
L 333.786763 63.202647 
L 341.308655 59.624059 
L 348.830547 59.82162 
L 356.35244 59.04559 
L 363.874332 59.479094 
L 371.396224 61.516218 
L 378.918117 58.434933 
L 386.440009 59.748217 
L 393.961902 58.298625 
L 401.483794 59.57934 
L 409.005686 59.944181 
L 416.527579 58.188965 
L 424.049471 60.634318 
L 431.571364 60.483604 
L 431.571364 49.211935 
L 431.571364 49.211935 
L 424.049471 50.113711 
L 416.527579 47.146258 
L 409.005686 49.149935 
L 401.483794 48.612642 
L 393.961902 46.735886 
L 386.440009 48.744476 
L 378.918117 47.351357 
L 371.396224 51.186437 
L 363.874332 49.615022 
L 356.35244 49.747815 
L 348.830547 50.475343 
L 341.308655 51.12397 
L 333.786763 53.709969 
L 326.26487 50.180871 
L 318.742978 50.09762 
L 311.221085 53.411672 
L 303.699193 50.811932 
L 296.177301 51.749022 
L 288.655408 50.714161 
L 281.133516 56.210655 
L 273.611623 50.639599 
L 266.089731 54.679918 
L 258.567839 52.502151 
L 251.045946 55.984019 
L 243.524054 56.965756 
L 236.002161 60.288143 
L 228.480269 59.618469 
L 220.958377 58.561368 
L 213.436484 59.115015 
L 205.914592 58.899415 
L 198.392699 61.842206 
L 190.870807 63.55677 
L 183.348915 62.308885 
L 175.827022 58.960815 
L 168.30513 59.912444 
L 160.783237 62.959159 
L 153.261345 67.771686 
L 145.739453 70.175874 
L 138.21756 66.638405 
L 130.695668 74.141848 
L 123.173776 75.255099 
L 115.651883 83.205477 
L 108.129991 80.31621 
L 100.608098 99.32894 
L 93.086206 125.591386 
L 85.564314 109.515154 
L 78.042421 149.758779 
L 70.520529 182.927591 
L 62.998636 235.476776 
z
" style="fill:#2ca02c;fill-opacity:0.5;"/>
   </g>
   <g id="PolyCollection_4">
    <path clip-path="url(#peb32043d00)" d="M 62.998636 251.825561 
L 62.998636 288.897108 
L 70.520529 271.719539 
L 78.042421 269.441715 
L 85.564314 264.189246 
L 93.086206 259.171453 
L 100.608098 254.20432 
L 108.129991 247.552957 
L 115.651883 240.502886 
L 123.173776 235.069183 
L 130.695668 230.764211 
L 138.21756 226.462578 
L 145.739453 222.585396 
L 153.261345 220.13367 
L 160.783237 217.290869 
L 168.30513 215.027472 
L 175.827022 213.384601 
L 183.348915 212.099157 
L 190.870807 209.87194 
L 198.392699 208.664592 
L 205.914592 206.698517 
L 213.436484 205.777808 
L 220.958377 204.595845 
L 228.480269 203.792101 
L 236.002161 202.812991 
L 243.524054 201.657607 
L 251.045946 199.851667 
L 258.567839 198.477543 
L 266.089731 196.607009 
L 273.611623 194.860148 
L 281.133516 192.828603 
L 288.655408 190.994901 
L 296.177301 188.996445 
L 303.699193 187.660323 
L 311.221085 185.815055 
L 318.742978 184.176846 
L 326.26487 181.851184 
L 333.786763 179.272869 
L 341.308655 177.431575 
L 348.830547 175.607699 
L 356.35244 173.701507 
L 363.874332 172.143121 
L 371.396224 170.502195 
L 378.918117 169.578815 
L 386.440009 167.283242 
L 393.961902 165.792209 
L 401.483794 164.178829 
L 409.005686 162.732868 
L 416.527579 161.612823 
L 424.049471 160.595285 
L 431.571364 159.303939 
L 431.571364 114.161356 
L 431.571364 114.161356 
L 424.049471 114.37853 
L 416.527579 114.893267 
L 409.005686 115.495547 
L 401.483794 115.855058 
L 393.961902 116.260956 
L 386.440009 116.682298 
L 378.918117 116.73859 
L 371.396224 117.501902 
L 363.874332 117.927765 
L 356.35244 118.329267 
L 348.830547 118.715549 
L 341.308655 119.148513 
L 333.786763 120.146087 
L 326.26487 120.477908 
L 318.742978 120.44472 
L 311.221085 121.087107 
L 303.699193 122.199487 
L 296.177301 122.835131 
L 288.655408 123.212296 
L 281.133516 123.766093 
L 273.611623 124.062657 
L 266.089731 125.130906 
L 258.567839 125.695384 
L 251.045946 126.388051 
L 243.524054 127.480368 
L 236.002161 128.118579 
L 228.480269 128.82616 
L 220.958377 129.827887 
L 213.436484 131.30662 
L 205.914592 132.678385 
L 198.392699 134.548939 
L 190.870807 137.225731 
L 183.348915 139.844781 
L 175.827022 142.799821 
L 168.30513 146.074485 
L 160.783237 148.681112 
L 153.261345 153.820397 
L 145.739453 158.388632 
L 138.21756 163.134955 
L 130.695668 169.737422 
L 123.173776 175.730768 
L 115.651883 181.319947 
L 108.129991 185.197733 
L 100.608098 189.058493 
L 93.086206 190.695587 
L 85.564314 194.301299 
L 78.042421 197.553554 
L 70.520529 206.42927 
L 62.998636 251.825561 
z
" style="fill:#d62728;fill-opacity:0.5;"/>
   </g>
   <g id="matplotlib.axis_1">
    <g id="xtick_1">
     <g id="line2d_1">
      <defs>
       <path d="M 0 0 
L 0 3.5 
" id="mea5221a29a" style="stroke:#000000;stroke-width:0.8;"/>
      </defs>
      <g>
       <use style="stroke:#000000;stroke-width:0.8;" x="62.998636" xlink:href="#mea5221a29a" y="303.64"/>
      </g>
     </g>
     <g id="text_1">
      <!-- 0 -->
      <g transform="translate(59.817386 318.238437)scale(0.1 -0.1)">
       <defs>
        <path d="M 2034 4250 
Q 1547 4250 1301 3770 
Q 1056 3291 1056 2328 
Q 1056 1369 1301 889 
Q 1547 409 2034 409 
Q 2525 409 2770 889 
Q 3016 1369 3016 2328 
Q 3016 3291 2770 3770 
Q 2525 4250 2034 4250 
z
M 2034 4750 
Q 2819 4750 3233 4129 
Q 3647 3509 3647 2328 
Q 3647 1150 3233 529 
Q 2819 -91 2034 -91 
Q 1250 -91 836 529 
Q 422 1150 422 2328 
Q 422 3509 836 4129 
Q 1250 4750 2034 4750 
z
" id="DejaVuSans-30" transform="scale(0.015625)"/>
       </defs>
       <use xlink:href="#DejaVuSans-30"/>
      </g>
     </g>
    </g>
    <g id="xtick_2">
     <g id="line2d_2">
      <g>
       <use style="stroke:#000000;stroke-width:0.8;" x="138.21756" xlink:href="#mea5221a29a" y="303.64"/>
      </g>
     </g>
     <g id="text_2">
      <!-- 10 -->
      <g transform="translate(131.85506 318.238437)scale(0.1 -0.1)">
       <defs>
        <path d="M 794 531 
L 1825 531 
L 1825 4091 
L 703 3866 
L 703 4441 
L 1819 4666 
L 2450 4666 
L 2450 531 
L 3481 531 
L 3481 0 
L 794 0 
L 794 531 
z
" id="DejaVuSans-31" transform="scale(0.015625)"/>
       </defs>
       <use xlink:href="#DejaVuSans-31"/>
       <use x="63.623047" xlink:href="#DejaVuSans-30"/>
      </g>
     </g>
    </g>
    <g id="xtick_3">
     <g id="line2d_3">
      <g>
       <use style="stroke:#000000;stroke-width:0.8;" x="213.436484" xlink:href="#mea5221a29a" y="303.64"/>
      </g>
     </g>
     <g id="text_3">
      <!-- 20 -->
      <g transform="translate(207.073984 318.238437)scale(0.1 -0.1)">
       <defs>
        <path d="M 1228 531 
L 3431 531 
L 3431 0 
L 469 0 
L 469 531 
Q 828 903 1448 1529 
Q 2069 2156 2228 2338 
Q 2531 2678 2651 2914 
Q 2772 3150 2772 3378 
Q 2772 3750 2511 3984 
Q 2250 4219 1831 4219 
Q 1534 4219 1204 4116 
Q 875 4013 500 3803 
L 500 4441 
Q 881 4594 1212 4672 
Q 1544 4750 1819 4750 
Q 2544 4750 2975 4387 
Q 3406 4025 3406 3419 
Q 3406 3131 3298 2873 
Q 3191 2616 2906 2266 
Q 2828 2175 2409 1742 
Q 1991 1309 1228 531 
z
" id="DejaVuSans-32" transform="scale(0.015625)"/>
       </defs>
       <use xlink:href="#DejaVuSans-32"/>
       <use x="63.623047" xlink:href="#DejaVuSans-30"/>
      </g>
     </g>
    </g>
    <g id="xtick_4">
     <g id="line2d_4">
      <g>
       <use style="stroke:#000000;stroke-width:0.8;" x="288.655408" xlink:href="#mea5221a29a" y="303.64"/>
      </g>
     </g>
     <g id="text_4">
      <!-- 30 -->
      <g transform="translate(282.292908 318.238437)scale(0.1 -0.1)">
       <defs>
        <path d="M 2597 2516 
Q 3050 2419 3304 2112 
Q 3559 1806 3559 1356 
Q 3559 666 3084 287 
Q 2609 -91 1734 -91 
Q 1441 -91 1130 -33 
Q 819 25 488 141 
L 488 750 
Q 750 597 1062 519 
Q 1375 441 1716 441 
Q 2309 441 2620 675 
Q 2931 909 2931 1356 
Q 2931 1769 2642 2001 
Q 2353 2234 1838 2234 
L 1294 2234 
L 1294 2753 
L 1863 2753 
Q 2328 2753 2575 2939 
Q 2822 3125 2822 3475 
Q 2822 3834 2567 4026 
Q 2313 4219 1838 4219 
Q 1578 4219 1281 4162 
Q 984 4106 628 3988 
L 628 4550 
Q 988 4650 1302 4700 
Q 1616 4750 1894 4750 
Q 2613 4750 3031 4423 
Q 3450 4097 3450 3541 
Q 3450 3153 3228 2886 
Q 3006 2619 2597 2516 
z
" id="DejaVuSans-33" transform="scale(0.015625)"/>
       </defs>
       <use xlink:href="#DejaVuSans-33"/>
       <use x="63.623047" xlink:href="#DejaVuSans-30"/>
      </g>
     </g>
    </g>
    <g id="xtick_5">
     <g id="line2d_5">
      <g>
       <use style="stroke:#000000;stroke-width:0.8;" x="363.874332" xlink:href="#mea5221a29a" y="303.64"/>
      </g>
     </g>
     <g id="text_5">
      <!-- 40 -->
      <g transform="translate(357.511832 318.238437)scale(0.1 -0.1)">
       <defs>
        <path d="M 2419 4116 
L 825 1625 
L 2419 1625 
L 2419 4116 
z
M 2253 4666 
L 3047 4666 
L 3047 1625 
L 3713 1625 
L 3713 1100 
L 3047 1100 
L 3047 0 
L 2419 0 
L 2419 1100 
L 313 1100 
L 313 1709 
L 2253 4666 
z
" id="DejaVuSans-34" transform="scale(0.015625)"/>
       </defs>
       <use xlink:href="#DejaVuSans-34"/>
       <use x="63.623047" xlink:href="#DejaVuSans-30"/>
      </g>
     </g>
    </g>
    <g id="xtick_6">
     <g id="line2d_6">
      <g>
       <use style="stroke:#000000;stroke-width:0.8;" x="439.093256" xlink:href="#mea5221a29a" y="303.64"/>
      </g>
     </g>
     <g id="text_6">
      <!-- 50 -->
      <g transform="translate(432.730756 318.238437)scale(0.1 -0.1)">
       <defs>
        <path d="M 691 4666 
L 3169 4666 
L 3169 4134 
L 1269 4134 
L 1269 2991 
Q 1406 3038 1543 3061 
Q 1681 3084 1819 3084 
Q 2600 3084 3056 2656 
Q 3513 2228 3513 1497 
Q 3513 744 3044 326 
Q 2575 -91 1722 -91 
Q 1428 -91 1123 -41 
Q 819 9 494 109 
L 494 744 
Q 775 591 1075 516 
Q 1375 441 1709 441 
Q 2250 441 2565 725 
Q 2881 1009 2881 1497 
Q 2881 1984 2565 2268 
Q 2250 2553 1709 2553 
Q 1456 2553 1204 2497 
Q 953 2441 691 2322 
L 691 4666 
z
" id="DejaVuSans-35" transform="scale(0.015625)"/>
       </defs>
       <use xlink:href="#DejaVuSans-35"/>
       <use x="63.623047" xlink:href="#DejaVuSans-30"/>
      </g>
     </g>
    </g>
    <g id="text_7">
     <!-- Global Communication Rounds -->
     <g transform="translate(170.323281 331.916562)scale(0.1 -0.1)">
      <defs>
       <path d="M 3809 666 
L 3809 1919 
L 2778 1919 
L 2778 2438 
L 4434 2438 
L 4434 434 
Q 4069 175 3628 42 
Q 3188 -91 2688 -91 
Q 1594 -91 976 548 
Q 359 1188 359 2328 
Q 359 3472 976 4111 
Q 1594 4750 2688 4750 
Q 3144 4750 3555 4637 
Q 3966 4525 4313 4306 
L 4313 3634 
Q 3963 3931 3569 4081 
Q 3175 4231 2741 4231 
Q 1884 4231 1454 3753 
Q 1025 3275 1025 2328 
Q 1025 1384 1454 906 
Q 1884 428 2741 428 
Q 3075 428 3337 486 
Q 3600 544 3809 666 
z
" id="DejaVuSans-47" transform="scale(0.015625)"/>
       <path d="M 603 4863 
L 1178 4863 
L 1178 0 
L 603 0 
L 603 4863 
z
" id="DejaVuSans-6c" transform="scale(0.015625)"/>
       <path d="M 1959 3097 
Q 1497 3097 1228 2736 
Q 959 2375 959 1747 
Q 959 1119 1226 758 
Q 1494 397 1959 397 
Q 2419 397 2687 759 
Q 2956 1122 2956 1747 
Q 2956 2369 2687 2733 
Q 2419 3097 1959 3097 
z
M 1959 3584 
Q 2709 3584 3137 3096 
Q 3566 2609 3566 1747 
Q 3566 888 3137 398 
Q 2709 -91 1959 -91 
Q 1206 -91 779 398 
Q 353 888 353 1747 
Q 353 2609 779 3096 
Q 1206 3584 1959 3584 
z
" id="DejaVuSans-6f" transform="scale(0.015625)"/>
       <path d="M 3116 1747 
Q 3116 2381 2855 2742 
Q 2594 3103 2138 3103 
Q 1681 3103 1420 2742 
Q 1159 2381 1159 1747 
Q 1159 1113 1420 752 
Q 1681 391 2138 391 
Q 2594 391 2855 752 
Q 3116 1113 3116 1747 
z
M 1159 2969 
Q 1341 3281 1617 3432 
Q 1894 3584 2278 3584 
Q 2916 3584 3314 3078 
Q 3713 2572 3713 1747 
Q 3713 922 3314 415 
Q 2916 -91 2278 -91 
Q 1894 -91 1617 61 
Q 1341 213 1159 525 
L 1159 0 
L 581 0 
L 581 4863 
L 1159 4863 
L 1159 2969 
z
" id="DejaVuSans-62" transform="scale(0.015625)"/>
       <path d="M 2194 1759 
Q 1497 1759 1228 1600 
Q 959 1441 959 1056 
Q 959 750 1161 570 
Q 1363 391 1709 391 
Q 2188 391 2477 730 
Q 2766 1069 2766 1631 
L 2766 1759 
L 2194 1759 
z
M 3341 1997 
L 3341 0 
L 2766 0 
L 2766 531 
Q 2569 213 2275 61 
Q 1981 -91 1556 -91 
Q 1019 -91 701 211 
Q 384 513 384 1019 
Q 384 1609 779 1909 
Q 1175 2209 1959 2209 
L 2766 2209 
L 2766 2266 
Q 2766 2663 2505 2880 
Q 2244 3097 1772 3097 
Q 1472 3097 1187 3025 
Q 903 2953 641 2809 
L 641 3341 
Q 956 3463 1253 3523 
Q 1550 3584 1831 3584 
Q 2591 3584 2966 3190 
Q 3341 2797 3341 1997 
z
" id="DejaVuSans-61" transform="scale(0.015625)"/>
       <path id="DejaVuSans-20" transform="scale(0.015625)"/>
       <path d="M 4122 4306 
L 4122 3641 
Q 3803 3938 3442 4084 
Q 3081 4231 2675 4231 
Q 1875 4231 1450 3742 
Q 1025 3253 1025 2328 
Q 1025 1406 1450 917 
Q 1875 428 2675 428 
Q 3081 428 3442 575 
Q 3803 722 4122 1019 
L 4122 359 
Q 3791 134 3420 21 
Q 3050 -91 2638 -91 
Q 1578 -91 968 557 
Q 359 1206 359 2328 
Q 359 3453 968 4101 
Q 1578 4750 2638 4750 
Q 3056 4750 3426 4639 
Q 3797 4528 4122 4306 
z
" id="DejaVuSans-43" transform="scale(0.015625)"/>
       <path d="M 3328 2828 
Q 3544 3216 3844 3400 
Q 4144 3584 4550 3584 
Q 5097 3584 5394 3201 
Q 5691 2819 5691 2113 
L 5691 0 
L 5113 0 
L 5113 2094 
Q 5113 2597 4934 2840 
Q 4756 3084 4391 3084 
Q 3944 3084 3684 2787 
Q 3425 2491 3425 1978 
L 3425 0 
L 2847 0 
L 2847 2094 
Q 2847 2600 2669 2842 
Q 2491 3084 2119 3084 
Q 1678 3084 1418 2786 
Q 1159 2488 1159 1978 
L 1159 0 
L 581 0 
L 581 3500 
L 1159 3500 
L 1159 2956 
Q 1356 3278 1631 3431 
Q 1906 3584 2284 3584 
Q 2666 3584 2933 3390 
Q 3200 3197 3328 2828 
z
" id="DejaVuSans-6d" transform="scale(0.015625)"/>
       <path d="M 544 1381 
L 544 3500 
L 1119 3500 
L 1119 1403 
Q 1119 906 1312 657 
Q 1506 409 1894 409 
Q 2359 409 2629 706 
Q 2900 1003 2900 1516 
L 2900 3500 
L 3475 3500 
L 3475 0 
L 2900 0 
L 2900 538 
Q 2691 219 2414 64 
Q 2138 -91 1772 -91 
Q 1169 -91 856 284 
Q 544 659 544 1381 
z
M 1991 3584 
L 1991 3584 
z
" id="DejaVuSans-75" transform="scale(0.015625)"/>
       <path d="M 3513 2113 
L 3513 0 
L 2938 0 
L 2938 2094 
Q 2938 2591 2744 2837 
Q 2550 3084 2163 3084 
Q 1697 3084 1428 2787 
Q 1159 2491 1159 1978 
L 1159 0 
L 581 0 
L 581 3500 
L 1159 3500 
L 1159 2956 
Q 1366 3272 1645 3428 
Q 1925 3584 2291 3584 
Q 2894 3584 3203 3211 
Q 3513 2838 3513 2113 
z
" id="DejaVuSans-6e" transform="scale(0.015625)"/>
       <path d="M 603 3500 
L 1178 3500 
L 1178 0 
L 603 0 
L 603 3500 
z
M 603 4863 
L 1178 4863 
L 1178 4134 
L 603 4134 
L 603 4863 
z
" id="DejaVuSans-69" transform="scale(0.015625)"/>
       <path d="M 3122 3366 
L 3122 2828 
Q 2878 2963 2633 3030 
Q 2388 3097 2138 3097 
Q 1578 3097 1268 2742 
Q 959 2388 959 1747 
Q 959 1106 1268 751 
Q 1578 397 2138 397 
Q 2388 397 2633 464 
Q 2878 531 3122 666 
L 3122 134 
Q 2881 22 2623 -34 
Q 2366 -91 2075 -91 
Q 1284 -91 818 406 
Q 353 903 353 1747 
Q 353 2603 823 3093 
Q 1294 3584 2113 3584 
Q 2378 3584 2631 3529 
Q 2884 3475 3122 3366 
z
" id="DejaVuSans-63" transform="scale(0.015625)"/>
       <path d="M 1172 4494 
L 1172 3500 
L 2356 3500 
L 2356 3053 
L 1172 3053 
L 1172 1153 
Q 1172 725 1289 603 
Q 1406 481 1766 481 
L 2356 481 
L 2356 0 
L 1766 0 
Q 1100 0 847 248 
Q 594 497 594 1153 
L 594 3053 
L 172 3053 
L 172 3500 
L 594 3500 
L 594 4494 
L 1172 4494 
z
" id="DejaVuSans-74" transform="scale(0.015625)"/>
       <path d="M 2841 2188 
Q 3044 2119 3236 1894 
Q 3428 1669 3622 1275 
L 4263 0 
L 3584 0 
L 2988 1197 
Q 2756 1666 2539 1819 
Q 2322 1972 1947 1972 
L 1259 1972 
L 1259 0 
L 628 0 
L 628 4666 
L 2053 4666 
Q 2853 4666 3247 4331 
Q 3641 3997 3641 3322 
Q 3641 2881 3436 2590 
Q 3231 2300 2841 2188 
z
M 1259 4147 
L 1259 2491 
L 2053 2491 
Q 2509 2491 2742 2702 
Q 2975 2913 2975 3322 
Q 2975 3731 2742 3939 
Q 2509 4147 2053 4147 
L 1259 4147 
z
" id="DejaVuSans-52" transform="scale(0.015625)"/>
       <path d="M 2906 2969 
L 2906 4863 
L 3481 4863 
L 3481 0 
L 2906 0 
L 2906 525 
Q 2725 213 2448 61 
Q 2172 -91 1784 -91 
Q 1150 -91 751 415 
Q 353 922 353 1747 
Q 353 2572 751 3078 
Q 1150 3584 1784 3584 
Q 2172 3584 2448 3432 
Q 2725 3281 2906 2969 
z
M 947 1747 
Q 947 1113 1208 752 
Q 1469 391 1925 391 
Q 2381 391 2643 752 
Q 2906 1113 2906 1747 
Q 2906 2381 2643 2742 
Q 2381 3103 1925 3103 
Q 1469 3103 1208 2742 
Q 947 2381 947 1747 
z
" id="DejaVuSans-64" transform="scale(0.015625)"/>
       <path d="M 2834 3397 
L 2834 2853 
Q 2591 2978 2328 3040 
Q 2066 3103 1784 3103 
Q 1356 3103 1142 2972 
Q 928 2841 928 2578 
Q 928 2378 1081 2264 
Q 1234 2150 1697 2047 
L 1894 2003 
Q 2506 1872 2764 1633 
Q 3022 1394 3022 966 
Q 3022 478 2636 193 
Q 2250 -91 1575 -91 
Q 1294 -91 989 -36 
Q 684 19 347 128 
L 347 722 
Q 666 556 975 473 
Q 1284 391 1588 391 
Q 1994 391 2212 530 
Q 2431 669 2431 922 
Q 2431 1156 2273 1281 
Q 2116 1406 1581 1522 
L 1381 1569 
Q 847 1681 609 1914 
Q 372 2147 372 2553 
Q 372 3047 722 3315 
Q 1072 3584 1716 3584 
Q 2034 3584 2315 3537 
Q 2597 3491 2834 3397 
z
" id="DejaVuSans-73" transform="scale(0.015625)"/>
      </defs>
      <use xlink:href="#DejaVuSans-47"/>
      <use x="77.490234" xlink:href="#DejaVuSans-6c"/>
      <use x="105.273438" xlink:href="#DejaVuSans-6f"/>
      <use x="166.455078" xlink:href="#DejaVuSans-62"/>
      <use x="229.931641" xlink:href="#DejaVuSans-61"/>
      <use x="291.210938" xlink:href="#DejaVuSans-6c"/>
      <use x="318.994141" xlink:href="#DejaVuSans-20"/>
      <use x="350.78125" xlink:href="#DejaVuSans-43"/>
      <use x="420.605469" xlink:href="#DejaVuSans-6f"/>
      <use x="481.787109" xlink:href="#DejaVuSans-6d"/>
      <use x="579.199219" xlink:href="#DejaVuSans-6d"/>
      <use x="676.611328" xlink:href="#DejaVuSans-75"/>
      <use x="739.990234" xlink:href="#DejaVuSans-6e"/>
      <use x="803.369141" xlink:href="#DejaVuSans-69"/>
      <use x="831.152344" xlink:href="#DejaVuSans-63"/>
      <use x="886.132812" xlink:href="#DejaVuSans-61"/>
      <use x="947.412109" xlink:href="#DejaVuSans-74"/>
      <use x="986.621094" xlink:href="#DejaVuSans-69"/>
      <use x="1014.404297" xlink:href="#DejaVuSans-6f"/>
      <use x="1075.585938" xlink:href="#DejaVuSans-6e"/>
      <use x="1138.964844" xlink:href="#DejaVuSans-20"/>
      <use x="1170.751953" xlink:href="#DejaVuSans-52"/>
      <use x="1235.734375" xlink:href="#DejaVuSans-6f"/>
      <use x="1296.916016" xlink:href="#DejaVuSans-75"/>
      <use x="1360.294922" xlink:href="#DejaVuSans-6e"/>
      <use x="1423.673828" xlink:href="#DejaVuSans-64"/>
      <use x="1487.150391" xlink:href="#DejaVuSans-73"/>
     </g>
    </g>
   </g>
   <g id="matplotlib.axis_2">
    <g id="ytick_1">
     <g id="line2d_7">
      <defs>
       <path d="M 0 0 
L -3.5 0 
" id="m972c261f72" style="stroke:#000000;stroke-width:0.8;"/>
      </defs>
      <g>
       <use style="stroke:#000000;stroke-width:0.8;" x="44.57" xlink:href="#m972c261f72" y="269.856515"/>
      </g>
     </g>
     <g id="text_8">
      <!-- 20 -->
      <g transform="translate(24.845 273.655734)scale(0.1 -0.1)">
       <use xlink:href="#DejaVuSans-32"/>
       <use x="63.623047" xlink:href="#DejaVuSans-30"/>
      </g>
     </g>
    </g>
    <g id="ytick_2">
     <g id="line2d_8">
      <g>
       <use style="stroke:#000000;stroke-width:0.8;" x="44.57" xlink:href="#m972c261f72" y="210.465987"/>
      </g>
     </g>
     <g id="text_9">
      <!-- 40 -->
      <g transform="translate(24.845 214.265206)scale(0.1 -0.1)">
       <use xlink:href="#DejaVuSans-34"/>
       <use x="63.623047" xlink:href="#DejaVuSans-30"/>
      </g>
     </g>
    </g>
    <g id="ytick_3">
     <g id="line2d_9">
      <g>
       <use style="stroke:#000000;stroke-width:0.8;" x="44.57" xlink:href="#m972c261f72" y="151.07546"/>
      </g>
     </g>
     <g id="text_10">
      <!-- 60 -->
      <g transform="translate(24.845 154.874679)scale(0.1 -0.1)">
       <defs>
        <path d="M 2113 2584 
Q 1688 2584 1439 2293 
Q 1191 2003 1191 1497 
Q 1191 994 1439 701 
Q 1688 409 2113 409 
Q 2538 409 2786 701 
Q 3034 994 3034 1497 
Q 3034 2003 2786 2293 
Q 2538 2584 2113 2584 
z
M 3366 4563 
L 3366 3988 
Q 3128 4100 2886 4159 
Q 2644 4219 2406 4219 
Q 1781 4219 1451 3797 
Q 1122 3375 1075 2522 
Q 1259 2794 1537 2939 
Q 1816 3084 2150 3084 
Q 2853 3084 3261 2657 
Q 3669 2231 3669 1497 
Q 3669 778 3244 343 
Q 2819 -91 2113 -91 
Q 1303 -91 875 529 
Q 447 1150 447 2328 
Q 447 3434 972 4092 
Q 1497 4750 2381 4750 
Q 2619 4750 2861 4703 
Q 3103 4656 3366 4563 
z
" id="DejaVuSans-36" transform="scale(0.015625)"/>
       </defs>
       <use xlink:href="#DejaVuSans-36"/>
       <use x="63.623047" xlink:href="#DejaVuSans-30"/>
      </g>
     </g>
    </g>
    <g id="ytick_4">
     <g id="line2d_10">
      <g>
       <use style="stroke:#000000;stroke-width:0.8;" x="44.57" xlink:href="#m972c261f72" y="91.684932"/>
      </g>
     </g>
     <g id="text_11">
      <!-- 80 -->
      <g transform="translate(24.845 95.484151)scale(0.1 -0.1)">
       <defs>
        <path d="M 2034 2216 
Q 1584 2216 1326 1975 
Q 1069 1734 1069 1313 
Q 1069 891 1326 650 
Q 1584 409 2034 409 
Q 2484 409 2743 651 
Q 3003 894 3003 1313 
Q 3003 1734 2745 1975 
Q 2488 2216 2034 2216 
z
M 1403 2484 
Q 997 2584 770 2862 
Q 544 3141 544 3541 
Q 544 4100 942 4425 
Q 1341 4750 2034 4750 
Q 2731 4750 3128 4425 
Q 3525 4100 3525 3541 
Q 3525 3141 3298 2862 
Q 3072 2584 2669 2484 
Q 3125 2378 3379 2068 
Q 3634 1759 3634 1313 
Q 3634 634 3220 271 
Q 2806 -91 2034 -91 
Q 1263 -91 848 271 
Q 434 634 434 1313 
Q 434 1759 690 2068 
Q 947 2378 1403 2484 
z
M 1172 3481 
Q 1172 3119 1398 2916 
Q 1625 2713 2034 2713 
Q 2441 2713 2670 2916 
Q 2900 3119 2900 3481 
Q 2900 3844 2670 4047 
Q 2441 4250 2034 4250 
Q 1625 4250 1398 4047 
Q 1172 3844 1172 3481 
z
" id="DejaVuSans-38" transform="scale(0.015625)"/>
       </defs>
       <use xlink:href="#DejaVuSans-38"/>
       <use x="63.623047" xlink:href="#DejaVuSans-30"/>
      </g>
     </g>
    </g>
    <g id="text_12">
     <!-- Test Accuracy -->
     <g transform="translate(18.765313 202.520914)rotate(-90)scale(0.1 -0.1)">
      <defs>
       <path d="M -19 4666 
L 3928 4666 
L 3928 4134 
L 2272 4134 
L 2272 0 
L 1638 0 
L 1638 4134 
L -19 4134 
L -19 4666 
z
" id="DejaVuSans-54" transform="scale(0.015625)"/>
       <path d="M 3597 1894 
L 3597 1613 
L 953 1613 
Q 991 1019 1311 708 
Q 1631 397 2203 397 
Q 2534 397 2845 478 
Q 3156 559 3463 722 
L 3463 178 
Q 3153 47 2828 -22 
Q 2503 -91 2169 -91 
Q 1331 -91 842 396 
Q 353 884 353 1716 
Q 353 2575 817 3079 
Q 1281 3584 2069 3584 
Q 2775 3584 3186 3129 
Q 3597 2675 3597 1894 
z
M 3022 2063 
Q 3016 2534 2758 2815 
Q 2500 3097 2075 3097 
Q 1594 3097 1305 2825 
Q 1016 2553 972 2059 
L 3022 2063 
z
" id="DejaVuSans-65" transform="scale(0.015625)"/>
       <path d="M 2188 4044 
L 1331 1722 
L 3047 1722 
L 2188 4044 
z
M 1831 4666 
L 2547 4666 
L 4325 0 
L 3669 0 
L 3244 1197 
L 1141 1197 
L 716 0 
L 50 0 
L 1831 4666 
z
" id="DejaVuSans-41" transform="scale(0.015625)"/>
       <path d="M 2631 2963 
Q 2534 3019 2420 3045 
Q 2306 3072 2169 3072 
Q 1681 3072 1420 2755 
Q 1159 2438 1159 1844 
L 1159 0 
L 581 0 
L 581 3500 
L 1159 3500 
L 1159 2956 
Q 1341 3275 1631 3429 
Q 1922 3584 2338 3584 
Q 2397 3584 2469 3576 
Q 2541 3569 2628 3553 
L 2631 2963 
z
" id="DejaVuSans-72" transform="scale(0.015625)"/>
       <path d="M 2059 -325 
Q 1816 -950 1584 -1140 
Q 1353 -1331 966 -1331 
L 506 -1331 
L 506 -850 
L 844 -850 
Q 1081 -850 1212 -737 
Q 1344 -625 1503 -206 
L 1606 56 
L 191 3500 
L 800 3500 
L 1894 763 
L 2988 3500 
L 3597 3500 
L 2059 -325 
z
" id="DejaVuSans-79" transform="scale(0.015625)"/>
      </defs>
      <use xlink:href="#DejaVuSans-54"/>
      <use x="44.083984" xlink:href="#DejaVuSans-65"/>
      <use x="105.607422" xlink:href="#DejaVuSans-73"/>
      <use x="157.707031" xlink:href="#DejaVuSans-74"/>
      <use x="196.916016" xlink:href="#DejaVuSans-20"/>
      <use x="228.703125" xlink:href="#DejaVuSans-41"/>
      <use x="295.361328" xlink:href="#DejaVuSans-63"/>
      <use x="350.341797" xlink:href="#DejaVuSans-63"/>
      <use x="405.322266" xlink:href="#DejaVuSans-75"/>
      <use x="468.701172" xlink:href="#DejaVuSans-72"/>
      <use x="509.814453" xlink:href="#DejaVuSans-61"/>
      <use x="571.09375" xlink:href="#DejaVuSans-63"/>
      <use x="626.074219" xlink:href="#DejaVuSans-79"/>
     </g>
    </g>
   </g>
   <g id="line2d_11">
    <path clip-path="url(#peb32043d00)" d="M 62.998636 235.274689 
L 70.520529 213.473103 
L 78.042421 181.59768 
L 85.564314 149.120835 
L 93.086206 125.890869 
L 100.608098 101.232524 
L 108.129991 107.547466 
L 115.651883 97.323274 
L 123.173776 91.083509 
L 130.695668 75.672043 
L 138.21756 85.821058 
L 145.739453 70.785481 
L 153.261345 72.063505 
L 160.783237 68.830856 
L 168.30513 65.673385 
L 175.827022 69.281923 
L 183.348915 62.816625 
L 190.870807 59.959866 
L 198.392699 60.486111 
L 205.914592 65.297495 
L 213.436484 66.801053 
L 220.958377 70.334414 
L 228.480269 60.185399 
L 236.002161 60.110222 
L 243.524054 59.208087 
L 251.045946 63.793938 
L 258.567839 61.388246 
L 266.089731 58.832198 
L 273.611623 56.576861 
L 281.133516 58.080419 
L 288.655408 59.433621 
L 296.177301 52.817967 
L 303.699193 54.321525 
L 311.221085 52.442077 
L 318.742978 50.487453 
L 326.26487 52.893145 
L 333.786763 56.576861 
L 341.308655 51.539943 
L 348.830547 52.817967 
L 356.35244 53.41939 
L 363.874332 50.712986 
L 371.396224 55.298837 
L 378.918117 56.351327 
L 386.440009 48.983895 
L 393.961902 51.690299 
L 401.483794 48.532828 
L 409.005686 51.464765 
L 416.527579 50.261919 
L 424.049471 50.788164 
L 431.571364 54.998126 
" style="fill:none;stroke:#1f77b4;stroke-linecap:square;stroke-width:1.5;"/>
   </g>
   <g id="line2d_12">
    <path clip-path="url(#peb32043d00)" d="M 62.998636 255.422361 
L 70.520529 230.839194 
L 78.042421 277.675015 
L 85.564314 188.36369 
L 93.086206 254.445049 
L 100.608098 202.797843 
L 108.129991 203.173733 
L 115.651883 196.708435 
L 123.173776 206.782271 
L 130.695668 184.153728 
L 138.21756 184.529618 
L 145.739453 157.916647 
L 153.261345 201.970887 
L 160.783237 152.052772 
L 168.30513 164.231589 
L 175.827022 143.407316 
L 183.348915 143.933561 
L 190.870807 145.361941 
L 198.392699 133.107946 
L 205.914592 170.997599 
L 213.436484 173.328113 
L 220.958377 153.706686 
L 228.480269 147.767633 
L 236.002161 124.763201 
L 243.524054 125.590158 
L 251.045946 136.641306 
L 258.567839 138.821465 
L 266.089731 144.610162 
L 273.611623 128.522095 
L 281.133516 136.190239 
L 288.655408 122.733398 
L 296.177301 128.597273 
L 303.699193 127.770316 
L 311.221085 120.478062 
L 318.742978 121.680908 
L 326.26487 130.176008 
L 333.786763 128.597273 
L 341.308655 119.575927 
L 348.830547 140.099489 
L 356.35244 117.922014 
L 363.874332 117.245413 
L 371.396224 135.739172 
L 378.918117 150.248503 
L 386.440009 122.883754 
L 393.961902 120.778773 
L 401.483794 108.299245 
L 409.005686 119.425571 
L 416.527579 138.29522 
L 424.049471 135.43846 
L 431.571364 131.078143 
" style="fill:none;stroke:#ff7f0e;stroke-linecap:square;stroke-width:1.5;"/>
   </g>
   <g id="line2d_13">
    <path clip-path="url(#peb32043d00)" d="M 62.998636 256.700385 
L 70.520529 207.082983 
L 78.042421 180.845902 
L 85.564314 134.38597 
L 93.086206 137.092374 
L 100.608098 117.019879 
L 108.129991 101.608413 
L 115.651883 89.880663 
L 123.173776 89.730307 
L 130.695668 83.490543 
L 138.21756 74.920264 
L 145.739453 87.099082 
L 153.261345 74.544375 
L 160.783237 66.575519 
L 168.30513 63.869116 
L 175.827022 68.981212 
L 183.348915 71.462082 
L 190.870807 65.748563 
L 198.392699 63.793938 
L 205.914592 61.388246 
L 213.436484 64.019471 
L 220.958377 62.140024 
L 228.480269 63.042159 
L 236.002161 66.425164 
L 243.524054 61.087534 
L 251.045946 60.260577 
L 258.567839 59.057731 
L 266.089731 58.080419 
L 273.611623 55.374015 
L 281.133516 58.832198 
L 288.655408 55.524371 
L 296.177301 56.050616 
L 303.699193 55.674726 
L 311.221085 58.907375 
L 318.742978 55.374015 
L 326.26487 54.998126 
L 333.786763 58.456308 
L 341.308655 55.374015 
L 348.830547 55.148481 
L 356.35244 54.396702 
L 363.874332 54.547058 
L 371.396224 56.351327 
L 378.918117 52.893145 
L 386.440009 54.246347 
L 393.961902 52.517255 
L 401.483794 54.095991 
L 409.005686 54.547058 
L 416.527579 52.667611 
L 424.049471 55.374015 
L 431.571364 54.84777 
" style="fill:none;stroke:#2ca02c;stroke-linecap:square;stroke-width:1.5;"/>
   </g>
   <g id="line2d_14">
    <path clip-path="url(#peb32043d00)" d="M 62.998636 270.361334 
L 70.520529 239.074405 
L 78.042421 233.497634 
L 85.564314 229.245272 
L 93.086206 224.93352 
L 100.608098 221.631407 
L 108.129991 216.375345 
L 115.651883 210.911416 
L 123.173776 205.399975 
L 130.695668 200.250817 
L 138.21756 194.798766 
L 145.739453 190.487014 
L 153.261345 186.977034 
L 160.783237 182.98599 
L 168.30513 180.550979 
L 175.827022 178.092211 
L 183.348915 175.971969 
L 190.870807 173.548836 
L 198.392699 171.606765 
L 205.914592 169.688451 
L 213.436484 168.542214 
L 220.958377 167.211866 
L 228.480269 166.30913 
L 236.002161 165.465785 
L 243.524054 164.568988 
L 251.045946 163.119859 
L 258.567839 162.086464 
L 266.089731 160.868958 
L 273.611623 159.461402 
L 281.133516 158.297348 
L 288.655408 157.103598 
L 296.177301 155.915788 
L 303.699193 154.929905 
L 311.221085 153.451081 
L 318.742978 152.310783 
L 326.26487 151.164546 
L 333.786763 149.709478 
L 341.308655 148.290044 
L 348.830547 147.161624 
L 356.35244 146.015387 
L 363.874332 145.035443 
L 371.396224 144.002048 
L 378.918117 143.158703 
L 386.440009 141.98277 
L 393.961902 141.026583 
L 401.483794 140.016944 
L 409.005686 139.114208 
L 416.527579 138.253045 
L 424.049471 137.486907 
L 431.571364 136.732648 
" style="fill:none;stroke:#d62728;stroke-linecap:square;stroke-width:1.5;"/>
   </g>
   <g id="patch_3">
    <path d="M 44.57 303.64 
L 44.57 32.876829 
" style="fill:none;stroke:#000000;stroke-linecap:square;stroke-linejoin:miter;stroke-width:0.8;"/>
   </g>
   <g id="patch_4">
    <path d="M 450 303.64 
L 450 32.876829 
" style="fill:none;stroke:#000000;stroke-linecap:square;stroke-linejoin:miter;stroke-width:0.8;"/>
   </g>
   <g id="patch_5">
    <path d="M 44.57 303.64 
L 450 303.64 
" style="fill:none;stroke:#000000;stroke-linecap:square;stroke-linejoin:miter;stroke-width:0.8;"/>
   </g>
   <g id="patch_6">
    <path d="M 44.57 32.876829 
L 450 32.876829 
" style="fill:none;stroke:#000000;stroke-linecap:square;stroke-linejoin:miter;stroke-width:0.8;"/>
   </g>
   <g id="legend_1">
    <g id="patch_7">
     <path d="M 80.886563 28.478637 
L 413.683438 28.478637 
Q 415.683438 28.478637 415.683438 26.478637 
L 415.683438 12.800512 
Q 415.683438 10.800512 413.683438 10.800512 
L 80.886563 10.800512 
Q 78.886563 10.800512 78.886563 12.800512 
L 78.886563 26.478637 
Q 78.886563 28.478637 80.886563 28.478637 
z
" style="fill:#ffffff;opacity:0.8;stroke:#cccccc;stroke-linejoin:miter;"/>
    </g>
    <g id="line2d_15">
     <path d="M 82.886563 18.898949 
L 102.886563 18.898949 
" style="fill:none;stroke:#1f77b4;stroke-linecap:square;stroke-width:1.5;"/>
    </g>
    <g id="line2d_16"/>
    <g id="text_13">
     <!-- FedAvg -->
     <g transform="translate(110.886563 22.398949)scale(0.1 -0.1)">
      <defs>
       <path d="M 628 4666 
L 3309 4666 
L 3309 4134 
L 1259 4134 
L 1259 2759 
L 3109 2759 
L 3109 2228 
L 1259 2228 
L 1259 0 
L 628 0 
L 628 4666 
z
" id="DejaVuSans-46" transform="scale(0.015625)"/>
       <path d="M 191 3500 
L 800 3500 
L 1894 563 
L 2988 3500 
L 3597 3500 
L 2284 0 
L 1503 0 
L 191 3500 
z
" id="DejaVuSans-76" transform="scale(0.015625)"/>
       <path d="M 2906 1791 
Q 2906 2416 2648 2759 
Q 2391 3103 1925 3103 
Q 1463 3103 1205 2759 
Q 947 2416 947 1791 
Q 947 1169 1205 825 
Q 1463 481 1925 481 
Q 2391 481 2648 825 
Q 2906 1169 2906 1791 
z
M 3481 434 
Q 3481 -459 3084 -895 
Q 2688 -1331 1869 -1331 
Q 1566 -1331 1297 -1286 
Q 1028 -1241 775 -1147 
L 775 -588 
Q 1028 -725 1275 -790 
Q 1522 -856 1778 -856 
Q 2344 -856 2625 -561 
Q 2906 -266 2906 331 
L 2906 616 
Q 2728 306 2450 153 
Q 2172 0 1784 0 
Q 1141 0 747 490 
Q 353 981 353 1791 
Q 353 2603 747 3093 
Q 1141 3584 1784 3584 
Q 2172 3584 2450 3431 
Q 2728 3278 2906 2969 
L 2906 3500 
L 3481 3500 
L 3481 434 
z
" id="DejaVuSans-67" transform="scale(0.015625)"/>
      </defs>
      <use xlink:href="#DejaVuSans-46"/>
      <use x="52.019531" xlink:href="#DejaVuSans-65"/>
      <use x="113.542969" xlink:href="#DejaVuSans-64"/>
      <use x="177.019531" xlink:href="#DejaVuSans-41"/>
      <use x="239.552734" xlink:href="#DejaVuSans-76"/>
      <use x="298.732422" xlink:href="#DejaVuSans-67"/>
     </g>
    </g>
    <g id="line2d_17">
     <path d="M 167.11 18.898949 
L 187.11 18.898949 
" style="fill:none;stroke:#ff7f0e;stroke-linecap:square;stroke-width:1.5;"/>
    </g>
    <g id="line2d_18"/>
    <g id="text_14">
     <!-- FedMed -->
     <g transform="translate(195.11 22.398949)scale(0.1 -0.1)">
      <defs>
       <path d="M 628 4666 
L 1569 4666 
L 2759 1491 
L 3956 4666 
L 4897 4666 
L 4897 0 
L 4281 0 
L 4281 4097 
L 3078 897 
L 2444 897 
L 1241 4097 
L 1241 0 
L 628 0 
L 628 4666 
z
" id="DejaVuSans-4d" transform="scale(0.015625)"/>
      </defs>
      <use xlink:href="#DejaVuSans-46"/>
      <use x="52.019531" xlink:href="#DejaVuSans-65"/>
      <use x="113.542969" xlink:href="#DejaVuSans-64"/>
      <use x="177.019531" xlink:href="#DejaVuSans-4d"/>
      <use x="263.298828" xlink:href="#DejaVuSans-65"/>
      <use x="324.822266" xlink:href="#DejaVuSans-64"/>
     </g>
    </g>
    <g id="line2d_19">
     <path d="M 253.942813 18.898949 
L 273.942813 18.898949 
" style="fill:none;stroke:#2ca02c;stroke-linecap:square;stroke-width:1.5;"/>
    </g>
    <g id="line2d_20"/>
    <g id="text_15">
     <!-- FedProx -->
     <g transform="translate(281.942813 22.398949)scale(0.1 -0.1)">
      <defs>
       <path d="M 1259 4147 
L 1259 2394 
L 2053 2394 
Q 2494 2394 2734 2622 
Q 2975 2850 2975 3272 
Q 2975 3691 2734 3919 
Q 2494 4147 2053 4147 
L 1259 4147 
z
M 628 4666 
L 2053 4666 
Q 2838 4666 3239 4311 
Q 3641 3956 3641 3272 
Q 3641 2581 3239 2228 
Q 2838 1875 2053 1875 
L 1259 1875 
L 1259 0 
L 628 0 
L 628 4666 
z
" id="DejaVuSans-50" transform="scale(0.015625)"/>
       <path d="M 3513 3500 
L 2247 1797 
L 3578 0 
L 2900 0 
L 1881 1375 
L 863 0 
L 184 0 
L 1544 1831 
L 300 3500 
L 978 3500 
L 1906 2253 
L 2834 3500 
L 3513 3500 
z
" id="DejaVuSans-78" transform="scale(0.015625)"/>
      </defs>
      <use xlink:href="#DejaVuSans-46"/>
      <use x="52.019531" xlink:href="#DejaVuSans-65"/>
      <use x="113.542969" xlink:href="#DejaVuSans-64"/>
      <use x="177.019531" xlink:href="#DejaVuSans-50"/>
      <use x="235.572266" xlink:href="#DejaVuSans-72"/>
      <use x="274.435547" xlink:href="#DejaVuSans-6f"/>
      <use x="332.492188" xlink:href="#DejaVuSans-78"/>
     </g>
    </g>
    <g id="line2d_21">
     <path d="M 341.111563 18.898949 
L 361.111563 18.898949 
" style="fill:none;stroke:#d62728;stroke-linecap:square;stroke-width:1.5;"/>
    </g>
    <g id="line2d_22"/>
    <g id="text_16">
     <!-- qFedAvg -->
     <g transform="translate(369.111563 22.398949)scale(0.1 -0.1)">
      <defs>
       <path d="M 947 1747 
Q 947 1113 1208 752 
Q 1469 391 1925 391 
Q 2381 391 2643 752 
Q 2906 1113 2906 1747 
Q 2906 2381 2643 2742 
Q 2381 3103 1925 3103 
Q 1469 3103 1208 2742 
Q 947 2381 947 1747 
z
M 2906 525 
Q 2725 213 2448 61 
Q 2172 -91 1784 -91 
Q 1150 -91 751 415 
Q 353 922 353 1747 
Q 353 2572 751 3078 
Q 1150 3584 1784 3584 
Q 2172 3584 2448 3432 
Q 2725 3281 2906 2969 
L 2906 3500 
L 3481 3500 
L 3481 -1331 
L 2906 -1331 
L 2906 525 
z
" id="DejaVuSans-71" transform="scale(0.015625)"/>
      </defs>
      <use xlink:href="#DejaVuSans-71"/>
      <use x="63.476562" xlink:href="#DejaVuSans-46"/>
      <use x="115.496094" xlink:href="#DejaVuSans-65"/>
      <use x="177.019531" xlink:href="#DejaVuSans-64"/>
      <use x="240.496094" xlink:href="#DejaVuSans-41"/>
      <use x="303.029297" xlink:href="#DejaVuSans-76"/>
      <use x="362.208984" xlink:href="#DejaVuSans-67"/>
     </g>
    </g>
   </g>
  </g>
 </g>
 <defs>
  <clipPath id="peb32043d00">
   <rect height="270.763171" width="405.43" x="44.57" y="32.876829"/>
  </clipPath>
 </defs>
</svg>
