<?xml version="1.0" encoding="utf-8" standalone="no"?>
<!DOCTYPE svg PUBLIC "-//W3C//DTD SVG 1.1//EN"
  "http://www.w3.org/Graphics/SVG/1.1/DTD/svg11.dtd">
<svg height="345.6pt" version="1.1" viewBox="0 0 460.8 345.6" width="460.8pt" xmlns="http://www.w3.org/2000/svg" xmlns:xlink="http://www.w3.org/1999/xlink">
 <metadata>
  <rdf:RDF xmlns:cc="http://creativecommons.org/ns#" xmlns:dc="http://purl.org/dc/elements/1.1/" xmlns:rdf="http://www.w3.org/1999/02/22-rdf-syntax-ns#">
   <cc:Work>
    <dc:type rdf:resource="http://purl.org/dc/dcmitype/StillImage"/>
    <dc:date>2021-05-07T12:06:33.338594</dc:date>
    <dc:format>image/svg+xml</dc:format>
    <dc:creator>
     <cc:Agent>
      <dc:title>Matplotlib v3.4.1, https://matplotlib.org/</dc:title>
     </cc:Agent>
    </dc:creator>
   </cc:Work>
  </rdf:RDF>
 </metadata>
 <defs>
  <style type="text/css">*{stroke-linecap:butt;stroke-linejoin:round;}</style>
 </defs>
 <g id="figure_1">
  <g id="patch_1">
   <path d="M 0 345.6 
L 460.8 345.6 
L 460.8 0 
L 0 0 
z
" style="fill:#ffffff;"/>
  </g>
  <g id="axes_1">
   <g id="patch_2">
    <path d="M 50.87 303.64 
L 450 303.64 
L 450 32.876829 
L 50.87 32.876829 
z
" style="fill:#ffffff;"/>
   </g>
   <g id="PolyCollection_1">
    <path clip-path="url(#p95f146cc83)" d="M 69.012273 187.484967 
L 69.012273 221.010642 
L 76.417282 160.51896 
L 83.822291 151.839532 
L 91.227301 117.877429 
L 98.63231 111.686479 
L 106.037319 102.229711 
L 113.442328 96.828213 
L 120.847338 85.86946 
L 128.252347 82.130918 
L 135.657356 77.122062 
L 143.062365 72.113206 
L 150.467375 70.010469 
L 157.872384 67.167721 
L 165.277393 67.167721 
L 172.682403 66.102579 
L 180.087412 63.741042 
L 187.492421 63.471043 
L 194.89743 63.741042 
L 202.30244 67.104351 
L 209.707449 68.83935 
L 217.112458 68.790642 
L 224.517468 65.001613 
L 231.922477 63.448357 
L 239.327486 66.102579 
L 246.732495 66.102579 
L 254.137505 64.477913 
L 261.542514 63.830495 
L 268.947523 63.741042 
L 276.352532 63.830495 
L 283.757542 63.741042 
L 291.162551 68.006927 
L 298.56756 62.998071 
L 305.97257 59.441272 
L 313.377579 61.093724 
L 320.782588 60.825181 
L 328.187597 58.821639 
L 335.592607 58.772931 
L 342.997616 60.825181 
L 350.402625 58.821639 
L 357.807635 59.469057 
L 365.212644 59.469057 
L 372.617653 57.888016 
L 380.022662 59.891558 
L 387.427672 63.482242 
L 394.832681 63.830495 
L 402.23769 57.150009 
L 409.642699 60.994529 
L 417.047709 55.985673 
L 424.452718 62.780015 
L 431.857727 58.462187 
L 431.857727 49.502074 
L 431.857727 49.502074 
L 424.452718 49.19133 
L 417.047709 47.971504 
L 409.642699 52.980359 
L 402.23769 50.814252 
L 394.832681 52.147936 
L 387.427672 48.489104 
L 380.022662 50.076245 
L 372.617653 48.072703 
L 365.212644 48.495204 
L 357.807635 48.495204 
L 350.402625 47.13908 
L 342.997616 49.142622 
L 335.592607 45.184246 
L 328.187597 47.13908 
L 320.782588 49.142622 
L 313.377579 50.877622 
L 305.97257 54.533616 
L 298.56756 50.976817 
L 291.162551 51.978588 
L 283.757542 56.244473 
L 276.352532 52.147936 
L 268.947523 56.244473 
L 261.542514 52.147936 
L 254.137505 53.50406 
L 246.732495 55.886478 
L 239.327486 55.886478 
L 231.922477 58.540701 
L 224.517468 56.987444 
L 217.112458 55.201957 
L 209.707449 57.156792 
L 202.30244 56.888249 
L 194.89743 56.244473 
L 187.492421 54.51093 
L 180.087412 56.244473 
L 172.682403 55.886478 
L 165.277393 60.831964 
L 157.872384 60.831964 
L 150.467375 66.003385 
L 143.062365 61.897105 
L 135.657356 66.905961 
L 128.252347 71.914817 
L 120.847338 74.186901 
L 113.442328 75.249402 
L 106.037319 95.893954 
L 98.63231 94.451356 
L 91.227301 104.288744 
L 83.822291 120.415199 
L 76.417282 145.795991 
L 69.012273 187.484967 
z
" style="fill:#1f77b4;fill-opacity:0.5;"/>
   </g>
   <g id="PolyCollection_2">
    <path clip-path="url(#p95f146cc83)" d="M 69.012273 219.337106 
L 69.012273 251.268316 
L 76.417282 165.452833 
L 83.822291 151.450087 
L 91.227301 134.123823 
L 98.63231 124.802703 
L 106.037319 114.784992 
L 113.442328 107.372156 
L 120.847338 98.843777 
L 128.252347 93.654598 
L 135.657356 94.687348 
L 143.062365 86.138003 
L 150.467375 83.776465 
L 157.872384 83.636886 
L 165.277393 74.918126 
L 172.682403 80.860604 
L 180.087412 75.344455 
L 187.492421 75.344455 
L 194.89743 80.302284 
L 202.30244 70.010469 
L 209.707449 66.746355 
L 217.112458 70.359556 
L 224.517468 70.134727 
L 231.922477 71.111435 
L 239.327486 73.799498 
L 246.732495 72.113206 
L 254.137505 73.488755 
L 261.542514 68.457213 
L 268.947523 72.959956 
L 276.352532 67.167721 
L 283.757542 73.015783 
L 291.162551 69.90927 
L 298.56756 70.335599 
L 305.97257 71.111435 
L 313.377579 69.486769 
L 320.782588 73.848206 
L 328.187597 66.746355 
L 335.592607 68.83935 
L 342.997616 72.959956 
L 350.402625 67.167721 
L 357.807635 70.010469 
L 365.212644 67.167721 
L 372.617653 61.9963 
L 380.022662 66.003385 
L 387.427672 63.830495 
L 394.832681 64.450128 
L 402.23769 68.749898 
L 409.642699 66.746355 
L 417.047709 67.167721 
L 424.452718 65.001613 
L 431.857727 66.746355 
L 431.857727 59.249787 
L 431.857727 59.249787 
L 424.452718 56.987444 
L 417.047709 60.831964 
L 409.642699 59.249787 
L 402.23769 61.253329 
L 394.832681 59.542472 
L 387.427672 52.147936 
L 380.022662 57.989215 
L 372.617653 57.989215 
L 365.212644 60.831964 
L 357.807635 61.9963 
L 350.402625 60.831964 
L 342.997616 55.039729 
L 335.592607 57.156792 
L 328.187597 59.249787 
L 320.782588 62.165647 
L 313.377579 58.512916 
L 305.97257 60.895334 
L 298.56756 57.664085 
L 291.162551 60.093957 
L 283.757542 56.987444 
L 276.352532 60.831964 
L 268.947523 55.039729 
L 261.542514 63.549556 
L 254.137505 64.528641 
L 246.732495 61.897105 
L 239.327486 60.210813 
L 231.922477 60.895334 
L 224.517468 53.857872 
L 217.112458 55.636586 
L 209.707449 59.249787 
L 202.30244 66.003385 
L 194.89743 61.722197 
L 187.492421 62.672941 
L 180.087412 62.672941 
L 172.682403 69.178045 
L 165.277393 65.102813 
L 157.872384 66.401764 
L 150.467375 76.279896 
L 143.062365 75.921901 
L 135.657356 81.397352 
L 128.252347 76.419475 
L 120.847338 85.255092 
L 113.442328 86.744425 
L 106.037319 95.359928 
L 98.63231 105.37764 
L 91.227301 114.0884 
L 83.822291 130.822356 
L 76.417282 146.872745 
L 69.012273 219.337106 
z
" style="fill:#ff7f0e;fill-opacity:0.5;"/>
   </g>
   <g id="PolyCollection_3">
    <path clip-path="url(#p95f146cc83)" d="M 69.012273 207.487781 
L 69.012273 267.124725 
L 76.417282 169.762671 
L 83.822291 150.951534 
L 91.227301 135.024395 
L 98.63231 114.988972 
L 106.037319 101.065375 
L 113.442328 95.773817 
L 120.847338 90.371023 
L 128.252347 90.764962 
L 135.657356 81.304055 
L 143.062365 73.488755 
L 150.467375 80.302284 
L 157.872384 77.806583 
L 165.277393 78.508809 
L 172.682403 76.768384 
L 180.087412 69.458984 
L 187.492421 68.457213 
L 194.89743 71.01224 
L 202.30244 68.749898 
L 209.707449 68.83935 
L 217.112458 69.90927 
L 224.517468 70.842893 
L 231.922477 59.992758 
L 239.327486 63.471043 
L 246.732495 62.158865 
L 254.137505 65.001613 
L 261.542514 61.7375 
L 268.947523 59.992758 
L 276.352532 59.992758 
L 283.757542 62.158865 
L 291.162551 63.741042 
L 298.56756 59.441272 
L 305.97257 63.830495 
L 313.377579 61.7375 
L 320.782588 62.896872 
L 328.187597 59.992758 
L 335.592607 59.992758 
L 342.997616 61.7375 
L 350.402625 65.001613 
L 357.807635 63.471043 
L 365.212644 59.992758 
L 372.617653 61.7375 
L 380.022662 65.834037 
L 387.427672 63.471043 
L 394.832681 59.992758 
L 402.23769 62.158865 
L 409.642699 62.158865 
L 417.047709 63.741042 
L 424.452718 63.830495 
L 431.857727 59.441272 
L 431.857727 54.533616 
L 431.857727 54.533616 
L 424.452718 52.147936 
L 417.047709 56.244473 
L 409.642699 55.823108 
L 402.23769 55.823108 
L 394.832681 55.985673 
L 387.427672 54.51093 
L 380.022662 54.151478 
L 372.617653 54.240931 
L 365.212644 51.978588 
L 357.807635 54.51093 
L 350.402625 56.987444 
L 342.997616 54.240931 
L 335.592607 55.985673 
L 328.187597 55.985673 
L 320.782588 53.081559 
L 313.377579 54.240931 
L 305.97257 52.147936 
L 298.56756 54.533616 
L 291.162551 56.244473 
L 283.757542 55.823108 
L 276.352532 55.985673 
L 268.947523 55.985673 
L 261.542514 54.240931 
L 254.137505 56.987444 
L 246.732495 55.823108 
L 239.327486 54.51093 
L 231.922477 55.985673 
L 224.517468 59.160334 
L 217.112458 60.093957 
L 209.707449 57.156792 
L 202.30244 61.253329 
L 194.89743 62.998071 
L 187.492421 63.549556 
L 180.087412 64.551327 
L 172.682403 61.249012 
L 165.277393 63.515671 
L 157.872384 64.217898 
L 150.467375 61.722197 
L 143.062365 64.528641 
L 135.657356 62.723968 
L 128.252347 73.298485 
L 120.847338 77.699508 
L 113.442328 78.30734 
L 106.037319 85.037037 
L 98.63231 105.173659 
L 91.227301 125.209082 
L 83.822291 131.320909 
L 76.417282 146.569992 
L 69.012273 207.487781 
z
" style="fill:#2ca02c;fill-opacity:0.5;"/>
   </g>
   <g id="PolyCollection_4">
    <path clip-path="url(#p95f146cc83)" d="M 69.012273 248.551325 
L 69.012273 291.332583 
L 76.417282 197.632308 
L 83.822291 174.642253 
L 91.227301 158.669598 
L 98.63231 148.565918 
L 106.037319 140.527669 
L 113.442328 133.061584 
L 120.847338 128.689288 
L 128.252347 124.480251 
L 135.657356 122.133422 
L 143.062365 119.737625 
L 150.467375 117.525786 
L 157.872384 113.96615 
L 165.277393 112.404453 
L 172.682403 110.165639 
L 180.087412 109.080506 
L 187.492421 107.377746 
L 194.89743 106.911516 
L 202.30244 104.42059 
L 209.707449 103.079003 
L 217.112458 103.187538 
L 224.517468 101.213842 
L 231.922477 100.230986 
L 239.327486 100.585874 
L 246.732495 99.997654 
L 254.137505 99.033511 
L 261.542514 99.270219 
L 268.947523 98.428197 
L 276.352532 98.393336 
L 283.757542 98.42592 
L 291.162551 97.656064 
L 298.56756 98.033062 
L 305.97257 97.781414 
L 313.377579 96.435976 
L 320.782588 96.480032 
L 328.187597 95.689867 
L 335.592607 94.470724 
L 342.997616 95.040465 
L 350.402625 96.341846 
L 357.807635 95.593497 
L 365.212644 95.528548 
L 372.617653 93.627929 
L 380.022662 94.437792 
L 387.427672 94.74985 
L 394.832681 94.604849 
L 402.23769 93.425783 
L 409.642699 93.690749 
L 417.047709 94.574066 
L 424.452718 92.612155 
L 431.857727 93.064229 
L 431.857727 82.934319 
L 431.857727 82.934319 
L 424.452718 84.336072 
L 417.047709 84.431798 
L 409.642699 84.207157 
L 402.23769 84.472123 
L 394.832681 84.401015 
L 387.427672 85.205694 
L 380.022662 84.409793 
L 372.617653 83.953417 
L 365.212644 84.110437 
L 357.807635 83.887207 
L 350.402625 84.879937 
L 342.997616 83.965399 
L 335.592607 85.80138 
L 328.187597 85.848475 
L 320.782588 85.691429 
L 313.377579 86.052046 
L 305.97257 85.972846 
L 298.56756 85.879478 
L 291.162551 86.731315 
L 283.757542 88.335657 
L 276.352532 88.526521 
L 268.947523 88.80822 
L 261.542514 89.390716 
L 254.137505 90.102263 
L 246.732495 91.512319 
L 239.327486 91.240658 
L 231.922477 92.386946 
L 224.517468 94.253127 
L 217.112458 95.603307 
L 209.707449 96.503242 
L 202.30244 97.219292 
L 194.89743 101.21784 
L 187.492421 100.43505 
L 180.087412 102.372727 
L 172.682403 103.186952 
L 165.277393 103.005775 
L 157.872384 106.983873 
L 150.467375 108.964032 
L 143.062365 110.07607 
L 135.657356 113.536626 
L 128.252347 117.046152 
L 120.847338 120.909387 
L 113.442328 126.508722 
L 106.037319 131.388464 
L 98.63231 137.595401 
L 91.227301 147.118422 
L 83.822291 160.269258 
L 76.417282 178.748521 
L 69.012273 248.551325 
z
" style="fill:#d62728;fill-opacity:0.5;"/>
   </g>
   <g id="matplotlib.axis_1">
    <g id="xtick_1">
     <g id="line2d_1">
      <defs>
       <path d="M 0 0 
L 0 3.5 
" id="mc725930934" style="stroke:#000000;stroke-width:0.8;"/>
      </defs>
      <g>
       <use style="stroke:#000000;stroke-width:0.8;" x="69.012273" xlink:href="#mc725930934" y="303.64"/>
      </g>
     </g>
     <g id="text_1">
      <!-- 0 -->
      <g transform="translate(65.831023 318.238437)scale(0.1 -0.1)">
       <defs>
        <path d="M 2034 4250 
Q 1547 4250 1301 3770 
Q 1056 3291 1056 2328 
Q 1056 1369 1301 889 
Q 1547 409 2034 409 
Q 2525 409 2770 889 
Q 3016 1369 3016 2328 
Q 3016 3291 2770 3770 
Q 2525 4250 2034 4250 
z
M 2034 4750 
Q 2819 4750 3233 4129 
Q 3647 3509 3647 2328 
Q 3647 1150 3233 529 
Q 2819 -91 2034 -91 
Q 1250 -91 836 529 
Q 422 1150 422 2328 
Q 422 3509 836 4129 
Q 1250 4750 2034 4750 
z
" id="DejaVuSans-30" transform="scale(0.015625)"/>
       </defs>
       <use xlink:href="#DejaVuSans-30"/>
      </g>
     </g>
    </g>
    <g id="xtick_2">
     <g id="line2d_2">
      <g>
       <use style="stroke:#000000;stroke-width:0.8;" x="143.062365" xlink:href="#mc725930934" y="303.64"/>
      </g>
     </g>
     <g id="text_2">
      <!-- 10 -->
      <g transform="translate(136.699865 318.238437)scale(0.1 -0.1)">
       <defs>
        <path d="M 794 531 
L 1825 531 
L 1825 4091 
L 703 3866 
L 703 4441 
L 1819 4666 
L 2450 4666 
L 2450 531 
L 3481 531 
L 3481 0 
L 794 0 
L 794 531 
z
" id="DejaVuSans-31" transform="scale(0.015625)"/>
       </defs>
       <use xlink:href="#DejaVuSans-31"/>
       <use x="63.623047" xlink:href="#DejaVuSans-30"/>
      </g>
     </g>
    </g>
    <g id="xtick_3">
     <g id="line2d_3">
      <g>
       <use style="stroke:#000000;stroke-width:0.8;" x="217.112458" xlink:href="#mc725930934" y="303.64"/>
      </g>
     </g>
     <g id="text_3">
      <!-- 20 -->
      <g transform="translate(210.749958 318.238437)scale(0.1 -0.1)">
       <defs>
        <path d="M 1228 531 
L 3431 531 
L 3431 0 
L 469 0 
L 469 531 
Q 828 903 1448 1529 
Q 2069 2156 2228 2338 
Q 2531 2678 2651 2914 
Q 2772 3150 2772 3378 
Q 2772 3750 2511 3984 
Q 2250 4219 1831 4219 
Q 1534 4219 1204 4116 
Q 875 4013 500 3803 
L 500 4441 
Q 881 4594 1212 4672 
Q 1544 4750 1819 4750 
Q 2544 4750 2975 4387 
Q 3406 4025 3406 3419 
Q 3406 3131 3298 2873 
Q 3191 2616 2906 2266 
Q 2828 2175 2409 1742 
Q 1991 1309 1228 531 
z
" id="DejaVuSans-32" transform="scale(0.015625)"/>
       </defs>
       <use xlink:href="#DejaVuSans-32"/>
       <use x="63.623047" xlink:href="#DejaVuSans-30"/>
      </g>
     </g>
    </g>
    <g id="xtick_4">
     <g id="line2d_4">
      <g>
       <use style="stroke:#000000;stroke-width:0.8;" x="291.162551" xlink:href="#mc725930934" y="303.64"/>
      </g>
     </g>
     <g id="text_4">
      <!-- 30 -->
      <g transform="translate(284.800051 318.238437)scale(0.1 -0.1)">
       <defs>
        <path d="M 2597 2516 
Q 3050 2419 3304 2112 
Q 3559 1806 3559 1356 
Q 3559 666 3084 287 
Q 2609 -91 1734 -91 
Q 1441 -91 1130 -33 
Q 819 25 488 141 
L 488 750 
Q 750 597 1062 519 
Q 1375 441 1716 441 
Q 2309 441 2620 675 
Q 2931 909 2931 1356 
Q 2931 1769 2642 2001 
Q 2353 2234 1838 2234 
L 1294 2234 
L 1294 2753 
L 1863 2753 
Q 2328 2753 2575 2939 
Q 2822 3125 2822 3475 
Q 2822 3834 2567 4026 
Q 2313 4219 1838 4219 
Q 1578 4219 1281 4162 
Q 984 4106 628 3988 
L 628 4550 
Q 988 4650 1302 4700 
Q 1616 4750 1894 4750 
Q 2613 4750 3031 4423 
Q 3450 4097 3450 3541 
Q 3450 3153 3228 2886 
Q 3006 2619 2597 2516 
z
" id="DejaVuSans-33" transform="scale(0.015625)"/>
       </defs>
       <use xlink:href="#DejaVuSans-33"/>
       <use x="63.623047" xlink:href="#DejaVuSans-30"/>
      </g>
     </g>
    </g>
    <g id="xtick_5">
     <g id="line2d_5">
      <g>
       <use style="stroke:#000000;stroke-width:0.8;" x="365.212644" xlink:href="#mc725930934" y="303.64"/>
      </g>
     </g>
     <g id="text_5">
      <!-- 40 -->
      <g transform="translate(358.850144 318.238437)scale(0.1 -0.1)">
       <defs>
        <path d="M 2419 4116 
L 825 1625 
L 2419 1625 
L 2419 4116 
z
M 2253 4666 
L 3047 4666 
L 3047 1625 
L 3713 1625 
L 3713 1100 
L 3047 1100 
L 3047 0 
L 2419 0 
L 2419 1100 
L 313 1100 
L 313 1709 
L 2253 4666 
z
" id="DejaVuSans-34" transform="scale(0.015625)"/>
       </defs>
       <use xlink:href="#DejaVuSans-34"/>
       <use x="63.623047" xlink:href="#DejaVuSans-30"/>
      </g>
     </g>
    </g>
    <g id="xtick_6">
     <g id="line2d_6">
      <g>
       <use style="stroke:#000000;stroke-width:0.8;" x="439.262737" xlink:href="#mc725930934" y="303.64"/>
      </g>
     </g>
     <g id="text_6">
      <!-- 50 -->
      <g transform="translate(432.900237 318.238437)scale(0.1 -0.1)">
       <defs>
        <path d="M 691 4666 
L 3169 4666 
L 3169 4134 
L 1269 4134 
L 1269 2991 
Q 1406 3038 1543 3061 
Q 1681 3084 1819 3084 
Q 2600 3084 3056 2656 
Q 3513 2228 3513 1497 
Q 3513 744 3044 326 
Q 2575 -91 1722 -91 
Q 1428 -91 1123 -41 
Q 819 9 494 109 
L 494 744 
Q 775 591 1075 516 
Q 1375 441 1709 441 
Q 2250 441 2565 725 
Q 2881 1009 2881 1497 
Q 2881 1984 2565 2268 
Q 2250 2553 1709 2553 
Q 1456 2553 1204 2497 
Q 953 2441 691 2322 
L 691 4666 
z
" id="DejaVuSans-35" transform="scale(0.015625)"/>
       </defs>
       <use xlink:href="#DejaVuSans-35"/>
       <use x="63.623047" xlink:href="#DejaVuSans-30"/>
      </g>
     </g>
    </g>
    <g id="text_7">
     <!-- Global Communication Rounds -->
     <g transform="translate(173.473281 331.916562)scale(0.1 -0.1)">
      <defs>
       <path d="M 3809 666 
L 3809 1919 
L 2778 1919 
L 2778 2438 
L 4434 2438 
L 4434 434 
Q 4069 175 3628 42 
Q 3188 -91 2688 -91 
Q 1594 -91 976 548 
Q 359 1188 359 2328 
Q 359 3472 976 4111 
Q 1594 4750 2688 4750 
Q 3144 4750 3555 4637 
Q 3966 4525 4313 4306 
L 4313 3634 
Q 3963 3931 3569 4081 
Q 3175 4231 2741 4231 
Q 1884 4231 1454 3753 
Q 1025 3275 1025 2328 
Q 1025 1384 1454 906 
Q 1884 428 2741 428 
Q 3075 428 3337 486 
Q 3600 544 3809 666 
z
" id="DejaVuSans-47" transform="scale(0.015625)"/>
       <path d="M 603 4863 
L 1178 4863 
L 1178 0 
L 603 0 
L 603 4863 
z
" id="DejaVuSans-6c" transform="scale(0.015625)"/>
       <path d="M 1959 3097 
Q 1497 3097 1228 2736 
Q 959 2375 959 1747 
Q 959 1119 1226 758 
Q 1494 397 1959 397 
Q 2419 397 2687 759 
Q 2956 1122 2956 1747 
Q 2956 2369 2687 2733 
Q 2419 3097 1959 3097 
z
M 1959 3584 
Q 2709 3584 3137 3096 
Q 3566 2609 3566 1747 
Q 3566 888 3137 398 
Q 2709 -91 1959 -91 
Q 1206 -91 779 398 
Q 353 888 353 1747 
Q 353 2609 779 3096 
Q 1206 3584 1959 3584 
z
" id="DejaVuSans-6f" transform="scale(0.015625)"/>
       <path d="M 3116 1747 
Q 3116 2381 2855 2742 
Q 2594 3103 2138 3103 
Q 1681 3103 1420 2742 
Q 1159 2381 1159 1747 
Q 1159 1113 1420 752 
Q 1681 391 2138 391 
Q 2594 391 2855 752 
Q 3116 1113 3116 1747 
z
M 1159 2969 
Q 1341 3281 1617 3432 
Q 1894 3584 2278 3584 
Q 2916 3584 3314 3078 
Q 3713 2572 3713 1747 
Q 3713 922 3314 415 
Q 2916 -91 2278 -91 
Q 1894 -91 1617 61 
Q 1341 213 1159 525 
L 1159 0 
L 581 0 
L 581 4863 
L 1159 4863 
L 1159 2969 
z
" id="DejaVuSans-62" transform="scale(0.015625)"/>
       <path d="M 2194 1759 
Q 1497 1759 1228 1600 
Q 959 1441 959 1056 
Q 959 750 1161 570 
Q 1363 391 1709 391 
Q 2188 391 2477 730 
Q 2766 1069 2766 1631 
L 2766 1759 
L 2194 1759 
z
M 3341 1997 
L 3341 0 
L 2766 0 
L 2766 531 
Q 2569 213 2275 61 
Q 1981 -91 1556 -91 
Q 1019 -91 701 211 
Q 384 513 384 1019 
Q 384 1609 779 1909 
Q 1175 2209 1959 2209 
L 2766 2209 
L 2766 2266 
Q 2766 2663 2505 2880 
Q 2244 3097 1772 3097 
Q 1472 3097 1187 3025 
Q 903 2953 641 2809 
L 641 3341 
Q 956 3463 1253 3523 
Q 1550 3584 1831 3584 
Q 2591 3584 2966 3190 
Q 3341 2797 3341 1997 
z
" id="DejaVuSans-61" transform="scale(0.015625)"/>
       <path id="DejaVuSans-20" transform="scale(0.015625)"/>
       <path d="M 4122 4306 
L 4122 3641 
Q 3803 3938 3442 4084 
Q 3081 4231 2675 4231 
Q 1875 4231 1450 3742 
Q 1025 3253 1025 2328 
Q 1025 1406 1450 917 
Q 1875 428 2675 428 
Q 3081 428 3442 575 
Q 3803 722 4122 1019 
L 4122 359 
Q 3791 134 3420 21 
Q 3050 -91 2638 -91 
Q 1578 -91 968 557 
Q 359 1206 359 2328 
Q 359 3453 968 4101 
Q 1578 4750 2638 4750 
Q 3056 4750 3426 4639 
Q 3797 4528 4122 4306 
z
" id="DejaVuSans-43" transform="scale(0.015625)"/>
       <path d="M 3328 2828 
Q 3544 3216 3844 3400 
Q 4144 3584 4550 3584 
Q 5097 3584 5394 3201 
Q 5691 2819 5691 2113 
L 5691 0 
L 5113 0 
L 5113 2094 
Q 5113 2597 4934 2840 
Q 4756 3084 4391 3084 
Q 3944 3084 3684 2787 
Q 3425 2491 3425 1978 
L 3425 0 
L 2847 0 
L 2847 2094 
Q 2847 2600 2669 2842 
Q 2491 3084 2119 3084 
Q 1678 3084 1418 2786 
Q 1159 2488 1159 1978 
L 1159 0 
L 581 0 
L 581 3500 
L 1159 3500 
L 1159 2956 
Q 1356 3278 1631 3431 
Q 1906 3584 2284 3584 
Q 2666 3584 2933 3390 
Q 3200 3197 3328 2828 
z
" id="DejaVuSans-6d" transform="scale(0.015625)"/>
       <path d="M 544 1381 
L 544 3500 
L 1119 3500 
L 1119 1403 
Q 1119 906 1312 657 
Q 1506 409 1894 409 
Q 2359 409 2629 706 
Q 2900 1003 2900 1516 
L 2900 3500 
L 3475 3500 
L 3475 0 
L 2900 0 
L 2900 538 
Q 2691 219 2414 64 
Q 2138 -91 1772 -91 
Q 1169 -91 856 284 
Q 544 659 544 1381 
z
M 1991 3584 
L 1991 3584 
z
" id="DejaVuSans-75" transform="scale(0.015625)"/>
       <path d="M 3513 2113 
L 3513 0 
L 2938 0 
L 2938 2094 
Q 2938 2591 2744 2837 
Q 2550 3084 2163 3084 
Q 1697 3084 1428 2787 
Q 1159 2491 1159 1978 
L 1159 0 
L 581 0 
L 581 3500 
L 1159 3500 
L 1159 2956 
Q 1366 3272 1645 3428 
Q 1925 3584 2291 3584 
Q 2894 3584 3203 3211 
Q 3513 2838 3513 2113 
z
" id="DejaVuSans-6e" transform="scale(0.015625)"/>
       <path d="M 603 3500 
L 1178 3500 
L 1178 0 
L 603 0 
L 603 3500 
z
M 603 4863 
L 1178 4863 
L 1178 4134 
L 603 4134 
L 603 4863 
z
" id="DejaVuSans-69" transform="scale(0.015625)"/>
       <path d="M 3122 3366 
L 3122 2828 
Q 2878 2963 2633 3030 
Q 2388 3097 2138 3097 
Q 1578 3097 1268 2742 
Q 959 2388 959 1747 
Q 959 1106 1268 751 
Q 1578 397 2138 397 
Q 2388 397 2633 464 
Q 2878 531 3122 666 
L 3122 134 
Q 2881 22 2623 -34 
Q 2366 -91 2075 -91 
Q 1284 -91 818 406 
Q 353 903 353 1747 
Q 353 2603 823 3093 
Q 1294 3584 2113 3584 
Q 2378 3584 2631 3529 
Q 2884 3475 3122 3366 
z
" id="DejaVuSans-63" transform="scale(0.015625)"/>
       <path d="M 1172 4494 
L 1172 3500 
L 2356 3500 
L 2356 3053 
L 1172 3053 
L 1172 1153 
Q 1172 725 1289 603 
Q 1406 481 1766 481 
L 2356 481 
L 2356 0 
L 1766 0 
Q 1100 0 847 248 
Q 594 497 594 1153 
L 594 3053 
L 172 3053 
L 172 3500 
L 594 3500 
L 594 4494 
L 1172 4494 
z
" id="DejaVuSans-74" transform="scale(0.015625)"/>
       <path d="M 2841 2188 
Q 3044 2119 3236 1894 
Q 3428 1669 3622 1275 
L 4263 0 
L 3584 0 
L 2988 1197 
Q 2756 1666 2539 1819 
Q 2322 1972 1947 1972 
L 1259 1972 
L 1259 0 
L 628 0 
L 628 4666 
L 2053 4666 
Q 2853 4666 3247 4331 
Q 3641 3997 3641 3322 
Q 3641 2881 3436 2590 
Q 3231 2300 2841 2188 
z
M 1259 4147 
L 1259 2491 
L 2053 2491 
Q 2509 2491 2742 2702 
Q 2975 2913 2975 3322 
Q 2975 3731 2742 3939 
Q 2509 4147 2053 4147 
L 1259 4147 
z
" id="DejaVuSans-52" transform="scale(0.015625)"/>
       <path d="M 2906 2969 
L 2906 4863 
L 3481 4863 
L 3481 0 
L 2906 0 
L 2906 525 
Q 2725 213 2448 61 
Q 2172 -91 1784 -91 
Q 1150 -91 751 415 
Q 353 922 353 1747 
Q 353 2572 751 3078 
Q 1150 3584 1784 3584 
Q 2172 3584 2448 3432 
Q 2725 3281 2906 2969 
z
M 947 1747 
Q 947 1113 1208 752 
Q 1469 391 1925 391 
Q 2381 391 2643 752 
Q 2906 1113 2906 1747 
Q 2906 2381 2643 2742 
Q 2381 3103 1925 3103 
Q 1469 3103 1208 2742 
Q 947 2381 947 1747 
z
" id="DejaVuSans-64" transform="scale(0.015625)"/>
       <path d="M 2834 3397 
L 2834 2853 
Q 2591 2978 2328 3040 
Q 2066 3103 1784 3103 
Q 1356 3103 1142 2972 
Q 928 2841 928 2578 
Q 928 2378 1081 2264 
Q 1234 2150 1697 2047 
L 1894 2003 
Q 2506 1872 2764 1633 
Q 3022 1394 3022 966 
Q 3022 478 2636 193 
Q 2250 -91 1575 -91 
Q 1294 -91 989 -36 
Q 684 19 347 128 
L 347 722 
Q 666 556 975 473 
Q 1284 391 1588 391 
Q 1994 391 2212 530 
Q 2431 669 2431 922 
Q 2431 1156 2273 1281 
Q 2116 1406 1581 1522 
L 1381 1569 
Q 847 1681 609 1914 
Q 372 2147 372 2553 
Q 372 3047 722 3315 
Q 1072 3584 1716 3584 
Q 2034 3584 2315 3537 
Q 2597 3491 2834 3397 
z
" id="DejaVuSans-73" transform="scale(0.015625)"/>
      </defs>
      <use xlink:href="#DejaVuSans-47"/>
      <use x="77.490234" xlink:href="#DejaVuSans-6c"/>
      <use x="105.273438" xlink:href="#DejaVuSans-6f"/>
      <use x="166.455078" xlink:href="#DejaVuSans-62"/>
      <use x="229.931641" xlink:href="#DejaVuSans-61"/>
      <use x="291.210938" xlink:href="#DejaVuSans-6c"/>
      <use x="318.994141" xlink:href="#DejaVuSans-20"/>
      <use x="350.78125" xlink:href="#DejaVuSans-43"/>
      <use x="420.605469" xlink:href="#DejaVuSans-6f"/>
      <use x="481.787109" xlink:href="#DejaVuSans-6d"/>
      <use x="579.199219" xlink:href="#DejaVuSans-6d"/>
      <use x="676.611328" xlink:href="#DejaVuSans-75"/>
      <use x="739.990234" xlink:href="#DejaVuSans-6e"/>
      <use x="803.369141" xlink:href="#DejaVuSans-69"/>
      <use x="831.152344" xlink:href="#DejaVuSans-63"/>
      <use x="886.132812" xlink:href="#DejaVuSans-61"/>
      <use x="947.412109" xlink:href="#DejaVuSans-74"/>
      <use x="986.621094" xlink:href="#DejaVuSans-69"/>
      <use x="1014.404297" xlink:href="#DejaVuSans-6f"/>
      <use x="1075.585938" xlink:href="#DejaVuSans-6e"/>
      <use x="1138.964844" xlink:href="#DejaVuSans-20"/>
      <use x="1170.751953" xlink:href="#DejaVuSans-52"/>
      <use x="1235.734375" xlink:href="#DejaVuSans-6f"/>
      <use x="1296.916016" xlink:href="#DejaVuSans-75"/>
      <use x="1360.294922" xlink:href="#DejaVuSans-6e"/>
      <use x="1423.673828" xlink:href="#DejaVuSans-64"/>
      <use x="1487.150391" xlink:href="#DejaVuSans-73"/>
     </g>
    </g>
   </g>
   <g id="matplotlib.axis_2">
    <g id="ytick_1">
     <g id="line2d_7">
      <defs>
       <path d="M 0 0 
L -3.5 0 
" id="m04f9a2f168" style="stroke:#000000;stroke-width:0.8;"/>
      </defs>
      <g>
       <use style="stroke:#000000;stroke-width:0.8;" x="50.87" xlink:href="#m04f9a2f168" y="271.366472"/>
      </g>
     </g>
     <g id="text_8">
      <!-- 94 -->
      <g transform="translate(31.145 275.165691)scale(0.1 -0.1)">
       <defs>
        <path d="M 703 97 
L 703 672 
Q 941 559 1184 500 
Q 1428 441 1663 441 
Q 2288 441 2617 861 
Q 2947 1281 2994 2138 
Q 2813 1869 2534 1725 
Q 2256 1581 1919 1581 
Q 1219 1581 811 2004 
Q 403 2428 403 3163 
Q 403 3881 828 4315 
Q 1253 4750 1959 4750 
Q 2769 4750 3195 4129 
Q 3622 3509 3622 2328 
Q 3622 1225 3098 567 
Q 2575 -91 1691 -91 
Q 1453 -91 1209 -44 
Q 966 3 703 97 
z
M 1959 2075 
Q 2384 2075 2632 2365 
Q 2881 2656 2881 3163 
Q 2881 3666 2632 3958 
Q 2384 4250 1959 4250 
Q 1534 4250 1286 3958 
Q 1038 3666 1038 3163 
Q 1038 2656 1286 2365 
Q 1534 2075 1959 2075 
z
" id="DejaVuSans-39" transform="scale(0.015625)"/>
       </defs>
       <use xlink:href="#DejaVuSans-39"/>
       <use x="63.623047" xlink:href="#DejaVuSans-34"/>
      </g>
     </g>
    </g>
    <g id="ytick_2">
     <g id="line2d_8">
      <g>
       <use style="stroke:#000000;stroke-width:0.8;" x="50.87" xlink:href="#m04f9a2f168" y="231.796512"/>
      </g>
     </g>
     <g id="text_9">
      <!-- 95 -->
      <g transform="translate(31.145 235.59573)scale(0.1 -0.1)">
       <use xlink:href="#DejaVuSans-39"/>
       <use x="63.623047" xlink:href="#DejaVuSans-35"/>
      </g>
     </g>
    </g>
    <g id="ytick_3">
     <g id="line2d_9">
      <g>
       <use style="stroke:#000000;stroke-width:0.8;" x="50.87" xlink:href="#m04f9a2f168" y="192.226551"/>
      </g>
     </g>
     <g id="text_10">
      <!-- 96 -->
      <g transform="translate(31.145 196.025769)scale(0.1 -0.1)">
       <defs>
        <path d="M 2113 2584 
Q 1688 2584 1439 2293 
Q 1191 2003 1191 1497 
Q 1191 994 1439 701 
Q 1688 409 2113 409 
Q 2538 409 2786 701 
Q 3034 994 3034 1497 
Q 3034 2003 2786 2293 
Q 2538 2584 2113 2584 
z
M 3366 4563 
L 3366 3988 
Q 3128 4100 2886 4159 
Q 2644 4219 2406 4219 
Q 1781 4219 1451 3797 
Q 1122 3375 1075 2522 
Q 1259 2794 1537 2939 
Q 1816 3084 2150 3084 
Q 2853 3084 3261 2657 
Q 3669 2231 3669 1497 
Q 3669 778 3244 343 
Q 2819 -91 2113 -91 
Q 1303 -91 875 529 
Q 447 1150 447 2328 
Q 447 3434 972 4092 
Q 1497 4750 2381 4750 
Q 2619 4750 2861 4703 
Q 3103 4656 3366 4563 
z
" id="DejaVuSans-36" transform="scale(0.015625)"/>
       </defs>
       <use xlink:href="#DejaVuSans-39"/>
       <use x="63.623047" xlink:href="#DejaVuSans-36"/>
      </g>
     </g>
    </g>
    <g id="ytick_4">
     <g id="line2d_10">
      <g>
       <use style="stroke:#000000;stroke-width:0.8;" x="50.87" xlink:href="#m04f9a2f168" y="152.65659"/>
      </g>
     </g>
     <g id="text_11">
      <!-- 97 -->
      <g transform="translate(31.145 156.455809)scale(0.1 -0.1)">
       <defs>
        <path d="M 525 4666 
L 3525 4666 
L 3525 4397 
L 1831 0 
L 1172 0 
L 2766 4134 
L 525 4134 
L 525 4666 
z
" id="DejaVuSans-37" transform="scale(0.015625)"/>
       </defs>
       <use xlink:href="#DejaVuSans-39"/>
       <use x="63.623047" xlink:href="#DejaVuSans-37"/>
      </g>
     </g>
    </g>
    <g id="ytick_5">
     <g id="line2d_11">
      <g>
       <use style="stroke:#000000;stroke-width:0.8;" x="50.87" xlink:href="#m04f9a2f168" y="113.086629"/>
      </g>
     </g>
     <g id="text_12">
      <!-- 98 -->
      <g transform="translate(31.145 116.885848)scale(0.1 -0.1)">
       <defs>
        <path d="M 2034 2216 
Q 1584 2216 1326 1975 
Q 1069 1734 1069 1313 
Q 1069 891 1326 650 
Q 1584 409 2034 409 
Q 2484 409 2743 651 
Q 3003 894 3003 1313 
Q 3003 1734 2745 1975 
Q 2488 2216 2034 2216 
z
M 1403 2484 
Q 997 2584 770 2862 
Q 544 3141 544 3541 
Q 544 4100 942 4425 
Q 1341 4750 2034 4750 
Q 2731 4750 3128 4425 
Q 3525 4100 3525 3541 
Q 3525 3141 3298 2862 
Q 3072 2584 2669 2484 
Q 3125 2378 3379 2068 
Q 3634 1759 3634 1313 
Q 3634 634 3220 271 
Q 2806 -91 2034 -91 
Q 1263 -91 848 271 
Q 434 634 434 1313 
Q 434 1759 690 2068 
Q 947 2378 1403 2484 
z
M 1172 3481 
Q 1172 3119 1398 2916 
Q 1625 2713 2034 2713 
Q 2441 2713 2670 2916 
Q 2900 3119 2900 3481 
Q 2900 3844 2670 4047 
Q 2441 4250 2034 4250 
Q 1625 4250 1398 4047 
Q 1172 3844 1172 3481 
z
" id="DejaVuSans-38" transform="scale(0.015625)"/>
       </defs>
       <use xlink:href="#DejaVuSans-39"/>
       <use x="63.623047" xlink:href="#DejaVuSans-38"/>
      </g>
     </g>
    </g>
    <g id="ytick_6">
     <g id="line2d_12">
      <g>
       <use style="stroke:#000000;stroke-width:0.8;" x="50.87" xlink:href="#m04f9a2f168" y="73.516668"/>
      </g>
     </g>
     <g id="text_13">
      <!-- 99 -->
      <g transform="translate(31.145 77.315887)scale(0.1 -0.1)">
       <use xlink:href="#DejaVuSans-39"/>
       <use x="63.623047" xlink:href="#DejaVuSans-39"/>
      </g>
     </g>
    </g>
    <g id="ytick_7">
     <g id="line2d_13">
      <g>
       <use style="stroke:#000000;stroke-width:0.8;" x="50.87" xlink:href="#m04f9a2f168" y="33.946707"/>
      </g>
     </g>
     <g id="text_14">
      <!-- 100 -->
      <g transform="translate(24.7825 37.745926)scale(0.1 -0.1)">
       <use xlink:href="#DejaVuSans-31"/>
       <use x="63.623047" xlink:href="#DejaVuSans-30"/>
       <use x="127.246094" xlink:href="#DejaVuSans-30"/>
      </g>
     </g>
    </g>
    <g id="text_15">
     <!-- Test Accuracy -->
     <g transform="translate(18.702813 202.520914)rotate(-90)scale(0.1 -0.1)">
      <defs>
       <path d="M -19 4666 
L 3928 4666 
L 3928 4134 
L 2272 4134 
L 2272 0 
L 1638 0 
L 1638 4134 
L -19 4134 
L -19 4666 
z
" id="DejaVuSans-54" transform="scale(0.015625)"/>
       <path d="M 3597 1894 
L 3597 1613 
L 953 1613 
Q 991 1019 1311 708 
Q 1631 397 2203 397 
Q 2534 397 2845 478 
Q 3156 559 3463 722 
L 3463 178 
Q 3153 47 2828 -22 
Q 2503 -91 2169 -91 
Q 1331 -91 842 396 
Q 353 884 353 1716 
Q 353 2575 817 3079 
Q 1281 3584 2069 3584 
Q 2775 3584 3186 3129 
Q 3597 2675 3597 1894 
z
M 3022 2063 
Q 3016 2534 2758 2815 
Q 2500 3097 2075 3097 
Q 1594 3097 1305 2825 
Q 1016 2553 972 2059 
L 3022 2063 
z
" id="DejaVuSans-65" transform="scale(0.015625)"/>
       <path d="M 2188 4044 
L 1331 1722 
L 3047 1722 
L 2188 4044 
z
M 1831 4666 
L 2547 4666 
L 4325 0 
L 3669 0 
L 3244 1197 
L 1141 1197 
L 716 0 
L 50 0 
L 1831 4666 
z
" id="DejaVuSans-41" transform="scale(0.015625)"/>
       <path d="M 2631 2963 
Q 2534 3019 2420 3045 
Q 2306 3072 2169 3072 
Q 1681 3072 1420 2755 
Q 1159 2438 1159 1844 
L 1159 0 
L 581 0 
L 581 3500 
L 1159 3500 
L 1159 2956 
Q 1341 3275 1631 3429 
Q 1922 3584 2338 3584 
Q 2397 3584 2469 3576 
Q 2541 3569 2628 3553 
L 2631 2963 
z
" id="DejaVuSans-72" transform="scale(0.015625)"/>
       <path d="M 2059 -325 
Q 1816 -950 1584 -1140 
Q 1353 -1331 966 -1331 
L 506 -1331 
L 506 -850 
L 844 -850 
Q 1081 -850 1212 -737 
Q 1344 -625 1503 -206 
L 1606 56 
L 191 3500 
L 800 3500 
L 1894 763 
L 2988 3500 
L 3597 3500 
L 2059 -325 
z
" id="DejaVuSans-79" transform="scale(0.015625)"/>
      </defs>
      <use xlink:href="#DejaVuSans-54"/>
      <use x="44.083984" xlink:href="#DejaVuSans-65"/>
      <use x="105.607422" xlink:href="#DejaVuSans-73"/>
      <use x="157.707031" xlink:href="#DejaVuSans-74"/>
      <use x="196.916016" xlink:href="#DejaVuSans-20"/>
      <use x="228.703125" xlink:href="#DejaVuSans-41"/>
      <use x="295.361328" xlink:href="#DejaVuSans-63"/>
      <use x="350.341797" xlink:href="#DejaVuSans-63"/>
      <use x="405.322266" xlink:href="#DejaVuSans-75"/>
      <use x="468.701172" xlink:href="#DejaVuSans-72"/>
      <use x="509.814453" xlink:href="#DejaVuSans-61"/>
      <use x="571.09375" xlink:href="#DejaVuSans-63"/>
      <use x="626.074219" xlink:href="#DejaVuSans-79"/>
     </g>
    </g>
   </g>
   <g id="line2d_14">
    <path clip-path="url(#p95f146cc83)" d="M 69.012273 204.247805 
L 76.417282 153.157475 
L 83.822291 136.127366 
L 91.227301 111.083087 
L 98.63231 103.068917 
L 106.037319 99.061833 
L 113.442328 86.038808 
L 120.847338 80.028181 
L 128.252347 77.022867 
L 135.657356 72.014011 
L 143.062365 67.005156 
L 150.467375 68.006927 
L 157.872384 63.999842 
L 165.277393 63.999842 
L 172.682403 60.994529 
L 180.087412 59.992758 
L 187.492421 58.990986 
L 194.89743 59.992758 
L 202.30244 61.9963 
L 209.707449 62.998071 
L 217.112458 61.9963 
L 224.517468 60.994529 
L 231.922477 60.994529 
L 239.327486 60.994529 
L 246.732495 60.994529 
L 254.137505 58.990986 
L 261.542514 57.989215 
L 268.947523 59.992758 
L 276.352532 57.989215 
L 283.757542 59.992758 
L 291.162551 59.992758 
L 298.56756 56.987444 
L 305.97257 56.987444 
L 313.377579 55.985673 
L 320.782588 54.983902 
L 328.187597 52.980359 
L 335.592607 51.978588 
L 342.997616 54.983902 
L 350.402625 52.980359 
L 357.807635 53.982131 
L 365.212644 53.982131 
L 372.617653 52.980359 
L 380.022662 54.983902 
L 387.427672 55.985673 
L 394.832681 57.989215 
L 402.23769 53.982131 
L 409.642699 56.987444 
L 417.047709 51.978588 
L 424.452718 55.985673 
L 431.857727 53.982131 
" style="fill:none;stroke:#1f77b4;stroke-linecap:square;stroke-width:1.5;"/>
   </g>
   <g id="line2d_15">
    <path clip-path="url(#p95f146cc83)" d="M 69.012273 235.302711 
L 76.417282 156.162789 
L 83.822291 141.136222 
L 91.227301 124.106112 
L 98.63231 115.090171 
L 106.037319 105.07246 
L 113.442328 97.05829 
L 120.847338 92.049435 
L 128.252347 85.037037 
L 135.657356 88.04235 
L 143.062365 81.029952 
L 150.467375 80.028181 
L 157.872384 75.019325 
L 165.277393 70.010469 
L 172.682403 75.019325 
L 180.087412 69.008698 
L 187.492421 69.008698 
L 194.89743 71.01224 
L 202.30244 68.006927 
L 209.707449 62.998071 
L 217.112458 62.998071 
L 224.517468 61.9963 
L 231.922477 66.003385 
L 239.327486 67.005156 
L 246.732495 67.005156 
L 254.137505 69.008698 
L 261.542514 66.003385 
L 268.947523 63.999842 
L 276.352532 63.999842 
L 283.757542 65.001613 
L 291.162551 65.001613 
L 298.56756 63.999842 
L 305.97257 66.003385 
L 313.377579 63.999842 
L 320.782588 68.006927 
L 328.187597 62.998071 
L 335.592607 62.998071 
L 342.997616 63.999842 
L 350.402625 63.999842 
L 357.807635 66.003385 
L 365.212644 63.999842 
L 372.617653 59.992758 
L 380.022662 61.9963 
L 387.427672 57.989215 
L 394.832681 61.9963 
L 402.23769 65.001613 
L 409.642699 62.998071 
L 417.047709 63.999842 
L 424.452718 60.994529 
L 431.857727 62.998071 
" style="fill:none;stroke:#ff7f0e;stroke-linecap:square;stroke-width:1.5;"/>
   </g>
   <g id="line2d_16">
    <path clip-path="url(#p95f146cc83)" d="M 69.012273 237.306253 
L 76.417282 158.166331 
L 83.822291 141.136222 
L 91.227301 130.116739 
L 98.63231 110.081316 
L 106.037319 93.051206 
L 113.442328 87.040579 
L 120.847338 84.035265 
L 128.252347 82.031723 
L 135.657356 72.014011 
L 143.062365 69.008698 
L 150.467375 71.01224 
L 157.872384 71.01224 
L 165.277393 71.01224 
L 172.682403 69.008698 
L 180.087412 67.005156 
L 187.492421 66.003385 
L 194.89743 67.005156 
L 202.30244 65.001613 
L 209.707449 62.998071 
L 217.112458 65.001613 
L 224.517468 65.001613 
L 231.922477 57.989215 
L 239.327486 58.990986 
L 246.732495 58.990986 
L 254.137505 60.994529 
L 261.542514 57.989215 
L 268.947523 57.989215 
L 276.352532 57.989215 
L 283.757542 58.990986 
L 291.162551 59.992758 
L 298.56756 56.987444 
L 305.97257 57.989215 
L 313.377579 57.989215 
L 320.782588 57.989215 
L 328.187597 57.989215 
L 335.592607 57.989215 
L 342.997616 57.989215 
L 350.402625 60.994529 
L 357.807635 58.990986 
L 365.212644 55.985673 
L 372.617653 57.989215 
L 380.022662 59.992758 
L 387.427672 58.990986 
L 394.832681 57.989215 
L 402.23769 58.990986 
L 409.642699 58.990986 
L 417.047709 59.992758 
L 424.452718 57.989215 
L 431.857727 56.987444 
" style="fill:none;stroke:#2ca02c;stroke-linecap:square;stroke-width:1.5;"/>
   </g>
   <g id="line2d_17">
    <path clip-path="url(#p95f146cc83)" d="M 69.012273 269.941954 
L 76.417282 188.190415 
L 83.822291 167.455755 
L 91.227301 152.89401 
L 98.63231 143.080659 
L 106.037319 135.958066 
L 113.442328 129.785153 
L 120.847338 124.799337 
L 128.252347 120.763201 
L 135.657356 117.835024 
L 143.062365 114.906847 
L 150.467375 113.244909 
L 157.872384 110.475012 
L 165.277393 107.705114 
L 172.682403 106.676295 
L 180.087412 105.726616 
L 187.492421 103.906398 
L 194.89743 104.064678 
L 202.30244 100.819941 
L 209.707449 99.791122 
L 217.112458 99.395423 
L 224.517468 97.733484 
L 231.922477 96.308966 
L 239.327486 95.913266 
L 246.732495 95.754986 
L 254.137505 94.567887 
L 261.542514 94.330468 
L 268.947523 93.618208 
L 276.352532 93.459928 
L 283.757542 93.380789 
L 291.162551 92.19369 
L 298.56756 91.95627 
L 305.97257 91.87713 
L 313.377579 91.244011 
L 320.782588 91.085731 
L 328.187597 90.769171 
L 335.592607 90.136052 
L 342.997616 89.502932 
L 350.402625 90.610891 
L 357.807635 89.740352 
L 365.212644 89.819492 
L 372.617653 88.790673 
L 380.022662 89.423792 
L 387.427672 89.977772 
L 394.832681 89.502932 
L 402.23769 88.948953 
L 409.642699 88.948953 
L 417.047709 89.502932 
L 424.452718 88.474113 
L 431.857727 87.999274 
" style="fill:none;stroke:#d62728;stroke-linecap:square;stroke-width:1.5;"/>
   </g>
   <g id="patch_3">
    <path d="M 50.87 303.64 
L 50.87 32.876829 
" style="fill:none;stroke:#000000;stroke-linecap:square;stroke-linejoin:miter;stroke-width:0.8;"/>
   </g>
   <g id="patch_4">
    <path d="M 450 303.64 
L 450 32.876829 
" style="fill:none;stroke:#000000;stroke-linecap:square;stroke-linejoin:miter;stroke-width:0.8;"/>
   </g>
   <g id="patch_5">
    <path d="M 50.87 303.64 
L 450 303.64 
" style="fill:none;stroke:#000000;stroke-linecap:square;stroke-linejoin:miter;stroke-width:0.8;"/>
   </g>
   <g id="patch_6">
    <path d="M 50.87 32.876829 
L 450 32.876829 
" style="fill:none;stroke:#000000;stroke-linecap:square;stroke-linejoin:miter;stroke-width:0.8;"/>
   </g>
   <g id="legend_1">
    <g id="patch_7">
     <path d="M 84.036563 28.478637 
L 416.833438 28.478637 
Q 418.833438 28.478637 418.833438 26.478637 
L 418.833438 12.800512 
Q 418.833438 10.800512 416.833438 10.800512 
L 84.036563 10.800512 
Q 82.036563 10.800512 82.036563 12.800512 
L 82.036563 26.478637 
Q 82.036563 28.478637 84.036563 28.478637 
z
" style="fill:#ffffff;opacity:0.8;stroke:#cccccc;stroke-linejoin:miter;"/>
    </g>
    <g id="line2d_18">
     <path d="M 86.036563 18.898949 
L 106.036563 18.898949 
" style="fill:none;stroke:#1f77b4;stroke-linecap:square;stroke-width:1.5;"/>
    </g>
    <g id="line2d_19"/>
    <g id="text_16">
     <!-- FedAvg -->
     <g transform="translate(114.036563 22.398949)scale(0.1 -0.1)">
      <defs>
       <path d="M 628 4666 
L 3309 4666 
L 3309 4134 
L 1259 4134 
L 1259 2759 
L 3109 2759 
L 3109 2228 
L 1259 2228 
L 1259 0 
L 628 0 
L 628 4666 
z
" id="DejaVuSans-46" transform="scale(0.015625)"/>
       <path d="M 191 3500 
L 800 3500 
L 1894 563 
L 2988 3500 
L 3597 3500 
L 2284 0 
L 1503 0 
L 191 3500 
z
" id="DejaVuSans-76" transform="scale(0.015625)"/>
       <path d="M 2906 1791 
Q 2906 2416 2648 2759 
Q 2391 3103 1925 3103 
Q 1463 3103 1205 2759 
Q 947 2416 947 1791 
Q 947 1169 1205 825 
Q 1463 481 1925 481 
Q 2391 481 2648 825 
Q 2906 1169 2906 1791 
z
M 3481 434 
Q 3481 -459 3084 -895 
Q 2688 -1331 1869 -1331 
Q 1566 -1331 1297 -1286 
Q 1028 -1241 775 -1147 
L 775 -588 
Q 1028 -725 1275 -790 
Q 1522 -856 1778 -856 
Q 2344 -856 2625 -561 
Q 2906 -266 2906 331 
L 2906 616 
Q 2728 306 2450 153 
Q 2172 0 1784 0 
Q 1141 0 747 490 
Q 353 981 353 1791 
Q 353 2603 747 3093 
Q 1141 3584 1784 3584 
Q 2172 3584 2450 3431 
Q 2728 3278 2906 2969 
L 2906 3500 
L 3481 3500 
L 3481 434 
z
" id="DejaVuSans-67" transform="scale(0.015625)"/>
      </defs>
      <use xlink:href="#DejaVuSans-46"/>
      <use x="52.019531" xlink:href="#DejaVuSans-65"/>
      <use x="113.542969" xlink:href="#DejaVuSans-64"/>
      <use x="177.019531" xlink:href="#DejaVuSans-41"/>
      <use x="239.552734" xlink:href="#DejaVuSans-76"/>
      <use x="298.732422" xlink:href="#DejaVuSans-67"/>
     </g>
    </g>
    <g id="line2d_20">
     <path d="M 170.26 18.898949 
L 190.26 18.898949 
" style="fill:none;stroke:#ff7f0e;stroke-linecap:square;stroke-width:1.5;"/>
    </g>
    <g id="line2d_21"/>
    <g id="text_17">
     <!-- FedMed -->
     <g transform="translate(198.26 22.398949)scale(0.1 -0.1)">
      <defs>
       <path d="M 628 4666 
L 1569 4666 
L 2759 1491 
L 3956 4666 
L 4897 4666 
L 4897 0 
L 4281 0 
L 4281 4097 
L 3078 897 
L 2444 897 
L 1241 4097 
L 1241 0 
L 628 0 
L 628 4666 
z
" id="DejaVuSans-4d" transform="scale(0.015625)"/>
      </defs>
      <use xlink:href="#DejaVuSans-46"/>
      <use x="52.019531" xlink:href="#DejaVuSans-65"/>
      <use x="113.542969" xlink:href="#DejaVuSans-64"/>
      <use x="177.019531" xlink:href="#DejaVuSans-4d"/>
      <use x="263.298828" xlink:href="#DejaVuSans-65"/>
      <use x="324.822266" xlink:href="#DejaVuSans-64"/>
     </g>
    </g>
    <g id="line2d_22">
     <path d="M 257.092813 18.898949 
L 277.092813 18.898949 
" style="fill:none;stroke:#2ca02c;stroke-linecap:square;stroke-width:1.5;"/>
    </g>
    <g id="line2d_23"/>
    <g id="text_18">
     <!-- FedProx -->
     <g transform="translate(285.092813 22.398949)scale(0.1 -0.1)">
      <defs>
       <path d="M 1259 4147 
L 1259 2394 
L 2053 2394 
Q 2494 2394 2734 2622 
Q 2975 2850 2975 3272 
Q 2975 3691 2734 3919 
Q 2494 4147 2053 4147 
L 1259 4147 
z
M 628 4666 
L 2053 4666 
Q 2838 4666 3239 4311 
Q 3641 3956 3641 3272 
Q 3641 2581 3239 2228 
Q 2838 1875 2053 1875 
L 1259 1875 
L 1259 0 
L 628 0 
L 628 4666 
z
" id="DejaVuSans-50" transform="scale(0.015625)"/>
       <path d="M 3513 3500 
L 2247 1797 
L 3578 0 
L 2900 0 
L 1881 1375 
L 863 0 
L 184 0 
L 1544 1831 
L 300 3500 
L 978 3500 
L 1906 2253 
L 2834 3500 
L 3513 3500 
z
" id="DejaVuSans-78" transform="scale(0.015625)"/>
      </defs>
      <use xlink:href="#DejaVuSans-46"/>
      <use x="52.019531" xlink:href="#DejaVuSans-65"/>
      <use x="113.542969" xlink:href="#DejaVuSans-64"/>
      <use x="177.019531" xlink:href="#DejaVuSans-50"/>
      <use x="235.572266" xlink:href="#DejaVuSans-72"/>
      <use x="274.435547" xlink:href="#DejaVuSans-6f"/>
      <use x="332.492188" xlink:href="#DejaVuSans-78"/>
     </g>
    </g>
    <g id="line2d_24">
     <path d="M 344.261563 18.898949 
L 364.261563 18.898949 
" style="fill:none;stroke:#d62728;stroke-linecap:square;stroke-width:1.5;"/>
    </g>
    <g id="line2d_25"/>
    <g id="text_19">
     <!-- qFedAvg -->
     <g transform="translate(372.261563 22.398949)scale(0.1 -0.1)">
      <defs>
       <path d="M 947 1747 
Q 947 1113 1208 752 
Q 1469 391 1925 391 
Q 2381 391 2643 752 
Q 2906 1113 2906 1747 
Q 2906 2381 2643 2742 
Q 2381 3103 1925 3103 
Q 1469 3103 1208 2742 
Q 947 2381 947 1747 
z
M 2906 525 
Q 2725 213 2448 61 
Q 2172 -91 1784 -91 
Q 1150 -91 751 415 
Q 353 922 353 1747 
Q 353 2572 751 3078 
Q 1150 3584 1784 3584 
Q 2172 3584 2448 3432 
Q 2725 3281 2906 2969 
L 2906 3500 
L 3481 3500 
L 3481 -1331 
L 2906 -1331 
L 2906 525 
z
" id="DejaVuSans-71" transform="scale(0.015625)"/>
      </defs>
      <use xlink:href="#DejaVuSans-71"/>
      <use x="63.476562" xlink:href="#DejaVuSans-46"/>
      <use x="115.496094" xlink:href="#DejaVuSans-65"/>
      <use x="177.019531" xlink:href="#DejaVuSans-64"/>
      <use x="240.496094" xlink:href="#DejaVuSans-41"/>
      <use x="303.029297" xlink:href="#DejaVuSans-76"/>
      <use x="362.208984" xlink:href="#DejaVuSans-67"/>
     </g>
    </g>
   </g>
  </g>
 </g>
 <defs>
  <clipPath id="p95f146cc83">
   <rect height="270.763171" width="399.13" x="50.87" y="32.876829"/>
  </clipPath>
 </defs>
</svg>
