<?xml version="1.0" encoding="utf-8" standalone="no"?>
<!DOCTYPE svg PUBLIC "-//W3C//DTD SVG 1.1//EN"
  "http://www.w3.org/Graphics/SVG/1.1/DTD/svg11.dtd">
<svg height="345.6pt" version="1.1" viewBox="0 0 460.8 345.6" width="460.8pt" xmlns="http://www.w3.org/2000/svg" xmlns:xlink="http://www.w3.org/1999/xlink">
 <metadata>
  <rdf:RDF xmlns:cc="http://creativecommons.org/ns#" xmlns:dc="http://purl.org/dc/elements/1.1/" xmlns:rdf="http://www.w3.org/1999/02/22-rdf-syntax-ns#">
   <cc:Work>
    <dc:type rdf:resource="http://purl.org/dc/dcmitype/StillImage"/>
    <dc:date>2021-05-05T21:55:36.152483</dc:date>
    <dc:format>image/svg+xml</dc:format>
    <dc:creator>
     <cc:Agent>
      <dc:title>Matplotlib v3.4.1, https://matplotlib.org/</dc:title>
     </cc:Agent>
    </dc:creator>
   </cc:Work>
  </rdf:RDF>
 </metadata>
 <defs>
  <style type="text/css">*{stroke-linecap:butt;stroke-linejoin:round;}</style>
 </defs>
 <g id="figure_1">
  <g id="patch_1">
   <path d="M 0 345.6 
L 460.8 345.6 
L 460.8 0 
L 0 0 
z
" style="fill:#ffffff;"/>
  </g>
  <g id="axes_1">
   <g id="patch_2">
    <path d="M 50.87 303.64 
L 450 303.64 
L 450 48.38 
L 50.87 48.38 
z
" style="fill:#ffffff;"/>
   </g>
   <g id="PolyCollection_1">
    <path clip-path="url(#p3dc958ff8c)" d="M 69.012273 194.135692 
L 69.012273 225.741777 
L 76.417282 168.713686 
L 83.822291 160.531219 
L 91.227301 128.513695 
L 98.63231 122.677221 
L 106.037319 113.761923 
L 113.442328 108.6697 
L 120.847338 98.338416 
L 128.252347 94.813932 
L 135.657356 90.09187 
L 143.062365 85.369808 
L 150.467375 83.387468 
L 157.872384 80.707488 
L 165.277393 80.707488 
L 172.682403 79.703333 
L 180.087412 77.477011 
L 187.492421 77.222472 
L 194.89743 77.477011 
L 202.30244 80.647746 
L 209.707449 82.283404 
L 217.112458 82.237485 
L 224.517468 78.665406 
L 231.922477 77.201085 
L 239.327486 79.703333 
L 246.732495 79.703333 
L 254.137505 78.171691 
L 261.542514 77.561342 
L 268.947523 77.477011 
L 276.352532 77.561342 
L 283.757542 77.477011 
L 291.162551 81.498643 
L 298.56756 76.776581 
L 305.97257 73.423435 
L 313.377579 74.981271 
L 320.782588 74.728105 
L 328.187597 72.83928 
L 335.592607 72.793361 
L 342.997616 74.728105 
L 350.402625 72.83928 
L 357.807635 73.449629 
L 365.212644 73.449629 
L 372.617653 71.959114 
L 380.022662 73.847939 
L 387.427672 77.233029 
L 394.832681 77.561342 
L 402.23769 71.263363 
L 409.642699 74.887756 
L 417.047709 70.165694 
L 424.452718 76.571011 
L 431.857727 72.50041 
L 431.857727 64.053328 
L 431.857727 64.053328 
L 424.452718 63.760377 
L 417.047709 62.610394 
L 409.642699 67.332457 
L 402.23769 65.290375 
L 394.832681 66.547695 
L 387.427672 63.098358 
L 380.022662 64.594624 
L 372.617653 62.705799 
L 365.212644 63.104109 
L 357.807635 63.104109 
L 350.402625 61.825633 
L 342.997616 63.714458 
L 335.592607 59.982727 
L 328.187597 61.825633 
L 320.782588 63.714458 
L 313.377579 65.350116 
L 305.97257 68.796778 
L 298.56756 65.443632 
L 291.162551 66.388044 
L 283.757542 70.409676 
L 276.352532 66.547695 
L 268.947523 70.409676 
L 261.542514 66.547695 
L 254.137505 67.826171 
L 246.732495 70.072179 
L 239.327486 70.072179 
L 231.922477 72.574427 
L 224.517468 71.110106 
L 217.112458 69.426852 
L 209.707449 71.269757 
L 202.30244 71.016591 
L 194.89743 70.409676 
L 187.492421 68.77539 
L 180.087412 70.409676 
L 172.682403 70.072179 
L 165.277393 74.734499 
L 157.872384 74.734499 
L 150.467375 79.609818 
L 143.062365 75.738653 
L 135.657356 80.460715 
L 128.252347 85.182778 
L 120.847338 87.324769 
L 113.442328 88.326434 
L 106.037319 107.788934 
L 98.63231 106.428935 
L 91.227301 115.703061 
L 83.822291 130.906159 
L 76.417282 154.833715 
L 69.012273 194.135692 
z
" style="fill:#1f77b4;fill-opacity:0.5;"/>
   </g>
   <g id="PolyCollection_2">
    <path clip-path="url(#p3dc958ff8c)" d="M 69.012273 224.164063 
L 69.012273 254.266978 
L 76.417282 173.365058 
L 83.822291 160.164072 
L 91.227301 143.829864 
L 98.63231 135.042446 
L 106.037319 125.598322 
L 113.442328 118.609925 
L 120.847338 110.569858 
L 128.252347 105.677797 
L 135.657356 106.651415 
L 143.062365 98.591582 
L 150.467375 96.36526 
L 157.872384 96.233673 
L 165.277393 88.014125 
L 172.682403 93.616354 
L 180.087412 88.416044 
L 187.492421 88.416044 
L 194.89743 93.090001 
L 202.30244 83.387468 
L 209.707449 80.310249 
L 217.112458 83.716567 
L 224.517468 83.504611 
L 231.922477 84.425396 
L 239.327486 86.959547 
L 246.732495 85.369808 
L 254.137505 86.666596 
L 261.542514 81.923147 
L 268.947523 86.168075 
L 276.352532 80.707488 
L 283.757542 86.220705 
L 291.162551 83.292063 
L 298.56756 83.693982 
L 305.97257 84.425396 
L 313.377579 82.893753 
L 320.782588 87.005467 
L 328.187597 80.310249 
L 335.592607 82.283404 
L 342.997616 86.168075 
L 350.402625 80.707488 
L 357.807635 83.387468 
L 365.212644 80.707488 
L 372.617653 75.832168 
L 380.022662 79.609818 
L 387.427672 77.561342 
L 394.832681 78.145497 
L 402.23769 82.199074 
L 409.642699 80.310249 
L 417.047709 80.707488 
L 424.452718 78.665406 
L 431.857727 80.310249 
L 431.857727 73.242913 
L 431.857727 73.242913 
L 424.452718 71.110106 
L 417.047709 74.734499 
L 409.642699 73.242913 
L 402.23769 75.131738 
L 394.832681 73.51884 
L 387.427672 66.547695 
L 380.022662 72.054519 
L 372.617653 72.054519 
L 365.212644 74.734499 
L 357.807635 75.832168 
L 350.402625 74.734499 
L 342.997616 69.273912 
L 335.592607 71.269757 
L 328.187597 73.242913 
L 320.782588 75.99182 
L 313.377579 72.548233 
L 305.97257 74.794241 
L 298.56756 71.748005 
L 291.162551 74.038749 
L 283.757542 71.110106 
L 276.352532 74.734499 
L 268.947523 69.273912 
L 261.542514 77.29649 
L 254.137505 78.219515 
L 246.732495 75.738653 
L 239.327486 74.148914 
L 231.922477 74.794241 
L 224.517468 68.159726 
L 217.112458 69.836595 
L 209.707449 73.242913 
L 202.30244 79.609818 
L 194.89743 75.57376 
L 187.492421 76.470067 
L 180.087412 76.470067 
L 172.682403 82.602707 
L 165.277393 78.760811 
L 157.872384 79.985387 
L 150.467375 89.297925 
L 143.062365 88.960427 
L 135.657356 94.122368 
L 128.252347 89.429512 
L 120.847338 97.759225 
L 113.442328 99.163283 
L 106.037319 107.285485 
L 98.63231 116.729609 
L 91.227301 124.941615 
L 83.822291 140.71743 
L 76.417282 155.848817 
L 69.012273 224.164063 
z
" style="fill:#ff7f0e;fill-opacity:0.5;"/>
   </g>
   <g id="PolyCollection_3">
    <path clip-path="url(#p3dc958ff8c)" d="M 69.012273 212.993198 
L 69.012273 269.215492 
L 76.417282 177.428127 
L 83.822291 159.694065 
L 91.227301 144.678871 
L 98.63231 125.790623 
L 106.037319 112.664253 
L 113.442328 107.675676 
L 120.847338 102.582231 
L 128.252347 102.953614 
L 135.657356 94.034413 
L 143.062365 86.666596 
L 150.467375 93.090001 
L 157.872384 90.737197 
L 165.277393 91.399216 
L 172.682403 89.758443 
L 180.087412 82.867559 
L 187.492421 81.923147 
L 194.89743 84.33188 
L 202.30244 82.199074 
L 209.707449 82.283404 
L 217.112458 83.292063 
L 224.517468 84.172229 
L 231.922477 73.943344 
L 239.327486 77.222472 
L 246.732495 75.985425 
L 254.137505 78.665406 
L 261.542514 75.588186 
L 268.947523 73.943344 
L 276.352532 73.943344 
L 283.757542 75.985425 
L 291.162551 77.477011 
L 298.56756 73.423435 
L 305.97257 77.561342 
L 313.377579 75.588186 
L 320.782588 76.681176 
L 328.187597 73.943344 
L 335.592607 73.943344 
L 342.997616 75.588186 
L 350.402625 78.665406 
L 357.807635 77.222472 
L 365.212644 73.943344 
L 372.617653 75.588186 
L 380.022662 79.450167 
L 387.427672 77.222472 
L 394.832681 73.943344 
L 402.23769 75.985425 
L 409.642699 75.985425 
L 417.047709 77.477011 
L 424.452718 77.561342 
L 431.857727 73.423435 
L 431.857727 68.796778 
L 431.857727 68.796778 
L 424.452718 66.547695 
L 417.047709 70.409676 
L 409.642699 70.012437 
L 402.23769 70.012437 
L 394.832681 70.165694 
L 387.427672 68.77539 
L 380.022662 68.43652 
L 372.617653 68.520851 
L 365.212644 66.388044 
L 357.807635 68.77539 
L 350.402625 71.110106 
L 342.997616 68.520851 
L 335.592607 70.165694 
L 328.187597 70.165694 
L 320.782588 67.427862 
L 313.377579 68.520851 
L 305.97257 66.547695 
L 298.56756 68.796778 
L 291.162551 70.409676 
L 283.757542 70.012437 
L 276.352532 70.165694 
L 268.947523 70.165694 
L 261.542514 68.520851 
L 254.137505 71.110106 
L 246.732495 70.012437 
L 239.327486 68.77539 
L 231.922477 70.165694 
L 224.517468 73.158582 
L 217.112458 74.038749 
L 209.707449 71.269757 
L 202.30244 75.131738 
L 194.89743 76.776581 
L 187.492421 77.29649 
L 180.087412 78.240902 
L 172.682403 75.127668 
L 165.277393 77.264545 
L 157.872384 77.926564 
L 150.467375 75.57376 
L 143.062365 78.219515 
L 135.657356 76.518172 
L 128.252347 86.48722 
L 120.847338 90.636253 
L 113.442328 91.209283 
L 106.037319 97.553654 
L 98.63231 116.537308 
L 91.227301 135.425557 
L 83.822291 141.187437 
L 76.417282 155.563398 
L 69.012273 212.993198 
z
" style="fill:#2ca02c;fill-opacity:0.5;"/>
   </g>
   <g id="PolyCollection_4">
    <path clip-path="url(#p3dc958ff8c)" d="M 69.012273 251.705554 
L 69.012273 292.037273 
L 76.417282 203.702024 
L 83.822291 182.028317 
L 91.227301 166.970213 
L 98.63231 157.445043 
L 106.037319 149.867042 
L 113.442328 142.828445 
L 120.847338 138.706495 
L 128.252347 134.738457 
L 135.657356 132.526001 
L 143.062365 130.26738 
L 150.467375 128.182186 
L 157.872384 124.826364 
L 165.277393 123.354087 
L 172.682403 121.243461 
L 180.087412 120.22046 
L 187.492421 118.615195 
L 194.89743 118.17566 
L 202.30244 115.827358 
L 209.707449 114.562586 
L 217.112458 114.664907 
L 224.517468 112.804219 
L 231.922477 111.877639 
L 239.327486 112.212207 
L 246.732495 111.657667 
L 254.137505 110.748729 
L 261.542514 110.971883 
L 268.947523 110.178073 
L 276.352532 110.145208 
L 283.757542 110.175926 
L 291.162551 109.450151 
L 298.56756 109.805562 
L 305.97257 109.568323 
L 313.377579 108.299921 
L 320.782588 108.341455 
L 328.187597 107.596533 
L 335.592607 106.447194 
L 342.997616 106.984314 
L 350.402625 108.211181 
L 357.807635 107.50568 
L 365.212644 107.44445 
L 372.617653 105.652655 
L 380.022662 106.416148 
L 387.427672 106.710338 
L 394.832681 106.57364 
L 402.23769 105.462084 
L 409.642699 105.711878 
L 417.047709 106.54462 
L 424.452718 104.695042 
L 431.857727 105.121231 
L 431.857727 95.571333 
L 431.857727 95.571333 
L 424.452718 96.892825 
L 417.047709 96.983071 
L 409.642699 96.771292 
L 402.23769 97.021086 
L 394.832681 96.95405 
L 387.427672 97.712655 
L 380.022662 96.962325 
L 372.617653 96.53208 
L 365.212644 96.680109 
L 357.807635 96.469661 
L 350.402625 97.40555 
L 342.997616 96.543376 
L 335.592607 98.274233 
L 328.187597 98.318632 
L 320.782588 98.170578 
L 313.377579 98.510547 
L 305.97257 98.435882 
L 298.56756 98.34786 
L 291.162551 99.150923 
L 283.757542 100.663405 
L 276.352532 100.84334 
L 268.947523 101.10891 
L 261.542514 101.658054 
L 254.137505 102.32886 
L 246.732495 103.658179 
L 239.327486 103.402074 
L 231.922477 104.482728 
L 224.517468 106.242056 
L 217.112458 107.514929 
L 209.707449 108.363336 
L 202.30244 109.038387 
L 194.89743 112.807989 
L 187.492421 112.070019 
L 180.087412 113.89675 
L 172.682403 114.664354 
L 165.277393 114.493552 
L 157.872384 118.243875 
L 150.467375 120.110654 
L 143.062365 121.15902 
L 135.657356 124.421434 
L 128.252347 127.730014 
L 120.847338 131.372051 
L 113.442328 136.650782 
L 106.037319 141.251124 
L 98.63231 147.102668 
L 91.227301 156.080427 
L 83.822291 168.478281 
L 76.417282 185.899472 
L 69.012273 251.705554 
z
" style="fill:#d62728;fill-opacity:0.5;"/>
   </g>
   <g id="matplotlib.axis_1">
    <g id="xtick_1">
     <g id="line2d_1">
      <defs>
       <path d="M 0 0 
L 0 3.5 
" id="mca98000cc4" style="stroke:#000000;stroke-width:0.8;"/>
      </defs>
      <g>
       <use style="stroke:#000000;stroke-width:0.8;" x="69.012273" xlink:href="#mca98000cc4" y="303.64"/>
      </g>
     </g>
     <g id="text_1">
      <!-- 0 -->
      <g transform="translate(65.831023 318.238437)scale(0.1 -0.1)">
       <defs>
        <path d="M 2034 4250 
Q 1547 4250 1301 3770 
Q 1056 3291 1056 2328 
Q 1056 1369 1301 889 
Q 1547 409 2034 409 
Q 2525 409 2770 889 
Q 3016 1369 3016 2328 
Q 3016 3291 2770 3770 
Q 2525 4250 2034 4250 
z
M 2034 4750 
Q 2819 4750 3233 4129 
Q 3647 3509 3647 2328 
Q 3647 1150 3233 529 
Q 2819 -91 2034 -91 
Q 1250 -91 836 529 
Q 422 1150 422 2328 
Q 422 3509 836 4129 
Q 1250 4750 2034 4750 
z
" id="DejaVuSans-30" transform="scale(0.015625)"/>
       </defs>
       <use xlink:href="#DejaVuSans-30"/>
      </g>
     </g>
    </g>
    <g id="xtick_2">
     <g id="line2d_2">
      <g>
       <use style="stroke:#000000;stroke-width:0.8;" x="143.062365" xlink:href="#mca98000cc4" y="303.64"/>
      </g>
     </g>
     <g id="text_2">
      <!-- 10 -->
      <g transform="translate(136.699865 318.238437)scale(0.1 -0.1)">
       <defs>
        <path d="M 794 531 
L 1825 531 
L 1825 4091 
L 703 3866 
L 703 4441 
L 1819 4666 
L 2450 4666 
L 2450 531 
L 3481 531 
L 3481 0 
L 794 0 
L 794 531 
z
" id="DejaVuSans-31" transform="scale(0.015625)"/>
       </defs>
       <use xlink:href="#DejaVuSans-31"/>
       <use x="63.623047" xlink:href="#DejaVuSans-30"/>
      </g>
     </g>
    </g>
    <g id="xtick_3">
     <g id="line2d_3">
      <g>
       <use style="stroke:#000000;stroke-width:0.8;" x="217.112458" xlink:href="#mca98000cc4" y="303.64"/>
      </g>
     </g>
     <g id="text_3">
      <!-- 20 -->
      <g transform="translate(210.749958 318.238437)scale(0.1 -0.1)">
       <defs>
        <path d="M 1228 531 
L 3431 531 
L 3431 0 
L 469 0 
L 469 531 
Q 828 903 1448 1529 
Q 2069 2156 2228 2338 
Q 2531 2678 2651 2914 
Q 2772 3150 2772 3378 
Q 2772 3750 2511 3984 
Q 2250 4219 1831 4219 
Q 1534 4219 1204 4116 
Q 875 4013 500 3803 
L 500 4441 
Q 881 4594 1212 4672 
Q 1544 4750 1819 4750 
Q 2544 4750 2975 4387 
Q 3406 4025 3406 3419 
Q 3406 3131 3298 2873 
Q 3191 2616 2906 2266 
Q 2828 2175 2409 1742 
Q 1991 1309 1228 531 
z
" id="DejaVuSans-32" transform="scale(0.015625)"/>
       </defs>
       <use xlink:href="#DejaVuSans-32"/>
       <use x="63.623047" xlink:href="#DejaVuSans-30"/>
      </g>
     </g>
    </g>
    <g id="xtick_4">
     <g id="line2d_4">
      <g>
       <use style="stroke:#000000;stroke-width:0.8;" x="291.162551" xlink:href="#mca98000cc4" y="303.64"/>
      </g>
     </g>
     <g id="text_4">
      <!-- 30 -->
      <g transform="translate(284.800051 318.238437)scale(0.1 -0.1)">
       <defs>
        <path d="M 2597 2516 
Q 3050 2419 3304 2112 
Q 3559 1806 3559 1356 
Q 3559 666 3084 287 
Q 2609 -91 1734 -91 
Q 1441 -91 1130 -33 
Q 819 25 488 141 
L 488 750 
Q 750 597 1062 519 
Q 1375 441 1716 441 
Q 2309 441 2620 675 
Q 2931 909 2931 1356 
Q 2931 1769 2642 2001 
Q 2353 2234 1838 2234 
L 1294 2234 
L 1294 2753 
L 1863 2753 
Q 2328 2753 2575 2939 
Q 2822 3125 2822 3475 
Q 2822 3834 2567 4026 
Q 2313 4219 1838 4219 
Q 1578 4219 1281 4162 
Q 984 4106 628 3988 
L 628 4550 
Q 988 4650 1302 4700 
Q 1616 4750 1894 4750 
Q 2613 4750 3031 4423 
Q 3450 4097 3450 3541 
Q 3450 3153 3228 2886 
Q 3006 2619 2597 2516 
z
" id="DejaVuSans-33" transform="scale(0.015625)"/>
       </defs>
       <use xlink:href="#DejaVuSans-33"/>
       <use x="63.623047" xlink:href="#DejaVuSans-30"/>
      </g>
     </g>
    </g>
    <g id="xtick_5">
     <g id="line2d_5">
      <g>
       <use style="stroke:#000000;stroke-width:0.8;" x="365.212644" xlink:href="#mca98000cc4" y="303.64"/>
      </g>
     </g>
     <g id="text_5">
      <!-- 40 -->
      <g transform="translate(358.850144 318.238437)scale(0.1 -0.1)">
       <defs>
        <path d="M 2419 4116 
L 825 1625 
L 2419 1625 
L 2419 4116 
z
M 2253 4666 
L 3047 4666 
L 3047 1625 
L 3713 1625 
L 3713 1100 
L 3047 1100 
L 3047 0 
L 2419 0 
L 2419 1100 
L 313 1100 
L 313 1709 
L 2253 4666 
z
" id="DejaVuSans-34" transform="scale(0.015625)"/>
       </defs>
       <use xlink:href="#DejaVuSans-34"/>
       <use x="63.623047" xlink:href="#DejaVuSans-30"/>
      </g>
     </g>
    </g>
    <g id="xtick_6">
     <g id="line2d_6">
      <g>
       <use style="stroke:#000000;stroke-width:0.8;" x="439.262737" xlink:href="#mca98000cc4" y="303.64"/>
      </g>
     </g>
     <g id="text_6">
      <!-- 50 -->
      <g transform="translate(432.900237 318.238437)scale(0.1 -0.1)">
       <defs>
        <path d="M 691 4666 
L 3169 4666 
L 3169 4134 
L 1269 4134 
L 1269 2991 
Q 1406 3038 1543 3061 
Q 1681 3084 1819 3084 
Q 2600 3084 3056 2656 
Q 3513 2228 3513 1497 
Q 3513 744 3044 326 
Q 2575 -91 1722 -91 
Q 1428 -91 1123 -41 
Q 819 9 494 109 
L 494 744 
Q 775 591 1075 516 
Q 1375 441 1709 441 
Q 2250 441 2565 725 
Q 2881 1009 2881 1497 
Q 2881 1984 2565 2268 
Q 2250 2553 1709 2553 
Q 1456 2553 1204 2497 
Q 953 2441 691 2322 
L 691 4666 
z
" id="DejaVuSans-35" transform="scale(0.015625)"/>
       </defs>
       <use xlink:href="#DejaVuSans-35"/>
       <use x="63.623047" xlink:href="#DejaVuSans-30"/>
      </g>
     </g>
    </g>
    <g id="text_7">
     <!-- Global Communication Rounds -->
     <g transform="translate(173.473281 331.916562)scale(0.1 -0.1)">
      <defs>
       <path d="M 3809 666 
L 3809 1919 
L 2778 1919 
L 2778 2438 
L 4434 2438 
L 4434 434 
Q 4069 175 3628 42 
Q 3188 -91 2688 -91 
Q 1594 -91 976 548 
Q 359 1188 359 2328 
Q 359 3472 976 4111 
Q 1594 4750 2688 4750 
Q 3144 4750 3555 4637 
Q 3966 4525 4313 4306 
L 4313 3634 
Q 3963 3931 3569 4081 
Q 3175 4231 2741 4231 
Q 1884 4231 1454 3753 
Q 1025 3275 1025 2328 
Q 1025 1384 1454 906 
Q 1884 428 2741 428 
Q 3075 428 3337 486 
Q 3600 544 3809 666 
z
" id="DejaVuSans-47" transform="scale(0.015625)"/>
       <path d="M 603 4863 
L 1178 4863 
L 1178 0 
L 603 0 
L 603 4863 
z
" id="DejaVuSans-6c" transform="scale(0.015625)"/>
       <path d="M 1959 3097 
Q 1497 3097 1228 2736 
Q 959 2375 959 1747 
Q 959 1119 1226 758 
Q 1494 397 1959 397 
Q 2419 397 2687 759 
Q 2956 1122 2956 1747 
Q 2956 2369 2687 2733 
Q 2419 3097 1959 3097 
z
M 1959 3584 
Q 2709 3584 3137 3096 
Q 3566 2609 3566 1747 
Q 3566 888 3137 398 
Q 2709 -91 1959 -91 
Q 1206 -91 779 398 
Q 353 888 353 1747 
Q 353 2609 779 3096 
Q 1206 3584 1959 3584 
z
" id="DejaVuSans-6f" transform="scale(0.015625)"/>
       <path d="M 3116 1747 
Q 3116 2381 2855 2742 
Q 2594 3103 2138 3103 
Q 1681 3103 1420 2742 
Q 1159 2381 1159 1747 
Q 1159 1113 1420 752 
Q 1681 391 2138 391 
Q 2594 391 2855 752 
Q 3116 1113 3116 1747 
z
M 1159 2969 
Q 1341 3281 1617 3432 
Q 1894 3584 2278 3584 
Q 2916 3584 3314 3078 
Q 3713 2572 3713 1747 
Q 3713 922 3314 415 
Q 2916 -91 2278 -91 
Q 1894 -91 1617 61 
Q 1341 213 1159 525 
L 1159 0 
L 581 0 
L 581 4863 
L 1159 4863 
L 1159 2969 
z
" id="DejaVuSans-62" transform="scale(0.015625)"/>
       <path d="M 2194 1759 
Q 1497 1759 1228 1600 
Q 959 1441 959 1056 
Q 959 750 1161 570 
Q 1363 391 1709 391 
Q 2188 391 2477 730 
Q 2766 1069 2766 1631 
L 2766 1759 
L 2194 1759 
z
M 3341 1997 
L 3341 0 
L 2766 0 
L 2766 531 
Q 2569 213 2275 61 
Q 1981 -91 1556 -91 
Q 1019 -91 701 211 
Q 384 513 384 1019 
Q 384 1609 779 1909 
Q 1175 2209 1959 2209 
L 2766 2209 
L 2766 2266 
Q 2766 2663 2505 2880 
Q 2244 3097 1772 3097 
Q 1472 3097 1187 3025 
Q 903 2953 641 2809 
L 641 3341 
Q 956 3463 1253 3523 
Q 1550 3584 1831 3584 
Q 2591 3584 2966 3190 
Q 3341 2797 3341 1997 
z
" id="DejaVuSans-61" transform="scale(0.015625)"/>
       <path id="DejaVuSans-20" transform="scale(0.015625)"/>
       <path d="M 4122 4306 
L 4122 3641 
Q 3803 3938 3442 4084 
Q 3081 4231 2675 4231 
Q 1875 4231 1450 3742 
Q 1025 3253 1025 2328 
Q 1025 1406 1450 917 
Q 1875 428 2675 428 
Q 3081 428 3442 575 
Q 3803 722 4122 1019 
L 4122 359 
Q 3791 134 3420 21 
Q 3050 -91 2638 -91 
Q 1578 -91 968 557 
Q 359 1206 359 2328 
Q 359 3453 968 4101 
Q 1578 4750 2638 4750 
Q 3056 4750 3426 4639 
Q 3797 4528 4122 4306 
z
" id="DejaVuSans-43" transform="scale(0.015625)"/>
       <path d="M 3328 2828 
Q 3544 3216 3844 3400 
Q 4144 3584 4550 3584 
Q 5097 3584 5394 3201 
Q 5691 2819 5691 2113 
L 5691 0 
L 5113 0 
L 5113 2094 
Q 5113 2597 4934 2840 
Q 4756 3084 4391 3084 
Q 3944 3084 3684 2787 
Q 3425 2491 3425 1978 
L 3425 0 
L 2847 0 
L 2847 2094 
Q 2847 2600 2669 2842 
Q 2491 3084 2119 3084 
Q 1678 3084 1418 2786 
Q 1159 2488 1159 1978 
L 1159 0 
L 581 0 
L 581 3500 
L 1159 3500 
L 1159 2956 
Q 1356 3278 1631 3431 
Q 1906 3584 2284 3584 
Q 2666 3584 2933 3390 
Q 3200 3197 3328 2828 
z
" id="DejaVuSans-6d" transform="scale(0.015625)"/>
       <path d="M 544 1381 
L 544 3500 
L 1119 3500 
L 1119 1403 
Q 1119 906 1312 657 
Q 1506 409 1894 409 
Q 2359 409 2629 706 
Q 2900 1003 2900 1516 
L 2900 3500 
L 3475 3500 
L 3475 0 
L 2900 0 
L 2900 538 
Q 2691 219 2414 64 
Q 2138 -91 1772 -91 
Q 1169 -91 856 284 
Q 544 659 544 1381 
z
M 1991 3584 
L 1991 3584 
z
" id="DejaVuSans-75" transform="scale(0.015625)"/>
       <path d="M 3513 2113 
L 3513 0 
L 2938 0 
L 2938 2094 
Q 2938 2591 2744 2837 
Q 2550 3084 2163 3084 
Q 1697 3084 1428 2787 
Q 1159 2491 1159 1978 
L 1159 0 
L 581 0 
L 581 3500 
L 1159 3500 
L 1159 2956 
Q 1366 3272 1645 3428 
Q 1925 3584 2291 3584 
Q 2894 3584 3203 3211 
Q 3513 2838 3513 2113 
z
" id="DejaVuSans-6e" transform="scale(0.015625)"/>
       <path d="M 603 3500 
L 1178 3500 
L 1178 0 
L 603 0 
L 603 3500 
z
M 603 4863 
L 1178 4863 
L 1178 4134 
L 603 4134 
L 603 4863 
z
" id="DejaVuSans-69" transform="scale(0.015625)"/>
       <path d="M 3122 3366 
L 3122 2828 
Q 2878 2963 2633 3030 
Q 2388 3097 2138 3097 
Q 1578 3097 1268 2742 
Q 959 2388 959 1747 
Q 959 1106 1268 751 
Q 1578 397 2138 397 
Q 2388 397 2633 464 
Q 2878 531 3122 666 
L 3122 134 
Q 2881 22 2623 -34 
Q 2366 -91 2075 -91 
Q 1284 -91 818 406 
Q 353 903 353 1747 
Q 353 2603 823 3093 
Q 1294 3584 2113 3584 
Q 2378 3584 2631 3529 
Q 2884 3475 3122 3366 
z
" id="DejaVuSans-63" transform="scale(0.015625)"/>
       <path d="M 1172 4494 
L 1172 3500 
L 2356 3500 
L 2356 3053 
L 1172 3053 
L 1172 1153 
Q 1172 725 1289 603 
Q 1406 481 1766 481 
L 2356 481 
L 2356 0 
L 1766 0 
Q 1100 0 847 248 
Q 594 497 594 1153 
L 594 3053 
L 172 3053 
L 172 3500 
L 594 3500 
L 594 4494 
L 1172 4494 
z
" id="DejaVuSans-74" transform="scale(0.015625)"/>
       <path d="M 2841 2188 
Q 3044 2119 3236 1894 
Q 3428 1669 3622 1275 
L 4263 0 
L 3584 0 
L 2988 1197 
Q 2756 1666 2539 1819 
Q 2322 1972 1947 1972 
L 1259 1972 
L 1259 0 
L 628 0 
L 628 4666 
L 2053 4666 
Q 2853 4666 3247 4331 
Q 3641 3997 3641 3322 
Q 3641 2881 3436 2590 
Q 3231 2300 2841 2188 
z
M 1259 4147 
L 1259 2491 
L 2053 2491 
Q 2509 2491 2742 2702 
Q 2975 2913 2975 3322 
Q 2975 3731 2742 3939 
Q 2509 4147 2053 4147 
L 1259 4147 
z
" id="DejaVuSans-52" transform="scale(0.015625)"/>
       <path d="M 2906 2969 
L 2906 4863 
L 3481 4863 
L 3481 0 
L 2906 0 
L 2906 525 
Q 2725 213 2448 61 
Q 2172 -91 1784 -91 
Q 1150 -91 751 415 
Q 353 922 353 1747 
Q 353 2572 751 3078 
Q 1150 3584 1784 3584 
Q 2172 3584 2448 3432 
Q 2725 3281 2906 2969 
z
M 947 1747 
Q 947 1113 1208 752 
Q 1469 391 1925 391 
Q 2381 391 2643 752 
Q 2906 1113 2906 1747 
Q 2906 2381 2643 2742 
Q 2381 3103 1925 3103 
Q 1469 3103 1208 2742 
Q 947 2381 947 1747 
z
" id="DejaVuSans-64" transform="scale(0.015625)"/>
       <path d="M 2834 3397 
L 2834 2853 
Q 2591 2978 2328 3040 
Q 2066 3103 1784 3103 
Q 1356 3103 1142 2972 
Q 928 2841 928 2578 
Q 928 2378 1081 2264 
Q 1234 2150 1697 2047 
L 1894 2003 
Q 2506 1872 2764 1633 
Q 3022 1394 3022 966 
Q 3022 478 2636 193 
Q 2250 -91 1575 -91 
Q 1294 -91 989 -36 
Q 684 19 347 128 
L 347 722 
Q 666 556 975 473 
Q 1284 391 1588 391 
Q 1994 391 2212 530 
Q 2431 669 2431 922 
Q 2431 1156 2273 1281 
Q 2116 1406 1581 1522 
L 1381 1569 
Q 847 1681 609 1914 
Q 372 2147 372 2553 
Q 372 3047 722 3315 
Q 1072 3584 1716 3584 
Q 2034 3584 2315 3537 
Q 2597 3491 2834 3397 
z
" id="DejaVuSans-73" transform="scale(0.015625)"/>
      </defs>
      <use xlink:href="#DejaVuSans-47"/>
      <use x="77.490234" xlink:href="#DejaVuSans-6c"/>
      <use x="105.273438" xlink:href="#DejaVuSans-6f"/>
      <use x="166.455078" xlink:href="#DejaVuSans-62"/>
      <use x="229.931641" xlink:href="#DejaVuSans-61"/>
      <use x="291.210938" xlink:href="#DejaVuSans-6c"/>
      <use x="318.994141" xlink:href="#DejaVuSans-20"/>
      <use x="350.78125" xlink:href="#DejaVuSans-43"/>
      <use x="420.605469" xlink:href="#DejaVuSans-6f"/>
      <use x="481.787109" xlink:href="#DejaVuSans-6d"/>
      <use x="579.199219" xlink:href="#DejaVuSans-6d"/>
      <use x="676.611328" xlink:href="#DejaVuSans-75"/>
      <use x="739.990234" xlink:href="#DejaVuSans-6e"/>
      <use x="803.369141" xlink:href="#DejaVuSans-69"/>
      <use x="831.152344" xlink:href="#DejaVuSans-63"/>
      <use x="886.132812" xlink:href="#DejaVuSans-61"/>
      <use x="947.412109" xlink:href="#DejaVuSans-74"/>
      <use x="986.621094" xlink:href="#DejaVuSans-69"/>
      <use x="1014.404297" xlink:href="#DejaVuSans-6f"/>
      <use x="1075.585938" xlink:href="#DejaVuSans-6e"/>
      <use x="1138.964844" xlink:href="#DejaVuSans-20"/>
      <use x="1170.751953" xlink:href="#DejaVuSans-52"/>
      <use x="1235.734375" xlink:href="#DejaVuSans-6f"/>
      <use x="1296.916016" xlink:href="#DejaVuSans-75"/>
      <use x="1360.294922" xlink:href="#DejaVuSans-6e"/>
      <use x="1423.673828" xlink:href="#DejaVuSans-64"/>
      <use x="1487.150391" xlink:href="#DejaVuSans-73"/>
     </g>
    </g>
   </g>
   <g id="matplotlib.axis_2">
    <g id="ytick_1">
     <g id="line2d_7">
      <defs>
       <path d="M 0 0 
L -3.5 0 
" id="mb7ed684103" style="stroke:#000000;stroke-width:0.8;"/>
      </defs>
      <g>
       <use style="stroke:#000000;stroke-width:0.8;" x="50.87" xlink:href="#mb7ed684103" y="273.214368"/>
      </g>
     </g>
     <g id="text_8">
      <!-- 94 -->
      <g transform="translate(31.145 277.013587)scale(0.1 -0.1)">
       <defs>
        <path d="M 703 97 
L 703 672 
Q 941 559 1184 500 
Q 1428 441 1663 441 
Q 2288 441 2617 861 
Q 2947 1281 2994 2138 
Q 2813 1869 2534 1725 
Q 2256 1581 1919 1581 
Q 1219 1581 811 2004 
Q 403 2428 403 3163 
Q 403 3881 828 4315 
Q 1253 4750 1959 4750 
Q 2769 4750 3195 4129 
Q 3622 3509 3622 2328 
Q 3622 1225 3098 567 
Q 2575 -91 1691 -91 
Q 1453 -91 1209 -44 
Q 966 3 703 97 
z
M 1959 2075 
Q 2384 2075 2632 2365 
Q 2881 2656 2881 3163 
Q 2881 3666 2632 3958 
Q 2384 4250 1959 4250 
Q 1534 4250 1286 3958 
Q 1038 3666 1038 3163 
Q 1038 2656 1286 2365 
Q 1534 2075 1959 2075 
z
" id="DejaVuSans-39" transform="scale(0.015625)"/>
       </defs>
       <use xlink:href="#DejaVuSans-39"/>
       <use x="63.623047" xlink:href="#DejaVuSans-34"/>
      </g>
     </g>
    </g>
    <g id="ytick_2">
     <g id="line2d_8">
      <g>
       <use style="stroke:#000000;stroke-width:0.8;" x="50.87" xlink:href="#mb7ed684103" y="235.910077"/>
      </g>
     </g>
     <g id="text_9">
      <!-- 95 -->
      <g transform="translate(31.145 239.709295)scale(0.1 -0.1)">
       <use xlink:href="#DejaVuSans-39"/>
       <use x="63.623047" xlink:href="#DejaVuSans-35"/>
      </g>
     </g>
    </g>
    <g id="ytick_3">
     <g id="line2d_9">
      <g>
       <use style="stroke:#000000;stroke-width:0.8;" x="50.87" xlink:href="#mb7ed684103" y="198.605785"/>
      </g>
     </g>
     <g id="text_10">
      <!-- 96 -->
      <g transform="translate(31.145 202.405004)scale(0.1 -0.1)">
       <defs>
        <path d="M 2113 2584 
Q 1688 2584 1439 2293 
Q 1191 2003 1191 1497 
Q 1191 994 1439 701 
Q 1688 409 2113 409 
Q 2538 409 2786 701 
Q 3034 994 3034 1497 
Q 3034 2003 2786 2293 
Q 2538 2584 2113 2584 
z
M 3366 4563 
L 3366 3988 
Q 3128 4100 2886 4159 
Q 2644 4219 2406 4219 
Q 1781 4219 1451 3797 
Q 1122 3375 1075 2522 
Q 1259 2794 1537 2939 
Q 1816 3084 2150 3084 
Q 2853 3084 3261 2657 
Q 3669 2231 3669 1497 
Q 3669 778 3244 343 
Q 2819 -91 2113 -91 
Q 1303 -91 875 529 
Q 447 1150 447 2328 
Q 447 3434 972 4092 
Q 1497 4750 2381 4750 
Q 2619 4750 2861 4703 
Q 3103 4656 3366 4563 
z
" id="DejaVuSans-36" transform="scale(0.015625)"/>
       </defs>
       <use xlink:href="#DejaVuSans-39"/>
       <use x="63.623047" xlink:href="#DejaVuSans-36"/>
      </g>
     </g>
    </g>
    <g id="ytick_4">
     <g id="line2d_10">
      <g>
       <use style="stroke:#000000;stroke-width:0.8;" x="50.87" xlink:href="#mb7ed684103" y="161.301494"/>
      </g>
     </g>
     <g id="text_11">
      <!-- 97 -->
      <g transform="translate(31.145 165.100713)scale(0.1 -0.1)">
       <defs>
        <path d="M 525 4666 
L 3525 4666 
L 3525 4397 
L 1831 0 
L 1172 0 
L 2766 4134 
L 525 4134 
L 525 4666 
z
" id="DejaVuSans-37" transform="scale(0.015625)"/>
       </defs>
       <use xlink:href="#DejaVuSans-39"/>
       <use x="63.623047" xlink:href="#DejaVuSans-37"/>
      </g>
     </g>
    </g>
    <g id="ytick_5">
     <g id="line2d_11">
      <g>
       <use style="stroke:#000000;stroke-width:0.8;" x="50.87" xlink:href="#mb7ed684103" y="123.997203"/>
      </g>
     </g>
     <g id="text_12">
      <!-- 98 -->
      <g transform="translate(31.145 127.796421)scale(0.1 -0.1)">
       <defs>
        <path d="M 2034 2216 
Q 1584 2216 1326 1975 
Q 1069 1734 1069 1313 
Q 1069 891 1326 650 
Q 1584 409 2034 409 
Q 2484 409 2743 651 
Q 3003 894 3003 1313 
Q 3003 1734 2745 1975 
Q 2488 2216 2034 2216 
z
M 1403 2484 
Q 997 2584 770 2862 
Q 544 3141 544 3541 
Q 544 4100 942 4425 
Q 1341 4750 2034 4750 
Q 2731 4750 3128 4425 
Q 3525 4100 3525 3541 
Q 3525 3141 3298 2862 
Q 3072 2584 2669 2484 
Q 3125 2378 3379 2068 
Q 3634 1759 3634 1313 
Q 3634 634 3220 271 
Q 2806 -91 2034 -91 
Q 1263 -91 848 271 
Q 434 634 434 1313 
Q 434 1759 690 2068 
Q 947 2378 1403 2484 
z
M 1172 3481 
Q 1172 3119 1398 2916 
Q 1625 2713 2034 2713 
Q 2441 2713 2670 2916 
Q 2900 3119 2900 3481 
Q 2900 3844 2670 4047 
Q 2441 4250 2034 4250 
Q 1625 4250 1398 4047 
Q 1172 3844 1172 3481 
z
" id="DejaVuSans-38" transform="scale(0.015625)"/>
       </defs>
       <use xlink:href="#DejaVuSans-39"/>
       <use x="63.623047" xlink:href="#DejaVuSans-38"/>
      </g>
     </g>
    </g>
    <g id="ytick_6">
     <g id="line2d_12">
      <g>
       <use style="stroke:#000000;stroke-width:0.8;" x="50.87" xlink:href="#mb7ed684103" y="86.692911"/>
      </g>
     </g>
     <g id="text_13">
      <!-- 99 -->
      <g transform="translate(31.145 90.49213)scale(0.1 -0.1)">
       <use xlink:href="#DejaVuSans-39"/>
       <use x="63.623047" xlink:href="#DejaVuSans-39"/>
      </g>
     </g>
    </g>
    <g id="ytick_7">
     <g id="line2d_13">
      <g>
       <use style="stroke:#000000;stroke-width:0.8;" x="50.87" xlink:href="#mb7ed684103" y="49.38862"/>
      </g>
     </g>
     <g id="text_14">
      <!-- 100 -->
      <g transform="translate(24.7825 53.187839)scale(0.1 -0.1)">
       <use xlink:href="#DejaVuSans-31"/>
       <use x="63.623047" xlink:href="#DejaVuSans-30"/>
       <use x="127.246094" xlink:href="#DejaVuSans-30"/>
      </g>
     </g>
    </g>
    <g id="text_15">
     <!-- Test Accuracy -->
     <g transform="translate(18.702813 210.2725)rotate(-90)scale(0.1 -0.1)">
      <defs>
       <path d="M -19 4666 
L 3928 4666 
L 3928 4134 
L 2272 4134 
L 2272 0 
L 1638 0 
L 1638 4134 
L -19 4134 
L -19 4666 
z
" id="DejaVuSans-54" transform="scale(0.015625)"/>
       <path d="M 3597 1894 
L 3597 1613 
L 953 1613 
Q 991 1019 1311 708 
Q 1631 397 2203 397 
Q 2534 397 2845 478 
Q 3156 559 3463 722 
L 3463 178 
Q 3153 47 2828 -22 
Q 2503 -91 2169 -91 
Q 1331 -91 842 396 
Q 353 884 353 1716 
Q 353 2575 817 3079 
Q 1281 3584 2069 3584 
Q 2775 3584 3186 3129 
Q 3597 2675 3597 1894 
z
M 3022 2063 
Q 3016 2534 2758 2815 
Q 2500 3097 2075 3097 
Q 1594 3097 1305 2825 
Q 1016 2553 972 2059 
L 3022 2063 
z
" id="DejaVuSans-65" transform="scale(0.015625)"/>
       <path d="M 2188 4044 
L 1331 1722 
L 3047 1722 
L 2188 4044 
z
M 1831 4666 
L 2547 4666 
L 4325 0 
L 3669 0 
L 3244 1197 
L 1141 1197 
L 716 0 
L 50 0 
L 1831 4666 
z
" id="DejaVuSans-41" transform="scale(0.015625)"/>
       <path d="M 2631 2963 
Q 2534 3019 2420 3045 
Q 2306 3072 2169 3072 
Q 1681 3072 1420 2755 
Q 1159 2438 1159 1844 
L 1159 0 
L 581 0 
L 581 3500 
L 1159 3500 
L 1159 2956 
Q 1341 3275 1631 3429 
Q 1922 3584 2338 3584 
Q 2397 3584 2469 3576 
Q 2541 3569 2628 3553 
L 2631 2963 
z
" id="DejaVuSans-72" transform="scale(0.015625)"/>
       <path d="M 2059 -325 
Q 1816 -950 1584 -1140 
Q 1353 -1331 966 -1331 
L 506 -1331 
L 506 -850 
L 844 -850 
Q 1081 -850 1212 -737 
Q 1344 -625 1503 -206 
L 1606 56 
L 191 3500 
L 800 3500 
L 1894 763 
L 2988 3500 
L 3597 3500 
L 2059 -325 
z
" id="DejaVuSans-79" transform="scale(0.015625)"/>
      </defs>
      <use xlink:href="#DejaVuSans-54"/>
      <use x="44.083984" xlink:href="#DejaVuSans-65"/>
      <use x="105.607422" xlink:href="#DejaVuSans-73"/>
      <use x="157.707031" xlink:href="#DejaVuSans-74"/>
      <use x="196.916016" xlink:href="#DejaVuSans-20"/>
      <use x="228.703125" xlink:href="#DejaVuSans-41"/>
      <use x="295.361328" xlink:href="#DejaVuSans-63"/>
      <use x="350.341797" xlink:href="#DejaVuSans-63"/>
      <use x="405.322266" xlink:href="#DejaVuSans-75"/>
      <use x="468.701172" xlink:href="#DejaVuSans-72"/>
      <use x="509.814453" xlink:href="#DejaVuSans-61"/>
      <use x="571.09375" xlink:href="#DejaVuSans-63"/>
      <use x="626.074219" xlink:href="#DejaVuSans-79"/>
     </g>
    </g>
   </g>
   <g id="line2d_14">
    <path clip-path="url(#p3dc958ff8c)" d="M 69.012273 209.938735 
L 76.417282 161.7737 
L 83.822291 145.718689 
L 91.227301 122.108378 
L 98.63231 114.553078 
L 106.037319 110.775429 
L 113.442328 98.498067 
L 120.847338 92.831592 
L 128.252347 89.998355 
L 135.657356 85.276293 
L 143.062365 80.554231 
L 150.467375 81.498643 
L 157.872384 77.720993 
L 165.277393 77.720993 
L 172.682403 74.887756 
L 180.087412 73.943344 
L 187.492421 72.998931 
L 194.89743 73.943344 
L 202.30244 75.832168 
L 209.707449 76.776581 
L 217.112458 75.832168 
L 224.517468 74.887756 
L 231.922477 74.887756 
L 239.327486 74.887756 
L 246.732495 74.887756 
L 254.137505 72.998931 
L 261.542514 72.054519 
L 268.947523 73.943344 
L 276.352532 72.054519 
L 283.757542 73.943344 
L 291.162551 73.943344 
L 298.56756 71.110106 
L 305.97257 71.110106 
L 313.377579 70.165694 
L 320.782588 69.221281 
L 328.187597 67.332457 
L 335.592607 66.388044 
L 342.997616 69.221281 
L 350.402625 67.332457 
L 357.807635 68.276869 
L 365.212644 68.276869 
L 372.617653 67.332457 
L 380.022662 69.221281 
L 387.427672 70.165694 
L 394.832681 72.054519 
L 402.23769 68.276869 
L 409.642699 71.110106 
L 417.047709 66.388044 
L 424.452718 70.165694 
L 431.857727 68.276869 
" style="fill:none;stroke:#1f77b4;stroke-linecap:square;stroke-width:1.5;"/>
   </g>
   <g id="line2d_15">
    <path clip-path="url(#p3dc958ff8c)" d="M 69.012273 239.21552 
L 76.417282 164.606938 
L 83.822291 150.440751 
L 91.227301 134.38574 
L 98.63231 125.886028 
L 106.037319 116.441903 
L 113.442328 108.886604 
L 120.847338 104.164542 
L 128.252347 97.553654 
L 135.657356 100.386892 
L 143.062365 93.776005 
L 150.467375 92.831592 
L 157.872384 88.10953 
L 165.277393 83.387468 
L 172.682403 88.10953 
L 180.087412 82.443055 
L 187.492421 82.443055 
L 194.89743 84.33188 
L 202.30244 81.498643 
L 209.707449 76.776581 
L 217.112458 76.776581 
L 224.517468 75.832168 
L 231.922477 79.609818 
L 239.327486 80.554231 
L 246.732495 80.554231 
L 254.137505 82.443055 
L 261.542514 79.609818 
L 268.947523 77.720993 
L 276.352532 77.720993 
L 283.757542 78.665406 
L 291.162551 78.665406 
L 298.56756 77.720993 
L 305.97257 79.609818 
L 313.377579 77.720993 
L 320.782588 81.498643 
L 328.187597 76.776581 
L 335.592607 76.776581 
L 342.997616 77.720993 
L 350.402625 77.720993 
L 357.807635 79.609818 
L 365.212644 77.720993 
L 372.617653 73.943344 
L 380.022662 75.832168 
L 387.427672 72.054519 
L 394.832681 75.832168 
L 402.23769 78.665406 
L 409.642699 76.776581 
L 417.047709 77.720993 
L 424.452718 74.887756 
L 431.857727 76.776581 
" style="fill:none;stroke:#ff7f0e;stroke-linecap:square;stroke-width:1.5;"/>
   </g>
   <g id="line2d_16">
    <path clip-path="url(#p3dc958ff8c)" d="M 69.012273 241.104345 
L 76.417282 166.495762 
L 83.822291 150.440751 
L 91.227301 140.052214 
L 98.63231 121.163965 
L 106.037319 105.108954 
L 113.442328 99.442479 
L 120.847338 96.609242 
L 128.252347 94.720417 
L 135.657356 85.276293 
L 143.062365 82.443055 
L 150.467375 84.33188 
L 157.872384 84.33188 
L 165.277393 84.33188 
L 172.682403 82.443055 
L 180.087412 80.554231 
L 187.492421 79.609818 
L 194.89743 80.554231 
L 202.30244 78.665406 
L 209.707449 76.776581 
L 217.112458 78.665406 
L 224.517468 78.665406 
L 231.922477 72.054519 
L 239.327486 72.998931 
L 246.732495 72.998931 
L 254.137505 74.887756 
L 261.542514 72.054519 
L 268.947523 72.054519 
L 276.352532 72.054519 
L 283.757542 72.998931 
L 291.162551 73.943344 
L 298.56756 71.110106 
L 305.97257 72.054519 
L 313.377579 72.054519 
L 320.782588 72.054519 
L 328.187597 72.054519 
L 335.592607 72.054519 
L 342.997616 72.054519 
L 350.402625 74.887756 
L 357.807635 72.998931 
L 365.212644 70.165694 
L 372.617653 72.054519 
L 380.022662 73.943344 
L 387.427672 72.998931 
L 394.832681 72.054519 
L 402.23769 72.998931 
L 409.642699 72.998931 
L 417.047709 73.943344 
L 424.452718 72.054519 
L 431.857727 71.110106 
" style="fill:none;stroke:#2ca02c;stroke-linecap:square;stroke-width:1.5;"/>
   </g>
   <g id="line2d_17">
    <path clip-path="url(#p3dc958ff8c)" d="M 69.012273 271.871413 
L 76.417282 194.800748 
L 83.822291 175.253299 
L 91.227301 161.52532 
L 98.63231 152.273856 
L 106.037319 145.559083 
L 113.442328 139.739614 
L 120.847338 135.039273 
L 128.252347 131.234235 
L 135.657356 128.473718 
L 143.062365 125.7132 
L 150.467375 124.14642 
L 157.872384 121.53512 
L 165.277393 118.923819 
L 172.682403 117.953908 
L 180.087412 117.058605 
L 187.492421 115.342607 
L 194.89743 115.491824 
L 202.30244 112.432872 
L 209.707449 111.462961 
L 217.112458 111.089918 
L 224.517468 109.523138 
L 231.922477 108.180183 
L 239.327486 107.80714 
L 246.732495 107.657923 
L 254.137505 106.538794 
L 261.542514 106.314969 
L 268.947523 105.643491 
L 276.352532 105.494274 
L 283.757542 105.419666 
L 291.162551 104.300537 
L 298.56756 104.076711 
L 305.97257 104.002103 
L 313.377579 103.405234 
L 320.782588 103.256017 
L 328.187597 102.957582 
L 335.592607 102.360714 
L 342.997616 101.763845 
L 350.402625 102.808365 
L 357.807635 101.987671 
L 365.212644 102.062279 
L 372.617653 101.092368 
L 380.022662 101.689237 
L 387.427672 102.211497 
L 394.832681 101.763845 
L 402.23769 101.241585 
L 409.642699 101.241585 
L 417.047709 101.763845 
L 424.452718 100.793934 
L 431.857727 100.346282 
" style="fill:none;stroke:#d62728;stroke-linecap:square;stroke-width:1.5;"/>
   </g>
   <g id="patch_3">
    <path d="M 50.87 303.64 
L 50.87 48.38 
" style="fill:none;stroke:#000000;stroke-linecap:square;stroke-linejoin:miter;stroke-width:0.8;"/>
   </g>
   <g id="patch_4">
    <path d="M 450 303.64 
L 450 48.38 
" style="fill:none;stroke:#000000;stroke-linecap:square;stroke-linejoin:miter;stroke-width:0.8;"/>
   </g>
   <g id="patch_5">
    <path d="M 50.87 303.64 
L 450 303.64 
" style="fill:none;stroke:#000000;stroke-linecap:square;stroke-linejoin:miter;stroke-width:0.8;"/>
   </g>
   <g id="patch_6">
    <path d="M 50.87 48.38 
L 450 48.38 
" style="fill:none;stroke:#000000;stroke-linecap:square;stroke-linejoin:miter;stroke-width:0.8;"/>
   </g>
   <g id="text_16">
    <!-- Local Rounds 10 -->
    <g transform="translate(201.324062 20.88)scale(0.12 -0.12)">
     <defs>
      <path d="M 628 4666 
L 1259 4666 
L 1259 531 
L 3531 531 
L 3531 0 
L 628 0 
L 628 4666 
z
" id="DejaVuSans-4c" transform="scale(0.015625)"/>
     </defs>
     <use xlink:href="#DejaVuSans-4c"/>
     <use x="53.962891" xlink:href="#DejaVuSans-6f"/>
     <use x="115.144531" xlink:href="#DejaVuSans-63"/>
     <use x="170.125" xlink:href="#DejaVuSans-61"/>
     <use x="231.404297" xlink:href="#DejaVuSans-6c"/>
     <use x="259.1875" xlink:href="#DejaVuSans-20"/>
     <use x="290.974609" xlink:href="#DejaVuSans-52"/>
     <use x="355.957031" xlink:href="#DejaVuSans-6f"/>
     <use x="417.138672" xlink:href="#DejaVuSans-75"/>
     <use x="480.517578" xlink:href="#DejaVuSans-6e"/>
     <use x="543.896484" xlink:href="#DejaVuSans-64"/>
     <use x="607.373047" xlink:href="#DejaVuSans-73"/>
     <use x="659.472656" xlink:href="#DejaVuSans-20"/>
     <use x="691.259766" xlink:href="#DejaVuSans-31"/>
     <use x="754.882812" xlink:href="#DejaVuSans-30"/>
    </g>
   </g>
   <g id="legend_1">
    <g id="patch_7">
     <path d="M 84.036563 45.532125 
L 416.833438 45.532125 
Q 418.833438 45.532125 418.833438 43.532125 
L 418.833438 29.854 
Q 418.833438 27.854 416.833438 27.854 
L 84.036563 27.854 
Q 82.036563 27.854 82.036563 29.854 
L 82.036563 43.532125 
Q 82.036563 45.532125 84.036563 45.532125 
z
" style="fill:#ffffff;opacity:0.8;stroke:#cccccc;stroke-linejoin:miter;"/>
    </g>
    <g id="line2d_18">
     <path d="M 86.036563 35.952438 
L 106.036563 35.952438 
" style="fill:none;stroke:#1f77b4;stroke-linecap:square;stroke-width:1.5;"/>
    </g>
    <g id="line2d_19"/>
    <g id="text_17">
     <!-- FedAvg -->
     <g transform="translate(114.036563 39.452438)scale(0.1 -0.1)">
      <defs>
       <path d="M 628 4666 
L 3309 4666 
L 3309 4134 
L 1259 4134 
L 1259 2759 
L 3109 2759 
L 3109 2228 
L 1259 2228 
L 1259 0 
L 628 0 
L 628 4666 
z
" id="DejaVuSans-46" transform="scale(0.015625)"/>
       <path d="M 191 3500 
L 800 3500 
L 1894 563 
L 2988 3500 
L 3597 3500 
L 2284 0 
L 1503 0 
L 191 3500 
z
" id="DejaVuSans-76" transform="scale(0.015625)"/>
       <path d="M 2906 1791 
Q 2906 2416 2648 2759 
Q 2391 3103 1925 3103 
Q 1463 3103 1205 2759 
Q 947 2416 947 1791 
Q 947 1169 1205 825 
Q 1463 481 1925 481 
Q 2391 481 2648 825 
Q 2906 1169 2906 1791 
z
M 3481 434 
Q 3481 -459 3084 -895 
Q 2688 -1331 1869 -1331 
Q 1566 -1331 1297 -1286 
Q 1028 -1241 775 -1147 
L 775 -588 
Q 1028 -725 1275 -790 
Q 1522 -856 1778 -856 
Q 2344 -856 2625 -561 
Q 2906 -266 2906 331 
L 2906 616 
Q 2728 306 2450 153 
Q 2172 0 1784 0 
Q 1141 0 747 490 
Q 353 981 353 1791 
Q 353 2603 747 3093 
Q 1141 3584 1784 3584 
Q 2172 3584 2450 3431 
Q 2728 3278 2906 2969 
L 2906 3500 
L 3481 3500 
L 3481 434 
z
" id="DejaVuSans-67" transform="scale(0.015625)"/>
      </defs>
      <use xlink:href="#DejaVuSans-46"/>
      <use x="52.019531" xlink:href="#DejaVuSans-65"/>
      <use x="113.542969" xlink:href="#DejaVuSans-64"/>
      <use x="177.019531" xlink:href="#DejaVuSans-41"/>
      <use x="239.552734" xlink:href="#DejaVuSans-76"/>
      <use x="298.732422" xlink:href="#DejaVuSans-67"/>
     </g>
    </g>
    <g id="line2d_20">
     <path d="M 170.26 35.952438 
L 190.26 35.952438 
" style="fill:none;stroke:#ff7f0e;stroke-linecap:square;stroke-width:1.5;"/>
    </g>
    <g id="line2d_21"/>
    <g id="text_18">
     <!-- FedMed -->
     <g transform="translate(198.26 39.452438)scale(0.1 -0.1)">
      <defs>
       <path d="M 628 4666 
L 1569 4666 
L 2759 1491 
L 3956 4666 
L 4897 4666 
L 4897 0 
L 4281 0 
L 4281 4097 
L 3078 897 
L 2444 897 
L 1241 4097 
L 1241 0 
L 628 0 
L 628 4666 
z
" id="DejaVuSans-4d" transform="scale(0.015625)"/>
      </defs>
      <use xlink:href="#DejaVuSans-46"/>
      <use x="52.019531" xlink:href="#DejaVuSans-65"/>
      <use x="113.542969" xlink:href="#DejaVuSans-64"/>
      <use x="177.019531" xlink:href="#DejaVuSans-4d"/>
      <use x="263.298828" xlink:href="#DejaVuSans-65"/>
      <use x="324.822266" xlink:href="#DejaVuSans-64"/>
     </g>
    </g>
    <g id="line2d_22">
     <path d="M 257.092813 35.952438 
L 277.092813 35.952438 
" style="fill:none;stroke:#2ca02c;stroke-linecap:square;stroke-width:1.5;"/>
    </g>
    <g id="line2d_23"/>
    <g id="text_19">
     <!-- FedProx -->
     <g transform="translate(285.092813 39.452438)scale(0.1 -0.1)">
      <defs>
       <path d="M 1259 4147 
L 1259 2394 
L 2053 2394 
Q 2494 2394 2734 2622 
Q 2975 2850 2975 3272 
Q 2975 3691 2734 3919 
Q 2494 4147 2053 4147 
L 1259 4147 
z
M 628 4666 
L 2053 4666 
Q 2838 4666 3239 4311 
Q 3641 3956 3641 3272 
Q 3641 2581 3239 2228 
Q 2838 1875 2053 1875 
L 1259 1875 
L 1259 0 
L 628 0 
L 628 4666 
z
" id="DejaVuSans-50" transform="scale(0.015625)"/>
       <path d="M 3513 3500 
L 2247 1797 
L 3578 0 
L 2900 0 
L 1881 1375 
L 863 0 
L 184 0 
L 1544 1831 
L 300 3500 
L 978 3500 
L 1906 2253 
L 2834 3500 
L 3513 3500 
z
" id="DejaVuSans-78" transform="scale(0.015625)"/>
      </defs>
      <use xlink:href="#DejaVuSans-46"/>
      <use x="52.019531" xlink:href="#DejaVuSans-65"/>
      <use x="113.542969" xlink:href="#DejaVuSans-64"/>
      <use x="177.019531" xlink:href="#DejaVuSans-50"/>
      <use x="235.572266" xlink:href="#DejaVuSans-72"/>
      <use x="274.435547" xlink:href="#DejaVuSans-6f"/>
      <use x="332.492188" xlink:href="#DejaVuSans-78"/>
     </g>
    </g>
    <g id="line2d_24">
     <path d="M 344.261563 35.952438 
L 364.261563 35.952438 
" style="fill:none;stroke:#d62728;stroke-linecap:square;stroke-width:1.5;"/>
    </g>
    <g id="line2d_25"/>
    <g id="text_20">
     <!-- qFedAvg -->
     <g transform="translate(372.261563 39.452438)scale(0.1 -0.1)">
      <defs>
       <path d="M 947 1747 
Q 947 1113 1208 752 
Q 1469 391 1925 391 
Q 2381 391 2643 752 
Q 2906 1113 2906 1747 
Q 2906 2381 2643 2742 
Q 2381 3103 1925 3103 
Q 1469 3103 1208 2742 
Q 947 2381 947 1747 
z
M 2906 525 
Q 2725 213 2448 61 
Q 2172 -91 1784 -91 
Q 1150 -91 751 415 
Q 353 922 353 1747 
Q 353 2572 751 3078 
Q 1150 3584 1784 3584 
Q 2172 3584 2448 3432 
Q 2725 3281 2906 2969 
L 2906 3500 
L 3481 3500 
L 3481 -1331 
L 2906 -1331 
L 2906 525 
z
" id="DejaVuSans-71" transform="scale(0.015625)"/>
      </defs>
      <use xlink:href="#DejaVuSans-71"/>
      <use x="63.476562" xlink:href="#DejaVuSans-46"/>
      <use x="115.496094" xlink:href="#DejaVuSans-65"/>
      <use x="177.019531" xlink:href="#DejaVuSans-64"/>
      <use x="240.496094" xlink:href="#DejaVuSans-41"/>
      <use x="303.029297" xlink:href="#DejaVuSans-76"/>
      <use x="362.208984" xlink:href="#DejaVuSans-67"/>
     </g>
    </g>
   </g>
  </g>
 </g>
 <defs>
  <clipPath id="p3dc958ff8c">
   <rect height="255.26" width="399.13" x="50.87" y="48.38"/>
  </clipPath>
 </defs>
</svg>
