<?xml version="1.0" encoding="utf-8" standalone="no"?>
<!DOCTYPE svg PUBLIC "-//W3C//DTD SVG 1.1//EN"
  "http://www.w3.org/Graphics/SVG/1.1/DTD/svg11.dtd">
<svg height="432pt" version="1.1" viewBox="0 0 576 432" width="576pt" xmlns="http://www.w3.org/2000/svg" xmlns:xlink="http://www.w3.org/1999/xlink">
 <metadata>
  <rdf:RDF xmlns:cc="http://creativecommons.org/ns#" xmlns:dc="http://purl.org/dc/elements/1.1/" xmlns:rdf="http://www.w3.org/1999/02/22-rdf-syntax-ns#">
   <cc:Work>
    <dc:type rdf:resource="http://purl.org/dc/dcmitype/StillImage"/>
    <dc:date>2021-05-07T22:04:23.023089</dc:date>
    <dc:format>image/svg+xml</dc:format>
    <dc:creator>
     <cc:Agent>
      <dc:title>Matplotlib v3.4.1, https://matplotlib.org/</dc:title>
     </cc:Agent>
    </dc:creator>
   </cc:Work>
  </rdf:RDF>
 </metadata>
 <defs>
  <style type="text/css">*{stroke-linecap:butt;stroke-linejoin:round;}</style>
 </defs>
 <g id="figure_1">
  <g id="patch_1">
   <path d="M 0 432 
L 576 432 
L 576 0 
L 0 0 
z
" style="fill:#ffffff;"/>
  </g>
  <g id="axes_1">
   <g id="patch_2">
    <path d="M 70.22 376 
L 551.78 376 
L 551.78 56.601989 
L 70.22 56.601989 
z
" style="fill:#ffffff;"/>
   </g>
   <g id="PolyCollection_1">
    <path clip-path="url(#p5c7850d24d)" d="M 92.109091 155.155204 
L 92.109091 181.959111 
L 101.043414 133.676997 
L 109.977737 125.056745 
L 118.912059 115.111249 
L 127.846382 105.425 
L 136.780705 104.592469 
L 145.715028 100.38562 
L 154.649351 95.009018 
L 163.583673 94.362419 
L 172.517996 91.190139 
L 181.452319 90.550118 
L 190.386642 90.07476 
L 199.320965 86.179762 
L 208.255288 86.604822 
L 217.18961 84.13968 
L 226.123933 84.379179 
L 235.058256 85.697298 
L 243.992579 87.978342 
L 252.926902 85.329313 
L 261.861224 85.301628 
L 270.795547 85.199134 
L 279.72987 83.14799 
L 288.664193 83.717385 
L 297.598516 84.13968 
L 306.532839 86.564357 
L 315.467161 85.13137 
L 324.401484 83.62113 
L 333.335807 85.199134 
L 342.27013 83.62113 
L 351.204453 82.454656 
L 360.138776 81.885261 
L 369.073098 82.987306 
L 378.007421 81.885261 
L 386.941744 82.649222 
L 395.876067 80.243497 
L 404.81039 80.926793 
L 413.744712 79.584525 
L 422.679035 78.445736 
L 431.613358 78.649216 
L 440.547681 80.371645 
L 449.482004 77.140588 
L 458.416327 79.104708 
L 467.350649 77.140588 
L 476.284972 77.396525 
L 485.219295 78.445736 
L 494.153618 78.685235 
L 503.087941 81.230981 
L 512.022263 78.685235 
L 520.956586 80.003353 
L 529.890909 78.079821 
L 529.890909 72.273114 
L 529.890909 72.273114 
L 520.956586 73.765949 
L 512.022263 75.084068 
L 503.087941 73.67711 
L 494.153618 75.084068 
L 485.219295 74.184778 
L 476.284972 71.817622 
L 467.350649 74.351136 
L 458.416327 73.525805 
L 449.482004 74.351136 
L 440.547681 71.12008 
L 431.613358 72.842509 
L 422.679035 74.184778 
L 413.744712 75.323567 
L 404.81039 75.120087 
L 395.876067 74.664594 
L 386.941744 73.397658 
L 378.007421 74.161619 
L 369.073098 73.059574 
L 360.138776 74.161619 
L 351.204453 74.731013 
L 342.27013 76.980906 
L 333.335807 75.402902 
L 324.401484 76.980906 
L 315.467161 76.609454 
L 306.532839 77.454046 
L 297.598516 79.878722 
L 288.664193 79.162229 
L 279.72987 78.592835 
L 270.795547 75.402902 
L 261.861224 77.577986 
L 252.926902 78.68909 
L 243.992579 79.456427 
L 235.058256 79.459894 
L 226.123933 80.778012 
L 217.18961 79.878722 
L 208.255288 78.552369 
L 199.320965 78.977429 
L 190.386642 79.637587 
L 181.452319 81.439807 
L 172.517996 81.938574 
L 163.583673 83.321451 
L 154.649351 88.368795 
L 145.715028 89.824927 
L 136.780705 91.312022 
L 127.846382 96.173436 
L 118.912059 102.430232 
L 109.977737 115.260513 
L 101.043414 129.416039 
L 92.109091 155.155204 
z
" style="fill:#1f77b4;fill-opacity:0.5;"/>
   </g>
   <g id="PolyCollection_2">
    <path clip-path="url(#p5c7850d24d)" d="M 92.109091 169.79114 
L 92.109091 200.348053 
L 101.043414 140.713211 
L 109.977737 129.437271 
L 118.912059 121.530684 
L 127.846382 109.909529 
L 136.780705 107.953466 
L 145.715028 97.992711 
L 154.649351 98.295206 
L 163.583673 98.108043 
L 172.517996 91.688907 
L 181.452319 93.39709 
L 190.386642 92.14326 
L 199.320965 88.125441 
L 208.255288 87.133751 
L 217.18961 85.681505 
L 226.123933 87.226151 
L 235.058256 88.784414 
L 243.992579 88.176285 
L 252.926902 85.994962 
L 261.861224 84.286779 
L 270.795547 85.278469 
L 279.72987 84.13968 
L 288.664193 86.620738 
L 297.598516 85.994962 
L 306.532839 84.379179 
L 315.467161 87.190132 
L 324.401484 85.11211 
L 333.335807 87.133751 
L 342.27013 85.278469 
L 351.204453 86.193379 
L 360.138776 84.379179 
L 369.073098 85.697298 
L 378.007421 84.34316 
L 386.941744 84.798653 
L 395.876067 85.697298 
L 404.81039 84.798653 
L 413.744712 86.924926 
L 422.679035 86.620738 
L 431.613358 84.13968 
L 440.547681 84.798653 
L 449.482004 84.13968 
L 458.416327 85.301628 
L 467.350649 85.329313 
L 476.284972 84.856173 
L 485.219295 84.379179 
L 494.153618 84.379179 
L 503.087941 84.34316 
L 512.022263 84.379179 
L 520.956586 84.13968 
L 529.890909 83.717385 
L 529.890909 79.162229 
L 529.890909 79.162229 
L 520.956586 79.878722 
L 512.022263 80.778012 
L 503.087941 78.536453 
L 494.153618 80.778012 
L 485.219295 80.778012 
L 476.284972 78.02344 
L 467.350649 78.68909 
L 458.416327 77.577986 
L 449.482004 79.878722 
L 440.547681 79.21975 
L 431.613358 79.878722 
L 422.679035 80.814031 
L 413.744712 79.371055 
L 404.81039 79.21975 
L 395.876067 79.459894 
L 386.941744 79.21975 
L 378.007421 78.536453 
L 369.073098 79.459894 
L 360.138776 80.778012 
L 351.204453 77.825024 
L 342.27013 81.017511 
L 333.335807 80.301018 
L 324.401484 82.322659 
L 315.467161 81.383426 
L 306.532839 80.778012 
L 297.598516 81.439807 
L 288.664193 80.814031 
L 279.72987 79.878722 
L 270.795547 81.017511 
L 261.861224 82.009201 
L 252.926902 81.439807 
L 243.992579 81.536062 
L 235.058256 83.205511 
L 226.123933 83.624985 
L 217.18961 82.892053 
L 208.255288 84.856173 
L 199.320965 83.864483 
L 190.386642 80.985453 
L 181.452319 86.564357 
L 172.517996 89.411329 
L 163.583673 87.547349 
L 154.649351 88.498974 
L 145.715028 89.940258 
L 136.780705 92.506181 
L 127.846382 103.076796 
L 118.912059 107.398685 
L 109.977737 117.712721 
L 101.043414 134.906504 
L 92.109091 169.79114 
z
" style="fill:#ff7f0e;fill-opacity:0.5;"/>
   </g>
   <g id="PolyCollection_3">
    <path clip-path="url(#p5c7850d24d)" d="M 92.109091 156.656928 
L 92.109091 185.012543 
L 101.043414 143.393481 
L 109.977737 126.478349 
L 118.912059 119.362801 
L 127.846382 115.37704 
L 136.780705 112.355437 
L 145.715028 106.378121 
L 154.649351 104.662018 
L 163.583673 98.280124 
L 172.517996 95.009018 
L 181.452319 92.601262 
L 190.386642 91.759534 
L 199.320965 90.995572 
L 208.255288 90.893079 
L 217.18961 92.258301 
L 226.123933 91.759534 
L 235.058256 94.921404 
L 243.992579 94.060521 
L 252.926902 91.759534 
L 261.861224 92.601262 
L 270.795547 92.258301 
L 279.72987 93.509853 
L 288.664193 92.426631 
L 297.598516 92.414098 
L 306.532839 93.509853 
L 315.467161 92.601262 
L 324.401484 91.759534 
L 333.335807 91.190139 
L 342.27013 91.119512 
L 351.204453 91.917663 
L 360.138776 90.995572 
L 369.073098 91.190139 
L 378.007421 90.66288 
L 386.941744 90.893079 
L 395.876067 91.119512 
L 404.81039 90.893079 
L 413.744712 90.827318 
L 422.679035 90.827318 
L 431.613358 90.935643 
L 440.547681 90.357608 
L 449.482004 90.419345 
L 458.416327 91.119512 
L 467.350649 90.66288 
L 476.284972 91.119512 
L 485.219295 90.518387 
L 494.153618 90.419345 
L 503.087941 90.376657 
L 512.022263 90.518387 
L 520.956586 90.376657 
L 529.890909 90.376657 
L 529.890909 79.335689 
L 529.890909 79.335689 
L 520.956586 79.335689 
L 512.022263 80.332749 
L 503.087941 79.335689 
L 494.153618 78.154213 
L 485.219295 80.332749 
L 476.284972 79.731623 
L 467.350649 79.049467 
L 458.416327 79.731623 
L 449.482004 78.154213 
L 440.547681 77.077161 
L 431.613358 78.776704 
L 422.679035 80.023818 
L 413.744712 80.023818 
L 404.81039 81.096846 
L 395.876067 79.731623 
L 386.941744 81.096846 
L 378.007421 79.049467 
L 369.073098 81.938574 
L 360.138776 83.27193 
L 351.204453 78.933472 
L 342.27013 79.731623 
L 333.335807 81.938574 
L 324.401484 82.507969 
L 315.467161 82.805029 
L 306.532839 81.896439 
L 297.598516 81.853404 
L 288.664193 80.702082 
L 279.72987 81.896439 
L 270.795547 83.14799 
L 261.861224 82.805029 
L 252.926902 82.507969 
L 243.992579 83.623348 
L 235.058256 82.762466 
L 226.123933 82.507969 
L 217.18961 83.14799 
L 208.255288 81.096846 
L 199.320965 83.27193 
L 190.386642 82.507969 
L 181.452319 82.805029 
L 172.517996 88.368795 
L 163.583673 85.09769 
L 154.649351 88.964896 
L 145.715028 95.220315 
L 136.780705 100.630888 
L 127.846382 105.580807 
L 118.912059 109.566569 
L 109.977737 120.671643 
L 101.043414 128.809867 
L 92.109091 156.656928 
z
" style="fill:#2ca02c;fill-opacity:0.5;"/>
   </g>
   <g id="PolyCollection_4">
    <path clip-path="url(#p5c7850d24d)" d="M 92.109091 290.944831 
L 92.109091 361.481909 
L 101.043414 180.626239 
L 109.977737 154.10184 
L 118.912059 145.727949 
L 127.846382 139.190014 
L 136.780705 133.71133 
L 145.715028 131.710839 
L 154.649351 128.03225 
L 163.583673 125.961491 
L 172.517996 124.331629 
L 181.452319 122.288724 
L 190.386642 121.331554 
L 199.320965 119.101695 
L 208.255288 117.580665 
L 217.18961 116.712592 
L 226.123933 116.067013 
L 235.058256 115.036481 
L 243.992579 113.966816 
L 252.926902 113.28816 
L 261.861224 112.69126 
L 270.795547 112.230159 
L 279.72987 111.067239 
L 288.664193 110.62305 
L 297.598516 110.039634 
L 306.532839 108.921338 
L 315.467161 108.133705 
L 324.401484 108.453704 
L 333.335807 107.449852 
L 342.27013 106.730533 
L 351.204453 106.9892 
L 360.138776 106.244556 
L 369.073098 105.645325 
L 378.007421 105.296311 
L 386.941744 105.015485 
L 395.876067 105.025047 
L 404.81039 104.914108 
L 413.744712 104.458402 
L 422.679035 104.036601 
L 431.613358 103.635488 
L 440.547681 103.93605 
L 449.482004 103.128982 
L 458.416327 103.128437 
L 467.350649 102.715748 
L 476.284972 102.310192 
L 485.219295 102.075878 
L 494.153618 101.56433 
L 503.087941 101.672875 
L 512.022263 102.080697 
L 520.956586 101.59754 
L 529.890909 101.237852 
L 529.890909 98.488415 
L 529.890909 98.488415 
L 520.956586 98.668513 
L 512.022263 98.905071 
L 503.087941 98.953035 
L 494.153618 99.331474 
L 485.219295 99.719568 
L 476.284972 99.485255 
L 467.350649 99.349591 
L 458.416327 99.29676 
L 449.482004 99.746036 
L 440.547681 100.198469 
L 431.613358 100.678959 
L 422.679035 101.17749 
L 413.744712 101.025582 
L 404.81039 101.469519 
L 395.876067 100.818794 
L 386.941744 101.008284 
L 378.007421 101.537137 
L 369.073098 101.817874 
L 360.138776 102.568107 
L 351.204453 102.363249 
L 342.27013 103.071738 
L 333.335807 104.151706 
L 324.401484 104.497319 
L 315.467161 105.177175 
L 306.532839 105.289185 
L 297.598516 105.610318 
L 288.664193 106.64626 
L 279.72987 107.6415 
L 270.795547 108.277867 
L 261.861224 108.986302 
L 252.926902 109.289046 
L 243.992579 109.689961 
L 235.058256 111.499155 
L 226.123933 112.71773 
L 217.18961 113.511581 
L 208.255288 114.98258 
L 199.320965 115.890586 
L 190.386642 117.079372 
L 181.452319 118.461274 
L 172.517996 119.837013 
L 163.583673 121.535831 
L 154.649351 123.693395 
L 145.715028 125.682558 
L 136.780705 128.540142 
L 127.846382 132.68764 
L 118.912059 139.194532 
L 109.977737 149.353291 
L 101.043414 171.859448 
L 92.109091 290.944831 
z
" style="fill:#d62728;fill-opacity:0.5;"/>
   </g>
   <g id="matplotlib.axis_1">
    <g id="xtick_1">
     <g id="line2d_1">
      <defs>
       <path d="M 0 0 
L 0 3.5 
" id="mfc311d0958" style="stroke:#000000;stroke-width:0.8;"/>
      </defs>
      <g>
       <use style="stroke:#000000;stroke-width:0.8;" x="92.109091" xlink:href="#mfc311d0958" y="376"/>
      </g>
     </g>
     <g id="text_1">
      <!-- 0 -->
      <g transform="translate(87.337216 394.397656)scale(0.15 -0.15)">
       <defs>
        <path d="M 2034 4250 
Q 1547 4250 1301 3770 
Q 1056 3291 1056 2328 
Q 1056 1369 1301 889 
Q 1547 409 2034 409 
Q 2525 409 2770 889 
Q 3016 1369 3016 2328 
Q 3016 3291 2770 3770 
Q 2525 4250 2034 4250 
z
M 2034 4750 
Q 2819 4750 3233 4129 
Q 3647 3509 3647 2328 
Q 3647 1150 3233 529 
Q 2819 -91 2034 -91 
Q 1250 -91 836 529 
Q 422 1150 422 2328 
Q 422 3509 836 4129 
Q 1250 4750 2034 4750 
z
" id="DejaVuSans-30" transform="scale(0.015625)"/>
       </defs>
       <use xlink:href="#DejaVuSans-30"/>
      </g>
     </g>
    </g>
    <g id="xtick_2">
     <g id="line2d_2">
      <g>
       <use style="stroke:#000000;stroke-width:0.8;" x="181.452319" xlink:href="#mfc311d0958" y="376"/>
      </g>
     </g>
     <g id="text_2">
      <!-- 10 -->
      <g transform="translate(171.908569 394.397656)scale(0.15 -0.15)">
       <defs>
        <path d="M 794 531 
L 1825 531 
L 1825 4091 
L 703 3866 
L 703 4441 
L 1819 4666 
L 2450 4666 
L 2450 531 
L 3481 531 
L 3481 0 
L 794 0 
L 794 531 
z
" id="DejaVuSans-31" transform="scale(0.015625)"/>
       </defs>
       <use xlink:href="#DejaVuSans-31"/>
       <use x="63.623047" xlink:href="#DejaVuSans-30"/>
      </g>
     </g>
    </g>
    <g id="xtick_3">
     <g id="line2d_3">
      <g>
       <use style="stroke:#000000;stroke-width:0.8;" x="270.795547" xlink:href="#mfc311d0958" y="376"/>
      </g>
     </g>
     <g id="text_3">
      <!-- 20 -->
      <g transform="translate(261.251797 394.397656)scale(0.15 -0.15)">
       <defs>
        <path d="M 1228 531 
L 3431 531 
L 3431 0 
L 469 0 
L 469 531 
Q 828 903 1448 1529 
Q 2069 2156 2228 2338 
Q 2531 2678 2651 2914 
Q 2772 3150 2772 3378 
Q 2772 3750 2511 3984 
Q 2250 4219 1831 4219 
Q 1534 4219 1204 4116 
Q 875 4013 500 3803 
L 500 4441 
Q 881 4594 1212 4672 
Q 1544 4750 1819 4750 
Q 2544 4750 2975 4387 
Q 3406 4025 3406 3419 
Q 3406 3131 3298 2873 
Q 3191 2616 2906 2266 
Q 2828 2175 2409 1742 
Q 1991 1309 1228 531 
z
" id="DejaVuSans-32" transform="scale(0.015625)"/>
       </defs>
       <use xlink:href="#DejaVuSans-32"/>
       <use x="63.623047" xlink:href="#DejaVuSans-30"/>
      </g>
     </g>
    </g>
    <g id="xtick_4">
     <g id="line2d_4">
      <g>
       <use style="stroke:#000000;stroke-width:0.8;" x="360.138776" xlink:href="#mfc311d0958" y="376"/>
      </g>
     </g>
     <g id="text_4">
      <!-- 30 -->
      <g transform="translate(350.595026 394.397656)scale(0.15 -0.15)">
       <defs>
        <path d="M 2597 2516 
Q 3050 2419 3304 2112 
Q 3559 1806 3559 1356 
Q 3559 666 3084 287 
Q 2609 -91 1734 -91 
Q 1441 -91 1130 -33 
Q 819 25 488 141 
L 488 750 
Q 750 597 1062 519 
Q 1375 441 1716 441 
Q 2309 441 2620 675 
Q 2931 909 2931 1356 
Q 2931 1769 2642 2001 
Q 2353 2234 1838 2234 
L 1294 2234 
L 1294 2753 
L 1863 2753 
Q 2328 2753 2575 2939 
Q 2822 3125 2822 3475 
Q 2822 3834 2567 4026 
Q 2313 4219 1838 4219 
Q 1578 4219 1281 4162 
Q 984 4106 628 3988 
L 628 4550 
Q 988 4650 1302 4700 
Q 1616 4750 1894 4750 
Q 2613 4750 3031 4423 
Q 3450 4097 3450 3541 
Q 3450 3153 3228 2886 
Q 3006 2619 2597 2516 
z
" id="DejaVuSans-33" transform="scale(0.015625)"/>
       </defs>
       <use xlink:href="#DejaVuSans-33"/>
       <use x="63.623047" xlink:href="#DejaVuSans-30"/>
      </g>
     </g>
    </g>
    <g id="xtick_5">
     <g id="line2d_5">
      <g>
       <use style="stroke:#000000;stroke-width:0.8;" x="449.482004" xlink:href="#mfc311d0958" y="376"/>
      </g>
     </g>
     <g id="text_5">
      <!-- 40 -->
      <g transform="translate(439.938254 394.397656)scale(0.15 -0.15)">
       <defs>
        <path d="M 2419 4116 
L 825 1625 
L 2419 1625 
L 2419 4116 
z
M 2253 4666 
L 3047 4666 
L 3047 1625 
L 3713 1625 
L 3713 1100 
L 3047 1100 
L 3047 0 
L 2419 0 
L 2419 1100 
L 313 1100 
L 313 1709 
L 2253 4666 
z
" id="DejaVuSans-34" transform="scale(0.015625)"/>
       </defs>
       <use xlink:href="#DejaVuSans-34"/>
       <use x="63.623047" xlink:href="#DejaVuSans-30"/>
      </g>
     </g>
    </g>
    <g id="xtick_6">
     <g id="line2d_6">
      <g>
       <use style="stroke:#000000;stroke-width:0.8;" x="538.825232" xlink:href="#mfc311d0958" y="376"/>
      </g>
     </g>
     <g id="text_6">
      <!-- 50 -->
      <g transform="translate(529.281482 394.397656)scale(0.15 -0.15)">
       <defs>
        <path d="M 691 4666 
L 3169 4666 
L 3169 4134 
L 1269 4134 
L 1269 2991 
Q 1406 3038 1543 3061 
Q 1681 3084 1819 3084 
Q 2600 3084 3056 2656 
Q 3513 2228 3513 1497 
Q 3513 744 3044 326 
Q 2575 -91 1722 -91 
Q 1428 -91 1123 -41 
Q 819 9 494 109 
L 494 744 
Q 775 591 1075 516 
Q 1375 441 1709 441 
Q 2250 441 2565 725 
Q 2881 1009 2881 1497 
Q 2881 1984 2565 2268 
Q 2250 2553 1709 2553 
Q 1456 2553 1204 2497 
Q 953 2441 691 2322 
L 691 4666 
z
" id="DejaVuSans-35" transform="scale(0.015625)"/>
       </defs>
       <use xlink:href="#DejaVuSans-35"/>
       <use x="63.623047" xlink:href="#DejaVuSans-30"/>
      </g>
     </g>
    </g>
    <g id="text_7">
     <!-- Global Communication Rounds -->
     <g transform="translate(195.557422 412.914844)scale(0.15 -0.15)">
      <defs>
       <path d="M 3809 666 
L 3809 1919 
L 2778 1919 
L 2778 2438 
L 4434 2438 
L 4434 434 
Q 4069 175 3628 42 
Q 3188 -91 2688 -91 
Q 1594 -91 976 548 
Q 359 1188 359 2328 
Q 359 3472 976 4111 
Q 1594 4750 2688 4750 
Q 3144 4750 3555 4637 
Q 3966 4525 4313 4306 
L 4313 3634 
Q 3963 3931 3569 4081 
Q 3175 4231 2741 4231 
Q 1884 4231 1454 3753 
Q 1025 3275 1025 2328 
Q 1025 1384 1454 906 
Q 1884 428 2741 428 
Q 3075 428 3337 486 
Q 3600 544 3809 666 
z
" id="DejaVuSans-47" transform="scale(0.015625)"/>
       <path d="M 603 4863 
L 1178 4863 
L 1178 0 
L 603 0 
L 603 4863 
z
" id="DejaVuSans-6c" transform="scale(0.015625)"/>
       <path d="M 1959 3097 
Q 1497 3097 1228 2736 
Q 959 2375 959 1747 
Q 959 1119 1226 758 
Q 1494 397 1959 397 
Q 2419 397 2687 759 
Q 2956 1122 2956 1747 
Q 2956 2369 2687 2733 
Q 2419 3097 1959 3097 
z
M 1959 3584 
Q 2709 3584 3137 3096 
Q 3566 2609 3566 1747 
Q 3566 888 3137 398 
Q 2709 -91 1959 -91 
Q 1206 -91 779 398 
Q 353 888 353 1747 
Q 353 2609 779 3096 
Q 1206 3584 1959 3584 
z
" id="DejaVuSans-6f" transform="scale(0.015625)"/>
       <path d="M 3116 1747 
Q 3116 2381 2855 2742 
Q 2594 3103 2138 3103 
Q 1681 3103 1420 2742 
Q 1159 2381 1159 1747 
Q 1159 1113 1420 752 
Q 1681 391 2138 391 
Q 2594 391 2855 752 
Q 3116 1113 3116 1747 
z
M 1159 2969 
Q 1341 3281 1617 3432 
Q 1894 3584 2278 3584 
Q 2916 3584 3314 3078 
Q 3713 2572 3713 1747 
Q 3713 922 3314 415 
Q 2916 -91 2278 -91 
Q 1894 -91 1617 61 
Q 1341 213 1159 525 
L 1159 0 
L 581 0 
L 581 4863 
L 1159 4863 
L 1159 2969 
z
" id="DejaVuSans-62" transform="scale(0.015625)"/>
       <path d="M 2194 1759 
Q 1497 1759 1228 1600 
Q 959 1441 959 1056 
Q 959 750 1161 570 
Q 1363 391 1709 391 
Q 2188 391 2477 730 
Q 2766 1069 2766 1631 
L 2766 1759 
L 2194 1759 
z
M 3341 1997 
L 3341 0 
L 2766 0 
L 2766 531 
Q 2569 213 2275 61 
Q 1981 -91 1556 -91 
Q 1019 -91 701 211 
Q 384 513 384 1019 
Q 384 1609 779 1909 
Q 1175 2209 1959 2209 
L 2766 2209 
L 2766 2266 
Q 2766 2663 2505 2880 
Q 2244 3097 1772 3097 
Q 1472 3097 1187 3025 
Q 903 2953 641 2809 
L 641 3341 
Q 956 3463 1253 3523 
Q 1550 3584 1831 3584 
Q 2591 3584 2966 3190 
Q 3341 2797 3341 1997 
z
" id="DejaVuSans-61" transform="scale(0.015625)"/>
       <path id="DejaVuSans-20" transform="scale(0.015625)"/>
       <path d="M 4122 4306 
L 4122 3641 
Q 3803 3938 3442 4084 
Q 3081 4231 2675 4231 
Q 1875 4231 1450 3742 
Q 1025 3253 1025 2328 
Q 1025 1406 1450 917 
Q 1875 428 2675 428 
Q 3081 428 3442 575 
Q 3803 722 4122 1019 
L 4122 359 
Q 3791 134 3420 21 
Q 3050 -91 2638 -91 
Q 1578 -91 968 557 
Q 359 1206 359 2328 
Q 359 3453 968 4101 
Q 1578 4750 2638 4750 
Q 3056 4750 3426 4639 
Q 3797 4528 4122 4306 
z
" id="DejaVuSans-43" transform="scale(0.015625)"/>
       <path d="M 3328 2828 
Q 3544 3216 3844 3400 
Q 4144 3584 4550 3584 
Q 5097 3584 5394 3201 
Q 5691 2819 5691 2113 
L 5691 0 
L 5113 0 
L 5113 2094 
Q 5113 2597 4934 2840 
Q 4756 3084 4391 3084 
Q 3944 3084 3684 2787 
Q 3425 2491 3425 1978 
L 3425 0 
L 2847 0 
L 2847 2094 
Q 2847 2600 2669 2842 
Q 2491 3084 2119 3084 
Q 1678 3084 1418 2786 
Q 1159 2488 1159 1978 
L 1159 0 
L 581 0 
L 581 3500 
L 1159 3500 
L 1159 2956 
Q 1356 3278 1631 3431 
Q 1906 3584 2284 3584 
Q 2666 3584 2933 3390 
Q 3200 3197 3328 2828 
z
" id="DejaVuSans-6d" transform="scale(0.015625)"/>
       <path d="M 544 1381 
L 544 3500 
L 1119 3500 
L 1119 1403 
Q 1119 906 1312 657 
Q 1506 409 1894 409 
Q 2359 409 2629 706 
Q 2900 1003 2900 1516 
L 2900 3500 
L 3475 3500 
L 3475 0 
L 2900 0 
L 2900 538 
Q 2691 219 2414 64 
Q 2138 -91 1772 -91 
Q 1169 -91 856 284 
Q 544 659 544 1381 
z
M 1991 3584 
L 1991 3584 
z
" id="DejaVuSans-75" transform="scale(0.015625)"/>
       <path d="M 3513 2113 
L 3513 0 
L 2938 0 
L 2938 2094 
Q 2938 2591 2744 2837 
Q 2550 3084 2163 3084 
Q 1697 3084 1428 2787 
Q 1159 2491 1159 1978 
L 1159 0 
L 581 0 
L 581 3500 
L 1159 3500 
L 1159 2956 
Q 1366 3272 1645 3428 
Q 1925 3584 2291 3584 
Q 2894 3584 3203 3211 
Q 3513 2838 3513 2113 
z
" id="DejaVuSans-6e" transform="scale(0.015625)"/>
       <path d="M 603 3500 
L 1178 3500 
L 1178 0 
L 603 0 
L 603 3500 
z
M 603 4863 
L 1178 4863 
L 1178 4134 
L 603 4134 
L 603 4863 
z
" id="DejaVuSans-69" transform="scale(0.015625)"/>
       <path d="M 3122 3366 
L 3122 2828 
Q 2878 2963 2633 3030 
Q 2388 3097 2138 3097 
Q 1578 3097 1268 2742 
Q 959 2388 959 1747 
Q 959 1106 1268 751 
Q 1578 397 2138 397 
Q 2388 397 2633 464 
Q 2878 531 3122 666 
L 3122 134 
Q 2881 22 2623 -34 
Q 2366 -91 2075 -91 
Q 1284 -91 818 406 
Q 353 903 353 1747 
Q 353 2603 823 3093 
Q 1294 3584 2113 3584 
Q 2378 3584 2631 3529 
Q 2884 3475 3122 3366 
z
" id="DejaVuSans-63" transform="scale(0.015625)"/>
       <path d="M 1172 4494 
L 1172 3500 
L 2356 3500 
L 2356 3053 
L 1172 3053 
L 1172 1153 
Q 1172 725 1289 603 
Q 1406 481 1766 481 
L 2356 481 
L 2356 0 
L 1766 0 
Q 1100 0 847 248 
Q 594 497 594 1153 
L 594 3053 
L 172 3053 
L 172 3500 
L 594 3500 
L 594 4494 
L 1172 4494 
z
" id="DejaVuSans-74" transform="scale(0.015625)"/>
       <path d="M 2841 2188 
Q 3044 2119 3236 1894 
Q 3428 1669 3622 1275 
L 4263 0 
L 3584 0 
L 2988 1197 
Q 2756 1666 2539 1819 
Q 2322 1972 1947 1972 
L 1259 1972 
L 1259 0 
L 628 0 
L 628 4666 
L 2053 4666 
Q 2853 4666 3247 4331 
Q 3641 3997 3641 3322 
Q 3641 2881 3436 2590 
Q 3231 2300 2841 2188 
z
M 1259 4147 
L 1259 2491 
L 2053 2491 
Q 2509 2491 2742 2702 
Q 2975 2913 2975 3322 
Q 2975 3731 2742 3939 
Q 2509 4147 2053 4147 
L 1259 4147 
z
" id="DejaVuSans-52" transform="scale(0.015625)"/>
       <path d="M 2906 2969 
L 2906 4863 
L 3481 4863 
L 3481 0 
L 2906 0 
L 2906 525 
Q 2725 213 2448 61 
Q 2172 -91 1784 -91 
Q 1150 -91 751 415 
Q 353 922 353 1747 
Q 353 2572 751 3078 
Q 1150 3584 1784 3584 
Q 2172 3584 2448 3432 
Q 2725 3281 2906 2969 
z
M 947 1747 
Q 947 1113 1208 752 
Q 1469 391 1925 391 
Q 2381 391 2643 752 
Q 2906 1113 2906 1747 
Q 2906 2381 2643 2742 
Q 2381 3103 1925 3103 
Q 1469 3103 1208 2742 
Q 947 2381 947 1747 
z
" id="DejaVuSans-64" transform="scale(0.015625)"/>
       <path d="M 2834 3397 
L 2834 2853 
Q 2591 2978 2328 3040 
Q 2066 3103 1784 3103 
Q 1356 3103 1142 2972 
Q 928 2841 928 2578 
Q 928 2378 1081 2264 
Q 1234 2150 1697 2047 
L 1894 2003 
Q 2506 1872 2764 1633 
Q 3022 1394 3022 966 
Q 3022 478 2636 193 
Q 2250 -91 1575 -91 
Q 1294 -91 989 -36 
Q 684 19 347 128 
L 347 722 
Q 666 556 975 473 
Q 1284 391 1588 391 
Q 1994 391 2212 530 
Q 2431 669 2431 922 
Q 2431 1156 2273 1281 
Q 2116 1406 1581 1522 
L 1381 1569 
Q 847 1681 609 1914 
Q 372 2147 372 2553 
Q 372 3047 722 3315 
Q 1072 3584 1716 3584 
Q 2034 3584 2315 3537 
Q 2597 3491 2834 3397 
z
" id="DejaVuSans-73" transform="scale(0.015625)"/>
      </defs>
      <use xlink:href="#DejaVuSans-47"/>
      <use x="77.490234" xlink:href="#DejaVuSans-6c"/>
      <use x="105.273438" xlink:href="#DejaVuSans-6f"/>
      <use x="166.455078" xlink:href="#DejaVuSans-62"/>
      <use x="229.931641" xlink:href="#DejaVuSans-61"/>
      <use x="291.210938" xlink:href="#DejaVuSans-6c"/>
      <use x="318.994141" xlink:href="#DejaVuSans-20"/>
      <use x="350.78125" xlink:href="#DejaVuSans-43"/>
      <use x="420.605469" xlink:href="#DejaVuSans-6f"/>
      <use x="481.787109" xlink:href="#DejaVuSans-6d"/>
      <use x="579.199219" xlink:href="#DejaVuSans-6d"/>
      <use x="676.611328" xlink:href="#DejaVuSans-75"/>
      <use x="739.990234" xlink:href="#DejaVuSans-6e"/>
      <use x="803.369141" xlink:href="#DejaVuSans-69"/>
      <use x="831.152344" xlink:href="#DejaVuSans-63"/>
      <use x="886.132812" xlink:href="#DejaVuSans-61"/>
      <use x="947.412109" xlink:href="#DejaVuSans-74"/>
      <use x="986.621094" xlink:href="#DejaVuSans-69"/>
      <use x="1014.404297" xlink:href="#DejaVuSans-6f"/>
      <use x="1075.585938" xlink:href="#DejaVuSans-6e"/>
      <use x="1138.964844" xlink:href="#DejaVuSans-20"/>
      <use x="1170.751953" xlink:href="#DejaVuSans-52"/>
      <use x="1235.734375" xlink:href="#DejaVuSans-6f"/>
      <use x="1296.916016" xlink:href="#DejaVuSans-75"/>
      <use x="1360.294922" xlink:href="#DejaVuSans-6e"/>
      <use x="1423.673828" xlink:href="#DejaVuSans-64"/>
      <use x="1487.150391" xlink:href="#DejaVuSans-73"/>
     </g>
    </g>
   </g>
   <g id="matplotlib.axis_2">
    <g id="ytick_1">
     <g id="line2d_7">
      <defs>
       <path d="M 0 0 
L -3.5 0 
" id="m1cf5cc94f1" style="stroke:#000000;stroke-width:0.8;"/>
      </defs>
      <g>
       <use style="stroke:#000000;stroke-width:0.8;" x="70.22" xlink:href="#m1cf5cc94f1" y="335.389731"/>
      </g>
     </g>
     <g id="text_8">
      <!-- 88 -->
      <g transform="translate(44.1325 341.088559)scale(0.15 -0.15)">
       <defs>
        <path d="M 2034 2216 
Q 1584 2216 1326 1975 
Q 1069 1734 1069 1313 
Q 1069 891 1326 650 
Q 1584 409 2034 409 
Q 2484 409 2743 651 
Q 3003 894 3003 1313 
Q 3003 1734 2745 1975 
Q 2488 2216 2034 2216 
z
M 1403 2484 
Q 997 2584 770 2862 
Q 544 3141 544 3541 
Q 544 4100 942 4425 
Q 1341 4750 2034 4750 
Q 2731 4750 3128 4425 
Q 3525 4100 3525 3541 
Q 3525 3141 3298 2862 
Q 3072 2584 2669 2484 
Q 3125 2378 3379 2068 
Q 3634 1759 3634 1313 
Q 3634 634 3220 271 
Q 2806 -91 2034 -91 
Q 1263 -91 848 271 
Q 434 634 434 1313 
Q 434 1759 690 2068 
Q 947 2378 1403 2484 
z
M 1172 3481 
Q 1172 3119 1398 2916 
Q 1625 2713 2034 2713 
Q 2441 2713 2670 2916 
Q 2900 3119 2900 3481 
Q 2900 3844 2670 4047 
Q 2441 4250 2034 4250 
Q 1625 4250 1398 4047 
Q 1172 3844 1172 3481 
z
" id="DejaVuSans-38" transform="scale(0.015625)"/>
       </defs>
       <use xlink:href="#DejaVuSans-38"/>
       <use x="63.623047" xlink:href="#DejaVuSans-38"/>
      </g>
     </g>
    </g>
    <g id="ytick_2">
     <g id="line2d_8">
      <g>
       <use style="stroke:#000000;stroke-width:0.8;" x="70.22" xlink:href="#m1cf5cc94f1" y="290.407569"/>
      </g>
     </g>
     <g id="text_9">
      <!-- 90 -->
      <g transform="translate(44.1325 296.106397)scale(0.15 -0.15)">
       <defs>
        <path d="M 703 97 
L 703 672 
Q 941 559 1184 500 
Q 1428 441 1663 441 
Q 2288 441 2617 861 
Q 2947 1281 2994 2138 
Q 2813 1869 2534 1725 
Q 2256 1581 1919 1581 
Q 1219 1581 811 2004 
Q 403 2428 403 3163 
Q 403 3881 828 4315 
Q 1253 4750 1959 4750 
Q 2769 4750 3195 4129 
Q 3622 3509 3622 2328 
Q 3622 1225 3098 567 
Q 2575 -91 1691 -91 
Q 1453 -91 1209 -44 
Q 966 3 703 97 
z
M 1959 2075 
Q 2384 2075 2632 2365 
Q 2881 2656 2881 3163 
Q 2881 3666 2632 3958 
Q 2384 4250 1959 4250 
Q 1534 4250 1286 3958 
Q 1038 3666 1038 3163 
Q 1038 2656 1286 2365 
Q 1534 2075 1959 2075 
z
" id="DejaVuSans-39" transform="scale(0.015625)"/>
       </defs>
       <use xlink:href="#DejaVuSans-39"/>
       <use x="63.623047" xlink:href="#DejaVuSans-30"/>
      </g>
     </g>
    </g>
    <g id="ytick_3">
     <g id="line2d_9">
      <g>
       <use style="stroke:#000000;stroke-width:0.8;" x="70.22" xlink:href="#m1cf5cc94f1" y="245.425408"/>
      </g>
     </g>
     <g id="text_10">
      <!-- 92 -->
      <g transform="translate(44.1325 251.124236)scale(0.15 -0.15)">
       <use xlink:href="#DejaVuSans-39"/>
       <use x="63.623047" xlink:href="#DejaVuSans-32"/>
      </g>
     </g>
    </g>
    <g id="ytick_4">
     <g id="line2d_10">
      <g>
       <use style="stroke:#000000;stroke-width:0.8;" x="70.22" xlink:href="#m1cf5cc94f1" y="200.443246"/>
      </g>
     </g>
     <g id="text_11">
      <!-- 94 -->
      <g transform="translate(44.1325 206.142075)scale(0.15 -0.15)">
       <use xlink:href="#DejaVuSans-39"/>
       <use x="63.623047" xlink:href="#DejaVuSans-34"/>
      </g>
     </g>
    </g>
    <g id="ytick_5">
     <g id="line2d_11">
      <g>
       <use style="stroke:#000000;stroke-width:0.8;" x="70.22" xlink:href="#m1cf5cc94f1" y="155.461085"/>
      </g>
     </g>
     <g id="text_12">
      <!-- 96 -->
      <g transform="translate(44.1325 161.159913)scale(0.15 -0.15)">
       <defs>
        <path d="M 2113 2584 
Q 1688 2584 1439 2293 
Q 1191 2003 1191 1497 
Q 1191 994 1439 701 
Q 1688 409 2113 409 
Q 2538 409 2786 701 
Q 3034 994 3034 1497 
Q 3034 2003 2786 2293 
Q 2538 2584 2113 2584 
z
M 3366 4563 
L 3366 3988 
Q 3128 4100 2886 4159 
Q 2644 4219 2406 4219 
Q 1781 4219 1451 3797 
Q 1122 3375 1075 2522 
Q 1259 2794 1537 2939 
Q 1816 3084 2150 3084 
Q 2853 3084 3261 2657 
Q 3669 2231 3669 1497 
Q 3669 778 3244 343 
Q 2819 -91 2113 -91 
Q 1303 -91 875 529 
Q 447 1150 447 2328 
Q 447 3434 972 4092 
Q 1497 4750 2381 4750 
Q 2619 4750 2861 4703 
Q 3103 4656 3366 4563 
z
" id="DejaVuSans-36" transform="scale(0.015625)"/>
       </defs>
       <use xlink:href="#DejaVuSans-39"/>
       <use x="63.623047" xlink:href="#DejaVuSans-36"/>
      </g>
     </g>
    </g>
    <g id="ytick_6">
     <g id="line2d_12">
      <g>
       <use style="stroke:#000000;stroke-width:0.8;" x="70.22" xlink:href="#m1cf5cc94f1" y="110.478924"/>
      </g>
     </g>
     <g id="text_13">
      <!-- 98 -->
      <g transform="translate(44.1325 116.177752)scale(0.15 -0.15)">
       <use xlink:href="#DejaVuSans-39"/>
       <use x="63.623047" xlink:href="#DejaVuSans-38"/>
      </g>
     </g>
    </g>
    <g id="ytick_7">
     <g id="line2d_13">
      <g>
       <use style="stroke:#000000;stroke-width:0.8;" x="70.22" xlink:href="#m1cf5cc94f1" y="65.496762"/>
      </g>
     </g>
     <g id="text_14">
      <!-- 100 -->
      <g transform="translate(34.58875 71.19559)scale(0.15 -0.15)">
       <use xlink:href="#DejaVuSans-31"/>
       <use x="63.623047" xlink:href="#DejaVuSans-30"/>
       <use x="127.246094" xlink:href="#DejaVuSans-30"/>
      </g>
     </g>
    </g>
    <g id="text_15">
     <!-- Test Accuracy -->
     <g transform="translate(27.469219 267.694744)rotate(-90)scale(0.15 -0.15)">
      <defs>
       <path d="M -19 4666 
L 3928 4666 
L 3928 4134 
L 2272 4134 
L 2272 0 
L 1638 0 
L 1638 4134 
L -19 4134 
L -19 4666 
z
" id="DejaVuSans-54" transform="scale(0.015625)"/>
       <path d="M 3597 1894 
L 3597 1613 
L 953 1613 
Q 991 1019 1311 708 
Q 1631 397 2203 397 
Q 2534 397 2845 478 
Q 3156 559 3463 722 
L 3463 178 
Q 3153 47 2828 -22 
Q 2503 -91 2169 -91 
Q 1331 -91 842 396 
Q 353 884 353 1716 
Q 353 2575 817 3079 
Q 1281 3584 2069 3584 
Q 2775 3584 3186 3129 
Q 3597 2675 3597 1894 
z
M 3022 2063 
Q 3016 2534 2758 2815 
Q 2500 3097 2075 3097 
Q 1594 3097 1305 2825 
Q 1016 2553 972 2059 
L 3022 2063 
z
" id="DejaVuSans-65" transform="scale(0.015625)"/>
       <path d="M 2188 4044 
L 1331 1722 
L 3047 1722 
L 2188 4044 
z
M 1831 4666 
L 2547 4666 
L 4325 0 
L 3669 0 
L 3244 1197 
L 1141 1197 
L 716 0 
L 50 0 
L 1831 4666 
z
" id="DejaVuSans-41" transform="scale(0.015625)"/>
       <path d="M 2631 2963 
Q 2534 3019 2420 3045 
Q 2306 3072 2169 3072 
Q 1681 3072 1420 2755 
Q 1159 2438 1159 1844 
L 1159 0 
L 581 0 
L 581 3500 
L 1159 3500 
L 1159 2956 
Q 1341 3275 1631 3429 
Q 1922 3584 2338 3584 
Q 2397 3584 2469 3576 
Q 2541 3569 2628 3553 
L 2631 2963 
z
" id="DejaVuSans-72" transform="scale(0.015625)"/>
       <path d="M 2059 -325 
Q 1816 -950 1584 -1140 
Q 1353 -1331 966 -1331 
L 506 -1331 
L 506 -850 
L 844 -850 
Q 1081 -850 1212 -737 
Q 1344 -625 1503 -206 
L 1606 56 
L 191 3500 
L 800 3500 
L 1894 763 
L 2988 3500 
L 3597 3500 
L 2059 -325 
z
" id="DejaVuSans-79" transform="scale(0.015625)"/>
      </defs>
      <use xlink:href="#DejaVuSans-54"/>
      <use x="44.083984" xlink:href="#DejaVuSans-65"/>
      <use x="105.607422" xlink:href="#DejaVuSans-73"/>
      <use x="157.707031" xlink:href="#DejaVuSans-74"/>
      <use x="196.916016" xlink:href="#DejaVuSans-20"/>
      <use x="228.703125" xlink:href="#DejaVuSans-41"/>
      <use x="295.361328" xlink:href="#DejaVuSans-63"/>
      <use x="350.341797" xlink:href="#DejaVuSans-63"/>
      <use x="405.322266" xlink:href="#DejaVuSans-75"/>
      <use x="468.701172" xlink:href="#DejaVuSans-72"/>
      <use x="509.814453" xlink:href="#DejaVuSans-61"/>
      <use x="571.09375" xlink:href="#DejaVuSans-63"/>
      <use x="626.074219" xlink:href="#DejaVuSans-79"/>
     </g>
    </g>
   </g>
   <g id="line2d_14">
    <path clip-path="url(#p5c7850d24d)" d="M 92.109091 168.557157 
L 101.043414 131.546518 
L 109.977737 120.158629 
L 118.912059 108.77074 
L 127.846382 100.799218 
L 136.780705 97.952246 
L 145.715028 95.105274 
L 154.649351 91.688907 
L 163.583673 88.841935 
L 172.517996 86.564357 
L 181.452319 85.994962 
L 190.386642 84.856173 
L 199.320965 82.578596 
L 208.255288 82.578596 
L 217.18961 82.009201 
L 226.123933 82.578596 
L 235.058256 82.578596 
L 243.992579 83.717385 
L 252.926902 82.009201 
L 261.861224 81.439807 
L 270.795547 80.301018 
L 279.72987 80.870412 
L 288.664193 81.439807 
L 297.598516 82.009201 
L 306.532839 82.009201 
L 315.467161 80.870412 
L 324.401484 80.301018 
L 333.335807 80.301018 
L 342.27013 80.301018 
L 351.204453 78.592835 
L 360.138776 78.02344 
L 369.073098 78.02344 
L 378.007421 78.02344 
L 386.941744 78.02344 
L 395.876067 77.454046 
L 404.81039 78.02344 
L 413.744712 77.454046 
L 422.679035 76.315257 
L 431.613358 75.745862 
L 440.547681 75.745862 
L 449.482004 75.745862 
L 458.416327 76.315257 
L 467.350649 75.745862 
L 476.284972 74.607073 
L 485.219295 76.315257 
L 494.153618 76.884651 
L 503.087941 77.454046 
L 512.022263 76.884651 
L 520.956586 76.884651 
L 529.890909 75.176468 
" style="fill:none;stroke:#1f77b4;stroke-linecap:square;stroke-width:1.5;"/>
   </g>
   <g id="line2d_15">
    <path clip-path="url(#p5c7850d24d)" d="M 92.109091 185.069596 
L 101.043414 137.809857 
L 109.977737 123.574996 
L 118.912059 114.464685 
L 127.846382 106.493162 
L 136.780705 100.229824 
L 145.715028 93.966485 
L 154.649351 93.39709 
L 163.583673 92.827696 
L 172.517996 90.550118 
L 181.452319 89.980723 
L 190.386642 86.564357 
L 199.320965 85.994962 
L 208.255288 85.994962 
L 217.18961 84.286779 
L 226.123933 85.425568 
L 235.058256 85.994962 
L 243.992579 84.856173 
L 252.926902 83.717385 
L 261.861224 83.14799 
L 270.795547 83.14799 
L 279.72987 82.009201 
L 288.664193 83.717385 
L 297.598516 83.717385 
L 306.532839 82.578596 
L 315.467161 84.286779 
L 324.401484 83.717385 
L 333.335807 83.717385 
L 342.27013 83.14799 
L 351.204453 82.009201 
L 360.138776 82.578596 
L 369.073098 82.578596 
L 378.007421 81.439807 
L 386.941744 82.009201 
L 395.876067 82.578596 
L 404.81039 82.009201 
L 413.744712 83.14799 
L 422.679035 83.717385 
L 431.613358 82.009201 
L 440.547681 82.009201 
L 449.482004 82.009201 
L 458.416327 81.439807 
L 467.350649 82.009201 
L 476.284972 81.439807 
L 485.219295 82.578596 
L 494.153618 82.578596 
L 503.087941 81.439807 
L 512.022263 82.578596 
L 520.956586 82.009201 
L 529.890909 81.439807 
" style="fill:none;stroke:#ff7f0e;stroke-linecap:square;stroke-width:1.5;"/>
   </g>
   <g id="line2d_16">
    <path clip-path="url(#p5c7850d24d)" d="M 92.109091 170.834735 
L 101.043414 136.101674 
L 109.977737 123.574996 
L 118.912059 114.464685 
L 127.846382 110.478924 
L 136.780705 106.493162 
L 145.715028 100.799218 
L 154.649351 96.813457 
L 163.583673 91.688907 
L 172.517996 91.688907 
L 181.452319 87.703146 
L 190.386642 87.133751 
L 199.320965 87.133751 
L 208.255288 85.994962 
L 217.18961 87.703146 
L 226.123933 87.133751 
L 235.058256 88.841935 
L 243.992579 88.841935 
L 252.926902 87.133751 
L 261.861224 87.703146 
L 270.795547 87.703146 
L 279.72987 87.703146 
L 288.664193 86.564357 
L 297.598516 87.133751 
L 306.532839 87.703146 
L 315.467161 87.703146 
L 324.401484 87.133751 
L 333.335807 86.564357 
L 342.27013 85.425568 
L 351.204453 85.425568 
L 360.138776 87.133751 
L 369.073098 86.564357 
L 378.007421 84.856173 
L 386.941744 85.994962 
L 395.876067 85.425568 
L 404.81039 85.994962 
L 413.744712 85.425568 
L 422.679035 85.425568 
L 431.613358 84.856173 
L 440.547681 83.717385 
L 449.482004 84.286779 
L 458.416327 85.425568 
L 467.350649 84.856173 
L 476.284972 85.425568 
L 485.219295 85.425568 
L 494.153618 84.286779 
L 503.087941 84.856173 
L 512.022263 85.425568 
L 520.956586 84.856173 
L 529.890909 84.856173 
" style="fill:none;stroke:#2ca02c;stroke-linecap:square;stroke-width:1.5;"/>
   </g>
   <g id="line2d_17">
    <path clip-path="url(#p5c7850d24d)" d="M 92.109091 326.21337 
L 101.043414 176.242844 
L 109.977737 151.727566 
L 118.912059 142.46124 
L 127.846382 135.938827 
L 136.780705 131.125736 
L 145.715028 128.696699 
L 154.649351 125.862823 
L 163.583673 123.748661 
L 172.517996 122.084321 
L 181.452319 120.374999 
L 190.386642 119.205463 
L 199.320965 117.496141 
L 208.255288 116.281622 
L 217.18961 115.112086 
L 226.123933 114.392372 
L 235.058256 113.267818 
L 243.992579 111.828388 
L 252.926902 111.288603 
L 261.861224 110.838781 
L 270.795547 110.254013 
L 279.72987 109.35437 
L 288.664193 108.634655 
L 297.598516 107.824976 
L 306.532839 107.105262 
L 315.467161 106.65544 
L 324.401484 106.475511 
L 333.335807 105.800779 
L 342.27013 104.901136 
L 351.204453 104.676225 
L 360.138776 104.406332 
L 369.073098 103.731599 
L 378.007421 103.416724 
L 386.941744 103.011885 
L 395.876067 102.921921 
L 404.81039 103.191813 
L 413.744712 102.741992 
L 422.679035 102.607045 
L 431.613358 102.157224 
L 440.547681 102.067259 
L 449.482004 101.437509 
L 458.416327 101.212598 
L 467.350649 101.03267 
L 476.284972 100.897723 
L 485.219295 100.897723 
L 494.153618 100.447902 
L 503.087941 100.312955 
L 512.022263 100.492884 
L 520.956586 100.133026 
L 529.890909 99.863134 
" style="fill:none;stroke:#d62728;stroke-linecap:square;stroke-width:1.5;"/>
   </g>
   <g id="patch_3">
    <path d="M 70.22 376 
L 70.22 56.601989 
" style="fill:none;stroke:#000000;stroke-linecap:square;stroke-linejoin:miter;stroke-width:0.8;"/>
   </g>
   <g id="patch_4">
    <path d="M 551.78 376 
L 551.78 56.601989 
" style="fill:none;stroke:#000000;stroke-linecap:square;stroke-linejoin:miter;stroke-width:0.8;"/>
   </g>
   <g id="patch_5">
    <path d="M 70.22 376 
L 551.78 376 
" style="fill:none;stroke:#000000;stroke-linecap:square;stroke-linejoin:miter;stroke-width:0.8;"/>
   </g>
   <g id="patch_6">
    <path d="M 70.22 56.601989 
L 551.78 56.601989 
" style="fill:none;stroke:#000000;stroke-linecap:square;stroke-linejoin:miter;stroke-width:0.8;"/>
   </g>
   <g id="legend_1">
    <g id="patch_7">
     <path d="M 61.402344 42.709474 
L 560.597656 42.709474 
Q 563.597656 42.709474 563.597656 39.709474 
L 563.597656 19.192287 
Q 563.597656 16.192287 560.597656 16.192287 
L 61.402344 16.192287 
Q 58.402344 16.192287 58.402344 19.192287 
L 58.402344 39.709474 
Q 58.402344 42.709474 61.402344 42.709474 
z
" style="fill:#ffffff;opacity:0.8;stroke:#cccccc;stroke-linejoin:miter;"/>
    </g>
    <g id="line2d_18">
     <path d="M 64.402344 28.339943 
L 94.402344 28.339943 
" style="fill:none;stroke:#1f77b4;stroke-linecap:square;stroke-width:1.5;"/>
    </g>
    <g id="line2d_19"/>
    <g id="text_16">
     <!-- FedAvg -->
     <g transform="translate(106.402344 33.589943)scale(0.15 -0.15)">
      <defs>
       <path d="M 628 4666 
L 3309 4666 
L 3309 4134 
L 1259 4134 
L 1259 2759 
L 3109 2759 
L 3109 2228 
L 1259 2228 
L 1259 0 
L 628 0 
L 628 4666 
z
" id="DejaVuSans-46" transform="scale(0.015625)"/>
       <path d="M 191 3500 
L 800 3500 
L 1894 563 
L 2988 3500 
L 3597 3500 
L 2284 0 
L 1503 0 
L 191 3500 
z
" id="DejaVuSans-76" transform="scale(0.015625)"/>
       <path d="M 2906 1791 
Q 2906 2416 2648 2759 
Q 2391 3103 1925 3103 
Q 1463 3103 1205 2759 
Q 947 2416 947 1791 
Q 947 1169 1205 825 
Q 1463 481 1925 481 
Q 2391 481 2648 825 
Q 2906 1169 2906 1791 
z
M 3481 434 
Q 3481 -459 3084 -895 
Q 2688 -1331 1869 -1331 
Q 1566 -1331 1297 -1286 
Q 1028 -1241 775 -1147 
L 775 -588 
Q 1028 -725 1275 -790 
Q 1522 -856 1778 -856 
Q 2344 -856 2625 -561 
Q 2906 -266 2906 331 
L 2906 616 
Q 2728 306 2450 153 
Q 2172 0 1784 0 
Q 1141 0 747 490 
Q 353 981 353 1791 
Q 353 2603 747 3093 
Q 1141 3584 1784 3584 
Q 2172 3584 2450 3431 
Q 2728 3278 2906 2969 
L 2906 3500 
L 3481 3500 
L 3481 434 
z
" id="DejaVuSans-67" transform="scale(0.015625)"/>
      </defs>
      <use xlink:href="#DejaVuSans-46"/>
      <use x="52.019531" xlink:href="#DejaVuSans-65"/>
      <use x="113.542969" xlink:href="#DejaVuSans-64"/>
      <use x="177.019531" xlink:href="#DejaVuSans-41"/>
      <use x="239.552734" xlink:href="#DejaVuSans-76"/>
      <use x="298.732422" xlink:href="#DejaVuSans-67"/>
     </g>
    </g>
    <g id="line2d_20">
     <path d="M 190.7375 28.339943 
L 220.7375 28.339943 
" style="fill:none;stroke:#ff7f0e;stroke-linecap:square;stroke-width:1.5;"/>
    </g>
    <g id="line2d_21"/>
    <g id="text_17">
     <!-- FedMed -->
     <g transform="translate(232.7375 33.589943)scale(0.15 -0.15)">
      <defs>
       <path d="M 628 4666 
L 1569 4666 
L 2759 1491 
L 3956 4666 
L 4897 4666 
L 4897 0 
L 4281 0 
L 4281 4097 
L 3078 897 
L 2444 897 
L 1241 4097 
L 1241 0 
L 628 0 
L 628 4666 
z
" id="DejaVuSans-4d" transform="scale(0.015625)"/>
      </defs>
      <use xlink:href="#DejaVuSans-46"/>
      <use x="52.019531" xlink:href="#DejaVuSans-65"/>
      <use x="113.542969" xlink:href="#DejaVuSans-64"/>
      <use x="177.019531" xlink:href="#DejaVuSans-4d"/>
      <use x="263.298828" xlink:href="#DejaVuSans-65"/>
      <use x="324.822266" xlink:href="#DejaVuSans-64"/>
     </g>
    </g>
    <g id="line2d_22">
     <path d="M 320.986719 28.339943 
L 350.986719 28.339943 
" style="fill:none;stroke:#2ca02c;stroke-linecap:square;stroke-width:1.5;"/>
    </g>
    <g id="line2d_23"/>
    <g id="text_18">
     <!-- FedProx -->
     <g transform="translate(362.986719 33.589943)scale(0.15 -0.15)">
      <defs>
       <path d="M 1259 4147 
L 1259 2394 
L 2053 2394 
Q 2494 2394 2734 2622 
Q 2975 2850 2975 3272 
Q 2975 3691 2734 3919 
Q 2494 4147 2053 4147 
L 1259 4147 
z
M 628 4666 
L 2053 4666 
Q 2838 4666 3239 4311 
Q 3641 3956 3641 3272 
Q 3641 2581 3239 2228 
Q 2838 1875 2053 1875 
L 1259 1875 
L 1259 0 
L 628 0 
L 628 4666 
z
" id="DejaVuSans-50" transform="scale(0.015625)"/>
       <path d="M 3513 3500 
L 2247 1797 
L 3578 0 
L 2900 0 
L 1881 1375 
L 863 0 
L 184 0 
L 1544 1831 
L 300 3500 
L 978 3500 
L 1906 2253 
L 2834 3500 
L 3513 3500 
z
" id="DejaVuSans-78" transform="scale(0.015625)"/>
      </defs>
      <use xlink:href="#DejaVuSans-46"/>
      <use x="52.019531" xlink:href="#DejaVuSans-65"/>
      <use x="113.542969" xlink:href="#DejaVuSans-64"/>
      <use x="177.019531" xlink:href="#DejaVuSans-50"/>
      <use x="235.572266" xlink:href="#DejaVuSans-72"/>
      <use x="274.435547" xlink:href="#DejaVuSans-6f"/>
      <use x="332.492188" xlink:href="#DejaVuSans-78"/>
     </g>
    </g>
    <g id="line2d_24">
     <path d="M 451.739844 28.339943 
L 481.739844 28.339943 
" style="fill:none;stroke:#d62728;stroke-linecap:square;stroke-width:1.5;"/>
    </g>
    <g id="line2d_25"/>
    <g id="text_19">
     <!-- qFedAvg -->
     <g transform="translate(493.739844 33.589943)scale(0.15 -0.15)">
      <defs>
       <path d="M 947 1747 
Q 947 1113 1208 752 
Q 1469 391 1925 391 
Q 2381 391 2643 752 
Q 2906 1113 2906 1747 
Q 2906 2381 2643 2742 
Q 2381 3103 1925 3103 
Q 1469 3103 1208 2742 
Q 947 2381 947 1747 
z
M 2906 525 
Q 2725 213 2448 61 
Q 2172 -91 1784 -91 
Q 1150 -91 751 415 
Q 353 922 353 1747 
Q 353 2572 751 3078 
Q 1150 3584 1784 3584 
Q 2172 3584 2448 3432 
Q 2725 3281 2906 2969 
L 2906 3500 
L 3481 3500 
L 3481 -1331 
L 2906 -1331 
L 2906 525 
z
" id="DejaVuSans-71" transform="scale(0.015625)"/>
      </defs>
      <use xlink:href="#DejaVuSans-71"/>
      <use x="63.476562" xlink:href="#DejaVuSans-46"/>
      <use x="115.496094" xlink:href="#DejaVuSans-65"/>
      <use x="177.019531" xlink:href="#DejaVuSans-64"/>
      <use x="240.496094" xlink:href="#DejaVuSans-41"/>
      <use x="303.029297" xlink:href="#DejaVuSans-76"/>
      <use x="362.208984" xlink:href="#DejaVuSans-67"/>
     </g>
    </g>
   </g>
  </g>
 </g>
 <defs>
  <clipPath id="p5c7850d24d">
   <rect height="319.398011" width="481.56" x="70.22" y="56.601989"/>
  </clipPath>
 </defs>
</svg>
