<?xml version="1.0" encoding="utf-8" standalone="no"?>
<!DOCTYPE svg PUBLIC "-//W3C//DTD SVG 1.1//EN"
  "http://www.w3.org/Graphics/SVG/1.1/DTD/svg11.dtd">
<svg height="345.6pt" version="1.1" viewBox="0 0 460.8 345.6" width="460.8pt" xmlns="http://www.w3.org/2000/svg" xmlns:xlink="http://www.w3.org/1999/xlink">
 <metadata>
  <rdf:RDF xmlns:cc="http://creativecommons.org/ns#" xmlns:dc="http://purl.org/dc/elements/1.1/" xmlns:rdf="http://www.w3.org/1999/02/22-rdf-syntax-ns#">
   <cc:Work>
    <dc:type rdf:resource="http://purl.org/dc/dcmitype/StillImage"/>
    <dc:date>2021-05-07T11:37:59.331851</dc:date>
    <dc:format>image/svg+xml</dc:format>
    <dc:creator>
     <cc:Agent>
      <dc:title>Matplotlib v3.4.1, https://matplotlib.org/</dc:title>
     </cc:Agent>
    </dc:creator>
   </cc:Work>
  </rdf:RDF>
 </metadata>
 <defs>
  <style type="text/css">*{stroke-linecap:butt;stroke-linejoin:round;}</style>
 </defs>
 <g id="figure_1">
  <g id="patch_1">
   <path d="M 0 345.6 
L 460.8 345.6 
L 460.8 0 
L 0 0 
z
" style="fill:#ffffff;"/>
  </g>
  <g id="axes_1">
   <g id="patch_2">
    <path d="M 44.66 303.64 
L 450 303.64 
L 450 48.38 
L 44.66 48.38 
z
" style="fill:#ffffff;"/>
   </g>
   <g id="PolyCollection_1">
    <path clip-path="url(#p7dcef2da95)" d="M 63.084545 211.688446 
L 63.084545 233.135339 
L 70.604768 174.112844 
L 78.124991 159.666188 
L 85.645213 154.672281 
L 93.165436 144.608794 
L 100.685659 133.790035 
L 108.205881 125.143155 
L 115.726104 118.535265 
L 123.246327 120.852123 
L 130.766549 111.842971 
L 138.286772 111.289457 
L 145.806994 107.158939 
L 153.327217 104.162455 
L 160.84744 103.197126 
L 168.367662 104.715969 
L 175.887885 99.144161 
L 183.408108 95.807218 
L 190.92833 98.082484 
L 198.448553 90.255499 
L 205.968776 90.769329 
L 213.488998 93.036476 
L 221.009221 91.036288 
L 228.529443 93.605619 
L 236.049666 94.895364 
L 243.569889 91.514015 
L 251.090111 82.937828 
L 258.610334 90.381436 
L 266.130557 86.017995 
L 273.650779 90.562367 
L 281.171002 89.654943 
L 288.691224 90.258334 
L 296.211447 86.740311 
L 303.73167 83.306088 
L 311.251892 83.307109 
L 318.772115 84.029282 
L 326.292338 80.089595 
L 333.81256 81.593618 
L 341.332783 82.705044 
L 348.853006 83.234565 
L 356.373228 79.453528 
L 363.893451 80.752831 
L 371.413673 80.465782 
L 378.933896 81.472684 
L 386.454119 75.194199 
L 393.974341 73.696511 
L 401.494564 71.427752 
L 409.014787 72.440831 
L 416.535009 73.33878 
L 424.055232 75.876954 
L 431.575455 65.898272 
L 431.575455 60.586119 
L 431.575455 60.586119 
L 424.055232 64.861439 
L 416.535009 63.836112 
L 409.014787 59.982727 
L 401.494564 63.371473 
L 393.974341 63.478381 
L 386.454119 65.544194 
L 378.933896 69.956211 
L 371.413673 73.33878 
L 363.893451 71.863898 
L 356.373228 67.224033 
L 348.853006 69.382164 
L 341.332783 69.911685 
L 333.81256 75.774445 
L 326.292338 70.151466 
L 318.772115 72.150947 
L 311.251892 66.933953 
L 303.73167 75.249809 
L 296.211447 70.627752 
L 288.691224 77.800231 
L 281.171002 84.34279 
L 273.650779 76.308364 
L 266.130557 77.289236 
L 258.610334 78.864962 
L 251.090111 79.181569 
L 243.569889 81.295884 
L 236.049666 82.665869 
L 228.529443 83.955614 
L 221.009221 79.397944 
L 213.488998 75.022088 
L 205.968776 82.04057 
L 198.448553 81.366567 
L 190.92833 84.230083 
L 183.408108 88.881017 
L 175.887885 96.234575 
L 168.367662 97.789769 
L 160.84744 92.181611 
L 153.327217 98.343283 
L 145.806994 96.534633 
L 138.286772 105.470284 
L 130.766549 104.91677 
L 123.246327 111.349454 
L 115.726104 112.478479 
L 108.205881 111.809756 
L 100.685659 117.416879 
L 93.165436 135.106126 
L 85.645213 144.047975 
L 78.124991 142.617569 
L 70.604768 161.430253 
L 63.084545 211.688446 
z
" style="fill:#1f77b4;fill-opacity:0.5;"/>
   </g>
   <g id="PolyCollection_2">
    <path clip-path="url(#p7dcef2da95)" d="M 63.084545 219.572675 
L 63.084545 257.322616 
L 70.604768 185.946041 
L 78.124991 168.197861 
L 85.645213 158.695192 
L 93.165436 144.508394 
L 100.685659 138.845206 
L 108.205881 132.730458 
L 115.726104 125.945456 
L 123.246327 123.863915 
L 130.766549 118.683417 
L 138.286772 117.451129 
L 145.806994 115.270686 
L 153.327217 117.69075 
L 160.84744 122.596681 
L 168.367662 110.496982 
L 175.887885 109.98069 
L 183.408108 110.128523 
L 190.92833 109.941123 
L 198.448553 113.294928 
L 205.968776 104.557814 
L 213.488998 100.227542 
L 221.009221 101.116464 
L 228.529443 104.094196 
L 236.049666 99.219201 
L 243.569889 98.400904 
L 251.090111 99.94504 
L 258.610334 94.025467 
L 266.130557 91.215093 
L 273.650779 98.776801 
L 281.171002 103.376619 
L 288.691224 99.94504 
L 296.211447 101.123591 
L 303.73167 96.995768 
L 311.251892 91.055883 
L 318.772115 94.483599 
L 326.292338 93.934079 
L 333.81256 93.03612 
L 341.332783 87.532785 
L 348.853006 89.193602 
L 356.373228 91.331864 
L 363.893451 87.282299 
L 371.413673 89.663672 
L 378.933896 91.198492 
L 386.454119 93.531951 
L 393.974341 89.245256 
L 401.494564 82.688015 
L 409.014787 89.839172 
L 416.535009 90.679986 
L 424.055232 88.839426 
L 431.575455 84.371282 
L 431.575455 70.621114 
L 431.575455 70.621114 
L 424.055232 82.78264 
L 416.535009 78.566413 
L 409.014787 81.782893 
L 401.494564 78.243549 
L 393.974341 81.188976 
L 386.454119 76.902281 
L 378.933896 82.799241 
L 371.413673 78.394893 
L 363.893451 80.776266 
L 356.373228 79.102368 
L 348.853006 77.677129 
L 341.332783 81.713613 
L 333.81256 82.149446 
L 326.292338 81.251487 
L 318.772115 84.265468 
L 311.251892 84.129683 
L 303.73167 82.941132 
L 296.211447 93.067312 
L 288.691224 88.306695 
L 281.171002 89.626451 
L 273.650779 91.850601 
L 266.130557 85.158307 
L 258.610334 87.099267 
L 251.090111 88.306695 
L 243.569889 86.287331 
L 236.049666 85.469034 
L 228.529443 87.72104 
L 221.009221 88.323105 
L 213.488998 89.212027 
L 205.968776 88.445256 
L 198.448553 91.586477 
L 190.92833 92.564616 
L 183.408108 99.504217 
L 175.887885 98.464216 
L 168.367662 94.384423 
L 160.84744 103.665729 
L 153.327217 105.008158 
L 145.806994 105.052555 
L 138.286772 106.435613 
L 130.766549 109.954659 
L 123.246327 115.464663 
L 115.726104 112.195289 
L 108.205881 116.100789 
L 100.685659 126.615711 
L 93.165436 137.582193 
L 85.645213 148.339899 
L 78.124991 157.842568 
L 70.604768 163.851059 
L 63.084545 219.572675 
z
" style="fill:#ff7f0e;fill-opacity:0.5;"/>
   </g>
   <g id="PolyCollection_3">
    <path clip-path="url(#p7dcef2da95)" d="M 63.084545 202.797015 
L 63.084545 247.965938 
L 70.604768 191.885208 
L 78.124991 175.361225 
L 85.645213 149.647177 
L 93.165436 152.658116 
L 100.685659 143.76296 
L 108.205881 130.948708 
L 115.726104 132.53867 
L 123.246327 123.301458 
L 130.766549 119.337332 
L 138.286772 114.392707 
L 145.806994 111.289457 
L 153.327217 108.162051 
L 160.84744 110.295236 
L 168.367662 109.349885 
L 175.887885 112.118951 
L 183.408108 101.6106 
L 190.92833 102.867015 
L 198.448553 99.471119 
L 205.968776 92.28412 
L 213.488998 97.535934 
L 221.009221 104.984363 
L 228.529443 104.343998 
L 236.049666 100.616421 
L 243.569889 101.794245 
L 251.090111 98.685413 
L 258.610334 92.461736 
L 266.130557 90.310449 
L 273.650779 88.878703 
L 281.171002 91.31879 
L 288.691224 94.719784 
L 296.211447 97.890753 
L 303.73167 93.564896 
L 311.251892 93.134207 
L 318.772115 90.347477 
L 326.292338 90.048943 
L 333.81256 86.869588 
L 341.332783 85.392696 
L 348.853006 86.869588 
L 356.373228 86.224019 
L 363.893451 86.522568 
L 371.413673 85.09712 
L 378.933896 84.832674 
L 386.454119 84.861808 
L 393.974341 84.781478 
L 401.494564 84.197276 
L 409.014787 84.710165 
L 416.535009 90.649333 
L 424.055232 86.454272 
L 431.575455 86.289877 
L 431.575455 71.078186 
L 431.575455 71.078186 
L 424.055232 72.101624 
L 416.535009 70.28223 
L 409.014787 64.343063 
L 401.494564 67.231619 
L 393.974341 69.023085 
L 386.454119 71.318421 
L 378.933896 67.784055 
L 371.413673 73.458776 
L 363.893451 74.408995 
L 356.373228 74.707545 
L 348.853006 78.813309 
L 341.332783 73.163201 
L 333.81256 78.813309 
L 326.292338 76.821788 
L 318.772115 74.147587 
L 311.251892 71.360858 
L 303.73167 72.118002 
L 296.211447 74.919146 
L 288.691224 80.465782 
L 281.171002 80.303275 
L 273.650779 77.992028 
L 266.130557 76.560282 
L 258.610334 80.348163 
L 251.090111 86.002821 
L 243.569889 81.706156 
L 236.049666 84.071814 
L 228.529443 83.907737 
L 221.009221 88.018706 
L 213.488998 93.091468 
L 205.968776 86.464947 
L 198.448553 94.719784 
L 190.92833 92.511722 
L 183.408108 91.39247 
L 175.887885 99.889456 
L 168.367662 101.470688 
L 160.84744 96.961837 
L 153.327217 100.282855 
L 145.806994 105.470284 
L 138.286772 104.742701 
L 130.766549 116.427746 
L 123.246327 113.651453 
L 115.726104 119.856078 
L 108.205881 121.44604 
L 100.685659 130.012792 
L 93.165436 132.995972 
L 85.645213 140.758245 
L 78.124991 145.927869 
L 70.604768 169.790227 
L 63.084545 202.797015 
z
" style="fill:#2ca02c;fill-opacity:0.5;"/>
   </g>
   <g id="PolyCollection_4">
    <path clip-path="url(#p7dcef2da95)" d="M 63.084545 278.485435 
L 63.084545 292.037273 
L 70.604768 235.812005 
L 78.124991 215.214001 
L 85.645213 204.08664 
L 93.165436 194.576703 
L 100.685659 187.947748 
L 108.205881 180.93645 
L 115.726104 174.492181 
L 123.246327 169.55805 
L 130.766549 163.90607 
L 138.286772 159.705321 
L 145.806994 156.137106 
L 153.327217 153.213936 
L 160.84744 150.787966 
L 168.367662 148.475445 
L 175.887885 145.978212 
L 183.408108 144.170668 
L 190.92833 142.705129 
L 198.448553 141.183905 
L 205.968776 141.378076 
L 213.488998 139.928362 
L 221.009221 139.430285 
L 228.529443 137.301437 
L 236.049666 136.369387 
L 243.569889 135.034921 
L 251.090111 135.262499 
L 258.610334 134.558642 
L 266.130557 133.238202 
L 273.650779 133.027792 
L 281.171002 131.947869 
L 288.691224 131.543332 
L 296.211447 130.827229 
L 303.73167 130.803138 
L 311.251892 130.557147 
L 318.772115 130.280685 
L 326.292338 130.367786 
L 333.81256 130.030974 
L 341.332783 129.937938 
L 348.853006 130.464047 
L 356.373228 129.386349 
L 363.893451 128.689902 
L 371.413673 128.451149 
L 378.933896 127.812222 
L 386.454119 127.604746 
L 393.974341 127.909922 
L 401.494564 127.342412 
L 409.014787 127.082178 
L 416.535009 127.64646 
L 424.055232 127.485564 
L 431.575455 127.764779 
L 431.575455 117.793987 
L 431.575455 117.793987 
L 424.055232 117.885524 
L 416.535009 118.006145 
L 409.014787 118.476587 
L 401.494564 118.967064 
L 393.974341 118.587232 
L 386.454119 118.610891 
L 378.933896 118.966448 
L 371.413673 118.42136 
L 363.893451 118.74564 
L 356.373228 118.987582 
L 348.853006 119.598983 
L 341.332783 119.562059 
L 333.81256 119.844379 
L 326.292338 120.727471 
L 318.772115 121.565283 
L 311.251892 121.851855 
L 303.73167 122.544253 
L 296.211447 123.740066 
L 288.691224 124.056191 
L 281.171002 123.557815 
L 273.650779 125.293057 
L 266.130557 125.927197 
L 258.610334 126.577373 
L 251.090111 126.624226 
L 243.569889 128.353226 
L 236.049666 128.70786 
L 228.529443 129.464909 
L 221.009221 130.620421 
L 213.488998 132.186799 
L 205.968776 134.021445 
L 198.448553 135.717037 
L 190.92833 134.946523 
L 183.408108 138.079088 
L 175.887885 139.555904 
L 168.367662 141.656775 
L 160.84744 144.130035 
L 153.327217 148.460463 
L 145.806994 150.604591 
L 138.286772 153.417418 
L 130.766549 156.911455 
L 123.246327 162.613975 
L 115.726104 167.81444 
L 108.205881 172.161639 
L 100.685659 179.038491 
L 93.165436 186.673042 
L 85.645213 196.587747 
L 78.124991 208.638582 
L 70.604768 225.763796 
L 63.084545 278.485435 
z
" style="fill:#d62728;fill-opacity:0.5;"/>
   </g>
   <g id="matplotlib.axis_1">
    <g id="xtick_1">
     <g id="line2d_1">
      <defs>
       <path d="M 0 0 
L 0 3.5 
" id="m6049d751e6" style="stroke:#000000;stroke-width:0.8;"/>
      </defs>
      <g>
       <use style="stroke:#000000;stroke-width:0.8;" x="63.084545" xlink:href="#m6049d751e6" y="303.64"/>
      </g>
     </g>
     <g id="text_1">
      <!-- 0 -->
      <g transform="translate(59.903295 318.238437)scale(0.1 -0.1)">
       <defs>
        <path d="M 2034 4250 
Q 1547 4250 1301 3770 
Q 1056 3291 1056 2328 
Q 1056 1369 1301 889 
Q 1547 409 2034 409 
Q 2525 409 2770 889 
Q 3016 1369 3016 2328 
Q 3016 3291 2770 3770 
Q 2525 4250 2034 4250 
z
M 2034 4750 
Q 2819 4750 3233 4129 
Q 3647 3509 3647 2328 
Q 3647 1150 3233 529 
Q 2819 -91 2034 -91 
Q 1250 -91 836 529 
Q 422 1150 422 2328 
Q 422 3509 836 4129 
Q 1250 4750 2034 4750 
z
" id="DejaVuSans-30" transform="scale(0.015625)"/>
       </defs>
       <use xlink:href="#DejaVuSans-30"/>
      </g>
     </g>
    </g>
    <g id="xtick_2">
     <g id="line2d_2">
      <g>
       <use style="stroke:#000000;stroke-width:0.8;" x="138.286772" xlink:href="#m6049d751e6" y="303.64"/>
      </g>
     </g>
     <g id="text_2">
      <!-- 10 -->
      <g transform="translate(131.924272 318.238437)scale(0.1 -0.1)">
       <defs>
        <path d="M 794 531 
L 1825 531 
L 1825 4091 
L 703 3866 
L 703 4441 
L 1819 4666 
L 2450 4666 
L 2450 531 
L 3481 531 
L 3481 0 
L 794 0 
L 794 531 
z
" id="DejaVuSans-31" transform="scale(0.015625)"/>
       </defs>
       <use xlink:href="#DejaVuSans-31"/>
       <use x="63.623047" xlink:href="#DejaVuSans-30"/>
      </g>
     </g>
    </g>
    <g id="xtick_3">
     <g id="line2d_3">
      <g>
       <use style="stroke:#000000;stroke-width:0.8;" x="213.488998" xlink:href="#m6049d751e6" y="303.64"/>
      </g>
     </g>
     <g id="text_3">
      <!-- 20 -->
      <g transform="translate(207.126498 318.238437)scale(0.1 -0.1)">
       <defs>
        <path d="M 1228 531 
L 3431 531 
L 3431 0 
L 469 0 
L 469 531 
Q 828 903 1448 1529 
Q 2069 2156 2228 2338 
Q 2531 2678 2651 2914 
Q 2772 3150 2772 3378 
Q 2772 3750 2511 3984 
Q 2250 4219 1831 4219 
Q 1534 4219 1204 4116 
Q 875 4013 500 3803 
L 500 4441 
Q 881 4594 1212 4672 
Q 1544 4750 1819 4750 
Q 2544 4750 2975 4387 
Q 3406 4025 3406 3419 
Q 3406 3131 3298 2873 
Q 3191 2616 2906 2266 
Q 2828 2175 2409 1742 
Q 1991 1309 1228 531 
z
" id="DejaVuSans-32" transform="scale(0.015625)"/>
       </defs>
       <use xlink:href="#DejaVuSans-32"/>
       <use x="63.623047" xlink:href="#DejaVuSans-30"/>
      </g>
     </g>
    </g>
    <g id="xtick_4">
     <g id="line2d_4">
      <g>
       <use style="stroke:#000000;stroke-width:0.8;" x="288.691224" xlink:href="#m6049d751e6" y="303.64"/>
      </g>
     </g>
     <g id="text_4">
      <!-- 30 -->
      <g transform="translate(282.328724 318.238437)scale(0.1 -0.1)">
       <defs>
        <path d="M 2597 2516 
Q 3050 2419 3304 2112 
Q 3559 1806 3559 1356 
Q 3559 666 3084 287 
Q 2609 -91 1734 -91 
Q 1441 -91 1130 -33 
Q 819 25 488 141 
L 488 750 
Q 750 597 1062 519 
Q 1375 441 1716 441 
Q 2309 441 2620 675 
Q 2931 909 2931 1356 
Q 2931 1769 2642 2001 
Q 2353 2234 1838 2234 
L 1294 2234 
L 1294 2753 
L 1863 2753 
Q 2328 2753 2575 2939 
Q 2822 3125 2822 3475 
Q 2822 3834 2567 4026 
Q 2313 4219 1838 4219 
Q 1578 4219 1281 4162 
Q 984 4106 628 3988 
L 628 4550 
Q 988 4650 1302 4700 
Q 1616 4750 1894 4750 
Q 2613 4750 3031 4423 
Q 3450 4097 3450 3541 
Q 3450 3153 3228 2886 
Q 3006 2619 2597 2516 
z
" id="DejaVuSans-33" transform="scale(0.015625)"/>
       </defs>
       <use xlink:href="#DejaVuSans-33"/>
       <use x="63.623047" xlink:href="#DejaVuSans-30"/>
      </g>
     </g>
    </g>
    <g id="xtick_5">
     <g id="line2d_5">
      <g>
       <use style="stroke:#000000;stroke-width:0.8;" x="363.893451" xlink:href="#m6049d751e6" y="303.64"/>
      </g>
     </g>
     <g id="text_5">
      <!-- 40 -->
      <g transform="translate(357.530951 318.238437)scale(0.1 -0.1)">
       <defs>
        <path d="M 2419 4116 
L 825 1625 
L 2419 1625 
L 2419 4116 
z
M 2253 4666 
L 3047 4666 
L 3047 1625 
L 3713 1625 
L 3713 1100 
L 3047 1100 
L 3047 0 
L 2419 0 
L 2419 1100 
L 313 1100 
L 313 1709 
L 2253 4666 
z
" id="DejaVuSans-34" transform="scale(0.015625)"/>
       </defs>
       <use xlink:href="#DejaVuSans-34"/>
       <use x="63.623047" xlink:href="#DejaVuSans-30"/>
      </g>
     </g>
    </g>
    <g id="xtick_6">
     <g id="line2d_6">
      <g>
       <use style="stroke:#000000;stroke-width:0.8;" x="439.095677" xlink:href="#m6049d751e6" y="303.64"/>
      </g>
     </g>
     <g id="text_6">
      <!-- 50 -->
      <g transform="translate(432.733177 318.238437)scale(0.1 -0.1)">
       <defs>
        <path d="M 691 4666 
L 3169 4666 
L 3169 4134 
L 1269 4134 
L 1269 2991 
Q 1406 3038 1543 3061 
Q 1681 3084 1819 3084 
Q 2600 3084 3056 2656 
Q 3513 2228 3513 1497 
Q 3513 744 3044 326 
Q 2575 -91 1722 -91 
Q 1428 -91 1123 -41 
Q 819 9 494 109 
L 494 744 
Q 775 591 1075 516 
Q 1375 441 1709 441 
Q 2250 441 2565 725 
Q 2881 1009 2881 1497 
Q 2881 1984 2565 2268 
Q 2250 2553 1709 2553 
Q 1456 2553 1204 2497 
Q 953 2441 691 2322 
L 691 4666 
z
" id="DejaVuSans-35" transform="scale(0.015625)"/>
       </defs>
       <use xlink:href="#DejaVuSans-35"/>
       <use x="63.623047" xlink:href="#DejaVuSans-30"/>
      </g>
     </g>
    </g>
    <g id="text_7">
     <!-- Global Communication Rounds -->
     <g transform="translate(170.368281 331.916562)scale(0.1 -0.1)">
      <defs>
       <path d="M 3809 666 
L 3809 1919 
L 2778 1919 
L 2778 2438 
L 4434 2438 
L 4434 434 
Q 4069 175 3628 42 
Q 3188 -91 2688 -91 
Q 1594 -91 976 548 
Q 359 1188 359 2328 
Q 359 3472 976 4111 
Q 1594 4750 2688 4750 
Q 3144 4750 3555 4637 
Q 3966 4525 4313 4306 
L 4313 3634 
Q 3963 3931 3569 4081 
Q 3175 4231 2741 4231 
Q 1884 4231 1454 3753 
Q 1025 3275 1025 2328 
Q 1025 1384 1454 906 
Q 1884 428 2741 428 
Q 3075 428 3337 486 
Q 3600 544 3809 666 
z
" id="DejaVuSans-47" transform="scale(0.015625)"/>
       <path d="M 603 4863 
L 1178 4863 
L 1178 0 
L 603 0 
L 603 4863 
z
" id="DejaVuSans-6c" transform="scale(0.015625)"/>
       <path d="M 1959 3097 
Q 1497 3097 1228 2736 
Q 959 2375 959 1747 
Q 959 1119 1226 758 
Q 1494 397 1959 397 
Q 2419 397 2687 759 
Q 2956 1122 2956 1747 
Q 2956 2369 2687 2733 
Q 2419 3097 1959 3097 
z
M 1959 3584 
Q 2709 3584 3137 3096 
Q 3566 2609 3566 1747 
Q 3566 888 3137 398 
Q 2709 -91 1959 -91 
Q 1206 -91 779 398 
Q 353 888 353 1747 
Q 353 2609 779 3096 
Q 1206 3584 1959 3584 
z
" id="DejaVuSans-6f" transform="scale(0.015625)"/>
       <path d="M 3116 1747 
Q 3116 2381 2855 2742 
Q 2594 3103 2138 3103 
Q 1681 3103 1420 2742 
Q 1159 2381 1159 1747 
Q 1159 1113 1420 752 
Q 1681 391 2138 391 
Q 2594 391 2855 752 
Q 3116 1113 3116 1747 
z
M 1159 2969 
Q 1341 3281 1617 3432 
Q 1894 3584 2278 3584 
Q 2916 3584 3314 3078 
Q 3713 2572 3713 1747 
Q 3713 922 3314 415 
Q 2916 -91 2278 -91 
Q 1894 -91 1617 61 
Q 1341 213 1159 525 
L 1159 0 
L 581 0 
L 581 4863 
L 1159 4863 
L 1159 2969 
z
" id="DejaVuSans-62" transform="scale(0.015625)"/>
       <path d="M 2194 1759 
Q 1497 1759 1228 1600 
Q 959 1441 959 1056 
Q 959 750 1161 570 
Q 1363 391 1709 391 
Q 2188 391 2477 730 
Q 2766 1069 2766 1631 
L 2766 1759 
L 2194 1759 
z
M 3341 1997 
L 3341 0 
L 2766 0 
L 2766 531 
Q 2569 213 2275 61 
Q 1981 -91 1556 -91 
Q 1019 -91 701 211 
Q 384 513 384 1019 
Q 384 1609 779 1909 
Q 1175 2209 1959 2209 
L 2766 2209 
L 2766 2266 
Q 2766 2663 2505 2880 
Q 2244 3097 1772 3097 
Q 1472 3097 1187 3025 
Q 903 2953 641 2809 
L 641 3341 
Q 956 3463 1253 3523 
Q 1550 3584 1831 3584 
Q 2591 3584 2966 3190 
Q 3341 2797 3341 1997 
z
" id="DejaVuSans-61" transform="scale(0.015625)"/>
       <path id="DejaVuSans-20" transform="scale(0.015625)"/>
       <path d="M 4122 4306 
L 4122 3641 
Q 3803 3938 3442 4084 
Q 3081 4231 2675 4231 
Q 1875 4231 1450 3742 
Q 1025 3253 1025 2328 
Q 1025 1406 1450 917 
Q 1875 428 2675 428 
Q 3081 428 3442 575 
Q 3803 722 4122 1019 
L 4122 359 
Q 3791 134 3420 21 
Q 3050 -91 2638 -91 
Q 1578 -91 968 557 
Q 359 1206 359 2328 
Q 359 3453 968 4101 
Q 1578 4750 2638 4750 
Q 3056 4750 3426 4639 
Q 3797 4528 4122 4306 
z
" id="DejaVuSans-43" transform="scale(0.015625)"/>
       <path d="M 3328 2828 
Q 3544 3216 3844 3400 
Q 4144 3584 4550 3584 
Q 5097 3584 5394 3201 
Q 5691 2819 5691 2113 
L 5691 0 
L 5113 0 
L 5113 2094 
Q 5113 2597 4934 2840 
Q 4756 3084 4391 3084 
Q 3944 3084 3684 2787 
Q 3425 2491 3425 1978 
L 3425 0 
L 2847 0 
L 2847 2094 
Q 2847 2600 2669 2842 
Q 2491 3084 2119 3084 
Q 1678 3084 1418 2786 
Q 1159 2488 1159 1978 
L 1159 0 
L 581 0 
L 581 3500 
L 1159 3500 
L 1159 2956 
Q 1356 3278 1631 3431 
Q 1906 3584 2284 3584 
Q 2666 3584 2933 3390 
Q 3200 3197 3328 2828 
z
" id="DejaVuSans-6d" transform="scale(0.015625)"/>
       <path d="M 544 1381 
L 544 3500 
L 1119 3500 
L 1119 1403 
Q 1119 906 1312 657 
Q 1506 409 1894 409 
Q 2359 409 2629 706 
Q 2900 1003 2900 1516 
L 2900 3500 
L 3475 3500 
L 3475 0 
L 2900 0 
L 2900 538 
Q 2691 219 2414 64 
Q 2138 -91 1772 -91 
Q 1169 -91 856 284 
Q 544 659 544 1381 
z
M 1991 3584 
L 1991 3584 
z
" id="DejaVuSans-75" transform="scale(0.015625)"/>
       <path d="M 3513 2113 
L 3513 0 
L 2938 0 
L 2938 2094 
Q 2938 2591 2744 2837 
Q 2550 3084 2163 3084 
Q 1697 3084 1428 2787 
Q 1159 2491 1159 1978 
L 1159 0 
L 581 0 
L 581 3500 
L 1159 3500 
L 1159 2956 
Q 1366 3272 1645 3428 
Q 1925 3584 2291 3584 
Q 2894 3584 3203 3211 
Q 3513 2838 3513 2113 
z
" id="DejaVuSans-6e" transform="scale(0.015625)"/>
       <path d="M 603 3500 
L 1178 3500 
L 1178 0 
L 603 0 
L 603 3500 
z
M 603 4863 
L 1178 4863 
L 1178 4134 
L 603 4134 
L 603 4863 
z
" id="DejaVuSans-69" transform="scale(0.015625)"/>
       <path d="M 3122 3366 
L 3122 2828 
Q 2878 2963 2633 3030 
Q 2388 3097 2138 3097 
Q 1578 3097 1268 2742 
Q 959 2388 959 1747 
Q 959 1106 1268 751 
Q 1578 397 2138 397 
Q 2388 397 2633 464 
Q 2878 531 3122 666 
L 3122 134 
Q 2881 22 2623 -34 
Q 2366 -91 2075 -91 
Q 1284 -91 818 406 
Q 353 903 353 1747 
Q 353 2603 823 3093 
Q 1294 3584 2113 3584 
Q 2378 3584 2631 3529 
Q 2884 3475 3122 3366 
z
" id="DejaVuSans-63" transform="scale(0.015625)"/>
       <path d="M 1172 4494 
L 1172 3500 
L 2356 3500 
L 2356 3053 
L 1172 3053 
L 1172 1153 
Q 1172 725 1289 603 
Q 1406 481 1766 481 
L 2356 481 
L 2356 0 
L 1766 0 
Q 1100 0 847 248 
Q 594 497 594 1153 
L 594 3053 
L 172 3053 
L 172 3500 
L 594 3500 
L 594 4494 
L 1172 4494 
z
" id="DejaVuSans-74" transform="scale(0.015625)"/>
       <path d="M 2841 2188 
Q 3044 2119 3236 1894 
Q 3428 1669 3622 1275 
L 4263 0 
L 3584 0 
L 2988 1197 
Q 2756 1666 2539 1819 
Q 2322 1972 1947 1972 
L 1259 1972 
L 1259 0 
L 628 0 
L 628 4666 
L 2053 4666 
Q 2853 4666 3247 4331 
Q 3641 3997 3641 3322 
Q 3641 2881 3436 2590 
Q 3231 2300 2841 2188 
z
M 1259 4147 
L 1259 2491 
L 2053 2491 
Q 2509 2491 2742 2702 
Q 2975 2913 2975 3322 
Q 2975 3731 2742 3939 
Q 2509 4147 2053 4147 
L 1259 4147 
z
" id="DejaVuSans-52" transform="scale(0.015625)"/>
       <path d="M 2906 2969 
L 2906 4863 
L 3481 4863 
L 3481 0 
L 2906 0 
L 2906 525 
Q 2725 213 2448 61 
Q 2172 -91 1784 -91 
Q 1150 -91 751 415 
Q 353 922 353 1747 
Q 353 2572 751 3078 
Q 1150 3584 1784 3584 
Q 2172 3584 2448 3432 
Q 2725 3281 2906 2969 
z
M 947 1747 
Q 947 1113 1208 752 
Q 1469 391 1925 391 
Q 2381 391 2643 752 
Q 2906 1113 2906 1747 
Q 2906 2381 2643 2742 
Q 2381 3103 1925 3103 
Q 1469 3103 1208 2742 
Q 947 2381 947 1747 
z
" id="DejaVuSans-64" transform="scale(0.015625)"/>
       <path d="M 2834 3397 
L 2834 2853 
Q 2591 2978 2328 3040 
Q 2066 3103 1784 3103 
Q 1356 3103 1142 2972 
Q 928 2841 928 2578 
Q 928 2378 1081 2264 
Q 1234 2150 1697 2047 
L 1894 2003 
Q 2506 1872 2764 1633 
Q 3022 1394 3022 966 
Q 3022 478 2636 193 
Q 2250 -91 1575 -91 
Q 1294 -91 989 -36 
Q 684 19 347 128 
L 347 722 
Q 666 556 975 473 
Q 1284 391 1588 391 
Q 1994 391 2212 530 
Q 2431 669 2431 922 
Q 2431 1156 2273 1281 
Q 2116 1406 1581 1522 
L 1381 1569 
Q 847 1681 609 1914 
Q 372 2147 372 2553 
Q 372 3047 722 3315 
Q 1072 3584 1716 3584 
Q 2034 3584 2315 3537 
Q 2597 3491 2834 3397 
z
" id="DejaVuSans-73" transform="scale(0.015625)"/>
      </defs>
      <use xlink:href="#DejaVuSans-47"/>
      <use x="77.490234" xlink:href="#DejaVuSans-6c"/>
      <use x="105.273438" xlink:href="#DejaVuSans-6f"/>
      <use x="166.455078" xlink:href="#DejaVuSans-62"/>
      <use x="229.931641" xlink:href="#DejaVuSans-61"/>
      <use x="291.210938" xlink:href="#DejaVuSans-6c"/>
      <use x="318.994141" xlink:href="#DejaVuSans-20"/>
      <use x="350.78125" xlink:href="#DejaVuSans-43"/>
      <use x="420.605469" xlink:href="#DejaVuSans-6f"/>
      <use x="481.787109" xlink:href="#DejaVuSans-6d"/>
      <use x="579.199219" xlink:href="#DejaVuSans-6d"/>
      <use x="676.611328" xlink:href="#DejaVuSans-75"/>
      <use x="739.990234" xlink:href="#DejaVuSans-6e"/>
      <use x="803.369141" xlink:href="#DejaVuSans-69"/>
      <use x="831.152344" xlink:href="#DejaVuSans-63"/>
      <use x="886.132812" xlink:href="#DejaVuSans-61"/>
      <use x="947.412109" xlink:href="#DejaVuSans-74"/>
      <use x="986.621094" xlink:href="#DejaVuSans-69"/>
      <use x="1014.404297" xlink:href="#DejaVuSans-6f"/>
      <use x="1075.585938" xlink:href="#DejaVuSans-6e"/>
      <use x="1138.964844" xlink:href="#DejaVuSans-20"/>
      <use x="1170.751953" xlink:href="#DejaVuSans-52"/>
      <use x="1235.734375" xlink:href="#DejaVuSans-6f"/>
      <use x="1296.916016" xlink:href="#DejaVuSans-75"/>
      <use x="1360.294922" xlink:href="#DejaVuSans-6e"/>
      <use x="1423.673828" xlink:href="#DejaVuSans-64"/>
      <use x="1487.150391" xlink:href="#DejaVuSans-73"/>
     </g>
    </g>
   </g>
   <g id="matplotlib.axis_2">
    <g id="ytick_1">
     <g id="line2d_7">
      <defs>
       <path d="M 0 0 
L -3.5 0 
" id="m3d32736f0b" style="stroke:#000000;stroke-width:0.8;"/>
      </defs>
      <g>
       <use style="stroke:#000000;stroke-width:0.8;" x="44.66" xlink:href="#m3d32736f0b" y="303.184574"/>
      </g>
     </g>
     <g id="text_8">
      <!-- 88 -->
      <g transform="translate(24.935 306.983793)scale(0.1 -0.1)">
       <defs>
        <path d="M 2034 2216 
Q 1584 2216 1326 1975 
Q 1069 1734 1069 1313 
Q 1069 891 1326 650 
Q 1584 409 2034 409 
Q 2484 409 2743 651 
Q 3003 894 3003 1313 
Q 3003 1734 2745 1975 
Q 2488 2216 2034 2216 
z
M 1403 2484 
Q 997 2584 770 2862 
Q 544 3141 544 3541 
Q 544 4100 942 4425 
Q 1341 4750 2034 4750 
Q 2731 4750 3128 4425 
Q 3525 4100 3525 3541 
Q 3525 3141 3298 2862 
Q 3072 2584 2669 2484 
Q 3125 2378 3379 2068 
Q 3634 1759 3634 1313 
Q 3634 634 3220 271 
Q 2806 -91 2034 -91 
Q 1263 -91 848 271 
Q 434 634 434 1313 
Q 434 1759 690 2068 
Q 947 2378 1403 2484 
z
M 1172 3481 
Q 1172 3119 1398 2916 
Q 1625 2713 2034 2713 
Q 2441 2713 2670 2916 
Q 2900 3119 2900 3481 
Q 2900 3844 2670 4047 
Q 2441 4250 2034 4250 
Q 1625 4250 1398 4047 
Q 1172 3844 1172 3481 
z
" id="DejaVuSans-38" transform="scale(0.015625)"/>
       </defs>
       <use xlink:href="#DejaVuSans-38"/>
       <use x="63.623047" xlink:href="#DejaVuSans-38"/>
      </g>
     </g>
    </g>
    <g id="ytick_2">
     <g id="line2d_8">
      <g>
       <use style="stroke:#000000;stroke-width:0.8;" x="44.66" xlink:href="#m3d32736f0b" y="256.265149"/>
      </g>
     </g>
     <g id="text_9">
      <!-- 90 -->
      <g transform="translate(24.935 260.064368)scale(0.1 -0.1)">
       <defs>
        <path d="M 703 97 
L 703 672 
Q 941 559 1184 500 
Q 1428 441 1663 441 
Q 2288 441 2617 861 
Q 2947 1281 2994 2138 
Q 2813 1869 2534 1725 
Q 2256 1581 1919 1581 
Q 1219 1581 811 2004 
Q 403 2428 403 3163 
Q 403 3881 828 4315 
Q 1253 4750 1959 4750 
Q 2769 4750 3195 4129 
Q 3622 3509 3622 2328 
Q 3622 1225 3098 567 
Q 2575 -91 1691 -91 
Q 1453 -91 1209 -44 
Q 966 3 703 97 
z
M 1959 2075 
Q 2384 2075 2632 2365 
Q 2881 2656 2881 3163 
Q 2881 3666 2632 3958 
Q 2384 4250 1959 4250 
Q 1534 4250 1286 3958 
Q 1038 3666 1038 3163 
Q 1038 2656 1286 2365 
Q 1534 2075 1959 2075 
z
" id="DejaVuSans-39" transform="scale(0.015625)"/>
       </defs>
       <use xlink:href="#DejaVuSans-39"/>
       <use x="63.623047" xlink:href="#DejaVuSans-30"/>
      </g>
     </g>
    </g>
    <g id="ytick_3">
     <g id="line2d_9">
      <g>
       <use style="stroke:#000000;stroke-width:0.8;" x="44.66" xlink:href="#m3d32736f0b" y="209.345723"/>
      </g>
     </g>
     <g id="text_10">
      <!-- 92 -->
      <g transform="translate(24.935 213.144942)scale(0.1 -0.1)">
       <use xlink:href="#DejaVuSans-39"/>
       <use x="63.623047" xlink:href="#DejaVuSans-32"/>
      </g>
     </g>
    </g>
    <g id="ytick_4">
     <g id="line2d_10">
      <g>
       <use style="stroke:#000000;stroke-width:0.8;" x="44.66" xlink:href="#m3d32736f0b" y="162.426297"/>
      </g>
     </g>
     <g id="text_11">
      <!-- 94 -->
      <g transform="translate(24.935 166.225516)scale(0.1 -0.1)">
       <use xlink:href="#DejaVuSans-39"/>
       <use x="63.623047" xlink:href="#DejaVuSans-34"/>
      </g>
     </g>
    </g>
    <g id="ytick_5">
     <g id="line2d_11">
      <g>
       <use style="stroke:#000000;stroke-width:0.8;" x="44.66" xlink:href="#m3d32736f0b" y="115.506872"/>
      </g>
     </g>
     <g id="text_12">
      <!-- 96 -->
      <g transform="translate(24.935 119.306091)scale(0.1 -0.1)">
       <defs>
        <path d="M 2113 2584 
Q 1688 2584 1439 2293 
Q 1191 2003 1191 1497 
Q 1191 994 1439 701 
Q 1688 409 2113 409 
Q 2538 409 2786 701 
Q 3034 994 3034 1497 
Q 3034 2003 2786 2293 
Q 2538 2584 2113 2584 
z
M 3366 4563 
L 3366 3988 
Q 3128 4100 2886 4159 
Q 2644 4219 2406 4219 
Q 1781 4219 1451 3797 
Q 1122 3375 1075 2522 
Q 1259 2794 1537 2939 
Q 1816 3084 2150 3084 
Q 2853 3084 3261 2657 
Q 3669 2231 3669 1497 
Q 3669 778 3244 343 
Q 2819 -91 2113 -91 
Q 1303 -91 875 529 
Q 447 1150 447 2328 
Q 447 3434 972 4092 
Q 1497 4750 2381 4750 
Q 2619 4750 2861 4703 
Q 3103 4656 3366 4563 
z
" id="DejaVuSans-36" transform="scale(0.015625)"/>
       </defs>
       <use xlink:href="#DejaVuSans-39"/>
       <use x="63.623047" xlink:href="#DejaVuSans-36"/>
      </g>
     </g>
    </g>
    <g id="ytick_6">
     <g id="line2d_12">
      <g>
       <use style="stroke:#000000;stroke-width:0.8;" x="44.66" xlink:href="#m3d32736f0b" y="68.587446"/>
      </g>
     </g>
     <g id="text_13">
      <!-- 98 -->
      <g transform="translate(24.935 72.386665)scale(0.1 -0.1)">
       <use xlink:href="#DejaVuSans-39"/>
       <use x="63.623047" xlink:href="#DejaVuSans-38"/>
      </g>
     </g>
    </g>
    <g id="text_14">
     <!-- Test Accuracy -->
     <g transform="translate(18.855312 210.2725)rotate(-90)scale(0.1 -0.1)">
      <defs>
       <path d="M -19 4666 
L 3928 4666 
L 3928 4134 
L 2272 4134 
L 2272 0 
L 1638 0 
L 1638 4134 
L -19 4134 
L -19 4666 
z
" id="DejaVuSans-54" transform="scale(0.015625)"/>
       <path d="M 3597 1894 
L 3597 1613 
L 953 1613 
Q 991 1019 1311 708 
Q 1631 397 2203 397 
Q 2534 397 2845 478 
Q 3156 559 3463 722 
L 3463 178 
Q 3153 47 2828 -22 
Q 2503 -91 2169 -91 
Q 1331 -91 842 396 
Q 353 884 353 1716 
Q 353 2575 817 3079 
Q 1281 3584 2069 3584 
Q 2775 3584 3186 3129 
Q 3597 2675 3597 1894 
z
M 3022 2063 
Q 3016 2534 2758 2815 
Q 2500 3097 2075 3097 
Q 1594 3097 1305 2825 
Q 1016 2553 972 2059 
L 3022 2063 
z
" id="DejaVuSans-65" transform="scale(0.015625)"/>
       <path d="M 2188 4044 
L 1331 1722 
L 3047 1722 
L 2188 4044 
z
M 1831 4666 
L 2547 4666 
L 4325 0 
L 3669 0 
L 3244 1197 
L 1141 1197 
L 716 0 
L 50 0 
L 1831 4666 
z
" id="DejaVuSans-41" transform="scale(0.015625)"/>
       <path d="M 2631 2963 
Q 2534 3019 2420 3045 
Q 2306 3072 2169 3072 
Q 1681 3072 1420 2755 
Q 1159 2438 1159 1844 
L 1159 0 
L 581 0 
L 581 3500 
L 1159 3500 
L 1159 2956 
Q 1341 3275 1631 3429 
Q 1922 3584 2338 3584 
Q 2397 3584 2469 3576 
Q 2541 3569 2628 3553 
L 2631 2963 
z
" id="DejaVuSans-72" transform="scale(0.015625)"/>
       <path d="M 2059 -325 
Q 1816 -950 1584 -1140 
Q 1353 -1331 966 -1331 
L 506 -1331 
L 506 -850 
L 844 -850 
Q 1081 -850 1212 -737 
Q 1344 -625 1503 -206 
L 1606 56 
L 191 3500 
L 800 3500 
L 1894 763 
L 2988 3500 
L 3597 3500 
L 2059 -325 
z
" id="DejaVuSans-79" transform="scale(0.015625)"/>
      </defs>
      <use xlink:href="#DejaVuSans-54"/>
      <use x="44.083984" xlink:href="#DejaVuSans-65"/>
      <use x="105.607422" xlink:href="#DejaVuSans-73"/>
      <use x="157.707031" xlink:href="#DejaVuSans-74"/>
      <use x="196.916016" xlink:href="#DejaVuSans-20"/>
      <use x="228.703125" xlink:href="#DejaVuSans-41"/>
      <use x="295.361328" xlink:href="#DejaVuSans-63"/>
      <use x="350.341797" xlink:href="#DejaVuSans-63"/>
      <use x="405.322266" xlink:href="#DejaVuSans-75"/>
      <use x="468.701172" xlink:href="#DejaVuSans-72"/>
      <use x="509.814453" xlink:href="#DejaVuSans-61"/>
      <use x="571.09375" xlink:href="#DejaVuSans-63"/>
      <use x="626.074219" xlink:href="#DejaVuSans-79"/>
     </g>
    </g>
   </g>
   <g id="line2d_13">
    <path clip-path="url(#p7dcef2da95)" d="M 63.084545 222.411892 
L 70.604768 167.771549 
L 78.124991 151.141879 
L 85.645213 149.360128 
L 93.165436 139.85746 
L 100.685659 125.603457 
L 108.205881 118.476456 
L 115.726104 115.506872 
L 123.246327 116.100789 
L 130.766549 108.37987 
L 138.286772 108.37987 
L 145.806994 101.846786 
L 153.327217 101.252869 
L 160.84744 97.689368 
L 168.367662 101.252869 
L 175.887885 97.689368 
L 183.408108 92.344117 
L 190.92833 91.156284 
L 198.448553 85.811033 
L 205.968776 86.40495 
L 213.488998 84.029282 
L 221.009221 85.217116 
L 228.529443 88.780617 
L 236.049666 88.780617 
L 243.569889 86.40495 
L 251.090111 81.059699 
L 258.610334 84.623199 
L 266.130557 81.653615 
L 273.650779 83.435366 
L 281.171002 86.998866 
L 288.691224 84.029282 
L 296.211447 78.684031 
L 303.73167 79.277948 
L 311.251892 75.120531 
L 318.772115 78.090115 
L 326.292338 75.120531 
L 333.81256 78.684031 
L 341.332783 76.308364 
L 348.853006 76.308364 
L 356.373228 73.33878 
L 363.893451 76.308364 
L 371.413673 76.902281 
L 378.933896 75.714448 
L 386.454119 70.369196 
L 393.974341 68.587446 
L 401.494564 67.399613 
L 409.014787 66.211779 
L 416.535009 68.587446 
L 424.055232 70.369196 
L 431.575455 63.242195 
" style="fill:none;stroke:#1f77b4;stroke-linecap:square;stroke-width:1.5;"/>
   </g>
   <g id="line2d_14">
    <path clip-path="url(#p7dcef2da95)" d="M 63.084545 238.447645 
L 70.604768 174.89855 
L 78.124991 163.020214 
L 85.645213 153.517546 
L 93.165436 141.045293 
L 100.685659 132.730458 
L 108.205881 124.415624 
L 115.726104 119.070372 
L 123.246327 119.664289 
L 130.766549 114.319038 
L 138.286772 111.943371 
L 145.806994 110.161621 
L 153.327217 111.349454 
L 160.84744 113.131205 
L 168.367662 102.440703 
L 175.887885 104.222453 
L 183.408108 104.81637 
L 190.92833 101.252869 
L 198.448553 102.440703 
L 205.968776 96.501535 
L 213.488998 94.719784 
L 221.009221 94.719784 
L 228.529443 95.907618 
L 236.049666 92.344117 
L 243.569889 92.344117 
L 251.090111 94.125868 
L 258.610334 90.562367 
L 266.130557 88.1867 
L 273.650779 95.313701 
L 281.171002 96.501535 
L 288.691224 94.125868 
L 296.211447 97.095452 
L 303.73167 89.96845 
L 311.251892 87.592783 
L 318.772115 89.374533 
L 326.292338 87.592783 
L 333.81256 87.592783 
L 341.332783 84.623199 
L 348.853006 83.435366 
L 356.373228 85.217116 
L 363.893451 84.029282 
L 371.413673 84.029282 
L 378.933896 86.998866 
L 386.454119 85.217116 
L 393.974341 85.217116 
L 401.494564 80.465782 
L 409.014787 85.811033 
L 416.535009 84.623199 
L 424.055232 85.811033 
L 431.575455 77.496198 
" style="fill:none;stroke:#ff7f0e;stroke-linecap:square;stroke-width:1.5;"/>
   </g>
   <g id="line2d_15">
    <path clip-path="url(#p7dcef2da95)" d="M 63.084545 225.381476 
L 70.604768 180.837718 
L 78.124991 160.644547 
L 85.645213 145.202711 
L 93.165436 142.827044 
L 100.685659 136.887876 
L 108.205881 126.197374 
L 115.726104 126.197374 
L 123.246327 118.476456 
L 130.766549 117.882539 
L 138.286772 109.567704 
L 145.806994 108.37987 
L 153.327217 104.222453 
L 160.84744 103.628536 
L 168.367662 105.410287 
L 175.887885 106.004203 
L 183.408108 96.501535 
L 190.92833 97.689368 
L 198.448553 97.095452 
L 205.968776 89.374533 
L 213.488998 95.313701 
L 221.009221 96.501535 
L 228.529443 94.125868 
L 236.049666 92.344117 
L 243.569889 91.750201 
L 251.090111 92.344117 
L 258.610334 86.40495 
L 266.130557 83.435366 
L 273.650779 83.435366 
L 281.171002 85.811033 
L 288.691224 87.592783 
L 296.211447 86.40495 
L 303.73167 82.841449 
L 311.251892 82.247532 
L 318.772115 82.247532 
L 326.292338 83.435366 
L 333.81256 82.841449 
L 341.332783 79.277948 
L 348.853006 82.841449 
L 356.373228 80.465782 
L 363.893451 80.465782 
L 371.413673 79.277948 
L 378.933896 76.308364 
L 386.454119 78.090115 
L 393.974341 76.902281 
L 401.494564 75.714448 
L 409.014787 74.526614 
L 416.535009 80.465782 
L 424.055232 79.277948 
L 431.575455 78.684031 
" style="fill:none;stroke:#2ca02c;stroke-linecap:square;stroke-width:1.5;"/>
   </g>
   <g id="line2d_16">
    <path clip-path="url(#p7dcef2da95)" d="M 63.084545 285.261354 
L 70.604768 230.787901 
L 78.124991 211.926292 
L 85.645213 200.337193 
L 93.165436 190.624872 
L 100.685659 183.49312 
L 108.205881 176.549045 
L 115.726104 171.153311 
L 123.246327 166.086013 
L 130.766549 160.408762 
L 138.286772 156.561369 
L 145.806994 153.370848 
L 153.327217 150.837199 
L 160.84744 147.459001 
L 168.367662 145.06611 
L 175.887885 142.767058 
L 183.408108 141.124878 
L 190.92833 138.825826 
L 198.448553 138.450471 
L 205.968776 137.69976 
L 213.488998 136.05758 
L 221.009221 135.025353 
L 228.529443 133.383173 
L 236.049666 132.538623 
L 243.569889 131.694074 
L 251.090111 130.943363 
L 258.610334 130.568007 
L 266.130557 129.5827 
L 273.650779 129.160425 
L 281.171002 127.752842 
L 288.691224 127.799761 
L 296.211447 127.283648 
L 303.73167 126.673695 
L 311.251892 126.204501 
L 318.772115 125.922984 
L 326.292338 125.547629 
L 333.81256 124.937676 
L 341.332783 124.749999 
L 348.853006 125.031515 
L 356.373228 124.186966 
L 363.893451 123.717771 
L 371.413673 123.436255 
L 378.933896 123.389335 
L 386.454119 123.107819 
L 393.974341 123.248577 
L 401.494564 123.154738 
L 409.014787 122.779383 
L 416.535009 122.826302 
L 424.055232 122.685544 
L 431.575455 122.779383 
" style="fill:none;stroke:#d62728;stroke-linecap:square;stroke-width:1.5;"/>
   </g>
   <g id="patch_3">
    <path d="M 44.66 303.64 
L 44.66 48.38 
" style="fill:none;stroke:#000000;stroke-linecap:square;stroke-linejoin:miter;stroke-width:0.8;"/>
   </g>
   <g id="patch_4">
    <path d="M 450 303.64 
L 450 48.38 
" style="fill:none;stroke:#000000;stroke-linecap:square;stroke-linejoin:miter;stroke-width:0.8;"/>
   </g>
   <g id="patch_5">
    <path d="M 44.66 303.64 
L 450 303.64 
" style="fill:none;stroke:#000000;stroke-linecap:square;stroke-linejoin:miter;stroke-width:0.8;"/>
   </g>
   <g id="patch_6">
    <path d="M 44.66 48.38 
L 450 48.38 
" style="fill:none;stroke:#000000;stroke-linecap:square;stroke-linejoin:miter;stroke-width:0.8;"/>
   </g>
   <g id="text_15">
    <!-- Local Rounds 10 -->
    <g transform="translate(198.219063 20.88)scale(0.12 -0.12)">
     <defs>
      <path d="M 628 4666 
L 1259 4666 
L 1259 531 
L 3531 531 
L 3531 0 
L 628 0 
L 628 4666 
z
" id="DejaVuSans-4c" transform="scale(0.015625)"/>
     </defs>
     <use xlink:href="#DejaVuSans-4c"/>
     <use x="53.962891" xlink:href="#DejaVuSans-6f"/>
     <use x="115.144531" xlink:href="#DejaVuSans-63"/>
     <use x="170.125" xlink:href="#DejaVuSans-61"/>
     <use x="231.404297" xlink:href="#DejaVuSans-6c"/>
     <use x="259.1875" xlink:href="#DejaVuSans-20"/>
     <use x="290.974609" xlink:href="#DejaVuSans-52"/>
     <use x="355.957031" xlink:href="#DejaVuSans-6f"/>
     <use x="417.138672" xlink:href="#DejaVuSans-75"/>
     <use x="480.517578" xlink:href="#DejaVuSans-6e"/>
     <use x="543.896484" xlink:href="#DejaVuSans-64"/>
     <use x="607.373047" xlink:href="#DejaVuSans-73"/>
     <use x="659.472656" xlink:href="#DejaVuSans-20"/>
     <use x="691.259766" xlink:href="#DejaVuSans-31"/>
     <use x="754.882812" xlink:href="#DejaVuSans-30"/>
    </g>
   </g>
   <g id="legend_1">
    <g id="patch_7">
     <path d="M 80.931563 45.532125 
L 413.728438 45.532125 
Q 415.728438 45.532125 415.728438 43.532125 
L 415.728438 29.854 
Q 415.728438 27.854 413.728438 27.854 
L 80.931563 27.854 
Q 78.931563 27.854 78.931563 29.854 
L 78.931563 43.532125 
Q 78.931563 45.532125 80.931563 45.532125 
z
" style="fill:#ffffff;opacity:0.8;stroke:#cccccc;stroke-linejoin:miter;"/>
    </g>
    <g id="line2d_17">
     <path d="M 82.931563 35.952438 
L 102.931563 35.952438 
" style="fill:none;stroke:#1f77b4;stroke-linecap:square;stroke-width:1.5;"/>
    </g>
    <g id="line2d_18"/>
    <g id="text_16">
     <!-- FedAvg -->
     <g transform="translate(110.931563 39.452438)scale(0.1 -0.1)">
      <defs>
       <path d="M 628 4666 
L 3309 4666 
L 3309 4134 
L 1259 4134 
L 1259 2759 
L 3109 2759 
L 3109 2228 
L 1259 2228 
L 1259 0 
L 628 0 
L 628 4666 
z
" id="DejaVuSans-46" transform="scale(0.015625)"/>
       <path d="M 191 3500 
L 800 3500 
L 1894 563 
L 2988 3500 
L 3597 3500 
L 2284 0 
L 1503 0 
L 191 3500 
z
" id="DejaVuSans-76" transform="scale(0.015625)"/>
       <path d="M 2906 1791 
Q 2906 2416 2648 2759 
Q 2391 3103 1925 3103 
Q 1463 3103 1205 2759 
Q 947 2416 947 1791 
Q 947 1169 1205 825 
Q 1463 481 1925 481 
Q 2391 481 2648 825 
Q 2906 1169 2906 1791 
z
M 3481 434 
Q 3481 -459 3084 -895 
Q 2688 -1331 1869 -1331 
Q 1566 -1331 1297 -1286 
Q 1028 -1241 775 -1147 
L 775 -588 
Q 1028 -725 1275 -790 
Q 1522 -856 1778 -856 
Q 2344 -856 2625 -561 
Q 2906 -266 2906 331 
L 2906 616 
Q 2728 306 2450 153 
Q 2172 0 1784 0 
Q 1141 0 747 490 
Q 353 981 353 1791 
Q 353 2603 747 3093 
Q 1141 3584 1784 3584 
Q 2172 3584 2450 3431 
Q 2728 3278 2906 2969 
L 2906 3500 
L 3481 3500 
L 3481 434 
z
" id="DejaVuSans-67" transform="scale(0.015625)"/>
      </defs>
      <use xlink:href="#DejaVuSans-46"/>
      <use x="52.019531" xlink:href="#DejaVuSans-65"/>
      <use x="113.542969" xlink:href="#DejaVuSans-64"/>
      <use x="177.019531" xlink:href="#DejaVuSans-41"/>
      <use x="239.552734" xlink:href="#DejaVuSans-76"/>
      <use x="298.732422" xlink:href="#DejaVuSans-67"/>
     </g>
    </g>
    <g id="line2d_19">
     <path d="M 167.155 35.952438 
L 187.155 35.952438 
" style="fill:none;stroke:#ff7f0e;stroke-linecap:square;stroke-width:1.5;"/>
    </g>
    <g id="line2d_20"/>
    <g id="text_17">
     <!-- FedMed -->
     <g transform="translate(195.155 39.452438)scale(0.1 -0.1)">
      <defs>
       <path d="M 628 4666 
L 1569 4666 
L 2759 1491 
L 3956 4666 
L 4897 4666 
L 4897 0 
L 4281 0 
L 4281 4097 
L 3078 897 
L 2444 897 
L 1241 4097 
L 1241 0 
L 628 0 
L 628 4666 
z
" id="DejaVuSans-4d" transform="scale(0.015625)"/>
      </defs>
      <use xlink:href="#DejaVuSans-46"/>
      <use x="52.019531" xlink:href="#DejaVuSans-65"/>
      <use x="113.542969" xlink:href="#DejaVuSans-64"/>
      <use x="177.019531" xlink:href="#DejaVuSans-4d"/>
      <use x="263.298828" xlink:href="#DejaVuSans-65"/>
      <use x="324.822266" xlink:href="#DejaVuSans-64"/>
     </g>
    </g>
    <g id="line2d_21">
     <path d="M 253.987813 35.952438 
L 273.987813 35.952438 
" style="fill:none;stroke:#2ca02c;stroke-linecap:square;stroke-width:1.5;"/>
    </g>
    <g id="line2d_22"/>
    <g id="text_18">
     <!-- FedProx -->
     <g transform="translate(281.987813 39.452438)scale(0.1 -0.1)">
      <defs>
       <path d="M 1259 4147 
L 1259 2394 
L 2053 2394 
Q 2494 2394 2734 2622 
Q 2975 2850 2975 3272 
Q 2975 3691 2734 3919 
Q 2494 4147 2053 4147 
L 1259 4147 
z
M 628 4666 
L 2053 4666 
Q 2838 4666 3239 4311 
Q 3641 3956 3641 3272 
Q 3641 2581 3239 2228 
Q 2838 1875 2053 1875 
L 1259 1875 
L 1259 0 
L 628 0 
L 628 4666 
z
" id="DejaVuSans-50" transform="scale(0.015625)"/>
       <path d="M 3513 3500 
L 2247 1797 
L 3578 0 
L 2900 0 
L 1881 1375 
L 863 0 
L 184 0 
L 1544 1831 
L 300 3500 
L 978 3500 
L 1906 2253 
L 2834 3500 
L 3513 3500 
z
" id="DejaVuSans-78" transform="scale(0.015625)"/>
      </defs>
      <use xlink:href="#DejaVuSans-46"/>
      <use x="52.019531" xlink:href="#DejaVuSans-65"/>
      <use x="113.542969" xlink:href="#DejaVuSans-64"/>
      <use x="177.019531" xlink:href="#DejaVuSans-50"/>
      <use x="235.572266" xlink:href="#DejaVuSans-72"/>
      <use x="274.435547" xlink:href="#DejaVuSans-6f"/>
      <use x="332.492188" xlink:href="#DejaVuSans-78"/>
     </g>
    </g>
    <g id="line2d_23">
     <path d="M 341.156563 35.952438 
L 361.156563 35.952438 
" style="fill:none;stroke:#d62728;stroke-linecap:square;stroke-width:1.5;"/>
    </g>
    <g id="line2d_24"/>
    <g id="text_19">
     <!-- qFedAvg -->
     <g transform="translate(369.156563 39.452438)scale(0.1 -0.1)">
      <defs>
       <path d="M 947 1747 
Q 947 1113 1208 752 
Q 1469 391 1925 391 
Q 2381 391 2643 752 
Q 2906 1113 2906 1747 
Q 2906 2381 2643 2742 
Q 2381 3103 1925 3103 
Q 1469 3103 1208 2742 
Q 947 2381 947 1747 
z
M 2906 525 
Q 2725 213 2448 61 
Q 2172 -91 1784 -91 
Q 1150 -91 751 415 
Q 353 922 353 1747 
Q 353 2572 751 3078 
Q 1150 3584 1784 3584 
Q 2172 3584 2448 3432 
Q 2725 3281 2906 2969 
L 2906 3500 
L 3481 3500 
L 3481 -1331 
L 2906 -1331 
L 2906 525 
z
" id="DejaVuSans-71" transform="scale(0.015625)"/>
      </defs>
      <use xlink:href="#DejaVuSans-71"/>
      <use x="63.476562" xlink:href="#DejaVuSans-46"/>
      <use x="115.496094" xlink:href="#DejaVuSans-65"/>
      <use x="177.019531" xlink:href="#DejaVuSans-64"/>
      <use x="240.496094" xlink:href="#DejaVuSans-41"/>
      <use x="303.029297" xlink:href="#DejaVuSans-76"/>
      <use x="362.208984" xlink:href="#DejaVuSans-67"/>
     </g>
    </g>
   </g>
  </g>
 </g>
 <defs>
  <clipPath id="p7dcef2da95">
   <rect height="255.26" width="405.34" x="44.66" y="48.38"/>
  </clipPath>
 </defs>
</svg>
