<?xml version="1.0" encoding="utf-8" standalone="no"?>
<!DOCTYPE svg PUBLIC "-//W3C//DTD SVG 1.1//EN"
  "http://www.w3.org/Graphics/SVG/1.1/DTD/svg11.dtd">
<svg height="345.6pt" version="1.1" viewBox="0 0 460.8 345.6" width="460.8pt" xmlns="http://www.w3.org/2000/svg" xmlns:xlink="http://www.w3.org/1999/xlink">
 <metadata>
  <rdf:RDF xmlns:cc="http://creativecommons.org/ns#" xmlns:dc="http://purl.org/dc/elements/1.1/" xmlns:rdf="http://www.w3.org/1999/02/22-rdf-syntax-ns#">
   <cc:Work>
    <dc:type rdf:resource="http://purl.org/dc/dcmitype/StillImage"/>
    <dc:date>2021-05-07T12:06:32.241179</dc:date>
    <dc:format>image/svg+xml</dc:format>
    <dc:creator>
     <cc:Agent>
      <dc:title>Matplotlib v3.4.1, https://matplotlib.org/</dc:title>
     </cc:Agent>
    </dc:creator>
   </cc:Work>
  </rdf:RDF>
 </metadata>
 <defs>
  <style type="text/css">*{stroke-linecap:butt;stroke-linejoin:round;}</style>
 </defs>
 <g id="figure_1">
  <g id="patch_1">
   <path d="M 0 345.6 
L 460.8 345.6 
L 460.8 0 
L 0 0 
z
" style="fill:#ffffff;"/>
  </g>
  <g id="axes_1">
   <g id="patch_2">
    <path d="M 50.87 303.64 
L 450 303.64 
L 450 32.876829 
L 50.87 32.876829 
z
" style="fill:#ffffff;"/>
   </g>
   <g id="PolyCollection_1">
    <path clip-path="url(#pb5093ade1d)" d="M 69.012273 217.198074 
L 69.012273 280.381378 
L 76.417282 138.812139 
L 83.822291 115.606466 
L 91.227301 100.735751 
L 98.63231 97.362431 
L 106.037319 89.655199 
L 113.442328 87.949924 
L 120.847338 78.898831 
L 128.252347 76.639393 
L 135.657356 75.291392 
L 143.062365 72.137495 
L 150.467375 74.106589 
L 157.872384 65.680578 
L 165.277393 66.473666 
L 172.682403 58.087536 
L 180.087412 63.018338 
L 187.492421 61.925785 
L 194.89743 63.418549 
L 202.30244 61.590612 
L 209.707449 58.748519 
L 217.112458 59.632569 
L 224.517468 55.771867 
L 231.922477 55.238936 
L 239.327486 57.80634 
L 246.732495 59.393539 
L 254.137505 54.426637 
L 261.542514 56.659983 
L 268.947523 55.520504 
L 276.352532 55.460577 
L 283.757542 51.495805 
L 291.162551 56.929833 
L 298.56756 52.476419 
L 305.97257 52.706092 
L 313.377579 51.829548 
L 320.782588 51.037295 
L 328.187597 50.966768 
L 335.592607 52.553084 
L 342.997616 53.54049 
L 350.402625 49.982672 
L 357.807635 50.401994 
L 365.212644 50.390423 
L 372.617653 49.368498 
L 380.022662 52.218366 
L 387.427672 51.454494 
L 394.832681 50.401994 
L 402.23769 51.078606 
L 409.642699 51.495805 
L 417.047709 50.620096 
L 424.452718 52.198081 
L 431.857727 50.966768 
L 431.857727 46.101431 
L 431.857727 46.101431 
L 424.452718 46.538915 
L 417.047709 47.282502 
L 409.642699 47.241191 
L 402.23769 46.823992 
L 394.832681 45.831806 
L 387.427672 46.448103 
L 380.022662 47.353028 
L 372.617653 47.699701 
L 365.212644 48.346573 
L 357.807635 45.831806 
L 350.402625 46.251129 
L 342.997616 48.534099 
L 335.592607 47.018311 
L 328.187597 46.101431 
L 320.782588 47.699701 
L 313.377579 47.741847 
L 305.97257 49.368498 
L 298.56756 50.432569 
L 291.162551 50.151148 
L 283.757542 47.241191 
L 276.352532 48.28281 
L 268.947523 49.057281 
L 261.542514 52.089794 
L 254.137505 47.647952 
L 246.732495 45.184246 
L 239.327486 48.440241 
L 231.922477 49.338848 
L 224.517468 49.640316 
L 217.112458 52.454802 
L 209.707449 52.504453 
L 202.30244 52.999954 
L 194.89743 54.509611 
L 187.492421 57.671171 
L 180.087412 55.744221 
L 172.682403 53.999835 
L 165.277393 59.798478 
L 157.872384 61.425964 
L 150.467375 65.515931 
L 143.062365 62.478634 
L 135.657356 65.999924 
L 128.252347 69.658314 
L 120.847338 73.239665 
L 113.442328 83.379736 
L 106.037319 78.336868 
L 98.63231 86.483206 
L 91.227301 93.957066 
L 83.822291 94.105522 
L 76.417282 122.632553 
L 69.012273 217.198074 
z
" style="fill:#1f77b4;fill-opacity:0.5;"/>
   </g>
   <g id="PolyCollection_2">
    <path clip-path="url(#pb5093ade1d)" d="M 69.012273 215.425251 
L 69.012273 291.332583 
L 76.417282 142.645755 
L 83.822291 113.180976 
L 91.227301 100.175991 
L 98.63231 95.413358 
L 106.037319 91.564918 
L 113.442328 90.368175 
L 120.847338 84.047782 
L 128.252347 81.782941 
L 135.657356 78.862547 
L 143.062365 75.734671 
L 150.467375 75.703798 
L 157.872384 71.352961 
L 165.277393 73.680206 
L 172.682403 70.564825 
L 180.087412 74.400451 
L 187.492421 74.852297 
L 194.89743 76.903646 
L 202.30244 69.476682 
L 209.707449 67.390686 
L 217.112458 64.36442 
L 224.517468 61.778492 
L 231.922477 64.804869 
L 239.327486 60.834515 
L 246.732495 63.788847 
L 254.137505 62.301674 
L 261.542514 65.639267 
L 268.947523 61.164229 
L 276.352532 64.064329 
L 283.757542 62.174578 
L 291.162551 61.050076 
L 298.56756 60.491823 
L 305.97257 60.92298 
L 313.377579 57.780184 
L 320.782588 59.296988 
L 328.187597 58.106432 
L 335.592607 58.380971 
L 342.997616 63.283218 
L 350.402625 58.836984 
L 357.807635 54.145216 
L 365.212644 59.951424 
L 372.617653 56.992237 
L 380.022662 56.00154 
L 387.427672 57.546573 
L 394.832681 58.33132 
L 402.23769 59.692496 
L 409.642699 54.573987 
L 417.047709 59.109461 
L 424.452718 59.109461 
L 431.857727 56.390358 
L 431.857727 51.525021 
L 431.857727 51.525021 
L 424.452718 52.97791 
L 417.047709 52.97791 
L 409.642699 50.003798 
L 402.23769 53.229273 
L 394.832681 52.087254 
L 387.427672 50.368806 
L 380.022662 51.913839 
L 372.617653 49.254344 
L 365.212644 52.970346 
L 357.807635 52.101366 
L 350.402625 50.747191 
L 342.997616 51.307348 
L 335.592607 51.203204 
L 328.187597 50.643345 
L 320.782588 51.121586 
L 313.377579 55.141585 
L 305.97257 52.833187 
L 298.56756 50.761149 
L 291.162551 51.037295 
L 283.757542 54.084785 
L 276.352532 54.69823 
L 268.947523 53.426337 
L 261.542514 53.957689 
L 254.137505 57.295283 
L 246.732495 52.470516 
L 239.327486 54.590449 
L 231.922477 56.460885 
L 224.517468 55.315269 
L 217.112458 56.901334 
L 209.707449 58.881458 
L 202.30244 60.967454 
L 194.89743 61.884475 
L 187.492421 64.770222 
L 180.087412 61.050076 
L 172.682403 59.879311 
L 165.277393 65.942313 
L 157.872384 63.263168 
L 150.467375 68.925113 
L 143.062365 67.225443 
L 135.657356 70.772754 
L 128.252347 73.693148 
L 120.847338 77.269097 
L 113.442328 82.630282 
L 106.037319 79.764742 
L 98.63231 88.432279 
L 91.227301 94.516826 
L 83.822291 104.040599 
L 76.417282 122.97093 
L 69.012273 215.425251 
z
" style="fill:#ff7f0e;fill-opacity:0.5;"/>
   </g>
   <g id="PolyCollection_3">
    <path clip-path="url(#pb5093ade1d)" d="M 69.012273 233.46528 
L 69.012273 269.120562 
L 76.417282 144.430168 
L 83.822291 112.196998 
L 91.227301 101.224538 
L 98.63231 92.798528 
L 106.037319 89.125761 
L 113.442328 84.983377 
L 120.847338 79.376965 
L 128.252347 75.766202 
L 135.657356 76.639393 
L 143.062365 76.639393 
L 150.467375 76.639393 
L 157.872384 76.639393 
L 165.277393 76.639393 
L 172.682403 76.639393 
L 180.087412 76.639393 
L 187.492421 76.639393 
L 194.89743 76.639393 
L 202.30244 76.639393 
L 209.707449 76.639393 
L 217.112458 76.639393 
L 224.517468 76.639393 
L 231.922477 76.639393 
L 239.327486 76.639393 
L 246.732495 76.639393 
L 254.137505 76.639393 
L 261.542514 76.639393 
L 268.947523 76.639393 
L 276.352532 76.639393 
L 283.757542 76.639393 
L 291.162551 76.639393 
L 298.56756 76.639393 
L 305.97257 76.639393 
L 313.377579 76.639393 
L 320.782588 76.639393 
L 328.187597 76.639393 
L 335.592607 76.639393 
L 342.997616 76.639393 
L 350.402625 76.639393 
L 357.807635 76.639393 
L 365.212644 76.639393 
L 372.617653 76.639393 
L 380.022662 76.639393 
L 387.427672 76.639393 
L 394.832681 76.639393 
L 402.23769 76.639393 
L 409.642699 76.639393 
L 417.047709 76.639393 
L 424.452718 76.639393 
L 431.857727 76.639393 
L 431.857727 69.658314 
L 431.857727 69.658314 
L 424.452718 69.658314 
L 417.047709 69.658314 
L 409.642699 69.658314 
L 402.23769 69.658314 
L 394.832681 69.658314 
L 387.427672 69.658314 
L 380.022662 69.658314 
L 372.617653 69.658314 
L 365.212644 69.658314 
L 357.807635 69.658314 
L 350.402625 69.658314 
L 342.997616 69.658314 
L 335.592607 69.658314 
L 328.187597 69.658314 
L 320.782588 69.658314 
L 313.377579 69.658314 
L 305.97257 69.658314 
L 298.56756 69.658314 
L 291.162551 69.658314 
L 283.757542 69.658314 
L 276.352532 69.658314 
L 268.947523 69.658314 
L 261.542514 69.658314 
L 254.137505 69.658314 
L 246.732495 69.658314 
L 239.327486 69.658314 
L 231.922477 69.658314 
L 224.517468 69.658314 
L 217.112458 69.658314 
L 209.707449 69.658314 
L 202.30244 69.658314 
L 194.89743 69.658314 
L 187.492421 69.658314 
L 180.087412 69.658314 
L 172.682403 69.658314 
L 165.277393 69.658314 
L 157.872384 69.658314 
L 150.467375 69.658314 
L 143.062365 69.658314 
L 135.657356 69.658314 
L 128.252347 68.028309 
L 120.847338 67.75514 
L 113.442328 78.002299 
L 106.037319 80.535103 
L 98.63231 88.543914 
L 91.227301 92.63388 
L 83.822291 95.846194 
L 76.417282 121.186517 
L 69.012273 233.46528 
z
" style="fill:#2ca02c;fill-opacity:0.5;"/>
   </g>
   <g id="PolyCollection_4">
    <path clip-path="url(#pb5093ade1d)" d="M 69.012273 216.976907 
L 69.012273 267.480794 
L 76.417282 148.271825 
L 83.822291 115.495605 
L 91.227301 107.209787 
L 98.63231 97.443528 
L 106.037319 90.503732 
L 113.442328 87.428414 
L 120.847338 83.996068 
L 128.252347 82.111751 
L 135.657356 77.588727 
L 143.062365 76.276745 
L 150.467375 76.163839 
L 157.872384 73.913413 
L 165.277393 72.684795 
L 172.682403 71.72419 
L 180.087412 71.258081 
L 187.492421 71.226747 
L 194.89743 70.154934 
L 202.30244 70.097191 
L 209.707449 68.601247 
L 217.112458 68.696898 
L 224.517468 68.351295 
L 231.922477 68.181228 
L 239.327486 67.781876 
L 246.732495 66.62986 
L 254.137505 66.407381 
L 261.542514 65.97968 
L 268.947523 65.370991 
L 276.352532 65.69583 
L 283.757542 64.776939 
L 291.162551 65.638976 
L 298.56756 65.079953 
L 305.97257 64.718559 
L 313.377579 66.907528 
L 320.782588 65.397349 
L 328.187597 65.203338 
L 335.592607 65.2188 
L 342.997616 65.921314 
L 350.402625 65.227721 
L 357.807635 65.242957 
L 365.212644 65.028522 
L 372.617653 64.531644 
L 380.022662 65.282933 
L 387.427672 64.886335 
L 394.832681 65.33411 
L 402.23769 65.250077 
L 409.642699 65.353924 
L 417.047709 64.556897 
L 424.452718 63.952032 
L 431.857727 64.265279 
L 431.857727 62.656028 
L 431.857727 62.656028 
L 424.452718 62.507852 
L 417.047709 61.771152 
L 409.642699 61.699217 
L 402.23769 62.989579 
L 394.832681 63.03738 
L 387.427672 62.694146 
L 380.022662 62.429383 
L 372.617653 62.917002 
L 365.212644 63.277051 
L 357.807635 63.524039 
L 350.402625 62.418677 
L 342.997616 62.647929 
L 335.592607 63.482278 
L 328.187597 63.102235 
L 320.782588 62.644554 
L 313.377579 63.771075 
L 305.97257 63.125592 
L 298.56756 63.818878 
L 291.162551 63.853112 
L 283.757542 63.726387 
L 276.352532 64.25768 
L 268.947523 63.659674 
L 261.542514 63.050985 
L 254.137505 64.205304 
L 246.732495 64.312413 
L 239.327486 63.885489 
L 231.922477 64.540816 
L 224.517468 65.952768 
L 217.112458 64.816156 
L 209.707449 66.361992 
L 202.30244 67.239077 
L 194.89743 67.774591 
L 187.492421 67.757458 
L 180.087412 68.121628 
L 172.682403 68.512446 
L 165.277393 69.661201 
L 157.872384 70.541942 
L 150.467375 72.444317 
L 143.062365 74.045266 
L 135.657356 75.567735 
L 128.252347 76.911367 
L 120.847338 77.334162 
L 113.442328 81.152738 
L 106.037319 86.119352 
L 98.63231 92.494886 
L 91.227301 99.273914 
L 83.822291 113.927378 
L 76.417282 143.443173 
L 69.012273 216.976907 
z
" style="fill:#d62728;fill-opacity:0.5;"/>
   </g>
   <g id="matplotlib.axis_1">
    <g id="xtick_1">
     <g id="line2d_1">
      <defs>
       <path d="M 0 0 
L 0 3.5 
" id="m7a20901acc" style="stroke:#000000;stroke-width:0.8;"/>
      </defs>
      <g>
       <use style="stroke:#000000;stroke-width:0.8;" x="69.012273" xlink:href="#m7a20901acc" y="303.64"/>
      </g>
     </g>
     <g id="text_1">
      <!-- 0 -->
      <g transform="translate(65.831023 318.238437)scale(0.1 -0.1)">
       <defs>
        <path d="M 2034 4250 
Q 1547 4250 1301 3770 
Q 1056 3291 1056 2328 
Q 1056 1369 1301 889 
Q 1547 409 2034 409 
Q 2525 409 2770 889 
Q 3016 1369 3016 2328 
Q 3016 3291 2770 3770 
Q 2525 4250 2034 4250 
z
M 2034 4750 
Q 2819 4750 3233 4129 
Q 3647 3509 3647 2328 
Q 3647 1150 3233 529 
Q 2819 -91 2034 -91 
Q 1250 -91 836 529 
Q 422 1150 422 2328 
Q 422 3509 836 4129 
Q 1250 4750 2034 4750 
z
" id="DejaVuSans-30" transform="scale(0.015625)"/>
       </defs>
       <use xlink:href="#DejaVuSans-30"/>
      </g>
     </g>
    </g>
    <g id="xtick_2">
     <g id="line2d_2">
      <g>
       <use style="stroke:#000000;stroke-width:0.8;" x="143.062365" xlink:href="#m7a20901acc" y="303.64"/>
      </g>
     </g>
     <g id="text_2">
      <!-- 10 -->
      <g transform="translate(136.699865 318.238437)scale(0.1 -0.1)">
       <defs>
        <path d="M 794 531 
L 1825 531 
L 1825 4091 
L 703 3866 
L 703 4441 
L 1819 4666 
L 2450 4666 
L 2450 531 
L 3481 531 
L 3481 0 
L 794 0 
L 794 531 
z
" id="DejaVuSans-31" transform="scale(0.015625)"/>
       </defs>
       <use xlink:href="#DejaVuSans-31"/>
       <use x="63.623047" xlink:href="#DejaVuSans-30"/>
      </g>
     </g>
    </g>
    <g id="xtick_3">
     <g id="line2d_3">
      <g>
       <use style="stroke:#000000;stroke-width:0.8;" x="217.112458" xlink:href="#m7a20901acc" y="303.64"/>
      </g>
     </g>
     <g id="text_3">
      <!-- 20 -->
      <g transform="translate(210.749958 318.238437)scale(0.1 -0.1)">
       <defs>
        <path d="M 1228 531 
L 3431 531 
L 3431 0 
L 469 0 
L 469 531 
Q 828 903 1448 1529 
Q 2069 2156 2228 2338 
Q 2531 2678 2651 2914 
Q 2772 3150 2772 3378 
Q 2772 3750 2511 3984 
Q 2250 4219 1831 4219 
Q 1534 4219 1204 4116 
Q 875 4013 500 3803 
L 500 4441 
Q 881 4594 1212 4672 
Q 1544 4750 1819 4750 
Q 2544 4750 2975 4387 
Q 3406 4025 3406 3419 
Q 3406 3131 3298 2873 
Q 3191 2616 2906 2266 
Q 2828 2175 2409 1742 
Q 1991 1309 1228 531 
z
" id="DejaVuSans-32" transform="scale(0.015625)"/>
       </defs>
       <use xlink:href="#DejaVuSans-32"/>
       <use x="63.623047" xlink:href="#DejaVuSans-30"/>
      </g>
     </g>
    </g>
    <g id="xtick_4">
     <g id="line2d_4">
      <g>
       <use style="stroke:#000000;stroke-width:0.8;" x="291.162551" xlink:href="#m7a20901acc" y="303.64"/>
      </g>
     </g>
     <g id="text_4">
      <!-- 30 -->
      <g transform="translate(284.800051 318.238437)scale(0.1 -0.1)">
       <defs>
        <path d="M 2597 2516 
Q 3050 2419 3304 2112 
Q 3559 1806 3559 1356 
Q 3559 666 3084 287 
Q 2609 -91 1734 -91 
Q 1441 -91 1130 -33 
Q 819 25 488 141 
L 488 750 
Q 750 597 1062 519 
Q 1375 441 1716 441 
Q 2309 441 2620 675 
Q 2931 909 2931 1356 
Q 2931 1769 2642 2001 
Q 2353 2234 1838 2234 
L 1294 2234 
L 1294 2753 
L 1863 2753 
Q 2328 2753 2575 2939 
Q 2822 3125 2822 3475 
Q 2822 3834 2567 4026 
Q 2313 4219 1838 4219 
Q 1578 4219 1281 4162 
Q 984 4106 628 3988 
L 628 4550 
Q 988 4650 1302 4700 
Q 1616 4750 1894 4750 
Q 2613 4750 3031 4423 
Q 3450 4097 3450 3541 
Q 3450 3153 3228 2886 
Q 3006 2619 2597 2516 
z
" id="DejaVuSans-33" transform="scale(0.015625)"/>
       </defs>
       <use xlink:href="#DejaVuSans-33"/>
       <use x="63.623047" xlink:href="#DejaVuSans-30"/>
      </g>
     </g>
    </g>
    <g id="xtick_5">
     <g id="line2d_5">
      <g>
       <use style="stroke:#000000;stroke-width:0.8;" x="365.212644" xlink:href="#m7a20901acc" y="303.64"/>
      </g>
     </g>
     <g id="text_5">
      <!-- 40 -->
      <g transform="translate(358.850144 318.238437)scale(0.1 -0.1)">
       <defs>
        <path d="M 2419 4116 
L 825 1625 
L 2419 1625 
L 2419 4116 
z
M 2253 4666 
L 3047 4666 
L 3047 1625 
L 3713 1625 
L 3713 1100 
L 3047 1100 
L 3047 0 
L 2419 0 
L 2419 1100 
L 313 1100 
L 313 1709 
L 2253 4666 
z
" id="DejaVuSans-34" transform="scale(0.015625)"/>
       </defs>
       <use xlink:href="#DejaVuSans-34"/>
       <use x="63.623047" xlink:href="#DejaVuSans-30"/>
      </g>
     </g>
    </g>
    <g id="xtick_6">
     <g id="line2d_6">
      <g>
       <use style="stroke:#000000;stroke-width:0.8;" x="439.262737" xlink:href="#m7a20901acc" y="303.64"/>
      </g>
     </g>
     <g id="text_6">
      <!-- 50 -->
      <g transform="translate(432.900237 318.238437)scale(0.1 -0.1)">
       <defs>
        <path d="M 691 4666 
L 3169 4666 
L 3169 4134 
L 1269 4134 
L 1269 2991 
Q 1406 3038 1543 3061 
Q 1681 3084 1819 3084 
Q 2600 3084 3056 2656 
Q 3513 2228 3513 1497 
Q 3513 744 3044 326 
Q 2575 -91 1722 -91 
Q 1428 -91 1123 -41 
Q 819 9 494 109 
L 494 744 
Q 775 591 1075 516 
Q 1375 441 1709 441 
Q 2250 441 2565 725 
Q 2881 1009 2881 1497 
Q 2881 1984 2565 2268 
Q 2250 2553 1709 2553 
Q 1456 2553 1204 2497 
Q 953 2441 691 2322 
L 691 4666 
z
" id="DejaVuSans-35" transform="scale(0.015625)"/>
       </defs>
       <use xlink:href="#DejaVuSans-35"/>
       <use x="63.623047" xlink:href="#DejaVuSans-30"/>
      </g>
     </g>
    </g>
    <g id="text_7">
     <!-- Global Communication Rounds -->
     <g transform="translate(173.473281 331.916562)scale(0.1 -0.1)">
      <defs>
       <path d="M 3809 666 
L 3809 1919 
L 2778 1919 
L 2778 2438 
L 4434 2438 
L 4434 434 
Q 4069 175 3628 42 
Q 3188 -91 2688 -91 
Q 1594 -91 976 548 
Q 359 1188 359 2328 
Q 359 3472 976 4111 
Q 1594 4750 2688 4750 
Q 3144 4750 3555 4637 
Q 3966 4525 4313 4306 
L 4313 3634 
Q 3963 3931 3569 4081 
Q 3175 4231 2741 4231 
Q 1884 4231 1454 3753 
Q 1025 3275 1025 2328 
Q 1025 1384 1454 906 
Q 1884 428 2741 428 
Q 3075 428 3337 486 
Q 3600 544 3809 666 
z
" id="DejaVuSans-47" transform="scale(0.015625)"/>
       <path d="M 603 4863 
L 1178 4863 
L 1178 0 
L 603 0 
L 603 4863 
z
" id="DejaVuSans-6c" transform="scale(0.015625)"/>
       <path d="M 1959 3097 
Q 1497 3097 1228 2736 
Q 959 2375 959 1747 
Q 959 1119 1226 758 
Q 1494 397 1959 397 
Q 2419 397 2687 759 
Q 2956 1122 2956 1747 
Q 2956 2369 2687 2733 
Q 2419 3097 1959 3097 
z
M 1959 3584 
Q 2709 3584 3137 3096 
Q 3566 2609 3566 1747 
Q 3566 888 3137 398 
Q 2709 -91 1959 -91 
Q 1206 -91 779 398 
Q 353 888 353 1747 
Q 353 2609 779 3096 
Q 1206 3584 1959 3584 
z
" id="DejaVuSans-6f" transform="scale(0.015625)"/>
       <path d="M 3116 1747 
Q 3116 2381 2855 2742 
Q 2594 3103 2138 3103 
Q 1681 3103 1420 2742 
Q 1159 2381 1159 1747 
Q 1159 1113 1420 752 
Q 1681 391 2138 391 
Q 2594 391 2855 752 
Q 3116 1113 3116 1747 
z
M 1159 2969 
Q 1341 3281 1617 3432 
Q 1894 3584 2278 3584 
Q 2916 3584 3314 3078 
Q 3713 2572 3713 1747 
Q 3713 922 3314 415 
Q 2916 -91 2278 -91 
Q 1894 -91 1617 61 
Q 1341 213 1159 525 
L 1159 0 
L 581 0 
L 581 4863 
L 1159 4863 
L 1159 2969 
z
" id="DejaVuSans-62" transform="scale(0.015625)"/>
       <path d="M 2194 1759 
Q 1497 1759 1228 1600 
Q 959 1441 959 1056 
Q 959 750 1161 570 
Q 1363 391 1709 391 
Q 2188 391 2477 730 
Q 2766 1069 2766 1631 
L 2766 1759 
L 2194 1759 
z
M 3341 1997 
L 3341 0 
L 2766 0 
L 2766 531 
Q 2569 213 2275 61 
Q 1981 -91 1556 -91 
Q 1019 -91 701 211 
Q 384 513 384 1019 
Q 384 1609 779 1909 
Q 1175 2209 1959 2209 
L 2766 2209 
L 2766 2266 
Q 2766 2663 2505 2880 
Q 2244 3097 1772 3097 
Q 1472 3097 1187 3025 
Q 903 2953 641 2809 
L 641 3341 
Q 956 3463 1253 3523 
Q 1550 3584 1831 3584 
Q 2591 3584 2966 3190 
Q 3341 2797 3341 1997 
z
" id="DejaVuSans-61" transform="scale(0.015625)"/>
       <path id="DejaVuSans-20" transform="scale(0.015625)"/>
       <path d="M 4122 4306 
L 4122 3641 
Q 3803 3938 3442 4084 
Q 3081 4231 2675 4231 
Q 1875 4231 1450 3742 
Q 1025 3253 1025 2328 
Q 1025 1406 1450 917 
Q 1875 428 2675 428 
Q 3081 428 3442 575 
Q 3803 722 4122 1019 
L 4122 359 
Q 3791 134 3420 21 
Q 3050 -91 2638 -91 
Q 1578 -91 968 557 
Q 359 1206 359 2328 
Q 359 3453 968 4101 
Q 1578 4750 2638 4750 
Q 3056 4750 3426 4639 
Q 3797 4528 4122 4306 
z
" id="DejaVuSans-43" transform="scale(0.015625)"/>
       <path d="M 3328 2828 
Q 3544 3216 3844 3400 
Q 4144 3584 4550 3584 
Q 5097 3584 5394 3201 
Q 5691 2819 5691 2113 
L 5691 0 
L 5113 0 
L 5113 2094 
Q 5113 2597 4934 2840 
Q 4756 3084 4391 3084 
Q 3944 3084 3684 2787 
Q 3425 2491 3425 1978 
L 3425 0 
L 2847 0 
L 2847 2094 
Q 2847 2600 2669 2842 
Q 2491 3084 2119 3084 
Q 1678 3084 1418 2786 
Q 1159 2488 1159 1978 
L 1159 0 
L 581 0 
L 581 3500 
L 1159 3500 
L 1159 2956 
Q 1356 3278 1631 3431 
Q 1906 3584 2284 3584 
Q 2666 3584 2933 3390 
Q 3200 3197 3328 2828 
z
" id="DejaVuSans-6d" transform="scale(0.015625)"/>
       <path d="M 544 1381 
L 544 3500 
L 1119 3500 
L 1119 1403 
Q 1119 906 1312 657 
Q 1506 409 1894 409 
Q 2359 409 2629 706 
Q 2900 1003 2900 1516 
L 2900 3500 
L 3475 3500 
L 3475 0 
L 2900 0 
L 2900 538 
Q 2691 219 2414 64 
Q 2138 -91 1772 -91 
Q 1169 -91 856 284 
Q 544 659 544 1381 
z
M 1991 3584 
L 1991 3584 
z
" id="DejaVuSans-75" transform="scale(0.015625)"/>
       <path d="M 3513 2113 
L 3513 0 
L 2938 0 
L 2938 2094 
Q 2938 2591 2744 2837 
Q 2550 3084 2163 3084 
Q 1697 3084 1428 2787 
Q 1159 2491 1159 1978 
L 1159 0 
L 581 0 
L 581 3500 
L 1159 3500 
L 1159 2956 
Q 1366 3272 1645 3428 
Q 1925 3584 2291 3584 
Q 2894 3584 3203 3211 
Q 3513 2838 3513 2113 
z
" id="DejaVuSans-6e" transform="scale(0.015625)"/>
       <path d="M 603 3500 
L 1178 3500 
L 1178 0 
L 603 0 
L 603 3500 
z
M 603 4863 
L 1178 4863 
L 1178 4134 
L 603 4134 
L 603 4863 
z
" id="DejaVuSans-69" transform="scale(0.015625)"/>
       <path d="M 3122 3366 
L 3122 2828 
Q 2878 2963 2633 3030 
Q 2388 3097 2138 3097 
Q 1578 3097 1268 2742 
Q 959 2388 959 1747 
Q 959 1106 1268 751 
Q 1578 397 2138 397 
Q 2388 397 2633 464 
Q 2878 531 3122 666 
L 3122 134 
Q 2881 22 2623 -34 
Q 2366 -91 2075 -91 
Q 1284 -91 818 406 
Q 353 903 353 1747 
Q 353 2603 823 3093 
Q 1294 3584 2113 3584 
Q 2378 3584 2631 3529 
Q 2884 3475 3122 3366 
z
" id="DejaVuSans-63" transform="scale(0.015625)"/>
       <path d="M 1172 4494 
L 1172 3500 
L 2356 3500 
L 2356 3053 
L 1172 3053 
L 1172 1153 
Q 1172 725 1289 603 
Q 1406 481 1766 481 
L 2356 481 
L 2356 0 
L 1766 0 
Q 1100 0 847 248 
Q 594 497 594 1153 
L 594 3053 
L 172 3053 
L 172 3500 
L 594 3500 
L 594 4494 
L 1172 4494 
z
" id="DejaVuSans-74" transform="scale(0.015625)"/>
       <path d="M 2841 2188 
Q 3044 2119 3236 1894 
Q 3428 1669 3622 1275 
L 4263 0 
L 3584 0 
L 2988 1197 
Q 2756 1666 2539 1819 
Q 2322 1972 1947 1972 
L 1259 1972 
L 1259 0 
L 628 0 
L 628 4666 
L 2053 4666 
Q 2853 4666 3247 4331 
Q 3641 3997 3641 3322 
Q 3641 2881 3436 2590 
Q 3231 2300 2841 2188 
z
M 1259 4147 
L 1259 2491 
L 2053 2491 
Q 2509 2491 2742 2702 
Q 2975 2913 2975 3322 
Q 2975 3731 2742 3939 
Q 2509 4147 2053 4147 
L 1259 4147 
z
" id="DejaVuSans-52" transform="scale(0.015625)"/>
       <path d="M 2906 2969 
L 2906 4863 
L 3481 4863 
L 3481 0 
L 2906 0 
L 2906 525 
Q 2725 213 2448 61 
Q 2172 -91 1784 -91 
Q 1150 -91 751 415 
Q 353 922 353 1747 
Q 353 2572 751 3078 
Q 1150 3584 1784 3584 
Q 2172 3584 2448 3432 
Q 2725 3281 2906 2969 
z
M 947 1747 
Q 947 1113 1208 752 
Q 1469 391 1925 391 
Q 2381 391 2643 752 
Q 2906 1113 2906 1747 
Q 2906 2381 2643 2742 
Q 2381 3103 1925 3103 
Q 1469 3103 1208 2742 
Q 947 2381 947 1747 
z
" id="DejaVuSans-64" transform="scale(0.015625)"/>
       <path d="M 2834 3397 
L 2834 2853 
Q 2591 2978 2328 3040 
Q 2066 3103 1784 3103 
Q 1356 3103 1142 2972 
Q 928 2841 928 2578 
Q 928 2378 1081 2264 
Q 1234 2150 1697 2047 
L 1894 2003 
Q 2506 1872 2764 1633 
Q 3022 1394 3022 966 
Q 3022 478 2636 193 
Q 2250 -91 1575 -91 
Q 1294 -91 989 -36 
Q 684 19 347 128 
L 347 722 
Q 666 556 975 473 
Q 1284 391 1588 391 
Q 1994 391 2212 530 
Q 2431 669 2431 922 
Q 2431 1156 2273 1281 
Q 2116 1406 1581 1522 
L 1381 1569 
Q 847 1681 609 1914 
Q 372 2147 372 2553 
Q 372 3047 722 3315 
Q 1072 3584 1716 3584 
Q 2034 3584 2315 3537 
Q 2597 3491 2834 3397 
z
" id="DejaVuSans-73" transform="scale(0.015625)"/>
      </defs>
      <use xlink:href="#DejaVuSans-47"/>
      <use x="77.490234" xlink:href="#DejaVuSans-6c"/>
      <use x="105.273438" xlink:href="#DejaVuSans-6f"/>
      <use x="166.455078" xlink:href="#DejaVuSans-62"/>
      <use x="229.931641" xlink:href="#DejaVuSans-61"/>
      <use x="291.210938" xlink:href="#DejaVuSans-6c"/>
      <use x="318.994141" xlink:href="#DejaVuSans-20"/>
      <use x="350.78125" xlink:href="#DejaVuSans-43"/>
      <use x="420.605469" xlink:href="#DejaVuSans-6f"/>
      <use x="481.787109" xlink:href="#DejaVuSans-6d"/>
      <use x="579.199219" xlink:href="#DejaVuSans-6d"/>
      <use x="676.611328" xlink:href="#DejaVuSans-75"/>
      <use x="739.990234" xlink:href="#DejaVuSans-6e"/>
      <use x="803.369141" xlink:href="#DejaVuSans-69"/>
      <use x="831.152344" xlink:href="#DejaVuSans-63"/>
      <use x="886.132812" xlink:href="#DejaVuSans-61"/>
      <use x="947.412109" xlink:href="#DejaVuSans-74"/>
      <use x="986.621094" xlink:href="#DejaVuSans-69"/>
      <use x="1014.404297" xlink:href="#DejaVuSans-6f"/>
      <use x="1075.585938" xlink:href="#DejaVuSans-6e"/>
      <use x="1138.964844" xlink:href="#DejaVuSans-20"/>
      <use x="1170.751953" xlink:href="#DejaVuSans-52"/>
      <use x="1235.734375" xlink:href="#DejaVuSans-6f"/>
      <use x="1296.916016" xlink:href="#DejaVuSans-75"/>
      <use x="1360.294922" xlink:href="#DejaVuSans-6e"/>
      <use x="1423.673828" xlink:href="#DejaVuSans-64"/>
      <use x="1487.150391" xlink:href="#DejaVuSans-73"/>
     </g>
    </g>
   </g>
   <g id="matplotlib.axis_2">
    <g id="ytick_1">
     <g id="line2d_7">
      <defs>
       <path d="M 0 0 
L -3.5 0 
" id="m186100d7a1" style="stroke:#000000;stroke-width:0.8;"/>
      </defs>
      <g>
       <use style="stroke:#000000;stroke-width:0.8;" x="50.87" xlink:href="#m186100d7a1" y="301.356828"/>
      </g>
     </g>
     <g id="text_8">
      <!-- 84 -->
      <g transform="translate(31.145 305.156046)scale(0.1 -0.1)">
       <defs>
        <path d="M 2034 2216 
Q 1584 2216 1326 1975 
Q 1069 1734 1069 1313 
Q 1069 891 1326 650 
Q 1584 409 2034 409 
Q 2484 409 2743 651 
Q 3003 894 3003 1313 
Q 3003 1734 2745 1975 
Q 2488 2216 2034 2216 
z
M 1403 2484 
Q 997 2584 770 2862 
Q 544 3141 544 3541 
Q 544 4100 942 4425 
Q 1341 4750 2034 4750 
Q 2731 4750 3128 4425 
Q 3525 4100 3525 3541 
Q 3525 3141 3298 2862 
Q 3072 2584 2669 2484 
Q 3125 2378 3379 2068 
Q 3634 1759 3634 1313 
Q 3634 634 3220 271 
Q 2806 -91 2034 -91 
Q 1263 -91 848 271 
Q 434 634 434 1313 
Q 434 1759 690 2068 
Q 947 2378 1403 2484 
z
M 1172 3481 
Q 1172 3119 1398 2916 
Q 1625 2713 2034 2713 
Q 2441 2713 2670 2916 
Q 2900 3119 2900 3481 
Q 2900 3844 2670 4047 
Q 2441 4250 2034 4250 
Q 1625 4250 1398 4047 
Q 1172 3844 1172 3481 
z
" id="DejaVuSans-38" transform="scale(0.015625)"/>
       </defs>
       <use xlink:href="#DejaVuSans-38"/>
       <use x="63.623047" xlink:href="#DejaVuSans-34"/>
      </g>
     </g>
    </g>
    <g id="ytick_2">
     <g id="line2d_8">
      <g>
       <use style="stroke:#000000;stroke-width:0.8;" x="50.87" xlink:href="#m186100d7a1" y="268.398089"/>
      </g>
     </g>
     <g id="text_9">
      <!-- 86 -->
      <g transform="translate(31.145 272.197308)scale(0.1 -0.1)">
       <defs>
        <path d="M 2113 2584 
Q 1688 2584 1439 2293 
Q 1191 2003 1191 1497 
Q 1191 994 1439 701 
Q 1688 409 2113 409 
Q 2538 409 2786 701 
Q 3034 994 3034 1497 
Q 3034 2003 2786 2293 
Q 2538 2584 2113 2584 
z
M 3366 4563 
L 3366 3988 
Q 3128 4100 2886 4159 
Q 2644 4219 2406 4219 
Q 1781 4219 1451 3797 
Q 1122 3375 1075 2522 
Q 1259 2794 1537 2939 
Q 1816 3084 2150 3084 
Q 2853 3084 3261 2657 
Q 3669 2231 3669 1497 
Q 3669 778 3244 343 
Q 2819 -91 2113 -91 
Q 1303 -91 875 529 
Q 447 1150 447 2328 
Q 447 3434 972 4092 
Q 1497 4750 2381 4750 
Q 2619 4750 2861 4703 
Q 3103 4656 3366 4563 
z
" id="DejaVuSans-36" transform="scale(0.015625)"/>
       </defs>
       <use xlink:href="#DejaVuSans-38"/>
       <use x="63.623047" xlink:href="#DejaVuSans-36"/>
      </g>
     </g>
    </g>
    <g id="ytick_3">
     <g id="line2d_9">
      <g>
       <use style="stroke:#000000;stroke-width:0.8;" x="50.87" xlink:href="#m186100d7a1" y="235.439351"/>
      </g>
     </g>
     <g id="text_10">
      <!-- 88 -->
      <g transform="translate(31.145 239.238569)scale(0.1 -0.1)">
       <use xlink:href="#DejaVuSans-38"/>
       <use x="63.623047" xlink:href="#DejaVuSans-38"/>
      </g>
     </g>
    </g>
    <g id="ytick_4">
     <g id="line2d_10">
      <g>
       <use style="stroke:#000000;stroke-width:0.8;" x="50.87" xlink:href="#m186100d7a1" y="202.480612"/>
      </g>
     </g>
     <g id="text_11">
      <!-- 90 -->
      <g transform="translate(31.145 206.279831)scale(0.1 -0.1)">
       <defs>
        <path d="M 703 97 
L 703 672 
Q 941 559 1184 500 
Q 1428 441 1663 441 
Q 2288 441 2617 861 
Q 2947 1281 2994 2138 
Q 2813 1869 2534 1725 
Q 2256 1581 1919 1581 
Q 1219 1581 811 2004 
Q 403 2428 403 3163 
Q 403 3881 828 4315 
Q 1253 4750 1959 4750 
Q 2769 4750 3195 4129 
Q 3622 3509 3622 2328 
Q 3622 1225 3098 567 
Q 2575 -91 1691 -91 
Q 1453 -91 1209 -44 
Q 966 3 703 97 
z
M 1959 2075 
Q 2384 2075 2632 2365 
Q 2881 2656 2881 3163 
Q 2881 3666 2632 3958 
Q 2384 4250 1959 4250 
Q 1534 4250 1286 3958 
Q 1038 3666 1038 3163 
Q 1038 2656 1286 2365 
Q 1534 2075 1959 2075 
z
" id="DejaVuSans-39" transform="scale(0.015625)"/>
       </defs>
       <use xlink:href="#DejaVuSans-39"/>
       <use x="63.623047" xlink:href="#DejaVuSans-30"/>
      </g>
     </g>
    </g>
    <g id="ytick_5">
     <g id="line2d_11">
      <g>
       <use style="stroke:#000000;stroke-width:0.8;" x="50.87" xlink:href="#m186100d7a1" y="169.521874"/>
      </g>
     </g>
     <g id="text_12">
      <!-- 92 -->
      <g transform="translate(31.145 173.321092)scale(0.1 -0.1)">
       <use xlink:href="#DejaVuSans-39"/>
       <use x="63.623047" xlink:href="#DejaVuSans-32"/>
      </g>
     </g>
    </g>
    <g id="ytick_6">
     <g id="line2d_12">
      <g>
       <use style="stroke:#000000;stroke-width:0.8;" x="50.87" xlink:href="#m186100d7a1" y="136.563135"/>
      </g>
     </g>
     <g id="text_13">
      <!-- 94 -->
      <g transform="translate(31.145 140.362354)scale(0.1 -0.1)">
       <use xlink:href="#DejaVuSans-39"/>
       <use x="63.623047" xlink:href="#DejaVuSans-34"/>
      </g>
     </g>
    </g>
    <g id="ytick_7">
     <g id="line2d_13">
      <g>
       <use style="stroke:#000000;stroke-width:0.8;" x="50.87" xlink:href="#m186100d7a1" y="103.604397"/>
      </g>
     </g>
     <g id="text_14">
      <!-- 96 -->
      <g transform="translate(31.145 107.403615)scale(0.1 -0.1)">
       <use xlink:href="#DejaVuSans-39"/>
       <use x="63.623047" xlink:href="#DejaVuSans-36"/>
      </g>
     </g>
    </g>
    <g id="ytick_8">
     <g id="line2d_14">
      <g>
       <use style="stroke:#000000;stroke-width:0.8;" x="50.87" xlink:href="#m186100d7a1" y="70.645658"/>
      </g>
     </g>
     <g id="text_15">
      <!-- 98 -->
      <g transform="translate(31.145 74.444877)scale(0.1 -0.1)">
       <use xlink:href="#DejaVuSans-39"/>
       <use x="63.623047" xlink:href="#DejaVuSans-38"/>
      </g>
     </g>
    </g>
    <g id="ytick_9">
     <g id="line2d_15">
      <g>
       <use style="stroke:#000000;stroke-width:0.8;" x="50.87" xlink:href="#m186100d7a1" y="37.68692"/>
      </g>
     </g>
     <g id="text_16">
      <!-- 100 -->
      <g transform="translate(24.7825 41.486138)scale(0.1 -0.1)">
       <use xlink:href="#DejaVuSans-31"/>
       <use x="63.623047" xlink:href="#DejaVuSans-30"/>
       <use x="127.246094" xlink:href="#DejaVuSans-30"/>
      </g>
     </g>
    </g>
    <g id="text_17">
     <!-- Test Accuracy -->
     <g transform="translate(18.702813 202.520914)rotate(-90)scale(0.1 -0.1)">
      <defs>
       <path d="M -19 4666 
L 3928 4666 
L 3928 4134 
L 2272 4134 
L 2272 0 
L 1638 0 
L 1638 4134 
L -19 4134 
L -19 4666 
z
" id="DejaVuSans-54" transform="scale(0.015625)"/>
       <path d="M 3597 1894 
L 3597 1613 
L 953 1613 
Q 991 1019 1311 708 
Q 1631 397 2203 397 
Q 2534 397 2845 478 
Q 3156 559 3463 722 
L 3463 178 
Q 3153 47 2828 -22 
Q 2503 -91 2169 -91 
Q 1331 -91 842 396 
Q 353 884 353 1716 
Q 353 2575 817 3079 
Q 1281 3584 2069 3584 
Q 2775 3584 3186 3129 
Q 3597 2675 3597 1894 
z
M 3022 2063 
Q 3016 2534 2758 2815 
Q 2500 3097 2075 3097 
Q 1594 3097 1305 2825 
Q 1016 2553 972 2059 
L 3022 2063 
z
" id="DejaVuSans-65" transform="scale(0.015625)"/>
       <path d="M 2188 4044 
L 1331 1722 
L 3047 1722 
L 2188 4044 
z
M 1831 4666 
L 2547 4666 
L 4325 0 
L 3669 0 
L 3244 1197 
L 1141 1197 
L 716 0 
L 50 0 
L 1831 4666 
z
" id="DejaVuSans-41" transform="scale(0.015625)"/>
       <path d="M 2631 2963 
Q 2534 3019 2420 3045 
Q 2306 3072 2169 3072 
Q 1681 3072 1420 2755 
Q 1159 2438 1159 1844 
L 1159 0 
L 581 0 
L 581 3500 
L 1159 3500 
L 1159 2956 
Q 1341 3275 1631 3429 
Q 1922 3584 2338 3584 
Q 2397 3584 2469 3576 
Q 2541 3569 2628 3553 
L 2631 2963 
z
" id="DejaVuSans-72" transform="scale(0.015625)"/>
       <path d="M 2059 -325 
Q 1816 -950 1584 -1140 
Q 1353 -1331 966 -1331 
L 506 -1331 
L 506 -850 
L 844 -850 
Q 1081 -850 1212 -737 
Q 1344 -625 1503 -206 
L 1606 56 
L 191 3500 
L 800 3500 
L 1894 763 
L 2988 3500 
L 3597 3500 
L 2059 -325 
z
" id="DejaVuSans-79" transform="scale(0.015625)"/>
      </defs>
      <use xlink:href="#DejaVuSans-54"/>
      <use x="44.083984" xlink:href="#DejaVuSans-65"/>
      <use x="105.607422" xlink:href="#DejaVuSans-73"/>
      <use x="157.707031" xlink:href="#DejaVuSans-74"/>
      <use x="196.916016" xlink:href="#DejaVuSans-20"/>
      <use x="228.703125" xlink:href="#DejaVuSans-41"/>
      <use x="295.361328" xlink:href="#DejaVuSans-63"/>
      <use x="350.341797" xlink:href="#DejaVuSans-63"/>
      <use x="405.322266" xlink:href="#DejaVuSans-75"/>
      <use x="468.701172" xlink:href="#DejaVuSans-72"/>
      <use x="509.814453" xlink:href="#DejaVuSans-61"/>
      <use x="571.09375" xlink:href="#DejaVuSans-63"/>
      <use x="626.074219" xlink:href="#DejaVuSans-79"/>
     </g>
    </g>
   </g>
   <g id="line2d_16">
    <path clip-path="url(#pb5093ade1d)" d="M 69.012273 248.789726 
L 76.417282 130.722346 
L 83.822291 104.855994 
L 91.227301 97.346408 
L 98.63231 91.922818 
L 106.037319 83.996033 
L 113.442328 85.66483 
L 120.847338 76.069248 
L 128.252347 73.148853 
L 135.657356 70.645658 
L 143.062365 67.308064 
L 150.467375 69.81126 
L 157.872384 63.553271 
L 165.277393 63.136072 
L 172.682403 56.043685 
L 180.087412 59.381279 
L 187.492421 59.798478 
L 194.89743 58.96408 
L 202.30244 57.295283 
L 209.707449 55.626486 
L 217.112458 56.043685 
L 224.517468 52.706092 
L 231.922477 52.288892 
L 239.327486 53.123291 
L 246.732495 52.288892 
L 254.137505 51.037295 
L 261.542514 54.374889 
L 268.947523 52.288892 
L 276.352532 51.871693 
L 283.757542 49.368498 
L 291.162551 53.54049 
L 298.56756 51.454494 
L 305.97257 51.037295 
L 313.377579 49.785697 
L 320.782588 49.368498 
L 328.187597 48.534099 
L 335.592607 49.785697 
L 342.997616 51.037295 
L 350.402625 48.1169 
L 357.807635 48.1169 
L 365.212644 49.368498 
L 372.617653 48.534099 
L 380.022662 49.785697 
L 387.427672 48.951299 
L 394.832681 48.1169 
L 402.23769 48.951299 
L 409.642699 49.368498 
L 417.047709 48.951299 
L 424.452718 49.368498 
L 431.857727 48.534099 
" style="fill:none;stroke:#1f77b4;stroke-linecap:square;stroke-width:1.5;"/>
   </g>
   <g id="line2d_17">
    <path clip-path="url(#pb5093ade1d)" d="M 69.012273 253.378917 
L 76.417282 132.808342 
L 83.822291 108.610787 
L 91.227301 97.346408 
L 98.63231 91.922818 
L 106.037319 85.66483 
L 113.442328 86.499229 
L 120.847338 80.658439 
L 128.252347 77.738045 
L 135.657356 74.81765 
L 143.062365 71.480057 
L 150.467375 72.314455 
L 157.872384 67.308064 
L 165.277393 69.81126 
L 172.682403 65.222068 
L 180.087412 67.725264 
L 187.492421 69.81126 
L 194.89743 69.39406 
L 202.30244 65.222068 
L 209.707449 63.136072 
L 217.112458 60.632877 
L 224.517468 58.546881 
L 231.922477 60.632877 
L 239.327486 57.712482 
L 246.732495 58.129682 
L 254.137505 59.798478 
L 261.542514 59.798478 
L 268.947523 57.295283 
L 276.352532 59.381279 
L 283.757542 58.129682 
L 291.162551 56.043685 
L 298.56756 55.626486 
L 305.97257 56.878084 
L 313.377579 56.460885 
L 320.782588 55.209287 
L 328.187597 54.374889 
L 335.592607 54.792088 
L 342.997616 57.295283 
L 350.402625 54.792088 
L 357.807635 53.123291 
L 365.212644 56.460885 
L 372.617653 53.123291 
L 380.022662 53.957689 
L 387.427672 53.957689 
L 394.832681 55.209287 
L 402.23769 56.460885 
L 409.642699 52.288892 
L 417.047709 56.043685 
L 424.452718 56.043685 
L 431.857727 53.957689 
" style="fill:none;stroke:#ff7f0e;stroke-linecap:square;stroke-width:1.5;"/>
   </g>
   <g id="line2d_18">
    <path clip-path="url(#pb5093ade1d)" d="M 69.012273 251.292921 
L 76.417282 132.808342 
L 83.822291 104.021596 
L 91.227301 96.929209 
L 98.63231 90.671221 
L 106.037319 84.830432 
L 113.442328 81.492838 
L 120.847338 73.566053 
L 128.252347 71.897256 
L 135.657356 73.148853 
L 143.062365 73.148853 
L 150.467375 73.148853 
L 157.872384 73.148853 
L 165.277393 73.148853 
L 172.682403 73.148853 
L 180.087412 73.148853 
L 187.492421 73.148853 
L 194.89743 73.148853 
L 202.30244 73.148853 
L 209.707449 73.148853 
L 217.112458 73.148853 
L 224.517468 73.148853 
L 231.922477 73.148853 
L 239.327486 73.148853 
L 246.732495 73.148853 
L 254.137505 73.148853 
L 261.542514 73.148853 
L 268.947523 73.148853 
L 276.352532 73.148853 
L 283.757542 73.148853 
L 291.162551 73.148853 
L 298.56756 73.148853 
L 305.97257 73.148853 
L 313.377579 73.148853 
L 320.782588 73.148853 
L 328.187597 73.148853 
L 335.592607 73.148853 
L 342.997616 73.148853 
L 350.402625 73.148853 
L 357.807635 73.148853 
L 365.212644 73.148853 
L 372.617653 73.148853 
L 380.022662 73.148853 
L 387.427672 73.148853 
L 394.832681 73.148853 
L 402.23769 73.148853 
L 409.642699 73.148853 
L 417.047709 73.148853 
L 424.452718 73.148853 
L 431.857727 73.148853 
" style="fill:none;stroke:#2ca02c;stroke-linecap:square;stroke-width:1.5;"/>
   </g>
   <g id="line2d_19">
    <path clip-path="url(#pb5093ade1d)" d="M 69.012273 242.228851 
L 76.417282 145.857499 
L 83.822291 114.711492 
L 91.227301 103.241851 
L 98.63231 94.969207 
L 106.037319 88.311542 
L 113.442328 84.290576 
L 120.847338 80.665115 
L 128.252347 79.511559 
L 135.657356 76.578231 
L 143.062365 75.161005 
L 150.467375 74.304078 
L 157.872384 72.227678 
L 165.277393 71.172998 
L 172.682403 70.118318 
L 180.087412 69.689855 
L 187.492421 69.492102 
L 194.89743 68.964762 
L 202.30244 68.668134 
L 209.707449 67.481619 
L 217.112458 66.756527 
L 224.517468 67.152032 
L 231.922477 66.361022 
L 239.327486 65.833682 
L 246.732495 65.471136 
L 254.137505 65.306343 
L 261.542514 64.515333 
L 268.947523 64.515333 
L 276.352532 64.976755 
L 283.757542 64.251663 
L 291.162551 64.746044 
L 298.56756 64.449415 
L 305.97257 63.922076 
L 313.377579 65.339301 
L 320.782588 64.020952 
L 328.187597 64.152787 
L 335.592607 64.350539 
L 342.997616 64.284622 
L 350.402625 63.823199 
L 357.807635 64.383498 
L 365.212644 64.152787 
L 372.617653 63.724323 
L 380.022662 63.856158 
L 387.427672 63.790241 
L 394.832681 64.185745 
L 402.23769 64.119828 
L 409.642699 63.526571 
L 417.047709 63.164025 
L 424.452718 63.229942 
L 431.857727 63.460653 
" style="fill:none;stroke:#d62728;stroke-linecap:square;stroke-width:1.5;"/>
   </g>
   <g id="patch_3">
    <path d="M 50.87 303.64 
L 50.87 32.876829 
" style="fill:none;stroke:#000000;stroke-linecap:square;stroke-linejoin:miter;stroke-width:0.8;"/>
   </g>
   <g id="patch_4">
    <path d="M 450 303.64 
L 450 32.876829 
" style="fill:none;stroke:#000000;stroke-linecap:square;stroke-linejoin:miter;stroke-width:0.8;"/>
   </g>
   <g id="patch_5">
    <path d="M 50.87 303.64 
L 450 303.64 
" style="fill:none;stroke:#000000;stroke-linecap:square;stroke-linejoin:miter;stroke-width:0.8;"/>
   </g>
   <g id="patch_6">
    <path d="M 50.87 32.876829 
L 450 32.876829 
" style="fill:none;stroke:#000000;stroke-linecap:square;stroke-linejoin:miter;stroke-width:0.8;"/>
   </g>
   <g id="legend_1">
    <g id="patch_7">
     <path d="M 84.036563 28.478637 
L 416.833438 28.478637 
Q 418.833438 28.478637 418.833438 26.478637 
L 418.833438 12.800512 
Q 418.833438 10.800512 416.833438 10.800512 
L 84.036563 10.800512 
Q 82.036563 10.800512 82.036563 12.800512 
L 82.036563 26.478637 
Q 82.036563 28.478637 84.036563 28.478637 
z
" style="fill:#ffffff;opacity:0.8;stroke:#cccccc;stroke-linejoin:miter;"/>
    </g>
    <g id="line2d_20">
     <path d="M 86.036563 18.898949 
L 106.036563 18.898949 
" style="fill:none;stroke:#1f77b4;stroke-linecap:square;stroke-width:1.5;"/>
    </g>
    <g id="line2d_21"/>
    <g id="text_18">
     <!-- FedAvg -->
     <g transform="translate(114.036563 22.398949)scale(0.1 -0.1)">
      <defs>
       <path d="M 628 4666 
L 3309 4666 
L 3309 4134 
L 1259 4134 
L 1259 2759 
L 3109 2759 
L 3109 2228 
L 1259 2228 
L 1259 0 
L 628 0 
L 628 4666 
z
" id="DejaVuSans-46" transform="scale(0.015625)"/>
       <path d="M 191 3500 
L 800 3500 
L 1894 563 
L 2988 3500 
L 3597 3500 
L 2284 0 
L 1503 0 
L 191 3500 
z
" id="DejaVuSans-76" transform="scale(0.015625)"/>
       <path d="M 2906 1791 
Q 2906 2416 2648 2759 
Q 2391 3103 1925 3103 
Q 1463 3103 1205 2759 
Q 947 2416 947 1791 
Q 947 1169 1205 825 
Q 1463 481 1925 481 
Q 2391 481 2648 825 
Q 2906 1169 2906 1791 
z
M 3481 434 
Q 3481 -459 3084 -895 
Q 2688 -1331 1869 -1331 
Q 1566 -1331 1297 -1286 
Q 1028 -1241 775 -1147 
L 775 -588 
Q 1028 -725 1275 -790 
Q 1522 -856 1778 -856 
Q 2344 -856 2625 -561 
Q 2906 -266 2906 331 
L 2906 616 
Q 2728 306 2450 153 
Q 2172 0 1784 0 
Q 1141 0 747 490 
Q 353 981 353 1791 
Q 353 2603 747 3093 
Q 1141 3584 1784 3584 
Q 2172 3584 2450 3431 
Q 2728 3278 2906 2969 
L 2906 3500 
L 3481 3500 
L 3481 434 
z
" id="DejaVuSans-67" transform="scale(0.015625)"/>
      </defs>
      <use xlink:href="#DejaVuSans-46"/>
      <use x="52.019531" xlink:href="#DejaVuSans-65"/>
      <use x="113.542969" xlink:href="#DejaVuSans-64"/>
      <use x="177.019531" xlink:href="#DejaVuSans-41"/>
      <use x="239.552734" xlink:href="#DejaVuSans-76"/>
      <use x="298.732422" xlink:href="#DejaVuSans-67"/>
     </g>
    </g>
    <g id="line2d_22">
     <path d="M 170.26 18.898949 
L 190.26 18.898949 
" style="fill:none;stroke:#ff7f0e;stroke-linecap:square;stroke-width:1.5;"/>
    </g>
    <g id="line2d_23"/>
    <g id="text_19">
     <!-- FedMed -->
     <g transform="translate(198.26 22.398949)scale(0.1 -0.1)">
      <defs>
       <path d="M 628 4666 
L 1569 4666 
L 2759 1491 
L 3956 4666 
L 4897 4666 
L 4897 0 
L 4281 0 
L 4281 4097 
L 3078 897 
L 2444 897 
L 1241 4097 
L 1241 0 
L 628 0 
L 628 4666 
z
" id="DejaVuSans-4d" transform="scale(0.015625)"/>
      </defs>
      <use xlink:href="#DejaVuSans-46"/>
      <use x="52.019531" xlink:href="#DejaVuSans-65"/>
      <use x="113.542969" xlink:href="#DejaVuSans-64"/>
      <use x="177.019531" xlink:href="#DejaVuSans-4d"/>
      <use x="263.298828" xlink:href="#DejaVuSans-65"/>
      <use x="324.822266" xlink:href="#DejaVuSans-64"/>
     </g>
    </g>
    <g id="line2d_24">
     <path d="M 257.092813 18.898949 
L 277.092813 18.898949 
" style="fill:none;stroke:#2ca02c;stroke-linecap:square;stroke-width:1.5;"/>
    </g>
    <g id="line2d_25"/>
    <g id="text_20">
     <!-- FedProx -->
     <g transform="translate(285.092813 22.398949)scale(0.1 -0.1)">
      <defs>
       <path d="M 1259 4147 
L 1259 2394 
L 2053 2394 
Q 2494 2394 2734 2622 
Q 2975 2850 2975 3272 
Q 2975 3691 2734 3919 
Q 2494 4147 2053 4147 
L 1259 4147 
z
M 628 4666 
L 2053 4666 
Q 2838 4666 3239 4311 
Q 3641 3956 3641 3272 
Q 3641 2581 3239 2228 
Q 2838 1875 2053 1875 
L 1259 1875 
L 1259 0 
L 628 0 
L 628 4666 
z
" id="DejaVuSans-50" transform="scale(0.015625)"/>
       <path d="M 3513 3500 
L 2247 1797 
L 3578 0 
L 2900 0 
L 1881 1375 
L 863 0 
L 184 0 
L 1544 1831 
L 300 3500 
L 978 3500 
L 1906 2253 
L 2834 3500 
L 3513 3500 
z
" id="DejaVuSans-78" transform="scale(0.015625)"/>
      </defs>
      <use xlink:href="#DejaVuSans-46"/>
      <use x="52.019531" xlink:href="#DejaVuSans-65"/>
      <use x="113.542969" xlink:href="#DejaVuSans-64"/>
      <use x="177.019531" xlink:href="#DejaVuSans-50"/>
      <use x="235.572266" xlink:href="#DejaVuSans-72"/>
      <use x="274.435547" xlink:href="#DejaVuSans-6f"/>
      <use x="332.492188" xlink:href="#DejaVuSans-78"/>
     </g>
    </g>
    <g id="line2d_26">
     <path d="M 344.261563 18.898949 
L 364.261563 18.898949 
" style="fill:none;stroke:#d62728;stroke-linecap:square;stroke-width:1.5;"/>
    </g>
    <g id="line2d_27"/>
    <g id="text_21">
     <!-- qFedAvg -->
     <g transform="translate(372.261563 22.398949)scale(0.1 -0.1)">
      <defs>
       <path d="M 947 1747 
Q 947 1113 1208 752 
Q 1469 391 1925 391 
Q 2381 391 2643 752 
Q 2906 1113 2906 1747 
Q 2906 2381 2643 2742 
Q 2381 3103 1925 3103 
Q 1469 3103 1208 2742 
Q 947 2381 947 1747 
z
M 2906 525 
Q 2725 213 2448 61 
Q 2172 -91 1784 -91 
Q 1150 -91 751 415 
Q 353 922 353 1747 
Q 353 2572 751 3078 
Q 1150 3584 1784 3584 
Q 2172 3584 2448 3432 
Q 2725 3281 2906 2969 
L 2906 3500 
L 3481 3500 
L 3481 -1331 
L 2906 -1331 
L 2906 525 
z
" id="DejaVuSans-71" transform="scale(0.015625)"/>
      </defs>
      <use xlink:href="#DejaVuSans-71"/>
      <use x="63.476562" xlink:href="#DejaVuSans-46"/>
      <use x="115.496094" xlink:href="#DejaVuSans-65"/>
      <use x="177.019531" xlink:href="#DejaVuSans-64"/>
      <use x="240.496094" xlink:href="#DejaVuSans-41"/>
      <use x="303.029297" xlink:href="#DejaVuSans-76"/>
      <use x="362.208984" xlink:href="#DejaVuSans-67"/>
     </g>
    </g>
   </g>
  </g>
 </g>
 <defs>
  <clipPath id="pb5093ade1d">
   <rect height="270.763171" width="399.13" x="50.87" y="32.876829"/>
  </clipPath>
 </defs>
</svg>
