<?xml version="1.0" encoding="utf-8" standalone="no"?>
<!DOCTYPE svg PUBLIC "-//W3C//DTD SVG 1.1//EN"
  "http://www.w3.org/Graphics/SVG/1.1/DTD/svg11.dtd">
<svg height="345.6pt" version="1.1" viewBox="0 0 460.8 345.6" width="460.8pt" xmlns="http://www.w3.org/2000/svg" xmlns:xlink="http://www.w3.org/1999/xlink">
 <metadata>
  <rdf:RDF xmlns:cc="http://creativecommons.org/ns#" xmlns:dc="http://purl.org/dc/elements/1.1/" xmlns:rdf="http://www.w3.org/1999/02/22-rdf-syntax-ns#">
   <cc:Work>
    <dc:type rdf:resource="http://purl.org/dc/dcmitype/StillImage"/>
    <dc:date>2021-04-27T22:08:12.106539</dc:date>
    <dc:format>image/svg+xml</dc:format>
    <dc:creator>
     <cc:Agent>
      <dc:title>Matplotlib v3.4.1, https://matplotlib.org/</dc:title>
     </cc:Agent>
    </dc:creator>
   </cc:Work>
  </rdf:RDF>
 </metadata>
 <defs>
  <style type="text/css">*{stroke-linecap:butt;stroke-linejoin:round;}</style>
 </defs>
 <g id="figure_1">
  <g id="patch_1">
   <path d="M 0 345.6 
L 460.8 345.6 
L 460.8 0 
L 0 0 
z
" style="fill:#ffffff;"/>
  </g>
  <g id="axes_1">
   <g id="patch_2">
    <path d="M 44.57 303.64 
L 366.25 303.64 
L 366.25 26.88 
L 44.57 26.88 
z
" style="fill:#ffffff;"/>
   </g>
   <g id="PolyCollection_1">
    <path clip-path="url(#pef0d4a3545)" d="M 59.191818 93.356787 
L 59.191818 211.444923 
L 65.159907 92.436015 
L 71.127996 86.639381 
L 77.096085 81.924775 
L 83.064174 78.612587 
L 89.032263 74.362759 
L 95.000353 73.15151 
L 100.968442 71.69805 
L 106.936531 67.593019 
L 112.90462 63.133036 
L 118.872709 64.233351 
L 124.840798 65.740564 
L 130.808887 63.41094 
L 136.776976 60.545692 
L 142.745065 62.806356 
L 148.713154 60.660178 
L 154.681243 63.841129 
L 160.649332 59.911728 
L 166.617421 57.658517 
L 172.58551 57.079629 
L 178.553599 57.99195 
L 184.521688 56.913374 
L 190.489777 56.434079 
L 196.457866 55.850135 
L 202.425955 56.161255 
L 208.394045 53.634261 
L 214.362134 54.244437 
L 220.330223 55.359787 
L 226.298312 53.904804 
L 232.266401 54.587743 
L 238.23449 51.474897 
L 244.202579 53.790839 
L 250.170668 53.310021 
L 256.138757 51.622223 
L 262.106846 53.359391 
L 268.074935 51.900127 
L 274.043024 50.627336 
L 280.011113 51.845341 
L 285.979202 48.576241 
L 291.947291 48.918479 
L 297.91538 48.540631 
L 303.883469 49.515718 
L 309.851558 49.204347 
L 315.819647 45.797196 
L 321.787737 49.102557 
L 327.755826 46.820244 
L 333.723915 45.129738 
L 339.692004 47.380492 
L 345.660093 47.630878 
L 351.628182 45.540266 
L 351.628182 42.495975 
L 351.628182 42.495975 
L 345.660093 44.296025 
L 339.692004 44.546411 
L 333.723915 41.794885 
L 327.755826 40.104379 
L 321.787737 43.380155 
L 315.819647 39.46 
L 309.851558 42.722557 
L 303.883469 45.746039 
L 297.91538 43.386272 
L 291.947291 45.23166 
L 285.979202 42.239044 
L 280.011113 46.751269 
L 274.043024 46.857656 
L 268.074935 43.361629 
L 262.106846 44.125601 
L 256.138757 43.083725 
L 250.170668 43.619162 
L 244.202579 45.36158 
L 238.23449 44.898477 
L 232.266401 46.232103 
L 226.298312 47.470851 
L 220.330223 46.571677 
L 214.362134 48.798644 
L 208.394045 48.853012 
L 202.425955 50.772488 
L 196.457866 49.416182 
L 190.489777 50.499664 
L 184.521688 50.576178 
L 178.553599 50.053411 
L 172.58551 52.633158 
L 166.617421 50.942653 
L 160.649332 52.580105 
L 154.681243 53.652983 
L 148.713154 53.499081 
L 142.745065 53.02033 
L 136.776976 58.060039 
L 130.808887 59.641261 
L 124.840798 60.646491 
L 118.872709 62.153704 
L 112.90462 59.363357 
L 106.936531 64.352124 
L 100.968442 66.916801 
L 95.000353 64.907532 
L 89.032263 67.031136 
L 83.064174 74.453294 
L 77.096085 75.587578 
L 71.127996 81.98915 
L 65.159907 86.197076 
L 59.191818 93.356787 
z
" style="fill:#1f77b4;fill-opacity:0.5;"/>
   </g>
   <g id="PolyCollection_2">
    <path clip-path="url(#pef0d4a3545)" d="M 59.191818 90.599312 
L 59.191818 268.671669 
L 65.159907 100.560298 
L 71.127996 90.51032 
L 77.096085 85.897031 
L 83.064174 78.645661 
L 89.032263 77.868619 
L 95.000353 73.913924 
L 100.968442 72.417428 
L 106.936531 68.417564 
L 112.90462 65.436513 
L 118.872709 66.60442 
L 124.840798 64.717365 
L 130.808887 65.674766 
L 136.776976 63.783807 
L 142.745065 62.41485 
L 148.713154 60.82501 
L 154.681243 64.719605 
L 160.649332 63.83189 
L 166.617421 61.506199 
L 172.58551 59.927441 
L 178.553599 59.780249 
L 184.521688 58.267287 
L 190.489777 61.70083 
L 196.457866 60.398996 
L 202.425955 61.044353 
L 208.394045 60.218735 
L 214.362134 57.03265 
L 220.330223 59.507525 
L 226.298312 58.862778 
L 232.266401 60.437562 
L 238.23449 56.899742 
L 244.202579 59.000376 
L 250.170668 57.532263 
L 256.138757 57.293707 
L 262.106846 57.239657 
L 268.074935 55.758874 
L 274.043024 53.634261 
L 280.011113 54.990709 
L 285.979202 56.142741 
L 291.947291 55.114397 
L 297.91538 55.672704 
L 303.883469 53.634261 
L 309.851558 57.11607 
L 315.819647 56.221331 
L 321.787737 52.294762 
L 327.755826 50.819036 
L 333.723915 54.382742 
L 339.692004 54.210844 
L 345.660093 51.901325 
L 351.628182 53.601187 
L 351.628182 49.441894 
L 351.628182 49.441894 
L 345.660093 47.251094 
L 339.692004 48.276429 
L 333.723915 48.660339 
L 327.755826 48.333383 
L 321.787737 48.525083 
L 315.819647 46.82175 
L 309.851558 46.48282 
L 303.883469 48.853012 
L 297.91538 46.814568 
L 291.947291 47.372875 
L 285.979202 48.011958 
L 280.011113 50.831416 
L 274.043024 48.853012 
L 268.074935 48.951633 
L 262.106846 50.805704 
L 256.138757 51.307462 
L 250.170668 49.40148 
L 244.202579 49.600794 
L 238.23449 48.922384 
L 232.266401 53.721697 
L 226.298312 51.405819 
L 220.330223 47.982027 
L 214.362134 53.791755 
L 208.394045 54.496333 
L 202.425955 53.670715 
L 196.457866 55.42769 
L 190.489777 53.570047 
L 184.521688 53.112927 
L 178.553599 54.934819 
L 172.58551 53.1202 
L 166.617421 53.764677 
L 160.649332 55.329649 
L 154.681243 56.665169 
L 148.713154 57.78072 
L 142.745065 56.746689 
L 136.776976 59.268394 
L 130.808887 57.933244 
L 124.840798 60.558072 
L 118.872709 61.450061 
L 112.90462 61.506351 
L 106.936531 62.971771 
L 100.968442 65.085805 
L 95.000353 67.479971 
L 89.032263 70.750792 
L 83.064174 73.864412 
L 77.096085 80.508264 
L 71.127996 84.787917 
L 65.159907 85.298308 
L 59.191818 90.599312 
z
" style="fill:#ff7f0e;fill-opacity:0.5;"/>
   </g>
   <g id="PolyCollection_3">
    <path clip-path="url(#pef0d4a3545)" d="M 59.191818 116.913308 
L 59.191818 125.081997 
L 65.159907 96.068409 
L 71.127996 90.52618 
L 77.096085 83.39633 
L 83.064174 79.764619 
L 89.032263 74.031801 
L 95.000353 71.69805 
L 100.968442 68.195807 
L 106.936531 66.759306 
L 112.90462 65.957085 
L 118.872709 65.020982 
L 124.840798 63.721262 
L 130.808887 63.605747 
L 136.776976 62.675382 
L 142.745065 60.064784 
L 148.713154 60.970292 
L 154.681243 60.86837 
L 160.649332 58.792154 
L 166.617421 58.545192 
L 172.58551 59.213124 
L 178.553599 57.255612 
L 184.521688 56.656444 
L 190.489777 57.09938 
L 196.457866 55.99553 
L 202.425955 56.656444 
L 208.394045 55.327542 
L 214.362134 58.659346 
L 220.330223 55.611682 
L 226.298312 55.073807 
L 232.266401 52.911063 
L 238.23449 53.591787 
L 244.202579 54.119522 
L 250.170668 52.832638 
L 256.138757 52.667629 
L 262.106846 52.283459 
L 268.074935 53.601187 
L 274.043024 52.487877 
L 280.011113 53.078452 
L 285.979202 53.744776 
L 291.947291 52.389725 
L 297.91538 52.294762 
L 303.883469 53.904804 
L 309.851558 51.59758 
L 315.819647 50.132018 
L 321.787737 49.298305 
L 327.755826 51.881602 
L 333.723915 49.504415 
L 339.692004 49.429514 
L 345.660093 51.165211 
L 351.628182 51.992689 
L 351.628182 46.603921 
L 351.628182 46.603921 
L 345.660093 46.319781 
L 339.692004 46.943861 
L 333.723915 47.424768 
L 327.755826 46.159199 
L 321.787737 44.851834 
L 315.819647 47.908783 
L 309.851558 46.443221 
L 303.883469 47.470851 
L 297.91538 48.525083 
L 291.947291 47.874312 
L 285.979202 48.186687 
L 280.011113 48.297203 
L 274.043024 49.443586 
L 268.074935 49.441894 
L 262.106846 50.203813 
L 256.138757 48.152216 
L 250.170668 47.987208 
L 244.202579 50.035177 
L 238.23449 52.230339 
L 232.266401 50.687827 
L 226.298312 51.304128 
L 220.330223 50.766252 
L 214.362134 49.941824 
L 208.394045 49.938775 
L 202.425955 53.612153 
L 196.457866 53.161449 
L 190.489777 53.169217 
L 184.521688 53.612153 
L 178.553599 53.568793 
L 172.58551 53.278709 
L 166.617421 53.390832 
L 160.649332 57.034532 
L 154.681243 57.181551 
L 148.713154 58.747056 
L 142.745065 57.985137 
L 136.776976 56.486157 
L 130.808887 59.446454 
L 124.840798 60.998366 
L 118.872709 58.587029 
L 112.90462 60.985779 
L 106.936531 63.518411 
L 100.968442 63.749336 
L 95.000353 66.916801 
L 89.032263 67.362094 
L 83.064174 71.633836 
L 77.096085 75.227641 
L 71.127996 82.548822 
L 65.159907 90.346006 
L 59.191818 116.913308 
z
" style="fill:#2ca02c;fill-opacity:0.5;"/>
   </g>
   <g id="PolyCollection_4">
    <path clip-path="url(#pef0d4a3545)" d="M 59.191818 248.857765 
L 59.191818 291.06 
L 65.159907 162.277476 
L 71.127996 135.419638 
L 77.096085 124.306301 
L 83.064174 118.790014 
L 89.032263 114.267593 
L 95.000353 110.857288 
L 100.968442 108.203817 
L 106.936531 104.88384 
L 112.90462 102.695126 
L 118.872709 101.064178 
L 124.840798 99.330657 
L 130.808887 97.878997 
L 136.776976 96.052763 
L 142.745065 94.436429 
L 148.713154 93.550287 
L 154.681243 92.118932 
L 160.649332 90.587841 
L 166.617421 89.454986 
L 172.58551 88.151973 
L 178.553599 87.111203 
L 184.521688 85.779045 
L 190.489777 84.893794 
L 196.457866 83.773769 
L 202.425955 83.177411 
L 208.394045 82.489201 
L 214.362134 81.776699 
L 220.330223 81.193744 
L 226.298312 80.642139 
L 232.266401 80.005859 
L 238.23449 79.718796 
L 244.202579 79.375215 
L 250.170668 79.00904 
L 256.138757 78.45534 
L 262.106846 78.139176 
L 268.074935 77.62839 
L 274.043024 77.246224 
L 280.011113 77.025723 
L 285.979202 76.858111 
L 291.947291 76.66438 
L 297.91538 76.198808 
L 303.883469 76.24699 
L 309.851558 75.648423 
L 315.819647 75.047048 
L 321.787737 74.610785 
L 327.755826 74.6369 
L 333.723915 74.503475 
L 339.692004 74.626056 
L 345.660093 74.051439 
L 351.628182 73.990833 
L 351.628182 72.151893 
L 351.628182 72.151893 
L 345.660093 72.223014 
L 339.692004 72.263121 
L 333.723915 72.693065 
L 327.755826 72.779185 
L 321.787737 72.761391 
L 315.819647 72.808125 
L 309.851558 72.99711 
L 303.883469 73.276722 
L 297.91538 73.368812 
L 291.947291 73.913145 
L 285.979202 74.114595 
L 280.011113 74.386071 
L 274.043024 74.912021 
L 268.074935 75.100671 
L 262.106846 75.907152 
L 256.138757 75.634898 
L 250.170668 76.003284 
L 244.202579 76.734832 
L 238.23449 77.093793 
L 232.266401 77.684909 
L 226.298312 78.58544 
L 220.330223 79.307193 
L 214.362134 79.646325 
L 208.394045 80.163272 
L 202.425955 80.484968 
L 196.457866 80.986332 
L 190.489777 81.930025 
L 184.521688 82.362041 
L 178.553599 83.357056 
L 172.58551 84.248277 
L 166.617421 85.49198 
L 160.649332 86.642388 
L 154.681243 88.009284 
L 148.713154 89.34419 
L 142.745065 90.873038 
L 136.776976 91.935147 
L 130.808887 93.577717 
L 124.840798 95.243589 
L 118.872709 96.18851 
L 112.90462 97.806821 
L 106.936531 99.833362 
L 100.968442 101.870271 
L 95.000353 104.398051 
L 89.032263 108.232714 
L 83.064174 111.613896 
L 77.096085 115.889295 
L 71.127996 125.237506 
L 65.159907 149.796993 
L 59.191818 248.857765 
z
" style="fill:#d62728;fill-opacity:0.5;"/>
   </g>
   <g id="matplotlib.axis_1">
    <g id="xtick_1">
     <g id="line2d_1">
      <path clip-path="url(#pef0d4a3545)" d="M 59.191818 303.64 
L 59.191818 26.88 
" style="fill:none;stroke:#b0b0b0;stroke-linecap:square;stroke-width:0.8;"/>
     </g>
     <g id="line2d_2">
      <defs>
       <path d="M 0 0 
L 0 3.5 
" id="m8fce73b4b6" style="stroke:#000000;stroke-width:0.8;"/>
      </defs>
      <g>
       <use style="stroke:#000000;stroke-width:0.8;" x="59.191818" xlink:href="#m8fce73b4b6" y="303.64"/>
      </g>
     </g>
     <g id="text_1">
      <!-- 0 -->
      <g transform="translate(56.010568 318.238437)scale(0.1 -0.1)">
       <defs>
        <path d="M 2034 4250 
Q 1547 4250 1301 3770 
Q 1056 3291 1056 2328 
Q 1056 1369 1301 889 
Q 1547 409 2034 409 
Q 2525 409 2770 889 
Q 3016 1369 3016 2328 
Q 3016 3291 2770 3770 
Q 2525 4250 2034 4250 
z
M 2034 4750 
Q 2819 4750 3233 4129 
Q 3647 3509 3647 2328 
Q 3647 1150 3233 529 
Q 2819 -91 2034 -91 
Q 1250 -91 836 529 
Q 422 1150 422 2328 
Q 422 3509 836 4129 
Q 1250 4750 2034 4750 
z
" id="DejaVuSans-30" transform="scale(0.015625)"/>
       </defs>
       <use xlink:href="#DejaVuSans-30"/>
      </g>
     </g>
    </g>
    <g id="xtick_2">
     <g id="line2d_3">
      <path clip-path="url(#pef0d4a3545)" d="M 118.872709 303.64 
L 118.872709 26.88 
" style="fill:none;stroke:#b0b0b0;stroke-linecap:square;stroke-width:0.8;"/>
     </g>
     <g id="line2d_4">
      <g>
       <use style="stroke:#000000;stroke-width:0.8;" x="118.872709" xlink:href="#m8fce73b4b6" y="303.64"/>
      </g>
     </g>
     <g id="text_2">
      <!-- 10 -->
      <g transform="translate(112.510209 318.238437)scale(0.1 -0.1)">
       <defs>
        <path d="M 794 531 
L 1825 531 
L 1825 4091 
L 703 3866 
L 703 4441 
L 1819 4666 
L 2450 4666 
L 2450 531 
L 3481 531 
L 3481 0 
L 794 0 
L 794 531 
z
" id="DejaVuSans-31" transform="scale(0.015625)"/>
       </defs>
       <use xlink:href="#DejaVuSans-31"/>
       <use x="63.623047" xlink:href="#DejaVuSans-30"/>
      </g>
     </g>
    </g>
    <g id="xtick_3">
     <g id="line2d_5">
      <path clip-path="url(#pef0d4a3545)" d="M 178.553599 303.64 
L 178.553599 26.88 
" style="fill:none;stroke:#b0b0b0;stroke-linecap:square;stroke-width:0.8;"/>
     </g>
     <g id="line2d_6">
      <g>
       <use style="stroke:#000000;stroke-width:0.8;" x="178.553599" xlink:href="#m8fce73b4b6" y="303.64"/>
      </g>
     </g>
     <g id="text_3">
      <!-- 20 -->
      <g transform="translate(172.191099 318.238437)scale(0.1 -0.1)">
       <defs>
        <path d="M 1228 531 
L 3431 531 
L 3431 0 
L 469 0 
L 469 531 
Q 828 903 1448 1529 
Q 2069 2156 2228 2338 
Q 2531 2678 2651 2914 
Q 2772 3150 2772 3378 
Q 2772 3750 2511 3984 
Q 2250 4219 1831 4219 
Q 1534 4219 1204 4116 
Q 875 4013 500 3803 
L 500 4441 
Q 881 4594 1212 4672 
Q 1544 4750 1819 4750 
Q 2544 4750 2975 4387 
Q 3406 4025 3406 3419 
Q 3406 3131 3298 2873 
Q 3191 2616 2906 2266 
Q 2828 2175 2409 1742 
Q 1991 1309 1228 531 
z
" id="DejaVuSans-32" transform="scale(0.015625)"/>
       </defs>
       <use xlink:href="#DejaVuSans-32"/>
       <use x="63.623047" xlink:href="#DejaVuSans-30"/>
      </g>
     </g>
    </g>
    <g id="xtick_4">
     <g id="line2d_7">
      <path clip-path="url(#pef0d4a3545)" d="M 238.23449 303.64 
L 238.23449 26.88 
" style="fill:none;stroke:#b0b0b0;stroke-linecap:square;stroke-width:0.8;"/>
     </g>
     <g id="line2d_8">
      <g>
       <use style="stroke:#000000;stroke-width:0.8;" x="238.23449" xlink:href="#m8fce73b4b6" y="303.64"/>
      </g>
     </g>
     <g id="text_4">
      <!-- 30 -->
      <g transform="translate(231.87199 318.238437)scale(0.1 -0.1)">
       <defs>
        <path d="M 2597 2516 
Q 3050 2419 3304 2112 
Q 3559 1806 3559 1356 
Q 3559 666 3084 287 
Q 2609 -91 1734 -91 
Q 1441 -91 1130 -33 
Q 819 25 488 141 
L 488 750 
Q 750 597 1062 519 
Q 1375 441 1716 441 
Q 2309 441 2620 675 
Q 2931 909 2931 1356 
Q 2931 1769 2642 2001 
Q 2353 2234 1838 2234 
L 1294 2234 
L 1294 2753 
L 1863 2753 
Q 2328 2753 2575 2939 
Q 2822 3125 2822 3475 
Q 2822 3834 2567 4026 
Q 2313 4219 1838 4219 
Q 1578 4219 1281 4162 
Q 984 4106 628 3988 
L 628 4550 
Q 988 4650 1302 4700 
Q 1616 4750 1894 4750 
Q 2613 4750 3031 4423 
Q 3450 4097 3450 3541 
Q 3450 3153 3228 2886 
Q 3006 2619 2597 2516 
z
" id="DejaVuSans-33" transform="scale(0.015625)"/>
       </defs>
       <use xlink:href="#DejaVuSans-33"/>
       <use x="63.623047" xlink:href="#DejaVuSans-30"/>
      </g>
     </g>
    </g>
    <g id="xtick_5">
     <g id="line2d_9">
      <path clip-path="url(#pef0d4a3545)" d="M 297.91538 303.64 
L 297.91538 26.88 
" style="fill:none;stroke:#b0b0b0;stroke-linecap:square;stroke-width:0.8;"/>
     </g>
     <g id="line2d_10">
      <g>
       <use style="stroke:#000000;stroke-width:0.8;" x="297.91538" xlink:href="#m8fce73b4b6" y="303.64"/>
      </g>
     </g>
     <g id="text_5">
      <!-- 40 -->
      <g transform="translate(291.55288 318.238437)scale(0.1 -0.1)">
       <defs>
        <path d="M 2419 4116 
L 825 1625 
L 2419 1625 
L 2419 4116 
z
M 2253 4666 
L 3047 4666 
L 3047 1625 
L 3713 1625 
L 3713 1100 
L 3047 1100 
L 3047 0 
L 2419 0 
L 2419 1100 
L 313 1100 
L 313 1709 
L 2253 4666 
z
" id="DejaVuSans-34" transform="scale(0.015625)"/>
       </defs>
       <use xlink:href="#DejaVuSans-34"/>
       <use x="63.623047" xlink:href="#DejaVuSans-30"/>
      </g>
     </g>
    </g>
    <g id="xtick_6">
     <g id="line2d_11">
      <path clip-path="url(#pef0d4a3545)" d="M 357.596271 303.64 
L 357.596271 26.88 
" style="fill:none;stroke:#b0b0b0;stroke-linecap:square;stroke-width:0.8;"/>
     </g>
     <g id="line2d_12">
      <g>
       <use style="stroke:#000000;stroke-width:0.8;" x="357.596271" xlink:href="#m8fce73b4b6" y="303.64"/>
      </g>
     </g>
     <g id="text_6">
      <!-- 50 -->
      <g transform="translate(351.233771 318.238437)scale(0.1 -0.1)">
       <defs>
        <path d="M 691 4666 
L 3169 4666 
L 3169 4134 
L 1269 4134 
L 1269 2991 
Q 1406 3038 1543 3061 
Q 1681 3084 1819 3084 
Q 2600 3084 3056 2656 
Q 3513 2228 3513 1497 
Q 3513 744 3044 326 
Q 2575 -91 1722 -91 
Q 1428 -91 1123 -41 
Q 819 9 494 109 
L 494 744 
Q 775 591 1075 516 
Q 1375 441 1709 441 
Q 2250 441 2565 725 
Q 2881 1009 2881 1497 
Q 2881 1984 2565 2268 
Q 2250 2553 1709 2553 
Q 1456 2553 1204 2497 
Q 953 2441 691 2322 
L 691 4666 
z
" id="DejaVuSans-35" transform="scale(0.015625)"/>
       </defs>
       <use xlink:href="#DejaVuSans-35"/>
       <use x="63.623047" xlink:href="#DejaVuSans-30"/>
      </g>
     </g>
    </g>
    <g id="text_7">
     <!-- Global Communication Rounds -->
     <g transform="translate(128.448281 331.916562)scale(0.1 -0.1)">
      <defs>
       <path d="M 3809 666 
L 3809 1919 
L 2778 1919 
L 2778 2438 
L 4434 2438 
L 4434 434 
Q 4069 175 3628 42 
Q 3188 -91 2688 -91 
Q 1594 -91 976 548 
Q 359 1188 359 2328 
Q 359 3472 976 4111 
Q 1594 4750 2688 4750 
Q 3144 4750 3555 4637 
Q 3966 4525 4313 4306 
L 4313 3634 
Q 3963 3931 3569 4081 
Q 3175 4231 2741 4231 
Q 1884 4231 1454 3753 
Q 1025 3275 1025 2328 
Q 1025 1384 1454 906 
Q 1884 428 2741 428 
Q 3075 428 3337 486 
Q 3600 544 3809 666 
z
" id="DejaVuSans-47" transform="scale(0.015625)"/>
       <path d="M 603 4863 
L 1178 4863 
L 1178 0 
L 603 0 
L 603 4863 
z
" id="DejaVuSans-6c" transform="scale(0.015625)"/>
       <path d="M 1959 3097 
Q 1497 3097 1228 2736 
Q 959 2375 959 1747 
Q 959 1119 1226 758 
Q 1494 397 1959 397 
Q 2419 397 2687 759 
Q 2956 1122 2956 1747 
Q 2956 2369 2687 2733 
Q 2419 3097 1959 3097 
z
M 1959 3584 
Q 2709 3584 3137 3096 
Q 3566 2609 3566 1747 
Q 3566 888 3137 398 
Q 2709 -91 1959 -91 
Q 1206 -91 779 398 
Q 353 888 353 1747 
Q 353 2609 779 3096 
Q 1206 3584 1959 3584 
z
" id="DejaVuSans-6f" transform="scale(0.015625)"/>
       <path d="M 3116 1747 
Q 3116 2381 2855 2742 
Q 2594 3103 2138 3103 
Q 1681 3103 1420 2742 
Q 1159 2381 1159 1747 
Q 1159 1113 1420 752 
Q 1681 391 2138 391 
Q 2594 391 2855 752 
Q 3116 1113 3116 1747 
z
M 1159 2969 
Q 1341 3281 1617 3432 
Q 1894 3584 2278 3584 
Q 2916 3584 3314 3078 
Q 3713 2572 3713 1747 
Q 3713 922 3314 415 
Q 2916 -91 2278 -91 
Q 1894 -91 1617 61 
Q 1341 213 1159 525 
L 1159 0 
L 581 0 
L 581 4863 
L 1159 4863 
L 1159 2969 
z
" id="DejaVuSans-62" transform="scale(0.015625)"/>
       <path d="M 2194 1759 
Q 1497 1759 1228 1600 
Q 959 1441 959 1056 
Q 959 750 1161 570 
Q 1363 391 1709 391 
Q 2188 391 2477 730 
Q 2766 1069 2766 1631 
L 2766 1759 
L 2194 1759 
z
M 3341 1997 
L 3341 0 
L 2766 0 
L 2766 531 
Q 2569 213 2275 61 
Q 1981 -91 1556 -91 
Q 1019 -91 701 211 
Q 384 513 384 1019 
Q 384 1609 779 1909 
Q 1175 2209 1959 2209 
L 2766 2209 
L 2766 2266 
Q 2766 2663 2505 2880 
Q 2244 3097 1772 3097 
Q 1472 3097 1187 3025 
Q 903 2953 641 2809 
L 641 3341 
Q 956 3463 1253 3523 
Q 1550 3584 1831 3584 
Q 2591 3584 2966 3190 
Q 3341 2797 3341 1997 
z
" id="DejaVuSans-61" transform="scale(0.015625)"/>
       <path id="DejaVuSans-20" transform="scale(0.015625)"/>
       <path d="M 4122 4306 
L 4122 3641 
Q 3803 3938 3442 4084 
Q 3081 4231 2675 4231 
Q 1875 4231 1450 3742 
Q 1025 3253 1025 2328 
Q 1025 1406 1450 917 
Q 1875 428 2675 428 
Q 3081 428 3442 575 
Q 3803 722 4122 1019 
L 4122 359 
Q 3791 134 3420 21 
Q 3050 -91 2638 -91 
Q 1578 -91 968 557 
Q 359 1206 359 2328 
Q 359 3453 968 4101 
Q 1578 4750 2638 4750 
Q 3056 4750 3426 4639 
Q 3797 4528 4122 4306 
z
" id="DejaVuSans-43" transform="scale(0.015625)"/>
       <path d="M 3328 2828 
Q 3544 3216 3844 3400 
Q 4144 3584 4550 3584 
Q 5097 3584 5394 3201 
Q 5691 2819 5691 2113 
L 5691 0 
L 5113 0 
L 5113 2094 
Q 5113 2597 4934 2840 
Q 4756 3084 4391 3084 
Q 3944 3084 3684 2787 
Q 3425 2491 3425 1978 
L 3425 0 
L 2847 0 
L 2847 2094 
Q 2847 2600 2669 2842 
Q 2491 3084 2119 3084 
Q 1678 3084 1418 2786 
Q 1159 2488 1159 1978 
L 1159 0 
L 581 0 
L 581 3500 
L 1159 3500 
L 1159 2956 
Q 1356 3278 1631 3431 
Q 1906 3584 2284 3584 
Q 2666 3584 2933 3390 
Q 3200 3197 3328 2828 
z
" id="DejaVuSans-6d" transform="scale(0.015625)"/>
       <path d="M 544 1381 
L 544 3500 
L 1119 3500 
L 1119 1403 
Q 1119 906 1312 657 
Q 1506 409 1894 409 
Q 2359 409 2629 706 
Q 2900 1003 2900 1516 
L 2900 3500 
L 3475 3500 
L 3475 0 
L 2900 0 
L 2900 538 
Q 2691 219 2414 64 
Q 2138 -91 1772 -91 
Q 1169 -91 856 284 
Q 544 659 544 1381 
z
M 1991 3584 
L 1991 3584 
z
" id="DejaVuSans-75" transform="scale(0.015625)"/>
       <path d="M 3513 2113 
L 3513 0 
L 2938 0 
L 2938 2094 
Q 2938 2591 2744 2837 
Q 2550 3084 2163 3084 
Q 1697 3084 1428 2787 
Q 1159 2491 1159 1978 
L 1159 0 
L 581 0 
L 581 3500 
L 1159 3500 
L 1159 2956 
Q 1366 3272 1645 3428 
Q 1925 3584 2291 3584 
Q 2894 3584 3203 3211 
Q 3513 2838 3513 2113 
z
" id="DejaVuSans-6e" transform="scale(0.015625)"/>
       <path d="M 603 3500 
L 1178 3500 
L 1178 0 
L 603 0 
L 603 3500 
z
M 603 4863 
L 1178 4863 
L 1178 4134 
L 603 4134 
L 603 4863 
z
" id="DejaVuSans-69" transform="scale(0.015625)"/>
       <path d="M 3122 3366 
L 3122 2828 
Q 2878 2963 2633 3030 
Q 2388 3097 2138 3097 
Q 1578 3097 1268 2742 
Q 959 2388 959 1747 
Q 959 1106 1268 751 
Q 1578 397 2138 397 
Q 2388 397 2633 464 
Q 2878 531 3122 666 
L 3122 134 
Q 2881 22 2623 -34 
Q 2366 -91 2075 -91 
Q 1284 -91 818 406 
Q 353 903 353 1747 
Q 353 2603 823 3093 
Q 1294 3584 2113 3584 
Q 2378 3584 2631 3529 
Q 2884 3475 3122 3366 
z
" id="DejaVuSans-63" transform="scale(0.015625)"/>
       <path d="M 1172 4494 
L 1172 3500 
L 2356 3500 
L 2356 3053 
L 1172 3053 
L 1172 1153 
Q 1172 725 1289 603 
Q 1406 481 1766 481 
L 2356 481 
L 2356 0 
L 1766 0 
Q 1100 0 847 248 
Q 594 497 594 1153 
L 594 3053 
L 172 3053 
L 172 3500 
L 594 3500 
L 594 4494 
L 1172 4494 
z
" id="DejaVuSans-74" transform="scale(0.015625)"/>
       <path d="M 2841 2188 
Q 3044 2119 3236 1894 
Q 3428 1669 3622 1275 
L 4263 0 
L 3584 0 
L 2988 1197 
Q 2756 1666 2539 1819 
Q 2322 1972 1947 1972 
L 1259 1972 
L 1259 0 
L 628 0 
L 628 4666 
L 2053 4666 
Q 2853 4666 3247 4331 
Q 3641 3997 3641 3322 
Q 3641 2881 3436 2590 
Q 3231 2300 2841 2188 
z
M 1259 4147 
L 1259 2491 
L 2053 2491 
Q 2509 2491 2742 2702 
Q 2975 2913 2975 3322 
Q 2975 3731 2742 3939 
Q 2509 4147 2053 4147 
L 1259 4147 
z
" id="DejaVuSans-52" transform="scale(0.015625)"/>
       <path d="M 2906 2969 
L 2906 4863 
L 3481 4863 
L 3481 0 
L 2906 0 
L 2906 525 
Q 2725 213 2448 61 
Q 2172 -91 1784 -91 
Q 1150 -91 751 415 
Q 353 922 353 1747 
Q 353 2572 751 3078 
Q 1150 3584 1784 3584 
Q 2172 3584 2448 3432 
Q 2725 3281 2906 2969 
z
M 947 1747 
Q 947 1113 1208 752 
Q 1469 391 1925 391 
Q 2381 391 2643 752 
Q 2906 1113 2906 1747 
Q 2906 2381 2643 2742 
Q 2381 3103 1925 3103 
Q 1469 3103 1208 2742 
Q 947 2381 947 1747 
z
" id="DejaVuSans-64" transform="scale(0.015625)"/>
       <path d="M 2834 3397 
L 2834 2853 
Q 2591 2978 2328 3040 
Q 2066 3103 1784 3103 
Q 1356 3103 1142 2972 
Q 928 2841 928 2578 
Q 928 2378 1081 2264 
Q 1234 2150 1697 2047 
L 1894 2003 
Q 2506 1872 2764 1633 
Q 3022 1394 3022 966 
Q 3022 478 2636 193 
Q 2250 -91 1575 -91 
Q 1294 -91 989 -36 
Q 684 19 347 128 
L 347 722 
Q 666 556 975 473 
Q 1284 391 1588 391 
Q 1994 391 2212 530 
Q 2431 669 2431 922 
Q 2431 1156 2273 1281 
Q 2116 1406 1581 1522 
L 1381 1569 
Q 847 1681 609 1914 
Q 372 2147 372 2553 
Q 372 3047 722 3315 
Q 1072 3584 1716 3584 
Q 2034 3584 2315 3537 
Q 2597 3491 2834 3397 
z
" id="DejaVuSans-73" transform="scale(0.015625)"/>
      </defs>
      <use xlink:href="#DejaVuSans-47"/>
      <use x="77.490234" xlink:href="#DejaVuSans-6c"/>
      <use x="105.273438" xlink:href="#DejaVuSans-6f"/>
      <use x="166.455078" xlink:href="#DejaVuSans-62"/>
      <use x="229.931641" xlink:href="#DejaVuSans-61"/>
      <use x="291.210938" xlink:href="#DejaVuSans-6c"/>
      <use x="318.994141" xlink:href="#DejaVuSans-20"/>
      <use x="350.78125" xlink:href="#DejaVuSans-43"/>
      <use x="420.605469" xlink:href="#DejaVuSans-6f"/>
      <use x="481.787109" xlink:href="#DejaVuSans-6d"/>
      <use x="579.199219" xlink:href="#DejaVuSans-6d"/>
      <use x="676.611328" xlink:href="#DejaVuSans-75"/>
      <use x="739.990234" xlink:href="#DejaVuSans-6e"/>
      <use x="803.369141" xlink:href="#DejaVuSans-69"/>
      <use x="831.152344" xlink:href="#DejaVuSans-63"/>
      <use x="886.132812" xlink:href="#DejaVuSans-61"/>
      <use x="947.412109" xlink:href="#DejaVuSans-74"/>
      <use x="986.621094" xlink:href="#DejaVuSans-69"/>
      <use x="1014.404297" xlink:href="#DejaVuSans-6f"/>
      <use x="1075.585938" xlink:href="#DejaVuSans-6e"/>
      <use x="1138.964844" xlink:href="#DejaVuSans-20"/>
      <use x="1170.751953" xlink:href="#DejaVuSans-52"/>
      <use x="1235.734375" xlink:href="#DejaVuSans-6f"/>
      <use x="1296.916016" xlink:href="#DejaVuSans-75"/>
      <use x="1360.294922" xlink:href="#DejaVuSans-6e"/>
      <use x="1423.673828" xlink:href="#DejaVuSans-64"/>
      <use x="1487.150391" xlink:href="#DejaVuSans-73"/>
     </g>
    </g>
   </g>
   <g id="matplotlib.axis_2">
    <g id="ytick_1">
     <g id="line2d_13">
      <path clip-path="url(#pef0d4a3545)" d="M 44.57 296.216406 
L 366.25 296.216406 
" style="fill:none;stroke:#b0b0b0;stroke-linecap:square;stroke-width:0.8;"/>
     </g>
     <g id="line2d_14">
      <defs>
       <path d="M 0 0 
L -3.5 0 
" id="m83adc7047a" style="stroke:#000000;stroke-width:0.8;"/>
      </defs>
      <g>
       <use style="stroke:#000000;stroke-width:0.8;" x="44.57" xlink:href="#m83adc7047a" y="296.216406"/>
      </g>
     </g>
     <g id="text_8">
      <!-- 75 -->
      <g transform="translate(24.845 300.015625)scale(0.1 -0.1)">
       <defs>
        <path d="M 525 4666 
L 3525 4666 
L 3525 4397 
L 1831 0 
L 1172 0 
L 2766 4134 
L 525 4134 
L 525 4666 
z
" id="DejaVuSans-37" transform="scale(0.015625)"/>
       </defs>
       <use xlink:href="#DejaVuSans-37"/>
       <use x="63.623047" xlink:href="#DejaVuSans-35"/>
      </g>
     </g>
    </g>
    <g id="ytick_2">
     <g id="line2d_15">
      <path clip-path="url(#pef0d4a3545)" d="M 44.57 241.330278 
L 366.25 241.330278 
" style="fill:none;stroke:#b0b0b0;stroke-linecap:square;stroke-width:0.8;"/>
     </g>
     <g id="line2d_16">
      <g>
       <use style="stroke:#000000;stroke-width:0.8;" x="44.57" xlink:href="#m83adc7047a" y="241.330278"/>
      </g>
     </g>
     <g id="text_9">
      <!-- 80 -->
      <g transform="translate(24.845 245.129497)scale(0.1 -0.1)">
       <defs>
        <path d="M 2034 2216 
Q 1584 2216 1326 1975 
Q 1069 1734 1069 1313 
Q 1069 891 1326 650 
Q 1584 409 2034 409 
Q 2484 409 2743 651 
Q 3003 894 3003 1313 
Q 3003 1734 2745 1975 
Q 2488 2216 2034 2216 
z
M 1403 2484 
Q 997 2584 770 2862 
Q 544 3141 544 3541 
Q 544 4100 942 4425 
Q 1341 4750 2034 4750 
Q 2731 4750 3128 4425 
Q 3525 4100 3525 3541 
Q 3525 3141 3298 2862 
Q 3072 2584 2669 2484 
Q 3125 2378 3379 2068 
Q 3634 1759 3634 1313 
Q 3634 634 3220 271 
Q 2806 -91 2034 -91 
Q 1263 -91 848 271 
Q 434 634 434 1313 
Q 434 1759 690 2068 
Q 947 2378 1403 2484 
z
M 1172 3481 
Q 1172 3119 1398 2916 
Q 1625 2713 2034 2713 
Q 2441 2713 2670 2916 
Q 2900 3119 2900 3481 
Q 2900 3844 2670 4047 
Q 2441 4250 2034 4250 
Q 1625 4250 1398 4047 
Q 1172 3844 1172 3481 
z
" id="DejaVuSans-38" transform="scale(0.015625)"/>
       </defs>
       <use xlink:href="#DejaVuSans-38"/>
       <use x="63.623047" xlink:href="#DejaVuSans-30"/>
      </g>
     </g>
    </g>
    <g id="ytick_3">
     <g id="line2d_17">
      <path clip-path="url(#pef0d4a3545)" d="M 44.57 186.44415 
L 366.25 186.44415 
" style="fill:none;stroke:#b0b0b0;stroke-linecap:square;stroke-width:0.8;"/>
     </g>
     <g id="line2d_18">
      <g>
       <use style="stroke:#000000;stroke-width:0.8;" x="44.57" xlink:href="#m83adc7047a" y="186.44415"/>
      </g>
     </g>
     <g id="text_10">
      <!-- 85 -->
      <g transform="translate(24.845 190.243368)scale(0.1 -0.1)">
       <use xlink:href="#DejaVuSans-38"/>
       <use x="63.623047" xlink:href="#DejaVuSans-35"/>
      </g>
     </g>
    </g>
    <g id="ytick_4">
     <g id="line2d_19">
      <path clip-path="url(#pef0d4a3545)" d="M 44.57 131.558021 
L 366.25 131.558021 
" style="fill:none;stroke:#b0b0b0;stroke-linecap:square;stroke-width:0.8;"/>
     </g>
     <g id="line2d_20">
      <g>
       <use style="stroke:#000000;stroke-width:0.8;" x="44.57" xlink:href="#m83adc7047a" y="131.558021"/>
      </g>
     </g>
     <g id="text_11">
      <!-- 90 -->
      <g transform="translate(24.845 135.35724)scale(0.1 -0.1)">
       <defs>
        <path d="M 703 97 
L 703 672 
Q 941 559 1184 500 
Q 1428 441 1663 441 
Q 2288 441 2617 861 
Q 2947 1281 2994 2138 
Q 2813 1869 2534 1725 
Q 2256 1581 1919 1581 
Q 1219 1581 811 2004 
Q 403 2428 403 3163 
Q 403 3881 828 4315 
Q 1253 4750 1959 4750 
Q 2769 4750 3195 4129 
Q 3622 3509 3622 2328 
Q 3622 1225 3098 567 
Q 2575 -91 1691 -91 
Q 1453 -91 1209 -44 
Q 966 3 703 97 
z
M 1959 2075 
Q 2384 2075 2632 2365 
Q 2881 2656 2881 3163 
Q 2881 3666 2632 3958 
Q 2384 4250 1959 4250 
Q 1534 4250 1286 3958 
Q 1038 3666 1038 3163 
Q 1038 2656 1286 2365 
Q 1534 2075 1959 2075 
z
" id="DejaVuSans-39" transform="scale(0.015625)"/>
       </defs>
       <use xlink:href="#DejaVuSans-39"/>
       <use x="63.623047" xlink:href="#DejaVuSans-30"/>
      </g>
     </g>
    </g>
    <g id="ytick_5">
     <g id="line2d_21">
      <path clip-path="url(#pef0d4a3545)" d="M 44.57 76.671893 
L 366.25 76.671893 
" style="fill:none;stroke:#b0b0b0;stroke-linecap:square;stroke-width:0.8;"/>
     </g>
     <g id="line2d_22">
      <g>
       <use style="stroke:#000000;stroke-width:0.8;" x="44.57" xlink:href="#m83adc7047a" y="76.671893"/>
      </g>
     </g>
     <g id="text_12">
      <!-- 95 -->
      <g transform="translate(24.845 80.471112)scale(0.1 -0.1)">
       <use xlink:href="#DejaVuSans-39"/>
       <use x="63.623047" xlink:href="#DejaVuSans-35"/>
      </g>
     </g>
    </g>
    <g id="text_13">
     <!-- Test Accuracy -->
     <g transform="translate(18.765313 199.5225)rotate(-90)scale(0.1 -0.1)">
      <defs>
       <path d="M -19 4666 
L 3928 4666 
L 3928 4134 
L 2272 4134 
L 2272 0 
L 1638 0 
L 1638 4134 
L -19 4134 
L -19 4666 
z
" id="DejaVuSans-54" transform="scale(0.015625)"/>
       <path d="M 3597 1894 
L 3597 1613 
L 953 1613 
Q 991 1019 1311 708 
Q 1631 397 2203 397 
Q 2534 397 2845 478 
Q 3156 559 3463 722 
L 3463 178 
Q 3153 47 2828 -22 
Q 2503 -91 2169 -91 
Q 1331 -91 842 396 
Q 353 884 353 1716 
Q 353 2575 817 3079 
Q 1281 3584 2069 3584 
Q 2775 3584 3186 3129 
Q 3597 2675 3597 1894 
z
M 3022 2063 
Q 3016 2534 2758 2815 
Q 2500 3097 2075 3097 
Q 1594 3097 1305 2825 
Q 1016 2553 972 2059 
L 3022 2063 
z
" id="DejaVuSans-65" transform="scale(0.015625)"/>
       <path d="M 2188 4044 
L 1331 1722 
L 3047 1722 
L 2188 4044 
z
M 1831 4666 
L 2547 4666 
L 4325 0 
L 3669 0 
L 3244 1197 
L 1141 1197 
L 716 0 
L 50 0 
L 1831 4666 
z
" id="DejaVuSans-41" transform="scale(0.015625)"/>
       <path d="M 2631 2963 
Q 2534 3019 2420 3045 
Q 2306 3072 2169 3072 
Q 1681 3072 1420 2755 
Q 1159 2438 1159 1844 
L 1159 0 
L 581 0 
L 581 3500 
L 1159 3500 
L 1159 2956 
Q 1341 3275 1631 3429 
Q 1922 3584 2338 3584 
Q 2397 3584 2469 3576 
Q 2541 3569 2628 3553 
L 2631 2963 
z
" id="DejaVuSans-72" transform="scale(0.015625)"/>
       <path d="M 2059 -325 
Q 1816 -950 1584 -1140 
Q 1353 -1331 966 -1331 
L 506 -1331 
L 506 -850 
L 844 -850 
Q 1081 -850 1212 -737 
Q 1344 -625 1503 -206 
L 1606 56 
L 191 3500 
L 800 3500 
L 1894 763 
L 2988 3500 
L 3597 3500 
L 2059 -325 
z
" id="DejaVuSans-79" transform="scale(0.015625)"/>
      </defs>
      <use xlink:href="#DejaVuSans-54"/>
      <use x="44.083984" xlink:href="#DejaVuSans-65"/>
      <use x="105.607422" xlink:href="#DejaVuSans-73"/>
      <use x="157.707031" xlink:href="#DejaVuSans-74"/>
      <use x="196.916016" xlink:href="#DejaVuSans-20"/>
      <use x="228.703125" xlink:href="#DejaVuSans-41"/>
      <use x="295.361328" xlink:href="#DejaVuSans-63"/>
      <use x="350.341797" xlink:href="#DejaVuSans-63"/>
      <use x="405.322266" xlink:href="#DejaVuSans-75"/>
      <use x="468.701172" xlink:href="#DejaVuSans-72"/>
      <use x="509.814453" xlink:href="#DejaVuSans-61"/>
      <use x="571.09375" xlink:href="#DejaVuSans-63"/>
      <use x="626.074219" xlink:href="#DejaVuSans-79"/>
     </g>
    </g>
   </g>
   <g id="line2d_23">
    <path clip-path="url(#pef0d4a3545)" d="M 59.191818 152.400855 
L 65.159907 89.316545 
L 71.127996 84.314265 
L 77.096085 78.756176 
L 83.064174 76.532941 
L 89.032263 70.696947 
L 95.000353 69.029521 
L 100.968442 69.307425 
L 106.936531 65.972572 
L 112.90462 61.248196 
L 118.872709 63.193527 
L 124.840798 63.193527 
L 130.808887 61.526101 
L 136.776976 59.302865 
L 142.745065 57.913343 
L 148.713154 57.079629 
L 154.681243 58.747056 
L 160.649332 56.245916 
L 166.617421 54.300585 
L 172.58551 54.856394 
L 178.553599 54.022681 
L 184.521688 53.744776 
L 190.489777 53.466872 
L 196.457866 52.633158 
L 202.425955 53.466872 
L 208.394045 51.243636 
L 214.362134 51.521541 
L 220.330223 50.965732 
L 226.298312 50.687827 
L 232.266401 50.409923 
L 238.23449 48.186687 
L 244.202579 49.576209 
L 250.170668 48.464592 
L 256.138757 47.352974 
L 262.106846 48.742496 
L 268.074935 47.630878 
L 274.043024 48.742496 
L 280.011113 49.298305 
L 285.979202 45.407643 
L 291.947291 47.075069 
L 297.91538 45.963452 
L 303.883469 47.630878 
L 309.851558 45.963452 
L 315.819647 42.628598 
L 321.787737 46.241356 
L 327.755826 43.462312 
L 333.723915 43.462312 
L 339.692004 45.963452 
L 345.660093 45.963452 
L 351.628182 44.01812 
" style="fill:none;stroke:#1f77b4;stroke-linecap:square;stroke-width:1.5;"/>
   </g>
   <g id="line2d_24">
    <path clip-path="url(#pef0d4a3545)" d="M 59.191818 179.635491 
L 65.159907 92.929303 
L 71.127996 87.649119 
L 77.096085 83.202648 
L 83.064174 76.255036 
L 89.032263 74.309705 
L 95.000353 70.696947 
L 100.968442 68.751616 
L 106.936531 65.694667 
L 112.90462 63.471432 
L 118.872709 64.027241 
L 124.840798 62.637718 
L 130.808887 61.804005 
L 136.776976 61.526101 
L 142.745065 59.580769 
L 148.713154 59.302865 
L 154.681243 60.692387 
L 160.649332 59.580769 
L 166.617421 57.635438 
L 172.58551 56.523821 
L 178.553599 57.357534 
L 184.521688 55.690107 
L 190.489777 57.635438 
L 196.457866 57.913343 
L 202.425955 57.357534 
L 208.394045 57.357534 
L 214.362134 55.412203 
L 220.330223 53.744776 
L 226.298312 55.134298 
L 232.266401 57.079629 
L 238.23449 52.911063 
L 244.202579 54.300585 
L 250.170668 53.466872 
L 256.138757 54.300585 
L 262.106846 54.022681 
L 268.074935 52.355254 
L 274.043024 51.243636 
L 280.011113 52.911063 
L 285.979202 52.077349 
L 291.947291 51.243636 
L 297.91538 51.243636 
L 303.883469 51.243636 
L 309.851558 51.799445 
L 315.819647 51.521541 
L 321.787737 50.409923 
L 327.755826 49.576209 
L 333.723915 51.521541 
L 339.692004 51.243636 
L 345.660093 49.576209 
L 351.628182 51.521541 
" style="fill:none;stroke:#ff7f0e;stroke-linecap:square;stroke-width:1.5;"/>
   </g>
   <g id="line2d_25">
    <path clip-path="url(#pef0d4a3545)" d="M 59.191818 120.997652 
L 65.159907 93.207208 
L 71.127996 86.537501 
L 77.096085 79.311985 
L 83.064174 75.699227 
L 89.032263 70.696947 
L 95.000353 69.307425 
L 100.968442 65.972572 
L 106.936531 65.138858 
L 112.90462 63.471432 
L 118.872709 61.804005 
L 124.840798 62.359814 
L 130.808887 61.526101 
L 136.776976 59.580769 
L 142.745065 59.024961 
L 148.713154 59.858674 
L 154.681243 59.024961 
L 160.649332 57.913343 
L 166.617421 55.968012 
L 172.58551 56.245916 
L 178.553599 55.412203 
L 184.521688 55.134298 
L 190.489777 55.134298 
L 196.457866 54.578489 
L 202.425955 55.134298 
L 208.394045 52.633158 
L 214.362134 54.300585 
L 220.330223 53.188967 
L 226.298312 53.188967 
L 232.266401 51.799445 
L 238.23449 52.911063 
L 244.202579 52.077349 
L 250.170668 50.409923 
L 256.138757 50.409923 
L 262.106846 51.243636 
L 268.074935 51.521541 
L 274.043024 50.965732 
L 280.011113 50.687827 
L 285.979202 50.965732 
L 291.947291 50.132018 
L 297.91538 50.409923 
L 303.883469 50.687827 
L 309.851558 49.0204 
L 315.819647 49.0204 
L 321.787737 47.075069 
L 327.755826 49.0204 
L 333.723915 48.464592 
L 339.692004 48.186687 
L 345.660093 48.742496 
L 351.628182 49.298305 
" style="fill:none;stroke:#2ca02c;stroke-linecap:square;stroke-width:1.5;"/>
   </g>
   <g id="line2d_26">
    <path clip-path="url(#pef0d4a3545)" d="M 59.191818 269.958883 
L 65.159907 156.037235 
L 71.127996 130.328572 
L 77.096085 120.097798 
L 83.064174 115.201955 
L 89.032263 111.250154 
L 95.000353 107.627669 
L 100.968442 105.037044 
L 106.936531 102.358601 
L 112.90462 100.250974 
L 118.872709 98.626344 
L 124.840798 97.287123 
L 130.808887 95.728357 
L 136.776976 93.993955 
L 142.745065 92.654734 
L 148.713154 91.447239 
L 154.681243 90.064108 
L 160.649332 88.615115 
L 166.617421 87.473483 
L 172.58551 86.200125 
L 178.553599 85.234129 
L 184.521688 84.070543 
L 190.489777 83.41191 
L 196.457866 82.38005 
L 202.425955 81.831189 
L 208.394045 81.326237 
L 214.362134 80.711512 
L 220.330223 80.250469 
L 226.298312 79.613789 
L 232.266401 78.845384 
L 238.23449 78.406295 
L 244.202579 78.055023 
L 250.170668 77.506162 
L 256.138757 77.045119 
L 262.106846 77.023164 
L 268.074935 76.364531 
L 274.043024 76.079123 
L 280.011113 75.705897 
L 285.979202 75.486353 
L 291.947291 75.288763 
L 297.91538 74.78381 
L 303.883469 74.761856 
L 309.851558 74.322767 
L 315.819647 73.927587 
L 321.787737 73.686088 
L 327.755826 73.708042 
L 333.723915 73.59827 
L 339.692004 73.444589 
L 345.660093 73.137226 
L 351.628182 73.071363 
" style="fill:none;stroke:#d62728;stroke-linecap:square;stroke-width:1.5;"/>
   </g>
   <g id="patch_3">
    <path d="M 44.57 303.64 
L 44.57 26.88 
" style="fill:none;stroke:#000000;stroke-linecap:square;stroke-linejoin:miter;stroke-width:0.8;"/>
   </g>
   <g id="patch_4">
    <path d="M 366.25 303.64 
L 366.25 26.88 
" style="fill:none;stroke:#000000;stroke-linecap:square;stroke-linejoin:miter;stroke-width:0.8;"/>
   </g>
   <g id="patch_5">
    <path d="M 44.57 303.64 
L 366.25 303.64 
" style="fill:none;stroke:#000000;stroke-linecap:square;stroke-linejoin:miter;stroke-width:0.8;"/>
   </g>
   <g id="patch_6">
    <path d="M 44.57 26.88 
L 366.25 26.88 
" style="fill:none;stroke:#000000;stroke-linecap:square;stroke-linejoin:miter;stroke-width:0.8;"/>
   </g>
   <g id="text_14">
    <!-- MNIST Local Rounds 25 -->
    <g transform="translate(135.482812 20.88)scale(0.12 -0.12)">
     <defs>
      <path d="M 628 4666 
L 1569 4666 
L 2759 1491 
L 3956 4666 
L 4897 4666 
L 4897 0 
L 4281 0 
L 4281 4097 
L 3078 897 
L 2444 897 
L 1241 4097 
L 1241 0 
L 628 0 
L 628 4666 
z
" id="DejaVuSans-4d" transform="scale(0.015625)"/>
      <path d="M 628 4666 
L 1478 4666 
L 3547 763 
L 3547 4666 
L 4159 4666 
L 4159 0 
L 3309 0 
L 1241 3903 
L 1241 0 
L 628 0 
L 628 4666 
z
" id="DejaVuSans-4e" transform="scale(0.015625)"/>
      <path d="M 628 4666 
L 1259 4666 
L 1259 0 
L 628 0 
L 628 4666 
z
" id="DejaVuSans-49" transform="scale(0.015625)"/>
      <path d="M 3425 4513 
L 3425 3897 
Q 3066 4069 2747 4153 
Q 2428 4238 2131 4238 
Q 1616 4238 1336 4038 
Q 1056 3838 1056 3469 
Q 1056 3159 1242 3001 
Q 1428 2844 1947 2747 
L 2328 2669 
Q 3034 2534 3370 2195 
Q 3706 1856 3706 1288 
Q 3706 609 3251 259 
Q 2797 -91 1919 -91 
Q 1588 -91 1214 -16 
Q 841 59 441 206 
L 441 856 
Q 825 641 1194 531 
Q 1563 422 1919 422 
Q 2459 422 2753 634 
Q 3047 847 3047 1241 
Q 3047 1584 2836 1778 
Q 2625 1972 2144 2069 
L 1759 2144 
Q 1053 2284 737 2584 
Q 422 2884 422 3419 
Q 422 4038 858 4394 
Q 1294 4750 2059 4750 
Q 2388 4750 2728 4690 
Q 3069 4631 3425 4513 
z
" id="DejaVuSans-53" transform="scale(0.015625)"/>
      <path d="M 628 4666 
L 1259 4666 
L 1259 531 
L 3531 531 
L 3531 0 
L 628 0 
L 628 4666 
z
" id="DejaVuSans-4c" transform="scale(0.015625)"/>
     </defs>
     <use xlink:href="#DejaVuSans-4d"/>
     <use x="86.279297" xlink:href="#DejaVuSans-4e"/>
     <use x="161.083984" xlink:href="#DejaVuSans-49"/>
     <use x="190.576172" xlink:href="#DejaVuSans-53"/>
     <use x="254.052734" xlink:href="#DejaVuSans-54"/>
     <use x="315.136719" xlink:href="#DejaVuSans-20"/>
     <use x="346.923828" xlink:href="#DejaVuSans-4c"/>
     <use x="400.886719" xlink:href="#DejaVuSans-6f"/>
     <use x="462.068359" xlink:href="#DejaVuSans-63"/>
     <use x="517.048828" xlink:href="#DejaVuSans-61"/>
     <use x="578.328125" xlink:href="#DejaVuSans-6c"/>
     <use x="606.111328" xlink:href="#DejaVuSans-20"/>
     <use x="637.898438" xlink:href="#DejaVuSans-52"/>
     <use x="702.880859" xlink:href="#DejaVuSans-6f"/>
     <use x="764.0625" xlink:href="#DejaVuSans-75"/>
     <use x="827.441406" xlink:href="#DejaVuSans-6e"/>
     <use x="890.820312" xlink:href="#DejaVuSans-64"/>
     <use x="954.296875" xlink:href="#DejaVuSans-73"/>
     <use x="1006.396484" xlink:href="#DejaVuSans-20"/>
     <use x="1038.183594" xlink:href="#DejaVuSans-32"/>
     <use x="1101.806641" xlink:href="#DejaVuSans-35"/>
    </g>
   </g>
   <g id="legend_1">
    <g id="patch_7">
     <path d="M 373.25 196.11625 
L 447.821875 196.11625 
Q 449.821875 196.11625 449.821875 194.11625 
L 449.821875 136.40375 
Q 449.821875 134.40375 447.821875 134.40375 
L 373.25 134.40375 
Q 371.25 134.40375 371.25 136.40375 
L 371.25 194.11625 
Q 371.25 196.11625 373.25 196.11625 
z
" style="fill:#ffffff;opacity:0.8;stroke:#cccccc;stroke-linejoin:miter;"/>
    </g>
    <g id="line2d_27">
     <path d="M 375.25 142.502187 
L 395.25 142.502187 
" style="fill:none;stroke:#1f77b4;stroke-linecap:square;stroke-width:1.5;"/>
    </g>
    <g id="line2d_28"/>
    <g id="text_15">
     <!-- FedAvg -->
     <g transform="translate(403.25 146.002187)scale(0.1 -0.1)">
      <defs>
       <path d="M 628 4666 
L 3309 4666 
L 3309 4134 
L 1259 4134 
L 1259 2759 
L 3109 2759 
L 3109 2228 
L 1259 2228 
L 1259 0 
L 628 0 
L 628 4666 
z
" id="DejaVuSans-46" transform="scale(0.015625)"/>
       <path d="M 191 3500 
L 800 3500 
L 1894 563 
L 2988 3500 
L 3597 3500 
L 2284 0 
L 1503 0 
L 191 3500 
z
" id="DejaVuSans-76" transform="scale(0.015625)"/>
       <path d="M 2906 1791 
Q 2906 2416 2648 2759 
Q 2391 3103 1925 3103 
Q 1463 3103 1205 2759 
Q 947 2416 947 1791 
Q 947 1169 1205 825 
Q 1463 481 1925 481 
Q 2391 481 2648 825 
Q 2906 1169 2906 1791 
z
M 3481 434 
Q 3481 -459 3084 -895 
Q 2688 -1331 1869 -1331 
Q 1566 -1331 1297 -1286 
Q 1028 -1241 775 -1147 
L 775 -588 
Q 1028 -725 1275 -790 
Q 1522 -856 1778 -856 
Q 2344 -856 2625 -561 
Q 2906 -266 2906 331 
L 2906 616 
Q 2728 306 2450 153 
Q 2172 0 1784 0 
Q 1141 0 747 490 
Q 353 981 353 1791 
Q 353 2603 747 3093 
Q 1141 3584 1784 3584 
Q 2172 3584 2450 3431 
Q 2728 3278 2906 2969 
L 2906 3500 
L 3481 3500 
L 3481 434 
z
" id="DejaVuSans-67" transform="scale(0.015625)"/>
      </defs>
      <use xlink:href="#DejaVuSans-46"/>
      <use x="52.019531" xlink:href="#DejaVuSans-65"/>
      <use x="113.542969" xlink:href="#DejaVuSans-64"/>
      <use x="177.019531" xlink:href="#DejaVuSans-41"/>
      <use x="239.552734" xlink:href="#DejaVuSans-76"/>
      <use x="298.732422" xlink:href="#DejaVuSans-67"/>
     </g>
    </g>
    <g id="line2d_29">
     <path d="M 375.25 157.180312 
L 395.25 157.180312 
" style="fill:none;stroke:#ff7f0e;stroke-linecap:square;stroke-width:1.5;"/>
    </g>
    <g id="line2d_30"/>
    <g id="text_16">
     <!-- FedMed -->
     <g transform="translate(403.25 160.680312)scale(0.1 -0.1)">
      <use xlink:href="#DejaVuSans-46"/>
      <use x="52.019531" xlink:href="#DejaVuSans-65"/>
      <use x="113.542969" xlink:href="#DejaVuSans-64"/>
      <use x="177.019531" xlink:href="#DejaVuSans-4d"/>
      <use x="263.298828" xlink:href="#DejaVuSans-65"/>
      <use x="324.822266" xlink:href="#DejaVuSans-64"/>
     </g>
    </g>
    <g id="line2d_31">
     <path d="M 375.25 171.858437 
L 395.25 171.858437 
" style="fill:none;stroke:#2ca02c;stroke-linecap:square;stroke-width:1.5;"/>
    </g>
    <g id="line2d_32"/>
    <g id="text_17">
     <!-- FedProx -->
     <g transform="translate(403.25 175.358437)scale(0.1 -0.1)">
      <defs>
       <path d="M 1259 4147 
L 1259 2394 
L 2053 2394 
Q 2494 2394 2734 2622 
Q 2975 2850 2975 3272 
Q 2975 3691 2734 3919 
Q 2494 4147 2053 4147 
L 1259 4147 
z
M 628 4666 
L 2053 4666 
Q 2838 4666 3239 4311 
Q 3641 3956 3641 3272 
Q 3641 2581 3239 2228 
Q 2838 1875 2053 1875 
L 1259 1875 
L 1259 0 
L 628 0 
L 628 4666 
z
" id="DejaVuSans-50" transform="scale(0.015625)"/>
       <path d="M 3513 3500 
L 2247 1797 
L 3578 0 
L 2900 0 
L 1881 1375 
L 863 0 
L 184 0 
L 1544 1831 
L 300 3500 
L 978 3500 
L 1906 2253 
L 2834 3500 
L 3513 3500 
z
" id="DejaVuSans-78" transform="scale(0.015625)"/>
      </defs>
      <use xlink:href="#DejaVuSans-46"/>
      <use x="52.019531" xlink:href="#DejaVuSans-65"/>
      <use x="113.542969" xlink:href="#DejaVuSans-64"/>
      <use x="177.019531" xlink:href="#DejaVuSans-50"/>
      <use x="235.572266" xlink:href="#DejaVuSans-72"/>
      <use x="274.435547" xlink:href="#DejaVuSans-6f"/>
      <use x="332.492188" xlink:href="#DejaVuSans-78"/>
     </g>
    </g>
    <g id="line2d_33">
     <path d="M 375.25 186.536563 
L 395.25 186.536563 
" style="fill:none;stroke:#d62728;stroke-linecap:square;stroke-width:1.5;"/>
    </g>
    <g id="line2d_34"/>
    <g id="text_18">
     <!-- qFedAvg -->
     <g transform="translate(403.25 190.036563)scale(0.1 -0.1)">
      <defs>
       <path d="M 947 1747 
Q 947 1113 1208 752 
Q 1469 391 1925 391 
Q 2381 391 2643 752 
Q 2906 1113 2906 1747 
Q 2906 2381 2643 2742 
Q 2381 3103 1925 3103 
Q 1469 3103 1208 2742 
Q 947 2381 947 1747 
z
M 2906 525 
Q 2725 213 2448 61 
Q 2172 -91 1784 -91 
Q 1150 -91 751 415 
Q 353 922 353 1747 
Q 353 2572 751 3078 
Q 1150 3584 1784 3584 
Q 2172 3584 2448 3432 
Q 2725 3281 2906 2969 
L 2906 3500 
L 3481 3500 
L 3481 -1331 
L 2906 -1331 
L 2906 525 
z
" id="DejaVuSans-71" transform="scale(0.015625)"/>
      </defs>
      <use xlink:href="#DejaVuSans-71"/>
      <use x="63.476562" xlink:href="#DejaVuSans-46"/>
      <use x="115.496094" xlink:href="#DejaVuSans-65"/>
      <use x="177.019531" xlink:href="#DejaVuSans-64"/>
      <use x="240.496094" xlink:href="#DejaVuSans-41"/>
      <use x="303.029297" xlink:href="#DejaVuSans-76"/>
      <use x="362.208984" xlink:href="#DejaVuSans-67"/>
     </g>
    </g>
   </g>
  </g>
 </g>
 <defs>
  <clipPath id="pef0d4a3545">
   <rect height="276.76" width="321.68" x="44.57" y="26.88"/>
  </clipPath>
 </defs>
</svg>
