<?xml version="1.0" encoding="utf-8" standalone="no"?>
<!DOCTYPE svg PUBLIC "-//W3C//DTD SVG 1.1//EN"
  "http://www.w3.org/Graphics/SVG/1.1/DTD/svg11.dtd">
<svg height="345.6pt" version="1.1" viewBox="0 0 460.8 345.6" width="460.8pt" xmlns="http://www.w3.org/2000/svg" xmlns:xlink="http://www.w3.org/1999/xlink">
 <metadata>
  <rdf:RDF xmlns:cc="http://creativecommons.org/ns#" xmlns:dc="http://purl.org/dc/elements/1.1/" xmlns:rdf="http://www.w3.org/1999/02/22-rdf-syntax-ns#">
   <cc:Work>
    <dc:type rdf:resource="http://purl.org/dc/dcmitype/StillImage"/>
    <dc:date>2021-05-07T18:58:14.827387</dc:date>
    <dc:format>image/svg+xml</dc:format>
    <dc:creator>
     <cc:Agent>
      <dc:title>Matplotlib v3.4.1, https://matplotlib.org/</dc:title>
     </cc:Agent>
    </dc:creator>
   </cc:Work>
  </rdf:RDF>
 </metadata>
 <defs>
  <style type="text/css">*{stroke-linecap:butt;stroke-linejoin:round;}</style>
 </defs>
 <g id="figure_1">
  <g id="patch_1">
   <path d="M 0 345.6 
L 460.8 345.6 
L 460.8 0 
L 0 0 
z
" style="fill:#ffffff;"/>
  </g>
  <g id="axes_1">
   <g id="patch_2">
    <path d="M 44.57 303.64 
L 450 303.64 
L 450 32.876829 
L 44.57 32.876829 
z
" style="fill:#ffffff;"/>
   </g>
   <g id="PolyCollection_1">
    <path clip-path="url(#p32b5756afd)" d="M 62.998636 196.403052 
L 62.998636 277.364249 
L 70.520529 131.522396 
L 78.042421 118.873028 
L 85.564314 110.48005 
L 93.086206 102.120859 
L 100.608098 97.434402 
L 108.129991 94.056375 
L 115.651883 89.05391 
L 123.173776 85.486263 
L 130.695668 80.924212 
L 138.21756 83.738306 
L 145.739453 80.275834 
L 153.261345 75.531106 
L 160.783237 75.9091 
L 168.30513 76.521455 
L 175.827022 71.419799 
L 183.348915 72.37417 
L 190.870807 67.248327 
L 198.392699 67.522831 
L 205.914592 68.361399 
L 213.436484 66.774994 
L 220.958377 66.611018 
L 228.480269 65.759023 
L 236.002161 68.376499 
L 243.524054 66.629249 
L 251.045946 64.957738 
L 258.567839 66.031168 
L 266.089731 63.994665 
L 273.611623 64.02363 
L 281.133516 63.558108 
L 288.655408 61.922196 
L 296.177301 61.186096 
L 303.699193 64.270286 
L 311.221085 64.776921 
L 318.742978 64.149072 
L 326.26487 59.267821 
L 333.786763 60.155958 
L 341.308655 58.942249 
L 348.830547 56.170148 
L 356.35244 57.294704 
L 363.874332 57.758673 
L 371.396224 57.347241 
L 378.918117 57.452945 
L 386.440009 56.363353 
L 393.961902 55.545358 
L 401.483794 56.315117 
L 409.005686 57.869257 
L 416.527579 54.517121 
L 424.049471 58.044111 
L 431.571364 57.911594 
L 431.571364 49.486816 
L 431.571364 49.486816 
L 424.049471 45.184246 
L 416.527579 49.90268 
L 409.005686 48.337709 
L 401.483794 52.274736 
L 393.961902 49.470164 
L 386.440009 51.035056 
L 378.918117 52.328352 
L 371.396224 50.051169 
L 363.874332 49.044015 
L 356.35244 53.082315 
L 348.830547 50.036817 
L 341.308655 53.817656 
L 333.786763 53.79539 
L 326.26487 53.492084 
L 318.742978 56.950938 
L 311.221085 56.918811 
L 303.699193 56.829724 
L 296.177301 54.552419 
L 288.655408 51.433432 
L 281.133516 60.520511 
L 273.611623 57.07638 
L 266.089731 55.913902 
L 258.567839 59.238895 
L 251.045946 59.120881 
L 243.524054 59.236536 
L 236.002161 57.489286 
L 228.480269 59.51104 
L 220.958377 62.233375 
L 213.436484 63.856565 
L 205.914592 61.674438 
L 198.392699 60.130118 
L 190.870807 61.000344 
L 183.348915 63.618884 
L 175.827022 60.998924 
L 168.30513 67.215983 
L 160.783237 67.828337 
L 153.261345 69.397775 
L 145.739453 73.588874 
L 138.21756 71.913567 
L 130.695668 74.131939 
L 123.173776 80.292881 
L 115.651883 83.278173 
L 108.129991 86.615813 
L 100.608098 93.960777 
L 93.086206 94.040095 
L 85.564314 101.765392 
L 78.042421 111.244067 
L 70.520529 125.9979 
L 62.998636 196.403052 
z
" style="fill:#1f77b4;fill-opacity:0.5;"/>
   </g>
   <g id="PolyCollection_2">
    <path clip-path="url(#p32b5756afd)" d="M 62.998636 196.136318 
L 62.998636 291.332583 
L 70.520529 159.385369 
L 78.042421 119.178247 
L 85.564314 118.142212 
L 93.086206 106.252468 
L 100.608098 99.153469 
L 108.129991 96.648036 
L 115.651883 91.103335 
L 123.173776 89.942047 
L 130.695668 84.873892 
L 138.21756 86.226999 
L 145.739453 86.072033 
L 153.261345 83.73916 
L 160.783237 79.62302 
L 168.30513 80.693961 
L 175.827022 76.551105 
L 183.348915 75.552245 
L 190.870807 73.965184 
L 198.392699 77.715352 
L 205.914592 76.280452 
L 213.436484 77.312325 
L 220.958377 73.417011 
L 228.480269 71.973774 
L 236.002161 79.055899 
L 243.524054 70.438402 
L 251.045946 69.985368 
L 258.567839 72.070394 
L 266.089731 69.276028 
L 273.611623 69.808429 
L 281.133516 69.607857 
L 288.655408 68.462578 
L 296.177301 67.068422 
L 303.699193 66.507223 
L 311.221085 69.13026 
L 318.742978 66.59528 
L 326.26487 68.779526 
L 333.786763 66.861947 
L 341.308655 68.671629 
L 348.830547 66.788485 
L 356.35244 63.528614 
L 363.874332 67.437752 
L 371.396224 66.23053 
L 378.918117 69.700305 
L 386.440009 67.246905 
L 393.961902 67.127681 
L 401.483794 66.714343 
L 409.005686 66.377552 
L 416.527579 64.808114 
L 424.049471 65.517454 
L 431.571364 67.975197 
L 431.571364 59.677753 
L 431.571364 59.677753 
L 424.049471 59.156886 
L 416.527579 58.674783 
L 409.005686 58.296789 
L 401.483794 60.938606 
L 393.961902 59.929547 
L 386.440009 62.788932 
L 378.918117 59.144088 
L 371.396224 62.018141 
L 363.874332 62.598085 
L 356.35244 62.33717 
L 348.830547 61.460187 
L 341.308655 60.768486 
L 333.786763 59.003837 
L 326.26487 60.064868 
L 318.742978 60.461948 
L 311.221085 61.501299 
L 303.699193 62.932892 
L 296.177301 59.393084 
L 288.655408 60.381815 
L 281.133516 62.215145 
L 273.611623 62.610295 
L 266.089731 63.142696 
L 258.567839 65.709826 
L 251.045946 63.6248 
L 243.524054 64.363209 
L 236.002161 62.894373 
L 228.480269 63.423558 
L 220.958377 67.341817 
L 213.436484 66.425112 
L 205.914592 66.861264 
L 198.392699 69.000694 
L 190.870807 66.197923 
L 183.348915 70.568079 
L 175.827022 65.994889 
L 168.30513 71.979303 
L 160.783237 70.667358 
L 153.261345 73.699878 
L 145.739453 76.728502 
L 138.21756 75.977814 
L 130.695668 77.926642 
L 123.173776 83.581479 
L 115.651883 84.207357 
L 108.129991 88.789926 
L 100.608098 94.028876 
L 93.086206 95.865704 
L 85.564314 109.591996 
L 78.042421 115.704622 
L 70.520529 121.963798 
L 62.998636 196.136318 
z
" style="fill:#ff7f0e;fill-opacity:0.5;"/>
   </g>
   <g id="PolyCollection_3">
    <path clip-path="url(#p32b5756afd)" d="M 62.998636 182.399723 
L 62.998636 250.858497 
L 70.520529 143.776242 
L 78.042421 126.751547 
L 85.564314 105.119898 
L 93.086206 108.653019 
L 100.608098 97.706949 
L 108.129991 95.19035 
L 115.651883 93.679574 
L 123.173776 86.883789 
L 130.695668 83.534664 
L 138.21756 84.284867 
L 145.739453 75.799898 
L 153.261345 82.227245 
L 160.783237 79.231184 
L 168.30513 79.877764 
L 175.827022 74.276342 
L 183.348915 71.965391 
L 190.870807 71.506023 
L 198.392699 72.16658 
L 205.914592 71.418948 
L 213.436484 69.137978 
L 220.958377 65.827444 
L 228.480269 66.714343 
L 236.002161 68.361399 
L 243.524054 70.121922 
L 251.045946 68.118553 
L 258.567839 72.513856 
L 266.089731 68.441191 
L 273.611623 63.796385 
L 281.133516 65.127114 
L 288.655408 64.741226 
L 296.177301 64.899467 
L 303.699193 63.595624 
L 311.221085 66.248419 
L 318.742978 62.51658 
L 326.26487 64.02815 
L 333.786763 61.027275 
L 341.308655 61.335816 
L 348.830547 59.60607 
L 356.35244 60.07395 
L 363.874332 59.99123 
L 371.396224 60.757126 
L 378.918117 58.204064 
L 386.440009 59.415425 
L 393.961902 59.07214 
L 401.483794 58.570034 
L 409.005686 57.095341 
L 416.527579 59.635092 
L 424.049471 58.803209 
L 431.571364 55.608396 
L 431.571364 48.215683 
L 431.571364 48.215683 
L 424.049471 52.169532 
L 416.527579 51.337648 
L 409.005686 50.303068 
L 401.483794 50.019819 
L 393.961902 51.304878 
L 386.440009 51.557315 
L 378.918117 53.364398 
L 371.396224 54.981389 
L 363.874332 55.151563 
L 356.35244 53.281677 
L 348.830547 56.132445 
L 341.308655 53.211254 
L 333.786763 55.902683 
L 326.26487 57.667582 
L 318.742978 57.391987 
L 311.221085 54.851591 
L 303.699193 56.908664 
L 296.177301 59.774874 
L 288.655408 60.528837 
L 281.133516 60.142948 
L 273.611623 60.877956 
L 266.089731 58.020316 
L 258.567839 61.692033 
L 251.045946 60.72584 
L 243.524054 63.488245 
L 236.002161 61.674438 
L 228.480269 60.938606 
L 220.958377 60.634062 
L 213.436484 62.089303 
L 205.914592 63.978385 
L 198.392699 63.826475 
L 190.870807 67.465641 
L 183.348915 68.197716 
L 175.827022 67.078208 
L 168.30513 69.221169 
L 160.783237 74.037802 
L 153.261345 71.637463 
L 145.739453 69.724705 
L 138.21756 74.941336 
L 130.695668 74.500096 
L 123.173776 79.491076 
L 115.651883 86.992614 
L 108.129991 86.077559 
L 100.608098 93.092508 
L 93.086206 94.060875 
L 85.564314 101.168326 
L 78.042421 106.939879 
L 70.520529 129.23282 
L 62.998636 182.399723 
z
" style="fill:#2ca02c;fill-opacity:0.5;"/>
   </g>
   <g id="PolyCollection_4">
    <path clip-path="url(#p32b5756afd)" d="M 62.998636 181.862083 
L 62.998636 289.992951 
L 70.520529 146.885241 
L 78.042421 130.576624 
L 85.564314 119.660677 
L 93.086206 113.866868 
L 100.608098 107.556213 
L 108.129991 103.350546 
L 115.651883 99.245208 
L 123.173776 95.652952 
L 130.695668 93.884831 
L 138.21756 93.887412 
L 145.739453 90.826216 
L 153.261345 88.100997 
L 160.783237 86.702842 
L 168.30513 87.042442 
L 175.827022 84.833967 
L 183.348915 84.516307 
L 190.870807 83.776006 
L 198.392699 82.910284 
L 205.914592 82.010297 
L 213.436484 81.710427 
L 220.958377 81.331286 
L 228.480269 81.21616 
L 236.002161 81.777206 
L 243.524054 81.994244 
L 251.045946 80.859432 
L 258.567839 79.959911 
L 266.089731 80.089351 
L 273.611623 80.366187 
L 281.133516 79.931911 
L 288.655408 79.732287 
L 296.177301 79.474864 
L 303.699193 79.449804 
L 311.221085 79.553967 
L 318.742978 79.105596 
L 326.26487 80.113319 
L 333.786763 79.375707 
L 341.308655 79.873996 
L 348.830547 79.44288 
L 356.35244 79.149025 
L 363.874332 79.159125 
L 371.396224 79.439711 
L 378.918117 79.370142 
L 386.440009 79.097504 
L 393.961902 79.381141 
L 401.483794 78.921219 
L 409.005686 78.907642 
L 416.527579 78.479075 
L 424.049471 78.798356 
L 431.571364 78.929216 
L 431.571364 76.15136 
L 431.571364 76.15136 
L 424.049471 75.999847 
L 416.527579 76.225005 
L 409.005686 75.655251 
L 401.483794 76.159356 
L 393.961902 76.217117 
L 386.440009 76.17132 
L 378.918117 75.992806 
L 371.396224 76.252671 
L 363.874332 76.627381 
L 356.35244 75.931551 
L 348.830547 76.531874 
L 341.308655 76.524317 
L 333.786763 76.834358 
L 326.26487 76.708552 
L 318.742978 77.15153 
L 311.221085 76.514912 
L 303.699193 76.76026 
L 296.177301 76.829325 
L 288.655408 77.277832 
L 281.133516 78.254759 
L 273.611623 76.549808 
L 266.089731 76.779582 
L 258.567839 77.379642 
L 251.045946 77.374299 
L 243.524054 78.545526 
L 236.002161 77.633075 
L 228.480269 77.911749 
L 220.958377 78.455492 
L 213.436484 79.017591 
L 205.914592 78.247101 
L 198.392699 79.982587 
L 190.870807 81.140533 
L 183.348915 80.776727 
L 175.827022 81.870928 
L 168.30513 82.109678 
L 160.783237 83.861138 
L 153.261345 85.286704 
L 145.739453 85.90289 
L 138.21756 87.500834 
L 130.695668 89.527081 
L 123.173776 93.877023 
L 115.651883 94.190914 
L 108.129991 97.239003 
L 100.608098 102.398679 
L 93.086206 108.230025 
L 85.564314 115.001775 
L 78.042421 128.416893 
L 70.520529 137.992387 
L 62.998636 181.862083 
z
" style="fill:#d62728;fill-opacity:0.5;"/>
   </g>
   <g id="matplotlib.axis_1">
    <g id="xtick_1">
     <g id="line2d_1">
      <defs>
       <path d="M 0 0 
L 0 3.5 
" id="me9d7b90312" style="stroke:#000000;stroke-width:0.8;"/>
      </defs>
      <g>
       <use style="stroke:#000000;stroke-width:0.8;" x="62.998636" xlink:href="#me9d7b90312" y="303.64"/>
      </g>
     </g>
     <g id="text_1">
      <!-- 0 -->
      <g transform="translate(59.817386 318.238437)scale(0.1 -0.1)">
       <defs>
        <path d="M 2034 4250 
Q 1547 4250 1301 3770 
Q 1056 3291 1056 2328 
Q 1056 1369 1301 889 
Q 1547 409 2034 409 
Q 2525 409 2770 889 
Q 3016 1369 3016 2328 
Q 3016 3291 2770 3770 
Q 2525 4250 2034 4250 
z
M 2034 4750 
Q 2819 4750 3233 4129 
Q 3647 3509 3647 2328 
Q 3647 1150 3233 529 
Q 2819 -91 2034 -91 
Q 1250 -91 836 529 
Q 422 1150 422 2328 
Q 422 3509 836 4129 
Q 1250 4750 2034 4750 
z
" id="DejaVuSans-30" transform="scale(0.015625)"/>
       </defs>
       <use xlink:href="#DejaVuSans-30"/>
      </g>
     </g>
    </g>
    <g id="xtick_2">
     <g id="line2d_2">
      <g>
       <use style="stroke:#000000;stroke-width:0.8;" x="138.21756" xlink:href="#me9d7b90312" y="303.64"/>
      </g>
     </g>
     <g id="text_2">
      <!-- 10 -->
      <g transform="translate(131.85506 318.238437)scale(0.1 -0.1)">
       <defs>
        <path d="M 794 531 
L 1825 531 
L 1825 4091 
L 703 3866 
L 703 4441 
L 1819 4666 
L 2450 4666 
L 2450 531 
L 3481 531 
L 3481 0 
L 794 0 
L 794 531 
z
" id="DejaVuSans-31" transform="scale(0.015625)"/>
       </defs>
       <use xlink:href="#DejaVuSans-31"/>
       <use x="63.623047" xlink:href="#DejaVuSans-30"/>
      </g>
     </g>
    </g>
    <g id="xtick_3">
     <g id="line2d_3">
      <g>
       <use style="stroke:#000000;stroke-width:0.8;" x="213.436484" xlink:href="#me9d7b90312" y="303.64"/>
      </g>
     </g>
     <g id="text_3">
      <!-- 20 -->
      <g transform="translate(207.073984 318.238437)scale(0.1 -0.1)">
       <defs>
        <path d="M 1228 531 
L 3431 531 
L 3431 0 
L 469 0 
L 469 531 
Q 828 903 1448 1529 
Q 2069 2156 2228 2338 
Q 2531 2678 2651 2914 
Q 2772 3150 2772 3378 
Q 2772 3750 2511 3984 
Q 2250 4219 1831 4219 
Q 1534 4219 1204 4116 
Q 875 4013 500 3803 
L 500 4441 
Q 881 4594 1212 4672 
Q 1544 4750 1819 4750 
Q 2544 4750 2975 4387 
Q 3406 4025 3406 3419 
Q 3406 3131 3298 2873 
Q 3191 2616 2906 2266 
Q 2828 2175 2409 1742 
Q 1991 1309 1228 531 
z
" id="DejaVuSans-32" transform="scale(0.015625)"/>
       </defs>
       <use xlink:href="#DejaVuSans-32"/>
       <use x="63.623047" xlink:href="#DejaVuSans-30"/>
      </g>
     </g>
    </g>
    <g id="xtick_4">
     <g id="line2d_4">
      <g>
       <use style="stroke:#000000;stroke-width:0.8;" x="288.655408" xlink:href="#me9d7b90312" y="303.64"/>
      </g>
     </g>
     <g id="text_4">
      <!-- 30 -->
      <g transform="translate(282.292908 318.238437)scale(0.1 -0.1)">
       <defs>
        <path d="M 2597 2516 
Q 3050 2419 3304 2112 
Q 3559 1806 3559 1356 
Q 3559 666 3084 287 
Q 2609 -91 1734 -91 
Q 1441 -91 1130 -33 
Q 819 25 488 141 
L 488 750 
Q 750 597 1062 519 
Q 1375 441 1716 441 
Q 2309 441 2620 675 
Q 2931 909 2931 1356 
Q 2931 1769 2642 2001 
Q 2353 2234 1838 2234 
L 1294 2234 
L 1294 2753 
L 1863 2753 
Q 2328 2753 2575 2939 
Q 2822 3125 2822 3475 
Q 2822 3834 2567 4026 
Q 2313 4219 1838 4219 
Q 1578 4219 1281 4162 
Q 984 4106 628 3988 
L 628 4550 
Q 988 4650 1302 4700 
Q 1616 4750 1894 4750 
Q 2613 4750 3031 4423 
Q 3450 4097 3450 3541 
Q 3450 3153 3228 2886 
Q 3006 2619 2597 2516 
z
" id="DejaVuSans-33" transform="scale(0.015625)"/>
       </defs>
       <use xlink:href="#DejaVuSans-33"/>
       <use x="63.623047" xlink:href="#DejaVuSans-30"/>
      </g>
     </g>
    </g>
    <g id="xtick_5">
     <g id="line2d_5">
      <g>
       <use style="stroke:#000000;stroke-width:0.8;" x="363.874332" xlink:href="#me9d7b90312" y="303.64"/>
      </g>
     </g>
     <g id="text_5">
      <!-- 40 -->
      <g transform="translate(357.511832 318.238437)scale(0.1 -0.1)">
       <defs>
        <path d="M 2419 4116 
L 825 1625 
L 2419 1625 
L 2419 4116 
z
M 2253 4666 
L 3047 4666 
L 3047 1625 
L 3713 1625 
L 3713 1100 
L 3047 1100 
L 3047 0 
L 2419 0 
L 2419 1100 
L 313 1100 
L 313 1709 
L 2253 4666 
z
" id="DejaVuSans-34" transform="scale(0.015625)"/>
       </defs>
       <use xlink:href="#DejaVuSans-34"/>
       <use x="63.623047" xlink:href="#DejaVuSans-30"/>
      </g>
     </g>
    </g>
    <g id="xtick_6">
     <g id="line2d_6">
      <g>
       <use style="stroke:#000000;stroke-width:0.8;" x="439.093256" xlink:href="#me9d7b90312" y="303.64"/>
      </g>
     </g>
     <g id="text_6">
      <!-- 50 -->
      <g transform="translate(432.730756 318.238437)scale(0.1 -0.1)">
       <defs>
        <path d="M 691 4666 
L 3169 4666 
L 3169 4134 
L 1269 4134 
L 1269 2991 
Q 1406 3038 1543 3061 
Q 1681 3084 1819 3084 
Q 2600 3084 3056 2656 
Q 3513 2228 3513 1497 
Q 3513 744 3044 326 
Q 2575 -91 1722 -91 
Q 1428 -91 1123 -41 
Q 819 9 494 109 
L 494 744 
Q 775 591 1075 516 
Q 1375 441 1709 441 
Q 2250 441 2565 725 
Q 2881 1009 2881 1497 
Q 2881 1984 2565 2268 
Q 2250 2553 1709 2553 
Q 1456 2553 1204 2497 
Q 953 2441 691 2322 
L 691 4666 
z
" id="DejaVuSans-35" transform="scale(0.015625)"/>
       </defs>
       <use xlink:href="#DejaVuSans-35"/>
       <use x="63.623047" xlink:href="#DejaVuSans-30"/>
      </g>
     </g>
    </g>
    <g id="text_7">
     <!-- Global Communication Rounds -->
     <g transform="translate(170.323281 331.916562)scale(0.1 -0.1)">
      <defs>
       <path d="M 3809 666 
L 3809 1919 
L 2778 1919 
L 2778 2438 
L 4434 2438 
L 4434 434 
Q 4069 175 3628 42 
Q 3188 -91 2688 -91 
Q 1594 -91 976 548 
Q 359 1188 359 2328 
Q 359 3472 976 4111 
Q 1594 4750 2688 4750 
Q 3144 4750 3555 4637 
Q 3966 4525 4313 4306 
L 4313 3634 
Q 3963 3931 3569 4081 
Q 3175 4231 2741 4231 
Q 1884 4231 1454 3753 
Q 1025 3275 1025 2328 
Q 1025 1384 1454 906 
Q 1884 428 2741 428 
Q 3075 428 3337 486 
Q 3600 544 3809 666 
z
" id="DejaVuSans-47" transform="scale(0.015625)"/>
       <path d="M 603 4863 
L 1178 4863 
L 1178 0 
L 603 0 
L 603 4863 
z
" id="DejaVuSans-6c" transform="scale(0.015625)"/>
       <path d="M 1959 3097 
Q 1497 3097 1228 2736 
Q 959 2375 959 1747 
Q 959 1119 1226 758 
Q 1494 397 1959 397 
Q 2419 397 2687 759 
Q 2956 1122 2956 1747 
Q 2956 2369 2687 2733 
Q 2419 3097 1959 3097 
z
M 1959 3584 
Q 2709 3584 3137 3096 
Q 3566 2609 3566 1747 
Q 3566 888 3137 398 
Q 2709 -91 1959 -91 
Q 1206 -91 779 398 
Q 353 888 353 1747 
Q 353 2609 779 3096 
Q 1206 3584 1959 3584 
z
" id="DejaVuSans-6f" transform="scale(0.015625)"/>
       <path d="M 3116 1747 
Q 3116 2381 2855 2742 
Q 2594 3103 2138 3103 
Q 1681 3103 1420 2742 
Q 1159 2381 1159 1747 
Q 1159 1113 1420 752 
Q 1681 391 2138 391 
Q 2594 391 2855 752 
Q 3116 1113 3116 1747 
z
M 1159 2969 
Q 1341 3281 1617 3432 
Q 1894 3584 2278 3584 
Q 2916 3584 3314 3078 
Q 3713 2572 3713 1747 
Q 3713 922 3314 415 
Q 2916 -91 2278 -91 
Q 1894 -91 1617 61 
Q 1341 213 1159 525 
L 1159 0 
L 581 0 
L 581 4863 
L 1159 4863 
L 1159 2969 
z
" id="DejaVuSans-62" transform="scale(0.015625)"/>
       <path d="M 2194 1759 
Q 1497 1759 1228 1600 
Q 959 1441 959 1056 
Q 959 750 1161 570 
Q 1363 391 1709 391 
Q 2188 391 2477 730 
Q 2766 1069 2766 1631 
L 2766 1759 
L 2194 1759 
z
M 3341 1997 
L 3341 0 
L 2766 0 
L 2766 531 
Q 2569 213 2275 61 
Q 1981 -91 1556 -91 
Q 1019 -91 701 211 
Q 384 513 384 1019 
Q 384 1609 779 1909 
Q 1175 2209 1959 2209 
L 2766 2209 
L 2766 2266 
Q 2766 2663 2505 2880 
Q 2244 3097 1772 3097 
Q 1472 3097 1187 3025 
Q 903 2953 641 2809 
L 641 3341 
Q 956 3463 1253 3523 
Q 1550 3584 1831 3584 
Q 2591 3584 2966 3190 
Q 3341 2797 3341 1997 
z
" id="DejaVuSans-61" transform="scale(0.015625)"/>
       <path id="DejaVuSans-20" transform="scale(0.015625)"/>
       <path d="M 4122 4306 
L 4122 3641 
Q 3803 3938 3442 4084 
Q 3081 4231 2675 4231 
Q 1875 4231 1450 3742 
Q 1025 3253 1025 2328 
Q 1025 1406 1450 917 
Q 1875 428 2675 428 
Q 3081 428 3442 575 
Q 3803 722 4122 1019 
L 4122 359 
Q 3791 134 3420 21 
Q 3050 -91 2638 -91 
Q 1578 -91 968 557 
Q 359 1206 359 2328 
Q 359 3453 968 4101 
Q 1578 4750 2638 4750 
Q 3056 4750 3426 4639 
Q 3797 4528 4122 4306 
z
" id="DejaVuSans-43" transform="scale(0.015625)"/>
       <path d="M 3328 2828 
Q 3544 3216 3844 3400 
Q 4144 3584 4550 3584 
Q 5097 3584 5394 3201 
Q 5691 2819 5691 2113 
L 5691 0 
L 5113 0 
L 5113 2094 
Q 5113 2597 4934 2840 
Q 4756 3084 4391 3084 
Q 3944 3084 3684 2787 
Q 3425 2491 3425 1978 
L 3425 0 
L 2847 0 
L 2847 2094 
Q 2847 2600 2669 2842 
Q 2491 3084 2119 3084 
Q 1678 3084 1418 2786 
Q 1159 2488 1159 1978 
L 1159 0 
L 581 0 
L 581 3500 
L 1159 3500 
L 1159 2956 
Q 1356 3278 1631 3431 
Q 1906 3584 2284 3584 
Q 2666 3584 2933 3390 
Q 3200 3197 3328 2828 
z
" id="DejaVuSans-6d" transform="scale(0.015625)"/>
       <path d="M 544 1381 
L 544 3500 
L 1119 3500 
L 1119 1403 
Q 1119 906 1312 657 
Q 1506 409 1894 409 
Q 2359 409 2629 706 
Q 2900 1003 2900 1516 
L 2900 3500 
L 3475 3500 
L 3475 0 
L 2900 0 
L 2900 538 
Q 2691 219 2414 64 
Q 2138 -91 1772 -91 
Q 1169 -91 856 284 
Q 544 659 544 1381 
z
M 1991 3584 
L 1991 3584 
z
" id="DejaVuSans-75" transform="scale(0.015625)"/>
       <path d="M 3513 2113 
L 3513 0 
L 2938 0 
L 2938 2094 
Q 2938 2591 2744 2837 
Q 2550 3084 2163 3084 
Q 1697 3084 1428 2787 
Q 1159 2491 1159 1978 
L 1159 0 
L 581 0 
L 581 3500 
L 1159 3500 
L 1159 2956 
Q 1366 3272 1645 3428 
Q 1925 3584 2291 3584 
Q 2894 3584 3203 3211 
Q 3513 2838 3513 2113 
z
" id="DejaVuSans-6e" transform="scale(0.015625)"/>
       <path d="M 603 3500 
L 1178 3500 
L 1178 0 
L 603 0 
L 603 3500 
z
M 603 4863 
L 1178 4863 
L 1178 4134 
L 603 4134 
L 603 4863 
z
" id="DejaVuSans-69" transform="scale(0.015625)"/>
       <path d="M 3122 3366 
L 3122 2828 
Q 2878 2963 2633 3030 
Q 2388 3097 2138 3097 
Q 1578 3097 1268 2742 
Q 959 2388 959 1747 
Q 959 1106 1268 751 
Q 1578 397 2138 397 
Q 2388 397 2633 464 
Q 2878 531 3122 666 
L 3122 134 
Q 2881 22 2623 -34 
Q 2366 -91 2075 -91 
Q 1284 -91 818 406 
Q 353 903 353 1747 
Q 353 2603 823 3093 
Q 1294 3584 2113 3584 
Q 2378 3584 2631 3529 
Q 2884 3475 3122 3366 
z
" id="DejaVuSans-63" transform="scale(0.015625)"/>
       <path d="M 1172 4494 
L 1172 3500 
L 2356 3500 
L 2356 3053 
L 1172 3053 
L 1172 1153 
Q 1172 725 1289 603 
Q 1406 481 1766 481 
L 2356 481 
L 2356 0 
L 1766 0 
Q 1100 0 847 248 
Q 594 497 594 1153 
L 594 3053 
L 172 3053 
L 172 3500 
L 594 3500 
L 594 4494 
L 1172 4494 
z
" id="DejaVuSans-74" transform="scale(0.015625)"/>
       <path d="M 2841 2188 
Q 3044 2119 3236 1894 
Q 3428 1669 3622 1275 
L 4263 0 
L 3584 0 
L 2988 1197 
Q 2756 1666 2539 1819 
Q 2322 1972 1947 1972 
L 1259 1972 
L 1259 0 
L 628 0 
L 628 4666 
L 2053 4666 
Q 2853 4666 3247 4331 
Q 3641 3997 3641 3322 
Q 3641 2881 3436 2590 
Q 3231 2300 2841 2188 
z
M 1259 4147 
L 1259 2491 
L 2053 2491 
Q 2509 2491 2742 2702 
Q 2975 2913 2975 3322 
Q 2975 3731 2742 3939 
Q 2509 4147 2053 4147 
L 1259 4147 
z
" id="DejaVuSans-52" transform="scale(0.015625)"/>
       <path d="M 2906 2969 
L 2906 4863 
L 3481 4863 
L 3481 0 
L 2906 0 
L 2906 525 
Q 2725 213 2448 61 
Q 2172 -91 1784 -91 
Q 1150 -91 751 415 
Q 353 922 353 1747 
Q 353 2572 751 3078 
Q 1150 3584 1784 3584 
Q 2172 3584 2448 3432 
Q 2725 3281 2906 2969 
z
M 947 1747 
Q 947 1113 1208 752 
Q 1469 391 1925 391 
Q 2381 391 2643 752 
Q 2906 1113 2906 1747 
Q 2906 2381 2643 2742 
Q 2381 3103 1925 3103 
Q 1469 3103 1208 2742 
Q 947 2381 947 1747 
z
" id="DejaVuSans-64" transform="scale(0.015625)"/>
       <path d="M 2834 3397 
L 2834 2853 
Q 2591 2978 2328 3040 
Q 2066 3103 1784 3103 
Q 1356 3103 1142 2972 
Q 928 2841 928 2578 
Q 928 2378 1081 2264 
Q 1234 2150 1697 2047 
L 1894 2003 
Q 2506 1872 2764 1633 
Q 3022 1394 3022 966 
Q 3022 478 2636 193 
Q 2250 -91 1575 -91 
Q 1294 -91 989 -36 
Q 684 19 347 128 
L 347 722 
Q 666 556 975 473 
Q 1284 391 1588 391 
Q 1994 391 2212 530 
Q 2431 669 2431 922 
Q 2431 1156 2273 1281 
Q 2116 1406 1581 1522 
L 1381 1569 
Q 847 1681 609 1914 
Q 372 2147 372 2553 
Q 372 3047 722 3315 
Q 1072 3584 1716 3584 
Q 2034 3584 2315 3537 
Q 2597 3491 2834 3397 
z
" id="DejaVuSans-73" transform="scale(0.015625)"/>
      </defs>
      <use xlink:href="#DejaVuSans-47"/>
      <use x="77.490234" xlink:href="#DejaVuSans-6c"/>
      <use x="105.273438" xlink:href="#DejaVuSans-6f"/>
      <use x="166.455078" xlink:href="#DejaVuSans-62"/>
      <use x="229.931641" xlink:href="#DejaVuSans-61"/>
      <use x="291.210938" xlink:href="#DejaVuSans-6c"/>
      <use x="318.994141" xlink:href="#DejaVuSans-20"/>
      <use x="350.78125" xlink:href="#DejaVuSans-43"/>
      <use x="420.605469" xlink:href="#DejaVuSans-6f"/>
      <use x="481.787109" xlink:href="#DejaVuSans-6d"/>
      <use x="579.199219" xlink:href="#DejaVuSans-6d"/>
      <use x="676.611328" xlink:href="#DejaVuSans-75"/>
      <use x="739.990234" xlink:href="#DejaVuSans-6e"/>
      <use x="803.369141" xlink:href="#DejaVuSans-69"/>
      <use x="831.152344" xlink:href="#DejaVuSans-63"/>
      <use x="886.132812" xlink:href="#DejaVuSans-61"/>
      <use x="947.412109" xlink:href="#DejaVuSans-74"/>
      <use x="986.621094" xlink:href="#DejaVuSans-69"/>
      <use x="1014.404297" xlink:href="#DejaVuSans-6f"/>
      <use x="1075.585938" xlink:href="#DejaVuSans-6e"/>
      <use x="1138.964844" xlink:href="#DejaVuSans-20"/>
      <use x="1170.751953" xlink:href="#DejaVuSans-52"/>
      <use x="1235.734375" xlink:href="#DejaVuSans-6f"/>
      <use x="1296.916016" xlink:href="#DejaVuSans-75"/>
      <use x="1360.294922" xlink:href="#DejaVuSans-6e"/>
      <use x="1423.673828" xlink:href="#DejaVuSans-64"/>
      <use x="1487.150391" xlink:href="#DejaVuSans-73"/>
     </g>
    </g>
   </g>
   <g id="matplotlib.axis_2">
    <g id="ytick_1">
     <g id="line2d_7">
      <defs>
       <path d="M 0 0 
L -3.5 0 
" id="m3328fa33de" style="stroke:#000000;stroke-width:0.8;"/>
      </defs>
      <g>
       <use style="stroke:#000000;stroke-width:0.8;" x="44.57" xlink:href="#m3328fa33de" y="259.223217"/>
      </g>
     </g>
     <g id="text_8">
      <!-- 80 -->
      <g transform="translate(24.845 263.022436)scale(0.1 -0.1)">
       <defs>
        <path d="M 2034 2216 
Q 1584 2216 1326 1975 
Q 1069 1734 1069 1313 
Q 1069 891 1326 650 
Q 1584 409 2034 409 
Q 2484 409 2743 651 
Q 3003 894 3003 1313 
Q 3003 1734 2745 1975 
Q 2488 2216 2034 2216 
z
M 1403 2484 
Q 997 2584 770 2862 
Q 544 3141 544 3541 
Q 544 4100 942 4425 
Q 1341 4750 2034 4750 
Q 2731 4750 3128 4425 
Q 3525 4100 3525 3541 
Q 3525 3141 3298 2862 
Q 3072 2584 2669 2484 
Q 3125 2378 3379 2068 
Q 3634 1759 3634 1313 
Q 3634 634 3220 271 
Q 2806 -91 2034 -91 
Q 1263 -91 848 271 
Q 434 634 434 1313 
Q 434 1759 690 2068 
Q 947 2378 1403 2484 
z
M 1172 3481 
Q 1172 3119 1398 2916 
Q 1625 2713 2034 2713 
Q 2441 2713 2670 2916 
Q 2900 3119 2900 3481 
Q 2900 3844 2670 4047 
Q 2441 4250 2034 4250 
Q 1625 4250 1398 4047 
Q 1172 3844 1172 3481 
z
" id="DejaVuSans-38" transform="scale(0.015625)"/>
       </defs>
       <use xlink:href="#DejaVuSans-38"/>
       <use x="63.623047" xlink:href="#DejaVuSans-30"/>
      </g>
     </g>
    </g>
    <g id="ytick_2">
     <g id="line2d_8">
      <g>
       <use style="stroke:#000000;stroke-width:0.8;" x="44.57" xlink:href="#m3328fa33de" y="200.395692"/>
      </g>
     </g>
     <g id="text_9">
      <!-- 85 -->
      <g transform="translate(24.845 204.19491)scale(0.1 -0.1)">
       <use xlink:href="#DejaVuSans-38"/>
       <use x="63.623047" xlink:href="#DejaVuSans-35"/>
      </g>
     </g>
    </g>
    <g id="ytick_3">
     <g id="line2d_9">
      <g>
       <use style="stroke:#000000;stroke-width:0.8;" x="44.57" xlink:href="#m3328fa33de" y="141.568166"/>
      </g>
     </g>
     <g id="text_10">
      <!-- 90 -->
      <g transform="translate(24.845 145.367385)scale(0.1 -0.1)">
       <defs>
        <path d="M 703 97 
L 703 672 
Q 941 559 1184 500 
Q 1428 441 1663 441 
Q 2288 441 2617 861 
Q 2947 1281 2994 2138 
Q 2813 1869 2534 1725 
Q 2256 1581 1919 1581 
Q 1219 1581 811 2004 
Q 403 2428 403 3163 
Q 403 3881 828 4315 
Q 1253 4750 1959 4750 
Q 2769 4750 3195 4129 
Q 3622 3509 3622 2328 
Q 3622 1225 3098 567 
Q 2575 -91 1691 -91 
Q 1453 -91 1209 -44 
Q 966 3 703 97 
z
M 1959 2075 
Q 2384 2075 2632 2365 
Q 2881 2656 2881 3163 
Q 2881 3666 2632 3958 
Q 2384 4250 1959 4250 
Q 1534 4250 1286 3958 
Q 1038 3666 1038 3163 
Q 1038 2656 1286 2365 
Q 1534 2075 1959 2075 
z
" id="DejaVuSans-39" transform="scale(0.015625)"/>
       </defs>
       <use xlink:href="#DejaVuSans-39"/>
       <use x="63.623047" xlink:href="#DejaVuSans-30"/>
      </g>
     </g>
    </g>
    <g id="ytick_4">
     <g id="line2d_10">
      <g>
       <use style="stroke:#000000;stroke-width:0.8;" x="44.57" xlink:href="#m3328fa33de" y="82.740641"/>
      </g>
     </g>
     <g id="text_11">
      <!-- 95 -->
      <g transform="translate(24.845 86.53986)scale(0.1 -0.1)">
       <use xlink:href="#DejaVuSans-39"/>
       <use x="63.623047" xlink:href="#DejaVuSans-35"/>
      </g>
     </g>
    </g>
    <g id="text_12">
     <!-- Test Accuracy -->
     <g transform="translate(18.765313 202.520914)rotate(-90)scale(0.1 -0.1)">
      <defs>
       <path d="M -19 4666 
L 3928 4666 
L 3928 4134 
L 2272 4134 
L 2272 0 
L 1638 0 
L 1638 4134 
L -19 4134 
L -19 4666 
z
" id="DejaVuSans-54" transform="scale(0.015625)"/>
       <path d="M 3597 1894 
L 3597 1613 
L 953 1613 
Q 991 1019 1311 708 
Q 1631 397 2203 397 
Q 2534 397 2845 478 
Q 3156 559 3463 722 
L 3463 178 
Q 3153 47 2828 -22 
Q 2503 -91 2169 -91 
Q 1331 -91 842 396 
Q 353 884 353 1716 
Q 353 2575 817 3079 
Q 1281 3584 2069 3584 
Q 2775 3584 3186 3129 
Q 3597 2675 3597 1894 
z
M 3022 2063 
Q 3016 2534 2758 2815 
Q 2500 3097 2075 3097 
Q 1594 3097 1305 2825 
Q 1016 2553 972 2059 
L 3022 2063 
z
" id="DejaVuSans-65" transform="scale(0.015625)"/>
       <path d="M 2188 4044 
L 1331 1722 
L 3047 1722 
L 2188 4044 
z
M 1831 4666 
L 2547 4666 
L 4325 0 
L 3669 0 
L 3244 1197 
L 1141 1197 
L 716 0 
L 50 0 
L 1831 4666 
z
" id="DejaVuSans-41" transform="scale(0.015625)"/>
       <path d="M 2631 2963 
Q 2534 3019 2420 3045 
Q 2306 3072 2169 3072 
Q 1681 3072 1420 2755 
Q 1159 2438 1159 1844 
L 1159 0 
L 581 0 
L 581 3500 
L 1159 3500 
L 1159 2956 
Q 1341 3275 1631 3429 
Q 1922 3584 2338 3584 
Q 2397 3584 2469 3576 
Q 2541 3569 2628 3553 
L 2631 2963 
z
" id="DejaVuSans-72" transform="scale(0.015625)"/>
       <path d="M 2059 -325 
Q 1816 -950 1584 -1140 
Q 1353 -1331 966 -1331 
L 506 -1331 
L 506 -850 
L 844 -850 
Q 1081 -850 1212 -737 
Q 1344 -625 1503 -206 
L 1606 56 
L 191 3500 
L 800 3500 
L 1894 763 
L 2988 3500 
L 3597 3500 
L 2059 -325 
z
" id="DejaVuSans-79" transform="scale(0.015625)"/>
      </defs>
      <use xlink:href="#DejaVuSans-54"/>
      <use x="44.083984" xlink:href="#DejaVuSans-65"/>
      <use x="105.607422" xlink:href="#DejaVuSans-73"/>
      <use x="157.707031" xlink:href="#DejaVuSans-74"/>
      <use x="196.916016" xlink:href="#DejaVuSans-20"/>
      <use x="228.703125" xlink:href="#DejaVuSans-41"/>
      <use x="295.361328" xlink:href="#DejaVuSans-63"/>
      <use x="350.341797" xlink:href="#DejaVuSans-63"/>
      <use x="405.322266" xlink:href="#DejaVuSans-75"/>
      <use x="468.701172" xlink:href="#DejaVuSans-72"/>
      <use x="509.814453" xlink:href="#DejaVuSans-61"/>
      <use x="571.09375" xlink:href="#DejaVuSans-63"/>
      <use x="626.074219" xlink:href="#DejaVuSans-79"/>
     </g>
    </g>
   </g>
   <g id="line2d_11">
    <path clip-path="url(#p32b5756afd)" d="M 62.998636 236.88365 
L 70.520529 128.760148 
L 78.042421 115.058547 
L 85.564314 106.122721 
L 93.086206 98.080477 
L 100.608098 95.69759 
L 108.129991 90.336094 
L 115.651883 86.166041 
L 123.173776 82.889572 
L 130.695668 77.528076 
L 138.21756 77.825937 
L 145.739453 76.932354 
L 153.261345 72.464441 
L 160.783237 71.868719 
L 168.30513 71.868719 
L 175.827022 66.209362 
L 183.348915 67.996527 
L 190.870807 64.124336 
L 198.392699 63.826475 
L 205.914592 65.017918 
L 213.436484 65.315779 
L 220.958377 64.422197 
L 228.480269 62.635031 
L 236.002161 62.932892 
L 243.524054 62.932892 
L 251.045946 62.03931 
L 258.567839 62.635031 
L 266.089731 59.954283 
L 273.611623 60.550005 
L 281.133516 62.03931 
L 288.655408 56.677814 
L 296.177301 57.869257 
L 303.699193 60.550005 
L 311.221085 60.847866 
L 318.742978 60.550005 
L 326.26487 56.379953 
L 333.786763 56.975674 
L 341.308655 56.379953 
L 348.830547 53.103483 
L 356.35244 55.188509 
L 363.874332 53.401344 
L 371.396224 53.699205 
L 378.918117 54.890648 
L 386.440009 53.699205 
L 393.961902 52.507761 
L 401.483794 54.294926 
L 409.005686 53.103483 
L 416.527579 52.2099 
L 424.049471 51.614179 
L 431.571364 53.699205 
" style="fill:none;stroke:#1f77b4;stroke-linecap:square;stroke-width:1.5;"/>
   </g>
   <g id="line2d_12">
    <path clip-path="url(#p32b5756afd)" d="M 62.998636 243.734451 
L 70.520529 140.674584 
L 78.042421 117.441435 
L 85.564314 113.867104 
L 93.086206 101.059086 
L 100.608098 96.591172 
L 108.129991 92.718981 
L 115.651883 87.655346 
L 123.173776 86.761763 
L 130.695668 81.400267 
L 138.21756 81.102406 
L 145.739453 81.400267 
L 153.261345 78.719519 
L 160.783237 75.145189 
L 168.30513 76.336632 
L 175.827022 71.272997 
L 183.348915 73.060162 
L 190.870807 70.081554 
L 198.392699 73.358023 
L 205.914592 71.570858 
L 213.436484 71.868719 
L 220.958377 70.379414 
L 228.480269 67.698666 
L 236.002161 70.975136 
L 243.524054 67.400806 
L 251.045946 66.805084 
L 258.567839 68.89011 
L 266.089731 66.209362 
L 273.611623 66.209362 
L 281.133516 65.911501 
L 288.655408 64.422197 
L 296.177301 63.230753 
L 303.699193 64.720058 
L 311.221085 65.315779 
L 318.742978 63.528614 
L 326.26487 64.422197 
L 333.786763 62.932892 
L 341.308655 64.720058 
L 348.830547 64.124336 
L 356.35244 62.932892 
L 363.874332 65.017918 
L 371.396224 64.124336 
L 378.918117 64.422197 
L 386.440009 65.017918 
L 393.961902 63.528614 
L 401.483794 63.826475 
L 409.005686 62.33717 
L 416.527579 61.741449 
L 424.049471 62.33717 
L 431.571364 63.826475 
" style="fill:none;stroke:#ff7f0e;stroke-linecap:square;stroke-width:1.5;"/>
   </g>
   <g id="line2d_13">
    <path clip-path="url(#p32b5756afd)" d="M 62.998636 216.62911 
L 70.520529 136.504531 
L 78.042421 116.845713 
L 85.564314 103.144112 
L 93.086206 101.356947 
L 100.608098 95.399729 
L 108.129991 90.633955 
L 115.651883 90.336094 
L 123.173776 83.187433 
L 130.695668 79.01738 
L 138.21756 79.613102 
L 145.739453 72.762301 
L 153.261345 76.932354 
L 160.783237 76.634493 
L 168.30513 74.549467 
L 175.827022 70.677275 
L 183.348915 70.081554 
L 190.870807 69.485832 
L 198.392699 67.996527 
L 205.914592 67.698666 
L 213.436484 65.61364 
L 220.958377 63.230753 
L 228.480269 63.826475 
L 236.002161 65.017918 
L 243.524054 66.805084 
L 251.045946 64.422197 
L 258.567839 67.102945 
L 266.089731 63.230753 
L 273.611623 62.33717 
L 281.133516 62.635031 
L 288.655408 62.635031 
L 296.177301 62.33717 
L 303.699193 60.252144 
L 311.221085 60.550005 
L 318.742978 59.954283 
L 326.26487 60.847866 
L 333.786763 58.464979 
L 341.308655 57.273535 
L 348.830547 57.869257 
L 356.35244 56.677814 
L 363.874332 57.571396 
L 371.396224 57.869257 
L 378.918117 55.784231 
L 386.440009 55.48637 
L 393.961902 55.188509 
L 401.483794 54.294926 
L 409.005686 53.699205 
L 416.527579 55.48637 
L 424.049471 55.48637 
L 431.571364 51.912039 
" style="fill:none;stroke:#2ca02c;stroke-linecap:square;stroke-width:1.5;"/>
   </g>
   <g id="line2d_14">
    <path clip-path="url(#p32b5756afd)" d="M 62.998636 235.927517 
L 70.520529 142.438814 
L 78.042421 129.496758 
L 85.564314 117.331226 
L 93.086206 111.048446 
L 100.608098 104.977446 
L 108.129991 100.294775 
L 115.651883 96.718061 
L 123.173776 94.764987 
L 130.695668 91.705956 
L 138.21756 90.694123 
L 145.739453 88.364553 
L 153.261345 86.693851 
L 160.783237 85.28199 
L 168.30513 84.57606 
L 175.827022 83.352447 
L 183.348915 82.646517 
L 190.870807 82.458269 
L 198.392699 81.446436 
L 205.914592 80.128699 
L 213.436484 80.364009 
L 220.958377 79.893389 
L 228.480269 79.563955 
L 236.002161 79.705141 
L 243.524054 80.269885 
L 251.045946 79.116866 
L 258.567839 78.669776 
L 266.089731 78.434466 
L 273.611623 78.457997 
L 281.133516 79.093335 
L 288.655408 78.505059 
L 296.177301 78.152094 
L 303.699193 78.105032 
L 311.221085 78.034439 
L 318.742978 78.128563 
L 326.26487 78.410935 
L 333.786763 78.105032 
L 341.308655 78.199156 
L 348.830547 77.987377 
L 356.35244 77.540288 
L 363.874332 77.893253 
L 371.396224 77.846191 
L 378.918117 77.681474 
L 386.440009 77.634412 
L 393.961902 77.799129 
L 401.483794 77.540288 
L 409.005686 77.281447 
L 416.527579 77.35204 
L 424.049471 77.399102 
L 431.571364 77.540288 
" style="fill:none;stroke:#d62728;stroke-linecap:square;stroke-width:1.5;"/>
   </g>
   <g id="patch_3">
    <path d="M 44.57 303.64 
L 44.57 32.876829 
" style="fill:none;stroke:#000000;stroke-linecap:square;stroke-linejoin:miter;stroke-width:0.8;"/>
   </g>
   <g id="patch_4">
    <path d="M 450 303.64 
L 450 32.876829 
" style="fill:none;stroke:#000000;stroke-linecap:square;stroke-linejoin:miter;stroke-width:0.8;"/>
   </g>
   <g id="patch_5">
    <path d="M 44.57 303.64 
L 450 303.64 
" style="fill:none;stroke:#000000;stroke-linecap:square;stroke-linejoin:miter;stroke-width:0.8;"/>
   </g>
   <g id="patch_6">
    <path d="M 44.57 32.876829 
L 450 32.876829 
" style="fill:none;stroke:#000000;stroke-linecap:square;stroke-linejoin:miter;stroke-width:0.8;"/>
   </g>
   <g id="legend_1">
    <g id="patch_7">
     <path d="M 80.886563 28.478637 
L 413.683438 28.478637 
Q 415.683438 28.478637 415.683438 26.478637 
L 415.683438 12.800512 
Q 415.683438 10.800512 413.683438 10.800512 
L 80.886563 10.800512 
Q 78.886563 10.800512 78.886563 12.800512 
L 78.886563 26.478637 
Q 78.886563 28.478637 80.886563 28.478637 
z
" style="fill:#ffffff;opacity:0.8;stroke:#cccccc;stroke-linejoin:miter;"/>
    </g>
    <g id="line2d_15">
     <path d="M 82.886563 18.898949 
L 102.886563 18.898949 
" style="fill:none;stroke:#1f77b4;stroke-linecap:square;stroke-width:1.5;"/>
    </g>
    <g id="line2d_16"/>
    <g id="text_13">
     <!-- FedAvg -->
     <g transform="translate(110.886563 22.398949)scale(0.1 -0.1)">
      <defs>
       <path d="M 628 4666 
L 3309 4666 
L 3309 4134 
L 1259 4134 
L 1259 2759 
L 3109 2759 
L 3109 2228 
L 1259 2228 
L 1259 0 
L 628 0 
L 628 4666 
z
" id="DejaVuSans-46" transform="scale(0.015625)"/>
       <path d="M 191 3500 
L 800 3500 
L 1894 563 
L 2988 3500 
L 3597 3500 
L 2284 0 
L 1503 0 
L 191 3500 
z
" id="DejaVuSans-76" transform="scale(0.015625)"/>
       <path d="M 2906 1791 
Q 2906 2416 2648 2759 
Q 2391 3103 1925 3103 
Q 1463 3103 1205 2759 
Q 947 2416 947 1791 
Q 947 1169 1205 825 
Q 1463 481 1925 481 
Q 2391 481 2648 825 
Q 2906 1169 2906 1791 
z
M 3481 434 
Q 3481 -459 3084 -895 
Q 2688 -1331 1869 -1331 
Q 1566 -1331 1297 -1286 
Q 1028 -1241 775 -1147 
L 775 -588 
Q 1028 -725 1275 -790 
Q 1522 -856 1778 -856 
Q 2344 -856 2625 -561 
Q 2906 -266 2906 331 
L 2906 616 
Q 2728 306 2450 153 
Q 2172 0 1784 0 
Q 1141 0 747 490 
Q 353 981 353 1791 
Q 353 2603 747 3093 
Q 1141 3584 1784 3584 
Q 2172 3584 2450 3431 
Q 2728 3278 2906 2969 
L 2906 3500 
L 3481 3500 
L 3481 434 
z
" id="DejaVuSans-67" transform="scale(0.015625)"/>
      </defs>
      <use xlink:href="#DejaVuSans-46"/>
      <use x="52.019531" xlink:href="#DejaVuSans-65"/>
      <use x="113.542969" xlink:href="#DejaVuSans-64"/>
      <use x="177.019531" xlink:href="#DejaVuSans-41"/>
      <use x="239.552734" xlink:href="#DejaVuSans-76"/>
      <use x="298.732422" xlink:href="#DejaVuSans-67"/>
     </g>
    </g>
    <g id="line2d_17">
     <path d="M 167.11 18.898949 
L 187.11 18.898949 
" style="fill:none;stroke:#ff7f0e;stroke-linecap:square;stroke-width:1.5;"/>
    </g>
    <g id="line2d_18"/>
    <g id="text_14">
     <!-- FedMed -->
     <g transform="translate(195.11 22.398949)scale(0.1 -0.1)">
      <defs>
       <path d="M 628 4666 
L 1569 4666 
L 2759 1491 
L 3956 4666 
L 4897 4666 
L 4897 0 
L 4281 0 
L 4281 4097 
L 3078 897 
L 2444 897 
L 1241 4097 
L 1241 0 
L 628 0 
L 628 4666 
z
" id="DejaVuSans-4d" transform="scale(0.015625)"/>
      </defs>
      <use xlink:href="#DejaVuSans-46"/>
      <use x="52.019531" xlink:href="#DejaVuSans-65"/>
      <use x="113.542969" xlink:href="#DejaVuSans-64"/>
      <use x="177.019531" xlink:href="#DejaVuSans-4d"/>
      <use x="263.298828" xlink:href="#DejaVuSans-65"/>
      <use x="324.822266" xlink:href="#DejaVuSans-64"/>
     </g>
    </g>
    <g id="line2d_19">
     <path d="M 253.942813 18.898949 
L 273.942813 18.898949 
" style="fill:none;stroke:#2ca02c;stroke-linecap:square;stroke-width:1.5;"/>
    </g>
    <g id="line2d_20"/>
    <g id="text_15">
     <!-- FedProx -->
     <g transform="translate(281.942813 22.398949)scale(0.1 -0.1)">
      <defs>
       <path d="M 1259 4147 
L 1259 2394 
L 2053 2394 
Q 2494 2394 2734 2622 
Q 2975 2850 2975 3272 
Q 2975 3691 2734 3919 
Q 2494 4147 2053 4147 
L 1259 4147 
z
M 628 4666 
L 2053 4666 
Q 2838 4666 3239 4311 
Q 3641 3956 3641 3272 
Q 3641 2581 3239 2228 
Q 2838 1875 2053 1875 
L 1259 1875 
L 1259 0 
L 628 0 
L 628 4666 
z
" id="DejaVuSans-50" transform="scale(0.015625)"/>
       <path d="M 3513 3500 
L 2247 1797 
L 3578 0 
L 2900 0 
L 1881 1375 
L 863 0 
L 184 0 
L 1544 1831 
L 300 3500 
L 978 3500 
L 1906 2253 
L 2834 3500 
L 3513 3500 
z
" id="DejaVuSans-78" transform="scale(0.015625)"/>
      </defs>
      <use xlink:href="#DejaVuSans-46"/>
      <use x="52.019531" xlink:href="#DejaVuSans-65"/>
      <use x="113.542969" xlink:href="#DejaVuSans-64"/>
      <use x="177.019531" xlink:href="#DejaVuSans-50"/>
      <use x="235.572266" xlink:href="#DejaVuSans-72"/>
      <use x="274.435547" xlink:href="#DejaVuSans-6f"/>
      <use x="332.492188" xlink:href="#DejaVuSans-78"/>
     </g>
    </g>
    <g id="line2d_21">
     <path d="M 341.111563 18.898949 
L 361.111563 18.898949 
" style="fill:none;stroke:#d62728;stroke-linecap:square;stroke-width:1.5;"/>
    </g>
    <g id="line2d_22"/>
    <g id="text_16">
     <!-- qFedAvg -->
     <g transform="translate(369.111563 22.398949)scale(0.1 -0.1)">
      <defs>
       <path d="M 947 1747 
Q 947 1113 1208 752 
Q 1469 391 1925 391 
Q 2381 391 2643 752 
Q 2906 1113 2906 1747 
Q 2906 2381 2643 2742 
Q 2381 3103 1925 3103 
Q 1469 3103 1208 2742 
Q 947 2381 947 1747 
z
M 2906 525 
Q 2725 213 2448 61 
Q 2172 -91 1784 -91 
Q 1150 -91 751 415 
Q 353 922 353 1747 
Q 353 2572 751 3078 
Q 1150 3584 1784 3584 
Q 2172 3584 2448 3432 
Q 2725 3281 2906 2969 
L 2906 3500 
L 3481 3500 
L 3481 -1331 
L 2906 -1331 
L 2906 525 
z
" id="DejaVuSans-71" transform="scale(0.015625)"/>
      </defs>
      <use xlink:href="#DejaVuSans-71"/>
      <use x="63.476562" xlink:href="#DejaVuSans-46"/>
      <use x="115.496094" xlink:href="#DejaVuSans-65"/>
      <use x="177.019531" xlink:href="#DejaVuSans-64"/>
      <use x="240.496094" xlink:href="#DejaVuSans-41"/>
      <use x="303.029297" xlink:href="#DejaVuSans-76"/>
      <use x="362.208984" xlink:href="#DejaVuSans-67"/>
     </g>
    </g>
   </g>
  </g>
 </g>
 <defs>
  <clipPath id="p32b5756afd">
   <rect height="270.763171" width="405.43" x="44.57" y="32.876829"/>
  </clipPath>
 </defs>
</svg>
