<?xml version="1.0" encoding="utf-8" standalone="no"?>
<!DOCTYPE svg PUBLIC "-//W3C//DTD SVG 1.1//EN"
  "http://www.w3.org/Graphics/SVG/1.1/DTD/svg11.dtd">
<svg height="432pt" version="1.1" viewBox="0 0 576 432" width="576pt" xmlns="http://www.w3.org/2000/svg" xmlns:xlink="http://www.w3.org/1999/xlink">
 <metadata>
  <rdf:RDF xmlns:cc="http://creativecommons.org/ns#" xmlns:dc="http://purl.org/dc/elements/1.1/" xmlns:rdf="http://www.w3.org/1999/02/22-rdf-syntax-ns#">
   <cc:Work>
    <dc:type rdf:resource="http://purl.org/dc/dcmitype/StillImage"/>
    <dc:date>2021-05-07T22:04:27.136788</dc:date>
    <dc:format>image/svg+xml</dc:format>
    <dc:creator>
     <cc:Agent>
      <dc:title>Matplotlib v3.4.1, https://matplotlib.org/</dc:title>
     </cc:Agent>
    </dc:creator>
   </cc:Work>
  </rdf:RDF>
 </metadata>
 <defs>
  <style type="text/css">*{stroke-linecap:butt;stroke-linejoin:round;}</style>
 </defs>
 <g id="figure_1">
  <g id="patch_1">
   <path d="M 0 432 
L 576 432 
L 576 0 
L 0 0 
z
" style="fill:#ffffff;"/>
  </g>
  <g id="axes_1">
   <g id="patch_2">
    <path d="M 60.77 376 
L 556.505 376 
L 556.505 56.601989 
L 60.77 56.601989 
z
" style="fill:#ffffff;"/>
   </g>
   <g id="PolyCollection_1">
    <path clip-path="url(#p94451d285b)" d="M 83.303409 249.501009 
L 83.303409 345.004564 
L 92.500719 172.966404 
L 101.698029 158.044939 
L 110.895339 148.144403 
L 120.092648 138.283723 
L 129.289958 132.755479 
L 138.487268 128.770686 
L 147.684578 122.869671 
L 156.881888 118.661199 
L 166.079198 113.279707 
L 175.276507 116.599272 
L 184.473817 112.514866 
L 193.671127 106.917884 
L 202.868437 107.363774 
L 212.065747 108.08612 
L 221.263057 102.068099 
L 230.460366 103.193895 
L 239.657676 97.147341 
L 248.854986 97.471152 
L 258.052296 98.460344 
L 267.249606 96.588987 
L 276.446916 96.395558 
L 285.644225 95.390526 
L 294.841535 98.478156 
L 304.038845 96.417063 
L 313.236155 94.445314 
L 322.433465 95.711554 
L 331.630775 93.309252 
L 340.828084 93.34342 
L 350.025394 92.79428 
L 359.222704 90.864523 
L 368.420014 89.996203 
L 377.617324 93.634381 
L 386.814634 94.232018 
L 396.011943 93.491393 
L 405.209253 87.733366 
L 414.406563 88.781032 
L 423.603873 87.349314 
L 432.801183 84.079285 
L 441.998493 85.405834 
L 451.195802 85.953143 
L 460.393112 85.467808 
L 469.590422 85.592499 
L 478.787732 84.307194 
L 487.985042 83.342269 
L 497.182352 84.250294 
L 506.379661 86.08359 
L 515.576971 82.129338 
L 524.774281 86.289852 
L 533.971591 86.133531 
L 533.971591 76.195483 
L 533.971591 76.195483 
L 524.774281 71.12008 
L 515.576971 76.686045 
L 506.379661 74.839972 
L 497.182352 79.484173 
L 487.985042 76.175841 
L 478.787732 78.021821 
L 469.590422 79.54742 
L 460.393112 76.861206 
L 451.195802 75.673146 
L 441.998493 80.436811 
L 432.801183 76.844277 
L 423.603873 81.304235 
L 414.406563 81.27797 
L 405.209253 80.920184 
L 396.011943 85.000322 
L 386.814634 84.962424 
L 377.617324 84.857334 
L 368.420014 82.170977 
L 359.222704 78.491753 
L 350.025394 89.211066 
L 340.828084 85.148295 
L 331.630775 83.777011 
L 322.433465 87.699244 
L 313.236155 87.560032 
L 304.038845 87.696461 
L 294.841535 85.635368 
L 285.644225 88.020272 
L 276.446916 91.231597 
L 267.249606 93.146346 
L 258.052296 90.572263 
L 248.854986 88.75055 
L 239.657676 89.777087 
L 230.460366 92.865973 
L 221.263057 89.775412 
L 212.065747 97.109187 
L 202.868437 97.831533 
L 193.671127 99.682876 
L 184.473817 104.626785 
L 175.276507 102.650557 
L 166.079198 105.267396 
L 156.881888 112.534975 
L 147.684578 116.056489 
L 138.487268 119.99364 
L 129.289958 128.657917 
L 120.092648 128.751482 
L 110.895339 137.864407 
L 101.698029 149.045654 
L 92.500719 166.44959 
L 83.303409 249.501009 
z
" style="fill:#1f77b4;fill-opacity:0.5;"/>
   </g>
   <g id="PolyCollection_2">
    <path clip-path="url(#p94451d285b)" d="M 83.303409 249.186364 
L 83.303409 361.481909 
L 92.500719 205.834161 
L 101.698029 158.404982 
L 110.895339 157.182853 
L 120.092648 143.157457 
L 129.289958 134.783326 
L 138.487268 131.827864 
L 147.684578 125.287217 
L 156.881888 123.917337 
L 166.079198 117.938833 
L 175.276507 119.534987 
L 184.473817 119.352186 
L 193.671127 116.600279 
L 202.868437 111.744792 
L 212.065747 113.008098 
L 221.263057 108.121097 
L 230.460366 106.94282 
L 239.657676 105.070689 
L 248.854986 109.494467 
L 258.052296 107.801828 
L 267.249606 109.019048 
L 276.446916 104.424052 
L 285.644225 102.721579 
L 294.841535 111.075805 
L 304.038845 100.910422 
L 313.236155 100.376012 
L 322.433465 102.835554 
L 331.630775 99.53926 
L 340.828084 100.167291 
L 350.025394 99.930693 
L 359.222704 98.579698 
L 368.420014 96.935121 
L 377.617324 96.273119 
L 386.814634 99.367309 
L 396.011943 96.376992 
L 405.209253 98.953576 
L 414.406563 96.691559 
L 423.603873 98.826298 
L 432.801183 96.604901 
L 441.998493 92.759488 
L 451.195802 97.37079 
L 460.393112 95.946726 
L 469.590422 100.039746 
L 478.787732 97.145664 
L 487.985042 97.005024 
L 497.182352 96.517442 
L 506.379661 96.120156 
L 515.576971 94.268814 
L 524.774281 95.105567 
L 533.971591 98.004772 
L 533.971591 88.21693 
L 533.971591 88.21693 
L 524.774281 87.602505 
L 515.576971 87.033806 
L 506.379661 86.587915 
L 497.182352 89.70426 
L 487.985042 88.513952 
L 478.787732 91.886943 
L 469.590422 87.587408 
L 460.393112 90.977702 
L 451.195802 91.661816 
L 441.998493 91.354036 
L 432.801183 90.319527 
L 423.603873 89.503583 
L 414.406563 87.421965 
L 405.209253 88.673579 
L 396.011943 89.141984 
L 386.814634 90.368024 
L 377.617324 92.056762 
L 368.420014 87.881129 
L 359.222704 89.047457 
L 350.025394 91.210092 
L 340.828084 91.67622 
L 331.630775 92.304251 
L 322.433465 95.332492 
L 313.236155 92.872951 
L 304.038845 93.743994 
L 294.841535 92.011324 
L 285.644225 92.635562 
L 276.446916 97.257624 
L 267.249606 96.176259 
L 258.052296 96.690753 
L 248.854986 99.21447 
L 239.657676 95.908262 
L 230.460366 101.063392 
L 221.263057 95.668758 
L 212.065747 102.728101 
L 202.868437 101.180502 
L 193.671127 104.757728 
L 184.473817 108.330357 
L 175.276507 107.44483 
L 166.079198 109.743709 
L 156.881888 116.414276 
L 147.684578 117.152574 
L 138.487268 122.55827 
L 129.289958 128.738248 
L 120.092648 130.905009 
L 110.895339 147.096836 
L 101.698029 154.30742 
L 92.500719 161.690878 
L 83.303409 249.186364 
z
" style="fill:#ff7f0e;fill-opacity:0.5;"/>
   </g>
   <g id="PolyCollection_3">
    <path clip-path="url(#p94451d285b)" d="M 83.303409 232.982383 
L 83.303409 313.737814 
L 92.500719 187.421302 
L 101.698029 167.338608 
L 110.895339 141.821453 
L 120.092648 145.989198 
L 129.289958 133.076981 
L 138.487268 130.108347 
L 147.684578 128.326204 
L 156.881888 120.309751 
L 166.079198 116.359051 
L 175.276507 117.244007 
L 184.473817 107.234957 
L 193.671127 114.816792 
L 202.868437 111.282575 
L 212.065747 112.045294 
L 221.263057 105.437737 
L 230.460366 102.71169 
L 239.657676 102.169809 
L 248.854986 102.949017 
L 258.052296 102.067094 
L 267.249606 99.376413 
L 276.446916 95.471237 
L 285.644225 96.517442 
L 294.841535 98.460344 
L 304.038845 100.537095 
L 313.236155 98.173878 
L 322.433465 103.358672 
L 331.630775 98.554468 
L 340.828084 93.075356 
L 350.025394 94.645113 
L 359.222704 94.189911 
L 368.420014 94.376575 
L 377.617324 92.838535 
L 386.814634 95.967829 
L 396.011943 91.565671 
L 405.209253 93.348751 
L 414.406563 89.808855 
L 423.603873 90.172817 
L 432.801183 88.132371 
L 441.998493 88.684293 
L 451.195802 88.586714 
L 460.393112 89.490181 
L 469.590422 86.478536 
L 478.787732 87.907483 
L 487.985042 87.502536 
L 497.182352 86.910242 
L 506.379661 85.170662 
L 515.576971 88.166607 
L 524.774281 87.185299 
L 533.971591 83.41663 
L 533.971591 74.696028 
L 533.971591 74.696028 
L 524.774281 79.360072 
L 515.576971 78.378765 
L 506.379661 77.158352 
L 497.182352 76.824225 
L 487.985042 78.340109 
L 478.787732 78.637889 
L 469.590422 80.769562 
L 460.393112 82.676999 
L 451.195802 82.87774 
L 441.998493 80.671983 
L 432.801183 84.034809 
L 423.603873 80.588911 
L 414.406563 83.763777 
L 405.209253 85.84569 
L 396.011943 85.520592 
L 386.814634 82.523886 
L 377.617324 84.950454 
L 368.420014 88.331497 
L 359.222704 89.220887 
L 350.025394 88.765685 
L 340.828084 89.632715 
L 331.630775 86.261782 
L 322.433465 90.593018 
L 313.236155 89.453276 
L 304.038845 92.711868 
L 294.841535 90.572263 
L 285.644225 89.70426 
L 276.446916 89.345013 
L 267.249606 91.061646 
L 258.052296 93.290048 
L 248.854986 93.110851 
L 239.657676 97.403689 
L 230.460366 98.26726 
L 221.263057 96.946665 
L 212.065747 99.474548 
L 202.868437 105.15635 
L 193.671127 102.324859 
L 184.473817 100.068529 
L 175.276507 106.222179 
L 166.079198 105.701682 
L 156.881888 111.589149 
L 147.684578 120.438122 
L 138.487268 119.358705 
L 129.289958 127.633688 
L 120.092648 128.775994 
L 110.895339 137.160096 
L 101.698029 143.968342 
L 92.500719 170.265571 
L 83.303409 232.982383 
z
" style="fill:#2ca02c;fill-opacity:0.5;"/>
   </g>
   <g id="PolyCollection_4">
    <path clip-path="url(#p94451d285b)" d="M 83.303409 232.348172 
L 83.303409 359.901649 
L 92.500719 191.088743 
L 101.698029 171.850751 
L 110.895339 158.974067 
L 120.092648 152.139566 
L 129.289958 144.695382 
L 138.487268 139.734289 
L 147.684578 134.891545 
L 156.881888 130.654042 
L 166.079198 128.568329 
L 175.276507 128.571373 
L 184.473817 124.960321 
L 193.671127 121.745596 
L 202.868437 120.096302 
L 212.065747 120.496901 
L 221.263057 117.891737 
L 230.460366 117.517019 
L 239.657676 116.643743 
L 248.854986 115.622519 
L 258.052296 114.560876 
L 267.249606 114.207143 
L 276.446916 113.759899 
L 285.644225 113.624095 
L 294.841535 114.285917 
L 304.038845 114.541939 
L 313.236155 113.20329 
L 322.433465 112.142197 
L 331.630775 112.294886 
L 340.828084 112.621448 
L 350.025394 112.109167 
L 359.222704 111.873686 
L 368.420014 111.570024 
L 377.617324 111.540464 
L 386.814634 111.663336 
L 396.011943 111.134428 
L 405.209253 112.32316 
L 414.406563 111.453057 
L 423.603873 112.040849 
L 432.801183 111.532296 
L 441.998493 111.185657 
L 451.195802 111.197572 
L 460.393112 111.528558 
L 469.590422 111.446492 
L 478.787732 111.124882 
L 487.985042 111.459467 
L 497.182352 110.916934 
L 506.379661 110.900918 
L 515.576971 110.39537 
L 524.774281 110.772002 
L 533.971591 110.926366 
L 533.971591 107.649549 
L 533.971591 107.649549 
L 524.774281 107.470821 
L 515.576971 107.736422 
L 506.379661 107.064328 
L 497.182352 107.658981 
L 487.985042 107.727117 
L 478.787732 107.673094 
L 469.590422 107.462515 
L 460.393112 107.769057 
L 451.195802 108.211073 
L 441.998493 107.390258 
L 432.801183 108.098411 
L 423.603873 108.089496 
L 414.406563 108.455227 
L 405.209253 108.306824 
L 396.011943 108.829371 
L 386.814634 108.078402 
L 377.617324 108.36782 
L 368.420014 108.44929 
L 359.222704 108.978359 
L 350.025394 110.130762 
L 340.828084 108.119566 
L 331.630775 108.390613 
L 322.433465 109.098456 
L 313.236155 109.092154 
L 304.038845 110.473758 
L 294.841535 109.397412 
L 285.644225 109.726141 
L 276.446916 110.367552 
L 267.249606 111.030616 
L 258.052296 110.121729 
L 248.854986 112.168946 
L 239.657676 113.534883 
L 230.460366 113.10573 
L 221.263057 114.396473 
L 212.065747 114.678107 
L 202.868437 116.744167 
L 193.671127 118.425796 
L 184.473817 119.152661 
L 175.276507 121.03763 
L 166.079198 123.427834 
L 156.881888 128.559118 
L 147.684578 128.929391 
L 138.487268 132.524982 
L 129.289958 138.611446 
L 120.092648 145.490225 
L 110.895339 153.478326 
L 101.698029 169.303085 
L 92.500719 180.598543 
L 83.303409 232.348172 
z
" style="fill:#d62728;fill-opacity:0.5;"/>
   </g>
   <g id="matplotlib.axis_1">
    <g id="xtick_1">
     <g id="line2d_1">
      <defs>
       <path d="M 0 0 
L 0 3.5 
" id="m88a5eed5be" style="stroke:#000000;stroke-width:0.8;"/>
      </defs>
      <g>
       <use style="stroke:#000000;stroke-width:0.8;" x="83.303409" xlink:href="#m88a5eed5be" y="376"/>
      </g>
     </g>
     <g id="text_1">
      <!-- 0 -->
      <g transform="translate(78.531534 394.397656)scale(0.15 -0.15)">
       <defs>
        <path d="M 2034 4250 
Q 1547 4250 1301 3770 
Q 1056 3291 1056 2328 
Q 1056 1369 1301 889 
Q 1547 409 2034 409 
Q 2525 409 2770 889 
Q 3016 1369 3016 2328 
Q 3016 3291 2770 3770 
Q 2525 4250 2034 4250 
z
M 2034 4750 
Q 2819 4750 3233 4129 
Q 3647 3509 3647 2328 
Q 3647 1150 3233 529 
Q 2819 -91 2034 -91 
Q 1250 -91 836 529 
Q 422 1150 422 2328 
Q 422 3509 836 4129 
Q 1250 4750 2034 4750 
z
" id="DejaVuSans-30" transform="scale(0.015625)"/>
       </defs>
       <use xlink:href="#DejaVuSans-30"/>
      </g>
     </g>
    </g>
    <g id="xtick_2">
     <g id="line2d_2">
      <g>
       <use style="stroke:#000000;stroke-width:0.8;" x="175.276507" xlink:href="#m88a5eed5be" y="376"/>
      </g>
     </g>
     <g id="text_2">
      <!-- 10 -->
      <g transform="translate(165.732757 394.397656)scale(0.15 -0.15)">
       <defs>
        <path d="M 794 531 
L 1825 531 
L 1825 4091 
L 703 3866 
L 703 4441 
L 1819 4666 
L 2450 4666 
L 2450 531 
L 3481 531 
L 3481 0 
L 794 0 
L 794 531 
z
" id="DejaVuSans-31" transform="scale(0.015625)"/>
       </defs>
       <use xlink:href="#DejaVuSans-31"/>
       <use x="63.623047" xlink:href="#DejaVuSans-30"/>
      </g>
     </g>
    </g>
    <g id="xtick_3">
     <g id="line2d_3">
      <g>
       <use style="stroke:#000000;stroke-width:0.8;" x="267.249606" xlink:href="#m88a5eed5be" y="376"/>
      </g>
     </g>
     <g id="text_3">
      <!-- 20 -->
      <g transform="translate(257.705856 394.397656)scale(0.15 -0.15)">
       <defs>
        <path d="M 1228 531 
L 3431 531 
L 3431 0 
L 469 0 
L 469 531 
Q 828 903 1448 1529 
Q 2069 2156 2228 2338 
Q 2531 2678 2651 2914 
Q 2772 3150 2772 3378 
Q 2772 3750 2511 3984 
Q 2250 4219 1831 4219 
Q 1534 4219 1204 4116 
Q 875 4013 500 3803 
L 500 4441 
Q 881 4594 1212 4672 
Q 1544 4750 1819 4750 
Q 2544 4750 2975 4387 
Q 3406 4025 3406 3419 
Q 3406 3131 3298 2873 
Q 3191 2616 2906 2266 
Q 2828 2175 2409 1742 
Q 1991 1309 1228 531 
z
" id="DejaVuSans-32" transform="scale(0.015625)"/>
       </defs>
       <use xlink:href="#DejaVuSans-32"/>
       <use x="63.623047" xlink:href="#DejaVuSans-30"/>
      </g>
     </g>
    </g>
    <g id="xtick_4">
     <g id="line2d_4">
      <g>
       <use style="stroke:#000000;stroke-width:0.8;" x="359.222704" xlink:href="#m88a5eed5be" y="376"/>
      </g>
     </g>
     <g id="text_4">
      <!-- 30 -->
      <g transform="translate(349.678954 394.397656)scale(0.15 -0.15)">
       <defs>
        <path d="M 2597 2516 
Q 3050 2419 3304 2112 
Q 3559 1806 3559 1356 
Q 3559 666 3084 287 
Q 2609 -91 1734 -91 
Q 1441 -91 1130 -33 
Q 819 25 488 141 
L 488 750 
Q 750 597 1062 519 
Q 1375 441 1716 441 
Q 2309 441 2620 675 
Q 2931 909 2931 1356 
Q 2931 1769 2642 2001 
Q 2353 2234 1838 2234 
L 1294 2234 
L 1294 2753 
L 1863 2753 
Q 2328 2753 2575 2939 
Q 2822 3125 2822 3475 
Q 2822 3834 2567 4026 
Q 2313 4219 1838 4219 
Q 1578 4219 1281 4162 
Q 984 4106 628 3988 
L 628 4550 
Q 988 4650 1302 4700 
Q 1616 4750 1894 4750 
Q 2613 4750 3031 4423 
Q 3450 4097 3450 3541 
Q 3450 3153 3228 2886 
Q 3006 2619 2597 2516 
z
" id="DejaVuSans-33" transform="scale(0.015625)"/>
       </defs>
       <use xlink:href="#DejaVuSans-33"/>
       <use x="63.623047" xlink:href="#DejaVuSans-30"/>
      </g>
     </g>
    </g>
    <g id="xtick_5">
     <g id="line2d_5">
      <g>
       <use style="stroke:#000000;stroke-width:0.8;" x="451.195802" xlink:href="#m88a5eed5be" y="376"/>
      </g>
     </g>
     <g id="text_5">
      <!-- 40 -->
      <g transform="translate(441.652052 394.397656)scale(0.15 -0.15)">
       <defs>
        <path d="M 2419 4116 
L 825 1625 
L 2419 1625 
L 2419 4116 
z
M 2253 4666 
L 3047 4666 
L 3047 1625 
L 3713 1625 
L 3713 1100 
L 3047 1100 
L 3047 0 
L 2419 0 
L 2419 1100 
L 313 1100 
L 313 1709 
L 2253 4666 
z
" id="DejaVuSans-34" transform="scale(0.015625)"/>
       </defs>
       <use xlink:href="#DejaVuSans-34"/>
       <use x="63.623047" xlink:href="#DejaVuSans-30"/>
      </g>
     </g>
    </g>
    <g id="xtick_6">
     <g id="line2d_6">
      <g>
       <use style="stroke:#000000;stroke-width:0.8;" x="543.168901" xlink:href="#m88a5eed5be" y="376"/>
      </g>
     </g>
     <g id="text_6">
      <!-- 50 -->
      <g transform="translate(533.625151 394.397656)scale(0.15 -0.15)">
       <defs>
        <path d="M 691 4666 
L 3169 4666 
L 3169 4134 
L 1269 4134 
L 1269 2991 
Q 1406 3038 1543 3061 
Q 1681 3084 1819 3084 
Q 2600 3084 3056 2656 
Q 3513 2228 3513 1497 
Q 3513 744 3044 326 
Q 2575 -91 1722 -91 
Q 1428 -91 1123 -41 
Q 819 9 494 109 
L 494 744 
Q 775 591 1075 516 
Q 1375 441 1709 441 
Q 2250 441 2565 725 
Q 2881 1009 2881 1497 
Q 2881 1984 2565 2268 
Q 2250 2553 1709 2553 
Q 1456 2553 1204 2497 
Q 953 2441 691 2322 
L 691 4666 
z
" id="DejaVuSans-35" transform="scale(0.015625)"/>
       </defs>
       <use xlink:href="#DejaVuSans-35"/>
       <use x="63.623047" xlink:href="#DejaVuSans-30"/>
      </g>
     </g>
    </g>
    <g id="text_7">
     <!-- Global Communication Rounds -->
     <g transform="translate(193.194922 412.914844)scale(0.15 -0.15)">
      <defs>
       <path d="M 3809 666 
L 3809 1919 
L 2778 1919 
L 2778 2438 
L 4434 2438 
L 4434 434 
Q 4069 175 3628 42 
Q 3188 -91 2688 -91 
Q 1594 -91 976 548 
Q 359 1188 359 2328 
Q 359 3472 976 4111 
Q 1594 4750 2688 4750 
Q 3144 4750 3555 4637 
Q 3966 4525 4313 4306 
L 4313 3634 
Q 3963 3931 3569 4081 
Q 3175 4231 2741 4231 
Q 1884 4231 1454 3753 
Q 1025 3275 1025 2328 
Q 1025 1384 1454 906 
Q 1884 428 2741 428 
Q 3075 428 3337 486 
Q 3600 544 3809 666 
z
" id="DejaVuSans-47" transform="scale(0.015625)"/>
       <path d="M 603 4863 
L 1178 4863 
L 1178 0 
L 603 0 
L 603 4863 
z
" id="DejaVuSans-6c" transform="scale(0.015625)"/>
       <path d="M 1959 3097 
Q 1497 3097 1228 2736 
Q 959 2375 959 1747 
Q 959 1119 1226 758 
Q 1494 397 1959 397 
Q 2419 397 2687 759 
Q 2956 1122 2956 1747 
Q 2956 2369 2687 2733 
Q 2419 3097 1959 3097 
z
M 1959 3584 
Q 2709 3584 3137 3096 
Q 3566 2609 3566 1747 
Q 3566 888 3137 398 
Q 2709 -91 1959 -91 
Q 1206 -91 779 398 
Q 353 888 353 1747 
Q 353 2609 779 3096 
Q 1206 3584 1959 3584 
z
" id="DejaVuSans-6f" transform="scale(0.015625)"/>
       <path d="M 3116 1747 
Q 3116 2381 2855 2742 
Q 2594 3103 2138 3103 
Q 1681 3103 1420 2742 
Q 1159 2381 1159 1747 
Q 1159 1113 1420 752 
Q 1681 391 2138 391 
Q 2594 391 2855 752 
Q 3116 1113 3116 1747 
z
M 1159 2969 
Q 1341 3281 1617 3432 
Q 1894 3584 2278 3584 
Q 2916 3584 3314 3078 
Q 3713 2572 3713 1747 
Q 3713 922 3314 415 
Q 2916 -91 2278 -91 
Q 1894 -91 1617 61 
Q 1341 213 1159 525 
L 1159 0 
L 581 0 
L 581 4863 
L 1159 4863 
L 1159 2969 
z
" id="DejaVuSans-62" transform="scale(0.015625)"/>
       <path d="M 2194 1759 
Q 1497 1759 1228 1600 
Q 959 1441 959 1056 
Q 959 750 1161 570 
Q 1363 391 1709 391 
Q 2188 391 2477 730 
Q 2766 1069 2766 1631 
L 2766 1759 
L 2194 1759 
z
M 3341 1997 
L 3341 0 
L 2766 0 
L 2766 531 
Q 2569 213 2275 61 
Q 1981 -91 1556 -91 
Q 1019 -91 701 211 
Q 384 513 384 1019 
Q 384 1609 779 1909 
Q 1175 2209 1959 2209 
L 2766 2209 
L 2766 2266 
Q 2766 2663 2505 2880 
Q 2244 3097 1772 3097 
Q 1472 3097 1187 3025 
Q 903 2953 641 2809 
L 641 3341 
Q 956 3463 1253 3523 
Q 1550 3584 1831 3584 
Q 2591 3584 2966 3190 
Q 3341 2797 3341 1997 
z
" id="DejaVuSans-61" transform="scale(0.015625)"/>
       <path id="DejaVuSans-20" transform="scale(0.015625)"/>
       <path d="M 4122 4306 
L 4122 3641 
Q 3803 3938 3442 4084 
Q 3081 4231 2675 4231 
Q 1875 4231 1450 3742 
Q 1025 3253 1025 2328 
Q 1025 1406 1450 917 
Q 1875 428 2675 428 
Q 3081 428 3442 575 
Q 3803 722 4122 1019 
L 4122 359 
Q 3791 134 3420 21 
Q 3050 -91 2638 -91 
Q 1578 -91 968 557 
Q 359 1206 359 2328 
Q 359 3453 968 4101 
Q 1578 4750 2638 4750 
Q 3056 4750 3426 4639 
Q 3797 4528 4122 4306 
z
" id="DejaVuSans-43" transform="scale(0.015625)"/>
       <path d="M 3328 2828 
Q 3544 3216 3844 3400 
Q 4144 3584 4550 3584 
Q 5097 3584 5394 3201 
Q 5691 2819 5691 2113 
L 5691 0 
L 5113 0 
L 5113 2094 
Q 5113 2597 4934 2840 
Q 4756 3084 4391 3084 
Q 3944 3084 3684 2787 
Q 3425 2491 3425 1978 
L 3425 0 
L 2847 0 
L 2847 2094 
Q 2847 2600 2669 2842 
Q 2491 3084 2119 3084 
Q 1678 3084 1418 2786 
Q 1159 2488 1159 1978 
L 1159 0 
L 581 0 
L 581 3500 
L 1159 3500 
L 1159 2956 
Q 1356 3278 1631 3431 
Q 1906 3584 2284 3584 
Q 2666 3584 2933 3390 
Q 3200 3197 3328 2828 
z
" id="DejaVuSans-6d" transform="scale(0.015625)"/>
       <path d="M 544 1381 
L 544 3500 
L 1119 3500 
L 1119 1403 
Q 1119 906 1312 657 
Q 1506 409 1894 409 
Q 2359 409 2629 706 
Q 2900 1003 2900 1516 
L 2900 3500 
L 3475 3500 
L 3475 0 
L 2900 0 
L 2900 538 
Q 2691 219 2414 64 
Q 2138 -91 1772 -91 
Q 1169 -91 856 284 
Q 544 659 544 1381 
z
M 1991 3584 
L 1991 3584 
z
" id="DejaVuSans-75" transform="scale(0.015625)"/>
       <path d="M 3513 2113 
L 3513 0 
L 2938 0 
L 2938 2094 
Q 2938 2591 2744 2837 
Q 2550 3084 2163 3084 
Q 1697 3084 1428 2787 
Q 1159 2491 1159 1978 
L 1159 0 
L 581 0 
L 581 3500 
L 1159 3500 
L 1159 2956 
Q 1366 3272 1645 3428 
Q 1925 3584 2291 3584 
Q 2894 3584 3203 3211 
Q 3513 2838 3513 2113 
z
" id="DejaVuSans-6e" transform="scale(0.015625)"/>
       <path d="M 603 3500 
L 1178 3500 
L 1178 0 
L 603 0 
L 603 3500 
z
M 603 4863 
L 1178 4863 
L 1178 4134 
L 603 4134 
L 603 4863 
z
" id="DejaVuSans-69" transform="scale(0.015625)"/>
       <path d="M 3122 3366 
L 3122 2828 
Q 2878 2963 2633 3030 
Q 2388 3097 2138 3097 
Q 1578 3097 1268 2742 
Q 959 2388 959 1747 
Q 959 1106 1268 751 
Q 1578 397 2138 397 
Q 2388 397 2633 464 
Q 2878 531 3122 666 
L 3122 134 
Q 2881 22 2623 -34 
Q 2366 -91 2075 -91 
Q 1284 -91 818 406 
Q 353 903 353 1747 
Q 353 2603 823 3093 
Q 1294 3584 2113 3584 
Q 2378 3584 2631 3529 
Q 2884 3475 3122 3366 
z
" id="DejaVuSans-63" transform="scale(0.015625)"/>
       <path d="M 1172 4494 
L 1172 3500 
L 2356 3500 
L 2356 3053 
L 1172 3053 
L 1172 1153 
Q 1172 725 1289 603 
Q 1406 481 1766 481 
L 2356 481 
L 2356 0 
L 1766 0 
Q 1100 0 847 248 
Q 594 497 594 1153 
L 594 3053 
L 172 3053 
L 172 3500 
L 594 3500 
L 594 4494 
L 1172 4494 
z
" id="DejaVuSans-74" transform="scale(0.015625)"/>
       <path d="M 2841 2188 
Q 3044 2119 3236 1894 
Q 3428 1669 3622 1275 
L 4263 0 
L 3584 0 
L 2988 1197 
Q 2756 1666 2539 1819 
Q 2322 1972 1947 1972 
L 1259 1972 
L 1259 0 
L 628 0 
L 628 4666 
L 2053 4666 
Q 2853 4666 3247 4331 
Q 3641 3997 3641 3322 
Q 3641 2881 3436 2590 
Q 3231 2300 2841 2188 
z
M 1259 4147 
L 1259 2491 
L 2053 2491 
Q 2509 2491 2742 2702 
Q 2975 2913 2975 3322 
Q 2975 3731 2742 3939 
Q 2509 4147 2053 4147 
L 1259 4147 
z
" id="DejaVuSans-52" transform="scale(0.015625)"/>
       <path d="M 2906 2969 
L 2906 4863 
L 3481 4863 
L 3481 0 
L 2906 0 
L 2906 525 
Q 2725 213 2448 61 
Q 2172 -91 1784 -91 
Q 1150 -91 751 415 
Q 353 922 353 1747 
Q 353 2572 751 3078 
Q 1150 3584 1784 3584 
Q 2172 3584 2448 3432 
Q 2725 3281 2906 2969 
z
M 947 1747 
Q 947 1113 1208 752 
Q 1469 391 1925 391 
Q 2381 391 2643 752 
Q 2906 1113 2906 1747 
Q 2906 2381 2643 2742 
Q 2381 3103 1925 3103 
Q 1469 3103 1208 2742 
Q 947 2381 947 1747 
z
" id="DejaVuSans-64" transform="scale(0.015625)"/>
       <path d="M 2834 3397 
L 2834 2853 
Q 2591 2978 2328 3040 
Q 2066 3103 1784 3103 
Q 1356 3103 1142 2972 
Q 928 2841 928 2578 
Q 928 2378 1081 2264 
Q 1234 2150 1697 2047 
L 1894 2003 
Q 2506 1872 2764 1633 
Q 3022 1394 3022 966 
Q 3022 478 2636 193 
Q 2250 -91 1575 -91 
Q 1294 -91 989 -36 
Q 684 19 347 128 
L 347 722 
Q 666 556 975 473 
Q 1284 391 1588 391 
Q 1994 391 2212 530 
Q 2431 669 2431 922 
Q 2431 1156 2273 1281 
Q 2116 1406 1581 1522 
L 1381 1569 
Q 847 1681 609 1914 
Q 372 2147 372 2553 
Q 372 3047 722 3315 
Q 1072 3584 1716 3584 
Q 2034 3584 2315 3537 
Q 2597 3491 2834 3397 
z
" id="DejaVuSans-73" transform="scale(0.015625)"/>
      </defs>
      <use xlink:href="#DejaVuSans-47"/>
      <use x="77.490234" xlink:href="#DejaVuSans-6c"/>
      <use x="105.273438" xlink:href="#DejaVuSans-6f"/>
      <use x="166.455078" xlink:href="#DejaVuSans-62"/>
      <use x="229.931641" xlink:href="#DejaVuSans-61"/>
      <use x="291.210938" xlink:href="#DejaVuSans-6c"/>
      <use x="318.994141" xlink:href="#DejaVuSans-20"/>
      <use x="350.78125" xlink:href="#DejaVuSans-43"/>
      <use x="420.605469" xlink:href="#DejaVuSans-6f"/>
      <use x="481.787109" xlink:href="#DejaVuSans-6d"/>
      <use x="579.199219" xlink:href="#DejaVuSans-6d"/>
      <use x="676.611328" xlink:href="#DejaVuSans-75"/>
      <use x="739.990234" xlink:href="#DejaVuSans-6e"/>
      <use x="803.369141" xlink:href="#DejaVuSans-69"/>
      <use x="831.152344" xlink:href="#DejaVuSans-63"/>
      <use x="886.132812" xlink:href="#DejaVuSans-61"/>
      <use x="947.412109" xlink:href="#DejaVuSans-74"/>
      <use x="986.621094" xlink:href="#DejaVuSans-69"/>
      <use x="1014.404297" xlink:href="#DejaVuSans-6f"/>
      <use x="1075.585938" xlink:href="#DejaVuSans-6e"/>
      <use x="1138.964844" xlink:href="#DejaVuSans-20"/>
      <use x="1170.751953" xlink:href="#DejaVuSans-52"/>
      <use x="1235.734375" xlink:href="#DejaVuSans-6f"/>
      <use x="1296.916016" xlink:href="#DejaVuSans-75"/>
      <use x="1360.294922" xlink:href="#DejaVuSans-6e"/>
      <use x="1423.673828" xlink:href="#DejaVuSans-64"/>
      <use x="1487.150391" xlink:href="#DejaVuSans-73"/>
     </g>
    </g>
   </g>
   <g id="matplotlib.axis_2">
    <g id="ytick_1">
     <g id="line2d_7">
      <defs>
       <path d="M 0 0 
L -3.5 0 
" id="m9b475c1fd0" style="stroke:#000000;stroke-width:0.8;"/>
      </defs>
      <g>
       <use style="stroke:#000000;stroke-width:0.8;" x="60.77" xlink:href="#m9b475c1fd0" y="323.605015"/>
      </g>
     </g>
     <g id="text_8">
      <!-- 80 -->
      <g transform="translate(34.6825 329.303843)scale(0.15 -0.15)">
       <defs>
        <path d="M 2034 2216 
Q 1584 2216 1326 1975 
Q 1069 1734 1069 1313 
Q 1069 891 1326 650 
Q 1584 409 2034 409 
Q 2484 409 2743 651 
Q 3003 894 3003 1313 
Q 3003 1734 2745 1975 
Q 2488 2216 2034 2216 
z
M 1403 2484 
Q 997 2584 770 2862 
Q 544 3141 544 3541 
Q 544 4100 942 4425 
Q 1341 4750 2034 4750 
Q 2731 4750 3128 4425 
Q 3525 4100 3525 3541 
Q 3525 3141 3298 2862 
Q 3072 2584 2669 2484 
Q 3125 2378 3379 2068 
Q 3634 1759 3634 1313 
Q 3634 634 3220 271 
Q 2806 -91 2034 -91 
Q 1263 -91 848 271 
Q 434 634 434 1313 
Q 434 1759 690 2068 
Q 947 2378 1403 2484 
z
M 1172 3481 
Q 1172 3119 1398 2916 
Q 1625 2713 2034 2713 
Q 2441 2713 2670 2916 
Q 2900 3119 2900 3481 
Q 2900 3844 2670 4047 
Q 2441 4250 2034 4250 
Q 1625 4250 1398 4047 
Q 1172 3844 1172 3481 
z
" id="DejaVuSans-38" transform="scale(0.015625)"/>
       </defs>
       <use xlink:href="#DejaVuSans-38"/>
       <use x="63.623047" xlink:href="#DejaVuSans-30"/>
      </g>
     </g>
    </g>
    <g id="ytick_2">
     <g id="line2d_8">
      <g>
       <use style="stroke:#000000;stroke-width:0.8;" x="60.77" xlink:href="#m9b475c1fd0" y="254.210812"/>
      </g>
     </g>
     <g id="text_9">
      <!-- 85 -->
      <g transform="translate(34.6825 259.90964)scale(0.15 -0.15)">
       <use xlink:href="#DejaVuSans-38"/>
       <use x="63.623047" xlink:href="#DejaVuSans-35"/>
      </g>
     </g>
    </g>
    <g id="ytick_3">
     <g id="line2d_9">
      <g>
       <use style="stroke:#000000;stroke-width:0.8;" x="60.77" xlink:href="#m9b475c1fd0" y="184.816608"/>
      </g>
     </g>
     <g id="text_10">
      <!-- 90 -->
      <g transform="translate(34.6825 190.515437)scale(0.15 -0.15)">
       <defs>
        <path d="M 703 97 
L 703 672 
Q 941 559 1184 500 
Q 1428 441 1663 441 
Q 2288 441 2617 861 
Q 2947 1281 2994 2138 
Q 2813 1869 2534 1725 
Q 2256 1581 1919 1581 
Q 1219 1581 811 2004 
Q 403 2428 403 3163 
Q 403 3881 828 4315 
Q 1253 4750 1959 4750 
Q 2769 4750 3195 4129 
Q 3622 3509 3622 2328 
Q 3622 1225 3098 567 
Q 2575 -91 1691 -91 
Q 1453 -91 1209 -44 
Q 966 3 703 97 
z
M 1959 2075 
Q 2384 2075 2632 2365 
Q 2881 2656 2881 3163 
Q 2881 3666 2632 3958 
Q 2384 4250 1959 4250 
Q 1534 4250 1286 3958 
Q 1038 3666 1038 3163 
Q 1038 2656 1286 2365 
Q 1534 2075 1959 2075 
z
" id="DejaVuSans-39" transform="scale(0.015625)"/>
       </defs>
       <use xlink:href="#DejaVuSans-39"/>
       <use x="63.623047" xlink:href="#DejaVuSans-30"/>
      </g>
     </g>
    </g>
    <g id="ytick_4">
     <g id="line2d_10">
      <g>
       <use style="stroke:#000000;stroke-width:0.8;" x="60.77" xlink:href="#m9b475c1fd0" y="115.422405"/>
      </g>
     </g>
     <g id="text_11">
      <!-- 95 -->
      <g transform="translate(34.6825 121.121233)scale(0.15 -0.15)">
       <use xlink:href="#DejaVuSans-39"/>
       <use x="63.623047" xlink:href="#DejaVuSans-35"/>
      </g>
     </g>
    </g>
    <g id="text_12">
     <!-- Test Accuracy -->
     <g transform="translate(27.562969 267.694744)rotate(-90)scale(0.15 -0.15)">
      <defs>
       <path d="M -19 4666 
L 3928 4666 
L 3928 4134 
L 2272 4134 
L 2272 0 
L 1638 0 
L 1638 4134 
L -19 4134 
L -19 4666 
z
" id="DejaVuSans-54" transform="scale(0.015625)"/>
       <path d="M 3597 1894 
L 3597 1613 
L 953 1613 
Q 991 1019 1311 708 
Q 1631 397 2203 397 
Q 2534 397 2845 478 
Q 3156 559 3463 722 
L 3463 178 
Q 3153 47 2828 -22 
Q 2503 -91 2169 -91 
Q 1331 -91 842 396 
Q 353 884 353 1716 
Q 353 2575 817 3079 
Q 1281 3584 2069 3584 
Q 2775 3584 3186 3129 
Q 3597 2675 3597 1894 
z
M 3022 2063 
Q 3016 2534 2758 2815 
Q 2500 3097 2075 3097 
Q 1594 3097 1305 2825 
Q 1016 2553 972 2059 
L 3022 2063 
z
" id="DejaVuSans-65" transform="scale(0.015625)"/>
       <path d="M 2188 4044 
L 1331 1722 
L 3047 1722 
L 2188 4044 
z
M 1831 4666 
L 2547 4666 
L 4325 0 
L 3669 0 
L 3244 1197 
L 1141 1197 
L 716 0 
L 50 0 
L 1831 4666 
z
" id="DejaVuSans-41" transform="scale(0.015625)"/>
       <path d="M 2631 2963 
Q 2534 3019 2420 3045 
Q 2306 3072 2169 3072 
Q 1681 3072 1420 2755 
Q 1159 2438 1159 1844 
L 1159 0 
L 581 0 
L 581 3500 
L 1159 3500 
L 1159 2956 
Q 1341 3275 1631 3429 
Q 1922 3584 2338 3584 
Q 2397 3584 2469 3576 
Q 2541 3569 2628 3553 
L 2631 2963 
z
" id="DejaVuSans-72" transform="scale(0.015625)"/>
       <path d="M 2059 -325 
Q 1816 -950 1584 -1140 
Q 1353 -1331 966 -1331 
L 506 -1331 
L 506 -850 
L 844 -850 
Q 1081 -850 1212 -737 
Q 1344 -625 1503 -206 
L 1606 56 
L 191 3500 
L 800 3500 
L 1894 763 
L 2988 3500 
L 3597 3500 
L 2059 -325 
z
" id="DejaVuSans-79" transform="scale(0.015625)"/>
      </defs>
      <use xlink:href="#DejaVuSans-54"/>
      <use x="44.083984" xlink:href="#DejaVuSans-65"/>
      <use x="105.607422" xlink:href="#DejaVuSans-73"/>
      <use x="157.707031" xlink:href="#DejaVuSans-74"/>
      <use x="196.916016" xlink:href="#DejaVuSans-20"/>
      <use x="228.703125" xlink:href="#DejaVuSans-41"/>
      <use x="295.361328" xlink:href="#DejaVuSans-63"/>
      <use x="350.341797" xlink:href="#DejaVuSans-63"/>
      <use x="405.322266" xlink:href="#DejaVuSans-75"/>
      <use x="468.701172" xlink:href="#DejaVuSans-72"/>
      <use x="509.814453" xlink:href="#DejaVuSans-61"/>
      <use x="571.09375" xlink:href="#DejaVuSans-63"/>
      <use x="626.074219" xlink:href="#DejaVuSans-79"/>
     </g>
    </g>
   </g>
   <g id="line2d_11">
    <path clip-path="url(#p94451d285b)" d="M 83.303409 297.252786 
L 92.500719 169.707997 
L 101.698029 153.545297 
L 110.895339 143.004405 
L 120.092648 133.517602 
L 129.289958 130.706698 
L 138.487268 124.382163 
L 147.684578 119.46308 
L 156.881888 115.598087 
L 166.079198 109.273552 
L 175.276507 109.624915 
L 184.473817 108.570826 
L 193.671127 103.30038 
L 202.868437 102.597654 
L 212.065747 102.597654 
L 221.263057 95.921756 
L 230.460366 98.029934 
L 239.657676 93.462214 
L 248.854986 93.110851 
L 258.052296 94.516303 
L 267.249606 94.867666 
L 276.446916 93.813577 
L 285.644225 91.705399 
L 294.841535 92.056762 
L 304.038845 92.056762 
L 313.236155 91.002673 
L 322.433465 91.705399 
L 331.630775 88.543131 
L 340.828084 89.245857 
L 350.025394 91.002673 
L 359.222704 84.678138 
L 368.420014 86.08359 
L 377.617324 89.245857 
L 386.814634 89.597221 
L 396.011943 89.245857 
L 405.209253 84.326775 
L 414.406563 85.029501 
L 423.603873 84.326775 
L 432.801183 80.461781 
L 441.998493 82.921323 
L 451.195802 80.813144 
L 460.393112 81.164507 
L 469.590422 82.569959 
L 478.787732 81.164507 
L 487.985042 79.759055 
L 497.182352 81.867233 
L 506.379661 80.461781 
L 515.576971 79.407692 
L 524.774281 78.704966 
L 533.971591 81.164507 
" style="fill:none;stroke:#1f77b4;stroke-linecap:square;stroke-width:1.5;"/>
   </g>
   <g id="line2d_12">
    <path clip-path="url(#p94451d285b)" d="M 83.303409 305.334136 
L 92.500719 183.762519 
L 101.698029 156.356201 
L 110.895339 152.139844 
L 120.092648 137.031233 
L 129.289958 131.760787 
L 138.487268 127.193067 
L 147.684578 121.219896 
L 156.881888 120.165806 
L 166.079198 113.841271 
L 175.276507 113.489908 
L 184.473817 113.841271 
L 193.671127 110.679004 
L 202.868437 106.462647 
L 212.065747 107.868099 
L 221.263057 101.894927 
L 230.460366 104.003106 
L 239.657676 100.489475 
L 248.854986 104.354469 
L 258.052296 102.246291 
L 267.249606 102.597654 
L 276.446916 100.840838 
L 285.644225 97.678571 
L 294.841535 101.543564 
L 304.038845 97.327208 
L 313.236155 96.624482 
L 322.433465 99.084023 
L 331.630775 95.921756 
L 340.828084 95.921756 
L 350.025394 95.570392 
L 359.222704 93.813577 
L 368.420014 92.408125 
L 377.617324 94.16494 
L 386.814634 94.867666 
L 396.011943 92.759488 
L 405.209253 93.813577 
L 414.406563 92.056762 
L 423.603873 94.16494 
L 432.801183 93.462214 
L 441.998493 92.056762 
L 451.195802 94.516303 
L 460.393112 93.462214 
L 469.590422 93.813577 
L 478.787732 94.516303 
L 487.985042 92.759488 
L 497.182352 93.110851 
L 506.379661 91.354036 
L 515.576971 90.65131 
L 524.774281 91.354036 
L 533.971591 93.110851 
" style="fill:none;stroke:#ff7f0e;stroke-linecap:square;stroke-width:1.5;"/>
   </g>
   <g id="line2d_13">
    <path clip-path="url(#p94451d285b)" d="M 83.303409 273.360098 
L 92.500719 178.843437 
L 101.698029 155.653475 
L 110.895339 139.490774 
L 120.092648 137.382596 
L 129.289958 130.355335 
L 138.487268 124.733526 
L 147.684578 124.382163 
L 156.881888 115.94945 
L 166.079198 111.030367 
L 175.276507 111.733093 
L 184.473817 103.651743 
L 193.671127 108.570826 
L 202.868437 108.219462 
L 212.065747 105.759921 
L 221.263057 101.192201 
L 230.460366 100.489475 
L 239.657676 99.786749 
L 248.854986 98.029934 
L 258.052296 97.678571 
L 267.249606 95.219029 
L 276.446916 92.408125 
L 285.644225 93.110851 
L 294.841535 94.516303 
L 304.038845 96.624482 
L 313.236155 93.813577 
L 322.433465 96.975845 
L 331.630775 92.408125 
L 340.828084 91.354036 
L 350.025394 91.705399 
L 359.222704 91.705399 
L 368.420014 91.354036 
L 377.617324 88.894494 
L 386.814634 89.245857 
L 396.011943 88.543131 
L 405.209253 89.597221 
L 414.406563 86.786316 
L 423.603873 85.380864 
L 432.801183 86.08359 
L 441.998493 84.678138 
L 451.195802 85.732227 
L 460.393112 86.08359 
L 469.590422 83.624049 
L 478.787732 83.272686 
L 487.985042 82.921323 
L 497.182352 81.867233 
L 506.379661 81.164507 
L 515.576971 83.272686 
L 524.774281 83.272686 
L 533.971591 79.056329 
" style="fill:none;stroke:#2ca02c;stroke-linecap:square;stroke-width:1.5;"/>
   </g>
   <g id="line2d_14">
    <path clip-path="url(#p94451d285b)" d="M 83.303409 296.124911 
L 92.500719 185.843643 
L 101.698029 170.576918 
L 110.895339 156.226197 
L 120.092648 148.814896 
L 129.289958 141.653414 
L 138.487268 136.129635 
L 147.684578 131.910468 
L 156.881888 129.60658 
L 166.079198 125.998082 
L 175.276507 124.804501 
L 184.473817 122.056491 
L 193.671127 120.085696 
L 202.868437 118.420235 
L 212.065747 117.587504 
L 221.263057 116.144105 
L 230.460366 115.311374 
L 239.657676 115.089313 
L 248.854986 113.895733 
L 258.052296 112.341302 
L 267.249606 112.618879 
L 276.446916 112.063726 
L 285.644225 111.675118 
L 294.841535 111.841664 
L 304.038845 112.507849 
L 313.236155 111.147722 
L 322.433465 110.620326 
L 331.630775 110.342749 
L 340.828084 110.370507 
L 350.025394 111.119964 
L 359.222704 110.426022 
L 368.420014 110.009657 
L 377.617324 109.954142 
L 386.814634 109.870869 
L 396.011943 109.9819 
L 405.209253 110.314992 
L 414.406563 109.954142 
L 423.603873 110.065173 
L 432.801183 109.815353 
L 441.998493 109.287958 
L 451.195802 109.704323 
L 460.393112 109.648807 
L 469.590422 109.454504 
L 478.787732 109.398988 
L 487.985042 109.593292 
L 497.182352 109.287958 
L 506.379661 108.982623 
L 515.576971 109.065896 
L 524.774281 109.121411 
L 533.971591 109.287958 
" style="fill:none;stroke:#d62728;stroke-linecap:square;stroke-width:1.5;"/>
   </g>
   <g id="patch_3">
    <path d="M 60.77 376 
L 60.77 56.601988 
" style="fill:none;stroke:#000000;stroke-linecap:square;stroke-linejoin:miter;stroke-width:0.8;"/>
   </g>
   <g id="patch_4">
    <path d="M 556.505 376 
L 556.505 56.601988 
" style="fill:none;stroke:#000000;stroke-linecap:square;stroke-linejoin:miter;stroke-width:0.8;"/>
   </g>
   <g id="patch_5">
    <path d="M 60.77 376 
L 556.505 376 
" style="fill:none;stroke:#000000;stroke-linecap:square;stroke-linejoin:miter;stroke-width:0.8;"/>
   </g>
   <g id="patch_6">
    <path d="M 60.77 56.601989 
L 556.505 56.601989 
" style="fill:none;stroke:#000000;stroke-linecap:square;stroke-linejoin:miter;stroke-width:0.8;"/>
   </g>
   <g id="legend_1">
    <g id="patch_7">
     <path d="M 59.039844 42.709474 
L 558.235156 42.709474 
Q 561.235156 42.709474 561.235156 39.709474 
L 561.235156 19.192287 
Q 561.235156 16.192287 558.235156 16.192287 
L 59.039844 16.192287 
Q 56.039844 16.192287 56.039844 19.192287 
L 56.039844 39.709474 
Q 56.039844 42.709474 59.039844 42.709474 
z
" style="fill:#ffffff;opacity:0.8;stroke:#cccccc;stroke-linejoin:miter;"/>
    </g>
    <g id="line2d_15">
     <path d="M 62.039844 28.339943 
L 92.039844 28.339943 
" style="fill:none;stroke:#1f77b4;stroke-linecap:square;stroke-width:1.5;"/>
    </g>
    <g id="line2d_16"/>
    <g id="text_13">
     <!-- FedAvg -->
     <g transform="translate(104.039844 33.589943)scale(0.15 -0.15)">
      <defs>
       <path d="M 628 4666 
L 3309 4666 
L 3309 4134 
L 1259 4134 
L 1259 2759 
L 3109 2759 
L 3109 2228 
L 1259 2228 
L 1259 0 
L 628 0 
L 628 4666 
z
" id="DejaVuSans-46" transform="scale(0.015625)"/>
       <path d="M 191 3500 
L 800 3500 
L 1894 563 
L 2988 3500 
L 3597 3500 
L 2284 0 
L 1503 0 
L 191 3500 
z
" id="DejaVuSans-76" transform="scale(0.015625)"/>
       <path d="M 2906 1791 
Q 2906 2416 2648 2759 
Q 2391 3103 1925 3103 
Q 1463 3103 1205 2759 
Q 947 2416 947 1791 
Q 947 1169 1205 825 
Q 1463 481 1925 481 
Q 2391 481 2648 825 
Q 2906 1169 2906 1791 
z
M 3481 434 
Q 3481 -459 3084 -895 
Q 2688 -1331 1869 -1331 
Q 1566 -1331 1297 -1286 
Q 1028 -1241 775 -1147 
L 775 -588 
Q 1028 -725 1275 -790 
Q 1522 -856 1778 -856 
Q 2344 -856 2625 -561 
Q 2906 -266 2906 331 
L 2906 616 
Q 2728 306 2450 153 
Q 2172 0 1784 0 
Q 1141 0 747 490 
Q 353 981 353 1791 
Q 353 2603 747 3093 
Q 1141 3584 1784 3584 
Q 2172 3584 2450 3431 
Q 2728 3278 2906 2969 
L 2906 3500 
L 3481 3500 
L 3481 434 
z
" id="DejaVuSans-67" transform="scale(0.015625)"/>
      </defs>
      <use xlink:href="#DejaVuSans-46"/>
      <use x="52.019531" xlink:href="#DejaVuSans-65"/>
      <use x="113.542969" xlink:href="#DejaVuSans-64"/>
      <use x="177.019531" xlink:href="#DejaVuSans-41"/>
      <use x="239.552734" xlink:href="#DejaVuSans-76"/>
      <use x="298.732422" xlink:href="#DejaVuSans-67"/>
     </g>
    </g>
    <g id="line2d_17">
     <path d="M 188.375 28.339943 
L 218.375 28.339943 
" style="fill:none;stroke:#ff7f0e;stroke-linecap:square;stroke-width:1.5;"/>
    </g>
    <g id="line2d_18"/>
    <g id="text_14">
     <!-- FedMed -->
     <g transform="translate(230.375 33.589943)scale(0.15 -0.15)">
      <defs>
       <path d="M 628 4666 
L 1569 4666 
L 2759 1491 
L 3956 4666 
L 4897 4666 
L 4897 0 
L 4281 0 
L 4281 4097 
L 3078 897 
L 2444 897 
L 1241 4097 
L 1241 0 
L 628 0 
L 628 4666 
z
" id="DejaVuSans-4d" transform="scale(0.015625)"/>
      </defs>
      <use xlink:href="#DejaVuSans-46"/>
      <use x="52.019531" xlink:href="#DejaVuSans-65"/>
      <use x="113.542969" xlink:href="#DejaVuSans-64"/>
      <use x="177.019531" xlink:href="#DejaVuSans-4d"/>
      <use x="263.298828" xlink:href="#DejaVuSans-65"/>
      <use x="324.822266" xlink:href="#DejaVuSans-64"/>
     </g>
    </g>
    <g id="line2d_19">
     <path d="M 318.624219 28.339943 
L 348.624219 28.339943 
" style="fill:none;stroke:#2ca02c;stroke-linecap:square;stroke-width:1.5;"/>
    </g>
    <g id="line2d_20"/>
    <g id="text_15">
     <!-- FedProx -->
     <g transform="translate(360.624219 33.589943)scale(0.15 -0.15)">
      <defs>
       <path d="M 1259 4147 
L 1259 2394 
L 2053 2394 
Q 2494 2394 2734 2622 
Q 2975 2850 2975 3272 
Q 2975 3691 2734 3919 
Q 2494 4147 2053 4147 
L 1259 4147 
z
M 628 4666 
L 2053 4666 
Q 2838 4666 3239 4311 
Q 3641 3956 3641 3272 
Q 3641 2581 3239 2228 
Q 2838 1875 2053 1875 
L 1259 1875 
L 1259 0 
L 628 0 
L 628 4666 
z
" id="DejaVuSans-50" transform="scale(0.015625)"/>
       <path d="M 3513 3500 
L 2247 1797 
L 3578 0 
L 2900 0 
L 1881 1375 
L 863 0 
L 184 0 
L 1544 1831 
L 300 3500 
L 978 3500 
L 1906 2253 
L 2834 3500 
L 3513 3500 
z
" id="DejaVuSans-78" transform="scale(0.015625)"/>
      </defs>
      <use xlink:href="#DejaVuSans-46"/>
      <use x="52.019531" xlink:href="#DejaVuSans-65"/>
      <use x="113.542969" xlink:href="#DejaVuSans-64"/>
      <use x="177.019531" xlink:href="#DejaVuSans-50"/>
      <use x="235.572266" xlink:href="#DejaVuSans-72"/>
      <use x="274.435547" xlink:href="#DejaVuSans-6f"/>
      <use x="332.492188" xlink:href="#DejaVuSans-78"/>
     </g>
    </g>
    <g id="line2d_21">
     <path d="M 449.377344 28.339943 
L 479.377344 28.339943 
" style="fill:none;stroke:#d62728;stroke-linecap:square;stroke-width:1.5;"/>
    </g>
    <g id="line2d_22"/>
    <g id="text_16">
     <!-- qFedAvg -->
     <g transform="translate(491.377344 33.589943)scale(0.15 -0.15)">
      <defs>
       <path d="M 947 1747 
Q 947 1113 1208 752 
Q 1469 391 1925 391 
Q 2381 391 2643 752 
Q 2906 1113 2906 1747 
Q 2906 2381 2643 2742 
Q 2381 3103 1925 3103 
Q 1469 3103 1208 2742 
Q 947 2381 947 1747 
z
M 2906 525 
Q 2725 213 2448 61 
Q 2172 -91 1784 -91 
Q 1150 -91 751 415 
Q 353 922 353 1747 
Q 353 2572 751 3078 
Q 1150 3584 1784 3584 
Q 2172 3584 2448 3432 
Q 2725 3281 2906 2969 
L 2906 3500 
L 3481 3500 
L 3481 -1331 
L 2906 -1331 
L 2906 525 
z
" id="DejaVuSans-71" transform="scale(0.015625)"/>
      </defs>
      <use xlink:href="#DejaVuSans-71"/>
      <use x="63.476562" xlink:href="#DejaVuSans-46"/>
      <use x="115.496094" xlink:href="#DejaVuSans-65"/>
      <use x="177.019531" xlink:href="#DejaVuSans-64"/>
      <use x="240.496094" xlink:href="#DejaVuSans-41"/>
      <use x="303.029297" xlink:href="#DejaVuSans-76"/>
      <use x="362.208984" xlink:href="#DejaVuSans-67"/>
     </g>
    </g>
   </g>
  </g>
 </g>
 <defs>
  <clipPath id="p94451d285b">
   <rect height="319.398011" width="495.735" x="60.77" y="56.601989"/>
  </clipPath>
 </defs>
</svg>
