<?xml version="1.0" encoding="utf-8" standalone="no"?>
<!DOCTYPE svg PUBLIC "-//W3C//DTD SVG 1.1//EN"
  "http://www.w3.org/Graphics/SVG/1.1/DTD/svg11.dtd">
<svg height="432pt" version="1.1" viewBox="0 0 576 432" width="576pt" xmlns="http://www.w3.org/2000/svg" xmlns:xlink="http://www.w3.org/1999/xlink">
 <metadata>
  <rdf:RDF xmlns:cc="http://creativecommons.org/ns#" xmlns:dc="http://purl.org/dc/elements/1.1/" xmlns:rdf="http://www.w3.org/1999/02/22-rdf-syntax-ns#">
   <cc:Work>
    <dc:type rdf:resource="http://purl.org/dc/dcmitype/StillImage"/>
    <dc:date>2021-05-07T22:04:21.434435</dc:date>
    <dc:format>image/svg+xml</dc:format>
    <dc:creator>
     <cc:Agent>
      <dc:title>Matplotlib v3.4.1, https://matplotlib.org/</dc:title>
     </cc:Agent>
    </dc:creator>
   </cc:Work>
  </rdf:RDF>
 </metadata>
 <defs>
  <style type="text/css">*{stroke-linecap:butt;stroke-linejoin:round;}</style>
 </defs>
 <g id="figure_1">
  <g id="patch_1">
   <path d="M 0 432 
L 576 432 
L 576 0 
L 0 0 
z
" style="fill:#ffffff;"/>
  </g>
  <g id="axes_1">
   <g id="patch_2">
    <path d="M 70.22 376 
L 551.78 376 
L 551.78 56.601989 
L 70.22 56.601989 
z
" style="fill:#ffffff;"/>
   </g>
   <g id="PolyCollection_1">
    <path clip-path="url(#p09add0ccd5)" d="M 92.109091 287.522194 
L 92.109091 316.479135 
L 101.043414 217.06815 
L 109.977737 193.153311 
L 118.912059 165.658107 
L 127.846382 155.057069 
L 136.780705 142.786046 
L 145.715028 137.359164 
L 154.649351 132.532232 
L 163.583673 120.179887 
L 172.517996 114.025794 
L 181.452319 108.929988 
L 190.386642 106.515202 
L 199.320965 103.441938 
L 208.255288 102.930704 
L 217.18961 101.494269 
L 226.123933 102.050094 
L 235.058256 95.649983 
L 243.992579 95.045738 
L 252.926902 99.461035 
L 261.861224 93.948128 
L 270.795547 97.561644 
L 279.72987 102.344328 
L 288.664193 98.023321 
L 297.598516 96.747593 
L 306.532839 95.045738 
L 315.467161 93.948128 
L 324.401484 92.357153 
L 333.335807 93.948128 
L 342.27013 97.561644 
L 351.204453 96.562044 
L 360.138776 96.856278 
L 369.073098 90.161933 
L 378.007421 98.703897 
L 386.941744 94.268814 
L 395.876067 96.562044 
L 404.81039 91.073994 
L 413.744712 101.355403 
L 422.679035 87.855832 
L 431.613358 93.972984 
L 440.547681 96.006219 
L 449.482004 91.368228 
L 458.416327 92.739637 
L 467.350649 86.977788 
L 476.284972 83.292714 
L 485.219295 88.825407 
L 494.153618 87.251587 
L 503.087941 84.563002 
L 512.022263 83.292714 
L 520.956586 88.878774 
L 529.890909 86.977788 
L 529.890909 75.784318 
L 529.890909 75.784318 
L 520.956586 76.078552 
L 512.022263 75.078953 
L 503.087941 73.808664 
L 494.153618 71.12008 
L 485.219295 73.9367 
L 476.284972 75.078953 
L 467.350649 75.784318 
L 458.416327 76.60813 
L 449.482004 80.174758 
L 440.547681 82.122428 
L 431.613358 84.155662 
L 422.679035 77.101494 
L 413.744712 78.968464 
L 404.81039 78.273772 
L 395.876067 83.761822 
L 386.941744 86.055053 
L 378.007421 83.81519 
L 369.073098 85.771493 
L 360.138776 85.662809 
L 351.204453 83.761822 
L 342.27013 89.347883 
L 333.335807 88.570959 
L 324.401484 87.966713 
L 315.467161 88.570959 
L 306.532839 89.668569 
L 297.598516 87.966713 
L 288.664193 91.081426 
L 279.72987 91.150859 
L 270.795547 89.347883 
L 261.861224 88.570959 
L 252.926902 89.643712 
L 243.992579 89.668569 
L 235.058256 86.869103 
L 226.123933 89.249872 
L 217.18961 87.610478 
L 208.255288 88.369262 
L 199.320965 92.248469 
L 190.386642 95.760864 
L 181.452319 97.736519 
L 172.517996 105.812033 
L 163.583673 104.04838 
L 154.649351 113.648235 
L 145.715028 119.797403 
L 136.780705 123.151401 
L 127.846382 137.223018 
L 118.912059 150.7694 
L 109.977737 160.592936 
L 101.043414 182.777717 
L 92.109091 287.522194 
z
" style="fill:#1f77b4;fill-opacity:0.5;"/>
   </g>
   <g id="PolyCollection_2">
    <path clip-path="url(#p09add0ccd5)" d="M 92.109091 303.98558 
L 92.109091 361.481909 
L 101.043414 216.828053 
L 109.977737 200.363903 
L 118.912059 179.729462 
L 127.846382 157.811205 
L 136.780705 154.637364 
L 145.715028 142.736332 
L 154.649351 137.248282 
L 163.583673 132.364478 
L 172.517996 137.893516 
L 181.452319 119.513844 
L 190.386642 122.523115 
L 199.320965 117.028381 
L 208.255288 114.025794 
L 217.18961 109.808032 
L 226.123933 113.026195 
L 235.058256 108.929988 
L 243.992579 107.723693 
L 252.926902 106.052281 
L 261.861224 103.441938 
L 270.795547 101.138033 
L 279.72987 103.441938 
L 288.664193 101.138033 
L 297.598516 102.050094 
L 306.532839 99.461035 
L 315.467161 99.756864 
L 324.401484 104.319982 
L 333.335807 97.561644 
L 342.27013 104.961355 
L 351.204453 100.564231 
L 360.138776 106.052281 
L 369.073098 103.441938 
L 378.007421 102.344328 
L 386.941744 99.473305 
L 395.876067 100.735484 
L 404.81039 101.494269 
L 413.744712 97.561644 
L 422.679035 93.948128 
L 431.613358 96.747593 
L 440.547681 99.756864 
L 449.482004 97.953888 
L 458.416327 95.045738 
L 467.350649 100.564231 
L 476.284972 97.953888 
L 485.219295 97.561644 
L 494.153618 103.511371 
L 503.087941 101.027152 
L 512.022263 102.344328 
L 520.956586 100.533788 
L 529.890909 102.344328 
L 529.890909 91.150859 
L 529.890909 91.150859 
L 520.956586 95.156619 
L 512.022263 91.150859 
L 503.087941 90.272814 
L 494.153618 96.569476 
L 485.219295 89.347883 
L 476.284972 86.760419 
L 467.350649 88.540516 
L 458.416327 89.668569 
L 449.482004 86.760419 
L 440.547681 91.543103 
L 431.613358 87.966713 
L 422.679035 88.570959 
L 413.744712 89.347883 
L 404.81039 87.610478 
L 395.876067 86.174042 
L 386.941744 83.045782 
L 378.007421 91.150859 
L 369.073098 92.248469 
L 360.138776 94.028566 
L 351.204453 88.540516 
L 342.27013 88.533832 
L 333.335807 89.347883 
L 324.401484 93.565644 
L 315.467161 91.543103 
L 306.532839 89.643712 
L 297.598516 89.249872 
L 288.664193 92.357153 
L 279.72987 92.248469 
L 270.795547 92.357153 
L 261.861224 92.248469 
L 252.926902 94.028566 
L 243.992579 98.942813 
L 235.058256 97.736519 
L 226.123933 100.225972 
L 217.18961 99.053695 
L 208.255288 105.812033 
L 199.320965 105.004666 
L 190.386642 106.095592 
L 181.452319 111.300083 
L 172.517996 117.067831 
L 163.583673 126.987309 
L 154.649351 126.493945 
L 145.715028 131.981995 
L 136.780705 146.423603 
L 127.846382 143.249763 
L 118.912059 160.845465 
L 109.977737 175.334544 
L 101.043414 191.798694 
L 92.109091 303.98558 
z
" style="fill:#ff7f0e;fill-opacity:0.5;"/>
   </g>
   <g id="PolyCollection_3">
    <path clip-path="url(#p09add0ccd5)" d="M 92.109091 286.361416 
L 92.109091 330.811233 
L 101.043414 226.558086 
L 109.977737 194.817367 
L 118.912059 169.298539 
L 127.846382 169.189854 
L 136.780705 143.759275 
L 145.715028 137.359164 
L 154.649351 125.001894 
L 163.583673 133.499215 
L 172.517996 132.118045 
L 181.452319 124.848962 
L 190.386642 112.989981 
L 199.320965 112.857301 
L 208.255288 109.223688 
L 217.18961 106.316336 
L 226.123933 99.854874 
L 235.058256 104.430863 
L 243.992579 101.494269 
L 252.926902 104.430863 
L 261.861224 108.02402 
L 270.795547 97.953888 
L 279.72987 102.896762 
L 288.664193 99.461035 
L 297.598516 96.562044 
L 306.532839 96.747593 
L 315.467161 95.649983 
L 324.401484 94.268814 
L 333.335807 98.703897 
L 342.27013 100.176569 
L 351.204453 98.227687 
L 360.138776 95.076181 
L 369.073098 96.562044 
L 378.007421 100.803657 
L 386.941744 91.954604 
L 395.876067 95.076181 
L 404.81039 95.082864 
L 413.744712 97.408712 
L 422.679035 95.076181 
L 431.613358 92.535271 
L 440.547681 93.215847 
L 449.482004 92.465838 
L 458.416327 91.259543 
L 467.350649 93.215847 
L 476.284972 91.259543 
L 485.219295 89.759384 
L 494.153618 93.215847 
L 503.087941 93.215847 
L 512.022263 88.825407 
L 520.956586 91.954604 
L 529.890909 90.518168 
L 529.890909 76.634378 
L 529.890909 76.634378 
L 520.956586 77.393162 
L 512.022263 73.9367 
L 503.087941 78.32714 
L 494.153618 78.32714 
L 485.219295 75.197942 
L 476.284972 73.697783 
L 467.350649 78.32714 
L 458.416327 73.697783 
L 449.482004 81.272368 
L 440.547681 78.32714 
L 431.613358 85.593376 
L 422.679035 83.052466 
L 413.744712 78.524715 
L 404.81039 78.655342 
L 395.876067 83.052466 
L 386.941744 77.393162 
L 378.007421 79.52021 
L 369.073098 83.761822 
L 360.138776 83.052466 
L 351.204453 82.09618 
L 342.27013 82.342518 
L 333.335807 83.81519 
L 324.401484 86.055053 
L 315.467161 86.869103 
L 306.532839 87.966713 
L 297.598516 83.761822 
L 288.664193 89.643712 
L 279.72987 84.012765 
L 270.795547 86.760419 
L 261.861224 87.666387 
L 252.926902 91.259543 
L 243.992579 87.610478 
L 235.058256 91.259543 
L 226.123933 87.054652 
L 217.18961 87.178851 
L 208.255288 90.857159 
L 199.320965 89.418765 
L 190.386642 91.481306 
L 181.452319 105.964965 
L 172.517996 107.476762 
L 163.583673 117.071692 
L 154.649351 116.788133 
L 145.715028 124.187843 
L 136.780705 130.959052 
L 127.846382 142.847214 
L 118.912059 158.105069 
L 109.977737 178.68586 
L 101.043414 197.435202 
L 92.109091 286.361416 
z
" style="fill:#2ca02c;fill-opacity:0.5;"/>
   </g>
   <g id="PolyCollection_4">
    <path clip-path="url(#p09add0ccd5)" d="M 92.109091 276.397841 
L 92.109091 306.939881 
L 101.043414 228.237899 
L 109.977737 206.166464 
L 118.912059 187.195729 
L 127.846382 177.289459 
L 136.780705 166.618032 
L 145.715028 161.240198 
L 154.649351 154.688177 
L 163.583673 151.132085 
L 172.517996 147.814112 
L 181.452319 146.356936 
L 190.386642 142.644984 
L 199.320965 142.91065 
L 208.255288 141.18608 
L 217.18961 139.181273 
L 226.123933 137.683508 
L 235.058256 136.306993 
L 243.992579 134.688132 
L 252.926902 133.856699 
L 261.861224 133.001235 
L 270.795547 132.473613 
L 279.72987 130.490557 
L 288.664193 130.750918 
L 297.598516 131.271965 
L 306.532839 130.698729 
L 315.467161 130.794531 
L 324.401484 130.697624 
L 333.335807 129.599137 
L 342.27013 128.316999 
L 351.204453 128.061479 
L 360.138776 128.312934 
L 369.073098 128.998668 
L 378.007421 126.534414 
L 386.941744 127.019404 
L 395.876067 126.99206 
L 404.81039 127.577213 
L 413.744712 126.301936 
L 422.679035 126.577316 
L 431.613358 127.029142 
L 440.547681 125.881879 
L 449.482004 124.950383 
L 458.416327 125.771716 
L 467.350649 125.944743 
L 476.284972 126.807261 
L 485.219295 125.290241 
L 494.153618 125.598583 
L 503.087941 124.6365 
L 512.022263 124.879632 
L 520.956586 123.438665 
L 529.890909 125.21313 
L 529.890909 117.349615 
L 529.890909 117.349615 
L 520.956586 118.43039 
L 512.022263 117.50969 
L 503.087941 118.446511 
L 494.153618 117.831273 
L 485.219295 120.047261 
L 476.284972 120.784733 
L 467.350649 120.433294 
L 458.416327 119.739209 
L 449.482004 120.213697 
L 440.547681 119.629046 
L 431.613358 118.828628 
L 422.679035 120.841255 
L 413.744712 121.116635 
L 404.81039 119.667936 
L 395.876067 120.253089 
L 386.941744 119.532055 
L 378.007421 120.36389 
L 369.073098 120.674394 
L 360.138776 119.799326 
L 351.204453 121.264738 
L 342.27013 122.049753 
L 333.335807 122.675261 
L 324.401484 123.48442 
L 315.467161 125.121737 
L 306.532839 124.350427 
L 297.598516 123.256924 
L 288.664193 122.390592 
L 279.72987 124.558599 
L 270.795547 125.523723 
L 261.861224 124.302412 
L 252.926902 123.62037 
L 243.992579 125.737118 
L 235.058256 127.413282 
L 226.123933 130.545749 
L 217.18961 131.302475 
L 208.255288 131.552159 
L 199.320965 133.816304 
L 190.386642 136.856728 
L 181.452319 136.960067 
L 172.517996 139.318185 
L 163.583673 142.590262 
L 154.649351 146.491332 
L 145.715028 152.2523 
L 136.780705 158.146921 
L 127.846382 166.031688 
L 118.912059 178.496906 
L 109.977737 191.609311 
L 101.043414 218.442988 
L 92.109091 276.397841 
z
" style="fill:#d62728;fill-opacity:0.5;"/>
   </g>
   <g id="matplotlib.axis_1">
    <g id="xtick_1">
     <g id="line2d_1">
      <defs>
       <path d="M 0 0 
L 0 3.5 
" id="m9dd60d9004" style="stroke:#000000;stroke-width:0.8;"/>
      </defs>
      <g>
       <use style="stroke:#000000;stroke-width:0.8;" x="92.109091" xlink:href="#m9dd60d9004" y="376"/>
      </g>
     </g>
     <g id="text_1">
      <!-- 0 -->
      <g transform="translate(87.337216 394.397656)scale(0.15 -0.15)">
       <defs>
        <path d="M 2034 4250 
Q 1547 4250 1301 3770 
Q 1056 3291 1056 2328 
Q 1056 1369 1301 889 
Q 1547 409 2034 409 
Q 2525 409 2770 889 
Q 3016 1369 3016 2328 
Q 3016 3291 2770 3770 
Q 2525 4250 2034 4250 
z
M 2034 4750 
Q 2819 4750 3233 4129 
Q 3647 3509 3647 2328 
Q 3647 1150 3233 529 
Q 2819 -91 2034 -91 
Q 1250 -91 836 529 
Q 422 1150 422 2328 
Q 422 3509 836 4129 
Q 1250 4750 2034 4750 
z
" id="DejaVuSans-30" transform="scale(0.015625)"/>
       </defs>
       <use xlink:href="#DejaVuSans-30"/>
      </g>
     </g>
    </g>
    <g id="xtick_2">
     <g id="line2d_2">
      <g>
       <use style="stroke:#000000;stroke-width:0.8;" x="181.452319" xlink:href="#m9dd60d9004" y="376"/>
      </g>
     </g>
     <g id="text_2">
      <!-- 10 -->
      <g transform="translate(171.908569 394.397656)scale(0.15 -0.15)">
       <defs>
        <path d="M 794 531 
L 1825 531 
L 1825 4091 
L 703 3866 
L 703 4441 
L 1819 4666 
L 2450 4666 
L 2450 531 
L 3481 531 
L 3481 0 
L 794 0 
L 794 531 
z
" id="DejaVuSans-31" transform="scale(0.015625)"/>
       </defs>
       <use xlink:href="#DejaVuSans-31"/>
       <use x="63.623047" xlink:href="#DejaVuSans-30"/>
      </g>
     </g>
    </g>
    <g id="xtick_3">
     <g id="line2d_3">
      <g>
       <use style="stroke:#000000;stroke-width:0.8;" x="270.795547" xlink:href="#m9dd60d9004" y="376"/>
      </g>
     </g>
     <g id="text_3">
      <!-- 20 -->
      <g transform="translate(261.251797 394.397656)scale(0.15 -0.15)">
       <defs>
        <path d="M 1228 531 
L 3431 531 
L 3431 0 
L 469 0 
L 469 531 
Q 828 903 1448 1529 
Q 2069 2156 2228 2338 
Q 2531 2678 2651 2914 
Q 2772 3150 2772 3378 
Q 2772 3750 2511 3984 
Q 2250 4219 1831 4219 
Q 1534 4219 1204 4116 
Q 875 4013 500 3803 
L 500 4441 
Q 881 4594 1212 4672 
Q 1544 4750 1819 4750 
Q 2544 4750 2975 4387 
Q 3406 4025 3406 3419 
Q 3406 3131 3298 2873 
Q 3191 2616 2906 2266 
Q 2828 2175 2409 1742 
Q 1991 1309 1228 531 
z
" id="DejaVuSans-32" transform="scale(0.015625)"/>
       </defs>
       <use xlink:href="#DejaVuSans-32"/>
       <use x="63.623047" xlink:href="#DejaVuSans-30"/>
      </g>
     </g>
    </g>
    <g id="xtick_4">
     <g id="line2d_4">
      <g>
       <use style="stroke:#000000;stroke-width:0.8;" x="360.138776" xlink:href="#m9dd60d9004" y="376"/>
      </g>
     </g>
     <g id="text_4">
      <!-- 30 -->
      <g transform="translate(350.595026 394.397656)scale(0.15 -0.15)">
       <defs>
        <path d="M 2597 2516 
Q 3050 2419 3304 2112 
Q 3559 1806 3559 1356 
Q 3559 666 3084 287 
Q 2609 -91 1734 -91 
Q 1441 -91 1130 -33 
Q 819 25 488 141 
L 488 750 
Q 750 597 1062 519 
Q 1375 441 1716 441 
Q 2309 441 2620 675 
Q 2931 909 2931 1356 
Q 2931 1769 2642 2001 
Q 2353 2234 1838 2234 
L 1294 2234 
L 1294 2753 
L 1863 2753 
Q 2328 2753 2575 2939 
Q 2822 3125 2822 3475 
Q 2822 3834 2567 4026 
Q 2313 4219 1838 4219 
Q 1578 4219 1281 4162 
Q 984 4106 628 3988 
L 628 4550 
Q 988 4650 1302 4700 
Q 1616 4750 1894 4750 
Q 2613 4750 3031 4423 
Q 3450 4097 3450 3541 
Q 3450 3153 3228 2886 
Q 3006 2619 2597 2516 
z
" id="DejaVuSans-33" transform="scale(0.015625)"/>
       </defs>
       <use xlink:href="#DejaVuSans-33"/>
       <use x="63.623047" xlink:href="#DejaVuSans-30"/>
      </g>
     </g>
    </g>
    <g id="xtick_5">
     <g id="line2d_5">
      <g>
       <use style="stroke:#000000;stroke-width:0.8;" x="449.482004" xlink:href="#m9dd60d9004" y="376"/>
      </g>
     </g>
     <g id="text_5">
      <!-- 40 -->
      <g transform="translate(439.938254 394.397656)scale(0.15 -0.15)">
       <defs>
        <path d="M 2419 4116 
L 825 1625 
L 2419 1625 
L 2419 4116 
z
M 2253 4666 
L 3047 4666 
L 3047 1625 
L 3713 1625 
L 3713 1100 
L 3047 1100 
L 3047 0 
L 2419 0 
L 2419 1100 
L 313 1100 
L 313 1709 
L 2253 4666 
z
" id="DejaVuSans-34" transform="scale(0.015625)"/>
       </defs>
       <use xlink:href="#DejaVuSans-34"/>
       <use x="63.623047" xlink:href="#DejaVuSans-30"/>
      </g>
     </g>
    </g>
    <g id="xtick_6">
     <g id="line2d_6">
      <g>
       <use style="stroke:#000000;stroke-width:0.8;" x="538.825232" xlink:href="#m9dd60d9004" y="376"/>
      </g>
     </g>
     <g id="text_6">
      <!-- 50 -->
      <g transform="translate(529.281482 394.397656)scale(0.15 -0.15)">
       <defs>
        <path d="M 691 4666 
L 3169 4666 
L 3169 4134 
L 1269 4134 
L 1269 2991 
Q 1406 3038 1543 3061 
Q 1681 3084 1819 3084 
Q 2600 3084 3056 2656 
Q 3513 2228 3513 1497 
Q 3513 744 3044 326 
Q 2575 -91 1722 -91 
Q 1428 -91 1123 -41 
Q 819 9 494 109 
L 494 744 
Q 775 591 1075 516 
Q 1375 441 1709 441 
Q 2250 441 2565 725 
Q 2881 1009 2881 1497 
Q 2881 1984 2565 2268 
Q 2250 2553 1709 2553 
Q 1456 2553 1204 2497 
Q 953 2441 691 2322 
L 691 4666 
z
" id="DejaVuSans-35" transform="scale(0.015625)"/>
       </defs>
       <use xlink:href="#DejaVuSans-35"/>
       <use x="63.623047" xlink:href="#DejaVuSans-30"/>
      </g>
     </g>
    </g>
    <g id="text_7">
     <!-- Global Communication Rounds -->
     <g transform="translate(195.557422 412.914844)scale(0.15 -0.15)">
      <defs>
       <path d="M 3809 666 
L 3809 1919 
L 2778 1919 
L 2778 2438 
L 4434 2438 
L 4434 434 
Q 4069 175 3628 42 
Q 3188 -91 2688 -91 
Q 1594 -91 976 548 
Q 359 1188 359 2328 
Q 359 3472 976 4111 
Q 1594 4750 2688 4750 
Q 3144 4750 3555 4637 
Q 3966 4525 4313 4306 
L 4313 3634 
Q 3963 3931 3569 4081 
Q 3175 4231 2741 4231 
Q 1884 4231 1454 3753 
Q 1025 3275 1025 2328 
Q 1025 1384 1454 906 
Q 1884 428 2741 428 
Q 3075 428 3337 486 
Q 3600 544 3809 666 
z
" id="DejaVuSans-47" transform="scale(0.015625)"/>
       <path d="M 603 4863 
L 1178 4863 
L 1178 0 
L 603 0 
L 603 4863 
z
" id="DejaVuSans-6c" transform="scale(0.015625)"/>
       <path d="M 1959 3097 
Q 1497 3097 1228 2736 
Q 959 2375 959 1747 
Q 959 1119 1226 758 
Q 1494 397 1959 397 
Q 2419 397 2687 759 
Q 2956 1122 2956 1747 
Q 2956 2369 2687 2733 
Q 2419 3097 1959 3097 
z
M 1959 3584 
Q 2709 3584 3137 3096 
Q 3566 2609 3566 1747 
Q 3566 888 3137 398 
Q 2709 -91 1959 -91 
Q 1206 -91 779 398 
Q 353 888 353 1747 
Q 353 2609 779 3096 
Q 1206 3584 1959 3584 
z
" id="DejaVuSans-6f" transform="scale(0.015625)"/>
       <path d="M 3116 1747 
Q 3116 2381 2855 2742 
Q 2594 3103 2138 3103 
Q 1681 3103 1420 2742 
Q 1159 2381 1159 1747 
Q 1159 1113 1420 752 
Q 1681 391 2138 391 
Q 2594 391 2855 752 
Q 3116 1113 3116 1747 
z
M 1159 2969 
Q 1341 3281 1617 3432 
Q 1894 3584 2278 3584 
Q 2916 3584 3314 3078 
Q 3713 2572 3713 1747 
Q 3713 922 3314 415 
Q 2916 -91 2278 -91 
Q 1894 -91 1617 61 
Q 1341 213 1159 525 
L 1159 0 
L 581 0 
L 581 4863 
L 1159 4863 
L 1159 2969 
z
" id="DejaVuSans-62" transform="scale(0.015625)"/>
       <path d="M 2194 1759 
Q 1497 1759 1228 1600 
Q 959 1441 959 1056 
Q 959 750 1161 570 
Q 1363 391 1709 391 
Q 2188 391 2477 730 
Q 2766 1069 2766 1631 
L 2766 1759 
L 2194 1759 
z
M 3341 1997 
L 3341 0 
L 2766 0 
L 2766 531 
Q 2569 213 2275 61 
Q 1981 -91 1556 -91 
Q 1019 -91 701 211 
Q 384 513 384 1019 
Q 384 1609 779 1909 
Q 1175 2209 1959 2209 
L 2766 2209 
L 2766 2266 
Q 2766 2663 2505 2880 
Q 2244 3097 1772 3097 
Q 1472 3097 1187 3025 
Q 903 2953 641 2809 
L 641 3341 
Q 956 3463 1253 3523 
Q 1550 3584 1831 3584 
Q 2591 3584 2966 3190 
Q 3341 2797 3341 1997 
z
" id="DejaVuSans-61" transform="scale(0.015625)"/>
       <path id="DejaVuSans-20" transform="scale(0.015625)"/>
       <path d="M 4122 4306 
L 4122 3641 
Q 3803 3938 3442 4084 
Q 3081 4231 2675 4231 
Q 1875 4231 1450 3742 
Q 1025 3253 1025 2328 
Q 1025 1406 1450 917 
Q 1875 428 2675 428 
Q 3081 428 3442 575 
Q 3803 722 4122 1019 
L 4122 359 
Q 3791 134 3420 21 
Q 3050 -91 2638 -91 
Q 1578 -91 968 557 
Q 359 1206 359 2328 
Q 359 3453 968 4101 
Q 1578 4750 2638 4750 
Q 3056 4750 3426 4639 
Q 3797 4528 4122 4306 
z
" id="DejaVuSans-43" transform="scale(0.015625)"/>
       <path d="M 3328 2828 
Q 3544 3216 3844 3400 
Q 4144 3584 4550 3584 
Q 5097 3584 5394 3201 
Q 5691 2819 5691 2113 
L 5691 0 
L 5113 0 
L 5113 2094 
Q 5113 2597 4934 2840 
Q 4756 3084 4391 3084 
Q 3944 3084 3684 2787 
Q 3425 2491 3425 1978 
L 3425 0 
L 2847 0 
L 2847 2094 
Q 2847 2600 2669 2842 
Q 2491 3084 2119 3084 
Q 1678 3084 1418 2786 
Q 1159 2488 1159 1978 
L 1159 0 
L 581 0 
L 581 3500 
L 1159 3500 
L 1159 2956 
Q 1356 3278 1631 3431 
Q 1906 3584 2284 3584 
Q 2666 3584 2933 3390 
Q 3200 3197 3328 2828 
z
" id="DejaVuSans-6d" transform="scale(0.015625)"/>
       <path d="M 544 1381 
L 544 3500 
L 1119 3500 
L 1119 1403 
Q 1119 906 1312 657 
Q 1506 409 1894 409 
Q 2359 409 2629 706 
Q 2900 1003 2900 1516 
L 2900 3500 
L 3475 3500 
L 3475 0 
L 2900 0 
L 2900 538 
Q 2691 219 2414 64 
Q 2138 -91 1772 -91 
Q 1169 -91 856 284 
Q 544 659 544 1381 
z
M 1991 3584 
L 1991 3584 
z
" id="DejaVuSans-75" transform="scale(0.015625)"/>
       <path d="M 3513 2113 
L 3513 0 
L 2938 0 
L 2938 2094 
Q 2938 2591 2744 2837 
Q 2550 3084 2163 3084 
Q 1697 3084 1428 2787 
Q 1159 2491 1159 1978 
L 1159 0 
L 581 0 
L 581 3500 
L 1159 3500 
L 1159 2956 
Q 1366 3272 1645 3428 
Q 1925 3584 2291 3584 
Q 2894 3584 3203 3211 
Q 3513 2838 3513 2113 
z
" id="DejaVuSans-6e" transform="scale(0.015625)"/>
       <path d="M 603 3500 
L 1178 3500 
L 1178 0 
L 603 0 
L 603 3500 
z
M 603 4863 
L 1178 4863 
L 1178 4134 
L 603 4134 
L 603 4863 
z
" id="DejaVuSans-69" transform="scale(0.015625)"/>
       <path d="M 3122 3366 
L 3122 2828 
Q 2878 2963 2633 3030 
Q 2388 3097 2138 3097 
Q 1578 3097 1268 2742 
Q 959 2388 959 1747 
Q 959 1106 1268 751 
Q 1578 397 2138 397 
Q 2388 397 2633 464 
Q 2878 531 3122 666 
L 3122 134 
Q 2881 22 2623 -34 
Q 2366 -91 2075 -91 
Q 1284 -91 818 406 
Q 353 903 353 1747 
Q 353 2603 823 3093 
Q 1294 3584 2113 3584 
Q 2378 3584 2631 3529 
Q 2884 3475 3122 3366 
z
" id="DejaVuSans-63" transform="scale(0.015625)"/>
       <path d="M 1172 4494 
L 1172 3500 
L 2356 3500 
L 2356 3053 
L 1172 3053 
L 1172 1153 
Q 1172 725 1289 603 
Q 1406 481 1766 481 
L 2356 481 
L 2356 0 
L 1766 0 
Q 1100 0 847 248 
Q 594 497 594 1153 
L 594 3053 
L 172 3053 
L 172 3500 
L 594 3500 
L 594 4494 
L 1172 4494 
z
" id="DejaVuSans-74" transform="scale(0.015625)"/>
       <path d="M 2841 2188 
Q 3044 2119 3236 1894 
Q 3428 1669 3622 1275 
L 4263 0 
L 3584 0 
L 2988 1197 
Q 2756 1666 2539 1819 
Q 2322 1972 1947 1972 
L 1259 1972 
L 1259 0 
L 628 0 
L 628 4666 
L 2053 4666 
Q 2853 4666 3247 4331 
Q 3641 3997 3641 3322 
Q 3641 2881 3436 2590 
Q 3231 2300 2841 2188 
z
M 1259 4147 
L 1259 2491 
L 2053 2491 
Q 2509 2491 2742 2702 
Q 2975 2913 2975 3322 
Q 2975 3731 2742 3939 
Q 2509 4147 2053 4147 
L 1259 4147 
z
" id="DejaVuSans-52" transform="scale(0.015625)"/>
       <path d="M 2906 2969 
L 2906 4863 
L 3481 4863 
L 3481 0 
L 2906 0 
L 2906 525 
Q 2725 213 2448 61 
Q 2172 -91 1784 -91 
Q 1150 -91 751 415 
Q 353 922 353 1747 
Q 353 2572 751 3078 
Q 1150 3584 1784 3584 
Q 2172 3584 2448 3432 
Q 2725 3281 2906 2969 
z
M 947 1747 
Q 947 1113 1208 752 
Q 1469 391 1925 391 
Q 2381 391 2643 752 
Q 2906 1113 2906 1747 
Q 2906 2381 2643 2742 
Q 2381 3103 1925 3103 
Q 1469 3103 1208 2742 
Q 947 2381 947 1747 
z
" id="DejaVuSans-64" transform="scale(0.015625)"/>
       <path d="M 2834 3397 
L 2834 2853 
Q 2591 2978 2328 3040 
Q 2066 3103 1784 3103 
Q 1356 3103 1142 2972 
Q 928 2841 928 2578 
Q 928 2378 1081 2264 
Q 1234 2150 1697 2047 
L 1894 2003 
Q 2506 1872 2764 1633 
Q 3022 1394 3022 966 
Q 3022 478 2636 193 
Q 2250 -91 1575 -91 
Q 1294 -91 989 -36 
Q 684 19 347 128 
L 347 722 
Q 666 556 975 473 
Q 1284 391 1588 391 
Q 1994 391 2212 530 
Q 2431 669 2431 922 
Q 2431 1156 2273 1281 
Q 2116 1406 1581 1522 
L 1381 1569 
Q 847 1681 609 1914 
Q 372 2147 372 2553 
Q 372 3047 722 3315 
Q 1072 3584 1716 3584 
Q 2034 3584 2315 3537 
Q 2597 3491 2834 3397 
z
" id="DejaVuSans-73" transform="scale(0.015625)"/>
      </defs>
      <use xlink:href="#DejaVuSans-47"/>
      <use x="77.490234" xlink:href="#DejaVuSans-6c"/>
      <use x="105.273438" xlink:href="#DejaVuSans-6f"/>
      <use x="166.455078" xlink:href="#DejaVuSans-62"/>
      <use x="229.931641" xlink:href="#DejaVuSans-61"/>
      <use x="291.210938" xlink:href="#DejaVuSans-6c"/>
      <use x="318.994141" xlink:href="#DejaVuSans-20"/>
      <use x="350.78125" xlink:href="#DejaVuSans-43"/>
      <use x="420.605469" xlink:href="#DejaVuSans-6f"/>
      <use x="481.787109" xlink:href="#DejaVuSans-6d"/>
      <use x="579.199219" xlink:href="#DejaVuSans-6d"/>
      <use x="676.611328" xlink:href="#DejaVuSans-75"/>
      <use x="739.990234" xlink:href="#DejaVuSans-6e"/>
      <use x="803.369141" xlink:href="#DejaVuSans-69"/>
      <use x="831.152344" xlink:href="#DejaVuSans-63"/>
      <use x="886.132812" xlink:href="#DejaVuSans-61"/>
      <use x="947.412109" xlink:href="#DejaVuSans-74"/>
      <use x="986.621094" xlink:href="#DejaVuSans-69"/>
      <use x="1014.404297" xlink:href="#DejaVuSans-6f"/>
      <use x="1075.585938" xlink:href="#DejaVuSans-6e"/>
      <use x="1138.964844" xlink:href="#DejaVuSans-20"/>
      <use x="1170.751953" xlink:href="#DejaVuSans-52"/>
      <use x="1235.734375" xlink:href="#DejaVuSans-6f"/>
      <use x="1296.916016" xlink:href="#DejaVuSans-75"/>
      <use x="1360.294922" xlink:href="#DejaVuSans-6e"/>
      <use x="1423.673828" xlink:href="#DejaVuSans-64"/>
      <use x="1487.150391" xlink:href="#DejaVuSans-73"/>
     </g>
    </g>
   </g>
   <g id="matplotlib.axis_2">
    <g id="ytick_1">
     <g id="line2d_7">
      <defs>
       <path d="M 0 0 
L -3.5 0 
" id="m86150e97ea" style="stroke:#000000;stroke-width:0.8;"/>
      </defs>
      <g>
       <use style="stroke:#000000;stroke-width:0.8;" x="70.22" xlink:href="#m86150e97ea" y="365.11324"/>
      </g>
     </g>
     <g id="text_8">
      <!-- 93 -->
      <g transform="translate(44.1325 370.812068)scale(0.15 -0.15)">
       <defs>
        <path d="M 703 97 
L 703 672 
Q 941 559 1184 500 
Q 1428 441 1663 441 
Q 2288 441 2617 861 
Q 2947 1281 2994 2138 
Q 2813 1869 2534 1725 
Q 2256 1581 1919 1581 
Q 1219 1581 811 2004 
Q 403 2428 403 3163 
Q 403 3881 828 4315 
Q 1253 4750 1959 4750 
Q 2769 4750 3195 4129 
Q 3622 3509 3622 2328 
Q 3622 1225 3098 567 
Q 2575 -91 1691 -91 
Q 1453 -91 1209 -44 
Q 966 3 703 97 
z
M 1959 2075 
Q 2384 2075 2632 2365 
Q 2881 2656 2881 3163 
Q 2881 3666 2632 3958 
Q 2384 4250 1959 4250 
Q 1534 4250 1286 3958 
Q 1038 3666 1038 3163 
Q 1038 2656 1286 2365 
Q 1534 2075 1959 2075 
z
" id="DejaVuSans-39" transform="scale(0.015625)"/>
       </defs>
       <use xlink:href="#DejaVuSans-39"/>
       <use x="63.623047" xlink:href="#DejaVuSans-33"/>
      </g>
     </g>
    </g>
    <g id="ytick_2">
     <g id="line2d_8">
      <g>
       <use style="stroke:#000000;stroke-width:0.8;" x="70.22" xlink:href="#m86150e97ea" y="321.757644"/>
      </g>
     </g>
     <g id="text_9">
      <!-- 94 -->
      <g transform="translate(44.1325 327.456473)scale(0.15 -0.15)">
       <use xlink:href="#DejaVuSans-39"/>
       <use x="63.623047" xlink:href="#DejaVuSans-34"/>
      </g>
     </g>
    </g>
    <g id="ytick_3">
     <g id="line2d_9">
      <g>
       <use style="stroke:#000000;stroke-width:0.8;" x="70.22" xlink:href="#m86150e97ea" y="278.402049"/>
      </g>
     </g>
     <g id="text_10">
      <!-- 95 -->
      <g transform="translate(44.1325 284.100877)scale(0.15 -0.15)">
       <use xlink:href="#DejaVuSans-39"/>
       <use x="63.623047" xlink:href="#DejaVuSans-35"/>
      </g>
     </g>
    </g>
    <g id="ytick_4">
     <g id="line2d_10">
      <g>
       <use style="stroke:#000000;stroke-width:0.8;" x="70.22" xlink:href="#m86150e97ea" y="235.046454"/>
      </g>
     </g>
     <g id="text_11">
      <!-- 96 -->
      <g transform="translate(44.1325 240.745282)scale(0.15 -0.15)">
       <defs>
        <path d="M 2113 2584 
Q 1688 2584 1439 2293 
Q 1191 2003 1191 1497 
Q 1191 994 1439 701 
Q 1688 409 2113 409 
Q 2538 409 2786 701 
Q 3034 994 3034 1497 
Q 3034 2003 2786 2293 
Q 2538 2584 2113 2584 
z
M 3366 4563 
L 3366 3988 
Q 3128 4100 2886 4159 
Q 2644 4219 2406 4219 
Q 1781 4219 1451 3797 
Q 1122 3375 1075 2522 
Q 1259 2794 1537 2939 
Q 1816 3084 2150 3084 
Q 2853 3084 3261 2657 
Q 3669 2231 3669 1497 
Q 3669 778 3244 343 
Q 2819 -91 2113 -91 
Q 1303 -91 875 529 
Q 447 1150 447 2328 
Q 447 3434 972 4092 
Q 1497 4750 2381 4750 
Q 2619 4750 2861 4703 
Q 3103 4656 3366 4563 
z
" id="DejaVuSans-36" transform="scale(0.015625)"/>
       </defs>
       <use xlink:href="#DejaVuSans-39"/>
       <use x="63.623047" xlink:href="#DejaVuSans-36"/>
      </g>
     </g>
    </g>
    <g id="ytick_5">
     <g id="line2d_11">
      <g>
       <use style="stroke:#000000;stroke-width:0.8;" x="70.22" xlink:href="#m86150e97ea" y="191.690859"/>
      </g>
     </g>
     <g id="text_12">
      <!-- 97 -->
      <g transform="translate(44.1325 197.389687)scale(0.15 -0.15)">
       <defs>
        <path d="M 525 4666 
L 3525 4666 
L 3525 4397 
L 1831 0 
L 1172 0 
L 2766 4134 
L 525 4134 
L 525 4666 
z
" id="DejaVuSans-37" transform="scale(0.015625)"/>
       </defs>
       <use xlink:href="#DejaVuSans-39"/>
       <use x="63.623047" xlink:href="#DejaVuSans-37"/>
      </g>
     </g>
    </g>
    <g id="ytick_6">
     <g id="line2d_12">
      <g>
       <use style="stroke:#000000;stroke-width:0.8;" x="70.22" xlink:href="#m86150e97ea" y="148.335264"/>
      </g>
     </g>
     <g id="text_13">
      <!-- 98 -->
      <g transform="translate(44.1325 154.034092)scale(0.15 -0.15)">
       <defs>
        <path d="M 2034 2216 
Q 1584 2216 1326 1975 
Q 1069 1734 1069 1313 
Q 1069 891 1326 650 
Q 1584 409 2034 409 
Q 2484 409 2743 651 
Q 3003 894 3003 1313 
Q 3003 1734 2745 1975 
Q 2488 2216 2034 2216 
z
M 1403 2484 
Q 997 2584 770 2862 
Q 544 3141 544 3541 
Q 544 4100 942 4425 
Q 1341 4750 2034 4750 
Q 2731 4750 3128 4425 
Q 3525 4100 3525 3541 
Q 3525 3141 3298 2862 
Q 3072 2584 2669 2484 
Q 3125 2378 3379 2068 
Q 3634 1759 3634 1313 
Q 3634 634 3220 271 
Q 2806 -91 2034 -91 
Q 1263 -91 848 271 
Q 434 634 434 1313 
Q 434 1759 690 2068 
Q 947 2378 1403 2484 
z
M 1172 3481 
Q 1172 3119 1398 2916 
Q 1625 2713 2034 2713 
Q 2441 2713 2670 2916 
Q 2900 3119 2900 3481 
Q 2900 3844 2670 4047 
Q 2441 4250 2034 4250 
Q 1625 4250 1398 4047 
Q 1172 3844 1172 3481 
z
" id="DejaVuSans-38" transform="scale(0.015625)"/>
       </defs>
       <use xlink:href="#DejaVuSans-39"/>
       <use x="63.623047" xlink:href="#DejaVuSans-38"/>
      </g>
     </g>
    </g>
    <g id="ytick_7">
     <g id="line2d_13">
      <g>
       <use style="stroke:#000000;stroke-width:0.8;" x="70.22" xlink:href="#m86150e97ea" y="104.979668"/>
      </g>
     </g>
     <g id="text_14">
      <!-- 99 -->
      <g transform="translate(44.1325 110.678497)scale(0.15 -0.15)">
       <use xlink:href="#DejaVuSans-39"/>
       <use x="63.623047" xlink:href="#DejaVuSans-39"/>
      </g>
     </g>
    </g>
    <g id="ytick_8">
     <g id="line2d_14">
      <g>
       <use style="stroke:#000000;stroke-width:0.8;" x="70.22" xlink:href="#m86150e97ea" y="61.624073"/>
      </g>
     </g>
     <g id="text_15">
      <!-- 100 -->
      <g transform="translate(34.58875 67.322901)scale(0.15 -0.15)">
       <use xlink:href="#DejaVuSans-31"/>
       <use x="63.623047" xlink:href="#DejaVuSans-30"/>
       <use x="127.246094" xlink:href="#DejaVuSans-30"/>
      </g>
     </g>
    </g>
    <g id="text_16">
     <!-- Test Accuracy -->
     <g transform="translate(27.469219 267.694744)rotate(-90)scale(0.15 -0.15)">
      <defs>
       <path d="M -19 4666 
L 3928 4666 
L 3928 4134 
L 2272 4134 
L 2272 0 
L 1638 0 
L 1638 4134 
L -19 4134 
L -19 4666 
z
" id="DejaVuSans-54" transform="scale(0.015625)"/>
       <path d="M 3597 1894 
L 3597 1613 
L 953 1613 
Q 991 1019 1311 708 
Q 1631 397 2203 397 
Q 2534 397 2845 478 
Q 3156 559 3463 722 
L 3463 178 
Q 3153 47 2828 -22 
Q 2503 -91 2169 -91 
Q 1331 -91 842 396 
Q 353 884 353 1716 
Q 353 2575 817 3079 
Q 1281 3584 2069 3584 
Q 2775 3584 3186 3129 
Q 3597 2675 3597 1894 
z
M 3022 2063 
Q 3016 2534 2758 2815 
Q 2500 3097 2075 3097 
Q 1594 3097 1305 2825 
Q 1016 2553 972 2059 
L 3022 2063 
z
" id="DejaVuSans-65" transform="scale(0.015625)"/>
       <path d="M 2188 4044 
L 1331 1722 
L 3047 1722 
L 2188 4044 
z
M 1831 4666 
L 2547 4666 
L 4325 0 
L 3669 0 
L 3244 1197 
L 1141 1197 
L 716 0 
L 50 0 
L 1831 4666 
z
" id="DejaVuSans-41" transform="scale(0.015625)"/>
       <path d="M 2631 2963 
Q 2534 3019 2420 3045 
Q 2306 3072 2169 3072 
Q 1681 3072 1420 2755 
Q 1159 2438 1159 1844 
L 1159 0 
L 581 0 
L 581 3500 
L 1159 3500 
L 1159 2956 
Q 1341 3275 1631 3429 
Q 1922 3584 2338 3584 
Q 2397 3584 2469 3576 
Q 2541 3569 2628 3553 
L 2631 2963 
z
" id="DejaVuSans-72" transform="scale(0.015625)"/>
       <path d="M 2059 -325 
Q 1816 -950 1584 -1140 
Q 1353 -1331 966 -1331 
L 506 -1331 
L 506 -850 
L 844 -850 
Q 1081 -850 1212 -737 
Q 1344 -625 1503 -206 
L 1606 56 
L 191 3500 
L 800 3500 
L 1894 763 
L 2988 3500 
L 3597 3500 
L 2059 -325 
z
" id="DejaVuSans-79" transform="scale(0.015625)"/>
      </defs>
      <use xlink:href="#DejaVuSans-54"/>
      <use x="44.083984" xlink:href="#DejaVuSans-65"/>
      <use x="105.607422" xlink:href="#DejaVuSans-73"/>
      <use x="157.707031" xlink:href="#DejaVuSans-74"/>
      <use x="196.916016" xlink:href="#DejaVuSans-20"/>
      <use x="228.703125" xlink:href="#DejaVuSans-41"/>
      <use x="295.361328" xlink:href="#DejaVuSans-63"/>
      <use x="350.341797" xlink:href="#DejaVuSans-63"/>
      <use x="405.322266" xlink:href="#DejaVuSans-75"/>
      <use x="468.701172" xlink:href="#DejaVuSans-72"/>
      <use x="509.814453" xlink:href="#DejaVuSans-61"/>
      <use x="571.09375" xlink:href="#DejaVuSans-63"/>
      <use x="626.074219" xlink:href="#DejaVuSans-79"/>
     </g>
    </g>
   </g>
   <g id="line2d_15">
    <path clip-path="url(#p09add0ccd5)" d="M 92.109091 302.000664 
L 101.043414 199.922934 
L 109.977737 176.873124 
L 118.912059 158.213754 
L 127.846382 146.140044 
L 136.780705 132.968724 
L 145.715028 128.578284 
L 154.649351 123.090233 
L 163.583673 112.114133 
L 172.517996 109.918913 
L 181.452319 103.333253 
L 190.386642 101.138033 
L 199.320965 97.845203 
L 208.255288 95.649983 
L 217.18961 94.552373 
L 226.123933 95.649983 
L 235.058256 91.259543 
L 243.992579 92.357153 
L 252.926902 94.552373 
L 261.861224 91.259543 
L 270.795547 93.454763 
L 279.72987 96.747593 
L 288.664193 94.552373 
L 297.598516 92.357153 
L 306.532839 92.357153 
L 315.467161 91.259543 
L 324.401484 90.161933 
L 333.335807 91.259543 
L 342.27013 93.454763 
L 351.204453 90.161933 
L 360.138776 91.259543 
L 369.073098 87.966713 
L 378.007421 91.259543 
L 386.941744 90.161933 
L 395.876067 90.161933 
L 404.81039 84.673883 
L 413.744712 90.161933 
L 422.679035 82.478663 
L 431.613358 89.064323 
L 440.547681 89.064323 
L 449.482004 85.771493 
L 458.416327 84.673883 
L 467.350649 81.381053 
L 476.284972 79.185833 
L 485.219295 81.381053 
L 494.153618 79.185833 
L 503.087941 79.185833 
L 512.022263 79.185833 
L 520.956586 82.478663 
L 529.890909 81.381053 
" style="fill:none;stroke:#1f77b4;stroke-linecap:square;stroke-width:1.5;"/>
   </g>
   <g id="line2d_16">
    <path clip-path="url(#p09add0ccd5)" d="M 92.109091 332.733744 
L 101.043414 204.313374 
L 109.977737 187.849224 
L 118.912059 170.287464 
L 127.846382 150.530484 
L 136.780705 150.530484 
L 145.715028 137.359164 
L 154.649351 131.871114 
L 163.583673 129.675894 
L 172.517996 127.480674 
L 181.452319 115.406963 
L 190.386642 114.309353 
L 199.320965 111.016523 
L 208.255288 109.918913 
L 217.18961 104.430863 
L 226.123933 106.626083 
L 235.058256 103.333253 
L 243.992579 103.333253 
L 252.926902 100.040423 
L 261.861224 97.845203 
L 270.795547 96.747593 
L 279.72987 97.845203 
L 288.664193 96.747593 
L 297.598516 95.649983 
L 306.532839 94.552373 
L 315.467161 95.649983 
L 324.401484 98.942813 
L 333.335807 93.454763 
L 342.27013 96.747593 
L 351.204453 94.552373 
L 360.138776 100.040423 
L 369.073098 97.845203 
L 378.007421 96.747593 
L 386.941744 91.259543 
L 395.876067 93.454763 
L 404.81039 94.552373 
L 413.744712 93.454763 
L 422.679035 91.259543 
L 431.613358 92.357153 
L 440.547681 95.649983 
L 449.482004 92.357153 
L 458.416327 92.357153 
L 467.350649 94.552373 
L 476.284972 92.357153 
L 485.219295 93.454763 
L 494.153618 100.040423 
L 503.087941 95.649983 
L 512.022263 96.747593 
L 520.956586 97.845203 
L 529.890909 96.747593 
" style="fill:none;stroke:#ff7f0e;stroke-linecap:square;stroke-width:1.5;"/>
   </g>
   <g id="line2d_17">
    <path clip-path="url(#p09add0ccd5)" d="M 92.109091 308.586324 
L 101.043414 211.996644 
L 109.977737 186.751614 
L 118.912059 163.701804 
L 127.846382 156.018534 
L 136.780705 137.359164 
L 145.715028 130.773504 
L 154.649351 120.895013 
L 163.583673 125.285453 
L 172.517996 119.797403 
L 181.452319 115.406963 
L 190.386642 102.235643 
L 199.320965 101.138033 
L 208.255288 100.040423 
L 217.18961 96.747593 
L 226.123933 93.454763 
L 235.058256 97.845203 
L 243.992579 94.552373 
L 252.926902 97.845203 
L 261.861224 97.845203 
L 270.795547 92.357153 
L 279.72987 93.454763 
L 288.664193 94.552373 
L 297.598516 90.161933 
L 306.532839 92.357153 
L 315.467161 91.259543 
L 324.401484 90.161933 
L 333.335807 91.259543 
L 342.27013 91.259543 
L 351.204453 90.161933 
L 360.138776 89.064323 
L 369.073098 90.161933 
L 378.007421 90.161933 
L 386.941744 84.673883 
L 395.876067 89.064323 
L 404.81039 86.869103 
L 413.744712 87.966713 
L 422.679035 89.064323 
L 431.613358 89.064323 
L 440.547681 85.771493 
L 449.482004 86.869103 
L 458.416327 82.478663 
L 467.350649 85.771493 
L 476.284972 82.478663 
L 485.219295 82.478663 
L 494.153618 85.771493 
L 503.087941 85.771493 
L 512.022263 81.381053 
L 520.956586 84.673883 
L 529.890909 83.576273 
" style="fill:none;stroke:#2ca02c;stroke-linecap:square;stroke-width:1.5;"/>
   </g>
   <g id="line2d_18">
    <path clip-path="url(#p09add0ccd5)" d="M 92.109091 291.668861 
L 101.043414 223.340443 
L 109.977737 198.887888 
L 118.912059 182.846317 
L 127.846382 171.660574 
L 136.780705 162.382476 
L 145.715028 156.746249 
L 154.649351 150.589755 
L 163.583673 146.861173 
L 172.517996 143.566148 
L 181.452319 141.658502 
L 190.386642 139.750856 
L 199.320965 138.363477 
L 208.255288 136.369119 
L 217.18961 135.241874 
L 226.123933 134.114628 
L 235.058256 131.860137 
L 243.992579 130.212625 
L 252.926902 128.738535 
L 261.861224 128.651823 
L 270.795547 128.998668 
L 279.72987 127.524578 
L 288.664193 126.570755 
L 297.598516 127.264444 
L 306.532839 127.524578 
L 315.467161 127.958134 
L 324.401484 127.091022 
L 333.335807 126.137199 
L 342.27013 125.183376 
L 351.204453 124.663109 
L 360.138776 124.05613 
L 369.073098 124.836531 
L 378.007421 123.449152 
L 386.941744 123.27573 
L 395.876067 123.622574 
L 404.81039 123.622574 
L 413.744712 123.709286 
L 422.679035 123.709286 
L 431.613358 122.928885 
L 440.547681 122.755462 
L 449.482004 122.58204 
L 458.416327 122.755462 
L 467.350649 123.189018 
L 476.284972 123.795997 
L 485.219295 122.668751 
L 494.153618 121.714928 
L 503.087941 121.541506 
L 512.022263 121.194661 
L 520.956586 120.934527 
L 529.890909 121.281372 
" style="fill:none;stroke:#d62728;stroke-linecap:square;stroke-width:1.5;"/>
   </g>
   <g id="patch_3">
    <path d="M 70.22 376 
L 70.22 56.601988 
" style="fill:none;stroke:#000000;stroke-linecap:square;stroke-linejoin:miter;stroke-width:0.8;"/>
   </g>
   <g id="patch_4">
    <path d="M 551.78 376 
L 551.78 56.601988 
" style="fill:none;stroke:#000000;stroke-linecap:square;stroke-linejoin:miter;stroke-width:0.8;"/>
   </g>
   <g id="patch_5">
    <path d="M 70.22 376 
L 551.78 376 
" style="fill:none;stroke:#000000;stroke-linecap:square;stroke-linejoin:miter;stroke-width:0.8;"/>
   </g>
   <g id="patch_6">
    <path d="M 70.22 56.601989 
L 551.78 56.601989 
" style="fill:none;stroke:#000000;stroke-linecap:square;stroke-linejoin:miter;stroke-width:0.8;"/>
   </g>
   <g id="legend_1">
    <g id="patch_7">
     <path d="M 61.402344 42.709474 
L 560.597656 42.709474 
Q 563.597656 42.709474 563.597656 39.709474 
L 563.597656 19.192287 
Q 563.597656 16.192287 560.597656 16.192287 
L 61.402344 16.192287 
Q 58.402344 16.192287 58.402344 19.192287 
L 58.402344 39.709474 
Q 58.402344 42.709474 61.402344 42.709474 
z
" style="fill:#ffffff;opacity:0.8;stroke:#cccccc;stroke-linejoin:miter;"/>
    </g>
    <g id="line2d_19">
     <path d="M 64.402344 28.339943 
L 94.402344 28.339943 
" style="fill:none;stroke:#1f77b4;stroke-linecap:square;stroke-width:1.5;"/>
    </g>
    <g id="line2d_20"/>
    <g id="text_17">
     <!-- FedAvg -->
     <g transform="translate(106.402344 33.589943)scale(0.15 -0.15)">
      <defs>
       <path d="M 628 4666 
L 3309 4666 
L 3309 4134 
L 1259 4134 
L 1259 2759 
L 3109 2759 
L 3109 2228 
L 1259 2228 
L 1259 0 
L 628 0 
L 628 4666 
z
" id="DejaVuSans-46" transform="scale(0.015625)"/>
       <path d="M 191 3500 
L 800 3500 
L 1894 563 
L 2988 3500 
L 3597 3500 
L 2284 0 
L 1503 0 
L 191 3500 
z
" id="DejaVuSans-76" transform="scale(0.015625)"/>
       <path d="M 2906 1791 
Q 2906 2416 2648 2759 
Q 2391 3103 1925 3103 
Q 1463 3103 1205 2759 
Q 947 2416 947 1791 
Q 947 1169 1205 825 
Q 1463 481 1925 481 
Q 2391 481 2648 825 
Q 2906 1169 2906 1791 
z
M 3481 434 
Q 3481 -459 3084 -895 
Q 2688 -1331 1869 -1331 
Q 1566 -1331 1297 -1286 
Q 1028 -1241 775 -1147 
L 775 -588 
Q 1028 -725 1275 -790 
Q 1522 -856 1778 -856 
Q 2344 -856 2625 -561 
Q 2906 -266 2906 331 
L 2906 616 
Q 2728 306 2450 153 
Q 2172 0 1784 0 
Q 1141 0 747 490 
Q 353 981 353 1791 
Q 353 2603 747 3093 
Q 1141 3584 1784 3584 
Q 2172 3584 2450 3431 
Q 2728 3278 2906 2969 
L 2906 3500 
L 3481 3500 
L 3481 434 
z
" id="DejaVuSans-67" transform="scale(0.015625)"/>
      </defs>
      <use xlink:href="#DejaVuSans-46"/>
      <use x="52.019531" xlink:href="#DejaVuSans-65"/>
      <use x="113.542969" xlink:href="#DejaVuSans-64"/>
      <use x="177.019531" xlink:href="#DejaVuSans-41"/>
      <use x="239.552734" xlink:href="#DejaVuSans-76"/>
      <use x="298.732422" xlink:href="#DejaVuSans-67"/>
     </g>
    </g>
    <g id="line2d_21">
     <path d="M 190.7375 28.339943 
L 220.7375 28.339943 
" style="fill:none;stroke:#ff7f0e;stroke-linecap:square;stroke-width:1.5;"/>
    </g>
    <g id="line2d_22"/>
    <g id="text_18">
     <!-- FedMed -->
     <g transform="translate(232.7375 33.589943)scale(0.15 -0.15)">
      <defs>
       <path d="M 628 4666 
L 1569 4666 
L 2759 1491 
L 3956 4666 
L 4897 4666 
L 4897 0 
L 4281 0 
L 4281 4097 
L 3078 897 
L 2444 897 
L 1241 4097 
L 1241 0 
L 628 0 
L 628 4666 
z
" id="DejaVuSans-4d" transform="scale(0.015625)"/>
      </defs>
      <use xlink:href="#DejaVuSans-46"/>
      <use x="52.019531" xlink:href="#DejaVuSans-65"/>
      <use x="113.542969" xlink:href="#DejaVuSans-64"/>
      <use x="177.019531" xlink:href="#DejaVuSans-4d"/>
      <use x="263.298828" xlink:href="#DejaVuSans-65"/>
      <use x="324.822266" xlink:href="#DejaVuSans-64"/>
     </g>
    </g>
    <g id="line2d_23">
     <path d="M 320.986719 28.339943 
L 350.986719 28.339943 
" style="fill:none;stroke:#2ca02c;stroke-linecap:square;stroke-width:1.5;"/>
    </g>
    <g id="line2d_24"/>
    <g id="text_19">
     <!-- FedProx -->
     <g transform="translate(362.986719 33.589943)scale(0.15 -0.15)">
      <defs>
       <path d="M 1259 4147 
L 1259 2394 
L 2053 2394 
Q 2494 2394 2734 2622 
Q 2975 2850 2975 3272 
Q 2975 3691 2734 3919 
Q 2494 4147 2053 4147 
L 1259 4147 
z
M 628 4666 
L 2053 4666 
Q 2838 4666 3239 4311 
Q 3641 3956 3641 3272 
Q 3641 2581 3239 2228 
Q 2838 1875 2053 1875 
L 1259 1875 
L 1259 0 
L 628 0 
L 628 4666 
z
" id="DejaVuSans-50" transform="scale(0.015625)"/>
       <path d="M 3513 3500 
L 2247 1797 
L 3578 0 
L 2900 0 
L 1881 1375 
L 863 0 
L 184 0 
L 1544 1831 
L 300 3500 
L 978 3500 
L 1906 2253 
L 2834 3500 
L 3513 3500 
z
" id="DejaVuSans-78" transform="scale(0.015625)"/>
      </defs>
      <use xlink:href="#DejaVuSans-46"/>
      <use x="52.019531" xlink:href="#DejaVuSans-65"/>
      <use x="113.542969" xlink:href="#DejaVuSans-64"/>
      <use x="177.019531" xlink:href="#DejaVuSans-50"/>
      <use x="235.572266" xlink:href="#DejaVuSans-72"/>
      <use x="274.435547" xlink:href="#DejaVuSans-6f"/>
      <use x="332.492188" xlink:href="#DejaVuSans-78"/>
     </g>
    </g>
    <g id="line2d_25">
     <path d="M 451.739844 28.339943 
L 481.739844 28.339943 
" style="fill:none;stroke:#d62728;stroke-linecap:square;stroke-width:1.5;"/>
    </g>
    <g id="line2d_26"/>
    <g id="text_20">
     <!-- qFedAvg -->
     <g transform="translate(493.739844 33.589943)scale(0.15 -0.15)">
      <defs>
       <path d="M 947 1747 
Q 947 1113 1208 752 
Q 1469 391 1925 391 
Q 2381 391 2643 752 
Q 2906 1113 2906 1747 
Q 2906 2381 2643 2742 
Q 2381 3103 1925 3103 
Q 1469 3103 1208 2742 
Q 947 2381 947 1747 
z
M 2906 525 
Q 2725 213 2448 61 
Q 2172 -91 1784 -91 
Q 1150 -91 751 415 
Q 353 922 353 1747 
Q 353 2572 751 3078 
Q 1150 3584 1784 3584 
Q 2172 3584 2448 3432 
Q 2725 3281 2906 2969 
L 2906 3500 
L 3481 3500 
L 3481 -1331 
L 2906 -1331 
L 2906 525 
z
" id="DejaVuSans-71" transform="scale(0.015625)"/>
      </defs>
      <use xlink:href="#DejaVuSans-71"/>
      <use x="63.476562" xlink:href="#DejaVuSans-46"/>
      <use x="115.496094" xlink:href="#DejaVuSans-65"/>
      <use x="177.019531" xlink:href="#DejaVuSans-64"/>
      <use x="240.496094" xlink:href="#DejaVuSans-41"/>
      <use x="303.029297" xlink:href="#DejaVuSans-76"/>
      <use x="362.208984" xlink:href="#DejaVuSans-67"/>
     </g>
    </g>
   </g>
  </g>
 </g>
 <defs>
  <clipPath id="p09add0ccd5">
   <rect height="319.398011" width="481.56" x="70.22" y="56.601989"/>
  </clipPath>
 </defs>
</svg>
