<?xml version="1.0" encoding="utf-8" standalone="no"?>
<!DOCTYPE svg PUBLIC "-//W3C//DTD SVG 1.1//EN"
  "http://www.w3.org/Graphics/SVG/1.1/DTD/svg11.dtd">
<svg height="345.6pt" version="1.1" viewBox="0 0 460.8 345.6" width="460.8pt" xmlns="http://www.w3.org/2000/svg" xmlns:xlink="http://www.w3.org/1999/xlink">
 <metadata>
  <rdf:RDF xmlns:cc="http://creativecommons.org/ns#" xmlns:dc="http://purl.org/dc/elements/1.1/" xmlns:rdf="http://www.w3.org/1999/02/22-rdf-syntax-ns#">
   <cc:Work>
    <dc:type rdf:resource="http://purl.org/dc/dcmitype/StillImage"/>
    <dc:date>2021-05-07T12:06:32.889992</dc:date>
    <dc:format>image/svg+xml</dc:format>
    <dc:creator>
     <cc:Agent>
      <dc:title>Matplotlib v3.4.1, https://matplotlib.org/</dc:title>
     </cc:Agent>
    </dc:creator>
   </cc:Work>
  </rdf:RDF>
 </metadata>
 <defs>
  <style type="text/css">*{stroke-linecap:butt;stroke-linejoin:round;}</style>
 </defs>
 <g id="figure_1">
  <g id="patch_1">
   <path d="M 0 345.6 
L 460.8 345.6 
L 460.8 0 
L 0 0 
z
" style="fill:#ffffff;"/>
  </g>
  <g id="axes_1">
   <g id="patch_2">
    <path d="M 50.87 303.64 
L 450 303.64 
L 450 32.876829 
L 50.87 32.876829 
z
" style="fill:#ffffff;"/>
   </g>
   <g id="PolyCollection_1">
    <path clip-path="url(#p9f7e1f0336)" d="M 69.012273 228.634739 
L 69.012273 253.182396 
L 76.417282 168.908755 
L 83.822291 148.635437 
L 91.227301 125.326936 
L 98.63231 116.340122 
L 106.037319 105.937611 
L 113.442328 101.337082 
L 120.847338 97.245149 
L 128.252347 86.7737 
L 135.657356 81.556693 
L 143.062365 77.236827 
L 150.467375 75.189741 
L 157.872384 72.584444 
L 165.277393 72.151056 
L 172.682403 70.933347 
L 180.087412 71.404537 
L 187.492421 65.978973 
L 194.89743 65.466736 
L 202.30244 69.209714 
L 209.707449 64.536259 
L 217.112458 67.599544 
L 224.517468 71.653967 
L 231.922477 67.990921 
L 239.327486 66.909449 
L 246.732495 65.466736 
L 254.137505 64.536259 
L 261.542514 63.187543 
L 268.947523 64.536259 
L 276.352532 67.599544 
L 283.757542 66.752154 
L 291.162551 67.001585 
L 298.56756 61.32659 
L 305.97257 68.567865 
L 313.377579 64.808114 
L 320.782588 66.752154 
L 328.187597 62.099771 
L 335.592607 70.815626 
L 342.997616 59.371639 
L 350.402625 64.557331 
L 357.807635 66.280964 
L 365.212644 62.349202 
L 372.617653 63.511785 
L 380.022662 58.627295 
L 387.427672 55.503349 
L 394.832681 60.193576 
L 402.23769 58.859403 
L 409.642699 56.58021 
L 417.047709 55.503349 
L 424.452718 60.238818 
L 431.857727 58.627295 
L 431.857727 49.138259 
L 431.857727 49.138259 
L 424.452718 49.38769 
L 417.047709 48.5403 
L 409.642699 47.463438 
L 402.23769 45.184246 
L 394.832681 47.571978 
L 387.427672 48.5403 
L 380.022662 49.138259 
L 372.617653 49.836629 
L 365.212644 52.860165 
L 357.807635 54.511263 
L 350.402625 56.234896 
L 342.997616 50.254868 
L 335.592607 51.837553 
L 328.187597 51.248643 
L 320.782588 55.901026 
L 313.377579 57.845065 
L 305.97257 55.946267 
L 298.56756 57.604684 
L 291.162551 57.512548 
L 283.757542 55.901026 
L 276.352532 60.636495 
L 268.947523 59.977874 
L 261.542514 59.465637 
L 254.137505 59.977874 
L 246.732495 60.90835 
L 239.327486 59.465637 
L 231.922477 62.106071 
L 224.517468 62.164931 
L 217.112458 60.636495 
L 209.707449 59.977874 
L 202.30244 60.887278 
L 194.89743 60.90835 
L 187.492421 58.53516 
L 180.087412 60.553409 
L 172.682403 59.163646 
L 165.277393 59.806889 
L 157.872384 63.095408 
L 150.467375 66.07297 
L 143.062365 67.74779 
L 135.657356 74.593643 
L 128.252347 73.098543 
L 120.847338 81.236625 
L 113.442328 86.449457 
L 106.037319 89.292741 
L 98.63231 101.221667 
L 91.227301 112.705338 
L 83.822291 121.033041 
L 76.417282 139.839738 
L 69.012273 228.634739 
z
" style="fill:#1f77b4;fill-opacity:0.5;"/>
   </g>
   <g id="PolyCollection_2">
    <path clip-path="url(#p9f7e1f0336)" d="M 69.012273 242.59124 
L 69.012273 291.332583 
L 76.417282 168.705218 
L 83.822291 154.74807 
L 91.227301 137.255641 
L 98.63231 118.674884 
L 106.037319 115.984326 
L 113.442328 105.895468 
L 120.847338 101.243085 
L 128.252347 97.102939 
L 135.657356 101.790069 
L 143.062365 86.209075 
L 150.467375 88.760123 
L 157.872384 84.102075 
L 165.277393 81.556693 
L 172.682403 77.981171 
L 180.087412 80.709302 
L 187.492421 77.236827 
L 194.89743 76.214215 
L 202.30244 74.797309 
L 209.707449 72.584444 
L 217.112458 70.631355 
L 224.517468 72.584444 
L 231.922477 70.631355 
L 239.327486 71.404537 
L 246.732495 69.209714 
L 254.137505 69.460497 
L 261.542514 73.328788 
L 268.947523 67.599544 
L 276.352532 73.872498 
L 283.757542 70.144926 
L 291.162551 74.797309 
L 298.56756 72.584444 
L 305.97257 71.653967 
L 313.377579 69.220115 
L 320.782588 70.290103 
L 328.187597 70.933347 
L 335.592607 67.599544 
L 342.997616 64.536259 
L 350.402625 66.909449 
L 357.807635 69.460497 
L 365.212644 67.932061 
L 372.617653 65.466736 
L 380.022662 70.144926 
L 387.427672 67.932061 
L 394.832681 67.599544 
L 402.23769 72.643304 
L 409.642699 70.537358 
L 417.047709 71.653967 
L 424.452718 70.119119 
L 431.857727 71.653967 
L 431.857727 62.164931 
L 431.857727 62.164931 
L 424.452718 65.560733 
L 417.047709 62.164931 
L 409.642699 61.420587 
L 402.23769 66.758454 
L 394.832681 60.636495 
L 387.427672 58.443025 
L 380.022662 59.952066 
L 372.617653 60.90835 
L 365.212644 58.443025 
L 357.807635 62.497448 
L 350.402625 59.465637 
L 342.997616 59.977874 
L 335.592607 60.636495 
L 328.187597 59.163646 
L 320.782588 57.945936 
L 313.377579 55.294017 
L 305.97257 62.164931 
L 298.56756 63.095408 
L 291.162551 64.604449 
L 283.757542 59.952066 
L 276.352532 59.9464 
L 268.947523 60.636495 
L 261.542514 64.212017 
L 254.137505 62.497448 
L 246.732495 60.887278 
L 239.327486 60.553409 
L 231.922477 63.187543 
L 224.517468 63.095408 
L 217.112458 63.187543 
L 209.707449 63.095408 
L 202.30244 64.604449 
L 194.89743 68.770402 
L 187.492421 67.74779 
L 180.087412 69.858174 
L 172.682403 68.8644 
L 165.277393 74.593643 
L 157.872384 73.909215 
L 150.467375 74.834025 
L 143.062365 79.246026 
L 135.657356 84.135517 
L 128.252347 92.544553 
L 120.847338 92.126314 
L 113.442328 96.778697 
L 106.037319 109.021277 
L 98.63231 106.330718 
L 91.227301 121.247117 
L 83.822291 133.529939 
L 76.417282 147.487088 
L 69.012273 242.59124 
z
" style="fill:#ff7f0e;fill-opacity:0.5;"/>
   </g>
   <g id="PolyCollection_3">
    <path clip-path="url(#p9f7e1f0336)" d="M 69.012273 227.650712 
L 69.012273 265.332141 
L 76.417282 176.953656 
L 83.822291 150.046106 
L 91.227301 128.413038 
L 98.63231 128.320903 
L 106.037319 106.762646 
L 113.442328 101.337082 
L 120.847338 90.861458 
L 128.252347 98.064889 
L 135.657356 96.894031 
L 143.062365 90.731813 
L 150.467375 80.678603 
L 157.872384 80.566127 
L 165.277393 77.485804 
L 172.682403 75.021156 
L 180.087412 69.543584 
L 187.492421 73.422785 
L 194.89743 70.933347 
L 202.30244 73.422785 
L 209.707449 76.46881 
L 217.112458 67.932061 
L 224.517468 72.122282 
L 231.922477 69.209714 
L 239.327486 66.752154 
L 246.732495 66.909449 
L 254.137505 65.978973 
L 261.542514 64.808114 
L 268.947523 68.567865 
L 276.352532 69.816294 
L 283.757542 68.164168 
L 291.162551 65.492543 
L 298.56756 66.752154 
L 305.97257 70.347895 
L 313.377579 62.84629 
L 320.782588 65.492543 
L 328.187597 65.498209 
L 335.592607 67.469899 
L 342.997616 65.492543 
L 350.402625 63.338538 
L 357.807635 63.915483 
L 365.212644 63.279678 
L 372.617653 62.257066 
L 380.022662 63.915483 
L 387.427672 62.257066 
L 394.832681 60.985337 
L 402.23769 63.915483 
L 409.642699 63.915483 
L 417.047709 60.193576 
L 424.452718 62.84629 
L 431.857727 61.628581 
L 431.857727 49.85888 
L 431.857727 49.85888 
L 424.452718 50.502124 
L 417.047709 47.571978 
L 409.642699 51.293884 
L 402.23769 51.293884 
L 394.832681 48.641171 
L 387.427672 47.369441 
L 380.022662 51.293884 
L 372.617653 47.369441 
L 365.212644 53.790642 
L 357.807635 51.293884 
L 350.402625 57.453688 
L 342.997616 55.299683 
L 335.592607 51.461375 
L 328.187597 51.572111 
L 320.782588 55.299683 
L 313.377579 50.502124 
L 305.97257 52.305285 
L 298.56756 55.901026 
L 291.162551 55.299683 
L 283.757542 54.489011 
L 276.352532 54.697839 
L 268.947523 55.946267 
L 261.542514 57.845065 
L 254.137505 58.53516 
L 246.732495 59.465637 
L 239.327486 55.901026 
L 231.922477 60.887278 
L 224.517468 56.113757 
L 217.112458 58.443025 
L 209.707449 59.211041 
L 202.30244 62.257066 
L 194.89743 59.163646 
L 187.492421 62.257066 
L 180.087412 58.692455 
L 172.682403 58.797743 
L 165.277393 61.915953 
L 157.872384 60.696584 
L 150.467375 62.445061 
L 143.062365 74.723289 
L 135.657356 76.004884 
L 128.252347 84.138791 
L 120.847338 83.898409 
L 113.442328 90.171363 
L 106.037319 95.911518 
L 98.63231 105.989465 
L 91.227301 118.924002 
L 83.822291 136.370949 
L 76.417282 152.265322 
L 69.012273 227.650712 
z
" style="fill:#2ca02c;fill-opacity:0.5;"/>
   </g>
   <g id="PolyCollection_4">
    <path clip-path="url(#p9f7e1f0336)" d="M 69.012273 219.204295 
L 69.012273 245.095688 
L 76.417282 178.377682 
L 83.822291 159.667073 
L 91.227301 143.585017 
L 98.63231 135.187179 
L 106.037319 126.140693 
L 113.442328 121.581744 
L 120.847338 116.027401 
L 128.252347 113.012796 
L 135.657356 110.200052 
L 143.062365 108.964761 
L 150.467375 105.818029 
L 157.872384 106.043242 
L 165.277393 104.581273 
L 172.682403 102.881739 
L 180.087412 101.612038 
L 187.492421 100.445126 
L 194.89743 99.07277 
L 202.30244 98.367939 
L 209.707449 97.642737 
L 217.112458 97.195456 
L 224.517468 95.514361 
L 231.922477 95.735076 
L 239.327486 96.176783 
L 246.732495 95.690834 
L 254.137505 95.772048 
L 261.542514 95.689897 
L 268.947523 94.758678 
L 276.352532 93.671771 
L 283.757542 93.455159 
L 291.162551 93.668325 
L 298.56756 94.249642 
L 305.97257 92.160621 
L 313.377579 92.571761 
L 320.782588 92.548581 
L 328.187597 93.044633 
L 335.592607 91.963542 
L 342.997616 92.19699 
L 350.402625 92.580016 
L 357.807635 91.607447 
L 365.212644 90.817791 
L 372.617653 91.514059 
L 380.022662 91.660739 
L 387.427672 92.391921 
L 394.832681 91.105899 
L 402.23769 91.367289 
L 409.642699 90.551703 
L 417.047709 90.757813 
L 424.452718 89.536263 
L 431.857727 91.040529 
L 431.857727 84.374394 
L 431.857727 84.374394 
L 424.452718 85.290599 
L 417.047709 84.510095 
L 409.642699 85.304266 
L 402.23769 84.78271 
L 394.832681 86.661269 
L 387.427672 87.286446 
L 380.022662 86.98852 
L 372.617653 86.400124 
L 365.212644 86.802362 
L 357.807635 86.306736 
L 350.402625 85.628198 
L 342.997616 87.334361 
L 335.592607 87.567809 
L 328.187597 86.339703 
L 320.782588 86.835755 
L 313.377579 86.224513 
L 305.97257 86.929685 
L 298.56756 87.192908 
L 291.162551 86.451087 
L 283.757542 87.69336 
L 276.352532 88.358841 
L 268.947523 88.889102 
L 261.542514 89.575051 
L 254.137505 90.963052 
L 246.732495 90.30919 
L 239.327486 89.382195 
L 231.922477 88.64778 
L 224.517468 90.485664 
L 217.112458 91.303828 
L 209.707449 90.268487 
L 202.30244 89.6903 
L 194.89743 91.484729 
L 187.492421 92.905663 
L 180.087412 95.561149 
L 172.682403 96.202647 
L 165.277393 96.414312 
L 157.872384 98.333695 
L 150.467375 100.911152 
L 143.062365 100.998757 
L 135.657356 102.997803 
L 128.252347 105.77164 
L 120.847338 109.078692 
L 113.442328 113.962436 
L 106.037319 118.959481 
L 98.63231 125.643632 
L 91.227301 136.210767 
L 83.822291 147.326542 
L 76.417282 170.074246 
L 69.012273 219.204295 
z
" style="fill:#d62728;fill-opacity:0.5;"/>
   </g>
   <g id="matplotlib.axis_1">
    <g id="xtick_1">
     <g id="line2d_1">
      <defs>
       <path d="M 0 0 
L 0 3.5 
" id="m448ae806c3" style="stroke:#000000;stroke-width:0.8;"/>
      </defs>
      <g>
       <use style="stroke:#000000;stroke-width:0.8;" x="69.012273" xlink:href="#m448ae806c3" y="303.64"/>
      </g>
     </g>
     <g id="text_1">
      <!-- 0 -->
      <g transform="translate(65.831023 318.238437)scale(0.1 -0.1)">
       <defs>
        <path d="M 2034 4250 
Q 1547 4250 1301 3770 
Q 1056 3291 1056 2328 
Q 1056 1369 1301 889 
Q 1547 409 2034 409 
Q 2525 409 2770 889 
Q 3016 1369 3016 2328 
Q 3016 3291 2770 3770 
Q 2525 4250 2034 4250 
z
M 2034 4750 
Q 2819 4750 3233 4129 
Q 3647 3509 3647 2328 
Q 3647 1150 3233 529 
Q 2819 -91 2034 -91 
Q 1250 -91 836 529 
Q 422 1150 422 2328 
Q 422 3509 836 4129 
Q 1250 4750 2034 4750 
z
" id="DejaVuSans-30" transform="scale(0.015625)"/>
       </defs>
       <use xlink:href="#DejaVuSans-30"/>
      </g>
     </g>
    </g>
    <g id="xtick_2">
     <g id="line2d_2">
      <g>
       <use style="stroke:#000000;stroke-width:0.8;" x="143.062365" xlink:href="#m448ae806c3" y="303.64"/>
      </g>
     </g>
     <g id="text_2">
      <!-- 10 -->
      <g transform="translate(136.699865 318.238437)scale(0.1 -0.1)">
       <defs>
        <path d="M 794 531 
L 1825 531 
L 1825 4091 
L 703 3866 
L 703 4441 
L 1819 4666 
L 2450 4666 
L 2450 531 
L 3481 531 
L 3481 0 
L 794 0 
L 794 531 
z
" id="DejaVuSans-31" transform="scale(0.015625)"/>
       </defs>
       <use xlink:href="#DejaVuSans-31"/>
       <use x="63.623047" xlink:href="#DejaVuSans-30"/>
      </g>
     </g>
    </g>
    <g id="xtick_3">
     <g id="line2d_3">
      <g>
       <use style="stroke:#000000;stroke-width:0.8;" x="217.112458" xlink:href="#m448ae806c3" y="303.64"/>
      </g>
     </g>
     <g id="text_3">
      <!-- 20 -->
      <g transform="translate(210.749958 318.238437)scale(0.1 -0.1)">
       <defs>
        <path d="M 1228 531 
L 3431 531 
L 3431 0 
L 469 0 
L 469 531 
Q 828 903 1448 1529 
Q 2069 2156 2228 2338 
Q 2531 2678 2651 2914 
Q 2772 3150 2772 3378 
Q 2772 3750 2511 3984 
Q 2250 4219 1831 4219 
Q 1534 4219 1204 4116 
Q 875 4013 500 3803 
L 500 4441 
Q 881 4594 1212 4672 
Q 1544 4750 1819 4750 
Q 2544 4750 2975 4387 
Q 3406 4025 3406 3419 
Q 3406 3131 3298 2873 
Q 3191 2616 2906 2266 
Q 2828 2175 2409 1742 
Q 1991 1309 1228 531 
z
" id="DejaVuSans-32" transform="scale(0.015625)"/>
       </defs>
       <use xlink:href="#DejaVuSans-32"/>
       <use x="63.623047" xlink:href="#DejaVuSans-30"/>
      </g>
     </g>
    </g>
    <g id="xtick_4">
     <g id="line2d_4">
      <g>
       <use style="stroke:#000000;stroke-width:0.8;" x="291.162551" xlink:href="#m448ae806c3" y="303.64"/>
      </g>
     </g>
     <g id="text_4">
      <!-- 30 -->
      <g transform="translate(284.800051 318.238437)scale(0.1 -0.1)">
       <defs>
        <path d="M 2597 2516 
Q 3050 2419 3304 2112 
Q 3559 1806 3559 1356 
Q 3559 666 3084 287 
Q 2609 -91 1734 -91 
Q 1441 -91 1130 -33 
Q 819 25 488 141 
L 488 750 
Q 750 597 1062 519 
Q 1375 441 1716 441 
Q 2309 441 2620 675 
Q 2931 909 2931 1356 
Q 2931 1769 2642 2001 
Q 2353 2234 1838 2234 
L 1294 2234 
L 1294 2753 
L 1863 2753 
Q 2328 2753 2575 2939 
Q 2822 3125 2822 3475 
Q 2822 3834 2567 4026 
Q 2313 4219 1838 4219 
Q 1578 4219 1281 4162 
Q 984 4106 628 3988 
L 628 4550 
Q 988 4650 1302 4700 
Q 1616 4750 1894 4750 
Q 2613 4750 3031 4423 
Q 3450 4097 3450 3541 
Q 3450 3153 3228 2886 
Q 3006 2619 2597 2516 
z
" id="DejaVuSans-33" transform="scale(0.015625)"/>
       </defs>
       <use xlink:href="#DejaVuSans-33"/>
       <use x="63.623047" xlink:href="#DejaVuSans-30"/>
      </g>
     </g>
    </g>
    <g id="xtick_5">
     <g id="line2d_5">
      <g>
       <use style="stroke:#000000;stroke-width:0.8;" x="365.212644" xlink:href="#m448ae806c3" y="303.64"/>
      </g>
     </g>
     <g id="text_5">
      <!-- 40 -->
      <g transform="translate(358.850144 318.238437)scale(0.1 -0.1)">
       <defs>
        <path d="M 2419 4116 
L 825 1625 
L 2419 1625 
L 2419 4116 
z
M 2253 4666 
L 3047 4666 
L 3047 1625 
L 3713 1625 
L 3713 1100 
L 3047 1100 
L 3047 0 
L 2419 0 
L 2419 1100 
L 313 1100 
L 313 1709 
L 2253 4666 
z
" id="DejaVuSans-34" transform="scale(0.015625)"/>
       </defs>
       <use xlink:href="#DejaVuSans-34"/>
       <use x="63.623047" xlink:href="#DejaVuSans-30"/>
      </g>
     </g>
    </g>
    <g id="xtick_6">
     <g id="line2d_6">
      <g>
       <use style="stroke:#000000;stroke-width:0.8;" x="439.262737" xlink:href="#m448ae806c3" y="303.64"/>
      </g>
     </g>
     <g id="text_6">
      <!-- 50 -->
      <g transform="translate(432.900237 318.238437)scale(0.1 -0.1)">
       <defs>
        <path d="M 691 4666 
L 3169 4666 
L 3169 4134 
L 1269 4134 
L 1269 2991 
Q 1406 3038 1543 3061 
Q 1681 3084 1819 3084 
Q 2600 3084 3056 2656 
Q 3513 2228 3513 1497 
Q 3513 744 3044 326 
Q 2575 -91 1722 -91 
Q 1428 -91 1123 -41 
Q 819 9 494 109 
L 494 744 
Q 775 591 1075 516 
Q 1375 441 1709 441 
Q 2250 441 2565 725 
Q 2881 1009 2881 1497 
Q 2881 1984 2565 2268 
Q 2250 2553 1709 2553 
Q 1456 2553 1204 2497 
Q 953 2441 691 2322 
L 691 4666 
z
" id="DejaVuSans-35" transform="scale(0.015625)"/>
       </defs>
       <use xlink:href="#DejaVuSans-35"/>
       <use x="63.623047" xlink:href="#DejaVuSans-30"/>
      </g>
     </g>
    </g>
    <g id="text_7">
     <!-- Global Communication Rounds -->
     <g transform="translate(173.473281 331.916562)scale(0.1 -0.1)">
      <defs>
       <path d="M 3809 666 
L 3809 1919 
L 2778 1919 
L 2778 2438 
L 4434 2438 
L 4434 434 
Q 4069 175 3628 42 
Q 3188 -91 2688 -91 
Q 1594 -91 976 548 
Q 359 1188 359 2328 
Q 359 3472 976 4111 
Q 1594 4750 2688 4750 
Q 3144 4750 3555 4637 
Q 3966 4525 4313 4306 
L 4313 3634 
Q 3963 3931 3569 4081 
Q 3175 4231 2741 4231 
Q 1884 4231 1454 3753 
Q 1025 3275 1025 2328 
Q 1025 1384 1454 906 
Q 1884 428 2741 428 
Q 3075 428 3337 486 
Q 3600 544 3809 666 
z
" id="DejaVuSans-47" transform="scale(0.015625)"/>
       <path d="M 603 4863 
L 1178 4863 
L 1178 0 
L 603 0 
L 603 4863 
z
" id="DejaVuSans-6c" transform="scale(0.015625)"/>
       <path d="M 1959 3097 
Q 1497 3097 1228 2736 
Q 959 2375 959 1747 
Q 959 1119 1226 758 
Q 1494 397 1959 397 
Q 2419 397 2687 759 
Q 2956 1122 2956 1747 
Q 2956 2369 2687 2733 
Q 2419 3097 1959 3097 
z
M 1959 3584 
Q 2709 3584 3137 3096 
Q 3566 2609 3566 1747 
Q 3566 888 3137 398 
Q 2709 -91 1959 -91 
Q 1206 -91 779 398 
Q 353 888 353 1747 
Q 353 2609 779 3096 
Q 1206 3584 1959 3584 
z
" id="DejaVuSans-6f" transform="scale(0.015625)"/>
       <path d="M 3116 1747 
Q 3116 2381 2855 2742 
Q 2594 3103 2138 3103 
Q 1681 3103 1420 2742 
Q 1159 2381 1159 1747 
Q 1159 1113 1420 752 
Q 1681 391 2138 391 
Q 2594 391 2855 752 
Q 3116 1113 3116 1747 
z
M 1159 2969 
Q 1341 3281 1617 3432 
Q 1894 3584 2278 3584 
Q 2916 3584 3314 3078 
Q 3713 2572 3713 1747 
Q 3713 922 3314 415 
Q 2916 -91 2278 -91 
Q 1894 -91 1617 61 
Q 1341 213 1159 525 
L 1159 0 
L 581 0 
L 581 4863 
L 1159 4863 
L 1159 2969 
z
" id="DejaVuSans-62" transform="scale(0.015625)"/>
       <path d="M 2194 1759 
Q 1497 1759 1228 1600 
Q 959 1441 959 1056 
Q 959 750 1161 570 
Q 1363 391 1709 391 
Q 2188 391 2477 730 
Q 2766 1069 2766 1631 
L 2766 1759 
L 2194 1759 
z
M 3341 1997 
L 3341 0 
L 2766 0 
L 2766 531 
Q 2569 213 2275 61 
Q 1981 -91 1556 -91 
Q 1019 -91 701 211 
Q 384 513 384 1019 
Q 384 1609 779 1909 
Q 1175 2209 1959 2209 
L 2766 2209 
L 2766 2266 
Q 2766 2663 2505 2880 
Q 2244 3097 1772 3097 
Q 1472 3097 1187 3025 
Q 903 2953 641 2809 
L 641 3341 
Q 956 3463 1253 3523 
Q 1550 3584 1831 3584 
Q 2591 3584 2966 3190 
Q 3341 2797 3341 1997 
z
" id="DejaVuSans-61" transform="scale(0.015625)"/>
       <path id="DejaVuSans-20" transform="scale(0.015625)"/>
       <path d="M 4122 4306 
L 4122 3641 
Q 3803 3938 3442 4084 
Q 3081 4231 2675 4231 
Q 1875 4231 1450 3742 
Q 1025 3253 1025 2328 
Q 1025 1406 1450 917 
Q 1875 428 2675 428 
Q 3081 428 3442 575 
Q 3803 722 4122 1019 
L 4122 359 
Q 3791 134 3420 21 
Q 3050 -91 2638 -91 
Q 1578 -91 968 557 
Q 359 1206 359 2328 
Q 359 3453 968 4101 
Q 1578 4750 2638 4750 
Q 3056 4750 3426 4639 
Q 3797 4528 4122 4306 
z
" id="DejaVuSans-43" transform="scale(0.015625)"/>
       <path d="M 3328 2828 
Q 3544 3216 3844 3400 
Q 4144 3584 4550 3584 
Q 5097 3584 5394 3201 
Q 5691 2819 5691 2113 
L 5691 0 
L 5113 0 
L 5113 2094 
Q 5113 2597 4934 2840 
Q 4756 3084 4391 3084 
Q 3944 3084 3684 2787 
Q 3425 2491 3425 1978 
L 3425 0 
L 2847 0 
L 2847 2094 
Q 2847 2600 2669 2842 
Q 2491 3084 2119 3084 
Q 1678 3084 1418 2786 
Q 1159 2488 1159 1978 
L 1159 0 
L 581 0 
L 581 3500 
L 1159 3500 
L 1159 2956 
Q 1356 3278 1631 3431 
Q 1906 3584 2284 3584 
Q 2666 3584 2933 3390 
Q 3200 3197 3328 2828 
z
" id="DejaVuSans-6d" transform="scale(0.015625)"/>
       <path d="M 544 1381 
L 544 3500 
L 1119 3500 
L 1119 1403 
Q 1119 906 1312 657 
Q 1506 409 1894 409 
Q 2359 409 2629 706 
Q 2900 1003 2900 1516 
L 2900 3500 
L 3475 3500 
L 3475 0 
L 2900 0 
L 2900 538 
Q 2691 219 2414 64 
Q 2138 -91 1772 -91 
Q 1169 -91 856 284 
Q 544 659 544 1381 
z
M 1991 3584 
L 1991 3584 
z
" id="DejaVuSans-75" transform="scale(0.015625)"/>
       <path d="M 3513 2113 
L 3513 0 
L 2938 0 
L 2938 2094 
Q 2938 2591 2744 2837 
Q 2550 3084 2163 3084 
Q 1697 3084 1428 2787 
Q 1159 2491 1159 1978 
L 1159 0 
L 581 0 
L 581 3500 
L 1159 3500 
L 1159 2956 
Q 1366 3272 1645 3428 
Q 1925 3584 2291 3584 
Q 2894 3584 3203 3211 
Q 3513 2838 3513 2113 
z
" id="DejaVuSans-6e" transform="scale(0.015625)"/>
       <path d="M 603 3500 
L 1178 3500 
L 1178 0 
L 603 0 
L 603 3500 
z
M 603 4863 
L 1178 4863 
L 1178 4134 
L 603 4134 
L 603 4863 
z
" id="DejaVuSans-69" transform="scale(0.015625)"/>
       <path d="M 3122 3366 
L 3122 2828 
Q 2878 2963 2633 3030 
Q 2388 3097 2138 3097 
Q 1578 3097 1268 2742 
Q 959 2388 959 1747 
Q 959 1106 1268 751 
Q 1578 397 2138 397 
Q 2388 397 2633 464 
Q 2878 531 3122 666 
L 3122 134 
Q 2881 22 2623 -34 
Q 2366 -91 2075 -91 
Q 1284 -91 818 406 
Q 353 903 353 1747 
Q 353 2603 823 3093 
Q 1294 3584 2113 3584 
Q 2378 3584 2631 3529 
Q 2884 3475 3122 3366 
z
" id="DejaVuSans-63" transform="scale(0.015625)"/>
       <path d="M 1172 4494 
L 1172 3500 
L 2356 3500 
L 2356 3053 
L 1172 3053 
L 1172 1153 
Q 1172 725 1289 603 
Q 1406 481 1766 481 
L 2356 481 
L 2356 0 
L 1766 0 
Q 1100 0 847 248 
Q 594 497 594 1153 
L 594 3053 
L 172 3053 
L 172 3500 
L 594 3500 
L 594 4494 
L 1172 4494 
z
" id="DejaVuSans-74" transform="scale(0.015625)"/>
       <path d="M 2841 2188 
Q 3044 2119 3236 1894 
Q 3428 1669 3622 1275 
L 4263 0 
L 3584 0 
L 2988 1197 
Q 2756 1666 2539 1819 
Q 2322 1972 1947 1972 
L 1259 1972 
L 1259 0 
L 628 0 
L 628 4666 
L 2053 4666 
Q 2853 4666 3247 4331 
Q 3641 3997 3641 3322 
Q 3641 2881 3436 2590 
Q 3231 2300 2841 2188 
z
M 1259 4147 
L 1259 2491 
L 2053 2491 
Q 2509 2491 2742 2702 
Q 2975 2913 2975 3322 
Q 2975 3731 2742 3939 
Q 2509 4147 2053 4147 
L 1259 4147 
z
" id="DejaVuSans-52" transform="scale(0.015625)"/>
       <path d="M 2906 2969 
L 2906 4863 
L 3481 4863 
L 3481 0 
L 2906 0 
L 2906 525 
Q 2725 213 2448 61 
Q 2172 -91 1784 -91 
Q 1150 -91 751 415 
Q 353 922 353 1747 
Q 353 2572 751 3078 
Q 1150 3584 1784 3584 
Q 2172 3584 2448 3432 
Q 2725 3281 2906 2969 
z
M 947 1747 
Q 947 1113 1208 752 
Q 1469 391 1925 391 
Q 2381 391 2643 752 
Q 2906 1113 2906 1747 
Q 2906 2381 2643 2742 
Q 2381 3103 1925 3103 
Q 1469 3103 1208 2742 
Q 947 2381 947 1747 
z
" id="DejaVuSans-64" transform="scale(0.015625)"/>
       <path d="M 2834 3397 
L 2834 2853 
Q 2591 2978 2328 3040 
Q 2066 3103 1784 3103 
Q 1356 3103 1142 2972 
Q 928 2841 928 2578 
Q 928 2378 1081 2264 
Q 1234 2150 1697 2047 
L 1894 2003 
Q 2506 1872 2764 1633 
Q 3022 1394 3022 966 
Q 3022 478 2636 193 
Q 2250 -91 1575 -91 
Q 1294 -91 989 -36 
Q 684 19 347 128 
L 347 722 
Q 666 556 975 473 
Q 1284 391 1588 391 
Q 1994 391 2212 530 
Q 2431 669 2431 922 
Q 2431 1156 2273 1281 
Q 2116 1406 1581 1522 
L 1381 1569 
Q 847 1681 609 1914 
Q 372 2147 372 2553 
Q 372 3047 722 3315 
Q 1072 3584 1716 3584 
Q 2034 3584 2315 3537 
Q 2597 3491 2834 3397 
z
" id="DejaVuSans-73" transform="scale(0.015625)"/>
      </defs>
      <use xlink:href="#DejaVuSans-47"/>
      <use x="77.490234" xlink:href="#DejaVuSans-6c"/>
      <use x="105.273438" xlink:href="#DejaVuSans-6f"/>
      <use x="166.455078" xlink:href="#DejaVuSans-62"/>
      <use x="229.931641" xlink:href="#DejaVuSans-61"/>
      <use x="291.210938" xlink:href="#DejaVuSans-6c"/>
      <use x="318.994141" xlink:href="#DejaVuSans-20"/>
      <use x="350.78125" xlink:href="#DejaVuSans-43"/>
      <use x="420.605469" xlink:href="#DejaVuSans-6f"/>
      <use x="481.787109" xlink:href="#DejaVuSans-6d"/>
      <use x="579.199219" xlink:href="#DejaVuSans-6d"/>
      <use x="676.611328" xlink:href="#DejaVuSans-75"/>
      <use x="739.990234" xlink:href="#DejaVuSans-6e"/>
      <use x="803.369141" xlink:href="#DejaVuSans-69"/>
      <use x="831.152344" xlink:href="#DejaVuSans-63"/>
      <use x="886.132812" xlink:href="#DejaVuSans-61"/>
      <use x="947.412109" xlink:href="#DejaVuSans-74"/>
      <use x="986.621094" xlink:href="#DejaVuSans-69"/>
      <use x="1014.404297" xlink:href="#DejaVuSans-6f"/>
      <use x="1075.585938" xlink:href="#DejaVuSans-6e"/>
      <use x="1138.964844" xlink:href="#DejaVuSans-20"/>
      <use x="1170.751953" xlink:href="#DejaVuSans-52"/>
      <use x="1235.734375" xlink:href="#DejaVuSans-6f"/>
      <use x="1296.916016" xlink:href="#DejaVuSans-75"/>
      <use x="1360.294922" xlink:href="#DejaVuSans-6e"/>
      <use x="1423.673828" xlink:href="#DejaVuSans-64"/>
      <use x="1487.150391" xlink:href="#DejaVuSans-73"/>
     </g>
    </g>
   </g>
   <g id="matplotlib.axis_2">
    <g id="ytick_1">
     <g id="line2d_7">
      <defs>
       <path d="M 0 0 
L -3.5 0 
" id="ma6609028e3" style="stroke:#000000;stroke-width:0.8;"/>
      </defs>
      <g>
       <use style="stroke:#000000;stroke-width:0.8;" x="50.87" xlink:href="#ma6609028e3" y="294.41097"/>
      </g>
     </g>
     <g id="text_8">
      <!-- 93 -->
      <g transform="translate(31.145 298.210189)scale(0.1 -0.1)">
       <defs>
        <path d="M 703 97 
L 703 672 
Q 941 559 1184 500 
Q 1428 441 1663 441 
Q 2288 441 2617 861 
Q 2947 1281 2994 2138 
Q 2813 1869 2534 1725 
Q 2256 1581 1919 1581 
Q 1219 1581 811 2004 
Q 403 2428 403 3163 
Q 403 3881 828 4315 
Q 1253 4750 1959 4750 
Q 2769 4750 3195 4129 
Q 3622 3509 3622 2328 
Q 3622 1225 3098 567 
Q 2575 -91 1691 -91 
Q 1453 -91 1209 -44 
Q 966 3 703 97 
z
M 1959 2075 
Q 2384 2075 2632 2365 
Q 2881 2656 2881 3163 
Q 2881 3666 2632 3958 
Q 2384 4250 1959 4250 
Q 1534 4250 1286 3958 
Q 1038 3666 1038 3163 
Q 1038 2656 1286 2365 
Q 1534 2075 1959 2075 
z
" id="DejaVuSans-39" transform="scale(0.015625)"/>
       </defs>
       <use xlink:href="#DejaVuSans-39"/>
       <use x="63.623047" xlink:href="#DejaVuSans-33"/>
      </g>
     </g>
    </g>
    <g id="ytick_2">
     <g id="line2d_8">
      <g>
       <use style="stroke:#000000;stroke-width:0.8;" x="50.87" xlink:href="#ma6609028e3" y="257.657146"/>
      </g>
     </g>
     <g id="text_9">
      <!-- 94 -->
      <g transform="translate(31.145 261.456365)scale(0.1 -0.1)">
       <use xlink:href="#DejaVuSans-39"/>
       <use x="63.623047" xlink:href="#DejaVuSans-34"/>
      </g>
     </g>
    </g>
    <g id="ytick_3">
     <g id="line2d_9">
      <g>
       <use style="stroke:#000000;stroke-width:0.8;" x="50.87" xlink:href="#ma6609028e3" y="220.903321"/>
      </g>
     </g>
     <g id="text_10">
      <!-- 95 -->
      <g transform="translate(31.145 224.70254)scale(0.1 -0.1)">
       <use xlink:href="#DejaVuSans-39"/>
       <use x="63.623047" xlink:href="#DejaVuSans-35"/>
      </g>
     </g>
    </g>
    <g id="ytick_4">
     <g id="line2d_10">
      <g>
       <use style="stroke:#000000;stroke-width:0.8;" x="50.87" xlink:href="#ma6609028e3" y="184.149497"/>
      </g>
     </g>
     <g id="text_11">
      <!-- 96 -->
      <g transform="translate(31.145 187.948716)scale(0.1 -0.1)">
       <defs>
        <path d="M 2113 2584 
Q 1688 2584 1439 2293 
Q 1191 2003 1191 1497 
Q 1191 994 1439 701 
Q 1688 409 2113 409 
Q 2538 409 2786 701 
Q 3034 994 3034 1497 
Q 3034 2003 2786 2293 
Q 2538 2584 2113 2584 
z
M 3366 4563 
L 3366 3988 
Q 3128 4100 2886 4159 
Q 2644 4219 2406 4219 
Q 1781 4219 1451 3797 
Q 1122 3375 1075 2522 
Q 1259 2794 1537 2939 
Q 1816 3084 2150 3084 
Q 2853 3084 3261 2657 
Q 3669 2231 3669 1497 
Q 3669 778 3244 343 
Q 2819 -91 2113 -91 
Q 1303 -91 875 529 
Q 447 1150 447 2328 
Q 447 3434 972 4092 
Q 1497 4750 2381 4750 
Q 2619 4750 2861 4703 
Q 3103 4656 3366 4563 
z
" id="DejaVuSans-36" transform="scale(0.015625)"/>
       </defs>
       <use xlink:href="#DejaVuSans-39"/>
       <use x="63.623047" xlink:href="#DejaVuSans-36"/>
      </g>
     </g>
    </g>
    <g id="ytick_5">
     <g id="line2d_11">
      <g>
       <use style="stroke:#000000;stroke-width:0.8;" x="50.87" xlink:href="#ma6609028e3" y="147.395672"/>
      </g>
     </g>
     <g id="text_12">
      <!-- 97 -->
      <g transform="translate(31.145 151.194891)scale(0.1 -0.1)">
       <defs>
        <path d="M 525 4666 
L 3525 4666 
L 3525 4397 
L 1831 0 
L 1172 0 
L 2766 4134 
L 525 4134 
L 525 4666 
z
" id="DejaVuSans-37" transform="scale(0.015625)"/>
       </defs>
       <use xlink:href="#DejaVuSans-39"/>
       <use x="63.623047" xlink:href="#DejaVuSans-37"/>
      </g>
     </g>
    </g>
    <g id="ytick_6">
     <g id="line2d_12">
      <g>
       <use style="stroke:#000000;stroke-width:0.8;" x="50.87" xlink:href="#ma6609028e3" y="110.641848"/>
      </g>
     </g>
     <g id="text_13">
      <!-- 98 -->
      <g transform="translate(31.145 114.441067)scale(0.1 -0.1)">
       <defs>
        <path d="M 2034 2216 
Q 1584 2216 1326 1975 
Q 1069 1734 1069 1313 
Q 1069 891 1326 650 
Q 1584 409 2034 409 
Q 2484 409 2743 651 
Q 3003 894 3003 1313 
Q 3003 1734 2745 1975 
Q 2488 2216 2034 2216 
z
M 1403 2484 
Q 997 2584 770 2862 
Q 544 3141 544 3541 
Q 544 4100 942 4425 
Q 1341 4750 2034 4750 
Q 2731 4750 3128 4425 
Q 3525 4100 3525 3541 
Q 3525 3141 3298 2862 
Q 3072 2584 2669 2484 
Q 3125 2378 3379 2068 
Q 3634 1759 3634 1313 
Q 3634 634 3220 271 
Q 2806 -91 2034 -91 
Q 1263 -91 848 271 
Q 434 634 434 1313 
Q 434 1759 690 2068 
Q 947 2378 1403 2484 
z
M 1172 3481 
Q 1172 3119 1398 2916 
Q 1625 2713 2034 2713 
Q 2441 2713 2670 2916 
Q 2900 3119 2900 3481 
Q 2900 3844 2670 4047 
Q 2441 4250 2034 4250 
Q 1625 4250 1398 4047 
Q 1172 3844 1172 3481 
z
" id="DejaVuSans-38" transform="scale(0.015625)"/>
       </defs>
       <use xlink:href="#DejaVuSans-39"/>
       <use x="63.623047" xlink:href="#DejaVuSans-38"/>
      </g>
     </g>
    </g>
    <g id="ytick_7">
     <g id="line2d_13">
      <g>
       <use style="stroke:#000000;stroke-width:0.8;" x="50.87" xlink:href="#ma6609028e3" y="73.888023"/>
      </g>
     </g>
     <g id="text_14">
      <!-- 99 -->
      <g transform="translate(31.145 77.687242)scale(0.1 -0.1)">
       <use xlink:href="#DejaVuSans-39"/>
       <use x="63.623047" xlink:href="#DejaVuSans-39"/>
      </g>
     </g>
    </g>
    <g id="ytick_8">
     <g id="line2d_14">
      <g>
       <use style="stroke:#000000;stroke-width:0.8;" x="50.87" xlink:href="#ma6609028e3" y="37.134199"/>
      </g>
     </g>
     <g id="text_15">
      <!-- 100 -->
      <g transform="translate(24.7825 40.933418)scale(0.1 -0.1)">
       <use xlink:href="#DejaVuSans-31"/>
       <use x="63.623047" xlink:href="#DejaVuSans-30"/>
       <use x="127.246094" xlink:href="#DejaVuSans-30"/>
      </g>
     </g>
    </g>
    <g id="text_16">
     <!-- Test Accuracy -->
     <g transform="translate(18.702813 202.520914)rotate(-90)scale(0.1 -0.1)">
      <defs>
       <path d="M -19 4666 
L 3928 4666 
L 3928 4134 
L 2272 4134 
L 2272 0 
L 1638 0 
L 1638 4134 
L -19 4134 
L -19 4666 
z
" id="DejaVuSans-54" transform="scale(0.015625)"/>
       <path d="M 3597 1894 
L 3597 1613 
L 953 1613 
Q 991 1019 1311 708 
Q 1631 397 2203 397 
Q 2534 397 2845 478 
Q 3156 559 3463 722 
L 3463 178 
Q 3153 47 2828 -22 
Q 2503 -91 2169 -91 
Q 1331 -91 842 396 
Q 353 884 353 1716 
Q 353 2575 817 3079 
Q 1281 3584 2069 3584 
Q 2775 3584 3186 3129 
Q 3597 2675 3597 1894 
z
M 3022 2063 
Q 3016 2534 2758 2815 
Q 2500 3097 2075 3097 
Q 1594 3097 1305 2825 
Q 1016 2553 972 2059 
L 3022 2063 
z
" id="DejaVuSans-65" transform="scale(0.015625)"/>
       <path d="M 2188 4044 
L 1331 1722 
L 3047 1722 
L 2188 4044 
z
M 1831 4666 
L 2547 4666 
L 4325 0 
L 3669 0 
L 3244 1197 
L 1141 1197 
L 716 0 
L 50 0 
L 1831 4666 
z
" id="DejaVuSans-41" transform="scale(0.015625)"/>
       <path d="M 2631 2963 
Q 2534 3019 2420 3045 
Q 2306 3072 2169 3072 
Q 1681 3072 1420 2755 
Q 1159 2438 1159 1844 
L 1159 0 
L 581 0 
L 581 3500 
L 1159 3500 
L 1159 2956 
Q 1341 3275 1631 3429 
Q 1922 3584 2338 3584 
Q 2397 3584 2469 3576 
Q 2541 3569 2628 3553 
L 2631 2963 
z
" id="DejaVuSans-72" transform="scale(0.015625)"/>
       <path d="M 2059 -325 
Q 1816 -950 1584 -1140 
Q 1353 -1331 966 -1331 
L 506 -1331 
L 506 -850 
L 844 -850 
Q 1081 -850 1212 -737 
Q 1344 -625 1503 -206 
L 1606 56 
L 191 3500 
L 800 3500 
L 1894 763 
L 2988 3500 
L 3597 3500 
L 2059 -325 
z
" id="DejaVuSans-79" transform="scale(0.015625)"/>
      </defs>
      <use xlink:href="#DejaVuSans-54"/>
      <use x="44.083984" xlink:href="#DejaVuSans-65"/>
      <use x="105.607422" xlink:href="#DejaVuSans-73"/>
      <use x="157.707031" xlink:href="#DejaVuSans-74"/>
      <use x="196.916016" xlink:href="#DejaVuSans-20"/>
      <use x="228.703125" xlink:href="#DejaVuSans-41"/>
      <use x="295.361328" xlink:href="#DejaVuSans-63"/>
      <use x="350.341797" xlink:href="#DejaVuSans-63"/>
      <use x="405.322266" xlink:href="#DejaVuSans-75"/>
      <use x="468.701172" xlink:href="#DejaVuSans-72"/>
      <use x="509.814453" xlink:href="#DejaVuSans-61"/>
      <use x="571.09375" xlink:href="#DejaVuSans-63"/>
      <use x="626.074219" xlink:href="#DejaVuSans-79"/>
     </g>
    </g>
   </g>
   <g id="line2d_15">
    <path clip-path="url(#p9f7e1f0336)" d="M 69.012273 240.908568 
L 76.417282 154.374247 
L 83.822291 134.834239 
L 91.227301 119.016137 
L 98.63231 108.780895 
L 106.037319 97.615176 
L 113.442328 93.89327 
L 120.847338 89.240887 
L 128.252347 79.936121 
L 135.657356 78.075168 
L 143.062365 72.492309 
L 150.467375 70.631355 
L 157.872384 67.839926 
L 165.277393 65.978973 
L 172.682403 65.048496 
L 180.087412 65.978973 
L 187.492421 62.257066 
L 194.89743 63.187543 
L 202.30244 65.048496 
L 209.707449 62.257066 
L 217.112458 64.118019 
L 224.517468 66.909449 
L 231.922477 65.048496 
L 239.327486 63.187543 
L 246.732495 63.187543 
L 254.137505 62.257066 
L 261.542514 61.32659 
L 268.947523 62.257066 
L 276.352532 64.118019 
L 283.757542 61.32659 
L 291.162551 62.257066 
L 298.56756 59.465637 
L 305.97257 62.257066 
L 313.377579 61.32659 
L 320.782588 61.32659 
L 328.187597 56.674207 
L 335.592607 61.32659 
L 342.997616 54.813254 
L 350.402625 60.396113 
L 357.807635 60.396113 
L 365.212644 57.604684 
L 372.617653 56.674207 
L 380.022662 53.882777 
L 387.427672 52.021824 
L 394.832681 53.882777 
L 402.23769 52.021824 
L 409.642699 52.021824 
L 417.047709 52.021824 
L 424.452718 54.813254 
L 431.857727 53.882777 
" style="fill:none;stroke:#1f77b4;stroke-linecap:square;stroke-width:1.5;"/>
   </g>
   <g id="line2d_16">
    <path clip-path="url(#p9f7e1f0336)" d="M 69.012273 266.961911 
L 76.417282 158.096153 
L 83.822291 144.139004 
L 91.227301 129.251379 
L 98.63231 112.502801 
L 106.037319 112.502801 
L 113.442328 101.337082 
L 120.847338 96.684699 
L 128.252347 94.823746 
L 135.657356 92.962793 
L 143.062365 82.727551 
L 150.467375 81.797074 
L 157.872384 79.005645 
L 165.277393 78.075168 
L 172.682403 73.422785 
L 180.087412 75.283738 
L 187.492421 72.492309 
L 194.89743 72.492309 
L 202.30244 69.700879 
L 209.707449 67.839926 
L 217.112458 66.909449 
L 224.517468 67.839926 
L 231.922477 66.909449 
L 239.327486 65.978973 
L 246.732495 65.048496 
L 254.137505 65.978973 
L 261.542514 68.770402 
L 268.947523 64.118019 
L 276.352532 66.909449 
L 283.757542 65.048496 
L 291.162551 69.700879 
L 298.56756 67.839926 
L 305.97257 66.909449 
L 313.377579 62.257066 
L 320.782588 64.118019 
L 328.187597 65.048496 
L 335.592607 64.118019 
L 342.997616 62.257066 
L 350.402625 63.187543 
L 357.807635 65.978973 
L 365.212644 63.187543 
L 372.617653 63.187543 
L 380.022662 65.048496 
L 387.427672 63.187543 
L 394.832681 64.118019 
L 402.23769 69.700879 
L 409.642699 65.978973 
L 417.047709 66.909449 
L 424.452718 67.839926 
L 431.857727 66.909449 
" style="fill:none;stroke:#ff7f0e;stroke-linecap:square;stroke-width:1.5;"/>
   </g>
   <g id="line2d_17">
    <path clip-path="url(#p9f7e1f0336)" d="M 69.012273 246.491427 
L 76.417282 164.609489 
L 83.822291 143.208528 
L 91.227301 123.66852 
L 98.63231 117.155184 
L 106.037319 101.337082 
L 113.442328 95.754223 
L 120.847338 87.379934 
L 128.252347 91.10184 
L 135.657356 86.449457 
L 143.062365 82.727551 
L 150.467375 71.561832 
L 157.872384 70.631355 
L 165.277393 69.700879 
L 172.682403 66.909449 
L 180.087412 64.118019 
L 187.492421 67.839926 
L 194.89743 65.048496 
L 202.30244 67.839926 
L 209.707449 67.839926 
L 217.112458 63.187543 
L 224.517468 64.118019 
L 231.922477 65.048496 
L 239.327486 61.32659 
L 246.732495 63.187543 
L 254.137505 62.257066 
L 261.542514 61.32659 
L 268.947523 62.257066 
L 276.352532 62.257066 
L 283.757542 61.32659 
L 291.162551 60.396113 
L 298.56756 61.32659 
L 305.97257 61.32659 
L 313.377579 56.674207 
L 320.782588 60.396113 
L 328.187597 58.53516 
L 335.592607 59.465637 
L 342.997616 60.396113 
L 350.402625 60.396113 
L 357.807635 57.604684 
L 365.212644 58.53516 
L 372.617653 54.813254 
L 380.022662 57.604684 
L 387.427672 54.813254 
L 394.832681 54.813254 
L 402.23769 57.604684 
L 409.642699 57.604684 
L 417.047709 53.882777 
L 424.452718 56.674207 
L 431.857727 55.74373 
" style="fill:none;stroke:#2ca02c;stroke-linecap:square;stroke-width:1.5;"/>
   </g>
   <g id="line2d_18">
    <path clip-path="url(#p9f7e1f0336)" d="M 69.012273 232.149992 
L 76.417282 174.225964 
L 83.822291 153.496807 
L 91.227301 139.897892 
L 98.63231 130.415405 
L 106.037319 122.550087 
L 113.442328 117.77209 
L 120.847338 112.553047 
L 128.252347 109.392218 
L 135.657356 106.598927 
L 143.062365 104.981759 
L 150.467375 103.364591 
L 157.872384 102.188468 
L 165.277393 100.497792 
L 172.682403 99.542193 
L 180.087412 98.586594 
L 187.492421 96.675395 
L 194.89743 95.278749 
L 202.30244 94.029119 
L 209.707449 93.955612 
L 217.112458 94.249642 
L 224.517468 93.000012 
L 231.922477 92.191428 
L 239.327486 92.779489 
L 246.732495 93.000012 
L 254.137505 93.36755 
L 261.542514 92.632474 
L 268.947523 91.82389 
L 276.352532 91.015306 
L 283.757542 90.57426 
L 291.162551 90.059706 
L 298.56756 90.721275 
L 305.97257 89.545153 
L 313.377579 89.398137 
L 320.782588 89.692168 
L 328.187597 89.692168 
L 335.592607 89.765676 
L 342.997616 89.765676 
L 350.402625 89.104107 
L 357.807635 88.957091 
L 365.212644 88.810076 
L 372.617653 88.957091 
L 380.022662 89.32463 
L 387.427672 89.839183 
L 394.832681 88.883584 
L 402.23769 88.075 
L 409.642699 87.927984 
L 417.047709 87.633954 
L 424.452718 87.413431 
L 431.857727 87.707461 
" style="fill:none;stroke:#d62728;stroke-linecap:square;stroke-width:1.5;"/>
   </g>
   <g id="patch_3">
    <path d="M 50.87 303.64 
L 50.87 32.876829 
" style="fill:none;stroke:#000000;stroke-linecap:square;stroke-linejoin:miter;stroke-width:0.8;"/>
   </g>
   <g id="patch_4">
    <path d="M 450 303.64 
L 450 32.876829 
" style="fill:none;stroke:#000000;stroke-linecap:square;stroke-linejoin:miter;stroke-width:0.8;"/>
   </g>
   <g id="patch_5">
    <path d="M 50.87 303.64 
L 450 303.64 
" style="fill:none;stroke:#000000;stroke-linecap:square;stroke-linejoin:miter;stroke-width:0.8;"/>
   </g>
   <g id="patch_6">
    <path d="M 50.87 32.876829 
L 450 32.876829 
" style="fill:none;stroke:#000000;stroke-linecap:square;stroke-linejoin:miter;stroke-width:0.8;"/>
   </g>
   <g id="legend_1">
    <g id="patch_7">
     <path d="M 84.036563 28.478637 
L 416.833438 28.478637 
Q 418.833438 28.478637 418.833438 26.478637 
L 418.833438 12.800512 
Q 418.833438 10.800512 416.833438 10.800512 
L 84.036563 10.800512 
Q 82.036563 10.800512 82.036563 12.800512 
L 82.036563 26.478637 
Q 82.036563 28.478637 84.036563 28.478637 
z
" style="fill:#ffffff;opacity:0.8;stroke:#cccccc;stroke-linejoin:miter;"/>
    </g>
    <g id="line2d_19">
     <path d="M 86.036563 18.898949 
L 106.036563 18.898949 
" style="fill:none;stroke:#1f77b4;stroke-linecap:square;stroke-width:1.5;"/>
    </g>
    <g id="line2d_20"/>
    <g id="text_17">
     <!-- FedAvg -->
     <g transform="translate(114.036563 22.398949)scale(0.1 -0.1)">
      <defs>
       <path d="M 628 4666 
L 3309 4666 
L 3309 4134 
L 1259 4134 
L 1259 2759 
L 3109 2759 
L 3109 2228 
L 1259 2228 
L 1259 0 
L 628 0 
L 628 4666 
z
" id="DejaVuSans-46" transform="scale(0.015625)"/>
       <path d="M 191 3500 
L 800 3500 
L 1894 563 
L 2988 3500 
L 3597 3500 
L 2284 0 
L 1503 0 
L 191 3500 
z
" id="DejaVuSans-76" transform="scale(0.015625)"/>
       <path d="M 2906 1791 
Q 2906 2416 2648 2759 
Q 2391 3103 1925 3103 
Q 1463 3103 1205 2759 
Q 947 2416 947 1791 
Q 947 1169 1205 825 
Q 1463 481 1925 481 
Q 2391 481 2648 825 
Q 2906 1169 2906 1791 
z
M 3481 434 
Q 3481 -459 3084 -895 
Q 2688 -1331 1869 -1331 
Q 1566 -1331 1297 -1286 
Q 1028 -1241 775 -1147 
L 775 -588 
Q 1028 -725 1275 -790 
Q 1522 -856 1778 -856 
Q 2344 -856 2625 -561 
Q 2906 -266 2906 331 
L 2906 616 
Q 2728 306 2450 153 
Q 2172 0 1784 0 
Q 1141 0 747 490 
Q 353 981 353 1791 
Q 353 2603 747 3093 
Q 1141 3584 1784 3584 
Q 2172 3584 2450 3431 
Q 2728 3278 2906 2969 
L 2906 3500 
L 3481 3500 
L 3481 434 
z
" id="DejaVuSans-67" transform="scale(0.015625)"/>
      </defs>
      <use xlink:href="#DejaVuSans-46"/>
      <use x="52.019531" xlink:href="#DejaVuSans-65"/>
      <use x="113.542969" xlink:href="#DejaVuSans-64"/>
      <use x="177.019531" xlink:href="#DejaVuSans-41"/>
      <use x="239.552734" xlink:href="#DejaVuSans-76"/>
      <use x="298.732422" xlink:href="#DejaVuSans-67"/>
     </g>
    </g>
    <g id="line2d_21">
     <path d="M 170.26 18.898949 
L 190.26 18.898949 
" style="fill:none;stroke:#ff7f0e;stroke-linecap:square;stroke-width:1.5;"/>
    </g>
    <g id="line2d_22"/>
    <g id="text_18">
     <!-- FedMed -->
     <g transform="translate(198.26 22.398949)scale(0.1 -0.1)">
      <defs>
       <path d="M 628 4666 
L 1569 4666 
L 2759 1491 
L 3956 4666 
L 4897 4666 
L 4897 0 
L 4281 0 
L 4281 4097 
L 3078 897 
L 2444 897 
L 1241 4097 
L 1241 0 
L 628 0 
L 628 4666 
z
" id="DejaVuSans-4d" transform="scale(0.015625)"/>
      </defs>
      <use xlink:href="#DejaVuSans-46"/>
      <use x="52.019531" xlink:href="#DejaVuSans-65"/>
      <use x="113.542969" xlink:href="#DejaVuSans-64"/>
      <use x="177.019531" xlink:href="#DejaVuSans-4d"/>
      <use x="263.298828" xlink:href="#DejaVuSans-65"/>
      <use x="324.822266" xlink:href="#DejaVuSans-64"/>
     </g>
    </g>
    <g id="line2d_23">
     <path d="M 257.092813 18.898949 
L 277.092813 18.898949 
" style="fill:none;stroke:#2ca02c;stroke-linecap:square;stroke-width:1.5;"/>
    </g>
    <g id="line2d_24"/>
    <g id="text_19">
     <!-- FedProx -->
     <g transform="translate(285.092813 22.398949)scale(0.1 -0.1)">
      <defs>
       <path d="M 1259 4147 
L 1259 2394 
L 2053 2394 
Q 2494 2394 2734 2622 
Q 2975 2850 2975 3272 
Q 2975 3691 2734 3919 
Q 2494 4147 2053 4147 
L 1259 4147 
z
M 628 4666 
L 2053 4666 
Q 2838 4666 3239 4311 
Q 3641 3956 3641 3272 
Q 3641 2581 3239 2228 
Q 2838 1875 2053 1875 
L 1259 1875 
L 1259 0 
L 628 0 
L 628 4666 
z
" id="DejaVuSans-50" transform="scale(0.015625)"/>
       <path d="M 3513 3500 
L 2247 1797 
L 3578 0 
L 2900 0 
L 1881 1375 
L 863 0 
L 184 0 
L 1544 1831 
L 300 3500 
L 978 3500 
L 1906 2253 
L 2834 3500 
L 3513 3500 
z
" id="DejaVuSans-78" transform="scale(0.015625)"/>
      </defs>
      <use xlink:href="#DejaVuSans-46"/>
      <use x="52.019531" xlink:href="#DejaVuSans-65"/>
      <use x="113.542969" xlink:href="#DejaVuSans-64"/>
      <use x="177.019531" xlink:href="#DejaVuSans-50"/>
      <use x="235.572266" xlink:href="#DejaVuSans-72"/>
      <use x="274.435547" xlink:href="#DejaVuSans-6f"/>
      <use x="332.492188" xlink:href="#DejaVuSans-78"/>
     </g>
    </g>
    <g id="line2d_25">
     <path d="M 344.261563 18.898949 
L 364.261563 18.898949 
" style="fill:none;stroke:#d62728;stroke-linecap:square;stroke-width:1.5;"/>
    </g>
    <g id="line2d_26"/>
    <g id="text_20">
     <!-- qFedAvg -->
     <g transform="translate(372.261563 22.398949)scale(0.1 -0.1)">
      <defs>
       <path d="M 947 1747 
Q 947 1113 1208 752 
Q 1469 391 1925 391 
Q 2381 391 2643 752 
Q 2906 1113 2906 1747 
Q 2906 2381 2643 2742 
Q 2381 3103 1925 3103 
Q 1469 3103 1208 2742 
Q 947 2381 947 1747 
z
M 2906 525 
Q 2725 213 2448 61 
Q 2172 -91 1784 -91 
Q 1150 -91 751 415 
Q 353 922 353 1747 
Q 353 2572 751 3078 
Q 1150 3584 1784 3584 
Q 2172 3584 2448 3432 
Q 2725 3281 2906 2969 
L 2906 3500 
L 3481 3500 
L 3481 -1331 
L 2906 -1331 
L 2906 525 
z
" id="DejaVuSans-71" transform="scale(0.015625)"/>
      </defs>
      <use xlink:href="#DejaVuSans-71"/>
      <use x="63.476562" xlink:href="#DejaVuSans-46"/>
      <use x="115.496094" xlink:href="#DejaVuSans-65"/>
      <use x="177.019531" xlink:href="#DejaVuSans-64"/>
      <use x="240.496094" xlink:href="#DejaVuSans-41"/>
      <use x="303.029297" xlink:href="#DejaVuSans-76"/>
      <use x="362.208984" xlink:href="#DejaVuSans-67"/>
     </g>
    </g>
   </g>
  </g>
 </g>
 <defs>
  <clipPath id="p9f7e1f0336">
   <rect height="270.763171" width="399.13" x="50.87" y="32.876829"/>
  </clipPath>
 </defs>
</svg>
