<?xml version="1.0" encoding="utf-8" standalone="no"?>
<!DOCTYPE svg PUBLIC "-//W3C//DTD SVG 1.1//EN"
  "http://www.w3.org/Graphics/SVG/1.1/DTD/svg11.dtd">
<svg height="432pt" version="1.1" viewBox="0 0 576 432" width="576pt" xmlns="http://www.w3.org/2000/svg" xmlns:xlink="http://www.w3.org/1999/xlink">
 <metadata>
  <rdf:RDF xmlns:cc="http://creativecommons.org/ns#" xmlns:dc="http://purl.org/dc/elements/1.1/" xmlns:rdf="http://www.w3.org/1999/02/22-rdf-syntax-ns#">
   <cc:Work>
    <dc:type rdf:resource="http://purl.org/dc/dcmitype/StillImage"/>
    <dc:date>2021-05-07T22:04:22.112916</dc:date>
    <dc:format>image/svg+xml</dc:format>
    <dc:creator>
     <cc:Agent>
      <dc:title>Matplotlib v3.4.1, https://matplotlib.org/</dc:title>
     </cc:Agent>
    </dc:creator>
   </cc:Work>
  </rdf:RDF>
 </metadata>
 <defs>
  <style type="text/css">*{stroke-linecap:butt;stroke-linejoin:round;}</style>
 </defs>
 <g id="figure_1">
  <g id="patch_1">
   <path d="M 0 432 
L 576 432 
L 576 0 
L 0 0 
z
" style="fill:#ffffff;"/>
  </g>
  <g id="axes_1">
   <g id="patch_2">
    <path d="M 70.22 376 
L 556.46 376 
L 556.46 56.601989 
L 70.22 56.601989 
z
" style="fill:#ffffff;"/>
   </g>
   <g id="PolyCollection_1">
    <path clip-path="url(#p98cced37db)" d="M 92.321818 238.981046 
L 92.321818 278.528647 
L 101.342968 207.171369 
L 110.364119 196.932931 
L 119.385269 156.87051 
L 128.406419 149.567532 
L 137.42757 138.412128 
L 146.44872 132.040406 
L 155.46987 119.113227 
L 164.49102 114.703163 
L 173.512171 108.794609 
L 182.533321 102.886056 
L 191.554471 100.405623 
L 200.575622 97.052256 
L 209.596772 97.052256 
L 218.617922 95.795793 
L 227.639072 93.010073 
L 236.660223 92.691576 
L 245.681373 93.010073 
L 254.702523 96.977503 
L 263.723673 99.024146 
L 272.744824 98.966689 
L 281.765974 94.497069 
L 290.787124 92.664815 
L 299.808275 95.795793 
L 308.829425 95.795793 
L 317.850575 93.879301 
L 326.871725 93.115593 
L 335.892876 93.010073 
L 344.914026 93.115593 
L 353.935176 93.010073 
L 362.956327 98.042201 
L 371.977477 92.133648 
L 380.998627 87.937973 
L 390.019777 89.887239 
L 399.040928 89.570461 
L 408.062078 87.20704 
L 417.083228 87.149583 
L 426.104378 89.570461 
L 435.125529 87.20704 
L 444.146679 87.970748 
L 453.167829 87.970748 
L 462.18898 86.105718 
L 471.21013 88.469139 
L 480.23128 92.704786 
L 489.25243 93.115593 
L 498.273581 85.23515 
L 507.294731 89.770227 
L 516.315881 83.861674 
L 525.337032 91.876425 
L 534.358182 86.783023 
L 534.358182 76.213482 
L 534.358182 76.213482 
L 525.337032 75.846922 
L 516.315881 74.407989 
L 507.294731 80.316542 
L 498.273581 77.761355 
L 489.25243 79.334597 
L 480.23128 75.018561 
L 471.21013 76.890787 
L 462.18898 74.527366 
L 453.167829 75.025757 
L 444.146679 75.025757 
L 435.125529 73.426044 
L 426.104378 75.789465 
L 417.083228 71.12008 
L 408.062078 73.426044 
L 399.040928 75.789465 
L 390.019777 77.836108 
L 380.998627 82.148796 
L 371.977477 77.953121 
L 362.956327 79.134831 
L 353.935176 84.16696 
L 344.914026 79.334597 
L 335.892876 84.16696 
L 326.871725 79.334597 
L 317.850575 80.93431 
L 308.829425 83.744661 
L 299.808275 83.744661 
L 290.787124 86.875639 
L 281.765974 85.043384 
L 272.744824 82.937186 
L 263.723673 85.24315 
L 254.702523 84.926372 
L 245.681373 84.16696 
L 236.660223 82.122035 
L 227.639072 84.16696 
L 218.617922 83.744661 
L 209.596772 89.578462 
L 200.575622 89.578462 
L 191.554471 95.67878 
L 182.533321 90.834925 
L 173.512171 96.743478 
L 164.49102 102.652031 
L 155.46987 105.332231 
L 146.44872 106.58558 
L 137.42757 130.938334 
L 128.406419 129.236614 
L 119.385269 140.841007 
L 110.364119 159.864117 
L 101.342968 189.80384 
L 92.321818 238.981046 
z
" style="fill:#1f77b4;fill-opacity:0.5;"/>
   </g>
   <g id="PolyCollection_2">
    <path clip-path="url(#p98cced37db)" d="M 92.321818 276.554508 
L 92.321818 314.221244 
L 101.342968 212.99147 
L 110.364119 196.473533 
L 119.385269 176.035103 
L 128.406419 165.03971 
L 137.42757 153.222604 
L 146.44872 144.478265 
L 155.46987 134.418008 
L 164.49102 128.296741 
L 173.512171 129.514995 
L 182.533321 119.430005 
L 191.554471 116.644285 
L 200.575622 116.479635 
L 209.596772 106.194799 
L 218.617922 113.204674 
L 227.639072 106.697706 
L 236.660223 106.697706 
L 245.681373 112.546067 
L 254.702523 100.405623 
L 263.723673 96.555205 
L 272.744824 100.817412 
L 281.765974 100.5522 
L 290.787124 101.704346 
L 299.808275 104.875242 
L 308.829425 102.886056 
L 317.850575 104.508683 
L 326.871725 98.573368 
L 335.892876 103.8849 
L 344.914026 97.052256 
L 353.935176 103.950755 
L 362.956327 100.286246 
L 371.977477 100.789153 
L 380.998627 101.704346 
L 390.019777 99.787855 
L 399.040928 104.932699 
L 408.062078 96.555205 
L 417.083228 99.024146 
L 426.104378 103.8849 
L 435.125529 97.052256 
L 444.146679 100.405623 
L 453.167829 97.052256 
L 462.18898 90.951938 
L 471.21013 95.67878 
L 480.23128 93.115593 
L 489.25243 93.846526 
L 498.273581 98.918626 
L 507.294731 96.555205 
L 516.315881 97.052256 
L 525.337032 94.497069 
L 534.358182 96.555205 
L 534.358182 87.712092 
L 534.358182 87.712092 
L 525.337032 85.043384 
L 516.315881 89.578462 
L 507.294731 87.712092 
L 498.273581 90.075513 
L 489.25243 88.05735 
L 480.23128 79.334597 
L 471.21013 86.225095 
L 462.18898 86.225095 
L 453.167829 89.578462 
L 444.146679 90.951938 
L 435.125529 89.578462 
L 426.104378 82.745818 
L 417.083228 85.24315 
L 408.062078 87.712092 
L 399.040928 91.151704 
L 390.019777 86.842863 
L 380.998627 89.653215 
L 371.977477 85.841565 
L 362.956327 88.707893 
L 353.935176 85.043384 
L 344.914026 89.578462 
L 335.892876 82.745818 
L 326.871725 92.784192 
L 317.850575 93.939141 
L 308.829425 90.834925 
L 299.808275 88.845739 
L 290.787124 89.653215 
L 281.765974 81.351675 
L 272.744824 83.449884 
L 263.723673 87.712092 
L 254.702523 95.67878 
L 245.681373 90.6286 
L 236.660223 91.750118 
L 227.639072 91.750118 
L 218.617922 99.423678 
L 209.596772 94.616447 
L 200.575622 96.148717 
L 191.554471 107.801173 
L 182.533321 107.378874 
L 173.512171 113.837832 
L 164.49102 107.965823 
L 155.46987 118.388505 
L 146.44872 120.145354 
L 137.42757 130.308385 
L 128.406419 142.125491 
L 119.385269 152.40089 
L 110.364119 172.140622 
L 101.342968 191.074003 
L 92.321818 276.554508 
z
" style="fill:#ff7f0e;fill-opacity:0.5;"/>
   </g>
   <g id="PolyCollection_3">
    <path clip-path="url(#p98cced37db)" d="M 92.321818 262.576792 
L 92.321818 332.925803 
L 101.342968 218.075447 
L 110.364119 195.885429 
L 119.385269 177.097436 
L 128.406419 153.463224 
L 137.42757 137.038652 
L 146.44872 130.796618 
L 155.46987 124.423366 
L 164.49102 124.888065 
L 173.512171 113.727777 
L 182.533321 104.508683 
L 191.554471 112.546067 
L 200.575622 109.602085 
L 209.596772 110.430446 
L 218.617922 108.377403 
L 227.639072 99.755079 
L 236.660223 98.573368 
L 245.681373 101.587333 
L 254.702523 98.918626 
L 263.723673 99.024146 
L 272.744824 100.286246 
L 281.765974 101.387567 
L 290.787124 88.588516 
L 299.808275 92.691576 
L 308.829425 91.143703 
L 317.850575 94.497069 
L 326.871725 90.646651 
L 335.892876 88.588516 
L 344.914026 88.588516 
L 353.935176 91.143703 
L 362.956327 93.010073 
L 371.977477 87.937973 
L 380.998627 93.115593 
L 390.019777 90.646651 
L 399.040928 92.014271 
L 408.062078 88.588516 
L 417.083228 88.588516 
L 426.104378 90.646651 
L 435.125529 94.497069 
L 444.146679 92.691576 
L 453.167829 88.588516 
L 462.18898 90.646651 
L 471.21013 95.479014 
L 480.23128 92.691576 
L 489.25243 88.588516 
L 498.273581 91.143703 
L 507.294731 91.143703 
L 516.315881 93.010073 
L 525.337032 93.115593 
L 534.358182 87.937973 
L 534.358182 82.148796 
L 534.358182 82.148796 
L 525.337032 79.334597 
L 516.315881 84.16696 
L 507.294731 83.669909 
L 498.273581 83.669909 
L 489.25243 83.861674 
L 480.23128 82.122035 
L 471.21013 81.698019 
L 462.18898 81.803539 
L 453.167829 79.134831 
L 444.146679 82.122035 
L 435.125529 85.043384 
L 426.104378 81.803539 
L 417.083228 83.861674 
L 408.062078 83.861674 
L 399.040928 80.435919 
L 390.019777 81.803539 
L 380.998627 79.334597 
L 371.977477 82.148796 
L 362.956327 84.16696 
L 353.935176 83.669909 
L 344.914026 83.861674 
L 335.892876 83.861674 
L 326.871725 81.803539 
L 317.850575 85.043384 
L 308.829425 83.669909 
L 299.808275 82.122035 
L 290.787124 83.861674 
L 281.765974 87.606572 
L 272.744824 88.707893 
L 263.723673 85.24315 
L 254.702523 90.075513 
L 245.681373 92.133648 
L 236.660223 92.784192 
L 227.639072 93.965903 
L 218.617922 90.070421 
L 209.596772 92.744221 
L 200.575622 93.572582 
L 191.554471 90.6286 
L 182.533321 93.939141 
L 173.512171 91.81031 
L 164.49102 104.284236 
L 155.46987 109.475777 
L 146.44872 110.192789 
L 137.42757 118.131282 
L 128.406419 141.884872 
L 119.385269 165.519084 
L 110.364119 172.728725 
L 101.342968 190.716868 
L 92.321818 262.576792 
z
" style="fill:#2ca02c;fill-opacity:0.5;"/>
   </g>
   <g id="PolyCollection_4">
    <path clip-path="url(#p98cced37db)" d="M 92.321818 311.016224 
L 92.321818 361.481909 
L 101.342968 250.951066 
L 110.364119 223.831506 
L 119.385269 204.989821 
L 128.406419 193.071306 
L 137.42757 183.589215 
L 146.44872 174.782062 
L 155.46987 169.624409 
L 164.49102 164.659339 
L 173.512171 161.89097 
L 182.533321 159.064836 
L 191.554471 156.455704 
L 200.575622 152.256681 
L 209.596772 150.414471 
L 218.617922 147.773517 
L 227.639072 146.493471 
L 236.660223 144.484859 
L 245.681373 143.934884 
L 254.702523 140.996535 
L 263.723673 139.41397 
L 272.744824 139.542001 
L 281.765974 137.213786 
L 290.787124 136.054388 
L 299.808275 136.473022 
L 308.829425 135.779145 
L 317.850575 134.641822 
L 326.871725 134.921048 
L 335.892876 133.927781 
L 344.914026 133.886658 
L 353.935176 133.925094 
L 362.956327 133.016957 
L 371.977477 133.46167 
L 380.998627 133.164821 
L 390.019777 131.577714 
L 399.040928 131.629684 
L 408.062078 130.697588 
L 417.083228 129.259461 
L 426.104378 129.93154 
L 435.125529 131.466676 
L 444.146679 130.583908 
L 453.167829 130.507292 
L 462.18898 128.265282 
L 471.21013 129.220614 
L 480.23128 129.588724 
L 489.25243 129.417678 
L 498.273581 128.026826 
L 507.294731 128.339385 
L 516.315881 129.381366 
L 525.337032 127.067054 
L 534.358182 127.600329 
L 534.358182 115.650871 
L 534.358182 115.650871 
L 525.337032 117.304409 
L 516.315881 117.41733 
L 507.294731 117.152339 
L 498.273581 117.464898 
L 489.25243 117.381018 
L 480.23128 118.330234 
L 471.21013 117.391372 
L 462.18898 116.853022 
L 453.167829 117.038245 
L 444.146679 116.774919 
L 435.125529 117.945964 
L 426.104378 116.867156 
L 417.083228 119.032918 
L 408.062078 119.088472 
L 399.040928 118.903218 
L 390.019777 119.328609 
L 380.998627 119.235183 
L 371.977477 119.125044 
L 362.956327 120.129889 
L 353.935176 122.022405 
L 344.914026 122.247552 
L 335.892876 122.57985 
L 326.871725 123.266975 
L 317.850575 124.106332 
L 308.829425 125.769663 
L 299.808275 125.449207 
L 290.787124 126.801392 
L 281.765974 129.002779 
L 272.744824 130.59548 
L 263.723673 131.657062 
L 254.702523 132.501731 
L 245.681373 137.218503 
L 236.660223 136.295107 
L 227.639072 138.580832 
L 218.617922 139.541309 
L 209.596772 139.32759 
L 200.575622 144.020239 
L 191.554471 146.356076 
L 182.533321 147.66786 
L 173.512171 151.750006 
L 164.49102 155.889917 
L 155.46987 160.447072 
L 146.44872 167.052166 
L 137.42757 172.808414 
L 128.406419 180.130249 
L 119.385269 191.363808 
L 110.364119 206.876815 
L 101.342968 228.675348 
L 92.321818 311.016224 
z
" style="fill:#d62728;fill-opacity:0.5;"/>
   </g>
   <g id="matplotlib.axis_1">
    <g id="xtick_1">
     <g id="line2d_1">
      <defs>
       <path d="M 0 0 
L 0 3.5 
" id="mbfd50b7776" style="stroke:#000000;stroke-width:0.8;"/>
      </defs>
      <g>
       <use style="stroke:#000000;stroke-width:0.8;" x="92.321818" xlink:href="#mbfd50b7776" y="376"/>
      </g>
     </g>
     <g id="text_1">
      <!-- 0 -->
      <g transform="translate(87.549943 394.397656)scale(0.15 -0.15)">
       <defs>
        <path d="M 2034 4250 
Q 1547 4250 1301 3770 
Q 1056 3291 1056 2328 
Q 1056 1369 1301 889 
Q 1547 409 2034 409 
Q 2525 409 2770 889 
Q 3016 1369 3016 2328 
Q 3016 3291 2770 3770 
Q 2525 4250 2034 4250 
z
M 2034 4750 
Q 2819 4750 3233 4129 
Q 3647 3509 3647 2328 
Q 3647 1150 3233 529 
Q 2819 -91 2034 -91 
Q 1250 -91 836 529 
Q 422 1150 422 2328 
Q 422 3509 836 4129 
Q 1250 4750 2034 4750 
z
" id="DejaVuSans-30" transform="scale(0.015625)"/>
       </defs>
       <use xlink:href="#DejaVuSans-30"/>
      </g>
     </g>
    </g>
    <g id="xtick_2">
     <g id="line2d_2">
      <g>
       <use style="stroke:#000000;stroke-width:0.8;" x="182.533321" xlink:href="#mbfd50b7776" y="376"/>
      </g>
     </g>
     <g id="text_2">
      <!-- 10 -->
      <g transform="translate(172.989571 394.397656)scale(0.15 -0.15)">
       <defs>
        <path d="M 794 531 
L 1825 531 
L 1825 4091 
L 703 3866 
L 703 4441 
L 1819 4666 
L 2450 4666 
L 2450 531 
L 3481 531 
L 3481 0 
L 794 0 
L 794 531 
z
" id="DejaVuSans-31" transform="scale(0.015625)"/>
       </defs>
       <use xlink:href="#DejaVuSans-31"/>
       <use x="63.623047" xlink:href="#DejaVuSans-30"/>
      </g>
     </g>
    </g>
    <g id="xtick_3">
     <g id="line2d_3">
      <g>
       <use style="stroke:#000000;stroke-width:0.8;" x="272.744824" xlink:href="#mbfd50b7776" y="376"/>
      </g>
     </g>
     <g id="text_3">
      <!-- 20 -->
      <g transform="translate(263.201074 394.397656)scale(0.15 -0.15)">
       <defs>
        <path d="M 1228 531 
L 3431 531 
L 3431 0 
L 469 0 
L 469 531 
Q 828 903 1448 1529 
Q 2069 2156 2228 2338 
Q 2531 2678 2651 2914 
Q 2772 3150 2772 3378 
Q 2772 3750 2511 3984 
Q 2250 4219 1831 4219 
Q 1534 4219 1204 4116 
Q 875 4013 500 3803 
L 500 4441 
Q 881 4594 1212 4672 
Q 1544 4750 1819 4750 
Q 2544 4750 2975 4387 
Q 3406 4025 3406 3419 
Q 3406 3131 3298 2873 
Q 3191 2616 2906 2266 
Q 2828 2175 2409 1742 
Q 1991 1309 1228 531 
z
" id="DejaVuSans-32" transform="scale(0.015625)"/>
       </defs>
       <use xlink:href="#DejaVuSans-32"/>
       <use x="63.623047" xlink:href="#DejaVuSans-30"/>
      </g>
     </g>
    </g>
    <g id="xtick_4">
     <g id="line2d_4">
      <g>
       <use style="stroke:#000000;stroke-width:0.8;" x="362.956327" xlink:href="#mbfd50b7776" y="376"/>
      </g>
     </g>
     <g id="text_4">
      <!-- 30 -->
      <g transform="translate(353.412577 394.397656)scale(0.15 -0.15)">
       <defs>
        <path d="M 2597 2516 
Q 3050 2419 3304 2112 
Q 3559 1806 3559 1356 
Q 3559 666 3084 287 
Q 2609 -91 1734 -91 
Q 1441 -91 1130 -33 
Q 819 25 488 141 
L 488 750 
Q 750 597 1062 519 
Q 1375 441 1716 441 
Q 2309 441 2620 675 
Q 2931 909 2931 1356 
Q 2931 1769 2642 2001 
Q 2353 2234 1838 2234 
L 1294 2234 
L 1294 2753 
L 1863 2753 
Q 2328 2753 2575 2939 
Q 2822 3125 2822 3475 
Q 2822 3834 2567 4026 
Q 2313 4219 1838 4219 
Q 1578 4219 1281 4162 
Q 984 4106 628 3988 
L 628 4550 
Q 988 4650 1302 4700 
Q 1616 4750 1894 4750 
Q 2613 4750 3031 4423 
Q 3450 4097 3450 3541 
Q 3450 3153 3228 2886 
Q 3006 2619 2597 2516 
z
" id="DejaVuSans-33" transform="scale(0.015625)"/>
       </defs>
       <use xlink:href="#DejaVuSans-33"/>
       <use x="63.623047" xlink:href="#DejaVuSans-30"/>
      </g>
     </g>
    </g>
    <g id="xtick_5">
     <g id="line2d_5">
      <g>
       <use style="stroke:#000000;stroke-width:0.8;" x="453.167829" xlink:href="#mbfd50b7776" y="376"/>
      </g>
     </g>
     <g id="text_5">
      <!-- 40 -->
      <g transform="translate(443.624079 394.397656)scale(0.15 -0.15)">
       <defs>
        <path d="M 2419 4116 
L 825 1625 
L 2419 1625 
L 2419 4116 
z
M 2253 4666 
L 3047 4666 
L 3047 1625 
L 3713 1625 
L 3713 1100 
L 3047 1100 
L 3047 0 
L 2419 0 
L 2419 1100 
L 313 1100 
L 313 1709 
L 2253 4666 
z
" id="DejaVuSans-34" transform="scale(0.015625)"/>
       </defs>
       <use xlink:href="#DejaVuSans-34"/>
       <use x="63.623047" xlink:href="#DejaVuSans-30"/>
      </g>
     </g>
    </g>
    <g id="xtick_6">
     <g id="line2d_6">
      <g>
       <use style="stroke:#000000;stroke-width:0.8;" x="543.379332" xlink:href="#mbfd50b7776" y="376"/>
      </g>
     </g>
     <g id="text_6">
      <!-- 50 -->
      <g transform="translate(533.835582 394.397656)scale(0.15 -0.15)">
       <defs>
        <path d="M 691 4666 
L 3169 4666 
L 3169 4134 
L 1269 4134 
L 1269 2991 
Q 1406 3038 1543 3061 
Q 1681 3084 1819 3084 
Q 2600 3084 3056 2656 
Q 3513 2228 3513 1497 
Q 3513 744 3044 326 
Q 2575 -91 1722 -91 
Q 1428 -91 1123 -41 
Q 819 9 494 109 
L 494 744 
Q 775 591 1075 516 
Q 1375 441 1709 441 
Q 2250 441 2565 725 
Q 2881 1009 2881 1497 
Q 2881 1984 2565 2268 
Q 2250 2553 1709 2553 
Q 1456 2553 1204 2497 
Q 953 2441 691 2322 
L 691 4666 
z
" id="DejaVuSans-35" transform="scale(0.015625)"/>
       </defs>
       <use xlink:href="#DejaVuSans-35"/>
       <use x="63.623047" xlink:href="#DejaVuSans-30"/>
      </g>
     </g>
    </g>
    <g id="text_7">
     <!-- Global Communication Rounds -->
     <g transform="translate(197.897422 412.914844)scale(0.15 -0.15)">
      <defs>
       <path d="M 3809 666 
L 3809 1919 
L 2778 1919 
L 2778 2438 
L 4434 2438 
L 4434 434 
Q 4069 175 3628 42 
Q 3188 -91 2688 -91 
Q 1594 -91 976 548 
Q 359 1188 359 2328 
Q 359 3472 976 4111 
Q 1594 4750 2688 4750 
Q 3144 4750 3555 4637 
Q 3966 4525 4313 4306 
L 4313 3634 
Q 3963 3931 3569 4081 
Q 3175 4231 2741 4231 
Q 1884 4231 1454 3753 
Q 1025 3275 1025 2328 
Q 1025 1384 1454 906 
Q 1884 428 2741 428 
Q 3075 428 3337 486 
Q 3600 544 3809 666 
z
" id="DejaVuSans-47" transform="scale(0.015625)"/>
       <path d="M 603 4863 
L 1178 4863 
L 1178 0 
L 603 0 
L 603 4863 
z
" id="DejaVuSans-6c" transform="scale(0.015625)"/>
       <path d="M 1959 3097 
Q 1497 3097 1228 2736 
Q 959 2375 959 1747 
Q 959 1119 1226 758 
Q 1494 397 1959 397 
Q 2419 397 2687 759 
Q 2956 1122 2956 1747 
Q 2956 2369 2687 2733 
Q 2419 3097 1959 3097 
z
M 1959 3584 
Q 2709 3584 3137 3096 
Q 3566 2609 3566 1747 
Q 3566 888 3137 398 
Q 2709 -91 1959 -91 
Q 1206 -91 779 398 
Q 353 888 353 1747 
Q 353 2609 779 3096 
Q 1206 3584 1959 3584 
z
" id="DejaVuSans-6f" transform="scale(0.015625)"/>
       <path d="M 3116 1747 
Q 3116 2381 2855 2742 
Q 2594 3103 2138 3103 
Q 1681 3103 1420 2742 
Q 1159 2381 1159 1747 
Q 1159 1113 1420 752 
Q 1681 391 2138 391 
Q 2594 391 2855 752 
Q 3116 1113 3116 1747 
z
M 1159 2969 
Q 1341 3281 1617 3432 
Q 1894 3584 2278 3584 
Q 2916 3584 3314 3078 
Q 3713 2572 3713 1747 
Q 3713 922 3314 415 
Q 2916 -91 2278 -91 
Q 1894 -91 1617 61 
Q 1341 213 1159 525 
L 1159 0 
L 581 0 
L 581 4863 
L 1159 4863 
L 1159 2969 
z
" id="DejaVuSans-62" transform="scale(0.015625)"/>
       <path d="M 2194 1759 
Q 1497 1759 1228 1600 
Q 959 1441 959 1056 
Q 959 750 1161 570 
Q 1363 391 1709 391 
Q 2188 391 2477 730 
Q 2766 1069 2766 1631 
L 2766 1759 
L 2194 1759 
z
M 3341 1997 
L 3341 0 
L 2766 0 
L 2766 531 
Q 2569 213 2275 61 
Q 1981 -91 1556 -91 
Q 1019 -91 701 211 
Q 384 513 384 1019 
Q 384 1609 779 1909 
Q 1175 2209 1959 2209 
L 2766 2209 
L 2766 2266 
Q 2766 2663 2505 2880 
Q 2244 3097 1772 3097 
Q 1472 3097 1187 3025 
Q 903 2953 641 2809 
L 641 3341 
Q 956 3463 1253 3523 
Q 1550 3584 1831 3584 
Q 2591 3584 2966 3190 
Q 3341 2797 3341 1997 
z
" id="DejaVuSans-61" transform="scale(0.015625)"/>
       <path id="DejaVuSans-20" transform="scale(0.015625)"/>
       <path d="M 4122 4306 
L 4122 3641 
Q 3803 3938 3442 4084 
Q 3081 4231 2675 4231 
Q 1875 4231 1450 3742 
Q 1025 3253 1025 2328 
Q 1025 1406 1450 917 
Q 1875 428 2675 428 
Q 3081 428 3442 575 
Q 3803 722 4122 1019 
L 4122 359 
Q 3791 134 3420 21 
Q 3050 -91 2638 -91 
Q 1578 -91 968 557 
Q 359 1206 359 2328 
Q 359 3453 968 4101 
Q 1578 4750 2638 4750 
Q 3056 4750 3426 4639 
Q 3797 4528 4122 4306 
z
" id="DejaVuSans-43" transform="scale(0.015625)"/>
       <path d="M 3328 2828 
Q 3544 3216 3844 3400 
Q 4144 3584 4550 3584 
Q 5097 3584 5394 3201 
Q 5691 2819 5691 2113 
L 5691 0 
L 5113 0 
L 5113 2094 
Q 5113 2597 4934 2840 
Q 4756 3084 4391 3084 
Q 3944 3084 3684 2787 
Q 3425 2491 3425 1978 
L 3425 0 
L 2847 0 
L 2847 2094 
Q 2847 2600 2669 2842 
Q 2491 3084 2119 3084 
Q 1678 3084 1418 2786 
Q 1159 2488 1159 1978 
L 1159 0 
L 581 0 
L 581 3500 
L 1159 3500 
L 1159 2956 
Q 1356 3278 1631 3431 
Q 1906 3584 2284 3584 
Q 2666 3584 2933 3390 
Q 3200 3197 3328 2828 
z
" id="DejaVuSans-6d" transform="scale(0.015625)"/>
       <path d="M 544 1381 
L 544 3500 
L 1119 3500 
L 1119 1403 
Q 1119 906 1312 657 
Q 1506 409 1894 409 
Q 2359 409 2629 706 
Q 2900 1003 2900 1516 
L 2900 3500 
L 3475 3500 
L 3475 0 
L 2900 0 
L 2900 538 
Q 2691 219 2414 64 
Q 2138 -91 1772 -91 
Q 1169 -91 856 284 
Q 544 659 544 1381 
z
M 1991 3584 
L 1991 3584 
z
" id="DejaVuSans-75" transform="scale(0.015625)"/>
       <path d="M 3513 2113 
L 3513 0 
L 2938 0 
L 2938 2094 
Q 2938 2591 2744 2837 
Q 2550 3084 2163 3084 
Q 1697 3084 1428 2787 
Q 1159 2491 1159 1978 
L 1159 0 
L 581 0 
L 581 3500 
L 1159 3500 
L 1159 2956 
Q 1366 3272 1645 3428 
Q 1925 3584 2291 3584 
Q 2894 3584 3203 3211 
Q 3513 2838 3513 2113 
z
" id="DejaVuSans-6e" transform="scale(0.015625)"/>
       <path d="M 603 3500 
L 1178 3500 
L 1178 0 
L 603 0 
L 603 3500 
z
M 603 4863 
L 1178 4863 
L 1178 4134 
L 603 4134 
L 603 4863 
z
" id="DejaVuSans-69" transform="scale(0.015625)"/>
       <path d="M 3122 3366 
L 3122 2828 
Q 2878 2963 2633 3030 
Q 2388 3097 2138 3097 
Q 1578 3097 1268 2742 
Q 959 2388 959 1747 
Q 959 1106 1268 751 
Q 1578 397 2138 397 
Q 2388 397 2633 464 
Q 2878 531 3122 666 
L 3122 134 
Q 2881 22 2623 -34 
Q 2366 -91 2075 -91 
Q 1284 -91 818 406 
Q 353 903 353 1747 
Q 353 2603 823 3093 
Q 1294 3584 2113 3584 
Q 2378 3584 2631 3529 
Q 2884 3475 3122 3366 
z
" id="DejaVuSans-63" transform="scale(0.015625)"/>
       <path d="M 1172 4494 
L 1172 3500 
L 2356 3500 
L 2356 3053 
L 1172 3053 
L 1172 1153 
Q 1172 725 1289 603 
Q 1406 481 1766 481 
L 2356 481 
L 2356 0 
L 1766 0 
Q 1100 0 847 248 
Q 594 497 594 1153 
L 594 3053 
L 172 3053 
L 172 3500 
L 594 3500 
L 594 4494 
L 1172 4494 
z
" id="DejaVuSans-74" transform="scale(0.015625)"/>
       <path d="M 2841 2188 
Q 3044 2119 3236 1894 
Q 3428 1669 3622 1275 
L 4263 0 
L 3584 0 
L 2988 1197 
Q 2756 1666 2539 1819 
Q 2322 1972 1947 1972 
L 1259 1972 
L 1259 0 
L 628 0 
L 628 4666 
L 2053 4666 
Q 2853 4666 3247 4331 
Q 3641 3997 3641 3322 
Q 3641 2881 3436 2590 
Q 3231 2300 2841 2188 
z
M 1259 4147 
L 1259 2491 
L 2053 2491 
Q 2509 2491 2742 2702 
Q 2975 2913 2975 3322 
Q 2975 3731 2742 3939 
Q 2509 4147 2053 4147 
L 1259 4147 
z
" id="DejaVuSans-52" transform="scale(0.015625)"/>
       <path d="M 2906 2969 
L 2906 4863 
L 3481 4863 
L 3481 0 
L 2906 0 
L 2906 525 
Q 2725 213 2448 61 
Q 2172 -91 1784 -91 
Q 1150 -91 751 415 
Q 353 922 353 1747 
Q 353 2572 751 3078 
Q 1150 3584 1784 3584 
Q 2172 3584 2448 3432 
Q 2725 3281 2906 2969 
z
M 947 1747 
Q 947 1113 1208 752 
Q 1469 391 1925 391 
Q 2381 391 2643 752 
Q 2906 1113 2906 1747 
Q 2906 2381 2643 2742 
Q 2381 3103 1925 3103 
Q 1469 3103 1208 2742 
Q 947 2381 947 1747 
z
" id="DejaVuSans-64" transform="scale(0.015625)"/>
       <path d="M 2834 3397 
L 2834 2853 
Q 2591 2978 2328 3040 
Q 2066 3103 1784 3103 
Q 1356 3103 1142 2972 
Q 928 2841 928 2578 
Q 928 2378 1081 2264 
Q 1234 2150 1697 2047 
L 1894 2003 
Q 2506 1872 2764 1633 
Q 3022 1394 3022 966 
Q 3022 478 2636 193 
Q 2250 -91 1575 -91 
Q 1294 -91 989 -36 
Q 684 19 347 128 
L 347 722 
Q 666 556 975 473 
Q 1284 391 1588 391 
Q 1994 391 2212 530 
Q 2431 669 2431 922 
Q 2431 1156 2273 1281 
Q 2116 1406 1581 1522 
L 1381 1569 
Q 847 1681 609 1914 
Q 372 2147 372 2553 
Q 372 3047 722 3315 
Q 1072 3584 1716 3584 
Q 2034 3584 2315 3537 
Q 2597 3491 2834 3397 
z
" id="DejaVuSans-73" transform="scale(0.015625)"/>
      </defs>
      <use xlink:href="#DejaVuSans-47"/>
      <use x="77.490234" xlink:href="#DejaVuSans-6c"/>
      <use x="105.273438" xlink:href="#DejaVuSans-6f"/>
      <use x="166.455078" xlink:href="#DejaVuSans-62"/>
      <use x="229.931641" xlink:href="#DejaVuSans-61"/>
      <use x="291.210938" xlink:href="#DejaVuSans-6c"/>
      <use x="318.994141" xlink:href="#DejaVuSans-20"/>
      <use x="350.78125" xlink:href="#DejaVuSans-43"/>
      <use x="420.605469" xlink:href="#DejaVuSans-6f"/>
      <use x="481.787109" xlink:href="#DejaVuSans-6d"/>
      <use x="579.199219" xlink:href="#DejaVuSans-6d"/>
      <use x="676.611328" xlink:href="#DejaVuSans-75"/>
      <use x="739.990234" xlink:href="#DejaVuSans-6e"/>
      <use x="803.369141" xlink:href="#DejaVuSans-69"/>
      <use x="831.152344" xlink:href="#DejaVuSans-63"/>
      <use x="886.132812" xlink:href="#DejaVuSans-61"/>
      <use x="947.412109" xlink:href="#DejaVuSans-74"/>
      <use x="986.621094" xlink:href="#DejaVuSans-69"/>
      <use x="1014.404297" xlink:href="#DejaVuSans-6f"/>
      <use x="1075.585938" xlink:href="#DejaVuSans-6e"/>
      <use x="1138.964844" xlink:href="#DejaVuSans-20"/>
      <use x="1170.751953" xlink:href="#DejaVuSans-52"/>
      <use x="1235.734375" xlink:href="#DejaVuSans-6f"/>
      <use x="1296.916016" xlink:href="#DejaVuSans-75"/>
      <use x="1360.294922" xlink:href="#DejaVuSans-6e"/>
      <use x="1423.673828" xlink:href="#DejaVuSans-64"/>
      <use x="1487.150391" xlink:href="#DejaVuSans-73"/>
     </g>
    </g>
   </g>
   <g id="matplotlib.axis_2">
    <g id="ytick_1">
     <g id="line2d_7">
      <defs>
       <path d="M 0 0 
L -3.5 0 
" id="mb651d49023" style="stroke:#000000;stroke-width:0.8;"/>
      </defs>
      <g>
       <use style="stroke:#000000;stroke-width:0.8;" x="70.22" xlink:href="#mb651d49023" y="337.929459"/>
      </g>
     </g>
     <g id="text_8">
      <!-- 94 -->
      <g transform="translate(44.1325 343.628287)scale(0.15 -0.15)">
       <defs>
        <path d="M 703 97 
L 703 672 
Q 941 559 1184 500 
Q 1428 441 1663 441 
Q 2288 441 2617 861 
Q 2947 1281 2994 2138 
Q 2813 1869 2534 1725 
Q 2256 1581 1919 1581 
Q 1219 1581 811 2004 
Q 403 2428 403 3163 
Q 403 3881 828 4315 
Q 1253 4750 1959 4750 
Q 2769 4750 3195 4129 
Q 3622 3509 3622 2328 
Q 3622 1225 3098 567 
Q 2575 -91 1691 -91 
Q 1453 -91 1209 -44 
Q 966 3 703 97 
z
M 1959 2075 
Q 2384 2075 2632 2365 
Q 2881 2656 2881 3163 
Q 2881 3666 2632 3958 
Q 2384 4250 1959 4250 
Q 1534 4250 1286 3958 
Q 1038 3666 1038 3163 
Q 1038 2656 1286 2365 
Q 1534 2075 1959 2075 
z
" id="DejaVuSans-39" transform="scale(0.015625)"/>
       </defs>
       <use xlink:href="#DejaVuSans-39"/>
       <use x="63.623047" xlink:href="#DejaVuSans-34"/>
      </g>
     </g>
    </g>
    <g id="ytick_2">
     <g id="line2d_8">
      <g>
       <use style="stroke:#000000;stroke-width:0.8;" x="70.22" xlink:href="#mb651d49023" y="291.251889"/>
      </g>
     </g>
     <g id="text_9">
      <!-- 95 -->
      <g transform="translate(44.1325 296.950717)scale(0.15 -0.15)">
       <use xlink:href="#DejaVuSans-39"/>
       <use x="63.623047" xlink:href="#DejaVuSans-35"/>
      </g>
     </g>
    </g>
    <g id="ytick_3">
     <g id="line2d_9">
      <g>
       <use style="stroke:#000000;stroke-width:0.8;" x="70.22" xlink:href="#mb651d49023" y="244.574319"/>
      </g>
     </g>
     <g id="text_10">
      <!-- 96 -->
      <g transform="translate(44.1325 250.273147)scale(0.15 -0.15)">
       <defs>
        <path d="M 2113 2584 
Q 1688 2584 1439 2293 
Q 1191 2003 1191 1497 
Q 1191 994 1439 701 
Q 1688 409 2113 409 
Q 2538 409 2786 701 
Q 3034 994 3034 1497 
Q 3034 2003 2786 2293 
Q 2538 2584 2113 2584 
z
M 3366 4563 
L 3366 3988 
Q 3128 4100 2886 4159 
Q 2644 4219 2406 4219 
Q 1781 4219 1451 3797 
Q 1122 3375 1075 2522 
Q 1259 2794 1537 2939 
Q 1816 3084 2150 3084 
Q 2853 3084 3261 2657 
Q 3669 2231 3669 1497 
Q 3669 778 3244 343 
Q 2819 -91 2113 -91 
Q 1303 -91 875 529 
Q 447 1150 447 2328 
Q 447 3434 972 4092 
Q 1497 4750 2381 4750 
Q 2619 4750 2861 4703 
Q 3103 4656 3366 4563 
z
" id="DejaVuSans-36" transform="scale(0.015625)"/>
       </defs>
       <use xlink:href="#DejaVuSans-39"/>
       <use x="63.623047" xlink:href="#DejaVuSans-36"/>
      </g>
     </g>
    </g>
    <g id="ytick_4">
     <g id="line2d_10">
      <g>
       <use style="stroke:#000000;stroke-width:0.8;" x="70.22" xlink:href="#mb651d49023" y="197.896749"/>
      </g>
     </g>
     <g id="text_11">
      <!-- 97 -->
      <g transform="translate(44.1325 203.595577)scale(0.15 -0.15)">
       <defs>
        <path d="M 525 4666 
L 3525 4666 
L 3525 4397 
L 1831 0 
L 1172 0 
L 2766 4134 
L 525 4134 
L 525 4666 
z
" id="DejaVuSans-37" transform="scale(0.015625)"/>
       </defs>
       <use xlink:href="#DejaVuSans-39"/>
       <use x="63.623047" xlink:href="#DejaVuSans-37"/>
      </g>
     </g>
    </g>
    <g id="ytick_5">
     <g id="line2d_11">
      <g>
       <use style="stroke:#000000;stroke-width:0.8;" x="70.22" xlink:href="#mb651d49023" y="151.21918"/>
      </g>
     </g>
     <g id="text_12">
      <!-- 98 -->
      <g transform="translate(44.1325 156.918008)scale(0.15 -0.15)">
       <defs>
        <path d="M 2034 2216 
Q 1584 2216 1326 1975 
Q 1069 1734 1069 1313 
Q 1069 891 1326 650 
Q 1584 409 2034 409 
Q 2484 409 2743 651 
Q 3003 894 3003 1313 
Q 3003 1734 2745 1975 
Q 2488 2216 2034 2216 
z
M 1403 2484 
Q 997 2584 770 2862 
Q 544 3141 544 3541 
Q 544 4100 942 4425 
Q 1341 4750 2034 4750 
Q 2731 4750 3128 4425 
Q 3525 4100 3525 3541 
Q 3525 3141 3298 2862 
Q 3072 2584 2669 2484 
Q 3125 2378 3379 2068 
Q 3634 1759 3634 1313 
Q 3634 634 3220 271 
Q 2806 -91 2034 -91 
Q 1263 -91 848 271 
Q 434 634 434 1313 
Q 434 1759 690 2068 
Q 947 2378 1403 2484 
z
M 1172 3481 
Q 1172 3119 1398 2916 
Q 1625 2713 2034 2713 
Q 2441 2713 2670 2916 
Q 2900 3119 2900 3481 
Q 2900 3844 2670 4047 
Q 2441 4250 2034 4250 
Q 1625 4250 1398 4047 
Q 1172 3844 1172 3481 
z
" id="DejaVuSans-38" transform="scale(0.015625)"/>
       </defs>
       <use xlink:href="#DejaVuSans-39"/>
       <use x="63.623047" xlink:href="#DejaVuSans-38"/>
      </g>
     </g>
    </g>
    <g id="ytick_6">
     <g id="line2d_12">
      <g>
       <use style="stroke:#000000;stroke-width:0.8;" x="70.22" xlink:href="#mb651d49023" y="104.54161"/>
      </g>
     </g>
     <g id="text_13">
      <!-- 99 -->
      <g transform="translate(44.1325 110.240438)scale(0.15 -0.15)">
       <use xlink:href="#DejaVuSans-39"/>
       <use x="63.623047" xlink:href="#DejaVuSans-39"/>
      </g>
     </g>
    </g>
    <g id="ytick_7">
     <g id="line2d_13">
      <g>
       <use style="stroke:#000000;stroke-width:0.8;" x="70.22" xlink:href="#mb651d49023" y="57.86404"/>
      </g>
     </g>
     <g id="text_14">
      <!-- 100 -->
      <g transform="translate(34.58875 63.562868)scale(0.15 -0.15)">
       <use xlink:href="#DejaVuSans-31"/>
       <use x="63.623047" xlink:href="#DejaVuSans-30"/>
       <use x="127.246094" xlink:href="#DejaVuSans-30"/>
      </g>
     </g>
    </g>
    <g id="text_15">
     <!-- Test Accuracy -->
     <g transform="translate(27.469219 267.694744)rotate(-90)scale(0.15 -0.15)">
      <defs>
       <path d="M -19 4666 
L 3928 4666 
L 3928 4134 
L 2272 4134 
L 2272 0 
L 1638 0 
L 1638 4134 
L -19 4134 
L -19 4666 
z
" id="DejaVuSans-54" transform="scale(0.015625)"/>
       <path d="M 3597 1894 
L 3597 1613 
L 953 1613 
Q 991 1019 1311 708 
Q 1631 397 2203 397 
Q 2534 397 2845 478 
Q 3156 559 3463 722 
L 3463 178 
Q 3153 47 2828 -22 
Q 2503 -91 2169 -91 
Q 1331 -91 842 396 
Q 353 884 353 1716 
Q 353 2575 817 3079 
Q 1281 3584 2069 3584 
Q 2775 3584 3186 3129 
Q 3597 2675 3597 1894 
z
M 3022 2063 
Q 3016 2534 2758 2815 
Q 2500 3097 2075 3097 
Q 1594 3097 1305 2825 
Q 1016 2553 972 2059 
L 3022 2063 
z
" id="DejaVuSans-65" transform="scale(0.015625)"/>
       <path d="M 2188 4044 
L 1331 1722 
L 3047 1722 
L 2188 4044 
z
M 1831 4666 
L 2547 4666 
L 4325 0 
L 3669 0 
L 3244 1197 
L 1141 1197 
L 716 0 
L 50 0 
L 1831 4666 
z
" id="DejaVuSans-41" transform="scale(0.015625)"/>
       <path d="M 2631 2963 
Q 2534 3019 2420 3045 
Q 2306 3072 2169 3072 
Q 1681 3072 1420 2755 
Q 1159 2438 1159 1844 
L 1159 0 
L 581 0 
L 581 3500 
L 1159 3500 
L 1159 2956 
Q 1341 3275 1631 3429 
Q 1922 3584 2338 3584 
Q 2397 3584 2469 3576 
Q 2541 3569 2628 3553 
L 2631 2963 
z
" id="DejaVuSans-72" transform="scale(0.015625)"/>
       <path d="M 2059 -325 
Q 1816 -950 1584 -1140 
Q 1353 -1331 966 -1331 
L 506 -1331 
L 506 -850 
L 844 -850 
Q 1081 -850 1212 -737 
Q 1344 -625 1503 -206 
L 1606 56 
L 191 3500 
L 800 3500 
L 1894 763 
L 2988 3500 
L 3597 3500 
L 2059 -325 
z
" id="DejaVuSans-79" transform="scale(0.015625)"/>
      </defs>
      <use xlink:href="#DejaVuSans-54"/>
      <use x="44.083984" xlink:href="#DejaVuSans-65"/>
      <use x="105.607422" xlink:href="#DejaVuSans-73"/>
      <use x="157.707031" xlink:href="#DejaVuSans-74"/>
      <use x="196.916016" xlink:href="#DejaVuSans-20"/>
      <use x="228.703125" xlink:href="#DejaVuSans-41"/>
      <use x="295.361328" xlink:href="#DejaVuSans-63"/>
      <use x="350.341797" xlink:href="#DejaVuSans-63"/>
      <use x="405.322266" xlink:href="#DejaVuSans-75"/>
      <use x="468.701172" xlink:href="#DejaVuSans-72"/>
      <use x="509.814453" xlink:href="#DejaVuSans-61"/>
      <use x="571.09375" xlink:href="#DejaVuSans-63"/>
      <use x="626.074219" xlink:href="#DejaVuSans-79"/>
     </g>
    </g>
   </g>
   <g id="line2d_14">
    <path clip-path="url(#p98cced37db)" d="M 92.321818 258.754847 
L 101.342968 198.487605 
L 110.364119 178.398524 
L 119.385269 148.855758 
L 128.406419 139.402073 
L 137.42757 134.675231 
L 146.44872 119.312993 
L 155.46987 112.222729 
L 164.49102 108.677597 
L 173.512171 102.769044 
L 182.533321 96.860491 
L 191.554471 98.042201 
L 200.575622 93.315359 
L 209.596772 93.315359 
L 218.617922 89.770227 
L 227.639072 88.588516 
L 236.660223 87.406806 
L 245.681373 88.588516 
L 254.702523 90.951938 
L 263.723673 92.133648 
L 272.744824 90.951938 
L 281.765974 89.770227 
L 290.787124 89.770227 
L 299.808275 89.770227 
L 308.829425 89.770227 
L 317.850575 87.406806 
L 326.871725 86.225095 
L 335.892876 88.588516 
L 344.914026 86.225095 
L 353.935176 88.588516 
L 362.956327 88.588516 
L 371.977477 85.043384 
L 380.998627 85.043384 
L 390.019777 83.861674 
L 399.040928 82.679963 
L 408.062078 80.316542 
L 417.083228 79.134831 
L 426.104378 82.679963 
L 435.125529 80.316542 
L 444.146679 81.498253 
L 453.167829 81.498253 
L 462.18898 80.316542 
L 471.21013 82.679963 
L 480.23128 83.861674 
L 489.25243 86.225095 
L 498.273581 81.498253 
L 507.294731 85.043384 
L 516.315881 79.134831 
L 525.337032 83.861674 
L 534.358182 81.498253 
" style="fill:none;stroke:#1f77b4;stroke-linecap:square;stroke-width:1.5;"/>
   </g>
   <g id="line2d_15">
    <path clip-path="url(#p98cced37db)" d="M 92.321818 295.387876 
L 101.342968 202.032737 
L 110.364119 184.307077 
L 119.385269 164.217996 
L 128.406419 153.582601 
L 137.42757 141.765495 
L 146.44872 132.31181 
L 155.46987 126.403256 
L 164.49102 118.131282 
L 173.512171 121.676414 
L 182.533321 113.40444 
L 191.554471 112.222729 
L 200.575622 106.314176 
L 209.596772 100.405623 
L 218.617922 106.314176 
L 227.639072 99.223912 
L 236.660223 99.223912 
L 245.681373 101.587333 
L 254.702523 98.042201 
L 263.723673 92.133648 
L 272.744824 92.133648 
L 281.765974 90.951938 
L 290.787124 95.67878 
L 299.808275 96.860491 
L 308.829425 96.860491 
L 317.850575 99.223912 
L 326.871725 95.67878 
L 335.892876 93.315359 
L 344.914026 93.315359 
L 353.935176 94.497069 
L 362.956327 94.497069 
L 371.977477 93.315359 
L 380.998627 95.67878 
L 390.019777 93.315359 
L 399.040928 98.042201 
L 408.062078 92.133648 
L 417.083228 92.133648 
L 426.104378 93.315359 
L 435.125529 93.315359 
L 444.146679 95.67878 
L 453.167829 93.315359 
L 462.18898 88.588516 
L 471.21013 90.951938 
L 480.23128 86.225095 
L 489.25243 90.951938 
L 498.273581 94.497069 
L 507.294731 92.133648 
L 516.315881 93.315359 
L 525.337032 89.770227 
L 534.358182 92.133648 
" style="fill:none;stroke:#ff7f0e;stroke-linecap:square;stroke-width:1.5;"/>
   </g>
   <g id="line2d_16">
    <path clip-path="url(#p98cced37db)" d="M 92.321818 297.751297 
L 101.342968 204.396158 
L 110.364119 184.307077 
L 119.385269 171.30826 
L 128.406419 147.674048 
L 137.42757 127.584967 
L 146.44872 120.494703 
L 155.46987 116.949571 
L 164.49102 114.58615 
L 173.512171 102.769044 
L 182.533321 99.223912 
L 191.554471 101.587333 
L 200.575622 101.587333 
L 209.596772 101.587333 
L 218.617922 99.223912 
L 227.639072 96.860491 
L 236.660223 95.67878 
L 245.681373 96.860491 
L 254.702523 94.497069 
L 263.723673 92.133648 
L 272.744824 94.497069 
L 281.765974 94.497069 
L 290.787124 86.225095 
L 299.808275 87.406806 
L 308.829425 87.406806 
L 317.850575 89.770227 
L 326.871725 86.225095 
L 335.892876 86.225095 
L 344.914026 86.225095 
L 353.935176 87.406806 
L 362.956327 88.588516 
L 371.977477 85.043384 
L 380.998627 86.225095 
L 390.019777 86.225095 
L 399.040928 86.225095 
L 408.062078 86.225095 
L 417.083228 86.225095 
L 426.104378 86.225095 
L 435.125529 89.770227 
L 444.146679 87.406806 
L 453.167829 83.861674 
L 462.18898 86.225095 
L 471.21013 88.588516 
L 480.23128 87.406806 
L 489.25243 86.225095 
L 498.273581 87.406806 
L 507.294731 87.406806 
L 516.315881 88.588516 
L 525.337032 86.225095 
L 534.358182 85.043384 
" style="fill:none;stroke:#2ca02c;stroke-linecap:square;stroke-width:1.5;"/>
   </g>
   <g id="line2d_17">
    <path clip-path="url(#p98cced37db)" d="M 92.321818 336.249066 
L 101.342968 239.813207 
L 110.364119 215.35416 
L 119.385269 198.176815 
L 128.406419 186.600777 
L 137.42757 178.198815 
L 146.44872 170.917114 
L 155.46987 165.03574 
L 164.49102 160.274628 
L 173.512171 156.820488 
L 182.533321 153.366348 
L 191.554471 151.40589 
L 200.575622 148.13846 
L 209.596772 144.87103 
L 218.617922 143.657413 
L 227.639072 142.537152 
L 236.660223 140.389983 
L 245.681373 140.576694 
L 254.702523 136.749133 
L 263.723673 135.535516 
L 272.744824 135.06874 
L 281.765974 133.108283 
L 290.787124 131.42789 
L 299.808275 130.961114 
L 308.829425 130.774404 
L 317.850575 129.374077 
L 326.871725 129.094012 
L 335.892876 128.253815 
L 344.914026 128.067105 
L 353.935176 127.97375 
L 362.956327 126.573423 
L 371.977477 126.293357 
L 380.998627 126.200002 
L 390.019777 125.453161 
L 399.040928 125.266451 
L 408.062078 124.89303 
L 417.083228 124.146189 
L 426.104378 123.399348 
L 435.125529 124.70632 
L 444.146679 123.679413 
L 453.167829 123.772769 
L 462.18898 122.559152 
L 471.21013 123.305993 
L 480.23128 123.959479 
L 489.25243 123.399348 
L 498.273581 122.745862 
L 507.294731 122.745862 
L 516.315881 123.399348 
L 525.337032 122.185731 
L 534.358182 121.6256 
" style="fill:none;stroke:#d62728;stroke-linecap:square;stroke-width:1.5;"/>
   </g>
   <g id="patch_3">
    <path d="M 70.22 376 
L 70.22 56.601988 
" style="fill:none;stroke:#000000;stroke-linecap:square;stroke-linejoin:miter;stroke-width:0.8;"/>
   </g>
   <g id="patch_4">
    <path d="M 556.46 376 
L 556.46 56.601988 
" style="fill:none;stroke:#000000;stroke-linecap:square;stroke-linejoin:miter;stroke-width:0.8;"/>
   </g>
   <g id="patch_5">
    <path d="M 70.22 376 
L 556.46 376 
" style="fill:none;stroke:#000000;stroke-linecap:square;stroke-linejoin:miter;stroke-width:0.8;"/>
   </g>
   <g id="patch_6">
    <path d="M 70.22 56.601989 
L 556.46 56.601989 
" style="fill:none;stroke:#000000;stroke-linecap:square;stroke-linejoin:miter;stroke-width:0.8;"/>
   </g>
   <g id="legend_1">
    <g id="patch_7">
     <path d="M 63.742344 42.709474 
L 562.937656 42.709474 
Q 565.937656 42.709474 565.937656 39.709474 
L 565.937656 19.192287 
Q 565.937656 16.192287 562.937656 16.192287 
L 63.742344 16.192287 
Q 60.742344 16.192287 60.742344 19.192287 
L 60.742344 39.709474 
Q 60.742344 42.709474 63.742344 42.709474 
z
" style="fill:#ffffff;opacity:0.8;stroke:#cccccc;stroke-linejoin:miter;"/>
    </g>
    <g id="line2d_18">
     <path d="M 66.742344 28.339943 
L 96.742344 28.339943 
" style="fill:none;stroke:#1f77b4;stroke-linecap:square;stroke-width:1.5;"/>
    </g>
    <g id="line2d_19"/>
    <g id="text_16">
     <!-- FedAvg -->
     <g transform="translate(108.742344 33.589943)scale(0.15 -0.15)">
      <defs>
       <path d="M 628 4666 
L 3309 4666 
L 3309 4134 
L 1259 4134 
L 1259 2759 
L 3109 2759 
L 3109 2228 
L 1259 2228 
L 1259 0 
L 628 0 
L 628 4666 
z
" id="DejaVuSans-46" transform="scale(0.015625)"/>
       <path d="M 191 3500 
L 800 3500 
L 1894 563 
L 2988 3500 
L 3597 3500 
L 2284 0 
L 1503 0 
L 191 3500 
z
" id="DejaVuSans-76" transform="scale(0.015625)"/>
       <path d="M 2906 1791 
Q 2906 2416 2648 2759 
Q 2391 3103 1925 3103 
Q 1463 3103 1205 2759 
Q 947 2416 947 1791 
Q 947 1169 1205 825 
Q 1463 481 1925 481 
Q 2391 481 2648 825 
Q 2906 1169 2906 1791 
z
M 3481 434 
Q 3481 -459 3084 -895 
Q 2688 -1331 1869 -1331 
Q 1566 -1331 1297 -1286 
Q 1028 -1241 775 -1147 
L 775 -588 
Q 1028 -725 1275 -790 
Q 1522 -856 1778 -856 
Q 2344 -856 2625 -561 
Q 2906 -266 2906 331 
L 2906 616 
Q 2728 306 2450 153 
Q 2172 0 1784 0 
Q 1141 0 747 490 
Q 353 981 353 1791 
Q 353 2603 747 3093 
Q 1141 3584 1784 3584 
Q 2172 3584 2450 3431 
Q 2728 3278 2906 2969 
L 2906 3500 
L 3481 3500 
L 3481 434 
z
" id="DejaVuSans-67" transform="scale(0.015625)"/>
      </defs>
      <use xlink:href="#DejaVuSans-46"/>
      <use x="52.019531" xlink:href="#DejaVuSans-65"/>
      <use x="113.542969" xlink:href="#DejaVuSans-64"/>
      <use x="177.019531" xlink:href="#DejaVuSans-41"/>
      <use x="239.552734" xlink:href="#DejaVuSans-76"/>
      <use x="298.732422" xlink:href="#DejaVuSans-67"/>
     </g>
    </g>
    <g id="line2d_20">
     <path d="M 193.0775 28.339943 
L 223.0775 28.339943 
" style="fill:none;stroke:#ff7f0e;stroke-linecap:square;stroke-width:1.5;"/>
    </g>
    <g id="line2d_21"/>
    <g id="text_17">
     <!-- FedMed -->
     <g transform="translate(235.0775 33.589943)scale(0.15 -0.15)">
      <defs>
       <path d="M 628 4666 
L 1569 4666 
L 2759 1491 
L 3956 4666 
L 4897 4666 
L 4897 0 
L 4281 0 
L 4281 4097 
L 3078 897 
L 2444 897 
L 1241 4097 
L 1241 0 
L 628 0 
L 628 4666 
z
" id="DejaVuSans-4d" transform="scale(0.015625)"/>
      </defs>
      <use xlink:href="#DejaVuSans-46"/>
      <use x="52.019531" xlink:href="#DejaVuSans-65"/>
      <use x="113.542969" xlink:href="#DejaVuSans-64"/>
      <use x="177.019531" xlink:href="#DejaVuSans-4d"/>
      <use x="263.298828" xlink:href="#DejaVuSans-65"/>
      <use x="324.822266" xlink:href="#DejaVuSans-64"/>
     </g>
    </g>
    <g id="line2d_22">
     <path d="M 323.326719 28.339943 
L 353.326719 28.339943 
" style="fill:none;stroke:#2ca02c;stroke-linecap:square;stroke-width:1.5;"/>
    </g>
    <g id="line2d_23"/>
    <g id="text_18">
     <!-- FedProx -->
     <g transform="translate(365.326719 33.589943)scale(0.15 -0.15)">
      <defs>
       <path d="M 1259 4147 
L 1259 2394 
L 2053 2394 
Q 2494 2394 2734 2622 
Q 2975 2850 2975 3272 
Q 2975 3691 2734 3919 
Q 2494 4147 2053 4147 
L 1259 4147 
z
M 628 4666 
L 2053 4666 
Q 2838 4666 3239 4311 
Q 3641 3956 3641 3272 
Q 3641 2581 3239 2228 
Q 2838 1875 2053 1875 
L 1259 1875 
L 1259 0 
L 628 0 
L 628 4666 
z
" id="DejaVuSans-50" transform="scale(0.015625)"/>
       <path d="M 3513 3500 
L 2247 1797 
L 3578 0 
L 2900 0 
L 1881 1375 
L 863 0 
L 184 0 
L 1544 1831 
L 300 3500 
L 978 3500 
L 1906 2253 
L 2834 3500 
L 3513 3500 
z
" id="DejaVuSans-78" transform="scale(0.015625)"/>
      </defs>
      <use xlink:href="#DejaVuSans-46"/>
      <use x="52.019531" xlink:href="#DejaVuSans-65"/>
      <use x="113.542969" xlink:href="#DejaVuSans-64"/>
      <use x="177.019531" xlink:href="#DejaVuSans-50"/>
      <use x="235.572266" xlink:href="#DejaVuSans-72"/>
      <use x="274.435547" xlink:href="#DejaVuSans-6f"/>
      <use x="332.492188" xlink:href="#DejaVuSans-78"/>
     </g>
    </g>
    <g id="line2d_24">
     <path d="M 454.079844 28.339943 
L 484.079844 28.339943 
" style="fill:none;stroke:#d62728;stroke-linecap:square;stroke-width:1.5;"/>
    </g>
    <g id="line2d_25"/>
    <g id="text_19">
     <!-- qFedAvg -->
     <g transform="translate(496.079844 33.589943)scale(0.15 -0.15)">
      <defs>
       <path d="M 947 1747 
Q 947 1113 1208 752 
Q 1469 391 1925 391 
Q 2381 391 2643 752 
Q 2906 1113 2906 1747 
Q 2906 2381 2643 2742 
Q 2381 3103 1925 3103 
Q 1469 3103 1208 2742 
Q 947 2381 947 1747 
z
M 2906 525 
Q 2725 213 2448 61 
Q 2172 -91 1784 -91 
Q 1150 -91 751 415 
Q 353 922 353 1747 
Q 353 2572 751 3078 
Q 1150 3584 1784 3584 
Q 2172 3584 2448 3432 
Q 2725 3281 2906 2969 
L 2906 3500 
L 3481 3500 
L 3481 -1331 
L 2906 -1331 
L 2906 525 
z
" id="DejaVuSans-71" transform="scale(0.015625)"/>
      </defs>
      <use xlink:href="#DejaVuSans-71"/>
      <use x="63.476562" xlink:href="#DejaVuSans-46"/>
      <use x="115.496094" xlink:href="#DejaVuSans-65"/>
      <use x="177.019531" xlink:href="#DejaVuSans-64"/>
      <use x="240.496094" xlink:href="#DejaVuSans-41"/>
      <use x="303.029297" xlink:href="#DejaVuSans-76"/>
      <use x="362.208984" xlink:href="#DejaVuSans-67"/>
     </g>
    </g>
   </g>
  </g>
 </g>
 <defs>
  <clipPath id="p98cced37db">
   <rect height="319.398011" width="486.24" x="70.22" y="56.601989"/>
  </clipPath>
 </defs>
</svg>
