<?xml version="1.0" encoding="utf-8" standalone="no"?>
<!DOCTYPE svg PUBLIC "-//W3C//DTD SVG 1.1//EN"
  "http://www.w3.org/Graphics/SVG/1.1/DTD/svg11.dtd">
<svg height="345.6pt" version="1.1" viewBox="0 0 460.8 345.6" width="460.8pt" xmlns="http://www.w3.org/2000/svg" xmlns:xlink="http://www.w3.org/1999/xlink">
 <metadata>
  <rdf:RDF xmlns:cc="http://creativecommons.org/ns#" xmlns:dc="http://purl.org/dc/elements/1.1/" xmlns:rdf="http://www.w3.org/1999/02/22-rdf-syntax-ns#">
   <cc:Work>
    <dc:type rdf:resource="http://purl.org/dc/dcmitype/StillImage"/>
    <dc:date>2021-05-05T21:55:40.593524</dc:date>
    <dc:format>image/svg+xml</dc:format>
    <dc:creator>
     <cc:Agent>
      <dc:title>Matplotlib v3.4.1, https://matplotlib.org/</dc:title>
     </cc:Agent>
    </dc:creator>
   </cc:Work>
  </rdf:RDF>
 </metadata>
 <defs>
  <style type="text/css">*{stroke-linecap:butt;stroke-linejoin:round;}</style>
 </defs>
 <g id="figure_1">
  <g id="patch_1">
   <path d="M 0 345.6 
L 460.8 345.6 
L 460.8 0 
L 0 0 
z
" style="fill:#ffffff;"/>
  </g>
  <g id="axes_1">
   <g id="patch_2">
    <path d="M 44.66 303.64 
L 450 303.64 
L 450 48.38 
L 44.66 48.38 
z
" style="fill:#ffffff;"/>
   </g>
   <g id="PolyCollection_1">
    <path clip-path="url(#pe487d804d1)" d="M 63.084545 201.369291 
L 63.084545 222.598342 
L 70.604768 159.748404 
L 78.124991 148.620596 
L 85.645213 145.137283 
L 93.165436 129.475839 
L 100.685659 123.956538 
L 108.205881 114.482751 
L 115.726104 116.149202 
L 123.246327 110.185203 
L 130.766549 106.271716 
L 138.286772 99.218929 
L 145.806994 100.436884 
L 153.327217 104.365472 
L 160.84744 106.057548 
L 168.367662 102.594159 
L 175.887885 97.191149 
L 183.408108 98.891448 
L 190.92833 91.062097 
L 198.448553 91.6095 
L 205.968776 91.755974 
L 213.488998 91.337608 
L 221.009221 88.309785 
L 228.529443 92.211106 
L 236.049666 94.292308 
L 243.569889 93.347283 
L 251.090111 85.863585 
L 258.610334 84.319912 
L 266.130557 85.53387 
L 273.650779 88.941435 
L 281.171002 90.606374 
L 288.691224 83.706589 
L 296.211447 91.206213 
L 303.73167 86.102296 
L 311.251892 82.989927 
L 318.772115 80.389561 
L 326.292338 77.960641 
L 333.81256 76.843331 
L 341.332783 73.87166 
L 348.853006 73.883943 
L 356.373228 72.586966 
L 363.893451 69.748033 
L 371.413673 73.87166 
L 378.933896 75.680628 
L 386.454119 71.672043 
L 393.974341 71.756274 
L 401.494564 70.661469 
L 409.014787 70.661469 
L 416.535009 74.013487 
L 424.055232 74.10632 
L 431.575455 68.281562 
L 431.575455 60.088794 
L 431.575455 60.088794 
L 424.055232 65.212084 
L 416.535009 62.020502 
L 409.014787 64.277715 
L 401.494564 64.277715 
L 393.974341 65.37252 
L 386.454119 59.982727 
L 378.933896 66.92219 
L 371.413673 63.257134 
L 363.893451 66.285956 
L 356.373228 64.541828 
L 348.853006 64.339656 
L 341.332783 63.257134 
L 333.81256 67.949096 
L 326.292338 67.92659 
L 318.772115 70.971695 
L 311.251892 67.276523 
L 303.73167 71.827788 
L 296.211447 74.387504 
L 288.691224 70.939081 
L 281.171002 76.082148 
L 273.650779 76.652282 
L 266.130557 76.775432 
L 258.610334 76.894586 
L 251.090111 76.445718 
L 243.569889 83.194481 
L 236.049666 81.154651 
L 228.529443 81.046244 
L 221.009221 80.568346 
L 213.488998 81.919742 
L 205.968776 82.596181 
L 198.448553 86.027069 
L 190.92833 85.479667 
L 183.408108 86.408754 
L 175.887885 85.919444 
L 168.367662 82.706043 
L 160.84744 86.906287 
L 153.327217 91.882777 
L 145.806994 88.147732 
L 138.286772 94.839711 
L 130.766549 92.166143 
L 123.246327 93.726679 
L 115.726104 100.900337 
L 108.205881 100.377179 
L 100.685659 109.515072 
L 93.165436 119.323038 
L 85.645213 131.031711 
L 78.124991 135.212032 
L 70.604768 147.075123 
L 63.084545 201.369291 
z
" style="fill:#1f77b4;fill-opacity:0.5;"/>
   </g>
   <g id="PolyCollection_2">
    <path clip-path="url(#pe487d804d1)" d="M 63.084545 208.748585 
L 63.084545 251.347604 
L 70.604768 169.048126 
L 78.124991 157.132982 
L 85.645213 144.511908 
L 93.165436 137.698924 
L 100.685659 129.953617 
L 108.205881 127.954044 
L 115.726104 123.870262 
L 123.246327 123.705989 
L 130.766549 114.361121 
L 138.286772 106.99097 
L 145.806994 107.534467 
L 153.327217 107.032342 
L 160.84744 111.839548 
L 168.367662 103.31724 
L 175.887885 103.672337 
L 183.408108 103.320536 
L 190.92833 97.546217 
L 198.448553 99.042161 
L 205.968776 98.517049 
L 213.488998 97.220073 
L 221.009221 102.442332 
L 228.529443 101.809895 
L 236.049666 102.106842 
L 243.569889 96.158772 
L 251.090111 93.783808 
L 258.610334 93.590428 
L 266.130557 95.175404 
L 273.650779 99.593565 
L 281.171002 96.58642 
L 288.691224 95.009135 
L 296.211447 94.839711 
L 303.73167 102.183951 
L 311.251892 93.030743 
L 318.772115 92.371679 
L 326.292338 92.253599 
L 333.81256 89.34742 
L 341.332783 89.042541 
L 348.853006 84.221377 
L 356.373228 87.698546 
L 363.893451 93.591658 
L 371.413673 90.067926 
L 378.933896 94.184748 
L 386.454119 85.441994 
L 393.974341 83.773451 
L 401.494564 83.218539 
L 409.014787 79.967309 
L 416.535009 80.098749 
L 424.055232 84.706246 
L 431.575455 86.425446 
L 431.575455 70.409833 
L 431.575455 70.409833 
L 424.055232 73.223837 
L 416.535009 72.357311 
L 409.014787 73.583556 
L 401.494564 71.427131 
L 393.974341 68.682609 
L 386.454119 72.48809 
L 378.933896 69.219359 
L 371.413673 74.430986 
L 363.893451 74.191669 
L 356.373228 75.705561 
L 348.853006 74.803511 
L 341.332783 75.456371 
L 333.81256 72.961883 
L 326.292338 72.245313 
L 318.772115 76.506452 
L 311.251892 82.416217 
L 303.73167 74.357813 
L 296.211447 77.322835 
L 288.691224 77.15341 
L 281.171002 82.144954 
L 273.650779 82.422223 
L 266.130557 76.987142 
L 258.610334 84.046141 
L 251.090111 86.04237 
L 243.569889 82.572602 
L 236.049666 82.098555 
L 228.529443 83.490308 
L 221.009221 82.85787 
L 213.488998 89.174934 
L 205.968776 88.972763 
L 198.448553 87.352846 
L 190.92833 87.753985 
L 183.408108 84.169275 
L 175.887885 91.481108 
L 168.367662 92.93101 
L 160.84744 92.072334 
L 153.327217 96.879541 
L 145.806994 93.093001 
L 138.286772 95.826108 
L 130.766549 101.593614 
L 123.246327 105.386402 
L 115.726104 107.411738 
L 108.205881 106.612371 
L 100.685659 111.181626 
L 93.165436 126.427219 
L 85.645213 140.415524 
L 78.124991 146.406131 
L 70.604768 154.197472 
L 63.084545 208.748585 
z
" style="fill:#ff7f0e;fill-opacity:0.5;"/>
   </g>
   <g id="PolyCollection_3">
    <path clip-path="url(#pe487d804d1)" d="M 63.084545 215.13552 
L 63.084545 292.037273 
L 70.604768 180.974951 
L 78.124991 160.837091 
L 85.645213 138.506178 
L 93.165436 139.115857 
L 100.685659 131.283481 
L 108.205881 121.662426 
L 115.726104 116.735805 
L 123.246327 113.892733 
L 130.766549 109.023746 
L 138.286772 104.692953 
L 145.806994 105.441033 
L 153.327217 104.828407 
L 160.84744 100.861137 
L 168.367662 101.176351 
L 175.887885 106.197443 
L 183.408108 96.305149 
L 190.92833 95.107935 
L 198.448553 95.169425 
L 205.968776 92.740505 
L 213.488998 93.030743 
L 221.009221 92.557564 
L 228.529443 97.227639 
L 236.049666 97.227639 
L 243.569889 95.522911 
L 251.090111 91.323108 
L 258.610334 95.323668 
L 266.130557 91.899469 
L 273.650779 89.913089 
L 281.171002 89.63218 
L 288.691224 87.72348 
L 296.211447 89.009037 
L 303.73167 89.674783 
L 311.251892 88.406336 
L 318.772115 89.63218 
L 326.292338 90.388214 
L 333.81256 92.680466 
L 341.332783 92.214725 
L 348.853006 88.063143 
L 356.373228 88.446329 
L 363.893451 89.635878 
L 371.413673 90.650435 
L 378.933896 91.221775 
L 386.454119 88.05251 
L 393.974341 86.102296 
L 401.494564 87.520251 
L 409.014787 86.042072 
L 416.535009 86.305529 
L 424.055232 88.446329 
L 431.575455 86.455908 
L 431.575455 69.284567 
L 431.575455 69.284567 
L 424.055232 69.483755 
L 416.535009 72.71936 
L 409.014787 70.793207 
L 401.494564 71.504638 
L 393.974341 71.827788 
L 386.454119 67.687965 
L 378.933896 69.992723 
L 371.413673 68.374454 
L 363.893451 68.294205 
L 356.373228 69.483755 
L 348.853006 70.961746 
L 341.332783 73.378992 
L 333.81256 72.913251 
L 326.292338 69.731479 
L 318.772115 79.245951 
L 311.251892 74.997771 
L 303.73167 74.824129 
L 296.211447 80.963899 
L 288.691224 74.585823 
L 281.171002 79.245951 
L 273.650779 78.965042 
L 266.130557 75.883857 
L 258.610334 81.218096 
L 251.090111 78.649827 
L 243.569889 77.734439 
L 236.049666 80.40893 
L 228.529443 80.40893 
L 221.009221 86.17381 
L 213.488998 82.416217 
L 205.968776 82.706454 
L 198.448553 85.751558 
L 190.92833 81.433829 
L 183.408108 84.615834 
L 175.887885 84.576782 
L 168.367662 88.50307 
L 160.84744 89.913089 
L 153.327217 91.419842 
L 145.806994 96.28124 
L 138.286772 95.934515 
L 130.766549 90.508918 
L 123.246327 99.872392 
L 115.726104 107.977367 
L 108.205881 119.472817 
L 100.685659 118.6102 
L 93.165436 125.010285 
L 85.645213 126.71477 
L 78.124991 145.986437 
L 70.604768 165.261547 
L 63.084545 215.13552 
z
" style="fill:#2ca02c;fill-opacity:0.5;"/>
   </g>
   <g id="PolyCollection_4">
    <path clip-path="url(#pe487d804d1)" d="M 63.084545 237.410202 
L 63.084545 261.01948 
L 70.604768 208.645872 
L 78.124991 190.885249 
L 85.645213 179.43433 
L 93.165436 169.028421 
L 100.685659 161.112905 
L 108.205881 154.919532 
L 115.726104 150.095957 
L 123.246327 144.760922 
L 130.766549 141.867245 
L 138.286772 137.690178 
L 145.806994 135.940611 
L 153.327217 134.865604 
L 160.84744 132.674543 
L 168.367662 131.073294 
L 175.887885 129.699293 
L 183.408108 128.070199 
L 190.92833 128.739716 
L 198.448553 127.166755 
L 205.968776 126.216733 
L 213.488998 125.034748 
L 221.009221 126.271353 
L 228.529443 125.27907 
L 236.049666 125.317229 
L 243.569889 124.850595 
L 251.090111 124.282952 
L 258.610334 123.528246 
L 266.130557 123.849645 
L 273.650779 124.664742 
L 281.171002 123.773026 
L 288.691224 123.857641 
L 296.211447 124.184542 
L 303.73167 123.650653 
L 311.251892 123.334287 
L 318.772115 123.197483 
L 326.292338 122.682997 
L 333.81256 122.16189 
L 341.332783 122.265454 
L 348.853006 121.476576 
L 356.373228 121.530012 
L 363.893451 121.429821 
L 371.413673 122.03709 
L 378.933896 121.758097 
L 386.454119 121.071182 
L 393.974341 121.289364 
L 401.494564 121.295357 
L 409.014787 121.043185 
L 416.535009 120.793152 
L 424.055232 120.712884 
L 431.575455 120.913355 
L 431.575455 113.809617 
L 431.575455 113.809617 
L 424.055232 114.269556 
L 416.535009 114.189289 
L 409.014787 114.371704 
L 401.494564 114.638469 
L 393.974341 114.471483 
L 386.454119 114.084238 
L 378.933896 114.608176 
L 371.413673 114.069715 
L 363.893451 114.676984 
L 356.373228 114.922752 
L 348.853006 114.630229 
L 341.332783 114.360288 
L 333.81256 114.117895 
L 326.292338 114.894131 
L 318.772115 114.985072 
L 311.251892 114.761778 
L 303.73167 114.618392 
L 296.211447 114.862908 
L 288.691224 114.930341 
L 281.171002 114.668997 
L 273.650779 115.161115 
L 266.130557 116.062701 
L 258.610334 115.086757 
L 251.090111 116.148332 
L 243.569889 115.926648 
L 236.049666 116.670867 
L 228.529443 116.882006 
L 221.009221 118.484409 
L 213.488998 117.904733 
L 205.968776 118.884988 
L 198.448553 119.232309 
L 190.92833 120.254036 
L 183.408108 120.837064 
L 175.887885 121.370208 
L 168.367662 122.331426 
L 160.84744 123.324864 
L 153.327217 125.544772 
L 145.806994 127.842858 
L 138.286772 129.985321 
L 130.766549 132.554442 
L 123.246327 135.196098 
L 115.726104 139.893853 
L 108.205881 145.794985 
L 100.685659 153.526433 
L 93.165436 161.26553 
L 85.645213 169.714348 
L 78.124991 182.048062 
L 70.604768 199.229227 
L 63.084545 237.410202 
z
" style="fill:#d62728;fill-opacity:0.5;"/>
   </g>
   <g id="matplotlib.axis_1">
    <g id="xtick_1">
     <g id="line2d_1">
      <defs>
       <path d="M 0 0 
L 0 3.5 
" id="md8788971fa" style="stroke:#000000;stroke-width:0.8;"/>
      </defs>
      <g>
       <use style="stroke:#000000;stroke-width:0.8;" x="63.084545" xlink:href="#md8788971fa" y="303.64"/>
      </g>
     </g>
     <g id="text_1">
      <!-- 0 -->
      <g transform="translate(59.903295 318.238437)scale(0.1 -0.1)">
       <defs>
        <path d="M 2034 4250 
Q 1547 4250 1301 3770 
Q 1056 3291 1056 2328 
Q 1056 1369 1301 889 
Q 1547 409 2034 409 
Q 2525 409 2770 889 
Q 3016 1369 3016 2328 
Q 3016 3291 2770 3770 
Q 2525 4250 2034 4250 
z
M 2034 4750 
Q 2819 4750 3233 4129 
Q 3647 3509 3647 2328 
Q 3647 1150 3233 529 
Q 2819 -91 2034 -91 
Q 1250 -91 836 529 
Q 422 1150 422 2328 
Q 422 3509 836 4129 
Q 1250 4750 2034 4750 
z
" id="DejaVuSans-30" transform="scale(0.015625)"/>
       </defs>
       <use xlink:href="#DejaVuSans-30"/>
      </g>
     </g>
    </g>
    <g id="xtick_2">
     <g id="line2d_2">
      <g>
       <use style="stroke:#000000;stroke-width:0.8;" x="138.286772" xlink:href="#md8788971fa" y="303.64"/>
      </g>
     </g>
     <g id="text_2">
      <!-- 10 -->
      <g transform="translate(131.924272 318.238437)scale(0.1 -0.1)">
       <defs>
        <path d="M 794 531 
L 1825 531 
L 1825 4091 
L 703 3866 
L 703 4441 
L 1819 4666 
L 2450 4666 
L 2450 531 
L 3481 531 
L 3481 0 
L 794 0 
L 794 531 
z
" id="DejaVuSans-31" transform="scale(0.015625)"/>
       </defs>
       <use xlink:href="#DejaVuSans-31"/>
       <use x="63.623047" xlink:href="#DejaVuSans-30"/>
      </g>
     </g>
    </g>
    <g id="xtick_3">
     <g id="line2d_3">
      <g>
       <use style="stroke:#000000;stroke-width:0.8;" x="213.488998" xlink:href="#md8788971fa" y="303.64"/>
      </g>
     </g>
     <g id="text_3">
      <!-- 20 -->
      <g transform="translate(207.126498 318.238437)scale(0.1 -0.1)">
       <defs>
        <path d="M 1228 531 
L 3431 531 
L 3431 0 
L 469 0 
L 469 531 
Q 828 903 1448 1529 
Q 2069 2156 2228 2338 
Q 2531 2678 2651 2914 
Q 2772 3150 2772 3378 
Q 2772 3750 2511 3984 
Q 2250 4219 1831 4219 
Q 1534 4219 1204 4116 
Q 875 4013 500 3803 
L 500 4441 
Q 881 4594 1212 4672 
Q 1544 4750 1819 4750 
Q 2544 4750 2975 4387 
Q 3406 4025 3406 3419 
Q 3406 3131 3298 2873 
Q 3191 2616 2906 2266 
Q 2828 2175 2409 1742 
Q 1991 1309 1228 531 
z
" id="DejaVuSans-32" transform="scale(0.015625)"/>
       </defs>
       <use xlink:href="#DejaVuSans-32"/>
       <use x="63.623047" xlink:href="#DejaVuSans-30"/>
      </g>
     </g>
    </g>
    <g id="xtick_4">
     <g id="line2d_4">
      <g>
       <use style="stroke:#000000;stroke-width:0.8;" x="288.691224" xlink:href="#md8788971fa" y="303.64"/>
      </g>
     </g>
     <g id="text_4">
      <!-- 30 -->
      <g transform="translate(282.328724 318.238437)scale(0.1 -0.1)">
       <defs>
        <path d="M 2597 2516 
Q 3050 2419 3304 2112 
Q 3559 1806 3559 1356 
Q 3559 666 3084 287 
Q 2609 -91 1734 -91 
Q 1441 -91 1130 -33 
Q 819 25 488 141 
L 488 750 
Q 750 597 1062 519 
Q 1375 441 1716 441 
Q 2309 441 2620 675 
Q 2931 909 2931 1356 
Q 2931 1769 2642 2001 
Q 2353 2234 1838 2234 
L 1294 2234 
L 1294 2753 
L 1863 2753 
Q 2328 2753 2575 2939 
Q 2822 3125 2822 3475 
Q 2822 3834 2567 4026 
Q 2313 4219 1838 4219 
Q 1578 4219 1281 4162 
Q 984 4106 628 3988 
L 628 4550 
Q 988 4650 1302 4700 
Q 1616 4750 1894 4750 
Q 2613 4750 3031 4423 
Q 3450 4097 3450 3541 
Q 3450 3153 3228 2886 
Q 3006 2619 2597 2516 
z
" id="DejaVuSans-33" transform="scale(0.015625)"/>
       </defs>
       <use xlink:href="#DejaVuSans-33"/>
       <use x="63.623047" xlink:href="#DejaVuSans-30"/>
      </g>
     </g>
    </g>
    <g id="xtick_5">
     <g id="line2d_5">
      <g>
       <use style="stroke:#000000;stroke-width:0.8;" x="363.893451" xlink:href="#md8788971fa" y="303.64"/>
      </g>
     </g>
     <g id="text_5">
      <!-- 40 -->
      <g transform="translate(357.530951 318.238437)scale(0.1 -0.1)">
       <defs>
        <path d="M 2419 4116 
L 825 1625 
L 2419 1625 
L 2419 4116 
z
M 2253 4666 
L 3047 4666 
L 3047 1625 
L 3713 1625 
L 3713 1100 
L 3047 1100 
L 3047 0 
L 2419 0 
L 2419 1100 
L 313 1100 
L 313 1709 
L 2253 4666 
z
" id="DejaVuSans-34" transform="scale(0.015625)"/>
       </defs>
       <use xlink:href="#DejaVuSans-34"/>
       <use x="63.623047" xlink:href="#DejaVuSans-30"/>
      </g>
     </g>
    </g>
    <g id="xtick_6">
     <g id="line2d_6">
      <g>
       <use style="stroke:#000000;stroke-width:0.8;" x="439.095677" xlink:href="#md8788971fa" y="303.64"/>
      </g>
     </g>
     <g id="text_6">
      <!-- 50 -->
      <g transform="translate(432.733177 318.238437)scale(0.1 -0.1)">
       <defs>
        <path d="M 691 4666 
L 3169 4666 
L 3169 4134 
L 1269 4134 
L 1269 2991 
Q 1406 3038 1543 3061 
Q 1681 3084 1819 3084 
Q 2600 3084 3056 2656 
Q 3513 2228 3513 1497 
Q 3513 744 3044 326 
Q 2575 -91 1722 -91 
Q 1428 -91 1123 -41 
Q 819 9 494 109 
L 494 744 
Q 775 591 1075 516 
Q 1375 441 1709 441 
Q 2250 441 2565 725 
Q 2881 1009 2881 1497 
Q 2881 1984 2565 2268 
Q 2250 2553 1709 2553 
Q 1456 2553 1204 2497 
Q 953 2441 691 2322 
L 691 4666 
z
" id="DejaVuSans-35" transform="scale(0.015625)"/>
       </defs>
       <use xlink:href="#DejaVuSans-35"/>
       <use x="63.623047" xlink:href="#DejaVuSans-30"/>
      </g>
     </g>
    </g>
    <g id="text_7">
     <!-- Global Communication Rounds -->
     <g transform="translate(170.368281 331.916562)scale(0.1 -0.1)">
      <defs>
       <path d="M 3809 666 
L 3809 1919 
L 2778 1919 
L 2778 2438 
L 4434 2438 
L 4434 434 
Q 4069 175 3628 42 
Q 3188 -91 2688 -91 
Q 1594 -91 976 548 
Q 359 1188 359 2328 
Q 359 3472 976 4111 
Q 1594 4750 2688 4750 
Q 3144 4750 3555 4637 
Q 3966 4525 4313 4306 
L 4313 3634 
Q 3963 3931 3569 4081 
Q 3175 4231 2741 4231 
Q 1884 4231 1454 3753 
Q 1025 3275 1025 2328 
Q 1025 1384 1454 906 
Q 1884 428 2741 428 
Q 3075 428 3337 486 
Q 3600 544 3809 666 
z
" id="DejaVuSans-47" transform="scale(0.015625)"/>
       <path d="M 603 4863 
L 1178 4863 
L 1178 0 
L 603 0 
L 603 4863 
z
" id="DejaVuSans-6c" transform="scale(0.015625)"/>
       <path d="M 1959 3097 
Q 1497 3097 1228 2736 
Q 959 2375 959 1747 
Q 959 1119 1226 758 
Q 1494 397 1959 397 
Q 2419 397 2687 759 
Q 2956 1122 2956 1747 
Q 2956 2369 2687 2733 
Q 2419 3097 1959 3097 
z
M 1959 3584 
Q 2709 3584 3137 3096 
Q 3566 2609 3566 1747 
Q 3566 888 3137 398 
Q 2709 -91 1959 -91 
Q 1206 -91 779 398 
Q 353 888 353 1747 
Q 353 2609 779 3096 
Q 1206 3584 1959 3584 
z
" id="DejaVuSans-6f" transform="scale(0.015625)"/>
       <path d="M 3116 1747 
Q 3116 2381 2855 2742 
Q 2594 3103 2138 3103 
Q 1681 3103 1420 2742 
Q 1159 2381 1159 1747 
Q 1159 1113 1420 752 
Q 1681 391 2138 391 
Q 2594 391 2855 752 
Q 3116 1113 3116 1747 
z
M 1159 2969 
Q 1341 3281 1617 3432 
Q 1894 3584 2278 3584 
Q 2916 3584 3314 3078 
Q 3713 2572 3713 1747 
Q 3713 922 3314 415 
Q 2916 -91 2278 -91 
Q 1894 -91 1617 61 
Q 1341 213 1159 525 
L 1159 0 
L 581 0 
L 581 4863 
L 1159 4863 
L 1159 2969 
z
" id="DejaVuSans-62" transform="scale(0.015625)"/>
       <path d="M 2194 1759 
Q 1497 1759 1228 1600 
Q 959 1441 959 1056 
Q 959 750 1161 570 
Q 1363 391 1709 391 
Q 2188 391 2477 730 
Q 2766 1069 2766 1631 
L 2766 1759 
L 2194 1759 
z
M 3341 1997 
L 3341 0 
L 2766 0 
L 2766 531 
Q 2569 213 2275 61 
Q 1981 -91 1556 -91 
Q 1019 -91 701 211 
Q 384 513 384 1019 
Q 384 1609 779 1909 
Q 1175 2209 1959 2209 
L 2766 2209 
L 2766 2266 
Q 2766 2663 2505 2880 
Q 2244 3097 1772 3097 
Q 1472 3097 1187 3025 
Q 903 2953 641 2809 
L 641 3341 
Q 956 3463 1253 3523 
Q 1550 3584 1831 3584 
Q 2591 3584 2966 3190 
Q 3341 2797 3341 1997 
z
" id="DejaVuSans-61" transform="scale(0.015625)"/>
       <path id="DejaVuSans-20" transform="scale(0.015625)"/>
       <path d="M 4122 4306 
L 4122 3641 
Q 3803 3938 3442 4084 
Q 3081 4231 2675 4231 
Q 1875 4231 1450 3742 
Q 1025 3253 1025 2328 
Q 1025 1406 1450 917 
Q 1875 428 2675 428 
Q 3081 428 3442 575 
Q 3803 722 4122 1019 
L 4122 359 
Q 3791 134 3420 21 
Q 3050 -91 2638 -91 
Q 1578 -91 968 557 
Q 359 1206 359 2328 
Q 359 3453 968 4101 
Q 1578 4750 2638 4750 
Q 3056 4750 3426 4639 
Q 3797 4528 4122 4306 
z
" id="DejaVuSans-43" transform="scale(0.015625)"/>
       <path d="M 3328 2828 
Q 3544 3216 3844 3400 
Q 4144 3584 4550 3584 
Q 5097 3584 5394 3201 
Q 5691 2819 5691 2113 
L 5691 0 
L 5113 0 
L 5113 2094 
Q 5113 2597 4934 2840 
Q 4756 3084 4391 3084 
Q 3944 3084 3684 2787 
Q 3425 2491 3425 1978 
L 3425 0 
L 2847 0 
L 2847 2094 
Q 2847 2600 2669 2842 
Q 2491 3084 2119 3084 
Q 1678 3084 1418 2786 
Q 1159 2488 1159 1978 
L 1159 0 
L 581 0 
L 581 3500 
L 1159 3500 
L 1159 2956 
Q 1356 3278 1631 3431 
Q 1906 3584 2284 3584 
Q 2666 3584 2933 3390 
Q 3200 3197 3328 2828 
z
" id="DejaVuSans-6d" transform="scale(0.015625)"/>
       <path d="M 544 1381 
L 544 3500 
L 1119 3500 
L 1119 1403 
Q 1119 906 1312 657 
Q 1506 409 1894 409 
Q 2359 409 2629 706 
Q 2900 1003 2900 1516 
L 2900 3500 
L 3475 3500 
L 3475 0 
L 2900 0 
L 2900 538 
Q 2691 219 2414 64 
Q 2138 -91 1772 -91 
Q 1169 -91 856 284 
Q 544 659 544 1381 
z
M 1991 3584 
L 1991 3584 
z
" id="DejaVuSans-75" transform="scale(0.015625)"/>
       <path d="M 3513 2113 
L 3513 0 
L 2938 0 
L 2938 2094 
Q 2938 2591 2744 2837 
Q 2550 3084 2163 3084 
Q 1697 3084 1428 2787 
Q 1159 2491 1159 1978 
L 1159 0 
L 581 0 
L 581 3500 
L 1159 3500 
L 1159 2956 
Q 1366 3272 1645 3428 
Q 1925 3584 2291 3584 
Q 2894 3584 3203 3211 
Q 3513 2838 3513 2113 
z
" id="DejaVuSans-6e" transform="scale(0.015625)"/>
       <path d="M 603 3500 
L 1178 3500 
L 1178 0 
L 603 0 
L 603 3500 
z
M 603 4863 
L 1178 4863 
L 1178 4134 
L 603 4134 
L 603 4863 
z
" id="DejaVuSans-69" transform="scale(0.015625)"/>
       <path d="M 3122 3366 
L 3122 2828 
Q 2878 2963 2633 3030 
Q 2388 3097 2138 3097 
Q 1578 3097 1268 2742 
Q 959 2388 959 1747 
Q 959 1106 1268 751 
Q 1578 397 2138 397 
Q 2388 397 2633 464 
Q 2878 531 3122 666 
L 3122 134 
Q 2881 22 2623 -34 
Q 2366 -91 2075 -91 
Q 1284 -91 818 406 
Q 353 903 353 1747 
Q 353 2603 823 3093 
Q 1294 3584 2113 3584 
Q 2378 3584 2631 3529 
Q 2884 3475 3122 3366 
z
" id="DejaVuSans-63" transform="scale(0.015625)"/>
       <path d="M 1172 4494 
L 1172 3500 
L 2356 3500 
L 2356 3053 
L 1172 3053 
L 1172 1153 
Q 1172 725 1289 603 
Q 1406 481 1766 481 
L 2356 481 
L 2356 0 
L 1766 0 
Q 1100 0 847 248 
Q 594 497 594 1153 
L 594 3053 
L 172 3053 
L 172 3500 
L 594 3500 
L 594 4494 
L 1172 4494 
z
" id="DejaVuSans-74" transform="scale(0.015625)"/>
       <path d="M 2841 2188 
Q 3044 2119 3236 1894 
Q 3428 1669 3622 1275 
L 4263 0 
L 3584 0 
L 2988 1197 
Q 2756 1666 2539 1819 
Q 2322 1972 1947 1972 
L 1259 1972 
L 1259 0 
L 628 0 
L 628 4666 
L 2053 4666 
Q 2853 4666 3247 4331 
Q 3641 3997 3641 3322 
Q 3641 2881 3436 2590 
Q 3231 2300 2841 2188 
z
M 1259 4147 
L 1259 2491 
L 2053 2491 
Q 2509 2491 2742 2702 
Q 2975 2913 2975 3322 
Q 2975 3731 2742 3939 
Q 2509 4147 2053 4147 
L 1259 4147 
z
" id="DejaVuSans-52" transform="scale(0.015625)"/>
       <path d="M 2906 2969 
L 2906 4863 
L 3481 4863 
L 3481 0 
L 2906 0 
L 2906 525 
Q 2725 213 2448 61 
Q 2172 -91 1784 -91 
Q 1150 -91 751 415 
Q 353 922 353 1747 
Q 353 2572 751 3078 
Q 1150 3584 1784 3584 
Q 2172 3584 2448 3432 
Q 2725 3281 2906 2969 
z
M 947 1747 
Q 947 1113 1208 752 
Q 1469 391 1925 391 
Q 2381 391 2643 752 
Q 2906 1113 2906 1747 
Q 2906 2381 2643 2742 
Q 2381 3103 1925 3103 
Q 1469 3103 1208 2742 
Q 947 2381 947 1747 
z
" id="DejaVuSans-64" transform="scale(0.015625)"/>
       <path d="M 2834 3397 
L 2834 2853 
Q 2591 2978 2328 3040 
Q 2066 3103 1784 3103 
Q 1356 3103 1142 2972 
Q 928 2841 928 2578 
Q 928 2378 1081 2264 
Q 1234 2150 1697 2047 
L 1894 2003 
Q 2506 1872 2764 1633 
Q 3022 1394 3022 966 
Q 3022 478 2636 193 
Q 2250 -91 1575 -91 
Q 1294 -91 989 -36 
Q 684 19 347 128 
L 347 722 
Q 666 556 975 473 
Q 1284 391 1588 391 
Q 1994 391 2212 530 
Q 2431 669 2431 922 
Q 2431 1156 2273 1281 
Q 2116 1406 1581 1522 
L 1381 1569 
Q 847 1681 609 1914 
Q 372 2147 372 2553 
Q 372 3047 722 3315 
Q 1072 3584 1716 3584 
Q 2034 3584 2315 3537 
Q 2597 3491 2834 3397 
z
" id="DejaVuSans-73" transform="scale(0.015625)"/>
      </defs>
      <use xlink:href="#DejaVuSans-47"/>
      <use x="77.490234" xlink:href="#DejaVuSans-6c"/>
      <use x="105.273438" xlink:href="#DejaVuSans-6f"/>
      <use x="166.455078" xlink:href="#DejaVuSans-62"/>
      <use x="229.931641" xlink:href="#DejaVuSans-61"/>
      <use x="291.210938" xlink:href="#DejaVuSans-6c"/>
      <use x="318.994141" xlink:href="#DejaVuSans-20"/>
      <use x="350.78125" xlink:href="#DejaVuSans-43"/>
      <use x="420.605469" xlink:href="#DejaVuSans-6f"/>
      <use x="481.787109" xlink:href="#DejaVuSans-6d"/>
      <use x="579.199219" xlink:href="#DejaVuSans-6d"/>
      <use x="676.611328" xlink:href="#DejaVuSans-75"/>
      <use x="739.990234" xlink:href="#DejaVuSans-6e"/>
      <use x="803.369141" xlink:href="#DejaVuSans-69"/>
      <use x="831.152344" xlink:href="#DejaVuSans-63"/>
      <use x="886.132812" xlink:href="#DejaVuSans-61"/>
      <use x="947.412109" xlink:href="#DejaVuSans-74"/>
      <use x="986.621094" xlink:href="#DejaVuSans-69"/>
      <use x="1014.404297" xlink:href="#DejaVuSans-6f"/>
      <use x="1075.585938" xlink:href="#DejaVuSans-6e"/>
      <use x="1138.964844" xlink:href="#DejaVuSans-20"/>
      <use x="1170.751953" xlink:href="#DejaVuSans-52"/>
      <use x="1235.734375" xlink:href="#DejaVuSans-6f"/>
      <use x="1296.916016" xlink:href="#DejaVuSans-75"/>
      <use x="1360.294922" xlink:href="#DejaVuSans-6e"/>
      <use x="1423.673828" xlink:href="#DejaVuSans-64"/>
      <use x="1487.150391" xlink:href="#DejaVuSans-73"/>
     </g>
    </g>
   </g>
   <g id="matplotlib.axis_2">
    <g id="ytick_1">
     <g id="line2d_7">
      <defs>
       <path d="M 0 0 
L -3.5 0 
" id="m3e2251bc10" style="stroke:#000000;stroke-width:0.8;"/>
      </defs>
      <g>
       <use style="stroke:#000000;stroke-width:0.8;" x="44.66" xlink:href="#m3e2251bc10" y="280.956515"/>
      </g>
     </g>
     <g id="text_8">
      <!-- 88 -->
      <g transform="translate(24.935 284.755733)scale(0.1 -0.1)">
       <defs>
        <path d="M 2034 2216 
Q 1584 2216 1326 1975 
Q 1069 1734 1069 1313 
Q 1069 891 1326 650 
Q 1584 409 2034 409 
Q 2484 409 2743 651 
Q 3003 894 3003 1313 
Q 3003 1734 2745 1975 
Q 2488 2216 2034 2216 
z
M 1403 2484 
Q 997 2584 770 2862 
Q 544 3141 544 3541 
Q 544 4100 942 4425 
Q 1341 4750 2034 4750 
Q 2731 4750 3128 4425 
Q 3525 4100 3525 3541 
Q 3525 3141 3298 2862 
Q 3072 2584 2669 2484 
Q 3125 2378 3379 2068 
Q 3634 1759 3634 1313 
Q 3634 634 3220 271 
Q 2806 -91 2034 -91 
Q 1263 -91 848 271 
Q 434 634 434 1313 
Q 434 1759 690 2068 
Q 947 2378 1403 2484 
z
M 1172 3481 
Q 1172 3119 1398 2916 
Q 1625 2713 2034 2713 
Q 2441 2713 2670 2916 
Q 2900 3119 2900 3481 
Q 2900 3844 2670 4047 
Q 2441 4250 2034 4250 
Q 1625 4250 1398 4047 
Q 1172 3844 1172 3481 
z
" id="DejaVuSans-38" transform="scale(0.015625)"/>
       </defs>
       <use xlink:href="#DejaVuSans-38"/>
       <use x="63.623047" xlink:href="#DejaVuSans-38"/>
      </g>
     </g>
    </g>
    <g id="ytick_2">
     <g id="line2d_8">
      <g>
       <use style="stroke:#000000;stroke-width:0.8;" x="44.66" xlink:href="#m3e2251bc10" y="237.711728"/>
      </g>
     </g>
     <g id="text_9">
      <!-- 90 -->
      <g transform="translate(24.935 241.510947)scale(0.1 -0.1)">
       <defs>
        <path d="M 703 97 
L 703 672 
Q 941 559 1184 500 
Q 1428 441 1663 441 
Q 2288 441 2617 861 
Q 2947 1281 2994 2138 
Q 2813 1869 2534 1725 
Q 2256 1581 1919 1581 
Q 1219 1581 811 2004 
Q 403 2428 403 3163 
Q 403 3881 828 4315 
Q 1253 4750 1959 4750 
Q 2769 4750 3195 4129 
Q 3622 3509 3622 2328 
Q 3622 1225 3098 567 
Q 2575 -91 1691 -91 
Q 1453 -91 1209 -44 
Q 966 3 703 97 
z
M 1959 2075 
Q 2384 2075 2632 2365 
Q 2881 2656 2881 3163 
Q 2881 3666 2632 3958 
Q 2384 4250 1959 4250 
Q 1534 4250 1286 3958 
Q 1038 3666 1038 3163 
Q 1038 2656 1286 2365 
Q 1534 2075 1959 2075 
z
" id="DejaVuSans-39" transform="scale(0.015625)"/>
       </defs>
       <use xlink:href="#DejaVuSans-39"/>
       <use x="63.623047" xlink:href="#DejaVuSans-30"/>
      </g>
     </g>
    </g>
    <g id="ytick_3">
     <g id="line2d_9">
      <g>
       <use style="stroke:#000000;stroke-width:0.8;" x="44.66" xlink:href="#m3e2251bc10" y="194.466941"/>
      </g>
     </g>
     <g id="text_10">
      <!-- 92 -->
      <g transform="translate(24.935 198.26616)scale(0.1 -0.1)">
       <use xlink:href="#DejaVuSans-39"/>
       <use x="63.623047" xlink:href="#DejaVuSans-32"/>
      </g>
     </g>
    </g>
    <g id="ytick_4">
     <g id="line2d_10">
      <g>
       <use style="stroke:#000000;stroke-width:0.8;" x="44.66" xlink:href="#m3e2251bc10" y="151.222154"/>
      </g>
     </g>
     <g id="text_11">
      <!-- 94 -->
      <g transform="translate(24.935 155.021373)scale(0.1 -0.1)">
       <use xlink:href="#DejaVuSans-39"/>
       <use x="63.623047" xlink:href="#DejaVuSans-34"/>
      </g>
     </g>
    </g>
    <g id="ytick_5">
     <g id="line2d_11">
      <g>
       <use style="stroke:#000000;stroke-width:0.8;" x="44.66" xlink:href="#m3e2251bc10" y="107.977367"/>
      </g>
     </g>
     <g id="text_12">
      <!-- 96 -->
      <g transform="translate(24.935 111.776586)scale(0.1 -0.1)">
       <defs>
        <path d="M 2113 2584 
Q 1688 2584 1439 2293 
Q 1191 2003 1191 1497 
Q 1191 994 1439 701 
Q 1688 409 2113 409 
Q 2538 409 2786 701 
Q 3034 994 3034 1497 
Q 3034 2003 2786 2293 
Q 2538 2584 2113 2584 
z
M 3366 4563 
L 3366 3988 
Q 3128 4100 2886 4159 
Q 2644 4219 2406 4219 
Q 1781 4219 1451 3797 
Q 1122 3375 1075 2522 
Q 1259 2794 1537 2939 
Q 1816 3084 2150 3084 
Q 2853 3084 3261 2657 
Q 3669 2231 3669 1497 
Q 3669 778 3244 343 
Q 2819 -91 2113 -91 
Q 1303 -91 875 529 
Q 447 1150 447 2328 
Q 447 3434 972 4092 
Q 1497 4750 2381 4750 
Q 2619 4750 2861 4703 
Q 3103 4656 3366 4563 
z
" id="DejaVuSans-36" transform="scale(0.015625)"/>
       </defs>
       <use xlink:href="#DejaVuSans-39"/>
       <use x="63.623047" xlink:href="#DejaVuSans-36"/>
      </g>
     </g>
    </g>
    <g id="ytick_6">
     <g id="line2d_12">
      <g>
       <use style="stroke:#000000;stroke-width:0.8;" x="44.66" xlink:href="#m3e2251bc10" y="64.73258"/>
      </g>
     </g>
     <g id="text_13">
      <!-- 98 -->
      <g transform="translate(24.935 68.531799)scale(0.1 -0.1)">
       <use xlink:href="#DejaVuSans-39"/>
       <use x="63.623047" xlink:href="#DejaVuSans-38"/>
      </g>
     </g>
    </g>
    <g id="text_14">
     <!-- Test Accuracy -->
     <g transform="translate(18.855312 210.2725)rotate(-90)scale(0.1 -0.1)">
      <defs>
       <path d="M -19 4666 
L 3928 4666 
L 3928 4134 
L 2272 4134 
L 2272 0 
L 1638 0 
L 1638 4134 
L -19 4134 
L -19 4666 
z
" id="DejaVuSans-54" transform="scale(0.015625)"/>
       <path d="M 3597 1894 
L 3597 1613 
L 953 1613 
Q 991 1019 1311 708 
Q 1631 397 2203 397 
Q 2534 397 2845 478 
Q 3156 559 3463 722 
L 3463 178 
Q 3153 47 2828 -22 
Q 2503 -91 2169 -91 
Q 1331 -91 842 396 
Q 353 884 353 1716 
Q 353 2575 817 3079 
Q 1281 3584 2069 3584 
Q 2775 3584 3186 3129 
Q 3597 2675 3597 1894 
z
M 3022 2063 
Q 3016 2534 2758 2815 
Q 2500 3097 2075 3097 
Q 1594 3097 1305 2825 
Q 1016 2553 972 2059 
L 3022 2063 
z
" id="DejaVuSans-65" transform="scale(0.015625)"/>
       <path d="M 2188 4044 
L 1331 1722 
L 3047 1722 
L 2188 4044 
z
M 1831 4666 
L 2547 4666 
L 4325 0 
L 3669 0 
L 3244 1197 
L 1141 1197 
L 716 0 
L 50 0 
L 1831 4666 
z
" id="DejaVuSans-41" transform="scale(0.015625)"/>
       <path d="M 2631 2963 
Q 2534 3019 2420 3045 
Q 2306 3072 2169 3072 
Q 1681 3072 1420 2755 
Q 1159 2438 1159 1844 
L 1159 0 
L 581 0 
L 581 3500 
L 1159 3500 
L 1159 2956 
Q 1341 3275 1631 3429 
Q 1922 3584 2338 3584 
Q 2397 3584 2469 3576 
Q 2541 3569 2628 3553 
L 2631 2963 
z
" id="DejaVuSans-72" transform="scale(0.015625)"/>
       <path d="M 2059 -325 
Q 1816 -950 1584 -1140 
Q 1353 -1331 966 -1331 
L 506 -1331 
L 506 -850 
L 844 -850 
Q 1081 -850 1212 -737 
Q 1344 -625 1503 -206 
L 1606 56 
L 191 3500 
L 800 3500 
L 1894 763 
L 2988 3500 
L 3597 3500 
L 2059 -325 
z
" id="DejaVuSans-79" transform="scale(0.015625)"/>
      </defs>
      <use xlink:href="#DejaVuSans-54"/>
      <use x="44.083984" xlink:href="#DejaVuSans-65"/>
      <use x="105.607422" xlink:href="#DejaVuSans-73"/>
      <use x="157.707031" xlink:href="#DejaVuSans-74"/>
      <use x="196.916016" xlink:href="#DejaVuSans-20"/>
      <use x="228.703125" xlink:href="#DejaVuSans-41"/>
      <use x="295.361328" xlink:href="#DejaVuSans-63"/>
      <use x="350.341797" xlink:href="#DejaVuSans-63"/>
      <use x="405.322266" xlink:href="#DejaVuSans-75"/>
      <use x="468.701172" xlink:href="#DejaVuSans-72"/>
      <use x="509.814453" xlink:href="#DejaVuSans-61"/>
      <use x="571.09375" xlink:href="#DejaVuSans-63"/>
      <use x="626.074219" xlink:href="#DejaVuSans-79"/>
     </g>
    </g>
   </g>
   <g id="line2d_13">
    <path clip-path="url(#pe487d804d1)" d="M 63.084545 211.983817 
L 70.604768 153.411764 
L 78.124991 141.916314 
L 85.645213 138.084497 
L 93.165436 124.399438 
L 100.685659 116.735805 
L 108.205881 107.429965 
L 115.726104 108.52477 
L 123.246327 101.955941 
L 130.766549 99.218929 
L 138.286772 97.02932 
L 145.806994 94.292308 
L 153.327217 98.124125 
L 160.84744 96.481918 
L 168.367662 92.650101 
L 175.887885 91.555296 
L 183.408108 92.650101 
L 190.92833 88.270882 
L 198.448553 88.818284 
L 205.968776 87.176077 
L 213.488998 86.628675 
L 221.009221 84.439066 
L 228.529443 86.628675 
L 236.049666 87.72348 
L 243.569889 88.270882 
L 251.090111 81.154651 
L 258.610334 80.607249 
L 266.130557 81.154651 
L 273.650779 82.796858 
L 281.171002 83.344261 
L 288.691224 77.322835 
L 296.211447 82.796858 
L 303.73167 78.965042 
L 311.251892 75.133225 
L 318.772115 75.680628 
L 326.292338 72.943616 
L 333.81256 72.396214 
L 341.332783 68.564397 
L 348.853006 69.111799 
L 356.373228 68.564397 
L 363.893451 68.016995 
L 371.413673 68.564397 
L 378.933896 71.301409 
L 386.454119 65.827385 
L 393.974341 68.564397 
L 401.494564 67.469592 
L 409.014787 67.469592 
L 416.535009 68.016995 
L 424.055232 69.659202 
L 431.575455 64.185178 
" style="fill:none;stroke:#1f77b4;stroke-linecap:square;stroke-width:1.5;"/>
   </g>
   <g id="line2d_14">
    <path clip-path="url(#pe487d804d1)" d="M 63.084545 230.048095 
L 70.604768 161.622799 
L 78.124991 151.769556 
L 85.645213 142.463716 
L 93.165436 132.063071 
L 100.685659 120.567622 
L 108.205881 117.283207 
L 115.726104 115.641 
L 123.246327 114.546196 
L 130.766549 107.977367 
L 138.286772 101.408539 
L 145.806994 100.313734 
L 153.327217 101.955941 
L 160.84744 101.955941 
L 168.367662 98.124125 
L 175.887885 97.576722 
L 183.408108 93.744906 
L 190.92833 92.650101 
L 198.448553 93.197503 
L 205.968776 93.744906 
L 213.488998 93.197503 
L 221.009221 92.650101 
L 228.529443 92.650101 
L 236.049666 92.102699 
L 243.569889 89.365687 
L 251.090111 89.913089 
L 258.610334 88.818284 
L 266.130557 86.081273 
L 273.650779 91.007894 
L 281.171002 89.365687 
L 288.691224 86.081273 
L 296.211447 86.081273 
L 303.73167 88.270882 
L 311.251892 87.72348 
L 318.772115 84.439066 
L 326.292338 82.249456 
L 333.81256 81.154651 
L 341.332783 82.249456 
L 348.853006 79.512444 
L 356.373228 81.702054 
L 363.893451 83.891663 
L 371.413673 82.249456 
L 378.933896 81.702054 
L 386.454119 78.965042 
L 393.974341 76.22803 
L 401.494564 77.322835 
L 409.014787 76.775432 
L 416.535009 76.22803 
L 424.055232 78.965042 
L 431.575455 78.41764 
" style="fill:none;stroke:#ff7f0e;stroke-linecap:square;stroke-width:1.5;"/>
   </g>
   <g id="line2d_15">
    <path clip-path="url(#pe487d804d1)" d="M 63.084545 253.586396 
L 70.604768 173.118249 
L 78.124991 153.411764 
L 85.645213 132.610474 
L 93.165436 132.063071 
L 100.685659 124.946841 
L 108.205881 120.567622 
L 115.726104 112.356586 
L 123.246327 106.882563 
L 130.766549 99.766332 
L 138.286772 100.313734 
L 145.806994 100.861137 
L 153.327217 98.124125 
L 160.84744 95.387113 
L 168.367662 94.839711 
L 175.887885 95.387113 
L 183.408108 90.460492 
L 190.92833 88.270882 
L 198.448553 90.460492 
L 205.968776 87.72348 
L 213.488998 87.72348 
L 221.009221 89.365687 
L 228.529443 88.818284 
L 236.049666 88.818284 
L 243.569889 86.628675 
L 251.090111 84.986468 
L 258.610334 88.270882 
L 266.130557 83.891663 
L 273.650779 84.439066 
L 281.171002 84.439066 
L 288.691224 81.154651 
L 296.211447 84.986468 
L 303.73167 82.249456 
L 311.251892 81.702054 
L 318.772115 84.439066 
L 326.292338 80.059847 
L 333.81256 82.796858 
L 341.332783 82.796858 
L 348.853006 79.512444 
L 356.373228 78.965042 
L 363.893451 78.965042 
L 371.413673 79.512444 
L 378.933896 80.607249 
L 386.454119 77.870237 
L 393.974341 78.965042 
L 401.494564 79.512444 
L 409.014787 78.41764 
L 416.535009 79.512444 
L 424.055232 78.965042 
L 431.575455 77.870237 
" style="fill:none;stroke:#2ca02c;stroke-linecap:square;stroke-width:1.5;"/>
   </g>
   <g id="line2d_16">
    <path clip-path="url(#pe487d804d1)" d="M 63.084545 249.214841 
L 70.604768 203.937549 
L 78.124991 186.466655 
L 85.645213 174.574339 
L 93.165436 165.146975 
L 100.685659 157.319669 
L 108.205881 150.357258 
L 115.726104 144.994905 
L 123.246327 139.97851 
L 130.766549 137.210843 
L 138.286772 133.83775 
L 145.806994 131.891734 
L 153.327217 130.205188 
L 160.84744 127.999704 
L 168.367662 126.70236 
L 175.887885 125.534751 
L 183.408108 124.453631 
L 190.92833 124.496876 
L 198.448553 123.199532 
L 205.968776 122.55086 
L 213.488998 121.469741 
L 221.009221 122.377881 
L 228.529443 121.080538 
L 236.049666 120.994048 
L 243.569889 120.388621 
L 251.090111 120.215642 
L 258.610334 119.307501 
L 266.130557 119.956173 
L 273.650779 119.912928 
L 281.171002 119.221012 
L 288.691224 119.393991 
L 296.211447 119.523725 
L 303.73167 119.134522 
L 311.251892 119.048033 
L 318.772115 119.091277 
L 326.292338 118.788564 
L 333.81256 118.139892 
L 341.332783 118.312871 
L 348.853006 118.053403 
L 356.373228 118.226382 
L 363.893451 118.053403 
L 371.413673 118.053403 
L 378.933896 118.183137 
L 386.454119 117.57771 
L 393.974341 117.880423 
L 401.494564 117.966913 
L 409.014787 117.707444 
L 416.535009 117.49122 
L 424.055232 117.49122 
L 431.575455 117.361486 
" style="fill:none;stroke:#d62728;stroke-linecap:square;stroke-width:1.5;"/>
   </g>
   <g id="patch_3">
    <path d="M 44.66 303.64 
L 44.66 48.38 
" style="fill:none;stroke:#000000;stroke-linecap:square;stroke-linejoin:miter;stroke-width:0.8;"/>
   </g>
   <g id="patch_4">
    <path d="M 450 303.64 
L 450 48.38 
" style="fill:none;stroke:#000000;stroke-linecap:square;stroke-linejoin:miter;stroke-width:0.8;"/>
   </g>
   <g id="patch_5">
    <path d="M 44.66 303.64 
L 450 303.64 
" style="fill:none;stroke:#000000;stroke-linecap:square;stroke-linejoin:miter;stroke-width:0.8;"/>
   </g>
   <g id="patch_6">
    <path d="M 44.66 48.38 
L 450 48.38 
" style="fill:none;stroke:#000000;stroke-linecap:square;stroke-linejoin:miter;stroke-width:0.8;"/>
   </g>
   <g id="text_15">
    <!-- Local Rounds 05 -->
    <g transform="translate(198.219063 20.88)scale(0.12 -0.12)">
     <defs>
      <path d="M 628 4666 
L 1259 4666 
L 1259 531 
L 3531 531 
L 3531 0 
L 628 0 
L 628 4666 
z
" id="DejaVuSans-4c" transform="scale(0.015625)"/>
     </defs>
     <use xlink:href="#DejaVuSans-4c"/>
     <use x="53.962891" xlink:href="#DejaVuSans-6f"/>
     <use x="115.144531" xlink:href="#DejaVuSans-63"/>
     <use x="170.125" xlink:href="#DejaVuSans-61"/>
     <use x="231.404297" xlink:href="#DejaVuSans-6c"/>
     <use x="259.1875" xlink:href="#DejaVuSans-20"/>
     <use x="290.974609" xlink:href="#DejaVuSans-52"/>
     <use x="355.957031" xlink:href="#DejaVuSans-6f"/>
     <use x="417.138672" xlink:href="#DejaVuSans-75"/>
     <use x="480.517578" xlink:href="#DejaVuSans-6e"/>
     <use x="543.896484" xlink:href="#DejaVuSans-64"/>
     <use x="607.373047" xlink:href="#DejaVuSans-73"/>
     <use x="659.472656" xlink:href="#DejaVuSans-20"/>
     <use x="691.259766" xlink:href="#DejaVuSans-30"/>
     <use x="754.882812" xlink:href="#DejaVuSans-35"/>
    </g>
   </g>
   <g id="legend_1">
    <g id="patch_7">
     <path d="M 80.931563 45.532125 
L 413.728438 45.532125 
Q 415.728438 45.532125 415.728438 43.532125 
L 415.728438 29.854 
Q 415.728438 27.854 413.728438 27.854 
L 80.931563 27.854 
Q 78.931563 27.854 78.931563 29.854 
L 78.931563 43.532125 
Q 78.931563 45.532125 80.931563 45.532125 
z
" style="fill:#ffffff;opacity:0.8;stroke:#cccccc;stroke-linejoin:miter;"/>
    </g>
    <g id="line2d_17">
     <path d="M 82.931563 35.952438 
L 102.931563 35.952438 
" style="fill:none;stroke:#1f77b4;stroke-linecap:square;stroke-width:1.5;"/>
    </g>
    <g id="line2d_18"/>
    <g id="text_16">
     <!-- FedAvg -->
     <g transform="translate(110.931563 39.452438)scale(0.1 -0.1)">
      <defs>
       <path d="M 628 4666 
L 3309 4666 
L 3309 4134 
L 1259 4134 
L 1259 2759 
L 3109 2759 
L 3109 2228 
L 1259 2228 
L 1259 0 
L 628 0 
L 628 4666 
z
" id="DejaVuSans-46" transform="scale(0.015625)"/>
       <path d="M 191 3500 
L 800 3500 
L 1894 563 
L 2988 3500 
L 3597 3500 
L 2284 0 
L 1503 0 
L 191 3500 
z
" id="DejaVuSans-76" transform="scale(0.015625)"/>
       <path d="M 2906 1791 
Q 2906 2416 2648 2759 
Q 2391 3103 1925 3103 
Q 1463 3103 1205 2759 
Q 947 2416 947 1791 
Q 947 1169 1205 825 
Q 1463 481 1925 481 
Q 2391 481 2648 825 
Q 2906 1169 2906 1791 
z
M 3481 434 
Q 3481 -459 3084 -895 
Q 2688 -1331 1869 -1331 
Q 1566 -1331 1297 -1286 
Q 1028 -1241 775 -1147 
L 775 -588 
Q 1028 -725 1275 -790 
Q 1522 -856 1778 -856 
Q 2344 -856 2625 -561 
Q 2906 -266 2906 331 
L 2906 616 
Q 2728 306 2450 153 
Q 2172 0 1784 0 
Q 1141 0 747 490 
Q 353 981 353 1791 
Q 353 2603 747 3093 
Q 1141 3584 1784 3584 
Q 2172 3584 2450 3431 
Q 2728 3278 2906 2969 
L 2906 3500 
L 3481 3500 
L 3481 434 
z
" id="DejaVuSans-67" transform="scale(0.015625)"/>
      </defs>
      <use xlink:href="#DejaVuSans-46"/>
      <use x="52.019531" xlink:href="#DejaVuSans-65"/>
      <use x="113.542969" xlink:href="#DejaVuSans-64"/>
      <use x="177.019531" xlink:href="#DejaVuSans-41"/>
      <use x="239.552734" xlink:href="#DejaVuSans-76"/>
      <use x="298.732422" xlink:href="#DejaVuSans-67"/>
     </g>
    </g>
    <g id="line2d_19">
     <path d="M 167.155 35.952438 
L 187.155 35.952438 
" style="fill:none;stroke:#ff7f0e;stroke-linecap:square;stroke-width:1.5;"/>
    </g>
    <g id="line2d_20"/>
    <g id="text_17">
     <!-- FedMed -->
     <g transform="translate(195.155 39.452438)scale(0.1 -0.1)">
      <defs>
       <path d="M 628 4666 
L 1569 4666 
L 2759 1491 
L 3956 4666 
L 4897 4666 
L 4897 0 
L 4281 0 
L 4281 4097 
L 3078 897 
L 2444 897 
L 1241 4097 
L 1241 0 
L 628 0 
L 628 4666 
z
" id="DejaVuSans-4d" transform="scale(0.015625)"/>
      </defs>
      <use xlink:href="#DejaVuSans-46"/>
      <use x="52.019531" xlink:href="#DejaVuSans-65"/>
      <use x="113.542969" xlink:href="#DejaVuSans-64"/>
      <use x="177.019531" xlink:href="#DejaVuSans-4d"/>
      <use x="263.298828" xlink:href="#DejaVuSans-65"/>
      <use x="324.822266" xlink:href="#DejaVuSans-64"/>
     </g>
    </g>
    <g id="line2d_21">
     <path d="M 253.987813 35.952438 
L 273.987813 35.952438 
" style="fill:none;stroke:#2ca02c;stroke-linecap:square;stroke-width:1.5;"/>
    </g>
    <g id="line2d_22"/>
    <g id="text_18">
     <!-- FedProx -->
     <g transform="translate(281.987813 39.452438)scale(0.1 -0.1)">
      <defs>
       <path d="M 1259 4147 
L 1259 2394 
L 2053 2394 
Q 2494 2394 2734 2622 
Q 2975 2850 2975 3272 
Q 2975 3691 2734 3919 
Q 2494 4147 2053 4147 
L 1259 4147 
z
M 628 4666 
L 2053 4666 
Q 2838 4666 3239 4311 
Q 3641 3956 3641 3272 
Q 3641 2581 3239 2228 
Q 2838 1875 2053 1875 
L 1259 1875 
L 1259 0 
L 628 0 
L 628 4666 
z
" id="DejaVuSans-50" transform="scale(0.015625)"/>
       <path d="M 3513 3500 
L 2247 1797 
L 3578 0 
L 2900 0 
L 1881 1375 
L 863 0 
L 184 0 
L 1544 1831 
L 300 3500 
L 978 3500 
L 1906 2253 
L 2834 3500 
L 3513 3500 
z
" id="DejaVuSans-78" transform="scale(0.015625)"/>
      </defs>
      <use xlink:href="#DejaVuSans-46"/>
      <use x="52.019531" xlink:href="#DejaVuSans-65"/>
      <use x="113.542969" xlink:href="#DejaVuSans-64"/>
      <use x="177.019531" xlink:href="#DejaVuSans-50"/>
      <use x="235.572266" xlink:href="#DejaVuSans-72"/>
      <use x="274.435547" xlink:href="#DejaVuSans-6f"/>
      <use x="332.492188" xlink:href="#DejaVuSans-78"/>
     </g>
    </g>
    <g id="line2d_23">
     <path d="M 341.156563 35.952438 
L 361.156563 35.952438 
" style="fill:none;stroke:#d62728;stroke-linecap:square;stroke-width:1.5;"/>
    </g>
    <g id="line2d_24"/>
    <g id="text_19">
     <!-- qFedAvg -->
     <g transform="translate(369.156563 39.452438)scale(0.1 -0.1)">
      <defs>
       <path d="M 947 1747 
Q 947 1113 1208 752 
Q 1469 391 1925 391 
Q 2381 391 2643 752 
Q 2906 1113 2906 1747 
Q 2906 2381 2643 2742 
Q 2381 3103 1925 3103 
Q 1469 3103 1208 2742 
Q 947 2381 947 1747 
z
M 2906 525 
Q 2725 213 2448 61 
Q 2172 -91 1784 -91 
Q 1150 -91 751 415 
Q 353 922 353 1747 
Q 353 2572 751 3078 
Q 1150 3584 1784 3584 
Q 2172 3584 2448 3432 
Q 2725 3281 2906 2969 
L 2906 3500 
L 3481 3500 
L 3481 -1331 
L 2906 -1331 
L 2906 525 
z
" id="DejaVuSans-71" transform="scale(0.015625)"/>
      </defs>
      <use xlink:href="#DejaVuSans-71"/>
      <use x="63.476562" xlink:href="#DejaVuSans-46"/>
      <use x="115.496094" xlink:href="#DejaVuSans-65"/>
      <use x="177.019531" xlink:href="#DejaVuSans-64"/>
      <use x="240.496094" xlink:href="#DejaVuSans-41"/>
      <use x="303.029297" xlink:href="#DejaVuSans-76"/>
      <use x="362.208984" xlink:href="#DejaVuSans-67"/>
     </g>
    </g>
   </g>
  </g>
 </g>
 <defs>
  <clipPath id="pe487d804d1">
   <rect height="255.26" width="405.34" x="44.66" y="48.38"/>
  </clipPath>
 </defs>
</svg>
