<?xml version="1.0" encoding="utf-8" standalone="no"?>
<!DOCTYPE svg PUBLIC "-//W3C//DTD SVG 1.1//EN"
  "http://www.w3.org/Graphics/SVG/1.1/DTD/svg11.dtd">
<svg height="345.6pt" version="1.1" viewBox="0 0 460.8 345.6" width="460.8pt" xmlns="http://www.w3.org/2000/svg" xmlns:xlink="http://www.w3.org/1999/xlink">
 <metadata>
  <rdf:RDF xmlns:cc="http://creativecommons.org/ns#" xmlns:dc="http://purl.org/dc/elements/1.1/" xmlns:rdf="http://www.w3.org/1999/02/22-rdf-syntax-ns#">
   <cc:Work>
    <dc:type rdf:resource="http://purl.org/dc/dcmitype/StillImage"/>
    <dc:date>2021-05-05T21:55:36.814192</dc:date>
    <dc:format>image/svg+xml</dc:format>
    <dc:creator>
     <cc:Agent>
      <dc:title>Matplotlib v3.4.1, https://matplotlib.org/</dc:title>
     </cc:Agent>
    </dc:creator>
   </cc:Work>
  </rdf:RDF>
 </metadata>
 <defs>
  <style type="text/css">*{stroke-linecap:butt;stroke-linejoin:round;}</style>
 </defs>
 <g id="figure_1">
  <g id="patch_1">
   <path d="M 0 345.6 
L 460.8 345.6 
L 460.8 0 
L 0 0 
z
" style="fill:#ffffff;"/>
  </g>
  <g id="axes_1">
   <g id="patch_2">
    <path d="M 50.87 303.64 
L 450 303.64 
L 450 48.38 
L 50.87 48.38 
z
" style="fill:#ffffff;"/>
   </g>
   <g id="PolyCollection_1">
    <path clip-path="url(#p82ddb96a51)" d="M 69.012273 127.142838 
L 69.012273 148.564278 
L 76.417282 109.977649 
L 83.822291 103.088422 
L 91.227301 95.140071 
L 98.63231 87.398909 
L 106.037319 86.733558 
L 113.442328 83.371482 
L 120.847338 79.074551 
L 128.252347 78.557794 
L 135.657356 76.022537 
L 143.062365 75.511038 
L 150.467375 75.131136 
L 157.872384 72.018289 
L 165.277393 72.357993 
L 172.682403 70.387874 
L 180.087412 70.579279 
L 187.492421 71.632708 
L 194.89743 73.455698 
L 202.30244 71.338618 
L 209.707449 71.316492 
L 217.112458 71.23458 
L 224.517468 69.595324 
L 231.922477 70.050379 
L 239.327486 70.387874 
L 246.732495 72.325654 
L 254.137505 71.180424 
L 261.542514 69.973453 
L 268.947523 71.23458 
L 276.352532 69.973453 
L 283.757542 69.041218 
L 291.162551 68.586163 
L 298.56756 69.466907 
L 305.97257 68.586163 
L 313.377579 69.196714 
L 320.782588 67.27408 
L 328.187597 67.820164 
L 335.592607 66.747435 
L 342.997616 65.837325 
L 350.402625 65.999944 
L 357.807635 67.376494 
L 365.212644 64.794263 
L 372.617653 66.36397 
L 380.022662 64.794263 
L 387.427672 64.998805 
L 394.832681 65.837325 
L 402.23769 66.02873 
L 409.642699 68.063268 
L 417.047709 66.02873 
L 424.452718 67.082159 
L 431.857727 65.54489 
L 431.857727 60.904222 
L 431.857727 60.904222 
L 424.452718 62.097282 
L 417.047709 63.150711 
L 409.642699 62.026283 
L 402.23769 63.150711 
L 394.832681 62.432006 
L 387.427672 60.540196 
L 380.022662 62.564958 
L 372.617653 61.905361 
L 365.212644 62.564958 
L 357.807635 59.982727 
L 350.402625 61.359277 
L 342.997616 62.432006 
L 335.592607 63.342116 
L 328.187597 63.179496 
L 320.782588 62.815471 
L 313.377579 61.802947 
L 305.97257 62.413498 
L 298.56756 61.532754 
L 291.162551 62.413498 
L 283.757542 62.868553 
L 276.352532 64.666647 
L 268.947523 63.40552 
L 261.542514 64.666647 
L 254.137505 64.369786 
L 246.732495 65.044775 
L 239.327486 66.982555 
L 231.922477 66.40994 
L 224.517468 65.954885 
L 217.112458 63.40552 
L 209.707449 65.143827 
L 202.30244 66.031811 
L 194.89743 66.64506 
L 187.492421 66.647831 
L 180.087412 67.701259 
L 172.682403 66.982555 
L 165.277393 65.922545 
L 157.872384 66.26225 
L 150.467375 66.789842 
L 143.062365 68.23016 
L 135.657356 68.62877 
L 128.252347 69.733952 
L 120.847338 73.767744 
L 113.442328 74.931471 
L 106.037319 76.119945 
L 98.63231 80.005142 
L 91.227301 85.005517 
L 83.822291 95.259362 
L 76.417282 106.57233 
L 69.012273 127.142838 
z
" style="fill:#1f77b4;fill-opacity:0.5;"/>
   </g>
   <g id="PolyCollection_2">
    <path clip-path="url(#p82ddb96a51)" d="M 69.012273 138.839745 
L 69.012273 163.260553 
L 76.417282 115.600927 
L 83.822291 106.589298 
L 91.227301 100.270426 
L 98.63231 90.982904 
L 106.037319 89.419636 
L 113.442328 81.459091 
L 120.847338 81.700842 
L 128.252347 81.551263 
L 135.657356 76.421148 
L 143.062365 77.786312 
L 150.467375 76.784263 
L 157.872384 73.573258 
L 165.277393 72.780708 
L 172.682403 71.620086 
L 180.087412 72.854554 
L 187.492421 74.099903 
L 194.89743 73.613892 
L 202.30244 71.870599 
L 209.707449 70.505434 
L 217.112458 71.297984 
L 224.517468 70.387874 
L 231.922477 72.370713 
L 239.327486 71.870599 
L 246.732495 70.579279 
L 254.137505 72.825768 
L 261.542514 71.165031 
L 268.947523 72.780708 
L 276.352532 71.297984 
L 283.757542 72.029171 
L 291.162551 70.579279 
L 298.56756 71.632708 
L 305.97257 70.550493 
L 313.377579 70.914519 
L 320.782588 71.632708 
L 328.187597 70.914519 
L 335.592607 72.613817 
L 342.997616 72.370713 
L 350.402625 70.387874 
L 357.807635 70.914519 
L 365.212644 70.387874 
L 372.617653 71.316492 
L 380.022662 71.338618 
L 387.427672 70.960489 
L 394.832681 70.579279 
L 402.23769 70.579279 
L 409.642699 70.550493 
L 417.047709 70.579279 
L 424.452718 70.387874 
L 431.857727 70.050379 
L 431.857727 66.40994 
L 431.857727 66.40994 
L 424.452718 66.982555 
L 417.047709 67.701259 
L 409.642699 65.909826 
L 402.23769 67.701259 
L 394.832681 67.701259 
L 387.427672 65.49983 
L 380.022662 66.031811 
L 372.617653 65.143827 
L 365.212644 66.982555 
L 357.807635 66.45591 
L 350.402625 66.982555 
L 342.997616 67.730045 
L 335.592607 66.576832 
L 328.187597 66.45591 
L 320.782588 66.647831 
L 313.377579 66.45591 
L 305.97257 65.909826 
L 298.56756 66.647831 
L 291.162551 67.701259 
L 283.757542 65.341258 
L 276.352532 67.892665 
L 268.947523 67.32005 
L 261.542514 68.935727 
L 254.137505 68.1851 
L 246.732495 67.701259 
L 239.327486 68.23016 
L 231.922477 67.730045 
L 224.517468 66.982555 
L 217.112458 67.892665 
L 209.707449 68.685214 
L 202.30244 68.23016 
L 194.89743 68.307086 
L 187.492421 69.641294 
L 180.087412 69.976534 
L 172.682403 69.390782 
L 165.277393 70.960489 
L 157.872384 70.167939 
L 150.467375 67.867044 
L 143.062365 72.325654 
L 135.657356 74.600928 
L 128.252347 73.111252 
L 120.847338 73.871782 
L 113.442328 75.023643 
L 106.037319 77.074306 
L 98.63231 85.522245 
L 91.227301 88.97626 
L 83.822291 97.219145 
L 76.417282 110.96026 
L 69.012273 138.839745 
z
" style="fill:#ff7f0e;fill-opacity:0.5;"/>
   </g>
   <g id="PolyCollection_3">
    <path clip-path="url(#p82ddb96a51)" d="M 69.012273 128.343002 
L 69.012273 151.004553 
L 76.417282 117.742975 
L 83.822291 104.224555 
L 91.227301 98.537873 
L 98.63231 95.352489 
L 106.037319 92.937652 
L 113.442328 88.160635 
L 120.847338 86.78914 
L 128.252347 81.688789 
L 135.657356 79.074551 
L 143.062365 77.150294 
L 150.467375 76.477592 
L 157.872384 75.867041 
L 165.277393 75.785129 
L 172.682403 76.876202 
L 180.087412 76.477592 
L 187.492421 79.00453 
L 194.89743 78.31652 
L 202.30244 76.477592 
L 209.707449 77.150294 
L 217.112458 76.876202 
L 224.517468 77.876431 
L 231.922477 77.01073 
L 239.327486 77.000714 
L 246.732495 77.876431 
L 254.137505 77.150294 
L 261.542514 76.477592 
L 268.947523 76.022537 
L 276.352532 75.966093 
L 283.757542 76.603968 
L 291.162551 75.867041 
L 298.56756 76.022537 
L 305.97257 75.601156 
L 313.377579 75.785129 
L 320.782588 75.966093 
L 328.187597 75.785129 
L 335.592607 75.732574 
L 342.997616 75.732574 
L 350.402625 75.819146 
L 357.807635 75.357185 
L 365.212644 75.406525 
L 372.617653 75.966093 
L 380.022662 75.601156 
L 387.427672 75.966093 
L 394.832681 75.485678 
L 402.23769 75.406525 
L 409.642699 75.37241 
L 417.047709 75.485678 
L 424.452718 75.37241 
L 431.857727 75.37241 
L 431.857727 66.548568 
L 431.857727 66.548568 
L 424.452718 66.548568 
L 417.047709 67.345409 
L 409.642699 66.548568 
L 402.23769 65.604343 
L 394.832681 67.345409 
L 387.427672 66.864995 
L 380.022662 66.319821 
L 372.617653 66.864995 
L 365.212644 65.604343 
L 357.807635 64.743573 
L 350.402625 66.101832 
L 342.997616 67.098514 
L 335.592607 67.098514 
L 328.187597 67.956069 
L 320.782588 66.864995 
L 313.377579 67.956069 
L 305.97257 66.319821 
L 298.56756 68.62877 
L 291.162551 69.694376 
L 283.757542 66.22712 
L 276.352532 66.864995 
L 268.947523 68.62877 
L 261.542514 69.083825 
L 254.137505 69.321233 
L 246.732495 68.595096 
L 239.327486 68.560703 
L 231.922477 67.640577 
L 224.517468 68.595096 
L 217.112458 69.595324 
L 209.707449 69.321233 
L 202.30244 69.083825 
L 194.89743 69.975226 
L 187.492421 69.287216 
L 180.087412 69.083825 
L 172.682403 69.595324 
L 165.277393 67.956069 
L 157.872384 69.694376 
L 150.467375 69.083825 
L 143.062365 69.321233 
L 135.657356 73.767744 
L 128.252347 71.153506 
L 120.847338 74.244143 
L 113.442328 79.243417 
L 106.037319 83.567498 
L 98.63231 87.523429 
L 91.227301 90.708813 
L 83.822291 99.583888 
L 76.417282 106.087883 
L 69.012273 128.343002 
z
" style="fill:#2ca02c;fill-opacity:0.5;"/>
   </g>
   <g id="PolyCollection_4">
    <path clip-path="url(#p82ddb96a51)" d="M 69.012273 235.664678 
L 69.012273 292.037273 
L 76.417282 147.499059 
L 83.822291 126.300999 
L 91.227301 119.608661 
L 98.63231 114.383602 
L 106.037319 110.005088 
L 113.442328 108.406314 
L 120.847338 105.466419 
L 128.252347 103.811487 
L 135.657356 102.508916 
L 143.062365 100.876245 
L 150.467375 100.111283 
L 157.872384 98.3292 
L 165.277393 97.113606 
L 172.682403 96.41985 
L 180.087412 95.90391 
L 187.492421 95.080317 
L 194.89743 94.225451 
L 202.30244 93.683075 
L 209.707449 93.206038 
L 217.112458 92.83753 
L 224.517468 91.908135 
L 231.922477 91.553143 
L 239.327486 91.086883 
L 246.732495 90.193151 
L 254.137505 89.563681 
L 261.542514 89.819422 
L 268.947523 89.017152 
L 276.352532 88.442279 
L 283.757542 88.649004 
L 291.162551 88.053891 
L 298.56756 87.57499 
L 305.97257 87.296062 
L 313.377579 87.071629 
L 320.782588 87.07927 
L 328.187597 86.990608 
L 335.592607 86.626412 
L 342.997616 86.289313 
L 350.402625 85.968747 
L 357.807635 86.208954 
L 365.212644 85.563952 
L 372.617653 85.563517 
L 380.022662 85.233699 
L 387.427672 84.909582 
L 394.832681 84.722321 
L 402.23769 84.313496 
L 409.642699 84.400245 
L 417.047709 84.726172 
L 424.452718 84.340037 
L 431.857727 84.052578 
L 431.857727 81.855253 
L 431.857727 81.855253 
L 424.452718 81.999186 
L 417.047709 82.188241 
L 409.642699 82.226573 
L 402.23769 82.529018 
L 394.832681 82.83918 
L 387.427672 82.651918 
L 380.022662 82.543497 
L 372.617653 82.501275 
L 365.212644 82.860333 
L 357.807635 83.221912 
L 350.402625 83.605916 
L 342.997616 84.004337 
L 335.592607 83.882934 
L 328.187597 84.237725 
L 320.782588 83.717671 
L 313.377579 83.86911 
L 305.97257 84.291764 
L 298.56756 84.516127 
L 291.162551 85.115706 
L 283.757542 84.951985 
L 276.352532 85.518203 
L 268.947523 86.381304 
L 261.542514 86.657514 
L 254.137505 87.20085 
L 246.732495 87.290367 
L 239.327486 87.547014 
L 231.922477 88.374929 
L 224.517468 89.170316 
L 217.112458 89.678894 
L 209.707449 90.245069 
L 202.30244 90.487019 
L 194.89743 90.807427 
L 187.492421 92.253318 
L 180.087412 93.227193 
L 172.682403 93.861631 
L 165.277393 95.03724 
L 157.872384 95.762911 
L 150.467375 96.712977 
L 143.062365 97.817381 
L 135.657356 98.916859 
L 128.252347 100.27454 
L 120.847338 101.998845 
L 113.442328 103.588566 
L 106.037319 105.872321 
L 98.63231 109.186964 
L 91.227301 114.387213 
L 83.822291 122.506002 
L 76.417282 140.492718 
L 69.012273 235.664678 
z
" style="fill:#d62728;fill-opacity:0.5;"/>
   </g>
   <g id="matplotlib.axis_1">
    <g id="xtick_1">
     <g id="line2d_1">
      <defs>
       <path d="M 0 0 
L 0 3.5 
" id="ma05a540675" style="stroke:#000000;stroke-width:0.8;"/>
      </defs>
      <g>
       <use style="stroke:#000000;stroke-width:0.8;" x="69.012273" xlink:href="#ma05a540675" y="303.64"/>
      </g>
     </g>
     <g id="text_1">
      <!-- 0 -->
      <g transform="translate(65.831023 318.238437)scale(0.1 -0.1)">
       <defs>
        <path d="M 2034 4250 
Q 1547 4250 1301 3770 
Q 1056 3291 1056 2328 
Q 1056 1369 1301 889 
Q 1547 409 2034 409 
Q 2525 409 2770 889 
Q 3016 1369 3016 2328 
Q 3016 3291 2770 3770 
Q 2525 4250 2034 4250 
z
M 2034 4750 
Q 2819 4750 3233 4129 
Q 3647 3509 3647 2328 
Q 3647 1150 3233 529 
Q 2819 -91 2034 -91 
Q 1250 -91 836 529 
Q 422 1150 422 2328 
Q 422 3509 836 4129 
Q 1250 4750 2034 4750 
z
" id="DejaVuSans-30" transform="scale(0.015625)"/>
       </defs>
       <use xlink:href="#DejaVuSans-30"/>
      </g>
     </g>
    </g>
    <g id="xtick_2">
     <g id="line2d_2">
      <g>
       <use style="stroke:#000000;stroke-width:0.8;" x="143.062365" xlink:href="#ma05a540675" y="303.64"/>
      </g>
     </g>
     <g id="text_2">
      <!-- 10 -->
      <g transform="translate(136.699865 318.238437)scale(0.1 -0.1)">
       <defs>
        <path d="M 794 531 
L 1825 531 
L 1825 4091 
L 703 3866 
L 703 4441 
L 1819 4666 
L 2450 4666 
L 2450 531 
L 3481 531 
L 3481 0 
L 794 0 
L 794 531 
z
" id="DejaVuSans-31" transform="scale(0.015625)"/>
       </defs>
       <use xlink:href="#DejaVuSans-31"/>
       <use x="63.623047" xlink:href="#DejaVuSans-30"/>
      </g>
     </g>
    </g>
    <g id="xtick_3">
     <g id="line2d_3">
      <g>
       <use style="stroke:#000000;stroke-width:0.8;" x="217.112458" xlink:href="#ma05a540675" y="303.64"/>
      </g>
     </g>
     <g id="text_3">
      <!-- 20 -->
      <g transform="translate(210.749958 318.238437)scale(0.1 -0.1)">
       <defs>
        <path d="M 1228 531 
L 3431 531 
L 3431 0 
L 469 0 
L 469 531 
Q 828 903 1448 1529 
Q 2069 2156 2228 2338 
Q 2531 2678 2651 2914 
Q 2772 3150 2772 3378 
Q 2772 3750 2511 3984 
Q 2250 4219 1831 4219 
Q 1534 4219 1204 4116 
Q 875 4013 500 3803 
L 500 4441 
Q 881 4594 1212 4672 
Q 1544 4750 1819 4750 
Q 2544 4750 2975 4387 
Q 3406 4025 3406 3419 
Q 3406 3131 3298 2873 
Q 3191 2616 2906 2266 
Q 2828 2175 2409 1742 
Q 1991 1309 1228 531 
z
" id="DejaVuSans-32" transform="scale(0.015625)"/>
       </defs>
       <use xlink:href="#DejaVuSans-32"/>
       <use x="63.623047" xlink:href="#DejaVuSans-30"/>
      </g>
     </g>
    </g>
    <g id="xtick_4">
     <g id="line2d_4">
      <g>
       <use style="stroke:#000000;stroke-width:0.8;" x="291.162551" xlink:href="#ma05a540675" y="303.64"/>
      </g>
     </g>
     <g id="text_4">
      <!-- 30 -->
      <g transform="translate(284.800051 318.238437)scale(0.1 -0.1)">
       <defs>
        <path d="M 2597 2516 
Q 3050 2419 3304 2112 
Q 3559 1806 3559 1356 
Q 3559 666 3084 287 
Q 2609 -91 1734 -91 
Q 1441 -91 1130 -33 
Q 819 25 488 141 
L 488 750 
Q 750 597 1062 519 
Q 1375 441 1716 441 
Q 2309 441 2620 675 
Q 2931 909 2931 1356 
Q 2931 1769 2642 2001 
Q 2353 2234 1838 2234 
L 1294 2234 
L 1294 2753 
L 1863 2753 
Q 2328 2753 2575 2939 
Q 2822 3125 2822 3475 
Q 2822 3834 2567 4026 
Q 2313 4219 1838 4219 
Q 1578 4219 1281 4162 
Q 984 4106 628 3988 
L 628 4550 
Q 988 4650 1302 4700 
Q 1616 4750 1894 4750 
Q 2613 4750 3031 4423 
Q 3450 4097 3450 3541 
Q 3450 3153 3228 2886 
Q 3006 2619 2597 2516 
z
" id="DejaVuSans-33" transform="scale(0.015625)"/>
       </defs>
       <use xlink:href="#DejaVuSans-33"/>
       <use x="63.623047" xlink:href="#DejaVuSans-30"/>
      </g>
     </g>
    </g>
    <g id="xtick_5">
     <g id="line2d_5">
      <g>
       <use style="stroke:#000000;stroke-width:0.8;" x="365.212644" xlink:href="#ma05a540675" y="303.64"/>
      </g>
     </g>
     <g id="text_5">
      <!-- 40 -->
      <g transform="translate(358.850144 318.238437)scale(0.1 -0.1)">
       <defs>
        <path d="M 2419 4116 
L 825 1625 
L 2419 1625 
L 2419 4116 
z
M 2253 4666 
L 3047 4666 
L 3047 1625 
L 3713 1625 
L 3713 1100 
L 3047 1100 
L 3047 0 
L 2419 0 
L 2419 1100 
L 313 1100 
L 313 1709 
L 2253 4666 
z
" id="DejaVuSans-34" transform="scale(0.015625)"/>
       </defs>
       <use xlink:href="#DejaVuSans-34"/>
       <use x="63.623047" xlink:href="#DejaVuSans-30"/>
      </g>
     </g>
    </g>
    <g id="xtick_6">
     <g id="line2d_6">
      <g>
       <use style="stroke:#000000;stroke-width:0.8;" x="439.262737" xlink:href="#ma05a540675" y="303.64"/>
      </g>
     </g>
     <g id="text_6">
      <!-- 50 -->
      <g transform="translate(432.900237 318.238437)scale(0.1 -0.1)">
       <defs>
        <path d="M 691 4666 
L 3169 4666 
L 3169 4134 
L 1269 4134 
L 1269 2991 
Q 1406 3038 1543 3061 
Q 1681 3084 1819 3084 
Q 2600 3084 3056 2656 
Q 3513 2228 3513 1497 
Q 3513 744 3044 326 
Q 2575 -91 1722 -91 
Q 1428 -91 1123 -41 
Q 819 9 494 109 
L 494 744 
Q 775 591 1075 516 
Q 1375 441 1709 441 
Q 2250 441 2565 725 
Q 2881 1009 2881 1497 
Q 2881 1984 2565 2268 
Q 2250 2553 1709 2553 
Q 1456 2553 1204 2497 
Q 953 2441 691 2322 
L 691 4666 
z
" id="DejaVuSans-35" transform="scale(0.015625)"/>
       </defs>
       <use xlink:href="#DejaVuSans-35"/>
       <use x="63.623047" xlink:href="#DejaVuSans-30"/>
      </g>
     </g>
    </g>
    <g id="text_7">
     <!-- Global Communication Rounds -->
     <g transform="translate(173.473281 331.916562)scale(0.1 -0.1)">
      <defs>
       <path d="M 3809 666 
L 3809 1919 
L 2778 1919 
L 2778 2438 
L 4434 2438 
L 4434 434 
Q 4069 175 3628 42 
Q 3188 -91 2688 -91 
Q 1594 -91 976 548 
Q 359 1188 359 2328 
Q 359 3472 976 4111 
Q 1594 4750 2688 4750 
Q 3144 4750 3555 4637 
Q 3966 4525 4313 4306 
L 4313 3634 
Q 3963 3931 3569 4081 
Q 3175 4231 2741 4231 
Q 1884 4231 1454 3753 
Q 1025 3275 1025 2328 
Q 1025 1384 1454 906 
Q 1884 428 2741 428 
Q 3075 428 3337 486 
Q 3600 544 3809 666 
z
" id="DejaVuSans-47" transform="scale(0.015625)"/>
       <path d="M 603 4863 
L 1178 4863 
L 1178 0 
L 603 0 
L 603 4863 
z
" id="DejaVuSans-6c" transform="scale(0.015625)"/>
       <path d="M 1959 3097 
Q 1497 3097 1228 2736 
Q 959 2375 959 1747 
Q 959 1119 1226 758 
Q 1494 397 1959 397 
Q 2419 397 2687 759 
Q 2956 1122 2956 1747 
Q 2956 2369 2687 2733 
Q 2419 3097 1959 3097 
z
M 1959 3584 
Q 2709 3584 3137 3096 
Q 3566 2609 3566 1747 
Q 3566 888 3137 398 
Q 2709 -91 1959 -91 
Q 1206 -91 779 398 
Q 353 888 353 1747 
Q 353 2609 779 3096 
Q 1206 3584 1959 3584 
z
" id="DejaVuSans-6f" transform="scale(0.015625)"/>
       <path d="M 3116 1747 
Q 3116 2381 2855 2742 
Q 2594 3103 2138 3103 
Q 1681 3103 1420 2742 
Q 1159 2381 1159 1747 
Q 1159 1113 1420 752 
Q 1681 391 2138 391 
Q 2594 391 2855 752 
Q 3116 1113 3116 1747 
z
M 1159 2969 
Q 1341 3281 1617 3432 
Q 1894 3584 2278 3584 
Q 2916 3584 3314 3078 
Q 3713 2572 3713 1747 
Q 3713 922 3314 415 
Q 2916 -91 2278 -91 
Q 1894 -91 1617 61 
Q 1341 213 1159 525 
L 1159 0 
L 581 0 
L 581 4863 
L 1159 4863 
L 1159 2969 
z
" id="DejaVuSans-62" transform="scale(0.015625)"/>
       <path d="M 2194 1759 
Q 1497 1759 1228 1600 
Q 959 1441 959 1056 
Q 959 750 1161 570 
Q 1363 391 1709 391 
Q 2188 391 2477 730 
Q 2766 1069 2766 1631 
L 2766 1759 
L 2194 1759 
z
M 3341 1997 
L 3341 0 
L 2766 0 
L 2766 531 
Q 2569 213 2275 61 
Q 1981 -91 1556 -91 
Q 1019 -91 701 211 
Q 384 513 384 1019 
Q 384 1609 779 1909 
Q 1175 2209 1959 2209 
L 2766 2209 
L 2766 2266 
Q 2766 2663 2505 2880 
Q 2244 3097 1772 3097 
Q 1472 3097 1187 3025 
Q 903 2953 641 2809 
L 641 3341 
Q 956 3463 1253 3523 
Q 1550 3584 1831 3584 
Q 2591 3584 2966 3190 
Q 3341 2797 3341 1997 
z
" id="DejaVuSans-61" transform="scale(0.015625)"/>
       <path id="DejaVuSans-20" transform="scale(0.015625)"/>
       <path d="M 4122 4306 
L 4122 3641 
Q 3803 3938 3442 4084 
Q 3081 4231 2675 4231 
Q 1875 4231 1450 3742 
Q 1025 3253 1025 2328 
Q 1025 1406 1450 917 
Q 1875 428 2675 428 
Q 3081 428 3442 575 
Q 3803 722 4122 1019 
L 4122 359 
Q 3791 134 3420 21 
Q 3050 -91 2638 -91 
Q 1578 -91 968 557 
Q 359 1206 359 2328 
Q 359 3453 968 4101 
Q 1578 4750 2638 4750 
Q 3056 4750 3426 4639 
Q 3797 4528 4122 4306 
z
" id="DejaVuSans-43" transform="scale(0.015625)"/>
       <path d="M 3328 2828 
Q 3544 3216 3844 3400 
Q 4144 3584 4550 3584 
Q 5097 3584 5394 3201 
Q 5691 2819 5691 2113 
L 5691 0 
L 5113 0 
L 5113 2094 
Q 5113 2597 4934 2840 
Q 4756 3084 4391 3084 
Q 3944 3084 3684 2787 
Q 3425 2491 3425 1978 
L 3425 0 
L 2847 0 
L 2847 2094 
Q 2847 2600 2669 2842 
Q 2491 3084 2119 3084 
Q 1678 3084 1418 2786 
Q 1159 2488 1159 1978 
L 1159 0 
L 581 0 
L 581 3500 
L 1159 3500 
L 1159 2956 
Q 1356 3278 1631 3431 
Q 1906 3584 2284 3584 
Q 2666 3584 2933 3390 
Q 3200 3197 3328 2828 
z
" id="DejaVuSans-6d" transform="scale(0.015625)"/>
       <path d="M 544 1381 
L 544 3500 
L 1119 3500 
L 1119 1403 
Q 1119 906 1312 657 
Q 1506 409 1894 409 
Q 2359 409 2629 706 
Q 2900 1003 2900 1516 
L 2900 3500 
L 3475 3500 
L 3475 0 
L 2900 0 
L 2900 538 
Q 2691 219 2414 64 
Q 2138 -91 1772 -91 
Q 1169 -91 856 284 
Q 544 659 544 1381 
z
M 1991 3584 
L 1991 3584 
z
" id="DejaVuSans-75" transform="scale(0.015625)"/>
       <path d="M 3513 2113 
L 3513 0 
L 2938 0 
L 2938 2094 
Q 2938 2591 2744 2837 
Q 2550 3084 2163 3084 
Q 1697 3084 1428 2787 
Q 1159 2491 1159 1978 
L 1159 0 
L 581 0 
L 581 3500 
L 1159 3500 
L 1159 2956 
Q 1366 3272 1645 3428 
Q 1925 3584 2291 3584 
Q 2894 3584 3203 3211 
Q 3513 2838 3513 2113 
z
" id="DejaVuSans-6e" transform="scale(0.015625)"/>
       <path d="M 603 3500 
L 1178 3500 
L 1178 0 
L 603 0 
L 603 3500 
z
M 603 4863 
L 1178 4863 
L 1178 4134 
L 603 4134 
L 603 4863 
z
" id="DejaVuSans-69" transform="scale(0.015625)"/>
       <path d="M 3122 3366 
L 3122 2828 
Q 2878 2963 2633 3030 
Q 2388 3097 2138 3097 
Q 1578 3097 1268 2742 
Q 959 2388 959 1747 
Q 959 1106 1268 751 
Q 1578 397 2138 397 
Q 2388 397 2633 464 
Q 2878 531 3122 666 
L 3122 134 
Q 2881 22 2623 -34 
Q 2366 -91 2075 -91 
Q 1284 -91 818 406 
Q 353 903 353 1747 
Q 353 2603 823 3093 
Q 1294 3584 2113 3584 
Q 2378 3584 2631 3529 
Q 2884 3475 3122 3366 
z
" id="DejaVuSans-63" transform="scale(0.015625)"/>
       <path d="M 1172 4494 
L 1172 3500 
L 2356 3500 
L 2356 3053 
L 1172 3053 
L 1172 1153 
Q 1172 725 1289 603 
Q 1406 481 1766 481 
L 2356 481 
L 2356 0 
L 1766 0 
Q 1100 0 847 248 
Q 594 497 594 1153 
L 594 3053 
L 172 3053 
L 172 3500 
L 594 3500 
L 594 4494 
L 1172 4494 
z
" id="DejaVuSans-74" transform="scale(0.015625)"/>
       <path d="M 2841 2188 
Q 3044 2119 3236 1894 
Q 3428 1669 3622 1275 
L 4263 0 
L 3584 0 
L 2988 1197 
Q 2756 1666 2539 1819 
Q 2322 1972 1947 1972 
L 1259 1972 
L 1259 0 
L 628 0 
L 628 4666 
L 2053 4666 
Q 2853 4666 3247 4331 
Q 3641 3997 3641 3322 
Q 3641 2881 3436 2590 
Q 3231 2300 2841 2188 
z
M 1259 4147 
L 1259 2491 
L 2053 2491 
Q 2509 2491 2742 2702 
Q 2975 2913 2975 3322 
Q 2975 3731 2742 3939 
Q 2509 4147 2053 4147 
L 1259 4147 
z
" id="DejaVuSans-52" transform="scale(0.015625)"/>
       <path d="M 2906 2969 
L 2906 4863 
L 3481 4863 
L 3481 0 
L 2906 0 
L 2906 525 
Q 2725 213 2448 61 
Q 2172 -91 1784 -91 
Q 1150 -91 751 415 
Q 353 922 353 1747 
Q 353 2572 751 3078 
Q 1150 3584 1784 3584 
Q 2172 3584 2448 3432 
Q 2725 3281 2906 2969 
z
M 947 1747 
Q 947 1113 1208 752 
Q 1469 391 1925 391 
Q 2381 391 2643 752 
Q 2906 1113 2906 1747 
Q 2906 2381 2643 2742 
Q 2381 3103 1925 3103 
Q 1469 3103 1208 2742 
Q 947 2381 947 1747 
z
" id="DejaVuSans-64" transform="scale(0.015625)"/>
       <path d="M 2834 3397 
L 2834 2853 
Q 2591 2978 2328 3040 
Q 2066 3103 1784 3103 
Q 1356 3103 1142 2972 
Q 928 2841 928 2578 
Q 928 2378 1081 2264 
Q 1234 2150 1697 2047 
L 1894 2003 
Q 2506 1872 2764 1633 
Q 3022 1394 3022 966 
Q 3022 478 2636 193 
Q 2250 -91 1575 -91 
Q 1294 -91 989 -36 
Q 684 19 347 128 
L 347 722 
Q 666 556 975 473 
Q 1284 391 1588 391 
Q 1994 391 2212 530 
Q 2431 669 2431 922 
Q 2431 1156 2273 1281 
Q 2116 1406 1581 1522 
L 1381 1569 
Q 847 1681 609 1914 
Q 372 2147 372 2553 
Q 372 3047 722 3315 
Q 1072 3584 1716 3584 
Q 2034 3584 2315 3537 
Q 2597 3491 2834 3397 
z
" id="DejaVuSans-73" transform="scale(0.015625)"/>
      </defs>
      <use xlink:href="#DejaVuSans-47"/>
      <use x="77.490234" xlink:href="#DejaVuSans-6c"/>
      <use x="105.273438" xlink:href="#DejaVuSans-6f"/>
      <use x="166.455078" xlink:href="#DejaVuSans-62"/>
      <use x="229.931641" xlink:href="#DejaVuSans-61"/>
      <use x="291.210938" xlink:href="#DejaVuSans-6c"/>
      <use x="318.994141" xlink:href="#DejaVuSans-20"/>
      <use x="350.78125" xlink:href="#DejaVuSans-43"/>
      <use x="420.605469" xlink:href="#DejaVuSans-6f"/>
      <use x="481.787109" xlink:href="#DejaVuSans-6d"/>
      <use x="579.199219" xlink:href="#DejaVuSans-6d"/>
      <use x="676.611328" xlink:href="#DejaVuSans-75"/>
      <use x="739.990234" xlink:href="#DejaVuSans-6e"/>
      <use x="803.369141" xlink:href="#DejaVuSans-69"/>
      <use x="831.152344" xlink:href="#DejaVuSans-63"/>
      <use x="886.132812" xlink:href="#DejaVuSans-61"/>
      <use x="947.412109" xlink:href="#DejaVuSans-74"/>
      <use x="986.621094" xlink:href="#DejaVuSans-69"/>
      <use x="1014.404297" xlink:href="#DejaVuSans-6f"/>
      <use x="1075.585938" xlink:href="#DejaVuSans-6e"/>
      <use x="1138.964844" xlink:href="#DejaVuSans-20"/>
      <use x="1170.751953" xlink:href="#DejaVuSans-52"/>
      <use x="1235.734375" xlink:href="#DejaVuSans-6f"/>
      <use x="1296.916016" xlink:href="#DejaVuSans-75"/>
      <use x="1360.294922" xlink:href="#DejaVuSans-6e"/>
      <use x="1423.673828" xlink:href="#DejaVuSans-64"/>
      <use x="1487.150391" xlink:href="#DejaVuSans-73"/>
     </g>
    </g>
   </g>
   <g id="matplotlib.axis_2">
    <g id="ytick_1">
     <g id="line2d_7">
      <defs>
       <path d="M 0 0 
L -3.5 0 
" id="m701ebc15c3" style="stroke:#000000;stroke-width:0.8;"/>
      </defs>
      <g>
       <use style="stroke:#000000;stroke-width:0.8;" x="50.87" xlink:href="#m701ebc15c3" y="271.18464"/>
      </g>
     </g>
     <g id="text_8">
      <!-- 88 -->
      <g transform="translate(31.145 274.983859)scale(0.1 -0.1)">
       <defs>
        <path d="M 2034 2216 
Q 1584 2216 1326 1975 
Q 1069 1734 1069 1313 
Q 1069 891 1326 650 
Q 1584 409 2034 409 
Q 2484 409 2743 651 
Q 3003 894 3003 1313 
Q 3003 1734 2745 1975 
Q 2488 2216 2034 2216 
z
M 1403 2484 
Q 997 2584 770 2862 
Q 544 3141 544 3541 
Q 544 4100 942 4425 
Q 1341 4750 2034 4750 
Q 2731 4750 3128 4425 
Q 3525 4100 3525 3541 
Q 3525 3141 3298 2862 
Q 3072 2584 2669 2484 
Q 3125 2378 3379 2068 
Q 3634 1759 3634 1313 
Q 3634 634 3220 271 
Q 2806 -91 2034 -91 
Q 1263 -91 848 271 
Q 434 634 434 1313 
Q 434 1759 690 2068 
Q 947 2378 1403 2484 
z
M 1172 3481 
Q 1172 3119 1398 2916 
Q 1625 2713 2034 2713 
Q 2441 2713 2670 2916 
Q 2900 3119 2900 3481 
Q 2900 3844 2670 4047 
Q 2441 4250 2034 4250 
Q 1625 4250 1398 4047 
Q 1172 3844 1172 3481 
z
" id="DejaVuSans-38" transform="scale(0.015625)"/>
       </defs>
       <use xlink:href="#DejaVuSans-38"/>
       <use x="63.623047" xlink:href="#DejaVuSans-38"/>
      </g>
     </g>
    </g>
    <g id="ytick_2">
     <g id="line2d_8">
      <g>
       <use style="stroke:#000000;stroke-width:0.8;" x="50.87" xlink:href="#m701ebc15c3" y="235.235304"/>
      </g>
     </g>
     <g id="text_9">
      <!-- 90 -->
      <g transform="translate(31.145 239.034523)scale(0.1 -0.1)">
       <defs>
        <path d="M 703 97 
L 703 672 
Q 941 559 1184 500 
Q 1428 441 1663 441 
Q 2288 441 2617 861 
Q 2947 1281 2994 2138 
Q 2813 1869 2534 1725 
Q 2256 1581 1919 1581 
Q 1219 1581 811 2004 
Q 403 2428 403 3163 
Q 403 3881 828 4315 
Q 1253 4750 1959 4750 
Q 2769 4750 3195 4129 
Q 3622 3509 3622 2328 
Q 3622 1225 3098 567 
Q 2575 -91 1691 -91 
Q 1453 -91 1209 -44 
Q 966 3 703 97 
z
M 1959 2075 
Q 2384 2075 2632 2365 
Q 2881 2656 2881 3163 
Q 2881 3666 2632 3958 
Q 2384 4250 1959 4250 
Q 1534 4250 1286 3958 
Q 1038 3666 1038 3163 
Q 1038 2656 1286 2365 
Q 1534 2075 1959 2075 
z
" id="DejaVuSans-39" transform="scale(0.015625)"/>
       </defs>
       <use xlink:href="#DejaVuSans-39"/>
       <use x="63.623047" xlink:href="#DejaVuSans-30"/>
      </g>
     </g>
    </g>
    <g id="ytick_3">
     <g id="line2d_9">
      <g>
       <use style="stroke:#000000;stroke-width:0.8;" x="50.87" xlink:href="#m701ebc15c3" y="199.285968"/>
      </g>
     </g>
     <g id="text_10">
      <!-- 92 -->
      <g transform="translate(31.145 203.085186)scale(0.1 -0.1)">
       <use xlink:href="#DejaVuSans-39"/>
       <use x="63.623047" xlink:href="#DejaVuSans-32"/>
      </g>
     </g>
    </g>
    <g id="ytick_4">
     <g id="line2d_10">
      <g>
       <use style="stroke:#000000;stroke-width:0.8;" x="50.87" xlink:href="#m701ebc15c3" y="163.336631"/>
      </g>
     </g>
     <g id="text_11">
      <!-- 94 -->
      <g transform="translate(31.145 167.13585)scale(0.1 -0.1)">
       <use xlink:href="#DejaVuSans-39"/>
       <use x="63.623047" xlink:href="#DejaVuSans-34"/>
      </g>
     </g>
    </g>
    <g id="ytick_5">
     <g id="line2d_11">
      <g>
       <use style="stroke:#000000;stroke-width:0.8;" x="50.87" xlink:href="#m701ebc15c3" y="127.387295"/>
      </g>
     </g>
     <g id="text_12">
      <!-- 96 -->
      <g transform="translate(31.145 131.186514)scale(0.1 -0.1)">
       <defs>
        <path d="M 2113 2584 
Q 1688 2584 1439 2293 
Q 1191 2003 1191 1497 
Q 1191 994 1439 701 
Q 1688 409 2113 409 
Q 2538 409 2786 701 
Q 3034 994 3034 1497 
Q 3034 2003 2786 2293 
Q 2538 2584 2113 2584 
z
M 3366 4563 
L 3366 3988 
Q 3128 4100 2886 4159 
Q 2644 4219 2406 4219 
Q 1781 4219 1451 3797 
Q 1122 3375 1075 2522 
Q 1259 2794 1537 2939 
Q 1816 3084 2150 3084 
Q 2853 3084 3261 2657 
Q 3669 2231 3669 1497 
Q 3669 778 3244 343 
Q 2819 -91 2113 -91 
Q 1303 -91 875 529 
Q 447 1150 447 2328 
Q 447 3434 972 4092 
Q 1497 4750 2381 4750 
Q 2619 4750 2861 4703 
Q 3103 4656 3366 4563 
z
" id="DejaVuSans-36" transform="scale(0.015625)"/>
       </defs>
       <use xlink:href="#DejaVuSans-39"/>
       <use x="63.623047" xlink:href="#DejaVuSans-36"/>
      </g>
     </g>
    </g>
    <g id="ytick_6">
     <g id="line2d_12">
      <g>
       <use style="stroke:#000000;stroke-width:0.8;" x="50.87" xlink:href="#m701ebc15c3" y="91.437959"/>
      </g>
     </g>
     <g id="text_13">
      <!-- 98 -->
      <g transform="translate(31.145 95.237178)scale(0.1 -0.1)">
       <use xlink:href="#DejaVuSans-39"/>
       <use x="63.623047" xlink:href="#DejaVuSans-38"/>
      </g>
     </g>
    </g>
    <g id="ytick_7">
     <g id="line2d_13">
      <g>
       <use style="stroke:#000000;stroke-width:0.8;" x="50.87" xlink:href="#m701ebc15c3" y="55.488623"/>
      </g>
     </g>
     <g id="text_14">
      <!-- 100 -->
      <g transform="translate(24.7825 59.287841)scale(0.1 -0.1)">
       <use xlink:href="#DejaVuSans-31"/>
       <use x="63.623047" xlink:href="#DejaVuSans-30"/>
       <use x="127.246094" xlink:href="#DejaVuSans-30"/>
      </g>
     </g>
    </g>
    <g id="text_15">
     <!-- Test Accuracy -->
     <g transform="translate(18.702813 210.2725)rotate(-90)scale(0.1 -0.1)">
      <defs>
       <path d="M -19 4666 
L 3928 4666 
L 3928 4134 
L 2272 4134 
L 2272 0 
L 1638 0 
L 1638 4134 
L -19 4134 
L -19 4666 
z
" id="DejaVuSans-54" transform="scale(0.015625)"/>
       <path d="M 3597 1894 
L 3597 1613 
L 953 1613 
Q 991 1019 1311 708 
Q 1631 397 2203 397 
Q 2534 397 2845 478 
Q 3156 559 3463 722 
L 3463 178 
Q 3153 47 2828 -22 
Q 2503 -91 2169 -91 
Q 1331 -91 842 396 
Q 353 884 353 1716 
Q 353 2575 817 3079 
Q 1281 3584 2069 3584 
Q 2775 3584 3186 3129 
Q 3597 2675 3597 1894 
z
M 3022 2063 
Q 3016 2534 2758 2815 
Q 2500 3097 2075 3097 
Q 1594 3097 1305 2825 
Q 1016 2553 972 2059 
L 3022 2063 
z
" id="DejaVuSans-65" transform="scale(0.015625)"/>
       <path d="M 2188 4044 
L 1331 1722 
L 3047 1722 
L 2188 4044 
z
M 1831 4666 
L 2547 4666 
L 4325 0 
L 3669 0 
L 3244 1197 
L 1141 1197 
L 716 0 
L 50 0 
L 1831 4666 
z
" id="DejaVuSans-41" transform="scale(0.015625)"/>
       <path d="M 2631 2963 
Q 2534 3019 2420 3045 
Q 2306 3072 2169 3072 
Q 1681 3072 1420 2755 
Q 1159 2438 1159 1844 
L 1159 0 
L 581 0 
L 581 3500 
L 1159 3500 
L 1159 2956 
Q 1341 3275 1631 3429 
Q 1922 3584 2338 3584 
Q 2397 3584 2469 3576 
Q 2541 3569 2628 3553 
L 2631 2963 
z
" id="DejaVuSans-72" transform="scale(0.015625)"/>
       <path d="M 2059 -325 
Q 1816 -950 1584 -1140 
Q 1353 -1331 966 -1331 
L 506 -1331 
L 506 -850 
L 844 -850 
Q 1081 -850 1212 -737 
Q 1344 -625 1503 -206 
L 1606 56 
L 191 3500 
L 800 3500 
L 1894 763 
L 2988 3500 
L 3597 3500 
L 2059 -325 
z
" id="DejaVuSans-79" transform="scale(0.015625)"/>
      </defs>
      <use xlink:href="#DejaVuSans-54"/>
      <use x="44.083984" xlink:href="#DejaVuSans-65"/>
      <use x="105.607422" xlink:href="#DejaVuSans-73"/>
      <use x="157.707031" xlink:href="#DejaVuSans-74"/>
      <use x="196.916016" xlink:href="#DejaVuSans-20"/>
      <use x="228.703125" xlink:href="#DejaVuSans-41"/>
      <use x="295.361328" xlink:href="#DejaVuSans-63"/>
      <use x="350.341797" xlink:href="#DejaVuSans-63"/>
      <use x="405.322266" xlink:href="#DejaVuSans-75"/>
      <use x="468.701172" xlink:href="#DejaVuSans-72"/>
      <use x="509.814453" xlink:href="#DejaVuSans-61"/>
      <use x="571.09375" xlink:href="#DejaVuSans-63"/>
      <use x="626.074219" xlink:href="#DejaVuSans-79"/>
     </g>
    </g>
   </g>
   <g id="line2d_14">
    <path clip-path="url(#p82ddb96a51)" d="M 69.012273 137.853558 
L 76.417282 108.27499 
L 83.822291 99.173892 
L 91.227301 90.072794 
L 98.63231 83.702026 
L 106.037319 81.426751 
L 113.442328 79.151477 
L 120.847338 76.421148 
L 128.252347 74.145873 
L 135.657356 72.325654 
L 143.062365 71.870599 
L 150.467375 70.960489 
L 157.872384 69.140269 
L 165.277393 69.140269 
L 172.682403 68.685214 
L 180.087412 69.140269 
L 187.492421 69.140269 
L 194.89743 70.050379 
L 202.30244 68.685214 
L 209.707449 68.23016 
L 217.112458 67.32005 
L 224.517468 67.775105 
L 231.922477 68.23016 
L 239.327486 68.685214 
L 246.732495 68.685214 
L 254.137505 67.775105 
L 261.542514 67.32005 
L 268.947523 67.32005 
L 276.352532 67.32005 
L 283.757542 65.954885 
L 291.162551 65.49983 
L 298.56756 65.49983 
L 305.97257 65.49983 
L 313.377579 65.49983 
L 320.782588 65.044775 
L 328.187597 65.49983 
L 335.592607 65.044775 
L 342.997616 64.134666 
L 350.402625 63.679611 
L 357.807635 63.679611 
L 365.212644 63.679611 
L 372.617653 64.134666 
L 380.022662 63.679611 
L 387.427672 62.769501 
L 394.832681 64.134666 
L 402.23769 64.58972 
L 409.642699 65.044775 
L 417.047709 64.58972 
L 424.452718 64.58972 
L 431.857727 63.224556 
" style="fill:none;stroke:#1f77b4;stroke-linecap:square;stroke-width:1.5;"/>
   </g>
   <g id="line2d_15">
    <path clip-path="url(#p82ddb96a51)" d="M 69.012273 151.050149 
L 76.417282 113.280594 
L 83.822291 101.904221 
L 91.227301 94.623343 
L 98.63231 88.252575 
L 106.037319 83.246971 
L 113.442328 78.241367 
L 120.847338 77.786312 
L 128.252347 77.331257 
L 135.657356 75.511038 
L 143.062365 75.055983 
L 150.467375 72.325654 
L 157.872384 71.870599 
L 165.277393 71.870599 
L 172.682403 70.505434 
L 180.087412 71.415544 
L 187.492421 71.870599 
L 194.89743 70.960489 
L 202.30244 70.050379 
L 209.707449 69.595324 
L 217.112458 69.595324 
L 224.517468 68.685214 
L 231.922477 70.050379 
L 239.327486 70.050379 
L 246.732495 69.140269 
L 254.137505 70.505434 
L 261.542514 70.050379 
L 268.947523 70.050379 
L 276.352532 69.595324 
L 283.757542 68.685214 
L 291.162551 69.140269 
L 298.56756 69.140269 
L 305.97257 68.23016 
L 313.377579 68.685214 
L 320.782588 69.140269 
L 328.187597 68.685214 
L 335.592607 69.595324 
L 342.997616 70.050379 
L 350.402625 68.685214 
L 357.807635 68.685214 
L 365.212644 68.685214 
L 372.617653 68.23016 
L 380.022662 68.685214 
L 387.427672 68.23016 
L 394.832681 69.140269 
L 402.23769 69.140269 
L 409.642699 68.23016 
L 417.047709 69.140269 
L 424.452718 68.685214 
L 431.857727 68.23016 
" style="fill:none;stroke:#ff7f0e;stroke-linecap:square;stroke-width:1.5;"/>
   </g>
   <g id="line2d_16">
    <path clip-path="url(#p82ddb96a51)" d="M 69.012273 139.673777 
L 76.417282 111.915429 
L 83.822291 101.904221 
L 91.227301 94.623343 
L 98.63231 91.437959 
L 106.037319 88.252575 
L 113.442328 83.702026 
L 120.847338 80.516642 
L 128.252347 76.421148 
L 135.657356 76.421148 
L 143.062365 73.235763 
L 150.467375 72.780708 
L 157.872384 72.780708 
L 165.277393 71.870599 
L 172.682403 73.235763 
L 180.087412 72.780708 
L 187.492421 74.145873 
L 194.89743 74.145873 
L 202.30244 72.780708 
L 209.707449 73.235763 
L 217.112458 73.235763 
L 224.517468 73.235763 
L 231.922477 72.325654 
L 239.327486 72.780708 
L 246.732495 73.235763 
L 254.137505 73.235763 
L 261.542514 72.780708 
L 268.947523 72.325654 
L 276.352532 71.415544 
L 283.757542 71.415544 
L 291.162551 72.780708 
L 298.56756 72.325654 
L 305.97257 70.960489 
L 313.377579 71.870599 
L 320.782588 71.415544 
L 328.187597 71.870599 
L 335.592607 71.415544 
L 342.997616 71.415544 
L 350.402625 70.960489 
L 357.807635 70.050379 
L 365.212644 70.505434 
L 372.617653 71.415544 
L 380.022662 70.960489 
L 387.427672 71.415544 
L 394.832681 71.415544 
L 402.23769 70.505434 
L 409.642699 70.960489 
L 417.047709 71.415544 
L 424.452718 70.960489 
L 431.857727 70.960489 
" style="fill:none;stroke:#2ca02c;stroke-linecap:square;stroke-width:1.5;"/>
   </g>
   <g id="line2d_17">
    <path clip-path="url(#p82ddb96a51)" d="M 69.012273 263.850976 
L 76.417282 143.995889 
L 83.822291 124.4035 
L 91.227301 116.997937 
L 98.63231 111.785283 
L 106.037319 107.938704 
L 113.442328 105.99744 
L 120.847338 103.732632 
L 128.252347 102.043013 
L 135.657356 100.712888 
L 143.062365 99.346813 
L 150.467375 98.41213 
L 157.872384 97.046055 
L 165.277393 96.075423 
L 172.682403 95.140741 
L 180.087412 94.565551 
L 187.492421 93.666818 
L 194.89743 92.516439 
L 202.30244 92.085047 
L 209.707449 91.725554 
L 217.112458 91.258212 
L 224.517468 90.539226 
L 231.922477 89.964036 
L 239.327486 89.316948 
L 246.732495 88.741759 
L 254.137505 88.382265 
L 261.542514 88.238468 
L 268.947523 87.699228 
L 276.352532 86.980241 
L 283.757542 86.800495 
L 291.162551 86.584799 
L 298.56756 86.045558 
L 305.97257 85.793913 
L 313.377579 85.470369 
L 320.782588 85.39847 
L 328.187597 85.614166 
L 335.592607 85.254673 
L 342.997616 85.146825 
L 350.402625 84.787332 
L 357.807635 84.715433 
L 365.212644 84.212142 
L 372.617653 84.032396 
L 380.022662 83.888598 
L 387.427672 83.78075 
L 394.832681 83.78075 
L 402.23769 83.421257 
L 409.642699 83.313409 
L 417.047709 83.457206 
L 424.452718 83.169612 
L 431.857727 82.953916 
" style="fill:none;stroke:#d62728;stroke-linecap:square;stroke-width:1.5;"/>
   </g>
   <g id="patch_3">
    <path d="M 50.87 303.64 
L 50.87 48.38 
" style="fill:none;stroke:#000000;stroke-linecap:square;stroke-linejoin:miter;stroke-width:0.8;"/>
   </g>
   <g id="patch_4">
    <path d="M 450 303.64 
L 450 48.38 
" style="fill:none;stroke:#000000;stroke-linecap:square;stroke-linejoin:miter;stroke-width:0.8;"/>
   </g>
   <g id="patch_5">
    <path d="M 50.87 303.64 
L 450 303.64 
" style="fill:none;stroke:#000000;stroke-linecap:square;stroke-linejoin:miter;stroke-width:0.8;"/>
   </g>
   <g id="patch_6">
    <path d="M 50.87 48.38 
L 450 48.38 
" style="fill:none;stroke:#000000;stroke-linecap:square;stroke-linejoin:miter;stroke-width:0.8;"/>
   </g>
   <g id="text_16">
    <!-- Local Rounds 25 -->
    <g transform="translate(201.324062 20.88)scale(0.12 -0.12)">
     <defs>
      <path d="M 628 4666 
L 1259 4666 
L 1259 531 
L 3531 531 
L 3531 0 
L 628 0 
L 628 4666 
z
" id="DejaVuSans-4c" transform="scale(0.015625)"/>
     </defs>
     <use xlink:href="#DejaVuSans-4c"/>
     <use x="53.962891" xlink:href="#DejaVuSans-6f"/>
     <use x="115.144531" xlink:href="#DejaVuSans-63"/>
     <use x="170.125" xlink:href="#DejaVuSans-61"/>
     <use x="231.404297" xlink:href="#DejaVuSans-6c"/>
     <use x="259.1875" xlink:href="#DejaVuSans-20"/>
     <use x="290.974609" xlink:href="#DejaVuSans-52"/>
     <use x="355.957031" xlink:href="#DejaVuSans-6f"/>
     <use x="417.138672" xlink:href="#DejaVuSans-75"/>
     <use x="480.517578" xlink:href="#DejaVuSans-6e"/>
     <use x="543.896484" xlink:href="#DejaVuSans-64"/>
     <use x="607.373047" xlink:href="#DejaVuSans-73"/>
     <use x="659.472656" xlink:href="#DejaVuSans-20"/>
     <use x="691.259766" xlink:href="#DejaVuSans-32"/>
     <use x="754.882812" xlink:href="#DejaVuSans-35"/>
    </g>
   </g>
   <g id="legend_1">
    <g id="patch_7">
     <path d="M 84.036563 45.532125 
L 416.833438 45.532125 
Q 418.833438 45.532125 418.833438 43.532125 
L 418.833438 29.854 
Q 418.833438 27.854 416.833438 27.854 
L 84.036563 27.854 
Q 82.036563 27.854 82.036563 29.854 
L 82.036563 43.532125 
Q 82.036563 45.532125 84.036563 45.532125 
z
" style="fill:#ffffff;opacity:0.8;stroke:#cccccc;stroke-linejoin:miter;"/>
    </g>
    <g id="line2d_18">
     <path d="M 86.036563 35.952438 
L 106.036563 35.952438 
" style="fill:none;stroke:#1f77b4;stroke-linecap:square;stroke-width:1.5;"/>
    </g>
    <g id="line2d_19"/>
    <g id="text_17">
     <!-- FedAvg -->
     <g transform="translate(114.036563 39.452438)scale(0.1 -0.1)">
      <defs>
       <path d="M 628 4666 
L 3309 4666 
L 3309 4134 
L 1259 4134 
L 1259 2759 
L 3109 2759 
L 3109 2228 
L 1259 2228 
L 1259 0 
L 628 0 
L 628 4666 
z
" id="DejaVuSans-46" transform="scale(0.015625)"/>
       <path d="M 191 3500 
L 800 3500 
L 1894 563 
L 2988 3500 
L 3597 3500 
L 2284 0 
L 1503 0 
L 191 3500 
z
" id="DejaVuSans-76" transform="scale(0.015625)"/>
       <path d="M 2906 1791 
Q 2906 2416 2648 2759 
Q 2391 3103 1925 3103 
Q 1463 3103 1205 2759 
Q 947 2416 947 1791 
Q 947 1169 1205 825 
Q 1463 481 1925 481 
Q 2391 481 2648 825 
Q 2906 1169 2906 1791 
z
M 3481 434 
Q 3481 -459 3084 -895 
Q 2688 -1331 1869 -1331 
Q 1566 -1331 1297 -1286 
Q 1028 -1241 775 -1147 
L 775 -588 
Q 1028 -725 1275 -790 
Q 1522 -856 1778 -856 
Q 2344 -856 2625 -561 
Q 2906 -266 2906 331 
L 2906 616 
Q 2728 306 2450 153 
Q 2172 0 1784 0 
Q 1141 0 747 490 
Q 353 981 353 1791 
Q 353 2603 747 3093 
Q 1141 3584 1784 3584 
Q 2172 3584 2450 3431 
Q 2728 3278 2906 2969 
L 2906 3500 
L 3481 3500 
L 3481 434 
z
" id="DejaVuSans-67" transform="scale(0.015625)"/>
      </defs>
      <use xlink:href="#DejaVuSans-46"/>
      <use x="52.019531" xlink:href="#DejaVuSans-65"/>
      <use x="113.542969" xlink:href="#DejaVuSans-64"/>
      <use x="177.019531" xlink:href="#DejaVuSans-41"/>
      <use x="239.552734" xlink:href="#DejaVuSans-76"/>
      <use x="298.732422" xlink:href="#DejaVuSans-67"/>
     </g>
    </g>
    <g id="line2d_20">
     <path d="M 170.26 35.952438 
L 190.26 35.952438 
" style="fill:none;stroke:#ff7f0e;stroke-linecap:square;stroke-width:1.5;"/>
    </g>
    <g id="line2d_21"/>
    <g id="text_18">
     <!-- FedMed -->
     <g transform="translate(198.26 39.452438)scale(0.1 -0.1)">
      <defs>
       <path d="M 628 4666 
L 1569 4666 
L 2759 1491 
L 3956 4666 
L 4897 4666 
L 4897 0 
L 4281 0 
L 4281 4097 
L 3078 897 
L 2444 897 
L 1241 4097 
L 1241 0 
L 628 0 
L 628 4666 
z
" id="DejaVuSans-4d" transform="scale(0.015625)"/>
      </defs>
      <use xlink:href="#DejaVuSans-46"/>
      <use x="52.019531" xlink:href="#DejaVuSans-65"/>
      <use x="113.542969" xlink:href="#DejaVuSans-64"/>
      <use x="177.019531" xlink:href="#DejaVuSans-4d"/>
      <use x="263.298828" xlink:href="#DejaVuSans-65"/>
      <use x="324.822266" xlink:href="#DejaVuSans-64"/>
     </g>
    </g>
    <g id="line2d_22">
     <path d="M 257.092813 35.952438 
L 277.092813 35.952438 
" style="fill:none;stroke:#2ca02c;stroke-linecap:square;stroke-width:1.5;"/>
    </g>
    <g id="line2d_23"/>
    <g id="text_19">
     <!-- FedProx -->
     <g transform="translate(285.092813 39.452438)scale(0.1 -0.1)">
      <defs>
       <path d="M 1259 4147 
L 1259 2394 
L 2053 2394 
Q 2494 2394 2734 2622 
Q 2975 2850 2975 3272 
Q 2975 3691 2734 3919 
Q 2494 4147 2053 4147 
L 1259 4147 
z
M 628 4666 
L 2053 4666 
Q 2838 4666 3239 4311 
Q 3641 3956 3641 3272 
Q 3641 2581 3239 2228 
Q 2838 1875 2053 1875 
L 1259 1875 
L 1259 0 
L 628 0 
L 628 4666 
z
" id="DejaVuSans-50" transform="scale(0.015625)"/>
       <path d="M 3513 3500 
L 2247 1797 
L 3578 0 
L 2900 0 
L 1881 1375 
L 863 0 
L 184 0 
L 1544 1831 
L 300 3500 
L 978 3500 
L 1906 2253 
L 2834 3500 
L 3513 3500 
z
" id="DejaVuSans-78" transform="scale(0.015625)"/>
      </defs>
      <use xlink:href="#DejaVuSans-46"/>
      <use x="52.019531" xlink:href="#DejaVuSans-65"/>
      <use x="113.542969" xlink:href="#DejaVuSans-64"/>
      <use x="177.019531" xlink:href="#DejaVuSans-50"/>
      <use x="235.572266" xlink:href="#DejaVuSans-72"/>
      <use x="274.435547" xlink:href="#DejaVuSans-6f"/>
      <use x="332.492188" xlink:href="#DejaVuSans-78"/>
     </g>
    </g>
    <g id="line2d_24">
     <path d="M 344.261563 35.952438 
L 364.261563 35.952438 
" style="fill:none;stroke:#d62728;stroke-linecap:square;stroke-width:1.5;"/>
    </g>
    <g id="line2d_25"/>
    <g id="text_20">
     <!-- qFedAvg -->
     <g transform="translate(372.261563 39.452438)scale(0.1 -0.1)">
      <defs>
       <path d="M 947 1747 
Q 947 1113 1208 752 
Q 1469 391 1925 391 
Q 2381 391 2643 752 
Q 2906 1113 2906 1747 
Q 2906 2381 2643 2742 
Q 2381 3103 1925 3103 
Q 1469 3103 1208 2742 
Q 947 2381 947 1747 
z
M 2906 525 
Q 2725 213 2448 61 
Q 2172 -91 1784 -91 
Q 1150 -91 751 415 
Q 353 922 353 1747 
Q 353 2572 751 3078 
Q 1150 3584 1784 3584 
Q 2172 3584 2448 3432 
Q 2725 3281 2906 2969 
L 2906 3500 
L 3481 3500 
L 3481 -1331 
L 2906 -1331 
L 2906 525 
z
" id="DejaVuSans-71" transform="scale(0.015625)"/>
      </defs>
      <use xlink:href="#DejaVuSans-71"/>
      <use x="63.476562" xlink:href="#DejaVuSans-46"/>
      <use x="115.496094" xlink:href="#DejaVuSans-65"/>
      <use x="177.019531" xlink:href="#DejaVuSans-64"/>
      <use x="240.496094" xlink:href="#DejaVuSans-41"/>
      <use x="303.029297" xlink:href="#DejaVuSans-76"/>
      <use x="362.208984" xlink:href="#DejaVuSans-67"/>
     </g>
    </g>
   </g>
  </g>
 </g>
 <defs>
  <clipPath id="p82ddb96a51">
   <rect height="255.26" width="399.13" x="50.87" y="48.38"/>
  </clipPath>
 </defs>
</svg>
