<?xml version="1.0" encoding="utf-8" standalone="no"?>
<!DOCTYPE svg PUBLIC "-//W3C//DTD SVG 1.1//EN"
  "http://www.w3.org/Graphics/SVG/1.1/DTD/svg11.dtd">
<svg height="432pt" version="1.1" viewBox="0 0 576 432" width="576pt" xmlns="http://www.w3.org/2000/svg" xmlns:xlink="http://www.w3.org/1999/xlink">
 <metadata>
  <rdf:RDF xmlns:cc="http://creativecommons.org/ns#" xmlns:dc="http://purl.org/dc/elements/1.1/" xmlns:rdf="http://www.w3.org/1999/02/22-rdf-syntax-ns#">
   <cc:Work>
    <dc:type rdf:resource="http://purl.org/dc/dcmitype/StillImage"/>
    <dc:date>2021-05-07T22:04:28.931740</dc:date>
    <dc:format>image/svg+xml</dc:format>
    <dc:creator>
     <cc:Agent>
      <dc:title>Matplotlib v3.4.1, https://matplotlib.org/</dc:title>
     </cc:Agent>
    </dc:creator>
   </cc:Work>
  </rdf:RDF>
 </metadata>
 <defs>
  <style type="text/css">*{stroke-linecap:butt;stroke-linejoin:round;}</style>
 </defs>
 <g id="figure_1">
  <g id="patch_1">
   <path d="M 0 432 
L 576 432 
L 576 0 
L 0 0 
z
" style="fill:#ffffff;"/>
  </g>
  <g id="axes_1">
   <g id="patch_2">
    <path d="M 60.86 376 
L 556.46 376 
L 556.46 56.601989 
L 60.86 56.601989 
z
" style="fill:#ffffff;"/>
   </g>
   <g id="PolyCollection_1">
    <path clip-path="url(#pce0498c1a6)" d="M 83.387273 260.9442 
L 83.387273 287.779956 
L 92.582078 213.927149 
L 101.776883 195.850548 
L 110.971688 189.601845 
L 120.166494 177.009751 
L 129.361299 163.472612 
L 138.556104 152.65307 
L 147.750909 144.384846 
L 156.945714 147.28385 
L 166.140519 136.011009 
L 175.335325 135.318416 
L 184.53013 130.150042 
L 193.724935 126.400646 
L 202.91974 125.192763 
L 212.114545 127.093239 
L 221.309351 120.121428 
L 230.504156 115.946026 
L 239.698961 118.792988 
L 248.893766 108.999352 
L 258.088571 109.64229 
L 267.283377 112.479093 
L 276.478182 109.976327 
L 285.672987 113.191242 
L 294.867792 114.805055 
L 304.062597 110.57409 
L 313.257403 99.843004 
L 322.452208 109.156933 
L 331.647013 103.69711 
L 340.841818 109.383326 
L 350.036623 108.247897 
L 359.231429 109.0029 
L 368.426234 104.600919 
L 377.621039 100.303794 
L 386.815844 100.305072 
L 396.010649 101.208703 
L 405.205455 96.279108 
L 414.40026 98.16104 
L 423.595065 99.551729 
L 432.78987 100.2143 
L 441.984675 95.483219 
L 451.179481 97.108992 
L 460.374286 96.749818 
L 469.569091 98.00972 
L 478.763896 90.153669 
L 487.958701 88.279664 
L 497.153506 85.440844 
L 506.348312 86.708474 
L 515.543117 87.832047 
L 524.737922 91.007976 
L 533.932727 78.521996 
L 533.932727 71.875083 
L 533.932727 71.875083 
L 524.737922 77.224643 
L 515.543117 75.941687 
L 506.348312 71.12008 
L 497.153506 75.3603 
L 487.958701 75.49407 
L 478.763896 78.078951 
L 469.569091 83.599555 
L 460.374286 87.832047 
L 451.179481 85.986578 
L 441.984675 80.180875 
L 432.78987 82.88127 
L 423.595065 83.543841 
L 414.40026 90.879711 
L 405.205455 83.843872 
L 396.010649 86.345752 
L 386.815844 79.817908 
L 377.621039 90.223251 
L 368.426234 84.439832 
L 359.231429 93.414506 
L 350.036623 101.600984 
L 340.841818 91.547785 
L 331.647013 92.775116 
L 322.452208 94.746768 
L 313.257403 95.142926 
L 304.062597 97.788496 
L 294.867792 99.502711 
L 285.672987 101.116524 
L 276.478182 95.413669 
L 267.283377 89.938313 
L 258.088571 98.720296 
L 248.893766 97.876939 
L 239.698961 101.459958 
L 230.504156 107.279511 
L 221.309351 116.480764 
L 212.114545 118.426724 
L 202.91974 111.409429 
L 193.724935 119.119317 
L 184.53013 116.856215 
L 175.335325 128.037087 
L 166.140519 127.344494 
L 156.945714 135.393489 
L 147.750909 136.806198 
L 138.556104 135.969449 
L 129.361299 142.985448 
L 120.166494 165.119391 
L 110.971688 176.308018 
L 101.776883 174.5182 
L 92.582078 198.05786 
L 83.387273 260.9442 
z
" style="fill:#1f77b4;fill-opacity:0.5;"/>
   </g>
   <g id="PolyCollection_2">
    <path clip-path="url(#pce0498c1a6)" d="M 83.387273 270.809463 
L 83.387273 318.044659 
L 92.582078 228.733618 
L 101.776883 206.525934 
L 110.971688 194.635574 
L 120.166494 176.884123 
L 129.361299 169.797973 
L 138.556104 162.1468 
L 147.750909 153.656962 
L 156.945714 151.052401 
L 166.140519 144.570224 
L 175.335325 143.028304 
L 184.53013 140.299991 
L 193.724935 143.328134 
L 202.91974 149.466755 
L 212.114545 134.32682 
L 221.309351 133.680802 
L 230.504156 133.86578 
L 239.698961 133.631292 
L 248.893766 137.827793 
L 258.088571 126.895345 
L 267.283377 121.477025 
L 276.478182 122.589302 
L 285.672987 126.315235 
L 294.867792 120.215323 
L 304.062597 119.191416 
L 313.257403 121.12354 
L 322.452208 113.716583 
L 331.647013 110.200059 
L 340.841818 119.661764 
L 350.036623 125.417356 
L 359.231429 121.12354 
L 368.426234 122.59822 
L 377.621039 117.433218 
L 386.815844 110.000846 
L 396.010649 114.289827 
L 405.205455 113.602232 
L 414.40026 112.478648 
L 423.595065 105.592515 
L 432.78987 107.670638 
L 441.984675 110.34617 
L 451.179481 105.27909 
L 460.374286 108.258819 
L 469.569091 110.179287 
L 478.763896 113.099063 
L 487.958701 107.73527 
L 497.153506 99.530421 
L 506.348312 108.478417 
L 515.543117 109.530498 
L 524.737922 107.227469 
L 533.932727 101.636635 
L 533.932727 84.431525 
L 533.932727 84.431525 
L 524.737922 99.648822 
L 515.543117 94.373203 
L 506.348312 98.397874 
L 497.153506 93.969214 
L 487.958701 97.654726 
L 478.763896 92.290933 
L 469.569091 99.669594 
L 460.374286 94.158586 
L 451.179481 97.138316 
L 441.984675 95.043826 
L 432.78987 93.260473 
L 423.595065 98.311186 
L 414.40026 98.856528 
L 405.205455 97.732944 
L 396.010649 101.504234 
L 386.815844 101.334331 
L 377.621039 99.847138 
L 368.426234 112.517677 
L 359.231429 106.560882 
L 350.036623 108.212246 
L 340.841818 110.995248 
L 331.647013 102.621412 
L 322.452208 105.050068 
L 313.257403 106.560882 
L 304.062597 104.034121 
L 294.867792 103.010214 
L 285.672987 105.828072 
L 276.478182 106.581415 
L 267.283377 107.693692 
L 258.088571 106.734258 
L 248.893766 110.66476 
L 239.698961 111.88867 
L 230.504156 120.571953 
L 221.309351 119.270636 
L 212.114545 114.165733 
L 202.91974 125.779109 
L 193.724935 127.458845 
L 184.53013 127.514397 
L 175.335325 129.24497 
L 166.140519 133.64823 
L 156.945714 140.542708 
L 147.750909 136.451853 
L 138.556104 141.33867 
L 129.361299 154.495628 
L 120.166494 168.217608 
L 110.971688 181.678354 
L 101.776883 193.568715 
L 92.582078 201.086932 
L 83.387273 270.809463 
z
" style="fill:#ff7f0e;fill-opacity:0.5;"/>
   </g>
   <g id="PolyCollection_3">
    <path clip-path="url(#pce0498c1a6)" d="M 83.387273 249.818659 
L 83.387273 306.336971 
L 92.582078 236.165094 
L 101.776883 215.489204 
L 110.971688 183.314105 
L 120.166494 187.081589 
L 129.361299 175.951388 
L 138.556104 159.917358 
L 147.750909 161.906822 
L 156.945714 150.348619 
L 166.140519 145.388444 
L 175.335325 139.201406 
L 184.53013 135.318416 
L 193.724935 131.405202 
L 202.91974 134.074382 
L 212.114545 132.891497 
L 221.309351 136.356334 
L 230.504156 123.207598 
L 239.698961 124.779706 
L 248.893766 120.530539 
L 258.088571 111.537695 
L 267.283377 118.109109 
L 276.478182 127.429071 
L 285.672987 126.627805 
L 294.867792 121.963616 
L 304.062597 123.437386 
L 313.257403 119.547413 
L 322.452208 111.759941 
L 331.647013 109.06811 
L 340.841818 107.276615 
L 350.036623 110.329812 
L 359.231429 114.585358 
L 368.426234 118.553082 
L 377.621039 113.140286 
L 386.815844 112.60138 
L 396.010649 109.114441 
L 405.205455 108.740896 
L 414.40026 104.76268 
L 423.595065 102.914695 
L 432.78987 104.76268 
L 441.984675 103.9549 
L 451.179481 104.328465 
L 460.374286 102.544852 
L 469.569091 102.213959 
L 478.763896 102.250413 
L 487.958701 102.149899 
L 497.153506 101.418907 
L 506.348312 102.060668 
L 515.543117 109.492144 
L 524.737922 104.243008 
L 533.932727 104.037307 
L 533.932727 85.003443 
L 533.932727 85.003443 
L 524.737922 86.284037 
L 515.543117 84.007492 
L 506.348312 76.576017 
L 497.153506 80.190368 
L 487.958701 82.431966 
L 478.763896 85.304042 
L 469.569091 80.881611 
L 460.374286 87.982194 
L 451.179481 89.17117 
L 441.984675 89.544735 
L 432.78987 94.682136 
L 423.595065 87.612351 
L 414.40026 94.682136 
L 405.205455 92.190215 
L 396.010649 88.844079 
L 386.815844 85.357141 
L 377.621039 86.30453 
L 368.426234 89.809504 
L 359.231429 96.749818 
L 350.036623 96.546479 
L 340.841818 93.654496 
L 331.647013 91.863001 
L 322.452208 96.602646 
L 313.257403 103.678124 
L 304.062597 98.301856 
L 294.867792 101.261921 
L 285.672987 101.056617 
L 276.478182 106.200531 
L 267.283377 112.547903 
L 258.088571 104.256366 
L 248.893766 114.585358 
L 239.698961 111.822486 
L 230.504156 110.422004 
L 221.309351 121.053989 
L 212.114545 123.032531 
L 202.91974 117.390761 
L 193.724935 121.546236 
L 184.53013 128.037087 
L 175.335325 127.126688 
L 166.140519 141.74778 
L 156.945714 138.273901 
L 147.750909 146.037533 
L 138.556104 148.026997 
L 129.361299 158.746279 
L 120.166494 162.479028 
L 110.971688 172.191692 
L 101.776883 178.660264 
L 92.582078 208.518407 
L 83.387273 249.818659 
z
" style="fill:#2ca02c;fill-opacity:0.5;"/>
   </g>
   <g id="PolyCollection_4">
    <path clip-path="url(#pce0498c1a6)" d="M 83.387273 344.524963 
L 83.387273 361.481909 
L 92.582078 291.129175 
L 101.776883 265.355605 
L 110.971688 251.432323 
L 120.166494 239.532867 
L 129.361299 231.238285 
L 138.556104 222.465291 
L 147.750909 214.4018 
L 156.945714 208.227893 
L 166.140519 201.155765 
L 175.335325 195.899513 
L 184.53013 191.434729 
L 193.724935 187.777067 
L 202.91974 184.741535 
L 212.114545 181.847957 
L 221.309351 178.723256 
L 230.504156 176.461539 
L 239.698961 174.627761 
L 248.893766 172.724306 
L 258.088571 172.967265 
L 267.283377 171.153288 
L 276.478182 170.530062 
L 285.672987 167.866307 
L 294.867792 166.700066 
L 304.062597 165.030295 
L 313.257403 165.315056 
L 322.452208 164.434343 
L 331.647013 162.782122 
L 340.841818 162.518844 
L 350.036623 161.167573 
L 359.231429 160.66139 
L 368.426234 159.765356 
L 377.621039 159.735211 
L 386.815844 159.427411 
L 396.010649 159.081484 
L 405.205455 159.190471 
L 414.40026 158.769029 
L 423.595065 158.652616 
L 432.78987 159.310918 
L 441.984675 157.962432 
L 451.179481 157.090992 
L 460.374286 156.792249 
L 469.569091 155.992782 
L 478.763896 155.733174 
L 487.958701 156.11503 
L 497.153506 155.404924 
L 506.348312 155.079303 
L 515.543117 155.785369 
L 524.737922 155.584045 
L 533.932727 155.933417 
L 533.932727 143.45731 
L 533.932727 143.45731 
L 524.737922 143.571847 
L 515.543117 143.722776 
L 506.348312 144.311425 
L 497.153506 144.925141 
L 487.958701 144.44987 
L 478.763896 144.479474 
L 469.569091 144.924371 
L 460.374286 144.242321 
L 451.179481 144.648081 
L 441.984675 144.950814 
L 432.78987 145.71584 
L 423.595065 145.669638 
L 414.40026 146.022894 
L 405.205455 147.127878 
L 396.010649 148.176203 
L 386.815844 148.53478 
L 377.621039 149.401153 
L 368.426234 150.897433 
L 359.231429 151.292989 
L 350.036623 150.669389 
L 340.841818 152.840637 
L 331.647013 153.634115 
L 322.452208 154.447657 
L 313.257403 154.506284 
L 304.062597 156.669721 
L 294.867792 157.113462 
L 285.672987 158.060732 
L 276.478182 159.506583 
L 267.283377 161.466538 
L 258.088571 163.762167 
L 248.893766 165.883803 
L 239.698961 164.919686 
L 230.504156 168.839356 
L 221.309351 170.687245 
L 212.114545 173.315992 
L 202.91974 176.410697 
L 193.724935 181.829211 
L 184.53013 184.512084 
L 175.335325 188.031677 
L 166.140519 192.403645 
L 156.945714 199.539012 
L 147.750909 206.046174 
L 138.556104 211.485673 
L 129.361299 220.090441 
L 120.166494 229.64329 
L 110.971688 242.049218 
L 101.776883 257.128011 
L 92.582078 278.556199 
L 83.387273 344.524963 
z
" style="fill:#d62728;fill-opacity:0.5;"/>
   </g>
   <g id="matplotlib.axis_1">
    <g id="xtick_1">
     <g id="line2d_1">
      <defs>
       <path d="M 0 0 
L 0 3.5 
" id="md7974fa49a" style="stroke:#000000;stroke-width:0.8;"/>
      </defs>
      <g>
       <use style="stroke:#000000;stroke-width:0.8;" x="83.387273" xlink:href="#md7974fa49a" y="376"/>
      </g>
     </g>
     <g id="text_1">
      <!-- 0 -->
      <g transform="translate(78.615398 394.397656)scale(0.15 -0.15)">
       <defs>
        <path d="M 2034 4250 
Q 1547 4250 1301 3770 
Q 1056 3291 1056 2328 
Q 1056 1369 1301 889 
Q 1547 409 2034 409 
Q 2525 409 2770 889 
Q 3016 1369 3016 2328 
Q 3016 3291 2770 3770 
Q 2525 4250 2034 4250 
z
M 2034 4750 
Q 2819 4750 3233 4129 
Q 3647 3509 3647 2328 
Q 3647 1150 3233 529 
Q 2819 -91 2034 -91 
Q 1250 -91 836 529 
Q 422 1150 422 2328 
Q 422 3509 836 4129 
Q 1250 4750 2034 4750 
z
" id="DejaVuSans-30" transform="scale(0.015625)"/>
       </defs>
       <use xlink:href="#DejaVuSans-30"/>
      </g>
     </g>
    </g>
    <g id="xtick_2">
     <g id="line2d_2">
      <g>
       <use style="stroke:#000000;stroke-width:0.8;" x="175.335325" xlink:href="#md7974fa49a" y="376"/>
      </g>
     </g>
     <g id="text_2">
      <!-- 10 -->
      <g transform="translate(165.791575 394.397656)scale(0.15 -0.15)">
       <defs>
        <path d="M 794 531 
L 1825 531 
L 1825 4091 
L 703 3866 
L 703 4441 
L 1819 4666 
L 2450 4666 
L 2450 531 
L 3481 531 
L 3481 0 
L 794 0 
L 794 531 
z
" id="DejaVuSans-31" transform="scale(0.015625)"/>
       </defs>
       <use xlink:href="#DejaVuSans-31"/>
       <use x="63.623047" xlink:href="#DejaVuSans-30"/>
      </g>
     </g>
    </g>
    <g id="xtick_3">
     <g id="line2d_3">
      <g>
       <use style="stroke:#000000;stroke-width:0.8;" x="267.283377" xlink:href="#md7974fa49a" y="376"/>
      </g>
     </g>
     <g id="text_3">
      <!-- 20 -->
      <g transform="translate(257.739627 394.397656)scale(0.15 -0.15)">
       <defs>
        <path d="M 1228 531 
L 3431 531 
L 3431 0 
L 469 0 
L 469 531 
Q 828 903 1448 1529 
Q 2069 2156 2228 2338 
Q 2531 2678 2651 2914 
Q 2772 3150 2772 3378 
Q 2772 3750 2511 3984 
Q 2250 4219 1831 4219 
Q 1534 4219 1204 4116 
Q 875 4013 500 3803 
L 500 4441 
Q 881 4594 1212 4672 
Q 1544 4750 1819 4750 
Q 2544 4750 2975 4387 
Q 3406 4025 3406 3419 
Q 3406 3131 3298 2873 
Q 3191 2616 2906 2266 
Q 2828 2175 2409 1742 
Q 1991 1309 1228 531 
z
" id="DejaVuSans-32" transform="scale(0.015625)"/>
       </defs>
       <use xlink:href="#DejaVuSans-32"/>
       <use x="63.623047" xlink:href="#DejaVuSans-30"/>
      </g>
     </g>
    </g>
    <g id="xtick_4">
     <g id="line2d_4">
      <g>
       <use style="stroke:#000000;stroke-width:0.8;" x="359.231429" xlink:href="#md7974fa49a" y="376"/>
      </g>
     </g>
     <g id="text_4">
      <!-- 30 -->
      <g transform="translate(349.687679 394.397656)scale(0.15 -0.15)">
       <defs>
        <path d="M 2597 2516 
Q 3050 2419 3304 2112 
Q 3559 1806 3559 1356 
Q 3559 666 3084 287 
Q 2609 -91 1734 -91 
Q 1441 -91 1130 -33 
Q 819 25 488 141 
L 488 750 
Q 750 597 1062 519 
Q 1375 441 1716 441 
Q 2309 441 2620 675 
Q 2931 909 2931 1356 
Q 2931 1769 2642 2001 
Q 2353 2234 1838 2234 
L 1294 2234 
L 1294 2753 
L 1863 2753 
Q 2328 2753 2575 2939 
Q 2822 3125 2822 3475 
Q 2822 3834 2567 4026 
Q 2313 4219 1838 4219 
Q 1578 4219 1281 4162 
Q 984 4106 628 3988 
L 628 4550 
Q 988 4650 1302 4700 
Q 1616 4750 1894 4750 
Q 2613 4750 3031 4423 
Q 3450 4097 3450 3541 
Q 3450 3153 3228 2886 
Q 3006 2619 2597 2516 
z
" id="DejaVuSans-33" transform="scale(0.015625)"/>
       </defs>
       <use xlink:href="#DejaVuSans-33"/>
       <use x="63.623047" xlink:href="#DejaVuSans-30"/>
      </g>
     </g>
    </g>
    <g id="xtick_5">
     <g id="line2d_5">
      <g>
       <use style="stroke:#000000;stroke-width:0.8;" x="451.179481" xlink:href="#md7974fa49a" y="376"/>
      </g>
     </g>
     <g id="text_5">
      <!-- 40 -->
      <g transform="translate(441.635731 394.397656)scale(0.15 -0.15)">
       <defs>
        <path d="M 2419 4116 
L 825 1625 
L 2419 1625 
L 2419 4116 
z
M 2253 4666 
L 3047 4666 
L 3047 1625 
L 3713 1625 
L 3713 1100 
L 3047 1100 
L 3047 0 
L 2419 0 
L 2419 1100 
L 313 1100 
L 313 1709 
L 2253 4666 
z
" id="DejaVuSans-34" transform="scale(0.015625)"/>
       </defs>
       <use xlink:href="#DejaVuSans-34"/>
       <use x="63.623047" xlink:href="#DejaVuSans-30"/>
      </g>
     </g>
    </g>
    <g id="xtick_6">
     <g id="line2d_6">
      <g>
       <use style="stroke:#000000;stroke-width:0.8;" x="543.127532" xlink:href="#md7974fa49a" y="376"/>
      </g>
     </g>
     <g id="text_6">
      <!-- 50 -->
      <g transform="translate(533.583782 394.397656)scale(0.15 -0.15)">
       <defs>
        <path d="M 691 4666 
L 3169 4666 
L 3169 4134 
L 1269 4134 
L 1269 2991 
Q 1406 3038 1543 3061 
Q 1681 3084 1819 3084 
Q 2600 3084 3056 2656 
Q 3513 2228 3513 1497 
Q 3513 744 3044 326 
Q 2575 -91 1722 -91 
Q 1428 -91 1123 -41 
Q 819 9 494 109 
L 494 744 
Q 775 591 1075 516 
Q 1375 441 1709 441 
Q 2250 441 2565 725 
Q 2881 1009 2881 1497 
Q 2881 1984 2565 2268 
Q 2250 2553 1709 2553 
Q 1456 2553 1204 2497 
Q 953 2441 691 2322 
L 691 4666 
z
" id="DejaVuSans-35" transform="scale(0.015625)"/>
       </defs>
       <use xlink:href="#DejaVuSans-35"/>
       <use x="63.623047" xlink:href="#DejaVuSans-30"/>
      </g>
     </g>
    </g>
    <g id="text_7">
     <!-- Global Communication Rounds -->
     <g transform="translate(193.217422 412.914844)scale(0.15 -0.15)">
      <defs>
       <path d="M 3809 666 
L 3809 1919 
L 2778 1919 
L 2778 2438 
L 4434 2438 
L 4434 434 
Q 4069 175 3628 42 
Q 3188 -91 2688 -91 
Q 1594 -91 976 548 
Q 359 1188 359 2328 
Q 359 3472 976 4111 
Q 1594 4750 2688 4750 
Q 3144 4750 3555 4637 
Q 3966 4525 4313 4306 
L 4313 3634 
Q 3963 3931 3569 4081 
Q 3175 4231 2741 4231 
Q 1884 4231 1454 3753 
Q 1025 3275 1025 2328 
Q 1025 1384 1454 906 
Q 1884 428 2741 428 
Q 3075 428 3337 486 
Q 3600 544 3809 666 
z
" id="DejaVuSans-47" transform="scale(0.015625)"/>
       <path d="M 603 4863 
L 1178 4863 
L 1178 0 
L 603 0 
L 603 4863 
z
" id="DejaVuSans-6c" transform="scale(0.015625)"/>
       <path d="M 1959 3097 
Q 1497 3097 1228 2736 
Q 959 2375 959 1747 
Q 959 1119 1226 758 
Q 1494 397 1959 397 
Q 2419 397 2687 759 
Q 2956 1122 2956 1747 
Q 2956 2369 2687 2733 
Q 2419 3097 1959 3097 
z
M 1959 3584 
Q 2709 3584 3137 3096 
Q 3566 2609 3566 1747 
Q 3566 888 3137 398 
Q 2709 -91 1959 -91 
Q 1206 -91 779 398 
Q 353 888 353 1747 
Q 353 2609 779 3096 
Q 1206 3584 1959 3584 
z
" id="DejaVuSans-6f" transform="scale(0.015625)"/>
       <path d="M 3116 1747 
Q 3116 2381 2855 2742 
Q 2594 3103 2138 3103 
Q 1681 3103 1420 2742 
Q 1159 2381 1159 1747 
Q 1159 1113 1420 752 
Q 1681 391 2138 391 
Q 2594 391 2855 752 
Q 3116 1113 3116 1747 
z
M 1159 2969 
Q 1341 3281 1617 3432 
Q 1894 3584 2278 3584 
Q 2916 3584 3314 3078 
Q 3713 2572 3713 1747 
Q 3713 922 3314 415 
Q 2916 -91 2278 -91 
Q 1894 -91 1617 61 
Q 1341 213 1159 525 
L 1159 0 
L 581 0 
L 581 4863 
L 1159 4863 
L 1159 2969 
z
" id="DejaVuSans-62" transform="scale(0.015625)"/>
       <path d="M 2194 1759 
Q 1497 1759 1228 1600 
Q 959 1441 959 1056 
Q 959 750 1161 570 
Q 1363 391 1709 391 
Q 2188 391 2477 730 
Q 2766 1069 2766 1631 
L 2766 1759 
L 2194 1759 
z
M 3341 1997 
L 3341 0 
L 2766 0 
L 2766 531 
Q 2569 213 2275 61 
Q 1981 -91 1556 -91 
Q 1019 -91 701 211 
Q 384 513 384 1019 
Q 384 1609 779 1909 
Q 1175 2209 1959 2209 
L 2766 2209 
L 2766 2266 
Q 2766 2663 2505 2880 
Q 2244 3097 1772 3097 
Q 1472 3097 1187 3025 
Q 903 2953 641 2809 
L 641 3341 
Q 956 3463 1253 3523 
Q 1550 3584 1831 3584 
Q 2591 3584 2966 3190 
Q 3341 2797 3341 1997 
z
" id="DejaVuSans-61" transform="scale(0.015625)"/>
       <path id="DejaVuSans-20" transform="scale(0.015625)"/>
       <path d="M 4122 4306 
L 4122 3641 
Q 3803 3938 3442 4084 
Q 3081 4231 2675 4231 
Q 1875 4231 1450 3742 
Q 1025 3253 1025 2328 
Q 1025 1406 1450 917 
Q 1875 428 2675 428 
Q 3081 428 3442 575 
Q 3803 722 4122 1019 
L 4122 359 
Q 3791 134 3420 21 
Q 3050 -91 2638 -91 
Q 1578 -91 968 557 
Q 359 1206 359 2328 
Q 359 3453 968 4101 
Q 1578 4750 2638 4750 
Q 3056 4750 3426 4639 
Q 3797 4528 4122 4306 
z
" id="DejaVuSans-43" transform="scale(0.015625)"/>
       <path d="M 3328 2828 
Q 3544 3216 3844 3400 
Q 4144 3584 4550 3584 
Q 5097 3584 5394 3201 
Q 5691 2819 5691 2113 
L 5691 0 
L 5113 0 
L 5113 2094 
Q 5113 2597 4934 2840 
Q 4756 3084 4391 3084 
Q 3944 3084 3684 2787 
Q 3425 2491 3425 1978 
L 3425 0 
L 2847 0 
L 2847 2094 
Q 2847 2600 2669 2842 
Q 2491 3084 2119 3084 
Q 1678 3084 1418 2786 
Q 1159 2488 1159 1978 
L 1159 0 
L 581 0 
L 581 3500 
L 1159 3500 
L 1159 2956 
Q 1356 3278 1631 3431 
Q 1906 3584 2284 3584 
Q 2666 3584 2933 3390 
Q 3200 3197 3328 2828 
z
" id="DejaVuSans-6d" transform="scale(0.015625)"/>
       <path d="M 544 1381 
L 544 3500 
L 1119 3500 
L 1119 1403 
Q 1119 906 1312 657 
Q 1506 409 1894 409 
Q 2359 409 2629 706 
Q 2900 1003 2900 1516 
L 2900 3500 
L 3475 3500 
L 3475 0 
L 2900 0 
L 2900 538 
Q 2691 219 2414 64 
Q 2138 -91 1772 -91 
Q 1169 -91 856 284 
Q 544 659 544 1381 
z
M 1991 3584 
L 1991 3584 
z
" id="DejaVuSans-75" transform="scale(0.015625)"/>
       <path d="M 3513 2113 
L 3513 0 
L 2938 0 
L 2938 2094 
Q 2938 2591 2744 2837 
Q 2550 3084 2163 3084 
Q 1697 3084 1428 2787 
Q 1159 2491 1159 1978 
L 1159 0 
L 581 0 
L 581 3500 
L 1159 3500 
L 1159 2956 
Q 1366 3272 1645 3428 
Q 1925 3584 2291 3584 
Q 2894 3584 3203 3211 
Q 3513 2838 3513 2113 
z
" id="DejaVuSans-6e" transform="scale(0.015625)"/>
       <path d="M 603 3500 
L 1178 3500 
L 1178 0 
L 603 0 
L 603 3500 
z
M 603 4863 
L 1178 4863 
L 1178 4134 
L 603 4134 
L 603 4863 
z
" id="DejaVuSans-69" transform="scale(0.015625)"/>
       <path d="M 3122 3366 
L 3122 2828 
Q 2878 2963 2633 3030 
Q 2388 3097 2138 3097 
Q 1578 3097 1268 2742 
Q 959 2388 959 1747 
Q 959 1106 1268 751 
Q 1578 397 2138 397 
Q 2388 397 2633 464 
Q 2878 531 3122 666 
L 3122 134 
Q 2881 22 2623 -34 
Q 2366 -91 2075 -91 
Q 1284 -91 818 406 
Q 353 903 353 1747 
Q 353 2603 823 3093 
Q 1294 3584 2113 3584 
Q 2378 3584 2631 3529 
Q 2884 3475 3122 3366 
z
" id="DejaVuSans-63" transform="scale(0.015625)"/>
       <path d="M 1172 4494 
L 1172 3500 
L 2356 3500 
L 2356 3053 
L 1172 3053 
L 1172 1153 
Q 1172 725 1289 603 
Q 1406 481 1766 481 
L 2356 481 
L 2356 0 
L 1766 0 
Q 1100 0 847 248 
Q 594 497 594 1153 
L 594 3053 
L 172 3053 
L 172 3500 
L 594 3500 
L 594 4494 
L 1172 4494 
z
" id="DejaVuSans-74" transform="scale(0.015625)"/>
       <path d="M 2841 2188 
Q 3044 2119 3236 1894 
Q 3428 1669 3622 1275 
L 4263 0 
L 3584 0 
L 2988 1197 
Q 2756 1666 2539 1819 
Q 2322 1972 1947 1972 
L 1259 1972 
L 1259 0 
L 628 0 
L 628 4666 
L 2053 4666 
Q 2853 4666 3247 4331 
Q 3641 3997 3641 3322 
Q 3641 2881 3436 2590 
Q 3231 2300 2841 2188 
z
M 1259 4147 
L 1259 2491 
L 2053 2491 
Q 2509 2491 2742 2702 
Q 2975 2913 2975 3322 
Q 2975 3731 2742 3939 
Q 2509 4147 2053 4147 
L 1259 4147 
z
" id="DejaVuSans-52" transform="scale(0.015625)"/>
       <path d="M 2906 2969 
L 2906 4863 
L 3481 4863 
L 3481 0 
L 2906 0 
L 2906 525 
Q 2725 213 2448 61 
Q 2172 -91 1784 -91 
Q 1150 -91 751 415 
Q 353 922 353 1747 
Q 353 2572 751 3078 
Q 1150 3584 1784 3584 
Q 2172 3584 2448 3432 
Q 2725 3281 2906 2969 
z
M 947 1747 
Q 947 1113 1208 752 
Q 1469 391 1925 391 
Q 2381 391 2643 752 
Q 2906 1113 2906 1747 
Q 2906 2381 2643 2742 
Q 2381 3103 1925 3103 
Q 1469 3103 1208 2742 
Q 947 2381 947 1747 
z
" id="DejaVuSans-64" transform="scale(0.015625)"/>
       <path d="M 2834 3397 
L 2834 2853 
Q 2591 2978 2328 3040 
Q 2066 3103 1784 3103 
Q 1356 3103 1142 2972 
Q 928 2841 928 2578 
Q 928 2378 1081 2264 
Q 1234 2150 1697 2047 
L 1894 2003 
Q 2506 1872 2764 1633 
Q 3022 1394 3022 966 
Q 3022 478 2636 193 
Q 2250 -91 1575 -91 
Q 1294 -91 989 -36 
Q 684 19 347 128 
L 347 722 
Q 666 556 975 473 
Q 1284 391 1588 391 
Q 1994 391 2212 530 
Q 2431 669 2431 922 
Q 2431 1156 2273 1281 
Q 2116 1406 1581 1522 
L 1381 1569 
Q 847 1681 609 1914 
Q 372 2147 372 2553 
Q 372 3047 722 3315 
Q 1072 3584 1716 3584 
Q 2034 3584 2315 3537 
Q 2597 3491 2834 3397 
z
" id="DejaVuSans-73" transform="scale(0.015625)"/>
      </defs>
      <use xlink:href="#DejaVuSans-47"/>
      <use x="77.490234" xlink:href="#DejaVuSans-6c"/>
      <use x="105.273438" xlink:href="#DejaVuSans-6f"/>
      <use x="166.455078" xlink:href="#DejaVuSans-62"/>
      <use x="229.931641" xlink:href="#DejaVuSans-61"/>
      <use x="291.210938" xlink:href="#DejaVuSans-6c"/>
      <use x="318.994141" xlink:href="#DejaVuSans-20"/>
      <use x="350.78125" xlink:href="#DejaVuSans-43"/>
      <use x="420.605469" xlink:href="#DejaVuSans-6f"/>
      <use x="481.787109" xlink:href="#DejaVuSans-6d"/>
      <use x="579.199219" xlink:href="#DejaVuSans-6d"/>
      <use x="676.611328" xlink:href="#DejaVuSans-75"/>
      <use x="739.990234" xlink:href="#DejaVuSans-6e"/>
      <use x="803.369141" xlink:href="#DejaVuSans-69"/>
      <use x="831.152344" xlink:href="#DejaVuSans-63"/>
      <use x="886.132812" xlink:href="#DejaVuSans-61"/>
      <use x="947.412109" xlink:href="#DejaVuSans-74"/>
      <use x="986.621094" xlink:href="#DejaVuSans-69"/>
      <use x="1014.404297" xlink:href="#DejaVuSans-6f"/>
      <use x="1075.585938" xlink:href="#DejaVuSans-6e"/>
      <use x="1138.964844" xlink:href="#DejaVuSans-20"/>
      <use x="1170.751953" xlink:href="#DejaVuSans-52"/>
      <use x="1235.734375" xlink:href="#DejaVuSans-6f"/>
      <use x="1296.916016" xlink:href="#DejaVuSans-75"/>
      <use x="1360.294922" xlink:href="#DejaVuSans-6e"/>
      <use x="1423.673828" xlink:href="#DejaVuSans-64"/>
      <use x="1487.150391" xlink:href="#DejaVuSans-73"/>
     </g>
    </g>
   </g>
   <g id="matplotlib.axis_2">
    <g id="ytick_1">
     <g id="line2d_7">
      <defs>
       <path d="M 0 0 
L -3.5 0 
" id="mae653625d0" style="stroke:#000000;stroke-width:0.8;"/>
      </defs>
      <g>
       <use style="stroke:#000000;stroke-width:0.8;" x="60.86" xlink:href="#mae653625d0" y="375.430142"/>
      </g>
     </g>
     <g id="text_8">
      <!-- 88 -->
      <g transform="translate(34.7725 381.12897)scale(0.15 -0.15)">
       <defs>
        <path d="M 2034 2216 
Q 1584 2216 1326 1975 
Q 1069 1734 1069 1313 
Q 1069 891 1326 650 
Q 1584 409 2034 409 
Q 2484 409 2743 651 
Q 3003 894 3003 1313 
Q 3003 1734 2745 1975 
Q 2488 2216 2034 2216 
z
M 1403 2484 
Q 997 2584 770 2862 
Q 544 3141 544 3541 
Q 544 4100 942 4425 
Q 1341 4750 2034 4750 
Q 2731 4750 3128 4425 
Q 3525 4100 3525 3541 
Q 3525 3141 3298 2862 
Q 3072 2584 2669 2484 
Q 3125 2378 3379 2068 
Q 3634 1759 3634 1313 
Q 3634 634 3220 271 
Q 2806 -91 2034 -91 
Q 1263 -91 848 271 
Q 434 634 434 1313 
Q 434 1759 690 2068 
Q 947 2378 1403 2484 
z
M 1172 3481 
Q 1172 3119 1398 2916 
Q 1625 2713 2034 2713 
Q 2441 2713 2670 2916 
Q 2900 3119 2900 3481 
Q 2900 3844 2670 4047 
Q 2441 4250 2034 4250 
Q 1625 4250 1398 4047 
Q 1172 3844 1172 3481 
z
" id="DejaVuSans-38" transform="scale(0.015625)"/>
       </defs>
       <use xlink:href="#DejaVuSans-38"/>
       <use x="63.623047" xlink:href="#DejaVuSans-38"/>
      </g>
     </g>
    </g>
    <g id="ytick_2">
     <g id="line2d_8">
      <g>
       <use style="stroke:#000000;stroke-width:0.8;" x="60.86" xlink:href="#mae653625d0" y="316.721487"/>
      </g>
     </g>
     <g id="text_9">
      <!-- 90 -->
      <g transform="translate(34.7725 322.420315)scale(0.15 -0.15)">
       <defs>
        <path d="M 703 97 
L 703 672 
Q 941 559 1184 500 
Q 1428 441 1663 441 
Q 2288 441 2617 861 
Q 2947 1281 2994 2138 
Q 2813 1869 2534 1725 
Q 2256 1581 1919 1581 
Q 1219 1581 811 2004 
Q 403 2428 403 3163 
Q 403 3881 828 4315 
Q 1253 4750 1959 4750 
Q 2769 4750 3195 4129 
Q 3622 3509 3622 2328 
Q 3622 1225 3098 567 
Q 2575 -91 1691 -91 
Q 1453 -91 1209 -44 
Q 966 3 703 97 
z
M 1959 2075 
Q 2384 2075 2632 2365 
Q 2881 2656 2881 3163 
Q 2881 3666 2632 3958 
Q 2384 4250 1959 4250 
Q 1534 4250 1286 3958 
Q 1038 3666 1038 3163 
Q 1038 2656 1286 2365 
Q 1534 2075 1959 2075 
z
" id="DejaVuSans-39" transform="scale(0.015625)"/>
       </defs>
       <use xlink:href="#DejaVuSans-39"/>
       <use x="63.623047" xlink:href="#DejaVuSans-30"/>
      </g>
     </g>
    </g>
    <g id="ytick_3">
     <g id="line2d_9">
      <g>
       <use style="stroke:#000000;stroke-width:0.8;" x="60.86" xlink:href="#mae653625d0" y="258.012832"/>
      </g>
     </g>
     <g id="text_10">
      <!-- 92 -->
      <g transform="translate(34.7725 263.71166)scale(0.15 -0.15)">
       <use xlink:href="#DejaVuSans-39"/>
       <use x="63.623047" xlink:href="#DejaVuSans-32"/>
      </g>
     </g>
    </g>
    <g id="ytick_4">
     <g id="line2d_10">
      <g>
       <use style="stroke:#000000;stroke-width:0.8;" x="60.86" xlink:href="#mae653625d0" y="199.304177"/>
      </g>
     </g>
     <g id="text_11">
      <!-- 94 -->
      <g transform="translate(34.7725 205.003005)scale(0.15 -0.15)">
       <use xlink:href="#DejaVuSans-39"/>
       <use x="63.623047" xlink:href="#DejaVuSans-34"/>
      </g>
     </g>
    </g>
    <g id="ytick_5">
     <g id="line2d_11">
      <g>
       <use style="stroke:#000000;stroke-width:0.8;" x="60.86" xlink:href="#mae653625d0" y="140.595522"/>
      </g>
     </g>
     <g id="text_12">
      <!-- 96 -->
      <g transform="translate(34.7725 146.29435)scale(0.15 -0.15)">
       <defs>
        <path d="M 2113 2584 
Q 1688 2584 1439 2293 
Q 1191 2003 1191 1497 
Q 1191 994 1439 701 
Q 1688 409 2113 409 
Q 2538 409 2786 701 
Q 3034 994 3034 1497 
Q 3034 2003 2786 2293 
Q 2538 2584 2113 2584 
z
M 3366 4563 
L 3366 3988 
Q 3128 4100 2886 4159 
Q 2644 4219 2406 4219 
Q 1781 4219 1451 3797 
Q 1122 3375 1075 2522 
Q 1259 2794 1537 2939 
Q 1816 3084 2150 3084 
Q 2853 3084 3261 2657 
Q 3669 2231 3669 1497 
Q 3669 778 3244 343 
Q 2819 -91 2113 -91 
Q 1303 -91 875 529 
Q 447 1150 447 2328 
Q 447 3434 972 4092 
Q 1497 4750 2381 4750 
Q 2619 4750 2861 4703 
Q 3103 4656 3366 4563 
z
" id="DejaVuSans-36" transform="scale(0.015625)"/>
       </defs>
       <use xlink:href="#DejaVuSans-39"/>
       <use x="63.623047" xlink:href="#DejaVuSans-36"/>
      </g>
     </g>
    </g>
    <g id="ytick_6">
     <g id="line2d_12">
      <g>
       <use style="stroke:#000000;stroke-width:0.8;" x="60.86" xlink:href="#mae653625d0" y="81.886867"/>
      </g>
     </g>
     <g id="text_13">
      <!-- 98 -->
      <g transform="translate(34.7725 87.585695)scale(0.15 -0.15)">
       <use xlink:href="#DejaVuSans-39"/>
       <use x="63.623047" xlink:href="#DejaVuSans-38"/>
      </g>
     </g>
    </g>
    <g id="text_14">
     <!-- Test Accuracy -->
     <g transform="translate(27.652969 267.694744)rotate(-90)scale(0.15 -0.15)">
      <defs>
       <path d="M -19 4666 
L 3928 4666 
L 3928 4134 
L 2272 4134 
L 2272 0 
L 1638 0 
L 1638 4134 
L -19 4134 
L -19 4666 
z
" id="DejaVuSans-54" transform="scale(0.015625)"/>
       <path d="M 3597 1894 
L 3597 1613 
L 953 1613 
Q 991 1019 1311 708 
Q 1631 397 2203 397 
Q 2534 397 2845 478 
Q 3156 559 3463 722 
L 3463 178 
Q 3153 47 2828 -22 
Q 2503 -91 2169 -91 
Q 1331 -91 842 396 
Q 353 884 353 1716 
Q 353 2575 817 3079 
Q 1281 3584 2069 3584 
Q 2775 3584 3186 3129 
Q 3597 2675 3597 1894 
z
M 3022 2063 
Q 3016 2534 2758 2815 
Q 2500 3097 2075 3097 
Q 1594 3097 1305 2825 
Q 1016 2553 972 2059 
L 3022 2063 
z
" id="DejaVuSans-65" transform="scale(0.015625)"/>
       <path d="M 2188 4044 
L 1331 1722 
L 3047 1722 
L 2188 4044 
z
M 1831 4666 
L 2547 4666 
L 4325 0 
L 3669 0 
L 3244 1197 
L 1141 1197 
L 716 0 
L 50 0 
L 1831 4666 
z
" id="DejaVuSans-41" transform="scale(0.015625)"/>
       <path d="M 2631 2963 
Q 2534 3019 2420 3045 
Q 2306 3072 2169 3072 
Q 1681 3072 1420 2755 
Q 1159 2438 1159 1844 
L 1159 0 
L 581 0 
L 581 3500 
L 1159 3500 
L 1159 2956 
Q 1341 3275 1631 3429 
Q 1922 3584 2338 3584 
Q 2397 3584 2469 3576 
Q 2541 3569 2628 3553 
L 2631 2963 
z
" id="DejaVuSans-72" transform="scale(0.015625)"/>
       <path d="M 2059 -325 
Q 1816 -950 1584 -1140 
Q 1353 -1331 966 -1331 
L 506 -1331 
L 506 -850 
L 844 -850 
Q 1081 -850 1212 -737 
Q 1344 -625 1503 -206 
L 1606 56 
L 191 3500 
L 800 3500 
L 1894 763 
L 2988 3500 
L 3597 3500 
L 2059 -325 
z
" id="DejaVuSans-79" transform="scale(0.015625)"/>
      </defs>
      <use xlink:href="#DejaVuSans-54"/>
      <use x="44.083984" xlink:href="#DejaVuSans-65"/>
      <use x="105.607422" xlink:href="#DejaVuSans-73"/>
      <use x="157.707031" xlink:href="#DejaVuSans-74"/>
      <use x="196.916016" xlink:href="#DejaVuSans-20"/>
      <use x="228.703125" xlink:href="#DejaVuSans-41"/>
      <use x="295.361328" xlink:href="#DejaVuSans-63"/>
      <use x="350.341797" xlink:href="#DejaVuSans-63"/>
      <use x="405.322266" xlink:href="#DejaVuSans-75"/>
      <use x="468.701172" xlink:href="#DejaVuSans-72"/>
      <use x="509.814453" xlink:href="#DejaVuSans-61"/>
      <use x="571.09375" xlink:href="#DejaVuSans-63"/>
      <use x="626.074219" xlink:href="#DejaVuSans-79"/>
     </g>
    </g>
   </g>
   <g id="line2d_13">
    <path clip-path="url(#pce0498c1a6)" d="M 83.387273 274.362078 
L 92.582078 205.992505 
L 101.776883 185.184374 
L 110.971688 182.954931 
L 120.166494 171.064571 
L 129.361299 153.22903 
L 138.556104 144.31126 
L 147.750909 140.595522 
L 156.945714 141.33867 
L 166.140519 131.677752 
L 175.335325 131.677752 
L 184.53013 123.503129 
L 193.724935 122.759981 
L 202.91974 118.301096 
L 212.114545 122.759981 
L 221.309351 118.301096 
L 230.504156 111.612768 
L 239.698961 110.126473 
L 248.893766 103.438146 
L 258.088571 104.181293 
L 267.283377 101.208703 
L 276.478182 102.694998 
L 285.672987 107.153883 
L 294.867792 107.153883 
L 304.062597 104.181293 
L 313.257403 97.492965 
L 322.452208 101.95185 
L 331.647013 98.236113 
L 340.841818 100.465555 
L 350.036623 104.924441 
L 359.231429 101.208703 
L 368.426234 94.520375 
L 377.621039 95.263523 
L 386.815844 90.06149 
L 396.010649 93.777228 
L 405.205455 90.06149 
L 414.40026 94.520375 
L 423.595065 91.547785 
L 432.78987 91.547785 
L 441.984675 87.832047 
L 451.179481 91.547785 
L 460.374286 92.290933 
L 469.569091 90.804637 
L 478.763896 84.11631 
L 487.958701 81.886867 
L 497.153506 80.400572 
L 506.348312 78.914277 
L 515.543117 81.886867 
L 524.737922 84.11631 
L 533.932727 75.198539 
" style="fill:none;stroke:#1f77b4;stroke-linecap:square;stroke-width:1.5;"/>
   </g>
   <g id="line2d_14">
    <path clip-path="url(#pce0498c1a6)" d="M 83.387273 294.427061 
L 92.582078 214.910275 
L 101.776883 200.047325 
L 110.971688 188.156964 
L 120.166494 172.550866 
L 129.361299 162.1468 
L 138.556104 151.742735 
L 147.750909 145.054407 
L 156.945714 145.797555 
L 166.140519 139.109227 
L 175.335325 136.136637 
L 184.53013 133.907194 
L 193.724935 135.393489 
L 202.91974 137.622932 
L 212.114545 124.246276 
L 221.309351 126.475719 
L 230.504156 127.218866 
L 239.698961 122.759981 
L 248.893766 124.246276 
L 258.088571 116.814801 
L 267.283377 114.585358 
L 276.478182 114.585358 
L 285.672987 116.071654 
L 294.867792 111.612768 
L 304.062597 111.612768 
L 313.257403 113.842211 
L 322.452208 109.383326 
L 331.647013 106.410736 
L 340.841818 115.328506 
L 350.036623 116.814801 
L 359.231429 113.842211 
L 368.426234 117.557949 
L 377.621039 108.640178 
L 386.815844 105.667588 
L 396.010649 107.897031 
L 405.205455 105.667588 
L 414.40026 105.667588 
L 423.595065 101.95185 
L 432.78987 100.465555 
L 441.984675 102.694998 
L 451.179481 101.208703 
L 460.374286 101.208703 
L 469.569091 104.924441 
L 478.763896 102.694998 
L 487.958701 102.694998 
L 497.153506 96.749818 
L 506.348312 103.438146 
L 515.543117 101.95185 
L 524.737922 103.438146 
L 533.932727 93.03408 
" style="fill:none;stroke:#ff7f0e;stroke-linecap:square;stroke-width:1.5;"/>
   </g>
   <g id="line2d_15">
    <path clip-path="url(#pce0498c1a6)" d="M 83.387273 278.077815 
L 92.582078 222.34175 
L 101.776883 197.074734 
L 110.971688 177.752899 
L 120.166494 174.780308 
L 129.361299 167.348833 
L 138.556104 153.972178 
L 147.750909 153.972178 
L 156.945714 144.31126 
L 166.140519 143.568112 
L 175.335325 133.164047 
L 184.53013 131.677752 
L 193.724935 126.475719 
L 202.91974 125.732571 
L 212.114545 127.962014 
L 221.309351 128.705162 
L 230.504156 116.814801 
L 239.698961 118.301096 
L 248.893766 117.557949 
L 258.088571 107.897031 
L 267.283377 115.328506 
L 276.478182 116.814801 
L 285.672987 113.842211 
L 294.867792 111.612768 
L 304.062597 110.869621 
L 313.257403 111.612768 
L 322.452208 104.181293 
L 331.647013 100.465555 
L 340.841818 100.465555 
L 350.036623 103.438146 
L 359.231429 105.667588 
L 368.426234 104.181293 
L 377.621039 99.722408 
L 386.815844 98.97926 
L 396.010649 98.97926 
L 405.205455 100.465555 
L 414.40026 99.722408 
L 423.595065 95.263523 
L 432.78987 99.722408 
L 441.984675 96.749818 
L 451.179481 96.749818 
L 460.374286 95.263523 
L 469.569091 91.547785 
L 478.763896 93.777228 
L 487.958701 92.290933 
L 497.153506 90.804637 
L 506.348312 89.318342 
L 515.543117 96.749818 
L 524.737922 95.263523 
L 533.932727 94.520375 
" style="fill:none;stroke:#2ca02c;stroke-linecap:square;stroke-width:1.5;"/>
   </g>
   <g id="line2d_16">
    <path clip-path="url(#pce0498c1a6)" d="M 83.387273 353.003436 
L 92.582078 284.842687 
L 101.776883 261.241808 
L 110.971688 246.74077 
L 120.166494 234.588079 
L 129.361299 225.664363 
L 138.556104 216.975482 
L 147.750909 210.223987 
L 156.945714 203.883452 
L 166.140519 196.779705 
L 175.335325 191.965595 
L 184.53013 187.973407 
L 193.724935 184.803139 
L 202.91974 180.576116 
L 212.114545 177.581975 
L 221.309351 174.705251 
L 230.504156 172.650448 
L 239.698961 169.773724 
L 248.893766 169.304054 
L 258.088571 168.364716 
L 267.283377 166.309913 
L 276.478182 165.018323 
L 285.672987 162.96352 
L 294.867792 161.906764 
L 304.062597 160.850008 
L 313.257403 159.91067 
L 322.452208 159.441 
L 331.647013 158.208119 
L 340.841818 157.679741 
L 350.036623 155.918481 
L 359.231429 155.97719 
L 368.426234 155.331394 
L 377.621039 154.568182 
L 386.815844 153.981095 
L 396.010649 153.628843 
L 405.205455 153.159174 
L 414.40026 152.395962 
L 423.595065 152.161127 
L 432.78987 152.513379 
L 441.984675 151.456623 
L 451.179481 150.869537 
L 460.374286 150.517285 
L 469.569091 150.458576 
L 478.763896 150.106324 
L 487.958701 150.28245 
L 497.153506 150.165033 
L 506.348312 149.695364 
L 515.543117 149.754072 
L 524.737922 149.577946 
L 533.932727 149.695364 
" style="fill:none;stroke:#d62728;stroke-linecap:square;stroke-width:1.5;"/>
   </g>
   <g id="patch_3">
    <path d="M 60.86 376 
L 60.86 56.601989 
" style="fill:none;stroke:#000000;stroke-linecap:square;stroke-linejoin:miter;stroke-width:0.8;"/>
   </g>
   <g id="patch_4">
    <path d="M 556.46 376 
L 556.46 56.601989 
" style="fill:none;stroke:#000000;stroke-linecap:square;stroke-linejoin:miter;stroke-width:0.8;"/>
   </g>
   <g id="patch_5">
    <path d="M 60.86 376 
L 556.46 376 
" style="fill:none;stroke:#000000;stroke-linecap:square;stroke-linejoin:miter;stroke-width:0.8;"/>
   </g>
   <g id="patch_6">
    <path d="M 60.86 56.601989 
L 556.46 56.601989 
" style="fill:none;stroke:#000000;stroke-linecap:square;stroke-linejoin:miter;stroke-width:0.8;"/>
   </g>
   <g id="legend_1">
    <g id="patch_7">
     <path d="M 59.062344 42.709474 
L 558.257656 42.709474 
Q 561.257656 42.709474 561.257656 39.709474 
L 561.257656 19.192287 
Q 561.257656 16.192287 558.257656 16.192287 
L 59.062344 16.192287 
Q 56.062344 16.192287 56.062344 19.192287 
L 56.062344 39.709474 
Q 56.062344 42.709474 59.062344 42.709474 
z
" style="fill:#ffffff;opacity:0.8;stroke:#cccccc;stroke-linejoin:miter;"/>
    </g>
    <g id="line2d_17">
     <path d="M 62.062344 28.339943 
L 92.062344 28.339943 
" style="fill:none;stroke:#1f77b4;stroke-linecap:square;stroke-width:1.5;"/>
    </g>
    <g id="line2d_18"/>
    <g id="text_15">
     <!-- FedAvg -->
     <g transform="translate(104.062344 33.589943)scale(0.15 -0.15)">
      <defs>
       <path d="M 628 4666 
L 3309 4666 
L 3309 4134 
L 1259 4134 
L 1259 2759 
L 3109 2759 
L 3109 2228 
L 1259 2228 
L 1259 0 
L 628 0 
L 628 4666 
z
" id="DejaVuSans-46" transform="scale(0.015625)"/>
       <path d="M 191 3500 
L 800 3500 
L 1894 563 
L 2988 3500 
L 3597 3500 
L 2284 0 
L 1503 0 
L 191 3500 
z
" id="DejaVuSans-76" transform="scale(0.015625)"/>
       <path d="M 2906 1791 
Q 2906 2416 2648 2759 
Q 2391 3103 1925 3103 
Q 1463 3103 1205 2759 
Q 947 2416 947 1791 
Q 947 1169 1205 825 
Q 1463 481 1925 481 
Q 2391 481 2648 825 
Q 2906 1169 2906 1791 
z
M 3481 434 
Q 3481 -459 3084 -895 
Q 2688 -1331 1869 -1331 
Q 1566 -1331 1297 -1286 
Q 1028 -1241 775 -1147 
L 775 -588 
Q 1028 -725 1275 -790 
Q 1522 -856 1778 -856 
Q 2344 -856 2625 -561 
Q 2906 -266 2906 331 
L 2906 616 
Q 2728 306 2450 153 
Q 2172 0 1784 0 
Q 1141 0 747 490 
Q 353 981 353 1791 
Q 353 2603 747 3093 
Q 1141 3584 1784 3584 
Q 2172 3584 2450 3431 
Q 2728 3278 2906 2969 
L 2906 3500 
L 3481 3500 
L 3481 434 
z
" id="DejaVuSans-67" transform="scale(0.015625)"/>
      </defs>
      <use xlink:href="#DejaVuSans-46"/>
      <use x="52.019531" xlink:href="#DejaVuSans-65"/>
      <use x="113.542969" xlink:href="#DejaVuSans-64"/>
      <use x="177.019531" xlink:href="#DejaVuSans-41"/>
      <use x="239.552734" xlink:href="#DejaVuSans-76"/>
      <use x="298.732422" xlink:href="#DejaVuSans-67"/>
     </g>
    </g>
    <g id="line2d_19">
     <path d="M 188.3975 28.339943 
L 218.3975 28.339943 
" style="fill:none;stroke:#ff7f0e;stroke-linecap:square;stroke-width:1.5;"/>
    </g>
    <g id="line2d_20"/>
    <g id="text_16">
     <!-- FedMed -->
     <g transform="translate(230.3975 33.589943)scale(0.15 -0.15)">
      <defs>
       <path d="M 628 4666 
L 1569 4666 
L 2759 1491 
L 3956 4666 
L 4897 4666 
L 4897 0 
L 4281 0 
L 4281 4097 
L 3078 897 
L 2444 897 
L 1241 4097 
L 1241 0 
L 628 0 
L 628 4666 
z
" id="DejaVuSans-4d" transform="scale(0.015625)"/>
      </defs>
      <use xlink:href="#DejaVuSans-46"/>
      <use x="52.019531" xlink:href="#DejaVuSans-65"/>
      <use x="113.542969" xlink:href="#DejaVuSans-64"/>
      <use x="177.019531" xlink:href="#DejaVuSans-4d"/>
      <use x="263.298828" xlink:href="#DejaVuSans-65"/>
      <use x="324.822266" xlink:href="#DejaVuSans-64"/>
     </g>
    </g>
    <g id="line2d_21">
     <path d="M 318.646719 28.339943 
L 348.646719 28.339943 
" style="fill:none;stroke:#2ca02c;stroke-linecap:square;stroke-width:1.5;"/>
    </g>
    <g id="line2d_22"/>
    <g id="text_17">
     <!-- FedProx -->
     <g transform="translate(360.646719 33.589943)scale(0.15 -0.15)">
      <defs>
       <path d="M 1259 4147 
L 1259 2394 
L 2053 2394 
Q 2494 2394 2734 2622 
Q 2975 2850 2975 3272 
Q 2975 3691 2734 3919 
Q 2494 4147 2053 4147 
L 1259 4147 
z
M 628 4666 
L 2053 4666 
Q 2838 4666 3239 4311 
Q 3641 3956 3641 3272 
Q 3641 2581 3239 2228 
Q 2838 1875 2053 1875 
L 1259 1875 
L 1259 0 
L 628 0 
L 628 4666 
z
" id="DejaVuSans-50" transform="scale(0.015625)"/>
       <path d="M 3513 3500 
L 2247 1797 
L 3578 0 
L 2900 0 
L 1881 1375 
L 863 0 
L 184 0 
L 1544 1831 
L 300 3500 
L 978 3500 
L 1906 2253 
L 2834 3500 
L 3513 3500 
z
" id="DejaVuSans-78" transform="scale(0.015625)"/>
      </defs>
      <use xlink:href="#DejaVuSans-46"/>
      <use x="52.019531" xlink:href="#DejaVuSans-65"/>
      <use x="113.542969" xlink:href="#DejaVuSans-64"/>
      <use x="177.019531" xlink:href="#DejaVuSans-50"/>
      <use x="235.572266" xlink:href="#DejaVuSans-72"/>
      <use x="274.435547" xlink:href="#DejaVuSans-6f"/>
      <use x="332.492188" xlink:href="#DejaVuSans-78"/>
     </g>
    </g>
    <g id="line2d_23">
     <path d="M 449.399844 28.339943 
L 479.399844 28.339943 
" style="fill:none;stroke:#d62728;stroke-linecap:square;stroke-width:1.5;"/>
    </g>
    <g id="line2d_24"/>
    <g id="text_18">
     <!-- qFedAvg -->
     <g transform="translate(491.399844 33.589943)scale(0.15 -0.15)">
      <defs>
       <path d="M 947 1747 
Q 947 1113 1208 752 
Q 1469 391 1925 391 
Q 2381 391 2643 752 
Q 2906 1113 2906 1747 
Q 2906 2381 2643 2742 
Q 2381 3103 1925 3103 
Q 1469 3103 1208 2742 
Q 947 2381 947 1747 
z
M 2906 525 
Q 2725 213 2448 61 
Q 2172 -91 1784 -91 
Q 1150 -91 751 415 
Q 353 922 353 1747 
Q 353 2572 751 3078 
Q 1150 3584 1784 3584 
Q 2172 3584 2448 3432 
Q 2725 3281 2906 2969 
L 2906 3500 
L 3481 3500 
L 3481 -1331 
L 2906 -1331 
L 2906 525 
z
" id="DejaVuSans-71" transform="scale(0.015625)"/>
      </defs>
      <use xlink:href="#DejaVuSans-71"/>
      <use x="63.476562" xlink:href="#DejaVuSans-46"/>
      <use x="115.496094" xlink:href="#DejaVuSans-65"/>
      <use x="177.019531" xlink:href="#DejaVuSans-64"/>
      <use x="240.496094" xlink:href="#DejaVuSans-41"/>
      <use x="303.029297" xlink:href="#DejaVuSans-76"/>
      <use x="362.208984" xlink:href="#DejaVuSans-67"/>
     </g>
    </g>
   </g>
  </g>
 </g>
 <defs>
  <clipPath id="pce0498c1a6">
   <rect height="319.398011" width="495.6" x="60.86" y="56.601989"/>
  </clipPath>
 </defs>
</svg>
