<?xml version="1.0" encoding="utf-8" standalone="no"?>
<!DOCTYPE svg PUBLIC "-//W3C//DTD SVG 1.1//EN"
  "http://www.w3.org/Graphics/SVG/1.1/DTD/svg11.dtd">
<svg height="345.6pt" version="1.1" viewBox="0 0 460.8 345.6" width="460.8pt" xmlns="http://www.w3.org/2000/svg" xmlns:xlink="http://www.w3.org/1999/xlink">
 <metadata>
  <rdf:RDF xmlns:cc="http://creativecommons.org/ns#" xmlns:dc="http://purl.org/dc/elements/1.1/" xmlns:rdf="http://www.w3.org/1999/02/22-rdf-syntax-ns#">
   <cc:Work>
    <dc:type rdf:resource="http://purl.org/dc/dcmitype/StillImage"/>
    <dc:date>2021-05-07T18:58:11.580671</dc:date>
    <dc:format>image/svg+xml</dc:format>
    <dc:creator>
     <cc:Agent>
      <dc:title>Matplotlib v3.4.1, https://matplotlib.org/</dc:title>
     </cc:Agent>
    </dc:creator>
   </cc:Work>
  </rdf:RDF>
 </metadata>
 <defs>
  <style type="text/css">*{stroke-linecap:butt;stroke-linejoin:round;}</style>
 </defs>
 <g id="figure_1">
  <g id="patch_1">
   <path d="M 0 345.6 
L 460.8 345.6 
L 460.8 0 
L 0 0 
z
" style="fill:#ffffff;"/>
  </g>
  <g id="axes_1">
   <g id="patch_2">
    <path d="M 50.87 303.64 
L 450 303.64 
L 450 32.876829 
L 50.87 32.876829 
z
" style="fill:#ffffff;"/>
   </g>
   <g id="PolyCollection_1">
    <path clip-path="url(#p4cbe97e841)" d="M 69.012273 116.423313 
L 69.012273 139.145781 
L 76.417282 98.215601 
L 83.822291 90.907957 
L 91.227301 82.476865 
L 98.63231 74.265545 
L 106.037319 73.559783 
L 113.442328 69.993513 
L 120.847338 65.435608 
L 128.252347 64.887466 
L 135.657356 62.19823 
L 143.062365 61.655665 
L 150.467375 61.25269 
L 157.872384 57.950785 
L 165.277393 58.311121 
L 172.682403 56.221347 
L 180.087412 56.424377 
L 187.492421 57.541786 
L 194.89743 59.475495 
L 202.30244 57.229834 
L 209.707449 57.206365 
L 217.112458 57.119478 
L 224.517468 55.380662 
L 231.922477 55.863355 
L 239.327486 56.221347 
L 246.732495 58.276817 
L 254.137505 57.062032 
L 261.542514 55.781756 
L 268.947523 57.119478 
L 276.352532 55.781756 
L 283.757542 54.792902 
L 291.162551 54.310209 
L 298.56756 55.244445 
L 305.97257 54.310209 
L 313.377579 54.957842 
L 320.782588 52.918437 
L 328.187597 53.497688 
L 335.592607 52.359807 
L 342.997616 51.394421 
L 350.402625 51.566917 
L 357.807635 53.027072 
L 365.212644 50.288009 
L 372.617653 51.953052 
L 380.022662 50.288009 
L 387.427672 50.504974 
L 394.832681 51.394421 
L 402.23769 51.597452 
L 409.642699 53.755557 
L 417.047709 51.597452 
L 424.452718 52.71486 
L 431.857727 51.084225 
L 431.857727 46.161707 
L 431.857727 46.161707 
L 424.452718 47.427228 
L 417.047709 48.544636 
L 409.642699 47.351916 
L 402.23769 48.544636 
L 394.832681 47.782281 
L 387.427672 45.775573 
L 380.022662 47.923308 
L 372.617653 47.22365 
L 365.212644 47.923308 
L 357.807635 45.184246 
L 350.402625 46.6444 
L 342.997616 47.782281 
L 335.592607 48.747666 
L 328.187597 48.57517 
L 320.782588 48.189035 
L 313.377579 47.115016 
L 305.97257 47.762649 
L 298.56756 46.828413 
L 291.162551 47.762649 
L 283.757542 48.245341 
L 276.352532 50.152642 
L 268.947523 48.814921 
L 261.542514 50.152642 
L 254.137505 49.837751 
L 246.732495 50.553736 
L 239.327486 52.609207 
L 231.922477 52.001814 
L 224.517468 51.519121 
L 217.112458 48.814921 
L 209.707449 50.658804 
L 202.30244 51.60072 
L 194.89743 52.251214 
L 187.492421 52.254153 
L 180.087412 53.371562 
L 172.682403 52.609207 
L 165.277393 51.484818 
L 157.872384 51.845154 
L 150.467375 52.404789 
L 143.062365 53.932584 
L 135.657356 54.355404 
L 128.252347 55.52771 
L 120.847338 59.806493 
L 113.442328 61.040899 
L 106.037319 62.301554 
L 98.63231 66.422719 
L 91.227301 71.726791 
L 83.822291 82.6034 
L 76.417282 94.60346 
L 69.012273 116.423313 
z
" style="fill:#1f77b4;fill-opacity:0.5;"/>
   </g>
   <g id="PolyCollection_2">
    <path clip-path="url(#p4cbe97e841)" d="M 69.012273 128.830631 
L 69.012273 154.734632 
L 76.417282 104.180407 
L 83.822291 94.621458 
L 91.227301 87.91881 
L 98.63231 78.067213 
L 106.037319 76.409 
L 113.442328 67.964973 
L 120.847338 68.221407 
L 128.252347 68.062742 
L 135.657356 62.621051 
L 143.062365 64.069128 
L 150.467375 63.006219 
L 157.872384 59.600195 
L 165.277393 58.75951 
L 172.682403 57.528398 
L 180.087412 58.83784 
L 187.492421 60.158826 
L 194.89743 59.643297 
L 202.30244 57.794125 
L 209.707449 56.346047 
L 217.112458 57.186732 
L 224.517468 56.221347 
L 231.922477 58.324613 
L 239.327486 57.794125 
L 246.732495 56.424377 
L 254.137505 58.807306 
L 261.542514 57.045705 
L 268.947523 58.75951 
L 276.352532 57.186732 
L 283.757542 57.962328 
L 291.162551 56.424377 
L 298.56756 57.541786 
L 305.97257 56.393843 
L 313.377579 56.779978 
L 320.782588 57.541786 
L 328.187597 56.779978 
L 335.592607 58.582482 
L 342.997616 58.324613 
L 350.402625 56.221347 
L 357.807635 56.779978 
L 365.212644 56.221347 
L 372.617653 57.206365 
L 380.022662 57.229834 
L 387.427672 56.82874 
L 394.832681 56.424377 
L 402.23769 56.424377 
L 409.642699 56.393843 
L 417.047709 56.424377 
L 424.452718 56.221347 
L 431.857727 55.863355 
L 431.857727 52.001814 
L 431.857727 52.001814 
L 424.452718 52.609207 
L 417.047709 53.371562 
L 409.642699 51.471325 
L 402.23769 53.371562 
L 394.832681 53.371562 
L 387.427672 51.036429 
L 380.022662 51.60072 
L 372.617653 50.658804 
L 365.212644 52.609207 
L 357.807635 52.050576 
L 350.402625 52.609207 
L 342.997616 53.402096 
L 335.592607 52.178842 
L 328.187597 52.050576 
L 320.782588 52.254153 
L 313.377579 52.050576 
L 305.97257 51.471325 
L 298.56756 52.254153 
L 291.162551 53.371562 
L 283.757542 50.868225 
L 276.352532 53.574592 
L 268.947523 52.967199 
L 261.542514 54.681004 
L 254.137505 53.884788 
L 246.732495 53.371562 
L 239.327486 53.932584 
L 231.922477 53.402096 
L 224.517468 52.609207 
L 217.112458 53.574592 
L 209.707449 54.415277 
L 202.30244 53.932584 
L 194.89743 54.014183 
L 187.492421 55.429424 
L 180.087412 55.785024 
L 172.682403 55.163697 
L 165.277393 56.82874 
L 157.872384 55.988055 
L 150.467375 53.547415 
L 143.062365 58.276817 
L 135.657356 60.69028 
L 128.252347 59.110129 
L 120.847338 59.91685 
L 113.442328 61.138669 
L 106.037319 63.313879 
L 98.63231 72.274902 
L 91.227301 75.938696 
L 83.822291 84.68221 
L 76.417282 99.25789 
L 69.012273 128.830631 
z
" style="fill:#ff7f0e;fill-opacity:0.5;"/>
   </g>
   <g id="PolyCollection_3">
    <path clip-path="url(#p4cbe97e841)" d="M 69.012273 117.696369 
L 69.012273 141.734266 
L 76.417282 106.452552 
L 83.822291 92.113093 
L 91.227301 86.081032 
L 98.63231 82.702184 
L 106.037319 80.140681 
L 113.442328 75.073534 
L 120.847338 73.618742 
L 128.252347 68.208621 
L 135.657356 65.435608 
L 143.062365 63.394481 
L 150.467375 62.680923 
L 157.872384 62.03329 
L 165.277393 61.946403 
L 172.682403 63.103743 
L 180.087412 62.680923 
L 187.492421 65.361334 
L 194.89743 64.631538 
L 202.30244 62.680923 
L 209.707449 63.394481 
L 217.112458 63.103743 
L 224.517468 64.16472 
L 231.922477 63.246442 
L 239.327486 63.235817 
L 246.732495 64.16472 
L 254.137505 63.394481 
L 261.542514 62.680923 
L 268.947523 62.19823 
L 276.352532 62.138358 
L 283.757542 62.814974 
L 291.162551 62.03329 
L 298.56756 62.19823 
L 305.97257 61.751257 
L 313.377579 61.946403 
L 320.782588 62.138358 
L 328.187597 61.946403 
L 335.592607 61.890656 
L 342.997616 61.890656 
L 350.402625 61.982486 
L 357.807635 61.492469 
L 365.212644 61.544805 
L 372.617653 62.138358 
L 380.022662 61.751257 
L 387.427672 62.138358 
L 394.832681 61.628766 
L 402.23769 61.544805 
L 409.642699 61.508618 
L 417.047709 61.628766 
L 424.452718 61.508618 
L 431.857727 61.508618 
L 431.857727 52.148862 
L 431.857727 52.148862 
L 424.452718 52.148862 
L 417.047709 52.994099 
L 409.642699 52.148862 
L 402.23769 51.147289 
L 394.832681 52.994099 
L 387.427672 52.484507 
L 380.022662 51.906222 
L 372.617653 52.484507 
L 365.212644 51.147289 
L 357.807635 50.23424 
L 350.402625 51.674993 
L 342.997616 52.732209 
L 335.592607 52.732209 
L 328.187597 53.641846 
L 320.782588 52.484507 
L 313.377579 53.641846 
L 305.97257 51.906222 
L 298.56756 54.355404 
L 291.162551 55.48573 
L 283.757542 51.80789 
L 276.352532 52.484507 
L 268.947523 54.355404 
L 261.542514 54.838097 
L 254.137505 55.089924 
L 246.732495 54.319685 
L 239.327486 54.283203 
L 231.922477 53.307193 
L 224.517468 54.319685 
L 217.112458 55.380662 
L 209.707449 55.089924 
L 202.30244 54.838097 
L 194.89743 55.783637 
L 187.492421 55.053841 
L 180.087412 54.838097 
L 172.682403 55.380662 
L 165.277393 53.641846 
L 157.872384 55.48573 
L 150.467375 54.838097 
L 143.062365 55.089924 
L 135.657356 59.806493 
L 128.252347 57.03348 
L 120.847338 60.311826 
L 113.442328 65.61473 
L 106.037319 70.201433 
L 98.63231 74.397627 
L 91.227301 77.776475 
L 83.822291 87.190576 
L 76.417282 94.08959 
L 69.012273 117.696369 
z
" style="fill:#2ca02c;fill-opacity:0.5;"/>
   </g>
   <g id="PolyCollection_4">
    <path clip-path="url(#p4cbe97e841)" d="M 69.012273 231.536209 
L 69.012273 291.332583 
L 76.417282 138.015866 
L 83.822291 115.530346 
L 91.227301 108.43155 
L 98.63231 102.889148 
L 106.037319 98.244705 
L 113.442328 96.54883 
L 120.847338 93.430381 
L 128.252347 91.674937 
L 135.657356 90.293255 
L 143.062365 88.561424 
L 150.467375 87.750002 
L 157.872384 85.859685 
L 165.277393 84.570262 
L 172.682403 83.834371 
L 180.087412 83.287095 
L 187.492421 82.413481 
L 194.89743 81.506695 
L 202.30244 80.931378 
L 209.707449 80.425368 
L 217.112458 80.034479 
L 224.517468 79.048638 
L 231.922477 78.672085 
L 239.327486 78.177506 
L 246.732495 77.229494 
L 254.137505 76.561794 
L 261.542514 76.833066 
L 268.947523 75.982071 
L 276.352532 75.372283 
L 283.757542 75.591563 
L 291.162551 74.960307 
L 298.56756 74.45232 
L 305.97257 74.156451 
L 313.377579 73.918387 
L 320.782588 73.926492 
L 328.187597 73.832446 
L 335.592607 73.44613 
L 342.997616 73.088557 
L 350.402625 72.748522 
L 357.807635 73.003317 
L 365.212644 72.319142 
L 372.617653 72.31868 
L 380.022662 71.968831 
L 387.427672 71.625029 
L 394.832681 71.426394 
L 402.23769 70.992739 
L 409.642699 71.084757 
L 417.047709 71.430479 
L 424.452718 71.020893 
L 431.857727 70.715975 
L 431.857727 68.385195 
L 431.857727 68.385195 
L 424.452718 68.53787 
L 417.047709 68.738407 
L 409.642699 68.779067 
L 402.23769 69.099881 
L 394.832681 69.428881 
L 387.427672 69.230246 
L 380.022662 69.11524 
L 372.617653 69.070453 
L 365.212644 69.451318 
L 357.807635 69.834858 
L 350.402625 70.242185 
L 342.997616 70.664804 
L 335.592607 70.536027 
L 328.187597 70.912366 
L 320.782588 70.360727 
L 313.377579 70.521363 
L 305.97257 70.969688 
L 298.56756 71.207677 
L 291.162551 71.843672 
L 283.757542 71.670007 
L 276.352532 72.270614 
L 268.947523 73.186135 
L 261.542514 73.479121 
L 254.137505 74.055456 
L 246.732495 74.15041 
L 239.327486 74.422644 
L 231.922477 75.300843 
L 224.517468 76.144537 
L 217.112458 76.684004 
L 209.707449 77.284566 
L 202.30244 77.54121 
L 194.89743 77.881078 
L 187.492421 79.414785 
L 180.087412 80.447808 
L 172.682403 81.120779 
L 165.277393 82.367788 
L 157.872384 83.137532 
L 150.467375 84.145301 
L 143.062365 85.31678 
L 135.657356 86.483035 
L 128.252347 87.923174 
L 120.847338 89.752205 
L 113.442328 91.438478 
L 106.037319 93.860936 
L 98.63231 97.376893 
L 91.227301 102.892978 
L 83.822291 111.50486 
L 76.417282 130.583997 
L 69.012273 231.536209 
z
" style="fill:#d62728;fill-opacity:0.5;"/>
   </g>
   <g id="matplotlib.axis_1">
    <g id="xtick_1">
     <g id="line2d_1">
      <defs>
       <path d="M 0 0 
L 0 3.5 
" id="m699bd77e18" style="stroke:#000000;stroke-width:0.8;"/>
      </defs>
      <g>
       <use style="stroke:#000000;stroke-width:0.8;" x="69.012273" xlink:href="#m699bd77e18" y="303.64"/>
      </g>
     </g>
     <g id="text_1">
      <!-- 0 -->
      <g transform="translate(65.831023 318.238437)scale(0.1 -0.1)">
       <defs>
        <path d="M 2034 4250 
Q 1547 4250 1301 3770 
Q 1056 3291 1056 2328 
Q 1056 1369 1301 889 
Q 1547 409 2034 409 
Q 2525 409 2770 889 
Q 3016 1369 3016 2328 
Q 3016 3291 2770 3770 
Q 2525 4250 2034 4250 
z
M 2034 4750 
Q 2819 4750 3233 4129 
Q 3647 3509 3647 2328 
Q 3647 1150 3233 529 
Q 2819 -91 2034 -91 
Q 1250 -91 836 529 
Q 422 1150 422 2328 
Q 422 3509 836 4129 
Q 1250 4750 2034 4750 
z
" id="DejaVuSans-30" transform="scale(0.015625)"/>
       </defs>
       <use xlink:href="#DejaVuSans-30"/>
      </g>
     </g>
    </g>
    <g id="xtick_2">
     <g id="line2d_2">
      <g>
       <use style="stroke:#000000;stroke-width:0.8;" x="143.062365" xlink:href="#m699bd77e18" y="303.64"/>
      </g>
     </g>
     <g id="text_2">
      <!-- 10 -->
      <g transform="translate(136.699865 318.238437)scale(0.1 -0.1)">
       <defs>
        <path d="M 794 531 
L 1825 531 
L 1825 4091 
L 703 3866 
L 703 4441 
L 1819 4666 
L 2450 4666 
L 2450 531 
L 3481 531 
L 3481 0 
L 794 0 
L 794 531 
z
" id="DejaVuSans-31" transform="scale(0.015625)"/>
       </defs>
       <use xlink:href="#DejaVuSans-31"/>
       <use x="63.623047" xlink:href="#DejaVuSans-30"/>
      </g>
     </g>
    </g>
    <g id="xtick_3">
     <g id="line2d_3">
      <g>
       <use style="stroke:#000000;stroke-width:0.8;" x="217.112458" xlink:href="#m699bd77e18" y="303.64"/>
      </g>
     </g>
     <g id="text_3">
      <!-- 20 -->
      <g transform="translate(210.749958 318.238437)scale(0.1 -0.1)">
       <defs>
        <path d="M 1228 531 
L 3431 531 
L 3431 0 
L 469 0 
L 469 531 
Q 828 903 1448 1529 
Q 2069 2156 2228 2338 
Q 2531 2678 2651 2914 
Q 2772 3150 2772 3378 
Q 2772 3750 2511 3984 
Q 2250 4219 1831 4219 
Q 1534 4219 1204 4116 
Q 875 4013 500 3803 
L 500 4441 
Q 881 4594 1212 4672 
Q 1544 4750 1819 4750 
Q 2544 4750 2975 4387 
Q 3406 4025 3406 3419 
Q 3406 3131 3298 2873 
Q 3191 2616 2906 2266 
Q 2828 2175 2409 1742 
Q 1991 1309 1228 531 
z
" id="DejaVuSans-32" transform="scale(0.015625)"/>
       </defs>
       <use xlink:href="#DejaVuSans-32"/>
       <use x="63.623047" xlink:href="#DejaVuSans-30"/>
      </g>
     </g>
    </g>
    <g id="xtick_4">
     <g id="line2d_4">
      <g>
       <use style="stroke:#000000;stroke-width:0.8;" x="291.162551" xlink:href="#m699bd77e18" y="303.64"/>
      </g>
     </g>
     <g id="text_4">
      <!-- 30 -->
      <g transform="translate(284.800051 318.238437)scale(0.1 -0.1)">
       <defs>
        <path d="M 2597 2516 
Q 3050 2419 3304 2112 
Q 3559 1806 3559 1356 
Q 3559 666 3084 287 
Q 2609 -91 1734 -91 
Q 1441 -91 1130 -33 
Q 819 25 488 141 
L 488 750 
Q 750 597 1062 519 
Q 1375 441 1716 441 
Q 2309 441 2620 675 
Q 2931 909 2931 1356 
Q 2931 1769 2642 2001 
Q 2353 2234 1838 2234 
L 1294 2234 
L 1294 2753 
L 1863 2753 
Q 2328 2753 2575 2939 
Q 2822 3125 2822 3475 
Q 2822 3834 2567 4026 
Q 2313 4219 1838 4219 
Q 1578 4219 1281 4162 
Q 984 4106 628 3988 
L 628 4550 
Q 988 4650 1302 4700 
Q 1616 4750 1894 4750 
Q 2613 4750 3031 4423 
Q 3450 4097 3450 3541 
Q 3450 3153 3228 2886 
Q 3006 2619 2597 2516 
z
" id="DejaVuSans-33" transform="scale(0.015625)"/>
       </defs>
       <use xlink:href="#DejaVuSans-33"/>
       <use x="63.623047" xlink:href="#DejaVuSans-30"/>
      </g>
     </g>
    </g>
    <g id="xtick_5">
     <g id="line2d_5">
      <g>
       <use style="stroke:#000000;stroke-width:0.8;" x="365.212644" xlink:href="#m699bd77e18" y="303.64"/>
      </g>
     </g>
     <g id="text_5">
      <!-- 40 -->
      <g transform="translate(358.850144 318.238437)scale(0.1 -0.1)">
       <defs>
        <path d="M 2419 4116 
L 825 1625 
L 2419 1625 
L 2419 4116 
z
M 2253 4666 
L 3047 4666 
L 3047 1625 
L 3713 1625 
L 3713 1100 
L 3047 1100 
L 3047 0 
L 2419 0 
L 2419 1100 
L 313 1100 
L 313 1709 
L 2253 4666 
z
" id="DejaVuSans-34" transform="scale(0.015625)"/>
       </defs>
       <use xlink:href="#DejaVuSans-34"/>
       <use x="63.623047" xlink:href="#DejaVuSans-30"/>
      </g>
     </g>
    </g>
    <g id="xtick_6">
     <g id="line2d_6">
      <g>
       <use style="stroke:#000000;stroke-width:0.8;" x="439.262737" xlink:href="#m699bd77e18" y="303.64"/>
      </g>
     </g>
     <g id="text_6">
      <!-- 50 -->
      <g transform="translate(432.900237 318.238437)scale(0.1 -0.1)">
       <defs>
        <path d="M 691 4666 
L 3169 4666 
L 3169 4134 
L 1269 4134 
L 1269 2991 
Q 1406 3038 1543 3061 
Q 1681 3084 1819 3084 
Q 2600 3084 3056 2656 
Q 3513 2228 3513 1497 
Q 3513 744 3044 326 
Q 2575 -91 1722 -91 
Q 1428 -91 1123 -41 
Q 819 9 494 109 
L 494 744 
Q 775 591 1075 516 
Q 1375 441 1709 441 
Q 2250 441 2565 725 
Q 2881 1009 2881 1497 
Q 2881 1984 2565 2268 
Q 2250 2553 1709 2553 
Q 1456 2553 1204 2497 
Q 953 2441 691 2322 
L 691 4666 
z
" id="DejaVuSans-35" transform="scale(0.015625)"/>
       </defs>
       <use xlink:href="#DejaVuSans-35"/>
       <use x="63.623047" xlink:href="#DejaVuSans-30"/>
      </g>
     </g>
    </g>
    <g id="text_7">
     <!-- Global Communication Rounds -->
     <g transform="translate(173.473281 331.916562)scale(0.1 -0.1)">
      <defs>
       <path d="M 3809 666 
L 3809 1919 
L 2778 1919 
L 2778 2438 
L 4434 2438 
L 4434 434 
Q 4069 175 3628 42 
Q 3188 -91 2688 -91 
Q 1594 -91 976 548 
Q 359 1188 359 2328 
Q 359 3472 976 4111 
Q 1594 4750 2688 4750 
Q 3144 4750 3555 4637 
Q 3966 4525 4313 4306 
L 4313 3634 
Q 3963 3931 3569 4081 
Q 3175 4231 2741 4231 
Q 1884 4231 1454 3753 
Q 1025 3275 1025 2328 
Q 1025 1384 1454 906 
Q 1884 428 2741 428 
Q 3075 428 3337 486 
Q 3600 544 3809 666 
z
" id="DejaVuSans-47" transform="scale(0.015625)"/>
       <path d="M 603 4863 
L 1178 4863 
L 1178 0 
L 603 0 
L 603 4863 
z
" id="DejaVuSans-6c" transform="scale(0.015625)"/>
       <path d="M 1959 3097 
Q 1497 3097 1228 2736 
Q 959 2375 959 1747 
Q 959 1119 1226 758 
Q 1494 397 1959 397 
Q 2419 397 2687 759 
Q 2956 1122 2956 1747 
Q 2956 2369 2687 2733 
Q 2419 3097 1959 3097 
z
M 1959 3584 
Q 2709 3584 3137 3096 
Q 3566 2609 3566 1747 
Q 3566 888 3137 398 
Q 2709 -91 1959 -91 
Q 1206 -91 779 398 
Q 353 888 353 1747 
Q 353 2609 779 3096 
Q 1206 3584 1959 3584 
z
" id="DejaVuSans-6f" transform="scale(0.015625)"/>
       <path d="M 3116 1747 
Q 3116 2381 2855 2742 
Q 2594 3103 2138 3103 
Q 1681 3103 1420 2742 
Q 1159 2381 1159 1747 
Q 1159 1113 1420 752 
Q 1681 391 2138 391 
Q 2594 391 2855 752 
Q 3116 1113 3116 1747 
z
M 1159 2969 
Q 1341 3281 1617 3432 
Q 1894 3584 2278 3584 
Q 2916 3584 3314 3078 
Q 3713 2572 3713 1747 
Q 3713 922 3314 415 
Q 2916 -91 2278 -91 
Q 1894 -91 1617 61 
Q 1341 213 1159 525 
L 1159 0 
L 581 0 
L 581 4863 
L 1159 4863 
L 1159 2969 
z
" id="DejaVuSans-62" transform="scale(0.015625)"/>
       <path d="M 2194 1759 
Q 1497 1759 1228 1600 
Q 959 1441 959 1056 
Q 959 750 1161 570 
Q 1363 391 1709 391 
Q 2188 391 2477 730 
Q 2766 1069 2766 1631 
L 2766 1759 
L 2194 1759 
z
M 3341 1997 
L 3341 0 
L 2766 0 
L 2766 531 
Q 2569 213 2275 61 
Q 1981 -91 1556 -91 
Q 1019 -91 701 211 
Q 384 513 384 1019 
Q 384 1609 779 1909 
Q 1175 2209 1959 2209 
L 2766 2209 
L 2766 2266 
Q 2766 2663 2505 2880 
Q 2244 3097 1772 3097 
Q 1472 3097 1187 3025 
Q 903 2953 641 2809 
L 641 3341 
Q 956 3463 1253 3523 
Q 1550 3584 1831 3584 
Q 2591 3584 2966 3190 
Q 3341 2797 3341 1997 
z
" id="DejaVuSans-61" transform="scale(0.015625)"/>
       <path id="DejaVuSans-20" transform="scale(0.015625)"/>
       <path d="M 4122 4306 
L 4122 3641 
Q 3803 3938 3442 4084 
Q 3081 4231 2675 4231 
Q 1875 4231 1450 3742 
Q 1025 3253 1025 2328 
Q 1025 1406 1450 917 
Q 1875 428 2675 428 
Q 3081 428 3442 575 
Q 3803 722 4122 1019 
L 4122 359 
Q 3791 134 3420 21 
Q 3050 -91 2638 -91 
Q 1578 -91 968 557 
Q 359 1206 359 2328 
Q 359 3453 968 4101 
Q 1578 4750 2638 4750 
Q 3056 4750 3426 4639 
Q 3797 4528 4122 4306 
z
" id="DejaVuSans-43" transform="scale(0.015625)"/>
       <path d="M 3328 2828 
Q 3544 3216 3844 3400 
Q 4144 3584 4550 3584 
Q 5097 3584 5394 3201 
Q 5691 2819 5691 2113 
L 5691 0 
L 5113 0 
L 5113 2094 
Q 5113 2597 4934 2840 
Q 4756 3084 4391 3084 
Q 3944 3084 3684 2787 
Q 3425 2491 3425 1978 
L 3425 0 
L 2847 0 
L 2847 2094 
Q 2847 2600 2669 2842 
Q 2491 3084 2119 3084 
Q 1678 3084 1418 2786 
Q 1159 2488 1159 1978 
L 1159 0 
L 581 0 
L 581 3500 
L 1159 3500 
L 1159 2956 
Q 1356 3278 1631 3431 
Q 1906 3584 2284 3584 
Q 2666 3584 2933 3390 
Q 3200 3197 3328 2828 
z
" id="DejaVuSans-6d" transform="scale(0.015625)"/>
       <path d="M 544 1381 
L 544 3500 
L 1119 3500 
L 1119 1403 
Q 1119 906 1312 657 
Q 1506 409 1894 409 
Q 2359 409 2629 706 
Q 2900 1003 2900 1516 
L 2900 3500 
L 3475 3500 
L 3475 0 
L 2900 0 
L 2900 538 
Q 2691 219 2414 64 
Q 2138 -91 1772 -91 
Q 1169 -91 856 284 
Q 544 659 544 1381 
z
M 1991 3584 
L 1991 3584 
z
" id="DejaVuSans-75" transform="scale(0.015625)"/>
       <path d="M 3513 2113 
L 3513 0 
L 2938 0 
L 2938 2094 
Q 2938 2591 2744 2837 
Q 2550 3084 2163 3084 
Q 1697 3084 1428 2787 
Q 1159 2491 1159 1978 
L 1159 0 
L 581 0 
L 581 3500 
L 1159 3500 
L 1159 2956 
Q 1366 3272 1645 3428 
Q 1925 3584 2291 3584 
Q 2894 3584 3203 3211 
Q 3513 2838 3513 2113 
z
" id="DejaVuSans-6e" transform="scale(0.015625)"/>
       <path d="M 603 3500 
L 1178 3500 
L 1178 0 
L 603 0 
L 603 3500 
z
M 603 4863 
L 1178 4863 
L 1178 4134 
L 603 4134 
L 603 4863 
z
" id="DejaVuSans-69" transform="scale(0.015625)"/>
       <path d="M 3122 3366 
L 3122 2828 
Q 2878 2963 2633 3030 
Q 2388 3097 2138 3097 
Q 1578 3097 1268 2742 
Q 959 2388 959 1747 
Q 959 1106 1268 751 
Q 1578 397 2138 397 
Q 2388 397 2633 464 
Q 2878 531 3122 666 
L 3122 134 
Q 2881 22 2623 -34 
Q 2366 -91 2075 -91 
Q 1284 -91 818 406 
Q 353 903 353 1747 
Q 353 2603 823 3093 
Q 1294 3584 2113 3584 
Q 2378 3584 2631 3529 
Q 2884 3475 3122 3366 
z
" id="DejaVuSans-63" transform="scale(0.015625)"/>
       <path d="M 1172 4494 
L 1172 3500 
L 2356 3500 
L 2356 3053 
L 1172 3053 
L 1172 1153 
Q 1172 725 1289 603 
Q 1406 481 1766 481 
L 2356 481 
L 2356 0 
L 1766 0 
Q 1100 0 847 248 
Q 594 497 594 1153 
L 594 3053 
L 172 3053 
L 172 3500 
L 594 3500 
L 594 4494 
L 1172 4494 
z
" id="DejaVuSans-74" transform="scale(0.015625)"/>
       <path d="M 2841 2188 
Q 3044 2119 3236 1894 
Q 3428 1669 3622 1275 
L 4263 0 
L 3584 0 
L 2988 1197 
Q 2756 1666 2539 1819 
Q 2322 1972 1947 1972 
L 1259 1972 
L 1259 0 
L 628 0 
L 628 4666 
L 2053 4666 
Q 2853 4666 3247 4331 
Q 3641 3997 3641 3322 
Q 3641 2881 3436 2590 
Q 3231 2300 2841 2188 
z
M 1259 4147 
L 1259 2491 
L 2053 2491 
Q 2509 2491 2742 2702 
Q 2975 2913 2975 3322 
Q 2975 3731 2742 3939 
Q 2509 4147 2053 4147 
L 1259 4147 
z
" id="DejaVuSans-52" transform="scale(0.015625)"/>
       <path d="M 2906 2969 
L 2906 4863 
L 3481 4863 
L 3481 0 
L 2906 0 
L 2906 525 
Q 2725 213 2448 61 
Q 2172 -91 1784 -91 
Q 1150 -91 751 415 
Q 353 922 353 1747 
Q 353 2572 751 3078 
Q 1150 3584 1784 3584 
Q 2172 3584 2448 3432 
Q 2725 3281 2906 2969 
z
M 947 1747 
Q 947 1113 1208 752 
Q 1469 391 1925 391 
Q 2381 391 2643 752 
Q 2906 1113 2906 1747 
Q 2906 2381 2643 2742 
Q 2381 3103 1925 3103 
Q 1469 3103 1208 2742 
Q 947 2381 947 1747 
z
" id="DejaVuSans-64" transform="scale(0.015625)"/>
       <path d="M 2834 3397 
L 2834 2853 
Q 2591 2978 2328 3040 
Q 2066 3103 1784 3103 
Q 1356 3103 1142 2972 
Q 928 2841 928 2578 
Q 928 2378 1081 2264 
Q 1234 2150 1697 2047 
L 1894 2003 
Q 2506 1872 2764 1633 
Q 3022 1394 3022 966 
Q 3022 478 2636 193 
Q 2250 -91 1575 -91 
Q 1294 -91 989 -36 
Q 684 19 347 128 
L 347 722 
Q 666 556 975 473 
Q 1284 391 1588 391 
Q 1994 391 2212 530 
Q 2431 669 2431 922 
Q 2431 1156 2273 1281 
Q 2116 1406 1581 1522 
L 1381 1569 
Q 847 1681 609 1914 
Q 372 2147 372 2553 
Q 372 3047 722 3315 
Q 1072 3584 1716 3584 
Q 2034 3584 2315 3537 
Q 2597 3491 2834 3397 
z
" id="DejaVuSans-73" transform="scale(0.015625)"/>
      </defs>
      <use xlink:href="#DejaVuSans-47"/>
      <use x="77.490234" xlink:href="#DejaVuSans-6c"/>
      <use x="105.273438" xlink:href="#DejaVuSans-6f"/>
      <use x="166.455078" xlink:href="#DejaVuSans-62"/>
      <use x="229.931641" xlink:href="#DejaVuSans-61"/>
      <use x="291.210938" xlink:href="#DejaVuSans-6c"/>
      <use x="318.994141" xlink:href="#DejaVuSans-20"/>
      <use x="350.78125" xlink:href="#DejaVuSans-43"/>
      <use x="420.605469" xlink:href="#DejaVuSans-6f"/>
      <use x="481.787109" xlink:href="#DejaVuSans-6d"/>
      <use x="579.199219" xlink:href="#DejaVuSans-6d"/>
      <use x="676.611328" xlink:href="#DejaVuSans-75"/>
      <use x="739.990234" xlink:href="#DejaVuSans-6e"/>
      <use x="803.369141" xlink:href="#DejaVuSans-69"/>
      <use x="831.152344" xlink:href="#DejaVuSans-63"/>
      <use x="886.132812" xlink:href="#DejaVuSans-61"/>
      <use x="947.412109" xlink:href="#DejaVuSans-74"/>
      <use x="986.621094" xlink:href="#DejaVuSans-69"/>
      <use x="1014.404297" xlink:href="#DejaVuSans-6f"/>
      <use x="1075.585938" xlink:href="#DejaVuSans-6e"/>
      <use x="1138.964844" xlink:href="#DejaVuSans-20"/>
      <use x="1170.751953" xlink:href="#DejaVuSans-52"/>
      <use x="1235.734375" xlink:href="#DejaVuSans-6f"/>
      <use x="1296.916016" xlink:href="#DejaVuSans-75"/>
      <use x="1360.294922" xlink:href="#DejaVuSans-6e"/>
      <use x="1423.673828" xlink:href="#DejaVuSans-64"/>
      <use x="1487.150391" xlink:href="#DejaVuSans-73"/>
     </g>
    </g>
   </g>
   <g id="matplotlib.axis_2">
    <g id="ytick_1">
     <g id="line2d_7">
      <defs>
       <path d="M 0 0 
L -3.5 0 
" id="mfb240ba594" style="stroke:#000000;stroke-width:0.8;"/>
      </defs>
      <g>
       <use style="stroke:#000000;stroke-width:0.8;" x="50.87" xlink:href="#mfb240ba594" y="269.21347"/>
      </g>
     </g>
     <g id="text_8">
      <!-- 88 -->
      <g transform="translate(31.145 273.012688)scale(0.1 -0.1)">
       <defs>
        <path d="M 2034 2216 
Q 1584 2216 1326 1975 
Q 1069 1734 1069 1313 
Q 1069 891 1326 650 
Q 1584 409 2034 409 
Q 2484 409 2743 651 
Q 3003 894 3003 1313 
Q 3003 1734 2745 1975 
Q 2488 2216 2034 2216 
z
M 1403 2484 
Q 997 2584 770 2862 
Q 544 3141 544 3541 
Q 544 4100 942 4425 
Q 1341 4750 2034 4750 
Q 2731 4750 3128 4425 
Q 3525 4100 3525 3541 
Q 3525 3141 3298 2862 
Q 3072 2584 2669 2484 
Q 3125 2378 3379 2068 
Q 3634 1759 3634 1313 
Q 3634 634 3220 271 
Q 2806 -91 2034 -91 
Q 1263 -91 848 271 
Q 434 634 434 1313 
Q 434 1759 690 2068 
Q 947 2378 1403 2484 
z
M 1172 3481 
Q 1172 3119 1398 2916 
Q 1625 2713 2034 2713 
Q 2441 2713 2670 2916 
Q 2900 3119 2900 3481 
Q 2900 3844 2670 4047 
Q 2441 4250 2034 4250 
Q 1625 4250 1398 4047 
Q 1172 3844 1172 3481 
z
" id="DejaVuSans-38" transform="scale(0.015625)"/>
       </defs>
       <use xlink:href="#DejaVuSans-38"/>
       <use x="63.623047" xlink:href="#DejaVuSans-38"/>
      </g>
     </g>
    </g>
    <g id="ytick_2">
     <g id="line2d_8">
      <g>
       <use style="stroke:#000000;stroke-width:0.8;" x="50.87" xlink:href="#mfb240ba594" y="231.080757"/>
      </g>
     </g>
     <g id="text_9">
      <!-- 90 -->
      <g transform="translate(31.145 234.879976)scale(0.1 -0.1)">
       <defs>
        <path d="M 703 97 
L 703 672 
Q 941 559 1184 500 
Q 1428 441 1663 441 
Q 2288 441 2617 861 
Q 2947 1281 2994 2138 
Q 2813 1869 2534 1725 
Q 2256 1581 1919 1581 
Q 1219 1581 811 2004 
Q 403 2428 403 3163 
Q 403 3881 828 4315 
Q 1253 4750 1959 4750 
Q 2769 4750 3195 4129 
Q 3622 3509 3622 2328 
Q 3622 1225 3098 567 
Q 2575 -91 1691 -91 
Q 1453 -91 1209 -44 
Q 966 3 703 97 
z
M 1959 2075 
Q 2384 2075 2632 2365 
Q 2881 2656 2881 3163 
Q 2881 3666 2632 3958 
Q 2384 4250 1959 4250 
Q 1534 4250 1286 3958 
Q 1038 3666 1038 3163 
Q 1038 2656 1286 2365 
Q 1534 2075 1959 2075 
z
" id="DejaVuSans-39" transform="scale(0.015625)"/>
       </defs>
       <use xlink:href="#DejaVuSans-39"/>
       <use x="63.623047" xlink:href="#DejaVuSans-30"/>
      </g>
     </g>
    </g>
    <g id="ytick_3">
     <g id="line2d_9">
      <g>
       <use style="stroke:#000000;stroke-width:0.8;" x="50.87" xlink:href="#mfb240ba594" y="192.948044"/>
      </g>
     </g>
     <g id="text_10">
      <!-- 92 -->
      <g transform="translate(31.145 196.747263)scale(0.1 -0.1)">
       <use xlink:href="#DejaVuSans-39"/>
       <use x="63.623047" xlink:href="#DejaVuSans-32"/>
      </g>
     </g>
    </g>
    <g id="ytick_4">
     <g id="line2d_10">
      <g>
       <use style="stroke:#000000;stroke-width:0.8;" x="50.87" xlink:href="#mfb240ba594" y="154.815331"/>
      </g>
     </g>
     <g id="text_11">
      <!-- 94 -->
      <g transform="translate(31.145 158.61455)scale(0.1 -0.1)">
       <use xlink:href="#DejaVuSans-39"/>
       <use x="63.623047" xlink:href="#DejaVuSans-34"/>
      </g>
     </g>
    </g>
    <g id="ytick_5">
     <g id="line2d_11">
      <g>
       <use style="stroke:#000000;stroke-width:0.8;" x="50.87" xlink:href="#mfb240ba594" y="116.682618"/>
      </g>
     </g>
     <g id="text_12">
      <!-- 96 -->
      <g transform="translate(31.145 120.481837)scale(0.1 -0.1)">
       <defs>
        <path d="M 2113 2584 
Q 1688 2584 1439 2293 
Q 1191 2003 1191 1497 
Q 1191 994 1439 701 
Q 1688 409 2113 409 
Q 2538 409 2786 701 
Q 3034 994 3034 1497 
Q 3034 2003 2786 2293 
Q 2538 2584 2113 2584 
z
M 3366 4563 
L 3366 3988 
Q 3128 4100 2886 4159 
Q 2644 4219 2406 4219 
Q 1781 4219 1451 3797 
Q 1122 3375 1075 2522 
Q 1259 2794 1537 2939 
Q 1816 3084 2150 3084 
Q 2853 3084 3261 2657 
Q 3669 2231 3669 1497 
Q 3669 778 3244 343 
Q 2819 -91 2113 -91 
Q 1303 -91 875 529 
Q 447 1150 447 2328 
Q 447 3434 972 4092 
Q 1497 4750 2381 4750 
Q 2619 4750 2861 4703 
Q 3103 4656 3366 4563 
z
" id="DejaVuSans-36" transform="scale(0.015625)"/>
       </defs>
       <use xlink:href="#DejaVuSans-39"/>
       <use x="63.623047" xlink:href="#DejaVuSans-36"/>
      </g>
     </g>
    </g>
    <g id="ytick_6">
     <g id="line2d_12">
      <g>
       <use style="stroke:#000000;stroke-width:0.8;" x="50.87" xlink:href="#mfb240ba594" y="78.549905"/>
      </g>
     </g>
     <g id="text_13">
      <!-- 98 -->
      <g transform="translate(31.145 82.349124)scale(0.1 -0.1)">
       <use xlink:href="#DejaVuSans-39"/>
       <use x="63.623047" xlink:href="#DejaVuSans-38"/>
      </g>
     </g>
    </g>
    <g id="ytick_7">
     <g id="line2d_13">
      <g>
       <use style="stroke:#000000;stroke-width:0.8;" x="50.87" xlink:href="#mfb240ba594" y="40.417192"/>
      </g>
     </g>
     <g id="text_14">
      <!-- 100 -->
      <g transform="translate(24.7825 44.216411)scale(0.1 -0.1)">
       <use xlink:href="#DejaVuSans-31"/>
       <use x="63.623047" xlink:href="#DejaVuSans-30"/>
       <use x="127.246094" xlink:href="#DejaVuSans-30"/>
      </g>
     </g>
    </g>
    <g id="text_15">
     <!-- Test Accuracy -->
     <g transform="translate(18.702813 202.520914)rotate(-90)scale(0.1 -0.1)">
      <defs>
       <path d="M -19 4666 
L 3928 4666 
L 3928 4134 
L 2272 4134 
L 2272 0 
L 1638 0 
L 1638 4134 
L -19 4134 
L -19 4666 
z
" id="DejaVuSans-54" transform="scale(0.015625)"/>
       <path d="M 3597 1894 
L 3597 1613 
L 953 1613 
Q 991 1019 1311 708 
Q 1631 397 2203 397 
Q 2534 397 2845 478 
Q 3156 559 3463 722 
L 3463 178 
Q 3153 47 2828 -22 
Q 2503 -91 2169 -91 
Q 1331 -91 842 396 
Q 353 884 353 1716 
Q 353 2575 817 3079 
Q 1281 3584 2069 3584 
Q 2775 3584 3186 3129 
Q 3597 2675 3597 1894 
z
M 3022 2063 
Q 3016 2534 2758 2815 
Q 2500 3097 2075 3097 
Q 1594 3097 1305 2825 
Q 1016 2553 972 2059 
L 3022 2063 
z
" id="DejaVuSans-65" transform="scale(0.015625)"/>
       <path d="M 2188 4044 
L 1331 1722 
L 3047 1722 
L 2188 4044 
z
M 1831 4666 
L 2547 4666 
L 4325 0 
L 3669 0 
L 3244 1197 
L 1141 1197 
L 716 0 
L 50 0 
L 1831 4666 
z
" id="DejaVuSans-41" transform="scale(0.015625)"/>
       <path d="M 2631 2963 
Q 2534 3019 2420 3045 
Q 2306 3072 2169 3072 
Q 1681 3072 1420 2755 
Q 1159 2438 1159 1844 
L 1159 0 
L 581 0 
L 581 3500 
L 1159 3500 
L 1159 2956 
Q 1341 3275 1631 3429 
Q 1922 3584 2338 3584 
Q 2397 3584 2469 3576 
Q 2541 3569 2628 3553 
L 2631 2963 
z
" id="DejaVuSans-72" transform="scale(0.015625)"/>
       <path d="M 2059 -325 
Q 1816 -950 1584 -1140 
Q 1353 -1331 966 -1331 
L 506 -1331 
L 506 -850 
L 844 -850 
Q 1081 -850 1212 -737 
Q 1344 -625 1503 -206 
L 1606 56 
L 191 3500 
L 800 3500 
L 1894 763 
L 2988 3500 
L 3597 3500 
L 2059 -325 
z
" id="DejaVuSans-79" transform="scale(0.015625)"/>
      </defs>
      <use xlink:href="#DejaVuSans-54"/>
      <use x="44.083984" xlink:href="#DejaVuSans-65"/>
      <use x="105.607422" xlink:href="#DejaVuSans-73"/>
      <use x="157.707031" xlink:href="#DejaVuSans-74"/>
      <use x="196.916016" xlink:href="#DejaVuSans-20"/>
      <use x="228.703125" xlink:href="#DejaVuSans-41"/>
      <use x="295.361328" xlink:href="#DejaVuSans-63"/>
      <use x="350.341797" xlink:href="#DejaVuSans-63"/>
      <use x="405.322266" xlink:href="#DejaVuSans-75"/>
      <use x="468.701172" xlink:href="#DejaVuSans-72"/>
      <use x="509.814453" xlink:href="#DejaVuSans-61"/>
      <use x="571.09375" xlink:href="#DejaVuSans-63"/>
      <use x="626.074219" xlink:href="#DejaVuSans-79"/>
     </g>
    </g>
   </g>
   <g id="line2d_14">
    <path clip-path="url(#p4cbe97e841)" d="M 69.012273 127.784547 
L 76.417282 96.40953 
L 83.822291 86.755679 
L 91.227301 77.101828 
L 98.63231 70.344132 
L 106.037319 67.930669 
L 113.442328 65.517206 
L 120.847338 62.621051 
L 128.252347 60.207588 
L 135.657356 58.276817 
L 143.062365 57.794125 
L 150.467375 56.82874 
L 157.872384 54.897969 
L 165.277393 54.897969 
L 172.682403 54.415277 
L 180.087412 54.897969 
L 187.492421 54.897969 
L 194.89743 55.863355 
L 202.30244 54.415277 
L 209.707449 53.932584 
L 217.112458 52.967199 
L 224.517468 53.449892 
L 231.922477 53.932584 
L 239.327486 54.415277 
L 246.732495 54.415277 
L 254.137505 53.449892 
L 261.542514 52.967199 
L 268.947523 52.967199 
L 276.352532 52.967199 
L 283.757542 51.519121 
L 291.162551 51.036429 
L 298.56756 51.036429 
L 305.97257 51.036429 
L 313.377579 51.036429 
L 320.782588 50.553736 
L 328.187597 51.036429 
L 335.592607 50.553736 
L 342.997616 49.588351 
L 350.402625 49.105659 
L 357.807635 49.105659 
L 365.212644 49.105659 
L 372.617653 49.588351 
L 380.022662 49.105659 
L 387.427672 48.140273 
L 394.832681 49.588351 
L 402.23769 50.071044 
L 409.642699 50.553736 
L 417.047709 50.071044 
L 424.452718 50.071044 
L 431.857727 48.622966 
" style="fill:none;stroke:#1f77b4;stroke-linecap:square;stroke-width:1.5;"/>
   </g>
   <g id="line2d_15">
    <path clip-path="url(#p4cbe97e841)" d="M 69.012273 141.782632 
L 76.417282 101.719149 
L 83.822291 89.651834 
L 91.227301 81.928753 
L 98.63231 75.171057 
L 106.037319 69.861439 
L 113.442328 64.551821 
L 120.847338 64.069128 
L 128.252347 63.586436 
L 135.657356 61.655665 
L 143.062365 61.172973 
L 150.467375 58.276817 
L 157.872384 57.794125 
L 165.277393 57.794125 
L 172.682403 56.346047 
L 180.087412 57.311432 
L 187.492421 57.794125 
L 194.89743 56.82874 
L 202.30244 55.863355 
L 209.707449 55.380662 
L 217.112458 55.380662 
L 224.517468 54.415277 
L 231.922477 55.863355 
L 239.327486 55.863355 
L 246.732495 54.897969 
L 254.137505 56.346047 
L 261.542514 55.863355 
L 268.947523 55.863355 
L 276.352532 55.380662 
L 283.757542 54.415277 
L 291.162551 54.897969 
L 298.56756 54.897969 
L 305.97257 53.932584 
L 313.377579 54.415277 
L 320.782588 54.897969 
L 328.187597 54.415277 
L 335.592607 55.380662 
L 342.997616 55.863355 
L 350.402625 54.415277 
L 357.807635 54.415277 
L 365.212644 54.415277 
L 372.617653 53.932584 
L 380.022662 54.415277 
L 387.427672 53.932584 
L 394.832681 54.897969 
L 402.23769 54.897969 
L 409.642699 53.932584 
L 417.047709 54.897969 
L 424.452718 54.415277 
L 431.857727 53.932584 
" style="fill:none;stroke:#ff7f0e;stroke-linecap:square;stroke-width:1.5;"/>
   </g>
   <g id="line2d_16">
    <path clip-path="url(#p4cbe97e841)" d="M 69.012273 129.715317 
L 76.417282 100.271071 
L 83.822291 89.651834 
L 91.227301 81.928753 
L 98.63231 78.549905 
L 106.037319 75.171057 
L 113.442328 70.344132 
L 120.847338 66.965284 
L 128.252347 62.621051 
L 135.657356 62.621051 
L 143.062365 59.242203 
L 150.467375 58.75951 
L 157.872384 58.75951 
L 165.277393 57.794125 
L 172.682403 59.242203 
L 180.087412 58.75951 
L 187.492421 60.207588 
L 194.89743 60.207588 
L 202.30244 58.75951 
L 209.707449 59.242203 
L 217.112458 59.242203 
L 224.517468 59.242203 
L 231.922477 58.276817 
L 239.327486 58.75951 
L 246.732495 59.242203 
L 254.137505 59.242203 
L 261.542514 58.75951 
L 268.947523 58.276817 
L 276.352532 57.311432 
L 283.757542 57.311432 
L 291.162551 58.75951 
L 298.56756 58.276817 
L 305.97257 56.82874 
L 313.377579 57.794125 
L 320.782588 57.311432 
L 328.187597 57.794125 
L 335.592607 57.311432 
L 342.997616 57.311432 
L 350.402625 56.82874 
L 357.807635 55.863355 
L 365.212644 56.346047 
L 372.617653 57.311432 
L 380.022662 56.82874 
L 387.427672 57.311432 
L 394.832681 57.311432 
L 402.23769 56.346047 
L 409.642699 56.82874 
L 417.047709 57.311432 
L 424.452718 56.82874 
L 431.857727 56.82874 
" style="fill:none;stroke:#2ca02c;stroke-linecap:square;stroke-width:1.5;"/>
   </g>
   <g id="line2d_17">
    <path clip-path="url(#p4cbe97e841)" d="M 69.012273 261.434396 
L 76.417282 134.299931 
L 83.822291 113.517603 
L 91.227301 105.662264 
L 98.63231 100.133021 
L 106.037319 96.05282 
L 113.442328 93.993654 
L 120.847338 91.591293 
L 128.252347 89.799056 
L 135.657356 88.388145 
L 143.062365 86.939102 
L 150.467375 85.947652 
L 157.872384 84.498608 
L 165.277393 83.469025 
L 172.682403 82.477575 
L 180.087412 81.867451 
L 187.492421 80.914133 
L 194.89743 79.693887 
L 202.30244 79.236294 
L 209.707449 78.854967 
L 217.112458 78.359242 
L 224.517468 77.596587 
L 231.922477 76.986464 
L 239.327486 76.300075 
L 246.732495 75.689952 
L 254.137505 75.308625 
L 261.542514 75.156094 
L 268.947523 74.584103 
L 276.352532 73.821449 
L 283.757542 73.630785 
L 291.162551 73.401989 
L 298.56756 72.829998 
L 305.97257 72.563069 
L 313.377579 72.219875 
L 320.782588 72.14361 
L 328.187597 72.372406 
L 335.592607 71.991079 
L 342.997616 71.876681 
L 350.402625 71.495353 
L 357.807635 71.419088 
L 365.212644 70.88523 
L 372.617653 70.694566 
L 380.022662 70.542036 
L 387.427672 70.427637 
L 394.832681 70.427637 
L 402.23769 70.04631 
L 409.642699 69.931912 
L 417.047709 70.084443 
L 424.452718 69.779381 
L 431.857727 69.550585 
" style="fill:none;stroke:#d62728;stroke-linecap:square;stroke-width:1.5;"/>
   </g>
   <g id="patch_3">
    <path d="M 50.87 303.64 
L 50.87 32.876829 
" style="fill:none;stroke:#000000;stroke-linecap:square;stroke-linejoin:miter;stroke-width:0.8;"/>
   </g>
   <g id="patch_4">
    <path d="M 450 303.64 
L 450 32.876829 
" style="fill:none;stroke:#000000;stroke-linecap:square;stroke-linejoin:miter;stroke-width:0.8;"/>
   </g>
   <g id="patch_5">
    <path d="M 50.87 303.64 
L 450 303.64 
" style="fill:none;stroke:#000000;stroke-linecap:square;stroke-linejoin:miter;stroke-width:0.8;"/>
   </g>
   <g id="patch_6">
    <path d="M 50.87 32.876829 
L 450 32.876829 
" style="fill:none;stroke:#000000;stroke-linecap:square;stroke-linejoin:miter;stroke-width:0.8;"/>
   </g>
   <g id="legend_1">
    <g id="patch_7">
     <path d="M 84.036563 28.478637 
L 416.833438 28.478637 
Q 418.833438 28.478637 418.833438 26.478637 
L 418.833438 12.800512 
Q 418.833438 10.800512 416.833438 10.800512 
L 84.036563 10.800512 
Q 82.036563 10.800512 82.036563 12.800512 
L 82.036563 26.478637 
Q 82.036563 28.478637 84.036563 28.478637 
z
" style="fill:#ffffff;opacity:0.8;stroke:#cccccc;stroke-linejoin:miter;"/>
    </g>
    <g id="line2d_18">
     <path d="M 86.036563 18.898949 
L 106.036563 18.898949 
" style="fill:none;stroke:#1f77b4;stroke-linecap:square;stroke-width:1.5;"/>
    </g>
    <g id="line2d_19"/>
    <g id="text_16">
     <!-- FedAvg -->
     <g transform="translate(114.036563 22.398949)scale(0.1 -0.1)">
      <defs>
       <path d="M 628 4666 
L 3309 4666 
L 3309 4134 
L 1259 4134 
L 1259 2759 
L 3109 2759 
L 3109 2228 
L 1259 2228 
L 1259 0 
L 628 0 
L 628 4666 
z
" id="DejaVuSans-46" transform="scale(0.015625)"/>
       <path d="M 191 3500 
L 800 3500 
L 1894 563 
L 2988 3500 
L 3597 3500 
L 2284 0 
L 1503 0 
L 191 3500 
z
" id="DejaVuSans-76" transform="scale(0.015625)"/>
       <path d="M 2906 1791 
Q 2906 2416 2648 2759 
Q 2391 3103 1925 3103 
Q 1463 3103 1205 2759 
Q 947 2416 947 1791 
Q 947 1169 1205 825 
Q 1463 481 1925 481 
Q 2391 481 2648 825 
Q 2906 1169 2906 1791 
z
M 3481 434 
Q 3481 -459 3084 -895 
Q 2688 -1331 1869 -1331 
Q 1566 -1331 1297 -1286 
Q 1028 -1241 775 -1147 
L 775 -588 
Q 1028 -725 1275 -790 
Q 1522 -856 1778 -856 
Q 2344 -856 2625 -561 
Q 2906 -266 2906 331 
L 2906 616 
Q 2728 306 2450 153 
Q 2172 0 1784 0 
Q 1141 0 747 490 
Q 353 981 353 1791 
Q 353 2603 747 3093 
Q 1141 3584 1784 3584 
Q 2172 3584 2450 3431 
Q 2728 3278 2906 2969 
L 2906 3500 
L 3481 3500 
L 3481 434 
z
" id="DejaVuSans-67" transform="scale(0.015625)"/>
      </defs>
      <use xlink:href="#DejaVuSans-46"/>
      <use x="52.019531" xlink:href="#DejaVuSans-65"/>
      <use x="113.542969" xlink:href="#DejaVuSans-64"/>
      <use x="177.019531" xlink:href="#DejaVuSans-41"/>
      <use x="239.552734" xlink:href="#DejaVuSans-76"/>
      <use x="298.732422" xlink:href="#DejaVuSans-67"/>
     </g>
    </g>
    <g id="line2d_20">
     <path d="M 170.26 18.898949 
L 190.26 18.898949 
" style="fill:none;stroke:#ff7f0e;stroke-linecap:square;stroke-width:1.5;"/>
    </g>
    <g id="line2d_21"/>
    <g id="text_17">
     <!-- FedMed -->
     <g transform="translate(198.26 22.398949)scale(0.1 -0.1)">
      <defs>
       <path d="M 628 4666 
L 1569 4666 
L 2759 1491 
L 3956 4666 
L 4897 4666 
L 4897 0 
L 4281 0 
L 4281 4097 
L 3078 897 
L 2444 897 
L 1241 4097 
L 1241 0 
L 628 0 
L 628 4666 
z
" id="DejaVuSans-4d" transform="scale(0.015625)"/>
      </defs>
      <use xlink:href="#DejaVuSans-46"/>
      <use x="52.019531" xlink:href="#DejaVuSans-65"/>
      <use x="113.542969" xlink:href="#DejaVuSans-64"/>
      <use x="177.019531" xlink:href="#DejaVuSans-4d"/>
      <use x="263.298828" xlink:href="#DejaVuSans-65"/>
      <use x="324.822266" xlink:href="#DejaVuSans-64"/>
     </g>
    </g>
    <g id="line2d_22">
     <path d="M 257.092813 18.898949 
L 277.092813 18.898949 
" style="fill:none;stroke:#2ca02c;stroke-linecap:square;stroke-width:1.5;"/>
    </g>
    <g id="line2d_23"/>
    <g id="text_18">
     <!-- FedProx -->
     <g transform="translate(285.092813 22.398949)scale(0.1 -0.1)">
      <defs>
       <path d="M 1259 4147 
L 1259 2394 
L 2053 2394 
Q 2494 2394 2734 2622 
Q 2975 2850 2975 3272 
Q 2975 3691 2734 3919 
Q 2494 4147 2053 4147 
L 1259 4147 
z
M 628 4666 
L 2053 4666 
Q 2838 4666 3239 4311 
Q 3641 3956 3641 3272 
Q 3641 2581 3239 2228 
Q 2838 1875 2053 1875 
L 1259 1875 
L 1259 0 
L 628 0 
L 628 4666 
z
" id="DejaVuSans-50" transform="scale(0.015625)"/>
       <path d="M 3513 3500 
L 2247 1797 
L 3578 0 
L 2900 0 
L 1881 1375 
L 863 0 
L 184 0 
L 1544 1831 
L 300 3500 
L 978 3500 
L 1906 2253 
L 2834 3500 
L 3513 3500 
z
" id="DejaVuSans-78" transform="scale(0.015625)"/>
      </defs>
      <use xlink:href="#DejaVuSans-46"/>
      <use x="52.019531" xlink:href="#DejaVuSans-65"/>
      <use x="113.542969" xlink:href="#DejaVuSans-64"/>
      <use x="177.019531" xlink:href="#DejaVuSans-50"/>
      <use x="235.572266" xlink:href="#DejaVuSans-72"/>
      <use x="274.435547" xlink:href="#DejaVuSans-6f"/>
      <use x="332.492188" xlink:href="#DejaVuSans-78"/>
     </g>
    </g>
    <g id="line2d_24">
     <path d="M 344.261563 18.898949 
L 364.261563 18.898949 
" style="fill:none;stroke:#d62728;stroke-linecap:square;stroke-width:1.5;"/>
    </g>
    <g id="line2d_25"/>
    <g id="text_19">
     <!-- qFedAvg -->
     <g transform="translate(372.261563 22.398949)scale(0.1 -0.1)">
      <defs>
       <path d="M 947 1747 
Q 947 1113 1208 752 
Q 1469 391 1925 391 
Q 2381 391 2643 752 
Q 2906 1113 2906 1747 
Q 2906 2381 2643 2742 
Q 2381 3103 1925 3103 
Q 1469 3103 1208 2742 
Q 947 2381 947 1747 
z
M 2906 525 
Q 2725 213 2448 61 
Q 2172 -91 1784 -91 
Q 1150 -91 751 415 
Q 353 922 353 1747 
Q 353 2572 751 3078 
Q 1150 3584 1784 3584 
Q 2172 3584 2448 3432 
Q 2725 3281 2906 2969 
L 2906 3500 
L 3481 3500 
L 3481 -1331 
L 2906 -1331 
L 2906 525 
z
" id="DejaVuSans-71" transform="scale(0.015625)"/>
      </defs>
      <use xlink:href="#DejaVuSans-71"/>
      <use x="63.476562" xlink:href="#DejaVuSans-46"/>
      <use x="115.496094" xlink:href="#DejaVuSans-65"/>
      <use x="177.019531" xlink:href="#DejaVuSans-64"/>
      <use x="240.496094" xlink:href="#DejaVuSans-41"/>
      <use x="303.029297" xlink:href="#DejaVuSans-76"/>
      <use x="362.208984" xlink:href="#DejaVuSans-67"/>
     </g>
    </g>
   </g>
  </g>
 </g>
 <defs>
  <clipPath id="p4cbe97e841">
   <rect height="270.763171" width="399.13" x="50.87" y="32.876829"/>
  </clipPath>
 </defs>
</svg>
