<?xml version="1.0" encoding="utf-8" standalone="no"?>
<!DOCTYPE svg PUBLIC "-//W3C//DTD SVG 1.1//EN"
  "http://www.w3.org/Graphics/SVG/1.1/DTD/svg11.dtd">
<svg height="345.6pt" version="1.1" viewBox="0 0 460.8 345.6" width="460.8pt" xmlns="http://www.w3.org/2000/svg" xmlns:xlink="http://www.w3.org/1999/xlink">
 <metadata>
  <rdf:RDF xmlns:cc="http://creativecommons.org/ns#" xmlns:dc="http://purl.org/dc/elements/1.1/" xmlns:rdf="http://www.w3.org/1999/02/22-rdf-syntax-ns#">
   <cc:Work>
    <dc:type rdf:resource="http://purl.org/dc/dcmitype/StillImage"/>
    <dc:date>2021-04-30T09:52:31.809350</dc:date>
    <dc:format>image/svg+xml</dc:format>
    <dc:creator>
     <cc:Agent>
      <dc:title>Matplotlib v3.4.1, https://matplotlib.org/</dc:title>
     </cc:Agent>
    </dc:creator>
   </cc:Work>
  </rdf:RDF>
 </metadata>
 <defs>
  <style type="text/css">*{stroke-linecap:butt;stroke-linejoin:round;}</style>
 </defs>
 <g id="figure_1">
  <g id="patch_1">
   <path d="M 0 345.6 
L 460.8 345.6 
L 460.8 0 
L 0 0 
z
" style="fill:#ffffff;"/>
  </g>
  <g id="axes_1">
   <g id="patch_2">
    <path d="M 44.57 303.64 
L 366.25 303.64 
L 366.25 26.88 
L 44.57 26.88 
z
" style="fill:#ffffff;"/>
   </g>
   <g id="PolyCollection_1">
    <path clip-path="url(#pfc44835bae)" d="M 59.191818 194.027981 
L 59.191818 276.782297 
L 65.159907 127.710357 
L 71.127996 114.780832 
L 77.096085 106.201968 
L 83.064174 97.657638 
L 89.032263 92.867387 
L 95.000353 89.414543 
L 100.968442 84.301284 
L 106.936531 80.654621 
L 112.90462 75.991531 
L 118.872709 78.867951 
L 124.840798 75.328793 
L 130.808887 70.478979 
L 136.776976 70.865345 
L 142.745065 71.491262 
L 148.713154 66.276616 
L 154.681243 67.252124 
L 160.649332 62.012754 
L 166.617421 62.293338 
L 172.58551 63.150478 
L 178.553599 61.528937 
L 184.521688 61.36133 
L 190.489777 60.490465 
L 196.457866 63.165912 
L 202.425955 61.379964 
L 208.394045 59.671433 
L 214.362134 60.768637 
L 220.330223 58.68703 
L 226.298312 58.716637 
L 232.266401 58.240804 
L 238.23449 56.56866 
L 244.202579 55.816257 
L 250.170668 58.968756 
L 256.138757 59.486611 
L 262.106846 58.844857 
L 268.074935 53.855497 
L 274.043024 54.763304 
L 280.011113 53.522714 
L 285.979202 50.689217 
L 291.947291 51.838679 
L 297.91538 52.312924 
L 303.883469 51.892379 
L 309.851558 52.000424 
L 315.819647 50.886701 
L 321.787737 50.050589 
L 327.755826 50.837397 
L 333.723915 52.425958 
L 339.692004 48.999578 
L 345.660093 52.604684 
L 351.628182 52.469232 
L 351.628182 43.857863 
L 351.628182 43.857863 
L 345.660093 39.46 
L 339.692004 44.282937 
L 333.723915 42.683306 
L 327.755826 46.707529 
L 321.787737 43.840843 
L 315.819647 45.440393 
L 309.851558 46.762333 
L 303.883469 44.434715 
L 297.91538 43.405255 
L 291.947291 47.532994 
L 285.979202 44.420046 
L 280.011113 48.284623 
L 274.043024 48.261863 
L 268.074935 47.95184 
L 262.106846 51.4873 
L 256.138757 51.454461 
L 250.170668 51.363401 
L 244.202579 49.035658 
L 238.23449 45.847592 
L 232.266401 55.135931 
L 226.298312 51.61552 
L 220.330223 50.427295 
L 214.362134 53.82593 
L 208.394045 53.705302 
L 202.425955 53.823519 
L 196.457866 52.037571 
L 190.489777 54.104102 
L 184.521688 56.886731 
L 178.553599 58.545871 
L 172.58551 56.315415 
L 166.617421 54.736892 
L 160.649332 55.626392 
L 154.681243 58.302927 
L 148.713154 55.62494 
L 142.745065 61.979694 
L 136.776976 62.60561 
L 130.808887 64.209808 
L 124.840798 68.49373 
L 118.872709 66.781319 
L 112.90462 69.048823 
L 106.936531 75.346217 
L 100.968442 78.397627 
L 95.000353 81.809188 
L 89.032263 89.316828 
L 83.064174 89.397903 
L 77.096085 97.294298 
L 71.127996 106.982906 
L 65.159907 122.063505 
L 59.191818 194.027981 
z
" style="fill:#1f77b4;fill-opacity:0.5;"/>
   </g>
   <g id="PolyCollection_2">
    <path clip-path="url(#pfc44835bae)" d="M 59.191818 193.75534 
L 59.191818 291.06 
L 65.159907 156.190436 
L 71.127996 115.092811 
L 77.096085 114.03383 
L 83.064174 101.880753 
L 89.032263 94.624527 
L 95.000353 92.063604 
L 100.968442 86.396099 
L 106.936531 85.209092 
L 112.90462 80.028688 
L 118.872709 81.411763 
L 124.840798 81.253365 
L 130.808887 78.868824 
L 136.776976 74.66152 
L 142.745065 75.75618 
L 148.713154 71.521569 
L 154.681243 70.500586 
L 160.649332 68.878375 
L 166.617421 72.711602 
L 172.58551 71.244921 
L 178.553599 72.299648 
L 184.521688 68.318061 
L 190.489777 66.84286 
L 196.457866 74.081839 
L 202.425955 65.273483 
L 208.394045 64.810414 
L 214.362134 66.941619 
L 220.330223 64.085364 
L 226.298312 64.629556 
L 232.266401 64.424543 
L 238.23449 63.253898 
L 244.202579 61.828865 
L 250.170668 61.255236 
L 256.138757 63.936367 
L 262.106846 61.345243 
L 268.074935 63.577865 
L 274.043024 61.617817 
L 280.011113 63.467579 
L 285.979202 61.542727 
L 291.947291 58.210657 
L 297.91538 62.206374 
L 303.883469 60.972415 
L 309.851558 64.519038 
L 315.819647 62.011301 
L 321.787737 61.889436 
L 327.755826 61.466944 
L 333.723915 61.122693 
L 339.692004 59.518496 
L 345.660093 60.243546 
L 351.628182 62.755722 
L 351.628182 54.274508 
L 351.628182 54.274508 
L 345.660093 53.742105 
L 339.692004 53.249324 
L 333.723915 52.862958 
L 327.755826 55.563286 
L 321.787737 54.531879 
L 315.819647 57.454592 
L 309.851558 53.729023 
L 303.883469 56.666731 
L 297.91538 57.259519 
L 291.947291 56.992826 
L 285.979202 56.096419 
L 280.011113 55.389398 
L 274.043024 53.585666 
L 268.074935 54.670196 
L 262.106846 55.076071 
L 256.138757 56.138441 
L 250.170668 57.601741 
L 244.202579 53.983534 
L 238.23449 54.994163 
L 232.266401 56.868097 
L 226.298312 57.271999 
L 220.330223 57.816192 
L 214.362134 60.440178 
L 208.394045 58.308973 
L 202.425955 59.063736 
L 196.457866 57.562369 
L 190.489777 58.103275 
L 184.521688 62.108315 
L 178.553599 61.171307 
L 172.58551 61.617118 
L 166.617421 63.803932 
L 160.649332 60.939085 
L 154.681243 65.406032 
L 148.713154 60.731555 
L 142.745065 66.848511 
L 136.776976 65.507509 
L 130.808887 68.607193 
L 124.840798 71.702894 
L 118.872709 70.93558 
L 112.90462 72.927571 
L 106.936531 78.707651 
L 100.968442 79.34739 
L 95.000353 84.031453 
L 89.032263 89.386435 
L 83.064174 91.263945 
L 77.096085 105.294245 
L 71.127996 111.542253 
L 65.159907 117.940057 
L 59.191818 193.75534 
z
" style="fill:#ff7f0e;fill-opacity:0.5;"/>
   </g>
   <g id="PolyCollection_3">
    <path clip-path="url(#pfc44835bae)" d="M 59.191818 179.714508 
L 59.191818 249.689499 
L 65.159907 140.2356 
L 71.127996 122.833843 
L 77.096085 100.723099 
L 83.064174 104.334471 
L 89.032263 93.14597 
L 95.000353 90.573633 
L 100.968442 89.029397 
L 106.936531 82.0831 
L 112.90462 78.659799 
L 118.872709 79.426617 
L 124.840798 70.753724 
L 130.808887 77.323423 
L 136.776976 74.261006 
L 142.745065 74.921906 
L 148.713154 69.196425 
L 154.681243 66.834291 
L 160.649332 66.364748 
L 166.617421 67.039935 
L 172.58551 66.275745 
L 178.553599 63.944256 
L 184.521688 60.560401 
L 190.489777 61.466944 
L 196.457866 63.150478 
L 202.425955 64.949993 
L 208.394045 62.902254 
L 214.362134 67.394903 
L 220.330223 63.232037 
L 226.298312 58.484358 
L 232.266401 59.844561 
L 238.23449 59.450126 
L 244.202579 59.611871 
L 250.170668 58.279152 
L 256.138757 60.9907 
L 262.106846 57.176208 
L 268.074935 58.721257 
L 274.043024 55.653919 
L 280.011113 55.969294 
L 285.979202 54.201237 
L 291.947291 54.67948 
L 297.91538 54.594927 
L 303.883469 55.377786 
L 309.851558 52.76818 
L 315.819647 54.00637 
L 321.787737 53.655482 
L 327.755826 53.142256 
L 333.723915 51.634901 
L 339.692004 54.230902 
L 345.660093 53.380594 
L 351.628182 50.115023 
L 351.628182 42.558577 
L 351.628182 42.558577 
L 345.660093 46.599995 
L 339.692004 45.749687 
L 333.723915 44.692193 
L 327.755826 44.402671 
L 321.787737 45.716192 
L 315.819647 45.974219 
L 309.851558 47.821325 
L 303.883469 49.474129 
L 297.91538 49.648072 
L 291.947291 47.736772 
L 285.979202 50.650678 
L 280.011113 47.66479 
L 274.043024 50.415828 
L 268.074935 52.219816 
L 262.106846 51.938117 
L 256.138757 49.341456 
L 250.170668 51.444089 
L 244.202579 54.37378 
L 238.23449 55.144441 
L 232.266401 54.750006 
L 226.298312 55.501293 
L 220.330223 52.580362 
L 214.362134 56.3334 
L 208.394045 55.345808 
L 202.425955 58.169394 
L 196.457866 56.315415 
L 190.489777 55.563286 
L 184.521688 55.251997 
L 178.553599 56.739468 
L 172.58551 58.67039 
L 166.617421 58.515115 
L 160.649332 62.234881 
L 154.681243 62.98317 
L 148.713154 61.838868 
L 142.745065 64.02929 
L 136.776976 68.952601 
L 130.808887 66.4991 
L 124.840798 64.543978 
L 118.872709 69.876147 
L 112.90462 69.425134 
L 106.936531 74.526654 
L 100.968442 82.194334 
L 95.000353 81.259014 
L 89.032263 88.429329 
L 83.064174 89.419143 
L 77.096085 96.684009 
L 71.127996 102.583389 
L 65.159907 125.370072 
L 59.191818 179.714508 
z
" style="fill:#2ca02c;fill-opacity:0.5;"/>
   </g>
   <g id="PolyCollection_4">
    <path clip-path="url(#pfc44835bae)" d="M 59.191818 179.164961 
L 59.191818 289.690697 
L 65.159907 143.413456 
L 71.127996 126.743638 
L 77.096085 115.585926 
L 83.064174 109.663797 
L 89.032263 103.213373 
L 95.000353 98.91456 
L 100.968442 94.718298 
L 106.936531 91.046481 
L 112.90462 89.2392 
L 118.872709 89.241838 
L 124.840798 86.112843 
L 130.808887 83.327267 
L 136.776976 81.898146 
L 142.745065 82.245267 
L 148.713154 79.987878 
L 154.681243 79.663183 
L 160.649332 78.906485 
L 166.617421 78.02159 
L 172.58551 77.10167 
L 178.553599 76.795159 
L 184.521688 76.40762 
L 190.489777 76.289945 
L 196.457866 76.863417 
L 202.425955 77.085262 
L 208.394045 75.925316 
L 214.362134 75.005873 
L 220.330223 75.138179 
L 226.298312 75.421146 
L 232.266401 74.977252 
L 238.23449 74.773207 
L 244.202579 74.510082 
L 250.170668 74.484468 
L 256.138757 74.590937 
L 262.106846 74.132636 
L 268.074935 75.162678 
L 274.043024 74.408729 
L 280.011113 74.918054 
L 285.979202 74.47739 
L 291.947291 74.177027 
L 297.91538 74.187351 
L 303.883469 74.474151 
L 309.851558 74.403041 
L 315.819647 74.124364 
L 321.787737 74.414284 
L 327.755826 73.944176 
L 333.723915 73.930298 
L 339.692004 73.492239 
L 345.660093 73.818592 
L 351.628182 73.952349 
L 351.628182 71.11297 
L 351.628182 71.11297 
L 345.660093 70.958102 
L 339.692004 71.188246 
L 333.723915 70.605874 
L 327.755826 71.121144 
L 321.787737 71.180184 
L 315.819647 71.133373 
L 309.851558 70.950905 
L 303.883469 71.216525 
L 297.91538 71.599534 
L 291.947291 70.888293 
L 285.979202 71.501912 
L 280.011113 71.494187 
L 274.043024 71.811095 
L 268.074935 71.682502 
L 262.106846 72.135292 
L 256.138757 71.484574 
L 250.170668 71.735356 
L 244.202579 71.805951 
L 238.23449 72.264391 
L 232.266401 73.262955 
L 226.298312 71.520243 
L 220.330223 71.755106 
L 214.362134 72.368456 
L 208.394045 72.362995 
L 202.425955 73.560162 
L 196.457866 72.627502 
L 190.489777 72.912348 
L 184.521688 73.468134 
L 178.553599 74.042682 
L 172.58551 73.255127 
L 166.617421 75.029051 
L 160.649332 76.212642 
L 154.681243 75.840779 
L 148.713154 76.959214 
L 142.745065 77.203252 
L 136.776976 78.993503 
L 130.808887 80.450643 
L 124.840798 81.080475 
L 118.872709 82.71381 
L 112.90462 84.784935 
L 106.936531 89.231219 
L 100.968442 89.552062 
L 95.000353 92.66766 
L 89.032263 97.941611 
L 83.064174 103.902109 
L 77.096085 110.823839 
L 71.127996 124.536073 
L 65.159907 134.323644 
L 59.191818 179.164961 
z
" style="fill:#d62728;fill-opacity:0.5;"/>
   </g>
   <g id="matplotlib.axis_1">
    <g id="xtick_1">
     <g id="line2d_1">
      <path clip-path="url(#pfc44835bae)" d="M 59.191818 303.64 
L 59.191818 26.88 
" style="fill:none;stroke:#b0b0b0;stroke-linecap:square;stroke-width:0.8;"/>
     </g>
     <g id="line2d_2">
      <defs>
       <path d="M 0 0 
L 0 3.5 
" id="m141eb128cb" style="stroke:#000000;stroke-width:0.8;"/>
      </defs>
      <g>
       <use style="stroke:#000000;stroke-width:0.8;" x="59.191818" xlink:href="#m141eb128cb" y="303.64"/>
      </g>
     </g>
     <g id="text_1">
      <!-- 0 -->
      <g transform="translate(56.010568 318.238437)scale(0.1 -0.1)">
       <defs>
        <path d="M 2034 4250 
Q 1547 4250 1301 3770 
Q 1056 3291 1056 2328 
Q 1056 1369 1301 889 
Q 1547 409 2034 409 
Q 2525 409 2770 889 
Q 3016 1369 3016 2328 
Q 3016 3291 2770 3770 
Q 2525 4250 2034 4250 
z
M 2034 4750 
Q 2819 4750 3233 4129 
Q 3647 3509 3647 2328 
Q 3647 1150 3233 529 
Q 2819 -91 2034 -91 
Q 1250 -91 836 529 
Q 422 1150 422 2328 
Q 422 3509 836 4129 
Q 1250 4750 2034 4750 
z
" id="DejaVuSans-30" transform="scale(0.015625)"/>
       </defs>
       <use xlink:href="#DejaVuSans-30"/>
      </g>
     </g>
    </g>
    <g id="xtick_2">
     <g id="line2d_3">
      <path clip-path="url(#pfc44835bae)" d="M 118.872709 303.64 
L 118.872709 26.88 
" style="fill:none;stroke:#b0b0b0;stroke-linecap:square;stroke-width:0.8;"/>
     </g>
     <g id="line2d_4">
      <g>
       <use style="stroke:#000000;stroke-width:0.8;" x="118.872709" xlink:href="#m141eb128cb" y="303.64"/>
      </g>
     </g>
     <g id="text_2">
      <!-- 10 -->
      <g transform="translate(112.510209 318.238437)scale(0.1 -0.1)">
       <defs>
        <path d="M 794 531 
L 1825 531 
L 1825 4091 
L 703 3866 
L 703 4441 
L 1819 4666 
L 2450 4666 
L 2450 531 
L 3481 531 
L 3481 0 
L 794 0 
L 794 531 
z
" id="DejaVuSans-31" transform="scale(0.015625)"/>
       </defs>
       <use xlink:href="#DejaVuSans-31"/>
       <use x="63.623047" xlink:href="#DejaVuSans-30"/>
      </g>
     </g>
    </g>
    <g id="xtick_3">
     <g id="line2d_5">
      <path clip-path="url(#pfc44835bae)" d="M 178.553599 303.64 
L 178.553599 26.88 
" style="fill:none;stroke:#b0b0b0;stroke-linecap:square;stroke-width:0.8;"/>
     </g>
     <g id="line2d_6">
      <g>
       <use style="stroke:#000000;stroke-width:0.8;" x="178.553599" xlink:href="#m141eb128cb" y="303.64"/>
      </g>
     </g>
     <g id="text_3">
      <!-- 20 -->
      <g transform="translate(172.191099 318.238437)scale(0.1 -0.1)">
       <defs>
        <path d="M 1228 531 
L 3431 531 
L 3431 0 
L 469 0 
L 469 531 
Q 828 903 1448 1529 
Q 2069 2156 2228 2338 
Q 2531 2678 2651 2914 
Q 2772 3150 2772 3378 
Q 2772 3750 2511 3984 
Q 2250 4219 1831 4219 
Q 1534 4219 1204 4116 
Q 875 4013 500 3803 
L 500 4441 
Q 881 4594 1212 4672 
Q 1544 4750 1819 4750 
Q 2544 4750 2975 4387 
Q 3406 4025 3406 3419 
Q 3406 3131 3298 2873 
Q 3191 2616 2906 2266 
Q 2828 2175 2409 1742 
Q 1991 1309 1228 531 
z
" id="DejaVuSans-32" transform="scale(0.015625)"/>
       </defs>
       <use xlink:href="#DejaVuSans-32"/>
       <use x="63.623047" xlink:href="#DejaVuSans-30"/>
      </g>
     </g>
    </g>
    <g id="xtick_4">
     <g id="line2d_7">
      <path clip-path="url(#pfc44835bae)" d="M 238.23449 303.64 
L 238.23449 26.88 
" style="fill:none;stroke:#b0b0b0;stroke-linecap:square;stroke-width:0.8;"/>
     </g>
     <g id="line2d_8">
      <g>
       <use style="stroke:#000000;stroke-width:0.8;" x="238.23449" xlink:href="#m141eb128cb" y="303.64"/>
      </g>
     </g>
     <g id="text_4">
      <!-- 30 -->
      <g transform="translate(231.87199 318.238437)scale(0.1 -0.1)">
       <defs>
        <path d="M 2597 2516 
Q 3050 2419 3304 2112 
Q 3559 1806 3559 1356 
Q 3559 666 3084 287 
Q 2609 -91 1734 -91 
Q 1441 -91 1130 -33 
Q 819 25 488 141 
L 488 750 
Q 750 597 1062 519 
Q 1375 441 1716 441 
Q 2309 441 2620 675 
Q 2931 909 2931 1356 
Q 2931 1769 2642 2001 
Q 2353 2234 1838 2234 
L 1294 2234 
L 1294 2753 
L 1863 2753 
Q 2328 2753 2575 2939 
Q 2822 3125 2822 3475 
Q 2822 3834 2567 4026 
Q 2313 4219 1838 4219 
Q 1578 4219 1281 4162 
Q 984 4106 628 3988 
L 628 4550 
Q 988 4650 1302 4700 
Q 1616 4750 1894 4750 
Q 2613 4750 3031 4423 
Q 3450 4097 3450 3541 
Q 3450 3153 3228 2886 
Q 3006 2619 2597 2516 
z
" id="DejaVuSans-33" transform="scale(0.015625)"/>
       </defs>
       <use xlink:href="#DejaVuSans-33"/>
       <use x="63.623047" xlink:href="#DejaVuSans-30"/>
      </g>
     </g>
    </g>
    <g id="xtick_5">
     <g id="line2d_9">
      <path clip-path="url(#pfc44835bae)" d="M 297.91538 303.64 
L 297.91538 26.88 
" style="fill:none;stroke:#b0b0b0;stroke-linecap:square;stroke-width:0.8;"/>
     </g>
     <g id="line2d_10">
      <g>
       <use style="stroke:#000000;stroke-width:0.8;" x="297.91538" xlink:href="#m141eb128cb" y="303.64"/>
      </g>
     </g>
     <g id="text_5">
      <!-- 40 -->
      <g transform="translate(291.55288 318.238437)scale(0.1 -0.1)">
       <defs>
        <path d="M 2419 4116 
L 825 1625 
L 2419 1625 
L 2419 4116 
z
M 2253 4666 
L 3047 4666 
L 3047 1625 
L 3713 1625 
L 3713 1100 
L 3047 1100 
L 3047 0 
L 2419 0 
L 2419 1100 
L 313 1100 
L 313 1709 
L 2253 4666 
z
" id="DejaVuSans-34" transform="scale(0.015625)"/>
       </defs>
       <use xlink:href="#DejaVuSans-34"/>
       <use x="63.623047" xlink:href="#DejaVuSans-30"/>
      </g>
     </g>
    </g>
    <g id="xtick_6">
     <g id="line2d_11">
      <path clip-path="url(#pfc44835bae)" d="M 357.596271 303.64 
L 357.596271 26.88 
" style="fill:none;stroke:#b0b0b0;stroke-linecap:square;stroke-width:0.8;"/>
     </g>
     <g id="line2d_12">
      <g>
       <use style="stroke:#000000;stroke-width:0.8;" x="357.596271" xlink:href="#m141eb128cb" y="303.64"/>
      </g>
     </g>
     <g id="text_6">
      <!-- 50 -->
      <g transform="translate(351.233771 318.238437)scale(0.1 -0.1)">
       <defs>
        <path d="M 691 4666 
L 3169 4666 
L 3169 4134 
L 1269 4134 
L 1269 2991 
Q 1406 3038 1543 3061 
Q 1681 3084 1819 3084 
Q 2600 3084 3056 2656 
Q 3513 2228 3513 1497 
Q 3513 744 3044 326 
Q 2575 -91 1722 -91 
Q 1428 -91 1123 -41 
Q 819 9 494 109 
L 494 744 
Q 775 591 1075 516 
Q 1375 441 1709 441 
Q 2250 441 2565 725 
Q 2881 1009 2881 1497 
Q 2881 1984 2565 2268 
Q 2250 2553 1709 2553 
Q 1456 2553 1204 2497 
Q 953 2441 691 2322 
L 691 4666 
z
" id="DejaVuSans-35" transform="scale(0.015625)"/>
       </defs>
       <use xlink:href="#DejaVuSans-35"/>
       <use x="63.623047" xlink:href="#DejaVuSans-30"/>
      </g>
     </g>
    </g>
    <g id="text_7">
     <!-- Global Communication Rounds -->
     <g transform="translate(128.448281 331.916562)scale(0.1 -0.1)">
      <defs>
       <path d="M 3809 666 
L 3809 1919 
L 2778 1919 
L 2778 2438 
L 4434 2438 
L 4434 434 
Q 4069 175 3628 42 
Q 3188 -91 2688 -91 
Q 1594 -91 976 548 
Q 359 1188 359 2328 
Q 359 3472 976 4111 
Q 1594 4750 2688 4750 
Q 3144 4750 3555 4637 
Q 3966 4525 4313 4306 
L 4313 3634 
Q 3963 3931 3569 4081 
Q 3175 4231 2741 4231 
Q 1884 4231 1454 3753 
Q 1025 3275 1025 2328 
Q 1025 1384 1454 906 
Q 1884 428 2741 428 
Q 3075 428 3337 486 
Q 3600 544 3809 666 
z
" id="DejaVuSans-47" transform="scale(0.015625)"/>
       <path d="M 603 4863 
L 1178 4863 
L 1178 0 
L 603 0 
L 603 4863 
z
" id="DejaVuSans-6c" transform="scale(0.015625)"/>
       <path d="M 1959 3097 
Q 1497 3097 1228 2736 
Q 959 2375 959 1747 
Q 959 1119 1226 758 
Q 1494 397 1959 397 
Q 2419 397 2687 759 
Q 2956 1122 2956 1747 
Q 2956 2369 2687 2733 
Q 2419 3097 1959 3097 
z
M 1959 3584 
Q 2709 3584 3137 3096 
Q 3566 2609 3566 1747 
Q 3566 888 3137 398 
Q 2709 -91 1959 -91 
Q 1206 -91 779 398 
Q 353 888 353 1747 
Q 353 2609 779 3096 
Q 1206 3584 1959 3584 
z
" id="DejaVuSans-6f" transform="scale(0.015625)"/>
       <path d="M 3116 1747 
Q 3116 2381 2855 2742 
Q 2594 3103 2138 3103 
Q 1681 3103 1420 2742 
Q 1159 2381 1159 1747 
Q 1159 1113 1420 752 
Q 1681 391 2138 391 
Q 2594 391 2855 752 
Q 3116 1113 3116 1747 
z
M 1159 2969 
Q 1341 3281 1617 3432 
Q 1894 3584 2278 3584 
Q 2916 3584 3314 3078 
Q 3713 2572 3713 1747 
Q 3713 922 3314 415 
Q 2916 -91 2278 -91 
Q 1894 -91 1617 61 
Q 1341 213 1159 525 
L 1159 0 
L 581 0 
L 581 4863 
L 1159 4863 
L 1159 2969 
z
" id="DejaVuSans-62" transform="scale(0.015625)"/>
       <path d="M 2194 1759 
Q 1497 1759 1228 1600 
Q 959 1441 959 1056 
Q 959 750 1161 570 
Q 1363 391 1709 391 
Q 2188 391 2477 730 
Q 2766 1069 2766 1631 
L 2766 1759 
L 2194 1759 
z
M 3341 1997 
L 3341 0 
L 2766 0 
L 2766 531 
Q 2569 213 2275 61 
Q 1981 -91 1556 -91 
Q 1019 -91 701 211 
Q 384 513 384 1019 
Q 384 1609 779 1909 
Q 1175 2209 1959 2209 
L 2766 2209 
L 2766 2266 
Q 2766 2663 2505 2880 
Q 2244 3097 1772 3097 
Q 1472 3097 1187 3025 
Q 903 2953 641 2809 
L 641 3341 
Q 956 3463 1253 3523 
Q 1550 3584 1831 3584 
Q 2591 3584 2966 3190 
Q 3341 2797 3341 1997 
z
" id="DejaVuSans-61" transform="scale(0.015625)"/>
       <path id="DejaVuSans-20" transform="scale(0.015625)"/>
       <path d="M 4122 4306 
L 4122 3641 
Q 3803 3938 3442 4084 
Q 3081 4231 2675 4231 
Q 1875 4231 1450 3742 
Q 1025 3253 1025 2328 
Q 1025 1406 1450 917 
Q 1875 428 2675 428 
Q 3081 428 3442 575 
Q 3803 722 4122 1019 
L 4122 359 
Q 3791 134 3420 21 
Q 3050 -91 2638 -91 
Q 1578 -91 968 557 
Q 359 1206 359 2328 
Q 359 3453 968 4101 
Q 1578 4750 2638 4750 
Q 3056 4750 3426 4639 
Q 3797 4528 4122 4306 
z
" id="DejaVuSans-43" transform="scale(0.015625)"/>
       <path d="M 3328 2828 
Q 3544 3216 3844 3400 
Q 4144 3584 4550 3584 
Q 5097 3584 5394 3201 
Q 5691 2819 5691 2113 
L 5691 0 
L 5113 0 
L 5113 2094 
Q 5113 2597 4934 2840 
Q 4756 3084 4391 3084 
Q 3944 3084 3684 2787 
Q 3425 2491 3425 1978 
L 3425 0 
L 2847 0 
L 2847 2094 
Q 2847 2600 2669 2842 
Q 2491 3084 2119 3084 
Q 1678 3084 1418 2786 
Q 1159 2488 1159 1978 
L 1159 0 
L 581 0 
L 581 3500 
L 1159 3500 
L 1159 2956 
Q 1356 3278 1631 3431 
Q 1906 3584 2284 3584 
Q 2666 3584 2933 3390 
Q 3200 3197 3328 2828 
z
" id="DejaVuSans-6d" transform="scale(0.015625)"/>
       <path d="M 544 1381 
L 544 3500 
L 1119 3500 
L 1119 1403 
Q 1119 906 1312 657 
Q 1506 409 1894 409 
Q 2359 409 2629 706 
Q 2900 1003 2900 1516 
L 2900 3500 
L 3475 3500 
L 3475 0 
L 2900 0 
L 2900 538 
Q 2691 219 2414 64 
Q 2138 -91 1772 -91 
Q 1169 -91 856 284 
Q 544 659 544 1381 
z
M 1991 3584 
L 1991 3584 
z
" id="DejaVuSans-75" transform="scale(0.015625)"/>
       <path d="M 3513 2113 
L 3513 0 
L 2938 0 
L 2938 2094 
Q 2938 2591 2744 2837 
Q 2550 3084 2163 3084 
Q 1697 3084 1428 2787 
Q 1159 2491 1159 1978 
L 1159 0 
L 581 0 
L 581 3500 
L 1159 3500 
L 1159 2956 
Q 1366 3272 1645 3428 
Q 1925 3584 2291 3584 
Q 2894 3584 3203 3211 
Q 3513 2838 3513 2113 
z
" id="DejaVuSans-6e" transform="scale(0.015625)"/>
       <path d="M 603 3500 
L 1178 3500 
L 1178 0 
L 603 0 
L 603 3500 
z
M 603 4863 
L 1178 4863 
L 1178 4134 
L 603 4134 
L 603 4863 
z
" id="DejaVuSans-69" transform="scale(0.015625)"/>
       <path d="M 3122 3366 
L 3122 2828 
Q 2878 2963 2633 3030 
Q 2388 3097 2138 3097 
Q 1578 3097 1268 2742 
Q 959 2388 959 1747 
Q 959 1106 1268 751 
Q 1578 397 2138 397 
Q 2388 397 2633 464 
Q 2878 531 3122 666 
L 3122 134 
Q 2881 22 2623 -34 
Q 2366 -91 2075 -91 
Q 1284 -91 818 406 
Q 353 903 353 1747 
Q 353 2603 823 3093 
Q 1294 3584 2113 3584 
Q 2378 3584 2631 3529 
Q 2884 3475 3122 3366 
z
" id="DejaVuSans-63" transform="scale(0.015625)"/>
       <path d="M 1172 4494 
L 1172 3500 
L 2356 3500 
L 2356 3053 
L 1172 3053 
L 1172 1153 
Q 1172 725 1289 603 
Q 1406 481 1766 481 
L 2356 481 
L 2356 0 
L 1766 0 
Q 1100 0 847 248 
Q 594 497 594 1153 
L 594 3053 
L 172 3053 
L 172 3500 
L 594 3500 
L 594 4494 
L 1172 4494 
z
" id="DejaVuSans-74" transform="scale(0.015625)"/>
       <path d="M 2841 2188 
Q 3044 2119 3236 1894 
Q 3428 1669 3622 1275 
L 4263 0 
L 3584 0 
L 2988 1197 
Q 2756 1666 2539 1819 
Q 2322 1972 1947 1972 
L 1259 1972 
L 1259 0 
L 628 0 
L 628 4666 
L 2053 4666 
Q 2853 4666 3247 4331 
Q 3641 3997 3641 3322 
Q 3641 2881 3436 2590 
Q 3231 2300 2841 2188 
z
M 1259 4147 
L 1259 2491 
L 2053 2491 
Q 2509 2491 2742 2702 
Q 2975 2913 2975 3322 
Q 2975 3731 2742 3939 
Q 2509 4147 2053 4147 
L 1259 4147 
z
" id="DejaVuSans-52" transform="scale(0.015625)"/>
       <path d="M 2906 2969 
L 2906 4863 
L 3481 4863 
L 3481 0 
L 2906 0 
L 2906 525 
Q 2725 213 2448 61 
Q 2172 -91 1784 -91 
Q 1150 -91 751 415 
Q 353 922 353 1747 
Q 353 2572 751 3078 
Q 1150 3584 1784 3584 
Q 2172 3584 2448 3432 
Q 2725 3281 2906 2969 
z
M 947 1747 
Q 947 1113 1208 752 
Q 1469 391 1925 391 
Q 2381 391 2643 752 
Q 2906 1113 2906 1747 
Q 2906 2381 2643 2742 
Q 2381 3103 1925 3103 
Q 1469 3103 1208 2742 
Q 947 2381 947 1747 
z
" id="DejaVuSans-64" transform="scale(0.015625)"/>
       <path d="M 2834 3397 
L 2834 2853 
Q 2591 2978 2328 3040 
Q 2066 3103 1784 3103 
Q 1356 3103 1142 2972 
Q 928 2841 928 2578 
Q 928 2378 1081 2264 
Q 1234 2150 1697 2047 
L 1894 2003 
Q 2506 1872 2764 1633 
Q 3022 1394 3022 966 
Q 3022 478 2636 193 
Q 2250 -91 1575 -91 
Q 1294 -91 989 -36 
Q 684 19 347 128 
L 347 722 
Q 666 556 975 473 
Q 1284 391 1588 391 
Q 1994 391 2212 530 
Q 2431 669 2431 922 
Q 2431 1156 2273 1281 
Q 2116 1406 1581 1522 
L 1381 1569 
Q 847 1681 609 1914 
Q 372 2147 372 2553 
Q 372 3047 722 3315 
Q 1072 3584 1716 3584 
Q 2034 3584 2315 3537 
Q 2597 3491 2834 3397 
z
" id="DejaVuSans-73" transform="scale(0.015625)"/>
      </defs>
      <use xlink:href="#DejaVuSans-47"/>
      <use x="77.490234" xlink:href="#DejaVuSans-6c"/>
      <use x="105.273438" xlink:href="#DejaVuSans-6f"/>
      <use x="166.455078" xlink:href="#DejaVuSans-62"/>
      <use x="229.931641" xlink:href="#DejaVuSans-61"/>
      <use x="291.210938" xlink:href="#DejaVuSans-6c"/>
      <use x="318.994141" xlink:href="#DejaVuSans-20"/>
      <use x="350.78125" xlink:href="#DejaVuSans-43"/>
      <use x="420.605469" xlink:href="#DejaVuSans-6f"/>
      <use x="481.787109" xlink:href="#DejaVuSans-6d"/>
      <use x="579.199219" xlink:href="#DejaVuSans-6d"/>
      <use x="676.611328" xlink:href="#DejaVuSans-75"/>
      <use x="739.990234" xlink:href="#DejaVuSans-6e"/>
      <use x="803.369141" xlink:href="#DejaVuSans-69"/>
      <use x="831.152344" xlink:href="#DejaVuSans-63"/>
      <use x="886.132812" xlink:href="#DejaVuSans-61"/>
      <use x="947.412109" xlink:href="#DejaVuSans-74"/>
      <use x="986.621094" xlink:href="#DejaVuSans-69"/>
      <use x="1014.404297" xlink:href="#DejaVuSans-6f"/>
      <use x="1075.585938" xlink:href="#DejaVuSans-6e"/>
      <use x="1138.964844" xlink:href="#DejaVuSans-20"/>
      <use x="1170.751953" xlink:href="#DejaVuSans-52"/>
      <use x="1235.734375" xlink:href="#DejaVuSans-6f"/>
      <use x="1296.916016" xlink:href="#DejaVuSans-75"/>
      <use x="1360.294922" xlink:href="#DejaVuSans-6e"/>
      <use x="1423.673828" xlink:href="#DejaVuSans-64"/>
      <use x="1487.150391" xlink:href="#DejaVuSans-73"/>
     </g>
    </g>
   </g>
   <g id="matplotlib.axis_2">
    <g id="ytick_1">
     <g id="line2d_13">
      <path clip-path="url(#pfc44835bae)" d="M 44.57 258.239479 
L 366.25 258.239479 
" style="fill:none;stroke:#b0b0b0;stroke-linecap:square;stroke-width:0.8;"/>
     </g>
     <g id="line2d_14">
      <defs>
       <path d="M 0 0 
L -3.5 0 
" id="m27239ca069" style="stroke:#000000;stroke-width:0.8;"/>
      </defs>
      <g>
       <use style="stroke:#000000;stroke-width:0.8;" x="44.57" xlink:href="#m27239ca069" y="258.239479"/>
      </g>
     </g>
     <g id="text_8">
      <!-- 80 -->
      <g transform="translate(24.845 262.038698)scale(0.1 -0.1)">
       <defs>
        <path d="M 2034 2216 
Q 1584 2216 1326 1975 
Q 1069 1734 1069 1313 
Q 1069 891 1326 650 
Q 1584 409 2034 409 
Q 2484 409 2743 651 
Q 3003 894 3003 1313 
Q 3003 1734 2745 1975 
Q 2488 2216 2034 2216 
z
M 1403 2484 
Q 997 2584 770 2862 
Q 544 3141 544 3541 
Q 544 4100 942 4425 
Q 1341 4750 2034 4750 
Q 2731 4750 3128 4425 
Q 3525 4100 3525 3541 
Q 3525 3141 3298 2862 
Q 3072 2584 2669 2484 
Q 3125 2378 3379 2068 
Q 3634 1759 3634 1313 
Q 3634 634 3220 271 
Q 2806 -91 2034 -91 
Q 1263 -91 848 271 
Q 434 634 434 1313 
Q 434 1759 690 2068 
Q 947 2378 1403 2484 
z
M 1172 3481 
Q 1172 3119 1398 2916 
Q 1625 2713 2034 2713 
Q 2441 2713 2670 2916 
Q 2900 3119 2900 3481 
Q 2900 3844 2670 4047 
Q 2441 4250 2034 4250 
Q 1625 4250 1398 4047 
Q 1172 3844 1172 3481 
z
" id="DejaVuSans-38" transform="scale(0.015625)"/>
       </defs>
       <use xlink:href="#DejaVuSans-38"/>
       <use x="63.623047" xlink:href="#DejaVuSans-30"/>
      </g>
     </g>
    </g>
    <g id="ytick_2">
     <g id="line2d_15">
      <path clip-path="url(#pfc44835bae)" d="M 44.57 198.10905 
L 366.25 198.10905 
" style="fill:none;stroke:#b0b0b0;stroke-linecap:square;stroke-width:0.8;"/>
     </g>
     <g id="line2d_16">
      <g>
       <use style="stroke:#000000;stroke-width:0.8;" x="44.57" xlink:href="#m27239ca069" y="198.10905"/>
      </g>
     </g>
     <g id="text_9">
      <!-- 85 -->
      <g transform="translate(24.845 201.908268)scale(0.1 -0.1)">
       <use xlink:href="#DejaVuSans-38"/>
       <use x="63.623047" xlink:href="#DejaVuSans-35"/>
      </g>
     </g>
    </g>
    <g id="ytick_3">
     <g id="line2d_17">
      <path clip-path="url(#pfc44835bae)" d="M 44.57 137.97862 
L 366.25 137.97862 
" style="fill:none;stroke:#b0b0b0;stroke-linecap:square;stroke-width:0.8;"/>
     </g>
     <g id="line2d_18">
      <g>
       <use style="stroke:#000000;stroke-width:0.8;" x="44.57" xlink:href="#m27239ca069" y="137.97862"/>
      </g>
     </g>
     <g id="text_10">
      <!-- 90 -->
      <g transform="translate(24.845 141.777838)scale(0.1 -0.1)">
       <defs>
        <path d="M 703 97 
L 703 672 
Q 941 559 1184 500 
Q 1428 441 1663 441 
Q 2288 441 2617 861 
Q 2947 1281 2994 2138 
Q 2813 1869 2534 1725 
Q 2256 1581 1919 1581 
Q 1219 1581 811 2004 
Q 403 2428 403 3163 
Q 403 3881 828 4315 
Q 1253 4750 1959 4750 
Q 2769 4750 3195 4129 
Q 3622 3509 3622 2328 
Q 3622 1225 3098 567 
Q 2575 -91 1691 -91 
Q 1453 -91 1209 -44 
Q 966 3 703 97 
z
M 1959 2075 
Q 2384 2075 2632 2365 
Q 2881 2656 2881 3163 
Q 2881 3666 2632 3958 
Q 2384 4250 1959 4250 
Q 1534 4250 1286 3958 
Q 1038 3666 1038 3163 
Q 1038 2656 1286 2365 
Q 1534 2075 1959 2075 
z
" id="DejaVuSans-39" transform="scale(0.015625)"/>
       </defs>
       <use xlink:href="#DejaVuSans-39"/>
       <use x="63.623047" xlink:href="#DejaVuSans-30"/>
      </g>
     </g>
    </g>
    <g id="ytick_4">
     <g id="line2d_19">
      <path clip-path="url(#pfc44835bae)" d="M 44.57 77.84819 
L 366.25 77.84819 
" style="fill:none;stroke:#b0b0b0;stroke-linecap:square;stroke-width:0.8;"/>
     </g>
     <g id="line2d_20">
      <g>
       <use style="stroke:#000000;stroke-width:0.8;" x="44.57" xlink:href="#m27239ca069" y="77.84819"/>
      </g>
     </g>
     <g id="text_11">
      <!-- 95 -->
      <g transform="translate(24.845 81.647409)scale(0.1 -0.1)">
       <use xlink:href="#DejaVuSans-39"/>
       <use x="63.623047" xlink:href="#DejaVuSans-35"/>
      </g>
     </g>
    </g>
    <g id="text_12">
     <!-- Test Accuracy -->
     <g transform="translate(18.765313 199.5225)rotate(-90)scale(0.1 -0.1)">
      <defs>
       <path d="M -19 4666 
L 3928 4666 
L 3928 4134 
L 2272 4134 
L 2272 0 
L 1638 0 
L 1638 4134 
L -19 4134 
L -19 4666 
z
" id="DejaVuSans-54" transform="scale(0.015625)"/>
       <path d="M 3597 1894 
L 3597 1613 
L 953 1613 
Q 991 1019 1311 708 
Q 1631 397 2203 397 
Q 2534 397 2845 478 
Q 3156 559 3463 722 
L 3463 178 
Q 3153 47 2828 -22 
Q 2503 -91 2169 -91 
Q 1331 -91 842 396 
Q 353 884 353 1716 
Q 353 2575 817 3079 
Q 1281 3584 2069 3584 
Q 2775 3584 3186 3129 
Q 3597 2675 3597 1894 
z
M 3022 2063 
Q 3016 2534 2758 2815 
Q 2500 3097 2075 3097 
Q 1594 3097 1305 2825 
Q 1016 2553 972 2059 
L 3022 2063 
z
" id="DejaVuSans-65" transform="scale(0.015625)"/>
       <path d="M 2188 4044 
L 1331 1722 
L 3047 1722 
L 2188 4044 
z
M 1831 4666 
L 2547 4666 
L 4325 0 
L 3669 0 
L 3244 1197 
L 1141 1197 
L 716 0 
L 50 0 
L 1831 4666 
z
" id="DejaVuSans-41" transform="scale(0.015625)"/>
       <path d="M 2631 2963 
Q 2534 3019 2420 3045 
Q 2306 3072 2169 3072 
Q 1681 3072 1420 2755 
Q 1159 2438 1159 1844 
L 1159 0 
L 581 0 
L 581 3500 
L 1159 3500 
L 1159 2956 
Q 1341 3275 1631 3429 
Q 1922 3584 2338 3584 
Q 2397 3584 2469 3576 
Q 2541 3569 2628 3553 
L 2631 2963 
z
" id="DejaVuSans-72" transform="scale(0.015625)"/>
       <path d="M 2059 -325 
Q 1816 -950 1584 -1140 
Q 1353 -1331 966 -1331 
L 506 -1331 
L 506 -850 
L 844 -850 
Q 1081 -850 1212 -737 
Q 1344 -625 1503 -206 
L 1606 56 
L 191 3500 
L 800 3500 
L 1894 763 
L 2988 3500 
L 3597 3500 
L 2059 -325 
z
" id="DejaVuSans-79" transform="scale(0.015625)"/>
      </defs>
      <use xlink:href="#DejaVuSans-54"/>
      <use x="44.083984" xlink:href="#DejaVuSans-65"/>
      <use x="105.607422" xlink:href="#DejaVuSans-73"/>
      <use x="157.707031" xlink:href="#DejaVuSans-74"/>
      <use x="196.916016" xlink:href="#DejaVuSans-20"/>
      <use x="228.703125" xlink:href="#DejaVuSans-41"/>
      <use x="295.361328" xlink:href="#DejaVuSans-63"/>
      <use x="350.341797" xlink:href="#DejaVuSans-63"/>
      <use x="405.322266" xlink:href="#DejaVuSans-75"/>
      <use x="468.701172" xlink:href="#DejaVuSans-72"/>
      <use x="509.814453" xlink:href="#DejaVuSans-61"/>
      <use x="571.09375" xlink:href="#DejaVuSans-63"/>
      <use x="626.074219" xlink:href="#DejaVuSans-79"/>
     </g>
    </g>
   </g>
   <g id="line2d_21">
    <path clip-path="url(#pfc44835bae)" d="M 59.191818 235.405139 
L 65.159907 124.886931 
L 71.127996 110.881869 
L 77.096085 101.748133 
L 83.064174 93.52777 
L 89.032263 91.092107 
L 95.000353 85.611866 
L 100.968442 81.349455 
L 106.936531 78.000419 
L 112.90462 72.520177 
L 118.872709 72.824635 
L 124.840798 71.911261 
L 130.808887 67.344393 
L 136.776976 66.735478 
L 142.745065 66.735478 
L 148.713154 60.950778 
L 154.681243 62.777525 
L 160.649332 58.819573 
L 166.617421 58.515115 
L 172.58551 59.732946 
L 178.553599 60.037404 
L 184.521688 59.124031 
L 190.489777 57.297283 
L 196.457866 57.601741 
L 202.425955 57.601741 
L 208.394045 56.688368 
L 214.362134 57.297283 
L 220.330223 54.557163 
L 226.298312 55.166078 
L 232.266401 56.688368 
L 238.23449 51.208126 
L 244.202579 52.425958 
L 250.170668 55.166078 
L 256.138757 55.470536 
L 262.106846 55.166078 
L 268.074935 50.903668 
L 274.043024 51.512584 
L 280.011113 50.903668 
L 285.979202 47.554632 
L 291.947291 49.685837 
L 297.91538 47.859089 
L 303.883469 48.163547 
L 309.851558 49.381379 
L 315.819647 48.163547 
L 321.787737 46.945716 
L 327.755826 48.772463 
L 333.723915 47.554632 
L 339.692004 46.641258 
L 345.660093 46.032342 
L 351.628182 48.163547 
" style="fill:none;stroke:#1f77b4;stroke-linecap:square;stroke-width:1.5;"/>
   </g>
   <g id="line2d_22">
    <path clip-path="url(#pfc44835bae)" d="M 59.191818 242.40767 
L 65.159907 137.065246 
L 71.127996 113.317532 
L 77.096085 109.664038 
L 83.064174 96.572349 
L 89.032263 92.005481 
L 95.000353 88.047529 
L 100.968442 82.871745 
L 106.936531 81.958371 
L 112.90462 76.478129 
L 118.872709 76.173672 
L 124.840798 76.478129 
L 130.808887 73.738009 
L 136.776976 70.084514 
L 142.745065 71.302346 
L 148.713154 66.126562 
L 154.681243 67.953309 
L 160.649332 64.90873 
L 166.617421 68.257767 
L 172.58551 66.43102 
L 178.553599 66.735478 
L 184.521688 65.213188 
L 190.489777 62.473067 
L 196.457866 65.822104 
L 202.425955 62.168609 
L 208.394045 61.559694 
L 214.362134 63.690899 
L 220.330223 60.950778 
L 226.298312 60.950778 
L 232.266401 60.64632 
L 238.23449 59.124031 
L 244.202579 57.906199 
L 250.170668 59.428489 
L 256.138757 60.037404 
L 262.106846 58.210657 
L 268.074935 59.124031 
L 274.043024 57.601741 
L 280.011113 59.428489 
L 285.979202 58.819573 
L 291.947291 57.601741 
L 297.91538 59.732946 
L 303.883469 58.819573 
L 309.851558 59.124031 
L 315.819647 59.732946 
L 321.787737 58.210657 
L 327.755826 58.515115 
L 333.723915 56.992826 
L 339.692004 56.38391 
L 345.660093 56.992826 
L 351.628182 58.515115 
" style="fill:none;stroke:#ff7f0e;stroke-linecap:square;stroke-width:1.5;"/>
   </g>
   <g id="line2d_23">
    <path clip-path="url(#pfc44835bae)" d="M 59.191818 214.702004 
L 65.159907 132.802836 
L 71.127996 112.708616 
L 77.096085 98.703554 
L 83.064174 96.876807 
L 89.032263 90.787649 
L 95.000353 85.916324 
L 100.968442 85.611866 
L 106.936531 78.304877 
L 112.90462 74.042466 
L 118.872709 74.651382 
L 124.840798 67.648851 
L 130.808887 71.911261 
L 136.776976 71.606803 
L 142.745065 69.475598 
L 148.713154 65.517646 
L 154.681243 64.90873 
L 160.649332 64.299815 
L 166.617421 62.777525 
L 172.58551 62.473067 
L 178.553599 60.341862 
L 184.521688 57.906199 
L 190.489777 58.515115 
L 196.457866 59.732946 
L 202.425955 61.559694 
L 208.394045 59.124031 
L 214.362134 61.864152 
L 220.330223 57.906199 
L 226.298312 56.992826 
L 232.266401 57.297283 
L 238.23449 57.297283 
L 244.202579 56.992826 
L 250.170668 54.86162 
L 256.138757 55.166078 
L 262.106846 54.557163 
L 268.074935 55.470536 
L 274.043024 53.034873 
L 280.011113 51.817042 
L 285.979202 52.425958 
L 291.947291 51.208126 
L 297.91538 52.1215 
L 303.883469 52.425958 
L 309.851558 50.294752 
L 315.819647 49.990295 
L 321.787737 49.685837 
L 327.755826 48.772463 
L 333.723915 48.163547 
L 339.692004 49.990295 
L 345.660093 49.990295 
L 351.628182 46.3368 
" style="fill:none;stroke:#2ca02c;stroke-linecap:square;stroke-width:1.5;"/>
   </g>
   <g id="line2d_24">
    <path clip-path="url(#pfc44835bae)" d="M 59.191818 234.427829 
L 65.159907 138.86855 
L 71.127996 125.639856 
L 77.096085 113.204883 
L 83.064174 106.782953 
L 89.032263 100.577492 
L 95.000353 95.79111 
L 100.968442 92.13518 
L 106.936531 90.13885 
L 112.90462 87.012067 
L 118.872709 85.977824 
L 124.840798 83.596659 
L 130.808887 81.888955 
L 136.776976 80.445824 
L 142.745065 79.724259 
L 148.713154 78.473546 
L 154.681243 77.751981 
L 160.649332 77.559564 
L 166.617421 76.52532 
L 172.58551 75.178399 
L 178.553599 75.418921 
L 184.521688 74.937877 
L 190.489777 74.601147 
L 196.457866 74.74546 
L 202.425955 75.322712 
L 208.394045 74.144155 
L 214.362134 73.687164 
L 220.330223 73.446642 
L 226.298312 73.470695 
L 232.266401 74.120103 
L 238.23449 73.518799 
L 244.202579 73.158016 
L 250.170668 73.109912 
L 256.138757 73.037755 
L 262.106846 73.133964 
L 268.074935 73.42259 
L 274.043024 73.109912 
L 280.011113 73.206121 
L 285.979202 72.989651 
L 291.947291 72.53266 
L 297.91538 72.893442 
L 303.883469 72.845338 
L 309.851558 72.676973 
L 315.819647 72.628869 
L 321.787737 72.797234 
L 327.755826 72.53266 
L 333.723915 72.268086 
L 339.692004 72.340243 
L 345.660093 72.388347 
L 351.628182 72.53266 
" style="fill:none;stroke:#d62728;stroke-linecap:square;stroke-width:1.5;"/>
   </g>
   <g id="patch_3">
    <path d="M 44.57 303.64 
L 44.57 26.88 
" style="fill:none;stroke:#000000;stroke-linecap:square;stroke-linejoin:miter;stroke-width:0.8;"/>
   </g>
   <g id="patch_4">
    <path d="M 366.25 303.64 
L 366.25 26.88 
" style="fill:none;stroke:#000000;stroke-linecap:square;stroke-linejoin:miter;stroke-width:0.8;"/>
   </g>
   <g id="patch_5">
    <path d="M 44.57 303.64 
L 366.25 303.64 
" style="fill:none;stroke:#000000;stroke-linecap:square;stroke-linejoin:miter;stroke-width:0.8;"/>
   </g>
   <g id="patch_6">
    <path d="M 44.57 26.88 
L 366.25 26.88 
" style="fill:none;stroke:#000000;stroke-linecap:square;stroke-linejoin:miter;stroke-width:0.8;"/>
   </g>
   <g id="text_13">
    <!-- MNIST Local Rounds 01 -->
    <g transform="translate(135.482812 20.88)scale(0.12 -0.12)">
     <defs>
      <path d="M 628 4666 
L 1569 4666 
L 2759 1491 
L 3956 4666 
L 4897 4666 
L 4897 0 
L 4281 0 
L 4281 4097 
L 3078 897 
L 2444 897 
L 1241 4097 
L 1241 0 
L 628 0 
L 628 4666 
z
" id="DejaVuSans-4d" transform="scale(0.015625)"/>
      <path d="M 628 4666 
L 1478 4666 
L 3547 763 
L 3547 4666 
L 4159 4666 
L 4159 0 
L 3309 0 
L 1241 3903 
L 1241 0 
L 628 0 
L 628 4666 
z
" id="DejaVuSans-4e" transform="scale(0.015625)"/>
      <path d="M 628 4666 
L 1259 4666 
L 1259 0 
L 628 0 
L 628 4666 
z
" id="DejaVuSans-49" transform="scale(0.015625)"/>
      <path d="M 3425 4513 
L 3425 3897 
Q 3066 4069 2747 4153 
Q 2428 4238 2131 4238 
Q 1616 4238 1336 4038 
Q 1056 3838 1056 3469 
Q 1056 3159 1242 3001 
Q 1428 2844 1947 2747 
L 2328 2669 
Q 3034 2534 3370 2195 
Q 3706 1856 3706 1288 
Q 3706 609 3251 259 
Q 2797 -91 1919 -91 
Q 1588 -91 1214 -16 
Q 841 59 441 206 
L 441 856 
Q 825 641 1194 531 
Q 1563 422 1919 422 
Q 2459 422 2753 634 
Q 3047 847 3047 1241 
Q 3047 1584 2836 1778 
Q 2625 1972 2144 2069 
L 1759 2144 
Q 1053 2284 737 2584 
Q 422 2884 422 3419 
Q 422 4038 858 4394 
Q 1294 4750 2059 4750 
Q 2388 4750 2728 4690 
Q 3069 4631 3425 4513 
z
" id="DejaVuSans-53" transform="scale(0.015625)"/>
      <path d="M 628 4666 
L 1259 4666 
L 1259 531 
L 3531 531 
L 3531 0 
L 628 0 
L 628 4666 
z
" id="DejaVuSans-4c" transform="scale(0.015625)"/>
     </defs>
     <use xlink:href="#DejaVuSans-4d"/>
     <use x="86.279297" xlink:href="#DejaVuSans-4e"/>
     <use x="161.083984" xlink:href="#DejaVuSans-49"/>
     <use x="190.576172" xlink:href="#DejaVuSans-53"/>
     <use x="254.052734" xlink:href="#DejaVuSans-54"/>
     <use x="315.136719" xlink:href="#DejaVuSans-20"/>
     <use x="346.923828" xlink:href="#DejaVuSans-4c"/>
     <use x="400.886719" xlink:href="#DejaVuSans-6f"/>
     <use x="462.068359" xlink:href="#DejaVuSans-63"/>
     <use x="517.048828" xlink:href="#DejaVuSans-61"/>
     <use x="578.328125" xlink:href="#DejaVuSans-6c"/>
     <use x="606.111328" xlink:href="#DejaVuSans-20"/>
     <use x="637.898438" xlink:href="#DejaVuSans-52"/>
     <use x="702.880859" xlink:href="#DejaVuSans-6f"/>
     <use x="764.0625" xlink:href="#DejaVuSans-75"/>
     <use x="827.441406" xlink:href="#DejaVuSans-6e"/>
     <use x="890.820312" xlink:href="#DejaVuSans-64"/>
     <use x="954.296875" xlink:href="#DejaVuSans-73"/>
     <use x="1006.396484" xlink:href="#DejaVuSans-20"/>
     <use x="1038.183594" xlink:href="#DejaVuSans-30"/>
     <use x="1101.806641" xlink:href="#DejaVuSans-31"/>
    </g>
   </g>
   <g id="legend_1">
    <g id="patch_7">
     <path d="M 373.25 196.11625 
L 447.821875 196.11625 
Q 449.821875 196.11625 449.821875 194.11625 
L 449.821875 136.40375 
Q 449.821875 134.40375 447.821875 134.40375 
L 373.25 134.40375 
Q 371.25 134.40375 371.25 136.40375 
L 371.25 194.11625 
Q 371.25 196.11625 373.25 196.11625 
z
" style="fill:#ffffff;opacity:0.8;stroke:#cccccc;stroke-linejoin:miter;"/>
    </g>
    <g id="line2d_25">
     <path d="M 375.25 142.502187 
L 395.25 142.502187 
" style="fill:none;stroke:#1f77b4;stroke-linecap:square;stroke-width:1.5;"/>
    </g>
    <g id="line2d_26"/>
    <g id="text_14">
     <!-- FedAvg -->
     <g transform="translate(403.25 146.002187)scale(0.1 -0.1)">
      <defs>
       <path d="M 628 4666 
L 3309 4666 
L 3309 4134 
L 1259 4134 
L 1259 2759 
L 3109 2759 
L 3109 2228 
L 1259 2228 
L 1259 0 
L 628 0 
L 628 4666 
z
" id="DejaVuSans-46" transform="scale(0.015625)"/>
       <path d="M 191 3500 
L 800 3500 
L 1894 563 
L 2988 3500 
L 3597 3500 
L 2284 0 
L 1503 0 
L 191 3500 
z
" id="DejaVuSans-76" transform="scale(0.015625)"/>
       <path d="M 2906 1791 
Q 2906 2416 2648 2759 
Q 2391 3103 1925 3103 
Q 1463 3103 1205 2759 
Q 947 2416 947 1791 
Q 947 1169 1205 825 
Q 1463 481 1925 481 
Q 2391 481 2648 825 
Q 2906 1169 2906 1791 
z
M 3481 434 
Q 3481 -459 3084 -895 
Q 2688 -1331 1869 -1331 
Q 1566 -1331 1297 -1286 
Q 1028 -1241 775 -1147 
L 775 -588 
Q 1028 -725 1275 -790 
Q 1522 -856 1778 -856 
Q 2344 -856 2625 -561 
Q 2906 -266 2906 331 
L 2906 616 
Q 2728 306 2450 153 
Q 2172 0 1784 0 
Q 1141 0 747 490 
Q 353 981 353 1791 
Q 353 2603 747 3093 
Q 1141 3584 1784 3584 
Q 2172 3584 2450 3431 
Q 2728 3278 2906 2969 
L 2906 3500 
L 3481 3500 
L 3481 434 
z
" id="DejaVuSans-67" transform="scale(0.015625)"/>
      </defs>
      <use xlink:href="#DejaVuSans-46"/>
      <use x="52.019531" xlink:href="#DejaVuSans-65"/>
      <use x="113.542969" xlink:href="#DejaVuSans-64"/>
      <use x="177.019531" xlink:href="#DejaVuSans-41"/>
      <use x="239.552734" xlink:href="#DejaVuSans-76"/>
      <use x="298.732422" xlink:href="#DejaVuSans-67"/>
     </g>
    </g>
    <g id="line2d_27">
     <path d="M 375.25 157.180312 
L 395.25 157.180312 
" style="fill:none;stroke:#ff7f0e;stroke-linecap:square;stroke-width:1.5;"/>
    </g>
    <g id="line2d_28"/>
    <g id="text_15">
     <!-- FedMed -->
     <g transform="translate(403.25 160.680312)scale(0.1 -0.1)">
      <use xlink:href="#DejaVuSans-46"/>
      <use x="52.019531" xlink:href="#DejaVuSans-65"/>
      <use x="113.542969" xlink:href="#DejaVuSans-64"/>
      <use x="177.019531" xlink:href="#DejaVuSans-4d"/>
      <use x="263.298828" xlink:href="#DejaVuSans-65"/>
      <use x="324.822266" xlink:href="#DejaVuSans-64"/>
     </g>
    </g>
    <g id="line2d_29">
     <path d="M 375.25 171.858437 
L 395.25 171.858437 
" style="fill:none;stroke:#2ca02c;stroke-linecap:square;stroke-width:1.5;"/>
    </g>
    <g id="line2d_30"/>
    <g id="text_16">
     <!-- FedProx -->
     <g transform="translate(403.25 175.358437)scale(0.1 -0.1)">
      <defs>
       <path d="M 1259 4147 
L 1259 2394 
L 2053 2394 
Q 2494 2394 2734 2622 
Q 2975 2850 2975 3272 
Q 2975 3691 2734 3919 
Q 2494 4147 2053 4147 
L 1259 4147 
z
M 628 4666 
L 2053 4666 
Q 2838 4666 3239 4311 
Q 3641 3956 3641 3272 
Q 3641 2581 3239 2228 
Q 2838 1875 2053 1875 
L 1259 1875 
L 1259 0 
L 628 0 
L 628 4666 
z
" id="DejaVuSans-50" transform="scale(0.015625)"/>
       <path d="M 3513 3500 
L 2247 1797 
L 3578 0 
L 2900 0 
L 1881 1375 
L 863 0 
L 184 0 
L 1544 1831 
L 300 3500 
L 978 3500 
L 1906 2253 
L 2834 3500 
L 3513 3500 
z
" id="DejaVuSans-78" transform="scale(0.015625)"/>
      </defs>
      <use xlink:href="#DejaVuSans-46"/>
      <use x="52.019531" xlink:href="#DejaVuSans-65"/>
      <use x="113.542969" xlink:href="#DejaVuSans-64"/>
      <use x="177.019531" xlink:href="#DejaVuSans-50"/>
      <use x="235.572266" xlink:href="#DejaVuSans-72"/>
      <use x="274.435547" xlink:href="#DejaVuSans-6f"/>
      <use x="332.492188" xlink:href="#DejaVuSans-78"/>
     </g>
    </g>
    <g id="line2d_31">
     <path d="M 375.25 186.536563 
L 395.25 186.536563 
" style="fill:none;stroke:#d62728;stroke-linecap:square;stroke-width:1.5;"/>
    </g>
    <g id="line2d_32"/>
    <g id="text_17">
     <!-- qFedAvg -->
     <g transform="translate(403.25 190.036563)scale(0.1 -0.1)">
      <defs>
       <path d="M 947 1747 
Q 947 1113 1208 752 
Q 1469 391 1925 391 
Q 2381 391 2643 752 
Q 2906 1113 2906 1747 
Q 2906 2381 2643 2742 
Q 2381 3103 1925 3103 
Q 1469 3103 1208 2742 
Q 947 2381 947 1747 
z
M 2906 525 
Q 2725 213 2448 61 
Q 2172 -91 1784 -91 
Q 1150 -91 751 415 
Q 353 922 353 1747 
Q 353 2572 751 3078 
Q 1150 3584 1784 3584 
Q 2172 3584 2448 3432 
Q 2725 3281 2906 2969 
L 2906 3500 
L 3481 3500 
L 3481 -1331 
L 2906 -1331 
L 2906 525 
z
" id="DejaVuSans-71" transform="scale(0.015625)"/>
      </defs>
      <use xlink:href="#DejaVuSans-71"/>
      <use x="63.476562" xlink:href="#DejaVuSans-46"/>
      <use x="115.496094" xlink:href="#DejaVuSans-65"/>
      <use x="177.019531" xlink:href="#DejaVuSans-64"/>
      <use x="240.496094" xlink:href="#DejaVuSans-41"/>
      <use x="303.029297" xlink:href="#DejaVuSans-76"/>
      <use x="362.208984" xlink:href="#DejaVuSans-67"/>
     </g>
    </g>
   </g>
  </g>
 </g>
 <defs>
  <clipPath id="pfc44835bae">
   <rect height="276.76" width="321.68" x="44.57" y="26.88"/>
  </clipPath>
 </defs>
</svg>
