<?xml version="1.0" encoding="utf-8" standalone="no"?>
<!DOCTYPE svg PUBLIC "-//W3C//DTD SVG 1.1//EN"
  "http://www.w3.org/Graphics/SVG/1.1/DTD/svg11.dtd">
<svg height="432pt" version="1.1" viewBox="0 0 576 432" width="576pt" xmlns="http://www.w3.org/2000/svg" xmlns:xlink="http://www.w3.org/1999/xlink">
 <metadata>
  <rdf:RDF xmlns:cc="http://creativecommons.org/ns#" xmlns:dc="http://purl.org/dc/elements/1.1/" xmlns:rdf="http://www.w3.org/1999/02/22-rdf-syntax-ns#">
   <cc:Work>
    <dc:type rdf:resource="http://purl.org/dc/dcmitype/StillImage"/>
    <dc:date>2021-05-07T22:04:29.850414</dc:date>
    <dc:format>image/svg+xml</dc:format>
    <dc:creator>
     <cc:Agent>
      <dc:title>Matplotlib v3.4.1, https://matplotlib.org/</dc:title>
     </cc:Agent>
    </dc:creator>
   </cc:Work>
  </rdf:RDF>
 </metadata>
 <defs>
  <style type="text/css">*{stroke-linecap:butt;stroke-linejoin:round;}</style>
 </defs>
 <g id="figure_1">
  <g id="patch_1">
   <path d="M 0 432 
L 576 432 
L 576 0 
L 0 0 
z
" style="fill:#ffffff;"/>
  </g>
  <g id="axes_1">
   <g id="patch_2">
    <path d="M 60.77 376 
L 556.505 376 
L 556.505 56.601989 
L 60.77 56.601989 
z
" style="fill:#ffffff;"/>
   </g>
   <g id="PolyCollection_1">
    <path clip-path="url(#p9a9a67f39c)" d="M 83.303409 133.320277 
L 83.303409 269.601228 
L 92.500719 132.25765 
L 101.698029 125.567978 
L 110.895339 120.127034 
L 120.092648 116.304567 
L 129.289958 111.400004 
L 138.487268 110.002148 
L 147.684578 108.324766 
L 156.881888 103.587309 
L 166.079198 98.440215 
L 175.276507 99.710046 
L 184.473817 101.449462 
L 193.671127 98.760934 
L 202.868437 95.454261 
L 212.065747 98.063206 
L 221.263057 95.586385 
L 230.460366 99.257398 
L 239.657676 94.722628 
L 248.854986 92.122285 
L 258.052296 91.454213 
L 267.249606 92.507087 
L 276.446916 91.262344 
L 285.644225 90.709208 
L 294.841535 90.035301 
L 304.038845 90.394353 
L 313.236155 87.478046 
L 322.433465 88.182227 
L 331.630775 89.469409 
L 340.828084 87.790269 
L 350.025394 88.578423 
L 359.222704 84.986008 
L 368.420014 87.658747 
L 377.617324 87.103854 
L 386.814634 85.156031 
L 396.011943 87.16083 
L 405.209253 85.47675 
L 414.406563 84.00787 
L 423.603873 85.413523 
L 432.801183 81.640781 
L 441.998493 82.035745 
L 451.195802 81.599685 
L 460.393112 82.724995 
L 469.590422 82.365653 
L 478.787732 78.433593 
L 487.985042 82.248183 
L 497.182352 79.614253 
L 506.379661 77.663306 
L 515.576971 80.260813 
L 524.774281 80.549775 
L 533.971591 78.13708 
L 533.971591 74.623781 
L 533.971591 74.623781 
L 524.774281 76.701149 
L 515.576971 76.990111 
L 506.379661 73.81468 
L 497.182352 71.863733 
L 487.985042 75.644179 
L 478.787732 71.12008 
L 469.590422 74.88527 
L 460.393112 78.374554 
L 451.195802 75.651238 
L 441.998493 77.780929 
L 432.801183 74.327268 
L 423.603873 79.534651 
L 414.406563 79.657429 
L 405.209253 75.622799 
L 396.011943 76.504469 
L 386.814634 75.30208 
L 377.617324 75.920008 
L 368.420014 77.930865 
L 359.222704 77.396416 
L 350.025394 78.935502 
L 340.828084 80.365093 
L 331.630775 79.327391 
L 322.433465 81.897448 
L 313.236155 81.960191 
L 304.038845 84.175385 
L 294.841535 82.610124 
L 285.644225 83.860529 
L 276.446916 83.948831 
L 267.249606 83.345526 
L 258.052296 86.322712 
L 248.854986 84.371765 
L 239.657676 86.261485 
L 230.460366 87.499653 
L 221.263057 87.32204 
L 212.065747 86.769532 
L 202.868437 92.585665 
L 193.671127 94.410493 
L 184.473817 95.57059 
L 175.276507 97.310006 
L 166.079198 94.089774 
L 156.881888 99.847118 
L 147.684578 102.806912 
L 138.487268 100.488092 
L 129.289958 102.938862 
L 120.092648 111.504487 
L 110.895339 112.813521 
L 101.698029 120.201327 
L 92.500719 125.057531 
L 83.303409 133.320277 
z
" style="fill:#1f77b4;fill-opacity:0.5;"/>
   </g>
   <g id="PolyCollection_2">
    <path clip-path="url(#p9a9a67f39c)" d="M 83.303409 130.137982 
L 83.303409 335.644402 
L 92.500719 141.633571 
L 101.698029 130.03528 
L 110.895339 124.711261 
L 120.092648 116.342735 
L 129.289958 115.445981 
L 138.487268 110.882021 
L 147.684578 109.154972 
L 156.881888 104.538884 
L 166.079198 101.098569 
L 175.276507 102.446406 
L 184.473817 100.268628 
L 193.671127 101.373528 
L 202.868437 99.191245 
L 212.065747 97.611384 
L 221.263057 95.776612 
L 230.460366 100.271213 
L 239.657676 99.246736 
L 248.854986 96.562746 
L 258.052296 94.740762 
L 267.249606 94.570893 
L 276.446916 92.824842 
L 285.644225 96.787362 
L 294.841535 95.284965 
L 304.038845 96.029747 
L 313.236155 95.076933 
L 322.433465 91.399996 
L 331.630775 94.256154 
L 340.828084 93.512075 
L 350.025394 95.329472 
L 359.222704 91.246612 
L 368.420014 93.670872 
L 377.617324 91.97658 
L 386.814634 91.701272 
L 396.011943 91.638895 
L 405.209253 89.92998 
L 414.406563 87.478046 
L 423.603873 89.043471 
L 432.801183 90.372986 
L 441.998493 89.186214 
L 451.195802 89.830535 
L 460.393112 87.478046 
L 469.590422 91.496268 
L 478.787732 90.463684 
L 487.985042 85.932183 
L 497.182352 84.229104 
L 506.379661 88.341839 
L 515.576971 88.143458 
L 524.774281 85.478132 
L 533.971591 87.439877 
L 533.971591 82.639798 
L 533.971591 82.639798 
L 524.774281 80.11148 
L 515.576971 81.294779 
L 506.379661 81.737835 
L 497.182352 81.360508 
L 487.985042 81.581742 
L 478.787732 79.615991 
L 469.590422 79.224845 
L 460.393112 81.960191 
L 451.195802 79.607702 
L 441.998493 80.252023 
L 432.801183 80.989564 
L 423.603873 84.243392 
L 414.406563 81.960191 
L 405.209253 82.074007 
L 396.011943 84.213718 
L 386.814634 84.792778 
L 377.617324 82.593158 
L 368.420014 82.823178 
L 359.222704 82.040251 
L 350.025394 87.578953 
L 340.828084 84.906288 
L 331.630775 80.955021 
L 322.433465 87.659804 
L 313.236155 88.47293 
L 304.038845 87.520116 
L 294.841535 89.547773 
L 285.644225 87.403939 
L 276.446916 86.876395 
L 267.249606 88.97897 
L 258.052296 86.884789 
L 248.854986 87.628555 
L 239.657676 89.434628 
L 230.460366 90.9759 
L 221.263057 92.263314 
L 212.065747 91.069979 
L 202.868437 93.980182 
L 193.671127 92.439336 
L 184.473817 95.468549 
L 175.276507 96.497959 
L 166.079198 96.56292 
L 156.881888 98.254105 
L 147.684578 100.69383 
L 138.487268 103.456845 
L 129.289958 107.231572 
L 120.092648 110.824881 
L 110.895339 118.492294 
L 101.698029 123.431276 
L 92.500719 124.020298 
L 83.303409 130.137982 
z
" style="fill:#ff7f0e;fill-opacity:0.5;"/>
   </g>
   <g id="PolyCollection_3">
    <path clip-path="url(#p9a9a67f39c)" d="M 83.303409 160.505947 
L 83.303409 169.933115 
L 92.500719 136.449655 
L 101.698029 130.053583 
L 110.895339 121.825299 
L 120.092648 117.634082 
L 129.289958 111.018058 
L 138.487268 108.324766 
L 147.684578 104.282964 
L 156.881888 102.625153 
L 166.079198 101.699341 
L 175.276507 100.61902 
L 184.473817 99.119064 
L 193.671127 98.985753 
L 202.868437 97.912055 
L 212.065747 94.899264 
L 221.263057 95.944276 
L 230.460366 95.826652 
L 239.657676 93.430571 
L 248.854986 93.145561 
L 258.052296 93.916396 
L 267.249606 91.657308 
L 276.446916 90.96583 
L 285.644225 91.477006 
L 294.841535 90.203095 
L 304.038845 90.96583 
L 313.236155 89.432196 
L 322.433465 93.277302 
L 331.630775 89.760111 
L 340.828084 89.139371 
L 350.025394 86.643431 
L 359.222704 87.429029 
L 368.420014 88.038067 
L 377.617324 86.552924 
L 386.814634 86.362494 
L 396.011943 85.919138 
L 405.209253 87.439877 
L 414.406563 86.155049 
L 423.603873 86.836608 
L 432.801183 87.605588 
L 441.998493 86.041775 
L 451.195802 85.932183 
L 460.393112 87.790269 
L 469.590422 85.127592 
L 478.787732 83.436243 
L 487.985042 82.474087 
L 497.182352 85.45537 
L 506.379661 82.711951 
L 515.576971 82.62551 
L 524.774281 84.628611 
L 533.971591 85.583571 
L 533.971591 79.364603 
L 533.971591 79.364603 
L 524.774281 79.036688 
L 515.576971 79.756914 
L 506.379661 80.311911 
L 497.182352 78.851366 
L 487.985042 77.342587 
L 478.787732 80.870493 
L 469.590422 79.179145 
L 460.393112 80.365093 
L 451.195802 81.581742 
L 441.998493 80.830712 
L 432.801183 81.191212 
L 423.603873 81.318754 
L 414.406563 82.641751 
L 405.209253 82.639798 
L 396.011943 83.519099 
L 386.814634 81.151431 
L 377.617324 80.961001 
L 368.420014 83.324483 
L 359.222704 85.857834 
L 350.025394 84.077681 
L 340.828084 84.788929 
L 331.630775 84.168189 
L 322.433465 83.216748 
L 313.236155 83.213229 
L 304.038845 87.452532 
L 294.841535 86.932393 
L 285.644225 86.941357 
L 276.446916 87.452532 
L 267.249606 87.402492 
L 258.052296 87.067717 
L 248.854986 87.197114 
L 239.657676 91.402167 
L 230.460366 91.571837 
L 221.263057 93.378525 
L 212.065747 92.499224 
L 202.868437 90.769309 
L 193.671127 94.185674 
L 184.473817 95.976675 
L 175.276507 93.193844 
L 166.079198 95.962149 
L 156.881888 98.884962 
L 147.684578 99.151463 
L 138.487268 102.806912 
L 129.289958 103.320807 
L 120.092648 108.250659 
L 110.895339 112.398131 
L 101.698029 120.847222 
L 92.500719 129.845652 
L 83.303409 160.505947 
z
" style="fill:#2ca02c;fill-opacity:0.5;"/>
   </g>
   <g id="PolyCollection_4">
    <path clip-path="url(#p9a9a67f39c)" d="M 83.303409 312.777942 
L 83.303409 361.481909 
L 92.500719 212.858979 
L 101.698029 181.863387 
L 110.895339 169.037914 
L 120.092648 162.67178 
L 129.289958 157.45263 
L 138.487268 153.516928 
L 147.684578 150.45466 
L 156.881888 146.623203 
L 166.079198 144.097294 
L 175.276507 142.215079 
L 184.473817 140.214489 
L 193.671127 138.539184 
L 202.868437 136.431599 
L 212.065747 134.56625 
L 221.263057 133.543588 
L 230.460366 131.891717 
L 239.657676 130.124744 
L 248.854986 128.81736 
L 258.052296 127.313603 
L 267.249606 126.11249 
L 276.446916 124.575098 
L 285.644225 123.553465 
L 294.841535 122.260887 
L 304.038845 121.572653 
L 313.236155 120.778417 
L 322.433465 119.956145 
L 331.630775 119.283379 
L 340.828084 118.646794 
L 350.025394 117.912487 
L 359.222704 117.5812 
L 368.420014 117.184685 
L 377.617324 116.762098 
L 386.814634 116.123093 
L 396.011943 115.758221 
L 405.209253 115.168743 
L 414.406563 114.7277 
L 423.603873 114.473228 
L 432.801183 114.279793 
L 441.998493 114.056216 
L 451.195802 113.518918 
L 460.393112 113.574522 
L 469.590422 112.883739 
L 478.787732 112.189716 
L 487.985042 111.686241 
L 497.182352 111.716379 
L 506.379661 111.562399 
L 515.576971 111.703865 
L 524.774281 111.040722 
L 533.971591 110.970778 
L 533.971591 108.84853 
L 533.971591 108.84853 
L 524.774281 108.930607 
L 515.576971 108.976893 
L 506.379661 109.473074 
L 497.182352 109.572462 
L 487.985042 109.551927 
L 478.787732 109.605861 
L 469.590422 109.823962 
L 460.393112 110.146651 
L 451.195802 110.252929 
L 441.998493 110.881122 
L 432.801183 111.113607 
L 423.603873 111.426908 
L 414.406563 112.033886 
L 405.209253 112.2516 
L 396.011943 113.182329 
L 386.814634 112.86813 
L 377.617324 113.293271 
L 368.420014 114.137522 
L 359.222704 114.551785 
L 350.025394 115.233969 
L 340.828084 116.273236 
L 331.630775 117.106185 
L 322.433465 117.497563 
L 313.236155 118.094152 
L 304.038845 118.465408 
L 294.841535 119.044013 
L 285.644225 120.133093 
L 276.446916 120.631666 
L 267.249606 121.779974 
L 258.052296 122.808498 
L 248.854986 124.243807 
L 239.657676 125.571449 
L 230.460366 127.148931 
L 221.263057 128.689494 
L 212.065747 130.453879 
L 202.868437 131.679618 
L 193.671127 133.575244 
L 184.473817 135.497762 
L 175.276507 136.58826 
L 166.079198 138.455889 
L 156.881888 140.794642 
L 147.684578 143.14536 
L 138.487268 146.062573 
L 129.289958 150.48801 
L 120.092648 154.390101 
L 110.895339 159.324173 
L 101.698029 170.112582 
L 92.500719 198.455736 
L 83.303409 312.777942 
z
" style="fill:#d62728;fill-opacity:0.5;"/>
   </g>
   <g id="matplotlib.axis_1">
    <g id="xtick_1">
     <g id="line2d_1">
      <defs>
       <path d="M 0 0 
L 0 3.5 
" id="m4af2bd7c87" style="stroke:#000000;stroke-width:0.8;"/>
      </defs>
      <g>
       <use style="stroke:#000000;stroke-width:0.8;" x="83.303409" xlink:href="#m4af2bd7c87" y="376"/>
      </g>
     </g>
     <g id="text_1">
      <!-- 0 -->
      <g transform="translate(78.531534 394.397656)scale(0.15 -0.15)">
       <defs>
        <path d="M 2034 4250 
Q 1547 4250 1301 3770 
Q 1056 3291 1056 2328 
Q 1056 1369 1301 889 
Q 1547 409 2034 409 
Q 2525 409 2770 889 
Q 3016 1369 3016 2328 
Q 3016 3291 2770 3770 
Q 2525 4250 2034 4250 
z
M 2034 4750 
Q 2819 4750 3233 4129 
Q 3647 3509 3647 2328 
Q 3647 1150 3233 529 
Q 2819 -91 2034 -91 
Q 1250 -91 836 529 
Q 422 1150 422 2328 
Q 422 3509 836 4129 
Q 1250 4750 2034 4750 
z
" id="DejaVuSans-30" transform="scale(0.015625)"/>
       </defs>
       <use xlink:href="#DejaVuSans-30"/>
      </g>
     </g>
    </g>
    <g id="xtick_2">
     <g id="line2d_2">
      <g>
       <use style="stroke:#000000;stroke-width:0.8;" x="175.276507" xlink:href="#m4af2bd7c87" y="376"/>
      </g>
     </g>
     <g id="text_2">
      <!-- 10 -->
      <g transform="translate(165.732757 394.397656)scale(0.15 -0.15)">
       <defs>
        <path d="M 794 531 
L 1825 531 
L 1825 4091 
L 703 3866 
L 703 4441 
L 1819 4666 
L 2450 4666 
L 2450 531 
L 3481 531 
L 3481 0 
L 794 0 
L 794 531 
z
" id="DejaVuSans-31" transform="scale(0.015625)"/>
       </defs>
       <use xlink:href="#DejaVuSans-31"/>
       <use x="63.623047" xlink:href="#DejaVuSans-30"/>
      </g>
     </g>
    </g>
    <g id="xtick_3">
     <g id="line2d_3">
      <g>
       <use style="stroke:#000000;stroke-width:0.8;" x="267.249606" xlink:href="#m4af2bd7c87" y="376"/>
      </g>
     </g>
     <g id="text_3">
      <!-- 20 -->
      <g transform="translate(257.705856 394.397656)scale(0.15 -0.15)">
       <defs>
        <path d="M 1228 531 
L 3431 531 
L 3431 0 
L 469 0 
L 469 531 
Q 828 903 1448 1529 
Q 2069 2156 2228 2338 
Q 2531 2678 2651 2914 
Q 2772 3150 2772 3378 
Q 2772 3750 2511 3984 
Q 2250 4219 1831 4219 
Q 1534 4219 1204 4116 
Q 875 4013 500 3803 
L 500 4441 
Q 881 4594 1212 4672 
Q 1544 4750 1819 4750 
Q 2544 4750 2975 4387 
Q 3406 4025 3406 3419 
Q 3406 3131 3298 2873 
Q 3191 2616 2906 2266 
Q 2828 2175 2409 1742 
Q 1991 1309 1228 531 
z
" id="DejaVuSans-32" transform="scale(0.015625)"/>
       </defs>
       <use xlink:href="#DejaVuSans-32"/>
       <use x="63.623047" xlink:href="#DejaVuSans-30"/>
      </g>
     </g>
    </g>
    <g id="xtick_4">
     <g id="line2d_4">
      <g>
       <use style="stroke:#000000;stroke-width:0.8;" x="359.222704" xlink:href="#m4af2bd7c87" y="376"/>
      </g>
     </g>
     <g id="text_4">
      <!-- 30 -->
      <g transform="translate(349.678954 394.397656)scale(0.15 -0.15)">
       <defs>
        <path d="M 2597 2516 
Q 3050 2419 3304 2112 
Q 3559 1806 3559 1356 
Q 3559 666 3084 287 
Q 2609 -91 1734 -91 
Q 1441 -91 1130 -33 
Q 819 25 488 141 
L 488 750 
Q 750 597 1062 519 
Q 1375 441 1716 441 
Q 2309 441 2620 675 
Q 2931 909 2931 1356 
Q 2931 1769 2642 2001 
Q 2353 2234 1838 2234 
L 1294 2234 
L 1294 2753 
L 1863 2753 
Q 2328 2753 2575 2939 
Q 2822 3125 2822 3475 
Q 2822 3834 2567 4026 
Q 2313 4219 1838 4219 
Q 1578 4219 1281 4162 
Q 984 4106 628 3988 
L 628 4550 
Q 988 4650 1302 4700 
Q 1616 4750 1894 4750 
Q 2613 4750 3031 4423 
Q 3450 4097 3450 3541 
Q 3450 3153 3228 2886 
Q 3006 2619 2597 2516 
z
" id="DejaVuSans-33" transform="scale(0.015625)"/>
       </defs>
       <use xlink:href="#DejaVuSans-33"/>
       <use x="63.623047" xlink:href="#DejaVuSans-30"/>
      </g>
     </g>
    </g>
    <g id="xtick_5">
     <g id="line2d_5">
      <g>
       <use style="stroke:#000000;stroke-width:0.8;" x="451.195802" xlink:href="#m4af2bd7c87" y="376"/>
      </g>
     </g>
     <g id="text_5">
      <!-- 40 -->
      <g transform="translate(441.652052 394.397656)scale(0.15 -0.15)">
       <defs>
        <path d="M 2419 4116 
L 825 1625 
L 2419 1625 
L 2419 4116 
z
M 2253 4666 
L 3047 4666 
L 3047 1625 
L 3713 1625 
L 3713 1100 
L 3047 1100 
L 3047 0 
L 2419 0 
L 2419 1100 
L 313 1100 
L 313 1709 
L 2253 4666 
z
" id="DejaVuSans-34" transform="scale(0.015625)"/>
       </defs>
       <use xlink:href="#DejaVuSans-34"/>
       <use x="63.623047" xlink:href="#DejaVuSans-30"/>
      </g>
     </g>
    </g>
    <g id="xtick_6">
     <g id="line2d_6">
      <g>
       <use style="stroke:#000000;stroke-width:0.8;" x="543.168901" xlink:href="#m4af2bd7c87" y="376"/>
      </g>
     </g>
     <g id="text_6">
      <!-- 50 -->
      <g transform="translate(533.625151 394.397656)scale(0.15 -0.15)">
       <defs>
        <path d="M 691 4666 
L 3169 4666 
L 3169 4134 
L 1269 4134 
L 1269 2991 
Q 1406 3038 1543 3061 
Q 1681 3084 1819 3084 
Q 2600 3084 3056 2656 
Q 3513 2228 3513 1497 
Q 3513 744 3044 326 
Q 2575 -91 1722 -91 
Q 1428 -91 1123 -41 
Q 819 9 494 109 
L 494 744 
Q 775 591 1075 516 
Q 1375 441 1709 441 
Q 2250 441 2565 725 
Q 2881 1009 2881 1497 
Q 2881 1984 2565 2268 
Q 2250 2553 1709 2553 
Q 1456 2553 1204 2497 
Q 953 2441 691 2322 
L 691 4666 
z
" id="DejaVuSans-35" transform="scale(0.015625)"/>
       </defs>
       <use xlink:href="#DejaVuSans-35"/>
       <use x="63.623047" xlink:href="#DejaVuSans-30"/>
      </g>
     </g>
    </g>
    <g id="text_7">
     <!-- Global Communication Rounds -->
     <g transform="translate(193.194922 412.914844)scale(0.15 -0.15)">
      <defs>
       <path d="M 3809 666 
L 3809 1919 
L 2778 1919 
L 2778 2438 
L 4434 2438 
L 4434 434 
Q 4069 175 3628 42 
Q 3188 -91 2688 -91 
Q 1594 -91 976 548 
Q 359 1188 359 2328 
Q 359 3472 976 4111 
Q 1594 4750 2688 4750 
Q 3144 4750 3555 4637 
Q 3966 4525 4313 4306 
L 4313 3634 
Q 3963 3931 3569 4081 
Q 3175 4231 2741 4231 
Q 1884 4231 1454 3753 
Q 1025 3275 1025 2328 
Q 1025 1384 1454 906 
Q 1884 428 2741 428 
Q 3075 428 3337 486 
Q 3600 544 3809 666 
z
" id="DejaVuSans-47" transform="scale(0.015625)"/>
       <path d="M 603 4863 
L 1178 4863 
L 1178 0 
L 603 0 
L 603 4863 
z
" id="DejaVuSans-6c" transform="scale(0.015625)"/>
       <path d="M 1959 3097 
Q 1497 3097 1228 2736 
Q 959 2375 959 1747 
Q 959 1119 1226 758 
Q 1494 397 1959 397 
Q 2419 397 2687 759 
Q 2956 1122 2956 1747 
Q 2956 2369 2687 2733 
Q 2419 3097 1959 3097 
z
M 1959 3584 
Q 2709 3584 3137 3096 
Q 3566 2609 3566 1747 
Q 3566 888 3137 398 
Q 2709 -91 1959 -91 
Q 1206 -91 779 398 
Q 353 888 353 1747 
Q 353 2609 779 3096 
Q 1206 3584 1959 3584 
z
" id="DejaVuSans-6f" transform="scale(0.015625)"/>
       <path d="M 3116 1747 
Q 3116 2381 2855 2742 
Q 2594 3103 2138 3103 
Q 1681 3103 1420 2742 
Q 1159 2381 1159 1747 
Q 1159 1113 1420 752 
Q 1681 391 2138 391 
Q 2594 391 2855 752 
Q 3116 1113 3116 1747 
z
M 1159 2969 
Q 1341 3281 1617 3432 
Q 1894 3584 2278 3584 
Q 2916 3584 3314 3078 
Q 3713 2572 3713 1747 
Q 3713 922 3314 415 
Q 2916 -91 2278 -91 
Q 1894 -91 1617 61 
Q 1341 213 1159 525 
L 1159 0 
L 581 0 
L 581 4863 
L 1159 4863 
L 1159 2969 
z
" id="DejaVuSans-62" transform="scale(0.015625)"/>
       <path d="M 2194 1759 
Q 1497 1759 1228 1600 
Q 959 1441 959 1056 
Q 959 750 1161 570 
Q 1363 391 1709 391 
Q 2188 391 2477 730 
Q 2766 1069 2766 1631 
L 2766 1759 
L 2194 1759 
z
M 3341 1997 
L 3341 0 
L 2766 0 
L 2766 531 
Q 2569 213 2275 61 
Q 1981 -91 1556 -91 
Q 1019 -91 701 211 
Q 384 513 384 1019 
Q 384 1609 779 1909 
Q 1175 2209 1959 2209 
L 2766 2209 
L 2766 2266 
Q 2766 2663 2505 2880 
Q 2244 3097 1772 3097 
Q 1472 3097 1187 3025 
Q 903 2953 641 2809 
L 641 3341 
Q 956 3463 1253 3523 
Q 1550 3584 1831 3584 
Q 2591 3584 2966 3190 
Q 3341 2797 3341 1997 
z
" id="DejaVuSans-61" transform="scale(0.015625)"/>
       <path id="DejaVuSans-20" transform="scale(0.015625)"/>
       <path d="M 4122 4306 
L 4122 3641 
Q 3803 3938 3442 4084 
Q 3081 4231 2675 4231 
Q 1875 4231 1450 3742 
Q 1025 3253 1025 2328 
Q 1025 1406 1450 917 
Q 1875 428 2675 428 
Q 3081 428 3442 575 
Q 3803 722 4122 1019 
L 4122 359 
Q 3791 134 3420 21 
Q 3050 -91 2638 -91 
Q 1578 -91 968 557 
Q 359 1206 359 2328 
Q 359 3453 968 4101 
Q 1578 4750 2638 4750 
Q 3056 4750 3426 4639 
Q 3797 4528 4122 4306 
z
" id="DejaVuSans-43" transform="scale(0.015625)"/>
       <path d="M 3328 2828 
Q 3544 3216 3844 3400 
Q 4144 3584 4550 3584 
Q 5097 3584 5394 3201 
Q 5691 2819 5691 2113 
L 5691 0 
L 5113 0 
L 5113 2094 
Q 5113 2597 4934 2840 
Q 4756 3084 4391 3084 
Q 3944 3084 3684 2787 
Q 3425 2491 3425 1978 
L 3425 0 
L 2847 0 
L 2847 2094 
Q 2847 2600 2669 2842 
Q 2491 3084 2119 3084 
Q 1678 3084 1418 2786 
Q 1159 2488 1159 1978 
L 1159 0 
L 581 0 
L 581 3500 
L 1159 3500 
L 1159 2956 
Q 1356 3278 1631 3431 
Q 1906 3584 2284 3584 
Q 2666 3584 2933 3390 
Q 3200 3197 3328 2828 
z
" id="DejaVuSans-6d" transform="scale(0.015625)"/>
       <path d="M 544 1381 
L 544 3500 
L 1119 3500 
L 1119 1403 
Q 1119 906 1312 657 
Q 1506 409 1894 409 
Q 2359 409 2629 706 
Q 2900 1003 2900 1516 
L 2900 3500 
L 3475 3500 
L 3475 0 
L 2900 0 
L 2900 538 
Q 2691 219 2414 64 
Q 2138 -91 1772 -91 
Q 1169 -91 856 284 
Q 544 659 544 1381 
z
M 1991 3584 
L 1991 3584 
z
" id="DejaVuSans-75" transform="scale(0.015625)"/>
       <path d="M 3513 2113 
L 3513 0 
L 2938 0 
L 2938 2094 
Q 2938 2591 2744 2837 
Q 2550 3084 2163 3084 
Q 1697 3084 1428 2787 
Q 1159 2491 1159 1978 
L 1159 0 
L 581 0 
L 581 3500 
L 1159 3500 
L 1159 2956 
Q 1366 3272 1645 3428 
Q 1925 3584 2291 3584 
Q 2894 3584 3203 3211 
Q 3513 2838 3513 2113 
z
" id="DejaVuSans-6e" transform="scale(0.015625)"/>
       <path d="M 603 3500 
L 1178 3500 
L 1178 0 
L 603 0 
L 603 3500 
z
M 603 4863 
L 1178 4863 
L 1178 4134 
L 603 4134 
L 603 4863 
z
" id="DejaVuSans-69" transform="scale(0.015625)"/>
       <path d="M 3122 3366 
L 3122 2828 
Q 2878 2963 2633 3030 
Q 2388 3097 2138 3097 
Q 1578 3097 1268 2742 
Q 959 2388 959 1747 
Q 959 1106 1268 751 
Q 1578 397 2138 397 
Q 2388 397 2633 464 
Q 2878 531 3122 666 
L 3122 134 
Q 2881 22 2623 -34 
Q 2366 -91 2075 -91 
Q 1284 -91 818 406 
Q 353 903 353 1747 
Q 353 2603 823 3093 
Q 1294 3584 2113 3584 
Q 2378 3584 2631 3529 
Q 2884 3475 3122 3366 
z
" id="DejaVuSans-63" transform="scale(0.015625)"/>
       <path d="M 1172 4494 
L 1172 3500 
L 2356 3500 
L 2356 3053 
L 1172 3053 
L 1172 1153 
Q 1172 725 1289 603 
Q 1406 481 1766 481 
L 2356 481 
L 2356 0 
L 1766 0 
Q 1100 0 847 248 
Q 594 497 594 1153 
L 594 3053 
L 172 3053 
L 172 3500 
L 594 3500 
L 594 4494 
L 1172 4494 
z
" id="DejaVuSans-74" transform="scale(0.015625)"/>
       <path d="M 2841 2188 
Q 3044 2119 3236 1894 
Q 3428 1669 3622 1275 
L 4263 0 
L 3584 0 
L 2988 1197 
Q 2756 1666 2539 1819 
Q 2322 1972 1947 1972 
L 1259 1972 
L 1259 0 
L 628 0 
L 628 4666 
L 2053 4666 
Q 2853 4666 3247 4331 
Q 3641 3997 3641 3322 
Q 3641 2881 3436 2590 
Q 3231 2300 2841 2188 
z
M 1259 4147 
L 1259 2491 
L 2053 2491 
Q 2509 2491 2742 2702 
Q 2975 2913 2975 3322 
Q 2975 3731 2742 3939 
Q 2509 4147 2053 4147 
L 1259 4147 
z
" id="DejaVuSans-52" transform="scale(0.015625)"/>
       <path d="M 2906 2969 
L 2906 4863 
L 3481 4863 
L 3481 0 
L 2906 0 
L 2906 525 
Q 2725 213 2448 61 
Q 2172 -91 1784 -91 
Q 1150 -91 751 415 
Q 353 922 353 1747 
Q 353 2572 751 3078 
Q 1150 3584 1784 3584 
Q 2172 3584 2448 3432 
Q 2725 3281 2906 2969 
z
M 947 1747 
Q 947 1113 1208 752 
Q 1469 391 1925 391 
Q 2381 391 2643 752 
Q 2906 1113 2906 1747 
Q 2906 2381 2643 2742 
Q 2381 3103 1925 3103 
Q 1469 3103 1208 2742 
Q 947 2381 947 1747 
z
" id="DejaVuSans-64" transform="scale(0.015625)"/>
       <path d="M 2834 3397 
L 2834 2853 
Q 2591 2978 2328 3040 
Q 2066 3103 1784 3103 
Q 1356 3103 1142 2972 
Q 928 2841 928 2578 
Q 928 2378 1081 2264 
Q 1234 2150 1697 2047 
L 1894 2003 
Q 2506 1872 2764 1633 
Q 3022 1394 3022 966 
Q 3022 478 2636 193 
Q 2250 -91 1575 -91 
Q 1294 -91 989 -36 
Q 684 19 347 128 
L 347 722 
Q 666 556 975 473 
Q 1284 391 1588 391 
Q 1994 391 2212 530 
Q 2431 669 2431 922 
Q 2431 1156 2273 1281 
Q 2116 1406 1581 1522 
L 1381 1569 
Q 847 1681 609 1914 
Q 372 2147 372 2553 
Q 372 3047 722 3315 
Q 1072 3584 1716 3584 
Q 2034 3584 2315 3537 
Q 2597 3491 2834 3397 
z
" id="DejaVuSans-73" transform="scale(0.015625)"/>
      </defs>
      <use xlink:href="#DejaVuSans-47"/>
      <use x="77.490234" xlink:href="#DejaVuSans-6c"/>
      <use x="105.273438" xlink:href="#DejaVuSans-6f"/>
      <use x="166.455078" xlink:href="#DejaVuSans-62"/>
      <use x="229.931641" xlink:href="#DejaVuSans-61"/>
      <use x="291.210938" xlink:href="#DejaVuSans-6c"/>
      <use x="318.994141" xlink:href="#DejaVuSans-20"/>
      <use x="350.78125" xlink:href="#DejaVuSans-43"/>
      <use x="420.605469" xlink:href="#DejaVuSans-6f"/>
      <use x="481.787109" xlink:href="#DejaVuSans-6d"/>
      <use x="579.199219" xlink:href="#DejaVuSans-6d"/>
      <use x="676.611328" xlink:href="#DejaVuSans-75"/>
      <use x="739.990234" xlink:href="#DejaVuSans-6e"/>
      <use x="803.369141" xlink:href="#DejaVuSans-69"/>
      <use x="831.152344" xlink:href="#DejaVuSans-63"/>
      <use x="886.132812" xlink:href="#DejaVuSans-61"/>
      <use x="947.412109" xlink:href="#DejaVuSans-74"/>
      <use x="986.621094" xlink:href="#DejaVuSans-69"/>
      <use x="1014.404297" xlink:href="#DejaVuSans-6f"/>
      <use x="1075.585938" xlink:href="#DejaVuSans-6e"/>
      <use x="1138.964844" xlink:href="#DejaVuSans-20"/>
      <use x="1170.751953" xlink:href="#DejaVuSans-52"/>
      <use x="1235.734375" xlink:href="#DejaVuSans-6f"/>
      <use x="1296.916016" xlink:href="#DejaVuSans-75"/>
      <use x="1360.294922" xlink:href="#DejaVuSans-6e"/>
      <use x="1423.673828" xlink:href="#DejaVuSans-64"/>
      <use x="1487.150391" xlink:href="#DejaVuSans-73"/>
     </g>
    </g>
   </g>
   <g id="matplotlib.axis_2">
    <g id="ytick_1">
     <g id="line2d_7">
      <defs>
       <path d="M 0 0 
L -3.5 0 
" id="m3ec7eabe46" style="stroke:#000000;stroke-width:0.8;"/>
      </defs>
      <g>
       <use style="stroke:#000000;stroke-width:0.8;" x="60.77" xlink:href="#m3ec7eabe46" y="367.432718"/>
      </g>
     </g>
     <g id="text_8">
      <!-- 75 -->
      <g transform="translate(34.6825 373.131546)scale(0.15 -0.15)">
       <defs>
        <path d="M 525 4666 
L 3525 4666 
L 3525 4397 
L 1831 0 
L 1172 0 
L 2766 4134 
L 525 4134 
L 525 4666 
z
" id="DejaVuSans-37" transform="scale(0.015625)"/>
       </defs>
       <use xlink:href="#DejaVuSans-37"/>
       <use x="63.623047" xlink:href="#DejaVuSans-35"/>
      </g>
     </g>
    </g>
    <g id="ytick_2">
     <g id="line2d_8">
      <g>
       <use style="stroke:#000000;stroke-width:0.8;" x="60.77" xlink:href="#m3ec7eabe46" y="304.09076"/>
      </g>
     </g>
     <g id="text_9">
      <!-- 80 -->
      <g transform="translate(34.6825 309.789588)scale(0.15 -0.15)">
       <defs>
        <path d="M 2034 2216 
Q 1584 2216 1326 1975 
Q 1069 1734 1069 1313 
Q 1069 891 1326 650 
Q 1584 409 2034 409 
Q 2484 409 2743 651 
Q 3003 894 3003 1313 
Q 3003 1734 2745 1975 
Q 2488 2216 2034 2216 
z
M 1403 2484 
Q 997 2584 770 2862 
Q 544 3141 544 3541 
Q 544 4100 942 4425 
Q 1341 4750 2034 4750 
Q 2731 4750 3128 4425 
Q 3525 4100 3525 3541 
Q 3525 3141 3298 2862 
Q 3072 2584 2669 2484 
Q 3125 2378 3379 2068 
Q 3634 1759 3634 1313 
Q 3634 634 3220 271 
Q 2806 -91 2034 -91 
Q 1263 -91 848 271 
Q 434 634 434 1313 
Q 434 1759 690 2068 
Q 947 2378 1403 2484 
z
M 1172 3481 
Q 1172 3119 1398 2916 
Q 1625 2713 2034 2713 
Q 2441 2713 2670 2916 
Q 2900 3119 2900 3481 
Q 2900 3844 2670 4047 
Q 2441 4250 2034 4250 
Q 1625 4250 1398 4047 
Q 1172 3844 1172 3481 
z
" id="DejaVuSans-38" transform="scale(0.015625)"/>
       </defs>
       <use xlink:href="#DejaVuSans-38"/>
       <use x="63.623047" xlink:href="#DejaVuSans-30"/>
      </g>
     </g>
    </g>
    <g id="ytick_3">
     <g id="line2d_9">
      <g>
       <use style="stroke:#000000;stroke-width:0.8;" x="60.77" xlink:href="#m3ec7eabe46" y="240.748802"/>
      </g>
     </g>
     <g id="text_10">
      <!-- 85 -->
      <g transform="translate(34.6825 246.44763)scale(0.15 -0.15)">
       <use xlink:href="#DejaVuSans-38"/>
       <use x="63.623047" xlink:href="#DejaVuSans-35"/>
      </g>
     </g>
    </g>
    <g id="ytick_4">
     <g id="line2d_10">
      <g>
       <use style="stroke:#000000;stroke-width:0.8;" x="60.77" xlink:href="#m3ec7eabe46" y="177.406844"/>
      </g>
     </g>
     <g id="text_11">
      <!-- 90 -->
      <g transform="translate(34.6825 183.105672)scale(0.15 -0.15)">
       <defs>
        <path d="M 703 97 
L 703 672 
Q 941 559 1184 500 
Q 1428 441 1663 441 
Q 2288 441 2617 861 
Q 2947 1281 2994 2138 
Q 2813 1869 2534 1725 
Q 2256 1581 1919 1581 
Q 1219 1581 811 2004 
Q 403 2428 403 3163 
Q 403 3881 828 4315 
Q 1253 4750 1959 4750 
Q 2769 4750 3195 4129 
Q 3622 3509 3622 2328 
Q 3622 1225 3098 567 
Q 2575 -91 1691 -91 
Q 1453 -91 1209 -44 
Q 966 3 703 97 
z
M 1959 2075 
Q 2384 2075 2632 2365 
Q 2881 2656 2881 3163 
Q 2881 3666 2632 3958 
Q 2384 4250 1959 4250 
Q 1534 4250 1286 3958 
Q 1038 3666 1038 3163 
Q 1038 2656 1286 2365 
Q 1534 2075 1959 2075 
z
" id="DejaVuSans-39" transform="scale(0.015625)"/>
       </defs>
       <use xlink:href="#DejaVuSans-39"/>
       <use x="63.623047" xlink:href="#DejaVuSans-30"/>
      </g>
     </g>
    </g>
    <g id="ytick_5">
     <g id="line2d_11">
      <g>
       <use style="stroke:#000000;stroke-width:0.8;" x="60.77" xlink:href="#m3ec7eabe46" y="114.064886"/>
      </g>
     </g>
     <g id="text_12">
      <!-- 95 -->
      <g transform="translate(34.6825 119.763714)scale(0.15 -0.15)">
       <use xlink:href="#DejaVuSans-39"/>
       <use x="63.623047" xlink:href="#DejaVuSans-35"/>
      </g>
     </g>
    </g>
    <g id="text_13">
     <!-- Test Accuracy -->
     <g transform="translate(27.562969 267.694744)rotate(-90)scale(0.15 -0.15)">
      <defs>
       <path d="M -19 4666 
L 3928 4666 
L 3928 4134 
L 2272 4134 
L 2272 0 
L 1638 0 
L 1638 4134 
L -19 4134 
L -19 4666 
z
" id="DejaVuSans-54" transform="scale(0.015625)"/>
       <path d="M 3597 1894 
L 3597 1613 
L 953 1613 
Q 991 1019 1311 708 
Q 1631 397 2203 397 
Q 2534 397 2845 478 
Q 3156 559 3463 722 
L 3463 178 
Q 3153 47 2828 -22 
Q 2503 -91 2169 -91 
Q 1331 -91 842 396 
Q 353 884 353 1716 
Q 353 2575 817 3079 
Q 1281 3584 2069 3584 
Q 2775 3584 3186 3129 
Q 3597 2675 3597 1894 
z
M 3022 2063 
Q 3016 2534 2758 2815 
Q 2500 3097 2075 3097 
Q 1594 3097 1305 2825 
Q 1016 2553 972 2059 
L 3022 2063 
z
" id="DejaVuSans-65" transform="scale(0.015625)"/>
       <path d="M 2188 4044 
L 1331 1722 
L 3047 1722 
L 2188 4044 
z
M 1831 4666 
L 2547 4666 
L 4325 0 
L 3669 0 
L 3244 1197 
L 1141 1197 
L 716 0 
L 50 0 
L 1831 4666 
z
" id="DejaVuSans-41" transform="scale(0.015625)"/>
       <path d="M 2631 2963 
Q 2534 3019 2420 3045 
Q 2306 3072 2169 3072 
Q 1681 3072 1420 2755 
Q 1159 2438 1159 1844 
L 1159 0 
L 581 0 
L 581 3500 
L 1159 3500 
L 1159 2956 
Q 1341 3275 1631 3429 
Q 1922 3584 2338 3584 
Q 2397 3584 2469 3576 
Q 2541 3569 2628 3553 
L 2631 2963 
z
" id="DejaVuSans-72" transform="scale(0.015625)"/>
       <path d="M 2059 -325 
Q 1816 -950 1584 -1140 
Q 1353 -1331 966 -1331 
L 506 -1331 
L 506 -850 
L 844 -850 
Q 1081 -850 1212 -737 
Q 1344 -625 1503 -206 
L 1606 56 
L 191 3500 
L 800 3500 
L 1894 763 
L 2988 3500 
L 3597 3500 
L 2059 -325 
z
" id="DejaVuSans-79" transform="scale(0.015625)"/>
      </defs>
      <use xlink:href="#DejaVuSans-54"/>
      <use x="44.083984" xlink:href="#DejaVuSans-65"/>
      <use x="105.607422" xlink:href="#DejaVuSans-73"/>
      <use x="157.707031" xlink:href="#DejaVuSans-74"/>
      <use x="196.916016" xlink:href="#DejaVuSans-20"/>
      <use x="228.703125" xlink:href="#DejaVuSans-41"/>
      <use x="295.361328" xlink:href="#DejaVuSans-63"/>
      <use x="350.341797" xlink:href="#DejaVuSans-63"/>
      <use x="405.322266" xlink:href="#DejaVuSans-75"/>
      <use x="468.701172" xlink:href="#DejaVuSans-72"/>
      <use x="509.814453" xlink:href="#DejaVuSans-61"/>
      <use x="571.09375" xlink:href="#DejaVuSans-63"/>
      <use x="626.074219" xlink:href="#DejaVuSans-79"/>
     </g>
    </g>
   </g>
   <g id="line2d_12">
    <path clip-path="url(#p9a9a67f39c)" d="M 83.303409 201.460752 
L 92.500719 128.657591 
L 101.698029 122.884653 
L 110.895339 116.470277 
L 120.092648 113.904527 
L 129.289958 107.169433 
L 138.487268 105.24512 
L 147.684578 105.565839 
L 156.881888 101.717214 
L 166.079198 96.264994 
L 175.276507 98.510026 
L 184.473817 98.510026 
L 193.671127 96.585713 
L 202.868437 94.019963 
L 212.065747 92.416369 
L 221.263057 91.454213 
L 230.460366 93.378525 
L 239.657676 90.492056 
L 248.854986 88.247025 
L 258.052296 88.888463 
L 267.249606 87.926306 
L 276.446916 87.605588 
L 285.644225 87.284869 
L 294.841535 86.322712 
L 304.038845 87.284869 
L 313.236155 84.719119 
L 322.433465 85.039837 
L 331.630775 84.3984 
L 340.828084 84.077681 
L 350.025394 83.756962 
L 359.222704 81.191212 
L 368.420014 82.794806 
L 377.617324 81.511931 
L 386.814634 80.229056 
L 396.011943 81.83265 
L 405.209253 80.549775 
L 414.406563 81.83265 
L 423.603873 82.474087 
L 432.801183 77.984024 
L 441.998493 79.908337 
L 451.195802 78.625462 
L 460.393112 80.549775 
L 469.590422 78.625462 
L 478.787732 74.776837 
L 487.985042 78.946181 
L 497.182352 75.738993 
L 506.379661 75.738993 
L 515.576971 78.625462 
L 524.774281 78.625462 
L 533.971591 76.38043 
" style="fill:none;stroke:#1f77b4;stroke-linecap:square;stroke-width:1.5;"/>
   </g>
   <g id="line2d_13">
    <path clip-path="url(#p9a9a67f39c)" d="M 83.303409 232.891192 
L 92.500719 132.826935 
L 101.698029 126.733278 
L 110.895339 121.601778 
L 120.092648 113.583808 
L 129.289958 111.338777 
L 138.487268 107.169433 
L 147.684578 104.924401 
L 156.881888 101.396495 
L 166.079198 98.830745 
L 175.276507 99.472182 
L 184.473817 97.868588 
L 193.671127 96.906432 
L 202.868437 96.585713 
L 212.065747 94.340682 
L 221.263057 94.019963 
L 230.460366 95.623557 
L 239.657676 94.340682 
L 248.854986 92.09565 
L 258.052296 90.812775 
L 267.249606 91.774932 
L 276.446916 89.850619 
L 285.644225 92.09565 
L 294.841535 92.416369 
L 304.038845 91.774932 
L 313.236155 91.774932 
L 322.433465 89.5299 
L 331.630775 87.605588 
L 340.828084 89.209181 
L 350.025394 91.454213 
L 359.222704 86.643431 
L 368.420014 88.247025 
L 377.617324 87.284869 
L 386.814634 88.247025 
L 396.011943 87.926306 
L 405.209253 86.001994 
L 414.406563 84.719119 
L 423.603873 86.643431 
L 432.801183 85.681275 
L 441.998493 84.719119 
L 451.195802 84.719119 
L 460.393112 84.719119 
L 469.590422 85.360556 
L 478.787732 85.039837 
L 487.985042 83.756962 
L 497.182352 82.794806 
L 506.379661 85.039837 
L 515.576971 84.719119 
L 524.774281 82.794806 
L 533.971591 85.039837 
" style="fill:none;stroke:#ff7f0e;stroke-linecap:square;stroke-width:1.5;"/>
   </g>
   <g id="line2d_14">
    <path clip-path="url(#p9a9a67f39c)" d="M 83.303409 165.219531 
L 92.500719 133.147653 
L 101.698029 125.450403 
L 110.895339 117.111715 
L 120.092648 112.942371 
L 129.289958 107.169433 
L 138.487268 105.565839 
L 147.684578 101.717214 
L 156.881888 100.755057 
L 166.079198 98.830745 
L 175.276507 96.906432 
L 184.473817 97.54787 
L 193.671127 96.585713 
L 202.868437 94.340682 
L 212.065747 93.699244 
L 221.263057 94.661401 
L 230.460366 93.699244 
L 239.657676 92.416369 
L 248.854986 90.171338 
L 258.052296 90.492056 
L 267.249606 89.5299 
L 276.446916 89.209181 
L 285.644225 89.209181 
L 294.841535 88.567744 
L 304.038845 89.209181 
L 313.236155 86.322712 
L 322.433465 88.247025 
L 331.630775 86.96415 
L 340.828084 86.96415 
L 350.025394 85.360556 
L 359.222704 86.643431 
L 368.420014 85.681275 
L 377.617324 83.756962 
L 386.814634 83.756962 
L 396.011943 84.719119 
L 405.209253 85.039837 
L 414.406563 84.3984 
L 423.603873 84.077681 
L 432.801183 84.3984 
L 441.998493 83.436243 
L 451.195802 83.756962 
L 460.393112 84.077681 
L 469.590422 82.153368 
L 478.787732 82.153368 
L 487.985042 79.908337 
L 497.182352 82.153368 
L 506.379661 81.511931 
L 515.576971 81.191212 
L 524.774281 81.83265 
L 533.971591 82.474087 
" style="fill:none;stroke:#2ca02c;stroke-linecap:square;stroke-width:1.5;"/>
   </g>
   <g id="line2d_15">
    <path clip-path="url(#p9a9a67f39c)" d="M 83.303409 337.129925 
L 92.500719 205.657357 
L 101.698029 175.987984 
L 110.895339 164.181043 
L 120.092648 158.530941 
L 129.289958 153.97032 
L 138.487268 149.789751 
L 147.684578 146.80001 
L 156.881888 143.708923 
L 166.079198 141.276591 
L 175.276507 139.401669 
L 184.473817 137.856126 
L 193.671127 136.057214 
L 202.868437 134.055608 
L 212.065747 132.510064 
L 221.263057 131.116541 
L 230.460366 129.520324 
L 239.657676 127.848096 
L 248.854986 126.530584 
L 258.052296 125.06105 
L 267.249606 123.946232 
L 276.446916 122.603382 
L 285.644225 121.843279 
L 294.841535 120.65245 
L 304.038845 120.01903 
L 313.236155 119.436284 
L 322.433465 118.726854 
L 331.630775 118.194782 
L 340.828084 117.460015 
L 350.025394 116.573228 
L 359.222704 116.066492 
L 368.420014 115.661104 
L 377.617324 115.027684 
L 386.814634 114.495612 
L 396.011943 114.470275 
L 405.209253 113.710171 
L 414.406563 113.380793 
L 423.603873 112.950068 
L 432.801183 112.6967 
L 441.998493 112.468669 
L 451.195802 111.885923 
L 460.393112 111.860586 
L 469.590422 111.353851 
L 478.787732 110.897788 
L 487.985042 110.619084 
L 497.182352 110.644421 
L 506.379661 110.517737 
L 515.576971 110.340379 
L 524.774281 109.985664 
L 533.971591 109.909654 
" style="fill:none;stroke:#d62728;stroke-linecap:square;stroke-width:1.5;"/>
   </g>
   <g id="patch_3">
    <path d="M 60.77 376 
L 60.77 56.601988 
" style="fill:none;stroke:#000000;stroke-linecap:square;stroke-linejoin:miter;stroke-width:0.8;"/>
   </g>
   <g id="patch_4">
    <path d="M 556.505 376 
L 556.505 56.601988 
" style="fill:none;stroke:#000000;stroke-linecap:square;stroke-linejoin:miter;stroke-width:0.8;"/>
   </g>
   <g id="patch_5">
    <path d="M 60.77 376 
L 556.505 376 
" style="fill:none;stroke:#000000;stroke-linecap:square;stroke-linejoin:miter;stroke-width:0.8;"/>
   </g>
   <g id="patch_6">
    <path d="M 60.77 56.601989 
L 556.505 56.601989 
" style="fill:none;stroke:#000000;stroke-linecap:square;stroke-linejoin:miter;stroke-width:0.8;"/>
   </g>
   <g id="legend_1">
    <g id="patch_7">
     <path d="M 59.039844 42.709474 
L 558.235156 42.709474 
Q 561.235156 42.709474 561.235156 39.709474 
L 561.235156 19.192287 
Q 561.235156 16.192287 558.235156 16.192287 
L 59.039844 16.192287 
Q 56.039844 16.192287 56.039844 19.192287 
L 56.039844 39.709474 
Q 56.039844 42.709474 59.039844 42.709474 
z
" style="fill:#ffffff;opacity:0.8;stroke:#cccccc;stroke-linejoin:miter;"/>
    </g>
    <g id="line2d_16">
     <path d="M 62.039844 28.339943 
L 92.039844 28.339943 
" style="fill:none;stroke:#1f77b4;stroke-linecap:square;stroke-width:1.5;"/>
    </g>
    <g id="line2d_17"/>
    <g id="text_14">
     <!-- FedAvg -->
     <g transform="translate(104.039844 33.589943)scale(0.15 -0.15)">
      <defs>
       <path d="M 628 4666 
L 3309 4666 
L 3309 4134 
L 1259 4134 
L 1259 2759 
L 3109 2759 
L 3109 2228 
L 1259 2228 
L 1259 0 
L 628 0 
L 628 4666 
z
" id="DejaVuSans-46" transform="scale(0.015625)"/>
       <path d="M 191 3500 
L 800 3500 
L 1894 563 
L 2988 3500 
L 3597 3500 
L 2284 0 
L 1503 0 
L 191 3500 
z
" id="DejaVuSans-76" transform="scale(0.015625)"/>
       <path d="M 2906 1791 
Q 2906 2416 2648 2759 
Q 2391 3103 1925 3103 
Q 1463 3103 1205 2759 
Q 947 2416 947 1791 
Q 947 1169 1205 825 
Q 1463 481 1925 481 
Q 2391 481 2648 825 
Q 2906 1169 2906 1791 
z
M 3481 434 
Q 3481 -459 3084 -895 
Q 2688 -1331 1869 -1331 
Q 1566 -1331 1297 -1286 
Q 1028 -1241 775 -1147 
L 775 -588 
Q 1028 -725 1275 -790 
Q 1522 -856 1778 -856 
Q 2344 -856 2625 -561 
Q 2906 -266 2906 331 
L 2906 616 
Q 2728 306 2450 153 
Q 2172 0 1784 0 
Q 1141 0 747 490 
Q 353 981 353 1791 
Q 353 2603 747 3093 
Q 1141 3584 1784 3584 
Q 2172 3584 2450 3431 
Q 2728 3278 2906 2969 
L 2906 3500 
L 3481 3500 
L 3481 434 
z
" id="DejaVuSans-67" transform="scale(0.015625)"/>
      </defs>
      <use xlink:href="#DejaVuSans-46"/>
      <use x="52.019531" xlink:href="#DejaVuSans-65"/>
      <use x="113.542969" xlink:href="#DejaVuSans-64"/>
      <use x="177.019531" xlink:href="#DejaVuSans-41"/>
      <use x="239.552734" xlink:href="#DejaVuSans-76"/>
      <use x="298.732422" xlink:href="#DejaVuSans-67"/>
     </g>
    </g>
    <g id="line2d_18">
     <path d="M 188.375 28.339943 
L 218.375 28.339943 
" style="fill:none;stroke:#ff7f0e;stroke-linecap:square;stroke-width:1.5;"/>
    </g>
    <g id="line2d_19"/>
    <g id="text_15">
     <!-- FedMed -->
     <g transform="translate(230.375 33.589943)scale(0.15 -0.15)">
      <defs>
       <path d="M 628 4666 
L 1569 4666 
L 2759 1491 
L 3956 4666 
L 4897 4666 
L 4897 0 
L 4281 0 
L 4281 4097 
L 3078 897 
L 2444 897 
L 1241 4097 
L 1241 0 
L 628 0 
L 628 4666 
z
" id="DejaVuSans-4d" transform="scale(0.015625)"/>
      </defs>
      <use xlink:href="#DejaVuSans-46"/>
      <use x="52.019531" xlink:href="#DejaVuSans-65"/>
      <use x="113.542969" xlink:href="#DejaVuSans-64"/>
      <use x="177.019531" xlink:href="#DejaVuSans-4d"/>
      <use x="263.298828" xlink:href="#DejaVuSans-65"/>
      <use x="324.822266" xlink:href="#DejaVuSans-64"/>
     </g>
    </g>
    <g id="line2d_20">
     <path d="M 318.624219 28.339943 
L 348.624219 28.339943 
" style="fill:none;stroke:#2ca02c;stroke-linecap:square;stroke-width:1.5;"/>
    </g>
    <g id="line2d_21"/>
    <g id="text_16">
     <!-- FedProx -->
     <g transform="translate(360.624219 33.589943)scale(0.15 -0.15)">
      <defs>
       <path d="M 1259 4147 
L 1259 2394 
L 2053 2394 
Q 2494 2394 2734 2622 
Q 2975 2850 2975 3272 
Q 2975 3691 2734 3919 
Q 2494 4147 2053 4147 
L 1259 4147 
z
M 628 4666 
L 2053 4666 
Q 2838 4666 3239 4311 
Q 3641 3956 3641 3272 
Q 3641 2581 3239 2228 
Q 2838 1875 2053 1875 
L 1259 1875 
L 1259 0 
L 628 0 
L 628 4666 
z
" id="DejaVuSans-50" transform="scale(0.015625)"/>
       <path d="M 3513 3500 
L 2247 1797 
L 3578 0 
L 2900 0 
L 1881 1375 
L 863 0 
L 184 0 
L 1544 1831 
L 300 3500 
L 978 3500 
L 1906 2253 
L 2834 3500 
L 3513 3500 
z
" id="DejaVuSans-78" transform="scale(0.015625)"/>
      </defs>
      <use xlink:href="#DejaVuSans-46"/>
      <use x="52.019531" xlink:href="#DejaVuSans-65"/>
      <use x="113.542969" xlink:href="#DejaVuSans-64"/>
      <use x="177.019531" xlink:href="#DejaVuSans-50"/>
      <use x="235.572266" xlink:href="#DejaVuSans-72"/>
      <use x="274.435547" xlink:href="#DejaVuSans-6f"/>
      <use x="332.492188" xlink:href="#DejaVuSans-78"/>
     </g>
    </g>
    <g id="line2d_22">
     <path d="M 449.377344 28.339943 
L 479.377344 28.339943 
" style="fill:none;stroke:#d62728;stroke-linecap:square;stroke-width:1.5;"/>
    </g>
    <g id="line2d_23"/>
    <g id="text_17">
     <!-- qFedAvg -->
     <g transform="translate(491.377344 33.589943)scale(0.15 -0.15)">
      <defs>
       <path d="M 947 1747 
Q 947 1113 1208 752 
Q 1469 391 1925 391 
Q 2381 391 2643 752 
Q 2906 1113 2906 1747 
Q 2906 2381 2643 2742 
Q 2381 3103 1925 3103 
Q 1469 3103 1208 2742 
Q 947 2381 947 1747 
z
M 2906 525 
Q 2725 213 2448 61 
Q 2172 -91 1784 -91 
Q 1150 -91 751 415 
Q 353 922 353 1747 
Q 353 2572 751 3078 
Q 1150 3584 1784 3584 
Q 2172 3584 2448 3432 
Q 2725 3281 2906 2969 
L 2906 3500 
L 3481 3500 
L 3481 -1331 
L 2906 -1331 
L 2906 525 
z
" id="DejaVuSans-71" transform="scale(0.015625)"/>
      </defs>
      <use xlink:href="#DejaVuSans-71"/>
      <use x="63.476562" xlink:href="#DejaVuSans-46"/>
      <use x="115.496094" xlink:href="#DejaVuSans-65"/>
      <use x="177.019531" xlink:href="#DejaVuSans-64"/>
      <use x="240.496094" xlink:href="#DejaVuSans-41"/>
      <use x="303.029297" xlink:href="#DejaVuSans-76"/>
      <use x="362.208984" xlink:href="#DejaVuSans-67"/>
     </g>
    </g>
   </g>
  </g>
 </g>
 <defs>
  <clipPath id="p9a9a67f39c">
   <rect height="319.398011" width="495.735" x="60.77" y="56.601989"/>
  </clipPath>
 </defs>
</svg>
