<?xml version="1.0" encoding="utf-8" standalone="no"?>
<!DOCTYPE svg PUBLIC "-//W3C//DTD SVG 1.1//EN"
  "http://www.w3.org/Graphics/SVG/1.1/DTD/svg11.dtd">
<svg height="345.6pt" version="1.1" viewBox="0 0 460.8 345.6" width="460.8pt" xmlns="http://www.w3.org/2000/svg" xmlns:xlink="http://www.w3.org/1999/xlink">
 <metadata>
  <rdf:RDF xmlns:cc="http://creativecommons.org/ns#" xmlns:dc="http://purl.org/dc/elements/1.1/" xmlns:rdf="http://www.w3.org/1999/02/22-rdf-syntax-ns#">
   <cc:Work>
    <dc:type rdf:resource="http://purl.org/dc/dcmitype/StillImage"/>
    <dc:date>2021-05-07T11:38:00.068883</dc:date>
    <dc:format>image/svg+xml</dc:format>
    <dc:creator>
     <cc:Agent>
      <dc:title>Matplotlib v3.4.1, https://matplotlib.org/</dc:title>
     </cc:Agent>
    </dc:creator>
   </cc:Work>
  </rdf:RDF>
 </metadata>
 <defs>
  <style type="text/css">*{stroke-linecap:butt;stroke-linejoin:round;}</style>
 </defs>
 <g id="figure_1">
  <g id="patch_1">
   <path d="M 0 345.6 
L 460.8 345.6 
L 460.8 0 
L 0 0 
z
" style="fill:#ffffff;"/>
  </g>
  <g id="axes_1">
   <g id="patch_2">
    <path d="M 44.57 303.64 
L 450 303.64 
L 450 48.38 
L 44.57 48.38 
z
" style="fill:#ffffff;"/>
   </g>
   <g id="PolyCollection_1">
    <path clip-path="url(#p3e4ec8f829)" d="M 62.998636 109.692562 
L 62.998636 218.607064 
L 70.520529 108.84332 
L 78.042421 103.496995 
L 85.564314 99.148641 
L 93.086206 96.09376 
L 100.608098 92.174078 
L 108.129991 91.056924 
L 115.651883 89.716376 
L 123.173776 85.930243 
L 130.695668 81.816732 
L 138.21756 82.831569 
L 145.739453 84.221695 
L 153.261345 82.073047 
L 160.783237 79.430385 
L 168.30513 81.51543 
L 175.827022 79.535977 
L 183.348915 82.469817 
L 190.870807 78.84567 
L 198.392699 76.767499 
L 205.914592 76.233582 
L 213.436484 77.075029 
L 220.958377 76.080243 
L 228.480269 75.638181 
L 236.002161 75.0996 
L 243.524054 75.386552 
L 251.045946 73.055866 
L 258.567839 73.618641 
L 266.089731 74.647345 
L 273.611623 73.305392 
L 281.133516 73.935277 
L 288.655408 71.064251 
L 296.177301 73.20028 
L 303.699193 72.756815 
L 311.221085 71.200132 
L 318.742978 72.80235 
L 326.26487 71.456448 
L 333.786763 70.282533 
L 341.308655 71.405918 
L 348.830547 68.390776 
L 356.35244 68.706428 
L 363.874332 68.357933 
L 371.396224 69.25727 
L 378.918117 68.970088 
L 386.440009 65.827621 
L 393.961902 68.876206 
L 401.483794 66.771193 
L 409.005686 65.212014 
L 416.527579 67.287919 
L 424.049471 67.518854 
L 431.571364 65.59065 
L 431.571364 62.782854 
L 431.571364 62.782854 
L 424.049471 64.443067 
L 416.527579 64.674003 
L 409.005686 62.136227 
L 401.483794 60.577048 
L 393.961902 63.598346 
L 386.440009 59.982727 
L 378.918117 62.991833 
L 371.396224 65.780437 
L 363.874332 63.603988 
L 356.35244 65.306018 
L 348.830547 62.545883 
L 341.308655 66.707576 
L 333.786763 66.805699 
L 326.26487 63.58126 
L 318.742978 64.285882 
L 311.221085 63.324944 
L 303.699193 63.818786 
L 296.177301 65.425845 
L 288.655408 64.998719 
L 281.133516 66.228742 
L 273.611623 67.371258 
L 266.089731 66.541936 
L 258.567839 68.595902 
L 251.045946 68.646046 
L 243.524054 70.416409 
L 236.002161 69.165467 
L 228.480269 70.164779 
L 220.958377 70.235349 
L 213.436484 69.753193 
L 205.914592 72.132534 
L 198.392699 70.573354 
L 190.870807 72.083601 
L 183.348915 73.073134 
L 175.827022 72.931187 
L 168.30513 72.489628 
L 160.783237 77.137829 
L 153.261345 78.596214 
L 145.739453 79.523353 
L 138.21756 80.913479 
L 130.695668 78.339899 
L 123.173776 82.941116 
L 115.651883 85.306556 
L 108.129991 83.453377 
L 100.608098 85.41201 
L 93.086206 92.25758 
L 85.564314 93.303748 
L 78.042421 99.208016 
L 70.520529 103.08905 
L 62.998636 109.692562 
z
" style="fill:#1f77b4;fill-opacity:0.5;"/>
   </g>
   <g id="PolyCollection_2">
    <path clip-path="url(#p3e4ec8f829)" d="M 62.998636 107.149301 
L 62.998636 271.388171 
L 70.520529 116.336471 
L 78.042421 107.067222 
L 85.564314 102.812314 
L 93.086206 96.124264 
L 100.608098 95.407586 
L 108.129991 91.760111 
L 115.651883 90.379869 
L 123.173776 86.690733 
L 130.695668 83.941264 
L 138.21756 85.018443 
L 145.739453 83.277983 
L 153.261345 84.161009 
L 160.783237 82.416948 
L 168.30513 81.154338 
L 175.827022 79.688005 
L 183.348915 83.280049 
L 190.870807 82.461296 
L 198.392699 80.316276 
L 205.914592 78.860163 
L 213.436484 78.724405 
L 220.958377 77.328977 
L 228.480269 80.495786 
L 236.002161 79.295085 
L 243.524054 79.890308 
L 251.045946 79.128828 
L 258.567839 76.190253 
L 266.089731 78.472868 
L 273.611623 77.878207 
L 281.133516 79.330655 
L 288.655408 76.067669 
L 296.177301 78.005116 
L 303.699193 76.651053 
L 311.221085 76.43103 
L 318.742978 76.381178 
L 326.26487 75.015429 
L 333.786763 73.055866 
L 341.308655 74.306939 
L 348.830547 75.369476 
L 356.35244 74.421018 
L 363.874332 74.935953 
L 371.396224 73.055866 
L 378.918117 76.267192 
L 386.440009 75.441961 
L 393.961902 71.820426 
L 401.483794 70.459341 
L 409.005686 73.746201 
L 416.527579 73.587657 
L 424.049471 71.457552 
L 431.571364 73.025361 
L 431.571364 69.189182 
L 431.571364 69.189182 
L 424.049471 67.168573 
L 416.527579 68.114255 
L 409.005686 68.468341 
L 401.483794 68.166785 
L 393.961902 68.343593 
L 386.440009 66.772582 
L 378.918117 66.459982 
L 371.396224 68.646046 
L 363.874332 66.765958 
L 356.35244 67.280893 
L 348.830547 67.870329 
L 341.308655 70.470759 
L 333.786763 68.646046 
L 326.26487 68.737007 
L 318.742978 70.447044 
L 311.221085 70.909824 
L 303.699193 69.151907 
L 296.177301 69.335738 
L 288.655408 68.710029 
L 281.133516 73.13651 
L 273.611623 71.00054 
L 266.089731 67.842724 
L 258.567839 73.201125 
L 251.045946 73.850968 
L 243.524054 73.089488 
L 236.002161 74.709973 
L 228.480269 72.99664 
L 220.958377 72.575032 
L 213.436484 74.255391 
L 205.914592 72.58174 
L 198.392699 73.176151 
L 190.870807 74.619548 
L 183.348915 75.851319 
L 175.827022 76.880209 
L 168.30513 75.926506 
L 160.783237 78.252314 
L 153.261345 77.020884 
L 145.739453 79.441803 
L 138.21756 80.264498 
L 130.695668 80.316415 
L 123.173776 81.667995 
L 115.651883 83.617801 
L 108.129991 85.825977 
L 100.608098 88.842705 
L 93.086206 91.714445 
L 85.564314 97.842172 
L 78.042421 101.789362 
L 70.520529 102.260103 
L 62.998636 107.149301 
z
" style="fill:#ff7f0e;fill-opacity:0.5;"/>
   </g>
   <g id="PolyCollection_3">
    <path clip-path="url(#p3e4ec8f829)" d="M 62.998636 131.419103 
L 62.998636 138.95321 
L 70.520529 112.193533 
L 78.042421 107.08185 
L 85.564314 100.505879 
L 93.086206 97.156297 
L 100.608098 91.86883 
L 108.129991 89.716376 
L 115.651883 86.486204 
L 123.173776 85.161297 
L 130.695668 84.421396 
L 138.21756 83.558013 
L 145.739453 82.359262 
L 153.261345 82.252721 
L 160.783237 81.394631 
L 168.30513 78.986836 
L 175.827022 79.822 
L 183.348915 79.727996 
L 190.870807 77.81307 
L 198.392699 77.585293 
L 205.914592 78.201337 
L 213.436484 76.395894 
L 220.958377 75.843271 
L 228.480269 76.251798 
L 236.002161 75.2337 
L 243.524054 75.843271 
L 251.045946 74.617605 
L 258.567839 77.690579 
L 266.089731 74.879672 
L 273.611623 74.383581 
L 281.133516 72.388849 
L 288.655408 73.016691 
L 296.177301 73.503429 
L 303.699193 72.316516 
L 311.221085 72.164327 
L 318.742978 71.810001 
L 326.26487 73.025361 
L 333.786763 71.998538 
L 341.308655 72.543234 
L 348.830547 73.157796 
L 356.35244 71.908011 
L 363.874332 71.820426 
L 371.396224 73.305392 
L 378.918117 71.177404 
L 386.440009 69.825694 
L 393.961902 69.056747 
L 401.483794 71.439362 
L 409.005686 69.246845 
L 416.527579 69.177763 
L 424.049471 70.778623 
L 431.571364 71.541818 
L 431.571364 66.571676 
L 431.571364 66.571676 
L 424.049471 66.309609 
L 416.527579 66.885207 
L 409.005686 67.328756 
L 401.483794 66.161502 
L 393.961902 64.955698 
L 386.440009 67.775169 
L 378.918117 66.423459 
L 371.396224 67.371258 
L 363.874332 68.343593 
L 356.35244 67.743376 
L 348.830547 68.031485 
L 341.308655 68.133415 
L 333.786763 69.190742 
L 326.26487 69.189182 
L 318.742978 69.891911 
L 311.221085 67.999692 
L 303.699193 67.847502 
L 296.177301 69.736376 
L 288.655408 71.761007 
L 281.133516 70.338325 
L 273.611623 70.906748 
L 266.089731 70.410658 
L 258.567839 69.650275 
L 251.045946 69.647462 
L 243.524054 73.035475 
L 236.002161 72.619784 
L 228.480269 72.626949 
L 220.958377 73.035475 
L 213.436484 72.995484 
L 205.914592 72.727935 
L 198.392699 72.831348 
L 190.870807 76.191988 
L 183.348915 76.327586 
L 175.827022 77.771475 
L 168.30513 77.068746 
L 160.783237 75.686213 
L 153.261345 78.416541 
L 145.739453 79.847893 
L 138.21756 77.62388 
L 130.695668 79.836284 
L 123.173776 82.172169 
L 115.651883 82.385155 
L 108.129991 85.306556 
L 100.608098 85.717257 
L 93.086206 89.65715 
L 85.564314 92.971772 
L 78.042421 99.72421 
L 70.520529 106.915673 
L 62.998636 131.419103 
z
" style="fill:#2ca02c;fill-opacity:0.5;"/>
   </g>
   <g id="PolyCollection_4">
    <path clip-path="url(#p3e4ec8f829)" d="M 62.998636 253.113503 
L 62.998636 292.037273 
L 70.520529 173.259172 
L 78.042421 148.487776 
L 85.564314 138.237774 
L 93.086206 133.150018 
L 100.608098 128.97892 
L 108.129991 125.833543 
L 115.651883 123.386206 
L 123.173776 120.32414 
L 130.695668 118.305456 
L 138.21756 116.801207 
L 145.739453 115.202354 
L 153.261345 113.863465 
L 160.783237 112.179102 
L 168.30513 110.688332 
L 175.827022 109.87103 
L 183.348915 108.55087 
L 190.870807 107.138721 
L 198.392699 106.093871 
L 205.914592 104.892082 
L 213.436484 103.932163 
L 220.958377 102.703494 
L 228.480269 101.887014 
L 236.002161 100.853997 
L 243.524054 100.303967 
L 251.045946 99.669221 
L 258.567839 99.012069 
L 266.089731 98.4744 
L 273.611623 97.965647 
L 281.133516 97.378796 
L 288.655408 97.114034 
L 296.177301 96.797143 
L 303.699193 96.459415 
L 311.221085 95.948728 
L 318.742978 95.657126 
L 326.26487 95.18602 
L 333.786763 94.833543 
L 341.308655 94.630171 
L 348.830547 94.475579 
L 356.35244 94.296899 
L 363.874332 93.867495 
L 371.396224 93.911933 
L 378.918117 93.359866 
L 386.440009 92.805209 
L 393.961902 92.402836 
L 401.483794 92.426922 
L 409.005686 92.303863 
L 416.527579 92.416921 
L 424.049471 91.886943 
L 431.571364 91.831045 
L 431.571364 90.134963 
L 431.571364 90.134963 
L 424.049471 90.200558 
L 416.527579 90.23755 
L 409.005686 90.634093 
L 401.483794 90.713523 
L 393.961902 90.697112 
L 386.440009 90.740215 
L 378.918117 90.91452 
L 371.396224 91.172409 
L 363.874332 91.257346 
L 356.35244 91.759392 
L 348.830547 91.945192 
L 341.308655 92.195579 
L 333.786763 92.680671 
L 326.26487 92.854666 
L 318.742978 93.598496 
L 311.221085 93.347391 
L 303.699193 93.68716 
L 296.177301 94.361878 
L 288.655408 94.692953 
L 281.133516 95.238148 
L 273.611623 96.068721 
L 266.089731 96.734406 
L 258.567839 97.047192 
L 251.045946 97.523981 
L 243.524054 97.820685 
L 236.002161 98.283101 
L 228.480269 99.153484 
L 220.958377 99.551939 
L 213.436484 100.469656 
L 205.914592 101.291643 
L 198.392699 102.438729 
L 190.870807 103.499768 
L 183.348915 104.760478 
L 175.827022 105.991682 
L 168.30513 107.401762 
L 160.783237 108.381362 
L 153.261345 109.896329 
L 145.739453 111.432789 
L 138.21756 112.304304 
L 130.695668 113.796897 
L 123.173776 115.666007 
L 115.651883 117.544679 
L 108.129991 119.876089 
L 100.608098 123.412858 
L 93.086206 126.531375 
L 85.564314 130.47464 
L 78.042421 139.096639 
L 70.520529 161.748231 
L 62.998636 253.113503 
z
" style="fill:#d62728;fill-opacity:0.5;"/>
   </g>
   <g id="matplotlib.axis_1">
    <g id="xtick_1">
     <g id="line2d_1">
      <defs>
       <path d="M 0 0 
L 0 3.5 
" id="ma70f90497b" style="stroke:#000000;stroke-width:0.8;"/>
      </defs>
      <g>
       <use style="stroke:#000000;stroke-width:0.8;" x="62.998636" xlink:href="#ma70f90497b" y="303.64"/>
      </g>
     </g>
     <g id="text_1">
      <!-- 0 -->
      <g transform="translate(59.817386 318.238437)scale(0.1 -0.1)">
       <defs>
        <path d="M 2034 4250 
Q 1547 4250 1301 3770 
Q 1056 3291 1056 2328 
Q 1056 1369 1301 889 
Q 1547 409 2034 409 
Q 2525 409 2770 889 
Q 3016 1369 3016 2328 
Q 3016 3291 2770 3770 
Q 2525 4250 2034 4250 
z
M 2034 4750 
Q 2819 4750 3233 4129 
Q 3647 3509 3647 2328 
Q 3647 1150 3233 529 
Q 2819 -91 2034 -91 
Q 1250 -91 836 529 
Q 422 1150 422 2328 
Q 422 3509 836 4129 
Q 1250 4750 2034 4750 
z
" id="DejaVuSans-30" transform="scale(0.015625)"/>
       </defs>
       <use xlink:href="#DejaVuSans-30"/>
      </g>
     </g>
    </g>
    <g id="xtick_2">
     <g id="line2d_2">
      <g>
       <use style="stroke:#000000;stroke-width:0.8;" x="138.21756" xlink:href="#ma70f90497b" y="303.64"/>
      </g>
     </g>
     <g id="text_2">
      <!-- 10 -->
      <g transform="translate(131.85506 318.238437)scale(0.1 -0.1)">
       <defs>
        <path d="M 794 531 
L 1825 531 
L 1825 4091 
L 703 3866 
L 703 4441 
L 1819 4666 
L 2450 4666 
L 2450 531 
L 3481 531 
L 3481 0 
L 794 0 
L 794 531 
z
" id="DejaVuSans-31" transform="scale(0.015625)"/>
       </defs>
       <use xlink:href="#DejaVuSans-31"/>
       <use x="63.623047" xlink:href="#DejaVuSans-30"/>
      </g>
     </g>
    </g>
    <g id="xtick_3">
     <g id="line2d_3">
      <g>
       <use style="stroke:#000000;stroke-width:0.8;" x="213.436484" xlink:href="#ma70f90497b" y="303.64"/>
      </g>
     </g>
     <g id="text_3">
      <!-- 20 -->
      <g transform="translate(207.073984 318.238437)scale(0.1 -0.1)">
       <defs>
        <path d="M 1228 531 
L 3431 531 
L 3431 0 
L 469 0 
L 469 531 
Q 828 903 1448 1529 
Q 2069 2156 2228 2338 
Q 2531 2678 2651 2914 
Q 2772 3150 2772 3378 
Q 2772 3750 2511 3984 
Q 2250 4219 1831 4219 
Q 1534 4219 1204 4116 
Q 875 4013 500 3803 
L 500 4441 
Q 881 4594 1212 4672 
Q 1544 4750 1819 4750 
Q 2544 4750 2975 4387 
Q 3406 4025 3406 3419 
Q 3406 3131 3298 2873 
Q 3191 2616 2906 2266 
Q 2828 2175 2409 1742 
Q 1991 1309 1228 531 
z
" id="DejaVuSans-32" transform="scale(0.015625)"/>
       </defs>
       <use xlink:href="#DejaVuSans-32"/>
       <use x="63.623047" xlink:href="#DejaVuSans-30"/>
      </g>
     </g>
    </g>
    <g id="xtick_4">
     <g id="line2d_4">
      <g>
       <use style="stroke:#000000;stroke-width:0.8;" x="288.655408" xlink:href="#ma70f90497b" y="303.64"/>
      </g>
     </g>
     <g id="text_4">
      <!-- 30 -->
      <g transform="translate(282.292908 318.238437)scale(0.1 -0.1)">
       <defs>
        <path d="M 2597 2516 
Q 3050 2419 3304 2112 
Q 3559 1806 3559 1356 
Q 3559 666 3084 287 
Q 2609 -91 1734 -91 
Q 1441 -91 1130 -33 
Q 819 25 488 141 
L 488 750 
Q 750 597 1062 519 
Q 1375 441 1716 441 
Q 2309 441 2620 675 
Q 2931 909 2931 1356 
Q 2931 1769 2642 2001 
Q 2353 2234 1838 2234 
L 1294 2234 
L 1294 2753 
L 1863 2753 
Q 2328 2753 2575 2939 
Q 2822 3125 2822 3475 
Q 2822 3834 2567 4026 
Q 2313 4219 1838 4219 
Q 1578 4219 1281 4162 
Q 984 4106 628 3988 
L 628 4550 
Q 988 4650 1302 4700 
Q 1616 4750 1894 4750 
Q 2613 4750 3031 4423 
Q 3450 4097 3450 3541 
Q 3450 3153 3228 2886 
Q 3006 2619 2597 2516 
z
" id="DejaVuSans-33" transform="scale(0.015625)"/>
       </defs>
       <use xlink:href="#DejaVuSans-33"/>
       <use x="63.623047" xlink:href="#DejaVuSans-30"/>
      </g>
     </g>
    </g>
    <g id="xtick_5">
     <g id="line2d_5">
      <g>
       <use style="stroke:#000000;stroke-width:0.8;" x="363.874332" xlink:href="#ma70f90497b" y="303.64"/>
      </g>
     </g>
     <g id="text_5">
      <!-- 40 -->
      <g transform="translate(357.511832 318.238437)scale(0.1 -0.1)">
       <defs>
        <path d="M 2419 4116 
L 825 1625 
L 2419 1625 
L 2419 4116 
z
M 2253 4666 
L 3047 4666 
L 3047 1625 
L 3713 1625 
L 3713 1100 
L 3047 1100 
L 3047 0 
L 2419 0 
L 2419 1100 
L 313 1100 
L 313 1709 
L 2253 4666 
z
" id="DejaVuSans-34" transform="scale(0.015625)"/>
       </defs>
       <use xlink:href="#DejaVuSans-34"/>
       <use x="63.623047" xlink:href="#DejaVuSans-30"/>
      </g>
     </g>
    </g>
    <g id="xtick_6">
     <g id="line2d_6">
      <g>
       <use style="stroke:#000000;stroke-width:0.8;" x="439.093256" xlink:href="#ma70f90497b" y="303.64"/>
      </g>
     </g>
     <g id="text_6">
      <!-- 50 -->
      <g transform="translate(432.730756 318.238437)scale(0.1 -0.1)">
       <defs>
        <path d="M 691 4666 
L 3169 4666 
L 3169 4134 
L 1269 4134 
L 1269 2991 
Q 1406 3038 1543 3061 
Q 1681 3084 1819 3084 
Q 2600 3084 3056 2656 
Q 3513 2228 3513 1497 
Q 3513 744 3044 326 
Q 2575 -91 1722 -91 
Q 1428 -91 1123 -41 
Q 819 9 494 109 
L 494 744 
Q 775 591 1075 516 
Q 1375 441 1709 441 
Q 2250 441 2565 725 
Q 2881 1009 2881 1497 
Q 2881 1984 2565 2268 
Q 2250 2553 1709 2553 
Q 1456 2553 1204 2497 
Q 953 2441 691 2322 
L 691 4666 
z
" id="DejaVuSans-35" transform="scale(0.015625)"/>
       </defs>
       <use xlink:href="#DejaVuSans-35"/>
       <use x="63.623047" xlink:href="#DejaVuSans-30"/>
      </g>
     </g>
    </g>
    <g id="text_7">
     <!-- Global Communication Rounds -->
     <g transform="translate(170.323281 331.916562)scale(0.1 -0.1)">
      <defs>
       <path d="M 3809 666 
L 3809 1919 
L 2778 1919 
L 2778 2438 
L 4434 2438 
L 4434 434 
Q 4069 175 3628 42 
Q 3188 -91 2688 -91 
Q 1594 -91 976 548 
Q 359 1188 359 2328 
Q 359 3472 976 4111 
Q 1594 4750 2688 4750 
Q 3144 4750 3555 4637 
Q 3966 4525 4313 4306 
L 4313 3634 
Q 3963 3931 3569 4081 
Q 3175 4231 2741 4231 
Q 1884 4231 1454 3753 
Q 1025 3275 1025 2328 
Q 1025 1384 1454 906 
Q 1884 428 2741 428 
Q 3075 428 3337 486 
Q 3600 544 3809 666 
z
" id="DejaVuSans-47" transform="scale(0.015625)"/>
       <path d="M 603 4863 
L 1178 4863 
L 1178 0 
L 603 0 
L 603 4863 
z
" id="DejaVuSans-6c" transform="scale(0.015625)"/>
       <path d="M 1959 3097 
Q 1497 3097 1228 2736 
Q 959 2375 959 1747 
Q 959 1119 1226 758 
Q 1494 397 1959 397 
Q 2419 397 2687 759 
Q 2956 1122 2956 1747 
Q 2956 2369 2687 2733 
Q 2419 3097 1959 3097 
z
M 1959 3584 
Q 2709 3584 3137 3096 
Q 3566 2609 3566 1747 
Q 3566 888 3137 398 
Q 2709 -91 1959 -91 
Q 1206 -91 779 398 
Q 353 888 353 1747 
Q 353 2609 779 3096 
Q 1206 3584 1959 3584 
z
" id="DejaVuSans-6f" transform="scale(0.015625)"/>
       <path d="M 3116 1747 
Q 3116 2381 2855 2742 
Q 2594 3103 2138 3103 
Q 1681 3103 1420 2742 
Q 1159 2381 1159 1747 
Q 1159 1113 1420 752 
Q 1681 391 2138 391 
Q 2594 391 2855 752 
Q 3116 1113 3116 1747 
z
M 1159 2969 
Q 1341 3281 1617 3432 
Q 1894 3584 2278 3584 
Q 2916 3584 3314 3078 
Q 3713 2572 3713 1747 
Q 3713 922 3314 415 
Q 2916 -91 2278 -91 
Q 1894 -91 1617 61 
Q 1341 213 1159 525 
L 1159 0 
L 581 0 
L 581 4863 
L 1159 4863 
L 1159 2969 
z
" id="DejaVuSans-62" transform="scale(0.015625)"/>
       <path d="M 2194 1759 
Q 1497 1759 1228 1600 
Q 959 1441 959 1056 
Q 959 750 1161 570 
Q 1363 391 1709 391 
Q 2188 391 2477 730 
Q 2766 1069 2766 1631 
L 2766 1759 
L 2194 1759 
z
M 3341 1997 
L 3341 0 
L 2766 0 
L 2766 531 
Q 2569 213 2275 61 
Q 1981 -91 1556 -91 
Q 1019 -91 701 211 
Q 384 513 384 1019 
Q 384 1609 779 1909 
Q 1175 2209 1959 2209 
L 2766 2209 
L 2766 2266 
Q 2766 2663 2505 2880 
Q 2244 3097 1772 3097 
Q 1472 3097 1187 3025 
Q 903 2953 641 2809 
L 641 3341 
Q 956 3463 1253 3523 
Q 1550 3584 1831 3584 
Q 2591 3584 2966 3190 
Q 3341 2797 3341 1997 
z
" id="DejaVuSans-61" transform="scale(0.015625)"/>
       <path id="DejaVuSans-20" transform="scale(0.015625)"/>
       <path d="M 4122 4306 
L 4122 3641 
Q 3803 3938 3442 4084 
Q 3081 4231 2675 4231 
Q 1875 4231 1450 3742 
Q 1025 3253 1025 2328 
Q 1025 1406 1450 917 
Q 1875 428 2675 428 
Q 3081 428 3442 575 
Q 3803 722 4122 1019 
L 4122 359 
Q 3791 134 3420 21 
Q 3050 -91 2638 -91 
Q 1578 -91 968 557 
Q 359 1206 359 2328 
Q 359 3453 968 4101 
Q 1578 4750 2638 4750 
Q 3056 4750 3426 4639 
Q 3797 4528 4122 4306 
z
" id="DejaVuSans-43" transform="scale(0.015625)"/>
       <path d="M 3328 2828 
Q 3544 3216 3844 3400 
Q 4144 3584 4550 3584 
Q 5097 3584 5394 3201 
Q 5691 2819 5691 2113 
L 5691 0 
L 5113 0 
L 5113 2094 
Q 5113 2597 4934 2840 
Q 4756 3084 4391 3084 
Q 3944 3084 3684 2787 
Q 3425 2491 3425 1978 
L 3425 0 
L 2847 0 
L 2847 2094 
Q 2847 2600 2669 2842 
Q 2491 3084 2119 3084 
Q 1678 3084 1418 2786 
Q 1159 2488 1159 1978 
L 1159 0 
L 581 0 
L 581 3500 
L 1159 3500 
L 1159 2956 
Q 1356 3278 1631 3431 
Q 1906 3584 2284 3584 
Q 2666 3584 2933 3390 
Q 3200 3197 3328 2828 
z
" id="DejaVuSans-6d" transform="scale(0.015625)"/>
       <path d="M 544 1381 
L 544 3500 
L 1119 3500 
L 1119 1403 
Q 1119 906 1312 657 
Q 1506 409 1894 409 
Q 2359 409 2629 706 
Q 2900 1003 2900 1516 
L 2900 3500 
L 3475 3500 
L 3475 0 
L 2900 0 
L 2900 538 
Q 2691 219 2414 64 
Q 2138 -91 1772 -91 
Q 1169 -91 856 284 
Q 544 659 544 1381 
z
M 1991 3584 
L 1991 3584 
z
" id="DejaVuSans-75" transform="scale(0.015625)"/>
       <path d="M 3513 2113 
L 3513 0 
L 2938 0 
L 2938 2094 
Q 2938 2591 2744 2837 
Q 2550 3084 2163 3084 
Q 1697 3084 1428 2787 
Q 1159 2491 1159 1978 
L 1159 0 
L 581 0 
L 581 3500 
L 1159 3500 
L 1159 2956 
Q 1366 3272 1645 3428 
Q 1925 3584 2291 3584 
Q 2894 3584 3203 3211 
Q 3513 2838 3513 2113 
z
" id="DejaVuSans-6e" transform="scale(0.015625)"/>
       <path d="M 603 3500 
L 1178 3500 
L 1178 0 
L 603 0 
L 603 3500 
z
M 603 4863 
L 1178 4863 
L 1178 4134 
L 603 4134 
L 603 4863 
z
" id="DejaVuSans-69" transform="scale(0.015625)"/>
       <path d="M 3122 3366 
L 3122 2828 
Q 2878 2963 2633 3030 
Q 2388 3097 2138 3097 
Q 1578 3097 1268 2742 
Q 959 2388 959 1747 
Q 959 1106 1268 751 
Q 1578 397 2138 397 
Q 2388 397 2633 464 
Q 2878 531 3122 666 
L 3122 134 
Q 2881 22 2623 -34 
Q 2366 -91 2075 -91 
Q 1284 -91 818 406 
Q 353 903 353 1747 
Q 353 2603 823 3093 
Q 1294 3584 2113 3584 
Q 2378 3584 2631 3529 
Q 2884 3475 3122 3366 
z
" id="DejaVuSans-63" transform="scale(0.015625)"/>
       <path d="M 1172 4494 
L 1172 3500 
L 2356 3500 
L 2356 3053 
L 1172 3053 
L 1172 1153 
Q 1172 725 1289 603 
Q 1406 481 1766 481 
L 2356 481 
L 2356 0 
L 1766 0 
Q 1100 0 847 248 
Q 594 497 594 1153 
L 594 3053 
L 172 3053 
L 172 3500 
L 594 3500 
L 594 4494 
L 1172 4494 
z
" id="DejaVuSans-74" transform="scale(0.015625)"/>
       <path d="M 2841 2188 
Q 3044 2119 3236 1894 
Q 3428 1669 3622 1275 
L 4263 0 
L 3584 0 
L 2988 1197 
Q 2756 1666 2539 1819 
Q 2322 1972 1947 1972 
L 1259 1972 
L 1259 0 
L 628 0 
L 628 4666 
L 2053 4666 
Q 2853 4666 3247 4331 
Q 3641 3997 3641 3322 
Q 3641 2881 3436 2590 
Q 3231 2300 2841 2188 
z
M 1259 4147 
L 1259 2491 
L 2053 2491 
Q 2509 2491 2742 2702 
Q 2975 2913 2975 3322 
Q 2975 3731 2742 3939 
Q 2509 4147 2053 4147 
L 1259 4147 
z
" id="DejaVuSans-52" transform="scale(0.015625)"/>
       <path d="M 2906 2969 
L 2906 4863 
L 3481 4863 
L 3481 0 
L 2906 0 
L 2906 525 
Q 2725 213 2448 61 
Q 2172 -91 1784 -91 
Q 1150 -91 751 415 
Q 353 922 353 1747 
Q 353 2572 751 3078 
Q 1150 3584 1784 3584 
Q 2172 3584 2448 3432 
Q 2725 3281 2906 2969 
z
M 947 1747 
Q 947 1113 1208 752 
Q 1469 391 1925 391 
Q 2381 391 2643 752 
Q 2906 1113 2906 1747 
Q 2906 2381 2643 2742 
Q 2381 3103 1925 3103 
Q 1469 3103 1208 2742 
Q 947 2381 947 1747 
z
" id="DejaVuSans-64" transform="scale(0.015625)"/>
       <path d="M 2834 3397 
L 2834 2853 
Q 2591 2978 2328 3040 
Q 2066 3103 1784 3103 
Q 1356 3103 1142 2972 
Q 928 2841 928 2578 
Q 928 2378 1081 2264 
Q 1234 2150 1697 2047 
L 1894 2003 
Q 2506 1872 2764 1633 
Q 3022 1394 3022 966 
Q 3022 478 2636 193 
Q 2250 -91 1575 -91 
Q 1294 -91 989 -36 
Q 684 19 347 128 
L 347 722 
Q 666 556 975 473 
Q 1284 391 1588 391 
Q 1994 391 2212 530 
Q 2431 669 2431 922 
Q 2431 1156 2273 1281 
Q 2116 1406 1581 1522 
L 1381 1569 
Q 847 1681 609 1914 
Q 372 2147 372 2553 
Q 372 3047 722 3315 
Q 1072 3584 1716 3584 
Q 2034 3584 2315 3537 
Q 2597 3491 2834 3397 
z
" id="DejaVuSans-73" transform="scale(0.015625)"/>
      </defs>
      <use xlink:href="#DejaVuSans-47"/>
      <use x="77.490234" xlink:href="#DejaVuSans-6c"/>
      <use x="105.273438" xlink:href="#DejaVuSans-6f"/>
      <use x="166.455078" xlink:href="#DejaVuSans-62"/>
      <use x="229.931641" xlink:href="#DejaVuSans-61"/>
      <use x="291.210938" xlink:href="#DejaVuSans-6c"/>
      <use x="318.994141" xlink:href="#DejaVuSans-20"/>
      <use x="350.78125" xlink:href="#DejaVuSans-43"/>
      <use x="420.605469" xlink:href="#DejaVuSans-6f"/>
      <use x="481.787109" xlink:href="#DejaVuSans-6d"/>
      <use x="579.199219" xlink:href="#DejaVuSans-6d"/>
      <use x="676.611328" xlink:href="#DejaVuSans-75"/>
      <use x="739.990234" xlink:href="#DejaVuSans-6e"/>
      <use x="803.369141" xlink:href="#DejaVuSans-69"/>
      <use x="831.152344" xlink:href="#DejaVuSans-63"/>
      <use x="886.132812" xlink:href="#DejaVuSans-61"/>
      <use x="947.412109" xlink:href="#DejaVuSans-74"/>
      <use x="986.621094" xlink:href="#DejaVuSans-69"/>
      <use x="1014.404297" xlink:href="#DejaVuSans-6f"/>
      <use x="1075.585938" xlink:href="#DejaVuSans-6e"/>
      <use x="1138.964844" xlink:href="#DejaVuSans-20"/>
      <use x="1170.751953" xlink:href="#DejaVuSans-52"/>
      <use x="1235.734375" xlink:href="#DejaVuSans-6f"/>
      <use x="1296.916016" xlink:href="#DejaVuSans-75"/>
      <use x="1360.294922" xlink:href="#DejaVuSans-6e"/>
      <use x="1423.673828" xlink:href="#DejaVuSans-64"/>
      <use x="1487.150391" xlink:href="#DejaVuSans-73"/>
     </g>
    </g>
   </g>
   <g id="matplotlib.axis_2">
    <g id="ytick_1">
     <g id="line2d_7">
      <defs>
       <path d="M 0 0 
L -3.5 0 
" id="ma1c5cc8c00" style="stroke:#000000;stroke-width:0.8;"/>
      </defs>
      <g>
       <use style="stroke:#000000;stroke-width:0.8;" x="44.57" xlink:href="#ma1c5cc8c00" y="296.793105"/>
      </g>
     </g>
     <g id="text_8">
      <!-- 75 -->
      <g transform="translate(24.845 300.592324)scale(0.1 -0.1)">
       <defs>
        <path d="M 525 4666 
L 3525 4666 
L 3525 4397 
L 1831 0 
L 1172 0 
L 2766 4134 
L 525 4134 
L 525 4666 
z
" id="DejaVuSans-37" transform="scale(0.015625)"/>
       </defs>
       <use xlink:href="#DejaVuSans-37"/>
       <use x="63.623047" xlink:href="#DejaVuSans-35"/>
      </g>
     </g>
    </g>
    <g id="ytick_2">
     <g id="line2d_8">
      <g>
       <use style="stroke:#000000;stroke-width:0.8;" x="44.57" xlink:href="#ma1c5cc8c00" y="246.170786"/>
      </g>
     </g>
     <g id="text_9">
      <!-- 80 -->
      <g transform="translate(24.845 249.970005)scale(0.1 -0.1)">
       <defs>
        <path d="M 2034 2216 
Q 1584 2216 1326 1975 
Q 1069 1734 1069 1313 
Q 1069 891 1326 650 
Q 1584 409 2034 409 
Q 2484 409 2743 651 
Q 3003 894 3003 1313 
Q 3003 1734 2745 1975 
Q 2488 2216 2034 2216 
z
M 1403 2484 
Q 997 2584 770 2862 
Q 544 3141 544 3541 
Q 544 4100 942 4425 
Q 1341 4750 2034 4750 
Q 2731 4750 3128 4425 
Q 3525 4100 3525 3541 
Q 3525 3141 3298 2862 
Q 3072 2584 2669 2484 
Q 3125 2378 3379 2068 
Q 3634 1759 3634 1313 
Q 3634 634 3220 271 
Q 2806 -91 2034 -91 
Q 1263 -91 848 271 
Q 434 634 434 1313 
Q 434 1759 690 2068 
Q 947 2378 1403 2484 
z
M 1172 3481 
Q 1172 3119 1398 2916 
Q 1625 2713 2034 2713 
Q 2441 2713 2670 2916 
Q 2900 3119 2900 3481 
Q 2900 3844 2670 4047 
Q 2441 4250 2034 4250 
Q 1625 4250 1398 4047 
Q 1172 3844 1172 3481 
z
" id="DejaVuSans-38" transform="scale(0.015625)"/>
       </defs>
       <use xlink:href="#DejaVuSans-38"/>
       <use x="63.623047" xlink:href="#DejaVuSans-30"/>
      </g>
     </g>
    </g>
    <g id="ytick_3">
     <g id="line2d_9">
      <g>
       <use style="stroke:#000000;stroke-width:0.8;" x="44.57" xlink:href="#ma1c5cc8c00" y="195.548467"/>
      </g>
     </g>
     <g id="text_10">
      <!-- 85 -->
      <g transform="translate(24.845 199.347685)scale(0.1 -0.1)">
       <use xlink:href="#DejaVuSans-38"/>
       <use x="63.623047" xlink:href="#DejaVuSans-35"/>
      </g>
     </g>
    </g>
    <g id="ytick_4">
     <g id="line2d_10">
      <g>
       <use style="stroke:#000000;stroke-width:0.8;" x="44.57" xlink:href="#ma1c5cc8c00" y="144.926147"/>
      </g>
     </g>
     <g id="text_11">
      <!-- 90 -->
      <g transform="translate(24.845 148.725366)scale(0.1 -0.1)">
       <defs>
        <path d="M 703 97 
L 703 672 
Q 941 559 1184 500 
Q 1428 441 1663 441 
Q 2288 441 2617 861 
Q 2947 1281 2994 2138 
Q 2813 1869 2534 1725 
Q 2256 1581 1919 1581 
Q 1219 1581 811 2004 
Q 403 2428 403 3163 
Q 403 3881 828 4315 
Q 1253 4750 1959 4750 
Q 2769 4750 3195 4129 
Q 3622 3509 3622 2328 
Q 3622 1225 3098 567 
Q 2575 -91 1691 -91 
Q 1453 -91 1209 -44 
Q 966 3 703 97 
z
M 1959 2075 
Q 2384 2075 2632 2365 
Q 2881 2656 2881 3163 
Q 2881 3666 2632 3958 
Q 2384 4250 1959 4250 
Q 1534 4250 1286 3958 
Q 1038 3666 1038 3163 
Q 1038 2656 1286 2365 
Q 1534 2075 1959 2075 
z
" id="DejaVuSans-39" transform="scale(0.015625)"/>
       </defs>
       <use xlink:href="#DejaVuSans-39"/>
       <use x="63.623047" xlink:href="#DejaVuSans-30"/>
      </g>
     </g>
    </g>
    <g id="ytick_5">
     <g id="line2d_11">
      <g>
       <use style="stroke:#000000;stroke-width:0.8;" x="44.57" xlink:href="#ma1c5cc8c00" y="94.303828"/>
      </g>
     </g>
     <g id="text_12">
      <!-- 95 -->
      <g transform="translate(24.845 98.103047)scale(0.1 -0.1)">
       <use xlink:href="#DejaVuSans-39"/>
       <use x="63.623047" xlink:href="#DejaVuSans-35"/>
      </g>
     </g>
    </g>
    <g id="text_13">
     <!-- Test Accuracy -->
     <g transform="translate(18.765313 210.2725)rotate(-90)scale(0.1 -0.1)">
      <defs>
       <path d="M -19 4666 
L 3928 4666 
L 3928 4134 
L 2272 4134 
L 2272 0 
L 1638 0 
L 1638 4134 
L -19 4134 
L -19 4666 
z
" id="DejaVuSans-54" transform="scale(0.015625)"/>
       <path d="M 3597 1894 
L 3597 1613 
L 953 1613 
Q 991 1019 1311 708 
Q 1631 397 2203 397 
Q 2534 397 2845 478 
Q 3156 559 3463 722 
L 3463 178 
Q 3153 47 2828 -22 
Q 2503 -91 2169 -91 
Q 1331 -91 842 396 
Q 353 884 353 1716 
Q 353 2575 817 3079 
Q 1281 3584 2069 3584 
Q 2775 3584 3186 3129 
Q 3597 2675 3597 1894 
z
M 3022 2063 
Q 3016 2534 2758 2815 
Q 2500 3097 2075 3097 
Q 1594 3097 1305 2825 
Q 1016 2553 972 2059 
L 3022 2063 
z
" id="DejaVuSans-65" transform="scale(0.015625)"/>
       <path d="M 2188 4044 
L 1331 1722 
L 3047 1722 
L 2188 4044 
z
M 1831 4666 
L 2547 4666 
L 4325 0 
L 3669 0 
L 3244 1197 
L 1141 1197 
L 716 0 
L 50 0 
L 1831 4666 
z
" id="DejaVuSans-41" transform="scale(0.015625)"/>
       <path d="M 2631 2963 
Q 2534 3019 2420 3045 
Q 2306 3072 2169 3072 
Q 1681 3072 1420 2755 
Q 1159 2438 1159 1844 
L 1159 0 
L 581 0 
L 581 3500 
L 1159 3500 
L 1159 2956 
Q 1341 3275 1631 3429 
Q 1922 3584 2338 3584 
Q 2397 3584 2469 3576 
Q 2541 3569 2628 3553 
L 2631 2963 
z
" id="DejaVuSans-72" transform="scale(0.015625)"/>
       <path d="M 2059 -325 
Q 1816 -950 1584 -1140 
Q 1353 -1331 966 -1331 
L 506 -1331 
L 506 -850 
L 844 -850 
Q 1081 -850 1212 -737 
Q 1344 -625 1503 -206 
L 1606 56 
L 191 3500 
L 800 3500 
L 1894 763 
L 2988 3500 
L 3597 3500 
L 2059 -325 
z
" id="DejaVuSans-79" transform="scale(0.015625)"/>
      </defs>
      <use xlink:href="#DejaVuSans-54"/>
      <use x="44.083984" xlink:href="#DejaVuSans-65"/>
      <use x="105.607422" xlink:href="#DejaVuSans-73"/>
      <use x="157.707031" xlink:href="#DejaVuSans-74"/>
      <use x="196.916016" xlink:href="#DejaVuSans-20"/>
      <use x="228.703125" xlink:href="#DejaVuSans-41"/>
      <use x="295.361328" xlink:href="#DejaVuSans-63"/>
      <use x="350.341797" xlink:href="#DejaVuSans-63"/>
      <use x="405.322266" xlink:href="#DejaVuSans-75"/>
      <use x="468.701172" xlink:href="#DejaVuSans-72"/>
      <use x="509.814453" xlink:href="#DejaVuSans-61"/>
      <use x="571.09375" xlink:href="#DejaVuSans-63"/>
      <use x="626.074219" xlink:href="#DejaVuSans-79"/>
     </g>
    </g>
   </g>
   <g id="line2d_12">
    <path clip-path="url(#p3e4ec8f829)" d="M 62.998636 164.149813 
L 70.520529 105.966185 
L 78.042421 101.352505 
L 85.564314 96.226194 
L 93.086206 94.17567 
L 100.608098 88.793044 
L 108.129991 87.255151 
L 115.651883 87.511466 
L 123.173776 84.43568 
L 130.695668 80.078315 
L 138.21756 81.872524 
L 145.739453 81.872524 
L 153.261345 80.334631 
L 160.783237 78.284107 
L 168.30513 77.002529 
L 175.827022 76.233582 
L 183.348915 77.771475 
L 190.870807 75.464636 
L 198.392699 73.670427 
L 205.914592 74.183058 
L 213.436484 73.414111 
L 220.958377 73.157796 
L 228.480269 72.90148 
L 236.002161 72.132534 
L 243.524054 72.90148 
L 251.045946 70.850956 
L 258.567839 71.107271 
L 266.089731 70.59464 
L 273.611623 70.338325 
L 281.133516 70.082009 
L 288.655408 68.031485 
L 296.177301 69.313063 
L 303.699193 68.2878 
L 311.221085 67.262538 
L 318.742978 68.544116 
L 326.26487 67.518854 
L 333.786763 68.544116 
L 341.308655 69.056747 
L 348.830547 65.468329 
L 356.35244 67.006223 
L 363.874332 65.980961 
L 371.396224 67.518854 
L 378.918117 65.980961 
L 386.440009 62.905174 
L 393.961902 66.237276 
L 401.483794 63.674121 
L 409.005686 63.674121 
L 416.527579 65.980961 
L 424.049471 65.980961 
L 431.571364 64.186752 
" style="fill:none;stroke:#1f77b4;stroke-linecap:square;stroke-width:1.5;"/>
   </g>
   <g id="line2d_13">
    <path clip-path="url(#p3e4ec8f829)" d="M 62.998636 189.268736 
L 70.520529 109.298287 
L 78.042421 104.428292 
L 85.564314 100.327243 
L 93.086206 93.919355 
L 100.608098 92.125146 
L 108.129991 88.793044 
L 115.651883 86.998835 
L 123.173776 84.179364 
L 130.695668 82.12884 
L 138.21756 82.641471 
L 145.739453 81.359893 
L 153.261345 80.590946 
L 160.783237 80.334631 
L 168.30513 78.540422 
L 175.827022 78.284107 
L 183.348915 79.565684 
L 190.870807 78.540422 
L 198.392699 76.746213 
L 205.914592 75.720951 
L 213.436484 76.489898 
L 220.958377 74.952005 
L 228.480269 76.746213 
L 236.002161 77.002529 
L 243.524054 76.489898 
L 251.045946 76.489898 
L 258.567839 74.695689 
L 266.089731 73.157796 
L 273.611623 74.439373 
L 281.133516 76.233582 
L 288.655408 72.388849 
L 296.177301 73.670427 
L 303.699193 72.90148 
L 311.221085 73.670427 
L 318.742978 73.414111 
L 326.26487 71.876218 
L 333.786763 70.850956 
L 341.308655 72.388849 
L 348.830547 71.619902 
L 356.35244 70.850956 
L 363.874332 70.850956 
L 371.396224 70.850956 
L 378.918117 71.363587 
L 386.440009 71.107271 
L 393.961902 70.082009 
L 401.483794 69.313063 
L 409.005686 71.107271 
L 416.527579 70.850956 
L 424.049471 69.313063 
L 431.571364 71.107271 
" style="fill:none;stroke:#ff7f0e;stroke-linecap:square;stroke-width:1.5;"/>
   </g>
   <g id="line2d_14">
    <path clip-path="url(#p3e4ec8f829)" d="M 62.998636 135.186157 
L 70.520529 109.554603 
L 78.042421 103.40303 
L 85.564314 96.738826 
L 93.086206 93.406723 
L 100.608098 88.793044 
L 108.129991 87.511466 
L 115.651883 84.43568 
L 123.173776 83.666733 
L 130.695668 82.12884 
L 138.21756 80.590946 
L 145.739453 81.103578 
L 153.261345 80.334631 
L 160.783237 78.540422 
L 168.30513 78.027791 
L 175.827022 78.796738 
L 183.348915 78.027791 
L 190.870807 77.002529 
L 198.392699 75.20832 
L 205.914592 75.464636 
L 213.436484 74.695689 
L 220.958377 74.439373 
L 228.480269 74.439373 
L 236.002161 73.926742 
L 243.524054 74.439373 
L 251.045946 72.132534 
L 258.567839 73.670427 
L 266.089731 72.645165 
L 273.611623 72.645165 
L 281.133516 71.363587 
L 288.655408 72.388849 
L 296.177301 71.619902 
L 303.699193 70.082009 
L 311.221085 70.082009 
L 318.742978 70.850956 
L 326.26487 71.107271 
L 333.786763 70.59464 
L 341.308655 70.338325 
L 348.830547 70.59464 
L 356.35244 69.825694 
L 363.874332 70.082009 
L 371.396224 70.338325 
L 378.918117 68.800432 
L 386.440009 68.800432 
L 393.961902 67.006223 
L 401.483794 68.800432 
L 409.005686 68.2878 
L 416.527579 68.031485 
L 424.049471 68.544116 
L 431.571364 69.056747 
" style="fill:none;stroke:#2ca02c;stroke-linecap:square;stroke-width:1.5;"/>
   </g>
   <g id="line2d_15">
    <path clip-path="url(#p3e4ec8f829)" d="M 62.998636 272.575388 
L 70.520529 167.503702 
L 78.042421 143.792207 
L 85.564314 134.356207 
L 93.086206 129.840696 
L 100.608098 126.195889 
L 108.129991 122.854816 
L 115.651883 120.465443 
L 123.173776 117.995073 
L 130.695668 116.051176 
L 138.21756 114.552756 
L 145.739453 113.317571 
L 153.261345 111.879897 
L 160.783237 110.280232 
L 168.30513 109.045047 
L 175.827022 107.931356 
L 183.348915 106.655674 
L 190.870807 105.319245 
L 198.392699 104.2663 
L 205.914592 103.091863 
L 213.436484 102.20091 
L 220.958377 101.127717 
L 228.480269 100.520249 
L 236.002161 99.568549 
L 243.524054 99.062326 
L 251.045946 98.596601 
L 258.567839 98.029631 
L 266.089731 97.604403 
L 273.611623 97.017184 
L 281.133516 96.308472 
L 288.655408 95.903493 
L 296.177301 95.57951 
L 303.699193 95.073287 
L 311.221085 94.64806 
L 318.742978 94.627811 
L 326.26487 94.020343 
L 333.786763 93.757107 
L 341.308655 93.412875 
L 348.830547 93.210386 
L 356.35244 93.028145 
L 363.874332 92.56242 
L 371.396224 92.542171 
L 378.918117 92.137193 
L 386.440009 91.772712 
L 393.961902 91.549974 
L 401.483794 91.570223 
L 409.005686 91.468978 
L 416.527579 91.327236 
L 424.049471 91.043751 
L 431.571364 90.983004 
" style="fill:none;stroke:#d62728;stroke-linecap:square;stroke-width:1.5;"/>
   </g>
   <g id="patch_3">
    <path d="M 44.57 303.64 
L 44.57 48.38 
" style="fill:none;stroke:#000000;stroke-linecap:square;stroke-linejoin:miter;stroke-width:0.8;"/>
   </g>
   <g id="patch_4">
    <path d="M 450 303.64 
L 450 48.38 
" style="fill:none;stroke:#000000;stroke-linecap:square;stroke-linejoin:miter;stroke-width:0.8;"/>
   </g>
   <g id="patch_5">
    <path d="M 44.57 303.64 
L 450 303.64 
" style="fill:none;stroke:#000000;stroke-linecap:square;stroke-linejoin:miter;stroke-width:0.8;"/>
   </g>
   <g id="patch_6">
    <path d="M 44.57 48.38 
L 450 48.38 
" style="fill:none;stroke:#000000;stroke-linecap:square;stroke-linejoin:miter;stroke-width:0.8;"/>
   </g>
   <g id="text_14">
    <!-- Local Rounds 25 -->
    <g transform="translate(198.174063 20.88)scale(0.12 -0.12)">
     <defs>
      <path d="M 628 4666 
L 1259 4666 
L 1259 531 
L 3531 531 
L 3531 0 
L 628 0 
L 628 4666 
z
" id="DejaVuSans-4c" transform="scale(0.015625)"/>
     </defs>
     <use xlink:href="#DejaVuSans-4c"/>
     <use x="53.962891" xlink:href="#DejaVuSans-6f"/>
     <use x="115.144531" xlink:href="#DejaVuSans-63"/>
     <use x="170.125" xlink:href="#DejaVuSans-61"/>
     <use x="231.404297" xlink:href="#DejaVuSans-6c"/>
     <use x="259.1875" xlink:href="#DejaVuSans-20"/>
     <use x="290.974609" xlink:href="#DejaVuSans-52"/>
     <use x="355.957031" xlink:href="#DejaVuSans-6f"/>
     <use x="417.138672" xlink:href="#DejaVuSans-75"/>
     <use x="480.517578" xlink:href="#DejaVuSans-6e"/>
     <use x="543.896484" xlink:href="#DejaVuSans-64"/>
     <use x="607.373047" xlink:href="#DejaVuSans-73"/>
     <use x="659.472656" xlink:href="#DejaVuSans-20"/>
     <use x="691.259766" xlink:href="#DejaVuSans-32"/>
     <use x="754.882812" xlink:href="#DejaVuSans-35"/>
    </g>
   </g>
   <g id="legend_1">
    <g id="patch_7">
     <path d="M 80.886563 45.532125 
L 413.683438 45.532125 
Q 415.683438 45.532125 415.683438 43.532125 
L 415.683438 29.854 
Q 415.683438 27.854 413.683438 27.854 
L 80.886563 27.854 
Q 78.886563 27.854 78.886563 29.854 
L 78.886563 43.532125 
Q 78.886563 45.532125 80.886563 45.532125 
z
" style="fill:#ffffff;opacity:0.8;stroke:#cccccc;stroke-linejoin:miter;"/>
    </g>
    <g id="line2d_16">
     <path d="M 82.886563 35.952438 
L 102.886563 35.952438 
" style="fill:none;stroke:#1f77b4;stroke-linecap:square;stroke-width:1.5;"/>
    </g>
    <g id="line2d_17"/>
    <g id="text_15">
     <!-- FedAvg -->
     <g transform="translate(110.886563 39.452438)scale(0.1 -0.1)">
      <defs>
       <path d="M 628 4666 
L 3309 4666 
L 3309 4134 
L 1259 4134 
L 1259 2759 
L 3109 2759 
L 3109 2228 
L 1259 2228 
L 1259 0 
L 628 0 
L 628 4666 
z
" id="DejaVuSans-46" transform="scale(0.015625)"/>
       <path d="M 191 3500 
L 800 3500 
L 1894 563 
L 2988 3500 
L 3597 3500 
L 2284 0 
L 1503 0 
L 191 3500 
z
" id="DejaVuSans-76" transform="scale(0.015625)"/>
       <path d="M 2906 1791 
Q 2906 2416 2648 2759 
Q 2391 3103 1925 3103 
Q 1463 3103 1205 2759 
Q 947 2416 947 1791 
Q 947 1169 1205 825 
Q 1463 481 1925 481 
Q 2391 481 2648 825 
Q 2906 1169 2906 1791 
z
M 3481 434 
Q 3481 -459 3084 -895 
Q 2688 -1331 1869 -1331 
Q 1566 -1331 1297 -1286 
Q 1028 -1241 775 -1147 
L 775 -588 
Q 1028 -725 1275 -790 
Q 1522 -856 1778 -856 
Q 2344 -856 2625 -561 
Q 2906 -266 2906 331 
L 2906 616 
Q 2728 306 2450 153 
Q 2172 0 1784 0 
Q 1141 0 747 490 
Q 353 981 353 1791 
Q 353 2603 747 3093 
Q 1141 3584 1784 3584 
Q 2172 3584 2450 3431 
Q 2728 3278 2906 2969 
L 2906 3500 
L 3481 3500 
L 3481 434 
z
" id="DejaVuSans-67" transform="scale(0.015625)"/>
      </defs>
      <use xlink:href="#DejaVuSans-46"/>
      <use x="52.019531" xlink:href="#DejaVuSans-65"/>
      <use x="113.542969" xlink:href="#DejaVuSans-64"/>
      <use x="177.019531" xlink:href="#DejaVuSans-41"/>
      <use x="239.552734" xlink:href="#DejaVuSans-76"/>
      <use x="298.732422" xlink:href="#DejaVuSans-67"/>
     </g>
    </g>
    <g id="line2d_18">
     <path d="M 167.11 35.952438 
L 187.11 35.952438 
" style="fill:none;stroke:#ff7f0e;stroke-linecap:square;stroke-width:1.5;"/>
    </g>
    <g id="line2d_19"/>
    <g id="text_16">
     <!-- FedMed -->
     <g transform="translate(195.11 39.452438)scale(0.1 -0.1)">
      <defs>
       <path d="M 628 4666 
L 1569 4666 
L 2759 1491 
L 3956 4666 
L 4897 4666 
L 4897 0 
L 4281 0 
L 4281 4097 
L 3078 897 
L 2444 897 
L 1241 4097 
L 1241 0 
L 628 0 
L 628 4666 
z
" id="DejaVuSans-4d" transform="scale(0.015625)"/>
      </defs>
      <use xlink:href="#DejaVuSans-46"/>
      <use x="52.019531" xlink:href="#DejaVuSans-65"/>
      <use x="113.542969" xlink:href="#DejaVuSans-64"/>
      <use x="177.019531" xlink:href="#DejaVuSans-4d"/>
      <use x="263.298828" xlink:href="#DejaVuSans-65"/>
      <use x="324.822266" xlink:href="#DejaVuSans-64"/>
     </g>
    </g>
    <g id="line2d_20">
     <path d="M 253.942813 35.952438 
L 273.942813 35.952438 
" style="fill:none;stroke:#2ca02c;stroke-linecap:square;stroke-width:1.5;"/>
    </g>
    <g id="line2d_21"/>
    <g id="text_17">
     <!-- FedProx -->
     <g transform="translate(281.942813 39.452438)scale(0.1 -0.1)">
      <defs>
       <path d="M 1259 4147 
L 1259 2394 
L 2053 2394 
Q 2494 2394 2734 2622 
Q 2975 2850 2975 3272 
Q 2975 3691 2734 3919 
Q 2494 4147 2053 4147 
L 1259 4147 
z
M 628 4666 
L 2053 4666 
Q 2838 4666 3239 4311 
Q 3641 3956 3641 3272 
Q 3641 2581 3239 2228 
Q 2838 1875 2053 1875 
L 1259 1875 
L 1259 0 
L 628 0 
L 628 4666 
z
" id="DejaVuSans-50" transform="scale(0.015625)"/>
       <path d="M 3513 3500 
L 2247 1797 
L 3578 0 
L 2900 0 
L 1881 1375 
L 863 0 
L 184 0 
L 1544 1831 
L 300 3500 
L 978 3500 
L 1906 2253 
L 2834 3500 
L 3513 3500 
z
" id="DejaVuSans-78" transform="scale(0.015625)"/>
      </defs>
      <use xlink:href="#DejaVuSans-46"/>
      <use x="52.019531" xlink:href="#DejaVuSans-65"/>
      <use x="113.542969" xlink:href="#DejaVuSans-64"/>
      <use x="177.019531" xlink:href="#DejaVuSans-50"/>
      <use x="235.572266" xlink:href="#DejaVuSans-72"/>
      <use x="274.435547" xlink:href="#DejaVuSans-6f"/>
      <use x="332.492188" xlink:href="#DejaVuSans-78"/>
     </g>
    </g>
    <g id="line2d_22">
     <path d="M 341.111563 35.952438 
L 361.111563 35.952438 
" style="fill:none;stroke:#d62728;stroke-linecap:square;stroke-width:1.5;"/>
    </g>
    <g id="line2d_23"/>
    <g id="text_18">
     <!-- qFedAvg -->
     <g transform="translate(369.111563 39.452438)scale(0.1 -0.1)">
      <defs>
       <path d="M 947 1747 
Q 947 1113 1208 752 
Q 1469 391 1925 391 
Q 2381 391 2643 752 
Q 2906 1113 2906 1747 
Q 2906 2381 2643 2742 
Q 2381 3103 1925 3103 
Q 1469 3103 1208 2742 
Q 947 2381 947 1747 
z
M 2906 525 
Q 2725 213 2448 61 
Q 2172 -91 1784 -91 
Q 1150 -91 751 415 
Q 353 922 353 1747 
Q 353 2572 751 3078 
Q 1150 3584 1784 3584 
Q 2172 3584 2448 3432 
Q 2725 3281 2906 2969 
L 2906 3500 
L 3481 3500 
L 3481 -1331 
L 2906 -1331 
L 2906 525 
z
" id="DejaVuSans-71" transform="scale(0.015625)"/>
      </defs>
      <use xlink:href="#DejaVuSans-71"/>
      <use x="63.476562" xlink:href="#DejaVuSans-46"/>
      <use x="115.496094" xlink:href="#DejaVuSans-65"/>
      <use x="177.019531" xlink:href="#DejaVuSans-64"/>
      <use x="240.496094" xlink:href="#DejaVuSans-41"/>
      <use x="303.029297" xlink:href="#DejaVuSans-76"/>
      <use x="362.208984" xlink:href="#DejaVuSans-67"/>
     </g>
    </g>
   </g>
  </g>
 </g>
 <defs>
  <clipPath id="p3e4ec8f829">
   <rect height="255.26" width="405.43" x="44.57" y="48.38"/>
  </clipPath>
 </defs>
</svg>
