<?xml version="1.0" encoding="utf-8" standalone="no"?>
<!DOCTYPE svg PUBLIC "-//W3C//DTD SVG 1.1//EN"
  "http://www.w3.org/Graphics/SVG/1.1/DTD/svg11.dtd">
<svg height="345.6pt" version="1.1" viewBox="0 0 460.8 345.6" width="460.8pt" xmlns="http://www.w3.org/2000/svg" xmlns:xlink="http://www.w3.org/1999/xlink">
 <metadata>
  <rdf:RDF xmlns:cc="http://creativecommons.org/ns#" xmlns:dc="http://purl.org/dc/elements/1.1/" xmlns:rdf="http://www.w3.org/1999/02/22-rdf-syntax-ns#">
   <cc:Work>
    <dc:type rdf:resource="http://purl.org/dc/dcmitype/StillImage"/>
    <dc:date>2021-04-27T22:08:10.874765</dc:date>
    <dc:format>image/svg+xml</dc:format>
    <dc:creator>
     <cc:Agent>
      <dc:title>Matplotlib v3.4.1, https://matplotlib.org/</dc:title>
     </cc:Agent>
    </dc:creator>
   </cc:Work>
  </rdf:RDF>
 </metadata>
 <defs>
  <style type="text/css">*{stroke-linecap:butt;stroke-linejoin:round;}</style>
 </defs>
 <g id="figure_1">
  <g id="patch_1">
   <path d="M 0 345.6 
L 460.8 345.6 
L 460.8 0 
L 0 0 
z
" style="fill:#ffffff;"/>
  </g>
  <g id="axes_1">
   <g id="patch_2">
    <path d="M 44.66 303.64 
L 366.25 303.64 
L 366.25 26.88 
L 44.66 26.88 
z
" style="fill:#ffffff;"/>
   </g>
   <g id="PolyCollection_1">
    <path clip-path="url(#peb4edc7fea)" d="M 59.277727 192.755249 
L 59.277727 215.772378 
L 65.244147 147.628725 
L 71.210566 135.563646 
L 77.176985 131.786941 
L 83.143404 114.806367 
L 89.109824 108.822187 
L 95.076243 98.550443 
L 101.042662 100.357256 
L 107.009082 93.890922 
L 112.975501 89.64781 
L 118.94192 82.000983 
L 124.90834 83.321524 
L 130.874759 87.581008 
L 136.841178 89.415604 
L 142.807597 85.660501 
L 148.774017 79.802407 
L 154.740436 81.645919 
L 160.706855 73.157119 
L 166.673275 73.750627 
L 172.639694 73.909439 
L 178.606113 73.455835 
L 184.572532 70.172985 
L 190.538952 74.402905 
L 196.505371 76.659403 
L 202.47179 75.63478 
L 208.43821 67.520746 
L 214.404629 65.847054 
L 220.371048 67.163261 
L 226.337468 70.857837 
L 232.303887 72.66301 
L 238.270306 65.182071 
L 244.236725 73.313373 
L 250.203145 67.779563 
L 256.169564 64.405047 
L 262.135983 61.585657 
L 268.102403 58.952155 
L 274.068822 57.740736 
L 280.035241 54.518767 
L 286.00166 54.532085 
L 291.96808 53.125867 
L 297.934499 50.047816 
L 303.900918 54.518767 
L 309.867338 56.480101 
L 315.833757 52.133882 
L 321.800176 52.225207 
L 327.766596 51.038189 
L 333.733015 51.038189 
L 339.699434 54.67254 
L 345.665853 54.773192 
L 351.632273 48.457828 
L 351.632273 39.575 
L 351.632273 39.575 
L 345.665853 45.129814 
L 339.699434 41.669412 
L 333.733015 44.116746 
L 327.766596 44.116746 
L 321.800176 45.303763 
L 315.833757 39.46 
L 309.867338 46.983959 
L 303.900918 43.010203 
L 297.934499 46.294136 
L 291.96808 44.403103 
L 286.00166 44.183904 
L 280.035241 43.010203 
L 274.068822 48.097358 
L 268.102403 48.072958 
L 262.135983 51.374544 
L 256.169564 47.368137 
L 250.203145 52.302745 
L 244.236725 55.07806 
L 238.270306 51.339184 
L 232.303887 56.91544 
L 226.337468 57.533596 
L 220.371048 57.667119 
L 214.404629 57.796308 
L 208.43821 57.309633 
L 202.47179 64.62683 
L 196.505371 62.41519 
L 190.538952 62.297652 
L 184.572532 61.779501 
L 178.606113 63.244722 
L 172.639694 63.978136 
L 166.673275 67.698001 
L 160.706855 67.104492 
L 154.740436 68.111834 
L 148.774017 67.581311 
L 142.807597 64.097252 
L 136.841178 68.651273 
L 130.874759 74.046923 
L 124.90834 69.997282 
L 118.94192 77.252912 
L 112.975501 74.354156 
L 107.009082 76.046132 
L 101.042662 83.824012 
L 95.076243 83.256789 
L 89.109824 93.164347 
L 83.143404 103.798417 
L 77.176985 116.493287 
L 71.210566 121.025707 
L 65.244147 133.888001 
L 59.277727 192.755249 
z
" style="fill:#1f77b4;fill-opacity:0.5;"/>
   </g>
   <g id="PolyCollection_2">
    <path clip-path="url(#peb4edc7fea)" d="M 59.277727 200.756085 
L 59.277727 246.943129 
L 65.244147 157.711742 
L 71.210566 144.793012 
L 77.176985 131.108892 
L 83.143404 123.722064 
L 89.109824 115.324387 
L 95.076243 113.156394 
L 101.042662 108.728645 
L 107.009082 108.550535 
L 112.975501 98.418569 
L 118.94192 90.427645 
L 124.90834 91.016921 
L 130.874759 90.472502 
L 136.841178 95.684609 
L 142.807597 86.444485 
L 148.774017 86.829492 
L 154.740436 86.448059 
L 160.706855 80.187381 
L 166.673275 81.809326 
L 172.639694 81.239985 
L 178.606113 79.833767 
L 184.572532 85.495886 
L 190.538952 84.81018 
L 196.505371 85.132138 
L 202.47179 78.683075 
L 208.43821 76.108073 
L 214.404629 75.898405 
L 220.371048 77.61688 
L 226.337468 82.407173 
L 232.303887 79.146743 
L 238.270306 77.436607 
L 244.236725 77.252912 
L 250.203145 85.215742 
L 256.169564 75.291578 
L 262.135983 74.577004 
L 268.102403 74.448978 
L 274.068822 71.298017 
L 280.035241 70.967459 
L 286.00166 65.74022 
L 291.96808 69.510263 
L 297.934499 75.899738 
L 303.900918 72.07921 
L 309.867338 76.542784 
L 315.833757 67.063646 
L 321.800176 65.254565 
L 327.766596 64.652914 
L 333.733015 61.12784 
L 339.699434 61.270351 
L 345.665853 66.265928 
L 351.632273 68.129932 
L 351.632273 50.765359 
L 351.632273 50.765359 
L 345.665853 53.81638 
L 339.699434 52.876868 
L 333.733015 54.206397 
L 327.766596 51.868341 
L 321.800176 48.892654 
L 315.833757 53.018662 
L 309.867338 49.474614 
L 303.900918 55.125205 
L 297.934499 54.86573 
L 291.96808 56.507134 
L 286.00166 55.529107 
L 280.035241 56.236956 
L 274.068822 53.532362 
L 268.102403 52.755437 
L 262.135983 57.375482 
L 256.169564 63.783014 
L 250.203145 55.045869 
L 244.236725 58.260627 
L 238.270306 58.076933 
L 232.303887 63.488903 
L 226.337468 63.789526 
L 220.371048 57.896659 
L 214.404629 65.550224 
L 208.43821 67.71459 
L 202.47179 63.952571 
L 196.505371 63.438597 
L 190.538952 64.947573 
L 184.572532 64.261867 
L 178.606113 71.111003 
L 172.639694 70.891804 
L 166.673275 69.135444 
L 160.706855 69.570371 
L 154.740436 65.683729 
L 148.774017 73.611421 
L 142.807597 75.183445 
L 136.841178 74.252445 
L 130.874759 79.464552 
L 124.90834 75.359081 
L 118.94192 78.322392 
L 112.975501 84.575682 
L 107.009082 88.687929 
L 101.042662 90.883855 
L 95.076243 90.017158 
L 89.109824 94.971272 
L 83.143404 111.500968 
L 77.176985 126.667478 
L 71.210566 133.16266 
L 65.244147 141.61025 
L 59.277727 200.756085 
z
" style="fill:#ff7f0e;fill-opacity:0.5;"/>
   </g>
   <g id="PolyCollection_3">
    <path clip-path="url(#peb4edc7fea)" d="M 59.277727 207.680978 
L 59.277727 291.06 
L 65.244147 170.643138 
L 71.210566 148.809109 
L 77.176985 124.597311 
L 83.143404 125.258343 
L 89.109824 116.766263 
L 95.076243 106.334847 
L 101.042662 100.993267 
L 107.009082 97.91073 
L 112.975501 92.631638 
L 118.94192 87.936072 
L 124.90834 88.747161 
L 130.874759 88.082935 
L 136.841178 83.78151 
L 142.807597 84.123274 
L 148.774017 89.567282 
L 154.740436 78.841782 
L 160.706855 77.543729 
L 166.673275 77.610397 
L 172.639694 74.976895 
L 178.606113 75.291578 
L 184.572532 74.778545 
L 190.538952 79.841971 
L 196.505371 79.841971 
L 202.47179 77.993657 
L 208.43821 73.440114 
L 214.404629 77.777632 
L 220.371048 74.065021 
L 226.337468 71.911332 
L 232.303887 71.606763 
L 238.270306 69.537296 
L 244.236725 70.931134 
L 250.203145 71.652954 
L 256.169564 70.277668 
L 262.135983 71.606763 
L 268.102403 72.426475 
L 274.068822 74.911798 
L 280.035241 74.406829 
L 286.00166 69.905568 
L 291.96808 70.32103 
L 297.934499 71.610772 
L 303.900918 72.710782 
L 309.867338 73.330245 
L 315.833757 69.89404 
L 321.800176 67.779563 
L 327.766596 69.31695 
L 333.733015 67.714267 
L 339.699434 67.999915 
L 345.665853 70.32103 
L 351.632273 68.16296 
L 351.632273 49.545313 
L 351.632273 49.545313 
L 345.665853 49.761279 
L 339.699434 53.269411 
L 333.733015 51.181023 
L 327.766596 51.952377 
L 321.800176 52.302745 
L 315.833757 47.814233 
L 309.867338 50.313116 
L 303.900918 48.558544 
L 297.934499 48.471536 
L 291.96808 49.761279 
L 286.00166 51.363758 
L 280.035241 53.984603 
L 274.068822 53.479634 
L 268.102403 50.029869 
L 262.135983 60.345723 
L 256.169564 55.739729 
L 250.203145 55.551461 
L 244.236725 62.20837 
L 238.270306 55.293083 
L 232.303887 60.345723 
L 226.337468 60.041154 
L 220.371048 56.700448 
L 214.404629 62.483978 
L 208.43821 59.69939 
L 202.47179 58.706901 
L 196.505371 61.606658 
L 190.538952 61.606658 
L 184.572532 67.857101 
L 178.606113 63.783014 
L 172.639694 64.097698 
L 166.673275 67.399284 
L 160.706855 62.717882 
L 154.740436 66.1679 
L 148.774017 66.125559 
L 142.807597 70.38255 
L 136.841178 71.911332 
L 130.874759 73.544996 
L 124.90834 78.815858 
L 118.94192 78.43993 
L 112.975501 72.557346 
L 107.009082 82.709485 
L 101.042662 91.497125 
L 95.076243 103.960812 
L 89.109824 103.025539 
L 83.143404 109.964689 
L 77.176985 111.812739 
L 71.210566 132.707617 
L 65.244147 153.606228 
L 59.277727 207.680978 
z
" style="fill:#2ca02c;fill-opacity:0.5;"/>
   </g>
   <g id="PolyCollection_4">
    <path clip-path="url(#peb4edc7fea)" d="M 59.277727 231.831809 
L 59.277727 257.429645 
L 65.244147 200.644721 
L 71.210566 181.388159 
L 77.176985 168.972754 
L 83.143404 157.690378 
L 89.109824 149.108155 
L 95.076243 142.393127 
L 101.042662 137.163273 
L 107.009082 131.378879 
L 112.975501 128.241474 
L 118.94192 123.712582 
L 124.90834 121.815652 
L 130.874759 120.6501 
L 136.841178 118.274491 
L 142.807597 116.538372 
L 148.774017 115.048642 
L 154.740436 113.282332 
L 160.706855 114.008242 
L 166.673275 112.302794 
L 172.639694 111.272753 
L 178.606113 109.991213 
L 184.572532 111.331974 
L 190.538952 110.256113 
L 196.505371 110.297486 
L 202.47179 109.791548 
L 208.43821 109.176094 
L 214.404629 108.357821 
L 220.371048 108.706291 
L 226.337468 109.590041 
L 232.303887 108.623219 
L 238.270306 108.71496 
L 244.236725 109.069396 
L 250.203145 108.490538 
L 256.169564 108.147525 
L 262.135983 107.999199 
L 268.102403 107.441378 
L 274.068822 106.87638 
L 280.035241 106.988667 
L 286.00166 106.133344 
L 291.96808 106.19128 
L 297.934499 106.08265 
L 303.900918 106.741068 
L 309.867338 106.438577 
L 315.833757 105.693804 
L 321.800176 105.930362 
L 327.766596 105.936861 
L 333.733015 105.663448 
L 339.699434 105.392356 
L 345.665853 105.305328 
L 351.632273 105.522683 
L 351.632273 97.820613 
L 351.632273 97.820613 
L 345.665853 98.319292 
L 339.699434 98.232264 
L 333.733015 98.430043 
L 327.766596 98.719277 
L 321.800176 98.538227 
L 315.833757 98.118364 
L 309.867338 98.686433 
L 303.900918 98.102618 
L 297.934499 98.761037 
L 291.96808 99.027504 
L 286.00166 98.710343 
L 280.035241 98.417666 
L 274.068822 98.154856 
L 268.102403 98.996473 
L 262.135983 99.095073 
L 256.169564 98.852973 
L 250.203145 98.697509 
L 244.236725 98.96262 
L 238.270306 99.035733 
L 232.303887 98.752377 
L 226.337468 99.285945 
L 220.371048 100.263469 
L 214.404629 99.205324 
L 208.43821 100.356313 
L 202.47179 100.115956 
L 196.505371 100.92286 
L 190.538952 101.151782 
L 184.572532 102.889153 
L 178.606113 102.260652 
L 172.639694 103.323471 
L 166.673275 103.700047 
L 160.706855 104.807831 
L 154.740436 105.439966 
L 148.774017 106.018016 
L 142.807597 107.060196 
L 136.841178 108.137309 
L 130.874759 110.544194 
L 124.90834 113.035844 
L 118.94192 115.358762 
L 112.975501 118.144274 
L 107.009082 121.00843 
L 101.042662 126.101867 
L 95.076243 132.500039 
L 89.109824 140.882691 
L 83.143404 149.273635 
L 77.176985 158.434079 
L 71.210566 171.806635 
L 65.244147 190.434932 
L 59.277727 231.831809 
z
" style="fill:#d62728;fill-opacity:0.5;"/>
   </g>
   <g id="matplotlib.axis_1">
    <g id="xtick_1">
     <g id="line2d_1">
      <path clip-path="url(#peb4edc7fea)" d="M 59.277727 303.64 
L 59.277727 26.88 
" style="fill:none;stroke:#b0b0b0;stroke-linecap:square;stroke-width:0.8;"/>
     </g>
     <g id="line2d_2">
      <defs>
       <path d="M 0 0 
L 0 3.5 
" id="m481819e8b4" style="stroke:#000000;stroke-width:0.8;"/>
      </defs>
      <g>
       <use style="stroke:#000000;stroke-width:0.8;" x="59.277727" xlink:href="#m481819e8b4" y="303.64"/>
      </g>
     </g>
     <g id="text_1">
      <!-- 0 -->
      <g transform="translate(56.096477 318.238437)scale(0.1 -0.1)">
       <defs>
        <path d="M 2034 4250 
Q 1547 4250 1301 3770 
Q 1056 3291 1056 2328 
Q 1056 1369 1301 889 
Q 1547 409 2034 409 
Q 2525 409 2770 889 
Q 3016 1369 3016 2328 
Q 3016 3291 2770 3770 
Q 2525 4250 2034 4250 
z
M 2034 4750 
Q 2819 4750 3233 4129 
Q 3647 3509 3647 2328 
Q 3647 1150 3233 529 
Q 2819 -91 2034 -91 
Q 1250 -91 836 529 
Q 422 1150 422 2328 
Q 422 3509 836 4129 
Q 1250 4750 2034 4750 
z
" id="DejaVuSans-30" transform="scale(0.015625)"/>
       </defs>
       <use xlink:href="#DejaVuSans-30"/>
      </g>
     </g>
    </g>
    <g id="xtick_2">
     <g id="line2d_3">
      <path clip-path="url(#peb4edc7fea)" d="M 118.94192 303.64 
L 118.94192 26.88 
" style="fill:none;stroke:#b0b0b0;stroke-linecap:square;stroke-width:0.8;"/>
     </g>
     <g id="line2d_4">
      <g>
       <use style="stroke:#000000;stroke-width:0.8;" x="118.94192" xlink:href="#m481819e8b4" y="303.64"/>
      </g>
     </g>
     <g id="text_2">
      <!-- 10 -->
      <g transform="translate(112.57942 318.238437)scale(0.1 -0.1)">
       <defs>
        <path d="M 794 531 
L 1825 531 
L 1825 4091 
L 703 3866 
L 703 4441 
L 1819 4666 
L 2450 4666 
L 2450 531 
L 3481 531 
L 3481 0 
L 794 0 
L 794 531 
z
" id="DejaVuSans-31" transform="scale(0.015625)"/>
       </defs>
       <use xlink:href="#DejaVuSans-31"/>
       <use x="63.623047" xlink:href="#DejaVuSans-30"/>
      </g>
     </g>
    </g>
    <g id="xtick_3">
     <g id="line2d_5">
      <path clip-path="url(#peb4edc7fea)" d="M 178.606113 303.64 
L 178.606113 26.88 
" style="fill:none;stroke:#b0b0b0;stroke-linecap:square;stroke-width:0.8;"/>
     </g>
     <g id="line2d_6">
      <g>
       <use style="stroke:#000000;stroke-width:0.8;" x="178.606113" xlink:href="#m481819e8b4" y="303.64"/>
      </g>
     </g>
     <g id="text_3">
      <!-- 20 -->
      <g transform="translate(172.243613 318.238437)scale(0.1 -0.1)">
       <defs>
        <path d="M 1228 531 
L 3431 531 
L 3431 0 
L 469 0 
L 469 531 
Q 828 903 1448 1529 
Q 2069 2156 2228 2338 
Q 2531 2678 2651 2914 
Q 2772 3150 2772 3378 
Q 2772 3750 2511 3984 
Q 2250 4219 1831 4219 
Q 1534 4219 1204 4116 
Q 875 4013 500 3803 
L 500 4441 
Q 881 4594 1212 4672 
Q 1544 4750 1819 4750 
Q 2544 4750 2975 4387 
Q 3406 4025 3406 3419 
Q 3406 3131 3298 2873 
Q 3191 2616 2906 2266 
Q 2828 2175 2409 1742 
Q 1991 1309 1228 531 
z
" id="DejaVuSans-32" transform="scale(0.015625)"/>
       </defs>
       <use xlink:href="#DejaVuSans-32"/>
       <use x="63.623047" xlink:href="#DejaVuSans-30"/>
      </g>
     </g>
    </g>
    <g id="xtick_4">
     <g id="line2d_7">
      <path clip-path="url(#peb4edc7fea)" d="M 238.270306 303.64 
L 238.270306 26.88 
" style="fill:none;stroke:#b0b0b0;stroke-linecap:square;stroke-width:0.8;"/>
     </g>
     <g id="line2d_8">
      <g>
       <use style="stroke:#000000;stroke-width:0.8;" x="238.270306" xlink:href="#m481819e8b4" y="303.64"/>
      </g>
     </g>
     <g id="text_4">
      <!-- 30 -->
      <g transform="translate(231.907806 318.238437)scale(0.1 -0.1)">
       <defs>
        <path d="M 2597 2516 
Q 3050 2419 3304 2112 
Q 3559 1806 3559 1356 
Q 3559 666 3084 287 
Q 2609 -91 1734 -91 
Q 1441 -91 1130 -33 
Q 819 25 488 141 
L 488 750 
Q 750 597 1062 519 
Q 1375 441 1716 441 
Q 2309 441 2620 675 
Q 2931 909 2931 1356 
Q 2931 1769 2642 2001 
Q 2353 2234 1838 2234 
L 1294 2234 
L 1294 2753 
L 1863 2753 
Q 2328 2753 2575 2939 
Q 2822 3125 2822 3475 
Q 2822 3834 2567 4026 
Q 2313 4219 1838 4219 
Q 1578 4219 1281 4162 
Q 984 4106 628 3988 
L 628 4550 
Q 988 4650 1302 4700 
Q 1616 4750 1894 4750 
Q 2613 4750 3031 4423 
Q 3450 4097 3450 3541 
Q 3450 3153 3228 2886 
Q 3006 2619 2597 2516 
z
" id="DejaVuSans-33" transform="scale(0.015625)"/>
       </defs>
       <use xlink:href="#DejaVuSans-33"/>
       <use x="63.623047" xlink:href="#DejaVuSans-30"/>
      </g>
     </g>
    </g>
    <g id="xtick_5">
     <g id="line2d_9">
      <path clip-path="url(#peb4edc7fea)" d="M 297.934499 303.64 
L 297.934499 26.88 
" style="fill:none;stroke:#b0b0b0;stroke-linecap:square;stroke-width:0.8;"/>
     </g>
     <g id="line2d_10">
      <g>
       <use style="stroke:#000000;stroke-width:0.8;" x="297.934499" xlink:href="#m481819e8b4" y="303.64"/>
      </g>
     </g>
     <g id="text_5">
      <!-- 40 -->
      <g transform="translate(291.571999 318.238437)scale(0.1 -0.1)">
       <defs>
        <path d="M 2419 4116 
L 825 1625 
L 2419 1625 
L 2419 4116 
z
M 2253 4666 
L 3047 4666 
L 3047 1625 
L 3713 1625 
L 3713 1100 
L 3047 1100 
L 3047 0 
L 2419 0 
L 2419 1100 
L 313 1100 
L 313 1709 
L 2253 4666 
z
" id="DejaVuSans-34" transform="scale(0.015625)"/>
       </defs>
       <use xlink:href="#DejaVuSans-34"/>
       <use x="63.623047" xlink:href="#DejaVuSans-30"/>
      </g>
     </g>
    </g>
    <g id="xtick_6">
     <g id="line2d_11">
      <path clip-path="url(#peb4edc7fea)" d="M 357.598692 303.64 
L 357.598692 26.88 
" style="fill:none;stroke:#b0b0b0;stroke-linecap:square;stroke-width:0.8;"/>
     </g>
     <g id="line2d_12">
      <g>
       <use style="stroke:#000000;stroke-width:0.8;" x="357.598692" xlink:href="#m481819e8b4" y="303.64"/>
      </g>
     </g>
     <g id="text_6">
      <!-- 50 -->
      <g transform="translate(351.236192 318.238437)scale(0.1 -0.1)">
       <defs>
        <path d="M 691 4666 
L 3169 4666 
L 3169 4134 
L 1269 4134 
L 1269 2991 
Q 1406 3038 1543 3061 
Q 1681 3084 1819 3084 
Q 2600 3084 3056 2656 
Q 3513 2228 3513 1497 
Q 3513 744 3044 326 
Q 2575 -91 1722 -91 
Q 1428 -91 1123 -41 
Q 819 9 494 109 
L 494 744 
Q 775 591 1075 516 
Q 1375 441 1709 441 
Q 2250 441 2565 725 
Q 2881 1009 2881 1497 
Q 2881 1984 2565 2268 
Q 2250 2553 1709 2553 
Q 1456 2553 1204 2497 
Q 953 2441 691 2322 
L 691 4666 
z
" id="DejaVuSans-35" transform="scale(0.015625)"/>
       </defs>
       <use xlink:href="#DejaVuSans-35"/>
       <use x="63.623047" xlink:href="#DejaVuSans-30"/>
      </g>
     </g>
    </g>
    <g id="text_7">
     <!-- Global Communication Rounds -->
     <g transform="translate(128.493281 331.916562)scale(0.1 -0.1)">
      <defs>
       <path d="M 3809 666 
L 3809 1919 
L 2778 1919 
L 2778 2438 
L 4434 2438 
L 4434 434 
Q 4069 175 3628 42 
Q 3188 -91 2688 -91 
Q 1594 -91 976 548 
Q 359 1188 359 2328 
Q 359 3472 976 4111 
Q 1594 4750 2688 4750 
Q 3144 4750 3555 4637 
Q 3966 4525 4313 4306 
L 4313 3634 
Q 3963 3931 3569 4081 
Q 3175 4231 2741 4231 
Q 1884 4231 1454 3753 
Q 1025 3275 1025 2328 
Q 1025 1384 1454 906 
Q 1884 428 2741 428 
Q 3075 428 3337 486 
Q 3600 544 3809 666 
z
" id="DejaVuSans-47" transform="scale(0.015625)"/>
       <path d="M 603 4863 
L 1178 4863 
L 1178 0 
L 603 0 
L 603 4863 
z
" id="DejaVuSans-6c" transform="scale(0.015625)"/>
       <path d="M 1959 3097 
Q 1497 3097 1228 2736 
Q 959 2375 959 1747 
Q 959 1119 1226 758 
Q 1494 397 1959 397 
Q 2419 397 2687 759 
Q 2956 1122 2956 1747 
Q 2956 2369 2687 2733 
Q 2419 3097 1959 3097 
z
M 1959 3584 
Q 2709 3584 3137 3096 
Q 3566 2609 3566 1747 
Q 3566 888 3137 398 
Q 2709 -91 1959 -91 
Q 1206 -91 779 398 
Q 353 888 353 1747 
Q 353 2609 779 3096 
Q 1206 3584 1959 3584 
z
" id="DejaVuSans-6f" transform="scale(0.015625)"/>
       <path d="M 3116 1747 
Q 3116 2381 2855 2742 
Q 2594 3103 2138 3103 
Q 1681 3103 1420 2742 
Q 1159 2381 1159 1747 
Q 1159 1113 1420 752 
Q 1681 391 2138 391 
Q 2594 391 2855 752 
Q 3116 1113 3116 1747 
z
M 1159 2969 
Q 1341 3281 1617 3432 
Q 1894 3584 2278 3584 
Q 2916 3584 3314 3078 
Q 3713 2572 3713 1747 
Q 3713 922 3314 415 
Q 2916 -91 2278 -91 
Q 1894 -91 1617 61 
Q 1341 213 1159 525 
L 1159 0 
L 581 0 
L 581 4863 
L 1159 4863 
L 1159 2969 
z
" id="DejaVuSans-62" transform="scale(0.015625)"/>
       <path d="M 2194 1759 
Q 1497 1759 1228 1600 
Q 959 1441 959 1056 
Q 959 750 1161 570 
Q 1363 391 1709 391 
Q 2188 391 2477 730 
Q 2766 1069 2766 1631 
L 2766 1759 
L 2194 1759 
z
M 3341 1997 
L 3341 0 
L 2766 0 
L 2766 531 
Q 2569 213 2275 61 
Q 1981 -91 1556 -91 
Q 1019 -91 701 211 
Q 384 513 384 1019 
Q 384 1609 779 1909 
Q 1175 2209 1959 2209 
L 2766 2209 
L 2766 2266 
Q 2766 2663 2505 2880 
Q 2244 3097 1772 3097 
Q 1472 3097 1187 3025 
Q 903 2953 641 2809 
L 641 3341 
Q 956 3463 1253 3523 
Q 1550 3584 1831 3584 
Q 2591 3584 2966 3190 
Q 3341 2797 3341 1997 
z
" id="DejaVuSans-61" transform="scale(0.015625)"/>
       <path id="DejaVuSans-20" transform="scale(0.015625)"/>
       <path d="M 4122 4306 
L 4122 3641 
Q 3803 3938 3442 4084 
Q 3081 4231 2675 4231 
Q 1875 4231 1450 3742 
Q 1025 3253 1025 2328 
Q 1025 1406 1450 917 
Q 1875 428 2675 428 
Q 3081 428 3442 575 
Q 3803 722 4122 1019 
L 4122 359 
Q 3791 134 3420 21 
Q 3050 -91 2638 -91 
Q 1578 -91 968 557 
Q 359 1206 359 2328 
Q 359 3453 968 4101 
Q 1578 4750 2638 4750 
Q 3056 4750 3426 4639 
Q 3797 4528 4122 4306 
z
" id="DejaVuSans-43" transform="scale(0.015625)"/>
       <path d="M 3328 2828 
Q 3544 3216 3844 3400 
Q 4144 3584 4550 3584 
Q 5097 3584 5394 3201 
Q 5691 2819 5691 2113 
L 5691 0 
L 5113 0 
L 5113 2094 
Q 5113 2597 4934 2840 
Q 4756 3084 4391 3084 
Q 3944 3084 3684 2787 
Q 3425 2491 3425 1978 
L 3425 0 
L 2847 0 
L 2847 2094 
Q 2847 2600 2669 2842 
Q 2491 3084 2119 3084 
Q 1678 3084 1418 2786 
Q 1159 2488 1159 1978 
L 1159 0 
L 581 0 
L 581 3500 
L 1159 3500 
L 1159 2956 
Q 1356 3278 1631 3431 
Q 1906 3584 2284 3584 
Q 2666 3584 2933 3390 
Q 3200 3197 3328 2828 
z
" id="DejaVuSans-6d" transform="scale(0.015625)"/>
       <path d="M 544 1381 
L 544 3500 
L 1119 3500 
L 1119 1403 
Q 1119 906 1312 657 
Q 1506 409 1894 409 
Q 2359 409 2629 706 
Q 2900 1003 2900 1516 
L 2900 3500 
L 3475 3500 
L 3475 0 
L 2900 0 
L 2900 538 
Q 2691 219 2414 64 
Q 2138 -91 1772 -91 
Q 1169 -91 856 284 
Q 544 659 544 1381 
z
M 1991 3584 
L 1991 3584 
z
" id="DejaVuSans-75" transform="scale(0.015625)"/>
       <path d="M 3513 2113 
L 3513 0 
L 2938 0 
L 2938 2094 
Q 2938 2591 2744 2837 
Q 2550 3084 2163 3084 
Q 1697 3084 1428 2787 
Q 1159 2491 1159 1978 
L 1159 0 
L 581 0 
L 581 3500 
L 1159 3500 
L 1159 2956 
Q 1366 3272 1645 3428 
Q 1925 3584 2291 3584 
Q 2894 3584 3203 3211 
Q 3513 2838 3513 2113 
z
" id="DejaVuSans-6e" transform="scale(0.015625)"/>
       <path d="M 603 3500 
L 1178 3500 
L 1178 0 
L 603 0 
L 603 3500 
z
M 603 4863 
L 1178 4863 
L 1178 4134 
L 603 4134 
L 603 4863 
z
" id="DejaVuSans-69" transform="scale(0.015625)"/>
       <path d="M 3122 3366 
L 3122 2828 
Q 2878 2963 2633 3030 
Q 2388 3097 2138 3097 
Q 1578 3097 1268 2742 
Q 959 2388 959 1747 
Q 959 1106 1268 751 
Q 1578 397 2138 397 
Q 2388 397 2633 464 
Q 2878 531 3122 666 
L 3122 134 
Q 2881 22 2623 -34 
Q 2366 -91 2075 -91 
Q 1284 -91 818 406 
Q 353 903 353 1747 
Q 353 2603 823 3093 
Q 1294 3584 2113 3584 
Q 2378 3584 2631 3529 
Q 2884 3475 3122 3366 
z
" id="DejaVuSans-63" transform="scale(0.015625)"/>
       <path d="M 1172 4494 
L 1172 3500 
L 2356 3500 
L 2356 3053 
L 1172 3053 
L 1172 1153 
Q 1172 725 1289 603 
Q 1406 481 1766 481 
L 2356 481 
L 2356 0 
L 1766 0 
Q 1100 0 847 248 
Q 594 497 594 1153 
L 594 3053 
L 172 3053 
L 172 3500 
L 594 3500 
L 594 4494 
L 1172 4494 
z
" id="DejaVuSans-74" transform="scale(0.015625)"/>
       <path d="M 2841 2188 
Q 3044 2119 3236 1894 
Q 3428 1669 3622 1275 
L 4263 0 
L 3584 0 
L 2988 1197 
Q 2756 1666 2539 1819 
Q 2322 1972 1947 1972 
L 1259 1972 
L 1259 0 
L 628 0 
L 628 4666 
L 2053 4666 
Q 2853 4666 3247 4331 
Q 3641 3997 3641 3322 
Q 3641 2881 3436 2590 
Q 3231 2300 2841 2188 
z
M 1259 4147 
L 1259 2491 
L 2053 2491 
Q 2509 2491 2742 2702 
Q 2975 2913 2975 3322 
Q 2975 3731 2742 3939 
Q 2509 4147 2053 4147 
L 1259 4147 
z
" id="DejaVuSans-52" transform="scale(0.015625)"/>
       <path d="M 2906 2969 
L 2906 4863 
L 3481 4863 
L 3481 0 
L 2906 0 
L 2906 525 
Q 2725 213 2448 61 
Q 2172 -91 1784 -91 
Q 1150 -91 751 415 
Q 353 922 353 1747 
Q 353 2572 751 3078 
Q 1150 3584 1784 3584 
Q 2172 3584 2448 3432 
Q 2725 3281 2906 2969 
z
M 947 1747 
Q 947 1113 1208 752 
Q 1469 391 1925 391 
Q 2381 391 2643 752 
Q 2906 1113 2906 1747 
Q 2906 2381 2643 2742 
Q 2381 3103 1925 3103 
Q 1469 3103 1208 2742 
Q 947 2381 947 1747 
z
" id="DejaVuSans-64" transform="scale(0.015625)"/>
       <path d="M 2834 3397 
L 2834 2853 
Q 2591 2978 2328 3040 
Q 2066 3103 1784 3103 
Q 1356 3103 1142 2972 
Q 928 2841 928 2578 
Q 928 2378 1081 2264 
Q 1234 2150 1697 2047 
L 1894 2003 
Q 2506 1872 2764 1633 
Q 3022 1394 3022 966 
Q 3022 478 2636 193 
Q 2250 -91 1575 -91 
Q 1294 -91 989 -36 
Q 684 19 347 128 
L 347 722 
Q 666 556 975 473 
Q 1284 391 1588 391 
Q 1994 391 2212 530 
Q 2431 669 2431 922 
Q 2431 1156 2273 1281 
Q 2116 1406 1581 1522 
L 1381 1569 
Q 847 1681 609 1914 
Q 372 2147 372 2553 
Q 372 3047 722 3315 
Q 1072 3584 1716 3584 
Q 2034 3584 2315 3537 
Q 2597 3491 2834 3397 
z
" id="DejaVuSans-73" transform="scale(0.015625)"/>
      </defs>
      <use xlink:href="#DejaVuSans-47"/>
      <use x="77.490234" xlink:href="#DejaVuSans-6c"/>
      <use x="105.273438" xlink:href="#DejaVuSans-6f"/>
      <use x="166.455078" xlink:href="#DejaVuSans-62"/>
      <use x="229.931641" xlink:href="#DejaVuSans-61"/>
      <use x="291.210938" xlink:href="#DejaVuSans-6c"/>
      <use x="318.994141" xlink:href="#DejaVuSans-20"/>
      <use x="350.78125" xlink:href="#DejaVuSans-43"/>
      <use x="420.605469" xlink:href="#DejaVuSans-6f"/>
      <use x="481.787109" xlink:href="#DejaVuSans-6d"/>
      <use x="579.199219" xlink:href="#DejaVuSans-6d"/>
      <use x="676.611328" xlink:href="#DejaVuSans-75"/>
      <use x="739.990234" xlink:href="#DejaVuSans-6e"/>
      <use x="803.369141" xlink:href="#DejaVuSans-69"/>
      <use x="831.152344" xlink:href="#DejaVuSans-63"/>
      <use x="886.132812" xlink:href="#DejaVuSans-61"/>
      <use x="947.412109" xlink:href="#DejaVuSans-74"/>
      <use x="986.621094" xlink:href="#DejaVuSans-69"/>
      <use x="1014.404297" xlink:href="#DejaVuSans-6f"/>
      <use x="1075.585938" xlink:href="#DejaVuSans-6e"/>
      <use x="1138.964844" xlink:href="#DejaVuSans-20"/>
      <use x="1170.751953" xlink:href="#DejaVuSans-52"/>
      <use x="1235.734375" xlink:href="#DejaVuSans-6f"/>
      <use x="1296.916016" xlink:href="#DejaVuSans-75"/>
      <use x="1360.294922" xlink:href="#DejaVuSans-6e"/>
      <use x="1423.673828" xlink:href="#DejaVuSans-64"/>
      <use x="1487.150391" xlink:href="#DejaVuSans-73"/>
     </g>
    </g>
   </g>
   <g id="matplotlib.axis_2">
    <g id="ytick_1">
     <g id="line2d_13">
      <path clip-path="url(#peb4edc7fea)" d="M 44.66 279.045934 
L 366.25 279.045934 
" style="fill:none;stroke:#b0b0b0;stroke-linecap:square;stroke-width:0.8;"/>
     </g>
     <g id="line2d_14">
      <defs>
       <path d="M 0 0 
L -3.5 0 
" id="mde751a5508" style="stroke:#000000;stroke-width:0.8;"/>
      </defs>
      <g>
       <use style="stroke:#000000;stroke-width:0.8;" x="44.66" xlink:href="#mde751a5508" y="279.045934"/>
      </g>
     </g>
     <g id="text_8">
      <!-- 88 -->
      <g transform="translate(24.935 282.845152)scale(0.1 -0.1)">
       <defs>
        <path d="M 2034 2216 
Q 1584 2216 1326 1975 
Q 1069 1734 1069 1313 
Q 1069 891 1326 650 
Q 1584 409 2034 409 
Q 2484 409 2743 651 
Q 3003 894 3003 1313 
Q 3003 1734 2745 1975 
Q 2488 2216 2034 2216 
z
M 1403 2484 
Q 997 2584 770 2862 
Q 544 3141 544 3541 
Q 544 4100 942 4425 
Q 1341 4750 2034 4750 
Q 2731 4750 3128 4425 
Q 3525 4100 3525 3541 
Q 3525 3141 3298 2862 
Q 3072 2584 2669 2484 
Q 3125 2378 3379 2068 
Q 3634 1759 3634 1313 
Q 3634 634 3220 271 
Q 2806 -91 2034 -91 
Q 1263 -91 848 271 
Q 434 634 434 1313 
Q 434 1759 690 2068 
Q 947 2378 1403 2484 
z
M 1172 3481 
Q 1172 3119 1398 2916 
Q 1625 2713 2034 2713 
Q 2441 2713 2670 2916 
Q 2900 3119 2900 3481 
Q 2900 3844 2670 4047 
Q 2441 4250 2034 4250 
Q 1625 4250 1398 4047 
Q 1172 3844 1172 3481 
z
" id="DejaVuSans-38" transform="scale(0.015625)"/>
       </defs>
       <use xlink:href="#DejaVuSans-38"/>
       <use x="63.623047" xlink:href="#DejaVuSans-38"/>
      </g>
     </g>
    </g>
    <g id="ytick_2">
     <g id="line2d_15">
      <path clip-path="url(#peb4edc7fea)" d="M 44.66 232.158731 
L 366.25 232.158731 
" style="fill:none;stroke:#b0b0b0;stroke-linecap:square;stroke-width:0.8;"/>
     </g>
     <g id="line2d_16">
      <g>
       <use style="stroke:#000000;stroke-width:0.8;" x="44.66" xlink:href="#mde751a5508" y="232.158731"/>
      </g>
     </g>
     <g id="text_9">
      <!-- 90 -->
      <g transform="translate(24.935 235.95795)scale(0.1 -0.1)">
       <defs>
        <path d="M 703 97 
L 703 672 
Q 941 559 1184 500 
Q 1428 441 1663 441 
Q 2288 441 2617 861 
Q 2947 1281 2994 2138 
Q 2813 1869 2534 1725 
Q 2256 1581 1919 1581 
Q 1219 1581 811 2004 
Q 403 2428 403 3163 
Q 403 3881 828 4315 
Q 1253 4750 1959 4750 
Q 2769 4750 3195 4129 
Q 3622 3509 3622 2328 
Q 3622 1225 3098 567 
Q 2575 -91 1691 -91 
Q 1453 -91 1209 -44 
Q 966 3 703 97 
z
M 1959 2075 
Q 2384 2075 2632 2365 
Q 2881 2656 2881 3163 
Q 2881 3666 2632 3958 
Q 2384 4250 1959 4250 
Q 1534 4250 1286 3958 
Q 1038 3666 1038 3163 
Q 1038 2656 1286 2365 
Q 1534 2075 1959 2075 
z
" id="DejaVuSans-39" transform="scale(0.015625)"/>
       </defs>
       <use xlink:href="#DejaVuSans-39"/>
       <use x="63.623047" xlink:href="#DejaVuSans-30"/>
      </g>
     </g>
    </g>
    <g id="ytick_3">
     <g id="line2d_17">
      <path clip-path="url(#peb4edc7fea)" d="M 44.66 185.271529 
L 366.25 185.271529 
" style="fill:none;stroke:#b0b0b0;stroke-linecap:square;stroke-width:0.8;"/>
     </g>
     <g id="line2d_18">
      <g>
       <use style="stroke:#000000;stroke-width:0.8;" x="44.66" xlink:href="#mde751a5508" y="185.271529"/>
      </g>
     </g>
     <g id="text_10">
      <!-- 92 -->
      <g transform="translate(24.935 189.070748)scale(0.1 -0.1)">
       <use xlink:href="#DejaVuSans-39"/>
       <use x="63.623047" xlink:href="#DejaVuSans-32"/>
      </g>
     </g>
    </g>
    <g id="ytick_4">
     <g id="line2d_19">
      <path clip-path="url(#peb4edc7fea)" d="M 44.66 138.384327 
L 366.25 138.384327 
" style="fill:none;stroke:#b0b0b0;stroke-linecap:square;stroke-width:0.8;"/>
     </g>
     <g id="line2d_20">
      <g>
       <use style="stroke:#000000;stroke-width:0.8;" x="44.66" xlink:href="#mde751a5508" y="138.384327"/>
      </g>
     </g>
     <g id="text_11">
      <!-- 94 -->
      <g transform="translate(24.935 142.183546)scale(0.1 -0.1)">
       <use xlink:href="#DejaVuSans-39"/>
       <use x="63.623047" xlink:href="#DejaVuSans-34"/>
      </g>
     </g>
    </g>
    <g id="ytick_5">
     <g id="line2d_21">
      <path clip-path="url(#peb4edc7fea)" d="M 44.66 91.497125 
L 366.25 91.497125 
" style="fill:none;stroke:#b0b0b0;stroke-linecap:square;stroke-width:0.8;"/>
     </g>
     <g id="line2d_22">
      <g>
       <use style="stroke:#000000;stroke-width:0.8;" x="44.66" xlink:href="#mde751a5508" y="91.497125"/>
      </g>
     </g>
     <g id="text_12">
      <!-- 96 -->
      <g transform="translate(24.935 95.296344)scale(0.1 -0.1)">
       <defs>
        <path d="M 2113 2584 
Q 1688 2584 1439 2293 
Q 1191 2003 1191 1497 
Q 1191 994 1439 701 
Q 1688 409 2113 409 
Q 2538 409 2786 701 
Q 3034 994 3034 1497 
Q 3034 2003 2786 2293 
Q 2538 2584 2113 2584 
z
M 3366 4563 
L 3366 3988 
Q 3128 4100 2886 4159 
Q 2644 4219 2406 4219 
Q 1781 4219 1451 3797 
Q 1122 3375 1075 2522 
Q 1259 2794 1537 2939 
Q 1816 3084 2150 3084 
Q 2853 3084 3261 2657 
Q 3669 2231 3669 1497 
Q 3669 778 3244 343 
Q 2819 -91 2113 -91 
Q 1303 -91 875 529 
Q 447 1150 447 2328 
Q 447 3434 972 4092 
Q 1497 4750 2381 4750 
Q 2619 4750 2861 4703 
Q 3103 4656 3366 4563 
z
" id="DejaVuSans-36" transform="scale(0.015625)"/>
       </defs>
       <use xlink:href="#DejaVuSans-39"/>
       <use x="63.623047" xlink:href="#DejaVuSans-36"/>
      </g>
     </g>
    </g>
    <g id="ytick_6">
     <g id="line2d_23">
      <path clip-path="url(#peb4edc7fea)" d="M 44.66 44.609923 
L 366.25 44.609923 
" style="fill:none;stroke:#b0b0b0;stroke-linecap:square;stroke-width:0.8;"/>
     </g>
     <g id="line2d_24">
      <g>
       <use style="stroke:#000000;stroke-width:0.8;" x="44.66" xlink:href="#mde751a5508" y="44.609923"/>
      </g>
     </g>
     <g id="text_13">
      <!-- 98 -->
      <g transform="translate(24.935 48.409142)scale(0.1 -0.1)">
       <use xlink:href="#DejaVuSans-39"/>
       <use x="63.623047" xlink:href="#DejaVuSans-38"/>
      </g>
     </g>
    </g>
    <g id="text_14">
     <!-- Test Accuracy -->
     <g transform="translate(18.855312 199.5225)rotate(-90)scale(0.1 -0.1)">
      <defs>
       <path d="M -19 4666 
L 3928 4666 
L 3928 4134 
L 2272 4134 
L 2272 0 
L 1638 0 
L 1638 4134 
L -19 4134 
L -19 4666 
z
" id="DejaVuSans-54" transform="scale(0.015625)"/>
       <path d="M 3597 1894 
L 3597 1613 
L 953 1613 
Q 991 1019 1311 708 
Q 1631 397 2203 397 
Q 2534 397 2845 478 
Q 3156 559 3463 722 
L 3463 178 
Q 3153 47 2828 -22 
Q 2503 -91 2169 -91 
Q 1331 -91 842 396 
Q 353 884 353 1716 
Q 353 2575 817 3079 
Q 1281 3584 2069 3584 
Q 2775 3584 3186 3129 
Q 3597 2675 3597 1894 
z
M 3022 2063 
Q 3016 2534 2758 2815 
Q 2500 3097 2075 3097 
Q 1594 3097 1305 2825 
Q 1016 2553 972 2059 
L 3022 2063 
z
" id="DejaVuSans-65" transform="scale(0.015625)"/>
       <path d="M 2188 4044 
L 1331 1722 
L 3047 1722 
L 2188 4044 
z
M 1831 4666 
L 2547 4666 
L 4325 0 
L 3669 0 
L 3244 1197 
L 1141 1197 
L 716 0 
L 50 0 
L 1831 4666 
z
" id="DejaVuSans-41" transform="scale(0.015625)"/>
       <path d="M 2631 2963 
Q 2534 3019 2420 3045 
Q 2306 3072 2169 3072 
Q 1681 3072 1420 2755 
Q 1159 2438 1159 1844 
L 1159 0 
L 581 0 
L 581 3500 
L 1159 3500 
L 1159 2956 
Q 1341 3275 1631 3429 
Q 1922 3584 2338 3584 
Q 2397 3584 2469 3576 
Q 2541 3569 2628 3553 
L 2631 2963 
z
" id="DejaVuSans-72" transform="scale(0.015625)"/>
       <path d="M 2059 -325 
Q 1816 -950 1584 -1140 
Q 1353 -1331 966 -1331 
L 506 -1331 
L 506 -850 
L 844 -850 
Q 1081 -850 1212 -737 
Q 1344 -625 1503 -206 
L 1606 56 
L 191 3500 
L 800 3500 
L 1894 763 
L 2988 3500 
L 3597 3500 
L 2059 -325 
z
" id="DejaVuSans-79" transform="scale(0.015625)"/>
      </defs>
      <use xlink:href="#DejaVuSans-54"/>
      <use x="44.083984" xlink:href="#DejaVuSans-65"/>
      <use x="105.607422" xlink:href="#DejaVuSans-73"/>
      <use x="157.707031" xlink:href="#DejaVuSans-74"/>
      <use x="196.916016" xlink:href="#DejaVuSans-20"/>
      <use x="228.703125" xlink:href="#DejaVuSans-41"/>
      <use x="295.361328" xlink:href="#DejaVuSans-63"/>
      <use x="350.341797" xlink:href="#DejaVuSans-63"/>
      <use x="405.322266" xlink:href="#DejaVuSans-75"/>
      <use x="468.701172" xlink:href="#DejaVuSans-72"/>
      <use x="509.814453" xlink:href="#DejaVuSans-61"/>
      <use x="571.09375" xlink:href="#DejaVuSans-63"/>
      <use x="626.074219" xlink:href="#DejaVuSans-79"/>
     </g>
    </g>
   </g>
   <g id="line2d_25">
    <path clip-path="url(#peb4edc7fea)" d="M 59.277727 204.263814 
L 65.244147 140.758363 
L 71.210566 128.294676 
L 77.176985 124.140114 
L 83.143404 109.302392 
L 89.109824 100.993267 
L 95.076243 90.903616 
L 101.042662 92.090634 
L 107.009082 84.968527 
L 112.975501 82.000983 
L 118.94192 79.626947 
L 124.90834 76.659403 
L 130.874759 80.813965 
L 136.841178 79.033439 
L 142.807597 74.878876 
L 148.774017 73.691859 
L 154.740436 74.878876 
L 160.706855 70.130805 
L 166.673275 70.724314 
L 172.639694 68.943787 
L 178.606113 68.350279 
L 184.572532 65.976243 
L 190.538952 68.350279 
L 196.505371 69.537296 
L 202.47179 70.130805 
L 208.43821 62.41519 
L 214.404629 61.821681 
L 220.371048 62.41519 
L 226.337468 64.195716 
L 232.303887 64.789225 
L 238.270306 58.260627 
L 244.236725 64.195716 
L 250.203145 60.041154 
L 256.169564 55.886592 
L 262.135983 56.480101 
L 268.102403 53.512556 
L 274.068822 52.919047 
L 280.035241 48.764485 
L 286.00166 49.357994 
L 291.96808 48.764485 
L 297.934499 48.170976 
L 303.900918 48.764485 
L 309.867338 51.73203 
L 315.833757 45.796941 
L 321.800176 48.764485 
L 327.766596 47.577467 
L 333.733015 47.577467 
L 339.699434 48.170976 
L 345.665853 49.951503 
L 351.632273 44.016414 
" style="fill:none;stroke:#1f77b4;stroke-linecap:square;stroke-width:1.5;"/>
   </g>
   <g id="line2d_26">
    <path clip-path="url(#peb4edc7fea)" d="M 59.277727 223.849607 
L 65.244147 149.660996 
L 71.210566 138.977836 
L 77.176985 128.888185 
L 83.143404 117.611516 
L 89.109824 105.14783 
L 95.076243 101.586776 
L 101.042662 99.80625 
L 107.009082 98.619232 
L 112.975501 91.497125 
L 118.94192 84.375019 
L 124.90834 83.188001 
L 130.874759 84.968527 
L 136.841178 84.968527 
L 142.807597 80.813965 
L 148.774017 80.220456 
L 154.740436 76.065894 
L 160.706855 74.878876 
L 166.673275 75.472385 
L 172.639694 76.065894 
L 178.606113 75.472385 
L 184.572532 74.878876 
L 190.538952 74.878876 
L 196.505371 74.285367 
L 202.47179 71.317823 
L 208.43821 71.911332 
L 214.404629 70.724314 
L 220.371048 67.75677 
L 226.337468 73.09835 
L 232.303887 71.317823 
L 238.270306 67.75677 
L 244.236725 67.75677 
L 250.203145 70.130805 
L 256.169564 69.537296 
L 262.135983 65.976243 
L 268.102403 63.602207 
L 274.068822 62.41519 
L 280.035241 63.602207 
L 286.00166 60.634663 
L 291.96808 63.008699 
L 297.934499 65.382734 
L 303.900918 63.602207 
L 309.867338 63.008699 
L 315.833757 60.041154 
L 321.800176 57.07361 
L 327.766596 58.260627 
L 333.733015 57.667119 
L 339.699434 57.07361 
L 345.665853 60.041154 
L 351.632273 59.447645 
" style="fill:none;stroke:#ff7f0e;stroke-linecap:square;stroke-width:1.5;"/>
   </g>
   <g id="line2d_27">
    <path clip-path="url(#peb4edc7fea)" d="M 59.277727 249.370489 
L 65.244147 162.124683 
L 71.210566 140.758363 
L 77.176985 118.205025 
L 83.143404 117.611516 
L 89.109824 109.895901 
L 95.076243 105.14783 
L 101.042662 96.245196 
L 107.009082 90.310107 
L 112.975501 82.594492 
L 118.94192 83.188001 
L 124.90834 83.78151 
L 130.874759 80.813965 
L 136.841178 77.846421 
L 142.807597 77.252912 
L 148.774017 77.846421 
L 154.740436 72.504841 
L 160.706855 70.130805 
L 166.673275 72.504841 
L 172.639694 69.537296 
L 178.606113 69.537296 
L 184.572532 71.317823 
L 190.538952 70.724314 
L 196.505371 70.724314 
L 202.47179 68.350279 
L 208.43821 66.569752 
L 214.404629 70.130805 
L 220.371048 65.382734 
L 226.337468 65.976243 
L 232.303887 65.976243 
L 238.270306 62.41519 
L 244.236725 66.569752 
L 250.203145 63.602207 
L 256.169564 63.008699 
L 262.135983 65.976243 
L 268.102403 61.228172 
L 274.068822 64.195716 
L 280.035241 64.195716 
L 286.00166 60.634663 
L 291.96808 60.041154 
L 297.934499 60.041154 
L 303.900918 60.634663 
L 309.867338 61.821681 
L 315.833757 58.854136 
L 321.800176 60.041154 
L 327.766596 60.634663 
L 333.733015 59.447645 
L 339.699434 60.634663 
L 345.665853 60.041154 
L 351.632273 58.854136 
" style="fill:none;stroke:#2ca02c;stroke-linecap:square;stroke-width:1.5;"/>
   </g>
   <g id="line2d_28">
    <path clip-path="url(#peb4edc7fea)" d="M 59.277727 244.630727 
L 65.244147 195.539827 
L 71.210566 176.597397 
L 77.176985 163.703416 
L 83.143404 153.482006 
L 89.109824 144.995423 
L 95.076243 137.446583 
L 101.042662 131.63257 
L 107.009082 126.193655 
L 112.975501 123.192874 
L 118.94192 119.535672 
L 124.90834 117.425748 
L 130.874759 115.597147 
L 136.841178 113.2059 
L 142.807597 111.799284 
L 148.774017 110.533329 
L 154.740436 109.361149 
L 160.706855 109.408036 
L 166.673275 108.00142 
L 172.639694 107.298112 
L 178.606113 106.125932 
L 184.572532 107.110563 
L 190.538952 105.703947 
L 196.505371 105.610173 
L 202.47179 104.953752 
L 208.43821 104.766203 
L 214.404629 103.781572 
L 220.371048 104.48488 
L 226.337468 104.437993 
L 232.303887 103.687798 
L 238.270306 103.875347 
L 244.236725 104.016008 
L 250.203145 103.594023 
L 256.169564 103.500249 
L 262.135983 103.547136 
L 268.102403 103.218926 
L 274.068822 102.515618 
L 280.035241 102.703166 
L 286.00166 102.421843 
L 291.96808 102.609392 
L 297.934499 102.421843 
L 303.900918 102.421843 
L 309.867338 102.562505 
L 315.833757 101.906084 
L 321.800176 102.234294 
L 327.766596 102.328069 
L 333.733015 102.046746 
L 339.699434 101.81231 
L 345.665853 101.81231 
L 351.632273 101.671648 
" style="fill:none;stroke:#d62728;stroke-linecap:square;stroke-width:1.5;"/>
   </g>
   <g id="patch_3">
    <path d="M 44.66 303.64 
L 44.66 26.88 
" style="fill:none;stroke:#000000;stroke-linecap:square;stroke-linejoin:miter;stroke-width:0.8;"/>
   </g>
   <g id="patch_4">
    <path d="M 366.25 303.64 
L 366.25 26.88 
" style="fill:none;stroke:#000000;stroke-linecap:square;stroke-linejoin:miter;stroke-width:0.8;"/>
   </g>
   <g id="patch_5">
    <path d="M 44.66 303.64 
L 366.25 303.64 
" style="fill:none;stroke:#000000;stroke-linecap:square;stroke-linejoin:miter;stroke-width:0.8;"/>
   </g>
   <g id="patch_6">
    <path d="M 44.66 26.88 
L 366.25 26.88 
" style="fill:none;stroke:#000000;stroke-linecap:square;stroke-linejoin:miter;stroke-width:0.8;"/>
   </g>
   <g id="text_15">
    <!-- MNIST Local Rounds 05 -->
    <g transform="translate(135.527812 20.88)scale(0.12 -0.12)">
     <defs>
      <path d="M 628 4666 
L 1569 4666 
L 2759 1491 
L 3956 4666 
L 4897 4666 
L 4897 0 
L 4281 0 
L 4281 4097 
L 3078 897 
L 2444 897 
L 1241 4097 
L 1241 0 
L 628 0 
L 628 4666 
z
" id="DejaVuSans-4d" transform="scale(0.015625)"/>
      <path d="M 628 4666 
L 1478 4666 
L 3547 763 
L 3547 4666 
L 4159 4666 
L 4159 0 
L 3309 0 
L 1241 3903 
L 1241 0 
L 628 0 
L 628 4666 
z
" id="DejaVuSans-4e" transform="scale(0.015625)"/>
      <path d="M 628 4666 
L 1259 4666 
L 1259 0 
L 628 0 
L 628 4666 
z
" id="DejaVuSans-49" transform="scale(0.015625)"/>
      <path d="M 3425 4513 
L 3425 3897 
Q 3066 4069 2747 4153 
Q 2428 4238 2131 4238 
Q 1616 4238 1336 4038 
Q 1056 3838 1056 3469 
Q 1056 3159 1242 3001 
Q 1428 2844 1947 2747 
L 2328 2669 
Q 3034 2534 3370 2195 
Q 3706 1856 3706 1288 
Q 3706 609 3251 259 
Q 2797 -91 1919 -91 
Q 1588 -91 1214 -16 
Q 841 59 441 206 
L 441 856 
Q 825 641 1194 531 
Q 1563 422 1919 422 
Q 2459 422 2753 634 
Q 3047 847 3047 1241 
Q 3047 1584 2836 1778 
Q 2625 1972 2144 2069 
L 1759 2144 
Q 1053 2284 737 2584 
Q 422 2884 422 3419 
Q 422 4038 858 4394 
Q 1294 4750 2059 4750 
Q 2388 4750 2728 4690 
Q 3069 4631 3425 4513 
z
" id="DejaVuSans-53" transform="scale(0.015625)"/>
      <path d="M 628 4666 
L 1259 4666 
L 1259 531 
L 3531 531 
L 3531 0 
L 628 0 
L 628 4666 
z
" id="DejaVuSans-4c" transform="scale(0.015625)"/>
     </defs>
     <use xlink:href="#DejaVuSans-4d"/>
     <use x="86.279297" xlink:href="#DejaVuSans-4e"/>
     <use x="161.083984" xlink:href="#DejaVuSans-49"/>
     <use x="190.576172" xlink:href="#DejaVuSans-53"/>
     <use x="254.052734" xlink:href="#DejaVuSans-54"/>
     <use x="315.136719" xlink:href="#DejaVuSans-20"/>
     <use x="346.923828" xlink:href="#DejaVuSans-4c"/>
     <use x="400.886719" xlink:href="#DejaVuSans-6f"/>
     <use x="462.068359" xlink:href="#DejaVuSans-63"/>
     <use x="517.048828" xlink:href="#DejaVuSans-61"/>
     <use x="578.328125" xlink:href="#DejaVuSans-6c"/>
     <use x="606.111328" xlink:href="#DejaVuSans-20"/>
     <use x="637.898438" xlink:href="#DejaVuSans-52"/>
     <use x="702.880859" xlink:href="#DejaVuSans-6f"/>
     <use x="764.0625" xlink:href="#DejaVuSans-75"/>
     <use x="827.441406" xlink:href="#DejaVuSans-6e"/>
     <use x="890.820312" xlink:href="#DejaVuSans-64"/>
     <use x="954.296875" xlink:href="#DejaVuSans-73"/>
     <use x="1006.396484" xlink:href="#DejaVuSans-20"/>
     <use x="1038.183594" xlink:href="#DejaVuSans-30"/>
     <use x="1101.806641" xlink:href="#DejaVuSans-35"/>
    </g>
   </g>
   <g id="legend_1">
    <g id="patch_7">
     <path d="M 373.25 196.11625 
L 447.821875 196.11625 
Q 449.821875 196.11625 449.821875 194.11625 
L 449.821875 136.40375 
Q 449.821875 134.40375 447.821875 134.40375 
L 373.25 134.40375 
Q 371.25 134.40375 371.25 136.40375 
L 371.25 194.11625 
Q 371.25 196.11625 373.25 196.11625 
z
" style="fill:#ffffff;opacity:0.8;stroke:#cccccc;stroke-linejoin:miter;"/>
    </g>
    <g id="line2d_29">
     <path d="M 375.25 142.502187 
L 395.25 142.502187 
" style="fill:none;stroke:#1f77b4;stroke-linecap:square;stroke-width:1.5;"/>
    </g>
    <g id="line2d_30"/>
    <g id="text_16">
     <!-- FedAvg -->
     <g transform="translate(403.25 146.002187)scale(0.1 -0.1)">
      <defs>
       <path d="M 628 4666 
L 3309 4666 
L 3309 4134 
L 1259 4134 
L 1259 2759 
L 3109 2759 
L 3109 2228 
L 1259 2228 
L 1259 0 
L 628 0 
L 628 4666 
z
" id="DejaVuSans-46" transform="scale(0.015625)"/>
       <path d="M 191 3500 
L 800 3500 
L 1894 563 
L 2988 3500 
L 3597 3500 
L 2284 0 
L 1503 0 
L 191 3500 
z
" id="DejaVuSans-76" transform="scale(0.015625)"/>
       <path d="M 2906 1791 
Q 2906 2416 2648 2759 
Q 2391 3103 1925 3103 
Q 1463 3103 1205 2759 
Q 947 2416 947 1791 
Q 947 1169 1205 825 
Q 1463 481 1925 481 
Q 2391 481 2648 825 
Q 2906 1169 2906 1791 
z
M 3481 434 
Q 3481 -459 3084 -895 
Q 2688 -1331 1869 -1331 
Q 1566 -1331 1297 -1286 
Q 1028 -1241 775 -1147 
L 775 -588 
Q 1028 -725 1275 -790 
Q 1522 -856 1778 -856 
Q 2344 -856 2625 -561 
Q 2906 -266 2906 331 
L 2906 616 
Q 2728 306 2450 153 
Q 2172 0 1784 0 
Q 1141 0 747 490 
Q 353 981 353 1791 
Q 353 2603 747 3093 
Q 1141 3584 1784 3584 
Q 2172 3584 2450 3431 
Q 2728 3278 2906 2969 
L 2906 3500 
L 3481 3500 
L 3481 434 
z
" id="DejaVuSans-67" transform="scale(0.015625)"/>
      </defs>
      <use xlink:href="#DejaVuSans-46"/>
      <use x="52.019531" xlink:href="#DejaVuSans-65"/>
      <use x="113.542969" xlink:href="#DejaVuSans-64"/>
      <use x="177.019531" xlink:href="#DejaVuSans-41"/>
      <use x="239.552734" xlink:href="#DejaVuSans-76"/>
      <use x="298.732422" xlink:href="#DejaVuSans-67"/>
     </g>
    </g>
    <g id="line2d_31">
     <path d="M 375.25 157.180312 
L 395.25 157.180312 
" style="fill:none;stroke:#ff7f0e;stroke-linecap:square;stroke-width:1.5;"/>
    </g>
    <g id="line2d_32"/>
    <g id="text_17">
     <!-- FedMed -->
     <g transform="translate(403.25 160.680312)scale(0.1 -0.1)">
      <use xlink:href="#DejaVuSans-46"/>
      <use x="52.019531" xlink:href="#DejaVuSans-65"/>
      <use x="113.542969" xlink:href="#DejaVuSans-64"/>
      <use x="177.019531" xlink:href="#DejaVuSans-4d"/>
      <use x="263.298828" xlink:href="#DejaVuSans-65"/>
      <use x="324.822266" xlink:href="#DejaVuSans-64"/>
     </g>
    </g>
    <g id="line2d_33">
     <path d="M 375.25 171.858437 
L 395.25 171.858437 
" style="fill:none;stroke:#2ca02c;stroke-linecap:square;stroke-width:1.5;"/>
    </g>
    <g id="line2d_34"/>
    <g id="text_18">
     <!-- FedProx -->
     <g transform="translate(403.25 175.358437)scale(0.1 -0.1)">
      <defs>
       <path d="M 1259 4147 
L 1259 2394 
L 2053 2394 
Q 2494 2394 2734 2622 
Q 2975 2850 2975 3272 
Q 2975 3691 2734 3919 
Q 2494 4147 2053 4147 
L 1259 4147 
z
M 628 4666 
L 2053 4666 
Q 2838 4666 3239 4311 
Q 3641 3956 3641 3272 
Q 3641 2581 3239 2228 
Q 2838 1875 2053 1875 
L 1259 1875 
L 1259 0 
L 628 0 
L 628 4666 
z
" id="DejaVuSans-50" transform="scale(0.015625)"/>
       <path d="M 3513 3500 
L 2247 1797 
L 3578 0 
L 2900 0 
L 1881 1375 
L 863 0 
L 184 0 
L 1544 1831 
L 300 3500 
L 978 3500 
L 1906 2253 
L 2834 3500 
L 3513 3500 
z
" id="DejaVuSans-78" transform="scale(0.015625)"/>
      </defs>
      <use xlink:href="#DejaVuSans-46"/>
      <use x="52.019531" xlink:href="#DejaVuSans-65"/>
      <use x="113.542969" xlink:href="#DejaVuSans-64"/>
      <use x="177.019531" xlink:href="#DejaVuSans-50"/>
      <use x="235.572266" xlink:href="#DejaVuSans-72"/>
      <use x="274.435547" xlink:href="#DejaVuSans-6f"/>
      <use x="332.492188" xlink:href="#DejaVuSans-78"/>
     </g>
    </g>
    <g id="line2d_35">
     <path d="M 375.25 186.536563 
L 395.25 186.536563 
" style="fill:none;stroke:#d62728;stroke-linecap:square;stroke-width:1.5;"/>
    </g>
    <g id="line2d_36"/>
    <g id="text_19">
     <!-- qFedAvg -->
     <g transform="translate(403.25 190.036563)scale(0.1 -0.1)">
      <defs>
       <path d="M 947 1747 
Q 947 1113 1208 752 
Q 1469 391 1925 391 
Q 2381 391 2643 752 
Q 2906 1113 2906 1747 
Q 2906 2381 2643 2742 
Q 2381 3103 1925 3103 
Q 1469 3103 1208 2742 
Q 947 2381 947 1747 
z
M 2906 525 
Q 2725 213 2448 61 
Q 2172 -91 1784 -91 
Q 1150 -91 751 415 
Q 353 922 353 1747 
Q 353 2572 751 3078 
Q 1150 3584 1784 3584 
Q 2172 3584 2448 3432 
Q 2725 3281 2906 2969 
L 2906 3500 
L 3481 3500 
L 3481 -1331 
L 2906 -1331 
L 2906 525 
z
" id="DejaVuSans-71" transform="scale(0.015625)"/>
      </defs>
      <use xlink:href="#DejaVuSans-71"/>
      <use x="63.476562" xlink:href="#DejaVuSans-46"/>
      <use x="115.496094" xlink:href="#DejaVuSans-65"/>
      <use x="177.019531" xlink:href="#DejaVuSans-64"/>
      <use x="240.496094" xlink:href="#DejaVuSans-41"/>
      <use x="303.029297" xlink:href="#DejaVuSans-76"/>
      <use x="362.208984" xlink:href="#DejaVuSans-67"/>
     </g>
    </g>
   </g>
  </g>
 </g>
 <defs>
  <clipPath id="peb4edc7fea">
   <rect height="276.76" width="321.59" x="44.66" y="26.88"/>
  </clipPath>
 </defs>
</svg>
