<?xml version="1.0" encoding="utf-8" standalone="no"?>
<!DOCTYPE svg PUBLIC "-//W3C//DTD SVG 1.1//EN"
  "http://www.w3.org/Graphics/SVG/1.1/DTD/svg11.dtd">
<svg height="345.6pt" version="1.1" viewBox="0 0 460.8 345.6" width="460.8pt" xmlns="http://www.w3.org/2000/svg" xmlns:xlink="http://www.w3.org/1999/xlink">
 <metadata>
  <rdf:RDF xmlns:cc="http://creativecommons.org/ns#" xmlns:dc="http://purl.org/dc/elements/1.1/" xmlns:rdf="http://www.w3.org/1999/02/22-rdf-syntax-ns#">
   <cc:Work>
    <dc:type rdf:resource="http://purl.org/dc/dcmitype/StillImage"/>
    <dc:date>2021-05-05T21:55:35.625640</dc:date>
    <dc:format>image/svg+xml</dc:format>
    <dc:creator>
     <cc:Agent>
      <dc:title>Matplotlib v3.4.1, https://matplotlib.org/</dc:title>
     </cc:Agent>
    </dc:creator>
   </cc:Work>
  </rdf:RDF>
 </metadata>
 <defs>
  <style type="text/css">*{stroke-linecap:butt;stroke-linejoin:round;}</style>
 </defs>
 <g id="figure_1">
  <g id="patch_1">
   <path d="M 0 345.6 
L 460.8 345.6 
L 460.8 0 
L 0 0 
z
" style="fill:#ffffff;"/>
  </g>
  <g id="axes_1">
   <g id="patch_2">
    <path d="M 50.87 303.64 
L 450 303.64 
L 450 48.38 
L 50.87 48.38 
z
" style="fill:#ffffff;"/>
   </g>
   <g id="PolyCollection_1">
    <path clip-path="url(#p000b8a5851)" d="M 69.012273 232.929338 
L 69.012273 256.071463 
L 76.417282 176.623104 
L 83.822291 157.510581 
L 91.227301 135.536663 
L 98.63231 127.06441 
L 106.037319 117.257519 
L 113.442328 112.920403 
L 120.847338 109.062763 
L 128.252347 99.190881 
L 135.657356 94.272586 
L 143.062365 90.200064 
L 150.467375 88.270189 
L 157.872384 85.814064 
L 165.277393 85.40549 
L 172.682403 84.257504 
L 180.087412 84.701715 
L 187.492421 79.586804 
L 194.89743 79.103896 
L 202.30244 82.632562 
L 209.707449 78.226697 
L 217.112458 81.114586 
L 224.517468 84.936864 
L 231.922477 81.483554 
L 239.327486 80.464004 
L 246.732495 79.103896 
L 254.137505 78.226697 
L 261.542514 76.955204 
L 268.947523 78.226697 
L 276.352532 81.114586 
L 283.757542 80.315715 
L 291.162551 80.550864 
L 298.56756 75.200804 
L 305.97257 82.027464 
L 313.377579 78.482986 
L 320.782588 80.315715 
L 328.187597 75.929715 
L 335.592607 84.146524 
L 342.997616 73.357789 
L 350.402625 78.246562 
L 357.807635 79.871504 
L 365.212644 76.164864 
L 372.617653 77.260881 
L 380.022662 72.656064 
L 387.427672 69.710986 
L 394.832681 74.132664 
L 402.23769 72.874881 
L 409.642699 70.726189 
L 417.047709 69.710986 
L 424.452718 74.175315 
L 431.857727 72.656064 
L 431.857727 63.710344 
L 431.857727 63.710344 
L 424.452718 63.945493 
L 417.047709 63.146623 
L 409.642699 62.13142 
L 402.23769 59.982727 
L 394.832681 62.233745 
L 387.427672 63.146623 
L 380.022662 63.710344 
L 372.617653 64.368727 
L 365.212644 67.219144 
L 357.807635 68.775704 
L 350.402625 70.400647 
L 342.997616 64.76302 
L 335.592607 66.255085 
L 328.187597 65.699893 
L 320.782588 70.085893 
L 313.377579 71.918622 
L 305.97257 70.128544 
L 298.56756 71.692004 
L 291.162551 71.605144 
L 283.757542 70.085893 
L 276.352532 74.550222 
L 268.947523 73.929312 
L 261.542514 73.446404 
L 254.137505 73.929312 
L 246.732495 74.806512 
L 239.327486 73.446404 
L 231.922477 75.935654 
L 224.517468 75.991144 
L 217.112458 74.550222 
L 209.707449 73.929312 
L 202.30244 74.786647 
L 194.89743 74.806512 
L 187.492421 72.569204 
L 180.087412 74.471893 
L 172.682403 73.161704 
L 165.277393 73.768118 
L 157.872384 76.868344 
L 150.467375 79.675419 
L 143.062365 81.254344 
L 135.657356 87.708222 
L 128.252347 86.298727 
L 120.847338 93.970844 
L 113.442328 98.885204 
L 106.037319 101.565688 
L 98.63231 112.811597 
L 91.227301 123.637743 
L 83.822291 131.488624 
L 76.417282 149.218501 
L 69.012273 232.929338 
z
" style="fill:#1f77b4;fill-opacity:0.5;"/>
   </g>
   <g id="PolyCollection_2">
    <path clip-path="url(#p000b8a5851)" d="M 69.012273 246.086728 
L 69.012273 292.037273 
L 76.417282 176.431221 
L 83.822291 163.273221 
L 91.227301 146.782362 
L 98.63231 129.26549 
L 106.037319 126.728985 
L 113.442328 117.217788 
L 120.847338 112.831788 
L 128.252347 108.928696 
L 135.657356 113.347453 
L 143.062365 98.658586 
L 150.467375 101.063567 
L 157.872384 96.672226 
L 165.277393 94.272586 
L 172.682403 90.901789 
L 180.087412 93.473715 
L 187.492421 90.200064 
L 194.89743 89.236004 
L 202.30244 87.900226 
L 209.707449 85.814064 
L 217.112458 83.972804 
L 224.517468 85.814064 
L 231.922477 83.972804 
L 239.327486 84.701715 
L 246.732495 82.632562 
L 254.137505 82.868986 
L 261.542514 86.515789 
L 268.947523 81.114586 
L 276.352532 87.028368 
L 283.757542 83.514226 
L 291.162551 87.900226 
L 298.56756 85.814064 
L 305.97257 84.936864 
L 313.377579 82.642368 
L 320.782588 83.651091 
L 328.187597 84.257504 
L 335.592607 81.114586 
L 342.997616 78.226697 
L 350.402625 80.464004 
L 357.807635 82.868986 
L 365.212644 81.428064 
L 372.617653 79.103896 
L 380.022662 83.514226 
L 387.427672 81.428064 
L 394.832681 81.114586 
L 402.23769 85.869554 
L 409.642699 83.884189 
L 417.047709 84.936864 
L 424.452718 83.489896 
L 431.857727 84.936864 
L 431.857727 75.991144 
L 431.857727 75.991144 
L 424.452718 79.192512 
L 417.047709 75.991144 
L 409.642699 75.289419 
L 402.23769 80.321654 
L 394.832681 74.550222 
L 387.427672 72.482344 
L 380.022662 73.904982 
L 372.617653 74.806512 
L 365.212644 72.482344 
L 357.807635 76.304622 
L 350.402625 73.446404 
L 342.997616 73.929312 
L 335.592607 74.550222 
L 328.187597 73.161704 
L 320.782588 72.013718 
L 313.377579 69.513641 
L 305.97257 75.991144 
L 298.56756 76.868344 
L 291.162551 78.290982 
L 283.757542 73.904982 
L 276.352532 73.89964 
L 268.947523 74.550222 
L 261.542514 77.921019 
L 254.137505 76.304622 
L 246.732495 74.786647 
L 239.327486 74.471893 
L 231.922477 76.955204 
L 224.517468 76.868344 
L 217.112458 76.955204 
L 209.707449 76.868344 
L 202.30244 78.290982 
L 194.89743 82.218404 
L 187.492421 81.254344 
L 180.087412 83.243893 
L 172.682403 82.307019 
L 165.277393 87.708222 
L 157.872384 87.062982 
L 150.467375 87.93484 
L 143.062365 92.094222 
L 135.657356 96.703754 
L 128.252347 104.631311 
L 120.847338 104.237019 
L 113.442328 108.623019 
L 106.037319 120.164621 
L 98.63231 117.628117 
L 91.227301 131.690443 
L 83.822291 143.269984 
L 76.417282 156.427984 
L 69.012273 246.086728 
z
" style="fill:#ff7f0e;fill-opacity:0.5;"/>
   </g>
   <g id="PolyCollection_3">
    <path clip-path="url(#p000b8a5851)" d="M 69.012273 232.001655 
L 69.012273 267.525546 
L 76.417282 184.207375 
L 83.822291 158.84048 
L 91.227301 138.446063 
L 98.63231 138.359203 
L 106.037319 118.035314 
L 113.442328 112.920403 
L 120.847338 103.044585 
L 128.252347 109.835567 
L 135.657356 108.731749 
L 143.062365 102.922363 
L 150.467375 93.444773 
L 157.872384 93.338737 
L 165.277393 90.434786 
L 172.682403 88.111256 
L 180.087412 82.947315 
L 187.492421 86.604404 
L 194.89743 84.257504 
L 202.30244 86.604404 
L 209.707449 89.476022 
L 217.112458 81.428064 
L 224.517468 85.378364 
L 231.922477 82.632562 
L 239.327486 80.315715 
L 246.732495 80.464004 
L 254.137505 79.586804 
L 261.542514 78.482986 
L 268.947523 82.027464 
L 276.352532 83.20441 
L 283.757542 81.646881 
L 291.162551 79.128226 
L 298.56756 80.315715 
L 305.97257 83.705574 
L 313.377579 76.633491 
L 320.782588 79.128226 
L 328.187597 79.133568 
L 335.592607 80.992364 
L 342.997616 79.128226 
L 350.402625 77.097554 
L 357.807635 77.641464 
L 365.212644 77.042064 
L 372.617653 76.078004 
L 380.022662 77.641464 
L 387.427672 76.078004 
L 394.832681 74.879091 
L 402.23769 77.641464 
L 409.642699 77.641464 
L 417.047709 74.132664 
L 424.452718 76.633491 
L 431.857727 75.485504 
L 431.857727 64.389704 
L 431.857727 64.389704 
L 424.452718 64.996118 
L 417.047709 62.233745 
L 409.642699 65.742545 
L 402.23769 65.742545 
L 394.832681 63.241718 
L 387.427672 62.042804 
L 380.022662 65.742545 
L 372.617653 62.042804 
L 365.212644 68.096344 
L 357.807635 65.742545 
L 350.402625 71.549654 
L 342.997616 69.518982 
L 335.592607 65.900445 
L 328.187597 66.004841 
L 320.782588 69.518982 
L 313.377579 64.996118 
L 305.97257 66.696035 
L 298.56756 70.085893 
L 291.162551 69.518982 
L 283.757542 68.754727 
L 276.352532 68.951598 
L 268.947523 70.128544 
L 261.542514 71.918622 
L 254.137505 72.569204 
L 246.732495 73.446404 
L 239.327486 70.085893 
L 231.922477 74.786647 
L 224.517468 70.286445 
L 217.112458 72.482344 
L 209.707449 73.206386 
L 202.30244 76.078004 
L 194.89743 73.161704 
L 187.492421 76.078004 
L 180.087412 72.717493 
L 172.682403 72.816752 
L 165.277393 75.756422 
L 157.872384 74.606871 
L 150.467375 76.255235 
L 143.062365 87.830444 
L 135.657356 89.038658 
L 128.252347 96.70684 
L 120.847338 96.480222 
L 113.442328 102.394004 
L 106.037319 107.805492 
L 98.63231 117.306403 
L 91.227301 129.500343 
L 83.822291 145.948326 
L 76.417282 160.932629 
L 69.012273 232.001655 
z
" style="fill:#2ca02c;fill-opacity:0.5;"/>
   </g>
   <g id="PolyCollection_4">
    <path clip-path="url(#p000b8a5851)" d="M 69.012273 224.038856 
L 69.012273 248.447778 
L 76.417282 185.549866 
L 83.822291 167.910575 
L 91.227301 152.749335 
L 98.63231 144.832334 
L 106.037319 136.303826 
L 113.442328 132.00591 
L 120.847338 126.769594 
L 128.252347 123.927597 
L 135.657356 121.275903 
L 143.062365 120.111342 
L 150.467375 117.144783 
L 157.872384 117.357101 
L 165.277393 115.97884 
L 172.682403 114.376617 
L 180.087412 113.179616 
L 187.492421 112.079518 
L 194.89743 110.785739 
L 202.30244 110.121265 
L 209.707449 109.437586 
L 217.112458 109.015916 
L 224.517468 107.431075 
L 231.922477 107.639153 
L 239.327486 108.055569 
L 246.732495 107.597444 
L 254.137505 107.674008 
L 261.542514 107.596561 
L 268.947523 106.71866 
L 276.352532 105.693987 
L 283.757542 105.489778 
L 291.162551 105.690739 
L 298.56756 106.238771 
L 305.97257 104.269361 
L 313.377579 104.656961 
L 320.782588 104.635108 
L 328.187597 105.102757 
L 335.592607 104.083567 
L 342.997616 104.303649 
L 350.402625 104.664743 
L 357.807635 103.747861 
L 365.212644 103.003418 
L 372.617653 103.65982 
L 380.022662 103.798102 
L 387.427672 104.487418 
L 394.832681 103.27503 
L 402.23769 103.521454 
L 409.642699 102.752566 
L 417.047709 102.946874 
L 424.452718 101.795267 
L 431.857727 103.213403 
L 431.857727 96.928953 
L 431.857727 96.928953 
L 424.452718 97.792699 
L 417.047709 97.056884 
L 409.642699 97.805583 
L 402.23769 97.31389 
L 394.832681 99.084888 
L 387.427672 99.674268 
L 380.022662 99.393401 
L 372.617653 98.838695 
L 365.212644 99.217902 
L 357.807635 98.750654 
L 350.402625 98.110967 
L 342.997616 99.71944 
L 335.592607 99.939522 
L 328.187597 98.781734 
L 320.782588 99.249383 
L 313.377579 98.673139 
L 305.97257 99.337935 
L 298.56756 99.586086 
L 291.162551 98.88674 
L 283.757542 100.057884 
L 276.352532 100.685261 
L 268.947523 101.185161 
L 261.542514 101.831834 
L 254.137505 103.140363 
L 246.732495 102.523939 
L 239.327486 101.650021 
L 231.922477 100.957656 
L 224.517468 102.690308 
L 217.112458 103.461627 
L 209.707449 102.485566 
L 202.30244 101.940484 
L 194.89743 103.632169 
L 187.492421 104.971745 
L 180.087412 107.475184 
L 172.682403 108.079952 
L 165.277393 108.279498 
L 157.872384 110.088982 
L 150.467375 112.518861 
L 143.062365 112.601449 
L 135.657356 114.486035 
L 128.252347 117.10105 
L 120.847338 120.21875 
L 113.442328 124.822863 
L 106.037319 129.533791 
L 98.63231 135.835226 
L 91.227301 145.797315 
L 83.822291 156.27663 
L 76.417282 177.721862 
L 69.012273 224.038856 
z
" style="fill:#d62728;fill-opacity:0.5;"/>
   </g>
   <g id="matplotlib.axis_1">
    <g id="xtick_1">
     <g id="line2d_1">
      <defs>
       <path d="M 0 0 
L 0 3.5 
" id="m2f057e7c90" style="stroke:#000000;stroke-width:0.8;"/>
      </defs>
      <g>
       <use style="stroke:#000000;stroke-width:0.8;" x="69.012273" xlink:href="#m2f057e7c90" y="303.64"/>
      </g>
     </g>
     <g id="text_1">
      <!-- 0 -->
      <g transform="translate(65.831023 318.238437)scale(0.1 -0.1)">
       <defs>
        <path d="M 2034 4250 
Q 1547 4250 1301 3770 
Q 1056 3291 1056 2328 
Q 1056 1369 1301 889 
Q 1547 409 2034 409 
Q 2525 409 2770 889 
Q 3016 1369 3016 2328 
Q 3016 3291 2770 3770 
Q 2525 4250 2034 4250 
z
M 2034 4750 
Q 2819 4750 3233 4129 
Q 3647 3509 3647 2328 
Q 3647 1150 3233 529 
Q 2819 -91 2034 -91 
Q 1250 -91 836 529 
Q 422 1150 422 2328 
Q 422 3509 836 4129 
Q 1250 4750 2034 4750 
z
" id="DejaVuSans-30" transform="scale(0.015625)"/>
       </defs>
       <use xlink:href="#DejaVuSans-30"/>
      </g>
     </g>
    </g>
    <g id="xtick_2">
     <g id="line2d_2">
      <g>
       <use style="stroke:#000000;stroke-width:0.8;" x="143.062365" xlink:href="#m2f057e7c90" y="303.64"/>
      </g>
     </g>
     <g id="text_2">
      <!-- 10 -->
      <g transform="translate(136.699865 318.238437)scale(0.1 -0.1)">
       <defs>
        <path d="M 794 531 
L 1825 531 
L 1825 4091 
L 703 3866 
L 703 4441 
L 1819 4666 
L 2450 4666 
L 2450 531 
L 3481 531 
L 3481 0 
L 794 0 
L 794 531 
z
" id="DejaVuSans-31" transform="scale(0.015625)"/>
       </defs>
       <use xlink:href="#DejaVuSans-31"/>
       <use x="63.623047" xlink:href="#DejaVuSans-30"/>
      </g>
     </g>
    </g>
    <g id="xtick_3">
     <g id="line2d_3">
      <g>
       <use style="stroke:#000000;stroke-width:0.8;" x="217.112458" xlink:href="#m2f057e7c90" y="303.64"/>
      </g>
     </g>
     <g id="text_3">
      <!-- 20 -->
      <g transform="translate(210.749958 318.238437)scale(0.1 -0.1)">
       <defs>
        <path d="M 1228 531 
L 3431 531 
L 3431 0 
L 469 0 
L 469 531 
Q 828 903 1448 1529 
Q 2069 2156 2228 2338 
Q 2531 2678 2651 2914 
Q 2772 3150 2772 3378 
Q 2772 3750 2511 3984 
Q 2250 4219 1831 4219 
Q 1534 4219 1204 4116 
Q 875 4013 500 3803 
L 500 4441 
Q 881 4594 1212 4672 
Q 1544 4750 1819 4750 
Q 2544 4750 2975 4387 
Q 3406 4025 3406 3419 
Q 3406 3131 3298 2873 
Q 3191 2616 2906 2266 
Q 2828 2175 2409 1742 
Q 1991 1309 1228 531 
z
" id="DejaVuSans-32" transform="scale(0.015625)"/>
       </defs>
       <use xlink:href="#DejaVuSans-32"/>
       <use x="63.623047" xlink:href="#DejaVuSans-30"/>
      </g>
     </g>
    </g>
    <g id="xtick_4">
     <g id="line2d_4">
      <g>
       <use style="stroke:#000000;stroke-width:0.8;" x="291.162551" xlink:href="#m2f057e7c90" y="303.64"/>
      </g>
     </g>
     <g id="text_4">
      <!-- 30 -->
      <g transform="translate(284.800051 318.238437)scale(0.1 -0.1)">
       <defs>
        <path d="M 2597 2516 
Q 3050 2419 3304 2112 
Q 3559 1806 3559 1356 
Q 3559 666 3084 287 
Q 2609 -91 1734 -91 
Q 1441 -91 1130 -33 
Q 819 25 488 141 
L 488 750 
Q 750 597 1062 519 
Q 1375 441 1716 441 
Q 2309 441 2620 675 
Q 2931 909 2931 1356 
Q 2931 1769 2642 2001 
Q 2353 2234 1838 2234 
L 1294 2234 
L 1294 2753 
L 1863 2753 
Q 2328 2753 2575 2939 
Q 2822 3125 2822 3475 
Q 2822 3834 2567 4026 
Q 2313 4219 1838 4219 
Q 1578 4219 1281 4162 
Q 984 4106 628 3988 
L 628 4550 
Q 988 4650 1302 4700 
Q 1616 4750 1894 4750 
Q 2613 4750 3031 4423 
Q 3450 4097 3450 3541 
Q 3450 3153 3228 2886 
Q 3006 2619 2597 2516 
z
" id="DejaVuSans-33" transform="scale(0.015625)"/>
       </defs>
       <use xlink:href="#DejaVuSans-33"/>
       <use x="63.623047" xlink:href="#DejaVuSans-30"/>
      </g>
     </g>
    </g>
    <g id="xtick_5">
     <g id="line2d_5">
      <g>
       <use style="stroke:#000000;stroke-width:0.8;" x="365.212644" xlink:href="#m2f057e7c90" y="303.64"/>
      </g>
     </g>
     <g id="text_5">
      <!-- 40 -->
      <g transform="translate(358.850144 318.238437)scale(0.1 -0.1)">
       <defs>
        <path d="M 2419 4116 
L 825 1625 
L 2419 1625 
L 2419 4116 
z
M 2253 4666 
L 3047 4666 
L 3047 1625 
L 3713 1625 
L 3713 1100 
L 3047 1100 
L 3047 0 
L 2419 0 
L 2419 1100 
L 313 1100 
L 313 1709 
L 2253 4666 
z
" id="DejaVuSans-34" transform="scale(0.015625)"/>
       </defs>
       <use xlink:href="#DejaVuSans-34"/>
       <use x="63.623047" xlink:href="#DejaVuSans-30"/>
      </g>
     </g>
    </g>
    <g id="xtick_6">
     <g id="line2d_6">
      <g>
       <use style="stroke:#000000;stroke-width:0.8;" x="439.262737" xlink:href="#m2f057e7c90" y="303.64"/>
      </g>
     </g>
     <g id="text_6">
      <!-- 50 -->
      <g transform="translate(432.900237 318.238437)scale(0.1 -0.1)">
       <defs>
        <path d="M 691 4666 
L 3169 4666 
L 3169 4134 
L 1269 4134 
L 1269 2991 
Q 1406 3038 1543 3061 
Q 1681 3084 1819 3084 
Q 2600 3084 3056 2656 
Q 3513 2228 3513 1497 
Q 3513 744 3044 326 
Q 2575 -91 1722 -91 
Q 1428 -91 1123 -41 
Q 819 9 494 109 
L 494 744 
Q 775 591 1075 516 
Q 1375 441 1709 441 
Q 2250 441 2565 725 
Q 2881 1009 2881 1497 
Q 2881 1984 2565 2268 
Q 2250 2553 1709 2553 
Q 1456 2553 1204 2497 
Q 953 2441 691 2322 
L 691 4666 
z
" id="DejaVuSans-35" transform="scale(0.015625)"/>
       </defs>
       <use xlink:href="#DejaVuSans-35"/>
       <use x="63.623047" xlink:href="#DejaVuSans-30"/>
      </g>
     </g>
    </g>
    <g id="text_7">
     <!-- Global Communication Rounds -->
     <g transform="translate(173.473281 331.916562)scale(0.1 -0.1)">
      <defs>
       <path d="M 3809 666 
L 3809 1919 
L 2778 1919 
L 2778 2438 
L 4434 2438 
L 4434 434 
Q 4069 175 3628 42 
Q 3188 -91 2688 -91 
Q 1594 -91 976 548 
Q 359 1188 359 2328 
Q 359 3472 976 4111 
Q 1594 4750 2688 4750 
Q 3144 4750 3555 4637 
Q 3966 4525 4313 4306 
L 4313 3634 
Q 3963 3931 3569 4081 
Q 3175 4231 2741 4231 
Q 1884 4231 1454 3753 
Q 1025 3275 1025 2328 
Q 1025 1384 1454 906 
Q 1884 428 2741 428 
Q 3075 428 3337 486 
Q 3600 544 3809 666 
z
" id="DejaVuSans-47" transform="scale(0.015625)"/>
       <path d="M 603 4863 
L 1178 4863 
L 1178 0 
L 603 0 
L 603 4863 
z
" id="DejaVuSans-6c" transform="scale(0.015625)"/>
       <path d="M 1959 3097 
Q 1497 3097 1228 2736 
Q 959 2375 959 1747 
Q 959 1119 1226 758 
Q 1494 397 1959 397 
Q 2419 397 2687 759 
Q 2956 1122 2956 1747 
Q 2956 2369 2687 2733 
Q 2419 3097 1959 3097 
z
M 1959 3584 
Q 2709 3584 3137 3096 
Q 3566 2609 3566 1747 
Q 3566 888 3137 398 
Q 2709 -91 1959 -91 
Q 1206 -91 779 398 
Q 353 888 353 1747 
Q 353 2609 779 3096 
Q 1206 3584 1959 3584 
z
" id="DejaVuSans-6f" transform="scale(0.015625)"/>
       <path d="M 3116 1747 
Q 3116 2381 2855 2742 
Q 2594 3103 2138 3103 
Q 1681 3103 1420 2742 
Q 1159 2381 1159 1747 
Q 1159 1113 1420 752 
Q 1681 391 2138 391 
Q 2594 391 2855 752 
Q 3116 1113 3116 1747 
z
M 1159 2969 
Q 1341 3281 1617 3432 
Q 1894 3584 2278 3584 
Q 2916 3584 3314 3078 
Q 3713 2572 3713 1747 
Q 3713 922 3314 415 
Q 2916 -91 2278 -91 
Q 1894 -91 1617 61 
Q 1341 213 1159 525 
L 1159 0 
L 581 0 
L 581 4863 
L 1159 4863 
L 1159 2969 
z
" id="DejaVuSans-62" transform="scale(0.015625)"/>
       <path d="M 2194 1759 
Q 1497 1759 1228 1600 
Q 959 1441 959 1056 
Q 959 750 1161 570 
Q 1363 391 1709 391 
Q 2188 391 2477 730 
Q 2766 1069 2766 1631 
L 2766 1759 
L 2194 1759 
z
M 3341 1997 
L 3341 0 
L 2766 0 
L 2766 531 
Q 2569 213 2275 61 
Q 1981 -91 1556 -91 
Q 1019 -91 701 211 
Q 384 513 384 1019 
Q 384 1609 779 1909 
Q 1175 2209 1959 2209 
L 2766 2209 
L 2766 2266 
Q 2766 2663 2505 2880 
Q 2244 3097 1772 3097 
Q 1472 3097 1187 3025 
Q 903 2953 641 2809 
L 641 3341 
Q 956 3463 1253 3523 
Q 1550 3584 1831 3584 
Q 2591 3584 2966 3190 
Q 3341 2797 3341 1997 
z
" id="DejaVuSans-61" transform="scale(0.015625)"/>
       <path id="DejaVuSans-20" transform="scale(0.015625)"/>
       <path d="M 4122 4306 
L 4122 3641 
Q 3803 3938 3442 4084 
Q 3081 4231 2675 4231 
Q 1875 4231 1450 3742 
Q 1025 3253 1025 2328 
Q 1025 1406 1450 917 
Q 1875 428 2675 428 
Q 3081 428 3442 575 
Q 3803 722 4122 1019 
L 4122 359 
Q 3791 134 3420 21 
Q 3050 -91 2638 -91 
Q 1578 -91 968 557 
Q 359 1206 359 2328 
Q 359 3453 968 4101 
Q 1578 4750 2638 4750 
Q 3056 4750 3426 4639 
Q 3797 4528 4122 4306 
z
" id="DejaVuSans-43" transform="scale(0.015625)"/>
       <path d="M 3328 2828 
Q 3544 3216 3844 3400 
Q 4144 3584 4550 3584 
Q 5097 3584 5394 3201 
Q 5691 2819 5691 2113 
L 5691 0 
L 5113 0 
L 5113 2094 
Q 5113 2597 4934 2840 
Q 4756 3084 4391 3084 
Q 3944 3084 3684 2787 
Q 3425 2491 3425 1978 
L 3425 0 
L 2847 0 
L 2847 2094 
Q 2847 2600 2669 2842 
Q 2491 3084 2119 3084 
Q 1678 3084 1418 2786 
Q 1159 2488 1159 1978 
L 1159 0 
L 581 0 
L 581 3500 
L 1159 3500 
L 1159 2956 
Q 1356 3278 1631 3431 
Q 1906 3584 2284 3584 
Q 2666 3584 2933 3390 
Q 3200 3197 3328 2828 
z
" id="DejaVuSans-6d" transform="scale(0.015625)"/>
       <path d="M 544 1381 
L 544 3500 
L 1119 3500 
L 1119 1403 
Q 1119 906 1312 657 
Q 1506 409 1894 409 
Q 2359 409 2629 706 
Q 2900 1003 2900 1516 
L 2900 3500 
L 3475 3500 
L 3475 0 
L 2900 0 
L 2900 538 
Q 2691 219 2414 64 
Q 2138 -91 1772 -91 
Q 1169 -91 856 284 
Q 544 659 544 1381 
z
M 1991 3584 
L 1991 3584 
z
" id="DejaVuSans-75" transform="scale(0.015625)"/>
       <path d="M 3513 2113 
L 3513 0 
L 2938 0 
L 2938 2094 
Q 2938 2591 2744 2837 
Q 2550 3084 2163 3084 
Q 1697 3084 1428 2787 
Q 1159 2491 1159 1978 
L 1159 0 
L 581 0 
L 581 3500 
L 1159 3500 
L 1159 2956 
Q 1366 3272 1645 3428 
Q 1925 3584 2291 3584 
Q 2894 3584 3203 3211 
Q 3513 2838 3513 2113 
z
" id="DejaVuSans-6e" transform="scale(0.015625)"/>
       <path d="M 603 3500 
L 1178 3500 
L 1178 0 
L 603 0 
L 603 3500 
z
M 603 4863 
L 1178 4863 
L 1178 4134 
L 603 4134 
L 603 4863 
z
" id="DejaVuSans-69" transform="scale(0.015625)"/>
       <path d="M 3122 3366 
L 3122 2828 
Q 2878 2963 2633 3030 
Q 2388 3097 2138 3097 
Q 1578 3097 1268 2742 
Q 959 2388 959 1747 
Q 959 1106 1268 751 
Q 1578 397 2138 397 
Q 2388 397 2633 464 
Q 2878 531 3122 666 
L 3122 134 
Q 2881 22 2623 -34 
Q 2366 -91 2075 -91 
Q 1284 -91 818 406 
Q 353 903 353 1747 
Q 353 2603 823 3093 
Q 1294 3584 2113 3584 
Q 2378 3584 2631 3529 
Q 2884 3475 3122 3366 
z
" id="DejaVuSans-63" transform="scale(0.015625)"/>
       <path d="M 1172 4494 
L 1172 3500 
L 2356 3500 
L 2356 3053 
L 1172 3053 
L 1172 1153 
Q 1172 725 1289 603 
Q 1406 481 1766 481 
L 2356 481 
L 2356 0 
L 1766 0 
Q 1100 0 847 248 
Q 594 497 594 1153 
L 594 3053 
L 172 3053 
L 172 3500 
L 594 3500 
L 594 4494 
L 1172 4494 
z
" id="DejaVuSans-74" transform="scale(0.015625)"/>
       <path d="M 2841 2188 
Q 3044 2119 3236 1894 
Q 3428 1669 3622 1275 
L 4263 0 
L 3584 0 
L 2988 1197 
Q 2756 1666 2539 1819 
Q 2322 1972 1947 1972 
L 1259 1972 
L 1259 0 
L 628 0 
L 628 4666 
L 2053 4666 
Q 2853 4666 3247 4331 
Q 3641 3997 3641 3322 
Q 3641 2881 3436 2590 
Q 3231 2300 2841 2188 
z
M 1259 4147 
L 1259 2491 
L 2053 2491 
Q 2509 2491 2742 2702 
Q 2975 2913 2975 3322 
Q 2975 3731 2742 3939 
Q 2509 4147 2053 4147 
L 1259 4147 
z
" id="DejaVuSans-52" transform="scale(0.015625)"/>
       <path d="M 2906 2969 
L 2906 4863 
L 3481 4863 
L 3481 0 
L 2906 0 
L 2906 525 
Q 2725 213 2448 61 
Q 2172 -91 1784 -91 
Q 1150 -91 751 415 
Q 353 922 353 1747 
Q 353 2572 751 3078 
Q 1150 3584 1784 3584 
Q 2172 3584 2448 3432 
Q 2725 3281 2906 2969 
z
M 947 1747 
Q 947 1113 1208 752 
Q 1469 391 1925 391 
Q 2381 391 2643 752 
Q 2906 1113 2906 1747 
Q 2906 2381 2643 2742 
Q 2381 3103 1925 3103 
Q 1469 3103 1208 2742 
Q 947 2381 947 1747 
z
" id="DejaVuSans-64" transform="scale(0.015625)"/>
       <path d="M 2834 3397 
L 2834 2853 
Q 2591 2978 2328 3040 
Q 2066 3103 1784 3103 
Q 1356 3103 1142 2972 
Q 928 2841 928 2578 
Q 928 2378 1081 2264 
Q 1234 2150 1697 2047 
L 1894 2003 
Q 2506 1872 2764 1633 
Q 3022 1394 3022 966 
Q 3022 478 2636 193 
Q 2250 -91 1575 -91 
Q 1294 -91 989 -36 
Q 684 19 347 128 
L 347 722 
Q 666 556 975 473 
Q 1284 391 1588 391 
Q 1994 391 2212 530 
Q 2431 669 2431 922 
Q 2431 1156 2273 1281 
Q 2116 1406 1581 1522 
L 1381 1569 
Q 847 1681 609 1914 
Q 372 2147 372 2553 
Q 372 3047 722 3315 
Q 1072 3584 1716 3584 
Q 2034 3584 2315 3537 
Q 2597 3491 2834 3397 
z
" id="DejaVuSans-73" transform="scale(0.015625)"/>
      </defs>
      <use xlink:href="#DejaVuSans-47"/>
      <use x="77.490234" xlink:href="#DejaVuSans-6c"/>
      <use x="105.273438" xlink:href="#DejaVuSans-6f"/>
      <use x="166.455078" xlink:href="#DejaVuSans-62"/>
      <use x="229.931641" xlink:href="#DejaVuSans-61"/>
      <use x="291.210938" xlink:href="#DejaVuSans-6c"/>
      <use x="318.994141" xlink:href="#DejaVuSans-20"/>
      <use x="350.78125" xlink:href="#DejaVuSans-43"/>
      <use x="420.605469" xlink:href="#DejaVuSans-6f"/>
      <use x="481.787109" xlink:href="#DejaVuSans-6d"/>
      <use x="579.199219" xlink:href="#DejaVuSans-6d"/>
      <use x="676.611328" xlink:href="#DejaVuSans-75"/>
      <use x="739.990234" xlink:href="#DejaVuSans-6e"/>
      <use x="803.369141" xlink:href="#DejaVuSans-69"/>
      <use x="831.152344" xlink:href="#DejaVuSans-63"/>
      <use x="886.132812" xlink:href="#DejaVuSans-61"/>
      <use x="947.412109" xlink:href="#DejaVuSans-74"/>
      <use x="986.621094" xlink:href="#DejaVuSans-69"/>
      <use x="1014.404297" xlink:href="#DejaVuSans-6f"/>
      <use x="1075.585938" xlink:href="#DejaVuSans-6e"/>
      <use x="1138.964844" xlink:href="#DejaVuSans-20"/>
      <use x="1170.751953" xlink:href="#DejaVuSans-52"/>
      <use x="1235.734375" xlink:href="#DejaVuSans-6f"/>
      <use x="1296.916016" xlink:href="#DejaVuSans-75"/>
      <use x="1360.294922" xlink:href="#DejaVuSans-6e"/>
      <use x="1423.673828" xlink:href="#DejaVuSans-64"/>
      <use x="1487.150391" xlink:href="#DejaVuSans-73"/>
     </g>
    </g>
   </g>
   <g id="matplotlib.axis_2">
    <g id="ytick_1">
     <g id="line2d_7">
      <defs>
       <path d="M 0 0 
L -3.5 0 
" id="m3d57e7a1ac" style="stroke:#000000;stroke-width:0.8;"/>
      </defs>
      <g>
       <use style="stroke:#000000;stroke-width:0.8;" x="50.87" xlink:href="#m3d57e7a1ac" y="294.9394"/>
      </g>
     </g>
     <g id="text_8">
      <!-- 93 -->
      <g transform="translate(31.145 298.738618)scale(0.1 -0.1)">
       <defs>
        <path d="M 703 97 
L 703 672 
Q 941 559 1184 500 
Q 1428 441 1663 441 
Q 2288 441 2617 861 
Q 2947 1281 2994 2138 
Q 2813 1869 2534 1725 
Q 2256 1581 1919 1581 
Q 1219 1581 811 2004 
Q 403 2428 403 3163 
Q 403 3881 828 4315 
Q 1253 4750 1959 4750 
Q 2769 4750 3195 4129 
Q 3622 3509 3622 2328 
Q 3622 1225 3098 567 
Q 2575 -91 1691 -91 
Q 1453 -91 1209 -44 
Q 966 3 703 97 
z
M 1959 2075 
Q 2384 2075 2632 2365 
Q 2881 2656 2881 3163 
Q 2881 3666 2632 3958 
Q 2384 4250 1959 4250 
Q 1534 4250 1286 3958 
Q 1038 3666 1038 3163 
Q 1038 2656 1286 2365 
Q 1534 2075 1959 2075 
z
" id="DejaVuSans-39" transform="scale(0.015625)"/>
       </defs>
       <use xlink:href="#DejaVuSans-39"/>
       <use x="63.623047" xlink:href="#DejaVuSans-33"/>
      </g>
     </g>
    </g>
    <g id="ytick_2">
     <g id="line2d_8">
      <g>
       <use style="stroke:#000000;stroke-width:0.8;" x="50.87" xlink:href="#m3d57e7a1ac" y="260.29"/>
      </g>
     </g>
     <g id="text_9">
      <!-- 94 -->
      <g transform="translate(31.145 264.089219)scale(0.1 -0.1)">
       <use xlink:href="#DejaVuSans-39"/>
       <use x="63.623047" xlink:href="#DejaVuSans-34"/>
      </g>
     </g>
    </g>
    <g id="ytick_3">
     <g id="line2d_9">
      <g>
       <use style="stroke:#000000;stroke-width:0.8;" x="50.87" xlink:href="#m3d57e7a1ac" y="225.640601"/>
      </g>
     </g>
     <g id="text_10">
      <!-- 95 -->
      <g transform="translate(31.145 229.43982)scale(0.1 -0.1)">
       <use xlink:href="#DejaVuSans-39"/>
       <use x="63.623047" xlink:href="#DejaVuSans-35"/>
      </g>
     </g>
    </g>
    <g id="ytick_4">
     <g id="line2d_10">
      <g>
       <use style="stroke:#000000;stroke-width:0.8;" x="50.87" xlink:href="#m3d57e7a1ac" y="190.991202"/>
      </g>
     </g>
     <g id="text_11">
      <!-- 96 -->
      <g transform="translate(31.145 194.790421)scale(0.1 -0.1)">
       <defs>
        <path d="M 2113 2584 
Q 1688 2584 1439 2293 
Q 1191 2003 1191 1497 
Q 1191 994 1439 701 
Q 1688 409 2113 409 
Q 2538 409 2786 701 
Q 3034 994 3034 1497 
Q 3034 2003 2786 2293 
Q 2538 2584 2113 2584 
z
M 3366 4563 
L 3366 3988 
Q 3128 4100 2886 4159 
Q 2644 4219 2406 4219 
Q 1781 4219 1451 3797 
Q 1122 3375 1075 2522 
Q 1259 2794 1537 2939 
Q 1816 3084 2150 3084 
Q 2853 3084 3261 2657 
Q 3669 2231 3669 1497 
Q 3669 778 3244 343 
Q 2819 -91 2113 -91 
Q 1303 -91 875 529 
Q 447 1150 447 2328 
Q 447 3434 972 4092 
Q 1497 4750 2381 4750 
Q 2619 4750 2861 4703 
Q 3103 4656 3366 4563 
z
" id="DejaVuSans-36" transform="scale(0.015625)"/>
       </defs>
       <use xlink:href="#DejaVuSans-39"/>
       <use x="63.623047" xlink:href="#DejaVuSans-36"/>
      </g>
     </g>
    </g>
    <g id="ytick_5">
     <g id="line2d_11">
      <g>
       <use style="stroke:#000000;stroke-width:0.8;" x="50.87" xlink:href="#m3d57e7a1ac" y="156.341802"/>
      </g>
     </g>
     <g id="text_12">
      <!-- 97 -->
      <g transform="translate(31.145 160.141021)scale(0.1 -0.1)">
       <defs>
        <path d="M 525 4666 
L 3525 4666 
L 3525 4397 
L 1831 0 
L 1172 0 
L 2766 4134 
L 525 4134 
L 525 4666 
z
" id="DejaVuSans-37" transform="scale(0.015625)"/>
       </defs>
       <use xlink:href="#DejaVuSans-39"/>
       <use x="63.623047" xlink:href="#DejaVuSans-37"/>
      </g>
     </g>
    </g>
    <g id="ytick_6">
     <g id="line2d_12">
      <g>
       <use style="stroke:#000000;stroke-width:0.8;" x="50.87" xlink:href="#m3d57e7a1ac" y="121.692403"/>
      </g>
     </g>
     <g id="text_13">
      <!-- 98 -->
      <g transform="translate(31.145 125.491622)scale(0.1 -0.1)">
       <defs>
        <path d="M 2034 2216 
Q 1584 2216 1326 1975 
Q 1069 1734 1069 1313 
Q 1069 891 1326 650 
Q 1584 409 2034 409 
Q 2484 409 2743 651 
Q 3003 894 3003 1313 
Q 3003 1734 2745 1975 
Q 2488 2216 2034 2216 
z
M 1403 2484 
Q 997 2584 770 2862 
Q 544 3141 544 3541 
Q 544 4100 942 4425 
Q 1341 4750 2034 4750 
Q 2731 4750 3128 4425 
Q 3525 4100 3525 3541 
Q 3525 3141 3298 2862 
Q 3072 2584 2669 2484 
Q 3125 2378 3379 2068 
Q 3634 1759 3634 1313 
Q 3634 634 3220 271 
Q 2806 -91 2034 -91 
Q 1263 -91 848 271 
Q 434 634 434 1313 
Q 434 1759 690 2068 
Q 947 2378 1403 2484 
z
M 1172 3481 
Q 1172 3119 1398 2916 
Q 1625 2713 2034 2713 
Q 2441 2713 2670 2916 
Q 2900 3119 2900 3481 
Q 2900 3844 2670 4047 
Q 2441 4250 2034 4250 
Q 1625 4250 1398 4047 
Q 1172 3844 1172 3481 
z
" id="DejaVuSans-38" transform="scale(0.015625)"/>
       </defs>
       <use xlink:href="#DejaVuSans-39"/>
       <use x="63.623047" xlink:href="#DejaVuSans-38"/>
      </g>
     </g>
    </g>
    <g id="ytick_7">
     <g id="line2d_13">
      <g>
       <use style="stroke:#000000;stroke-width:0.8;" x="50.87" xlink:href="#m3d57e7a1ac" y="87.043004"/>
      </g>
     </g>
     <g id="text_14">
      <!-- 99 -->
      <g transform="translate(31.145 90.842223)scale(0.1 -0.1)">
       <use xlink:href="#DejaVuSans-39"/>
       <use x="63.623047" xlink:href="#DejaVuSans-39"/>
      </g>
     </g>
    </g>
    <g id="ytick_8">
     <g id="line2d_14">
      <g>
       <use style="stroke:#000000;stroke-width:0.8;" x="50.87" xlink:href="#m3d57e7a1ac" y="52.393605"/>
      </g>
     </g>
     <g id="text_15">
      <!-- 100 -->
      <g transform="translate(24.7825 56.192823)scale(0.1 -0.1)">
       <use xlink:href="#DejaVuSans-31"/>
       <use x="63.623047" xlink:href="#DejaVuSans-30"/>
       <use x="127.246094" xlink:href="#DejaVuSans-30"/>
      </g>
     </g>
    </g>
    <g id="text_16">
     <!-- Test Accuracy -->
     <g transform="translate(18.702813 210.2725)rotate(-90)scale(0.1 -0.1)">
      <defs>
       <path d="M -19 4666 
L 3928 4666 
L 3928 4134 
L 2272 4134 
L 2272 0 
L 1638 0 
L 1638 4134 
L -19 4134 
L -19 4666 
z
" id="DejaVuSans-54" transform="scale(0.015625)"/>
       <path d="M 3597 1894 
L 3597 1613 
L 953 1613 
Q 991 1019 1311 708 
Q 1631 397 2203 397 
Q 2534 397 2845 478 
Q 3156 559 3463 722 
L 3463 178 
Q 3153 47 2828 -22 
Q 2503 -91 2169 -91 
Q 1331 -91 842 396 
Q 353 884 353 1716 
Q 353 2575 817 3079 
Q 1281 3584 2069 3584 
Q 2775 3584 3186 3129 
Q 3597 2675 3597 1894 
z
M 3022 2063 
Q 3016 2534 2758 2815 
Q 2500 3097 2075 3097 
Q 1594 3097 1305 2825 
Q 1016 2553 972 2059 
L 3022 2063 
z
" id="DejaVuSans-65" transform="scale(0.015625)"/>
       <path d="M 2188 4044 
L 1331 1722 
L 3047 1722 
L 2188 4044 
z
M 1831 4666 
L 2547 4666 
L 4325 0 
L 3669 0 
L 3244 1197 
L 1141 1197 
L 716 0 
L 50 0 
L 1831 4666 
z
" id="DejaVuSans-41" transform="scale(0.015625)"/>
       <path d="M 2631 2963 
Q 2534 3019 2420 3045 
Q 2306 3072 2169 3072 
Q 1681 3072 1420 2755 
Q 1159 2438 1159 1844 
L 1159 0 
L 581 0 
L 581 3500 
L 1159 3500 
L 1159 2956 
Q 1341 3275 1631 3429 
Q 1922 3584 2338 3584 
Q 2397 3584 2469 3576 
Q 2541 3569 2628 3553 
L 2631 2963 
z
" id="DejaVuSans-72" transform="scale(0.015625)"/>
       <path d="M 2059 -325 
Q 1816 -950 1584 -1140 
Q 1353 -1331 966 -1331 
L 506 -1331 
L 506 -850 
L 844 -850 
Q 1081 -850 1212 -737 
Q 1344 -625 1503 -206 
L 1606 56 
L 191 3500 
L 800 3500 
L 1894 763 
L 2988 3500 
L 3597 3500 
L 2059 -325 
z
" id="DejaVuSans-79" transform="scale(0.015625)"/>
      </defs>
      <use xlink:href="#DejaVuSans-54"/>
      <use x="44.083984" xlink:href="#DejaVuSans-65"/>
      <use x="105.607422" xlink:href="#DejaVuSans-73"/>
      <use x="157.707031" xlink:href="#DejaVuSans-74"/>
      <use x="196.916016" xlink:href="#DejaVuSans-20"/>
      <use x="228.703125" xlink:href="#DejaVuSans-41"/>
      <use x="295.361328" xlink:href="#DejaVuSans-63"/>
      <use x="350.341797" xlink:href="#DejaVuSans-63"/>
      <use x="405.322266" xlink:href="#DejaVuSans-75"/>
      <use x="468.701172" xlink:href="#DejaVuSans-72"/>
      <use x="509.814453" xlink:href="#DejaVuSans-61"/>
      <use x="571.09375" xlink:href="#DejaVuSans-63"/>
      <use x="626.074219" xlink:href="#DejaVuSans-79"/>
     </g>
    </g>
   </g>
   <g id="line2d_15">
    <path clip-path="url(#p000b8a5851)" d="M 69.012273 244.500401 
L 76.417282 162.920802 
L 83.822291 144.499603 
L 91.227301 129.587203 
L 98.63231 119.938003 
L 106.037319 109.411603 
L 113.442328 105.902804 
L 120.847338 101.516804 
L 128.252347 92.744804 
L 135.657356 90.990404 
L 143.062365 85.727204 
L 150.467375 83.972804 
L 157.872384 81.341204 
L 165.277393 79.586804 
L 172.682403 78.709604 
L 180.087412 79.586804 
L 187.492421 76.078004 
L 194.89743 76.955204 
L 202.30244 78.709604 
L 209.707449 76.078004 
L 217.112458 77.832404 
L 224.517468 80.464004 
L 231.922477 78.709604 
L 239.327486 76.955204 
L 246.732495 76.955204 
L 254.137505 76.078004 
L 261.542514 75.200804 
L 268.947523 76.078004 
L 276.352532 77.832404 
L 283.757542 75.200804 
L 291.162551 76.078004 
L 298.56756 73.446404 
L 305.97257 76.078004 
L 313.377579 75.200804 
L 320.782588 75.200804 
L 328.187597 70.814804 
L 335.592607 75.200804 
L 342.997616 69.060404 
L 350.402625 74.323604 
L 357.807635 74.323604 
L 365.212644 71.692004 
L 372.617653 70.814804 
L 380.022662 68.183204 
L 387.427672 66.428804 
L 394.832681 68.183204 
L 402.23769 66.428804 
L 409.642699 66.428804 
L 417.047709 66.428804 
L 424.452718 69.060404 
L 431.857727 68.183204 
" style="fill:none;stroke:#1f77b4;stroke-linecap:square;stroke-width:1.5;"/>
   </g>
   <g id="line2d_16">
    <path clip-path="url(#p000b8a5851)" d="M 69.012273 269.062 
L 76.417282 166.429602 
L 83.822291 153.271603 
L 91.227301 139.236403 
L 98.63231 123.446803 
L 106.037319 123.446803 
L 113.442328 112.920403 
L 120.847338 108.534403 
L 128.252347 106.780004 
L 135.657356 105.025604 
L 143.062365 95.376404 
L 150.467375 94.499204 
L 157.872384 91.867604 
L 165.277393 90.990404 
L 172.682403 86.604404 
L 180.087412 88.358804 
L 187.492421 85.727204 
L 194.89743 85.727204 
L 202.30244 83.095604 
L 209.707449 81.341204 
L 217.112458 80.464004 
L 224.517468 81.341204 
L 231.922477 80.464004 
L 239.327486 79.586804 
L 246.732495 78.709604 
L 254.137505 79.586804 
L 261.542514 82.218404 
L 268.947523 77.832404 
L 276.352532 80.464004 
L 283.757542 78.709604 
L 291.162551 83.095604 
L 298.56756 81.341204 
L 305.97257 80.464004 
L 313.377579 76.078004 
L 320.782588 77.832404 
L 328.187597 78.709604 
L 335.592607 77.832404 
L 342.997616 76.078004 
L 350.402625 76.955204 
L 357.807635 79.586804 
L 365.212644 76.955204 
L 372.617653 76.955204 
L 380.022662 78.709604 
L 387.427672 76.955204 
L 394.832681 77.832404 
L 402.23769 83.095604 
L 409.642699 79.586804 
L 417.047709 80.464004 
L 424.452718 81.341204 
L 431.857727 80.464004 
" style="fill:none;stroke:#ff7f0e;stroke-linecap:square;stroke-width:1.5;"/>
   </g>
   <g id="line2d_17">
    <path clip-path="url(#p000b8a5851)" d="M 69.012273 249.763601 
L 76.417282 172.570002 
L 83.822291 152.394403 
L 91.227301 133.973203 
L 98.63231 127.832803 
L 106.037319 112.920403 
L 113.442328 107.657203 
L 120.847338 99.762404 
L 128.252347 103.271204 
L 135.657356 98.885204 
L 143.062365 95.376404 
L 150.467375 84.850004 
L 157.872384 83.972804 
L 165.277393 83.095604 
L 172.682403 80.464004 
L 180.087412 77.832404 
L 187.492421 81.341204 
L 194.89743 78.709604 
L 202.30244 81.341204 
L 209.707449 81.341204 
L 217.112458 76.955204 
L 224.517468 77.832404 
L 231.922477 78.709604 
L 239.327486 75.200804 
L 246.732495 76.955204 
L 254.137505 76.078004 
L 261.542514 75.200804 
L 268.947523 76.078004 
L 276.352532 76.078004 
L 283.757542 75.200804 
L 291.162551 74.323604 
L 298.56756 75.200804 
L 305.97257 75.200804 
L 313.377579 70.814804 
L 320.782588 74.323604 
L 328.187597 72.569204 
L 335.592607 73.446404 
L 342.997616 74.323604 
L 350.402625 74.323604 
L 357.807635 71.692004 
L 365.212644 72.569204 
L 372.617653 69.060404 
L 380.022662 71.692004 
L 387.427672 69.060404 
L 394.832681 69.060404 
L 402.23769 71.692004 
L 409.642699 71.692004 
L 417.047709 68.183204 
L 424.452718 70.814804 
L 431.857727 69.937604 
" style="fill:none;stroke:#2ca02c;stroke-linecap:square;stroke-width:1.5;"/>
   </g>
   <g id="line2d_18">
    <path clip-path="url(#p000b8a5851)" d="M 69.012273 236.243317 
L 76.417282 181.635864 
L 83.822291 162.093603 
L 91.227301 149.273325 
L 98.63231 140.33378 
L 106.037319 132.918809 
L 113.442328 128.414387 
L 120.847338 123.494172 
L 128.252347 120.514324 
L 135.657356 117.880969 
L 143.062365 116.356396 
L 150.467375 114.831822 
L 157.872384 113.723041 
L 165.277393 112.129169 
L 172.682403 111.228285 
L 180.087412 110.3274 
L 187.492421 108.525631 
L 194.89743 107.208954 
L 202.30244 106.030875 
L 209.707449 105.961576 
L 217.112458 106.238771 
L 224.517468 105.060692 
L 231.922477 104.298405 
L 239.327486 104.852795 
L 246.732495 105.060692 
L 254.137505 105.407186 
L 261.542514 104.714198 
L 268.947523 103.951911 
L 276.352532 103.189624 
L 283.757542 102.773831 
L 291.162551 102.28874 
L 298.56756 102.912429 
L 305.97257 101.803648 
L 313.377579 101.66505 
L 320.782588 101.942246 
L 328.187597 101.942246 
L 335.592607 102.011544 
L 342.997616 102.011544 
L 350.402625 101.387855 
L 357.807635 101.249258 
L 365.212644 101.11066 
L 372.617653 101.249258 
L 380.022662 101.595752 
L 387.427672 102.080843 
L 394.832681 101.179959 
L 402.23769 100.417672 
L 409.642699 100.279074 
L 417.047709 100.001879 
L 424.452718 99.793983 
L 431.857727 100.071178 
" style="fill:none;stroke:#d62728;stroke-linecap:square;stroke-width:1.5;"/>
   </g>
   <g id="patch_3">
    <path d="M 50.87 303.64 
L 50.87 48.38 
" style="fill:none;stroke:#000000;stroke-linecap:square;stroke-linejoin:miter;stroke-width:0.8;"/>
   </g>
   <g id="patch_4">
    <path d="M 450 303.64 
L 450 48.38 
" style="fill:none;stroke:#000000;stroke-linecap:square;stroke-linejoin:miter;stroke-width:0.8;"/>
   </g>
   <g id="patch_5">
    <path d="M 50.87 303.64 
L 450 303.64 
" style="fill:none;stroke:#000000;stroke-linecap:square;stroke-linejoin:miter;stroke-width:0.8;"/>
   </g>
   <g id="patch_6">
    <path d="M 50.87 48.38 
L 450 48.38 
" style="fill:none;stroke:#000000;stroke-linecap:square;stroke-linejoin:miter;stroke-width:0.8;"/>
   </g>
   <g id="text_17">
    <!-- Local Rounds 05 -->
    <g transform="translate(201.324062 20.88)scale(0.12 -0.12)">
     <defs>
      <path d="M 628 4666 
L 1259 4666 
L 1259 531 
L 3531 531 
L 3531 0 
L 628 0 
L 628 4666 
z
" id="DejaVuSans-4c" transform="scale(0.015625)"/>
     </defs>
     <use xlink:href="#DejaVuSans-4c"/>
     <use x="53.962891" xlink:href="#DejaVuSans-6f"/>
     <use x="115.144531" xlink:href="#DejaVuSans-63"/>
     <use x="170.125" xlink:href="#DejaVuSans-61"/>
     <use x="231.404297" xlink:href="#DejaVuSans-6c"/>
     <use x="259.1875" xlink:href="#DejaVuSans-20"/>
     <use x="290.974609" xlink:href="#DejaVuSans-52"/>
     <use x="355.957031" xlink:href="#DejaVuSans-6f"/>
     <use x="417.138672" xlink:href="#DejaVuSans-75"/>
     <use x="480.517578" xlink:href="#DejaVuSans-6e"/>
     <use x="543.896484" xlink:href="#DejaVuSans-64"/>
     <use x="607.373047" xlink:href="#DejaVuSans-73"/>
     <use x="659.472656" xlink:href="#DejaVuSans-20"/>
     <use x="691.259766" xlink:href="#DejaVuSans-30"/>
     <use x="754.882812" xlink:href="#DejaVuSans-35"/>
    </g>
   </g>
   <g id="legend_1">
    <g id="patch_7">
     <path d="M 84.036563 45.532125 
L 416.833438 45.532125 
Q 418.833438 45.532125 418.833438 43.532125 
L 418.833438 29.854 
Q 418.833438 27.854 416.833438 27.854 
L 84.036563 27.854 
Q 82.036563 27.854 82.036563 29.854 
L 82.036563 43.532125 
Q 82.036563 45.532125 84.036563 45.532125 
z
" style="fill:#ffffff;opacity:0.8;stroke:#cccccc;stroke-linejoin:miter;"/>
    </g>
    <g id="line2d_19">
     <path d="M 86.036563 35.952438 
L 106.036563 35.952438 
" style="fill:none;stroke:#1f77b4;stroke-linecap:square;stroke-width:1.5;"/>
    </g>
    <g id="line2d_20"/>
    <g id="text_18">
     <!-- FedAvg -->
     <g transform="translate(114.036563 39.452438)scale(0.1 -0.1)">
      <defs>
       <path d="M 628 4666 
L 3309 4666 
L 3309 4134 
L 1259 4134 
L 1259 2759 
L 3109 2759 
L 3109 2228 
L 1259 2228 
L 1259 0 
L 628 0 
L 628 4666 
z
" id="DejaVuSans-46" transform="scale(0.015625)"/>
       <path d="M 191 3500 
L 800 3500 
L 1894 563 
L 2988 3500 
L 3597 3500 
L 2284 0 
L 1503 0 
L 191 3500 
z
" id="DejaVuSans-76" transform="scale(0.015625)"/>
       <path d="M 2906 1791 
Q 2906 2416 2648 2759 
Q 2391 3103 1925 3103 
Q 1463 3103 1205 2759 
Q 947 2416 947 1791 
Q 947 1169 1205 825 
Q 1463 481 1925 481 
Q 2391 481 2648 825 
Q 2906 1169 2906 1791 
z
M 3481 434 
Q 3481 -459 3084 -895 
Q 2688 -1331 1869 -1331 
Q 1566 -1331 1297 -1286 
Q 1028 -1241 775 -1147 
L 775 -588 
Q 1028 -725 1275 -790 
Q 1522 -856 1778 -856 
Q 2344 -856 2625 -561 
Q 2906 -266 2906 331 
L 2906 616 
Q 2728 306 2450 153 
Q 2172 0 1784 0 
Q 1141 0 747 490 
Q 353 981 353 1791 
Q 353 2603 747 3093 
Q 1141 3584 1784 3584 
Q 2172 3584 2450 3431 
Q 2728 3278 2906 2969 
L 2906 3500 
L 3481 3500 
L 3481 434 
z
" id="DejaVuSans-67" transform="scale(0.015625)"/>
      </defs>
      <use xlink:href="#DejaVuSans-46"/>
      <use x="52.019531" xlink:href="#DejaVuSans-65"/>
      <use x="113.542969" xlink:href="#DejaVuSans-64"/>
      <use x="177.019531" xlink:href="#DejaVuSans-41"/>
      <use x="239.552734" xlink:href="#DejaVuSans-76"/>
      <use x="298.732422" xlink:href="#DejaVuSans-67"/>
     </g>
    </g>
    <g id="line2d_21">
     <path d="M 170.26 35.952438 
L 190.26 35.952438 
" style="fill:none;stroke:#ff7f0e;stroke-linecap:square;stroke-width:1.5;"/>
    </g>
    <g id="line2d_22"/>
    <g id="text_19">
     <!-- FedMed -->
     <g transform="translate(198.26 39.452438)scale(0.1 -0.1)">
      <defs>
       <path d="M 628 4666 
L 1569 4666 
L 2759 1491 
L 3956 4666 
L 4897 4666 
L 4897 0 
L 4281 0 
L 4281 4097 
L 3078 897 
L 2444 897 
L 1241 4097 
L 1241 0 
L 628 0 
L 628 4666 
z
" id="DejaVuSans-4d" transform="scale(0.015625)"/>
      </defs>
      <use xlink:href="#DejaVuSans-46"/>
      <use x="52.019531" xlink:href="#DejaVuSans-65"/>
      <use x="113.542969" xlink:href="#DejaVuSans-64"/>
      <use x="177.019531" xlink:href="#DejaVuSans-4d"/>
      <use x="263.298828" xlink:href="#DejaVuSans-65"/>
      <use x="324.822266" xlink:href="#DejaVuSans-64"/>
     </g>
    </g>
    <g id="line2d_23">
     <path d="M 257.092813 35.952438 
L 277.092813 35.952438 
" style="fill:none;stroke:#2ca02c;stroke-linecap:square;stroke-width:1.5;"/>
    </g>
    <g id="line2d_24"/>
    <g id="text_20">
     <!-- FedProx -->
     <g transform="translate(285.092813 39.452438)scale(0.1 -0.1)">
      <defs>
       <path d="M 1259 4147 
L 1259 2394 
L 2053 2394 
Q 2494 2394 2734 2622 
Q 2975 2850 2975 3272 
Q 2975 3691 2734 3919 
Q 2494 4147 2053 4147 
L 1259 4147 
z
M 628 4666 
L 2053 4666 
Q 2838 4666 3239 4311 
Q 3641 3956 3641 3272 
Q 3641 2581 3239 2228 
Q 2838 1875 2053 1875 
L 1259 1875 
L 1259 0 
L 628 0 
L 628 4666 
z
" id="DejaVuSans-50" transform="scale(0.015625)"/>
       <path d="M 3513 3500 
L 2247 1797 
L 3578 0 
L 2900 0 
L 1881 1375 
L 863 0 
L 184 0 
L 1544 1831 
L 300 3500 
L 978 3500 
L 1906 2253 
L 2834 3500 
L 3513 3500 
z
" id="DejaVuSans-78" transform="scale(0.015625)"/>
      </defs>
      <use xlink:href="#DejaVuSans-46"/>
      <use x="52.019531" xlink:href="#DejaVuSans-65"/>
      <use x="113.542969" xlink:href="#DejaVuSans-64"/>
      <use x="177.019531" xlink:href="#DejaVuSans-50"/>
      <use x="235.572266" xlink:href="#DejaVuSans-72"/>
      <use x="274.435547" xlink:href="#DejaVuSans-6f"/>
      <use x="332.492188" xlink:href="#DejaVuSans-78"/>
     </g>
    </g>
    <g id="line2d_25">
     <path d="M 344.261563 35.952438 
L 364.261563 35.952438 
" style="fill:none;stroke:#d62728;stroke-linecap:square;stroke-width:1.5;"/>
    </g>
    <g id="line2d_26"/>
    <g id="text_21">
     <!-- qFedAvg -->
     <g transform="translate(372.261563 39.452438)scale(0.1 -0.1)">
      <defs>
       <path d="M 947 1747 
Q 947 1113 1208 752 
Q 1469 391 1925 391 
Q 2381 391 2643 752 
Q 2906 1113 2906 1747 
Q 2906 2381 2643 2742 
Q 2381 3103 1925 3103 
Q 1469 3103 1208 2742 
Q 947 2381 947 1747 
z
M 2906 525 
Q 2725 213 2448 61 
Q 2172 -91 1784 -91 
Q 1150 -91 751 415 
Q 353 922 353 1747 
Q 353 2572 751 3078 
Q 1150 3584 1784 3584 
Q 2172 3584 2448 3432 
Q 2725 3281 2906 2969 
L 2906 3500 
L 3481 3500 
L 3481 -1331 
L 2906 -1331 
L 2906 525 
z
" id="DejaVuSans-71" transform="scale(0.015625)"/>
      </defs>
      <use xlink:href="#DejaVuSans-71"/>
      <use x="63.476562" xlink:href="#DejaVuSans-46"/>
      <use x="115.496094" xlink:href="#DejaVuSans-65"/>
      <use x="177.019531" xlink:href="#DejaVuSans-64"/>
      <use x="240.496094" xlink:href="#DejaVuSans-41"/>
      <use x="303.029297" xlink:href="#DejaVuSans-76"/>
      <use x="362.208984" xlink:href="#DejaVuSans-67"/>
     </g>
    </g>
   </g>
  </g>
 </g>
 <defs>
  <clipPath id="p000b8a5851">
   <rect height="255.26" width="399.13" x="50.87" y="48.38"/>
  </clipPath>
 </defs>
</svg>
