<?xml version="1.0" encoding="utf-8" standalone="no"?>
<!DOCTYPE svg PUBLIC "-//W3C//DTD SVG 1.1//EN"
  "http://www.w3.org/Graphics/SVG/1.1/DTD/svg11.dtd">
<svg height="345.6pt" version="1.1" viewBox="0 0 460.8 345.6" width="460.8pt" xmlns="http://www.w3.org/2000/svg" xmlns:xlink="http://www.w3.org/1999/xlink">
 <metadata>
  <rdf:RDF xmlns:cc="http://creativecommons.org/ns#" xmlns:dc="http://purl.org/dc/elements/1.1/" xmlns:rdf="http://www.w3.org/1999/02/22-rdf-syntax-ns#">
   <cc:Work>
    <dc:type rdf:resource="http://purl.org/dc/dcmitype/StillImage"/>
    <dc:date>2021-05-07T12:06:38.491632</dc:date>
    <dc:format>image/svg+xml</dc:format>
    <dc:creator>
     <cc:Agent>
      <dc:title>Matplotlib v3.4.1, https://matplotlib.org/</dc:title>
     </cc:Agent>
    </dc:creator>
   </cc:Work>
  </rdf:RDF>
 </metadata>
 <defs>
  <style type="text/css">*{stroke-linecap:butt;stroke-linejoin:round;}</style>
 </defs>
 <g id="figure_1">
  <g id="patch_1">
   <path d="M 0 345.6 
L 460.8 345.6 
L 460.8 0 
L 0 0 
z
" style="fill:#ffffff;"/>
  </g>
  <g id="axes_1">
   <g id="patch_2">
    <path d="M 44.57 303.64 
L 450 303.64 
L 450 32.876829 
L 44.57 32.876829 
z
" style="fill:#ffffff;"/>
   </g>
   <g id="PolyCollection_1">
    <path clip-path="url(#p03ad075fc4)" d="M 62.998636 97.913198 
L 62.998636 213.442604 
L 70.520529 97.012378 
L 78.042421 91.341345 
L 85.564314 86.728895 
L 93.086206 83.488476 
L 100.608098 79.330732 
L 108.129991 78.145729 
L 115.651883 76.723762 
L 123.173776 72.707679 
L 130.695668 68.344335 
L 138.21756 69.420808 
L 145.739453 70.895363 
L 153.261345 68.616218 
L 160.783237 65.813053 
L 168.30513 68.024733 
L 175.827022 65.925059 
L 183.348915 69.037085 
L 190.870807 65.192826 
L 198.392699 62.988438 
L 205.914592 62.422093 
L 213.436484 63.314646 
L 220.958377 62.259441 
L 228.480269 61.790531 
L 236.002161 61.21924 
L 243.524054 61.523619 
L 251.045946 59.051379 
L 258.567839 59.648334 
L 266.089731 60.739516 
L 273.611623 59.31606 
L 281.133516 59.984201 
L 288.655408 56.938804 
L 296.177301 59.204564 
L 303.699193 58.734165 
L 311.221085 57.082938 
L 318.742978 58.782465 
L 326.26487 57.354821 
L 333.786763 56.109608 
L 341.308655 57.301222 
L 348.830547 54.102956 
L 356.35244 54.437779 
L 363.874332 54.068118 
L 371.396224 55.022077 
L 378.918117 54.717452 
L 386.440009 51.384128 
L 393.961902 54.617868 
L 401.483794 52.385008 
L 409.005686 50.731132 
L 416.527579 52.933116 
L 424.049471 53.178078 
L 431.571364 51.132764 
L 431.571364 48.154437 
L 431.571364 48.154437 
L 424.049471 49.915484 
L 416.527579 50.160445 
L 409.005686 47.468538 
L 401.483794 45.814663 
L 393.961902 49.019458 
L 386.440009 45.184246 
L 378.918117 48.376109 
L 371.396224 51.334079 
L 363.874332 49.025443 
L 356.35244 50.830845 
L 348.830547 47.903074 
L 341.308655 52.317527 
L 333.786763 52.42161 
L 326.26487 49.001334 
L 318.742978 49.748752 
L 311.221085 48.729452 
L 303.699193 49.253287 
L 296.177301 50.95795 
L 288.655408 50.504882 
L 281.133516 51.809611 
L 273.611623 53.021517 
L 266.089731 52.141827 
L 258.567839 54.32054 
L 251.045946 54.37373 
L 243.524054 56.251615 
L 236.002161 54.924697 
L 228.480269 55.984703 
L 220.958377 56.059558 
L 213.436484 55.548119 
L 205.914592 58.071968 
L 198.392699 56.418093 
L 190.870807 58.020064 
L 183.348915 59.069696 
L 175.827022 58.919128 
L 168.30513 58.450751 
L 160.783237 63.381259 
L 153.261345 64.92822 
L 145.739453 65.911668 
L 138.21756 67.386223 
L 130.695668 64.656337 
L 123.173776 69.537008 
L 115.651883 72.046113 
L 108.129991 70.080381 
L 100.608098 72.157971 
L 93.086206 79.419306 
L 85.564314 80.529012 
L 78.042421 86.791875 
L 70.520529 90.908624 
L 62.998636 97.913198 
z
" style="fill:#1f77b4;fill-opacity:0.5;"/>
   </g>
   <g id="PolyCollection_2">
    <path clip-path="url(#p03ad075fc4)" d="M 62.998636 95.215472 
L 62.998636 269.429362 
L 70.520529 104.960624 
L 78.042421 95.128409 
L 85.564314 90.61508 
L 93.086206 83.520833 
L 100.608098 82.760627 
L 108.129991 78.891623 
L 115.651883 77.427553 
L 123.173776 73.514358 
L 130.695668 70.5979 
L 138.21756 71.740502 
L 145.739453 69.894335 
L 153.261345 70.830991 
L 160.783237 68.981005 
L 168.30513 67.64171 
L 175.827022 66.08632 
L 183.348915 69.896526 
L 190.870807 69.028046 
L 198.392699 66.752749 
L 205.914592 65.208199 
L 213.436484 65.064196 
L 220.958377 63.584017 
L 228.480269 66.943162 
L 236.002161 65.669536 
L 243.524054 66.300909 
L 251.045946 65.493181 
L 258.567839 62.376132 
L 266.089731 64.797382 
L 273.611623 64.166605 
L 281.133516 65.707266 
L 288.655408 62.246104 
L 296.177301 64.301221 
L 303.699193 62.86492 
L 311.221085 62.631533 
L 318.742978 62.578654 
L 326.26487 61.129956 
L 333.786763 59.051379 
L 341.308655 60.378436 
L 348.830547 61.505505 
L 356.35244 60.499444 
L 363.874332 61.045653 
L 371.396224 59.051379 
L 378.918117 62.457744 
L 386.440009 61.582393 
L 393.961902 57.740905 
L 401.483794 56.297154 
L 409.005686 59.783642 
L 416.527579 59.615468 
L 424.049471 57.355992 
L 431.571364 59.019022 
L 431.571364 54.949852 
L 431.571364 54.949852 
L 424.049471 52.806522 
L 416.527579 53.80964 
L 409.005686 54.185232 
L 401.483794 53.86536 
L 393.961902 54.052907 
L 386.440009 52.386481 
L 378.918117 52.054895 
L 371.396224 54.37373 
L 363.874332 52.379455 
L 356.35244 52.925665 
L 348.830547 53.5509 
L 341.308655 56.309266 
L 333.786763 54.37373 
L 326.26487 54.470215 
L 318.742978 56.284111 
L 311.221085 56.774998 
L 303.699193 54.910314 
L 296.177301 55.10531 
L 288.655408 54.441599 
L 281.133516 59.136921 
L 273.611623 56.871223 
L 266.089731 53.521617 
L 258.567839 59.205461 
L 251.045946 59.894771 
L 243.524054 59.087043 
L 236.002161 60.805948 
L 228.480269 58.988556 
L 220.958377 58.541342 
L 213.436484 60.323757 
L 205.914592 58.548457 
L 198.392699 59.17897 
L 190.870807 60.710031 
L 183.348915 62.016614 
L 175.827022 63.107992 
L 168.30513 62.096367 
L 160.783237 64.563432 
L 153.261345 63.257212 
L 145.739453 65.825165 
L 138.21756 66.697826 
L 130.695668 66.752896 
L 123.173776 68.186564 
L 115.651883 70.254791 
L 108.129991 72.59708 
L 100.608098 75.797029 
L 93.086206 78.843184 
L 85.564314 85.343077 
L 78.042421 89.529999 
L 70.520529 90.029331 
L 62.998636 95.215472 
z
" style="fill:#ff7f0e;fill-opacity:0.5;"/>
   </g>
   <g id="PolyCollection_3">
    <path clip-path="url(#p03ad075fc4)" d="M 62.998636 120.959297 
L 62.998636 128.950987 
L 70.520529 100.566065 
L 78.042421 95.143925 
L 85.564314 88.168564 
L 93.086206 84.615545 
L 100.608098 79.006946 
L 108.129991 76.723762 
L 115.651883 73.297406 
L 123.173776 71.892031 
L 130.695668 71.107192 
L 138.21756 70.191373 
L 145.739453 68.919815 
L 153.261345 68.806803 
L 160.783237 67.896598 
L 168.30513 65.342566 
L 175.827022 66.228453 
L 183.348915 66.12874 
L 190.870807 64.097511 
L 198.392699 63.8559 
L 205.914592 64.509359 
L 213.436484 62.594263 
L 220.958377 62.008077 
L 228.480269 62.441416 
L 236.002161 61.361484 
L 243.524054 62.008077 
L 251.045946 60.70797 
L 258.567839 63.967581 
L 266.089731 60.985953 
L 273.611623 60.459733 
L 281.133516 58.343851 
L 288.655408 59.009825 
L 296.177301 59.526125 
L 303.699193 58.267125 
L 311.221085 58.105692 
L 318.742978 57.729847 
L 326.26487 59.019022 
L 333.786763 57.929835 
L 341.308655 58.507613 
L 348.830547 59.1595 
L 356.35244 57.833809 
L 363.874332 57.740905 
L 371.396224 59.31606 
L 378.918117 57.058829 
L 386.440009 55.625023 
L 393.961902 54.809374 
L 401.483794 57.336697 
L 409.005686 55.011018 
L 416.527579 54.93774 
L 424.049471 56.635828 
L 431.571364 57.445376 
L 431.571364 52.173373 
L 431.571364 52.173373 
L 424.049471 51.895389 
L 416.527579 52.505946 
L 409.005686 52.976434 
L 401.483794 51.738287 
L 393.961902 50.459249 
L 386.440009 53.44996 
L 378.918117 52.016154 
L 371.396224 53.021517 
L 363.874332 54.052907 
L 356.35244 53.416236 
L 348.830547 53.721843 
L 341.308655 53.829964 
L 333.786763 54.951508 
L 326.26487 54.949852 
L 318.742978 55.695262 
L 311.221085 53.688119 
L 303.699193 53.526686 
L 296.177301 55.53028 
L 288.655408 57.677877 
L 281.133516 56.168789 
L 273.611623 56.771735 
L 266.089731 56.245514 
L 258.567839 55.43895 
L 251.045946 55.435967 
L 243.524054 59.02975 
L 236.002161 58.588812 
L 228.480269 58.596412 
L 220.958377 59.02975 
L 213.436484 58.98733 
L 205.914592 58.703531 
L 198.392699 58.813225 
L 190.870807 62.377973 
L 183.348915 62.521807 
L 175.827022 64.05339 
L 168.30513 63.307981 
L 160.783237 61.84148 
L 153.261345 64.737634 
L 145.739453 66.255919 
L 138.21756 63.89683 
L 130.695668 66.243604 
L 123.173776 68.72136 
L 115.651883 68.947281 
L 108.129991 72.046113 
L 100.608098 72.481758 
L 93.086206 76.66094 
L 85.564314 80.176874 
L 78.042421 87.33942 
L 70.520529 94.967655 
L 62.998636 120.959297 
z
" style="fill:#2ca02c;fill-opacity:0.5;"/>
   </g>
   <g id="PolyCollection_4">
    <path clip-path="url(#p03ad075fc4)" d="M 62.998636 250.044785 
L 62.998636 291.332583 
L 70.520529 165.340516 
L 78.042421 139.064633 
L 85.564314 128.192099 
L 93.086206 122.795339 
L 100.608098 118.37091 
L 108.129991 115.034499 
L 115.651883 112.438523 
L 123.173776 109.190484 
L 130.695668 107.049195 
L 138.21756 105.453586 
L 145.739453 103.757626 
L 153.261345 102.337421 
L 160.783237 100.550758 
L 168.30513 98.969447 
L 175.827022 98.102506 
L 183.348915 96.702166 
L 190.870807 95.20425 
L 198.392699 94.095942 
L 205.914592 92.821162 
L 213.436484 91.802943 
L 220.958377 90.499651 
L 228.480269 89.633582 
L 236.002161 88.537825 
L 243.524054 87.954388 
L 251.045946 87.281091 
L 258.567839 86.584027 
L 266.089731 86.013704 
L 273.611623 85.474051 
L 281.133516 84.851558 
L 288.655408 84.570715 
L 296.177301 84.234578 
L 303.699193 83.876338 
L 311.221085 83.334635 
L 318.742978 83.025322 
L 326.26487 82.525604 
L 333.786763 82.151719 
L 341.308655 81.935996 
L 348.830547 81.772015 
L 356.35244 81.582482 
L 363.874332 81.126998 
L 371.396224 81.174136 
L 378.918117 80.588539 
L 386.440009 80.000195 
L 393.961902 79.573384 
L 401.483794 79.598933 
L 409.005686 79.4684 
L 416.527579 79.588325 
L 424.049471 79.026158 
L 431.571364 78.966865 
L 431.571364 77.167772 
L 431.571364 77.167772 
L 424.049471 77.237351 
L 416.527579 77.276589 
L 409.005686 77.697217 
L 401.483794 77.781471 
L 393.961902 77.764063 
L 386.440009 77.809784 
L 378.918117 77.994675 
L 371.396224 78.268228 
L 363.874332 78.358323 
L 356.35244 78.890861 
L 348.830547 79.087945 
L 341.308655 79.35354 
L 333.786763 79.868093 
L 326.26487 80.052656 
L 318.742978 80.841662 
L 311.221085 80.575306 
L 303.699193 80.935711 
L 296.177301 81.651408 
L 288.655408 82.002591 
L 281.133516 82.580898 
L 273.611623 83.461916 
L 266.089731 84.168031 
L 258.567839 84.499815 
L 251.045946 85.00556 
L 243.524054 85.320285 
L 236.002161 85.810786 
L 228.480269 86.734031 
L 220.958377 87.156686 
L 213.436484 88.130141 
L 205.914592 89.002051 
L 198.392699 90.218806 
L 190.870807 91.344287 
L 183.348915 92.681565 
L 175.827022 93.987547 
L 168.30513 95.483267 
L 160.783237 96.522363 
L 153.261345 98.129341 
L 145.739453 99.759117 
L 138.21756 100.683564 
L 130.695668 102.266809 
L 123.173776 104.249439 
L 115.651883 106.242213 
L 108.129991 108.715221 
L 100.608098 112.466795 
L 93.086206 115.774713 
L 85.564314 119.957473 
L 78.042421 129.103126 
L 70.520529 153.13046 
L 62.998636 250.044785 
z
" style="fill:#d62728;fill-opacity:0.5;"/>
   </g>
   <g id="matplotlib.axis_1">
    <g id="xtick_1">
     <g id="line2d_1">
      <defs>
       <path d="M 0 0 
L 0 3.5 
" id="mceb90d0822" style="stroke:#000000;stroke-width:0.8;"/>
      </defs>
      <g>
       <use style="stroke:#000000;stroke-width:0.8;" x="62.998636" xlink:href="#mceb90d0822" y="303.64"/>
      </g>
     </g>
     <g id="text_1">
      <!-- 0 -->
      <g transform="translate(59.817386 318.238437)scale(0.1 -0.1)">
       <defs>
        <path d="M 2034 4250 
Q 1547 4250 1301 3770 
Q 1056 3291 1056 2328 
Q 1056 1369 1301 889 
Q 1547 409 2034 409 
Q 2525 409 2770 889 
Q 3016 1369 3016 2328 
Q 3016 3291 2770 3770 
Q 2525 4250 2034 4250 
z
M 2034 4750 
Q 2819 4750 3233 4129 
Q 3647 3509 3647 2328 
Q 3647 1150 3233 529 
Q 2819 -91 2034 -91 
Q 1250 -91 836 529 
Q 422 1150 422 2328 
Q 422 3509 836 4129 
Q 1250 4750 2034 4750 
z
" id="DejaVuSans-30" transform="scale(0.015625)"/>
       </defs>
       <use xlink:href="#DejaVuSans-30"/>
      </g>
     </g>
    </g>
    <g id="xtick_2">
     <g id="line2d_2">
      <g>
       <use style="stroke:#000000;stroke-width:0.8;" x="138.21756" xlink:href="#mceb90d0822" y="303.64"/>
      </g>
     </g>
     <g id="text_2">
      <!-- 10 -->
      <g transform="translate(131.85506 318.238437)scale(0.1 -0.1)">
       <defs>
        <path d="M 794 531 
L 1825 531 
L 1825 4091 
L 703 3866 
L 703 4441 
L 1819 4666 
L 2450 4666 
L 2450 531 
L 3481 531 
L 3481 0 
L 794 0 
L 794 531 
z
" id="DejaVuSans-31" transform="scale(0.015625)"/>
       </defs>
       <use xlink:href="#DejaVuSans-31"/>
       <use x="63.623047" xlink:href="#DejaVuSans-30"/>
      </g>
     </g>
    </g>
    <g id="xtick_3">
     <g id="line2d_3">
      <g>
       <use style="stroke:#000000;stroke-width:0.8;" x="213.436484" xlink:href="#mceb90d0822" y="303.64"/>
      </g>
     </g>
     <g id="text_3">
      <!-- 20 -->
      <g transform="translate(207.073984 318.238437)scale(0.1 -0.1)">
       <defs>
        <path d="M 1228 531 
L 3431 531 
L 3431 0 
L 469 0 
L 469 531 
Q 828 903 1448 1529 
Q 2069 2156 2228 2338 
Q 2531 2678 2651 2914 
Q 2772 3150 2772 3378 
Q 2772 3750 2511 3984 
Q 2250 4219 1831 4219 
Q 1534 4219 1204 4116 
Q 875 4013 500 3803 
L 500 4441 
Q 881 4594 1212 4672 
Q 1544 4750 1819 4750 
Q 2544 4750 2975 4387 
Q 3406 4025 3406 3419 
Q 3406 3131 3298 2873 
Q 3191 2616 2906 2266 
Q 2828 2175 2409 1742 
Q 1991 1309 1228 531 
z
" id="DejaVuSans-32" transform="scale(0.015625)"/>
       </defs>
       <use xlink:href="#DejaVuSans-32"/>
       <use x="63.623047" xlink:href="#DejaVuSans-30"/>
      </g>
     </g>
    </g>
    <g id="xtick_4">
     <g id="line2d_4">
      <g>
       <use style="stroke:#000000;stroke-width:0.8;" x="288.655408" xlink:href="#mceb90d0822" y="303.64"/>
      </g>
     </g>
     <g id="text_4">
      <!-- 30 -->
      <g transform="translate(282.292908 318.238437)scale(0.1 -0.1)">
       <defs>
        <path d="M 2597 2516 
Q 3050 2419 3304 2112 
Q 3559 1806 3559 1356 
Q 3559 666 3084 287 
Q 2609 -91 1734 -91 
Q 1441 -91 1130 -33 
Q 819 25 488 141 
L 488 750 
Q 750 597 1062 519 
Q 1375 441 1716 441 
Q 2309 441 2620 675 
Q 2931 909 2931 1356 
Q 2931 1769 2642 2001 
Q 2353 2234 1838 2234 
L 1294 2234 
L 1294 2753 
L 1863 2753 
Q 2328 2753 2575 2939 
Q 2822 3125 2822 3475 
Q 2822 3834 2567 4026 
Q 2313 4219 1838 4219 
Q 1578 4219 1281 4162 
Q 984 4106 628 3988 
L 628 4550 
Q 988 4650 1302 4700 
Q 1616 4750 1894 4750 
Q 2613 4750 3031 4423 
Q 3450 4097 3450 3541 
Q 3450 3153 3228 2886 
Q 3006 2619 2597 2516 
z
" id="DejaVuSans-33" transform="scale(0.015625)"/>
       </defs>
       <use xlink:href="#DejaVuSans-33"/>
       <use x="63.623047" xlink:href="#DejaVuSans-30"/>
      </g>
     </g>
    </g>
    <g id="xtick_5">
     <g id="line2d_5">
      <g>
       <use style="stroke:#000000;stroke-width:0.8;" x="363.874332" xlink:href="#mceb90d0822" y="303.64"/>
      </g>
     </g>
     <g id="text_5">
      <!-- 40 -->
      <g transform="translate(357.511832 318.238437)scale(0.1 -0.1)">
       <defs>
        <path d="M 2419 4116 
L 825 1625 
L 2419 1625 
L 2419 4116 
z
M 2253 4666 
L 3047 4666 
L 3047 1625 
L 3713 1625 
L 3713 1100 
L 3047 1100 
L 3047 0 
L 2419 0 
L 2419 1100 
L 313 1100 
L 313 1709 
L 2253 4666 
z
" id="DejaVuSans-34" transform="scale(0.015625)"/>
       </defs>
       <use xlink:href="#DejaVuSans-34"/>
       <use x="63.623047" xlink:href="#DejaVuSans-30"/>
      </g>
     </g>
    </g>
    <g id="xtick_6">
     <g id="line2d_6">
      <g>
       <use style="stroke:#000000;stroke-width:0.8;" x="439.093256" xlink:href="#mceb90d0822" y="303.64"/>
      </g>
     </g>
     <g id="text_6">
      <!-- 50 -->
      <g transform="translate(432.730756 318.238437)scale(0.1 -0.1)">
       <defs>
        <path d="M 691 4666 
L 3169 4666 
L 3169 4134 
L 1269 4134 
L 1269 2991 
Q 1406 3038 1543 3061 
Q 1681 3084 1819 3084 
Q 2600 3084 3056 2656 
Q 3513 2228 3513 1497 
Q 3513 744 3044 326 
Q 2575 -91 1722 -91 
Q 1428 -91 1123 -41 
Q 819 9 494 109 
L 494 744 
Q 775 591 1075 516 
Q 1375 441 1709 441 
Q 2250 441 2565 725 
Q 2881 1009 2881 1497 
Q 2881 1984 2565 2268 
Q 2250 2553 1709 2553 
Q 1456 2553 1204 2497 
Q 953 2441 691 2322 
L 691 4666 
z
" id="DejaVuSans-35" transform="scale(0.015625)"/>
       </defs>
       <use xlink:href="#DejaVuSans-35"/>
       <use x="63.623047" xlink:href="#DejaVuSans-30"/>
      </g>
     </g>
    </g>
    <g id="text_7">
     <!-- Global Communication Rounds -->
     <g transform="translate(170.323281 331.916562)scale(0.1 -0.1)">
      <defs>
       <path d="M 3809 666 
L 3809 1919 
L 2778 1919 
L 2778 2438 
L 4434 2438 
L 4434 434 
Q 4069 175 3628 42 
Q 3188 -91 2688 -91 
Q 1594 -91 976 548 
Q 359 1188 359 2328 
Q 359 3472 976 4111 
Q 1594 4750 2688 4750 
Q 3144 4750 3555 4637 
Q 3966 4525 4313 4306 
L 4313 3634 
Q 3963 3931 3569 4081 
Q 3175 4231 2741 4231 
Q 1884 4231 1454 3753 
Q 1025 3275 1025 2328 
Q 1025 1384 1454 906 
Q 1884 428 2741 428 
Q 3075 428 3337 486 
Q 3600 544 3809 666 
z
" id="DejaVuSans-47" transform="scale(0.015625)"/>
       <path d="M 603 4863 
L 1178 4863 
L 1178 0 
L 603 0 
L 603 4863 
z
" id="DejaVuSans-6c" transform="scale(0.015625)"/>
       <path d="M 1959 3097 
Q 1497 3097 1228 2736 
Q 959 2375 959 1747 
Q 959 1119 1226 758 
Q 1494 397 1959 397 
Q 2419 397 2687 759 
Q 2956 1122 2956 1747 
Q 2956 2369 2687 2733 
Q 2419 3097 1959 3097 
z
M 1959 3584 
Q 2709 3584 3137 3096 
Q 3566 2609 3566 1747 
Q 3566 888 3137 398 
Q 2709 -91 1959 -91 
Q 1206 -91 779 398 
Q 353 888 353 1747 
Q 353 2609 779 3096 
Q 1206 3584 1959 3584 
z
" id="DejaVuSans-6f" transform="scale(0.015625)"/>
       <path d="M 3116 1747 
Q 3116 2381 2855 2742 
Q 2594 3103 2138 3103 
Q 1681 3103 1420 2742 
Q 1159 2381 1159 1747 
Q 1159 1113 1420 752 
Q 1681 391 2138 391 
Q 2594 391 2855 752 
Q 3116 1113 3116 1747 
z
M 1159 2969 
Q 1341 3281 1617 3432 
Q 1894 3584 2278 3584 
Q 2916 3584 3314 3078 
Q 3713 2572 3713 1747 
Q 3713 922 3314 415 
Q 2916 -91 2278 -91 
Q 1894 -91 1617 61 
Q 1341 213 1159 525 
L 1159 0 
L 581 0 
L 581 4863 
L 1159 4863 
L 1159 2969 
z
" id="DejaVuSans-62" transform="scale(0.015625)"/>
       <path d="M 2194 1759 
Q 1497 1759 1228 1600 
Q 959 1441 959 1056 
Q 959 750 1161 570 
Q 1363 391 1709 391 
Q 2188 391 2477 730 
Q 2766 1069 2766 1631 
L 2766 1759 
L 2194 1759 
z
M 3341 1997 
L 3341 0 
L 2766 0 
L 2766 531 
Q 2569 213 2275 61 
Q 1981 -91 1556 -91 
Q 1019 -91 701 211 
Q 384 513 384 1019 
Q 384 1609 779 1909 
Q 1175 2209 1959 2209 
L 2766 2209 
L 2766 2266 
Q 2766 2663 2505 2880 
Q 2244 3097 1772 3097 
Q 1472 3097 1187 3025 
Q 903 2953 641 2809 
L 641 3341 
Q 956 3463 1253 3523 
Q 1550 3584 1831 3584 
Q 2591 3584 2966 3190 
Q 3341 2797 3341 1997 
z
" id="DejaVuSans-61" transform="scale(0.015625)"/>
       <path id="DejaVuSans-20" transform="scale(0.015625)"/>
       <path d="M 4122 4306 
L 4122 3641 
Q 3803 3938 3442 4084 
Q 3081 4231 2675 4231 
Q 1875 4231 1450 3742 
Q 1025 3253 1025 2328 
Q 1025 1406 1450 917 
Q 1875 428 2675 428 
Q 3081 428 3442 575 
Q 3803 722 4122 1019 
L 4122 359 
Q 3791 134 3420 21 
Q 3050 -91 2638 -91 
Q 1578 -91 968 557 
Q 359 1206 359 2328 
Q 359 3453 968 4101 
Q 1578 4750 2638 4750 
Q 3056 4750 3426 4639 
Q 3797 4528 4122 4306 
z
" id="DejaVuSans-43" transform="scale(0.015625)"/>
       <path d="M 3328 2828 
Q 3544 3216 3844 3400 
Q 4144 3584 4550 3584 
Q 5097 3584 5394 3201 
Q 5691 2819 5691 2113 
L 5691 0 
L 5113 0 
L 5113 2094 
Q 5113 2597 4934 2840 
Q 4756 3084 4391 3084 
Q 3944 3084 3684 2787 
Q 3425 2491 3425 1978 
L 3425 0 
L 2847 0 
L 2847 2094 
Q 2847 2600 2669 2842 
Q 2491 3084 2119 3084 
Q 1678 3084 1418 2786 
Q 1159 2488 1159 1978 
L 1159 0 
L 581 0 
L 581 3500 
L 1159 3500 
L 1159 2956 
Q 1356 3278 1631 3431 
Q 1906 3584 2284 3584 
Q 2666 3584 2933 3390 
Q 3200 3197 3328 2828 
z
" id="DejaVuSans-6d" transform="scale(0.015625)"/>
       <path d="M 544 1381 
L 544 3500 
L 1119 3500 
L 1119 1403 
Q 1119 906 1312 657 
Q 1506 409 1894 409 
Q 2359 409 2629 706 
Q 2900 1003 2900 1516 
L 2900 3500 
L 3475 3500 
L 3475 0 
L 2900 0 
L 2900 538 
Q 2691 219 2414 64 
Q 2138 -91 1772 -91 
Q 1169 -91 856 284 
Q 544 659 544 1381 
z
M 1991 3584 
L 1991 3584 
z
" id="DejaVuSans-75" transform="scale(0.015625)"/>
       <path d="M 3513 2113 
L 3513 0 
L 2938 0 
L 2938 2094 
Q 2938 2591 2744 2837 
Q 2550 3084 2163 3084 
Q 1697 3084 1428 2787 
Q 1159 2491 1159 1978 
L 1159 0 
L 581 0 
L 581 3500 
L 1159 3500 
L 1159 2956 
Q 1366 3272 1645 3428 
Q 1925 3584 2291 3584 
Q 2894 3584 3203 3211 
Q 3513 2838 3513 2113 
z
" id="DejaVuSans-6e" transform="scale(0.015625)"/>
       <path d="M 603 3500 
L 1178 3500 
L 1178 0 
L 603 0 
L 603 3500 
z
M 603 4863 
L 1178 4863 
L 1178 4134 
L 603 4134 
L 603 4863 
z
" id="DejaVuSans-69" transform="scale(0.015625)"/>
       <path d="M 3122 3366 
L 3122 2828 
Q 2878 2963 2633 3030 
Q 2388 3097 2138 3097 
Q 1578 3097 1268 2742 
Q 959 2388 959 1747 
Q 959 1106 1268 751 
Q 1578 397 2138 397 
Q 2388 397 2633 464 
Q 2878 531 3122 666 
L 3122 134 
Q 2881 22 2623 -34 
Q 2366 -91 2075 -91 
Q 1284 -91 818 406 
Q 353 903 353 1747 
Q 353 2603 823 3093 
Q 1294 3584 2113 3584 
Q 2378 3584 2631 3529 
Q 2884 3475 3122 3366 
z
" id="DejaVuSans-63" transform="scale(0.015625)"/>
       <path d="M 1172 4494 
L 1172 3500 
L 2356 3500 
L 2356 3053 
L 1172 3053 
L 1172 1153 
Q 1172 725 1289 603 
Q 1406 481 1766 481 
L 2356 481 
L 2356 0 
L 1766 0 
Q 1100 0 847 248 
Q 594 497 594 1153 
L 594 3053 
L 172 3053 
L 172 3500 
L 594 3500 
L 594 4494 
L 1172 4494 
z
" id="DejaVuSans-74" transform="scale(0.015625)"/>
       <path d="M 2841 2188 
Q 3044 2119 3236 1894 
Q 3428 1669 3622 1275 
L 4263 0 
L 3584 0 
L 2988 1197 
Q 2756 1666 2539 1819 
Q 2322 1972 1947 1972 
L 1259 1972 
L 1259 0 
L 628 0 
L 628 4666 
L 2053 4666 
Q 2853 4666 3247 4331 
Q 3641 3997 3641 3322 
Q 3641 2881 3436 2590 
Q 3231 2300 2841 2188 
z
M 1259 4147 
L 1259 2491 
L 2053 2491 
Q 2509 2491 2742 2702 
Q 2975 2913 2975 3322 
Q 2975 3731 2742 3939 
Q 2509 4147 2053 4147 
L 1259 4147 
z
" id="DejaVuSans-52" transform="scale(0.015625)"/>
       <path d="M 2906 2969 
L 2906 4863 
L 3481 4863 
L 3481 0 
L 2906 0 
L 2906 525 
Q 2725 213 2448 61 
Q 2172 -91 1784 -91 
Q 1150 -91 751 415 
Q 353 922 353 1747 
Q 353 2572 751 3078 
Q 1150 3584 1784 3584 
Q 2172 3584 2448 3432 
Q 2725 3281 2906 2969 
z
M 947 1747 
Q 947 1113 1208 752 
Q 1469 391 1925 391 
Q 2381 391 2643 752 
Q 2906 1113 2906 1747 
Q 2906 2381 2643 2742 
Q 2381 3103 1925 3103 
Q 1469 3103 1208 2742 
Q 947 2381 947 1747 
z
" id="DejaVuSans-64" transform="scale(0.015625)"/>
       <path d="M 2834 3397 
L 2834 2853 
Q 2591 2978 2328 3040 
Q 2066 3103 1784 3103 
Q 1356 3103 1142 2972 
Q 928 2841 928 2578 
Q 928 2378 1081 2264 
Q 1234 2150 1697 2047 
L 1894 2003 
Q 2506 1872 2764 1633 
Q 3022 1394 3022 966 
Q 3022 478 2636 193 
Q 2250 -91 1575 -91 
Q 1294 -91 989 -36 
Q 684 19 347 128 
L 347 722 
Q 666 556 975 473 
Q 1284 391 1588 391 
Q 1994 391 2212 530 
Q 2431 669 2431 922 
Q 2431 1156 2273 1281 
Q 2116 1406 1581 1522 
L 1381 1569 
Q 847 1681 609 1914 
Q 372 2147 372 2553 
Q 372 3047 722 3315 
Q 1072 3584 1716 3584 
Q 2034 3584 2315 3537 
Q 2597 3491 2834 3397 
z
" id="DejaVuSans-73" transform="scale(0.015625)"/>
      </defs>
      <use xlink:href="#DejaVuSans-47"/>
      <use x="77.490234" xlink:href="#DejaVuSans-6c"/>
      <use x="105.273438" xlink:href="#DejaVuSans-6f"/>
      <use x="166.455078" xlink:href="#DejaVuSans-62"/>
      <use x="229.931641" xlink:href="#DejaVuSans-61"/>
      <use x="291.210938" xlink:href="#DejaVuSans-6c"/>
      <use x="318.994141" xlink:href="#DejaVuSans-20"/>
      <use x="350.78125" xlink:href="#DejaVuSans-43"/>
      <use x="420.605469" xlink:href="#DejaVuSans-6f"/>
      <use x="481.787109" xlink:href="#DejaVuSans-6d"/>
      <use x="579.199219" xlink:href="#DejaVuSans-6d"/>
      <use x="676.611328" xlink:href="#DejaVuSans-75"/>
      <use x="739.990234" xlink:href="#DejaVuSans-6e"/>
      <use x="803.369141" xlink:href="#DejaVuSans-69"/>
      <use x="831.152344" xlink:href="#DejaVuSans-63"/>
      <use x="886.132812" xlink:href="#DejaVuSans-61"/>
      <use x="947.412109" xlink:href="#DejaVuSans-74"/>
      <use x="986.621094" xlink:href="#DejaVuSans-69"/>
      <use x="1014.404297" xlink:href="#DejaVuSans-6f"/>
      <use x="1075.585938" xlink:href="#DejaVuSans-6e"/>
      <use x="1138.964844" xlink:href="#DejaVuSans-20"/>
      <use x="1170.751953" xlink:href="#DejaVuSans-52"/>
      <use x="1235.734375" xlink:href="#DejaVuSans-6f"/>
      <use x="1296.916016" xlink:href="#DejaVuSans-75"/>
      <use x="1360.294922" xlink:href="#DejaVuSans-6e"/>
      <use x="1423.673828" xlink:href="#DejaVuSans-64"/>
      <use x="1487.150391" xlink:href="#DejaVuSans-73"/>
     </g>
    </g>
   </g>
   <g id="matplotlib.axis_2">
    <g id="ytick_1">
     <g id="line2d_7">
      <defs>
       <path d="M 0 0 
L -3.5 0 
" id="me9f1feb7c2" style="stroke:#000000;stroke-width:0.8;"/>
      </defs>
      <g>
       <use style="stroke:#000000;stroke-width:0.8;" x="44.57" xlink:href="#me9f1feb7c2" y="296.377261"/>
      </g>
     </g>
     <g id="text_8">
      <!-- 75 -->
      <g transform="translate(24.845 300.176479)scale(0.1 -0.1)">
       <defs>
        <path d="M 525 4666 
L 3525 4666 
L 3525 4397 
L 1831 0 
L 1172 0 
L 2766 4134 
L 525 4134 
L 525 4666 
z
" id="DejaVuSans-37" transform="scale(0.015625)"/>
       </defs>
       <use xlink:href="#DejaVuSans-37"/>
       <use x="63.623047" xlink:href="#DejaVuSans-35"/>
      </g>
     </g>
    </g>
    <g id="ytick_2">
     <g id="line2d_8">
      <g>
       <use style="stroke:#000000;stroke-width:0.8;" x="44.57" xlink:href="#me9f1feb7c2" y="242.680403"/>
      </g>
     </g>
     <g id="text_9">
      <!-- 80 -->
      <g transform="translate(24.845 246.479622)scale(0.1 -0.1)">
       <defs>
        <path d="M 2034 2216 
Q 1584 2216 1326 1975 
Q 1069 1734 1069 1313 
Q 1069 891 1326 650 
Q 1584 409 2034 409 
Q 2484 409 2743 651 
Q 3003 894 3003 1313 
Q 3003 1734 2745 1975 
Q 2488 2216 2034 2216 
z
M 1403 2484 
Q 997 2584 770 2862 
Q 544 3141 544 3541 
Q 544 4100 942 4425 
Q 1341 4750 2034 4750 
Q 2731 4750 3128 4425 
Q 3525 4100 3525 3541 
Q 3525 3141 3298 2862 
Q 3072 2584 2669 2484 
Q 3125 2378 3379 2068 
Q 3634 1759 3634 1313 
Q 3634 634 3220 271 
Q 2806 -91 2034 -91 
Q 1263 -91 848 271 
Q 434 634 434 1313 
Q 434 1759 690 2068 
Q 947 2378 1403 2484 
z
M 1172 3481 
Q 1172 3119 1398 2916 
Q 1625 2713 2034 2713 
Q 2441 2713 2670 2916 
Q 2900 3119 2900 3481 
Q 2900 3844 2670 4047 
Q 2441 4250 2034 4250 
Q 1625 4250 1398 4047 
Q 1172 3844 1172 3481 
z
" id="DejaVuSans-38" transform="scale(0.015625)"/>
       </defs>
       <use xlink:href="#DejaVuSans-38"/>
       <use x="63.623047" xlink:href="#DejaVuSans-30"/>
      </g>
     </g>
    </g>
    <g id="ytick_3">
     <g id="line2d_9">
      <g>
       <use style="stroke:#000000;stroke-width:0.8;" x="44.57" xlink:href="#me9f1feb7c2" y="188.983546"/>
      </g>
     </g>
     <g id="text_10">
      <!-- 85 -->
      <g transform="translate(24.845 192.782765)scale(0.1 -0.1)">
       <use xlink:href="#DejaVuSans-38"/>
       <use x="63.623047" xlink:href="#DejaVuSans-35"/>
      </g>
     </g>
    </g>
    <g id="ytick_4">
     <g id="line2d_10">
      <g>
       <use style="stroke:#000000;stroke-width:0.8;" x="44.57" xlink:href="#me9f1feb7c2" y="135.286689"/>
      </g>
     </g>
     <g id="text_11">
      <!-- 90 -->
      <g transform="translate(24.845 139.085908)scale(0.1 -0.1)">
       <defs>
        <path d="M 703 97 
L 703 672 
Q 941 559 1184 500 
Q 1428 441 1663 441 
Q 2288 441 2617 861 
Q 2947 1281 2994 2138 
Q 2813 1869 2534 1725 
Q 2256 1581 1919 1581 
Q 1219 1581 811 2004 
Q 403 2428 403 3163 
Q 403 3881 828 4315 
Q 1253 4750 1959 4750 
Q 2769 4750 3195 4129 
Q 3622 3509 3622 2328 
Q 3622 1225 3098 567 
Q 2575 -91 1691 -91 
Q 1453 -91 1209 -44 
Q 966 3 703 97 
z
M 1959 2075 
Q 2384 2075 2632 2365 
Q 2881 2656 2881 3163 
Q 2881 3666 2632 3958 
Q 2384 4250 1959 4250 
Q 1534 4250 1286 3958 
Q 1038 3666 1038 3163 
Q 1038 2656 1286 2365 
Q 1534 2075 1959 2075 
z
" id="DejaVuSans-39" transform="scale(0.015625)"/>
       </defs>
       <use xlink:href="#DejaVuSans-39"/>
       <use x="63.623047" xlink:href="#DejaVuSans-30"/>
      </g>
     </g>
    </g>
    <g id="ytick_5">
     <g id="line2d_11">
      <g>
       <use style="stroke:#000000;stroke-width:0.8;" x="44.57" xlink:href="#me9f1feb7c2" y="81.589832"/>
      </g>
     </g>
     <g id="text_12">
      <!-- 95 -->
      <g transform="translate(24.845 85.389051)scale(0.1 -0.1)">
       <use xlink:href="#DejaVuSans-39"/>
       <use x="63.623047" xlink:href="#DejaVuSans-35"/>
      </g>
     </g>
    </g>
    <g id="text_13">
     <!-- Test Accuracy -->
     <g transform="translate(18.765313 202.520914)rotate(-90)scale(0.1 -0.1)">
      <defs>
       <path d="M -19 4666 
L 3928 4666 
L 3928 4134 
L 2272 4134 
L 2272 0 
L 1638 0 
L 1638 4134 
L -19 4134 
L -19 4666 
z
" id="DejaVuSans-54" transform="scale(0.015625)"/>
       <path d="M 3597 1894 
L 3597 1613 
L 953 1613 
Q 991 1019 1311 708 
Q 1631 397 2203 397 
Q 2534 397 2845 478 
Q 3156 559 3463 722 
L 3463 178 
Q 3153 47 2828 -22 
Q 2503 -91 2169 -91 
Q 1331 -91 842 396 
Q 353 884 353 1716 
Q 353 2575 817 3079 
Q 1281 3584 2069 3584 
Q 2775 3584 3186 3129 
Q 3597 2675 3597 1894 
z
M 3022 2063 
Q 3016 2534 2758 2815 
Q 2500 3097 2075 3097 
Q 1594 3097 1305 2825 
Q 1016 2553 972 2059 
L 3022 2063 
z
" id="DejaVuSans-65" transform="scale(0.015625)"/>
       <path d="M 2188 4044 
L 1331 1722 
L 3047 1722 
L 2188 4044 
z
M 1831 4666 
L 2547 4666 
L 4325 0 
L 3669 0 
L 3244 1197 
L 1141 1197 
L 716 0 
L 50 0 
L 1831 4666 
z
" id="DejaVuSans-41" transform="scale(0.015625)"/>
       <path d="M 2631 2963 
Q 2534 3019 2420 3045 
Q 2306 3072 2169 3072 
Q 1681 3072 1420 2755 
Q 1159 2438 1159 1844 
L 1159 0 
L 581 0 
L 581 3500 
L 1159 3500 
L 1159 2956 
Q 1341 3275 1631 3429 
Q 1922 3584 2338 3584 
Q 2397 3584 2469 3576 
Q 2541 3569 2628 3553 
L 2631 2963 
z
" id="DejaVuSans-72" transform="scale(0.015625)"/>
       <path d="M 2059 -325 
Q 1816 -950 1584 -1140 
Q 1353 -1331 966 -1331 
L 506 -1331 
L 506 -850 
L 844 -850 
Q 1081 -850 1212 -737 
Q 1344 -625 1503 -206 
L 1606 56 
L 191 3500 
L 800 3500 
L 1894 763 
L 2988 3500 
L 3597 3500 
L 2059 -325 
z
" id="DejaVuSans-79" transform="scale(0.015625)"/>
      </defs>
      <use xlink:href="#DejaVuSans-54"/>
      <use x="44.083984" xlink:href="#DejaVuSans-65"/>
      <use x="105.607422" xlink:href="#DejaVuSans-73"/>
      <use x="157.707031" xlink:href="#DejaVuSans-74"/>
      <use x="196.916016" xlink:href="#DejaVuSans-20"/>
      <use x="228.703125" xlink:href="#DejaVuSans-41"/>
      <use x="295.361328" xlink:href="#DejaVuSans-63"/>
      <use x="350.341797" xlink:href="#DejaVuSans-63"/>
      <use x="405.322266" xlink:href="#DejaVuSans-75"/>
      <use x="468.701172" xlink:href="#DejaVuSans-72"/>
      <use x="509.814453" xlink:href="#DejaVuSans-61"/>
      <use x="571.09375" xlink:href="#DejaVuSans-63"/>
      <use x="626.074219" xlink:href="#DejaVuSans-79"/>
     </g>
    </g>
   </g>
   <g id="line2d_12">
    <path clip-path="url(#p03ad075fc4)" d="M 62.998636 155.677901 
L 70.520529 93.960501 
L 78.042421 89.06661 
L 85.564314 83.628953 
L 93.086206 81.453891 
L 100.608098 75.744352 
L 108.129991 74.113055 
L 115.651883 74.384938 
L 123.173776 71.122344 
L 130.695668 66.500336 
L 138.21756 68.403516 
L 145.739453 68.403516 
L 153.261345 66.772219 
L 160.783237 64.597156 
L 168.30513 63.237742 
L 175.827022 62.422093 
L 183.348915 64.05339 
L 190.870807 61.606445 
L 198.392699 59.703265 
L 205.914592 60.247031 
L 213.436484 59.431382 
L 220.958377 59.1595 
L 228.480269 58.887617 
L 236.002161 58.071968 
L 243.524054 58.887617 
L 251.045946 56.712554 
L 258.567839 56.984437 
L 266.089731 56.440671 
L 273.611623 56.168789 
L 281.133516 55.896906 
L 288.655408 53.721843 
L 296.177301 55.081257 
L 303.699193 53.993726 
L 311.221085 52.906195 
L 318.742978 54.265609 
L 326.26487 53.178078 
L 333.786763 54.265609 
L 341.308655 54.809374 
L 348.830547 51.003015 
L 356.35244 52.634312 
L 363.874332 51.546781 
L 371.396224 53.178078 
L 378.918117 51.546781 
L 386.440009 48.284187 
L 393.961902 51.818663 
L 401.483794 49.099835 
L 409.005686 49.099835 
L 416.527579 51.546781 
L 424.049471 51.546781 
L 431.571364 49.643601 
" style="fill:none;stroke:#1f77b4;stroke-linecap:square;stroke-width:1.5;"/>
   </g>
   <g id="line2d_13">
    <path clip-path="url(#p03ad075fc4)" d="M 62.998636 182.322417 
L 70.520529 97.494977 
L 78.042421 92.329204 
L 85.564314 87.979079 
L 93.086206 81.182008 
L 100.608098 79.278828 
L 108.129991 75.744352 
L 115.651883 73.841172 
L 123.173776 70.850461 
L 130.695668 68.675398 
L 138.21756 69.219164 
L 145.739453 67.85975 
L 153.261345 67.044101 
L 160.783237 66.772219 
L 168.30513 64.869039 
L 175.827022 64.597156 
L 183.348915 65.95657 
L 190.870807 64.869039 
L 198.392699 62.965859 
L 205.914592 61.878328 
L 213.436484 62.693976 
L 220.958377 61.062679 
L 228.480269 62.965859 
L 236.002161 63.237742 
L 243.524054 62.693976 
L 251.045946 62.693976 
L 258.567839 60.790797 
L 266.089731 59.1595 
L 273.611623 60.518914 
L 281.133516 62.422093 
L 288.655408 58.343851 
L 296.177301 59.703265 
L 303.699193 58.887617 
L 311.221085 59.703265 
L 318.742978 59.431382 
L 326.26487 57.800085 
L 333.786763 56.712554 
L 341.308655 58.343851 
L 348.830547 57.528203 
L 356.35244 56.712554 
L 363.874332 56.712554 
L 371.396224 56.712554 
L 378.918117 57.25632 
L 386.440009 56.984437 
L 393.961902 55.896906 
L 401.483794 55.081257 
L 409.005686 56.984437 
L 416.527579 56.712554 
L 424.049471 55.081257 
L 431.571364 56.984437 
" style="fill:none;stroke:#ff7f0e;stroke-linecap:square;stroke-width:1.5;"/>
   </g>
   <g id="line2d_14">
    <path clip-path="url(#p03ad075fc4)" d="M 62.998636 124.955142 
L 70.520529 97.76686 
L 78.042421 91.241672 
L 85.564314 84.172719 
L 93.086206 80.638242 
L 100.608098 75.744352 
L 108.129991 74.384938 
L 115.651883 71.122344 
L 123.173776 70.306695 
L 130.695668 68.675398 
L 138.21756 67.044101 
L 145.739453 67.587867 
L 153.261345 66.772219 
L 160.783237 64.869039 
L 168.30513 64.325273 
L 175.827022 65.140922 
L 183.348915 64.325273 
L 190.870807 63.237742 
L 198.392699 61.334562 
L 205.914592 61.606445 
L 213.436484 60.790797 
L 220.958377 60.518914 
L 228.480269 60.518914 
L 236.002161 59.975148 
L 243.524054 60.518914 
L 251.045946 58.071968 
L 258.567839 59.703265 
L 266.089731 58.615734 
L 273.611623 58.615734 
L 281.133516 57.25632 
L 288.655408 58.343851 
L 296.177301 57.528203 
L 303.699193 55.896906 
L 311.221085 55.896906 
L 318.742978 56.712554 
L 326.26487 56.984437 
L 333.786763 56.440671 
L 341.308655 56.168789 
L 348.830547 56.440671 
L 356.35244 55.625023 
L 363.874332 55.896906 
L 371.396224 56.168789 
L 378.918117 54.537492 
L 386.440009 54.537492 
L 393.961902 52.634312 
L 401.483794 54.537492 
L 409.005686 53.993726 
L 416.527579 53.721843 
L 424.049471 54.265609 
L 431.571364 54.809374 
" style="fill:none;stroke:#2ca02c;stroke-linecap:square;stroke-width:1.5;"/>
   </g>
   <g id="line2d_15">
    <path clip-path="url(#p03ad075fc4)" d="M 62.998636 270.688684 
L 70.520529 159.235488 
L 78.042421 134.08388 
L 85.564314 124.074786 
L 93.086206 119.285026 
L 100.608098 115.418852 
L 108.129991 111.87486 
L 115.651883 109.340368 
L 123.173776 106.719961 
L 130.695668 104.658002 
L 138.21756 103.068575 
L 145.739453 101.758372 
L 153.261345 100.233381 
L 160.783237 98.53656 
L 168.30513 97.226357 
L 175.827022 96.045026 
L 183.348915 94.691865 
L 190.870807 93.274268 
L 198.392699 92.157374 
L 205.914592 90.911607 
L 213.436484 89.966542 
L 220.958377 88.828169 
L 228.480269 88.183806 
L 236.002161 87.174305 
L 243.524054 86.637337 
L 251.045946 86.143326 
L 258.567839 85.541921 
L 266.089731 85.090867 
L 273.611623 84.467984 
L 281.133516 83.716228 
L 288.655408 83.286653 
L 296.177301 82.942993 
L 303.699193 82.406025 
L 311.221085 81.954971 
L 318.742978 81.933492 
L 326.26487 81.28913 
L 333.786763 81.009906 
L 341.308655 80.644768 
L 348.830547 80.42998 
L 356.35244 80.236672 
L 363.874332 79.74266 
L 371.396224 79.721182 
L 378.918117 79.291607 
L 386.440009 78.904989 
L 393.961902 78.668723 
L 401.483794 78.690202 
L 409.005686 78.582808 
L 416.527579 78.432457 
L 424.049471 78.131755 
L 431.571364 78.067318 
" style="fill:none;stroke:#d62728;stroke-linecap:square;stroke-width:1.5;"/>
   </g>
   <g id="patch_3">
    <path d="M 44.57 303.64 
L 44.57 32.876829 
" style="fill:none;stroke:#000000;stroke-linecap:square;stroke-linejoin:miter;stroke-width:0.8;"/>
   </g>
   <g id="patch_4">
    <path d="M 450 303.64 
L 450 32.876829 
" style="fill:none;stroke:#000000;stroke-linecap:square;stroke-linejoin:miter;stroke-width:0.8;"/>
   </g>
   <g id="patch_5">
    <path d="M 44.57 303.64 
L 450 303.64 
" style="fill:none;stroke:#000000;stroke-linecap:square;stroke-linejoin:miter;stroke-width:0.8;"/>
   </g>
   <g id="patch_6">
    <path d="M 44.57 32.876829 
L 450 32.876829 
" style="fill:none;stroke:#000000;stroke-linecap:square;stroke-linejoin:miter;stroke-width:0.8;"/>
   </g>
   <g id="legend_1">
    <g id="patch_7">
     <path d="M 80.886563 28.478637 
L 413.683438 28.478637 
Q 415.683438 28.478637 415.683438 26.478637 
L 415.683438 12.800512 
Q 415.683438 10.800512 413.683438 10.800512 
L 80.886563 10.800512 
Q 78.886563 10.800512 78.886563 12.800512 
L 78.886563 26.478637 
Q 78.886563 28.478637 80.886563 28.478637 
z
" style="fill:#ffffff;opacity:0.8;stroke:#cccccc;stroke-linejoin:miter;"/>
    </g>
    <g id="line2d_16">
     <path d="M 82.886563 18.898949 
L 102.886563 18.898949 
" style="fill:none;stroke:#1f77b4;stroke-linecap:square;stroke-width:1.5;"/>
    </g>
    <g id="line2d_17"/>
    <g id="text_14">
     <!-- FedAvg -->
     <g transform="translate(110.886563 22.398949)scale(0.1 -0.1)">
      <defs>
       <path d="M 628 4666 
L 3309 4666 
L 3309 4134 
L 1259 4134 
L 1259 2759 
L 3109 2759 
L 3109 2228 
L 1259 2228 
L 1259 0 
L 628 0 
L 628 4666 
z
" id="DejaVuSans-46" transform="scale(0.015625)"/>
       <path d="M 191 3500 
L 800 3500 
L 1894 563 
L 2988 3500 
L 3597 3500 
L 2284 0 
L 1503 0 
L 191 3500 
z
" id="DejaVuSans-76" transform="scale(0.015625)"/>
       <path d="M 2906 1791 
Q 2906 2416 2648 2759 
Q 2391 3103 1925 3103 
Q 1463 3103 1205 2759 
Q 947 2416 947 1791 
Q 947 1169 1205 825 
Q 1463 481 1925 481 
Q 2391 481 2648 825 
Q 2906 1169 2906 1791 
z
M 3481 434 
Q 3481 -459 3084 -895 
Q 2688 -1331 1869 -1331 
Q 1566 -1331 1297 -1286 
Q 1028 -1241 775 -1147 
L 775 -588 
Q 1028 -725 1275 -790 
Q 1522 -856 1778 -856 
Q 2344 -856 2625 -561 
Q 2906 -266 2906 331 
L 2906 616 
Q 2728 306 2450 153 
Q 2172 0 1784 0 
Q 1141 0 747 490 
Q 353 981 353 1791 
Q 353 2603 747 3093 
Q 1141 3584 1784 3584 
Q 2172 3584 2450 3431 
Q 2728 3278 2906 2969 
L 2906 3500 
L 3481 3500 
L 3481 434 
z
" id="DejaVuSans-67" transform="scale(0.015625)"/>
      </defs>
      <use xlink:href="#DejaVuSans-46"/>
      <use x="52.019531" xlink:href="#DejaVuSans-65"/>
      <use x="113.542969" xlink:href="#DejaVuSans-64"/>
      <use x="177.019531" xlink:href="#DejaVuSans-41"/>
      <use x="239.552734" xlink:href="#DejaVuSans-76"/>
      <use x="298.732422" xlink:href="#DejaVuSans-67"/>
     </g>
    </g>
    <g id="line2d_18">
     <path d="M 167.11 18.898949 
L 187.11 18.898949 
" style="fill:none;stroke:#ff7f0e;stroke-linecap:square;stroke-width:1.5;"/>
    </g>
    <g id="line2d_19"/>
    <g id="text_15">
     <!-- FedMed -->
     <g transform="translate(195.11 22.398949)scale(0.1 -0.1)">
      <defs>
       <path d="M 628 4666 
L 1569 4666 
L 2759 1491 
L 3956 4666 
L 4897 4666 
L 4897 0 
L 4281 0 
L 4281 4097 
L 3078 897 
L 2444 897 
L 1241 4097 
L 1241 0 
L 628 0 
L 628 4666 
z
" id="DejaVuSans-4d" transform="scale(0.015625)"/>
      </defs>
      <use xlink:href="#DejaVuSans-46"/>
      <use x="52.019531" xlink:href="#DejaVuSans-65"/>
      <use x="113.542969" xlink:href="#DejaVuSans-64"/>
      <use x="177.019531" xlink:href="#DejaVuSans-4d"/>
      <use x="263.298828" xlink:href="#DejaVuSans-65"/>
      <use x="324.822266" xlink:href="#DejaVuSans-64"/>
     </g>
    </g>
    <g id="line2d_20">
     <path d="M 253.942813 18.898949 
L 273.942813 18.898949 
" style="fill:none;stroke:#2ca02c;stroke-linecap:square;stroke-width:1.5;"/>
    </g>
    <g id="line2d_21"/>
    <g id="text_16">
     <!-- FedProx -->
     <g transform="translate(281.942813 22.398949)scale(0.1 -0.1)">
      <defs>
       <path d="M 1259 4147 
L 1259 2394 
L 2053 2394 
Q 2494 2394 2734 2622 
Q 2975 2850 2975 3272 
Q 2975 3691 2734 3919 
Q 2494 4147 2053 4147 
L 1259 4147 
z
M 628 4666 
L 2053 4666 
Q 2838 4666 3239 4311 
Q 3641 3956 3641 3272 
Q 3641 2581 3239 2228 
Q 2838 1875 2053 1875 
L 1259 1875 
L 1259 0 
L 628 0 
L 628 4666 
z
" id="DejaVuSans-50" transform="scale(0.015625)"/>
       <path d="M 3513 3500 
L 2247 1797 
L 3578 0 
L 2900 0 
L 1881 1375 
L 863 0 
L 184 0 
L 1544 1831 
L 300 3500 
L 978 3500 
L 1906 2253 
L 2834 3500 
L 3513 3500 
z
" id="DejaVuSans-78" transform="scale(0.015625)"/>
      </defs>
      <use xlink:href="#DejaVuSans-46"/>
      <use x="52.019531" xlink:href="#DejaVuSans-65"/>
      <use x="113.542969" xlink:href="#DejaVuSans-64"/>
      <use x="177.019531" xlink:href="#DejaVuSans-50"/>
      <use x="235.572266" xlink:href="#DejaVuSans-72"/>
      <use x="274.435547" xlink:href="#DejaVuSans-6f"/>
      <use x="332.492188" xlink:href="#DejaVuSans-78"/>
     </g>
    </g>
    <g id="line2d_22">
     <path d="M 341.111563 18.898949 
L 361.111563 18.898949 
" style="fill:none;stroke:#d62728;stroke-linecap:square;stroke-width:1.5;"/>
    </g>
    <g id="line2d_23"/>
    <g id="text_17">
     <!-- qFedAvg -->
     <g transform="translate(369.111563 22.398949)scale(0.1 -0.1)">
      <defs>
       <path d="M 947 1747 
Q 947 1113 1208 752 
Q 1469 391 1925 391 
Q 2381 391 2643 752 
Q 2906 1113 2906 1747 
Q 2906 2381 2643 2742 
Q 2381 3103 1925 3103 
Q 1469 3103 1208 2742 
Q 947 2381 947 1747 
z
M 2906 525 
Q 2725 213 2448 61 
Q 2172 -91 1784 -91 
Q 1150 -91 751 415 
Q 353 922 353 1747 
Q 353 2572 751 3078 
Q 1150 3584 1784 3584 
Q 2172 3584 2448 3432 
Q 2725 3281 2906 2969 
L 2906 3500 
L 3481 3500 
L 3481 -1331 
L 2906 -1331 
L 2906 525 
z
" id="DejaVuSans-71" transform="scale(0.015625)"/>
      </defs>
      <use xlink:href="#DejaVuSans-71"/>
      <use x="63.476562" xlink:href="#DejaVuSans-46"/>
      <use x="115.496094" xlink:href="#DejaVuSans-65"/>
      <use x="177.019531" xlink:href="#DejaVuSans-64"/>
      <use x="240.496094" xlink:href="#DejaVuSans-41"/>
      <use x="303.029297" xlink:href="#DejaVuSans-76"/>
      <use x="362.208984" xlink:href="#DejaVuSans-67"/>
     </g>
    </g>
   </g>
  </g>
 </g>
 <defs>
  <clipPath id="p03ad075fc4">
   <rect height="270.763171" width="405.43" x="44.57" y="32.876829"/>
  </clipPath>
 </defs>
</svg>
