<?xml version="1.0" encoding="utf-8" standalone="no"?>
<!DOCTYPE svg PUBLIC "-//W3C//DTD SVG 1.1//EN"
  "http://www.w3.org/Graphics/SVG/1.1/DTD/svg11.dtd">
<svg height="345.6pt" version="1.1" viewBox="0 0 460.8 345.6" width="460.8pt" xmlns="http://www.w3.org/2000/svg" xmlns:xlink="http://www.w3.org/1999/xlink">
 <metadata>
  <rdf:RDF xmlns:cc="http://creativecommons.org/ns#" xmlns:dc="http://purl.org/dc/elements/1.1/" xmlns:rdf="http://www.w3.org/1999/02/22-rdf-syntax-ns#">
   <cc:Work>
    <dc:type rdf:resource="http://purl.org/dc/dcmitype/StillImage"/>
    <dc:date>2021-04-27T22:08:11.424354</dc:date>
    <dc:format>image/svg+xml</dc:format>
    <dc:creator>
     <cc:Agent>
      <dc:title>Matplotlib v3.4.1, https://matplotlib.org/</dc:title>
     </cc:Agent>
    </dc:creator>
   </cc:Work>
  </rdf:RDF>
 </metadata>
 <defs>
  <style type="text/css">*{stroke-linecap:butt;stroke-linejoin:round;}</style>
 </defs>
 <g id="figure_1">
  <g id="patch_1">
   <path d="M 0 345.6 
L 460.8 345.6 
L 460.8 0 
L 0 0 
z
" style="fill:#ffffff;"/>
  </g>
  <g id="axes_1">
   <g id="patch_2">
    <path d="M 44.66 303.64 
L 366.25 303.64 
L 366.25 26.88 
L 44.66 26.88 
z
" style="fill:#ffffff;"/>
   </g>
   <g id="PolyCollection_1">
    <path clip-path="url(#pf65f197047)" d="M 59.277727 203.943564 
L 59.277727 227.196883 
L 65.244147 163.203051 
L 71.210566 147.539584 
L 77.176985 142.125051 
L 83.143404 131.213938 
L 89.109824 119.483938 
L 95.076243 110.10875 
L 101.042662 102.944292 
L 107.009082 105.456294 
L 112.975501 95.68832 
L 118.94192 95.088185 
L 124.90834 90.609762 
L 130.874759 87.360891 
L 136.841178 86.314254 
L 142.807597 87.961027 
L 148.774017 81.919917 
L 154.740436 78.30191 
L 160.706855 80.768817 
L 166.673275 72.282582 
L 172.639694 72.839691 
L 178.606113 75.297795 
L 184.572532 73.129136 
L 190.538952 75.914876 
L 196.505371 77.313253 
L 202.47179 73.6471 
L 208.43821 64.34856 
L 214.404629 72.419127 
L 220.371048 67.688162 
L 226.337468 72.615297 
L 232.303887 71.631442 
L 238.270306 72.285656 
L 244.236725 68.471317 
L 250.203145 64.747837 
L 256.169564 64.748944 
L 262.135983 65.531945 
L 268.102403 61.260426 
L 274.068822 62.891129 
L 280.035241 64.096168 
L 286.00166 64.67029 
L 291.96808 60.570784 
L 297.934499 61.979524 
L 303.900918 61.668298 
L 309.867338 62.76001 
L 315.833757 55.952701 
L 321.800176 54.328867 
L 327.766596 51.869015 
L 333.733015 52.967423 
L 339.699434 53.941005 
L 345.665853 56.692963 
L 351.632273 45.873798 
L 351.632273 40.114214 
L 351.632273 40.114214 
L 345.665853 44.749635 
L 339.699434 43.637947 
L 333.733015 39.46 
L 327.766596 43.134172 
L 321.800176 43.250085 
L 315.833757 45.489897 
L 309.867338 50.273528 
L 303.900918 53.941005 
L 297.934499 52.341896 
L 291.96808 47.311225 
L 286.00166 49.651131 
L 280.035241 50.225252 
L 274.068822 56.58182 
L 268.102403 50.48523 
L 262.135983 52.653122 
L 256.169564 46.996712 
L 250.203145 56.012995 
L 244.236725 51.001632 
L 238.270306 58.778233 
L 232.303887 65.871858 
L 226.337468 57.16071 
L 220.371048 58.224199 
L 214.404629 59.932645 
L 208.43821 60.275919 
L 202.47179 62.568318 
L 196.505371 64.053694 
L 190.538952 65.452071 
L 184.572532 60.510518 
L 178.606113 55.766094 
L 172.639694 63.375728 
L 166.673275 62.644954 
L 160.706855 65.749659 
L 154.740436 70.792331 
L 148.774017 78.765263 
L 142.807597 80.451447 
L 136.841178 74.370926 
L 130.874759 81.051583 
L 124.90834 79.090594 
L 118.94192 88.778876 
L 112.975501 88.178741 
L 107.009082 95.153236 
L 101.042662 96.377355 
L 95.076243 95.652308 
L 89.109824 101.731707 
L 83.143404 120.91088 
L 77.176985 130.605883 
L 71.210566 129.054997 
L 65.244147 149.452232 
L 59.277727 203.943564 
z
" style="fill:#1f77b4;fill-opacity:0.5;"/>
   </g>
   <g id="PolyCollection_2">
    <path clip-path="url(#pf65f197047)" d="M 59.277727 212.491865 
L 59.277727 253.421402 
L 65.244147 176.032932 
L 71.210566 156.789861 
L 77.176985 146.486803 
L 83.143404 131.105081 
L 89.109824 124.964895 
L 95.076243 118.335116 
L 101.042662 110.978628 
L 107.009082 108.721763 
L 112.975501 103.104923 
L 118.94192 101.768841 
L 124.90834 99.404745 
L 130.874759 102.028645 
L 136.841178 107.347792 
L 142.807597 94.228961 
L 148.774017 93.669183 
L 154.740436 93.829468 
L 160.706855 93.626283 
L 166.673275 97.262572 
L 172.639694 87.78955 
L 178.606113 83.094549 
L 184.572532 84.058343 
L 190.538952 87.286883 
L 196.505371 82.001278 
L 202.47179 81.114057 
L 208.43821 82.788252 
L 214.404629 76.370087 
L 220.371048 73.323001 
L 226.337468 81.521615 
L 232.303887 86.508865 
L 238.270306 82.788252 
L 244.236725 84.06607 
L 250.203145 79.59057 
L 256.169564 73.150381 
L 262.135983 76.866806 
L 268.102403 76.271001 
L 274.068822 75.297409 
L 280.035241 69.33054 
L 286.00166 71.131244 
L 291.96808 73.449606 
L 297.934499 69.058955 
L 303.900918 71.640906 
L 309.867338 73.305002 
L 315.833757 75.835003 
L 321.800176 71.187248 
L 327.766596 64.077705 
L 333.733015 71.831189 
L 339.699434 72.742822 
L 345.665853 70.747236 
L 351.632273 65.90275 
L 351.632273 50.994435 
L 351.632273 50.994435 
L 345.665853 64.1803 
L 339.699434 59.608949 
L 333.733015 63.096347 
L 327.766596 59.258891 
L 321.800176 62.452406 
L 315.833757 57.804651 
L 309.867338 64.198299 
L 303.900918 59.422983 
L 297.934499 62.004934 
L 291.96808 60.190047 
L 286.00166 58.644763 
L 280.035241 63.021232 
L 274.068822 63.493774 
L 268.102403 62.520182 
L 262.135983 65.788024 
L 256.169564 65.640802 
L 250.203145 64.352142 
L 244.236725 75.331228 
L 238.270306 70.169635 
L 232.303887 71.600551 
L 226.337468 74.012036 
L 220.371048 66.756064 
L 214.404629 68.860507 
L 208.43821 70.169635 
L 202.47179 67.980184 
L 196.505371 67.092963 
L 190.538952 69.534651 
L 184.572532 70.187427 
L 178.606113 71.151221 
L 172.639694 70.319866 
L 166.673275 73.725666 
L 160.706855 74.786191 
L 154.740436 82.310299 
L 148.774017 81.182702 
L 142.807597 76.759277 
L 136.841178 86.822327 
L 130.874759 88.277826 
L 124.90834 88.325963 
L 118.94192 89.825513 
L 112.975501 93.64096 
L 107.009082 99.61506 
L 101.042662 96.070313 
L 95.076243 100.304765 
L 89.109824 111.705336 
L 83.143404 123.595502 
L 77.176985 135.259306 
L 71.210566 145.562364 
L 65.244147 152.076938 
L 59.277727 212.491865 
z
" style="fill:#ff7f0e;fill-opacity:0.5;"/>
   </g>
   <g id="PolyCollection_3">
    <path clip-path="url(#pf65f197047)" d="M 59.277727 194.303227 
L 59.277727 243.276632 
L 65.244147 182.472343 
L 71.210566 164.55658 
L 77.176985 136.676693 
L 83.143404 139.941237 
L 89.109824 130.296861 
L 95.076243 116.403293 
L 101.042662 118.127173 
L 107.009082 108.111932 
L 112.975501 103.813915 
L 118.94192 98.452815 
L 124.90834 95.088185 
L 130.874759 91.697365 
L 136.841178 94.010222 
L 142.807597 92.985247 
L 148.774017 95.987545 
L 154.740436 84.594099 
L 160.706855 85.956339 
L 166.673275 82.274414 
L 172.639694 74.482069 
L 178.606113 80.176233 
L 184.572532 88.252027 
L 190.538952 87.557725 
L 196.505371 83.516182 
L 202.47179 84.793212 
L 208.43821 81.42253 
L 214.404629 74.674646 
L 220.371048 72.342161 
L 226.337468 70.789821 
L 232.303887 73.435432 
L 238.270306 77.122885 
L 244.236725 80.560938 
L 250.203145 75.870722 
L 256.169564 75.403757 
L 262.135983 72.382307 
L 268.102403 72.058628 
L 274.068822 68.611484 
L 280.035241 67.010195 
L 286.00166 68.611484 
L 291.96808 67.911539 
L 297.934499 68.235235 
L 303.900918 66.689724 
L 309.867338 66.403004 
L 315.833757 66.434592 
L 321.800176 66.347496 
L 327.766596 65.714088 
L 333.733015 66.270177 
L 339.699434 72.709588 
L 345.665853 68.161186 
L 351.632273 67.982945 
L 351.632273 51.490005 
L 351.632273 51.490005 
L 345.665853 52.599646 
L 339.699434 50.627008 
L 333.733015 44.187597 
L 327.766596 47.31945 
L 321.800176 49.261807 
L 315.833757 51.750475 
L 309.867338 47.918417 
L 303.900918 54.071107 
L 297.934499 55.101361 
L 291.96808 55.425057 
L 286.00166 59.876641 
L 280.035241 53.750636 
L 274.068822 59.876641 
L 268.102403 57.717379 
L 262.135983 54.817935 
L 256.169564 51.796486 
L 250.203145 52.617403 
L 244.236725 55.654481 
L 238.270306 61.668298 
L 232.303887 61.492104 
L 226.337468 58.986186 
L 220.371048 57.433846 
L 214.404629 61.540773 
L 208.43821 67.671711 
L 202.47179 63.013147 
L 196.505371 65.578058 
L 190.538952 65.400162 
L 184.572532 69.857389 
L 178.606113 75.357419 
L 172.639694 68.17276 
L 166.673275 77.122885 
L 160.706855 74.728842 
L 154.740436 73.515317 
L 148.774017 82.727986 
L 142.807597 84.442403 
L 136.841178 79.55378 
L 130.874759 83.15452 
L 124.90834 88.778876 
L 118.94192 87.99001 
L 112.975501 100.659261 
L 107.009082 97.649127 
L 101.042662 104.376354 
L 95.076243 106.100235 
L 89.109824 115.388546 
L 83.143404 118.622993 
L 77.176985 127.039065 
L 71.210566 132.644116 
L 65.244147 158.516349 
L 59.277727 194.303227 
z
" style="fill:#2ca02c;fill-opacity:0.5;"/>
   </g>
   <g id="PolyCollection_4">
    <path clip-path="url(#pf65f197047)" d="M 59.277727 276.36672 
L 59.277727 291.06 
L 65.244147 230.098999 
L 71.210566 207.76607 
L 77.176985 195.701475 
L 83.143404 185.390536 
L 89.109824 178.203239 
L 95.076243 170.601394 
L 101.042662 163.614338 
L 107.009082 158.264616 
L 112.975501 152.136582 
L 118.94192 147.582013 
L 124.90834 143.713255 
L 130.874759 140.543872 
L 136.841178 137.913569 
L 142.807597 135.406268 
L 148.774017 132.698699 
L 154.740436 130.73891 
L 160.706855 129.149932 
L 166.673275 127.500578 
L 172.639694 127.711103 
L 178.606113 126.139283 
L 184.572532 125.599254 
L 190.538952 123.291098 
L 196.505371 122.280543 
L 202.47179 120.833679 
L 208.43821 121.080425 
L 214.404629 120.317283 
L 220.371048 118.885625 
L 226.337468 118.657494 
L 232.303887 117.48661 
L 238.270306 117.048 
L 244.236725 116.271582 
L 250.203145 116.245461 
L 256.169564 115.978751 
L 262.135983 115.679003 
L 268.102403 115.773441 
L 274.068822 115.40826 
L 280.035241 115.307387 
L 286.00166 115.87781 
L 291.96808 114.70934 
L 297.934499 113.954232 
L 303.900918 113.695369 
L 309.867338 113.002627 
L 315.833757 112.777676 
L 321.800176 113.108556 
L 327.766596 112.493246 
L 333.733015 112.211093 
L 339.699434 112.822903 
L 345.665853 112.648455 
L 351.632273 112.951188 
L 351.632273 102.140577 
L 351.632273 102.140577 
L 345.665853 102.239824 
L 339.699434 102.370605 
L 333.733015 102.880672 
L 327.766596 103.412461 
L 321.800176 103.000636 
L 315.833757 103.026288 
L 309.867338 103.411793 
L 303.900918 102.820793 
L 297.934499 103.172387 
L 291.96808 103.434706 
L 286.00166 104.097605 
L 280.035241 104.057571 
L 274.068822 104.363669 
L 268.102403 105.321143 
L 262.135983 106.229522 
L 256.169564 106.540231 
L 250.203145 107.290948 
L 244.236725 108.587482 
L 238.270306 108.930233 
L 232.303887 108.38988 
L 226.337468 110.271278 
L 220.371048 110.958831 
L 214.404629 111.663769 
L 208.43821 111.714569 
L 202.47179 113.589199 
L 196.505371 113.973702 
L 190.538952 114.794517 
L 184.572532 116.047354 
L 178.606113 117.745665 
L 172.639694 119.734839 
L 166.673275 121.573247 
L 160.706855 120.737835 
L 154.740436 124.134249 
L 148.774017 125.735454 
L 142.807597 128.013277 
L 136.841178 130.694854 
L 130.874759 135.390025 
L 124.90834 137.714748 
L 118.94192 140.764493 
L 112.975501 144.552825 
L 107.009082 150.735657 
L 101.042662 156.374146 
L 95.076243 161.0875 
L 89.109824 168.543575 
L 83.143404 176.821167 
L 77.176985 187.570966 
L 71.210566 200.636817 
L 65.244147 219.204451 
L 59.277727 276.36672 
z
" style="fill:#d62728;fill-opacity:0.5;"/>
   </g>
   <g id="matplotlib.axis_1">
    <g id="xtick_1">
     <g id="line2d_1">
      <path clip-path="url(#pf65f197047)" d="M 59.277727 303.64 
L 59.277727 26.88 
" style="fill:none;stroke:#b0b0b0;stroke-linecap:square;stroke-width:0.8;"/>
     </g>
     <g id="line2d_2">
      <defs>
       <path d="M 0 0 
L 0 3.5 
" id="mab1af44e98" style="stroke:#000000;stroke-width:0.8;"/>
      </defs>
      <g>
       <use style="stroke:#000000;stroke-width:0.8;" x="59.277727" xlink:href="#mab1af44e98" y="303.64"/>
      </g>
     </g>
     <g id="text_1">
      <!-- 0 -->
      <g transform="translate(56.096477 318.238437)scale(0.1 -0.1)">
       <defs>
        <path d="M 2034 4250 
Q 1547 4250 1301 3770 
Q 1056 3291 1056 2328 
Q 1056 1369 1301 889 
Q 1547 409 2034 409 
Q 2525 409 2770 889 
Q 3016 1369 3016 2328 
Q 3016 3291 2770 3770 
Q 2525 4250 2034 4250 
z
M 2034 4750 
Q 2819 4750 3233 4129 
Q 3647 3509 3647 2328 
Q 3647 1150 3233 529 
Q 2819 -91 2034 -91 
Q 1250 -91 836 529 
Q 422 1150 422 2328 
Q 422 3509 836 4129 
Q 1250 4750 2034 4750 
z
" id="DejaVuSans-30" transform="scale(0.015625)"/>
       </defs>
       <use xlink:href="#DejaVuSans-30"/>
      </g>
     </g>
    </g>
    <g id="xtick_2">
     <g id="line2d_3">
      <path clip-path="url(#pf65f197047)" d="M 118.94192 303.64 
L 118.94192 26.88 
" style="fill:none;stroke:#b0b0b0;stroke-linecap:square;stroke-width:0.8;"/>
     </g>
     <g id="line2d_4">
      <g>
       <use style="stroke:#000000;stroke-width:0.8;" x="118.94192" xlink:href="#mab1af44e98" y="303.64"/>
      </g>
     </g>
     <g id="text_2">
      <!-- 10 -->
      <g transform="translate(112.57942 318.238437)scale(0.1 -0.1)">
       <defs>
        <path d="M 794 531 
L 1825 531 
L 1825 4091 
L 703 3866 
L 703 4441 
L 1819 4666 
L 2450 4666 
L 2450 531 
L 3481 531 
L 3481 0 
L 794 0 
L 794 531 
z
" id="DejaVuSans-31" transform="scale(0.015625)"/>
       </defs>
       <use xlink:href="#DejaVuSans-31"/>
       <use x="63.623047" xlink:href="#DejaVuSans-30"/>
      </g>
     </g>
    </g>
    <g id="xtick_3">
     <g id="line2d_5">
      <path clip-path="url(#pf65f197047)" d="M 178.606113 303.64 
L 178.606113 26.88 
" style="fill:none;stroke:#b0b0b0;stroke-linecap:square;stroke-width:0.8;"/>
     </g>
     <g id="line2d_6">
      <g>
       <use style="stroke:#000000;stroke-width:0.8;" x="178.606113" xlink:href="#mab1af44e98" y="303.64"/>
      </g>
     </g>
     <g id="text_3">
      <!-- 20 -->
      <g transform="translate(172.243613 318.238437)scale(0.1 -0.1)">
       <defs>
        <path d="M 1228 531 
L 3431 531 
L 3431 0 
L 469 0 
L 469 531 
Q 828 903 1448 1529 
Q 2069 2156 2228 2338 
Q 2531 2678 2651 2914 
Q 2772 3150 2772 3378 
Q 2772 3750 2511 3984 
Q 2250 4219 1831 4219 
Q 1534 4219 1204 4116 
Q 875 4013 500 3803 
L 500 4441 
Q 881 4594 1212 4672 
Q 1544 4750 1819 4750 
Q 2544 4750 2975 4387 
Q 3406 4025 3406 3419 
Q 3406 3131 3298 2873 
Q 3191 2616 2906 2266 
Q 2828 2175 2409 1742 
Q 1991 1309 1228 531 
z
" id="DejaVuSans-32" transform="scale(0.015625)"/>
       </defs>
       <use xlink:href="#DejaVuSans-32"/>
       <use x="63.623047" xlink:href="#DejaVuSans-30"/>
      </g>
     </g>
    </g>
    <g id="xtick_4">
     <g id="line2d_7">
      <path clip-path="url(#pf65f197047)" d="M 238.270306 303.64 
L 238.270306 26.88 
" style="fill:none;stroke:#b0b0b0;stroke-linecap:square;stroke-width:0.8;"/>
     </g>
     <g id="line2d_8">
      <g>
       <use style="stroke:#000000;stroke-width:0.8;" x="238.270306" xlink:href="#mab1af44e98" y="303.64"/>
      </g>
     </g>
     <g id="text_4">
      <!-- 30 -->
      <g transform="translate(231.907806 318.238437)scale(0.1 -0.1)">
       <defs>
        <path d="M 2597 2516 
Q 3050 2419 3304 2112 
Q 3559 1806 3559 1356 
Q 3559 666 3084 287 
Q 2609 -91 1734 -91 
Q 1441 -91 1130 -33 
Q 819 25 488 141 
L 488 750 
Q 750 597 1062 519 
Q 1375 441 1716 441 
Q 2309 441 2620 675 
Q 2931 909 2931 1356 
Q 2931 1769 2642 2001 
Q 2353 2234 1838 2234 
L 1294 2234 
L 1294 2753 
L 1863 2753 
Q 2328 2753 2575 2939 
Q 2822 3125 2822 3475 
Q 2822 3834 2567 4026 
Q 2313 4219 1838 4219 
Q 1578 4219 1281 4162 
Q 984 4106 628 3988 
L 628 4550 
Q 988 4650 1302 4700 
Q 1616 4750 1894 4750 
Q 2613 4750 3031 4423 
Q 3450 4097 3450 3541 
Q 3450 3153 3228 2886 
Q 3006 2619 2597 2516 
z
" id="DejaVuSans-33" transform="scale(0.015625)"/>
       </defs>
       <use xlink:href="#DejaVuSans-33"/>
       <use x="63.623047" xlink:href="#DejaVuSans-30"/>
      </g>
     </g>
    </g>
    <g id="xtick_5">
     <g id="line2d_9">
      <path clip-path="url(#pf65f197047)" d="M 297.934499 303.64 
L 297.934499 26.88 
" style="fill:none;stroke:#b0b0b0;stroke-linecap:square;stroke-width:0.8;"/>
     </g>
     <g id="line2d_10">
      <g>
       <use style="stroke:#000000;stroke-width:0.8;" x="297.934499" xlink:href="#mab1af44e98" y="303.64"/>
      </g>
     </g>
     <g id="text_5">
      <!-- 40 -->
      <g transform="translate(291.571999 318.238437)scale(0.1 -0.1)">
       <defs>
        <path d="M 2419 4116 
L 825 1625 
L 2419 1625 
L 2419 4116 
z
M 2253 4666 
L 3047 4666 
L 3047 1625 
L 3713 1625 
L 3713 1100 
L 3047 1100 
L 3047 0 
L 2419 0 
L 2419 1100 
L 313 1100 
L 313 1709 
L 2253 4666 
z
" id="DejaVuSans-34" transform="scale(0.015625)"/>
       </defs>
       <use xlink:href="#DejaVuSans-34"/>
       <use x="63.623047" xlink:href="#DejaVuSans-30"/>
      </g>
     </g>
    </g>
    <g id="xtick_6">
     <g id="line2d_11">
      <path clip-path="url(#pf65f197047)" d="M 357.598692 303.64 
L 357.598692 26.88 
" style="fill:none;stroke:#b0b0b0;stroke-linecap:square;stroke-width:0.8;"/>
     </g>
     <g id="line2d_12">
      <g>
       <use style="stroke:#000000;stroke-width:0.8;" x="357.598692" xlink:href="#mab1af44e98" y="303.64"/>
      </g>
     </g>
     <g id="text_6">
      <!-- 50 -->
      <g transform="translate(351.236192 318.238437)scale(0.1 -0.1)">
       <defs>
        <path d="M 691 4666 
L 3169 4666 
L 3169 4134 
L 1269 4134 
L 1269 2991 
Q 1406 3038 1543 3061 
Q 1681 3084 1819 3084 
Q 2600 3084 3056 2656 
Q 3513 2228 3513 1497 
Q 3513 744 3044 326 
Q 2575 -91 1722 -91 
Q 1428 -91 1123 -41 
Q 819 9 494 109 
L 494 744 
Q 775 591 1075 516 
Q 1375 441 1709 441 
Q 2250 441 2565 725 
Q 2881 1009 2881 1497 
Q 2881 1984 2565 2268 
Q 2250 2553 1709 2553 
Q 1456 2553 1204 2497 
Q 953 2441 691 2322 
L 691 4666 
z
" id="DejaVuSans-35" transform="scale(0.015625)"/>
       </defs>
       <use xlink:href="#DejaVuSans-35"/>
       <use x="63.623047" xlink:href="#DejaVuSans-30"/>
      </g>
     </g>
    </g>
    <g id="text_7">
     <!-- Global Communication Rounds -->
     <g transform="translate(128.493281 331.916562)scale(0.1 -0.1)">
      <defs>
       <path d="M 3809 666 
L 3809 1919 
L 2778 1919 
L 2778 2438 
L 4434 2438 
L 4434 434 
Q 4069 175 3628 42 
Q 3188 -91 2688 -91 
Q 1594 -91 976 548 
Q 359 1188 359 2328 
Q 359 3472 976 4111 
Q 1594 4750 2688 4750 
Q 3144 4750 3555 4637 
Q 3966 4525 4313 4306 
L 4313 3634 
Q 3963 3931 3569 4081 
Q 3175 4231 2741 4231 
Q 1884 4231 1454 3753 
Q 1025 3275 1025 2328 
Q 1025 1384 1454 906 
Q 1884 428 2741 428 
Q 3075 428 3337 486 
Q 3600 544 3809 666 
z
" id="DejaVuSans-47" transform="scale(0.015625)"/>
       <path d="M 603 4863 
L 1178 4863 
L 1178 0 
L 603 0 
L 603 4863 
z
" id="DejaVuSans-6c" transform="scale(0.015625)"/>
       <path d="M 1959 3097 
Q 1497 3097 1228 2736 
Q 959 2375 959 1747 
Q 959 1119 1226 758 
Q 1494 397 1959 397 
Q 2419 397 2687 759 
Q 2956 1122 2956 1747 
Q 2956 2369 2687 2733 
Q 2419 3097 1959 3097 
z
M 1959 3584 
Q 2709 3584 3137 3096 
Q 3566 2609 3566 1747 
Q 3566 888 3137 398 
Q 2709 -91 1959 -91 
Q 1206 -91 779 398 
Q 353 888 353 1747 
Q 353 2609 779 3096 
Q 1206 3584 1959 3584 
z
" id="DejaVuSans-6f" transform="scale(0.015625)"/>
       <path d="M 3116 1747 
Q 3116 2381 2855 2742 
Q 2594 3103 2138 3103 
Q 1681 3103 1420 2742 
Q 1159 2381 1159 1747 
Q 1159 1113 1420 752 
Q 1681 391 2138 391 
Q 2594 391 2855 752 
Q 3116 1113 3116 1747 
z
M 1159 2969 
Q 1341 3281 1617 3432 
Q 1894 3584 2278 3584 
Q 2916 3584 3314 3078 
Q 3713 2572 3713 1747 
Q 3713 922 3314 415 
Q 2916 -91 2278 -91 
Q 1894 -91 1617 61 
Q 1341 213 1159 525 
L 1159 0 
L 581 0 
L 581 4863 
L 1159 4863 
L 1159 2969 
z
" id="DejaVuSans-62" transform="scale(0.015625)"/>
       <path d="M 2194 1759 
Q 1497 1759 1228 1600 
Q 959 1441 959 1056 
Q 959 750 1161 570 
Q 1363 391 1709 391 
Q 2188 391 2477 730 
Q 2766 1069 2766 1631 
L 2766 1759 
L 2194 1759 
z
M 3341 1997 
L 3341 0 
L 2766 0 
L 2766 531 
Q 2569 213 2275 61 
Q 1981 -91 1556 -91 
Q 1019 -91 701 211 
Q 384 513 384 1019 
Q 384 1609 779 1909 
Q 1175 2209 1959 2209 
L 2766 2209 
L 2766 2266 
Q 2766 2663 2505 2880 
Q 2244 3097 1772 3097 
Q 1472 3097 1187 3025 
Q 903 2953 641 2809 
L 641 3341 
Q 956 3463 1253 3523 
Q 1550 3584 1831 3584 
Q 2591 3584 2966 3190 
Q 3341 2797 3341 1997 
z
" id="DejaVuSans-61" transform="scale(0.015625)"/>
       <path id="DejaVuSans-20" transform="scale(0.015625)"/>
       <path d="M 4122 4306 
L 4122 3641 
Q 3803 3938 3442 4084 
Q 3081 4231 2675 4231 
Q 1875 4231 1450 3742 
Q 1025 3253 1025 2328 
Q 1025 1406 1450 917 
Q 1875 428 2675 428 
Q 3081 428 3442 575 
Q 3803 722 4122 1019 
L 4122 359 
Q 3791 134 3420 21 
Q 3050 -91 2638 -91 
Q 1578 -91 968 557 
Q 359 1206 359 2328 
Q 359 3453 968 4101 
Q 1578 4750 2638 4750 
Q 3056 4750 3426 4639 
Q 3797 4528 4122 4306 
z
" id="DejaVuSans-43" transform="scale(0.015625)"/>
       <path d="M 3328 2828 
Q 3544 3216 3844 3400 
Q 4144 3584 4550 3584 
Q 5097 3584 5394 3201 
Q 5691 2819 5691 2113 
L 5691 0 
L 5113 0 
L 5113 2094 
Q 5113 2597 4934 2840 
Q 4756 3084 4391 3084 
Q 3944 3084 3684 2787 
Q 3425 2491 3425 1978 
L 3425 0 
L 2847 0 
L 2847 2094 
Q 2847 2600 2669 2842 
Q 2491 3084 2119 3084 
Q 1678 3084 1418 2786 
Q 1159 2488 1159 1978 
L 1159 0 
L 581 0 
L 581 3500 
L 1159 3500 
L 1159 2956 
Q 1356 3278 1631 3431 
Q 1906 3584 2284 3584 
Q 2666 3584 2933 3390 
Q 3200 3197 3328 2828 
z
" id="DejaVuSans-6d" transform="scale(0.015625)"/>
       <path d="M 544 1381 
L 544 3500 
L 1119 3500 
L 1119 1403 
Q 1119 906 1312 657 
Q 1506 409 1894 409 
Q 2359 409 2629 706 
Q 2900 1003 2900 1516 
L 2900 3500 
L 3475 3500 
L 3475 0 
L 2900 0 
L 2900 538 
Q 2691 219 2414 64 
Q 2138 -91 1772 -91 
Q 1169 -91 856 284 
Q 544 659 544 1381 
z
M 1991 3584 
L 1991 3584 
z
" id="DejaVuSans-75" transform="scale(0.015625)"/>
       <path d="M 3513 2113 
L 3513 0 
L 2938 0 
L 2938 2094 
Q 2938 2591 2744 2837 
Q 2550 3084 2163 3084 
Q 1697 3084 1428 2787 
Q 1159 2491 1159 1978 
L 1159 0 
L 581 0 
L 581 3500 
L 1159 3500 
L 1159 2956 
Q 1366 3272 1645 3428 
Q 1925 3584 2291 3584 
Q 2894 3584 3203 3211 
Q 3513 2838 3513 2113 
z
" id="DejaVuSans-6e" transform="scale(0.015625)"/>
       <path d="M 603 3500 
L 1178 3500 
L 1178 0 
L 603 0 
L 603 3500 
z
M 603 4863 
L 1178 4863 
L 1178 4134 
L 603 4134 
L 603 4863 
z
" id="DejaVuSans-69" transform="scale(0.015625)"/>
       <path d="M 3122 3366 
L 3122 2828 
Q 2878 2963 2633 3030 
Q 2388 3097 2138 3097 
Q 1578 3097 1268 2742 
Q 959 2388 959 1747 
Q 959 1106 1268 751 
Q 1578 397 2138 397 
Q 2388 397 2633 464 
Q 2878 531 3122 666 
L 3122 134 
Q 2881 22 2623 -34 
Q 2366 -91 2075 -91 
Q 1284 -91 818 406 
Q 353 903 353 1747 
Q 353 2603 823 3093 
Q 1294 3584 2113 3584 
Q 2378 3584 2631 3529 
Q 2884 3475 3122 3366 
z
" id="DejaVuSans-63" transform="scale(0.015625)"/>
       <path d="M 1172 4494 
L 1172 3500 
L 2356 3500 
L 2356 3053 
L 1172 3053 
L 1172 1153 
Q 1172 725 1289 603 
Q 1406 481 1766 481 
L 2356 481 
L 2356 0 
L 1766 0 
Q 1100 0 847 248 
Q 594 497 594 1153 
L 594 3053 
L 172 3053 
L 172 3500 
L 594 3500 
L 594 4494 
L 1172 4494 
z
" id="DejaVuSans-74" transform="scale(0.015625)"/>
       <path d="M 2841 2188 
Q 3044 2119 3236 1894 
Q 3428 1669 3622 1275 
L 4263 0 
L 3584 0 
L 2988 1197 
Q 2756 1666 2539 1819 
Q 2322 1972 1947 1972 
L 1259 1972 
L 1259 0 
L 628 0 
L 628 4666 
L 2053 4666 
Q 2853 4666 3247 4331 
Q 3641 3997 3641 3322 
Q 3641 2881 3436 2590 
Q 3231 2300 2841 2188 
z
M 1259 4147 
L 1259 2491 
L 2053 2491 
Q 2509 2491 2742 2702 
Q 2975 2913 2975 3322 
Q 2975 3731 2742 3939 
Q 2509 4147 2053 4147 
L 1259 4147 
z
" id="DejaVuSans-52" transform="scale(0.015625)"/>
       <path d="M 2906 2969 
L 2906 4863 
L 3481 4863 
L 3481 0 
L 2906 0 
L 2906 525 
Q 2725 213 2448 61 
Q 2172 -91 1784 -91 
Q 1150 -91 751 415 
Q 353 922 353 1747 
Q 353 2572 751 3078 
Q 1150 3584 1784 3584 
Q 2172 3584 2448 3432 
Q 2725 3281 2906 2969 
z
M 947 1747 
Q 947 1113 1208 752 
Q 1469 391 1925 391 
Q 2381 391 2643 752 
Q 2906 1113 2906 1747 
Q 2906 2381 2643 2742 
Q 2381 3103 1925 3103 
Q 1469 3103 1208 2742 
Q 947 2381 947 1747 
z
" id="DejaVuSans-64" transform="scale(0.015625)"/>
       <path d="M 2834 3397 
L 2834 2853 
Q 2591 2978 2328 3040 
Q 2066 3103 1784 3103 
Q 1356 3103 1142 2972 
Q 928 2841 928 2578 
Q 928 2378 1081 2264 
Q 1234 2150 1697 2047 
L 1894 2003 
Q 2506 1872 2764 1633 
Q 3022 1394 3022 966 
Q 3022 478 2636 193 
Q 2250 -91 1575 -91 
Q 1294 -91 989 -36 
Q 684 19 347 128 
L 347 722 
Q 666 556 975 473 
Q 1284 391 1588 391 
Q 1994 391 2212 530 
Q 2431 669 2431 922 
Q 2431 1156 2273 1281 
Q 2116 1406 1581 1522 
L 1381 1569 
Q 847 1681 609 1914 
Q 372 2147 372 2553 
Q 372 3047 722 3315 
Q 1072 3584 1716 3584 
Q 2034 3584 2315 3537 
Q 2597 3491 2834 3397 
z
" id="DejaVuSans-73" transform="scale(0.015625)"/>
      </defs>
      <use xlink:href="#DejaVuSans-47"/>
      <use x="77.490234" xlink:href="#DejaVuSans-6c"/>
      <use x="105.273438" xlink:href="#DejaVuSans-6f"/>
      <use x="166.455078" xlink:href="#DejaVuSans-62"/>
      <use x="229.931641" xlink:href="#DejaVuSans-61"/>
      <use x="291.210938" xlink:href="#DejaVuSans-6c"/>
      <use x="318.994141" xlink:href="#DejaVuSans-20"/>
      <use x="350.78125" xlink:href="#DejaVuSans-43"/>
      <use x="420.605469" xlink:href="#DejaVuSans-6f"/>
      <use x="481.787109" xlink:href="#DejaVuSans-6d"/>
      <use x="579.199219" xlink:href="#DejaVuSans-6d"/>
      <use x="676.611328" xlink:href="#DejaVuSans-75"/>
      <use x="739.990234" xlink:href="#DejaVuSans-6e"/>
      <use x="803.369141" xlink:href="#DejaVuSans-69"/>
      <use x="831.152344" xlink:href="#DejaVuSans-63"/>
      <use x="886.132812" xlink:href="#DejaVuSans-61"/>
      <use x="947.412109" xlink:href="#DejaVuSans-74"/>
      <use x="986.621094" xlink:href="#DejaVuSans-69"/>
      <use x="1014.404297" xlink:href="#DejaVuSans-6f"/>
      <use x="1075.585938" xlink:href="#DejaVuSans-6e"/>
      <use x="1138.964844" xlink:href="#DejaVuSans-20"/>
      <use x="1170.751953" xlink:href="#DejaVuSans-52"/>
      <use x="1235.734375" xlink:href="#DejaVuSans-6f"/>
      <use x="1296.916016" xlink:href="#DejaVuSans-75"/>
      <use x="1360.294922" xlink:href="#DejaVuSans-6e"/>
      <use x="1423.673828" xlink:href="#DejaVuSans-64"/>
      <use x="1487.150391" xlink:href="#DejaVuSans-73"/>
     </g>
    </g>
   </g>
   <g id="matplotlib.axis_2">
    <g id="ytick_1">
     <g id="line2d_13">
      <path clip-path="url(#pf65f197047)" d="M 44.66 303.146215 
L 366.25 303.146215 
" style="fill:none;stroke:#b0b0b0;stroke-linecap:square;stroke-width:0.8;"/>
     </g>
     <g id="line2d_14">
      <defs>
       <path d="M 0 0 
L -3.5 0 
" id="med46ad877f" style="stroke:#000000;stroke-width:0.8;"/>
      </defs>
      <g>
       <use style="stroke:#000000;stroke-width:0.8;" x="44.66" xlink:href="#med46ad877f" y="303.146215"/>
      </g>
     </g>
     <g id="text_8">
      <!-- 88 -->
      <g transform="translate(24.935 306.945434)scale(0.1 -0.1)">
       <defs>
        <path d="M 2034 2216 
Q 1584 2216 1326 1975 
Q 1069 1734 1069 1313 
Q 1069 891 1326 650 
Q 1584 409 2034 409 
Q 2484 409 2743 651 
Q 3003 894 3003 1313 
Q 3003 1734 2745 1975 
Q 2488 2216 2034 2216 
z
M 1403 2484 
Q 997 2584 770 2862 
Q 544 3141 544 3541 
Q 544 4100 942 4425 
Q 1341 4750 2034 4750 
Q 2731 4750 3128 4425 
Q 3525 4100 3525 3541 
Q 3525 3141 3298 2862 
Q 3072 2584 2669 2484 
Q 3125 2378 3379 2068 
Q 3634 1759 3634 1313 
Q 3634 634 3220 271 
Q 2806 -91 2034 -91 
Q 1263 -91 848 271 
Q 434 634 434 1313 
Q 434 1759 690 2068 
Q 947 2378 1403 2484 
z
M 1172 3481 
Q 1172 3119 1398 2916 
Q 1625 2713 2034 2713 
Q 2441 2713 2670 2916 
Q 2900 3119 2900 3481 
Q 2900 3844 2670 4047 
Q 2441 4250 2034 4250 
Q 1625 4250 1398 4047 
Q 1172 3844 1172 3481 
z
" id="DejaVuSans-38" transform="scale(0.015625)"/>
       </defs>
       <use xlink:href="#DejaVuSans-38"/>
       <use x="63.623047" xlink:href="#DejaVuSans-38"/>
      </g>
     </g>
    </g>
    <g id="ytick_2">
     <g id="line2d_15">
      <path clip-path="url(#pf65f197047)" d="M 44.66 252.274867 
L 366.25 252.274867 
" style="fill:none;stroke:#b0b0b0;stroke-linecap:square;stroke-width:0.8;"/>
     </g>
     <g id="line2d_16">
      <g>
       <use style="stroke:#000000;stroke-width:0.8;" x="44.66" xlink:href="#med46ad877f" y="252.274867"/>
      </g>
     </g>
     <g id="text_9">
      <!-- 90 -->
      <g transform="translate(24.935 256.074086)scale(0.1 -0.1)">
       <defs>
        <path d="M 703 97 
L 703 672 
Q 941 559 1184 500 
Q 1428 441 1663 441 
Q 2288 441 2617 861 
Q 2947 1281 2994 2138 
Q 2813 1869 2534 1725 
Q 2256 1581 1919 1581 
Q 1219 1581 811 2004 
Q 403 2428 403 3163 
Q 403 3881 828 4315 
Q 1253 4750 1959 4750 
Q 2769 4750 3195 4129 
Q 3622 3509 3622 2328 
Q 3622 1225 3098 567 
Q 2575 -91 1691 -91 
Q 1453 -91 1209 -44 
Q 966 3 703 97 
z
M 1959 2075 
Q 2384 2075 2632 2365 
Q 2881 2656 2881 3163 
Q 2881 3666 2632 3958 
Q 2384 4250 1959 4250 
Q 1534 4250 1286 3958 
Q 1038 3666 1038 3163 
Q 1038 2656 1286 2365 
Q 1534 2075 1959 2075 
z
" id="DejaVuSans-39" transform="scale(0.015625)"/>
       </defs>
       <use xlink:href="#DejaVuSans-39"/>
       <use x="63.623047" xlink:href="#DejaVuSans-30"/>
      </g>
     </g>
    </g>
    <g id="ytick_3">
     <g id="line2d_17">
      <path clip-path="url(#pf65f197047)" d="M 44.66 201.403519 
L 366.25 201.403519 
" style="fill:none;stroke:#b0b0b0;stroke-linecap:square;stroke-width:0.8;"/>
     </g>
     <g id="line2d_18">
      <g>
       <use style="stroke:#000000;stroke-width:0.8;" x="44.66" xlink:href="#med46ad877f" y="201.403519"/>
      </g>
     </g>
     <g id="text_10">
      <!-- 92 -->
      <g transform="translate(24.935 205.202738)scale(0.1 -0.1)">
       <use xlink:href="#DejaVuSans-39"/>
       <use x="63.623047" xlink:href="#DejaVuSans-32"/>
      </g>
     </g>
    </g>
    <g id="ytick_4">
     <g id="line2d_19">
      <path clip-path="url(#pf65f197047)" d="M 44.66 150.532171 
L 366.25 150.532171 
" style="fill:none;stroke:#b0b0b0;stroke-linecap:square;stroke-width:0.8;"/>
     </g>
     <g id="line2d_20">
      <g>
       <use style="stroke:#000000;stroke-width:0.8;" x="44.66" xlink:href="#med46ad877f" y="150.532171"/>
      </g>
     </g>
     <g id="text_11">
      <!-- 94 -->
      <g transform="translate(24.935 154.33139)scale(0.1 -0.1)">
       <use xlink:href="#DejaVuSans-39"/>
       <use x="63.623047" xlink:href="#DejaVuSans-34"/>
      </g>
     </g>
    </g>
    <g id="ytick_5">
     <g id="line2d_21">
      <path clip-path="url(#pf65f197047)" d="M 44.66 99.660824 
L 366.25 99.660824 
" style="fill:none;stroke:#b0b0b0;stroke-linecap:square;stroke-width:0.8;"/>
     </g>
     <g id="line2d_22">
      <g>
       <use style="stroke:#000000;stroke-width:0.8;" x="44.66" xlink:href="#med46ad877f" y="99.660824"/>
      </g>
     </g>
     <g id="text_12">
      <!-- 96 -->
      <g transform="translate(24.935 103.460042)scale(0.1 -0.1)">
       <defs>
        <path d="M 2113 2584 
Q 1688 2584 1439 2293 
Q 1191 2003 1191 1497 
Q 1191 994 1439 701 
Q 1688 409 2113 409 
Q 2538 409 2786 701 
Q 3034 994 3034 1497 
Q 3034 2003 2786 2293 
Q 2538 2584 2113 2584 
z
M 3366 4563 
L 3366 3988 
Q 3128 4100 2886 4159 
Q 2644 4219 2406 4219 
Q 1781 4219 1451 3797 
Q 1122 3375 1075 2522 
Q 1259 2794 1537 2939 
Q 1816 3084 2150 3084 
Q 2853 3084 3261 2657 
Q 3669 2231 3669 1497 
Q 3669 778 3244 343 
Q 2819 -91 2113 -91 
Q 1303 -91 875 529 
Q 447 1150 447 2328 
Q 447 3434 972 4092 
Q 1497 4750 2381 4750 
Q 2619 4750 2861 4703 
Q 3103 4656 3366 4563 
z
" id="DejaVuSans-36" transform="scale(0.015625)"/>
       </defs>
       <use xlink:href="#DejaVuSans-39"/>
       <use x="63.623047" xlink:href="#DejaVuSans-36"/>
      </g>
     </g>
    </g>
    <g id="ytick_6">
     <g id="line2d_23">
      <path clip-path="url(#pf65f197047)" d="M 44.66 48.789476 
L 366.25 48.789476 
" style="fill:none;stroke:#b0b0b0;stroke-linecap:square;stroke-width:0.8;"/>
     </g>
     <g id="line2d_24">
      <g>
       <use style="stroke:#000000;stroke-width:0.8;" x="44.66" xlink:href="#med46ad877f" y="48.789476"/>
      </g>
     </g>
     <g id="text_13">
      <!-- 98 -->
      <g transform="translate(24.935 52.588695)scale(0.1 -0.1)">
       <use xlink:href="#DejaVuSans-39"/>
       <use x="63.623047" xlink:href="#DejaVuSans-38"/>
      </g>
     </g>
    </g>
    <g id="text_14">
     <!-- Test Accuracy -->
     <g transform="translate(18.855312 199.5225)rotate(-90)scale(0.1 -0.1)">
      <defs>
       <path d="M -19 4666 
L 3928 4666 
L 3928 4134 
L 2272 4134 
L 2272 0 
L 1638 0 
L 1638 4134 
L -19 4134 
L -19 4666 
z
" id="DejaVuSans-54" transform="scale(0.015625)"/>
       <path d="M 3597 1894 
L 3597 1613 
L 953 1613 
Q 991 1019 1311 708 
Q 1631 397 2203 397 
Q 2534 397 2845 478 
Q 3156 559 3463 722 
L 3463 178 
Q 3153 47 2828 -22 
Q 2503 -91 2169 -91 
Q 1331 -91 842 396 
Q 353 884 353 1716 
Q 353 2575 817 3079 
Q 1281 3584 2069 3584 
Q 2775 3584 3186 3129 
Q 3597 2675 3597 1894 
z
M 3022 2063 
Q 3016 2534 2758 2815 
Q 2500 3097 2075 3097 
Q 1594 3097 1305 2825 
Q 1016 2553 972 2059 
L 3022 2063 
z
" id="DejaVuSans-65" transform="scale(0.015625)"/>
       <path d="M 2188 4044 
L 1331 1722 
L 3047 1722 
L 2188 4044 
z
M 1831 4666 
L 2547 4666 
L 4325 0 
L 3669 0 
L 3244 1197 
L 1141 1197 
L 716 0 
L 50 0 
L 1831 4666 
z
" id="DejaVuSans-41" transform="scale(0.015625)"/>
       <path d="M 2631 2963 
Q 2534 3019 2420 3045 
Q 2306 3072 2169 3072 
Q 1681 3072 1420 2755 
Q 1159 2438 1159 1844 
L 1159 0 
L 581 0 
L 581 3500 
L 1159 3500 
L 1159 2956 
Q 1341 3275 1631 3429 
Q 1922 3584 2338 3584 
Q 2397 3584 2469 3576 
Q 2541 3569 2628 3553 
L 2631 2963 
z
" id="DejaVuSans-72" transform="scale(0.015625)"/>
       <path d="M 2059 -325 
Q 1816 -950 1584 -1140 
Q 1353 -1331 966 -1331 
L 506 -1331 
L 506 -850 
L 844 -850 
Q 1081 -850 1212 -737 
Q 1344 -625 1503 -206 
L 1606 56 
L 191 3500 
L 800 3500 
L 1894 763 
L 2988 3500 
L 3597 3500 
L 2059 -325 
z
" id="DejaVuSans-79" transform="scale(0.015625)"/>
      </defs>
      <use xlink:href="#DejaVuSans-54"/>
      <use x="44.083984" xlink:href="#DejaVuSans-65"/>
      <use x="105.607422" xlink:href="#DejaVuSans-73"/>
      <use x="157.707031" xlink:href="#DejaVuSans-74"/>
      <use x="196.916016" xlink:href="#DejaVuSans-20"/>
      <use x="228.703125" xlink:href="#DejaVuSans-41"/>
      <use x="295.361328" xlink:href="#DejaVuSans-63"/>
      <use x="350.341797" xlink:href="#DejaVuSans-63"/>
      <use x="405.322266" xlink:href="#DejaVuSans-75"/>
      <use x="468.701172" xlink:href="#DejaVuSans-72"/>
      <use x="509.814453" xlink:href="#DejaVuSans-61"/>
      <use x="571.09375" xlink:href="#DejaVuSans-63"/>
      <use x="626.074219" xlink:href="#DejaVuSans-79"/>
     </g>
    </g>
   </g>
   <g id="line2d_25">
    <path clip-path="url(#pf65f197047)" d="M 59.277727 215.570224 
L 65.244147 156.327641 
L 71.210566 138.29729 
L 77.176985 136.365467 
L 83.143404 126.062409 
L 89.109824 110.607823 
L 95.076243 102.880529 
L 101.042662 99.660824 
L 107.009082 100.304765 
L 112.975501 91.93353 
L 118.94192 91.93353 
L 124.90834 84.850178 
L 130.874759 84.206237 
L 136.841178 80.34259 
L 142.807597 84.206237 
L 148.774017 80.34259 
L 154.740436 74.54712 
L 160.706855 73.259238 
L 166.673275 67.463768 
L 172.639694 68.107709 
L 178.606113 65.531945 
L 184.572532 66.819827 
L 190.538952 70.683474 
L 196.505371 70.683474 
L 202.47179 68.107709 
L 208.43821 62.312239 
L 214.404629 66.175886 
L 220.371048 62.95618 
L 226.337468 64.888004 
L 232.303887 68.75165 
L 238.270306 65.531945 
L 244.236725 59.736475 
L 250.203145 60.380416 
L 256.169564 55.872828 
L 262.135983 59.092534 
L 268.102403 55.872828 
L 274.068822 59.736475 
L 280.035241 57.16071 
L 286.00166 57.16071 
L 291.96808 53.941005 
L 297.934499 57.16071 
L 303.900918 57.804651 
L 309.867338 56.516769 
L 315.833757 50.721299 
L 321.800176 48.789476 
L 327.766596 47.501594 
L 333.733015 46.213711 
L 339.699434 48.789476 
L 345.665853 50.721299 
L 351.632273 42.994006 
" style="fill:none;stroke:#1f77b4;stroke-linecap:square;stroke-width:1.5;"/>
   </g>
   <g id="line2d_26">
    <path clip-path="url(#pf65f197047)" d="M 59.277727 232.956634 
L 65.244147 164.054935 
L 71.210566 151.176113 
L 77.176985 140.873055 
L 83.143404 127.350291 
L 89.109824 118.335116 
L 95.076243 109.31994 
L 101.042662 103.52447 
L 107.009082 104.168411 
L 112.975501 98.372941 
L 118.94192 95.797177 
L 124.90834 93.865354 
L 130.874759 95.153236 
L 136.841178 97.085059 
L 142.807597 85.494119 
L 148.774017 87.425943 
L 154.740436 88.069884 
L 160.706855 84.206237 
L 166.673275 85.494119 
L 172.639694 79.054708 
L 178.606113 77.122885 
L 184.572532 77.122885 
L 190.538952 78.410767 
L 196.505371 74.54712 
L 202.47179 74.54712 
L 208.43821 76.478944 
L 214.404629 72.615297 
L 220.371048 70.039532 
L 226.337468 77.766826 
L 232.303887 79.054708 
L 238.270306 76.478944 
L 244.236725 79.698649 
L 250.203145 71.971356 
L 256.169564 69.395591 
L 262.135983 71.327415 
L 268.102403 69.395591 
L 274.068822 69.395591 
L 280.035241 66.175886 
L 286.00166 64.888004 
L 291.96808 66.819827 
L 297.934499 65.531945 
L 303.900918 65.531945 
L 309.867338 68.75165 
L 315.833757 66.819827 
L 321.800176 66.819827 
L 327.766596 61.668298 
L 333.733015 67.463768 
L 339.699434 66.175886 
L 345.665853 67.463768 
L 351.632273 58.448592 
" style="fill:none;stroke:#ff7f0e;stroke-linecap:square;stroke-width:1.5;"/>
   </g>
   <g id="line2d_27">
    <path clip-path="url(#pf65f197047)" d="M 59.277727 218.789929 
L 65.244147 170.494346 
L 71.210566 148.600348 
L 77.176985 131.857879 
L 83.143404 129.282115 
L 89.109824 122.842704 
L 95.076243 111.251764 
L 101.042662 111.251764 
L 107.009082 102.880529 
L 112.975501 102.236588 
L 118.94192 93.221413 
L 124.90834 91.93353 
L 130.874759 87.425943 
L 136.841178 86.782001 
L 142.807597 88.713825 
L 148.774017 89.357766 
L 154.740436 79.054708 
L 160.706855 80.34259 
L 166.673275 79.698649 
L 172.639694 71.327415 
L 178.606113 77.766826 
L 184.572532 79.054708 
L 190.538952 76.478944 
L 196.505371 74.54712 
L 202.47179 73.903179 
L 208.43821 74.54712 
L 214.404629 68.107709 
L 220.371048 64.888004 
L 226.337468 64.888004 
L 232.303887 67.463768 
L 238.270306 69.395591 
L 244.236725 68.107709 
L 250.203145 64.244062 
L 256.169564 63.600121 
L 262.135983 63.600121 
L 268.102403 64.888004 
L 274.068822 64.244062 
L 280.035241 60.380416 
L 286.00166 64.244062 
L 291.96808 61.668298 
L 297.934499 61.668298 
L 303.900918 60.380416 
L 309.867338 57.16071 
L 315.833757 59.092534 
L 321.800176 57.804651 
L 327.766596 56.516769 
L 333.733015 55.228887 
L 339.699434 61.668298 
L 345.665853 60.380416 
L 351.632273 59.736475 
" style="fill:none;stroke:#2ca02c;stroke-linecap:square;stroke-width:1.5;"/>
   </g>
   <g id="line2d_28">
    <path clip-path="url(#pf65f197047)" d="M 59.277727 283.71336 
L 65.244147 224.651725 
L 71.210566 204.201443 
L 77.176985 191.636221 
L 83.143404 181.105852 
L 89.109824 173.373407 
L 95.076243 165.844447 
L 101.042662 159.994242 
L 107.009082 154.500137 
L 112.975501 148.344704 
L 118.94192 144.173253 
L 124.90834 140.714001 
L 130.874759 137.966949 
L 136.841178 134.304212 
L 142.807597 131.709773 
L 148.774017 129.217077 
L 154.740436 127.43658 
L 160.706855 124.943884 
L 166.673275 124.536913 
L 172.639694 123.722971 
L 178.606113 121.942474 
L 184.572532 120.823304 
L 190.538952 119.042807 
L 196.505371 118.127123 
L 202.47179 117.211439 
L 208.43821 116.397497 
L 214.404629 115.990526 
L 220.371048 114.922228 
L 226.337468 114.464386 
L 232.303887 112.938245 
L 238.270306 112.989117 
L 244.236725 112.429532 
L 250.203145 111.768204 
L 256.169564 111.259491 
L 262.135983 110.954263 
L 268.102403 110.547292 
L 274.068822 109.885965 
L 280.035241 109.682479 
L 286.00166 109.987707 
L 291.96808 109.072023 
L 297.934499 108.56331 
L 303.900918 108.258081 
L 309.867338 108.20721 
L 315.833757 107.901982 
L 321.800176 108.054596 
L 327.766596 107.952853 
L 333.733015 107.545883 
L 339.699434 107.596754 
L 345.665853 107.44414 
L 351.632273 107.545883 
" style="fill:none;stroke:#d62728;stroke-linecap:square;stroke-width:1.5;"/>
   </g>
   <g id="patch_3">
    <path d="M 44.66 303.64 
L 44.66 26.88 
" style="fill:none;stroke:#000000;stroke-linecap:square;stroke-linejoin:miter;stroke-width:0.8;"/>
   </g>
   <g id="patch_4">
    <path d="M 366.25 303.64 
L 366.25 26.88 
" style="fill:none;stroke:#000000;stroke-linecap:square;stroke-linejoin:miter;stroke-width:0.8;"/>
   </g>
   <g id="patch_5">
    <path d="M 44.66 303.64 
L 366.25 303.64 
" style="fill:none;stroke:#000000;stroke-linecap:square;stroke-linejoin:miter;stroke-width:0.8;"/>
   </g>
   <g id="patch_6">
    <path d="M 44.66 26.88 
L 366.25 26.88 
" style="fill:none;stroke:#000000;stroke-linecap:square;stroke-linejoin:miter;stroke-width:0.8;"/>
   </g>
   <g id="text_15">
    <!-- MNIST Local Rounds 10 -->
    <g transform="translate(135.527812 20.88)scale(0.12 -0.12)">
     <defs>
      <path d="M 628 4666 
L 1569 4666 
L 2759 1491 
L 3956 4666 
L 4897 4666 
L 4897 0 
L 4281 0 
L 4281 4097 
L 3078 897 
L 2444 897 
L 1241 4097 
L 1241 0 
L 628 0 
L 628 4666 
z
" id="DejaVuSans-4d" transform="scale(0.015625)"/>
      <path d="M 628 4666 
L 1478 4666 
L 3547 763 
L 3547 4666 
L 4159 4666 
L 4159 0 
L 3309 0 
L 1241 3903 
L 1241 0 
L 628 0 
L 628 4666 
z
" id="DejaVuSans-4e" transform="scale(0.015625)"/>
      <path d="M 628 4666 
L 1259 4666 
L 1259 0 
L 628 0 
L 628 4666 
z
" id="DejaVuSans-49" transform="scale(0.015625)"/>
      <path d="M 3425 4513 
L 3425 3897 
Q 3066 4069 2747 4153 
Q 2428 4238 2131 4238 
Q 1616 4238 1336 4038 
Q 1056 3838 1056 3469 
Q 1056 3159 1242 3001 
Q 1428 2844 1947 2747 
L 2328 2669 
Q 3034 2534 3370 2195 
Q 3706 1856 3706 1288 
Q 3706 609 3251 259 
Q 2797 -91 1919 -91 
Q 1588 -91 1214 -16 
Q 841 59 441 206 
L 441 856 
Q 825 641 1194 531 
Q 1563 422 1919 422 
Q 2459 422 2753 634 
Q 3047 847 3047 1241 
Q 3047 1584 2836 1778 
Q 2625 1972 2144 2069 
L 1759 2144 
Q 1053 2284 737 2584 
Q 422 2884 422 3419 
Q 422 4038 858 4394 
Q 1294 4750 2059 4750 
Q 2388 4750 2728 4690 
Q 3069 4631 3425 4513 
z
" id="DejaVuSans-53" transform="scale(0.015625)"/>
      <path d="M 628 4666 
L 1259 4666 
L 1259 531 
L 3531 531 
L 3531 0 
L 628 0 
L 628 4666 
z
" id="DejaVuSans-4c" transform="scale(0.015625)"/>
     </defs>
     <use xlink:href="#DejaVuSans-4d"/>
     <use x="86.279297" xlink:href="#DejaVuSans-4e"/>
     <use x="161.083984" xlink:href="#DejaVuSans-49"/>
     <use x="190.576172" xlink:href="#DejaVuSans-53"/>
     <use x="254.052734" xlink:href="#DejaVuSans-54"/>
     <use x="315.136719" xlink:href="#DejaVuSans-20"/>
     <use x="346.923828" xlink:href="#DejaVuSans-4c"/>
     <use x="400.886719" xlink:href="#DejaVuSans-6f"/>
     <use x="462.068359" xlink:href="#DejaVuSans-63"/>
     <use x="517.048828" xlink:href="#DejaVuSans-61"/>
     <use x="578.328125" xlink:href="#DejaVuSans-6c"/>
     <use x="606.111328" xlink:href="#DejaVuSans-20"/>
     <use x="637.898438" xlink:href="#DejaVuSans-52"/>
     <use x="702.880859" xlink:href="#DejaVuSans-6f"/>
     <use x="764.0625" xlink:href="#DejaVuSans-75"/>
     <use x="827.441406" xlink:href="#DejaVuSans-6e"/>
     <use x="890.820312" xlink:href="#DejaVuSans-64"/>
     <use x="954.296875" xlink:href="#DejaVuSans-73"/>
     <use x="1006.396484" xlink:href="#DejaVuSans-20"/>
     <use x="1038.183594" xlink:href="#DejaVuSans-31"/>
     <use x="1101.806641" xlink:href="#DejaVuSans-30"/>
    </g>
   </g>
   <g id="legend_1">
    <g id="patch_7">
     <path d="M 373.25 196.11625 
L 447.821875 196.11625 
Q 449.821875 196.11625 449.821875 194.11625 
L 449.821875 136.40375 
Q 449.821875 134.40375 447.821875 134.40375 
L 373.25 134.40375 
Q 371.25 134.40375 371.25 136.40375 
L 371.25 194.11625 
Q 371.25 196.11625 373.25 196.11625 
z
" style="fill:#ffffff;opacity:0.8;stroke:#cccccc;stroke-linejoin:miter;"/>
    </g>
    <g id="line2d_29">
     <path d="M 375.25 142.502187 
L 395.25 142.502187 
" style="fill:none;stroke:#1f77b4;stroke-linecap:square;stroke-width:1.5;"/>
    </g>
    <g id="line2d_30"/>
    <g id="text_16">
     <!-- FedAvg -->
     <g transform="translate(403.25 146.002187)scale(0.1 -0.1)">
      <defs>
       <path d="M 628 4666 
L 3309 4666 
L 3309 4134 
L 1259 4134 
L 1259 2759 
L 3109 2759 
L 3109 2228 
L 1259 2228 
L 1259 0 
L 628 0 
L 628 4666 
z
" id="DejaVuSans-46" transform="scale(0.015625)"/>
       <path d="M 191 3500 
L 800 3500 
L 1894 563 
L 2988 3500 
L 3597 3500 
L 2284 0 
L 1503 0 
L 191 3500 
z
" id="DejaVuSans-76" transform="scale(0.015625)"/>
       <path d="M 2906 1791 
Q 2906 2416 2648 2759 
Q 2391 3103 1925 3103 
Q 1463 3103 1205 2759 
Q 947 2416 947 1791 
Q 947 1169 1205 825 
Q 1463 481 1925 481 
Q 2391 481 2648 825 
Q 2906 1169 2906 1791 
z
M 3481 434 
Q 3481 -459 3084 -895 
Q 2688 -1331 1869 -1331 
Q 1566 -1331 1297 -1286 
Q 1028 -1241 775 -1147 
L 775 -588 
Q 1028 -725 1275 -790 
Q 1522 -856 1778 -856 
Q 2344 -856 2625 -561 
Q 2906 -266 2906 331 
L 2906 616 
Q 2728 306 2450 153 
Q 2172 0 1784 0 
Q 1141 0 747 490 
Q 353 981 353 1791 
Q 353 2603 747 3093 
Q 1141 3584 1784 3584 
Q 2172 3584 2450 3431 
Q 2728 3278 2906 2969 
L 2906 3500 
L 3481 3500 
L 3481 434 
z
" id="DejaVuSans-67" transform="scale(0.015625)"/>
      </defs>
      <use xlink:href="#DejaVuSans-46"/>
      <use x="52.019531" xlink:href="#DejaVuSans-65"/>
      <use x="113.542969" xlink:href="#DejaVuSans-64"/>
      <use x="177.019531" xlink:href="#DejaVuSans-41"/>
      <use x="239.552734" xlink:href="#DejaVuSans-76"/>
      <use x="298.732422" xlink:href="#DejaVuSans-67"/>
     </g>
    </g>
    <g id="line2d_31">
     <path d="M 375.25 157.180312 
L 395.25 157.180312 
" style="fill:none;stroke:#ff7f0e;stroke-linecap:square;stroke-width:1.5;"/>
    </g>
    <g id="line2d_32"/>
    <g id="text_17">
     <!-- FedMed -->
     <g transform="translate(403.25 160.680312)scale(0.1 -0.1)">
      <use xlink:href="#DejaVuSans-46"/>
      <use x="52.019531" xlink:href="#DejaVuSans-65"/>
      <use x="113.542969" xlink:href="#DejaVuSans-64"/>
      <use x="177.019531" xlink:href="#DejaVuSans-4d"/>
      <use x="263.298828" xlink:href="#DejaVuSans-65"/>
      <use x="324.822266" xlink:href="#DejaVuSans-64"/>
     </g>
    </g>
    <g id="line2d_33">
     <path d="M 375.25 171.858437 
L 395.25 171.858437 
" style="fill:none;stroke:#2ca02c;stroke-linecap:square;stroke-width:1.5;"/>
    </g>
    <g id="line2d_34"/>
    <g id="text_18">
     <!-- FedProx -->
     <g transform="translate(403.25 175.358437)scale(0.1 -0.1)">
      <defs>
       <path d="M 1259 4147 
L 1259 2394 
L 2053 2394 
Q 2494 2394 2734 2622 
Q 2975 2850 2975 3272 
Q 2975 3691 2734 3919 
Q 2494 4147 2053 4147 
L 1259 4147 
z
M 628 4666 
L 2053 4666 
Q 2838 4666 3239 4311 
Q 3641 3956 3641 3272 
Q 3641 2581 3239 2228 
Q 2838 1875 2053 1875 
L 1259 1875 
L 1259 0 
L 628 0 
L 628 4666 
z
" id="DejaVuSans-50" transform="scale(0.015625)"/>
       <path d="M 3513 3500 
L 2247 1797 
L 3578 0 
L 2900 0 
L 1881 1375 
L 863 0 
L 184 0 
L 1544 1831 
L 300 3500 
L 978 3500 
L 1906 2253 
L 2834 3500 
L 3513 3500 
z
" id="DejaVuSans-78" transform="scale(0.015625)"/>
      </defs>
      <use xlink:href="#DejaVuSans-46"/>
      <use x="52.019531" xlink:href="#DejaVuSans-65"/>
      <use x="113.542969" xlink:href="#DejaVuSans-64"/>
      <use x="177.019531" xlink:href="#DejaVuSans-50"/>
      <use x="235.572266" xlink:href="#DejaVuSans-72"/>
      <use x="274.435547" xlink:href="#DejaVuSans-6f"/>
      <use x="332.492188" xlink:href="#DejaVuSans-78"/>
     </g>
    </g>
    <g id="line2d_35">
     <path d="M 375.25 186.536563 
L 395.25 186.536563 
" style="fill:none;stroke:#d62728;stroke-linecap:square;stroke-width:1.5;"/>
    </g>
    <g id="line2d_36"/>
    <g id="text_19">
     <!-- qFedAvg -->
     <g transform="translate(403.25 190.036563)scale(0.1 -0.1)">
      <defs>
       <path d="M 947 1747 
Q 947 1113 1208 752 
Q 1469 391 1925 391 
Q 2381 391 2643 752 
Q 2906 1113 2906 1747 
Q 2906 2381 2643 2742 
Q 2381 3103 1925 3103 
Q 1469 3103 1208 2742 
Q 947 2381 947 1747 
z
M 2906 525 
Q 2725 213 2448 61 
Q 2172 -91 1784 -91 
Q 1150 -91 751 415 
Q 353 922 353 1747 
Q 353 2572 751 3078 
Q 1150 3584 1784 3584 
Q 2172 3584 2448 3432 
Q 2725 3281 2906 2969 
L 2906 3500 
L 3481 3500 
L 3481 -1331 
L 2906 -1331 
L 2906 525 
z
" id="DejaVuSans-71" transform="scale(0.015625)"/>
      </defs>
      <use xlink:href="#DejaVuSans-71"/>
      <use x="63.476562" xlink:href="#DejaVuSans-46"/>
      <use x="115.496094" xlink:href="#DejaVuSans-65"/>
      <use x="177.019531" xlink:href="#DejaVuSans-64"/>
      <use x="240.496094" xlink:href="#DejaVuSans-41"/>
      <use x="303.029297" xlink:href="#DejaVuSans-76"/>
      <use x="362.208984" xlink:href="#DejaVuSans-67"/>
     </g>
    </g>
   </g>
  </g>
 </g>
 <defs>
  <clipPath id="pf65f197047">
   <rect height="276.76" width="321.59" x="44.66" y="26.88"/>
  </clipPath>
 </defs>
</svg>
