<?xml version="1.0" encoding="utf-8" standalone="no"?>
<!DOCTYPE svg PUBLIC "-//W3C//DTD SVG 1.1//EN"
  "http://www.w3.org/Graphics/SVG/1.1/DTD/svg11.dtd">
<svg height="345.6pt" version="1.1" viewBox="0 0 460.8 345.6" width="460.8pt" xmlns="http://www.w3.org/2000/svg" xmlns:xlink="http://www.w3.org/1999/xlink">
 <metadata>
  <rdf:RDF xmlns:cc="http://creativecommons.org/ns#" xmlns:dc="http://purl.org/dc/elements/1.1/" xmlns:rdf="http://www.w3.org/1999/02/22-rdf-syntax-ns#">
   <cc:Work>
    <dc:type rdf:resource="http://purl.org/dc/dcmitype/StillImage"/>
    <dc:date>2021-05-07T11:37:57.846322</dc:date>
    <dc:format>image/svg+xml</dc:format>
    <dc:creator>
     <cc:Agent>
      <dc:title>Matplotlib v3.4.1, https://matplotlib.org/</dc:title>
     </cc:Agent>
    </dc:creator>
   </cc:Work>
  </rdf:RDF>
 </metadata>
 <defs>
  <style type="text/css">*{stroke-linecap:butt;stroke-linejoin:round;}</style>
 </defs>
 <g id="figure_1">
  <g id="patch_1">
   <path d="M 0 345.6 
L 460.8 345.6 
L 460.8 0 
L 0 0 
z
" style="fill:#ffffff;"/>
  </g>
  <g id="axes_1">
   <g id="patch_2">
    <path d="M 44.57 303.64 
L 450 303.64 
L 450 48.38 
L 44.57 48.38 
z
" style="fill:#ffffff;"/>
   </g>
   <g id="PolyCollection_1">
    <path clip-path="url(#pf940bf3bd5)" d="M 62.998636 202.543151 
L 62.998636 278.868728 
L 70.520529 141.377388 
L 78.042421 129.452288 
L 85.564314 121.539869 
L 93.086206 113.659303 
L 100.608098 109.24118 
L 108.129991 106.05657 
L 115.651883 101.340532 
L 123.173776 97.977159 
L 130.695668 93.67632 
L 138.21756 96.329286 
L 145.739453 93.065066 
L 153.261345 88.592008 
L 160.783237 88.94836 
L 168.30513 89.525652 
L 175.827022 84.716104 
L 183.348915 85.61583 
L 190.870807 80.783479 
L 198.392699 81.042266 
L 205.914592 81.832819 
L 213.436484 80.337247 
L 220.958377 80.18266 
L 228.480269 79.379448 
L 236.002161 81.847054 
L 243.524054 80.199847 
L 251.045946 78.624043 
L 258.567839 79.636011 
L 266.089731 77.716113 
L 273.611623 77.743419 
L 281.133516 77.304552 
L 288.655408 75.762307 
L 296.177301 75.068354 
L 303.699193 77.975953 
L 311.221085 78.453579 
L 318.742978 77.861679 
L 326.26487 73.259915 
L 333.786763 74.0972 
L 341.308655 72.952984 
L 348.830547 70.339607 
L 356.35244 71.399773 
L 363.874332 71.837177 
L 371.396224 71.449302 
L 378.918117 71.548953 
L 386.440009 70.521749 
L 393.961902 69.75059 
L 401.483794 70.476275 
L 409.005686 71.941429 
L 416.527579 68.781227 
L 424.049471 72.106272 
L 431.571364 71.981342 
L 431.571364 64.038944 
L 431.571364 64.038944 
L 424.049471 59.982727 
L 416.527579 64.430997 
L 409.005686 62.955632 
L 401.483794 66.667235 
L 393.961902 64.023246 
L 386.440009 65.498536 
L 378.918117 66.717781 
L 371.396224 64.570983 
L 363.874332 63.621496 
L 356.35244 67.428574 
L 348.830547 64.557454 
L 341.308655 68.121812 
L 333.786763 68.100821 
L 326.26487 67.814881 
L 318.742978 71.075691 
L 311.221085 71.045403 
L 303.699193 70.961417 
L 296.177301 68.814504 
L 288.655408 65.874102 
L 281.133516 74.440879 
L 273.611623 71.19395 
L 266.089731 70.098032 
L 258.567839 73.232645 
L 251.045946 73.121388 
L 243.524054 73.230421 
L 236.002161 71.583214 
L 228.480269 73.489208 
L 220.958377 76.055669 
L 213.436484 77.58592 
L 205.914592 75.528736 
L 198.392699 74.07284 
L 190.870807 74.893239 
L 183.348915 77.361848 
L 175.827022 74.8919 
L 168.30513 80.752987 
L 160.783237 81.330279 
L 153.261345 82.809855 
L 145.739453 86.760983 
L 138.21756 85.181599 
L 130.695668 87.272954 
L 123.173776 93.081136 
L 115.651883 95.895499 
L 108.129991 99.042034 
L 100.608098 105.966446 
L 93.086206 106.041222 
L 85.564314 113.324189 
L 78.042421 122.260141 
L 70.520529 136.169209 
L 62.998636 202.543151 
z
" style="fill:#1f77b4;fill-opacity:0.5;"/>
   </g>
   <g id="PolyCollection_2">
    <path clip-path="url(#pf940bf3bd5)" d="M 62.998636 202.29169 
L 62.998636 292.037273 
L 70.520529 167.645002 
L 78.042421 129.740031 
L 85.564314 128.763316 
L 93.086206 117.554347 
L 100.608098 110.861818 
L 108.129991 108.499839 
L 115.651883 103.272613 
L 123.173776 102.177817 
L 130.695668 97.399851 
L 138.21756 98.675483 
L 145.739453 98.52939 
L 153.261345 96.330091 
L 160.783237 92.44963 
L 168.30513 93.459252 
L 175.827022 89.553605 
L 183.348915 88.611937 
L 190.870807 87.115747 
L 198.392699 90.65119 
L 205.914592 89.298449 
L 213.436484 90.271239 
L 220.958377 86.598961 
L 228.480269 85.23836 
L 236.002161 91.914981 
L 243.524054 83.790899 
L 251.045946 83.363804 
L 258.567839 85.329447 
L 266.089731 82.695078 
L 273.611623 83.196996 
L 281.133516 83.007909 
L 288.655408 81.928205 
L 296.177301 80.613875 
L 303.699193 80.084808 
L 311.221085 82.557657 
L 318.742978 80.167823 
L 326.26487 82.227005 
L 333.786763 80.419222 
L 341.308655 82.125286 
L 348.830547 80.349966 
L 356.35244 77.276746 
L 363.874332 80.962057 
L 371.396224 79.823958 
L 378.918117 83.095063 
L 386.440009 80.782138 
L 393.961902 80.66974 
L 401.483794 80.280069 
L 409.005686 79.962562 
L 416.527579 78.482986 
L 424.049471 79.151711 
L 431.571364 81.46873 
L 431.571364 73.646375 
L 431.571364 73.646375 
L 424.049471 73.155332 
L 416.527579 72.700833 
L 409.005686 72.344481 
L 401.483794 74.835036 
L 393.961902 73.883752 
L 386.440009 76.579416 
L 378.918117 73.143267 
L 371.396224 75.852759 
L 363.874332 76.399497 
L 356.35244 76.153522 
L 348.830547 75.326752 
L 341.308655 74.674656 
L 333.786763 73.011046 
L 326.26487 74.011325 
L 318.742978 74.38567 
L 311.221085 75.36551 
L 303.699193 76.715134 
L 296.177301 73.378006 
L 288.655408 74.310125 
L 281.133516 76.038483 
L 273.611623 76.411008 
L 266.089731 76.912925 
L 258.567839 79.333068 
L 251.045946 77.367425 
L 243.524054 78.063554 
L 236.002161 76.67882 
L 228.480269 77.177706 
L 220.958377 80.871616 
L 213.436484 80.007399 
L 205.914592 80.418578 
L 198.392699 82.43551 
L 190.870807 79.793218 
L 183.348915 83.913151 
L 175.827022 79.601809 
L 168.30513 85.243572 
L 160.783237 84.006745 
L 153.261345 86.865631 
L 145.739453 89.720844 
L 138.21756 89.013139 
L 130.695668 90.850382 
L 123.173776 96.181438 
L 115.651883 96.77148 
L 108.129991 101.091664 
L 100.608098 106.030646 
L 93.086206 107.762301 
L 85.564314 120.702663 
L 78.042421 126.465296 
L 70.520529 132.366089 
L 62.998636 202.29169 
z
" style="fill:#ff7f0e;fill-opacity:0.5;"/>
   </g>
   <g id="PolyCollection_3">
    <path clip-path="url(#pf940bf3bd5)" d="M 62.998636 189.341615 
L 62.998636 253.880624 
L 70.520529 152.929611 
L 78.042421 136.879704 
L 85.564314 116.486625 
L 93.086206 119.817449 
L 100.608098 109.498122 
L 108.129991 107.125617 
L 115.651883 105.701343 
L 123.173776 99.294667 
L 130.695668 96.137304 
L 138.21756 96.844552 
L 145.739453 88.84541 
L 153.261345 94.904744 
L 160.783237 92.080229 
L 168.30513 92.689788 
L 175.827022 87.409088 
L 183.348915 85.230456 
L 190.870807 84.79739 
L 198.392699 85.420125 
L 205.914592 84.715301 
L 213.436484 82.564933 
L 220.958377 79.443952 
L 228.480269 80.280069 
L 236.002161 81.832819 
L 243.524054 83.49254 
L 251.045946 81.603878 
L 258.567839 85.747518 
L 266.089731 81.908042 
L 273.611623 77.529185 
L 281.133516 78.783721 
L 288.655408 78.419927 
L 296.177301 78.569108 
L 303.699193 77.33992 
L 311.221085 79.840823 
L 318.742978 76.322658 
L 326.26487 77.74768 
L 333.786763 74.918627 
L 341.308655 75.209502 
L 348.830547 73.578796 
L 356.35244 74.019887 
L 363.874332 73.941903 
L 371.396224 74.663946 
L 378.918117 72.257066 
L 386.440009 73.399068 
L 393.961902 73.075438 
L 401.483794 72.602082 
L 409.005686 71.211826 
L 416.527579 73.606157 
L 424.049471 72.821905 
L 431.571364 69.810019 
L 431.571364 62.840593 
L 431.571364 62.840593 
L 424.049471 66.568054 
L 416.527579 65.783802 
L 409.005686 64.80846 
L 401.483794 64.541428 
L 393.961902 65.752909 
L 386.440009 65.990892 
L 378.918117 67.694506 
L 371.396224 69.218912 
L 363.874332 69.379343 
L 356.35244 67.616521 
L 348.830547 70.304062 
L 341.308655 67.550131 
L 333.786763 70.087455 
L 326.26487 71.751301 
L 318.742978 71.491486 
L 311.221085 69.096546 
L 303.699193 71.035837 
L 296.177301 73.737936 
L 288.655408 74.448728 
L 281.133516 74.084935 
L 273.611623 74.777858 
L 266.089731 72.083838 
L 258.567839 75.545323 
L 251.045946 74.634452 
L 243.524054 77.238689 
L 236.002161 75.528736 
L 228.480269 74.835036 
L 220.958377 74.547929 
L 213.436484 75.919846 
L 205.914592 77.700765 
L 198.392699 77.557553 
L 190.870807 80.98835 
L 183.348915 81.678508 
L 175.827022 80.623101 
L 168.30513 82.643361 
L 160.783237 87.184207 
L 153.261345 84.921304 
L 145.739453 83.118065 
L 138.21756 88.036007 
L 130.695668 87.620031 
L 123.173776 92.325241 
L 115.651883 99.397261 
L 108.129991 98.5346 
L 100.608098 105.147892 
L 93.086206 106.060812 
L 85.564314 112.76131 
L 78.042421 118.202399 
L 70.520529 139.218907 
L 62.998636 189.341615 
z
" style="fill:#2ca02c;fill-opacity:0.5;"/>
   </g>
   <g id="PolyCollection_4">
    <path clip-path="url(#pf940bf3bd5)" d="M 62.998636 188.834759 
L 62.998636 290.774344 
L 70.520529 155.860597 
L 78.042421 140.485768 
L 85.564314 130.194839 
L 93.086206 124.732767 
L 100.608098 118.783443 
L 108.129991 114.818582 
L 115.651883 110.948305 
L 123.173776 107.561731 
L 130.695668 105.894848 
L 138.21756 105.897281 
L 145.739453 103.011361 
L 153.261345 100.442181 
L 160.783237 99.124081 
L 168.30513 99.444236 
L 175.827022 97.362212 
L 183.348915 97.062741 
L 190.870807 96.364827 
L 198.392699 95.548674 
L 205.914592 94.700218 
L 213.436484 94.417518 
L 220.958377 94.060085 
L 228.480269 93.951551 
L 236.002161 94.480473 
L 243.524054 94.685084 
L 251.045946 93.615248 
L 258.567839 92.767232 
L 266.089731 92.88926 
L 273.611623 93.150245 
L 281.133516 92.740834 
L 288.655408 92.55264 
L 296.177301 92.309957 
L 303.699193 92.286332 
L 311.221085 92.384531 
L 318.742978 91.961832 
L 326.26487 92.911856 
L 333.786763 92.216477 
L 341.308655 92.686235 
L 348.830547 92.279804 
L 356.35244 92.002774 
L 363.874332 92.012297 
L 371.396224 92.276817 
L 378.918117 92.211231 
L 386.440009 91.954203 
L 393.961902 92.2216 
L 401.483794 91.788013 
L 409.005686 91.775213 
L 416.527579 91.371184 
L 424.049471 91.672184 
L 431.571364 91.795551 
L 431.571364 89.176748 
L 431.571364 89.176748 
L 424.049471 89.033911 
L 416.527579 89.246176 
L 409.005686 88.709045 
L 401.483794 89.184287 
L 393.961902 89.23874 
L 386.440009 89.195566 
L 378.918117 89.027273 
L 371.396224 89.272258 
L 363.874332 89.625513 
L 356.35244 88.969525 
L 348.830547 89.535475 
L 341.308655 89.52835 
L 333.786763 89.820639 
L 326.26487 89.702036 
L 318.742978 90.119651 
L 311.221085 89.519483 
L 303.699193 89.750784 
L 296.177301 89.815894 
L 288.655408 90.238721 
L 281.133516 91.159712 
L 273.611623 89.552382 
L 266.089731 89.769 
L 258.567839 90.334702 
L 251.045946 90.329665 
L 243.524054 91.43383 
L 236.002161 90.573624 
L 228.480269 90.836342 
L 220.958377 91.348952 
L 213.436484 91.878866 
L 205.914592 91.152492 
L 198.392699 92.78861 
L 190.870807 93.880254 
L 183.348915 93.537279 
L 175.827022 94.568829 
L 168.30513 94.793908 
L 160.783237 96.445085 
L 153.261345 97.789027 
L 145.739453 98.369931 
L 138.21756 99.876381 
L 130.695668 101.786611 
L 123.173776 105.887487 
L 115.651883 106.183406 
L 108.129991 109.056969 
L 100.608098 113.921216 
L 93.086206 119.418674 
L 85.564314 125.802692 
L 78.042421 138.449697 
L 70.520529 147.476924 
L 62.998636 188.834759 
z
" style="fill:#d62728;fill-opacity:0.5;"/>
   </g>
   <g id="matplotlib.axis_1">
    <g id="xtick_1">
     <g id="line2d_1">
      <defs>
       <path d="M 0 0 
L 0 3.5 
" id="m58601142ca" style="stroke:#000000;stroke-width:0.8;"/>
      </defs>
      <g>
       <use style="stroke:#000000;stroke-width:0.8;" x="62.998636" xlink:href="#m58601142ca" y="303.64"/>
      </g>
     </g>
     <g id="text_1">
      <!-- 0 -->
      <g transform="translate(59.817386 318.238437)scale(0.1 -0.1)">
       <defs>
        <path d="M 2034 4250 
Q 1547 4250 1301 3770 
Q 1056 3291 1056 2328 
Q 1056 1369 1301 889 
Q 1547 409 2034 409 
Q 2525 409 2770 889 
Q 3016 1369 3016 2328 
Q 3016 3291 2770 3770 
Q 2525 4250 2034 4250 
z
M 2034 4750 
Q 2819 4750 3233 4129 
Q 3647 3509 3647 2328 
Q 3647 1150 3233 529 
Q 2819 -91 2034 -91 
Q 1250 -91 836 529 
Q 422 1150 422 2328 
Q 422 3509 836 4129 
Q 1250 4750 2034 4750 
z
" id="DejaVuSans-30" transform="scale(0.015625)"/>
       </defs>
       <use xlink:href="#DejaVuSans-30"/>
      </g>
     </g>
    </g>
    <g id="xtick_2">
     <g id="line2d_2">
      <g>
       <use style="stroke:#000000;stroke-width:0.8;" x="138.21756" xlink:href="#m58601142ca" y="303.64"/>
      </g>
     </g>
     <g id="text_2">
      <!-- 10 -->
      <g transform="translate(131.85506 318.238437)scale(0.1 -0.1)">
       <defs>
        <path d="M 794 531 
L 1825 531 
L 1825 4091 
L 703 3866 
L 703 4441 
L 1819 4666 
L 2450 4666 
L 2450 531 
L 3481 531 
L 3481 0 
L 794 0 
L 794 531 
z
" id="DejaVuSans-31" transform="scale(0.015625)"/>
       </defs>
       <use xlink:href="#DejaVuSans-31"/>
       <use x="63.623047" xlink:href="#DejaVuSans-30"/>
      </g>
     </g>
    </g>
    <g id="xtick_3">
     <g id="line2d_3">
      <g>
       <use style="stroke:#000000;stroke-width:0.8;" x="213.436484" xlink:href="#m58601142ca" y="303.64"/>
      </g>
     </g>
     <g id="text_3">
      <!-- 20 -->
      <g transform="translate(207.073984 318.238437)scale(0.1 -0.1)">
       <defs>
        <path d="M 1228 531 
L 3431 531 
L 3431 0 
L 469 0 
L 469 531 
Q 828 903 1448 1529 
Q 2069 2156 2228 2338 
Q 2531 2678 2651 2914 
Q 2772 3150 2772 3378 
Q 2772 3750 2511 3984 
Q 2250 4219 1831 4219 
Q 1534 4219 1204 4116 
Q 875 4013 500 3803 
L 500 4441 
Q 881 4594 1212 4672 
Q 1544 4750 1819 4750 
Q 2544 4750 2975 4387 
Q 3406 4025 3406 3419 
Q 3406 3131 3298 2873 
Q 3191 2616 2906 2266 
Q 2828 2175 2409 1742 
Q 1991 1309 1228 531 
z
" id="DejaVuSans-32" transform="scale(0.015625)"/>
       </defs>
       <use xlink:href="#DejaVuSans-32"/>
       <use x="63.623047" xlink:href="#DejaVuSans-30"/>
      </g>
     </g>
    </g>
    <g id="xtick_4">
     <g id="line2d_4">
      <g>
       <use style="stroke:#000000;stroke-width:0.8;" x="288.655408" xlink:href="#m58601142ca" y="303.64"/>
      </g>
     </g>
     <g id="text_4">
      <!-- 30 -->
      <g transform="translate(282.292908 318.238437)scale(0.1 -0.1)">
       <defs>
        <path d="M 2597 2516 
Q 3050 2419 3304 2112 
Q 3559 1806 3559 1356 
Q 3559 666 3084 287 
Q 2609 -91 1734 -91 
Q 1441 -91 1130 -33 
Q 819 25 488 141 
L 488 750 
Q 750 597 1062 519 
Q 1375 441 1716 441 
Q 2309 441 2620 675 
Q 2931 909 2931 1356 
Q 2931 1769 2642 2001 
Q 2353 2234 1838 2234 
L 1294 2234 
L 1294 2753 
L 1863 2753 
Q 2328 2753 2575 2939 
Q 2822 3125 2822 3475 
Q 2822 3834 2567 4026 
Q 2313 4219 1838 4219 
Q 1578 4219 1281 4162 
Q 984 4106 628 3988 
L 628 4550 
Q 988 4650 1302 4700 
Q 1616 4750 1894 4750 
Q 2613 4750 3031 4423 
Q 3450 4097 3450 3541 
Q 3450 3153 3228 2886 
Q 3006 2619 2597 2516 
z
" id="DejaVuSans-33" transform="scale(0.015625)"/>
       </defs>
       <use xlink:href="#DejaVuSans-33"/>
       <use x="63.623047" xlink:href="#DejaVuSans-30"/>
      </g>
     </g>
    </g>
    <g id="xtick_5">
     <g id="line2d_5">
      <g>
       <use style="stroke:#000000;stroke-width:0.8;" x="363.874332" xlink:href="#m58601142ca" y="303.64"/>
      </g>
     </g>
     <g id="text_5">
      <!-- 40 -->
      <g transform="translate(357.511832 318.238437)scale(0.1 -0.1)">
       <defs>
        <path d="M 2419 4116 
L 825 1625 
L 2419 1625 
L 2419 4116 
z
M 2253 4666 
L 3047 4666 
L 3047 1625 
L 3713 1625 
L 3713 1100 
L 3047 1100 
L 3047 0 
L 2419 0 
L 2419 1100 
L 313 1100 
L 313 1709 
L 2253 4666 
z
" id="DejaVuSans-34" transform="scale(0.015625)"/>
       </defs>
       <use xlink:href="#DejaVuSans-34"/>
       <use x="63.623047" xlink:href="#DejaVuSans-30"/>
      </g>
     </g>
    </g>
    <g id="xtick_6">
     <g id="line2d_6">
      <g>
       <use style="stroke:#000000;stroke-width:0.8;" x="439.093256" xlink:href="#m58601142ca" y="303.64"/>
      </g>
     </g>
     <g id="text_6">
      <!-- 50 -->
      <g transform="translate(432.730756 318.238437)scale(0.1 -0.1)">
       <defs>
        <path d="M 691 4666 
L 3169 4666 
L 3169 4134 
L 1269 4134 
L 1269 2991 
Q 1406 3038 1543 3061 
Q 1681 3084 1819 3084 
Q 2600 3084 3056 2656 
Q 3513 2228 3513 1497 
Q 3513 744 3044 326 
Q 2575 -91 1722 -91 
Q 1428 -91 1123 -41 
Q 819 9 494 109 
L 494 744 
Q 775 591 1075 516 
Q 1375 441 1709 441 
Q 2250 441 2565 725 
Q 2881 1009 2881 1497 
Q 2881 1984 2565 2268 
Q 2250 2553 1709 2553 
Q 1456 2553 1204 2497 
Q 953 2441 691 2322 
L 691 4666 
z
" id="DejaVuSans-35" transform="scale(0.015625)"/>
       </defs>
       <use xlink:href="#DejaVuSans-35"/>
       <use x="63.623047" xlink:href="#DejaVuSans-30"/>
      </g>
     </g>
    </g>
    <g id="text_7">
     <!-- Global Communication Rounds -->
     <g transform="translate(170.323281 331.916562)scale(0.1 -0.1)">
      <defs>
       <path d="M 3809 666 
L 3809 1919 
L 2778 1919 
L 2778 2438 
L 4434 2438 
L 4434 434 
Q 4069 175 3628 42 
Q 3188 -91 2688 -91 
Q 1594 -91 976 548 
Q 359 1188 359 2328 
Q 359 3472 976 4111 
Q 1594 4750 2688 4750 
Q 3144 4750 3555 4637 
Q 3966 4525 4313 4306 
L 4313 3634 
Q 3963 3931 3569 4081 
Q 3175 4231 2741 4231 
Q 1884 4231 1454 3753 
Q 1025 3275 1025 2328 
Q 1025 1384 1454 906 
Q 1884 428 2741 428 
Q 3075 428 3337 486 
Q 3600 544 3809 666 
z
" id="DejaVuSans-47" transform="scale(0.015625)"/>
       <path d="M 603 4863 
L 1178 4863 
L 1178 0 
L 603 0 
L 603 4863 
z
" id="DejaVuSans-6c" transform="scale(0.015625)"/>
       <path d="M 1959 3097 
Q 1497 3097 1228 2736 
Q 959 2375 959 1747 
Q 959 1119 1226 758 
Q 1494 397 1959 397 
Q 2419 397 2687 759 
Q 2956 1122 2956 1747 
Q 2956 2369 2687 2733 
Q 2419 3097 1959 3097 
z
M 1959 3584 
Q 2709 3584 3137 3096 
Q 3566 2609 3566 1747 
Q 3566 888 3137 398 
Q 2709 -91 1959 -91 
Q 1206 -91 779 398 
Q 353 888 353 1747 
Q 353 2609 779 3096 
Q 1206 3584 1959 3584 
z
" id="DejaVuSans-6f" transform="scale(0.015625)"/>
       <path d="M 3116 1747 
Q 3116 2381 2855 2742 
Q 2594 3103 2138 3103 
Q 1681 3103 1420 2742 
Q 1159 2381 1159 1747 
Q 1159 1113 1420 752 
Q 1681 391 2138 391 
Q 2594 391 2855 752 
Q 3116 1113 3116 1747 
z
M 1159 2969 
Q 1341 3281 1617 3432 
Q 1894 3584 2278 3584 
Q 2916 3584 3314 3078 
Q 3713 2572 3713 1747 
Q 3713 922 3314 415 
Q 2916 -91 2278 -91 
Q 1894 -91 1617 61 
Q 1341 213 1159 525 
L 1159 0 
L 581 0 
L 581 4863 
L 1159 4863 
L 1159 2969 
z
" id="DejaVuSans-62" transform="scale(0.015625)"/>
       <path d="M 2194 1759 
Q 1497 1759 1228 1600 
Q 959 1441 959 1056 
Q 959 750 1161 570 
Q 1363 391 1709 391 
Q 2188 391 2477 730 
Q 2766 1069 2766 1631 
L 2766 1759 
L 2194 1759 
z
M 3341 1997 
L 3341 0 
L 2766 0 
L 2766 531 
Q 2569 213 2275 61 
Q 1981 -91 1556 -91 
Q 1019 -91 701 211 
Q 384 513 384 1019 
Q 384 1609 779 1909 
Q 1175 2209 1959 2209 
L 2766 2209 
L 2766 2266 
Q 2766 2663 2505 2880 
Q 2244 3097 1772 3097 
Q 1472 3097 1187 3025 
Q 903 2953 641 2809 
L 641 3341 
Q 956 3463 1253 3523 
Q 1550 3584 1831 3584 
Q 2591 3584 2966 3190 
Q 3341 2797 3341 1997 
z
" id="DejaVuSans-61" transform="scale(0.015625)"/>
       <path id="DejaVuSans-20" transform="scale(0.015625)"/>
       <path d="M 4122 4306 
L 4122 3641 
Q 3803 3938 3442 4084 
Q 3081 4231 2675 4231 
Q 1875 4231 1450 3742 
Q 1025 3253 1025 2328 
Q 1025 1406 1450 917 
Q 1875 428 2675 428 
Q 3081 428 3442 575 
Q 3803 722 4122 1019 
L 4122 359 
Q 3791 134 3420 21 
Q 3050 -91 2638 -91 
Q 1578 -91 968 557 
Q 359 1206 359 2328 
Q 359 3453 968 4101 
Q 1578 4750 2638 4750 
Q 3056 4750 3426 4639 
Q 3797 4528 4122 4306 
z
" id="DejaVuSans-43" transform="scale(0.015625)"/>
       <path d="M 3328 2828 
Q 3544 3216 3844 3400 
Q 4144 3584 4550 3584 
Q 5097 3584 5394 3201 
Q 5691 2819 5691 2113 
L 5691 0 
L 5113 0 
L 5113 2094 
Q 5113 2597 4934 2840 
Q 4756 3084 4391 3084 
Q 3944 3084 3684 2787 
Q 3425 2491 3425 1978 
L 3425 0 
L 2847 0 
L 2847 2094 
Q 2847 2600 2669 2842 
Q 2491 3084 2119 3084 
Q 1678 3084 1418 2786 
Q 1159 2488 1159 1978 
L 1159 0 
L 581 0 
L 581 3500 
L 1159 3500 
L 1159 2956 
Q 1356 3278 1631 3431 
Q 1906 3584 2284 3584 
Q 2666 3584 2933 3390 
Q 3200 3197 3328 2828 
z
" id="DejaVuSans-6d" transform="scale(0.015625)"/>
       <path d="M 544 1381 
L 544 3500 
L 1119 3500 
L 1119 1403 
Q 1119 906 1312 657 
Q 1506 409 1894 409 
Q 2359 409 2629 706 
Q 2900 1003 2900 1516 
L 2900 3500 
L 3475 3500 
L 3475 0 
L 2900 0 
L 2900 538 
Q 2691 219 2414 64 
Q 2138 -91 1772 -91 
Q 1169 -91 856 284 
Q 544 659 544 1381 
z
M 1991 3584 
L 1991 3584 
z
" id="DejaVuSans-75" transform="scale(0.015625)"/>
       <path d="M 3513 2113 
L 3513 0 
L 2938 0 
L 2938 2094 
Q 2938 2591 2744 2837 
Q 2550 3084 2163 3084 
Q 1697 3084 1428 2787 
Q 1159 2491 1159 1978 
L 1159 0 
L 581 0 
L 581 3500 
L 1159 3500 
L 1159 2956 
Q 1366 3272 1645 3428 
Q 1925 3584 2291 3584 
Q 2894 3584 3203 3211 
Q 3513 2838 3513 2113 
z
" id="DejaVuSans-6e" transform="scale(0.015625)"/>
       <path d="M 603 3500 
L 1178 3500 
L 1178 0 
L 603 0 
L 603 3500 
z
M 603 4863 
L 1178 4863 
L 1178 4134 
L 603 4134 
L 603 4863 
z
" id="DejaVuSans-69" transform="scale(0.015625)"/>
       <path d="M 3122 3366 
L 3122 2828 
Q 2878 2963 2633 3030 
Q 2388 3097 2138 3097 
Q 1578 3097 1268 2742 
Q 959 2388 959 1747 
Q 959 1106 1268 751 
Q 1578 397 2138 397 
Q 2388 397 2633 464 
Q 2878 531 3122 666 
L 3122 134 
Q 2881 22 2623 -34 
Q 2366 -91 2075 -91 
Q 1284 -91 818 406 
Q 353 903 353 1747 
Q 353 2603 823 3093 
Q 1294 3584 2113 3584 
Q 2378 3584 2631 3529 
Q 2884 3475 3122 3366 
z
" id="DejaVuSans-63" transform="scale(0.015625)"/>
       <path d="M 1172 4494 
L 1172 3500 
L 2356 3500 
L 2356 3053 
L 1172 3053 
L 1172 1153 
Q 1172 725 1289 603 
Q 1406 481 1766 481 
L 2356 481 
L 2356 0 
L 1766 0 
Q 1100 0 847 248 
Q 594 497 594 1153 
L 594 3053 
L 172 3053 
L 172 3500 
L 594 3500 
L 594 4494 
L 1172 4494 
z
" id="DejaVuSans-74" transform="scale(0.015625)"/>
       <path d="M 2841 2188 
Q 3044 2119 3236 1894 
Q 3428 1669 3622 1275 
L 4263 0 
L 3584 0 
L 2988 1197 
Q 2756 1666 2539 1819 
Q 2322 1972 1947 1972 
L 1259 1972 
L 1259 0 
L 628 0 
L 628 4666 
L 2053 4666 
Q 2853 4666 3247 4331 
Q 3641 3997 3641 3322 
Q 3641 2881 3436 2590 
Q 3231 2300 2841 2188 
z
M 1259 4147 
L 1259 2491 
L 2053 2491 
Q 2509 2491 2742 2702 
Q 2975 2913 2975 3322 
Q 2975 3731 2742 3939 
Q 2509 4147 2053 4147 
L 1259 4147 
z
" id="DejaVuSans-52" transform="scale(0.015625)"/>
       <path d="M 2906 2969 
L 2906 4863 
L 3481 4863 
L 3481 0 
L 2906 0 
L 2906 525 
Q 2725 213 2448 61 
Q 2172 -91 1784 -91 
Q 1150 -91 751 415 
Q 353 922 353 1747 
Q 353 2572 751 3078 
Q 1150 3584 1784 3584 
Q 2172 3584 2448 3432 
Q 2725 3281 2906 2969 
z
M 947 1747 
Q 947 1113 1208 752 
Q 1469 391 1925 391 
Q 2381 391 2643 752 
Q 2906 1113 2906 1747 
Q 2906 2381 2643 2742 
Q 2381 3103 1925 3103 
Q 1469 3103 1208 2742 
Q 947 2381 947 1747 
z
" id="DejaVuSans-64" transform="scale(0.015625)"/>
       <path d="M 2834 3397 
L 2834 2853 
Q 2591 2978 2328 3040 
Q 2066 3103 1784 3103 
Q 1356 3103 1142 2972 
Q 928 2841 928 2578 
Q 928 2378 1081 2264 
Q 1234 2150 1697 2047 
L 1894 2003 
Q 2506 1872 2764 1633 
Q 3022 1394 3022 966 
Q 3022 478 2636 193 
Q 2250 -91 1575 -91 
Q 1294 -91 989 -36 
Q 684 19 347 128 
L 347 722 
Q 666 556 975 473 
Q 1284 391 1588 391 
Q 1994 391 2212 530 
Q 2431 669 2431 922 
Q 2431 1156 2273 1281 
Q 2116 1406 1581 1522 
L 1381 1569 
Q 847 1681 609 1914 
Q 372 2147 372 2553 
Q 372 3047 722 3315 
Q 1072 3584 1716 3584 
Q 2034 3584 2315 3537 
Q 2597 3491 2834 3397 
z
" id="DejaVuSans-73" transform="scale(0.015625)"/>
      </defs>
      <use xlink:href="#DejaVuSans-47"/>
      <use x="77.490234" xlink:href="#DejaVuSans-6c"/>
      <use x="105.273438" xlink:href="#DejaVuSans-6f"/>
      <use x="166.455078" xlink:href="#DejaVuSans-62"/>
      <use x="229.931641" xlink:href="#DejaVuSans-61"/>
      <use x="291.210938" xlink:href="#DejaVuSans-6c"/>
      <use x="318.994141" xlink:href="#DejaVuSans-20"/>
      <use x="350.78125" xlink:href="#DejaVuSans-43"/>
      <use x="420.605469" xlink:href="#DejaVuSans-6f"/>
      <use x="481.787109" xlink:href="#DejaVuSans-6d"/>
      <use x="579.199219" xlink:href="#DejaVuSans-6d"/>
      <use x="676.611328" xlink:href="#DejaVuSans-75"/>
      <use x="739.990234" xlink:href="#DejaVuSans-6e"/>
      <use x="803.369141" xlink:href="#DejaVuSans-69"/>
      <use x="831.152344" xlink:href="#DejaVuSans-63"/>
      <use x="886.132812" xlink:href="#DejaVuSans-61"/>
      <use x="947.412109" xlink:href="#DejaVuSans-74"/>
      <use x="986.621094" xlink:href="#DejaVuSans-69"/>
      <use x="1014.404297" xlink:href="#DejaVuSans-6f"/>
      <use x="1075.585938" xlink:href="#DejaVuSans-6e"/>
      <use x="1138.964844" xlink:href="#DejaVuSans-20"/>
      <use x="1170.751953" xlink:href="#DejaVuSans-52"/>
      <use x="1235.734375" xlink:href="#DejaVuSans-6f"/>
      <use x="1296.916016" xlink:href="#DejaVuSans-75"/>
      <use x="1360.294922" xlink:href="#DejaVuSans-6e"/>
      <use x="1423.673828" xlink:href="#DejaVuSans-64"/>
      <use x="1487.150391" xlink:href="#DejaVuSans-73"/>
     </g>
    </g>
   </g>
   <g id="matplotlib.axis_2">
    <g id="ytick_1">
     <g id="line2d_7">
      <defs>
       <path d="M 0 0 
L -3.5 0 
" id="m33411a8afd" style="stroke:#000000;stroke-width:0.8;"/>
      </defs>
      <g>
       <use style="stroke:#000000;stroke-width:0.8;" x="44.57" xlink:href="#m33411a8afd" y="261.766402"/>
      </g>
     </g>
     <g id="text_8">
      <!-- 80 -->
      <g transform="translate(24.845 265.565621)scale(0.1 -0.1)">
       <defs>
        <path d="M 2034 2216 
Q 1584 2216 1326 1975 
Q 1069 1734 1069 1313 
Q 1069 891 1326 650 
Q 1584 409 2034 409 
Q 2484 409 2743 651 
Q 3003 894 3003 1313 
Q 3003 1734 2745 1975 
Q 2488 2216 2034 2216 
z
M 1403 2484 
Q 997 2584 770 2862 
Q 544 3141 544 3541 
Q 544 4100 942 4425 
Q 1341 4750 2034 4750 
Q 2731 4750 3128 4425 
Q 3525 4100 3525 3541 
Q 3525 3141 3298 2862 
Q 3072 2584 2669 2484 
Q 3125 2378 3379 2068 
Q 3634 1759 3634 1313 
Q 3634 634 3220 271 
Q 2806 -91 2034 -91 
Q 1263 -91 848 271 
Q 434 634 434 1313 
Q 434 1759 690 2068 
Q 947 2378 1403 2484 
z
M 1172 3481 
Q 1172 3119 1398 2916 
Q 1625 2713 2034 2713 
Q 2441 2713 2670 2916 
Q 2900 3119 2900 3481 
Q 2900 3844 2670 4047 
Q 2441 4250 2034 4250 
Q 1625 4250 1398 4047 
Q 1172 3844 1172 3481 
z
" id="DejaVuSans-38" transform="scale(0.015625)"/>
       </defs>
       <use xlink:href="#DejaVuSans-38"/>
       <use x="63.623047" xlink:href="#DejaVuSans-30"/>
      </g>
     </g>
    </g>
    <g id="ytick_2">
     <g id="line2d_8">
      <g>
       <use style="stroke:#000000;stroke-width:0.8;" x="44.57" xlink:href="#m33411a8afd" y="206.307183"/>
      </g>
     </g>
     <g id="text_9">
      <!-- 85 -->
      <g transform="translate(24.845 210.106402)scale(0.1 -0.1)">
       <use xlink:href="#DejaVuSans-38"/>
       <use x="63.623047" xlink:href="#DejaVuSans-35"/>
      </g>
     </g>
    </g>
    <g id="ytick_3">
     <g id="line2d_9">
      <g>
       <use style="stroke:#000000;stroke-width:0.8;" x="44.57" xlink:href="#m33411a8afd" y="150.847964"/>
      </g>
     </g>
     <g id="text_10">
      <!-- 90 -->
      <g transform="translate(24.845 154.647183)scale(0.1 -0.1)">
       <defs>
        <path d="M 703 97 
L 703 672 
Q 941 559 1184 500 
Q 1428 441 1663 441 
Q 2288 441 2617 861 
Q 2947 1281 2994 2138 
Q 2813 1869 2534 1725 
Q 2256 1581 1919 1581 
Q 1219 1581 811 2004 
Q 403 2428 403 3163 
Q 403 3881 828 4315 
Q 1253 4750 1959 4750 
Q 2769 4750 3195 4129 
Q 3622 3509 3622 2328 
Q 3622 1225 3098 567 
Q 2575 -91 1691 -91 
Q 1453 -91 1209 -44 
Q 966 3 703 97 
z
M 1959 2075 
Q 2384 2075 2632 2365 
Q 2881 2656 2881 3163 
Q 2881 3666 2632 3958 
Q 2384 4250 1959 4250 
Q 1534 4250 1286 3958 
Q 1038 3666 1038 3163 
Q 1038 2656 1286 2365 
Q 1534 2075 1959 2075 
z
" id="DejaVuSans-39" transform="scale(0.015625)"/>
       </defs>
       <use xlink:href="#DejaVuSans-39"/>
       <use x="63.623047" xlink:href="#DejaVuSans-30"/>
      </g>
     </g>
    </g>
    <g id="ytick_4">
     <g id="line2d_10">
      <g>
       <use style="stroke:#000000;stroke-width:0.8;" x="44.57" xlink:href="#m33411a8afd" y="95.388745"/>
      </g>
     </g>
     <g id="text_11">
      <!-- 95 -->
      <g transform="translate(24.845 99.187963)scale(0.1 -0.1)">
       <use xlink:href="#DejaVuSans-39"/>
       <use x="63.623047" xlink:href="#DejaVuSans-35"/>
      </g>
     </g>
    </g>
    <g id="text_12">
     <!-- Test Accuracy -->
     <g transform="translate(18.765313 210.2725)rotate(-90)scale(0.1 -0.1)">
      <defs>
       <path d="M -19 4666 
L 3928 4666 
L 3928 4134 
L 2272 4134 
L 2272 0 
L 1638 0 
L 1638 4134 
L -19 4134 
L -19 4666 
z
" id="DejaVuSans-54" transform="scale(0.015625)"/>
       <path d="M 3597 1894 
L 3597 1613 
L 953 1613 
Q 991 1019 1311 708 
Q 1631 397 2203 397 
Q 2534 397 2845 478 
Q 3156 559 3463 722 
L 3463 178 
Q 3153 47 2828 -22 
Q 2503 -91 2169 -91 
Q 1331 -91 842 396 
Q 353 884 353 1716 
Q 353 2575 817 3079 
Q 1281 3584 2069 3584 
Q 2775 3584 3186 3129 
Q 3597 2675 3597 1894 
z
M 3022 2063 
Q 3016 2534 2758 2815 
Q 2500 3097 2075 3097 
Q 1594 3097 1305 2825 
Q 1016 2553 972 2059 
L 3022 2063 
z
" id="DejaVuSans-65" transform="scale(0.015625)"/>
       <path d="M 2188 4044 
L 1331 1722 
L 3047 1722 
L 2188 4044 
z
M 1831 4666 
L 2547 4666 
L 4325 0 
L 3669 0 
L 3244 1197 
L 1141 1197 
L 716 0 
L 50 0 
L 1831 4666 
z
" id="DejaVuSans-41" transform="scale(0.015625)"/>
       <path d="M 2631 2963 
Q 2534 3019 2420 3045 
Q 2306 3072 2169 3072 
Q 1681 3072 1420 2755 
Q 1159 2438 1159 1844 
L 1159 0 
L 581 0 
L 581 3500 
L 1159 3500 
L 1159 2956 
Q 1341 3275 1631 3429 
Q 1922 3584 2338 3584 
Q 2397 3584 2469 3576 
Q 2541 3569 2628 3553 
L 2631 2963 
z
" id="DejaVuSans-72" transform="scale(0.015625)"/>
       <path d="M 2059 -325 
Q 1816 -950 1584 -1140 
Q 1353 -1331 966 -1331 
L 506 -1331 
L 506 -850 
L 844 -850 
Q 1081 -850 1212 -737 
Q 1344 -625 1503 -206 
L 1606 56 
L 191 3500 
L 800 3500 
L 1894 763 
L 2988 3500 
L 3597 3500 
L 2059 -325 
z
" id="DejaVuSans-79" transform="scale(0.015625)"/>
      </defs>
      <use xlink:href="#DejaVuSans-54"/>
      <use x="44.083984" xlink:href="#DejaVuSans-65"/>
      <use x="105.607422" xlink:href="#DejaVuSans-73"/>
      <use x="157.707031" xlink:href="#DejaVuSans-74"/>
      <use x="196.916016" xlink:href="#DejaVuSans-20"/>
      <use x="228.703125" xlink:href="#DejaVuSans-41"/>
      <use x="295.361328" xlink:href="#DejaVuSans-63"/>
      <use x="350.341797" xlink:href="#DejaVuSans-63"/>
      <use x="405.322266" xlink:href="#DejaVuSans-75"/>
      <use x="468.701172" xlink:href="#DejaVuSans-72"/>
      <use x="509.814453" xlink:href="#DejaVuSans-61"/>
      <use x="571.09375" xlink:href="#DejaVuSans-63"/>
      <use x="626.074219" xlink:href="#DejaVuSans-79"/>
     </g>
    </g>
   </g>
   <g id="line2d_11">
    <path clip-path="url(#pf940bf3bd5)" d="M 62.998636 240.705939 
L 70.520529 138.773298 
L 78.042421 125.856214 
L 85.564314 117.432029 
L 93.086206 109.850263 
L 100.608098 107.603813 
L 108.129991 102.549302 
L 115.651883 98.618016 
L 123.173776 95.529148 
L 130.695668 90.474637 
L 138.21756 90.755443 
L 145.739453 89.913024 
L 153.261345 85.700932 
L 160.783237 85.139319 
L 168.30513 85.139319 
L 175.827022 79.804002 
L 183.348915 81.488839 
L 190.870807 77.838359 
L 198.392699 77.557553 
L 205.914592 78.680777 
L 213.436484 78.961583 
L 220.958377 78.119165 
L 228.480269 76.434328 
L 236.002161 76.715134 
L 243.524054 76.715134 
L 251.045946 75.872716 
L 258.567839 76.434328 
L 266.089731 73.907072 
L 273.611623 74.468685 
L 281.133516 75.872716 
L 288.655408 70.818204 
L 296.177301 71.941429 
L 303.699193 74.468685 
L 311.221085 74.749491 
L 318.742978 74.468685 
L 326.26487 70.537398 
L 333.786763 71.099011 
L 341.308655 70.537398 
L 348.830547 67.44853 
L 356.35244 69.414174 
L 363.874332 67.729336 
L 371.396224 68.010143 
L 378.918117 69.133367 
L 386.440009 68.010143 
L 393.961902 66.886918 
L 401.483794 68.571755 
L 409.005686 67.44853 
L 416.527579 66.606112 
L 424.049471 66.044499 
L 431.571364 68.010143 
" style="fill:none;stroke:#1f77b4;stroke-linecap:square;stroke-width:1.5;"/>
   </g>
   <g id="line2d_12">
    <path clip-path="url(#pf940bf3bd5)" d="M 62.998636 247.164481 
L 70.520529 150.005545 
L 78.042421 128.102664 
L 85.564314 124.73299 
L 93.086206 112.658324 
L 100.608098 108.446232 
L 108.129991 104.795751 
L 115.651883 100.022046 
L 123.173776 99.179628 
L 130.695668 94.125117 
L 138.21756 93.844311 
L 145.739453 94.125117 
L 153.261345 91.597861 
L 160.783237 88.228187 
L 168.30513 89.351412 
L 175.827022 84.577707 
L 183.348915 86.262544 
L 190.870807 83.454482 
L 198.392699 86.54335 
L 205.914592 84.858513 
L 213.436484 85.139319 
L 220.958377 83.735288 
L 228.480269 81.208033 
L 236.002161 84.296901 
L 243.524054 80.927227 
L 251.045946 80.365614 
L 258.567839 82.331258 
L 266.089731 79.804002 
L 273.611623 79.804002 
L 281.133516 79.523196 
L 288.655408 78.119165 
L 296.177301 76.99594 
L 303.699193 78.399971 
L 311.221085 78.961583 
L 318.742978 77.276746 
L 326.26487 78.119165 
L 333.786763 76.715134 
L 341.308655 78.399971 
L 348.830547 77.838359 
L 356.35244 76.715134 
L 363.874332 78.680777 
L 371.396224 77.838359 
L 378.918117 78.119165 
L 386.440009 78.680777 
L 393.961902 77.276746 
L 401.483794 77.557553 
L 409.005686 76.153522 
L 416.527579 75.591909 
L 424.049471 76.153522 
L 431.571364 77.557553 
" style="fill:none;stroke:#ff7f0e;stroke-linecap:square;stroke-width:1.5;"/>
   </g>
   <g id="line2d_13">
    <path clip-path="url(#pf940bf3bd5)" d="M 62.998636 221.61112 
L 70.520529 146.074259 
L 78.042421 127.541051 
L 85.564314 114.623967 
L 93.086206 112.93913 
L 100.608098 107.323007 
L 108.129991 102.830108 
L 115.651883 102.549302 
L 123.173776 95.809954 
L 130.695668 91.878667 
L 138.21756 92.44028 
L 145.739453 85.981738 
L 153.261345 89.913024 
L 160.783237 89.632218 
L 168.30513 87.666575 
L 175.827022 84.016095 
L 183.348915 83.454482 
L 190.870807 82.89287 
L 198.392699 81.488839 
L 205.914592 81.208033 
L 213.436484 79.24239 
L 220.958377 76.99594 
L 228.480269 77.557553 
L 236.002161 78.680777 
L 243.524054 80.365614 
L 251.045946 78.119165 
L 258.567839 80.64642 
L 266.089731 76.99594 
L 273.611623 76.153522 
L 281.133516 76.434328 
L 288.655408 76.434328 
L 296.177301 76.153522 
L 303.699193 74.187878 
L 311.221085 74.468685 
L 318.742978 73.907072 
L 326.26487 74.749491 
L 333.786763 72.503041 
L 341.308655 71.379817 
L 348.830547 71.941429 
L 356.35244 70.818204 
L 363.874332 71.660623 
L 371.396224 71.941429 
L 378.918117 69.975786 
L 386.440009 69.69498 
L 393.961902 69.414174 
L 401.483794 68.571755 
L 409.005686 68.010143 
L 416.527579 69.69498 
L 424.049471 69.69498 
L 431.571364 66.325306 
" style="fill:none;stroke:#2ca02c;stroke-linecap:square;stroke-width:1.5;"/>
   </g>
   <g id="line2d_14">
    <path clip-path="url(#pf940bf3bd5)" d="M 62.998636 239.804552 
L 70.520529 151.66876 
L 78.042421 139.467732 
L 85.564314 127.998766 
L 93.086206 122.075721 
L 100.608098 116.352329 
L 108.129991 111.937776 
L 115.651883 108.565855 
L 123.173776 106.724609 
L 130.695668 103.84073 
L 138.21756 102.886831 
L 145.739453 100.690646 
L 153.261345 99.115604 
L 160.783237 97.784583 
L 168.30513 97.119072 
L 175.827022 95.96552 
L 183.348915 95.30001 
L 190.870807 95.12254 
L 198.392699 94.168642 
L 205.914592 92.926355 
L 213.436484 93.148192 
L 220.958377 92.704518 
L 228.480269 92.393947 
L 236.002161 92.527049 
L 243.524054 93.059457 
L 251.045946 91.972457 
L 258.567839 91.550967 
L 266.089731 91.32913 
L 273.611623 91.351313 
L 281.133516 91.950273 
L 288.655408 91.395681 
L 296.177301 91.062925 
L 303.699193 91.018558 
L 311.221085 90.952007 
L 318.742978 91.040742 
L 326.26487 91.306946 
L 333.786763 91.018558 
L 341.308655 91.107293 
L 348.830547 90.90764 
L 356.35244 90.48615 
L 363.874332 90.818905 
L 371.396224 90.774538 
L 378.918117 90.619252 
L 386.440009 90.574884 
L 393.961902 90.73017 
L 401.483794 90.48615 
L 409.005686 90.242129 
L 416.527579 90.30868 
L 424.049471 90.353047 
L 431.571364 90.48615 
" style="fill:none;stroke:#d62728;stroke-linecap:square;stroke-width:1.5;"/>
   </g>
   <g id="patch_3">
    <path d="M 44.57 303.64 
L 44.57 48.38 
" style="fill:none;stroke:#000000;stroke-linecap:square;stroke-linejoin:miter;stroke-width:0.8;"/>
   </g>
   <g id="patch_4">
    <path d="M 450 303.64 
L 450 48.38 
" style="fill:none;stroke:#000000;stroke-linecap:square;stroke-linejoin:miter;stroke-width:0.8;"/>
   </g>
   <g id="patch_5">
    <path d="M 44.57 303.64 
L 450 303.64 
" style="fill:none;stroke:#000000;stroke-linecap:square;stroke-linejoin:miter;stroke-width:0.8;"/>
   </g>
   <g id="patch_6">
    <path d="M 44.57 48.38 
L 450 48.38 
" style="fill:none;stroke:#000000;stroke-linecap:square;stroke-linejoin:miter;stroke-width:0.8;"/>
   </g>
   <g id="text_13">
    <!-- Local Rounds 01 -->
    <g transform="translate(198.174063 20.88)scale(0.12 -0.12)">
     <defs>
      <path d="M 628 4666 
L 1259 4666 
L 1259 531 
L 3531 531 
L 3531 0 
L 628 0 
L 628 4666 
z
" id="DejaVuSans-4c" transform="scale(0.015625)"/>
     </defs>
     <use xlink:href="#DejaVuSans-4c"/>
     <use x="53.962891" xlink:href="#DejaVuSans-6f"/>
     <use x="115.144531" xlink:href="#DejaVuSans-63"/>
     <use x="170.125" xlink:href="#DejaVuSans-61"/>
     <use x="231.404297" xlink:href="#DejaVuSans-6c"/>
     <use x="259.1875" xlink:href="#DejaVuSans-20"/>
     <use x="290.974609" xlink:href="#DejaVuSans-52"/>
     <use x="355.957031" xlink:href="#DejaVuSans-6f"/>
     <use x="417.138672" xlink:href="#DejaVuSans-75"/>
     <use x="480.517578" xlink:href="#DejaVuSans-6e"/>
     <use x="543.896484" xlink:href="#DejaVuSans-64"/>
     <use x="607.373047" xlink:href="#DejaVuSans-73"/>
     <use x="659.472656" xlink:href="#DejaVuSans-20"/>
     <use x="691.259766" xlink:href="#DejaVuSans-30"/>
     <use x="754.882812" xlink:href="#DejaVuSans-31"/>
    </g>
   </g>
   <g id="legend_1">
    <g id="patch_7">
     <path d="M 80.886563 45.532125 
L 413.683438 45.532125 
Q 415.683438 45.532125 415.683438 43.532125 
L 415.683438 29.854 
Q 415.683438 27.854 413.683438 27.854 
L 80.886563 27.854 
Q 78.886563 27.854 78.886563 29.854 
L 78.886563 43.532125 
Q 78.886563 45.532125 80.886563 45.532125 
z
" style="fill:#ffffff;opacity:0.8;stroke:#cccccc;stroke-linejoin:miter;"/>
    </g>
    <g id="line2d_15">
     <path d="M 82.886563 35.952438 
L 102.886563 35.952438 
" style="fill:none;stroke:#1f77b4;stroke-linecap:square;stroke-width:1.5;"/>
    </g>
    <g id="line2d_16"/>
    <g id="text_14">
     <!-- FedAvg -->
     <g transform="translate(110.886563 39.452438)scale(0.1 -0.1)">
      <defs>
       <path d="M 628 4666 
L 3309 4666 
L 3309 4134 
L 1259 4134 
L 1259 2759 
L 3109 2759 
L 3109 2228 
L 1259 2228 
L 1259 0 
L 628 0 
L 628 4666 
z
" id="DejaVuSans-46" transform="scale(0.015625)"/>
       <path d="M 191 3500 
L 800 3500 
L 1894 563 
L 2988 3500 
L 3597 3500 
L 2284 0 
L 1503 0 
L 191 3500 
z
" id="DejaVuSans-76" transform="scale(0.015625)"/>
       <path d="M 2906 1791 
Q 2906 2416 2648 2759 
Q 2391 3103 1925 3103 
Q 1463 3103 1205 2759 
Q 947 2416 947 1791 
Q 947 1169 1205 825 
Q 1463 481 1925 481 
Q 2391 481 2648 825 
Q 2906 1169 2906 1791 
z
M 3481 434 
Q 3481 -459 3084 -895 
Q 2688 -1331 1869 -1331 
Q 1566 -1331 1297 -1286 
Q 1028 -1241 775 -1147 
L 775 -588 
Q 1028 -725 1275 -790 
Q 1522 -856 1778 -856 
Q 2344 -856 2625 -561 
Q 2906 -266 2906 331 
L 2906 616 
Q 2728 306 2450 153 
Q 2172 0 1784 0 
Q 1141 0 747 490 
Q 353 981 353 1791 
Q 353 2603 747 3093 
Q 1141 3584 1784 3584 
Q 2172 3584 2450 3431 
Q 2728 3278 2906 2969 
L 2906 3500 
L 3481 3500 
L 3481 434 
z
" id="DejaVuSans-67" transform="scale(0.015625)"/>
      </defs>
      <use xlink:href="#DejaVuSans-46"/>
      <use x="52.019531" xlink:href="#DejaVuSans-65"/>
      <use x="113.542969" xlink:href="#DejaVuSans-64"/>
      <use x="177.019531" xlink:href="#DejaVuSans-41"/>
      <use x="239.552734" xlink:href="#DejaVuSans-76"/>
      <use x="298.732422" xlink:href="#DejaVuSans-67"/>
     </g>
    </g>
    <g id="line2d_17">
     <path d="M 167.11 35.952438 
L 187.11 35.952438 
" style="fill:none;stroke:#ff7f0e;stroke-linecap:square;stroke-width:1.5;"/>
    </g>
    <g id="line2d_18"/>
    <g id="text_15">
     <!-- FedMed -->
     <g transform="translate(195.11 39.452438)scale(0.1 -0.1)">
      <defs>
       <path d="M 628 4666 
L 1569 4666 
L 2759 1491 
L 3956 4666 
L 4897 4666 
L 4897 0 
L 4281 0 
L 4281 4097 
L 3078 897 
L 2444 897 
L 1241 4097 
L 1241 0 
L 628 0 
L 628 4666 
z
" id="DejaVuSans-4d" transform="scale(0.015625)"/>
      </defs>
      <use xlink:href="#DejaVuSans-46"/>
      <use x="52.019531" xlink:href="#DejaVuSans-65"/>
      <use x="113.542969" xlink:href="#DejaVuSans-64"/>
      <use x="177.019531" xlink:href="#DejaVuSans-4d"/>
      <use x="263.298828" xlink:href="#DejaVuSans-65"/>
      <use x="324.822266" xlink:href="#DejaVuSans-64"/>
     </g>
    </g>
    <g id="line2d_19">
     <path d="M 253.942813 35.952438 
L 273.942813 35.952438 
" style="fill:none;stroke:#2ca02c;stroke-linecap:square;stroke-width:1.5;"/>
    </g>
    <g id="line2d_20"/>
    <g id="text_16">
     <!-- FedProx -->
     <g transform="translate(281.942813 39.452438)scale(0.1 -0.1)">
      <defs>
       <path d="M 1259 4147 
L 1259 2394 
L 2053 2394 
Q 2494 2394 2734 2622 
Q 2975 2850 2975 3272 
Q 2975 3691 2734 3919 
Q 2494 4147 2053 4147 
L 1259 4147 
z
M 628 4666 
L 2053 4666 
Q 2838 4666 3239 4311 
Q 3641 3956 3641 3272 
Q 3641 2581 3239 2228 
Q 2838 1875 2053 1875 
L 1259 1875 
L 1259 0 
L 628 0 
L 628 4666 
z
" id="DejaVuSans-50" transform="scale(0.015625)"/>
       <path d="M 3513 3500 
L 2247 1797 
L 3578 0 
L 2900 0 
L 1881 1375 
L 863 0 
L 184 0 
L 1544 1831 
L 300 3500 
L 978 3500 
L 1906 2253 
L 2834 3500 
L 3513 3500 
z
" id="DejaVuSans-78" transform="scale(0.015625)"/>
      </defs>
      <use xlink:href="#DejaVuSans-46"/>
      <use x="52.019531" xlink:href="#DejaVuSans-65"/>
      <use x="113.542969" xlink:href="#DejaVuSans-64"/>
      <use x="177.019531" xlink:href="#DejaVuSans-50"/>
      <use x="235.572266" xlink:href="#DejaVuSans-72"/>
      <use x="274.435547" xlink:href="#DejaVuSans-6f"/>
      <use x="332.492188" xlink:href="#DejaVuSans-78"/>
     </g>
    </g>
    <g id="line2d_21">
     <path d="M 341.111563 35.952438 
L 361.111563 35.952438 
" style="fill:none;stroke:#d62728;stroke-linecap:square;stroke-width:1.5;"/>
    </g>
    <g id="line2d_22"/>
    <g id="text_17">
     <!-- qFedAvg -->
     <g transform="translate(369.111563 39.452438)scale(0.1 -0.1)">
      <defs>
       <path d="M 947 1747 
Q 947 1113 1208 752 
Q 1469 391 1925 391 
Q 2381 391 2643 752 
Q 2906 1113 2906 1747 
Q 2906 2381 2643 2742 
Q 2381 3103 1925 3103 
Q 1469 3103 1208 2742 
Q 947 2381 947 1747 
z
M 2906 525 
Q 2725 213 2448 61 
Q 2172 -91 1784 -91 
Q 1150 -91 751 415 
Q 353 922 353 1747 
Q 353 2572 751 3078 
Q 1150 3584 1784 3584 
Q 2172 3584 2448 3432 
Q 2725 3281 2906 2969 
L 2906 3500 
L 3481 3500 
L 3481 -1331 
L 2906 -1331 
L 2906 525 
z
" id="DejaVuSans-71" transform="scale(0.015625)"/>
      </defs>
      <use xlink:href="#DejaVuSans-71"/>
      <use x="63.476562" xlink:href="#DejaVuSans-46"/>
      <use x="115.496094" xlink:href="#DejaVuSans-65"/>
      <use x="177.019531" xlink:href="#DejaVuSans-64"/>
      <use x="240.496094" xlink:href="#DejaVuSans-41"/>
      <use x="303.029297" xlink:href="#DejaVuSans-76"/>
      <use x="362.208984" xlink:href="#DejaVuSans-67"/>
     </g>
    </g>
   </g>
  </g>
 </g>
 <defs>
  <clipPath id="pf940bf3bd5">
   <rect height="255.26" width="405.43" x="44.57" y="48.38"/>
  </clipPath>
 </defs>
</svg>
