<?xml version="1.0" encoding="utf-8" standalone="no"?>
<!DOCTYPE svg PUBLIC "-//W3C//DTD SVG 1.1//EN"
  "http://www.w3.org/Graphics/SVG/1.1/DTD/svg11.dtd">
<svg height="432pt" version="1.1" viewBox="0 0 576 432" width="576pt" xmlns="http://www.w3.org/2000/svg" xmlns:xlink="http://www.w3.org/1999/xlink">
 <metadata>
  <rdf:RDF xmlns:cc="http://creativecommons.org/ns#" xmlns:dc="http://purl.org/dc/elements/1.1/" xmlns:rdf="http://www.w3.org/1999/02/22-rdf-syntax-ns#">
   <cc:Work>
    <dc:type rdf:resource="http://purl.org/dc/dcmitype/StillImage"/>
    <dc:date>2021-05-07T23:42:04.973779</dc:date>
    <dc:format>image/svg+xml</dc:format>
    <dc:creator>
     <cc:Agent>
      <dc:title>Matplotlib v3.4.1, https://matplotlib.org/</dc:title>
     </cc:Agent>
    </dc:creator>
   </cc:Work>
  </rdf:RDF>
 </metadata>
 <defs>
  <style type="text/css">*{stroke-linecap:butt;stroke-linejoin:round;}</style>
 </defs>
 <g id="figure_1">
  <g id="patch_1">
   <path d="M 0 432 
L 576 432 
L 576 0 
L 0 0 
z
" style="fill:#ffffff;"/>
  </g>
  <g id="axes_1">
   <g id="patch_2">
    <path d="M 60.68 268.275588 
L 559.8 268.275588 
L 559.8 16.2 
L 60.68 16.2 
z
" style="fill:#ffffff;"/>
   </g>
   <g id="matplotlib.axis_1">
    <g id="xtick_1">
     <g id="line2d_1">
      <path clip-path="url(#pba646adea1)" d="M 102.273333 268.275588 
L 102.273333 16.2 
" style="fill:none;stroke:#b0b0b0;stroke-linecap:square;stroke-width:0.8;"/>
     </g>
     <g id="line2d_2">
      <defs>
       <path d="M 0 0 
L 0 3.5 
" id="m58b7e1b0f7" style="stroke:#000000;stroke-width:0.8;"/>
      </defs>
      <g>
       <use style="stroke:#000000;stroke-width:0.8;" x="102.273333" xlink:href="#m58b7e1b0f7" y="268.275588"/>
      </g>
     </g>
     <g id="text_1">
      <!-- FedAvg CNN -->
      <g transform="translate(34.999305 348.403135)rotate(-45)scale(0.15 -0.15)">
       <defs>
        <path d="M 628 4666 
L 3309 4666 
L 3309 4134 
L 1259 4134 
L 1259 2759 
L 3109 2759 
L 3109 2228 
L 1259 2228 
L 1259 0 
L 628 0 
L 628 4666 
z
" id="DejaVuSans-46" transform="scale(0.015625)"/>
        <path d="M 3597 1894 
L 3597 1613 
L 953 1613 
Q 991 1019 1311 708 
Q 1631 397 2203 397 
Q 2534 397 2845 478 
Q 3156 559 3463 722 
L 3463 178 
Q 3153 47 2828 -22 
Q 2503 -91 2169 -91 
Q 1331 -91 842 396 
Q 353 884 353 1716 
Q 353 2575 817 3079 
Q 1281 3584 2069 3584 
Q 2775 3584 3186 3129 
Q 3597 2675 3597 1894 
z
M 3022 2063 
Q 3016 2534 2758 2815 
Q 2500 3097 2075 3097 
Q 1594 3097 1305 2825 
Q 1016 2553 972 2059 
L 3022 2063 
z
" id="DejaVuSans-65" transform="scale(0.015625)"/>
        <path d="M 2906 2969 
L 2906 4863 
L 3481 4863 
L 3481 0 
L 2906 0 
L 2906 525 
Q 2725 213 2448 61 
Q 2172 -91 1784 -91 
Q 1150 -91 751 415 
Q 353 922 353 1747 
Q 353 2572 751 3078 
Q 1150 3584 1784 3584 
Q 2172 3584 2448 3432 
Q 2725 3281 2906 2969 
z
M 947 1747 
Q 947 1113 1208 752 
Q 1469 391 1925 391 
Q 2381 391 2643 752 
Q 2906 1113 2906 1747 
Q 2906 2381 2643 2742 
Q 2381 3103 1925 3103 
Q 1469 3103 1208 2742 
Q 947 2381 947 1747 
z
" id="DejaVuSans-64" transform="scale(0.015625)"/>
        <path d="M 2188 4044 
L 1331 1722 
L 3047 1722 
L 2188 4044 
z
M 1831 4666 
L 2547 4666 
L 4325 0 
L 3669 0 
L 3244 1197 
L 1141 1197 
L 716 0 
L 50 0 
L 1831 4666 
z
" id="DejaVuSans-41" transform="scale(0.015625)"/>
        <path d="M 191 3500 
L 800 3500 
L 1894 563 
L 2988 3500 
L 3597 3500 
L 2284 0 
L 1503 0 
L 191 3500 
z
" id="DejaVuSans-76" transform="scale(0.015625)"/>
        <path d="M 2906 1791 
Q 2906 2416 2648 2759 
Q 2391 3103 1925 3103 
Q 1463 3103 1205 2759 
Q 947 2416 947 1791 
Q 947 1169 1205 825 
Q 1463 481 1925 481 
Q 2391 481 2648 825 
Q 2906 1169 2906 1791 
z
M 3481 434 
Q 3481 -459 3084 -895 
Q 2688 -1331 1869 -1331 
Q 1566 -1331 1297 -1286 
Q 1028 -1241 775 -1147 
L 775 -588 
Q 1028 -725 1275 -790 
Q 1522 -856 1778 -856 
Q 2344 -856 2625 -561 
Q 2906 -266 2906 331 
L 2906 616 
Q 2728 306 2450 153 
Q 2172 0 1784 0 
Q 1141 0 747 490 
Q 353 981 353 1791 
Q 353 2603 747 3093 
Q 1141 3584 1784 3584 
Q 2172 3584 2450 3431 
Q 2728 3278 2906 2969 
L 2906 3500 
L 3481 3500 
L 3481 434 
z
" id="DejaVuSans-67" transform="scale(0.015625)"/>
        <path id="DejaVuSans-20" transform="scale(0.015625)"/>
        <path d="M 4122 4306 
L 4122 3641 
Q 3803 3938 3442 4084 
Q 3081 4231 2675 4231 
Q 1875 4231 1450 3742 
Q 1025 3253 1025 2328 
Q 1025 1406 1450 917 
Q 1875 428 2675 428 
Q 3081 428 3442 575 
Q 3803 722 4122 1019 
L 4122 359 
Q 3791 134 3420 21 
Q 3050 -91 2638 -91 
Q 1578 -91 968 557 
Q 359 1206 359 2328 
Q 359 3453 968 4101 
Q 1578 4750 2638 4750 
Q 3056 4750 3426 4639 
Q 3797 4528 4122 4306 
z
" id="DejaVuSans-43" transform="scale(0.015625)"/>
        <path d="M 628 4666 
L 1478 4666 
L 3547 763 
L 3547 4666 
L 4159 4666 
L 4159 0 
L 3309 0 
L 1241 3903 
L 1241 0 
L 628 0 
L 628 4666 
z
" id="DejaVuSans-4e" transform="scale(0.015625)"/>
       </defs>
       <use xlink:href="#DejaVuSans-46"/>
       <use x="52.019531" xlink:href="#DejaVuSans-65"/>
       <use x="113.542969" xlink:href="#DejaVuSans-64"/>
       <use x="177.019531" xlink:href="#DejaVuSans-41"/>
       <use x="239.552734" xlink:href="#DejaVuSans-76"/>
       <use x="298.732422" xlink:href="#DejaVuSans-67"/>
       <use x="362.208984" xlink:href="#DejaVuSans-20"/>
       <use x="393.996094" xlink:href="#DejaVuSans-43"/>
       <use x="463.820312" xlink:href="#DejaVuSans-4e"/>
       <use x="538.625" xlink:href="#DejaVuSans-4e"/>
      </g>
     </g>
    </g>
    <g id="xtick_2">
     <g id="line2d_3">
      <path clip-path="url(#pba646adea1)" d="M 171.595556 268.275588 
L 171.595556 16.2 
" style="fill:none;stroke:#b0b0b0;stroke-linecap:square;stroke-width:0.8;"/>
     </g>
     <g id="line2d_4">
      <g>
       <use style="stroke:#000000;stroke-width:0.8;" x="171.595556" xlink:href="#m58b7e1b0f7" y="268.275588"/>
      </g>
     </g>
     <g id="text_2">
      <!-- FedMed CNN -->
      <g transform="translate(101.553867 351.170795)rotate(-45)scale(0.15 -0.15)">
       <defs>
        <path d="M 628 4666 
L 1569 4666 
L 2759 1491 
L 3956 4666 
L 4897 4666 
L 4897 0 
L 4281 0 
L 4281 4097 
L 3078 897 
L 2444 897 
L 1241 4097 
L 1241 0 
L 628 0 
L 628 4666 
z
" id="DejaVuSans-4d" transform="scale(0.015625)"/>
       </defs>
       <use xlink:href="#DejaVuSans-46"/>
       <use x="52.019531" xlink:href="#DejaVuSans-65"/>
       <use x="113.542969" xlink:href="#DejaVuSans-64"/>
       <use x="177.019531" xlink:href="#DejaVuSans-4d"/>
       <use x="263.298828" xlink:href="#DejaVuSans-65"/>
       <use x="324.822266" xlink:href="#DejaVuSans-64"/>
       <use x="388.298828" xlink:href="#DejaVuSans-20"/>
       <use x="420.085938" xlink:href="#DejaVuSans-43"/>
       <use x="489.910156" xlink:href="#DejaVuSans-4e"/>
       <use x="564.714844" xlink:href="#DejaVuSans-4e"/>
      </g>
     </g>
    </g>
    <g id="xtick_3">
     <g id="line2d_5">
      <path clip-path="url(#pba646adea1)" d="M 240.917778 268.275588 
L 240.917778 16.2 
" style="fill:none;stroke:#b0b0b0;stroke-linecap:square;stroke-width:0.8;"/>
     </g>
     <g id="line2d_6">
      <g>
       <use style="stroke:#000000;stroke-width:0.8;" x="240.917778" xlink:href="#m58b7e1b0f7" y="268.275588"/>
      </g>
     </g>
     <g id="text_3">
      <!-- FedProx CNN -->
      <g transform="translate(170.519773 351.52711)rotate(-45)scale(0.15 -0.15)">
       <defs>
        <path d="M 1259 4147 
L 1259 2394 
L 2053 2394 
Q 2494 2394 2734 2622 
Q 2975 2850 2975 3272 
Q 2975 3691 2734 3919 
Q 2494 4147 2053 4147 
L 1259 4147 
z
M 628 4666 
L 2053 4666 
Q 2838 4666 3239 4311 
Q 3641 3956 3641 3272 
Q 3641 2581 3239 2228 
Q 2838 1875 2053 1875 
L 1259 1875 
L 1259 0 
L 628 0 
L 628 4666 
z
" id="DejaVuSans-50" transform="scale(0.015625)"/>
        <path d="M 2631 2963 
Q 2534 3019 2420 3045 
Q 2306 3072 2169 3072 
Q 1681 3072 1420 2755 
Q 1159 2438 1159 1844 
L 1159 0 
L 581 0 
L 581 3500 
L 1159 3500 
L 1159 2956 
Q 1341 3275 1631 3429 
Q 1922 3584 2338 3584 
Q 2397 3584 2469 3576 
Q 2541 3569 2628 3553 
L 2631 2963 
z
" id="DejaVuSans-72" transform="scale(0.015625)"/>
        <path d="M 1959 3097 
Q 1497 3097 1228 2736 
Q 959 2375 959 1747 
Q 959 1119 1226 758 
Q 1494 397 1959 397 
Q 2419 397 2687 759 
Q 2956 1122 2956 1747 
Q 2956 2369 2687 2733 
Q 2419 3097 1959 3097 
z
M 1959 3584 
Q 2709 3584 3137 3096 
Q 3566 2609 3566 1747 
Q 3566 888 3137 398 
Q 2709 -91 1959 -91 
Q 1206 -91 779 398 
Q 353 888 353 1747 
Q 353 2609 779 3096 
Q 1206 3584 1959 3584 
z
" id="DejaVuSans-6f" transform="scale(0.015625)"/>
        <path d="M 3513 3500 
L 2247 1797 
L 3578 0 
L 2900 0 
L 1881 1375 
L 863 0 
L 184 0 
L 1544 1831 
L 300 3500 
L 978 3500 
L 1906 2253 
L 2834 3500 
L 3513 3500 
z
" id="DejaVuSans-78" transform="scale(0.015625)"/>
       </defs>
       <use xlink:href="#DejaVuSans-46"/>
       <use x="52.019531" xlink:href="#DejaVuSans-65"/>
       <use x="113.542969" xlink:href="#DejaVuSans-64"/>
       <use x="177.019531" xlink:href="#DejaVuSans-50"/>
       <use x="235.572266" xlink:href="#DejaVuSans-72"/>
       <use x="274.435547" xlink:href="#DejaVuSans-6f"/>
       <use x="332.492188" xlink:href="#DejaVuSans-78"/>
       <use x="391.671875" xlink:href="#DejaVuSans-20"/>
       <use x="423.458984" xlink:href="#DejaVuSans-43"/>
       <use x="493.283203" xlink:href="#DejaVuSans-4e"/>
       <use x="568.087891" xlink:href="#DejaVuSans-4e"/>
      </g>
     </g>
    </g>
    <g id="xtick_4">
     <g id="line2d_7">
      <path clip-path="url(#pba646adea1)" d="M 310.24 268.275588 
L 310.24 16.2 
" style="fill:none;stroke:#b0b0b0;stroke-linecap:square;stroke-width:0.8;"/>
     </g>
     <g id="line2d_8">
      <g>
       <use style="stroke:#000000;stroke-width:0.8;" x="310.24" xlink:href="#m58b7e1b0f7" y="268.275588"/>
      </g>
     </g>
     <g id="text_4">
      <!-- qFedAvg_001_u CNN -->
      <g transform="translate(198.363554 392.710556)rotate(-45)scale(0.15 -0.15)">
       <defs>
        <path d="M 947 1747 
Q 947 1113 1208 752 
Q 1469 391 1925 391 
Q 2381 391 2643 752 
Q 2906 1113 2906 1747 
Q 2906 2381 2643 2742 
Q 2381 3103 1925 3103 
Q 1469 3103 1208 2742 
Q 947 2381 947 1747 
z
M 2906 525 
Q 2725 213 2448 61 
Q 2172 -91 1784 -91 
Q 1150 -91 751 415 
Q 353 922 353 1747 
Q 353 2572 751 3078 
Q 1150 3584 1784 3584 
Q 2172 3584 2448 3432 
Q 2725 3281 2906 2969 
L 2906 3500 
L 3481 3500 
L 3481 -1331 
L 2906 -1331 
L 2906 525 
z
" id="DejaVuSans-71" transform="scale(0.015625)"/>
        <path d="M 3263 -1063 
L 3263 -1509 
L -63 -1509 
L -63 -1063 
L 3263 -1063 
z
" id="DejaVuSans-5f" transform="scale(0.015625)"/>
        <path d="M 2034 4250 
Q 1547 4250 1301 3770 
Q 1056 3291 1056 2328 
Q 1056 1369 1301 889 
Q 1547 409 2034 409 
Q 2525 409 2770 889 
Q 3016 1369 3016 2328 
Q 3016 3291 2770 3770 
Q 2525 4250 2034 4250 
z
M 2034 4750 
Q 2819 4750 3233 4129 
Q 3647 3509 3647 2328 
Q 3647 1150 3233 529 
Q 2819 -91 2034 -91 
Q 1250 -91 836 529 
Q 422 1150 422 2328 
Q 422 3509 836 4129 
Q 1250 4750 2034 4750 
z
" id="DejaVuSans-30" transform="scale(0.015625)"/>
        <path d="M 794 531 
L 1825 531 
L 1825 4091 
L 703 3866 
L 703 4441 
L 1819 4666 
L 2450 4666 
L 2450 531 
L 3481 531 
L 3481 0 
L 794 0 
L 794 531 
z
" id="DejaVuSans-31" transform="scale(0.015625)"/>
        <path d="M 544 1381 
L 544 3500 
L 1119 3500 
L 1119 1403 
Q 1119 906 1312 657 
Q 1506 409 1894 409 
Q 2359 409 2629 706 
Q 2900 1003 2900 1516 
L 2900 3500 
L 3475 3500 
L 3475 0 
L 2900 0 
L 2900 538 
Q 2691 219 2414 64 
Q 2138 -91 1772 -91 
Q 1169 -91 856 284 
Q 544 659 544 1381 
z
M 1991 3584 
L 1991 3584 
z
" id="DejaVuSans-75" transform="scale(0.015625)"/>
       </defs>
       <use xlink:href="#DejaVuSans-71"/>
       <use x="63.476562" xlink:href="#DejaVuSans-46"/>
       <use x="115.496094" xlink:href="#DejaVuSans-65"/>
       <use x="177.019531" xlink:href="#DejaVuSans-64"/>
       <use x="240.496094" xlink:href="#DejaVuSans-41"/>
       <use x="303.029297" xlink:href="#DejaVuSans-76"/>
       <use x="362.208984" xlink:href="#DejaVuSans-67"/>
       <use x="425.685547" xlink:href="#DejaVuSans-5f"/>
       <use x="475.685547" xlink:href="#DejaVuSans-30"/>
       <use x="539.308594" xlink:href="#DejaVuSans-30"/>
       <use x="602.931641" xlink:href="#DejaVuSans-31"/>
       <use x="666.554688" xlink:href="#DejaVuSans-5f"/>
       <use x="716.554688" xlink:href="#DejaVuSans-75"/>
       <use x="779.933594" xlink:href="#DejaVuSans-20"/>
       <use x="811.720703" xlink:href="#DejaVuSans-43"/>
       <use x="881.544922" xlink:href="#DejaVuSans-4e"/>
       <use x="956.349609" xlink:href="#DejaVuSans-4e"/>
      </g>
     </g>
    </g>
    <g id="xtick_5">
     <g id="line2d_9">
      <path clip-path="url(#pba646adea1)" d="M 379.562222 268.275588 
L 379.562222 16.2 
" style="fill:none;stroke:#b0b0b0;stroke-linecap:square;stroke-width:0.8;"/>
     </g>
     <g id="line2d_10">
      <g>
       <use style="stroke:#000000;stroke-width:0.8;" x="379.562222" xlink:href="#m58b7e1b0f7" y="268.275588"/>
      </g>
     </g>
     <g id="text_5">
      <!-- qFedAvg_1_w CNN -->
      <g transform="translate(279.230399 381.165933)rotate(-45)scale(0.15 -0.15)">
       <defs>
        <path d="M 269 3500 
L 844 3500 
L 1563 769 
L 2278 3500 
L 2956 3500 
L 3675 769 
L 4391 3500 
L 4966 3500 
L 4050 0 
L 3372 0 
L 2619 2869 
L 1863 0 
L 1184 0 
L 269 3500 
z
" id="DejaVuSans-77" transform="scale(0.015625)"/>
       </defs>
       <use xlink:href="#DejaVuSans-71"/>
       <use x="63.476562" xlink:href="#DejaVuSans-46"/>
       <use x="115.496094" xlink:href="#DejaVuSans-65"/>
       <use x="177.019531" xlink:href="#DejaVuSans-64"/>
       <use x="240.496094" xlink:href="#DejaVuSans-41"/>
       <use x="303.029297" xlink:href="#DejaVuSans-76"/>
       <use x="362.208984" xlink:href="#DejaVuSans-67"/>
       <use x="425.685547" xlink:href="#DejaVuSans-5f"/>
       <use x="475.685547" xlink:href="#DejaVuSans-31"/>
       <use x="539.308594" xlink:href="#DejaVuSans-5f"/>
       <use x="589.308594" xlink:href="#DejaVuSans-77"/>
       <use x="671.095703" xlink:href="#DejaVuSans-20"/>
       <use x="702.882812" xlink:href="#DejaVuSans-43"/>
       <use x="772.707031" xlink:href="#DejaVuSans-4e"/>
       <use x="847.511719" xlink:href="#DejaVuSans-4e"/>
      </g>
     </g>
    </g>
    <g id="xtick_6">
     <g id="line2d_11">
      <path clip-path="url(#pba646adea1)" d="M 448.884444 268.275588 
L 448.884444 16.2 
" style="fill:none;stroke:#b0b0b0;stroke-linecap:square;stroke-width:0.8;"/>
     </g>
     <g id="line2d_12">
      <g>
       <use style="stroke:#000000;stroke-width:0.8;" x="448.884444" xlink:href="#m58b7e1b0f7" y="268.275588"/>
      </g>
     </g>
     <g id="text_6">
      <!-- qFedAvg_001_w CNN -->
      <g transform="translate(335.055721 394.662834)rotate(-45)scale(0.15 -0.15)">
       <use xlink:href="#DejaVuSans-71"/>
       <use x="63.476562" xlink:href="#DejaVuSans-46"/>
       <use x="115.496094" xlink:href="#DejaVuSans-65"/>
       <use x="177.019531" xlink:href="#DejaVuSans-64"/>
       <use x="240.496094" xlink:href="#DejaVuSans-41"/>
       <use x="303.029297" xlink:href="#DejaVuSans-76"/>
       <use x="362.208984" xlink:href="#DejaVuSans-67"/>
       <use x="425.685547" xlink:href="#DejaVuSans-5f"/>
       <use x="475.685547" xlink:href="#DejaVuSans-30"/>
       <use x="539.308594" xlink:href="#DejaVuSans-30"/>
       <use x="602.931641" xlink:href="#DejaVuSans-31"/>
       <use x="666.554688" xlink:href="#DejaVuSans-5f"/>
       <use x="716.554688" xlink:href="#DejaVuSans-77"/>
       <use x="798.341797" xlink:href="#DejaVuSans-20"/>
       <use x="830.128906" xlink:href="#DejaVuSans-43"/>
       <use x="899.953125" xlink:href="#DejaVuSans-4e"/>
       <use x="974.757812" xlink:href="#DejaVuSans-4e"/>
      </g>
     </g>
    </g>
    <g id="xtick_7">
     <g id="line2d_13">
      <path clip-path="url(#pba646adea1)" d="M 518.206667 268.275588 
L 518.206667 16.2 
" style="fill:none;stroke:#b0b0b0;stroke-linecap:square;stroke-width:0.8;"/>
     </g>
     <g id="line2d_14">
      <g>
       <use style="stroke:#000000;stroke-width:0.8;" x="518.206667" xlink:href="#m58b7e1b0f7" y="268.275588"/>
      </g>
     </g>
     <g id="text_7">
      <!-- qFedAvg_1_u CNN -->
      <g transform="translate(419.827121 379.213656)rotate(-45)scale(0.15 -0.15)">
       <use xlink:href="#DejaVuSans-71"/>
       <use x="63.476562" xlink:href="#DejaVuSans-46"/>
       <use x="115.496094" xlink:href="#DejaVuSans-65"/>
       <use x="177.019531" xlink:href="#DejaVuSans-64"/>
       <use x="240.496094" xlink:href="#DejaVuSans-41"/>
       <use x="303.029297" xlink:href="#DejaVuSans-76"/>
       <use x="362.208984" xlink:href="#DejaVuSans-67"/>
       <use x="425.685547" xlink:href="#DejaVuSans-5f"/>
       <use x="475.685547" xlink:href="#DejaVuSans-31"/>
       <use x="539.308594" xlink:href="#DejaVuSans-5f"/>
       <use x="589.308594" xlink:href="#DejaVuSans-75"/>
       <use x="652.6875" xlink:href="#DejaVuSans-20"/>
       <use x="684.474609" xlink:href="#DejaVuSans-43"/>
       <use x="754.298828" xlink:href="#DejaVuSans-4e"/>
       <use x="829.103516" xlink:href="#DejaVuSans-4e"/>
      </g>
     </g>
    </g>
    <g id="text_8">
     <!-- Algorithms -->
     <g transform="translate(269.602891 412.561328)scale(0.15 -0.15)">
      <defs>
       <path d="M 603 4863 
L 1178 4863 
L 1178 0 
L 603 0 
L 603 4863 
z
" id="DejaVuSans-6c" transform="scale(0.015625)"/>
       <path d="M 603 3500 
L 1178 3500 
L 1178 0 
L 603 0 
L 603 3500 
z
M 603 4863 
L 1178 4863 
L 1178 4134 
L 603 4134 
L 603 4863 
z
" id="DejaVuSans-69" transform="scale(0.015625)"/>
       <path d="M 1172 4494 
L 1172 3500 
L 2356 3500 
L 2356 3053 
L 1172 3053 
L 1172 1153 
Q 1172 725 1289 603 
Q 1406 481 1766 481 
L 2356 481 
L 2356 0 
L 1766 0 
Q 1100 0 847 248 
Q 594 497 594 1153 
L 594 3053 
L 172 3053 
L 172 3500 
L 594 3500 
L 594 4494 
L 1172 4494 
z
" id="DejaVuSans-74" transform="scale(0.015625)"/>
       <path d="M 3513 2113 
L 3513 0 
L 2938 0 
L 2938 2094 
Q 2938 2591 2744 2837 
Q 2550 3084 2163 3084 
Q 1697 3084 1428 2787 
Q 1159 2491 1159 1978 
L 1159 0 
L 581 0 
L 581 4863 
L 1159 4863 
L 1159 2956 
Q 1366 3272 1645 3428 
Q 1925 3584 2291 3584 
Q 2894 3584 3203 3211 
Q 3513 2838 3513 2113 
z
" id="DejaVuSans-68" transform="scale(0.015625)"/>
       <path d="M 3328 2828 
Q 3544 3216 3844 3400 
Q 4144 3584 4550 3584 
Q 5097 3584 5394 3201 
Q 5691 2819 5691 2113 
L 5691 0 
L 5113 0 
L 5113 2094 
Q 5113 2597 4934 2840 
Q 4756 3084 4391 3084 
Q 3944 3084 3684 2787 
Q 3425 2491 3425 1978 
L 3425 0 
L 2847 0 
L 2847 2094 
Q 2847 2600 2669 2842 
Q 2491 3084 2119 3084 
Q 1678 3084 1418 2786 
Q 1159 2488 1159 1978 
L 1159 0 
L 581 0 
L 581 3500 
L 1159 3500 
L 1159 2956 
Q 1356 3278 1631 3431 
Q 1906 3584 2284 3584 
Q 2666 3584 2933 3390 
Q 3200 3197 3328 2828 
z
" id="DejaVuSans-6d" transform="scale(0.015625)"/>
       <path d="M 2834 3397 
L 2834 2853 
Q 2591 2978 2328 3040 
Q 2066 3103 1784 3103 
Q 1356 3103 1142 2972 
Q 928 2841 928 2578 
Q 928 2378 1081 2264 
Q 1234 2150 1697 2047 
L 1894 2003 
Q 2506 1872 2764 1633 
Q 3022 1394 3022 966 
Q 3022 478 2636 193 
Q 2250 -91 1575 -91 
Q 1294 -91 989 -36 
Q 684 19 347 128 
L 347 722 
Q 666 556 975 473 
Q 1284 391 1588 391 
Q 1994 391 2212 530 
Q 2431 669 2431 922 
Q 2431 1156 2273 1281 
Q 2116 1406 1581 1522 
L 1381 1569 
Q 847 1681 609 1914 
Q 372 2147 372 2553 
Q 372 3047 722 3315 
Q 1072 3584 1716 3584 
Q 2034 3584 2315 3537 
Q 2597 3491 2834 3397 
z
" id="DejaVuSans-73" transform="scale(0.015625)"/>
      </defs>
      <use xlink:href="#DejaVuSans-41"/>
      <use x="68.408203" xlink:href="#DejaVuSans-6c"/>
      <use x="96.191406" xlink:href="#DejaVuSans-67"/>
      <use x="159.667969" xlink:href="#DejaVuSans-6f"/>
      <use x="220.849609" xlink:href="#DejaVuSans-72"/>
      <use x="261.962891" xlink:href="#DejaVuSans-69"/>
      <use x="289.746094" xlink:href="#DejaVuSans-74"/>
      <use x="328.955078" xlink:href="#DejaVuSans-68"/>
      <use x="392.333984" xlink:href="#DejaVuSans-6d"/>
      <use x="489.746094" xlink:href="#DejaVuSans-73"/>
     </g>
    </g>
   </g>
   <g id="matplotlib.axis_2">
    <g id="ytick_1">
     <g id="line2d_15">
      <path clip-path="url(#pba646adea1)" d="M 60.68 214.306746 
L 559.8 214.306746 
" style="fill:none;stroke:#b0b0b0;stroke-linecap:square;stroke-width:0.8;"/>
     </g>
     <g id="line2d_16">
      <defs>
       <path d="M 0 0 
L -3.5 0 
" id="mf59894e16d" style="stroke:#000000;stroke-width:0.8;"/>
      </defs>
      <g>
       <use style="stroke:#000000;stroke-width:0.8;" x="60.68" xlink:href="#mf59894e16d" y="214.306746"/>
      </g>
     </g>
     <g id="text_9">
      <!-- 4 -->
      <g transform="translate(44.13625 220.005574)scale(0.15 -0.15)">
       <defs>
        <path d="M 2419 4116 
L 825 1625 
L 2419 1625 
L 2419 4116 
z
M 2253 4666 
L 3047 4666 
L 3047 1625 
L 3713 1625 
L 3713 1100 
L 3047 1100 
L 3047 0 
L 2419 0 
L 2419 1100 
L 313 1100 
L 313 1709 
L 2253 4666 
z
" id="DejaVuSans-34" transform="scale(0.015625)"/>
       </defs>
       <use xlink:href="#DejaVuSans-34"/>
      </g>
     </g>
    </g>
    <g id="ytick_2">
     <g id="line2d_17">
      <path clip-path="url(#pba646adea1)" d="M 60.68 154.934688 
L 559.8 154.934688 
" style="fill:none;stroke:#b0b0b0;stroke-linecap:square;stroke-width:0.8;"/>
     </g>
     <g id="line2d_18">
      <g>
       <use style="stroke:#000000;stroke-width:0.8;" x="60.68" xlink:href="#mf59894e16d" y="154.934688"/>
      </g>
     </g>
     <g id="text_10">
      <!-- 6 -->
      <g transform="translate(44.13625 160.633516)scale(0.15 -0.15)">
       <defs>
        <path d="M 2113 2584 
Q 1688 2584 1439 2293 
Q 1191 2003 1191 1497 
Q 1191 994 1439 701 
Q 1688 409 2113 409 
Q 2538 409 2786 701 
Q 3034 994 3034 1497 
Q 3034 2003 2786 2293 
Q 2538 2584 2113 2584 
z
M 3366 4563 
L 3366 3988 
Q 3128 4100 2886 4159 
Q 2644 4219 2406 4219 
Q 1781 4219 1451 3797 
Q 1122 3375 1075 2522 
Q 1259 2794 1537 2939 
Q 1816 3084 2150 3084 
Q 2853 3084 3261 2657 
Q 3669 2231 3669 1497 
Q 3669 778 3244 343 
Q 2819 -91 2113 -91 
Q 1303 -91 875 529 
Q 447 1150 447 2328 
Q 447 3434 972 4092 
Q 1497 4750 2381 4750 
Q 2619 4750 2861 4703 
Q 3103 4656 3366 4563 
z
" id="DejaVuSans-36" transform="scale(0.015625)"/>
       </defs>
       <use xlink:href="#DejaVuSans-36"/>
      </g>
     </g>
    </g>
    <g id="ytick_3">
     <g id="line2d_19">
      <path clip-path="url(#pba646adea1)" d="M 60.68 95.562629 
L 559.8 95.562629 
" style="fill:none;stroke:#b0b0b0;stroke-linecap:square;stroke-width:0.8;"/>
     </g>
     <g id="line2d_20">
      <g>
       <use style="stroke:#000000;stroke-width:0.8;" x="60.68" xlink:href="#mf59894e16d" y="95.562629"/>
      </g>
     </g>
     <g id="text_11">
      <!-- 8 -->
      <g transform="translate(44.13625 101.261457)scale(0.15 -0.15)">
       <defs>
        <path d="M 2034 2216 
Q 1584 2216 1326 1975 
Q 1069 1734 1069 1313 
Q 1069 891 1326 650 
Q 1584 409 2034 409 
Q 2484 409 2743 651 
Q 3003 894 3003 1313 
Q 3003 1734 2745 1975 
Q 2488 2216 2034 2216 
z
M 1403 2484 
Q 997 2584 770 2862 
Q 544 3141 544 3541 
Q 544 4100 942 4425 
Q 1341 4750 2034 4750 
Q 2731 4750 3128 4425 
Q 3525 4100 3525 3541 
Q 3525 3141 3298 2862 
Q 3072 2584 2669 2484 
Q 3125 2378 3379 2068 
Q 3634 1759 3634 1313 
Q 3634 634 3220 271 
Q 2806 -91 2034 -91 
Q 1263 -91 848 271 
Q 434 634 434 1313 
Q 434 1759 690 2068 
Q 947 2378 1403 2484 
z
M 1172 3481 
Q 1172 3119 1398 2916 
Q 1625 2713 2034 2713 
Q 2441 2713 2670 2916 
Q 2900 3119 2900 3481 
Q 2900 3844 2670 4047 
Q 2441 4250 2034 4250 
Q 1625 4250 1398 4047 
Q 1172 3844 1172 3481 
z
" id="DejaVuSans-38" transform="scale(0.015625)"/>
       </defs>
       <use xlink:href="#DejaVuSans-38"/>
      </g>
     </g>
    </g>
    <g id="ytick_4">
     <g id="line2d_21">
      <path clip-path="url(#pba646adea1)" d="M 60.68 36.19057 
L 559.8 36.19057 
" style="fill:none;stroke:#b0b0b0;stroke-linecap:square;stroke-width:0.8;"/>
     </g>
     <g id="line2d_22">
      <g>
       <use style="stroke:#000000;stroke-width:0.8;" x="60.68" xlink:href="#mf59894e16d" y="36.19057"/>
      </g>
     </g>
     <g id="text_12">
      <!-- 10 -->
      <g transform="translate(34.5925 41.889398)scale(0.15 -0.15)">
       <use xlink:href="#DejaVuSans-31"/>
       <use x="63.623047" xlink:href="#DejaVuSans-30"/>
      </g>
     </g>
    </g>
    <g id="text_13">
     <!-- Entropy -->
     <g transform="translate(27.472969 171.374122)rotate(-90)scale(0.15 -0.15)">
      <defs>
       <path d="M 628 4666 
L 3578 4666 
L 3578 4134 
L 1259 4134 
L 1259 2753 
L 3481 2753 
L 3481 2222 
L 1259 2222 
L 1259 531 
L 3634 531 
L 3634 0 
L 628 0 
L 628 4666 
z
" id="DejaVuSans-45" transform="scale(0.015625)"/>
       <path d="M 3513 2113 
L 3513 0 
L 2938 0 
L 2938 2094 
Q 2938 2591 2744 2837 
Q 2550 3084 2163 3084 
Q 1697 3084 1428 2787 
Q 1159 2491 1159 1978 
L 1159 0 
L 581 0 
L 581 3500 
L 1159 3500 
L 1159 2956 
Q 1366 3272 1645 3428 
Q 1925 3584 2291 3584 
Q 2894 3584 3203 3211 
Q 3513 2838 3513 2113 
z
" id="DejaVuSans-6e" transform="scale(0.015625)"/>
       <path d="M 1159 525 
L 1159 -1331 
L 581 -1331 
L 581 3500 
L 1159 3500 
L 1159 2969 
Q 1341 3281 1617 3432 
Q 1894 3584 2278 3584 
Q 2916 3584 3314 3078 
Q 3713 2572 3713 1747 
Q 3713 922 3314 415 
Q 2916 -91 2278 -91 
Q 1894 -91 1617 61 
Q 1341 213 1159 525 
z
M 3116 1747 
Q 3116 2381 2855 2742 
Q 2594 3103 2138 3103 
Q 1681 3103 1420 2742 
Q 1159 2381 1159 1747 
Q 1159 1113 1420 752 
Q 1681 391 2138 391 
Q 2594 391 2855 752 
Q 3116 1113 3116 1747 
z
" id="DejaVuSans-70" transform="scale(0.015625)"/>
       <path d="M 2059 -325 
Q 1816 -950 1584 -1140 
Q 1353 -1331 966 -1331 
L 506 -1331 
L 506 -850 
L 844 -850 
Q 1081 -850 1212 -737 
Q 1344 -625 1503 -206 
L 1606 56 
L 191 3500 
L 800 3500 
L 1894 763 
L 2988 3500 
L 3597 3500 
L 2059 -325 
z
" id="DejaVuSans-79" transform="scale(0.015625)"/>
      </defs>
      <use xlink:href="#DejaVuSans-45"/>
      <use x="63.183594" xlink:href="#DejaVuSans-6e"/>
      <use x="126.5625" xlink:href="#DejaVuSans-74"/>
      <use x="165.771484" xlink:href="#DejaVuSans-72"/>
      <use x="204.634766" xlink:href="#DejaVuSans-6f"/>
      <use x="265.816406" xlink:href="#DejaVuSans-70"/>
      <use x="329.292969" xlink:href="#DejaVuSans-79"/>
     </g>
    </g>
   </g>
   <g id="LineCollection_1">
    <path clip-path="url(#pba646adea1)" d="M 102.273333 242.719267 
L 102.273333 239.574047 
" style="fill:none;stroke:#000000;stroke-width:3;"/>
    <path clip-path="url(#pba646adea1)" d="M 171.595556 243.812 
L 171.595556 238.307782 
" style="fill:none;stroke:#000000;stroke-width:3;"/>
    <path clip-path="url(#pba646adea1)" d="M 240.917778 244.878591 
L 240.917778 235.748909 
" style="fill:none;stroke:#000000;stroke-width:3;"/>
    <path clip-path="url(#pba646adea1)" d="M 310.24 243.435466 
L 310.24 235.584365 
" style="fill:none;stroke:#000000;stroke-width:3;"/>
    <path clip-path="url(#pba646adea1)" d="M 379.562222 197.242488 
L 379.562222 190.183981 
" style="fill:none;stroke:#000000;stroke-width:3;"/>
    <path clip-path="url(#pba646adea1)" d="M 448.884444 243.757548 
L 448.884444 231.595366 
" style="fill:none;stroke:#000000;stroke-width:3;"/>
    <path clip-path="url(#pba646adea1)" d="M 518.206667 195.064701 
L 518.206667 186.182271 
" style="fill:none;stroke:#000000;stroke-width:3;"/>
   </g>
   <g id="LineCollection_2">
    <path clip-path="url(#pba646adea1)" d="M 102.273333 244.097808 
L 102.273333 239.490392 
" style="fill:none;stroke:#000000;"/>
    <path clip-path="url(#pba646adea1)" d="M 171.595556 246.102698 
L 171.595556 237.681732 
" style="fill:none;stroke:#000000;"/>
    <path clip-path="url(#pba646adea1)" d="M 240.917778 246.554502 
L 240.917778 232.929662 
" style="fill:none;stroke:#000000;"/>
    <path clip-path="url(#pba646adea1)" d="M 310.24 245.002898 
L 310.24 233.464657 
" style="fill:none;stroke:#000000;"/>
    <path clip-path="url(#pba646adea1)" d="M 379.562222 198.717044 
L 379.562222 188.44086 
" style="fill:none;stroke:#000000;"/>
    <path clip-path="url(#pba646adea1)" d="M 448.884444 247.269289 
L 448.884444 229.648538 
" style="fill:none;stroke:#000000;"/>
    <path clip-path="url(#pba646adea1)" d="M 518.206667 195.177012 
L 518.206667 182.741441 
" style="fill:none;stroke:#000000;"/>
   </g>
   <g id="LineCollection_3">
    <path clip-path="url(#pba646adea1)" d="M 102.273333 37.206299 
L 102.273333 37.206299 
" style="fill:none;stroke:#ff0000;"/>
    <path clip-path="url(#pba646adea1)" d="M 171.595556 37.206299 
L 171.595556 37.206299 
" style="fill:none;stroke:#ff0000;"/>
    <path clip-path="url(#pba646adea1)" d="M 240.917778 37.206299 
L 240.917778 37.206299 
" style="fill:none;stroke:#ff0000;"/>
    <path clip-path="url(#pba646adea1)" d="M 310.24 37.206299 
L 310.24 37.206299 
" style="fill:none;stroke:#ff0000;"/>
    <path clip-path="url(#pba646adea1)" d="M 379.562222 37.206299 
L 379.562222 37.206299 
" style="fill:none;stroke:#ff0000;"/>
    <path clip-path="url(#pba646adea1)" d="M 448.884444 37.206299 
L 448.884444 37.206299 
" style="fill:none;stroke:#ff0000;"/>
    <path clip-path="url(#pba646adea1)" d="M 518.206667 37.206299 
L 518.206667 37.206299 
" style="fill:none;stroke:#ff0000;"/>
   </g>
   <g id="line2d_23">
    <defs>
     <path d="M 0 3 
C 0.795609 3 1.55874 2.683901 2.12132 2.12132 
C 2.683901 1.55874 3 0.795609 3 0 
C 3 -0.795609 2.683901 -1.55874 2.12132 -2.12132 
C 1.55874 -2.683901 0.795609 -3 0 -3 
C -0.795609 -3 -1.55874 -2.683901 -2.12132 -2.12132 
C -2.683901 -1.55874 -3 -0.795609 -3 0 
C -3 0.795609 -2.683901 1.55874 -2.12132 2.12132 
C -1.55874 2.683901 -0.795609 3 0 3 
z
" id="m966d696bf2" style="stroke:#000000;"/>
    </defs>
    <g clip-path="url(#pba646adea1)">
     <use style="stroke:#000000;" x="102.273333" xlink:href="#m966d696bf2" y="241.146657"/>
     <use style="stroke:#000000;" x="171.595556" xlink:href="#m966d696bf2" y="241.059891"/>
     <use style="stroke:#000000;" x="240.917778" xlink:href="#m966d696bf2" y="240.31375"/>
     <use style="stroke:#000000;" x="310.24" xlink:href="#m966d696bf2" y="239.509916"/>
     <use style="stroke:#000000;" x="379.562222" xlink:href="#m966d696bf2" y="193.713234"/>
     <use style="stroke:#000000;" x="448.884444" xlink:href="#m966d696bf2" y="237.676457"/>
     <use style="stroke:#000000;" x="518.206667" xlink:href="#m966d696bf2" y="190.623486"/>
    </g>
   </g>
   <g id="line2d_24">
    <defs>
     <path d="M 0 1.5 
C 0.397805 1.5 0.77937 1.341951 1.06066 1.06066 
C 1.341951 0.77937 1.5 0.397805 1.5 0 
C 1.5 -0.397805 1.341951 -0.77937 1.06066 -1.06066 
C 0.77937 -1.341951 0.397805 -1.5 0 -1.5 
C -0.397805 -1.5 -0.77937 -1.341951 -1.06066 -1.06066 
C -1.341951 -0.77937 -1.5 -0.397805 -1.5 0 
C -1.5 0.397805 -1.341951 0.77937 -1.06066 1.06066 
C -0.77937 1.341951 -0.397805 1.5 0 1.5 
z
" id="m0aea10415d" style="stroke:#000000;"/>
    </defs>
    <g clip-path="url(#pba646adea1)">
     <use style="stroke:#000000;" x="102.273333" xlink:href="#m0aea10415d" y="241.146657"/>
     <use style="stroke:#000000;" x="171.595556" xlink:href="#m0aea10415d" y="241.059891"/>
     <use style="stroke:#000000;" x="240.917778" xlink:href="#m0aea10415d" y="240.31375"/>
     <use style="stroke:#000000;" x="310.24" xlink:href="#m0aea10415d" y="239.509916"/>
     <use style="stroke:#000000;" x="379.562222" xlink:href="#m0aea10415d" y="193.713234"/>
     <use style="stroke:#000000;" x="448.884444" xlink:href="#m0aea10415d" y="237.676457"/>
     <use style="stroke:#000000;" x="518.206667" xlink:href="#m0aea10415d" y="190.623486"/>
    </g>
   </g>
   <g id="line2d_25">
    <defs>
     <path d="M -0 4.242641 
L 4.242641 0 
L 0 -4.242641 
L -4.242641 -0 
z
" id="mf85412ce5f" style="stroke:#ff0000;stroke-linejoin:miter;"/>
    </defs>
    <g clip-path="url(#pba646adea1)">
     <use style="fill:#ff0000;stroke:#ff0000;stroke-linejoin:miter;" x="102.273333" xlink:href="#mf85412ce5f" y="37.206299"/>
     <use style="fill:#ff0000;stroke:#ff0000;stroke-linejoin:miter;" x="171.595556" xlink:href="#mf85412ce5f" y="37.206299"/>
     <use style="fill:#ff0000;stroke:#ff0000;stroke-linejoin:miter;" x="240.917778" xlink:href="#mf85412ce5f" y="37.206299"/>
     <use style="fill:#ff0000;stroke:#ff0000;stroke-linejoin:miter;" x="310.24" xlink:href="#mf85412ce5f" y="37.206299"/>
     <use style="fill:#ff0000;stroke:#ff0000;stroke-linejoin:miter;" x="379.562222" xlink:href="#mf85412ce5f" y="37.206299"/>
     <use style="fill:#ff0000;stroke:#ff0000;stroke-linejoin:miter;" x="448.884444" xlink:href="#mf85412ce5f" y="37.206299"/>
     <use style="fill:#ff0000;stroke:#ff0000;stroke-linejoin:miter;" x="518.206667" xlink:href="#mf85412ce5f" y="37.206299"/>
    </g>
   </g>
   <g id="patch_3">
    <path d="M 60.68 268.275588 
L 60.68 16.2 
" style="fill:none;stroke:#000000;stroke-linecap:square;stroke-linejoin:miter;stroke-width:0.8;"/>
   </g>
   <g id="patch_4">
    <path d="M 559.8 268.275588 
L 559.8 16.2 
" style="fill:none;stroke:#000000;stroke-linecap:square;stroke-linejoin:miter;stroke-width:0.8;"/>
   </g>
   <g id="patch_5">
    <path d="M 60.68 268.275588 
L 559.8 268.275588 
" style="fill:none;stroke:#000000;stroke-linecap:square;stroke-linejoin:miter;stroke-width:0.8;"/>
   </g>
   <g id="patch_6">
    <path d="M 60.68 16.2 
L 559.8 16.2 
" style="fill:none;stroke:#000000;stroke-linecap:square;stroke-linejoin:miter;stroke-width:0.8;"/>
   </g>
   <g id="axes_2">
    <g id="patch_7">
     <path d="M 75.6536 129.634015 
L 125.5656 129.634015 
L 125.5656 66.615118 
L 75.6536 66.615118 
z
" style="fill:#ffffff;"/>
    </g>
    <g id="patch_8">
     <path clip-path="url(#p82db88a09a)" d="M 124.97171 129.634015 
L 124.987379 129.634015 
L 124.987379 125.88289 
L 124.97171 125.88289 
z
" style="fill:#1f77b4;"/>
    </g>
    <g id="patch_9">
     <path clip-path="url(#p82db88a09a)" d="M 124.987379 129.634015 
L 125.003048 129.634015 
L 125.003048 129.634015 
L 124.987379 129.634015 
z
" style="fill:#1f77b4;"/>
    </g>
    <g id="patch_10">
     <path clip-path="url(#p82db88a09a)" d="M 125.003048 129.634015 
L 125.018716 129.634015 
L 125.018716 129.634015 
L 125.003048 129.634015 
z
" style="fill:#1f77b4;"/>
    </g>
    <g id="patch_11">
     <path clip-path="url(#p82db88a09a)" d="M 125.018716 129.634015 
L 125.034385 129.634015 
L 125.034385 129.634015 
L 125.018716 129.634015 
z
" style="fill:#1f77b4;"/>
    </g>
    <g id="patch_12">
     <path clip-path="url(#p82db88a09a)" d="M 125.034385 129.634015 
L 125.050053 129.634015 
L 125.050053 129.634015 
L 125.034385 129.634015 
z
" style="fill:#1f77b4;"/>
    </g>
    <g id="patch_13">
     <path clip-path="url(#p82db88a09a)" d="M 125.050053 129.634015 
L 125.065722 129.634015 
L 125.065722 129.634015 
L 125.050053 129.634015 
z
" style="fill:#1f77b4;"/>
    </g>
    <g id="patch_14">
     <path clip-path="url(#p82db88a09a)" d="M 125.065722 129.634015 
L 125.08139 129.634015 
L 125.08139 114.629515 
L 125.065722 114.629515 
z
" style="fill:#1f77b4;"/>
    </g>
    <g id="patch_15">
     <path clip-path="url(#p82db88a09a)" d="M 125.08139 129.634015 
L 125.097059 129.634015 
L 125.097059 110.87839 
L 125.08139 110.87839 
z
" style="fill:#1f77b4;"/>
    </g>
    <g id="patch_16">
     <path clip-path="url(#p82db88a09a)" d="M 125.097059 129.634015 
L 125.112728 129.634015 
L 125.112728 99.625016 
L 125.097059 99.625016 
z
" style="fill:#1f77b4;"/>
    </g>
    <g id="patch_17">
     <path clip-path="url(#p82db88a09a)" d="M 125.112728 129.634015 
L 125.128396 129.634015 
L 125.128396 125.88289 
L 125.112728 125.88289 
z
" style="fill:#1f77b4;"/>
    </g>
    <g id="patch_18">
     <path clip-path="url(#p82db88a09a)" d="M 125.128396 129.634015 
L 125.144065 129.634015 
L 125.144065 99.625016 
L 125.128396 99.625016 
z
" style="fill:#1f77b4;"/>
    </g>
    <g id="patch_19">
     <path clip-path="url(#p82db88a09a)" d="M 125.144065 129.634015 
L 125.159733 129.634015 
L 125.159733 95.873891 
L 125.144065 95.873891 
z
" style="fill:#1f77b4;"/>
    </g>
    <g id="patch_20">
     <path clip-path="url(#p82db88a09a)" d="M 125.159733 129.634015 
L 125.175402 129.634015 
L 125.175402 88.371642 
L 125.159733 88.371642 
z
" style="fill:#1f77b4;"/>
    </g>
    <g id="patch_21">
     <path clip-path="url(#p82db88a09a)" d="M 125.175402 129.634015 
L 125.19107 129.634015 
L 125.19107 107.127266 
L 125.175402 107.127266 
z
" style="fill:#1f77b4;"/>
    </g>
    <g id="patch_22">
     <path clip-path="url(#p82db88a09a)" d="M 125.19107 129.634015 
L 125.206739 129.634015 
L 125.206739 99.625016 
L 125.19107 99.625016 
z
" style="fill:#1f77b4;"/>
    </g>
    <g id="patch_23">
     <path clip-path="url(#p82db88a09a)" d="M 125.206739 129.634015 
L 125.222408 129.634015 
L 125.222408 110.87839 
L 125.206739 110.87839 
z
" style="fill:#1f77b4;"/>
    </g>
    <g id="patch_24">
     <path clip-path="url(#p82db88a09a)" d="M 125.222408 129.634015 
L 125.238076 129.634015 
L 125.238076 69.616017 
L 125.222408 69.616017 
z
" style="fill:#1f77b4;"/>
    </g>
    <g id="patch_25">
     <path clip-path="url(#p82db88a09a)" d="M 125.238076 129.634015 
L 125.253745 129.634015 
L 125.253745 114.629515 
L 125.238076 114.629515 
z
" style="fill:#1f77b4;"/>
    </g>
    <g id="patch_26">
     <path clip-path="url(#p82db88a09a)" d="M 125.253745 129.634015 
L 125.269413 129.634015 
L 125.269413 114.629515 
L 125.253745 114.629515 
z
" style="fill:#1f77b4;"/>
    </g>
    <g id="patch_27">
     <path clip-path="url(#p82db88a09a)" d="M 125.269413 129.634015 
L 125.285082 129.634015 
L 125.285082 110.87839 
L 125.269413 110.87839 
z
" style="fill:#1f77b4;"/>
    </g>
    <g id="patch_28">
     <path clip-path="url(#p82db88a09a)" d="M 125.285082 129.634015 
L 125.300751 129.634015 
L 125.300751 122.131765 
L 125.285082 122.131765 
z
" style="fill:#1f77b4;"/>
    </g>
    <g id="patch_29">
     <path clip-path="url(#p82db88a09a)" d="M 125.300751 129.634015 
L 125.316419 129.634015 
L 125.316419 122.131765 
L 125.300751 122.131765 
z
" style="fill:#1f77b4;"/>
    </g>
    <g id="patch_30">
     <path clip-path="url(#p82db88a09a)" d="M 125.316419 129.634015 
L 125.332088 129.634015 
L 125.332088 129.634015 
L 125.316419 129.634015 
z
" style="fill:#1f77b4;"/>
    </g>
    <g id="patch_31">
     <path clip-path="url(#p82db88a09a)" d="M 125.332088 129.634015 
L 125.347756 129.634015 
L 125.347756 129.634015 
L 125.332088 129.634015 
z
" style="fill:#1f77b4;"/>
    </g>
    <g id="patch_32">
     <path clip-path="url(#p82db88a09a)" d="M 125.347756 129.634015 
L 125.363425 129.634015 
L 125.363425 125.88289 
L 125.347756 125.88289 
z
" style="fill:#1f77b4;"/>
    </g>
    <g id="patch_33">
     <path d="M 75.6536 129.634015 
L 75.6536 66.615118 
" style="fill:none;stroke:#000000;stroke-linecap:square;stroke-linejoin:miter;stroke-width:0.8;"/>
    </g>
    <g id="patch_34">
     <path d="M 125.5656 129.634015 
L 125.5656 66.615118 
" style="fill:none;stroke:#000000;stroke-linecap:square;stroke-linejoin:miter;stroke-width:0.8;"/>
    </g>
    <g id="patch_35">
     <path d="M 75.6536 129.634015 
L 125.5656 129.634015 
" style="fill:none;stroke:#000000;stroke-linecap:square;stroke-linejoin:miter;stroke-width:0.8;"/>
    </g>
    <g id="patch_36">
     <path d="M 75.6536 66.615118 
L 125.5656 66.615118 
" style="fill:none;stroke:#000000;stroke-linecap:square;stroke-linejoin:miter;stroke-width:0.8;"/>
    </g>
   </g>
   <g id="axes_3">
    <g id="patch_37">
     <path d="M 145.28084 129.634015 
L 195.19284 129.634015 
L 195.19284 66.615118 
L 145.28084 66.615118 
z
" style="fill:#ffffff;"/>
    </g>
    <g id="patch_38">
     <path clip-path="url(#p149a5d2b8f)" d="M 194.649494 129.634015 
L 194.66213 129.634015 
L 194.66213 108.199016 
L 194.649494 108.199016 
z
" style="fill:#1f77b4;"/>
    </g>
    <g id="patch_39">
     <path clip-path="url(#p149a5d2b8f)" d="M 194.66213 129.634015 
L 194.674766 129.634015 
L 194.674766 121.060015 
L 194.66213 121.060015 
z
" style="fill:#1f77b4;"/>
    </g>
    <g id="patch_40">
     <path clip-path="url(#p149a5d2b8f)" d="M 194.674766 129.634015 
L 194.687402 129.634015 
L 194.687402 112.486015 
L 194.674766 112.486015 
z
" style="fill:#1f77b4;"/>
    </g>
    <g id="patch_41">
     <path clip-path="url(#p149a5d2b8f)" d="M 194.687402 129.634015 
L 194.700038 129.634015 
L 194.700038 129.634015 
L 194.687402 129.634015 
z
" style="fill:#1f77b4;"/>
    </g>
    <g id="patch_42">
     <path clip-path="url(#p149a5d2b8f)" d="M 194.700038 129.634015 
L 194.712674 129.634015 
L 194.712674 108.199016 
L 194.700038 108.199016 
z
" style="fill:#1f77b4;"/>
    </g>
    <g id="patch_43">
     <path clip-path="url(#p149a5d2b8f)" d="M 194.712674 129.634015 
L 194.72531 129.634015 
L 194.72531 121.060015 
L 194.712674 121.060015 
z
" style="fill:#1f77b4;"/>
    </g>
    <g id="patch_44">
     <path clip-path="url(#p149a5d2b8f)" d="M 194.72531 129.634015 
L 194.737946 129.634015 
L 194.737946 99.625016 
L 194.72531 99.625016 
z
" style="fill:#1f77b4;"/>
    </g>
    <g id="patch_45">
     <path clip-path="url(#p149a5d2b8f)" d="M 194.737946 129.634015 
L 194.750582 129.634015 
L 194.750582 108.199016 
L 194.737946 108.199016 
z
" style="fill:#1f77b4;"/>
    </g>
    <g id="patch_46">
     <path clip-path="url(#p149a5d2b8f)" d="M 194.750582 129.634015 
L 194.763218 129.634015 
L 194.763218 125.347015 
L 194.750582 125.347015 
z
" style="fill:#1f77b4;"/>
    </g>
    <g id="patch_47">
     <path clip-path="url(#p149a5d2b8f)" d="M 194.763218 129.634015 
L 194.775854 129.634015 
L 194.775854 112.486015 
L 194.763218 112.486015 
z
" style="fill:#1f77b4;"/>
    </g>
    <g id="patch_48">
     <path clip-path="url(#p149a5d2b8f)" d="M 194.775854 129.634015 
L 194.78849 129.634015 
L 194.78849 69.616017 
L 194.775854 69.616017 
z
" style="fill:#1f77b4;"/>
    </g>
    <g id="patch_49">
     <path clip-path="url(#p149a5d2b8f)" d="M 194.78849 129.634015 
L 194.801126 129.634015 
L 194.801126 95.338016 
L 194.78849 95.338016 
z
" style="fill:#1f77b4;"/>
    </g>
    <g id="patch_50">
     <path clip-path="url(#p149a5d2b8f)" d="M 194.801126 129.634015 
L 194.813762 129.634015 
L 194.813762 82.477017 
L 194.801126 82.477017 
z
" style="fill:#1f77b4;"/>
    </g>
    <g id="patch_51">
     <path clip-path="url(#p149a5d2b8f)" d="M 194.813762 129.634015 
L 194.826397 129.634015 
L 194.826397 121.060015 
L 194.813762 121.060015 
z
" style="fill:#1f77b4;"/>
    </g>
    <g id="patch_52">
     <path clip-path="url(#p149a5d2b8f)" d="M 194.826397 129.634015 
L 194.839033 129.634015 
L 194.839033 95.338016 
L 194.826397 95.338016 
z
" style="fill:#1f77b4;"/>
    </g>
    <g id="patch_53">
     <path clip-path="url(#p149a5d2b8f)" d="M 194.839033 129.634015 
L 194.851669 129.634015 
L 194.851669 99.625016 
L 194.839033 99.625016 
z
" style="fill:#1f77b4;"/>
    </g>
    <g id="patch_54">
     <path clip-path="url(#p149a5d2b8f)" d="M 194.851669 129.634015 
L 194.864305 129.634015 
L 194.864305 108.199016 
L 194.851669 108.199016 
z
" style="fill:#1f77b4;"/>
    </g>
    <g id="patch_55">
     <path clip-path="url(#p149a5d2b8f)" d="M 194.864305 129.634015 
L 194.876941 129.634015 
L 194.876941 121.060015 
L 194.864305 121.060015 
z
" style="fill:#1f77b4;"/>
    </g>
    <g id="patch_56">
     <path clip-path="url(#p149a5d2b8f)" d="M 194.876941 129.634015 
L 194.889577 129.634015 
L 194.889577 112.486015 
L 194.876941 112.486015 
z
" style="fill:#1f77b4;"/>
    </g>
    <g id="patch_57">
     <path clip-path="url(#p149a5d2b8f)" d="M 194.889577 129.634015 
L 194.902213 129.634015 
L 194.902213 129.634015 
L 194.889577 129.634015 
z
" style="fill:#1f77b4;"/>
    </g>
    <g id="patch_58">
     <path clip-path="url(#p149a5d2b8f)" d="M 194.902213 129.634015 
L 194.914849 129.634015 
L 194.914849 121.060015 
L 194.902213 121.060015 
z
" style="fill:#1f77b4;"/>
    </g>
    <g id="patch_59">
     <path clip-path="url(#p149a5d2b8f)" d="M 194.914849 129.634015 
L 194.927485 129.634015 
L 194.927485 129.634015 
L 194.914849 129.634015 
z
" style="fill:#1f77b4;"/>
    </g>
    <g id="patch_60">
     <path clip-path="url(#p149a5d2b8f)" d="M 194.927485 129.634015 
L 194.940121 129.634015 
L 194.940121 125.347015 
L 194.927485 125.347015 
z
" style="fill:#1f77b4;"/>
    </g>
    <g id="patch_61">
     <path clip-path="url(#p149a5d2b8f)" d="M 194.940121 129.634015 
L 194.952757 129.634015 
L 194.952757 129.634015 
L 194.940121 129.634015 
z
" style="fill:#1f77b4;"/>
    </g>
    <g id="patch_62">
     <path clip-path="url(#p149a5d2b8f)" d="M 194.952757 129.634015 
L 194.965393 129.634015 
L 194.965393 125.347015 
L 194.952757 125.347015 
z
" style="fill:#1f77b4;"/>
    </g>
    <g id="patch_63">
     <path d="M 145.28084 129.634015 
L 145.28084 66.615118 
" style="fill:none;stroke:#000000;stroke-linecap:square;stroke-linejoin:miter;stroke-width:0.8;"/>
    </g>
    <g id="patch_64">
     <path d="M 195.19284 129.634015 
L 195.19284 66.615118 
" style="fill:none;stroke:#000000;stroke-linecap:square;stroke-linejoin:miter;stroke-width:0.8;"/>
    </g>
    <g id="patch_65">
     <path d="M 145.28084 129.634015 
L 195.19284 129.634015 
" style="fill:none;stroke:#000000;stroke-linecap:square;stroke-linejoin:miter;stroke-width:0.8;"/>
    </g>
    <g id="patch_66">
     <path d="M 145.28084 66.615118 
L 195.19284 66.615118 
" style="fill:none;stroke:#000000;stroke-linecap:square;stroke-linejoin:miter;stroke-width:0.8;"/>
    </g>
   </g>
   <g id="axes_4">
    <g id="patch_67">
     <path d="M 214.90808 129.634015 
L 264.82008 129.634015 
L 264.82008 66.615118 
L 214.90808 66.615118 
z
" style="fill:#ffffff;"/>
    </g>
    <g id="patch_68">
     <path clip-path="url(#pce02c22554)" d="M 264.200918 129.634015 
L 264.215071 129.634015 
L 264.215071 125.347015 
L 264.200918 125.347015 
z
" style="fill:#1f77b4;"/>
    </g>
    <g id="patch_69">
     <path clip-path="url(#pce02c22554)" d="M 264.215071 129.634015 
L 264.229223 129.634015 
L 264.229223 129.634015 
L 264.215071 129.634015 
z
" style="fill:#1f77b4;"/>
    </g>
    <g id="patch_70">
     <path clip-path="url(#pce02c22554)" d="M 264.229223 129.634015 
L 264.243375 129.634015 
L 264.243375 125.347015 
L 264.229223 125.347015 
z
" style="fill:#1f77b4;"/>
    </g>
    <g id="patch_71">
     <path clip-path="url(#pce02c22554)" d="M 264.243375 129.634015 
L 264.257528 129.634015 
L 264.257528 116.773015 
L 264.243375 116.773015 
z
" style="fill:#1f77b4;"/>
    </g>
    <g id="patch_72">
     <path clip-path="url(#pce02c22554)" d="M 264.257528 129.634015 
L 264.27168 129.634015 
L 264.27168 125.347015 
L 264.257528 125.347015 
z
" style="fill:#1f77b4;"/>
    </g>
    <g id="patch_73">
     <path clip-path="url(#pce02c22554)" d="M 264.27168 129.634015 
L 264.285832 129.634015 
L 264.285832 125.347015 
L 264.27168 125.347015 
z
" style="fill:#1f77b4;"/>
    </g>
    <g id="patch_74">
     <path clip-path="url(#pce02c22554)" d="M 264.285832 129.634015 
L 264.299984 129.634015 
L 264.299984 116.773015 
L 264.285832 116.773015 
z
" style="fill:#1f77b4;"/>
    </g>
    <g id="patch_75">
     <path clip-path="url(#pce02c22554)" d="M 264.299984 129.634015 
L 264.314137 129.634015 
L 264.314137 121.060015 
L 264.299984 121.060015 
z
" style="fill:#1f77b4;"/>
    </g>
    <g id="patch_76">
     <path clip-path="url(#pce02c22554)" d="M 264.314137 129.634015 
L 264.328289 129.634015 
L 264.328289 121.060015 
L 264.314137 121.060015 
z
" style="fill:#1f77b4;"/>
    </g>
    <g id="patch_77">
     <path clip-path="url(#pce02c22554)" d="M 264.328289 129.634015 
L 264.342441 129.634015 
L 264.342441 112.486015 
L 264.328289 112.486015 
z
" style="fill:#1f77b4;"/>
    </g>
    <g id="patch_78">
     <path clip-path="url(#pce02c22554)" d="M 264.342441 129.634015 
L 264.356593 129.634015 
L 264.356593 103.912016 
L 264.342441 103.912016 
z
" style="fill:#1f77b4;"/>
    </g>
    <g id="patch_79">
     <path clip-path="url(#pce02c22554)" d="M 264.356593 129.634015 
L 264.370746 129.634015 
L 264.370746 108.199016 
L 264.356593 108.199016 
z
" style="fill:#1f77b4;"/>
    </g>
    <g id="patch_80">
     <path clip-path="url(#pce02c22554)" d="M 264.370746 129.634015 
L 264.384898 129.634015 
L 264.384898 125.347015 
L 264.370746 125.347015 
z
" style="fill:#1f77b4;"/>
    </g>
    <g id="patch_81">
     <path clip-path="url(#pce02c22554)" d="M 264.384898 129.634015 
L 264.39905 129.634015 
L 264.39905 103.912016 
L 264.384898 103.912016 
z
" style="fill:#1f77b4;"/>
    </g>
    <g id="patch_82">
     <path clip-path="url(#pce02c22554)" d="M 264.39905 129.634015 
L 264.413202 129.634015 
L 264.413202 103.912016 
L 264.39905 103.912016 
z
" style="fill:#1f77b4;"/>
    </g>
    <g id="patch_83">
     <path clip-path="url(#pce02c22554)" d="M 264.413202 129.634015 
L 264.427355 129.634015 
L 264.427355 99.625016 
L 264.413202 99.625016 
z
" style="fill:#1f77b4;"/>
    </g>
    <g id="patch_84">
     <path clip-path="url(#pce02c22554)" d="M 264.427355 129.634015 
L 264.441507 129.634015 
L 264.441507 69.616017 
L 264.427355 69.616017 
z
" style="fill:#1f77b4;"/>
    </g>
    <g id="patch_85">
     <path clip-path="url(#pce02c22554)" d="M 264.441507 129.634015 
L 264.455659 129.634015 
L 264.455659 73.903017 
L 264.441507 73.903017 
z
" style="fill:#1f77b4;"/>
    </g>
    <g id="patch_86">
     <path clip-path="url(#pce02c22554)" d="M 264.455659 129.634015 
L 264.469811 129.634015 
L 264.469811 108.199016 
L 264.455659 108.199016 
z
" style="fill:#1f77b4;"/>
    </g>
    <g id="patch_87">
     <path clip-path="url(#pce02c22554)" d="M 264.469811 129.634015 
L 264.483964 129.634015 
L 264.483964 108.199016 
L 264.469811 108.199016 
z
" style="fill:#1f77b4;"/>
    </g>
    <g id="patch_88">
     <path clip-path="url(#pce02c22554)" d="M 264.483964 129.634015 
L 264.498116 129.634015 
L 264.498116 112.486015 
L 264.483964 112.486015 
z
" style="fill:#1f77b4;"/>
    </g>
    <g id="patch_89">
     <path clip-path="url(#pce02c22554)" d="M 264.498116 129.634015 
L 264.512268 129.634015 
L 264.512268 108.199016 
L 264.498116 108.199016 
z
" style="fill:#1f77b4;"/>
    </g>
    <g id="patch_90">
     <path clip-path="url(#pce02c22554)" d="M 264.512268 129.634015 
L 264.526421 129.634015 
L 264.526421 116.773015 
L 264.512268 116.773015 
z
" style="fill:#1f77b4;"/>
    </g>
    <g id="patch_91">
     <path clip-path="url(#pce02c22554)" d="M 264.526421 129.634015 
L 264.540573 129.634015 
L 264.540573 125.347015 
L 264.526421 125.347015 
z
" style="fill:#1f77b4;"/>
    </g>
    <g id="patch_92">
     <path clip-path="url(#pce02c22554)" d="M 264.540573 129.634015 
L 264.554725 129.634015 
L 264.554725 125.347015 
L 264.540573 125.347015 
z
" style="fill:#1f77b4;"/>
    </g>
    <g id="patch_93">
     <path d="M 214.90808 129.634015 
L 214.90808 66.615118 
" style="fill:none;stroke:#000000;stroke-linecap:square;stroke-linejoin:miter;stroke-width:0.8;"/>
    </g>
    <g id="patch_94">
     <path d="M 264.82008 129.634015 
L 264.82008 66.615118 
" style="fill:none;stroke:#000000;stroke-linecap:square;stroke-linejoin:miter;stroke-width:0.8;"/>
    </g>
    <g id="patch_95">
     <path d="M 214.90808 129.634015 
L 264.82008 129.634015 
" style="fill:none;stroke:#000000;stroke-linecap:square;stroke-linejoin:miter;stroke-width:0.8;"/>
    </g>
    <g id="patch_96">
     <path d="M 214.90808 66.615118 
L 264.82008 66.615118 
" style="fill:none;stroke:#000000;stroke-linecap:square;stroke-linejoin:miter;stroke-width:0.8;"/>
    </g>
   </g>
   <g id="axes_5">
    <g id="patch_97">
     <path d="M 284.53532 129.634015 
L 334.44732 129.634015 
L 334.44732 66.615118 
L 284.53532 66.615118 
z
" style="fill:#ffffff;"/>
    </g>
    <g id="patch_98">
     <path clip-path="url(#p4984318181)" d="M 333.243443 129.634015 
L 333.260692 129.634015 
L 333.260692 125.017246 
L 333.243443 125.017246 
z
" style="fill:#1f77b4;"/>
    </g>
    <g id="patch_99">
     <path clip-path="url(#p4984318181)" d="M 333.260692 129.634015 
L 333.277942 129.634015 
L 333.277942 125.017246 
L 333.260692 125.017246 
z
" style="fill:#1f77b4;"/>
    </g>
    <g id="patch_100">
     <path clip-path="url(#p4984318181)" d="M 333.277942 129.634015 
L 333.295191 129.634015 
L 333.295191 129.634015 
L 333.277942 129.634015 
z
" style="fill:#1f77b4;"/>
    </g>
    <g id="patch_101">
     <path clip-path="url(#p4984318181)" d="M 333.295191 129.634015 
L 333.312441 129.634015 
L 333.312441 129.634015 
L 333.295191 129.634015 
z
" style="fill:#1f77b4;"/>
    </g>
    <g id="patch_102">
     <path clip-path="url(#p4984318181)" d="M 333.312441 129.634015 
L 333.32969 129.634015 
L 333.32969 129.634015 
L 333.312441 129.634015 
z
" style="fill:#1f77b4;"/>
    </g>
    <g id="patch_103">
     <path clip-path="url(#p4984318181)" d="M 333.32969 129.634015 
L 333.34694 129.634015 
L 333.34694 129.634015 
L 333.32969 129.634015 
z
" style="fill:#1f77b4;"/>
    </g>
    <g id="patch_104">
     <path clip-path="url(#p4984318181)" d="M 333.34694 129.634015 
L 333.36419 129.634015 
L 333.36419 129.634015 
L 333.34694 129.634015 
z
" style="fill:#1f77b4;"/>
    </g>
    <g id="patch_105">
     <path clip-path="url(#p4984318181)" d="M 333.36419 129.634015 
L 333.381439 129.634015 
L 333.381439 129.634015 
L 333.36419 129.634015 
z
" style="fill:#1f77b4;"/>
    </g>
    <g id="patch_106">
     <path clip-path="url(#p4984318181)" d="M 333.381439 129.634015 
L 333.398689 129.634015 
L 333.398689 125.017246 
L 333.381439 125.017246 
z
" style="fill:#1f77b4;"/>
    </g>
    <g id="patch_107">
     <path clip-path="url(#p4984318181)" d="M 333.398689 129.634015 
L 333.415938 129.634015 
L 333.415938 125.017246 
L 333.398689 125.017246 
z
" style="fill:#1f77b4;"/>
    </g>
    <g id="patch_108">
     <path clip-path="url(#p4984318181)" d="M 333.415938 129.634015 
L 333.433188 129.634015 
L 333.433188 129.634015 
L 333.415938 129.634015 
z
" style="fill:#1f77b4;"/>
    </g>
    <g id="patch_109">
     <path clip-path="url(#p4984318181)" d="M 333.433188 129.634015 
L 333.450438 129.634015 
L 333.450438 125.017246 
L 333.433188 125.017246 
z
" style="fill:#1f77b4;"/>
    </g>
    <g id="patch_110">
     <path clip-path="url(#p4984318181)" d="M 333.450438 129.634015 
L 333.467687 129.634015 
L 333.467687 120.400477 
L 333.450438 120.400477 
z
" style="fill:#1f77b4;"/>
    </g>
    <g id="patch_111">
     <path clip-path="url(#p4984318181)" d="M 333.467687 129.634015 
L 333.484937 129.634015 
L 333.484937 120.400477 
L 333.467687 120.400477 
z
" style="fill:#1f77b4;"/>
    </g>
    <g id="patch_112">
     <path clip-path="url(#p4984318181)" d="M 333.484937 129.634015 
L 333.502186 129.634015 
L 333.502186 125.017246 
L 333.484937 125.017246 
z
" style="fill:#1f77b4;"/>
    </g>
    <g id="patch_113">
     <path clip-path="url(#p4984318181)" d="M 333.502186 129.634015 
L 333.519436 129.634015 
L 333.519436 101.9334 
L 333.502186 101.9334 
z
" style="fill:#1f77b4;"/>
    </g>
    <g id="patch_114">
     <path clip-path="url(#p4984318181)" d="M 333.519436 129.634015 
L 333.536686 129.634015 
L 333.536686 106.550169 
L 333.519436 106.550169 
z
" style="fill:#1f77b4;"/>
    </g>
    <g id="patch_115">
     <path clip-path="url(#p4984318181)" d="M 333.536686 129.634015 
L 333.553935 129.634015 
L 333.553935 97.316631 
L 333.536686 97.316631 
z
" style="fill:#1f77b4;"/>
    </g>
    <g id="patch_116">
     <path clip-path="url(#p4984318181)" d="M 333.553935 129.634015 
L 333.571185 129.634015 
L 333.571185 97.316631 
L 333.553935 97.316631 
z
" style="fill:#1f77b4;"/>
    </g>
    <g id="patch_117">
     <path clip-path="url(#p4984318181)" d="M 333.571185 129.634015 
L 333.588434 129.634015 
L 333.588434 78.849555 
L 333.571185 78.849555 
z
" style="fill:#1f77b4;"/>
    </g>
    <g id="patch_118">
     <path clip-path="url(#p4984318181)" d="M 333.588434 129.634015 
L 333.605684 129.634015 
L 333.605684 69.616017 
L 333.588434 69.616017 
z
" style="fill:#1f77b4;"/>
    </g>
    <g id="patch_119">
     <path clip-path="url(#p4984318181)" d="M 333.605684 129.634015 
L 333.622933 129.634015 
L 333.622933 69.616017 
L 333.605684 69.616017 
z
" style="fill:#1f77b4;"/>
    </g>
    <g id="patch_120">
     <path clip-path="url(#p4984318181)" d="M 333.622933 129.634015 
L 333.640183 129.634015 
L 333.640183 69.616017 
L 333.622933 69.616017 
z
" style="fill:#1f77b4;"/>
    </g>
    <g id="patch_121">
     <path clip-path="url(#p4984318181)" d="M 333.640183 129.634015 
L 333.657433 129.634015 
L 333.657433 92.699862 
L 333.640183 92.699862 
z
" style="fill:#1f77b4;"/>
    </g>
    <g id="patch_122">
     <path clip-path="url(#p4984318181)" d="M 333.657433 129.634015 
L 333.674682 129.634015 
L 333.674682 97.316631 
L 333.657433 97.316631 
z
" style="fill:#1f77b4;"/>
    </g>
    <g id="patch_123">
     <path d="M 284.53532 129.634015 
L 284.53532 66.615118 
" style="fill:none;stroke:#000000;stroke-linecap:square;stroke-linejoin:miter;stroke-width:0.8;"/>
    </g>
    <g id="patch_124">
     <path d="M 334.44732 129.634015 
L 334.44732 66.615118 
" style="fill:none;stroke:#000000;stroke-linecap:square;stroke-linejoin:miter;stroke-width:0.8;"/>
    </g>
    <g id="patch_125">
     <path d="M 284.53532 129.634015 
L 334.44732 129.634015 
" style="fill:none;stroke:#000000;stroke-linecap:square;stroke-linejoin:miter;stroke-width:0.8;"/>
    </g>
    <g id="patch_126">
     <path d="M 284.53532 66.615118 
L 334.44732 66.615118 
" style="fill:none;stroke:#000000;stroke-linecap:square;stroke-linejoin:miter;stroke-width:0.8;"/>
    </g>
   </g>
   <g id="axes_6">
    <g id="patch_127">
     <path d="M 354.16256 129.634015 
L 404.07456 129.634015 
L 404.07456 66.615118 
L 354.16256 66.615118 
z
" style="fill:#ffffff;"/>
    </g>
    <g id="patch_128">
     <path clip-path="url(#p3de106e33c)" d="M 400.742435 129.634015 
L 400.828443 129.634015 
L 400.828443 125.347015 
L 400.742435 125.347015 
z
" style="fill:#1f77b4;"/>
    </g>
    <g id="patch_129">
     <path clip-path="url(#p3de106e33c)" d="M 400.828443 129.634015 
L 400.914452 129.634015 
L 400.914452 129.634015 
L 400.828443 129.634015 
z
" style="fill:#1f77b4;"/>
    </g>
    <g id="patch_130">
     <path clip-path="url(#p3de106e33c)" d="M 400.914452 129.634015 
L 401.00046 129.634015 
L 401.00046 129.634015 
L 400.914452 129.634015 
z
" style="fill:#1f77b4;"/>
    </g>
    <g id="patch_131">
     <path clip-path="url(#p3de106e33c)" d="M 401.00046 129.634015 
L 401.086468 129.634015 
L 401.086468 129.634015 
L 401.00046 129.634015 
z
" style="fill:#1f77b4;"/>
    </g>
    <g id="patch_132">
     <path clip-path="url(#p3de106e33c)" d="M 401.086468 129.634015 
L 401.172477 129.634015 
L 401.172477 129.634015 
L 401.086468 129.634015 
z
" style="fill:#1f77b4;"/>
    </g>
    <g id="patch_133">
     <path clip-path="url(#p3de106e33c)" d="M 401.172477 129.634015 
L 401.258485 129.634015 
L 401.258485 125.347015 
L 401.172477 125.347015 
z
" style="fill:#1f77b4;"/>
    </g>
    <g id="patch_134">
     <path clip-path="url(#p3de106e33c)" d="M 401.258485 129.634015 
L 401.344493 129.634015 
L 401.344493 125.347015 
L 401.258485 125.347015 
z
" style="fill:#1f77b4;"/>
    </g>
    <g id="patch_135">
     <path clip-path="url(#p3de106e33c)" d="M 401.344493 129.634015 
L 401.430502 129.634015 
L 401.430502 125.347015 
L 401.344493 125.347015 
z
" style="fill:#1f77b4;"/>
    </g>
    <g id="patch_136">
     <path clip-path="url(#p3de106e33c)" d="M 401.430502 129.634015 
L 401.51651 129.634015 
L 401.51651 125.347015 
L 401.430502 125.347015 
z
" style="fill:#1f77b4;"/>
    </g>
    <g id="patch_137">
     <path clip-path="url(#p3de106e33c)" d="M 401.51651 129.634015 
L 401.602518 129.634015 
L 401.602518 125.347015 
L 401.51651 125.347015 
z
" style="fill:#1f77b4;"/>
    </g>
    <g id="patch_138">
     <path clip-path="url(#p3de106e33c)" d="M 401.602518 129.634015 
L 401.688527 129.634015 
L 401.688527 121.060015 
L 401.602518 121.060015 
z
" style="fill:#1f77b4;"/>
    </g>
    <g id="patch_139">
     <path clip-path="url(#p3de106e33c)" d="M 401.688527 129.634015 
L 401.774535 129.634015 
L 401.774535 116.773015 
L 401.688527 116.773015 
z
" style="fill:#1f77b4;"/>
    </g>
    <g id="patch_140">
     <path clip-path="url(#p3de106e33c)" d="M 401.774535 129.634015 
L 401.860544 129.634015 
L 401.860544 121.060015 
L 401.774535 121.060015 
z
" style="fill:#1f77b4;"/>
    </g>
    <g id="patch_141">
     <path clip-path="url(#p3de106e33c)" d="M 401.860544 129.634015 
L 401.946552 129.634015 
L 401.946552 125.347015 
L 401.860544 125.347015 
z
" style="fill:#1f77b4;"/>
    </g>
    <g id="patch_142">
     <path clip-path="url(#p3de106e33c)" d="M 401.946552 129.634015 
L 402.03256 129.634015 
L 402.03256 121.060015 
L 401.946552 121.060015 
z
" style="fill:#1f77b4;"/>
    </g>
    <g id="patch_143">
     <path clip-path="url(#p3de106e33c)" d="M 402.03256 129.634015 
L 402.118569 129.634015 
L 402.118569 112.486015 
L 402.03256 112.486015 
z
" style="fill:#1f77b4;"/>
    </g>
    <g id="patch_144">
     <path clip-path="url(#p3de106e33c)" d="M 402.118569 129.634015 
L 402.204577 129.634015 
L 402.204577 95.338016 
L 402.118569 95.338016 
z
" style="fill:#1f77b4;"/>
    </g>
    <g id="patch_145">
     <path clip-path="url(#p3de106e33c)" d="M 402.204577 129.634015 
L 402.290585 129.634015 
L 402.290585 78.190017 
L 402.204577 78.190017 
z
" style="fill:#1f77b4;"/>
    </g>
    <g id="patch_146">
     <path clip-path="url(#p3de106e33c)" d="M 402.290585 129.634015 
L 402.376594 129.634015 
L 402.376594 91.051016 
L 402.290585 91.051016 
z
" style="fill:#1f77b4;"/>
    </g>
    <g id="patch_147">
     <path clip-path="url(#p3de106e33c)" d="M 402.376594 129.634015 
L 402.462602 129.634015 
L 402.462602 91.051016 
L 402.376594 91.051016 
z
" style="fill:#1f77b4;"/>
    </g>
    <g id="patch_148">
     <path clip-path="url(#p3de106e33c)" d="M 402.462602 129.634015 
L 402.54861 129.634015 
L 402.54861 69.616017 
L 402.462602 69.616017 
z
" style="fill:#1f77b4;"/>
    </g>
    <g id="patch_149">
     <path clip-path="url(#p3de106e33c)" d="M 402.54861 129.634015 
L 402.634619 129.634015 
L 402.634619 86.764017 
L 402.54861 86.764017 
z
" style="fill:#1f77b4;"/>
    </g>
    <g id="patch_150">
     <path clip-path="url(#p3de106e33c)" d="M 402.634619 129.634015 
L 402.720627 129.634015 
L 402.720627 99.625016 
L 402.634619 99.625016 
z
" style="fill:#1f77b4;"/>
    </g>
    <g id="patch_151">
     <path clip-path="url(#p3de106e33c)" d="M 402.720627 129.634015 
L 402.806635 129.634015 
L 402.806635 95.338016 
L 402.720627 95.338016 
z
" style="fill:#1f77b4;"/>
    </g>
    <g id="patch_152">
     <path clip-path="url(#p3de106e33c)" d="M 402.806635 129.634015 
L 402.892644 129.634015 
L 402.892644 116.773015 
L 402.806635 116.773015 
z
" style="fill:#1f77b4;"/>
    </g>
    <g id="patch_153">
     <path d="M 354.16256 129.634015 
L 354.16256 66.615118 
" style="fill:none;stroke:#000000;stroke-linecap:square;stroke-linejoin:miter;stroke-width:0.8;"/>
    </g>
    <g id="patch_154">
     <path d="M 404.07456 129.634015 
L 404.07456 66.615118 
" style="fill:none;stroke:#000000;stroke-linecap:square;stroke-linejoin:miter;stroke-width:0.8;"/>
    </g>
    <g id="patch_155">
     <path d="M 354.16256 129.634015 
L 404.07456 129.634015 
" style="fill:none;stroke:#000000;stroke-linecap:square;stroke-linejoin:miter;stroke-width:0.8;"/>
    </g>
    <g id="patch_156">
     <path d="M 354.16256 66.615118 
L 404.07456 66.615118 
" style="fill:none;stroke:#000000;stroke-linecap:square;stroke-linejoin:miter;stroke-width:0.8;"/>
    </g>
   </g>
   <g id="axes_7">
    <g id="patch_157">
     <path d="M 423.7898 129.634015 
L 473.7018 129.634015 
L 473.7018 66.615118 
L 423.7898 66.615118 
z
" style="fill:#ffffff;"/>
    </g>
    <g id="patch_158">
     <path clip-path="url(#p5bce7f45e8)" d="M 472.592755 129.634015 
L 472.606691 129.634015 
L 472.606691 126.103544 
L 472.592755 126.103544 
z
" style="fill:#1f77b4;"/>
    </g>
    <g id="patch_159">
     <path clip-path="url(#p5bce7f45e8)" d="M 472.606691 129.634015 
L 472.620626 129.634015 
L 472.620626 129.634015 
L 472.606691 129.634015 
z
" style="fill:#1f77b4;"/>
    </g>
    <g id="patch_160">
     <path clip-path="url(#p5bce7f45e8)" d="M 472.620626 129.634015 
L 472.634562 129.634015 
L 472.634562 129.634015 
L 472.620626 129.634015 
z
" style="fill:#1f77b4;"/>
    </g>
    <g id="patch_161">
     <path clip-path="url(#p5bce7f45e8)" d="M 472.634562 129.634015 
L 472.648497 129.634015 
L 472.648497 129.634015 
L 472.634562 129.634015 
z
" style="fill:#1f77b4;"/>
    </g>
    <g id="patch_162">
     <path clip-path="url(#p5bce7f45e8)" d="M 472.648497 129.634015 
L 472.662433 129.634015 
L 472.662433 129.634015 
L 472.648497 129.634015 
z
" style="fill:#1f77b4;"/>
    </g>
    <g id="patch_163">
     <path clip-path="url(#p5bce7f45e8)" d="M 472.662433 129.634015 
L 472.676368 129.634015 
L 472.676368 129.634015 
L 472.662433 129.634015 
z
" style="fill:#1f77b4;"/>
    </g>
    <g id="patch_164">
     <path clip-path="url(#p5bce7f45e8)" d="M 472.676368 129.634015 
L 472.690303 129.634015 
L 472.690303 129.634015 
L 472.676368 129.634015 
z
" style="fill:#1f77b4;"/>
    </g>
    <g id="patch_165">
     <path clip-path="url(#p5bce7f45e8)" d="M 472.690303 129.634015 
L 472.704239 129.634015 
L 472.704239 126.103544 
L 472.690303 126.103544 
z
" style="fill:#1f77b4;"/>
    </g>
    <g id="patch_166">
     <path clip-path="url(#p5bce7f45e8)" d="M 472.704239 129.634015 
L 472.718174 129.634015 
L 472.718174 126.103544 
L 472.704239 126.103544 
z
" style="fill:#1f77b4;"/>
    </g>
    <g id="patch_167">
     <path clip-path="url(#p5bce7f45e8)" d="M 472.718174 129.634015 
L 472.73211 129.634015 
L 472.73211 122.573074 
L 472.718174 122.573074 
z
" style="fill:#1f77b4;"/>
    </g>
    <g id="patch_168">
     <path clip-path="url(#p5bce7f45e8)" d="M 472.73211 129.634015 
L 472.746045 129.634015 
L 472.746045 119.042603 
L 472.73211 119.042603 
z
" style="fill:#1f77b4;"/>
    </g>
    <g id="patch_169">
     <path clip-path="url(#p5bce7f45e8)" d="M 472.746045 129.634015 
L 472.759981 129.634015 
L 472.759981 115.512133 
L 472.746045 115.512133 
z
" style="fill:#1f77b4;"/>
    </g>
    <g id="patch_170">
     <path clip-path="url(#p5bce7f45e8)" d="M 472.759981 129.634015 
L 472.773916 129.634015 
L 472.773916 87.26837 
L 472.759981 87.26837 
z
" style="fill:#1f77b4;"/>
    </g>
    <g id="patch_171">
     <path clip-path="url(#p5bce7f45e8)" d="M 472.773916 129.634015 
L 472.787851 129.634015 
L 472.787851 115.512133 
L 472.773916 115.512133 
z
" style="fill:#1f77b4;"/>
    </g>
    <g id="patch_172">
     <path clip-path="url(#p5bce7f45e8)" d="M 472.787851 129.634015 
L 472.801787 129.634015 
L 472.801787 90.79884 
L 472.787851 90.79884 
z
" style="fill:#1f77b4;"/>
    </g>
    <g id="patch_173">
     <path clip-path="url(#p5bce7f45e8)" d="M 472.801787 129.634015 
L 472.815722 129.634015 
L 472.815722 108.451192 
L 472.801787 108.451192 
z
" style="fill:#1f77b4;"/>
    </g>
    <g id="patch_174">
     <path clip-path="url(#p5bce7f45e8)" d="M 472.815722 129.634015 
L 472.829658 129.634015 
L 472.829658 104.920722 
L 472.815722 104.920722 
z
" style="fill:#1f77b4;"/>
    </g>
    <g id="patch_175">
     <path clip-path="url(#p5bce7f45e8)" d="M 472.829658 129.634015 
L 472.843593 129.634015 
L 472.843593 69.616017 
L 472.829658 69.616017 
z
" style="fill:#1f77b4;"/>
    </g>
    <g id="patch_176">
     <path clip-path="url(#p5bce7f45e8)" d="M 472.843593 129.634015 
L 472.857529 129.634015 
L 472.857529 97.859781 
L 472.843593 97.859781 
z
" style="fill:#1f77b4;"/>
    </g>
    <g id="patch_177">
     <path clip-path="url(#p5bce7f45e8)" d="M 472.857529 129.634015 
L 472.871464 129.634015 
L 472.871464 119.042603 
L 472.857529 119.042603 
z
" style="fill:#1f77b4;"/>
    </g>
    <g id="patch_178">
     <path clip-path="url(#p5bce7f45e8)" d="M 472.871464 129.634015 
L 472.885399 129.634015 
L 472.885399 111.981662 
L 472.871464 111.981662 
z
" style="fill:#1f77b4;"/>
    </g>
    <g id="patch_179">
     <path clip-path="url(#p5bce7f45e8)" d="M 472.885399 129.634015 
L 472.899335 129.634015 
L 472.899335 111.981662 
L 472.885399 111.981662 
z
" style="fill:#1f77b4;"/>
    </g>
    <g id="patch_180">
     <path clip-path="url(#p5bce7f45e8)" d="M 472.899335 129.634015 
L 472.91327 129.634015 
L 472.91327 119.042603 
L 472.899335 119.042603 
z
" style="fill:#1f77b4;"/>
    </g>
    <g id="patch_181">
     <path clip-path="url(#p5bce7f45e8)" d="M 472.91327 129.634015 
L 472.927206 129.634015 
L 472.927206 122.573074 
L 472.91327 122.573074 
z
" style="fill:#1f77b4;"/>
    </g>
    <g id="patch_182">
     <path clip-path="url(#p5bce7f45e8)" d="M 472.927206 129.634015 
L 472.941141 129.634015 
L 472.941141 115.512133 
L 472.927206 115.512133 
z
" style="fill:#1f77b4;"/>
    </g>
    <g id="patch_183">
     <path d="M 423.7898 129.634015 
L 423.7898 66.615118 
" style="fill:none;stroke:#000000;stroke-linecap:square;stroke-linejoin:miter;stroke-width:0.8;"/>
    </g>
    <g id="patch_184">
     <path d="M 473.7018 129.634015 
L 473.7018 66.615118 
" style="fill:none;stroke:#000000;stroke-linecap:square;stroke-linejoin:miter;stroke-width:0.8;"/>
    </g>
    <g id="patch_185">
     <path d="M 423.7898 129.634015 
L 473.7018 129.634015 
" style="fill:none;stroke:#000000;stroke-linecap:square;stroke-linejoin:miter;stroke-width:0.8;"/>
    </g>
    <g id="patch_186">
     <path d="M 423.7898 66.615118 
L 473.7018 66.615118 
" style="fill:none;stroke:#000000;stroke-linecap:square;stroke-linejoin:miter;stroke-width:0.8;"/>
    </g>
   </g>
   <g id="axes_8">
    <g id="patch_187">
     <path d="M 493.41704 129.634015 
L 543.32904 129.634015 
L 543.32904 66.615118 
L 493.41704 66.615118 
z
" style="fill:#ffffff;"/>
    </g>
    <g id="patch_188">
     <path clip-path="url(#p35e49cf5a8)" d="M 539.914061 129.634015 
L 540.002106 129.634015 
L 540.002106 124.177833 
L 539.914061 124.177833 
z
" style="fill:#1f77b4;"/>
    </g>
    <g id="patch_189">
     <path clip-path="url(#p35e49cf5a8)" d="M 540.002106 129.634015 
L 540.09015 129.634015 
L 540.09015 129.634015 
L 540.002106 129.634015 
z
" style="fill:#1f77b4;"/>
    </g>
    <g id="patch_190">
     <path clip-path="url(#p35e49cf5a8)" d="M 540.09015 129.634015 
L 540.178195 129.634015 
L 540.178195 129.634015 
L 540.09015 129.634015 
z
" style="fill:#1f77b4;"/>
    </g>
    <g id="patch_191">
     <path clip-path="url(#p35e49cf5a8)" d="M 540.178195 129.634015 
L 540.26624 129.634015 
L 540.26624 129.634015 
L 540.178195 129.634015 
z
" style="fill:#1f77b4;"/>
    </g>
    <g id="patch_192">
     <path clip-path="url(#p35e49cf5a8)" d="M 540.26624 129.634015 
L 540.354285 129.634015 
L 540.354285 129.634015 
L 540.26624 129.634015 
z
" style="fill:#1f77b4;"/>
    </g>
    <g id="patch_193">
     <path clip-path="url(#p35e49cf5a8)" d="M 540.354285 129.634015 
L 540.44233 129.634015 
L 540.44233 129.634015 
L 540.354285 129.634015 
z
" style="fill:#1f77b4;"/>
    </g>
    <g id="patch_194">
     <path clip-path="url(#p35e49cf5a8)" d="M 540.44233 129.634015 
L 540.530374 129.634015 
L 540.530374 129.634015 
L 540.44233 129.634015 
z
" style="fill:#1f77b4;"/>
    </g>
    <g id="patch_195">
     <path clip-path="url(#p35e49cf5a8)" d="M 540.530374 129.634015 
L 540.618419 129.634015 
L 540.618419 129.634015 
L 540.530374 129.634015 
z
" style="fill:#1f77b4;"/>
    </g>
    <g id="patch_196">
     <path clip-path="url(#p35e49cf5a8)" d="M 540.618419 129.634015 
L 540.706464 129.634015 
L 540.706464 118.721651 
L 540.618419 118.721651 
z
" style="fill:#1f77b4;"/>
    </g>
    <g id="patch_197">
     <path clip-path="url(#p35e49cf5a8)" d="M 540.706464 129.634015 
L 540.794509 129.634015 
L 540.794509 113.26547 
L 540.706464 113.26547 
z
" style="fill:#1f77b4;"/>
    </g>
    <g id="patch_198">
     <path clip-path="url(#p35e49cf5a8)" d="M 540.794509 129.634015 
L 540.882553 129.634015 
L 540.882553 129.634015 
L 540.794509 129.634015 
z
" style="fill:#1f77b4;"/>
    </g>
    <g id="patch_199">
     <path clip-path="url(#p35e49cf5a8)" d="M 540.882553 129.634015 
L 540.970598 129.634015 
L 540.970598 129.634015 
L 540.882553 129.634015 
z
" style="fill:#1f77b4;"/>
    </g>
    <g id="patch_200">
     <path clip-path="url(#p35e49cf5a8)" d="M 540.970598 129.634015 
L 541.058643 129.634015 
L 541.058643 102.353107 
L 540.970598 102.353107 
z
" style="fill:#1f77b4;"/>
    </g>
    <g id="patch_201">
     <path clip-path="url(#p35e49cf5a8)" d="M 541.058643 129.634015 
L 541.146688 129.634015 
L 541.146688 91.440744 
L 541.058643 91.440744 
z
" style="fill:#1f77b4;"/>
    </g>
    <g id="patch_202">
     <path clip-path="url(#p35e49cf5a8)" d="M 541.146688 129.634015 
L 541.234732 129.634015 
L 541.234732 102.353107 
L 541.146688 102.353107 
z
" style="fill:#1f77b4;"/>
    </g>
    <g id="patch_203">
     <path clip-path="url(#p35e49cf5a8)" d="M 541.234732 129.634015 
L 541.322777 129.634015 
L 541.322777 91.440744 
L 541.234732 91.440744 
z
" style="fill:#1f77b4;"/>
    </g>
    <g id="patch_204">
     <path clip-path="url(#p35e49cf5a8)" d="M 541.322777 129.634015 
L 541.410822 129.634015 
L 541.410822 85.984562 
L 541.322777 85.984562 
z
" style="fill:#1f77b4;"/>
    </g>
    <g id="patch_205">
     <path clip-path="url(#p35e49cf5a8)" d="M 541.410822 129.634015 
L 541.498867 129.634015 
L 541.498867 96.896925 
L 541.410822 96.896925 
z
" style="fill:#1f77b4;"/>
    </g>
    <g id="patch_206">
     <path clip-path="url(#p35e49cf5a8)" d="M 541.498867 129.634015 
L 541.586912 129.634015 
L 541.586912 69.616017 
L 541.498867 69.616017 
z
" style="fill:#1f77b4;"/>
    </g>
    <g id="patch_207">
     <path clip-path="url(#p35e49cf5a8)" d="M 541.586912 129.634015 
L 541.674956 129.634015 
L 541.674956 91.440744 
L 541.586912 91.440744 
z
" style="fill:#1f77b4;"/>
    </g>
    <g id="patch_208">
     <path clip-path="url(#p35e49cf5a8)" d="M 541.674956 129.634015 
L 541.763001 129.634015 
L 541.763001 69.616017 
L 541.674956 69.616017 
z
" style="fill:#1f77b4;"/>
    </g>
    <g id="patch_209">
     <path clip-path="url(#p35e49cf5a8)" d="M 541.763001 129.634015 
L 541.851046 129.634015 
L 541.851046 85.984562 
L 541.763001 85.984562 
z
" style="fill:#1f77b4;"/>
    </g>
    <g id="patch_210">
     <path clip-path="url(#p35e49cf5a8)" d="M 541.851046 129.634015 
L 541.939091 129.634015 
L 541.939091 85.984562 
L 541.851046 85.984562 
z
" style="fill:#1f77b4;"/>
    </g>
    <g id="patch_211">
     <path clip-path="url(#p35e49cf5a8)" d="M 541.939091 129.634015 
L 542.027135 129.634015 
L 542.027135 91.440744 
L 541.939091 91.440744 
z
" style="fill:#1f77b4;"/>
    </g>
    <g id="patch_212">
     <path clip-path="url(#p35e49cf5a8)" d="M 542.027135 129.634015 
L 542.11518 129.634015 
L 542.11518 107.809288 
L 542.027135 107.809288 
z
" style="fill:#1f77b4;"/>
    </g>
    <g id="patch_213">
     <path d="M 493.41704 129.634015 
L 493.41704 66.615118 
" style="fill:none;stroke:#000000;stroke-linecap:square;stroke-linejoin:miter;stroke-width:0.8;"/>
    </g>
    <g id="patch_214">
     <path d="M 543.32904 129.634015 
L 543.32904 66.615118 
" style="fill:none;stroke:#000000;stroke-linecap:square;stroke-linejoin:miter;stroke-width:0.8;"/>
    </g>
    <g id="patch_215">
     <path d="M 493.41704 129.634015 
L 543.32904 129.634015 
" style="fill:none;stroke:#000000;stroke-linecap:square;stroke-linejoin:miter;stroke-width:0.8;"/>
    </g>
    <g id="patch_216">
     <path d="M 493.41704 66.615118 
L 543.32904 66.615118 
" style="fill:none;stroke:#000000;stroke-linecap:square;stroke-linejoin:miter;stroke-width:0.8;"/>
    </g>
   </g>
  </g>
 </g>
 <defs>
  <clipPath id="pba646adea1">
   <rect height="252.075588" width="499.12" x="60.68" y="16.2"/>
  </clipPath>
  <clipPath id="p82db88a09a">
   <rect height="63.018897" width="49.912" x="75.6536" y="66.615118"/>
  </clipPath>
  <clipPath id="p149a5d2b8f">
   <rect height="63.018897" width="49.912" x="145.28084" y="66.615118"/>
  </clipPath>
  <clipPath id="pce02c22554">
   <rect height="63.018897" width="49.912" x="214.90808" y="66.615118"/>
  </clipPath>
  <clipPath id="p4984318181">
   <rect height="63.018897" width="49.912" x="284.53532" y="66.615118"/>
  </clipPath>
  <clipPath id="p3de106e33c">
   <rect height="63.018897" width="49.912" x="354.16256" y="66.615118"/>
  </clipPath>
  <clipPath id="p5bce7f45e8">
   <rect height="63.018897" width="49.912" x="423.7898" y="66.615118"/>
  </clipPath>
  <clipPath id="p35e49cf5a8">
   <rect height="63.018897" width="49.912" x="493.41704" y="66.615118"/>
  </clipPath>
 </defs>
</svg>
