<?xml version="1.0" encoding="utf-8" standalone="no"?>
<!DOCTYPE svg PUBLIC "-//W3C//DTD SVG 1.1//EN"
  "http://www.w3.org/Graphics/SVG/1.1/DTD/svg11.dtd">
<svg height="432pt" version="1.1" viewBox="0 0 576 432" width="576pt" xmlns="http://www.w3.org/2000/svg" xmlns:xlink="http://www.w3.org/1999/xlink">
 <metadata>
  <rdf:RDF xmlns:cc="http://creativecommons.org/ns#" xmlns:dc="http://purl.org/dc/elements/1.1/" xmlns:rdf="http://www.w3.org/1999/02/22-rdf-syntax-ns#">
   <cc:Work>
    <dc:type rdf:resource="http://purl.org/dc/dcmitype/StillImage"/>
    <dc:date>2021-05-07T23:42:14.139338</dc:date>
    <dc:format>image/svg+xml</dc:format>
    <dc:creator>
     <cc:Agent>
      <dc:title>Matplotlib v3.4.1, https://matplotlib.org/</dc:title>
     </cc:Agent>
    </dc:creator>
   </cc:Work>
  </rdf:RDF>
 </metadata>
 <defs>
  <style type="text/css">*{stroke-linecap:butt;stroke-linejoin:round;}</style>
 </defs>
 <g id="figure_1">
  <g id="patch_1">
   <path d="M 0 432 
L 576 432 
L 576 0 
L 0 0 
z
" style="fill:#ffffff;"/>
  </g>
  <g id="axes_1">
   <g id="patch_2">
    <path d="M 60.68 263.120779 
L 559.8 263.120779 
L 559.8 16.2 
L 60.68 16.2 
z
" style="fill:#ffffff;"/>
   </g>
   <g id="matplotlib.axis_1">
    <g id="xtick_1">
     <g id="line2d_1">
      <path clip-path="url(#pa44a425871)" d="M 102.273333 263.120779 
L 102.273333 16.2 
" style="fill:none;stroke:#b0b0b0;stroke-linecap:square;stroke-width:0.8;"/>
     </g>
     <g id="line2d_2">
      <defs>
       <path d="M 0 0 
L 0 3.5 
" id="m1e2b679056" style="stroke:#000000;stroke-width:0.8;"/>
      </defs>
      <g>
       <use style="stroke:#000000;stroke-width:0.8;" x="102.273333" xlink:href="#m1e2b679056" y="263.120779"/>
      </g>
     </g>
     <g id="text_1">
      <!-- FedAvg LSTM -->
      <g transform="translate(30.002601 348.24503)rotate(-45)scale(0.15 -0.15)">
       <defs>
        <path d="M 628 4666 
L 3309 4666 
L 3309 4134 
L 1259 4134 
L 1259 2759 
L 3109 2759 
L 3109 2228 
L 1259 2228 
L 1259 0 
L 628 0 
L 628 4666 
z
" id="DejaVuSans-46" transform="scale(0.015625)"/>
        <path d="M 3597 1894 
L 3597 1613 
L 953 1613 
Q 991 1019 1311 708 
Q 1631 397 2203 397 
Q 2534 397 2845 478 
Q 3156 559 3463 722 
L 3463 178 
Q 3153 47 2828 -22 
Q 2503 -91 2169 -91 
Q 1331 -91 842 396 
Q 353 884 353 1716 
Q 353 2575 817 3079 
Q 1281 3584 2069 3584 
Q 2775 3584 3186 3129 
Q 3597 2675 3597 1894 
z
M 3022 2063 
Q 3016 2534 2758 2815 
Q 2500 3097 2075 3097 
Q 1594 3097 1305 2825 
Q 1016 2553 972 2059 
L 3022 2063 
z
" id="DejaVuSans-65" transform="scale(0.015625)"/>
        <path d="M 2906 2969 
L 2906 4863 
L 3481 4863 
L 3481 0 
L 2906 0 
L 2906 525 
Q 2725 213 2448 61 
Q 2172 -91 1784 -91 
Q 1150 -91 751 415 
Q 353 922 353 1747 
Q 353 2572 751 3078 
Q 1150 3584 1784 3584 
Q 2172 3584 2448 3432 
Q 2725 3281 2906 2969 
z
M 947 1747 
Q 947 1113 1208 752 
Q 1469 391 1925 391 
Q 2381 391 2643 752 
Q 2906 1113 2906 1747 
Q 2906 2381 2643 2742 
Q 2381 3103 1925 3103 
Q 1469 3103 1208 2742 
Q 947 2381 947 1747 
z
" id="DejaVuSans-64" transform="scale(0.015625)"/>
        <path d="M 2188 4044 
L 1331 1722 
L 3047 1722 
L 2188 4044 
z
M 1831 4666 
L 2547 4666 
L 4325 0 
L 3669 0 
L 3244 1197 
L 1141 1197 
L 716 0 
L 50 0 
L 1831 4666 
z
" id="DejaVuSans-41" transform="scale(0.015625)"/>
        <path d="M 191 3500 
L 800 3500 
L 1894 563 
L 2988 3500 
L 3597 3500 
L 2284 0 
L 1503 0 
L 191 3500 
z
" id="DejaVuSans-76" transform="scale(0.015625)"/>
        <path d="M 2906 1791 
Q 2906 2416 2648 2759 
Q 2391 3103 1925 3103 
Q 1463 3103 1205 2759 
Q 947 2416 947 1791 
Q 947 1169 1205 825 
Q 1463 481 1925 481 
Q 2391 481 2648 825 
Q 2906 1169 2906 1791 
z
M 3481 434 
Q 3481 -459 3084 -895 
Q 2688 -1331 1869 -1331 
Q 1566 -1331 1297 -1286 
Q 1028 -1241 775 -1147 
L 775 -588 
Q 1028 -725 1275 -790 
Q 1522 -856 1778 -856 
Q 2344 -856 2625 -561 
Q 2906 -266 2906 331 
L 2906 616 
Q 2728 306 2450 153 
Q 2172 0 1784 0 
Q 1141 0 747 490 
Q 353 981 353 1791 
Q 353 2603 747 3093 
Q 1141 3584 1784 3584 
Q 2172 3584 2450 3431 
Q 2728 3278 2906 2969 
L 2906 3500 
L 3481 3500 
L 3481 434 
z
" id="DejaVuSans-67" transform="scale(0.015625)"/>
        <path id="DejaVuSans-20" transform="scale(0.015625)"/>
        <path d="M 628 4666 
L 1259 4666 
L 1259 531 
L 3531 531 
L 3531 0 
L 628 0 
L 628 4666 
z
" id="DejaVuSans-4c" transform="scale(0.015625)"/>
        <path d="M 3425 4513 
L 3425 3897 
Q 3066 4069 2747 4153 
Q 2428 4238 2131 4238 
Q 1616 4238 1336 4038 
Q 1056 3838 1056 3469 
Q 1056 3159 1242 3001 
Q 1428 2844 1947 2747 
L 2328 2669 
Q 3034 2534 3370 2195 
Q 3706 1856 3706 1288 
Q 3706 609 3251 259 
Q 2797 -91 1919 -91 
Q 1588 -91 1214 -16 
Q 841 59 441 206 
L 441 856 
Q 825 641 1194 531 
Q 1563 422 1919 422 
Q 2459 422 2753 634 
Q 3047 847 3047 1241 
Q 3047 1584 2836 1778 
Q 2625 1972 2144 2069 
L 1759 2144 
Q 1053 2284 737 2584 
Q 422 2884 422 3419 
Q 422 4038 858 4394 
Q 1294 4750 2059 4750 
Q 2388 4750 2728 4690 
Q 3069 4631 3425 4513 
z
" id="DejaVuSans-53" transform="scale(0.015625)"/>
        <path d="M -19 4666 
L 3928 4666 
L 3928 4134 
L 2272 4134 
L 2272 0 
L 1638 0 
L 1638 4134 
L -19 4134 
L -19 4666 
z
" id="DejaVuSans-54" transform="scale(0.015625)"/>
        <path d="M 628 4666 
L 1569 4666 
L 2759 1491 
L 3956 4666 
L 4897 4666 
L 4897 0 
L 4281 0 
L 4281 4097 
L 3078 897 
L 2444 897 
L 1241 4097 
L 1241 0 
L 628 0 
L 628 4666 
z
" id="DejaVuSans-4d" transform="scale(0.015625)"/>
       </defs>
       <use xlink:href="#DejaVuSans-46"/>
       <use x="52.019531" xlink:href="#DejaVuSans-65"/>
       <use x="113.542969" xlink:href="#DejaVuSans-64"/>
       <use x="177.019531" xlink:href="#DejaVuSans-41"/>
       <use x="239.552734" xlink:href="#DejaVuSans-76"/>
       <use x="298.732422" xlink:href="#DejaVuSans-67"/>
       <use x="362.208984" xlink:href="#DejaVuSans-20"/>
       <use x="393.996094" xlink:href="#DejaVuSans-4c"/>
       <use x="449.708984" xlink:href="#DejaVuSans-53"/>
       <use x="513.185547" xlink:href="#DejaVuSans-54"/>
       <use x="574.269531" xlink:href="#DejaVuSans-4d"/>
      </g>
     </g>
    </g>
    <g id="xtick_2">
     <g id="line2d_3">
      <path clip-path="url(#pa44a425871)" d="M 171.595556 263.120779 
L 171.595556 16.2 
" style="fill:none;stroke:#b0b0b0;stroke-linecap:square;stroke-width:0.8;"/>
     </g>
     <g id="line2d_4">
      <g>
       <use style="stroke:#000000;stroke-width:0.8;" x="171.595556" xlink:href="#m1e2b679056" y="263.120779"/>
      </g>
     </g>
     <g id="text_2">
      <!-- FedMed LSTM -->
      <g transform="translate(96.557163 351.01269)rotate(-45)scale(0.15 -0.15)">
       <use xlink:href="#DejaVuSans-46"/>
       <use x="52.019531" xlink:href="#DejaVuSans-65"/>
       <use x="113.542969" xlink:href="#DejaVuSans-64"/>
       <use x="177.019531" xlink:href="#DejaVuSans-4d"/>
       <use x="263.298828" xlink:href="#DejaVuSans-65"/>
       <use x="324.822266" xlink:href="#DejaVuSans-64"/>
       <use x="388.298828" xlink:href="#DejaVuSans-20"/>
       <use x="420.085938" xlink:href="#DejaVuSans-4c"/>
       <use x="475.798828" xlink:href="#DejaVuSans-53"/>
       <use x="539.275391" xlink:href="#DejaVuSans-54"/>
       <use x="600.359375" xlink:href="#DejaVuSans-4d"/>
      </g>
     </g>
    </g>
    <g id="xtick_3">
     <g id="line2d_5">
      <path clip-path="url(#pa44a425871)" d="M 240.917778 263.120779 
L 240.917778 16.2 
" style="fill:none;stroke:#b0b0b0;stroke-linecap:square;stroke-width:0.8;"/>
     </g>
     <g id="line2d_6">
      <g>
       <use style="stroke:#000000;stroke-width:0.8;" x="240.917778" xlink:href="#m1e2b679056" y="263.120779"/>
      </g>
     </g>
     <g id="text_3">
      <!-- FedProx LSTM -->
      <g transform="translate(165.52307 351.369006)rotate(-45)scale(0.15 -0.15)">
       <defs>
        <path d="M 1259 4147 
L 1259 2394 
L 2053 2394 
Q 2494 2394 2734 2622 
Q 2975 2850 2975 3272 
Q 2975 3691 2734 3919 
Q 2494 4147 2053 4147 
L 1259 4147 
z
M 628 4666 
L 2053 4666 
Q 2838 4666 3239 4311 
Q 3641 3956 3641 3272 
Q 3641 2581 3239 2228 
Q 2838 1875 2053 1875 
L 1259 1875 
L 1259 0 
L 628 0 
L 628 4666 
z
" id="DejaVuSans-50" transform="scale(0.015625)"/>
        <path d="M 2631 2963 
Q 2534 3019 2420 3045 
Q 2306 3072 2169 3072 
Q 1681 3072 1420 2755 
Q 1159 2438 1159 1844 
L 1159 0 
L 581 0 
L 581 3500 
L 1159 3500 
L 1159 2956 
Q 1341 3275 1631 3429 
Q 1922 3584 2338 3584 
Q 2397 3584 2469 3576 
Q 2541 3569 2628 3553 
L 2631 2963 
z
" id="DejaVuSans-72" transform="scale(0.015625)"/>
        <path d="M 1959 3097 
Q 1497 3097 1228 2736 
Q 959 2375 959 1747 
Q 959 1119 1226 758 
Q 1494 397 1959 397 
Q 2419 397 2687 759 
Q 2956 1122 2956 1747 
Q 2956 2369 2687 2733 
Q 2419 3097 1959 3097 
z
M 1959 3584 
Q 2709 3584 3137 3096 
Q 3566 2609 3566 1747 
Q 3566 888 3137 398 
Q 2709 -91 1959 -91 
Q 1206 -91 779 398 
Q 353 888 353 1747 
Q 353 2609 779 3096 
Q 1206 3584 1959 3584 
z
" id="DejaVuSans-6f" transform="scale(0.015625)"/>
        <path d="M 3513 3500 
L 2247 1797 
L 3578 0 
L 2900 0 
L 1881 1375 
L 863 0 
L 184 0 
L 1544 1831 
L 300 3500 
L 978 3500 
L 1906 2253 
L 2834 3500 
L 3513 3500 
z
" id="DejaVuSans-78" transform="scale(0.015625)"/>
       </defs>
       <use xlink:href="#DejaVuSans-46"/>
       <use x="52.019531" xlink:href="#DejaVuSans-65"/>
       <use x="113.542969" xlink:href="#DejaVuSans-64"/>
       <use x="177.019531" xlink:href="#DejaVuSans-50"/>
       <use x="235.572266" xlink:href="#DejaVuSans-72"/>
       <use x="274.435547" xlink:href="#DejaVuSans-6f"/>
       <use x="332.492188" xlink:href="#DejaVuSans-78"/>
       <use x="391.671875" xlink:href="#DejaVuSans-20"/>
       <use x="423.458984" xlink:href="#DejaVuSans-4c"/>
       <use x="479.171875" xlink:href="#DejaVuSans-53"/>
       <use x="542.648438" xlink:href="#DejaVuSans-54"/>
       <use x="603.732422" xlink:href="#DejaVuSans-4d"/>
      </g>
     </g>
    </g>
    <g id="xtick_4">
     <g id="line2d_7">
      <path clip-path="url(#pa44a425871)" d="M 310.24 263.120779 
L 310.24 16.2 
" style="fill:none;stroke:#b0b0b0;stroke-linecap:square;stroke-width:0.8;"/>
     </g>
     <g id="line2d_8">
      <g>
       <use style="stroke:#000000;stroke-width:0.8;" x="310.24" xlink:href="#m1e2b679056" y="263.120779"/>
      </g>
     </g>
     <g id="text_4">
      <!-- qFedAvg_001_u LSTM -->
      <g transform="translate(193.36685 392.552452)rotate(-45)scale(0.15 -0.15)">
       <defs>
        <path d="M 947 1747 
Q 947 1113 1208 752 
Q 1469 391 1925 391 
Q 2381 391 2643 752 
Q 2906 1113 2906 1747 
Q 2906 2381 2643 2742 
Q 2381 3103 1925 3103 
Q 1469 3103 1208 2742 
Q 947 2381 947 1747 
z
M 2906 525 
Q 2725 213 2448 61 
Q 2172 -91 1784 -91 
Q 1150 -91 751 415 
Q 353 922 353 1747 
Q 353 2572 751 3078 
Q 1150 3584 1784 3584 
Q 2172 3584 2448 3432 
Q 2725 3281 2906 2969 
L 2906 3500 
L 3481 3500 
L 3481 -1331 
L 2906 -1331 
L 2906 525 
z
" id="DejaVuSans-71" transform="scale(0.015625)"/>
        <path d="M 3263 -1063 
L 3263 -1509 
L -63 -1509 
L -63 -1063 
L 3263 -1063 
z
" id="DejaVuSans-5f" transform="scale(0.015625)"/>
        <path d="M 2034 4250 
Q 1547 4250 1301 3770 
Q 1056 3291 1056 2328 
Q 1056 1369 1301 889 
Q 1547 409 2034 409 
Q 2525 409 2770 889 
Q 3016 1369 3016 2328 
Q 3016 3291 2770 3770 
Q 2525 4250 2034 4250 
z
M 2034 4750 
Q 2819 4750 3233 4129 
Q 3647 3509 3647 2328 
Q 3647 1150 3233 529 
Q 2819 -91 2034 -91 
Q 1250 -91 836 529 
Q 422 1150 422 2328 
Q 422 3509 836 4129 
Q 1250 4750 2034 4750 
z
" id="DejaVuSans-30" transform="scale(0.015625)"/>
        <path d="M 794 531 
L 1825 531 
L 1825 4091 
L 703 3866 
L 703 4441 
L 1819 4666 
L 2450 4666 
L 2450 531 
L 3481 531 
L 3481 0 
L 794 0 
L 794 531 
z
" id="DejaVuSans-31" transform="scale(0.015625)"/>
        <path d="M 544 1381 
L 544 3500 
L 1119 3500 
L 1119 1403 
Q 1119 906 1312 657 
Q 1506 409 1894 409 
Q 2359 409 2629 706 
Q 2900 1003 2900 1516 
L 2900 3500 
L 3475 3500 
L 3475 0 
L 2900 0 
L 2900 538 
Q 2691 219 2414 64 
Q 2138 -91 1772 -91 
Q 1169 -91 856 284 
Q 544 659 544 1381 
z
M 1991 3584 
L 1991 3584 
z
" id="DejaVuSans-75" transform="scale(0.015625)"/>
       </defs>
       <use xlink:href="#DejaVuSans-71"/>
       <use x="63.476562" xlink:href="#DejaVuSans-46"/>
       <use x="115.496094" xlink:href="#DejaVuSans-65"/>
       <use x="177.019531" xlink:href="#DejaVuSans-64"/>
       <use x="240.496094" xlink:href="#DejaVuSans-41"/>
       <use x="303.029297" xlink:href="#DejaVuSans-76"/>
       <use x="362.208984" xlink:href="#DejaVuSans-67"/>
       <use x="425.685547" xlink:href="#DejaVuSans-5f"/>
       <use x="475.685547" xlink:href="#DejaVuSans-30"/>
       <use x="539.308594" xlink:href="#DejaVuSans-30"/>
       <use x="602.931641" xlink:href="#DejaVuSans-31"/>
       <use x="666.554688" xlink:href="#DejaVuSans-5f"/>
       <use x="716.554688" xlink:href="#DejaVuSans-75"/>
       <use x="779.933594" xlink:href="#DejaVuSans-20"/>
       <use x="811.720703" xlink:href="#DejaVuSans-4c"/>
       <use x="867.433594" xlink:href="#DejaVuSans-53"/>
       <use x="930.910156" xlink:href="#DejaVuSans-54"/>
       <use x="991.994141" xlink:href="#DejaVuSans-4d"/>
      </g>
     </g>
    </g>
    <g id="xtick_5">
     <g id="line2d_9">
      <path clip-path="url(#pa44a425871)" d="M 379.562222 263.120779 
L 379.562222 16.2 
" style="fill:none;stroke:#b0b0b0;stroke-linecap:square;stroke-width:0.8;"/>
     </g>
     <g id="line2d_10">
      <g>
       <use style="stroke:#000000;stroke-width:0.8;" x="379.562222" xlink:href="#m1e2b679056" y="263.120779"/>
      </g>
     </g>
     <g id="text_5">
      <!-- qFedAvg_1_w LSTM -->
      <g transform="translate(274.233695 381.007829)rotate(-45)scale(0.15 -0.15)">
       <defs>
        <path d="M 269 3500 
L 844 3500 
L 1563 769 
L 2278 3500 
L 2956 3500 
L 3675 769 
L 4391 3500 
L 4966 3500 
L 4050 0 
L 3372 0 
L 2619 2869 
L 1863 0 
L 1184 0 
L 269 3500 
z
" id="DejaVuSans-77" transform="scale(0.015625)"/>
       </defs>
       <use xlink:href="#DejaVuSans-71"/>
       <use x="63.476562" xlink:href="#DejaVuSans-46"/>
       <use x="115.496094" xlink:href="#DejaVuSans-65"/>
       <use x="177.019531" xlink:href="#DejaVuSans-64"/>
       <use x="240.496094" xlink:href="#DejaVuSans-41"/>
       <use x="303.029297" xlink:href="#DejaVuSans-76"/>
       <use x="362.208984" xlink:href="#DejaVuSans-67"/>
       <use x="425.685547" xlink:href="#DejaVuSans-5f"/>
       <use x="475.685547" xlink:href="#DejaVuSans-31"/>
       <use x="539.308594" xlink:href="#DejaVuSans-5f"/>
       <use x="589.308594" xlink:href="#DejaVuSans-77"/>
       <use x="671.095703" xlink:href="#DejaVuSans-20"/>
       <use x="702.882812" xlink:href="#DejaVuSans-4c"/>
       <use x="758.595703" xlink:href="#DejaVuSans-53"/>
       <use x="822.072266" xlink:href="#DejaVuSans-54"/>
       <use x="883.15625" xlink:href="#DejaVuSans-4d"/>
      </g>
     </g>
    </g>
    <g id="xtick_6">
     <g id="line2d_11">
      <path clip-path="url(#pa44a425871)" d="M 448.884444 263.120779 
L 448.884444 16.2 
" style="fill:none;stroke:#b0b0b0;stroke-linecap:square;stroke-width:0.8;"/>
     </g>
     <g id="line2d_12">
      <g>
       <use style="stroke:#000000;stroke-width:0.8;" x="448.884444" xlink:href="#m1e2b679056" y="263.120779"/>
      </g>
     </g>
     <g id="text_6">
      <!-- qFedAvg_001_w LSTM -->
      <g transform="translate(330.059017 394.504729)rotate(-45)scale(0.15 -0.15)">
       <use xlink:href="#DejaVuSans-71"/>
       <use x="63.476562" xlink:href="#DejaVuSans-46"/>
       <use x="115.496094" xlink:href="#DejaVuSans-65"/>
       <use x="177.019531" xlink:href="#DejaVuSans-64"/>
       <use x="240.496094" xlink:href="#DejaVuSans-41"/>
       <use x="303.029297" xlink:href="#DejaVuSans-76"/>
       <use x="362.208984" xlink:href="#DejaVuSans-67"/>
       <use x="425.685547" xlink:href="#DejaVuSans-5f"/>
       <use x="475.685547" xlink:href="#DejaVuSans-30"/>
       <use x="539.308594" xlink:href="#DejaVuSans-30"/>
       <use x="602.931641" xlink:href="#DejaVuSans-31"/>
       <use x="666.554688" xlink:href="#DejaVuSans-5f"/>
       <use x="716.554688" xlink:href="#DejaVuSans-77"/>
       <use x="798.341797" xlink:href="#DejaVuSans-20"/>
       <use x="830.128906" xlink:href="#DejaVuSans-4c"/>
       <use x="885.841797" xlink:href="#DejaVuSans-53"/>
       <use x="949.318359" xlink:href="#DejaVuSans-54"/>
       <use x="1010.402344" xlink:href="#DejaVuSans-4d"/>
      </g>
     </g>
    </g>
    <g id="xtick_7">
     <g id="line2d_13">
      <path clip-path="url(#pa44a425871)" d="M 518.206667 263.120779 
L 518.206667 16.2 
" style="fill:none;stroke:#b0b0b0;stroke-linecap:square;stroke-width:0.8;"/>
     </g>
     <g id="line2d_14">
      <g>
       <use style="stroke:#000000;stroke-width:0.8;" x="518.206667" xlink:href="#m1e2b679056" y="263.120779"/>
      </g>
     </g>
     <g id="text_7">
      <!-- qFedAvg_1_u LSTM -->
      <g transform="translate(414.830417 379.055551)rotate(-45)scale(0.15 -0.15)">
       <use xlink:href="#DejaVuSans-71"/>
       <use x="63.476562" xlink:href="#DejaVuSans-46"/>
       <use x="115.496094" xlink:href="#DejaVuSans-65"/>
       <use x="177.019531" xlink:href="#DejaVuSans-64"/>
       <use x="240.496094" xlink:href="#DejaVuSans-41"/>
       <use x="303.029297" xlink:href="#DejaVuSans-76"/>
       <use x="362.208984" xlink:href="#DejaVuSans-67"/>
       <use x="425.685547" xlink:href="#DejaVuSans-5f"/>
       <use x="475.685547" xlink:href="#DejaVuSans-31"/>
       <use x="539.308594" xlink:href="#DejaVuSans-5f"/>
       <use x="589.308594" xlink:href="#DejaVuSans-75"/>
       <use x="652.6875" xlink:href="#DejaVuSans-20"/>
       <use x="684.474609" xlink:href="#DejaVuSans-4c"/>
       <use x="740.1875" xlink:href="#DejaVuSans-53"/>
       <use x="803.664062" xlink:href="#DejaVuSans-54"/>
       <use x="864.748047" xlink:href="#DejaVuSans-4d"/>
      </g>
     </g>
    </g>
    <g id="text_8">
     <!-- Algorithms -->
     <g transform="translate(269.602891 412.403223)scale(0.15 -0.15)">
      <defs>
       <path d="M 603 4863 
L 1178 4863 
L 1178 0 
L 603 0 
L 603 4863 
z
" id="DejaVuSans-6c" transform="scale(0.015625)"/>
       <path d="M 603 3500 
L 1178 3500 
L 1178 0 
L 603 0 
L 603 3500 
z
M 603 4863 
L 1178 4863 
L 1178 4134 
L 603 4134 
L 603 4863 
z
" id="DejaVuSans-69" transform="scale(0.015625)"/>
       <path d="M 1172 4494 
L 1172 3500 
L 2356 3500 
L 2356 3053 
L 1172 3053 
L 1172 1153 
Q 1172 725 1289 603 
Q 1406 481 1766 481 
L 2356 481 
L 2356 0 
L 1766 0 
Q 1100 0 847 248 
Q 594 497 594 1153 
L 594 3053 
L 172 3053 
L 172 3500 
L 594 3500 
L 594 4494 
L 1172 4494 
z
" id="DejaVuSans-74" transform="scale(0.015625)"/>
       <path d="M 3513 2113 
L 3513 0 
L 2938 0 
L 2938 2094 
Q 2938 2591 2744 2837 
Q 2550 3084 2163 3084 
Q 1697 3084 1428 2787 
Q 1159 2491 1159 1978 
L 1159 0 
L 581 0 
L 581 4863 
L 1159 4863 
L 1159 2956 
Q 1366 3272 1645 3428 
Q 1925 3584 2291 3584 
Q 2894 3584 3203 3211 
Q 3513 2838 3513 2113 
z
" id="DejaVuSans-68" transform="scale(0.015625)"/>
       <path d="M 3328 2828 
Q 3544 3216 3844 3400 
Q 4144 3584 4550 3584 
Q 5097 3584 5394 3201 
Q 5691 2819 5691 2113 
L 5691 0 
L 5113 0 
L 5113 2094 
Q 5113 2597 4934 2840 
Q 4756 3084 4391 3084 
Q 3944 3084 3684 2787 
Q 3425 2491 3425 1978 
L 3425 0 
L 2847 0 
L 2847 2094 
Q 2847 2600 2669 2842 
Q 2491 3084 2119 3084 
Q 1678 3084 1418 2786 
Q 1159 2488 1159 1978 
L 1159 0 
L 581 0 
L 581 3500 
L 1159 3500 
L 1159 2956 
Q 1356 3278 1631 3431 
Q 1906 3584 2284 3584 
Q 2666 3584 2933 3390 
Q 3200 3197 3328 2828 
z
" id="DejaVuSans-6d" transform="scale(0.015625)"/>
       <path d="M 2834 3397 
L 2834 2853 
Q 2591 2978 2328 3040 
Q 2066 3103 1784 3103 
Q 1356 3103 1142 2972 
Q 928 2841 928 2578 
Q 928 2378 1081 2264 
Q 1234 2150 1697 2047 
L 1894 2003 
Q 2506 1872 2764 1633 
Q 3022 1394 3022 966 
Q 3022 478 2636 193 
Q 2250 -91 1575 -91 
Q 1294 -91 989 -36 
Q 684 19 347 128 
L 347 722 
Q 666 556 975 473 
Q 1284 391 1588 391 
Q 1994 391 2212 530 
Q 2431 669 2431 922 
Q 2431 1156 2273 1281 
Q 2116 1406 1581 1522 
L 1381 1569 
Q 847 1681 609 1914 
Q 372 2147 372 2553 
Q 372 3047 722 3315 
Q 1072 3584 1716 3584 
Q 2034 3584 2315 3537 
Q 2597 3491 2834 3397 
z
" id="DejaVuSans-73" transform="scale(0.015625)"/>
      </defs>
      <use xlink:href="#DejaVuSans-41"/>
      <use x="68.408203" xlink:href="#DejaVuSans-6c"/>
      <use x="96.191406" xlink:href="#DejaVuSans-67"/>
      <use x="159.667969" xlink:href="#DejaVuSans-6f"/>
      <use x="220.849609" xlink:href="#DejaVuSans-72"/>
      <use x="261.962891" xlink:href="#DejaVuSans-69"/>
      <use x="289.746094" xlink:href="#DejaVuSans-74"/>
      <use x="328.955078" xlink:href="#DejaVuSans-68"/>
      <use x="392.333984" xlink:href="#DejaVuSans-6d"/>
      <use x="489.746094" xlink:href="#DejaVuSans-73"/>
     </g>
    </g>
   </g>
   <g id="matplotlib.axis_2">
    <g id="ytick_1">
     <g id="line2d_15">
      <path clip-path="url(#pa44a425871)" d="M 60.68 235.559127 
L 559.8 235.559127 
" style="fill:none;stroke:#b0b0b0;stroke-linecap:square;stroke-width:0.8;"/>
     </g>
     <g id="line2d_16">
      <defs>
       <path d="M 0 0 
L -3.5 0 
" id="me42a4637a8" style="stroke:#000000;stroke-width:0.8;"/>
      </defs>
      <g>
       <use style="stroke:#000000;stroke-width:0.8;" x="60.68" xlink:href="#me42a4637a8" y="235.559127"/>
      </g>
     </g>
     <g id="text_9">
      <!-- 4 -->
      <g transform="translate(44.13625 241.257955)scale(0.15 -0.15)">
       <defs>
        <path d="M 2419 4116 
L 825 1625 
L 2419 1625 
L 2419 4116 
z
M 2253 4666 
L 3047 4666 
L 3047 1625 
L 3713 1625 
L 3713 1100 
L 3047 1100 
L 3047 0 
L 2419 0 
L 2419 1100 
L 313 1100 
L 313 1709 
L 2253 4666 
z
" id="DejaVuSans-34" transform="scale(0.015625)"/>
       </defs>
       <use xlink:href="#DejaVuSans-34"/>
      </g>
     </g>
    </g>
    <g id="ytick_2">
     <g id="line2d_17">
      <path clip-path="url(#pa44a425871)" d="M 60.68 202.238714 
L 559.8 202.238714 
" style="fill:none;stroke:#b0b0b0;stroke-linecap:square;stroke-width:0.8;"/>
     </g>
     <g id="line2d_18">
      <g>
       <use style="stroke:#000000;stroke-width:0.8;" x="60.68" xlink:href="#me42a4637a8" y="202.238714"/>
      </g>
     </g>
     <g id="text_10">
      <!-- 5 -->
      <g transform="translate(44.13625 207.937542)scale(0.15 -0.15)">
       <defs>
        <path d="M 691 4666 
L 3169 4666 
L 3169 4134 
L 1269 4134 
L 1269 2991 
Q 1406 3038 1543 3061 
Q 1681 3084 1819 3084 
Q 2600 3084 3056 2656 
Q 3513 2228 3513 1497 
Q 3513 744 3044 326 
Q 2575 -91 1722 -91 
Q 1428 -91 1123 -41 
Q 819 9 494 109 
L 494 744 
Q 775 591 1075 516 
Q 1375 441 1709 441 
Q 2250 441 2565 725 
Q 2881 1009 2881 1497 
Q 2881 1984 2565 2268 
Q 2250 2553 1709 2553 
Q 1456 2553 1204 2497 
Q 953 2441 691 2322 
L 691 4666 
z
" id="DejaVuSans-35" transform="scale(0.015625)"/>
       </defs>
       <use xlink:href="#DejaVuSans-35"/>
      </g>
     </g>
    </g>
    <g id="ytick_3">
     <g id="line2d_19">
      <path clip-path="url(#pa44a425871)" d="M 60.68 168.918301 
L 559.8 168.918301 
" style="fill:none;stroke:#b0b0b0;stroke-linecap:square;stroke-width:0.8;"/>
     </g>
     <g id="line2d_20">
      <g>
       <use style="stroke:#000000;stroke-width:0.8;" x="60.68" xlink:href="#me42a4637a8" y="168.918301"/>
      </g>
     </g>
     <g id="text_11">
      <!-- 6 -->
      <g transform="translate(44.13625 174.617129)scale(0.15 -0.15)">
       <defs>
        <path d="M 2113 2584 
Q 1688 2584 1439 2293 
Q 1191 2003 1191 1497 
Q 1191 994 1439 701 
Q 1688 409 2113 409 
Q 2538 409 2786 701 
Q 3034 994 3034 1497 
Q 3034 2003 2786 2293 
Q 2538 2584 2113 2584 
z
M 3366 4563 
L 3366 3988 
Q 3128 4100 2886 4159 
Q 2644 4219 2406 4219 
Q 1781 4219 1451 3797 
Q 1122 3375 1075 2522 
Q 1259 2794 1537 2939 
Q 1816 3084 2150 3084 
Q 2853 3084 3261 2657 
Q 3669 2231 3669 1497 
Q 3669 778 3244 343 
Q 2819 -91 2113 -91 
Q 1303 -91 875 529 
Q 447 1150 447 2328 
Q 447 3434 972 4092 
Q 1497 4750 2381 4750 
Q 2619 4750 2861 4703 
Q 3103 4656 3366 4563 
z
" id="DejaVuSans-36" transform="scale(0.015625)"/>
       </defs>
       <use xlink:href="#DejaVuSans-36"/>
      </g>
     </g>
    </g>
    <g id="ytick_4">
     <g id="line2d_21">
      <path clip-path="url(#pa44a425871)" d="M 60.68 135.597888 
L 559.8 135.597888 
" style="fill:none;stroke:#b0b0b0;stroke-linecap:square;stroke-width:0.8;"/>
     </g>
     <g id="line2d_22">
      <g>
       <use style="stroke:#000000;stroke-width:0.8;" x="60.68" xlink:href="#me42a4637a8" y="135.597888"/>
      </g>
     </g>
     <g id="text_12">
      <!-- 7 -->
      <g transform="translate(44.13625 141.296716)scale(0.15 -0.15)">
       <defs>
        <path d="M 525 4666 
L 3525 4666 
L 3525 4397 
L 1831 0 
L 1172 0 
L 2766 4134 
L 525 4134 
L 525 4666 
z
" id="DejaVuSans-37" transform="scale(0.015625)"/>
       </defs>
       <use xlink:href="#DejaVuSans-37"/>
      </g>
     </g>
    </g>
    <g id="ytick_5">
     <g id="line2d_23">
      <path clip-path="url(#pa44a425871)" d="M 60.68 102.277475 
L 559.8 102.277475 
" style="fill:none;stroke:#b0b0b0;stroke-linecap:square;stroke-width:0.8;"/>
     </g>
     <g id="line2d_24">
      <g>
       <use style="stroke:#000000;stroke-width:0.8;" x="60.68" xlink:href="#me42a4637a8" y="102.277475"/>
      </g>
     </g>
     <g id="text_13">
      <!-- 8 -->
      <g transform="translate(44.13625 107.976304)scale(0.15 -0.15)">
       <defs>
        <path d="M 2034 2216 
Q 1584 2216 1326 1975 
Q 1069 1734 1069 1313 
Q 1069 891 1326 650 
Q 1584 409 2034 409 
Q 2484 409 2743 651 
Q 3003 894 3003 1313 
Q 3003 1734 2745 1975 
Q 2488 2216 2034 2216 
z
M 1403 2484 
Q 997 2584 770 2862 
Q 544 3141 544 3541 
Q 544 4100 942 4425 
Q 1341 4750 2034 4750 
Q 2731 4750 3128 4425 
Q 3525 4100 3525 3541 
Q 3525 3141 3298 2862 
Q 3072 2584 2669 2484 
Q 3125 2378 3379 2068 
Q 3634 1759 3634 1313 
Q 3634 634 3220 271 
Q 2806 -91 2034 -91 
Q 1263 -91 848 271 
Q 434 634 434 1313 
Q 434 1759 690 2068 
Q 947 2378 1403 2484 
z
M 1172 3481 
Q 1172 3119 1398 2916 
Q 1625 2713 2034 2713 
Q 2441 2713 2670 2916 
Q 2900 3119 2900 3481 
Q 2900 3844 2670 4047 
Q 2441 4250 2034 4250 
Q 1625 4250 1398 4047 
Q 1172 3844 1172 3481 
z
" id="DejaVuSans-38" transform="scale(0.015625)"/>
       </defs>
       <use xlink:href="#DejaVuSans-38"/>
      </g>
     </g>
    </g>
    <g id="ytick_6">
     <g id="line2d_25">
      <path clip-path="url(#pa44a425871)" d="M 60.68 68.957063 
L 559.8 68.957063 
" style="fill:none;stroke:#b0b0b0;stroke-linecap:square;stroke-width:0.8;"/>
     </g>
     <g id="line2d_26">
      <g>
       <use style="stroke:#000000;stroke-width:0.8;" x="60.68" xlink:href="#me42a4637a8" y="68.957063"/>
      </g>
     </g>
     <g id="text_14">
      <!-- 9 -->
      <g transform="translate(44.13625 74.655891)scale(0.15 -0.15)">
       <defs>
        <path d="M 703 97 
L 703 672 
Q 941 559 1184 500 
Q 1428 441 1663 441 
Q 2288 441 2617 861 
Q 2947 1281 2994 2138 
Q 2813 1869 2534 1725 
Q 2256 1581 1919 1581 
Q 1219 1581 811 2004 
Q 403 2428 403 3163 
Q 403 3881 828 4315 
Q 1253 4750 1959 4750 
Q 2769 4750 3195 4129 
Q 3622 3509 3622 2328 
Q 3622 1225 3098 567 
Q 2575 -91 1691 -91 
Q 1453 -91 1209 -44 
Q 966 3 703 97 
z
M 1959 2075 
Q 2384 2075 2632 2365 
Q 2881 2656 2881 3163 
Q 2881 3666 2632 3958 
Q 2384 4250 1959 4250 
Q 1534 4250 1286 3958 
Q 1038 3666 1038 3163 
Q 1038 2656 1286 2365 
Q 1534 2075 1959 2075 
z
" id="DejaVuSans-39" transform="scale(0.015625)"/>
       </defs>
       <use xlink:href="#DejaVuSans-39"/>
      </g>
     </g>
    </g>
    <g id="ytick_7">
     <g id="line2d_27">
      <path clip-path="url(#pa44a425871)" d="M 60.68 35.63665 
L 559.8 35.63665 
" style="fill:none;stroke:#b0b0b0;stroke-linecap:square;stroke-width:0.8;"/>
     </g>
     <g id="line2d_28">
      <g>
       <use style="stroke:#000000;stroke-width:0.8;" x="60.68" xlink:href="#me42a4637a8" y="35.63665"/>
      </g>
     </g>
     <g id="text_15">
      <!-- 10 -->
      <g transform="translate(34.5925 41.335478)scale(0.15 -0.15)">
       <use xlink:href="#DejaVuSans-31"/>
       <use x="63.623047" xlink:href="#DejaVuSans-30"/>
      </g>
     </g>
    </g>
    <g id="text_16">
     <!-- Entropy -->
     <g transform="translate(27.472969 168.796718)rotate(-90)scale(0.15 -0.15)">
      <defs>
       <path d="M 628 4666 
L 3578 4666 
L 3578 4134 
L 1259 4134 
L 1259 2753 
L 3481 2753 
L 3481 2222 
L 1259 2222 
L 1259 531 
L 3634 531 
L 3634 0 
L 628 0 
L 628 4666 
z
" id="DejaVuSans-45" transform="scale(0.015625)"/>
       <path d="M 3513 2113 
L 3513 0 
L 2938 0 
L 2938 2094 
Q 2938 2591 2744 2837 
Q 2550 3084 2163 3084 
Q 1697 3084 1428 2787 
Q 1159 2491 1159 1978 
L 1159 0 
L 581 0 
L 581 3500 
L 1159 3500 
L 1159 2956 
Q 1366 3272 1645 3428 
Q 1925 3584 2291 3584 
Q 2894 3584 3203 3211 
Q 3513 2838 3513 2113 
z
" id="DejaVuSans-6e" transform="scale(0.015625)"/>
       <path d="M 1159 525 
L 1159 -1331 
L 581 -1331 
L 581 3500 
L 1159 3500 
L 1159 2969 
Q 1341 3281 1617 3432 
Q 1894 3584 2278 3584 
Q 2916 3584 3314 3078 
Q 3713 2572 3713 1747 
Q 3713 922 3314 415 
Q 2916 -91 2278 -91 
Q 1894 -91 1617 61 
Q 1341 213 1159 525 
z
M 3116 1747 
Q 3116 2381 2855 2742 
Q 2594 3103 2138 3103 
Q 1681 3103 1420 2742 
Q 1159 2381 1159 1747 
Q 1159 1113 1420 752 
Q 1681 391 2138 391 
Q 2594 391 2855 752 
Q 3116 1113 3116 1747 
z
" id="DejaVuSans-70" transform="scale(0.015625)"/>
       <path d="M 2059 -325 
Q 1816 -950 1584 -1140 
Q 1353 -1331 966 -1331 
L 506 -1331 
L 506 -850 
L 844 -850 
Q 1081 -850 1212 -737 
Q 1344 -625 1503 -206 
L 1606 56 
L 191 3500 
L 800 3500 
L 1894 763 
L 2988 3500 
L 3597 3500 
L 2059 -325 
z
" id="DejaVuSans-79" transform="scale(0.015625)"/>
      </defs>
      <use xlink:href="#DejaVuSans-45"/>
      <use x="63.183594" xlink:href="#DejaVuSans-6e"/>
      <use x="126.5625" xlink:href="#DejaVuSans-74"/>
      <use x="165.771484" xlink:href="#DejaVuSans-72"/>
      <use x="204.634766" xlink:href="#DejaVuSans-6f"/>
      <use x="265.816406" xlink:href="#DejaVuSans-70"/>
      <use x="329.292969" xlink:href="#DejaVuSans-79"/>
     </g>
    </g>
   </g>
   <g id="LineCollection_1">
    <path clip-path="url(#pa44a425871)" d="M 102.273333 196.817161 
L 102.273333 192.914999 
" style="fill:none;stroke:#000000;stroke-width:3;"/>
    <path clip-path="url(#pa44a425871)" d="M 171.595556 242.544048 
L 171.595556 233.494132 
" style="fill:none;stroke:#000000;stroke-width:3;"/>
    <path clip-path="url(#pa44a425871)" d="M 240.917778 193.247024 
L 240.917778 190.891568 
" style="fill:none;stroke:#000000;stroke-width:3;"/>
    <path clip-path="url(#pa44a425871)" d="M 310.24 187.017151 
L 310.24 180.303801 
" style="fill:none;stroke:#000000;stroke-width:3;"/>
    <path clip-path="url(#pa44a425871)" d="M 379.562222 241.255206 
L 379.562222 216.79391 
" style="fill:none;stroke:#000000;stroke-width:3;"/>
    <path clip-path="url(#pa44a425871)" d="M 448.884444 227.562654 
L 448.884444 221.151983 
" style="fill:none;stroke:#000000;stroke-width:3;"/>
    <path clip-path="url(#pa44a425871)" d="M 518.206667 171.250216 
L 518.206667 166.696157 
" style="fill:none;stroke:#000000;stroke-width:3;"/>
   </g>
   <g id="LineCollection_2">
    <path clip-path="url(#pa44a425871)" d="M 102.273333 196.817161 
L 102.273333 192.914999 
" style="fill:none;stroke:#000000;"/>
    <path clip-path="url(#pa44a425871)" d="M 171.595556 242.544048 
L 171.595556 233.494132 
" style="fill:none;stroke:#000000;"/>
    <path clip-path="url(#pa44a425871)" d="M 240.917778 193.247024 
L 240.917778 190.891568 
" style="fill:none;stroke:#000000;"/>
    <path clip-path="url(#pa44a425871)" d="M 310.24 187.017151 
L 310.24 180.303801 
" style="fill:none;stroke:#000000;"/>
    <path clip-path="url(#pa44a425871)" d="M 379.562222 241.255206 
L 379.562222 216.79391 
" style="fill:none;stroke:#000000;"/>
    <path clip-path="url(#pa44a425871)" d="M 448.884444 227.562654 
L 448.884444 221.151983 
" style="fill:none;stroke:#000000;"/>
    <path clip-path="url(#pa44a425871)" d="M 518.206667 171.250216 
L 518.206667 166.696157 
" style="fill:none;stroke:#000000;"/>
   </g>
   <g id="LineCollection_3">
    <path clip-path="url(#pa44a425871)" d="M 102.273333 36.776732 
L 102.273333 36.776732 
" style="fill:none;stroke:#ff0000;"/>
    <path clip-path="url(#pa44a425871)" d="M 171.595556 36.776732 
L 171.595556 36.776732 
" style="fill:none;stroke:#ff0000;"/>
    <path clip-path="url(#pa44a425871)" d="M 240.917778 36.776732 
L 240.917778 36.776732 
" style="fill:none;stroke:#ff0000;"/>
    <path clip-path="url(#pa44a425871)" d="M 310.24 36.776732 
L 310.24 36.776732 
" style="fill:none;stroke:#ff0000;"/>
    <path clip-path="url(#pa44a425871)" d="M 379.562222 36.776732 
L 379.562222 36.776732 
" style="fill:none;stroke:#ff0000;"/>
    <path clip-path="url(#pa44a425871)" d="M 448.884444 36.776732 
L 448.884444 36.776732 
" style="fill:none;stroke:#ff0000;"/>
    <path clip-path="url(#pa44a425871)" d="M 518.206667 36.776732 
L 518.206667 36.776732 
" style="fill:none;stroke:#ff0000;"/>
   </g>
   <g id="line2d_29">
    <defs>
     <path d="M 0 3 
C 0.795609 3 1.55874 2.683901 2.12132 2.12132 
C 2.683901 1.55874 3 0.795609 3 0 
C 3 -0.795609 2.683901 -1.55874 2.12132 -2.12132 
C 1.55874 -2.683901 0.795609 -3 0 -3 
C -0.795609 -3 -1.55874 -2.683901 -2.12132 -2.12132 
C -2.683901 -1.55874 -3 -0.795609 -3 0 
C -3 0.795609 -2.683901 1.55874 -2.12132 2.12132 
C -1.55874 2.683901 -0.795609 3 0 3 
z
" id="mc5516fcbb5" style="stroke:#000000;"/>
    </defs>
    <g clip-path="url(#pa44a425871)">
     <use style="stroke:#000000;" x="102.273333" xlink:href="#mc5516fcbb5" y="194.86608"/>
     <use style="stroke:#000000;" x="171.595556" xlink:href="#mc5516fcbb5" y="238.01909"/>
     <use style="stroke:#000000;" x="240.917778" xlink:href="#mc5516fcbb5" y="192.069296"/>
     <use style="stroke:#000000;" x="310.24" xlink:href="#mc5516fcbb5" y="183.660476"/>
     <use style="stroke:#000000;" x="379.562222" xlink:href="#mc5516fcbb5" y="229.024558"/>
     <use style="stroke:#000000;" x="448.884444" xlink:href="#mc5516fcbb5" y="224.357319"/>
     <use style="stroke:#000000;" x="518.206667" xlink:href="#mc5516fcbb5" y="168.973187"/>
    </g>
   </g>
   <g id="line2d_30">
    <defs>
     <path d="M 0 1.5 
C 0.397805 1.5 0.77937 1.341951 1.06066 1.06066 
C 1.341951 0.77937 1.5 0.397805 1.5 0 
C 1.5 -0.397805 1.341951 -0.77937 1.06066 -1.06066 
C 0.77937 -1.341951 0.397805 -1.5 0 -1.5 
C -0.397805 -1.5 -0.77937 -1.341951 -1.06066 -1.06066 
C -1.341951 -0.77937 -1.5 -0.397805 -1.5 0 
C -1.5 0.397805 -1.341951 0.77937 -1.06066 1.06066 
C -0.77937 1.341951 -0.397805 1.5 0 1.5 
z
" id="mfd78457527" style="stroke:#000000;"/>
    </defs>
    <g clip-path="url(#pa44a425871)">
     <use style="stroke:#000000;" x="102.273333" xlink:href="#mfd78457527" y="194.86608"/>
     <use style="stroke:#000000;" x="171.595556" xlink:href="#mfd78457527" y="238.01909"/>
     <use style="stroke:#000000;" x="240.917778" xlink:href="#mfd78457527" y="192.069296"/>
     <use style="stroke:#000000;" x="310.24" xlink:href="#mfd78457527" y="183.660476"/>
     <use style="stroke:#000000;" x="379.562222" xlink:href="#mfd78457527" y="229.024558"/>
     <use style="stroke:#000000;" x="448.884444" xlink:href="#mfd78457527" y="224.357319"/>
     <use style="stroke:#000000;" x="518.206667" xlink:href="#mfd78457527" y="168.973187"/>
    </g>
   </g>
   <g id="line2d_31">
    <defs>
     <path d="M -0 4.242641 
L 4.242641 0 
L 0 -4.242641 
L -4.242641 -0 
z
" id="ma905cab20e" style="stroke:#ff0000;stroke-linejoin:miter;"/>
    </defs>
    <g clip-path="url(#pa44a425871)">
     <use style="fill:#ff0000;stroke:#ff0000;stroke-linejoin:miter;" x="102.273333" xlink:href="#ma905cab20e" y="36.776732"/>
     <use style="fill:#ff0000;stroke:#ff0000;stroke-linejoin:miter;" x="171.595556" xlink:href="#ma905cab20e" y="36.776732"/>
     <use style="fill:#ff0000;stroke:#ff0000;stroke-linejoin:miter;" x="240.917778" xlink:href="#ma905cab20e" y="36.776732"/>
     <use style="fill:#ff0000;stroke:#ff0000;stroke-linejoin:miter;" x="310.24" xlink:href="#ma905cab20e" y="36.776732"/>
     <use style="fill:#ff0000;stroke:#ff0000;stroke-linejoin:miter;" x="379.562222" xlink:href="#ma905cab20e" y="36.776732"/>
     <use style="fill:#ff0000;stroke:#ff0000;stroke-linejoin:miter;" x="448.884444" xlink:href="#ma905cab20e" y="36.776732"/>
     <use style="fill:#ff0000;stroke:#ff0000;stroke-linejoin:miter;" x="518.206667" xlink:href="#ma905cab20e" y="36.776732"/>
    </g>
   </g>
   <g id="patch_3">
    <path d="M 60.68 263.120779 
L 60.68 16.2 
" style="fill:none;stroke:#000000;stroke-linecap:square;stroke-linejoin:miter;stroke-width:0.8;"/>
   </g>
   <g id="patch_4">
    <path d="M 559.8 263.120779 
L 559.8 16.2 
" style="fill:none;stroke:#000000;stroke-linecap:square;stroke-linejoin:miter;stroke-width:0.8;"/>
   </g>
   <g id="patch_5">
    <path d="M 60.68 263.120779 
L 559.8 263.120779 
" style="fill:none;stroke:#000000;stroke-linecap:square;stroke-linejoin:miter;stroke-width:0.8;"/>
   </g>
   <g id="patch_6">
    <path d="M 60.68 16.2 
L 559.8 16.2 
" style="fill:none;stroke:#000000;stroke-linecap:square;stroke-linejoin:miter;stroke-width:0.8;"/>
   </g>
   <g id="axes_2">
    <g id="patch_7">
     <path d="M 75.6536 127.314351 
L 125.5656 127.314351 
L 125.5656 65.584156 
L 75.6536 65.584156 
z
" style="fill:#ffffff;"/>
    </g>
    <g id="patch_8">
     <path clip-path="url(#p3abbb9a98e)" d="M 93.230388 127.314351 
L 93.517231 127.314351 
L 93.517231 124.642048 
L 93.230388 124.642048 
z
" style="fill:#1f77b4;"/>
    </g>
    <g id="patch_9">
     <path clip-path="url(#p3abbb9a98e)" d="M 93.517231 127.314351 
L 93.804074 127.314351 
L 93.804074 127.314351 
L 93.517231 127.314351 
z
" style="fill:#1f77b4;"/>
    </g>
    <g id="patch_10">
     <path clip-path="url(#p3abbb9a98e)" d="M 93.804074 127.314351 
L 94.090917 127.314351 
L 94.090917 127.314351 
L 93.804074 127.314351 
z
" style="fill:#1f77b4;"/>
    </g>
    <g id="patch_11">
     <path clip-path="url(#p3abbb9a98e)" d="M 94.090917 127.314351 
L 94.37776 127.314351 
L 94.37776 127.314351 
L 94.090917 127.314351 
z
" style="fill:#1f77b4;"/>
    </g>
    <g id="patch_12">
     <path clip-path="url(#p3abbb9a98e)" d="M 94.37776 127.314351 
L 94.664604 127.314351 
L 94.664604 127.314351 
L 94.37776 127.314351 
z
" style="fill:#1f77b4;"/>
    </g>
    <g id="patch_13">
     <path clip-path="url(#p3abbb9a98e)" d="M 94.664604 127.314351 
L 94.951447 127.314351 
L 94.951447 127.314351 
L 94.664604 127.314351 
z
" style="fill:#1f77b4;"/>
    </g>
    <g id="patch_14">
     <path clip-path="url(#p3abbb9a98e)" d="M 94.951447 127.314351 
L 95.23829 127.314351 
L 95.23829 127.314351 
L 94.951447 127.314351 
z
" style="fill:#1f77b4;"/>
    </g>
    <g id="patch_15">
     <path clip-path="url(#p3abbb9a98e)" d="M 95.23829 127.314351 
L 95.525133 127.314351 
L 95.525133 127.314351 
L 95.23829 127.314351 
z
" style="fill:#1f77b4;"/>
    </g>
    <g id="patch_16">
     <path clip-path="url(#p3abbb9a98e)" d="M 95.525133 127.314351 
L 95.811976 127.314351 
L 95.811976 127.314351 
L 95.525133 127.314351 
z
" style="fill:#1f77b4;"/>
    </g>
    <g id="patch_17">
     <path clip-path="url(#p3abbb9a98e)" d="M 95.811976 127.314351 
L 96.098819 127.314351 
L 96.098819 127.314351 
L 95.811976 127.314351 
z
" style="fill:#1f77b4;"/>
    </g>
    <g id="patch_18">
     <path clip-path="url(#p3abbb9a98e)" d="M 96.098819 127.314351 
L 96.385662 127.314351 
L 96.385662 127.314351 
L 96.098819 127.314351 
z
" style="fill:#1f77b4;"/>
    </g>
    <g id="patch_19">
     <path clip-path="url(#p3abbb9a98e)" d="M 96.385662 127.314351 
L 96.672506 127.314351 
L 96.672506 127.314351 
L 96.385662 127.314351 
z
" style="fill:#1f77b4;"/>
    </g>
    <g id="patch_20">
     <path clip-path="url(#p3abbb9a98e)" d="M 96.672506 127.314351 
L 96.959349 127.314351 
L 96.959349 124.642048 
L 96.672506 124.642048 
z
" style="fill:#1f77b4;"/>
    </g>
    <g id="patch_21">
     <path clip-path="url(#p3abbb9a98e)" d="M 96.959349 127.314351 
L 97.246192 127.314351 
L 97.246192 127.314351 
L 96.959349 127.314351 
z
" style="fill:#1f77b4;"/>
    </g>
    <g id="patch_22">
     <path clip-path="url(#p3abbb9a98e)" d="M 97.246192 127.314351 
L 97.533035 127.314351 
L 97.533035 127.314351 
L 97.246192 127.314351 
z
" style="fill:#1f77b4;"/>
    </g>
    <g id="patch_23">
     <path clip-path="url(#p3abbb9a98e)" d="M 97.533035 127.314351 
L 97.819878 127.314351 
L 97.819878 111.280534 
L 97.533035 111.280534 
z
" style="fill:#1f77b4;"/>
    </g>
    <g id="patch_24">
     <path clip-path="url(#p3abbb9a98e)" d="M 97.819878 127.314351 
L 98.106721 127.314351 
L 98.106721 97.91902 
L 97.819878 97.91902 
z
" style="fill:#1f77b4;"/>
    </g>
    <g id="patch_25">
     <path clip-path="url(#p3abbb9a98e)" d="M 98.106721 127.314351 
L 98.393565 127.314351 
L 98.393565 68.523689 
L 98.106721 68.523689 
z
" style="fill:#1f77b4;"/>
    </g>
    <g id="patch_26">
     <path clip-path="url(#p3abbb9a98e)" d="M 98.393565 127.314351 
L 98.680408 127.314351 
L 98.680408 71.195992 
L 98.393565 71.195992 
z
" style="fill:#1f77b4;"/>
    </g>
    <g id="patch_27">
     <path clip-path="url(#p3abbb9a98e)" d="M 98.680408 127.314351 
L 98.967251 127.314351 
L 98.967251 68.523689 
L 98.680408 68.523689 
z
" style="fill:#1f77b4;"/>
    </g>
    <g id="patch_28">
     <path clip-path="url(#p3abbb9a98e)" d="M 98.967251 127.314351 
L 99.254094 127.314351 
L 99.254094 105.935928 
L 98.967251 105.935928 
z
" style="fill:#1f77b4;"/>
    </g>
    <g id="patch_29">
     <path clip-path="url(#p3abbb9a98e)" d="M 99.254094 127.314351 
L 99.540937 127.314351 
L 99.540937 121.969745 
L 99.254094 121.969745 
z
" style="fill:#1f77b4;"/>
    </g>
    <g id="patch_30">
     <path clip-path="url(#p3abbb9a98e)" d="M 99.540937 127.314351 
L 99.82778 127.314351 
L 99.82778 116.625139 
L 99.540937 116.625139 
z
" style="fill:#1f77b4;"/>
    </g>
    <g id="patch_31">
     <path clip-path="url(#p3abbb9a98e)" d="M 99.82778 127.314351 
L 100.114623 127.314351 
L 100.114623 124.642048 
L 99.82778 124.642048 
z
" style="fill:#1f77b4;"/>
    </g>
    <g id="patch_32">
     <path clip-path="url(#p3abbb9a98e)" d="M 100.114623 127.314351 
L 100.401467 127.314351 
L 100.401467 124.642048 
L 100.114623 124.642048 
z
" style="fill:#1f77b4;"/>
    </g>
    <g id="patch_33">
     <path d="M 75.6536 127.314351 
L 75.6536 65.584156 
" style="fill:none;stroke:#000000;stroke-linecap:square;stroke-linejoin:miter;stroke-width:0.8;"/>
    </g>
    <g id="patch_34">
     <path d="M 125.5656 127.314351 
L 125.5656 65.584156 
" style="fill:none;stroke:#000000;stroke-linecap:square;stroke-linejoin:miter;stroke-width:0.8;"/>
    </g>
    <g id="patch_35">
     <path d="M 75.6536 127.314351 
L 125.5656 127.314351 
" style="fill:none;stroke:#000000;stroke-linecap:square;stroke-linejoin:miter;stroke-width:0.8;"/>
    </g>
    <g id="patch_36">
     <path d="M 75.6536 65.584156 
L 125.5656 65.584156 
" style="fill:none;stroke:#000000;stroke-linecap:square;stroke-linejoin:miter;stroke-width:0.8;"/>
    </g>
   </g>
   <g id="axes_3">
    <g id="patch_37">
     <path d="M 145.28084 127.314351 
L 195.19284 127.314351 
L 195.19284 65.584156 
L 145.28084 65.584156 
z
" style="fill:#ffffff;"/>
    </g>
    <g id="patch_38">
     <path clip-path="url(#p6e48522b6b)" d="M 145.727523 127.314351 
L 146.084869 127.314351 
L 146.084869 109.224916 
L 145.727523 109.224916 
z
" style="fill:#1f77b4;"/>
    </g>
    <g id="patch_39">
     <path clip-path="url(#p6e48522b6b)" d="M 146.084869 127.314351 
L 146.442215 127.314351 
L 146.442215 73.046048 
L 146.084869 73.046048 
z
" style="fill:#1f77b4;"/>
    </g>
    <g id="patch_40">
     <path clip-path="url(#p6e48522b6b)" d="M 146.442215 127.314351 
L 146.799561 127.314351 
L 146.799561 91.135482 
L 146.442215 91.135482 
z
" style="fill:#1f77b4;"/>
    </g>
    <g id="patch_41">
     <path clip-path="url(#p6e48522b6b)" d="M 146.799561 127.314351 
L 147.156907 127.314351 
L 147.156907 73.046048 
L 146.799561 73.046048 
z
" style="fill:#1f77b4;"/>
    </g>
    <g id="patch_42">
     <path clip-path="url(#p6e48522b6b)" d="M 147.156907 127.314351 
L 147.514253 127.314351 
L 147.514253 77.568406 
L 147.156907 77.568406 
z
" style="fill:#1f77b4;"/>
    </g>
    <g id="patch_43">
     <path clip-path="url(#p6e48522b6b)" d="M 147.514253 127.314351 
L 147.871599 127.314351 
L 147.871599 68.523689 
L 147.514253 68.523689 
z
" style="fill:#1f77b4;"/>
    </g>
    <g id="patch_44">
     <path clip-path="url(#p6e48522b6b)" d="M 147.871599 127.314351 
L 148.228945 127.314351 
L 148.228945 95.657841 
L 147.871599 95.657841 
z
" style="fill:#1f77b4;"/>
    </g>
    <g id="patch_45">
     <path clip-path="url(#p6e48522b6b)" d="M 148.228945 127.314351 
L 148.586291 127.314351 
L 148.586291 127.314351 
L 148.228945 127.314351 
z
" style="fill:#1f77b4;"/>
    </g>
    <g id="patch_46">
     <path clip-path="url(#p6e48522b6b)" d="M 148.586291 127.314351 
L 148.943637 127.314351 
L 148.943637 118.269634 
L 148.586291 118.269634 
z
" style="fill:#1f77b4;"/>
    </g>
    <g id="patch_47">
     <path clip-path="url(#p6e48522b6b)" d="M 148.943637 127.314351 
L 149.300983 127.314351 
L 149.300983 118.269634 
L 148.943637 118.269634 
z
" style="fill:#1f77b4;"/>
    </g>
    <g id="patch_48">
     <path clip-path="url(#p6e48522b6b)" d="M 149.300983 127.314351 
L 149.658329 127.314351 
L 149.658329 127.314351 
L 149.300983 127.314351 
z
" style="fill:#1f77b4;"/>
    </g>
    <g id="patch_49">
     <path clip-path="url(#p6e48522b6b)" d="M 149.658329 127.314351 
L 150.015675 127.314351 
L 150.015675 113.747275 
L 149.658329 113.747275 
z
" style="fill:#1f77b4;"/>
    </g>
    <g id="patch_50">
     <path clip-path="url(#p6e48522b6b)" d="M 150.015675 127.314351 
L 150.373021 127.314351 
L 150.373021 109.224916 
L 150.015675 109.224916 
z
" style="fill:#1f77b4;"/>
    </g>
    <g id="patch_51">
     <path clip-path="url(#p6e48522b6b)" d="M 150.373021 127.314351 
L 150.730367 127.314351 
L 150.730367 100.180199 
L 150.373021 100.180199 
z
" style="fill:#1f77b4;"/>
    </g>
    <g id="patch_52">
     <path clip-path="url(#p6e48522b6b)" d="M 150.730367 127.314351 
L 151.087713 127.314351 
L 151.087713 118.269634 
L 150.730367 118.269634 
z
" style="fill:#1f77b4;"/>
    </g>
    <g id="patch_53">
     <path clip-path="url(#p6e48522b6b)" d="M 151.087713 127.314351 
L 151.44506 127.314351 
L 151.44506 95.657841 
L 151.087713 95.657841 
z
" style="fill:#1f77b4;"/>
    </g>
    <g id="patch_54">
     <path clip-path="url(#p6e48522b6b)" d="M 151.44506 127.314351 
L 151.802406 127.314351 
L 151.802406 122.791992 
L 151.44506 122.791992 
z
" style="fill:#1f77b4;"/>
    </g>
    <g id="patch_55">
     <path clip-path="url(#p6e48522b6b)" d="M 151.802406 127.314351 
L 152.159752 127.314351 
L 152.159752 127.314351 
L 151.802406 127.314351 
z
" style="fill:#1f77b4;"/>
    </g>
    <g id="patch_56">
     <path clip-path="url(#p6e48522b6b)" d="M 152.159752 127.314351 
L 152.517098 127.314351 
L 152.517098 118.269634 
L 152.159752 118.269634 
z
" style="fill:#1f77b4;"/>
    </g>
    <g id="patch_57">
     <path clip-path="url(#p6e48522b6b)" d="M 152.517098 127.314351 
L 152.874444 127.314351 
L 152.874444 127.314351 
L 152.517098 127.314351 
z
" style="fill:#1f77b4;"/>
    </g>
    <g id="patch_58">
     <path clip-path="url(#p6e48522b6b)" d="M 152.874444 127.314351 
L 153.23179 127.314351 
L 153.23179 127.314351 
L 152.874444 127.314351 
z
" style="fill:#1f77b4;"/>
    </g>
    <g id="patch_59">
     <path clip-path="url(#p6e48522b6b)" d="M 153.23179 127.314351 
L 153.589136 127.314351 
L 153.589136 127.314351 
L 153.23179 127.314351 
z
" style="fill:#1f77b4;"/>
    </g>
    <g id="patch_60">
     <path clip-path="url(#p6e48522b6b)" d="M 153.589136 127.314351 
L 153.946482 127.314351 
L 153.946482 127.314351 
L 153.589136 127.314351 
z
" style="fill:#1f77b4;"/>
    </g>
    <g id="patch_61">
     <path clip-path="url(#p6e48522b6b)" d="M 153.946482 127.314351 
L 154.303828 127.314351 
L 154.303828 127.314351 
L 153.946482 127.314351 
z
" style="fill:#1f77b4;"/>
    </g>
    <g id="patch_62">
     <path clip-path="url(#p6e48522b6b)" d="M 154.303828 127.314351 
L 154.661174 127.314351 
L 154.661174 109.224916 
L 154.303828 109.224916 
z
" style="fill:#1f77b4;"/>
    </g>
    <g id="patch_63">
     <path d="M 145.28084 127.314351 
L 145.28084 65.584156 
" style="fill:none;stroke:#000000;stroke-linecap:square;stroke-linejoin:miter;stroke-width:0.8;"/>
    </g>
    <g id="patch_64">
     <path d="M 195.19284 127.314351 
L 195.19284 65.584156 
" style="fill:none;stroke:#000000;stroke-linecap:square;stroke-linejoin:miter;stroke-width:0.8;"/>
    </g>
    <g id="patch_65">
     <path d="M 145.28084 127.314351 
L 195.19284 127.314351 
" style="fill:none;stroke:#000000;stroke-linecap:square;stroke-linejoin:miter;stroke-width:0.8;"/>
    </g>
    <g id="patch_66">
     <path d="M 145.28084 65.584156 
L 195.19284 65.584156 
" style="fill:none;stroke:#000000;stroke-linecap:square;stroke-linejoin:miter;stroke-width:0.8;"/>
    </g>
   </g>
   <g id="axes_4">
    <g id="patch_67">
     <path d="M 214.90808 127.314351 
L 264.82008 127.314351 
L 264.82008 65.584156 
L 214.90808 65.584156 
z
" style="fill:#ffffff;"/>
    </g>
    <g id="patch_68">
     <path clip-path="url(#p118c94008b)" d="M 233.533012 127.314351 
L 233.745785 127.314351 
L 233.745785 124.220105 
L 233.533012 124.220105 
z
" style="fill:#1f77b4;"/>
    </g>
    <g id="patch_69">
     <path clip-path="url(#p118c94008b)" d="M 233.745785 127.314351 
L 233.958559 127.314351 
L 233.958559 127.314351 
L 233.745785 127.314351 
z
" style="fill:#1f77b4;"/>
    </g>
    <g id="patch_70">
     <path clip-path="url(#p118c94008b)" d="M 233.958559 127.314351 
L 234.171333 127.314351 
L 234.171333 127.314351 
L 233.958559 127.314351 
z
" style="fill:#1f77b4;"/>
    </g>
    <g id="patch_71">
     <path clip-path="url(#p118c94008b)" d="M 234.171333 127.314351 
L 234.384106 127.314351 
L 234.384106 127.314351 
L 234.171333 127.314351 
z
" style="fill:#1f77b4;"/>
    </g>
    <g id="patch_72">
     <path clip-path="url(#p118c94008b)" d="M 234.384106 127.314351 
L 234.59688 127.314351 
L 234.59688 124.220105 
L 234.384106 124.220105 
z
" style="fill:#1f77b4;"/>
    </g>
    <g id="patch_73">
     <path clip-path="url(#p118c94008b)" d="M 234.59688 127.314351 
L 234.809654 127.314351 
L 234.809654 127.314351 
L 234.59688 127.314351 
z
" style="fill:#1f77b4;"/>
    </g>
    <g id="patch_74">
     <path clip-path="url(#p118c94008b)" d="M 234.809654 127.314351 
L 235.022427 127.314351 
L 235.022427 127.314351 
L 234.809654 127.314351 
z
" style="fill:#1f77b4;"/>
    </g>
    <g id="patch_75">
     <path clip-path="url(#p118c94008b)" d="M 235.022427 127.314351 
L 235.235201 127.314351 
L 235.235201 127.314351 
L 235.022427 127.314351 
z
" style="fill:#1f77b4;"/>
    </g>
    <g id="patch_76">
     <path clip-path="url(#p118c94008b)" d="M 235.235201 127.314351 
L 235.447975 127.314351 
L 235.447975 127.314351 
L 235.235201 127.314351 
z
" style="fill:#1f77b4;"/>
    </g>
    <g id="patch_77">
     <path clip-path="url(#p118c94008b)" d="M 235.447975 127.314351 
L 235.660748 127.314351 
L 235.660748 127.314351 
L 235.447975 127.314351 
z
" style="fill:#1f77b4;"/>
    </g>
    <g id="patch_78">
     <path clip-path="url(#p118c94008b)" d="M 235.660748 127.314351 
L 235.873522 127.314351 
L 235.873522 124.220105 
L 235.660748 124.220105 
z
" style="fill:#1f77b4;"/>
    </g>
    <g id="patch_79">
     <path clip-path="url(#p118c94008b)" d="M 235.873522 127.314351 
L 236.086296 127.314351 
L 236.086296 127.314351 
L 235.873522 127.314351 
z
" style="fill:#1f77b4;"/>
    </g>
    <g id="patch_80">
     <path clip-path="url(#p118c94008b)" d="M 236.086296 127.314351 
L 236.299069 127.314351 
L 236.299069 124.220105 
L 236.086296 124.220105 
z
" style="fill:#1f77b4;"/>
    </g>
    <g id="patch_81">
     <path clip-path="url(#p118c94008b)" d="M 236.299069 127.314351 
L 236.511843 127.314351 
L 236.511843 124.220105 
L 236.299069 124.220105 
z
" style="fill:#1f77b4;"/>
    </g>
    <g id="patch_82">
     <path clip-path="url(#p118c94008b)" d="M 236.511843 127.314351 
L 236.724617 127.314351 
L 236.724617 108.748879 
L 236.511843 108.748879 
z
" style="fill:#1f77b4;"/>
    </g>
    <g id="patch_83">
     <path clip-path="url(#p118c94008b)" d="M 236.724617 127.314351 
L 236.93739 127.314351 
L 236.93739 105.654633 
L 236.724617 105.654633 
z
" style="fill:#1f77b4;"/>
    </g>
    <g id="patch_84">
     <path clip-path="url(#p118c94008b)" d="M 236.93739 127.314351 
L 237.150164 127.314351 
L 237.150164 93.277652 
L 236.93739 93.277652 
z
" style="fill:#1f77b4;"/>
    </g>
    <g id="patch_85">
     <path clip-path="url(#p118c94008b)" d="M 237.150164 127.314351 
L 237.362938 127.314351 
L 237.362938 96.371897 
L 237.150164 96.371897 
z
" style="fill:#1f77b4;"/>
    </g>
    <g id="patch_86">
     <path clip-path="url(#p118c94008b)" d="M 237.362938 127.314351 
L 237.575711 127.314351 
L 237.575711 68.523689 
L 237.362938 68.523689 
z
" style="fill:#1f77b4;"/>
    </g>
    <g id="patch_87">
     <path clip-path="url(#p118c94008b)" d="M 237.575711 127.314351 
L 237.788485 127.314351 
L 237.788485 90.183406 
L 237.575711 90.183406 
z
" style="fill:#1f77b4;"/>
    </g>
    <g id="patch_88">
     <path clip-path="url(#p118c94008b)" d="M 237.788485 127.314351 
L 238.001259 127.314351 
L 238.001259 93.277652 
L 237.788485 93.277652 
z
" style="fill:#1f77b4;"/>
    </g>
    <g id="patch_89">
     <path clip-path="url(#p118c94008b)" d="M 238.001259 127.314351 
L 238.214033 127.314351 
L 238.214033 99.466143 
L 238.001259 99.466143 
z
" style="fill:#1f77b4;"/>
    </g>
    <g id="patch_90">
     <path clip-path="url(#p118c94008b)" d="M 238.214033 127.314351 
L 238.426806 127.314351 
L 238.426806 114.937369 
L 238.214033 114.937369 
z
" style="fill:#1f77b4;"/>
    </g>
    <g id="patch_91">
     <path clip-path="url(#p118c94008b)" d="M 238.426806 127.314351 
L 238.63958 127.314351 
L 238.63958 118.031615 
L 238.426806 118.031615 
z
" style="fill:#1f77b4;"/>
    </g>
    <g id="patch_92">
     <path clip-path="url(#p118c94008b)" d="M 238.63958 127.314351 
L 238.852354 127.314351 
L 238.852354 118.031615 
L 238.63958 118.031615 
z
" style="fill:#1f77b4;"/>
    </g>
    <g id="patch_93">
     <path d="M 214.90808 127.314351 
L 214.90808 65.584156 
" style="fill:none;stroke:#000000;stroke-linecap:square;stroke-linejoin:miter;stroke-width:0.8;"/>
    </g>
    <g id="patch_94">
     <path d="M 264.82008 127.314351 
L 264.82008 65.584156 
" style="fill:none;stroke:#000000;stroke-linecap:square;stroke-linejoin:miter;stroke-width:0.8;"/>
    </g>
    <g id="patch_95">
     <path d="M 214.90808 127.314351 
L 264.82008 127.314351 
" style="fill:none;stroke:#000000;stroke-linecap:square;stroke-linejoin:miter;stroke-width:0.8;"/>
    </g>
    <g id="patch_96">
     <path d="M 214.90808 65.584156 
L 264.82008 65.584156 
" style="fill:none;stroke:#000000;stroke-linecap:square;stroke-linejoin:miter;stroke-width:0.8;"/>
    </g>
   </g>
   <g id="axes_5">
    <g id="patch_97">
     <path d="M 284.53532 127.314351 
L 334.44732 127.314351 
L 334.44732 65.584156 
L 284.53532 65.584156 
z
" style="fill:#ffffff;"/>
    </g>
    <g id="patch_98">
     <path clip-path="url(#pdc00962910)" d="M 300.785408 127.314351 
L 301.084647 127.314351 
L 301.084647 124.514795 
L 300.785408 124.514795 
z
" style="fill:#1f77b4;"/>
    </g>
    <g id="patch_99">
     <path clip-path="url(#pdc00962910)" d="M 301.084647 127.314351 
L 301.383887 127.314351 
L 301.383887 127.314351 
L 301.084647 127.314351 
z
" style="fill:#1f77b4;"/>
    </g>
    <g id="patch_100">
     <path clip-path="url(#pdc00962910)" d="M 301.383887 127.314351 
L 301.683126 127.314351 
L 301.683126 127.314351 
L 301.383887 127.314351 
z
" style="fill:#1f77b4;"/>
    </g>
    <g id="patch_101">
     <path clip-path="url(#pdc00962910)" d="M 301.683126 127.314351 
L 301.982366 127.314351 
L 301.982366 127.314351 
L 301.683126 127.314351 
z
" style="fill:#1f77b4;"/>
    </g>
    <g id="patch_102">
     <path clip-path="url(#pdc00962910)" d="M 301.982366 127.314351 
L 302.281605 127.314351 
L 302.281605 127.314351 
L 301.982366 127.314351 
z
" style="fill:#1f77b4;"/>
    </g>
    <g id="patch_103">
     <path clip-path="url(#pdc00962910)" d="M 302.281605 127.314351 
L 302.580845 127.314351 
L 302.580845 127.314351 
L 302.281605 127.314351 
z
" style="fill:#1f77b4;"/>
    </g>
    <g id="patch_104">
     <path clip-path="url(#pdc00962910)" d="M 302.580845 127.314351 
L 302.880084 127.314351 
L 302.880084 127.314351 
L 302.580845 127.314351 
z
" style="fill:#1f77b4;"/>
    </g>
    <g id="patch_105">
     <path clip-path="url(#pdc00962910)" d="M 302.880084 127.314351 
L 303.179324 127.314351 
L 303.179324 127.314351 
L 302.880084 127.314351 
z
" style="fill:#1f77b4;"/>
    </g>
    <g id="patch_106">
     <path clip-path="url(#pdc00962910)" d="M 303.179324 127.314351 
L 303.478563 127.314351 
L 303.478563 127.314351 
L 303.179324 127.314351 
z
" style="fill:#1f77b4;"/>
    </g>
    <g id="patch_107">
     <path clip-path="url(#pdc00962910)" d="M 303.478563 127.314351 
L 303.777803 127.314351 
L 303.777803 127.314351 
L 303.478563 127.314351 
z
" style="fill:#1f77b4;"/>
    </g>
    <g id="patch_108">
     <path clip-path="url(#pdc00962910)" d="M 303.777803 127.314351 
L 304.077042 127.314351 
L 304.077042 124.514795 
L 303.777803 124.514795 
z
" style="fill:#1f77b4;"/>
    </g>
    <g id="patch_109">
     <path clip-path="url(#pdc00962910)" d="M 304.077042 127.314351 
L 304.376282 127.314351 
L 304.376282 127.314351 
L 304.077042 127.314351 
z
" style="fill:#1f77b4;"/>
    </g>
    <g id="patch_110">
     <path clip-path="url(#pdc00962910)" d="M 304.376282 127.314351 
L 304.675521 127.314351 
L 304.675521 124.514795 
L 304.376282 124.514795 
z
" style="fill:#1f77b4;"/>
    </g>
    <g id="patch_111">
     <path clip-path="url(#pdc00962910)" d="M 304.675521 127.314351 
L 304.974761 127.314351 
L 304.974761 124.514795 
L 304.675521 124.514795 
z
" style="fill:#1f77b4;"/>
    </g>
    <g id="patch_112">
     <path clip-path="url(#pdc00962910)" d="M 304.974761 127.314351 
L 305.274 127.314351 
L 305.274 121.71524 
L 304.974761 121.71524 
z
" style="fill:#1f77b4;"/>
    </g>
    <g id="patch_113">
     <path clip-path="url(#pdc00962910)" d="M 305.274 127.314351 
L 305.57324 127.314351 
L 305.57324 107.717463 
L 305.274 107.717463 
z
" style="fill:#1f77b4;"/>
    </g>
    <g id="patch_114">
     <path clip-path="url(#pdc00962910)" d="M 305.57324 127.314351 
L 305.872479 127.314351 
L 305.872479 96.519242 
L 305.57324 96.519242 
z
" style="fill:#1f77b4;"/>
    </g>
    <g id="patch_115">
     <path clip-path="url(#pdc00962910)" d="M 305.872479 127.314351 
L 306.171719 127.314351 
L 306.171719 68.523689 
L 305.872479 68.523689 
z
" style="fill:#1f77b4;"/>
    </g>
    <g id="patch_116">
     <path clip-path="url(#pdc00962910)" d="M 306.171719 127.314351 
L 306.470958 127.314351 
L 306.470958 74.1228 
L 306.171719 74.1228 
z
" style="fill:#1f77b4;"/>
    </g>
    <g id="patch_117">
     <path clip-path="url(#pdc00962910)" d="M 306.470958 127.314351 
L 306.770198 127.314351 
L 306.770198 99.318798 
L 306.470958 99.318798 
z
" style="fill:#1f77b4;"/>
    </g>
    <g id="patch_118">
     <path clip-path="url(#pdc00962910)" d="M 306.770198 127.314351 
L 307.069437 127.314351 
L 307.069437 102.118353 
L 306.770198 102.118353 
z
" style="fill:#1f77b4;"/>
    </g>
    <g id="patch_119">
     <path clip-path="url(#pdc00962910)" d="M 307.069437 127.314351 
L 307.368677 127.314351 
L 307.368677 102.118353 
L 307.069437 102.118353 
z
" style="fill:#1f77b4;"/>
    </g>
    <g id="patch_120">
     <path clip-path="url(#pdc00962910)" d="M 307.368677 127.314351 
L 307.667916 127.314351 
L 307.667916 118.915685 
L 307.368677 118.915685 
z
" style="fill:#1f77b4;"/>
    </g>
    <g id="patch_121">
     <path clip-path="url(#pdc00962910)" d="M 307.667916 127.314351 
L 307.967156 127.314351 
L 307.967156 121.71524 
L 307.667916 121.71524 
z
" style="fill:#1f77b4;"/>
    </g>
    <g id="patch_122">
     <path clip-path="url(#pdc00962910)" d="M 307.967156 127.314351 
L 308.266395 127.314351 
L 308.266395 118.915685 
L 307.967156 118.915685 
z
" style="fill:#1f77b4;"/>
    </g>
    <g id="patch_123">
     <path d="M 284.53532 127.314351 
L 284.53532 65.584156 
" style="fill:none;stroke:#000000;stroke-linecap:square;stroke-linejoin:miter;stroke-width:0.8;"/>
    </g>
    <g id="patch_124">
     <path d="M 334.44732 127.314351 
L 334.44732 65.584156 
" style="fill:none;stroke:#000000;stroke-linecap:square;stroke-linejoin:miter;stroke-width:0.8;"/>
    </g>
    <g id="patch_125">
     <path d="M 284.53532 127.314351 
L 334.44732 127.314351 
" style="fill:none;stroke:#000000;stroke-linecap:square;stroke-linejoin:miter;stroke-width:0.8;"/>
    </g>
    <g id="patch_126">
     <path d="M 284.53532 65.584156 
L 334.44732 65.584156 
" style="fill:none;stroke:#000000;stroke-linecap:square;stroke-linejoin:miter;stroke-width:0.8;"/>
    </g>
   </g>
   <g id="axes_6">
    <g id="patch_127">
     <path d="M 354.16256 127.314351 
L 404.07456 127.314351 
L 404.07456 65.584156 
L 354.16256 65.584156 
z
" style="fill:#ffffff;"/>
    </g>
    <g id="patch_128">
     <path clip-path="url(#pf871b75ee6)" d="M 355.198132 127.314351 
L 356.02659 127.314351 
L 356.02659 68.523689 
L 355.198132 68.523689 
z
" style="fill:#1f77b4;"/>
    </g>
    <g id="patch_129">
     <path clip-path="url(#pf871b75ee6)" d="M 356.02659 127.314351 
L 356.855048 127.314351 
L 356.855048 127.314351 
L 356.02659 127.314351 
z
" style="fill:#1f77b4;"/>
    </g>
    <g id="patch_130">
     <path clip-path="url(#pf871b75ee6)" d="M 356.855048 127.314351 
L 357.683505 127.314351 
L 357.683505 125.214684 
L 356.855048 125.214684 
z
" style="fill:#1f77b4;"/>
    </g>
    <g id="patch_131">
     <path clip-path="url(#pf871b75ee6)" d="M 357.683505 127.314351 
L 358.511963 127.314351 
L 358.511963 127.314351 
L 357.683505 127.314351 
z
" style="fill:#1f77b4;"/>
    </g>
    <g id="patch_132">
     <path clip-path="url(#pf871b75ee6)" d="M 358.511963 127.314351 
L 359.340421 127.314351 
L 359.340421 127.314351 
L 358.511963 127.314351 
z
" style="fill:#1f77b4;"/>
    </g>
    <g id="patch_133">
     <path clip-path="url(#pf871b75ee6)" d="M 359.340421 127.314351 
L 360.168879 127.314351 
L 360.168879 127.314351 
L 359.340421 127.314351 
z
" style="fill:#1f77b4;"/>
    </g>
    <g id="patch_134">
     <path clip-path="url(#pf871b75ee6)" d="M 360.168879 127.314351 
L 360.997336 127.314351 
L 360.997336 127.314351 
L 360.168879 127.314351 
z
" style="fill:#1f77b4;"/>
    </g>
    <g id="patch_135">
     <path clip-path="url(#pf871b75ee6)" d="M 360.997336 127.314351 
L 361.825794 127.314351 
L 361.825794 127.314351 
L 360.997336 127.314351 
z
" style="fill:#1f77b4;"/>
    </g>
    <g id="patch_136">
     <path clip-path="url(#pf871b75ee6)" d="M 361.825794 127.314351 
L 362.654252 127.314351 
L 362.654252 127.314351 
L 361.825794 127.314351 
z
" style="fill:#1f77b4;"/>
    </g>
    <g id="patch_137">
     <path clip-path="url(#pf871b75ee6)" d="M 362.654252 127.314351 
L 363.48271 127.314351 
L 363.48271 123.115018 
L 362.654252 123.115018 
z
" style="fill:#1f77b4;"/>
    </g>
    <g id="patch_138">
     <path clip-path="url(#pf871b75ee6)" d="M 363.48271 127.314351 
L 364.311167 127.314351 
L 364.311167 118.915685 
L 363.48271 118.915685 
z
" style="fill:#1f77b4;"/>
    </g>
    <g id="patch_139">
     <path clip-path="url(#pf871b75ee6)" d="M 364.311167 127.314351 
L 365.139625 127.314351 
L 365.139625 123.115018 
L 364.311167 123.115018 
z
" style="fill:#1f77b4;"/>
    </g>
    <g id="patch_140">
     <path clip-path="url(#pf871b75ee6)" d="M 365.139625 127.314351 
L 365.968083 127.314351 
L 365.968083 127.314351 
L 365.139625 127.314351 
z
" style="fill:#1f77b4;"/>
    </g>
    <g id="patch_141">
     <path clip-path="url(#pf871b75ee6)" d="M 365.968083 127.314351 
L 366.796541 127.314351 
L 366.796541 123.115018 
L 365.968083 123.115018 
z
" style="fill:#1f77b4;"/>
    </g>
    <g id="patch_142">
     <path clip-path="url(#pf871b75ee6)" d="M 366.796541 127.314351 
L 367.624998 127.314351 
L 367.624998 118.915685 
L 366.796541 118.915685 
z
" style="fill:#1f77b4;"/>
    </g>
    <g id="patch_143">
     <path clip-path="url(#pf871b75ee6)" d="M 367.624998 127.314351 
L 368.453456 127.314351 
L 368.453456 125.214684 
L 367.624998 125.214684 
z
" style="fill:#1f77b4;"/>
    </g>
    <g id="patch_144">
     <path clip-path="url(#pf871b75ee6)" d="M 368.453456 127.314351 
L 369.281914 127.314351 
L 369.281914 121.015351 
L 368.453456 121.015351 
z
" style="fill:#1f77b4;"/>
    </g>
    <g id="patch_145">
     <path clip-path="url(#pf871b75ee6)" d="M 369.281914 127.314351 
L 370.110372 127.314351 
L 370.110372 112.616685 
L 369.281914 112.616685 
z
" style="fill:#1f77b4;"/>
    </g>
    <g id="patch_146">
     <path clip-path="url(#pf871b75ee6)" d="M 370.110372 127.314351 
L 370.938829 127.314351 
L 370.938829 123.115018 
L 370.110372 123.115018 
z
" style="fill:#1f77b4;"/>
    </g>
    <g id="patch_147">
     <path clip-path="url(#pf871b75ee6)" d="M 370.938829 127.314351 
L 371.767287 127.314351 
L 371.767287 121.015351 
L 370.938829 121.015351 
z
" style="fill:#1f77b4;"/>
    </g>
    <g id="patch_148">
     <path clip-path="url(#pf871b75ee6)" d="M 371.767287 127.314351 
L 372.595745 127.314351 
L 372.595745 121.015351 
L 371.767287 121.015351 
z
" style="fill:#1f77b4;"/>
    </g>
    <g id="patch_149">
     <path clip-path="url(#pf871b75ee6)" d="M 372.595745 127.314351 
L 373.424203 127.314351 
L 373.424203 116.816018 
L 372.595745 116.816018 
z
" style="fill:#1f77b4;"/>
    </g>
    <g id="patch_150">
     <path clip-path="url(#pf871b75ee6)" d="M 373.424203 127.314351 
L 374.25266 127.314351 
L 374.25266 114.716352 
L 373.424203 114.716352 
z
" style="fill:#1f77b4;"/>
    </g>
    <g id="patch_151">
     <path clip-path="url(#pf871b75ee6)" d="M 374.25266 127.314351 
L 375.081118 127.314351 
L 375.081118 89.520354 
L 374.25266 89.520354 
z
" style="fill:#1f77b4;"/>
    </g>
    <g id="patch_152">
     <path clip-path="url(#pf871b75ee6)" d="M 375.081118 127.314351 
L 375.909576 127.314351 
L 375.909576 108.417352 
L 375.081118 108.417352 
z
" style="fill:#1f77b4;"/>
    </g>
    <g id="patch_153">
     <path d="M 354.16256 127.314351 
L 354.16256 65.584156 
" style="fill:none;stroke:#000000;stroke-linecap:square;stroke-linejoin:miter;stroke-width:0.8;"/>
    </g>
    <g id="patch_154">
     <path d="M 404.07456 127.314351 
L 404.07456 65.584156 
" style="fill:none;stroke:#000000;stroke-linecap:square;stroke-linejoin:miter;stroke-width:0.8;"/>
    </g>
    <g id="patch_155">
     <path d="M 354.16256 127.314351 
L 404.07456 127.314351 
" style="fill:none;stroke:#000000;stroke-linecap:square;stroke-linejoin:miter;stroke-width:0.8;"/>
    </g>
    <g id="patch_156">
     <path d="M 354.16256 65.584156 
L 404.07456 65.584156 
" style="fill:none;stroke:#000000;stroke-linecap:square;stroke-linejoin:miter;stroke-width:0.8;"/>
    </g>
   </g>
   <g id="axes_7">
    <g id="patch_157">
     <path d="M 423.7898 127.314351 
L 473.7018 127.314351 
L 473.7018 65.584156 
L 423.7898 65.584156 
z
" style="fill:#ffffff;"/>
    </g>
    <g id="patch_158">
     <path clip-path="url(#pa6ac40b4c5)" d="M 425.040979 127.314351 
L 426.041921 127.314351 
L 426.041921 68.523689 
L 425.040979 68.523689 
z
" style="fill:#1f77b4;"/>
    </g>
    <g id="patch_159">
     <path clip-path="url(#pa6ac40b4c5)" d="M 426.041921 127.314351 
L 427.042864 127.314351 
L 427.042864 127.314351 
L 426.041921 127.314351 
z
" style="fill:#1f77b4;"/>
    </g>
    <g id="patch_160">
     <path clip-path="url(#pa6ac40b4c5)" d="M 427.042864 127.314351 
L 428.043807 127.314351 
L 428.043807 127.314351 
L 427.042864 127.314351 
z
" style="fill:#1f77b4;"/>
    </g>
    <g id="patch_161">
     <path clip-path="url(#pa6ac40b4c5)" d="M 428.043807 127.314351 
L 429.04475 127.314351 
L 429.04475 127.314351 
L 428.043807 127.314351 
z
" style="fill:#1f77b4;"/>
    </g>
    <g id="patch_162">
     <path clip-path="url(#pa6ac40b4c5)" d="M 429.04475 127.314351 
L 430.045693 127.314351 
L 430.045693 127.314351 
L 429.04475 127.314351 
z
" style="fill:#1f77b4;"/>
    </g>
    <g id="patch_163">
     <path clip-path="url(#pa6ac40b4c5)" d="M 430.045693 127.314351 
L 431.046635 127.314351 
L 431.046635 127.314351 
L 430.045693 127.314351 
z
" style="fill:#1f77b4;"/>
    </g>
    <g id="patch_164">
     <path clip-path="url(#pa6ac40b4c5)" d="M 431.046635 127.314351 
L 432.047578 127.314351 
L 432.047578 127.314351 
L 431.046635 127.314351 
z
" style="fill:#1f77b4;"/>
    </g>
    <g id="patch_165">
     <path clip-path="url(#pa6ac40b4c5)" d="M 432.047578 127.314351 
L 433.048521 127.314351 
L 433.048521 127.314351 
L 432.047578 127.314351 
z
" style="fill:#1f77b4;"/>
    </g>
    <g id="patch_166">
     <path clip-path="url(#pa6ac40b4c5)" d="M 433.048521 127.314351 
L 434.049464 127.314351 
L 434.049464 127.314351 
L 433.048521 127.314351 
z
" style="fill:#1f77b4;"/>
    </g>
    <g id="patch_167">
     <path clip-path="url(#pa6ac40b4c5)" d="M 434.049464 127.314351 
L 435.050407 127.314351 
L 435.050407 127.314351 
L 434.049464 127.314351 
z
" style="fill:#1f77b4;"/>
    </g>
    <g id="patch_168">
     <path clip-path="url(#pa6ac40b4c5)" d="M 435.050407 127.314351 
L 436.051349 127.314351 
L 436.051349 127.314351 
L 435.050407 127.314351 
z
" style="fill:#1f77b4;"/>
    </g>
    <g id="patch_169">
     <path clip-path="url(#pa6ac40b4c5)" d="M 436.051349 127.314351 
L 437.052292 127.314351 
L 437.052292 125.214684 
L 436.051349 125.214684 
z
" style="fill:#1f77b4;"/>
    </g>
    <g id="patch_170">
     <path clip-path="url(#pa6ac40b4c5)" d="M 437.052292 127.314351 
L 438.053235 127.314351 
L 438.053235 127.314351 
L 437.052292 127.314351 
z
" style="fill:#1f77b4;"/>
    </g>
    <g id="patch_171">
     <path clip-path="url(#pa6ac40b4c5)" d="M 438.053235 127.314351 
L 439.054178 127.314351 
L 439.054178 127.314351 
L 438.053235 127.314351 
z
" style="fill:#1f77b4;"/>
    </g>
    <g id="patch_172">
     <path clip-path="url(#pa6ac40b4c5)" d="M 439.054178 127.314351 
L 440.055121 127.314351 
L 440.055121 127.314351 
L 439.054178 127.314351 
z
" style="fill:#1f77b4;"/>
    </g>
    <g id="patch_173">
     <path clip-path="url(#pa6ac40b4c5)" d="M 440.055121 127.314351 
L 441.056063 127.314351 
L 441.056063 127.314351 
L 440.055121 127.314351 
z
" style="fill:#1f77b4;"/>
    </g>
    <g id="patch_174">
     <path clip-path="url(#pa6ac40b4c5)" d="M 441.056063 127.314351 
L 442.057006 127.314351 
L 442.057006 127.314351 
L 441.056063 127.314351 
z
" style="fill:#1f77b4;"/>
    </g>
    <g id="patch_175">
     <path clip-path="url(#pa6ac40b4c5)" d="M 442.057006 127.314351 
L 443.057949 127.314351 
L 443.057949 125.214684 
L 442.057006 125.214684 
z
" style="fill:#1f77b4;"/>
    </g>
    <g id="patch_176">
     <path clip-path="url(#pa6ac40b4c5)" d="M 443.057949 127.314351 
L 444.058892 127.314351 
L 444.058892 127.314351 
L 443.057949 127.314351 
z
" style="fill:#1f77b4;"/>
    </g>
    <g id="patch_177">
     <path clip-path="url(#pa6ac40b4c5)" d="M 444.058892 127.314351 
L 445.059835 127.314351 
L 445.059835 118.915685 
L 444.058892 118.915685 
z
" style="fill:#1f77b4;"/>
    </g>
    <g id="patch_178">
     <path clip-path="url(#pa6ac40b4c5)" d="M 445.059835 127.314351 
L 446.060777 127.314351 
L 446.060777 125.214684 
L 445.059835 125.214684 
z
" style="fill:#1f77b4;"/>
    </g>
    <g id="patch_179">
     <path clip-path="url(#pa6ac40b4c5)" d="M 446.060777 127.314351 
L 447.06172 127.314351 
L 447.06172 121.015351 
L 446.060777 121.015351 
z
" style="fill:#1f77b4;"/>
    </g>
    <g id="patch_180">
     <path clip-path="url(#pa6ac40b4c5)" d="M 447.06172 127.314351 
L 448.062663 127.314351 
L 448.062663 76.922355 
L 447.06172 76.922355 
z
" style="fill:#1f77b4;"/>
    </g>
    <g id="patch_181">
     <path clip-path="url(#pa6ac40b4c5)" d="M 448.062663 127.314351 
L 449.063606 127.314351 
L 449.063606 70.623355 
L 448.062663 70.623355 
z
" style="fill:#1f77b4;"/>
    </g>
    <g id="patch_182">
     <path clip-path="url(#pa6ac40b4c5)" d="M 449.063606 127.314351 
L 450.064549 127.314351 
L 450.064549 104.218019 
L 449.063606 104.218019 
z
" style="fill:#1f77b4;"/>
    </g>
    <g id="patch_183">
     <path d="M 423.7898 127.314351 
L 423.7898 65.584156 
" style="fill:none;stroke:#000000;stroke-linecap:square;stroke-linejoin:miter;stroke-width:0.8;"/>
    </g>
    <g id="patch_184">
     <path d="M 473.7018 127.314351 
L 473.7018 65.584156 
" style="fill:none;stroke:#000000;stroke-linecap:square;stroke-linejoin:miter;stroke-width:0.8;"/>
    </g>
    <g id="patch_185">
     <path d="M 423.7898 127.314351 
L 473.7018 127.314351 
" style="fill:none;stroke:#000000;stroke-linecap:square;stroke-linejoin:miter;stroke-width:0.8;"/>
    </g>
    <g id="patch_186">
     <path d="M 423.7898 65.584156 
L 473.7018 65.584156 
" style="fill:none;stroke:#000000;stroke-linecap:square;stroke-linejoin:miter;stroke-width:0.8;"/>
    </g>
   </g>
   <g id="axes_8">
    <g id="patch_187">
     <path d="M 493.41704 127.314351 
L 543.32904 127.314351 
L 543.32904 65.584156 
L 493.41704 65.584156 
z
" style="fill:#ffffff;"/>
    </g>
    <g id="patch_188">
     <path clip-path="url(#p0b712715f4)" d="M 502.809335 127.314351 
L 503.211015 127.314351 
L 503.211015 117.515907 
L 502.809335 117.515907 
z
" style="fill:#1f77b4;"/>
    </g>
    <g id="patch_189">
     <path clip-path="url(#p0b712715f4)" d="M 503.211015 127.314351 
L 503.612696 127.314351 
L 503.612696 122.415129 
L 503.211015 122.415129 
z
" style="fill:#1f77b4;"/>
    </g>
    <g id="patch_190">
     <path clip-path="url(#p0b712715f4)" d="M 503.612696 127.314351 
L 504.014377 127.314351 
L 504.014377 127.314351 
L 503.612696 127.314351 
z
" style="fill:#1f77b4;"/>
    </g>
    <g id="patch_191">
     <path clip-path="url(#p0b712715f4)" d="M 504.014377 127.314351 
L 504.416057 127.314351 
L 504.416057 122.415129 
L 504.014377 122.415129 
z
" style="fill:#1f77b4;"/>
    </g>
    <g id="patch_192">
     <path clip-path="url(#p0b712715f4)" d="M 504.416057 127.314351 
L 504.817738 127.314351 
L 504.817738 122.415129 
L 504.416057 122.415129 
z
" style="fill:#1f77b4;"/>
    </g>
    <g id="patch_193">
     <path clip-path="url(#p0b712715f4)" d="M 504.817738 127.314351 
L 505.219419 127.314351 
L 505.219419 127.314351 
L 504.817738 127.314351 
z
" style="fill:#1f77b4;"/>
    </g>
    <g id="patch_194">
     <path clip-path="url(#p0b712715f4)" d="M 505.219419 127.314351 
L 505.6211 127.314351 
L 505.6211 117.515907 
L 505.219419 117.515907 
z
" style="fill:#1f77b4;"/>
    </g>
    <g id="patch_195">
     <path clip-path="url(#p0b712715f4)" d="M 505.6211 127.314351 
L 506.02278 127.314351 
L 506.02278 107.717463 
L 505.6211 107.717463 
z
" style="fill:#1f77b4;"/>
    </g>
    <g id="patch_196">
     <path clip-path="url(#p0b712715f4)" d="M 506.02278 127.314351 
L 506.424461 127.314351 
L 506.424461 122.415129 
L 506.02278 122.415129 
z
" style="fill:#1f77b4;"/>
    </g>
    <g id="patch_197">
     <path clip-path="url(#p0b712715f4)" d="M 506.424461 127.314351 
L 506.826142 127.314351 
L 506.826142 117.515907 
L 506.424461 117.515907 
z
" style="fill:#1f77b4;"/>
    </g>
    <g id="patch_198">
     <path clip-path="url(#p0b712715f4)" d="M 506.826142 127.314351 
L 507.227823 127.314351 
L 507.227823 107.717463 
L 506.826142 107.717463 
z
" style="fill:#1f77b4;"/>
    </g>
    <g id="patch_199">
     <path clip-path="url(#p0b712715f4)" d="M 507.227823 127.314351 
L 507.629503 127.314351 
L 507.629503 102.818242 
L 507.227823 102.818242 
z
" style="fill:#1f77b4;"/>
    </g>
    <g id="patch_200">
     <path clip-path="url(#p0b712715f4)" d="M 507.629503 127.314351 
L 508.031184 127.314351 
L 508.031184 88.120576 
L 507.629503 88.120576 
z
" style="fill:#1f77b4;"/>
    </g>
    <g id="patch_201">
     <path clip-path="url(#p0b712715f4)" d="M 508.031184 127.314351 
L 508.432865 127.314351 
L 508.432865 88.120576 
L 508.031184 88.120576 
z
" style="fill:#1f77b4;"/>
    </g>
    <g id="patch_202">
     <path clip-path="url(#p0b712715f4)" d="M 508.432865 127.314351 
L 508.834546 127.314351 
L 508.834546 97.91902 
L 508.432865 97.91902 
z
" style="fill:#1f77b4;"/>
    </g>
    <g id="patch_203">
     <path clip-path="url(#p0b712715f4)" d="M 508.834546 127.314351 
L 509.236226 127.314351 
L 509.236226 78.322133 
L 508.834546 78.322133 
z
" style="fill:#1f77b4;"/>
    </g>
    <g id="patch_204">
     <path clip-path="url(#p0b712715f4)" d="M 509.236226 127.314351 
L 509.637907 127.314351 
L 509.637907 93.019798 
L 509.236226 93.019798 
z
" style="fill:#1f77b4;"/>
    </g>
    <g id="patch_205">
     <path clip-path="url(#p0b712715f4)" d="M 509.637907 127.314351 
L 510.039588 127.314351 
L 510.039588 93.019798 
L 509.637907 93.019798 
z
" style="fill:#1f77b4;"/>
    </g>
    <g id="patch_206">
     <path clip-path="url(#p0b712715f4)" d="M 510.039588 127.314351 
L 510.441268 127.314351 
L 510.441268 68.523689 
L 510.039588 68.523689 
z
" style="fill:#1f77b4;"/>
    </g>
    <g id="patch_207">
     <path clip-path="url(#p0b712715f4)" d="M 510.441268 127.314351 
L 510.842949 127.314351 
L 510.842949 102.818242 
L 510.441268 102.818242 
z
" style="fill:#1f77b4;"/>
    </g>
    <g id="patch_208">
     <path clip-path="url(#p0b712715f4)" d="M 510.842949 127.314351 
L 511.24463 127.314351 
L 511.24463 102.818242 
L 510.842949 102.818242 
z
" style="fill:#1f77b4;"/>
    </g>
    <g id="patch_209">
     <path clip-path="url(#p0b712715f4)" d="M 511.24463 127.314351 
L 511.646311 127.314351 
L 511.646311 97.91902 
L 511.24463 97.91902 
z
" style="fill:#1f77b4;"/>
    </g>
    <g id="patch_210">
     <path clip-path="url(#p0b712715f4)" d="M 511.646311 127.314351 
L 512.047991 127.314351 
L 512.047991 127.314351 
L 511.646311 127.314351 
z
" style="fill:#1f77b4;"/>
    </g>
    <g id="patch_211">
     <path clip-path="url(#p0b712715f4)" d="M 512.047991 127.314351 
L 512.449672 127.314351 
L 512.449672 127.314351 
L 512.047991 127.314351 
z
" style="fill:#1f77b4;"/>
    </g>
    <g id="patch_212">
     <path clip-path="url(#p0b712715f4)" d="M 512.449672 127.314351 
L 512.851353 127.314351 
L 512.851353 112.616685 
L 512.449672 112.616685 
z
" style="fill:#1f77b4;"/>
    </g>
    <g id="patch_213">
     <path d="M 493.41704 127.314351 
L 493.41704 65.584156 
" style="fill:none;stroke:#000000;stroke-linecap:square;stroke-linejoin:miter;stroke-width:0.8;"/>
    </g>
    <g id="patch_214">
     <path d="M 543.32904 127.314351 
L 543.32904 65.584156 
" style="fill:none;stroke:#000000;stroke-linecap:square;stroke-linejoin:miter;stroke-width:0.8;"/>
    </g>
    <g id="patch_215">
     <path d="M 493.41704 127.314351 
L 543.32904 127.314351 
" style="fill:none;stroke:#000000;stroke-linecap:square;stroke-linejoin:miter;stroke-width:0.8;"/>
    </g>
    <g id="patch_216">
     <path d="M 493.41704 65.584156 
L 543.32904 65.584156 
" style="fill:none;stroke:#000000;stroke-linecap:square;stroke-linejoin:miter;stroke-width:0.8;"/>
    </g>
   </g>
  </g>
 </g>
 <defs>
  <clipPath id="pa44a425871">
   <rect height="246.920779" width="499.12" x="60.68" y="16.2"/>
  </clipPath>
  <clipPath id="p3abbb9a98e">
   <rect height="61.730195" width="49.912" x="75.6536" y="65.584156"/>
  </clipPath>
  <clipPath id="p6e48522b6b">
   <rect height="61.730195" width="49.912" x="145.28084" y="65.584156"/>
  </clipPath>
  <clipPath id="p118c94008b">
   <rect height="61.730195" width="49.912" x="214.90808" y="65.584156"/>
  </clipPath>
  <clipPath id="pdc00962910">
   <rect height="61.730195" width="49.912" x="284.53532" y="65.584156"/>
  </clipPath>
  <clipPath id="pf871b75ee6">
   <rect height="61.730195" width="49.912" x="354.16256" y="65.584156"/>
  </clipPath>
  <clipPath id="pa6ac40b4c5">
   <rect height="61.730195" width="49.912" x="423.7898" y="65.584156"/>
  </clipPath>
  <clipPath id="p0b712715f4">
   <rect height="61.730195" width="49.912" x="493.41704" y="65.584156"/>
  </clipPath>
 </defs>
</svg>
