<?xml version="1.0" encoding="utf-8" standalone="no"?>
<!DOCTYPE svg PUBLIC "-//W3C//DTD SVG 1.1//EN"
  "http://www.w3.org/Graphics/SVG/1.1/DTD/svg11.dtd">
<svg height="345.6pt" version="1.1" viewBox="0 0 460.8 345.6" width="460.8pt" xmlns="http://www.w3.org/2000/svg" xmlns:xlink="http://www.w3.org/1999/xlink">
 <metadata>
  <rdf:RDF xmlns:cc="http://creativecommons.org/ns#" xmlns:dc="http://purl.org/dc/elements/1.1/" xmlns:rdf="http://www.w3.org/1999/02/22-rdf-syntax-ns#">
   <cc:Work>
    <dc:type rdf:resource="http://purl.org/dc/dcmitype/StillImage"/>
    <dc:date>2021-05-07T12:07:25.649521</dc:date>
    <dc:format>image/svg+xml</dc:format>
    <dc:creator>
     <cc:Agent>
      <dc:title>Matplotlib v3.4.1, https://matplotlib.org/</dc:title>
     </cc:Agent>
    </dc:creator>
   </cc:Work>
  </rdf:RDF>
 </metadata>
 <defs>
  <style type="text/css">*{stroke-linecap:butt;stroke-linejoin:round;}</style>
 </defs>
 <g id="figure_1">
  <g id="patch_1">
   <path d="M 0 345.6 
L 460.8 345.6 
L 460.8 0 
L 0 0 
z
" style="fill:#ffffff;"/>
  </g>
  <g id="axes_1">
   <g id="patch_2">
    <path d="M 44.57 165.85 
L 450 165.85 
L 450 10.8 
L 44.57 10.8 
z
" style="fill:#ffffff;"/>
   </g>
   <g id="matplotlib.axis_1">
    <g id="xtick_1">
     <g id="line2d_1">
      <path clip-path="url(#pd710d97146)" d="M 78.355833 165.85 
L 78.355833 10.8 
" style="fill:none;stroke:#b0b0b0;stroke-linecap:square;stroke-width:0.8;"/>
     </g>
     <g id="line2d_2">
      <defs>
       <path d="M 0 0 
L 0 3.5 
" id="m40425b8392" style="stroke:#000000;stroke-width:0.8;"/>
      </defs>
      <g>
       <use style="stroke:#000000;stroke-width:0.8;" x="78.355833" xlink:href="#m40425b8392" y="165.85"/>
      </g>
     </g>
     <g id="text_1">
      <!-- FedAvg LSTM -->
      <g transform="translate(81.115208 238.907812)rotate(-90)scale(0.1 -0.1)">
       <defs>
        <path d="M 628 4666 
L 3309 4666 
L 3309 4134 
L 1259 4134 
L 1259 2759 
L 3109 2759 
L 3109 2228 
L 1259 2228 
L 1259 0 
L 628 0 
L 628 4666 
z
" id="DejaVuSans-46" transform="scale(0.015625)"/>
        <path d="M 3597 1894 
L 3597 1613 
L 953 1613 
Q 991 1019 1311 708 
Q 1631 397 2203 397 
Q 2534 397 2845 478 
Q 3156 559 3463 722 
L 3463 178 
Q 3153 47 2828 -22 
Q 2503 -91 2169 -91 
Q 1331 -91 842 396 
Q 353 884 353 1716 
Q 353 2575 817 3079 
Q 1281 3584 2069 3584 
Q 2775 3584 3186 3129 
Q 3597 2675 3597 1894 
z
M 3022 2063 
Q 3016 2534 2758 2815 
Q 2500 3097 2075 3097 
Q 1594 3097 1305 2825 
Q 1016 2553 972 2059 
L 3022 2063 
z
" id="DejaVuSans-65" transform="scale(0.015625)"/>
        <path d="M 2906 2969 
L 2906 4863 
L 3481 4863 
L 3481 0 
L 2906 0 
L 2906 525 
Q 2725 213 2448 61 
Q 2172 -91 1784 -91 
Q 1150 -91 751 415 
Q 353 922 353 1747 
Q 353 2572 751 3078 
Q 1150 3584 1784 3584 
Q 2172 3584 2448 3432 
Q 2725 3281 2906 2969 
z
M 947 1747 
Q 947 1113 1208 752 
Q 1469 391 1925 391 
Q 2381 391 2643 752 
Q 2906 1113 2906 1747 
Q 2906 2381 2643 2742 
Q 2381 3103 1925 3103 
Q 1469 3103 1208 2742 
Q 947 2381 947 1747 
z
" id="DejaVuSans-64" transform="scale(0.015625)"/>
        <path d="M 2188 4044 
L 1331 1722 
L 3047 1722 
L 2188 4044 
z
M 1831 4666 
L 2547 4666 
L 4325 0 
L 3669 0 
L 3244 1197 
L 1141 1197 
L 716 0 
L 50 0 
L 1831 4666 
z
" id="DejaVuSans-41" transform="scale(0.015625)"/>
        <path d="M 191 3500 
L 800 3500 
L 1894 563 
L 2988 3500 
L 3597 3500 
L 2284 0 
L 1503 0 
L 191 3500 
z
" id="DejaVuSans-76" transform="scale(0.015625)"/>
        <path d="M 2906 1791 
Q 2906 2416 2648 2759 
Q 2391 3103 1925 3103 
Q 1463 3103 1205 2759 
Q 947 2416 947 1791 
Q 947 1169 1205 825 
Q 1463 481 1925 481 
Q 2391 481 2648 825 
Q 2906 1169 2906 1791 
z
M 3481 434 
Q 3481 -459 3084 -895 
Q 2688 -1331 1869 -1331 
Q 1566 -1331 1297 -1286 
Q 1028 -1241 775 -1147 
L 775 -588 
Q 1028 -725 1275 -790 
Q 1522 -856 1778 -856 
Q 2344 -856 2625 -561 
Q 2906 -266 2906 331 
L 2906 616 
Q 2728 306 2450 153 
Q 2172 0 1784 0 
Q 1141 0 747 490 
Q 353 981 353 1791 
Q 353 2603 747 3093 
Q 1141 3584 1784 3584 
Q 2172 3584 2450 3431 
Q 2728 3278 2906 2969 
L 2906 3500 
L 3481 3500 
L 3481 434 
z
" id="DejaVuSans-67" transform="scale(0.015625)"/>
        <path id="DejaVuSans-20" transform="scale(0.015625)"/>
        <path d="M 628 4666 
L 1259 4666 
L 1259 531 
L 3531 531 
L 3531 0 
L 628 0 
L 628 4666 
z
" id="DejaVuSans-4c" transform="scale(0.015625)"/>
        <path d="M 3425 4513 
L 3425 3897 
Q 3066 4069 2747 4153 
Q 2428 4238 2131 4238 
Q 1616 4238 1336 4038 
Q 1056 3838 1056 3469 
Q 1056 3159 1242 3001 
Q 1428 2844 1947 2747 
L 2328 2669 
Q 3034 2534 3370 2195 
Q 3706 1856 3706 1288 
Q 3706 609 3251 259 
Q 2797 -91 1919 -91 
Q 1588 -91 1214 -16 
Q 841 59 441 206 
L 441 856 
Q 825 641 1194 531 
Q 1563 422 1919 422 
Q 2459 422 2753 634 
Q 3047 847 3047 1241 
Q 3047 1584 2836 1778 
Q 2625 1972 2144 2069 
L 1759 2144 
Q 1053 2284 737 2584 
Q 422 2884 422 3419 
Q 422 4038 858 4394 
Q 1294 4750 2059 4750 
Q 2388 4750 2728 4690 
Q 3069 4631 3425 4513 
z
" id="DejaVuSans-53" transform="scale(0.015625)"/>
        <path d="M -19 4666 
L 3928 4666 
L 3928 4134 
L 2272 4134 
L 2272 0 
L 1638 0 
L 1638 4134 
L -19 4134 
L -19 4666 
z
" id="DejaVuSans-54" transform="scale(0.015625)"/>
        <path d="M 628 4666 
L 1569 4666 
L 2759 1491 
L 3956 4666 
L 4897 4666 
L 4897 0 
L 4281 0 
L 4281 4097 
L 3078 897 
L 2444 897 
L 1241 4097 
L 1241 0 
L 628 0 
L 628 4666 
z
" id="DejaVuSans-4d" transform="scale(0.015625)"/>
       </defs>
       <use xlink:href="#DejaVuSans-46"/>
       <use x="52.019531" xlink:href="#DejaVuSans-65"/>
       <use x="113.542969" xlink:href="#DejaVuSans-64"/>
       <use x="177.019531" xlink:href="#DejaVuSans-41"/>
       <use x="239.552734" xlink:href="#DejaVuSans-76"/>
       <use x="298.732422" xlink:href="#DejaVuSans-67"/>
       <use x="362.208984" xlink:href="#DejaVuSans-20"/>
       <use x="393.996094" xlink:href="#DejaVuSans-4c"/>
       <use x="449.708984" xlink:href="#DejaVuSans-53"/>
       <use x="513.185547" xlink:href="#DejaVuSans-54"/>
       <use x="574.269531" xlink:href="#DejaVuSans-4d"/>
      </g>
     </g>
    </g>
    <g id="xtick_2">
     <g id="line2d_3">
      <path clip-path="url(#pd710d97146)" d="M 134.665556 165.85 
L 134.665556 10.8 
" style="fill:none;stroke:#b0b0b0;stroke-linecap:square;stroke-width:0.8;"/>
     </g>
     <g id="line2d_4">
      <g>
       <use style="stroke:#000000;stroke-width:0.8;" x="134.665556" xlink:href="#m40425b8392" y="165.85"/>
      </g>
     </g>
     <g id="text_2">
      <!-- FedMed LSTM -->
      <g transform="translate(137.424931 241.517187)rotate(-90)scale(0.1 -0.1)">
       <use xlink:href="#DejaVuSans-46"/>
       <use x="52.019531" xlink:href="#DejaVuSans-65"/>
       <use x="113.542969" xlink:href="#DejaVuSans-64"/>
       <use x="177.019531" xlink:href="#DejaVuSans-4d"/>
       <use x="263.298828" xlink:href="#DejaVuSans-65"/>
       <use x="324.822266" xlink:href="#DejaVuSans-64"/>
       <use x="388.298828" xlink:href="#DejaVuSans-20"/>
       <use x="420.085938" xlink:href="#DejaVuSans-4c"/>
       <use x="475.798828" xlink:href="#DejaVuSans-53"/>
       <use x="539.275391" xlink:href="#DejaVuSans-54"/>
       <use x="600.359375" xlink:href="#DejaVuSans-4d"/>
      </g>
     </g>
    </g>
    <g id="xtick_3">
     <g id="line2d_5">
      <path clip-path="url(#pd710d97146)" d="M 190.975278 165.85 
L 190.975278 10.8 
" style="fill:none;stroke:#b0b0b0;stroke-linecap:square;stroke-width:0.8;"/>
     </g>
     <g id="line2d_6">
      <g>
       <use style="stroke:#000000;stroke-width:0.8;" x="190.975278" xlink:href="#m40425b8392" y="165.85"/>
      </g>
     </g>
     <g id="text_3">
      <!-- FedProx LSTM -->
      <g transform="translate(193.734653 241.853125)rotate(-90)scale(0.1 -0.1)">
       <defs>
        <path d="M 1259 4147 
L 1259 2394 
L 2053 2394 
Q 2494 2394 2734 2622 
Q 2975 2850 2975 3272 
Q 2975 3691 2734 3919 
Q 2494 4147 2053 4147 
L 1259 4147 
z
M 628 4666 
L 2053 4666 
Q 2838 4666 3239 4311 
Q 3641 3956 3641 3272 
Q 3641 2581 3239 2228 
Q 2838 1875 2053 1875 
L 1259 1875 
L 1259 0 
L 628 0 
L 628 4666 
z
" id="DejaVuSans-50" transform="scale(0.015625)"/>
        <path d="M 2631 2963 
Q 2534 3019 2420 3045 
Q 2306 3072 2169 3072 
Q 1681 3072 1420 2755 
Q 1159 2438 1159 1844 
L 1159 0 
L 581 0 
L 581 3500 
L 1159 3500 
L 1159 2956 
Q 1341 3275 1631 3429 
Q 1922 3584 2338 3584 
Q 2397 3584 2469 3576 
Q 2541 3569 2628 3553 
L 2631 2963 
z
" id="DejaVuSans-72" transform="scale(0.015625)"/>
        <path d="M 1959 3097 
Q 1497 3097 1228 2736 
Q 959 2375 959 1747 
Q 959 1119 1226 758 
Q 1494 397 1959 397 
Q 2419 397 2687 759 
Q 2956 1122 2956 1747 
Q 2956 2369 2687 2733 
Q 2419 3097 1959 3097 
z
M 1959 3584 
Q 2709 3584 3137 3096 
Q 3566 2609 3566 1747 
Q 3566 888 3137 398 
Q 2709 -91 1959 -91 
Q 1206 -91 779 398 
Q 353 888 353 1747 
Q 353 2609 779 3096 
Q 1206 3584 1959 3584 
z
" id="DejaVuSans-6f" transform="scale(0.015625)"/>
        <path d="M 3513 3500 
L 2247 1797 
L 3578 0 
L 2900 0 
L 1881 1375 
L 863 0 
L 184 0 
L 1544 1831 
L 300 3500 
L 978 3500 
L 1906 2253 
L 2834 3500 
L 3513 3500 
z
" id="DejaVuSans-78" transform="scale(0.015625)"/>
       </defs>
       <use xlink:href="#DejaVuSans-46"/>
       <use x="52.019531" xlink:href="#DejaVuSans-65"/>
       <use x="113.542969" xlink:href="#DejaVuSans-64"/>
       <use x="177.019531" xlink:href="#DejaVuSans-50"/>
       <use x="235.572266" xlink:href="#DejaVuSans-72"/>
       <use x="274.435547" xlink:href="#DejaVuSans-6f"/>
       <use x="332.492188" xlink:href="#DejaVuSans-78"/>
       <use x="391.671875" xlink:href="#DejaVuSans-20"/>
       <use x="423.458984" xlink:href="#DejaVuSans-4c"/>
       <use x="479.171875" xlink:href="#DejaVuSans-53"/>
       <use x="542.648438" xlink:href="#DejaVuSans-54"/>
       <use x="603.732422" xlink:href="#DejaVuSans-4d"/>
      </g>
     </g>
    </g>
    <g id="xtick_4">
     <g id="line2d_7">
      <path clip-path="url(#pd710d97146)" d="M 247.285 165.85 
L 247.285 10.8 
" style="fill:none;stroke:#b0b0b0;stroke-linecap:square;stroke-width:0.8;"/>
     </g>
     <g id="line2d_8">
      <g>
       <use style="stroke:#000000;stroke-width:0.8;" x="247.285" xlink:href="#m40425b8392" y="165.85"/>
      </g>
     </g>
     <g id="text_4">
      <!-- qFedAvg_001_uniform LSTM -->
      <g transform="translate(249.905313 313.1125)rotate(-90)scale(0.1 -0.1)">
       <defs>
        <path d="M 947 1747 
Q 947 1113 1208 752 
Q 1469 391 1925 391 
Q 2381 391 2643 752 
Q 2906 1113 2906 1747 
Q 2906 2381 2643 2742 
Q 2381 3103 1925 3103 
Q 1469 3103 1208 2742 
Q 947 2381 947 1747 
z
M 2906 525 
Q 2725 213 2448 61 
Q 2172 -91 1784 -91 
Q 1150 -91 751 415 
Q 353 922 353 1747 
Q 353 2572 751 3078 
Q 1150 3584 1784 3584 
Q 2172 3584 2448 3432 
Q 2725 3281 2906 2969 
L 2906 3500 
L 3481 3500 
L 3481 -1331 
L 2906 -1331 
L 2906 525 
z
" id="DejaVuSans-71" transform="scale(0.015625)"/>
        <path d="M 3263 -1063 
L 3263 -1509 
L -63 -1509 
L -63 -1063 
L 3263 -1063 
z
" id="DejaVuSans-5f" transform="scale(0.015625)"/>
        <path d="M 2034 4250 
Q 1547 4250 1301 3770 
Q 1056 3291 1056 2328 
Q 1056 1369 1301 889 
Q 1547 409 2034 409 
Q 2525 409 2770 889 
Q 3016 1369 3016 2328 
Q 3016 3291 2770 3770 
Q 2525 4250 2034 4250 
z
M 2034 4750 
Q 2819 4750 3233 4129 
Q 3647 3509 3647 2328 
Q 3647 1150 3233 529 
Q 2819 -91 2034 -91 
Q 1250 -91 836 529 
Q 422 1150 422 2328 
Q 422 3509 836 4129 
Q 1250 4750 2034 4750 
z
" id="DejaVuSans-30" transform="scale(0.015625)"/>
        <path d="M 794 531 
L 1825 531 
L 1825 4091 
L 703 3866 
L 703 4441 
L 1819 4666 
L 2450 4666 
L 2450 531 
L 3481 531 
L 3481 0 
L 794 0 
L 794 531 
z
" id="DejaVuSans-31" transform="scale(0.015625)"/>
        <path d="M 544 1381 
L 544 3500 
L 1119 3500 
L 1119 1403 
Q 1119 906 1312 657 
Q 1506 409 1894 409 
Q 2359 409 2629 706 
Q 2900 1003 2900 1516 
L 2900 3500 
L 3475 3500 
L 3475 0 
L 2900 0 
L 2900 538 
Q 2691 219 2414 64 
Q 2138 -91 1772 -91 
Q 1169 -91 856 284 
Q 544 659 544 1381 
z
M 1991 3584 
L 1991 3584 
z
" id="DejaVuSans-75" transform="scale(0.015625)"/>
        <path d="M 3513 2113 
L 3513 0 
L 2938 0 
L 2938 2094 
Q 2938 2591 2744 2837 
Q 2550 3084 2163 3084 
Q 1697 3084 1428 2787 
Q 1159 2491 1159 1978 
L 1159 0 
L 581 0 
L 581 3500 
L 1159 3500 
L 1159 2956 
Q 1366 3272 1645 3428 
Q 1925 3584 2291 3584 
Q 2894 3584 3203 3211 
Q 3513 2838 3513 2113 
z
" id="DejaVuSans-6e" transform="scale(0.015625)"/>
        <path d="M 603 3500 
L 1178 3500 
L 1178 0 
L 603 0 
L 603 3500 
z
M 603 4863 
L 1178 4863 
L 1178 4134 
L 603 4134 
L 603 4863 
z
" id="DejaVuSans-69" transform="scale(0.015625)"/>
        <path d="M 2375 4863 
L 2375 4384 
L 1825 4384 
Q 1516 4384 1395 4259 
Q 1275 4134 1275 3809 
L 1275 3500 
L 2222 3500 
L 2222 3053 
L 1275 3053 
L 1275 0 
L 697 0 
L 697 3053 
L 147 3053 
L 147 3500 
L 697 3500 
L 697 3744 
Q 697 4328 969 4595 
Q 1241 4863 1831 4863 
L 2375 4863 
z
" id="DejaVuSans-66" transform="scale(0.015625)"/>
        <path d="M 3328 2828 
Q 3544 3216 3844 3400 
Q 4144 3584 4550 3584 
Q 5097 3584 5394 3201 
Q 5691 2819 5691 2113 
L 5691 0 
L 5113 0 
L 5113 2094 
Q 5113 2597 4934 2840 
Q 4756 3084 4391 3084 
Q 3944 3084 3684 2787 
Q 3425 2491 3425 1978 
L 3425 0 
L 2847 0 
L 2847 2094 
Q 2847 2600 2669 2842 
Q 2491 3084 2119 3084 
Q 1678 3084 1418 2786 
Q 1159 2488 1159 1978 
L 1159 0 
L 581 0 
L 581 3500 
L 1159 3500 
L 1159 2956 
Q 1356 3278 1631 3431 
Q 1906 3584 2284 3584 
Q 2666 3584 2933 3390 
Q 3200 3197 3328 2828 
z
" id="DejaVuSans-6d" transform="scale(0.015625)"/>
       </defs>
       <use xlink:href="#DejaVuSans-71"/>
       <use x="63.476562" xlink:href="#DejaVuSans-46"/>
       <use x="115.496094" xlink:href="#DejaVuSans-65"/>
       <use x="177.019531" xlink:href="#DejaVuSans-64"/>
       <use x="240.496094" xlink:href="#DejaVuSans-41"/>
       <use x="303.029297" xlink:href="#DejaVuSans-76"/>
       <use x="362.208984" xlink:href="#DejaVuSans-67"/>
       <use x="425.685547" xlink:href="#DejaVuSans-5f"/>
       <use x="475.685547" xlink:href="#DejaVuSans-30"/>
       <use x="539.308594" xlink:href="#DejaVuSans-30"/>
       <use x="602.931641" xlink:href="#DejaVuSans-31"/>
       <use x="666.554688" xlink:href="#DejaVuSans-5f"/>
       <use x="716.554688" xlink:href="#DejaVuSans-75"/>
       <use x="779.933594" xlink:href="#DejaVuSans-6e"/>
       <use x="843.3125" xlink:href="#DejaVuSans-69"/>
       <use x="871.095703" xlink:href="#DejaVuSans-66"/>
       <use x="906.300781" xlink:href="#DejaVuSans-6f"/>
       <use x="967.482422" xlink:href="#DejaVuSans-72"/>
       <use x="1006.845703" xlink:href="#DejaVuSans-6d"/>
       <use x="1104.257812" xlink:href="#DejaVuSans-20"/>
       <use x="1136.044922" xlink:href="#DejaVuSans-4c"/>
       <use x="1191.757812" xlink:href="#DejaVuSans-53"/>
       <use x="1255.234375" xlink:href="#DejaVuSans-54"/>
       <use x="1316.318359" xlink:href="#DejaVuSans-4d"/>
      </g>
     </g>
    </g>
    <g id="xtick_5">
     <g id="line2d_9">
      <path clip-path="url(#pd710d97146)" d="M 303.594722 165.85 
L 303.594722 10.8 
" style="fill:none;stroke:#b0b0b0;stroke-linecap:square;stroke-width:0.8;"/>
     </g>
     <g id="line2d_10">
      <g>
       <use style="stroke:#000000;stroke-width:0.8;" x="303.594722" xlink:href="#m40425b8392" y="165.85"/>
      </g>
     </g>
     <g id="text_5">
      <!-- qFedAvg_1_weighted LSTM -->
      <g transform="translate(306.215035 307.835938)rotate(-90)scale(0.1 -0.1)">
       <defs>
        <path d="M 269 3500 
L 844 3500 
L 1563 769 
L 2278 3500 
L 2956 3500 
L 3675 769 
L 4391 3500 
L 4966 3500 
L 4050 0 
L 3372 0 
L 2619 2869 
L 1863 0 
L 1184 0 
L 269 3500 
z
" id="DejaVuSans-77" transform="scale(0.015625)"/>
        <path d="M 3513 2113 
L 3513 0 
L 2938 0 
L 2938 2094 
Q 2938 2591 2744 2837 
Q 2550 3084 2163 3084 
Q 1697 3084 1428 2787 
Q 1159 2491 1159 1978 
L 1159 0 
L 581 0 
L 581 4863 
L 1159 4863 
L 1159 2956 
Q 1366 3272 1645 3428 
Q 1925 3584 2291 3584 
Q 2894 3584 3203 3211 
Q 3513 2838 3513 2113 
z
" id="DejaVuSans-68" transform="scale(0.015625)"/>
        <path d="M 1172 4494 
L 1172 3500 
L 2356 3500 
L 2356 3053 
L 1172 3053 
L 1172 1153 
Q 1172 725 1289 603 
Q 1406 481 1766 481 
L 2356 481 
L 2356 0 
L 1766 0 
Q 1100 0 847 248 
Q 594 497 594 1153 
L 594 3053 
L 172 3053 
L 172 3500 
L 594 3500 
L 594 4494 
L 1172 4494 
z
" id="DejaVuSans-74" transform="scale(0.015625)"/>
       </defs>
       <use xlink:href="#DejaVuSans-71"/>
       <use x="63.476562" xlink:href="#DejaVuSans-46"/>
       <use x="115.496094" xlink:href="#DejaVuSans-65"/>
       <use x="177.019531" xlink:href="#DejaVuSans-64"/>
       <use x="240.496094" xlink:href="#DejaVuSans-41"/>
       <use x="303.029297" xlink:href="#DejaVuSans-76"/>
       <use x="362.208984" xlink:href="#DejaVuSans-67"/>
       <use x="425.685547" xlink:href="#DejaVuSans-5f"/>
       <use x="475.685547" xlink:href="#DejaVuSans-31"/>
       <use x="539.308594" xlink:href="#DejaVuSans-5f"/>
       <use x="589.308594" xlink:href="#DejaVuSans-77"/>
       <use x="671.095703" xlink:href="#DejaVuSans-65"/>
       <use x="732.619141" xlink:href="#DejaVuSans-69"/>
       <use x="760.402344" xlink:href="#DejaVuSans-67"/>
       <use x="823.878906" xlink:href="#DejaVuSans-68"/>
       <use x="887.257812" xlink:href="#DejaVuSans-74"/>
       <use x="926.466797" xlink:href="#DejaVuSans-65"/>
       <use x="987.990234" xlink:href="#DejaVuSans-64"/>
       <use x="1051.466797" xlink:href="#DejaVuSans-20"/>
       <use x="1083.253906" xlink:href="#DejaVuSans-4c"/>
       <use x="1138.966797" xlink:href="#DejaVuSans-53"/>
       <use x="1202.443359" xlink:href="#DejaVuSans-54"/>
       <use x="1263.527344" xlink:href="#DejaVuSans-4d"/>
      </g>
     </g>
    </g>
    <g id="xtick_6">
     <g id="line2d_11">
      <path clip-path="url(#pd710d97146)" d="M 359.904444 165.85 
L 359.904444 10.8 
" style="fill:none;stroke:#b0b0b0;stroke-linecap:square;stroke-width:0.8;"/>
     </g>
     <g id="line2d_12">
      <g>
       <use style="stroke:#000000;stroke-width:0.8;" x="359.904444" xlink:href="#m40425b8392" y="165.85"/>
      </g>
     </g>
     <g id="text_6">
      <!-- qFedAvg_001_weighted LSTM -->
      <g transform="translate(362.524757 320.560937)rotate(-90)scale(0.1 -0.1)">
       <use xlink:href="#DejaVuSans-71"/>
       <use x="63.476562" xlink:href="#DejaVuSans-46"/>
       <use x="115.496094" xlink:href="#DejaVuSans-65"/>
       <use x="177.019531" xlink:href="#DejaVuSans-64"/>
       <use x="240.496094" xlink:href="#DejaVuSans-41"/>
       <use x="303.029297" xlink:href="#DejaVuSans-76"/>
       <use x="362.208984" xlink:href="#DejaVuSans-67"/>
       <use x="425.685547" xlink:href="#DejaVuSans-5f"/>
       <use x="475.685547" xlink:href="#DejaVuSans-30"/>
       <use x="539.308594" xlink:href="#DejaVuSans-30"/>
       <use x="602.931641" xlink:href="#DejaVuSans-31"/>
       <use x="666.554688" xlink:href="#DejaVuSans-5f"/>
       <use x="716.554688" xlink:href="#DejaVuSans-77"/>
       <use x="798.341797" xlink:href="#DejaVuSans-65"/>
       <use x="859.865234" xlink:href="#DejaVuSans-69"/>
       <use x="887.648438" xlink:href="#DejaVuSans-67"/>
       <use x="951.125" xlink:href="#DejaVuSans-68"/>
       <use x="1014.503906" xlink:href="#DejaVuSans-74"/>
       <use x="1053.712891" xlink:href="#DejaVuSans-65"/>
       <use x="1115.236328" xlink:href="#DejaVuSans-64"/>
       <use x="1178.712891" xlink:href="#DejaVuSans-20"/>
       <use x="1210.5" xlink:href="#DejaVuSans-4c"/>
       <use x="1266.212891" xlink:href="#DejaVuSans-53"/>
       <use x="1329.689453" xlink:href="#DejaVuSans-54"/>
       <use x="1390.773438" xlink:href="#DejaVuSans-4d"/>
      </g>
     </g>
    </g>
    <g id="xtick_7">
     <g id="line2d_13">
      <path clip-path="url(#pd710d97146)" d="M 416.214167 165.85 
L 416.214167 10.8 
" style="fill:none;stroke:#b0b0b0;stroke-linecap:square;stroke-width:0.8;"/>
     </g>
     <g id="line2d_14">
      <g>
       <use style="stroke:#000000;stroke-width:0.8;" x="416.214167" xlink:href="#m40425b8392" y="165.85"/>
      </g>
     </g>
     <g id="text_7">
      <!-- qFedAvg_1_uniform LSTM -->
      <g transform="translate(418.834479 300.3875)rotate(-90)scale(0.1 -0.1)">
       <use xlink:href="#DejaVuSans-71"/>
       <use x="63.476562" xlink:href="#DejaVuSans-46"/>
       <use x="115.496094" xlink:href="#DejaVuSans-65"/>
       <use x="177.019531" xlink:href="#DejaVuSans-64"/>
       <use x="240.496094" xlink:href="#DejaVuSans-41"/>
       <use x="303.029297" xlink:href="#DejaVuSans-76"/>
       <use x="362.208984" xlink:href="#DejaVuSans-67"/>
       <use x="425.685547" xlink:href="#DejaVuSans-5f"/>
       <use x="475.685547" xlink:href="#DejaVuSans-31"/>
       <use x="539.308594" xlink:href="#DejaVuSans-5f"/>
       <use x="589.308594" xlink:href="#DejaVuSans-75"/>
       <use x="652.6875" xlink:href="#DejaVuSans-6e"/>
       <use x="716.066406" xlink:href="#DejaVuSans-69"/>
       <use x="743.849609" xlink:href="#DejaVuSans-66"/>
       <use x="779.054688" xlink:href="#DejaVuSans-6f"/>
       <use x="840.236328" xlink:href="#DejaVuSans-72"/>
       <use x="879.599609" xlink:href="#DejaVuSans-6d"/>
       <use x="977.011719" xlink:href="#DejaVuSans-20"/>
       <use x="1008.798828" xlink:href="#DejaVuSans-4c"/>
       <use x="1064.511719" xlink:href="#DejaVuSans-53"/>
       <use x="1127.988281" xlink:href="#DejaVuSans-54"/>
       <use x="1189.072266" xlink:href="#DejaVuSans-4d"/>
      </g>
     </g>
    </g>
    <g id="text_8">
     <!-- Algorithms -->
     <g transform="translate(220.193594 332.159375)scale(0.1 -0.1)">
      <defs>
       <path d="M 603 4863 
L 1178 4863 
L 1178 0 
L 603 0 
L 603 4863 
z
" id="DejaVuSans-6c" transform="scale(0.015625)"/>
       <path d="M 2834 3397 
L 2834 2853 
Q 2591 2978 2328 3040 
Q 2066 3103 1784 3103 
Q 1356 3103 1142 2972 
Q 928 2841 928 2578 
Q 928 2378 1081 2264 
Q 1234 2150 1697 2047 
L 1894 2003 
Q 2506 1872 2764 1633 
Q 3022 1394 3022 966 
Q 3022 478 2636 193 
Q 2250 -91 1575 -91 
Q 1294 -91 989 -36 
Q 684 19 347 128 
L 347 722 
Q 666 556 975 473 
Q 1284 391 1588 391 
Q 1994 391 2212 530 
Q 2431 669 2431 922 
Q 2431 1156 2273 1281 
Q 2116 1406 1581 1522 
L 1381 1569 
Q 847 1681 609 1914 
Q 372 2147 372 2553 
Q 372 3047 722 3315 
Q 1072 3584 1716 3584 
Q 2034 3584 2315 3537 
Q 2597 3491 2834 3397 
z
" id="DejaVuSans-73" transform="scale(0.015625)"/>
      </defs>
      <use xlink:href="#DejaVuSans-41"/>
      <use x="68.408203" xlink:href="#DejaVuSans-6c"/>
      <use x="96.191406" xlink:href="#DejaVuSans-67"/>
      <use x="159.667969" xlink:href="#DejaVuSans-6f"/>
      <use x="220.849609" xlink:href="#DejaVuSans-72"/>
      <use x="261.962891" xlink:href="#DejaVuSans-69"/>
      <use x="289.746094" xlink:href="#DejaVuSans-74"/>
      <use x="328.955078" xlink:href="#DejaVuSans-68"/>
      <use x="392.333984" xlink:href="#DejaVuSans-6d"/>
      <use x="489.746094" xlink:href="#DejaVuSans-73"/>
     </g>
    </g>
   </g>
   <g id="matplotlib.axis_2">
    <g id="ytick_1">
     <g id="line2d_15">
      <path clip-path="url(#pd710d97146)" d="M 44.57 148.543096 
L 450 148.543096 
" style="fill:none;stroke:#b0b0b0;stroke-linecap:square;stroke-width:0.8;"/>
     </g>
     <g id="line2d_16">
      <defs>
       <path d="M 0 0 
L -3.5 0 
" id="m2115f8343f" style="stroke:#000000;stroke-width:0.8;"/>
      </defs>
      <g>
       <use style="stroke:#000000;stroke-width:0.8;" x="44.57" xlink:href="#m2115f8343f" y="148.543096"/>
      </g>
     </g>
     <g id="text_9">
      <!-- 4 -->
      <g transform="translate(31.2075 152.342315)scale(0.1 -0.1)">
       <defs>
        <path d="M 2419 4116 
L 825 1625 
L 2419 1625 
L 2419 4116 
z
M 2253 4666 
L 3047 4666 
L 3047 1625 
L 3713 1625 
L 3713 1100 
L 3047 1100 
L 3047 0 
L 2419 0 
L 2419 1100 
L 313 1100 
L 313 1709 
L 2253 4666 
z
" id="DejaVuSans-34" transform="scale(0.015625)"/>
       </defs>
       <use xlink:href="#DejaVuSans-34"/>
      </g>
     </g>
    </g>
    <g id="ytick_2">
     <g id="line2d_17">
      <path clip-path="url(#pd710d97146)" d="M 44.57 106.697043 
L 450 106.697043 
" style="fill:none;stroke:#b0b0b0;stroke-linecap:square;stroke-width:0.8;"/>
     </g>
     <g id="line2d_18">
      <g>
       <use style="stroke:#000000;stroke-width:0.8;" x="44.57" xlink:href="#m2115f8343f" y="106.697043"/>
      </g>
     </g>
     <g id="text_10">
      <!-- 6 -->
      <g transform="translate(31.2075 110.496262)scale(0.1 -0.1)">
       <defs>
        <path d="M 2113 2584 
Q 1688 2584 1439 2293 
Q 1191 2003 1191 1497 
Q 1191 994 1439 701 
Q 1688 409 2113 409 
Q 2538 409 2786 701 
Q 3034 994 3034 1497 
Q 3034 2003 2786 2293 
Q 2538 2584 2113 2584 
z
M 3366 4563 
L 3366 3988 
Q 3128 4100 2886 4159 
Q 2644 4219 2406 4219 
Q 1781 4219 1451 3797 
Q 1122 3375 1075 2522 
Q 1259 2794 1537 2939 
Q 1816 3084 2150 3084 
Q 2853 3084 3261 2657 
Q 3669 2231 3669 1497 
Q 3669 778 3244 343 
Q 2819 -91 2113 -91 
Q 1303 -91 875 529 
Q 447 1150 447 2328 
Q 447 3434 972 4092 
Q 1497 4750 2381 4750 
Q 2619 4750 2861 4703 
Q 3103 4656 3366 4563 
z
" id="DejaVuSans-36" transform="scale(0.015625)"/>
       </defs>
       <use xlink:href="#DejaVuSans-36"/>
      </g>
     </g>
    </g>
    <g id="ytick_3">
     <g id="line2d_19">
      <path clip-path="url(#pd710d97146)" d="M 44.57 64.85099 
L 450 64.85099 
" style="fill:none;stroke:#b0b0b0;stroke-linecap:square;stroke-width:0.8;"/>
     </g>
     <g id="line2d_20">
      <g>
       <use style="stroke:#000000;stroke-width:0.8;" x="44.57" xlink:href="#m2115f8343f" y="64.85099"/>
      </g>
     </g>
     <g id="text_11">
      <!-- 8 -->
      <g transform="translate(31.2075 68.650209)scale(0.1 -0.1)">
       <defs>
        <path d="M 2034 2216 
Q 1584 2216 1326 1975 
Q 1069 1734 1069 1313 
Q 1069 891 1326 650 
Q 1584 409 2034 409 
Q 2484 409 2743 651 
Q 3003 894 3003 1313 
Q 3003 1734 2745 1975 
Q 2488 2216 2034 2216 
z
M 1403 2484 
Q 997 2584 770 2862 
Q 544 3141 544 3541 
Q 544 4100 942 4425 
Q 1341 4750 2034 4750 
Q 2731 4750 3128 4425 
Q 3525 4100 3525 3541 
Q 3525 3141 3298 2862 
Q 3072 2584 2669 2484 
Q 3125 2378 3379 2068 
Q 3634 1759 3634 1313 
Q 3634 634 3220 271 
Q 2806 -91 2034 -91 
Q 1263 -91 848 271 
Q 434 634 434 1313 
Q 434 1759 690 2068 
Q 947 2378 1403 2484 
z
M 1172 3481 
Q 1172 3119 1398 2916 
Q 1625 2713 2034 2713 
Q 2441 2713 2670 2916 
Q 2900 3119 2900 3481 
Q 2900 3844 2670 4047 
Q 2441 4250 2034 4250 
Q 1625 4250 1398 4047 
Q 1172 3844 1172 3481 
z
" id="DejaVuSans-38" transform="scale(0.015625)"/>
       </defs>
       <use xlink:href="#DejaVuSans-38"/>
      </g>
     </g>
    </g>
    <g id="ytick_4">
     <g id="line2d_21">
      <path clip-path="url(#pd710d97146)" d="M 44.57 23.004937 
L 450 23.004937 
" style="fill:none;stroke:#b0b0b0;stroke-linecap:square;stroke-width:0.8;"/>
     </g>
     <g id="line2d_22">
      <g>
       <use style="stroke:#000000;stroke-width:0.8;" x="44.57" xlink:href="#m2115f8343f" y="23.004937"/>
      </g>
     </g>
     <g id="text_12">
      <!-- 10 -->
      <g transform="translate(24.845 26.804156)scale(0.1 -0.1)">
       <use xlink:href="#DejaVuSans-31"/>
       <use x="63.623047" xlink:href="#DejaVuSans-30"/>
      </g>
     </g>
    </g>
    <g id="text_13">
     <!-- Entropy -->
     <g transform="translate(18.765313 107.749219)rotate(-90)scale(0.1 -0.1)">
      <defs>
       <path d="M 628 4666 
L 3578 4666 
L 3578 4134 
L 1259 4134 
L 1259 2753 
L 3481 2753 
L 3481 2222 
L 1259 2222 
L 1259 531 
L 3634 531 
L 3634 0 
L 628 0 
L 628 4666 
z
" id="DejaVuSans-45" transform="scale(0.015625)"/>
       <path d="M 1159 525 
L 1159 -1331 
L 581 -1331 
L 581 3500 
L 1159 3500 
L 1159 2969 
Q 1341 3281 1617 3432 
Q 1894 3584 2278 3584 
Q 2916 3584 3314 3078 
Q 3713 2572 3713 1747 
Q 3713 922 3314 415 
Q 2916 -91 2278 -91 
Q 1894 -91 1617 61 
Q 1341 213 1159 525 
z
M 3116 1747 
Q 3116 2381 2855 2742 
Q 2594 3103 2138 3103 
Q 1681 3103 1420 2742 
Q 1159 2381 1159 1747 
Q 1159 1113 1420 752 
Q 1681 391 2138 391 
Q 2594 391 2855 752 
Q 3116 1113 3116 1747 
z
" id="DejaVuSans-70" transform="scale(0.015625)"/>
       <path d="M 2059 -325 
Q 1816 -950 1584 -1140 
Q 1353 -1331 966 -1331 
L 506 -1331 
L 506 -850 
L 844 -850 
Q 1081 -850 1212 -737 
Q 1344 -625 1503 -206 
L 1606 56 
L 191 3500 
L 800 3500 
L 1894 763 
L 2988 3500 
L 3597 3500 
L 2059 -325 
z
" id="DejaVuSans-79" transform="scale(0.015625)"/>
      </defs>
      <use xlink:href="#DejaVuSans-45"/>
      <use x="63.183594" xlink:href="#DejaVuSans-6e"/>
      <use x="126.5625" xlink:href="#DejaVuSans-74"/>
      <use x="165.771484" xlink:href="#DejaVuSans-72"/>
      <use x="204.634766" xlink:href="#DejaVuSans-6f"/>
      <use x="265.816406" xlink:href="#DejaVuSans-70"/>
      <use x="329.292969" xlink:href="#DejaVuSans-79"/>
     </g>
    </g>
   </g>
   <g id="LineCollection_1">
    <path clip-path="url(#pd710d97146)" d="M 78.355833 124.215691 
L 78.355833 121.76539 
" style="fill:none;stroke:#000000;stroke-width:3;"/>
    <path clip-path="url(#pd710d97146)" d="M 134.665556 152.929167 
L 134.665556 147.246415 
" style="fill:none;stroke:#000000;stroke-width:3;"/>
    <path clip-path="url(#pd710d97146)" d="M 190.975278 121.97388 
L 190.975278 120.494809 
" style="fill:none;stroke:#000000;stroke-width:3;"/>
    <path clip-path="url(#pd710d97146)" d="M 247.285 118.06193 
L 247.285 113.846388 
" style="fill:none;stroke:#000000;stroke-width:3;"/>
    <path clip-path="url(#pd710d97146)" d="M 303.594722 152.119859 
L 303.594722 136.759775 
" style="fill:none;stroke:#000000;stroke-width:3;"/>
    <path clip-path="url(#pd710d97146)" d="M 359.904444 143.521837 
L 359.904444 139.496358 
" style="fill:none;stroke:#000000;stroke-width:3;"/>
    <path clip-path="url(#pd710d97146)" d="M 416.214167 108.161332 
L 416.214167 105.301682 
" style="fill:none;stroke:#000000;stroke-width:3;"/>
   </g>
   <g id="LineCollection_2">
    <path clip-path="url(#pd710d97146)" d="M 78.355833 124.215691 
L 78.355833 121.76539 
" style="fill:none;stroke:#000000;"/>
    <path clip-path="url(#pd710d97146)" d="M 134.665556 152.929167 
L 134.665556 147.246415 
" style="fill:none;stroke:#000000;"/>
    <path clip-path="url(#pd710d97146)" d="M 190.975278 121.97388 
L 190.975278 120.494809 
" style="fill:none;stroke:#000000;"/>
    <path clip-path="url(#pd710d97146)" d="M 247.285 118.06193 
L 247.285 113.846388 
" style="fill:none;stroke:#000000;"/>
    <path clip-path="url(#pd710d97146)" d="M 303.594722 152.119859 
L 303.594722 136.759775 
" style="fill:none;stroke:#000000;"/>
    <path clip-path="url(#pd710d97146)" d="M 359.904444 143.521837 
L 359.904444 139.496358 
" style="fill:none;stroke:#000000;"/>
    <path clip-path="url(#pd710d97146)" d="M 416.214167 108.161332 
L 416.214167 105.301682 
" style="fill:none;stroke:#000000;"/>
   </g>
   <g id="LineCollection_3">
    <path clip-path="url(#pd710d97146)" d="M 78.355833 23.720833 
L 78.355833 23.720833 
" style="fill:none;stroke:#ff0000;"/>
    <path clip-path="url(#pd710d97146)" d="M 134.665556 23.720833 
L 134.665556 23.720833 
" style="fill:none;stroke:#ff0000;"/>
    <path clip-path="url(#pd710d97146)" d="M 190.975278 23.720833 
L 190.975278 23.720833 
" style="fill:none;stroke:#ff0000;"/>
    <path clip-path="url(#pd710d97146)" d="M 247.285 23.720833 
L 247.285 23.720833 
" style="fill:none;stroke:#ff0000;"/>
    <path clip-path="url(#pd710d97146)" d="M 303.594722 23.720833 
L 303.594722 23.720833 
" style="fill:none;stroke:#ff0000;"/>
    <path clip-path="url(#pd710d97146)" d="M 359.904444 23.720833 
L 359.904444 23.720833 
" style="fill:none;stroke:#ff0000;"/>
    <path clip-path="url(#pd710d97146)" d="M 416.214167 23.720833 
L 416.214167 23.720833 
" style="fill:none;stroke:#ff0000;"/>
   </g>
   <g id="line2d_23">
    <defs>
     <path d="M 0 3 
C 0.795609 3 1.55874 2.683901 2.12132 2.12132 
C 2.683901 1.55874 3 0.795609 3 0 
C 3 -0.795609 2.683901 -1.55874 2.12132 -2.12132 
C 1.55874 -2.683901 0.795609 -3 0 -3 
C -0.795609 -3 -1.55874 -2.683901 -2.12132 -2.12132 
C -2.683901 -1.55874 -3 -0.795609 -3 0 
C -3 0.795609 -2.683901 1.55874 -2.12132 2.12132 
C -1.55874 2.683901 -0.795609 3 0 3 
z
" id="m1ecc2359c1" style="stroke:#000000;"/>
    </defs>
    <g clip-path="url(#pd710d97146)">
     <use style="stroke:#000000;" x="78.355833" xlink:href="#m1ecc2359c1" y="122.99054"/>
     <use style="stroke:#000000;" x="134.665556" xlink:href="#m1ecc2359c1" y="150.087791"/>
     <use style="stroke:#000000;" x="190.975278" xlink:href="#m1ecc2359c1" y="121.234344"/>
     <use style="stroke:#000000;" x="247.285" xlink:href="#m1ecc2359c1" y="115.954159"/>
     <use style="stroke:#000000;" x="303.594722" xlink:href="#m1ecc2359c1" y="144.439817"/>
     <use style="stroke:#000000;" x="359.904444" xlink:href="#m1ecc2359c1" y="141.509098"/>
     <use style="stroke:#000000;" x="416.214167" xlink:href="#m1ecc2359c1" y="106.731507"/>
    </g>
   </g>
   <g id="line2d_24">
    <defs>
     <path d="M 0 1.5 
C 0.397805 1.5 0.77937 1.341951 1.06066 1.06066 
C 1.341951 0.77937 1.5 0.397805 1.5 0 
C 1.5 -0.397805 1.341951 -0.77937 1.06066 -1.06066 
C 0.77937 -1.341951 0.397805 -1.5 0 -1.5 
C -0.397805 -1.5 -0.77937 -1.341951 -1.06066 -1.06066 
C -1.341951 -0.77937 -1.5 -0.397805 -1.5 0 
C -1.5 0.397805 -1.341951 0.77937 -1.06066 1.06066 
C -0.77937 1.341951 -0.397805 1.5 0 1.5 
z
" id="m76d31ffbaa" style="stroke:#000000;"/>
    </defs>
    <g clip-path="url(#pd710d97146)">
     <use style="stroke:#000000;" x="78.355833" xlink:href="#m76d31ffbaa" y="122.99054"/>
     <use style="stroke:#000000;" x="134.665556" xlink:href="#m76d31ffbaa" y="150.087791"/>
     <use style="stroke:#000000;" x="190.975278" xlink:href="#m76d31ffbaa" y="121.234344"/>
     <use style="stroke:#000000;" x="247.285" xlink:href="#m76d31ffbaa" y="115.954159"/>
     <use style="stroke:#000000;" x="303.594722" xlink:href="#m76d31ffbaa" y="144.439817"/>
     <use style="stroke:#000000;" x="359.904444" xlink:href="#m76d31ffbaa" y="141.509098"/>
     <use style="stroke:#000000;" x="416.214167" xlink:href="#m76d31ffbaa" y="106.731507"/>
    </g>
   </g>
   <g id="line2d_25">
    <defs>
     <path d="M -0 4.242641 
L 4.242641 0 
L 0 -4.242641 
L -4.242641 -0 
z
" id="me2f3322b01" style="stroke:#ff0000;stroke-linejoin:miter;"/>
    </defs>
    <g clip-path="url(#pd710d97146)">
     <use style="fill:#ff0000;stroke:#ff0000;stroke-linejoin:miter;" x="78.355833" xlink:href="#me2f3322b01" y="23.720833"/>
     <use style="fill:#ff0000;stroke:#ff0000;stroke-linejoin:miter;" x="134.665556" xlink:href="#me2f3322b01" y="23.720833"/>
     <use style="fill:#ff0000;stroke:#ff0000;stroke-linejoin:miter;" x="190.975278" xlink:href="#me2f3322b01" y="23.720833"/>
     <use style="fill:#ff0000;stroke:#ff0000;stroke-linejoin:miter;" x="247.285" xlink:href="#me2f3322b01" y="23.720833"/>
     <use style="fill:#ff0000;stroke:#ff0000;stroke-linejoin:miter;" x="303.594722" xlink:href="#me2f3322b01" y="23.720833"/>
     <use style="fill:#ff0000;stroke:#ff0000;stroke-linejoin:miter;" x="359.904444" xlink:href="#me2f3322b01" y="23.720833"/>
     <use style="fill:#ff0000;stroke:#ff0000;stroke-linejoin:miter;" x="416.214167" xlink:href="#me2f3322b01" y="23.720833"/>
    </g>
   </g>
   <g id="patch_3">
    <path d="M 44.57 165.85 
L 44.57 10.8 
" style="fill:none;stroke:#000000;stroke-linecap:square;stroke-linejoin:miter;stroke-width:0.8;"/>
   </g>
   <g id="patch_4">
    <path d="M 450 165.85 
L 450 10.8 
" style="fill:none;stroke:#000000;stroke-linecap:square;stroke-linejoin:miter;stroke-width:0.8;"/>
   </g>
   <g id="patch_5">
    <path d="M 44.57 165.85 
L 450 165.85 
" style="fill:none;stroke:#000000;stroke-linecap:square;stroke-linejoin:miter;stroke-width:0.8;"/>
   </g>
   <g id="patch_6">
    <path d="M 44.57 10.8 
L 450 10.8 
" style="fill:none;stroke:#000000;stroke-linecap:square;stroke-linejoin:miter;stroke-width:0.8;"/>
   </g>
   <g id="axes_2">
    <g id="patch_7">
     <path d="M 56.7329 80.5725 
L 97.2759 80.5725 
L 97.2759 41.81 
L 56.7329 41.81 
z
" style="fill:#ffffff;"/>
    </g>
    <g id="patch_8">
     <path clip-path="url(#p0b79f499b5)" d="M 70.330464 80.5725 
L 70.607845 80.5725 
L 70.607845 79.38164 
L 70.330464 79.38164 
z
" style="fill:#1f77b4;"/>
    </g>
    <g id="patch_9">
     <path clip-path="url(#p0b79f499b5)" d="M 70.607845 80.5725 
L 70.885226 80.5725 
L 70.885226 80.5725 
L 70.607845 80.5725 
z
" style="fill:#1f77b4;"/>
    </g>
    <g id="patch_10">
     <path clip-path="url(#p0b79f499b5)" d="M 70.885226 80.5725 
L 71.162606 80.5725 
L 71.162606 80.5725 
L 70.885226 80.5725 
z
" style="fill:#1f77b4;"/>
    </g>
    <g id="patch_11">
     <path clip-path="url(#p0b79f499b5)" d="M 71.162606 80.5725 
L 71.439987 80.5725 
L 71.439987 80.5725 
L 71.162606 80.5725 
z
" style="fill:#1f77b4;"/>
    </g>
    <g id="patch_12">
     <path clip-path="url(#p0b79f499b5)" d="M 71.439987 80.5725 
L 71.717367 80.5725 
L 71.717367 80.5725 
L 71.439987 80.5725 
z
" style="fill:#1f77b4;"/>
    </g>
    <g id="patch_13">
     <path clip-path="url(#p0b79f499b5)" d="M 71.717367 80.5725 
L 71.994748 80.5725 
L 71.994748 80.5725 
L 71.717367 80.5725 
z
" style="fill:#1f77b4;"/>
    </g>
    <g id="patch_14">
     <path clip-path="url(#p0b79f499b5)" d="M 71.994748 80.5725 
L 72.272129 80.5725 
L 72.272129 80.5725 
L 71.994748 80.5725 
z
" style="fill:#1f77b4;"/>
    </g>
    <g id="patch_15">
     <path clip-path="url(#p0b79f499b5)" d="M 72.272129 80.5725 
L 72.549509 80.5725 
L 72.549509 80.5725 
L 72.272129 80.5725 
z
" style="fill:#1f77b4;"/>
    </g>
    <g id="patch_16">
     <path clip-path="url(#p0b79f499b5)" d="M 72.549509 80.5725 
L 72.82689 80.5725 
L 72.82689 80.5725 
L 72.549509 80.5725 
z
" style="fill:#1f77b4;"/>
    </g>
    <g id="patch_17">
     <path clip-path="url(#p0b79f499b5)" d="M 72.82689 80.5725 
L 73.10427 80.5725 
L 73.10427 79.38164 
L 72.82689 79.38164 
z
" style="fill:#1f77b4;"/>
    </g>
    <g id="patch_18">
     <path clip-path="url(#p0b79f499b5)" d="M 73.10427 80.5725 
L 73.381651 80.5725 
L 73.381651 80.5725 
L 73.10427 80.5725 
z
" style="fill:#1f77b4;"/>
    </g>
    <g id="patch_19">
     <path clip-path="url(#p0b79f499b5)" d="M 73.381651 80.5725 
L 73.659032 80.5725 
L 73.659032 80.5725 
L 73.381651 80.5725 
z
" style="fill:#1f77b4;"/>
    </g>
    <g id="patch_20">
     <path clip-path="url(#p0b79f499b5)" d="M 73.659032 80.5725 
L 73.936412 80.5725 
L 73.936412 69.854758 
L 73.659032 69.854758 
z
" style="fill:#1f77b4;"/>
    </g>
    <g id="patch_21">
     <path clip-path="url(#p0b79f499b5)" d="M 73.936412 80.5725 
L 74.213793 80.5725 
L 74.213793 53.182715 
L 73.936412 53.182715 
z
" style="fill:#1f77b4;"/>
    </g>
    <g id="patch_22">
     <path clip-path="url(#p0b79f499b5)" d="M 74.213793 80.5725 
L 74.491173 80.5725 
L 74.491173 57.946156 
L 74.213793 57.946156 
z
" style="fill:#1f77b4;"/>
    </g>
    <g id="patch_23">
     <path clip-path="url(#p0b79f499b5)" d="M 74.491173 80.5725 
L 74.768554 80.5725 
L 74.768554 43.655833 
L 74.491173 43.655833 
z
" style="fill:#1f77b4;"/>
    </g>
    <g id="patch_24">
     <path clip-path="url(#p0b79f499b5)" d="M 74.768554 80.5725 
L 75.045935 80.5725 
L 75.045935 68.663898 
L 74.768554 68.663898 
z
" style="fill:#1f77b4;"/>
    </g>
    <g id="patch_25">
     <path clip-path="url(#p0b79f499b5)" d="M 75.045935 80.5725 
L 75.323315 80.5725 
L 75.323315 79.38164 
L 75.045935 79.38164 
z
" style="fill:#1f77b4;"/>
    </g>
    <g id="patch_26">
     <path clip-path="url(#p0b79f499b5)" d="M 75.323315 80.5725 
L 75.600696 80.5725 
L 75.600696 75.809059 
L 75.323315 75.809059 
z
" style="fill:#1f77b4;"/>
    </g>
    <g id="patch_27">
     <path clip-path="url(#p0b79f499b5)" d="M 75.600696 80.5725 
L 75.878077 80.5725 
L 75.878077 79.38164 
L 75.600696 79.38164 
z
" style="fill:#1f77b4;"/>
    </g>
    <g id="patch_28">
     <path d="M 56.7329 80.5725 
L 56.7329 41.81 
" style="fill:none;stroke:#000000;stroke-linecap:square;stroke-linejoin:miter;stroke-width:0.8;"/>
    </g>
    <g id="patch_29">
     <path d="M 97.2759 80.5725 
L 97.2759 41.81 
" style="fill:none;stroke:#000000;stroke-linecap:square;stroke-linejoin:miter;stroke-width:0.8;"/>
    </g>
    <g id="patch_30">
     <path d="M 56.7329 80.5725 
L 97.2759 80.5725 
" style="fill:none;stroke:#000000;stroke-linecap:square;stroke-linejoin:miter;stroke-width:0.8;"/>
    </g>
    <g id="patch_31">
     <path d="M 56.7329 41.81 
L 97.2759 41.81 
" style="fill:none;stroke:#000000;stroke-linecap:square;stroke-linejoin:miter;stroke-width:0.8;"/>
    </g>
   </g>
   <g id="axes_3">
    <g id="patch_32">
     <path d="M 113.290385 80.5725 
L 153.833385 80.5725 
L 153.833385 41.81 
L 113.290385 41.81 
z
" style="fill:#ffffff;"/>
    </g>
    <g id="patch_33">
     <path clip-path="url(#pe5bda77b29)" d="M 126.887949 80.5725 
L 127.16533 80.5725 
L 127.16533 79.38164 
L 126.887949 79.38164 
z
" style="fill:#1f77b4;"/>
    </g>
    <g id="patch_34">
     <path clip-path="url(#pe5bda77b29)" d="M 127.16533 80.5725 
L 127.442711 80.5725 
L 127.442711 80.5725 
L 127.16533 80.5725 
z
" style="fill:#1f77b4;"/>
    </g>
    <g id="patch_35">
     <path clip-path="url(#pe5bda77b29)" d="M 127.442711 80.5725 
L 127.720091 80.5725 
L 127.720091 80.5725 
L 127.442711 80.5725 
z
" style="fill:#1f77b4;"/>
    </g>
    <g id="patch_36">
     <path clip-path="url(#pe5bda77b29)" d="M 127.720091 80.5725 
L 127.997472 80.5725 
L 127.997472 80.5725 
L 127.720091 80.5725 
z
" style="fill:#1f77b4;"/>
    </g>
    <g id="patch_37">
     <path clip-path="url(#pe5bda77b29)" d="M 127.997472 80.5725 
L 128.274852 80.5725 
L 128.274852 80.5725 
L 127.997472 80.5725 
z
" style="fill:#1f77b4;"/>
    </g>
    <g id="patch_38">
     <path clip-path="url(#pe5bda77b29)" d="M 128.274852 80.5725 
L 128.552233 80.5725 
L 128.552233 80.5725 
L 128.274852 80.5725 
z
" style="fill:#1f77b4;"/>
    </g>
    <g id="patch_39">
     <path clip-path="url(#pe5bda77b29)" d="M 128.552233 80.5725 
L 128.829614 80.5725 
L 128.829614 80.5725 
L 128.552233 80.5725 
z
" style="fill:#1f77b4;"/>
    </g>
    <g id="patch_40">
     <path clip-path="url(#pe5bda77b29)" d="M 128.829614 80.5725 
L 129.106994 80.5725 
L 129.106994 80.5725 
L 128.829614 80.5725 
z
" style="fill:#1f77b4;"/>
    </g>
    <g id="patch_41">
     <path clip-path="url(#pe5bda77b29)" d="M 129.106994 80.5725 
L 129.384375 80.5725 
L 129.384375 80.5725 
L 129.106994 80.5725 
z
" style="fill:#1f77b4;"/>
    </g>
    <g id="patch_42">
     <path clip-path="url(#pe5bda77b29)" d="M 129.384375 80.5725 
L 129.661755 80.5725 
L 129.661755 79.38164 
L 129.384375 79.38164 
z
" style="fill:#1f77b4;"/>
    </g>
    <g id="patch_43">
     <path clip-path="url(#pe5bda77b29)" d="M 129.661755 80.5725 
L 129.939136 80.5725 
L 129.939136 80.5725 
L 129.661755 80.5725 
z
" style="fill:#1f77b4;"/>
    </g>
    <g id="patch_44">
     <path clip-path="url(#pe5bda77b29)" d="M 129.939136 80.5725 
L 130.216517 80.5725 
L 130.216517 80.5725 
L 129.939136 80.5725 
z
" style="fill:#1f77b4;"/>
    </g>
    <g id="patch_45">
     <path clip-path="url(#pe5bda77b29)" d="M 130.216517 80.5725 
L 130.493897 80.5725 
L 130.493897 69.854758 
L 130.216517 69.854758 
z
" style="fill:#1f77b4;"/>
    </g>
    <g id="patch_46">
     <path clip-path="url(#pe5bda77b29)" d="M 130.493897 80.5725 
L 130.771278 80.5725 
L 130.771278 53.182715 
L 130.493897 53.182715 
z
" style="fill:#1f77b4;"/>
    </g>
    <g id="patch_47">
     <path clip-path="url(#pe5bda77b29)" d="M 130.771278 80.5725 
L 131.048658 80.5725 
L 131.048658 57.946156 
L 130.771278 57.946156 
z
" style="fill:#1f77b4;"/>
    </g>
    <g id="patch_48">
     <path clip-path="url(#pe5bda77b29)" d="M 131.048658 80.5725 
L 131.326039 80.5725 
L 131.326039 43.655833 
L 131.048658 43.655833 
z
" style="fill:#1f77b4;"/>
    </g>
    <g id="patch_49">
     <path clip-path="url(#pe5bda77b29)" d="M 131.326039 80.5725 
L 131.60342 80.5725 
L 131.60342 68.663898 
L 131.326039 68.663898 
z
" style="fill:#1f77b4;"/>
    </g>
    <g id="patch_50">
     <path clip-path="url(#pe5bda77b29)" d="M 131.60342 80.5725 
L 131.8808 80.5725 
L 131.8808 79.38164 
L 131.60342 79.38164 
z
" style="fill:#1f77b4;"/>
    </g>
    <g id="patch_51">
     <path clip-path="url(#pe5bda77b29)" d="M 131.8808 80.5725 
L 132.158181 80.5725 
L 132.158181 75.809059 
L 131.8808 75.809059 
z
" style="fill:#1f77b4;"/>
    </g>
    <g id="patch_52">
     <path clip-path="url(#pe5bda77b29)" d="M 132.158181 80.5725 
L 132.435562 80.5725 
L 132.435562 79.38164 
L 132.158181 79.38164 
z
" style="fill:#1f77b4;"/>
    </g>
    <g id="patch_53">
     <path d="M 113.290385 80.5725 
L 113.290385 41.81 
" style="fill:none;stroke:#000000;stroke-linecap:square;stroke-linejoin:miter;stroke-width:0.8;"/>
    </g>
    <g id="patch_54">
     <path d="M 153.833385 80.5725 
L 153.833385 41.81 
" style="fill:none;stroke:#000000;stroke-linecap:square;stroke-linejoin:miter;stroke-width:0.8;"/>
    </g>
    <g id="patch_55">
     <path d="M 113.290385 80.5725 
L 153.833385 80.5725 
" style="fill:none;stroke:#000000;stroke-linecap:square;stroke-linejoin:miter;stroke-width:0.8;"/>
    </g>
    <g id="patch_56">
     <path d="M 113.290385 41.81 
L 153.833385 41.81 
" style="fill:none;stroke:#000000;stroke-linecap:square;stroke-linejoin:miter;stroke-width:0.8;"/>
    </g>
   </g>
   <g id="axes_4">
    <g id="patch_57">
     <path d="M 169.84787 80.5725 
L 210.39087 80.5725 
L 210.39087 41.81 
L 169.84787 41.81 
z
" style="fill:#ffffff;"/>
    </g>
    <g id="patch_58">
     <path clip-path="url(#p399c40fa8a)" d="M 183.445434 80.5725 
L 183.722815 80.5725 
L 183.722815 79.38164 
L 183.445434 79.38164 
z
" style="fill:#1f77b4;"/>
    </g>
    <g id="patch_59">
     <path clip-path="url(#p399c40fa8a)" d="M 183.722815 80.5725 
L 184.000196 80.5725 
L 184.000196 80.5725 
L 183.722815 80.5725 
z
" style="fill:#1f77b4;"/>
    </g>
    <g id="patch_60">
     <path clip-path="url(#p399c40fa8a)" d="M 184.000196 80.5725 
L 184.277576 80.5725 
L 184.277576 80.5725 
L 184.000196 80.5725 
z
" style="fill:#1f77b4;"/>
    </g>
    <g id="patch_61">
     <path clip-path="url(#p399c40fa8a)" d="M 184.277576 80.5725 
L 184.554957 80.5725 
L 184.554957 80.5725 
L 184.277576 80.5725 
z
" style="fill:#1f77b4;"/>
    </g>
    <g id="patch_62">
     <path clip-path="url(#p399c40fa8a)" d="M 184.554957 80.5725 
L 184.832337 80.5725 
L 184.832337 80.5725 
L 184.554957 80.5725 
z
" style="fill:#1f77b4;"/>
    </g>
    <g id="patch_63">
     <path clip-path="url(#p399c40fa8a)" d="M 184.832337 80.5725 
L 185.109718 80.5725 
L 185.109718 80.5725 
L 184.832337 80.5725 
z
" style="fill:#1f77b4;"/>
    </g>
    <g id="patch_64">
     <path clip-path="url(#p399c40fa8a)" d="M 185.109718 80.5725 
L 185.387099 80.5725 
L 185.387099 80.5725 
L 185.109718 80.5725 
z
" style="fill:#1f77b4;"/>
    </g>
    <g id="patch_65">
     <path clip-path="url(#p399c40fa8a)" d="M 185.387099 80.5725 
L 185.664479 80.5725 
L 185.664479 80.5725 
L 185.387099 80.5725 
z
" style="fill:#1f77b4;"/>
    </g>
    <g id="patch_66">
     <path clip-path="url(#p399c40fa8a)" d="M 185.664479 80.5725 
L 185.94186 80.5725 
L 185.94186 80.5725 
L 185.664479 80.5725 
z
" style="fill:#1f77b4;"/>
    </g>
    <g id="patch_67">
     <path clip-path="url(#p399c40fa8a)" d="M 185.94186 80.5725 
L 186.21924 80.5725 
L 186.21924 79.38164 
L 185.94186 79.38164 
z
" style="fill:#1f77b4;"/>
    </g>
    <g id="patch_68">
     <path clip-path="url(#p399c40fa8a)" d="M 186.21924 80.5725 
L 186.496621 80.5725 
L 186.496621 80.5725 
L 186.21924 80.5725 
z
" style="fill:#1f77b4;"/>
    </g>
    <g id="patch_69">
     <path clip-path="url(#p399c40fa8a)" d="M 186.496621 80.5725 
L 186.774002 80.5725 
L 186.774002 80.5725 
L 186.496621 80.5725 
z
" style="fill:#1f77b4;"/>
    </g>
    <g id="patch_70">
     <path clip-path="url(#p399c40fa8a)" d="M 186.774002 80.5725 
L 187.051382 80.5725 
L 187.051382 69.854758 
L 186.774002 69.854758 
z
" style="fill:#1f77b4;"/>
    </g>
    <g id="patch_71">
     <path clip-path="url(#p399c40fa8a)" d="M 187.051382 80.5725 
L 187.328763 80.5725 
L 187.328763 53.182715 
L 187.051382 53.182715 
z
" style="fill:#1f77b4;"/>
    </g>
    <g id="patch_72">
     <path clip-path="url(#p399c40fa8a)" d="M 187.328763 80.5725 
L 187.606143 80.5725 
L 187.606143 57.946156 
L 187.328763 57.946156 
z
" style="fill:#1f77b4;"/>
    </g>
    <g id="patch_73">
     <path clip-path="url(#p399c40fa8a)" d="M 187.606143 80.5725 
L 187.883524 80.5725 
L 187.883524 43.655833 
L 187.606143 43.655833 
z
" style="fill:#1f77b4;"/>
    </g>
    <g id="patch_74">
     <path clip-path="url(#p399c40fa8a)" d="M 187.883524 80.5725 
L 188.160905 80.5725 
L 188.160905 68.663898 
L 187.883524 68.663898 
z
" style="fill:#1f77b4;"/>
    </g>
    <g id="patch_75">
     <path clip-path="url(#p399c40fa8a)" d="M 188.160905 80.5725 
L 188.438285 80.5725 
L 188.438285 79.38164 
L 188.160905 79.38164 
z
" style="fill:#1f77b4;"/>
    </g>
    <g id="patch_76">
     <path clip-path="url(#p399c40fa8a)" d="M 188.438285 80.5725 
L 188.715666 80.5725 
L 188.715666 75.809059 
L 188.438285 75.809059 
z
" style="fill:#1f77b4;"/>
    </g>
    <g id="patch_77">
     <path clip-path="url(#p399c40fa8a)" d="M 188.715666 80.5725 
L 188.993047 80.5725 
L 188.993047 79.38164 
L 188.715666 79.38164 
z
" style="fill:#1f77b4;"/>
    </g>
    <g id="patch_78">
     <path d="M 169.84787 80.5725 
L 169.84787 41.81 
" style="fill:none;stroke:#000000;stroke-linecap:square;stroke-linejoin:miter;stroke-width:0.8;"/>
    </g>
    <g id="patch_79">
     <path d="M 210.39087 80.5725 
L 210.39087 41.81 
" style="fill:none;stroke:#000000;stroke-linecap:square;stroke-linejoin:miter;stroke-width:0.8;"/>
    </g>
    <g id="patch_80">
     <path d="M 169.84787 80.5725 
L 210.39087 80.5725 
" style="fill:none;stroke:#000000;stroke-linecap:square;stroke-linejoin:miter;stroke-width:0.8;"/>
    </g>
    <g id="patch_81">
     <path d="M 169.84787 41.81 
L 210.39087 41.81 
" style="fill:none;stroke:#000000;stroke-linecap:square;stroke-linejoin:miter;stroke-width:0.8;"/>
    </g>
   </g>
   <g id="axes_5">
    <g id="patch_82">
     <path d="M 226.405355 80.5725 
L 266.948355 80.5725 
L 266.948355 41.81 
L 226.405355 41.81 
z
" style="fill:#ffffff;"/>
    </g>
    <g id="patch_83">
     <path clip-path="url(#p9ef59e9cd8)" d="M 240.002919 80.5725 
L 240.2803 80.5725 
L 240.2803 79.38164 
L 240.002919 79.38164 
z
" style="fill:#1f77b4;"/>
    </g>
    <g id="patch_84">
     <path clip-path="url(#p9ef59e9cd8)" d="M 240.2803 80.5725 
L 240.557681 80.5725 
L 240.557681 80.5725 
L 240.2803 80.5725 
z
" style="fill:#1f77b4;"/>
    </g>
    <g id="patch_85">
     <path clip-path="url(#p9ef59e9cd8)" d="M 240.557681 80.5725 
L 240.835061 80.5725 
L 240.835061 80.5725 
L 240.557681 80.5725 
z
" style="fill:#1f77b4;"/>
    </g>
    <g id="patch_86">
     <path clip-path="url(#p9ef59e9cd8)" d="M 240.835061 80.5725 
L 241.112442 80.5725 
L 241.112442 80.5725 
L 240.835061 80.5725 
z
" style="fill:#1f77b4;"/>
    </g>
    <g id="patch_87">
     <path clip-path="url(#p9ef59e9cd8)" d="M 241.112442 80.5725 
L 241.389822 80.5725 
L 241.389822 80.5725 
L 241.112442 80.5725 
z
" style="fill:#1f77b4;"/>
    </g>
    <g id="patch_88">
     <path clip-path="url(#p9ef59e9cd8)" d="M 241.389822 80.5725 
L 241.667203 80.5725 
L 241.667203 80.5725 
L 241.389822 80.5725 
z
" style="fill:#1f77b4;"/>
    </g>
    <g id="patch_89">
     <path clip-path="url(#p9ef59e9cd8)" d="M 241.667203 80.5725 
L 241.944584 80.5725 
L 241.944584 80.5725 
L 241.667203 80.5725 
z
" style="fill:#1f77b4;"/>
    </g>
    <g id="patch_90">
     <path clip-path="url(#p9ef59e9cd8)" d="M 241.944584 80.5725 
L 242.221964 80.5725 
L 242.221964 80.5725 
L 241.944584 80.5725 
z
" style="fill:#1f77b4;"/>
    </g>
    <g id="patch_91">
     <path clip-path="url(#p9ef59e9cd8)" d="M 242.221964 80.5725 
L 242.499345 80.5725 
L 242.499345 80.5725 
L 242.221964 80.5725 
z
" style="fill:#1f77b4;"/>
    </g>
    <g id="patch_92">
     <path clip-path="url(#p9ef59e9cd8)" d="M 242.499345 80.5725 
L 242.776725 80.5725 
L 242.776725 79.38164 
L 242.499345 79.38164 
z
" style="fill:#1f77b4;"/>
    </g>
    <g id="patch_93">
     <path clip-path="url(#p9ef59e9cd8)" d="M 242.776725 80.5725 
L 243.054106 80.5725 
L 243.054106 80.5725 
L 242.776725 80.5725 
z
" style="fill:#1f77b4;"/>
    </g>
    <g id="patch_94">
     <path clip-path="url(#p9ef59e9cd8)" d="M 243.054106 80.5725 
L 243.331487 80.5725 
L 243.331487 80.5725 
L 243.054106 80.5725 
z
" style="fill:#1f77b4;"/>
    </g>
    <g id="patch_95">
     <path clip-path="url(#p9ef59e9cd8)" d="M 243.331487 80.5725 
L 243.608867 80.5725 
L 243.608867 69.854758 
L 243.331487 69.854758 
z
" style="fill:#1f77b4;"/>
    </g>
    <g id="patch_96">
     <path clip-path="url(#p9ef59e9cd8)" d="M 243.608867 80.5725 
L 243.886248 80.5725 
L 243.886248 53.182715 
L 243.608867 53.182715 
z
" style="fill:#1f77b4;"/>
    </g>
    <g id="patch_97">
     <path clip-path="url(#p9ef59e9cd8)" d="M 243.886248 80.5725 
L 244.163628 80.5725 
L 244.163628 57.946156 
L 243.886248 57.946156 
z
" style="fill:#1f77b4;"/>
    </g>
    <g id="patch_98">
     <path clip-path="url(#p9ef59e9cd8)" d="M 244.163628 80.5725 
L 244.441009 80.5725 
L 244.441009 43.655833 
L 244.163628 43.655833 
z
" style="fill:#1f77b4;"/>
    </g>
    <g id="patch_99">
     <path clip-path="url(#p9ef59e9cd8)" d="M 244.441009 80.5725 
L 244.71839 80.5725 
L 244.71839 68.663898 
L 244.441009 68.663898 
z
" style="fill:#1f77b4;"/>
    </g>
    <g id="patch_100">
     <path clip-path="url(#p9ef59e9cd8)" d="M 244.71839 80.5725 
L 244.99577 80.5725 
L 244.99577 79.38164 
L 244.71839 79.38164 
z
" style="fill:#1f77b4;"/>
    </g>
    <g id="patch_101">
     <path clip-path="url(#p9ef59e9cd8)" d="M 244.99577 80.5725 
L 245.273151 80.5725 
L 245.273151 75.809059 
L 244.99577 75.809059 
z
" style="fill:#1f77b4;"/>
    </g>
    <g id="patch_102">
     <path clip-path="url(#p9ef59e9cd8)" d="M 245.273151 80.5725 
L 245.550532 80.5725 
L 245.550532 79.38164 
L 245.273151 79.38164 
z
" style="fill:#1f77b4;"/>
    </g>
    <g id="patch_103">
     <path d="M 226.405355 80.5725 
L 226.405355 41.81 
" style="fill:none;stroke:#000000;stroke-linecap:square;stroke-linejoin:miter;stroke-width:0.8;"/>
    </g>
    <g id="patch_104">
     <path d="M 266.948355 80.5725 
L 266.948355 41.81 
" style="fill:none;stroke:#000000;stroke-linecap:square;stroke-linejoin:miter;stroke-width:0.8;"/>
    </g>
    <g id="patch_105">
     <path d="M 226.405355 80.5725 
L 266.948355 80.5725 
" style="fill:none;stroke:#000000;stroke-linecap:square;stroke-linejoin:miter;stroke-width:0.8;"/>
    </g>
    <g id="patch_106">
     <path d="M 226.405355 41.81 
L 266.948355 41.81 
" style="fill:none;stroke:#000000;stroke-linecap:square;stroke-linejoin:miter;stroke-width:0.8;"/>
    </g>
   </g>
   <g id="axes_6">
    <g id="patch_107">
     <path d="M 282.96284 80.5725 
L 323.50584 80.5725 
L 323.50584 41.81 
L 282.96284 41.81 
z
" style="fill:#ffffff;"/>
    </g>
    <g id="patch_108">
     <path clip-path="url(#pe0ab48caa7)" d="M 296.560404 80.5725 
L 296.837785 80.5725 
L 296.837785 79.38164 
L 296.560404 79.38164 
z
" style="fill:#1f77b4;"/>
    </g>
    <g id="patch_109">
     <path clip-path="url(#pe0ab48caa7)" d="M 296.837785 80.5725 
L 297.115166 80.5725 
L 297.115166 80.5725 
L 296.837785 80.5725 
z
" style="fill:#1f77b4;"/>
    </g>
    <g id="patch_110">
     <path clip-path="url(#pe0ab48caa7)" d="M 297.115166 80.5725 
L 297.392546 80.5725 
L 297.392546 80.5725 
L 297.115166 80.5725 
z
" style="fill:#1f77b4;"/>
    </g>
    <g id="patch_111">
     <path clip-path="url(#pe0ab48caa7)" d="M 297.392546 80.5725 
L 297.669927 80.5725 
L 297.669927 80.5725 
L 297.392546 80.5725 
z
" style="fill:#1f77b4;"/>
    </g>
    <g id="patch_112">
     <path clip-path="url(#pe0ab48caa7)" d="M 297.669927 80.5725 
L 297.947307 80.5725 
L 297.947307 80.5725 
L 297.669927 80.5725 
z
" style="fill:#1f77b4;"/>
    </g>
    <g id="patch_113">
     <path clip-path="url(#pe0ab48caa7)" d="M 297.947307 80.5725 
L 298.224688 80.5725 
L 298.224688 80.5725 
L 297.947307 80.5725 
z
" style="fill:#1f77b4;"/>
    </g>
    <g id="patch_114">
     <path clip-path="url(#pe0ab48caa7)" d="M 298.224688 80.5725 
L 298.502069 80.5725 
L 298.502069 80.5725 
L 298.224688 80.5725 
z
" style="fill:#1f77b4;"/>
    </g>
    <g id="patch_115">
     <path clip-path="url(#pe0ab48caa7)" d="M 298.502069 80.5725 
L 298.779449 80.5725 
L 298.779449 80.5725 
L 298.502069 80.5725 
z
" style="fill:#1f77b4;"/>
    </g>
    <g id="patch_116">
     <path clip-path="url(#pe0ab48caa7)" d="M 298.779449 80.5725 
L 299.05683 80.5725 
L 299.05683 80.5725 
L 298.779449 80.5725 
z
" style="fill:#1f77b4;"/>
    </g>
    <g id="patch_117">
     <path clip-path="url(#pe0ab48caa7)" d="M 299.05683 80.5725 
L 299.33421 80.5725 
L 299.33421 79.38164 
L 299.05683 79.38164 
z
" style="fill:#1f77b4;"/>
    </g>
    <g id="patch_118">
     <path clip-path="url(#pe0ab48caa7)" d="M 299.33421 80.5725 
L 299.611591 80.5725 
L 299.611591 80.5725 
L 299.33421 80.5725 
z
" style="fill:#1f77b4;"/>
    </g>
    <g id="patch_119">
     <path clip-path="url(#pe0ab48caa7)" d="M 299.611591 80.5725 
L 299.888972 80.5725 
L 299.888972 80.5725 
L 299.611591 80.5725 
z
" style="fill:#1f77b4;"/>
    </g>
    <g id="patch_120">
     <path clip-path="url(#pe0ab48caa7)" d="M 299.888972 80.5725 
L 300.166352 80.5725 
L 300.166352 69.854758 
L 299.888972 69.854758 
z
" style="fill:#1f77b4;"/>
    </g>
    <g id="patch_121">
     <path clip-path="url(#pe0ab48caa7)" d="M 300.166352 80.5725 
L 300.443733 80.5725 
L 300.443733 53.182715 
L 300.166352 53.182715 
z
" style="fill:#1f77b4;"/>
    </g>
    <g id="patch_122">
     <path clip-path="url(#pe0ab48caa7)" d="M 300.443733 80.5725 
L 300.721113 80.5725 
L 300.721113 57.946156 
L 300.443733 57.946156 
z
" style="fill:#1f77b4;"/>
    </g>
    <g id="patch_123">
     <path clip-path="url(#pe0ab48caa7)" d="M 300.721113 80.5725 
L 300.998494 80.5725 
L 300.998494 43.655833 
L 300.721113 43.655833 
z
" style="fill:#1f77b4;"/>
    </g>
    <g id="patch_124">
     <path clip-path="url(#pe0ab48caa7)" d="M 300.998494 80.5725 
L 301.275875 80.5725 
L 301.275875 68.663898 
L 300.998494 68.663898 
z
" style="fill:#1f77b4;"/>
    </g>
    <g id="patch_125">
     <path clip-path="url(#pe0ab48caa7)" d="M 301.275875 80.5725 
L 301.553255 80.5725 
L 301.553255 79.38164 
L 301.275875 79.38164 
z
" style="fill:#1f77b4;"/>
    </g>
    <g id="patch_126">
     <path clip-path="url(#pe0ab48caa7)" d="M 301.553255 80.5725 
L 301.830636 80.5725 
L 301.830636 75.809059 
L 301.553255 75.809059 
z
" style="fill:#1f77b4;"/>
    </g>
    <g id="patch_127">
     <path clip-path="url(#pe0ab48caa7)" d="M 301.830636 80.5725 
L 302.108017 80.5725 
L 302.108017 79.38164 
L 301.830636 79.38164 
z
" style="fill:#1f77b4;"/>
    </g>
    <g id="patch_128">
     <path d="M 282.96284 80.5725 
L 282.96284 41.81 
" style="fill:none;stroke:#000000;stroke-linecap:square;stroke-linejoin:miter;stroke-width:0.8;"/>
    </g>
    <g id="patch_129">
     <path d="M 323.50584 80.5725 
L 323.50584 41.81 
" style="fill:none;stroke:#000000;stroke-linecap:square;stroke-linejoin:miter;stroke-width:0.8;"/>
    </g>
    <g id="patch_130">
     <path d="M 282.96284 80.5725 
L 323.50584 80.5725 
" style="fill:none;stroke:#000000;stroke-linecap:square;stroke-linejoin:miter;stroke-width:0.8;"/>
    </g>
    <g id="patch_131">
     <path d="M 282.96284 41.81 
L 323.50584 41.81 
" style="fill:none;stroke:#000000;stroke-linecap:square;stroke-linejoin:miter;stroke-width:0.8;"/>
    </g>
   </g>
   <g id="axes_7">
    <g id="patch_132">
     <path d="M 339.520325 80.5725 
L 380.063325 80.5725 
L 380.063325 41.81 
L 339.520325 41.81 
z
" style="fill:#ffffff;"/>
    </g>
    <g id="patch_133">
     <path clip-path="url(#p865d161ea9)" d="M 353.117889 80.5725 
L 353.39527 80.5725 
L 353.39527 79.38164 
L 353.117889 79.38164 
z
" style="fill:#1f77b4;"/>
    </g>
    <g id="patch_134">
     <path clip-path="url(#p865d161ea9)" d="M 353.39527 80.5725 
L 353.672651 80.5725 
L 353.672651 80.5725 
L 353.39527 80.5725 
z
" style="fill:#1f77b4;"/>
    </g>
    <g id="patch_135">
     <path clip-path="url(#p865d161ea9)" d="M 353.672651 80.5725 
L 353.950031 80.5725 
L 353.950031 80.5725 
L 353.672651 80.5725 
z
" style="fill:#1f77b4;"/>
    </g>
    <g id="patch_136">
     <path clip-path="url(#p865d161ea9)" d="M 353.950031 80.5725 
L 354.227412 80.5725 
L 354.227412 80.5725 
L 353.950031 80.5725 
z
" style="fill:#1f77b4;"/>
    </g>
    <g id="patch_137">
     <path clip-path="url(#p865d161ea9)" d="M 354.227412 80.5725 
L 354.504792 80.5725 
L 354.504792 80.5725 
L 354.227412 80.5725 
z
" style="fill:#1f77b4;"/>
    </g>
    <g id="patch_138">
     <path clip-path="url(#p865d161ea9)" d="M 354.504792 80.5725 
L 354.782173 80.5725 
L 354.782173 80.5725 
L 354.504792 80.5725 
z
" style="fill:#1f77b4;"/>
    </g>
    <g id="patch_139">
     <path clip-path="url(#p865d161ea9)" d="M 354.782173 80.5725 
L 355.059554 80.5725 
L 355.059554 80.5725 
L 354.782173 80.5725 
z
" style="fill:#1f77b4;"/>
    </g>
    <g id="patch_140">
     <path clip-path="url(#p865d161ea9)" d="M 355.059554 80.5725 
L 355.336934 80.5725 
L 355.336934 80.5725 
L 355.059554 80.5725 
z
" style="fill:#1f77b4;"/>
    </g>
    <g id="patch_141">
     <path clip-path="url(#p865d161ea9)" d="M 355.336934 80.5725 
L 355.614315 80.5725 
L 355.614315 80.5725 
L 355.336934 80.5725 
z
" style="fill:#1f77b4;"/>
    </g>
    <g id="patch_142">
     <path clip-path="url(#p865d161ea9)" d="M 355.614315 80.5725 
L 355.891695 80.5725 
L 355.891695 79.38164 
L 355.614315 79.38164 
z
" style="fill:#1f77b4;"/>
    </g>
    <g id="patch_143">
     <path clip-path="url(#p865d161ea9)" d="M 355.891695 80.5725 
L 356.169076 80.5725 
L 356.169076 80.5725 
L 355.891695 80.5725 
z
" style="fill:#1f77b4;"/>
    </g>
    <g id="patch_144">
     <path clip-path="url(#p865d161ea9)" d="M 356.169076 80.5725 
L 356.446457 80.5725 
L 356.446457 80.5725 
L 356.169076 80.5725 
z
" style="fill:#1f77b4;"/>
    </g>
    <g id="patch_145">
     <path clip-path="url(#p865d161ea9)" d="M 356.446457 80.5725 
L 356.723837 80.5725 
L 356.723837 69.854758 
L 356.446457 69.854758 
z
" style="fill:#1f77b4;"/>
    </g>
    <g id="patch_146">
     <path clip-path="url(#p865d161ea9)" d="M 356.723837 80.5725 
L 357.001218 80.5725 
L 357.001218 53.182715 
L 356.723837 53.182715 
z
" style="fill:#1f77b4;"/>
    </g>
    <g id="patch_147">
     <path clip-path="url(#p865d161ea9)" d="M 357.001218 80.5725 
L 357.278598 80.5725 
L 357.278598 57.946156 
L 357.001218 57.946156 
z
" style="fill:#1f77b4;"/>
    </g>
    <g id="patch_148">
     <path clip-path="url(#p865d161ea9)" d="M 357.278598 80.5725 
L 357.555979 80.5725 
L 357.555979 43.655833 
L 357.278598 43.655833 
z
" style="fill:#1f77b4;"/>
    </g>
    <g id="patch_149">
     <path clip-path="url(#p865d161ea9)" d="M 357.555979 80.5725 
L 357.83336 80.5725 
L 357.83336 68.663898 
L 357.555979 68.663898 
z
" style="fill:#1f77b4;"/>
    </g>
    <g id="patch_150">
     <path clip-path="url(#p865d161ea9)" d="M 357.83336 80.5725 
L 358.11074 80.5725 
L 358.11074 79.38164 
L 357.83336 79.38164 
z
" style="fill:#1f77b4;"/>
    </g>
    <g id="patch_151">
     <path clip-path="url(#p865d161ea9)" d="M 358.11074 80.5725 
L 358.388121 80.5725 
L 358.388121 75.809059 
L 358.11074 75.809059 
z
" style="fill:#1f77b4;"/>
    </g>
    <g id="patch_152">
     <path clip-path="url(#p865d161ea9)" d="M 358.388121 80.5725 
L 358.665502 80.5725 
L 358.665502 79.38164 
L 358.388121 79.38164 
z
" style="fill:#1f77b4;"/>
    </g>
    <g id="patch_153">
     <path d="M 339.520325 80.5725 
L 339.520325 41.81 
" style="fill:none;stroke:#000000;stroke-linecap:square;stroke-linejoin:miter;stroke-width:0.8;"/>
    </g>
    <g id="patch_154">
     <path d="M 380.063325 80.5725 
L 380.063325 41.81 
" style="fill:none;stroke:#000000;stroke-linecap:square;stroke-linejoin:miter;stroke-width:0.8;"/>
    </g>
    <g id="patch_155">
     <path d="M 339.520325 80.5725 
L 380.063325 80.5725 
" style="fill:none;stroke:#000000;stroke-linecap:square;stroke-linejoin:miter;stroke-width:0.8;"/>
    </g>
    <g id="patch_156">
     <path d="M 339.520325 41.81 
L 380.063325 41.81 
" style="fill:none;stroke:#000000;stroke-linecap:square;stroke-linejoin:miter;stroke-width:0.8;"/>
    </g>
   </g>
   <g id="axes_8">
    <g id="patch_157">
     <path d="M 396.07781 80.5725 
L 436.62081 80.5725 
L 436.62081 41.81 
L 396.07781 41.81 
z
" style="fill:#ffffff;"/>
    </g>
    <g id="patch_158">
     <path clip-path="url(#p3c30965be4)" d="M 409.675374 80.5725 
L 409.952755 80.5725 
L 409.952755 79.38164 
L 409.675374 79.38164 
z
" style="fill:#1f77b4;"/>
    </g>
    <g id="patch_159">
     <path clip-path="url(#p3c30965be4)" d="M 409.952755 80.5725 
L 410.230136 80.5725 
L 410.230136 80.5725 
L 409.952755 80.5725 
z
" style="fill:#1f77b4;"/>
    </g>
    <g id="patch_160">
     <path clip-path="url(#p3c30965be4)" d="M 410.230136 80.5725 
L 410.507516 80.5725 
L 410.507516 80.5725 
L 410.230136 80.5725 
z
" style="fill:#1f77b4;"/>
    </g>
    <g id="patch_161">
     <path clip-path="url(#p3c30965be4)" d="M 410.507516 80.5725 
L 410.784897 80.5725 
L 410.784897 80.5725 
L 410.507516 80.5725 
z
" style="fill:#1f77b4;"/>
    </g>
    <g id="patch_162">
     <path clip-path="url(#p3c30965be4)" d="M 410.784897 80.5725 
L 411.062277 80.5725 
L 411.062277 80.5725 
L 410.784897 80.5725 
z
" style="fill:#1f77b4;"/>
    </g>
    <g id="patch_163">
     <path clip-path="url(#p3c30965be4)" d="M 411.062277 80.5725 
L 411.339658 80.5725 
L 411.339658 80.5725 
L 411.062277 80.5725 
z
" style="fill:#1f77b4;"/>
    </g>
    <g id="patch_164">
     <path clip-path="url(#p3c30965be4)" d="M 411.339658 80.5725 
L 411.617039 80.5725 
L 411.617039 80.5725 
L 411.339658 80.5725 
z
" style="fill:#1f77b4;"/>
    </g>
    <g id="patch_165">
     <path clip-path="url(#p3c30965be4)" d="M 411.617039 80.5725 
L 411.894419 80.5725 
L 411.894419 80.5725 
L 411.617039 80.5725 
z
" style="fill:#1f77b4;"/>
    </g>
    <g id="patch_166">
     <path clip-path="url(#p3c30965be4)" d="M 411.894419 80.5725 
L 412.1718 80.5725 
L 412.1718 80.5725 
L 411.894419 80.5725 
z
" style="fill:#1f77b4;"/>
    </g>
    <g id="patch_167">
     <path clip-path="url(#p3c30965be4)" d="M 412.1718 80.5725 
L 412.44918 80.5725 
L 412.44918 79.38164 
L 412.1718 79.38164 
z
" style="fill:#1f77b4;"/>
    </g>
    <g id="patch_168">
     <path clip-path="url(#p3c30965be4)" d="M 412.44918 80.5725 
L 412.726561 80.5725 
L 412.726561 80.5725 
L 412.44918 80.5725 
z
" style="fill:#1f77b4;"/>
    </g>
    <g id="patch_169">
     <path clip-path="url(#p3c30965be4)" d="M 412.726561 80.5725 
L 413.003942 80.5725 
L 413.003942 80.5725 
L 412.726561 80.5725 
z
" style="fill:#1f77b4;"/>
    </g>
    <g id="patch_170">
     <path clip-path="url(#p3c30965be4)" d="M 413.003942 80.5725 
L 413.281322 80.5725 
L 413.281322 69.854758 
L 413.003942 69.854758 
z
" style="fill:#1f77b4;"/>
    </g>
    <g id="patch_171">
     <path clip-path="url(#p3c30965be4)" d="M 413.281322 80.5725 
L 413.558703 80.5725 
L 413.558703 53.182715 
L 413.281322 53.182715 
z
" style="fill:#1f77b4;"/>
    </g>
    <g id="patch_172">
     <path clip-path="url(#p3c30965be4)" d="M 413.558703 80.5725 
L 413.836083 80.5725 
L 413.836083 57.946156 
L 413.558703 57.946156 
z
" style="fill:#1f77b4;"/>
    </g>
    <g id="patch_173">
     <path clip-path="url(#p3c30965be4)" d="M 413.836083 80.5725 
L 414.113464 80.5725 
L 414.113464 43.655833 
L 413.836083 43.655833 
z
" style="fill:#1f77b4;"/>
    </g>
    <g id="patch_174">
     <path clip-path="url(#p3c30965be4)" d="M 414.113464 80.5725 
L 414.390845 80.5725 
L 414.390845 68.663898 
L 414.113464 68.663898 
z
" style="fill:#1f77b4;"/>
    </g>
    <g id="patch_175">
     <path clip-path="url(#p3c30965be4)" d="M 414.390845 80.5725 
L 414.668225 80.5725 
L 414.668225 79.38164 
L 414.390845 79.38164 
z
" style="fill:#1f77b4;"/>
    </g>
    <g id="patch_176">
     <path clip-path="url(#p3c30965be4)" d="M 414.668225 80.5725 
L 414.945606 80.5725 
L 414.945606 75.809059 
L 414.668225 75.809059 
z
" style="fill:#1f77b4;"/>
    </g>
    <g id="patch_177">
     <path clip-path="url(#p3c30965be4)" d="M 414.945606 80.5725 
L 415.222987 80.5725 
L 415.222987 79.38164 
L 414.945606 79.38164 
z
" style="fill:#1f77b4;"/>
    </g>
    <g id="patch_178">
     <path d="M 396.07781 80.5725 
L 396.07781 41.81 
" style="fill:none;stroke:#000000;stroke-linecap:square;stroke-linejoin:miter;stroke-width:0.8;"/>
    </g>
    <g id="patch_179">
     <path d="M 436.62081 80.5725 
L 436.62081 41.81 
" style="fill:none;stroke:#000000;stroke-linecap:square;stroke-linejoin:miter;stroke-width:0.8;"/>
    </g>
    <g id="patch_180">
     <path d="M 396.07781 80.5725 
L 436.62081 80.5725 
" style="fill:none;stroke:#000000;stroke-linecap:square;stroke-linejoin:miter;stroke-width:0.8;"/>
    </g>
    <g id="patch_181">
     <path d="M 396.07781 41.81 
L 436.62081 41.81 
" style="fill:none;stroke:#000000;stroke-linecap:square;stroke-linejoin:miter;stroke-width:0.8;"/>
    </g>
   </g>
  </g>
 </g>
 <defs>
  <clipPath id="pd710d97146">
   <rect height="155.05" width="405.43" x="44.57" y="10.8"/>
  </clipPath>
  <clipPath id="p0b79f499b5">
   <rect height="38.7625" width="40.543" x="56.7329" y="41.81"/>
  </clipPath>
  <clipPath id="pe5bda77b29">
   <rect height="38.7625" width="40.543" x="113.290385" y="41.81"/>
  </clipPath>
  <clipPath id="p399c40fa8a">
   <rect height="38.7625" width="40.543" x="169.84787" y="41.81"/>
  </clipPath>
  <clipPath id="p9ef59e9cd8">
   <rect height="38.7625" width="40.543" x="226.405355" y="41.81"/>
  </clipPath>
  <clipPath id="pe0ab48caa7">
   <rect height="38.7625" width="40.543" x="282.96284" y="41.81"/>
  </clipPath>
  <clipPath id="p865d161ea9">
   <rect height="38.7625" width="40.543" x="339.520325" y="41.81"/>
  </clipPath>
  <clipPath id="p3c30965be4">
   <rect height="38.7625" width="40.543" x="396.07781" y="41.81"/>
  </clipPath>
 </defs>
</svg>
