<?xml version="1.0" encoding="utf-8" standalone="no"?>
<!DOCTYPE svg PUBLIC "-//W3C//DTD SVG 1.1//EN"
  "http://www.w3.org/Graphics/SVG/1.1/DTD/svg11.dtd">
<svg height="432pt" version="1.1" viewBox="0 0 576 432" width="576pt" xmlns="http://www.w3.org/2000/svg" xmlns:xlink="http://www.w3.org/1999/xlink">
 <metadata>
  <rdf:RDF xmlns:cc="http://creativecommons.org/ns#" xmlns:dc="http://purl.org/dc/elements/1.1/" xmlns:rdf="http://www.w3.org/1999/02/22-rdf-syntax-ns#">
   <cc:Work>
    <dc:type rdf:resource="http://purl.org/dc/dcmitype/StillImage"/>
    <dc:date>2021-05-07T23:42:10.990505</dc:date>
    <dc:format>image/svg+xml</dc:format>
    <dc:creator>
     <cc:Agent>
      <dc:title>Matplotlib v3.4.1, https://matplotlib.org/</dc:title>
     </cc:Agent>
    </dc:creator>
   </cc:Work>
  </rdf:RDF>
 </metadata>
 <defs>
  <style type="text/css">*{stroke-linecap:butt;stroke-linejoin:round;}</style>
 </defs>
 <g id="figure_1">
  <g id="patch_1">
   <path d="M 0 432 
L 576 432 
L 576 0 
L 0 0 
z
" style="fill:#ffffff;"/>
  </g>
  <g id="axes_1">
   <g id="patch_2">
    <path d="M 60.68 268.275588 
L 559.8 268.275588 
L 559.8 16.2 
L 60.68 16.2 
z
" style="fill:#ffffff;"/>
   </g>
   <g id="matplotlib.axis_1">
    <g id="xtick_1">
     <g id="line2d_1">
      <path clip-path="url(#p0d7d4bfa86)" d="M 102.273333 268.275588 
L 102.273333 16.2 
" style="fill:none;stroke:#b0b0b0;stroke-linecap:square;stroke-width:0.8;"/>
     </g>
     <g id="line2d_2">
      <defs>
       <path d="M 0 0 
L 0 3.5 
" id="med4a8c557b" style="stroke:#000000;stroke-width:0.8;"/>
      </defs>
      <g>
       <use style="stroke:#000000;stroke-width:0.8;" x="102.273333" xlink:href="#med4a8c557b" y="268.275588"/>
      </g>
     </g>
     <g id="text_1">
      <!-- FedAvg CNN -->
      <g transform="translate(34.999305 348.403135)rotate(-45)scale(0.15 -0.15)">
       <defs>
        <path d="M 628 4666 
L 3309 4666 
L 3309 4134 
L 1259 4134 
L 1259 2759 
L 3109 2759 
L 3109 2228 
L 1259 2228 
L 1259 0 
L 628 0 
L 628 4666 
z
" id="DejaVuSans-46" transform="scale(0.015625)"/>
        <path d="M 3597 1894 
L 3597 1613 
L 953 1613 
Q 991 1019 1311 708 
Q 1631 397 2203 397 
Q 2534 397 2845 478 
Q 3156 559 3463 722 
L 3463 178 
Q 3153 47 2828 -22 
Q 2503 -91 2169 -91 
Q 1331 -91 842 396 
Q 353 884 353 1716 
Q 353 2575 817 3079 
Q 1281 3584 2069 3584 
Q 2775 3584 3186 3129 
Q 3597 2675 3597 1894 
z
M 3022 2063 
Q 3016 2534 2758 2815 
Q 2500 3097 2075 3097 
Q 1594 3097 1305 2825 
Q 1016 2553 972 2059 
L 3022 2063 
z
" id="DejaVuSans-65" transform="scale(0.015625)"/>
        <path d="M 2906 2969 
L 2906 4863 
L 3481 4863 
L 3481 0 
L 2906 0 
L 2906 525 
Q 2725 213 2448 61 
Q 2172 -91 1784 -91 
Q 1150 -91 751 415 
Q 353 922 353 1747 
Q 353 2572 751 3078 
Q 1150 3584 1784 3584 
Q 2172 3584 2448 3432 
Q 2725 3281 2906 2969 
z
M 947 1747 
Q 947 1113 1208 752 
Q 1469 391 1925 391 
Q 2381 391 2643 752 
Q 2906 1113 2906 1747 
Q 2906 2381 2643 2742 
Q 2381 3103 1925 3103 
Q 1469 3103 1208 2742 
Q 947 2381 947 1747 
z
" id="DejaVuSans-64" transform="scale(0.015625)"/>
        <path d="M 2188 4044 
L 1331 1722 
L 3047 1722 
L 2188 4044 
z
M 1831 4666 
L 2547 4666 
L 4325 0 
L 3669 0 
L 3244 1197 
L 1141 1197 
L 716 0 
L 50 0 
L 1831 4666 
z
" id="DejaVuSans-41" transform="scale(0.015625)"/>
        <path d="M 191 3500 
L 800 3500 
L 1894 563 
L 2988 3500 
L 3597 3500 
L 2284 0 
L 1503 0 
L 191 3500 
z
" id="DejaVuSans-76" transform="scale(0.015625)"/>
        <path d="M 2906 1791 
Q 2906 2416 2648 2759 
Q 2391 3103 1925 3103 
Q 1463 3103 1205 2759 
Q 947 2416 947 1791 
Q 947 1169 1205 825 
Q 1463 481 1925 481 
Q 2391 481 2648 825 
Q 2906 1169 2906 1791 
z
M 3481 434 
Q 3481 -459 3084 -895 
Q 2688 -1331 1869 -1331 
Q 1566 -1331 1297 -1286 
Q 1028 -1241 775 -1147 
L 775 -588 
Q 1028 -725 1275 -790 
Q 1522 -856 1778 -856 
Q 2344 -856 2625 -561 
Q 2906 -266 2906 331 
L 2906 616 
Q 2728 306 2450 153 
Q 2172 0 1784 0 
Q 1141 0 747 490 
Q 353 981 353 1791 
Q 353 2603 747 3093 
Q 1141 3584 1784 3584 
Q 2172 3584 2450 3431 
Q 2728 3278 2906 2969 
L 2906 3500 
L 3481 3500 
L 3481 434 
z
" id="DejaVuSans-67" transform="scale(0.015625)"/>
        <path id="DejaVuSans-20" transform="scale(0.015625)"/>
        <path d="M 4122 4306 
L 4122 3641 
Q 3803 3938 3442 4084 
Q 3081 4231 2675 4231 
Q 1875 4231 1450 3742 
Q 1025 3253 1025 2328 
Q 1025 1406 1450 917 
Q 1875 428 2675 428 
Q 3081 428 3442 575 
Q 3803 722 4122 1019 
L 4122 359 
Q 3791 134 3420 21 
Q 3050 -91 2638 -91 
Q 1578 -91 968 557 
Q 359 1206 359 2328 
Q 359 3453 968 4101 
Q 1578 4750 2638 4750 
Q 3056 4750 3426 4639 
Q 3797 4528 4122 4306 
z
" id="DejaVuSans-43" transform="scale(0.015625)"/>
        <path d="M 628 4666 
L 1478 4666 
L 3547 763 
L 3547 4666 
L 4159 4666 
L 4159 0 
L 3309 0 
L 1241 3903 
L 1241 0 
L 628 0 
L 628 4666 
z
" id="DejaVuSans-4e" transform="scale(0.015625)"/>
       </defs>
       <use xlink:href="#DejaVuSans-46"/>
       <use x="52.019531" xlink:href="#DejaVuSans-65"/>
       <use x="113.542969" xlink:href="#DejaVuSans-64"/>
       <use x="177.019531" xlink:href="#DejaVuSans-41"/>
       <use x="239.552734" xlink:href="#DejaVuSans-76"/>
       <use x="298.732422" xlink:href="#DejaVuSans-67"/>
       <use x="362.208984" xlink:href="#DejaVuSans-20"/>
       <use x="393.996094" xlink:href="#DejaVuSans-43"/>
       <use x="463.820312" xlink:href="#DejaVuSans-4e"/>
       <use x="538.625" xlink:href="#DejaVuSans-4e"/>
      </g>
     </g>
    </g>
    <g id="xtick_2">
     <g id="line2d_3">
      <path clip-path="url(#p0d7d4bfa86)" d="M 171.595556 268.275588 
L 171.595556 16.2 
" style="fill:none;stroke:#b0b0b0;stroke-linecap:square;stroke-width:0.8;"/>
     </g>
     <g id="line2d_4">
      <g>
       <use style="stroke:#000000;stroke-width:0.8;" x="171.595556" xlink:href="#med4a8c557b" y="268.275588"/>
      </g>
     </g>
     <g id="text_2">
      <!-- FedMed CNN -->
      <g transform="translate(101.553867 351.170795)rotate(-45)scale(0.15 -0.15)">
       <defs>
        <path d="M 628 4666 
L 1569 4666 
L 2759 1491 
L 3956 4666 
L 4897 4666 
L 4897 0 
L 4281 0 
L 4281 4097 
L 3078 897 
L 2444 897 
L 1241 4097 
L 1241 0 
L 628 0 
L 628 4666 
z
" id="DejaVuSans-4d" transform="scale(0.015625)"/>
       </defs>
       <use xlink:href="#DejaVuSans-46"/>
       <use x="52.019531" xlink:href="#DejaVuSans-65"/>
       <use x="113.542969" xlink:href="#DejaVuSans-64"/>
       <use x="177.019531" xlink:href="#DejaVuSans-4d"/>
       <use x="263.298828" xlink:href="#DejaVuSans-65"/>
       <use x="324.822266" xlink:href="#DejaVuSans-64"/>
       <use x="388.298828" xlink:href="#DejaVuSans-20"/>
       <use x="420.085938" xlink:href="#DejaVuSans-43"/>
       <use x="489.910156" xlink:href="#DejaVuSans-4e"/>
       <use x="564.714844" xlink:href="#DejaVuSans-4e"/>
      </g>
     </g>
    </g>
    <g id="xtick_3">
     <g id="line2d_5">
      <path clip-path="url(#p0d7d4bfa86)" d="M 240.917778 268.275588 
L 240.917778 16.2 
" style="fill:none;stroke:#b0b0b0;stroke-linecap:square;stroke-width:0.8;"/>
     </g>
     <g id="line2d_6">
      <g>
       <use style="stroke:#000000;stroke-width:0.8;" x="240.917778" xlink:href="#med4a8c557b" y="268.275588"/>
      </g>
     </g>
     <g id="text_3">
      <!-- FedProx CNN -->
      <g transform="translate(170.519773 351.52711)rotate(-45)scale(0.15 -0.15)">
       <defs>
        <path d="M 1259 4147 
L 1259 2394 
L 2053 2394 
Q 2494 2394 2734 2622 
Q 2975 2850 2975 3272 
Q 2975 3691 2734 3919 
Q 2494 4147 2053 4147 
L 1259 4147 
z
M 628 4666 
L 2053 4666 
Q 2838 4666 3239 4311 
Q 3641 3956 3641 3272 
Q 3641 2581 3239 2228 
Q 2838 1875 2053 1875 
L 1259 1875 
L 1259 0 
L 628 0 
L 628 4666 
z
" id="DejaVuSans-50" transform="scale(0.015625)"/>
        <path d="M 2631 2963 
Q 2534 3019 2420 3045 
Q 2306 3072 2169 3072 
Q 1681 3072 1420 2755 
Q 1159 2438 1159 1844 
L 1159 0 
L 581 0 
L 581 3500 
L 1159 3500 
L 1159 2956 
Q 1341 3275 1631 3429 
Q 1922 3584 2338 3584 
Q 2397 3584 2469 3576 
Q 2541 3569 2628 3553 
L 2631 2963 
z
" id="DejaVuSans-72" transform="scale(0.015625)"/>
        <path d="M 1959 3097 
Q 1497 3097 1228 2736 
Q 959 2375 959 1747 
Q 959 1119 1226 758 
Q 1494 397 1959 397 
Q 2419 397 2687 759 
Q 2956 1122 2956 1747 
Q 2956 2369 2687 2733 
Q 2419 3097 1959 3097 
z
M 1959 3584 
Q 2709 3584 3137 3096 
Q 3566 2609 3566 1747 
Q 3566 888 3137 398 
Q 2709 -91 1959 -91 
Q 1206 -91 779 398 
Q 353 888 353 1747 
Q 353 2609 779 3096 
Q 1206 3584 1959 3584 
z
" id="DejaVuSans-6f" transform="scale(0.015625)"/>
        <path d="M 3513 3500 
L 2247 1797 
L 3578 0 
L 2900 0 
L 1881 1375 
L 863 0 
L 184 0 
L 1544 1831 
L 300 3500 
L 978 3500 
L 1906 2253 
L 2834 3500 
L 3513 3500 
z
" id="DejaVuSans-78" transform="scale(0.015625)"/>
       </defs>
       <use xlink:href="#DejaVuSans-46"/>
       <use x="52.019531" xlink:href="#DejaVuSans-65"/>
       <use x="113.542969" xlink:href="#DejaVuSans-64"/>
       <use x="177.019531" xlink:href="#DejaVuSans-50"/>
       <use x="235.572266" xlink:href="#DejaVuSans-72"/>
       <use x="274.435547" xlink:href="#DejaVuSans-6f"/>
       <use x="332.492188" xlink:href="#DejaVuSans-78"/>
       <use x="391.671875" xlink:href="#DejaVuSans-20"/>
       <use x="423.458984" xlink:href="#DejaVuSans-43"/>
       <use x="493.283203" xlink:href="#DejaVuSans-4e"/>
       <use x="568.087891" xlink:href="#DejaVuSans-4e"/>
      </g>
     </g>
    </g>
    <g id="xtick_4">
     <g id="line2d_7">
      <path clip-path="url(#p0d7d4bfa86)" d="M 310.24 268.275588 
L 310.24 16.2 
" style="fill:none;stroke:#b0b0b0;stroke-linecap:square;stroke-width:0.8;"/>
     </g>
     <g id="line2d_8">
      <g>
       <use style="stroke:#000000;stroke-width:0.8;" x="310.24" xlink:href="#med4a8c557b" y="268.275588"/>
      </g>
     </g>
     <g id="text_4">
      <!-- qFedAvg_001_u CNN -->
      <g transform="translate(198.363554 392.710556)rotate(-45)scale(0.15 -0.15)">
       <defs>
        <path d="M 947 1747 
Q 947 1113 1208 752 
Q 1469 391 1925 391 
Q 2381 391 2643 752 
Q 2906 1113 2906 1747 
Q 2906 2381 2643 2742 
Q 2381 3103 1925 3103 
Q 1469 3103 1208 2742 
Q 947 2381 947 1747 
z
M 2906 525 
Q 2725 213 2448 61 
Q 2172 -91 1784 -91 
Q 1150 -91 751 415 
Q 353 922 353 1747 
Q 353 2572 751 3078 
Q 1150 3584 1784 3584 
Q 2172 3584 2448 3432 
Q 2725 3281 2906 2969 
L 2906 3500 
L 3481 3500 
L 3481 -1331 
L 2906 -1331 
L 2906 525 
z
" id="DejaVuSans-71" transform="scale(0.015625)"/>
        <path d="M 3263 -1063 
L 3263 -1509 
L -63 -1509 
L -63 -1063 
L 3263 -1063 
z
" id="DejaVuSans-5f" transform="scale(0.015625)"/>
        <path d="M 2034 4250 
Q 1547 4250 1301 3770 
Q 1056 3291 1056 2328 
Q 1056 1369 1301 889 
Q 1547 409 2034 409 
Q 2525 409 2770 889 
Q 3016 1369 3016 2328 
Q 3016 3291 2770 3770 
Q 2525 4250 2034 4250 
z
M 2034 4750 
Q 2819 4750 3233 4129 
Q 3647 3509 3647 2328 
Q 3647 1150 3233 529 
Q 2819 -91 2034 -91 
Q 1250 -91 836 529 
Q 422 1150 422 2328 
Q 422 3509 836 4129 
Q 1250 4750 2034 4750 
z
" id="DejaVuSans-30" transform="scale(0.015625)"/>
        <path d="M 794 531 
L 1825 531 
L 1825 4091 
L 703 3866 
L 703 4441 
L 1819 4666 
L 2450 4666 
L 2450 531 
L 3481 531 
L 3481 0 
L 794 0 
L 794 531 
z
" id="DejaVuSans-31" transform="scale(0.015625)"/>
        <path d="M 544 1381 
L 544 3500 
L 1119 3500 
L 1119 1403 
Q 1119 906 1312 657 
Q 1506 409 1894 409 
Q 2359 409 2629 706 
Q 2900 1003 2900 1516 
L 2900 3500 
L 3475 3500 
L 3475 0 
L 2900 0 
L 2900 538 
Q 2691 219 2414 64 
Q 2138 -91 1772 -91 
Q 1169 -91 856 284 
Q 544 659 544 1381 
z
M 1991 3584 
L 1991 3584 
z
" id="DejaVuSans-75" transform="scale(0.015625)"/>
       </defs>
       <use xlink:href="#DejaVuSans-71"/>
       <use x="63.476562" xlink:href="#DejaVuSans-46"/>
       <use x="115.496094" xlink:href="#DejaVuSans-65"/>
       <use x="177.019531" xlink:href="#DejaVuSans-64"/>
       <use x="240.496094" xlink:href="#DejaVuSans-41"/>
       <use x="303.029297" xlink:href="#DejaVuSans-76"/>
       <use x="362.208984" xlink:href="#DejaVuSans-67"/>
       <use x="425.685547" xlink:href="#DejaVuSans-5f"/>
       <use x="475.685547" xlink:href="#DejaVuSans-30"/>
       <use x="539.308594" xlink:href="#DejaVuSans-30"/>
       <use x="602.931641" xlink:href="#DejaVuSans-31"/>
       <use x="666.554688" xlink:href="#DejaVuSans-5f"/>
       <use x="716.554688" xlink:href="#DejaVuSans-75"/>
       <use x="779.933594" xlink:href="#DejaVuSans-20"/>
       <use x="811.720703" xlink:href="#DejaVuSans-43"/>
       <use x="881.544922" xlink:href="#DejaVuSans-4e"/>
       <use x="956.349609" xlink:href="#DejaVuSans-4e"/>
      </g>
     </g>
    </g>
    <g id="xtick_5">
     <g id="line2d_9">
      <path clip-path="url(#p0d7d4bfa86)" d="M 379.562222 268.275588 
L 379.562222 16.2 
" style="fill:none;stroke:#b0b0b0;stroke-linecap:square;stroke-width:0.8;"/>
     </g>
     <g id="line2d_10">
      <g>
       <use style="stroke:#000000;stroke-width:0.8;" x="379.562222" xlink:href="#med4a8c557b" y="268.275588"/>
      </g>
     </g>
     <g id="text_5">
      <!-- qFedAvg_1_w CNN -->
      <g transform="translate(279.230399 381.165933)rotate(-45)scale(0.15 -0.15)">
       <defs>
        <path d="M 269 3500 
L 844 3500 
L 1563 769 
L 2278 3500 
L 2956 3500 
L 3675 769 
L 4391 3500 
L 4966 3500 
L 4050 0 
L 3372 0 
L 2619 2869 
L 1863 0 
L 1184 0 
L 269 3500 
z
" id="DejaVuSans-77" transform="scale(0.015625)"/>
       </defs>
       <use xlink:href="#DejaVuSans-71"/>
       <use x="63.476562" xlink:href="#DejaVuSans-46"/>
       <use x="115.496094" xlink:href="#DejaVuSans-65"/>
       <use x="177.019531" xlink:href="#DejaVuSans-64"/>
       <use x="240.496094" xlink:href="#DejaVuSans-41"/>
       <use x="303.029297" xlink:href="#DejaVuSans-76"/>
       <use x="362.208984" xlink:href="#DejaVuSans-67"/>
       <use x="425.685547" xlink:href="#DejaVuSans-5f"/>
       <use x="475.685547" xlink:href="#DejaVuSans-31"/>
       <use x="539.308594" xlink:href="#DejaVuSans-5f"/>
       <use x="589.308594" xlink:href="#DejaVuSans-77"/>
       <use x="671.095703" xlink:href="#DejaVuSans-20"/>
       <use x="702.882812" xlink:href="#DejaVuSans-43"/>
       <use x="772.707031" xlink:href="#DejaVuSans-4e"/>
       <use x="847.511719" xlink:href="#DejaVuSans-4e"/>
      </g>
     </g>
    </g>
    <g id="xtick_6">
     <g id="line2d_11">
      <path clip-path="url(#p0d7d4bfa86)" d="M 448.884444 268.275588 
L 448.884444 16.2 
" style="fill:none;stroke:#b0b0b0;stroke-linecap:square;stroke-width:0.8;"/>
     </g>
     <g id="line2d_12">
      <g>
       <use style="stroke:#000000;stroke-width:0.8;" x="448.884444" xlink:href="#med4a8c557b" y="268.275588"/>
      </g>
     </g>
     <g id="text_6">
      <!-- qFedAvg_001_w CNN -->
      <g transform="translate(335.055721 394.662834)rotate(-45)scale(0.15 -0.15)">
       <use xlink:href="#DejaVuSans-71"/>
       <use x="63.476562" xlink:href="#DejaVuSans-46"/>
       <use x="115.496094" xlink:href="#DejaVuSans-65"/>
       <use x="177.019531" xlink:href="#DejaVuSans-64"/>
       <use x="240.496094" xlink:href="#DejaVuSans-41"/>
       <use x="303.029297" xlink:href="#DejaVuSans-76"/>
       <use x="362.208984" xlink:href="#DejaVuSans-67"/>
       <use x="425.685547" xlink:href="#DejaVuSans-5f"/>
       <use x="475.685547" xlink:href="#DejaVuSans-30"/>
       <use x="539.308594" xlink:href="#DejaVuSans-30"/>
       <use x="602.931641" xlink:href="#DejaVuSans-31"/>
       <use x="666.554688" xlink:href="#DejaVuSans-5f"/>
       <use x="716.554688" xlink:href="#DejaVuSans-77"/>
       <use x="798.341797" xlink:href="#DejaVuSans-20"/>
       <use x="830.128906" xlink:href="#DejaVuSans-43"/>
       <use x="899.953125" xlink:href="#DejaVuSans-4e"/>
       <use x="974.757812" xlink:href="#DejaVuSans-4e"/>
      </g>
     </g>
    </g>
    <g id="xtick_7">
     <g id="line2d_13">
      <path clip-path="url(#p0d7d4bfa86)" d="M 518.206667 268.275588 
L 518.206667 16.2 
" style="fill:none;stroke:#b0b0b0;stroke-linecap:square;stroke-width:0.8;"/>
     </g>
     <g id="line2d_14">
      <g>
       <use style="stroke:#000000;stroke-width:0.8;" x="518.206667" xlink:href="#med4a8c557b" y="268.275588"/>
      </g>
     </g>
     <g id="text_7">
      <!-- qFedAvg_1_u CNN -->
      <g transform="translate(419.827121 379.213656)rotate(-45)scale(0.15 -0.15)">
       <use xlink:href="#DejaVuSans-71"/>
       <use x="63.476562" xlink:href="#DejaVuSans-46"/>
       <use x="115.496094" xlink:href="#DejaVuSans-65"/>
       <use x="177.019531" xlink:href="#DejaVuSans-64"/>
       <use x="240.496094" xlink:href="#DejaVuSans-41"/>
       <use x="303.029297" xlink:href="#DejaVuSans-76"/>
       <use x="362.208984" xlink:href="#DejaVuSans-67"/>
       <use x="425.685547" xlink:href="#DejaVuSans-5f"/>
       <use x="475.685547" xlink:href="#DejaVuSans-31"/>
       <use x="539.308594" xlink:href="#DejaVuSans-5f"/>
       <use x="589.308594" xlink:href="#DejaVuSans-75"/>
       <use x="652.6875" xlink:href="#DejaVuSans-20"/>
       <use x="684.474609" xlink:href="#DejaVuSans-43"/>
       <use x="754.298828" xlink:href="#DejaVuSans-4e"/>
       <use x="829.103516" xlink:href="#DejaVuSans-4e"/>
      </g>
     </g>
    </g>
    <g id="text_8">
     <!-- Algorithms -->
     <g transform="translate(269.602891 412.561328)scale(0.15 -0.15)">
      <defs>
       <path d="M 603 4863 
L 1178 4863 
L 1178 0 
L 603 0 
L 603 4863 
z
" id="DejaVuSans-6c" transform="scale(0.015625)"/>
       <path d="M 603 3500 
L 1178 3500 
L 1178 0 
L 603 0 
L 603 3500 
z
M 603 4863 
L 1178 4863 
L 1178 4134 
L 603 4134 
L 603 4863 
z
" id="DejaVuSans-69" transform="scale(0.015625)"/>
       <path d="M 1172 4494 
L 1172 3500 
L 2356 3500 
L 2356 3053 
L 1172 3053 
L 1172 1153 
Q 1172 725 1289 603 
Q 1406 481 1766 481 
L 2356 481 
L 2356 0 
L 1766 0 
Q 1100 0 847 248 
Q 594 497 594 1153 
L 594 3053 
L 172 3053 
L 172 3500 
L 594 3500 
L 594 4494 
L 1172 4494 
z
" id="DejaVuSans-74" transform="scale(0.015625)"/>
       <path d="M 3513 2113 
L 3513 0 
L 2938 0 
L 2938 2094 
Q 2938 2591 2744 2837 
Q 2550 3084 2163 3084 
Q 1697 3084 1428 2787 
Q 1159 2491 1159 1978 
L 1159 0 
L 581 0 
L 581 4863 
L 1159 4863 
L 1159 2956 
Q 1366 3272 1645 3428 
Q 1925 3584 2291 3584 
Q 2894 3584 3203 3211 
Q 3513 2838 3513 2113 
z
" id="DejaVuSans-68" transform="scale(0.015625)"/>
       <path d="M 3328 2828 
Q 3544 3216 3844 3400 
Q 4144 3584 4550 3584 
Q 5097 3584 5394 3201 
Q 5691 2819 5691 2113 
L 5691 0 
L 5113 0 
L 5113 2094 
Q 5113 2597 4934 2840 
Q 4756 3084 4391 3084 
Q 3944 3084 3684 2787 
Q 3425 2491 3425 1978 
L 3425 0 
L 2847 0 
L 2847 2094 
Q 2847 2600 2669 2842 
Q 2491 3084 2119 3084 
Q 1678 3084 1418 2786 
Q 1159 2488 1159 1978 
L 1159 0 
L 581 0 
L 581 3500 
L 1159 3500 
L 1159 2956 
Q 1356 3278 1631 3431 
Q 1906 3584 2284 3584 
Q 2666 3584 2933 3390 
Q 3200 3197 3328 2828 
z
" id="DejaVuSans-6d" transform="scale(0.015625)"/>
       <path d="M 2834 3397 
L 2834 2853 
Q 2591 2978 2328 3040 
Q 2066 3103 1784 3103 
Q 1356 3103 1142 2972 
Q 928 2841 928 2578 
Q 928 2378 1081 2264 
Q 1234 2150 1697 2047 
L 1894 2003 
Q 2506 1872 2764 1633 
Q 3022 1394 3022 966 
Q 3022 478 2636 193 
Q 2250 -91 1575 -91 
Q 1294 -91 989 -36 
Q 684 19 347 128 
L 347 722 
Q 666 556 975 473 
Q 1284 391 1588 391 
Q 1994 391 2212 530 
Q 2431 669 2431 922 
Q 2431 1156 2273 1281 
Q 2116 1406 1581 1522 
L 1381 1569 
Q 847 1681 609 1914 
Q 372 2147 372 2553 
Q 372 3047 722 3315 
Q 1072 3584 1716 3584 
Q 2034 3584 2315 3537 
Q 2597 3491 2834 3397 
z
" id="DejaVuSans-73" transform="scale(0.015625)"/>
      </defs>
      <use xlink:href="#DejaVuSans-41"/>
      <use x="68.408203" xlink:href="#DejaVuSans-6c"/>
      <use x="96.191406" xlink:href="#DejaVuSans-67"/>
      <use x="159.667969" xlink:href="#DejaVuSans-6f"/>
      <use x="220.849609" xlink:href="#DejaVuSans-72"/>
      <use x="261.962891" xlink:href="#DejaVuSans-69"/>
      <use x="289.746094" xlink:href="#DejaVuSans-74"/>
      <use x="328.955078" xlink:href="#DejaVuSans-68"/>
      <use x="392.333984" xlink:href="#DejaVuSans-6d"/>
      <use x="489.746094" xlink:href="#DejaVuSans-73"/>
     </g>
    </g>
   </g>
   <g id="matplotlib.axis_2">
    <g id="ytick_1">
     <g id="line2d_15">
      <path clip-path="url(#p0d7d4bfa86)" d="M 60.68 249.275461 
L 559.8 249.275461 
" style="fill:none;stroke:#b0b0b0;stroke-linecap:square;stroke-width:0.8;"/>
     </g>
     <g id="line2d_16">
      <defs>
       <path d="M 0 0 
L -3.5 0 
" id="m0f9cc0b6f5" style="stroke:#000000;stroke-width:0.8;"/>
      </defs>
      <g>
       <use style="stroke:#000000;stroke-width:0.8;" x="60.68" xlink:href="#m0f9cc0b6f5" y="249.275461"/>
      </g>
     </g>
     <g id="text_9">
      <!-- 4 -->
      <g transform="translate(44.13625 254.974289)scale(0.15 -0.15)">
       <defs>
        <path d="M 2419 4116 
L 825 1625 
L 2419 1625 
L 2419 4116 
z
M 2253 4666 
L 3047 4666 
L 3047 1625 
L 3713 1625 
L 3713 1100 
L 3047 1100 
L 3047 0 
L 2419 0 
L 2419 1100 
L 313 1100 
L 313 1709 
L 2253 4666 
z
" id="DejaVuSans-34" transform="scale(0.015625)"/>
       </defs>
       <use xlink:href="#DejaVuSans-34"/>
      </g>
     </g>
    </g>
    <g id="ytick_2">
     <g id="line2d_17">
      <path clip-path="url(#p0d7d4bfa86)" d="M 60.68 213.727886 
L 559.8 213.727886 
" style="fill:none;stroke:#b0b0b0;stroke-linecap:square;stroke-width:0.8;"/>
     </g>
     <g id="line2d_18">
      <g>
       <use style="stroke:#000000;stroke-width:0.8;" x="60.68" xlink:href="#m0f9cc0b6f5" y="213.727886"/>
      </g>
     </g>
     <g id="text_10">
      <!-- 5 -->
      <g transform="translate(44.13625 219.426714)scale(0.15 -0.15)">
       <defs>
        <path d="M 691 4666 
L 3169 4666 
L 3169 4134 
L 1269 4134 
L 1269 2991 
Q 1406 3038 1543 3061 
Q 1681 3084 1819 3084 
Q 2600 3084 3056 2656 
Q 3513 2228 3513 1497 
Q 3513 744 3044 326 
Q 2575 -91 1722 -91 
Q 1428 -91 1123 -41 
Q 819 9 494 109 
L 494 744 
Q 775 591 1075 516 
Q 1375 441 1709 441 
Q 2250 441 2565 725 
Q 2881 1009 2881 1497 
Q 2881 1984 2565 2268 
Q 2250 2553 1709 2553 
Q 1456 2553 1204 2497 
Q 953 2441 691 2322 
L 691 4666 
z
" id="DejaVuSans-35" transform="scale(0.015625)"/>
       </defs>
       <use xlink:href="#DejaVuSans-35"/>
      </g>
     </g>
    </g>
    <g id="ytick_3">
     <g id="line2d_19">
      <path clip-path="url(#p0d7d4bfa86)" d="M 60.68 178.180311 
L 559.8 178.180311 
" style="fill:none;stroke:#b0b0b0;stroke-linecap:square;stroke-width:0.8;"/>
     </g>
     <g id="line2d_20">
      <g>
       <use style="stroke:#000000;stroke-width:0.8;" x="60.68" xlink:href="#m0f9cc0b6f5" y="178.180311"/>
      </g>
     </g>
     <g id="text_11">
      <!-- 6 -->
      <g transform="translate(44.13625 183.87914)scale(0.15 -0.15)">
       <defs>
        <path d="M 2113 2584 
Q 1688 2584 1439 2293 
Q 1191 2003 1191 1497 
Q 1191 994 1439 701 
Q 1688 409 2113 409 
Q 2538 409 2786 701 
Q 3034 994 3034 1497 
Q 3034 2003 2786 2293 
Q 2538 2584 2113 2584 
z
M 3366 4563 
L 3366 3988 
Q 3128 4100 2886 4159 
Q 2644 4219 2406 4219 
Q 1781 4219 1451 3797 
Q 1122 3375 1075 2522 
Q 1259 2794 1537 2939 
Q 1816 3084 2150 3084 
Q 2853 3084 3261 2657 
Q 3669 2231 3669 1497 
Q 3669 778 3244 343 
Q 2819 -91 2113 -91 
Q 1303 -91 875 529 
Q 447 1150 447 2328 
Q 447 3434 972 4092 
Q 1497 4750 2381 4750 
Q 2619 4750 2861 4703 
Q 3103 4656 3366 4563 
z
" id="DejaVuSans-36" transform="scale(0.015625)"/>
       </defs>
       <use xlink:href="#DejaVuSans-36"/>
      </g>
     </g>
    </g>
    <g id="ytick_4">
     <g id="line2d_21">
      <path clip-path="url(#p0d7d4bfa86)" d="M 60.68 142.632737 
L 559.8 142.632737 
" style="fill:none;stroke:#b0b0b0;stroke-linecap:square;stroke-width:0.8;"/>
     </g>
     <g id="line2d_22">
      <g>
       <use style="stroke:#000000;stroke-width:0.8;" x="60.68" xlink:href="#m0f9cc0b6f5" y="142.632737"/>
      </g>
     </g>
     <g id="text_12">
      <!-- 7 -->
      <g transform="translate(44.13625 148.331565)scale(0.15 -0.15)">
       <defs>
        <path d="M 525 4666 
L 3525 4666 
L 3525 4397 
L 1831 0 
L 1172 0 
L 2766 4134 
L 525 4134 
L 525 4666 
z
" id="DejaVuSans-37" transform="scale(0.015625)"/>
       </defs>
       <use xlink:href="#DejaVuSans-37"/>
      </g>
     </g>
    </g>
    <g id="ytick_5">
     <g id="line2d_23">
      <path clip-path="url(#p0d7d4bfa86)" d="M 60.68 107.085162 
L 559.8 107.085162 
" style="fill:none;stroke:#b0b0b0;stroke-linecap:square;stroke-width:0.8;"/>
     </g>
     <g id="line2d_24">
      <g>
       <use style="stroke:#000000;stroke-width:0.8;" x="60.68" xlink:href="#m0f9cc0b6f5" y="107.085162"/>
      </g>
     </g>
     <g id="text_13">
      <!-- 8 -->
      <g transform="translate(44.13625 112.783991)scale(0.15 -0.15)">
       <defs>
        <path d="M 2034 2216 
Q 1584 2216 1326 1975 
Q 1069 1734 1069 1313 
Q 1069 891 1326 650 
Q 1584 409 2034 409 
Q 2484 409 2743 651 
Q 3003 894 3003 1313 
Q 3003 1734 2745 1975 
Q 2488 2216 2034 2216 
z
M 1403 2484 
Q 997 2584 770 2862 
Q 544 3141 544 3541 
Q 544 4100 942 4425 
Q 1341 4750 2034 4750 
Q 2731 4750 3128 4425 
Q 3525 4100 3525 3541 
Q 3525 3141 3298 2862 
Q 3072 2584 2669 2484 
Q 3125 2378 3379 2068 
Q 3634 1759 3634 1313 
Q 3634 634 3220 271 
Q 2806 -91 2034 -91 
Q 1263 -91 848 271 
Q 434 634 434 1313 
Q 434 1759 690 2068 
Q 947 2378 1403 2484 
z
M 1172 3481 
Q 1172 3119 1398 2916 
Q 1625 2713 2034 2713 
Q 2441 2713 2670 2916 
Q 2900 3119 2900 3481 
Q 2900 3844 2670 4047 
Q 2441 4250 2034 4250 
Q 1625 4250 1398 4047 
Q 1172 3844 1172 3481 
z
" id="DejaVuSans-38" transform="scale(0.015625)"/>
       </defs>
       <use xlink:href="#DejaVuSans-38"/>
      </g>
     </g>
    </g>
    <g id="ytick_6">
     <g id="line2d_25">
      <path clip-path="url(#p0d7d4bfa86)" d="M 60.68 71.537588 
L 559.8 71.537588 
" style="fill:none;stroke:#b0b0b0;stroke-linecap:square;stroke-width:0.8;"/>
     </g>
     <g id="line2d_26">
      <g>
       <use style="stroke:#000000;stroke-width:0.8;" x="60.68" xlink:href="#m0f9cc0b6f5" y="71.537588"/>
      </g>
     </g>
     <g id="text_14">
      <!-- 9 -->
      <g transform="translate(44.13625 77.236416)scale(0.15 -0.15)">
       <defs>
        <path d="M 703 97 
L 703 672 
Q 941 559 1184 500 
Q 1428 441 1663 441 
Q 2288 441 2617 861 
Q 2947 1281 2994 2138 
Q 2813 1869 2534 1725 
Q 2256 1581 1919 1581 
Q 1219 1581 811 2004 
Q 403 2428 403 3163 
Q 403 3881 828 4315 
Q 1253 4750 1959 4750 
Q 2769 4750 3195 4129 
Q 3622 3509 3622 2328 
Q 3622 1225 3098 567 
Q 2575 -91 1691 -91 
Q 1453 -91 1209 -44 
Q 966 3 703 97 
z
M 1959 2075 
Q 2384 2075 2632 2365 
Q 2881 2656 2881 3163 
Q 2881 3666 2632 3958 
Q 2384 4250 1959 4250 
Q 1534 4250 1286 3958 
Q 1038 3666 1038 3163 
Q 1038 2656 1286 2365 
Q 1534 2075 1959 2075 
z
" id="DejaVuSans-39" transform="scale(0.015625)"/>
       </defs>
       <use xlink:href="#DejaVuSans-39"/>
      </g>
     </g>
    </g>
    <g id="ytick_7">
     <g id="line2d_27">
      <path clip-path="url(#p0d7d4bfa86)" d="M 60.68 35.990013 
L 559.8 35.990013 
" style="fill:none;stroke:#b0b0b0;stroke-linecap:square;stroke-width:0.8;"/>
     </g>
     <g id="line2d_28">
      <g>
       <use style="stroke:#000000;stroke-width:0.8;" x="60.68" xlink:href="#m0f9cc0b6f5" y="35.990013"/>
      </g>
     </g>
     <g id="text_15">
      <!-- 10 -->
      <g transform="translate(34.5925 41.688841)scale(0.15 -0.15)">
       <use xlink:href="#DejaVuSans-31"/>
       <use x="63.623047" xlink:href="#DejaVuSans-30"/>
      </g>
     </g>
    </g>
    <g id="text_16">
     <!-- Entropy -->
     <g transform="translate(27.472969 171.374122)rotate(-90)scale(0.15 -0.15)">
      <defs>
       <path d="M 628 4666 
L 3578 4666 
L 3578 4134 
L 1259 4134 
L 1259 2753 
L 3481 2753 
L 3481 2222 
L 1259 2222 
L 1259 531 
L 3634 531 
L 3634 0 
L 628 0 
L 628 4666 
z
" id="DejaVuSans-45" transform="scale(0.015625)"/>
       <path d="M 3513 2113 
L 3513 0 
L 2938 0 
L 2938 2094 
Q 2938 2591 2744 2837 
Q 2550 3084 2163 3084 
Q 1697 3084 1428 2787 
Q 1159 2491 1159 1978 
L 1159 0 
L 581 0 
L 581 3500 
L 1159 3500 
L 1159 2956 
Q 1366 3272 1645 3428 
Q 1925 3584 2291 3584 
Q 2894 3584 3203 3211 
Q 3513 2838 3513 2113 
z
" id="DejaVuSans-6e" transform="scale(0.015625)"/>
       <path d="M 1159 525 
L 1159 -1331 
L 581 -1331 
L 581 3500 
L 1159 3500 
L 1159 2969 
Q 1341 3281 1617 3432 
Q 1894 3584 2278 3584 
Q 2916 3584 3314 3078 
Q 3713 2572 3713 1747 
Q 3713 922 3314 415 
Q 2916 -91 2278 -91 
Q 1894 -91 1617 61 
Q 1341 213 1159 525 
z
M 3116 1747 
Q 3116 2381 2855 2742 
Q 2594 3103 2138 3103 
Q 1681 3103 1420 2742 
Q 1159 2381 1159 1747 
Q 1159 1113 1420 752 
Q 1681 391 2138 391 
Q 2594 391 2855 752 
Q 3116 1113 3116 1747 
z
" id="DejaVuSans-70" transform="scale(0.015625)"/>
       <path d="M 2059 -325 
Q 1816 -950 1584 -1140 
Q 1353 -1331 966 -1331 
L 506 -1331 
L 506 -850 
L 844 -850 
Q 1081 -850 1212 -737 
Q 1344 -625 1503 -206 
L 1606 56 
L 191 3500 
L 800 3500 
L 1894 763 
L 2988 3500 
L 3597 3500 
L 2059 -325 
z
" id="DejaVuSans-79" transform="scale(0.015625)"/>
      </defs>
      <use xlink:href="#DejaVuSans-45"/>
      <use x="63.183594" xlink:href="#DejaVuSans-6e"/>
      <use x="126.5625" xlink:href="#DejaVuSans-74"/>
      <use x="165.771484" xlink:href="#DejaVuSans-72"/>
      <use x="204.634766" xlink:href="#DejaVuSans-6f"/>
      <use x="265.816406" xlink:href="#DejaVuSans-70"/>
      <use x="329.292969" xlink:href="#DejaVuSans-79"/>
     </g>
    </g>
   </g>
   <g id="LineCollection_1">
    <path clip-path="url(#p0d7d4bfa86)" d="M 102.273333 180.677768 
L 102.273333 176.43213 
" style="fill:none;stroke:#000000;stroke-width:3;"/>
    <path clip-path="url(#p0d7d4bfa86)" d="M 171.595556 187.328906 
L 171.595556 180.389848 
" style="fill:none;stroke:#000000;stroke-width:3;"/>
    <path clip-path="url(#p0d7d4bfa86)" d="M 240.917778 188.490943 
L 240.917778 178.751205 
" style="fill:none;stroke:#000000;stroke-width:3;"/>
    <path clip-path="url(#p0d7d4bfa86)" d="M 310.24 221.706043 
L 310.24 211.260639 
" style="fill:none;stroke:#000000;stroke-width:3;"/>
    <path clip-path="url(#p0d7d4bfa86)" d="M 379.562222 231.323113 
L 379.562222 198.440094 
" style="fill:none;stroke:#000000;stroke-width:3;"/>
    <path clip-path="url(#p0d7d4bfa86)" d="M 448.884444 227.433784 
L 448.884444 211.736847 
" style="fill:none;stroke:#000000;stroke-width:3;"/>
    <path clip-path="url(#p0d7d4bfa86)" d="M 518.206667 213.266835 
L 518.206667 194.836708 
" style="fill:none;stroke:#000000;stroke-width:3;"/>
   </g>
   <g id="LineCollection_2">
    <path clip-path="url(#p0d7d4bfa86)" d="M 102.273333 181.821653 
L 102.273333 175.830197 
" style="fill:none;stroke:#000000;"/>
    <path clip-path="url(#p0d7d4bfa86)" d="M 171.595556 190.193682 
L 171.595556 180.36425 
" style="fill:none;stroke:#000000;"/>
    <path clip-path="url(#p0d7d4bfa86)" d="M 240.917778 190.527334 
L 240.917778 175.597352 
" style="fill:none;stroke:#000000;"/>
    <path clip-path="url(#p0d7d4bfa86)" d="M 310.24 224.330738 
L 310.24 208.574182 
" style="fill:none;stroke:#000000;"/>
    <path clip-path="url(#p0d7d4bfa86)" d="M 379.562222 247.269289 
L 379.562222 204.75108 
" style="fill:none;stroke:#000000;"/>
    <path clip-path="url(#p0d7d4bfa86)" d="M 448.884444 234.432063 
L 448.884444 211.969551 
" style="fill:none;stroke:#000000;"/>
    <path clip-path="url(#p0d7d4bfa86)" d="M 518.206667 216.38069 
L 518.206667 190.585915 
" style="fill:none;stroke:#000000;"/>
   </g>
   <g id="LineCollection_3">
    <path clip-path="url(#p0d7d4bfa86)" d="M 102.273333 37.206299 
L 102.273333 37.206299 
" style="fill:none;stroke:#ff0000;"/>
    <path clip-path="url(#p0d7d4bfa86)" d="M 171.595556 37.206299 
L 171.595556 37.206299 
" style="fill:none;stroke:#ff0000;"/>
    <path clip-path="url(#p0d7d4bfa86)" d="M 240.917778 37.206299 
L 240.917778 37.206299 
" style="fill:none;stroke:#ff0000;"/>
    <path clip-path="url(#p0d7d4bfa86)" d="M 310.24 37.206299 
L 310.24 37.206299 
" style="fill:none;stroke:#ff0000;"/>
    <path clip-path="url(#p0d7d4bfa86)" d="M 379.562222 37.206299 
L 379.562222 37.206299 
" style="fill:none;stroke:#ff0000;"/>
    <path clip-path="url(#p0d7d4bfa86)" d="M 448.884444 37.206299 
L 448.884444 37.206299 
" style="fill:none;stroke:#ff0000;"/>
    <path clip-path="url(#p0d7d4bfa86)" d="M 518.206667 37.206299 
L 518.206667 37.206299 
" style="fill:none;stroke:#ff0000;"/>
   </g>
   <g id="line2d_29">
    <defs>
     <path d="M 0 3 
C 0.795609 3 1.55874 2.683901 2.12132 2.12132 
C 2.683901 1.55874 3 0.795609 3 0 
C 3 -0.795609 2.683901 -1.55874 2.12132 -2.12132 
C 1.55874 -2.683901 0.795609 -3 0 -3 
C -0.795609 -3 -1.55874 -2.683901 -2.12132 -2.12132 
C -2.683901 -1.55874 -3 -0.795609 -3 0 
C -3 0.795609 -2.683901 1.55874 -2.12132 2.12132 
C -1.55874 2.683901 -0.795609 3 0 3 
z
" id="m0766e12f26" style="stroke:#000000;"/>
    </defs>
    <g clip-path="url(#p0d7d4bfa86)">
     <use style="stroke:#000000;" x="102.273333" xlink:href="#m0766e12f26" y="178.554949"/>
     <use style="stroke:#000000;" x="171.595556" xlink:href="#m0766e12f26" y="183.859377"/>
     <use style="stroke:#000000;" x="240.917778" xlink:href="#m0766e12f26" y="183.621074"/>
     <use style="stroke:#000000;" x="310.24" xlink:href="#m0766e12f26" y="216.483341"/>
     <use style="stroke:#000000;" x="379.562222" xlink:href="#m0766e12f26" y="214.881604"/>
     <use style="stroke:#000000;" x="448.884444" xlink:href="#m0766e12f26" y="219.585315"/>
     <use style="stroke:#000000;" x="518.206667" xlink:href="#m0766e12f26" y="204.051771"/>
    </g>
   </g>
   <g id="line2d_30">
    <defs>
     <path d="M 0 1.5 
C 0.397805 1.5 0.77937 1.341951 1.06066 1.06066 
C 1.341951 0.77937 1.5 0.397805 1.5 0 
C 1.5 -0.397805 1.341951 -0.77937 1.06066 -1.06066 
C 0.77937 -1.341951 0.397805 -1.5 0 -1.5 
C -0.397805 -1.5 -0.77937 -1.341951 -1.06066 -1.06066 
C -1.341951 -0.77937 -1.5 -0.397805 -1.5 0 
C -1.5 0.397805 -1.341951 0.77937 -1.06066 1.06066 
C -0.77937 1.341951 -0.397805 1.5 0 1.5 
z
" id="m09f303c1de" style="stroke:#000000;"/>
    </defs>
    <g clip-path="url(#p0d7d4bfa86)">
     <use style="stroke:#000000;" x="102.273333" xlink:href="#m09f303c1de" y="178.554949"/>
     <use style="stroke:#000000;" x="171.595556" xlink:href="#m09f303c1de" y="183.859377"/>
     <use style="stroke:#000000;" x="240.917778" xlink:href="#m09f303c1de" y="183.621074"/>
     <use style="stroke:#000000;" x="310.24" xlink:href="#m09f303c1de" y="216.483341"/>
     <use style="stroke:#000000;" x="379.562222" xlink:href="#m09f303c1de" y="214.881604"/>
     <use style="stroke:#000000;" x="448.884444" xlink:href="#m09f303c1de" y="219.585315"/>
     <use style="stroke:#000000;" x="518.206667" xlink:href="#m09f303c1de" y="204.051771"/>
    </g>
   </g>
   <g id="line2d_31">
    <defs>
     <path d="M -0 4.242641 
L 4.242641 0 
L 0 -4.242641 
L -4.242641 -0 
z
" id="mf897e626bb" style="stroke:#ff0000;stroke-linejoin:miter;"/>
    </defs>
    <g clip-path="url(#p0d7d4bfa86)">
     <use style="fill:#ff0000;stroke:#ff0000;stroke-linejoin:miter;" x="102.273333" xlink:href="#mf897e626bb" y="37.206299"/>
     <use style="fill:#ff0000;stroke:#ff0000;stroke-linejoin:miter;" x="171.595556" xlink:href="#mf897e626bb" y="37.206299"/>
     <use style="fill:#ff0000;stroke:#ff0000;stroke-linejoin:miter;" x="240.917778" xlink:href="#mf897e626bb" y="37.206299"/>
     <use style="fill:#ff0000;stroke:#ff0000;stroke-linejoin:miter;" x="310.24" xlink:href="#mf897e626bb" y="37.206299"/>
     <use style="fill:#ff0000;stroke:#ff0000;stroke-linejoin:miter;" x="379.562222" xlink:href="#mf897e626bb" y="37.206299"/>
     <use style="fill:#ff0000;stroke:#ff0000;stroke-linejoin:miter;" x="448.884444" xlink:href="#mf897e626bb" y="37.206299"/>
     <use style="fill:#ff0000;stroke:#ff0000;stroke-linejoin:miter;" x="518.206667" xlink:href="#mf897e626bb" y="37.206299"/>
    </g>
   </g>
   <g id="patch_3">
    <path d="M 60.68 268.275588 
L 60.68 16.2 
" style="fill:none;stroke:#000000;stroke-linecap:square;stroke-linejoin:miter;stroke-width:0.8;"/>
   </g>
   <g id="patch_4">
    <path d="M 559.8 268.275588 
L 559.8 16.2 
" style="fill:none;stroke:#000000;stroke-linecap:square;stroke-linejoin:miter;stroke-width:0.8;"/>
   </g>
   <g id="patch_5">
    <path d="M 60.68 268.275588 
L 559.8 268.275588 
" style="fill:none;stroke:#000000;stroke-linecap:square;stroke-linejoin:miter;stroke-width:0.8;"/>
   </g>
   <g id="patch_6">
    <path d="M 60.68 16.2 
L 559.8 16.2 
" style="fill:none;stroke:#000000;stroke-linecap:square;stroke-linejoin:miter;stroke-width:0.8;"/>
   </g>
   <g id="axes_2">
    <g id="patch_7">
     <path d="M 75.6536 129.634015 
L 125.5656 129.634015 
L 125.5656 66.615118 
L 75.6536 66.615118 
z
" style="fill:#ffffff;"/>
    </g>
    <g id="patch_8">
     <path clip-path="url(#p0bd0191f40)" d="M 84.789391 129.634015 
L 84.996621 129.634015 
L 84.996621 124.632515 
L 84.789391 124.632515 
z
" style="fill:#1f77b4;"/>
    </g>
    <g id="patch_9">
     <path clip-path="url(#p0bd0191f40)" d="M 84.996621 129.634015 
L 85.203851 129.634015 
L 85.203851 129.634015 
L 84.996621 129.634015 
z
" style="fill:#1f77b4;"/>
    </g>
    <g id="patch_10">
     <path clip-path="url(#p0bd0191f40)" d="M 85.203851 129.634015 
L 85.41108 129.634015 
L 85.41108 119.631015 
L 85.203851 119.631015 
z
" style="fill:#1f77b4;"/>
    </g>
    <g id="patch_11">
     <path clip-path="url(#p0bd0191f40)" d="M 85.41108 129.634015 
L 85.61831 129.634015 
L 85.61831 119.631015 
L 85.41108 119.631015 
z
" style="fill:#1f77b4;"/>
    </g>
    <g id="patch_12">
     <path clip-path="url(#p0bd0191f40)" d="M 85.61831 129.634015 
L 85.825539 129.634015 
L 85.825539 119.631015 
L 85.61831 119.631015 
z
" style="fill:#1f77b4;"/>
    </g>
    <g id="patch_13">
     <path clip-path="url(#p0bd0191f40)" d="M 85.825539 129.634015 
L 86.032769 129.634015 
L 86.032769 94.623516 
L 85.825539 94.623516 
z
" style="fill:#1f77b4;"/>
    </g>
    <g id="patch_14">
     <path clip-path="url(#p0bd0191f40)" d="M 86.032769 129.634015 
L 86.239998 129.634015 
L 86.239998 114.629515 
L 86.032769 114.629515 
z
" style="fill:#1f77b4;"/>
    </g>
    <g id="patch_15">
     <path clip-path="url(#p0bd0191f40)" d="M 86.239998 129.634015 
L 86.447228 129.634015 
L 86.447228 119.631015 
L 86.239998 119.631015 
z
" style="fill:#1f77b4;"/>
    </g>
    <g id="patch_16">
     <path clip-path="url(#p0bd0191f40)" d="M 86.447228 129.634015 
L 86.654458 129.634015 
L 86.654458 94.623516 
L 86.447228 94.623516 
z
" style="fill:#1f77b4;"/>
    </g>
    <g id="patch_17">
     <path clip-path="url(#p0bd0191f40)" d="M 86.654458 129.634015 
L 86.861687 129.634015 
L 86.861687 99.625016 
L 86.654458 99.625016 
z
" style="fill:#1f77b4;"/>
    </g>
    <g id="patch_18">
     <path clip-path="url(#p0bd0191f40)" d="M 86.861687 129.634015 
L 87.068917 129.634015 
L 87.068917 94.623516 
L 86.861687 94.623516 
z
" style="fill:#1f77b4;"/>
    </g>
    <g id="patch_19">
     <path clip-path="url(#p0bd0191f40)" d="M 87.068917 129.634015 
L 87.276146 129.634015 
L 87.276146 99.625016 
L 87.068917 99.625016 
z
" style="fill:#1f77b4;"/>
    </g>
    <g id="patch_20">
     <path clip-path="url(#p0bd0191f40)" d="M 87.276146 129.634015 
L 87.483376 129.634015 
L 87.483376 104.626516 
L 87.276146 104.626516 
z
" style="fill:#1f77b4;"/>
    </g>
    <g id="patch_21">
     <path clip-path="url(#p0bd0191f40)" d="M 87.483376 129.634015 
L 87.690605 129.634015 
L 87.690605 114.629515 
L 87.483376 114.629515 
z
" style="fill:#1f77b4;"/>
    </g>
    <g id="patch_22">
     <path clip-path="url(#p0bd0191f40)" d="M 87.690605 129.634015 
L 87.897835 129.634015 
L 87.897835 119.631015 
L 87.690605 119.631015 
z
" style="fill:#1f77b4;"/>
    </g>
    <g id="patch_23">
     <path clip-path="url(#p0bd0191f40)" d="M 87.897835 129.634015 
L 88.105065 129.634015 
L 88.105065 99.625016 
L 87.897835 99.625016 
z
" style="fill:#1f77b4;"/>
    </g>
    <g id="patch_24">
     <path clip-path="url(#p0bd0191f40)" d="M 88.105065 129.634015 
L 88.312294 129.634015 
L 88.312294 69.616017 
L 88.105065 69.616017 
z
" style="fill:#1f77b4;"/>
    </g>
    <g id="patch_25">
     <path clip-path="url(#p0bd0191f40)" d="M 88.312294 129.634015 
L 88.519524 129.634015 
L 88.519524 104.626516 
L 88.312294 104.626516 
z
" style="fill:#1f77b4;"/>
    </g>
    <g id="patch_26">
     <path clip-path="url(#p0bd0191f40)" d="M 88.519524 129.634015 
L 88.726753 129.634015 
L 88.726753 104.626516 
L 88.519524 104.626516 
z
" style="fill:#1f77b4;"/>
    </g>
    <g id="patch_27">
     <path clip-path="url(#p0bd0191f40)" d="M 88.726753 129.634015 
L 88.933983 129.634015 
L 88.933983 109.628015 
L 88.726753 109.628015 
z
" style="fill:#1f77b4;"/>
    </g>
    <g id="patch_28">
     <path clip-path="url(#p0bd0191f40)" d="M 88.933983 129.634015 
L 89.141212 129.634015 
L 89.141212 104.626516 
L 88.933983 104.626516 
z
" style="fill:#1f77b4;"/>
    </g>
    <g id="patch_29">
     <path clip-path="url(#p0bd0191f40)" d="M 89.141212 129.634015 
L 89.348442 129.634015 
L 89.348442 119.631015 
L 89.141212 119.631015 
z
" style="fill:#1f77b4;"/>
    </g>
    <g id="patch_30">
     <path clip-path="url(#p0bd0191f40)" d="M 89.348442 129.634015 
L 89.555671 129.634015 
L 89.555671 119.631015 
L 89.348442 119.631015 
z
" style="fill:#1f77b4;"/>
    </g>
    <g id="patch_31">
     <path clip-path="url(#p0bd0191f40)" d="M 89.555671 129.634015 
L 89.762901 129.634015 
L 89.762901 119.631015 
L 89.555671 119.631015 
z
" style="fill:#1f77b4;"/>
    </g>
    <g id="patch_32">
     <path clip-path="url(#p0bd0191f40)" d="M 89.762901 129.634015 
L 89.970131 129.634015 
L 89.970131 119.631015 
L 89.762901 119.631015 
z
" style="fill:#1f77b4;"/>
    </g>
    <g id="patch_33">
     <path d="M 75.6536 129.634015 
L 75.6536 66.615118 
" style="fill:none;stroke:#000000;stroke-linecap:square;stroke-linejoin:miter;stroke-width:0.8;"/>
    </g>
    <g id="patch_34">
     <path d="M 125.5656 129.634015 
L 125.5656 66.615118 
" style="fill:none;stroke:#000000;stroke-linecap:square;stroke-linejoin:miter;stroke-width:0.8;"/>
    </g>
    <g id="patch_35">
     <path d="M 75.6536 129.634015 
L 125.5656 129.634015 
" style="fill:none;stroke:#000000;stroke-linecap:square;stroke-linejoin:miter;stroke-width:0.8;"/>
    </g>
    <g id="patch_36">
     <path d="M 75.6536 66.615118 
L 125.5656 66.615118 
" style="fill:none;stroke:#000000;stroke-linecap:square;stroke-linejoin:miter;stroke-width:0.8;"/>
    </g>
   </g>
   <g id="axes_3">
    <g id="patch_37">
     <path d="M 145.28084 129.634015 
L 195.19284 129.634015 
L 195.19284 66.615118 
L 145.28084 66.615118 
z
" style="fill:#ffffff;"/>
    </g>
    <g id="patch_38">
     <path clip-path="url(#p479e76b0b0)" d="M 154.100733 129.634015 
L 154.290272 129.634015 
L 154.290272 123.632215 
L 154.100733 123.632215 
z
" style="fill:#1f77b4;"/>
    </g>
    <g id="patch_39">
     <path clip-path="url(#p479e76b0b0)" d="M 154.290272 129.634015 
L 154.479811 129.634015 
L 154.479811 105.626816 
L 154.290272 105.626816 
z
" style="fill:#1f77b4;"/>
    </g>
    <g id="patch_40">
     <path clip-path="url(#p479e76b0b0)" d="M 154.479811 129.634015 
L 154.66935 129.634015 
L 154.66935 123.632215 
L 154.479811 123.632215 
z
" style="fill:#1f77b4;"/>
    </g>
    <g id="patch_41">
     <path clip-path="url(#p479e76b0b0)" d="M 154.66935 129.634015 
L 154.85889 129.634015 
L 154.85889 123.632215 
L 154.66935 123.632215 
z
" style="fill:#1f77b4;"/>
    </g>
    <g id="patch_42">
     <path clip-path="url(#p479e76b0b0)" d="M 154.85889 129.634015 
L 155.048429 129.634015 
L 155.048429 123.632215 
L 154.85889 123.632215 
z
" style="fill:#1f77b4;"/>
    </g>
    <g id="patch_43">
     <path clip-path="url(#p479e76b0b0)" d="M 155.048429 129.634015 
L 155.237968 129.634015 
L 155.237968 117.630415 
L 155.048429 117.630415 
z
" style="fill:#1f77b4;"/>
    </g>
    <g id="patch_44">
     <path clip-path="url(#p479e76b0b0)" d="M 155.237968 129.634015 
L 155.427507 129.634015 
L 155.427507 81.619617 
L 155.237968 81.619617 
z
" style="fill:#1f77b4;"/>
    </g>
    <g id="patch_45">
     <path clip-path="url(#p479e76b0b0)" d="M 155.427507 129.634015 
L 155.617047 129.634015 
L 155.617047 93.623216 
L 155.427507 93.623216 
z
" style="fill:#1f77b4;"/>
    </g>
    <g id="patch_46">
     <path clip-path="url(#p479e76b0b0)" d="M 155.617047 129.634015 
L 155.806586 129.634015 
L 155.806586 87.621417 
L 155.617047 87.621417 
z
" style="fill:#1f77b4;"/>
    </g>
    <g id="patch_47">
     <path clip-path="url(#p479e76b0b0)" d="M 155.806586 129.634015 
L 155.996125 129.634015 
L 155.996125 93.623216 
L 155.806586 93.623216 
z
" style="fill:#1f77b4;"/>
    </g>
    <g id="patch_48">
     <path clip-path="url(#p479e76b0b0)" d="M 155.996125 129.634015 
L 156.185664 129.634015 
L 156.185664 99.625016 
L 155.996125 99.625016 
z
" style="fill:#1f77b4;"/>
    </g>
    <g id="patch_49">
     <path clip-path="url(#p479e76b0b0)" d="M 156.185664 129.634015 
L 156.375204 129.634015 
L 156.375204 75.617817 
L 156.185664 75.617817 
z
" style="fill:#1f77b4;"/>
    </g>
    <g id="patch_50">
     <path clip-path="url(#p479e76b0b0)" d="M 156.375204 129.634015 
L 156.564743 129.634015 
L 156.564743 69.616017 
L 156.375204 69.616017 
z
" style="fill:#1f77b4;"/>
    </g>
    <g id="patch_51">
     <path clip-path="url(#p479e76b0b0)" d="M 156.564743 129.634015 
L 156.754282 129.634015 
L 156.754282 105.626816 
L 156.564743 105.626816 
z
" style="fill:#1f77b4;"/>
    </g>
    <g id="patch_52">
     <path clip-path="url(#p479e76b0b0)" d="M 156.754282 129.634015 
L 156.943821 129.634015 
L 156.943821 81.619617 
L 156.754282 81.619617 
z
" style="fill:#1f77b4;"/>
    </g>
    <g id="patch_53">
     <path clip-path="url(#p479e76b0b0)" d="M 156.943821 129.634015 
L 157.133361 129.634015 
L 157.133361 99.625016 
L 156.943821 99.625016 
z
" style="fill:#1f77b4;"/>
    </g>
    <g id="patch_54">
     <path clip-path="url(#p479e76b0b0)" d="M 157.133361 129.634015 
L 157.3229 129.634015 
L 157.3229 93.623216 
L 157.133361 93.623216 
z
" style="fill:#1f77b4;"/>
    </g>
    <g id="patch_55">
     <path clip-path="url(#p479e76b0b0)" d="M 157.3229 129.634015 
L 157.512439 129.634015 
L 157.512439 99.625016 
L 157.3229 99.625016 
z
" style="fill:#1f77b4;"/>
    </g>
    <g id="patch_56">
     <path clip-path="url(#p479e76b0b0)" d="M 157.512439 129.634015 
L 157.701978 129.634015 
L 157.701978 117.630415 
L 157.512439 117.630415 
z
" style="fill:#1f77b4;"/>
    </g>
    <g id="patch_57">
     <path clip-path="url(#p479e76b0b0)" d="M 157.701978 129.634015 
L 157.891517 129.634015 
L 157.891517 117.630415 
L 157.701978 117.630415 
z
" style="fill:#1f77b4;"/>
    </g>
    <g id="patch_58">
     <path clip-path="url(#p479e76b0b0)" d="M 157.891517 129.634015 
L 158.081057 129.634015 
L 158.081057 105.626816 
L 157.891517 105.626816 
z
" style="fill:#1f77b4;"/>
    </g>
    <g id="patch_59">
     <path clip-path="url(#p479e76b0b0)" d="M 158.081057 129.634015 
L 158.270596 129.634015 
L 158.270596 123.632215 
L 158.081057 123.632215 
z
" style="fill:#1f77b4;"/>
    </g>
    <g id="patch_60">
     <path clip-path="url(#p479e76b0b0)" d="M 158.270596 129.634015 
L 158.460135 129.634015 
L 158.460135 129.634015 
L 158.270596 129.634015 
z
" style="fill:#1f77b4;"/>
    </g>
    <g id="patch_61">
     <path clip-path="url(#p479e76b0b0)" d="M 158.460135 129.634015 
L 158.649674 129.634015 
L 158.649674 123.632215 
L 158.460135 123.632215 
z
" style="fill:#1f77b4;"/>
    </g>
    <g id="patch_62">
     <path clip-path="url(#p479e76b0b0)" d="M 158.649674 129.634015 
L 158.839214 129.634015 
L 158.839214 123.632215 
L 158.649674 123.632215 
z
" style="fill:#1f77b4;"/>
    </g>
    <g id="patch_63">
     <path d="M 145.28084 129.634015 
L 145.28084 66.615118 
" style="fill:none;stroke:#000000;stroke-linecap:square;stroke-linejoin:miter;stroke-width:0.8;"/>
    </g>
    <g id="patch_64">
     <path d="M 195.19284 129.634015 
L 195.19284 66.615118 
" style="fill:none;stroke:#000000;stroke-linecap:square;stroke-linejoin:miter;stroke-width:0.8;"/>
    </g>
    <g id="patch_65">
     <path d="M 145.28084 129.634015 
L 195.19284 129.634015 
" style="fill:none;stroke:#000000;stroke-linecap:square;stroke-linejoin:miter;stroke-width:0.8;"/>
    </g>
    <g id="patch_66">
     <path d="M 145.28084 66.615118 
L 195.19284 66.615118 
" style="fill:none;stroke:#000000;stroke-linecap:square;stroke-linejoin:miter;stroke-width:0.8;"/>
    </g>
   </g>
   <g id="axes_4">
    <g id="patch_67">
     <path d="M 214.90808 129.634015 
L 264.82008 129.634015 
L 264.82008 66.615118 
L 214.90808 66.615118 
z
" style="fill:#ffffff;"/>
    </g>
    <g id="patch_68">
     <path clip-path="url(#p1d9927f5f6)" d="M 223.601613 129.634015 
L 223.830703 129.634015 
L 223.830703 124.177833 
L 223.601613 124.177833 
z
" style="fill:#1f77b4;"/>
    </g>
    <g id="patch_69">
     <path clip-path="url(#p1d9927f5f6)" d="M 223.830703 129.634015 
L 224.059793 129.634015 
L 224.059793 113.26547 
L 223.830703 113.26547 
z
" style="fill:#1f77b4;"/>
    </g>
    <g id="patch_70">
     <path clip-path="url(#p1d9927f5f6)" d="M 224.059793 129.634015 
L 224.288882 129.634015 
L 224.288882 124.177833 
L 224.059793 124.177833 
z
" style="fill:#1f77b4;"/>
    </g>
    <g id="patch_71">
     <path clip-path="url(#p1d9927f5f6)" d="M 224.288882 129.634015 
L 224.517972 129.634015 
L 224.517972 113.26547 
L 224.288882 113.26547 
z
" style="fill:#1f77b4;"/>
    </g>
    <g id="patch_72">
     <path clip-path="url(#p1d9927f5f6)" d="M 224.517972 129.634015 
L 224.747062 129.634015 
L 224.747062 102.353107 
L 224.517972 102.353107 
z
" style="fill:#1f77b4;"/>
    </g>
    <g id="patch_73">
     <path clip-path="url(#p1d9927f5f6)" d="M 224.747062 129.634015 
L 224.976152 129.634015 
L 224.976152 102.353107 
L 224.747062 102.353107 
z
" style="fill:#1f77b4;"/>
    </g>
    <g id="patch_74">
     <path clip-path="url(#p1d9927f5f6)" d="M 224.976152 129.634015 
L 225.205241 129.634015 
L 225.205241 107.809288 
L 224.976152 107.809288 
z
" style="fill:#1f77b4;"/>
    </g>
    <g id="patch_75">
     <path clip-path="url(#p1d9927f5f6)" d="M 225.205241 129.634015 
L 225.434331 129.634015 
L 225.434331 69.616017 
L 225.205241 69.616017 
z
" style="fill:#1f77b4;"/>
    </g>
    <g id="patch_76">
     <path clip-path="url(#p1d9927f5f6)" d="M 225.434331 129.634015 
L 225.663421 129.634015 
L 225.663421 96.896925 
L 225.434331 96.896925 
z
" style="fill:#1f77b4;"/>
    </g>
    <g id="patch_77">
     <path clip-path="url(#p1d9927f5f6)" d="M 225.663421 129.634015 
L 225.892511 129.634015 
L 225.892511 96.896925 
L 225.663421 96.896925 
z
" style="fill:#1f77b4;"/>
    </g>
    <g id="patch_78">
     <path clip-path="url(#p1d9927f5f6)" d="M 225.892511 129.634015 
L 226.121601 129.634015 
L 226.121601 69.616017 
L 225.892511 69.616017 
z
" style="fill:#1f77b4;"/>
    </g>
    <g id="patch_79">
     <path clip-path="url(#p1d9927f5f6)" d="M 226.121601 129.634015 
L 226.35069 129.634015 
L 226.35069 80.528381 
L 226.121601 80.528381 
z
" style="fill:#1f77b4;"/>
    </g>
    <g id="patch_80">
     <path clip-path="url(#p1d9927f5f6)" d="M 226.35069 129.634015 
L 226.57978 129.634015 
L 226.57978 91.440744 
L 226.35069 91.440744 
z
" style="fill:#1f77b4;"/>
    </g>
    <g id="patch_81">
     <path clip-path="url(#p1d9927f5f6)" d="M 226.57978 129.634015 
L 226.80887 129.634015 
L 226.80887 102.353107 
L 226.57978 102.353107 
z
" style="fill:#1f77b4;"/>
    </g>
    <g id="patch_82">
     <path clip-path="url(#p1d9927f5f6)" d="M 226.80887 129.634015 
L 227.03796 129.634015 
L 227.03796 113.26547 
L 226.80887 113.26547 
z
" style="fill:#1f77b4;"/>
    </g>
    <g id="patch_83">
     <path clip-path="url(#p1d9927f5f6)" d="M 227.03796 129.634015 
L 227.267049 129.634015 
L 227.267049 85.984562 
L 227.03796 85.984562 
z
" style="fill:#1f77b4;"/>
    </g>
    <g id="patch_84">
     <path clip-path="url(#p1d9927f5f6)" d="M 227.267049 129.634015 
L 227.496139 129.634015 
L 227.496139 113.26547 
L 227.267049 113.26547 
z
" style="fill:#1f77b4;"/>
    </g>
    <g id="patch_85">
     <path clip-path="url(#p1d9927f5f6)" d="M 227.496139 129.634015 
L 227.725229 129.634015 
L 227.725229 96.896925 
L 227.496139 96.896925 
z
" style="fill:#1f77b4;"/>
    </g>
    <g id="patch_86">
     <path clip-path="url(#p1d9927f5f6)" d="M 227.725229 129.634015 
L 227.954319 129.634015 
L 227.954319 124.177833 
L 227.725229 124.177833 
z
" style="fill:#1f77b4;"/>
    </g>
    <g id="patch_87">
     <path clip-path="url(#p1d9927f5f6)" d="M 227.954319 129.634015 
L 228.183408 129.634015 
L 228.183408 129.634015 
L 227.954319 129.634015 
z
" style="fill:#1f77b4;"/>
    </g>
    <g id="patch_88">
     <path clip-path="url(#p1d9927f5f6)" d="M 228.183408 129.634015 
L 228.412498 129.634015 
L 228.412498 124.177833 
L 228.183408 124.177833 
z
" style="fill:#1f77b4;"/>
    </g>
    <g id="patch_89">
     <path clip-path="url(#p1d9927f5f6)" d="M 228.412498 129.634015 
L 228.641588 129.634015 
L 228.641588 129.634015 
L 228.412498 129.634015 
z
" style="fill:#1f77b4;"/>
    </g>
    <g id="patch_90">
     <path clip-path="url(#p1d9927f5f6)" d="M 228.641588 129.634015 
L 228.870678 129.634015 
L 228.870678 129.634015 
L 228.641588 129.634015 
z
" style="fill:#1f77b4;"/>
    </g>
    <g id="patch_91">
     <path clip-path="url(#p1d9927f5f6)" d="M 228.870678 129.634015 
L 229.099767 129.634015 
L 229.099767 129.634015 
L 228.870678 129.634015 
z
" style="fill:#1f77b4;"/>
    </g>
    <g id="patch_92">
     <path clip-path="url(#p1d9927f5f6)" d="M 229.099767 129.634015 
L 229.328857 129.634015 
L 229.328857 124.177833 
L 229.099767 124.177833 
z
" style="fill:#1f77b4;"/>
    </g>
    <g id="patch_93">
     <path d="M 214.90808 129.634015 
L 214.90808 66.615118 
" style="fill:none;stroke:#000000;stroke-linecap:square;stroke-linejoin:miter;stroke-width:0.8;"/>
    </g>
    <g id="patch_94">
     <path d="M 264.82008 129.634015 
L 264.82008 66.615118 
" style="fill:none;stroke:#000000;stroke-linecap:square;stroke-linejoin:miter;stroke-width:0.8;"/>
    </g>
    <g id="patch_95">
     <path d="M 214.90808 129.634015 
L 264.82008 129.634015 
" style="fill:none;stroke:#000000;stroke-linecap:square;stroke-linejoin:miter;stroke-width:0.8;"/>
    </g>
    <g id="patch_96">
     <path d="M 214.90808 66.615118 
L 264.82008 66.615118 
" style="fill:none;stroke:#000000;stroke-linecap:square;stroke-linejoin:miter;stroke-width:0.8;"/>
    </g>
   </g>
   <g id="axes_5">
    <g id="patch_97">
     <path d="M 284.53532 129.634015 
L 334.44732 129.634015 
L 334.44732 66.615118 
L 284.53532 66.615118 
z
" style="fill:#ffffff;"/>
    </g>
    <g id="patch_98">
     <path clip-path="url(#p580b25dc97)" d="M 291.925291 129.634015 
L 292.009263 129.634015 
L 292.009263 107.127266 
L 291.925291 107.127266 
z
" style="fill:#1f77b4;"/>
    </g>
    <g id="patch_99">
     <path clip-path="url(#p580b25dc97)" d="M 292.009263 129.634015 
L 292.093235 129.634015 
L 292.093235 107.127266 
L 292.009263 107.127266 
z
" style="fill:#1f77b4;"/>
    </g>
    <g id="patch_100">
     <path clip-path="url(#p580b25dc97)" d="M 292.093235 129.634015 
L 292.177207 129.634015 
L 292.177207 122.131765 
L 292.093235 122.131765 
z
" style="fill:#1f77b4;"/>
    </g>
    <g id="patch_101">
     <path clip-path="url(#p580b25dc97)" d="M 292.177207 129.634015 
L 292.261179 129.634015 
L 292.261179 129.634015 
L 292.177207 129.634015 
z
" style="fill:#1f77b4;"/>
    </g>
    <g id="patch_102">
     <path clip-path="url(#p580b25dc97)" d="M 292.261179 129.634015 
L 292.34515 129.634015 
L 292.34515 114.629515 
L 292.261179 114.629515 
z
" style="fill:#1f77b4;"/>
    </g>
    <g id="patch_103">
     <path clip-path="url(#p580b25dc97)" d="M 292.34515 129.634015 
L 292.429122 129.634015 
L 292.429122 122.131765 
L 292.34515 122.131765 
z
" style="fill:#1f77b4;"/>
    </g>
    <g id="patch_104">
     <path clip-path="url(#p580b25dc97)" d="M 292.429122 129.634015 
L 292.513094 129.634015 
L 292.513094 107.127266 
L 292.429122 107.127266 
z
" style="fill:#1f77b4;"/>
    </g>
    <g id="patch_105">
     <path clip-path="url(#p580b25dc97)" d="M 292.513094 129.634015 
L 292.597066 129.634015 
L 292.597066 122.131765 
L 292.513094 122.131765 
z
" style="fill:#1f77b4;"/>
    </g>
    <g id="patch_106">
     <path clip-path="url(#p580b25dc97)" d="M 292.597066 129.634015 
L 292.681038 129.634015 
L 292.681038 84.620517 
L 292.597066 84.620517 
z
" style="fill:#1f77b4;"/>
    </g>
    <g id="patch_107">
     <path clip-path="url(#p580b25dc97)" d="M 292.681038 129.634015 
L 292.76501 129.634015 
L 292.76501 129.634015 
L 292.681038 129.634015 
z
" style="fill:#1f77b4;"/>
    </g>
    <g id="patch_108">
     <path clip-path="url(#p580b25dc97)" d="M 292.76501 129.634015 
L 292.848982 129.634015 
L 292.848982 84.620517 
L 292.76501 84.620517 
z
" style="fill:#1f77b4;"/>
    </g>
    <g id="patch_109">
     <path clip-path="url(#p580b25dc97)" d="M 292.848982 129.634015 
L 292.932954 129.634015 
L 292.932954 92.122766 
L 292.848982 92.122766 
z
" style="fill:#1f77b4;"/>
    </g>
    <g id="patch_110">
     <path clip-path="url(#p580b25dc97)" d="M 292.932954 129.634015 
L 293.016926 129.634015 
L 293.016926 84.620517 
L 292.932954 84.620517 
z
" style="fill:#1f77b4;"/>
    </g>
    <g id="patch_111">
     <path clip-path="url(#p580b25dc97)" d="M 293.016926 129.634015 
L 293.100898 129.634015 
L 293.100898 99.625016 
L 293.016926 99.625016 
z
" style="fill:#1f77b4;"/>
    </g>
    <g id="patch_112">
     <path clip-path="url(#p580b25dc97)" d="M 293.100898 129.634015 
L 293.18487 129.634015 
L 293.18487 99.625016 
L 293.100898 99.625016 
z
" style="fill:#1f77b4;"/>
    </g>
    <g id="patch_113">
     <path clip-path="url(#p580b25dc97)" d="M 293.18487 129.634015 
L 293.268842 129.634015 
L 293.268842 69.616017 
L 293.18487 69.616017 
z
" style="fill:#1f77b4;"/>
    </g>
    <g id="patch_114">
     <path clip-path="url(#p580b25dc97)" d="M 293.268842 129.634015 
L 293.352814 129.634015 
L 293.352814 92.122766 
L 293.268842 92.122766 
z
" style="fill:#1f77b4;"/>
    </g>
    <g id="patch_115">
     <path clip-path="url(#p580b25dc97)" d="M 293.352814 129.634015 
L 293.436786 129.634015 
L 293.436786 77.118267 
L 293.352814 77.118267 
z
" style="fill:#1f77b4;"/>
    </g>
    <g id="patch_116">
     <path clip-path="url(#p580b25dc97)" d="M 293.436786 129.634015 
L 293.520758 129.634015 
L 293.520758 69.616017 
L 293.436786 69.616017 
z
" style="fill:#1f77b4;"/>
    </g>
    <g id="patch_117">
     <path clip-path="url(#p580b25dc97)" d="M 293.520758 129.634015 
L 293.60473 129.634015 
L 293.60473 77.118267 
L 293.520758 77.118267 
z
" style="fill:#1f77b4;"/>
    </g>
    <g id="patch_118">
     <path clip-path="url(#p580b25dc97)" d="M 293.60473 129.634015 
L 293.688702 129.634015 
L 293.688702 84.620517 
L 293.60473 84.620517 
z
" style="fill:#1f77b4;"/>
    </g>
    <g id="patch_119">
     <path clip-path="url(#p580b25dc97)" d="M 293.688702 129.634015 
L 293.772674 129.634015 
L 293.772674 92.122766 
L 293.688702 92.122766 
z
" style="fill:#1f77b4;"/>
    </g>
    <g id="patch_120">
     <path clip-path="url(#p580b25dc97)" d="M 293.772674 129.634015 
L 293.856646 129.634015 
L 293.856646 92.122766 
L 293.772674 92.122766 
z
" style="fill:#1f77b4;"/>
    </g>
    <g id="patch_121">
     <path clip-path="url(#p580b25dc97)" d="M 293.856646 129.634015 
L 293.940617 129.634015 
L 293.940617 114.629515 
L 293.856646 114.629515 
z
" style="fill:#1f77b4;"/>
    </g>
    <g id="patch_122">
     <path clip-path="url(#p580b25dc97)" d="M 293.940617 129.634015 
L 294.024589 129.634015 
L 294.024589 114.629515 
L 293.940617 114.629515 
z
" style="fill:#1f77b4;"/>
    </g>
    <g id="patch_123">
     <path d="M 284.53532 129.634015 
L 284.53532 66.615118 
" style="fill:none;stroke:#000000;stroke-linecap:square;stroke-linejoin:miter;stroke-width:0.8;"/>
    </g>
    <g id="patch_124">
     <path d="M 334.44732 129.634015 
L 334.44732 66.615118 
" style="fill:none;stroke:#000000;stroke-linecap:square;stroke-linejoin:miter;stroke-width:0.8;"/>
    </g>
    <g id="patch_125">
     <path d="M 284.53532 129.634015 
L 334.44732 129.634015 
" style="fill:none;stroke:#000000;stroke-linecap:square;stroke-linejoin:miter;stroke-width:0.8;"/>
    </g>
    <g id="patch_126">
     <path d="M 284.53532 66.615118 
L 334.44732 66.615118 
" style="fill:none;stroke:#000000;stroke-linecap:square;stroke-linejoin:miter;stroke-width:0.8;"/>
    </g>
   </g>
   <g id="axes_6">
    <g id="patch_127">
     <path d="M 354.16256 129.634015 
L 404.07456 129.634015 
L 404.07456 66.615118 
L 354.16256 66.615118 
z
" style="fill:#ffffff;"/>
    </g>
    <g id="patch_128">
     <path clip-path="url(#pbd7739ee83)" d="M 360.622171 129.634015 
L 360.708459 129.634015 
L 360.708459 122.965348 
L 360.622171 122.965348 
z
" style="fill:#1f77b4;"/>
    </g>
    <g id="patch_129">
     <path clip-path="url(#pbd7739ee83)" d="M 360.708459 129.634015 
L 360.794747 129.634015 
L 360.794747 129.634015 
L 360.708459 129.634015 
z
" style="fill:#1f77b4;"/>
    </g>
    <g id="patch_130">
     <path clip-path="url(#pbd7739ee83)" d="M 360.794747 129.634015 
L 360.881035 129.634015 
L 360.881035 122.965348 
L 360.794747 122.965348 
z
" style="fill:#1f77b4;"/>
    </g>
    <g id="patch_131">
     <path clip-path="url(#pbd7739ee83)" d="M 360.881035 129.634015 
L 360.967323 129.634015 
L 360.967323 116.296682 
L 360.881035 116.296682 
z
" style="fill:#1f77b4;"/>
    </g>
    <g id="patch_132">
     <path clip-path="url(#pbd7739ee83)" d="M 360.967323 129.634015 
L 361.05361 129.634015 
L 361.05361 122.965348 
L 360.967323 122.965348 
z
" style="fill:#1f77b4;"/>
    </g>
    <g id="patch_133">
     <path clip-path="url(#pbd7739ee83)" d="M 361.05361 129.634015 
L 361.139898 129.634015 
L 361.139898 122.965348 
L 361.05361 122.965348 
z
" style="fill:#1f77b4;"/>
    </g>
    <g id="patch_134">
     <path clip-path="url(#pbd7739ee83)" d="M 361.139898 129.634015 
L 361.226186 129.634015 
L 361.226186 122.965348 
L 361.139898 122.965348 
z
" style="fill:#1f77b4;"/>
    </g>
    <g id="patch_135">
     <path clip-path="url(#pbd7739ee83)" d="M 361.226186 129.634015 
L 361.312474 129.634015 
L 361.312474 116.296682 
L 361.226186 116.296682 
z
" style="fill:#1f77b4;"/>
    </g>
    <g id="patch_136">
     <path clip-path="url(#pbd7739ee83)" d="M 361.312474 129.634015 
L 361.398762 129.634015 
L 361.398762 89.622016 
L 361.312474 89.622016 
z
" style="fill:#1f77b4;"/>
    </g>
    <g id="patch_137">
     <path clip-path="url(#pbd7739ee83)" d="M 361.398762 129.634015 
L 361.48505 129.634015 
L 361.48505 96.290683 
L 361.398762 96.290683 
z
" style="fill:#1f77b4;"/>
    </g>
    <g id="patch_138">
     <path clip-path="url(#pbd7739ee83)" d="M 361.48505 129.634015 
L 361.571338 129.634015 
L 361.571338 96.290683 
L 361.48505 96.290683 
z
" style="fill:#1f77b4;"/>
    </g>
    <g id="patch_139">
     <path clip-path="url(#pbd7739ee83)" d="M 361.571338 129.634015 
L 361.657625 129.634015 
L 361.657625 96.290683 
L 361.571338 96.290683 
z
" style="fill:#1f77b4;"/>
    </g>
    <g id="patch_140">
     <path clip-path="url(#pbd7739ee83)" d="M 361.657625 129.634015 
L 361.743913 129.634015 
L 361.743913 96.290683 
L 361.657625 96.290683 
z
" style="fill:#1f77b4;"/>
    </g>
    <g id="patch_141">
     <path clip-path="url(#pbd7739ee83)" d="M 361.743913 129.634015 
L 361.830201 129.634015 
L 361.830201 116.296682 
L 361.743913 116.296682 
z
" style="fill:#1f77b4;"/>
    </g>
    <g id="patch_142">
     <path clip-path="url(#pbd7739ee83)" d="M 361.830201 129.634015 
L 361.916489 129.634015 
L 361.916489 89.622016 
L 361.830201 89.622016 
z
" style="fill:#1f77b4;"/>
    </g>
    <g id="patch_143">
     <path clip-path="url(#pbd7739ee83)" d="M 361.916489 129.634015 
L 362.002777 129.634015 
L 362.002777 82.95335 
L 361.916489 82.95335 
z
" style="fill:#1f77b4;"/>
    </g>
    <g id="patch_144">
     <path clip-path="url(#pbd7739ee83)" d="M 362.002777 129.634015 
L 362.089065 129.634015 
L 362.089065 89.622016 
L 362.002777 89.622016 
z
" style="fill:#1f77b4;"/>
    </g>
    <g id="patch_145">
     <path clip-path="url(#pbd7739ee83)" d="M 362.089065 129.634015 
L 362.175353 129.634015 
L 362.175353 69.616017 
L 362.089065 69.616017 
z
" style="fill:#1f77b4;"/>
    </g>
    <g id="patch_146">
     <path clip-path="url(#pbd7739ee83)" d="M 362.175353 129.634015 
L 362.26164 129.634015 
L 362.26164 96.290683 
L 362.175353 96.290683 
z
" style="fill:#1f77b4;"/>
    </g>
    <g id="patch_147">
     <path clip-path="url(#pbd7739ee83)" d="M 362.26164 129.634015 
L 362.347928 129.634015 
L 362.347928 102.959349 
L 362.26164 102.959349 
z
" style="fill:#1f77b4;"/>
    </g>
    <g id="patch_148">
     <path clip-path="url(#pbd7739ee83)" d="M 362.347928 129.634015 
L 362.434216 129.634015 
L 362.434216 82.95335 
L 362.347928 82.95335 
z
" style="fill:#1f77b4;"/>
    </g>
    <g id="patch_149">
     <path clip-path="url(#pbd7739ee83)" d="M 362.434216 129.634015 
L 362.520504 129.634015 
L 362.520504 96.290683 
L 362.434216 96.290683 
z
" style="fill:#1f77b4;"/>
    </g>
    <g id="patch_150">
     <path clip-path="url(#pbd7739ee83)" d="M 362.520504 129.634015 
L 362.606792 129.634015 
L 362.606792 89.622016 
L 362.520504 89.622016 
z
" style="fill:#1f77b4;"/>
    </g>
    <g id="patch_151">
     <path clip-path="url(#pbd7739ee83)" d="M 362.606792 129.634015 
L 362.69308 129.634015 
L 362.69308 109.628015 
L 362.606792 109.628015 
z
" style="fill:#1f77b4;"/>
    </g>
    <g id="patch_152">
     <path clip-path="url(#pbd7739ee83)" d="M 362.69308 129.634015 
L 362.779368 129.634015 
L 362.779368 96.290683 
L 362.69308 96.290683 
z
" style="fill:#1f77b4;"/>
    </g>
    <g id="patch_153">
     <path d="M 354.16256 129.634015 
L 354.16256 66.615118 
" style="fill:none;stroke:#000000;stroke-linecap:square;stroke-linejoin:miter;stroke-width:0.8;"/>
    </g>
    <g id="patch_154">
     <path d="M 404.07456 129.634015 
L 404.07456 66.615118 
" style="fill:none;stroke:#000000;stroke-linecap:square;stroke-linejoin:miter;stroke-width:0.8;"/>
    </g>
    <g id="patch_155">
     <path d="M 354.16256 129.634015 
L 404.07456 129.634015 
" style="fill:none;stroke:#000000;stroke-linecap:square;stroke-linejoin:miter;stroke-width:0.8;"/>
    </g>
    <g id="patch_156">
     <path d="M 354.16256 66.615118 
L 404.07456 66.615118 
" style="fill:none;stroke:#000000;stroke-linecap:square;stroke-linejoin:miter;stroke-width:0.8;"/>
    </g>
   </g>
   <g id="axes_7">
    <g id="patch_157">
     <path d="M 423.7898 129.634015 
L 473.7018 129.634015 
L 473.7018 66.615118 
L 423.7898 66.615118 
z
" style="fill:#ffffff;"/>
    </g>
    <g id="patch_158">
     <path clip-path="url(#pcaeeafef25)" d="M 430.431091 129.634015 
L 430.535387 129.634015 
L 430.535387 123.632215 
L 430.431091 123.632215 
z
" style="fill:#1f77b4;"/>
    </g>
    <g id="patch_159">
     <path clip-path="url(#pcaeeafef25)" d="M 430.535387 129.634015 
L 430.639683 129.634015 
L 430.639683 129.634015 
L 430.535387 129.634015 
z
" style="fill:#1f77b4;"/>
    </g>
    <g id="patch_160">
     <path clip-path="url(#pcaeeafef25)" d="M 430.639683 129.634015 
L 430.743979 129.634015 
L 430.743979 129.634015 
L 430.639683 129.634015 
z
" style="fill:#1f77b4;"/>
    </g>
    <g id="patch_161">
     <path clip-path="url(#pcaeeafef25)" d="M 430.743979 129.634015 
L 430.848275 129.634015 
L 430.848275 129.634015 
L 430.743979 129.634015 
z
" style="fill:#1f77b4;"/>
    </g>
    <g id="patch_162">
     <path clip-path="url(#pcaeeafef25)" d="M 430.848275 129.634015 
L 430.952571 129.634015 
L 430.952571 117.630415 
L 430.848275 117.630415 
z
" style="fill:#1f77b4;"/>
    </g>
    <g id="patch_163">
     <path clip-path="url(#pcaeeafef25)" d="M 430.952571 129.634015 
L 431.056867 129.634015 
L 431.056867 117.630415 
L 430.952571 117.630415 
z
" style="fill:#1f77b4;"/>
    </g>
    <g id="patch_164">
     <path clip-path="url(#pcaeeafef25)" d="M 431.056867 129.634015 
L 431.161164 129.634015 
L 431.161164 117.630415 
L 431.056867 117.630415 
z
" style="fill:#1f77b4;"/>
    </g>
    <g id="patch_165">
     <path clip-path="url(#pcaeeafef25)" d="M 431.161164 129.634015 
L 431.26546 129.634015 
L 431.26546 117.630415 
L 431.161164 117.630415 
z
" style="fill:#1f77b4;"/>
    </g>
    <g id="patch_166">
     <path clip-path="url(#pcaeeafef25)" d="M 431.26546 129.634015 
L 431.369756 129.634015 
L 431.369756 129.634015 
L 431.26546 129.634015 
z
" style="fill:#1f77b4;"/>
    </g>
    <g id="patch_167">
     <path clip-path="url(#pcaeeafef25)" d="M 431.369756 129.634015 
L 431.474052 129.634015 
L 431.474052 111.628615 
L 431.369756 111.628615 
z
" style="fill:#1f77b4;"/>
    </g>
    <g id="patch_168">
     <path clip-path="url(#pcaeeafef25)" d="M 431.474052 129.634015 
L 431.578348 129.634015 
L 431.578348 111.628615 
L 431.474052 111.628615 
z
" style="fill:#1f77b4;"/>
    </g>
    <g id="patch_169">
     <path clip-path="url(#pcaeeafef25)" d="M 431.578348 129.634015 
L 431.682644 129.634015 
L 431.682644 111.628615 
L 431.578348 111.628615 
z
" style="fill:#1f77b4;"/>
    </g>
    <g id="patch_170">
     <path clip-path="url(#pcaeeafef25)" d="M 431.682644 129.634015 
L 431.78694 129.634015 
L 431.78694 99.625016 
L 431.682644 99.625016 
z
" style="fill:#1f77b4;"/>
    </g>
    <g id="patch_171">
     <path clip-path="url(#pcaeeafef25)" d="M 431.78694 129.634015 
L 431.891236 129.634015 
L 431.891236 87.621417 
L 431.78694 87.621417 
z
" style="fill:#1f77b4;"/>
    </g>
    <g id="patch_172">
     <path clip-path="url(#pcaeeafef25)" d="M 431.891236 129.634015 
L 431.995532 129.634015 
L 431.995532 111.628615 
L 431.891236 111.628615 
z
" style="fill:#1f77b4;"/>
    </g>
    <g id="patch_173">
     <path clip-path="url(#pcaeeafef25)" d="M 431.995532 129.634015 
L 432.099829 129.634015 
L 432.099829 81.619617 
L 431.995532 81.619617 
z
" style="fill:#1f77b4;"/>
    </g>
    <g id="patch_174">
     <path clip-path="url(#pcaeeafef25)" d="M 432.099829 129.634015 
L 432.204125 129.634015 
L 432.204125 69.616017 
L 432.099829 69.616017 
z
" style="fill:#1f77b4;"/>
    </g>
    <g id="patch_175">
     <path clip-path="url(#pcaeeafef25)" d="M 432.204125 129.634015 
L 432.308421 129.634015 
L 432.308421 105.626816 
L 432.204125 105.626816 
z
" style="fill:#1f77b4;"/>
    </g>
    <g id="patch_176">
     <path clip-path="url(#pcaeeafef25)" d="M 432.308421 129.634015 
L 432.412717 129.634015 
L 432.412717 69.616017 
L 432.308421 69.616017 
z
" style="fill:#1f77b4;"/>
    </g>
    <g id="patch_177">
     <path clip-path="url(#pcaeeafef25)" d="M 432.412717 129.634015 
L 432.517013 129.634015 
L 432.517013 105.626816 
L 432.412717 105.626816 
z
" style="fill:#1f77b4;"/>
    </g>
    <g id="patch_178">
     <path clip-path="url(#pcaeeafef25)" d="M 432.517013 129.634015 
L 432.621309 129.634015 
L 432.621309 87.621417 
L 432.517013 87.621417 
z
" style="fill:#1f77b4;"/>
    </g>
    <g id="patch_179">
     <path clip-path="url(#pcaeeafef25)" d="M 432.621309 129.634015 
L 432.725605 129.634015 
L 432.725605 75.617817 
L 432.621309 75.617817 
z
" style="fill:#1f77b4;"/>
    </g>
    <g id="patch_180">
     <path clip-path="url(#pcaeeafef25)" d="M 432.725605 129.634015 
L 432.829901 129.634015 
L 432.829901 69.616017 
L 432.725605 69.616017 
z
" style="fill:#1f77b4;"/>
    </g>
    <g id="patch_181">
     <path clip-path="url(#pcaeeafef25)" d="M 432.829901 129.634015 
L 432.934197 129.634015 
L 432.934197 117.630415 
L 432.829901 117.630415 
z
" style="fill:#1f77b4;"/>
    </g>
    <g id="patch_182">
     <path clip-path="url(#pcaeeafef25)" d="M 432.934197 129.634015 
L 433.038494 129.634015 
L 433.038494 111.628615 
L 432.934197 111.628615 
z
" style="fill:#1f77b4;"/>
    </g>
    <g id="patch_183">
     <path d="M 423.7898 129.634015 
L 423.7898 66.615118 
" style="fill:none;stroke:#000000;stroke-linecap:square;stroke-linejoin:miter;stroke-width:0.8;"/>
    </g>
    <g id="patch_184">
     <path d="M 473.7018 129.634015 
L 473.7018 66.615118 
" style="fill:none;stroke:#000000;stroke-linecap:square;stroke-linejoin:miter;stroke-width:0.8;"/>
    </g>
    <g id="patch_185">
     <path d="M 423.7898 129.634015 
L 473.7018 129.634015 
" style="fill:none;stroke:#000000;stroke-linecap:square;stroke-linejoin:miter;stroke-width:0.8;"/>
    </g>
    <g id="patch_186">
     <path d="M 423.7898 66.615118 
L 473.7018 66.615118 
" style="fill:none;stroke:#000000;stroke-linecap:square;stroke-linejoin:miter;stroke-width:0.8;"/>
    </g>
   </g>
   <g id="axes_8">
    <g id="patch_187">
     <path d="M 493.41704 129.634015 
L 543.32904 129.634015 
L 543.32904 66.615118 
L 493.41704 66.615118 
z
" style="fill:#ffffff;"/>
    </g>
    <g id="patch_188">
     <path clip-path="url(#p9ca58e9846)" d="M 500.009417 129.634015 
L 500.11004 129.634015 
L 500.11004 124.632515 
L 500.009417 124.632515 
z
" style="fill:#1f77b4;"/>
    </g>
    <g id="patch_189">
     <path clip-path="url(#p9ca58e9846)" d="M 500.11004 129.634015 
L 500.210662 129.634015 
L 500.210662 124.632515 
L 500.11004 124.632515 
z
" style="fill:#1f77b4;"/>
    </g>
    <g id="patch_190">
     <path clip-path="url(#p9ca58e9846)" d="M 500.210662 129.634015 
L 500.311285 129.634015 
L 500.311285 119.631015 
L 500.210662 119.631015 
z
" style="fill:#1f77b4;"/>
    </g>
    <g id="patch_191">
     <path clip-path="url(#p9ca58e9846)" d="M 500.311285 129.634015 
L 500.411907 129.634015 
L 500.411907 109.628015 
L 500.311285 109.628015 
z
" style="fill:#1f77b4;"/>
    </g>
    <g id="patch_192">
     <path clip-path="url(#p9ca58e9846)" d="M 500.411907 129.634015 
L 500.51253 129.634015 
L 500.51253 114.629515 
L 500.411907 114.629515 
z
" style="fill:#1f77b4;"/>
    </g>
    <g id="patch_193">
     <path clip-path="url(#p9ca58e9846)" d="M 500.51253 129.634015 
L 500.613153 129.634015 
L 500.613153 109.628015 
L 500.51253 109.628015 
z
" style="fill:#1f77b4;"/>
    </g>
    <g id="patch_194">
     <path clip-path="url(#p9ca58e9846)" d="M 500.613153 129.634015 
L 500.713775 129.634015 
L 500.713775 119.631015 
L 500.613153 119.631015 
z
" style="fill:#1f77b4;"/>
    </g>
    <g id="patch_195">
     <path clip-path="url(#p9ca58e9846)" d="M 500.713775 129.634015 
L 500.814398 129.634015 
L 500.814398 119.631015 
L 500.713775 119.631015 
z
" style="fill:#1f77b4;"/>
    </g>
    <g id="patch_196">
     <path clip-path="url(#p9ca58e9846)" d="M 500.814398 129.634015 
L 500.91502 129.634015 
L 500.91502 109.628015 
L 500.814398 109.628015 
z
" style="fill:#1f77b4;"/>
    </g>
    <g id="patch_197">
     <path clip-path="url(#p9ca58e9846)" d="M 500.91502 129.634015 
L 501.015643 129.634015 
L 501.015643 104.626516 
L 500.91502 104.626516 
z
" style="fill:#1f77b4;"/>
    </g>
    <g id="patch_198">
     <path clip-path="url(#p9ca58e9846)" d="M 501.015643 129.634015 
L 501.116265 129.634015 
L 501.116265 104.626516 
L 501.015643 104.626516 
z
" style="fill:#1f77b4;"/>
    </g>
    <g id="patch_199">
     <path clip-path="url(#p9ca58e9846)" d="M 501.116265 129.634015 
L 501.216888 129.634015 
L 501.216888 89.622016 
L 501.116265 89.622016 
z
" style="fill:#1f77b4;"/>
    </g>
    <g id="patch_200">
     <path clip-path="url(#p9ca58e9846)" d="M 501.216888 129.634015 
L 501.317511 129.634015 
L 501.317511 104.626516 
L 501.216888 104.626516 
z
" style="fill:#1f77b4;"/>
    </g>
    <g id="patch_201">
     <path clip-path="url(#p9ca58e9846)" d="M 501.317511 129.634015 
L 501.418133 129.634015 
L 501.418133 104.626516 
L 501.317511 104.626516 
z
" style="fill:#1f77b4;"/>
    </g>
    <g id="patch_202">
     <path clip-path="url(#p9ca58e9846)" d="M 501.418133 129.634015 
L 501.518756 129.634015 
L 501.518756 114.629515 
L 501.418133 114.629515 
z
" style="fill:#1f77b4;"/>
    </g>
    <g id="patch_203">
     <path clip-path="url(#p9ca58e9846)" d="M 501.518756 129.634015 
L 501.619378 129.634015 
L 501.619378 94.623516 
L 501.518756 94.623516 
z
" style="fill:#1f77b4;"/>
    </g>
    <g id="patch_204">
     <path clip-path="url(#p9ca58e9846)" d="M 501.619378 129.634015 
L 501.720001 129.634015 
L 501.720001 104.626516 
L 501.619378 104.626516 
z
" style="fill:#1f77b4;"/>
    </g>
    <g id="patch_205">
     <path clip-path="url(#p9ca58e9846)" d="M 501.720001 129.634015 
L 501.820624 129.634015 
L 501.820624 104.626516 
L 501.720001 104.626516 
z
" style="fill:#1f77b4;"/>
    </g>
    <g id="patch_206">
     <path clip-path="url(#p9ca58e9846)" d="M 501.820624 129.634015 
L 501.921246 129.634015 
L 501.921246 69.616017 
L 501.820624 69.616017 
z
" style="fill:#1f77b4;"/>
    </g>
    <g id="patch_207">
     <path clip-path="url(#p9ca58e9846)" d="M 501.921246 129.634015 
L 502.021869 129.634015 
L 502.021869 104.626516 
L 501.921246 104.626516 
z
" style="fill:#1f77b4;"/>
    </g>
    <g id="patch_208">
     <path clip-path="url(#p9ca58e9846)" d="M 502.021869 129.634015 
L 502.122491 129.634015 
L 502.122491 124.632515 
L 502.021869 124.632515 
z
" style="fill:#1f77b4;"/>
    </g>
    <g id="patch_209">
     <path clip-path="url(#p9ca58e9846)" d="M 502.122491 129.634015 
L 502.223114 129.634015 
L 502.223114 114.629515 
L 502.122491 114.629515 
z
" style="fill:#1f77b4;"/>
    </g>
    <g id="patch_210">
     <path clip-path="url(#p9ca58e9846)" d="M 502.223114 129.634015 
L 502.323737 129.634015 
L 502.323737 99.625016 
L 502.223114 99.625016 
z
" style="fill:#1f77b4;"/>
    </g>
    <g id="patch_211">
     <path clip-path="url(#p9ca58e9846)" d="M 502.323737 129.634015 
L 502.424359 129.634015 
L 502.424359 129.634015 
L 502.323737 129.634015 
z
" style="fill:#1f77b4;"/>
    </g>
    <g id="patch_212">
     <path clip-path="url(#p9ca58e9846)" d="M 502.424359 129.634015 
L 502.524982 129.634015 
L 502.524982 119.631015 
L 502.424359 119.631015 
z
" style="fill:#1f77b4;"/>
    </g>
    <g id="patch_213">
     <path d="M 493.41704 129.634015 
L 493.41704 66.615118 
" style="fill:none;stroke:#000000;stroke-linecap:square;stroke-linejoin:miter;stroke-width:0.8;"/>
    </g>
    <g id="patch_214">
     <path d="M 543.32904 129.634015 
L 543.32904 66.615118 
" style="fill:none;stroke:#000000;stroke-linecap:square;stroke-linejoin:miter;stroke-width:0.8;"/>
    </g>
    <g id="patch_215">
     <path d="M 493.41704 129.634015 
L 543.32904 129.634015 
" style="fill:none;stroke:#000000;stroke-linecap:square;stroke-linejoin:miter;stroke-width:0.8;"/>
    </g>
    <g id="patch_216">
     <path d="M 493.41704 66.615118 
L 543.32904 66.615118 
" style="fill:none;stroke:#000000;stroke-linecap:square;stroke-linejoin:miter;stroke-width:0.8;"/>
    </g>
   </g>
  </g>
 </g>
 <defs>
  <clipPath id="p0d7d4bfa86">
   <rect height="252.075588" width="499.12" x="60.68" y="16.2"/>
  </clipPath>
  <clipPath id="p0bd0191f40">
   <rect height="63.018897" width="49.912" x="75.6536" y="66.615118"/>
  </clipPath>
  <clipPath id="p479e76b0b0">
   <rect height="63.018897" width="49.912" x="145.28084" y="66.615118"/>
  </clipPath>
  <clipPath id="p1d9927f5f6">
   <rect height="63.018897" width="49.912" x="214.90808" y="66.615118"/>
  </clipPath>
  <clipPath id="p580b25dc97">
   <rect height="63.018897" width="49.912" x="284.53532" y="66.615118"/>
  </clipPath>
  <clipPath id="pbd7739ee83">
   <rect height="63.018897" width="49.912" x="354.16256" y="66.615118"/>
  </clipPath>
  <clipPath id="pcaeeafef25">
   <rect height="63.018897" width="49.912" x="423.7898" y="66.615118"/>
  </clipPath>
  <clipPath id="p9ca58e9846">
   <rect height="63.018897" width="49.912" x="493.41704" y="66.615118"/>
  </clipPath>
 </defs>
</svg>
