<?xml version="1.0" encoding="utf-8" standalone="no"?>
<!DOCTYPE svg PUBLIC "-//W3C//DTD SVG 1.1//EN"
  "http://www.w3.org/Graphics/SVG/1.1/DTD/svg11.dtd">
<svg height="345.6pt" version="1.1" viewBox="0 0 460.8 345.6" width="460.8pt" xmlns="http://www.w3.org/2000/svg" xmlns:xlink="http://www.w3.org/1999/xlink">
 <metadata>
  <rdf:RDF xmlns:cc="http://creativecommons.org/ns#" xmlns:dc="http://purl.org/dc/elements/1.1/" xmlns:rdf="http://www.w3.org/1999/02/22-rdf-syntax-ns#">
   <cc:Work>
    <dc:type rdf:resource="http://purl.org/dc/dcmitype/StillImage"/>
    <dc:date>2021-05-07T12:01:40.624994</dc:date>
    <dc:format>image/svg+xml</dc:format>
    <dc:creator>
     <cc:Agent>
      <dc:title>Matplotlib v3.4.1, https://matplotlib.org/</dc:title>
     </cc:Agent>
    </dc:creator>
   </cc:Work>
  </rdf:RDF>
 </metadata>
 <defs>
  <style type="text/css">*{stroke-linecap:butt;stroke-linejoin:round;}</style>
 </defs>
 <g id="figure_1">
  <g id="patch_1">
   <path d="M 0 345.6 
L 460.8 345.6 
L 460.8 0 
L 0 0 
z
" style="fill:#ffffff;"/>
  </g>
  <g id="axes_1">
   <g id="patch_2">
    <path d="M 44.57 170.53 
L 450 170.53 
L 450 26.88 
L 44.57 26.88 
z
" style="fill:#ffffff;"/>
   </g>
   <g id="matplotlib.axis_1">
    <g id="xtick_1">
     <g id="line2d_1">
      <path clip-path="url(#p8fe01bb521)" d="M 78.355833 170.53 
L 78.355833 26.88 
" style="fill:none;stroke:#b0b0b0;stroke-linecap:square;stroke-width:0.8;"/>
     </g>
     <g id="line2d_2">
      <defs>
       <path d="M 0 0 
L 0 3.5 
" id="m9adddf8b6f" style="stroke:#000000;stroke-width:0.8;"/>
      </defs>
      <g>
       <use style="stroke:#000000;stroke-width:0.8;" x="78.355833" xlink:href="#m9adddf8b6f" y="170.53"/>
      </g>
     </g>
     <g id="text_1">
      <!-- FedAvg CNN -->
      <g transform="translate(81.115208 238.876875)rotate(-90)scale(0.1 -0.1)">
       <defs>
        <path d="M 628 4666 
L 3309 4666 
L 3309 4134 
L 1259 4134 
L 1259 2759 
L 3109 2759 
L 3109 2228 
L 1259 2228 
L 1259 0 
L 628 0 
L 628 4666 
z
" id="DejaVuSans-46" transform="scale(0.015625)"/>
        <path d="M 3597 1894 
L 3597 1613 
L 953 1613 
Q 991 1019 1311 708 
Q 1631 397 2203 397 
Q 2534 397 2845 478 
Q 3156 559 3463 722 
L 3463 178 
Q 3153 47 2828 -22 
Q 2503 -91 2169 -91 
Q 1331 -91 842 396 
Q 353 884 353 1716 
Q 353 2575 817 3079 
Q 1281 3584 2069 3584 
Q 2775 3584 3186 3129 
Q 3597 2675 3597 1894 
z
M 3022 2063 
Q 3016 2534 2758 2815 
Q 2500 3097 2075 3097 
Q 1594 3097 1305 2825 
Q 1016 2553 972 2059 
L 3022 2063 
z
" id="DejaVuSans-65" transform="scale(0.015625)"/>
        <path d="M 2906 2969 
L 2906 4863 
L 3481 4863 
L 3481 0 
L 2906 0 
L 2906 525 
Q 2725 213 2448 61 
Q 2172 -91 1784 -91 
Q 1150 -91 751 415 
Q 353 922 353 1747 
Q 353 2572 751 3078 
Q 1150 3584 1784 3584 
Q 2172 3584 2448 3432 
Q 2725 3281 2906 2969 
z
M 947 1747 
Q 947 1113 1208 752 
Q 1469 391 1925 391 
Q 2381 391 2643 752 
Q 2906 1113 2906 1747 
Q 2906 2381 2643 2742 
Q 2381 3103 1925 3103 
Q 1469 3103 1208 2742 
Q 947 2381 947 1747 
z
" id="DejaVuSans-64" transform="scale(0.015625)"/>
        <path d="M 2188 4044 
L 1331 1722 
L 3047 1722 
L 2188 4044 
z
M 1831 4666 
L 2547 4666 
L 4325 0 
L 3669 0 
L 3244 1197 
L 1141 1197 
L 716 0 
L 50 0 
L 1831 4666 
z
" id="DejaVuSans-41" transform="scale(0.015625)"/>
        <path d="M 191 3500 
L 800 3500 
L 1894 563 
L 2988 3500 
L 3597 3500 
L 2284 0 
L 1503 0 
L 191 3500 
z
" id="DejaVuSans-76" transform="scale(0.015625)"/>
        <path d="M 2906 1791 
Q 2906 2416 2648 2759 
Q 2391 3103 1925 3103 
Q 1463 3103 1205 2759 
Q 947 2416 947 1791 
Q 947 1169 1205 825 
Q 1463 481 1925 481 
Q 2391 481 2648 825 
Q 2906 1169 2906 1791 
z
M 3481 434 
Q 3481 -459 3084 -895 
Q 2688 -1331 1869 -1331 
Q 1566 -1331 1297 -1286 
Q 1028 -1241 775 -1147 
L 775 -588 
Q 1028 -725 1275 -790 
Q 1522 -856 1778 -856 
Q 2344 -856 2625 -561 
Q 2906 -266 2906 331 
L 2906 616 
Q 2728 306 2450 153 
Q 2172 0 1784 0 
Q 1141 0 747 490 
Q 353 981 353 1791 
Q 353 2603 747 3093 
Q 1141 3584 1784 3584 
Q 2172 3584 2450 3431 
Q 2728 3278 2906 2969 
L 2906 3500 
L 3481 3500 
L 3481 434 
z
" id="DejaVuSans-67" transform="scale(0.015625)"/>
        <path id="DejaVuSans-20" transform="scale(0.015625)"/>
        <path d="M 4122 4306 
L 4122 3641 
Q 3803 3938 3442 4084 
Q 3081 4231 2675 4231 
Q 1875 4231 1450 3742 
Q 1025 3253 1025 2328 
Q 1025 1406 1450 917 
Q 1875 428 2675 428 
Q 3081 428 3442 575 
Q 3803 722 4122 1019 
L 4122 359 
Q 3791 134 3420 21 
Q 3050 -91 2638 -91 
Q 1578 -91 968 557 
Q 359 1206 359 2328 
Q 359 3453 968 4101 
Q 1578 4750 2638 4750 
Q 3056 4750 3426 4639 
Q 3797 4528 4122 4306 
z
" id="DejaVuSans-43" transform="scale(0.015625)"/>
        <path d="M 628 4666 
L 1478 4666 
L 3547 763 
L 3547 4666 
L 4159 4666 
L 4159 0 
L 3309 0 
L 1241 3903 
L 1241 0 
L 628 0 
L 628 4666 
z
" id="DejaVuSans-4e" transform="scale(0.015625)"/>
       </defs>
       <use xlink:href="#DejaVuSans-46"/>
       <use x="52.019531" xlink:href="#DejaVuSans-65"/>
       <use x="113.542969" xlink:href="#DejaVuSans-64"/>
       <use x="177.019531" xlink:href="#DejaVuSans-41"/>
       <use x="239.552734" xlink:href="#DejaVuSans-76"/>
       <use x="298.732422" xlink:href="#DejaVuSans-67"/>
       <use x="362.208984" xlink:href="#DejaVuSans-20"/>
       <use x="393.996094" xlink:href="#DejaVuSans-43"/>
       <use x="463.820312" xlink:href="#DejaVuSans-4e"/>
       <use x="538.625" xlink:href="#DejaVuSans-4e"/>
      </g>
     </g>
    </g>
    <g id="xtick_2">
     <g id="line2d_3">
      <path clip-path="url(#p8fe01bb521)" d="M 134.665556 170.53 
L 134.665556 26.88 
" style="fill:none;stroke:#b0b0b0;stroke-linecap:square;stroke-width:0.8;"/>
     </g>
     <g id="line2d_4">
      <g>
       <use style="stroke:#000000;stroke-width:0.8;" x="134.665556" xlink:href="#m9adddf8b6f" y="170.53"/>
      </g>
     </g>
     <g id="text_2">
      <!-- FedMed CNN -->
      <g transform="translate(137.424931 241.48625)rotate(-90)scale(0.1 -0.1)">
       <defs>
        <path d="M 628 4666 
L 1569 4666 
L 2759 1491 
L 3956 4666 
L 4897 4666 
L 4897 0 
L 4281 0 
L 4281 4097 
L 3078 897 
L 2444 897 
L 1241 4097 
L 1241 0 
L 628 0 
L 628 4666 
z
" id="DejaVuSans-4d" transform="scale(0.015625)"/>
       </defs>
       <use xlink:href="#DejaVuSans-46"/>
       <use x="52.019531" xlink:href="#DejaVuSans-65"/>
       <use x="113.542969" xlink:href="#DejaVuSans-64"/>
       <use x="177.019531" xlink:href="#DejaVuSans-4d"/>
       <use x="263.298828" xlink:href="#DejaVuSans-65"/>
       <use x="324.822266" xlink:href="#DejaVuSans-64"/>
       <use x="388.298828" xlink:href="#DejaVuSans-20"/>
       <use x="420.085938" xlink:href="#DejaVuSans-43"/>
       <use x="489.910156" xlink:href="#DejaVuSans-4e"/>
       <use x="564.714844" xlink:href="#DejaVuSans-4e"/>
      </g>
     </g>
    </g>
    <g id="xtick_3">
     <g id="line2d_5">
      <path clip-path="url(#p8fe01bb521)" d="M 190.975278 170.53 
L 190.975278 26.88 
" style="fill:none;stroke:#b0b0b0;stroke-linecap:square;stroke-width:0.8;"/>
     </g>
     <g id="line2d_6">
      <g>
       <use style="stroke:#000000;stroke-width:0.8;" x="190.975278" xlink:href="#m9adddf8b6f" y="170.53"/>
      </g>
     </g>
     <g id="text_3">
      <!-- FedProx CNN -->
      <g transform="translate(193.734653 241.822187)rotate(-90)scale(0.1 -0.1)">
       <defs>
        <path d="M 1259 4147 
L 1259 2394 
L 2053 2394 
Q 2494 2394 2734 2622 
Q 2975 2850 2975 3272 
Q 2975 3691 2734 3919 
Q 2494 4147 2053 4147 
L 1259 4147 
z
M 628 4666 
L 2053 4666 
Q 2838 4666 3239 4311 
Q 3641 3956 3641 3272 
Q 3641 2581 3239 2228 
Q 2838 1875 2053 1875 
L 1259 1875 
L 1259 0 
L 628 0 
L 628 4666 
z
" id="DejaVuSans-50" transform="scale(0.015625)"/>
        <path d="M 2631 2963 
Q 2534 3019 2420 3045 
Q 2306 3072 2169 3072 
Q 1681 3072 1420 2755 
Q 1159 2438 1159 1844 
L 1159 0 
L 581 0 
L 581 3500 
L 1159 3500 
L 1159 2956 
Q 1341 3275 1631 3429 
Q 1922 3584 2338 3584 
Q 2397 3584 2469 3576 
Q 2541 3569 2628 3553 
L 2631 2963 
z
" id="DejaVuSans-72" transform="scale(0.015625)"/>
        <path d="M 1959 3097 
Q 1497 3097 1228 2736 
Q 959 2375 959 1747 
Q 959 1119 1226 758 
Q 1494 397 1959 397 
Q 2419 397 2687 759 
Q 2956 1122 2956 1747 
Q 2956 2369 2687 2733 
Q 2419 3097 1959 3097 
z
M 1959 3584 
Q 2709 3584 3137 3096 
Q 3566 2609 3566 1747 
Q 3566 888 3137 398 
Q 2709 -91 1959 -91 
Q 1206 -91 779 398 
Q 353 888 353 1747 
Q 353 2609 779 3096 
Q 1206 3584 1959 3584 
z
" id="DejaVuSans-6f" transform="scale(0.015625)"/>
        <path d="M 3513 3500 
L 2247 1797 
L 3578 0 
L 2900 0 
L 1881 1375 
L 863 0 
L 184 0 
L 1544 1831 
L 300 3500 
L 978 3500 
L 1906 2253 
L 2834 3500 
L 3513 3500 
z
" id="DejaVuSans-78" transform="scale(0.015625)"/>
       </defs>
       <use xlink:href="#DejaVuSans-46"/>
       <use x="52.019531" xlink:href="#DejaVuSans-65"/>
       <use x="113.542969" xlink:href="#DejaVuSans-64"/>
       <use x="177.019531" xlink:href="#DejaVuSans-50"/>
       <use x="235.572266" xlink:href="#DejaVuSans-72"/>
       <use x="274.435547" xlink:href="#DejaVuSans-6f"/>
       <use x="332.492188" xlink:href="#DejaVuSans-78"/>
       <use x="391.671875" xlink:href="#DejaVuSans-20"/>
       <use x="423.458984" xlink:href="#DejaVuSans-43"/>
       <use x="493.283203" xlink:href="#DejaVuSans-4e"/>
       <use x="568.087891" xlink:href="#DejaVuSans-4e"/>
      </g>
     </g>
    </g>
    <g id="xtick_4">
     <g id="line2d_7">
      <path clip-path="url(#p8fe01bb521)" d="M 247.285 170.53 
L 247.285 26.88 
" style="fill:none;stroke:#b0b0b0;stroke-linecap:square;stroke-width:0.8;"/>
     </g>
     <g id="line2d_8">
      <g>
       <use style="stroke:#000000;stroke-width:0.8;" x="247.285" xlink:href="#m9adddf8b6f" y="170.53"/>
      </g>
     </g>
     <g id="text_4">
      <!-- qFedAvg_001_uniform CNN -->
      <g transform="translate(249.905313 313.081563)rotate(-90)scale(0.1 -0.1)">
       <defs>
        <path d="M 947 1747 
Q 947 1113 1208 752 
Q 1469 391 1925 391 
Q 2381 391 2643 752 
Q 2906 1113 2906 1747 
Q 2906 2381 2643 2742 
Q 2381 3103 1925 3103 
Q 1469 3103 1208 2742 
Q 947 2381 947 1747 
z
M 2906 525 
Q 2725 213 2448 61 
Q 2172 -91 1784 -91 
Q 1150 -91 751 415 
Q 353 922 353 1747 
Q 353 2572 751 3078 
Q 1150 3584 1784 3584 
Q 2172 3584 2448 3432 
Q 2725 3281 2906 2969 
L 2906 3500 
L 3481 3500 
L 3481 -1331 
L 2906 -1331 
L 2906 525 
z
" id="DejaVuSans-71" transform="scale(0.015625)"/>
        <path d="M 3263 -1063 
L 3263 -1509 
L -63 -1509 
L -63 -1063 
L 3263 -1063 
z
" id="DejaVuSans-5f" transform="scale(0.015625)"/>
        <path d="M 2034 4250 
Q 1547 4250 1301 3770 
Q 1056 3291 1056 2328 
Q 1056 1369 1301 889 
Q 1547 409 2034 409 
Q 2525 409 2770 889 
Q 3016 1369 3016 2328 
Q 3016 3291 2770 3770 
Q 2525 4250 2034 4250 
z
M 2034 4750 
Q 2819 4750 3233 4129 
Q 3647 3509 3647 2328 
Q 3647 1150 3233 529 
Q 2819 -91 2034 -91 
Q 1250 -91 836 529 
Q 422 1150 422 2328 
Q 422 3509 836 4129 
Q 1250 4750 2034 4750 
z
" id="DejaVuSans-30" transform="scale(0.015625)"/>
        <path d="M 794 531 
L 1825 531 
L 1825 4091 
L 703 3866 
L 703 4441 
L 1819 4666 
L 2450 4666 
L 2450 531 
L 3481 531 
L 3481 0 
L 794 0 
L 794 531 
z
" id="DejaVuSans-31" transform="scale(0.015625)"/>
        <path d="M 544 1381 
L 544 3500 
L 1119 3500 
L 1119 1403 
Q 1119 906 1312 657 
Q 1506 409 1894 409 
Q 2359 409 2629 706 
Q 2900 1003 2900 1516 
L 2900 3500 
L 3475 3500 
L 3475 0 
L 2900 0 
L 2900 538 
Q 2691 219 2414 64 
Q 2138 -91 1772 -91 
Q 1169 -91 856 284 
Q 544 659 544 1381 
z
M 1991 3584 
L 1991 3584 
z
" id="DejaVuSans-75" transform="scale(0.015625)"/>
        <path d="M 3513 2113 
L 3513 0 
L 2938 0 
L 2938 2094 
Q 2938 2591 2744 2837 
Q 2550 3084 2163 3084 
Q 1697 3084 1428 2787 
Q 1159 2491 1159 1978 
L 1159 0 
L 581 0 
L 581 3500 
L 1159 3500 
L 1159 2956 
Q 1366 3272 1645 3428 
Q 1925 3584 2291 3584 
Q 2894 3584 3203 3211 
Q 3513 2838 3513 2113 
z
" id="DejaVuSans-6e" transform="scale(0.015625)"/>
        <path d="M 603 3500 
L 1178 3500 
L 1178 0 
L 603 0 
L 603 3500 
z
M 603 4863 
L 1178 4863 
L 1178 4134 
L 603 4134 
L 603 4863 
z
" id="DejaVuSans-69" transform="scale(0.015625)"/>
        <path d="M 2375 4863 
L 2375 4384 
L 1825 4384 
Q 1516 4384 1395 4259 
Q 1275 4134 1275 3809 
L 1275 3500 
L 2222 3500 
L 2222 3053 
L 1275 3053 
L 1275 0 
L 697 0 
L 697 3053 
L 147 3053 
L 147 3500 
L 697 3500 
L 697 3744 
Q 697 4328 969 4595 
Q 1241 4863 1831 4863 
L 2375 4863 
z
" id="DejaVuSans-66" transform="scale(0.015625)"/>
        <path d="M 3328 2828 
Q 3544 3216 3844 3400 
Q 4144 3584 4550 3584 
Q 5097 3584 5394 3201 
Q 5691 2819 5691 2113 
L 5691 0 
L 5113 0 
L 5113 2094 
Q 5113 2597 4934 2840 
Q 4756 3084 4391 3084 
Q 3944 3084 3684 2787 
Q 3425 2491 3425 1978 
L 3425 0 
L 2847 0 
L 2847 2094 
Q 2847 2600 2669 2842 
Q 2491 3084 2119 3084 
Q 1678 3084 1418 2786 
Q 1159 2488 1159 1978 
L 1159 0 
L 581 0 
L 581 3500 
L 1159 3500 
L 1159 2956 
Q 1356 3278 1631 3431 
Q 1906 3584 2284 3584 
Q 2666 3584 2933 3390 
Q 3200 3197 3328 2828 
z
" id="DejaVuSans-6d" transform="scale(0.015625)"/>
       </defs>
       <use xlink:href="#DejaVuSans-71"/>
       <use x="63.476562" xlink:href="#DejaVuSans-46"/>
       <use x="115.496094" xlink:href="#DejaVuSans-65"/>
       <use x="177.019531" xlink:href="#DejaVuSans-64"/>
       <use x="240.496094" xlink:href="#DejaVuSans-41"/>
       <use x="303.029297" xlink:href="#DejaVuSans-76"/>
       <use x="362.208984" xlink:href="#DejaVuSans-67"/>
       <use x="425.685547" xlink:href="#DejaVuSans-5f"/>
       <use x="475.685547" xlink:href="#DejaVuSans-30"/>
       <use x="539.308594" xlink:href="#DejaVuSans-30"/>
       <use x="602.931641" xlink:href="#DejaVuSans-31"/>
       <use x="666.554688" xlink:href="#DejaVuSans-5f"/>
       <use x="716.554688" xlink:href="#DejaVuSans-75"/>
       <use x="779.933594" xlink:href="#DejaVuSans-6e"/>
       <use x="843.3125" xlink:href="#DejaVuSans-69"/>
       <use x="871.095703" xlink:href="#DejaVuSans-66"/>
       <use x="906.300781" xlink:href="#DejaVuSans-6f"/>
       <use x="967.482422" xlink:href="#DejaVuSans-72"/>
       <use x="1006.845703" xlink:href="#DejaVuSans-6d"/>
       <use x="1104.257812" xlink:href="#DejaVuSans-20"/>
       <use x="1136.044922" xlink:href="#DejaVuSans-43"/>
       <use x="1205.869141" xlink:href="#DejaVuSans-4e"/>
       <use x="1280.673828" xlink:href="#DejaVuSans-4e"/>
      </g>
     </g>
    </g>
    <g id="xtick_5">
     <g id="line2d_9">
      <path clip-path="url(#p8fe01bb521)" d="M 303.594722 170.53 
L 303.594722 26.88 
" style="fill:none;stroke:#b0b0b0;stroke-linecap:square;stroke-width:0.8;"/>
     </g>
     <g id="line2d_10">
      <g>
       <use style="stroke:#000000;stroke-width:0.8;" x="303.594722" xlink:href="#m9adddf8b6f" y="170.53"/>
      </g>
     </g>
     <g id="text_5">
      <!-- qFedAvg_1_weighted CNN -->
      <g transform="translate(306.215035 307.805)rotate(-90)scale(0.1 -0.1)">
       <defs>
        <path d="M 269 3500 
L 844 3500 
L 1563 769 
L 2278 3500 
L 2956 3500 
L 3675 769 
L 4391 3500 
L 4966 3500 
L 4050 0 
L 3372 0 
L 2619 2869 
L 1863 0 
L 1184 0 
L 269 3500 
z
" id="DejaVuSans-77" transform="scale(0.015625)"/>
        <path d="M 3513 2113 
L 3513 0 
L 2938 0 
L 2938 2094 
Q 2938 2591 2744 2837 
Q 2550 3084 2163 3084 
Q 1697 3084 1428 2787 
Q 1159 2491 1159 1978 
L 1159 0 
L 581 0 
L 581 4863 
L 1159 4863 
L 1159 2956 
Q 1366 3272 1645 3428 
Q 1925 3584 2291 3584 
Q 2894 3584 3203 3211 
Q 3513 2838 3513 2113 
z
" id="DejaVuSans-68" transform="scale(0.015625)"/>
        <path d="M 1172 4494 
L 1172 3500 
L 2356 3500 
L 2356 3053 
L 1172 3053 
L 1172 1153 
Q 1172 725 1289 603 
Q 1406 481 1766 481 
L 2356 481 
L 2356 0 
L 1766 0 
Q 1100 0 847 248 
Q 594 497 594 1153 
L 594 3053 
L 172 3053 
L 172 3500 
L 594 3500 
L 594 4494 
L 1172 4494 
z
" id="DejaVuSans-74" transform="scale(0.015625)"/>
       </defs>
       <use xlink:href="#DejaVuSans-71"/>
       <use x="63.476562" xlink:href="#DejaVuSans-46"/>
       <use x="115.496094" xlink:href="#DejaVuSans-65"/>
       <use x="177.019531" xlink:href="#DejaVuSans-64"/>
       <use x="240.496094" xlink:href="#DejaVuSans-41"/>
       <use x="303.029297" xlink:href="#DejaVuSans-76"/>
       <use x="362.208984" xlink:href="#DejaVuSans-67"/>
       <use x="425.685547" xlink:href="#DejaVuSans-5f"/>
       <use x="475.685547" xlink:href="#DejaVuSans-31"/>
       <use x="539.308594" xlink:href="#DejaVuSans-5f"/>
       <use x="589.308594" xlink:href="#DejaVuSans-77"/>
       <use x="671.095703" xlink:href="#DejaVuSans-65"/>
       <use x="732.619141" xlink:href="#DejaVuSans-69"/>
       <use x="760.402344" xlink:href="#DejaVuSans-67"/>
       <use x="823.878906" xlink:href="#DejaVuSans-68"/>
       <use x="887.257812" xlink:href="#DejaVuSans-74"/>
       <use x="926.466797" xlink:href="#DejaVuSans-65"/>
       <use x="987.990234" xlink:href="#DejaVuSans-64"/>
       <use x="1051.466797" xlink:href="#DejaVuSans-20"/>
       <use x="1083.253906" xlink:href="#DejaVuSans-43"/>
       <use x="1153.078125" xlink:href="#DejaVuSans-4e"/>
       <use x="1227.882812" xlink:href="#DejaVuSans-4e"/>
      </g>
     </g>
    </g>
    <g id="xtick_6">
     <g id="line2d_11">
      <path clip-path="url(#p8fe01bb521)" d="M 359.904444 170.53 
L 359.904444 26.88 
" style="fill:none;stroke:#b0b0b0;stroke-linecap:square;stroke-width:0.8;"/>
     </g>
     <g id="line2d_12">
      <g>
       <use style="stroke:#000000;stroke-width:0.8;" x="359.904444" xlink:href="#m9adddf8b6f" y="170.53"/>
      </g>
     </g>
     <g id="text_6">
      <!-- qFedAvg_001_weighted CNN -->
      <g transform="translate(362.524757 320.53)rotate(-90)scale(0.1 -0.1)">
       <use xlink:href="#DejaVuSans-71"/>
       <use x="63.476562" xlink:href="#DejaVuSans-46"/>
       <use x="115.496094" xlink:href="#DejaVuSans-65"/>
       <use x="177.019531" xlink:href="#DejaVuSans-64"/>
       <use x="240.496094" xlink:href="#DejaVuSans-41"/>
       <use x="303.029297" xlink:href="#DejaVuSans-76"/>
       <use x="362.208984" xlink:href="#DejaVuSans-67"/>
       <use x="425.685547" xlink:href="#DejaVuSans-5f"/>
       <use x="475.685547" xlink:href="#DejaVuSans-30"/>
       <use x="539.308594" xlink:href="#DejaVuSans-30"/>
       <use x="602.931641" xlink:href="#DejaVuSans-31"/>
       <use x="666.554688" xlink:href="#DejaVuSans-5f"/>
       <use x="716.554688" xlink:href="#DejaVuSans-77"/>
       <use x="798.341797" xlink:href="#DejaVuSans-65"/>
       <use x="859.865234" xlink:href="#DejaVuSans-69"/>
       <use x="887.648438" xlink:href="#DejaVuSans-67"/>
       <use x="951.125" xlink:href="#DejaVuSans-68"/>
       <use x="1014.503906" xlink:href="#DejaVuSans-74"/>
       <use x="1053.712891" xlink:href="#DejaVuSans-65"/>
       <use x="1115.236328" xlink:href="#DejaVuSans-64"/>
       <use x="1178.712891" xlink:href="#DejaVuSans-20"/>
       <use x="1210.5" xlink:href="#DejaVuSans-43"/>
       <use x="1280.324219" xlink:href="#DejaVuSans-4e"/>
       <use x="1355.128906" xlink:href="#DejaVuSans-4e"/>
      </g>
     </g>
    </g>
    <g id="xtick_7">
     <g id="line2d_13">
      <path clip-path="url(#p8fe01bb521)" d="M 416.214167 170.53 
L 416.214167 26.88 
" style="fill:none;stroke:#b0b0b0;stroke-linecap:square;stroke-width:0.8;"/>
     </g>
     <g id="line2d_14">
      <g>
       <use style="stroke:#000000;stroke-width:0.8;" x="416.214167" xlink:href="#m9adddf8b6f" y="170.53"/>
      </g>
     </g>
     <g id="text_7">
      <!-- qFedAvg_1_uniform CNN -->
      <g transform="translate(418.834479 300.356562)rotate(-90)scale(0.1 -0.1)">
       <use xlink:href="#DejaVuSans-71"/>
       <use x="63.476562" xlink:href="#DejaVuSans-46"/>
       <use x="115.496094" xlink:href="#DejaVuSans-65"/>
       <use x="177.019531" xlink:href="#DejaVuSans-64"/>
       <use x="240.496094" xlink:href="#DejaVuSans-41"/>
       <use x="303.029297" xlink:href="#DejaVuSans-76"/>
       <use x="362.208984" xlink:href="#DejaVuSans-67"/>
       <use x="425.685547" xlink:href="#DejaVuSans-5f"/>
       <use x="475.685547" xlink:href="#DejaVuSans-31"/>
       <use x="539.308594" xlink:href="#DejaVuSans-5f"/>
       <use x="589.308594" xlink:href="#DejaVuSans-75"/>
       <use x="652.6875" xlink:href="#DejaVuSans-6e"/>
       <use x="716.066406" xlink:href="#DejaVuSans-69"/>
       <use x="743.849609" xlink:href="#DejaVuSans-66"/>
       <use x="779.054688" xlink:href="#DejaVuSans-6f"/>
       <use x="840.236328" xlink:href="#DejaVuSans-72"/>
       <use x="879.599609" xlink:href="#DejaVuSans-6d"/>
       <use x="977.011719" xlink:href="#DejaVuSans-20"/>
       <use x="1008.798828" xlink:href="#DejaVuSans-43"/>
       <use x="1078.623047" xlink:href="#DejaVuSans-4e"/>
       <use x="1153.427734" xlink:href="#DejaVuSans-4e"/>
      </g>
     </g>
    </g>
    <g id="text_8">
     <!-- Algorithms -->
     <g transform="translate(220.193594 332.128437)scale(0.1 -0.1)">
      <defs>
       <path d="M 603 4863 
L 1178 4863 
L 1178 0 
L 603 0 
L 603 4863 
z
" id="DejaVuSans-6c" transform="scale(0.015625)"/>
       <path d="M 2834 3397 
L 2834 2853 
Q 2591 2978 2328 3040 
Q 2066 3103 1784 3103 
Q 1356 3103 1142 2972 
Q 928 2841 928 2578 
Q 928 2378 1081 2264 
Q 1234 2150 1697 2047 
L 1894 2003 
Q 2506 1872 2764 1633 
Q 3022 1394 3022 966 
Q 3022 478 2636 193 
Q 2250 -91 1575 -91 
Q 1294 -91 989 -36 
Q 684 19 347 128 
L 347 722 
Q 666 556 975 473 
Q 1284 391 1588 391 
Q 1994 391 2212 530 
Q 2431 669 2431 922 
Q 2431 1156 2273 1281 
Q 2116 1406 1581 1522 
L 1381 1569 
Q 847 1681 609 1914 
Q 372 2147 372 2553 
Q 372 3047 722 3315 
Q 1072 3584 1716 3584 
Q 2034 3584 2315 3537 
Q 2597 3491 2834 3397 
z
" id="DejaVuSans-73" transform="scale(0.015625)"/>
      </defs>
      <use xlink:href="#DejaVuSans-41"/>
      <use x="68.408203" xlink:href="#DejaVuSans-6c"/>
      <use x="96.191406" xlink:href="#DejaVuSans-67"/>
      <use x="159.667969" xlink:href="#DejaVuSans-6f"/>
      <use x="220.849609" xlink:href="#DejaVuSans-72"/>
      <use x="261.962891" xlink:href="#DejaVuSans-69"/>
      <use x="289.746094" xlink:href="#DejaVuSans-74"/>
      <use x="328.955078" xlink:href="#DejaVuSans-68"/>
      <use x="392.333984" xlink:href="#DejaVuSans-6d"/>
      <use x="489.746094" xlink:href="#DejaVuSans-73"/>
     </g>
    </g>
   </g>
   <g id="matplotlib.axis_2">
    <g id="ytick_1">
     <g id="line2d_15">
      <path clip-path="url(#p8fe01bb521)" d="M 44.57 159.702421 
L 450 159.702421 
" style="fill:none;stroke:#b0b0b0;stroke-linecap:square;stroke-width:0.8;"/>
     </g>
     <g id="line2d_16">
      <defs>
       <path d="M 0 0 
L -3.5 0 
" id="m4e0cefc9fb" style="stroke:#000000;stroke-width:0.8;"/>
      </defs>
      <g>
       <use style="stroke:#000000;stroke-width:0.8;" x="44.57" xlink:href="#m4e0cefc9fb" y="159.702421"/>
      </g>
     </g>
     <g id="text_9">
      <!-- 4 -->
      <g transform="translate(31.2075 163.50164)scale(0.1 -0.1)">
       <defs>
        <path d="M 2419 4116 
L 825 1625 
L 2419 1625 
L 2419 4116 
z
M 2253 4666 
L 3047 4666 
L 3047 1625 
L 3713 1625 
L 3713 1100 
L 3047 1100 
L 3047 0 
L 2419 0 
L 2419 1100 
L 313 1100 
L 313 1709 
L 2253 4666 
z
" id="DejaVuSans-34" transform="scale(0.015625)"/>
       </defs>
       <use xlink:href="#DejaVuSans-34"/>
      </g>
     </g>
    </g>
    <g id="ytick_2">
     <g id="line2d_17">
      <path clip-path="url(#p8fe01bb521)" d="M 44.57 119.187518 
L 450 119.187518 
" style="fill:none;stroke:#b0b0b0;stroke-linecap:square;stroke-width:0.8;"/>
     </g>
     <g id="line2d_18">
      <g>
       <use style="stroke:#000000;stroke-width:0.8;" x="44.57" xlink:href="#m4e0cefc9fb" y="119.187518"/>
      </g>
     </g>
     <g id="text_10">
      <!-- 6 -->
      <g transform="translate(31.2075 122.986736)scale(0.1 -0.1)">
       <defs>
        <path d="M 2113 2584 
Q 1688 2584 1439 2293 
Q 1191 2003 1191 1497 
Q 1191 994 1439 701 
Q 1688 409 2113 409 
Q 2538 409 2786 701 
Q 3034 994 3034 1497 
Q 3034 2003 2786 2293 
Q 2538 2584 2113 2584 
z
M 3366 4563 
L 3366 3988 
Q 3128 4100 2886 4159 
Q 2644 4219 2406 4219 
Q 1781 4219 1451 3797 
Q 1122 3375 1075 2522 
Q 1259 2794 1537 2939 
Q 1816 3084 2150 3084 
Q 2853 3084 3261 2657 
Q 3669 2231 3669 1497 
Q 3669 778 3244 343 
Q 2819 -91 2113 -91 
Q 1303 -91 875 529 
Q 447 1150 447 2328 
Q 447 3434 972 4092 
Q 1497 4750 2381 4750 
Q 2619 4750 2861 4703 
Q 3103 4656 3366 4563 
z
" id="DejaVuSans-36" transform="scale(0.015625)"/>
       </defs>
       <use xlink:href="#DejaVuSans-36"/>
      </g>
     </g>
    </g>
    <g id="ytick_3">
     <g id="line2d_19">
      <path clip-path="url(#p8fe01bb521)" d="M 44.57 78.672614 
L 450 78.672614 
" style="fill:none;stroke:#b0b0b0;stroke-linecap:square;stroke-width:0.8;"/>
     </g>
     <g id="line2d_20">
      <g>
       <use style="stroke:#000000;stroke-width:0.8;" x="44.57" xlink:href="#m4e0cefc9fb" y="78.672614"/>
      </g>
     </g>
     <g id="text_11">
      <!-- 8 -->
      <g transform="translate(31.2075 82.471833)scale(0.1 -0.1)">
       <defs>
        <path d="M 2034 2216 
Q 1584 2216 1326 1975 
Q 1069 1734 1069 1313 
Q 1069 891 1326 650 
Q 1584 409 2034 409 
Q 2484 409 2743 651 
Q 3003 894 3003 1313 
Q 3003 1734 2745 1975 
Q 2488 2216 2034 2216 
z
M 1403 2484 
Q 997 2584 770 2862 
Q 544 3141 544 3541 
Q 544 4100 942 4425 
Q 1341 4750 2034 4750 
Q 2731 4750 3128 4425 
Q 3525 4100 3525 3541 
Q 3525 3141 3298 2862 
Q 3072 2584 2669 2484 
Q 3125 2378 3379 2068 
Q 3634 1759 3634 1313 
Q 3634 634 3220 271 
Q 2806 -91 2034 -91 
Q 1263 -91 848 271 
Q 434 634 434 1313 
Q 434 1759 690 2068 
Q 947 2378 1403 2484 
z
M 1172 3481 
Q 1172 3119 1398 2916 
Q 1625 2713 2034 2713 
Q 2441 2713 2670 2916 
Q 2900 3119 2900 3481 
Q 2900 3844 2670 4047 
Q 2441 4250 2034 4250 
Q 1625 4250 1398 4047 
Q 1172 3844 1172 3481 
z
" id="DejaVuSans-38" transform="scale(0.015625)"/>
       </defs>
       <use xlink:href="#DejaVuSans-38"/>
      </g>
     </g>
    </g>
    <g id="ytick_4">
     <g id="line2d_21">
      <path clip-path="url(#p8fe01bb521)" d="M 44.57 38.15771 
L 450 38.15771 
" style="fill:none;stroke:#b0b0b0;stroke-linecap:square;stroke-width:0.8;"/>
     </g>
     <g id="line2d_22">
      <g>
       <use style="stroke:#000000;stroke-width:0.8;" x="44.57" xlink:href="#m4e0cefc9fb" y="38.15771"/>
      </g>
     </g>
     <g id="text_12">
      <!-- 10 -->
      <g transform="translate(24.845 41.956929)scale(0.1 -0.1)">
       <use xlink:href="#DejaVuSans-31"/>
       <use x="63.623047" xlink:href="#DejaVuSans-30"/>
      </g>
     </g>
    </g>
    <g id="text_13">
     <!-- Entropy -->
     <g transform="translate(18.765313 118.129219)rotate(-90)scale(0.1 -0.1)">
      <defs>
       <path d="M 628 4666 
L 3578 4666 
L 3578 4134 
L 1259 4134 
L 1259 2753 
L 3481 2753 
L 3481 2222 
L 1259 2222 
L 1259 531 
L 3634 531 
L 3634 0 
L 628 0 
L 628 4666 
z
" id="DejaVuSans-45" transform="scale(0.015625)"/>
       <path d="M 1159 525 
L 1159 -1331 
L 581 -1331 
L 581 3500 
L 1159 3500 
L 1159 2969 
Q 1341 3281 1617 3432 
Q 1894 3584 2278 3584 
Q 2916 3584 3314 3078 
Q 3713 2572 3713 1747 
Q 3713 922 3314 415 
Q 2916 -91 2278 -91 
Q 1894 -91 1617 61 
Q 1341 213 1159 525 
z
M 3116 1747 
Q 3116 2381 2855 2742 
Q 2594 3103 2138 3103 
Q 1681 3103 1420 2742 
Q 1159 2381 1159 1747 
Q 1159 1113 1420 752 
Q 1681 391 2138 391 
Q 2594 391 2855 752 
Q 3116 1113 3116 1747 
z
" id="DejaVuSans-70" transform="scale(0.015625)"/>
       <path d="M 2059 -325 
Q 1816 -950 1584 -1140 
Q 1353 -1331 966 -1331 
L 506 -1331 
L 506 -850 
L 844 -850 
Q 1081 -850 1212 -737 
Q 1344 -625 1503 -206 
L 1606 56 
L 191 3500 
L 800 3500 
L 1894 763 
L 2988 3500 
L 3597 3500 
L 2059 -325 
z
" id="DejaVuSans-79" transform="scale(0.015625)"/>
      </defs>
      <use xlink:href="#DejaVuSans-45"/>
      <use x="63.183594" xlink:href="#DejaVuSans-6e"/>
      <use x="126.5625" xlink:href="#DejaVuSans-74"/>
      <use x="165.771484" xlink:href="#DejaVuSans-72"/>
      <use x="204.634766" xlink:href="#DejaVuSans-6f"/>
      <use x="265.816406" xlink:href="#DejaVuSans-70"/>
      <use x="329.292969" xlink:href="#DejaVuSans-79"/>
     </g>
    </g>
   </g>
   <g id="LineCollection_1">
    <path clip-path="url(#p8fe01bb521)" d="M 78.355833 120.61074 
L 78.355833 118.191283 
" style="fill:none;stroke:#000000;stroke-width:3;"/>
    <path clip-path="url(#p8fe01bb521)" d="M 134.665556 124.401016 
L 134.665556 120.446663 
" style="fill:none;stroke:#000000;stroke-width:3;"/>
    <path clip-path="url(#p8fe01bb521)" d="M 190.975278 125.063224 
L 190.975278 119.512852 
" style="fill:none;stroke:#000000;stroke-width:3;"/>
    <path clip-path="url(#p8fe01bb521)" d="M 247.285 143.991472 
L 247.285 138.038962 
" style="fill:none;stroke:#000000;stroke-width:3;"/>
    <path clip-path="url(#p8fe01bb521)" d="M 303.594722 149.471939 
L 303.594722 130.732935 
" style="fill:none;stroke:#000000;stroke-width:3;"/>
    <path clip-path="url(#p8fe01bb521)" d="M 359.904444 147.255532 
L 359.904444 138.310339 
" style="fill:none;stroke:#000000;stroke-width:3;"/>
    <path clip-path="url(#p8fe01bb521)" d="M 416.214167 139.182231 
L 416.214167 128.679477 
" style="fill:none;stroke:#000000;stroke-width:3;"/>
   </g>
   <g id="LineCollection_2">
    <path clip-path="url(#p8fe01bb521)" d="M 78.355833 121.262604 
L 78.355833 117.848261 
" style="fill:none;stroke:#000000;"/>
    <path clip-path="url(#p8fe01bb521)" d="M 134.665556 126.033562 
L 134.665556 120.432076 
" style="fill:none;stroke:#000000;"/>
    <path clip-path="url(#p8fe01bb521)" d="M 190.975278 126.2237 
L 190.975278 117.71557 
" style="fill:none;stroke:#000000;"/>
    <path clip-path="url(#p8fe01bb521)" d="M 247.285 145.487203 
L 247.285 136.508034 
" style="fill:none;stroke:#000000;"/>
    <path clip-path="url(#p8fe01bb521)" d="M 303.594722 158.559167 
L 303.594722 134.329368 
" style="fill:none;stroke:#000000;"/>
    <path clip-path="url(#p8fe01bb521)" d="M 359.904444 151.243633 
L 359.904444 138.442949 
" style="fill:none;stroke:#000000;"/>
    <path clip-path="url(#p8fe01bb521)" d="M 416.214167 140.95672 
L 416.214167 126.257083 
" style="fill:none;stroke:#000000;"/>
   </g>
   <g id="LineCollection_3">
    <path clip-path="url(#p8fe01bb521)" d="M 78.355833 38.850833 
L 78.355833 38.850833 
" style="fill:none;stroke:#ff0000;"/>
    <path clip-path="url(#p8fe01bb521)" d="M 134.665556 38.850833 
L 134.665556 38.850833 
" style="fill:none;stroke:#ff0000;"/>
    <path clip-path="url(#p8fe01bb521)" d="M 190.975278 38.850833 
L 190.975278 38.850833 
" style="fill:none;stroke:#ff0000;"/>
    <path clip-path="url(#p8fe01bb521)" d="M 247.285 38.850833 
L 247.285 38.850833 
" style="fill:none;stroke:#ff0000;"/>
    <path clip-path="url(#p8fe01bb521)" d="M 303.594722 38.850833 
L 303.594722 38.850833 
" style="fill:none;stroke:#ff0000;"/>
    <path clip-path="url(#p8fe01bb521)" d="M 359.904444 38.850833 
L 359.904444 38.850833 
" style="fill:none;stroke:#ff0000;"/>
    <path clip-path="url(#p8fe01bb521)" d="M 416.214167 38.850833 
L 416.214167 38.850833 
" style="fill:none;stroke:#ff0000;"/>
   </g>
   <g id="line2d_23">
    <defs>
     <path d="M 0 3 
C 0.795609 3 1.55874 2.683901 2.12132 2.12132 
C 2.683901 1.55874 3 0.795609 3 0 
C 3 -0.795609 2.683901 -1.55874 2.12132 -2.12132 
C 1.55874 -2.683901 0.795609 -3 0 -3 
C -0.795609 -3 -1.55874 -2.683901 -2.12132 -2.12132 
C -2.683901 -1.55874 -3 -0.795609 -3 0 
C -3 0.795609 -2.683901 1.55874 -2.12132 2.12132 
C -1.55874 2.683901 -0.795609 3 0 3 
z
" id="m3bddf2aae2" style="stroke:#000000;"/>
    </defs>
    <g clip-path="url(#p8fe01bb521)">
     <use style="stroke:#000000;" x="78.355833" xlink:href="#m3bddf2aae2" y="119.401012"/>
     <use style="stroke:#000000;" x="134.665556" xlink:href="#m3bddf2aae2" y="122.42384"/>
     <use style="stroke:#000000;" x="190.975278" xlink:href="#m3bddf2aae2" y="122.288038"/>
     <use style="stroke:#000000;" x="247.285" xlink:href="#m3bddf2aae2" y="141.015217"/>
     <use style="stroke:#000000;" x="303.594722" xlink:href="#m3bddf2aae2" y="140.102437"/>
     <use style="stroke:#000000;" x="359.904444" xlink:href="#m3bddf2aae2" y="142.782935"/>
     <use style="stroke:#000000;" x="416.214167" xlink:href="#m3bddf2aae2" y="133.930854"/>
    </g>
   </g>
   <g id="line2d_24">
    <defs>
     <path d="M 0 1.5 
C 0.397805 1.5 0.77937 1.341951 1.06066 1.06066 
C 1.341951 0.77937 1.5 0.397805 1.5 0 
C 1.5 -0.397805 1.341951 -0.77937 1.06066 -1.06066 
C 0.77937 -1.341951 0.397805 -1.5 0 -1.5 
C -0.397805 -1.5 -0.77937 -1.341951 -1.06066 -1.06066 
C -1.341951 -0.77937 -1.5 -0.397805 -1.5 0 
C -1.5 0.397805 -1.341951 0.77937 -1.06066 1.06066 
C -0.77937 1.341951 -0.397805 1.5 0 1.5 
z
" id="m6f2ec80b35" style="stroke:#000000;"/>
    </defs>
    <g clip-path="url(#p8fe01bb521)">
     <use style="stroke:#000000;" x="78.355833" xlink:href="#m6f2ec80b35" y="119.401012"/>
     <use style="stroke:#000000;" x="134.665556" xlink:href="#m6f2ec80b35" y="122.42384"/>
     <use style="stroke:#000000;" x="190.975278" xlink:href="#m6f2ec80b35" y="122.288038"/>
     <use style="stroke:#000000;" x="247.285" xlink:href="#m6f2ec80b35" y="141.015217"/>
     <use style="stroke:#000000;" x="303.594722" xlink:href="#m6f2ec80b35" y="140.102437"/>
     <use style="stroke:#000000;" x="359.904444" xlink:href="#m6f2ec80b35" y="142.782935"/>
     <use style="stroke:#000000;" x="416.214167" xlink:href="#m6f2ec80b35" y="133.930854"/>
    </g>
   </g>
   <g id="line2d_25">
    <defs>
     <path d="M -0 4.242641 
L 4.242641 0 
L 0 -4.242641 
L -4.242641 -0 
z
" id="m3f69292eea" style="stroke:#ff0000;stroke-linejoin:miter;"/>
    </defs>
    <g clip-path="url(#p8fe01bb521)">
     <use style="fill:#ff0000;stroke:#ff0000;stroke-linejoin:miter;" x="78.355833" xlink:href="#m3f69292eea" y="38.850833"/>
     <use style="fill:#ff0000;stroke:#ff0000;stroke-linejoin:miter;" x="134.665556" xlink:href="#m3f69292eea" y="38.850833"/>
     <use style="fill:#ff0000;stroke:#ff0000;stroke-linejoin:miter;" x="190.975278" xlink:href="#m3f69292eea" y="38.850833"/>
     <use style="fill:#ff0000;stroke:#ff0000;stroke-linejoin:miter;" x="247.285" xlink:href="#m3f69292eea" y="38.850833"/>
     <use style="fill:#ff0000;stroke:#ff0000;stroke-linejoin:miter;" x="303.594722" xlink:href="#m3f69292eea" y="38.850833"/>
     <use style="fill:#ff0000;stroke:#ff0000;stroke-linejoin:miter;" x="359.904444" xlink:href="#m3f69292eea" y="38.850833"/>
     <use style="fill:#ff0000;stroke:#ff0000;stroke-linejoin:miter;" x="416.214167" xlink:href="#m3f69292eea" y="38.850833"/>
    </g>
   </g>
   <g id="patch_3">
    <path d="M 44.57 170.53 
L 44.57 26.88 
" style="fill:none;stroke:#000000;stroke-linecap:square;stroke-linejoin:miter;stroke-width:0.8;"/>
   </g>
   <g id="patch_4">
    <path d="M 450 170.53 
L 450 26.88 
" style="fill:none;stroke:#000000;stroke-linecap:square;stroke-linejoin:miter;stroke-width:0.8;"/>
   </g>
   <g id="patch_5">
    <path d="M 44.57 170.53 
L 450 170.53 
" style="fill:none;stroke:#000000;stroke-linecap:square;stroke-linejoin:miter;stroke-width:0.8;"/>
   </g>
   <g id="patch_6">
    <path d="M 44.57 26.88 
L 450 26.88 
" style="fill:none;stroke:#000000;stroke-linecap:square;stroke-linejoin:miter;stroke-width:0.8;"/>
   </g>
   <g id="text_14">
    <!-- Fairness -->
    <g transform="translate(222.930625 20.88)scale(0.12 -0.12)">
     <defs>
      <path d="M 2194 1759 
Q 1497 1759 1228 1600 
Q 959 1441 959 1056 
Q 959 750 1161 570 
Q 1363 391 1709 391 
Q 2188 391 2477 730 
Q 2766 1069 2766 1631 
L 2766 1759 
L 2194 1759 
z
M 3341 1997 
L 3341 0 
L 2766 0 
L 2766 531 
Q 2569 213 2275 61 
Q 1981 -91 1556 -91 
Q 1019 -91 701 211 
Q 384 513 384 1019 
Q 384 1609 779 1909 
Q 1175 2209 1959 2209 
L 2766 2209 
L 2766 2266 
Q 2766 2663 2505 2880 
Q 2244 3097 1772 3097 
Q 1472 3097 1187 3025 
Q 903 2953 641 2809 
L 641 3341 
Q 956 3463 1253 3523 
Q 1550 3584 1831 3584 
Q 2591 3584 2966 3190 
Q 3341 2797 3341 1997 
z
" id="DejaVuSans-61" transform="scale(0.015625)"/>
     </defs>
     <use xlink:href="#DejaVuSans-46"/>
     <use x="48.394531" xlink:href="#DejaVuSans-61"/>
     <use x="109.673828" xlink:href="#DejaVuSans-69"/>
     <use x="137.457031" xlink:href="#DejaVuSans-72"/>
     <use x="176.820312" xlink:href="#DejaVuSans-6e"/>
     <use x="240.199219" xlink:href="#DejaVuSans-65"/>
     <use x="301.722656" xlink:href="#DejaVuSans-73"/>
     <use x="353.822266" xlink:href="#DejaVuSans-73"/>
    </g>
   </g>
   <g id="axes_2">
    <g id="patch_7">
     <path d="M 56.7329 91.5225 
L 97.2759 91.5225 
L 97.2759 55.61 
L 56.7329 55.61 
z
" style="fill:#ffffff;"/>
    </g>
    <g id="patch_8">
     <path clip-path="url(#pe5625c4c29)" d="M 63.800432 91.5225 
L 64.000825 91.5225 
L 64.000825 88.891548 
L 63.800432 88.891548 
z
" style="fill:#1f77b4;"/>
    </g>
    <g id="patch_9">
     <path clip-path="url(#pe5625c4c29)" d="M 64.000825 91.5225 
L 64.201219 91.5225 
L 64.201219 86.260595 
L 64.000825 86.260595 
z
" style="fill:#1f77b4;"/>
    </g>
    <g id="patch_10">
     <path clip-path="url(#pe5625c4c29)" d="M 64.201219 91.5225 
L 64.401612 91.5225 
L 64.401612 86.260595 
L 64.201219 86.260595 
z
" style="fill:#1f77b4;"/>
    </g>
    <g id="patch_11">
     <path clip-path="url(#pe5625c4c29)" d="M 64.401612 91.5225 
L 64.602005 91.5225 
L 64.602005 86.260595 
L 64.401612 86.260595 
z
" style="fill:#1f77b4;"/>
    </g>
    <g id="patch_12">
     <path clip-path="url(#pe5625c4c29)" d="M 64.602005 91.5225 
L 64.802399 91.5225 
L 64.802399 73.105833 
L 64.602005 73.105833 
z
" style="fill:#1f77b4;"/>
    </g>
    <g id="patch_13">
     <path clip-path="url(#pe5625c4c29)" d="M 64.802399 91.5225 
L 65.002792 91.5225 
L 65.002792 80.99869 
L 64.802399 80.99869 
z
" style="fill:#1f77b4;"/>
    </g>
    <g id="patch_14">
     <path clip-path="url(#pe5625c4c29)" d="M 65.002792 91.5225 
L 65.203186 91.5225 
L 65.203186 75.736786 
L 65.002792 75.736786 
z
" style="fill:#1f77b4;"/>
    </g>
    <g id="patch_15">
     <path clip-path="url(#pe5625c4c29)" d="M 65.203186 91.5225 
L 65.403579 91.5225 
L 65.403579 70.474881 
L 65.203186 70.474881 
z
" style="fill:#1f77b4;"/>
    </g>
    <g id="patch_16">
     <path clip-path="url(#pe5625c4c29)" d="M 65.403579 91.5225 
L 65.603972 91.5225 
L 65.603972 70.474881 
L 65.403579 70.474881 
z
" style="fill:#1f77b4;"/>
    </g>
    <g id="patch_17">
     <path clip-path="url(#pe5625c4c29)" d="M 65.603972 91.5225 
L 65.804366 91.5225 
L 65.804366 67.843929 
L 65.603972 67.843929 
z
" style="fill:#1f77b4;"/>
    </g>
    <g id="patch_18">
     <path clip-path="url(#pe5625c4c29)" d="M 65.804366 91.5225 
L 66.004759 91.5225 
L 66.004759 80.99869 
L 65.804366 80.99869 
z
" style="fill:#1f77b4;"/>
    </g>
    <g id="patch_19">
     <path clip-path="url(#pe5625c4c29)" d="M 66.004759 91.5225 
L 66.205152 91.5225 
L 66.205152 86.260595 
L 66.004759 86.260595 
z
" style="fill:#1f77b4;"/>
    </g>
    <g id="patch_20">
     <path clip-path="url(#pe5625c4c29)" d="M 66.205152 91.5225 
L 66.405546 91.5225 
L 66.405546 73.105833 
L 66.205152 73.105833 
z
" style="fill:#1f77b4;"/>
    </g>
    <g id="patch_21">
     <path clip-path="url(#pe5625c4c29)" d="M 66.405546 91.5225 
L 66.605939 91.5225 
L 66.605939 57.320119 
L 66.405546 57.320119 
z
" style="fill:#1f77b4;"/>
    </g>
    <g id="patch_22">
     <path clip-path="url(#pe5625c4c29)" d="M 66.605939 91.5225 
L 66.806333 91.5225 
L 66.806333 73.105833 
L 66.605939 73.105833 
z
" style="fill:#1f77b4;"/>
    </g>
    <g id="patch_23">
     <path clip-path="url(#pe5625c4c29)" d="M 66.806333 91.5225 
L 67.006726 91.5225 
L 67.006726 78.367738 
L 66.806333 78.367738 
z
" style="fill:#1f77b4;"/>
    </g>
    <g id="patch_24">
     <path clip-path="url(#pe5625c4c29)" d="M 67.006726 91.5225 
L 67.207119 91.5225 
L 67.207119 78.367738 
L 67.006726 78.367738 
z
" style="fill:#1f77b4;"/>
    </g>
    <g id="patch_25">
     <path clip-path="url(#pe5625c4c29)" d="M 67.207119 91.5225 
L 67.407513 91.5225 
L 67.407513 83.629643 
L 67.207119 83.629643 
z
" style="fill:#1f77b4;"/>
    </g>
    <g id="patch_26">
     <path clip-path="url(#pe5625c4c29)" d="M 67.407513 91.5225 
L 67.607906 91.5225 
L 67.607906 86.260595 
L 67.407513 86.260595 
z
" style="fill:#1f77b4;"/>
    </g>
    <g id="patch_27">
     <path clip-path="url(#pe5625c4c29)" d="M 67.607906 91.5225 
L 67.808299 91.5225 
L 67.808299 83.629643 
L 67.607906 83.629643 
z
" style="fill:#1f77b4;"/>
    </g>
    <g id="patch_28">
     <path d="M 56.7329 91.5225 
L 56.7329 55.61 
" style="fill:none;stroke:#000000;stroke-linecap:square;stroke-linejoin:miter;stroke-width:0.8;"/>
    </g>
    <g id="patch_29">
     <path d="M 97.2759 91.5225 
L 97.2759 55.61 
" style="fill:none;stroke:#000000;stroke-linecap:square;stroke-linejoin:miter;stroke-width:0.8;"/>
    </g>
    <g id="patch_30">
     <path d="M 56.7329 91.5225 
L 97.2759 91.5225 
" style="fill:none;stroke:#000000;stroke-linecap:square;stroke-linejoin:miter;stroke-width:0.8;"/>
    </g>
    <g id="patch_31">
     <path d="M 56.7329 55.61 
L 97.2759 55.61 
" style="fill:none;stroke:#000000;stroke-linecap:square;stroke-linejoin:miter;stroke-width:0.8;"/>
    </g>
   </g>
   <g id="axes_3">
    <g id="patch_32">
     <path d="M 113.290385 91.5225 
L 153.833385 91.5225 
L 153.833385 55.61 
L 113.290385 55.61 
z
" style="fill:#ffffff;"/>
    </g>
    <g id="patch_33">
     <path clip-path="url(#p1260f19938)" d="M 120.357917 91.5225 
L 120.55831 91.5225 
L 120.55831 88.891548 
L 120.357917 88.891548 
z
" style="fill:#1f77b4;"/>
    </g>
    <g id="patch_34">
     <path clip-path="url(#p1260f19938)" d="M 120.55831 91.5225 
L 120.758704 91.5225 
L 120.758704 86.260595 
L 120.55831 86.260595 
z
" style="fill:#1f77b4;"/>
    </g>
    <g id="patch_35">
     <path clip-path="url(#p1260f19938)" d="M 120.758704 91.5225 
L 120.959097 91.5225 
L 120.959097 86.260595 
L 120.758704 86.260595 
z
" style="fill:#1f77b4;"/>
    </g>
    <g id="patch_36">
     <path clip-path="url(#p1260f19938)" d="M 120.959097 91.5225 
L 121.15949 91.5225 
L 121.15949 86.260595 
L 120.959097 86.260595 
z
" style="fill:#1f77b4;"/>
    </g>
    <g id="patch_37">
     <path clip-path="url(#p1260f19938)" d="M 121.15949 91.5225 
L 121.359884 91.5225 
L 121.359884 73.105833 
L 121.15949 73.105833 
z
" style="fill:#1f77b4;"/>
    </g>
    <g id="patch_38">
     <path clip-path="url(#p1260f19938)" d="M 121.359884 91.5225 
L 121.560277 91.5225 
L 121.560277 80.99869 
L 121.359884 80.99869 
z
" style="fill:#1f77b4;"/>
    </g>
    <g id="patch_39">
     <path clip-path="url(#p1260f19938)" d="M 121.560277 91.5225 
L 121.760671 91.5225 
L 121.760671 75.736786 
L 121.560277 75.736786 
z
" style="fill:#1f77b4;"/>
    </g>
    <g id="patch_40">
     <path clip-path="url(#p1260f19938)" d="M 121.760671 91.5225 
L 121.961064 91.5225 
L 121.961064 70.474881 
L 121.760671 70.474881 
z
" style="fill:#1f77b4;"/>
    </g>
    <g id="patch_41">
     <path clip-path="url(#p1260f19938)" d="M 121.961064 91.5225 
L 122.161457 91.5225 
L 122.161457 70.474881 
L 121.961064 70.474881 
z
" style="fill:#1f77b4;"/>
    </g>
    <g id="patch_42">
     <path clip-path="url(#p1260f19938)" d="M 122.161457 91.5225 
L 122.361851 91.5225 
L 122.361851 67.843929 
L 122.161457 67.843929 
z
" style="fill:#1f77b4;"/>
    </g>
    <g id="patch_43">
     <path clip-path="url(#p1260f19938)" d="M 122.361851 91.5225 
L 122.562244 91.5225 
L 122.562244 80.99869 
L 122.361851 80.99869 
z
" style="fill:#1f77b4;"/>
    </g>
    <g id="patch_44">
     <path clip-path="url(#p1260f19938)" d="M 122.562244 91.5225 
L 122.762637 91.5225 
L 122.762637 86.260595 
L 122.562244 86.260595 
z
" style="fill:#1f77b4;"/>
    </g>
    <g id="patch_45">
     <path clip-path="url(#p1260f19938)" d="M 122.762637 91.5225 
L 122.963031 91.5225 
L 122.963031 73.105833 
L 122.762637 73.105833 
z
" style="fill:#1f77b4;"/>
    </g>
    <g id="patch_46">
     <path clip-path="url(#p1260f19938)" d="M 122.963031 91.5225 
L 123.163424 91.5225 
L 123.163424 57.320119 
L 122.963031 57.320119 
z
" style="fill:#1f77b4;"/>
    </g>
    <g id="patch_47">
     <path clip-path="url(#p1260f19938)" d="M 123.163424 91.5225 
L 123.363818 91.5225 
L 123.363818 73.105833 
L 123.163424 73.105833 
z
" style="fill:#1f77b4;"/>
    </g>
    <g id="patch_48">
     <path clip-path="url(#p1260f19938)" d="M 123.363818 91.5225 
L 123.564211 91.5225 
L 123.564211 78.367738 
L 123.363818 78.367738 
z
" style="fill:#1f77b4;"/>
    </g>
    <g id="patch_49">
     <path clip-path="url(#p1260f19938)" d="M 123.564211 91.5225 
L 123.764604 91.5225 
L 123.764604 78.367738 
L 123.564211 78.367738 
z
" style="fill:#1f77b4;"/>
    </g>
    <g id="patch_50">
     <path clip-path="url(#p1260f19938)" d="M 123.764604 91.5225 
L 123.964998 91.5225 
L 123.964998 83.629643 
L 123.764604 83.629643 
z
" style="fill:#1f77b4;"/>
    </g>
    <g id="patch_51">
     <path clip-path="url(#p1260f19938)" d="M 123.964998 91.5225 
L 124.165391 91.5225 
L 124.165391 86.260595 
L 123.964998 86.260595 
z
" style="fill:#1f77b4;"/>
    </g>
    <g id="patch_52">
     <path clip-path="url(#p1260f19938)" d="M 124.165391 91.5225 
L 124.365784 91.5225 
L 124.365784 83.629643 
L 124.165391 83.629643 
z
" style="fill:#1f77b4;"/>
    </g>
    <g id="patch_53">
     <path d="M 113.290385 91.5225 
L 113.290385 55.61 
" style="fill:none;stroke:#000000;stroke-linecap:square;stroke-linejoin:miter;stroke-width:0.8;"/>
    </g>
    <g id="patch_54">
     <path d="M 153.833385 91.5225 
L 153.833385 55.61 
" style="fill:none;stroke:#000000;stroke-linecap:square;stroke-linejoin:miter;stroke-width:0.8;"/>
    </g>
    <g id="patch_55">
     <path d="M 113.290385 91.5225 
L 153.833385 91.5225 
" style="fill:none;stroke:#000000;stroke-linecap:square;stroke-linejoin:miter;stroke-width:0.8;"/>
    </g>
    <g id="patch_56">
     <path d="M 113.290385 55.61 
L 153.833385 55.61 
" style="fill:none;stroke:#000000;stroke-linecap:square;stroke-linejoin:miter;stroke-width:0.8;"/>
    </g>
   </g>
   <g id="axes_4">
    <g id="patch_57">
     <path d="M 169.84787 91.5225 
L 210.39087 91.5225 
L 210.39087 55.61 
L 169.84787 55.61 
z
" style="fill:#ffffff;"/>
    </g>
    <g id="patch_58">
     <path clip-path="url(#p5002531bda)" d="M 176.915402 91.5225 
L 177.115795 91.5225 
L 177.115795 88.891548 
L 176.915402 88.891548 
z
" style="fill:#1f77b4;"/>
    </g>
    <g id="patch_59">
     <path clip-path="url(#p5002531bda)" d="M 177.115795 91.5225 
L 177.316189 91.5225 
L 177.316189 86.260595 
L 177.115795 86.260595 
z
" style="fill:#1f77b4;"/>
    </g>
    <g id="patch_60">
     <path clip-path="url(#p5002531bda)" d="M 177.316189 91.5225 
L 177.516582 91.5225 
L 177.516582 86.260595 
L 177.316189 86.260595 
z
" style="fill:#1f77b4;"/>
    </g>
    <g id="patch_61">
     <path clip-path="url(#p5002531bda)" d="M 177.516582 91.5225 
L 177.716975 91.5225 
L 177.716975 86.260595 
L 177.516582 86.260595 
z
" style="fill:#1f77b4;"/>
    </g>
    <g id="patch_62">
     <path clip-path="url(#p5002531bda)" d="M 177.716975 91.5225 
L 177.917369 91.5225 
L 177.917369 73.105833 
L 177.716975 73.105833 
z
" style="fill:#1f77b4;"/>
    </g>
    <g id="patch_63">
     <path clip-path="url(#p5002531bda)" d="M 177.917369 91.5225 
L 178.117762 91.5225 
L 178.117762 80.99869 
L 177.917369 80.99869 
z
" style="fill:#1f77b4;"/>
    </g>
    <g id="patch_64">
     <path clip-path="url(#p5002531bda)" d="M 178.117762 91.5225 
L 178.318156 91.5225 
L 178.318156 75.736786 
L 178.117762 75.736786 
z
" style="fill:#1f77b4;"/>
    </g>
    <g id="patch_65">
     <path clip-path="url(#p5002531bda)" d="M 178.318156 91.5225 
L 178.518549 91.5225 
L 178.518549 70.474881 
L 178.318156 70.474881 
z
" style="fill:#1f77b4;"/>
    </g>
    <g id="patch_66">
     <path clip-path="url(#p5002531bda)" d="M 178.518549 91.5225 
L 178.718942 91.5225 
L 178.718942 70.474881 
L 178.518549 70.474881 
z
" style="fill:#1f77b4;"/>
    </g>
    <g id="patch_67">
     <path clip-path="url(#p5002531bda)" d="M 178.718942 91.5225 
L 178.919336 91.5225 
L 178.919336 67.843929 
L 178.718942 67.843929 
z
" style="fill:#1f77b4;"/>
    </g>
    <g id="patch_68">
     <path clip-path="url(#p5002531bda)" d="M 178.919336 91.5225 
L 179.119729 91.5225 
L 179.119729 80.99869 
L 178.919336 80.99869 
z
" style="fill:#1f77b4;"/>
    </g>
    <g id="patch_69">
     <path clip-path="url(#p5002531bda)" d="M 179.119729 91.5225 
L 179.320122 91.5225 
L 179.320122 86.260595 
L 179.119729 86.260595 
z
" style="fill:#1f77b4;"/>
    </g>
    <g id="patch_70">
     <path clip-path="url(#p5002531bda)" d="M 179.320122 91.5225 
L 179.520516 91.5225 
L 179.520516 73.105833 
L 179.320122 73.105833 
z
" style="fill:#1f77b4;"/>
    </g>
    <g id="patch_71">
     <path clip-path="url(#p5002531bda)" d="M 179.520516 91.5225 
L 179.720909 91.5225 
L 179.720909 57.320119 
L 179.520516 57.320119 
z
" style="fill:#1f77b4;"/>
    </g>
    <g id="patch_72">
     <path clip-path="url(#p5002531bda)" d="M 179.720909 91.5225 
L 179.921303 91.5225 
L 179.921303 73.105833 
L 179.720909 73.105833 
z
" style="fill:#1f77b4;"/>
    </g>
    <g id="patch_73">
     <path clip-path="url(#p5002531bda)" d="M 179.921303 91.5225 
L 180.121696 91.5225 
L 180.121696 78.367738 
L 179.921303 78.367738 
z
" style="fill:#1f77b4;"/>
    </g>
    <g id="patch_74">
     <path clip-path="url(#p5002531bda)" d="M 180.121696 91.5225 
L 180.322089 91.5225 
L 180.322089 78.367738 
L 180.121696 78.367738 
z
" style="fill:#1f77b4;"/>
    </g>
    <g id="patch_75">
     <path clip-path="url(#p5002531bda)" d="M 180.322089 91.5225 
L 180.522483 91.5225 
L 180.522483 83.629643 
L 180.322089 83.629643 
z
" style="fill:#1f77b4;"/>
    </g>
    <g id="patch_76">
     <path clip-path="url(#p5002531bda)" d="M 180.522483 91.5225 
L 180.722876 91.5225 
L 180.722876 86.260595 
L 180.522483 86.260595 
z
" style="fill:#1f77b4;"/>
    </g>
    <g id="patch_77">
     <path clip-path="url(#p5002531bda)" d="M 180.722876 91.5225 
L 180.923269 91.5225 
L 180.923269 83.629643 
L 180.722876 83.629643 
z
" style="fill:#1f77b4;"/>
    </g>
    <g id="patch_78">
     <path d="M 169.84787 91.5225 
L 169.84787 55.61 
" style="fill:none;stroke:#000000;stroke-linecap:square;stroke-linejoin:miter;stroke-width:0.8;"/>
    </g>
    <g id="patch_79">
     <path d="M 210.39087 91.5225 
L 210.39087 55.61 
" style="fill:none;stroke:#000000;stroke-linecap:square;stroke-linejoin:miter;stroke-width:0.8;"/>
    </g>
    <g id="patch_80">
     <path d="M 169.84787 91.5225 
L 210.39087 91.5225 
" style="fill:none;stroke:#000000;stroke-linecap:square;stroke-linejoin:miter;stroke-width:0.8;"/>
    </g>
    <g id="patch_81">
     <path d="M 169.84787 55.61 
L 210.39087 55.61 
" style="fill:none;stroke:#000000;stroke-linecap:square;stroke-linejoin:miter;stroke-width:0.8;"/>
    </g>
   </g>
   <g id="axes_5">
    <g id="patch_82">
     <path d="M 226.405355 91.5225 
L 266.948355 91.5225 
L 266.948355 55.61 
L 226.405355 55.61 
z
" style="fill:#ffffff;"/>
    </g>
    <g id="patch_83">
     <path clip-path="url(#p137e3b3003)" d="M 233.472887 91.5225 
L 233.67328 91.5225 
L 233.67328 88.891548 
L 233.472887 88.891548 
z
" style="fill:#1f77b4;"/>
    </g>
    <g id="patch_84">
     <path clip-path="url(#p137e3b3003)" d="M 233.67328 91.5225 
L 233.873674 91.5225 
L 233.873674 86.260595 
L 233.67328 86.260595 
z
" style="fill:#1f77b4;"/>
    </g>
    <g id="patch_85">
     <path clip-path="url(#p137e3b3003)" d="M 233.873674 91.5225 
L 234.074067 91.5225 
L 234.074067 86.260595 
L 233.873674 86.260595 
z
" style="fill:#1f77b4;"/>
    </g>
    <g id="patch_86">
     <path clip-path="url(#p137e3b3003)" d="M 234.074067 91.5225 
L 234.27446 91.5225 
L 234.27446 86.260595 
L 234.074067 86.260595 
z
" style="fill:#1f77b4;"/>
    </g>
    <g id="patch_87">
     <path clip-path="url(#p137e3b3003)" d="M 234.27446 91.5225 
L 234.474854 91.5225 
L 234.474854 73.105833 
L 234.27446 73.105833 
z
" style="fill:#1f77b4;"/>
    </g>
    <g id="patch_88">
     <path clip-path="url(#p137e3b3003)" d="M 234.474854 91.5225 
L 234.675247 91.5225 
L 234.675247 80.99869 
L 234.474854 80.99869 
z
" style="fill:#1f77b4;"/>
    </g>
    <g id="patch_89">
     <path clip-path="url(#p137e3b3003)" d="M 234.675247 91.5225 
L 234.875641 91.5225 
L 234.875641 75.736786 
L 234.675247 75.736786 
z
" style="fill:#1f77b4;"/>
    </g>
    <g id="patch_90">
     <path clip-path="url(#p137e3b3003)" d="M 234.875641 91.5225 
L 235.076034 91.5225 
L 235.076034 70.474881 
L 234.875641 70.474881 
z
" style="fill:#1f77b4;"/>
    </g>
    <g id="patch_91">
     <path clip-path="url(#p137e3b3003)" d="M 235.076034 91.5225 
L 235.276427 91.5225 
L 235.276427 70.474881 
L 235.076034 70.474881 
z
" style="fill:#1f77b4;"/>
    </g>
    <g id="patch_92">
     <path clip-path="url(#p137e3b3003)" d="M 235.276427 91.5225 
L 235.476821 91.5225 
L 235.476821 67.843929 
L 235.276427 67.843929 
z
" style="fill:#1f77b4;"/>
    </g>
    <g id="patch_93">
     <path clip-path="url(#p137e3b3003)" d="M 235.476821 91.5225 
L 235.677214 91.5225 
L 235.677214 80.99869 
L 235.476821 80.99869 
z
" style="fill:#1f77b4;"/>
    </g>
    <g id="patch_94">
     <path clip-path="url(#p137e3b3003)" d="M 235.677214 91.5225 
L 235.877607 91.5225 
L 235.877607 86.260595 
L 235.677214 86.260595 
z
" style="fill:#1f77b4;"/>
    </g>
    <g id="patch_95">
     <path clip-path="url(#p137e3b3003)" d="M 235.877607 91.5225 
L 236.078001 91.5225 
L 236.078001 73.105833 
L 235.877607 73.105833 
z
" style="fill:#1f77b4;"/>
    </g>
    <g id="patch_96">
     <path clip-path="url(#p137e3b3003)" d="M 236.078001 91.5225 
L 236.278394 91.5225 
L 236.278394 57.320119 
L 236.078001 57.320119 
z
" style="fill:#1f77b4;"/>
    </g>
    <g id="patch_97">
     <path clip-path="url(#p137e3b3003)" d="M 236.278394 91.5225 
L 236.478788 91.5225 
L 236.478788 73.105833 
L 236.278394 73.105833 
z
" style="fill:#1f77b4;"/>
    </g>
    <g id="patch_98">
     <path clip-path="url(#p137e3b3003)" d="M 236.478788 91.5225 
L 236.679181 91.5225 
L 236.679181 78.367738 
L 236.478788 78.367738 
z
" style="fill:#1f77b4;"/>
    </g>
    <g id="patch_99">
     <path clip-path="url(#p137e3b3003)" d="M 236.679181 91.5225 
L 236.879574 91.5225 
L 236.879574 78.367738 
L 236.679181 78.367738 
z
" style="fill:#1f77b4;"/>
    </g>
    <g id="patch_100">
     <path clip-path="url(#p137e3b3003)" d="M 236.879574 91.5225 
L 237.079968 91.5225 
L 237.079968 83.629643 
L 236.879574 83.629643 
z
" style="fill:#1f77b4;"/>
    </g>
    <g id="patch_101">
     <path clip-path="url(#p137e3b3003)" d="M 237.079968 91.5225 
L 237.280361 91.5225 
L 237.280361 86.260595 
L 237.079968 86.260595 
z
" style="fill:#1f77b4;"/>
    </g>
    <g id="patch_102">
     <path clip-path="url(#p137e3b3003)" d="M 237.280361 91.5225 
L 237.480754 91.5225 
L 237.480754 83.629643 
L 237.280361 83.629643 
z
" style="fill:#1f77b4;"/>
    </g>
    <g id="patch_103">
     <path d="M 226.405355 91.5225 
L 226.405355 55.61 
" style="fill:none;stroke:#000000;stroke-linecap:square;stroke-linejoin:miter;stroke-width:0.8;"/>
    </g>
    <g id="patch_104">
     <path d="M 266.948355 91.5225 
L 266.948355 55.61 
" style="fill:none;stroke:#000000;stroke-linecap:square;stroke-linejoin:miter;stroke-width:0.8;"/>
    </g>
    <g id="patch_105">
     <path d="M 226.405355 91.5225 
L 266.948355 91.5225 
" style="fill:none;stroke:#000000;stroke-linecap:square;stroke-linejoin:miter;stroke-width:0.8;"/>
    </g>
    <g id="patch_106">
     <path d="M 226.405355 55.61 
L 266.948355 55.61 
" style="fill:none;stroke:#000000;stroke-linecap:square;stroke-linejoin:miter;stroke-width:0.8;"/>
    </g>
   </g>
   <g id="axes_6">
    <g id="patch_107">
     <path d="M 282.96284 91.5225 
L 323.50584 91.5225 
L 323.50584 55.61 
L 282.96284 55.61 
z
" style="fill:#ffffff;"/>
    </g>
    <g id="patch_108">
     <path clip-path="url(#p89f47c5003)" d="M 290.030372 91.5225 
L 290.230765 91.5225 
L 290.230765 88.891548 
L 290.030372 88.891548 
z
" style="fill:#1f77b4;"/>
    </g>
    <g id="patch_109">
     <path clip-path="url(#p89f47c5003)" d="M 290.230765 91.5225 
L 290.431159 91.5225 
L 290.431159 86.260595 
L 290.230765 86.260595 
z
" style="fill:#1f77b4;"/>
    </g>
    <g id="patch_110">
     <path clip-path="url(#p89f47c5003)" d="M 290.431159 91.5225 
L 290.631552 91.5225 
L 290.631552 86.260595 
L 290.431159 86.260595 
z
" style="fill:#1f77b4;"/>
    </g>
    <g id="patch_111">
     <path clip-path="url(#p89f47c5003)" d="M 290.631552 91.5225 
L 290.831945 91.5225 
L 290.831945 86.260595 
L 290.631552 86.260595 
z
" style="fill:#1f77b4;"/>
    </g>
    <g id="patch_112">
     <path clip-path="url(#p89f47c5003)" d="M 290.831945 91.5225 
L 291.032339 91.5225 
L 291.032339 73.105833 
L 290.831945 73.105833 
z
" style="fill:#1f77b4;"/>
    </g>
    <g id="patch_113">
     <path clip-path="url(#p89f47c5003)" d="M 291.032339 91.5225 
L 291.232732 91.5225 
L 291.232732 80.99869 
L 291.032339 80.99869 
z
" style="fill:#1f77b4;"/>
    </g>
    <g id="patch_114">
     <path clip-path="url(#p89f47c5003)" d="M 291.232732 91.5225 
L 291.433126 91.5225 
L 291.433126 75.736786 
L 291.232732 75.736786 
z
" style="fill:#1f77b4;"/>
    </g>
    <g id="patch_115">
     <path clip-path="url(#p89f47c5003)" d="M 291.433126 91.5225 
L 291.633519 91.5225 
L 291.633519 70.474881 
L 291.433126 70.474881 
z
" style="fill:#1f77b4;"/>
    </g>
    <g id="patch_116">
     <path clip-path="url(#p89f47c5003)" d="M 291.633519 91.5225 
L 291.833912 91.5225 
L 291.833912 70.474881 
L 291.633519 70.474881 
z
" style="fill:#1f77b4;"/>
    </g>
    <g id="patch_117">
     <path clip-path="url(#p89f47c5003)" d="M 291.833912 91.5225 
L 292.034306 91.5225 
L 292.034306 67.843929 
L 291.833912 67.843929 
z
" style="fill:#1f77b4;"/>
    </g>
    <g id="patch_118">
     <path clip-path="url(#p89f47c5003)" d="M 292.034306 91.5225 
L 292.234699 91.5225 
L 292.234699 80.99869 
L 292.034306 80.99869 
z
" style="fill:#1f77b4;"/>
    </g>
    <g id="patch_119">
     <path clip-path="url(#p89f47c5003)" d="M 292.234699 91.5225 
L 292.435092 91.5225 
L 292.435092 86.260595 
L 292.234699 86.260595 
z
" style="fill:#1f77b4;"/>
    </g>
    <g id="patch_120">
     <path clip-path="url(#p89f47c5003)" d="M 292.435092 91.5225 
L 292.635486 91.5225 
L 292.635486 73.105833 
L 292.435092 73.105833 
z
" style="fill:#1f77b4;"/>
    </g>
    <g id="patch_121">
     <path clip-path="url(#p89f47c5003)" d="M 292.635486 91.5225 
L 292.835879 91.5225 
L 292.835879 57.320119 
L 292.635486 57.320119 
z
" style="fill:#1f77b4;"/>
    </g>
    <g id="patch_122">
     <path clip-path="url(#p89f47c5003)" d="M 292.835879 91.5225 
L 293.036273 91.5225 
L 293.036273 73.105833 
L 292.835879 73.105833 
z
" style="fill:#1f77b4;"/>
    </g>
    <g id="patch_123">
     <path clip-path="url(#p89f47c5003)" d="M 293.036273 91.5225 
L 293.236666 91.5225 
L 293.236666 78.367738 
L 293.036273 78.367738 
z
" style="fill:#1f77b4;"/>
    </g>
    <g id="patch_124">
     <path clip-path="url(#p89f47c5003)" d="M 293.236666 91.5225 
L 293.437059 91.5225 
L 293.437059 78.367738 
L 293.236666 78.367738 
z
" style="fill:#1f77b4;"/>
    </g>
    <g id="patch_125">
     <path clip-path="url(#p89f47c5003)" d="M 293.437059 91.5225 
L 293.637453 91.5225 
L 293.637453 83.629643 
L 293.437059 83.629643 
z
" style="fill:#1f77b4;"/>
    </g>
    <g id="patch_126">
     <path clip-path="url(#p89f47c5003)" d="M 293.637453 91.5225 
L 293.837846 91.5225 
L 293.837846 86.260595 
L 293.637453 86.260595 
z
" style="fill:#1f77b4;"/>
    </g>
    <g id="patch_127">
     <path clip-path="url(#p89f47c5003)" d="M 293.837846 91.5225 
L 294.038239 91.5225 
L 294.038239 83.629643 
L 293.837846 83.629643 
z
" style="fill:#1f77b4;"/>
    </g>
    <g id="patch_128">
     <path d="M 282.96284 91.5225 
L 282.96284 55.61 
" style="fill:none;stroke:#000000;stroke-linecap:square;stroke-linejoin:miter;stroke-width:0.8;"/>
    </g>
    <g id="patch_129">
     <path d="M 323.50584 91.5225 
L 323.50584 55.61 
" style="fill:none;stroke:#000000;stroke-linecap:square;stroke-linejoin:miter;stroke-width:0.8;"/>
    </g>
    <g id="patch_130">
     <path d="M 282.96284 91.5225 
L 323.50584 91.5225 
" style="fill:none;stroke:#000000;stroke-linecap:square;stroke-linejoin:miter;stroke-width:0.8;"/>
    </g>
    <g id="patch_131">
     <path d="M 282.96284 55.61 
L 323.50584 55.61 
" style="fill:none;stroke:#000000;stroke-linecap:square;stroke-linejoin:miter;stroke-width:0.8;"/>
    </g>
   </g>
   <g id="axes_7">
    <g id="patch_132">
     <path d="M 339.520325 91.5225 
L 380.063325 91.5225 
L 380.063325 55.61 
L 339.520325 55.61 
z
" style="fill:#ffffff;"/>
    </g>
    <g id="patch_133">
     <path clip-path="url(#p41dddb88e0)" d="M 346.587857 91.5225 
L 346.78825 91.5225 
L 346.78825 88.891548 
L 346.587857 88.891548 
z
" style="fill:#1f77b4;"/>
    </g>
    <g id="patch_134">
     <path clip-path="url(#p41dddb88e0)" d="M 346.78825 91.5225 
L 346.988644 91.5225 
L 346.988644 86.260595 
L 346.78825 86.260595 
z
" style="fill:#1f77b4;"/>
    </g>
    <g id="patch_135">
     <path clip-path="url(#p41dddb88e0)" d="M 346.988644 91.5225 
L 347.189037 91.5225 
L 347.189037 86.260595 
L 346.988644 86.260595 
z
" style="fill:#1f77b4;"/>
    </g>
    <g id="patch_136">
     <path clip-path="url(#p41dddb88e0)" d="M 347.189037 91.5225 
L 347.38943 91.5225 
L 347.38943 86.260595 
L 347.189037 86.260595 
z
" style="fill:#1f77b4;"/>
    </g>
    <g id="patch_137">
     <path clip-path="url(#p41dddb88e0)" d="M 347.38943 91.5225 
L 347.589824 91.5225 
L 347.589824 73.105833 
L 347.38943 73.105833 
z
" style="fill:#1f77b4;"/>
    </g>
    <g id="patch_138">
     <path clip-path="url(#p41dddb88e0)" d="M 347.589824 91.5225 
L 347.790217 91.5225 
L 347.790217 80.99869 
L 347.589824 80.99869 
z
" style="fill:#1f77b4;"/>
    </g>
    <g id="patch_139">
     <path clip-path="url(#p41dddb88e0)" d="M 347.790217 91.5225 
L 347.990611 91.5225 
L 347.990611 75.736786 
L 347.790217 75.736786 
z
" style="fill:#1f77b4;"/>
    </g>
    <g id="patch_140">
     <path clip-path="url(#p41dddb88e0)" d="M 347.990611 91.5225 
L 348.191004 91.5225 
L 348.191004 70.474881 
L 347.990611 70.474881 
z
" style="fill:#1f77b4;"/>
    </g>
    <g id="patch_141">
     <path clip-path="url(#p41dddb88e0)" d="M 348.191004 91.5225 
L 348.391397 91.5225 
L 348.391397 70.474881 
L 348.191004 70.474881 
z
" style="fill:#1f77b4;"/>
    </g>
    <g id="patch_142">
     <path clip-path="url(#p41dddb88e0)" d="M 348.391397 91.5225 
L 348.591791 91.5225 
L 348.591791 67.843929 
L 348.391397 67.843929 
z
" style="fill:#1f77b4;"/>
    </g>
    <g id="patch_143">
     <path clip-path="url(#p41dddb88e0)" d="M 348.591791 91.5225 
L 348.792184 91.5225 
L 348.792184 80.99869 
L 348.591791 80.99869 
z
" style="fill:#1f77b4;"/>
    </g>
    <g id="patch_144">
     <path clip-path="url(#p41dddb88e0)" d="M 348.792184 91.5225 
L 348.992577 91.5225 
L 348.992577 86.260595 
L 348.792184 86.260595 
z
" style="fill:#1f77b4;"/>
    </g>
    <g id="patch_145">
     <path clip-path="url(#p41dddb88e0)" d="M 348.992577 91.5225 
L 349.192971 91.5225 
L 349.192971 73.105833 
L 348.992577 73.105833 
z
" style="fill:#1f77b4;"/>
    </g>
    <g id="patch_146">
     <path clip-path="url(#p41dddb88e0)" d="M 349.192971 91.5225 
L 349.393364 91.5225 
L 349.393364 57.320119 
L 349.192971 57.320119 
z
" style="fill:#1f77b4;"/>
    </g>
    <g id="patch_147">
     <path clip-path="url(#p41dddb88e0)" d="M 349.393364 91.5225 
L 349.593758 91.5225 
L 349.593758 73.105833 
L 349.393364 73.105833 
z
" style="fill:#1f77b4;"/>
    </g>
    <g id="patch_148">
     <path clip-path="url(#p41dddb88e0)" d="M 349.593758 91.5225 
L 349.794151 91.5225 
L 349.794151 78.367738 
L 349.593758 78.367738 
z
" style="fill:#1f77b4;"/>
    </g>
    <g id="patch_149">
     <path clip-path="url(#p41dddb88e0)" d="M 349.794151 91.5225 
L 349.994544 91.5225 
L 349.994544 78.367738 
L 349.794151 78.367738 
z
" style="fill:#1f77b4;"/>
    </g>
    <g id="patch_150">
     <path clip-path="url(#p41dddb88e0)" d="M 349.994544 91.5225 
L 350.194938 91.5225 
L 350.194938 83.629643 
L 349.994544 83.629643 
z
" style="fill:#1f77b4;"/>
    </g>
    <g id="patch_151">
     <path clip-path="url(#p41dddb88e0)" d="M 350.194938 91.5225 
L 350.395331 91.5225 
L 350.395331 86.260595 
L 350.194938 86.260595 
z
" style="fill:#1f77b4;"/>
    </g>
    <g id="patch_152">
     <path clip-path="url(#p41dddb88e0)" d="M 350.395331 91.5225 
L 350.595724 91.5225 
L 350.595724 83.629643 
L 350.395331 83.629643 
z
" style="fill:#1f77b4;"/>
    </g>
    <g id="patch_153">
     <path d="M 339.520325 91.5225 
L 339.520325 55.61 
" style="fill:none;stroke:#000000;stroke-linecap:square;stroke-linejoin:miter;stroke-width:0.8;"/>
    </g>
    <g id="patch_154">
     <path d="M 380.063325 91.5225 
L 380.063325 55.61 
" style="fill:none;stroke:#000000;stroke-linecap:square;stroke-linejoin:miter;stroke-width:0.8;"/>
    </g>
    <g id="patch_155">
     <path d="M 339.520325 91.5225 
L 380.063325 91.5225 
" style="fill:none;stroke:#000000;stroke-linecap:square;stroke-linejoin:miter;stroke-width:0.8;"/>
    </g>
    <g id="patch_156">
     <path d="M 339.520325 55.61 
L 380.063325 55.61 
" style="fill:none;stroke:#000000;stroke-linecap:square;stroke-linejoin:miter;stroke-width:0.8;"/>
    </g>
   </g>
   <g id="axes_8">
    <g id="patch_157">
     <path d="M 396.07781 91.5225 
L 436.62081 91.5225 
L 436.62081 55.61 
L 396.07781 55.61 
z
" style="fill:#ffffff;"/>
    </g>
    <g id="patch_158">
     <path clip-path="url(#p587e555f2b)" d="M 403.145342 91.5225 
L 403.345735 91.5225 
L 403.345735 88.891548 
L 403.145342 88.891548 
z
" style="fill:#1f77b4;"/>
    </g>
    <g id="patch_159">
     <path clip-path="url(#p587e555f2b)" d="M 403.345735 91.5225 
L 403.546129 91.5225 
L 403.546129 86.260595 
L 403.345735 86.260595 
z
" style="fill:#1f77b4;"/>
    </g>
    <g id="patch_160">
     <path clip-path="url(#p587e555f2b)" d="M 403.546129 91.5225 
L 403.746522 91.5225 
L 403.746522 86.260595 
L 403.546129 86.260595 
z
" style="fill:#1f77b4;"/>
    </g>
    <g id="patch_161">
     <path clip-path="url(#p587e555f2b)" d="M 403.746522 91.5225 
L 403.946915 91.5225 
L 403.946915 86.260595 
L 403.746522 86.260595 
z
" style="fill:#1f77b4;"/>
    </g>
    <g id="patch_162">
     <path clip-path="url(#p587e555f2b)" d="M 403.946915 91.5225 
L 404.147309 91.5225 
L 404.147309 73.105833 
L 403.946915 73.105833 
z
" style="fill:#1f77b4;"/>
    </g>
    <g id="patch_163">
     <path clip-path="url(#p587e555f2b)" d="M 404.147309 91.5225 
L 404.347702 91.5225 
L 404.347702 80.99869 
L 404.147309 80.99869 
z
" style="fill:#1f77b4;"/>
    </g>
    <g id="patch_164">
     <path clip-path="url(#p587e555f2b)" d="M 404.347702 91.5225 
L 404.548096 91.5225 
L 404.548096 75.736786 
L 404.347702 75.736786 
z
" style="fill:#1f77b4;"/>
    </g>
    <g id="patch_165">
     <path clip-path="url(#p587e555f2b)" d="M 404.548096 91.5225 
L 404.748489 91.5225 
L 404.748489 70.474881 
L 404.548096 70.474881 
z
" style="fill:#1f77b4;"/>
    </g>
    <g id="patch_166">
     <path clip-path="url(#p587e555f2b)" d="M 404.748489 91.5225 
L 404.948882 91.5225 
L 404.948882 70.474881 
L 404.748489 70.474881 
z
" style="fill:#1f77b4;"/>
    </g>
    <g id="patch_167">
     <path clip-path="url(#p587e555f2b)" d="M 404.948882 91.5225 
L 405.149276 91.5225 
L 405.149276 67.843929 
L 404.948882 67.843929 
z
" style="fill:#1f77b4;"/>
    </g>
    <g id="patch_168">
     <path clip-path="url(#p587e555f2b)" d="M 405.149276 91.5225 
L 405.349669 91.5225 
L 405.349669 80.99869 
L 405.149276 80.99869 
z
" style="fill:#1f77b4;"/>
    </g>
    <g id="patch_169">
     <path clip-path="url(#p587e555f2b)" d="M 405.349669 91.5225 
L 405.550062 91.5225 
L 405.550062 86.260595 
L 405.349669 86.260595 
z
" style="fill:#1f77b4;"/>
    </g>
    <g id="patch_170">
     <path clip-path="url(#p587e555f2b)" d="M 405.550062 91.5225 
L 405.750456 91.5225 
L 405.750456 73.105833 
L 405.550062 73.105833 
z
" style="fill:#1f77b4;"/>
    </g>
    <g id="patch_171">
     <path clip-path="url(#p587e555f2b)" d="M 405.750456 91.5225 
L 405.950849 91.5225 
L 405.950849 57.320119 
L 405.750456 57.320119 
z
" style="fill:#1f77b4;"/>
    </g>
    <g id="patch_172">
     <path clip-path="url(#p587e555f2b)" d="M 405.950849 91.5225 
L 406.151243 91.5225 
L 406.151243 73.105833 
L 405.950849 73.105833 
z
" style="fill:#1f77b4;"/>
    </g>
    <g id="patch_173">
     <path clip-path="url(#p587e555f2b)" d="M 406.151243 91.5225 
L 406.351636 91.5225 
L 406.351636 78.367738 
L 406.151243 78.367738 
z
" style="fill:#1f77b4;"/>
    </g>
    <g id="patch_174">
     <path clip-path="url(#p587e555f2b)" d="M 406.351636 91.5225 
L 406.552029 91.5225 
L 406.552029 78.367738 
L 406.351636 78.367738 
z
" style="fill:#1f77b4;"/>
    </g>
    <g id="patch_175">
     <path clip-path="url(#p587e555f2b)" d="M 406.552029 91.5225 
L 406.752423 91.5225 
L 406.752423 83.629643 
L 406.552029 83.629643 
z
" style="fill:#1f77b4;"/>
    </g>
    <g id="patch_176">
     <path clip-path="url(#p587e555f2b)" d="M 406.752423 91.5225 
L 406.952816 91.5225 
L 406.952816 86.260595 
L 406.752423 86.260595 
z
" style="fill:#1f77b4;"/>
    </g>
    <g id="patch_177">
     <path clip-path="url(#p587e555f2b)" d="M 406.952816 91.5225 
L 407.153209 91.5225 
L 407.153209 83.629643 
L 406.952816 83.629643 
z
" style="fill:#1f77b4;"/>
    </g>
    <g id="patch_178">
     <path d="M 396.07781 91.5225 
L 396.07781 55.61 
" style="fill:none;stroke:#000000;stroke-linecap:square;stroke-linejoin:miter;stroke-width:0.8;"/>
    </g>
    <g id="patch_179">
     <path d="M 436.62081 91.5225 
L 436.62081 55.61 
" style="fill:none;stroke:#000000;stroke-linecap:square;stroke-linejoin:miter;stroke-width:0.8;"/>
    </g>
    <g id="patch_180">
     <path d="M 396.07781 91.5225 
L 436.62081 91.5225 
" style="fill:none;stroke:#000000;stroke-linecap:square;stroke-linejoin:miter;stroke-width:0.8;"/>
    </g>
    <g id="patch_181">
     <path d="M 396.07781 55.61 
L 436.62081 55.61 
" style="fill:none;stroke:#000000;stroke-linecap:square;stroke-linejoin:miter;stroke-width:0.8;"/>
    </g>
   </g>
  </g>
 </g>
 <defs>
  <clipPath id="p8fe01bb521">
   <rect height="143.65" width="405.43" x="44.57" y="26.88"/>
  </clipPath>
  <clipPath id="pe5625c4c29">
   <rect height="35.9125" width="40.543" x="56.7329" y="55.61"/>
  </clipPath>
  <clipPath id="p1260f19938">
   <rect height="35.9125" width="40.543" x="113.290385" y="55.61"/>
  </clipPath>
  <clipPath id="p5002531bda">
   <rect height="35.9125" width="40.543" x="169.84787" y="55.61"/>
  </clipPath>
  <clipPath id="p137e3b3003">
   <rect height="35.9125" width="40.543" x="226.405355" y="55.61"/>
  </clipPath>
  <clipPath id="p89f47c5003">
   <rect height="35.9125" width="40.543" x="282.96284" y="55.61"/>
  </clipPath>
  <clipPath id="p41dddb88e0">
   <rect height="35.9125" width="40.543" x="339.520325" y="55.61"/>
  </clipPath>
  <clipPath id="p587e555f2b">
   <rect height="35.9125" width="40.543" x="396.07781" y="55.61"/>
  </clipPath>
 </defs>
</svg>
