<?xml version="1.0" encoding="utf-8" standalone="no"?>
<!DOCTYPE svg PUBLIC "-//W3C//DTD SVG 1.1//EN"
  "http://www.w3.org/Graphics/SVG/1.1/DTD/svg11.dtd">
<svg height="432pt" version="1.1" viewBox="0 0 576 432" width="576pt" xmlns="http://www.w3.org/2000/svg" xmlns:xlink="http://www.w3.org/1999/xlink">
 <metadata>
  <rdf:RDF xmlns:cc="http://creativecommons.org/ns#" xmlns:dc="http://purl.org/dc/elements/1.1/" xmlns:rdf="http://www.w3.org/1999/02/22-rdf-syntax-ns#">
   <cc:Work>
    <dc:type rdf:resource="http://purl.org/dc/dcmitype/StillImage"/>
    <dc:date>2021-05-07T23:42:12.499244</dc:date>
    <dc:format>image/svg+xml</dc:format>
    <dc:creator>
     <cc:Agent>
      <dc:title>Matplotlib v3.4.1, https://matplotlib.org/</dc:title>
     </cc:Agent>
    </dc:creator>
   </cc:Work>
  </rdf:RDF>
 </metadata>
 <defs>
  <style type="text/css">*{stroke-linecap:butt;stroke-linejoin:round;}</style>
 </defs>
 <g id="figure_1">
  <g id="patch_1">
   <path d="M 0 432 
L 576 432 
L 576 0 
L 0 0 
z
" style="fill:#ffffff;"/>
  </g>
  <g id="axes_1">
   <g id="patch_2">
    <path d="M 60.68 263.120779 
L 559.8 263.120779 
L 559.8 16.2 
L 60.68 16.2 
z
" style="fill:#ffffff;"/>
   </g>
   <g id="matplotlib.axis_1">
    <g id="xtick_1">
     <g id="line2d_1">
      <path clip-path="url(#pb65599e4c7)" d="M 102.273333 263.120779 
L 102.273333 16.2 
" style="fill:none;stroke:#b0b0b0;stroke-linecap:square;stroke-width:0.8;"/>
     </g>
     <g id="line2d_2">
      <defs>
       <path d="M 0 0 
L 0 3.5 
" id="mdccea84d96" style="stroke:#000000;stroke-width:0.8;"/>
      </defs>
      <g>
       <use style="stroke:#000000;stroke-width:0.8;" x="102.273333" xlink:href="#mdccea84d96" y="263.120779"/>
      </g>
     </g>
     <g id="text_1">
      <!-- FedAvg LSTM -->
      <g transform="translate(30.002601 348.24503)rotate(-45)scale(0.15 -0.15)">
       <defs>
        <path d="M 628 4666 
L 3309 4666 
L 3309 4134 
L 1259 4134 
L 1259 2759 
L 3109 2759 
L 3109 2228 
L 1259 2228 
L 1259 0 
L 628 0 
L 628 4666 
z
" id="DejaVuSans-46" transform="scale(0.015625)"/>
        <path d="M 3597 1894 
L 3597 1613 
L 953 1613 
Q 991 1019 1311 708 
Q 1631 397 2203 397 
Q 2534 397 2845 478 
Q 3156 559 3463 722 
L 3463 178 
Q 3153 47 2828 -22 
Q 2503 -91 2169 -91 
Q 1331 -91 842 396 
Q 353 884 353 1716 
Q 353 2575 817 3079 
Q 1281 3584 2069 3584 
Q 2775 3584 3186 3129 
Q 3597 2675 3597 1894 
z
M 3022 2063 
Q 3016 2534 2758 2815 
Q 2500 3097 2075 3097 
Q 1594 3097 1305 2825 
Q 1016 2553 972 2059 
L 3022 2063 
z
" id="DejaVuSans-65" transform="scale(0.015625)"/>
        <path d="M 2906 2969 
L 2906 4863 
L 3481 4863 
L 3481 0 
L 2906 0 
L 2906 525 
Q 2725 213 2448 61 
Q 2172 -91 1784 -91 
Q 1150 -91 751 415 
Q 353 922 353 1747 
Q 353 2572 751 3078 
Q 1150 3584 1784 3584 
Q 2172 3584 2448 3432 
Q 2725 3281 2906 2969 
z
M 947 1747 
Q 947 1113 1208 752 
Q 1469 391 1925 391 
Q 2381 391 2643 752 
Q 2906 1113 2906 1747 
Q 2906 2381 2643 2742 
Q 2381 3103 1925 3103 
Q 1469 3103 1208 2742 
Q 947 2381 947 1747 
z
" id="DejaVuSans-64" transform="scale(0.015625)"/>
        <path d="M 2188 4044 
L 1331 1722 
L 3047 1722 
L 2188 4044 
z
M 1831 4666 
L 2547 4666 
L 4325 0 
L 3669 0 
L 3244 1197 
L 1141 1197 
L 716 0 
L 50 0 
L 1831 4666 
z
" id="DejaVuSans-41" transform="scale(0.015625)"/>
        <path d="M 191 3500 
L 800 3500 
L 1894 563 
L 2988 3500 
L 3597 3500 
L 2284 0 
L 1503 0 
L 191 3500 
z
" id="DejaVuSans-76" transform="scale(0.015625)"/>
        <path d="M 2906 1791 
Q 2906 2416 2648 2759 
Q 2391 3103 1925 3103 
Q 1463 3103 1205 2759 
Q 947 2416 947 1791 
Q 947 1169 1205 825 
Q 1463 481 1925 481 
Q 2391 481 2648 825 
Q 2906 1169 2906 1791 
z
M 3481 434 
Q 3481 -459 3084 -895 
Q 2688 -1331 1869 -1331 
Q 1566 -1331 1297 -1286 
Q 1028 -1241 775 -1147 
L 775 -588 
Q 1028 -725 1275 -790 
Q 1522 -856 1778 -856 
Q 2344 -856 2625 -561 
Q 2906 -266 2906 331 
L 2906 616 
Q 2728 306 2450 153 
Q 2172 0 1784 0 
Q 1141 0 747 490 
Q 353 981 353 1791 
Q 353 2603 747 3093 
Q 1141 3584 1784 3584 
Q 2172 3584 2450 3431 
Q 2728 3278 2906 2969 
L 2906 3500 
L 3481 3500 
L 3481 434 
z
" id="DejaVuSans-67" transform="scale(0.015625)"/>
        <path id="DejaVuSans-20" transform="scale(0.015625)"/>
        <path d="M 628 4666 
L 1259 4666 
L 1259 531 
L 3531 531 
L 3531 0 
L 628 0 
L 628 4666 
z
" id="DejaVuSans-4c" transform="scale(0.015625)"/>
        <path d="M 3425 4513 
L 3425 3897 
Q 3066 4069 2747 4153 
Q 2428 4238 2131 4238 
Q 1616 4238 1336 4038 
Q 1056 3838 1056 3469 
Q 1056 3159 1242 3001 
Q 1428 2844 1947 2747 
L 2328 2669 
Q 3034 2534 3370 2195 
Q 3706 1856 3706 1288 
Q 3706 609 3251 259 
Q 2797 -91 1919 -91 
Q 1588 -91 1214 -16 
Q 841 59 441 206 
L 441 856 
Q 825 641 1194 531 
Q 1563 422 1919 422 
Q 2459 422 2753 634 
Q 3047 847 3047 1241 
Q 3047 1584 2836 1778 
Q 2625 1972 2144 2069 
L 1759 2144 
Q 1053 2284 737 2584 
Q 422 2884 422 3419 
Q 422 4038 858 4394 
Q 1294 4750 2059 4750 
Q 2388 4750 2728 4690 
Q 3069 4631 3425 4513 
z
" id="DejaVuSans-53" transform="scale(0.015625)"/>
        <path d="M -19 4666 
L 3928 4666 
L 3928 4134 
L 2272 4134 
L 2272 0 
L 1638 0 
L 1638 4134 
L -19 4134 
L -19 4666 
z
" id="DejaVuSans-54" transform="scale(0.015625)"/>
        <path d="M 628 4666 
L 1569 4666 
L 2759 1491 
L 3956 4666 
L 4897 4666 
L 4897 0 
L 4281 0 
L 4281 4097 
L 3078 897 
L 2444 897 
L 1241 4097 
L 1241 0 
L 628 0 
L 628 4666 
z
" id="DejaVuSans-4d" transform="scale(0.015625)"/>
       </defs>
       <use xlink:href="#DejaVuSans-46"/>
       <use x="52.019531" xlink:href="#DejaVuSans-65"/>
       <use x="113.542969" xlink:href="#DejaVuSans-64"/>
       <use x="177.019531" xlink:href="#DejaVuSans-41"/>
       <use x="239.552734" xlink:href="#DejaVuSans-76"/>
       <use x="298.732422" xlink:href="#DejaVuSans-67"/>
       <use x="362.208984" xlink:href="#DejaVuSans-20"/>
       <use x="393.996094" xlink:href="#DejaVuSans-4c"/>
       <use x="449.708984" xlink:href="#DejaVuSans-53"/>
       <use x="513.185547" xlink:href="#DejaVuSans-54"/>
       <use x="574.269531" xlink:href="#DejaVuSans-4d"/>
      </g>
     </g>
    </g>
    <g id="xtick_2">
     <g id="line2d_3">
      <path clip-path="url(#pb65599e4c7)" d="M 171.595556 263.120779 
L 171.595556 16.2 
" style="fill:none;stroke:#b0b0b0;stroke-linecap:square;stroke-width:0.8;"/>
     </g>
     <g id="line2d_4">
      <g>
       <use style="stroke:#000000;stroke-width:0.8;" x="171.595556" xlink:href="#mdccea84d96" y="263.120779"/>
      </g>
     </g>
     <g id="text_2">
      <!-- FedMed LSTM -->
      <g transform="translate(96.557163 351.01269)rotate(-45)scale(0.15 -0.15)">
       <use xlink:href="#DejaVuSans-46"/>
       <use x="52.019531" xlink:href="#DejaVuSans-65"/>
       <use x="113.542969" xlink:href="#DejaVuSans-64"/>
       <use x="177.019531" xlink:href="#DejaVuSans-4d"/>
       <use x="263.298828" xlink:href="#DejaVuSans-65"/>
       <use x="324.822266" xlink:href="#DejaVuSans-64"/>
       <use x="388.298828" xlink:href="#DejaVuSans-20"/>
       <use x="420.085938" xlink:href="#DejaVuSans-4c"/>
       <use x="475.798828" xlink:href="#DejaVuSans-53"/>
       <use x="539.275391" xlink:href="#DejaVuSans-54"/>
       <use x="600.359375" xlink:href="#DejaVuSans-4d"/>
      </g>
     </g>
    </g>
    <g id="xtick_3">
     <g id="line2d_5">
      <path clip-path="url(#pb65599e4c7)" d="M 240.917778 263.120779 
L 240.917778 16.2 
" style="fill:none;stroke:#b0b0b0;stroke-linecap:square;stroke-width:0.8;"/>
     </g>
     <g id="line2d_6">
      <g>
       <use style="stroke:#000000;stroke-width:0.8;" x="240.917778" xlink:href="#mdccea84d96" y="263.120779"/>
      </g>
     </g>
     <g id="text_3">
      <!-- FedProx LSTM -->
      <g transform="translate(165.52307 351.369006)rotate(-45)scale(0.15 -0.15)">
       <defs>
        <path d="M 1259 4147 
L 1259 2394 
L 2053 2394 
Q 2494 2394 2734 2622 
Q 2975 2850 2975 3272 
Q 2975 3691 2734 3919 
Q 2494 4147 2053 4147 
L 1259 4147 
z
M 628 4666 
L 2053 4666 
Q 2838 4666 3239 4311 
Q 3641 3956 3641 3272 
Q 3641 2581 3239 2228 
Q 2838 1875 2053 1875 
L 1259 1875 
L 1259 0 
L 628 0 
L 628 4666 
z
" id="DejaVuSans-50" transform="scale(0.015625)"/>
        <path d="M 2631 2963 
Q 2534 3019 2420 3045 
Q 2306 3072 2169 3072 
Q 1681 3072 1420 2755 
Q 1159 2438 1159 1844 
L 1159 0 
L 581 0 
L 581 3500 
L 1159 3500 
L 1159 2956 
Q 1341 3275 1631 3429 
Q 1922 3584 2338 3584 
Q 2397 3584 2469 3576 
Q 2541 3569 2628 3553 
L 2631 2963 
z
" id="DejaVuSans-72" transform="scale(0.015625)"/>
        <path d="M 1959 3097 
Q 1497 3097 1228 2736 
Q 959 2375 959 1747 
Q 959 1119 1226 758 
Q 1494 397 1959 397 
Q 2419 397 2687 759 
Q 2956 1122 2956 1747 
Q 2956 2369 2687 2733 
Q 2419 3097 1959 3097 
z
M 1959 3584 
Q 2709 3584 3137 3096 
Q 3566 2609 3566 1747 
Q 3566 888 3137 398 
Q 2709 -91 1959 -91 
Q 1206 -91 779 398 
Q 353 888 353 1747 
Q 353 2609 779 3096 
Q 1206 3584 1959 3584 
z
" id="DejaVuSans-6f" transform="scale(0.015625)"/>
        <path d="M 3513 3500 
L 2247 1797 
L 3578 0 
L 2900 0 
L 1881 1375 
L 863 0 
L 184 0 
L 1544 1831 
L 300 3500 
L 978 3500 
L 1906 2253 
L 2834 3500 
L 3513 3500 
z
" id="DejaVuSans-78" transform="scale(0.015625)"/>
       </defs>
       <use xlink:href="#DejaVuSans-46"/>
       <use x="52.019531" xlink:href="#DejaVuSans-65"/>
       <use x="113.542969" xlink:href="#DejaVuSans-64"/>
       <use x="177.019531" xlink:href="#DejaVuSans-50"/>
       <use x="235.572266" xlink:href="#DejaVuSans-72"/>
       <use x="274.435547" xlink:href="#DejaVuSans-6f"/>
       <use x="332.492188" xlink:href="#DejaVuSans-78"/>
       <use x="391.671875" xlink:href="#DejaVuSans-20"/>
       <use x="423.458984" xlink:href="#DejaVuSans-4c"/>
       <use x="479.171875" xlink:href="#DejaVuSans-53"/>
       <use x="542.648438" xlink:href="#DejaVuSans-54"/>
       <use x="603.732422" xlink:href="#DejaVuSans-4d"/>
      </g>
     </g>
    </g>
    <g id="xtick_4">
     <g id="line2d_7">
      <path clip-path="url(#pb65599e4c7)" d="M 310.24 263.120779 
L 310.24 16.2 
" style="fill:none;stroke:#b0b0b0;stroke-linecap:square;stroke-width:0.8;"/>
     </g>
     <g id="line2d_8">
      <g>
       <use style="stroke:#000000;stroke-width:0.8;" x="310.24" xlink:href="#mdccea84d96" y="263.120779"/>
      </g>
     </g>
     <g id="text_4">
      <!-- qFedAvg_001_u LSTM -->
      <g transform="translate(193.36685 392.552452)rotate(-45)scale(0.15 -0.15)">
       <defs>
        <path d="M 947 1747 
Q 947 1113 1208 752 
Q 1469 391 1925 391 
Q 2381 391 2643 752 
Q 2906 1113 2906 1747 
Q 2906 2381 2643 2742 
Q 2381 3103 1925 3103 
Q 1469 3103 1208 2742 
Q 947 2381 947 1747 
z
M 2906 525 
Q 2725 213 2448 61 
Q 2172 -91 1784 -91 
Q 1150 -91 751 415 
Q 353 922 353 1747 
Q 353 2572 751 3078 
Q 1150 3584 1784 3584 
Q 2172 3584 2448 3432 
Q 2725 3281 2906 2969 
L 2906 3500 
L 3481 3500 
L 3481 -1331 
L 2906 -1331 
L 2906 525 
z
" id="DejaVuSans-71" transform="scale(0.015625)"/>
        <path d="M 3263 -1063 
L 3263 -1509 
L -63 -1509 
L -63 -1063 
L 3263 -1063 
z
" id="DejaVuSans-5f" transform="scale(0.015625)"/>
        <path d="M 2034 4250 
Q 1547 4250 1301 3770 
Q 1056 3291 1056 2328 
Q 1056 1369 1301 889 
Q 1547 409 2034 409 
Q 2525 409 2770 889 
Q 3016 1369 3016 2328 
Q 3016 3291 2770 3770 
Q 2525 4250 2034 4250 
z
M 2034 4750 
Q 2819 4750 3233 4129 
Q 3647 3509 3647 2328 
Q 3647 1150 3233 529 
Q 2819 -91 2034 -91 
Q 1250 -91 836 529 
Q 422 1150 422 2328 
Q 422 3509 836 4129 
Q 1250 4750 2034 4750 
z
" id="DejaVuSans-30" transform="scale(0.015625)"/>
        <path d="M 794 531 
L 1825 531 
L 1825 4091 
L 703 3866 
L 703 4441 
L 1819 4666 
L 2450 4666 
L 2450 531 
L 3481 531 
L 3481 0 
L 794 0 
L 794 531 
z
" id="DejaVuSans-31" transform="scale(0.015625)"/>
        <path d="M 544 1381 
L 544 3500 
L 1119 3500 
L 1119 1403 
Q 1119 906 1312 657 
Q 1506 409 1894 409 
Q 2359 409 2629 706 
Q 2900 1003 2900 1516 
L 2900 3500 
L 3475 3500 
L 3475 0 
L 2900 0 
L 2900 538 
Q 2691 219 2414 64 
Q 2138 -91 1772 -91 
Q 1169 -91 856 284 
Q 544 659 544 1381 
z
M 1991 3584 
L 1991 3584 
z
" id="DejaVuSans-75" transform="scale(0.015625)"/>
       </defs>
       <use xlink:href="#DejaVuSans-71"/>
       <use x="63.476562" xlink:href="#DejaVuSans-46"/>
       <use x="115.496094" xlink:href="#DejaVuSans-65"/>
       <use x="177.019531" xlink:href="#DejaVuSans-64"/>
       <use x="240.496094" xlink:href="#DejaVuSans-41"/>
       <use x="303.029297" xlink:href="#DejaVuSans-76"/>
       <use x="362.208984" xlink:href="#DejaVuSans-67"/>
       <use x="425.685547" xlink:href="#DejaVuSans-5f"/>
       <use x="475.685547" xlink:href="#DejaVuSans-30"/>
       <use x="539.308594" xlink:href="#DejaVuSans-30"/>
       <use x="602.931641" xlink:href="#DejaVuSans-31"/>
       <use x="666.554688" xlink:href="#DejaVuSans-5f"/>
       <use x="716.554688" xlink:href="#DejaVuSans-75"/>
       <use x="779.933594" xlink:href="#DejaVuSans-20"/>
       <use x="811.720703" xlink:href="#DejaVuSans-4c"/>
       <use x="867.433594" xlink:href="#DejaVuSans-53"/>
       <use x="930.910156" xlink:href="#DejaVuSans-54"/>
       <use x="991.994141" xlink:href="#DejaVuSans-4d"/>
      </g>
     </g>
    </g>
    <g id="xtick_5">
     <g id="line2d_9">
      <path clip-path="url(#pb65599e4c7)" d="M 379.562222 263.120779 
L 379.562222 16.2 
" style="fill:none;stroke:#b0b0b0;stroke-linecap:square;stroke-width:0.8;"/>
     </g>
     <g id="line2d_10">
      <g>
       <use style="stroke:#000000;stroke-width:0.8;" x="379.562222" xlink:href="#mdccea84d96" y="263.120779"/>
      </g>
     </g>
     <g id="text_5">
      <!-- qFedAvg_1_w LSTM -->
      <g transform="translate(274.233695 381.007829)rotate(-45)scale(0.15 -0.15)">
       <defs>
        <path d="M 269 3500 
L 844 3500 
L 1563 769 
L 2278 3500 
L 2956 3500 
L 3675 769 
L 4391 3500 
L 4966 3500 
L 4050 0 
L 3372 0 
L 2619 2869 
L 1863 0 
L 1184 0 
L 269 3500 
z
" id="DejaVuSans-77" transform="scale(0.015625)"/>
       </defs>
       <use xlink:href="#DejaVuSans-71"/>
       <use x="63.476562" xlink:href="#DejaVuSans-46"/>
       <use x="115.496094" xlink:href="#DejaVuSans-65"/>
       <use x="177.019531" xlink:href="#DejaVuSans-64"/>
       <use x="240.496094" xlink:href="#DejaVuSans-41"/>
       <use x="303.029297" xlink:href="#DejaVuSans-76"/>
       <use x="362.208984" xlink:href="#DejaVuSans-67"/>
       <use x="425.685547" xlink:href="#DejaVuSans-5f"/>
       <use x="475.685547" xlink:href="#DejaVuSans-31"/>
       <use x="539.308594" xlink:href="#DejaVuSans-5f"/>
       <use x="589.308594" xlink:href="#DejaVuSans-77"/>
       <use x="671.095703" xlink:href="#DejaVuSans-20"/>
       <use x="702.882812" xlink:href="#DejaVuSans-4c"/>
       <use x="758.595703" xlink:href="#DejaVuSans-53"/>
       <use x="822.072266" xlink:href="#DejaVuSans-54"/>
       <use x="883.15625" xlink:href="#DejaVuSans-4d"/>
      </g>
     </g>
    </g>
    <g id="xtick_6">
     <g id="line2d_11">
      <path clip-path="url(#pb65599e4c7)" d="M 448.884444 263.120779 
L 448.884444 16.2 
" style="fill:none;stroke:#b0b0b0;stroke-linecap:square;stroke-width:0.8;"/>
     </g>
     <g id="line2d_12">
      <g>
       <use style="stroke:#000000;stroke-width:0.8;" x="448.884444" xlink:href="#mdccea84d96" y="263.120779"/>
      </g>
     </g>
     <g id="text_6">
      <!-- qFedAvg_001_w LSTM -->
      <g transform="translate(330.059017 394.504729)rotate(-45)scale(0.15 -0.15)">
       <use xlink:href="#DejaVuSans-71"/>
       <use x="63.476562" xlink:href="#DejaVuSans-46"/>
       <use x="115.496094" xlink:href="#DejaVuSans-65"/>
       <use x="177.019531" xlink:href="#DejaVuSans-64"/>
       <use x="240.496094" xlink:href="#DejaVuSans-41"/>
       <use x="303.029297" xlink:href="#DejaVuSans-76"/>
       <use x="362.208984" xlink:href="#DejaVuSans-67"/>
       <use x="425.685547" xlink:href="#DejaVuSans-5f"/>
       <use x="475.685547" xlink:href="#DejaVuSans-30"/>
       <use x="539.308594" xlink:href="#DejaVuSans-30"/>
       <use x="602.931641" xlink:href="#DejaVuSans-31"/>
       <use x="666.554688" xlink:href="#DejaVuSans-5f"/>
       <use x="716.554688" xlink:href="#DejaVuSans-77"/>
       <use x="798.341797" xlink:href="#DejaVuSans-20"/>
       <use x="830.128906" xlink:href="#DejaVuSans-4c"/>
       <use x="885.841797" xlink:href="#DejaVuSans-53"/>
       <use x="949.318359" xlink:href="#DejaVuSans-54"/>
       <use x="1010.402344" xlink:href="#DejaVuSans-4d"/>
      </g>
     </g>
    </g>
    <g id="xtick_7">
     <g id="line2d_13">
      <path clip-path="url(#pb65599e4c7)" d="M 518.206667 263.120779 
L 518.206667 16.2 
" style="fill:none;stroke:#b0b0b0;stroke-linecap:square;stroke-width:0.8;"/>
     </g>
     <g id="line2d_14">
      <g>
       <use style="stroke:#000000;stroke-width:0.8;" x="518.206667" xlink:href="#mdccea84d96" y="263.120779"/>
      </g>
     </g>
     <g id="text_7">
      <!-- qFedAvg_1_u LSTM -->
      <g transform="translate(414.830417 379.055551)rotate(-45)scale(0.15 -0.15)">
       <use xlink:href="#DejaVuSans-71"/>
       <use x="63.476562" xlink:href="#DejaVuSans-46"/>
       <use x="115.496094" xlink:href="#DejaVuSans-65"/>
       <use x="177.019531" xlink:href="#DejaVuSans-64"/>
       <use x="240.496094" xlink:href="#DejaVuSans-41"/>
       <use x="303.029297" xlink:href="#DejaVuSans-76"/>
       <use x="362.208984" xlink:href="#DejaVuSans-67"/>
       <use x="425.685547" xlink:href="#DejaVuSans-5f"/>
       <use x="475.685547" xlink:href="#DejaVuSans-31"/>
       <use x="539.308594" xlink:href="#DejaVuSans-5f"/>
       <use x="589.308594" xlink:href="#DejaVuSans-75"/>
       <use x="652.6875" xlink:href="#DejaVuSans-20"/>
       <use x="684.474609" xlink:href="#DejaVuSans-4c"/>
       <use x="740.1875" xlink:href="#DejaVuSans-53"/>
       <use x="803.664062" xlink:href="#DejaVuSans-54"/>
       <use x="864.748047" xlink:href="#DejaVuSans-4d"/>
      </g>
     </g>
    </g>
    <g id="text_8">
     <!-- Algorithms -->
     <g transform="translate(269.602891 412.403223)scale(0.15 -0.15)">
      <defs>
       <path d="M 603 4863 
L 1178 4863 
L 1178 0 
L 603 0 
L 603 4863 
z
" id="DejaVuSans-6c" transform="scale(0.015625)"/>
       <path d="M 603 3500 
L 1178 3500 
L 1178 0 
L 603 0 
L 603 3500 
z
M 603 4863 
L 1178 4863 
L 1178 4134 
L 603 4134 
L 603 4863 
z
" id="DejaVuSans-69" transform="scale(0.015625)"/>
       <path d="M 1172 4494 
L 1172 3500 
L 2356 3500 
L 2356 3053 
L 1172 3053 
L 1172 1153 
Q 1172 725 1289 603 
Q 1406 481 1766 481 
L 2356 481 
L 2356 0 
L 1766 0 
Q 1100 0 847 248 
Q 594 497 594 1153 
L 594 3053 
L 172 3053 
L 172 3500 
L 594 3500 
L 594 4494 
L 1172 4494 
z
" id="DejaVuSans-74" transform="scale(0.015625)"/>
       <path d="M 3513 2113 
L 3513 0 
L 2938 0 
L 2938 2094 
Q 2938 2591 2744 2837 
Q 2550 3084 2163 3084 
Q 1697 3084 1428 2787 
Q 1159 2491 1159 1978 
L 1159 0 
L 581 0 
L 581 4863 
L 1159 4863 
L 1159 2956 
Q 1366 3272 1645 3428 
Q 1925 3584 2291 3584 
Q 2894 3584 3203 3211 
Q 3513 2838 3513 2113 
z
" id="DejaVuSans-68" transform="scale(0.015625)"/>
       <path d="M 3328 2828 
Q 3544 3216 3844 3400 
Q 4144 3584 4550 3584 
Q 5097 3584 5394 3201 
Q 5691 2819 5691 2113 
L 5691 0 
L 5113 0 
L 5113 2094 
Q 5113 2597 4934 2840 
Q 4756 3084 4391 3084 
Q 3944 3084 3684 2787 
Q 3425 2491 3425 1978 
L 3425 0 
L 2847 0 
L 2847 2094 
Q 2847 2600 2669 2842 
Q 2491 3084 2119 3084 
Q 1678 3084 1418 2786 
Q 1159 2488 1159 1978 
L 1159 0 
L 581 0 
L 581 3500 
L 1159 3500 
L 1159 2956 
Q 1356 3278 1631 3431 
Q 1906 3584 2284 3584 
Q 2666 3584 2933 3390 
Q 3200 3197 3328 2828 
z
" id="DejaVuSans-6d" transform="scale(0.015625)"/>
       <path d="M 2834 3397 
L 2834 2853 
Q 2591 2978 2328 3040 
Q 2066 3103 1784 3103 
Q 1356 3103 1142 2972 
Q 928 2841 928 2578 
Q 928 2378 1081 2264 
Q 1234 2150 1697 2047 
L 1894 2003 
Q 2506 1872 2764 1633 
Q 3022 1394 3022 966 
Q 3022 478 2636 193 
Q 2250 -91 1575 -91 
Q 1294 -91 989 -36 
Q 684 19 347 128 
L 347 722 
Q 666 556 975 473 
Q 1284 391 1588 391 
Q 1994 391 2212 530 
Q 2431 669 2431 922 
Q 2431 1156 2273 1281 
Q 2116 1406 1581 1522 
L 1381 1569 
Q 847 1681 609 1914 
Q 372 2147 372 2553 
Q 372 3047 722 3315 
Q 1072 3584 1716 3584 
Q 2034 3584 2315 3537 
Q 2597 3491 2834 3397 
z
" id="DejaVuSans-73" transform="scale(0.015625)"/>
      </defs>
      <use xlink:href="#DejaVuSans-41"/>
      <use x="68.408203" xlink:href="#DejaVuSans-6c"/>
      <use x="96.191406" xlink:href="#DejaVuSans-67"/>
      <use x="159.667969" xlink:href="#DejaVuSans-6f"/>
      <use x="220.849609" xlink:href="#DejaVuSans-72"/>
      <use x="261.962891" xlink:href="#DejaVuSans-69"/>
      <use x="289.746094" xlink:href="#DejaVuSans-74"/>
      <use x="328.955078" xlink:href="#DejaVuSans-68"/>
      <use x="392.333984" xlink:href="#DejaVuSans-6d"/>
      <use x="489.746094" xlink:href="#DejaVuSans-73"/>
     </g>
    </g>
   </g>
   <g id="matplotlib.axis_2">
    <g id="ytick_1">
     <g id="line2d_15">
      <path clip-path="url(#pb65599e4c7)" d="M 60.68 236.788142 
L 559.8 236.788142 
" style="fill:none;stroke:#b0b0b0;stroke-linecap:square;stroke-width:0.8;"/>
     </g>
     <g id="line2d_16">
      <defs>
       <path d="M 0 0 
L -3.5 0 
" id="m86c5d1219f" style="stroke:#000000;stroke-width:0.8;"/>
      </defs>
      <g>
       <use style="stroke:#000000;stroke-width:0.8;" x="60.68" xlink:href="#m86c5d1219f" y="236.788142"/>
      </g>
     </g>
     <g id="text_9">
      <!-- 4 -->
      <g transform="translate(44.13625 242.48697)scale(0.15 -0.15)">
       <defs>
        <path d="M 2419 4116 
L 825 1625 
L 2419 1625 
L 2419 4116 
z
M 2253 4666 
L 3047 4666 
L 3047 1625 
L 3713 1625 
L 3713 1100 
L 3047 1100 
L 3047 0 
L 2419 0 
L 2419 1100 
L 313 1100 
L 313 1709 
L 2253 4666 
z
" id="DejaVuSans-34" transform="scale(0.015625)"/>
       </defs>
       <use xlink:href="#DejaVuSans-34"/>
      </g>
     </g>
    </g>
    <g id="ytick_2">
     <g id="line2d_17">
      <path clip-path="url(#pb65599e4c7)" d="M 60.68 203.261719 
L 559.8 203.261719 
" style="fill:none;stroke:#b0b0b0;stroke-linecap:square;stroke-width:0.8;"/>
     </g>
     <g id="line2d_18">
      <g>
       <use style="stroke:#000000;stroke-width:0.8;" x="60.68" xlink:href="#m86c5d1219f" y="203.261719"/>
      </g>
     </g>
     <g id="text_10">
      <!-- 5 -->
      <g transform="translate(44.13625 208.960547)scale(0.15 -0.15)">
       <defs>
        <path d="M 691 4666 
L 3169 4666 
L 3169 4134 
L 1269 4134 
L 1269 2991 
Q 1406 3038 1543 3061 
Q 1681 3084 1819 3084 
Q 2600 3084 3056 2656 
Q 3513 2228 3513 1497 
Q 3513 744 3044 326 
Q 2575 -91 1722 -91 
Q 1428 -91 1123 -41 
Q 819 9 494 109 
L 494 744 
Q 775 591 1075 516 
Q 1375 441 1709 441 
Q 2250 441 2565 725 
Q 2881 1009 2881 1497 
Q 2881 1984 2565 2268 
Q 2250 2553 1709 2553 
Q 1456 2553 1204 2497 
Q 953 2441 691 2322 
L 691 4666 
z
" id="DejaVuSans-35" transform="scale(0.015625)"/>
       </defs>
       <use xlink:href="#DejaVuSans-35"/>
      </g>
     </g>
    </g>
    <g id="ytick_3">
     <g id="line2d_19">
      <path clip-path="url(#pb65599e4c7)" d="M 60.68 169.735295 
L 559.8 169.735295 
" style="fill:none;stroke:#b0b0b0;stroke-linecap:square;stroke-width:0.8;"/>
     </g>
     <g id="line2d_20">
      <g>
       <use style="stroke:#000000;stroke-width:0.8;" x="60.68" xlink:href="#m86c5d1219f" y="169.735295"/>
      </g>
     </g>
     <g id="text_11">
      <!-- 6 -->
      <g transform="translate(44.13625 175.434123)scale(0.15 -0.15)">
       <defs>
        <path d="M 2113 2584 
Q 1688 2584 1439 2293 
Q 1191 2003 1191 1497 
Q 1191 994 1439 701 
Q 1688 409 2113 409 
Q 2538 409 2786 701 
Q 3034 994 3034 1497 
Q 3034 2003 2786 2293 
Q 2538 2584 2113 2584 
z
M 3366 4563 
L 3366 3988 
Q 3128 4100 2886 4159 
Q 2644 4219 2406 4219 
Q 1781 4219 1451 3797 
Q 1122 3375 1075 2522 
Q 1259 2794 1537 2939 
Q 1816 3084 2150 3084 
Q 2853 3084 3261 2657 
Q 3669 2231 3669 1497 
Q 3669 778 3244 343 
Q 2819 -91 2113 -91 
Q 1303 -91 875 529 
Q 447 1150 447 2328 
Q 447 3434 972 4092 
Q 1497 4750 2381 4750 
Q 2619 4750 2861 4703 
Q 3103 4656 3366 4563 
z
" id="DejaVuSans-36" transform="scale(0.015625)"/>
       </defs>
       <use xlink:href="#DejaVuSans-36"/>
      </g>
     </g>
    </g>
    <g id="ytick_4">
     <g id="line2d_21">
      <path clip-path="url(#pb65599e4c7)" d="M 60.68 136.208872 
L 559.8 136.208872 
" style="fill:none;stroke:#b0b0b0;stroke-linecap:square;stroke-width:0.8;"/>
     </g>
     <g id="line2d_22">
      <g>
       <use style="stroke:#000000;stroke-width:0.8;" x="60.68" xlink:href="#m86c5d1219f" y="136.208872"/>
      </g>
     </g>
     <g id="text_12">
      <!-- 7 -->
      <g transform="translate(44.13625 141.9077)scale(0.15 -0.15)">
       <defs>
        <path d="M 525 4666 
L 3525 4666 
L 3525 4397 
L 1831 0 
L 1172 0 
L 2766 4134 
L 525 4134 
L 525 4666 
z
" id="DejaVuSans-37" transform="scale(0.015625)"/>
       </defs>
       <use xlink:href="#DejaVuSans-37"/>
      </g>
     </g>
    </g>
    <g id="ytick_5">
     <g id="line2d_23">
      <path clip-path="url(#pb65599e4c7)" d="M 60.68 102.682448 
L 559.8 102.682448 
" style="fill:none;stroke:#b0b0b0;stroke-linecap:square;stroke-width:0.8;"/>
     </g>
     <g id="line2d_24">
      <g>
       <use style="stroke:#000000;stroke-width:0.8;" x="60.68" xlink:href="#m86c5d1219f" y="102.682448"/>
      </g>
     </g>
     <g id="text_13">
      <!-- 8 -->
      <g transform="translate(44.13625 108.381276)scale(0.15 -0.15)">
       <defs>
        <path d="M 2034 2216 
Q 1584 2216 1326 1975 
Q 1069 1734 1069 1313 
Q 1069 891 1326 650 
Q 1584 409 2034 409 
Q 2484 409 2743 651 
Q 3003 894 3003 1313 
Q 3003 1734 2745 1975 
Q 2488 2216 2034 2216 
z
M 1403 2484 
Q 997 2584 770 2862 
Q 544 3141 544 3541 
Q 544 4100 942 4425 
Q 1341 4750 2034 4750 
Q 2731 4750 3128 4425 
Q 3525 4100 3525 3541 
Q 3525 3141 3298 2862 
Q 3072 2584 2669 2484 
Q 3125 2378 3379 2068 
Q 3634 1759 3634 1313 
Q 3634 634 3220 271 
Q 2806 -91 2034 -91 
Q 1263 -91 848 271 
Q 434 634 434 1313 
Q 434 1759 690 2068 
Q 947 2378 1403 2484 
z
M 1172 3481 
Q 1172 3119 1398 2916 
Q 1625 2713 2034 2713 
Q 2441 2713 2670 2916 
Q 2900 3119 2900 3481 
Q 2900 3844 2670 4047 
Q 2441 4250 2034 4250 
Q 1625 4250 1398 4047 
Q 1172 3844 1172 3481 
z
" id="DejaVuSans-38" transform="scale(0.015625)"/>
       </defs>
       <use xlink:href="#DejaVuSans-38"/>
      </g>
     </g>
    </g>
    <g id="ytick_6">
     <g id="line2d_25">
      <path clip-path="url(#pb65599e4c7)" d="M 60.68 69.156025 
L 559.8 69.156025 
" style="fill:none;stroke:#b0b0b0;stroke-linecap:square;stroke-width:0.8;"/>
     </g>
     <g id="line2d_26">
      <g>
       <use style="stroke:#000000;stroke-width:0.8;" x="60.68" xlink:href="#m86c5d1219f" y="69.156025"/>
      </g>
     </g>
     <g id="text_14">
      <!-- 9 -->
      <g transform="translate(44.13625 74.854853)scale(0.15 -0.15)">
       <defs>
        <path d="M 703 97 
L 703 672 
Q 941 559 1184 500 
Q 1428 441 1663 441 
Q 2288 441 2617 861 
Q 2947 1281 2994 2138 
Q 2813 1869 2534 1725 
Q 2256 1581 1919 1581 
Q 1219 1581 811 2004 
Q 403 2428 403 3163 
Q 403 3881 828 4315 
Q 1253 4750 1959 4750 
Q 2769 4750 3195 4129 
Q 3622 3509 3622 2328 
Q 3622 1225 3098 567 
Q 2575 -91 1691 -91 
Q 1453 -91 1209 -44 
Q 966 3 703 97 
z
M 1959 2075 
Q 2384 2075 2632 2365 
Q 2881 2656 2881 3163 
Q 2881 3666 2632 3958 
Q 2384 4250 1959 4250 
Q 1534 4250 1286 3958 
Q 1038 3666 1038 3163 
Q 1038 2656 1286 2365 
Q 1534 2075 1959 2075 
z
" id="DejaVuSans-39" transform="scale(0.015625)"/>
       </defs>
       <use xlink:href="#DejaVuSans-39"/>
      </g>
     </g>
    </g>
    <g id="ytick_7">
     <g id="line2d_27">
      <path clip-path="url(#pb65599e4c7)" d="M 60.68 35.629601 
L 559.8 35.629601 
" style="fill:none;stroke:#b0b0b0;stroke-linecap:square;stroke-width:0.8;"/>
     </g>
     <g id="line2d_28">
      <g>
       <use style="stroke:#000000;stroke-width:0.8;" x="60.68" xlink:href="#m86c5d1219f" y="35.629601"/>
      </g>
     </g>
     <g id="text_15">
      <!-- 10 -->
      <g transform="translate(34.5925 41.328429)scale(0.15 -0.15)">
       <use xlink:href="#DejaVuSans-31"/>
       <use x="63.623047" xlink:href="#DejaVuSans-30"/>
      </g>
     </g>
    </g>
    <g id="text_16">
     <!-- Entropy -->
     <g transform="translate(27.472969 168.796718)rotate(-90)scale(0.15 -0.15)">
      <defs>
       <path d="M 628 4666 
L 3578 4666 
L 3578 4134 
L 1259 4134 
L 1259 2753 
L 3481 2753 
L 3481 2222 
L 1259 2222 
L 1259 531 
L 3634 531 
L 3634 0 
L 628 0 
L 628 4666 
z
" id="DejaVuSans-45" transform="scale(0.015625)"/>
       <path d="M 3513 2113 
L 3513 0 
L 2938 0 
L 2938 2094 
Q 2938 2591 2744 2837 
Q 2550 3084 2163 3084 
Q 1697 3084 1428 2787 
Q 1159 2491 1159 1978 
L 1159 0 
L 581 0 
L 581 3500 
L 1159 3500 
L 1159 2956 
Q 1366 3272 1645 3428 
Q 1925 3584 2291 3584 
Q 2894 3584 3203 3211 
Q 3513 2838 3513 2113 
z
" id="DejaVuSans-6e" transform="scale(0.015625)"/>
       <path d="M 1159 525 
L 1159 -1331 
L 581 -1331 
L 581 3500 
L 1159 3500 
L 1159 2969 
Q 1341 3281 1617 3432 
Q 1894 3584 2278 3584 
Q 2916 3584 3314 3078 
Q 3713 2572 3713 1747 
Q 3713 922 3314 415 
Q 2916 -91 2278 -91 
Q 1894 -91 1617 61 
Q 1341 213 1159 525 
z
M 3116 1747 
Q 3116 2381 2855 2742 
Q 2594 3103 2138 3103 
Q 1681 3103 1420 2742 
Q 1159 2381 1159 1747 
Q 1159 1113 1420 752 
Q 1681 391 2138 391 
Q 2594 391 2855 752 
Q 3116 1113 3116 1747 
z
" id="DejaVuSans-70" transform="scale(0.015625)"/>
       <path d="M 2059 -325 
Q 1816 -950 1584 -1140 
Q 1353 -1331 966 -1331 
L 506 -1331 
L 506 -850 
L 844 -850 
Q 1081 -850 1212 -737 
Q 1344 -625 1503 -206 
L 1606 56 
L 191 3500 
L 800 3500 
L 1894 763 
L 2988 3500 
L 3597 3500 
L 2059 -325 
z
" id="DejaVuSans-79" transform="scale(0.015625)"/>
      </defs>
      <use xlink:href="#DejaVuSans-45"/>
      <use x="63.183594" xlink:href="#DejaVuSans-6e"/>
      <use x="126.5625" xlink:href="#DejaVuSans-74"/>
      <use x="165.771484" xlink:href="#DejaVuSans-72"/>
      <use x="204.634766" xlink:href="#DejaVuSans-6f"/>
      <use x="265.816406" xlink:href="#DejaVuSans-70"/>
      <use x="329.292969" xlink:href="#DejaVuSans-79"/>
     </g>
    </g>
   </g>
   <g id="LineCollection_1">
    <path clip-path="url(#pb65599e4c7)" d="M 102.273333 198.918928 
L 102.273333 192.497159 
" style="fill:none;stroke:#000000;stroke-width:3;"/>
    <path clip-path="url(#pb65599e4c7)" d="M 171.595556 242.544048 
L 171.595556 238.008401 
" style="fill:none;stroke:#000000;stroke-width:3;"/>
    <path clip-path="url(#pb65599e4c7)" d="M 240.917778 199.592693 
L 240.917778 195.458841 
" style="fill:none;stroke:#000000;stroke-width:3;"/>
    <path clip-path="url(#pb65599e4c7)" d="M 310.24 189.309792 
L 310.24 188.18742 
" style="fill:none;stroke:#000000;stroke-width:3;"/>
    <path clip-path="url(#pb65599e4c7)" d="M 379.562222 173.87463 
L 379.562222 173.675772 
" style="fill:none;stroke:#000000;stroke-width:3;"/>
    <path clip-path="url(#pb65599e4c7)" d="M 448.884444 185.925113 
L 448.884444 184.712565 
" style="fill:none;stroke:#000000;stroke-width:3;"/>
    <path clip-path="url(#pb65599e4c7)" d="M 518.206667 178.027653 
L 518.206667 170.454003 
" style="fill:none;stroke:#000000;stroke-width:3;"/>
   </g>
   <g id="LineCollection_2">
    <path clip-path="url(#pb65599e4c7)" d="M 102.273333 198.918928 
L 102.273333 192.497159 
" style="fill:none;stroke:#000000;"/>
    <path clip-path="url(#pb65599e4c7)" d="M 171.595556 242.544048 
L 171.595556 238.008401 
" style="fill:none;stroke:#000000;"/>
    <path clip-path="url(#pb65599e4c7)" d="M 240.917778 199.592693 
L 240.917778 195.458841 
" style="fill:none;stroke:#000000;"/>
    <path clip-path="url(#pb65599e4c7)" d="M 310.24 189.309792 
L 310.24 188.18742 
" style="fill:none;stroke:#000000;"/>
    <path clip-path="url(#pb65599e4c7)" d="M 379.562222 173.87463 
L 379.562222 173.675772 
" style="fill:none;stroke:#000000;"/>
    <path clip-path="url(#pb65599e4c7)" d="M 448.884444 185.925113 
L 448.884444 184.712565 
" style="fill:none;stroke:#000000;"/>
    <path clip-path="url(#pb65599e4c7)" d="M 518.206667 178.027653 
L 518.206667 170.454003 
" style="fill:none;stroke:#000000;"/>
   </g>
   <g id="LineCollection_3">
    <path clip-path="url(#pb65599e4c7)" d="M 102.273333 36.776732 
L 102.273333 36.776732 
" style="fill:none;stroke:#ff0000;"/>
    <path clip-path="url(#pb65599e4c7)" d="M 171.595556 36.776732 
L 171.595556 36.776732 
" style="fill:none;stroke:#ff0000;"/>
    <path clip-path="url(#pb65599e4c7)" d="M 240.917778 36.776732 
L 240.917778 36.776732 
" style="fill:none;stroke:#ff0000;"/>
    <path clip-path="url(#pb65599e4c7)" d="M 310.24 36.776732 
L 310.24 36.776732 
" style="fill:none;stroke:#ff0000;"/>
    <path clip-path="url(#pb65599e4c7)" d="M 379.562222 36.776732 
L 379.562222 36.776732 
" style="fill:none;stroke:#ff0000;"/>
    <path clip-path="url(#pb65599e4c7)" d="M 448.884444 36.776732 
L 448.884444 36.776732 
" style="fill:none;stroke:#ff0000;"/>
    <path clip-path="url(#pb65599e4c7)" d="M 518.206667 36.776732 
L 518.206667 36.776732 
" style="fill:none;stroke:#ff0000;"/>
   </g>
   <g id="line2d_29">
    <defs>
     <path d="M 0 3 
C 0.795609 3 1.55874 2.683901 2.12132 2.12132 
C 2.683901 1.55874 3 0.795609 3 0 
C 3 -0.795609 2.683901 -1.55874 2.12132 -2.12132 
C 1.55874 -2.683901 0.795609 -3 0 -3 
C -0.795609 -3 -1.55874 -2.683901 -2.12132 -2.12132 
C -2.683901 -1.55874 -3 -0.795609 -3 0 
C -3 0.795609 -2.683901 1.55874 -2.12132 2.12132 
C -1.55874 2.683901 -0.795609 3 0 3 
z
" id="m7356eaf93f" style="stroke:#000000;"/>
    </defs>
    <g clip-path="url(#pb65599e4c7)">
     <use style="stroke:#000000;" x="102.273333" xlink:href="#m7356eaf93f" y="195.708043"/>
     <use style="stroke:#000000;" x="171.595556" xlink:href="#m7356eaf93f" y="240.276225"/>
     <use style="stroke:#000000;" x="240.917778" xlink:href="#m7356eaf93f" y="197.525767"/>
     <use style="stroke:#000000;" x="310.24" xlink:href="#m7356eaf93f" y="188.748606"/>
     <use style="stroke:#000000;" x="379.562222" xlink:href="#m7356eaf93f" y="173.775201"/>
     <use style="stroke:#000000;" x="448.884444" xlink:href="#m7356eaf93f" y="185.318839"/>
     <use style="stroke:#000000;" x="518.206667" xlink:href="#m7356eaf93f" y="174.240828"/>
    </g>
   </g>
   <g id="line2d_30">
    <defs>
     <path d="M 0 1.5 
C 0.397805 1.5 0.77937 1.341951 1.06066 1.06066 
C 1.341951 0.77937 1.5 0.397805 1.5 0 
C 1.5 -0.397805 1.341951 -0.77937 1.06066 -1.06066 
C 0.77937 -1.341951 0.397805 -1.5 0 -1.5 
C -0.397805 -1.5 -0.77937 -1.341951 -1.06066 -1.06066 
C -1.341951 -0.77937 -1.5 -0.397805 -1.5 0 
C -1.5 0.397805 -1.341951 0.77937 -1.06066 1.06066 
C -0.77937 1.341951 -0.397805 1.5 0 1.5 
z
" id="m10ed227538" style="stroke:#000000;"/>
    </defs>
    <g clip-path="url(#pb65599e4c7)">
     <use style="stroke:#000000;" x="102.273333" xlink:href="#m10ed227538" y="195.708043"/>
     <use style="stroke:#000000;" x="171.595556" xlink:href="#m10ed227538" y="240.276225"/>
     <use style="stroke:#000000;" x="240.917778" xlink:href="#m10ed227538" y="197.525767"/>
     <use style="stroke:#000000;" x="310.24" xlink:href="#m10ed227538" y="188.748606"/>
     <use style="stroke:#000000;" x="379.562222" xlink:href="#m10ed227538" y="173.775201"/>
     <use style="stroke:#000000;" x="448.884444" xlink:href="#m10ed227538" y="185.318839"/>
     <use style="stroke:#000000;" x="518.206667" xlink:href="#m10ed227538" y="174.240828"/>
    </g>
   </g>
   <g id="line2d_31">
    <defs>
     <path d="M -0 4.242641 
L 4.242641 0 
L 0 -4.242641 
L -4.242641 -0 
z
" id="ma275bd64a8" style="stroke:#ff0000;stroke-linejoin:miter;"/>
    </defs>
    <g clip-path="url(#pb65599e4c7)">
     <use style="fill:#ff0000;stroke:#ff0000;stroke-linejoin:miter;" x="102.273333" xlink:href="#ma275bd64a8" y="36.776732"/>
     <use style="fill:#ff0000;stroke:#ff0000;stroke-linejoin:miter;" x="171.595556" xlink:href="#ma275bd64a8" y="36.776732"/>
     <use style="fill:#ff0000;stroke:#ff0000;stroke-linejoin:miter;" x="240.917778" xlink:href="#ma275bd64a8" y="36.776732"/>
     <use style="fill:#ff0000;stroke:#ff0000;stroke-linejoin:miter;" x="310.24" xlink:href="#ma275bd64a8" y="36.776732"/>
     <use style="fill:#ff0000;stroke:#ff0000;stroke-linejoin:miter;" x="379.562222" xlink:href="#ma275bd64a8" y="36.776732"/>
     <use style="fill:#ff0000;stroke:#ff0000;stroke-linejoin:miter;" x="448.884444" xlink:href="#ma275bd64a8" y="36.776732"/>
     <use style="fill:#ff0000;stroke:#ff0000;stroke-linejoin:miter;" x="518.206667" xlink:href="#ma275bd64a8" y="36.776732"/>
    </g>
   </g>
   <g id="patch_3">
    <path d="M 60.68 263.120779 
L 60.68 16.2 
" style="fill:none;stroke:#000000;stroke-linecap:square;stroke-linejoin:miter;stroke-width:0.8;"/>
   </g>
   <g id="patch_4">
    <path d="M 559.8 263.120779 
L 559.8 16.2 
" style="fill:none;stroke:#000000;stroke-linecap:square;stroke-linejoin:miter;stroke-width:0.8;"/>
   </g>
   <g id="patch_5">
    <path d="M 60.68 263.120779 
L 559.8 263.120779 
" style="fill:none;stroke:#000000;stroke-linecap:square;stroke-linejoin:miter;stroke-width:0.8;"/>
   </g>
   <g id="patch_6">
    <path d="M 60.68 16.2 
L 559.8 16.2 
" style="fill:none;stroke:#000000;stroke-linecap:square;stroke-linejoin:miter;stroke-width:0.8;"/>
   </g>
   <g id="axes_2">
    <g id="patch_7">
     <path d="M 75.6536 127.314351 
L 125.5656 127.314351 
L 125.5656 65.584156 
L 75.6536 65.584156 
z
" style="fill:#ffffff;"/>
    </g>
    <g id="patch_8">
     <path clip-path="url(#p419d128c92)" d="M 95.547351 127.314351 
L 95.710745 127.314351 
L 95.710745 124.514795 
L 95.547351 124.514795 
z
" style="fill:#1f77b4;"/>
    </g>
    <g id="patch_9">
     <path clip-path="url(#p419d128c92)" d="M 95.710745 127.314351 
L 95.874138 127.314351 
L 95.874138 127.314351 
L 95.710745 127.314351 
z
" style="fill:#1f77b4;"/>
    </g>
    <g id="patch_10">
     <path clip-path="url(#p419d128c92)" d="M 95.874138 127.314351 
L 96.037532 127.314351 
L 96.037532 127.314351 
L 95.874138 127.314351 
z
" style="fill:#1f77b4;"/>
    </g>
    <g id="patch_11">
     <path clip-path="url(#p419d128c92)" d="M 96.037532 127.314351 
L 96.200925 127.314351 
L 96.200925 127.314351 
L 96.037532 127.314351 
z
" style="fill:#1f77b4;"/>
    </g>
    <g id="patch_12">
     <path clip-path="url(#p419d128c92)" d="M 96.200925 127.314351 
L 96.364319 127.314351 
L 96.364319 127.314351 
L 96.200925 127.314351 
z
" style="fill:#1f77b4;"/>
    </g>
    <g id="patch_13">
     <path clip-path="url(#p419d128c92)" d="M 96.364319 127.314351 
L 96.527713 127.314351 
L 96.527713 127.314351 
L 96.364319 127.314351 
z
" style="fill:#1f77b4;"/>
    </g>
    <g id="patch_14">
     <path clip-path="url(#p419d128c92)" d="M 96.527713 127.314351 
L 96.691106 127.314351 
L 96.691106 127.314351 
L 96.527713 127.314351 
z
" style="fill:#1f77b4;"/>
    </g>
    <g id="patch_15">
     <path clip-path="url(#p419d128c92)" d="M 96.691106 127.314351 
L 96.8545 127.314351 
L 96.8545 124.514795 
L 96.691106 124.514795 
z
" style="fill:#1f77b4;"/>
    </g>
    <g id="patch_16">
     <path clip-path="url(#p419d128c92)" d="M 96.8545 127.314351 
L 97.017894 127.314351 
L 97.017894 127.314351 
L 96.8545 127.314351 
z
" style="fill:#1f77b4;"/>
    </g>
    <g id="patch_17">
     <path clip-path="url(#p419d128c92)" d="M 97.017894 127.314351 
L 97.181287 127.314351 
L 97.181287 127.314351 
L 97.017894 127.314351 
z
" style="fill:#1f77b4;"/>
    </g>
    <g id="patch_18">
     <path clip-path="url(#p419d128c92)" d="M 97.181287 127.314351 
L 97.344681 127.314351 
L 97.344681 124.514795 
L 97.181287 124.514795 
z
" style="fill:#1f77b4;"/>
    </g>
    <g id="patch_19">
     <path clip-path="url(#p419d128c92)" d="M 97.344681 127.314351 
L 97.508075 127.314351 
L 97.508075 118.915685 
L 97.344681 118.915685 
z
" style="fill:#1f77b4;"/>
    </g>
    <g id="patch_20">
     <path clip-path="url(#p419d128c92)" d="M 97.508075 127.314351 
L 97.671468 127.314351 
L 97.671468 118.915685 
L 97.508075 118.915685 
z
" style="fill:#1f77b4;"/>
    </g>
    <g id="patch_21">
     <path clip-path="url(#p419d128c92)" d="M 97.671468 127.314351 
L 97.834862 127.314351 
L 97.834862 124.514795 
L 97.671468 124.514795 
z
" style="fill:#1f77b4;"/>
    </g>
    <g id="patch_22">
     <path clip-path="url(#p419d128c92)" d="M 97.834862 127.314351 
L 97.998256 127.314351 
L 97.998256 116.116129 
L 97.834862 116.116129 
z
" style="fill:#1f77b4;"/>
    </g>
    <g id="patch_23">
     <path clip-path="url(#p419d128c92)" d="M 97.998256 127.314351 
L 98.161649 127.314351 
L 98.161649 90.920132 
L 97.998256 90.920132 
z
" style="fill:#1f77b4;"/>
    </g>
    <g id="patch_24">
     <path clip-path="url(#p419d128c92)" d="M 98.161649 127.314351 
L 98.325043 127.314351 
L 98.325043 68.523689 
L 98.161649 68.523689 
z
" style="fill:#1f77b4;"/>
    </g>
    <g id="patch_25">
     <path clip-path="url(#p419d128c92)" d="M 98.325043 127.314351 
L 98.488437 127.314351 
L 98.488437 76.922355 
L 98.325043 76.922355 
z
" style="fill:#1f77b4;"/>
    </g>
    <g id="patch_26">
     <path clip-path="url(#p419d128c92)" d="M 98.488437 127.314351 
L 98.65183 127.314351 
L 98.65183 96.519242 
L 98.488437 96.519242 
z
" style="fill:#1f77b4;"/>
    </g>
    <g id="patch_27">
     <path clip-path="url(#p419d128c92)" d="M 98.65183 127.314351 
L 98.815224 127.314351 
L 98.815224 116.116129 
L 98.65183 116.116129 
z
" style="fill:#1f77b4;"/>
    </g>
    <g id="patch_28">
     <path clip-path="url(#p419d128c92)" d="M 98.815224 127.314351 
L 98.978617 127.314351 
L 98.978617 124.514795 
L 98.815224 124.514795 
z
" style="fill:#1f77b4;"/>
    </g>
    <g id="patch_29">
     <path clip-path="url(#p419d128c92)" d="M 98.978617 127.314351 
L 99.142011 127.314351 
L 99.142011 110.517019 
L 98.978617 110.517019 
z
" style="fill:#1f77b4;"/>
    </g>
    <g id="patch_30">
     <path clip-path="url(#p419d128c92)" d="M 99.142011 127.314351 
L 99.305405 127.314351 
L 99.305405 116.116129 
L 99.142011 116.116129 
z
" style="fill:#1f77b4;"/>
    </g>
    <g id="patch_31">
     <path clip-path="url(#p419d128c92)" d="M 99.305405 127.314351 
L 99.468798 127.314351 
L 99.468798 118.915685 
L 99.305405 118.915685 
z
" style="fill:#1f77b4;"/>
    </g>
    <g id="patch_32">
     <path clip-path="url(#p419d128c92)" d="M 99.468798 127.314351 
L 99.632192 127.314351 
L 99.632192 113.316574 
L 99.468798 113.316574 
z
" style="fill:#1f77b4;"/>
    </g>
    <g id="patch_33">
     <path d="M 75.6536 127.314351 
L 75.6536 65.584156 
" style="fill:none;stroke:#000000;stroke-linecap:square;stroke-linejoin:miter;stroke-width:0.8;"/>
    </g>
    <g id="patch_34">
     <path d="M 125.5656 127.314351 
L 125.5656 65.584156 
" style="fill:none;stroke:#000000;stroke-linecap:square;stroke-linejoin:miter;stroke-width:0.8;"/>
    </g>
    <g id="patch_35">
     <path d="M 75.6536 127.314351 
L 125.5656 127.314351 
" style="fill:none;stroke:#000000;stroke-linecap:square;stroke-linejoin:miter;stroke-width:0.8;"/>
    </g>
    <g id="patch_36">
     <path d="M 75.6536 65.584156 
L 125.5656 65.584156 
" style="fill:none;stroke:#000000;stroke-linecap:square;stroke-linejoin:miter;stroke-width:0.8;"/>
    </g>
   </g>
   <g id="axes_3">
    <g id="patch_37">
     <path d="M 145.28084 127.314351 
L 195.19284 127.314351 
L 195.19284 65.584156 
L 145.28084 65.584156 
z
" style="fill:#ffffff;"/>
    </g>
    <g id="patch_38">
     <path clip-path="url(#p22df16b54c)" d="M 145.709934 127.314351 
L 145.967391 127.314351 
L 145.967391 102.818242 
L 145.709934 102.818242 
z
" style="fill:#1f77b4;"/>
    </g>
    <g id="patch_39">
     <path clip-path="url(#p22df16b54c)" d="M 145.967391 127.314351 
L 146.224847 127.314351 
L 146.224847 117.515907 
L 145.967391 117.515907 
z
" style="fill:#1f77b4;"/>
    </g>
    <g id="patch_40">
     <path clip-path="url(#p22df16b54c)" d="M 146.224847 127.314351 
L 146.482304 127.314351 
L 146.482304 107.717463 
L 146.224847 107.717463 
z
" style="fill:#1f77b4;"/>
    </g>
    <g id="patch_41">
     <path clip-path="url(#p22df16b54c)" d="M 146.482304 127.314351 
L 146.73976 127.314351 
L 146.73976 88.120576 
L 146.482304 88.120576 
z
" style="fill:#1f77b4;"/>
    </g>
    <g id="patch_42">
     <path clip-path="url(#p22df16b54c)" d="M 146.73976 127.314351 
L 146.997217 127.314351 
L 146.997217 68.523689 
L 146.73976 68.523689 
z
" style="fill:#1f77b4;"/>
    </g>
    <g id="patch_43">
     <path clip-path="url(#p22df16b54c)" d="M 146.997217 127.314351 
L 147.254673 127.314351 
L 147.254673 73.422911 
L 146.997217 73.422911 
z
" style="fill:#1f77b4;"/>
    </g>
    <g id="patch_44">
     <path clip-path="url(#p22df16b54c)" d="M 147.254673 127.314351 
L 147.51213 127.314351 
L 147.51213 127.314351 
L 147.254673 127.314351 
z
" style="fill:#1f77b4;"/>
    </g>
    <g id="patch_45">
     <path clip-path="url(#p22df16b54c)" d="M 147.51213 127.314351 
L 147.769586 127.314351 
L 147.769586 73.422911 
L 147.51213 73.422911 
z
" style="fill:#1f77b4;"/>
    </g>
    <g id="patch_46">
     <path clip-path="url(#p22df16b54c)" d="M 147.769586 127.314351 
L 148.027043 127.314351 
L 148.027043 83.221354 
L 147.769586 83.221354 
z
" style="fill:#1f77b4;"/>
    </g>
    <g id="patch_47">
     <path clip-path="url(#p22df16b54c)" d="M 148.027043 127.314351 
L 148.284499 127.314351 
L 148.284499 127.314351 
L 148.027043 127.314351 
z
" style="fill:#1f77b4;"/>
    </g>
    <g id="patch_48">
     <path clip-path="url(#p22df16b54c)" d="M 148.284499 127.314351 
L 148.541956 127.314351 
L 148.541956 102.818242 
L 148.284499 102.818242 
z
" style="fill:#1f77b4;"/>
    </g>
    <g id="patch_49">
     <path clip-path="url(#p22df16b54c)" d="M 148.541956 127.314351 
L 148.799412 127.314351 
L 148.799412 112.616685 
L 148.541956 112.616685 
z
" style="fill:#1f77b4;"/>
    </g>
    <g id="patch_50">
     <path clip-path="url(#p22df16b54c)" d="M 148.799412 127.314351 
L 149.056869 127.314351 
L 149.056869 127.314351 
L 148.799412 127.314351 
z
" style="fill:#1f77b4;"/>
    </g>
    <g id="patch_51">
     <path clip-path="url(#p22df16b54c)" d="M 149.056869 127.314351 
L 149.314325 127.314351 
L 149.314325 107.717463 
L 149.056869 107.717463 
z
" style="fill:#1f77b4;"/>
    </g>
    <g id="patch_52">
     <path clip-path="url(#p22df16b54c)" d="M 149.314325 127.314351 
L 149.571782 127.314351 
L 149.571782 127.314351 
L 149.314325 127.314351 
z
" style="fill:#1f77b4;"/>
    </g>
    <g id="patch_53">
     <path clip-path="url(#p22df16b54c)" d="M 149.571782 127.314351 
L 149.829238 127.314351 
L 149.829238 117.515907 
L 149.571782 117.515907 
z
" style="fill:#1f77b4;"/>
    </g>
    <g id="patch_54">
     <path clip-path="url(#p22df16b54c)" d="M 149.829238 127.314351 
L 150.086694 127.314351 
L 150.086694 117.515907 
L 149.829238 117.515907 
z
" style="fill:#1f77b4;"/>
    </g>
    <g id="patch_55">
     <path clip-path="url(#p22df16b54c)" d="M 150.086694 127.314351 
L 150.344151 127.314351 
L 150.344151 97.91902 
L 150.086694 97.91902 
z
" style="fill:#1f77b4;"/>
    </g>
    <g id="patch_56">
     <path clip-path="url(#p22df16b54c)" d="M 150.344151 127.314351 
L 150.601607 127.314351 
L 150.601607 107.717463 
L 150.344151 107.717463 
z
" style="fill:#1f77b4;"/>
    </g>
    <g id="patch_57">
     <path clip-path="url(#p22df16b54c)" d="M 150.601607 127.314351 
L 150.859064 127.314351 
L 150.859064 122.415129 
L 150.601607 122.415129 
z
" style="fill:#1f77b4;"/>
    </g>
    <g id="patch_58">
     <path clip-path="url(#p22df16b54c)" d="M 150.859064 127.314351 
L 151.11652 127.314351 
L 151.11652 102.818242 
L 150.859064 102.818242 
z
" style="fill:#1f77b4;"/>
    </g>
    <g id="patch_59">
     <path clip-path="url(#p22df16b54c)" d="M 151.11652 127.314351 
L 151.373977 127.314351 
L 151.373977 127.314351 
L 151.11652 127.314351 
z
" style="fill:#1f77b4;"/>
    </g>
    <g id="patch_60">
     <path clip-path="url(#p22df16b54c)" d="M 151.373977 127.314351 
L 151.631433 127.314351 
L 151.631433 117.515907 
L 151.373977 117.515907 
z
" style="fill:#1f77b4;"/>
    </g>
    <g id="patch_61">
     <path clip-path="url(#p22df16b54c)" d="M 151.631433 127.314351 
L 151.88889 127.314351 
L 151.88889 127.314351 
L 151.631433 127.314351 
z
" style="fill:#1f77b4;"/>
    </g>
    <g id="patch_62">
     <path clip-path="url(#p22df16b54c)" d="M 151.88889 127.314351 
L 152.146346 127.314351 
L 152.146346 107.717463 
L 151.88889 107.717463 
z
" style="fill:#1f77b4;"/>
    </g>
    <g id="patch_63">
     <path d="M 145.28084 127.314351 
L 145.28084 65.584156 
" style="fill:none;stroke:#000000;stroke-linecap:square;stroke-linejoin:miter;stroke-width:0.8;"/>
    </g>
    <g id="patch_64">
     <path d="M 195.19284 127.314351 
L 195.19284 65.584156 
" style="fill:none;stroke:#000000;stroke-linecap:square;stroke-linejoin:miter;stroke-width:0.8;"/>
    </g>
    <g id="patch_65">
     <path d="M 145.28084 127.314351 
L 195.19284 127.314351 
" style="fill:none;stroke:#000000;stroke-linecap:square;stroke-linejoin:miter;stroke-width:0.8;"/>
    </g>
    <g id="patch_66">
     <path d="M 145.28084 65.584156 
L 195.19284 65.584156 
" style="fill:none;stroke:#000000;stroke-linecap:square;stroke-linejoin:miter;stroke-width:0.8;"/>
    </g>
   </g>
   <g id="axes_4">
    <g id="patch_67">
     <path d="M 214.90808 127.314351 
L 264.82008 127.314351 
L 264.82008 65.584156 
L 214.90808 65.584156 
z
" style="fill:#ffffff;"/>
    </g>
    <g id="patch_68">
     <path clip-path="url(#p3bbc35bb41)" d="M 235.470812 127.314351 
L 235.643415 127.314351 
L 235.643415 120.782055 
L 235.470812 120.782055 
z
" style="fill:#1f77b4;"/>
    </g>
    <g id="patch_69">
     <path clip-path="url(#p3bbc35bb41)" d="M 235.643415 127.314351 
L 235.816018 127.314351 
L 235.816018 127.314351 
L 235.643415 127.314351 
z
" style="fill:#1f77b4;"/>
    </g>
    <g id="patch_70">
     <path clip-path="url(#p3bbc35bb41)" d="M 235.816018 127.314351 
L 235.988621 127.314351 
L 235.988621 127.314351 
L 235.816018 127.314351 
z
" style="fill:#1f77b4;"/>
    </g>
    <g id="patch_71">
     <path clip-path="url(#p3bbc35bb41)" d="M 235.988621 127.314351 
L 236.161224 127.314351 
L 236.161224 127.314351 
L 235.988621 127.314351 
z
" style="fill:#1f77b4;"/>
    </g>
    <g id="patch_72">
     <path clip-path="url(#p3bbc35bb41)" d="M 236.161224 127.314351 
L 236.333827 127.314351 
L 236.333827 124.048203 
L 236.161224 124.048203 
z
" style="fill:#1f77b4;"/>
    </g>
    <g id="patch_73">
     <path clip-path="url(#p3bbc35bb41)" d="M 236.333827 127.314351 
L 236.50643 127.314351 
L 236.50643 127.314351 
L 236.333827 127.314351 
z
" style="fill:#1f77b4;"/>
    </g>
    <g id="patch_74">
     <path clip-path="url(#p3bbc35bb41)" d="M 236.50643 127.314351 
L 236.679033 127.314351 
L 236.679033 127.314351 
L 236.50643 127.314351 
z
" style="fill:#1f77b4;"/>
    </g>
    <g id="patch_75">
     <path clip-path="url(#p3bbc35bb41)" d="M 236.679033 127.314351 
L 236.851636 127.314351 
L 236.851636 124.048203 
L 236.679033 124.048203 
z
" style="fill:#1f77b4;"/>
    </g>
    <g id="patch_76">
     <path clip-path="url(#p3bbc35bb41)" d="M 236.851636 127.314351 
L 237.024239 127.314351 
L 237.024239 120.782055 
L 236.851636 120.782055 
z
" style="fill:#1f77b4;"/>
    </g>
    <g id="patch_77">
     <path clip-path="url(#p3bbc35bb41)" d="M 237.024239 127.314351 
L 237.196842 127.314351 
L 237.196842 107.717463 
L 237.024239 107.717463 
z
" style="fill:#1f77b4;"/>
    </g>
    <g id="patch_78">
     <path clip-path="url(#p3bbc35bb41)" d="M 237.196842 127.314351 
L 237.369445 127.314351 
L 237.369445 107.717463 
L 237.196842 107.717463 
z
" style="fill:#1f77b4;"/>
    </g>
    <g id="patch_79">
     <path clip-path="url(#p3bbc35bb41)" d="M 237.369445 127.314351 
L 237.542048 127.314351 
L 237.542048 104.451316 
L 237.369445 104.451316 
z
" style="fill:#1f77b4;"/>
    </g>
    <g id="patch_80">
     <path clip-path="url(#p3bbc35bb41)" d="M 237.542048 127.314351 
L 237.714651 127.314351 
L 237.714651 68.523689 
L 237.542048 68.523689 
z
" style="fill:#1f77b4;"/>
    </g>
    <g id="patch_81">
     <path clip-path="url(#p3bbc35bb41)" d="M 237.714651 127.314351 
L 237.887254 127.314351 
L 237.887254 88.120576 
L 237.714651 88.120576 
z
" style="fill:#1f77b4;"/>
    </g>
    <g id="patch_82">
     <path clip-path="url(#p3bbc35bb41)" d="M 237.887254 127.314351 
L 238.059857 127.314351 
L 238.059857 91.386724 
L 237.887254 91.386724 
z
" style="fill:#1f77b4;"/>
    </g>
    <g id="patch_83">
     <path clip-path="url(#p3bbc35bb41)" d="M 238.059857 127.314351 
L 238.23246 127.314351 
L 238.23246 114.249759 
L 238.059857 114.249759 
z
" style="fill:#1f77b4;"/>
    </g>
    <g id="patch_84">
     <path clip-path="url(#p3bbc35bb41)" d="M 238.23246 127.314351 
L 238.405063 127.314351 
L 238.405063 101.185168 
L 238.23246 101.185168 
z
" style="fill:#1f77b4;"/>
    </g>
    <g id="patch_85">
     <path clip-path="url(#p3bbc35bb41)" d="M 238.405063 127.314351 
L 238.577666 127.314351 
L 238.577666 110.983611 
L 238.405063 110.983611 
z
" style="fill:#1f77b4;"/>
    </g>
    <g id="patch_86">
     <path clip-path="url(#p3bbc35bb41)" d="M 238.577666 127.314351 
L 238.750269 127.314351 
L 238.750269 114.249759 
L 238.577666 114.249759 
z
" style="fill:#1f77b4;"/>
    </g>
    <g id="patch_87">
     <path clip-path="url(#p3bbc35bb41)" d="M 238.750269 127.314351 
L 238.922872 127.314351 
L 238.922872 101.185168 
L 238.750269 101.185168 
z
" style="fill:#1f77b4;"/>
    </g>
    <g id="patch_88">
     <path clip-path="url(#p3bbc35bb41)" d="M 238.922872 127.314351 
L 239.095475 127.314351 
L 239.095475 120.782055 
L 238.922872 120.782055 
z
" style="fill:#1f77b4;"/>
    </g>
    <g id="patch_89">
     <path clip-path="url(#p3bbc35bb41)" d="M 239.095475 127.314351 
L 239.268078 127.314351 
L 239.268078 127.314351 
L 239.095475 127.314351 
z
" style="fill:#1f77b4;"/>
    </g>
    <g id="patch_90">
     <path clip-path="url(#p3bbc35bb41)" d="M 239.268078 127.314351 
L 239.440681 127.314351 
L 239.440681 127.314351 
L 239.268078 127.314351 
z
" style="fill:#1f77b4;"/>
    </g>
    <g id="patch_91">
     <path clip-path="url(#p3bbc35bb41)" d="M 239.440681 127.314351 
L 239.613284 127.314351 
L 239.613284 127.314351 
L 239.440681 127.314351 
z
" style="fill:#1f77b4;"/>
    </g>
    <g id="patch_92">
     <path clip-path="url(#p3bbc35bb41)" d="M 239.613284 127.314351 
L 239.785887 127.314351 
L 239.785887 117.515907 
L 239.613284 117.515907 
z
" style="fill:#1f77b4;"/>
    </g>
    <g id="patch_93">
     <path d="M 214.90808 127.314351 
L 214.90808 65.584156 
" style="fill:none;stroke:#000000;stroke-linecap:square;stroke-linejoin:miter;stroke-width:0.8;"/>
    </g>
    <g id="patch_94">
     <path d="M 264.82008 127.314351 
L 264.82008 65.584156 
" style="fill:none;stroke:#000000;stroke-linecap:square;stroke-linejoin:miter;stroke-width:0.8;"/>
    </g>
    <g id="patch_95">
     <path d="M 214.90808 127.314351 
L 264.82008 127.314351 
" style="fill:none;stroke:#000000;stroke-linecap:square;stroke-linejoin:miter;stroke-width:0.8;"/>
    </g>
    <g id="patch_96">
     <path d="M 214.90808 65.584156 
L 264.82008 65.584156 
" style="fill:none;stroke:#000000;stroke-linecap:square;stroke-linejoin:miter;stroke-width:0.8;"/>
    </g>
   </g>
   <g id="axes_5">
    <g id="patch_97">
     <path d="M 284.53532 127.314351 
L 334.44732 127.314351 
L 334.44732 65.584156 
L 284.53532 65.584156 
z
" style="fill:#ffffff;"/>
    </g>
    <g id="patch_98">
     <path clip-path="url(#pc1b702f127)" d="M 301.798999 127.314351 
L 302.039774 127.314351 
L 302.039774 124.220105 
L 301.798999 124.220105 
z
" style="fill:#1f77b4;"/>
    </g>
    <g id="patch_99">
     <path clip-path="url(#pc1b702f127)" d="M 302.039774 127.314351 
L 302.28055 127.314351 
L 302.28055 127.314351 
L 302.039774 127.314351 
z
" style="fill:#1f77b4;"/>
    </g>
    <g id="patch_100">
     <path clip-path="url(#pc1b702f127)" d="M 302.28055 127.314351 
L 302.521325 127.314351 
L 302.521325 127.314351 
L 302.28055 127.314351 
z
" style="fill:#1f77b4;"/>
    </g>
    <g id="patch_101">
     <path clip-path="url(#pc1b702f127)" d="M 302.521325 127.314351 
L 302.7621 127.314351 
L 302.7621 127.314351 
L 302.521325 127.314351 
z
" style="fill:#1f77b4;"/>
    </g>
    <g id="patch_102">
     <path clip-path="url(#pc1b702f127)" d="M 302.7621 127.314351 
L 303.002876 127.314351 
L 303.002876 127.314351 
L 302.7621 127.314351 
z
" style="fill:#1f77b4;"/>
    </g>
    <g id="patch_103">
     <path clip-path="url(#pc1b702f127)" d="M 303.002876 127.314351 
L 303.243651 127.314351 
L 303.243651 127.314351 
L 303.002876 127.314351 
z
" style="fill:#1f77b4;"/>
    </g>
    <g id="patch_104">
     <path clip-path="url(#pc1b702f127)" d="M 303.243651 127.314351 
L 303.484427 127.314351 
L 303.484427 127.314351 
L 303.243651 127.314351 
z
" style="fill:#1f77b4;"/>
    </g>
    <g id="patch_105">
     <path clip-path="url(#pc1b702f127)" d="M 303.484427 127.314351 
L 303.725202 127.314351 
L 303.725202 127.314351 
L 303.484427 127.314351 
z
" style="fill:#1f77b4;"/>
    </g>
    <g id="patch_106">
     <path clip-path="url(#pc1b702f127)" d="M 303.725202 127.314351 
L 303.965977 127.314351 
L 303.965977 127.314351 
L 303.725202 127.314351 
z
" style="fill:#1f77b4;"/>
    </g>
    <g id="patch_107">
     <path clip-path="url(#pc1b702f127)" d="M 303.965977 127.314351 
L 304.206753 127.314351 
L 304.206753 121.12586 
L 303.965977 121.12586 
z
" style="fill:#1f77b4;"/>
    </g>
    <g id="patch_108">
     <path clip-path="url(#pc1b702f127)" d="M 304.206753 127.314351 
L 304.447528 127.314351 
L 304.447528 127.314351 
L 304.206753 127.314351 
z
" style="fill:#1f77b4;"/>
    </g>
    <g id="patch_109">
     <path clip-path="url(#pc1b702f127)" d="M 304.447528 127.314351 
L 304.688304 127.314351 
L 304.688304 124.220105 
L 304.447528 124.220105 
z
" style="fill:#1f77b4;"/>
    </g>
    <g id="patch_110">
     <path clip-path="url(#pc1b702f127)" d="M 304.688304 127.314351 
L 304.929079 127.314351 
L 304.929079 121.12586 
L 304.688304 121.12586 
z
" style="fill:#1f77b4;"/>
    </g>
    <g id="patch_111">
     <path clip-path="url(#pc1b702f127)" d="M 304.929079 127.314351 
L 305.169854 127.314351 
L 305.169854 114.937369 
L 304.929079 114.937369 
z
" style="fill:#1f77b4;"/>
    </g>
    <g id="patch_112">
     <path clip-path="url(#pc1b702f127)" d="M 305.169854 127.314351 
L 305.41063 127.314351 
L 305.41063 118.031615 
L 305.169854 118.031615 
z
" style="fill:#1f77b4;"/>
    </g>
    <g id="patch_113">
     <path clip-path="url(#pc1b702f127)" d="M 305.41063 127.314351 
L 305.651405 127.314351 
L 305.651405 102.560388 
L 305.41063 102.560388 
z
" style="fill:#1f77b4;"/>
    </g>
    <g id="patch_114">
     <path clip-path="url(#pc1b702f127)" d="M 305.651405 127.314351 
L 305.892181 127.314351 
L 305.892181 111.843124 
L 305.651405 111.843124 
z
" style="fill:#1f77b4;"/>
    </g>
    <g id="patch_115">
     <path clip-path="url(#pc1b702f127)" d="M 305.892181 127.314351 
L 306.132956 127.314351 
L 306.132956 96.371897 
L 305.892181 96.371897 
z
" style="fill:#1f77b4;"/>
    </g>
    <g id="patch_116">
     <path clip-path="url(#pc1b702f127)" d="M 306.132956 127.314351 
L 306.373731 127.314351 
L 306.373731 80.90067 
L 306.132956 80.90067 
z
" style="fill:#1f77b4;"/>
    </g>
    <g id="patch_117">
     <path clip-path="url(#pc1b702f127)" d="M 306.373731 127.314351 
L 306.614507 127.314351 
L 306.614507 68.523689 
L 306.373731 68.523689 
z
" style="fill:#1f77b4;"/>
    </g>
    <g id="patch_118">
     <path clip-path="url(#pc1b702f127)" d="M 306.614507 127.314351 
L 306.855282 127.314351 
L 306.855282 87.089161 
L 306.614507 87.089161 
z
" style="fill:#1f77b4;"/>
    </g>
    <g id="patch_119">
     <path clip-path="url(#pc1b702f127)" d="M 306.855282 127.314351 
L 307.096058 127.314351 
L 307.096058 114.937369 
L 306.855282 114.937369 
z
" style="fill:#1f77b4;"/>
    </g>
    <g id="patch_120">
     <path clip-path="url(#pc1b702f127)" d="M 307.096058 127.314351 
L 307.336833 127.314351 
L 307.336833 111.843124 
L 307.096058 111.843124 
z
" style="fill:#1f77b4;"/>
    </g>
    <g id="patch_121">
     <path clip-path="url(#pc1b702f127)" d="M 307.336833 127.314351 
L 307.577608 127.314351 
L 307.577608 114.937369 
L 307.336833 114.937369 
z
" style="fill:#1f77b4;"/>
    </g>
    <g id="patch_122">
     <path clip-path="url(#pc1b702f127)" d="M 307.577608 127.314351 
L 307.818384 127.314351 
L 307.818384 114.937369 
L 307.577608 114.937369 
z
" style="fill:#1f77b4;"/>
    </g>
    <g id="patch_123">
     <path d="M 284.53532 127.314351 
L 284.53532 65.584156 
" style="fill:none;stroke:#000000;stroke-linecap:square;stroke-linejoin:miter;stroke-width:0.8;"/>
    </g>
    <g id="patch_124">
     <path d="M 334.44732 127.314351 
L 334.44732 65.584156 
" style="fill:none;stroke:#000000;stroke-linecap:square;stroke-linejoin:miter;stroke-width:0.8;"/>
    </g>
    <g id="patch_125">
     <path d="M 284.53532 127.314351 
L 334.44732 127.314351 
" style="fill:none;stroke:#000000;stroke-linecap:square;stroke-linejoin:miter;stroke-width:0.8;"/>
    </g>
    <g id="patch_126">
     <path d="M 284.53532 65.584156 
L 334.44732 65.584156 
" style="fill:none;stroke:#000000;stroke-linecap:square;stroke-linejoin:miter;stroke-width:0.8;"/>
    </g>
   </g>
   <g id="axes_6">
    <g id="patch_127">
     <path d="M 354.16256 127.314351 
L 404.07456 127.314351 
L 404.07456 65.584156 
L 354.16256 65.584156 
z
" style="fill:#ffffff;"/>
    </g>
    <g id="patch_128">
     <path clip-path="url(#p02d16b4b3a)" d="M 364.868676 127.314351 
L 365.193649 127.314351 
L 365.193649 122.415129 
L 364.868676 122.415129 
z
" style="fill:#1f77b4;"/>
    </g>
    <g id="patch_129">
     <path clip-path="url(#p02d16b4b3a)" d="M 365.193649 127.314351 
L 365.518621 127.314351 
L 365.518621 122.415129 
L 365.193649 122.415129 
z
" style="fill:#1f77b4;"/>
    </g>
    <g id="patch_130">
     <path clip-path="url(#p02d16b4b3a)" d="M 365.518621 127.314351 
L 365.843594 127.314351 
L 365.843594 122.415129 
L 365.518621 122.415129 
z
" style="fill:#1f77b4;"/>
    </g>
    <g id="patch_131">
     <path clip-path="url(#p02d16b4b3a)" d="M 365.843594 127.314351 
L 366.168566 127.314351 
L 366.168566 127.314351 
L 365.843594 127.314351 
z
" style="fill:#1f77b4;"/>
    </g>
    <g id="patch_132">
     <path clip-path="url(#p02d16b4b3a)" d="M 366.168566 127.314351 
L 366.493539 127.314351 
L 366.493539 127.314351 
L 366.168566 127.314351 
z
" style="fill:#1f77b4;"/>
    </g>
    <g id="patch_133">
     <path clip-path="url(#p02d16b4b3a)" d="M 366.493539 127.314351 
L 366.818511 127.314351 
L 366.818511 117.515907 
L 366.493539 117.515907 
z
" style="fill:#1f77b4;"/>
    </g>
    <g id="patch_134">
     <path clip-path="url(#p02d16b4b3a)" d="M 366.818511 127.314351 
L 367.143483 127.314351 
L 367.143483 122.415129 
L 366.818511 122.415129 
z
" style="fill:#1f77b4;"/>
    </g>
    <g id="patch_135">
     <path clip-path="url(#p02d16b4b3a)" d="M 367.143483 127.314351 
L 367.468456 127.314351 
L 367.468456 102.818242 
L 367.143483 102.818242 
z
" style="fill:#1f77b4;"/>
    </g>
    <g id="patch_136">
     <path clip-path="url(#p02d16b4b3a)" d="M 367.468456 127.314351 
L 367.793428 127.314351 
L 367.793428 107.717463 
L 367.468456 107.717463 
z
" style="fill:#1f77b4;"/>
    </g>
    <g id="patch_137">
     <path clip-path="url(#p02d16b4b3a)" d="M 367.793428 127.314351 
L 368.118401 127.314351 
L 368.118401 122.415129 
L 367.793428 122.415129 
z
" style="fill:#1f77b4;"/>
    </g>
    <g id="patch_138">
     <path clip-path="url(#p02d16b4b3a)" d="M 368.118401 127.314351 
L 368.443373 127.314351 
L 368.443373 112.616685 
L 368.118401 112.616685 
z
" style="fill:#1f77b4;"/>
    </g>
    <g id="patch_139">
     <path clip-path="url(#p02d16b4b3a)" d="M 368.443373 127.314351 
L 368.768346 127.314351 
L 368.768346 107.717463 
L 368.443373 107.717463 
z
" style="fill:#1f77b4;"/>
    </g>
    <g id="patch_140">
     <path clip-path="url(#p02d16b4b3a)" d="M 368.768346 127.314351 
L 369.093318 127.314351 
L 369.093318 112.616685 
L 368.768346 112.616685 
z
" style="fill:#1f77b4;"/>
    </g>
    <g id="patch_141">
     <path clip-path="url(#p02d16b4b3a)" d="M 369.093318 127.314351 
L 369.418291 127.314351 
L 369.418291 122.415129 
L 369.093318 122.415129 
z
" style="fill:#1f77b4;"/>
    </g>
    <g id="patch_142">
     <path clip-path="url(#p02d16b4b3a)" d="M 369.418291 127.314351 
L 369.743263 127.314351 
L 369.743263 117.515907 
L 369.418291 117.515907 
z
" style="fill:#1f77b4;"/>
    </g>
    <g id="patch_143">
     <path clip-path="url(#p02d16b4b3a)" d="M 369.743263 127.314351 
L 370.068236 127.314351 
L 370.068236 102.818242 
L 369.743263 102.818242 
z
" style="fill:#1f77b4;"/>
    </g>
    <g id="patch_144">
     <path clip-path="url(#p02d16b4b3a)" d="M 370.068236 127.314351 
L 370.393208 127.314351 
L 370.393208 102.818242 
L 370.068236 102.818242 
z
" style="fill:#1f77b4;"/>
    </g>
    <g id="patch_145">
     <path clip-path="url(#p02d16b4b3a)" d="M 370.393208 127.314351 
L 370.71818 127.314351 
L 370.71818 83.221354 
L 370.393208 83.221354 
z
" style="fill:#1f77b4;"/>
    </g>
    <g id="patch_146">
     <path clip-path="url(#p02d16b4b3a)" d="M 370.71818 127.314351 
L 371.043153 127.314351 
L 371.043153 97.91902 
L 370.71818 97.91902 
z
" style="fill:#1f77b4;"/>
    </g>
    <g id="patch_147">
     <path clip-path="url(#p02d16b4b3a)" d="M 371.043153 127.314351 
L 371.368125 127.314351 
L 371.368125 83.221354 
L 371.043153 83.221354 
z
" style="fill:#1f77b4;"/>
    </g>
    <g id="patch_148">
     <path clip-path="url(#p02d16b4b3a)" d="M 371.368125 127.314351 
L 371.693098 127.314351 
L 371.693098 73.422911 
L 371.368125 73.422911 
z
" style="fill:#1f77b4;"/>
    </g>
    <g id="patch_149">
     <path clip-path="url(#p02d16b4b3a)" d="M 371.693098 127.314351 
L 372.01807 127.314351 
L 372.01807 68.523689 
L 371.693098 68.523689 
z
" style="fill:#1f77b4;"/>
    </g>
    <g id="patch_150">
     <path clip-path="url(#p02d16b4b3a)" d="M 372.01807 127.314351 
L 372.343043 127.314351 
L 372.343043 83.221354 
L 372.01807 83.221354 
z
" style="fill:#1f77b4;"/>
    </g>
    <g id="patch_151">
     <path clip-path="url(#p02d16b4b3a)" d="M 372.343043 127.314351 
L 372.668015 127.314351 
L 372.668015 112.616685 
L 372.343043 112.616685 
z
" style="fill:#1f77b4;"/>
    </g>
    <g id="patch_152">
     <path clip-path="url(#p02d16b4b3a)" d="M 372.668015 127.314351 
L 372.992988 127.314351 
L 372.992988 117.515907 
L 372.668015 117.515907 
z
" style="fill:#1f77b4;"/>
    </g>
    <g id="patch_153">
     <path d="M 354.16256 127.314351 
L 354.16256 65.584156 
" style="fill:none;stroke:#000000;stroke-linecap:square;stroke-linejoin:miter;stroke-width:0.8;"/>
    </g>
    <g id="patch_154">
     <path d="M 404.07456 127.314351 
L 404.07456 65.584156 
" style="fill:none;stroke:#000000;stroke-linecap:square;stroke-linejoin:miter;stroke-width:0.8;"/>
    </g>
    <g id="patch_155">
     <path d="M 354.16256 127.314351 
L 404.07456 127.314351 
" style="fill:none;stroke:#000000;stroke-linecap:square;stroke-linejoin:miter;stroke-width:0.8;"/>
    </g>
    <g id="patch_156">
     <path d="M 354.16256 65.584156 
L 404.07456 65.584156 
" style="fill:none;stroke:#000000;stroke-linecap:square;stroke-linejoin:miter;stroke-width:0.8;"/>
    </g>
   </g>
   <g id="axes_7">
    <g id="patch_157">
     <path d="M 423.7898 127.314351 
L 473.7018 127.314351 
L 473.7018 65.584156 
L 423.7898 65.584156 
z
" style="fill:#ffffff;"/>
    </g>
    <g id="patch_158">
     <path clip-path="url(#p0b2397f07e)" d="M 442.041988 127.314351 
L 442.285196 127.314351 
L 442.285196 124.220105 
L 442.041988 124.220105 
z
" style="fill:#1f77b4;"/>
    </g>
    <g id="patch_159">
     <path clip-path="url(#p0b2397f07e)" d="M 442.285196 127.314351 
L 442.528404 127.314351 
L 442.528404 127.314351 
L 442.285196 127.314351 
z
" style="fill:#1f77b4;"/>
    </g>
    <g id="patch_160">
     <path clip-path="url(#p0b2397f07e)" d="M 442.528404 127.314351 
L 442.771612 127.314351 
L 442.771612 124.220105 
L 442.528404 124.220105 
z
" style="fill:#1f77b4;"/>
    </g>
    <g id="patch_161">
     <path clip-path="url(#p0b2397f07e)" d="M 442.771612 127.314351 
L 443.01482 127.314351 
L 443.01482 127.314351 
L 442.771612 127.314351 
z
" style="fill:#1f77b4;"/>
    </g>
    <g id="patch_162">
     <path clip-path="url(#p0b2397f07e)" d="M 443.01482 127.314351 
L 443.258029 127.314351 
L 443.258029 127.314351 
L 443.01482 127.314351 
z
" style="fill:#1f77b4;"/>
    </g>
    <g id="patch_163">
     <path clip-path="url(#p0b2397f07e)" d="M 443.258029 127.314351 
L 443.501237 127.314351 
L 443.501237 127.314351 
L 443.258029 127.314351 
z
" style="fill:#1f77b4;"/>
    </g>
    <g id="patch_164">
     <path clip-path="url(#p0b2397f07e)" d="M 443.501237 127.314351 
L 443.744445 127.314351 
L 443.744445 127.314351 
L 443.501237 127.314351 
z
" style="fill:#1f77b4;"/>
    </g>
    <g id="patch_165">
     <path clip-path="url(#p0b2397f07e)" d="M 443.744445 127.314351 
L 443.987653 127.314351 
L 443.987653 111.843124 
L 443.744445 111.843124 
z
" style="fill:#1f77b4;"/>
    </g>
    <g id="patch_166">
     <path clip-path="url(#p0b2397f07e)" d="M 443.987653 127.314351 
L 444.230861 127.314351 
L 444.230861 118.031615 
L 443.987653 118.031615 
z
" style="fill:#1f77b4;"/>
    </g>
    <g id="patch_167">
     <path clip-path="url(#p0b2397f07e)" d="M 444.230861 127.314351 
L 444.474069 127.314351 
L 444.474069 102.560388 
L 444.230861 102.560388 
z
" style="fill:#1f77b4;"/>
    </g>
    <g id="patch_168">
     <path clip-path="url(#p0b2397f07e)" d="M 444.474069 127.314351 
L 444.717277 127.314351 
L 444.717277 121.12586 
L 444.474069 121.12586 
z
" style="fill:#1f77b4;"/>
    </g>
    <g id="patch_169">
     <path clip-path="url(#p0b2397f07e)" d="M 444.717277 127.314351 
L 444.960485 127.314351 
L 444.960485 102.560388 
L 444.717277 102.560388 
z
" style="fill:#1f77b4;"/>
    </g>
    <g id="patch_170">
     <path clip-path="url(#p0b2397f07e)" d="M 444.960485 127.314351 
L 445.203693 127.314351 
L 445.203693 111.843124 
L 444.960485 111.843124 
z
" style="fill:#1f77b4;"/>
    </g>
    <g id="patch_171">
     <path clip-path="url(#p0b2397f07e)" d="M 445.203693 127.314351 
L 445.446901 127.314351 
L 445.446901 90.183406 
L 445.203693 90.183406 
z
" style="fill:#1f77b4;"/>
    </g>
    <g id="patch_172">
     <path clip-path="url(#p0b2397f07e)" d="M 445.446901 127.314351 
L 445.690109 127.314351 
L 445.690109 83.994916 
L 445.446901 83.994916 
z
" style="fill:#1f77b4;"/>
    </g>
    <g id="patch_173">
     <path clip-path="url(#p0b2397f07e)" d="M 445.690109 127.314351 
L 445.933317 127.314351 
L 445.933317 68.523689 
L 445.690109 68.523689 
z
" style="fill:#1f77b4;"/>
    </g>
    <g id="patch_174">
     <path clip-path="url(#p0b2397f07e)" d="M 445.933317 127.314351 
L 446.176525 127.314351 
L 446.176525 87.089161 
L 445.933317 87.089161 
z
" style="fill:#1f77b4;"/>
    </g>
    <g id="patch_175">
     <path clip-path="url(#p0b2397f07e)" d="M 446.176525 127.314351 
L 446.419733 127.314351 
L 446.419733 114.937369 
L 446.176525 114.937369 
z
" style="fill:#1f77b4;"/>
    </g>
    <g id="patch_176">
     <path clip-path="url(#p0b2397f07e)" d="M 446.419733 127.314351 
L 446.662941 127.314351 
L 446.662941 127.314351 
L 446.419733 127.314351 
z
" style="fill:#1f77b4;"/>
    </g>
    <g id="patch_177">
     <path clip-path="url(#p0b2397f07e)" d="M 446.662941 127.314351 
L 446.906149 127.314351 
L 446.906149 121.12586 
L 446.662941 121.12586 
z
" style="fill:#1f77b4;"/>
    </g>
    <g id="patch_178">
     <path clip-path="url(#p0b2397f07e)" d="M 446.906149 127.314351 
L 447.149357 127.314351 
L 447.149357 124.220105 
L 446.906149 124.220105 
z
" style="fill:#1f77b4;"/>
    </g>
    <g id="patch_179">
     <path clip-path="url(#p0b2397f07e)" d="M 447.149357 127.314351 
L 447.392565 127.314351 
L 447.392565 127.314351 
L 447.149357 127.314351 
z
" style="fill:#1f77b4;"/>
    </g>
    <g id="patch_180">
     <path clip-path="url(#p0b2397f07e)" d="M 447.392565 127.314351 
L 447.635773 127.314351 
L 447.635773 127.314351 
L 447.392565 127.314351 
z
" style="fill:#1f77b4;"/>
    </g>
    <g id="patch_181">
     <path clip-path="url(#p0b2397f07e)" d="M 447.635773 127.314351 
L 447.878982 127.314351 
L 447.878982 127.314351 
L 447.635773 127.314351 
z
" style="fill:#1f77b4;"/>
    </g>
    <g id="patch_182">
     <path clip-path="url(#p0b2397f07e)" d="M 447.878982 127.314351 
L 448.12219 127.314351 
L 448.12219 121.12586 
L 447.878982 121.12586 
z
" style="fill:#1f77b4;"/>
    </g>
    <g id="patch_183">
     <path d="M 423.7898 127.314351 
L 423.7898 65.584156 
" style="fill:none;stroke:#000000;stroke-linecap:square;stroke-linejoin:miter;stroke-width:0.8;"/>
    </g>
    <g id="patch_184">
     <path d="M 473.7018 127.314351 
L 473.7018 65.584156 
" style="fill:none;stroke:#000000;stroke-linecap:square;stroke-linejoin:miter;stroke-width:0.8;"/>
    </g>
    <g id="patch_185">
     <path d="M 423.7898 127.314351 
L 473.7018 127.314351 
" style="fill:none;stroke:#000000;stroke-linecap:square;stroke-linejoin:miter;stroke-width:0.8;"/>
    </g>
    <g id="patch_186">
     <path d="M 423.7898 65.584156 
L 473.7018 65.584156 
" style="fill:none;stroke:#000000;stroke-linecap:square;stroke-linejoin:miter;stroke-width:0.8;"/>
    </g>
   </g>
   <g id="axes_8">
    <g id="patch_187">
     <path d="M 493.41704 127.314351 
L 543.32904 127.314351 
L 543.32904 65.584156 
L 493.41704 65.584156 
z
" style="fill:#ffffff;"/>
    </g>
    <g id="patch_188">
     <path clip-path="url(#p61fc8d5168)" d="M 505.225576 127.314351 
L 505.479171 127.314351 
L 505.479171 122.415129 
L 505.225576 122.415129 
z
" style="fill:#1f77b4;"/>
    </g>
    <g id="patch_189">
     <path clip-path="url(#p61fc8d5168)" d="M 505.479171 127.314351 
L 505.732766 127.314351 
L 505.732766 117.515907 
L 505.479171 117.515907 
z
" style="fill:#1f77b4;"/>
    </g>
    <g id="patch_190">
     <path clip-path="url(#p61fc8d5168)" d="M 505.732766 127.314351 
L 505.986361 127.314351 
L 505.986361 127.314351 
L 505.732766 127.314351 
z
" style="fill:#1f77b4;"/>
    </g>
    <g id="patch_191">
     <path clip-path="url(#p61fc8d5168)" d="M 505.986361 127.314351 
L 506.239956 127.314351 
L 506.239956 122.415129 
L 505.986361 122.415129 
z
" style="fill:#1f77b4;"/>
    </g>
    <g id="patch_192">
     <path clip-path="url(#p61fc8d5168)" d="M 506.239956 127.314351 
L 506.493552 127.314351 
L 506.493552 107.717463 
L 506.239956 107.717463 
z
" style="fill:#1f77b4;"/>
    </g>
    <g id="patch_193">
     <path clip-path="url(#p61fc8d5168)" d="M 506.493552 127.314351 
L 506.747147 127.314351 
L 506.747147 117.515907 
L 506.493552 117.515907 
z
" style="fill:#1f77b4;"/>
    </g>
    <g id="patch_194">
     <path clip-path="url(#p61fc8d5168)" d="M 506.747147 127.314351 
L 507.000742 127.314351 
L 507.000742 112.616685 
L 506.747147 112.616685 
z
" style="fill:#1f77b4;"/>
    </g>
    <g id="patch_195">
     <path clip-path="url(#p61fc8d5168)" d="M 507.000742 127.314351 
L 507.254337 127.314351 
L 507.254337 122.415129 
L 507.000742 122.415129 
z
" style="fill:#1f77b4;"/>
    </g>
    <g id="patch_196">
     <path clip-path="url(#p61fc8d5168)" d="M 507.254337 127.314351 
L 507.507932 127.314351 
L 507.507932 117.515907 
L 507.254337 117.515907 
z
" style="fill:#1f77b4;"/>
    </g>
    <g id="patch_197">
     <path clip-path="url(#p61fc8d5168)" d="M 507.507932 127.314351 
L 507.761527 127.314351 
L 507.761527 107.717463 
L 507.507932 107.717463 
z
" style="fill:#1f77b4;"/>
    </g>
    <g id="patch_198">
     <path clip-path="url(#p61fc8d5168)" d="M 507.761527 127.314351 
L 508.015122 127.314351 
L 508.015122 117.515907 
L 507.761527 117.515907 
z
" style="fill:#1f77b4;"/>
    </g>
    <g id="patch_199">
     <path clip-path="url(#p61fc8d5168)" d="M 508.015122 127.314351 
L 508.268717 127.314351 
L 508.268717 112.616685 
L 508.015122 112.616685 
z
" style="fill:#1f77b4;"/>
    </g>
    <g id="patch_200">
     <path clip-path="url(#p61fc8d5168)" d="M 508.268717 127.314351 
L 508.522313 127.314351 
L 508.522313 102.818242 
L 508.268717 102.818242 
z
" style="fill:#1f77b4;"/>
    </g>
    <g id="patch_201">
     <path clip-path="url(#p61fc8d5168)" d="M 508.522313 127.314351 
L 508.775908 127.314351 
L 508.775908 117.515907 
L 508.522313 117.515907 
z
" style="fill:#1f77b4;"/>
    </g>
    <g id="patch_202">
     <path clip-path="url(#p61fc8d5168)" d="M 508.775908 127.314351 
L 509.029503 127.314351 
L 509.029503 117.515907 
L 508.775908 117.515907 
z
" style="fill:#1f77b4;"/>
    </g>
    <g id="patch_203">
     <path clip-path="url(#p61fc8d5168)" d="M 509.029503 127.314351 
L 509.283098 127.314351 
L 509.283098 102.818242 
L 509.029503 102.818242 
z
" style="fill:#1f77b4;"/>
    </g>
    <g id="patch_204">
     <path clip-path="url(#p61fc8d5168)" d="M 509.283098 127.314351 
L 509.536693 127.314351 
L 509.536693 102.818242 
L 509.283098 102.818242 
z
" style="fill:#1f77b4;"/>
    </g>
    <g id="patch_205">
     <path clip-path="url(#p61fc8d5168)" d="M 509.536693 127.314351 
L 509.790288 127.314351 
L 509.790288 97.91902 
L 509.536693 97.91902 
z
" style="fill:#1f77b4;"/>
    </g>
    <g id="patch_206">
     <path clip-path="url(#p61fc8d5168)" d="M 509.790288 127.314351 
L 510.043883 127.314351 
L 510.043883 68.523689 
L 509.790288 68.523689 
z
" style="fill:#1f77b4;"/>
    </g>
    <g id="patch_207">
     <path clip-path="url(#p61fc8d5168)" d="M 510.043883 127.314351 
L 510.297478 127.314351 
L 510.297478 102.818242 
L 510.043883 102.818242 
z
" style="fill:#1f77b4;"/>
    </g>
    <g id="patch_208">
     <path clip-path="url(#p61fc8d5168)" d="M 510.297478 127.314351 
L 510.551074 127.314351 
L 510.551074 97.91902 
L 510.297478 97.91902 
z
" style="fill:#1f77b4;"/>
    </g>
    <g id="patch_209">
     <path clip-path="url(#p61fc8d5168)" d="M 510.551074 127.314351 
L 510.804669 127.314351 
L 510.804669 78.322133 
L 510.551074 78.322133 
z
" style="fill:#1f77b4;"/>
    </g>
    <g id="patch_210">
     <path clip-path="url(#p61fc8d5168)" d="M 510.804669 127.314351 
L 511.058264 127.314351 
L 511.058264 102.818242 
L 510.804669 102.818242 
z
" style="fill:#1f77b4;"/>
    </g>
    <g id="patch_211">
     <path clip-path="url(#p61fc8d5168)" d="M 511.058264 127.314351 
L 511.311859 127.314351 
L 511.311859 102.818242 
L 511.058264 102.818242 
z
" style="fill:#1f77b4;"/>
    </g>
    <g id="patch_212">
     <path clip-path="url(#p61fc8d5168)" d="M 511.311859 127.314351 
L 511.565454 127.314351 
L 511.565454 93.019798 
L 511.311859 93.019798 
z
" style="fill:#1f77b4;"/>
    </g>
    <g id="patch_213">
     <path d="M 493.41704 127.314351 
L 493.41704 65.584156 
" style="fill:none;stroke:#000000;stroke-linecap:square;stroke-linejoin:miter;stroke-width:0.8;"/>
    </g>
    <g id="patch_214">
     <path d="M 543.32904 127.314351 
L 543.32904 65.584156 
" style="fill:none;stroke:#000000;stroke-linecap:square;stroke-linejoin:miter;stroke-width:0.8;"/>
    </g>
    <g id="patch_215">
     <path d="M 493.41704 127.314351 
L 543.32904 127.314351 
" style="fill:none;stroke:#000000;stroke-linecap:square;stroke-linejoin:miter;stroke-width:0.8;"/>
    </g>
    <g id="patch_216">
     <path d="M 493.41704 65.584156 
L 543.32904 65.584156 
" style="fill:none;stroke:#000000;stroke-linecap:square;stroke-linejoin:miter;stroke-width:0.8;"/>
    </g>
   </g>
  </g>
 </g>
 <defs>
  <clipPath id="pb65599e4c7">
   <rect height="246.920779" width="499.12" x="60.68" y="16.2"/>
  </clipPath>
  <clipPath id="p419d128c92">
   <rect height="61.730195" width="49.912" x="75.6536" y="65.584156"/>
  </clipPath>
  <clipPath id="p22df16b54c">
   <rect height="61.730195" width="49.912" x="145.28084" y="65.584156"/>
  </clipPath>
  <clipPath id="p3bbc35bb41">
   <rect height="61.730195" width="49.912" x="214.90808" y="65.584156"/>
  </clipPath>
  <clipPath id="pc1b702f127">
   <rect height="61.730195" width="49.912" x="284.53532" y="65.584156"/>
  </clipPath>
  <clipPath id="p02d16b4b3a">
   <rect height="61.730195" width="49.912" x="354.16256" y="65.584156"/>
  </clipPath>
  <clipPath id="p0b2397f07e">
   <rect height="61.730195" width="49.912" x="423.7898" y="65.584156"/>
  </clipPath>
  <clipPath id="p61fc8d5168">
   <rect height="61.730195" width="49.912" x="493.41704" y="65.584156"/>
  </clipPath>
 </defs>
</svg>
