<?xml version="1.0" encoding="utf-8" standalone="no"?>
<!DOCTYPE svg PUBLIC "-//W3C//DTD SVG 1.1//EN"
  "http://www.w3.org/Graphics/SVG/1.1/DTD/svg11.dtd">
<svg height="345.6pt" version="1.1" viewBox="0 0 460.8 345.6" width="460.8pt" xmlns="http://www.w3.org/2000/svg" xmlns:xlink="http://www.w3.org/1999/xlink">
 <metadata>
  <rdf:RDF xmlns:cc="http://creativecommons.org/ns#" xmlns:dc="http://purl.org/dc/elements/1.1/" xmlns:rdf="http://www.w3.org/1999/02/22-rdf-syntax-ns#">
   <cc:Work>
    <dc:type rdf:resource="http://purl.org/dc/dcmitype/StillImage"/>
    <dc:date>2021-05-07T12:06:48.213838</dc:date>
    <dc:format>image/svg+xml</dc:format>
    <dc:creator>
     <cc:Agent>
      <dc:title>Matplotlib v3.4.1, https://matplotlib.org/</dc:title>
     </cc:Agent>
    </dc:creator>
   </cc:Work>
  </rdf:RDF>
 </metadata>
 <defs>
  <style type="text/css">*{stroke-linecap:butt;stroke-linejoin:round;}</style>
 </defs>
 <g id="figure_1">
  <g id="patch_1">
   <path d="M 0 345.6 
L 460.8 345.6 
L 460.8 0 
L 0 0 
z
" style="fill:#ffffff;"/>
  </g>
  <g id="axes_1">
   <g id="patch_2">
    <path d="M 44.48 303.64 
L 450 303.64 
L 450 32.876829 
L 44.48 32.876829 
z
" style="fill:#ffffff;"/>
   </g>
   <g id="PolyCollection_1">
    <path clip-path="url(#pb790defc04)" d="M 62.912727 262.265771 
L 62.912727 291.332583 
L 70.436289 187.45308 
L 77.959852 155.257622 
L 85.483414 129.594269 
L 93.006976 115.008014 
L 100.530538 106.805888 
L 108.0541 101.711269 
L 115.577662 96.933742 
L 123.101224 95.940185 
L 130.624787 90.507334 
L 138.148349 91.965959 
L 145.671911 88.097431 
L 153.195473 87.505525 
L 160.719035 90.126823 
L 168.242597 84.524855 
L 175.76616 81.607604 
L 183.289722 81.966976 
L 190.813284 79.578212 
L 198.336846 76.893496 
L 205.860408 74.229919 
L 213.38397 73.511176 
L 220.907532 72.750154 
L 228.431095 70.297972 
L 235.954657 70.509367 
L 243.478219 70.720762 
L 251.001781 67.972627 
L 258.525343 67.00021 
L 266.048905 65.161073 
L 273.572468 63.469913 
L 281.09603 64.167517 
L 288.619592 65.372468 
L 296.143154 61.630777 
L 303.666716 60.700639 
L 311.190278 61.355963 
L 318.71384 59.178595 
L 326.237403 58.988339 
L 333.760965 57.106924 
L 341.284527 58.12162 
L 348.808089 59.474548 
L 356.331651 60.489244 
L 363.855213 59.855059 
L 371.378776 56.85325 
L 378.902338 54.675881 
L 386.4259 56.367041 
L 393.949462 55.838554 
L 401.473024 54.527905 
L 408.996586 55.711717 
L 416.520148 56.810971 
L 424.043711 52.984721 
L 431.567273 58.015922 
L 431.567273 51.039887 
L 431.567273 51.039887 
L 424.043711 51.145585 
L 416.520148 55.056392 
L 408.996586 55.310066 
L 401.473024 53.04814 
L 393.949462 54.126254 
L 386.4259 54.633602 
L 378.902338 54.29537 
L 371.378776 56.83211 
L 363.855213 56.43046 
L 356.331651 56.980087 
L 348.808089 57.339458 
L 341.284527 57.889085 
L 333.760965 55.394624 
L 326.237403 58.650107 
L 318.71384 56.874389 
L 311.190278 57.508574 
L 303.666716 60.024175 
L 296.143154 59.495687 
L 288.619592 62.116985 
L 281.09603 63.829285 
L 273.572468 62.243822 
L 266.048905 64.674865 
L 258.525343 63.469913 
L 251.001781 67.190465 
L 243.478219 68.310859 
L 235.954657 68.24744 
L 228.431095 69.642647 
L 220.907532 70.38253 
L 213.38397 70.889878 
L 205.860408 72.940409 
L 198.336846 74.18764 
L 190.813284 77.717936 
L 183.289722 78.373261 
L 175.76616 79.937584 
L 168.242597 84.271181 
L 160.719035 82.051534 
L 153.195473 83.848391 
L 145.671911 83.848391 
L 138.148349 90.190241 
L 130.624787 89.154406 
L 123.101224 93.741677 
L 115.577662 95.74993 
L 108.0541 100.950247 
L 100.530538 104.903333 
L 93.006976 113.50711 
L 85.483414 123.463814 
L 77.959852 143.947989 
L 70.436289 184.324434 
L 62.912727 262.265771 
z
" style="fill:#1f77b4;fill-opacity:0.5;"/>
   </g>
   <g id="PolyCollection_2">
    <path clip-path="url(#pb790defc04)" d="M 62.912727 265.077324 
L 62.912727 274.442123 
L 70.436289 192.463142 
L 77.959852 156.568271 
L 85.483414 129.573129 
L 93.006976 120.69454 
L 100.530538 115.980431 
L 108.0541 106.404238 
L 115.577662 108.454769 
L 123.101224 101.838106 
L 130.624787 100.590875 
L 138.148349 96.701207 
L 145.671911 97.293113 
L 153.195473 91.839122 
L 160.719035 92.283052 
L 168.242597 89.260103 
L 175.76616 89.260103 
L 183.289722 87.484385 
L 190.813284 86.87134 
L 198.336846 83.087369 
L 205.860408 84.567134 
L 213.38397 82.305208 
L 220.907532 80.064421 
L 228.431095 80.973419 
L 235.954657 77.231728 
L 243.478219 80.698606 
L 251.001781 82.326347 
L 258.525343 77.083751 
L 266.048905 77.527681 
L 273.572468 75.603986 
L 281.09603 74.1665 
L 288.619592 75.921079 
L 296.143154 71.312668 
L 303.666716 73.912826 
L 311.190278 70.720762 
L 318.71384 70.255693 
L 326.237403 70.467088 
L 333.760965 67.697813 
L 341.284527 69.748345 
L 348.808089 68.522254 
L 356.331651 68.543393 
L 363.855213 68.310859 
L 371.378776 66.746536 
L 378.902338 64.970818 
L 386.4259 71.22811 
L 393.949462 65.478166 
L 401.473024 63.469913 
L 408.996586 65.478166 
L 416.520148 65.858677 
L 424.043711 61.673056 
L 431.567273 61.186847 
L 431.567273 56.980087 
L 431.567273 56.980087 
L 424.043711 59.347711 
L 416.520148 64.357772 
L 408.996586 60.108733 
L 401.473024 61.398242 
L 393.949462 61.313684 
L 386.4259 65.647282 
L 378.902338 64.970818 
L 371.378776 65.562724 
L 363.855213 63.977261 
L 356.331651 67.740092 
L 348.808089 66.704257 
L 341.284527 66.366025 
L 333.760965 66.873373 
L 326.237403 70.171135 
L 318.71384 69.95974 
L 311.190278 68.564533 
L 303.666716 71.735458 
L 296.143154 68.839346 
L 288.619592 69.896321 
L 281.09603 68.966183 
L 273.572468 67.740092 
L 266.048905 69.51581 
L 258.525343 71.037854 
L 251.001781 73.595734 
L 243.478219 74.018524 
L 235.954657 75.223475 
L 228.431095 76.555264 
L 220.907532 79.451375 
L 213.38397 79.472515 
L 205.860408 81.205954 
L 198.336846 81.417349 
L 190.813284 79.768468 
L 183.289722 86.385131 
L 175.76616 88.160849 
L 168.242597 87.822617 
L 160.719035 91.691146 
L 153.195473 90.105683 
L 145.671911 91.691146 
L 138.148349 96.532091 
L 130.624787 96.257278 
L 123.101224 101.563292 
L 115.577662 103.465847 
L 108.0541 101.880385 
L 100.530538 110.441882 
L 93.006976 118.284637 
L 85.483414 128.579573 
L 77.959852 152.7843 
L 70.436289 186.438384 
L 62.912727 265.077324 
z
" style="fill:#ff7f0e;fill-opacity:0.5;"/>
   </g>
   <g id="PolyCollection_3">
    <path clip-path="url(#pb790defc04)" d="M 62.912727 270.552455 
L 62.912727 281.798669 
L 70.436289 218.845238 
L 77.959852 178.024863 
L 85.483414 149.909328 
L 93.006976 127.480319 
L 100.530538 109.596302 
L 108.0541 101.816966 
L 115.577662 102.345454 
L 123.101224 94.862071 
L 130.624787 89.661754 
L 138.148349 86.469689 
L 145.671911 81.163675 
L 153.195473 82.706858 
L 160.719035 80.1067 
L 168.242597 78.880609 
L 175.76616 75.202336 
L 183.289722 71.566342 
L 190.813284 76.259311 
L 198.336846 69.980879 
L 205.860408 70.78418 
L 213.38397 66.027793 
L 220.907532 65.182213 
L 228.431095 64.717144 
L 235.954657 63.723587 
L 243.478219 65.245631 
L 251.001781 64.949678 
L 258.525343 60.341267 
L 266.048905 60.21443 
L 273.572468 59.79164 
L 281.09603 60.764057 
L 288.619592 60.21443 
L 296.143154 58.12162 
L 303.666716 56.916668 
L 311.190278 56.43046 
L 318.71384 55.288927 
L 326.237403 57.001226 
L 333.760965 52.075723 
L 341.284527 52.096862 
L 348.808089 51.33584 
L 356.331651 52.054583 
L 363.855213 52.287118 
L 371.378776 50.532539 
L 378.902338 50.955329 
L 386.4259 46.600592 
L 393.949462 49.369867 
L 401.473024 47.826683 
L 408.996586 47.995799 
L 416.520148 47.699846 
L 424.043711 46.389197 
L 431.567273 46.664011 
L 431.567273 45.818431 
L 431.567273 45.818431 
L 424.043711 46.029826 
L 416.520148 45.184246 
L 408.996586 46.642871 
L 401.473024 45.247664 
L 393.949462 49.22189 
L 386.4259 46.156663 
L 378.902338 50.046331 
L 371.378776 46.833127 
L 363.855213 49.623541 
L 356.331651 51.864328 
L 348.808089 50.236586 
L 341.284527 50.278865 
L 333.760965 50.870771 
L 326.237403 50.215447 
L 318.71384 51.166724 
L 311.190278 55.098671 
L 303.666716 56.599576 
L 296.143154 57.635411 
L 288.619592 57.508574 
L 281.09603 57.402877 
L 273.572468 58.840363 
L 266.048905 59.474548 
L 258.525343 59.81278 
L 251.001781 59.094037 
L 243.478219 61.461661 
L 235.954657 61.355963 
L 228.431095 64.104098 
L 220.907532 64.336633 
L 213.38397 65.28791 
L 205.860408 67.528697 
L 198.336846 69.283276 
L 190.813284 71.101273 
L 183.289722 71.122412 
L 175.76616 71.862295 
L 168.242597 73.468897 
L 160.719035 78.626935 
L 153.195473 81.163675 
L 145.671911 80.571769 
L 138.148349 83.341043 
L 130.624787 88.731616 
L 123.101224 91.479751 
L 115.577662 97.335392 
L 108.0541 101.309618 
L 100.530538 105.326123 
L 93.006976 118.58059 
L 85.483414 135.04826 
L 77.959852 162.191378 
L 70.436289 199.100945 
L 62.912727 270.552455 
z
" style="fill:#2ca02c;fill-opacity:0.5;"/>
   </g>
   <g id="PolyCollection_4">
    <path clip-path="url(#pb790defc04)" d="M 62.912727 273.385148 
L 62.912727 274.019333 
L 70.436289 190.962237 
L 77.959852 161.747448 
L 85.483414 145.047243 
L 93.006976 131.074034 
L 100.530538 119.996936 
L 108.0541 114.225853 
L 115.577662 108.729583 
L 123.101224 106.129424 
L 130.624787 102.91622 
L 138.148349 101.901524 
L 145.671911 100.062388 
L 153.195473 95.813348 
L 160.719035 94.925489 
L 168.242597 96.405254 
L 175.76616 94.101049 
L 183.289722 94.101049 
L 190.813284 91.796843 
L 198.336846 90.105683 
L 205.860408 89.978846 
L 213.38397 88.647058 
L 220.907532 87.29413 
L 228.431095 86.406271 
L 235.954657 85.729807 
L 243.478219 84.567134 
L 251.001781 83.150788 
L 258.525343 83.193067 
L 266.048905 80.592908 
L 273.572468 79.599352 
L 281.09603 78.056168 
L 288.619592 77.464262 
L 296.143154 79.028585 
L 303.666716 79.514794 
L 311.190278 77.041472 
L 318.71384 76.174753 
L 326.237403 76.174753 
L 333.760965 77.252867 
L 341.284527 74.229919 
L 348.808089 72.327364 
L 356.331651 71.397226 
L 363.855213 71.989132 
L 371.378776 72.094829 
L 378.902338 73.490036 
L 386.4259 72.327364 
L 393.949462 70.192274 
L 401.473024 70.974436 
L 408.996586 69.11416 
L 416.520148 68.141743 
L 424.043711 67.697813 
L 431.567273 66.957931 
L 431.567273 65.647282 
L 431.567273 65.647282 
L 424.043711 65.245631 
L 416.520148 65.266771 
L 408.996586 66.97907 
L 401.473024 66.894512 
L 393.949462 67.232744 
L 386.4259 69.071881 
L 378.902338 68.733649 
L 371.378776 70.741901 
L 363.855213 69.283276 
L 356.331651 70.953296 
L 348.808089 71.22811 
L 341.284527 72.623317 
L 333.760965 73.215223 
L 326.237403 73.067246 
L 318.71384 74.758406 
L 311.190278 76.30159 
L 303.666716 74.61043 
L 296.143154 77.654518 
L 288.619592 76.999193 
L 281.09603 77.56996 
L 273.572468 79.451375 
L 266.048905 80.254676 
L 258.525343 81.396209 
L 251.001781 82.770277 
L 243.478219 83.700415 
L 235.954657 83.827252 
L 228.431095 84.271181 
L 220.907532 86.237155 
L 213.38397 85.222459 
L 205.860408 87.526664 
L 198.336846 86.321713 
L 190.813284 90.190241 
L 183.289722 91.50089 
L 175.76616 93.044074 
L 168.242597 92.579005 
L 160.719035 93.234329 
L 153.195473 95.707651 
L 145.671911 96.193859 
L 138.148349 97.293113 
L 130.624787 101.182781 
L 123.101224 101.330758 
L 115.577662 105.664355 
L 108.0541 107.884003 
L 100.530538 113.993318 
L 93.006976 124.224836 
L 85.483414 134.921423 
L 77.959852 155.680412 
L 70.436289 187.262825 
L 62.912727 273.385148 
z
" style="fill:#d62728;fill-opacity:0.5;"/>
   </g>
   <g id="matplotlib.axis_1">
    <g id="xtick_1">
     <g id="line2d_1">
      <defs>
       <path d="M 0 0 
L 0 3.5 
" id="maf85d094a6" style="stroke:#000000;stroke-width:0.8;"/>
      </defs>
      <g>
       <use style="stroke:#000000;stroke-width:0.8;" x="62.912727" xlink:href="#maf85d094a6" y="303.64"/>
      </g>
     </g>
     <g id="text_1">
      <!-- 0 -->
      <g transform="translate(59.731477 318.238437)scale(0.1 -0.1)">
       <defs>
        <path d="M 2034 4250 
Q 1547 4250 1301 3770 
Q 1056 3291 1056 2328 
Q 1056 1369 1301 889 
Q 1547 409 2034 409 
Q 2525 409 2770 889 
Q 3016 1369 3016 2328 
Q 3016 3291 2770 3770 
Q 2525 4250 2034 4250 
z
M 2034 4750 
Q 2819 4750 3233 4129 
Q 3647 3509 3647 2328 
Q 3647 1150 3233 529 
Q 2819 -91 2034 -91 
Q 1250 -91 836 529 
Q 422 1150 422 2328 
Q 422 3509 836 4129 
Q 1250 4750 2034 4750 
z
" id="DejaVuSans-30" transform="scale(0.015625)"/>
       </defs>
       <use xlink:href="#DejaVuSans-30"/>
      </g>
     </g>
    </g>
    <g id="xtick_2">
     <g id="line2d_2">
      <g>
       <use style="stroke:#000000;stroke-width:0.8;" x="138.148349" xlink:href="#maf85d094a6" y="303.64"/>
      </g>
     </g>
     <g id="text_2">
      <!-- 10 -->
      <g transform="translate(131.785849 318.238437)scale(0.1 -0.1)">
       <defs>
        <path d="M 794 531 
L 1825 531 
L 1825 4091 
L 703 3866 
L 703 4441 
L 1819 4666 
L 2450 4666 
L 2450 531 
L 3481 531 
L 3481 0 
L 794 0 
L 794 531 
z
" id="DejaVuSans-31" transform="scale(0.015625)"/>
       </defs>
       <use xlink:href="#DejaVuSans-31"/>
       <use x="63.623047" xlink:href="#DejaVuSans-30"/>
      </g>
     </g>
    </g>
    <g id="xtick_3">
     <g id="line2d_3">
      <g>
       <use style="stroke:#000000;stroke-width:0.8;" x="213.38397" xlink:href="#maf85d094a6" y="303.64"/>
      </g>
     </g>
     <g id="text_3">
      <!-- 20 -->
      <g transform="translate(207.02147 318.238437)scale(0.1 -0.1)">
       <defs>
        <path d="M 1228 531 
L 3431 531 
L 3431 0 
L 469 0 
L 469 531 
Q 828 903 1448 1529 
Q 2069 2156 2228 2338 
Q 2531 2678 2651 2914 
Q 2772 3150 2772 3378 
Q 2772 3750 2511 3984 
Q 2250 4219 1831 4219 
Q 1534 4219 1204 4116 
Q 875 4013 500 3803 
L 500 4441 
Q 881 4594 1212 4672 
Q 1544 4750 1819 4750 
Q 2544 4750 2975 4387 
Q 3406 4025 3406 3419 
Q 3406 3131 3298 2873 
Q 3191 2616 2906 2266 
Q 2828 2175 2409 1742 
Q 1991 1309 1228 531 
z
" id="DejaVuSans-32" transform="scale(0.015625)"/>
       </defs>
       <use xlink:href="#DejaVuSans-32"/>
       <use x="63.623047" xlink:href="#DejaVuSans-30"/>
      </g>
     </g>
    </g>
    <g id="xtick_4">
     <g id="line2d_4">
      <g>
       <use style="stroke:#000000;stroke-width:0.8;" x="288.619592" xlink:href="#maf85d094a6" y="303.64"/>
      </g>
     </g>
     <g id="text_4">
      <!-- 30 -->
      <g transform="translate(282.257092 318.238437)scale(0.1 -0.1)">
       <defs>
        <path d="M 2597 2516 
Q 3050 2419 3304 2112 
Q 3559 1806 3559 1356 
Q 3559 666 3084 287 
Q 2609 -91 1734 -91 
Q 1441 -91 1130 -33 
Q 819 25 488 141 
L 488 750 
Q 750 597 1062 519 
Q 1375 441 1716 441 
Q 2309 441 2620 675 
Q 2931 909 2931 1356 
Q 2931 1769 2642 2001 
Q 2353 2234 1838 2234 
L 1294 2234 
L 1294 2753 
L 1863 2753 
Q 2328 2753 2575 2939 
Q 2822 3125 2822 3475 
Q 2822 3834 2567 4026 
Q 2313 4219 1838 4219 
Q 1578 4219 1281 4162 
Q 984 4106 628 3988 
L 628 4550 
Q 988 4650 1302 4700 
Q 1616 4750 1894 4750 
Q 2613 4750 3031 4423 
Q 3450 4097 3450 3541 
Q 3450 3153 3228 2886 
Q 3006 2619 2597 2516 
z
" id="DejaVuSans-33" transform="scale(0.015625)"/>
       </defs>
       <use xlink:href="#DejaVuSans-33"/>
       <use x="63.623047" xlink:href="#DejaVuSans-30"/>
      </g>
     </g>
    </g>
    <g id="xtick_5">
     <g id="line2d_5">
      <g>
       <use style="stroke:#000000;stroke-width:0.8;" x="363.855213" xlink:href="#maf85d094a6" y="303.64"/>
      </g>
     </g>
     <g id="text_5">
      <!-- 40 -->
      <g transform="translate(357.492713 318.238437)scale(0.1 -0.1)">
       <defs>
        <path d="M 2419 4116 
L 825 1625 
L 2419 1625 
L 2419 4116 
z
M 2253 4666 
L 3047 4666 
L 3047 1625 
L 3713 1625 
L 3713 1100 
L 3047 1100 
L 3047 0 
L 2419 0 
L 2419 1100 
L 313 1100 
L 313 1709 
L 2253 4666 
z
" id="DejaVuSans-34" transform="scale(0.015625)"/>
       </defs>
       <use xlink:href="#DejaVuSans-34"/>
       <use x="63.623047" xlink:href="#DejaVuSans-30"/>
      </g>
     </g>
    </g>
    <g id="xtick_6">
     <g id="line2d_6">
      <g>
       <use style="stroke:#000000;stroke-width:0.8;" x="439.090835" xlink:href="#maf85d094a6" y="303.64"/>
      </g>
     </g>
     <g id="text_6">
      <!-- 50 -->
      <g transform="translate(432.728335 318.238437)scale(0.1 -0.1)">
       <defs>
        <path d="M 691 4666 
L 3169 4666 
L 3169 4134 
L 1269 4134 
L 1269 2991 
Q 1406 3038 1543 3061 
Q 1681 3084 1819 3084 
Q 2600 3084 3056 2656 
Q 3513 2228 3513 1497 
Q 3513 744 3044 326 
Q 2575 -91 1722 -91 
Q 1428 -91 1123 -41 
Q 819 9 494 109 
L 494 744 
Q 775 591 1075 516 
Q 1375 441 1709 441 
Q 2250 441 2565 725 
Q 2881 1009 2881 1497 
Q 2881 1984 2565 2268 
Q 2250 2553 1709 2553 
Q 1456 2553 1204 2497 
Q 953 2441 691 2322 
L 691 4666 
z
" id="DejaVuSans-35" transform="scale(0.015625)"/>
       </defs>
       <use xlink:href="#DejaVuSans-35"/>
       <use x="63.623047" xlink:href="#DejaVuSans-30"/>
      </g>
     </g>
    </g>
    <g id="text_7">
     <!-- Global Communication Rounds -->
     <g transform="translate(170.278281 331.916562)scale(0.1 -0.1)">
      <defs>
       <path d="M 3809 666 
L 3809 1919 
L 2778 1919 
L 2778 2438 
L 4434 2438 
L 4434 434 
Q 4069 175 3628 42 
Q 3188 -91 2688 -91 
Q 1594 -91 976 548 
Q 359 1188 359 2328 
Q 359 3472 976 4111 
Q 1594 4750 2688 4750 
Q 3144 4750 3555 4637 
Q 3966 4525 4313 4306 
L 4313 3634 
Q 3963 3931 3569 4081 
Q 3175 4231 2741 4231 
Q 1884 4231 1454 3753 
Q 1025 3275 1025 2328 
Q 1025 1384 1454 906 
Q 1884 428 2741 428 
Q 3075 428 3337 486 
Q 3600 544 3809 666 
z
" id="DejaVuSans-47" transform="scale(0.015625)"/>
       <path d="M 603 4863 
L 1178 4863 
L 1178 0 
L 603 0 
L 603 4863 
z
" id="DejaVuSans-6c" transform="scale(0.015625)"/>
       <path d="M 1959 3097 
Q 1497 3097 1228 2736 
Q 959 2375 959 1747 
Q 959 1119 1226 758 
Q 1494 397 1959 397 
Q 2419 397 2687 759 
Q 2956 1122 2956 1747 
Q 2956 2369 2687 2733 
Q 2419 3097 1959 3097 
z
M 1959 3584 
Q 2709 3584 3137 3096 
Q 3566 2609 3566 1747 
Q 3566 888 3137 398 
Q 2709 -91 1959 -91 
Q 1206 -91 779 398 
Q 353 888 353 1747 
Q 353 2609 779 3096 
Q 1206 3584 1959 3584 
z
" id="DejaVuSans-6f" transform="scale(0.015625)"/>
       <path d="M 3116 1747 
Q 3116 2381 2855 2742 
Q 2594 3103 2138 3103 
Q 1681 3103 1420 2742 
Q 1159 2381 1159 1747 
Q 1159 1113 1420 752 
Q 1681 391 2138 391 
Q 2594 391 2855 752 
Q 3116 1113 3116 1747 
z
M 1159 2969 
Q 1341 3281 1617 3432 
Q 1894 3584 2278 3584 
Q 2916 3584 3314 3078 
Q 3713 2572 3713 1747 
Q 3713 922 3314 415 
Q 2916 -91 2278 -91 
Q 1894 -91 1617 61 
Q 1341 213 1159 525 
L 1159 0 
L 581 0 
L 581 4863 
L 1159 4863 
L 1159 2969 
z
" id="DejaVuSans-62" transform="scale(0.015625)"/>
       <path d="M 2194 1759 
Q 1497 1759 1228 1600 
Q 959 1441 959 1056 
Q 959 750 1161 570 
Q 1363 391 1709 391 
Q 2188 391 2477 730 
Q 2766 1069 2766 1631 
L 2766 1759 
L 2194 1759 
z
M 3341 1997 
L 3341 0 
L 2766 0 
L 2766 531 
Q 2569 213 2275 61 
Q 1981 -91 1556 -91 
Q 1019 -91 701 211 
Q 384 513 384 1019 
Q 384 1609 779 1909 
Q 1175 2209 1959 2209 
L 2766 2209 
L 2766 2266 
Q 2766 2663 2505 2880 
Q 2244 3097 1772 3097 
Q 1472 3097 1187 3025 
Q 903 2953 641 2809 
L 641 3341 
Q 956 3463 1253 3523 
Q 1550 3584 1831 3584 
Q 2591 3584 2966 3190 
Q 3341 2797 3341 1997 
z
" id="DejaVuSans-61" transform="scale(0.015625)"/>
       <path id="DejaVuSans-20" transform="scale(0.015625)"/>
       <path d="M 4122 4306 
L 4122 3641 
Q 3803 3938 3442 4084 
Q 3081 4231 2675 4231 
Q 1875 4231 1450 3742 
Q 1025 3253 1025 2328 
Q 1025 1406 1450 917 
Q 1875 428 2675 428 
Q 3081 428 3442 575 
Q 3803 722 4122 1019 
L 4122 359 
Q 3791 134 3420 21 
Q 3050 -91 2638 -91 
Q 1578 -91 968 557 
Q 359 1206 359 2328 
Q 359 3453 968 4101 
Q 1578 4750 2638 4750 
Q 3056 4750 3426 4639 
Q 3797 4528 4122 4306 
z
" id="DejaVuSans-43" transform="scale(0.015625)"/>
       <path d="M 3328 2828 
Q 3544 3216 3844 3400 
Q 4144 3584 4550 3584 
Q 5097 3584 5394 3201 
Q 5691 2819 5691 2113 
L 5691 0 
L 5113 0 
L 5113 2094 
Q 5113 2597 4934 2840 
Q 4756 3084 4391 3084 
Q 3944 3084 3684 2787 
Q 3425 2491 3425 1978 
L 3425 0 
L 2847 0 
L 2847 2094 
Q 2847 2600 2669 2842 
Q 2491 3084 2119 3084 
Q 1678 3084 1418 2786 
Q 1159 2488 1159 1978 
L 1159 0 
L 581 0 
L 581 3500 
L 1159 3500 
L 1159 2956 
Q 1356 3278 1631 3431 
Q 1906 3584 2284 3584 
Q 2666 3584 2933 3390 
Q 3200 3197 3328 2828 
z
" id="DejaVuSans-6d" transform="scale(0.015625)"/>
       <path d="M 544 1381 
L 544 3500 
L 1119 3500 
L 1119 1403 
Q 1119 906 1312 657 
Q 1506 409 1894 409 
Q 2359 409 2629 706 
Q 2900 1003 2900 1516 
L 2900 3500 
L 3475 3500 
L 3475 0 
L 2900 0 
L 2900 538 
Q 2691 219 2414 64 
Q 2138 -91 1772 -91 
Q 1169 -91 856 284 
Q 544 659 544 1381 
z
M 1991 3584 
L 1991 3584 
z
" id="DejaVuSans-75" transform="scale(0.015625)"/>
       <path d="M 3513 2113 
L 3513 0 
L 2938 0 
L 2938 2094 
Q 2938 2591 2744 2837 
Q 2550 3084 2163 3084 
Q 1697 3084 1428 2787 
Q 1159 2491 1159 1978 
L 1159 0 
L 581 0 
L 581 3500 
L 1159 3500 
L 1159 2956 
Q 1366 3272 1645 3428 
Q 1925 3584 2291 3584 
Q 2894 3584 3203 3211 
Q 3513 2838 3513 2113 
z
" id="DejaVuSans-6e" transform="scale(0.015625)"/>
       <path d="M 603 3500 
L 1178 3500 
L 1178 0 
L 603 0 
L 603 3500 
z
M 603 4863 
L 1178 4863 
L 1178 4134 
L 603 4134 
L 603 4863 
z
" id="DejaVuSans-69" transform="scale(0.015625)"/>
       <path d="M 3122 3366 
L 3122 2828 
Q 2878 2963 2633 3030 
Q 2388 3097 2138 3097 
Q 1578 3097 1268 2742 
Q 959 2388 959 1747 
Q 959 1106 1268 751 
Q 1578 397 2138 397 
Q 2388 397 2633 464 
Q 2878 531 3122 666 
L 3122 134 
Q 2881 22 2623 -34 
Q 2366 -91 2075 -91 
Q 1284 -91 818 406 
Q 353 903 353 1747 
Q 353 2603 823 3093 
Q 1294 3584 2113 3584 
Q 2378 3584 2631 3529 
Q 2884 3475 3122 3366 
z
" id="DejaVuSans-63" transform="scale(0.015625)"/>
       <path d="M 1172 4494 
L 1172 3500 
L 2356 3500 
L 2356 3053 
L 1172 3053 
L 1172 1153 
Q 1172 725 1289 603 
Q 1406 481 1766 481 
L 2356 481 
L 2356 0 
L 1766 0 
Q 1100 0 847 248 
Q 594 497 594 1153 
L 594 3053 
L 172 3053 
L 172 3500 
L 594 3500 
L 594 4494 
L 1172 4494 
z
" id="DejaVuSans-74" transform="scale(0.015625)"/>
       <path d="M 2841 2188 
Q 3044 2119 3236 1894 
Q 3428 1669 3622 1275 
L 4263 0 
L 3584 0 
L 2988 1197 
Q 2756 1666 2539 1819 
Q 2322 1972 1947 1972 
L 1259 1972 
L 1259 0 
L 628 0 
L 628 4666 
L 2053 4666 
Q 2853 4666 3247 4331 
Q 3641 3997 3641 3322 
Q 3641 2881 3436 2590 
Q 3231 2300 2841 2188 
z
M 1259 4147 
L 1259 2491 
L 2053 2491 
Q 2509 2491 2742 2702 
Q 2975 2913 2975 3322 
Q 2975 3731 2742 3939 
Q 2509 4147 2053 4147 
L 1259 4147 
z
" id="DejaVuSans-52" transform="scale(0.015625)"/>
       <path d="M 2906 2969 
L 2906 4863 
L 3481 4863 
L 3481 0 
L 2906 0 
L 2906 525 
Q 2725 213 2448 61 
Q 2172 -91 1784 -91 
Q 1150 -91 751 415 
Q 353 922 353 1747 
Q 353 2572 751 3078 
Q 1150 3584 1784 3584 
Q 2172 3584 2448 3432 
Q 2725 3281 2906 2969 
z
M 947 1747 
Q 947 1113 1208 752 
Q 1469 391 1925 391 
Q 2381 391 2643 752 
Q 2906 1113 2906 1747 
Q 2906 2381 2643 2742 
Q 2381 3103 1925 3103 
Q 1469 3103 1208 2742 
Q 947 2381 947 1747 
z
" id="DejaVuSans-64" transform="scale(0.015625)"/>
       <path d="M 2834 3397 
L 2834 2853 
Q 2591 2978 2328 3040 
Q 2066 3103 1784 3103 
Q 1356 3103 1142 2972 
Q 928 2841 928 2578 
Q 928 2378 1081 2264 
Q 1234 2150 1697 2047 
L 1894 2003 
Q 2506 1872 2764 1633 
Q 3022 1394 3022 966 
Q 3022 478 2636 193 
Q 2250 -91 1575 -91 
Q 1294 -91 989 -36 
Q 684 19 347 128 
L 347 722 
Q 666 556 975 473 
Q 1284 391 1588 391 
Q 1994 391 2212 530 
Q 2431 669 2431 922 
Q 2431 1156 2273 1281 
Q 2116 1406 1581 1522 
L 1381 1569 
Q 847 1681 609 1914 
Q 372 2147 372 2553 
Q 372 3047 722 3315 
Q 1072 3584 1716 3584 
Q 2034 3584 2315 3537 
Q 2597 3491 2834 3397 
z
" id="DejaVuSans-73" transform="scale(0.015625)"/>
      </defs>
      <use xlink:href="#DejaVuSans-47"/>
      <use x="77.490234" xlink:href="#DejaVuSans-6c"/>
      <use x="105.273438" xlink:href="#DejaVuSans-6f"/>
      <use x="166.455078" xlink:href="#DejaVuSans-62"/>
      <use x="229.931641" xlink:href="#DejaVuSans-61"/>
      <use x="291.210938" xlink:href="#DejaVuSans-6c"/>
      <use x="318.994141" xlink:href="#DejaVuSans-20"/>
      <use x="350.78125" xlink:href="#DejaVuSans-43"/>
      <use x="420.605469" xlink:href="#DejaVuSans-6f"/>
      <use x="481.787109" xlink:href="#DejaVuSans-6d"/>
      <use x="579.199219" xlink:href="#DejaVuSans-6d"/>
      <use x="676.611328" xlink:href="#DejaVuSans-75"/>
      <use x="739.990234" xlink:href="#DejaVuSans-6e"/>
      <use x="803.369141" xlink:href="#DejaVuSans-69"/>
      <use x="831.152344" xlink:href="#DejaVuSans-63"/>
      <use x="886.132812" xlink:href="#DejaVuSans-61"/>
      <use x="947.412109" xlink:href="#DejaVuSans-74"/>
      <use x="986.621094" xlink:href="#DejaVuSans-69"/>
      <use x="1014.404297" xlink:href="#DejaVuSans-6f"/>
      <use x="1075.585938" xlink:href="#DejaVuSans-6e"/>
      <use x="1138.964844" xlink:href="#DejaVuSans-20"/>
      <use x="1170.751953" xlink:href="#DejaVuSans-52"/>
      <use x="1235.734375" xlink:href="#DejaVuSans-6f"/>
      <use x="1296.916016" xlink:href="#DejaVuSans-75"/>
      <use x="1360.294922" xlink:href="#DejaVuSans-6e"/>
      <use x="1423.673828" xlink:href="#DejaVuSans-64"/>
      <use x="1487.150391" xlink:href="#DejaVuSans-73"/>
     </g>
    </g>
   </g>
   <g id="matplotlib.axis_2">
    <g id="ytick_1">
     <g id="line2d_7">
      <defs>
       <path d="M 0 0 
L -3.5 0 
" id="md4615d1a83" style="stroke:#000000;stroke-width:0.8;"/>
      </defs>
      <g>
       <use style="stroke:#000000;stroke-width:0.8;" x="44.48" xlink:href="#md4615d1a83" y="265.622723"/>
      </g>
     </g>
     <g id="text_8">
      <!-- 30 -->
      <g transform="translate(24.755 269.421942)scale(0.1 -0.1)">
       <use xlink:href="#DejaVuSans-33"/>
       <use x="63.623047" xlink:href="#DejaVuSans-30"/>
      </g>
     </g>
    </g>
    <g id="ytick_2">
     <g id="line2d_8">
      <g>
       <use style="stroke:#000000;stroke-width:0.8;" x="44.48" xlink:href="#md4615d1a83" y="210.972888"/>
      </g>
     </g>
     <g id="text_9">
      <!-- 35 -->
      <g transform="translate(24.755 214.772107)scale(0.1 -0.1)">
       <use xlink:href="#DejaVuSans-33"/>
       <use x="63.623047" xlink:href="#DejaVuSans-35"/>
      </g>
     </g>
    </g>
    <g id="ytick_3">
     <g id="line2d_9">
      <g>
       <use style="stroke:#000000;stroke-width:0.8;" x="44.48" xlink:href="#md4615d1a83" y="156.323053"/>
      </g>
     </g>
     <g id="text_10">
      <!-- 40 -->
      <g transform="translate(24.755 160.122271)scale(0.1 -0.1)">
       <use xlink:href="#DejaVuSans-34"/>
       <use x="63.623047" xlink:href="#DejaVuSans-30"/>
      </g>
     </g>
    </g>
    <g id="ytick_4">
     <g id="line2d_10">
      <g>
       <use style="stroke:#000000;stroke-width:0.8;" x="44.48" xlink:href="#md4615d1a83" y="101.673217"/>
      </g>
     </g>
     <g id="text_11">
      <!-- 45 -->
      <g transform="translate(24.755 105.472436)scale(0.1 -0.1)">
       <use xlink:href="#DejaVuSans-34"/>
       <use x="63.623047" xlink:href="#DejaVuSans-35"/>
      </g>
     </g>
    </g>
    <g id="ytick_5">
     <g id="line2d_11">
      <g>
       <use style="stroke:#000000;stroke-width:0.8;" x="44.48" xlink:href="#md4615d1a83" y="47.023382"/>
      </g>
     </g>
     <g id="text_12">
      <!-- 50 -->
      <g transform="translate(24.755 50.822601)scale(0.1 -0.1)">
       <use xlink:href="#DejaVuSans-35"/>
       <use x="63.623047" xlink:href="#DejaVuSans-30"/>
      </g>
     </g>
    </g>
    <g id="text_13">
     <!-- Test Accuracy -->
     <g transform="translate(18.675313 202.520914)rotate(-90)scale(0.1 -0.1)">
      <defs>
       <path d="M -19 4666 
L 3928 4666 
L 3928 4134 
L 2272 4134 
L 2272 0 
L 1638 0 
L 1638 4134 
L -19 4134 
L -19 4666 
z
" id="DejaVuSans-54" transform="scale(0.015625)"/>
       <path d="M 3597 1894 
L 3597 1613 
L 953 1613 
Q 991 1019 1311 708 
Q 1631 397 2203 397 
Q 2534 397 2845 478 
Q 3156 559 3463 722 
L 3463 178 
Q 3153 47 2828 -22 
Q 2503 -91 2169 -91 
Q 1331 -91 842 396 
Q 353 884 353 1716 
Q 353 2575 817 3079 
Q 1281 3584 2069 3584 
Q 2775 3584 3186 3129 
Q 3597 2675 3597 1894 
z
M 3022 2063 
Q 3016 2534 2758 2815 
Q 2500 3097 2075 3097 
Q 1594 3097 1305 2825 
Q 1016 2553 972 2059 
L 3022 2063 
z
" id="DejaVuSans-65" transform="scale(0.015625)"/>
       <path d="M 2188 4044 
L 1331 1722 
L 3047 1722 
L 2188 4044 
z
M 1831 4666 
L 2547 4666 
L 4325 0 
L 3669 0 
L 3244 1197 
L 1141 1197 
L 716 0 
L 50 0 
L 1831 4666 
z
" id="DejaVuSans-41" transform="scale(0.015625)"/>
       <path d="M 2631 2963 
Q 2534 3019 2420 3045 
Q 2306 3072 2169 3072 
Q 1681 3072 1420 2755 
Q 1159 2438 1159 1844 
L 1159 0 
L 581 0 
L 581 3500 
L 1159 3500 
L 1159 2956 
Q 1341 3275 1631 3429 
Q 1922 3584 2338 3584 
Q 2397 3584 2469 3576 
Q 2541 3569 2628 3553 
L 2631 2963 
z
" id="DejaVuSans-72" transform="scale(0.015625)"/>
       <path d="M 2059 -325 
Q 1816 -950 1584 -1140 
Q 1353 -1331 966 -1331 
L 506 -1331 
L 506 -850 
L 844 -850 
Q 1081 -850 1212 -737 
Q 1344 -625 1503 -206 
L 1606 56 
L 191 3500 
L 800 3500 
L 1894 763 
L 2988 3500 
L 3597 3500 
L 2059 -325 
z
" id="DejaVuSans-79" transform="scale(0.015625)"/>
      </defs>
      <use xlink:href="#DejaVuSans-54"/>
      <use x="44.083984" xlink:href="#DejaVuSans-65"/>
      <use x="105.607422" xlink:href="#DejaVuSans-73"/>
      <use x="157.707031" xlink:href="#DejaVuSans-74"/>
      <use x="196.916016" xlink:href="#DejaVuSans-20"/>
      <use x="228.703125" xlink:href="#DejaVuSans-41"/>
      <use x="295.361328" xlink:href="#DejaVuSans-63"/>
      <use x="350.341797" xlink:href="#DejaVuSans-63"/>
      <use x="405.322266" xlink:href="#DejaVuSans-75"/>
      <use x="468.701172" xlink:href="#DejaVuSans-72"/>
      <use x="509.814453" xlink:href="#DejaVuSans-61"/>
      <use x="571.09375" xlink:href="#DejaVuSans-63"/>
      <use x="626.074219" xlink:href="#DejaVuSans-79"/>
     </g>
    </g>
   </g>
   <g id="line2d_12">
    <path clip-path="url(#pb790defc04)" d="M 62.912727 276.799177 
L 70.436289 185.888757 
L 77.959852 149.602806 
L 85.483414 126.529041 
L 93.006976 114.257562 
L 100.530538 105.854611 
L 108.0541 101.330758 
L 115.577662 96.341836 
L 123.101224 94.840931 
L 130.624787 89.83087 
L 138.148349 91.0781 
L 145.671911 85.972911 
L 153.195473 85.676958 
L 160.719035 86.089178 
L 168.242597 84.398018 
L 175.76616 80.772594 
L 183.289722 80.170118 
L 190.813284 78.648074 
L 198.336846 75.540568 
L 205.860408 73.585164 
L 213.38397 72.200527 
L 220.907532 71.566342 
L 228.431095 69.970309 
L 235.954657 69.378403 
L 243.478219 69.51581 
L 251.001781 67.581546 
L 258.525343 65.235061 
L 266.048905 64.917969 
L 273.572468 62.856868 
L 281.09603 63.998401 
L 288.619592 63.744727 
L 296.143154 60.563232 
L 303.666716 60.362407 
L 311.190278 59.432269 
L 318.71384 58.026492 
L 326.237403 58.819223 
L 333.760965 56.250774 
L 341.284527 58.005352 
L 348.808089 58.407003 
L 356.331651 58.734665 
L 363.855213 58.142759 
L 371.378776 56.84268 
L 378.902338 54.485626 
L 386.4259 55.500322 
L 393.949462 54.982404 
L 401.473024 53.788022 
L 408.996586 55.510891 
L 416.520148 55.933681 
L 424.043711 52.065153 
L 431.567273 54.527905 
" style="fill:none;stroke:#1f77b4;stroke-linecap:square;stroke-width:1.5;"/>
   </g>
   <g id="line2d_13">
    <path clip-path="url(#pb790defc04)" d="M 62.912727 269.759723 
L 70.436289 189.450763 
L 77.959852 154.676286 
L 85.483414 129.076351 
L 93.006976 119.489588 
L 100.530538 113.211157 
L 108.0541 104.142311 
L 115.577662 105.960308 
L 123.101224 101.700699 
L 130.624787 98.424076 
L 138.148349 96.616649 
L 145.671911 94.492129 
L 153.195473 90.972403 
L 160.719035 91.987099 
L 168.242597 88.54136 
L 175.76616 88.710476 
L 183.289722 86.934758 
L 190.813284 83.319904 
L 198.336846 82.252359 
L 205.860408 82.886544 
L 213.38397 80.888861 
L 220.907532 79.757898 
L 228.431095 78.764341 
L 235.954657 76.227601 
L 243.478219 77.358565 
L 251.001781 77.96104 
L 258.525343 74.060803 
L 266.048905 73.521745 
L 273.572468 71.672039 
L 281.09603 71.566342 
L 288.619592 72.9087 
L 296.143154 70.076007 
L 303.666716 72.824142 
L 311.190278 69.642647 
L 318.71384 70.107716 
L 326.237403 70.319111 
L 333.760965 67.285593 
L 341.284527 68.057185 
L 348.808089 67.613255 
L 356.331651 68.141743 
L 363.855213 66.14406 
L 371.378776 66.15463 
L 378.902338 64.970818 
L 386.4259 68.437696 
L 393.949462 63.395925 
L 401.473024 62.434078 
L 408.996586 62.793449 
L 416.520148 65.108224 
L 424.043711 60.510383 
L 431.567273 59.083467 
" style="fill:none;stroke:#ff7f0e;stroke-linecap:square;stroke-width:1.5;"/>
   </g>
   <g id="line2d_14">
    <path clip-path="url(#pb790defc04)" d="M 62.912727 276.175562 
L 70.436289 208.973091 
L 77.959852 170.108121 
L 85.483414 142.478794 
L 93.006976 123.030454 
L 100.530538 107.461213 
L 108.0541 101.563292 
L 115.577662 99.840423 
L 123.101224 93.170911 
L 130.624787 89.196685 
L 138.148349 84.905366 
L 145.671911 80.867722 
L 153.195473 81.935266 
L 160.719035 79.366817 
L 168.242597 76.174753 
L 175.76616 73.532315 
L 183.289722 71.344377 
L 190.813284 73.680292 
L 198.336846 69.632077 
L 205.860408 69.156439 
L 213.38397 65.657851 
L 220.907532 64.759423 
L 228.431095 64.410621 
L 235.954657 62.539775 
L 243.478219 63.353646 
L 251.001781 62.021857 
L 258.525343 60.077023 
L 266.048905 59.844489 
L 273.572468 59.316001 
L 281.09603 59.083467 
L 288.619592 58.861502 
L 296.143154 57.878515 
L 303.666716 56.758122 
L 311.190278 55.764565 
L 318.71384 53.227825 
L 326.237403 53.608336 
L 333.760965 51.473247 
L 341.284527 51.187864 
L 348.808089 50.786213 
L 356.331651 51.959455 
L 363.855213 50.955329 
L 371.378776 48.682833 
L 378.902338 50.50083 
L 386.4259 46.378627 
L 393.949462 49.295878 
L 401.473024 46.537174 
L 408.996586 47.319335 
L 416.520148 46.442046 
L 424.043711 46.209511 
L 431.567273 46.241221 
" style="fill:none;stroke:#2ca02c;stroke-linecap:square;stroke-width:1.5;"/>
   </g>
   <g id="line2d_15">
    <path clip-path="url(#pb790defc04)" d="M 62.912727 273.70224 
L 70.436289 189.112531 
L 77.959852 158.71393 
L 85.483414 139.984333 
L 93.006976 127.649435 
L 100.530538 116.995127 
L 108.0541 111.054928 
L 115.577662 107.196969 
L 123.101224 103.730091 
L 130.624787 102.049501 
L 138.148349 99.597319 
L 145.671911 98.128123 
L 153.195473 95.760499 
L 160.719035 94.079909 
L 168.242597 94.492129 
L 175.76616 93.572561 
L 183.289722 92.800969 
L 190.813284 90.993542 
L 198.336846 88.213698 
L 205.860408 88.752755 
L 213.38397 86.934758 
L 220.907532 86.765642 
L 228.431095 85.338726 
L 235.954657 84.778529 
L 243.478219 84.133774 
L 251.001781 82.960532 
L 258.525343 82.294638 
L 266.048905 80.423792 
L 273.572468 79.525363 
L 281.09603 77.813064 
L 288.619592 77.231728 
L 296.143154 78.341551 
L 303.666716 77.062612 
L 311.190278 76.671531 
L 318.71384 75.466579 
L 326.237403 74.620999 
L 333.760965 75.234045 
L 341.284527 73.426618 
L 348.808089 71.777737 
L 356.331651 71.175261 
L 363.855213 70.636204 
L 371.378776 71.418365 
L 378.902338 71.111842 
L 386.4259 70.699622 
L 393.949462 68.712509 
L 401.473024 68.934474 
L 408.996586 68.046615 
L 416.520148 66.704257 
L 424.043711 66.471722 
L 431.567273 66.302606 
" style="fill:none;stroke:#d62728;stroke-linecap:square;stroke-width:1.5;"/>
   </g>
   <g id="patch_3">
    <path d="M 44.48 303.64 
L 44.48 32.876829 
" style="fill:none;stroke:#000000;stroke-linecap:square;stroke-linejoin:miter;stroke-width:0.8;"/>
   </g>
   <g id="patch_4">
    <path d="M 450 303.64 
L 450 32.876829 
" style="fill:none;stroke:#000000;stroke-linecap:square;stroke-linejoin:miter;stroke-width:0.8;"/>
   </g>
   <g id="patch_5">
    <path d="M 44.48 303.64 
L 450 303.64 
" style="fill:none;stroke:#000000;stroke-linecap:square;stroke-linejoin:miter;stroke-width:0.8;"/>
   </g>
   <g id="patch_6">
    <path d="M 44.48 32.876829 
L 450 32.876829 
" style="fill:none;stroke:#000000;stroke-linecap:square;stroke-linejoin:miter;stroke-width:0.8;"/>
   </g>
   <g id="legend_1">
    <g id="patch_7">
     <path d="M 80.841563 28.478637 
L 413.638438 28.478637 
Q 415.638438 28.478637 415.638438 26.478637 
L 415.638438 12.800512 
Q 415.638438 10.800512 413.638438 10.800512 
L 80.841563 10.800512 
Q 78.841563 10.800512 78.841563 12.800512 
L 78.841563 26.478637 
Q 78.841563 28.478637 80.841563 28.478637 
z
" style="fill:#ffffff;opacity:0.8;stroke:#cccccc;stroke-linejoin:miter;"/>
    </g>
    <g id="line2d_16">
     <path d="M 82.841563 18.898949 
L 102.841563 18.898949 
" style="fill:none;stroke:#1f77b4;stroke-linecap:square;stroke-width:1.5;"/>
    </g>
    <g id="line2d_17"/>
    <g id="text_14">
     <!-- FedAvg -->
     <g transform="translate(110.841563 22.398949)scale(0.1 -0.1)">
      <defs>
       <path d="M 628 4666 
L 3309 4666 
L 3309 4134 
L 1259 4134 
L 1259 2759 
L 3109 2759 
L 3109 2228 
L 1259 2228 
L 1259 0 
L 628 0 
L 628 4666 
z
" id="DejaVuSans-46" transform="scale(0.015625)"/>
       <path d="M 191 3500 
L 800 3500 
L 1894 563 
L 2988 3500 
L 3597 3500 
L 2284 0 
L 1503 0 
L 191 3500 
z
" id="DejaVuSans-76" transform="scale(0.015625)"/>
       <path d="M 2906 1791 
Q 2906 2416 2648 2759 
Q 2391 3103 1925 3103 
Q 1463 3103 1205 2759 
Q 947 2416 947 1791 
Q 947 1169 1205 825 
Q 1463 481 1925 481 
Q 2391 481 2648 825 
Q 2906 1169 2906 1791 
z
M 3481 434 
Q 3481 -459 3084 -895 
Q 2688 -1331 1869 -1331 
Q 1566 -1331 1297 -1286 
Q 1028 -1241 775 -1147 
L 775 -588 
Q 1028 -725 1275 -790 
Q 1522 -856 1778 -856 
Q 2344 -856 2625 -561 
Q 2906 -266 2906 331 
L 2906 616 
Q 2728 306 2450 153 
Q 2172 0 1784 0 
Q 1141 0 747 490 
Q 353 981 353 1791 
Q 353 2603 747 3093 
Q 1141 3584 1784 3584 
Q 2172 3584 2450 3431 
Q 2728 3278 2906 2969 
L 2906 3500 
L 3481 3500 
L 3481 434 
z
" id="DejaVuSans-67" transform="scale(0.015625)"/>
      </defs>
      <use xlink:href="#DejaVuSans-46"/>
      <use x="52.019531" xlink:href="#DejaVuSans-65"/>
      <use x="113.542969" xlink:href="#DejaVuSans-64"/>
      <use x="177.019531" xlink:href="#DejaVuSans-41"/>
      <use x="239.552734" xlink:href="#DejaVuSans-76"/>
      <use x="298.732422" xlink:href="#DejaVuSans-67"/>
     </g>
    </g>
    <g id="line2d_18">
     <path d="M 167.065 18.898949 
L 187.065 18.898949 
" style="fill:none;stroke:#ff7f0e;stroke-linecap:square;stroke-width:1.5;"/>
    </g>
    <g id="line2d_19"/>
    <g id="text_15">
     <!-- FedMed -->
     <g transform="translate(195.065 22.398949)scale(0.1 -0.1)">
      <defs>
       <path d="M 628 4666 
L 1569 4666 
L 2759 1491 
L 3956 4666 
L 4897 4666 
L 4897 0 
L 4281 0 
L 4281 4097 
L 3078 897 
L 2444 897 
L 1241 4097 
L 1241 0 
L 628 0 
L 628 4666 
z
" id="DejaVuSans-4d" transform="scale(0.015625)"/>
      </defs>
      <use xlink:href="#DejaVuSans-46"/>
      <use x="52.019531" xlink:href="#DejaVuSans-65"/>
      <use x="113.542969" xlink:href="#DejaVuSans-64"/>
      <use x="177.019531" xlink:href="#DejaVuSans-4d"/>
      <use x="263.298828" xlink:href="#DejaVuSans-65"/>
      <use x="324.822266" xlink:href="#DejaVuSans-64"/>
     </g>
    </g>
    <g id="line2d_20">
     <path d="M 253.897813 18.898949 
L 273.897812 18.898949 
" style="fill:none;stroke:#2ca02c;stroke-linecap:square;stroke-width:1.5;"/>
    </g>
    <g id="line2d_21"/>
    <g id="text_16">
     <!-- FedProx -->
     <g transform="translate(281.897812 22.398949)scale(0.1 -0.1)">
      <defs>
       <path d="M 1259 4147 
L 1259 2394 
L 2053 2394 
Q 2494 2394 2734 2622 
Q 2975 2850 2975 3272 
Q 2975 3691 2734 3919 
Q 2494 4147 2053 4147 
L 1259 4147 
z
M 628 4666 
L 2053 4666 
Q 2838 4666 3239 4311 
Q 3641 3956 3641 3272 
Q 3641 2581 3239 2228 
Q 2838 1875 2053 1875 
L 1259 1875 
L 1259 0 
L 628 0 
L 628 4666 
z
" id="DejaVuSans-50" transform="scale(0.015625)"/>
       <path d="M 3513 3500 
L 2247 1797 
L 3578 0 
L 2900 0 
L 1881 1375 
L 863 0 
L 184 0 
L 1544 1831 
L 300 3500 
L 978 3500 
L 1906 2253 
L 2834 3500 
L 3513 3500 
z
" id="DejaVuSans-78" transform="scale(0.015625)"/>
      </defs>
      <use xlink:href="#DejaVuSans-46"/>
      <use x="52.019531" xlink:href="#DejaVuSans-65"/>
      <use x="113.542969" xlink:href="#DejaVuSans-64"/>
      <use x="177.019531" xlink:href="#DejaVuSans-50"/>
      <use x="235.572266" xlink:href="#DejaVuSans-72"/>
      <use x="274.435547" xlink:href="#DejaVuSans-6f"/>
      <use x="332.492188" xlink:href="#DejaVuSans-78"/>
     </g>
    </g>
    <g id="line2d_22">
     <path d="M 341.066563 18.898949 
L 361.066563 18.898949 
" style="fill:none;stroke:#d62728;stroke-linecap:square;stroke-width:1.5;"/>
    </g>
    <g id="line2d_23"/>
    <g id="text_17">
     <!-- qFedAvg -->
     <g transform="translate(369.066563 22.398949)scale(0.1 -0.1)">
      <defs>
       <path d="M 947 1747 
Q 947 1113 1208 752 
Q 1469 391 1925 391 
Q 2381 391 2643 752 
Q 2906 1113 2906 1747 
Q 2906 2381 2643 2742 
Q 2381 3103 1925 3103 
Q 1469 3103 1208 2742 
Q 947 2381 947 1747 
z
M 2906 525 
Q 2725 213 2448 61 
Q 2172 -91 1784 -91 
Q 1150 -91 751 415 
Q 353 922 353 1747 
Q 353 2572 751 3078 
Q 1150 3584 1784 3584 
Q 2172 3584 2448 3432 
Q 2725 3281 2906 2969 
L 2906 3500 
L 3481 3500 
L 3481 -1331 
L 2906 -1331 
L 2906 525 
z
" id="DejaVuSans-71" transform="scale(0.015625)"/>
      </defs>
      <use xlink:href="#DejaVuSans-71"/>
      <use x="63.476562" xlink:href="#DejaVuSans-46"/>
      <use x="115.496094" xlink:href="#DejaVuSans-65"/>
      <use x="177.019531" xlink:href="#DejaVuSans-64"/>
      <use x="240.496094" xlink:href="#DejaVuSans-41"/>
      <use x="303.029297" xlink:href="#DejaVuSans-76"/>
      <use x="362.208984" xlink:href="#DejaVuSans-67"/>
     </g>
    </g>
   </g>
  </g>
 </g>
 <defs>
  <clipPath id="pb790defc04">
   <rect height="270.763171" width="405.52" x="44.48" y="32.876829"/>
  </clipPath>
 </defs>
</svg>
