<?xml version="1.0" encoding="utf-8" standalone="no"?>
<!DOCTYPE svg PUBLIC "-//W3C//DTD SVG 1.1//EN"
  "http://www.w3.org/Graphics/SVG/1.1/DTD/svg11.dtd">
<svg height="432pt" version="1.1" viewBox="0 0 576 432" width="576pt" xmlns="http://www.w3.org/2000/svg" xmlns:xlink="http://www.w3.org/1999/xlink">
 <metadata>
  <rdf:RDF xmlns:cc="http://creativecommons.org/ns#" xmlns:dc="http://purl.org/dc/elements/1.1/" xmlns:rdf="http://www.w3.org/1999/02/22-rdf-syntax-ns#">
   <cc:Work>
    <dc:type rdf:resource="http://purl.org/dc/dcmitype/StillImage"/>
    <dc:date>2021-05-07T22:04:45.767444</dc:date>
    <dc:format>image/svg+xml</dc:format>
    <dc:creator>
     <cc:Agent>
      <dc:title>Matplotlib v3.4.1, https://matplotlib.org/</dc:title>
     </cc:Agent>
    </dc:creator>
   </cc:Work>
  </rdf:RDF>
 </metadata>
 <defs>
  <style type="text/css">*{stroke-linecap:butt;stroke-linejoin:round;}</style>
 </defs>
 <g id="figure_1">
  <g id="patch_1">
   <path d="M 0 432 
L 576 432 
L 576 0 
L 0 0 
z
" style="fill:#ffffff;"/>
  </g>
  <g id="axes_1">
   <g id="patch_2">
    <path d="M 60.68 376 
L 556.55 376 
L 556.55 56.601989 
L 60.68 56.601989 
z
" style="fill:#ffffff;"/>
   </g>
   <g id="PolyCollection_1">
    <path clip-path="url(#pc598bdc5c4)" d="M 83.219545 342.801813 
L 83.219545 354.859864 
L 92.41936 307.912533 
L 101.619174 272.291864 
L 110.818989 250.725742 
L 120.018803 235.524691 
L 129.218618 226.056155 
L 138.418432 216.923664 
L 147.618247 205.755141 
L 156.818061 198.243568 
L 166.017876 188.300618 
L 175.21769 186.363423 
L 184.417505 175.787919 
L 193.617319 168.236811 
L 202.817134 166.477522 
L 212.016948 163.334521 
L 221.216763 156.514804 
L 230.416577 151.750885 
L 239.616391 149.971828 
L 248.816206 138.131217 
L 258.01602 136.925412 
L 267.215835 134.4545 
L 276.415649 134.197525 
L 285.615464 130.303368 
L 294.815278 124.43248 
L 304.015093 124.056902 
L 313.214907 121.882499 
L 322.414722 115.912775 
L 331.614536 116.723235 
L 340.814351 113.402329 
L 350.014165 111.682574 
L 359.21398 110.061655 
L 368.413794 105.534944 
L 377.613609 103.993095 
L 386.813423 102.154737 
L 396.013237 100.019868 
L 405.213052 98.557088 
L 414.412866 93.931541 
L 423.612681 94.761767 
L 432.812495 93.437358 
L 442.01231 87.546704 
L 451.212124 89.83971 
L 460.411939 87.961817 
L 469.611753 86.676943 
L 478.811568 84.403704 
L 488.011382 82.288603 
L 497.211197 78.552584 
L 506.411011 77.781659 
L 515.610826 79.16537 
L 524.81064 77.010734 
L 534.010455 74.282847 
L 534.010455 71.12008 
L 534.010455 71.12008 
L 524.81064 73.432854 
L 515.610826 74.184011 
L 506.411011 75.449118 
L 497.211197 78.256074 
L 488.011382 78.65142 
L 478.811568 81.201402 
L 469.611753 79.283974 
L 460.411939 83.751383 
L 451.212124 85.569974 
L 442.01231 86.558339 
L 432.812495 88.772276 
L 423.612681 90.096685 
L 414.412866 92.745503 
L 405.213052 93.555962 
L 396.013237 93.358289 
L 386.813423 99.051271 
L 377.613609 98.873365 
L 368.413794 99.762894 
L 359.21398 101.265208 
L 350.014165 104.447743 
L 340.814351 107.650045 
L 331.614536 108.42097 
L 322.414722 113.086052 
L 313.214907 113.066285 
L 304.015093 116.881373 
L 294.815278 122.159241 
L 285.615464 124.076669 
L 276.415649 123.305745 
L 267.215835 129.492909 
L 258.01602 133.466135 
L 248.816206 136.21379 
L 239.616391 140.443991 
L 230.416577 144.891633 
L 221.216763 153.055527 
L 212.016948 155.22993 
L 202.817134 161.73337 
L 193.617319 167.386817 
L 184.417505 169.304245 
L 175.21769 177.843718 
L 166.017876 187.272718 
L 156.818061 197.05753 
L 147.618247 204.015619 
L 138.418432 212.93067 
L 129.218618 218.010865 
L 120.018803 234.931672 
L 110.818989 249.895516 
L 101.619174 267.448876 
L 92.41936 305.856734 
L 83.219545 342.801813 
z
" style="fill:#1f77b4;fill-opacity:0.5;"/>
   </g>
   <g id="PolyCollection_2">
    <path clip-path="url(#pc598bdc5c4)" d="M 83.219545 349.068046 
L 83.219545 361.363305 
L 92.41936 309.236942 
L 101.619174 285.04177 
L 110.818989 258.850101 
L 120.018803 245.803685 
L 129.218618 240.130471 
L 138.418432 220.402708 
L 147.618247 213.741129 
L 156.818061 202.276097 
L 166.017876 200.536575 
L 175.21769 190.25758 
L 184.417505 185.829706 
L 193.617319 180.354164 
L 202.817134 175.076296 
L 212.016948 166.793798 
L 221.216763 162.385691 
L 230.416577 156.831081 
L 239.616391 156.791546 
L 248.816206 150.821822 
L 258.01602 146.077671 
L 267.215835 141.98584 
L 276.415649 141.98584 
L 285.615464 135.4824 
L 294.815278 133.703343 
L 304.015093 130.837085 
L 313.214907 128.465009 
L 322.414722 125.559216 
L 331.614536 123.760392 
L 340.814351 123.147606 
L 350.014165 118.541826 
L 359.21398 116.051146 
L 368.413794 113.718605 
L 377.613609 112.888379 
L 386.813423 114.331392 
L 396.013237 108.63841 
L 405.213052 109.350033 
L 414.412866 105.554712 
L 423.612681 105.969825 
L 432.812495 104.922158 
L 442.01231 101.561718 
L 451.212124 99.64429 
L 460.411939 103.0838 
L 469.611753 97.687327 
L 478.811568 95.710598 
L 488.011382 93.002478 
L 497.211197 95.295484 
L 506.411011 92.84434 
L 515.610826 93.318755 
L 524.81064 89.582736 
L 534.010455 89.62227 
L 534.010455 86.874616 
L 534.010455 86.874616 
L 524.81064 88.614138 
L 515.610826 90.5711 
L 506.411011 90.966446 
L 497.211197 92.172251 
L 488.011382 92.192019 
L 478.811568 94.761767 
L 469.611753 95.058277 
L 460.411939 97.252447 
L 451.212124 98.893133 
L 442.01231 99.624523 
L 432.812495 104.269837 
L 423.612681 104.882624 
L 414.412866 105.258202 
L 405.213052 106.997724 
L 396.013237 106.938422 
L 386.813423 109.943052 
L 377.613609 111.56397 
L 368.413794 113.224423 
L 359.21398 115.576731 
L 350.014165 118.522059 
L 340.814351 119.984839 
L 331.614536 122.930166 
L 322.414722 124.254575 
L 313.214907 127.377808 
L 304.015093 128.89989 
L 294.815278 129.512676 
L 285.615464 134.869613 
L 276.415649 136.450997 
L 267.215835 141.926539 
L 258.01602 144.970702 
L 248.816206 149.29974 
L 239.616391 151.849722 
L 230.416577 155.941552 
L 221.216763 160.290358 
L 212.016948 165.667062 
L 202.817134 167.525188 
L 193.617319 176.222799 
L 184.417505 180.690208 
L 175.21769 187.450624 
L 166.017876 191.028505 
L 156.818061 200.259833 
L 147.618247 212.732997 
L 138.418432 219.374809 
L 129.218618 229.574734 
L 120.018803 243.747886 
L 110.818989 253.216422 
L 101.619174 280.179015 
L 92.41936 308.920665 
L 83.219545 349.068046 
z
" style="fill:#ff7f0e;fill-opacity:0.5;"/>
   </g>
   <g id="PolyCollection_3">
    <path clip-path="url(#pc598bdc5c4)" d="M 83.219545 343.77041 
L 83.219545 355.314512 
L 92.41936 310.502049 
L 101.619174 289.311506 
L 110.818989 275.929046 
L 120.018803 259.719863 
L 129.218618 241.138603 
L 138.418432 223.525941 
L 147.618247 210.341154 
L 156.818061 206.506298 
L 166.017876 197.670317 
L 175.21769 194.665687 
L 184.417505 182.923913 
L 193.617319 178.179762 
L 202.817134 174.265837 
L 212.016948 172.26934 
L 221.216763 157.4241 
L 230.416577 155.625275 
L 239.616391 152.324137 
L 248.816206 146.848596 
L 258.01602 144.535822 
L 267.215835 138.40796 
L 276.415649 136.095186 
L 285.615464 132.141726 
L 294.815278 129.453374 
L 304.015093 125.598751 
L 313.214907 125.915028 
L 322.414722 119.60926 
L 331.614536 119.016241 
L 340.814351 116.248819 
L 350.014165 111.405832 
L 359.21398 111.188391 
L 368.413794 107.709347 
L 377.613609 109.903517 
L 386.813423 103.498913 
L 396.013237 102.27334 
L 405.213052 100.178007 
L 414.412866 101.166372 
L 423.612681 95.295484 
L 432.812495 93.654799 
L 442.01231 91.974578 
L 451.212124 92.84434 
L 460.411939 89.444364 
L 469.611753 86.795547 
L 478.811568 87.566471 
L 488.011382 84.561842 
L 497.211197 84.463006 
L 506.411011 83.395571 
L 515.610826 82.071163 
L 524.81064 81.656049 
L 534.010455 78.374678 
L 534.010455 74.856099 
L 534.010455 74.856099 
L 524.81064 73.867734 
L 515.610826 76.081672 
L 506.411011 77.880496 
L 497.211197 79.283974 
L 488.011382 82.169999 
L 478.811568 79.580483 
L 469.611753 86.578106 
L 460.411939 84.423471 
L 451.212124 86.795547 
L 442.01231 88.100188 
L 432.812495 90.966446 
L 423.612681 91.164119 
L 414.412866 95.335019 
L 405.213052 95.453623 
L 396.013237 98.240812 
L 386.813423 100.494284 
L 377.613609 104.012862 
L 368.413794 102.154737 
L 359.21398 107.155863 
L 350.014165 108.954687 
L 340.814351 110.575605 
L 331.614536 112.967448 
L 322.414722 117.790669 
L 313.214907 121.230178 
L 304.015093 124.452248 
L 294.815278 125.97433 
L 285.615464 127.733619 
L 276.415649 132.833582 
L 267.215835 133.624274 
L 258.01602 139.969576 
L 248.816206 141.649796 
L 239.616391 145.464885 
L 230.416577 151.197401 
L 221.216763 157.048521 
L 212.016948 164.283352 
L 202.817134 165.271717 
L 193.617319 171.715855 
L 184.417505 178.219296 
L 175.21769 187.173882 
L 166.017876 194.21104 
L 156.818061 203.857481 
L 147.618247 206.051651 
L 138.418432 218.56435 
L 129.218618 237.402584 
L 120.018803 248.669943 
L 110.818989 255.628032 
L 101.619174 279.210418 
L 92.41936 303.010243 
L 83.219545 343.77041 
z
" style="fill:#2ca02c;fill-opacity:0.5;"/>
   </g>
   <g id="PolyCollection_4">
    <path clip-path="url(#pc598bdc5c4)" d="M 83.219545 350.293618 
L 83.219545 361.481909 
L 92.41936 308.505552 
L 101.619174 280.811569 
L 110.818989 254.817573 
L 120.018803 247.464138 
L 129.218618 223.209665 
L 138.418432 217.655054 
L 147.618247 207.890009 
L 156.818061 194.191272 
L 166.017876 190.455253 
L 175.21769 184.327391 
L 184.417505 176.973956 
L 193.617319 168.454251 
L 202.817134 165.884503 
L 212.016948 159.084552 
L 221.216763 155.822948 
L 230.416577 152.086929 
L 239.616391 145.879998 
L 248.816206 143.804432 
L 258.01602 139.79167 
L 267.215835 137.123085 
L 276.415649 132.378934 
L 285.615464 127.852223 
L 294.815278 124.037135 
L 304.015093 121.309248 
L 313.214907 120.34065 
L 322.414722 117.138348 
L 331.614536 113.501165 
L 340.814351 113.5407 
L 350.014165 111.504668 
L 359.21398 110.753511 
L 368.413794 108.559341 
L 377.613609 106.365171 
L 386.813423 104.783787 
L 396.013237 103.044265 
L 405.213052 99.505919 
L 414.412866 98.833831 
L 423.612681 97.193145 
L 432.812495 95.47339 
L 442.01231 93.516428 
L 451.212124 91.895509 
L 460.411939 89.40483 
L 469.611753 88.37693 
L 478.811568 85.609509 
L 488.011382 85.214163 
L 497.211197 82.703716 
L 506.411011 80.489779 
L 515.610826 79.283974 
L 524.81064 77.524684 
L 534.010455 76.773527 
L 534.010455 75.982835 
L 534.010455 75.982835 
L 524.81064 75.231678 
L 515.610826 78.572351 
L 506.411011 79.106068 
L 497.211197 79.363043 
L 488.011382 80.390942 
L 478.811568 82.565345 
L 469.611753 84.601377 
L 460.411939 85.471138 
L 451.212124 87.032754 
L 442.01231 88.594371 
L 432.812495 90.610635 
L 423.612681 89.226924 
L 414.412866 93.259453 
L 405.213052 95.888503 
L 396.013237 96.817566 
L 386.813423 99.584988 
L 377.613609 101.067535 
L 368.413794 104.625649 
L 359.21398 104.724485 
L 350.014165 107.412838 
L 340.814351 109.053523 
L 331.614536 113.362794 
L 322.414722 114.232555 
L 313.214907 118.541826 
L 304.015093 121.111575 
L 294.815278 121.506921 
L 285.615464 127.35804 
L 276.415649 130.916154 
L 267.215835 133.564972 
L 258.01602 136.688205 
L 248.816206 140.661431 
L 239.616391 142.677696 
L 230.416577 149.59625 
L 221.216763 153.47064 
L 212.016948 158.847345 
L 202.817134 162.128716 
L 193.617319 166.774031 
L 184.417505 174.760019 
L 175.21769 183.536699 
L 166.017876 184.050649 
L 156.818061 191.028505 
L 147.618247 201.149361 
L 138.418432 212.159745 
L 129.218618 220.798054 
L 120.018803 232.954942 
L 110.818989 252.188522 
L 101.619174 273.873247 
L 92.41936 297.080054 
L 83.219545 350.293618 
z
" style="fill:#d62728;fill-opacity:0.5;"/>
   </g>
   <g id="matplotlib.axis_1">
    <g id="xtick_1">
     <g id="line2d_1">
      <defs>
       <path d="M 0 0 
L 0 3.5 
" id="m12cec43283" style="stroke:#000000;stroke-width:0.8;"/>
      </defs>
      <g>
       <use style="stroke:#000000;stroke-width:0.8;" x="83.219545" xlink:href="#m12cec43283" y="376"/>
      </g>
     </g>
     <g id="text_1">
      <!-- 0 -->
      <g transform="translate(78.44767 394.397656)scale(0.15 -0.15)">
       <defs>
        <path d="M 2034 4250 
Q 1547 4250 1301 3770 
Q 1056 3291 1056 2328 
Q 1056 1369 1301 889 
Q 1547 409 2034 409 
Q 2525 409 2770 889 
Q 3016 1369 3016 2328 
Q 3016 3291 2770 3770 
Q 2525 4250 2034 4250 
z
M 2034 4750 
Q 2819 4750 3233 4129 
Q 3647 3509 3647 2328 
Q 3647 1150 3233 529 
Q 2819 -91 2034 -91 
Q 1250 -91 836 529 
Q 422 1150 422 2328 
Q 422 3509 836 4129 
Q 1250 4750 2034 4750 
z
" id="DejaVuSans-30" transform="scale(0.015625)"/>
       </defs>
       <use xlink:href="#DejaVuSans-30"/>
      </g>
     </g>
    </g>
    <g id="xtick_2">
     <g id="line2d_2">
      <g>
       <use style="stroke:#000000;stroke-width:0.8;" x="175.21769" xlink:href="#m12cec43283" y="376"/>
      </g>
     </g>
     <g id="text_2">
      <!-- 10 -->
      <g transform="translate(165.67394 394.397656)scale(0.15 -0.15)">
       <defs>
        <path d="M 794 531 
L 1825 531 
L 1825 4091 
L 703 3866 
L 703 4441 
L 1819 4666 
L 2450 4666 
L 2450 531 
L 3481 531 
L 3481 0 
L 794 0 
L 794 531 
z
" id="DejaVuSans-31" transform="scale(0.015625)"/>
       </defs>
       <use xlink:href="#DejaVuSans-31"/>
       <use x="63.623047" xlink:href="#DejaVuSans-30"/>
      </g>
     </g>
    </g>
    <g id="xtick_3">
     <g id="line2d_3">
      <g>
       <use style="stroke:#000000;stroke-width:0.8;" x="267.215835" xlink:href="#m12cec43283" y="376"/>
      </g>
     </g>
     <g id="text_3">
      <!-- 20 -->
      <g transform="translate(257.672085 394.397656)scale(0.15 -0.15)">
       <defs>
        <path d="M 1228 531 
L 3431 531 
L 3431 0 
L 469 0 
L 469 531 
Q 828 903 1448 1529 
Q 2069 2156 2228 2338 
Q 2531 2678 2651 2914 
Q 2772 3150 2772 3378 
Q 2772 3750 2511 3984 
Q 2250 4219 1831 4219 
Q 1534 4219 1204 4116 
Q 875 4013 500 3803 
L 500 4441 
Q 881 4594 1212 4672 
Q 1544 4750 1819 4750 
Q 2544 4750 2975 4387 
Q 3406 4025 3406 3419 
Q 3406 3131 3298 2873 
Q 3191 2616 2906 2266 
Q 2828 2175 2409 1742 
Q 1991 1309 1228 531 
z
" id="DejaVuSans-32" transform="scale(0.015625)"/>
       </defs>
       <use xlink:href="#DejaVuSans-32"/>
       <use x="63.623047" xlink:href="#DejaVuSans-30"/>
      </g>
     </g>
    </g>
    <g id="xtick_4">
     <g id="line2d_4">
      <g>
       <use style="stroke:#000000;stroke-width:0.8;" x="359.21398" xlink:href="#m12cec43283" y="376"/>
      </g>
     </g>
     <g id="text_4">
      <!-- 30 -->
      <g transform="translate(349.67023 394.397656)scale(0.15 -0.15)">
       <defs>
        <path d="M 2597 2516 
Q 3050 2419 3304 2112 
Q 3559 1806 3559 1356 
Q 3559 666 3084 287 
Q 2609 -91 1734 -91 
Q 1441 -91 1130 -33 
Q 819 25 488 141 
L 488 750 
Q 750 597 1062 519 
Q 1375 441 1716 441 
Q 2309 441 2620 675 
Q 2931 909 2931 1356 
Q 2931 1769 2642 2001 
Q 2353 2234 1838 2234 
L 1294 2234 
L 1294 2753 
L 1863 2753 
Q 2328 2753 2575 2939 
Q 2822 3125 2822 3475 
Q 2822 3834 2567 4026 
Q 2313 4219 1838 4219 
Q 1578 4219 1281 4162 
Q 984 4106 628 3988 
L 628 4550 
Q 988 4650 1302 4700 
Q 1616 4750 1894 4750 
Q 2613 4750 3031 4423 
Q 3450 4097 3450 3541 
Q 3450 3153 3228 2886 
Q 3006 2619 2597 2516 
z
" id="DejaVuSans-33" transform="scale(0.015625)"/>
       </defs>
       <use xlink:href="#DejaVuSans-33"/>
       <use x="63.623047" xlink:href="#DejaVuSans-30"/>
      </g>
     </g>
    </g>
    <g id="xtick_5">
     <g id="line2d_5">
      <g>
       <use style="stroke:#000000;stroke-width:0.8;" x="451.212124" xlink:href="#m12cec43283" y="376"/>
      </g>
     </g>
     <g id="text_5">
      <!-- 40 -->
      <g transform="translate(441.668374 394.397656)scale(0.15 -0.15)">
       <defs>
        <path d="M 2419 4116 
L 825 1625 
L 2419 1625 
L 2419 4116 
z
M 2253 4666 
L 3047 4666 
L 3047 1625 
L 3713 1625 
L 3713 1100 
L 3047 1100 
L 3047 0 
L 2419 0 
L 2419 1100 
L 313 1100 
L 313 1709 
L 2253 4666 
z
" id="DejaVuSans-34" transform="scale(0.015625)"/>
       </defs>
       <use xlink:href="#DejaVuSans-34"/>
       <use x="63.623047" xlink:href="#DejaVuSans-30"/>
      </g>
     </g>
    </g>
    <g id="xtick_6">
     <g id="line2d_6">
      <g>
       <use style="stroke:#000000;stroke-width:0.8;" x="543.210269" xlink:href="#m12cec43283" y="376"/>
      </g>
     </g>
     <g id="text_6">
      <!-- 50 -->
      <g transform="translate(533.666519 394.397656)scale(0.15 -0.15)">
       <defs>
        <path d="M 691 4666 
L 3169 4666 
L 3169 4134 
L 1269 4134 
L 1269 2991 
Q 1406 3038 1543 3061 
Q 1681 3084 1819 3084 
Q 2600 3084 3056 2656 
Q 3513 2228 3513 1497 
Q 3513 744 3044 326 
Q 2575 -91 1722 -91 
Q 1428 -91 1123 -41 
Q 819 9 494 109 
L 494 744 
Q 775 591 1075 516 
Q 1375 441 1709 441 
Q 2250 441 2565 725 
Q 2881 1009 2881 1497 
Q 2881 1984 2565 2268 
Q 2250 2553 1709 2553 
Q 1456 2553 1204 2497 
Q 953 2441 691 2322 
L 691 4666 
z
" id="DejaVuSans-35" transform="scale(0.015625)"/>
       </defs>
       <use xlink:href="#DejaVuSans-35"/>
       <use x="63.623047" xlink:href="#DejaVuSans-30"/>
      </g>
     </g>
    </g>
    <g id="text_7">
     <!-- Global Communication Rounds -->
     <g transform="translate(193.172422 412.914844)scale(0.15 -0.15)">
      <defs>
       <path d="M 3809 666 
L 3809 1919 
L 2778 1919 
L 2778 2438 
L 4434 2438 
L 4434 434 
Q 4069 175 3628 42 
Q 3188 -91 2688 -91 
Q 1594 -91 976 548 
Q 359 1188 359 2328 
Q 359 3472 976 4111 
Q 1594 4750 2688 4750 
Q 3144 4750 3555 4637 
Q 3966 4525 4313 4306 
L 4313 3634 
Q 3963 3931 3569 4081 
Q 3175 4231 2741 4231 
Q 1884 4231 1454 3753 
Q 1025 3275 1025 2328 
Q 1025 1384 1454 906 
Q 1884 428 2741 428 
Q 3075 428 3337 486 
Q 3600 544 3809 666 
z
" id="DejaVuSans-47" transform="scale(0.015625)"/>
       <path d="M 603 4863 
L 1178 4863 
L 1178 0 
L 603 0 
L 603 4863 
z
" id="DejaVuSans-6c" transform="scale(0.015625)"/>
       <path d="M 1959 3097 
Q 1497 3097 1228 2736 
Q 959 2375 959 1747 
Q 959 1119 1226 758 
Q 1494 397 1959 397 
Q 2419 397 2687 759 
Q 2956 1122 2956 1747 
Q 2956 2369 2687 2733 
Q 2419 3097 1959 3097 
z
M 1959 3584 
Q 2709 3584 3137 3096 
Q 3566 2609 3566 1747 
Q 3566 888 3137 398 
Q 2709 -91 1959 -91 
Q 1206 -91 779 398 
Q 353 888 353 1747 
Q 353 2609 779 3096 
Q 1206 3584 1959 3584 
z
" id="DejaVuSans-6f" transform="scale(0.015625)"/>
       <path d="M 3116 1747 
Q 3116 2381 2855 2742 
Q 2594 3103 2138 3103 
Q 1681 3103 1420 2742 
Q 1159 2381 1159 1747 
Q 1159 1113 1420 752 
Q 1681 391 2138 391 
Q 2594 391 2855 752 
Q 3116 1113 3116 1747 
z
M 1159 2969 
Q 1341 3281 1617 3432 
Q 1894 3584 2278 3584 
Q 2916 3584 3314 3078 
Q 3713 2572 3713 1747 
Q 3713 922 3314 415 
Q 2916 -91 2278 -91 
Q 1894 -91 1617 61 
Q 1341 213 1159 525 
L 1159 0 
L 581 0 
L 581 4863 
L 1159 4863 
L 1159 2969 
z
" id="DejaVuSans-62" transform="scale(0.015625)"/>
       <path d="M 2194 1759 
Q 1497 1759 1228 1600 
Q 959 1441 959 1056 
Q 959 750 1161 570 
Q 1363 391 1709 391 
Q 2188 391 2477 730 
Q 2766 1069 2766 1631 
L 2766 1759 
L 2194 1759 
z
M 3341 1997 
L 3341 0 
L 2766 0 
L 2766 531 
Q 2569 213 2275 61 
Q 1981 -91 1556 -91 
Q 1019 -91 701 211 
Q 384 513 384 1019 
Q 384 1609 779 1909 
Q 1175 2209 1959 2209 
L 2766 2209 
L 2766 2266 
Q 2766 2663 2505 2880 
Q 2244 3097 1772 3097 
Q 1472 3097 1187 3025 
Q 903 2953 641 2809 
L 641 3341 
Q 956 3463 1253 3523 
Q 1550 3584 1831 3584 
Q 2591 3584 2966 3190 
Q 3341 2797 3341 1997 
z
" id="DejaVuSans-61" transform="scale(0.015625)"/>
       <path id="DejaVuSans-20" transform="scale(0.015625)"/>
       <path d="M 4122 4306 
L 4122 3641 
Q 3803 3938 3442 4084 
Q 3081 4231 2675 4231 
Q 1875 4231 1450 3742 
Q 1025 3253 1025 2328 
Q 1025 1406 1450 917 
Q 1875 428 2675 428 
Q 3081 428 3442 575 
Q 3803 722 4122 1019 
L 4122 359 
Q 3791 134 3420 21 
Q 3050 -91 2638 -91 
Q 1578 -91 968 557 
Q 359 1206 359 2328 
Q 359 3453 968 4101 
Q 1578 4750 2638 4750 
Q 3056 4750 3426 4639 
Q 3797 4528 4122 4306 
z
" id="DejaVuSans-43" transform="scale(0.015625)"/>
       <path d="M 3328 2828 
Q 3544 3216 3844 3400 
Q 4144 3584 4550 3584 
Q 5097 3584 5394 3201 
Q 5691 2819 5691 2113 
L 5691 0 
L 5113 0 
L 5113 2094 
Q 5113 2597 4934 2840 
Q 4756 3084 4391 3084 
Q 3944 3084 3684 2787 
Q 3425 2491 3425 1978 
L 3425 0 
L 2847 0 
L 2847 2094 
Q 2847 2600 2669 2842 
Q 2491 3084 2119 3084 
Q 1678 3084 1418 2786 
Q 1159 2488 1159 1978 
L 1159 0 
L 581 0 
L 581 3500 
L 1159 3500 
L 1159 2956 
Q 1356 3278 1631 3431 
Q 1906 3584 2284 3584 
Q 2666 3584 2933 3390 
Q 3200 3197 3328 2828 
z
" id="DejaVuSans-6d" transform="scale(0.015625)"/>
       <path d="M 544 1381 
L 544 3500 
L 1119 3500 
L 1119 1403 
Q 1119 906 1312 657 
Q 1506 409 1894 409 
Q 2359 409 2629 706 
Q 2900 1003 2900 1516 
L 2900 3500 
L 3475 3500 
L 3475 0 
L 2900 0 
L 2900 538 
Q 2691 219 2414 64 
Q 2138 -91 1772 -91 
Q 1169 -91 856 284 
Q 544 659 544 1381 
z
M 1991 3584 
L 1991 3584 
z
" id="DejaVuSans-75" transform="scale(0.015625)"/>
       <path d="M 3513 2113 
L 3513 0 
L 2938 0 
L 2938 2094 
Q 2938 2591 2744 2837 
Q 2550 3084 2163 3084 
Q 1697 3084 1428 2787 
Q 1159 2491 1159 1978 
L 1159 0 
L 581 0 
L 581 3500 
L 1159 3500 
L 1159 2956 
Q 1366 3272 1645 3428 
Q 1925 3584 2291 3584 
Q 2894 3584 3203 3211 
Q 3513 2838 3513 2113 
z
" id="DejaVuSans-6e" transform="scale(0.015625)"/>
       <path d="M 603 3500 
L 1178 3500 
L 1178 0 
L 603 0 
L 603 3500 
z
M 603 4863 
L 1178 4863 
L 1178 4134 
L 603 4134 
L 603 4863 
z
" id="DejaVuSans-69" transform="scale(0.015625)"/>
       <path d="M 3122 3366 
L 3122 2828 
Q 2878 2963 2633 3030 
Q 2388 3097 2138 3097 
Q 1578 3097 1268 2742 
Q 959 2388 959 1747 
Q 959 1106 1268 751 
Q 1578 397 2138 397 
Q 2388 397 2633 464 
Q 2878 531 3122 666 
L 3122 134 
Q 2881 22 2623 -34 
Q 2366 -91 2075 -91 
Q 1284 -91 818 406 
Q 353 903 353 1747 
Q 353 2603 823 3093 
Q 1294 3584 2113 3584 
Q 2378 3584 2631 3529 
Q 2884 3475 3122 3366 
z
" id="DejaVuSans-63" transform="scale(0.015625)"/>
       <path d="M 1172 4494 
L 1172 3500 
L 2356 3500 
L 2356 3053 
L 1172 3053 
L 1172 1153 
Q 1172 725 1289 603 
Q 1406 481 1766 481 
L 2356 481 
L 2356 0 
L 1766 0 
Q 1100 0 847 248 
Q 594 497 594 1153 
L 594 3053 
L 172 3053 
L 172 3500 
L 594 3500 
L 594 4494 
L 1172 4494 
z
" id="DejaVuSans-74" transform="scale(0.015625)"/>
       <path d="M 2841 2188 
Q 3044 2119 3236 1894 
Q 3428 1669 3622 1275 
L 4263 0 
L 3584 0 
L 2988 1197 
Q 2756 1666 2539 1819 
Q 2322 1972 1947 1972 
L 1259 1972 
L 1259 0 
L 628 0 
L 628 4666 
L 2053 4666 
Q 2853 4666 3247 4331 
Q 3641 3997 3641 3322 
Q 3641 2881 3436 2590 
Q 3231 2300 2841 2188 
z
M 1259 4147 
L 1259 2491 
L 2053 2491 
Q 2509 2491 2742 2702 
Q 2975 2913 2975 3322 
Q 2975 3731 2742 3939 
Q 2509 4147 2053 4147 
L 1259 4147 
z
" id="DejaVuSans-52" transform="scale(0.015625)"/>
       <path d="M 2906 2969 
L 2906 4863 
L 3481 4863 
L 3481 0 
L 2906 0 
L 2906 525 
Q 2725 213 2448 61 
Q 2172 -91 1784 -91 
Q 1150 -91 751 415 
Q 353 922 353 1747 
Q 353 2572 751 3078 
Q 1150 3584 1784 3584 
Q 2172 3584 2448 3432 
Q 2725 3281 2906 2969 
z
M 947 1747 
Q 947 1113 1208 752 
Q 1469 391 1925 391 
Q 2381 391 2643 752 
Q 2906 1113 2906 1747 
Q 2906 2381 2643 2742 
Q 2381 3103 1925 3103 
Q 1469 3103 1208 2742 
Q 947 2381 947 1747 
z
" id="DejaVuSans-64" transform="scale(0.015625)"/>
       <path d="M 2834 3397 
L 2834 2853 
Q 2591 2978 2328 3040 
Q 2066 3103 1784 3103 
Q 1356 3103 1142 2972 
Q 928 2841 928 2578 
Q 928 2378 1081 2264 
Q 1234 2150 1697 2047 
L 1894 2003 
Q 2506 1872 2764 1633 
Q 3022 1394 3022 966 
Q 3022 478 2636 193 
Q 2250 -91 1575 -91 
Q 1294 -91 989 -36 
Q 684 19 347 128 
L 347 722 
Q 666 556 975 473 
Q 1284 391 1588 391 
Q 1994 391 2212 530 
Q 2431 669 2431 922 
Q 2431 1156 2273 1281 
Q 2116 1406 1581 1522 
L 1381 1569 
Q 847 1681 609 1914 
Q 372 2147 372 2553 
Q 372 3047 722 3315 
Q 1072 3584 1716 3584 
Q 2034 3584 2315 3537 
Q 2597 3491 2834 3397 
z
" id="DejaVuSans-73" transform="scale(0.015625)"/>
      </defs>
      <use xlink:href="#DejaVuSans-47"/>
      <use x="77.490234" xlink:href="#DejaVuSans-6c"/>
      <use x="105.273438" xlink:href="#DejaVuSans-6f"/>
      <use x="166.455078" xlink:href="#DejaVuSans-62"/>
      <use x="229.931641" xlink:href="#DejaVuSans-61"/>
      <use x="291.210938" xlink:href="#DejaVuSans-6c"/>
      <use x="318.994141" xlink:href="#DejaVuSans-20"/>
      <use x="350.78125" xlink:href="#DejaVuSans-43"/>
      <use x="420.605469" xlink:href="#DejaVuSans-6f"/>
      <use x="481.787109" xlink:href="#DejaVuSans-6d"/>
      <use x="579.199219" xlink:href="#DejaVuSans-6d"/>
      <use x="676.611328" xlink:href="#DejaVuSans-75"/>
      <use x="739.990234" xlink:href="#DejaVuSans-6e"/>
      <use x="803.369141" xlink:href="#DejaVuSans-69"/>
      <use x="831.152344" xlink:href="#DejaVuSans-63"/>
      <use x="886.132812" xlink:href="#DejaVuSans-61"/>
      <use x="947.412109" xlink:href="#DejaVuSans-74"/>
      <use x="986.621094" xlink:href="#DejaVuSans-69"/>
      <use x="1014.404297" xlink:href="#DejaVuSans-6f"/>
      <use x="1075.585938" xlink:href="#DejaVuSans-6e"/>
      <use x="1138.964844" xlink:href="#DejaVuSans-20"/>
      <use x="1170.751953" xlink:href="#DejaVuSans-52"/>
      <use x="1235.734375" xlink:href="#DejaVuSans-6f"/>
      <use x="1296.916016" xlink:href="#DejaVuSans-75"/>
      <use x="1360.294922" xlink:href="#DejaVuSans-6e"/>
      <use x="1423.673828" xlink:href="#DejaVuSans-64"/>
      <use x="1487.150391" xlink:href="#DejaVuSans-73"/>
     </g>
    </g>
   </g>
   <g id="matplotlib.axis_2">
    <g id="ytick_1">
     <g id="line2d_7">
      <defs>
       <path d="M 0 0 
L -3.5 0 
" id="mf189d8e0f2" style="stroke:#000000;stroke-width:0.8;"/>
      </defs>
      <g>
       <use style="stroke:#000000;stroke-width:0.8;" x="60.68" xlink:href="#mf189d8e0f2" y="334.440246"/>
      </g>
     </g>
     <g id="text_8">
      <!-- 25 -->
      <g transform="translate(34.5925 340.139074)scale(0.15 -0.15)">
       <use xlink:href="#DejaVuSans-32"/>
       <use x="63.623047" xlink:href="#DejaVuSans-35"/>
      </g>
     </g>
    </g>
    <g id="ytick_2">
     <g id="line2d_8">
      <g>
       <use style="stroke:#000000;stroke-width:0.8;" x="60.68" xlink:href="#mf189d8e0f2" y="283.337829"/>
      </g>
     </g>
     <g id="text_9">
      <!-- 30 -->
      <g transform="translate(34.5925 289.036657)scale(0.15 -0.15)">
       <use xlink:href="#DejaVuSans-33"/>
       <use x="63.623047" xlink:href="#DejaVuSans-30"/>
      </g>
     </g>
    </g>
    <g id="ytick_3">
     <g id="line2d_9">
      <g>
       <use style="stroke:#000000;stroke-width:0.8;" x="60.68" xlink:href="#mf189d8e0f2" y="232.235413"/>
      </g>
     </g>
     <g id="text_10">
      <!-- 35 -->
      <g transform="translate(34.5925 237.934241)scale(0.15 -0.15)">
       <use xlink:href="#DejaVuSans-33"/>
       <use x="63.623047" xlink:href="#DejaVuSans-35"/>
      </g>
     </g>
    </g>
    <g id="ytick_4">
     <g id="line2d_10">
      <g>
       <use style="stroke:#000000;stroke-width:0.8;" x="60.68" xlink:href="#mf189d8e0f2" y="181.132996"/>
      </g>
     </g>
     <g id="text_11">
      <!-- 40 -->
      <g transform="translate(34.5925 186.831824)scale(0.15 -0.15)">
       <use xlink:href="#DejaVuSans-34"/>
       <use x="63.623047" xlink:href="#DejaVuSans-30"/>
      </g>
     </g>
    </g>
    <g id="ytick_5">
     <g id="line2d_11">
      <g>
       <use style="stroke:#000000;stroke-width:0.8;" x="60.68" xlink:href="#mf189d8e0f2" y="130.030579"/>
      </g>
     </g>
     <g id="text_12">
      <!-- 45 -->
      <g transform="translate(34.5925 135.729407)scale(0.15 -0.15)">
       <use xlink:href="#DejaVuSans-34"/>
       <use x="63.623047" xlink:href="#DejaVuSans-35"/>
      </g>
     </g>
    </g>
    <g id="ytick_6">
     <g id="line2d_12">
      <g>
       <use style="stroke:#000000;stroke-width:0.8;" x="60.68" xlink:href="#mf189d8e0f2" y="78.928162"/>
      </g>
     </g>
     <g id="text_13">
      <!-- 50 -->
      <g transform="translate(34.5925 84.62699)scale(0.15 -0.15)">
       <use xlink:href="#DejaVuSans-35"/>
       <use x="63.623047" xlink:href="#DejaVuSans-30"/>
      </g>
     </g>
    </g>
    <g id="text_14">
     <!-- Test Accuracy -->
     <g transform="translate(27.472969 267.694744)rotate(-90)scale(0.15 -0.15)">
      <defs>
       <path d="M -19 4666 
L 3928 4666 
L 3928 4134 
L 2272 4134 
L 2272 0 
L 1638 0 
L 1638 4134 
L -19 4134 
L -19 4666 
z
" id="DejaVuSans-54" transform="scale(0.015625)"/>
       <path d="M 3597 1894 
L 3597 1613 
L 953 1613 
Q 991 1019 1311 708 
Q 1631 397 2203 397 
Q 2534 397 2845 478 
Q 3156 559 3463 722 
L 3463 178 
Q 3153 47 2828 -22 
Q 2503 -91 2169 -91 
Q 1331 -91 842 396 
Q 353 884 353 1716 
Q 353 2575 817 3079 
Q 1281 3584 2069 3584 
Q 2775 3584 3186 3129 
Q 3597 2675 3597 1894 
z
M 3022 2063 
Q 3016 2534 2758 2815 
Q 2500 3097 2075 3097 
Q 1594 3097 1305 2825 
Q 1016 2553 972 2059 
L 3022 2063 
z
" id="DejaVuSans-65" transform="scale(0.015625)"/>
       <path d="M 2188 4044 
L 1331 1722 
L 3047 1722 
L 2188 4044 
z
M 1831 4666 
L 2547 4666 
L 4325 0 
L 3669 0 
L 3244 1197 
L 1141 1197 
L 716 0 
L 50 0 
L 1831 4666 
z
" id="DejaVuSans-41" transform="scale(0.015625)"/>
       <path d="M 2631 2963 
Q 2534 3019 2420 3045 
Q 2306 3072 2169 3072 
Q 1681 3072 1420 2755 
Q 1159 2438 1159 1844 
L 1159 0 
L 581 0 
L 581 3500 
L 1159 3500 
L 1159 2956 
Q 1341 3275 1631 3429 
Q 1922 3584 2338 3584 
Q 2397 3584 2469 3576 
Q 2541 3569 2628 3553 
L 2631 2963 
z
" id="DejaVuSans-72" transform="scale(0.015625)"/>
       <path d="M 2059 -325 
Q 1816 -950 1584 -1140 
Q 1353 -1331 966 -1331 
L 506 -1331 
L 506 -850 
L 844 -850 
Q 1081 -850 1212 -737 
Q 1344 -625 1503 -206 
L 1606 56 
L 191 3500 
L 800 3500 
L 1894 763 
L 2988 3500 
L 3597 3500 
L 2059 -325 
z
" id="DejaVuSans-79" transform="scale(0.015625)"/>
      </defs>
      <use xlink:href="#DejaVuSans-54"/>
      <use x="44.083984" xlink:href="#DejaVuSans-65"/>
      <use x="105.607422" xlink:href="#DejaVuSans-73"/>
      <use x="157.707031" xlink:href="#DejaVuSans-74"/>
      <use x="196.916016" xlink:href="#DejaVuSans-20"/>
      <use x="228.703125" xlink:href="#DejaVuSans-41"/>
      <use x="295.361328" xlink:href="#DejaVuSans-63"/>
      <use x="350.341797" xlink:href="#DejaVuSans-63"/>
      <use x="405.322266" xlink:href="#DejaVuSans-75"/>
      <use x="468.701172" xlink:href="#DejaVuSans-72"/>
      <use x="509.814453" xlink:href="#DejaVuSans-61"/>
      <use x="571.09375" xlink:href="#DejaVuSans-63"/>
      <use x="626.074219" xlink:href="#DejaVuSans-79"/>
     </g>
    </g>
   </g>
   <g id="line2d_13">
    <path clip-path="url(#pc598bdc5c4)" d="M 83.219545 348.830838 
L 92.41936 306.884634 
L 101.619174 269.87037 
L 110.818989 250.310629 
L 120.018803 235.228181 
L 129.218618 222.03351 
L 138.418432 214.927167 
L 147.618247 204.88538 
L 156.818061 197.650549 
L 166.017876 187.786668 
L 175.21769 182.10357 
L 184.417505 172.546082 
L 193.617319 167.811814 
L 202.817134 164.105446 
L 212.016948 159.282225 
L 221.216763 154.785165 
L 230.416577 148.321259 
L 239.616391 145.20791 
L 248.816206 137.172504 
L 258.01602 135.195774 
L 267.215835 131.973704 
L 276.415649 128.751635 
L 285.615464 127.190018 
L 294.815278 123.295861 
L 304.015093 120.469137 
L 313.214907 117.474392 
L 322.414722 114.499414 
L 331.614536 112.572102 
L 340.814351 110.526187 
L 350.014165 108.065158 
L 359.21398 105.663432 
L 368.413794 102.648919 
L 377.613609 101.43323 
L 386.813423 100.603004 
L 396.013237 96.689079 
L 405.213052 96.056525 
L 414.412866 93.338522 
L 423.612681 92.429226 
L 432.812495 91.104817 
L 442.01231 87.052521 
L 451.212124 87.704842 
L 460.411939 85.8566 
L 469.611753 82.980458 
L 478.811568 82.802553 
L 488.011382 80.470012 
L 497.211197 78.404329 
L 506.411011 76.615389 
L 515.610826 76.67469 
L 524.81064 75.221794 
L 534.010455 72.701464 
" style="fill:none;stroke:#1f77b4;stroke-linecap:square;stroke-width:1.5;"/>
   </g>
   <g id="line2d_14">
    <path clip-path="url(#pc598bdc5c4)" d="M 83.219545 355.215675 
L 92.41936 309.078804 
L 101.619174 282.610393 
L 110.818989 256.033262 
L 120.018803 244.775786 
L 129.218618 234.852603 
L 138.418432 219.888759 
L 147.618247 213.237063 
L 156.818061 201.267965 
L 166.017876 195.78254 
L 175.21769 188.854102 
L 184.417505 183.259957 
L 193.617319 178.288482 
L 202.817134 171.300742 
L 212.016948 166.23043 
L 221.216763 161.338024 
L 230.416577 156.386316 
L 239.616391 154.320634 
L 248.816206 150.060781 
L 258.01602 145.524187 
L 267.215835 141.956189 
L 276.415649 139.218419 
L 285.615464 135.176007 
L 294.815278 131.608009 
L 304.015093 129.868487 
L 313.214907 127.921408 
L 322.414722 124.906896 
L 331.614536 123.345279 
L 340.814351 121.566222 
L 350.014165 118.531942 
L 359.21398 115.813939 
L 368.413794 113.471514 
L 377.613609 112.226174 
L 386.813423 112.137222 
L 396.013237 107.788416 
L 405.213052 108.173879 
L 414.412866 105.406457 
L 423.612681 105.426224 
L 432.812495 104.595998 
L 442.01231 100.59312 
L 451.212124 99.268711 
L 460.411939 100.168123 
L 469.611753 96.372802 
L 478.811568 95.236183 
L 488.011382 92.597248 
L 497.211197 93.733868 
L 506.411011 91.905393 
L 515.610826 91.944928 
L 524.81064 89.098437 
L 534.010455 88.248443 
" style="fill:none;stroke:#ff7f0e;stroke-linecap:square;stroke-width:1.5;"/>
   </g>
   <g id="line2d_15">
    <path clip-path="url(#pc598bdc5c4)" d="M 83.219545 349.542461 
L 92.41936 306.756146 
L 101.619174 284.260962 
L 110.818989 265.778539 
L 120.018803 254.194903 
L 129.218618 239.270594 
L 138.418432 221.045146 
L 147.618247 208.196402 
L 156.818061 205.18189 
L 166.017876 195.940678 
L 175.21769 190.919785 
L 184.417505 180.571605 
L 193.617319 174.947808 
L 202.817134 169.768777 
L 212.016948 168.276346 
L 221.216763 157.23631 
L 230.416577 153.411338 
L 239.616391 148.894511 
L 248.816206 144.249196 
L 258.01602 142.252699 
L 267.215835 136.016117 
L 276.415649 134.464384 
L 285.615464 129.937673 
L 294.815278 127.713852 
L 304.015093 125.025499 
L 313.214907 123.572603 
L 322.414722 118.699964 
L 331.614536 115.991845 
L 340.814351 113.412212 
L 350.014165 110.180259 
L 359.21398 109.172127 
L 368.413794 104.932042 
L 377.613609 106.95819 
L 386.813423 101.996598 
L 396.013237 100.257076 
L 405.213052 97.815815 
L 414.412866 98.250695 
L 423.612681 93.229802 
L 432.812495 92.310623 
L 442.01231 90.037383 
L 451.212124 89.819943 
L 460.411939 86.933918 
L 469.611753 86.686826 
L 478.811568 83.573477 
L 488.011382 83.365921 
L 497.211197 81.87349 
L 506.411011 80.638034 
L 515.610826 79.076417 
L 524.81064 77.761892 
L 534.010455 76.615389 
" style="fill:none;stroke:#2ca02c;stroke-linecap:square;stroke-width:1.5;"/>
   </g>
   <g id="line2d_16">
    <path clip-path="url(#pc598bdc5c4)" d="M 83.219545 355.887763 
L 92.41936 302.792803 
L 101.619174 277.342408 
L 110.818989 253.503048 
L 120.018803 240.20954 
L 129.218618 222.003859 
L 138.418432 214.9074 
L 147.618247 204.519685 
L 156.818061 192.609889 
L 166.017876 187.252951 
L 175.21769 183.932045 
L 184.417505 175.866988 
L 193.617319 167.614141 
L 202.817134 164.006609 
L 212.016948 158.965949 
L 221.216763 154.646794 
L 230.416577 150.84159 
L 239.616391 144.278847 
L 248.816206 142.232932 
L 258.01602 138.239938 
L 267.215835 135.344029 
L 276.415649 131.647544 
L 285.615464 127.605132 
L 294.815278 122.772028 
L 304.015093 121.210411 
L 313.214907 119.441238 
L 322.414722 115.685451 
L 331.614536 113.43198 
L 340.814351 111.297111 
L 350.014165 109.458753 
L 359.21398 107.738998 
L 368.413794 106.592495 
L 377.613609 103.716353 
L 386.813423 102.184387 
L 396.013237 99.930916 
L 405.213052 97.697211 
L 414.412866 96.046642 
L 423.612681 93.210035 
L 432.812495 93.042013 
L 442.01231 91.055399 
L 451.212124 89.464132 
L 460.411939 87.437984 
L 469.611753 86.489154 
L 478.811568 84.087427 
L 488.011382 82.802553 
L 497.211197 81.033379 
L 506.411011 79.797923 
L 515.610826 78.928162 
L 524.81064 76.378181 
L 534.010455 76.378181 
" style="fill:none;stroke:#d62728;stroke-linecap:square;stroke-width:1.5;"/>
   </g>
   <g id="patch_3">
    <path d="M 60.68 376 
L 60.68 56.601988 
" style="fill:none;stroke:#000000;stroke-linecap:square;stroke-linejoin:miter;stroke-width:0.8;"/>
   </g>
   <g id="patch_4">
    <path d="M 556.55 376 
L 556.55 56.601988 
" style="fill:none;stroke:#000000;stroke-linecap:square;stroke-linejoin:miter;stroke-width:0.8;"/>
   </g>
   <g id="patch_5">
    <path d="M 60.68 376 
L 556.55 376 
" style="fill:none;stroke:#000000;stroke-linecap:square;stroke-linejoin:miter;stroke-width:0.8;"/>
   </g>
   <g id="patch_6">
    <path d="M 60.68 56.601989 
L 556.55 56.601989 
" style="fill:none;stroke:#000000;stroke-linecap:square;stroke-linejoin:miter;stroke-width:0.8;"/>
   </g>
   <g id="legend_1">
    <g id="patch_7">
     <path d="M 59.017344 42.709474 
L 558.212656 42.709474 
Q 561.212656 42.709474 561.212656 39.709474 
L 561.212656 19.192287 
Q 561.212656 16.192287 558.212656 16.192287 
L 59.017344 16.192287 
Q 56.017344 16.192287 56.017344 19.192287 
L 56.017344 39.709474 
Q 56.017344 42.709474 59.017344 42.709474 
z
" style="fill:#ffffff;opacity:0.8;stroke:#cccccc;stroke-linejoin:miter;"/>
    </g>
    <g id="line2d_17">
     <path d="M 62.017344 28.339943 
L 92.017344 28.339943 
" style="fill:none;stroke:#1f77b4;stroke-linecap:square;stroke-width:1.5;"/>
    </g>
    <g id="line2d_18"/>
    <g id="text_15">
     <!-- FedAvg -->
     <g transform="translate(104.017344 33.589943)scale(0.15 -0.15)">
      <defs>
       <path d="M 628 4666 
L 3309 4666 
L 3309 4134 
L 1259 4134 
L 1259 2759 
L 3109 2759 
L 3109 2228 
L 1259 2228 
L 1259 0 
L 628 0 
L 628 4666 
z
" id="DejaVuSans-46" transform="scale(0.015625)"/>
       <path d="M 191 3500 
L 800 3500 
L 1894 563 
L 2988 3500 
L 3597 3500 
L 2284 0 
L 1503 0 
L 191 3500 
z
" id="DejaVuSans-76" transform="scale(0.015625)"/>
       <path d="M 2906 1791 
Q 2906 2416 2648 2759 
Q 2391 3103 1925 3103 
Q 1463 3103 1205 2759 
Q 947 2416 947 1791 
Q 947 1169 1205 825 
Q 1463 481 1925 481 
Q 2391 481 2648 825 
Q 2906 1169 2906 1791 
z
M 3481 434 
Q 3481 -459 3084 -895 
Q 2688 -1331 1869 -1331 
Q 1566 -1331 1297 -1286 
Q 1028 -1241 775 -1147 
L 775 -588 
Q 1028 -725 1275 -790 
Q 1522 -856 1778 -856 
Q 2344 -856 2625 -561 
Q 2906 -266 2906 331 
L 2906 616 
Q 2728 306 2450 153 
Q 2172 0 1784 0 
Q 1141 0 747 490 
Q 353 981 353 1791 
Q 353 2603 747 3093 
Q 1141 3584 1784 3584 
Q 2172 3584 2450 3431 
Q 2728 3278 2906 2969 
L 2906 3500 
L 3481 3500 
L 3481 434 
z
" id="DejaVuSans-67" transform="scale(0.015625)"/>
      </defs>
      <use xlink:href="#DejaVuSans-46"/>
      <use x="52.019531" xlink:href="#DejaVuSans-65"/>
      <use x="113.542969" xlink:href="#DejaVuSans-64"/>
      <use x="177.019531" xlink:href="#DejaVuSans-41"/>
      <use x="239.552734" xlink:href="#DejaVuSans-76"/>
      <use x="298.732422" xlink:href="#DejaVuSans-67"/>
     </g>
    </g>
    <g id="line2d_19">
     <path d="M 188.3525 28.339943 
L 218.3525 28.339943 
" style="fill:none;stroke:#ff7f0e;stroke-linecap:square;stroke-width:1.5;"/>
    </g>
    <g id="line2d_20"/>
    <g id="text_16">
     <!-- FedMed -->
     <g transform="translate(230.3525 33.589943)scale(0.15 -0.15)">
      <defs>
       <path d="M 628 4666 
L 1569 4666 
L 2759 1491 
L 3956 4666 
L 4897 4666 
L 4897 0 
L 4281 0 
L 4281 4097 
L 3078 897 
L 2444 897 
L 1241 4097 
L 1241 0 
L 628 0 
L 628 4666 
z
" id="DejaVuSans-4d" transform="scale(0.015625)"/>
      </defs>
      <use xlink:href="#DejaVuSans-46"/>
      <use x="52.019531" xlink:href="#DejaVuSans-65"/>
      <use x="113.542969" xlink:href="#DejaVuSans-64"/>
      <use x="177.019531" xlink:href="#DejaVuSans-4d"/>
      <use x="263.298828" xlink:href="#DejaVuSans-65"/>
      <use x="324.822266" xlink:href="#DejaVuSans-64"/>
     </g>
    </g>
    <g id="line2d_21">
     <path d="M 318.601719 28.339943 
L 348.601719 28.339943 
" style="fill:none;stroke:#2ca02c;stroke-linecap:square;stroke-width:1.5;"/>
    </g>
    <g id="line2d_22"/>
    <g id="text_17">
     <!-- FedProx -->
     <g transform="translate(360.601719 33.589943)scale(0.15 -0.15)">
      <defs>
       <path d="M 1259 4147 
L 1259 2394 
L 2053 2394 
Q 2494 2394 2734 2622 
Q 2975 2850 2975 3272 
Q 2975 3691 2734 3919 
Q 2494 4147 2053 4147 
L 1259 4147 
z
M 628 4666 
L 2053 4666 
Q 2838 4666 3239 4311 
Q 3641 3956 3641 3272 
Q 3641 2581 3239 2228 
Q 2838 1875 2053 1875 
L 1259 1875 
L 1259 0 
L 628 0 
L 628 4666 
z
" id="DejaVuSans-50" transform="scale(0.015625)"/>
       <path d="M 3513 3500 
L 2247 1797 
L 3578 0 
L 2900 0 
L 1881 1375 
L 863 0 
L 184 0 
L 1544 1831 
L 300 3500 
L 978 3500 
L 1906 2253 
L 2834 3500 
L 3513 3500 
z
" id="DejaVuSans-78" transform="scale(0.015625)"/>
      </defs>
      <use xlink:href="#DejaVuSans-46"/>
      <use x="52.019531" xlink:href="#DejaVuSans-65"/>
      <use x="113.542969" xlink:href="#DejaVuSans-64"/>
      <use x="177.019531" xlink:href="#DejaVuSans-50"/>
      <use x="235.572266" xlink:href="#DejaVuSans-72"/>
      <use x="274.435547" xlink:href="#DejaVuSans-6f"/>
      <use x="332.492188" xlink:href="#DejaVuSans-78"/>
     </g>
    </g>
    <g id="line2d_23">
     <path d="M 449.354844 28.339943 
L 479.354844 28.339943 
" style="fill:none;stroke:#d62728;stroke-linecap:square;stroke-width:1.5;"/>
    </g>
    <g id="line2d_24"/>
    <g id="text_18">
     <!-- qFedAvg -->
     <g transform="translate(491.354844 33.589943)scale(0.15 -0.15)">
      <defs>
       <path d="M 947 1747 
Q 947 1113 1208 752 
Q 1469 391 1925 391 
Q 2381 391 2643 752 
Q 2906 1113 2906 1747 
Q 2906 2381 2643 2742 
Q 2381 3103 1925 3103 
Q 1469 3103 1208 2742 
Q 947 2381 947 1747 
z
M 2906 525 
Q 2725 213 2448 61 
Q 2172 -91 1784 -91 
Q 1150 -91 751 415 
Q 353 922 353 1747 
Q 353 2572 751 3078 
Q 1150 3584 1784 3584 
Q 2172 3584 2448 3432 
Q 2725 3281 2906 2969 
L 2906 3500 
L 3481 3500 
L 3481 -1331 
L 2906 -1331 
L 2906 525 
z
" id="DejaVuSans-71" transform="scale(0.015625)"/>
      </defs>
      <use xlink:href="#DejaVuSans-71"/>
      <use x="63.476562" xlink:href="#DejaVuSans-46"/>
      <use x="115.496094" xlink:href="#DejaVuSans-65"/>
      <use x="177.019531" xlink:href="#DejaVuSans-64"/>
      <use x="240.496094" xlink:href="#DejaVuSans-41"/>
      <use x="303.029297" xlink:href="#DejaVuSans-76"/>
      <use x="362.208984" xlink:href="#DejaVuSans-67"/>
     </g>
    </g>
   </g>
  </g>
 </g>
 <defs>
  <clipPath id="pc598bdc5c4">
   <rect height="319.398011" width="495.87" x="60.68" y="56.601989"/>
  </clipPath>
 </defs>
</svg>
