<?xml version="1.0" encoding="utf-8" standalone="no"?>
<!DOCTYPE svg PUBLIC "-//W3C//DTD SVG 1.1//EN"
  "http://www.w3.org/Graphics/SVG/1.1/DTD/svg11.dtd">
<svg height="345.6pt" version="1.1" viewBox="0 0 460.8 345.6" width="460.8pt" xmlns="http://www.w3.org/2000/svg" xmlns:xlink="http://www.w3.org/1999/xlink">
 <metadata>
  <rdf:RDF xmlns:cc="http://creativecommons.org/ns#" xmlns:dc="http://purl.org/dc/elements/1.1/" xmlns:rdf="http://www.w3.org/1999/02/22-rdf-syntax-ns#">
   <cc:Work>
    <dc:type rdf:resource="http://purl.org/dc/dcmitype/StillImage"/>
    <dc:date>2021-05-07T11:38:10.048700</dc:date>
    <dc:format>image/svg+xml</dc:format>
    <dc:creator>
     <cc:Agent>
      <dc:title>Matplotlib v3.4.1, https://matplotlib.org/</dc:title>
     </cc:Agent>
    </dc:creator>
   </cc:Work>
  </rdf:RDF>
 </metadata>
 <defs>
  <style type="text/css">*{stroke-linecap:butt;stroke-linejoin:round;}</style>
 </defs>
 <g id="figure_1">
  <g id="patch_1">
   <path d="M 0 345.6 
L 460.8 345.6 
L 460.8 0 
L 0 0 
z
" style="fill:#ffffff;"/>
  </g>
  <g id="axes_1">
   <g id="patch_2">
    <path d="M 44.48 303.64 
L 450 303.64 
L 450 48.38 
L 44.48 48.38 
z
" style="fill:#ffffff;"/>
   </g>
   <g id="PolyCollection_1">
    <path clip-path="url(#pcf0640c886)" d="M 62.912727 277.108309 
L 62.912727 286.744995 
L 70.436289 249.225113 
L 77.959852 220.757396 
L 85.483414 203.521947 
L 93.006976 191.373404 
L 100.530538 183.806237 
L 108.0541 176.507632 
L 115.577662 167.58185 
L 123.101224 161.578669 
L 130.624787 153.632353 
L 138.148349 152.084164 
L 145.671911 143.632317 
L 153.195473 137.59754 
L 160.719035 136.191532 
L 168.242597 133.679674 
L 175.76616 128.229418 
L 183.289722 124.422137 
L 190.813284 123.000331 
L 198.336846 113.537422 
L 205.860408 112.573753 
L 213.38397 110.599023 
L 220.907532 110.393651 
L 228.431095 107.281475 
L 235.954657 102.589515 
L 243.478219 102.289356 
L 251.001781 100.551593 
L 258.525343 95.780644 
L 266.048905 96.428356 
L 273.572468 93.774318 
L 281.09603 92.399905 
L 288.619592 91.104482 
L 296.143154 87.486775 
L 303.666716 86.254544 
L 311.190278 84.785344 
L 318.71384 83.079177 
L 326.237403 81.910136 
L 333.760965 78.21344 
L 341.284527 78.87695 
L 348.808089 77.818494 
L 356.331651 73.110736 
L 363.855213 74.943287 
L 371.378776 73.442491 
L 378.902338 72.415631 
L 386.4259 70.598879 
L 393.949462 68.90851 
L 401.473024 65.922717 
L 408.996586 65.306601 
L 416.520148 66.41245 
L 424.043711 64.690485 
L 431.567273 62.510382 
L 431.567273 59.982727 
L 431.567273 59.982727 
L 424.043711 61.831075 
L 416.520148 62.431393 
L 408.996586 63.442455 
L 401.473024 65.685749 
L 393.949462 66.001706 
L 386.4259 68.039628 
L 378.902338 66.507237 
L 371.378776 70.07755 
L 363.855213 71.530952 
L 356.331651 72.320844 
L 348.808089 74.090203 
L 341.284527 75.148658 
L 333.760965 77.26557 
L 326.237403 77.913281 
L 318.71384 77.755303 
L 311.190278 82.305082 
L 303.666716 82.162902 
L 296.143154 82.873805 
L 288.619592 84.074441 
L 281.09603 86.617894 
L 273.572468 89.177145 
L 266.048905 89.793261 
L 258.525343 93.521552 
L 251.001781 93.505754 
L 243.478219 96.554738 
L 235.954657 100.772763 
L 228.431095 102.305154 
L 220.907532 101.689038 
L 213.38397 106.633764 
L 205.860408 109.80913 
L 198.336846 112.005031 
L 190.813284 115.38577 
L 183.289722 118.940285 
L 175.76616 125.464795 
L 168.242597 127.202558 
L 160.719035 132.400049 
L 153.195473 136.918233 
L 145.671911 138.450623 
L 138.148349 145.275293 
L 130.624787 152.810865 
L 123.101224 160.630798 
L 115.577662 166.191639 
L 108.0541 173.316467 
L 100.530538 177.376514 
L 93.006976 190.899469 
L 85.483414 202.858438 
L 77.959852 216.886924 
L 70.436289 247.582137 
L 62.912727 277.108309 
z
" style="fill:#1f77b4;fill-opacity:0.5;"/>
   </g>
   <g id="PolyCollection_2">
    <path clip-path="url(#pcf0640c886)" d="M 62.912727 282.116226 
L 62.912727 291.942486 
L 70.436289 250.283568 
L 77.959852 230.947006 
L 85.483414 210.014861 
L 93.006976 199.588284 
L 100.530538 195.054302 
L 108.0541 179.288053 
L 115.577662 173.964179 
L 123.101224 164.801429 
L 130.624787 163.411219 
L 138.148349 155.196339 
L 145.671911 151.657622 
L 153.195473 147.281619 
L 160.719035 143.063594 
L 168.242597 136.444297 
L 175.76616 132.921378 
L 183.289722 128.482183 
L 190.813284 128.450588 
L 198.336846 123.679638 
L 205.860408 119.888156 
L 213.38397 116.618002 
L 220.907532 116.618002 
L 228.431095 111.420511 
L 235.954657 109.998705 
L 243.478219 107.708017 
L 251.001781 105.812276 
L 258.525343 103.489992 
L 266.048905 102.052389 
L 273.572468 101.562655 
L 281.09603 97.881757 
L 288.619592 95.891229 
L 296.143154 94.027083 
L 303.666716 93.363574 
L 311.190278 94.516816 
L 318.71384 89.967037 
L 326.237403 90.53576 
L 333.760965 87.502573 
L 341.284527 87.834328 
L 348.808089 86.997042 
L 356.331651 84.311409 
L 363.855213 82.779018 
L 371.378776 85.527843 
L 378.902338 81.215031 
L 386.4259 79.635246 
L 393.949462 77.470942 
L 401.473024 79.303492 
L 408.996586 77.344559 
L 416.520148 77.723707 
L 424.043711 74.737915 
L 431.567273 74.76951 
L 431.567273 72.57361 
L 431.567273 72.57361 
L 424.043711 73.96382 
L 416.520148 75.527807 
L 408.996586 75.843764 
L 401.473024 76.807432 
L 393.949462 76.82323 
L 386.4259 78.87695 
L 378.902338 79.113918 
L 371.378776 80.867478 
L 363.855213 82.1787 
L 356.331651 82.76322 
L 348.808089 86.475713 
L 341.284527 86.965447 
L 333.760965 87.265606 
L 326.237403 88.655816 
L 318.71384 88.608422 
L 311.190278 91.009695 
L 303.666716 92.305118 
L 296.143154 93.632137 
L 288.619592 95.512081 
L 281.09603 97.86596 
L 273.572468 99.035 
L 266.048905 101.388879 
L 258.525343 102.447335 
L 251.001781 104.943394 
L 243.478219 106.159828 
L 235.954657 106.649561 
L 228.431095 110.930777 
L 220.907532 112.194605 
L 213.38397 116.570608 
L 205.860408 119.003476 
L 198.336846 122.463204 
L 190.813284 124.501126 
L 183.289722 127.77128 
L 175.76616 131.246806 
L 168.242597 135.54382 
L 160.719035 137.028817 
L 153.195473 143.979869 
L 145.671911 147.550182 
L 138.148349 152.953045 
L 130.624787 155.812455 
L 123.101224 163.190049 
L 115.577662 173.158489 
L 108.0541 178.466565 
L 100.530538 186.618253 
L 93.006976 197.945308 
L 85.483414 205.512476 
L 77.959852 227.060736 
L 70.436289 250.030803 
L 62.912727 282.116226 
z
" style="fill:#ff7f0e;fill-opacity:0.5;"/>
   </g>
   <g id="PolyCollection_3">
    <path clip-path="url(#pcf0640c886)" d="M 62.912727 277.882404 
L 62.912727 287.108345 
L 70.436289 251.29463 
L 77.959852 234.359341 
L 85.483414 223.664199 
L 93.006976 210.709967 
L 100.530538 195.859992 
L 108.0541 181.784112 
L 115.577662 171.24695 
L 123.101224 168.182168 
L 130.624787 161.120531 
L 138.148349 158.719259 
L 145.671911 149.335339 
L 153.195473 145.543856 
L 160.719035 142.415883 
L 168.242597 140.8203 
L 175.76616 128.956119 
L 183.289722 127.518515 
L 190.813284 124.880275 
L 198.336846 120.504272 
L 205.860408 118.655924 
L 213.38397 113.758592 
L 220.907532 111.910244 
L 228.431095 108.750675 
L 235.954657 106.602168 
L 243.478219 103.521588 
L 251.001781 103.774354 
L 258.525343 98.734841 
L 266.048905 98.260906 
L 273.572468 96.049207 
L 281.09603 92.178735 
L 288.619592 92.004959 
L 296.143154 89.224538 
L 303.666716 90.978099 
L 311.190278 85.859597 
L 318.71384 84.880131 
L 326.237403 83.205559 
L 333.760965 83.995452 
L 341.284527 79.303492 
L 348.808089 77.992271 
L 356.331651 76.649454 
L 363.855213 77.344559 
L 371.378776 74.62733 
L 378.902338 72.510418 
L 386.4259 73.126534 
L 393.949462 70.725262 
L 401.473024 70.646273 
L 408.996586 69.793189 
L 416.520148 68.734733 
L 424.043711 68.402979 
L 431.567273 65.780536 
L 431.567273 62.96852 
L 431.567273 62.96852 
L 424.043711 62.178628 
L 416.520148 63.947986 
L 408.996586 65.38559 
L 401.473024 66.507237 
L 393.949462 68.813723 
L 386.4259 66.744205 
L 378.902338 72.336642 
L 371.378776 70.614677 
L 363.855213 72.510418 
L 356.331651 73.553076 
L 348.808089 75.843764 
L 341.284527 76.001742 
L 333.760965 79.335087 
L 326.237403 79.429874 
L 318.71384 81.657371 
L 311.190278 83.458325 
L 303.666716 86.270341 
L 296.143154 84.785344 
L 288.619592 88.782199 
L 281.09603 90.219803 
L 273.572468 91.515226 
L 266.048905 93.426765 
L 258.525343 97.281439 
L 251.001781 100.030264 
L 243.478219 102.605313 
L 235.954657 103.821747 
L 228.431095 105.227755 
L 220.907532 109.303599 
L 213.38397 109.935513 
L 205.860408 115.006621 
L 198.336846 116.349438 
L 190.813284 119.398422 
L 183.289722 123.979797 
L 175.76616 128.65596 
L 168.242597 134.437971 
L 160.719035 135.227863 
L 153.195473 140.377961 
L 145.671911 145.575452 
L 138.148349 152.731875 
L 130.624787 158.355908 
L 123.101224 166.065257 
L 115.577662 167.818817 
L 108.0541 177.818853 
L 100.530538 192.8742 
L 93.006976 201.878971 
L 85.483414 207.439813 
L 77.959852 226.286642 
L 70.436289 245.307247 
L 62.912727 277.882404 
z
" style="fill:#2ca02c;fill-opacity:0.5;"/>
   </g>
   <g id="PolyCollection_4">
    <path clip-path="url(#pcf0640c886)" d="M 62.912727 283.095692 
L 62.912727 292.037273 
L 70.436289 249.699048 
L 77.959852 227.566267 
L 85.483414 206.792101 
L 93.006976 200.915303 
L 100.530538 181.531347 
L 108.0541 177.092152 
L 115.577662 169.288017 
L 123.101224 158.34011 
L 130.624787 155.354318 
L 138.148349 150.456986 
L 145.671911 144.580187 
L 153.195473 137.771316 
L 160.719035 135.717596 
L 168.242597 130.283138 
L 175.76616 127.676493 
L 183.289722 124.6907 
L 190.813284 119.730177 
L 198.336846 118.071403 
L 205.860408 114.864441 
L 213.38397 112.731732 
L 220.907532 108.940249 
L 228.431095 105.322542 
L 235.954657 102.273558 
L 243.478219 100.093456 
L 251.001781 99.319361 
L 258.525343 96.76011 
L 266.048905 93.853307 
L 273.572468 93.884903 
L 281.09603 92.257725 
L 288.619592 91.657407 
L 296.143154 89.903846 
L 303.666716 88.150285 
L 311.190278 86.886457 
L 318.71384 85.496247 
L 326.237403 82.668433 
L 333.760965 82.131306 
L 341.284527 80.820085 
L 348.808089 79.445672 
L 356.331651 77.881686 
L 363.855213 76.586262 
L 371.378776 74.595734 
L 378.902338 73.774246 
L 386.4259 71.562548 
L 393.949462 71.246591 
L 401.473024 69.240264 
L 408.996586 67.470906 
L 416.520148 66.507237 
L 424.043711 65.101229 
L 431.567273 64.500911 
L 431.567273 63.868997 
L 431.567273 63.868997 
L 424.043711 63.268679 
L 416.520148 65.938515 
L 408.996586 66.365057 
L 401.473024 66.570429 
L 393.949462 67.391917 
L 386.4259 69.12968 
L 378.902338 70.756858 
L 371.378776 71.451963 
L 363.855213 72.699993 
L 356.331651 73.948022 
L 348.808089 75.559402 
L 341.284527 74.453553 
L 333.760965 77.676314 
L 326.237403 79.777427 
L 318.71384 80.519926 
L 311.190278 82.731624 
L 303.666716 83.916462 
L 296.143154 86.760075 
L 288.619592 86.839064 
L 281.09603 88.987571 
L 273.572468 90.298792 
L 266.048905 93.742722 
L 258.525343 94.437827 
L 251.001781 97.881757 
L 243.478219 99.935477 
L 235.954657 100.251434 
L 228.431095 104.927596 
L 220.907532 107.771208 
L 213.38397 109.88812 
L 205.860408 112.384179 
L 198.336846 115.559546 
L 190.813284 117.170926 
L 183.289722 122.700172 
L 175.76616 125.79655 
L 168.242597 130.093563 
L 160.719035 132.716006 
L 153.195473 136.428499 
L 145.671911 142.810829 
L 138.148349 149.825072 
L 130.624787 150.235816 
L 123.101224 155.812455 
L 115.577662 163.900952 
L 108.0541 172.700351 
L 100.530538 179.60401 
L 93.006976 189.319684 
L 85.483414 204.690988 
L 77.959852 222.021224 
L 70.436289 240.567894 
L 62.912727 283.095692 
z
" style="fill:#d62728;fill-opacity:0.5;"/>
   </g>
   <g id="matplotlib.axis_1">
    <g id="xtick_1">
     <g id="line2d_1">
      <defs>
       <path d="M 0 0 
L 0 3.5 
" id="m802c43c817" style="stroke:#000000;stroke-width:0.8;"/>
      </defs>
      <g>
       <use style="stroke:#000000;stroke-width:0.8;" x="62.912727" xlink:href="#m802c43c817" y="303.64"/>
      </g>
     </g>
     <g id="text_1">
      <!-- 0 -->
      <g transform="translate(59.731477 318.238437)scale(0.1 -0.1)">
       <defs>
        <path d="M 2034 4250 
Q 1547 4250 1301 3770 
Q 1056 3291 1056 2328 
Q 1056 1369 1301 889 
Q 1547 409 2034 409 
Q 2525 409 2770 889 
Q 3016 1369 3016 2328 
Q 3016 3291 2770 3770 
Q 2525 4250 2034 4250 
z
M 2034 4750 
Q 2819 4750 3233 4129 
Q 3647 3509 3647 2328 
Q 3647 1150 3233 529 
Q 2819 -91 2034 -91 
Q 1250 -91 836 529 
Q 422 1150 422 2328 
Q 422 3509 836 4129 
Q 1250 4750 2034 4750 
z
" id="DejaVuSans-30" transform="scale(0.015625)"/>
       </defs>
       <use xlink:href="#DejaVuSans-30"/>
      </g>
     </g>
    </g>
    <g id="xtick_2">
     <g id="line2d_2">
      <g>
       <use style="stroke:#000000;stroke-width:0.8;" x="138.148349" xlink:href="#m802c43c817" y="303.64"/>
      </g>
     </g>
     <g id="text_2">
      <!-- 10 -->
      <g transform="translate(131.785849 318.238437)scale(0.1 -0.1)">
       <defs>
        <path d="M 794 531 
L 1825 531 
L 1825 4091 
L 703 3866 
L 703 4441 
L 1819 4666 
L 2450 4666 
L 2450 531 
L 3481 531 
L 3481 0 
L 794 0 
L 794 531 
z
" id="DejaVuSans-31" transform="scale(0.015625)"/>
       </defs>
       <use xlink:href="#DejaVuSans-31"/>
       <use x="63.623047" xlink:href="#DejaVuSans-30"/>
      </g>
     </g>
    </g>
    <g id="xtick_3">
     <g id="line2d_3">
      <g>
       <use style="stroke:#000000;stroke-width:0.8;" x="213.38397" xlink:href="#m802c43c817" y="303.64"/>
      </g>
     </g>
     <g id="text_3">
      <!-- 20 -->
      <g transform="translate(207.02147 318.238437)scale(0.1 -0.1)">
       <defs>
        <path d="M 1228 531 
L 3431 531 
L 3431 0 
L 469 0 
L 469 531 
Q 828 903 1448 1529 
Q 2069 2156 2228 2338 
Q 2531 2678 2651 2914 
Q 2772 3150 2772 3378 
Q 2772 3750 2511 3984 
Q 2250 4219 1831 4219 
Q 1534 4219 1204 4116 
Q 875 4013 500 3803 
L 500 4441 
Q 881 4594 1212 4672 
Q 1544 4750 1819 4750 
Q 2544 4750 2975 4387 
Q 3406 4025 3406 3419 
Q 3406 3131 3298 2873 
Q 3191 2616 2906 2266 
Q 2828 2175 2409 1742 
Q 1991 1309 1228 531 
z
" id="DejaVuSans-32" transform="scale(0.015625)"/>
       </defs>
       <use xlink:href="#DejaVuSans-32"/>
       <use x="63.623047" xlink:href="#DejaVuSans-30"/>
      </g>
     </g>
    </g>
    <g id="xtick_4">
     <g id="line2d_4">
      <g>
       <use style="stroke:#000000;stroke-width:0.8;" x="288.619592" xlink:href="#m802c43c817" y="303.64"/>
      </g>
     </g>
     <g id="text_4">
      <!-- 30 -->
      <g transform="translate(282.257092 318.238437)scale(0.1 -0.1)">
       <defs>
        <path d="M 2597 2516 
Q 3050 2419 3304 2112 
Q 3559 1806 3559 1356 
Q 3559 666 3084 287 
Q 2609 -91 1734 -91 
Q 1441 -91 1130 -33 
Q 819 25 488 141 
L 488 750 
Q 750 597 1062 519 
Q 1375 441 1716 441 
Q 2309 441 2620 675 
Q 2931 909 2931 1356 
Q 2931 1769 2642 2001 
Q 2353 2234 1838 2234 
L 1294 2234 
L 1294 2753 
L 1863 2753 
Q 2328 2753 2575 2939 
Q 2822 3125 2822 3475 
Q 2822 3834 2567 4026 
Q 2313 4219 1838 4219 
Q 1578 4219 1281 4162 
Q 984 4106 628 3988 
L 628 4550 
Q 988 4650 1302 4700 
Q 1616 4750 1894 4750 
Q 2613 4750 3031 4423 
Q 3450 4097 3450 3541 
Q 3450 3153 3228 2886 
Q 3006 2619 2597 2516 
z
" id="DejaVuSans-33" transform="scale(0.015625)"/>
       </defs>
       <use xlink:href="#DejaVuSans-33"/>
       <use x="63.623047" xlink:href="#DejaVuSans-30"/>
      </g>
     </g>
    </g>
    <g id="xtick_5">
     <g id="line2d_5">
      <g>
       <use style="stroke:#000000;stroke-width:0.8;" x="363.855213" xlink:href="#m802c43c817" y="303.64"/>
      </g>
     </g>
     <g id="text_5">
      <!-- 40 -->
      <g transform="translate(357.492713 318.238437)scale(0.1 -0.1)">
       <defs>
        <path d="M 2419 4116 
L 825 1625 
L 2419 1625 
L 2419 4116 
z
M 2253 4666 
L 3047 4666 
L 3047 1625 
L 3713 1625 
L 3713 1100 
L 3047 1100 
L 3047 0 
L 2419 0 
L 2419 1100 
L 313 1100 
L 313 1709 
L 2253 4666 
z
" id="DejaVuSans-34" transform="scale(0.015625)"/>
       </defs>
       <use xlink:href="#DejaVuSans-34"/>
       <use x="63.623047" xlink:href="#DejaVuSans-30"/>
      </g>
     </g>
    </g>
    <g id="xtick_6">
     <g id="line2d_6">
      <g>
       <use style="stroke:#000000;stroke-width:0.8;" x="439.090835" xlink:href="#m802c43c817" y="303.64"/>
      </g>
     </g>
     <g id="text_6">
      <!-- 50 -->
      <g transform="translate(432.728335 318.238437)scale(0.1 -0.1)">
       <defs>
        <path d="M 691 4666 
L 3169 4666 
L 3169 4134 
L 1269 4134 
L 1269 2991 
Q 1406 3038 1543 3061 
Q 1681 3084 1819 3084 
Q 2600 3084 3056 2656 
Q 3513 2228 3513 1497 
Q 3513 744 3044 326 
Q 2575 -91 1722 -91 
Q 1428 -91 1123 -41 
Q 819 9 494 109 
L 494 744 
Q 775 591 1075 516 
Q 1375 441 1709 441 
Q 2250 441 2565 725 
Q 2881 1009 2881 1497 
Q 2881 1984 2565 2268 
Q 2250 2553 1709 2553 
Q 1456 2553 1204 2497 
Q 953 2441 691 2322 
L 691 4666 
z
" id="DejaVuSans-35" transform="scale(0.015625)"/>
       </defs>
       <use xlink:href="#DejaVuSans-35"/>
       <use x="63.623047" xlink:href="#DejaVuSans-30"/>
      </g>
     </g>
    </g>
    <g id="text_7">
     <!-- Global Communication Rounds -->
     <g transform="translate(170.278281 331.916562)scale(0.1 -0.1)">
      <defs>
       <path d="M 3809 666 
L 3809 1919 
L 2778 1919 
L 2778 2438 
L 4434 2438 
L 4434 434 
Q 4069 175 3628 42 
Q 3188 -91 2688 -91 
Q 1594 -91 976 548 
Q 359 1188 359 2328 
Q 359 3472 976 4111 
Q 1594 4750 2688 4750 
Q 3144 4750 3555 4637 
Q 3966 4525 4313 4306 
L 4313 3634 
Q 3963 3931 3569 4081 
Q 3175 4231 2741 4231 
Q 1884 4231 1454 3753 
Q 1025 3275 1025 2328 
Q 1025 1384 1454 906 
Q 1884 428 2741 428 
Q 3075 428 3337 486 
Q 3600 544 3809 666 
z
" id="DejaVuSans-47" transform="scale(0.015625)"/>
       <path d="M 603 4863 
L 1178 4863 
L 1178 0 
L 603 0 
L 603 4863 
z
" id="DejaVuSans-6c" transform="scale(0.015625)"/>
       <path d="M 1959 3097 
Q 1497 3097 1228 2736 
Q 959 2375 959 1747 
Q 959 1119 1226 758 
Q 1494 397 1959 397 
Q 2419 397 2687 759 
Q 2956 1122 2956 1747 
Q 2956 2369 2687 2733 
Q 2419 3097 1959 3097 
z
M 1959 3584 
Q 2709 3584 3137 3096 
Q 3566 2609 3566 1747 
Q 3566 888 3137 398 
Q 2709 -91 1959 -91 
Q 1206 -91 779 398 
Q 353 888 353 1747 
Q 353 2609 779 3096 
Q 1206 3584 1959 3584 
z
" id="DejaVuSans-6f" transform="scale(0.015625)"/>
       <path d="M 3116 1747 
Q 3116 2381 2855 2742 
Q 2594 3103 2138 3103 
Q 1681 3103 1420 2742 
Q 1159 2381 1159 1747 
Q 1159 1113 1420 752 
Q 1681 391 2138 391 
Q 2594 391 2855 752 
Q 3116 1113 3116 1747 
z
M 1159 2969 
Q 1341 3281 1617 3432 
Q 1894 3584 2278 3584 
Q 2916 3584 3314 3078 
Q 3713 2572 3713 1747 
Q 3713 922 3314 415 
Q 2916 -91 2278 -91 
Q 1894 -91 1617 61 
Q 1341 213 1159 525 
L 1159 0 
L 581 0 
L 581 4863 
L 1159 4863 
L 1159 2969 
z
" id="DejaVuSans-62" transform="scale(0.015625)"/>
       <path d="M 2194 1759 
Q 1497 1759 1228 1600 
Q 959 1441 959 1056 
Q 959 750 1161 570 
Q 1363 391 1709 391 
Q 2188 391 2477 730 
Q 2766 1069 2766 1631 
L 2766 1759 
L 2194 1759 
z
M 3341 1997 
L 3341 0 
L 2766 0 
L 2766 531 
Q 2569 213 2275 61 
Q 1981 -91 1556 -91 
Q 1019 -91 701 211 
Q 384 513 384 1019 
Q 384 1609 779 1909 
Q 1175 2209 1959 2209 
L 2766 2209 
L 2766 2266 
Q 2766 2663 2505 2880 
Q 2244 3097 1772 3097 
Q 1472 3097 1187 3025 
Q 903 2953 641 2809 
L 641 3341 
Q 956 3463 1253 3523 
Q 1550 3584 1831 3584 
Q 2591 3584 2966 3190 
Q 3341 2797 3341 1997 
z
" id="DejaVuSans-61" transform="scale(0.015625)"/>
       <path id="DejaVuSans-20" transform="scale(0.015625)"/>
       <path d="M 4122 4306 
L 4122 3641 
Q 3803 3938 3442 4084 
Q 3081 4231 2675 4231 
Q 1875 4231 1450 3742 
Q 1025 3253 1025 2328 
Q 1025 1406 1450 917 
Q 1875 428 2675 428 
Q 3081 428 3442 575 
Q 3803 722 4122 1019 
L 4122 359 
Q 3791 134 3420 21 
Q 3050 -91 2638 -91 
Q 1578 -91 968 557 
Q 359 1206 359 2328 
Q 359 3453 968 4101 
Q 1578 4750 2638 4750 
Q 3056 4750 3426 4639 
Q 3797 4528 4122 4306 
z
" id="DejaVuSans-43" transform="scale(0.015625)"/>
       <path d="M 3328 2828 
Q 3544 3216 3844 3400 
Q 4144 3584 4550 3584 
Q 5097 3584 5394 3201 
Q 5691 2819 5691 2113 
L 5691 0 
L 5113 0 
L 5113 2094 
Q 5113 2597 4934 2840 
Q 4756 3084 4391 3084 
Q 3944 3084 3684 2787 
Q 3425 2491 3425 1978 
L 3425 0 
L 2847 0 
L 2847 2094 
Q 2847 2600 2669 2842 
Q 2491 3084 2119 3084 
Q 1678 3084 1418 2786 
Q 1159 2488 1159 1978 
L 1159 0 
L 581 0 
L 581 3500 
L 1159 3500 
L 1159 2956 
Q 1356 3278 1631 3431 
Q 1906 3584 2284 3584 
Q 2666 3584 2933 3390 
Q 3200 3197 3328 2828 
z
" id="DejaVuSans-6d" transform="scale(0.015625)"/>
       <path d="M 544 1381 
L 544 3500 
L 1119 3500 
L 1119 1403 
Q 1119 906 1312 657 
Q 1506 409 1894 409 
Q 2359 409 2629 706 
Q 2900 1003 2900 1516 
L 2900 3500 
L 3475 3500 
L 3475 0 
L 2900 0 
L 2900 538 
Q 2691 219 2414 64 
Q 2138 -91 1772 -91 
Q 1169 -91 856 284 
Q 544 659 544 1381 
z
M 1991 3584 
L 1991 3584 
z
" id="DejaVuSans-75" transform="scale(0.015625)"/>
       <path d="M 3513 2113 
L 3513 0 
L 2938 0 
L 2938 2094 
Q 2938 2591 2744 2837 
Q 2550 3084 2163 3084 
Q 1697 3084 1428 2787 
Q 1159 2491 1159 1978 
L 1159 0 
L 581 0 
L 581 3500 
L 1159 3500 
L 1159 2956 
Q 1366 3272 1645 3428 
Q 1925 3584 2291 3584 
Q 2894 3584 3203 3211 
Q 3513 2838 3513 2113 
z
" id="DejaVuSans-6e" transform="scale(0.015625)"/>
       <path d="M 603 3500 
L 1178 3500 
L 1178 0 
L 603 0 
L 603 3500 
z
M 603 4863 
L 1178 4863 
L 1178 4134 
L 603 4134 
L 603 4863 
z
" id="DejaVuSans-69" transform="scale(0.015625)"/>
       <path d="M 3122 3366 
L 3122 2828 
Q 2878 2963 2633 3030 
Q 2388 3097 2138 3097 
Q 1578 3097 1268 2742 
Q 959 2388 959 1747 
Q 959 1106 1268 751 
Q 1578 397 2138 397 
Q 2388 397 2633 464 
Q 2878 531 3122 666 
L 3122 134 
Q 2881 22 2623 -34 
Q 2366 -91 2075 -91 
Q 1284 -91 818 406 
Q 353 903 353 1747 
Q 353 2603 823 3093 
Q 1294 3584 2113 3584 
Q 2378 3584 2631 3529 
Q 2884 3475 3122 3366 
z
" id="DejaVuSans-63" transform="scale(0.015625)"/>
       <path d="M 1172 4494 
L 1172 3500 
L 2356 3500 
L 2356 3053 
L 1172 3053 
L 1172 1153 
Q 1172 725 1289 603 
Q 1406 481 1766 481 
L 2356 481 
L 2356 0 
L 1766 0 
Q 1100 0 847 248 
Q 594 497 594 1153 
L 594 3053 
L 172 3053 
L 172 3500 
L 594 3500 
L 594 4494 
L 1172 4494 
z
" id="DejaVuSans-74" transform="scale(0.015625)"/>
       <path d="M 2841 2188 
Q 3044 2119 3236 1894 
Q 3428 1669 3622 1275 
L 4263 0 
L 3584 0 
L 2988 1197 
Q 2756 1666 2539 1819 
Q 2322 1972 1947 1972 
L 1259 1972 
L 1259 0 
L 628 0 
L 628 4666 
L 2053 4666 
Q 2853 4666 3247 4331 
Q 3641 3997 3641 3322 
Q 3641 2881 3436 2590 
Q 3231 2300 2841 2188 
z
M 1259 4147 
L 1259 2491 
L 2053 2491 
Q 2509 2491 2742 2702 
Q 2975 2913 2975 3322 
Q 2975 3731 2742 3939 
Q 2509 4147 2053 4147 
L 1259 4147 
z
" id="DejaVuSans-52" transform="scale(0.015625)"/>
       <path d="M 2906 2969 
L 2906 4863 
L 3481 4863 
L 3481 0 
L 2906 0 
L 2906 525 
Q 2725 213 2448 61 
Q 2172 -91 1784 -91 
Q 1150 -91 751 415 
Q 353 922 353 1747 
Q 353 2572 751 3078 
Q 1150 3584 1784 3584 
Q 2172 3584 2448 3432 
Q 2725 3281 2906 2969 
z
M 947 1747 
Q 947 1113 1208 752 
Q 1469 391 1925 391 
Q 2381 391 2643 752 
Q 2906 1113 2906 1747 
Q 2906 2381 2643 2742 
Q 2381 3103 1925 3103 
Q 1469 3103 1208 2742 
Q 947 2381 947 1747 
z
" id="DejaVuSans-64" transform="scale(0.015625)"/>
       <path d="M 2834 3397 
L 2834 2853 
Q 2591 2978 2328 3040 
Q 2066 3103 1784 3103 
Q 1356 3103 1142 2972 
Q 928 2841 928 2578 
Q 928 2378 1081 2264 
Q 1234 2150 1697 2047 
L 1894 2003 
Q 2506 1872 2764 1633 
Q 3022 1394 3022 966 
Q 3022 478 2636 193 
Q 2250 -91 1575 -91 
Q 1294 -91 989 -36 
Q 684 19 347 128 
L 347 722 
Q 666 556 975 473 
Q 1284 391 1588 391 
Q 1994 391 2212 530 
Q 2431 669 2431 922 
Q 2431 1156 2273 1281 
Q 2116 1406 1581 1522 
L 1381 1569 
Q 847 1681 609 1914 
Q 372 2147 372 2553 
Q 372 3047 722 3315 
Q 1072 3584 1716 3584 
Q 2034 3584 2315 3537 
Q 2597 3491 2834 3397 
z
" id="DejaVuSans-73" transform="scale(0.015625)"/>
      </defs>
      <use xlink:href="#DejaVuSans-47"/>
      <use x="77.490234" xlink:href="#DejaVuSans-6c"/>
      <use x="105.273438" xlink:href="#DejaVuSans-6f"/>
      <use x="166.455078" xlink:href="#DejaVuSans-62"/>
      <use x="229.931641" xlink:href="#DejaVuSans-61"/>
      <use x="291.210938" xlink:href="#DejaVuSans-6c"/>
      <use x="318.994141" xlink:href="#DejaVuSans-20"/>
      <use x="350.78125" xlink:href="#DejaVuSans-43"/>
      <use x="420.605469" xlink:href="#DejaVuSans-6f"/>
      <use x="481.787109" xlink:href="#DejaVuSans-6d"/>
      <use x="579.199219" xlink:href="#DejaVuSans-6d"/>
      <use x="676.611328" xlink:href="#DejaVuSans-75"/>
      <use x="739.990234" xlink:href="#DejaVuSans-6e"/>
      <use x="803.369141" xlink:href="#DejaVuSans-69"/>
      <use x="831.152344" xlink:href="#DejaVuSans-63"/>
      <use x="886.132812" xlink:href="#DejaVuSans-61"/>
      <use x="947.412109" xlink:href="#DejaVuSans-74"/>
      <use x="986.621094" xlink:href="#DejaVuSans-69"/>
      <use x="1014.404297" xlink:href="#DejaVuSans-6f"/>
      <use x="1075.585938" xlink:href="#DejaVuSans-6e"/>
      <use x="1138.964844" xlink:href="#DejaVuSans-20"/>
      <use x="1170.751953" xlink:href="#DejaVuSans-52"/>
      <use x="1235.734375" xlink:href="#DejaVuSans-6f"/>
      <use x="1296.916016" xlink:href="#DejaVuSans-75"/>
      <use x="1360.294922" xlink:href="#DejaVuSans-6e"/>
      <use x="1423.673828" xlink:href="#DejaVuSans-64"/>
      <use x="1487.150391" xlink:href="#DejaVuSans-73"/>
     </g>
    </g>
   </g>
   <g id="matplotlib.axis_2">
    <g id="ytick_1">
     <g id="line2d_7">
      <defs>
       <path d="M 0 0 
L -3.5 0 
" id="mf362c442b2" style="stroke:#000000;stroke-width:0.8;"/>
      </defs>
      <g>
       <use style="stroke:#000000;stroke-width:0.8;" x="44.48" xlink:href="#mf362c442b2" y="270.425821"/>
      </g>
     </g>
     <g id="text_8">
      <!-- 25 -->
      <g transform="translate(24.755 274.225039)scale(0.1 -0.1)">
       <use xlink:href="#DejaVuSans-32"/>
       <use x="63.623047" xlink:href="#DejaVuSans-35"/>
      </g>
     </g>
    </g>
    <g id="ytick_2">
     <g id="line2d_8">
      <g>
       <use style="stroke:#000000;stroke-width:0.8;" x="44.48" xlink:href="#mf362c442b2" y="229.585232"/>
      </g>
     </g>
     <g id="text_9">
      <!-- 30 -->
      <g transform="translate(24.755 233.384451)scale(0.1 -0.1)">
       <use xlink:href="#DejaVuSans-33"/>
       <use x="63.623047" xlink:href="#DejaVuSans-30"/>
      </g>
     </g>
    </g>
    <g id="ytick_3">
     <g id="line2d_9">
      <g>
       <use style="stroke:#000000;stroke-width:0.8;" x="44.48" xlink:href="#mf362c442b2" y="188.744643"/>
      </g>
     </g>
     <g id="text_10">
      <!-- 35 -->
      <g transform="translate(24.755 192.543862)scale(0.1 -0.1)">
       <use xlink:href="#DejaVuSans-33"/>
       <use x="63.623047" xlink:href="#DejaVuSans-35"/>
      </g>
     </g>
    </g>
    <g id="ytick_4">
     <g id="line2d_10">
      <g>
       <use style="stroke:#000000;stroke-width:0.8;" x="44.48" xlink:href="#mf362c442b2" y="147.904054"/>
      </g>
     </g>
     <g id="text_11">
      <!-- 40 -->
      <g transform="translate(24.755 151.703273)scale(0.1 -0.1)">
       <use xlink:href="#DejaVuSans-34"/>
       <use x="63.623047" xlink:href="#DejaVuSans-30"/>
      </g>
     </g>
    </g>
    <g id="ytick_5">
     <g id="line2d_11">
      <g>
       <use style="stroke:#000000;stroke-width:0.8;" x="44.48" xlink:href="#mf362c442b2" y="107.063465"/>
      </g>
     </g>
     <g id="text_12">
      <!-- 45 -->
      <g transform="translate(24.755 110.862684)scale(0.1 -0.1)">
       <use xlink:href="#DejaVuSans-34"/>
       <use x="63.623047" xlink:href="#DejaVuSans-35"/>
      </g>
     </g>
    </g>
    <g id="ytick_6">
     <g id="line2d_12">
      <g>
       <use style="stroke:#000000;stroke-width:0.8;" x="44.48" xlink:href="#mf362c442b2" y="66.222876"/>
      </g>
     </g>
     <g id="text_13">
      <!-- 50 -->
      <g transform="translate(24.755 70.022095)scale(0.1 -0.1)">
       <use xlink:href="#DejaVuSans-35"/>
       <use x="63.623047" xlink:href="#DejaVuSans-30"/>
      </g>
     </g>
    </g>
    <g id="text_14">
     <!-- Test Accuracy -->
     <g transform="translate(18.675313 210.2725)rotate(-90)scale(0.1 -0.1)">
      <defs>
       <path d="M -19 4666 
L 3928 4666 
L 3928 4134 
L 2272 4134 
L 2272 0 
L 1638 0 
L 1638 4134 
L -19 4134 
L -19 4666 
z
" id="DejaVuSans-54" transform="scale(0.015625)"/>
       <path d="M 3597 1894 
L 3597 1613 
L 953 1613 
Q 991 1019 1311 708 
Q 1631 397 2203 397 
Q 2534 397 2845 478 
Q 3156 559 3463 722 
L 3463 178 
Q 3153 47 2828 -22 
Q 2503 -91 2169 -91 
Q 1331 -91 842 396 
Q 353 884 353 1716 
Q 353 2575 817 3079 
Q 1281 3584 2069 3584 
Q 2775 3584 3186 3129 
Q 3597 2675 3597 1894 
z
M 3022 2063 
Q 3016 2534 2758 2815 
Q 2500 3097 2075 3097 
Q 1594 3097 1305 2825 
Q 1016 2553 972 2059 
L 3022 2063 
z
" id="DejaVuSans-65" transform="scale(0.015625)"/>
       <path d="M 2188 4044 
L 1331 1722 
L 3047 1722 
L 2188 4044 
z
M 1831 4666 
L 2547 4666 
L 4325 0 
L 3669 0 
L 3244 1197 
L 1141 1197 
L 716 0 
L 50 0 
L 1831 4666 
z
" id="DejaVuSans-41" transform="scale(0.015625)"/>
       <path d="M 2631 2963 
Q 2534 3019 2420 3045 
Q 2306 3072 2169 3072 
Q 1681 3072 1420 2755 
Q 1159 2438 1159 1844 
L 1159 0 
L 581 0 
L 581 3500 
L 1159 3500 
L 1159 2956 
Q 1341 3275 1631 3429 
Q 1922 3584 2338 3584 
Q 2397 3584 2469 3576 
Q 2541 3569 2628 3553 
L 2631 2963 
z
" id="DejaVuSans-72" transform="scale(0.015625)"/>
       <path d="M 2059 -325 
Q 1816 -950 1584 -1140 
Q 1353 -1331 966 -1331 
L 506 -1331 
L 506 -850 
L 844 -850 
Q 1081 -850 1212 -737 
Q 1344 -625 1503 -206 
L 1606 56 
L 191 3500 
L 800 3500 
L 1894 763 
L 2988 3500 
L 3597 3500 
L 2059 -325 
z
" id="DejaVuSans-79" transform="scale(0.015625)"/>
      </defs>
      <use xlink:href="#DejaVuSans-54"/>
      <use x="44.083984" xlink:href="#DejaVuSans-65"/>
      <use x="105.607422" xlink:href="#DejaVuSans-73"/>
      <use x="157.707031" xlink:href="#DejaVuSans-74"/>
      <use x="196.916016" xlink:href="#DejaVuSans-20"/>
      <use x="228.703125" xlink:href="#DejaVuSans-41"/>
      <use x="295.361328" xlink:href="#DejaVuSans-63"/>
      <use x="350.341797" xlink:href="#DejaVuSans-63"/>
      <use x="405.322266" xlink:href="#DejaVuSans-75"/>
      <use x="468.701172" xlink:href="#DejaVuSans-72"/>
      <use x="509.814453" xlink:href="#DejaVuSans-61"/>
      <use x="571.09375" xlink:href="#DejaVuSans-63"/>
      <use x="626.074219" xlink:href="#DejaVuSans-79"/>
     </g>
    </g>
   </g>
   <g id="line2d_13">
    <path clip-path="url(#pcf0640c886)" d="M 62.912727 281.926652 
L 70.436289 248.403625 
L 77.959852 218.82216 
L 85.483414 203.190192 
L 93.006976 191.136437 
L 100.530538 180.591375 
L 108.0541 174.91205 
L 115.577662 166.886745 
L 123.101224 161.104733 
L 130.624787 153.221609 
L 138.148349 148.679728 
L 145.671911 141.04147 
L 153.195473 137.257886 
L 160.719035 134.29579 
L 168.242597 130.441116 
L 175.76616 126.847106 
L 183.289722 121.681211 
L 190.813284 119.19305 
L 198.336846 112.771226 
L 205.860408 111.191442 
L 213.38397 108.616393 
L 220.907532 106.041344 
L 228.431095 104.793315 
L 235.954657 101.681139 
L 243.478219 99.422047 
L 251.001781 97.028674 
L 258.525343 94.651098 
L 266.048905 93.110808 
L 273.572468 91.475731 
L 281.09603 89.5089 
L 288.619592 87.589461 
L 296.143154 85.18029 
L 303.666716 84.208723 
L 311.190278 83.545213 
L 318.71384 80.41724 
L 326.237403 79.911709 
L 333.760965 77.739505 
L 341.284527 77.012804 
L 348.808089 75.954349 
L 356.331651 72.71579 
L 363.855213 73.237119 
L 371.378776 71.760021 
L 378.902338 69.461434 
L 386.4259 69.319254 
L 393.949462 67.455108 
L 401.473024 65.804233 
L 408.996586 64.374528 
L 416.520148 64.421922 
L 424.043711 63.26078 
L 431.567273 61.246555 
" style="fill:none;stroke:#1f77b4;stroke-linecap:square;stroke-width:1.5;"/>
   </g>
   <g id="line2d_14">
    <path clip-path="url(#pcf0640c886)" d="M 62.912727 287.029356 
L 70.436289 250.157186 
L 77.959852 229.003871 
L 85.483414 207.763668 
L 93.006976 198.766796 
L 100.530538 190.836278 
L 108.0541 178.877309 
L 115.577662 173.561334 
L 123.101224 163.995739 
L 130.624787 159.611837 
L 138.148349 154.074692 
L 145.671911 149.603902 
L 153.195473 145.630744 
L 160.719035 140.046206 
L 168.242597 135.994059 
L 175.76616 132.084092 
L 183.289722 128.126732 
L 190.813284 126.475857 
L 198.336846 123.071421 
L 205.860408 119.445816 
L 213.38397 116.594305 
L 220.907532 114.406303 
L 228.431095 111.175644 
L 235.954657 108.324133 
L 243.478219 106.933923 
L 251.001781 105.377835 
L 258.525343 102.968664 
L 266.048905 101.720634 
L 273.572468 100.298828 
L 281.09603 97.873859 
L 288.619592 95.701655 
L 296.143154 93.82961 
L 303.666716 92.834346 
L 311.190278 92.763256 
L 318.71384 89.28773 
L 326.237403 89.595788 
L 333.760965 87.384089 
L 341.284527 87.399887 
L 348.808089 86.736378 
L 356.331651 83.537314 
L 363.855213 82.478859 
L 371.378776 83.197661 
L 378.902338 80.164474 
L 386.4259 79.256098 
L 393.949462 77.147086 
L 401.473024 78.055462 
L 408.996586 76.594161 
L 416.520148 76.625757 
L 424.043711 74.350867 
L 431.567273 73.67156 
" style="fill:none;stroke:#ff7f0e;stroke-linecap:square;stroke-width:1.5;"/>
   </g>
   <g id="line2d_15">
    <path clip-path="url(#pcf0640c886)" d="M 62.912727 282.495374 
L 70.436289 248.300939 
L 77.959852 230.322991 
L 85.483414 215.552006 
L 93.006976 206.294469 
L 100.530538 194.367096 
L 108.0541 179.801483 
L 115.577662 169.532884 
L 123.101224 167.123712 
L 130.624787 159.73822 
L 138.148349 155.725567 
L 145.671911 147.455395 
L 153.195473 142.960908 
L 160.719035 138.821873 
L 168.242597 137.629136 
L 175.76616 128.806039 
L 183.289722 125.749156 
L 190.813284 122.139348 
L 198.336846 118.426855 
L 205.860408 116.831273 
L 213.38397 111.847052 
L 220.907532 110.606922 
L 228.431095 106.989215 
L 235.954657 105.211958 
L 243.478219 103.063451 
L 251.001781 101.902309 
L 258.525343 98.00814 
L 266.048905 95.843835 
L 273.572468 93.782217 
L 281.09603 91.199269 
L 288.619592 90.393579 
L 296.143154 87.004941 
L 303.666716 88.62422 
L 311.190278 84.658961 
L 318.71384 83.268751 
L 326.237403 81.317717 
L 333.760965 81.66527 
L 341.284527 77.652617 
L 348.808089 76.918017 
L 356.331651 75.101265 
L 363.855213 74.927489 
L 371.378776 72.621003 
L 378.902338 72.42353 
L 386.4259 69.93537 
L 393.949462 69.769492 
L 401.473024 68.576755 
L 408.996586 67.58939 
L 416.520148 66.34136 
L 424.043711 65.290803 
L 431.567273 64.374528 
" style="fill:none;stroke:#2ca02c;stroke-linecap:square;stroke-width:1.5;"/>
   </g>
   <g id="line2d_16">
    <path clip-path="url(#pcf0640c886)" d="M 62.912727 287.566483 
L 70.436289 245.133471 
L 77.959852 224.793745 
L 85.483414 205.741544 
L 93.006976 195.117494 
L 100.530538 180.567678 
L 108.0541 174.896252 
L 115.577662 166.594484 
L 123.101224 157.076283 
L 130.624787 152.795067 
L 138.148349 150.141029 
L 145.671911 143.695508 
L 153.195473 137.099908 
L 160.719035 134.216801 
L 168.242597 130.188351 
L 175.76616 126.736521 
L 183.289722 123.695436 
L 190.813284 118.450552 
L 198.336846 116.815475 
L 205.860408 113.62431 
L 213.38397 111.309926 
L 220.907532 108.355729 
L 228.431095 105.125069 
L 235.954657 101.262496 
L 243.478219 100.014467 
L 251.001781 98.600559 
L 258.525343 95.598969 
L 266.048905 93.798015 
L 273.572468 92.091847 
L 281.09603 90.622648 
L 288.619592 89.248235 
L 296.143154 88.33196 
L 303.666716 86.033374 
L 311.190278 84.809041 
L 318.71384 83.008086 
L 326.237403 81.22293 
L 333.760965 79.90381 
L 341.284527 77.636819 
L 348.808089 77.502537 
L 356.331651 75.914854 
L 363.855213 74.643127 
L 371.378776 73.023848 
L 378.902338 72.265552 
L 386.4259 70.346114 
L 393.949462 69.319254 
L 401.473024 67.905347 
L 408.996586 66.917981 
L 416.520148 66.222876 
L 424.043711 64.184954 
L 431.567273 64.184954 
" style="fill:none;stroke:#d62728;stroke-linecap:square;stroke-width:1.5;"/>
   </g>
   <g id="patch_3">
    <path d="M 44.48 303.64 
L 44.48 48.38 
" style="fill:none;stroke:#000000;stroke-linecap:square;stroke-linejoin:miter;stroke-width:0.8;"/>
   </g>
   <g id="patch_4">
    <path d="M 450 303.64 
L 450 48.38 
" style="fill:none;stroke:#000000;stroke-linecap:square;stroke-linejoin:miter;stroke-width:0.8;"/>
   </g>
   <g id="patch_5">
    <path d="M 44.48 303.64 
L 450 303.64 
" style="fill:none;stroke:#000000;stroke-linecap:square;stroke-linejoin:miter;stroke-width:0.8;"/>
   </g>
   <g id="patch_6">
    <path d="M 44.48 48.38 
L 450 48.38 
" style="fill:none;stroke:#000000;stroke-linecap:square;stroke-linejoin:miter;stroke-width:0.8;"/>
   </g>
   <g id="text_15">
    <!-- Local Rounds 01 -->
    <g transform="translate(198.129063 20.88)scale(0.12 -0.12)">
     <defs>
      <path d="M 628 4666 
L 1259 4666 
L 1259 531 
L 3531 531 
L 3531 0 
L 628 0 
L 628 4666 
z
" id="DejaVuSans-4c" transform="scale(0.015625)"/>
     </defs>
     <use xlink:href="#DejaVuSans-4c"/>
     <use x="53.962891" xlink:href="#DejaVuSans-6f"/>
     <use x="115.144531" xlink:href="#DejaVuSans-63"/>
     <use x="170.125" xlink:href="#DejaVuSans-61"/>
     <use x="231.404297" xlink:href="#DejaVuSans-6c"/>
     <use x="259.1875" xlink:href="#DejaVuSans-20"/>
     <use x="290.974609" xlink:href="#DejaVuSans-52"/>
     <use x="355.957031" xlink:href="#DejaVuSans-6f"/>
     <use x="417.138672" xlink:href="#DejaVuSans-75"/>
     <use x="480.517578" xlink:href="#DejaVuSans-6e"/>
     <use x="543.896484" xlink:href="#DejaVuSans-64"/>
     <use x="607.373047" xlink:href="#DejaVuSans-73"/>
     <use x="659.472656" xlink:href="#DejaVuSans-20"/>
     <use x="691.259766" xlink:href="#DejaVuSans-30"/>
     <use x="754.882812" xlink:href="#DejaVuSans-31"/>
    </g>
   </g>
   <g id="legend_1">
    <g id="patch_7">
     <path d="M 80.841563 45.532125 
L 413.638438 45.532125 
Q 415.638438 45.532125 415.638438 43.532125 
L 415.638438 29.854 
Q 415.638438 27.854 413.638438 27.854 
L 80.841563 27.854 
Q 78.841563 27.854 78.841563 29.854 
L 78.841563 43.532125 
Q 78.841563 45.532125 80.841563 45.532125 
z
" style="fill:#ffffff;opacity:0.8;stroke:#cccccc;stroke-linejoin:miter;"/>
    </g>
    <g id="line2d_17">
     <path d="M 82.841563 35.952438 
L 102.841563 35.952438 
" style="fill:none;stroke:#1f77b4;stroke-linecap:square;stroke-width:1.5;"/>
    </g>
    <g id="line2d_18"/>
    <g id="text_16">
     <!-- FedAvg -->
     <g transform="translate(110.841563 39.452438)scale(0.1 -0.1)">
      <defs>
       <path d="M 628 4666 
L 3309 4666 
L 3309 4134 
L 1259 4134 
L 1259 2759 
L 3109 2759 
L 3109 2228 
L 1259 2228 
L 1259 0 
L 628 0 
L 628 4666 
z
" id="DejaVuSans-46" transform="scale(0.015625)"/>
       <path d="M 191 3500 
L 800 3500 
L 1894 563 
L 2988 3500 
L 3597 3500 
L 2284 0 
L 1503 0 
L 191 3500 
z
" id="DejaVuSans-76" transform="scale(0.015625)"/>
       <path d="M 2906 1791 
Q 2906 2416 2648 2759 
Q 2391 3103 1925 3103 
Q 1463 3103 1205 2759 
Q 947 2416 947 1791 
Q 947 1169 1205 825 
Q 1463 481 1925 481 
Q 2391 481 2648 825 
Q 2906 1169 2906 1791 
z
M 3481 434 
Q 3481 -459 3084 -895 
Q 2688 -1331 1869 -1331 
Q 1566 -1331 1297 -1286 
Q 1028 -1241 775 -1147 
L 775 -588 
Q 1028 -725 1275 -790 
Q 1522 -856 1778 -856 
Q 2344 -856 2625 -561 
Q 2906 -266 2906 331 
L 2906 616 
Q 2728 306 2450 153 
Q 2172 0 1784 0 
Q 1141 0 747 490 
Q 353 981 353 1791 
Q 353 2603 747 3093 
Q 1141 3584 1784 3584 
Q 2172 3584 2450 3431 
Q 2728 3278 2906 2969 
L 2906 3500 
L 3481 3500 
L 3481 434 
z
" id="DejaVuSans-67" transform="scale(0.015625)"/>
      </defs>
      <use xlink:href="#DejaVuSans-46"/>
      <use x="52.019531" xlink:href="#DejaVuSans-65"/>
      <use x="113.542969" xlink:href="#DejaVuSans-64"/>
      <use x="177.019531" xlink:href="#DejaVuSans-41"/>
      <use x="239.552734" xlink:href="#DejaVuSans-76"/>
      <use x="298.732422" xlink:href="#DejaVuSans-67"/>
     </g>
    </g>
    <g id="line2d_19">
     <path d="M 167.065 35.952438 
L 187.065 35.952438 
" style="fill:none;stroke:#ff7f0e;stroke-linecap:square;stroke-width:1.5;"/>
    </g>
    <g id="line2d_20"/>
    <g id="text_17">
     <!-- FedMed -->
     <g transform="translate(195.065 39.452438)scale(0.1 -0.1)">
      <defs>
       <path d="M 628 4666 
L 1569 4666 
L 2759 1491 
L 3956 4666 
L 4897 4666 
L 4897 0 
L 4281 0 
L 4281 4097 
L 3078 897 
L 2444 897 
L 1241 4097 
L 1241 0 
L 628 0 
L 628 4666 
z
" id="DejaVuSans-4d" transform="scale(0.015625)"/>
      </defs>
      <use xlink:href="#DejaVuSans-46"/>
      <use x="52.019531" xlink:href="#DejaVuSans-65"/>
      <use x="113.542969" xlink:href="#DejaVuSans-64"/>
      <use x="177.019531" xlink:href="#DejaVuSans-4d"/>
      <use x="263.298828" xlink:href="#DejaVuSans-65"/>
      <use x="324.822266" xlink:href="#DejaVuSans-64"/>
     </g>
    </g>
    <g id="line2d_21">
     <path d="M 253.897813 35.952438 
L 273.897812 35.952438 
" style="fill:none;stroke:#2ca02c;stroke-linecap:square;stroke-width:1.5;"/>
    </g>
    <g id="line2d_22"/>
    <g id="text_18">
     <!-- FedProx -->
     <g transform="translate(281.897812 39.452438)scale(0.1 -0.1)">
      <defs>
       <path d="M 1259 4147 
L 1259 2394 
L 2053 2394 
Q 2494 2394 2734 2622 
Q 2975 2850 2975 3272 
Q 2975 3691 2734 3919 
Q 2494 4147 2053 4147 
L 1259 4147 
z
M 628 4666 
L 2053 4666 
Q 2838 4666 3239 4311 
Q 3641 3956 3641 3272 
Q 3641 2581 3239 2228 
Q 2838 1875 2053 1875 
L 1259 1875 
L 1259 0 
L 628 0 
L 628 4666 
z
" id="DejaVuSans-50" transform="scale(0.015625)"/>
       <path d="M 3513 3500 
L 2247 1797 
L 3578 0 
L 2900 0 
L 1881 1375 
L 863 0 
L 184 0 
L 1544 1831 
L 300 3500 
L 978 3500 
L 1906 2253 
L 2834 3500 
L 3513 3500 
z
" id="DejaVuSans-78" transform="scale(0.015625)"/>
      </defs>
      <use xlink:href="#DejaVuSans-46"/>
      <use x="52.019531" xlink:href="#DejaVuSans-65"/>
      <use x="113.542969" xlink:href="#DejaVuSans-64"/>
      <use x="177.019531" xlink:href="#DejaVuSans-50"/>
      <use x="235.572266" xlink:href="#DejaVuSans-72"/>
      <use x="274.435547" xlink:href="#DejaVuSans-6f"/>
      <use x="332.492188" xlink:href="#DejaVuSans-78"/>
     </g>
    </g>
    <g id="line2d_23">
     <path d="M 341.066563 35.952438 
L 361.066563 35.952438 
" style="fill:none;stroke:#d62728;stroke-linecap:square;stroke-width:1.5;"/>
    </g>
    <g id="line2d_24"/>
    <g id="text_19">
     <!-- qFedAvg -->
     <g transform="translate(369.066563 39.452438)scale(0.1 -0.1)">
      <defs>
       <path d="M 947 1747 
Q 947 1113 1208 752 
Q 1469 391 1925 391 
Q 2381 391 2643 752 
Q 2906 1113 2906 1747 
Q 2906 2381 2643 2742 
Q 2381 3103 1925 3103 
Q 1469 3103 1208 2742 
Q 947 2381 947 1747 
z
M 2906 525 
Q 2725 213 2448 61 
Q 2172 -91 1784 -91 
Q 1150 -91 751 415 
Q 353 922 353 1747 
Q 353 2572 751 3078 
Q 1150 3584 1784 3584 
Q 2172 3584 2448 3432 
Q 2725 3281 2906 2969 
L 2906 3500 
L 3481 3500 
L 3481 -1331 
L 2906 -1331 
L 2906 525 
z
" id="DejaVuSans-71" transform="scale(0.015625)"/>
      </defs>
      <use xlink:href="#DejaVuSans-71"/>
      <use x="63.476562" xlink:href="#DejaVuSans-46"/>
      <use x="115.496094" xlink:href="#DejaVuSans-65"/>
      <use x="177.019531" xlink:href="#DejaVuSans-64"/>
      <use x="240.496094" xlink:href="#DejaVuSans-41"/>
      <use x="303.029297" xlink:href="#DejaVuSans-76"/>
      <use x="362.208984" xlink:href="#DejaVuSans-67"/>
     </g>
    </g>
   </g>
  </g>
 </g>
 <defs>
  <clipPath id="pcf0640c886">
   <rect height="255.26" width="405.52" x="44.48" y="48.38"/>
  </clipPath>
 </defs>
</svg>
