<?xml version="1.0" encoding="utf-8" standalone="no"?>
<!DOCTYPE svg PUBLIC "-//W3C//DTD SVG 1.1//EN"
  "http://www.w3.org/Graphics/SVG/1.1/DTD/svg11.dtd">
<svg height="345.6pt" version="1.1" viewBox="0 0 460.8 345.6" width="460.8pt" xmlns="http://www.w3.org/2000/svg" xmlns:xlink="http://www.w3.org/1999/xlink">
 <metadata>
  <rdf:RDF xmlns:cc="http://creativecommons.org/ns#" xmlns:dc="http://purl.org/dc/elements/1.1/" xmlns:rdf="http://www.w3.org/1999/02/22-rdf-syntax-ns#">
   <cc:Work>
    <dc:type rdf:resource="http://purl.org/dc/dcmitype/StillImage"/>
    <dc:date>2021-04-30T09:52:41.216250</dc:date>
    <dc:format>image/svg+xml</dc:format>
    <dc:creator>
     <cc:Agent>
      <dc:title>Matplotlib v3.4.1, https://matplotlib.org/</dc:title>
     </cc:Agent>
    </dc:creator>
   </cc:Work>
  </rdf:RDF>
 </metadata>
 <defs>
  <style type="text/css">*{stroke-linecap:butt;stroke-linejoin:round;}</style>
 </defs>
 <g id="figure_1">
  <g id="patch_1">
   <path d="M 0 345.6 
L 460.8 345.6 
L 460.8 0 
L 0 0 
z
" style="fill:#ffffff;"/>
  </g>
  <g id="axes_1">
   <g id="patch_2">
    <path d="M 53.93 303.64 
L 366.25 303.64 
L 366.25 26.88 
L 53.93 26.88 
z
" style="fill:#ffffff;"/>
   </g>
   <g id="PolyCollection_1">
    <path clip-path="url(#p08bd4bd158)" d="M 68.126364 261.349419 
L 68.126364 291.06 
L 73.920798 184.879787 
L 79.715232 151.971268 
L 85.509666 125.739526 
L 91.3041 110.830216 
L 97.098534 102.446431 
L 102.892968 97.238976 
L 108.687403 92.355637 
L 114.481837 91.340076 
L 120.276271 85.786898 
L 126.070705 87.277829 
L 131.865139 83.323621 
L 137.659573 82.718605 
L 143.454007 85.397959 
L 149.248442 79.67192 
L 155.042876 76.690058 
L 160.83731 77.057389 
L 166.631744 74.61572 
L 172.426178 71.871542 
L 178.220612 69.148973 
L 184.015046 68.414311 
L 189.809481 67.636434 
L 195.603915 65.129942 
L 201.398349 65.346019 
L 207.192783 65.562095 
L 212.987217 62.753095 
L 218.781651 61.759141 
L 224.576085 59.879272 
L 230.370519 58.150656 
L 236.164954 58.86371 
L 241.959388 60.095349 
L 247.753822 56.270787 
L 253.548256 55.320048 
L 259.34269 55.989887 
L 265.137124 53.764294 
L 270.931558 53.569825 
L 276.725993 51.64674 
L 282.520427 52.683909 
L 288.314861 54.066802 
L 294.109295 55.103971 
L 299.903729 54.45574 
L 305.698163 51.387448 
L 311.492597 49.161855 
L 317.287032 50.890471 
L 323.081466 50.350278 
L 328.8759 49.010601 
L 334.670334 50.220632 
L 340.464768 51.344232 
L 346.259202 47.433239 
L 352.053636 52.575871 
L 352.053636 45.445332 
L 352.053636 45.445332 
L 346.259202 45.55337 
L 340.464768 49.550794 
L 334.670334 49.810086 
L 328.8759 47.498063 
L 323.081466 48.600055 
L 317.287032 49.11864 
L 311.492597 48.772917 
L 305.698163 51.36584 
L 299.903729 50.955294 
L 294.109295 51.517094 
L 288.314861 51.884425 
L 282.520427 52.446225 
L 276.725993 49.896517 
L 270.931558 53.224102 
L 265.137124 51.409055 
L 259.34269 52.057286 
L 253.548256 54.628602 
L 247.753822 54.088409 
L 241.959388 56.767764 
L 236.164954 58.517987 
L 230.370519 56.89741 
L 224.576085 59.382295 
L 218.781651 58.150656 
L 212.987217 61.95361 
L 207.192783 63.098818 
L 201.398349 63.033995 
L 195.603915 64.460103 
L 189.809481 65.216372 
L 184.015046 65.734957 
L 178.220612 67.830903 
L 172.426178 69.105757 
L 166.631744 72.714243 
L 160.83731 73.384081 
L 155.042876 74.98305 
L 149.248442 79.412628 
L 143.454007 77.14382 
L 137.659573 78.980474 
L 131.865139 78.980474 
L 126.070705 85.462783 
L 120.276271 84.404005 
L 114.481837 89.092875 
L 108.687403 91.145606 
L 102.892968 96.461099 
L 97.098534 100.501738 
L 91.3041 109.29607 
L 85.509666 119.473294 
L 79.715232 140.411151 
L 73.920798 181.681848 
L 68.126364 261.349419 
z
" style="fill:#1f77b4;fill-opacity:0.5;"/>
   </g>
   <g id="PolyCollection_2">
    <path clip-path="url(#p08bd4bd158)" d="M 68.126364 264.223243 
L 68.126364 273.795452 
L 73.920798 190.000811 
L 79.715232 153.310945 
L 85.509666 125.717918 
L 91.3041 116.642686 
L 97.098534 111.82417 
L 102.892968 102.035885 
L 108.687403 104.131831 
L 114.481837 97.368622 
L 120.276271 96.093768 
L 126.070705 92.117953 
L 131.865139 92.722968 
L 137.659573 87.148183 
L 143.454007 87.601944 
L 149.248442 84.512044 
L 155.042876 84.512044 
L 160.83731 82.696998 
L 166.631744 82.070374 
L 172.426178 78.202597 
L 178.220612 79.715136 
L 184.015046 77.403112 
L 189.809481 75.112697 
L 195.603915 76.041828 
L 201.398349 72.217266 
L 207.192783 75.760928 
L 212.987217 77.42472 
L 218.781651 72.066012 
L 224.576085 72.519773 
L 230.370519 70.553473 
L 236.164954 69.08415 
L 241.959388 70.877588 
L 247.753822 66.167111 
L 253.548256 68.824857 
L 259.34269 65.562095 
L 265.137124 65.086726 
L 270.931558 65.302803 
L 276.725993 62.472195 
L 282.520427 64.568142 
L 288.314861 63.314895 
L 294.109295 63.336503 
L 299.903729 63.098818 
L 305.698163 61.499849 
L 311.492597 59.684802 
L 317.287032 66.08068 
L 323.081466 60.203387 
L 328.8759 58.150656 
L 334.670334 60.203387 
L 340.464768 60.592326 
L 346.259202 56.314002 
L 352.053636 55.817025 
L 352.053636 51.517094 
L 352.053636 51.517094 
L 346.259202 53.937156 
L 340.464768 59.058179 
L 334.670334 54.715033 
L 328.8759 56.033102 
L 323.081466 55.946671 
L 317.287032 60.376249 
L 311.492597 59.684802 
L 305.698163 60.289818 
L 299.903729 58.669241 
L 294.109295 62.515411 
L 288.314861 61.456633 
L 282.520427 61.11091 
L 276.725993 61.629495 
L 270.931558 65.000295 
L 265.137124 64.784218 
L 259.34269 63.358111 
L 253.548256 66.599265 
L 247.753822 63.639011 
L 241.959388 64.719395 
L 236.164954 63.768657 
L 230.370519 62.515411 
L 224.576085 64.330457 
L 218.781651 65.886211 
L 212.987217 68.500742 
L 207.192783 68.932896 
L 201.398349 70.164535 
L 195.603915 71.525819 
L 189.809481 74.486074 
L 184.015046 74.507681 
L 178.220612 76.279512 
L 172.426178 76.495589 
L 166.631744 74.810189 
L 160.83731 81.573397 
L 155.042876 83.388444 
L 149.248442 83.042721 
L 143.454007 86.996929 
L 137.659573 85.376352 
L 131.865139 86.996929 
L 126.070705 91.945091 
L 120.276271 91.664191 
L 114.481837 97.087722 
L 108.687403 99.032415 
L 102.892968 97.411838 
L 97.098534 106.162954 
L 91.3041 114.179409 
L 85.509666 124.702357 
L 79.715232 149.443167 
L 73.920798 183.842618 
L 68.126364 264.223243 
z
" style="fill:#ff7f0e;fill-opacity:0.5;"/>
   </g>
   <g id="PolyCollection_3">
    <path clip-path="url(#p08bd4bd158)" d="M 68.126364 269.819636 
L 68.126364 281.31493 
L 73.920798 216.967214 
L 79.715232 175.242755 
L 85.509666 146.504521 
L 91.3041 123.578756 
L 97.098534 105.298647 
L 102.892968 97.347015 
L 108.687403 97.887207 
L 114.481837 90.238083 
L 120.276271 84.92259 
L 126.070705 81.659828 
L 131.865139 76.236297 
L 137.659573 77.813659 
L 143.454007 75.155912 
L 149.248442 73.902666 
L 155.042876 70.142927 
L 160.83731 66.426403 
L 166.631744 71.223312 
L 172.426178 64.805826 
L 178.220612 65.626919 
L 184.015046 60.765187 
L 189.809481 59.900879 
L 195.603915 59.42551 
L 201.398349 58.409948 
L 207.192783 59.965703 
L 212.987217 59.663195 
L 218.781651 54.952717 
L 224.576085 54.823071 
L 230.370519 54.390917 
L 236.164954 55.384871 
L 241.959388 54.823071 
L 247.753822 52.683909 
L 253.548256 51.452271 
L 259.34269 50.955294 
L 265.137124 49.788478 
L 270.931558 51.538701 
L 276.725993 46.504109 
L 282.520427 46.525716 
L 288.314861 45.747839 
L 294.109295 46.482501 
L 299.903729 46.720186 
L 305.698163 44.926747 
L 311.492597 45.358901 
L 317.287032 40.907716 
L 323.081466 43.738324 
L 328.8759 42.160962 
L 334.670334 42.333823 
L 340.464768 42.031316 
L 346.259202 40.691639 
L 352.053636 40.972539 
L 352.053636 40.108231 
L 352.053636 40.108231 
L 346.259202 40.324308 
L 340.464768 39.46 
L 334.670334 40.950931 
L 328.8759 39.524823 
L 323.081466 43.58707 
L 317.287032 40.453954 
L 311.492597 44.42977 
L 305.698163 41.1454 
L 299.903729 43.997616 
L 294.109295 46.288032 
L 288.314861 44.624239 
L 282.520427 44.667454 
L 276.725993 45.27247 
L 270.931558 44.602631 
L 265.137124 45.574978 
L 259.34269 49.594009 
L 253.548256 51.128155 
L 247.753822 52.186932 
L 241.959388 52.057286 
L 236.164954 51.949248 
L 230.370519 53.418571 
L 224.576085 54.066802 
L 218.781651 54.412525 
L 212.987217 53.677863 
L 207.192783 56.097925 
L 201.398349 55.989887 
L 195.603915 58.798887 
L 189.809481 59.036572 
L 184.015046 60.008918 
L 178.220612 62.299334 
L 172.426178 64.092772 
L 166.631744 65.951034 
L 160.83731 65.972642 
L 155.042876 66.728911 
L 149.248442 68.371096 
L 143.454007 73.643373 
L 137.659573 76.236297 
L 131.865139 75.631281 
L 126.070705 78.461889 
L 120.276271 83.971852 
L 114.481837 86.780852 
L 108.687403 92.766183 
L 102.892968 96.82843 
L 97.098534 100.933892 
L 91.3041 114.481917 
L 85.509666 131.314311 
L 79.715232 159.058592 
L 73.920798 196.785627 
L 68.126364 269.819636 
z
" style="fill:#2ca02c;fill-opacity:0.5;"/>
   </g>
   <g id="PolyCollection_4">
    <path clip-path="url(#p08bd4bd158)" d="M 68.126364 272.715067 
L 68.126364 273.363298 
L 73.920798 188.466664 
L 79.715232 158.60483 
L 85.509666 141.534751 
L 91.3041 127.252065 
L 97.098534 115.929632 
L 102.892968 110.030732 
L 108.687403 104.412731 
L 114.481837 101.754985 
L 120.276271 98.470615 
L 126.070705 97.433446 
L 131.865139 95.553576 
L 137.659573 91.210429 
L 143.454007 90.302906 
L 149.248442 91.815445 
L 155.042876 89.460206 
L 160.83731 89.460206 
L 166.631744 87.104967 
L 172.426178 85.376352 
L 178.220612 85.246706 
L 184.015046 83.885421 
L 189.809481 82.502528 
L 195.603915 81.595005 
L 201.398349 80.903559 
L 207.192783 79.715136 
L 212.987217 78.26742 
L 218.781651 78.310636 
L 224.576085 75.652889 
L 230.370519 74.637327 
L 236.164954 73.059966 
L 241.959388 72.45495 
L 247.753822 74.05392 
L 253.548256 74.550897 
L 259.34269 72.022796 
L 265.137124 71.136881 
L 270.931558 71.136881 
L 276.725993 72.238873 
L 282.520427 69.148973 
L 288.314861 67.20428 
L 294.109295 66.253542 
L 299.903729 66.858557 
L 305.698163 66.966596 
L 311.492597 68.392704 
L 317.287032 67.20428 
L 323.081466 65.021903 
L 328.8759 65.821388 
L 334.670334 63.919911 
L 340.464768 62.925957 
L 346.259202 62.472195 
L 352.053636 61.715926 
L 352.053636 60.376249 
L 352.053636 60.376249 
L 346.259202 59.965703 
L 340.464768 59.98731 
L 334.670334 61.737533 
L 328.8759 61.651103 
L 323.081466 61.996826 
L 317.287032 63.876695 
L 311.492597 63.530972 
L 305.698163 65.583703 
L 299.903729 64.092772 
L 294.109295 65.79978 
L 288.314861 66.08068 
L 282.520427 67.506788 
L 276.725993 68.111804 
L 270.931558 67.96055 
L 265.137124 69.689165 
L 259.34269 71.266527 
L 253.548256 69.537911 
L 247.753822 72.649419 
L 241.959388 71.979581 
L 236.164954 72.562989 
L 230.370519 74.486074 
L 224.576085 75.307166 
L 218.781651 76.473981 
L 212.987217 77.878482 
L 207.192783 78.82922 
L 201.398349 78.958866 
L 195.603915 79.412628 
L 189.809481 81.422144 
L 184.015046 80.384974 
L 178.220612 82.740213 
L 172.426178 81.508574 
L 166.631744 85.462783 
L 160.83731 86.80246 
L 155.042876 88.379821 
L 149.248442 87.904452 
L 143.454007 88.574291 
L 137.659573 91.102391 
L 131.865139 91.599368 
L 126.070705 92.722968 
L 120.276271 96.698784 
L 114.481837 96.850038 
L 108.687403 101.279615 
L 102.892968 103.548423 
L 97.098534 109.793047 
L 91.3041 120.251171 
L 85.509666 131.184665 
L 79.715232 152.403422 
L 73.920798 184.685318 
L 68.126364 272.715067 
z
" style="fill:#d62728;fill-opacity:0.5;"/>
   </g>
   <g id="matplotlib.axis_1">
    <g id="xtick_1">
     <g id="line2d_1">
      <path clip-path="url(#p08bd4bd158)" d="M 68.126364 303.64 
L 68.126364 26.88 
" style="fill:none;stroke:#b0b0b0;stroke-linecap:square;stroke-width:0.8;"/>
     </g>
     <g id="line2d_2">
      <defs>
       <path d="M 0 0 
L 0 3.5 
" id="m4d597cb71f" style="stroke:#000000;stroke-width:0.8;"/>
      </defs>
      <g>
       <use style="stroke:#000000;stroke-width:0.8;" x="68.126364" xlink:href="#m4d597cb71f" y="303.64"/>
      </g>
     </g>
     <g id="text_1">
      <!-- 0 -->
      <g transform="translate(64.945114 318.238437)scale(0.1 -0.1)">
       <defs>
        <path d="M 2034 4250 
Q 1547 4250 1301 3770 
Q 1056 3291 1056 2328 
Q 1056 1369 1301 889 
Q 1547 409 2034 409 
Q 2525 409 2770 889 
Q 3016 1369 3016 2328 
Q 3016 3291 2770 3770 
Q 2525 4250 2034 4250 
z
M 2034 4750 
Q 2819 4750 3233 4129 
Q 3647 3509 3647 2328 
Q 3647 1150 3233 529 
Q 2819 -91 2034 -91 
Q 1250 -91 836 529 
Q 422 1150 422 2328 
Q 422 3509 836 4129 
Q 1250 4750 2034 4750 
z
" id="DejaVuSans-30" transform="scale(0.015625)"/>
       </defs>
       <use xlink:href="#DejaVuSans-30"/>
      </g>
     </g>
    </g>
    <g id="xtick_2">
     <g id="line2d_3">
      <path clip-path="url(#p08bd4bd158)" d="M 126.070705 303.64 
L 126.070705 26.88 
" style="fill:none;stroke:#b0b0b0;stroke-linecap:square;stroke-width:0.8;"/>
     </g>
     <g id="line2d_4">
      <g>
       <use style="stroke:#000000;stroke-width:0.8;" x="126.070705" xlink:href="#m4d597cb71f" y="303.64"/>
      </g>
     </g>
     <g id="text_2">
      <!-- 10 -->
      <g transform="translate(119.708205 318.238437)scale(0.1 -0.1)">
       <defs>
        <path d="M 794 531 
L 1825 531 
L 1825 4091 
L 703 3866 
L 703 4441 
L 1819 4666 
L 2450 4666 
L 2450 531 
L 3481 531 
L 3481 0 
L 794 0 
L 794 531 
z
" id="DejaVuSans-31" transform="scale(0.015625)"/>
       </defs>
       <use xlink:href="#DejaVuSans-31"/>
       <use x="63.623047" xlink:href="#DejaVuSans-30"/>
      </g>
     </g>
    </g>
    <g id="xtick_3">
     <g id="line2d_5">
      <path clip-path="url(#p08bd4bd158)" d="M 184.015046 303.64 
L 184.015046 26.88 
" style="fill:none;stroke:#b0b0b0;stroke-linecap:square;stroke-width:0.8;"/>
     </g>
     <g id="line2d_6">
      <g>
       <use style="stroke:#000000;stroke-width:0.8;" x="184.015046" xlink:href="#m4d597cb71f" y="303.64"/>
      </g>
     </g>
     <g id="text_3">
      <!-- 20 -->
      <g transform="translate(177.652546 318.238437)scale(0.1 -0.1)">
       <defs>
        <path d="M 1228 531 
L 3431 531 
L 3431 0 
L 469 0 
L 469 531 
Q 828 903 1448 1529 
Q 2069 2156 2228 2338 
Q 2531 2678 2651 2914 
Q 2772 3150 2772 3378 
Q 2772 3750 2511 3984 
Q 2250 4219 1831 4219 
Q 1534 4219 1204 4116 
Q 875 4013 500 3803 
L 500 4441 
Q 881 4594 1212 4672 
Q 1544 4750 1819 4750 
Q 2544 4750 2975 4387 
Q 3406 4025 3406 3419 
Q 3406 3131 3298 2873 
Q 3191 2616 2906 2266 
Q 2828 2175 2409 1742 
Q 1991 1309 1228 531 
z
" id="DejaVuSans-32" transform="scale(0.015625)"/>
       </defs>
       <use xlink:href="#DejaVuSans-32"/>
       <use x="63.623047" xlink:href="#DejaVuSans-30"/>
      </g>
     </g>
    </g>
    <g id="xtick_4">
     <g id="line2d_7">
      <path clip-path="url(#p08bd4bd158)" d="M 241.959388 303.64 
L 241.959388 26.88 
" style="fill:none;stroke:#b0b0b0;stroke-linecap:square;stroke-width:0.8;"/>
     </g>
     <g id="line2d_8">
      <g>
       <use style="stroke:#000000;stroke-width:0.8;" x="241.959388" xlink:href="#m4d597cb71f" y="303.64"/>
      </g>
     </g>
     <g id="text_4">
      <!-- 30 -->
      <g transform="translate(235.596888 318.238437)scale(0.1 -0.1)">
       <defs>
        <path d="M 2597 2516 
Q 3050 2419 3304 2112 
Q 3559 1806 3559 1356 
Q 3559 666 3084 287 
Q 2609 -91 1734 -91 
Q 1441 -91 1130 -33 
Q 819 25 488 141 
L 488 750 
Q 750 597 1062 519 
Q 1375 441 1716 441 
Q 2309 441 2620 675 
Q 2931 909 2931 1356 
Q 2931 1769 2642 2001 
Q 2353 2234 1838 2234 
L 1294 2234 
L 1294 2753 
L 1863 2753 
Q 2328 2753 2575 2939 
Q 2822 3125 2822 3475 
Q 2822 3834 2567 4026 
Q 2313 4219 1838 4219 
Q 1578 4219 1281 4162 
Q 984 4106 628 3988 
L 628 4550 
Q 988 4650 1302 4700 
Q 1616 4750 1894 4750 
Q 2613 4750 3031 4423 
Q 3450 4097 3450 3541 
Q 3450 3153 3228 2886 
Q 3006 2619 2597 2516 
z
" id="DejaVuSans-33" transform="scale(0.015625)"/>
       </defs>
       <use xlink:href="#DejaVuSans-33"/>
       <use x="63.623047" xlink:href="#DejaVuSans-30"/>
      </g>
     </g>
    </g>
    <g id="xtick_5">
     <g id="line2d_9">
      <path clip-path="url(#p08bd4bd158)" d="M 299.903729 303.64 
L 299.903729 26.88 
" style="fill:none;stroke:#b0b0b0;stroke-linecap:square;stroke-width:0.8;"/>
     </g>
     <g id="line2d_10">
      <g>
       <use style="stroke:#000000;stroke-width:0.8;" x="299.903729" xlink:href="#m4d597cb71f" y="303.64"/>
      </g>
     </g>
     <g id="text_5">
      <!-- 40 -->
      <g transform="translate(293.541229 318.238437)scale(0.1 -0.1)">
       <defs>
        <path d="M 2419 4116 
L 825 1625 
L 2419 1625 
L 2419 4116 
z
M 2253 4666 
L 3047 4666 
L 3047 1625 
L 3713 1625 
L 3713 1100 
L 3047 1100 
L 3047 0 
L 2419 0 
L 2419 1100 
L 313 1100 
L 313 1709 
L 2253 4666 
z
" id="DejaVuSans-34" transform="scale(0.015625)"/>
       </defs>
       <use xlink:href="#DejaVuSans-34"/>
       <use x="63.623047" xlink:href="#DejaVuSans-30"/>
      </g>
     </g>
    </g>
    <g id="xtick_6">
     <g id="line2d_11">
      <path clip-path="url(#p08bd4bd158)" d="M 357.848071 303.64 
L 357.848071 26.88 
" style="fill:none;stroke:#b0b0b0;stroke-linecap:square;stroke-width:0.8;"/>
     </g>
     <g id="line2d_12">
      <g>
       <use style="stroke:#000000;stroke-width:0.8;" x="357.848071" xlink:href="#m4d597cb71f" y="303.64"/>
      </g>
     </g>
     <g id="text_6">
      <!-- 50 -->
      <g transform="translate(351.485571 318.238437)scale(0.1 -0.1)">
       <defs>
        <path d="M 691 4666 
L 3169 4666 
L 3169 4134 
L 1269 4134 
L 1269 2991 
Q 1406 3038 1543 3061 
Q 1681 3084 1819 3084 
Q 2600 3084 3056 2656 
Q 3513 2228 3513 1497 
Q 3513 744 3044 326 
Q 2575 -91 1722 -91 
Q 1428 -91 1123 -41 
Q 819 9 494 109 
L 494 744 
Q 775 591 1075 516 
Q 1375 441 1709 441 
Q 2250 441 2565 725 
Q 2881 1009 2881 1497 
Q 2881 1984 2565 2268 
Q 2250 2553 1709 2553 
Q 1456 2553 1204 2497 
Q 953 2441 691 2322 
L 691 4666 
z
" id="DejaVuSans-35" transform="scale(0.015625)"/>
       </defs>
       <use xlink:href="#DejaVuSans-35"/>
       <use x="63.623047" xlink:href="#DejaVuSans-30"/>
      </g>
     </g>
    </g>
    <g id="text_7">
     <!-- Global Communication Rounds -->
     <g transform="translate(133.128281 331.916562)scale(0.1 -0.1)">
      <defs>
       <path d="M 3809 666 
L 3809 1919 
L 2778 1919 
L 2778 2438 
L 4434 2438 
L 4434 434 
Q 4069 175 3628 42 
Q 3188 -91 2688 -91 
Q 1594 -91 976 548 
Q 359 1188 359 2328 
Q 359 3472 976 4111 
Q 1594 4750 2688 4750 
Q 3144 4750 3555 4637 
Q 3966 4525 4313 4306 
L 4313 3634 
Q 3963 3931 3569 4081 
Q 3175 4231 2741 4231 
Q 1884 4231 1454 3753 
Q 1025 3275 1025 2328 
Q 1025 1384 1454 906 
Q 1884 428 2741 428 
Q 3075 428 3337 486 
Q 3600 544 3809 666 
z
" id="DejaVuSans-47" transform="scale(0.015625)"/>
       <path d="M 603 4863 
L 1178 4863 
L 1178 0 
L 603 0 
L 603 4863 
z
" id="DejaVuSans-6c" transform="scale(0.015625)"/>
       <path d="M 1959 3097 
Q 1497 3097 1228 2736 
Q 959 2375 959 1747 
Q 959 1119 1226 758 
Q 1494 397 1959 397 
Q 2419 397 2687 759 
Q 2956 1122 2956 1747 
Q 2956 2369 2687 2733 
Q 2419 3097 1959 3097 
z
M 1959 3584 
Q 2709 3584 3137 3096 
Q 3566 2609 3566 1747 
Q 3566 888 3137 398 
Q 2709 -91 1959 -91 
Q 1206 -91 779 398 
Q 353 888 353 1747 
Q 353 2609 779 3096 
Q 1206 3584 1959 3584 
z
" id="DejaVuSans-6f" transform="scale(0.015625)"/>
       <path d="M 3116 1747 
Q 3116 2381 2855 2742 
Q 2594 3103 2138 3103 
Q 1681 3103 1420 2742 
Q 1159 2381 1159 1747 
Q 1159 1113 1420 752 
Q 1681 391 2138 391 
Q 2594 391 2855 752 
Q 3116 1113 3116 1747 
z
M 1159 2969 
Q 1341 3281 1617 3432 
Q 1894 3584 2278 3584 
Q 2916 3584 3314 3078 
Q 3713 2572 3713 1747 
Q 3713 922 3314 415 
Q 2916 -91 2278 -91 
Q 1894 -91 1617 61 
Q 1341 213 1159 525 
L 1159 0 
L 581 0 
L 581 4863 
L 1159 4863 
L 1159 2969 
z
" id="DejaVuSans-62" transform="scale(0.015625)"/>
       <path d="M 2194 1759 
Q 1497 1759 1228 1600 
Q 959 1441 959 1056 
Q 959 750 1161 570 
Q 1363 391 1709 391 
Q 2188 391 2477 730 
Q 2766 1069 2766 1631 
L 2766 1759 
L 2194 1759 
z
M 3341 1997 
L 3341 0 
L 2766 0 
L 2766 531 
Q 2569 213 2275 61 
Q 1981 -91 1556 -91 
Q 1019 -91 701 211 
Q 384 513 384 1019 
Q 384 1609 779 1909 
Q 1175 2209 1959 2209 
L 2766 2209 
L 2766 2266 
Q 2766 2663 2505 2880 
Q 2244 3097 1772 3097 
Q 1472 3097 1187 3025 
Q 903 2953 641 2809 
L 641 3341 
Q 956 3463 1253 3523 
Q 1550 3584 1831 3584 
Q 2591 3584 2966 3190 
Q 3341 2797 3341 1997 
z
" id="DejaVuSans-61" transform="scale(0.015625)"/>
       <path id="DejaVuSans-20" transform="scale(0.015625)"/>
       <path d="M 4122 4306 
L 4122 3641 
Q 3803 3938 3442 4084 
Q 3081 4231 2675 4231 
Q 1875 4231 1450 3742 
Q 1025 3253 1025 2328 
Q 1025 1406 1450 917 
Q 1875 428 2675 428 
Q 3081 428 3442 575 
Q 3803 722 4122 1019 
L 4122 359 
Q 3791 134 3420 21 
Q 3050 -91 2638 -91 
Q 1578 -91 968 557 
Q 359 1206 359 2328 
Q 359 3453 968 4101 
Q 1578 4750 2638 4750 
Q 3056 4750 3426 4639 
Q 3797 4528 4122 4306 
z
" id="DejaVuSans-43" transform="scale(0.015625)"/>
       <path d="M 3328 2828 
Q 3544 3216 3844 3400 
Q 4144 3584 4550 3584 
Q 5097 3584 5394 3201 
Q 5691 2819 5691 2113 
L 5691 0 
L 5113 0 
L 5113 2094 
Q 5113 2597 4934 2840 
Q 4756 3084 4391 3084 
Q 3944 3084 3684 2787 
Q 3425 2491 3425 1978 
L 3425 0 
L 2847 0 
L 2847 2094 
Q 2847 2600 2669 2842 
Q 2491 3084 2119 3084 
Q 1678 3084 1418 2786 
Q 1159 2488 1159 1978 
L 1159 0 
L 581 0 
L 581 3500 
L 1159 3500 
L 1159 2956 
Q 1356 3278 1631 3431 
Q 1906 3584 2284 3584 
Q 2666 3584 2933 3390 
Q 3200 3197 3328 2828 
z
" id="DejaVuSans-6d" transform="scale(0.015625)"/>
       <path d="M 544 1381 
L 544 3500 
L 1119 3500 
L 1119 1403 
Q 1119 906 1312 657 
Q 1506 409 1894 409 
Q 2359 409 2629 706 
Q 2900 1003 2900 1516 
L 2900 3500 
L 3475 3500 
L 3475 0 
L 2900 0 
L 2900 538 
Q 2691 219 2414 64 
Q 2138 -91 1772 -91 
Q 1169 -91 856 284 
Q 544 659 544 1381 
z
M 1991 3584 
L 1991 3584 
z
" id="DejaVuSans-75" transform="scale(0.015625)"/>
       <path d="M 3513 2113 
L 3513 0 
L 2938 0 
L 2938 2094 
Q 2938 2591 2744 2837 
Q 2550 3084 2163 3084 
Q 1697 3084 1428 2787 
Q 1159 2491 1159 1978 
L 1159 0 
L 581 0 
L 581 3500 
L 1159 3500 
L 1159 2956 
Q 1366 3272 1645 3428 
Q 1925 3584 2291 3584 
Q 2894 3584 3203 3211 
Q 3513 2838 3513 2113 
z
" id="DejaVuSans-6e" transform="scale(0.015625)"/>
       <path d="M 603 3500 
L 1178 3500 
L 1178 0 
L 603 0 
L 603 3500 
z
M 603 4863 
L 1178 4863 
L 1178 4134 
L 603 4134 
L 603 4863 
z
" id="DejaVuSans-69" transform="scale(0.015625)"/>
       <path d="M 3122 3366 
L 3122 2828 
Q 2878 2963 2633 3030 
Q 2388 3097 2138 3097 
Q 1578 3097 1268 2742 
Q 959 2388 959 1747 
Q 959 1106 1268 751 
Q 1578 397 2138 397 
Q 2388 397 2633 464 
Q 2878 531 3122 666 
L 3122 134 
Q 2881 22 2623 -34 
Q 2366 -91 2075 -91 
Q 1284 -91 818 406 
Q 353 903 353 1747 
Q 353 2603 823 3093 
Q 1294 3584 2113 3584 
Q 2378 3584 2631 3529 
Q 2884 3475 3122 3366 
z
" id="DejaVuSans-63" transform="scale(0.015625)"/>
       <path d="M 1172 4494 
L 1172 3500 
L 2356 3500 
L 2356 3053 
L 1172 3053 
L 1172 1153 
Q 1172 725 1289 603 
Q 1406 481 1766 481 
L 2356 481 
L 2356 0 
L 1766 0 
Q 1100 0 847 248 
Q 594 497 594 1153 
L 594 3053 
L 172 3053 
L 172 3500 
L 594 3500 
L 594 4494 
L 1172 4494 
z
" id="DejaVuSans-74" transform="scale(0.015625)"/>
       <path d="M 2841 2188 
Q 3044 2119 3236 1894 
Q 3428 1669 3622 1275 
L 4263 0 
L 3584 0 
L 2988 1197 
Q 2756 1666 2539 1819 
Q 2322 1972 1947 1972 
L 1259 1972 
L 1259 0 
L 628 0 
L 628 4666 
L 2053 4666 
Q 2853 4666 3247 4331 
Q 3641 3997 3641 3322 
Q 3641 2881 3436 2590 
Q 3231 2300 2841 2188 
z
M 1259 4147 
L 1259 2491 
L 2053 2491 
Q 2509 2491 2742 2702 
Q 2975 2913 2975 3322 
Q 2975 3731 2742 3939 
Q 2509 4147 2053 4147 
L 1259 4147 
z
" id="DejaVuSans-52" transform="scale(0.015625)"/>
       <path d="M 2906 2969 
L 2906 4863 
L 3481 4863 
L 3481 0 
L 2906 0 
L 2906 525 
Q 2725 213 2448 61 
Q 2172 -91 1784 -91 
Q 1150 -91 751 415 
Q 353 922 353 1747 
Q 353 2572 751 3078 
Q 1150 3584 1784 3584 
Q 2172 3584 2448 3432 
Q 2725 3281 2906 2969 
z
M 947 1747 
Q 947 1113 1208 752 
Q 1469 391 1925 391 
Q 2381 391 2643 752 
Q 2906 1113 2906 1747 
Q 2906 2381 2643 2742 
Q 2381 3103 1925 3103 
Q 1469 3103 1208 2742 
Q 947 2381 947 1747 
z
" id="DejaVuSans-64" transform="scale(0.015625)"/>
       <path d="M 2834 3397 
L 2834 2853 
Q 2591 2978 2328 3040 
Q 2066 3103 1784 3103 
Q 1356 3103 1142 2972 
Q 928 2841 928 2578 
Q 928 2378 1081 2264 
Q 1234 2150 1697 2047 
L 1894 2003 
Q 2506 1872 2764 1633 
Q 3022 1394 3022 966 
Q 3022 478 2636 193 
Q 2250 -91 1575 -91 
Q 1294 -91 989 -36 
Q 684 19 347 128 
L 347 722 
Q 666 556 975 473 
Q 1284 391 1588 391 
Q 1994 391 2212 530 
Q 2431 669 2431 922 
Q 2431 1156 2273 1281 
Q 2116 1406 1581 1522 
L 1381 1569 
Q 847 1681 609 1914 
Q 372 2147 372 2553 
Q 372 3047 722 3315 
Q 1072 3584 1716 3584 
Q 2034 3584 2315 3537 
Q 2597 3491 2834 3397 
z
" id="DejaVuSans-73" transform="scale(0.015625)"/>
      </defs>
      <use xlink:href="#DejaVuSans-47"/>
      <use x="77.490234" xlink:href="#DejaVuSans-6c"/>
      <use x="105.273438" xlink:href="#DejaVuSans-6f"/>
      <use x="166.455078" xlink:href="#DejaVuSans-62"/>
      <use x="229.931641" xlink:href="#DejaVuSans-61"/>
      <use x="291.210938" xlink:href="#DejaVuSans-6c"/>
      <use x="318.994141" xlink:href="#DejaVuSans-20"/>
      <use x="350.78125" xlink:href="#DejaVuSans-43"/>
      <use x="420.605469" xlink:href="#DejaVuSans-6f"/>
      <use x="481.787109" xlink:href="#DejaVuSans-6d"/>
      <use x="579.199219" xlink:href="#DejaVuSans-6d"/>
      <use x="676.611328" xlink:href="#DejaVuSans-75"/>
      <use x="739.990234" xlink:href="#DejaVuSans-6e"/>
      <use x="803.369141" xlink:href="#DejaVuSans-69"/>
      <use x="831.152344" xlink:href="#DejaVuSans-63"/>
      <use x="886.132812" xlink:href="#DejaVuSans-61"/>
      <use x="947.412109" xlink:href="#DejaVuSans-74"/>
      <use x="986.621094" xlink:href="#DejaVuSans-69"/>
      <use x="1014.404297" xlink:href="#DejaVuSans-6f"/>
      <use x="1075.585938" xlink:href="#DejaVuSans-6e"/>
      <use x="1138.964844" xlink:href="#DejaVuSans-20"/>
      <use x="1170.751953" xlink:href="#DejaVuSans-52"/>
      <use x="1235.734375" xlink:href="#DejaVuSans-6f"/>
      <use x="1296.916016" xlink:href="#DejaVuSans-75"/>
      <use x="1360.294922" xlink:href="#DejaVuSans-6e"/>
      <use x="1423.673828" xlink:href="#DejaVuSans-64"/>
      <use x="1487.150391" xlink:href="#DejaVuSans-73"/>
     </g>
    </g>
   </g>
   <g id="matplotlib.axis_2">
    <g id="ytick_1">
     <g id="line2d_13">
      <path clip-path="url(#p08bd4bd158)" d="M 53.93 264.780721 
L 366.25 264.780721 
" style="fill:none;stroke:#b0b0b0;stroke-linecap:square;stroke-width:0.8;"/>
     </g>
     <g id="line2d_14">
      <defs>
       <path d="M 0 0 
L -3.5 0 
" id="me4657f5ceb" style="stroke:#000000;stroke-width:0.8;"/>
      </defs>
      <g>
       <use style="stroke:#000000;stroke-width:0.8;" x="53.93" xlink:href="#me4657f5ceb" y="264.780721"/>
      </g>
     </g>
     <g id="text_8">
      <!-- 0.30 -->
      <g transform="translate(24.664375 268.57994)scale(0.1 -0.1)">
       <defs>
        <path d="M 684 794 
L 1344 794 
L 1344 0 
L 684 0 
L 684 794 
z
" id="DejaVuSans-2e" transform="scale(0.015625)"/>
       </defs>
       <use xlink:href="#DejaVuSans-30"/>
       <use x="63.623047" xlink:href="#DejaVuSans-2e"/>
       <use x="95.410156" xlink:href="#DejaVuSans-33"/>
       <use x="159.033203" xlink:href="#DejaVuSans-30"/>
      </g>
     </g>
    </g>
    <g id="ytick_2">
     <g id="line2d_15">
      <path clip-path="url(#p08bd4bd158)" d="M 53.93 208.920508 
L 366.25 208.920508 
" style="fill:none;stroke:#b0b0b0;stroke-linecap:square;stroke-width:0.8;"/>
     </g>
     <g id="line2d_16">
      <g>
       <use style="stroke:#000000;stroke-width:0.8;" x="53.93" xlink:href="#me4657f5ceb" y="208.920508"/>
      </g>
     </g>
     <g id="text_9">
      <!-- 0.35 -->
      <g transform="translate(24.664375 212.719727)scale(0.1 -0.1)">
       <use xlink:href="#DejaVuSans-30"/>
       <use x="63.623047" xlink:href="#DejaVuSans-2e"/>
       <use x="95.410156" xlink:href="#DejaVuSans-33"/>
       <use x="159.033203" xlink:href="#DejaVuSans-35"/>
      </g>
     </g>
    </g>
    <g id="ytick_3">
     <g id="line2d_17">
      <path clip-path="url(#p08bd4bd158)" d="M 53.93 153.060295 
L 366.25 153.060295 
" style="fill:none;stroke:#b0b0b0;stroke-linecap:square;stroke-width:0.8;"/>
     </g>
     <g id="line2d_18">
      <g>
       <use style="stroke:#000000;stroke-width:0.8;" x="53.93" xlink:href="#me4657f5ceb" y="153.060295"/>
      </g>
     </g>
     <g id="text_10">
      <!-- 0.40 -->
      <g transform="translate(24.664375 156.859514)scale(0.1 -0.1)">
       <use xlink:href="#DejaVuSans-30"/>
       <use x="63.623047" xlink:href="#DejaVuSans-2e"/>
       <use x="95.410156" xlink:href="#DejaVuSans-34"/>
       <use x="159.033203" xlink:href="#DejaVuSans-30"/>
      </g>
     </g>
    </g>
    <g id="ytick_4">
     <g id="line2d_19">
      <path clip-path="url(#p08bd4bd158)" d="M 53.93 97.200082 
L 366.25 97.200082 
" style="fill:none;stroke:#b0b0b0;stroke-linecap:square;stroke-width:0.8;"/>
     </g>
     <g id="line2d_20">
      <g>
       <use style="stroke:#000000;stroke-width:0.8;" x="53.93" xlink:href="#me4657f5ceb" y="97.200082"/>
      </g>
     </g>
     <g id="text_11">
      <!-- 0.45 -->
      <g transform="translate(24.664375 100.999301)scale(0.1 -0.1)">
       <use xlink:href="#DejaVuSans-30"/>
       <use x="63.623047" xlink:href="#DejaVuSans-2e"/>
       <use x="95.410156" xlink:href="#DejaVuSans-34"/>
       <use x="159.033203" xlink:href="#DejaVuSans-35"/>
      </g>
     </g>
    </g>
    <g id="ytick_5">
     <g id="line2d_21">
      <path clip-path="url(#p08bd4bd158)" d="M 53.93 41.339869 
L 366.25 41.339869 
" style="fill:none;stroke:#b0b0b0;stroke-linecap:square;stroke-width:0.8;"/>
     </g>
     <g id="line2d_22">
      <g>
       <use style="stroke:#000000;stroke-width:0.8;" x="53.93" xlink:href="#me4657f5ceb" y="41.339869"/>
      </g>
     </g>
     <g id="text_12">
      <!-- 0.50 -->
      <g transform="translate(24.664375 45.139088)scale(0.1 -0.1)">
       <use xlink:href="#DejaVuSans-30"/>
       <use x="63.623047" xlink:href="#DejaVuSans-2e"/>
       <use x="95.410156" xlink:href="#DejaVuSans-35"/>
       <use x="159.033203" xlink:href="#DejaVuSans-30"/>
      </g>
     </g>
    </g>
    <g id="text_13">
     <!-- Test Accuracy -->
     <g transform="translate(18.584688 199.5225)rotate(-90)scale(0.1 -0.1)">
      <defs>
       <path d="M -19 4666 
L 3928 4666 
L 3928 4134 
L 2272 4134 
L 2272 0 
L 1638 0 
L 1638 4134 
L -19 4134 
L -19 4666 
z
" id="DejaVuSans-54" transform="scale(0.015625)"/>
       <path d="M 3597 1894 
L 3597 1613 
L 953 1613 
Q 991 1019 1311 708 
Q 1631 397 2203 397 
Q 2534 397 2845 478 
Q 3156 559 3463 722 
L 3463 178 
Q 3153 47 2828 -22 
Q 2503 -91 2169 -91 
Q 1331 -91 842 396 
Q 353 884 353 1716 
Q 353 2575 817 3079 
Q 1281 3584 2069 3584 
Q 2775 3584 3186 3129 
Q 3597 2675 3597 1894 
z
M 3022 2063 
Q 3016 2534 2758 2815 
Q 2500 3097 2075 3097 
Q 1594 3097 1305 2825 
Q 1016 2553 972 2059 
L 3022 2063 
z
" id="DejaVuSans-65" transform="scale(0.015625)"/>
       <path d="M 2188 4044 
L 1331 1722 
L 3047 1722 
L 2188 4044 
z
M 1831 4666 
L 2547 4666 
L 4325 0 
L 3669 0 
L 3244 1197 
L 1141 1197 
L 716 0 
L 50 0 
L 1831 4666 
z
" id="DejaVuSans-41" transform="scale(0.015625)"/>
       <path d="M 2631 2963 
Q 2534 3019 2420 3045 
Q 2306 3072 2169 3072 
Q 1681 3072 1420 2755 
Q 1159 2438 1159 1844 
L 1159 0 
L 581 0 
L 581 3500 
L 1159 3500 
L 1159 2956 
Q 1341 3275 1631 3429 
Q 1922 3584 2338 3584 
Q 2397 3584 2469 3576 
Q 2541 3569 2628 3553 
L 2631 2963 
z
" id="DejaVuSans-72" transform="scale(0.015625)"/>
       <path d="M 2059 -325 
Q 1816 -950 1584 -1140 
Q 1353 -1331 966 -1331 
L 506 -1331 
L 506 -850 
L 844 -850 
Q 1081 -850 1212 -737 
Q 1344 -625 1503 -206 
L 1606 56 
L 191 3500 
L 800 3500 
L 1894 763 
L 2988 3500 
L 3597 3500 
L 2059 -325 
z
" id="DejaVuSans-79" transform="scale(0.015625)"/>
      </defs>
      <use xlink:href="#DejaVuSans-54"/>
      <use x="44.083984" xlink:href="#DejaVuSans-65"/>
      <use x="105.607422" xlink:href="#DejaVuSans-73"/>
      <use x="157.707031" xlink:href="#DejaVuSans-74"/>
      <use x="196.916016" xlink:href="#DejaVuSans-20"/>
      <use x="228.703125" xlink:href="#DejaVuSans-41"/>
      <use x="295.361328" xlink:href="#DejaVuSans-63"/>
      <use x="350.341797" xlink:href="#DejaVuSans-63"/>
      <use x="405.322266" xlink:href="#DejaVuSans-75"/>
      <use x="468.701172" xlink:href="#DejaVuSans-72"/>
      <use x="509.814453" xlink:href="#DejaVuSans-61"/>
      <use x="571.09375" xlink:href="#DejaVuSans-63"/>
      <use x="626.074219" xlink:href="#DejaVuSans-79"/>
     </g>
    </g>
   </g>
   <g id="line2d_23">
    <path clip-path="url(#p08bd4bd158)" d="M 68.126364 276.20471 
L 73.920798 183.280818 
L 79.715232 146.191209 
L 85.509666 122.60641 
L 91.3041 110.063143 
L 97.098534 101.474085 
L 102.892968 96.850038 
L 108.687403 91.750622 
L 114.481837 90.216475 
L 120.276271 85.095452 
L 126.070705 86.370306 
L 131.865139 81.152047 
L 137.659573 80.84954 
L 143.454007 81.27089 
L 149.248442 79.542274 
L 155.042876 75.836554 
L 160.83731 75.220735 
L 166.631744 73.664981 
L 172.426178 70.48865 
L 178.220612 68.489938 
L 184.015046 67.074634 
L 189.809481 66.426403 
L 195.603915 64.795022 
L 201.398349 64.190007 
L 207.192783 64.330457 
L 212.987217 62.353353 
L 218.781651 59.954899 
L 224.576085 59.630783 
L 230.370519 57.524033 
L 236.164954 58.690849 
L 241.959388 58.431556 
L 247.753822 55.179598 
L 253.548256 54.974325 
L 259.34269 54.023586 
L 265.137124 52.586675 
L 270.931558 53.396963 
L 276.725993 50.771628 
L 282.520427 52.565067 
L 288.314861 52.975613 
L 294.109295 53.310532 
L 299.903729 52.705517 
L 305.698163 51.376644 
L 311.492597 48.967386 
L 317.287032 50.004555 
L 323.081466 49.475167 
L 328.8759 48.254332 
L 334.670334 50.015359 
L 340.464768 50.447513 
L 346.259202 46.493305 
L 352.053636 49.010601 
" style="fill:none;stroke:#1f77b4;stroke-linecap:square;stroke-width:1.5;"/>
   </g>
   <g id="line2d_24">
    <path clip-path="url(#p08bd4bd158)" d="M 68.126364 269.009347 
L 73.920798 186.921714 
L 79.715232 151.377056 
L 85.509666 125.210137 
L 91.3041 115.411048 
L 97.098534 108.993562 
L 102.892968 99.723861 
L 108.687403 101.582123 
L 114.481837 97.228172 
L 120.276271 93.87898 
L 126.070705 92.031522 
L 131.865139 89.859948 
L 137.659573 86.262267 
L 143.454007 87.299437 
L 149.248442 83.777382 
L 155.042876 83.950244 
L 160.83731 82.135198 
L 166.631744 78.440282 
L 172.426178 77.349093 
L 178.220612 77.997324 
L 184.015046 75.955397 
L 189.809481 74.799385 
L 195.603915 73.783823 
L 201.398349 71.1909 
L 207.192783 72.346912 
L 212.987217 72.962731 
L 218.781651 68.976111 
L 224.576085 68.425115 
L 230.370519 66.534442 
L 236.164954 66.426403 
L 241.959388 67.798492 
L 247.753822 64.903061 
L 253.548256 67.712061 
L 259.34269 64.460103 
L 265.137124 64.935472 
L 270.931558 65.151549 
L 276.725993 62.050845 
L 282.520427 62.839526 
L 288.314861 62.385764 
L 294.109295 62.925957 
L 299.903729 60.88403 
L 305.698163 60.894833 
L 311.492597 59.684802 
L 317.287032 63.228464 
L 323.081466 58.075029 
L 328.8759 57.091879 
L 334.670334 57.45921 
L 340.464768 59.825252 
L 346.259202 55.125579 
L 352.053636 53.667059 
" style="fill:none;stroke:#ff7f0e;stroke-linecap:square;stroke-width:1.5;"/>
   </g>
   <g id="line2d_25">
    <path clip-path="url(#p08bd4bd158)" d="M 68.126364 275.567283 
L 73.920798 206.87642 
L 79.715232 167.150673 
L 85.509666 138.909416 
L 91.3041 119.030337 
L 97.098534 103.116269 
L 102.892968 97.087722 
L 108.687403 95.326695 
L 114.481837 88.509468 
L 120.276271 84.447221 
L 126.070705 80.060859 
L 131.865139 75.933789 
L 137.659573 77.024978 
L 143.454007 74.399643 
L 149.248442 71.136881 
L 155.042876 68.435919 
L 160.83731 66.199523 
L 166.631744 68.587173 
L 172.426178 64.449299 
L 178.220612 63.963126 
L 184.015046 60.387053 
L 189.809481 59.468726 
L 195.603915 59.112199 
L 201.398349 57.199918 
L 207.192783 58.031814 
L 212.987217 56.670529 
L 218.781651 54.682621 
L 224.576085 54.444936 
L 230.370519 53.904744 
L 236.164954 53.667059 
L 241.959388 53.440179 
L 247.753822 52.435421 
L 253.548256 51.290213 
L 259.34269 50.274651 
L 265.137124 47.681728 
L 270.931558 48.070666 
L 276.725993 45.888289 
L 282.520427 45.596585 
L 288.314861 45.186039 
L 294.109295 46.385266 
L 299.903729 45.358901 
L 305.698163 43.036074 
L 311.492597 44.894335 
L 317.287032 40.680835 
L 323.081466 43.662697 
L 328.8759 40.842892 
L 334.670334 41.642377 
L 340.464768 40.745658 
L 346.259202 40.507973 
L 352.053636 40.540385 
" style="fill:none;stroke:#2ca02c;stroke-linecap:square;stroke-width:1.5;"/>
   </g>
   <g id="line2d_26">
    <path clip-path="url(#p08bd4bd158)" d="M 68.126364 273.039182 
L 73.920798 186.575991 
L 79.715232 155.504126 
L 85.509666 136.359708 
L 91.3041 123.751618 
L 97.098534 112.86134 
L 102.892968 106.789577 
L 108.687403 102.846173 
L 114.481837 99.302511 
L 120.276271 97.584699 
L 126.070705 95.078207 
L 131.865139 93.576472 
L 137.659573 91.15641 
L 143.454007 89.438598 
L 149.248442 89.859948 
L 155.042876 88.920014 
L 160.83731 88.131333 
L 166.631744 86.283875 
L 172.426178 83.442463 
L 178.220612 83.993459 
L 184.015046 82.135198 
L 189.809481 81.962336 
L 195.603915 80.503817 
L 201.398349 79.931213 
L 207.192783 79.272178 
L 212.987217 78.072951 
L 218.781651 77.392308 
L 224.576085 75.480027 
L 230.370519 74.5617 
L 236.164954 72.811477 
L 241.959388 72.217266 
L 247.753822 73.35167 
L 253.548256 72.044404 
L 259.34269 71.644662 
L 265.137124 70.413023 
L 270.931558 69.548715 
L 276.725993 70.175338 
L 282.520427 68.32788 
L 288.314861 66.64248 
L 294.109295 66.026661 
L 299.903729 65.475665 
L 305.698163 66.275149 
L 311.492597 65.961838 
L 317.287032 65.540488 
L 323.081466 63.509364 
L 328.8759 63.736245 
L 334.670334 62.828722 
L 340.464768 61.456633 
L 346.259202 61.218949 
L 352.053636 61.046087 
" style="fill:none;stroke:#d62728;stroke-linecap:square;stroke-width:1.5;"/>
   </g>
   <g id="patch_3">
    <path d="M 53.93 303.64 
L 53.93 26.88 
" style="fill:none;stroke:#000000;stroke-linecap:square;stroke-linejoin:miter;stroke-width:0.8;"/>
   </g>
   <g id="patch_4">
    <path d="M 366.25 303.64 
L 366.25 26.88 
" style="fill:none;stroke:#000000;stroke-linecap:square;stroke-linejoin:miter;stroke-width:0.8;"/>
   </g>
   <g id="patch_5">
    <path d="M 53.93 303.64 
L 366.25 303.64 
" style="fill:none;stroke:#000000;stroke-linecap:square;stroke-linejoin:miter;stroke-width:0.8;"/>
   </g>
   <g id="patch_6">
    <path d="M 53.93 26.88 
L 366.25 26.88 
" style="fill:none;stroke:#000000;stroke-linecap:square;stroke-linejoin:miter;stroke-width:0.8;"/>
   </g>
   <g id="text_14">
    <!-- Shakespeare Local Rounds 05 -->
    <g transform="translate(120.508125 20.88)scale(0.12 -0.12)">
     <defs>
      <path d="M 3425 4513 
L 3425 3897 
Q 3066 4069 2747 4153 
Q 2428 4238 2131 4238 
Q 1616 4238 1336 4038 
Q 1056 3838 1056 3469 
Q 1056 3159 1242 3001 
Q 1428 2844 1947 2747 
L 2328 2669 
Q 3034 2534 3370 2195 
Q 3706 1856 3706 1288 
Q 3706 609 3251 259 
Q 2797 -91 1919 -91 
Q 1588 -91 1214 -16 
Q 841 59 441 206 
L 441 856 
Q 825 641 1194 531 
Q 1563 422 1919 422 
Q 2459 422 2753 634 
Q 3047 847 3047 1241 
Q 3047 1584 2836 1778 
Q 2625 1972 2144 2069 
L 1759 2144 
Q 1053 2284 737 2584 
Q 422 2884 422 3419 
Q 422 4038 858 4394 
Q 1294 4750 2059 4750 
Q 2388 4750 2728 4690 
Q 3069 4631 3425 4513 
z
" id="DejaVuSans-53" transform="scale(0.015625)"/>
      <path d="M 3513 2113 
L 3513 0 
L 2938 0 
L 2938 2094 
Q 2938 2591 2744 2837 
Q 2550 3084 2163 3084 
Q 1697 3084 1428 2787 
Q 1159 2491 1159 1978 
L 1159 0 
L 581 0 
L 581 4863 
L 1159 4863 
L 1159 2956 
Q 1366 3272 1645 3428 
Q 1925 3584 2291 3584 
Q 2894 3584 3203 3211 
Q 3513 2838 3513 2113 
z
" id="DejaVuSans-68" transform="scale(0.015625)"/>
      <path d="M 581 4863 
L 1159 4863 
L 1159 1991 
L 2875 3500 
L 3609 3500 
L 1753 1863 
L 3688 0 
L 2938 0 
L 1159 1709 
L 1159 0 
L 581 0 
L 581 4863 
z
" id="DejaVuSans-6b" transform="scale(0.015625)"/>
      <path d="M 1159 525 
L 1159 -1331 
L 581 -1331 
L 581 3500 
L 1159 3500 
L 1159 2969 
Q 1341 3281 1617 3432 
Q 1894 3584 2278 3584 
Q 2916 3584 3314 3078 
Q 3713 2572 3713 1747 
Q 3713 922 3314 415 
Q 2916 -91 2278 -91 
Q 1894 -91 1617 61 
Q 1341 213 1159 525 
z
M 3116 1747 
Q 3116 2381 2855 2742 
Q 2594 3103 2138 3103 
Q 1681 3103 1420 2742 
Q 1159 2381 1159 1747 
Q 1159 1113 1420 752 
Q 1681 391 2138 391 
Q 2594 391 2855 752 
Q 3116 1113 3116 1747 
z
" id="DejaVuSans-70" transform="scale(0.015625)"/>
      <path d="M 628 4666 
L 1259 4666 
L 1259 531 
L 3531 531 
L 3531 0 
L 628 0 
L 628 4666 
z
" id="DejaVuSans-4c" transform="scale(0.015625)"/>
     </defs>
     <use xlink:href="#DejaVuSans-53"/>
     <use x="63.476562" xlink:href="#DejaVuSans-68"/>
     <use x="126.855469" xlink:href="#DejaVuSans-61"/>
     <use x="188.134766" xlink:href="#DejaVuSans-6b"/>
     <use x="242.419922" xlink:href="#DejaVuSans-65"/>
     <use x="303.943359" xlink:href="#DejaVuSans-73"/>
     <use x="356.042969" xlink:href="#DejaVuSans-70"/>
     <use x="419.519531" xlink:href="#DejaVuSans-65"/>
     <use x="481.042969" xlink:href="#DejaVuSans-61"/>
     <use x="542.322266" xlink:href="#DejaVuSans-72"/>
     <use x="581.185547" xlink:href="#DejaVuSans-65"/>
     <use x="642.708984" xlink:href="#DejaVuSans-20"/>
     <use x="674.496094" xlink:href="#DejaVuSans-4c"/>
     <use x="728.458984" xlink:href="#DejaVuSans-6f"/>
     <use x="789.640625" xlink:href="#DejaVuSans-63"/>
     <use x="844.621094" xlink:href="#DejaVuSans-61"/>
     <use x="905.900391" xlink:href="#DejaVuSans-6c"/>
     <use x="933.683594" xlink:href="#DejaVuSans-20"/>
     <use x="965.470703" xlink:href="#DejaVuSans-52"/>
     <use x="1030.453125" xlink:href="#DejaVuSans-6f"/>
     <use x="1091.634766" xlink:href="#DejaVuSans-75"/>
     <use x="1155.013672" xlink:href="#DejaVuSans-6e"/>
     <use x="1218.392578" xlink:href="#DejaVuSans-64"/>
     <use x="1281.869141" xlink:href="#DejaVuSans-73"/>
     <use x="1333.96875" xlink:href="#DejaVuSans-20"/>
     <use x="1365.755859" xlink:href="#DejaVuSans-30"/>
     <use x="1429.378906" xlink:href="#DejaVuSans-35"/>
    </g>
   </g>
   <g id="legend_1">
    <g id="patch_7">
     <path d="M 373.25 196.11625 
L 447.821875 196.11625 
Q 449.821875 196.11625 449.821875 194.11625 
L 449.821875 136.40375 
Q 449.821875 134.40375 447.821875 134.40375 
L 373.25 134.40375 
Q 371.25 134.40375 371.25 136.40375 
L 371.25 194.11625 
Q 371.25 196.11625 373.25 196.11625 
z
" style="fill:#ffffff;opacity:0.8;stroke:#cccccc;stroke-linejoin:miter;"/>
    </g>
    <g id="line2d_27">
     <path d="M 375.25 142.502187 
L 395.25 142.502187 
" style="fill:none;stroke:#1f77b4;stroke-linecap:square;stroke-width:1.5;"/>
    </g>
    <g id="line2d_28"/>
    <g id="text_15">
     <!-- FedAvg -->
     <g transform="translate(403.25 146.002187)scale(0.1 -0.1)">
      <defs>
       <path d="M 628 4666 
L 3309 4666 
L 3309 4134 
L 1259 4134 
L 1259 2759 
L 3109 2759 
L 3109 2228 
L 1259 2228 
L 1259 0 
L 628 0 
L 628 4666 
z
" id="DejaVuSans-46" transform="scale(0.015625)"/>
       <path d="M 191 3500 
L 800 3500 
L 1894 563 
L 2988 3500 
L 3597 3500 
L 2284 0 
L 1503 0 
L 191 3500 
z
" id="DejaVuSans-76" transform="scale(0.015625)"/>
       <path d="M 2906 1791 
Q 2906 2416 2648 2759 
Q 2391 3103 1925 3103 
Q 1463 3103 1205 2759 
Q 947 2416 947 1791 
Q 947 1169 1205 825 
Q 1463 481 1925 481 
Q 2391 481 2648 825 
Q 2906 1169 2906 1791 
z
M 3481 434 
Q 3481 -459 3084 -895 
Q 2688 -1331 1869 -1331 
Q 1566 -1331 1297 -1286 
Q 1028 -1241 775 -1147 
L 775 -588 
Q 1028 -725 1275 -790 
Q 1522 -856 1778 -856 
Q 2344 -856 2625 -561 
Q 2906 -266 2906 331 
L 2906 616 
Q 2728 306 2450 153 
Q 2172 0 1784 0 
Q 1141 0 747 490 
Q 353 981 353 1791 
Q 353 2603 747 3093 
Q 1141 3584 1784 3584 
Q 2172 3584 2450 3431 
Q 2728 3278 2906 2969 
L 2906 3500 
L 3481 3500 
L 3481 434 
z
" id="DejaVuSans-67" transform="scale(0.015625)"/>
      </defs>
      <use xlink:href="#DejaVuSans-46"/>
      <use x="52.019531" xlink:href="#DejaVuSans-65"/>
      <use x="113.542969" xlink:href="#DejaVuSans-64"/>
      <use x="177.019531" xlink:href="#DejaVuSans-41"/>
      <use x="239.552734" xlink:href="#DejaVuSans-76"/>
      <use x="298.732422" xlink:href="#DejaVuSans-67"/>
     </g>
    </g>
    <g id="line2d_29">
     <path d="M 375.25 157.180312 
L 395.25 157.180312 
" style="fill:none;stroke:#ff7f0e;stroke-linecap:square;stroke-width:1.5;"/>
    </g>
    <g id="line2d_30"/>
    <g id="text_16">
     <!-- FedMed -->
     <g transform="translate(403.25 160.680312)scale(0.1 -0.1)">
      <defs>
       <path d="M 628 4666 
L 1569 4666 
L 2759 1491 
L 3956 4666 
L 4897 4666 
L 4897 0 
L 4281 0 
L 4281 4097 
L 3078 897 
L 2444 897 
L 1241 4097 
L 1241 0 
L 628 0 
L 628 4666 
z
" id="DejaVuSans-4d" transform="scale(0.015625)"/>
      </defs>
      <use xlink:href="#DejaVuSans-46"/>
      <use x="52.019531" xlink:href="#DejaVuSans-65"/>
      <use x="113.542969" xlink:href="#DejaVuSans-64"/>
      <use x="177.019531" xlink:href="#DejaVuSans-4d"/>
      <use x="263.298828" xlink:href="#DejaVuSans-65"/>
      <use x="324.822266" xlink:href="#DejaVuSans-64"/>
     </g>
    </g>
    <g id="line2d_31">
     <path d="M 375.25 171.858437 
L 395.25 171.858437 
" style="fill:none;stroke:#2ca02c;stroke-linecap:square;stroke-width:1.5;"/>
    </g>
    <g id="line2d_32"/>
    <g id="text_17">
     <!-- FedProx -->
     <g transform="translate(403.25 175.358437)scale(0.1 -0.1)">
      <defs>
       <path d="M 1259 4147 
L 1259 2394 
L 2053 2394 
Q 2494 2394 2734 2622 
Q 2975 2850 2975 3272 
Q 2975 3691 2734 3919 
Q 2494 4147 2053 4147 
L 1259 4147 
z
M 628 4666 
L 2053 4666 
Q 2838 4666 3239 4311 
Q 3641 3956 3641 3272 
Q 3641 2581 3239 2228 
Q 2838 1875 2053 1875 
L 1259 1875 
L 1259 0 
L 628 0 
L 628 4666 
z
" id="DejaVuSans-50" transform="scale(0.015625)"/>
       <path d="M 3513 3500 
L 2247 1797 
L 3578 0 
L 2900 0 
L 1881 1375 
L 863 0 
L 184 0 
L 1544 1831 
L 300 3500 
L 978 3500 
L 1906 2253 
L 2834 3500 
L 3513 3500 
z
" id="DejaVuSans-78" transform="scale(0.015625)"/>
      </defs>
      <use xlink:href="#DejaVuSans-46"/>
      <use x="52.019531" xlink:href="#DejaVuSans-65"/>
      <use x="113.542969" xlink:href="#DejaVuSans-64"/>
      <use x="177.019531" xlink:href="#DejaVuSans-50"/>
      <use x="235.572266" xlink:href="#DejaVuSans-72"/>
      <use x="274.435547" xlink:href="#DejaVuSans-6f"/>
      <use x="332.492188" xlink:href="#DejaVuSans-78"/>
     </g>
    </g>
    <g id="line2d_33">
     <path d="M 375.25 186.536563 
L 395.25 186.536563 
" style="fill:none;stroke:#d62728;stroke-linecap:square;stroke-width:1.5;"/>
    </g>
    <g id="line2d_34"/>
    <g id="text_18">
     <!-- qFedAvg -->
     <g transform="translate(403.25 190.036563)scale(0.1 -0.1)">
      <defs>
       <path d="M 947 1747 
Q 947 1113 1208 752 
Q 1469 391 1925 391 
Q 2381 391 2643 752 
Q 2906 1113 2906 1747 
Q 2906 2381 2643 2742 
Q 2381 3103 1925 3103 
Q 1469 3103 1208 2742 
Q 947 2381 947 1747 
z
M 2906 525 
Q 2725 213 2448 61 
Q 2172 -91 1784 -91 
Q 1150 -91 751 415 
Q 353 922 353 1747 
Q 353 2572 751 3078 
Q 1150 3584 1784 3584 
Q 2172 3584 2448 3432 
Q 2725 3281 2906 2969 
L 2906 3500 
L 3481 3500 
L 3481 -1331 
L 2906 -1331 
L 2906 525 
z
" id="DejaVuSans-71" transform="scale(0.015625)"/>
      </defs>
      <use xlink:href="#DejaVuSans-71"/>
      <use x="63.476562" xlink:href="#DejaVuSans-46"/>
      <use x="115.496094" xlink:href="#DejaVuSans-65"/>
      <use x="177.019531" xlink:href="#DejaVuSans-64"/>
      <use x="240.496094" xlink:href="#DejaVuSans-41"/>
      <use x="303.029297" xlink:href="#DejaVuSans-76"/>
      <use x="362.208984" xlink:href="#DejaVuSans-67"/>
     </g>
    </g>
   </g>
  </g>
 </g>
 <defs>
  <clipPath id="p08bd4bd158">
   <rect height="276.76" width="312.32" x="53.93" y="26.88"/>
  </clipPath>
 </defs>
</svg>
