<?xml version="1.0" encoding="utf-8" standalone="no"?>
<!DOCTYPE svg PUBLIC "-//W3C//DTD SVG 1.1//EN"
  "http://www.w3.org/Graphics/SVG/1.1/DTD/svg11.dtd">
<svg height="345.6pt" version="1.1" viewBox="0 0 460.8 345.6" width="460.8pt" xmlns="http://www.w3.org/2000/svg" xmlns:xlink="http://www.w3.org/1999/xlink">
 <metadata>
  <rdf:RDF xmlns:cc="http://creativecommons.org/ns#" xmlns:dc="http://purl.org/dc/elements/1.1/" xmlns:rdf="http://www.w3.org/1999/02/22-rdf-syntax-ns#">
   <cc:Work>
    <dc:type rdf:resource="http://purl.org/dc/dcmitype/StillImage"/>
    <dc:date>2021-05-07T12:06:47.159192</dc:date>
    <dc:format>image/svg+xml</dc:format>
    <dc:creator>
     <cc:Agent>
      <dc:title>Matplotlib v3.4.1, https://matplotlib.org/</dc:title>
     </cc:Agent>
    </dc:creator>
   </cc:Work>
  </rdf:RDF>
 </metadata>
 <defs>
  <style type="text/css">*{stroke-linecap:butt;stroke-linejoin:round;}</style>
 </defs>
 <g id="figure_1">
  <g id="patch_1">
   <path d="M 0 345.6 
L 460.8 345.6 
L 460.8 0 
L 0 0 
z
" style="fill:#ffffff;"/>
  </g>
  <g id="axes_1">
   <g id="patch_2">
    <path d="M 44.48 303.64 
L 450 303.64 
L 450 32.876829 
L 44.48 32.876829 
z
" style="fill:#ffffff;"/>
   </g>
   <g id="PolyCollection_1">
    <path clip-path="url(#p9074ad846e)" d="M 62.912727 275.496912 
L 62.912727 285.718879 
L 70.436289 245.920234 
L 77.959852 215.723536 
L 85.483414 197.441295 
L 93.006976 184.554912 
L 100.530538 176.528154 
L 108.0541 168.78627 
L 115.577662 159.318382 
L 123.101224 152.950599 
L 130.624787 144.521664 
L 138.148349 142.879447 
L 145.671911 133.914278 
L 153.195473 127.51298 
L 160.719035 126.021578 
L 168.242597 123.357164 
L 175.76616 117.575887 
L 183.289722 113.537372 
L 190.813284 112.029213 
L 198.336846 101.991575 
L 205.860408 100.969378 
L 213.38397 98.874713 
L 220.907532 98.656868 
L 228.431095 95.355675 
L 235.954657 90.378749 
L 243.478219 90.06036 
L 251.001781 88.217055 
L 258.525343 83.156343 
L 266.048905 83.843393 
L 273.572468 81.028162 
L 281.09603 79.570275 
L 288.619592 78.196175 
L 296.143154 74.358747 
L 303.666716 73.051676 
L 311.190278 71.493245 
L 318.71384 69.683454 
L 326.237403 68.443412 
L 333.760965 64.522198 
L 341.284527 65.226006 
L 348.808089 64.103265 
L 356.331651 59.109582 
L 363.855213 61.053432 
L 371.378776 59.461486 
L 378.902338 58.37226 
L 386.4259 56.445168 
L 393.949462 54.652134 
L 401.473024 51.485 
L 408.996586 50.831464 
L 416.520148 52.004477 
L 424.043711 50.177928 
L 431.567273 47.865418 
L 431.567273 45.184246 
L 431.567273 45.184246 
L 424.043711 47.144853 
L 416.520148 47.781631 
L 408.996586 48.8541 
L 401.473024 51.23364 
L 393.949462 51.568786 
L 386.4259 53.730481 
L 378.902338 52.105021 
L 371.378776 55.892176 
L 363.855213 57.43385 
L 356.331651 58.271716 
L 348.808089 60.148536 
L 341.284527 61.271277 
L 333.760965 63.516759 
L 326.237403 64.203809 
L 318.71384 64.036236 
L 311.190278 68.862345 
L 303.666716 68.711529 
L 296.143154 69.465609 
L 288.619592 70.739165 
L 281.09603 73.437095 
L 273.572468 76.151781 
L 266.048905 76.805317 
L 258.525343 80.760045 
L 251.001781 80.743288 
L 243.478219 83.977452 
L 235.954657 88.451657 
L 228.431095 90.077118 
L 220.907532 89.423582 
L 213.38397 94.668624 
L 205.860408 98.036847 
L 198.336846 100.366115 
L 190.813284 103.952182 
L 183.289722 107.72258 
L 175.76616 114.643355 
L 168.242597 116.486661 
L 160.719035 121.999821 
L 153.195473 126.792415 
L 145.671911 128.417876 
L 138.148349 135.65704 
L 130.624787 143.650284 
L 123.101224 151.945159 
L 115.577662 157.843737 
L 108.0541 165.401291 
L 100.530538 169.707923 
L 93.006976 184.052193 
L 85.483414 196.737487 
L 77.959852 211.617991 
L 70.436289 244.177472 
L 62.912727 275.496912 
z
" style="fill:#1f77b4;fill-opacity:0.5;"/>
   </g>
   <g id="PolyCollection_2">
    <path clip-path="url(#p9074ad846e)" d="M 62.912727 280.808983 
L 62.912727 291.232039 
L 70.436289 247.042975 
L 77.959852 226.53201 
L 85.483414 204.328555 
L 93.006976 193.268721 
L 100.530538 188.459369 
L 108.0541 171.735559 
L 115.577662 166.088341 
L 123.101224 156.369093 
L 130.624787 154.894448 
L 138.148349 146.18064 
L 145.671911 142.426999 
L 153.195473 137.78522 
L 160.719035 133.311014 
L 168.242597 126.289696 
L 175.76616 122.552812 
L 183.289722 117.844004 
L 190.813284 117.810489 
L 198.336846 112.749777 
L 205.860408 108.72802 
L 213.38397 105.259253 
L 220.907532 105.259253 
L 228.431095 99.746094 
L 235.954657 98.237935 
L 243.478219 95.808123 
L 251.001781 93.797244 
L 258.525343 91.333917 
L 266.048905 89.809 
L 273.572468 89.289523 
L 281.09603 85.385067 
L 288.619592 83.273644 
L 296.143154 81.29628 
L 303.666716 80.592472 
L 311.190278 81.815757 
L 318.71384 76.989647 
L 326.237403 77.592911 
L 333.760965 74.375505 
L 341.284527 74.727409 
L 348.808089 73.83927 
L 356.331651 70.990525 
L 363.855213 69.365065 
L 371.378776 72.280839 
L 378.902338 67.70609 
L 386.4259 66.030357 
L 393.949462 63.734604 
L 401.473024 65.678453 
L 408.996586 63.600545 
L 416.520148 64.002721 
L 424.043711 60.835587 
L 431.567273 60.869101 
L 431.567273 58.539833 
L 431.567273 58.539833 
L 424.043711 60.014478 
L 416.520148 61.673453 
L 408.996586 62.008599 
L 401.473024 63.030796 
L 393.949462 63.047553 
L 386.4259 65.226006 
L 378.902338 65.477365 
L 371.378776 67.337428 
L 363.855213 68.728286 
L 356.331651 69.348307 
L 348.808089 73.286279 
L 341.284527 73.805756 
L 333.760965 74.124145 
L 326.237403 75.598789 
L 318.71384 75.548517 
L 311.190278 78.095631 
L 303.666716 79.469731 
L 296.143154 80.877347 
L 288.619592 82.871468 
L 281.09603 85.368309 
L 273.572468 86.608351 
L 266.048905 89.105193 
L 258.525343 90.227934 
L 251.001781 92.875591 
L 243.478219 94.165905 
L 235.954657 94.685382 
L 228.431095 99.226617 
L 220.907532 100.567203 
L 213.38397 105.208982 
L 205.860408 107.789609 
L 198.336846 111.459463 
L 190.813284 113.621158 
L 183.289722 117.089924 
L 175.76616 120.776536 
L 168.242597 125.334528 
L 160.719035 126.909717 
L 153.195473 134.282939 
L 145.671911 138.070095 
L 138.148349 143.8011 
L 130.624787 146.834175 
L 123.101224 154.659846 
L 115.577662 165.233717 
L 108.0541 170.864178 
L 100.530538 179.510958 
L 93.006976 191.525959 
L 85.483414 199.552718 
L 77.959852 222.409708 
L 70.436289 246.774858 
L 62.912727 280.808983 
z
" style="fill:#ff7f0e;fill-opacity:0.5;"/>
   </g>
   <g id="PolyCollection_3">
    <path clip-path="url(#p9074ad846e)" d="M 62.912727 276.318021 
L 62.912727 286.104298 
L 70.436289 248.115444 
L 77.959852 230.151592 
L 85.483414 218.806883 
L 93.006976 205.065877 
L 100.530538 189.313992 
L 108.0541 174.383216 
L 115.577662 163.206081 
L 123.101224 159.95516 
L 130.624787 152.464636 
L 138.148349 149.917523 
L 145.671911 139.963672 
L 153.195473 135.941914 
L 160.719035 132.623964 
L 168.242597 130.931474 
L 175.76616 118.346724 
L 183.289722 116.821807 
L 190.813284 114.023334 
L 198.336846 109.381555 
L 205.860408 107.420948 
L 213.38397 102.226178 
L 220.907532 100.265571 
L 228.431095 96.914106 
L 235.954657 94.63511 
L 243.478219 91.367432 
L 251.001781 91.635549 
L 258.525343 86.289962 
L 266.048905 85.787243 
L 273.572468 83.441217 
L 281.09603 79.335673 
L 288.619592 79.151342 
L 296.143154 76.202053 
L 303.666716 78.062116 
L 311.190278 72.632743 
L 318.71384 71.593789 
L 326.237403 69.817512 
L 333.760965 70.655379 
L 341.284527 65.678453 
L 348.808089 64.287595 
L 356.331651 62.863223 
L 363.855213 63.600545 
L 371.378776 60.718285 
L 378.902338 58.472804 
L 386.4259 59.12634 
L 393.949462 56.579226 
L 401.473024 56.49544 
L 408.996586 55.590544 
L 416.520148 54.467803 
L 424.043711 54.1159 
L 431.567273 51.334184 
L 431.567273 48.35138 
L 431.567273 48.35138 
L 424.043711 47.513514 
L 416.520148 49.390334 
L 408.996586 50.915251 
L 401.473024 52.105021 
L 393.949462 54.55159 
L 386.4259 52.35638 
L 378.902338 58.288473 
L 371.378776 56.461925 
L 363.855213 58.472804 
L 356.331651 59.578787 
L 348.808089 62.008599 
L 341.284527 62.176173 
L 333.760965 65.711968 
L 326.237403 65.812512 
L 318.71384 68.175295 
L 311.190278 70.08563 
L 303.666716 73.068433 
L 296.143154 71.493245 
L 288.619592 75.732848 
L 281.09603 77.257764 
L 273.572468 78.631865 
L 266.048905 80.659501 
L 258.525343 84.748288 
L 251.001781 87.664063 
L 243.478219 90.395507 
L 235.954657 91.685821 
L 228.431095 93.177223 
L 220.907532 97.500612 
L 213.38397 98.170905 
L 205.860408 103.550006 
L 198.336846 104.974379 
L 190.813284 108.208543 
L 183.289722 113.068167 
L 175.76616 118.028335 
L 168.242597 124.161515 
L 160.719035 124.999382 
L 153.195473 130.462269 
L 145.671911 135.975429 
L 138.148349 143.566497 
L 130.624787 149.532104 
L 123.101224 157.709679 
L 115.577662 159.569742 
L 108.0541 170.177128 
L 100.530538 186.146858 
L 93.006976 195.698533 
L 85.483414 201.597111 
L 77.959852 221.588599 
L 70.436289 241.764418 
L 62.912727 276.318021 
z
" style="fill:#2ca02c;fill-opacity:0.5;"/>
   </g>
   <g id="PolyCollection_4">
    <path clip-path="url(#p9074ad846e)" d="M 62.912727 281.847938 
L 62.912727 291.332583 
L 70.436289 246.422954 
L 77.959852 222.945942 
L 85.483414 200.910061 
L 93.006976 194.676336 
L 100.530538 174.115099 
L 108.0541 169.406291 
L 115.577662 161.128173 
L 123.101224 149.515347 
L 130.624787 146.348213 
L 138.148349 141.153442 
L 145.671911 134.919718 
L 153.195473 127.697311 
L 160.719035 125.518859 
L 168.242597 119.754339 
L 175.76616 116.989381 
L 183.289722 113.822246 
L 190.813284 108.560446 
L 198.336846 106.800927 
L 205.860408 103.39919 
L 213.38397 101.136952 
L 220.907532 97.115194 
L 228.431095 93.277767 
L 235.954657 90.043603 
L 243.478219 87.731092 
L 251.001781 86.909983 
L 258.525343 84.195297 
L 266.048905 81.111949 
L 273.572468 81.145464 
L 281.09603 79.419459 
L 288.619592 78.782681 
L 296.143154 76.922618 
L 303.666716 75.062555 
L 311.190278 73.721969 
L 318.71384 72.247325 
L 326.237403 69.247763 
L 333.760965 68.678014 
L 341.284527 67.287156 
L 348.808089 65.829269 
L 356.331651 64.170294 
L 363.855213 62.796194 
L 371.378776 60.684771 
L 378.902338 59.81339 
L 386.4259 57.467364 
L 393.949462 57.132218 
L 401.473024 55.004038 
L 408.996586 53.127217 
L 416.520148 52.105021 
L 424.043711 50.613619 
L 431.567273 49.97684 
L 431.567273 49.306547 
L 431.567273 49.306547 
L 424.043711 48.669769 
L 416.520148 51.501757 
L 408.996586 51.954205 
L 401.473024 52.17205 
L 393.949462 53.043431 
L 386.4259 54.886736 
L 378.902338 56.612741 
L 371.378776 57.350063 
L 363.855213 58.673892 
L 356.331651 59.99772 
L 348.808089 61.706967 
L 341.284527 60.533955 
L 333.760965 63.952449 
L 326.237403 66.181173 
L 318.71384 66.968767 
L 311.190278 69.314793 
L 303.666716 70.571592 
L 296.143154 73.58791 
L 288.619592 73.671697 
L 281.09603 75.950693 
L 273.572468 77.341551 
L 266.048905 80.994648 
L 258.525343 81.73197 
L 251.001781 85.385067 
L 243.478219 87.563519 
L 235.954657 87.898665 
L 228.431095 92.858833 
L 220.907532 95.875152 
L 213.38397 98.120633 
L 205.860408 100.768291 
L 198.336846 104.136513 
L 190.813284 105.84576 
L 183.289722 111.710823 
L 175.76616 114.995259 
L 168.242597 119.553251 
L 160.719035 122.334967 
L 153.195473 126.272938 
L 145.671911 133.042897 
L 138.148349 140.483149 
L 130.624787 140.91884 
L 123.101224 146.834175 
L 115.577662 155.413925 
L 108.0541 164.747755 
L 100.530538 172.070706 
L 93.006976 182.37646 
L 85.483414 198.681337 
L 77.959852 217.064122 
L 70.436289 236.73722 
L 62.912727 281.847938 
z
" style="fill:#d62728;fill-opacity:0.5;"/>
   </g>
   <g id="matplotlib.axis_1">
    <g id="xtick_1">
     <g id="line2d_1">
      <defs>
       <path d="M 0 0 
L 0 3.5 
" id="m9d95e438fe" style="stroke:#000000;stroke-width:0.8;"/>
      </defs>
      <g>
       <use style="stroke:#000000;stroke-width:0.8;" x="62.912727" xlink:href="#m9d95e438fe" y="303.64"/>
      </g>
     </g>
     <g id="text_1">
      <!-- 0 -->
      <g transform="translate(59.731477 318.238437)scale(0.1 -0.1)">
       <defs>
        <path d="M 2034 4250 
Q 1547 4250 1301 3770 
Q 1056 3291 1056 2328 
Q 1056 1369 1301 889 
Q 1547 409 2034 409 
Q 2525 409 2770 889 
Q 3016 1369 3016 2328 
Q 3016 3291 2770 3770 
Q 2525 4250 2034 4250 
z
M 2034 4750 
Q 2819 4750 3233 4129 
Q 3647 3509 3647 2328 
Q 3647 1150 3233 529 
Q 2819 -91 2034 -91 
Q 1250 -91 836 529 
Q 422 1150 422 2328 
Q 422 3509 836 4129 
Q 1250 4750 2034 4750 
z
" id="DejaVuSans-30" transform="scale(0.015625)"/>
       </defs>
       <use xlink:href="#DejaVuSans-30"/>
      </g>
     </g>
    </g>
    <g id="xtick_2">
     <g id="line2d_2">
      <g>
       <use style="stroke:#000000;stroke-width:0.8;" x="138.148349" xlink:href="#m9d95e438fe" y="303.64"/>
      </g>
     </g>
     <g id="text_2">
      <!-- 10 -->
      <g transform="translate(131.785849 318.238437)scale(0.1 -0.1)">
       <defs>
        <path d="M 794 531 
L 1825 531 
L 1825 4091 
L 703 3866 
L 703 4441 
L 1819 4666 
L 2450 4666 
L 2450 531 
L 3481 531 
L 3481 0 
L 794 0 
L 794 531 
z
" id="DejaVuSans-31" transform="scale(0.015625)"/>
       </defs>
       <use xlink:href="#DejaVuSans-31"/>
       <use x="63.623047" xlink:href="#DejaVuSans-30"/>
      </g>
     </g>
    </g>
    <g id="xtick_3">
     <g id="line2d_3">
      <g>
       <use style="stroke:#000000;stroke-width:0.8;" x="213.38397" xlink:href="#m9d95e438fe" y="303.64"/>
      </g>
     </g>
     <g id="text_3">
      <!-- 20 -->
      <g transform="translate(207.02147 318.238437)scale(0.1 -0.1)">
       <defs>
        <path d="M 1228 531 
L 3431 531 
L 3431 0 
L 469 0 
L 469 531 
Q 828 903 1448 1529 
Q 2069 2156 2228 2338 
Q 2531 2678 2651 2914 
Q 2772 3150 2772 3378 
Q 2772 3750 2511 3984 
Q 2250 4219 1831 4219 
Q 1534 4219 1204 4116 
Q 875 4013 500 3803 
L 500 4441 
Q 881 4594 1212 4672 
Q 1544 4750 1819 4750 
Q 2544 4750 2975 4387 
Q 3406 4025 3406 3419 
Q 3406 3131 3298 2873 
Q 3191 2616 2906 2266 
Q 2828 2175 2409 1742 
Q 1991 1309 1228 531 
z
" id="DejaVuSans-32" transform="scale(0.015625)"/>
       </defs>
       <use xlink:href="#DejaVuSans-32"/>
       <use x="63.623047" xlink:href="#DejaVuSans-30"/>
      </g>
     </g>
    </g>
    <g id="xtick_4">
     <g id="line2d_4">
      <g>
       <use style="stroke:#000000;stroke-width:0.8;" x="288.619592" xlink:href="#m9d95e438fe" y="303.64"/>
      </g>
     </g>
     <g id="text_4">
      <!-- 30 -->
      <g transform="translate(282.257092 318.238437)scale(0.1 -0.1)">
       <defs>
        <path d="M 2597 2516 
Q 3050 2419 3304 2112 
Q 3559 1806 3559 1356 
Q 3559 666 3084 287 
Q 2609 -91 1734 -91 
Q 1441 -91 1130 -33 
Q 819 25 488 141 
L 488 750 
Q 750 597 1062 519 
Q 1375 441 1716 441 
Q 2309 441 2620 675 
Q 2931 909 2931 1356 
Q 2931 1769 2642 2001 
Q 2353 2234 1838 2234 
L 1294 2234 
L 1294 2753 
L 1863 2753 
Q 2328 2753 2575 2939 
Q 2822 3125 2822 3475 
Q 2822 3834 2567 4026 
Q 2313 4219 1838 4219 
Q 1578 4219 1281 4162 
Q 984 4106 628 3988 
L 628 4550 
Q 988 4650 1302 4700 
Q 1616 4750 1894 4750 
Q 2613 4750 3031 4423 
Q 3450 4097 3450 3541 
Q 3450 3153 3228 2886 
Q 3006 2619 2597 2516 
z
" id="DejaVuSans-33" transform="scale(0.015625)"/>
       </defs>
       <use xlink:href="#DejaVuSans-33"/>
       <use x="63.623047" xlink:href="#DejaVuSans-30"/>
      </g>
     </g>
    </g>
    <g id="xtick_5">
     <g id="line2d_5">
      <g>
       <use style="stroke:#000000;stroke-width:0.8;" x="363.855213" xlink:href="#m9d95e438fe" y="303.64"/>
      </g>
     </g>
     <g id="text_5">
      <!-- 40 -->
      <g transform="translate(357.492713 318.238437)scale(0.1 -0.1)">
       <defs>
        <path d="M 2419 4116 
L 825 1625 
L 2419 1625 
L 2419 4116 
z
M 2253 4666 
L 3047 4666 
L 3047 1625 
L 3713 1625 
L 3713 1100 
L 3047 1100 
L 3047 0 
L 2419 0 
L 2419 1100 
L 313 1100 
L 313 1709 
L 2253 4666 
z
" id="DejaVuSans-34" transform="scale(0.015625)"/>
       </defs>
       <use xlink:href="#DejaVuSans-34"/>
       <use x="63.623047" xlink:href="#DejaVuSans-30"/>
      </g>
     </g>
    </g>
    <g id="xtick_6">
     <g id="line2d_6">
      <g>
       <use style="stroke:#000000;stroke-width:0.8;" x="439.090835" xlink:href="#m9d95e438fe" y="303.64"/>
      </g>
     </g>
     <g id="text_6">
      <!-- 50 -->
      <g transform="translate(432.728335 318.238437)scale(0.1 -0.1)">
       <defs>
        <path d="M 691 4666 
L 3169 4666 
L 3169 4134 
L 1269 4134 
L 1269 2991 
Q 1406 3038 1543 3061 
Q 1681 3084 1819 3084 
Q 2600 3084 3056 2656 
Q 3513 2228 3513 1497 
Q 3513 744 3044 326 
Q 2575 -91 1722 -91 
Q 1428 -91 1123 -41 
Q 819 9 494 109 
L 494 744 
Q 775 591 1075 516 
Q 1375 441 1709 441 
Q 2250 441 2565 725 
Q 2881 1009 2881 1497 
Q 2881 1984 2565 2268 
Q 2250 2553 1709 2553 
Q 1456 2553 1204 2497 
Q 953 2441 691 2322 
L 691 4666 
z
" id="DejaVuSans-35" transform="scale(0.015625)"/>
       </defs>
       <use xlink:href="#DejaVuSans-35"/>
       <use x="63.623047" xlink:href="#DejaVuSans-30"/>
      </g>
     </g>
    </g>
    <g id="text_7">
     <!-- Global Communication Rounds -->
     <g transform="translate(170.278281 331.916562)scale(0.1 -0.1)">
      <defs>
       <path d="M 3809 666 
L 3809 1919 
L 2778 1919 
L 2778 2438 
L 4434 2438 
L 4434 434 
Q 4069 175 3628 42 
Q 3188 -91 2688 -91 
Q 1594 -91 976 548 
Q 359 1188 359 2328 
Q 359 3472 976 4111 
Q 1594 4750 2688 4750 
Q 3144 4750 3555 4637 
Q 3966 4525 4313 4306 
L 4313 3634 
Q 3963 3931 3569 4081 
Q 3175 4231 2741 4231 
Q 1884 4231 1454 3753 
Q 1025 3275 1025 2328 
Q 1025 1384 1454 906 
Q 1884 428 2741 428 
Q 3075 428 3337 486 
Q 3600 544 3809 666 
z
" id="DejaVuSans-47" transform="scale(0.015625)"/>
       <path d="M 603 4863 
L 1178 4863 
L 1178 0 
L 603 0 
L 603 4863 
z
" id="DejaVuSans-6c" transform="scale(0.015625)"/>
       <path d="M 1959 3097 
Q 1497 3097 1228 2736 
Q 959 2375 959 1747 
Q 959 1119 1226 758 
Q 1494 397 1959 397 
Q 2419 397 2687 759 
Q 2956 1122 2956 1747 
Q 2956 2369 2687 2733 
Q 2419 3097 1959 3097 
z
M 1959 3584 
Q 2709 3584 3137 3096 
Q 3566 2609 3566 1747 
Q 3566 888 3137 398 
Q 2709 -91 1959 -91 
Q 1206 -91 779 398 
Q 353 888 353 1747 
Q 353 2609 779 3096 
Q 1206 3584 1959 3584 
z
" id="DejaVuSans-6f" transform="scale(0.015625)"/>
       <path d="M 3116 1747 
Q 3116 2381 2855 2742 
Q 2594 3103 2138 3103 
Q 1681 3103 1420 2742 
Q 1159 2381 1159 1747 
Q 1159 1113 1420 752 
Q 1681 391 2138 391 
Q 2594 391 2855 752 
Q 3116 1113 3116 1747 
z
M 1159 2969 
Q 1341 3281 1617 3432 
Q 1894 3584 2278 3584 
Q 2916 3584 3314 3078 
Q 3713 2572 3713 1747 
Q 3713 922 3314 415 
Q 2916 -91 2278 -91 
Q 1894 -91 1617 61 
Q 1341 213 1159 525 
L 1159 0 
L 581 0 
L 581 4863 
L 1159 4863 
L 1159 2969 
z
" id="DejaVuSans-62" transform="scale(0.015625)"/>
       <path d="M 2194 1759 
Q 1497 1759 1228 1600 
Q 959 1441 959 1056 
Q 959 750 1161 570 
Q 1363 391 1709 391 
Q 2188 391 2477 730 
Q 2766 1069 2766 1631 
L 2766 1759 
L 2194 1759 
z
M 3341 1997 
L 3341 0 
L 2766 0 
L 2766 531 
Q 2569 213 2275 61 
Q 1981 -91 1556 -91 
Q 1019 -91 701 211 
Q 384 513 384 1019 
Q 384 1609 779 1909 
Q 1175 2209 1959 2209 
L 2766 2209 
L 2766 2266 
Q 2766 2663 2505 2880 
Q 2244 3097 1772 3097 
Q 1472 3097 1187 3025 
Q 903 2953 641 2809 
L 641 3341 
Q 956 3463 1253 3523 
Q 1550 3584 1831 3584 
Q 2591 3584 2966 3190 
Q 3341 2797 3341 1997 
z
" id="DejaVuSans-61" transform="scale(0.015625)"/>
       <path id="DejaVuSans-20" transform="scale(0.015625)"/>
       <path d="M 4122 4306 
L 4122 3641 
Q 3803 3938 3442 4084 
Q 3081 4231 2675 4231 
Q 1875 4231 1450 3742 
Q 1025 3253 1025 2328 
Q 1025 1406 1450 917 
Q 1875 428 2675 428 
Q 3081 428 3442 575 
Q 3803 722 4122 1019 
L 4122 359 
Q 3791 134 3420 21 
Q 3050 -91 2638 -91 
Q 1578 -91 968 557 
Q 359 1206 359 2328 
Q 359 3453 968 4101 
Q 1578 4750 2638 4750 
Q 3056 4750 3426 4639 
Q 3797 4528 4122 4306 
z
" id="DejaVuSans-43" transform="scale(0.015625)"/>
       <path d="M 3328 2828 
Q 3544 3216 3844 3400 
Q 4144 3584 4550 3584 
Q 5097 3584 5394 3201 
Q 5691 2819 5691 2113 
L 5691 0 
L 5113 0 
L 5113 2094 
Q 5113 2597 4934 2840 
Q 4756 3084 4391 3084 
Q 3944 3084 3684 2787 
Q 3425 2491 3425 1978 
L 3425 0 
L 2847 0 
L 2847 2094 
Q 2847 2600 2669 2842 
Q 2491 3084 2119 3084 
Q 1678 3084 1418 2786 
Q 1159 2488 1159 1978 
L 1159 0 
L 581 0 
L 581 3500 
L 1159 3500 
L 1159 2956 
Q 1356 3278 1631 3431 
Q 1906 3584 2284 3584 
Q 2666 3584 2933 3390 
Q 3200 3197 3328 2828 
z
" id="DejaVuSans-6d" transform="scale(0.015625)"/>
       <path d="M 544 1381 
L 544 3500 
L 1119 3500 
L 1119 1403 
Q 1119 906 1312 657 
Q 1506 409 1894 409 
Q 2359 409 2629 706 
Q 2900 1003 2900 1516 
L 2900 3500 
L 3475 3500 
L 3475 0 
L 2900 0 
L 2900 538 
Q 2691 219 2414 64 
Q 2138 -91 1772 -91 
Q 1169 -91 856 284 
Q 544 659 544 1381 
z
M 1991 3584 
L 1991 3584 
z
" id="DejaVuSans-75" transform="scale(0.015625)"/>
       <path d="M 3513 2113 
L 3513 0 
L 2938 0 
L 2938 2094 
Q 2938 2591 2744 2837 
Q 2550 3084 2163 3084 
Q 1697 3084 1428 2787 
Q 1159 2491 1159 1978 
L 1159 0 
L 581 0 
L 581 3500 
L 1159 3500 
L 1159 2956 
Q 1366 3272 1645 3428 
Q 1925 3584 2291 3584 
Q 2894 3584 3203 3211 
Q 3513 2838 3513 2113 
z
" id="DejaVuSans-6e" transform="scale(0.015625)"/>
       <path d="M 603 3500 
L 1178 3500 
L 1178 0 
L 603 0 
L 603 3500 
z
M 603 4863 
L 1178 4863 
L 1178 4134 
L 603 4134 
L 603 4863 
z
" id="DejaVuSans-69" transform="scale(0.015625)"/>
       <path d="M 3122 3366 
L 3122 2828 
Q 2878 2963 2633 3030 
Q 2388 3097 2138 3097 
Q 1578 3097 1268 2742 
Q 959 2388 959 1747 
Q 959 1106 1268 751 
Q 1578 397 2138 397 
Q 2388 397 2633 464 
Q 2878 531 3122 666 
L 3122 134 
Q 2881 22 2623 -34 
Q 2366 -91 2075 -91 
Q 1284 -91 818 406 
Q 353 903 353 1747 
Q 353 2603 823 3093 
Q 1294 3584 2113 3584 
Q 2378 3584 2631 3529 
Q 2884 3475 3122 3366 
z
" id="DejaVuSans-63" transform="scale(0.015625)"/>
       <path d="M 1172 4494 
L 1172 3500 
L 2356 3500 
L 2356 3053 
L 1172 3053 
L 1172 1153 
Q 1172 725 1289 603 
Q 1406 481 1766 481 
L 2356 481 
L 2356 0 
L 1766 0 
Q 1100 0 847 248 
Q 594 497 594 1153 
L 594 3053 
L 172 3053 
L 172 3500 
L 594 3500 
L 594 4494 
L 1172 4494 
z
" id="DejaVuSans-74" transform="scale(0.015625)"/>
       <path d="M 2841 2188 
Q 3044 2119 3236 1894 
Q 3428 1669 3622 1275 
L 4263 0 
L 3584 0 
L 2988 1197 
Q 2756 1666 2539 1819 
Q 2322 1972 1947 1972 
L 1259 1972 
L 1259 0 
L 628 0 
L 628 4666 
L 2053 4666 
Q 2853 4666 3247 4331 
Q 3641 3997 3641 3322 
Q 3641 2881 3436 2590 
Q 3231 2300 2841 2188 
z
M 1259 4147 
L 1259 2491 
L 2053 2491 
Q 2509 2491 2742 2702 
Q 2975 2913 2975 3322 
Q 2975 3731 2742 3939 
Q 2509 4147 2053 4147 
L 1259 4147 
z
" id="DejaVuSans-52" transform="scale(0.015625)"/>
       <path d="M 2906 2969 
L 2906 4863 
L 3481 4863 
L 3481 0 
L 2906 0 
L 2906 525 
Q 2725 213 2448 61 
Q 2172 -91 1784 -91 
Q 1150 -91 751 415 
Q 353 922 353 1747 
Q 353 2572 751 3078 
Q 1150 3584 1784 3584 
Q 2172 3584 2448 3432 
Q 2725 3281 2906 2969 
z
M 947 1747 
Q 947 1113 1208 752 
Q 1469 391 1925 391 
Q 2381 391 2643 752 
Q 2906 1113 2906 1747 
Q 2906 2381 2643 2742 
Q 2381 3103 1925 3103 
Q 1469 3103 1208 2742 
Q 947 2381 947 1747 
z
" id="DejaVuSans-64" transform="scale(0.015625)"/>
       <path d="M 2834 3397 
L 2834 2853 
Q 2591 2978 2328 3040 
Q 2066 3103 1784 3103 
Q 1356 3103 1142 2972 
Q 928 2841 928 2578 
Q 928 2378 1081 2264 
Q 1234 2150 1697 2047 
L 1894 2003 
Q 2506 1872 2764 1633 
Q 3022 1394 3022 966 
Q 3022 478 2636 193 
Q 2250 -91 1575 -91 
Q 1294 -91 989 -36 
Q 684 19 347 128 
L 347 722 
Q 666 556 975 473 
Q 1284 391 1588 391 
Q 1994 391 2212 530 
Q 2431 669 2431 922 
Q 2431 1156 2273 1281 
Q 2116 1406 1581 1522 
L 1381 1569 
Q 847 1681 609 1914 
Q 372 2147 372 2553 
Q 372 3047 722 3315 
Q 1072 3584 1716 3584 
Q 2034 3584 2315 3537 
Q 2597 3491 2834 3397 
z
" id="DejaVuSans-73" transform="scale(0.015625)"/>
      </defs>
      <use xlink:href="#DejaVuSans-47"/>
      <use x="77.490234" xlink:href="#DejaVuSans-6c"/>
      <use x="105.273438" xlink:href="#DejaVuSans-6f"/>
      <use x="166.455078" xlink:href="#DejaVuSans-62"/>
      <use x="229.931641" xlink:href="#DejaVuSans-61"/>
      <use x="291.210938" xlink:href="#DejaVuSans-6c"/>
      <use x="318.994141" xlink:href="#DejaVuSans-20"/>
      <use x="350.78125" xlink:href="#DejaVuSans-43"/>
      <use x="420.605469" xlink:href="#DejaVuSans-6f"/>
      <use x="481.787109" xlink:href="#DejaVuSans-6d"/>
      <use x="579.199219" xlink:href="#DejaVuSans-6d"/>
      <use x="676.611328" xlink:href="#DejaVuSans-75"/>
      <use x="739.990234" xlink:href="#DejaVuSans-6e"/>
      <use x="803.369141" xlink:href="#DejaVuSans-69"/>
      <use x="831.152344" xlink:href="#DejaVuSans-63"/>
      <use x="886.132812" xlink:href="#DejaVuSans-61"/>
      <use x="947.412109" xlink:href="#DejaVuSans-74"/>
      <use x="986.621094" xlink:href="#DejaVuSans-69"/>
      <use x="1014.404297" xlink:href="#DejaVuSans-6f"/>
      <use x="1075.585938" xlink:href="#DejaVuSans-6e"/>
      <use x="1138.964844" xlink:href="#DejaVuSans-20"/>
      <use x="1170.751953" xlink:href="#DejaVuSans-52"/>
      <use x="1235.734375" xlink:href="#DejaVuSans-6f"/>
      <use x="1296.916016" xlink:href="#DejaVuSans-75"/>
      <use x="1360.294922" xlink:href="#DejaVuSans-6e"/>
      <use x="1423.673828" xlink:href="#DejaVuSans-64"/>
      <use x="1487.150391" xlink:href="#DejaVuSans-73"/>
     </g>
    </g>
   </g>
   <g id="matplotlib.axis_2">
    <g id="ytick_1">
     <g id="line2d_7">
      <defs>
       <path d="M 0 0 
L -3.5 0 
" id="m9864c2c43d" style="stroke:#000000;stroke-width:0.8;"/>
      </defs>
      <g>
       <use style="stroke:#000000;stroke-width:0.8;" x="44.48" xlink:href="#m9864c2c43d" y="268.408563"/>
      </g>
     </g>
     <g id="text_8">
      <!-- 25 -->
      <g transform="translate(24.755 272.207782)scale(0.1 -0.1)">
       <use xlink:href="#DejaVuSans-32"/>
       <use x="63.623047" xlink:href="#DejaVuSans-35"/>
      </g>
     </g>
    </g>
    <g id="ytick_2">
     <g id="line2d_8">
      <g>
       <use style="stroke:#000000;stroke-width:0.8;" x="44.48" xlink:href="#m9864c2c43d" y="225.087528"/>
      </g>
     </g>
     <g id="text_9">
      <!-- 30 -->
      <g transform="translate(24.755 228.886747)scale(0.1 -0.1)">
       <use xlink:href="#DejaVuSans-33"/>
       <use x="63.623047" xlink:href="#DejaVuSans-30"/>
      </g>
     </g>
    </g>
    <g id="ytick_3">
     <g id="line2d_9">
      <g>
       <use style="stroke:#000000;stroke-width:0.8;" x="44.48" xlink:href="#m9864c2c43d" y="181.766494"/>
      </g>
     </g>
     <g id="text_10">
      <!-- 35 -->
      <g transform="translate(24.755 185.565712)scale(0.1 -0.1)">
       <use xlink:href="#DejaVuSans-33"/>
       <use x="63.623047" xlink:href="#DejaVuSans-35"/>
      </g>
     </g>
    </g>
    <g id="ytick_4">
     <g id="line2d_10">
      <g>
       <use style="stroke:#000000;stroke-width:0.8;" x="44.48" xlink:href="#m9864c2c43d" y="138.445459"/>
      </g>
     </g>
     <g id="text_11">
      <!-- 40 -->
      <g transform="translate(24.755 142.244677)scale(0.1 -0.1)">
       <use xlink:href="#DejaVuSans-34"/>
       <use x="63.623047" xlink:href="#DejaVuSans-30"/>
      </g>
     </g>
    </g>
    <g id="ytick_5">
     <g id="line2d_11">
      <g>
       <use style="stroke:#000000;stroke-width:0.8;" x="44.48" xlink:href="#m9864c2c43d" y="95.124424"/>
      </g>
     </g>
     <g id="text_12">
      <!-- 45 -->
      <g transform="translate(24.755 98.923642)scale(0.1 -0.1)">
       <use xlink:href="#DejaVuSans-34"/>
       <use x="63.623047" xlink:href="#DejaVuSans-35"/>
      </g>
     </g>
    </g>
    <g id="ytick_6">
     <g id="line2d_12">
      <g>
       <use style="stroke:#000000;stroke-width:0.8;" x="44.48" xlink:href="#m9864c2c43d" y="51.803389"/>
      </g>
     </g>
     <g id="text_13">
      <!-- 50 -->
      <g transform="translate(24.755 55.602608)scale(0.1 -0.1)">
       <use xlink:href="#DejaVuSans-35"/>
       <use x="63.623047" xlink:href="#DejaVuSans-30"/>
      </g>
     </g>
    </g>
    <g id="text_14">
     <!-- Test Accuracy -->
     <g transform="translate(18.675313 202.520914)rotate(-90)scale(0.1 -0.1)">
      <defs>
       <path d="M -19 4666 
L 3928 4666 
L 3928 4134 
L 2272 4134 
L 2272 0 
L 1638 0 
L 1638 4134 
L -19 4134 
L -19 4666 
z
" id="DejaVuSans-54" transform="scale(0.015625)"/>
       <path d="M 3597 1894 
L 3597 1613 
L 953 1613 
Q 991 1019 1311 708 
Q 1631 397 2203 397 
Q 2534 397 2845 478 
Q 3156 559 3463 722 
L 3463 178 
Q 3153 47 2828 -22 
Q 2503 -91 2169 -91 
Q 1331 -91 842 396 
Q 353 884 353 1716 
Q 353 2575 817 3079 
Q 1281 3584 2069 3584 
Q 2775 3584 3186 3129 
Q 3597 2675 3597 1894 
z
M 3022 2063 
Q 3016 2534 2758 2815 
Q 2500 3097 2075 3097 
Q 1594 3097 1305 2825 
Q 1016 2553 972 2059 
L 3022 2063 
z
" id="DejaVuSans-65" transform="scale(0.015625)"/>
       <path d="M 2188 4044 
L 1331 1722 
L 3047 1722 
L 2188 4044 
z
M 1831 4666 
L 2547 4666 
L 4325 0 
L 3669 0 
L 3244 1197 
L 1141 1197 
L 716 0 
L 50 0 
L 1831 4666 
z
" id="DejaVuSans-41" transform="scale(0.015625)"/>
       <path d="M 2631 2963 
Q 2534 3019 2420 3045 
Q 2306 3072 2169 3072 
Q 1681 3072 1420 2755 
Q 1159 2438 1159 1844 
L 1159 0 
L 581 0 
L 581 3500 
L 1159 3500 
L 1159 2956 
Q 1341 3275 1631 3429 
Q 1922 3584 2338 3584 
Q 2397 3584 2469 3576 
Q 2541 3569 2628 3553 
L 2631 2963 
z
" id="DejaVuSans-72" transform="scale(0.015625)"/>
       <path d="M 2059 -325 
Q 1816 -950 1584 -1140 
Q 1353 -1331 966 -1331 
L 506 -1331 
L 506 -850 
L 844 -850 
Q 1081 -850 1212 -737 
Q 1344 -625 1503 -206 
L 1606 56 
L 191 3500 
L 800 3500 
L 1894 763 
L 2988 3500 
L 3597 3500 
L 2059 -325 
z
" id="DejaVuSans-79" transform="scale(0.015625)"/>
      </defs>
      <use xlink:href="#DejaVuSans-54"/>
      <use x="44.083984" xlink:href="#DejaVuSans-65"/>
      <use x="105.607422" xlink:href="#DejaVuSans-73"/>
      <use x="157.707031" xlink:href="#DejaVuSans-74"/>
      <use x="196.916016" xlink:href="#DejaVuSans-20"/>
      <use x="228.703125" xlink:href="#DejaVuSans-41"/>
      <use x="295.361328" xlink:href="#DejaVuSans-63"/>
      <use x="350.341797" xlink:href="#DejaVuSans-63"/>
      <use x="405.322266" xlink:href="#DejaVuSans-75"/>
      <use x="468.701172" xlink:href="#DejaVuSans-72"/>
      <use x="509.814453" xlink:href="#DejaVuSans-61"/>
      <use x="571.09375" xlink:href="#DejaVuSans-63"/>
      <use x="626.074219" xlink:href="#DejaVuSans-79"/>
     </g>
    </g>
   </g>
   <g id="line2d_13">
    <path clip-path="url(#p9074ad846e)" d="M 62.912727 280.607896 
L 70.436289 245.048853 
L 77.959852 213.670763 
L 85.483414 197.089391 
L 93.006976 184.303552 
L 100.530538 173.118038 
L 108.0541 167.09378 
L 115.577662 158.58106 
L 123.101224 152.447879 
L 130.624787 144.085974 
L 138.148349 139.268243 
L 145.671911 131.166077 
L 153.195473 127.152698 
L 160.719035 124.010699 
L 168.242597 119.921912 
L 175.76616 116.109621 
L 183.289722 110.629976 
L 190.813284 107.990697 
L 198.336846 101.178845 
L 205.860408 99.503113 
L 213.38397 96.771669 
L 220.907532 94.040225 
L 228.431095 92.716396 
L 235.954657 89.415203 
L 243.478219 87.018906 
L 251.001781 84.480171 
L 258.525343 81.958194 
L 266.048905 80.324355 
L 273.572468 78.589972 
L 281.09603 76.503685 
L 288.619592 74.46767 
L 296.143154 71.912178 
L 303.666716 70.881603 
L 311.190278 70.177795 
L 318.71384 66.859845 
L 326.237403 66.32361 
L 333.760965 64.019478 
L 341.284527 63.248641 
L 348.808089 62.125901 
L 356.331651 58.690649 
L 363.855213 59.243641 
L 371.378776 57.676831 
L 378.902338 55.23864 
L 386.4259 55.087824 
L 393.949462 53.11046 
L 401.473024 51.35932 
L 408.996586 49.842782 
L 416.520148 49.893054 
L 424.043711 48.66139 
L 431.567273 46.524832 
" style="fill:none;stroke:#1f77b4;stroke-linecap:square;stroke-width:1.5;"/>
   </g>
   <g id="line2d_14">
    <path clip-path="url(#p9074ad846e)" d="M 62.912727 286.020511 
L 70.436289 246.908916 
L 77.959852 224.470859 
L 85.483414 201.940636 
L 93.006976 192.39734 
L 100.530538 183.985163 
L 108.0541 171.299869 
L 115.577662 165.661029 
L 123.101224 155.514469 
L 130.624787 150.864312 
L 138.148349 144.99087 
L 145.671911 140.248547 
L 153.195473 136.03408 
L 160.719035 130.110366 
L 168.242597 125.812112 
L 175.76616 121.664674 
L 183.289722 117.466964 
L 190.813284 115.715824 
L 198.336846 112.10462 
L 205.860408 108.258815 
L 213.38397 105.234117 
L 220.907532 102.913228 
L 228.431095 99.486355 
L 235.954657 96.461658 
L 243.478219 94.987014 
L 251.001781 93.336417 
L 258.525343 90.780925 
L 266.048905 89.457097 
L 273.572468 87.948937 
L 281.09603 85.376688 
L 288.619592 83.072556 
L 296.143154 81.086813 
L 303.666716 80.031102 
L 311.190278 79.955694 
L 318.71384 76.269082 
L 326.237403 76.59585 
L 333.760965 74.249825 
L 341.284527 74.266582 
L 348.808089 73.562774 
L 356.331651 70.169416 
L 363.855213 69.046676 
L 371.378776 69.809134 
L 378.902338 66.591728 
L 386.4259 65.628181 
L 393.949462 63.391079 
L 401.473024 64.354625 
L 408.996586 62.804572 
L 416.520148 62.838087 
L 424.043711 60.425032 
L 431.567273 59.704467 
" style="fill:none;stroke:#ff7f0e;stroke-linecap:square;stroke-width:1.5;"/>
   </g>
   <g id="line2d_15">
    <path clip-path="url(#p9074ad846e)" d="M 62.912727 281.211159 
L 70.436289 244.939931 
L 77.959852 225.870096 
L 85.483414 210.201997 
L 93.006976 200.382205 
L 100.530538 187.730425 
L 108.0541 172.280172 
L 115.577662 161.387911 
L 123.101224 158.832419 
L 130.624787 150.99837 
L 138.148349 146.74201 
L 145.671911 137.969551 
L 153.195473 133.202092 
L 160.719035 128.811673 
L 168.242597 127.546495 
L 175.76616 118.187529 
L 183.289722 114.944987 
L 190.813284 111.115938 
L 198.336846 107.177967 
L 205.860408 105.485477 
L 213.38397 100.198542 
L 220.907532 98.883092 
L 228.431095 95.045664 
L 235.954657 93.160465 
L 243.478219 90.881469 
L 251.001781 89.649806 
L 258.525343 85.519125 
L 266.048905 83.223372 
L 273.572468 81.036541 
L 281.09603 78.296719 
L 288.619592 77.442095 
L 296.143154 73.847649 
L 303.666716 75.565275 
L 311.190278 71.359186 
L 318.71384 69.884542 
L 326.237403 67.815012 
L 333.760965 68.183673 
L 341.284527 63.927313 
L 348.808089 63.148097 
L 356.331651 61.221005 
L 363.855213 61.036675 
L 371.378776 58.590105 
L 378.902338 58.380639 
L 386.4259 55.74136 
L 393.949462 55.565408 
L 401.473024 54.30023 
L 408.996586 53.252897 
L 416.520148 51.929069 
L 424.043711 50.814707 
L 431.567273 49.842782 
" style="fill:none;stroke:#2ca02c;stroke-linecap:square;stroke-width:1.5;"/>
   </g>
   <g id="line2d_16">
    <path clip-path="url(#p9074ad846e)" d="M 62.912727 286.59026 
L 70.436289 241.580087 
L 77.959852 220.005032 
L 85.483414 199.795699 
L 93.006976 188.526398 
L 100.530538 173.092902 
L 108.0541 167.077023 
L 115.577662 158.271049 
L 123.101224 148.174761 
L 130.624787 143.633526 
L 138.148349 140.818296 
L 145.671911 133.981307 
L 153.195473 126.985125 
L 160.719035 123.926913 
L 168.242597 119.653795 
L 175.76616 115.99232 
L 183.289722 112.766535 
L 190.813284 107.203103 
L 198.336846 105.46872 
L 205.860408 102.083741 
L 213.38397 99.628793 
L 220.907532 96.495173 
L 228.431095 93.0683 
L 235.954657 88.971134 
L 243.478219 87.647306 
L 251.001781 86.147525 
L 258.525343 82.963633 
L 266.048905 81.053298 
L 273.572468 79.243507 
L 281.09603 77.685076 
L 288.619592 76.227189 
L 296.143154 75.255264 
L 303.666716 72.817074 
L 311.190278 71.518381 
L 318.71384 69.608046 
L 326.237403 67.714468 
L 333.760965 66.315232 
L 341.284527 63.910556 
L 348.808089 63.768118 
L 356.331651 62.084007 
L 363.855213 60.735043 
L 371.378776 59.017417 
L 378.902338 58.213065 
L 386.4259 56.17705 
L 393.949462 55.087824 
L 401.473024 53.588044 
L 408.996586 52.540711 
L 416.520148 51.803389 
L 424.043711 49.641694 
L 431.567273 49.641694 
" style="fill:none;stroke:#d62728;stroke-linecap:square;stroke-width:1.5;"/>
   </g>
   <g id="patch_3">
    <path d="M 44.48 303.64 
L 44.48 32.876829 
" style="fill:none;stroke:#000000;stroke-linecap:square;stroke-linejoin:miter;stroke-width:0.8;"/>
   </g>
   <g id="patch_4">
    <path d="M 450 303.64 
L 450 32.876829 
" style="fill:none;stroke:#000000;stroke-linecap:square;stroke-linejoin:miter;stroke-width:0.8;"/>
   </g>
   <g id="patch_5">
    <path d="M 44.48 303.64 
L 450 303.64 
" style="fill:none;stroke:#000000;stroke-linecap:square;stroke-linejoin:miter;stroke-width:0.8;"/>
   </g>
   <g id="patch_6">
    <path d="M 44.48 32.876829 
L 450 32.876829 
" style="fill:none;stroke:#000000;stroke-linecap:square;stroke-linejoin:miter;stroke-width:0.8;"/>
   </g>
   <g id="legend_1">
    <g id="patch_7">
     <path d="M 80.841563 28.478637 
L 413.638438 28.478637 
Q 415.638438 28.478637 415.638438 26.478637 
L 415.638438 12.800512 
Q 415.638438 10.800512 413.638438 10.800512 
L 80.841563 10.800512 
Q 78.841563 10.800512 78.841563 12.800512 
L 78.841563 26.478637 
Q 78.841563 28.478637 80.841563 28.478637 
z
" style="fill:#ffffff;opacity:0.8;stroke:#cccccc;stroke-linejoin:miter;"/>
    </g>
    <g id="line2d_17">
     <path d="M 82.841563 18.898949 
L 102.841563 18.898949 
" style="fill:none;stroke:#1f77b4;stroke-linecap:square;stroke-width:1.5;"/>
    </g>
    <g id="line2d_18"/>
    <g id="text_15">
     <!-- FedAvg -->
     <g transform="translate(110.841563 22.398949)scale(0.1 -0.1)">
      <defs>
       <path d="M 628 4666 
L 3309 4666 
L 3309 4134 
L 1259 4134 
L 1259 2759 
L 3109 2759 
L 3109 2228 
L 1259 2228 
L 1259 0 
L 628 0 
L 628 4666 
z
" id="DejaVuSans-46" transform="scale(0.015625)"/>
       <path d="M 191 3500 
L 800 3500 
L 1894 563 
L 2988 3500 
L 3597 3500 
L 2284 0 
L 1503 0 
L 191 3500 
z
" id="DejaVuSans-76" transform="scale(0.015625)"/>
       <path d="M 2906 1791 
Q 2906 2416 2648 2759 
Q 2391 3103 1925 3103 
Q 1463 3103 1205 2759 
Q 947 2416 947 1791 
Q 947 1169 1205 825 
Q 1463 481 1925 481 
Q 2391 481 2648 825 
Q 2906 1169 2906 1791 
z
M 3481 434 
Q 3481 -459 3084 -895 
Q 2688 -1331 1869 -1331 
Q 1566 -1331 1297 -1286 
Q 1028 -1241 775 -1147 
L 775 -588 
Q 1028 -725 1275 -790 
Q 1522 -856 1778 -856 
Q 2344 -856 2625 -561 
Q 2906 -266 2906 331 
L 2906 616 
Q 2728 306 2450 153 
Q 2172 0 1784 0 
Q 1141 0 747 490 
Q 353 981 353 1791 
Q 353 2603 747 3093 
Q 1141 3584 1784 3584 
Q 2172 3584 2450 3431 
Q 2728 3278 2906 2969 
L 2906 3500 
L 3481 3500 
L 3481 434 
z
" id="DejaVuSans-67" transform="scale(0.015625)"/>
      </defs>
      <use xlink:href="#DejaVuSans-46"/>
      <use x="52.019531" xlink:href="#DejaVuSans-65"/>
      <use x="113.542969" xlink:href="#DejaVuSans-64"/>
      <use x="177.019531" xlink:href="#DejaVuSans-41"/>
      <use x="239.552734" xlink:href="#DejaVuSans-76"/>
      <use x="298.732422" xlink:href="#DejaVuSans-67"/>
     </g>
    </g>
    <g id="line2d_19">
     <path d="M 167.065 18.898949 
L 187.065 18.898949 
" style="fill:none;stroke:#ff7f0e;stroke-linecap:square;stroke-width:1.5;"/>
    </g>
    <g id="line2d_20"/>
    <g id="text_16">
     <!-- FedMed -->
     <g transform="translate(195.065 22.398949)scale(0.1 -0.1)">
      <defs>
       <path d="M 628 4666 
L 1569 4666 
L 2759 1491 
L 3956 4666 
L 4897 4666 
L 4897 0 
L 4281 0 
L 4281 4097 
L 3078 897 
L 2444 897 
L 1241 4097 
L 1241 0 
L 628 0 
L 628 4666 
z
" id="DejaVuSans-4d" transform="scale(0.015625)"/>
      </defs>
      <use xlink:href="#DejaVuSans-46"/>
      <use x="52.019531" xlink:href="#DejaVuSans-65"/>
      <use x="113.542969" xlink:href="#DejaVuSans-64"/>
      <use x="177.019531" xlink:href="#DejaVuSans-4d"/>
      <use x="263.298828" xlink:href="#DejaVuSans-65"/>
      <use x="324.822266" xlink:href="#DejaVuSans-64"/>
     </g>
    </g>
    <g id="line2d_21">
     <path d="M 253.897813 18.898949 
L 273.897812 18.898949 
" style="fill:none;stroke:#2ca02c;stroke-linecap:square;stroke-width:1.5;"/>
    </g>
    <g id="line2d_22"/>
    <g id="text_17">
     <!-- FedProx -->
     <g transform="translate(281.897812 22.398949)scale(0.1 -0.1)">
      <defs>
       <path d="M 1259 4147 
L 1259 2394 
L 2053 2394 
Q 2494 2394 2734 2622 
Q 2975 2850 2975 3272 
Q 2975 3691 2734 3919 
Q 2494 4147 2053 4147 
L 1259 4147 
z
M 628 4666 
L 2053 4666 
Q 2838 4666 3239 4311 
Q 3641 3956 3641 3272 
Q 3641 2581 3239 2228 
Q 2838 1875 2053 1875 
L 1259 1875 
L 1259 0 
L 628 0 
L 628 4666 
z
" id="DejaVuSans-50" transform="scale(0.015625)"/>
       <path d="M 3513 3500 
L 2247 1797 
L 3578 0 
L 2900 0 
L 1881 1375 
L 863 0 
L 184 0 
L 1544 1831 
L 300 3500 
L 978 3500 
L 1906 2253 
L 2834 3500 
L 3513 3500 
z
" id="DejaVuSans-78" transform="scale(0.015625)"/>
      </defs>
      <use xlink:href="#DejaVuSans-46"/>
      <use x="52.019531" xlink:href="#DejaVuSans-65"/>
      <use x="113.542969" xlink:href="#DejaVuSans-64"/>
      <use x="177.019531" xlink:href="#DejaVuSans-50"/>
      <use x="235.572266" xlink:href="#DejaVuSans-72"/>
      <use x="274.435547" xlink:href="#DejaVuSans-6f"/>
      <use x="332.492188" xlink:href="#DejaVuSans-78"/>
     </g>
    </g>
    <g id="line2d_23">
     <path d="M 341.066563 18.898949 
L 361.066563 18.898949 
" style="fill:none;stroke:#d62728;stroke-linecap:square;stroke-width:1.5;"/>
    </g>
    <g id="line2d_24"/>
    <g id="text_18">
     <!-- qFedAvg -->
     <g transform="translate(369.066563 22.398949)scale(0.1 -0.1)">
      <defs>
       <path d="M 947 1747 
Q 947 1113 1208 752 
Q 1469 391 1925 391 
Q 2381 391 2643 752 
Q 2906 1113 2906 1747 
Q 2906 2381 2643 2742 
Q 2381 3103 1925 3103 
Q 1469 3103 1208 2742 
Q 947 2381 947 1747 
z
M 2906 525 
Q 2725 213 2448 61 
Q 2172 -91 1784 -91 
Q 1150 -91 751 415 
Q 353 922 353 1747 
Q 353 2572 751 3078 
Q 1150 3584 1784 3584 
Q 2172 3584 2448 3432 
Q 2725 3281 2906 2969 
L 2906 3500 
L 3481 3500 
L 3481 -1331 
L 2906 -1331 
L 2906 525 
z
" id="DejaVuSans-71" transform="scale(0.015625)"/>
      </defs>
      <use xlink:href="#DejaVuSans-71"/>
      <use x="63.476562" xlink:href="#DejaVuSans-46"/>
      <use x="115.496094" xlink:href="#DejaVuSans-65"/>
      <use x="177.019531" xlink:href="#DejaVuSans-64"/>
      <use x="240.496094" xlink:href="#DejaVuSans-41"/>
      <use x="303.029297" xlink:href="#DejaVuSans-76"/>
      <use x="362.208984" xlink:href="#DejaVuSans-67"/>
     </g>
    </g>
   </g>
  </g>
 </g>
 <defs>
  <clipPath id="p9074ad846e">
   <rect height="270.763171" width="405.52" x="44.48" y="32.876829"/>
  </clipPath>
 </defs>
</svg>
