<?xml version="1.0" encoding="utf-8" standalone="no"?>
<!DOCTYPE svg PUBLIC "-//W3C//DTD SVG 1.1//EN"
  "http://www.w3.org/Graphics/SVG/1.1/DTD/svg11.dtd">
<svg height="345.6pt" version="1.1" viewBox="0 0 460.8 345.6" width="460.8pt" xmlns="http://www.w3.org/2000/svg" xmlns:xlink="http://www.w3.org/1999/xlink">
 <metadata>
  <rdf:RDF xmlns:cc="http://creativecommons.org/ns#" xmlns:dc="http://purl.org/dc/elements/1.1/" xmlns:rdf="http://www.w3.org/1999/02/22-rdf-syntax-ns#">
   <cc:Work>
    <dc:type rdf:resource="http://purl.org/dc/dcmitype/StillImage"/>
    <dc:date>2021-04-30T09:52:40.641037</dc:date>
    <dc:format>image/svg+xml</dc:format>
    <dc:creator>
     <cc:Agent>
      <dc:title>Matplotlib v3.4.1, https://matplotlib.org/</dc:title>
     </cc:Agent>
    </dc:creator>
   </cc:Work>
  </rdf:RDF>
 </metadata>
 <defs>
  <style type="text/css">*{stroke-linecap:butt;stroke-linejoin:round;}</style>
 </defs>
 <g id="figure_1">
  <g id="patch_1">
   <path d="M 0 345.6 
L 460.8 345.6 
L 460.8 0 
L 0 0 
z
" style="fill:#ffffff;"/>
  </g>
  <g id="axes_1">
   <g id="patch_2">
    <path d="M 53.93 303.64 
L 366.25 303.64 
L 366.25 26.88 
L 53.93 26.88 
z
" style="fill:#ffffff;"/>
   </g>
   <g id="PolyCollection_1">
    <path clip-path="url(#p7df1a8699c)" d="M 68.126364 274.873602 
L 68.126364 285.321965 
L 73.920798 244.641864 
L 79.715232 213.776373 
L 85.509666 195.089219 
L 91.3041 181.917431 
L 97.098534 173.712897 
L 102.892968 165.799547 
L 108.687403 156.121965 
L 114.481837 149.613149 
L 120.276271 140.997531 
L 126.070705 139.318942 
L 131.865139 130.155214 
L 137.659573 123.612141 
L 143.454007 122.087708 
L 149.248442 119.364282 
L 155.042876 113.454962 
L 160.83731 109.327003 
L 166.631744 107.785441 
L 172.426178 97.525491 
L 178.220612 96.480655 
L 184.015046 94.339597 
L 189.809481 94.116927 
L 195.603915 90.74262 
L 201.398349 85.655466 
L 207.192783 85.330025 
L 212.987217 83.445894 
L 218.781651 78.273098 
L 224.576085 78.975365 
L 230.370519 76.097783 
L 236.164954 74.607607 
L 241.959388 73.203073 
L 247.753822 69.280655 
L 253.548256 67.944635 
L 259.34269 66.351688 
L 265.137124 64.501814 
L 270.931558 63.234307 
L 276.725993 59.226247 
L 282.520427 59.945642 
L 288.314861 58.798035 
L 294.109295 53.693753 
L 299.903729 55.680655 
L 305.698163 54.053451 
L 311.492597 52.940101 
L 317.287032 50.970327 
L 323.081466 49.137582 
L 328.8759 45.900302 
L 334.670334 45.232292 
L 340.464768 46.431285 
L 346.259202 44.564282 
L 352.053636 42.200554 
L 352.053636 39.46 
L 352.053636 39.46 
L 346.259202 41.46403 
L 340.464768 42.114912 
L 334.670334 43.211134 
L 328.8759 45.643375 
L 323.081466 45.985945 
L 317.287032 48.195516 
L 311.492597 46.534055 
L 305.698163 50.405088 
L 299.903729 51.980907 
L 294.109295 52.83733 
L 288.314861 54.755718 
L 282.520427 55.903325 
L 276.725993 58.198539 
L 270.931558 58.900806 
L 265.137124 58.729521 
L 259.34269 63.662519 
L 253.548256 63.508363 
L 247.753822 64.279144 
L 241.959388 65.580907 
L 236.164954 68.338589 
L 230.370519 71.113401 
L 224.576085 71.781411 
L 218.781651 75.823728 
L 212.987217 75.806599 
L 207.192783 79.112393 
L 201.398349 83.685693 
L 195.603915 85.347154 
L 189.809481 84.679144 
L 184.015046 90.040353 
L 178.220612 93.483174 
L 172.426178 95.86403 
L 166.631744 99.529521 
L 160.83731 103.383426 
L 155.042876 110.457481 
L 149.248442 112.341612 
L 143.454007 117.976877 
L 137.659573 122.875617 
L 131.865139 124.537078 
L 126.070705 131.936574 
L 120.276271 140.106851 
L 114.481837 148.585441 
L 108.687403 154.61466 
L 102.892968 162.339597 
L 97.098534 166.741612 
L 91.3041 181.403577 
L 85.509666 194.369824 
L 79.715232 209.579899 
L 73.920798 242.860504 
L 68.126364 274.873602 
z
" style="fill:#1f77b4;fill-opacity:0.5;"/>
   </g>
   <g id="PolyCollection_2">
    <path clip-path="url(#p7df1a8699c)" d="M 68.126364 280.303325 
L 68.126364 290.957229 
L 73.920798 245.789471 
L 79.715232 224.824232 
L 85.509666 202.129018 
L 91.3041 190.824232 
L 97.098534 185.908363 
L 102.892968 168.814156 
L 108.687403 163.041864 
L 114.481837 153.107355 
L 120.276271 151.60005 
L 126.070705 142.693249 
L 131.865139 138.856474 
L 137.659573 134.111889 
L 143.454007 129.538589 
L 149.248442 122.361763 
L 155.042876 118.542116 
L 160.83731 113.729018 
L 166.631744 113.694761 
L 172.426178 108.521965 
L 178.220612 104.411134 
L 184.015046 100.865542 
L 189.809481 100.865542 
L 195.603915 95.230277 
L 201.398349 93.688715 
L 207.192783 91.205088 
L 212.987217 89.149673 
L 218.781651 86.631788 
L 224.576085 85.073098 
L 230.370519 84.542116 
L 236.164954 80.551184 
L 241.959388 78.392997 
L 247.753822 76.371839 
L 253.548256 75.652443 
L 259.34269 76.902821 
L 265.137124 71.969824 
L 270.931558 72.586448 
L 276.725993 69.297783 
L 282.520427 69.657481 
L 288.314861 68.749673 
L 294.109295 65.837834 
L 299.903729 64.176373 
L 305.698163 67.156725 
L 311.492597 62.480655 
L 317.287032 60.767809 
L 323.081466 58.421209 
L 328.8759 60.408111 
L 334.670334 58.284181 
L 340.464768 58.695264 
L 346.259202 55.457985 
L 352.053636 55.492242 
L 352.053636 53.111385 
L 352.053636 53.111385 
L 346.259202 54.61869 
L 340.464768 56.314408 
L 334.670334 56.656977 
L 328.8759 57.701814 
L 323.081466 57.718942 
L 317.287032 59.945642 
L 311.492597 60.202569 
L 305.698163 62.103829 
L 299.903729 63.525491 
L 294.109295 64.159244 
L 288.314861 68.184433 
L 282.520427 68.715416 
L 276.725993 69.040856 
L 270.931558 70.548161 
L 265.137124 70.496776 
L 259.34269 73.100302 
L 253.548256 74.504836 
L 247.753822 75.943627 
L 241.959388 77.981914 
L 236.164954 80.534055 
L 230.370519 81.801562 
L 224.576085 84.353703 
L 218.781651 85.50131 
L 212.987217 88.207607 
L 207.192783 89.526499 
L 201.398349 90.057481 
L 195.603915 94.699295 
L 189.809481 96.069572 
L 184.015046 100.814156 
L 178.220612 103.45194 
L 172.426178 107.203073 
L 166.631744 109.412645 
L 160.83731 112.958237 
L 155.042876 116.726499 
L 149.248442 121.385441 
L 143.454007 122.995516 
L 137.659573 130.53204 
L 131.865139 134.403073 
L 126.070705 140.261008 
L 120.276271 143.361259 
L 114.481837 151.360252 
L 108.687403 162.168312 
L 102.892968 167.923476 
L 97.098534 176.761763 
L 91.3041 189.042872 
L 85.509666 197.247406 
L 79.715232 220.61063 
L 73.920798 245.515416 
L 68.126364 280.303325 
z
" style="fill:#ff7f0e;fill-opacity:0.5;"/>
   </g>
   <g id="PolyCollection_3">
    <path clip-path="url(#p7df1a8699c)" d="M 68.126364 275.712897 
L 68.126364 285.715919 
L 73.920798 246.885693 
L 79.715232 228.52398 
L 85.509666 216.92801 
L 91.3041 202.88267 
L 97.098534 186.781914 
L 102.892968 171.520453 
L 108.687403 160.095768 
L 114.481837 156.772846 
L 120.276271 149.116423 
L 126.070705 146.512897 
L 131.865139 136.338589 
L 137.659573 132.227758 
L 143.454007 128.836322 
L 149.248442 127.106348 
L 155.042876 114.242872 
L 160.83731 112.684181 
L 166.631744 109.823728 
L 172.426178 105.079144 
L 178.220612 103.075113 
L 184.015046 97.76529 
L 189.809481 95.761259 
L 195.603915 92.335567 
L 201.398349 90.006096 
L 207.192783 86.666045 
L 212.987217 86.940101 
L 218.781651 81.476121 
L 224.576085 80.962267 
L 230.370519 78.564282 
L 236.164954 74.367809 
L 241.959388 74.179395 
L 247.753822 71.164786 
L 253.548256 73.066045 
L 259.34269 67.516423 
L 265.137124 66.454458 
L 270.931558 64.638841 
L 276.725993 65.495264 
L 282.520427 60.408111 
L 288.314861 58.986448 
L 294.109295 57.530529 
L 299.903729 58.284181 
L 305.698163 55.338086 
L 311.492597 53.042872 
L 317.287032 53.710882 
L 323.081466 51.107355 
L 328.8759 51.021713 
L 334.670334 50.096776 
L 340.464768 48.949169 
L 346.259202 48.589471 
L 352.053636 45.746146 
L 352.053636 42.69728 
L 352.053636 42.69728 
L 346.259202 41.840856 
L 340.464768 43.759244 
L 334.670334 45.317935 
L 328.8759 46.534055 
L 323.081466 49.034811 
L 317.287032 46.790982 
L 311.492597 52.854458 
L 305.698163 50.987456 
L 299.903729 53.042872 
L 294.109295 54.17335 
L 288.314861 56.656977 
L 282.520427 56.828262 
L 276.725993 60.442368 
L 270.931558 60.545139 
L 265.137124 62.960252 
L 259.34269 64.912897 
L 253.548256 67.961763 
L 247.753822 66.351688 
L 241.959388 70.685189 
L 236.164954 72.243879 
L 230.370519 73.648413 
L 224.576085 75.720957 
L 218.781651 79.900302 
L 212.987217 82.880655 
L 207.192783 85.672594 
L 201.398349 86.991486 
L 195.603915 88.515919 
L 189.809481 92.935063 
L 184.015046 93.620202 
L 178.220612 99.118438 
L 172.426178 100.574358 
L 166.631744 103.880151 
L 160.83731 108.847406 
L 155.042876 113.917431 
L 149.248442 120.186448 
L 143.454007 121.042872 
L 137.659573 126.626751 
L 131.865139 132.262015 
L 126.070705 140.021209 
L 120.276271 146.118942 
L 114.481837 154.477632 
L 108.687403 156.378892 
L 102.892968 167.221209 
L 97.098534 183.544635 
L 91.3041 193.307859 
L 85.509666 199.337078 
L 79.715232 219.771335 
L 73.920798 240.394005 
L 68.126364 275.712897 
z
" style="fill:#2ca02c;fill-opacity:0.5;"/>
   </g>
   <g id="PolyCollection_4">
    <path clip-path="url(#p7df1a8699c)" d="M 68.126364 281.36529 
L 68.126364 291.06 
L 73.920798 245.155718 
L 79.715232 221.158741 
L 85.509666 198.634811 
L 91.3041 192.263023 
L 97.098534 171.246398 
L 102.892968 166.4333 
L 108.687403 157.971839 
L 114.481837 146.101814 
L 120.276271 142.864534 
L 126.070705 137.55471 
L 131.865139 131.182922 
L 137.659573 123.800554 
L 143.454007 121.573854 
L 149.248442 115.681662 
L 155.042876 112.855466 
L 160.83731 109.618186 
L 166.631744 104.239849 
L 172.426178 102.44136 
L 178.220612 98.964282 
L 184.015046 96.65194 
L 189.809481 92.541108 
L 195.603915 88.61869 
L 201.398349 85.312897 
L 207.192783 82.949169 
L 212.987217 82.109874 
L 218.781651 79.335063 
L 224.576085 76.183426 
L 230.370519 76.217683 
L 236.164954 74.453451 
L 241.959388 73.802569 
L 247.753822 71.90131 
L 253.548256 70.00005 
L 259.34269 68.629773 
L 265.137124 67.122469 
L 270.931558 64.056474 
L 276.725993 63.474106 
L 282.520427 62.052443 
L 288.314861 60.562267 
L 294.109295 58.866549 
L 299.903729 57.462015 
L 305.698163 55.303829 
L 311.492597 54.413149 
L 317.287032 52.015164 
L 323.081466 51.672594 
L 328.8759 49.49728 
L 334.670334 47.578892 
L 340.464768 46.534055 
L 346.259202 45.009622 
L 352.053636 44.358741 
L 352.053636 43.673602 
L 352.053636 43.673602 
L 346.259202 43.02272 
L 340.464768 45.917431 
L 334.670334 46.379899 
L 328.8759 46.602569 
L 323.081466 47.493249 
L 317.287032 49.37738 
L 311.492597 51.141612 
L 305.698163 51.895264 
L 299.903729 53.248413 
L 294.109295 54.601562 
L 288.314861 56.348665 
L 282.520427 55.149673 
L 276.725993 58.643879 
L 270.931558 60.921965 
L 265.137124 61.727003 
L 259.34269 64.124987 
L 253.548256 65.409622 
L 247.753822 68.492746 
L 241.959388 68.578388 
L 236.164954 70.907859 
L 230.370519 72.329521 
L 224.576085 76.063526 
L 218.781651 76.817179 
L 212.987217 80.551184 
L 207.192783 82.777884 
L 201.398349 83.120453 
L 195.603915 88.190479 
L 189.809481 91.273602 
L 184.015046 93.568816 
L 178.220612 96.275113 
L 172.426178 99.717935 
L 166.631744 101.465038 
L 160.83731 107.46 
L 155.042876 110.817179 
L 149.248442 115.476121 
L 143.454007 118.319446 
L 137.659573 122.344635 
L 131.865139 129.264534 
L 126.070705 136.869572 
L 120.276271 137.314912 
L 114.481837 143.361259 
L 108.687403 152.131033 
L 102.892968 161.671587 
L 97.098534 169.156725 
L 91.3041 179.69073 
L 85.509666 196.356725 
L 79.715232 215.14665 
L 73.920798 235.255466 
L 68.126364 281.36529 
z
" style="fill:#d62728;fill-opacity:0.5;"/>
   </g>
   <g id="matplotlib.axis_1">
    <g id="xtick_1">
     <g id="line2d_1">
      <path clip-path="url(#p7df1a8699c)" d="M 68.126364 303.64 
L 68.126364 26.88 
" style="fill:none;stroke:#b0b0b0;stroke-linecap:square;stroke-width:0.8;"/>
     </g>
     <g id="line2d_2">
      <defs>
       <path d="M 0 0 
L 0 3.5 
" id="m3666c906ed" style="stroke:#000000;stroke-width:0.8;"/>
      </defs>
      <g>
       <use style="stroke:#000000;stroke-width:0.8;" x="68.126364" xlink:href="#m3666c906ed" y="303.64"/>
      </g>
     </g>
     <g id="text_1">
      <!-- 0 -->
      <g transform="translate(64.945114 318.238437)scale(0.1 -0.1)">
       <defs>
        <path d="M 2034 4250 
Q 1547 4250 1301 3770 
Q 1056 3291 1056 2328 
Q 1056 1369 1301 889 
Q 1547 409 2034 409 
Q 2525 409 2770 889 
Q 3016 1369 3016 2328 
Q 3016 3291 2770 3770 
Q 2525 4250 2034 4250 
z
M 2034 4750 
Q 2819 4750 3233 4129 
Q 3647 3509 3647 2328 
Q 3647 1150 3233 529 
Q 2819 -91 2034 -91 
Q 1250 -91 836 529 
Q 422 1150 422 2328 
Q 422 3509 836 4129 
Q 1250 4750 2034 4750 
z
" id="DejaVuSans-30" transform="scale(0.015625)"/>
       </defs>
       <use xlink:href="#DejaVuSans-30"/>
      </g>
     </g>
    </g>
    <g id="xtick_2">
     <g id="line2d_3">
      <path clip-path="url(#p7df1a8699c)" d="M 126.070705 303.64 
L 126.070705 26.88 
" style="fill:none;stroke:#b0b0b0;stroke-linecap:square;stroke-width:0.8;"/>
     </g>
     <g id="line2d_4">
      <g>
       <use style="stroke:#000000;stroke-width:0.8;" x="126.070705" xlink:href="#m3666c906ed" y="303.64"/>
      </g>
     </g>
     <g id="text_2">
      <!-- 10 -->
      <g transform="translate(119.708205 318.238437)scale(0.1 -0.1)">
       <defs>
        <path d="M 794 531 
L 1825 531 
L 1825 4091 
L 703 3866 
L 703 4441 
L 1819 4666 
L 2450 4666 
L 2450 531 
L 3481 531 
L 3481 0 
L 794 0 
L 794 531 
z
" id="DejaVuSans-31" transform="scale(0.015625)"/>
       </defs>
       <use xlink:href="#DejaVuSans-31"/>
       <use x="63.623047" xlink:href="#DejaVuSans-30"/>
      </g>
     </g>
    </g>
    <g id="xtick_3">
     <g id="line2d_5">
      <path clip-path="url(#p7df1a8699c)" d="M 184.015046 303.64 
L 184.015046 26.88 
" style="fill:none;stroke:#b0b0b0;stroke-linecap:square;stroke-width:0.8;"/>
     </g>
     <g id="line2d_6">
      <g>
       <use style="stroke:#000000;stroke-width:0.8;" x="184.015046" xlink:href="#m3666c906ed" y="303.64"/>
      </g>
     </g>
     <g id="text_3">
      <!-- 20 -->
      <g transform="translate(177.652546 318.238437)scale(0.1 -0.1)">
       <defs>
        <path d="M 1228 531 
L 3431 531 
L 3431 0 
L 469 0 
L 469 531 
Q 828 903 1448 1529 
Q 2069 2156 2228 2338 
Q 2531 2678 2651 2914 
Q 2772 3150 2772 3378 
Q 2772 3750 2511 3984 
Q 2250 4219 1831 4219 
Q 1534 4219 1204 4116 
Q 875 4013 500 3803 
L 500 4441 
Q 881 4594 1212 4672 
Q 1544 4750 1819 4750 
Q 2544 4750 2975 4387 
Q 3406 4025 3406 3419 
Q 3406 3131 3298 2873 
Q 3191 2616 2906 2266 
Q 2828 2175 2409 1742 
Q 1991 1309 1228 531 
z
" id="DejaVuSans-32" transform="scale(0.015625)"/>
       </defs>
       <use xlink:href="#DejaVuSans-32"/>
       <use x="63.623047" xlink:href="#DejaVuSans-30"/>
      </g>
     </g>
    </g>
    <g id="xtick_4">
     <g id="line2d_7">
      <path clip-path="url(#p7df1a8699c)" d="M 241.959388 303.64 
L 241.959388 26.88 
" style="fill:none;stroke:#b0b0b0;stroke-linecap:square;stroke-width:0.8;"/>
     </g>
     <g id="line2d_8">
      <g>
       <use style="stroke:#000000;stroke-width:0.8;" x="241.959388" xlink:href="#m3666c906ed" y="303.64"/>
      </g>
     </g>
     <g id="text_4">
      <!-- 30 -->
      <g transform="translate(235.596888 318.238437)scale(0.1 -0.1)">
       <defs>
        <path d="M 2597 2516 
Q 3050 2419 3304 2112 
Q 3559 1806 3559 1356 
Q 3559 666 3084 287 
Q 2609 -91 1734 -91 
Q 1441 -91 1130 -33 
Q 819 25 488 141 
L 488 750 
Q 750 597 1062 519 
Q 1375 441 1716 441 
Q 2309 441 2620 675 
Q 2931 909 2931 1356 
Q 2931 1769 2642 2001 
Q 2353 2234 1838 2234 
L 1294 2234 
L 1294 2753 
L 1863 2753 
Q 2328 2753 2575 2939 
Q 2822 3125 2822 3475 
Q 2822 3834 2567 4026 
Q 2313 4219 1838 4219 
Q 1578 4219 1281 4162 
Q 984 4106 628 3988 
L 628 4550 
Q 988 4650 1302 4700 
Q 1616 4750 1894 4750 
Q 2613 4750 3031 4423 
Q 3450 4097 3450 3541 
Q 3450 3153 3228 2886 
Q 3006 2619 2597 2516 
z
" id="DejaVuSans-33" transform="scale(0.015625)"/>
       </defs>
       <use xlink:href="#DejaVuSans-33"/>
       <use x="63.623047" xlink:href="#DejaVuSans-30"/>
      </g>
     </g>
    </g>
    <g id="xtick_5">
     <g id="line2d_9">
      <path clip-path="url(#p7df1a8699c)" d="M 299.903729 303.64 
L 299.903729 26.88 
" style="fill:none;stroke:#b0b0b0;stroke-linecap:square;stroke-width:0.8;"/>
     </g>
     <g id="line2d_10">
      <g>
       <use style="stroke:#000000;stroke-width:0.8;" x="299.903729" xlink:href="#m3666c906ed" y="303.64"/>
      </g>
     </g>
     <g id="text_5">
      <!-- 40 -->
      <g transform="translate(293.541229 318.238437)scale(0.1 -0.1)">
       <defs>
        <path d="M 2419 4116 
L 825 1625 
L 2419 1625 
L 2419 4116 
z
M 2253 4666 
L 3047 4666 
L 3047 1625 
L 3713 1625 
L 3713 1100 
L 3047 1100 
L 3047 0 
L 2419 0 
L 2419 1100 
L 313 1100 
L 313 1709 
L 2253 4666 
z
" id="DejaVuSans-34" transform="scale(0.015625)"/>
       </defs>
       <use xlink:href="#DejaVuSans-34"/>
       <use x="63.623047" xlink:href="#DejaVuSans-30"/>
      </g>
     </g>
    </g>
    <g id="xtick_6">
     <g id="line2d_11">
      <path clip-path="url(#p7df1a8699c)" d="M 357.848071 303.64 
L 357.848071 26.88 
" style="fill:none;stroke:#b0b0b0;stroke-linecap:square;stroke-width:0.8;"/>
     </g>
     <g id="line2d_12">
      <g>
       <use style="stroke:#000000;stroke-width:0.8;" x="357.848071" xlink:href="#m3666c906ed" y="303.64"/>
      </g>
     </g>
     <g id="text_6">
      <!-- 50 -->
      <g transform="translate(351.485571 318.238437)scale(0.1 -0.1)">
       <defs>
        <path d="M 691 4666 
L 3169 4666 
L 3169 4134 
L 1269 4134 
L 1269 2991 
Q 1406 3038 1543 3061 
Q 1681 3084 1819 3084 
Q 2600 3084 3056 2656 
Q 3513 2228 3513 1497 
Q 3513 744 3044 326 
Q 2575 -91 1722 -91 
Q 1428 -91 1123 -41 
Q 819 9 494 109 
L 494 744 
Q 775 591 1075 516 
Q 1375 441 1709 441 
Q 2250 441 2565 725 
Q 2881 1009 2881 1497 
Q 2881 1984 2565 2268 
Q 2250 2553 1709 2553 
Q 1456 2553 1204 2497 
Q 953 2441 691 2322 
L 691 4666 
z
" id="DejaVuSans-35" transform="scale(0.015625)"/>
       </defs>
       <use xlink:href="#DejaVuSans-35"/>
       <use x="63.623047" xlink:href="#DejaVuSans-30"/>
      </g>
     </g>
    </g>
    <g id="text_7">
     <!-- Global Communication Rounds -->
     <g transform="translate(133.128281 331.916562)scale(0.1 -0.1)">
      <defs>
       <path d="M 3809 666 
L 3809 1919 
L 2778 1919 
L 2778 2438 
L 4434 2438 
L 4434 434 
Q 4069 175 3628 42 
Q 3188 -91 2688 -91 
Q 1594 -91 976 548 
Q 359 1188 359 2328 
Q 359 3472 976 4111 
Q 1594 4750 2688 4750 
Q 3144 4750 3555 4637 
Q 3966 4525 4313 4306 
L 4313 3634 
Q 3963 3931 3569 4081 
Q 3175 4231 2741 4231 
Q 1884 4231 1454 3753 
Q 1025 3275 1025 2328 
Q 1025 1384 1454 906 
Q 1884 428 2741 428 
Q 3075 428 3337 486 
Q 3600 544 3809 666 
z
" id="DejaVuSans-47" transform="scale(0.015625)"/>
       <path d="M 603 4863 
L 1178 4863 
L 1178 0 
L 603 0 
L 603 4863 
z
" id="DejaVuSans-6c" transform="scale(0.015625)"/>
       <path d="M 1959 3097 
Q 1497 3097 1228 2736 
Q 959 2375 959 1747 
Q 959 1119 1226 758 
Q 1494 397 1959 397 
Q 2419 397 2687 759 
Q 2956 1122 2956 1747 
Q 2956 2369 2687 2733 
Q 2419 3097 1959 3097 
z
M 1959 3584 
Q 2709 3584 3137 3096 
Q 3566 2609 3566 1747 
Q 3566 888 3137 398 
Q 2709 -91 1959 -91 
Q 1206 -91 779 398 
Q 353 888 353 1747 
Q 353 2609 779 3096 
Q 1206 3584 1959 3584 
z
" id="DejaVuSans-6f" transform="scale(0.015625)"/>
       <path d="M 3116 1747 
Q 3116 2381 2855 2742 
Q 2594 3103 2138 3103 
Q 1681 3103 1420 2742 
Q 1159 2381 1159 1747 
Q 1159 1113 1420 752 
Q 1681 391 2138 391 
Q 2594 391 2855 752 
Q 3116 1113 3116 1747 
z
M 1159 2969 
Q 1341 3281 1617 3432 
Q 1894 3584 2278 3584 
Q 2916 3584 3314 3078 
Q 3713 2572 3713 1747 
Q 3713 922 3314 415 
Q 2916 -91 2278 -91 
Q 1894 -91 1617 61 
Q 1341 213 1159 525 
L 1159 0 
L 581 0 
L 581 4863 
L 1159 4863 
L 1159 2969 
z
" id="DejaVuSans-62" transform="scale(0.015625)"/>
       <path d="M 2194 1759 
Q 1497 1759 1228 1600 
Q 959 1441 959 1056 
Q 959 750 1161 570 
Q 1363 391 1709 391 
Q 2188 391 2477 730 
Q 2766 1069 2766 1631 
L 2766 1759 
L 2194 1759 
z
M 3341 1997 
L 3341 0 
L 2766 0 
L 2766 531 
Q 2569 213 2275 61 
Q 1981 -91 1556 -91 
Q 1019 -91 701 211 
Q 384 513 384 1019 
Q 384 1609 779 1909 
Q 1175 2209 1959 2209 
L 2766 2209 
L 2766 2266 
Q 2766 2663 2505 2880 
Q 2244 3097 1772 3097 
Q 1472 3097 1187 3025 
Q 903 2953 641 2809 
L 641 3341 
Q 956 3463 1253 3523 
Q 1550 3584 1831 3584 
Q 2591 3584 2966 3190 
Q 3341 2797 3341 1997 
z
" id="DejaVuSans-61" transform="scale(0.015625)"/>
       <path id="DejaVuSans-20" transform="scale(0.015625)"/>
       <path d="M 4122 4306 
L 4122 3641 
Q 3803 3938 3442 4084 
Q 3081 4231 2675 4231 
Q 1875 4231 1450 3742 
Q 1025 3253 1025 2328 
Q 1025 1406 1450 917 
Q 1875 428 2675 428 
Q 3081 428 3442 575 
Q 3803 722 4122 1019 
L 4122 359 
Q 3791 134 3420 21 
Q 3050 -91 2638 -91 
Q 1578 -91 968 557 
Q 359 1206 359 2328 
Q 359 3453 968 4101 
Q 1578 4750 2638 4750 
Q 3056 4750 3426 4639 
Q 3797 4528 4122 4306 
z
" id="DejaVuSans-43" transform="scale(0.015625)"/>
       <path d="M 3328 2828 
Q 3544 3216 3844 3400 
Q 4144 3584 4550 3584 
Q 5097 3584 5394 3201 
Q 5691 2819 5691 2113 
L 5691 0 
L 5113 0 
L 5113 2094 
Q 5113 2597 4934 2840 
Q 4756 3084 4391 3084 
Q 3944 3084 3684 2787 
Q 3425 2491 3425 1978 
L 3425 0 
L 2847 0 
L 2847 2094 
Q 2847 2600 2669 2842 
Q 2491 3084 2119 3084 
Q 1678 3084 1418 2786 
Q 1159 2488 1159 1978 
L 1159 0 
L 581 0 
L 581 3500 
L 1159 3500 
L 1159 2956 
Q 1356 3278 1631 3431 
Q 1906 3584 2284 3584 
Q 2666 3584 2933 3390 
Q 3200 3197 3328 2828 
z
" id="DejaVuSans-6d" transform="scale(0.015625)"/>
       <path d="M 544 1381 
L 544 3500 
L 1119 3500 
L 1119 1403 
Q 1119 906 1312 657 
Q 1506 409 1894 409 
Q 2359 409 2629 706 
Q 2900 1003 2900 1516 
L 2900 3500 
L 3475 3500 
L 3475 0 
L 2900 0 
L 2900 538 
Q 2691 219 2414 64 
Q 2138 -91 1772 -91 
Q 1169 -91 856 284 
Q 544 659 544 1381 
z
M 1991 3584 
L 1991 3584 
z
" id="DejaVuSans-75" transform="scale(0.015625)"/>
       <path d="M 3513 2113 
L 3513 0 
L 2938 0 
L 2938 2094 
Q 2938 2591 2744 2837 
Q 2550 3084 2163 3084 
Q 1697 3084 1428 2787 
Q 1159 2491 1159 1978 
L 1159 0 
L 581 0 
L 581 3500 
L 1159 3500 
L 1159 2956 
Q 1366 3272 1645 3428 
Q 1925 3584 2291 3584 
Q 2894 3584 3203 3211 
Q 3513 2838 3513 2113 
z
" id="DejaVuSans-6e" transform="scale(0.015625)"/>
       <path d="M 603 3500 
L 1178 3500 
L 1178 0 
L 603 0 
L 603 3500 
z
M 603 4863 
L 1178 4863 
L 1178 4134 
L 603 4134 
L 603 4863 
z
" id="DejaVuSans-69" transform="scale(0.015625)"/>
       <path d="M 3122 3366 
L 3122 2828 
Q 2878 2963 2633 3030 
Q 2388 3097 2138 3097 
Q 1578 3097 1268 2742 
Q 959 2388 959 1747 
Q 959 1106 1268 751 
Q 1578 397 2138 397 
Q 2388 397 2633 464 
Q 2878 531 3122 666 
L 3122 134 
Q 2881 22 2623 -34 
Q 2366 -91 2075 -91 
Q 1284 -91 818 406 
Q 353 903 353 1747 
Q 353 2603 823 3093 
Q 1294 3584 2113 3584 
Q 2378 3584 2631 3529 
Q 2884 3475 3122 3366 
z
" id="DejaVuSans-63" transform="scale(0.015625)"/>
       <path d="M 1172 4494 
L 1172 3500 
L 2356 3500 
L 2356 3053 
L 1172 3053 
L 1172 1153 
Q 1172 725 1289 603 
Q 1406 481 1766 481 
L 2356 481 
L 2356 0 
L 1766 0 
Q 1100 0 847 248 
Q 594 497 594 1153 
L 594 3053 
L 172 3053 
L 172 3500 
L 594 3500 
L 594 4494 
L 1172 4494 
z
" id="DejaVuSans-74" transform="scale(0.015625)"/>
       <path d="M 2841 2188 
Q 3044 2119 3236 1894 
Q 3428 1669 3622 1275 
L 4263 0 
L 3584 0 
L 2988 1197 
Q 2756 1666 2539 1819 
Q 2322 1972 1947 1972 
L 1259 1972 
L 1259 0 
L 628 0 
L 628 4666 
L 2053 4666 
Q 2853 4666 3247 4331 
Q 3641 3997 3641 3322 
Q 3641 2881 3436 2590 
Q 3231 2300 2841 2188 
z
M 1259 4147 
L 1259 2491 
L 2053 2491 
Q 2509 2491 2742 2702 
Q 2975 2913 2975 3322 
Q 2975 3731 2742 3939 
Q 2509 4147 2053 4147 
L 1259 4147 
z
" id="DejaVuSans-52" transform="scale(0.015625)"/>
       <path d="M 2906 2969 
L 2906 4863 
L 3481 4863 
L 3481 0 
L 2906 0 
L 2906 525 
Q 2725 213 2448 61 
Q 2172 -91 1784 -91 
Q 1150 -91 751 415 
Q 353 922 353 1747 
Q 353 2572 751 3078 
Q 1150 3584 1784 3584 
Q 2172 3584 2448 3432 
Q 2725 3281 2906 2969 
z
M 947 1747 
Q 947 1113 1208 752 
Q 1469 391 1925 391 
Q 2381 391 2643 752 
Q 2906 1113 2906 1747 
Q 2906 2381 2643 2742 
Q 2381 3103 1925 3103 
Q 1469 3103 1208 2742 
Q 947 2381 947 1747 
z
" id="DejaVuSans-64" transform="scale(0.015625)"/>
       <path d="M 2834 3397 
L 2834 2853 
Q 2591 2978 2328 3040 
Q 2066 3103 1784 3103 
Q 1356 3103 1142 2972 
Q 928 2841 928 2578 
Q 928 2378 1081 2264 
Q 1234 2150 1697 2047 
L 1894 2003 
Q 2506 1872 2764 1633 
Q 3022 1394 3022 966 
Q 3022 478 2636 193 
Q 2250 -91 1575 -91 
Q 1294 -91 989 -36 
Q 684 19 347 128 
L 347 722 
Q 666 556 975 473 
Q 1284 391 1588 391 
Q 1994 391 2212 530 
Q 2431 669 2431 922 
Q 2431 1156 2273 1281 
Q 2116 1406 1581 1522 
L 1381 1569 
Q 847 1681 609 1914 
Q 372 2147 372 2553 
Q 372 3047 722 3315 
Q 1072 3584 1716 3584 
Q 2034 3584 2315 3537 
Q 2597 3491 2834 3397 
z
" id="DejaVuSans-73" transform="scale(0.015625)"/>
      </defs>
      <use xlink:href="#DejaVuSans-47"/>
      <use x="77.490234" xlink:href="#DejaVuSans-6c"/>
      <use x="105.273438" xlink:href="#DejaVuSans-6f"/>
      <use x="166.455078" xlink:href="#DejaVuSans-62"/>
      <use x="229.931641" xlink:href="#DejaVuSans-61"/>
      <use x="291.210938" xlink:href="#DejaVuSans-6c"/>
      <use x="318.994141" xlink:href="#DejaVuSans-20"/>
      <use x="350.78125" xlink:href="#DejaVuSans-43"/>
      <use x="420.605469" xlink:href="#DejaVuSans-6f"/>
      <use x="481.787109" xlink:href="#DejaVuSans-6d"/>
      <use x="579.199219" xlink:href="#DejaVuSans-6d"/>
      <use x="676.611328" xlink:href="#DejaVuSans-75"/>
      <use x="739.990234" xlink:href="#DejaVuSans-6e"/>
      <use x="803.369141" xlink:href="#DejaVuSans-69"/>
      <use x="831.152344" xlink:href="#DejaVuSans-63"/>
      <use x="886.132812" xlink:href="#DejaVuSans-61"/>
      <use x="947.412109" xlink:href="#DejaVuSans-74"/>
      <use x="986.621094" xlink:href="#DejaVuSans-69"/>
      <use x="1014.404297" xlink:href="#DejaVuSans-6f"/>
      <use x="1075.585938" xlink:href="#DejaVuSans-6e"/>
      <use x="1138.964844" xlink:href="#DejaVuSans-20"/>
      <use x="1170.751953" xlink:href="#DejaVuSans-52"/>
      <use x="1235.734375" xlink:href="#DejaVuSans-6f"/>
      <use x="1296.916016" xlink:href="#DejaVuSans-75"/>
      <use x="1360.294922" xlink:href="#DejaVuSans-6e"/>
      <use x="1423.673828" xlink:href="#DejaVuSans-64"/>
      <use x="1487.150391" xlink:href="#DejaVuSans-73"/>
     </g>
    </g>
   </g>
   <g id="matplotlib.axis_2">
    <g id="ytick_1">
     <g id="line2d_13">
      <path clip-path="url(#p7df1a8699c)" d="M 53.93 267.628262 
L 366.25 267.628262 
" style="fill:none;stroke:#b0b0b0;stroke-linecap:square;stroke-width:0.8;"/>
     </g>
     <g id="line2d_14">
      <defs>
       <path d="M 0 0 
L -3.5 0 
" id="me62079523b" style="stroke:#000000;stroke-width:0.8;"/>
      </defs>
      <g>
       <use style="stroke:#000000;stroke-width:0.8;" x="53.93" xlink:href="#me62079523b" y="267.628262"/>
      </g>
     </g>
     <g id="text_8">
      <!-- 0.25 -->
      <g transform="translate(24.664375 271.427481)scale(0.1 -0.1)">
       <defs>
        <path d="M 684 794 
L 1344 794 
L 1344 0 
L 684 0 
L 684 794 
z
" id="DejaVuSans-2e" transform="scale(0.015625)"/>
       </defs>
       <use xlink:href="#DejaVuSans-30"/>
       <use x="63.623047" xlink:href="#DejaVuSans-2e"/>
       <use x="95.410156" xlink:href="#DejaVuSans-32"/>
       <use x="159.033203" xlink:href="#DejaVuSans-35"/>
      </g>
     </g>
    </g>
    <g id="ytick_2">
     <g id="line2d_15">
      <path clip-path="url(#p7df1a8699c)" d="M 53.93 223.347758 
L 366.25 223.347758 
" style="fill:none;stroke:#b0b0b0;stroke-linecap:square;stroke-width:0.8;"/>
     </g>
     <g id="line2d_16">
      <g>
       <use style="stroke:#000000;stroke-width:0.8;" x="53.93" xlink:href="#me62079523b" y="223.347758"/>
      </g>
     </g>
     <g id="text_9">
      <!-- 0.30 -->
      <g transform="translate(24.664375 227.146977)scale(0.1 -0.1)">
       <use xlink:href="#DejaVuSans-30"/>
       <use x="63.623047" xlink:href="#DejaVuSans-2e"/>
       <use x="95.410156" xlink:href="#DejaVuSans-33"/>
       <use x="159.033203" xlink:href="#DejaVuSans-30"/>
      </g>
     </g>
    </g>
    <g id="ytick_3">
     <g id="line2d_17">
      <path clip-path="url(#p7df1a8699c)" d="M 53.93 179.067254 
L 366.25 179.067254 
" style="fill:none;stroke:#b0b0b0;stroke-linecap:square;stroke-width:0.8;"/>
     </g>
     <g id="line2d_18">
      <g>
       <use style="stroke:#000000;stroke-width:0.8;" x="53.93" xlink:href="#me62079523b" y="179.067254"/>
      </g>
     </g>
     <g id="text_10">
      <!-- 0.35 -->
      <g transform="translate(24.664375 182.866473)scale(0.1 -0.1)">
       <use xlink:href="#DejaVuSans-30"/>
       <use x="63.623047" xlink:href="#DejaVuSans-2e"/>
       <use x="95.410156" xlink:href="#DejaVuSans-33"/>
       <use x="159.033203" xlink:href="#DejaVuSans-35"/>
      </g>
     </g>
    </g>
    <g id="ytick_4">
     <g id="line2d_19">
      <path clip-path="url(#p7df1a8699c)" d="M 53.93 134.786751 
L 366.25 134.786751 
" style="fill:none;stroke:#b0b0b0;stroke-linecap:square;stroke-width:0.8;"/>
     </g>
     <g id="line2d_20">
      <g>
       <use style="stroke:#000000;stroke-width:0.8;" x="53.93" xlink:href="#me62079523b" y="134.786751"/>
      </g>
     </g>
     <g id="text_11">
      <!-- 0.40 -->
      <g transform="translate(24.664375 138.585969)scale(0.1 -0.1)">
       <use xlink:href="#DejaVuSans-30"/>
       <use x="63.623047" xlink:href="#DejaVuSans-2e"/>
       <use x="95.410156" xlink:href="#DejaVuSans-34"/>
       <use x="159.033203" xlink:href="#DejaVuSans-30"/>
      </g>
     </g>
    </g>
    <g id="ytick_5">
     <g id="line2d_21">
      <path clip-path="url(#p7df1a8699c)" d="M 53.93 90.506247 
L 366.25 90.506247 
" style="fill:none;stroke:#b0b0b0;stroke-linecap:square;stroke-width:0.8;"/>
     </g>
     <g id="line2d_22">
      <g>
       <use style="stroke:#000000;stroke-width:0.8;" x="53.93" xlink:href="#me62079523b" y="90.506247"/>
      </g>
     </g>
     <g id="text_12">
      <!-- 0.45 -->
      <g transform="translate(24.664375 94.305466)scale(0.1 -0.1)">
       <use xlink:href="#DejaVuSans-30"/>
       <use x="63.623047" xlink:href="#DejaVuSans-2e"/>
       <use x="95.410156" xlink:href="#DejaVuSans-34"/>
       <use x="159.033203" xlink:href="#DejaVuSans-35"/>
      </g>
     </g>
    </g>
    <g id="ytick_6">
     <g id="line2d_23">
      <path clip-path="url(#p7df1a8699c)" d="M 53.93 46.225743 
L 366.25 46.225743 
" style="fill:none;stroke:#b0b0b0;stroke-linecap:square;stroke-width:0.8;"/>
     </g>
     <g id="line2d_24">
      <g>
       <use style="stroke:#000000;stroke-width:0.8;" x="53.93" xlink:href="#me62079523b" y="46.225743"/>
      </g>
     </g>
     <g id="text_13">
      <!-- 0.50 -->
      <g transform="translate(24.664375 50.024962)scale(0.1 -0.1)">
       <use xlink:href="#DejaVuSans-30"/>
       <use x="63.623047" xlink:href="#DejaVuSans-2e"/>
       <use x="95.410156" xlink:href="#DejaVuSans-35"/>
       <use x="159.033203" xlink:href="#DejaVuSans-30"/>
      </g>
     </g>
    </g>
    <g id="text_14">
     <!-- Test Accuracy -->
     <g transform="translate(18.584688 199.5225)rotate(-90)scale(0.1 -0.1)">
      <defs>
       <path d="M -19 4666 
L 3928 4666 
L 3928 4134 
L 2272 4134 
L 2272 0 
L 1638 0 
L 1638 4134 
L -19 4134 
L -19 4666 
z
" id="DejaVuSans-54" transform="scale(0.015625)"/>
       <path d="M 3597 1894 
L 3597 1613 
L 953 1613 
Q 991 1019 1311 708 
Q 1631 397 2203 397 
Q 2534 397 2845 478 
Q 3156 559 3463 722 
L 3463 178 
Q 3153 47 2828 -22 
Q 2503 -91 2169 -91 
Q 1331 -91 842 396 
Q 353 884 353 1716 
Q 353 2575 817 3079 
Q 1281 3584 2069 3584 
Q 2775 3584 3186 3129 
Q 3597 2675 3597 1894 
z
M 3022 2063 
Q 3016 2534 2758 2815 
Q 2500 3097 2075 3097 
Q 1594 3097 1305 2825 
Q 1016 2553 972 2059 
L 3022 2063 
z
" id="DejaVuSans-65" transform="scale(0.015625)"/>
       <path d="M 2188 4044 
L 1331 1722 
L 3047 1722 
L 2188 4044 
z
M 1831 4666 
L 2547 4666 
L 4325 0 
L 3669 0 
L 3244 1197 
L 1141 1197 
L 716 0 
L 50 0 
L 1831 4666 
z
" id="DejaVuSans-41" transform="scale(0.015625)"/>
       <path d="M 2631 2963 
Q 2534 3019 2420 3045 
Q 2306 3072 2169 3072 
Q 1681 3072 1420 2755 
Q 1159 2438 1159 1844 
L 1159 0 
L 581 0 
L 581 3500 
L 1159 3500 
L 1159 2956 
Q 1341 3275 1631 3429 
Q 1922 3584 2338 3584 
Q 2397 3584 2469 3576 
Q 2541 3569 2628 3553 
L 2631 2963 
z
" id="DejaVuSans-72" transform="scale(0.015625)"/>
       <path d="M 2059 -325 
Q 1816 -950 1584 -1140 
Q 1353 -1331 966 -1331 
L 506 -1331 
L 506 -850 
L 844 -850 
Q 1081 -850 1212 -737 
Q 1344 -625 1503 -206 
L 1606 56 
L 191 3500 
L 800 3500 
L 1894 763 
L 2988 3500 
L 3597 3500 
L 2059 -325 
z
" id="DejaVuSans-79" transform="scale(0.015625)"/>
      </defs>
      <use xlink:href="#DejaVuSans-54"/>
      <use x="44.083984" xlink:href="#DejaVuSans-65"/>
      <use x="105.607422" xlink:href="#DejaVuSans-73"/>
      <use x="157.707031" xlink:href="#DejaVuSans-74"/>
      <use x="196.916016" xlink:href="#DejaVuSans-20"/>
      <use x="228.703125" xlink:href="#DejaVuSans-41"/>
      <use x="295.361328" xlink:href="#DejaVuSans-63"/>
      <use x="350.341797" xlink:href="#DejaVuSans-63"/>
      <use x="405.322266" xlink:href="#DejaVuSans-75"/>
      <use x="468.701172" xlink:href="#DejaVuSans-72"/>
      <use x="509.814453" xlink:href="#DejaVuSans-61"/>
      <use x="571.09375" xlink:href="#DejaVuSans-63"/>
      <use x="626.074219" xlink:href="#DejaVuSans-79"/>
     </g>
    </g>
   </g>
   <g id="line2d_25">
    <path clip-path="url(#p7df1a8699c)" d="M 68.126364 280.097783 
L 73.920798 243.751184 
L 79.715232 211.678136 
L 85.509666 194.729521 
L 91.3041 181.660504 
L 97.098534 170.227254 
L 102.892968 164.069572 
L 108.687403 155.368312 
L 114.481837 149.099295 
L 120.276271 140.552191 
L 126.070705 135.627758 
L 131.865139 127.346146 
L 137.659573 123.243879 
L 143.454007 120.032292 
L 149.248442 115.852947 
L 155.042876 111.956222 
L 160.83731 106.355214 
L 166.631744 103.657481 
L 172.426178 96.694761 
L 178.220612 94.981914 
L 184.015046 92.189975 
L 189.809481 89.398035 
L 195.603915 88.044887 
L 201.398349 84.670579 
L 207.192783 82.221209 
L 212.987217 79.626247 
L 218.781651 77.048413 
L 224.576085 75.378388 
L 230.370519 73.605592 
L 236.164954 71.473098 
L 241.959388 69.39199 
L 247.753822 66.779899 
L 253.548256 65.726499 
L 259.34269 65.007103 
L 265.137124 61.615668 
L 270.931558 61.067557 
L 276.725993 58.712393 
L 282.520427 57.924484 
L 288.314861 56.776877 
L 294.109295 53.265542 
L 299.903729 53.830781 
L 305.698163 52.22927 
L 311.492597 49.737078 
L 317.287032 49.582922 
L 323.081466 47.561763 
L 328.8759 45.771839 
L 334.670334 44.221713 
L 340.464768 44.273098 
L 346.259202 43.014156 
L 352.053636 40.830277 
" style="fill:none;stroke:#1f77b4;stroke-linecap:square;stroke-width:1.5;"/>
   </g>
   <g id="line2d_26">
    <path clip-path="url(#p7df1a8699c)" d="M 68.126364 285.630277 
L 73.920798 245.652443 
L 79.715232 222.717431 
L 85.509666 199.688212 
L 91.3041 189.933552 
L 97.098534 181.335063 
L 102.892968 168.368816 
L 108.687403 162.605088 
L 114.481837 152.233804 
L 120.276271 147.480655 
L 126.070705 141.477128 
L 131.865139 136.629773 
L 137.659573 132.321965 
L 143.454007 126.267053 
L 149.248442 121.873602 
L 155.042876 117.634307 
L 160.83731 113.343627 
L 166.631744 111.553703 
L 172.426178 107.862519 
L 178.220612 103.931537 
L 184.015046 100.839849 
L 189.809481 98.467557 
L 195.603915 94.964786 
L 201.398349 91.873098 
L 207.192783 90.365793 
L 212.987217 88.67864 
L 218.781651 86.066549 
L 224.576085 84.713401 
L 230.370519 83.171839 
L 236.164954 80.54262 
L 241.959388 78.187456 
L 247.753822 76.157733 
L 253.548256 75.07864 
L 259.34269 75.001562 
L 265.137124 71.2333 
L 270.931558 71.567305 
L 276.725993 69.16932 
L 282.520427 69.186448 
L 288.314861 68.467053 
L 294.109295 64.998539 
L 299.903729 63.850932 
L 305.698163 64.630277 
L 311.492597 61.341612 
L 317.287032 60.356725 
L 323.081466 58.070076 
L 328.8759 59.054962 
L 334.670334 57.470579 
L 340.464768 57.504836 
L 346.259202 55.038338 
L 352.053636 54.301814 
" style="fill:none;stroke:#ff7f0e;stroke-linecap:square;stroke-width:1.5;"/>
   </g>
   <g id="line2d_27">
    <path clip-path="url(#p7df1a8699c)" d="M 68.126364 280.714408 
L 73.920798 243.639849 
L 79.715232 224.147657 
L 85.509666 208.132544 
L 91.3041 198.095264 
L 97.098534 185.163275 
L 102.892968 169.370831 
L 108.687403 158.23733 
L 114.481837 155.625239 
L 120.276271 147.617683 
L 126.070705 143.267053 
L 131.865139 134.300302 
L 137.659573 129.427254 
L 143.454007 124.939597 
L 149.248442 123.646398 
L 155.042876 114.080151 
L 160.83731 110.765793 
L 166.631744 106.85194 
L 172.426178 102.826751 
L 178.220612 101.096776 
L 184.015046 95.692746 
L 189.809481 94.348161 
L 195.603915 90.425743 
L 201.398349 88.498791 
L 207.192783 86.16932 
L 212.987217 84.910378 
L 218.781651 80.688212 
L 224.576085 78.341612 
L 230.370519 76.106348 
L 236.164954 73.305844 
L 241.959388 72.432292 
L 247.753822 68.758237 
L 253.548256 70.513904 
L 259.34269 66.21466 
L 265.137124 64.707355 
L 270.931558 62.59199 
L 276.725993 62.968816 
L 282.520427 58.618186 
L 288.314861 57.821713 
L 294.109295 55.85194 
L 299.903729 55.663526 
L 305.698163 53.162771 
L 311.492597 52.948665 
L 317.287032 50.250932 
L 323.081466 50.071083 
L 328.8759 48.777884 
L 334.670334 47.707355 
L 340.464768 46.354207 
L 346.259202 45.215164 
L 352.053636 44.221713 
" style="fill:none;stroke:#2ca02c;stroke-linecap:square;stroke-width:1.5;"/>
   </g>
   <g id="line2d_28">
    <path clip-path="url(#p7df1a8699c)" d="M 68.126364 286.212645 
L 73.920798 240.205592 
L 79.715232 218.152695 
L 85.509666 197.495768 
L 91.3041 185.976877 
L 97.098534 170.201562 
L 102.892968 164.052443 
L 108.687403 155.051436 
L 114.481837 144.731537 
L 120.276271 140.089723 
L 126.070705 137.212141 
L 131.865139 130.223728 
L 137.659573 123.072594 
L 143.454007 119.94665 
L 149.248442 115.578892 
L 155.042876 111.836322 
L 160.83731 108.539093 
L 166.631744 102.852443 
L 172.426178 101.079647 
L 178.220612 97.619698 
L 184.015046 95.110378 
L 189.809481 91.907355 
L 195.603915 88.404584 
L 201.398349 84.216675 
L 207.192783 82.863526 
L 212.987217 81.330529 
L 218.781651 78.076121 
L 224.576085 76.123476 
L 230.370519 74.273602 
L 236.164954 72.680655 
L 241.959388 71.190479 
L 247.753822 70.197028 
L 253.548256 67.704836 
L 259.34269 66.37738 
L 265.137124 64.424736 
L 270.931558 62.489219 
L 276.725993 61.058992 
L 282.520427 58.601058 
L 288.314861 58.455466 
L 294.109295 56.734055 
L 299.903729 55.355214 
L 305.698163 53.599547 
L 311.492597 52.77738 
L 317.287032 50.696272 
L 323.081466 49.582922 
L 328.8759 48.049924 
L 334.670334 46.979395 
L 340.464768 46.225743 
L 346.259202 44.016171 
L 352.053636 44.016171 
" style="fill:none;stroke:#d62728;stroke-linecap:square;stroke-width:1.5;"/>
   </g>
   <g id="patch_3">
    <path d="M 53.93 303.64 
L 53.93 26.88 
" style="fill:none;stroke:#000000;stroke-linecap:square;stroke-linejoin:miter;stroke-width:0.8;"/>
   </g>
   <g id="patch_4">
    <path d="M 366.25 303.64 
L 366.25 26.88 
" style="fill:none;stroke:#000000;stroke-linecap:square;stroke-linejoin:miter;stroke-width:0.8;"/>
   </g>
   <g id="patch_5">
    <path d="M 53.93 303.64 
L 366.25 303.64 
" style="fill:none;stroke:#000000;stroke-linecap:square;stroke-linejoin:miter;stroke-width:0.8;"/>
   </g>
   <g id="patch_6">
    <path d="M 53.93 26.88 
L 366.25 26.88 
" style="fill:none;stroke:#000000;stroke-linecap:square;stroke-linejoin:miter;stroke-width:0.8;"/>
   </g>
   <g id="text_15">
    <!-- Shakespeare Local Rounds 01 -->
    <g transform="translate(120.508125 20.88)scale(0.12 -0.12)">
     <defs>
      <path d="M 3425 4513 
L 3425 3897 
Q 3066 4069 2747 4153 
Q 2428 4238 2131 4238 
Q 1616 4238 1336 4038 
Q 1056 3838 1056 3469 
Q 1056 3159 1242 3001 
Q 1428 2844 1947 2747 
L 2328 2669 
Q 3034 2534 3370 2195 
Q 3706 1856 3706 1288 
Q 3706 609 3251 259 
Q 2797 -91 1919 -91 
Q 1588 -91 1214 -16 
Q 841 59 441 206 
L 441 856 
Q 825 641 1194 531 
Q 1563 422 1919 422 
Q 2459 422 2753 634 
Q 3047 847 3047 1241 
Q 3047 1584 2836 1778 
Q 2625 1972 2144 2069 
L 1759 2144 
Q 1053 2284 737 2584 
Q 422 2884 422 3419 
Q 422 4038 858 4394 
Q 1294 4750 2059 4750 
Q 2388 4750 2728 4690 
Q 3069 4631 3425 4513 
z
" id="DejaVuSans-53" transform="scale(0.015625)"/>
      <path d="M 3513 2113 
L 3513 0 
L 2938 0 
L 2938 2094 
Q 2938 2591 2744 2837 
Q 2550 3084 2163 3084 
Q 1697 3084 1428 2787 
Q 1159 2491 1159 1978 
L 1159 0 
L 581 0 
L 581 4863 
L 1159 4863 
L 1159 2956 
Q 1366 3272 1645 3428 
Q 1925 3584 2291 3584 
Q 2894 3584 3203 3211 
Q 3513 2838 3513 2113 
z
" id="DejaVuSans-68" transform="scale(0.015625)"/>
      <path d="M 581 4863 
L 1159 4863 
L 1159 1991 
L 2875 3500 
L 3609 3500 
L 1753 1863 
L 3688 0 
L 2938 0 
L 1159 1709 
L 1159 0 
L 581 0 
L 581 4863 
z
" id="DejaVuSans-6b" transform="scale(0.015625)"/>
      <path d="M 1159 525 
L 1159 -1331 
L 581 -1331 
L 581 3500 
L 1159 3500 
L 1159 2969 
Q 1341 3281 1617 3432 
Q 1894 3584 2278 3584 
Q 2916 3584 3314 3078 
Q 3713 2572 3713 1747 
Q 3713 922 3314 415 
Q 2916 -91 2278 -91 
Q 1894 -91 1617 61 
Q 1341 213 1159 525 
z
M 3116 1747 
Q 3116 2381 2855 2742 
Q 2594 3103 2138 3103 
Q 1681 3103 1420 2742 
Q 1159 2381 1159 1747 
Q 1159 1113 1420 752 
Q 1681 391 2138 391 
Q 2594 391 2855 752 
Q 3116 1113 3116 1747 
z
" id="DejaVuSans-70" transform="scale(0.015625)"/>
      <path d="M 628 4666 
L 1259 4666 
L 1259 531 
L 3531 531 
L 3531 0 
L 628 0 
L 628 4666 
z
" id="DejaVuSans-4c" transform="scale(0.015625)"/>
     </defs>
     <use xlink:href="#DejaVuSans-53"/>
     <use x="63.476562" xlink:href="#DejaVuSans-68"/>
     <use x="126.855469" xlink:href="#DejaVuSans-61"/>
     <use x="188.134766" xlink:href="#DejaVuSans-6b"/>
     <use x="242.419922" xlink:href="#DejaVuSans-65"/>
     <use x="303.943359" xlink:href="#DejaVuSans-73"/>
     <use x="356.042969" xlink:href="#DejaVuSans-70"/>
     <use x="419.519531" xlink:href="#DejaVuSans-65"/>
     <use x="481.042969" xlink:href="#DejaVuSans-61"/>
     <use x="542.322266" xlink:href="#DejaVuSans-72"/>
     <use x="581.185547" xlink:href="#DejaVuSans-65"/>
     <use x="642.708984" xlink:href="#DejaVuSans-20"/>
     <use x="674.496094" xlink:href="#DejaVuSans-4c"/>
     <use x="728.458984" xlink:href="#DejaVuSans-6f"/>
     <use x="789.640625" xlink:href="#DejaVuSans-63"/>
     <use x="844.621094" xlink:href="#DejaVuSans-61"/>
     <use x="905.900391" xlink:href="#DejaVuSans-6c"/>
     <use x="933.683594" xlink:href="#DejaVuSans-20"/>
     <use x="965.470703" xlink:href="#DejaVuSans-52"/>
     <use x="1030.453125" xlink:href="#DejaVuSans-6f"/>
     <use x="1091.634766" xlink:href="#DejaVuSans-75"/>
     <use x="1155.013672" xlink:href="#DejaVuSans-6e"/>
     <use x="1218.392578" xlink:href="#DejaVuSans-64"/>
     <use x="1281.869141" xlink:href="#DejaVuSans-73"/>
     <use x="1333.96875" xlink:href="#DejaVuSans-20"/>
     <use x="1365.755859" xlink:href="#DejaVuSans-30"/>
     <use x="1429.378906" xlink:href="#DejaVuSans-31"/>
    </g>
   </g>
   <g id="legend_1">
    <g id="patch_7">
     <path d="M 373.25 196.11625 
L 447.821875 196.11625 
Q 449.821875 196.11625 449.821875 194.11625 
L 449.821875 136.40375 
Q 449.821875 134.40375 447.821875 134.40375 
L 373.25 134.40375 
Q 371.25 134.40375 371.25 136.40375 
L 371.25 194.11625 
Q 371.25 196.11625 373.25 196.11625 
z
" style="fill:#ffffff;opacity:0.8;stroke:#cccccc;stroke-linejoin:miter;"/>
    </g>
    <g id="line2d_29">
     <path d="M 375.25 142.502187 
L 395.25 142.502187 
" style="fill:none;stroke:#1f77b4;stroke-linecap:square;stroke-width:1.5;"/>
    </g>
    <g id="line2d_30"/>
    <g id="text_16">
     <!-- FedAvg -->
     <g transform="translate(403.25 146.002187)scale(0.1 -0.1)">
      <defs>
       <path d="M 628 4666 
L 3309 4666 
L 3309 4134 
L 1259 4134 
L 1259 2759 
L 3109 2759 
L 3109 2228 
L 1259 2228 
L 1259 0 
L 628 0 
L 628 4666 
z
" id="DejaVuSans-46" transform="scale(0.015625)"/>
       <path d="M 191 3500 
L 800 3500 
L 1894 563 
L 2988 3500 
L 3597 3500 
L 2284 0 
L 1503 0 
L 191 3500 
z
" id="DejaVuSans-76" transform="scale(0.015625)"/>
       <path d="M 2906 1791 
Q 2906 2416 2648 2759 
Q 2391 3103 1925 3103 
Q 1463 3103 1205 2759 
Q 947 2416 947 1791 
Q 947 1169 1205 825 
Q 1463 481 1925 481 
Q 2391 481 2648 825 
Q 2906 1169 2906 1791 
z
M 3481 434 
Q 3481 -459 3084 -895 
Q 2688 -1331 1869 -1331 
Q 1566 -1331 1297 -1286 
Q 1028 -1241 775 -1147 
L 775 -588 
Q 1028 -725 1275 -790 
Q 1522 -856 1778 -856 
Q 2344 -856 2625 -561 
Q 2906 -266 2906 331 
L 2906 616 
Q 2728 306 2450 153 
Q 2172 0 1784 0 
Q 1141 0 747 490 
Q 353 981 353 1791 
Q 353 2603 747 3093 
Q 1141 3584 1784 3584 
Q 2172 3584 2450 3431 
Q 2728 3278 2906 2969 
L 2906 3500 
L 3481 3500 
L 3481 434 
z
" id="DejaVuSans-67" transform="scale(0.015625)"/>
      </defs>
      <use xlink:href="#DejaVuSans-46"/>
      <use x="52.019531" xlink:href="#DejaVuSans-65"/>
      <use x="113.542969" xlink:href="#DejaVuSans-64"/>
      <use x="177.019531" xlink:href="#DejaVuSans-41"/>
      <use x="239.552734" xlink:href="#DejaVuSans-76"/>
      <use x="298.732422" xlink:href="#DejaVuSans-67"/>
     </g>
    </g>
    <g id="line2d_31">
     <path d="M 375.25 157.180312 
L 395.25 157.180312 
" style="fill:none;stroke:#ff7f0e;stroke-linecap:square;stroke-width:1.5;"/>
    </g>
    <g id="line2d_32"/>
    <g id="text_17">
     <!-- FedMed -->
     <g transform="translate(403.25 160.680312)scale(0.1 -0.1)">
      <defs>
       <path d="M 628 4666 
L 1569 4666 
L 2759 1491 
L 3956 4666 
L 4897 4666 
L 4897 0 
L 4281 0 
L 4281 4097 
L 3078 897 
L 2444 897 
L 1241 4097 
L 1241 0 
L 628 0 
L 628 4666 
z
" id="DejaVuSans-4d" transform="scale(0.015625)"/>
      </defs>
      <use xlink:href="#DejaVuSans-46"/>
      <use x="52.019531" xlink:href="#DejaVuSans-65"/>
      <use x="113.542969" xlink:href="#DejaVuSans-64"/>
      <use x="177.019531" xlink:href="#DejaVuSans-4d"/>
      <use x="263.298828" xlink:href="#DejaVuSans-65"/>
      <use x="324.822266" xlink:href="#DejaVuSans-64"/>
     </g>
    </g>
    <g id="line2d_33">
     <path d="M 375.25 171.858437 
L 395.25 171.858437 
" style="fill:none;stroke:#2ca02c;stroke-linecap:square;stroke-width:1.5;"/>
    </g>
    <g id="line2d_34"/>
    <g id="text_18">
     <!-- FedProx -->
     <g transform="translate(403.25 175.358437)scale(0.1 -0.1)">
      <defs>
       <path d="M 1259 4147 
L 1259 2394 
L 2053 2394 
Q 2494 2394 2734 2622 
Q 2975 2850 2975 3272 
Q 2975 3691 2734 3919 
Q 2494 4147 2053 4147 
L 1259 4147 
z
M 628 4666 
L 2053 4666 
Q 2838 4666 3239 4311 
Q 3641 3956 3641 3272 
Q 3641 2581 3239 2228 
Q 2838 1875 2053 1875 
L 1259 1875 
L 1259 0 
L 628 0 
L 628 4666 
z
" id="DejaVuSans-50" transform="scale(0.015625)"/>
       <path d="M 3513 3500 
L 2247 1797 
L 3578 0 
L 2900 0 
L 1881 1375 
L 863 0 
L 184 0 
L 1544 1831 
L 300 3500 
L 978 3500 
L 1906 2253 
L 2834 3500 
L 3513 3500 
z
" id="DejaVuSans-78" transform="scale(0.015625)"/>
      </defs>
      <use xlink:href="#DejaVuSans-46"/>
      <use x="52.019531" xlink:href="#DejaVuSans-65"/>
      <use x="113.542969" xlink:href="#DejaVuSans-64"/>
      <use x="177.019531" xlink:href="#DejaVuSans-50"/>
      <use x="235.572266" xlink:href="#DejaVuSans-72"/>
      <use x="274.435547" xlink:href="#DejaVuSans-6f"/>
      <use x="332.492188" xlink:href="#DejaVuSans-78"/>
     </g>
    </g>
    <g id="line2d_35">
     <path d="M 375.25 186.536563 
L 395.25 186.536563 
" style="fill:none;stroke:#d62728;stroke-linecap:square;stroke-width:1.5;"/>
    </g>
    <g id="line2d_36"/>
    <g id="text_19">
     <!-- qFedAvg -->
     <g transform="translate(403.25 190.036563)scale(0.1 -0.1)">
      <defs>
       <path d="M 947 1747 
Q 947 1113 1208 752 
Q 1469 391 1925 391 
Q 2381 391 2643 752 
Q 2906 1113 2906 1747 
Q 2906 2381 2643 2742 
Q 2381 3103 1925 3103 
Q 1469 3103 1208 2742 
Q 947 2381 947 1747 
z
M 2906 525 
Q 2725 213 2448 61 
Q 2172 -91 1784 -91 
Q 1150 -91 751 415 
Q 353 922 353 1747 
Q 353 2572 751 3078 
Q 1150 3584 1784 3584 
Q 2172 3584 2448 3432 
Q 2725 3281 2906 2969 
L 2906 3500 
L 3481 3500 
L 3481 -1331 
L 2906 -1331 
L 2906 525 
z
" id="DejaVuSans-71" transform="scale(0.015625)"/>
      </defs>
      <use xlink:href="#DejaVuSans-71"/>
      <use x="63.476562" xlink:href="#DejaVuSans-46"/>
      <use x="115.496094" xlink:href="#DejaVuSans-65"/>
      <use x="177.019531" xlink:href="#DejaVuSans-64"/>
      <use x="240.496094" xlink:href="#DejaVuSans-41"/>
      <use x="303.029297" xlink:href="#DejaVuSans-76"/>
      <use x="362.208984" xlink:href="#DejaVuSans-67"/>
     </g>
    </g>
   </g>
  </g>
 </g>
 <defs>
  <clipPath id="p7df1a8699c">
   <rect height="276.76" width="312.32" x="53.93" y="26.88"/>
  </clipPath>
 </defs>
</svg>
