<?xml version="1.0" encoding="utf-8" standalone="no"?>
<!DOCTYPE svg PUBLIC "-//W3C//DTD SVG 1.1//EN"
  "http://www.w3.org/Graphics/SVG/1.1/DTD/svg11.dtd">
<!-- Created with matplotlib (https://matplotlib.org/) -->
<svg height="432pt" version="1.1" viewBox="0 0 576 432" width="576pt" xmlns="http://www.w3.org/2000/svg" xmlns:xlink="http://www.w3.org/1999/xlink">
 <defs>
  <style type="text/css">
*{stroke-linecap:butt;stroke-linejoin:round;}
  </style>
 </defs>
 <g id="figure_1">
  <g id="patch_1">
   <path d="M 0 432 
L 576 432 
L 576 0 
L 0 0 
z
" style="fill:#ffffff;"/>
  </g>
  <g id="axes_1">
   <g id="patch_2">
    <path d="M 61.2 374.8 
L 556.1 374.8 
L 556.1 56.448219 
L 61.2 56.448219 
z
" style="fill:#ffffff;"/>
   </g>
   <g id="PolyCollection_1">
    <path clip-path="url(#pf216ac2cca)" d="M 83.695455 332.288217 
L 83.695455 359.835203 
L 92.877273 346.962585 
L 102.059091 317.236028 
L 111.240909 335.504516 
L 120.422727 348.66148 
L 129.604545 307.15026 
L 138.786364 298.890221 
L 147.968182 280.845139 
L 157.15 254.956959 
L 166.331818 304.823839 
L 175.513636 251.51697 
L 184.695455 297.281187 
L 193.877273 288.461817 
L 203.059091 233.488659 
L 212.240909 245.285716 
L 221.422727 269.051345 
L 230.604545 261.395433 
L 239.786364 264.176395 
L 248.968182 238.766186 
L 258.15 254.609454 
L 267.331818 260.315262 
L 276.513636 245.197018 
L 285.695455 230.526278 
L 294.877273 260.320943 
L 304.059091 229.694606 
L 313.240909 235.48267 
L 322.422727 213.100482 
L 331.604545 237.572997 
L 340.786364 264.155532 
L 349.968182 223.582789 
L 359.15 208.839117 
L 368.331818 185.634828 
L 377.513636 200.306452 
L 386.695455 212.374858 
L 395.877273 173.685008 
L 405.059091 160.580765 
L 414.240909 216.326552 
L 423.422727 192.660909 
L 432.604545 165.435819 
L 441.786364 185.154132 
L 450.968182 186.376761 
L 460.15 183.595725 
L 469.331818 191.510189 
L 478.513636 172.932221 
L 487.695455 177.391287 
L 496.877273 130.661582 
L 506.059091 207.850867 
L 515.240909 134.60448 
L 524.422727 162.524416 
L 533.604545 144.532556 
L 533.604545 85.60481 
L 533.604545 85.60481 
L 524.422727 70.918754 
L 515.240909 112.061905 
L 506.059091 106.584492 
L 496.877273 88.731923 
L 487.695455 112.66377 
L 478.513636 115.883159 
L 469.331818 134.082257 
L 460.15 134.971888 
L 450.968182 112.769256 
L 441.786364 136.306059 
L 432.604545 129.577944 
L 423.422727 156.485387 
L 414.240909 148.522312 
L 405.059091 130.713968 
L 395.877273 128.766812 
L 386.695455 156.60626 
L 377.513636 158.757255 
L 368.331818 132.932785 
L 359.15 156.422971 
L 349.968182 163.167023 
L 340.786364 151.106836 
L 331.604545 162.40003 
L 322.422727 153.814509 
L 313.240909 159.944877 
L 304.059091 153.336177 
L 294.877273 138.825633 
L 285.695455 192.174148 
L 276.513636 165.933095 
L 267.331818 201.228357 
L 258.15 198.669655 
L 248.968182 191.785524 
L 239.786364 201.499479 
L 230.604545 191.057226 
L 221.422727 203.649361 
L 212.240909 207.580168 
L 203.059091 185.079513 
L 193.877273 197.462104 
L 184.695455 228.725602 
L 175.513636 215.811805 
L 166.331818 249.28228 
L 157.15 247.495979 
L 147.968182 224.087152 
L 138.786364 249.430742 
L 129.604545 268.443584 
L 120.422727 279.411995 
L 111.240909 288.436704 
L 102.059091 287.283596 
L 92.877273 317.061505 
L 83.695455 332.288217 
z
" style="fill:#1f77b4;fill-opacity:0.5;"/>
   </g>
   <g id="PolyCollection_2">
    <path clip-path="url(#pf216ac2cca)" d="M 83.695455 314.195884 
L 83.695455 355.613362 
L 92.877273 351.223055 
L 102.059091 360.329464 
L 111.240909 337.345681 
L 120.422727 350.4234 
L 129.604545 338.102268 
L 138.786364 331.658496 
L 147.968182 338.451796 
L 157.15 312.626364 
L 166.331818 351.105601 
L 175.513636 299.514997 
L 184.695455 325.829313 
L 193.877273 329.894797 
L 203.059091 289.052599 
L 212.240909 303.087162 
L 221.422727 300.117398 
L 230.604545 307.40955 
L 239.786364 346.330425 
L 248.968182 315.933542 
L 258.15 292.760469 
L 267.331818 317.718534 
L 276.513636 325.228817 
L 285.695455 270.296046 
L 294.877273 313.911099 
L 304.059091 297.567491 
L 313.240909 316.897219 
L 322.422727 287.681989 
L 331.604545 330.276668 
L 340.786364 313.759181 
L 349.968182 279.865037 
L 359.15 299.467074 
L 368.331818 293.095772 
L 377.513636 251.167677 
L 386.695455 255.053389 
L 395.877273 250.500407 
L 405.059091 213.339686 
L 414.240909 313.158471 
L 423.422727 245.830388 
L 432.604545 230.47209 
L 441.786364 208.142864 
L 450.968182 213.771376 
L 460.15 253.264154 
L 469.331818 292.130351 
L 478.513636 310.768886 
L 487.695455 293.72608 
L 496.877273 197.049346 
L 506.059091 238.143801 
L 515.240909 234.414156 
L 524.422727 303.098388 
L 533.604545 245.08902 
L 533.604545 160.255938 
L 533.604545 160.255938 
L 524.422727 127.040097 
L 515.240909 148.203402 
L 506.059091 153.564717 
L 496.877273 152.09695 
L 487.695455 151.28852 
L 478.513636 173.502133 
L 469.331818 174.371973 
L 460.15 163.23789 
L 450.968182 138.267498 
L 441.786364 170.755665 
L 432.604545 164.542231 
L 423.422727 201.663565 
L 414.240909 165.740617 
L 405.059091 168.864647 
L 395.877273 188.315812 
L 386.695455 220.12667 
L 377.513636 214.921421 
L 368.331818 180.431385 
L 359.15 173.233632 
L 349.968182 178.786004 
L 340.786364 242.826291 
L 331.604545 220.110422 
L 322.422727 198.655157 
L 313.240909 207.869894 
L 304.059091 203.232546 
L 294.877273 217.880847 
L 285.695455 221.41303 
L 276.513636 225.158273 
L 267.331818 205.395677 
L 258.15 239.857927 
L 248.968182 226.602265 
L 239.786364 234.222124 
L 230.604545 203.307897 
L 221.422727 224.649714 
L 212.240909 255.564438 
L 203.059091 230.342583 
L 193.877273 254.790006 
L 184.695455 230.342934 
L 175.513636 251.698545 
L 166.331818 279.860452 
L 157.15 236.52105 
L 147.968182 253.671065 
L 138.786364 270.795002 
L 129.604545 300.715069 
L 120.422727 311.121337 
L 111.240909 292.793921 
L 102.059091 297.083018 
L 92.877273 286.767831 
L 83.695455 314.195884 
z
" style="fill:#ff7f0e;fill-opacity:0.5;"/>
   </g>
   <g id="PolyCollection_3">
    <path clip-path="url(#pf216ac2cca)" d="M 83.695455 337.488129 
L 83.695455 350.089811 
L 92.877273 345.219108 
L 102.059091 351.657274 
L 111.240909 340.055473 
L 120.422727 328.93617 
L 129.604545 318.265873 
L 138.786364 294.826868 
L 147.968182 327.883664 
L 157.15 304.999266 
L 166.331818 310.384645 
L 175.513636 274.991273 
L 184.695455 290.576962 
L 193.877273 271.685196 
L 203.059091 278.781795 
L 212.240909 275.806325 
L 221.422727 294.398299 
L 230.604545 241.164361 
L 239.786364 211.374787 
L 248.968182 262.119355 
L 258.15 257.316095 
L 267.331818 227.699793 
L 276.513636 251.798585 
L 285.695455 248.364775 
L 294.877273 245.100255 
L 304.059091 238.846545 
L 313.240909 230.061516 
L 322.422727 206.58988 
L 331.604545 205.778556 
L 340.786364 215.178232 
L 349.968182 258.839135 
L 359.15 228.20842 
L 368.331818 201.937114 
L 377.513636 202.804071 
L 386.695455 210.524756 
L 395.877273 235.962156 
L 405.059091 224.449323 
L 414.240909 211.172559 
L 423.422727 226.012936 
L 432.604545 230.865035 
L 441.786364 209.283373 
L 450.968182 196.374515 
L 460.15 215.86763 
L 469.331818 206.238739 
L 478.513636 212.702576 
L 487.695455 187.692912 
L 496.877273 212.666418 
L 506.059091 204.367022 
L 515.240909 205.676956 
L 524.422727 182.9498 
L 533.604545 192.540761 
L 533.604545 114.869764 
L 533.604545 114.869764 
L 524.422727 97.187846 
L 515.240909 87.683904 
L 506.059091 129.489932 
L 496.877273 116.645057 
L 487.695455 113.519232 
L 478.513636 122.807281 
L 469.331818 119.766932 
L 460.15 153.526713 
L 450.968182 130.457607 
L 441.786364 149.367108 
L 432.604545 77.371942 
L 423.422727 119.001106 
L 414.240909 133.015032 
L 405.059091 174.697253 
L 395.877273 114.837042 
L 386.695455 124.571875 
L 377.513636 148.821578 
L 368.331818 152.167887 
L 359.15 131.268512 
L 349.968182 224.192207 
L 340.786364 171.984805 
L 331.604545 137.582584 
L 322.422727 139.250612 
L 313.240909 184.374401 
L 304.059091 162.779383 
L 294.877273 151.566968 
L 285.695455 199.955629 
L 276.513636 198.174721 
L 267.331818 164.835176 
L 258.15 208.359778 
L 248.968182 196.944911 
L 239.786364 185.292436 
L 230.604545 185.255095 
L 221.422727 210.947217 
L 212.240909 209.291145 
L 203.059091 203.836322 
L 193.877273 219.19743 
L 184.695455 224.685965 
L 175.513636 225.808764 
L 166.331818 249.093406 
L 157.15 248.280403 
L 147.968182 261.759844 
L 138.786364 253.08087 
L 129.604545 276.749566 
L 120.422727 277.649581 
L 111.240909 298.761864 
L 102.059091 314.019717 
L 92.877273 318.804982 
L 83.695455 337.488129 
z
" style="fill:#2ca02c;fill-opacity:0.5;"/>
   </g>
   <g id="PolyCollection_4">
    <path clip-path="url(#pf216ac2cca)" d="M 83.695455 348.954288 
L 83.695455 348.954288 
L 92.877273 348.970611 
L 102.059091 350.768718 
L 111.240909 353.039391 
L 120.422727 334.369665 
L 129.604545 326.917632 
L 138.786364 318.158657 
L 147.968182 297.863131 
L 157.15 291.360856 
L 166.331818 267.633257 
L 175.513636 262.110079 
L 184.695455 256.131959 
L 193.877273 256.698581 
L 203.059091 243.883897 
L 212.240909 240.735391 
L 221.422727 254.50888 
L 230.604545 245.623731 
L 239.786364 236.148664 
L 248.968182 228.443694 
L 258.15 229.273054 
L 267.331818 224.761692 
L 276.513636 222.029206 
L 285.695455 215.988889 
L 294.877273 211.353229 
L 304.059091 220.601639 
L 313.240909 205.408024 
L 322.422727 203.194165 
L 331.604545 206.734175 
L 340.786364 199.294783 
L 349.968182 195.150627 
L 359.15 191.984455 
L 368.331818 188.089528 
L 377.513636 191.582099 
L 386.695455 179.844879 
L 395.877273 184.802827 
L 405.059091 190.168624 
L 414.240909 180.850239 
L 423.422727 173.151978 
L 432.604545 172.044713 
L 441.786364 180.475449 
L 450.968182 180.917468 
L 460.15 158.016763 
L 469.331818 163.859135 
L 478.513636 167.009806 
L 487.695455 167.479625 
L 496.877273 154.130757 
L 506.059091 161.630353 
L 515.240909 157.280754 
L 524.422727 153.825186 
L 533.604545 156.128214 
L 533.604545 133.002044 
L 533.604545 133.002044 
L 524.422727 119.178536 
L 515.240909 119.999437 
L 506.059091 119.142834 
L 496.877273 133.138747 
L 487.695455 136.046995 
L 478.513636 138.606082 
L 469.331818 131.245123 
L 460.15 142.34331 
L 450.968182 136.222037 
L 441.786364 136.925216 
L 432.604545 137.455907 
L 423.422727 137.001538 
L 414.240909 141.838884 
L 405.059091 158.538414 
L 395.877273 156.98351 
L 386.695455 158.546398 
L 377.513636 159.605944 
L 368.331818 157.97328 
L 359.15 152.576692 
L 349.968182 169.22592 
L 340.786364 165.832594 
L 331.604545 177.65364 
L 322.422727 168.755978 
L 313.240909 177.151682 
L 304.059091 182.524298 
L 294.877273 181.391658 
L 285.695455 172.740687 
L 276.513636 186.058742 
L 267.331818 186.296934 
L 258.15 194.876141 
L 248.968182 192.865403 
L 239.786364 187.576148 
L 230.604545 193.672656 
L 221.422727 198.824775 
L 212.240909 200.682909 
L 203.059091 205.075354 
L 193.877273 202.054113 
L 184.695455 215.61337 
L 175.513636 221.387382 
L 166.331818 235.189932 
L 157.15 224.81406 
L 147.968182 252.947929 
L 138.786364 245.873551 
L 129.604545 272.077168 
L 120.422727 284.277312 
L 111.240909 305.27103 
L 102.059091 330.197202 
L 92.877273 348.905321 
L 83.695455 348.954288 
z
" style="fill:#d62728;fill-opacity:0.5;"/>
   </g>
   <g id="matplotlib.axis_1">
    <g id="xtick_1">
     <g id="line2d_1">
      <defs>
       <path d="M 0 0 
L 0 3.5 
" id="m1e3781344d" style="stroke:#000000;stroke-width:0.8;"/>
      </defs>
      <g>
       <use style="stroke:#000000;stroke-width:0.8;" x="83.695455" xlink:href="#m1e3781344d" y="374.8"/>
      </g>
     </g>
     <g id="text_1">
      <!-- 0 -->
      <defs>
       <path d="M 31.78125 66.40625 
Q 24.171875 66.40625 20.328125 58.90625 
Q 16.5 51.421875 16.5 36.375 
Q 16.5 21.390625 20.328125 13.890625 
Q 24.171875 6.390625 31.78125 6.390625 
Q 39.453125 6.390625 43.28125 13.890625 
Q 47.125 21.390625 47.125 36.375 
Q 47.125 51.421875 43.28125 58.90625 
Q 39.453125 66.40625 31.78125 66.40625 
z
M 31.78125 74.21875 
Q 44.046875 74.21875 50.515625 64.515625 
Q 56.984375 54.828125 56.984375 36.375 
Q 56.984375 17.96875 50.515625 8.265625 
Q 44.046875 -1.421875 31.78125 -1.421875 
Q 19.53125 -1.421875 13.0625 8.265625 
Q 6.59375 17.96875 6.59375 36.375 
Q 6.59375 54.828125 13.0625 64.515625 
Q 19.53125 74.21875 31.78125 74.21875 
z
" id="DejaVuSans-48"/>
      </defs>
      <g transform="translate(78.92358 393.197656)scale(0.15 -0.15)">
       <use xlink:href="#DejaVuSans-48"/>
      </g>
     </g>
    </g>
    <g id="xtick_2">
     <g id="line2d_2">
      <g>
       <use style="stroke:#000000;stroke-width:0.8;" x="175.513636" xlink:href="#m1e3781344d" y="374.8"/>
      </g>
     </g>
     <g id="text_2">
      <!-- 10 -->
      <defs>
       <path d="M 12.40625 8.296875 
L 28.515625 8.296875 
L 28.515625 63.921875 
L 10.984375 60.40625 
L 10.984375 69.390625 
L 28.421875 72.90625 
L 38.28125 72.90625 
L 38.28125 8.296875 
L 54.390625 8.296875 
L 54.390625 0 
L 12.40625 0 
z
" id="DejaVuSans-49"/>
      </defs>
      <g transform="translate(165.969886 393.197656)scale(0.15 -0.15)">
       <use xlink:href="#DejaVuSans-49"/>
       <use x="63.623047" xlink:href="#DejaVuSans-48"/>
      </g>
     </g>
    </g>
    <g id="xtick_3">
     <g id="line2d_3">
      <g>
       <use style="stroke:#000000;stroke-width:0.8;" x="267.331818" xlink:href="#m1e3781344d" y="374.8"/>
      </g>
     </g>
     <g id="text_3">
      <!-- 20 -->
      <defs>
       <path d="M 19.1875 8.296875 
L 53.609375 8.296875 
L 53.609375 0 
L 7.328125 0 
L 7.328125 8.296875 
Q 12.9375 14.109375 22.625 23.890625 
Q 32.328125 33.6875 34.8125 36.53125 
Q 39.546875 41.84375 41.421875 45.53125 
Q 43.3125 49.21875 43.3125 52.78125 
Q 43.3125 58.59375 39.234375 62.25 
Q 35.15625 65.921875 28.609375 65.921875 
Q 23.96875 65.921875 18.8125 64.3125 
Q 13.671875 62.703125 7.8125 59.421875 
L 7.8125 69.390625 
Q 13.765625 71.78125 18.9375 73 
Q 24.125 74.21875 28.421875 74.21875 
Q 39.75 74.21875 46.484375 68.546875 
Q 53.21875 62.890625 53.21875 53.421875 
Q 53.21875 48.921875 51.53125 44.890625 
Q 49.859375 40.875 45.40625 35.40625 
Q 44.1875 33.984375 37.640625 27.21875 
Q 31.109375 20.453125 19.1875 8.296875 
z
" id="DejaVuSans-50"/>
      </defs>
      <g transform="translate(257.788068 393.197656)scale(0.15 -0.15)">
       <use xlink:href="#DejaVuSans-50"/>
       <use x="63.623047" xlink:href="#DejaVuSans-48"/>
      </g>
     </g>
    </g>
    <g id="xtick_4">
     <g id="line2d_4">
      <g>
       <use style="stroke:#000000;stroke-width:0.8;" x="359.15" xlink:href="#m1e3781344d" y="374.8"/>
      </g>
     </g>
     <g id="text_4">
      <!-- 30 -->
      <defs>
       <path d="M 40.578125 39.3125 
Q 47.65625 37.796875 51.625 33 
Q 55.609375 28.21875 55.609375 21.1875 
Q 55.609375 10.40625 48.1875 4.484375 
Q 40.765625 -1.421875 27.09375 -1.421875 
Q 22.515625 -1.421875 17.65625 -0.515625 
Q 12.796875 0.390625 7.625 2.203125 
L 7.625 11.71875 
Q 11.71875 9.328125 16.59375 8.109375 
Q 21.484375 6.890625 26.8125 6.890625 
Q 36.078125 6.890625 40.9375 10.546875 
Q 45.796875 14.203125 45.796875 21.1875 
Q 45.796875 27.640625 41.28125 31.265625 
Q 36.765625 34.90625 28.71875 34.90625 
L 20.21875 34.90625 
L 20.21875 43.015625 
L 29.109375 43.015625 
Q 36.375 43.015625 40.234375 45.921875 
Q 44.09375 48.828125 44.09375 54.296875 
Q 44.09375 59.90625 40.109375 62.90625 
Q 36.140625 65.921875 28.71875 65.921875 
Q 24.65625 65.921875 20.015625 65.03125 
Q 15.375 64.15625 9.8125 62.3125 
L 9.8125 71.09375 
Q 15.4375 72.65625 20.34375 73.4375 
Q 25.25 74.21875 29.59375 74.21875 
Q 40.828125 74.21875 47.359375 69.109375 
Q 53.90625 64.015625 53.90625 55.328125 
Q 53.90625 49.265625 50.4375 45.09375 
Q 46.96875 40.921875 40.578125 39.3125 
z
" id="DejaVuSans-51"/>
      </defs>
      <g transform="translate(349.60625 393.197656)scale(0.15 -0.15)">
       <use xlink:href="#DejaVuSans-51"/>
       <use x="63.623047" xlink:href="#DejaVuSans-48"/>
      </g>
     </g>
    </g>
    <g id="xtick_5">
     <g id="line2d_5">
      <g>
       <use style="stroke:#000000;stroke-width:0.8;" x="450.968182" xlink:href="#m1e3781344d" y="374.8"/>
      </g>
     </g>
     <g id="text_5">
      <!-- 40 -->
      <defs>
       <path d="M 37.796875 64.3125 
L 12.890625 25.390625 
L 37.796875 25.390625 
z
M 35.203125 72.90625 
L 47.609375 72.90625 
L 47.609375 25.390625 
L 58.015625 25.390625 
L 58.015625 17.1875 
L 47.609375 17.1875 
L 47.609375 0 
L 37.796875 0 
L 37.796875 17.1875 
L 4.890625 17.1875 
L 4.890625 26.703125 
z
" id="DejaVuSans-52"/>
      </defs>
      <g transform="translate(441.424432 393.197656)scale(0.15 -0.15)">
       <use xlink:href="#DejaVuSans-52"/>
       <use x="63.623047" xlink:href="#DejaVuSans-48"/>
      </g>
     </g>
    </g>
    <g id="xtick_6">
     <g id="line2d_6">
      <g>
       <use style="stroke:#000000;stroke-width:0.8;" x="542.786364" xlink:href="#m1e3781344d" y="374.8"/>
      </g>
     </g>
     <g id="text_6">
      <!-- 50 -->
      <defs>
       <path d="M 10.796875 72.90625 
L 49.515625 72.90625 
L 49.515625 64.59375 
L 19.828125 64.59375 
L 19.828125 46.734375 
Q 21.96875 47.46875 24.109375 47.828125 
Q 26.265625 48.1875 28.421875 48.1875 
Q 40.625 48.1875 47.75 41.5 
Q 54.890625 34.8125 54.890625 23.390625 
Q 54.890625 11.625 47.5625 5.09375 
Q 40.234375 -1.421875 26.90625 -1.421875 
Q 22.3125 -1.421875 17.546875 -0.640625 
Q 12.796875 0.140625 7.71875 1.703125 
L 7.71875 11.625 
Q 12.109375 9.234375 16.796875 8.0625 
Q 21.484375 6.890625 26.703125 6.890625 
Q 35.15625 6.890625 40.078125 11.328125 
Q 45.015625 15.765625 45.015625 23.390625 
Q 45.015625 31 40.078125 35.4375 
Q 35.15625 39.890625 26.703125 39.890625 
Q 22.75 39.890625 18.8125 39.015625 
Q 14.890625 38.140625 10.796875 36.28125 
z
" id="DejaVuSans-53"/>
      </defs>
      <g transform="translate(533.242614 393.197656)scale(0.15 -0.15)">
       <use xlink:href="#DejaVuSans-53"/>
       <use x="63.623047" xlink:href="#DejaVuSans-48"/>
      </g>
     </g>
    </g>
    <g id="text_7">
     <!-- Global Communication Rounds -->
     <defs>
      <path d="M 59.515625 10.40625 
L 59.515625 29.984375 
L 43.40625 29.984375 
L 43.40625 38.09375 
L 69.28125 38.09375 
L 69.28125 6.78125 
Q 63.578125 2.734375 56.6875 0.65625 
Q 49.8125 -1.421875 42 -1.421875 
Q 24.90625 -1.421875 15.25 8.5625 
Q 5.609375 18.5625 5.609375 36.375 
Q 5.609375 54.25 15.25 64.234375 
Q 24.90625 74.21875 42 74.21875 
Q 49.125 74.21875 55.546875 72.453125 
Q 61.96875 70.703125 67.390625 67.28125 
L 67.390625 56.78125 
Q 61.921875 61.421875 55.765625 63.765625 
Q 49.609375 66.109375 42.828125 66.109375 
Q 29.4375 66.109375 22.71875 58.640625 
Q 16.015625 51.171875 16.015625 36.375 
Q 16.015625 21.625 22.71875 14.15625 
Q 29.4375 6.6875 42.828125 6.6875 
Q 48.046875 6.6875 52.140625 7.59375 
Q 56.25 8.5 59.515625 10.40625 
z
" id="DejaVuSans-71"/>
      <path d="M 9.421875 75.984375 
L 18.40625 75.984375 
L 18.40625 0 
L 9.421875 0 
z
" id="DejaVuSans-108"/>
      <path d="M 30.609375 48.390625 
Q 23.390625 48.390625 19.1875 42.75 
Q 14.984375 37.109375 14.984375 27.296875 
Q 14.984375 17.484375 19.15625 11.84375 
Q 23.34375 6.203125 30.609375 6.203125 
Q 37.796875 6.203125 41.984375 11.859375 
Q 46.1875 17.53125 46.1875 27.296875 
Q 46.1875 37.015625 41.984375 42.703125 
Q 37.796875 48.390625 30.609375 48.390625 
z
M 30.609375 56 
Q 42.328125 56 49.015625 48.375 
Q 55.71875 40.765625 55.71875 27.296875 
Q 55.71875 13.875 49.015625 6.21875 
Q 42.328125 -1.421875 30.609375 -1.421875 
Q 18.84375 -1.421875 12.171875 6.21875 
Q 5.515625 13.875 5.515625 27.296875 
Q 5.515625 40.765625 12.171875 48.375 
Q 18.84375 56 30.609375 56 
z
" id="DejaVuSans-111"/>
      <path d="M 48.6875 27.296875 
Q 48.6875 37.203125 44.609375 42.84375 
Q 40.53125 48.484375 33.40625 48.484375 
Q 26.265625 48.484375 22.1875 42.84375 
Q 18.109375 37.203125 18.109375 27.296875 
Q 18.109375 17.390625 22.1875 11.75 
Q 26.265625 6.109375 33.40625 6.109375 
Q 40.53125 6.109375 44.609375 11.75 
Q 48.6875 17.390625 48.6875 27.296875 
z
M 18.109375 46.390625 
Q 20.953125 51.265625 25.265625 53.625 
Q 29.59375 56 35.59375 56 
Q 45.5625 56 51.78125 48.09375 
Q 58.015625 40.1875 58.015625 27.296875 
Q 58.015625 14.40625 51.78125 6.484375 
Q 45.5625 -1.421875 35.59375 -1.421875 
Q 29.59375 -1.421875 25.265625 0.953125 
Q 20.953125 3.328125 18.109375 8.203125 
L 18.109375 0 
L 9.078125 0 
L 9.078125 75.984375 
L 18.109375 75.984375 
z
" id="DejaVuSans-98"/>
      <path d="M 34.28125 27.484375 
Q 23.390625 27.484375 19.1875 25 
Q 14.984375 22.515625 14.984375 16.5 
Q 14.984375 11.71875 18.140625 8.90625 
Q 21.296875 6.109375 26.703125 6.109375 
Q 34.1875 6.109375 38.703125 11.40625 
Q 43.21875 16.703125 43.21875 25.484375 
L 43.21875 27.484375 
z
M 52.203125 31.203125 
L 52.203125 0 
L 43.21875 0 
L 43.21875 8.296875 
Q 40.140625 3.328125 35.546875 0.953125 
Q 30.953125 -1.421875 24.3125 -1.421875 
Q 15.921875 -1.421875 10.953125 3.296875 
Q 6 8.015625 6 15.921875 
Q 6 25.140625 12.171875 29.828125 
Q 18.359375 34.515625 30.609375 34.515625 
L 43.21875 34.515625 
L 43.21875 35.40625 
Q 43.21875 41.609375 39.140625 45 
Q 35.0625 48.390625 27.6875 48.390625 
Q 23 48.390625 18.546875 47.265625 
Q 14.109375 46.140625 10.015625 43.890625 
L 10.015625 52.203125 
Q 14.9375 54.109375 19.578125 55.046875 
Q 24.21875 56 28.609375 56 
Q 40.484375 56 46.34375 49.84375 
Q 52.203125 43.703125 52.203125 31.203125 
z
" id="DejaVuSans-97"/>
      <path id="DejaVuSans-32"/>
      <path d="M 64.40625 67.28125 
L 64.40625 56.890625 
Q 59.421875 61.53125 53.78125 63.8125 
Q 48.140625 66.109375 41.796875 66.109375 
Q 29.296875 66.109375 22.65625 58.46875 
Q 16.015625 50.828125 16.015625 36.375 
Q 16.015625 21.96875 22.65625 14.328125 
Q 29.296875 6.6875 41.796875 6.6875 
Q 48.140625 6.6875 53.78125 8.984375 
Q 59.421875 11.28125 64.40625 15.921875 
L 64.40625 5.609375 
Q 59.234375 2.09375 53.4375 0.328125 
Q 47.65625 -1.421875 41.21875 -1.421875 
Q 24.65625 -1.421875 15.125 8.703125 
Q 5.609375 18.84375 5.609375 36.375 
Q 5.609375 53.953125 15.125 64.078125 
Q 24.65625 74.21875 41.21875 74.21875 
Q 47.75 74.21875 53.53125 72.484375 
Q 59.328125 70.75 64.40625 67.28125 
z
" id="DejaVuSans-67"/>
      <path d="M 52 44.1875 
Q 55.375 50.25 60.0625 53.125 
Q 64.75 56 71.09375 56 
Q 79.640625 56 84.28125 50.015625 
Q 88.921875 44.046875 88.921875 33.015625 
L 88.921875 0 
L 79.890625 0 
L 79.890625 32.71875 
Q 79.890625 40.578125 77.09375 44.375 
Q 74.3125 48.1875 68.609375 48.1875 
Q 61.625 48.1875 57.5625 43.546875 
Q 53.515625 38.921875 53.515625 30.90625 
L 53.515625 0 
L 44.484375 0 
L 44.484375 32.71875 
Q 44.484375 40.625 41.703125 44.40625 
Q 38.921875 48.1875 33.109375 48.1875 
Q 26.21875 48.1875 22.15625 43.53125 
Q 18.109375 38.875 18.109375 30.90625 
L 18.109375 0 
L 9.078125 0 
L 9.078125 54.6875 
L 18.109375 54.6875 
L 18.109375 46.1875 
Q 21.1875 51.21875 25.484375 53.609375 
Q 29.78125 56 35.6875 56 
Q 41.65625 56 45.828125 52.96875 
Q 50 49.953125 52 44.1875 
z
" id="DejaVuSans-109"/>
      <path d="M 8.5 21.578125 
L 8.5 54.6875 
L 17.484375 54.6875 
L 17.484375 21.921875 
Q 17.484375 14.15625 20.5 10.265625 
Q 23.53125 6.390625 29.59375 6.390625 
Q 36.859375 6.390625 41.078125 11.03125 
Q 45.3125 15.671875 45.3125 23.6875 
L 45.3125 54.6875 
L 54.296875 54.6875 
L 54.296875 0 
L 45.3125 0 
L 45.3125 8.40625 
Q 42.046875 3.421875 37.71875 1 
Q 33.40625 -1.421875 27.6875 -1.421875 
Q 18.265625 -1.421875 13.375 4.4375 
Q 8.5 10.296875 8.5 21.578125 
z
M 31.109375 56 
z
" id="DejaVuSans-117"/>
      <path d="M 54.890625 33.015625 
L 54.890625 0 
L 45.90625 0 
L 45.90625 32.71875 
Q 45.90625 40.484375 42.875 44.328125 
Q 39.84375 48.1875 33.796875 48.1875 
Q 26.515625 48.1875 22.3125 43.546875 
Q 18.109375 38.921875 18.109375 30.90625 
L 18.109375 0 
L 9.078125 0 
L 9.078125 54.6875 
L 18.109375 54.6875 
L 18.109375 46.1875 
Q 21.34375 51.125 25.703125 53.5625 
Q 30.078125 56 35.796875 56 
Q 45.21875 56 50.046875 50.171875 
Q 54.890625 44.34375 54.890625 33.015625 
z
" id="DejaVuSans-110"/>
      <path d="M 9.421875 54.6875 
L 18.40625 54.6875 
L 18.40625 0 
L 9.421875 0 
z
M 9.421875 75.984375 
L 18.40625 75.984375 
L 18.40625 64.59375 
L 9.421875 64.59375 
z
" id="DejaVuSans-105"/>
      <path d="M 48.78125 52.59375 
L 48.78125 44.1875 
Q 44.96875 46.296875 41.140625 47.34375 
Q 37.3125 48.390625 33.40625 48.390625 
Q 24.65625 48.390625 19.8125 42.84375 
Q 14.984375 37.3125 14.984375 27.296875 
Q 14.984375 17.28125 19.8125 11.734375 
Q 24.65625 6.203125 33.40625 6.203125 
Q 37.3125 6.203125 41.140625 7.25 
Q 44.96875 8.296875 48.78125 10.40625 
L 48.78125 2.09375 
Q 45.015625 0.34375 40.984375 -0.53125 
Q 36.96875 -1.421875 32.421875 -1.421875 
Q 20.0625 -1.421875 12.78125 6.34375 
Q 5.515625 14.109375 5.515625 27.296875 
Q 5.515625 40.671875 12.859375 48.328125 
Q 20.21875 56 33.015625 56 
Q 37.15625 56 41.109375 55.140625 
Q 45.0625 54.296875 48.78125 52.59375 
z
" id="DejaVuSans-99"/>
      <path d="M 18.3125 70.21875 
L 18.3125 54.6875 
L 36.8125 54.6875 
L 36.8125 47.703125 
L 18.3125 47.703125 
L 18.3125 18.015625 
Q 18.3125 11.328125 20.140625 9.421875 
Q 21.96875 7.515625 27.59375 7.515625 
L 36.8125 7.515625 
L 36.8125 0 
L 27.59375 0 
Q 17.1875 0 13.234375 3.875 
Q 9.28125 7.765625 9.28125 18.015625 
L 9.28125 47.703125 
L 2.6875 47.703125 
L 2.6875 54.6875 
L 9.28125 54.6875 
L 9.28125 70.21875 
z
" id="DejaVuSans-116"/>
      <path d="M 44.390625 34.1875 
Q 47.5625 33.109375 50.5625 29.59375 
Q 53.5625 26.078125 56.59375 19.921875 
L 66.609375 0 
L 56 0 
L 46.6875 18.703125 
Q 43.0625 26.03125 39.671875 28.421875 
Q 36.28125 30.8125 30.421875 30.8125 
L 19.671875 30.8125 
L 19.671875 0 
L 9.8125 0 
L 9.8125 72.90625 
L 32.078125 72.90625 
Q 44.578125 72.90625 50.734375 67.671875 
Q 56.890625 62.453125 56.890625 51.90625 
Q 56.890625 45.015625 53.6875 40.46875 
Q 50.484375 35.9375 44.390625 34.1875 
z
M 19.671875 64.796875 
L 19.671875 38.921875 
L 32.078125 38.921875 
Q 39.203125 38.921875 42.84375 42.21875 
Q 46.484375 45.515625 46.484375 51.90625 
Q 46.484375 58.296875 42.84375 61.546875 
Q 39.203125 64.796875 32.078125 64.796875 
z
" id="DejaVuSans-82"/>
      <path d="M 45.40625 46.390625 
L 45.40625 75.984375 
L 54.390625 75.984375 
L 54.390625 0 
L 45.40625 0 
L 45.40625 8.203125 
Q 42.578125 3.328125 38.25 0.953125 
Q 33.9375 -1.421875 27.875 -1.421875 
Q 17.96875 -1.421875 11.734375 6.484375 
Q 5.515625 14.40625 5.515625 27.296875 
Q 5.515625 40.1875 11.734375 48.09375 
Q 17.96875 56 27.875 56 
Q 33.9375 56 38.25 53.625 
Q 42.578125 51.265625 45.40625 46.390625 
z
M 14.796875 27.296875 
Q 14.796875 17.390625 18.875 11.75 
Q 22.953125 6.109375 30.078125 6.109375 
Q 37.203125 6.109375 41.296875 11.75 
Q 45.40625 17.390625 45.40625 27.296875 
Q 45.40625 37.203125 41.296875 42.84375 
Q 37.203125 48.484375 30.078125 48.484375 
Q 22.953125 48.484375 18.875 42.84375 
Q 14.796875 37.203125 14.796875 27.296875 
z
" id="DejaVuSans-100"/>
      <path d="M 44.28125 53.078125 
L 44.28125 44.578125 
Q 40.484375 46.53125 36.375 47.5 
Q 32.28125 48.484375 27.875 48.484375 
Q 21.1875 48.484375 17.84375 46.4375 
Q 14.5 44.390625 14.5 40.28125 
Q 14.5 37.15625 16.890625 35.375 
Q 19.28125 33.59375 26.515625 31.984375 
L 29.59375 31.296875 
Q 39.15625 29.25 43.1875 25.515625 
Q 47.21875 21.78125 47.21875 15.09375 
Q 47.21875 7.46875 41.1875 3.015625 
Q 35.15625 -1.421875 24.609375 -1.421875 
Q 20.21875 -1.421875 15.453125 -0.5625 
Q 10.6875 0.296875 5.421875 2 
L 5.421875 11.28125 
Q 10.40625 8.6875 15.234375 7.390625 
Q 20.0625 6.109375 24.8125 6.109375 
Q 31.15625 6.109375 34.5625 8.28125 
Q 37.984375 10.453125 37.984375 14.40625 
Q 37.984375 18.0625 35.515625 20.015625 
Q 33.0625 21.96875 24.703125 23.78125 
L 21.578125 24.515625 
Q 13.234375 26.265625 9.515625 29.90625 
Q 5.8125 33.546875 5.8125 39.890625 
Q 5.8125 47.609375 11.28125 51.796875 
Q 16.75 56 26.8125 56 
Q 31.78125 56 36.171875 55.265625 
Q 40.578125 54.546875 44.28125 53.078125 
z
" id="DejaVuSans-115"/>
     </defs>
     <g transform="translate(193.207422 411.714844)scale(0.15 -0.15)">
      <use xlink:href="#DejaVuSans-71"/>
      <use x="77.490234" xlink:href="#DejaVuSans-108"/>
      <use x="105.273438" xlink:href="#DejaVuSans-111"/>
      <use x="166.455078" xlink:href="#DejaVuSans-98"/>
      <use x="229.931641" xlink:href="#DejaVuSans-97"/>
      <use x="291.210938" xlink:href="#DejaVuSans-108"/>
      <use x="318.994141" xlink:href="#DejaVuSans-32"/>
      <use x="350.78125" xlink:href="#DejaVuSans-67"/>
      <use x="420.605469" xlink:href="#DejaVuSans-111"/>
      <use x="481.787109" xlink:href="#DejaVuSans-109"/>
      <use x="579.199219" xlink:href="#DejaVuSans-109"/>
      <use x="676.611328" xlink:href="#DejaVuSans-117"/>
      <use x="739.990234" xlink:href="#DejaVuSans-110"/>
      <use x="803.369141" xlink:href="#DejaVuSans-105"/>
      <use x="831.152344" xlink:href="#DejaVuSans-99"/>
      <use x="886.132812" xlink:href="#DejaVuSans-97"/>
      <use x="947.412109" xlink:href="#DejaVuSans-116"/>
      <use x="986.621094" xlink:href="#DejaVuSans-105"/>
      <use x="1014.404297" xlink:href="#DejaVuSans-111"/>
      <use x="1075.585938" xlink:href="#DejaVuSans-110"/>
      <use x="1138.964844" xlink:href="#DejaVuSans-32"/>
      <use x="1170.751953" xlink:href="#DejaVuSans-82"/>
      <use x="1235.734375" xlink:href="#DejaVuSans-111"/>
      <use x="1296.916016" xlink:href="#DejaVuSans-117"/>
      <use x="1360.294922" xlink:href="#DejaVuSans-110"/>
      <use x="1423.673828" xlink:href="#DejaVuSans-100"/>
      <use x="1487.150391" xlink:href="#DejaVuSans-115"/>
     </g>
    </g>
   </g>
   <g id="matplotlib.axis_2">
    <g id="ytick_1">
     <g id="line2d_7">
      <defs>
       <path d="M 0 0 
L -3.5 0 
" id="md9b65c1481" style="stroke:#000000;stroke-width:0.8;"/>
      </defs>
      <g>
       <use style="stroke:#000000;stroke-width:0.8;" x="61.2" xlink:href="#md9b65c1481" y="348.954288"/>
      </g>
     </g>
     <g id="text_8">
      <!-- 10 -->
      <g transform="translate(35.1125 354.653116)scale(0.15 -0.15)">
       <use xlink:href="#DejaVuSans-49"/>
       <use x="63.623047" xlink:href="#DejaVuSans-48"/>
      </g>
     </g>
    </g>
    <g id="ytick_2">
     <g id="line2d_8">
      <g>
       <use style="stroke:#000000;stroke-width:0.8;" x="61.2" xlink:href="#md9b65c1481" y="308.148275"/>
      </g>
     </g>
     <g id="text_9">
      <!-- 15 -->
      <g transform="translate(35.1125 313.847103)scale(0.15 -0.15)">
       <use xlink:href="#DejaVuSans-49"/>
       <use x="63.623047" xlink:href="#DejaVuSans-53"/>
      </g>
     </g>
    </g>
    <g id="ytick_3">
     <g id="line2d_9">
      <g>
       <use style="stroke:#000000;stroke-width:0.8;" x="61.2" xlink:href="#md9b65c1481" y="267.342262"/>
      </g>
     </g>
     <g id="text_10">
      <!-- 20 -->
      <g transform="translate(35.1125 273.04109)scale(0.15 -0.15)">
       <use xlink:href="#DejaVuSans-50"/>
       <use x="63.623047" xlink:href="#DejaVuSans-48"/>
      </g>
     </g>
    </g>
    <g id="ytick_4">
     <g id="line2d_10">
      <g>
       <use style="stroke:#000000;stroke-width:0.8;" x="61.2" xlink:href="#md9b65c1481" y="226.536248"/>
      </g>
     </g>
     <g id="text_11">
      <!-- 25 -->
      <g transform="translate(35.1125 232.235077)scale(0.15 -0.15)">
       <use xlink:href="#DejaVuSans-50"/>
       <use x="63.623047" xlink:href="#DejaVuSans-53"/>
      </g>
     </g>
    </g>
    <g id="ytick_5">
     <g id="line2d_11">
      <g>
       <use style="stroke:#000000;stroke-width:0.8;" x="61.2" xlink:href="#md9b65c1481" y="185.730235"/>
      </g>
     </g>
     <g id="text_12">
      <!-- 30 -->
      <g transform="translate(35.1125 191.429063)scale(0.15 -0.15)">
       <use xlink:href="#DejaVuSans-51"/>
       <use x="63.623047" xlink:href="#DejaVuSans-48"/>
      </g>
     </g>
    </g>
    <g id="ytick_6">
     <g id="line2d_12">
      <g>
       <use style="stroke:#000000;stroke-width:0.8;" x="61.2" xlink:href="#md9b65c1481" y="144.924222"/>
      </g>
     </g>
     <g id="text_13">
      <!-- 35 -->
      <g transform="translate(35.1125 150.62305)scale(0.15 -0.15)">
       <use xlink:href="#DejaVuSans-51"/>
       <use x="63.623047" xlink:href="#DejaVuSans-53"/>
      </g>
     </g>
    </g>
    <g id="ytick_7">
     <g id="line2d_13">
      <g>
       <use style="stroke:#000000;stroke-width:0.8;" x="61.2" xlink:href="#md9b65c1481" y="104.118209"/>
      </g>
     </g>
     <g id="text_14">
      <!-- 40 -->
      <g transform="translate(35.1125 109.817037)scale(0.15 -0.15)">
       <use xlink:href="#DejaVuSans-52"/>
       <use x="63.623047" xlink:href="#DejaVuSans-48"/>
      </g>
     </g>
    </g>
    <g id="ytick_8">
     <g id="line2d_14">
      <g>
       <use style="stroke:#000000;stroke-width:0.8;" x="61.2" xlink:href="#md9b65c1481" y="63.312196"/>
      </g>
     </g>
     <g id="text_15">
      <!-- 45 -->
      <g transform="translate(35.1125 69.011024)scale(0.15 -0.15)">
       <use xlink:href="#DejaVuSans-52"/>
       <use x="63.623047" xlink:href="#DejaVuSans-53"/>
      </g>
     </g>
    </g>
    <g id="text_16">
     <!-- Test Accuracy -->
     <defs>
      <path d="M -0.296875 72.90625 
L 61.375 72.90625 
L 61.375 64.59375 
L 35.5 64.59375 
L 35.5 0 
L 25.59375 0 
L 25.59375 64.59375 
L -0.296875 64.59375 
z
" id="DejaVuSans-84"/>
      <path d="M 56.203125 29.59375 
L 56.203125 25.203125 
L 14.890625 25.203125 
Q 15.484375 15.921875 20.484375 11.0625 
Q 25.484375 6.203125 34.421875 6.203125 
Q 39.59375 6.203125 44.453125 7.46875 
Q 49.3125 8.734375 54.109375 11.28125 
L 54.109375 2.78125 
Q 49.265625 0.734375 44.1875 -0.34375 
Q 39.109375 -1.421875 33.890625 -1.421875 
Q 20.796875 -1.421875 13.15625 6.1875 
Q 5.515625 13.8125 5.515625 26.8125 
Q 5.515625 40.234375 12.765625 48.109375 
Q 20.015625 56 32.328125 56 
Q 43.359375 56 49.78125 48.890625 
Q 56.203125 41.796875 56.203125 29.59375 
z
M 47.21875 32.234375 
Q 47.125 39.59375 43.09375 43.984375 
Q 39.0625 48.390625 32.421875 48.390625 
Q 24.90625 48.390625 20.390625 44.140625 
Q 15.875 39.890625 15.1875 32.171875 
z
" id="DejaVuSans-101"/>
      <path d="M 34.1875 63.1875 
L 20.796875 26.90625 
L 47.609375 26.90625 
z
M 28.609375 72.90625 
L 39.796875 72.90625 
L 67.578125 0 
L 57.328125 0 
L 50.6875 18.703125 
L 17.828125 18.703125 
L 11.1875 0 
L 0.78125 0 
z
" id="DejaVuSans-65"/>
      <path d="M 41.109375 46.296875 
Q 39.59375 47.171875 37.8125 47.578125 
Q 36.03125 48 33.890625 48 
Q 26.265625 48 22.1875 43.046875 
Q 18.109375 38.09375 18.109375 28.8125 
L 18.109375 0 
L 9.078125 0 
L 9.078125 54.6875 
L 18.109375 54.6875 
L 18.109375 46.1875 
Q 20.953125 51.171875 25.484375 53.578125 
Q 30.03125 56 36.53125 56 
Q 37.453125 56 38.578125 55.875 
Q 39.703125 55.765625 41.0625 55.515625 
z
" id="DejaVuSans-114"/>
      <path d="M 32.171875 -5.078125 
Q 28.375 -14.84375 24.75 -17.8125 
Q 21.140625 -20.796875 15.09375 -20.796875 
L 7.90625 -20.796875 
L 7.90625 -13.28125 
L 13.1875 -13.28125 
Q 16.890625 -13.28125 18.9375 -11.515625 
Q 21 -9.765625 23.484375 -3.21875 
L 25.09375 0.875 
L 2.984375 54.6875 
L 12.5 54.6875 
L 29.59375 11.921875 
L 46.6875 54.6875 
L 56.203125 54.6875 
z
" id="DejaVuSans-121"/>
     </defs>
     <g transform="translate(27.992969 267.017859)rotate(-90)scale(0.15 -0.15)">
      <use xlink:href="#DejaVuSans-84"/>
      <use x="44.083984" xlink:href="#DejaVuSans-101"/>
      <use x="105.607422" xlink:href="#DejaVuSans-115"/>
      <use x="157.707031" xlink:href="#DejaVuSans-116"/>
      <use x="196.916016" xlink:href="#DejaVuSans-32"/>
      <use x="228.703125" xlink:href="#DejaVuSans-65"/>
      <use x="295.361328" xlink:href="#DejaVuSans-99"/>
      <use x="350.341797" xlink:href="#DejaVuSans-99"/>
      <use x="405.322266" xlink:href="#DejaVuSans-117"/>
      <use x="468.701172" xlink:href="#DejaVuSans-114"/>
      <use x="509.814453" xlink:href="#DejaVuSans-97"/>
      <use x="571.09375" xlink:href="#DejaVuSans-99"/>
      <use x="626.074219" xlink:href="#DejaVuSans-121"/>
     </g>
    </g>
   </g>
   <g id="line2d_15">
    <path clip-path="url(#pf216ac2cca)" d="M 83.695455 346.06171 
L 92.877273 332.012045 
L 102.059091 302.259812 
L 111.240909 311.97061 
L 120.422727 314.036738 
L 129.604545 287.796922 
L 138.786364 274.160482 
L 147.968182 252.466146 
L 157.15 251.226469 
L 166.331818 277.05306 
L 175.513636 233.664388 
L 184.695455 263.003395 
L 193.877273 242.96196 
L 203.059091 209.284086 
L 212.240909 226.432942 
L 221.422727 236.350353 
L 230.604545 226.226329 
L 239.786364 232.837937 
L 248.968182 215.275855 
L 258.15 226.639555 
L 267.331818 230.771809 
L 276.513636 205.565057 
L 285.695455 211.350213 
L 294.877273 199.573288 
L 304.059091 191.515392 
L 313.240909 197.713773 
L 322.422727 183.457495 
L 331.604545 199.986513 
L 340.786364 207.631184 
L 349.968182 193.374906 
L 359.15 182.631044 
L 368.331818 159.283806 
L 377.513636 179.531853 
L 386.695455 184.490559 
L 395.877273 151.22591 
L 405.059091 145.647367 
L 414.240909 182.424432 
L 423.422727 174.573148 
L 432.604545 147.506881 
L 441.786364 160.730095 
L 450.968182 149.573008 
L 460.15 159.283806 
L 469.331818 162.796223 
L 478.513636 144.40769 
L 487.695455 145.027528 
L 496.877273 109.696752 
L 506.059091 157.217679 
L 515.240909 123.333192 
L 524.422727 116.721585 
L 533.604545 115.068683 
" style="fill:none;stroke:#1f77b4;stroke-linecap:square;stroke-width:1.5;"/>
   </g>
   <g id="line2d_16">
    <path clip-path="url(#pf216ac2cca)" d="M 83.695455 334.904623 
L 92.877273 318.995443 
L 102.059091 328.706241 
L 111.240909 315.069801 
L 120.422727 330.772368 
L 129.604545 319.408668 
L 138.786364 301.226749 
L 147.968182 296.061431 
L 157.15 274.573707 
L 166.331818 315.483027 
L 175.513636 275.606771 
L 184.695455 278.086123 
L 193.877273 292.342401 
L 203.059091 259.697591 
L 212.240909 279.3258 
L 221.422727 262.383556 
L 230.604545 255.358724 
L 239.786364 290.276274 
L 248.968182 271.267904 
L 258.15 266.309198 
L 267.331818 261.557105 
L 276.513636 275.193545 
L 285.695455 245.854538 
L 294.877273 265.895973 
L 304.059091 250.400018 
L 313.240909 262.383556 
L 322.422727 243.168573 
L 331.604545 275.193545 
L 340.786364 278.292736 
L 349.968182 229.32552 
L 359.15 236.350353 
L 368.331818 236.763578 
L 377.513636 233.044549 
L 386.695455 237.590029 
L 395.877273 219.408109 
L 405.059091 191.102166 
L 414.240909 239.449544 
L 423.422727 223.746977 
L 432.604545 197.507161 
L 441.786364 189.449264 
L 450.968182 176.019437 
L 460.15 208.251022 
L 469.331818 233.251162 
L 478.513636 242.135509 
L 487.695455 222.5073 
L 496.877273 174.573148 
L 506.059091 195.854259 
L 515.240909 191.308779 
L 524.422727 215.069242 
L 533.604545 202.672479 
" style="fill:none;stroke:#ff7f0e;stroke-linecap:square;stroke-width:1.5;"/>
   </g>
   <g id="line2d_17">
    <path clip-path="url(#pf216ac2cca)" d="M 83.695455 343.78897 
L 92.877273 332.012045 
L 102.059091 332.838496 
L 111.240909 319.408668 
L 120.422727 303.292876 
L 129.604545 297.50772 
L 138.786364 273.953869 
L 147.968182 294.821754 
L 157.15 276.639834 
L 166.331818 279.739025 
L 175.513636 250.400018 
L 184.695455 257.631464 
L 193.877273 245.441313 
L 203.059091 241.309058 
L 212.240909 242.548735 
L 221.422727 252.672758 
L 230.604545 213.209728 
L 239.786364 198.333611 
L 248.968182 229.532133 
L 258.15 232.837937 
L 267.331818 196.267484 
L 276.513636 224.986653 
L 285.695455 224.160202 
L 294.877273 198.333611 
L 304.059091 200.812964 
L 313.240909 207.217959 
L 322.422727 172.920246 
L 331.604545 171.68057 
L 340.786364 193.581519 
L 349.968182 241.515671 
L 359.15 179.738466 
L 368.331818 177.052501 
L 377.513636 175.812824 
L 386.695455 167.548315 
L 395.877273 175.399599 
L 405.059091 199.573288 
L 414.240909 172.093795 
L 423.422727 172.507021 
L 432.604545 154.118488 
L 441.786364 179.325241 
L 450.968182 163.416061 
L 460.15 184.697172 
L 469.331818 163.002835 
L 478.513636 167.754928 
L 487.695455 150.606072 
L 496.877273 164.655737 
L 506.059091 166.928477 
L 515.240909 146.68043 
L 524.422727 140.068823 
L 533.604545 153.705263 
" style="fill:none;stroke:#2ca02c;stroke-linecap:square;stroke-width:1.5;"/>
   </g>
   <g id="line2d_18">
    <path clip-path="url(#pf216ac2cca)" d="M 83.695455 348.954288 
L 92.877273 348.937966 
L 102.059091 340.48296 
L 111.240909 329.155211 
L 120.422727 309.323488 
L 129.604545 299.4974 
L 138.786364 282.016104 
L 147.968182 275.40553 
L 157.15 258.087458 
L 166.331818 251.411594 
L 175.513636 241.74873 
L 184.695455 235.872664 
L 193.877273 229.376347 
L 203.059091 224.479625 
L 212.240909 220.70915 
L 221.422727 226.666828 
L 230.604545 219.648193 
L 239.786364 211.862406 
L 248.968182 210.654548 
L 258.15 212.074597 
L 267.331818 205.529313 
L 276.513636 204.043974 
L 285.695455 194.364788 
L 294.877273 196.372444 
L 304.059091 201.562968 
L 313.240909 191.279853 
L 322.422727 185.975071 
L 331.604545 192.193908 
L 340.786364 182.563689 
L 349.968182 182.188273 
L 359.15 172.280573 
L 368.331818 173.031404 
L 377.513636 175.594022 
L 386.695455 169.195639 
L 395.877273 170.893169 
L 405.059091 174.353519 
L 414.240909 161.344562 
L 423.422727 155.076758 
L 432.604545 154.75031 
L 441.786364 158.700332 
L 450.968182 158.569753 
L 460.15 150.180037 
L 469.331818 147.552129 
L 478.513636 152.807944 
L 487.695455 151.76331 
L 496.877273 143.634752 
L 506.059091 140.386593 
L 515.240909 138.640096 
L 524.422727 136.501861 
L 533.604545 144.565129 
" style="fill:none;stroke:#d62728;stroke-linecap:square;stroke-width:1.5;"/>
   </g>
   <g id="patch_3">
    <path d="M 61.2 374.8 
L 61.2 56.448219 
" style="fill:none;stroke:#000000;stroke-linecap:square;stroke-linejoin:miter;stroke-width:0.8;"/>
   </g>
   <g id="patch_4">
    <path d="M 556.1 374.8 
L 556.1 56.448219 
" style="fill:none;stroke:#000000;stroke-linecap:square;stroke-linejoin:miter;stroke-width:0.8;"/>
   </g>
   <g id="patch_5">
    <path d="M 61.2 374.8 
L 556.1 374.8 
" style="fill:none;stroke:#000000;stroke-linecap:square;stroke-linejoin:miter;stroke-width:0.8;"/>
   </g>
   <g id="patch_6">
    <path d="M 61.2 56.448219 
L 556.1 56.448219 
" style="fill:none;stroke:#000000;stroke-linecap:square;stroke-linejoin:miter;stroke-width:0.8;"/>
   </g>
   <g id="legend_1">
    <g id="patch_7">
     <path d="M 59.052344 42.712639 
L 558.247656 42.712639 
Q 561.247656 42.712639 561.247656 39.712639 
L 561.247656 19.195452 
Q 561.247656 16.195452 558.247656 16.195452 
L 59.052344 16.195452 
Q 56.052344 16.195452 56.052344 19.195452 
L 56.052344 39.712639 
Q 56.052344 42.712639 59.052344 42.712639 
z
" style="fill:#ffffff;opacity:0.8;stroke:#cccccc;stroke-linejoin:miter;"/>
    </g>
    <g id="line2d_19">
     <path d="M 62.052344 28.343108 
L 92.052344 28.343108 
" style="fill:none;stroke:#1f77b4;stroke-linecap:square;stroke-width:1.5;"/>
    </g>
    <g id="line2d_20"/>
    <g id="text_17">
     <!-- FedAvg -->
     <defs>
      <path d="M 9.8125 72.90625 
L 51.703125 72.90625 
L 51.703125 64.59375 
L 19.671875 64.59375 
L 19.671875 43.109375 
L 48.578125 43.109375 
L 48.578125 34.8125 
L 19.671875 34.8125 
L 19.671875 0 
L 9.8125 0 
z
" id="DejaVuSans-70"/>
      <path d="M 2.984375 54.6875 
L 12.5 54.6875 
L 29.59375 8.796875 
L 46.6875 54.6875 
L 56.203125 54.6875 
L 35.6875 0 
L 23.484375 0 
z
" id="DejaVuSans-118"/>
      <path d="M 45.40625 27.984375 
Q 45.40625 37.75 41.375 43.109375 
Q 37.359375 48.484375 30.078125 48.484375 
Q 22.859375 48.484375 18.828125 43.109375 
Q 14.796875 37.75 14.796875 27.984375 
Q 14.796875 18.265625 18.828125 12.890625 
Q 22.859375 7.515625 30.078125 7.515625 
Q 37.359375 7.515625 41.375 12.890625 
Q 45.40625 18.265625 45.40625 27.984375 
z
M 54.390625 6.78125 
Q 54.390625 -7.171875 48.1875 -13.984375 
Q 42 -20.796875 29.203125 -20.796875 
Q 24.46875 -20.796875 20.265625 -20.09375 
Q 16.0625 -19.390625 12.109375 -17.921875 
L 12.109375 -9.1875 
Q 16.0625 -11.328125 19.921875 -12.34375 
Q 23.78125 -13.375 27.78125 -13.375 
Q 36.625 -13.375 41.015625 -8.765625 
Q 45.40625 -4.15625 45.40625 5.171875 
L 45.40625 9.625 
Q 42.625 4.78125 38.28125 2.390625 
Q 33.9375 0 27.875 0 
Q 17.828125 0 11.671875 7.65625 
Q 5.515625 15.328125 5.515625 27.984375 
Q 5.515625 40.671875 11.671875 48.328125 
Q 17.828125 56 27.875 56 
Q 33.9375 56 38.28125 53.609375 
Q 42.625 51.21875 45.40625 46.390625 
L 45.40625 54.6875 
L 54.390625 54.6875 
z
" id="DejaVuSans-103"/>
     </defs>
     <g transform="translate(104.052344 33.593108)scale(0.15 -0.15)">
      <use xlink:href="#DejaVuSans-70"/>
      <use x="52.019531" xlink:href="#DejaVuSans-101"/>
      <use x="113.542969" xlink:href="#DejaVuSans-100"/>
      <use x="177.019531" xlink:href="#DejaVuSans-65"/>
      <use x="239.552734" xlink:href="#DejaVuSans-118"/>
      <use x="298.732422" xlink:href="#DejaVuSans-103"/>
     </g>
    </g>
    <g id="line2d_21">
     <path d="M 188.3875 28.343108 
L 218.3875 28.343108 
" style="fill:none;stroke:#ff7f0e;stroke-linecap:square;stroke-width:1.5;"/>
    </g>
    <g id="line2d_22"/>
    <g id="text_18">
     <!-- FedMed -->
     <defs>
      <path d="M 9.8125 72.90625 
L 24.515625 72.90625 
L 43.109375 23.296875 
L 61.8125 72.90625 
L 76.515625 72.90625 
L 76.515625 0 
L 66.890625 0 
L 66.890625 64.015625 
L 48.09375 14.015625 
L 38.1875 14.015625 
L 19.390625 64.015625 
L 19.390625 0 
L 9.8125 0 
z
" id="DejaVuSans-77"/>
     </defs>
     <g transform="translate(230.3875 33.593108)scale(0.15 -0.15)">
      <use xlink:href="#DejaVuSans-70"/>
      <use x="52.019531" xlink:href="#DejaVuSans-101"/>
      <use x="113.542969" xlink:href="#DejaVuSans-100"/>
      <use x="177.019531" xlink:href="#DejaVuSans-77"/>
      <use x="263.298828" xlink:href="#DejaVuSans-101"/>
      <use x="324.822266" xlink:href="#DejaVuSans-100"/>
     </g>
    </g>
    <g id="line2d_23">
     <path d="M 318.636719 28.343108 
L 348.636719 28.343108 
" style="fill:none;stroke:#2ca02c;stroke-linecap:square;stroke-width:1.5;"/>
    </g>
    <g id="line2d_24"/>
    <g id="text_19">
     <!-- FedProx -->
     <defs>
      <path d="M 19.671875 64.796875 
L 19.671875 37.40625 
L 32.078125 37.40625 
Q 38.96875 37.40625 42.71875 40.96875 
Q 46.484375 44.53125 46.484375 51.125 
Q 46.484375 57.671875 42.71875 61.234375 
Q 38.96875 64.796875 32.078125 64.796875 
z
M 9.8125 72.90625 
L 32.078125 72.90625 
Q 44.34375 72.90625 50.609375 67.359375 
Q 56.890625 61.8125 56.890625 51.125 
Q 56.890625 40.328125 50.609375 34.8125 
Q 44.34375 29.296875 32.078125 29.296875 
L 19.671875 29.296875 
L 19.671875 0 
L 9.8125 0 
z
" id="DejaVuSans-80"/>
      <path d="M 54.890625 54.6875 
L 35.109375 28.078125 
L 55.90625 0 
L 45.3125 0 
L 29.390625 21.484375 
L 13.484375 0 
L 2.875 0 
L 24.125 28.609375 
L 4.6875 54.6875 
L 15.28125 54.6875 
L 29.78125 35.203125 
L 44.28125 54.6875 
z
" id="DejaVuSans-120"/>
     </defs>
     <g transform="translate(360.636719 33.593108)scale(0.15 -0.15)">
      <use xlink:href="#DejaVuSans-70"/>
      <use x="52.019531" xlink:href="#DejaVuSans-101"/>
      <use x="113.542969" xlink:href="#DejaVuSans-100"/>
      <use x="177.019531" xlink:href="#DejaVuSans-80"/>
      <use x="235.572266" xlink:href="#DejaVuSans-114"/>
      <use x="274.435547" xlink:href="#DejaVuSans-111"/>
      <use x="332.492188" xlink:href="#DejaVuSans-120"/>
     </g>
    </g>
    <g id="line2d_25">
     <path d="M 449.389844 28.343108 
L 479.389844 28.343108 
" style="fill:none;stroke:#d62728;stroke-linecap:square;stroke-width:1.5;"/>
    </g>
    <g id="line2d_26"/>
    <g id="text_20">
     <!-- qFedAvg -->
     <defs>
      <path d="M 14.796875 27.296875 
Q 14.796875 17.390625 18.875 11.75 
Q 22.953125 6.109375 30.078125 6.109375 
Q 37.203125 6.109375 41.296875 11.75 
Q 45.40625 17.390625 45.40625 27.296875 
Q 45.40625 37.203125 41.296875 42.84375 
Q 37.203125 48.484375 30.078125 48.484375 
Q 22.953125 48.484375 18.875 42.84375 
Q 14.796875 37.203125 14.796875 27.296875 
z
M 45.40625 8.203125 
Q 42.578125 3.328125 38.25 0.953125 
Q 33.9375 -1.421875 27.875 -1.421875 
Q 17.96875 -1.421875 11.734375 6.484375 
Q 5.515625 14.40625 5.515625 27.296875 
Q 5.515625 40.1875 11.734375 48.09375 
Q 17.96875 56 27.875 56 
Q 33.9375 56 38.25 53.625 
Q 42.578125 51.265625 45.40625 46.390625 
L 45.40625 54.6875 
L 54.390625 54.6875 
L 54.390625 -20.796875 
L 45.40625 -20.796875 
z
" id="DejaVuSans-113"/>
     </defs>
     <g transform="translate(491.389844 33.593108)scale(0.15 -0.15)">
      <use xlink:href="#DejaVuSans-113"/>
      <use x="63.476562" xlink:href="#DejaVuSans-70"/>
      <use x="115.496094" xlink:href="#DejaVuSans-101"/>
      <use x="177.019531" xlink:href="#DejaVuSans-100"/>
      <use x="240.496094" xlink:href="#DejaVuSans-65"/>
      <use x="303.029297" xlink:href="#DejaVuSans-118"/>
      <use x="362.208984" xlink:href="#DejaVuSans-103"/>
     </g>
    </g>
   </g>
  </g>
 </g>
 <defs>
  <clipPath id="pf216ac2cca">
   <rect height="318.351781" width="494.9" x="61.2" y="56.448219"/>
  </clipPath>
 </defs>
</svg>
