<?xml version="1.0" encoding="utf-8" standalone="no"?>
<!DOCTYPE svg PUBLIC "-//W3C//DTD SVG 1.1//EN"
  "http://www.w3.org/Graphics/SVG/1.1/DTD/svg11.dtd">
<!-- Created with matplotlib (https://matplotlib.org/) -->
<svg height="432pt" version="1.1" viewBox="0 0 576 432" width="576pt" xmlns="http://www.w3.org/2000/svg" xmlns:xlink="http://www.w3.org/1999/xlink">
 <defs>
  <style type="text/css">
*{stroke-linecap:butt;stroke-linejoin:round;}
  </style>
 </defs>
 <g id="figure_1">
  <g id="patch_1">
   <path d="M 0 432 
L 576 432 
L 576 0 
L 0 0 
z
" style="fill:#ffffff;"/>
  </g>
  <g id="axes_1">
   <g id="patch_2">
    <path d="M 61.2 374.8 
L 556.1 374.8 
L 556.1 56.448219 
L 61.2 56.448219 
z
" style="fill:#ffffff;"/>
   </g>
   <g id="PolyCollection_1">
    <path clip-path="url(#p9b6b9a1137)" d="M 83.695455 306.684719 
L 83.695455 320.337268 
L 92.877273 308.158886 
L 102.059091 281.570532 
L 111.240909 271.252006 
L 120.422727 264.537138 
L 129.604545 248.921423 
L 138.786364 235.967934 
L 147.968182 233.978428 
L 157.15 229.92613 
L 166.331818 226.862846 
L 175.513636 210.008058 
L 184.695455 210.107359 
L 193.877273 208.313857 
L 203.059091 196.741422 
L 212.240909 196.21797 
L 221.422727 189.748669 
L 230.604545 186.885418 
L 239.786364 175.939705 
L 248.968182 176.033422 
L 258.15 175.382756 
L 267.331818 165.482496 
L 276.513636 159.583684 
L 285.695455 162.622644 
L 294.877273 158.983938 
L 304.059091 157.430684 
L 313.240909 152.098602 
L 322.422727 148.483959 
L 331.604545 145.010681 
L 340.786364 144.244335 
L 349.968182 145.548985 
L 359.15 135.741595 
L 368.331818 134.240795 
L 377.513636 137.657508 
L 386.695455 129.14448 
L 395.877273 127.901959 
L 405.059091 117.841055 
L 414.240909 125.503076 
L 423.422727 122.969135 
L 432.604545 126.605917 
L 441.786364 114.489479 
L 450.968182 114.625731 
L 460.15 113.844932 
L 469.331818 112.40016 
L 478.513636 113.758813 
L 487.695455 104.845207 
L 496.877273 102.349851 
L 506.059091 97.581084 
L 515.240909 92.425383 
L 524.422727 94.71374 
L 533.604545 92.371743 
L 533.604545 81.900312 
L 533.604545 81.900312 
L 524.422727 81.43472 
L 515.240909 83.991135 
L 506.059091 83.928536 
L 496.877273 81.840349 
L 487.695455 90.33537 
L 478.513636 84.102344 
L 469.331818 98.863896 
L 460.15 99.29553 
L 450.968182 95.029977 
L 441.786364 106.692723 
L 432.604545 102.081908 
L 423.422727 108.131212 
L 414.240909 112.030662 
L 405.059091 110.578712 
L 395.877273 117.673519 
L 386.695455 117.50323 
L 377.513636 118.372231 
L 368.331818 127.954278 
L 359.15 126.989594 
L 349.968182 127.368408 
L 340.786364 129.209173 
L 331.604545 138.092915 
L 322.422727 136.496042 
L 313.240909 139.582849 
L 304.059091 146.045318 
L 294.877273 146.100412 
L 285.695455 148.627039 
L 276.513636 153.274348 
L 267.331818 155.149217 
L 258.15 159.187972 
L 248.968182 159.609538 
L 239.786364 168.817227 
L 230.604545 175.56334 
L 221.422727 174.040379 
L 212.240909 180.973977 
L 203.059091 180.182467 
L 193.877273 192.199135 
L 184.695455 193.354271 
L 175.513636 201.763369 
L 166.331818 207.157393 
L 157.15 201.41353 
L 147.968182 215.857233 
L 138.786364 220.569176 
L 129.604545 227.18392 
L 120.422727 251.776902 
L 111.240909 255.516295 
L 102.059091 259.136785 
L 92.877273 288.304491 
L 83.695455 306.684719 
z
" style="fill:#1f77b4;fill-opacity:0.5;"/>
   </g>
   <g id="PolyCollection_2">
    <path clip-path="url(#p9b6b9a1137)" d="M 83.695455 318.219443 
L 83.695455 344.990371 
L 92.877273 295.075979 
L 102.059091 274.727193 
L 111.240909 268.884364 
L 120.422727 253.389324 
L 129.604545 244.21257 
L 138.786364 251.45557 
L 147.968182 234.673983 
L 157.15 227.958935 
L 166.331818 225.384354 
L 175.513636 219.906703 
L 184.695455 213.491753 
L 193.877273 211.822644 
L 203.059091 206.258708 
L 212.240909 202.412505 
L 221.422727 203.72747 
L 230.604545 193.967349 
L 239.786364 187.497903 
L 248.968182 183.823721 
L 258.15 184.90325 
L 267.331818 173.643711 
L 276.513636 168.62171 
L 285.695455 172.973614 
L 294.877273 165.514942 
L 304.059091 164.824665 
L 313.240909 159.691158 
L 322.422727 158.332773 
L 331.604545 156.354585 
L 340.786364 149.895033 
L 349.968182 150.428864 
L 359.15 148.715423 
L 368.331818 143.226503 
L 377.513636 149.883909 
L 386.695455 139.91291 
L 395.877273 136.763701 
L 405.059091 131.49568 
L 414.240909 134.037576 
L 423.422727 132.145019 
L 432.604545 136.030236 
L 441.786364 130.661394 
L 450.968182 128.597539 
L 460.15 122.565197 
L 469.331818 128.320813 
L 478.513636 124.832785 
L 487.695455 120.712294 
L 496.877273 119.628833 
L 506.059091 111.744088 
L 515.240909 112.557315 
L 524.422727 108.671347 
L 533.604545 109.84163 
L 533.604545 86.143121 
L 533.604545 86.143121 
L 524.422727 92.138448 
L 515.240909 90.665002 
L 506.059091 98.983852 
L 496.877273 99.676962 
L 487.695455 105.026893 
L 478.513636 101.442518 
L 469.331818 112.161563 
L 460.15 110.679614 
L 450.968182 107.327852 
L 441.786364 112.233504 
L 432.604545 121.071736 
L 423.422727 122.008315 
L 414.240909 123.600512 
L 405.059091 122.389596 
L 395.877273 131.864763 
L 386.695455 128.179439 
L 377.513636 129.734933 
L 368.331818 136.392339 
L 359.15 132.511767 
L 349.968182 142.324819 
L 340.786364 133.744678 
L 331.604545 141.224142 
L 322.422727 146.483519 
L 313.240909 154.507163 
L 304.059091 157.415395 
L 294.877273 159.137641 
L 285.695455 158.916535 
L 276.513636 159.515626 
L 267.331818 164.143712 
L 258.15 168.699594 
L 248.968182 175.944458 
L 239.786364 177.095319 
L 230.604545 178.131496 
L 221.422727 184.186797 
L 212.240909 186.842051 
L 203.059091 190.233414 
L 193.877273 195.927913 
L 184.695455 202.836659 
L 175.513636 200.978696 
L 166.331818 209.708118 
L 157.15 205.525188 
L 147.968182 215.429735 
L 138.786364 226.794236 
L 129.604545 224.387149 
L 120.422727 245.500947 
L 111.240909 247.429676 
L 102.059091 240.246558 
L 92.877273 276.458006 
L 83.695455 318.219443 
z
" style="fill:#ff7f0e;fill-opacity:0.5;"/>
   </g>
   <g id="PolyCollection_3">
    <path clip-path="url(#p9b6b9a1137)" d="M 83.695455 303.101798 
L 83.695455 338.931435 
L 92.877273 295.590077 
L 102.059091 286.112837 
L 111.240909 275.198233 
L 120.422727 256.275587 
L 129.604545 252.760502 
L 138.786364 248.716963 
L 147.968182 228.003409 
L 157.15 228.598839 
L 166.331818 223.649734 
L 175.513636 215.326728 
L 184.695455 215.569859 
L 193.877273 207.845349 
L 203.059091 204.172013 
L 212.240909 198.38009 
L 221.422727 190.236685 
L 230.604545 195.872986 
L 239.786364 186.415762 
L 248.968182 180.66893 
L 258.15 186.074747 
L 267.331818 178.868274 
L 276.513636 180.670698 
L 285.695455 175.647159 
L 294.877273 175.913773 
L 304.059091 174.643243 
L 313.240909 173.561013 
L 322.422727 171.791007 
L 331.604545 172.090501 
L 340.786364 169.831352 
L 349.968182 169.334054 
L 359.15 165.934586 
L 368.331818 165.918077 
L 377.513636 168.094191 
L 386.695455 166.765448 
L 395.877273 162.943552 
L 405.059091 164.483846 
L 414.240909 159.93937 
L 423.422727 162.676433 
L 432.604545 160.614686 
L 441.786364 158.210919 
L 450.968182 156.777503 
L 460.15 155.183465 
L 469.331818 152.717376 
L 478.513636 152.228879 
L 487.695455 153.282595 
L 496.877273 150.258097 
L 506.059091 151.378912 
L 515.240909 149.576842 
L 524.422727 147.314809 
L 533.604545 148.88103 
L 533.604545 74.713693 
L 533.604545 74.713693 
L 524.422727 70.918754 
L 515.240909 77.502635 
L 506.059091 82.402015 
L 496.877273 79.50196 
L 487.695455 88.540071 
L 478.513636 84.768744 
L 469.331818 87.228885 
L 460.15 94.412882 
L 450.968182 98.180004 
L 441.786364 103.17998 
L 432.604545 110.962416 
L 423.422727 110.509017 
L 414.240909 108.689095 
L 405.059091 117.815575 
L 395.877273 117.479464 
L 386.695455 125.720177 
L 377.513636 129.484535 
L 368.331818 124.691142 
L 359.15 126.551039 
L 349.968182 131.729426 
L 340.786364 137.933578 
L 331.604545 137.818892 
L 322.422727 144.551778 
L 313.240909 147.0707 
L 304.059091 151.081572 
L 294.877273 153.831912 
L 285.695455 153.830467 
L 276.513636 158.188958 
L 267.331818 158.114976 
L 258.15 166.187808 
L 248.968182 164.892175 
L 239.786364 173.888532 
L 230.604545 174.88557 
L 221.422727 173.552363 
L 212.240909 186.585539 
L 203.059091 185.350601 
L 193.877273 194.812106 
L 184.695455 201.29467 
L 175.513636 205.826729 
L 166.331818 210.638563 
L 157.15 212.658966 
L 147.968182 221.832251 
L 138.786364 221.223046 
L 129.604545 227.901827 
L 120.422727 234.841003 
L 111.240909 249.425605 
L 102.059091 263.172335 
L 92.877273 271.118864 
L 83.695455 303.101798 
z
" style="fill:#2ca02c;fill-opacity:0.5;"/>
   </g>
   <g id="PolyCollection_4">
    <path clip-path="url(#p9b6b9a1137)" d="M 83.695455 360.160052 
L 83.695455 360.329464 
L 92.877273 349.11386 
L 102.059091 279.300106 
L 111.240909 259.668145 
L 120.422727 261.793302 
L 129.604545 247.625888 
L 138.786364 237.444431 
L 147.968182 234.624867 
L 157.15 222.108429 
L 166.331818 209.344158 
L 175.513636 212.75514 
L 184.695455 204.407023 
L 193.877273 198.419699 
L 203.059091 195.470755 
L 212.240909 191.771596 
L 221.422727 181.868441 
L 230.604545 181.969309 
L 239.786364 180.371456 
L 248.968182 174.636336 
L 258.15 177.286615 
L 267.331818 171.413117 
L 276.513636 164.853547 
L 285.695455 159.152016 
L 294.877273 156.319508 
L 304.059091 153.723356 
L 313.240909 151.095471 
L 322.422727 146.89927 
L 331.604545 145.83506 
L 340.786364 140.364469 
L 349.968182 135.970207 
L 359.15 137.620727 
L 368.331818 135.895831 
L 377.513636 132.115385 
L 386.695455 125.981918 
L 395.877273 126.037806 
L 405.059091 123.784812 
L 414.240909 121.169463 
L 423.422727 119.057746 
L 432.604545 116.747037 
L 441.786364 113.014624 
L 450.968182 111.080515 
L 460.15 108.13107 
L 469.331818 109.612721 
L 478.513636 105.197848 
L 487.695455 104.957203 
L 496.877273 100.249167 
L 506.059091 100.093835 
L 515.240909 98.511159 
L 524.422727 94.459066 
L 533.604545 91.252285 
L 533.604545 85.168522 
L 533.604545 85.168522 
L 524.422727 86.324117 
L 515.240909 89.345002 
L 506.059091 91.108225 
L 496.877273 90.190537 
L 487.695455 92.957834 
L 478.513636 94.178373 
L 469.331818 98.107073 
L 460.15 102.511091 
L 450.968182 104.49579 
L 441.786364 104.848752 
L 432.604545 111.662276 
L 423.422727 110.982163 
L 414.240909 114.312828 
L 405.059091 118.050453 
L 395.877273 119.058652 
L 386.695455 121.105139 
L 377.513636 124.39525 
L 368.331818 125.993656 
L 359.15 131.278208 
L 349.968182 131.404014 
L 340.786364 134.781557 
L 331.604545 137.231007 
L 322.422727 139.766816 
L 313.240909 144.613015 
L 304.059091 144.822791 
L 294.877273 149.765502 
L 285.695455 152.502435 
L 276.513636 154.403296 
L 267.331818 157.288481 
L 258.15 161.431506 
L 248.968182 166.432386 
L 239.786364 170.014961 
L 230.604545 174.770082 
L 221.422727 177.242727 
L 212.240909 180.934937 
L 203.059091 183.334634 
L 193.877273 187.395138 
L 184.695455 194.304351 
L 175.513636 203.808091 
L 166.331818 203.936703 
L 157.15 213.85255 
L 147.968182 221.390334 
L 138.786364 224.39433 
L 129.604545 232.678852 
L 120.422727 247.608059 
L 111.240909 251.024987 
L 102.059091 267.837921 
L 92.877273 326.608365 
L 83.695455 360.160052 
z
" style="fill:#d62728;fill-opacity:0.5;"/>
   </g>
   <g id="matplotlib.axis_1">
    <g id="xtick_1">
     <g id="line2d_1">
      <defs>
       <path d="M 0 0 
L 0 3.5 
" id="mf2f6279fd2" style="stroke:#000000;stroke-width:0.8;"/>
      </defs>
      <g>
       <use style="stroke:#000000;stroke-width:0.8;" x="83.695455" xlink:href="#mf2f6279fd2" y="374.8"/>
      </g>
     </g>
     <g id="text_1">
      <!-- 0 -->
      <defs>
       <path d="M 31.78125 66.40625 
Q 24.171875 66.40625 20.328125 58.90625 
Q 16.5 51.421875 16.5 36.375 
Q 16.5 21.390625 20.328125 13.890625 
Q 24.171875 6.390625 31.78125 6.390625 
Q 39.453125 6.390625 43.28125 13.890625 
Q 47.125 21.390625 47.125 36.375 
Q 47.125 51.421875 43.28125 58.90625 
Q 39.453125 66.40625 31.78125 66.40625 
z
M 31.78125 74.21875 
Q 44.046875 74.21875 50.515625 64.515625 
Q 56.984375 54.828125 56.984375 36.375 
Q 56.984375 17.96875 50.515625 8.265625 
Q 44.046875 -1.421875 31.78125 -1.421875 
Q 19.53125 -1.421875 13.0625 8.265625 
Q 6.59375 17.96875 6.59375 36.375 
Q 6.59375 54.828125 13.0625 64.515625 
Q 19.53125 74.21875 31.78125 74.21875 
z
" id="DejaVuSans-48"/>
      </defs>
      <g transform="translate(78.92358 393.197656)scale(0.15 -0.15)">
       <use xlink:href="#DejaVuSans-48"/>
      </g>
     </g>
    </g>
    <g id="xtick_2">
     <g id="line2d_2">
      <g>
       <use style="stroke:#000000;stroke-width:0.8;" x="175.513636" xlink:href="#mf2f6279fd2" y="374.8"/>
      </g>
     </g>
     <g id="text_2">
      <!-- 10 -->
      <defs>
       <path d="M 12.40625 8.296875 
L 28.515625 8.296875 
L 28.515625 63.921875 
L 10.984375 60.40625 
L 10.984375 69.390625 
L 28.421875 72.90625 
L 38.28125 72.90625 
L 38.28125 8.296875 
L 54.390625 8.296875 
L 54.390625 0 
L 12.40625 0 
z
" id="DejaVuSans-49"/>
      </defs>
      <g transform="translate(165.969886 393.197656)scale(0.15 -0.15)">
       <use xlink:href="#DejaVuSans-49"/>
       <use x="63.623047" xlink:href="#DejaVuSans-48"/>
      </g>
     </g>
    </g>
    <g id="xtick_3">
     <g id="line2d_3">
      <g>
       <use style="stroke:#000000;stroke-width:0.8;" x="267.331818" xlink:href="#mf2f6279fd2" y="374.8"/>
      </g>
     </g>
     <g id="text_3">
      <!-- 20 -->
      <defs>
       <path d="M 19.1875 8.296875 
L 53.609375 8.296875 
L 53.609375 0 
L 7.328125 0 
L 7.328125 8.296875 
Q 12.9375 14.109375 22.625 23.890625 
Q 32.328125 33.6875 34.8125 36.53125 
Q 39.546875 41.84375 41.421875 45.53125 
Q 43.3125 49.21875 43.3125 52.78125 
Q 43.3125 58.59375 39.234375 62.25 
Q 35.15625 65.921875 28.609375 65.921875 
Q 23.96875 65.921875 18.8125 64.3125 
Q 13.671875 62.703125 7.8125 59.421875 
L 7.8125 69.390625 
Q 13.765625 71.78125 18.9375 73 
Q 24.125 74.21875 28.421875 74.21875 
Q 39.75 74.21875 46.484375 68.546875 
Q 53.21875 62.890625 53.21875 53.421875 
Q 53.21875 48.921875 51.53125 44.890625 
Q 49.859375 40.875 45.40625 35.40625 
Q 44.1875 33.984375 37.640625 27.21875 
Q 31.109375 20.453125 19.1875 8.296875 
z
" id="DejaVuSans-50"/>
      </defs>
      <g transform="translate(257.788068 393.197656)scale(0.15 -0.15)">
       <use xlink:href="#DejaVuSans-50"/>
       <use x="63.623047" xlink:href="#DejaVuSans-48"/>
      </g>
     </g>
    </g>
    <g id="xtick_4">
     <g id="line2d_4">
      <g>
       <use style="stroke:#000000;stroke-width:0.8;" x="359.15" xlink:href="#mf2f6279fd2" y="374.8"/>
      </g>
     </g>
     <g id="text_4">
      <!-- 30 -->
      <defs>
       <path d="M 40.578125 39.3125 
Q 47.65625 37.796875 51.625 33 
Q 55.609375 28.21875 55.609375 21.1875 
Q 55.609375 10.40625 48.1875 4.484375 
Q 40.765625 -1.421875 27.09375 -1.421875 
Q 22.515625 -1.421875 17.65625 -0.515625 
Q 12.796875 0.390625 7.625 2.203125 
L 7.625 11.71875 
Q 11.71875 9.328125 16.59375 8.109375 
Q 21.484375 6.890625 26.8125 6.890625 
Q 36.078125 6.890625 40.9375 10.546875 
Q 45.796875 14.203125 45.796875 21.1875 
Q 45.796875 27.640625 41.28125 31.265625 
Q 36.765625 34.90625 28.71875 34.90625 
L 20.21875 34.90625 
L 20.21875 43.015625 
L 29.109375 43.015625 
Q 36.375 43.015625 40.234375 45.921875 
Q 44.09375 48.828125 44.09375 54.296875 
Q 44.09375 59.90625 40.109375 62.90625 
Q 36.140625 65.921875 28.71875 65.921875 
Q 24.65625 65.921875 20.015625 65.03125 
Q 15.375 64.15625 9.8125 62.3125 
L 9.8125 71.09375 
Q 15.4375 72.65625 20.34375 73.4375 
Q 25.25 74.21875 29.59375 74.21875 
Q 40.828125 74.21875 47.359375 69.109375 
Q 53.90625 64.015625 53.90625 55.328125 
Q 53.90625 49.265625 50.4375 45.09375 
Q 46.96875 40.921875 40.578125 39.3125 
z
" id="DejaVuSans-51"/>
      </defs>
      <g transform="translate(349.60625 393.197656)scale(0.15 -0.15)">
       <use xlink:href="#DejaVuSans-51"/>
       <use x="63.623047" xlink:href="#DejaVuSans-48"/>
      </g>
     </g>
    </g>
    <g id="xtick_5">
     <g id="line2d_5">
      <g>
       <use style="stroke:#000000;stroke-width:0.8;" x="450.968182" xlink:href="#mf2f6279fd2" y="374.8"/>
      </g>
     </g>
     <g id="text_5">
      <!-- 40 -->
      <defs>
       <path d="M 37.796875 64.3125 
L 12.890625 25.390625 
L 37.796875 25.390625 
z
M 35.203125 72.90625 
L 47.609375 72.90625 
L 47.609375 25.390625 
L 58.015625 25.390625 
L 58.015625 17.1875 
L 47.609375 17.1875 
L 47.609375 0 
L 37.796875 0 
L 37.796875 17.1875 
L 4.890625 17.1875 
L 4.890625 26.703125 
z
" id="DejaVuSans-52"/>
      </defs>
      <g transform="translate(441.424432 393.197656)scale(0.15 -0.15)">
       <use xlink:href="#DejaVuSans-52"/>
       <use x="63.623047" xlink:href="#DejaVuSans-48"/>
      </g>
     </g>
    </g>
    <g id="xtick_6">
     <g id="line2d_6">
      <g>
       <use style="stroke:#000000;stroke-width:0.8;" x="542.786364" xlink:href="#mf2f6279fd2" y="374.8"/>
      </g>
     </g>
     <g id="text_6">
      <!-- 50 -->
      <defs>
       <path d="M 10.796875 72.90625 
L 49.515625 72.90625 
L 49.515625 64.59375 
L 19.828125 64.59375 
L 19.828125 46.734375 
Q 21.96875 47.46875 24.109375 47.828125 
Q 26.265625 48.1875 28.421875 48.1875 
Q 40.625 48.1875 47.75 41.5 
Q 54.890625 34.8125 54.890625 23.390625 
Q 54.890625 11.625 47.5625 5.09375 
Q 40.234375 -1.421875 26.90625 -1.421875 
Q 22.3125 -1.421875 17.546875 -0.640625 
Q 12.796875 0.140625 7.71875 1.703125 
L 7.71875 11.625 
Q 12.109375 9.234375 16.796875 8.0625 
Q 21.484375 6.890625 26.703125 6.890625 
Q 35.15625 6.890625 40.078125 11.328125 
Q 45.015625 15.765625 45.015625 23.390625 
Q 45.015625 31 40.078125 35.4375 
Q 35.15625 39.890625 26.703125 39.890625 
Q 22.75 39.890625 18.8125 39.015625 
Q 14.890625 38.140625 10.796875 36.28125 
z
" id="DejaVuSans-53"/>
      </defs>
      <g transform="translate(533.242614 393.197656)scale(0.15 -0.15)">
       <use xlink:href="#DejaVuSans-53"/>
       <use x="63.623047" xlink:href="#DejaVuSans-48"/>
      </g>
     </g>
    </g>
    <g id="text_7">
     <!-- Global Communication Rounds -->
     <defs>
      <path d="M 59.515625 10.40625 
L 59.515625 29.984375 
L 43.40625 29.984375 
L 43.40625 38.09375 
L 69.28125 38.09375 
L 69.28125 6.78125 
Q 63.578125 2.734375 56.6875 0.65625 
Q 49.8125 -1.421875 42 -1.421875 
Q 24.90625 -1.421875 15.25 8.5625 
Q 5.609375 18.5625 5.609375 36.375 
Q 5.609375 54.25 15.25 64.234375 
Q 24.90625 74.21875 42 74.21875 
Q 49.125 74.21875 55.546875 72.453125 
Q 61.96875 70.703125 67.390625 67.28125 
L 67.390625 56.78125 
Q 61.921875 61.421875 55.765625 63.765625 
Q 49.609375 66.109375 42.828125 66.109375 
Q 29.4375 66.109375 22.71875 58.640625 
Q 16.015625 51.171875 16.015625 36.375 
Q 16.015625 21.625 22.71875 14.15625 
Q 29.4375 6.6875 42.828125 6.6875 
Q 48.046875 6.6875 52.140625 7.59375 
Q 56.25 8.5 59.515625 10.40625 
z
" id="DejaVuSans-71"/>
      <path d="M 9.421875 75.984375 
L 18.40625 75.984375 
L 18.40625 0 
L 9.421875 0 
z
" id="DejaVuSans-108"/>
      <path d="M 30.609375 48.390625 
Q 23.390625 48.390625 19.1875 42.75 
Q 14.984375 37.109375 14.984375 27.296875 
Q 14.984375 17.484375 19.15625 11.84375 
Q 23.34375 6.203125 30.609375 6.203125 
Q 37.796875 6.203125 41.984375 11.859375 
Q 46.1875 17.53125 46.1875 27.296875 
Q 46.1875 37.015625 41.984375 42.703125 
Q 37.796875 48.390625 30.609375 48.390625 
z
M 30.609375 56 
Q 42.328125 56 49.015625 48.375 
Q 55.71875 40.765625 55.71875 27.296875 
Q 55.71875 13.875 49.015625 6.21875 
Q 42.328125 -1.421875 30.609375 -1.421875 
Q 18.84375 -1.421875 12.171875 6.21875 
Q 5.515625 13.875 5.515625 27.296875 
Q 5.515625 40.765625 12.171875 48.375 
Q 18.84375 56 30.609375 56 
z
" id="DejaVuSans-111"/>
      <path d="M 48.6875 27.296875 
Q 48.6875 37.203125 44.609375 42.84375 
Q 40.53125 48.484375 33.40625 48.484375 
Q 26.265625 48.484375 22.1875 42.84375 
Q 18.109375 37.203125 18.109375 27.296875 
Q 18.109375 17.390625 22.1875 11.75 
Q 26.265625 6.109375 33.40625 6.109375 
Q 40.53125 6.109375 44.609375 11.75 
Q 48.6875 17.390625 48.6875 27.296875 
z
M 18.109375 46.390625 
Q 20.953125 51.265625 25.265625 53.625 
Q 29.59375 56 35.59375 56 
Q 45.5625 56 51.78125 48.09375 
Q 58.015625 40.1875 58.015625 27.296875 
Q 58.015625 14.40625 51.78125 6.484375 
Q 45.5625 -1.421875 35.59375 -1.421875 
Q 29.59375 -1.421875 25.265625 0.953125 
Q 20.953125 3.328125 18.109375 8.203125 
L 18.109375 0 
L 9.078125 0 
L 9.078125 75.984375 
L 18.109375 75.984375 
z
" id="DejaVuSans-98"/>
      <path d="M 34.28125 27.484375 
Q 23.390625 27.484375 19.1875 25 
Q 14.984375 22.515625 14.984375 16.5 
Q 14.984375 11.71875 18.140625 8.90625 
Q 21.296875 6.109375 26.703125 6.109375 
Q 34.1875 6.109375 38.703125 11.40625 
Q 43.21875 16.703125 43.21875 25.484375 
L 43.21875 27.484375 
z
M 52.203125 31.203125 
L 52.203125 0 
L 43.21875 0 
L 43.21875 8.296875 
Q 40.140625 3.328125 35.546875 0.953125 
Q 30.953125 -1.421875 24.3125 -1.421875 
Q 15.921875 -1.421875 10.953125 3.296875 
Q 6 8.015625 6 15.921875 
Q 6 25.140625 12.171875 29.828125 
Q 18.359375 34.515625 30.609375 34.515625 
L 43.21875 34.515625 
L 43.21875 35.40625 
Q 43.21875 41.609375 39.140625 45 
Q 35.0625 48.390625 27.6875 48.390625 
Q 23 48.390625 18.546875 47.265625 
Q 14.109375 46.140625 10.015625 43.890625 
L 10.015625 52.203125 
Q 14.9375 54.109375 19.578125 55.046875 
Q 24.21875 56 28.609375 56 
Q 40.484375 56 46.34375 49.84375 
Q 52.203125 43.703125 52.203125 31.203125 
z
" id="DejaVuSans-97"/>
      <path id="DejaVuSans-32"/>
      <path d="M 64.40625 67.28125 
L 64.40625 56.890625 
Q 59.421875 61.53125 53.78125 63.8125 
Q 48.140625 66.109375 41.796875 66.109375 
Q 29.296875 66.109375 22.65625 58.46875 
Q 16.015625 50.828125 16.015625 36.375 
Q 16.015625 21.96875 22.65625 14.328125 
Q 29.296875 6.6875 41.796875 6.6875 
Q 48.140625 6.6875 53.78125 8.984375 
Q 59.421875 11.28125 64.40625 15.921875 
L 64.40625 5.609375 
Q 59.234375 2.09375 53.4375 0.328125 
Q 47.65625 -1.421875 41.21875 -1.421875 
Q 24.65625 -1.421875 15.125 8.703125 
Q 5.609375 18.84375 5.609375 36.375 
Q 5.609375 53.953125 15.125 64.078125 
Q 24.65625 74.21875 41.21875 74.21875 
Q 47.75 74.21875 53.53125 72.484375 
Q 59.328125 70.75 64.40625 67.28125 
z
" id="DejaVuSans-67"/>
      <path d="M 52 44.1875 
Q 55.375 50.25 60.0625 53.125 
Q 64.75 56 71.09375 56 
Q 79.640625 56 84.28125 50.015625 
Q 88.921875 44.046875 88.921875 33.015625 
L 88.921875 0 
L 79.890625 0 
L 79.890625 32.71875 
Q 79.890625 40.578125 77.09375 44.375 
Q 74.3125 48.1875 68.609375 48.1875 
Q 61.625 48.1875 57.5625 43.546875 
Q 53.515625 38.921875 53.515625 30.90625 
L 53.515625 0 
L 44.484375 0 
L 44.484375 32.71875 
Q 44.484375 40.625 41.703125 44.40625 
Q 38.921875 48.1875 33.109375 48.1875 
Q 26.21875 48.1875 22.15625 43.53125 
Q 18.109375 38.875 18.109375 30.90625 
L 18.109375 0 
L 9.078125 0 
L 9.078125 54.6875 
L 18.109375 54.6875 
L 18.109375 46.1875 
Q 21.1875 51.21875 25.484375 53.609375 
Q 29.78125 56 35.6875 56 
Q 41.65625 56 45.828125 52.96875 
Q 50 49.953125 52 44.1875 
z
" id="DejaVuSans-109"/>
      <path d="M 8.5 21.578125 
L 8.5 54.6875 
L 17.484375 54.6875 
L 17.484375 21.921875 
Q 17.484375 14.15625 20.5 10.265625 
Q 23.53125 6.390625 29.59375 6.390625 
Q 36.859375 6.390625 41.078125 11.03125 
Q 45.3125 15.671875 45.3125 23.6875 
L 45.3125 54.6875 
L 54.296875 54.6875 
L 54.296875 0 
L 45.3125 0 
L 45.3125 8.40625 
Q 42.046875 3.421875 37.71875 1 
Q 33.40625 -1.421875 27.6875 -1.421875 
Q 18.265625 -1.421875 13.375 4.4375 
Q 8.5 10.296875 8.5 21.578125 
z
M 31.109375 56 
z
" id="DejaVuSans-117"/>
      <path d="M 54.890625 33.015625 
L 54.890625 0 
L 45.90625 0 
L 45.90625 32.71875 
Q 45.90625 40.484375 42.875 44.328125 
Q 39.84375 48.1875 33.796875 48.1875 
Q 26.515625 48.1875 22.3125 43.546875 
Q 18.109375 38.921875 18.109375 30.90625 
L 18.109375 0 
L 9.078125 0 
L 9.078125 54.6875 
L 18.109375 54.6875 
L 18.109375 46.1875 
Q 21.34375 51.125 25.703125 53.5625 
Q 30.078125 56 35.796875 56 
Q 45.21875 56 50.046875 50.171875 
Q 54.890625 44.34375 54.890625 33.015625 
z
" id="DejaVuSans-110"/>
      <path d="M 9.421875 54.6875 
L 18.40625 54.6875 
L 18.40625 0 
L 9.421875 0 
z
M 9.421875 75.984375 
L 18.40625 75.984375 
L 18.40625 64.59375 
L 9.421875 64.59375 
z
" id="DejaVuSans-105"/>
      <path d="M 48.78125 52.59375 
L 48.78125 44.1875 
Q 44.96875 46.296875 41.140625 47.34375 
Q 37.3125 48.390625 33.40625 48.390625 
Q 24.65625 48.390625 19.8125 42.84375 
Q 14.984375 37.3125 14.984375 27.296875 
Q 14.984375 17.28125 19.8125 11.734375 
Q 24.65625 6.203125 33.40625 6.203125 
Q 37.3125 6.203125 41.140625 7.25 
Q 44.96875 8.296875 48.78125 10.40625 
L 48.78125 2.09375 
Q 45.015625 0.34375 40.984375 -0.53125 
Q 36.96875 -1.421875 32.421875 -1.421875 
Q 20.0625 -1.421875 12.78125 6.34375 
Q 5.515625 14.109375 5.515625 27.296875 
Q 5.515625 40.671875 12.859375 48.328125 
Q 20.21875 56 33.015625 56 
Q 37.15625 56 41.109375 55.140625 
Q 45.0625 54.296875 48.78125 52.59375 
z
" id="DejaVuSans-99"/>
      <path d="M 18.3125 70.21875 
L 18.3125 54.6875 
L 36.8125 54.6875 
L 36.8125 47.703125 
L 18.3125 47.703125 
L 18.3125 18.015625 
Q 18.3125 11.328125 20.140625 9.421875 
Q 21.96875 7.515625 27.59375 7.515625 
L 36.8125 7.515625 
L 36.8125 0 
L 27.59375 0 
Q 17.1875 0 13.234375 3.875 
Q 9.28125 7.765625 9.28125 18.015625 
L 9.28125 47.703125 
L 2.6875 47.703125 
L 2.6875 54.6875 
L 9.28125 54.6875 
L 9.28125 70.21875 
z
" id="DejaVuSans-116"/>
      <path d="M 44.390625 34.1875 
Q 47.5625 33.109375 50.5625 29.59375 
Q 53.5625 26.078125 56.59375 19.921875 
L 66.609375 0 
L 56 0 
L 46.6875 18.703125 
Q 43.0625 26.03125 39.671875 28.421875 
Q 36.28125 30.8125 30.421875 30.8125 
L 19.671875 30.8125 
L 19.671875 0 
L 9.8125 0 
L 9.8125 72.90625 
L 32.078125 72.90625 
Q 44.578125 72.90625 50.734375 67.671875 
Q 56.890625 62.453125 56.890625 51.90625 
Q 56.890625 45.015625 53.6875 40.46875 
Q 50.484375 35.9375 44.390625 34.1875 
z
M 19.671875 64.796875 
L 19.671875 38.921875 
L 32.078125 38.921875 
Q 39.203125 38.921875 42.84375 42.21875 
Q 46.484375 45.515625 46.484375 51.90625 
Q 46.484375 58.296875 42.84375 61.546875 
Q 39.203125 64.796875 32.078125 64.796875 
z
" id="DejaVuSans-82"/>
      <path d="M 45.40625 46.390625 
L 45.40625 75.984375 
L 54.390625 75.984375 
L 54.390625 0 
L 45.40625 0 
L 45.40625 8.203125 
Q 42.578125 3.328125 38.25 0.953125 
Q 33.9375 -1.421875 27.875 -1.421875 
Q 17.96875 -1.421875 11.734375 6.484375 
Q 5.515625 14.40625 5.515625 27.296875 
Q 5.515625 40.1875 11.734375 48.09375 
Q 17.96875 56 27.875 56 
Q 33.9375 56 38.25 53.625 
Q 42.578125 51.265625 45.40625 46.390625 
z
M 14.796875 27.296875 
Q 14.796875 17.390625 18.875 11.75 
Q 22.953125 6.109375 30.078125 6.109375 
Q 37.203125 6.109375 41.296875 11.75 
Q 45.40625 17.390625 45.40625 27.296875 
Q 45.40625 37.203125 41.296875 42.84375 
Q 37.203125 48.484375 30.078125 48.484375 
Q 22.953125 48.484375 18.875 42.84375 
Q 14.796875 37.203125 14.796875 27.296875 
z
" id="DejaVuSans-100"/>
      <path d="M 44.28125 53.078125 
L 44.28125 44.578125 
Q 40.484375 46.53125 36.375 47.5 
Q 32.28125 48.484375 27.875 48.484375 
Q 21.1875 48.484375 17.84375 46.4375 
Q 14.5 44.390625 14.5 40.28125 
Q 14.5 37.15625 16.890625 35.375 
Q 19.28125 33.59375 26.515625 31.984375 
L 29.59375 31.296875 
Q 39.15625 29.25 43.1875 25.515625 
Q 47.21875 21.78125 47.21875 15.09375 
Q 47.21875 7.46875 41.1875 3.015625 
Q 35.15625 -1.421875 24.609375 -1.421875 
Q 20.21875 -1.421875 15.453125 -0.5625 
Q 10.6875 0.296875 5.421875 2 
L 5.421875 11.28125 
Q 10.40625 8.6875 15.234375 7.390625 
Q 20.0625 6.109375 24.8125 6.109375 
Q 31.15625 6.109375 34.5625 8.28125 
Q 37.984375 10.453125 37.984375 14.40625 
Q 37.984375 18.0625 35.515625 20.015625 
Q 33.0625 21.96875 24.703125 23.78125 
L 21.578125 24.515625 
Q 13.234375 26.265625 9.515625 29.90625 
Q 5.8125 33.546875 5.8125 39.890625 
Q 5.8125 47.609375 11.28125 51.796875 
Q 16.75 56 26.8125 56 
Q 31.78125 56 36.171875 55.265625 
Q 40.578125 54.546875 44.28125 53.078125 
z
" id="DejaVuSans-115"/>
     </defs>
     <g transform="translate(193.207422 411.714844)scale(0.15 -0.15)">
      <use xlink:href="#DejaVuSans-71"/>
      <use x="77.490234" xlink:href="#DejaVuSans-108"/>
      <use x="105.273438" xlink:href="#DejaVuSans-111"/>
      <use x="166.455078" xlink:href="#DejaVuSans-98"/>
      <use x="229.931641" xlink:href="#DejaVuSans-97"/>
      <use x="291.210938" xlink:href="#DejaVuSans-108"/>
      <use x="318.994141" xlink:href="#DejaVuSans-32"/>
      <use x="350.78125" xlink:href="#DejaVuSans-67"/>
      <use x="420.605469" xlink:href="#DejaVuSans-111"/>
      <use x="481.787109" xlink:href="#DejaVuSans-109"/>
      <use x="579.199219" xlink:href="#DejaVuSans-109"/>
      <use x="676.611328" xlink:href="#DejaVuSans-117"/>
      <use x="739.990234" xlink:href="#DejaVuSans-110"/>
      <use x="803.369141" xlink:href="#DejaVuSans-105"/>
      <use x="831.152344" xlink:href="#DejaVuSans-99"/>
      <use x="886.132812" xlink:href="#DejaVuSans-97"/>
      <use x="947.412109" xlink:href="#DejaVuSans-116"/>
      <use x="986.621094" xlink:href="#DejaVuSans-105"/>
      <use x="1014.404297" xlink:href="#DejaVuSans-111"/>
      <use x="1075.585938" xlink:href="#DejaVuSans-110"/>
      <use x="1138.964844" xlink:href="#DejaVuSans-32"/>
      <use x="1170.751953" xlink:href="#DejaVuSans-82"/>
      <use x="1235.734375" xlink:href="#DejaVuSans-111"/>
      <use x="1296.916016" xlink:href="#DejaVuSans-117"/>
      <use x="1360.294922" xlink:href="#DejaVuSans-110"/>
      <use x="1423.673828" xlink:href="#DejaVuSans-100"/>
      <use x="1487.150391" xlink:href="#DejaVuSans-115"/>
     </g>
    </g>
   </g>
   <g id="matplotlib.axis_2">
    <g id="ytick_1">
     <g id="line2d_7">
      <defs>
       <path d="M 0 0 
L -3.5 0 
" id="ma4bfecc117" style="stroke:#000000;stroke-width:0.8;"/>
      </defs>
      <g>
       <use style="stroke:#000000;stroke-width:0.8;" x="61.2" xlink:href="#ma4bfecc117" y="360.287111"/>
      </g>
     </g>
     <g id="text_8">
      <!-- 10 -->
      <g transform="translate(35.1125 365.985939)scale(0.15 -0.15)">
       <use xlink:href="#DejaVuSans-49"/>
       <use x="63.623047" xlink:href="#DejaVuSans-48"/>
      </g>
     </g>
    </g>
    <g id="ytick_2">
     <g id="line2d_8">
      <g>
       <use style="stroke:#000000;stroke-width:0.8;" x="61.2" xlink:href="#ma4bfecc117" y="307.34566"/>
      </g>
     </g>
     <g id="text_9">
      <!-- 20 -->
      <g transform="translate(35.1125 313.044488)scale(0.15 -0.15)">
       <use xlink:href="#DejaVuSans-50"/>
       <use x="63.623047" xlink:href="#DejaVuSans-48"/>
      </g>
     </g>
    </g>
    <g id="ytick_3">
     <g id="line2d_9">
      <g>
       <use style="stroke:#000000;stroke-width:0.8;" x="61.2" xlink:href="#ma4bfecc117" y="254.404208"/>
      </g>
     </g>
     <g id="text_10">
      <!-- 30 -->
      <g transform="translate(35.1125 260.103036)scale(0.15 -0.15)">
       <use xlink:href="#DejaVuSans-51"/>
       <use x="63.623047" xlink:href="#DejaVuSans-48"/>
      </g>
     </g>
    </g>
    <g id="ytick_4">
     <g id="line2d_10">
      <g>
       <use style="stroke:#000000;stroke-width:0.8;" x="61.2" xlink:href="#ma4bfecc117" y="201.462757"/>
      </g>
     </g>
     <g id="text_11">
      <!-- 40 -->
      <g transform="translate(35.1125 207.161585)scale(0.15 -0.15)">
       <use xlink:href="#DejaVuSans-52"/>
       <use x="63.623047" xlink:href="#DejaVuSans-48"/>
      </g>
     </g>
    </g>
    <g id="ytick_5">
     <g id="line2d_11">
      <g>
       <use style="stroke:#000000;stroke-width:0.8;" x="61.2" xlink:href="#ma4bfecc117" y="148.521305"/>
      </g>
     </g>
     <g id="text_12">
      <!-- 50 -->
      <g transform="translate(35.1125 154.220133)scale(0.15 -0.15)">
       <use xlink:href="#DejaVuSans-53"/>
       <use x="63.623047" xlink:href="#DejaVuSans-48"/>
      </g>
     </g>
    </g>
    <g id="ytick_6">
     <g id="line2d_12">
      <g>
       <use style="stroke:#000000;stroke-width:0.8;" x="61.2" xlink:href="#ma4bfecc117" y="95.579854"/>
      </g>
     </g>
     <g id="text_13">
      <!-- 60 -->
      <defs>
       <path d="M 33.015625 40.375 
Q 26.375 40.375 22.484375 35.828125 
Q 18.609375 31.296875 18.609375 23.390625 
Q 18.609375 15.53125 22.484375 10.953125 
Q 26.375 6.390625 33.015625 6.390625 
Q 39.65625 6.390625 43.53125 10.953125 
Q 47.40625 15.53125 47.40625 23.390625 
Q 47.40625 31.296875 43.53125 35.828125 
Q 39.65625 40.375 33.015625 40.375 
z
M 52.59375 71.296875 
L 52.59375 62.3125 
Q 48.875 64.0625 45.09375 64.984375 
Q 41.3125 65.921875 37.59375 65.921875 
Q 27.828125 65.921875 22.671875 59.328125 
Q 17.53125 52.734375 16.796875 39.40625 
Q 19.671875 43.65625 24.015625 45.921875 
Q 28.375 48.1875 33.59375 48.1875 
Q 44.578125 48.1875 50.953125 41.515625 
Q 57.328125 34.859375 57.328125 23.390625 
Q 57.328125 12.15625 50.6875 5.359375 
Q 44.046875 -1.421875 33.015625 -1.421875 
Q 20.359375 -1.421875 13.671875 8.265625 
Q 6.984375 17.96875 6.984375 36.375 
Q 6.984375 53.65625 15.1875 63.9375 
Q 23.390625 74.21875 37.203125 74.21875 
Q 40.921875 74.21875 44.703125 73.484375 
Q 48.484375 72.75 52.59375 71.296875 
z
" id="DejaVuSans-54"/>
      </defs>
      <g transform="translate(35.1125 101.278682)scale(0.15 -0.15)">
       <use xlink:href="#DejaVuSans-54"/>
       <use x="63.623047" xlink:href="#DejaVuSans-48"/>
      </g>
     </g>
    </g>
    <g id="text_14">
     <!-- Test Accuracy -->
     <defs>
      <path d="M -0.296875 72.90625 
L 61.375 72.90625 
L 61.375 64.59375 
L 35.5 64.59375 
L 35.5 0 
L 25.59375 0 
L 25.59375 64.59375 
L -0.296875 64.59375 
z
" id="DejaVuSans-84"/>
      <path d="M 56.203125 29.59375 
L 56.203125 25.203125 
L 14.890625 25.203125 
Q 15.484375 15.921875 20.484375 11.0625 
Q 25.484375 6.203125 34.421875 6.203125 
Q 39.59375 6.203125 44.453125 7.46875 
Q 49.3125 8.734375 54.109375 11.28125 
L 54.109375 2.78125 
Q 49.265625 0.734375 44.1875 -0.34375 
Q 39.109375 -1.421875 33.890625 -1.421875 
Q 20.796875 -1.421875 13.15625 6.1875 
Q 5.515625 13.8125 5.515625 26.8125 
Q 5.515625 40.234375 12.765625 48.109375 
Q 20.015625 56 32.328125 56 
Q 43.359375 56 49.78125 48.890625 
Q 56.203125 41.796875 56.203125 29.59375 
z
M 47.21875 32.234375 
Q 47.125 39.59375 43.09375 43.984375 
Q 39.0625 48.390625 32.421875 48.390625 
Q 24.90625 48.390625 20.390625 44.140625 
Q 15.875 39.890625 15.1875 32.171875 
z
" id="DejaVuSans-101"/>
      <path d="M 34.1875 63.1875 
L 20.796875 26.90625 
L 47.609375 26.90625 
z
M 28.609375 72.90625 
L 39.796875 72.90625 
L 67.578125 0 
L 57.328125 0 
L 50.6875 18.703125 
L 17.828125 18.703125 
L 11.1875 0 
L 0.78125 0 
z
" id="DejaVuSans-65"/>
      <path d="M 41.109375 46.296875 
Q 39.59375 47.171875 37.8125 47.578125 
Q 36.03125 48 33.890625 48 
Q 26.265625 48 22.1875 43.046875 
Q 18.109375 38.09375 18.109375 28.8125 
L 18.109375 0 
L 9.078125 0 
L 9.078125 54.6875 
L 18.109375 54.6875 
L 18.109375 46.1875 
Q 20.953125 51.171875 25.484375 53.578125 
Q 30.03125 56 36.53125 56 
Q 37.453125 56 38.578125 55.875 
Q 39.703125 55.765625 41.0625 55.515625 
z
" id="DejaVuSans-114"/>
      <path d="M 32.171875 -5.078125 
Q 28.375 -14.84375 24.75 -17.8125 
Q 21.140625 -20.796875 15.09375 -20.796875 
L 7.90625 -20.796875 
L 7.90625 -13.28125 
L 13.1875 -13.28125 
Q 16.890625 -13.28125 18.9375 -11.515625 
Q 21 -9.765625 23.484375 -3.21875 
L 25.09375 0.875 
L 2.984375 54.6875 
L 12.5 54.6875 
L 29.59375 11.921875 
L 46.6875 54.6875 
L 56.203125 54.6875 
z
" id="DejaVuSans-121"/>
     </defs>
     <g transform="translate(27.992969 267.017859)rotate(-90)scale(0.15 -0.15)">
      <use xlink:href="#DejaVuSans-84"/>
      <use x="44.083984" xlink:href="#DejaVuSans-101"/>
      <use x="105.607422" xlink:href="#DejaVuSans-115"/>
      <use x="157.707031" xlink:href="#DejaVuSans-116"/>
      <use x="196.916016" xlink:href="#DejaVuSans-32"/>
      <use x="228.703125" xlink:href="#DejaVuSans-65"/>
      <use x="295.361328" xlink:href="#DejaVuSans-99"/>
      <use x="350.341797" xlink:href="#DejaVuSans-99"/>
      <use x="405.322266" xlink:href="#DejaVuSans-117"/>
      <use x="468.701172" xlink:href="#DejaVuSans-114"/>
      <use x="509.814453" xlink:href="#DejaVuSans-97"/>
      <use x="571.09375" xlink:href="#DejaVuSans-99"/>
      <use x="626.074219" xlink:href="#DejaVuSans-121"/>
     </g>
    </g>
   </g>
   <g id="line2d_13">
    <path clip-path="url(#p9b6b9a1137)" d="M 83.695455 313.510993 
L 92.877273 298.231688 
L 102.059091 270.353658 
L 111.240909 263.384151 
L 120.422727 258.15702 
L 129.604545 238.052671 
L 138.786364 228.268555 
L 147.968182 224.91783 
L 157.15 215.66983 
L 166.331818 217.01012 
L 175.513636 205.885713 
L 184.695455 201.730815 
L 193.877273 200.256496 
L 203.059091 188.461945 
L 212.240909 188.595974 
L 221.422727 181.894524 
L 230.604545 181.224379 
L 239.786364 172.378466 
L 248.968182 167.82148 
L 258.15 167.285364 
L 267.331818 160.315856 
L 276.513636 156.429016 
L 285.695455 155.624842 
L 294.877273 152.542175 
L 304.059091 151.738001 
L 313.240909 145.840725 
L 322.422727 142.490001 
L 331.604545 141.551798 
L 340.786364 136.726754 
L 349.968182 136.458696 
L 359.15 131.365594 
L 368.331818 131.097536 
L 377.513636 128.01487 
L 386.695455 123.323855 
L 395.877273 122.787739 
L 405.059091 114.209884 
L 414.240909 118.766869 
L 423.422727 115.550173 
L 432.604545 114.343913 
L 441.786364 110.591101 
L 450.968182 104.827854 
L 460.15 106.570231 
L 469.331818 105.632028 
L 478.513636 98.930579 
L 487.695455 97.590289 
L 496.877273 92.0951 
L 506.059091 90.75481 
L 515.240909 88.208259 
L 524.422727 88.07423 
L 533.604545 87.136027 
" style="fill:none;stroke:#1f77b4;stroke-linecap:square;stroke-width:1.5;"/>
   </g>
   <g id="line2d_14">
    <path clip-path="url(#p9b6b9a1137)" d="M 83.695455 331.604907 
L 92.877273 285.766992 
L 102.059091 257.486875 
L 111.240909 258.15702 
L 120.422727 249.445136 
L 129.604545 234.29986 
L 138.786364 239.124903 
L 147.968182 225.051859 
L 157.15 216.742062 
L 166.331818 217.546236 
L 175.513636 210.442699 
L 184.695455 208.164206 
L 193.877273 203.875279 
L 203.059091 198.246061 
L 212.240909 194.627278 
L 221.422727 193.957133 
L 230.604545 186.049423 
L 239.786364 182.296611 
L 248.968182 179.884089 
L 258.15 176.801422 
L 267.331818 168.893712 
L 276.513636 164.068668 
L 285.695455 165.945074 
L 294.877273 162.326291 
L 304.059091 161.12003 
L 313.240909 157.099161 
L 322.422727 152.408146 
L 331.604545 148.789363 
L 340.786364 141.819856 
L 349.968182 146.376841 
L 359.15 140.613595 
L 368.331818 139.809421 
L 377.513636 139.809421 
L 386.695455 134.046174 
L 395.877273 134.314232 
L 405.059091 126.942638 
L 414.240909 128.819044 
L 423.422727 127.076667 
L 432.604545 128.550986 
L 441.786364 121.447449 
L 450.968182 117.962695 
L 460.15 116.622405 
L 469.331818 120.241188 
L 478.513636 113.137652 
L 487.695455 112.869594 
L 496.877273 109.652898 
L 506.059091 105.36397 
L 515.240909 101.611158 
L 524.422727 100.404897 
L 533.604545 97.992376 
" style="fill:none;stroke:#ff7f0e;stroke-linecap:square;stroke-width:1.5;"/>
   </g>
   <g id="line2d_15">
    <path clip-path="url(#p9b6b9a1137)" d="M 83.695455 321.016617 
L 92.877273 283.35447 
L 102.059091 274.642586 
L 111.240909 262.311919 
L 120.422727 245.558295 
L 129.604545 240.331164 
L 138.786364 234.970005 
L 147.968182 224.91783 
L 157.15 220.628903 
L 166.331818 217.144149 
L 175.513636 210.576728 
L 184.695455 208.432264 
L 193.877273 201.328728 
L 203.059091 194.761307 
L 212.240909 192.482814 
L 221.422727 181.894524 
L 230.604545 185.379278 
L 239.786364 180.152147 
L 248.968182 172.780553 
L 258.15 176.131277 
L 267.331818 168.491625 
L 276.513636 169.429828 
L 285.695455 164.738813 
L 294.877273 164.872842 
L 304.059091 162.862407 
L 313.240909 160.315856 
L 322.422727 158.171393 
L 331.604545 154.954697 
L 340.786364 153.882465 
L 349.968182 150.53174 
L 359.15 146.242812 
L 368.331818 145.304609 
L 377.513636 148.789363 
L 386.695455 146.242812 
L 395.877273 140.211508 
L 405.059091 141.149711 
L 414.240909 134.314232 
L 423.422727 136.592725 
L 432.604545 135.788551 
L 441.786364 130.695449 
L 450.968182 127.478754 
L 460.15 124.798174 
L 469.331818 119.97313 
L 478.513636 118.498811 
L 487.695455 120.911333 
L 496.877273 114.880028 
L 506.059091 116.890463 
L 515.240909 113.539739 
L 524.422727 109.116782 
L 533.604545 111.797362 
" style="fill:none;stroke:#2ca02c;stroke-linecap:square;stroke-width:1.5;"/>
   </g>
   <g id="line2d_16">
    <path clip-path="url(#p9b6b9a1137)" d="M 83.695455 360.244758 
L 92.877273 337.861112 
L 102.059091 273.569014 
L 111.240909 255.346566 
L 120.422727 254.70068 
L 129.604545 240.15237 
L 138.786364 230.91938 
L 147.968182 228.007601 
L 157.15 217.98049 
L 166.331818 206.640431 
L 175.513636 208.281616 
L 184.695455 199.355687 
L 193.877273 192.907418 
L 203.059091 189.402694 
L 212.240909 186.353267 
L 221.422727 179.555584 
L 230.604545 178.369696 
L 239.786364 175.193209 
L 248.968182 170.534361 
L 258.15 169.359061 
L 267.331818 164.350799 
L 276.513636 159.628422 
L 285.695455 155.827226 
L 294.877273 153.042505 
L 304.059091 149.273074 
L 313.240909 147.854243 
L 322.422727 143.333043 
L 331.604545 141.533034 
L 340.786364 137.573013 
L 349.968182 133.687111 
L 359.15 134.449467 
L 368.331818 130.944743 
L 377.513636 128.255318 
L 386.695455 123.543528 
L 395.877273 122.548229 
L 405.059091 120.917632 
L 414.240909 117.741145 
L 423.422727 115.019955 
L 432.604545 114.204656 
L 441.786364 108.931688 
L 450.968182 107.788152 
L 460.15 105.321081 
L 469.331818 103.859897 
L 478.513636 99.68811 
L 487.695455 98.957518 
L 496.877273 95.219852 
L 506.059091 95.60103 
L 515.240909 93.92808 
L 524.422727 90.391591 
L 533.604545 88.210404 
" style="fill:none;stroke:#d62728;stroke-linecap:square;stroke-width:1.5;"/>
   </g>
   <g id="patch_3">
    <path d="M 61.2 374.8 
L 61.2 56.448219 
" style="fill:none;stroke:#000000;stroke-linecap:square;stroke-linejoin:miter;stroke-width:0.8;"/>
   </g>
   <g id="patch_4">
    <path d="M 556.1 374.8 
L 556.1 56.448219 
" style="fill:none;stroke:#000000;stroke-linecap:square;stroke-linejoin:miter;stroke-width:0.8;"/>
   </g>
   <g id="patch_5">
    <path d="M 61.2 374.8 
L 556.1 374.8 
" style="fill:none;stroke:#000000;stroke-linecap:square;stroke-linejoin:miter;stroke-width:0.8;"/>
   </g>
   <g id="patch_6">
    <path d="M 61.2 56.448219 
L 556.1 56.448219 
" style="fill:none;stroke:#000000;stroke-linecap:square;stroke-linejoin:miter;stroke-width:0.8;"/>
   </g>
   <g id="legend_1">
    <g id="patch_7">
     <path d="M 59.052344 42.712639 
L 558.247656 42.712639 
Q 561.247656 42.712639 561.247656 39.712639 
L 561.247656 19.195452 
Q 561.247656 16.195452 558.247656 16.195452 
L 59.052344 16.195452 
Q 56.052344 16.195452 56.052344 19.195452 
L 56.052344 39.712639 
Q 56.052344 42.712639 59.052344 42.712639 
z
" style="fill:#ffffff;opacity:0.8;stroke:#cccccc;stroke-linejoin:miter;"/>
    </g>
    <g id="line2d_17">
     <path d="M 62.052344 28.343108 
L 92.052344 28.343108 
" style="fill:none;stroke:#1f77b4;stroke-linecap:square;stroke-width:1.5;"/>
    </g>
    <g id="line2d_18"/>
    <g id="text_15">
     <!-- FedAvg -->
     <defs>
      <path d="M 9.8125 72.90625 
L 51.703125 72.90625 
L 51.703125 64.59375 
L 19.671875 64.59375 
L 19.671875 43.109375 
L 48.578125 43.109375 
L 48.578125 34.8125 
L 19.671875 34.8125 
L 19.671875 0 
L 9.8125 0 
z
" id="DejaVuSans-70"/>
      <path d="M 2.984375 54.6875 
L 12.5 54.6875 
L 29.59375 8.796875 
L 46.6875 54.6875 
L 56.203125 54.6875 
L 35.6875 0 
L 23.484375 0 
z
" id="DejaVuSans-118"/>
      <path d="M 45.40625 27.984375 
Q 45.40625 37.75 41.375 43.109375 
Q 37.359375 48.484375 30.078125 48.484375 
Q 22.859375 48.484375 18.828125 43.109375 
Q 14.796875 37.75 14.796875 27.984375 
Q 14.796875 18.265625 18.828125 12.890625 
Q 22.859375 7.515625 30.078125 7.515625 
Q 37.359375 7.515625 41.375 12.890625 
Q 45.40625 18.265625 45.40625 27.984375 
z
M 54.390625 6.78125 
Q 54.390625 -7.171875 48.1875 -13.984375 
Q 42 -20.796875 29.203125 -20.796875 
Q 24.46875 -20.796875 20.265625 -20.09375 
Q 16.0625 -19.390625 12.109375 -17.921875 
L 12.109375 -9.1875 
Q 16.0625 -11.328125 19.921875 -12.34375 
Q 23.78125 -13.375 27.78125 -13.375 
Q 36.625 -13.375 41.015625 -8.765625 
Q 45.40625 -4.15625 45.40625 5.171875 
L 45.40625 9.625 
Q 42.625 4.78125 38.28125 2.390625 
Q 33.9375 0 27.875 0 
Q 17.828125 0 11.671875 7.65625 
Q 5.515625 15.328125 5.515625 27.984375 
Q 5.515625 40.671875 11.671875 48.328125 
Q 17.828125 56 27.875 56 
Q 33.9375 56 38.28125 53.609375 
Q 42.625 51.21875 45.40625 46.390625 
L 45.40625 54.6875 
L 54.390625 54.6875 
z
" id="DejaVuSans-103"/>
     </defs>
     <g transform="translate(104.052344 33.593108)scale(0.15 -0.15)">
      <use xlink:href="#DejaVuSans-70"/>
      <use x="52.019531" xlink:href="#DejaVuSans-101"/>
      <use x="113.542969" xlink:href="#DejaVuSans-100"/>
      <use x="177.019531" xlink:href="#DejaVuSans-65"/>
      <use x="239.552734" xlink:href="#DejaVuSans-118"/>
      <use x="298.732422" xlink:href="#DejaVuSans-103"/>
     </g>
    </g>
    <g id="line2d_19">
     <path d="M 188.3875 28.343108 
L 218.3875 28.343108 
" style="fill:none;stroke:#ff7f0e;stroke-linecap:square;stroke-width:1.5;"/>
    </g>
    <g id="line2d_20"/>
    <g id="text_16">
     <!-- FedMed -->
     <defs>
      <path d="M 9.8125 72.90625 
L 24.515625 72.90625 
L 43.109375 23.296875 
L 61.8125 72.90625 
L 76.515625 72.90625 
L 76.515625 0 
L 66.890625 0 
L 66.890625 64.015625 
L 48.09375 14.015625 
L 38.1875 14.015625 
L 19.390625 64.015625 
L 19.390625 0 
L 9.8125 0 
z
" id="DejaVuSans-77"/>
     </defs>
     <g transform="translate(230.3875 33.593108)scale(0.15 -0.15)">
      <use xlink:href="#DejaVuSans-70"/>
      <use x="52.019531" xlink:href="#DejaVuSans-101"/>
      <use x="113.542969" xlink:href="#DejaVuSans-100"/>
      <use x="177.019531" xlink:href="#DejaVuSans-77"/>
      <use x="263.298828" xlink:href="#DejaVuSans-101"/>
      <use x="324.822266" xlink:href="#DejaVuSans-100"/>
     </g>
    </g>
    <g id="line2d_21">
     <path d="M 318.636719 28.343108 
L 348.636719 28.343108 
" style="fill:none;stroke:#2ca02c;stroke-linecap:square;stroke-width:1.5;"/>
    </g>
    <g id="line2d_22"/>
    <g id="text_17">
     <!-- FedProx -->
     <defs>
      <path d="M 19.671875 64.796875 
L 19.671875 37.40625 
L 32.078125 37.40625 
Q 38.96875 37.40625 42.71875 40.96875 
Q 46.484375 44.53125 46.484375 51.125 
Q 46.484375 57.671875 42.71875 61.234375 
Q 38.96875 64.796875 32.078125 64.796875 
z
M 9.8125 72.90625 
L 32.078125 72.90625 
Q 44.34375 72.90625 50.609375 67.359375 
Q 56.890625 61.8125 56.890625 51.125 
Q 56.890625 40.328125 50.609375 34.8125 
Q 44.34375 29.296875 32.078125 29.296875 
L 19.671875 29.296875 
L 19.671875 0 
L 9.8125 0 
z
" id="DejaVuSans-80"/>
      <path d="M 54.890625 54.6875 
L 35.109375 28.078125 
L 55.90625 0 
L 45.3125 0 
L 29.390625 21.484375 
L 13.484375 0 
L 2.875 0 
L 24.125 28.609375 
L 4.6875 54.6875 
L 15.28125 54.6875 
L 29.78125 35.203125 
L 44.28125 54.6875 
z
" id="DejaVuSans-120"/>
     </defs>
     <g transform="translate(360.636719 33.593108)scale(0.15 -0.15)">
      <use xlink:href="#DejaVuSans-70"/>
      <use x="52.019531" xlink:href="#DejaVuSans-101"/>
      <use x="113.542969" xlink:href="#DejaVuSans-100"/>
      <use x="177.019531" xlink:href="#DejaVuSans-80"/>
      <use x="235.572266" xlink:href="#DejaVuSans-114"/>
      <use x="274.435547" xlink:href="#DejaVuSans-111"/>
      <use x="332.492188" xlink:href="#DejaVuSans-120"/>
     </g>
    </g>
    <g id="line2d_23">
     <path d="M 449.389844 28.343108 
L 479.389844 28.343108 
" style="fill:none;stroke:#d62728;stroke-linecap:square;stroke-width:1.5;"/>
    </g>
    <g id="line2d_24"/>
    <g id="text_18">
     <!-- qFedAvg -->
     <defs>
      <path d="M 14.796875 27.296875 
Q 14.796875 17.390625 18.875 11.75 
Q 22.953125 6.109375 30.078125 6.109375 
Q 37.203125 6.109375 41.296875 11.75 
Q 45.40625 17.390625 45.40625 27.296875 
Q 45.40625 37.203125 41.296875 42.84375 
Q 37.203125 48.484375 30.078125 48.484375 
Q 22.953125 48.484375 18.875 42.84375 
Q 14.796875 37.203125 14.796875 27.296875 
z
M 45.40625 8.203125 
Q 42.578125 3.328125 38.25 0.953125 
Q 33.9375 -1.421875 27.875 -1.421875 
Q 17.96875 -1.421875 11.734375 6.484375 
Q 5.515625 14.40625 5.515625 27.296875 
Q 5.515625 40.1875 11.734375 48.09375 
Q 17.96875 56 27.875 56 
Q 33.9375 56 38.25 53.625 
Q 42.578125 51.265625 45.40625 46.390625 
L 45.40625 54.6875 
L 54.390625 54.6875 
L 54.390625 -20.796875 
L 45.40625 -20.796875 
z
" id="DejaVuSans-113"/>
     </defs>
     <g transform="translate(491.389844 33.593108)scale(0.15 -0.15)">
      <use xlink:href="#DejaVuSans-113"/>
      <use x="63.476562" xlink:href="#DejaVuSans-70"/>
      <use x="115.496094" xlink:href="#DejaVuSans-101"/>
      <use x="177.019531" xlink:href="#DejaVuSans-100"/>
      <use x="240.496094" xlink:href="#DejaVuSans-65"/>
      <use x="303.029297" xlink:href="#DejaVuSans-118"/>
      <use x="362.208984" xlink:href="#DejaVuSans-103"/>
     </g>
    </g>
   </g>
  </g>
 </g>
 <defs>
  <clipPath id="p9b6b9a1137">
   <rect height="318.351781" width="494.9" x="61.2" y="56.448219"/>
  </clipPath>
 </defs>
</svg>
