<?xml version="1.0" encoding="utf-8" standalone="no"?>
<!DOCTYPE svg PUBLIC "-//W3C//DTD SVG 1.1//EN"
  "http://www.w3.org/Graphics/SVG/1.1/DTD/svg11.dtd">
<svg height="345.6pt" version="1.1" viewBox="0 0 460.8 345.6" width="460.8pt" xmlns="http://www.w3.org/2000/svg" xmlns:xlink="http://www.w3.org/1999/xlink">
 <metadata>
  <rdf:RDF xmlns:cc="http://creativecommons.org/ns#" xmlns:dc="http://purl.org/dc/elements/1.1/" xmlns:rdf="http://www.w3.org/1999/02/22-rdf-syntax-ns#">
   <cc:Work>
    <dc:type rdf:resource="http://purl.org/dc/dcmitype/StillImage"/>
    <dc:date>2021-05-07T11:38:08.799360</dc:date>
    <dc:format>image/svg+xml</dc:format>
    <dc:creator>
     <cc:Agent>
      <dc:title>Matplotlib v3.4.1, https://matplotlib.org/</dc:title>
     </cc:Agent>
    </dc:creator>
   </cc:Work>
  </rdf:RDF>
 </metadata>
 <defs>
  <style type="text/css">*{stroke-linecap:butt;stroke-linejoin:round;}</style>
 </defs>
 <g id="figure_1">
  <g id="patch_1">
   <path d="M 0 345.6 
L 460.8 345.6 
L 460.8 0 
L 0 0 
z
" style="fill:#ffffff;"/>
  </g>
  <g id="axes_1">
   <g id="patch_2">
    <path d="M 44.57 303.64 
L 450 303.64 
L 450 48.38 
L 44.57 48.38 
z
" style="fill:#ffffff;"/>
   </g>
   <g id="PolyCollection_1">
    <path clip-path="url(#p49817c17a6)" d="M 62.998636 284.613118 
L 62.998636 287.330976 
L 70.520529 287.288421 
L 78.042421 277.437826 
L 85.564314 251.609496 
L 93.086206 263.178372 
L 100.608098 254.569379 
L 108.129991 252.186238 
L 115.651883 242.351156 
L 123.173776 227.271455 
L 130.695668 225.703079 
L 138.21756 200.741024 
L 145.739453 221.580018 
L 153.261345 202.081402 
L 160.783237 198.5144 
L 168.30513 189.667159 
L 175.827022 186.687793 
L 183.348915 205.976329 
L 190.870807 170.366949 
L 198.392699 178.890709 
L 205.914592 170.498513 
L 213.436484 184.91011 
L 220.958377 167.105949 
L 228.480269 158.495124 
L 236.002161 163.952455 
L 243.524054 139.177711 
L 251.045946 160.955773 
L 258.567839 151.43073 
L 266.089731 163.455759 
L 273.611623 139.129308 
L 281.133516 145.883392 
L 288.655408 131.67271 
L 296.177301 133.434607 
L 303.699193 132.620854 
L 311.221085 115.136244 
L 318.742978 113.191951 
L 326.26487 114.314924 
L 333.786763 140.236663 
L 341.308655 119.70955 
L 348.830547 126.50658 
L 356.35244 103.033961 
L 363.874332 118.835345 
L 371.396224 119.204424 
L 378.918117 111.295889 
L 386.440009 111.921554 
L 393.961902 103.61542 
L 401.483794 85.504596 
L 409.005686 108.551974 
L 416.527579 107.690602 
L 424.049471 95.919116 
L 431.571364 100.578327 
L 431.571364 79.011619 
L 431.571364 79.011619 
L 424.049471 70.79535 
L 416.527579 89.124647 
L 409.005686 72.777902 
L 401.483794 59.982727 
L 393.961902 81.542301 
L 386.440009 97.769175 
L 378.918117 93.523037 
L 371.396224 93.0962 
L 363.874332 90.333406 
L 356.35244 83.515703 
L 348.830547 84.92408 
L 341.308655 80.06358 
L 333.786763 100.250822 
L 326.26487 93.461883 
L 318.742978 92.322947 
L 311.221085 99.252296 
L 303.699193 86.11751 
L 296.177301 96.091321 
L 288.655408 97.33124 
L 281.133516 119.137102 
L 273.611623 123.629278 
L 266.089731 122.095906 
L 258.567839 101.584249 
L 251.045946 115.374264 
L 243.524054 112.097339 
L 236.002161 103.329948 
L 228.480269 123.576681 
L 220.958377 124.709463 
L 213.436484 132.134282 
L 205.914592 140.978104 
L 198.392699 142.155522 
L 190.870807 146.329457 
L 183.348915 143.430756 
L 175.827022 148.625861 
L 168.30513 155.390102 
L 160.783237 152.284628 
L 153.261345 166.638902 
L 145.739453 181.242908 
L 138.21756 188.858437 
L 130.695668 192.083243 
L 123.173776 202.520382 
L 115.651883 200.142168 
L 108.129991 221.62582 
L 100.608098 229.856251 
L 93.086206 237.77659 
L 85.564314 237.339951 
L 78.042421 255.35785 
L 70.520529 280.653834 
L 62.998636 284.613118 
z
" style="fill:#1f77b4;fill-opacity:0.5;"/>
   </g>
   <g id="PolyCollection_2">
    <path clip-path="url(#p49817c17a6)" d="M 62.998636 285.450068 
L 62.998636 287.88597 
L 70.520529 287.782932 
L 78.042421 291.905076 
L 85.564314 282.388158 
L 93.086206 282.365596 
L 100.608098 275.48806 
L 108.129991 276.107828 
L 115.651883 274.087678 
L 123.173776 270.478965 
L 130.695668 286.194318 
L 138.21756 257.887078 
L 145.739453 281.638572 
L 153.261345 273.690416 
L 160.783237 278.466965 
L 168.30513 273.169557 
L 175.827022 278.046763 
L 183.348915 266.679213 
L 190.870807 287.476442 
L 198.392699 277.4086 
L 205.914592 282.002616 
L 213.436484 279.572342 
L 220.958377 278.500351 
L 228.480269 255.474839 
L 236.002161 280.191258 
L 243.524054 248.433529 
L 251.045946 269.899362 
L 258.567839 235.95761 
L 266.089731 277.581466 
L 273.611623 273.248799 
L 281.133516 241.820134 
L 288.655408 261.531086 
L 296.177301 260.543266 
L 303.699193 252.903065 
L 311.221085 257.1445 
L 318.742978 223.586623 
L 326.26487 239.026394 
L 333.786763 264.501905 
L 341.308655 220.724244 
L 348.830547 225.863986 
L 356.35244 223.321052 
L 363.874332 233.059798 
L 371.396224 241.915671 
L 378.918117 255.8744 
L 386.440009 259.848733 
L 393.961902 255.438666 
L 401.483794 209.551158 
L 409.005686 209.390371 
L 416.527579 215.517108 
L 424.049471 240.657719 
L 431.571364 213.09238 
L 431.571364 197.212244 
L 431.571364 197.212244 
L 424.049471 181.304435 
L 416.527579 184.521931 
L 409.005686 191.692626 
L 401.483794 182.484204 
L 393.961902 188.794588 
L 386.440009 198.999931 
L 378.918117 183.487051 
L 371.396224 188.572138 
L 363.874332 183.682567 
L 356.35244 176.89198 
L 348.830547 196.794139 
L 341.308655 203.499818 
L 333.786763 200.958491 
L 326.26487 200.50905 
L 318.742978 210.903025 
L 311.221085 198.224304 
L 303.699193 219.169064 
L 296.177301 211.006884 
L 288.655408 207.583163 
L 281.133516 214.940613 
L 273.611623 234.317896 
L 266.089731 218.501693 
L 258.567839 196.9661 
L 251.045946 219.224078 
L 243.524054 219.984747 
L 236.002161 202.842429 
L 228.480269 233.648601 
L 220.958377 243.681753 
L 213.436484 223.818522 
L 205.914592 224.520121 
L 198.392699 251.211244 
L 190.870807 248.799093 
L 183.348915 224.706136 
L 175.827022 247.267215 
L 168.30513 232.657208 
L 160.783237 231.883617 
L 153.261345 241.183984 
L 145.739453 238.107631 
L 138.21756 245.677779 
L 130.695668 242.251533 
L 123.173776 240.04561 
L 115.651883 251.2263 
L 108.129991 250.250108 
L 100.608098 256.785637 
L 93.086206 251.822023 
L 85.564314 258.411194 
L 78.042421 266.467566 
L 70.520529 271.285682 
L 62.998636 285.450068 
z
" style="fill:#ff7f0e;fill-opacity:0.5;"/>
   </g>
   <g id="PolyCollection_3">
    <path clip-path="url(#p49817c17a6)" d="M 62.998636 281.891281 
L 62.998636 286.572953 
L 70.520529 285.127925 
L 78.042421 278.730022 
L 85.564314 267.639758 
L 93.086206 260.802497 
L 100.608098 257.133232 
L 108.129991 250.160524 
L 115.651883 251.324355 
L 123.173776 232.331041 
L 130.695668 220.732053 
L 138.21756 219.388902 
L 145.739453 209.571946 
L 153.261345 210.854968 
L 160.783237 226.19887 
L 168.30513 214.27399 
L 175.827022 215.142958 
L 183.348915 204.217994 
L 190.870807 205.751591 
L 198.392699 197.451408 
L 205.914592 170.120447 
L 213.436484 169.435726 
L 220.958377 172.114371 
L 228.480269 159.785206 
L 236.002161 152.239591 
L 243.524054 166.38808 
L 251.045946 158.634853 
L 258.567839 161.564248 
L 266.089731 161.962568 
L 273.611623 158.305506 
L 281.133516 140.635281 
L 288.655408 151.601327 
L 296.177301 154.984162 
L 303.699193 158.189192 
L 311.221085 149.789123 
L 318.742978 136.039524 
L 326.26487 154.418279 
L 333.786763 137.532358 
L 341.308655 132.28622 
L 348.830547 126.34167 
L 356.35244 130.477401 
L 363.874332 123.204588 
L 371.396224 149.306655 
L 378.918117 124.371499 
L 386.440009 123.360805 
L 393.961902 132.58511 
L 401.483794 119.760566 
L 409.005686 143.210815 
L 416.527579 122.68675 
L 424.049471 123.69676 
L 431.571364 114.030742 
L 431.571364 87.134332 
L 431.571364 87.134332 
L 424.049471 98.347471 
L 416.527579 96.051614 
L 409.005686 84.749177 
L 401.483794 100.021756 
L 393.961902 96.418839 
L 386.440009 106.513109 
L 378.918117 87.581139 
L 371.396224 98.314542 
L 363.874332 107.887276 
L 356.35244 94.002731 
L 348.830547 103.184258 
L 341.308655 111.159146 
L 333.786763 117.74453 
L 326.26487 110.776208 
L 318.742978 105.665912 
L 311.221085 98.876032 
L 303.699193 116.748902 
L 296.177301 107.426437 
L 288.655408 118.638957 
L 281.133516 120.557367 
L 273.611623 122.896334 
L 266.089731 128.4609 
L 258.567839 121.377522 
L 251.045946 143.272151 
L 243.524054 139.172776 
L 236.002161 140.619778 
L 228.480269 141.599819 
L 220.958377 142.146134 
L 213.436484 135.603152 
L 205.914592 153.709672 
L 198.392699 169.876953 
L 190.870807 175.322215 
L 183.348915 175.115882 
L 175.827022 178.806327 
L 168.30513 168.713738 
L 160.783237 163.052605 
L 153.261345 190.576015 
L 145.739453 203.864552 
L 138.21756 205.183146 
L 130.695668 200.186143 
L 123.173776 214.338115 
L 115.651883 228.403464 
L 108.129991 226.957401 
L 100.608098 231.642222 
L 93.086206 231.452817 
L 85.564314 230.357323 
L 78.042421 253.543675 
L 70.520529 282.466345 
L 62.998636 281.891281 
z
" style="fill:#2ca02c;fill-opacity:0.5;"/>
   </g>
   <g id="PolyCollection_4">
    <path clip-path="url(#p49817c17a6)" d="M 62.998636 284.754096 
L 62.998636 284.754096 
L 70.520529 284.877805 
L 78.042421 292.037273 
L 85.564314 277.581295 
L 93.086206 261.534238 
L 100.608098 253.815827 
L 108.129991 251.31655 
L 115.651883 245.68204 
L 123.173776 241.043931 
L 130.695668 240.114182 
L 138.21756 239.255155 
L 145.739453 238.50017 
L 153.261345 238.866417 
L 160.783237 238.480777 
L 168.30513 237.578819 
L 175.827022 236.986993 
L 183.348915 235.079512 
L 190.870807 235.866702 
L 198.392699 233.361455 
L 205.914592 232.574503 
L 213.436484 231.918941 
L 220.958377 230.271823 
L 228.480269 230.462164 
L 236.002161 230.761456 
L 243.524054 231.577017 
L 251.045946 231.657063 
L 258.567839 231.376615 
L 266.089731 232.161074 
L 273.611623 228.304293 
L 281.133516 231.263629 
L 288.655408 232.454239 
L 296.177301 235.515946 
L 303.699193 233.80082 
L 311.221085 232.650608 
L 318.742978 229.821423 
L 326.26487 232.854374 
L 333.786763 232.377767 
L 341.308655 232.065788 
L 348.830547 230.336662 
L 356.35244 229.386302 
L 363.874332 228.764805 
L 371.396224 227.441252 
L 378.918117 226.740853 
L 386.440009 227.546125 
L 393.961902 226.826498 
L 401.483794 225.655258 
L 409.005686 227.007769 
L 416.527579 226.465191 
L 424.049471 225.955258 
L 431.571364 225.530694 
L 431.571364 181.162706 
L 431.571364 181.162706 
L 424.049471 181.177996 
L 416.527579 181.382827 
L 409.005686 181.582503 
L 401.483794 182.082796 
L 393.961902 185.96988 
L 386.440009 182.033818 
L 378.918117 184.131163 
L 371.396224 183.183345 
L 363.874332 186.753171 
L 356.35244 184.358512 
L 348.830547 188.026621 
L 341.308655 188.60673 
L 333.786763 184.679699 
L 326.26487 189.165197 
L 318.742978 187.469716 
L 311.221085 189.149036 
L 303.699193 193.070894 
L 296.177301 190.750968 
L 288.655408 195.297182 
L 281.133516 193.752449 
L 273.611623 201.4952 
L 266.089731 195.590348 
L 258.567839 199.866149 
L 251.045946 199.943084 
L 243.524054 201.218983 
L 236.002161 199.230473 
L 228.480269 203.70838 
L 220.958377 204.462284 
L 213.436484 210.746288 
L 205.914592 203.767822 
L 198.392699 211.929154 
L 190.870807 205.932564 
L 183.348915 212.121714 
L 175.827022 212.207322 
L 168.30513 217.30611 
L 160.783237 214.864663 
L 153.261345 218.698875 
L 145.739453 219.807376 
L 138.21756 222.406279 
L 130.695668 224.062668 
L 123.173776 225.895753 
L 115.651883 228.652693 
L 108.129991 231.292942 
L 100.608098 232.230025 
L 93.086206 237.50106 
L 85.564314 245.742204 
L 78.042421 258.021116 
L 70.520529 284.71286 
L 62.998636 284.754096 
z
" style="fill:#d62728;fill-opacity:0.5;"/>
   </g>
   <g id="matplotlib.axis_1">
    <g id="xtick_1">
     <g id="line2d_1">
      <defs>
       <path d="M 0 0 
L 0 3.5 
" id="m26a0157a2c" style="stroke:#000000;stroke-width:0.8;"/>
      </defs>
      <g>
       <use style="stroke:#000000;stroke-width:0.8;" x="62.998636" xlink:href="#m26a0157a2c" y="303.64"/>
      </g>
     </g>
     <g id="text_1">
      <!-- 0 -->
      <g transform="translate(59.817386 318.238437)scale(0.1 -0.1)">
       <defs>
        <path d="M 2034 4250 
Q 1547 4250 1301 3770 
Q 1056 3291 1056 2328 
Q 1056 1369 1301 889 
Q 1547 409 2034 409 
Q 2525 409 2770 889 
Q 3016 1369 3016 2328 
Q 3016 3291 2770 3770 
Q 2525 4250 2034 4250 
z
M 2034 4750 
Q 2819 4750 3233 4129 
Q 3647 3509 3647 2328 
Q 3647 1150 3233 529 
Q 2819 -91 2034 -91 
Q 1250 -91 836 529 
Q 422 1150 422 2328 
Q 422 3509 836 4129 
Q 1250 4750 2034 4750 
z
" id="DejaVuSans-30" transform="scale(0.015625)"/>
       </defs>
       <use xlink:href="#DejaVuSans-30"/>
      </g>
     </g>
    </g>
    <g id="xtick_2">
     <g id="line2d_2">
      <g>
       <use style="stroke:#000000;stroke-width:0.8;" x="138.21756" xlink:href="#m26a0157a2c" y="303.64"/>
      </g>
     </g>
     <g id="text_2">
      <!-- 10 -->
      <g transform="translate(131.85506 318.238437)scale(0.1 -0.1)">
       <defs>
        <path d="M 794 531 
L 1825 531 
L 1825 4091 
L 703 3866 
L 703 4441 
L 1819 4666 
L 2450 4666 
L 2450 531 
L 3481 531 
L 3481 0 
L 794 0 
L 794 531 
z
" id="DejaVuSans-31" transform="scale(0.015625)"/>
       </defs>
       <use xlink:href="#DejaVuSans-31"/>
       <use x="63.623047" xlink:href="#DejaVuSans-30"/>
      </g>
     </g>
    </g>
    <g id="xtick_3">
     <g id="line2d_3">
      <g>
       <use style="stroke:#000000;stroke-width:0.8;" x="213.436484" xlink:href="#m26a0157a2c" y="303.64"/>
      </g>
     </g>
     <g id="text_3">
      <!-- 20 -->
      <g transform="translate(207.073984 318.238437)scale(0.1 -0.1)">
       <defs>
        <path d="M 1228 531 
L 3431 531 
L 3431 0 
L 469 0 
L 469 531 
Q 828 903 1448 1529 
Q 2069 2156 2228 2338 
Q 2531 2678 2651 2914 
Q 2772 3150 2772 3378 
Q 2772 3750 2511 3984 
Q 2250 4219 1831 4219 
Q 1534 4219 1204 4116 
Q 875 4013 500 3803 
L 500 4441 
Q 881 4594 1212 4672 
Q 1544 4750 1819 4750 
Q 2544 4750 2975 4387 
Q 3406 4025 3406 3419 
Q 3406 3131 3298 2873 
Q 3191 2616 2906 2266 
Q 2828 2175 2409 1742 
Q 1991 1309 1228 531 
z
" id="DejaVuSans-32" transform="scale(0.015625)"/>
       </defs>
       <use xlink:href="#DejaVuSans-32"/>
       <use x="63.623047" xlink:href="#DejaVuSans-30"/>
      </g>
     </g>
    </g>
    <g id="xtick_4">
     <g id="line2d_4">
      <g>
       <use style="stroke:#000000;stroke-width:0.8;" x="288.655408" xlink:href="#m26a0157a2c" y="303.64"/>
      </g>
     </g>
     <g id="text_4">
      <!-- 30 -->
      <g transform="translate(282.292908 318.238437)scale(0.1 -0.1)">
       <defs>
        <path d="M 2597 2516 
Q 3050 2419 3304 2112 
Q 3559 1806 3559 1356 
Q 3559 666 3084 287 
Q 2609 -91 1734 -91 
Q 1441 -91 1130 -33 
Q 819 25 488 141 
L 488 750 
Q 750 597 1062 519 
Q 1375 441 1716 441 
Q 2309 441 2620 675 
Q 2931 909 2931 1356 
Q 2931 1769 2642 2001 
Q 2353 2234 1838 2234 
L 1294 2234 
L 1294 2753 
L 1863 2753 
Q 2328 2753 2575 2939 
Q 2822 3125 2822 3475 
Q 2822 3834 2567 4026 
Q 2313 4219 1838 4219 
Q 1578 4219 1281 4162 
Q 984 4106 628 3988 
L 628 4550 
Q 988 4650 1302 4700 
Q 1616 4750 1894 4750 
Q 2613 4750 3031 4423 
Q 3450 4097 3450 3541 
Q 3450 3153 3228 2886 
Q 3006 2619 2597 2516 
z
" id="DejaVuSans-33" transform="scale(0.015625)"/>
       </defs>
       <use xlink:href="#DejaVuSans-33"/>
       <use x="63.623047" xlink:href="#DejaVuSans-30"/>
      </g>
     </g>
    </g>
    <g id="xtick_5">
     <g id="line2d_5">
      <g>
       <use style="stroke:#000000;stroke-width:0.8;" x="363.874332" xlink:href="#m26a0157a2c" y="303.64"/>
      </g>
     </g>
     <g id="text_5">
      <!-- 40 -->
      <g transform="translate(357.511832 318.238437)scale(0.1 -0.1)">
       <defs>
        <path d="M 2419 4116 
L 825 1625 
L 2419 1625 
L 2419 4116 
z
M 2253 4666 
L 3047 4666 
L 3047 1625 
L 3713 1625 
L 3713 1100 
L 3047 1100 
L 3047 0 
L 2419 0 
L 2419 1100 
L 313 1100 
L 313 1709 
L 2253 4666 
z
" id="DejaVuSans-34" transform="scale(0.015625)"/>
       </defs>
       <use xlink:href="#DejaVuSans-34"/>
       <use x="63.623047" xlink:href="#DejaVuSans-30"/>
      </g>
     </g>
    </g>
    <g id="xtick_6">
     <g id="line2d_6">
      <g>
       <use style="stroke:#000000;stroke-width:0.8;" x="439.093256" xlink:href="#m26a0157a2c" y="303.64"/>
      </g>
     </g>
     <g id="text_6">
      <!-- 50 -->
      <g transform="translate(432.730756 318.238437)scale(0.1 -0.1)">
       <defs>
        <path d="M 691 4666 
L 3169 4666 
L 3169 4134 
L 1269 4134 
L 1269 2991 
Q 1406 3038 1543 3061 
Q 1681 3084 1819 3084 
Q 2600 3084 3056 2656 
Q 3513 2228 3513 1497 
Q 3513 744 3044 326 
Q 2575 -91 1722 -91 
Q 1428 -91 1123 -41 
Q 819 9 494 109 
L 494 744 
Q 775 591 1075 516 
Q 1375 441 1709 441 
Q 2250 441 2565 725 
Q 2881 1009 2881 1497 
Q 2881 1984 2565 2268 
Q 2250 2553 1709 2553 
Q 1456 2553 1204 2497 
Q 953 2441 691 2322 
L 691 4666 
z
" id="DejaVuSans-35" transform="scale(0.015625)"/>
       </defs>
       <use xlink:href="#DejaVuSans-35"/>
       <use x="63.623047" xlink:href="#DejaVuSans-30"/>
      </g>
     </g>
    </g>
    <g id="text_7">
     <!-- Global Communication Rounds -->
     <g transform="translate(170.323281 331.916562)scale(0.1 -0.1)">
      <defs>
       <path d="M 3809 666 
L 3809 1919 
L 2778 1919 
L 2778 2438 
L 4434 2438 
L 4434 434 
Q 4069 175 3628 42 
Q 3188 -91 2688 -91 
Q 1594 -91 976 548 
Q 359 1188 359 2328 
Q 359 3472 976 4111 
Q 1594 4750 2688 4750 
Q 3144 4750 3555 4637 
Q 3966 4525 4313 4306 
L 4313 3634 
Q 3963 3931 3569 4081 
Q 3175 4231 2741 4231 
Q 1884 4231 1454 3753 
Q 1025 3275 1025 2328 
Q 1025 1384 1454 906 
Q 1884 428 2741 428 
Q 3075 428 3337 486 
Q 3600 544 3809 666 
z
" id="DejaVuSans-47" transform="scale(0.015625)"/>
       <path d="M 603 4863 
L 1178 4863 
L 1178 0 
L 603 0 
L 603 4863 
z
" id="DejaVuSans-6c" transform="scale(0.015625)"/>
       <path d="M 1959 3097 
Q 1497 3097 1228 2736 
Q 959 2375 959 1747 
Q 959 1119 1226 758 
Q 1494 397 1959 397 
Q 2419 397 2687 759 
Q 2956 1122 2956 1747 
Q 2956 2369 2687 2733 
Q 2419 3097 1959 3097 
z
M 1959 3584 
Q 2709 3584 3137 3096 
Q 3566 2609 3566 1747 
Q 3566 888 3137 398 
Q 2709 -91 1959 -91 
Q 1206 -91 779 398 
Q 353 888 353 1747 
Q 353 2609 779 3096 
Q 1206 3584 1959 3584 
z
" id="DejaVuSans-6f" transform="scale(0.015625)"/>
       <path d="M 3116 1747 
Q 3116 2381 2855 2742 
Q 2594 3103 2138 3103 
Q 1681 3103 1420 2742 
Q 1159 2381 1159 1747 
Q 1159 1113 1420 752 
Q 1681 391 2138 391 
Q 2594 391 2855 752 
Q 3116 1113 3116 1747 
z
M 1159 2969 
Q 1341 3281 1617 3432 
Q 1894 3584 2278 3584 
Q 2916 3584 3314 3078 
Q 3713 2572 3713 1747 
Q 3713 922 3314 415 
Q 2916 -91 2278 -91 
Q 1894 -91 1617 61 
Q 1341 213 1159 525 
L 1159 0 
L 581 0 
L 581 4863 
L 1159 4863 
L 1159 2969 
z
" id="DejaVuSans-62" transform="scale(0.015625)"/>
       <path d="M 2194 1759 
Q 1497 1759 1228 1600 
Q 959 1441 959 1056 
Q 959 750 1161 570 
Q 1363 391 1709 391 
Q 2188 391 2477 730 
Q 2766 1069 2766 1631 
L 2766 1759 
L 2194 1759 
z
M 3341 1997 
L 3341 0 
L 2766 0 
L 2766 531 
Q 2569 213 2275 61 
Q 1981 -91 1556 -91 
Q 1019 -91 701 211 
Q 384 513 384 1019 
Q 384 1609 779 1909 
Q 1175 2209 1959 2209 
L 2766 2209 
L 2766 2266 
Q 2766 2663 2505 2880 
Q 2244 3097 1772 3097 
Q 1472 3097 1187 3025 
Q 903 2953 641 2809 
L 641 3341 
Q 956 3463 1253 3523 
Q 1550 3584 1831 3584 
Q 2591 3584 2966 3190 
Q 3341 2797 3341 1997 
z
" id="DejaVuSans-61" transform="scale(0.015625)"/>
       <path id="DejaVuSans-20" transform="scale(0.015625)"/>
       <path d="M 4122 4306 
L 4122 3641 
Q 3803 3938 3442 4084 
Q 3081 4231 2675 4231 
Q 1875 4231 1450 3742 
Q 1025 3253 1025 2328 
Q 1025 1406 1450 917 
Q 1875 428 2675 428 
Q 3081 428 3442 575 
Q 3803 722 4122 1019 
L 4122 359 
Q 3791 134 3420 21 
Q 3050 -91 2638 -91 
Q 1578 -91 968 557 
Q 359 1206 359 2328 
Q 359 3453 968 4101 
Q 1578 4750 2638 4750 
Q 3056 4750 3426 4639 
Q 3797 4528 4122 4306 
z
" id="DejaVuSans-43" transform="scale(0.015625)"/>
       <path d="M 3328 2828 
Q 3544 3216 3844 3400 
Q 4144 3584 4550 3584 
Q 5097 3584 5394 3201 
Q 5691 2819 5691 2113 
L 5691 0 
L 5113 0 
L 5113 2094 
Q 5113 2597 4934 2840 
Q 4756 3084 4391 3084 
Q 3944 3084 3684 2787 
Q 3425 2491 3425 1978 
L 3425 0 
L 2847 0 
L 2847 2094 
Q 2847 2600 2669 2842 
Q 2491 3084 2119 3084 
Q 1678 3084 1418 2786 
Q 1159 2488 1159 1978 
L 1159 0 
L 581 0 
L 581 3500 
L 1159 3500 
L 1159 2956 
Q 1356 3278 1631 3431 
Q 1906 3584 2284 3584 
Q 2666 3584 2933 3390 
Q 3200 3197 3328 2828 
z
" id="DejaVuSans-6d" transform="scale(0.015625)"/>
       <path d="M 544 1381 
L 544 3500 
L 1119 3500 
L 1119 1403 
Q 1119 906 1312 657 
Q 1506 409 1894 409 
Q 2359 409 2629 706 
Q 2900 1003 2900 1516 
L 2900 3500 
L 3475 3500 
L 3475 0 
L 2900 0 
L 2900 538 
Q 2691 219 2414 64 
Q 2138 -91 1772 -91 
Q 1169 -91 856 284 
Q 544 659 544 1381 
z
M 1991 3584 
L 1991 3584 
z
" id="DejaVuSans-75" transform="scale(0.015625)"/>
       <path d="M 3513 2113 
L 3513 0 
L 2938 0 
L 2938 2094 
Q 2938 2591 2744 2837 
Q 2550 3084 2163 3084 
Q 1697 3084 1428 2787 
Q 1159 2491 1159 1978 
L 1159 0 
L 581 0 
L 581 3500 
L 1159 3500 
L 1159 2956 
Q 1366 3272 1645 3428 
Q 1925 3584 2291 3584 
Q 2894 3584 3203 3211 
Q 3513 2838 3513 2113 
z
" id="DejaVuSans-6e" transform="scale(0.015625)"/>
       <path d="M 603 3500 
L 1178 3500 
L 1178 0 
L 603 0 
L 603 3500 
z
M 603 4863 
L 1178 4863 
L 1178 4134 
L 603 4134 
L 603 4863 
z
" id="DejaVuSans-69" transform="scale(0.015625)"/>
       <path d="M 3122 3366 
L 3122 2828 
Q 2878 2963 2633 3030 
Q 2388 3097 2138 3097 
Q 1578 3097 1268 2742 
Q 959 2388 959 1747 
Q 959 1106 1268 751 
Q 1578 397 2138 397 
Q 2388 397 2633 464 
Q 2878 531 3122 666 
L 3122 134 
Q 2881 22 2623 -34 
Q 2366 -91 2075 -91 
Q 1284 -91 818 406 
Q 353 903 353 1747 
Q 353 2603 823 3093 
Q 1294 3584 2113 3584 
Q 2378 3584 2631 3529 
Q 2884 3475 3122 3366 
z
" id="DejaVuSans-63" transform="scale(0.015625)"/>
       <path d="M 1172 4494 
L 1172 3500 
L 2356 3500 
L 2356 3053 
L 1172 3053 
L 1172 1153 
Q 1172 725 1289 603 
Q 1406 481 1766 481 
L 2356 481 
L 2356 0 
L 1766 0 
Q 1100 0 847 248 
Q 594 497 594 1153 
L 594 3053 
L 172 3053 
L 172 3500 
L 594 3500 
L 594 4494 
L 1172 4494 
z
" id="DejaVuSans-74" transform="scale(0.015625)"/>
       <path d="M 2841 2188 
Q 3044 2119 3236 1894 
Q 3428 1669 3622 1275 
L 4263 0 
L 3584 0 
L 2988 1197 
Q 2756 1666 2539 1819 
Q 2322 1972 1947 1972 
L 1259 1972 
L 1259 0 
L 628 0 
L 628 4666 
L 2053 4666 
Q 2853 4666 3247 4331 
Q 3641 3997 3641 3322 
Q 3641 2881 3436 2590 
Q 3231 2300 2841 2188 
z
M 1259 4147 
L 1259 2491 
L 2053 2491 
Q 2509 2491 2742 2702 
Q 2975 2913 2975 3322 
Q 2975 3731 2742 3939 
Q 2509 4147 2053 4147 
L 1259 4147 
z
" id="DejaVuSans-52" transform="scale(0.015625)"/>
       <path d="M 2906 2969 
L 2906 4863 
L 3481 4863 
L 3481 0 
L 2906 0 
L 2906 525 
Q 2725 213 2448 61 
Q 2172 -91 1784 -91 
Q 1150 -91 751 415 
Q 353 922 353 1747 
Q 353 2572 751 3078 
Q 1150 3584 1784 3584 
Q 2172 3584 2448 3432 
Q 2725 3281 2906 2969 
z
M 947 1747 
Q 947 1113 1208 752 
Q 1469 391 1925 391 
Q 2381 391 2643 752 
Q 2906 1113 2906 1747 
Q 2906 2381 2643 2742 
Q 2381 3103 1925 3103 
Q 1469 3103 1208 2742 
Q 947 2381 947 1747 
z
" id="DejaVuSans-64" transform="scale(0.015625)"/>
       <path d="M 2834 3397 
L 2834 2853 
Q 2591 2978 2328 3040 
Q 2066 3103 1784 3103 
Q 1356 3103 1142 2972 
Q 928 2841 928 2578 
Q 928 2378 1081 2264 
Q 1234 2150 1697 2047 
L 1894 2003 
Q 2506 1872 2764 1633 
Q 3022 1394 3022 966 
Q 3022 478 2636 193 
Q 2250 -91 1575 -91 
Q 1294 -91 989 -36 
Q 684 19 347 128 
L 347 722 
Q 666 556 975 473 
Q 1284 391 1588 391 
Q 1994 391 2212 530 
Q 2431 669 2431 922 
Q 2431 1156 2273 1281 
Q 2116 1406 1581 1522 
L 1381 1569 
Q 847 1681 609 1914 
Q 372 2147 372 2553 
Q 372 3047 722 3315 
Q 1072 3584 1716 3584 
Q 2034 3584 2315 3537 
Q 2597 3491 2834 3397 
z
" id="DejaVuSans-73" transform="scale(0.015625)"/>
      </defs>
      <use xlink:href="#DejaVuSans-47"/>
      <use x="77.490234" xlink:href="#DejaVuSans-6c"/>
      <use x="105.273438" xlink:href="#DejaVuSans-6f"/>
      <use x="166.455078" xlink:href="#DejaVuSans-62"/>
      <use x="229.931641" xlink:href="#DejaVuSans-61"/>
      <use x="291.210938" xlink:href="#DejaVuSans-6c"/>
      <use x="318.994141" xlink:href="#DejaVuSans-20"/>
      <use x="350.78125" xlink:href="#DejaVuSans-43"/>
      <use x="420.605469" xlink:href="#DejaVuSans-6f"/>
      <use x="481.787109" xlink:href="#DejaVuSans-6d"/>
      <use x="579.199219" xlink:href="#DejaVuSans-6d"/>
      <use x="676.611328" xlink:href="#DejaVuSans-75"/>
      <use x="739.990234" xlink:href="#DejaVuSans-6e"/>
      <use x="803.369141" xlink:href="#DejaVuSans-69"/>
      <use x="831.152344" xlink:href="#DejaVuSans-63"/>
      <use x="886.132812" xlink:href="#DejaVuSans-61"/>
      <use x="947.412109" xlink:href="#DejaVuSans-74"/>
      <use x="986.621094" xlink:href="#DejaVuSans-69"/>
      <use x="1014.404297" xlink:href="#DejaVuSans-6f"/>
      <use x="1075.585938" xlink:href="#DejaVuSans-6e"/>
      <use x="1138.964844" xlink:href="#DejaVuSans-20"/>
      <use x="1170.751953" xlink:href="#DejaVuSans-52"/>
      <use x="1235.734375" xlink:href="#DejaVuSans-6f"/>
      <use x="1296.916016" xlink:href="#DejaVuSans-75"/>
      <use x="1360.294922" xlink:href="#DejaVuSans-6e"/>
      <use x="1423.673828" xlink:href="#DejaVuSans-64"/>
      <use x="1487.150391" xlink:href="#DejaVuSans-73"/>
     </g>
    </g>
   </g>
   <g id="matplotlib.axis_2">
    <g id="ytick_1">
     <g id="line2d_7">
      <defs>
       <path d="M 0 0 
L -3.5 0 
" id="m6a812b154e" style="stroke:#000000;stroke-width:0.8;"/>
      </defs>
      <g>
       <use style="stroke:#000000;stroke-width:0.8;" x="44.57" xlink:href="#m6a812b154e" y="284.754096"/>
      </g>
     </g>
     <g id="text_8">
      <!-- 10 -->
      <g transform="translate(24.845 288.553315)scale(0.1 -0.1)">
       <use xlink:href="#DejaVuSans-31"/>
       <use x="63.623047" xlink:href="#DejaVuSans-30"/>
      </g>
     </g>
    </g>
    <g id="ytick_2">
     <g id="line2d_8">
      <g>
       <use style="stroke:#000000;stroke-width:0.8;" x="44.57" xlink:href="#m6a812b154e" y="250.390485"/>
      </g>
     </g>
     <g id="text_9">
      <!-- 20 -->
      <g transform="translate(24.845 254.189703)scale(0.1 -0.1)">
       <use xlink:href="#DejaVuSans-32"/>
       <use x="63.623047" xlink:href="#DejaVuSans-30"/>
      </g>
     </g>
    </g>
    <g id="ytick_3">
     <g id="line2d_9">
      <g>
       <use style="stroke:#000000;stroke-width:0.8;" x="44.57" xlink:href="#m6a812b154e" y="216.026873"/>
      </g>
     </g>
     <g id="text_10">
      <!-- 30 -->
      <g transform="translate(24.845 219.826092)scale(0.1 -0.1)">
       <use xlink:href="#DejaVuSans-33"/>
       <use x="63.623047" xlink:href="#DejaVuSans-30"/>
      </g>
     </g>
    </g>
    <g id="ytick_4">
     <g id="line2d_10">
      <g>
       <use style="stroke:#000000;stroke-width:0.8;" x="44.57" xlink:href="#m6a812b154e" y="181.663261"/>
      </g>
     </g>
     <g id="text_11">
      <!-- 40 -->
      <g transform="translate(24.845 185.46248)scale(0.1 -0.1)">
       <use xlink:href="#DejaVuSans-34"/>
       <use x="63.623047" xlink:href="#DejaVuSans-30"/>
      </g>
     </g>
    </g>
    <g id="ytick_5">
     <g id="line2d_11">
      <g>
       <use style="stroke:#000000;stroke-width:0.8;" x="44.57" xlink:href="#m6a812b154e" y="147.29965"/>
      </g>
     </g>
     <g id="text_12">
      <!-- 50 -->
      <g transform="translate(24.845 151.098868)scale(0.1 -0.1)">
       <use xlink:href="#DejaVuSans-35"/>
       <use x="63.623047" xlink:href="#DejaVuSans-30"/>
      </g>
     </g>
    </g>
    <g id="ytick_6">
     <g id="line2d_12">
      <g>
       <use style="stroke:#000000;stroke-width:0.8;" x="44.57" xlink:href="#m6a812b154e" y="112.936038"/>
      </g>
     </g>
     <g id="text_13">
      <!-- 60 -->
      <g transform="translate(24.845 116.735257)scale(0.1 -0.1)">
       <defs>
        <path d="M 2113 2584 
Q 1688 2584 1439 2293 
Q 1191 2003 1191 1497 
Q 1191 994 1439 701 
Q 1688 409 2113 409 
Q 2538 409 2786 701 
Q 3034 994 3034 1497 
Q 3034 2003 2786 2293 
Q 2538 2584 2113 2584 
z
M 3366 4563 
L 3366 3988 
Q 3128 4100 2886 4159 
Q 2644 4219 2406 4219 
Q 1781 4219 1451 3797 
Q 1122 3375 1075 2522 
Q 1259 2794 1537 2939 
Q 1816 3084 2150 3084 
Q 2853 3084 3261 2657 
Q 3669 2231 3669 1497 
Q 3669 778 3244 343 
Q 2819 -91 2113 -91 
Q 1303 -91 875 529 
Q 447 1150 447 2328 
Q 447 3434 972 4092 
Q 1497 4750 2381 4750 
Q 2619 4750 2861 4703 
Q 3103 4656 3366 4563 
z
" id="DejaVuSans-36" transform="scale(0.015625)"/>
       </defs>
       <use xlink:href="#DejaVuSans-36"/>
       <use x="63.623047" xlink:href="#DejaVuSans-30"/>
      </g>
     </g>
    </g>
    <g id="ytick_7">
     <g id="line2d_13">
      <g>
       <use style="stroke:#000000;stroke-width:0.8;" x="44.57" xlink:href="#m6a812b154e" y="78.572426"/>
      </g>
     </g>
     <g id="text_14">
      <!-- 70 -->
      <g transform="translate(24.845 82.371645)scale(0.1 -0.1)">
       <defs>
        <path d="M 525 4666 
L 3525 4666 
L 3525 4397 
L 1831 0 
L 1172 0 
L 2766 4134 
L 525 4134 
L 525 4666 
z
" id="DejaVuSans-37" transform="scale(0.015625)"/>
       </defs>
       <use xlink:href="#DejaVuSans-37"/>
       <use x="63.623047" xlink:href="#DejaVuSans-30"/>
      </g>
     </g>
    </g>
    <g id="text_15">
     <!-- Test Accuracy -->
     <g transform="translate(18.765313 210.2725)rotate(-90)scale(0.1 -0.1)">
      <defs>
       <path d="M -19 4666 
L 3928 4666 
L 3928 4134 
L 2272 4134 
L 2272 0 
L 1638 0 
L 1638 4134 
L -19 4134 
L -19 4666 
z
" id="DejaVuSans-54" transform="scale(0.015625)"/>
       <path d="M 3597 1894 
L 3597 1613 
L 953 1613 
Q 991 1019 1311 708 
Q 1631 397 2203 397 
Q 2534 397 2845 478 
Q 3156 559 3463 722 
L 3463 178 
Q 3153 47 2828 -22 
Q 2503 -91 2169 -91 
Q 1331 -91 842 396 
Q 353 884 353 1716 
Q 353 2575 817 3079 
Q 1281 3584 2069 3584 
Q 2775 3584 3186 3129 
Q 3597 2675 3597 1894 
z
M 3022 2063 
Q 3016 2534 2758 2815 
Q 2500 3097 2075 3097 
Q 1594 3097 1305 2825 
Q 1016 2553 972 2059 
L 3022 2063 
z
" id="DejaVuSans-65" transform="scale(0.015625)"/>
       <path d="M 2188 4044 
L 1331 1722 
L 3047 1722 
L 2188 4044 
z
M 1831 4666 
L 2547 4666 
L 4325 0 
L 3669 0 
L 3244 1197 
L 1141 1197 
L 716 0 
L 50 0 
L 1831 4666 
z
" id="DejaVuSans-41" transform="scale(0.015625)"/>
       <path d="M 2631 2963 
Q 2534 3019 2420 3045 
Q 2306 3072 2169 3072 
Q 1681 3072 1420 2755 
Q 1159 2438 1159 1844 
L 1159 0 
L 581 0 
L 581 3500 
L 1159 3500 
L 1159 2956 
Q 1341 3275 1631 3429 
Q 1922 3584 2338 3584 
Q 2397 3584 2469 3576 
Q 2541 3569 2628 3553 
L 2631 2963 
z
" id="DejaVuSans-72" transform="scale(0.015625)"/>
       <path d="M 2059 -325 
Q 1816 -950 1584 -1140 
Q 1353 -1331 966 -1331 
L 506 -1331 
L 506 -850 
L 844 -850 
Q 1081 -850 1212 -737 
Q 1344 -625 1503 -206 
L 1606 56 
L 191 3500 
L 800 3500 
L 1894 763 
L 2988 3500 
L 3597 3500 
L 2059 -325 
z
" id="DejaVuSans-79" transform="scale(0.015625)"/>
      </defs>
      <use xlink:href="#DejaVuSans-54"/>
      <use x="44.083984" xlink:href="#DejaVuSans-65"/>
      <use x="105.607422" xlink:href="#DejaVuSans-73"/>
      <use x="157.707031" xlink:href="#DejaVuSans-74"/>
      <use x="196.916016" xlink:href="#DejaVuSans-20"/>
      <use x="228.703125" xlink:href="#DejaVuSans-41"/>
      <use x="295.361328" xlink:href="#DejaVuSans-63"/>
      <use x="350.341797" xlink:href="#DejaVuSans-63"/>
      <use x="405.322266" xlink:href="#DejaVuSans-75"/>
      <use x="468.701172" xlink:href="#DejaVuSans-72"/>
      <use x="509.814453" xlink:href="#DejaVuSans-61"/>
      <use x="571.09375" xlink:href="#DejaVuSans-63"/>
      <use x="626.074219" xlink:href="#DejaVuSans-79"/>
     </g>
    </g>
   </g>
   <g id="line2d_14">
    <path clip-path="url(#p49817c17a6)" d="M 62.998636 285.972047 
L 70.520529 283.971128 
L 78.042421 266.397838 
L 85.564314 244.474724 
L 93.086206 250.477481 
L 100.608098 242.212815 
L 108.129991 236.906029 
L 115.651883 221.246662 
L 123.173776 214.895919 
L 130.695668 208.893161 
L 138.21756 194.79973 
L 145.739453 201.411463 
L 153.261345 184.360152 
L 160.783237 175.399514 
L 168.30513 172.52863 
L 175.827022 167.656827 
L 183.348915 174.703542 
L 190.870807 158.348203 
L 198.392699 160.523115 
L 205.914592 155.738309 
L 213.436484 158.522196 
L 220.958377 145.907706 
L 228.480269 141.035903 
L 236.002161 133.641201 
L 243.524054 125.637525 
L 251.045946 138.165019 
L 258.567839 126.50749 
L 266.089731 142.775832 
L 273.611623 131.379293 
L 281.133516 132.510247 
L 288.655408 114.501975 
L 296.177301 114.762964 
L 303.699193 109.369182 
L 311.221085 107.19427 
L 318.742978 102.757449 
L 326.26487 103.888403 
L 333.786763 120.243743 
L 341.308655 99.886565 
L 348.830547 105.71533 
L 356.35244 93.274832 
L 363.874332 104.584375 
L 371.396224 106.150312 
L 378.918117 102.409463 
L 386.440009 104.845365 
L 393.961902 92.57886 
L 401.483794 72.743662 
L 409.005686 90.664938 
L 416.527579 98.407625 
L 424.049471 83.357233 
L 431.571364 89.794973 
" style="fill:none;stroke:#1f77b4;stroke-linecap:square;stroke-width:1.5;"/>
   </g>
   <g id="line2d_15">
    <path clip-path="url(#p49817c17a6)" d="M 62.998636 286.668019 
L 70.520529 279.534307 
L 78.042421 279.186321 
L 85.564314 270.399676 
L 93.086206 267.09381 
L 100.608098 266.136848 
L 108.129991 263.178968 
L 115.651883 262.656989 
L 123.173776 255.262288 
L 130.695668 264.222926 
L 138.21756 251.782428 
L 145.739453 259.873101 
L 153.261345 257.4372 
L 160.783237 255.175291 
L 168.30513 252.913383 
L 175.827022 262.656989 
L 183.348915 245.692674 
L 190.870807 268.137768 
L 198.392699 264.309922 
L 205.914592 253.261369 
L 213.436484 251.695432 
L 220.958377 261.091052 
L 228.480269 244.56172 
L 236.002161 241.516843 
L 243.524054 234.209138 
L 251.045946 244.56172 
L 258.567839 216.461855 
L 266.089731 248.041579 
L 273.611623 253.783347 
L 281.133516 228.380374 
L 288.655408 234.557124 
L 296.177301 235.775075 
L 303.699193 236.036064 
L 311.221085 227.684402 
L 318.742978 217.244824 
L 326.26487 219.767722 
L 333.786763 232.730198 
L 341.308655 212.112031 
L 348.830547 211.329063 
L 356.35244 200.106516 
L 363.874332 208.371182 
L 371.396224 215.243905 
L 378.918117 219.680725 
L 386.440009 229.424332 
L 393.961902 222.116627 
L 401.483794 196.017681 
L 409.005686 200.541499 
L 416.527579 200.01952 
L 424.049471 210.981077 
L 431.571364 205.152312 
" style="fill:none;stroke:#ff7f0e;stroke-linecap:square;stroke-width:1.5;"/>
   </g>
   <g id="line2d_16">
    <path clip-path="url(#p49817c17a6)" d="M 62.998636 284.232117 
L 70.520529 283.797135 
L 78.042421 266.136848 
L 85.564314 248.998541 
L 93.086206 246.127657 
L 100.608098 244.387727 
L 108.129991 238.558963 
L 115.651883 239.86391 
L 123.173776 223.334578 
L 130.695668 210.459098 
L 138.21756 212.286024 
L 145.739453 206.718249 
L 153.261345 200.715491 
L 160.783237 194.625738 
L 168.30513 191.493864 
L 175.827022 196.974643 
L 183.348915 189.666938 
L 190.870807 190.536903 
L 198.392699 183.66418 
L 205.914592 161.915059 
L 213.436484 152.519439 
L 220.958377 157.130252 
L 228.480269 150.692512 
L 236.002161 146.429685 
L 243.524054 152.780428 
L 251.045946 150.953502 
L 258.567839 141.470885 
L 266.089731 145.211734 
L 273.611623 140.60092 
L 281.133516 130.596324 
L 288.655408 135.120142 
L 296.177301 131.2053 
L 303.699193 137.469047 
L 311.221085 124.332577 
L 318.742978 120.852718 
L 326.26487 132.597244 
L 333.786763 127.638444 
L 341.308655 121.722683 
L 348.830547 114.762964 
L 356.35244 112.240066 
L 363.874332 115.545932 
L 371.396224 123.810598 
L 378.918117 105.976319 
L 386.440009 114.936957 
L 393.961902 114.501975 
L 401.483794 109.891161 
L 409.005686 113.979996 
L 416.527579 109.369182 
L 424.049471 111.022115 
L 431.571364 100.582537 
" style="fill:none;stroke:#2ca02c;stroke-linecap:square;stroke-width:1.5;"/>
   </g>
   <g id="line2d_17">
    <path clip-path="url(#p49817c17a6)" d="M 62.998636 284.754096 
L 70.520529 284.795333 
L 78.042421 275.029194 
L 85.564314 261.661749 
L 93.086206 249.517649 
L 100.608098 243.022926 
L 108.129991 241.304746 
L 115.651883 237.167367 
L 123.173776 233.469842 
L 130.695668 232.088425 
L 138.21756 230.830717 
L 145.739453 229.153773 
L 153.261345 228.782646 
L 160.783237 226.67272 
L 168.30513 227.442465 
L 175.827022 224.597158 
L 183.348915 223.600613 
L 190.870807 220.899633 
L 198.392699 222.645304 
L 205.914592 218.171162 
L 213.436484 221.332615 
L 220.958377 217.367054 
L 228.480269 217.085272 
L 236.002161 214.995965 
L 243.524054 216.398 
L 251.045946 215.800073 
L 258.567839 215.621382 
L 266.089731 213.875711 
L 273.611623 214.899746 
L 281.133516 212.508039 
L 288.655408 213.875711 
L 296.177301 213.133457 
L 303.699193 213.435857 
L 311.221085 210.899822 
L 318.742978 208.645569 
L 326.26487 211.009786 
L 333.786763 208.528733 
L 341.308655 210.336259 
L 348.830547 209.181641 
L 356.35244 206.872407 
L 363.874332 207.758988 
L 371.396224 205.312299 
L 378.918117 205.436008 
L 386.440009 204.789972 
L 393.961902 206.398189 
L 401.483794 203.869027 
L 409.005686 204.295136 
L 416.527579 203.924009 
L 424.049471 203.566627 
L 431.571364 203.3467 
" style="fill:none;stroke:#d62728;stroke-linecap:square;stroke-width:1.5;"/>
   </g>
   <g id="patch_3">
    <path d="M 44.57 303.64 
L 44.57 48.38 
" style="fill:none;stroke:#000000;stroke-linecap:square;stroke-linejoin:miter;stroke-width:0.8;"/>
   </g>
   <g id="patch_4">
    <path d="M 450 303.64 
L 450 48.38 
" style="fill:none;stroke:#000000;stroke-linecap:square;stroke-linejoin:miter;stroke-width:0.8;"/>
   </g>
   <g id="patch_5">
    <path d="M 44.57 303.64 
L 450 303.64 
" style="fill:none;stroke:#000000;stroke-linecap:square;stroke-linejoin:miter;stroke-width:0.8;"/>
   </g>
   <g id="patch_6">
    <path d="M 44.57 48.38 
L 450 48.38 
" style="fill:none;stroke:#000000;stroke-linecap:square;stroke-linejoin:miter;stroke-width:0.8;"/>
   </g>
   <g id="text_16">
    <!-- Local Rounds 25 -->
    <g transform="translate(198.174063 20.88)scale(0.12 -0.12)">
     <defs>
      <path d="M 628 4666 
L 1259 4666 
L 1259 531 
L 3531 531 
L 3531 0 
L 628 0 
L 628 4666 
z
" id="DejaVuSans-4c" transform="scale(0.015625)"/>
     </defs>
     <use xlink:href="#DejaVuSans-4c"/>
     <use x="53.962891" xlink:href="#DejaVuSans-6f"/>
     <use x="115.144531" xlink:href="#DejaVuSans-63"/>
     <use x="170.125" xlink:href="#DejaVuSans-61"/>
     <use x="231.404297" xlink:href="#DejaVuSans-6c"/>
     <use x="259.1875" xlink:href="#DejaVuSans-20"/>
     <use x="290.974609" xlink:href="#DejaVuSans-52"/>
     <use x="355.957031" xlink:href="#DejaVuSans-6f"/>
     <use x="417.138672" xlink:href="#DejaVuSans-75"/>
     <use x="480.517578" xlink:href="#DejaVuSans-6e"/>
     <use x="543.896484" xlink:href="#DejaVuSans-64"/>
     <use x="607.373047" xlink:href="#DejaVuSans-73"/>
     <use x="659.472656" xlink:href="#DejaVuSans-20"/>
     <use x="691.259766" xlink:href="#DejaVuSans-32"/>
     <use x="754.882812" xlink:href="#DejaVuSans-35"/>
    </g>
   </g>
   <g id="legend_1">
    <g id="patch_7">
     <path d="M 80.886563 45.532125 
L 413.683438 45.532125 
Q 415.683438 45.532125 415.683438 43.532125 
L 415.683438 29.854 
Q 415.683438 27.854 413.683438 27.854 
L 80.886563 27.854 
Q 78.886563 27.854 78.886563 29.854 
L 78.886563 43.532125 
Q 78.886563 45.532125 80.886563 45.532125 
z
" style="fill:#ffffff;opacity:0.8;stroke:#cccccc;stroke-linejoin:miter;"/>
    </g>
    <g id="line2d_18">
     <path d="M 82.886563 35.952438 
L 102.886563 35.952438 
" style="fill:none;stroke:#1f77b4;stroke-linecap:square;stroke-width:1.5;"/>
    </g>
    <g id="line2d_19"/>
    <g id="text_17">
     <!-- FedAvg -->
     <g transform="translate(110.886563 39.452438)scale(0.1 -0.1)">
      <defs>
       <path d="M 628 4666 
L 3309 4666 
L 3309 4134 
L 1259 4134 
L 1259 2759 
L 3109 2759 
L 3109 2228 
L 1259 2228 
L 1259 0 
L 628 0 
L 628 4666 
z
" id="DejaVuSans-46" transform="scale(0.015625)"/>
       <path d="M 191 3500 
L 800 3500 
L 1894 563 
L 2988 3500 
L 3597 3500 
L 2284 0 
L 1503 0 
L 191 3500 
z
" id="DejaVuSans-76" transform="scale(0.015625)"/>
       <path d="M 2906 1791 
Q 2906 2416 2648 2759 
Q 2391 3103 1925 3103 
Q 1463 3103 1205 2759 
Q 947 2416 947 1791 
Q 947 1169 1205 825 
Q 1463 481 1925 481 
Q 2391 481 2648 825 
Q 2906 1169 2906 1791 
z
M 3481 434 
Q 3481 -459 3084 -895 
Q 2688 -1331 1869 -1331 
Q 1566 -1331 1297 -1286 
Q 1028 -1241 775 -1147 
L 775 -588 
Q 1028 -725 1275 -790 
Q 1522 -856 1778 -856 
Q 2344 -856 2625 -561 
Q 2906 -266 2906 331 
L 2906 616 
Q 2728 306 2450 153 
Q 2172 0 1784 0 
Q 1141 0 747 490 
Q 353 981 353 1791 
Q 353 2603 747 3093 
Q 1141 3584 1784 3584 
Q 2172 3584 2450 3431 
Q 2728 3278 2906 2969 
L 2906 3500 
L 3481 3500 
L 3481 434 
z
" id="DejaVuSans-67" transform="scale(0.015625)"/>
      </defs>
      <use xlink:href="#DejaVuSans-46"/>
      <use x="52.019531" xlink:href="#DejaVuSans-65"/>
      <use x="113.542969" xlink:href="#DejaVuSans-64"/>
      <use x="177.019531" xlink:href="#DejaVuSans-41"/>
      <use x="239.552734" xlink:href="#DejaVuSans-76"/>
      <use x="298.732422" xlink:href="#DejaVuSans-67"/>
     </g>
    </g>
    <g id="line2d_20">
     <path d="M 167.11 35.952438 
L 187.11 35.952438 
" style="fill:none;stroke:#ff7f0e;stroke-linecap:square;stroke-width:1.5;"/>
    </g>
    <g id="line2d_21"/>
    <g id="text_18">
     <!-- FedMed -->
     <g transform="translate(195.11 39.452438)scale(0.1 -0.1)">
      <defs>
       <path d="M 628 4666 
L 1569 4666 
L 2759 1491 
L 3956 4666 
L 4897 4666 
L 4897 0 
L 4281 0 
L 4281 4097 
L 3078 897 
L 2444 897 
L 1241 4097 
L 1241 0 
L 628 0 
L 628 4666 
z
" id="DejaVuSans-4d" transform="scale(0.015625)"/>
      </defs>
      <use xlink:href="#DejaVuSans-46"/>
      <use x="52.019531" xlink:href="#DejaVuSans-65"/>
      <use x="113.542969" xlink:href="#DejaVuSans-64"/>
      <use x="177.019531" xlink:href="#DejaVuSans-4d"/>
      <use x="263.298828" xlink:href="#DejaVuSans-65"/>
      <use x="324.822266" xlink:href="#DejaVuSans-64"/>
     </g>
    </g>
    <g id="line2d_22">
     <path d="M 253.942813 35.952438 
L 273.942813 35.952438 
" style="fill:none;stroke:#2ca02c;stroke-linecap:square;stroke-width:1.5;"/>
    </g>
    <g id="line2d_23"/>
    <g id="text_19">
     <!-- FedProx -->
     <g transform="translate(281.942813 39.452438)scale(0.1 -0.1)">
      <defs>
       <path d="M 1259 4147 
L 1259 2394 
L 2053 2394 
Q 2494 2394 2734 2622 
Q 2975 2850 2975 3272 
Q 2975 3691 2734 3919 
Q 2494 4147 2053 4147 
L 1259 4147 
z
M 628 4666 
L 2053 4666 
Q 2838 4666 3239 4311 
Q 3641 3956 3641 3272 
Q 3641 2581 3239 2228 
Q 2838 1875 2053 1875 
L 1259 1875 
L 1259 0 
L 628 0 
L 628 4666 
z
" id="DejaVuSans-50" transform="scale(0.015625)"/>
       <path d="M 3513 3500 
L 2247 1797 
L 3578 0 
L 2900 0 
L 1881 1375 
L 863 0 
L 184 0 
L 1544 1831 
L 300 3500 
L 978 3500 
L 1906 2253 
L 2834 3500 
L 3513 3500 
z
" id="DejaVuSans-78" transform="scale(0.015625)"/>
      </defs>
      <use xlink:href="#DejaVuSans-46"/>
      <use x="52.019531" xlink:href="#DejaVuSans-65"/>
      <use x="113.542969" xlink:href="#DejaVuSans-64"/>
      <use x="177.019531" xlink:href="#DejaVuSans-50"/>
      <use x="235.572266" xlink:href="#DejaVuSans-72"/>
      <use x="274.435547" xlink:href="#DejaVuSans-6f"/>
      <use x="332.492188" xlink:href="#DejaVuSans-78"/>
     </g>
    </g>
    <g id="line2d_24">
     <path d="M 341.111563 35.952438 
L 361.111563 35.952438 
" style="fill:none;stroke:#d62728;stroke-linecap:square;stroke-width:1.5;"/>
    </g>
    <g id="line2d_25"/>
    <g id="text_20">
     <!-- qFedAvg -->
     <g transform="translate(369.111563 39.452438)scale(0.1 -0.1)">
      <defs>
       <path d="M 947 1747 
Q 947 1113 1208 752 
Q 1469 391 1925 391 
Q 2381 391 2643 752 
Q 2906 1113 2906 1747 
Q 2906 2381 2643 2742 
Q 2381 3103 1925 3103 
Q 1469 3103 1208 2742 
Q 947 2381 947 1747 
z
M 2906 525 
Q 2725 213 2448 61 
Q 2172 -91 1784 -91 
Q 1150 -91 751 415 
Q 353 922 353 1747 
Q 353 2572 751 3078 
Q 1150 3584 1784 3584 
Q 2172 3584 2448 3432 
Q 2725 3281 2906 2969 
L 2906 3500 
L 3481 3500 
L 3481 -1331 
L 2906 -1331 
L 2906 525 
z
" id="DejaVuSans-71" transform="scale(0.015625)"/>
      </defs>
      <use xlink:href="#DejaVuSans-71"/>
      <use x="63.476562" xlink:href="#DejaVuSans-46"/>
      <use x="115.496094" xlink:href="#DejaVuSans-65"/>
      <use x="177.019531" xlink:href="#DejaVuSans-64"/>
      <use x="240.496094" xlink:href="#DejaVuSans-41"/>
      <use x="303.029297" xlink:href="#DejaVuSans-76"/>
      <use x="362.208984" xlink:href="#DejaVuSans-67"/>
     </g>
    </g>
   </g>
  </g>
 </g>
 <defs>
  <clipPath id="p49817c17a6">
   <rect height="255.26" width="405.43" x="44.57" y="48.38"/>
  </clipPath>
 </defs>
</svg>
