<?xml version="1.0" encoding="utf-8" standalone="no"?>
<!DOCTYPE svg PUBLIC "-//W3C//DTD SVG 1.1//EN"
  "http://www.w3.org/Graphics/SVG/1.1/DTD/svg11.dtd">
<svg height="432pt" version="1.1" viewBox="0 0 576 432" width="576pt" xmlns="http://www.w3.org/2000/svg" xmlns:xlink="http://www.w3.org/1999/xlink">
 <metadata>
  <rdf:RDF xmlns:cc="http://creativecommons.org/ns#" xmlns:dc="http://purl.org/dc/elements/1.1/" xmlns:rdf="http://www.w3.org/1999/02/22-rdf-syntax-ns#">
   <cc:Work>
    <dc:type rdf:resource="http://purl.org/dc/dcmitype/StillImage"/>
    <dc:date>2021-05-07T22:04:42.290850</dc:date>
    <dc:format>image/svg+xml</dc:format>
    <dc:creator>
     <cc:Agent>
      <dc:title>Matplotlib v3.4.1, https://matplotlib.org/</dc:title>
     </cc:Agent>
    </dc:creator>
   </cc:Work>
  </rdf:RDF>
 </metadata>
 <defs>
  <style type="text/css">*{stroke-linecap:butt;stroke-linejoin:round;}</style>
 </defs>
 <g id="figure_1">
  <g id="patch_1">
   <path d="M 0 432 
L 576 432 
L 576 0 
L 0 0 
z
" style="fill:#ffffff;"/>
  </g>
  <g id="axes_1">
   <g id="patch_2">
    <path d="M 60.77 376 
L 556.505 376 
L 556.505 56.601989 
L 60.77 56.601989 
z
" style="fill:#ffffff;"/>
   </g>
   <g id="PolyCollection_1">
    <path clip-path="url(#p0ab39089ce)" d="M 83.303409 352.192321 
L 83.303409 355.593082 
L 92.500719 355.539835 
L 101.698029 343.214125 
L 110.895339 310.89603 
L 120.092648 325.371764 
L 129.289958 314.599628 
L 138.487268 311.617687 
L 147.684578 299.311389 
L 156.881888 280.442681 
L 166.079198 278.480226 
L 175.276507 247.246069 
L 184.473817 273.321182 
L 193.671127 248.923239 
L 202.868437 244.459972 
L 212.065747 233.389725 
L 221.263057 229.661747 
L 230.460366 253.796825 
L 239.657676 209.24004 
L 248.854986 219.905525 
L 258.052296 209.404661 
L 267.249606 227.437394 
L 276.446916 205.159663 
L 285.644225 194.385236 
L 294.841535 201.213805 
L 304.038845 170.214024 
L 313.236155 197.464161 
L 322.433465 185.545804 
L 331.630775 200.592306 
L 340.828084 170.153459 
L 350.025394 178.604612 
L 359.222704 160.823276 
L 368.420014 163.027877 
L 377.617324 162.009656 
L 386.814634 140.131768 
L 396.011943 137.698942 
L 405.209253 139.104079 
L 414.406563 171.539055 
L 423.603873 145.854188 
L 432.801183 154.359076 
L 441.998493 124.9886 
L 451.195802 144.760325 
L 460.393112 145.222141 
L 469.590422 135.326465 
L 478.787732 136.109338 
L 487.985042 125.716159 
L 497.182352 103.054712 
L 506.379661 131.893098 
L 515.576971 130.815294 
L 524.774281 116.08604 
L 533.971591 121.91595 
L 533.971591 94.930274 
L 533.971591 94.930274 
L 524.774281 84.649541 
L 515.576971 107.584357 
L 506.379661 87.130239 
L 497.182352 71.12008 
L 487.985042 98.096829 
L 478.787732 118.400956 
L 469.590422 113.08791 
L 460.393112 112.553824 
L 451.195802 109.096834 
L 441.998493 100.566079 
L 432.801183 102.328332 
L 423.603873 96.246557 
L 414.406563 121.506155 
L 405.209253 113.01139 
L 396.011943 111.586278 
L 386.814634 120.256733 
L 377.617324 103.82163 
L 368.420014 116.301515 
L 359.222704 117.852982 
L 350.025394 145.137903 
L 340.828084 150.758808 
L 331.630775 148.840152 
L 322.433465 123.174626 
L 313.236155 140.429594 
L 304.038845 136.329291 
L 294.841535 125.358958 
L 285.644225 150.692995 
L 276.446916 152.110406 
L 267.249606 161.400825 
L 258.052296 172.466795 
L 248.854986 173.940057 
L 239.657676 179.162757 
L 230.460366 175.535713 
L 221.263057 182.036168 
L 212.065747 190.500029 
L 202.868437 186.614257 
L 193.671127 204.575263 
L 184.473817 222.848752 
L 175.276507 232.3778 
L 166.079198 236.412887 
L 156.881888 249.472518 
L 147.684578 246.496742 
L 138.487268 273.378493 
L 129.289958 283.676946 
L 120.092648 293.587393 
L 110.895339 293.041041 
L 101.698029 315.586215 
L 92.500719 347.238206 
L 83.303409 352.192321 
z
" style="fill:#1f77b4;fill-opacity:0.5;"/>
   </g>
   <g id="PolyCollection_2">
    <path clip-path="url(#p0ab39089ce)" d="M 83.303409 353.239567 
L 83.303409 356.287527 
L 92.500719 356.158599 
L 101.698029 361.316496 
L 110.895339 349.408305 
L 120.092648 349.380074 
L 129.289958 340.774451 
L 138.487268 341.549945 
L 147.684578 339.022202 
L 156.881888 334.506744 
L 166.079198 354.170822 
L 175.276507 318.75095 
L 184.473817 348.470374 
L 193.671127 338.525121 
L 202.868437 344.501852 
L 212.065747 337.873389 
L 221.263057 343.976068 
L 230.460366 329.752245 
L 239.657676 355.775099 
L 248.854986 343.177557 
L 258.052296 348.92589 
L 267.249606 345.884972 
L 276.446916 344.543627 
L 285.644225 315.732599 
L 294.841535 346.659399 
L 304.038845 306.922052 
L 313.236155 333.781507 
L 322.433465 291.311366 
L 331.630775 343.393858 
L 340.828084 337.972541 
L 350.025394 298.64694 
L 359.222704 323.310571 
L 368.420014 322.074547 
L 377.617324 312.514628 
L 386.814634 317.821789 
L 396.011943 275.831977 
L 405.209253 295.151229 
L 414.406563 327.027855 
L 423.603873 272.250381 
L 432.801183 278.681563 
L 441.998493 275.499677 
L 451.195802 287.685433 
L 460.393112 298.766481 
L 469.590422 316.232556 
L 478.787732 321.205501 
L 487.985042 315.687337 
L 497.182352 258.269886 
L 506.379661 258.068698 
L 515.576971 265.734872 
L 524.774281 297.192449 
L 533.971591 262.700894 
L 533.971591 242.83063 
L 533.971591 242.83063 
L 524.774281 222.925737 
L 515.576971 226.95168 
L 506.379661 235.924122 
L 497.182352 224.401942 
L 487.985042 232.297907 
L 478.787732 245.067499 
L 469.590422 225.656769 
L 460.393112 232.019564 
L 451.195802 225.901412 
L 441.998493 217.404586 
L 432.801183 242.307469 
L 423.603873 250.698053 
L 414.406563 247.518178 
L 405.209253 246.955808 
L 396.011943 259.961429 
L 386.814634 244.096985 
L 377.617324 270.304438 
L 368.420014 260.091385 
L 359.222704 255.807401 
L 350.025394 265.013525 
L 340.828084 289.259648 
L 331.630775 269.46938 
L 322.433465 242.522638 
L 313.236155 270.373275 
L 304.038845 271.325075 
L 294.841535 249.875484 
L 285.644225 288.422183 
L 276.446916 300.976319 
L 267.249606 276.122144 
L 258.052296 277.000031 
L 248.854986 310.397711 
L 239.657676 307.379469 
L 230.460366 277.232785 
L 221.263057 305.462683 
L 212.065747 287.181687 
L 202.868437 286.213719 
L 193.671127 297.850947 
L 184.473817 294.001613 
L 175.276507 303.473877 
L 166.079198 299.186734 
L 156.881888 296.426539 
L 147.684578 310.416549 
L 138.487268 309.195074 
L 129.289958 317.372755 
L 120.092648 311.161958 
L 110.895339 319.406759 
L 101.698029 329.487419 
L 92.500719 335.516161 
L 83.303409 353.239567 
z
" style="fill:#ff7f0e;fill-opacity:0.5;"/>
   </g>
   <g id="PolyCollection_3">
    <path clip-path="url(#p0ab39089ce)" d="M 83.303409 348.78658 
L 83.303409 354.644595 
L 92.500719 352.836481 
L 101.698029 344.831005 
L 110.895339 330.954142 
L 120.092648 322.398913 
L 129.289958 317.807689 
L 138.487268 309.082981 
L 147.684578 310.539243 
L 156.881888 286.773565 
L 166.079198 272.260153 
L 175.276507 270.579514 
L 184.473817 258.295897 
L 193.671127 259.901298 
L 202.868437 279.100592 
L 212.065747 264.179401 
L 221.263057 265.266712 
L 230.460366 251.596682 
L 239.657676 253.515618 
L 248.854986 243.129887 
L 258.052296 208.9316 
L 267.249606 208.074832 
L 276.446916 211.426528 
L 285.644225 195.99947 
L 294.841535 186.557904 
L 304.038845 204.261419 
L 313.236155 194.560074 
L 322.433465 198.225525 
L 331.630775 198.723928 
L 340.828084 194.147974 
L 350.025394 172.037832 
L 359.222704 185.759265 
L 368.420014 189.99209 
L 377.617324 194.002433 
L 386.814634 183.491717 
L 396.011943 166.287319 
L 405.209253 189.28402 
L 414.406563 168.155251 
L 423.603873 161.59094 
L 432.801183 154.15273 
L 441.998493 159.327628 
L 451.195802 150.227409 
L 460.393112 182.888022 
L 469.590422 151.687524 
L 478.787732 150.422877 
L 487.985042 161.964931 
L 497.182352 145.918023 
L 506.379661 175.260508 
L 515.576971 149.579455 
L 524.774281 150.843246 
L 533.971591 138.748491 
L 533.971591 105.093944 
L 533.971591 105.093944 
L 524.774281 119.124557 
L 515.576971 116.251831 
L 506.379661 102.109482 
L 497.182352 121.219532 
L 487.985042 116.711327 
L 478.787732 129.341938 
L 469.590422 105.653018 
L 460.393112 119.083355 
L 451.195802 131.061386 
L 441.998493 113.688134 
L 432.801183 125.176661 
L 423.603873 135.155363 
L 414.406563 143.395426 
L 405.209253 134.676206 
L 396.011943 128.28187 
L 386.814634 119.785928 
L 377.617324 142.149631 
L 368.420014 130.484754 
L 359.222704 144.514591 
L 350.025394 146.915032 
L 340.828084 149.8417 
L 331.630775 156.80445 
L 322.433465 147.941263 
L 313.236155 175.337255 
L 304.038845 170.20785 
L 294.841535 172.018434 
L 285.644225 173.244725 
L 276.446916 173.928309 
L 267.249606 165.741302 
L 258.052296 188.397364 
L 248.854986 208.626924 
L 239.657676 215.440392 
L 230.460366 215.182215 
L 221.263057 219.799941 
L 212.065747 207.171434 
L 202.868437 200.087854 
L 193.671127 234.526945 
L 184.473817 251.154432 
L 175.276507 252.804343 
L 166.079198 246.551766 
L 156.881888 264.259639 
L 147.684578 281.859124 
L 138.487268 280.049716 
L 129.289958 285.91167 
L 120.092648 285.674674 
L 110.895339 284.303921 
L 101.698029 313.316201 
L 92.500719 349.506137 
L 83.303409 348.78658 
z
" style="fill:#2ca02c;fill-opacity:0.5;"/>
   </g>
   <g id="PolyCollection_4">
    <path clip-path="url(#p0ab39089ce)" d="M 83.303409 352.368722 
L 83.303409 352.368722 
L 92.500719 352.523514 
L 101.698029 361.481909 
L 110.895339 343.393643 
L 120.092648 323.314516 
L 129.289958 313.656735 
L 138.487268 310.529476 
L 147.684578 303.479209 
L 156.881888 297.675704 
L 166.079198 296.51234 
L 175.276507 295.43747 
L 184.473817 294.492783 
L 193.671127 294.951055 
L 202.868437 294.468517 
L 212.065747 293.339929 
L 221.263057 292.599397 
L 230.460366 290.212632 
L 239.657676 291.197616 
L 248.854986 288.062886 
L 258.052296 287.078201 
L 267.249606 286.257919 
L 276.446916 284.196937 
L 285.644225 284.435104 
L 294.841535 284.809598 
L 304.038845 285.830081 
L 313.236155 285.930239 
L 322.433465 285.579325 
L 331.630775 286.560891 
L 340.828084 281.735035 
L 350.025394 285.43795 
L 359.222704 286.927719 
L 368.420014 290.758726 
L 377.617324 288.612648 
L 386.814634 287.173429 
L 396.011943 283.633367 
L 405.209253 287.428394 
L 414.406563 286.832031 
L 423.603873 286.441663 
L 432.801183 284.278068 
L 441.998493 283.088915 
L 451.195802 282.311257 
L 460.393112 280.655142 
L 469.590422 279.778756 
L 478.787732 280.786366 
L 487.985042 279.885921 
L 497.182352 278.420389 
L 506.379661 280.112739 
L 515.576971 279.43383 
L 524.774281 278.795769 
L 533.971591 278.264526 
L 533.971591 222.748398 
L 533.971591 222.748398 
L 524.774281 222.767529 
L 515.576971 223.023827 
L 506.379661 223.273675 
L 497.182352 223.899674 
L 487.985042 228.763447 
L 478.787732 223.83839 
L 469.590422 226.462724 
L 460.393112 225.276753 
L 451.195802 229.743553 
L 441.998493 226.747198 
L 432.801183 231.336976 
L 423.603873 232.062847 
L 414.406563 227.149089 
L 405.209253 232.761637 
L 396.011943 230.64014 
L 386.814634 232.741415 
L 377.617324 237.6487 
L 368.420014 234.745858 
L 359.222704 240.434379 
L 350.025394 238.501507 
L 340.828084 248.189743 
L 331.630775 240.801206 
L 322.433465 246.151369 
L 313.236155 246.247634 
L 304.038845 247.844123 
L 294.841535 245.355969 
L 285.644225 250.959019 
L 276.446916 251.902354 
L 267.249606 259.765311 
L 258.052296 251.033397 
L 248.854986 261.24539 
L 239.657676 253.742063 
L 230.460366 261.486333 
L 221.263057 261.593452 
L 212.065747 267.973389 
L 202.868437 264.91849 
L 193.671127 269.716107 
L 184.473817 271.103136 
L 175.276507 274.355053 
L 166.079198 276.427636 
L 156.881888 278.721312 
L 147.684578 282.170976 
L 138.487268 285.474628 
L 129.289958 286.647168 
L 120.092648 293.242631 
L 110.895339 303.55449 
L 101.698029 318.918667 
L 92.500719 352.317124 
L 83.303409 352.368722 
z
" style="fill:#d62728;fill-opacity:0.5;"/>
   </g>
   <g id="matplotlib.axis_1">
    <g id="xtick_1">
     <g id="line2d_1">
      <defs>
       <path d="M 0 0 
L 0 3.5 
" id="m65c032ba87" style="stroke:#000000;stroke-width:0.8;"/>
      </defs>
      <g>
       <use style="stroke:#000000;stroke-width:0.8;" x="83.303409" xlink:href="#m65c032ba87" y="376"/>
      </g>
     </g>
     <g id="text_1">
      <!-- 0 -->
      <g transform="translate(78.531534 394.397656)scale(0.15 -0.15)">
       <defs>
        <path d="M 2034 4250 
Q 1547 4250 1301 3770 
Q 1056 3291 1056 2328 
Q 1056 1369 1301 889 
Q 1547 409 2034 409 
Q 2525 409 2770 889 
Q 3016 1369 3016 2328 
Q 3016 3291 2770 3770 
Q 2525 4250 2034 4250 
z
M 2034 4750 
Q 2819 4750 3233 4129 
Q 3647 3509 3647 2328 
Q 3647 1150 3233 529 
Q 2819 -91 2034 -91 
Q 1250 -91 836 529 
Q 422 1150 422 2328 
Q 422 3509 836 4129 
Q 1250 4750 2034 4750 
z
" id="DejaVuSans-30" transform="scale(0.015625)"/>
       </defs>
       <use xlink:href="#DejaVuSans-30"/>
      </g>
     </g>
    </g>
    <g id="xtick_2">
     <g id="line2d_2">
      <g>
       <use style="stroke:#000000;stroke-width:0.8;" x="175.276507" xlink:href="#m65c032ba87" y="376"/>
      </g>
     </g>
     <g id="text_2">
      <!-- 10 -->
      <g transform="translate(165.732757 394.397656)scale(0.15 -0.15)">
       <defs>
        <path d="M 794 531 
L 1825 531 
L 1825 4091 
L 703 3866 
L 703 4441 
L 1819 4666 
L 2450 4666 
L 2450 531 
L 3481 531 
L 3481 0 
L 794 0 
L 794 531 
z
" id="DejaVuSans-31" transform="scale(0.015625)"/>
       </defs>
       <use xlink:href="#DejaVuSans-31"/>
       <use x="63.623047" xlink:href="#DejaVuSans-30"/>
      </g>
     </g>
    </g>
    <g id="xtick_3">
     <g id="line2d_3">
      <g>
       <use style="stroke:#000000;stroke-width:0.8;" x="267.249606" xlink:href="#m65c032ba87" y="376"/>
      </g>
     </g>
     <g id="text_3">
      <!-- 20 -->
      <g transform="translate(257.705856 394.397656)scale(0.15 -0.15)">
       <defs>
        <path d="M 1228 531 
L 3431 531 
L 3431 0 
L 469 0 
L 469 531 
Q 828 903 1448 1529 
Q 2069 2156 2228 2338 
Q 2531 2678 2651 2914 
Q 2772 3150 2772 3378 
Q 2772 3750 2511 3984 
Q 2250 4219 1831 4219 
Q 1534 4219 1204 4116 
Q 875 4013 500 3803 
L 500 4441 
Q 881 4594 1212 4672 
Q 1544 4750 1819 4750 
Q 2544 4750 2975 4387 
Q 3406 4025 3406 3419 
Q 3406 3131 3298 2873 
Q 3191 2616 2906 2266 
Q 2828 2175 2409 1742 
Q 1991 1309 1228 531 
z
" id="DejaVuSans-32" transform="scale(0.015625)"/>
       </defs>
       <use xlink:href="#DejaVuSans-32"/>
       <use x="63.623047" xlink:href="#DejaVuSans-30"/>
      </g>
     </g>
    </g>
    <g id="xtick_4">
     <g id="line2d_4">
      <g>
       <use style="stroke:#000000;stroke-width:0.8;" x="359.222704" xlink:href="#m65c032ba87" y="376"/>
      </g>
     </g>
     <g id="text_4">
      <!-- 30 -->
      <g transform="translate(349.678954 394.397656)scale(0.15 -0.15)">
       <defs>
        <path d="M 2597 2516 
Q 3050 2419 3304 2112 
Q 3559 1806 3559 1356 
Q 3559 666 3084 287 
Q 2609 -91 1734 -91 
Q 1441 -91 1130 -33 
Q 819 25 488 141 
L 488 750 
Q 750 597 1062 519 
Q 1375 441 1716 441 
Q 2309 441 2620 675 
Q 2931 909 2931 1356 
Q 2931 1769 2642 2001 
Q 2353 2234 1838 2234 
L 1294 2234 
L 1294 2753 
L 1863 2753 
Q 2328 2753 2575 2939 
Q 2822 3125 2822 3475 
Q 2822 3834 2567 4026 
Q 2313 4219 1838 4219 
Q 1578 4219 1281 4162 
Q 984 4106 628 3988 
L 628 4550 
Q 988 4650 1302 4700 
Q 1616 4750 1894 4750 
Q 2613 4750 3031 4423 
Q 3450 4097 3450 3541 
Q 3450 3153 3228 2886 
Q 3006 2619 2597 2516 
z
" id="DejaVuSans-33" transform="scale(0.015625)"/>
       </defs>
       <use xlink:href="#DejaVuSans-33"/>
       <use x="63.623047" xlink:href="#DejaVuSans-30"/>
      </g>
     </g>
    </g>
    <g id="xtick_5">
     <g id="line2d_5">
      <g>
       <use style="stroke:#000000;stroke-width:0.8;" x="451.195802" xlink:href="#m65c032ba87" y="376"/>
      </g>
     </g>
     <g id="text_5">
      <!-- 40 -->
      <g transform="translate(441.652052 394.397656)scale(0.15 -0.15)">
       <defs>
        <path d="M 2419 4116 
L 825 1625 
L 2419 1625 
L 2419 4116 
z
M 2253 4666 
L 3047 4666 
L 3047 1625 
L 3713 1625 
L 3713 1100 
L 3047 1100 
L 3047 0 
L 2419 0 
L 2419 1100 
L 313 1100 
L 313 1709 
L 2253 4666 
z
" id="DejaVuSans-34" transform="scale(0.015625)"/>
       </defs>
       <use xlink:href="#DejaVuSans-34"/>
       <use x="63.623047" xlink:href="#DejaVuSans-30"/>
      </g>
     </g>
    </g>
    <g id="xtick_6">
     <g id="line2d_6">
      <g>
       <use style="stroke:#000000;stroke-width:0.8;" x="543.168901" xlink:href="#m65c032ba87" y="376"/>
      </g>
     </g>
     <g id="text_6">
      <!-- 50 -->
      <g transform="translate(533.625151 394.397656)scale(0.15 -0.15)">
       <defs>
        <path d="M 691 4666 
L 3169 4666 
L 3169 4134 
L 1269 4134 
L 1269 2991 
Q 1406 3038 1543 3061 
Q 1681 3084 1819 3084 
Q 2600 3084 3056 2656 
Q 3513 2228 3513 1497 
Q 3513 744 3044 326 
Q 2575 -91 1722 -91 
Q 1428 -91 1123 -41 
Q 819 9 494 109 
L 494 744 
Q 775 591 1075 516 
Q 1375 441 1709 441 
Q 2250 441 2565 725 
Q 2881 1009 2881 1497 
Q 2881 1984 2565 2268 
Q 2250 2553 1709 2553 
Q 1456 2553 1204 2497 
Q 953 2441 691 2322 
L 691 4666 
z
" id="DejaVuSans-35" transform="scale(0.015625)"/>
       </defs>
       <use xlink:href="#DejaVuSans-35"/>
       <use x="63.623047" xlink:href="#DejaVuSans-30"/>
      </g>
     </g>
    </g>
    <g id="text_7">
     <!-- Global Communication Rounds -->
     <g transform="translate(193.194922 412.914844)scale(0.15 -0.15)">
      <defs>
       <path d="M 3809 666 
L 3809 1919 
L 2778 1919 
L 2778 2438 
L 4434 2438 
L 4434 434 
Q 4069 175 3628 42 
Q 3188 -91 2688 -91 
Q 1594 -91 976 548 
Q 359 1188 359 2328 
Q 359 3472 976 4111 
Q 1594 4750 2688 4750 
Q 3144 4750 3555 4637 
Q 3966 4525 4313 4306 
L 4313 3634 
Q 3963 3931 3569 4081 
Q 3175 4231 2741 4231 
Q 1884 4231 1454 3753 
Q 1025 3275 1025 2328 
Q 1025 1384 1454 906 
Q 1884 428 2741 428 
Q 3075 428 3337 486 
Q 3600 544 3809 666 
z
" id="DejaVuSans-47" transform="scale(0.015625)"/>
       <path d="M 603 4863 
L 1178 4863 
L 1178 0 
L 603 0 
L 603 4863 
z
" id="DejaVuSans-6c" transform="scale(0.015625)"/>
       <path d="M 1959 3097 
Q 1497 3097 1228 2736 
Q 959 2375 959 1747 
Q 959 1119 1226 758 
Q 1494 397 1959 397 
Q 2419 397 2687 759 
Q 2956 1122 2956 1747 
Q 2956 2369 2687 2733 
Q 2419 3097 1959 3097 
z
M 1959 3584 
Q 2709 3584 3137 3096 
Q 3566 2609 3566 1747 
Q 3566 888 3137 398 
Q 2709 -91 1959 -91 
Q 1206 -91 779 398 
Q 353 888 353 1747 
Q 353 2609 779 3096 
Q 1206 3584 1959 3584 
z
" id="DejaVuSans-6f" transform="scale(0.015625)"/>
       <path d="M 3116 1747 
Q 3116 2381 2855 2742 
Q 2594 3103 2138 3103 
Q 1681 3103 1420 2742 
Q 1159 2381 1159 1747 
Q 1159 1113 1420 752 
Q 1681 391 2138 391 
Q 2594 391 2855 752 
Q 3116 1113 3116 1747 
z
M 1159 2969 
Q 1341 3281 1617 3432 
Q 1894 3584 2278 3584 
Q 2916 3584 3314 3078 
Q 3713 2572 3713 1747 
Q 3713 922 3314 415 
Q 2916 -91 2278 -91 
Q 1894 -91 1617 61 
Q 1341 213 1159 525 
L 1159 0 
L 581 0 
L 581 4863 
L 1159 4863 
L 1159 2969 
z
" id="DejaVuSans-62" transform="scale(0.015625)"/>
       <path d="M 2194 1759 
Q 1497 1759 1228 1600 
Q 959 1441 959 1056 
Q 959 750 1161 570 
Q 1363 391 1709 391 
Q 2188 391 2477 730 
Q 2766 1069 2766 1631 
L 2766 1759 
L 2194 1759 
z
M 3341 1997 
L 3341 0 
L 2766 0 
L 2766 531 
Q 2569 213 2275 61 
Q 1981 -91 1556 -91 
Q 1019 -91 701 211 
Q 384 513 384 1019 
Q 384 1609 779 1909 
Q 1175 2209 1959 2209 
L 2766 2209 
L 2766 2266 
Q 2766 2663 2505 2880 
Q 2244 3097 1772 3097 
Q 1472 3097 1187 3025 
Q 903 2953 641 2809 
L 641 3341 
Q 956 3463 1253 3523 
Q 1550 3584 1831 3584 
Q 2591 3584 2966 3190 
Q 3341 2797 3341 1997 
z
" id="DejaVuSans-61" transform="scale(0.015625)"/>
       <path id="DejaVuSans-20" transform="scale(0.015625)"/>
       <path d="M 4122 4306 
L 4122 3641 
Q 3803 3938 3442 4084 
Q 3081 4231 2675 4231 
Q 1875 4231 1450 3742 
Q 1025 3253 1025 2328 
Q 1025 1406 1450 917 
Q 1875 428 2675 428 
Q 3081 428 3442 575 
Q 3803 722 4122 1019 
L 4122 359 
Q 3791 134 3420 21 
Q 3050 -91 2638 -91 
Q 1578 -91 968 557 
Q 359 1206 359 2328 
Q 359 3453 968 4101 
Q 1578 4750 2638 4750 
Q 3056 4750 3426 4639 
Q 3797 4528 4122 4306 
z
" id="DejaVuSans-43" transform="scale(0.015625)"/>
       <path d="M 3328 2828 
Q 3544 3216 3844 3400 
Q 4144 3584 4550 3584 
Q 5097 3584 5394 3201 
Q 5691 2819 5691 2113 
L 5691 0 
L 5113 0 
L 5113 2094 
Q 5113 2597 4934 2840 
Q 4756 3084 4391 3084 
Q 3944 3084 3684 2787 
Q 3425 2491 3425 1978 
L 3425 0 
L 2847 0 
L 2847 2094 
Q 2847 2600 2669 2842 
Q 2491 3084 2119 3084 
Q 1678 3084 1418 2786 
Q 1159 2488 1159 1978 
L 1159 0 
L 581 0 
L 581 3500 
L 1159 3500 
L 1159 2956 
Q 1356 3278 1631 3431 
Q 1906 3584 2284 3584 
Q 2666 3584 2933 3390 
Q 3200 3197 3328 2828 
z
" id="DejaVuSans-6d" transform="scale(0.015625)"/>
       <path d="M 544 1381 
L 544 3500 
L 1119 3500 
L 1119 1403 
Q 1119 906 1312 657 
Q 1506 409 1894 409 
Q 2359 409 2629 706 
Q 2900 1003 2900 1516 
L 2900 3500 
L 3475 3500 
L 3475 0 
L 2900 0 
L 2900 538 
Q 2691 219 2414 64 
Q 2138 -91 1772 -91 
Q 1169 -91 856 284 
Q 544 659 544 1381 
z
M 1991 3584 
L 1991 3584 
z
" id="DejaVuSans-75" transform="scale(0.015625)"/>
       <path d="M 3513 2113 
L 3513 0 
L 2938 0 
L 2938 2094 
Q 2938 2591 2744 2837 
Q 2550 3084 2163 3084 
Q 1697 3084 1428 2787 
Q 1159 2491 1159 1978 
L 1159 0 
L 581 0 
L 581 3500 
L 1159 3500 
L 1159 2956 
Q 1366 3272 1645 3428 
Q 1925 3584 2291 3584 
Q 2894 3584 3203 3211 
Q 3513 2838 3513 2113 
z
" id="DejaVuSans-6e" transform="scale(0.015625)"/>
       <path d="M 603 3500 
L 1178 3500 
L 1178 0 
L 603 0 
L 603 3500 
z
M 603 4863 
L 1178 4863 
L 1178 4134 
L 603 4134 
L 603 4863 
z
" id="DejaVuSans-69" transform="scale(0.015625)"/>
       <path d="M 3122 3366 
L 3122 2828 
Q 2878 2963 2633 3030 
Q 2388 3097 2138 3097 
Q 1578 3097 1268 2742 
Q 959 2388 959 1747 
Q 959 1106 1268 751 
Q 1578 397 2138 397 
Q 2388 397 2633 464 
Q 2878 531 3122 666 
L 3122 134 
Q 2881 22 2623 -34 
Q 2366 -91 2075 -91 
Q 1284 -91 818 406 
Q 353 903 353 1747 
Q 353 2603 823 3093 
Q 1294 3584 2113 3584 
Q 2378 3584 2631 3529 
Q 2884 3475 3122 3366 
z
" id="DejaVuSans-63" transform="scale(0.015625)"/>
       <path d="M 1172 4494 
L 1172 3500 
L 2356 3500 
L 2356 3053 
L 1172 3053 
L 1172 1153 
Q 1172 725 1289 603 
Q 1406 481 1766 481 
L 2356 481 
L 2356 0 
L 1766 0 
Q 1100 0 847 248 
Q 594 497 594 1153 
L 594 3053 
L 172 3053 
L 172 3500 
L 594 3500 
L 594 4494 
L 1172 4494 
z
" id="DejaVuSans-74" transform="scale(0.015625)"/>
       <path d="M 2841 2188 
Q 3044 2119 3236 1894 
Q 3428 1669 3622 1275 
L 4263 0 
L 3584 0 
L 2988 1197 
Q 2756 1666 2539 1819 
Q 2322 1972 1947 1972 
L 1259 1972 
L 1259 0 
L 628 0 
L 628 4666 
L 2053 4666 
Q 2853 4666 3247 4331 
Q 3641 3997 3641 3322 
Q 3641 2881 3436 2590 
Q 3231 2300 2841 2188 
z
M 1259 4147 
L 1259 2491 
L 2053 2491 
Q 2509 2491 2742 2702 
Q 2975 2913 2975 3322 
Q 2975 3731 2742 3939 
Q 2509 4147 2053 4147 
L 1259 4147 
z
" id="DejaVuSans-52" transform="scale(0.015625)"/>
       <path d="M 2906 2969 
L 2906 4863 
L 3481 4863 
L 3481 0 
L 2906 0 
L 2906 525 
Q 2725 213 2448 61 
Q 2172 -91 1784 -91 
Q 1150 -91 751 415 
Q 353 922 353 1747 
Q 353 2572 751 3078 
Q 1150 3584 1784 3584 
Q 2172 3584 2448 3432 
Q 2725 3281 2906 2969 
z
M 947 1747 
Q 947 1113 1208 752 
Q 1469 391 1925 391 
Q 2381 391 2643 752 
Q 2906 1113 2906 1747 
Q 2906 2381 2643 2742 
Q 2381 3103 1925 3103 
Q 1469 3103 1208 2742 
Q 947 2381 947 1747 
z
" id="DejaVuSans-64" transform="scale(0.015625)"/>
       <path d="M 2834 3397 
L 2834 2853 
Q 2591 2978 2328 3040 
Q 2066 3103 1784 3103 
Q 1356 3103 1142 2972 
Q 928 2841 928 2578 
Q 928 2378 1081 2264 
Q 1234 2150 1697 2047 
L 1894 2003 
Q 2506 1872 2764 1633 
Q 3022 1394 3022 966 
Q 3022 478 2636 193 
Q 2250 -91 1575 -91 
Q 1294 -91 989 -36 
Q 684 19 347 128 
L 347 722 
Q 666 556 975 473 
Q 1284 391 1588 391 
Q 1994 391 2212 530 
Q 2431 669 2431 922 
Q 2431 1156 2273 1281 
Q 2116 1406 1581 1522 
L 1381 1569 
Q 847 1681 609 1914 
Q 372 2147 372 2553 
Q 372 3047 722 3315 
Q 1072 3584 1716 3584 
Q 2034 3584 2315 3537 
Q 2597 3491 2834 3397 
z
" id="DejaVuSans-73" transform="scale(0.015625)"/>
      </defs>
      <use xlink:href="#DejaVuSans-47"/>
      <use x="77.490234" xlink:href="#DejaVuSans-6c"/>
      <use x="105.273438" xlink:href="#DejaVuSans-6f"/>
      <use x="166.455078" xlink:href="#DejaVuSans-62"/>
      <use x="229.931641" xlink:href="#DejaVuSans-61"/>
      <use x="291.210938" xlink:href="#DejaVuSans-6c"/>
      <use x="318.994141" xlink:href="#DejaVuSans-20"/>
      <use x="350.78125" xlink:href="#DejaVuSans-43"/>
      <use x="420.605469" xlink:href="#DejaVuSans-6f"/>
      <use x="481.787109" xlink:href="#DejaVuSans-6d"/>
      <use x="579.199219" xlink:href="#DejaVuSans-6d"/>
      <use x="676.611328" xlink:href="#DejaVuSans-75"/>
      <use x="739.990234" xlink:href="#DejaVuSans-6e"/>
      <use x="803.369141" xlink:href="#DejaVuSans-69"/>
      <use x="831.152344" xlink:href="#DejaVuSans-63"/>
      <use x="886.132812" xlink:href="#DejaVuSans-61"/>
      <use x="947.412109" xlink:href="#DejaVuSans-74"/>
      <use x="986.621094" xlink:href="#DejaVuSans-69"/>
      <use x="1014.404297" xlink:href="#DejaVuSans-6f"/>
      <use x="1075.585938" xlink:href="#DejaVuSans-6e"/>
      <use x="1138.964844" xlink:href="#DejaVuSans-20"/>
      <use x="1170.751953" xlink:href="#DejaVuSans-52"/>
      <use x="1235.734375" xlink:href="#DejaVuSans-6f"/>
      <use x="1296.916016" xlink:href="#DejaVuSans-75"/>
      <use x="1360.294922" xlink:href="#DejaVuSans-6e"/>
      <use x="1423.673828" xlink:href="#DejaVuSans-64"/>
      <use x="1487.150391" xlink:href="#DejaVuSans-73"/>
     </g>
    </g>
   </g>
   <g id="matplotlib.axis_2">
    <g id="ytick_1">
     <g id="line2d_7">
      <defs>
       <path d="M 0 0 
L -3.5 0 
" id="m8f09d4982b" style="stroke:#000000;stroke-width:0.8;"/>
      </defs>
      <g>
       <use style="stroke:#000000;stroke-width:0.8;" x="60.77" xlink:href="#m8f09d4982b" y="352.368722"/>
      </g>
     </g>
     <g id="text_8">
      <!-- 10 -->
      <g transform="translate(34.6825 358.06755)scale(0.15 -0.15)">
       <use xlink:href="#DejaVuSans-31"/>
       <use x="63.623047" xlink:href="#DejaVuSans-30"/>
      </g>
     </g>
    </g>
    <g id="ytick_2">
     <g id="line2d_8">
      <g>
       <use style="stroke:#000000;stroke-width:0.8;" x="60.77" xlink:href="#m8f09d4982b" y="309.370723"/>
      </g>
     </g>
     <g id="text_9">
      <!-- 20 -->
      <g transform="translate(34.6825 315.069551)scale(0.15 -0.15)">
       <use xlink:href="#DejaVuSans-32"/>
       <use x="63.623047" xlink:href="#DejaVuSans-30"/>
      </g>
     </g>
    </g>
    <g id="ytick_3">
     <g id="line2d_9">
      <g>
       <use style="stroke:#000000;stroke-width:0.8;" x="60.77" xlink:href="#m8f09d4982b" y="266.372724"/>
      </g>
     </g>
     <g id="text_10">
      <!-- 30 -->
      <g transform="translate(34.6825 272.071552)scale(0.15 -0.15)">
       <use xlink:href="#DejaVuSans-33"/>
       <use x="63.623047" xlink:href="#DejaVuSans-30"/>
      </g>
     </g>
    </g>
    <g id="ytick_4">
     <g id="line2d_10">
      <g>
       <use style="stroke:#000000;stroke-width:0.8;" x="60.77" xlink:href="#m8f09d4982b" y="223.374725"/>
      </g>
     </g>
     <g id="text_11">
      <!-- 40 -->
      <g transform="translate(34.6825 229.073553)scale(0.15 -0.15)">
       <use xlink:href="#DejaVuSans-34"/>
       <use x="63.623047" xlink:href="#DejaVuSans-30"/>
      </g>
     </g>
    </g>
    <g id="ytick_5">
     <g id="line2d_11">
      <g>
       <use style="stroke:#000000;stroke-width:0.8;" x="60.77" xlink:href="#m8f09d4982b" y="180.376725"/>
      </g>
     </g>
     <g id="text_12">
      <!-- 50 -->
      <g transform="translate(34.6825 186.075554)scale(0.15 -0.15)">
       <use xlink:href="#DejaVuSans-35"/>
       <use x="63.623047" xlink:href="#DejaVuSans-30"/>
      </g>
     </g>
    </g>
    <g id="ytick_6">
     <g id="line2d_12">
      <g>
       <use style="stroke:#000000;stroke-width:0.8;" x="60.77" xlink:href="#m8f09d4982b" y="137.378726"/>
      </g>
     </g>
     <g id="text_13">
      <!-- 60 -->
      <g transform="translate(34.6825 143.077555)scale(0.15 -0.15)">
       <defs>
        <path d="M 2113 2584 
Q 1688 2584 1439 2293 
Q 1191 2003 1191 1497 
Q 1191 994 1439 701 
Q 1688 409 2113 409 
Q 2538 409 2786 701 
Q 3034 994 3034 1497 
Q 3034 2003 2786 2293 
Q 2538 2584 2113 2584 
z
M 3366 4563 
L 3366 3988 
Q 3128 4100 2886 4159 
Q 2644 4219 2406 4219 
Q 1781 4219 1451 3797 
Q 1122 3375 1075 2522 
Q 1259 2794 1537 2939 
Q 1816 3084 2150 3084 
Q 2853 3084 3261 2657 
Q 3669 2231 3669 1497 
Q 3669 778 3244 343 
Q 2819 -91 2113 -91 
Q 1303 -91 875 529 
Q 447 1150 447 2328 
Q 447 3434 972 4092 
Q 1497 4750 2381 4750 
Q 2619 4750 2861 4703 
Q 3103 4656 3366 4563 
z
" id="DejaVuSans-36" transform="scale(0.015625)"/>
       </defs>
       <use xlink:href="#DejaVuSans-36"/>
       <use x="63.623047" xlink:href="#DejaVuSans-30"/>
      </g>
     </g>
    </g>
    <g id="ytick_7">
     <g id="line2d_13">
      <g>
       <use style="stroke:#000000;stroke-width:0.8;" x="60.77" xlink:href="#m8f09d4982b" y="94.380727"/>
      </g>
     </g>
     <g id="text_14">
      <!-- 70 -->
      <g transform="translate(34.6825 100.079555)scale(0.15 -0.15)">
       <defs>
        <path d="M 525 4666 
L 3525 4666 
L 3525 4397 
L 1831 0 
L 1172 0 
L 2766 4134 
L 525 4134 
L 525 4666 
z
" id="DejaVuSans-37" transform="scale(0.015625)"/>
       </defs>
       <use xlink:href="#DejaVuSans-37"/>
       <use x="63.623047" xlink:href="#DejaVuSans-30"/>
      </g>
     </g>
    </g>
    <g id="text_15">
     <!-- Test Accuracy -->
     <g transform="translate(27.562969 267.694744)rotate(-90)scale(0.15 -0.15)">
      <defs>
       <path d="M -19 4666 
L 3928 4666 
L 3928 4134 
L 2272 4134 
L 2272 0 
L 1638 0 
L 1638 4134 
L -19 4134 
L -19 4666 
z
" id="DejaVuSans-54" transform="scale(0.015625)"/>
       <path d="M 3597 1894 
L 3597 1613 
L 953 1613 
Q 991 1019 1311 708 
Q 1631 397 2203 397 
Q 2534 397 2845 478 
Q 3156 559 3463 722 
L 3463 178 
Q 3153 47 2828 -22 
Q 2503 -91 2169 -91 
Q 1331 -91 842 396 
Q 353 884 353 1716 
Q 353 2575 817 3079 
Q 1281 3584 2069 3584 
Q 2775 3584 3186 3129 
Q 3597 2675 3597 1894 
z
M 3022 2063 
Q 3016 2534 2758 2815 
Q 2500 3097 2075 3097 
Q 1594 3097 1305 2825 
Q 1016 2553 972 2059 
L 3022 2063 
z
" id="DejaVuSans-65" transform="scale(0.015625)"/>
       <path d="M 2188 4044 
L 1331 1722 
L 3047 1722 
L 2188 4044 
z
M 1831 4666 
L 2547 4666 
L 4325 0 
L 3669 0 
L 3244 1197 
L 1141 1197 
L 716 0 
L 50 0 
L 1831 4666 
z
" id="DejaVuSans-41" transform="scale(0.015625)"/>
       <path d="M 2631 2963 
Q 2534 3019 2420 3045 
Q 2306 3072 2169 3072 
Q 1681 3072 1420 2755 
Q 1159 2438 1159 1844 
L 1159 0 
L 581 0 
L 581 3500 
L 1159 3500 
L 1159 2956 
Q 1341 3275 1631 3429 
Q 1922 3584 2338 3584 
Q 2397 3584 2469 3576 
Q 2541 3569 2628 3553 
L 2631 2963 
z
" id="DejaVuSans-72" transform="scale(0.015625)"/>
       <path d="M 2059 -325 
Q 1816 -950 1584 -1140 
Q 1353 -1331 966 -1331 
L 506 -1331 
L 506 -850 
L 844 -850 
Q 1081 -850 1212 -737 
Q 1344 -625 1503 -206 
L 1606 56 
L 191 3500 
L 800 3500 
L 1894 763 
L 2988 3500 
L 3597 3500 
L 2059 -325 
z
" id="DejaVuSans-79" transform="scale(0.015625)"/>
      </defs>
      <use xlink:href="#DejaVuSans-54"/>
      <use x="44.083984" xlink:href="#DejaVuSans-65"/>
      <use x="105.607422" xlink:href="#DejaVuSans-73"/>
      <use x="157.707031" xlink:href="#DejaVuSans-74"/>
      <use x="196.916016" xlink:href="#DejaVuSans-20"/>
      <use x="228.703125" xlink:href="#DejaVuSans-41"/>
      <use x="295.361328" xlink:href="#DejaVuSans-63"/>
      <use x="350.341797" xlink:href="#DejaVuSans-63"/>
      <use x="405.322266" xlink:href="#DejaVuSans-75"/>
      <use x="468.701172" xlink:href="#DejaVuSans-72"/>
      <use x="509.814453" xlink:href="#DejaVuSans-61"/>
      <use x="571.09375" xlink:href="#DejaVuSans-63"/>
      <use x="626.074219" xlink:href="#DejaVuSans-79"/>
     </g>
    </g>
   </g>
   <g id="line2d_14">
    <path clip-path="url(#p0ab39089ce)" d="M 83.303409 353.892701 
L 92.500719 351.38902 
L 101.698029 329.40017 
L 110.895339 301.968535 
L 120.092648 309.479578 
L 129.289958 299.138287 
L 138.487268 292.49809 
L 147.684578 272.904065 
L 156.881888 264.9576 
L 166.079198 257.446557 
L 175.276507 239.811934 
L 184.473817 248.084967 
L 193.671127 226.749251 
L 202.868437 215.537115 
L 212.065747 211.944877 
L 221.263057 205.848958 
L 230.460366 214.666269 
L 239.657676 194.201399 
L 248.854986 196.922791 
L 258.052296 190.935728 
L 267.249606 194.41911 
L 276.446916 178.635034 
L 285.644225 172.539115 
L 294.841535 163.286382 
L 304.038845 153.271658 
L 313.236155 168.946878 
L 322.433465 154.360215 
L 331.630775 174.716229 
L 340.828084 160.456133 
L 350.025394 161.871258 
L 359.222704 139.338129 
L 368.420014 139.664696 
L 377.617324 132.915643 
L 386.814634 130.194251 
L 396.011943 124.64261 
L 405.209253 126.057734 
L 414.406563 146.522605 
L 423.603873 121.050372 
L 432.801183 128.343704 
L 441.998493 112.77734 
L 451.195802 126.92858 
L 460.393112 128.887982 
L 469.590422 124.207187 
L 478.787732 127.255147 
L 487.985042 111.906494 
L 497.182352 87.087396 
L 506.379661 109.511669 
L 515.576971 119.199826 
L 524.774281 100.36779 
L 533.971591 108.423112 
" style="fill:none;stroke:#1f77b4;stroke-linecap:square;stroke-width:1.5;"/>
   </g>
   <g id="line2d_15">
    <path clip-path="url(#p0ab39089ce)" d="M 83.303409 354.763547 
L 92.500719 345.83738 
L 101.698029 345.401957 
L 110.895339 334.407532 
L 120.092648 330.271016 
L 129.289958 329.073603 
L 138.487268 325.37251 
L 147.684578 324.719375 
L 156.881888 315.466641 
L 166.079198 326.678778 
L 175.276507 311.112414 
L 184.473817 321.235993 
L 193.671127 318.188034 
L 202.868437 315.357786 
L 212.065747 312.527538 
L 221.263057 324.719375 
L 230.460366 303.492515 
L 239.657676 331.577284 
L 248.854986 326.787634 
L 258.052296 312.962961 
L 267.249606 311.003558 
L 276.446916 322.759973 
L 285.644225 302.077391 
L 294.841535 298.267442 
L 304.038845 289.123564 
L 313.236155 302.077391 
L 322.433465 266.917002 
L 331.630775 306.431619 
L 340.828084 313.616095 
L 350.025394 281.830232 
L 359.222704 289.558986 
L 368.420014 291.082966 
L 377.617324 291.409533 
L 386.814634 280.959387 
L 396.011943 267.896703 
L 405.209253 271.053518 
L 414.406563 287.273017 
L 423.603873 261.474217 
L 432.801183 260.494516 
L 441.998493 246.452132 
L 451.195802 256.793423 
L 460.393112 265.393022 
L 469.590422 270.944663 
L 478.787732 283.1365 
L 487.985042 273.992622 
L 497.182352 241.335914 
L 506.379661 246.99641 
L 515.576971 246.343276 
L 524.774281 260.059093 
L 533.971591 252.765762 
" style="fill:none;stroke:#ff7f0e;stroke-linecap:square;stroke-width:1.5;"/>
   </g>
   <g id="line2d_16">
    <path clip-path="url(#p0ab39089ce)" d="M 83.303409 351.715588 
L 92.500719 351.171309 
L 101.698029 329.073603 
L 110.895339 307.629032 
L 120.092648 304.036794 
L 129.289958 301.85968 
L 138.487268 294.566348 
L 147.684578 296.199184 
L 156.881888 275.516602 
L 166.079198 259.405959 
L 175.276507 261.691929 
L 184.473817 254.725164 
L 193.671127 247.214121 
L 202.868437 239.594223 
L 212.065747 235.675418 
L 221.263057 242.533327 
L 230.460366 233.389448 
L 239.657676 234.478005 
L 248.854986 225.878405 
L 258.052296 198.664482 
L 267.249606 186.908067 
L 276.446916 192.677419 
L 285.644225 184.622098 
L 294.841535 179.288169 
L 304.038845 187.234634 
L 313.236155 184.948665 
L 322.433465 173.083394 
L 331.630775 177.764189 
L 340.828084 171.994837 
L 350.025394 159.476432 
L 359.222704 165.136928 
L 368.420014 160.238422 
L 377.617324 168.076032 
L 386.814634 151.638822 
L 396.011943 147.284595 
L 405.209253 161.980113 
L 414.406563 155.775339 
L 423.603873 148.373151 
L 432.801183 139.664696 
L 441.998493 136.507881 
L 451.195802 140.644397 
L 460.393112 150.985688 
L 469.590422 128.670271 
L 478.787732 139.882407 
L 487.985042 139.338129 
L 497.182352 133.568777 
L 506.379661 138.684995 
L 515.576971 132.915643 
L 524.774281 134.983901 
L 533.971591 121.921218 
" style="fill:none;stroke:#2ca02c;stroke-linecap:square;stroke-width:1.5;"/>
   </g>
   <g id="line2d_17">
    <path clip-path="url(#p0ab39089ce)" d="M 83.303409 352.368722 
L 92.500719 352.420319 
L 101.698029 340.200288 
L 110.895339 323.474066 
L 120.092648 308.278573 
L 129.289958 300.151952 
L 138.487268 298.002052 
L 147.684578 292.825093 
L 156.881888 288.198508 
L 166.079198 286.469988 
L 175.276507 284.896262 
L 184.473817 282.797959 
L 193.671127 282.333581 
L 202.868437 279.693504 
L 212.065747 280.656659 
L 221.263057 277.096425 
L 230.460366 275.849483 
L 239.657676 272.46984 
L 248.854986 274.654138 
L 258.052296 269.055799 
L 267.249606 273.011615 
L 276.446916 268.049646 
L 285.644225 267.697062 
L 294.841535 265.082784 
L 304.038845 266.837102 
L 313.236155 266.088937 
L 322.433465 265.865347 
L 331.630775 263.681049 
L 340.828084 264.962389 
L 350.025394 261.969728 
L 359.222704 263.681049 
L 368.420014 262.752292 
L 377.617324 263.130674 
L 386.814634 259.957422 
L 396.011943 257.136753 
L 405.209253 260.095016 
L 414.406563 256.99056 
L 423.603873 259.252255 
L 432.801183 257.807522 
L 441.998493 254.918057 
L 451.195802 256.027405 
L 460.393112 252.965947 
L 469.590422 253.12074 
L 478.787732 252.312378 
L 487.985042 254.324684 
L 497.182352 251.160031 
L 506.379661 251.693207 
L 515.576971 251.228828 
L 524.774281 250.781649 
L 533.971591 250.506462 
" style="fill:none;stroke:#d62728;stroke-linecap:square;stroke-width:1.5;"/>
   </g>
   <g id="patch_3">
    <path d="M 60.77 376 
L 60.77 56.601989 
" style="fill:none;stroke:#000000;stroke-linecap:square;stroke-linejoin:miter;stroke-width:0.8;"/>
   </g>
   <g id="patch_4">
    <path d="M 556.505 376 
L 556.505 56.601989 
" style="fill:none;stroke:#000000;stroke-linecap:square;stroke-linejoin:miter;stroke-width:0.8;"/>
   </g>
   <g id="patch_5">
    <path d="M 60.77 376 
L 556.505 376 
" style="fill:none;stroke:#000000;stroke-linecap:square;stroke-linejoin:miter;stroke-width:0.8;"/>
   </g>
   <g id="patch_6">
    <path d="M 60.77 56.601989 
L 556.505 56.601989 
" style="fill:none;stroke:#000000;stroke-linecap:square;stroke-linejoin:miter;stroke-width:0.8;"/>
   </g>
   <g id="legend_1">
    <g id="patch_7">
     <path d="M 59.039844 42.709474 
L 558.235156 42.709474 
Q 561.235156 42.709474 561.235156 39.709474 
L 561.235156 19.192287 
Q 561.235156 16.192287 558.235156 16.192287 
L 59.039844 16.192287 
Q 56.039844 16.192287 56.039844 19.192287 
L 56.039844 39.709474 
Q 56.039844 42.709474 59.039844 42.709474 
z
" style="fill:#ffffff;opacity:0.8;stroke:#cccccc;stroke-linejoin:miter;"/>
    </g>
    <g id="line2d_18">
     <path d="M 62.039844 28.339943 
L 92.039844 28.339943 
" style="fill:none;stroke:#1f77b4;stroke-linecap:square;stroke-width:1.5;"/>
    </g>
    <g id="line2d_19"/>
    <g id="text_16">
     <!-- FedAvg -->
     <g transform="translate(104.039844 33.589943)scale(0.15 -0.15)">
      <defs>
       <path d="M 628 4666 
L 3309 4666 
L 3309 4134 
L 1259 4134 
L 1259 2759 
L 3109 2759 
L 3109 2228 
L 1259 2228 
L 1259 0 
L 628 0 
L 628 4666 
z
" id="DejaVuSans-46" transform="scale(0.015625)"/>
       <path d="M 191 3500 
L 800 3500 
L 1894 563 
L 2988 3500 
L 3597 3500 
L 2284 0 
L 1503 0 
L 191 3500 
z
" id="DejaVuSans-76" transform="scale(0.015625)"/>
       <path d="M 2906 1791 
Q 2906 2416 2648 2759 
Q 2391 3103 1925 3103 
Q 1463 3103 1205 2759 
Q 947 2416 947 1791 
Q 947 1169 1205 825 
Q 1463 481 1925 481 
Q 2391 481 2648 825 
Q 2906 1169 2906 1791 
z
M 3481 434 
Q 3481 -459 3084 -895 
Q 2688 -1331 1869 -1331 
Q 1566 -1331 1297 -1286 
Q 1028 -1241 775 -1147 
L 775 -588 
Q 1028 -725 1275 -790 
Q 1522 -856 1778 -856 
Q 2344 -856 2625 -561 
Q 2906 -266 2906 331 
L 2906 616 
Q 2728 306 2450 153 
Q 2172 0 1784 0 
Q 1141 0 747 490 
Q 353 981 353 1791 
Q 353 2603 747 3093 
Q 1141 3584 1784 3584 
Q 2172 3584 2450 3431 
Q 2728 3278 2906 2969 
L 2906 3500 
L 3481 3500 
L 3481 434 
z
" id="DejaVuSans-67" transform="scale(0.015625)"/>
      </defs>
      <use xlink:href="#DejaVuSans-46"/>
      <use x="52.019531" xlink:href="#DejaVuSans-65"/>
      <use x="113.542969" xlink:href="#DejaVuSans-64"/>
      <use x="177.019531" xlink:href="#DejaVuSans-41"/>
      <use x="239.552734" xlink:href="#DejaVuSans-76"/>
      <use x="298.732422" xlink:href="#DejaVuSans-67"/>
     </g>
    </g>
    <g id="line2d_20">
     <path d="M 188.375 28.339943 
L 218.375 28.339943 
" style="fill:none;stroke:#ff7f0e;stroke-linecap:square;stroke-width:1.5;"/>
    </g>
    <g id="line2d_21"/>
    <g id="text_17">
     <!-- FedMed -->
     <g transform="translate(230.375 33.589943)scale(0.15 -0.15)">
      <defs>
       <path d="M 628 4666 
L 1569 4666 
L 2759 1491 
L 3956 4666 
L 4897 4666 
L 4897 0 
L 4281 0 
L 4281 4097 
L 3078 897 
L 2444 897 
L 1241 4097 
L 1241 0 
L 628 0 
L 628 4666 
z
" id="DejaVuSans-4d" transform="scale(0.015625)"/>
      </defs>
      <use xlink:href="#DejaVuSans-46"/>
      <use x="52.019531" xlink:href="#DejaVuSans-65"/>
      <use x="113.542969" xlink:href="#DejaVuSans-64"/>
      <use x="177.019531" xlink:href="#DejaVuSans-4d"/>
      <use x="263.298828" xlink:href="#DejaVuSans-65"/>
      <use x="324.822266" xlink:href="#DejaVuSans-64"/>
     </g>
    </g>
    <g id="line2d_22">
     <path d="M 318.624219 28.339943 
L 348.624219 28.339943 
" style="fill:none;stroke:#2ca02c;stroke-linecap:square;stroke-width:1.5;"/>
    </g>
    <g id="line2d_23"/>
    <g id="text_18">
     <!-- FedProx -->
     <g transform="translate(360.624219 33.589943)scale(0.15 -0.15)">
      <defs>
       <path d="M 1259 4147 
L 1259 2394 
L 2053 2394 
Q 2494 2394 2734 2622 
Q 2975 2850 2975 3272 
Q 2975 3691 2734 3919 
Q 2494 4147 2053 4147 
L 1259 4147 
z
M 628 4666 
L 2053 4666 
Q 2838 4666 3239 4311 
Q 3641 3956 3641 3272 
Q 3641 2581 3239 2228 
Q 2838 1875 2053 1875 
L 1259 1875 
L 1259 0 
L 628 0 
L 628 4666 
z
" id="DejaVuSans-50" transform="scale(0.015625)"/>
       <path d="M 3513 3500 
L 2247 1797 
L 3578 0 
L 2900 0 
L 1881 1375 
L 863 0 
L 184 0 
L 1544 1831 
L 300 3500 
L 978 3500 
L 1906 2253 
L 2834 3500 
L 3513 3500 
z
" id="DejaVuSans-78" transform="scale(0.015625)"/>
      </defs>
      <use xlink:href="#DejaVuSans-46"/>
      <use x="52.019531" xlink:href="#DejaVuSans-65"/>
      <use x="113.542969" xlink:href="#DejaVuSans-64"/>
      <use x="177.019531" xlink:href="#DejaVuSans-50"/>
      <use x="235.572266" xlink:href="#DejaVuSans-72"/>
      <use x="274.435547" xlink:href="#DejaVuSans-6f"/>
      <use x="332.492188" xlink:href="#DejaVuSans-78"/>
     </g>
    </g>
    <g id="line2d_24">
     <path d="M 449.377344 28.339943 
L 479.377344 28.339943 
" style="fill:none;stroke:#d62728;stroke-linecap:square;stroke-width:1.5;"/>
    </g>
    <g id="line2d_25"/>
    <g id="text_19">
     <!-- qFedAvg -->
     <g transform="translate(491.377344 33.589943)scale(0.15 -0.15)">
      <defs>
       <path d="M 947 1747 
Q 947 1113 1208 752 
Q 1469 391 1925 391 
Q 2381 391 2643 752 
Q 2906 1113 2906 1747 
Q 2906 2381 2643 2742 
Q 2381 3103 1925 3103 
Q 1469 3103 1208 2742 
Q 947 2381 947 1747 
z
M 2906 525 
Q 2725 213 2448 61 
Q 2172 -91 1784 -91 
Q 1150 -91 751 415 
Q 353 922 353 1747 
Q 353 2572 751 3078 
Q 1150 3584 1784 3584 
Q 2172 3584 2448 3432 
Q 2725 3281 2906 2969 
L 2906 3500 
L 3481 3500 
L 3481 -1331 
L 2906 -1331 
L 2906 525 
z
" id="DejaVuSans-71" transform="scale(0.015625)"/>
      </defs>
      <use xlink:href="#DejaVuSans-71"/>
      <use x="63.476562" xlink:href="#DejaVuSans-46"/>
      <use x="115.496094" xlink:href="#DejaVuSans-65"/>
      <use x="177.019531" xlink:href="#DejaVuSans-64"/>
      <use x="240.496094" xlink:href="#DejaVuSans-41"/>
      <use x="303.029297" xlink:href="#DejaVuSans-76"/>
      <use x="362.208984" xlink:href="#DejaVuSans-67"/>
     </g>
    </g>
   </g>
  </g>
 </g>
 <defs>
  <clipPath id="p0ab39089ce">
   <rect height="319.398011" width="495.735" x="60.77" y="56.601989"/>
  </clipPath>
 </defs>
</svg>
