<?xml version="1.0" encoding="utf-8" standalone="no"?>
<!DOCTYPE svg PUBLIC "-//W3C//DTD SVG 1.1//EN"
  "http://www.w3.org/Graphics/SVG/1.1/DTD/svg11.dtd">
<svg height="432pt" version="1.1" viewBox="0 0 576 432" width="576pt" xmlns="http://www.w3.org/2000/svg" xmlns:xlink="http://www.w3.org/1999/xlink">
 <metadata>
  <rdf:RDF xmlns:cc="http://creativecommons.org/ns#" xmlns:dc="http://purl.org/dc/elements/1.1/" xmlns:rdf="http://www.w3.org/1999/02/22-rdf-syntax-ns#">
   <cc:Work>
    <dc:type rdf:resource="http://purl.org/dc/dcmitype/StillImage"/>
    <dc:date>2021-05-07T22:04:40.432391</dc:date>
    <dc:format>image/svg+xml</dc:format>
    <dc:creator>
     <cc:Agent>
      <dc:title>Matplotlib v3.4.1, https://matplotlib.org/</dc:title>
     </cc:Agent>
    </dc:creator>
   </cc:Work>
  </rdf:RDF>
 </metadata>
 <defs>
  <style type="text/css">*{stroke-linecap:butt;stroke-linejoin:round;}</style>
 </defs>
 <g id="figure_1">
  <g id="patch_1">
   <path d="M 0 432 
L 576 432 
L 576 0 
L 0 0 
z
" style="fill:#ffffff;"/>
  </g>
  <g id="axes_1">
   <g id="patch_2">
    <path d="M 60.68 376 
L 556.55 376 
L 556.55 56.601989 
L 60.68 56.601989 
z
" style="fill:#ffffff;"/>
   </g>
   <g id="PolyCollection_1">
    <path clip-path="url(#p8e0088f014)" d="M 83.219545 333.348506 
L 83.219545 360.986023 
L 92.41936 348.0711 
L 101.619174 318.24685 
L 110.818989 336.575376 
L 120.018803 349.775578 
L 129.218618 308.127936 
L 138.418432 299.840751 
L 147.618247 281.736366 
L 156.818061 255.763107 
L 166.017876 305.79387 
L 175.21769 252.311813 
L 184.417505 298.226429 
L 193.617319 289.378075 
L 202.817134 234.224253 
L 212.016948 246.060081 
L 221.216763 269.903813 
L 230.416577 262.22274 
L 239.616391 265.012842 
L 248.816206 239.519125 
L 258.01602 255.414461 
L 267.215835 261.139019 
L 276.415649 245.971092 
L 285.615464 231.252138 
L 294.815278 261.144719 
L 304.015093 230.417732 
L 313.214907 236.224818 
L 322.414722 213.769073 
L 331.614536 238.322014 
L 340.814351 264.99191 
L 350.014165 224.285829 
L 359.21398 209.493704 
L 368.413794 186.213156 
L 377.613609 200.932997 
L 386.813423 213.041064 
L 396.013237 174.224064 
L 405.213052 161.076755 
L 414.412866 217.005745 
L 423.612681 193.262328 
L 432.812495 165.947765 
L 442.01231 185.73088 
L 451.212124 186.957527 
L 460.411939 184.167352 
L 469.611753 192.107825 
L 478.811568 173.468804 
L 488.011382 177.942523 
L 497.211197 131.059246 
L 506.411011 208.502205 
L 515.610826 135.015102 
L 524.81064 163.026794 
L 534.010455 144.975806 
L 534.010455 85.8544 
L 534.010455 85.8544 
L 524.81064 71.12008 
L 515.610826 112.398443 
L 506.411011 106.903029 
L 497.211197 88.99179 
L 488.011382 113.002286 
L 478.811568 116.232255 
L 469.611753 134.491163 
L 460.411939 135.383717 
L 451.212124 113.108119 
L 442.01231 136.722273 
L 432.812495 129.972046 
L 423.612681 156.967918 
L 414.412866 148.978673 
L 405.213052 131.111804 
L 396.013237 129.158249 
L 386.813423 157.089188 
L 377.613609 159.247252 
L 368.413794 133.337913 
L 359.21398 156.905298 
L 350.014165 163.671513 
L 340.814351 151.571692 
L 331.614536 162.901999 
L 322.414722 154.288263 
L 313.214907 160.438777 
L 304.015093 153.808359 
L 294.815278 139.250127 
L 285.615464 192.773967 
L 276.415649 166.446676 
L 267.215835 201.857932 
L 258.01602 199.290821 
L 248.816206 192.384065 
L 239.616391 202.129944 
L 230.416577 191.653374 
L 221.216763 204.286892 
L 212.016948 208.230617 
L 202.817134 185.656016 
L 193.617319 198.079301 
L 184.417505 229.445544 
L 175.21769 216.489306 
L 166.017876 250.069779 
L 156.818061 248.277608 
L 147.618247 224.79185 
L 138.418432 250.218729 
L 129.218618 269.294054 
L 120.018803 280.298513 
L 110.818989 289.35288 
L 101.619174 288.195982 
L 92.41936 318.071753 
L 83.219545 333.348506 
z
" style="fill:#1f77b4;fill-opacity:0.5;"/>
   </g>
   <g id="PolyCollection_2">
    <path clip-path="url(#p8e0088f014)" d="M 83.219545 315.196715 
L 83.219545 356.750307 
L 92.41936 352.345571 
L 101.619174 361.481909 
L 110.818989 338.422591 
L 120.018803 351.543289 
L 129.218618 339.181665 
L 138.418432 332.716715 
L 147.618247 339.532342 
L 156.818061 313.622037 
L 166.017876 352.227732 
L 175.21769 300.46758 
L 184.417505 326.868376 
L 193.617319 330.947221 
L 202.817134 289.970799 
L 212.016948 304.051485 
L 221.216763 301.071962 
L 230.416577 308.388078 
L 239.616391 347.436862 
L 248.816206 316.940083 
L 258.01602 293.690854 
L 267.215835 318.730941 
L 276.415649 326.265907 
L 285.615464 271.152605 
L 294.815278 314.910993 
L 304.015093 298.513674 
L 313.214907 317.906927 
L 322.414722 288.595684 
L 331.614536 331.330347 
L 340.814351 314.758577 
L 350.014165 280.753043 
L 359.21398 300.4195 
L 368.413794 294.027259 
L 377.613609 251.961372 
L 386.813423 255.859854 
L 396.013237 251.291909 
L 405.213052 214.009063 
L 414.412866 314.155892 
L 423.612681 246.606543 
L 432.812495 231.197771 
L 442.01231 208.795162 
L 451.212124 214.442172 
L 460.411939 254.064739 
L 469.611753 293.058666 
L 478.811568 311.758454 
L 488.011382 294.659639 
L 497.211197 197.665187 
L 506.411011 238.894694 
L 515.610826 235.152792 
L 524.81064 304.062748 
L 534.010455 245.862738 
L 534.010455 160.750861 
L 534.010455 160.750861 
L 524.81064 127.425859 
L 515.610826 148.658716 
L 506.411011 154.03765 
L 497.211197 152.565059 
L 488.011382 151.753973 
L 478.811568 174.040588 
L 469.611753 174.913287 
L 460.411939 163.742613 
L 451.212124 138.690159 
L 442.01231 171.285094 
L 432.812495 165.051241 
L 423.612681 202.29457 
L 414.412866 166.253565 
L 405.213052 169.387861 
L 396.013237 188.902951 
L 386.813423 220.818352 
L 377.613609 215.595997 
L 368.413794 180.992613 
L 359.21398 173.771204 
L 350.014165 179.341824 
L 340.814351 243.592573 
L 331.614536 220.802051 
L 322.414722 199.276275 
L 313.214907 208.521295 
L 304.015093 203.868707 
L 294.815278 218.565148 
L 285.615464 222.10894 
L 276.415649 225.866491 
L 267.215835 206.038947 
L 258.01602 240.614454 
L 248.816206 227.315229 
L 239.616391 234.960129 
L 230.416577 203.944306 
L 221.216763 225.356261 
L 212.016948 256.372583 
L 202.817134 231.067839 
L 193.617319 255.595605 
L 184.417505 231.068191 
L 175.21769 252.493984 
L 166.017876 280.748443 
L 156.818061 237.26661 
L 147.618247 254.472987 
L 138.418432 271.6532 
L 129.218618 301.671596 
L 120.018803 312.112063 
L 110.818989 293.724417 
L 101.619174 298.027609 
L 92.41936 287.678523 
L 83.219545 315.196715 
z
" style="fill:#ff7f0e;fill-opacity:0.5;"/>
   </g>
   <g id="PolyCollection_3">
    <path clip-path="url(#p8e0088f014)" d="M 83.219545 338.565507 
L 83.219545 351.208604 
L 92.41936 346.321893 
L 101.619174 352.781218 
L 110.818989 341.141289 
L 120.018803 329.985444 
L 129.218618 319.280079 
L 138.418432 295.764044 
L 147.618247 328.929478 
L 156.818061 305.969873 
L 166.017876 311.37295 
L 175.21769 275.863262 
L 184.417505 291.500172 
L 193.617319 272.54632 
L 202.817134 279.666241 
L 212.016948 276.680992 
L 221.216763 295.334067 
L 230.416577 241.925181 
L 239.616391 212.037707 
L 248.816206 262.949042 
L 258.01602 258.129996 
L 267.215835 228.416363 
L 276.415649 252.594354 
L 285.615464 249.149258 
L 294.815278 245.87401 
L 304.015093 239.599748 
L 313.214907 230.785848 
L 322.414722 207.237075 
L 331.614536 206.423084 
L 340.814351 215.853652 
L 350.014165 259.658041 
L 359.21398 228.926662 
L 368.413794 202.569018 
L 377.613609 203.438824 
L 386.813423 211.184882 
L 396.013237 236.705879 
L 405.213052 225.155211 
L 414.412866 211.834814 
L 423.612681 226.723962 
L 432.812495 231.592007 
L 442.01231 209.93942 
L 451.212124 196.988138 
L 460.411939 216.545316 
L 469.611753 206.88478 
L 478.811568 213.369859 
L 488.011382 188.278004 
L 497.211197 213.333582 
L 506.411011 205.006912 
L 515.610826 206.321151 
L 524.81064 183.519304 
L 534.010455 193.141785 
L 534.010455 115.21553 
L 534.010455 115.21553 
L 524.81064 97.475502 
L 515.610826 87.940326 
L 506.411011 129.883746 
L 497.211197 116.996657 
L 488.011382 113.860559 
L 478.811568 123.179132 
L 469.611753 120.128792 
L 460.411939 153.999521 
L 451.212124 130.854601 
L 442.01231 149.826246 
L 432.812495 77.594475 
L 423.612681 119.360449 
L 414.412866 133.42043 
L 405.213052 175.239636 
L 396.013237 115.182701 
L 386.813423 124.949526 
L 377.613609 149.278923 
L 368.413794 152.63623 
L 359.21398 131.668171 
L 350.014165 224.89725 
L 340.814351 172.518274 
L 331.614536 138.002993 
L 322.414722 139.676503 
L 313.214907 184.948587 
L 304.015093 163.282599 
L 294.815278 152.033336 
L 285.615464 200.581021 
L 276.415649 198.79426 
L 267.215835 165.345148 
L 258.01602 209.012789 
L 248.816206 197.560408 
L 239.616391 185.869639 
L 230.416577 185.832175 
L 221.216763 211.608732 
L 212.016948 209.947217 
L 202.817134 204.474467 
L 193.617319 219.886058 
L 184.417505 225.39263 
L 175.21769 226.519119 
L 166.017876 249.880284 
L 156.818061 249.06461 
L 147.618247 262.58835 
L 138.418432 253.880853 
L 129.218618 277.627334 
L 120.018803 278.530306 
L 110.818989 299.711972 
L 101.619174 315.019969 
L 92.41936 319.82096 
L 83.219545 338.565507 
z
" style="fill:#2ca02c;fill-opacity:0.5;"/>
   </g>
   <g id="PolyCollection_4">
    <path clip-path="url(#p8e0088f014)" d="M 83.219545 350.069349 
L 83.219545 350.069349 
L 92.41936 350.085725 
L 101.619174 351.889741 
L 110.818989 354.167877 
L 120.018803 335.436794 
L 129.218618 327.960272 
L 138.418432 319.172511 
L 147.618247 298.810286 
L 156.818061 292.286642 
L 166.017876 268.481064 
L 175.21769 262.939735 
L 184.417505 256.941968 
L 193.617319 257.510453 
L 202.817134 244.653655 
L 212.016948 241.494801 
L 221.216763 255.313556 
L 230.416577 246.399206 
L 239.616391 236.893001 
L 248.816206 229.162709 
L 258.01602 229.994794 
L 267.215835 225.468607 
L 276.415649 222.72714 
L 285.615464 216.666972 
L 294.815278 212.016077 
L 304.015093 221.294882 
L 313.214907 206.051335 
L 322.414722 203.8302 
L 331.614536 207.381844 
L 340.814351 199.918003 
L 350.014165 195.760228 
L 359.21398 192.58365 
L 368.413794 188.675924 
L 377.613609 192.179972 
L 386.813423 180.404179 
L 396.013237 185.378421 
L 405.213052 190.761852 
L 414.412866 181.412843 
L 423.612681 173.689282 
L 432.812495 172.578379 
L 442.01231 181.036821 
L 451.212124 181.480293 
L 460.411939 158.504327 
L 469.611753 164.3659 
L 478.811568 167.526925 
L 488.011382 167.998288 
L 497.211197 154.60555 
L 506.411011 162.129793 
L 515.610826 157.7659 
L 524.81064 154.298975 
L 534.010455 156.609572 
L 534.010455 133.4074 
L 534.010455 133.4074 
L 524.81064 119.538462 
L 515.610826 120.362062 
L 506.411011 119.502643 
L 497.211197 133.544552 
L 488.011382 136.462357 
L 478.811568 139.029855 
L 469.611753 131.644705 
L 460.411939 142.779365 
L 451.212124 136.637975 
L 442.01231 137.343465 
L 432.812495 137.8759 
L 423.612681 137.420038 
L 414.412866 142.273282 
L 405.213052 159.027692 
L 396.013237 157.467679 
L 386.813423 159.035703 
L 377.613609 160.098731 
L 368.413794 158.460701 
L 359.21398 153.046378 
L 350.014165 169.750321 
L 340.814351 166.345844 
L 331.614536 178.205739 
L 322.414722 169.278836 
L 313.214907 177.702131 
L 304.015093 183.092403 
L 294.815278 181.956042 
L 285.615464 173.276639 
L 276.415649 186.638463 
L 267.215835 186.877438 
L 258.01602 195.48484 
L 248.816206 193.467493 
L 239.616391 188.160856 
L 230.416577 194.277399 
L 221.216763 199.446451 
L 212.016948 201.310691 
L 202.817134 205.717571 
L 193.617319 202.686401 
L 184.417505 216.29022 
L 175.21769 222.083207 
L 166.017876 235.931117 
L 156.818061 225.521146 
L 147.618247 253.747474 
L 138.418432 246.649848 
L 129.218618 272.93958 
L 120.018803 285.179818 
L 110.818989 306.24253 
L 101.619174 331.25062 
L 92.41936 350.020221 
L 83.219545 350.069349 
z
" style="fill:#d62728;fill-opacity:0.5;"/>
   </g>
   <g id="matplotlib.axis_1">
    <g id="xtick_1">
     <g id="line2d_1">
      <defs>
       <path d="M 0 0 
L 0 3.5 
" id="m9cc9de1991" style="stroke:#000000;stroke-width:0.8;"/>
      </defs>
      <g>
       <use style="stroke:#000000;stroke-width:0.8;" x="83.219545" xlink:href="#m9cc9de1991" y="376"/>
      </g>
     </g>
     <g id="text_1">
      <!-- 0 -->
      <g transform="translate(78.44767 394.397656)scale(0.15 -0.15)">
       <defs>
        <path d="M 2034 4250 
Q 1547 4250 1301 3770 
Q 1056 3291 1056 2328 
Q 1056 1369 1301 889 
Q 1547 409 2034 409 
Q 2525 409 2770 889 
Q 3016 1369 3016 2328 
Q 3016 3291 2770 3770 
Q 2525 4250 2034 4250 
z
M 2034 4750 
Q 2819 4750 3233 4129 
Q 3647 3509 3647 2328 
Q 3647 1150 3233 529 
Q 2819 -91 2034 -91 
Q 1250 -91 836 529 
Q 422 1150 422 2328 
Q 422 3509 836 4129 
Q 1250 4750 2034 4750 
z
" id="DejaVuSans-30" transform="scale(0.015625)"/>
       </defs>
       <use xlink:href="#DejaVuSans-30"/>
      </g>
     </g>
    </g>
    <g id="xtick_2">
     <g id="line2d_2">
      <g>
       <use style="stroke:#000000;stroke-width:0.8;" x="175.21769" xlink:href="#m9cc9de1991" y="376"/>
      </g>
     </g>
     <g id="text_2">
      <!-- 10 -->
      <g transform="translate(165.67394 394.397656)scale(0.15 -0.15)">
       <defs>
        <path d="M 794 531 
L 1825 531 
L 1825 4091 
L 703 3866 
L 703 4441 
L 1819 4666 
L 2450 4666 
L 2450 531 
L 3481 531 
L 3481 0 
L 794 0 
L 794 531 
z
" id="DejaVuSans-31" transform="scale(0.015625)"/>
       </defs>
       <use xlink:href="#DejaVuSans-31"/>
       <use x="63.623047" xlink:href="#DejaVuSans-30"/>
      </g>
     </g>
    </g>
    <g id="xtick_3">
     <g id="line2d_3">
      <g>
       <use style="stroke:#000000;stroke-width:0.8;" x="267.215835" xlink:href="#m9cc9de1991" y="376"/>
      </g>
     </g>
     <g id="text_3">
      <!-- 20 -->
      <g transform="translate(257.672085 394.397656)scale(0.15 -0.15)">
       <defs>
        <path d="M 1228 531 
L 3431 531 
L 3431 0 
L 469 0 
L 469 531 
Q 828 903 1448 1529 
Q 2069 2156 2228 2338 
Q 2531 2678 2651 2914 
Q 2772 3150 2772 3378 
Q 2772 3750 2511 3984 
Q 2250 4219 1831 4219 
Q 1534 4219 1204 4116 
Q 875 4013 500 3803 
L 500 4441 
Q 881 4594 1212 4672 
Q 1544 4750 1819 4750 
Q 2544 4750 2975 4387 
Q 3406 4025 3406 3419 
Q 3406 3131 3298 2873 
Q 3191 2616 2906 2266 
Q 2828 2175 2409 1742 
Q 1991 1309 1228 531 
z
" id="DejaVuSans-32" transform="scale(0.015625)"/>
       </defs>
       <use xlink:href="#DejaVuSans-32"/>
       <use x="63.623047" xlink:href="#DejaVuSans-30"/>
      </g>
     </g>
    </g>
    <g id="xtick_4">
     <g id="line2d_4">
      <g>
       <use style="stroke:#000000;stroke-width:0.8;" x="359.21398" xlink:href="#m9cc9de1991" y="376"/>
      </g>
     </g>
     <g id="text_4">
      <!-- 30 -->
      <g transform="translate(349.67023 394.397656)scale(0.15 -0.15)">
       <defs>
        <path d="M 2597 2516 
Q 3050 2419 3304 2112 
Q 3559 1806 3559 1356 
Q 3559 666 3084 287 
Q 2609 -91 1734 -91 
Q 1441 -91 1130 -33 
Q 819 25 488 141 
L 488 750 
Q 750 597 1062 519 
Q 1375 441 1716 441 
Q 2309 441 2620 675 
Q 2931 909 2931 1356 
Q 2931 1769 2642 2001 
Q 2353 2234 1838 2234 
L 1294 2234 
L 1294 2753 
L 1863 2753 
Q 2328 2753 2575 2939 
Q 2822 3125 2822 3475 
Q 2822 3834 2567 4026 
Q 2313 4219 1838 4219 
Q 1578 4219 1281 4162 
Q 984 4106 628 3988 
L 628 4550 
Q 988 4650 1302 4700 
Q 1616 4750 1894 4750 
Q 2613 4750 3031 4423 
Q 3450 4097 3450 3541 
Q 3450 3153 3228 2886 
Q 3006 2619 2597 2516 
z
" id="DejaVuSans-33" transform="scale(0.015625)"/>
       </defs>
       <use xlink:href="#DejaVuSans-33"/>
       <use x="63.623047" xlink:href="#DejaVuSans-30"/>
      </g>
     </g>
    </g>
    <g id="xtick_5">
     <g id="line2d_5">
      <g>
       <use style="stroke:#000000;stroke-width:0.8;" x="451.212124" xlink:href="#m9cc9de1991" y="376"/>
      </g>
     </g>
     <g id="text_5">
      <!-- 40 -->
      <g transform="translate(441.668374 394.397656)scale(0.15 -0.15)">
       <defs>
        <path d="M 2419 4116 
L 825 1625 
L 2419 1625 
L 2419 4116 
z
M 2253 4666 
L 3047 4666 
L 3047 1625 
L 3713 1625 
L 3713 1100 
L 3047 1100 
L 3047 0 
L 2419 0 
L 2419 1100 
L 313 1100 
L 313 1709 
L 2253 4666 
z
" id="DejaVuSans-34" transform="scale(0.015625)"/>
       </defs>
       <use xlink:href="#DejaVuSans-34"/>
       <use x="63.623047" xlink:href="#DejaVuSans-30"/>
      </g>
     </g>
    </g>
    <g id="xtick_6">
     <g id="line2d_6">
      <g>
       <use style="stroke:#000000;stroke-width:0.8;" x="543.210269" xlink:href="#m9cc9de1991" y="376"/>
      </g>
     </g>
     <g id="text_6">
      <!-- 50 -->
      <g transform="translate(533.666519 394.397656)scale(0.15 -0.15)">
       <defs>
        <path d="M 691 4666 
L 3169 4666 
L 3169 4134 
L 1269 4134 
L 1269 2991 
Q 1406 3038 1543 3061 
Q 1681 3084 1819 3084 
Q 2600 3084 3056 2656 
Q 3513 2228 3513 1497 
Q 3513 744 3044 326 
Q 2575 -91 1722 -91 
Q 1428 -91 1123 -41 
Q 819 9 494 109 
L 494 744 
Q 775 591 1075 516 
Q 1375 441 1709 441 
Q 2250 441 2565 725 
Q 2881 1009 2881 1497 
Q 2881 1984 2565 2268 
Q 2250 2553 1709 2553 
Q 1456 2553 1204 2497 
Q 953 2441 691 2322 
L 691 4666 
z
" id="DejaVuSans-35" transform="scale(0.015625)"/>
       </defs>
       <use xlink:href="#DejaVuSans-35"/>
       <use x="63.623047" xlink:href="#DejaVuSans-30"/>
      </g>
     </g>
    </g>
    <g id="text_7">
     <!-- Global Communication Rounds -->
     <g transform="translate(193.172422 412.914844)scale(0.15 -0.15)">
      <defs>
       <path d="M 3809 666 
L 3809 1919 
L 2778 1919 
L 2778 2438 
L 4434 2438 
L 4434 434 
Q 4069 175 3628 42 
Q 3188 -91 2688 -91 
Q 1594 -91 976 548 
Q 359 1188 359 2328 
Q 359 3472 976 4111 
Q 1594 4750 2688 4750 
Q 3144 4750 3555 4637 
Q 3966 4525 4313 4306 
L 4313 3634 
Q 3963 3931 3569 4081 
Q 3175 4231 2741 4231 
Q 1884 4231 1454 3753 
Q 1025 3275 1025 2328 
Q 1025 1384 1454 906 
Q 1884 428 2741 428 
Q 3075 428 3337 486 
Q 3600 544 3809 666 
z
" id="DejaVuSans-47" transform="scale(0.015625)"/>
       <path d="M 603 4863 
L 1178 4863 
L 1178 0 
L 603 0 
L 603 4863 
z
" id="DejaVuSans-6c" transform="scale(0.015625)"/>
       <path d="M 1959 3097 
Q 1497 3097 1228 2736 
Q 959 2375 959 1747 
Q 959 1119 1226 758 
Q 1494 397 1959 397 
Q 2419 397 2687 759 
Q 2956 1122 2956 1747 
Q 2956 2369 2687 2733 
Q 2419 3097 1959 3097 
z
M 1959 3584 
Q 2709 3584 3137 3096 
Q 3566 2609 3566 1747 
Q 3566 888 3137 398 
Q 2709 -91 1959 -91 
Q 1206 -91 779 398 
Q 353 888 353 1747 
Q 353 2609 779 3096 
Q 1206 3584 1959 3584 
z
" id="DejaVuSans-6f" transform="scale(0.015625)"/>
       <path d="M 3116 1747 
Q 3116 2381 2855 2742 
Q 2594 3103 2138 3103 
Q 1681 3103 1420 2742 
Q 1159 2381 1159 1747 
Q 1159 1113 1420 752 
Q 1681 391 2138 391 
Q 2594 391 2855 752 
Q 3116 1113 3116 1747 
z
M 1159 2969 
Q 1341 3281 1617 3432 
Q 1894 3584 2278 3584 
Q 2916 3584 3314 3078 
Q 3713 2572 3713 1747 
Q 3713 922 3314 415 
Q 2916 -91 2278 -91 
Q 1894 -91 1617 61 
Q 1341 213 1159 525 
L 1159 0 
L 581 0 
L 581 4863 
L 1159 4863 
L 1159 2969 
z
" id="DejaVuSans-62" transform="scale(0.015625)"/>
       <path d="M 2194 1759 
Q 1497 1759 1228 1600 
Q 959 1441 959 1056 
Q 959 750 1161 570 
Q 1363 391 1709 391 
Q 2188 391 2477 730 
Q 2766 1069 2766 1631 
L 2766 1759 
L 2194 1759 
z
M 3341 1997 
L 3341 0 
L 2766 0 
L 2766 531 
Q 2569 213 2275 61 
Q 1981 -91 1556 -91 
Q 1019 -91 701 211 
Q 384 513 384 1019 
Q 384 1609 779 1909 
Q 1175 2209 1959 2209 
L 2766 2209 
L 2766 2266 
Q 2766 2663 2505 2880 
Q 2244 3097 1772 3097 
Q 1472 3097 1187 3025 
Q 903 2953 641 2809 
L 641 3341 
Q 956 3463 1253 3523 
Q 1550 3584 1831 3584 
Q 2591 3584 2966 3190 
Q 3341 2797 3341 1997 
z
" id="DejaVuSans-61" transform="scale(0.015625)"/>
       <path id="DejaVuSans-20" transform="scale(0.015625)"/>
       <path d="M 4122 4306 
L 4122 3641 
Q 3803 3938 3442 4084 
Q 3081 4231 2675 4231 
Q 1875 4231 1450 3742 
Q 1025 3253 1025 2328 
Q 1025 1406 1450 917 
Q 1875 428 2675 428 
Q 3081 428 3442 575 
Q 3803 722 4122 1019 
L 4122 359 
Q 3791 134 3420 21 
Q 3050 -91 2638 -91 
Q 1578 -91 968 557 
Q 359 1206 359 2328 
Q 359 3453 968 4101 
Q 1578 4750 2638 4750 
Q 3056 4750 3426 4639 
Q 3797 4528 4122 4306 
z
" id="DejaVuSans-43" transform="scale(0.015625)"/>
       <path d="M 3328 2828 
Q 3544 3216 3844 3400 
Q 4144 3584 4550 3584 
Q 5097 3584 5394 3201 
Q 5691 2819 5691 2113 
L 5691 0 
L 5113 0 
L 5113 2094 
Q 5113 2597 4934 2840 
Q 4756 3084 4391 3084 
Q 3944 3084 3684 2787 
Q 3425 2491 3425 1978 
L 3425 0 
L 2847 0 
L 2847 2094 
Q 2847 2600 2669 2842 
Q 2491 3084 2119 3084 
Q 1678 3084 1418 2786 
Q 1159 2488 1159 1978 
L 1159 0 
L 581 0 
L 581 3500 
L 1159 3500 
L 1159 2956 
Q 1356 3278 1631 3431 
Q 1906 3584 2284 3584 
Q 2666 3584 2933 3390 
Q 3200 3197 3328 2828 
z
" id="DejaVuSans-6d" transform="scale(0.015625)"/>
       <path d="M 544 1381 
L 544 3500 
L 1119 3500 
L 1119 1403 
Q 1119 906 1312 657 
Q 1506 409 1894 409 
Q 2359 409 2629 706 
Q 2900 1003 2900 1516 
L 2900 3500 
L 3475 3500 
L 3475 0 
L 2900 0 
L 2900 538 
Q 2691 219 2414 64 
Q 2138 -91 1772 -91 
Q 1169 -91 856 284 
Q 544 659 544 1381 
z
M 1991 3584 
L 1991 3584 
z
" id="DejaVuSans-75" transform="scale(0.015625)"/>
       <path d="M 3513 2113 
L 3513 0 
L 2938 0 
L 2938 2094 
Q 2938 2591 2744 2837 
Q 2550 3084 2163 3084 
Q 1697 3084 1428 2787 
Q 1159 2491 1159 1978 
L 1159 0 
L 581 0 
L 581 3500 
L 1159 3500 
L 1159 2956 
Q 1366 3272 1645 3428 
Q 1925 3584 2291 3584 
Q 2894 3584 3203 3211 
Q 3513 2838 3513 2113 
z
" id="DejaVuSans-6e" transform="scale(0.015625)"/>
       <path d="M 603 3500 
L 1178 3500 
L 1178 0 
L 603 0 
L 603 3500 
z
M 603 4863 
L 1178 4863 
L 1178 4134 
L 603 4134 
L 603 4863 
z
" id="DejaVuSans-69" transform="scale(0.015625)"/>
       <path d="M 3122 3366 
L 3122 2828 
Q 2878 2963 2633 3030 
Q 2388 3097 2138 3097 
Q 1578 3097 1268 2742 
Q 959 2388 959 1747 
Q 959 1106 1268 751 
Q 1578 397 2138 397 
Q 2388 397 2633 464 
Q 2878 531 3122 666 
L 3122 134 
Q 2881 22 2623 -34 
Q 2366 -91 2075 -91 
Q 1284 -91 818 406 
Q 353 903 353 1747 
Q 353 2603 823 3093 
Q 1294 3584 2113 3584 
Q 2378 3584 2631 3529 
Q 2884 3475 3122 3366 
z
" id="DejaVuSans-63" transform="scale(0.015625)"/>
       <path d="M 1172 4494 
L 1172 3500 
L 2356 3500 
L 2356 3053 
L 1172 3053 
L 1172 1153 
Q 1172 725 1289 603 
Q 1406 481 1766 481 
L 2356 481 
L 2356 0 
L 1766 0 
Q 1100 0 847 248 
Q 594 497 594 1153 
L 594 3053 
L 172 3053 
L 172 3500 
L 594 3500 
L 594 4494 
L 1172 4494 
z
" id="DejaVuSans-74" transform="scale(0.015625)"/>
       <path d="M 2841 2188 
Q 3044 2119 3236 1894 
Q 3428 1669 3622 1275 
L 4263 0 
L 3584 0 
L 2988 1197 
Q 2756 1666 2539 1819 
Q 2322 1972 1947 1972 
L 1259 1972 
L 1259 0 
L 628 0 
L 628 4666 
L 2053 4666 
Q 2853 4666 3247 4331 
Q 3641 3997 3641 3322 
Q 3641 2881 3436 2590 
Q 3231 2300 2841 2188 
z
M 1259 4147 
L 1259 2491 
L 2053 2491 
Q 2509 2491 2742 2702 
Q 2975 2913 2975 3322 
Q 2975 3731 2742 3939 
Q 2509 4147 2053 4147 
L 1259 4147 
z
" id="DejaVuSans-52" transform="scale(0.015625)"/>
       <path d="M 2906 2969 
L 2906 4863 
L 3481 4863 
L 3481 0 
L 2906 0 
L 2906 525 
Q 2725 213 2448 61 
Q 2172 -91 1784 -91 
Q 1150 -91 751 415 
Q 353 922 353 1747 
Q 353 2572 751 3078 
Q 1150 3584 1784 3584 
Q 2172 3584 2448 3432 
Q 2725 3281 2906 2969 
z
M 947 1747 
Q 947 1113 1208 752 
Q 1469 391 1925 391 
Q 2381 391 2643 752 
Q 2906 1113 2906 1747 
Q 2906 2381 2643 2742 
Q 2381 3103 1925 3103 
Q 1469 3103 1208 2742 
Q 947 2381 947 1747 
z
" id="DejaVuSans-64" transform="scale(0.015625)"/>
       <path d="M 2834 3397 
L 2834 2853 
Q 2591 2978 2328 3040 
Q 2066 3103 1784 3103 
Q 1356 3103 1142 2972 
Q 928 2841 928 2578 
Q 928 2378 1081 2264 
Q 1234 2150 1697 2047 
L 1894 2003 
Q 2506 1872 2764 1633 
Q 3022 1394 3022 966 
Q 3022 478 2636 193 
Q 2250 -91 1575 -91 
Q 1294 -91 989 -36 
Q 684 19 347 128 
L 347 722 
Q 666 556 975 473 
Q 1284 391 1588 391 
Q 1994 391 2212 530 
Q 2431 669 2431 922 
Q 2431 1156 2273 1281 
Q 2116 1406 1581 1522 
L 1381 1569 
Q 847 1681 609 1914 
Q 372 2147 372 2553 
Q 372 3047 722 3315 
Q 1072 3584 1716 3584 
Q 2034 3584 2315 3537 
Q 2597 3491 2834 3397 
z
" id="DejaVuSans-73" transform="scale(0.015625)"/>
      </defs>
      <use xlink:href="#DejaVuSans-47"/>
      <use x="77.490234" xlink:href="#DejaVuSans-6c"/>
      <use x="105.273438" xlink:href="#DejaVuSans-6f"/>
      <use x="166.455078" xlink:href="#DejaVuSans-62"/>
      <use x="229.931641" xlink:href="#DejaVuSans-61"/>
      <use x="291.210938" xlink:href="#DejaVuSans-6c"/>
      <use x="318.994141" xlink:href="#DejaVuSans-20"/>
      <use x="350.78125" xlink:href="#DejaVuSans-43"/>
      <use x="420.605469" xlink:href="#DejaVuSans-6f"/>
      <use x="481.787109" xlink:href="#DejaVuSans-6d"/>
      <use x="579.199219" xlink:href="#DejaVuSans-6d"/>
      <use x="676.611328" xlink:href="#DejaVuSans-75"/>
      <use x="739.990234" xlink:href="#DejaVuSans-6e"/>
      <use x="803.369141" xlink:href="#DejaVuSans-69"/>
      <use x="831.152344" xlink:href="#DejaVuSans-63"/>
      <use x="886.132812" xlink:href="#DejaVuSans-61"/>
      <use x="947.412109" xlink:href="#DejaVuSans-74"/>
      <use x="986.621094" xlink:href="#DejaVuSans-69"/>
      <use x="1014.404297" xlink:href="#DejaVuSans-6f"/>
      <use x="1075.585938" xlink:href="#DejaVuSans-6e"/>
      <use x="1138.964844" xlink:href="#DejaVuSans-20"/>
      <use x="1170.751953" xlink:href="#DejaVuSans-52"/>
      <use x="1235.734375" xlink:href="#DejaVuSans-6f"/>
      <use x="1296.916016" xlink:href="#DejaVuSans-75"/>
      <use x="1360.294922" xlink:href="#DejaVuSans-6e"/>
      <use x="1423.673828" xlink:href="#DejaVuSans-64"/>
      <use x="1487.150391" xlink:href="#DejaVuSans-73"/>
     </g>
    </g>
   </g>
   <g id="matplotlib.axis_2">
    <g id="ytick_1">
     <g id="line2d_7">
      <defs>
       <path d="M 0 0 
L -3.5 0 
" id="m6409dbd954" style="stroke:#000000;stroke-width:0.8;"/>
      </defs>
      <g>
       <use style="stroke:#000000;stroke-width:0.8;" x="60.68" xlink:href="#m6409dbd954" y="350.069349"/>
      </g>
     </g>
     <g id="text_8">
      <!-- 10 -->
      <g transform="translate(34.5925 355.768177)scale(0.15 -0.15)">
       <use xlink:href="#DejaVuSans-31"/>
       <use x="63.623047" xlink:href="#DejaVuSans-30"/>
      </g>
     </g>
    </g>
    <g id="ytick_2">
     <g id="line2d_8">
      <g>
       <use style="stroke:#000000;stroke-width:0.8;" x="60.68" xlink:href="#m6409dbd954" y="309.129231"/>
      </g>
     </g>
     <g id="text_9">
      <!-- 15 -->
      <g transform="translate(34.5925 314.828059)scale(0.15 -0.15)">
       <use xlink:href="#DejaVuSans-31"/>
       <use x="63.623047" xlink:href="#DejaVuSans-35"/>
      </g>
     </g>
    </g>
    <g id="ytick_3">
     <g id="line2d_9">
      <g>
       <use style="stroke:#000000;stroke-width:0.8;" x="60.68" xlink:href="#m6409dbd954" y="268.189113"/>
      </g>
     </g>
     <g id="text_10">
      <!-- 20 -->
      <g transform="translate(34.5925 273.887941)scale(0.15 -0.15)">
       <use xlink:href="#DejaVuSans-32"/>
       <use x="63.623047" xlink:href="#DejaVuSans-30"/>
      </g>
     </g>
    </g>
    <g id="ytick_4">
     <g id="line2d_10">
      <g>
       <use style="stroke:#000000;stroke-width:0.8;" x="60.68" xlink:href="#m6409dbd954" y="227.248995"/>
      </g>
     </g>
     <g id="text_11">
      <!-- 25 -->
      <g transform="translate(34.5925 232.947823)scale(0.15 -0.15)">
       <use xlink:href="#DejaVuSans-32"/>
       <use x="63.623047" xlink:href="#DejaVuSans-35"/>
      </g>
     </g>
    </g>
    <g id="ytick_5">
     <g id="line2d_11">
      <g>
       <use style="stroke:#000000;stroke-width:0.8;" x="60.68" xlink:href="#m6409dbd954" y="186.308877"/>
      </g>
     </g>
     <g id="text_12">
      <!-- 30 -->
      <g transform="translate(34.5925 192.007705)scale(0.15 -0.15)">
       <use xlink:href="#DejaVuSans-33"/>
       <use x="63.623047" xlink:href="#DejaVuSans-30"/>
      </g>
     </g>
    </g>
    <g id="ytick_6">
     <g id="line2d_12">
      <g>
       <use style="stroke:#000000;stroke-width:0.8;" x="60.68" xlink:href="#m6409dbd954" y="145.368759"/>
      </g>
     </g>
     <g id="text_13">
      <!-- 35 -->
      <g transform="translate(34.5925 151.067587)scale(0.15 -0.15)">
       <use xlink:href="#DejaVuSans-33"/>
       <use x="63.623047" xlink:href="#DejaVuSans-35"/>
      </g>
     </g>
    </g>
    <g id="ytick_7">
     <g id="line2d_13">
      <g>
       <use style="stroke:#000000;stroke-width:0.8;" x="60.68" xlink:href="#m6409dbd954" y="104.428641"/>
      </g>
     </g>
     <g id="text_14">
      <!-- 40 -->
      <g transform="translate(34.5925 110.127469)scale(0.15 -0.15)">
       <use xlink:href="#DejaVuSans-34"/>
       <use x="63.623047" xlink:href="#DejaVuSans-30"/>
      </g>
     </g>
    </g>
    <g id="ytick_8">
     <g id="line2d_14">
      <g>
       <use style="stroke:#000000;stroke-width:0.8;" x="60.68" xlink:href="#m6409dbd954" y="63.488523"/>
      </g>
     </g>
     <g id="text_15">
      <!-- 45 -->
      <g transform="translate(34.5925 69.187351)scale(0.15 -0.15)">
       <use xlink:href="#DejaVuSans-34"/>
       <use x="63.623047" xlink:href="#DejaVuSans-35"/>
      </g>
     </g>
    </g>
    <g id="text_16">
     <!-- Test Accuracy -->
     <g transform="translate(27.472969 267.694744)rotate(-90)scale(0.15 -0.15)">
      <defs>
       <path d="M -19 4666 
L 3928 4666 
L 3928 4134 
L 2272 4134 
L 2272 0 
L 1638 0 
L 1638 4134 
L -19 4134 
L -19 4666 
z
" id="DejaVuSans-54" transform="scale(0.015625)"/>
       <path d="M 3597 1894 
L 3597 1613 
L 953 1613 
Q 991 1019 1311 708 
Q 1631 397 2203 397 
Q 2534 397 2845 478 
Q 3156 559 3463 722 
L 3463 178 
Q 3153 47 2828 -22 
Q 2503 -91 2169 -91 
Q 1331 -91 842 396 
Q 353 884 353 1716 
Q 353 2575 817 3079 
Q 1281 3584 2069 3584 
Q 2775 3584 3186 3129 
Q 3597 2675 3597 1894 
z
M 3022 2063 
Q 3016 2534 2758 2815 
Q 2500 3097 2075 3097 
Q 1594 3097 1305 2825 
Q 1016 2553 972 2059 
L 3022 2063 
z
" id="DejaVuSans-65" transform="scale(0.015625)"/>
       <path d="M 2188 4044 
L 1331 1722 
L 3047 1722 
L 2188 4044 
z
M 1831 4666 
L 2547 4666 
L 4325 0 
L 3669 0 
L 3244 1197 
L 1141 1197 
L 716 0 
L 50 0 
L 1831 4666 
z
" id="DejaVuSans-41" transform="scale(0.015625)"/>
       <path d="M 2631 2963 
Q 2534 3019 2420 3045 
Q 2306 3072 2169 3072 
Q 1681 3072 1420 2755 
Q 1159 2438 1159 1844 
L 1159 0 
L 581 0 
L 581 3500 
L 1159 3500 
L 1159 2956 
Q 1341 3275 1631 3429 
Q 1922 3584 2338 3584 
Q 2397 3584 2469 3576 
Q 2541 3569 2628 3553 
L 2631 2963 
z
" id="DejaVuSans-72" transform="scale(0.015625)"/>
       <path d="M 2059 -325 
Q 1816 -950 1584 -1140 
Q 1353 -1331 966 -1331 
L 506 -1331 
L 506 -850 
L 844 -850 
Q 1081 -850 1212 -737 
Q 1344 -625 1503 -206 
L 1606 56 
L 191 3500 
L 800 3500 
L 1894 763 
L 2988 3500 
L 3597 3500 
L 2059 -325 
z
" id="DejaVuSans-79" transform="scale(0.015625)"/>
      </defs>
      <use xlink:href="#DejaVuSans-54"/>
      <use x="44.083984" xlink:href="#DejaVuSans-65"/>
      <use x="105.607422" xlink:href="#DejaVuSans-73"/>
      <use x="157.707031" xlink:href="#DejaVuSans-74"/>
      <use x="196.916016" xlink:href="#DejaVuSans-20"/>
      <use x="228.703125" xlink:href="#DejaVuSans-41"/>
      <use x="295.361328" xlink:href="#DejaVuSans-63"/>
      <use x="350.341797" xlink:href="#DejaVuSans-63"/>
      <use x="405.322266" xlink:href="#DejaVuSans-75"/>
      <use x="468.701172" xlink:href="#DejaVuSans-72"/>
      <use x="509.814453" xlink:href="#DejaVuSans-61"/>
      <use x="571.09375" xlink:href="#DejaVuSans-63"/>
      <use x="626.074219" xlink:href="#DejaVuSans-79"/>
     </g>
    </g>
   </g>
   <g id="line2d_15">
    <path clip-path="url(#p8e0088f014)" d="M 83.219545 347.167265 
L 92.41936 333.071427 
L 101.619174 303.221416 
L 110.818989 312.964128 
L 120.018803 315.037045 
L 129.218618 288.710995 
L 138.418432 275.02974 
L 147.618247 253.264108 
L 156.818061 252.020357 
L 166.017876 277.931825 
L 175.21769 234.40056 
L 184.417505 263.835986 
L 193.617319 243.728688 
L 202.817134 209.940135 
L 212.016948 227.145349 
L 221.216763 237.095352 
L 230.416577 226.938057 
L 239.616391 233.571393 
L 248.816206 215.951595 
L 258.01602 227.352641 
L 267.215835 231.498475 
L 276.415649 206.208884 
L 285.615464 212.013052 
L 294.815278 200.197423 
L 304.015093 192.113045 
L 313.214907 198.331798 
L 322.414722 184.028668 
L 331.614536 200.612007 
L 340.814351 208.281801 
L 350.014165 193.978671 
L 359.21398 183.199501 
L 368.413794 159.775535 
L 377.613609 180.090125 
L 386.813423 185.065126 
L 396.013237 151.691157 
L 405.213052 146.09428 
L 414.412866 182.992209 
L 423.612681 175.115123 
L 432.812495 147.959906 
L 442.01231 161.226577 
L 451.212124 150.032823 
L 460.411939 159.775535 
L 469.611753 163.299494 
L 478.811568 144.850529 
L 488.011382 145.472405 
L 497.211197 110.025518 
L 506.411011 157.702617 
L 515.610826 123.706772 
L 524.81064 117.073437 
L 534.010455 115.415103 
" style="fill:none;stroke:#1f77b4;stroke-linecap:square;stroke-width:1.5;"/>
   </g>
   <g id="line2d_16">
    <path clip-path="url(#p8e0088f014)" d="M 83.219545 335.973511 
L 92.41936 320.012047 
L 101.619174 329.754759 
L 110.818989 316.073504 
L 120.018803 331.827676 
L 129.218618 320.426631 
L 138.418432 302.184958 
L 147.618247 297.002664 
L 156.818061 275.444324 
L 166.017876 316.488088 
L 175.21769 276.480782 
L 184.417505 278.968283 
L 193.617319 293.271413 
L 202.817134 260.519319 
L 212.016948 280.212034 
L 221.216763 263.214111 
L 230.416577 256.166192 
L 239.616391 291.198496 
L 248.816206 272.127656 
L 258.01602 267.152654 
L 267.215835 262.384944 
L 276.415649 276.066199 
L 285.615464 246.630772 
L 294.815278 266.738071 
L 304.015093 251.19119 
L 313.214907 263.214111 
L 322.414722 243.93598 
L 331.614536 276.066199 
L 340.814351 279.175575 
L 350.014165 230.047433 
L 359.21398 237.095352 
L 368.413794 237.509936 
L 377.613609 233.778685 
L 386.813423 238.339103 
L 396.013237 220.09743 
L 405.213052 191.698462 
L 414.412866 240.204728 
L 423.612681 224.450556 
L 432.812495 198.124506 
L 442.01231 190.040128 
L 451.212124 176.566165 
L 460.411939 208.903676 
L 469.611753 233.985976 
L 478.811568 242.899521 
L 488.011382 223.206806 
L 497.211197 175.115123 
L 506.411011 196.466172 
L 515.610826 191.905754 
L 524.81064 215.744303 
L 534.010455 203.306799 
" style="fill:none;stroke:#ff7f0e;stroke-linecap:square;stroke-width:1.5;"/>
   </g>
   <g id="line2d_17">
    <path clip-path="url(#p8e0088f014)" d="M 83.219545 344.887056 
L 92.41936 333.071427 
L 101.619174 333.900593 
L 110.818989 320.426631 
L 120.018803 304.257875 
L 129.218618 298.453706 
L 138.418432 274.822448 
L 147.618247 295.758914 
L 156.818061 277.517241 
L 166.017876 280.626617 
L 175.21769 251.19119 
L 184.417505 258.446401 
L 193.617319 246.216189 
L 202.817134 242.070354 
L 212.016948 243.314104 
L 221.216763 253.4714 
L 230.416577 213.878678 
L 239.616391 198.953673 
L 248.816206 230.254725 
L 258.01602 233.571393 
L 267.215835 196.880755 
L 276.415649 225.694307 
L 285.615464 224.86514 
L 294.815278 198.953673 
L 304.015093 201.441174 
L 313.214907 207.867217 
L 322.414722 173.456789 
L 331.614536 172.213039 
L 340.814351 194.185963 
L 350.014165 242.277646 
L 359.21398 180.297416 
L 368.413794 177.602624 
L 377.613609 176.358873 
L 386.813423 168.067204 
L 396.013237 175.94429 
L 405.213052 200.197423 
L 414.412866 172.627622 
L 423.612681 173.042206 
L 432.812495 154.593241 
L 442.01231 179.882833 
L 451.212124 163.921369 
L 460.411939 185.272418 
L 469.611753 163.506786 
L 478.811568 168.274496 
L 488.011382 151.069282 
L 497.211197 165.16512 
L 506.411011 167.445329 
L 515.610826 147.130739 
L 524.81064 140.497403 
L 534.010455 154.178658 
" style="fill:none;stroke:#2ca02c;stroke-linecap:square;stroke-width:1.5;"/>
   </g>
   <g id="line2d_18">
    <path clip-path="url(#p8e0088f014)" d="M 83.219545 350.069349 
L 92.41936 350.052973 
L 101.619174 341.57018 
L 110.818989 330.205204 
L 120.018803 310.308306 
L 129.218618 300.449926 
L 138.418432 282.911179 
L 147.618247 276.27888 
L 156.818061 258.903894 
L 166.017876 252.206091 
L 175.21769 242.511471 
L 184.417505 236.616094 
L 193.617319 230.098427 
L 202.817134 225.185613 
L 212.016948 221.402746 
L 221.216763 227.380003 
L 230.416577 220.338303 
L 239.616391 212.526928 
L 248.816206 211.315101 
L 258.01602 212.739817 
L 267.215835 206.173022 
L 276.415649 204.682802 
L 285.615464 194.971806 
L 294.815278 196.98606 
L 304.015093 202.193643 
L 313.214907 191.876733 
L 322.414722 186.554518 
L 331.614536 192.793792 
L 340.814351 183.131924 
L 350.014165 182.755275 
L 359.21398 172.815014 
L 368.413794 173.568312 
L 377.613609 176.139352 
L 386.813423 169.719941 
L 396.013237 171.42305 
L 405.213052 174.894772 
L 414.412866 161.843062 
L 423.612681 155.55466 
L 432.812495 155.227139 
L 442.01231 159.190143 
L 451.212124 159.059134 
L 460.411939 150.641846 
L 469.611753 148.005302 
L 478.811568 153.27839 
L 488.011382 152.230323 
L 497.211197 144.075051 
L 506.411011 140.816218 
L 515.610826 139.063981 
L 524.81064 136.918718 
L 534.010455 145.008486 
" style="fill:none;stroke:#d62728;stroke-linecap:square;stroke-width:1.5;"/>
   </g>
   <g id="patch_3">
    <path d="M 60.68 376 
L 60.68 56.601989 
" style="fill:none;stroke:#000000;stroke-linecap:square;stroke-linejoin:miter;stroke-width:0.8;"/>
   </g>
   <g id="patch_4">
    <path d="M 556.55 376 
L 556.55 56.601989 
" style="fill:none;stroke:#000000;stroke-linecap:square;stroke-linejoin:miter;stroke-width:0.8;"/>
   </g>
   <g id="patch_5">
    <path d="M 60.68 376 
L 556.55 376 
" style="fill:none;stroke:#000000;stroke-linecap:square;stroke-linejoin:miter;stroke-width:0.8;"/>
   </g>
   <g id="patch_6">
    <path d="M 60.68 56.601989 
L 556.55 56.601989 
" style="fill:none;stroke:#000000;stroke-linecap:square;stroke-linejoin:miter;stroke-width:0.8;"/>
   </g>
   <g id="legend_1">
    <g id="patch_7">
     <path d="M 59.017344 42.709474 
L 558.212656 42.709474 
Q 561.212656 42.709474 561.212656 39.709474 
L 561.212656 19.192287 
Q 561.212656 16.192287 558.212656 16.192287 
L 59.017344 16.192287 
Q 56.017344 16.192287 56.017344 19.192287 
L 56.017344 39.709474 
Q 56.017344 42.709474 59.017344 42.709474 
z
" style="fill:#ffffff;opacity:0.8;stroke:#cccccc;stroke-linejoin:miter;"/>
    </g>
    <g id="line2d_19">
     <path d="M 62.017344 28.339943 
L 92.017344 28.339943 
" style="fill:none;stroke:#1f77b4;stroke-linecap:square;stroke-width:1.5;"/>
    </g>
    <g id="line2d_20"/>
    <g id="text_17">
     <!-- FedAvg -->
     <g transform="translate(104.017344 33.589943)scale(0.15 -0.15)">
      <defs>
       <path d="M 628 4666 
L 3309 4666 
L 3309 4134 
L 1259 4134 
L 1259 2759 
L 3109 2759 
L 3109 2228 
L 1259 2228 
L 1259 0 
L 628 0 
L 628 4666 
z
" id="DejaVuSans-46" transform="scale(0.015625)"/>
       <path d="M 191 3500 
L 800 3500 
L 1894 563 
L 2988 3500 
L 3597 3500 
L 2284 0 
L 1503 0 
L 191 3500 
z
" id="DejaVuSans-76" transform="scale(0.015625)"/>
       <path d="M 2906 1791 
Q 2906 2416 2648 2759 
Q 2391 3103 1925 3103 
Q 1463 3103 1205 2759 
Q 947 2416 947 1791 
Q 947 1169 1205 825 
Q 1463 481 1925 481 
Q 2391 481 2648 825 
Q 2906 1169 2906 1791 
z
M 3481 434 
Q 3481 -459 3084 -895 
Q 2688 -1331 1869 -1331 
Q 1566 -1331 1297 -1286 
Q 1028 -1241 775 -1147 
L 775 -588 
Q 1028 -725 1275 -790 
Q 1522 -856 1778 -856 
Q 2344 -856 2625 -561 
Q 2906 -266 2906 331 
L 2906 616 
Q 2728 306 2450 153 
Q 2172 0 1784 0 
Q 1141 0 747 490 
Q 353 981 353 1791 
Q 353 2603 747 3093 
Q 1141 3584 1784 3584 
Q 2172 3584 2450 3431 
Q 2728 3278 2906 2969 
L 2906 3500 
L 3481 3500 
L 3481 434 
z
" id="DejaVuSans-67" transform="scale(0.015625)"/>
      </defs>
      <use xlink:href="#DejaVuSans-46"/>
      <use x="52.019531" xlink:href="#DejaVuSans-65"/>
      <use x="113.542969" xlink:href="#DejaVuSans-64"/>
      <use x="177.019531" xlink:href="#DejaVuSans-41"/>
      <use x="239.552734" xlink:href="#DejaVuSans-76"/>
      <use x="298.732422" xlink:href="#DejaVuSans-67"/>
     </g>
    </g>
    <g id="line2d_21">
     <path d="M 188.3525 28.339943 
L 218.3525 28.339943 
" style="fill:none;stroke:#ff7f0e;stroke-linecap:square;stroke-width:1.5;"/>
    </g>
    <g id="line2d_22"/>
    <g id="text_18">
     <!-- FedMed -->
     <g transform="translate(230.3525 33.589943)scale(0.15 -0.15)">
      <defs>
       <path d="M 628 4666 
L 1569 4666 
L 2759 1491 
L 3956 4666 
L 4897 4666 
L 4897 0 
L 4281 0 
L 4281 4097 
L 3078 897 
L 2444 897 
L 1241 4097 
L 1241 0 
L 628 0 
L 628 4666 
z
" id="DejaVuSans-4d" transform="scale(0.015625)"/>
      </defs>
      <use xlink:href="#DejaVuSans-46"/>
      <use x="52.019531" xlink:href="#DejaVuSans-65"/>
      <use x="113.542969" xlink:href="#DejaVuSans-64"/>
      <use x="177.019531" xlink:href="#DejaVuSans-4d"/>
      <use x="263.298828" xlink:href="#DejaVuSans-65"/>
      <use x="324.822266" xlink:href="#DejaVuSans-64"/>
     </g>
    </g>
    <g id="line2d_23">
     <path d="M 318.601719 28.339943 
L 348.601719 28.339943 
" style="fill:none;stroke:#2ca02c;stroke-linecap:square;stroke-width:1.5;"/>
    </g>
    <g id="line2d_24"/>
    <g id="text_19">
     <!-- FedProx -->
     <g transform="translate(360.601719 33.589943)scale(0.15 -0.15)">
      <defs>
       <path d="M 1259 4147 
L 1259 2394 
L 2053 2394 
Q 2494 2394 2734 2622 
Q 2975 2850 2975 3272 
Q 2975 3691 2734 3919 
Q 2494 4147 2053 4147 
L 1259 4147 
z
M 628 4666 
L 2053 4666 
Q 2838 4666 3239 4311 
Q 3641 3956 3641 3272 
Q 3641 2581 3239 2228 
Q 2838 1875 2053 1875 
L 1259 1875 
L 1259 0 
L 628 0 
L 628 4666 
z
" id="DejaVuSans-50" transform="scale(0.015625)"/>
       <path d="M 3513 3500 
L 2247 1797 
L 3578 0 
L 2900 0 
L 1881 1375 
L 863 0 
L 184 0 
L 1544 1831 
L 300 3500 
L 978 3500 
L 1906 2253 
L 2834 3500 
L 3513 3500 
z
" id="DejaVuSans-78" transform="scale(0.015625)"/>
      </defs>
      <use xlink:href="#DejaVuSans-46"/>
      <use x="52.019531" xlink:href="#DejaVuSans-65"/>
      <use x="113.542969" xlink:href="#DejaVuSans-64"/>
      <use x="177.019531" xlink:href="#DejaVuSans-50"/>
      <use x="235.572266" xlink:href="#DejaVuSans-72"/>
      <use x="274.435547" xlink:href="#DejaVuSans-6f"/>
      <use x="332.492188" xlink:href="#DejaVuSans-78"/>
     </g>
    </g>
    <g id="line2d_25">
     <path d="M 449.354844 28.339943 
L 479.354844 28.339943 
" style="fill:none;stroke:#d62728;stroke-linecap:square;stroke-width:1.5;"/>
    </g>
    <g id="line2d_26"/>
    <g id="text_20">
     <!-- qFedAvg -->
     <g transform="translate(491.354844 33.589943)scale(0.15 -0.15)">
      <defs>
       <path d="M 947 1747 
Q 947 1113 1208 752 
Q 1469 391 1925 391 
Q 2381 391 2643 752 
Q 2906 1113 2906 1747 
Q 2906 2381 2643 2742 
Q 2381 3103 1925 3103 
Q 1469 3103 1208 2742 
Q 947 2381 947 1747 
z
M 2906 525 
Q 2725 213 2448 61 
Q 2172 -91 1784 -91 
Q 1150 -91 751 415 
Q 353 922 353 1747 
Q 353 2572 751 3078 
Q 1150 3584 1784 3584 
Q 2172 3584 2448 3432 
Q 2725 3281 2906 2969 
L 2906 3500 
L 3481 3500 
L 3481 -1331 
L 2906 -1331 
L 2906 525 
z
" id="DejaVuSans-71" transform="scale(0.015625)"/>
      </defs>
      <use xlink:href="#DejaVuSans-71"/>
      <use x="63.476562" xlink:href="#DejaVuSans-46"/>
      <use x="115.496094" xlink:href="#DejaVuSans-65"/>
      <use x="177.019531" xlink:href="#DejaVuSans-64"/>
      <use x="240.496094" xlink:href="#DejaVuSans-41"/>
      <use x="303.029297" xlink:href="#DejaVuSans-76"/>
      <use x="362.208984" xlink:href="#DejaVuSans-67"/>
     </g>
    </g>
   </g>
  </g>
 </g>
 <defs>
  <clipPath id="p8e0088f014">
   <rect height="319.398011" width="495.87" x="60.68" y="56.601989"/>
  </clipPath>
 </defs>
</svg>
