<?xml version="1.0" encoding="utf-8" standalone="no"?>
<!DOCTYPE svg PUBLIC "-//W3C//DTD SVG 1.1//EN"
  "http://www.w3.org/Graphics/SVG/1.1/DTD/svg11.dtd">
<svg height="432pt" version="1.1" viewBox="0 0 576 432" width="576pt" xmlns="http://www.w3.org/2000/svg" xmlns:xlink="http://www.w3.org/1999/xlink">
 <metadata>
  <rdf:RDF xmlns:cc="http://creativecommons.org/ns#" xmlns:dc="http://purl.org/dc/elements/1.1/" xmlns:rdf="http://www.w3.org/1999/02/22-rdf-syntax-ns#">
   <cc:Work>
    <dc:type rdf:resource="http://purl.org/dc/dcmitype/StillImage"/>
    <dc:date>2021-05-07T22:04:41.039816</dc:date>
    <dc:format>image/svg+xml</dc:format>
    <dc:creator>
     <cc:Agent>
      <dc:title>Matplotlib v3.4.1, https://matplotlib.org/</dc:title>
     </cc:Agent>
    </dc:creator>
   </cc:Work>
  </rdf:RDF>
 </metadata>
 <defs>
  <style type="text/css">*{stroke-linecap:butt;stroke-linejoin:round;}</style>
 </defs>
 <g id="figure_1">
  <g id="patch_1">
   <path d="M 0 432 
L 576 432 
L 576 0 
L 0 0 
z
" style="fill:#ffffff;"/>
  </g>
  <g id="axes_1">
   <g id="patch_2">
    <path d="M 60.77 376 
L 556.505 376 
L 556.505 56.601989 
L 60.77 56.601989 
z
" style="fill:#ffffff;"/>
   </g>
   <g id="PolyCollection_1">
    <path clip-path="url(#p3dc4cff05c)" d="M 83.303409 353.923083 
L 83.303409 357.980263 
L 92.500719 357.260243 
L 101.698029 342.171776 
L 110.895339 335.230657 
L 120.092648 332.741154 
L 129.289958 310.936027 
L 138.487268 326.952622 
L 147.684578 294.524505 
L 156.881888 302.943894 
L 166.079198 301.981258 
L 175.276507 260.653714 
L 184.473817 288.880142 
L 193.671127 272.435767 
L 202.868437 265.4296 
L 212.065747 249.084792 
L 221.263057 252.69713 
L 230.460366 260.281885 
L 239.657676 244.411288 
L 248.854986 247.911468 
L 258.052296 251.974224 
L 267.249606 238.264853 
L 276.446916 216.342203 
L 285.644225 207.660516 
L 294.841535 244.637732 
L 304.038845 203.42654 
L 313.236155 220.616996 
L 322.433465 208.013463 
L 331.630775 207.130622 
L 340.828084 195.66201 
L 350.025394 198.720458 
L 359.222704 189.486547 
L 368.420014 185.546212 
L 377.617324 184.992585 
L 386.814634 166.385335 
L 396.011943 155.888921 
L 405.209253 140.214052 
L 414.406563 182.310097 
L 423.603873 159.358152 
L 432.801183 156.187244 
L 441.998493 141.69519 
L 451.195802 150.909455 
L 460.393112 152.152949 
L 469.590422 151.299686 
L 478.787732 142.7576 
L 487.985042 136.354045 
L 497.182352 107.029231 
L 506.379661 143.593923 
L 515.576971 129.883539 
L 524.774281 126.40175 
L 533.971591 113.125156 
L 533.971591 93.594931 
L 533.971591 93.594931 
L 524.774281 80.837805 
L 515.576971 102.290511 
L 506.379661 85.463315 
L 497.182352 71.12008 
L 487.985042 108.027519 
L 478.787732 107.078384 
L 469.590422 109.704874 
L 460.393112 119.500718 
L 451.195802 104.121216 
L 441.998493 104.244779 
L 432.801183 118.063766 
L 423.603873 114.113655 
L 414.406563 132.719203 
L 405.209253 116.375025 
L 396.011943 125.894385 
L 386.814634 132.80017 
L 377.617324 118.088935 
L 368.420014 126.626009 
L 359.222704 135.932126 
L 350.025394 164.879159 
L 340.828084 157.028766 
L 331.630775 161.923417 
L 322.433465 144.937048 
L 313.236155 156.229072 
L 304.038845 160.692547 
L 294.841535 157.402566 
L 285.644225 180.094394 
L 276.446916 179.204736 
L 267.249606 195.463032 
L 258.052296 201.49347 
L 248.854986 206.075694 
L 239.657676 215.030295 
L 230.460366 212.406149 
L 221.263057 219.471435 
L 212.065747 207.499713 
L 202.868437 211.154448 
L 193.671127 215.836326 
L 184.473817 234.196351 
L 175.276507 241.384298 
L 166.079198 276.158911 
L 156.881888 267.663979 
L 147.684578 257.642231 
L 138.487268 261.57692 
L 129.289958 286.424482 
L 120.092648 288.774647 
L 110.895339 297.193986 
L 101.698029 301.161708 
L 92.500719 341.916121 
L 83.303409 353.923083 
z
" style="fill:#1f77b4;fill-opacity:0.5;"/>
   </g>
   <g id="PolyCollection_2">
    <path clip-path="url(#p3dc4cff05c)" d="M 83.303409 355.147677 
L 83.303409 358.573808 
L 92.500719 358.032639 
L 101.698029 354.513986 
L 110.895339 349.9136 
L 120.092648 355.624484 
L 129.289958 346.3228 
L 138.487268 340.987791 
L 147.684578 350.296188 
L 156.881888 336.645605 
L 166.079198 356.109771 
L 175.276507 330.973999 
L 184.473817 336.572381 
L 193.671127 337.526854 
L 202.868437 315.482175 
L 212.065747 330.13518 
L 221.263057 333.870764 
L 230.460366 324.224217 
L 239.657676 355.913089 
L 248.854986 329.688632 
L 258.052296 334.150582 
L 267.249606 330.079927 
L 276.446916 340.02869 
L 285.644225 308.414968 
L 294.841535 339.828617 
L 304.038845 333.736516 
L 313.236155 334.200368 
L 322.433465 297.267678 
L 331.630775 344.344696 
L 340.828084 323.925296 
L 350.025394 301.929977 
L 359.222704 324.752847 
L 368.420014 320.018847 
L 377.617324 303.317314 
L 386.814634 306.163564 
L 396.011943 292.111091 
L 405.209253 266.15032 
L 414.406563 324.869081 
L 423.603873 285.914819 
L 432.801183 272.830238 
L 441.998493 255.101562 
L 451.195802 284.006871 
L 460.393112 290.571873 
L 469.590422 315.681392 
L 478.787732 341.040984 
L 487.985042 333.951245 
L 497.182352 259.149151 
L 506.379661 277.790761 
L 515.576971 260.869946 
L 524.774281 315.538648 
L 533.971591 262.976664 
L 533.971591 215.16579 
L 533.971591 215.16579 
L 524.774281 194.291394 
L 515.576971 219.090649 
L 506.379661 201.910099 
L 497.182352 191.7212 
L 487.985042 222.371241 
L 478.787732 218.917783 
L 469.590422 218.563676 
L 460.393112 222.115247 
L 451.195802 210.498846 
L 441.998493 217.846206 
L 432.801183 233.623258 
L 423.603873 222.356817 
L 414.406563 226.778187 
L 405.209253 249.653612 
L 396.011943 232.783541 
L 386.814634 238.730611 
L 377.617324 263.134811 
L 368.420014 240.199654 
L 359.222704 239.101934 
L 350.025394 268.677897 
L 340.828084 259.149826 
L 331.630775 277.690573 
L 322.433465 249.704373 
L 313.236155 290.432245 
L 304.038845 282.324864 
L 294.841535 260.388969 
L 285.644225 276.738027 
L 276.446916 290.058344 
L 267.249606 259.488553 
L 258.052296 276.196643 
L 248.854986 284.554608 
L 239.657676 288.199598 
L 230.460366 255.734093 
L 221.263057 285.567162 
L 212.065747 290.861152 
L 202.868437 274.865507 
L 193.671127 291.001774 
L 184.473817 274.554047 
L 175.276507 297.03516 
L 166.079198 310.080334 
L 156.881888 299.155584 
L 147.684578 306.543481 
L 138.487268 300.527553 
L 129.289958 312.075275 
L 120.092648 327.188617 
L 110.895339 310.56235 
L 101.698029 317.650008 
L 92.500719 347.117615 
L 83.303409 355.147677 
z
" style="fill:#ff7f0e;fill-opacity:0.5;"/>
   </g>
   <g id="PolyCollection_3">
    <path clip-path="url(#p3dc4cff05c)" d="M 83.303409 343.665912 
L 83.303409 356.02992 
L 92.500719 360.732141 
L 101.698029 333.632549 
L 110.895339 326.319094 
L 120.092648 323.813968 
L 129.289958 311.434797 
L 138.487268 317.686017 
L 147.684578 308.832743 
L 156.881888 297.08726 
L 166.079198 296.942214 
L 175.276507 292.84698 
L 184.473817 278.340325 
L 193.671127 288.108874 
L 202.868437 287.4229 
L 212.065747 265.4837 
L 221.263057 234.432242 
L 230.460366 259.42198 
L 239.657676 273.468777 
L 248.854986 255.01278 
L 258.052296 252.181969 
L 267.249606 255.523566 
L 276.446916 251.316246 
L 285.644225 234.499995 
L 294.841535 232.605554 
L 304.038845 264.467346 
L 313.236155 241.697408 
L 322.433465 261.079597 
L 331.630775 222.527841 
L 340.828084 218.526383 
L 350.025394 210.669888 
L 359.222704 184.286362 
L 368.420014 187.883327 
L 377.617324 182.14497 
L 386.814634 211.401305 
L 396.011943 178.795901 
L 405.209253 186.51669 
L 414.406563 188.931368 
L 423.603873 186.685737 
L 432.801183 183.271266 
L 441.998493 192.65186 
L 451.195802 172.19565 
L 460.393112 177.833378 
L 469.590422 156.301283 
L 478.787732 175.271623 
L 487.985042 166.9628 
L 497.182352 174.54833 
L 506.379661 173.130149 
L 515.576971 157.995271 
L 524.774281 168.928999 
L 533.971591 183.99402 
L 533.971591 121.684844 
L 533.971591 121.684844 
L 524.774281 113.373776 
L 515.576971 111.580522 
L 506.379661 114.627046 
L 497.182352 153.72742 
L 487.985042 116.638646 
L 478.787732 146.251034 
L 469.590422 141.585551 
L 460.393112 127.845485 
L 451.195802 144.132321 
L 441.998493 155.883167 
L 432.801183 147.861561 
L 423.603873 140.291341 
L 414.406563 152.590832 
L 405.209253 164.61568 
L 396.011943 166.882049 
L 386.814634 147.78283 
L 377.617324 165.870588 
L 368.420014 156.236216 
L 359.222704 166.586273 
L 350.025394 179.942099 
L 340.828084 175.46215 
L 331.630775 172.239895 
L 322.433465 194.465971 
L 313.236155 204.237991 
L 304.038845 193.675566 
L 294.841535 193.590035 
L 285.644225 205.201779 
L 276.446916 194.619152 
L 267.249606 206.775094 
L 258.052296 203.103865 
L 248.854986 210.922161 
L 239.657676 194.284305 
L 230.460366 226.512504 
L 221.263057 219.035451 
L 212.065747 217.333972 
L 202.868437 240.588545 
L 193.671127 256.785302 
L 184.473817 250.190588 
L 175.276507 253.605602 
L 166.079198 274.964331 
L 156.881888 272.74141 
L 147.684578 271.904769 
L 138.487268 276.55768 
L 129.289958 290.60093 
L 120.092648 301.857582 
L 110.895339 298.313519 
L 101.698029 296.19475 
L 92.500719 318.964148 
L 83.303409 343.665912 
z
" style="fill:#2ca02c;fill-opacity:0.5;"/>
   </g>
   <g id="PolyCollection_4">
    <path clip-path="url(#p3dc4cff05c)" d="M 83.303409 354.133533 
L 83.303409 354.133533 
L 92.500719 361.481909 
L 101.698029 355.792361 
L 110.895339 349.639873 
L 120.092648 345.735699 
L 129.289958 344.027339 
L 138.487268 329.981851 
L 147.684578 320.368297 
L 156.881888 317.681275 
L 166.079198 317.693187 
L 175.276507 308.877204 
L 184.473817 309.499243 
L 193.671127 301.384237 
L 202.868437 299.83661 
L 212.065747 290.083825 
L 221.263057 296.890588 
L 230.460366 282.656983 
L 239.657676 293.727163 
L 248.854986 286.555063 
L 258.052296 286.295328 
L 267.249606 269.530204 
L 276.446916 280.715747 
L 285.644225 272.925252 
L 294.841535 273.386725 
L 304.038845 273.045135 
L 313.236155 265.182529 
L 322.433465 266.914389 
L 331.630775 261.14427 
L 340.828084 249.389694 
L 350.025394 256.322427 
L 359.222704 249.123352 
L 368.420014 256.293336 
L 377.617324 235.197602 
L 386.814634 258.860487 
L 396.011943 246.71106 
L 405.209253 246.934177 
L 414.406563 236.683496 
L 423.603873 241.447945 
L 432.801183 229.523249 
L 441.998493 228.578955 
L 451.195802 231.768788 
L 460.393112 228.852434 
L 469.590422 228.390295 
L 478.787732 222.118731 
L 487.985042 224.037098 
L 497.182352 227.453544 
L 506.379661 232.199572 
L 515.576971 223.379248 
L 524.774281 216.315436 
L 533.971591 221.526162 
L 533.971591 177.663032 
L 533.971591 177.663032 
L 524.774281 177.251549 
L 515.576971 175.994617 
L 506.379661 177.885217 
L 497.182352 180.805053 
L 487.985042 184.447208 
L 478.787732 185.195991 
L 469.590422 177.672768 
L 460.393112 184.125535 
L 451.195802 181.804233 
L 441.998493 199.952426 
L 432.801183 189.015373 
L 423.603873 189.094299 
L 414.406563 191.416985 
L 405.209253 186.296057 
L 396.011943 191.505294 
L 386.814634 197.125331 
L 377.617324 202.362144 
L 368.420014 207.551263 
L 359.222704 203.04593 
L 350.025394 203.254218 
L 340.828084 210.946155 
L 331.630775 207.193993 
L 322.433465 210.924176 
L 313.236155 216.164787 
L 304.038845 214.026986 
L 294.841535 213.521244 
L 285.644225 214.639325 
L 276.446916 211.650278 
L 267.249606 224.354228 
L 258.052296 220.126221 
L 248.854986 223.621465 
L 239.657676 225.785515 
L 230.460366 230.228054 
L 221.263057 229.578034 
L 212.065747 230.290651 
L 202.868437 237.732798 
L 193.671127 247.101286 
L 184.473817 244.916274 
L 175.276507 252.514777 
L 166.079198 264.299881 
L 156.881888 268.066772 
L 147.684578 281.138351 
L 138.487268 286.81146 
L 129.289958 294.700796 
L 120.092648 308.340657 
L 110.895339 321.795567 
L 101.698029 336.16209 
L 92.500719 331.375379 
L 83.303409 354.133533 
z
" style="fill:#d62728;fill-opacity:0.5;"/>
   </g>
   <g id="matplotlib.axis_1">
    <g id="xtick_1">
     <g id="line2d_1">
      <defs>
       <path d="M 0 0 
L 0 3.5 
" id="mfc128aa5f1" style="stroke:#000000;stroke-width:0.8;"/>
      </defs>
      <g>
       <use style="stroke:#000000;stroke-width:0.8;" x="83.303409" xlink:href="#mfc128aa5f1" y="376"/>
      </g>
     </g>
     <g id="text_1">
      <!-- 0 -->
      <g transform="translate(78.531534 394.397656)scale(0.15 -0.15)">
       <defs>
        <path d="M 2034 4250 
Q 1547 4250 1301 3770 
Q 1056 3291 1056 2328 
Q 1056 1369 1301 889 
Q 1547 409 2034 409 
Q 2525 409 2770 889 
Q 3016 1369 3016 2328 
Q 3016 3291 2770 3770 
Q 2525 4250 2034 4250 
z
M 2034 4750 
Q 2819 4750 3233 4129 
Q 3647 3509 3647 2328 
Q 3647 1150 3233 529 
Q 2819 -91 2034 -91 
Q 1250 -91 836 529 
Q 422 1150 422 2328 
Q 422 3509 836 4129 
Q 1250 4750 2034 4750 
z
" id="DejaVuSans-30" transform="scale(0.015625)"/>
       </defs>
       <use xlink:href="#DejaVuSans-30"/>
      </g>
     </g>
    </g>
    <g id="xtick_2">
     <g id="line2d_2">
      <g>
       <use style="stroke:#000000;stroke-width:0.8;" x="175.276507" xlink:href="#mfc128aa5f1" y="376"/>
      </g>
     </g>
     <g id="text_2">
      <!-- 10 -->
      <g transform="translate(165.732757 394.397656)scale(0.15 -0.15)">
       <defs>
        <path d="M 794 531 
L 1825 531 
L 1825 4091 
L 703 3866 
L 703 4441 
L 1819 4666 
L 2450 4666 
L 2450 531 
L 3481 531 
L 3481 0 
L 794 0 
L 794 531 
z
" id="DejaVuSans-31" transform="scale(0.015625)"/>
       </defs>
       <use xlink:href="#DejaVuSans-31"/>
       <use x="63.623047" xlink:href="#DejaVuSans-30"/>
      </g>
     </g>
    </g>
    <g id="xtick_3">
     <g id="line2d_3">
      <g>
       <use style="stroke:#000000;stroke-width:0.8;" x="267.249606" xlink:href="#mfc128aa5f1" y="376"/>
      </g>
     </g>
     <g id="text_3">
      <!-- 20 -->
      <g transform="translate(257.705856 394.397656)scale(0.15 -0.15)">
       <defs>
        <path d="M 1228 531 
L 3431 531 
L 3431 0 
L 469 0 
L 469 531 
Q 828 903 1448 1529 
Q 2069 2156 2228 2338 
Q 2531 2678 2651 2914 
Q 2772 3150 2772 3378 
Q 2772 3750 2511 3984 
Q 2250 4219 1831 4219 
Q 1534 4219 1204 4116 
Q 875 4013 500 3803 
L 500 4441 
Q 881 4594 1212 4672 
Q 1544 4750 1819 4750 
Q 2544 4750 2975 4387 
Q 3406 4025 3406 3419 
Q 3406 3131 3298 2873 
Q 3191 2616 2906 2266 
Q 2828 2175 2409 1742 
Q 1991 1309 1228 531 
z
" id="DejaVuSans-32" transform="scale(0.015625)"/>
       </defs>
       <use xlink:href="#DejaVuSans-32"/>
       <use x="63.623047" xlink:href="#DejaVuSans-30"/>
      </g>
     </g>
    </g>
    <g id="xtick_4">
     <g id="line2d_4">
      <g>
       <use style="stroke:#000000;stroke-width:0.8;" x="359.222704" xlink:href="#mfc128aa5f1" y="376"/>
      </g>
     </g>
     <g id="text_4">
      <!-- 30 -->
      <g transform="translate(349.678954 394.397656)scale(0.15 -0.15)">
       <defs>
        <path d="M 2597 2516 
Q 3050 2419 3304 2112 
Q 3559 1806 3559 1356 
Q 3559 666 3084 287 
Q 2609 -91 1734 -91 
Q 1441 -91 1130 -33 
Q 819 25 488 141 
L 488 750 
Q 750 597 1062 519 
Q 1375 441 1716 441 
Q 2309 441 2620 675 
Q 2931 909 2931 1356 
Q 2931 1769 2642 2001 
Q 2353 2234 1838 2234 
L 1294 2234 
L 1294 2753 
L 1863 2753 
Q 2328 2753 2575 2939 
Q 2822 3125 2822 3475 
Q 2822 3834 2567 4026 
Q 2313 4219 1838 4219 
Q 1578 4219 1281 4162 
Q 984 4106 628 3988 
L 628 4550 
Q 988 4650 1302 4700 
Q 1616 4750 1894 4750 
Q 2613 4750 3031 4423 
Q 3450 4097 3450 3541 
Q 3450 3153 3228 2886 
Q 3006 2619 2597 2516 
z
" id="DejaVuSans-33" transform="scale(0.015625)"/>
       </defs>
       <use xlink:href="#DejaVuSans-33"/>
       <use x="63.623047" xlink:href="#DejaVuSans-30"/>
      </g>
     </g>
    </g>
    <g id="xtick_5">
     <g id="line2d_5">
      <g>
       <use style="stroke:#000000;stroke-width:0.8;" x="451.195802" xlink:href="#mfc128aa5f1" y="376"/>
      </g>
     </g>
     <g id="text_5">
      <!-- 40 -->
      <g transform="translate(441.652052 394.397656)scale(0.15 -0.15)">
       <defs>
        <path d="M 2419 4116 
L 825 1625 
L 2419 1625 
L 2419 4116 
z
M 2253 4666 
L 3047 4666 
L 3047 1625 
L 3713 1625 
L 3713 1100 
L 3047 1100 
L 3047 0 
L 2419 0 
L 2419 1100 
L 313 1100 
L 313 1709 
L 2253 4666 
z
" id="DejaVuSans-34" transform="scale(0.015625)"/>
       </defs>
       <use xlink:href="#DejaVuSans-34"/>
       <use x="63.623047" xlink:href="#DejaVuSans-30"/>
      </g>
     </g>
    </g>
    <g id="xtick_6">
     <g id="line2d_6">
      <g>
       <use style="stroke:#000000;stroke-width:0.8;" x="543.168901" xlink:href="#mfc128aa5f1" y="376"/>
      </g>
     </g>
     <g id="text_6">
      <!-- 50 -->
      <g transform="translate(533.625151 394.397656)scale(0.15 -0.15)">
       <defs>
        <path d="M 691 4666 
L 3169 4666 
L 3169 4134 
L 1269 4134 
L 1269 2991 
Q 1406 3038 1543 3061 
Q 1681 3084 1819 3084 
Q 2600 3084 3056 2656 
Q 3513 2228 3513 1497 
Q 3513 744 3044 326 
Q 2575 -91 1722 -91 
Q 1428 -91 1123 -41 
Q 819 9 494 109 
L 494 744 
Q 775 591 1075 516 
Q 1375 441 1709 441 
Q 2250 441 2565 725 
Q 2881 1009 2881 1497 
Q 2881 1984 2565 2268 
Q 2250 2553 1709 2553 
Q 1456 2553 1204 2497 
Q 953 2441 691 2322 
L 691 4666 
z
" id="DejaVuSans-35" transform="scale(0.015625)"/>
       </defs>
       <use xlink:href="#DejaVuSans-35"/>
       <use x="63.623047" xlink:href="#DejaVuSans-30"/>
      </g>
     </g>
    </g>
    <g id="text_7">
     <!-- Global Communication Rounds -->
     <g transform="translate(193.194922 412.914844)scale(0.15 -0.15)">
      <defs>
       <path d="M 3809 666 
L 3809 1919 
L 2778 1919 
L 2778 2438 
L 4434 2438 
L 4434 434 
Q 4069 175 3628 42 
Q 3188 -91 2688 -91 
Q 1594 -91 976 548 
Q 359 1188 359 2328 
Q 359 3472 976 4111 
Q 1594 4750 2688 4750 
Q 3144 4750 3555 4637 
Q 3966 4525 4313 4306 
L 4313 3634 
Q 3963 3931 3569 4081 
Q 3175 4231 2741 4231 
Q 1884 4231 1454 3753 
Q 1025 3275 1025 2328 
Q 1025 1384 1454 906 
Q 1884 428 2741 428 
Q 3075 428 3337 486 
Q 3600 544 3809 666 
z
" id="DejaVuSans-47" transform="scale(0.015625)"/>
       <path d="M 603 4863 
L 1178 4863 
L 1178 0 
L 603 0 
L 603 4863 
z
" id="DejaVuSans-6c" transform="scale(0.015625)"/>
       <path d="M 1959 3097 
Q 1497 3097 1228 2736 
Q 959 2375 959 1747 
Q 959 1119 1226 758 
Q 1494 397 1959 397 
Q 2419 397 2687 759 
Q 2956 1122 2956 1747 
Q 2956 2369 2687 2733 
Q 2419 3097 1959 3097 
z
M 1959 3584 
Q 2709 3584 3137 3096 
Q 3566 2609 3566 1747 
Q 3566 888 3137 398 
Q 2709 -91 1959 -91 
Q 1206 -91 779 398 
Q 353 888 353 1747 
Q 353 2609 779 3096 
Q 1206 3584 1959 3584 
z
" id="DejaVuSans-6f" transform="scale(0.015625)"/>
       <path d="M 3116 1747 
Q 3116 2381 2855 2742 
Q 2594 3103 2138 3103 
Q 1681 3103 1420 2742 
Q 1159 2381 1159 1747 
Q 1159 1113 1420 752 
Q 1681 391 2138 391 
Q 2594 391 2855 752 
Q 3116 1113 3116 1747 
z
M 1159 2969 
Q 1341 3281 1617 3432 
Q 1894 3584 2278 3584 
Q 2916 3584 3314 3078 
Q 3713 2572 3713 1747 
Q 3713 922 3314 415 
Q 2916 -91 2278 -91 
Q 1894 -91 1617 61 
Q 1341 213 1159 525 
L 1159 0 
L 581 0 
L 581 4863 
L 1159 4863 
L 1159 2969 
z
" id="DejaVuSans-62" transform="scale(0.015625)"/>
       <path d="M 2194 1759 
Q 1497 1759 1228 1600 
Q 959 1441 959 1056 
Q 959 750 1161 570 
Q 1363 391 1709 391 
Q 2188 391 2477 730 
Q 2766 1069 2766 1631 
L 2766 1759 
L 2194 1759 
z
M 3341 1997 
L 3341 0 
L 2766 0 
L 2766 531 
Q 2569 213 2275 61 
Q 1981 -91 1556 -91 
Q 1019 -91 701 211 
Q 384 513 384 1019 
Q 384 1609 779 1909 
Q 1175 2209 1959 2209 
L 2766 2209 
L 2766 2266 
Q 2766 2663 2505 2880 
Q 2244 3097 1772 3097 
Q 1472 3097 1187 3025 
Q 903 2953 641 2809 
L 641 3341 
Q 956 3463 1253 3523 
Q 1550 3584 1831 3584 
Q 2591 3584 2966 3190 
Q 3341 2797 3341 1997 
z
" id="DejaVuSans-61" transform="scale(0.015625)"/>
       <path id="DejaVuSans-20" transform="scale(0.015625)"/>
       <path d="M 4122 4306 
L 4122 3641 
Q 3803 3938 3442 4084 
Q 3081 4231 2675 4231 
Q 1875 4231 1450 3742 
Q 1025 3253 1025 2328 
Q 1025 1406 1450 917 
Q 1875 428 2675 428 
Q 3081 428 3442 575 
Q 3803 722 4122 1019 
L 4122 359 
Q 3791 134 3420 21 
Q 3050 -91 2638 -91 
Q 1578 -91 968 557 
Q 359 1206 359 2328 
Q 359 3453 968 4101 
Q 1578 4750 2638 4750 
Q 3056 4750 3426 4639 
Q 3797 4528 4122 4306 
z
" id="DejaVuSans-43" transform="scale(0.015625)"/>
       <path d="M 3328 2828 
Q 3544 3216 3844 3400 
Q 4144 3584 4550 3584 
Q 5097 3584 5394 3201 
Q 5691 2819 5691 2113 
L 5691 0 
L 5113 0 
L 5113 2094 
Q 5113 2597 4934 2840 
Q 4756 3084 4391 3084 
Q 3944 3084 3684 2787 
Q 3425 2491 3425 1978 
L 3425 0 
L 2847 0 
L 2847 2094 
Q 2847 2600 2669 2842 
Q 2491 3084 2119 3084 
Q 1678 3084 1418 2786 
Q 1159 2488 1159 1978 
L 1159 0 
L 581 0 
L 581 3500 
L 1159 3500 
L 1159 2956 
Q 1356 3278 1631 3431 
Q 1906 3584 2284 3584 
Q 2666 3584 2933 3390 
Q 3200 3197 3328 2828 
z
" id="DejaVuSans-6d" transform="scale(0.015625)"/>
       <path d="M 544 1381 
L 544 3500 
L 1119 3500 
L 1119 1403 
Q 1119 906 1312 657 
Q 1506 409 1894 409 
Q 2359 409 2629 706 
Q 2900 1003 2900 1516 
L 2900 3500 
L 3475 3500 
L 3475 0 
L 2900 0 
L 2900 538 
Q 2691 219 2414 64 
Q 2138 -91 1772 -91 
Q 1169 -91 856 284 
Q 544 659 544 1381 
z
M 1991 3584 
L 1991 3584 
z
" id="DejaVuSans-75" transform="scale(0.015625)"/>
       <path d="M 3513 2113 
L 3513 0 
L 2938 0 
L 2938 2094 
Q 2938 2591 2744 2837 
Q 2550 3084 2163 3084 
Q 1697 3084 1428 2787 
Q 1159 2491 1159 1978 
L 1159 0 
L 581 0 
L 581 3500 
L 1159 3500 
L 1159 2956 
Q 1366 3272 1645 3428 
Q 1925 3584 2291 3584 
Q 2894 3584 3203 3211 
Q 3513 2838 3513 2113 
z
" id="DejaVuSans-6e" transform="scale(0.015625)"/>
       <path d="M 603 3500 
L 1178 3500 
L 1178 0 
L 603 0 
L 603 3500 
z
M 603 4863 
L 1178 4863 
L 1178 4134 
L 603 4134 
L 603 4863 
z
" id="DejaVuSans-69" transform="scale(0.015625)"/>
       <path d="M 3122 3366 
L 3122 2828 
Q 2878 2963 2633 3030 
Q 2388 3097 2138 3097 
Q 1578 3097 1268 2742 
Q 959 2388 959 1747 
Q 959 1106 1268 751 
Q 1578 397 2138 397 
Q 2388 397 2633 464 
Q 2878 531 3122 666 
L 3122 134 
Q 2881 22 2623 -34 
Q 2366 -91 2075 -91 
Q 1284 -91 818 406 
Q 353 903 353 1747 
Q 353 2603 823 3093 
Q 1294 3584 2113 3584 
Q 2378 3584 2631 3529 
Q 2884 3475 3122 3366 
z
" id="DejaVuSans-63" transform="scale(0.015625)"/>
       <path d="M 1172 4494 
L 1172 3500 
L 2356 3500 
L 2356 3053 
L 1172 3053 
L 1172 1153 
Q 1172 725 1289 603 
Q 1406 481 1766 481 
L 2356 481 
L 2356 0 
L 1766 0 
Q 1100 0 847 248 
Q 594 497 594 1153 
L 594 3053 
L 172 3053 
L 172 3500 
L 594 3500 
L 594 4494 
L 1172 4494 
z
" id="DejaVuSans-74" transform="scale(0.015625)"/>
       <path d="M 2841 2188 
Q 3044 2119 3236 1894 
Q 3428 1669 3622 1275 
L 4263 0 
L 3584 0 
L 2988 1197 
Q 2756 1666 2539 1819 
Q 2322 1972 1947 1972 
L 1259 1972 
L 1259 0 
L 628 0 
L 628 4666 
L 2053 4666 
Q 2853 4666 3247 4331 
Q 3641 3997 3641 3322 
Q 3641 2881 3436 2590 
Q 3231 2300 2841 2188 
z
M 1259 4147 
L 1259 2491 
L 2053 2491 
Q 2509 2491 2742 2702 
Q 2975 2913 2975 3322 
Q 2975 3731 2742 3939 
Q 2509 4147 2053 4147 
L 1259 4147 
z
" id="DejaVuSans-52" transform="scale(0.015625)"/>
       <path d="M 2906 2969 
L 2906 4863 
L 3481 4863 
L 3481 0 
L 2906 0 
L 2906 525 
Q 2725 213 2448 61 
Q 2172 -91 1784 -91 
Q 1150 -91 751 415 
Q 353 922 353 1747 
Q 353 2572 751 3078 
Q 1150 3584 1784 3584 
Q 2172 3584 2448 3432 
Q 2725 3281 2906 2969 
z
M 947 1747 
Q 947 1113 1208 752 
Q 1469 391 1925 391 
Q 2381 391 2643 752 
Q 2906 1113 2906 1747 
Q 2906 2381 2643 2742 
Q 2381 3103 1925 3103 
Q 1469 3103 1208 2742 
Q 947 2381 947 1747 
z
" id="DejaVuSans-64" transform="scale(0.015625)"/>
       <path d="M 2834 3397 
L 2834 2853 
Q 2591 2978 2328 3040 
Q 2066 3103 1784 3103 
Q 1356 3103 1142 2972 
Q 928 2841 928 2578 
Q 928 2378 1081 2264 
Q 1234 2150 1697 2047 
L 1894 2003 
Q 2506 1872 2764 1633 
Q 3022 1394 3022 966 
Q 3022 478 2636 193 
Q 2250 -91 1575 -91 
Q 1294 -91 989 -36 
Q 684 19 347 128 
L 347 722 
Q 666 556 975 473 
Q 1284 391 1588 391 
Q 1994 391 2212 530 
Q 2431 669 2431 922 
Q 2431 1156 2273 1281 
Q 2116 1406 1581 1522 
L 1381 1569 
Q 847 1681 609 1914 
Q 372 2147 372 2553 
Q 372 3047 722 3315 
Q 1072 3584 1716 3584 
Q 2034 3584 2315 3537 
Q 2597 3491 2834 3397 
z
" id="DejaVuSans-73" transform="scale(0.015625)"/>
      </defs>
      <use xlink:href="#DejaVuSans-47"/>
      <use x="77.490234" xlink:href="#DejaVuSans-6c"/>
      <use x="105.273438" xlink:href="#DejaVuSans-6f"/>
      <use x="166.455078" xlink:href="#DejaVuSans-62"/>
      <use x="229.931641" xlink:href="#DejaVuSans-61"/>
      <use x="291.210938" xlink:href="#DejaVuSans-6c"/>
      <use x="318.994141" xlink:href="#DejaVuSans-20"/>
      <use x="350.78125" xlink:href="#DejaVuSans-43"/>
      <use x="420.605469" xlink:href="#DejaVuSans-6f"/>
      <use x="481.787109" xlink:href="#DejaVuSans-6d"/>
      <use x="579.199219" xlink:href="#DejaVuSans-6d"/>
      <use x="676.611328" xlink:href="#DejaVuSans-75"/>
      <use x="739.990234" xlink:href="#DejaVuSans-6e"/>
      <use x="803.369141" xlink:href="#DejaVuSans-69"/>
      <use x="831.152344" xlink:href="#DejaVuSans-63"/>
      <use x="886.132812" xlink:href="#DejaVuSans-61"/>
      <use x="947.412109" xlink:href="#DejaVuSans-74"/>
      <use x="986.621094" xlink:href="#DejaVuSans-69"/>
      <use x="1014.404297" xlink:href="#DejaVuSans-6f"/>
      <use x="1075.585938" xlink:href="#DejaVuSans-6e"/>
      <use x="1138.964844" xlink:href="#DejaVuSans-20"/>
      <use x="1170.751953" xlink:href="#DejaVuSans-52"/>
      <use x="1235.734375" xlink:href="#DejaVuSans-6f"/>
      <use x="1296.916016" xlink:href="#DejaVuSans-75"/>
      <use x="1360.294922" xlink:href="#DejaVuSans-6e"/>
      <use x="1423.673828" xlink:href="#DejaVuSans-64"/>
      <use x="1487.150391" xlink:href="#DejaVuSans-73"/>
     </g>
    </g>
   </g>
   <g id="matplotlib.axis_2">
    <g id="ytick_1">
     <g id="line2d_7">
      <defs>
       <path d="M 0 0 
L -3.5 0 
" id="m94b2519f0f" style="stroke:#000000;stroke-width:0.8;"/>
      </defs>
      <g>
       <use style="stroke:#000000;stroke-width:0.8;" x="60.77" xlink:href="#m94b2519f0f" y="354.133533"/>
      </g>
     </g>
     <g id="text_8">
      <!-- 10 -->
      <g transform="translate(34.6825 359.832361)scale(0.15 -0.15)">
       <use xlink:href="#DejaVuSans-31"/>
       <use x="63.623047" xlink:href="#DejaVuSans-30"/>
      </g>
     </g>
    </g>
    <g id="ytick_2">
     <g id="line2d_8">
      <g>
       <use style="stroke:#000000;stroke-width:0.8;" x="60.77" xlink:href="#m94b2519f0f" y="302.836004"/>
      </g>
     </g>
     <g id="text_9">
      <!-- 20 -->
      <g transform="translate(34.6825 308.534832)scale(0.15 -0.15)">
       <use xlink:href="#DejaVuSans-32"/>
       <use x="63.623047" xlink:href="#DejaVuSans-30"/>
      </g>
     </g>
    </g>
    <g id="ytick_3">
     <g id="line2d_9">
      <g>
       <use style="stroke:#000000;stroke-width:0.8;" x="60.77" xlink:href="#m94b2519f0f" y="251.538475"/>
      </g>
     </g>
     <g id="text_10">
      <!-- 30 -->
      <g transform="translate(34.6825 257.237303)scale(0.15 -0.15)">
       <use xlink:href="#DejaVuSans-33"/>
       <use x="63.623047" xlink:href="#DejaVuSans-30"/>
      </g>
     </g>
    </g>
    <g id="ytick_4">
     <g id="line2d_10">
      <g>
       <use style="stroke:#000000;stroke-width:0.8;" x="60.77" xlink:href="#m94b2519f0f" y="200.240946"/>
      </g>
     </g>
     <g id="text_11">
      <!-- 40 -->
      <g transform="translate(34.6825 205.939774)scale(0.15 -0.15)">
       <use xlink:href="#DejaVuSans-34"/>
       <use x="63.623047" xlink:href="#DejaVuSans-30"/>
      </g>
     </g>
    </g>
    <g id="ytick_5">
     <g id="line2d_11">
      <g>
       <use style="stroke:#000000;stroke-width:0.8;" x="60.77" xlink:href="#m94b2519f0f" y="148.943417"/>
      </g>
     </g>
     <g id="text_12">
      <!-- 50 -->
      <g transform="translate(34.6825 154.642245)scale(0.15 -0.15)">
       <use xlink:href="#DejaVuSans-35"/>
       <use x="63.623047" xlink:href="#DejaVuSans-30"/>
      </g>
     </g>
    </g>
    <g id="ytick_6">
     <g id="line2d_12">
      <g>
       <use style="stroke:#000000;stroke-width:0.8;" x="60.77" xlink:href="#m94b2519f0f" y="97.645888"/>
      </g>
     </g>
     <g id="text_13">
      <!-- 60 -->
      <g transform="translate(34.6825 103.344716)scale(0.15 -0.15)">
       <defs>
        <path d="M 2113 2584 
Q 1688 2584 1439 2293 
Q 1191 2003 1191 1497 
Q 1191 994 1439 701 
Q 1688 409 2113 409 
Q 2538 409 2786 701 
Q 3034 994 3034 1497 
Q 3034 2003 2786 2293 
Q 2538 2584 2113 2584 
z
M 3366 4563 
L 3366 3988 
Q 3128 4100 2886 4159 
Q 2644 4219 2406 4219 
Q 1781 4219 1451 3797 
Q 1122 3375 1075 2522 
Q 1259 2794 1537 2939 
Q 1816 3084 2150 3084 
Q 2853 3084 3261 2657 
Q 3669 2231 3669 1497 
Q 3669 778 3244 343 
Q 2819 -91 2113 -91 
Q 1303 -91 875 529 
Q 447 1150 447 2328 
Q 447 3434 972 4092 
Q 1497 4750 2381 4750 
Q 2619 4750 2861 4703 
Q 3103 4656 3366 4563 
z
" id="DejaVuSans-36" transform="scale(0.015625)"/>
       </defs>
       <use xlink:href="#DejaVuSans-36"/>
       <use x="63.623047" xlink:href="#DejaVuSans-30"/>
      </g>
     </g>
    </g>
    <g id="text_14">
     <!-- Test Accuracy -->
     <g transform="translate(27.562969 267.694744)rotate(-90)scale(0.15 -0.15)">
      <defs>
       <path d="M -19 4666 
L 3928 4666 
L 3928 4134 
L 2272 4134 
L 2272 0 
L 1638 0 
L 1638 4134 
L -19 4134 
L -19 4666 
z
" id="DejaVuSans-54" transform="scale(0.015625)"/>
       <path d="M 3597 1894 
L 3597 1613 
L 953 1613 
Q 991 1019 1311 708 
Q 1631 397 2203 397 
Q 2534 397 2845 478 
Q 3156 559 3463 722 
L 3463 178 
Q 3153 47 2828 -22 
Q 2503 -91 2169 -91 
Q 1331 -91 842 396 
Q 353 884 353 1716 
Q 353 2575 817 3079 
Q 1281 3584 2069 3584 
Q 2775 3584 3186 3129 
Q 3597 2675 3597 1894 
z
M 3022 2063 
Q 3016 2534 2758 2815 
Q 2500 3097 2075 3097 
Q 1594 3097 1305 2825 
Q 1016 2553 972 2059 
L 3022 2063 
z
" id="DejaVuSans-65" transform="scale(0.015625)"/>
       <path d="M 2188 4044 
L 1331 1722 
L 3047 1722 
L 2188 4044 
z
M 1831 4666 
L 2547 4666 
L 4325 0 
L 3669 0 
L 3244 1197 
L 1141 1197 
L 716 0 
L 50 0 
L 1831 4666 
z
" id="DejaVuSans-41" transform="scale(0.015625)"/>
       <path d="M 2631 2963 
Q 2534 3019 2420 3045 
Q 2306 3072 2169 3072 
Q 1681 3072 1420 2755 
Q 1159 2438 1159 1844 
L 1159 0 
L 581 0 
L 581 3500 
L 1159 3500 
L 1159 2956 
Q 1341 3275 1631 3429 
Q 1922 3584 2338 3584 
Q 2397 3584 2469 3576 
Q 2541 3569 2628 3553 
L 2631 2963 
z
" id="DejaVuSans-72" transform="scale(0.015625)"/>
       <path d="M 2059 -325 
Q 1816 -950 1584 -1140 
Q 1353 -1331 966 -1331 
L 506 -1331 
L 506 -850 
L 844 -850 
Q 1081 -850 1212 -737 
Q 1344 -625 1503 -206 
L 1606 56 
L 191 3500 
L 800 3500 
L 1894 763 
L 2988 3500 
L 3597 3500 
L 2059 -325 
z
" id="DejaVuSans-79" transform="scale(0.015625)"/>
      </defs>
      <use xlink:href="#DejaVuSans-54"/>
      <use x="44.083984" xlink:href="#DejaVuSans-65"/>
      <use x="105.607422" xlink:href="#DejaVuSans-73"/>
      <use x="157.707031" xlink:href="#DejaVuSans-74"/>
      <use x="196.916016" xlink:href="#DejaVuSans-20"/>
      <use x="228.703125" xlink:href="#DejaVuSans-41"/>
      <use x="295.361328" xlink:href="#DejaVuSans-63"/>
      <use x="350.341797" xlink:href="#DejaVuSans-63"/>
      <use x="405.322266" xlink:href="#DejaVuSans-75"/>
      <use x="468.701172" xlink:href="#DejaVuSans-72"/>
      <use x="509.814453" xlink:href="#DejaVuSans-61"/>
      <use x="571.09375" xlink:href="#DejaVuSans-63"/>
      <use x="626.074219" xlink:href="#DejaVuSans-79"/>
     </g>
    </g>
   </g>
   <g id="line2d_13">
    <path clip-path="url(#p3dc4cff05c)" d="M 83.303409 355.951673 
L 92.500719 349.588182 
L 101.698029 321.666742 
L 110.895339 316.212321 
L 120.092648 310.7579 
L 129.289958 298.680254 
L 138.487268 294.264771 
L 147.684578 276.083368 
L 156.881888 285.303937 
L 166.079198 289.070084 
L 175.276507 251.019006 
L 184.473817 261.538246 
L 193.671127 244.136047 
L 202.868437 238.292024 
L 212.065747 228.292253 
L 221.263057 236.084282 
L 230.460366 236.344017 
L 239.657676 229.720792 
L 248.854986 226.993581 
L 258.052296 226.733847 
L 267.249606 216.863943 
L 276.446916 197.77347 
L 285.644225 193.877455 
L 294.841535 201.020149 
L 304.038845 182.059543 
L 313.236155 188.423034 
L 322.433465 176.475255 
L 331.630775 184.527019 
L 340.828084 176.345388 
L 350.025394 181.799809 
L 359.222704 162.709336 
L 368.420014 156.086111 
L 377.617324 151.54076 
L 386.814634 149.592753 
L 396.011943 140.891653 
L 405.209253 128.294538 
L 414.406563 157.51465 
L 423.603873 136.735904 
L 432.801183 137.125505 
L 441.998493 122.969985 
L 451.195802 127.515335 
L 460.393112 135.826834 
L 469.590422 130.50228 
L 478.787732 124.917992 
L 487.985042 122.190782 
L 497.182352 89.074655 
L 506.379661 114.528619 
L 515.576971 116.087025 
L 524.774281 103.619777 
L 533.971591 103.360043 
" style="fill:none;stroke:#1f77b4;stroke-linecap:square;stroke-width:1.5;"/>
   </g>
   <g id="line2d_14">
    <path clip-path="url(#p3dc4cff05c)" d="M 83.303409 356.860743 
L 92.500719 352.575127 
L 101.698029 336.081997 
L 110.895339 330.237975 
L 120.092648 341.406551 
L 129.289958 329.199037 
L 138.487268 320.757672 
L 147.684578 328.419834 
L 156.881888 317.900594 
L 166.079198 333.095052 
L 175.276507 314.00458 
L 184.473817 305.563214 
L 193.671127 314.264314 
L 202.868437 295.173841 
L 212.065747 310.498166 
L 221.263057 309.718963 
L 230.460366 289.979155 
L 239.657676 322.056344 
L 248.854986 307.12162 
L 258.052296 305.173613 
L 267.249606 294.78424 
L 276.446916 315.043517 
L 285.644225 292.576498 
L 294.841535 300.108793 
L 304.038845 308.03069 
L 313.236155 312.316306 
L 322.433465 273.486025 
L 331.630775 311.017635 
L 340.828084 291.537561 
L 350.025394 285.303937 
L 359.222704 281.927391 
L 368.420014 280.10925 
L 377.617324 283.226062 
L 386.814634 272.447088 
L 396.011943 262.447316 
L 405.209253 257.901966 
L 414.406563 275.823634 
L 423.603873 254.135818 
L 432.801183 253.226748 
L 441.998493 236.473884 
L 451.195802 247.252858 
L 460.393112 256.34356 
L 469.590422 267.122534 
L 478.787732 279.979383 
L 487.985042 278.161243 
L 497.182352 225.435175 
L 506.379661 239.85043 
L 515.576971 239.980297 
L 524.774281 254.915021 
L 533.971591 239.071227 
" style="fill:none;stroke:#ff7f0e;stroke-linecap:square;stroke-width:1.5;"/>
   </g>
   <g id="line2d_15">
    <path clip-path="url(#p3dc4cff05c)" d="M 83.303409 349.847916 
L 92.500719 339.848145 
L 101.698029 314.91365 
L 110.895339 312.316306 
L 120.092648 312.835775 
L 129.289958 301.017863 
L 138.487268 297.121849 
L 147.684578 290.368756 
L 156.881888 284.914335 
L 166.079198 285.953273 
L 175.276507 273.226291 
L 184.473817 264.265457 
L 193.671127 272.447088 
L 202.868437 264.005722 
L 212.065747 241.408836 
L 221.263057 226.733847 
L 230.460366 242.967242 
L 239.657676 233.876541 
L 248.854986 232.967471 
L 258.052296 227.642917 
L 267.249606 231.14933 
L 276.446916 222.967699 
L 285.644225 219.850887 
L 294.841535 213.097795 
L 304.038845 229.071456 
L 313.236155 222.967699 
L 322.433465 227.772784 
L 331.630775 197.383868 
L 340.828084 196.994267 
L 350.025394 195.305994 
L 359.222704 175.436318 
L 368.420014 172.059772 
L 377.617324 174.007779 
L 386.814634 179.592067 
L 396.011943 172.838975 
L 405.209253 175.566185 
L 414.406563 170.7611 
L 423.603873 163.488539 
L 432.801183 165.566414 
L 441.998493 174.267513 
L 451.195802 158.163985 
L 460.393112 152.839432 
L 469.590422 148.943417 
L 478.787732 160.761329 
L 487.985042 141.800723 
L 497.182352 164.137875 
L 506.379661 143.878598 
L 515.576971 134.787896 
L 524.774281 141.151387 
L 533.971591 152.839432 
" style="fill:none;stroke:#2ca02c;stroke-linecap:square;stroke-width:1.5;"/>
   </g>
   <g id="line2d_16">
    <path clip-path="url(#p3dc4cff05c)" d="M 83.303409 354.133533 
L 92.500719 346.428644 
L 101.698029 345.977225 
L 110.895339 335.71772 
L 120.092648 327.038178 
L 129.289958 319.364067 
L 138.487268 308.396656 
L 147.684578 300.753324 
L 156.881888 292.874024 
L 166.079198 290.996534 
L 175.276507 280.69599 
L 184.473817 277.207758 
L 193.671127 274.242761 
L 202.868437 268.784704 
L 212.065747 260.187238 
L 221.263057 263.234311 
L 230.460366 256.442518 
L 239.657676 259.756339 
L 248.854986 255.088264 
L 258.052296 253.210774 
L 267.249606 246.942216 
L 276.446916 246.183013 
L 285.644225 243.782288 
L 294.841535 243.453984 
L 304.038845 243.53606 
L 313.236155 240.673658 
L 322.433465 238.919283 
L 331.630775 234.169131 
L 340.828084 230.167924 
L 350.025394 229.788322 
L 359.222704 226.084641 
L 368.420014 231.9223 
L 377.617324 218.779873 
L 386.814634 227.992909 
L 396.011943 219.108177 
L 405.209253 216.615117 
L 414.406563 214.050241 
L 423.603873 215.271122 
L 432.801183 209.269311 
L 441.998493 214.26569 
L 451.195802 206.786511 
L 460.393112 206.488985 
L 469.590422 203.031531 
L 478.787732 203.657361 
L 487.985042 204.242153 
L 497.182352 204.129299 
L 506.379661 205.042395 
L 515.576971 199.686933 
L 524.774281 196.783492 
L 533.971591 199.594597 
" style="fill:none;stroke:#d62728;stroke-linecap:square;stroke-width:1.5;"/>
   </g>
   <g id="patch_3">
    <path d="M 60.77 376 
L 60.77 56.601989 
" style="fill:none;stroke:#000000;stroke-linecap:square;stroke-linejoin:miter;stroke-width:0.8;"/>
   </g>
   <g id="patch_4">
    <path d="M 556.505 376 
L 556.505 56.601989 
" style="fill:none;stroke:#000000;stroke-linecap:square;stroke-linejoin:miter;stroke-width:0.8;"/>
   </g>
   <g id="patch_5">
    <path d="M 60.77 376 
L 556.505 376 
" style="fill:none;stroke:#000000;stroke-linecap:square;stroke-linejoin:miter;stroke-width:0.8;"/>
   </g>
   <g id="patch_6">
    <path d="M 60.77 56.601989 
L 556.505 56.601989 
" style="fill:none;stroke:#000000;stroke-linecap:square;stroke-linejoin:miter;stroke-width:0.8;"/>
   </g>
   <g id="legend_1">
    <g id="patch_7">
     <path d="M 59.039844 42.709474 
L 558.235156 42.709474 
Q 561.235156 42.709474 561.235156 39.709474 
L 561.235156 19.192287 
Q 561.235156 16.192287 558.235156 16.192287 
L 59.039844 16.192287 
Q 56.039844 16.192287 56.039844 19.192287 
L 56.039844 39.709474 
Q 56.039844 42.709474 59.039844 42.709474 
z
" style="fill:#ffffff;opacity:0.8;stroke:#cccccc;stroke-linejoin:miter;"/>
    </g>
    <g id="line2d_17">
     <path d="M 62.039844 28.339943 
L 92.039844 28.339943 
" style="fill:none;stroke:#1f77b4;stroke-linecap:square;stroke-width:1.5;"/>
    </g>
    <g id="line2d_18"/>
    <g id="text_15">
     <!-- FedAvg -->
     <g transform="translate(104.039844 33.589943)scale(0.15 -0.15)">
      <defs>
       <path d="M 628 4666 
L 3309 4666 
L 3309 4134 
L 1259 4134 
L 1259 2759 
L 3109 2759 
L 3109 2228 
L 1259 2228 
L 1259 0 
L 628 0 
L 628 4666 
z
" id="DejaVuSans-46" transform="scale(0.015625)"/>
       <path d="M 191 3500 
L 800 3500 
L 1894 563 
L 2988 3500 
L 3597 3500 
L 2284 0 
L 1503 0 
L 191 3500 
z
" id="DejaVuSans-76" transform="scale(0.015625)"/>
       <path d="M 2906 1791 
Q 2906 2416 2648 2759 
Q 2391 3103 1925 3103 
Q 1463 3103 1205 2759 
Q 947 2416 947 1791 
Q 947 1169 1205 825 
Q 1463 481 1925 481 
Q 2391 481 2648 825 
Q 2906 1169 2906 1791 
z
M 3481 434 
Q 3481 -459 3084 -895 
Q 2688 -1331 1869 -1331 
Q 1566 -1331 1297 -1286 
Q 1028 -1241 775 -1147 
L 775 -588 
Q 1028 -725 1275 -790 
Q 1522 -856 1778 -856 
Q 2344 -856 2625 -561 
Q 2906 -266 2906 331 
L 2906 616 
Q 2728 306 2450 153 
Q 2172 0 1784 0 
Q 1141 0 747 490 
Q 353 981 353 1791 
Q 353 2603 747 3093 
Q 1141 3584 1784 3584 
Q 2172 3584 2450 3431 
Q 2728 3278 2906 2969 
L 2906 3500 
L 3481 3500 
L 3481 434 
z
" id="DejaVuSans-67" transform="scale(0.015625)"/>
      </defs>
      <use xlink:href="#DejaVuSans-46"/>
      <use x="52.019531" xlink:href="#DejaVuSans-65"/>
      <use x="113.542969" xlink:href="#DejaVuSans-64"/>
      <use x="177.019531" xlink:href="#DejaVuSans-41"/>
      <use x="239.552734" xlink:href="#DejaVuSans-76"/>
      <use x="298.732422" xlink:href="#DejaVuSans-67"/>
     </g>
    </g>
    <g id="line2d_19">
     <path d="M 188.375 28.339943 
L 218.375 28.339943 
" style="fill:none;stroke:#ff7f0e;stroke-linecap:square;stroke-width:1.5;"/>
    </g>
    <g id="line2d_20"/>
    <g id="text_16">
     <!-- FedMed -->
     <g transform="translate(230.375 33.589943)scale(0.15 -0.15)">
      <defs>
       <path d="M 628 4666 
L 1569 4666 
L 2759 1491 
L 3956 4666 
L 4897 4666 
L 4897 0 
L 4281 0 
L 4281 4097 
L 3078 897 
L 2444 897 
L 1241 4097 
L 1241 0 
L 628 0 
L 628 4666 
z
" id="DejaVuSans-4d" transform="scale(0.015625)"/>
      </defs>
      <use xlink:href="#DejaVuSans-46"/>
      <use x="52.019531" xlink:href="#DejaVuSans-65"/>
      <use x="113.542969" xlink:href="#DejaVuSans-64"/>
      <use x="177.019531" xlink:href="#DejaVuSans-4d"/>
      <use x="263.298828" xlink:href="#DejaVuSans-65"/>
      <use x="324.822266" xlink:href="#DejaVuSans-64"/>
     </g>
    </g>
    <g id="line2d_21">
     <path d="M 318.624219 28.339943 
L 348.624219 28.339943 
" style="fill:none;stroke:#2ca02c;stroke-linecap:square;stroke-width:1.5;"/>
    </g>
    <g id="line2d_22"/>
    <g id="text_17">
     <!-- FedProx -->
     <g transform="translate(360.624219 33.589943)scale(0.15 -0.15)">
      <defs>
       <path d="M 1259 4147 
L 1259 2394 
L 2053 2394 
Q 2494 2394 2734 2622 
Q 2975 2850 2975 3272 
Q 2975 3691 2734 3919 
Q 2494 4147 2053 4147 
L 1259 4147 
z
M 628 4666 
L 2053 4666 
Q 2838 4666 3239 4311 
Q 3641 3956 3641 3272 
Q 3641 2581 3239 2228 
Q 2838 1875 2053 1875 
L 1259 1875 
L 1259 0 
L 628 0 
L 628 4666 
z
" id="DejaVuSans-50" transform="scale(0.015625)"/>
       <path d="M 3513 3500 
L 2247 1797 
L 3578 0 
L 2900 0 
L 1881 1375 
L 863 0 
L 184 0 
L 1544 1831 
L 300 3500 
L 978 3500 
L 1906 2253 
L 2834 3500 
L 3513 3500 
z
" id="DejaVuSans-78" transform="scale(0.015625)"/>
      </defs>
      <use xlink:href="#DejaVuSans-46"/>
      <use x="52.019531" xlink:href="#DejaVuSans-65"/>
      <use x="113.542969" xlink:href="#DejaVuSans-64"/>
      <use x="177.019531" xlink:href="#DejaVuSans-50"/>
      <use x="235.572266" xlink:href="#DejaVuSans-72"/>
      <use x="274.435547" xlink:href="#DejaVuSans-6f"/>
      <use x="332.492188" xlink:href="#DejaVuSans-78"/>
     </g>
    </g>
    <g id="line2d_23">
     <path d="M 449.377344 28.339943 
L 479.377344 28.339943 
" style="fill:none;stroke:#d62728;stroke-linecap:square;stroke-width:1.5;"/>
    </g>
    <g id="line2d_24"/>
    <g id="text_18">
     <!-- qFedAvg -->
     <g transform="translate(491.377344 33.589943)scale(0.15 -0.15)">
      <defs>
       <path d="M 947 1747 
Q 947 1113 1208 752 
Q 1469 391 1925 391 
Q 2381 391 2643 752 
Q 2906 1113 2906 1747 
Q 2906 2381 2643 2742 
Q 2381 3103 1925 3103 
Q 1469 3103 1208 2742 
Q 947 2381 947 1747 
z
M 2906 525 
Q 2725 213 2448 61 
Q 2172 -91 1784 -91 
Q 1150 -91 751 415 
Q 353 922 353 1747 
Q 353 2572 751 3078 
Q 1150 3584 1784 3584 
Q 2172 3584 2448 3432 
Q 2725 3281 2906 2969 
L 2906 3500 
L 3481 3500 
L 3481 -1331 
L 2906 -1331 
L 2906 525 
z
" id="DejaVuSans-71" transform="scale(0.015625)"/>
      </defs>
      <use xlink:href="#DejaVuSans-71"/>
      <use x="63.476562" xlink:href="#DejaVuSans-46"/>
      <use x="115.496094" xlink:href="#DejaVuSans-65"/>
      <use x="177.019531" xlink:href="#DejaVuSans-64"/>
      <use x="240.496094" xlink:href="#DejaVuSans-41"/>
      <use x="303.029297" xlink:href="#DejaVuSans-76"/>
      <use x="362.208984" xlink:href="#DejaVuSans-67"/>
     </g>
    </g>
   </g>
  </g>
 </g>
 <defs>
  <clipPath id="p3dc4cff05c">
   <rect height="319.398011" width="495.735" x="60.77" y="56.601989"/>
  </clipPath>
 </defs>
</svg>
