<?xml version="1.0" encoding="utf-8" standalone="no"?>
<!DOCTYPE svg PUBLIC "-//W3C//DTD SVG 1.1//EN"
  "http://www.w3.org/Graphics/SVG/1.1/DTD/svg11.dtd">
<svg height="345.6pt" version="1.1" viewBox="0 0 460.8 345.6" width="460.8pt" xmlns="http://www.w3.org/2000/svg" xmlns:xlink="http://www.w3.org/1999/xlink">
 <metadata>
  <rdf:RDF xmlns:cc="http://creativecommons.org/ns#" xmlns:dc="http://purl.org/dc/elements/1.1/" xmlns:rdf="http://www.w3.org/1999/02/22-rdf-syntax-ns#">
   <cc:Work>
    <dc:type rdf:resource="http://purl.org/dc/dcmitype/StillImage"/>
    <dc:date>2021-05-07T12:06:44.652457</dc:date>
    <dc:format>image/svg+xml</dc:format>
    <dc:creator>
     <cc:Agent>
      <dc:title>Matplotlib v3.4.1, https://matplotlib.org/</dc:title>
     </cc:Agent>
    </dc:creator>
   </cc:Work>
  </rdf:RDF>
 </metadata>
 <defs>
  <style type="text/css">*{stroke-linecap:butt;stroke-linejoin:round;}</style>
 </defs>
 <g id="figure_1">
  <g id="patch_1">
   <path d="M 0 345.6 
L 460.8 345.6 
L 460.8 0 
L 0 0 
z
" style="fill:#ffffff;"/>
  </g>
  <g id="axes_1">
   <g id="patch_2">
    <path d="M 44.57 303.64 
L 450 303.64 
L 450 32.876829 
L 44.57 32.876829 
z
" style="fill:#ffffff;"/>
   </g>
   <g id="PolyCollection_1">
    <path clip-path="url(#p75af9f13a3)" d="M 62.998636 284.924742 
L 62.998636 288.364134 
L 70.520529 287.753752 
L 78.042421 274.962811 
L 85.564314 269.078618 
L 93.086206 266.968193 
L 100.608098 248.48334 
L 108.129991 262.061082 
L 115.651883 234.570806 
L 123.173776 241.708172 
L 130.695668 240.892116 
L 138.21756 205.857531 
L 145.739453 229.785911 
L 153.261345 215.845527 
L 160.783237 209.906191 
L 168.30513 196.050213 
L 175.827022 199.112499 
L 183.348915 205.542321 
L 190.870807 192.088344 
L 198.392699 195.055551 
L 205.914592 198.49967 
L 213.436484 186.877829 
L 220.958377 168.293349 
L 228.480269 160.933624 
L 236.002161 192.280308 
L 243.524054 157.344357 
L 251.045946 171.917217 
L 258.567839 161.232828 
L 266.089731 160.484417 
L 273.611623 150.762135 
L 281.133516 153.354873 
L 288.655408 145.527012 
L 296.177301 142.186673 
L 303.699193 141.717347 
L 311.221085 125.943429 
L 318.742978 117.045307 
L 326.26487 103.757256 
L 333.786763 139.443322 
L 341.308655 119.986277 
L 348.830547 117.298205 
L 356.35244 105.012861 
L 363.874332 112.824066 
L 371.396224 113.878213 
L 378.918117 113.154877 
L 386.440009 105.913497 
L 393.961902 100.485013 
L 401.483794 75.625498 
L 409.005686 106.622473 
L 416.527579 94.999774 
L 424.049471 92.048158 
L 431.571364 80.793195 
L 431.571364 64.236843 
L 431.571364 64.236843 
L 424.049471 53.42225 
L 416.527579 71.608345 
L 409.005686 57.343432 
L 401.483794 45.184246 
L 393.961902 76.471777 
L 386.440009 75.667167 
L 378.918117 77.893721 
L 371.396224 86.197948 
L 363.874332 73.160288 
L 356.35244 73.265036 
L 348.830547 84.979801 
L 341.308655 81.631175 
L 333.786763 97.40365 
L 326.26487 83.548205 
L 318.742978 91.618049 
L 311.221085 97.472289 
L 303.699193 85.001138 
L 296.177301 92.238269 
L 288.655408 100.12734 
L 281.133516 124.666599 
L 273.611623 118.011588 
L 266.089731 122.160929 
L 258.567839 107.76108 
L 251.045946 117.333664 
L 243.524054 121.117484 
L 236.002161 118.328469 
L 228.480269 137.565005 
L 220.958377 136.810816 
L 213.436484 150.593456 
L 205.914592 155.705637 
L 198.392699 159.590124 
L 190.870807 167.181205 
L 183.348915 164.956638 
L 175.827022 170.946091 
L 168.30513 160.797307 
L 160.783237 163.895535 
L 153.261345 167.864502 
L 145.739453 183.428839 
L 138.21756 189.522275 
L 130.695668 219.001746 
L 123.173776 211.800341 
L 115.651883 203.304608 
L 108.129991 206.64016 
L 100.608098 227.704175 
L 93.086206 229.69648 
L 85.564314 236.833804 
L 78.042421 240.19736 
L 70.520529 274.746084 
L 62.998636 284.924742 
z
" style="fill:#1f77b4;fill-opacity:0.5;"/>
   </g>
   <g id="PolyCollection_2">
    <path clip-path="url(#p75af9f13a3)" d="M 62.998636 285.962867 
L 62.998636 288.8673 
L 70.520529 288.408535 
L 78.042421 285.425669 
L 85.564314 281.525785 
L 93.086206 286.367071 
L 100.608098 278.481757 
L 108.129991 273.959112 
L 115.651883 281.850116 
L 123.173776 270.278111 
L 130.695668 286.778462 
L 138.21756 265.470123 
L 145.739453 270.216038 
L 153.261345 271.025173 
L 160.783237 252.337244 
L 168.30513 264.759032 
L 175.827022 267.925797 
L 183.348915 259.748132 
L 190.870807 286.611729 
L 198.392699 264.380479 
L 205.914592 268.163007 
L 213.436484 264.712191 
L 220.958377 273.146053 
L 228.480269 246.346163 
L 236.002161 272.976446 
L 243.524054 267.811991 
L 251.045946 268.205212 
L 258.567839 236.896274 
L 266.089731 276.80486 
L 273.611623 259.494728 
L 281.133516 240.848644 
L 288.655408 260.196268 
L 296.177301 256.183116 
L 303.699193 242.02473 
L 311.221085 244.437581 
L 318.742978 232.524883 
L 326.26487 210.517167 
L 333.786763 260.294803 
L 341.308655 227.272119 
L 348.830547 216.179931 
L 356.35244 201.150807 
L 363.874332 225.654695 
L 371.396224 231.220042 
L 378.918117 252.506127 
L 386.440009 274.004205 
L 393.961902 267.994022 
L 401.483794 204.582068 
L 409.005686 220.385114 
L 416.527579 206.040837 
L 424.049471 252.385118 
L 431.571364 207.826765 
L 431.571364 167.296068 
L 431.571364 167.296068 
L 424.049471 149.600223 
L 416.527579 170.623287 
L 409.005686 156.058826 
L 401.483794 147.421393 
L 393.961902 173.404343 
L 386.440009 170.476744 
L 378.918117 170.176557 
L 371.396224 173.187329 
L 363.874332 163.339761 
L 356.35244 169.568336 
L 348.830547 182.943011 
L 341.308655 173.392115 
L 333.786763 177.140241 
L 326.26487 196.532418 
L 318.742978 182.231159 
L 311.221085 187.272666 
L 303.699193 207.96083 
L 296.177301 188.518017 
L 288.655408 187.587448 
L 281.133516 212.659869 
L 273.611623 204.58264 
L 266.089731 220.300182 
L 258.567839 196.575449 
L 251.045946 231.101675 
L 243.524054 224.228808 
L 236.002161 205.633099 
L 228.480269 219.492681 
L 220.958377 230.784708 
L 213.436484 204.869789 
L 205.914592 219.033733 
L 198.392699 226.119028 
L 190.870807 229.208994 
L 183.348915 201.687022 
L 175.827022 226.9774 
L 168.30513 231.465272 
L 160.783237 217.905289 
L 153.261345 231.584481 
L 145.739453 217.641255 
L 138.21756 236.699162 
L 130.695668 247.757943 
L 123.173776 238.496709 
L 115.651883 244.759648 
L 108.129991 239.659767 
L 100.608098 249.449114 
L 93.086206 262.261142 
L 85.564314 248.166562 
L 78.042421 254.17498 
L 70.520529 279.155545 
L 62.998636 285.962867 
z
" style="fill:#ff7f0e;fill-opacity:0.5;"/>
   </g>
   <g id="PolyCollection_3">
    <path clip-path="url(#p75af9f13a3)" d="M 62.998636 276.229434 
L 62.998636 286.710771 
L 70.520529 290.696983 
L 78.042421 267.723855 
L 85.564314 261.524022 
L 93.086206 259.400352 
L 100.608098 248.906161 
L 108.129991 254.205507 
L 115.651883 246.700323 
L 123.173776 236.743329 
L 130.695668 236.620369 
L 138.21756 233.148718 
L 145.739453 220.850996 
L 153.261345 229.132084 
L 160.783237 228.550564 
L 168.30513 209.952053 
L 175.827022 183.628812 
L 183.348915 204.813354 
L 190.870807 216.72124 
L 198.392699 201.075544 
L 205.914592 198.675782 
L 213.436484 201.508553 
L 220.958377 197.941882 
L 228.480269 183.686248 
L 236.002161 182.080274 
L 243.524054 209.09046 
L 251.045946 189.787708 
L 258.567839 206.218565 
L 266.089731 173.537097 
L 273.611623 170.144943 
L 281.133516 163.484759 
L 288.655408 141.118661 
L 296.177301 144.167915 
L 303.699193 139.303339 
L 311.221085 164.104802 
L 318.742978 136.464234 
L 326.26487 143.009376 
L 333.786763 145.05637 
L 341.308655 143.152682 
L 348.830547 140.258134 
L 356.35244 148.210342 
L 363.874332 130.869005 
L 371.396224 135.648275 
L 378.918117 117.394879 
L 386.440009 133.476599 
L 393.961902 126.432963 
L 401.483794 132.863442 
L 409.005686 131.661208 
L 416.527579 118.830923 
L 424.049471 128.099768 
L 431.571364 140.870834 
L 431.571364 88.049496 
L 431.571364 88.049496 
L 424.049471 81.003957 
L 416.527579 79.483763 
L 409.005686 82.066392 
L 401.483794 115.212939 
L 393.961902 83.771685 
L 386.440009 108.874985 
L 378.918117 104.919916 
L 371.396224 93.272055 
L 363.874332 107.078889 
L 356.35244 117.040429 
L 348.830547 110.240276 
L 341.308655 103.822776 
L 333.786763 114.24942 
L 326.26487 124.44324 
L 318.742978 126.364508 
L 311.221085 110.173533 
L 303.699193 125.507063 
L 296.177301 117.33972 
L 288.655408 126.11377 
L 281.133516 137.4359 
L 273.611623 133.638115 
L 266.089731 130.906514 
L 258.567839 149.748217 
L 251.045946 158.032248 
L 243.524054 149.078167 
L 236.002161 149.005661 
L 228.480269 158.849281 
L 220.958377 149.878074 
L 213.436484 160.183026 
L 205.914592 157.070816 
L 198.392699 163.698618 
L 190.870807 149.594214 
L 183.348915 176.915014 
L 175.827022 170.576495 
L 168.30513 169.1341 
L 160.783237 188.847692 
L 153.261345 202.578163 
L 145.739453 196.987629 
L 138.21756 199.882637 
L 130.695668 217.989066 
L 123.173776 216.10463 
L 115.651883 215.395384 
L 108.129991 219.339795 
L 100.608098 231.244675 
L 93.086206 240.787273 
L 85.564314 237.782865 
L 78.042421 235.986722 
L 70.520529 255.289016 
L 62.998636 276.229434 
z
" style="fill:#2ca02c;fill-opacity:0.5;"/>
   </g>
   <g id="PolyCollection_4">
    <path clip-path="url(#p75af9f13a3)" d="M 62.998636 285.103147 
L 62.998636 285.103147 
L 70.520529 291.332583 
L 78.042421 286.509385 
L 85.564314 281.293738 
L 93.086206 277.984054 
L 100.608098 276.535827 
L 108.129991 264.62905 
L 115.651883 256.479355 
L 123.173776 254.201487 
L 130.695668 254.211585 
L 138.21756 246.738014 
L 145.739453 247.265335 
L 153.261345 240.386003 
L 160.783237 239.074034 
L 168.30513 230.806309 
L 175.827022 236.576605 
L 183.348915 224.510355 
L 190.870807 233.894875 
L 198.392699 227.814873 
L 205.914592 227.594688 
L 213.436484 213.382395 
L 220.958377 222.864712 
L 228.480269 216.260478 
L 236.002161 216.651682 
L 243.524054 216.362106 
L 251.045946 209.696742 
L 258.567839 211.164891 
L 266.089731 206.273389 
L 273.611623 196.308687 
L 281.133516 202.185771 
L 288.655408 196.082901 
L 296.177301 202.161109 
L 303.699193 184.277629 
L 311.221085 204.337359 
L 318.742978 194.03793 
L 326.26487 194.227072 
L 333.786763 185.537266 
L 341.308655 189.57623 
L 348.830547 179.467312 
L 356.35244 178.666806 
L 363.874332 181.370922 
L 371.396224 178.898643 
L 378.918117 178.506873 
L 386.440009 173.190283 
L 393.961902 174.816539 
L 401.483794 177.712762 
L 409.005686 181.73611 
L 416.527579 174.25886 
L 424.049471 168.270657 
L 431.571364 172.687944 
L 431.571364 135.503867 
L 431.571364 135.503867 
L 424.049471 135.155041 
L 416.527579 134.089502 
L 409.005686 135.69222 
L 401.483794 138.167452 
L 393.961902 141.255015 
L 386.440009 141.889781 
L 378.918117 135.512121 
L 371.396224 140.982323 
L 363.874332 139.014486 
L 356.35244 154.399248 
L 348.830547 145.127584 
L 341.308655 145.194492 
L 333.786763 147.163501 
L 326.26487 142.822339 
L 318.742978 147.238363 
L 311.221085 152.002636 
L 303.699193 156.442037 
L 296.177301 160.841008 
L 288.655408 157.021703 
L 281.133516 157.198275 
L 273.611623 163.718958 
L 266.089731 160.53814 
L 258.567839 163.700326 
L 251.045946 168.142948 
L 243.524054 166.33067 
L 236.002161 165.901937 
L 228.480269 166.849768 
L 220.958377 164.315864 
L 213.436484 175.085379 
L 205.914592 171.501172 
L 198.392699 174.464194 
L 190.870807 176.298724 
L 183.348915 180.064796 
L 175.827022 179.513755 
L 168.30513 180.117862 
L 160.783237 186.426791 
L 153.261345 194.368735 
L 145.739453 192.516436 
L 138.21756 198.957912 
L 130.695668 208.948494 
L 123.173776 212.1418 
L 115.651883 223.222965 
L 108.129991 228.032228 
L 100.608098 234.720253 
L 93.086206 246.283167 
L 85.564314 257.689293 
L 78.042421 269.868221 
L 70.520529 265.810385 
L 62.998636 285.103147 
z
" style="fill:#d62728;fill-opacity:0.5;"/>
   </g>
   <g id="matplotlib.axis_1">
    <g id="xtick_1">
     <g id="line2d_1">
      <defs>
       <path d="M 0 0 
L 0 3.5 
" id="mfed7f992be" style="stroke:#000000;stroke-width:0.8;"/>
      </defs>
      <g>
       <use style="stroke:#000000;stroke-width:0.8;" x="62.998636" xlink:href="#mfed7f992be" y="303.64"/>
      </g>
     </g>
     <g id="text_1">
      <!-- 0 -->
      <g transform="translate(59.817386 318.238437)scale(0.1 -0.1)">
       <defs>
        <path d="M 2034 4250 
Q 1547 4250 1301 3770 
Q 1056 3291 1056 2328 
Q 1056 1369 1301 889 
Q 1547 409 2034 409 
Q 2525 409 2770 889 
Q 3016 1369 3016 2328 
Q 3016 3291 2770 3770 
Q 2525 4250 2034 4250 
z
M 2034 4750 
Q 2819 4750 3233 4129 
Q 3647 3509 3647 2328 
Q 3647 1150 3233 529 
Q 2819 -91 2034 -91 
Q 1250 -91 836 529 
Q 422 1150 422 2328 
Q 422 3509 836 4129 
Q 1250 4750 2034 4750 
z
" id="DejaVuSans-30" transform="scale(0.015625)"/>
       </defs>
       <use xlink:href="#DejaVuSans-30"/>
      </g>
     </g>
    </g>
    <g id="xtick_2">
     <g id="line2d_2">
      <g>
       <use style="stroke:#000000;stroke-width:0.8;" x="138.21756" xlink:href="#mfed7f992be" y="303.64"/>
      </g>
     </g>
     <g id="text_2">
      <!-- 10 -->
      <g transform="translate(131.85506 318.238437)scale(0.1 -0.1)">
       <defs>
        <path d="M 794 531 
L 1825 531 
L 1825 4091 
L 703 3866 
L 703 4441 
L 1819 4666 
L 2450 4666 
L 2450 531 
L 3481 531 
L 3481 0 
L 794 0 
L 794 531 
z
" id="DejaVuSans-31" transform="scale(0.015625)"/>
       </defs>
       <use xlink:href="#DejaVuSans-31"/>
       <use x="63.623047" xlink:href="#DejaVuSans-30"/>
      </g>
     </g>
    </g>
    <g id="xtick_3">
     <g id="line2d_3">
      <g>
       <use style="stroke:#000000;stroke-width:0.8;" x="213.436484" xlink:href="#mfed7f992be" y="303.64"/>
      </g>
     </g>
     <g id="text_3">
      <!-- 20 -->
      <g transform="translate(207.073984 318.238437)scale(0.1 -0.1)">
       <defs>
        <path d="M 1228 531 
L 3431 531 
L 3431 0 
L 469 0 
L 469 531 
Q 828 903 1448 1529 
Q 2069 2156 2228 2338 
Q 2531 2678 2651 2914 
Q 2772 3150 2772 3378 
Q 2772 3750 2511 3984 
Q 2250 4219 1831 4219 
Q 1534 4219 1204 4116 
Q 875 4013 500 3803 
L 500 4441 
Q 881 4594 1212 4672 
Q 1544 4750 1819 4750 
Q 2544 4750 2975 4387 
Q 3406 4025 3406 3419 
Q 3406 3131 3298 2873 
Q 3191 2616 2906 2266 
Q 2828 2175 2409 1742 
Q 1991 1309 1228 531 
z
" id="DejaVuSans-32" transform="scale(0.015625)"/>
       </defs>
       <use xlink:href="#DejaVuSans-32"/>
       <use x="63.623047" xlink:href="#DejaVuSans-30"/>
      </g>
     </g>
    </g>
    <g id="xtick_4">
     <g id="line2d_4">
      <g>
       <use style="stroke:#000000;stroke-width:0.8;" x="288.655408" xlink:href="#mfed7f992be" y="303.64"/>
      </g>
     </g>
     <g id="text_4">
      <!-- 30 -->
      <g transform="translate(282.292908 318.238437)scale(0.1 -0.1)">
       <defs>
        <path d="M 2597 2516 
Q 3050 2419 3304 2112 
Q 3559 1806 3559 1356 
Q 3559 666 3084 287 
Q 2609 -91 1734 -91 
Q 1441 -91 1130 -33 
Q 819 25 488 141 
L 488 750 
Q 750 597 1062 519 
Q 1375 441 1716 441 
Q 2309 441 2620 675 
Q 2931 909 2931 1356 
Q 2931 1769 2642 2001 
Q 2353 2234 1838 2234 
L 1294 2234 
L 1294 2753 
L 1863 2753 
Q 2328 2753 2575 2939 
Q 2822 3125 2822 3475 
Q 2822 3834 2567 4026 
Q 2313 4219 1838 4219 
Q 1578 4219 1281 4162 
Q 984 4106 628 3988 
L 628 4550 
Q 988 4650 1302 4700 
Q 1616 4750 1894 4750 
Q 2613 4750 3031 4423 
Q 3450 4097 3450 3541 
Q 3450 3153 3228 2886 
Q 3006 2619 2597 2516 
z
" id="DejaVuSans-33" transform="scale(0.015625)"/>
       </defs>
       <use xlink:href="#DejaVuSans-33"/>
       <use x="63.623047" xlink:href="#DejaVuSans-30"/>
      </g>
     </g>
    </g>
    <g id="xtick_5">
     <g id="line2d_5">
      <g>
       <use style="stroke:#000000;stroke-width:0.8;" x="363.874332" xlink:href="#mfed7f992be" y="303.64"/>
      </g>
     </g>
     <g id="text_5">
      <!-- 40 -->
      <g transform="translate(357.511832 318.238437)scale(0.1 -0.1)">
       <defs>
        <path d="M 2419 4116 
L 825 1625 
L 2419 1625 
L 2419 4116 
z
M 2253 4666 
L 3047 4666 
L 3047 1625 
L 3713 1625 
L 3713 1100 
L 3047 1100 
L 3047 0 
L 2419 0 
L 2419 1100 
L 313 1100 
L 313 1709 
L 2253 4666 
z
" id="DejaVuSans-34" transform="scale(0.015625)"/>
       </defs>
       <use xlink:href="#DejaVuSans-34"/>
       <use x="63.623047" xlink:href="#DejaVuSans-30"/>
      </g>
     </g>
    </g>
    <g id="xtick_6">
     <g id="line2d_6">
      <g>
       <use style="stroke:#000000;stroke-width:0.8;" x="439.093256" xlink:href="#mfed7f992be" y="303.64"/>
      </g>
     </g>
     <g id="text_6">
      <!-- 50 -->
      <g transform="translate(432.730756 318.238437)scale(0.1 -0.1)">
       <defs>
        <path d="M 691 4666 
L 3169 4666 
L 3169 4134 
L 1269 4134 
L 1269 2991 
Q 1406 3038 1543 3061 
Q 1681 3084 1819 3084 
Q 2600 3084 3056 2656 
Q 3513 2228 3513 1497 
Q 3513 744 3044 326 
Q 2575 -91 1722 -91 
Q 1428 -91 1123 -41 
Q 819 9 494 109 
L 494 744 
Q 775 591 1075 516 
Q 1375 441 1709 441 
Q 2250 441 2565 725 
Q 2881 1009 2881 1497 
Q 2881 1984 2565 2268 
Q 2250 2553 1709 2553 
Q 1456 2553 1204 2497 
Q 953 2441 691 2322 
L 691 4666 
z
" id="DejaVuSans-35" transform="scale(0.015625)"/>
       </defs>
       <use xlink:href="#DejaVuSans-35"/>
       <use x="63.623047" xlink:href="#DejaVuSans-30"/>
      </g>
     </g>
    </g>
    <g id="text_7">
     <!-- Global Communication Rounds -->
     <g transform="translate(170.323281 331.916562)scale(0.1 -0.1)">
      <defs>
       <path d="M 3809 666 
L 3809 1919 
L 2778 1919 
L 2778 2438 
L 4434 2438 
L 4434 434 
Q 4069 175 3628 42 
Q 3188 -91 2688 -91 
Q 1594 -91 976 548 
Q 359 1188 359 2328 
Q 359 3472 976 4111 
Q 1594 4750 2688 4750 
Q 3144 4750 3555 4637 
Q 3966 4525 4313 4306 
L 4313 3634 
Q 3963 3931 3569 4081 
Q 3175 4231 2741 4231 
Q 1884 4231 1454 3753 
Q 1025 3275 1025 2328 
Q 1025 1384 1454 906 
Q 1884 428 2741 428 
Q 3075 428 3337 486 
Q 3600 544 3809 666 
z
" id="DejaVuSans-47" transform="scale(0.015625)"/>
       <path d="M 603 4863 
L 1178 4863 
L 1178 0 
L 603 0 
L 603 4863 
z
" id="DejaVuSans-6c" transform="scale(0.015625)"/>
       <path d="M 1959 3097 
Q 1497 3097 1228 2736 
Q 959 2375 959 1747 
Q 959 1119 1226 758 
Q 1494 397 1959 397 
Q 2419 397 2687 759 
Q 2956 1122 2956 1747 
Q 2956 2369 2687 2733 
Q 2419 3097 1959 3097 
z
M 1959 3584 
Q 2709 3584 3137 3096 
Q 3566 2609 3566 1747 
Q 3566 888 3137 398 
Q 2709 -91 1959 -91 
Q 1206 -91 779 398 
Q 353 888 353 1747 
Q 353 2609 779 3096 
Q 1206 3584 1959 3584 
z
" id="DejaVuSans-6f" transform="scale(0.015625)"/>
       <path d="M 3116 1747 
Q 3116 2381 2855 2742 
Q 2594 3103 2138 3103 
Q 1681 3103 1420 2742 
Q 1159 2381 1159 1747 
Q 1159 1113 1420 752 
Q 1681 391 2138 391 
Q 2594 391 2855 752 
Q 3116 1113 3116 1747 
z
M 1159 2969 
Q 1341 3281 1617 3432 
Q 1894 3584 2278 3584 
Q 2916 3584 3314 3078 
Q 3713 2572 3713 1747 
Q 3713 922 3314 415 
Q 2916 -91 2278 -91 
Q 1894 -91 1617 61 
Q 1341 213 1159 525 
L 1159 0 
L 581 0 
L 581 4863 
L 1159 4863 
L 1159 2969 
z
" id="DejaVuSans-62" transform="scale(0.015625)"/>
       <path d="M 2194 1759 
Q 1497 1759 1228 1600 
Q 959 1441 959 1056 
Q 959 750 1161 570 
Q 1363 391 1709 391 
Q 2188 391 2477 730 
Q 2766 1069 2766 1631 
L 2766 1759 
L 2194 1759 
z
M 3341 1997 
L 3341 0 
L 2766 0 
L 2766 531 
Q 2569 213 2275 61 
Q 1981 -91 1556 -91 
Q 1019 -91 701 211 
Q 384 513 384 1019 
Q 384 1609 779 1909 
Q 1175 2209 1959 2209 
L 2766 2209 
L 2766 2266 
Q 2766 2663 2505 2880 
Q 2244 3097 1772 3097 
Q 1472 3097 1187 3025 
Q 903 2953 641 2809 
L 641 3341 
Q 956 3463 1253 3523 
Q 1550 3584 1831 3584 
Q 2591 3584 2966 3190 
Q 3341 2797 3341 1997 
z
" id="DejaVuSans-61" transform="scale(0.015625)"/>
       <path id="DejaVuSans-20" transform="scale(0.015625)"/>
       <path d="M 4122 4306 
L 4122 3641 
Q 3803 3938 3442 4084 
Q 3081 4231 2675 4231 
Q 1875 4231 1450 3742 
Q 1025 3253 1025 2328 
Q 1025 1406 1450 917 
Q 1875 428 2675 428 
Q 3081 428 3442 575 
Q 3803 722 4122 1019 
L 4122 359 
Q 3791 134 3420 21 
Q 3050 -91 2638 -91 
Q 1578 -91 968 557 
Q 359 1206 359 2328 
Q 359 3453 968 4101 
Q 1578 4750 2638 4750 
Q 3056 4750 3426 4639 
Q 3797 4528 4122 4306 
z
" id="DejaVuSans-43" transform="scale(0.015625)"/>
       <path d="M 3328 2828 
Q 3544 3216 3844 3400 
Q 4144 3584 4550 3584 
Q 5097 3584 5394 3201 
Q 5691 2819 5691 2113 
L 5691 0 
L 5113 0 
L 5113 2094 
Q 5113 2597 4934 2840 
Q 4756 3084 4391 3084 
Q 3944 3084 3684 2787 
Q 3425 2491 3425 1978 
L 3425 0 
L 2847 0 
L 2847 2094 
Q 2847 2600 2669 2842 
Q 2491 3084 2119 3084 
Q 1678 3084 1418 2786 
Q 1159 2488 1159 1978 
L 1159 0 
L 581 0 
L 581 3500 
L 1159 3500 
L 1159 2956 
Q 1356 3278 1631 3431 
Q 1906 3584 2284 3584 
Q 2666 3584 2933 3390 
Q 3200 3197 3328 2828 
z
" id="DejaVuSans-6d" transform="scale(0.015625)"/>
       <path d="M 544 1381 
L 544 3500 
L 1119 3500 
L 1119 1403 
Q 1119 906 1312 657 
Q 1506 409 1894 409 
Q 2359 409 2629 706 
Q 2900 1003 2900 1516 
L 2900 3500 
L 3475 3500 
L 3475 0 
L 2900 0 
L 2900 538 
Q 2691 219 2414 64 
Q 2138 -91 1772 -91 
Q 1169 -91 856 284 
Q 544 659 544 1381 
z
M 1991 3584 
L 1991 3584 
z
" id="DejaVuSans-75" transform="scale(0.015625)"/>
       <path d="M 3513 2113 
L 3513 0 
L 2938 0 
L 2938 2094 
Q 2938 2591 2744 2837 
Q 2550 3084 2163 3084 
Q 1697 3084 1428 2787 
Q 1159 2491 1159 1978 
L 1159 0 
L 581 0 
L 581 3500 
L 1159 3500 
L 1159 2956 
Q 1366 3272 1645 3428 
Q 1925 3584 2291 3584 
Q 2894 3584 3203 3211 
Q 3513 2838 3513 2113 
z
" id="DejaVuSans-6e" transform="scale(0.015625)"/>
       <path d="M 603 3500 
L 1178 3500 
L 1178 0 
L 603 0 
L 603 3500 
z
M 603 4863 
L 1178 4863 
L 1178 4134 
L 603 4134 
L 603 4863 
z
" id="DejaVuSans-69" transform="scale(0.015625)"/>
       <path d="M 3122 3366 
L 3122 2828 
Q 2878 2963 2633 3030 
Q 2388 3097 2138 3097 
Q 1578 3097 1268 2742 
Q 959 2388 959 1747 
Q 959 1106 1268 751 
Q 1578 397 2138 397 
Q 2388 397 2633 464 
Q 2878 531 3122 666 
L 3122 134 
Q 2881 22 2623 -34 
Q 2366 -91 2075 -91 
Q 1284 -91 818 406 
Q 353 903 353 1747 
Q 353 2603 823 3093 
Q 1294 3584 2113 3584 
Q 2378 3584 2631 3529 
Q 2884 3475 3122 3366 
z
" id="DejaVuSans-63" transform="scale(0.015625)"/>
       <path d="M 1172 4494 
L 1172 3500 
L 2356 3500 
L 2356 3053 
L 1172 3053 
L 1172 1153 
Q 1172 725 1289 603 
Q 1406 481 1766 481 
L 2356 481 
L 2356 0 
L 1766 0 
Q 1100 0 847 248 
Q 594 497 594 1153 
L 594 3053 
L 172 3053 
L 172 3500 
L 594 3500 
L 594 4494 
L 1172 4494 
z
" id="DejaVuSans-74" transform="scale(0.015625)"/>
       <path d="M 2841 2188 
Q 3044 2119 3236 1894 
Q 3428 1669 3622 1275 
L 4263 0 
L 3584 0 
L 2988 1197 
Q 2756 1666 2539 1819 
Q 2322 1972 1947 1972 
L 1259 1972 
L 1259 0 
L 628 0 
L 628 4666 
L 2053 4666 
Q 2853 4666 3247 4331 
Q 3641 3997 3641 3322 
Q 3641 2881 3436 2590 
Q 3231 2300 2841 2188 
z
M 1259 4147 
L 1259 2491 
L 2053 2491 
Q 2509 2491 2742 2702 
Q 2975 2913 2975 3322 
Q 2975 3731 2742 3939 
Q 2509 4147 2053 4147 
L 1259 4147 
z
" id="DejaVuSans-52" transform="scale(0.015625)"/>
       <path d="M 2906 2969 
L 2906 4863 
L 3481 4863 
L 3481 0 
L 2906 0 
L 2906 525 
Q 2725 213 2448 61 
Q 2172 -91 1784 -91 
Q 1150 -91 751 415 
Q 353 922 353 1747 
Q 353 2572 751 3078 
Q 1150 3584 1784 3584 
Q 2172 3584 2448 3432 
Q 2725 3281 2906 2969 
z
M 947 1747 
Q 947 1113 1208 752 
Q 1469 391 1925 391 
Q 2381 391 2643 752 
Q 2906 1113 2906 1747 
Q 2906 2381 2643 2742 
Q 2381 3103 1925 3103 
Q 1469 3103 1208 2742 
Q 947 2381 947 1747 
z
" id="DejaVuSans-64" transform="scale(0.015625)"/>
       <path d="M 2834 3397 
L 2834 2853 
Q 2591 2978 2328 3040 
Q 2066 3103 1784 3103 
Q 1356 3103 1142 2972 
Q 928 2841 928 2578 
Q 928 2378 1081 2264 
Q 1234 2150 1697 2047 
L 1894 2003 
Q 2506 1872 2764 1633 
Q 3022 1394 3022 966 
Q 3022 478 2636 193 
Q 2250 -91 1575 -91 
Q 1294 -91 989 -36 
Q 684 19 347 128 
L 347 722 
Q 666 556 975 473 
Q 1284 391 1588 391 
Q 1994 391 2212 530 
Q 2431 669 2431 922 
Q 2431 1156 2273 1281 
Q 2116 1406 1581 1522 
L 1381 1569 
Q 847 1681 609 1914 
Q 372 2147 372 2553 
Q 372 3047 722 3315 
Q 1072 3584 1716 3584 
Q 2034 3584 2315 3537 
Q 2597 3491 2834 3397 
z
" id="DejaVuSans-73" transform="scale(0.015625)"/>
      </defs>
      <use xlink:href="#DejaVuSans-47"/>
      <use x="77.490234" xlink:href="#DejaVuSans-6c"/>
      <use x="105.273438" xlink:href="#DejaVuSans-6f"/>
      <use x="166.455078" xlink:href="#DejaVuSans-62"/>
      <use x="229.931641" xlink:href="#DejaVuSans-61"/>
      <use x="291.210938" xlink:href="#DejaVuSans-6c"/>
      <use x="318.994141" xlink:href="#DejaVuSans-20"/>
      <use x="350.78125" xlink:href="#DejaVuSans-43"/>
      <use x="420.605469" xlink:href="#DejaVuSans-6f"/>
      <use x="481.787109" xlink:href="#DejaVuSans-6d"/>
      <use x="579.199219" xlink:href="#DejaVuSans-6d"/>
      <use x="676.611328" xlink:href="#DejaVuSans-75"/>
      <use x="739.990234" xlink:href="#DejaVuSans-6e"/>
      <use x="803.369141" xlink:href="#DejaVuSans-69"/>
      <use x="831.152344" xlink:href="#DejaVuSans-63"/>
      <use x="886.132812" xlink:href="#DejaVuSans-61"/>
      <use x="947.412109" xlink:href="#DejaVuSans-74"/>
      <use x="986.621094" xlink:href="#DejaVuSans-69"/>
      <use x="1014.404297" xlink:href="#DejaVuSans-6f"/>
      <use x="1075.585938" xlink:href="#DejaVuSans-6e"/>
      <use x="1138.964844" xlink:href="#DejaVuSans-20"/>
      <use x="1170.751953" xlink:href="#DejaVuSans-52"/>
      <use x="1235.734375" xlink:href="#DejaVuSans-6f"/>
      <use x="1296.916016" xlink:href="#DejaVuSans-75"/>
      <use x="1360.294922" xlink:href="#DejaVuSans-6e"/>
      <use x="1423.673828" xlink:href="#DejaVuSans-64"/>
      <use x="1487.150391" xlink:href="#DejaVuSans-73"/>
     </g>
    </g>
   </g>
   <g id="matplotlib.axis_2">
    <g id="ytick_1">
     <g id="line2d_7">
      <defs>
       <path d="M 0 0 
L -3.5 0 
" id="m2562775f77" style="stroke:#000000;stroke-width:0.8;"/>
      </defs>
      <g>
       <use style="stroke:#000000;stroke-width:0.8;" x="44.57" xlink:href="#m2562775f77" y="285.103147"/>
      </g>
     </g>
     <g id="text_8">
      <!-- 10 -->
      <g transform="translate(24.845 288.902365)scale(0.1 -0.1)">
       <use xlink:href="#DejaVuSans-31"/>
       <use x="63.623047" xlink:href="#DejaVuSans-30"/>
      </g>
     </g>
    </g>
    <g id="ytick_2">
     <g id="line2d_8">
      <g>
       <use style="stroke:#000000;stroke-width:0.8;" x="44.57" xlink:href="#m2562775f77" y="241.616709"/>
      </g>
     </g>
     <g id="text_9">
      <!-- 20 -->
      <g transform="translate(24.845 245.415928)scale(0.1 -0.1)">
       <use xlink:href="#DejaVuSans-32"/>
       <use x="63.623047" xlink:href="#DejaVuSans-30"/>
      </g>
     </g>
    </g>
    <g id="ytick_3">
     <g id="line2d_9">
      <g>
       <use style="stroke:#000000;stroke-width:0.8;" x="44.57" xlink:href="#m2562775f77" y="198.130272"/>
      </g>
     </g>
     <g id="text_10">
      <!-- 30 -->
      <g transform="translate(24.845 201.929491)scale(0.1 -0.1)">
       <use xlink:href="#DejaVuSans-33"/>
       <use x="63.623047" xlink:href="#DejaVuSans-30"/>
      </g>
     </g>
    </g>
    <g id="ytick_4">
     <g id="line2d_10">
      <g>
       <use style="stroke:#000000;stroke-width:0.8;" x="44.57" xlink:href="#m2562775f77" y="154.643835"/>
      </g>
     </g>
     <g id="text_11">
      <!-- 40 -->
      <g transform="translate(24.845 158.443054)scale(0.1 -0.1)">
       <use xlink:href="#DejaVuSans-34"/>
       <use x="63.623047" xlink:href="#DejaVuSans-30"/>
      </g>
     </g>
    </g>
    <g id="ytick_5">
     <g id="line2d_11">
      <g>
       <use style="stroke:#000000;stroke-width:0.8;" x="44.57" xlink:href="#m2562775f77" y="111.157398"/>
      </g>
     </g>
     <g id="text_12">
      <!-- 50 -->
      <g transform="translate(24.845 114.956616)scale(0.1 -0.1)">
       <use xlink:href="#DejaVuSans-35"/>
       <use x="63.623047" xlink:href="#DejaVuSans-30"/>
      </g>
     </g>
    </g>
    <g id="ytick_6">
     <g id="line2d_12">
      <g>
       <use style="stroke:#000000;stroke-width:0.8;" x="44.57" xlink:href="#m2562775f77" y="67.67096"/>
      </g>
     </g>
     <g id="text_13">
      <!-- 60 -->
      <g transform="translate(24.845 71.470179)scale(0.1 -0.1)">
       <defs>
        <path d="M 2113 2584 
Q 1688 2584 1439 2293 
Q 1191 2003 1191 1497 
Q 1191 994 1439 701 
Q 1688 409 2113 409 
Q 2538 409 2786 701 
Q 3034 994 3034 1497 
Q 3034 2003 2786 2293 
Q 2538 2584 2113 2584 
z
M 3366 4563 
L 3366 3988 
Q 3128 4100 2886 4159 
Q 2644 4219 2406 4219 
Q 1781 4219 1451 3797 
Q 1122 3375 1075 2522 
Q 1259 2794 1537 2939 
Q 1816 3084 2150 3084 
Q 2853 3084 3261 2657 
Q 3669 2231 3669 1497 
Q 3669 778 3244 343 
Q 2819 -91 2113 -91 
Q 1303 -91 875 529 
Q 447 1150 447 2328 
Q 447 3434 972 4092 
Q 1497 4750 2381 4750 
Q 2619 4750 2861 4703 
Q 3103 4656 3366 4563 
z
" id="DejaVuSans-36" transform="scale(0.015625)"/>
       </defs>
       <use xlink:href="#DejaVuSans-36"/>
       <use x="63.623047" xlink:href="#DejaVuSans-30"/>
      </g>
     </g>
    </g>
    <g id="text_14">
     <!-- Test Accuracy -->
     <g transform="translate(18.765313 202.520914)rotate(-90)scale(0.1 -0.1)">
      <defs>
       <path d="M -19 4666 
L 3928 4666 
L 3928 4134 
L 2272 4134 
L 2272 0 
L 1638 0 
L 1638 4134 
L -19 4134 
L -19 4666 
z
" id="DejaVuSans-54" transform="scale(0.015625)"/>
       <path d="M 3597 1894 
L 3597 1613 
L 953 1613 
Q 991 1019 1311 708 
Q 1631 397 2203 397 
Q 2534 397 2845 478 
Q 3156 559 3463 722 
L 3463 178 
Q 3153 47 2828 -22 
Q 2503 -91 2169 -91 
Q 1331 -91 842 396 
Q 353 884 353 1716 
Q 353 2575 817 3079 
Q 1281 3584 2069 3584 
Q 2775 3584 3186 3129 
Q 3597 2675 3597 1894 
z
M 3022 2063 
Q 3016 2534 2758 2815 
Q 2500 3097 2075 3097 
Q 1594 3097 1305 2825 
Q 1016 2553 972 2059 
L 3022 2063 
z
" id="DejaVuSans-65" transform="scale(0.015625)"/>
       <path d="M 2188 4044 
L 1331 1722 
L 3047 1722 
L 2188 4044 
z
M 1831 4666 
L 2547 4666 
L 4325 0 
L 3669 0 
L 3244 1197 
L 1141 1197 
L 716 0 
L 50 0 
L 1831 4666 
z
" id="DejaVuSans-41" transform="scale(0.015625)"/>
       <path d="M 2631 2963 
Q 2534 3019 2420 3045 
Q 2306 3072 2169 3072 
Q 1681 3072 1420 2755 
Q 1159 2438 1159 1844 
L 1159 0 
L 581 0 
L 581 3500 
L 1159 3500 
L 1159 2956 
Q 1341 3275 1631 3429 
Q 1922 3584 2338 3584 
Q 2397 3584 2469 3576 
Q 2541 3569 2628 3553 
L 2631 2963 
z
" id="DejaVuSans-72" transform="scale(0.015625)"/>
       <path d="M 2059 -325 
Q 1816 -950 1584 -1140 
Q 1353 -1331 966 -1331 
L 506 -1331 
L 506 -850 
L 844 -850 
Q 1081 -850 1212 -737 
Q 1344 -625 1503 -206 
L 1606 56 
L 191 3500 
L 800 3500 
L 1894 763 
L 2988 3500 
L 3597 3500 
L 2059 -325 
z
" id="DejaVuSans-79" transform="scale(0.015625)"/>
      </defs>
      <use xlink:href="#DejaVuSans-54"/>
      <use x="44.083984" xlink:href="#DejaVuSans-65"/>
      <use x="105.607422" xlink:href="#DejaVuSans-73"/>
      <use x="157.707031" xlink:href="#DejaVuSans-74"/>
      <use x="196.916016" xlink:href="#DejaVuSans-20"/>
      <use x="228.703125" xlink:href="#DejaVuSans-41"/>
      <use x="295.361328" xlink:href="#DejaVuSans-63"/>
      <use x="350.341797" xlink:href="#DejaVuSans-63"/>
      <use x="405.322266" xlink:href="#DejaVuSans-75"/>
      <use x="468.701172" xlink:href="#DejaVuSans-72"/>
      <use x="509.814453" xlink:href="#DejaVuSans-61"/>
      <use x="571.09375" xlink:href="#DejaVuSans-63"/>
      <use x="626.074219" xlink:href="#DejaVuSans-79"/>
     </g>
    </g>
   </g>
   <g id="line2d_13">
    <path clip-path="url(#p75af9f13a3)" d="M 62.998636 286.644438 
L 70.520529 281.249918 
L 78.042421 257.580085 
L 85.564314 252.956211 
L 93.086206 248.332336 
L 100.608098 238.093758 
L 108.129991 234.350621 
L 115.651883 218.937707 
L 123.173776 226.754256 
L 130.695668 229.946931 
L 138.21756 197.689903 
L 145.739453 206.607375 
L 153.261345 191.855014 
L 160.783237 186.900863 
L 168.30513 178.42376 
L 175.827022 185.029295 
L 183.348915 185.249479 
L 190.870807 179.634775 
L 198.392699 177.322838 
L 205.914592 177.102653 
L 213.436484 168.735642 
L 220.958377 152.552082 
L 228.480269 149.249315 
L 236.002161 155.304388 
L 243.524054 139.23092 
L 251.045946 144.62544 
L 258.567839 134.496954 
L 266.089731 141.322673 
L 273.611623 134.386862 
L 281.133516 139.010736 
L 288.655408 122.827176 
L 296.177301 117.212471 
L 303.699193 113.359242 
L 311.221085 111.707859 
L 318.742978 104.331678 
L 326.26487 93.65273 
L 333.786763 118.423486 
L 341.308655 100.808726 
L 348.830547 101.139003 
L 356.35244 89.138948 
L 363.874332 92.992177 
L 371.396224 100.038081 
L 378.918117 95.524299 
L 386.440009 90.790332 
L 393.961902 88.478395 
L 401.483794 60.404872 
L 409.005686 81.982952 
L 416.527579 83.304059 
L 424.049471 72.735204 
L 431.571364 72.515019 
" style="fill:none;stroke:#1f77b4;stroke-linecap:square;stroke-width:1.5;"/>
   </g>
   <g id="line2d_14">
    <path clip-path="url(#p75af9f13a3)" d="M 62.998636 287.415084 
L 70.520529 283.78204 
L 78.042421 269.800324 
L 85.564314 264.846173 
L 93.086206 274.314107 
L 100.608098 263.965435 
L 108.129991 256.809439 
L 115.651883 263.304882 
L 123.173776 254.38741 
L 130.695668 267.268203 
L 138.21756 251.084643 
L 145.739453 243.928647 
L 153.261345 251.304827 
L 160.783237 235.121267 
L 168.30513 248.112152 
L 175.827022 247.451598 
L 183.348915 230.717577 
L 190.870807 257.910362 
L 198.392699 245.249754 
L 205.914592 243.59837 
L 213.436484 234.79099 
L 220.958377 251.965381 
L 228.480269 232.919422 
L 236.002161 239.304772 
L 243.524054 246.020399 
L 251.045946 249.653443 
L 258.567839 216.735862 
L 266.089731 248.552521 
L 273.611623 232.038684 
L 281.133516 226.754256 
L 288.655408 223.891858 
L 296.177301 222.350566 
L 303.699193 224.99278 
L 311.221085 215.855124 
L 318.742978 207.378021 
L 326.26487 203.524792 
L 333.786763 218.717522 
L 341.308655 200.332117 
L 348.830547 199.561471 
L 356.35244 185.359572 
L 363.874332 194.497228 
L 371.396224 202.203685 
L 378.918117 211.341342 
L 386.440009 222.240474 
L 393.961902 220.699183 
L 401.483794 176.001731 
L 409.005686 188.22197 
L 416.527579 188.332062 
L 424.049471 200.992671 
L 431.571364 187.561416 
" style="fill:none;stroke:#ff7f0e;stroke-linecap:square;stroke-width:1.5;"/>
   </g>
   <g id="line2d_15">
    <path clip-path="url(#p75af9f13a3)" d="M 62.998636 281.470103 
L 70.520529 272.993 
L 78.042421 251.855288 
L 85.564314 249.653443 
L 93.086206 250.093812 
L 100.608098 240.075418 
L 108.129991 236.772651 
L 115.651883 231.047854 
L 123.173776 226.423979 
L 130.695668 227.304717 
L 138.21756 216.515677 
L 145.739453 208.919312 
L 153.261345 215.855124 
L 160.783237 208.699128 
L 168.30513 189.543077 
L 175.827022 177.102653 
L 183.348915 190.864184 
L 190.870807 183.157727 
L 198.392699 182.387081 
L 205.914592 177.873299 
L 213.436484 180.845789 
L 220.958377 173.909978 
L 228.480269 171.267764 
L 236.002161 165.542967 
L 243.524054 179.084314 
L 251.045946 173.909978 
L 258.567839 177.983391 
L 266.089731 152.221805 
L 273.611623 151.891529 
L 281.133516 150.460329 
L 288.655408 133.616216 
L 296.177301 130.753817 
L 303.699193 132.405201 
L 311.221085 137.139168 
L 318.742978 131.414371 
L 326.26487 133.726308 
L 333.786763 129.652895 
L 341.308655 123.487729 
L 348.830547 125.249205 
L 356.35244 132.625386 
L 363.874332 118.973947 
L 371.396224 114.460165 
L 378.918117 111.157398 
L 386.440009 121.175792 
L 393.961902 105.102324 
L 401.483794 124.03819 
L 409.005686 106.8638 
L 416.527579 99.157343 
L 424.049471 104.551863 
L 431.571364 114.460165 
" style="fill:none;stroke:#2ca02c;stroke-linecap:square;stroke-width:1.5;"/>
   </g>
   <g id="line2d_16">
    <path clip-path="url(#p75af9f13a3)" d="M 62.998636 285.103147 
L 70.520529 278.571484 
L 78.042421 278.188803 
L 85.564314 269.491516 
L 93.086206 262.133611 
L 100.608098 255.62804 
L 108.129991 246.330639 
L 115.651883 239.85116 
L 123.173776 233.171643 
L 130.695668 231.58004 
L 138.21756 222.847963 
L 145.739453 219.890885 
L 153.261345 217.377369 
L 160.783237 212.750412 
L 168.30513 205.462085 
L 175.827022 208.04518 
L 183.348915 202.287576 
L 190.870807 205.096799 
L 198.392699 201.139534 
L 205.914592 199.54793 
L 213.436484 194.233887 
L 220.958377 193.590288 
L 228.480269 191.555123 
L 236.002161 191.27681 
L 243.524054 191.346388 
L 251.045946 188.919845 
L 258.567839 187.432609 
L 266.089731 183.405764 
L 273.611623 180.013822 
L 281.133516 179.692023 
L 288.655408 176.552302 
L 296.177301 181.501059 
L 303.699193 170.359833 
L 311.221085 178.169997 
L 318.742978 170.638146 
L 326.26487 168.524706 
L 333.786763 166.350384 
L 341.308655 167.385361 
L 348.830547 162.297448 
L 356.35244 166.533027 
L 363.874332 160.192704 
L 371.396224 159.940483 
L 378.918117 157.009497 
L 386.440009 157.540032 
L 393.961902 158.035777 
L 401.483794 157.940107 
L 409.005686 158.714165 
L 416.527579 154.174181 
L 424.049471 151.712849 
L 431.571364 154.095906 
" style="fill:none;stroke:#d62728;stroke-linecap:square;stroke-width:1.5;"/>
   </g>
   <g id="patch_3">
    <path d="M 44.57 303.64 
L 44.57 32.876829 
" style="fill:none;stroke:#000000;stroke-linecap:square;stroke-linejoin:miter;stroke-width:0.8;"/>
   </g>
   <g id="patch_4">
    <path d="M 450 303.64 
L 450 32.876829 
" style="fill:none;stroke:#000000;stroke-linecap:square;stroke-linejoin:miter;stroke-width:0.8;"/>
   </g>
   <g id="patch_5">
    <path d="M 44.57 303.64 
L 450 303.64 
" style="fill:none;stroke:#000000;stroke-linecap:square;stroke-linejoin:miter;stroke-width:0.8;"/>
   </g>
   <g id="patch_6">
    <path d="M 44.57 32.876829 
L 450 32.876829 
" style="fill:none;stroke:#000000;stroke-linecap:square;stroke-linejoin:miter;stroke-width:0.8;"/>
   </g>
   <g id="legend_1">
    <g id="patch_7">
     <path d="M 80.886563 28.478637 
L 413.683438 28.478637 
Q 415.683438 28.478637 415.683438 26.478637 
L 415.683438 12.800512 
Q 415.683438 10.800512 413.683438 10.800512 
L 80.886563 10.800512 
Q 78.886563 10.800512 78.886563 12.800512 
L 78.886563 26.478637 
Q 78.886563 28.478637 80.886563 28.478637 
z
" style="fill:#ffffff;opacity:0.8;stroke:#cccccc;stroke-linejoin:miter;"/>
    </g>
    <g id="line2d_17">
     <path d="M 82.886563 18.898949 
L 102.886563 18.898949 
" style="fill:none;stroke:#1f77b4;stroke-linecap:square;stroke-width:1.5;"/>
    </g>
    <g id="line2d_18"/>
    <g id="text_15">
     <!-- FedAvg -->
     <g transform="translate(110.886563 22.398949)scale(0.1 -0.1)">
      <defs>
       <path d="M 628 4666 
L 3309 4666 
L 3309 4134 
L 1259 4134 
L 1259 2759 
L 3109 2759 
L 3109 2228 
L 1259 2228 
L 1259 0 
L 628 0 
L 628 4666 
z
" id="DejaVuSans-46" transform="scale(0.015625)"/>
       <path d="M 191 3500 
L 800 3500 
L 1894 563 
L 2988 3500 
L 3597 3500 
L 2284 0 
L 1503 0 
L 191 3500 
z
" id="DejaVuSans-76" transform="scale(0.015625)"/>
       <path d="M 2906 1791 
Q 2906 2416 2648 2759 
Q 2391 3103 1925 3103 
Q 1463 3103 1205 2759 
Q 947 2416 947 1791 
Q 947 1169 1205 825 
Q 1463 481 1925 481 
Q 2391 481 2648 825 
Q 2906 1169 2906 1791 
z
M 3481 434 
Q 3481 -459 3084 -895 
Q 2688 -1331 1869 -1331 
Q 1566 -1331 1297 -1286 
Q 1028 -1241 775 -1147 
L 775 -588 
Q 1028 -725 1275 -790 
Q 1522 -856 1778 -856 
Q 2344 -856 2625 -561 
Q 2906 -266 2906 331 
L 2906 616 
Q 2728 306 2450 153 
Q 2172 0 1784 0 
Q 1141 0 747 490 
Q 353 981 353 1791 
Q 353 2603 747 3093 
Q 1141 3584 1784 3584 
Q 2172 3584 2450 3431 
Q 2728 3278 2906 2969 
L 2906 3500 
L 3481 3500 
L 3481 434 
z
" id="DejaVuSans-67" transform="scale(0.015625)"/>
      </defs>
      <use xlink:href="#DejaVuSans-46"/>
      <use x="52.019531" xlink:href="#DejaVuSans-65"/>
      <use x="113.542969" xlink:href="#DejaVuSans-64"/>
      <use x="177.019531" xlink:href="#DejaVuSans-41"/>
      <use x="239.552734" xlink:href="#DejaVuSans-76"/>
      <use x="298.732422" xlink:href="#DejaVuSans-67"/>
     </g>
    </g>
    <g id="line2d_19">
     <path d="M 167.11 18.898949 
L 187.11 18.898949 
" style="fill:none;stroke:#ff7f0e;stroke-linecap:square;stroke-width:1.5;"/>
    </g>
    <g id="line2d_20"/>
    <g id="text_16">
     <!-- FedMed -->
     <g transform="translate(195.11 22.398949)scale(0.1 -0.1)">
      <defs>
       <path d="M 628 4666 
L 1569 4666 
L 2759 1491 
L 3956 4666 
L 4897 4666 
L 4897 0 
L 4281 0 
L 4281 4097 
L 3078 897 
L 2444 897 
L 1241 4097 
L 1241 0 
L 628 0 
L 628 4666 
z
" id="DejaVuSans-4d" transform="scale(0.015625)"/>
      </defs>
      <use xlink:href="#DejaVuSans-46"/>
      <use x="52.019531" xlink:href="#DejaVuSans-65"/>
      <use x="113.542969" xlink:href="#DejaVuSans-64"/>
      <use x="177.019531" xlink:href="#DejaVuSans-4d"/>
      <use x="263.298828" xlink:href="#DejaVuSans-65"/>
      <use x="324.822266" xlink:href="#DejaVuSans-64"/>
     </g>
    </g>
    <g id="line2d_21">
     <path d="M 253.942813 18.898949 
L 273.942813 18.898949 
" style="fill:none;stroke:#2ca02c;stroke-linecap:square;stroke-width:1.5;"/>
    </g>
    <g id="line2d_22"/>
    <g id="text_17">
     <!-- FedProx -->
     <g transform="translate(281.942813 22.398949)scale(0.1 -0.1)">
      <defs>
       <path d="M 1259 4147 
L 1259 2394 
L 2053 2394 
Q 2494 2394 2734 2622 
Q 2975 2850 2975 3272 
Q 2975 3691 2734 3919 
Q 2494 4147 2053 4147 
L 1259 4147 
z
M 628 4666 
L 2053 4666 
Q 2838 4666 3239 4311 
Q 3641 3956 3641 3272 
Q 3641 2581 3239 2228 
Q 2838 1875 2053 1875 
L 1259 1875 
L 1259 0 
L 628 0 
L 628 4666 
z
" id="DejaVuSans-50" transform="scale(0.015625)"/>
       <path d="M 3513 3500 
L 2247 1797 
L 3578 0 
L 2900 0 
L 1881 1375 
L 863 0 
L 184 0 
L 1544 1831 
L 300 3500 
L 978 3500 
L 1906 2253 
L 2834 3500 
L 3513 3500 
z
" id="DejaVuSans-78" transform="scale(0.015625)"/>
      </defs>
      <use xlink:href="#DejaVuSans-46"/>
      <use x="52.019531" xlink:href="#DejaVuSans-65"/>
      <use x="113.542969" xlink:href="#DejaVuSans-64"/>
      <use x="177.019531" xlink:href="#DejaVuSans-50"/>
      <use x="235.572266" xlink:href="#DejaVuSans-72"/>
      <use x="274.435547" xlink:href="#DejaVuSans-6f"/>
      <use x="332.492188" xlink:href="#DejaVuSans-78"/>
     </g>
    </g>
    <g id="line2d_23">
     <path d="M 341.111563 18.898949 
L 361.111563 18.898949 
" style="fill:none;stroke:#d62728;stroke-linecap:square;stroke-width:1.5;"/>
    </g>
    <g id="line2d_24"/>
    <g id="text_18">
     <!-- qFedAvg -->
     <g transform="translate(369.111563 22.398949)scale(0.1 -0.1)">
      <defs>
       <path d="M 947 1747 
Q 947 1113 1208 752 
Q 1469 391 1925 391 
Q 2381 391 2643 752 
Q 2906 1113 2906 1747 
Q 2906 2381 2643 2742 
Q 2381 3103 1925 3103 
Q 1469 3103 1208 2742 
Q 947 2381 947 1747 
z
M 2906 525 
Q 2725 213 2448 61 
Q 2172 -91 1784 -91 
Q 1150 -91 751 415 
Q 353 922 353 1747 
Q 353 2572 751 3078 
Q 1150 3584 1784 3584 
Q 2172 3584 2448 3432 
Q 2725 3281 2906 2969 
L 2906 3500 
L 3481 3500 
L 3481 -1331 
L 2906 -1331 
L 2906 525 
z
" id="DejaVuSans-71" transform="scale(0.015625)"/>
      </defs>
      <use xlink:href="#DejaVuSans-71"/>
      <use x="63.476562" xlink:href="#DejaVuSans-46"/>
      <use x="115.496094" xlink:href="#DejaVuSans-65"/>
      <use x="177.019531" xlink:href="#DejaVuSans-64"/>
      <use x="240.496094" xlink:href="#DejaVuSans-41"/>
      <use x="303.029297" xlink:href="#DejaVuSans-76"/>
      <use x="362.208984" xlink:href="#DejaVuSans-67"/>
     </g>
    </g>
   </g>
  </g>
 </g>
 <defs>
  <clipPath id="p75af9f13a3">
   <rect height="270.763171" width="405.43" x="44.57" y="32.876829"/>
  </clipPath>
 </defs>
</svg>
