<?xml version="1.0" encoding="utf-8" standalone="no"?>
<!DOCTYPE svg PUBLIC "-//W3C//DTD SVG 1.1//EN"
  "http://www.w3.org/Graphics/SVG/1.1/DTD/svg11.dtd">
<svg height="345.6pt" version="1.1" viewBox="0 0 460.8 345.6" width="460.8pt" xmlns="http://www.w3.org/2000/svg" xmlns:xlink="http://www.w3.org/1999/xlink">
 <metadata>
  <rdf:RDF xmlns:cc="http://creativecommons.org/ns#" xmlns:dc="http://purl.org/dc/elements/1.1/" xmlns:rdf="http://www.w3.org/1999/02/22-rdf-syntax-ns#">
   <cc:Work>
    <dc:type rdf:resource="http://purl.org/dc/dcmitype/StillImage"/>
    <dc:date>2021-05-07T12:06:44.079108</dc:date>
    <dc:format>image/svg+xml</dc:format>
    <dc:creator>
     <cc:Agent>
      <dc:title>Matplotlib v3.4.1, https://matplotlib.org/</dc:title>
     </cc:Agent>
    </dc:creator>
   </cc:Work>
  </rdf:RDF>
 </metadata>
 <defs>
  <style type="text/css">*{stroke-linecap:butt;stroke-linejoin:round;}</style>
 </defs>
 <g id="figure_1">
  <g id="patch_1">
   <path d="M 0 345.6 
L 460.8 345.6 
L 460.8 0 
L 0 0 
z
" style="fill:#ffffff;"/>
  </g>
  <g id="axes_1">
   <g id="patch_2">
    <path d="M 44.57 303.64 
L 450 303.64 
L 450 32.876829 
L 44.57 32.876829 
z
" style="fill:#ffffff;"/>
   </g>
   <g id="PolyCollection_1">
    <path clip-path="url(#p5e894bbe2e)" d="M 62.998636 267.483063 
L 62.998636 290.912206 
L 70.520529 279.963843 
L 78.042421 254.680941 
L 85.564314 270.218576 
L 93.086206 281.40878 
L 100.608098 246.102837 
L 108.129991 239.077545 
L 115.651883 223.72992 
L 123.173776 201.711618 
L 130.695668 244.12418 
L 138.21756 198.785854 
L 145.739453 237.709036 
L 153.261345 230.208024 
L 160.783237 183.452493 
L 168.30513 193.486075 
L 175.827022 213.699114 
L 183.348915 207.187641 
L 190.870807 209.552893 
L 198.392699 187.941113 
L 205.914592 201.41606 
L 213.436484 206.268939 
L 220.958377 193.410636 
L 228.480269 180.932942 
L 236.002161 206.273771 
L 243.524054 180.225592 
L 251.045946 185.148431 
L 258.567839 166.112029 
L 266.089731 186.926287 
L 273.611623 209.535149 
L 281.133516 175.027396 
L 288.655408 162.487672 
L 296.177301 142.752061 
L 303.699193 155.230507 
L 311.221085 165.494875 
L 318.742978 132.588552 
L 326.26487 121.443189 
L 333.786763 168.855852 
L 341.308655 148.727853 
L 348.830547 125.572488 
L 356.35244 142.343222 
L 363.874332 143.383087 
L 371.396224 141.017772 
L 378.918117 147.749147 
L 386.440009 131.948295 
L 393.961902 135.7408 
L 401.483794 95.996455 
L 409.005686 161.64715 
L 416.527579 99.349952 
L 424.049471 123.096294 
L 431.571364 107.793936 
L 431.571364 57.674966 
L 431.571364 57.674966 
L 424.049471 45.184246 
L 416.527579 80.177139 
L 409.005686 75.518513 
L 401.483794 60.334624 
L 393.961902 80.689035 
L 386.440009 83.427175 
L 378.918117 98.905793 
L 371.396224 99.662438 
L 363.874332 80.778752 
L 356.35244 100.797172 
L 348.830547 95.074804 
L 341.308655 117.960005 
L 333.786763 111.187285 
L 326.26487 96.041011 
L 318.742978 94.384924 
L 311.221085 118.06281 
L 303.699193 119.892265 
L 296.177301 97.928149 
L 288.655408 117.90692 
L 281.133516 123.642842 
L 273.611623 113.385464 
L 266.089731 122.990502 
L 258.567839 115.688382 
L 251.045946 120.902356 
L 243.524054 115.281554 
L 236.002161 102.940108 
L 228.480269 148.313855 
L 220.958377 125.995429 
L 213.436484 156.014602 
L 205.914592 153.838386 
L 198.392699 147.983324 
L 190.870807 156.245195 
L 183.348915 147.363896 
L 175.827022 158.073703 
L 168.30513 161.416916 
L 160.783237 142.279757 
L 153.261345 152.811344 
L 145.739453 179.401439 
L 138.21756 168.418052 
L 130.695668 196.885215 
L 123.173776 195.365938 
L 115.651883 175.456365 
L 108.129991 197.011485 
L 100.608098 213.182204 
L 93.086206 222.51101 
L 85.564314 230.186666 
L 78.042421 229.205929 
L 70.520529 254.532506 
L 62.998636 267.483063 
z
" style="fill:#1f77b4;fill-opacity:0.5;"/>
   </g>
   <g id="PolyCollection_2">
    <path clip-path="url(#p5e894bbe2e)" d="M 62.998636 252.095251 
L 62.998636 287.321464 
L 70.520529 283.587439 
L 78.042421 291.332583 
L 85.564314 271.784516 
L 93.086206 282.90732 
L 100.608098 272.428005 
L 108.129991 266.947475 
L 115.651883 272.725284 
L 123.173776 250.76035 
L 130.695668 283.487543 
L 138.21756 239.608927 
L 145.739453 261.989664 
L 153.261345 265.447422 
L 160.783237 230.710493 
L 168.30513 242.647109 
L 175.827022 240.121279 
L 183.348915 246.323368 
L 190.870807 279.426181 
L 198.392699 253.573156 
L 205.914592 233.864095 
L 213.436484 255.09132 
L 220.958377 261.478933 
L 228.480269 214.757752 
L 236.002161 251.853037 
L 243.524054 237.952542 
L 251.045946 254.392779 
L 258.567839 229.544768 
L 266.089731 265.77221 
L 273.611623 251.723828 
L 281.133516 222.896328 
L 288.655408 239.568168 
L 296.177301 234.149275 
L 303.699193 198.488775 
L 311.221085 201.793633 
L 318.742978 197.921251 
L 326.26487 166.315476 
L 333.786763 251.212915 
L 341.308655 193.949327 
L 348.830547 180.886854 
L 356.35244 161.895498 
L 363.874332 166.682636 
L 371.396224 200.271862 
L 378.918117 233.32817 
L 386.440009 249.180535 
L 393.961902 234.685363 
L 401.483794 152.460287 
L 409.005686 187.411764 
L 416.527579 184.239643 
L 424.049471 242.656657 
L 431.571364 193.318781 
L 431.571364 121.166918 
L 431.571364 121.166918 
L 424.049471 92.916326 
L 416.527579 110.916048 
L 409.005686 115.47593 
L 401.483794 114.227571 
L 393.961902 113.539989 
L 386.440009 132.433014 
L 378.918117 133.172827 
L 371.396224 123.703115 
L 363.874332 102.465406 
L 356.35244 130.0971 
L 348.830547 124.812478 
L 341.308655 156.384753 
L 333.786763 125.831723 
L 326.26487 128.48876 
L 318.742978 145.03228 
L 311.221085 172.087913 
L 303.699193 167.660767 
L 296.177301 138.326452 
L 288.655408 132.20465 
L 281.133516 136.927029 
L 273.611623 191.394296 
L 266.089731 172.074094 
L 258.567839 153.826055 
L 251.045946 161.663333 
L 243.524054 157.719196 
L 236.002161 170.177805 
L 228.480269 173.181982 
L 220.958377 176.36737 
L 213.436484 159.558973 
L 205.914592 188.869656 
L 198.392699 177.595508 
L 190.870807 184.076317 
L 183.348915 157.783283 
L 175.827022 175.934832 
L 168.30513 202.228289 
L 160.783237 180.776706 
L 153.261345 201.569622 
L 145.739453 180.777005 
L 138.21756 198.940286 
L 130.695668 222.892429 
L 123.173776 186.031589 
L 115.651883 200.617945 
L 108.129991 215.182122 
L 100.608098 240.629607 
L 93.086206 249.4803 
L 85.564314 233.892547 
L 78.042421 237.540491 
L 70.520529 228.767263 
L 62.998636 252.095251 
z
" style="fill:#ff7f0e;fill-opacity:0.5;"/>
   </g>
   <g id="PolyCollection_3">
    <path clip-path="url(#p5e894bbe2e)" d="M 62.998636 271.90567 
L 62.998636 282.623598 
L 70.520529 278.480988 
L 78.042421 283.95675 
L 85.564314 274.089236 
L 93.086206 264.632095 
L 100.608098 255.55684 
L 108.129991 235.6216 
L 115.651883 263.736922 
L 123.173776 244.273383 
L 130.695668 248.853733 
L 138.21756 218.751116 
L 145.739453 232.006989 
L 153.261345 215.939246 
L 160.783237 221.975014 
L 168.30513 219.44433 
L 175.827022 235.257095 
L 183.348915 189.980798 
L 190.870807 164.644299 
L 198.392699 207.803348 
L 205.914592 203.718101 
L 213.436484 178.528972 
L 220.958377 199.025372 
L 228.480269 196.104863 
L 236.002161 193.328337 
L 243.524054 188.009459 
L 251.045946 180.537655 
L 258.567839 160.574661 
L 266.089731 159.884617 
L 273.611623 167.879189 
L 281.133516 205.01347 
L 288.655408 178.961567 
L 296.177301 156.617411 
L 303.699193 157.354771 
L 311.221085 163.921334 
L 318.742978 185.556241 
L 326.26487 175.764396 
L 333.786763 164.472301 
L 341.308655 177.094273 
L 348.830547 181.22106 
L 356.35244 162.865519 
L 363.874332 151.886333 
L 371.396224 168.465533 
L 378.918117 160.27601 
L 386.440009 165.773604 
L 393.961902 144.502494 
L 401.483794 165.742851 
L 409.005686 158.684086 
L 416.527579 159.798205 
L 424.049471 140.468403 
L 431.571364 148.625666 
L 431.571364 82.565267 
L 431.571364 82.565267 
L 424.049471 67.526519 
L 416.527579 59.443268 
L 409.005686 94.999949 
L 401.483794 84.075181 
L 393.961902 81.416618 
L 386.440009 89.316249 
L 378.918117 86.730385 
L 371.396224 115.443607 
L 363.874332 95.822972 
L 356.35244 111.905798 
L 348.830547 50.672783 
L 341.308655 86.079038 
L 333.786763 97.998101 
L 326.26487 133.449483 
L 318.742978 82.537437 
L 311.221085 90.817064 
L 303.699193 111.441816 
L 296.177301 114.287904 
L 288.655408 96.512659 
L 281.133516 175.545716 
L 273.611623 131.142503 
L 266.089731 101.882876 
L 258.567839 103.30156 
L 251.045946 141.680049 
L 243.524054 123.313148 
L 236.002161 113.776813 
L 228.480269 154.932127 
L 220.958377 153.417436 
L 213.436484 125.061632 
L 205.914592 162.079987 
L 198.392699 152.371464 
L 190.870807 142.460852 
L 183.348915 142.429092 
L 175.827022 164.280644 
L 168.30513 162.872129 
L 160.783237 158.232716 
L 153.261345 171.297579 
L 145.739453 175.965664 
L 138.21756 176.920622 
L 130.695668 196.724574 
L 123.173776 196.033103 
L 115.651883 207.497579 
L 108.129991 200.115975 
L 100.608098 220.246572 
L 93.086206 221.012049 
L 85.564314 238.968375 
L 78.042421 251.945418 
L 70.520529 256.015361 
L 62.998636 271.90567 
z
" style="fill:#2ca02c;fill-opacity:0.5;"/>
   </g>
   <g id="PolyCollection_4">
    <path clip-path="url(#p5e894bbe2e)" d="M 62.998636 281.657818 
L 62.998636 281.657818 
L 70.520529 281.6717 
L 78.042421 283.201018 
L 85.564314 285.132261 
L 93.086206 269.253367 
L 100.608098 262.915297 
L 108.129991 255.465651 
L 115.651883 238.203989 
L 123.173776 232.673703 
L 130.695668 212.493008 
L 138.21756 207.795459 
L 145.739453 202.710974 
L 153.261345 203.192895 
L 160.783237 192.293806 
L 168.30513 189.615952 
L 175.827022 201.33052 
L 183.348915 193.773562 
L 190.870807 185.714869 
L 198.392699 179.161671 
L 205.914592 179.867055 
L 213.436484 176.030071 
L 220.958377 173.706049 
L 228.480269 168.568665 
L 236.002161 164.625963 
L 243.524054 172.491881 
L 251.045946 159.569474 
L 258.567839 157.686552 
L 266.089731 160.697386 
L 273.611623 154.370067 
L 281.133516 150.845397 
L 288.655408 148.152518 
L 296.177301 144.839822 
L 303.699193 147.810308 
L 311.221085 137.827619 
L 318.742978 142.044432 
L 326.26487 146.608126 
L 333.786763 138.682693 
L 341.308655 132.135202 
L 348.830547 131.193456 
L 356.35244 138.363928 
L 363.874332 138.739873 
L 371.396224 119.262465 
L 378.918117 124.231494 
L 386.440009 126.911188 
L 393.961902 127.310777 
L 401.483794 115.957356 
L 409.005686 122.335879 
L 416.527579 118.636478 
L 424.049471 115.697463 
L 431.571364 117.656224 
L 431.571364 97.987055 
L 431.571364 97.987055 
L 424.049471 86.229945 
L 416.527579 86.928135 
L 409.005686 86.19958 
L 401.483794 98.103323 
L 393.961902 100.576833 
L 386.440009 102.753377 
L 378.918117 96.492766 
L 371.396224 105.931948 
L 363.874332 100.72571 
L 356.35244 101.323774 
L 348.830547 101.775135 
L 341.308655 101.388687 
L 333.786763 105.502926 
L 326.26487 119.706137 
L 318.742978 118.383667 
L 311.221085 119.712928 
L 303.699193 120.614088 
L 296.177301 119.225481 
L 288.655408 114.635599 
L 281.133516 128.796028 
L 273.611623 125.909952 
L 266.089731 135.963936 
L 258.567839 128.396335 
L 251.045946 135.537013 
L 243.524054 140.106507 
L 236.002161 139.143179 
L 228.480269 131.785392 
L 220.958377 143.112607 
L 213.436484 143.315192 
L 205.914592 150.611943 
L 198.392699 148.901778 
L 190.870807 144.403184 
L 183.348915 149.58836 
L 175.827022 153.970318 
L 168.30513 155.550689 
L 160.783237 159.286533 
L 153.261345 156.71692 
L 145.739453 168.24928 
L 138.21756 173.160168 
L 130.695668 184.899452 
L 123.173776 176.074611 
L 115.651883 200.002907 
L 108.129991 193.986038 
L 100.608098 216.272624 
L 93.086206 226.649037 
L 85.564314 244.504523 
L 78.042421 265.704623 
L 70.520529 281.61617 
L 62.998636 281.657818 
z
" style="fill:#d62728;fill-opacity:0.5;"/>
   </g>
   <g id="matplotlib.axis_1">
    <g id="xtick_1">
     <g id="line2d_1">
      <defs>
       <path d="M 0 0 
L 0 3.5 
" id="m0bee572c6a" style="stroke:#000000;stroke-width:0.8;"/>
      </defs>
      <g>
       <use style="stroke:#000000;stroke-width:0.8;" x="62.998636" xlink:href="#m0bee572c6a" y="303.64"/>
      </g>
     </g>
     <g id="text_1">
      <!-- 0 -->
      <g transform="translate(59.817386 318.238437)scale(0.1 -0.1)">
       <defs>
        <path d="M 2034 4250 
Q 1547 4250 1301 3770 
Q 1056 3291 1056 2328 
Q 1056 1369 1301 889 
Q 1547 409 2034 409 
Q 2525 409 2770 889 
Q 3016 1369 3016 2328 
Q 3016 3291 2770 3770 
Q 2525 4250 2034 4250 
z
M 2034 4750 
Q 2819 4750 3233 4129 
Q 3647 3509 3647 2328 
Q 3647 1150 3233 529 
Q 2819 -91 2034 -91 
Q 1250 -91 836 529 
Q 422 1150 422 2328 
Q 422 3509 836 4129 
Q 1250 4750 2034 4750 
z
" id="DejaVuSans-30" transform="scale(0.015625)"/>
       </defs>
       <use xlink:href="#DejaVuSans-30"/>
      </g>
     </g>
    </g>
    <g id="xtick_2">
     <g id="line2d_2">
      <g>
       <use style="stroke:#000000;stroke-width:0.8;" x="138.21756" xlink:href="#m0bee572c6a" y="303.64"/>
      </g>
     </g>
     <g id="text_2">
      <!-- 10 -->
      <g transform="translate(131.85506 318.238437)scale(0.1 -0.1)">
       <defs>
        <path d="M 794 531 
L 1825 531 
L 1825 4091 
L 703 3866 
L 703 4441 
L 1819 4666 
L 2450 4666 
L 2450 531 
L 3481 531 
L 3481 0 
L 794 0 
L 794 531 
z
" id="DejaVuSans-31" transform="scale(0.015625)"/>
       </defs>
       <use xlink:href="#DejaVuSans-31"/>
       <use x="63.623047" xlink:href="#DejaVuSans-30"/>
      </g>
     </g>
    </g>
    <g id="xtick_3">
     <g id="line2d_3">
      <g>
       <use style="stroke:#000000;stroke-width:0.8;" x="213.436484" xlink:href="#m0bee572c6a" y="303.64"/>
      </g>
     </g>
     <g id="text_3">
      <!-- 20 -->
      <g transform="translate(207.073984 318.238437)scale(0.1 -0.1)">
       <defs>
        <path d="M 1228 531 
L 3431 531 
L 3431 0 
L 469 0 
L 469 531 
Q 828 903 1448 1529 
Q 2069 2156 2228 2338 
Q 2531 2678 2651 2914 
Q 2772 3150 2772 3378 
Q 2772 3750 2511 3984 
Q 2250 4219 1831 4219 
Q 1534 4219 1204 4116 
Q 875 4013 500 3803 
L 500 4441 
Q 881 4594 1212 4672 
Q 1544 4750 1819 4750 
Q 2544 4750 2975 4387 
Q 3406 4025 3406 3419 
Q 3406 3131 3298 2873 
Q 3191 2616 2906 2266 
Q 2828 2175 2409 1742 
Q 1991 1309 1228 531 
z
" id="DejaVuSans-32" transform="scale(0.015625)"/>
       </defs>
       <use xlink:href="#DejaVuSans-32"/>
       <use x="63.623047" xlink:href="#DejaVuSans-30"/>
      </g>
     </g>
    </g>
    <g id="xtick_4">
     <g id="line2d_4">
      <g>
       <use style="stroke:#000000;stroke-width:0.8;" x="288.655408" xlink:href="#m0bee572c6a" y="303.64"/>
      </g>
     </g>
     <g id="text_4">
      <!-- 30 -->
      <g transform="translate(282.292908 318.238437)scale(0.1 -0.1)">
       <defs>
        <path d="M 2597 2516 
Q 3050 2419 3304 2112 
Q 3559 1806 3559 1356 
Q 3559 666 3084 287 
Q 2609 -91 1734 -91 
Q 1441 -91 1130 -33 
Q 819 25 488 141 
L 488 750 
Q 750 597 1062 519 
Q 1375 441 1716 441 
Q 2309 441 2620 675 
Q 2931 909 2931 1356 
Q 2931 1769 2642 2001 
Q 2353 2234 1838 2234 
L 1294 2234 
L 1294 2753 
L 1863 2753 
Q 2328 2753 2575 2939 
Q 2822 3125 2822 3475 
Q 2822 3834 2567 4026 
Q 2313 4219 1838 4219 
Q 1578 4219 1281 4162 
Q 984 4106 628 3988 
L 628 4550 
Q 988 4650 1302 4700 
Q 1616 4750 1894 4750 
Q 2613 4750 3031 4423 
Q 3450 4097 3450 3541 
Q 3450 3153 3228 2886 
Q 3006 2619 2597 2516 
z
" id="DejaVuSans-33" transform="scale(0.015625)"/>
       </defs>
       <use xlink:href="#DejaVuSans-33"/>
       <use x="63.623047" xlink:href="#DejaVuSans-30"/>
      </g>
     </g>
    </g>
    <g id="xtick_5">
     <g id="line2d_5">
      <g>
       <use style="stroke:#000000;stroke-width:0.8;" x="363.874332" xlink:href="#m0bee572c6a" y="303.64"/>
      </g>
     </g>
     <g id="text_5">
      <!-- 40 -->
      <g transform="translate(357.511832 318.238437)scale(0.1 -0.1)">
       <defs>
        <path d="M 2419 4116 
L 825 1625 
L 2419 1625 
L 2419 4116 
z
M 2253 4666 
L 3047 4666 
L 3047 1625 
L 3713 1625 
L 3713 1100 
L 3047 1100 
L 3047 0 
L 2419 0 
L 2419 1100 
L 313 1100 
L 313 1709 
L 2253 4666 
z
" id="DejaVuSans-34" transform="scale(0.015625)"/>
       </defs>
       <use xlink:href="#DejaVuSans-34"/>
       <use x="63.623047" xlink:href="#DejaVuSans-30"/>
      </g>
     </g>
    </g>
    <g id="xtick_6">
     <g id="line2d_6">
      <g>
       <use style="stroke:#000000;stroke-width:0.8;" x="439.093256" xlink:href="#m0bee572c6a" y="303.64"/>
      </g>
     </g>
     <g id="text_6">
      <!-- 50 -->
      <g transform="translate(432.730756 318.238437)scale(0.1 -0.1)">
       <defs>
        <path d="M 691 4666 
L 3169 4666 
L 3169 4134 
L 1269 4134 
L 1269 2991 
Q 1406 3038 1543 3061 
Q 1681 3084 1819 3084 
Q 2600 3084 3056 2656 
Q 3513 2228 3513 1497 
Q 3513 744 3044 326 
Q 2575 -91 1722 -91 
Q 1428 -91 1123 -41 
Q 819 9 494 109 
L 494 744 
Q 775 591 1075 516 
Q 1375 441 1709 441 
Q 2250 441 2565 725 
Q 2881 1009 2881 1497 
Q 2881 1984 2565 2268 
Q 2250 2553 1709 2553 
Q 1456 2553 1204 2497 
Q 953 2441 691 2322 
L 691 4666 
z
" id="DejaVuSans-35" transform="scale(0.015625)"/>
       </defs>
       <use xlink:href="#DejaVuSans-35"/>
       <use x="63.623047" xlink:href="#DejaVuSans-30"/>
      </g>
     </g>
    </g>
    <g id="text_7">
     <!-- Global Communication Rounds -->
     <g transform="translate(170.323281 331.916562)scale(0.1 -0.1)">
      <defs>
       <path d="M 3809 666 
L 3809 1919 
L 2778 1919 
L 2778 2438 
L 4434 2438 
L 4434 434 
Q 4069 175 3628 42 
Q 3188 -91 2688 -91 
Q 1594 -91 976 548 
Q 359 1188 359 2328 
Q 359 3472 976 4111 
Q 1594 4750 2688 4750 
Q 3144 4750 3555 4637 
Q 3966 4525 4313 4306 
L 4313 3634 
Q 3963 3931 3569 4081 
Q 3175 4231 2741 4231 
Q 1884 4231 1454 3753 
Q 1025 3275 1025 2328 
Q 1025 1384 1454 906 
Q 1884 428 2741 428 
Q 3075 428 3337 486 
Q 3600 544 3809 666 
z
" id="DejaVuSans-47" transform="scale(0.015625)"/>
       <path d="M 603 4863 
L 1178 4863 
L 1178 0 
L 603 0 
L 603 4863 
z
" id="DejaVuSans-6c" transform="scale(0.015625)"/>
       <path d="M 1959 3097 
Q 1497 3097 1228 2736 
Q 959 2375 959 1747 
Q 959 1119 1226 758 
Q 1494 397 1959 397 
Q 2419 397 2687 759 
Q 2956 1122 2956 1747 
Q 2956 2369 2687 2733 
Q 2419 3097 1959 3097 
z
M 1959 3584 
Q 2709 3584 3137 3096 
Q 3566 2609 3566 1747 
Q 3566 888 3137 398 
Q 2709 -91 1959 -91 
Q 1206 -91 779 398 
Q 353 888 353 1747 
Q 353 2609 779 3096 
Q 1206 3584 1959 3584 
z
" id="DejaVuSans-6f" transform="scale(0.015625)"/>
       <path d="M 3116 1747 
Q 3116 2381 2855 2742 
Q 2594 3103 2138 3103 
Q 1681 3103 1420 2742 
Q 1159 2381 1159 1747 
Q 1159 1113 1420 752 
Q 1681 391 2138 391 
Q 2594 391 2855 752 
Q 3116 1113 3116 1747 
z
M 1159 2969 
Q 1341 3281 1617 3432 
Q 1894 3584 2278 3584 
Q 2916 3584 3314 3078 
Q 3713 2572 3713 1747 
Q 3713 922 3314 415 
Q 2916 -91 2278 -91 
Q 1894 -91 1617 61 
Q 1341 213 1159 525 
L 1159 0 
L 581 0 
L 581 4863 
L 1159 4863 
L 1159 2969 
z
" id="DejaVuSans-62" transform="scale(0.015625)"/>
       <path d="M 2194 1759 
Q 1497 1759 1228 1600 
Q 959 1441 959 1056 
Q 959 750 1161 570 
Q 1363 391 1709 391 
Q 2188 391 2477 730 
Q 2766 1069 2766 1631 
L 2766 1759 
L 2194 1759 
z
M 3341 1997 
L 3341 0 
L 2766 0 
L 2766 531 
Q 2569 213 2275 61 
Q 1981 -91 1556 -91 
Q 1019 -91 701 211 
Q 384 513 384 1019 
Q 384 1609 779 1909 
Q 1175 2209 1959 2209 
L 2766 2209 
L 2766 2266 
Q 2766 2663 2505 2880 
Q 2244 3097 1772 3097 
Q 1472 3097 1187 3025 
Q 903 2953 641 2809 
L 641 3341 
Q 956 3463 1253 3523 
Q 1550 3584 1831 3584 
Q 2591 3584 2966 3190 
Q 3341 2797 3341 1997 
z
" id="DejaVuSans-61" transform="scale(0.015625)"/>
       <path id="DejaVuSans-20" transform="scale(0.015625)"/>
       <path d="M 4122 4306 
L 4122 3641 
Q 3803 3938 3442 4084 
Q 3081 4231 2675 4231 
Q 1875 4231 1450 3742 
Q 1025 3253 1025 2328 
Q 1025 1406 1450 917 
Q 1875 428 2675 428 
Q 3081 428 3442 575 
Q 3803 722 4122 1019 
L 4122 359 
Q 3791 134 3420 21 
Q 3050 -91 2638 -91 
Q 1578 -91 968 557 
Q 359 1206 359 2328 
Q 359 3453 968 4101 
Q 1578 4750 2638 4750 
Q 3056 4750 3426 4639 
Q 3797 4528 4122 4306 
z
" id="DejaVuSans-43" transform="scale(0.015625)"/>
       <path d="M 3328 2828 
Q 3544 3216 3844 3400 
Q 4144 3584 4550 3584 
Q 5097 3584 5394 3201 
Q 5691 2819 5691 2113 
L 5691 0 
L 5113 0 
L 5113 2094 
Q 5113 2597 4934 2840 
Q 4756 3084 4391 3084 
Q 3944 3084 3684 2787 
Q 3425 2491 3425 1978 
L 3425 0 
L 2847 0 
L 2847 2094 
Q 2847 2600 2669 2842 
Q 2491 3084 2119 3084 
Q 1678 3084 1418 2786 
Q 1159 2488 1159 1978 
L 1159 0 
L 581 0 
L 581 3500 
L 1159 3500 
L 1159 2956 
Q 1356 3278 1631 3431 
Q 1906 3584 2284 3584 
Q 2666 3584 2933 3390 
Q 3200 3197 3328 2828 
z
" id="DejaVuSans-6d" transform="scale(0.015625)"/>
       <path d="M 544 1381 
L 544 3500 
L 1119 3500 
L 1119 1403 
Q 1119 906 1312 657 
Q 1506 409 1894 409 
Q 2359 409 2629 706 
Q 2900 1003 2900 1516 
L 2900 3500 
L 3475 3500 
L 3475 0 
L 2900 0 
L 2900 538 
Q 2691 219 2414 64 
Q 2138 -91 1772 -91 
Q 1169 -91 856 284 
Q 544 659 544 1381 
z
M 1991 3584 
L 1991 3584 
z
" id="DejaVuSans-75" transform="scale(0.015625)"/>
       <path d="M 3513 2113 
L 3513 0 
L 2938 0 
L 2938 2094 
Q 2938 2591 2744 2837 
Q 2550 3084 2163 3084 
Q 1697 3084 1428 2787 
Q 1159 2491 1159 1978 
L 1159 0 
L 581 0 
L 581 3500 
L 1159 3500 
L 1159 2956 
Q 1366 3272 1645 3428 
Q 1925 3584 2291 3584 
Q 2894 3584 3203 3211 
Q 3513 2838 3513 2113 
z
" id="DejaVuSans-6e" transform="scale(0.015625)"/>
       <path d="M 603 3500 
L 1178 3500 
L 1178 0 
L 603 0 
L 603 3500 
z
M 603 4863 
L 1178 4863 
L 1178 4134 
L 603 4134 
L 603 4863 
z
" id="DejaVuSans-69" transform="scale(0.015625)"/>
       <path d="M 3122 3366 
L 3122 2828 
Q 2878 2963 2633 3030 
Q 2388 3097 2138 3097 
Q 1578 3097 1268 2742 
Q 959 2388 959 1747 
Q 959 1106 1268 751 
Q 1578 397 2138 397 
Q 2388 397 2633 464 
Q 2878 531 3122 666 
L 3122 134 
Q 2881 22 2623 -34 
Q 2366 -91 2075 -91 
Q 1284 -91 818 406 
Q 353 903 353 1747 
Q 353 2603 823 3093 
Q 1294 3584 2113 3584 
Q 2378 3584 2631 3529 
Q 2884 3475 3122 3366 
z
" id="DejaVuSans-63" transform="scale(0.015625)"/>
       <path d="M 1172 4494 
L 1172 3500 
L 2356 3500 
L 2356 3053 
L 1172 3053 
L 1172 1153 
Q 1172 725 1289 603 
Q 1406 481 1766 481 
L 2356 481 
L 2356 0 
L 1766 0 
Q 1100 0 847 248 
Q 594 497 594 1153 
L 594 3053 
L 172 3053 
L 172 3500 
L 594 3500 
L 594 4494 
L 1172 4494 
z
" id="DejaVuSans-74" transform="scale(0.015625)"/>
       <path d="M 2841 2188 
Q 3044 2119 3236 1894 
Q 3428 1669 3622 1275 
L 4263 0 
L 3584 0 
L 2988 1197 
Q 2756 1666 2539 1819 
Q 2322 1972 1947 1972 
L 1259 1972 
L 1259 0 
L 628 0 
L 628 4666 
L 2053 4666 
Q 2853 4666 3247 4331 
Q 3641 3997 3641 3322 
Q 3641 2881 3436 2590 
Q 3231 2300 2841 2188 
z
M 1259 4147 
L 1259 2491 
L 2053 2491 
Q 2509 2491 2742 2702 
Q 2975 2913 2975 3322 
Q 2975 3731 2742 3939 
Q 2509 4147 2053 4147 
L 1259 4147 
z
" id="DejaVuSans-52" transform="scale(0.015625)"/>
       <path d="M 2906 2969 
L 2906 4863 
L 3481 4863 
L 3481 0 
L 2906 0 
L 2906 525 
Q 2725 213 2448 61 
Q 2172 -91 1784 -91 
Q 1150 -91 751 415 
Q 353 922 353 1747 
Q 353 2572 751 3078 
Q 1150 3584 1784 3584 
Q 2172 3584 2448 3432 
Q 2725 3281 2906 2969 
z
M 947 1747 
Q 947 1113 1208 752 
Q 1469 391 1925 391 
Q 2381 391 2643 752 
Q 2906 1113 2906 1747 
Q 2906 2381 2643 2742 
Q 2381 3103 1925 3103 
Q 1469 3103 1208 2742 
Q 947 2381 947 1747 
z
" id="DejaVuSans-64" transform="scale(0.015625)"/>
       <path d="M 2834 3397 
L 2834 2853 
Q 2591 2978 2328 3040 
Q 2066 3103 1784 3103 
Q 1356 3103 1142 2972 
Q 928 2841 928 2578 
Q 928 2378 1081 2264 
Q 1234 2150 1697 2047 
L 1894 2003 
Q 2506 1872 2764 1633 
Q 3022 1394 3022 966 
Q 3022 478 2636 193 
Q 2250 -91 1575 -91 
Q 1294 -91 989 -36 
Q 684 19 347 128 
L 347 722 
Q 666 556 975 473 
Q 1284 391 1588 391 
Q 1994 391 2212 530 
Q 2431 669 2431 922 
Q 2431 1156 2273 1281 
Q 2116 1406 1581 1522 
L 1381 1569 
Q 847 1681 609 1914 
Q 372 2147 372 2553 
Q 372 3047 722 3315 
Q 1072 3584 1716 3584 
Q 2034 3584 2315 3537 
Q 2597 3491 2834 3397 
z
" id="DejaVuSans-73" transform="scale(0.015625)"/>
      </defs>
      <use xlink:href="#DejaVuSans-47"/>
      <use x="77.490234" xlink:href="#DejaVuSans-6c"/>
      <use x="105.273438" xlink:href="#DejaVuSans-6f"/>
      <use x="166.455078" xlink:href="#DejaVuSans-62"/>
      <use x="229.931641" xlink:href="#DejaVuSans-61"/>
      <use x="291.210938" xlink:href="#DejaVuSans-6c"/>
      <use x="318.994141" xlink:href="#DejaVuSans-20"/>
      <use x="350.78125" xlink:href="#DejaVuSans-43"/>
      <use x="420.605469" xlink:href="#DejaVuSans-6f"/>
      <use x="481.787109" xlink:href="#DejaVuSans-6d"/>
      <use x="579.199219" xlink:href="#DejaVuSans-6d"/>
      <use x="676.611328" xlink:href="#DejaVuSans-75"/>
      <use x="739.990234" xlink:href="#DejaVuSans-6e"/>
      <use x="803.369141" xlink:href="#DejaVuSans-69"/>
      <use x="831.152344" xlink:href="#DejaVuSans-63"/>
      <use x="886.132812" xlink:href="#DejaVuSans-61"/>
      <use x="947.412109" xlink:href="#DejaVuSans-74"/>
      <use x="986.621094" xlink:href="#DejaVuSans-69"/>
      <use x="1014.404297" xlink:href="#DejaVuSans-6f"/>
      <use x="1075.585938" xlink:href="#DejaVuSans-6e"/>
      <use x="1138.964844" xlink:href="#DejaVuSans-20"/>
      <use x="1170.751953" xlink:href="#DejaVuSans-52"/>
      <use x="1235.734375" xlink:href="#DejaVuSans-6f"/>
      <use x="1296.916016" xlink:href="#DejaVuSans-75"/>
      <use x="1360.294922" xlink:href="#DejaVuSans-6e"/>
      <use x="1423.673828" xlink:href="#DejaVuSans-64"/>
      <use x="1487.150391" xlink:href="#DejaVuSans-73"/>
     </g>
    </g>
   </g>
   <g id="matplotlib.axis_2">
    <g id="ytick_1">
     <g id="line2d_7">
      <defs>
       <path d="M 0 0 
L -3.5 0 
" id="m5c9e272804" style="stroke:#000000;stroke-width:0.8;"/>
      </defs>
      <g>
       <use style="stroke:#000000;stroke-width:0.8;" x="44.57" xlink:href="#m5c9e272804" y="281.657818"/>
      </g>
     </g>
     <g id="text_8">
      <!-- 10 -->
      <g transform="translate(24.845 285.457036)scale(0.1 -0.1)">
       <use xlink:href="#DejaVuSans-31"/>
       <use x="63.623047" xlink:href="#DejaVuSans-30"/>
      </g>
     </g>
    </g>
    <g id="ytick_2">
     <g id="line2d_8">
      <g>
       <use style="stroke:#000000;stroke-width:0.8;" x="44.57" xlink:href="#m5c9e272804" y="246.951665"/>
      </g>
     </g>
     <g id="text_9">
      <!-- 15 -->
      <g transform="translate(24.845 250.750884)scale(0.1 -0.1)">
       <use xlink:href="#DejaVuSans-31"/>
       <use x="63.623047" xlink:href="#DejaVuSans-35"/>
      </g>
     </g>
    </g>
    <g id="ytick_3">
     <g id="line2d_9">
      <g>
       <use style="stroke:#000000;stroke-width:0.8;" x="44.57" xlink:href="#m5c9e272804" y="212.245512"/>
      </g>
     </g>
     <g id="text_10">
      <!-- 20 -->
      <g transform="translate(24.845 216.044731)scale(0.1 -0.1)">
       <use xlink:href="#DejaVuSans-32"/>
       <use x="63.623047" xlink:href="#DejaVuSans-30"/>
      </g>
     </g>
    </g>
    <g id="ytick_4">
     <g id="line2d_10">
      <g>
       <use style="stroke:#000000;stroke-width:0.8;" x="44.57" xlink:href="#m5c9e272804" y="177.539359"/>
      </g>
     </g>
     <g id="text_11">
      <!-- 25 -->
      <g transform="translate(24.845 181.338578)scale(0.1 -0.1)">
       <use xlink:href="#DejaVuSans-32"/>
       <use x="63.623047" xlink:href="#DejaVuSans-35"/>
      </g>
     </g>
    </g>
    <g id="ytick_5">
     <g id="line2d_11">
      <g>
       <use style="stroke:#000000;stroke-width:0.8;" x="44.57" xlink:href="#m5c9e272804" y="142.833207"/>
      </g>
     </g>
     <g id="text_12">
      <!-- 30 -->
      <g transform="translate(24.845 146.632425)scale(0.1 -0.1)">
       <use xlink:href="#DejaVuSans-33"/>
       <use x="63.623047" xlink:href="#DejaVuSans-30"/>
      </g>
     </g>
    </g>
    <g id="ytick_6">
     <g id="line2d_12">
      <g>
       <use style="stroke:#000000;stroke-width:0.8;" x="44.57" xlink:href="#m5c9e272804" y="108.127054"/>
      </g>
     </g>
     <g id="text_13">
      <!-- 35 -->
      <g transform="translate(24.845 111.926273)scale(0.1 -0.1)">
       <use xlink:href="#DejaVuSans-33"/>
       <use x="63.623047" xlink:href="#DejaVuSans-35"/>
      </g>
     </g>
    </g>
    <g id="ytick_7">
     <g id="line2d_13">
      <g>
       <use style="stroke:#000000;stroke-width:0.8;" x="44.57" xlink:href="#m5c9e272804" y="73.420901"/>
      </g>
     </g>
     <g id="text_14">
      <!-- 40 -->
      <g transform="translate(24.845 77.22012)scale(0.1 -0.1)">
       <use xlink:href="#DejaVuSans-34"/>
       <use x="63.623047" xlink:href="#DejaVuSans-30"/>
      </g>
     </g>
    </g>
    <g id="ytick_8">
     <g id="line2d_14">
      <g>
       <use style="stroke:#000000;stroke-width:0.8;" x="44.57" xlink:href="#m5c9e272804" y="38.714748"/>
      </g>
     </g>
     <g id="text_15">
      <!-- 45 -->
      <g transform="translate(24.845 42.513967)scale(0.1 -0.1)">
       <use xlink:href="#DejaVuSans-34"/>
       <use x="63.623047" xlink:href="#DejaVuSans-35"/>
      </g>
     </g>
    </g>
    <g id="text_16">
     <!-- Test Accuracy -->
     <g transform="translate(18.765313 202.520914)rotate(-90)scale(0.1 -0.1)">
      <defs>
       <path d="M -19 4666 
L 3928 4666 
L 3928 4134 
L 2272 4134 
L 2272 0 
L 1638 0 
L 1638 4134 
L -19 4134 
L -19 4666 
z
" id="DejaVuSans-54" transform="scale(0.015625)"/>
       <path d="M 3597 1894 
L 3597 1613 
L 953 1613 
Q 991 1019 1311 708 
Q 1631 397 2203 397 
Q 2534 397 2845 478 
Q 3156 559 3463 722 
L 3463 178 
Q 3153 47 2828 -22 
Q 2503 -91 2169 -91 
Q 1331 -91 842 396 
Q 353 884 353 1716 
Q 353 2575 817 3079 
Q 1281 3584 2069 3584 
Q 2775 3584 3186 3129 
Q 3597 2675 3597 1894 
z
M 3022 2063 
Q 3016 2534 2758 2815 
Q 2500 3097 2075 3097 
Q 1594 3097 1305 2825 
Q 1016 2553 972 2059 
L 3022 2063 
z
" id="DejaVuSans-65" transform="scale(0.015625)"/>
       <path d="M 2188 4044 
L 1331 1722 
L 3047 1722 
L 2188 4044 
z
M 1831 4666 
L 2547 4666 
L 4325 0 
L 3669 0 
L 3244 1197 
L 1141 1197 
L 716 0 
L 50 0 
L 1831 4666 
z
" id="DejaVuSans-41" transform="scale(0.015625)"/>
       <path d="M 2631 2963 
Q 2534 3019 2420 3045 
Q 2306 3072 2169 3072 
Q 1681 3072 1420 2755 
Q 1159 2438 1159 1844 
L 1159 0 
L 581 0 
L 581 3500 
L 1159 3500 
L 1159 2956 
Q 1341 3275 1631 3429 
Q 1922 3584 2338 3584 
Q 2397 3584 2469 3576 
Q 2541 3569 2628 3553 
L 2631 2963 
z
" id="DejaVuSans-72" transform="scale(0.015625)"/>
       <path d="M 2059 -325 
Q 1816 -950 1584 -1140 
Q 1353 -1331 966 -1331 
L 506 -1331 
L 506 -850 
L 844 -850 
Q 1081 -850 1212 -737 
Q 1344 -625 1503 -206 
L 1606 56 
L 191 3500 
L 800 3500 
L 1894 763 
L 2988 3500 
L 3597 3500 
L 2059 -325 
z
" id="DejaVuSans-79" transform="scale(0.015625)"/>
      </defs>
      <use xlink:href="#DejaVuSans-54"/>
      <use x="44.083984" xlink:href="#DejaVuSans-65"/>
      <use x="105.607422" xlink:href="#DejaVuSans-73"/>
      <use x="157.707031" xlink:href="#DejaVuSans-74"/>
      <use x="196.916016" xlink:href="#DejaVuSans-20"/>
      <use x="228.703125" xlink:href="#DejaVuSans-41"/>
      <use x="295.361328" xlink:href="#DejaVuSans-63"/>
      <use x="350.341797" xlink:href="#DejaVuSans-63"/>
      <use x="405.322266" xlink:href="#DejaVuSans-75"/>
      <use x="468.701172" xlink:href="#DejaVuSans-72"/>
      <use x="509.814453" xlink:href="#DejaVuSans-61"/>
      <use x="571.09375" xlink:href="#DejaVuSans-63"/>
      <use x="626.074219" xlink:href="#DejaVuSans-79"/>
     </g>
    </g>
   </g>
   <g id="line2d_15">
    <path clip-path="url(#p5e894bbe2e)" d="M 62.998636 279.197635 
L 70.520529 267.248175 
L 78.042421 241.943435 
L 85.564314 250.202621 
L 93.086206 251.959895 
L 100.608098 229.64252 
L 108.129991 218.044515 
L 115.651883 199.593143 
L 123.173776 198.538778 
L 130.695668 220.504698 
L 138.21756 183.601953 
L 145.739453 208.555238 
L 153.261345 191.509684 
L 160.783237 162.866125 
L 168.30513 177.451496 
L 175.827022 185.886409 
L 183.348915 177.275768 
L 190.870807 182.899044 
L 198.392699 167.962218 
L 205.914592 177.627223 
L 213.436484 181.14177 
L 220.958377 159.703033 
L 228.480269 164.623399 
L 236.002161 154.606939 
L 243.524054 147.753573 
L 251.045946 153.025393 
L 258.567839 140.900206 
L 266.089731 154.958394 
L 273.611623 161.460306 
L 281.133516 149.335119 
L 288.655408 140.197296 
L 296.177301 120.340105 
L 303.699193 137.561386 
L 311.221085 141.778842 
L 318.742978 113.486738 
L 326.26487 108.7421 
L 333.786763 140.021569 
L 341.308655 133.343929 
L 348.830547 110.323646 
L 356.35244 121.570197 
L 363.874332 112.080919 
L 371.396224 120.340105 
L 378.918117 123.32747 
L 386.440009 107.687735 
L 393.961902 108.214917 
L 401.483794 78.16554 
L 409.005686 118.582831 
L 416.527579 89.763545 
L 424.049471 84.14027 
L 431.571364 82.734451 
" style="fill:none;stroke:#1f77b4;stroke-linecap:square;stroke-width:1.5;"/>
   </g>
   <g id="line2d_16">
    <path clip-path="url(#p5e894bbe2e)" d="M 62.998636 269.708358 
L 70.520529 256.177351 
L 78.042421 264.436537 
L 85.564314 252.838531 
L 93.086206 266.19381 
L 100.608098 256.528806 
L 108.129991 241.064798 
L 115.651883 236.671615 
L 123.173776 218.39597 
L 130.695668 253.189986 
L 138.21756 219.274606 
L 145.739453 221.383335 
L 153.261345 233.508522 
L 160.783237 205.7436 
L 168.30513 222.437699 
L 175.827022 208.028056 
L 183.348915 202.053326 
L 190.870807 231.751249 
L 198.392699 215.584332 
L 205.914592 211.366875 
L 213.436484 207.325146 
L 220.958377 218.923152 
L 228.480269 193.969867 
L 236.002161 211.015421 
L 243.524054 197.835869 
L 251.045946 208.028056 
L 258.567839 191.685412 
L 266.089731 218.923152 
L 273.611623 221.559062 
L 281.133516 179.911679 
L 288.655408 185.886409 
L 296.177301 186.237863 
L 303.699193 183.074771 
L 311.221085 186.940773 
L 318.742978 171.476766 
L 326.26487 147.402118 
L 333.786763 188.522319 
L 341.308655 175.16704 
L 348.830547 152.849666 
L 356.35244 145.996299 
L 363.874332 134.574021 
L 371.396224 161.987488 
L 378.918117 183.250498 
L 386.440009 190.806775 
L 393.961902 174.112676 
L 401.483794 133.343929 
L 409.005686 151.443847 
L 416.527579 147.577845 
L 424.049471 167.786491 
L 431.571364 157.24285 
" style="fill:none;stroke:#ff7f0e;stroke-linecap:square;stroke-width:1.5;"/>
   </g>
   <g id="line2d_17">
    <path clip-path="url(#p5e894bbe2e)" d="M 62.998636 277.264634 
L 70.520529 267.248175 
L 78.042421 267.951084 
L 85.564314 256.528806 
L 93.086206 242.822072 
L 100.608098 237.901706 
L 108.129991 217.868788 
L 115.651883 235.61725 
L 123.173776 220.153243 
L 130.695668 222.789153 
L 138.21756 197.835869 
L 145.739453 203.986326 
L 153.261345 193.618412 
L 160.783237 190.103865 
L 168.30513 191.158229 
L 175.827022 199.76887 
L 183.348915 166.204945 
L 190.870807 153.552575 
L 198.392699 180.087406 
L 205.914592 182.899044 
L 213.436484 151.795302 
L 220.958377 176.221404 
L 228.480269 175.518495 
L 236.002161 153.552575 
L 243.524054 155.661304 
L 251.045946 161.108852 
L 258.567839 131.938111 
L 266.089731 130.883746 
L 273.611623 149.510846 
L 281.133516 190.279593 
L 288.655408 137.737113 
L 296.177301 135.452658 
L 303.699193 134.398294 
L 311.221085 127.369199 
L 318.742978 134.046839 
L 326.26487 154.606939 
L 333.786763 131.235201 
L 341.308655 131.586656 
L 348.830547 115.946921 
L 356.35244 137.385659 
L 363.874332 123.854652 
L 371.396224 141.95457 
L 378.918117 123.503197 
L 386.440009 127.544927 
L 393.961902 112.959556 
L 401.483794 124.909016 
L 409.005686 126.842017 
L 416.527579 109.620736 
L 424.049471 103.997461 
L 431.571364 115.595466 
" style="fill:none;stroke:#2ca02c;stroke-linecap:square;stroke-width:1.5;"/>
   </g>
   <g id="line2d_18">
    <path clip-path="url(#p5e894bbe2e)" d="M 62.998636 281.657818 
L 70.520529 281.643935 
L 78.042421 274.45282 
L 85.564314 264.818392 
L 93.086206 247.951202 
L 100.608098 239.593961 
L 108.129991 224.725845 
L 115.651883 219.103448 
L 123.173776 204.374157 
L 130.695668 198.69623 
L 138.21756 190.477813 
L 145.739453 185.480127 
L 153.261345 179.954908 
L 160.783237 175.790169 
L 168.30513 172.583321 
L 175.827022 177.650419 
L 183.348915 171.680961 
L 190.870807 165.059027 
L 198.392699 164.031725 
L 205.914592 165.239499 
L 213.436484 159.672632 
L 220.958377 158.409328 
L 228.480269 150.177029 
L 236.002161 151.884571 
L 243.524054 156.299194 
L 251.045946 147.553243 
L 258.567839 143.041444 
L 266.089731 148.330661 
L 273.611623 140.140009 
L 281.133516 139.820713 
L 288.655408 131.394059 
L 296.177301 132.032652 
L 303.699193 134.212198 
L 311.221085 128.770273 
L 318.742978 130.214049 
L 326.26487 133.157131 
L 333.786763 122.09281 
L 341.308655 116.761945 
L 348.830547 116.484295 
L 356.35244 119.843851 
L 363.874332 119.732791 
L 371.396224 112.597206 
L 378.918117 110.36213 
L 386.440009 114.832283 
L 393.961902 113.943805 
L 401.483794 107.030339 
L 409.005686 104.26773 
L 416.527579 102.782306 
L 424.049471 100.963704 
L 431.571364 107.82164 
" style="fill:none;stroke:#d62728;stroke-linecap:square;stroke-width:1.5;"/>
   </g>
   <g id="patch_3">
    <path d="M 44.57 303.64 
L 44.57 32.876829 
" style="fill:none;stroke:#000000;stroke-linecap:square;stroke-linejoin:miter;stroke-width:0.8;"/>
   </g>
   <g id="patch_4">
    <path d="M 450 303.64 
L 450 32.876829 
" style="fill:none;stroke:#000000;stroke-linecap:square;stroke-linejoin:miter;stroke-width:0.8;"/>
   </g>
   <g id="patch_5">
    <path d="M 44.57 303.64 
L 450 303.64 
" style="fill:none;stroke:#000000;stroke-linecap:square;stroke-linejoin:miter;stroke-width:0.8;"/>
   </g>
   <g id="patch_6">
    <path d="M 44.57 32.876829 
L 450 32.876829 
" style="fill:none;stroke:#000000;stroke-linecap:square;stroke-linejoin:miter;stroke-width:0.8;"/>
   </g>
   <g id="legend_1">
    <g id="patch_7">
     <path d="M 80.886563 28.478637 
L 413.683438 28.478637 
Q 415.683438 28.478637 415.683438 26.478637 
L 415.683438 12.800512 
Q 415.683438 10.800512 413.683438 10.800512 
L 80.886563 10.800512 
Q 78.886563 10.800512 78.886563 12.800512 
L 78.886563 26.478637 
Q 78.886563 28.478637 80.886563 28.478637 
z
" style="fill:#ffffff;opacity:0.8;stroke:#cccccc;stroke-linejoin:miter;"/>
    </g>
    <g id="line2d_19">
     <path d="M 82.886563 18.898949 
L 102.886563 18.898949 
" style="fill:none;stroke:#1f77b4;stroke-linecap:square;stroke-width:1.5;"/>
    </g>
    <g id="line2d_20"/>
    <g id="text_17">
     <!-- FedAvg -->
     <g transform="translate(110.886563 22.398949)scale(0.1 -0.1)">
      <defs>
       <path d="M 628 4666 
L 3309 4666 
L 3309 4134 
L 1259 4134 
L 1259 2759 
L 3109 2759 
L 3109 2228 
L 1259 2228 
L 1259 0 
L 628 0 
L 628 4666 
z
" id="DejaVuSans-46" transform="scale(0.015625)"/>
       <path d="M 191 3500 
L 800 3500 
L 1894 563 
L 2988 3500 
L 3597 3500 
L 2284 0 
L 1503 0 
L 191 3500 
z
" id="DejaVuSans-76" transform="scale(0.015625)"/>
       <path d="M 2906 1791 
Q 2906 2416 2648 2759 
Q 2391 3103 1925 3103 
Q 1463 3103 1205 2759 
Q 947 2416 947 1791 
Q 947 1169 1205 825 
Q 1463 481 1925 481 
Q 2391 481 2648 825 
Q 2906 1169 2906 1791 
z
M 3481 434 
Q 3481 -459 3084 -895 
Q 2688 -1331 1869 -1331 
Q 1566 -1331 1297 -1286 
Q 1028 -1241 775 -1147 
L 775 -588 
Q 1028 -725 1275 -790 
Q 1522 -856 1778 -856 
Q 2344 -856 2625 -561 
Q 2906 -266 2906 331 
L 2906 616 
Q 2728 306 2450 153 
Q 2172 0 1784 0 
Q 1141 0 747 490 
Q 353 981 353 1791 
Q 353 2603 747 3093 
Q 1141 3584 1784 3584 
Q 2172 3584 2450 3431 
Q 2728 3278 2906 2969 
L 2906 3500 
L 3481 3500 
L 3481 434 
z
" id="DejaVuSans-67" transform="scale(0.015625)"/>
      </defs>
      <use xlink:href="#DejaVuSans-46"/>
      <use x="52.019531" xlink:href="#DejaVuSans-65"/>
      <use x="113.542969" xlink:href="#DejaVuSans-64"/>
      <use x="177.019531" xlink:href="#DejaVuSans-41"/>
      <use x="239.552734" xlink:href="#DejaVuSans-76"/>
      <use x="298.732422" xlink:href="#DejaVuSans-67"/>
     </g>
    </g>
    <g id="line2d_21">
     <path d="M 167.11 18.898949 
L 187.11 18.898949 
" style="fill:none;stroke:#ff7f0e;stroke-linecap:square;stroke-width:1.5;"/>
    </g>
    <g id="line2d_22"/>
    <g id="text_18">
     <!-- FedMed -->
     <g transform="translate(195.11 22.398949)scale(0.1 -0.1)">
      <defs>
       <path d="M 628 4666 
L 1569 4666 
L 2759 1491 
L 3956 4666 
L 4897 4666 
L 4897 0 
L 4281 0 
L 4281 4097 
L 3078 897 
L 2444 897 
L 1241 4097 
L 1241 0 
L 628 0 
L 628 4666 
z
" id="DejaVuSans-4d" transform="scale(0.015625)"/>
      </defs>
      <use xlink:href="#DejaVuSans-46"/>
      <use x="52.019531" xlink:href="#DejaVuSans-65"/>
      <use x="113.542969" xlink:href="#DejaVuSans-64"/>
      <use x="177.019531" xlink:href="#DejaVuSans-4d"/>
      <use x="263.298828" xlink:href="#DejaVuSans-65"/>
      <use x="324.822266" xlink:href="#DejaVuSans-64"/>
     </g>
    </g>
    <g id="line2d_23">
     <path d="M 253.942813 18.898949 
L 273.942813 18.898949 
" style="fill:none;stroke:#2ca02c;stroke-linecap:square;stroke-width:1.5;"/>
    </g>
    <g id="line2d_24"/>
    <g id="text_19">
     <!-- FedProx -->
     <g transform="translate(281.942813 22.398949)scale(0.1 -0.1)">
      <defs>
       <path d="M 1259 4147 
L 1259 2394 
L 2053 2394 
Q 2494 2394 2734 2622 
Q 2975 2850 2975 3272 
Q 2975 3691 2734 3919 
Q 2494 4147 2053 4147 
L 1259 4147 
z
M 628 4666 
L 2053 4666 
Q 2838 4666 3239 4311 
Q 3641 3956 3641 3272 
Q 3641 2581 3239 2228 
Q 2838 1875 2053 1875 
L 1259 1875 
L 1259 0 
L 628 0 
L 628 4666 
z
" id="DejaVuSans-50" transform="scale(0.015625)"/>
       <path d="M 3513 3500 
L 2247 1797 
L 3578 0 
L 2900 0 
L 1881 1375 
L 863 0 
L 184 0 
L 1544 1831 
L 300 3500 
L 978 3500 
L 1906 2253 
L 2834 3500 
L 3513 3500 
z
" id="DejaVuSans-78" transform="scale(0.015625)"/>
      </defs>
      <use xlink:href="#DejaVuSans-46"/>
      <use x="52.019531" xlink:href="#DejaVuSans-65"/>
      <use x="113.542969" xlink:href="#DejaVuSans-64"/>
      <use x="177.019531" xlink:href="#DejaVuSans-50"/>
      <use x="235.572266" xlink:href="#DejaVuSans-72"/>
      <use x="274.435547" xlink:href="#DejaVuSans-6f"/>
      <use x="332.492188" xlink:href="#DejaVuSans-78"/>
     </g>
    </g>
    <g id="line2d_25">
     <path d="M 341.111563 18.898949 
L 361.111563 18.898949 
" style="fill:none;stroke:#d62728;stroke-linecap:square;stroke-width:1.5;"/>
    </g>
    <g id="line2d_26"/>
    <g id="text_20">
     <!-- qFedAvg -->
     <g transform="translate(369.111563 22.398949)scale(0.1 -0.1)">
      <defs>
       <path d="M 947 1747 
Q 947 1113 1208 752 
Q 1469 391 1925 391 
Q 2381 391 2643 752 
Q 2906 1113 2906 1747 
Q 2906 2381 2643 2742 
Q 2381 3103 1925 3103 
Q 1469 3103 1208 2742 
Q 947 2381 947 1747 
z
M 2906 525 
Q 2725 213 2448 61 
Q 2172 -91 1784 -91 
Q 1150 -91 751 415 
Q 353 922 353 1747 
Q 353 2572 751 3078 
Q 1150 3584 1784 3584 
Q 2172 3584 2448 3432 
Q 2725 3281 2906 2969 
L 2906 3500 
L 3481 3500 
L 3481 -1331 
L 2906 -1331 
L 2906 525 
z
" id="DejaVuSans-71" transform="scale(0.015625)"/>
      </defs>
      <use xlink:href="#DejaVuSans-71"/>
      <use x="63.476562" xlink:href="#DejaVuSans-46"/>
      <use x="115.496094" xlink:href="#DejaVuSans-65"/>
      <use x="177.019531" xlink:href="#DejaVuSans-64"/>
      <use x="240.496094" xlink:href="#DejaVuSans-41"/>
      <use x="303.029297" xlink:href="#DejaVuSans-76"/>
      <use x="362.208984" xlink:href="#DejaVuSans-67"/>
     </g>
    </g>
   </g>
  </g>
 </g>
 <defs>
  <clipPath id="p5e894bbe2e">
   <rect height="270.763171" width="405.43" x="44.57" y="32.876829"/>
  </clipPath>
 </defs>
</svg>
