<?xml version="1.0" encoding="utf-8" standalone="no"?>
<!DOCTYPE svg PUBLIC "-//W3C//DTD SVG 1.1//EN"
  "http://www.w3.org/Graphics/SVG/1.1/DTD/svg11.dtd">
<svg height="345.6pt" version="1.1" viewBox="0 0 460.8 345.6" width="460.8pt" xmlns="http://www.w3.org/2000/svg" xmlns:xlink="http://www.w3.org/1999/xlink">
 <metadata>
  <rdf:RDF xmlns:cc="http://creativecommons.org/ns#" xmlns:dc="http://purl.org/dc/elements/1.1/" xmlns:rdf="http://www.w3.org/1999/02/22-rdf-syntax-ns#">
   <cc:Work>
    <dc:type rdf:resource="http://purl.org/dc/dcmitype/StillImage"/>
    <dc:date>2021-05-07T11:38:07.383943</dc:date>
    <dc:format>image/svg+xml</dc:format>
    <dc:creator>
     <cc:Agent>
      <dc:title>Matplotlib v3.4.1, https://matplotlib.org/</dc:title>
     </cc:Agent>
    </dc:creator>
   </cc:Work>
  </rdf:RDF>
 </metadata>
 <defs>
  <style type="text/css">*{stroke-linecap:butt;stroke-linejoin:round;}</style>
 </defs>
 <g id="figure_1">
  <g id="patch_1">
   <path d="M 0 345.6 
L 460.8 345.6 
L 460.8 0 
L 0 0 
z
" style="fill:#ffffff;"/>
  </g>
  <g id="axes_1">
   <g id="patch_2">
    <path d="M 44.57 303.64 
L 450 303.64 
L 450 48.38 
L 44.57 48.38 
z
" style="fill:#ffffff;"/>
   </g>
   <g id="PolyCollection_1">
    <path clip-path="url(#pdd21192dd6)" d="M 62.998636 285.996328 
L 62.998636 289.238789 
L 70.520529 288.663356 
L 78.042421 276.604789 
L 85.564314 271.05751 
L 93.086206 269.067922 
L 100.608098 251.641462 
L 108.129991 264.441779 
L 115.651883 238.525522 
L 123.173776 245.254222 
L 130.695668 244.484891 
L 138.21756 211.456292 
L 145.739453 234.014598 
L 153.261345 220.872402 
L 160.783237 215.273137 
L 168.30513 202.210515 
L 175.827022 205.097462 
L 183.348915 211.15913 
L 190.870807 198.475492 
L 198.392699 201.272805 
L 205.914592 204.519722 
L 213.436484 193.563317 
L 220.958377 176.042934 
L 228.480269 169.104608 
L 236.002161 198.656464 
L 243.524054 165.720852 
L 251.045946 179.45931 
L 258.567839 169.38668 
L 266.089731 168.681121 
L 273.611623 159.51551 
L 281.133516 161.959795 
L 288.655408 154.580136 
L 296.177301 151.431057 
L 303.699193 150.988603 
L 311.221085 136.117857 
L 318.742978 127.729217 
L 326.26487 115.202004 
L 333.786763 148.844782 
L 341.308655 130.501796 
L 348.830547 127.967635 
L 356.35244 116.385717 
L 363.874332 123.749673 
L 371.396224 124.743463 
L 378.918117 124.061543 
L 386.440009 117.234785 
L 393.961902 112.117121 
L 401.483794 88.680996 
L 409.005686 117.903167 
L 416.527579 106.945952 
L 424.049471 104.163338 
L 431.571364 93.552804 
L 431.571364 77.944425 
L 431.571364 77.944425 
L 424.049471 67.749045 
L 416.527579 84.893854 
L 409.005686 71.445711 
L 401.483794 59.982727 
L 393.961902 89.478818 
L 386.440009 88.720279 
L 378.918117 90.819346 
L 371.396224 98.648096 
L 363.874332 86.356937 
L 356.35244 86.455687 
L 348.830547 97.499696 
L 341.308655 94.342804 
L 333.786763 109.212189 
L 326.26487 96.15007 
L 318.742978 103.757856 
L 311.221085 109.276897 
L 303.699193 97.519811 
L 296.177301 104.342564 
L 288.655408 111.779928 
L 281.133516 134.914135 
L 273.611623 128.640172 
L 266.089731 132.551932 
L 258.567839 118.97658 
L 251.045946 128.001064 
L 243.524054 131.568232 
L 236.002161 128.938909 
L 228.480269 147.074013 
L 220.958377 146.363006 
L 213.436484 159.356489 
L 205.914592 164.175961 
L 198.392699 167.838033 
L 190.870807 174.994469 
L 183.348915 172.897275 
L 175.827022 178.543787 
L 168.30513 168.976096 
L 160.783237 171.896927 
L 153.261345 175.638642 
L 145.739453 190.311807 
L 138.21756 196.056349 
L 130.695668 223.847905 
L 123.173776 217.058833 
L 115.651883 209.049543 
L 108.129991 212.19411 
L 100.608098 232.052057 
L 93.086206 233.930287 
L 85.564314 240.658947 
L 78.042421 243.829915 
L 70.520529 276.400472 
L 62.998636 285.996328 
z
" style="fill:#1f77b4;fill-opacity:0.5;"/>
   </g>
   <g id="PolyCollection_2">
    <path clip-path="url(#pdd21192dd6)" d="M 62.998636 286.975013 
L 62.998636 289.713145 
L 70.520529 289.280647 
L 78.042421 286.468572 
L 85.564314 282.791985 
L 93.086206 287.356072 
L 100.608098 279.92225 
L 108.129991 275.65856 
L 115.651883 283.097746 
L 123.173776 272.188323 
L 130.695668 287.743909 
L 138.21756 267.655628 
L 145.739453 272.129804 
L 153.261345 272.89261 
L 160.783237 255.274702 
L 168.30513 266.985251 
L 175.827022 269.970696 
L 183.348915 262.261262 
L 190.870807 287.586722 
L 198.392699 266.628374 
L 205.914592 270.194324 
L 213.436484 266.941093 
L 220.958377 274.892054 
L 228.480269 249.626654 
L 236.002161 274.732158 
L 243.524054 269.863406 
L 251.045946 270.234113 
L 258.567839 240.717841 
L 266.089731 278.341368 
L 273.611623 262.022367 
L 281.133516 244.443908 
L 288.655408 262.683739 
L 296.177301 258.900369 
L 303.699193 245.552655 
L 311.221085 247.827353 
L 318.742978 236.596743 
L 326.26487 215.84913 
L 333.786763 262.776633 
L 341.308655 231.644739 
L 348.830547 221.18766 
L 356.35244 207.019062 
L 363.874332 230.119924 
L 371.396224 235.366614 
L 378.918117 255.433915 
L 386.440009 275.701071 
L 393.961902 270.035015 
L 401.483794 210.253859 
L 409.005686 225.152065 
L 416.527579 211.629103 
L 424.049471 255.319835 
L 431.571364 213.312773 
L 431.571364 175.102755 
L 431.571364 175.102755 
L 424.049471 158.420127 
L 416.527579 178.239467 
L 409.005686 164.508927 
L 401.483794 156.366051 
L 393.961902 180.861286 
L 386.440009 178.101314 
L 378.918117 177.818315 
L 371.396224 180.656698 
L 363.874332 171.372975 
L 356.35244 177.244919 
L 348.830547 189.853796 
L 341.308655 180.849758 
L 333.786763 184.383277 
L 326.26487 202.66511 
L 318.742978 189.182703 
L 311.221085 193.935547 
L 303.699193 213.439162 
L 296.177301 195.109592 
L 288.655408 194.232305 
L 281.133516 217.869146 
L 273.611623 210.254398 
L 266.089731 225.071996 
L 258.567839 202.705678 
L 251.045946 235.255024 
L 243.524054 228.775679 
L 236.002161 211.24471 
L 228.480269 224.31073 
L 220.958377 234.956206 
L 213.436484 210.525106 
L 205.914592 223.87806 
L 198.392699 230.55767 
L 190.870807 233.470714 
L 183.348915 207.524575 
L 175.827022 231.366895 
L 168.30513 235.597803 
L 160.783237 222.814228 
L 153.261345 235.710187 
L 145.739453 222.565312 
L 138.21756 240.532015 
L 130.695668 250.9576 
L 123.173776 242.226638 
L 115.651883 248.130978 
L 108.129991 243.323103 
L 100.608098 252.551939 
L 93.086206 264.630384 
L 85.564314 251.342822 
L 78.042421 257.007214 
L 70.520529 280.557459 
L 62.998636 286.975013 
z
" style="fill:#ff7f0e;fill-opacity:0.5;"/>
   </g>
   <g id="PolyCollection_3">
    <path clip-path="url(#pdd21192dd6)" d="M 62.998636 277.798889 
L 62.998636 287.680093 
L 70.520529 291.438065 
L 78.042421 269.780317 
L 85.564314 263.93547 
L 93.086206 261.933395 
L 100.608098 252.040074 
L 108.129991 257.035993 
L 115.651883 249.960536 
L 123.173776 240.573653 
L 130.695668 240.457733 
L 138.21756 237.184859 
L 145.739453 225.591272 
L 153.261345 233.398207 
L 160.783237 232.849983 
L 168.30513 215.316373 
L 175.827022 190.500329 
L 183.348915 210.471902 
L 190.870807 221.697974 
L 198.392699 206.948109 
L 205.914592 204.68575 
L 213.436484 207.356325 
L 220.958377 203.993872 
L 228.480269 190.554477 
L 236.002161 189.040457 
L 243.524054 214.504112 
L 251.045946 196.306584 
L 258.567839 211.796654 
L 266.089731 180.98644 
L 273.611623 177.788511 
L 281.133516 171.509671 
L 288.655408 150.424196 
L 296.177301 153.298858 
L 303.699193 148.712814 
L 311.221085 172.094212 
L 318.742978 146.036269 
L 326.26487 152.206654 
L 333.786763 154.136442 
L 341.308655 152.341754 
L 348.830547 149.61294 
L 356.35244 157.109826 
L 363.874332 140.761408 
L 371.396224 145.26703 
L 378.918117 128.058774 
L 386.440009 143.219698 
L 393.961902 136.579362 
L 401.483794 142.641648 
L 409.005686 141.508251 
L 416.527579 129.412593 
L 424.049471 138.15073 
L 431.571364 150.190558 
L 431.571364 100.393629 
L 431.571364 100.393629 
L 424.049471 93.751499 
L 416.527579 92.318346 
L 409.005686 94.753101 
L 401.483794 126.001766 
L 393.961902 96.360754 
L 386.440009 120.026706 
L 378.918117 116.298094 
L 371.396224 105.317158 
L 363.874332 118.333449 
L 356.35244 127.724619 
L 348.830547 121.313824 
L 341.308655 115.263773 
L 333.786763 125.093415 
L 326.26487 134.703565 
L 318.742978 136.514826 
L 311.221085 121.250903 
L 303.699193 135.706476 
L 296.177301 128.006773 
L 288.655408 136.278445 
L 281.133516 146.9523 
L 273.611623 143.371966 
L 266.089731 140.796769 
L 258.567839 158.559647 
L 251.045946 166.369357 
L 243.524054 157.927962 
L 236.002161 157.859607 
L 228.480269 167.139608 
L 220.958377 158.682068 
L 213.436484 168.396987 
L 205.914592 165.462973 
L 198.392699 171.711285 
L 190.870807 158.414461 
L 183.348915 184.170946 
L 175.827022 178.195353 
L 168.30513 176.835547 
L 160.783237 195.42039 
L 153.261345 208.364692 
L 145.739453 203.094257 
L 138.21756 205.823505 
L 130.695668 222.893208 
L 123.173776 221.11667 
L 115.651883 220.448034 
L 108.129991 224.166598 
L 100.608098 235.389836 
L 93.086206 244.386051 
L 85.564314 241.553667 
L 78.042421 239.860366 
L 70.520529 258.057464 
L 62.998636 277.798889 
z
" style="fill:#2ca02c;fill-opacity:0.5;"/>
   </g>
   <g id="PolyCollection_4">
    <path clip-path="url(#pdd21192dd6)" d="M 62.998636 286.164517 
L 62.998636 286.164517 
L 70.520529 292.037273 
L 78.042421 287.490238 
L 85.564314 282.573225 
L 93.086206 279.453044 
L 100.608098 278.087739 
L 108.129991 266.862712 
L 115.651883 259.179646 
L 123.173776 257.032203 
L 130.695668 257.041723 
L 138.21756 249.996069 
L 145.739453 250.493197 
L 153.261345 244.007757 
L 160.783237 242.770908 
L 168.30513 234.976571 
L 175.827022 240.416474 
L 183.348915 229.041106 
L 190.870807 237.888293 
L 198.392699 232.156416 
L 205.914592 231.948838 
L 213.436484 218.550303 
L 220.958377 227.489688 
L 228.480269 221.263594 
L 236.002161 221.632399 
L 243.524054 221.359404 
L 251.045946 215.07568 
L 258.567839 216.459767 
L 266.089731 211.84834 
L 273.611623 202.454189 
L 281.133516 207.994767 
L 288.655408 202.241331 
L 296.177301 207.971518 
L 303.699193 191.111998 
L 311.221085 210.023161 
L 318.742978 200.31345 
L 326.26487 200.491762 
L 333.786763 192.299511 
L 341.308655 196.107215 
L 348.830547 186.577106 
L 356.35244 185.822435 
L 363.874332 188.371721 
L 371.396224 186.040997 
L 378.918117 185.671659 
L 386.440009 180.659483 
L 393.961902 182.192624 
L 401.483794 184.923017 
L 409.005686 188.715999 
L 416.527579 181.666876 
L 424.049471 176.021542 
L 431.571364 180.185907 
L 431.571364 145.13089 
L 431.571364 145.13089 
L 424.049471 144.802037 
L 416.527579 143.797508 
L 409.005686 145.308459 
L 401.483794 147.641965 
L 393.961902 150.552743 
L 386.440009 151.151163 
L 378.918117 145.138671 
L 371.396224 150.295665 
L 363.874332 148.4405 
L 356.35244 162.944372 
L 348.830547 154.203578 
L 341.308655 154.266655 
L 333.786763 156.122925 
L 326.26487 152.030326 
L 318.742978 156.1935 
L 311.221085 160.684984 
L 303.699193 164.870197 
L 296.177301 169.017294 
L 288.655408 165.416672 
L 281.133516 165.583134 
L 273.611623 171.730461 
L 266.089731 168.731767 
L 258.567839 171.712896 
L 251.045946 175.901145 
L 243.524054 174.192633 
L 236.002161 173.788448 
L 228.480269 174.682009 
L 220.958377 172.29319 
L 213.436484 182.446071 
L 205.914592 179.067086 
L 198.392699 181.860454 
L 190.870807 183.589943 
L 183.348915 187.14038 
L 175.827022 186.62089 
L 168.30513 187.190407 
L 160.783237 193.138104 
L 153.261345 200.625314 
L 145.739453 198.879072 
L 138.21756 204.951727 
L 130.695668 214.370275 
L 123.173776 217.380741 
L 115.651883 227.827429 
L 108.129991 232.361326 
L 100.608098 238.666412 
L 93.086206 249.567265 
L 85.564314 260.320307 
L 78.042421 271.801903 
L 70.520529 267.976407 
L 62.998636 286.164517 
z
" style="fill:#d62728;fill-opacity:0.5;"/>
   </g>
   <g id="matplotlib.axis_1">
    <g id="xtick_1">
     <g id="line2d_1">
      <defs>
       <path d="M 0 0 
L 0 3.5 
" id="me883595147" style="stroke:#000000;stroke-width:0.8;"/>
      </defs>
      <g>
       <use style="stroke:#000000;stroke-width:0.8;" x="62.998636" xlink:href="#me883595147" y="303.64"/>
      </g>
     </g>
     <g id="text_1">
      <!-- 0 -->
      <g transform="translate(59.817386 318.238437)scale(0.1 -0.1)">
       <defs>
        <path d="M 2034 4250 
Q 1547 4250 1301 3770 
Q 1056 3291 1056 2328 
Q 1056 1369 1301 889 
Q 1547 409 2034 409 
Q 2525 409 2770 889 
Q 3016 1369 3016 2328 
Q 3016 3291 2770 3770 
Q 2525 4250 2034 4250 
z
M 2034 4750 
Q 2819 4750 3233 4129 
Q 3647 3509 3647 2328 
Q 3647 1150 3233 529 
Q 2819 -91 2034 -91 
Q 1250 -91 836 529 
Q 422 1150 422 2328 
Q 422 3509 836 4129 
Q 1250 4750 2034 4750 
z
" id="DejaVuSans-30" transform="scale(0.015625)"/>
       </defs>
       <use xlink:href="#DejaVuSans-30"/>
      </g>
     </g>
    </g>
    <g id="xtick_2">
     <g id="line2d_2">
      <g>
       <use style="stroke:#000000;stroke-width:0.8;" x="138.21756" xlink:href="#me883595147" y="303.64"/>
      </g>
     </g>
     <g id="text_2">
      <!-- 10 -->
      <g transform="translate(131.85506 318.238437)scale(0.1 -0.1)">
       <defs>
        <path d="M 794 531 
L 1825 531 
L 1825 4091 
L 703 3866 
L 703 4441 
L 1819 4666 
L 2450 4666 
L 2450 531 
L 3481 531 
L 3481 0 
L 794 0 
L 794 531 
z
" id="DejaVuSans-31" transform="scale(0.015625)"/>
       </defs>
       <use xlink:href="#DejaVuSans-31"/>
       <use x="63.623047" xlink:href="#DejaVuSans-30"/>
      </g>
     </g>
    </g>
    <g id="xtick_3">
     <g id="line2d_3">
      <g>
       <use style="stroke:#000000;stroke-width:0.8;" x="213.436484" xlink:href="#me883595147" y="303.64"/>
      </g>
     </g>
     <g id="text_3">
      <!-- 20 -->
      <g transform="translate(207.073984 318.238437)scale(0.1 -0.1)">
       <defs>
        <path d="M 1228 531 
L 3431 531 
L 3431 0 
L 469 0 
L 469 531 
Q 828 903 1448 1529 
Q 2069 2156 2228 2338 
Q 2531 2678 2651 2914 
Q 2772 3150 2772 3378 
Q 2772 3750 2511 3984 
Q 2250 4219 1831 4219 
Q 1534 4219 1204 4116 
Q 875 4013 500 3803 
L 500 4441 
Q 881 4594 1212 4672 
Q 1544 4750 1819 4750 
Q 2544 4750 2975 4387 
Q 3406 4025 3406 3419 
Q 3406 3131 3298 2873 
Q 3191 2616 2906 2266 
Q 2828 2175 2409 1742 
Q 1991 1309 1228 531 
z
" id="DejaVuSans-32" transform="scale(0.015625)"/>
       </defs>
       <use xlink:href="#DejaVuSans-32"/>
       <use x="63.623047" xlink:href="#DejaVuSans-30"/>
      </g>
     </g>
    </g>
    <g id="xtick_4">
     <g id="line2d_4">
      <g>
       <use style="stroke:#000000;stroke-width:0.8;" x="288.655408" xlink:href="#me883595147" y="303.64"/>
      </g>
     </g>
     <g id="text_4">
      <!-- 30 -->
      <g transform="translate(282.292908 318.238437)scale(0.1 -0.1)">
       <defs>
        <path d="M 2597 2516 
Q 3050 2419 3304 2112 
Q 3559 1806 3559 1356 
Q 3559 666 3084 287 
Q 2609 -91 1734 -91 
Q 1441 -91 1130 -33 
Q 819 25 488 141 
L 488 750 
Q 750 597 1062 519 
Q 1375 441 1716 441 
Q 2309 441 2620 675 
Q 2931 909 2931 1356 
Q 2931 1769 2642 2001 
Q 2353 2234 1838 2234 
L 1294 2234 
L 1294 2753 
L 1863 2753 
Q 2328 2753 2575 2939 
Q 2822 3125 2822 3475 
Q 2822 3834 2567 4026 
Q 2313 4219 1838 4219 
Q 1578 4219 1281 4162 
Q 984 4106 628 3988 
L 628 4550 
Q 988 4650 1302 4700 
Q 1616 4750 1894 4750 
Q 2613 4750 3031 4423 
Q 3450 4097 3450 3541 
Q 3450 3153 3228 2886 
Q 3006 2619 2597 2516 
z
" id="DejaVuSans-33" transform="scale(0.015625)"/>
       </defs>
       <use xlink:href="#DejaVuSans-33"/>
       <use x="63.623047" xlink:href="#DejaVuSans-30"/>
      </g>
     </g>
    </g>
    <g id="xtick_5">
     <g id="line2d_5">
      <g>
       <use style="stroke:#000000;stroke-width:0.8;" x="363.874332" xlink:href="#me883595147" y="303.64"/>
      </g>
     </g>
     <g id="text_5">
      <!-- 40 -->
      <g transform="translate(357.511832 318.238437)scale(0.1 -0.1)">
       <defs>
        <path d="M 2419 4116 
L 825 1625 
L 2419 1625 
L 2419 4116 
z
M 2253 4666 
L 3047 4666 
L 3047 1625 
L 3713 1625 
L 3713 1100 
L 3047 1100 
L 3047 0 
L 2419 0 
L 2419 1100 
L 313 1100 
L 313 1709 
L 2253 4666 
z
" id="DejaVuSans-34" transform="scale(0.015625)"/>
       </defs>
       <use xlink:href="#DejaVuSans-34"/>
       <use x="63.623047" xlink:href="#DejaVuSans-30"/>
      </g>
     </g>
    </g>
    <g id="xtick_6">
     <g id="line2d_6">
      <g>
       <use style="stroke:#000000;stroke-width:0.8;" x="439.093256" xlink:href="#me883595147" y="303.64"/>
      </g>
     </g>
     <g id="text_6">
      <!-- 50 -->
      <g transform="translate(432.730756 318.238437)scale(0.1 -0.1)">
       <defs>
        <path d="M 691 4666 
L 3169 4666 
L 3169 4134 
L 1269 4134 
L 1269 2991 
Q 1406 3038 1543 3061 
Q 1681 3084 1819 3084 
Q 2600 3084 3056 2656 
Q 3513 2228 3513 1497 
Q 3513 744 3044 326 
Q 2575 -91 1722 -91 
Q 1428 -91 1123 -41 
Q 819 9 494 109 
L 494 744 
Q 775 591 1075 516 
Q 1375 441 1709 441 
Q 2250 441 2565 725 
Q 2881 1009 2881 1497 
Q 2881 1984 2565 2268 
Q 2250 2553 1709 2553 
Q 1456 2553 1204 2497 
Q 953 2441 691 2322 
L 691 4666 
z
" id="DejaVuSans-35" transform="scale(0.015625)"/>
       </defs>
       <use xlink:href="#DejaVuSans-35"/>
       <use x="63.623047" xlink:href="#DejaVuSans-30"/>
      </g>
     </g>
    </g>
    <g id="text_7">
     <!-- Global Communication Rounds -->
     <g transform="translate(170.323281 331.916562)scale(0.1 -0.1)">
      <defs>
       <path d="M 3809 666 
L 3809 1919 
L 2778 1919 
L 2778 2438 
L 4434 2438 
L 4434 434 
Q 4069 175 3628 42 
Q 3188 -91 2688 -91 
Q 1594 -91 976 548 
Q 359 1188 359 2328 
Q 359 3472 976 4111 
Q 1594 4750 2688 4750 
Q 3144 4750 3555 4637 
Q 3966 4525 4313 4306 
L 4313 3634 
Q 3963 3931 3569 4081 
Q 3175 4231 2741 4231 
Q 1884 4231 1454 3753 
Q 1025 3275 1025 2328 
Q 1025 1384 1454 906 
Q 1884 428 2741 428 
Q 3075 428 3337 486 
Q 3600 544 3809 666 
z
" id="DejaVuSans-47" transform="scale(0.015625)"/>
       <path d="M 603 4863 
L 1178 4863 
L 1178 0 
L 603 0 
L 603 4863 
z
" id="DejaVuSans-6c" transform="scale(0.015625)"/>
       <path d="M 1959 3097 
Q 1497 3097 1228 2736 
Q 959 2375 959 1747 
Q 959 1119 1226 758 
Q 1494 397 1959 397 
Q 2419 397 2687 759 
Q 2956 1122 2956 1747 
Q 2956 2369 2687 2733 
Q 2419 3097 1959 3097 
z
M 1959 3584 
Q 2709 3584 3137 3096 
Q 3566 2609 3566 1747 
Q 3566 888 3137 398 
Q 2709 -91 1959 -91 
Q 1206 -91 779 398 
Q 353 888 353 1747 
Q 353 2609 779 3096 
Q 1206 3584 1959 3584 
z
" id="DejaVuSans-6f" transform="scale(0.015625)"/>
       <path d="M 3116 1747 
Q 3116 2381 2855 2742 
Q 2594 3103 2138 3103 
Q 1681 3103 1420 2742 
Q 1159 2381 1159 1747 
Q 1159 1113 1420 752 
Q 1681 391 2138 391 
Q 2594 391 2855 752 
Q 3116 1113 3116 1747 
z
M 1159 2969 
Q 1341 3281 1617 3432 
Q 1894 3584 2278 3584 
Q 2916 3584 3314 3078 
Q 3713 2572 3713 1747 
Q 3713 922 3314 415 
Q 2916 -91 2278 -91 
Q 1894 -91 1617 61 
Q 1341 213 1159 525 
L 1159 0 
L 581 0 
L 581 4863 
L 1159 4863 
L 1159 2969 
z
" id="DejaVuSans-62" transform="scale(0.015625)"/>
       <path d="M 2194 1759 
Q 1497 1759 1228 1600 
Q 959 1441 959 1056 
Q 959 750 1161 570 
Q 1363 391 1709 391 
Q 2188 391 2477 730 
Q 2766 1069 2766 1631 
L 2766 1759 
L 2194 1759 
z
M 3341 1997 
L 3341 0 
L 2766 0 
L 2766 531 
Q 2569 213 2275 61 
Q 1981 -91 1556 -91 
Q 1019 -91 701 211 
Q 384 513 384 1019 
Q 384 1609 779 1909 
Q 1175 2209 1959 2209 
L 2766 2209 
L 2766 2266 
Q 2766 2663 2505 2880 
Q 2244 3097 1772 3097 
Q 1472 3097 1187 3025 
Q 903 2953 641 2809 
L 641 3341 
Q 956 3463 1253 3523 
Q 1550 3584 1831 3584 
Q 2591 3584 2966 3190 
Q 3341 2797 3341 1997 
z
" id="DejaVuSans-61" transform="scale(0.015625)"/>
       <path id="DejaVuSans-20" transform="scale(0.015625)"/>
       <path d="M 4122 4306 
L 4122 3641 
Q 3803 3938 3442 4084 
Q 3081 4231 2675 4231 
Q 1875 4231 1450 3742 
Q 1025 3253 1025 2328 
Q 1025 1406 1450 917 
Q 1875 428 2675 428 
Q 3081 428 3442 575 
Q 3803 722 4122 1019 
L 4122 359 
Q 3791 134 3420 21 
Q 3050 -91 2638 -91 
Q 1578 -91 968 557 
Q 359 1206 359 2328 
Q 359 3453 968 4101 
Q 1578 4750 2638 4750 
Q 3056 4750 3426 4639 
Q 3797 4528 4122 4306 
z
" id="DejaVuSans-43" transform="scale(0.015625)"/>
       <path d="M 3328 2828 
Q 3544 3216 3844 3400 
Q 4144 3584 4550 3584 
Q 5097 3584 5394 3201 
Q 5691 2819 5691 2113 
L 5691 0 
L 5113 0 
L 5113 2094 
Q 5113 2597 4934 2840 
Q 4756 3084 4391 3084 
Q 3944 3084 3684 2787 
Q 3425 2491 3425 1978 
L 3425 0 
L 2847 0 
L 2847 2094 
Q 2847 2600 2669 2842 
Q 2491 3084 2119 3084 
Q 1678 3084 1418 2786 
Q 1159 2488 1159 1978 
L 1159 0 
L 581 0 
L 581 3500 
L 1159 3500 
L 1159 2956 
Q 1356 3278 1631 3431 
Q 1906 3584 2284 3584 
Q 2666 3584 2933 3390 
Q 3200 3197 3328 2828 
z
" id="DejaVuSans-6d" transform="scale(0.015625)"/>
       <path d="M 544 1381 
L 544 3500 
L 1119 3500 
L 1119 1403 
Q 1119 906 1312 657 
Q 1506 409 1894 409 
Q 2359 409 2629 706 
Q 2900 1003 2900 1516 
L 2900 3500 
L 3475 3500 
L 3475 0 
L 2900 0 
L 2900 538 
Q 2691 219 2414 64 
Q 2138 -91 1772 -91 
Q 1169 -91 856 284 
Q 544 659 544 1381 
z
M 1991 3584 
L 1991 3584 
z
" id="DejaVuSans-75" transform="scale(0.015625)"/>
       <path d="M 3513 2113 
L 3513 0 
L 2938 0 
L 2938 2094 
Q 2938 2591 2744 2837 
Q 2550 3084 2163 3084 
Q 1697 3084 1428 2787 
Q 1159 2491 1159 1978 
L 1159 0 
L 581 0 
L 581 3500 
L 1159 3500 
L 1159 2956 
Q 1366 3272 1645 3428 
Q 1925 3584 2291 3584 
Q 2894 3584 3203 3211 
Q 3513 2838 3513 2113 
z
" id="DejaVuSans-6e" transform="scale(0.015625)"/>
       <path d="M 603 3500 
L 1178 3500 
L 1178 0 
L 603 0 
L 603 3500 
z
M 603 4863 
L 1178 4863 
L 1178 4134 
L 603 4134 
L 603 4863 
z
" id="DejaVuSans-69" transform="scale(0.015625)"/>
       <path d="M 3122 3366 
L 3122 2828 
Q 2878 2963 2633 3030 
Q 2388 3097 2138 3097 
Q 1578 3097 1268 2742 
Q 959 2388 959 1747 
Q 959 1106 1268 751 
Q 1578 397 2138 397 
Q 2388 397 2633 464 
Q 2878 531 3122 666 
L 3122 134 
Q 2881 22 2623 -34 
Q 2366 -91 2075 -91 
Q 1284 -91 818 406 
Q 353 903 353 1747 
Q 353 2603 823 3093 
Q 1294 3584 2113 3584 
Q 2378 3584 2631 3529 
Q 2884 3475 3122 3366 
z
" id="DejaVuSans-63" transform="scale(0.015625)"/>
       <path d="M 1172 4494 
L 1172 3500 
L 2356 3500 
L 2356 3053 
L 1172 3053 
L 1172 1153 
Q 1172 725 1289 603 
Q 1406 481 1766 481 
L 2356 481 
L 2356 0 
L 1766 0 
Q 1100 0 847 248 
Q 594 497 594 1153 
L 594 3053 
L 172 3053 
L 172 3500 
L 594 3500 
L 594 4494 
L 1172 4494 
z
" id="DejaVuSans-74" transform="scale(0.015625)"/>
       <path d="M 2841 2188 
Q 3044 2119 3236 1894 
Q 3428 1669 3622 1275 
L 4263 0 
L 3584 0 
L 2988 1197 
Q 2756 1666 2539 1819 
Q 2322 1972 1947 1972 
L 1259 1972 
L 1259 0 
L 628 0 
L 628 4666 
L 2053 4666 
Q 2853 4666 3247 4331 
Q 3641 3997 3641 3322 
Q 3641 2881 3436 2590 
Q 3231 2300 2841 2188 
z
M 1259 4147 
L 1259 2491 
L 2053 2491 
Q 2509 2491 2742 2702 
Q 2975 2913 2975 3322 
Q 2975 3731 2742 3939 
Q 2509 4147 2053 4147 
L 1259 4147 
z
" id="DejaVuSans-52" transform="scale(0.015625)"/>
       <path d="M 2906 2969 
L 2906 4863 
L 3481 4863 
L 3481 0 
L 2906 0 
L 2906 525 
Q 2725 213 2448 61 
Q 2172 -91 1784 -91 
Q 1150 -91 751 415 
Q 353 922 353 1747 
Q 353 2572 751 3078 
Q 1150 3584 1784 3584 
Q 2172 3584 2448 3432 
Q 2725 3281 2906 2969 
z
M 947 1747 
Q 947 1113 1208 752 
Q 1469 391 1925 391 
Q 2381 391 2643 752 
Q 2906 1113 2906 1747 
Q 2906 2381 2643 2742 
Q 2381 3103 1925 3103 
Q 1469 3103 1208 2742 
Q 947 2381 947 1747 
z
" id="DejaVuSans-64" transform="scale(0.015625)"/>
       <path d="M 2834 3397 
L 2834 2853 
Q 2591 2978 2328 3040 
Q 2066 3103 1784 3103 
Q 1356 3103 1142 2972 
Q 928 2841 928 2578 
Q 928 2378 1081 2264 
Q 1234 2150 1697 2047 
L 1894 2003 
Q 2506 1872 2764 1633 
Q 3022 1394 3022 966 
Q 3022 478 2636 193 
Q 2250 -91 1575 -91 
Q 1294 -91 989 -36 
Q 684 19 347 128 
L 347 722 
Q 666 556 975 473 
Q 1284 391 1588 391 
Q 1994 391 2212 530 
Q 2431 669 2431 922 
Q 2431 1156 2273 1281 
Q 2116 1406 1581 1522 
L 1381 1569 
Q 847 1681 609 1914 
Q 372 2147 372 2553 
Q 372 3047 722 3315 
Q 1072 3584 1716 3584 
Q 2034 3584 2315 3537 
Q 2597 3491 2834 3397 
z
" id="DejaVuSans-73" transform="scale(0.015625)"/>
      </defs>
      <use xlink:href="#DejaVuSans-47"/>
      <use x="77.490234" xlink:href="#DejaVuSans-6c"/>
      <use x="105.273438" xlink:href="#DejaVuSans-6f"/>
      <use x="166.455078" xlink:href="#DejaVuSans-62"/>
      <use x="229.931641" xlink:href="#DejaVuSans-61"/>
      <use x="291.210938" xlink:href="#DejaVuSans-6c"/>
      <use x="318.994141" xlink:href="#DejaVuSans-20"/>
      <use x="350.78125" xlink:href="#DejaVuSans-43"/>
      <use x="420.605469" xlink:href="#DejaVuSans-6f"/>
      <use x="481.787109" xlink:href="#DejaVuSans-6d"/>
      <use x="579.199219" xlink:href="#DejaVuSans-6d"/>
      <use x="676.611328" xlink:href="#DejaVuSans-75"/>
      <use x="739.990234" xlink:href="#DejaVuSans-6e"/>
      <use x="803.369141" xlink:href="#DejaVuSans-69"/>
      <use x="831.152344" xlink:href="#DejaVuSans-63"/>
      <use x="886.132812" xlink:href="#DejaVuSans-61"/>
      <use x="947.412109" xlink:href="#DejaVuSans-74"/>
      <use x="986.621094" xlink:href="#DejaVuSans-69"/>
      <use x="1014.404297" xlink:href="#DejaVuSans-6f"/>
      <use x="1075.585938" xlink:href="#DejaVuSans-6e"/>
      <use x="1138.964844" xlink:href="#DejaVuSans-20"/>
      <use x="1170.751953" xlink:href="#DejaVuSans-52"/>
      <use x="1235.734375" xlink:href="#DejaVuSans-6f"/>
      <use x="1296.916016" xlink:href="#DejaVuSans-75"/>
      <use x="1360.294922" xlink:href="#DejaVuSans-6e"/>
      <use x="1423.673828" xlink:href="#DejaVuSans-64"/>
      <use x="1487.150391" xlink:href="#DejaVuSans-73"/>
     </g>
    </g>
   </g>
   <g id="matplotlib.axis_2">
    <g id="ytick_1">
     <g id="line2d_7">
      <defs>
       <path d="M 0 0 
L -3.5 0 
" id="m687f3e9782" style="stroke:#000000;stroke-width:0.8;"/>
      </defs>
      <g>
       <use style="stroke:#000000;stroke-width:0.8;" x="44.57" xlink:href="#m687f3e9782" y="286.164517"/>
      </g>
     </g>
     <g id="text_8">
      <!-- 10 -->
      <g transform="translate(24.845 289.963736)scale(0.1 -0.1)">
       <use xlink:href="#DejaVuSans-31"/>
       <use x="63.623047" xlink:href="#DejaVuSans-30"/>
      </g>
     </g>
    </g>
    <g id="ytick_2">
     <g id="line2d_8">
      <g>
       <use style="stroke:#000000;stroke-width:0.8;" x="44.57" xlink:href="#m687f3e9782" y="245.167996"/>
      </g>
     </g>
     <g id="text_9">
      <!-- 20 -->
      <g transform="translate(24.845 248.967215)scale(0.1 -0.1)">
       <use xlink:href="#DejaVuSans-32"/>
       <use x="63.623047" xlink:href="#DejaVuSans-30"/>
      </g>
     </g>
    </g>
    <g id="ytick_3">
     <g id="line2d_9">
      <g>
       <use style="stroke:#000000;stroke-width:0.8;" x="44.57" xlink:href="#m687f3e9782" y="204.171475"/>
      </g>
     </g>
     <g id="text_10">
      <!-- 30 -->
      <g transform="translate(24.845 207.970694)scale(0.1 -0.1)">
       <use xlink:href="#DejaVuSans-33"/>
       <use x="63.623047" xlink:href="#DejaVuSans-30"/>
      </g>
     </g>
    </g>
    <g id="ytick_4">
     <g id="line2d_10">
      <g>
       <use style="stroke:#000000;stroke-width:0.8;" x="44.57" xlink:href="#m687f3e9782" y="163.174955"/>
      </g>
     </g>
     <g id="text_11">
      <!-- 40 -->
      <g transform="translate(24.845 166.974173)scale(0.1 -0.1)">
       <use xlink:href="#DejaVuSans-34"/>
       <use x="63.623047" xlink:href="#DejaVuSans-30"/>
      </g>
     </g>
    </g>
    <g id="ytick_5">
     <g id="line2d_11">
      <g>
       <use style="stroke:#000000;stroke-width:0.8;" x="44.57" xlink:href="#m687f3e9782" y="122.178434"/>
      </g>
     </g>
     <g id="text_12">
      <!-- 50 -->
      <g transform="translate(24.845 125.977653)scale(0.1 -0.1)">
       <use xlink:href="#DejaVuSans-35"/>
       <use x="63.623047" xlink:href="#DejaVuSans-30"/>
      </g>
     </g>
    </g>
    <g id="ytick_6">
     <g id="line2d_12">
      <g>
       <use style="stroke:#000000;stroke-width:0.8;" x="44.57" xlink:href="#m687f3e9782" y="81.181913"/>
      </g>
     </g>
     <g id="text_13">
      <!-- 60 -->
      <g transform="translate(24.845 84.981132)scale(0.1 -0.1)">
       <defs>
        <path d="M 2113 2584 
Q 1688 2584 1439 2293 
Q 1191 2003 1191 1497 
Q 1191 994 1439 701 
Q 1688 409 2113 409 
Q 2538 409 2786 701 
Q 3034 994 3034 1497 
Q 3034 2003 2786 2293 
Q 2538 2584 2113 2584 
z
M 3366 4563 
L 3366 3988 
Q 3128 4100 2886 4159 
Q 2644 4219 2406 4219 
Q 1781 4219 1451 3797 
Q 1122 3375 1075 2522 
Q 1259 2794 1537 2939 
Q 1816 3084 2150 3084 
Q 2853 3084 3261 2657 
Q 3669 2231 3669 1497 
Q 3669 778 3244 343 
Q 2819 -91 2113 -91 
Q 1303 -91 875 529 
Q 447 1150 447 2328 
Q 447 3434 972 4092 
Q 1497 4750 2381 4750 
Q 2619 4750 2861 4703 
Q 3103 4656 3366 4563 
z
" id="DejaVuSans-36" transform="scale(0.015625)"/>
       </defs>
       <use xlink:href="#DejaVuSans-36"/>
       <use x="63.623047" xlink:href="#DejaVuSans-30"/>
      </g>
     </g>
    </g>
    <g id="text_14">
     <!-- Test Accuracy -->
     <g transform="translate(18.765313 210.2725)rotate(-90)scale(0.1 -0.1)">
      <defs>
       <path d="M -19 4666 
L 3928 4666 
L 3928 4134 
L 2272 4134 
L 2272 0 
L 1638 0 
L 1638 4134 
L -19 4134 
L -19 4666 
z
" id="DejaVuSans-54" transform="scale(0.015625)"/>
       <path d="M 3597 1894 
L 3597 1613 
L 953 1613 
Q 991 1019 1311 708 
Q 1631 397 2203 397 
Q 2534 397 2845 478 
Q 3156 559 3463 722 
L 3463 178 
Q 3153 47 2828 -22 
Q 2503 -91 2169 -91 
Q 1331 -91 842 396 
Q 353 884 353 1716 
Q 353 2575 817 3079 
Q 1281 3584 2069 3584 
Q 2775 3584 3186 3129 
Q 3597 2675 3597 1894 
z
M 3022 2063 
Q 3016 2534 2758 2815 
Q 2500 3097 2075 3097 
Q 1594 3097 1305 2825 
Q 1016 2553 972 2059 
L 3022 2063 
z
" id="DejaVuSans-65" transform="scale(0.015625)"/>
       <path d="M 2188 4044 
L 1331 1722 
L 3047 1722 
L 2188 4044 
z
M 1831 4666 
L 2547 4666 
L 4325 0 
L 3669 0 
L 3244 1197 
L 1141 1197 
L 716 0 
L 50 0 
L 1831 4666 
z
" id="DejaVuSans-41" transform="scale(0.015625)"/>
       <path d="M 2631 2963 
Q 2534 3019 2420 3045 
Q 2306 3072 2169 3072 
Q 1681 3072 1420 2755 
Q 1159 2438 1159 1844 
L 1159 0 
L 581 0 
L 581 3500 
L 1159 3500 
L 1159 2956 
Q 1341 3275 1631 3429 
Q 1922 3584 2338 3584 
Q 2397 3584 2469 3576 
Q 2541 3569 2628 3553 
L 2631 2963 
z
" id="DejaVuSans-72" transform="scale(0.015625)"/>
       <path d="M 2059 -325 
Q 1816 -950 1584 -1140 
Q 1353 -1331 966 -1331 
L 506 -1331 
L 506 -850 
L 844 -850 
Q 1081 -850 1212 -737 
Q 1344 -625 1503 -206 
L 1606 56 
L 191 3500 
L 800 3500 
L 1894 763 
L 2988 3500 
L 3597 3500 
L 2059 -325 
z
" id="DejaVuSans-79" transform="scale(0.015625)"/>
      </defs>
      <use xlink:href="#DejaVuSans-54"/>
      <use x="44.083984" xlink:href="#DejaVuSans-65"/>
      <use x="105.607422" xlink:href="#DejaVuSans-73"/>
      <use x="157.707031" xlink:href="#DejaVuSans-74"/>
      <use x="196.916016" xlink:href="#DejaVuSans-20"/>
      <use x="228.703125" xlink:href="#DejaVuSans-41"/>
      <use x="295.361328" xlink:href="#DejaVuSans-63"/>
      <use x="350.341797" xlink:href="#DejaVuSans-63"/>
      <use x="405.322266" xlink:href="#DejaVuSans-75"/>
      <use x="468.701172" xlink:href="#DejaVuSans-72"/>
      <use x="509.814453" xlink:href="#DejaVuSans-61"/>
      <use x="571.09375" xlink:href="#DejaVuSans-63"/>
      <use x="626.074219" xlink:href="#DejaVuSans-79"/>
     </g>
    </g>
   </g>
   <g id="line2d_13">
    <path clip-path="url(#pdd21192dd6)" d="M 62.998636 287.617558 
L 70.520529 282.531914 
L 78.042421 260.217352 
L 85.564314 255.858228 
L 93.086206 251.499105 
L 100.608098 241.846759 
L 108.129991 238.317945 
L 115.651883 223.787532 
L 123.173776 231.156527 
L 130.695668 234.166398 
L 138.21756 203.756321 
L 145.739453 212.163202 
L 153.261345 198.255522 
L 160.783237 193.585032 
L 168.30513 185.593305 
L 175.827022 191.820625 
L 183.348915 192.028202 
L 190.870807 186.734981 
L 198.392699 184.555419 
L 205.914592 184.347841 
L 213.436484 176.459903 
L 220.958377 161.20297 
L 228.480269 158.08931 
L 236.002161 163.797687 
L 243.524054 148.644542 
L 251.045946 153.730187 
L 258.567839 144.18163 
L 266.089731 150.616527 
L 273.611623 144.077841 
L 281.133516 148.436965 
L 288.655408 133.180032 
L 296.177301 127.88681 
L 303.699193 124.254207 
L 311.221085 122.697377 
L 318.742978 115.743537 
L 326.26487 105.676037 
L 333.786763 129.028485 
L 341.308655 112.4223 
L 348.830547 112.733666 
L 356.35244 101.420702 
L 363.874332 105.053305 
L 371.396224 111.695779 
L 378.918117 107.440444 
L 386.440009 102.977532 
L 393.961902 100.79797 
L 401.483794 74.331861 
L 409.005686 94.674439 
L 416.527579 95.919903 
L 424.049471 85.956191 
L 431.571364 85.748614 
" style="fill:none;stroke:#1f77b4;stroke-linecap:square;stroke-width:1.5;"/>
   </g>
   <g id="line2d_14">
    <path clip-path="url(#pdd21192dd6)" d="M 62.998636 288.344079 
L 70.520529 284.919053 
L 78.042421 271.737893 
L 85.564314 267.067404 
L 93.086206 275.993228 
L 100.608098 266.237094 
L 108.129991 259.490831 
L 115.651883 265.614362 
L 123.173776 257.207481 
L 130.695668 269.350754 
L 138.21756 254.093821 
L 145.739453 247.347558 
L 153.261345 254.301398 
L 160.783237 239.044465 
L 168.30513 251.291527 
L 175.827022 250.668795 
L 183.348915 234.892919 
L 190.870807 260.528718 
L 198.392699 248.593022 
L 205.914592 247.036192 
L 213.436484 238.733099 
L 220.958377 254.92413 
L 228.480269 236.968692 
L 236.002161 242.988434 
L 243.524054 249.319543 
L 251.045946 252.744568 
L 258.567839 221.711759 
L 266.089731 251.706682 
L 273.611623 236.138383 
L 281.133516 231.156527 
L 288.655408 228.458022 
L 296.177301 227.004981 
L 303.699193 229.495909 
L 311.221085 220.88145 
L 318.742978 212.889723 
L 326.26487 209.25712 
L 333.786763 223.579955 
L 341.308655 206.247249 
L 348.830547 205.520728 
L 356.35244 192.131991 
L 363.874332 200.74645 
L 371.396224 208.011656 
L 378.918117 216.626115 
L 386.440009 226.901192 
L 393.961902 225.448151 
L 401.483794 183.309955 
L 409.005686 194.830496 
L 416.527579 194.934285 
L 424.049471 206.869981 
L 431.571364 194.207764 
" style="fill:none;stroke:#ff7f0e;stroke-linecap:square;stroke-width:1.5;"/>
   </g>
   <g id="line2d_15">
    <path clip-path="url(#pdd21192dd6)" d="M 62.998636 282.739491 
L 70.520529 274.747764 
L 78.042421 254.820342 
L 85.564314 252.744568 
L 93.086206 253.159723 
L 100.608098 243.714955 
L 108.129991 240.601295 
L 115.651883 235.204285 
L 123.173776 230.845161 
L 130.695668 231.67547 
L 138.21756 221.504182 
L 145.739453 214.342764 
L 153.261345 220.88145 
L 160.783237 214.135187 
L 168.30513 196.07596 
L 175.827022 184.347841 
L 183.348915 197.321424 
L 190.870807 190.056218 
L 198.392699 189.329697 
L 205.914592 185.074362 
L 213.436484 187.876656 
L 220.958377 181.33797 
L 228.480269 178.847042 
L 236.002161 173.450032 
L 243.524054 186.216037 
L 251.045946 181.33797 
L 258.567839 185.178151 
L 266.089731 160.891604 
L 273.611623 160.580238 
L 281.133516 159.230986 
L 288.655408 143.351321 
L 296.177301 140.652815 
L 303.699193 142.209645 
L 311.221085 146.672558 
L 318.742978 141.275547 
L 326.26487 143.455109 
L 333.786763 139.614929 
L 341.308655 133.802764 
L 348.830547 135.463382 
L 356.35244 142.417223 
L 363.874332 129.547429 
L 371.396224 125.292094 
L 378.918117 122.178434 
L 386.440009 131.623202 
L 393.961902 116.470058 
L 401.483794 134.321707 
L 409.005686 118.130676 
L 416.527579 110.86547 
L 424.049471 115.951114 
L 431.571364 125.292094 
" style="fill:none;stroke:#2ca02c;stroke-linecap:square;stroke-width:1.5;"/>
   </g>
   <g id="line2d_16">
    <path clip-path="url(#pdd21192dd6)" d="M 62.998636 286.164517 
L 70.520529 280.00684 
L 78.042421 279.64607 
L 85.564314 271.446766 
L 93.086206 264.510155 
L 100.608098 258.377075 
L 108.129991 249.612019 
L 115.651883 243.503538 
L 123.173776 237.206472 
L 130.695668 235.705999 
L 138.21756 227.473898 
L 145.739453 224.686134 
L 153.261345 222.316536 
L 160.783237 217.954506 
L 168.30513 211.083489 
L 175.827022 213.518682 
L 183.348915 208.090743 
L 190.870807 210.739118 
L 198.392699 207.008435 
L 205.914592 205.507962 
L 213.436484 200.498187 
L 220.958377 199.891439 
L 228.480269 197.972802 
L 236.002161 197.710424 
L 243.524054 197.776018 
L 251.045946 195.488412 
L 258.567839 194.086331 
L 266.089731 190.290054 
L 273.611623 187.092325 
L 281.133516 186.788951 
L 288.655408 183.829002 
L 296.177301 188.494406 
L 303.699193 177.991097 
L 311.221085 185.354072 
L 318.742978 178.253475 
L 326.26487 176.261044 
L 333.786763 174.211218 
L 341.308655 175.186935 
L 348.830547 170.390342 
L 356.35244 174.383403 
L 363.874332 168.406111 
L 371.396224 168.168331 
L 378.918117 165.405165 
L 386.440009 165.905323 
L 393.961902 166.372683 
L 401.483794 166.282491 
L 409.005686 167.012229 
L 416.527579 162.732192 
L 424.049471 160.411789 
L 431.571364 162.658399 
" style="fill:none;stroke:#d62728;stroke-linecap:square;stroke-width:1.5;"/>
   </g>
   <g id="patch_3">
    <path d="M 44.57 303.64 
L 44.57 48.38 
" style="fill:none;stroke:#000000;stroke-linecap:square;stroke-linejoin:miter;stroke-width:0.8;"/>
   </g>
   <g id="patch_4">
    <path d="M 450 303.64 
L 450 48.38 
" style="fill:none;stroke:#000000;stroke-linecap:square;stroke-linejoin:miter;stroke-width:0.8;"/>
   </g>
   <g id="patch_5">
    <path d="M 44.57 303.64 
L 450 303.64 
" style="fill:none;stroke:#000000;stroke-linecap:square;stroke-linejoin:miter;stroke-width:0.8;"/>
   </g>
   <g id="patch_6">
    <path d="M 44.57 48.38 
L 450 48.38 
" style="fill:none;stroke:#000000;stroke-linecap:square;stroke-linejoin:miter;stroke-width:0.8;"/>
   </g>
   <g id="text_15">
    <!-- Local Rounds 05 -->
    <g transform="translate(198.174063 20.88)scale(0.12 -0.12)">
     <defs>
      <path d="M 628 4666 
L 1259 4666 
L 1259 531 
L 3531 531 
L 3531 0 
L 628 0 
L 628 4666 
z
" id="DejaVuSans-4c" transform="scale(0.015625)"/>
     </defs>
     <use xlink:href="#DejaVuSans-4c"/>
     <use x="53.962891" xlink:href="#DejaVuSans-6f"/>
     <use x="115.144531" xlink:href="#DejaVuSans-63"/>
     <use x="170.125" xlink:href="#DejaVuSans-61"/>
     <use x="231.404297" xlink:href="#DejaVuSans-6c"/>
     <use x="259.1875" xlink:href="#DejaVuSans-20"/>
     <use x="290.974609" xlink:href="#DejaVuSans-52"/>
     <use x="355.957031" xlink:href="#DejaVuSans-6f"/>
     <use x="417.138672" xlink:href="#DejaVuSans-75"/>
     <use x="480.517578" xlink:href="#DejaVuSans-6e"/>
     <use x="543.896484" xlink:href="#DejaVuSans-64"/>
     <use x="607.373047" xlink:href="#DejaVuSans-73"/>
     <use x="659.472656" xlink:href="#DejaVuSans-20"/>
     <use x="691.259766" xlink:href="#DejaVuSans-30"/>
     <use x="754.882812" xlink:href="#DejaVuSans-35"/>
    </g>
   </g>
   <g id="legend_1">
    <g id="patch_7">
     <path d="M 80.886563 45.532125 
L 413.683438 45.532125 
Q 415.683438 45.532125 415.683438 43.532125 
L 415.683438 29.854 
Q 415.683438 27.854 413.683438 27.854 
L 80.886563 27.854 
Q 78.886563 27.854 78.886563 29.854 
L 78.886563 43.532125 
Q 78.886563 45.532125 80.886563 45.532125 
z
" style="fill:#ffffff;opacity:0.8;stroke:#cccccc;stroke-linejoin:miter;"/>
    </g>
    <g id="line2d_17">
     <path d="M 82.886563 35.952438 
L 102.886563 35.952438 
" style="fill:none;stroke:#1f77b4;stroke-linecap:square;stroke-width:1.5;"/>
    </g>
    <g id="line2d_18"/>
    <g id="text_16">
     <!-- FedAvg -->
     <g transform="translate(110.886563 39.452438)scale(0.1 -0.1)">
      <defs>
       <path d="M 628 4666 
L 3309 4666 
L 3309 4134 
L 1259 4134 
L 1259 2759 
L 3109 2759 
L 3109 2228 
L 1259 2228 
L 1259 0 
L 628 0 
L 628 4666 
z
" id="DejaVuSans-46" transform="scale(0.015625)"/>
       <path d="M 191 3500 
L 800 3500 
L 1894 563 
L 2988 3500 
L 3597 3500 
L 2284 0 
L 1503 0 
L 191 3500 
z
" id="DejaVuSans-76" transform="scale(0.015625)"/>
       <path d="M 2906 1791 
Q 2906 2416 2648 2759 
Q 2391 3103 1925 3103 
Q 1463 3103 1205 2759 
Q 947 2416 947 1791 
Q 947 1169 1205 825 
Q 1463 481 1925 481 
Q 2391 481 2648 825 
Q 2906 1169 2906 1791 
z
M 3481 434 
Q 3481 -459 3084 -895 
Q 2688 -1331 1869 -1331 
Q 1566 -1331 1297 -1286 
Q 1028 -1241 775 -1147 
L 775 -588 
Q 1028 -725 1275 -790 
Q 1522 -856 1778 -856 
Q 2344 -856 2625 -561 
Q 2906 -266 2906 331 
L 2906 616 
Q 2728 306 2450 153 
Q 2172 0 1784 0 
Q 1141 0 747 490 
Q 353 981 353 1791 
Q 353 2603 747 3093 
Q 1141 3584 1784 3584 
Q 2172 3584 2450 3431 
Q 2728 3278 2906 2969 
L 2906 3500 
L 3481 3500 
L 3481 434 
z
" id="DejaVuSans-67" transform="scale(0.015625)"/>
      </defs>
      <use xlink:href="#DejaVuSans-46"/>
      <use x="52.019531" xlink:href="#DejaVuSans-65"/>
      <use x="113.542969" xlink:href="#DejaVuSans-64"/>
      <use x="177.019531" xlink:href="#DejaVuSans-41"/>
      <use x="239.552734" xlink:href="#DejaVuSans-76"/>
      <use x="298.732422" xlink:href="#DejaVuSans-67"/>
     </g>
    </g>
    <g id="line2d_19">
     <path d="M 167.11 35.952438 
L 187.11 35.952438 
" style="fill:none;stroke:#ff7f0e;stroke-linecap:square;stroke-width:1.5;"/>
    </g>
    <g id="line2d_20"/>
    <g id="text_17">
     <!-- FedMed -->
     <g transform="translate(195.11 39.452438)scale(0.1 -0.1)">
      <defs>
       <path d="M 628 4666 
L 1569 4666 
L 2759 1491 
L 3956 4666 
L 4897 4666 
L 4897 0 
L 4281 0 
L 4281 4097 
L 3078 897 
L 2444 897 
L 1241 4097 
L 1241 0 
L 628 0 
L 628 4666 
z
" id="DejaVuSans-4d" transform="scale(0.015625)"/>
      </defs>
      <use xlink:href="#DejaVuSans-46"/>
      <use x="52.019531" xlink:href="#DejaVuSans-65"/>
      <use x="113.542969" xlink:href="#DejaVuSans-64"/>
      <use x="177.019531" xlink:href="#DejaVuSans-4d"/>
      <use x="263.298828" xlink:href="#DejaVuSans-65"/>
      <use x="324.822266" xlink:href="#DejaVuSans-64"/>
     </g>
    </g>
    <g id="line2d_21">
     <path d="M 253.942813 35.952438 
L 273.942813 35.952438 
" style="fill:none;stroke:#2ca02c;stroke-linecap:square;stroke-width:1.5;"/>
    </g>
    <g id="line2d_22"/>
    <g id="text_18">
     <!-- FedProx -->
     <g transform="translate(281.942813 39.452438)scale(0.1 -0.1)">
      <defs>
       <path d="M 1259 4147 
L 1259 2394 
L 2053 2394 
Q 2494 2394 2734 2622 
Q 2975 2850 2975 3272 
Q 2975 3691 2734 3919 
Q 2494 4147 2053 4147 
L 1259 4147 
z
M 628 4666 
L 2053 4666 
Q 2838 4666 3239 4311 
Q 3641 3956 3641 3272 
Q 3641 2581 3239 2228 
Q 2838 1875 2053 1875 
L 1259 1875 
L 1259 0 
L 628 0 
L 628 4666 
z
" id="DejaVuSans-50" transform="scale(0.015625)"/>
       <path d="M 3513 3500 
L 2247 1797 
L 3578 0 
L 2900 0 
L 1881 1375 
L 863 0 
L 184 0 
L 1544 1831 
L 300 3500 
L 978 3500 
L 1906 2253 
L 2834 3500 
L 3513 3500 
z
" id="DejaVuSans-78" transform="scale(0.015625)"/>
      </defs>
      <use xlink:href="#DejaVuSans-46"/>
      <use x="52.019531" xlink:href="#DejaVuSans-65"/>
      <use x="113.542969" xlink:href="#DejaVuSans-64"/>
      <use x="177.019531" xlink:href="#DejaVuSans-50"/>
      <use x="235.572266" xlink:href="#DejaVuSans-72"/>
      <use x="274.435547" xlink:href="#DejaVuSans-6f"/>
      <use x="332.492188" xlink:href="#DejaVuSans-78"/>
     </g>
    </g>
    <g id="line2d_23">
     <path d="M 341.111563 35.952438 
L 361.111563 35.952438 
" style="fill:none;stroke:#d62728;stroke-linecap:square;stroke-width:1.5;"/>
    </g>
    <g id="line2d_24"/>
    <g id="text_19">
     <!-- qFedAvg -->
     <g transform="translate(369.111563 39.452438)scale(0.1 -0.1)">
      <defs>
       <path d="M 947 1747 
Q 947 1113 1208 752 
Q 1469 391 1925 391 
Q 2381 391 2643 752 
Q 2906 1113 2906 1747 
Q 2906 2381 2643 2742 
Q 2381 3103 1925 3103 
Q 1469 3103 1208 2742 
Q 947 2381 947 1747 
z
M 2906 525 
Q 2725 213 2448 61 
Q 2172 -91 1784 -91 
Q 1150 -91 751 415 
Q 353 922 353 1747 
Q 353 2572 751 3078 
Q 1150 3584 1784 3584 
Q 2172 3584 2448 3432 
Q 2725 3281 2906 2969 
L 2906 3500 
L 3481 3500 
L 3481 -1331 
L 2906 -1331 
L 2906 525 
z
" id="DejaVuSans-71" transform="scale(0.015625)"/>
      </defs>
      <use xlink:href="#DejaVuSans-71"/>
      <use x="63.476562" xlink:href="#DejaVuSans-46"/>
      <use x="115.496094" xlink:href="#DejaVuSans-65"/>
      <use x="177.019531" xlink:href="#DejaVuSans-64"/>
      <use x="240.496094" xlink:href="#DejaVuSans-41"/>
      <use x="303.029297" xlink:href="#DejaVuSans-76"/>
      <use x="362.208984" xlink:href="#DejaVuSans-67"/>
     </g>
    </g>
   </g>
  </g>
 </g>
 <defs>
  <clipPath id="pdd21192dd6">
   <rect height="255.26" width="405.43" x="44.57" y="48.38"/>
  </clipPath>
 </defs>
</svg>
