<?xml version="1.0" encoding="utf-8" standalone="no"?>
<!DOCTYPE svg PUBLIC "-//W3C//DTD SVG 1.1//EN"
  "http://www.w3.org/Graphics/SVG/1.1/DTD/svg11.dtd">
<svg height="345.6pt" version="1.1" viewBox="0 0 460.8 345.6" width="460.8pt" xmlns="http://www.w3.org/2000/svg" xmlns:xlink="http://www.w3.org/1999/xlink">
 <metadata>
  <rdf:RDF xmlns:cc="http://creativecommons.org/ns#" xmlns:dc="http://purl.org/dc/elements/1.1/" xmlns:rdf="http://www.w3.org/1999/02/22-rdf-syntax-ns#">
   <cc:Work>
    <dc:type rdf:resource="http://purl.org/dc/dcmitype/StillImage"/>
    <dc:date>2021-05-07T11:38:06.833961</dc:date>
    <dc:format>image/svg+xml</dc:format>
    <dc:creator>
     <cc:Agent>
      <dc:title>Matplotlib v3.4.1, https://matplotlib.org/</dc:title>
     </cc:Agent>
    </dc:creator>
   </cc:Work>
  </rdf:RDF>
 </metadata>
 <defs>
  <style type="text/css">*{stroke-linecap:butt;stroke-linejoin:round;}</style>
 </defs>
 <g id="figure_1">
  <g id="patch_1">
   <path d="M 0 345.6 
L 460.8 345.6 
L 460.8 0 
L 0 0 
z
" style="fill:#ffffff;"/>
  </g>
  <g id="axes_1">
   <g id="patch_2">
    <path d="M 44.57 303.64 
L 450 303.64 
L 450 48.38 
L 44.57 48.38 
z
" style="fill:#ffffff;"/>
   </g>
   <g id="PolyCollection_1">
    <path clip-path="url(#p03d91ff71a)" d="M 62.998636 269.553312 
L 62.998636 291.640965 
L 70.520529 281.319476 
L 78.042421 257.484206 
L 85.564314 272.132197 
L 93.086206 282.681679 
L 100.608098 249.39726 
L 108.129991 242.774218 
L 115.651883 228.305356 
L 123.173776 207.547763 
L 130.695668 247.531896 
L 138.21756 204.789521 
L 145.739453 241.484066 
L 153.261345 234.412541 
L 160.783237 190.334107 
L 168.30513 199.793193 
L 175.827022 218.848888 
L 183.348915 212.710244 
L 190.870807 214.940067 
L 198.392699 194.56572 
L 205.914592 207.269128 
L 213.436484 211.844144 
L 220.958377 199.722073 
L 228.480269 187.958819 
L 236.002161 211.848699 
L 243.524054 187.291969 
L 251.045946 191.932939 
L 258.567839 173.986511 
L 266.089731 193.609 
L 273.611623 214.923339 
L 281.133516 182.391408 
L 288.655408 170.569675 
L 296.177301 151.964072 
L 303.699193 163.728036 
L 311.221085 173.404694 
L 318.742978 142.382498 
L 326.26487 131.875288 
L 333.786763 176.57323 
L 341.308655 157.597706 
L 348.830547 135.768155 
L 356.35244 151.578641 
L 363.874332 152.558967 
L 371.396224 150.329084 
L 378.918117 156.675038 
L 386.440009 141.778901 
L 393.961902 145.354257 
L 401.483794 107.885566 
L 409.005686 169.777279 
L 416.527579 111.04705 
L 424.049471 133.433741 
L 431.571364 119.007555 
L 431.571364 71.758262 
L 431.571364 71.758262 
L 424.049471 59.982727 
L 416.527579 92.972021 
L 409.005686 88.580136 
L 401.483794 74.265636 
L 393.961902 93.454608 
L 386.440009 96.03597 
L 378.918117 110.628323 
L 371.396224 111.341645 
L 363.874332 93.539188 
L 356.35244 112.411407 
L 348.830547 107.016686 
L 341.308655 128.591543 
L 333.786763 122.20661 
L 326.26487 107.927571 
L 318.742978 106.366307 
L 311.221085 128.688461 
L 303.699193 130.413166 
L 296.177301 109.706657 
L 288.655408 128.541497 
L 281.133516 133.948995 
L 273.611623 124.278927 
L 266.089731 133.334006 
L 258.567839 126.449986 
L 251.045946 131.365422 
L 243.524054 126.066452 
L 236.002161 114.431645 
L 228.480269 157.207413 
L 220.958377 136.16688 
L 213.436484 164.467235 
L 205.914592 162.415623 
L 198.392699 156.895807 
L 190.870807 164.684625 
L 183.348915 156.311845 
L 175.827022 166.408438 
L 168.30513 169.560227 
L 160.783237 151.518811 
L 153.261345 161.447388 
L 145.739453 186.515005 
L 138.21756 176.160497 
L 130.695668 202.997707 
L 123.173776 201.56542 
L 115.651883 182.795815 
L 108.129991 203.116747 
L 100.608098 218.361574 
L 93.086206 227.156237 
L 85.564314 234.392406 
L 78.042421 233.467824 
L 70.520529 257.344269 
L 62.998636 269.553312 
z
" style="fill:#1f77b4;fill-opacity:0.5;"/>
   </g>
   <g id="PolyCollection_2">
    <path clip-path="url(#p03d91ff71a)" d="M 62.998636 255.046565 
L 62.998636 288.255819 
L 70.520529 284.735595 
L 78.042421 292.037273 
L 85.564314 273.608475 
L 93.086206 284.094418 
L 100.608098 274.21512 
L 108.129991 269.048391 
L 115.651883 274.495378 
L 123.173776 253.788097 
L 130.695668 284.641419 
L 138.21756 243.275174 
L 145.739453 264.374451 
L 153.261345 267.634227 
L 160.783237 234.886241 
L 168.30513 246.139398 
L 175.827022 243.75819 
L 183.348915 249.605164 
L 190.870807 280.812599 
L 198.392699 256.439849 
L 205.914592 237.859276 
L 213.436484 257.871087 
L 220.958377 263.892963 
L 228.480269 219.846911 
L 236.002161 254.818219 
L 243.524054 241.71363 
L 251.045946 257.212542 
L 258.567839 233.787262 
L 266.089731 267.940418 
L 273.611623 254.696409 
L 281.133516 227.519494 
L 288.655408 243.236749 
L 296.177301 238.128127 
L 303.699193 204.509451 
L 311.221085 207.625082 
L 318.742978 203.974423 
L 326.26487 174.178309 
L 333.786763 254.214749 
L 341.308655 200.22992 
L 348.830547 187.915369 
L 356.35244 170.011407 
L 363.874332 174.524446 
L 371.396224 206.190443 
L 378.918117 237.354037 
L 386.440009 252.298738 
L 393.961902 238.63352 
L 401.483794 161.116431 
L 409.005686 194.06668 
L 416.527579 191.076186 
L 424.049471 246.148399 
L 431.571364 199.635478 
L 431.571364 131.614836 
L 431.571364 131.614836 
L 424.049471 104.981797 
L 416.527579 121.950903 
L 409.005686 126.249699 
L 401.483794 125.072818 
L 393.961902 124.424605 
L 386.440009 142.235866 
L 378.918117 142.933319 
L 371.396224 134.005817 
L 363.874332 113.984123 
L 356.35244 140.0337 
L 348.830547 135.051661 
L 341.308655 164.816193 
L 333.786763 136.012547 
L 326.26487 138.517449 
L 318.742978 154.113731 
L 311.221085 179.620231 
L 303.699193 175.446572 
L 296.177301 147.791861 
L 288.655408 142.020577 
L 281.133516 146.472565 
L 273.611623 197.821183 
L 266.089731 179.607204 
L 258.567839 162.403999 
L 251.045946 169.792535 
L 243.524054 166.074229 
L 236.002161 177.819491 
L 228.480269 180.651657 
L 220.958377 183.654659 
L 213.436484 167.808665 
L 205.914592 195.441097 
L 198.392699 184.812476 
L 190.870807 190.922212 
L 183.348915 166.134647 
L 175.827022 183.246887 
L 168.30513 208.034851 
L 160.783237 187.811528 
L 153.261345 207.413897 
L 145.739453 187.81181 
L 138.21756 204.93511 
L 130.695668 227.515818 
L 123.173776 192.765531 
L 115.651883 206.516711 
L 108.129991 220.246982 
L 100.608098 244.237413 
L 93.086206 252.581339 
L 85.564314 237.886099 
L 78.042421 241.325171 
L 70.520529 233.054275 
L 62.998636 255.046565 
z
" style="fill:#ff7f0e;fill-opacity:0.5;"/>
   </g>
   <g id="PolyCollection_3">
    <path clip-path="url(#p03d91ff71a)" d="M 62.998636 273.722692 
L 62.998636 283.826941 
L 70.520529 279.921526 
L 78.042421 285.08376 
L 85.564314 275.781233 
L 93.086206 266.865583 
L 100.608098 258.309953 
L 108.129991 239.51615 
L 115.651883 266.021665 
L 123.173776 247.672556 
L 130.695668 251.990647 
L 138.21756 223.611625 
L 145.739453 236.108502 
L 153.261345 220.960755 
L 160.783237 226.650932 
L 168.30513 224.265148 
L 175.827022 239.172517 
L 183.348915 196.488618 
L 190.870807 172.602819 
L 198.392699 213.290697 
L 205.914592 209.43936 
L 213.436484 185.692493 
L 220.958377 205.015324 
L 228.480269 202.262035 
L 236.002161 199.644486 
L 243.524054 194.630153 
L 251.045946 187.586164 
L 258.567839 168.766198 
L 266.089731 168.115664 
L 273.611623 175.652488 
L 281.133516 210.66056 
L 288.655408 186.100319 
L 296.177301 165.035529 
L 303.699193 165.73067 
L 311.221085 171.921249 
L 318.742978 192.317399 
L 326.26487 183.08621 
L 333.786763 172.44067 
L 341.308655 184.339942 
L 348.830547 188.230439 
L 356.35244 170.925887 
L 363.874332 160.57534 
L 371.396224 176.205259 
L 378.918117 168.484647 
L 386.440009 173.667463 
L 393.961902 153.61428 
L 401.483794 173.638471 
L 409.005686 166.983872 
L 416.527579 168.034199 
L 424.049471 149.81117 
L 431.571364 157.50137 
L 431.571364 95.223412 
L 431.571364 95.223412 
L 424.049471 81.045742 
L 416.527579 73.425316 
L 409.005686 106.946117 
L 401.483794 96.646873 
L 393.961902 94.140531 
L 386.440009 101.587851 
L 378.918117 99.150046 
L 371.396224 126.219226 
L 363.874332 107.722016 
L 356.35244 122.883983 
L 348.830547 65.157005 
L 341.308655 98.535994 
L 333.786763 109.772603 
L 326.26487 143.194134 
L 318.742978 95.197175 
L 311.221085 103.002734 
L 303.699193 122.446568 
L 296.177301 125.129696 
L 288.655408 108.372214 
L 281.133516 182.88005 
L 273.611623 141.019246 
L 266.089731 113.434946 
L 258.567839 114.7724 
L 251.045946 150.95344 
L 243.524054 133.638178 
L 236.002161 124.647869 
L 228.480269 163.44674 
L 220.958377 162.018777 
L 213.436484 135.286549 
L 205.914592 170.185332 
L 198.392699 161.032693 
L 190.870807 151.689536 
L 183.348915 151.659595 
L 175.827022 172.259986 
L 168.30513 170.932119 
L 160.783237 166.558347 
L 153.261345 178.87515 
L 145.739453 183.275953 
L 138.21756 184.176233 
L 130.695668 202.846264 
L 123.173776 202.194385 
L 115.651883 213.002435 
L 108.129991 206.043483 
L 100.608098 225.021455 
L 93.086206 225.743103 
L 85.564314 242.671299 
L 78.042421 254.905311 
L 70.520529 258.74222 
L 62.998636 273.722692 
z
" style="fill:#2ca02c;fill-opacity:0.5;"/>
   </g>
   <g id="PolyCollection_4">
    <path clip-path="url(#p03d91ff71a)" d="M 62.998636 282.916458 
L 62.998636 282.916458 
L 70.520529 282.929546 
L 78.042421 284.371299 
L 85.564314 286.191965 
L 93.086206 271.222253 
L 100.608098 265.247084 
L 108.129991 258.223985 
L 115.651883 241.950679 
L 123.173776 236.737042 
L 130.695668 217.71184 
L 138.21756 213.283259 
L 145.739453 208.489899 
L 153.261345 208.944226 
L 160.783237 198.66919 
L 168.30513 196.144663 
L 175.827022 207.188486 
L 183.348915 200.064219 
L 190.870807 192.466945 
L 198.392699 186.288966 
L 205.914592 186.953961 
L 213.436484 183.336673 
L 220.958377 181.145718 
L 228.480269 176.302486 
L 236.002161 172.585533 
L 243.524054 180.00107 
L 251.045946 167.818565 
L 258.567839 166.043454 
L 266.089731 168.881896 
L 273.611623 162.916862 
L 281.133516 159.594005 
L 288.655408 157.055313 
L 296.177301 153.932293 
L 303.699193 156.732697 
L 311.221085 147.32159 
L 318.742978 151.296959 
L 326.26487 155.599349 
L 333.786763 148.127705 
L 341.308655 141.955105 
L 348.830547 141.067281 
L 356.35244 147.827192 
L 363.874332 148.181611 
L 371.396224 129.819427 
L 378.918117 134.503943 
L 386.440009 137.030205 
L 393.961902 137.406914 
L 401.483794 126.703559 
L 409.005686 132.716866 
L 416.527579 129.229282 
L 424.049471 126.458547 
L 431.571364 128.305155 
L 431.571364 109.76219 
L 431.571364 109.76219 
L 424.049471 98.67826 
L 416.527579 99.336473 
L 409.005686 98.649634 
L 401.483794 109.871801 
L 393.961902 112.203684 
L 386.440009 114.255605 
L 378.918117 108.35346 
L 371.396224 117.252179 
L 363.874332 112.344036 
L 356.35244 112.907857 
L 348.830547 113.333374 
L 341.308655 112.969054 
L 333.786763 116.847722 
L 326.26487 130.237695 
L 318.742978 128.990947 
L 311.221085 130.244097 
L 303.699193 131.09366 
L 296.177301 129.784561 
L 288.655408 125.457483 
L 281.133516 138.807124 
L 273.611623 136.086296 
L 266.089731 145.564617 
L 258.567839 138.430316 
L 251.045946 145.162138 
L 243.524054 149.469995 
L 236.002161 148.561825 
L 228.480269 141.625325 
L 220.958377 152.303974 
L 213.436484 152.49496 
L 205.914592 159.373918 
L 198.392699 157.761673 
L 190.870807 153.520656 
L 183.348915 158.408942 
L 175.827022 162.540001 
L 168.30513 164.029885 
L 160.783237 167.551824 
L 153.261345 165.129341 
L 145.739453 176.001389 
L 138.21756 180.631092 
L 130.695668 191.698217 
L 123.173776 183.378662 
L 115.651883 205.936888 
L 108.129991 200.264529 
L 100.608098 221.275045 
L 93.086206 231.057333 
L 85.564314 247.890462 
L 78.042421 267.8767 
L 70.520529 282.877196 
L 62.998636 282.916458 
z
" style="fill:#d62728;fill-opacity:0.5;"/>
   </g>
   <g id="matplotlib.axis_1">
    <g id="xtick_1">
     <g id="line2d_1">
      <defs>
       <path d="M 0 0 
L 0 3.5 
" id="m3d40bebba0" style="stroke:#000000;stroke-width:0.8;"/>
      </defs>
      <g>
       <use style="stroke:#000000;stroke-width:0.8;" x="62.998636" xlink:href="#m3d40bebba0" y="303.64"/>
      </g>
     </g>
     <g id="text_1">
      <!-- 0 -->
      <g transform="translate(59.817386 318.238437)scale(0.1 -0.1)">
       <defs>
        <path d="M 2034 4250 
Q 1547 4250 1301 3770 
Q 1056 3291 1056 2328 
Q 1056 1369 1301 889 
Q 1547 409 2034 409 
Q 2525 409 2770 889 
Q 3016 1369 3016 2328 
Q 3016 3291 2770 3770 
Q 2525 4250 2034 4250 
z
M 2034 4750 
Q 2819 4750 3233 4129 
Q 3647 3509 3647 2328 
Q 3647 1150 3233 529 
Q 2819 -91 2034 -91 
Q 1250 -91 836 529 
Q 422 1150 422 2328 
Q 422 3509 836 4129 
Q 1250 4750 2034 4750 
z
" id="DejaVuSans-30" transform="scale(0.015625)"/>
       </defs>
       <use xlink:href="#DejaVuSans-30"/>
      </g>
     </g>
    </g>
    <g id="xtick_2">
     <g id="line2d_2">
      <g>
       <use style="stroke:#000000;stroke-width:0.8;" x="138.21756" xlink:href="#m3d40bebba0" y="303.64"/>
      </g>
     </g>
     <g id="text_2">
      <!-- 10 -->
      <g transform="translate(131.85506 318.238437)scale(0.1 -0.1)">
       <defs>
        <path d="M 794 531 
L 1825 531 
L 1825 4091 
L 703 3866 
L 703 4441 
L 1819 4666 
L 2450 4666 
L 2450 531 
L 3481 531 
L 3481 0 
L 794 0 
L 794 531 
z
" id="DejaVuSans-31" transform="scale(0.015625)"/>
       </defs>
       <use xlink:href="#DejaVuSans-31"/>
       <use x="63.623047" xlink:href="#DejaVuSans-30"/>
      </g>
     </g>
    </g>
    <g id="xtick_3">
     <g id="line2d_3">
      <g>
       <use style="stroke:#000000;stroke-width:0.8;" x="213.436484" xlink:href="#m3d40bebba0" y="303.64"/>
      </g>
     </g>
     <g id="text_3">
      <!-- 20 -->
      <g transform="translate(207.073984 318.238437)scale(0.1 -0.1)">
       <defs>
        <path d="M 1228 531 
L 3431 531 
L 3431 0 
L 469 0 
L 469 531 
Q 828 903 1448 1529 
Q 2069 2156 2228 2338 
Q 2531 2678 2651 2914 
Q 2772 3150 2772 3378 
Q 2772 3750 2511 3984 
Q 2250 4219 1831 4219 
Q 1534 4219 1204 4116 
Q 875 4013 500 3803 
L 500 4441 
Q 881 4594 1212 4672 
Q 1544 4750 1819 4750 
Q 2544 4750 2975 4387 
Q 3406 4025 3406 3419 
Q 3406 3131 3298 2873 
Q 3191 2616 2906 2266 
Q 2828 2175 2409 1742 
Q 1991 1309 1228 531 
z
" id="DejaVuSans-32" transform="scale(0.015625)"/>
       </defs>
       <use xlink:href="#DejaVuSans-32"/>
       <use x="63.623047" xlink:href="#DejaVuSans-30"/>
      </g>
     </g>
    </g>
    <g id="xtick_4">
     <g id="line2d_4">
      <g>
       <use style="stroke:#000000;stroke-width:0.8;" x="288.655408" xlink:href="#m3d40bebba0" y="303.64"/>
      </g>
     </g>
     <g id="text_4">
      <!-- 30 -->
      <g transform="translate(282.292908 318.238437)scale(0.1 -0.1)">
       <defs>
        <path d="M 2597 2516 
Q 3050 2419 3304 2112 
Q 3559 1806 3559 1356 
Q 3559 666 3084 287 
Q 2609 -91 1734 -91 
Q 1441 -91 1130 -33 
Q 819 25 488 141 
L 488 750 
Q 750 597 1062 519 
Q 1375 441 1716 441 
Q 2309 441 2620 675 
Q 2931 909 2931 1356 
Q 2931 1769 2642 2001 
Q 2353 2234 1838 2234 
L 1294 2234 
L 1294 2753 
L 1863 2753 
Q 2328 2753 2575 2939 
Q 2822 3125 2822 3475 
Q 2822 3834 2567 4026 
Q 2313 4219 1838 4219 
Q 1578 4219 1281 4162 
Q 984 4106 628 3988 
L 628 4550 
Q 988 4650 1302 4700 
Q 1616 4750 1894 4750 
Q 2613 4750 3031 4423 
Q 3450 4097 3450 3541 
Q 3450 3153 3228 2886 
Q 3006 2619 2597 2516 
z
" id="DejaVuSans-33" transform="scale(0.015625)"/>
       </defs>
       <use xlink:href="#DejaVuSans-33"/>
       <use x="63.623047" xlink:href="#DejaVuSans-30"/>
      </g>
     </g>
    </g>
    <g id="xtick_5">
     <g id="line2d_5">
      <g>
       <use style="stroke:#000000;stroke-width:0.8;" x="363.874332" xlink:href="#m3d40bebba0" y="303.64"/>
      </g>
     </g>
     <g id="text_5">
      <!-- 40 -->
      <g transform="translate(357.511832 318.238437)scale(0.1 -0.1)">
       <defs>
        <path d="M 2419 4116 
L 825 1625 
L 2419 1625 
L 2419 4116 
z
M 2253 4666 
L 3047 4666 
L 3047 1625 
L 3713 1625 
L 3713 1100 
L 3047 1100 
L 3047 0 
L 2419 0 
L 2419 1100 
L 313 1100 
L 313 1709 
L 2253 4666 
z
" id="DejaVuSans-34" transform="scale(0.015625)"/>
       </defs>
       <use xlink:href="#DejaVuSans-34"/>
       <use x="63.623047" xlink:href="#DejaVuSans-30"/>
      </g>
     </g>
    </g>
    <g id="xtick_6">
     <g id="line2d_6">
      <g>
       <use style="stroke:#000000;stroke-width:0.8;" x="439.093256" xlink:href="#m3d40bebba0" y="303.64"/>
      </g>
     </g>
     <g id="text_6">
      <!-- 50 -->
      <g transform="translate(432.730756 318.238437)scale(0.1 -0.1)">
       <defs>
        <path d="M 691 4666 
L 3169 4666 
L 3169 4134 
L 1269 4134 
L 1269 2991 
Q 1406 3038 1543 3061 
Q 1681 3084 1819 3084 
Q 2600 3084 3056 2656 
Q 3513 2228 3513 1497 
Q 3513 744 3044 326 
Q 2575 -91 1722 -91 
Q 1428 -91 1123 -41 
Q 819 9 494 109 
L 494 744 
Q 775 591 1075 516 
Q 1375 441 1709 441 
Q 2250 441 2565 725 
Q 2881 1009 2881 1497 
Q 2881 1984 2565 2268 
Q 2250 2553 1709 2553 
Q 1456 2553 1204 2497 
Q 953 2441 691 2322 
L 691 4666 
z
" id="DejaVuSans-35" transform="scale(0.015625)"/>
       </defs>
       <use xlink:href="#DejaVuSans-35"/>
       <use x="63.623047" xlink:href="#DejaVuSans-30"/>
      </g>
     </g>
    </g>
    <g id="text_7">
     <!-- Global Communication Rounds -->
     <g transform="translate(170.323281 331.916562)scale(0.1 -0.1)">
      <defs>
       <path d="M 3809 666 
L 3809 1919 
L 2778 1919 
L 2778 2438 
L 4434 2438 
L 4434 434 
Q 4069 175 3628 42 
Q 3188 -91 2688 -91 
Q 1594 -91 976 548 
Q 359 1188 359 2328 
Q 359 3472 976 4111 
Q 1594 4750 2688 4750 
Q 3144 4750 3555 4637 
Q 3966 4525 4313 4306 
L 4313 3634 
Q 3963 3931 3569 4081 
Q 3175 4231 2741 4231 
Q 1884 4231 1454 3753 
Q 1025 3275 1025 2328 
Q 1025 1384 1454 906 
Q 1884 428 2741 428 
Q 3075 428 3337 486 
Q 3600 544 3809 666 
z
" id="DejaVuSans-47" transform="scale(0.015625)"/>
       <path d="M 603 4863 
L 1178 4863 
L 1178 0 
L 603 0 
L 603 4863 
z
" id="DejaVuSans-6c" transform="scale(0.015625)"/>
       <path d="M 1959 3097 
Q 1497 3097 1228 2736 
Q 959 2375 959 1747 
Q 959 1119 1226 758 
Q 1494 397 1959 397 
Q 2419 397 2687 759 
Q 2956 1122 2956 1747 
Q 2956 2369 2687 2733 
Q 2419 3097 1959 3097 
z
M 1959 3584 
Q 2709 3584 3137 3096 
Q 3566 2609 3566 1747 
Q 3566 888 3137 398 
Q 2709 -91 1959 -91 
Q 1206 -91 779 398 
Q 353 888 353 1747 
Q 353 2609 779 3096 
Q 1206 3584 1959 3584 
z
" id="DejaVuSans-6f" transform="scale(0.015625)"/>
       <path d="M 3116 1747 
Q 3116 2381 2855 2742 
Q 2594 3103 2138 3103 
Q 1681 3103 1420 2742 
Q 1159 2381 1159 1747 
Q 1159 1113 1420 752 
Q 1681 391 2138 391 
Q 2594 391 2855 752 
Q 3116 1113 3116 1747 
z
M 1159 2969 
Q 1341 3281 1617 3432 
Q 1894 3584 2278 3584 
Q 2916 3584 3314 3078 
Q 3713 2572 3713 1747 
Q 3713 922 3314 415 
Q 2916 -91 2278 -91 
Q 1894 -91 1617 61 
Q 1341 213 1159 525 
L 1159 0 
L 581 0 
L 581 4863 
L 1159 4863 
L 1159 2969 
z
" id="DejaVuSans-62" transform="scale(0.015625)"/>
       <path d="M 2194 1759 
Q 1497 1759 1228 1600 
Q 959 1441 959 1056 
Q 959 750 1161 570 
Q 1363 391 1709 391 
Q 2188 391 2477 730 
Q 2766 1069 2766 1631 
L 2766 1759 
L 2194 1759 
z
M 3341 1997 
L 3341 0 
L 2766 0 
L 2766 531 
Q 2569 213 2275 61 
Q 1981 -91 1556 -91 
Q 1019 -91 701 211 
Q 384 513 384 1019 
Q 384 1609 779 1909 
Q 1175 2209 1959 2209 
L 2766 2209 
L 2766 2266 
Q 2766 2663 2505 2880 
Q 2244 3097 1772 3097 
Q 1472 3097 1187 3025 
Q 903 2953 641 2809 
L 641 3341 
Q 956 3463 1253 3523 
Q 1550 3584 1831 3584 
Q 2591 3584 2966 3190 
Q 3341 2797 3341 1997 
z
" id="DejaVuSans-61" transform="scale(0.015625)"/>
       <path id="DejaVuSans-20" transform="scale(0.015625)"/>
       <path d="M 4122 4306 
L 4122 3641 
Q 3803 3938 3442 4084 
Q 3081 4231 2675 4231 
Q 1875 4231 1450 3742 
Q 1025 3253 1025 2328 
Q 1025 1406 1450 917 
Q 1875 428 2675 428 
Q 3081 428 3442 575 
Q 3803 722 4122 1019 
L 4122 359 
Q 3791 134 3420 21 
Q 3050 -91 2638 -91 
Q 1578 -91 968 557 
Q 359 1206 359 2328 
Q 359 3453 968 4101 
Q 1578 4750 2638 4750 
Q 3056 4750 3426 4639 
Q 3797 4528 4122 4306 
z
" id="DejaVuSans-43" transform="scale(0.015625)"/>
       <path d="M 3328 2828 
Q 3544 3216 3844 3400 
Q 4144 3584 4550 3584 
Q 5097 3584 5394 3201 
Q 5691 2819 5691 2113 
L 5691 0 
L 5113 0 
L 5113 2094 
Q 5113 2597 4934 2840 
Q 4756 3084 4391 3084 
Q 3944 3084 3684 2787 
Q 3425 2491 3425 1978 
L 3425 0 
L 2847 0 
L 2847 2094 
Q 2847 2600 2669 2842 
Q 2491 3084 2119 3084 
Q 1678 3084 1418 2786 
Q 1159 2488 1159 1978 
L 1159 0 
L 581 0 
L 581 3500 
L 1159 3500 
L 1159 2956 
Q 1356 3278 1631 3431 
Q 1906 3584 2284 3584 
Q 2666 3584 2933 3390 
Q 3200 3197 3328 2828 
z
" id="DejaVuSans-6d" transform="scale(0.015625)"/>
       <path d="M 544 1381 
L 544 3500 
L 1119 3500 
L 1119 1403 
Q 1119 906 1312 657 
Q 1506 409 1894 409 
Q 2359 409 2629 706 
Q 2900 1003 2900 1516 
L 2900 3500 
L 3475 3500 
L 3475 0 
L 2900 0 
L 2900 538 
Q 2691 219 2414 64 
Q 2138 -91 1772 -91 
Q 1169 -91 856 284 
Q 544 659 544 1381 
z
M 1991 3584 
L 1991 3584 
z
" id="DejaVuSans-75" transform="scale(0.015625)"/>
       <path d="M 3513 2113 
L 3513 0 
L 2938 0 
L 2938 2094 
Q 2938 2591 2744 2837 
Q 2550 3084 2163 3084 
Q 1697 3084 1428 2787 
Q 1159 2491 1159 1978 
L 1159 0 
L 581 0 
L 581 3500 
L 1159 3500 
L 1159 2956 
Q 1366 3272 1645 3428 
Q 1925 3584 2291 3584 
Q 2894 3584 3203 3211 
Q 3513 2838 3513 2113 
z
" id="DejaVuSans-6e" transform="scale(0.015625)"/>
       <path d="M 603 3500 
L 1178 3500 
L 1178 0 
L 603 0 
L 603 3500 
z
M 603 4863 
L 1178 4863 
L 1178 4134 
L 603 4134 
L 603 4863 
z
" id="DejaVuSans-69" transform="scale(0.015625)"/>
       <path d="M 3122 3366 
L 3122 2828 
Q 2878 2963 2633 3030 
Q 2388 3097 2138 3097 
Q 1578 3097 1268 2742 
Q 959 2388 959 1747 
Q 959 1106 1268 751 
Q 1578 397 2138 397 
Q 2388 397 2633 464 
Q 2878 531 3122 666 
L 3122 134 
Q 2881 22 2623 -34 
Q 2366 -91 2075 -91 
Q 1284 -91 818 406 
Q 353 903 353 1747 
Q 353 2603 823 3093 
Q 1294 3584 2113 3584 
Q 2378 3584 2631 3529 
Q 2884 3475 3122 3366 
z
" id="DejaVuSans-63" transform="scale(0.015625)"/>
       <path d="M 1172 4494 
L 1172 3500 
L 2356 3500 
L 2356 3053 
L 1172 3053 
L 1172 1153 
Q 1172 725 1289 603 
Q 1406 481 1766 481 
L 2356 481 
L 2356 0 
L 1766 0 
Q 1100 0 847 248 
Q 594 497 594 1153 
L 594 3053 
L 172 3053 
L 172 3500 
L 594 3500 
L 594 4494 
L 1172 4494 
z
" id="DejaVuSans-74" transform="scale(0.015625)"/>
       <path d="M 2841 2188 
Q 3044 2119 3236 1894 
Q 3428 1669 3622 1275 
L 4263 0 
L 3584 0 
L 2988 1197 
Q 2756 1666 2539 1819 
Q 2322 1972 1947 1972 
L 1259 1972 
L 1259 0 
L 628 0 
L 628 4666 
L 2053 4666 
Q 2853 4666 3247 4331 
Q 3641 3997 3641 3322 
Q 3641 2881 3436 2590 
Q 3231 2300 2841 2188 
z
M 1259 4147 
L 1259 2491 
L 2053 2491 
Q 2509 2491 2742 2702 
Q 2975 2913 2975 3322 
Q 2975 3731 2742 3939 
Q 2509 4147 2053 4147 
L 1259 4147 
z
" id="DejaVuSans-52" transform="scale(0.015625)"/>
       <path d="M 2906 2969 
L 2906 4863 
L 3481 4863 
L 3481 0 
L 2906 0 
L 2906 525 
Q 2725 213 2448 61 
Q 2172 -91 1784 -91 
Q 1150 -91 751 415 
Q 353 922 353 1747 
Q 353 2572 751 3078 
Q 1150 3584 1784 3584 
Q 2172 3584 2448 3432 
Q 2725 3281 2906 2969 
z
M 947 1747 
Q 947 1113 1208 752 
Q 1469 391 1925 391 
Q 2381 391 2643 752 
Q 2906 1113 2906 1747 
Q 2906 2381 2643 2742 
Q 2381 3103 1925 3103 
Q 1469 3103 1208 2742 
Q 947 2381 947 1747 
z
" id="DejaVuSans-64" transform="scale(0.015625)"/>
       <path d="M 2834 3397 
L 2834 2853 
Q 2591 2978 2328 3040 
Q 2066 3103 1784 3103 
Q 1356 3103 1142 2972 
Q 928 2841 928 2578 
Q 928 2378 1081 2264 
Q 1234 2150 1697 2047 
L 1894 2003 
Q 2506 1872 2764 1633 
Q 3022 1394 3022 966 
Q 3022 478 2636 193 
Q 2250 -91 1575 -91 
Q 1294 -91 989 -36 
Q 684 19 347 128 
L 347 722 
Q 666 556 975 473 
Q 1284 391 1588 391 
Q 1994 391 2212 530 
Q 2431 669 2431 922 
Q 2431 1156 2273 1281 
Q 2116 1406 1581 1522 
L 1381 1569 
Q 847 1681 609 1914 
Q 372 2147 372 2553 
Q 372 3047 722 3315 
Q 1072 3584 1716 3584 
Q 2034 3584 2315 3537 
Q 2597 3491 2834 3397 
z
" id="DejaVuSans-73" transform="scale(0.015625)"/>
      </defs>
      <use xlink:href="#DejaVuSans-47"/>
      <use x="77.490234" xlink:href="#DejaVuSans-6c"/>
      <use x="105.273438" xlink:href="#DejaVuSans-6f"/>
      <use x="166.455078" xlink:href="#DejaVuSans-62"/>
      <use x="229.931641" xlink:href="#DejaVuSans-61"/>
      <use x="291.210938" xlink:href="#DejaVuSans-6c"/>
      <use x="318.994141" xlink:href="#DejaVuSans-20"/>
      <use x="350.78125" xlink:href="#DejaVuSans-43"/>
      <use x="420.605469" xlink:href="#DejaVuSans-6f"/>
      <use x="481.787109" xlink:href="#DejaVuSans-6d"/>
      <use x="579.199219" xlink:href="#DejaVuSans-6d"/>
      <use x="676.611328" xlink:href="#DejaVuSans-75"/>
      <use x="739.990234" xlink:href="#DejaVuSans-6e"/>
      <use x="803.369141" xlink:href="#DejaVuSans-69"/>
      <use x="831.152344" xlink:href="#DejaVuSans-63"/>
      <use x="886.132812" xlink:href="#DejaVuSans-61"/>
      <use x="947.412109" xlink:href="#DejaVuSans-74"/>
      <use x="986.621094" xlink:href="#DejaVuSans-69"/>
      <use x="1014.404297" xlink:href="#DejaVuSans-6f"/>
      <use x="1075.585938" xlink:href="#DejaVuSans-6e"/>
      <use x="1138.964844" xlink:href="#DejaVuSans-20"/>
      <use x="1170.751953" xlink:href="#DejaVuSans-52"/>
      <use x="1235.734375" xlink:href="#DejaVuSans-6f"/>
      <use x="1296.916016" xlink:href="#DejaVuSans-75"/>
      <use x="1360.294922" xlink:href="#DejaVuSans-6e"/>
      <use x="1423.673828" xlink:href="#DejaVuSans-64"/>
      <use x="1487.150391" xlink:href="#DejaVuSans-73"/>
     </g>
    </g>
   </g>
   <g id="matplotlib.axis_2">
    <g id="ytick_1">
     <g id="line2d_7">
      <defs>
       <path d="M 0 0 
L -3.5 0 
" id="m5f9d725d12" style="stroke:#000000;stroke-width:0.8;"/>
      </defs>
      <g>
       <use style="stroke:#000000;stroke-width:0.8;" x="44.57" xlink:href="#m5f9d725d12" y="282.916458"/>
      </g>
     </g>
     <g id="text_8">
      <!-- 10 -->
      <g transform="translate(24.845 286.715677)scale(0.1 -0.1)">
       <use xlink:href="#DejaVuSans-31"/>
       <use x="63.623047" xlink:href="#DejaVuSans-30"/>
      </g>
     </g>
    </g>
    <g id="ytick_2">
     <g id="line2d_8">
      <g>
       <use style="stroke:#000000;stroke-width:0.8;" x="44.57" xlink:href="#m5f9d725d12" y="250.197487"/>
      </g>
     </g>
     <g id="text_9">
      <!-- 15 -->
      <g transform="translate(24.845 253.996705)scale(0.1 -0.1)">
       <use xlink:href="#DejaVuSans-31"/>
       <use x="63.623047" xlink:href="#DejaVuSans-35"/>
      </g>
     </g>
    </g>
    <g id="ytick_3">
     <g id="line2d_9">
      <g>
       <use style="stroke:#000000;stroke-width:0.8;" x="44.57" xlink:href="#m5f9d725d12" y="217.478515"/>
      </g>
     </g>
     <g id="text_10">
      <!-- 20 -->
      <g transform="translate(24.845 221.277734)scale(0.1 -0.1)">
       <use xlink:href="#DejaVuSans-32"/>
       <use x="63.623047" xlink:href="#DejaVuSans-30"/>
      </g>
     </g>
    </g>
    <g id="ytick_4">
     <g id="line2d_10">
      <g>
       <use style="stroke:#000000;stroke-width:0.8;" x="44.57" xlink:href="#m5f9d725d12" y="184.759543"/>
      </g>
     </g>
     <g id="text_11">
      <!-- 25 -->
      <g transform="translate(24.845 188.558762)scale(0.1 -0.1)">
       <use xlink:href="#DejaVuSans-32"/>
       <use x="63.623047" xlink:href="#DejaVuSans-35"/>
      </g>
     </g>
    </g>
    <g id="ytick_5">
     <g id="line2d_11">
      <g>
       <use style="stroke:#000000;stroke-width:0.8;" x="44.57" xlink:href="#m5f9d725d12" y="152.040571"/>
      </g>
     </g>
     <g id="text_12">
      <!-- 30 -->
      <g transform="translate(24.845 155.83979)scale(0.1 -0.1)">
       <use xlink:href="#DejaVuSans-33"/>
       <use x="63.623047" xlink:href="#DejaVuSans-30"/>
      </g>
     </g>
    </g>
    <g id="ytick_6">
     <g id="line2d_12">
      <g>
       <use style="stroke:#000000;stroke-width:0.8;" x="44.57" xlink:href="#m5f9d725d12" y="119.321599"/>
      </g>
     </g>
     <g id="text_13">
      <!-- 35 -->
      <g transform="translate(24.845 123.120818)scale(0.1 -0.1)">
       <use xlink:href="#DejaVuSans-33"/>
       <use x="63.623047" xlink:href="#DejaVuSans-35"/>
      </g>
     </g>
    </g>
    <g id="ytick_7">
     <g id="line2d_13">
      <g>
       <use style="stroke:#000000;stroke-width:0.8;" x="44.57" xlink:href="#m5f9d725d12" y="86.602628"/>
      </g>
     </g>
     <g id="text_14">
      <!-- 40 -->
      <g transform="translate(24.845 90.401846)scale(0.1 -0.1)">
       <use xlink:href="#DejaVuSans-34"/>
       <use x="63.623047" xlink:href="#DejaVuSans-30"/>
      </g>
     </g>
    </g>
    <g id="ytick_8">
     <g id="line2d_14">
      <g>
       <use style="stroke:#000000;stroke-width:0.8;" x="44.57" xlink:href="#m5f9d725d12" y="53.883656"/>
      </g>
     </g>
     <g id="text_15">
      <!-- 45 -->
      <g transform="translate(24.845 57.682875)scale(0.1 -0.1)">
       <use xlink:href="#DejaVuSans-34"/>
       <use x="63.623047" xlink:href="#DejaVuSans-35"/>
      </g>
     </g>
    </g>
    <g id="text_16">
     <!-- Test Accuracy -->
     <g transform="translate(18.765313 210.2725)rotate(-90)scale(0.1 -0.1)">
      <defs>
       <path d="M -19 4666 
L 3928 4666 
L 3928 4134 
L 2272 4134 
L 2272 0 
L 1638 0 
L 1638 4134 
L -19 4134 
L -19 4666 
z
" id="DejaVuSans-54" transform="scale(0.015625)"/>
       <path d="M 3597 1894 
L 3597 1613 
L 953 1613 
Q 991 1019 1311 708 
Q 1631 397 2203 397 
Q 2534 397 2845 478 
Q 3156 559 3463 722 
L 3463 178 
Q 3153 47 2828 -22 
Q 2503 -91 2169 -91 
Q 1331 -91 842 396 
Q 353 884 353 1716 
Q 353 2575 817 3079 
Q 1281 3584 2069 3584 
Q 2775 3584 3186 3129 
Q 3597 2675 3597 1894 
z
M 3022 2063 
Q 3016 2534 2758 2815 
Q 2500 3097 2075 3097 
Q 1594 3097 1305 2825 
Q 1016 2553 972 2059 
L 3022 2063 
z
" id="DejaVuSans-65" transform="scale(0.015625)"/>
       <path d="M 2188 4044 
L 1331 1722 
L 3047 1722 
L 2188 4044 
z
M 1831 4666 
L 2547 4666 
L 4325 0 
L 3669 0 
L 3244 1197 
L 1141 1197 
L 716 0 
L 50 0 
L 1831 4666 
z
" id="DejaVuSans-41" transform="scale(0.015625)"/>
       <path d="M 2631 2963 
Q 2534 3019 2420 3045 
Q 2306 3072 2169 3072 
Q 1681 3072 1420 2755 
Q 1159 2438 1159 1844 
L 1159 0 
L 581 0 
L 581 3500 
L 1159 3500 
L 1159 2956 
Q 1341 3275 1631 3429 
Q 1922 3584 2338 3584 
Q 2397 3584 2469 3576 
Q 2541 3569 2628 3553 
L 2631 2963 
z
" id="DejaVuSans-72" transform="scale(0.015625)"/>
       <path d="M 2059 -325 
Q 1816 -950 1584 -1140 
Q 1353 -1331 966 -1331 
L 506 -1331 
L 506 -850 
L 844 -850 
Q 1081 -850 1212 -737 
Q 1344 -625 1503 -206 
L 1606 56 
L 191 3500 
L 800 3500 
L 1894 763 
L 2988 3500 
L 3597 3500 
L 2059 -325 
z
" id="DejaVuSans-79" transform="scale(0.015625)"/>
      </defs>
      <use xlink:href="#DejaVuSans-54"/>
      <use x="44.083984" xlink:href="#DejaVuSans-65"/>
      <use x="105.607422" xlink:href="#DejaVuSans-73"/>
      <use x="157.707031" xlink:href="#DejaVuSans-74"/>
      <use x="196.916016" xlink:href="#DejaVuSans-20"/>
      <use x="228.703125" xlink:href="#DejaVuSans-41"/>
      <use x="295.361328" xlink:href="#DejaVuSans-63"/>
      <use x="350.341797" xlink:href="#DejaVuSans-63"/>
      <use x="405.322266" xlink:href="#DejaVuSans-75"/>
      <use x="468.701172" xlink:href="#DejaVuSans-72"/>
      <use x="509.814453" xlink:href="#DejaVuSans-61"/>
      <use x="571.09375" xlink:href="#DejaVuSans-63"/>
      <use x="626.074219" xlink:href="#DejaVuSans-79"/>
     </g>
    </g>
   </g>
   <g id="line2d_15">
    <path clip-path="url(#p03d91ff71a)" d="M 62.998636 280.597139 
L 70.520529 269.331873 
L 78.042421 245.476015 
L 85.564314 253.262302 
L 93.086206 254.918958 
L 100.608098 233.879417 
L 108.129991 222.945482 
L 115.651883 205.550586 
L 123.173776 204.556592 
L 130.695668 225.264802 
L 138.21756 190.475009 
L 145.739453 213.999536 
L 153.261345 197.929965 
L 160.783237 170.926459 
L 168.30513 184.67671 
L 175.827022 192.628663 
L 183.348915 184.511044 
L 190.870807 189.812346 
L 198.392699 175.730763 
L 205.914592 184.842376 
L 213.436484 188.155689 
L 220.958377 167.944476 
L 228.480269 172.583116 
L 236.002161 163.140172 
L 243.524054 156.67921 
L 251.045946 161.649181 
L 258.567839 150.218249 
L 266.089731 163.471503 
L 273.611623 169.601133 
L 281.133516 158.170201 
L 288.655408 149.555586 
L 296.177301 130.835364 
L 303.699193 147.070601 
L 311.221085 151.046577 
L 318.742978 124.374403 
L 326.26487 119.901429 
L 333.786763 149.38992 
L 341.308655 143.094625 
L 348.830547 121.39242 
L 356.35244 131.995024 
L 363.874332 123.049077 
L 371.396224 130.835364 
L 378.918117 133.651681 
L 386.440009 118.907435 
L 393.961902 119.404432 
L 401.483794 91.075601 
L 409.005686 129.178707 
L 416.527579 102.009536 
L 424.049471 96.708234 
L 431.571364 95.382909 
" style="fill:none;stroke:#1f77b4;stroke-linecap:square;stroke-width:1.5;"/>
   </g>
   <g id="line2d_16">
    <path clip-path="url(#p03d91ff71a)" d="M 62.998636 271.651192 
L 70.520529 258.894935 
L 78.042421 266.681222 
L 85.564314 255.747287 
L 93.086206 268.337879 
L 100.608098 259.226266 
L 108.129991 244.647686 
L 115.651883 240.506044 
L 123.173776 223.276814 
L 130.695668 256.078618 
L 138.21756 224.105142 
L 145.739453 226.09313 
L 153.261345 237.524062 
L 160.783237 211.348885 
L 168.30513 227.087124 
L 175.827022 213.502538 
L 183.348915 207.869905 
L 190.870807 235.867405 
L 198.392699 220.626163 
L 205.914592 216.650186 
L 213.436484 212.839876 
L 220.958377 223.773811 
L 228.480269 200.249284 
L 236.002161 216.318855 
L 243.524054 203.893929 
L 251.045946 213.502538 
L 258.567839 198.09563 
L 266.089731 223.773811 
L 273.611623 226.258796 
L 281.133516 186.99603 
L 288.655408 192.628663 
L 296.177301 192.959994 
L 303.699193 189.978012 
L 311.221085 193.622657 
L 318.742978 179.044077 
L 326.26487 156.347879 
L 333.786763 195.113648 
L 341.308655 182.523056 
L 348.830547 161.483515 
L 356.35244 155.022553 
L 363.874332 144.254284 
L 371.396224 170.09813 
L 378.918117 190.143678 
L 386.440009 197.267302 
L 393.961902 181.529062 
L 401.483794 143.094625 
L 409.005686 160.15819 
L 416.527579 156.513545 
L 424.049471 175.565098 
L 431.571364 165.625157 
" style="fill:none;stroke:#ff7f0e;stroke-linecap:square;stroke-width:1.5;"/>
   </g>
   <g id="line2d_17">
    <path clip-path="url(#p03d91ff71a)" d="M 62.998636 278.774816 
L 70.520529 269.331873 
L 78.042421 269.994535 
L 85.564314 259.226266 
L 93.086206 246.304343 
L 100.608098 241.665704 
L 108.129991 222.779817 
L 115.651883 239.51205 
L 123.173776 224.93347 
L 130.695668 227.418456 
L 138.21756 203.893929 
L 145.739453 209.692228 
L 153.261345 199.917953 
L 160.783237 196.604639 
L 168.30513 197.598633 
L 175.827022 205.716252 
L 183.348915 174.074107 
L 190.870807 162.146178 
L 198.392699 187.161695 
L 205.914592 189.812346 
L 213.436484 160.489521 
L 220.958377 183.51705 
L 228.480269 182.854388 
L 236.002161 162.146178 
L 243.524054 164.134166 
L 251.045946 169.269802 
L 258.567839 141.769299 
L 266.089731 140.775305 
L 273.611623 158.335867 
L 281.133516 196.770305 
L 288.655408 147.236267 
L 296.177301 145.082613 
L 303.699193 144.088619 
L 311.221085 137.461991 
L 318.742978 143.757287 
L 326.26487 163.140172 
L 333.786763 141.106636 
L 341.308655 141.437968 
L 348.830547 126.693722 
L 356.35244 146.904935 
L 363.874332 134.148678 
L 371.396224 151.212243 
L 378.918117 133.817346 
L 386.440009 137.627657 
L 393.961902 123.877406 
L 401.483794 135.142672 
L 409.005686 136.964994 
L 416.527579 120.729758 
L 424.049471 115.428456 
L 431.571364 126.362391 
" style="fill:none;stroke:#2ca02c;stroke-linecap:square;stroke-width:1.5;"/>
   </g>
   <g id="line2d_18">
    <path clip-path="url(#p03d91ff71a)" d="M 62.998636 282.916458 
L 70.520529 282.903371 
L 78.042421 276.124 
L 85.564314 267.041213 
L 93.086206 251.139793 
L 100.608098 243.261065 
L 108.129991 229.244257 
L 115.651883 223.943784 
L 123.173776 210.057852 
L 130.695668 204.705028 
L 138.21756 196.957176 
L 145.739453 192.245644 
L 153.261345 187.036783 
L 160.783237 183.110507 
L 168.30513 180.087274 
L 175.827022 184.864244 
L 183.348915 179.236581 
L 190.870807 172.993801 
L 198.392699 172.025319 
L 205.914592 173.163939 
L 213.436484 167.915816 
L 220.958377 166.724846 
L 228.480269 158.963906 
L 236.002161 160.573679 
L 243.524054 164.735532 
L 251.045946 156.490351 
L 258.567839 152.236885 
L 266.089731 157.223256 
L 273.611623 149.501579 
L 281.133516 149.200564 
L 288.655408 141.256398 
L 296.177301 141.858427 
L 303.699193 143.913179 
L 311.221085 138.782844 
L 318.742978 140.143953 
L 326.26487 142.918522 
L 333.786763 132.487714 
L 341.308655 127.46208 
L 348.830547 127.200328 
L 356.35244 130.367524 
L 363.874332 130.262824 
L 371.396224 123.535803 
L 378.918117 121.428701 
L 386.440009 125.642905 
L 393.961902 124.805299 
L 401.483794 118.28768 
L 409.005686 115.68325 
L 416.527579 114.282878 
L 424.049471 112.568404 
L 431.571364 119.033672 
" style="fill:none;stroke:#d62728;stroke-linecap:square;stroke-width:1.5;"/>
   </g>
   <g id="patch_3">
    <path d="M 44.57 303.64 
L 44.57 48.38 
" style="fill:none;stroke:#000000;stroke-linecap:square;stroke-linejoin:miter;stroke-width:0.8;"/>
   </g>
   <g id="patch_4">
    <path d="M 450 303.64 
L 450 48.38 
" style="fill:none;stroke:#000000;stroke-linecap:square;stroke-linejoin:miter;stroke-width:0.8;"/>
   </g>
   <g id="patch_5">
    <path d="M 44.57 303.64 
L 450 303.64 
" style="fill:none;stroke:#000000;stroke-linecap:square;stroke-linejoin:miter;stroke-width:0.8;"/>
   </g>
   <g id="patch_6">
    <path d="M 44.57 48.38 
L 450 48.38 
" style="fill:none;stroke:#000000;stroke-linecap:square;stroke-linejoin:miter;stroke-width:0.8;"/>
   </g>
   <g id="text_17">
    <!-- Local Rounds 01 -->
    <g transform="translate(198.174063 20.88)scale(0.12 -0.12)">
     <defs>
      <path d="M 628 4666 
L 1259 4666 
L 1259 531 
L 3531 531 
L 3531 0 
L 628 0 
L 628 4666 
z
" id="DejaVuSans-4c" transform="scale(0.015625)"/>
     </defs>
     <use xlink:href="#DejaVuSans-4c"/>
     <use x="53.962891" xlink:href="#DejaVuSans-6f"/>
     <use x="115.144531" xlink:href="#DejaVuSans-63"/>
     <use x="170.125" xlink:href="#DejaVuSans-61"/>
     <use x="231.404297" xlink:href="#DejaVuSans-6c"/>
     <use x="259.1875" xlink:href="#DejaVuSans-20"/>
     <use x="290.974609" xlink:href="#DejaVuSans-52"/>
     <use x="355.957031" xlink:href="#DejaVuSans-6f"/>
     <use x="417.138672" xlink:href="#DejaVuSans-75"/>
     <use x="480.517578" xlink:href="#DejaVuSans-6e"/>
     <use x="543.896484" xlink:href="#DejaVuSans-64"/>
     <use x="607.373047" xlink:href="#DejaVuSans-73"/>
     <use x="659.472656" xlink:href="#DejaVuSans-20"/>
     <use x="691.259766" xlink:href="#DejaVuSans-30"/>
     <use x="754.882812" xlink:href="#DejaVuSans-31"/>
    </g>
   </g>
   <g id="legend_1">
    <g id="patch_7">
     <path d="M 80.886563 45.532125 
L 413.683438 45.532125 
Q 415.683438 45.532125 415.683438 43.532125 
L 415.683438 29.854 
Q 415.683438 27.854 413.683438 27.854 
L 80.886563 27.854 
Q 78.886563 27.854 78.886563 29.854 
L 78.886563 43.532125 
Q 78.886563 45.532125 80.886563 45.532125 
z
" style="fill:#ffffff;opacity:0.8;stroke:#cccccc;stroke-linejoin:miter;"/>
    </g>
    <g id="line2d_19">
     <path d="M 82.886563 35.952438 
L 102.886563 35.952438 
" style="fill:none;stroke:#1f77b4;stroke-linecap:square;stroke-width:1.5;"/>
    </g>
    <g id="line2d_20"/>
    <g id="text_18">
     <!-- FedAvg -->
     <g transform="translate(110.886563 39.452438)scale(0.1 -0.1)">
      <defs>
       <path d="M 628 4666 
L 3309 4666 
L 3309 4134 
L 1259 4134 
L 1259 2759 
L 3109 2759 
L 3109 2228 
L 1259 2228 
L 1259 0 
L 628 0 
L 628 4666 
z
" id="DejaVuSans-46" transform="scale(0.015625)"/>
       <path d="M 191 3500 
L 800 3500 
L 1894 563 
L 2988 3500 
L 3597 3500 
L 2284 0 
L 1503 0 
L 191 3500 
z
" id="DejaVuSans-76" transform="scale(0.015625)"/>
       <path d="M 2906 1791 
Q 2906 2416 2648 2759 
Q 2391 3103 1925 3103 
Q 1463 3103 1205 2759 
Q 947 2416 947 1791 
Q 947 1169 1205 825 
Q 1463 481 1925 481 
Q 2391 481 2648 825 
Q 2906 1169 2906 1791 
z
M 3481 434 
Q 3481 -459 3084 -895 
Q 2688 -1331 1869 -1331 
Q 1566 -1331 1297 -1286 
Q 1028 -1241 775 -1147 
L 775 -588 
Q 1028 -725 1275 -790 
Q 1522 -856 1778 -856 
Q 2344 -856 2625 -561 
Q 2906 -266 2906 331 
L 2906 616 
Q 2728 306 2450 153 
Q 2172 0 1784 0 
Q 1141 0 747 490 
Q 353 981 353 1791 
Q 353 2603 747 3093 
Q 1141 3584 1784 3584 
Q 2172 3584 2450 3431 
Q 2728 3278 2906 2969 
L 2906 3500 
L 3481 3500 
L 3481 434 
z
" id="DejaVuSans-67" transform="scale(0.015625)"/>
      </defs>
      <use xlink:href="#DejaVuSans-46"/>
      <use x="52.019531" xlink:href="#DejaVuSans-65"/>
      <use x="113.542969" xlink:href="#DejaVuSans-64"/>
      <use x="177.019531" xlink:href="#DejaVuSans-41"/>
      <use x="239.552734" xlink:href="#DejaVuSans-76"/>
      <use x="298.732422" xlink:href="#DejaVuSans-67"/>
     </g>
    </g>
    <g id="line2d_21">
     <path d="M 167.11 35.952438 
L 187.11 35.952438 
" style="fill:none;stroke:#ff7f0e;stroke-linecap:square;stroke-width:1.5;"/>
    </g>
    <g id="line2d_22"/>
    <g id="text_19">
     <!-- FedMed -->
     <g transform="translate(195.11 39.452438)scale(0.1 -0.1)">
      <defs>
       <path d="M 628 4666 
L 1569 4666 
L 2759 1491 
L 3956 4666 
L 4897 4666 
L 4897 0 
L 4281 0 
L 4281 4097 
L 3078 897 
L 2444 897 
L 1241 4097 
L 1241 0 
L 628 0 
L 628 4666 
z
" id="DejaVuSans-4d" transform="scale(0.015625)"/>
      </defs>
      <use xlink:href="#DejaVuSans-46"/>
      <use x="52.019531" xlink:href="#DejaVuSans-65"/>
      <use x="113.542969" xlink:href="#DejaVuSans-64"/>
      <use x="177.019531" xlink:href="#DejaVuSans-4d"/>
      <use x="263.298828" xlink:href="#DejaVuSans-65"/>
      <use x="324.822266" xlink:href="#DejaVuSans-64"/>
     </g>
    </g>
    <g id="line2d_23">
     <path d="M 253.942813 35.952438 
L 273.942813 35.952438 
" style="fill:none;stroke:#2ca02c;stroke-linecap:square;stroke-width:1.5;"/>
    </g>
    <g id="line2d_24"/>
    <g id="text_20">
     <!-- FedProx -->
     <g transform="translate(281.942813 39.452438)scale(0.1 -0.1)">
      <defs>
       <path d="M 1259 4147 
L 1259 2394 
L 2053 2394 
Q 2494 2394 2734 2622 
Q 2975 2850 2975 3272 
Q 2975 3691 2734 3919 
Q 2494 4147 2053 4147 
L 1259 4147 
z
M 628 4666 
L 2053 4666 
Q 2838 4666 3239 4311 
Q 3641 3956 3641 3272 
Q 3641 2581 3239 2228 
Q 2838 1875 2053 1875 
L 1259 1875 
L 1259 0 
L 628 0 
L 628 4666 
z
" id="DejaVuSans-50" transform="scale(0.015625)"/>
       <path d="M 3513 3500 
L 2247 1797 
L 3578 0 
L 2900 0 
L 1881 1375 
L 863 0 
L 184 0 
L 1544 1831 
L 300 3500 
L 978 3500 
L 1906 2253 
L 2834 3500 
L 3513 3500 
z
" id="DejaVuSans-78" transform="scale(0.015625)"/>
      </defs>
      <use xlink:href="#DejaVuSans-46"/>
      <use x="52.019531" xlink:href="#DejaVuSans-65"/>
      <use x="113.542969" xlink:href="#DejaVuSans-64"/>
      <use x="177.019531" xlink:href="#DejaVuSans-50"/>
      <use x="235.572266" xlink:href="#DejaVuSans-72"/>
      <use x="274.435547" xlink:href="#DejaVuSans-6f"/>
      <use x="332.492188" xlink:href="#DejaVuSans-78"/>
     </g>
    </g>
    <g id="line2d_25">
     <path d="M 341.111563 35.952438 
L 361.111563 35.952438 
" style="fill:none;stroke:#d62728;stroke-linecap:square;stroke-width:1.5;"/>
    </g>
    <g id="line2d_26"/>
    <g id="text_21">
     <!-- qFedAvg -->
     <g transform="translate(369.111563 39.452438)scale(0.1 -0.1)">
      <defs>
       <path d="M 947 1747 
Q 947 1113 1208 752 
Q 1469 391 1925 391 
Q 2381 391 2643 752 
Q 2906 1113 2906 1747 
Q 2906 2381 2643 2742 
Q 2381 3103 1925 3103 
Q 1469 3103 1208 2742 
Q 947 2381 947 1747 
z
M 2906 525 
Q 2725 213 2448 61 
Q 2172 -91 1784 -91 
Q 1150 -91 751 415 
Q 353 922 353 1747 
Q 353 2572 751 3078 
Q 1150 3584 1784 3584 
Q 2172 3584 2448 3432 
Q 2725 3281 2906 2969 
L 2906 3500 
L 3481 3500 
L 3481 -1331 
L 2906 -1331 
L 2906 525 
z
" id="DejaVuSans-71" transform="scale(0.015625)"/>
      </defs>
      <use xlink:href="#DejaVuSans-71"/>
      <use x="63.476562" xlink:href="#DejaVuSans-46"/>
      <use x="115.496094" xlink:href="#DejaVuSans-65"/>
      <use x="177.019531" xlink:href="#DejaVuSans-64"/>
      <use x="240.496094" xlink:href="#DejaVuSans-41"/>
      <use x="303.029297" xlink:href="#DejaVuSans-76"/>
      <use x="362.208984" xlink:href="#DejaVuSans-67"/>
     </g>
    </g>
   </g>
  </g>
 </g>
 <defs>
  <clipPath id="p03d91ff71a">
   <rect height="255.26" width="405.43" x="44.57" y="48.38"/>
  </clipPath>
 </defs>
</svg>
