<?xml version="1.0" encoding="utf-8" standalone="no"?>
<!DOCTYPE svg PUBLIC "-//W3C//DTD SVG 1.1//EN"
  "http://www.w3.org/Graphics/SVG/1.1/DTD/svg11.dtd">
<svg height="345.6pt" version="1.1" viewBox="0 0 460.8 345.6" width="460.8pt" xmlns="http://www.w3.org/2000/svg" xmlns:xlink="http://www.w3.org/1999/xlink">
 <metadata>
  <rdf:RDF xmlns:cc="http://creativecommons.org/ns#" xmlns:dc="http://purl.org/dc/elements/1.1/" xmlns:rdf="http://www.w3.org/1999/02/22-rdf-syntax-ns#">
   <cc:Work>
    <dc:type rdf:resource="http://purl.org/dc/dcmitype/StillImage"/>
    <dc:date>2021-04-27T22:08:17.861112</dc:date>
    <dc:format>image/svg+xml</dc:format>
    <dc:creator>
     <cc:Agent>
      <dc:title>Matplotlib v3.4.1, https://matplotlib.org/</dc:title>
     </cc:Agent>
    </dc:creator>
   </cc:Work>
  </rdf:RDF>
 </metadata>
 <defs>
  <style type="text/css">*{stroke-linecap:butt;stroke-linejoin:round;}</style>
 </defs>
 <g id="figure_1">
  <g id="patch_1">
   <path d="M 0 345.6 
L 460.8 345.6 
L 460.8 0 
L 0 0 
z
" style="fill:#ffffff;"/>
  </g>
  <g id="axes_1">
   <g id="patch_2">
    <path d="M 44.57 303.64 
L 366.25 303.64 
L 366.25 26.88 
L 44.57 26.88 
z
" style="fill:#ffffff;"/>
   </g>
   <g id="PolyCollection_1">
    <path clip-path="url(#p38a76a1f6a)" d="M 59.191818 266.682264 
L 59.191818 290.630312 
L 65.159907 279.439466 
L 71.127996 253.596602 
L 77.096085 269.478363 
L 83.064174 280.916405 
L 89.032263 244.828511 
L 95.000353 237.647624 
L 100.968442 221.960082 
L 106.936531 199.454121 
L 112.90462 242.806031 
L 118.872709 196.463558 
L 124.840798 236.248806 
L 130.808887 228.581662 
L 136.776976 180.790595 
L 142.745065 191.0464 
L 148.713154 211.707115 
L 154.681243 205.051426 
L 160.649332 207.469063 
L 166.617421 185.378628 
L 172.58551 199.152017 
L 178.553599 204.112377 
L 184.521688 190.96929 
L 190.489777 178.215242 
L 196.457866 204.117315 
L 202.425955 177.492225 
L 208.394045 182.524094 
L 214.362134 163.066077 
L 220.330223 184.341326 
L 226.298312 207.450926 
L 232.266401 172.1789 
L 238.23449 159.361448 
L 244.202579 139.188735 
L 250.170668 151.943552 
L 256.138757 162.435254 
L 262.106846 128.800126 
L 268.074935 117.407916 
L 274.043024 165.87067 
L 280.011113 145.296878 
L 285.979202 121.628671 
L 291.947291 138.770841 
L 297.91538 139.833737 
L 303.883469 137.416035 
L 309.851558 144.296496 
L 315.819647 128.145689 
L 321.787737 132.02219 
L 327.755826 91.397592 
L 333.723915 158.50231 
L 339.692004 94.825361 
L 345.660093 119.097634 
L 351.628182 103.456362 
L 351.628182 52.227363 
L 351.628182 52.227363 
L 345.660093 39.46 
L 339.692004 75.227911 
L 333.723915 70.466107 
L 327.755826 54.945927 
L 321.787737 75.751145 
L 315.819647 78.549929 
L 309.851558 94.371365 
L 303.883469 95.144769 
L 297.91538 75.842849 
L 291.947291 96.304634 
L 285.979202 90.455528 
L 280.011113 113.847588 
L 274.043024 106.924867 
L 268.074935 91.443134 
L 262.106846 89.750369 
L 256.138757 113.952669 
L 250.170668 115.822643 
L 244.202579 93.372069 
L 238.23449 113.793327 
L 232.266401 119.656287 
L 226.298312 109.17173 
L 220.330223 118.989499 
L 214.362134 111.525653 
L 208.394045 116.855105 
L 202.425955 111.109814 
L 196.457866 98.495032 
L 190.489777 144.873711 
L 184.521688 122.06098 
L 178.553599 152.745013 
L 172.58551 150.520598 
L 166.617421 144.53586 
L 160.649332 152.980713 
L 154.681243 143.902712 
L 148.713154 154.849719 
L 142.745065 158.266977 
L 136.776976 138.705971 
L 130.808887 149.47081 
L 124.840798 176.649819 
L 118.872709 165.423173 
L 112.90462 194.520824 
L 106.936531 192.967898 
L 100.968442 172.61737 
L 95.000353 194.64989 
L 89.032263 211.178756 
L 83.064174 220.714175 
L 77.096085 228.559831 
L 71.127996 227.557373 
L 65.159907 253.44488 
L 59.191818 266.682264 
z
" style="fill:#1f77b4;fill-opacity:0.5;"/>
   </g>
   <g id="PolyCollection_2">
    <path clip-path="url(#p38a76a1f6a)" d="M 59.191818 250.953644 
L 59.191818 286.960043 
L 65.159907 283.143317 
L 71.127996 291.06 
L 77.096085 271.078984 
L 83.064174 282.448136 
L 89.032263 271.736725 
L 95.000353 266.134814 
L 100.968442 272.040589 
L 106.936531 249.589178 
L 112.90462 283.041209 
L 118.872709 238.190775 
L 124.840798 261.067198 
L 130.808887 264.601538 
L 136.776976 229.09526 
L 142.745065 241.296246 
L 148.713154 238.714474 
L 154.681243 245.053926 
L 160.649332 278.889896 
L 166.617421 252.464282 
L 172.58551 232.318707 
L 178.553599 254.01607 
L 184.521688 260.545155 
L 190.489777 212.789199 
L 196.457866 250.706065 
L 202.425955 236.497705 
L 208.394045 253.302057 
L 214.362134 227.903716 
L 220.330223 264.933519 
L 226.298312 250.573996 
L 232.266401 221.108028 
L 238.23449 238.149113 
L 244.202579 232.610203 
L 250.170668 196.159899 
L 256.138757 199.537953 
L 262.106846 195.579806 
L 268.074935 163.27403 
L 274.043024 250.051766 
L 280.011113 191.519912 
L 285.979202 178.168133 
L 291.947291 158.756158 
L 297.91538 163.649321 
L 303.883469 197.982477 
L 309.851558 231.770913 
L 315.819647 247.974374 
L 321.787737 233.158164 
L 327.755826 149.111978 
L 333.723915 184.837556 
L 339.692004 181.595178 
L 345.660093 241.306005 
L 351.628182 190.875401 
L 351.628182 117.125527 
L 351.628182 117.125527 
L 345.660093 88.249244 
L 339.692004 106.647622 
L 333.723915 111.308496 
L 327.755826 110.032489 
L 321.787737 109.329678 
L 315.819647 128.641143 
L 309.851558 129.397341 
L 303.883469 119.717896 
L 297.91538 98.009816 
L 291.947291 126.253494 
L 285.979202 120.851828 
L 280.011113 153.123362 
L 274.043024 121.893648 
L 268.074935 124.609532 
L 262.106846 141.519456 
L 256.138757 169.174313 
L 250.170668 164.649116 
L 244.202579 134.665108 
L 238.23449 128.407721 
L 232.266401 133.234691 
L 226.298312 188.908292 
L 220.330223 169.160188 
L 214.362134 150.507994 
L 208.394045 158.518851 
L 202.425955 154.48736 
L 196.457866 167.221901 
L 190.489777 170.292614 
L 184.521688 173.548552 
L 178.553599 156.367884 
L 172.58551 186.327736 
L 166.617421 174.80389 
L 160.649332 181.428235 
L 154.681243 154.552867 
L 148.713154 173.106434 
L 142.745065 199.982235 
L 136.776976 178.055546 
L 130.808887 199.30898 
L 124.840798 178.055851 
L 118.872709 196.62141 
L 112.90462 221.104042 
L 106.936531 183.426813 
L 100.968442 198.336226 
L 95.000353 213.222968 
L 89.032263 239.234061 
L 83.064174 248.280778 
L 77.096085 232.347789 
L 71.127996 236.076527 
L 65.159907 227.108991 
L 59.191818 250.953644 
z
" style="fill:#ff7f0e;fill-opacity:0.5;"/>
   </g>
   <g id="PolyCollection_3">
    <path clip-path="url(#p38a76a1f6a)" d="M 59.191818 271.202822 
L 59.191818 282.158129 
L 65.159907 277.92377 
L 71.127996 283.520808 
L 77.096085 273.43475 
L 83.064174 263.768153 
L 89.032263 254.491901 
L 95.000353 234.115137 
L 100.968442 262.853154 
L 106.936531 242.958539 
L 112.90462 247.640333 
L 118.872709 216.871007 
L 124.840798 230.42047 
L 130.808887 213.99686 
L 136.776976 220.166308 
L 142.745065 217.579575 
L 148.713154 233.742559 
L 154.681243 187.463488 
L 160.649332 161.56584 
L 166.617421 205.68077 
L 172.58551 201.505043 
L 178.553599 175.758028 
L 184.521688 196.70838 
L 190.489777 193.723188 
L 196.457866 190.885168 
L 202.425955 185.448489 
L 208.394045 177.811199 
L 214.362134 157.406068 
L 220.330223 156.700741 
L 226.298312 164.872375 
L 232.266401 202.829102 
L 238.23449 176.200205 
L 244.202579 153.361173 
L 250.170668 154.114864 
L 256.138757 160.826863 
L 262.106846 182.940937 
L 268.074935 172.932223 
L 274.043024 161.390032 
L 280.011113 174.291555 
L 285.979202 178.50974 
L 291.947291 159.747664 
L 297.91538 148.525312 
L 303.883469 165.471706 
L 309.851558 157.100802 
L 315.819647 162.720156 
L 321.787737 140.977937 
L 327.755826 162.688722 
L 333.723915 155.47362 
L 339.692004 156.612415 
L 345.660093 136.854498 
L 351.628182 145.192428 
L 351.628182 77.668932 
L 351.628182 77.668932 
L 345.660093 62.297108 
L 339.692004 54.034829 
L 333.723915 90.379015 
L 327.755826 79.212287 
L 321.787737 76.494842 
L 315.819647 84.569434 
L 309.851558 81.926298 
L 303.883469 111.275457 
L 297.91538 91.220266 
L 291.947291 107.659293 
L 285.979202 45.070096 
L 280.011113 81.260525 
L 274.043024 93.44357 
L 268.074935 129.680124 
L 262.106846 77.640485 
L 256.138757 86.103489 
L 250.170668 107.185035 
L 244.202579 110.094158 
L 238.23449 91.925229 
L 232.266401 172.7087 
L 226.298312 127.322051 
L 220.330223 97.414384 
L 214.362134 98.864489 
L 208.394045 138.09298 
L 202.425955 119.319291 
L 196.457866 109.571747 
L 190.489777 151.638564 
L 184.521688 150.090326 
L 178.553599 121.1065 
L 172.58551 158.944733 
L 166.617421 149.021187 
L 160.649332 138.891076 
L 154.681243 138.858613 
L 148.713154 161.194131 
L 142.745065 159.75442 
L 136.776976 155.012254 
L 130.808887 168.366476 
L 124.840798 173.137949 
L 118.872709 174.114057 
L 112.90462 194.356625 
L 106.936531 193.649839 
L 100.968442 205.368229 
L 95.000353 197.823138 
L 89.032263 218.399585 
L 83.064174 219.182015 
L 77.096085 237.536036 
L 71.127996 250.800493 
L 65.159907 254.960576 
L 59.191818 271.202822 
z
" style="fill:#2ca02c;fill-opacity:0.5;"/>
   </g>
   <g id="PolyCollection_4">
    <path clip-path="url(#p38a76a1f6a)" d="M 59.191818 281.170959 
L 59.191818 281.170959 
L 65.159907 281.185149 
L 71.127996 282.748338 
L 77.096085 284.722354 
L 83.064174 268.491776 
L 89.032263 262.013331 
L 95.000353 254.398692 
L 100.968442 236.754721 
L 106.936531 231.10195 
L 112.90462 210.474296 
L 118.872709 205.672706 
L 124.840798 200.47561 
L 130.808887 200.968205 
L 136.776976 189.827724 
L 142.745065 187.090562 
L 148.713154 199.064583 
L 154.681243 191.340254 
L 160.649332 183.103078 
L 166.617421 176.404741 
L 172.58551 177.125747 
L 178.553599 173.203783 
L 184.521688 170.828288 
L 190.489777 165.577122 
L 196.457866 161.547098 
L 202.425955 169.587229 
L 208.394045 156.378618 
L 214.362134 154.453993 
L 220.330223 157.531511 
L 226.298312 151.064055 
L 232.266401 147.461321 
L 238.23449 144.708801 
L 244.202579 141.322736 
L 250.170668 144.359012 
L 256.138757 134.155227 
L 262.106846 138.465433 
L 268.074935 143.130203 
L 274.043024 135.02924 
L 280.011113 128.336735 
L 285.979202 127.374131 
L 291.947291 134.703415 
L 297.91538 135.087686 
L 303.883469 115.178894 
L 309.851558 120.257977 
L 315.819647 122.997021 
L 321.787737 123.405459 
L 327.755826 111.800584 
L 333.723915 118.320378 
L 339.692004 114.539043 
L 345.660093 111.534935 
L 351.628182 113.537079 
L 351.628182 93.432279 
L 351.628182 93.432279 
L 345.660093 81.414774 
L 339.692004 82.128427 
L 333.723915 81.383737 
L 327.755826 93.551123 
L 321.787737 96.079416 
L 315.819647 98.304165 
L 309.851558 91.904895 
L 303.883469 101.553135 
L 297.91538 96.231589 
L 291.947291 96.842899 
L 285.979202 97.304257 
L 280.011113 96.909251 
L 274.043024 101.114611 
L 268.074935 115.632393 
L 262.106846 114.280633 
L 256.138757 115.639334 
L 250.170668 116.560453 
L 244.202579 115.141092 
L 238.23449 110.449553 
L 232.266401 124.923606 
L 226.298312 121.973609 
L 220.330223 132.250268 
L 214.362134 124.515061 
L 208.394045 131.813889 
L 202.425955 136.484587 
L 196.457866 135.499924 
L 190.489777 127.979178 
L 184.521688 139.557266 
L 178.553599 139.764339 
L 172.58551 147.222697 
L 166.617421 145.474655 
L 160.649332 140.876427 
L 154.681243 146.176443 
L 148.713154 150.655452 
L 142.745065 152.270826 
L 136.776976 156.08941 
L 130.808887 153.462886 
L 124.840798 165.250664 
L 118.872709 170.270317 
L 112.90462 182.269601 
L 106.936531 173.249308 
L 100.968442 197.707565 
L 95.000353 191.557436 
L 89.032263 214.337622 
L 83.064174 224.943851 
L 77.096085 243.194798 
L 71.127996 264.864435 
L 65.159907 281.128389 
L 59.191818 281.170959 
z
" style="fill:#d62728;fill-opacity:0.5;"/>
   </g>
   <g id="matplotlib.axis_1">
    <g id="xtick_1">
     <g id="line2d_1">
      <path clip-path="url(#p38a76a1f6a)" d="M 59.191818 303.64 
L 59.191818 26.88 
" style="fill:none;stroke:#b0b0b0;stroke-linecap:square;stroke-width:0.8;"/>
     </g>
     <g id="line2d_2">
      <defs>
       <path d="M 0 0 
L 0 3.5 
" id="mfd40590947" style="stroke:#000000;stroke-width:0.8;"/>
      </defs>
      <g>
       <use style="stroke:#000000;stroke-width:0.8;" x="59.191818" xlink:href="#mfd40590947" y="303.64"/>
      </g>
     </g>
     <g id="text_1">
      <!-- 0 -->
      <g transform="translate(56.010568 318.238437)scale(0.1 -0.1)">
       <defs>
        <path d="M 2034 4250 
Q 1547 4250 1301 3770 
Q 1056 3291 1056 2328 
Q 1056 1369 1301 889 
Q 1547 409 2034 409 
Q 2525 409 2770 889 
Q 3016 1369 3016 2328 
Q 3016 3291 2770 3770 
Q 2525 4250 2034 4250 
z
M 2034 4750 
Q 2819 4750 3233 4129 
Q 3647 3509 3647 2328 
Q 3647 1150 3233 529 
Q 2819 -91 2034 -91 
Q 1250 -91 836 529 
Q 422 1150 422 2328 
Q 422 3509 836 4129 
Q 1250 4750 2034 4750 
z
" id="DejaVuSans-30" transform="scale(0.015625)"/>
       </defs>
       <use xlink:href="#DejaVuSans-30"/>
      </g>
     </g>
    </g>
    <g id="xtick_2">
     <g id="line2d_3">
      <path clip-path="url(#p38a76a1f6a)" d="M 118.872709 303.64 
L 118.872709 26.88 
" style="fill:none;stroke:#b0b0b0;stroke-linecap:square;stroke-width:0.8;"/>
     </g>
     <g id="line2d_4">
      <g>
       <use style="stroke:#000000;stroke-width:0.8;" x="118.872709" xlink:href="#mfd40590947" y="303.64"/>
      </g>
     </g>
     <g id="text_2">
      <!-- 10 -->
      <g transform="translate(112.510209 318.238437)scale(0.1 -0.1)">
       <defs>
        <path d="M 794 531 
L 1825 531 
L 1825 4091 
L 703 3866 
L 703 4441 
L 1819 4666 
L 2450 4666 
L 2450 531 
L 3481 531 
L 3481 0 
L 794 0 
L 794 531 
z
" id="DejaVuSans-31" transform="scale(0.015625)"/>
       </defs>
       <use xlink:href="#DejaVuSans-31"/>
       <use x="63.623047" xlink:href="#DejaVuSans-30"/>
      </g>
     </g>
    </g>
    <g id="xtick_3">
     <g id="line2d_5">
      <path clip-path="url(#p38a76a1f6a)" d="M 178.553599 303.64 
L 178.553599 26.88 
" style="fill:none;stroke:#b0b0b0;stroke-linecap:square;stroke-width:0.8;"/>
     </g>
     <g id="line2d_6">
      <g>
       <use style="stroke:#000000;stroke-width:0.8;" x="178.553599" xlink:href="#mfd40590947" y="303.64"/>
      </g>
     </g>
     <g id="text_3">
      <!-- 20 -->
      <g transform="translate(172.191099 318.238437)scale(0.1 -0.1)">
       <defs>
        <path d="M 1228 531 
L 3431 531 
L 3431 0 
L 469 0 
L 469 531 
Q 828 903 1448 1529 
Q 2069 2156 2228 2338 
Q 2531 2678 2651 2914 
Q 2772 3150 2772 3378 
Q 2772 3750 2511 3984 
Q 2250 4219 1831 4219 
Q 1534 4219 1204 4116 
Q 875 4013 500 3803 
L 500 4441 
Q 881 4594 1212 4672 
Q 1544 4750 1819 4750 
Q 2544 4750 2975 4387 
Q 3406 4025 3406 3419 
Q 3406 3131 3298 2873 
Q 3191 2616 2906 2266 
Q 2828 2175 2409 1742 
Q 1991 1309 1228 531 
z
" id="DejaVuSans-32" transform="scale(0.015625)"/>
       </defs>
       <use xlink:href="#DejaVuSans-32"/>
       <use x="63.623047" xlink:href="#DejaVuSans-30"/>
      </g>
     </g>
    </g>
    <g id="xtick_4">
     <g id="line2d_7">
      <path clip-path="url(#p38a76a1f6a)" d="M 238.23449 303.64 
L 238.23449 26.88 
" style="fill:none;stroke:#b0b0b0;stroke-linecap:square;stroke-width:0.8;"/>
     </g>
     <g id="line2d_8">
      <g>
       <use style="stroke:#000000;stroke-width:0.8;" x="238.23449" xlink:href="#mfd40590947" y="303.64"/>
      </g>
     </g>
     <g id="text_4">
      <!-- 30 -->
      <g transform="translate(231.87199 318.238437)scale(0.1 -0.1)">
       <defs>
        <path d="M 2597 2516 
Q 3050 2419 3304 2112 
Q 3559 1806 3559 1356 
Q 3559 666 3084 287 
Q 2609 -91 1734 -91 
Q 1441 -91 1130 -33 
Q 819 25 488 141 
L 488 750 
Q 750 597 1062 519 
Q 1375 441 1716 441 
Q 2309 441 2620 675 
Q 2931 909 2931 1356 
Q 2931 1769 2642 2001 
Q 2353 2234 1838 2234 
L 1294 2234 
L 1294 2753 
L 1863 2753 
Q 2328 2753 2575 2939 
Q 2822 3125 2822 3475 
Q 2822 3834 2567 4026 
Q 2313 4219 1838 4219 
Q 1578 4219 1281 4162 
Q 984 4106 628 3988 
L 628 4550 
Q 988 4650 1302 4700 
Q 1616 4750 1894 4750 
Q 2613 4750 3031 4423 
Q 3450 4097 3450 3541 
Q 3450 3153 3228 2886 
Q 3006 2619 2597 2516 
z
" id="DejaVuSans-33" transform="scale(0.015625)"/>
       </defs>
       <use xlink:href="#DejaVuSans-33"/>
       <use x="63.623047" xlink:href="#DejaVuSans-30"/>
      </g>
     </g>
    </g>
    <g id="xtick_5">
     <g id="line2d_9">
      <path clip-path="url(#p38a76a1f6a)" d="M 297.91538 303.64 
L 297.91538 26.88 
" style="fill:none;stroke:#b0b0b0;stroke-linecap:square;stroke-width:0.8;"/>
     </g>
     <g id="line2d_10">
      <g>
       <use style="stroke:#000000;stroke-width:0.8;" x="297.91538" xlink:href="#mfd40590947" y="303.64"/>
      </g>
     </g>
     <g id="text_5">
      <!-- 40 -->
      <g transform="translate(291.55288 318.238437)scale(0.1 -0.1)">
       <defs>
        <path d="M 2419 4116 
L 825 1625 
L 2419 1625 
L 2419 4116 
z
M 2253 4666 
L 3047 4666 
L 3047 1625 
L 3713 1625 
L 3713 1100 
L 3047 1100 
L 3047 0 
L 2419 0 
L 2419 1100 
L 313 1100 
L 313 1709 
L 2253 4666 
z
" id="DejaVuSans-34" transform="scale(0.015625)"/>
       </defs>
       <use xlink:href="#DejaVuSans-34"/>
       <use x="63.623047" xlink:href="#DejaVuSans-30"/>
      </g>
     </g>
    </g>
    <g id="xtick_6">
     <g id="line2d_11">
      <path clip-path="url(#p38a76a1f6a)" d="M 357.596271 303.64 
L 357.596271 26.88 
" style="fill:none;stroke:#b0b0b0;stroke-linecap:square;stroke-width:0.8;"/>
     </g>
     <g id="line2d_12">
      <g>
       <use style="stroke:#000000;stroke-width:0.8;" x="357.596271" xlink:href="#mfd40590947" y="303.64"/>
      </g>
     </g>
     <g id="text_6">
      <!-- 50 -->
      <g transform="translate(351.233771 318.238437)scale(0.1 -0.1)">
       <defs>
        <path d="M 691 4666 
L 3169 4666 
L 3169 4134 
L 1269 4134 
L 1269 2991 
Q 1406 3038 1543 3061 
Q 1681 3084 1819 3084 
Q 2600 3084 3056 2656 
Q 3513 2228 3513 1497 
Q 3513 744 3044 326 
Q 2575 -91 1722 -91 
Q 1428 -91 1123 -41 
Q 819 9 494 109 
L 494 744 
Q 775 591 1075 516 
Q 1375 441 1709 441 
Q 2250 441 2565 725 
Q 2881 1009 2881 1497 
Q 2881 1984 2565 2268 
Q 2250 2553 1709 2553 
Q 1456 2553 1204 2497 
Q 953 2441 691 2322 
L 691 4666 
z
" id="DejaVuSans-35" transform="scale(0.015625)"/>
       </defs>
       <use xlink:href="#DejaVuSans-35"/>
       <use x="63.623047" xlink:href="#DejaVuSans-30"/>
      </g>
     </g>
    </g>
    <g id="text_7">
     <!-- Global Communication Rounds -->
     <g transform="translate(128.448281 331.916562)scale(0.1 -0.1)">
      <defs>
       <path d="M 3809 666 
L 3809 1919 
L 2778 1919 
L 2778 2438 
L 4434 2438 
L 4434 434 
Q 4069 175 3628 42 
Q 3188 -91 2688 -91 
Q 1594 -91 976 548 
Q 359 1188 359 2328 
Q 359 3472 976 4111 
Q 1594 4750 2688 4750 
Q 3144 4750 3555 4637 
Q 3966 4525 4313 4306 
L 4313 3634 
Q 3963 3931 3569 4081 
Q 3175 4231 2741 4231 
Q 1884 4231 1454 3753 
Q 1025 3275 1025 2328 
Q 1025 1384 1454 906 
Q 1884 428 2741 428 
Q 3075 428 3337 486 
Q 3600 544 3809 666 
z
" id="DejaVuSans-47" transform="scale(0.015625)"/>
       <path d="M 603 4863 
L 1178 4863 
L 1178 0 
L 603 0 
L 603 4863 
z
" id="DejaVuSans-6c" transform="scale(0.015625)"/>
       <path d="M 1959 3097 
Q 1497 3097 1228 2736 
Q 959 2375 959 1747 
Q 959 1119 1226 758 
Q 1494 397 1959 397 
Q 2419 397 2687 759 
Q 2956 1122 2956 1747 
Q 2956 2369 2687 2733 
Q 2419 3097 1959 3097 
z
M 1959 3584 
Q 2709 3584 3137 3096 
Q 3566 2609 3566 1747 
Q 3566 888 3137 398 
Q 2709 -91 1959 -91 
Q 1206 -91 779 398 
Q 353 888 353 1747 
Q 353 2609 779 3096 
Q 1206 3584 1959 3584 
z
" id="DejaVuSans-6f" transform="scale(0.015625)"/>
       <path d="M 3116 1747 
Q 3116 2381 2855 2742 
Q 2594 3103 2138 3103 
Q 1681 3103 1420 2742 
Q 1159 2381 1159 1747 
Q 1159 1113 1420 752 
Q 1681 391 2138 391 
Q 2594 391 2855 752 
Q 3116 1113 3116 1747 
z
M 1159 2969 
Q 1341 3281 1617 3432 
Q 1894 3584 2278 3584 
Q 2916 3584 3314 3078 
Q 3713 2572 3713 1747 
Q 3713 922 3314 415 
Q 2916 -91 2278 -91 
Q 1894 -91 1617 61 
Q 1341 213 1159 525 
L 1159 0 
L 581 0 
L 581 4863 
L 1159 4863 
L 1159 2969 
z
" id="DejaVuSans-62" transform="scale(0.015625)"/>
       <path d="M 2194 1759 
Q 1497 1759 1228 1600 
Q 959 1441 959 1056 
Q 959 750 1161 570 
Q 1363 391 1709 391 
Q 2188 391 2477 730 
Q 2766 1069 2766 1631 
L 2766 1759 
L 2194 1759 
z
M 3341 1997 
L 3341 0 
L 2766 0 
L 2766 531 
Q 2569 213 2275 61 
Q 1981 -91 1556 -91 
Q 1019 -91 701 211 
Q 384 513 384 1019 
Q 384 1609 779 1909 
Q 1175 2209 1959 2209 
L 2766 2209 
L 2766 2266 
Q 2766 2663 2505 2880 
Q 2244 3097 1772 3097 
Q 1472 3097 1187 3025 
Q 903 2953 641 2809 
L 641 3341 
Q 956 3463 1253 3523 
Q 1550 3584 1831 3584 
Q 2591 3584 2966 3190 
Q 3341 2797 3341 1997 
z
" id="DejaVuSans-61" transform="scale(0.015625)"/>
       <path id="DejaVuSans-20" transform="scale(0.015625)"/>
       <path d="M 4122 4306 
L 4122 3641 
Q 3803 3938 3442 4084 
Q 3081 4231 2675 4231 
Q 1875 4231 1450 3742 
Q 1025 3253 1025 2328 
Q 1025 1406 1450 917 
Q 1875 428 2675 428 
Q 3081 428 3442 575 
Q 3803 722 4122 1019 
L 4122 359 
Q 3791 134 3420 21 
Q 3050 -91 2638 -91 
Q 1578 -91 968 557 
Q 359 1206 359 2328 
Q 359 3453 968 4101 
Q 1578 4750 2638 4750 
Q 3056 4750 3426 4639 
Q 3797 4528 4122 4306 
z
" id="DejaVuSans-43" transform="scale(0.015625)"/>
       <path d="M 3328 2828 
Q 3544 3216 3844 3400 
Q 4144 3584 4550 3584 
Q 5097 3584 5394 3201 
Q 5691 2819 5691 2113 
L 5691 0 
L 5113 0 
L 5113 2094 
Q 5113 2597 4934 2840 
Q 4756 3084 4391 3084 
Q 3944 3084 3684 2787 
Q 3425 2491 3425 1978 
L 3425 0 
L 2847 0 
L 2847 2094 
Q 2847 2600 2669 2842 
Q 2491 3084 2119 3084 
Q 1678 3084 1418 2786 
Q 1159 2488 1159 1978 
L 1159 0 
L 581 0 
L 581 3500 
L 1159 3500 
L 1159 2956 
Q 1356 3278 1631 3431 
Q 1906 3584 2284 3584 
Q 2666 3584 2933 3390 
Q 3200 3197 3328 2828 
z
" id="DejaVuSans-6d" transform="scale(0.015625)"/>
       <path d="M 544 1381 
L 544 3500 
L 1119 3500 
L 1119 1403 
Q 1119 906 1312 657 
Q 1506 409 1894 409 
Q 2359 409 2629 706 
Q 2900 1003 2900 1516 
L 2900 3500 
L 3475 3500 
L 3475 0 
L 2900 0 
L 2900 538 
Q 2691 219 2414 64 
Q 2138 -91 1772 -91 
Q 1169 -91 856 284 
Q 544 659 544 1381 
z
M 1991 3584 
L 1991 3584 
z
" id="DejaVuSans-75" transform="scale(0.015625)"/>
       <path d="M 3513 2113 
L 3513 0 
L 2938 0 
L 2938 2094 
Q 2938 2591 2744 2837 
Q 2550 3084 2163 3084 
Q 1697 3084 1428 2787 
Q 1159 2491 1159 1978 
L 1159 0 
L 581 0 
L 581 3500 
L 1159 3500 
L 1159 2956 
Q 1366 3272 1645 3428 
Q 1925 3584 2291 3584 
Q 2894 3584 3203 3211 
Q 3513 2838 3513 2113 
z
" id="DejaVuSans-6e" transform="scale(0.015625)"/>
       <path d="M 603 3500 
L 1178 3500 
L 1178 0 
L 603 0 
L 603 3500 
z
M 603 4863 
L 1178 4863 
L 1178 4134 
L 603 4134 
L 603 4863 
z
" id="DejaVuSans-69" transform="scale(0.015625)"/>
       <path d="M 3122 3366 
L 3122 2828 
Q 2878 2963 2633 3030 
Q 2388 3097 2138 3097 
Q 1578 3097 1268 2742 
Q 959 2388 959 1747 
Q 959 1106 1268 751 
Q 1578 397 2138 397 
Q 2388 397 2633 464 
Q 2878 531 3122 666 
L 3122 134 
Q 2881 22 2623 -34 
Q 2366 -91 2075 -91 
Q 1284 -91 818 406 
Q 353 903 353 1747 
Q 353 2603 823 3093 
Q 1294 3584 2113 3584 
Q 2378 3584 2631 3529 
Q 2884 3475 3122 3366 
z
" id="DejaVuSans-63" transform="scale(0.015625)"/>
       <path d="M 1172 4494 
L 1172 3500 
L 2356 3500 
L 2356 3053 
L 1172 3053 
L 1172 1153 
Q 1172 725 1289 603 
Q 1406 481 1766 481 
L 2356 481 
L 2356 0 
L 1766 0 
Q 1100 0 847 248 
Q 594 497 594 1153 
L 594 3053 
L 172 3053 
L 172 3500 
L 594 3500 
L 594 4494 
L 1172 4494 
z
" id="DejaVuSans-74" transform="scale(0.015625)"/>
       <path d="M 2841 2188 
Q 3044 2119 3236 1894 
Q 3428 1669 3622 1275 
L 4263 0 
L 3584 0 
L 2988 1197 
Q 2756 1666 2539 1819 
Q 2322 1972 1947 1972 
L 1259 1972 
L 1259 0 
L 628 0 
L 628 4666 
L 2053 4666 
Q 2853 4666 3247 4331 
Q 3641 3997 3641 3322 
Q 3641 2881 3436 2590 
Q 3231 2300 2841 2188 
z
M 1259 4147 
L 1259 2491 
L 2053 2491 
Q 2509 2491 2742 2702 
Q 2975 2913 2975 3322 
Q 2975 3731 2742 3939 
Q 2509 4147 2053 4147 
L 1259 4147 
z
" id="DejaVuSans-52" transform="scale(0.015625)"/>
       <path d="M 2906 2969 
L 2906 4863 
L 3481 4863 
L 3481 0 
L 2906 0 
L 2906 525 
Q 2725 213 2448 61 
Q 2172 -91 1784 -91 
Q 1150 -91 751 415 
Q 353 922 353 1747 
Q 353 2572 751 3078 
Q 1150 3584 1784 3584 
Q 2172 3584 2448 3432 
Q 2725 3281 2906 2969 
z
M 947 1747 
Q 947 1113 1208 752 
Q 1469 391 1925 391 
Q 2381 391 2643 752 
Q 2906 1113 2906 1747 
Q 2906 2381 2643 2742 
Q 2381 3103 1925 3103 
Q 1469 3103 1208 2742 
Q 947 2381 947 1747 
z
" id="DejaVuSans-64" transform="scale(0.015625)"/>
       <path d="M 2834 3397 
L 2834 2853 
Q 2591 2978 2328 3040 
Q 2066 3103 1784 3103 
Q 1356 3103 1142 2972 
Q 928 2841 928 2578 
Q 928 2378 1081 2264 
Q 1234 2150 1697 2047 
L 1894 2003 
Q 2506 1872 2764 1633 
Q 3022 1394 3022 966 
Q 3022 478 2636 193 
Q 2250 -91 1575 -91 
Q 1294 -91 989 -36 
Q 684 19 347 128 
L 347 722 
Q 666 556 975 473 
Q 1284 391 1588 391 
Q 1994 391 2212 530 
Q 2431 669 2431 922 
Q 2431 1156 2273 1281 
Q 2116 1406 1581 1522 
L 1381 1569 
Q 847 1681 609 1914 
Q 372 2147 372 2553 
Q 372 3047 722 3315 
Q 1072 3584 1716 3584 
Q 2034 3584 2315 3537 
Q 2597 3491 2834 3397 
z
" id="DejaVuSans-73" transform="scale(0.015625)"/>
      </defs>
      <use xlink:href="#DejaVuSans-47"/>
      <use x="77.490234" xlink:href="#DejaVuSans-6c"/>
      <use x="105.273438" xlink:href="#DejaVuSans-6f"/>
      <use x="166.455078" xlink:href="#DejaVuSans-62"/>
      <use x="229.931641" xlink:href="#DejaVuSans-61"/>
      <use x="291.210938" xlink:href="#DejaVuSans-6c"/>
      <use x="318.994141" xlink:href="#DejaVuSans-20"/>
      <use x="350.78125" xlink:href="#DejaVuSans-43"/>
      <use x="420.605469" xlink:href="#DejaVuSans-6f"/>
      <use x="481.787109" xlink:href="#DejaVuSans-6d"/>
      <use x="579.199219" xlink:href="#DejaVuSans-6d"/>
      <use x="676.611328" xlink:href="#DejaVuSans-75"/>
      <use x="739.990234" xlink:href="#DejaVuSans-6e"/>
      <use x="803.369141" xlink:href="#DejaVuSans-69"/>
      <use x="831.152344" xlink:href="#DejaVuSans-63"/>
      <use x="886.132812" xlink:href="#DejaVuSans-61"/>
      <use x="947.412109" xlink:href="#DejaVuSans-74"/>
      <use x="986.621094" xlink:href="#DejaVuSans-69"/>
      <use x="1014.404297" xlink:href="#DejaVuSans-6f"/>
      <use x="1075.585938" xlink:href="#DejaVuSans-6e"/>
      <use x="1138.964844" xlink:href="#DejaVuSans-20"/>
      <use x="1170.751953" xlink:href="#DejaVuSans-52"/>
      <use x="1235.734375" xlink:href="#DejaVuSans-6f"/>
      <use x="1296.916016" xlink:href="#DejaVuSans-75"/>
      <use x="1360.294922" xlink:href="#DejaVuSans-6e"/>
      <use x="1423.673828" xlink:href="#DejaVuSans-64"/>
      <use x="1487.150391" xlink:href="#DejaVuSans-73"/>
     </g>
    </g>
   </g>
   <g id="matplotlib.axis_2">
    <g id="ytick_1">
     <g id="line2d_13">
      <path clip-path="url(#p38a76a1f6a)" d="M 44.57 281.170959 
L 366.25 281.170959 
" style="fill:none;stroke:#b0b0b0;stroke-linecap:square;stroke-width:0.8;"/>
     </g>
     <g id="line2d_14">
      <defs>
       <path d="M 0 0 
L -3.5 0 
" id="m9b81c6a386" style="stroke:#000000;stroke-width:0.8;"/>
      </defs>
      <g>
       <use style="stroke:#000000;stroke-width:0.8;" x="44.57" xlink:href="#m9b81c6a386" y="281.170959"/>
      </g>
     </g>
     <g id="text_8">
      <!-- 10 -->
      <g transform="translate(24.845 284.970178)scale(0.1 -0.1)">
       <use xlink:href="#DejaVuSans-31"/>
       <use x="63.623047" xlink:href="#DejaVuSans-30"/>
      </g>
     </g>
    </g>
    <g id="ytick_2">
     <g id="line2d_15">
      <path clip-path="url(#p38a76a1f6a)" d="M 44.57 245.696139 
L 366.25 245.696139 
" style="fill:none;stroke:#b0b0b0;stroke-linecap:square;stroke-width:0.8;"/>
     </g>
     <g id="line2d_16">
      <g>
       <use style="stroke:#000000;stroke-width:0.8;" x="44.57" xlink:href="#m9b81c6a386" y="245.696139"/>
      </g>
     </g>
     <g id="text_9">
      <!-- 15 -->
      <g transform="translate(24.845 249.495358)scale(0.1 -0.1)">
       <use xlink:href="#DejaVuSans-31"/>
       <use x="63.623047" xlink:href="#DejaVuSans-35"/>
      </g>
     </g>
    </g>
    <g id="ytick_3">
     <g id="line2d_17">
      <path clip-path="url(#p38a76a1f6a)" d="M 44.57 210.221318 
L 366.25 210.221318 
" style="fill:none;stroke:#b0b0b0;stroke-linecap:square;stroke-width:0.8;"/>
     </g>
     <g id="line2d_18">
      <g>
       <use style="stroke:#000000;stroke-width:0.8;" x="44.57" xlink:href="#m9b81c6a386" y="210.221318"/>
      </g>
     </g>
     <g id="text_10">
      <!-- 20 -->
      <g transform="translate(24.845 214.020537)scale(0.1 -0.1)">
       <use xlink:href="#DejaVuSans-32"/>
       <use x="63.623047" xlink:href="#DejaVuSans-30"/>
      </g>
     </g>
    </g>
    <g id="ytick_4">
     <g id="line2d_19">
      <path clip-path="url(#p38a76a1f6a)" d="M 44.57 174.746498 
L 366.25 174.746498 
" style="fill:none;stroke:#b0b0b0;stroke-linecap:square;stroke-width:0.8;"/>
     </g>
     <g id="line2d_20">
      <g>
       <use style="stroke:#000000;stroke-width:0.8;" x="44.57" xlink:href="#m9b81c6a386" y="174.746498"/>
      </g>
     </g>
     <g id="text_11">
      <!-- 25 -->
      <g transform="translate(24.845 178.545717)scale(0.1 -0.1)">
       <use xlink:href="#DejaVuSans-32"/>
       <use x="63.623047" xlink:href="#DejaVuSans-35"/>
      </g>
     </g>
    </g>
    <g id="ytick_5">
     <g id="line2d_21">
      <path clip-path="url(#p38a76a1f6a)" d="M 44.57 139.271678 
L 366.25 139.271678 
" style="fill:none;stroke:#b0b0b0;stroke-linecap:square;stroke-width:0.8;"/>
     </g>
     <g id="line2d_22">
      <g>
       <use style="stroke:#000000;stroke-width:0.8;" x="44.57" xlink:href="#m9b81c6a386" y="139.271678"/>
      </g>
     </g>
     <g id="text_12">
      <!-- 30 -->
      <g transform="translate(24.845 143.070897)scale(0.1 -0.1)">
       <use xlink:href="#DejaVuSans-33"/>
       <use x="63.623047" xlink:href="#DejaVuSans-30"/>
      </g>
     </g>
    </g>
    <g id="ytick_6">
     <g id="line2d_23">
      <path clip-path="url(#p38a76a1f6a)" d="M 44.57 103.796858 
L 366.25 103.796858 
" style="fill:none;stroke:#b0b0b0;stroke-linecap:square;stroke-width:0.8;"/>
     </g>
     <g id="line2d_24">
      <g>
       <use style="stroke:#000000;stroke-width:0.8;" x="44.57" xlink:href="#m9b81c6a386" y="103.796858"/>
      </g>
     </g>
     <g id="text_13">
      <!-- 35 -->
      <g transform="translate(24.845 107.596076)scale(0.1 -0.1)">
       <use xlink:href="#DejaVuSans-33"/>
       <use x="63.623047" xlink:href="#DejaVuSans-35"/>
      </g>
     </g>
    </g>
    <g id="ytick_7">
     <g id="line2d_25">
      <path clip-path="url(#p38a76a1f6a)" d="M 44.57 68.322037 
L 366.25 68.322037 
" style="fill:none;stroke:#b0b0b0;stroke-linecap:square;stroke-width:0.8;"/>
     </g>
     <g id="line2d_26">
      <g>
       <use style="stroke:#000000;stroke-width:0.8;" x="44.57" xlink:href="#m9b81c6a386" y="68.322037"/>
      </g>
     </g>
     <g id="text_14">
      <!-- 40 -->
      <g transform="translate(24.845 72.121256)scale(0.1 -0.1)">
       <use xlink:href="#DejaVuSans-34"/>
       <use x="63.623047" xlink:href="#DejaVuSans-30"/>
      </g>
     </g>
    </g>
    <g id="ytick_8">
     <g id="line2d_27">
      <path clip-path="url(#p38a76a1f6a)" d="M 44.57 32.847217 
L 366.25 32.847217 
" style="fill:none;stroke:#b0b0b0;stroke-linecap:square;stroke-width:0.8;"/>
     </g>
     <g id="line2d_28">
      <g>
       <use style="stroke:#000000;stroke-width:0.8;" x="44.57" xlink:href="#m9b81c6a386" y="32.847217"/>
      </g>
     </g>
     <g id="text_15">
      <!-- 45 -->
      <g transform="translate(24.845 36.646436)scale(0.1 -0.1)">
       <use xlink:href="#DejaVuSans-34"/>
       <use x="63.623047" xlink:href="#DejaVuSans-35"/>
      </g>
     </g>
    </g>
    <g id="text_16">
     <!-- Test Accuracy -->
     <g transform="translate(18.765313 199.5225)rotate(-90)scale(0.1 -0.1)">
      <defs>
       <path d="M -19 4666 
L 3928 4666 
L 3928 4134 
L 2272 4134 
L 2272 0 
L 1638 0 
L 1638 4134 
L -19 4134 
L -19 4666 
z
" id="DejaVuSans-54" transform="scale(0.015625)"/>
       <path d="M 3597 1894 
L 3597 1613 
L 953 1613 
Q 991 1019 1311 708 
Q 1631 397 2203 397 
Q 2534 397 2845 478 
Q 3156 559 3463 722 
L 3463 178 
Q 3153 47 2828 -22 
Q 2503 -91 2169 -91 
Q 1331 -91 842 396 
Q 353 884 353 1716 
Q 353 2575 817 3079 
Q 1281 3584 2069 3584 
Q 2775 3584 3186 3129 
Q 3597 2675 3597 1894 
z
M 3022 2063 
Q 3016 2534 2758 2815 
Q 2500 3097 2075 3097 
Q 1594 3097 1305 2825 
Q 1016 2553 972 2059 
L 3022 2063 
z
" id="DejaVuSans-65" transform="scale(0.015625)"/>
       <path d="M 2188 4044 
L 1331 1722 
L 3047 1722 
L 2188 4044 
z
M 1831 4666 
L 2547 4666 
L 4325 0 
L 3669 0 
L 3244 1197 
L 1141 1197 
L 716 0 
L 50 0 
L 1831 4666 
z
" id="DejaVuSans-41" transform="scale(0.015625)"/>
       <path d="M 2631 2963 
Q 2534 3019 2420 3045 
Q 2306 3072 2169 3072 
Q 1681 3072 1420 2755 
Q 1159 2438 1159 1844 
L 1159 0 
L 581 0 
L 581 3500 
L 1159 3500 
L 1159 2956 
Q 1341 3275 1631 3429 
Q 1922 3584 2338 3584 
Q 2397 3584 2469 3576 
Q 2541 3569 2628 3553 
L 2631 2963 
z
" id="DejaVuSans-72" transform="scale(0.015625)"/>
       <path d="M 2059 -325 
Q 1816 -950 1584 -1140 
Q 1353 -1331 966 -1331 
L 506 -1331 
L 506 -850 
L 844 -850 
Q 1081 -850 1212 -737 
Q 1344 -625 1503 -206 
L 1606 56 
L 191 3500 
L 800 3500 
L 1894 763 
L 2988 3500 
L 3597 3500 
L 2059 -325 
z
" id="DejaVuSans-79" transform="scale(0.015625)"/>
      </defs>
      <use xlink:href="#DejaVuSans-54"/>
      <use x="44.083984" xlink:href="#DejaVuSans-65"/>
      <use x="105.607422" xlink:href="#DejaVuSans-73"/>
      <use x="157.707031" xlink:href="#DejaVuSans-74"/>
      <use x="196.916016" xlink:href="#DejaVuSans-20"/>
      <use x="228.703125" xlink:href="#DejaVuSans-41"/>
      <use x="295.361328" xlink:href="#DejaVuSans-63"/>
      <use x="350.341797" xlink:href="#DejaVuSans-63"/>
      <use x="405.322266" xlink:href="#DejaVuSans-75"/>
      <use x="468.701172" xlink:href="#DejaVuSans-72"/>
      <use x="509.814453" xlink:href="#DejaVuSans-61"/>
      <use x="571.09375" xlink:href="#DejaVuSans-63"/>
      <use x="626.074219" xlink:href="#DejaVuSans-79"/>
     </g>
    </g>
   </g>
   <g id="line2d_29">
    <path clip-path="url(#p38a76a1f6a)" d="M 59.191818 278.656288 
L 65.159907 266.442173 
L 71.127996 240.576987 
L 77.096085 249.019097 
L 83.064174 250.81529 
L 89.032263 228.003633 
L 95.000353 216.148757 
L 100.968442 197.288726 
L 106.936531 196.21101 
L 112.90462 218.663428 
L 118.872709 180.943366 
L 124.840798 206.449312 
L 130.808887 189.026236 
L 136.776976 159.748283 
L 142.745065 174.656688 
L 148.713154 183.278417 
L 154.681243 174.477069 
L 160.649332 180.224888 
L 166.617421 164.957244 
L 172.58551 174.836308 
L 178.553599 178.428695 
L 184.521688 156.515135 
L 190.489777 161.544476 
L 196.457866 151.306174 
L 202.425955 144.301019 
L 208.394045 149.6896 
L 214.362134 137.295865 
L 220.330223 151.665413 
L 226.298312 158.311328 
L 232.266401 145.917594 
L 238.23449 136.577388 
L 244.202579 116.280402 
L 250.170668 133.883098 
L 256.138757 138.193962 
L 262.106846 109.275248 
L 268.074935 104.425525 
L 274.043024 136.397768 
L 280.011113 129.572233 
L 285.979202 106.042099 
L 291.947291 117.537737 
L 297.91538 107.838293 
L 303.883469 116.280402 
L 309.851558 119.333931 
L 315.819647 103.347809 
L 321.787737 103.886667 
L 327.755826 73.17176 
L 333.723915 114.484208 
L 339.692004 85.026636 
L 345.660093 79.278817 
L 351.628182 77.841862 
" style="fill:none;stroke:#1f77b4;stroke-linecap:square;stroke-width:1.5;"/>
   </g>
   <g id="line2d_30">
    <path clip-path="url(#p38a76a1f6a)" d="M 59.191818 268.956844 
L 65.159907 255.126154 
L 71.127996 263.568263 
L 77.096085 251.713387 
L 83.064174 265.364457 
L 89.032263 255.485393 
L 95.000353 239.678891 
L 100.968442 235.188407 
L 106.936531 216.507995 
L 112.90462 252.072625 
L 118.872709 217.406092 
L 124.840798 219.561524 
L 130.808887 231.955259 
L 136.776976 203.575403 
L 142.745065 220.63924 
L 148.713154 205.910454 
L 154.681243 199.803397 
L 160.649332 230.159066 
L 166.617421 213.634086 
L 172.58551 209.323222 
L 178.553599 205.191977 
L 184.521688 217.046854 
L 190.489777 191.540907 
L 196.457866 208.963983 
L 202.425955 195.492532 
L 208.394045 205.910454 
L 214.362134 189.205855 
L 220.330223 217.046854 
L 226.298312 219.741144 
L 232.266401 177.171359 
L 238.23449 183.278417 
L 244.202579 183.637656 
L 250.170668 180.404507 
L 256.138757 184.356133 
L 262.106846 168.549631 
L 268.074935 143.941781 
L 274.043024 185.972707 
L 280.011113 172.321637 
L 285.979202 149.50998 
L 291.947291 142.504826 
L 297.91538 130.829569 
L 303.883469 158.850186 
L 309.851558 180.584127 
L 315.819647 188.307759 
L 321.787737 171.243921 
L 327.755826 129.572233 
L 333.723915 148.073026 
L 339.692004 144.1214 
L 345.660093 164.777625 
L 351.628182 154.000464 
" style="fill:none;stroke:#ff7f0e;stroke-linecap:square;stroke-width:1.5;"/>
   </g>
   <g id="line2d_31">
    <path clip-path="url(#p38a76a1f6a)" d="M 59.191818 276.680475 
L 65.159907 266.442173 
L 71.127996 267.16065 
L 77.096085 255.485393 
L 83.064174 241.475084 
L 89.032263 236.445743 
L 95.000353 215.969137 
L 100.968442 234.110691 
L 106.936531 218.304189 
L 112.90462 220.998479 
L 118.872709 195.492532 
L 124.840798 201.779209 
L 130.808887 191.181668 
L 136.776976 187.589281 
L 142.745065 188.666997 
L 148.713154 197.468345 
L 154.681243 163.161051 
L 160.649332 150.228458 
L 166.617421 177.350979 
L 172.58551 180.224888 
L 178.553599 148.432264 
L 184.521688 173.399353 
L 190.489777 172.680876 
L 196.457866 150.228458 
L 202.425955 152.38389 
L 208.394045 157.95209 
L 214.362134 128.135279 
L 220.330223 127.057563 
L 226.298312 146.097213 
L 232.266401 187.768901 
L 238.23449 134.062717 
L 244.202579 131.727665 
L 250.170668 130.649949 
L 256.138757 123.465176 
L 262.106846 130.290711 
L 268.074935 151.306174 
L 274.043024 127.416801 
L 280.011113 127.77604 
L 285.979202 111.789918 
L 291.947291 133.703478 
L 297.91538 119.872789 
L 303.883469 138.373581 
L 309.851558 119.51355 
L 315.819647 123.644795 
L 321.787737 108.73639 
L 327.755826 120.950505 
L 333.723915 122.926318 
L 339.692004 105.323622 
L 345.660093 99.575803 
L 351.628182 111.43068 
" style="fill:none;stroke:#2ca02c;stroke-linecap:square;stroke-width:1.5;"/>
   </g>
   <g id="line2d_32">
    <path clip-path="url(#p38a76a1f6a)" d="M 59.191818 281.170959 
L 65.159907 281.156769 
L 71.127996 273.806386 
L 77.096085 263.958576 
L 83.064174 246.717814 
L 89.032263 238.175477 
L 95.000353 222.978064 
L 100.968442 217.231143 
L 106.936531 202.175629 
L 112.90462 196.371949 
L 118.872709 187.971511 
L 124.840798 182.863137 
L 130.808887 177.215546 
L 136.776976 172.958567 
L 142.745065 169.680694 
L 148.713154 174.860018 
L 154.681243 168.758349 
L 160.649332 161.989753 
L 166.617421 160.939698 
L 172.58551 162.174222 
L 178.553599 156.484061 
L 184.521688 155.192777 
L 190.489777 146.77815 
L 196.457866 148.523511 
L 202.425955 153.035908 
L 208.394045 144.096253 
L 214.362134 139.484527 
L 220.330223 144.890889 
L 226.298312 136.518832 
L 232.266401 136.192463 
L 238.23449 127.579177 
L 244.202579 128.231914 
L 250.170668 130.459733 
L 256.138757 124.897281 
L 262.106846 126.373033 
L 268.074935 129.381298 
L 274.043024 118.071925 
L 280.011113 112.622993 
L 285.979202 112.339194 
L 291.947291 115.773157 
L 297.91538 115.659637 
L 303.883469 108.366014 
L 309.851558 106.081436 
L 315.819647 110.650593 
L 321.787737 109.742437 
L 327.755826 102.675853 
L 333.723915 99.852058 
L 339.692004 98.333735 
L 345.660093 96.474855 
L 351.628182 103.484679 
" style="fill:none;stroke:#d62728;stroke-linecap:square;stroke-width:1.5;"/>
   </g>
   <g id="patch_3">
    <path d="M 44.57 303.64 
L 44.57 26.88 
" style="fill:none;stroke:#000000;stroke-linecap:square;stroke-linejoin:miter;stroke-width:0.8;"/>
   </g>
   <g id="patch_4">
    <path d="M 366.25 303.64 
L 366.25 26.88 
" style="fill:none;stroke:#000000;stroke-linecap:square;stroke-linejoin:miter;stroke-width:0.8;"/>
   </g>
   <g id="patch_5">
    <path d="M 44.57 303.64 
L 366.25 303.64 
" style="fill:none;stroke:#000000;stroke-linecap:square;stroke-linejoin:miter;stroke-width:0.8;"/>
   </g>
   <g id="patch_6">
    <path d="M 44.57 26.88 
L 366.25 26.88 
" style="fill:none;stroke:#000000;stroke-linecap:square;stroke-linejoin:miter;stroke-width:0.8;"/>
   </g>
   <g id="text_17">
    <!-- CIFAR Local Rounds 01 -->
    <g transform="translate(137.255625 20.88)scale(0.12 -0.12)">
     <defs>
      <path d="M 628 4666 
L 1259 4666 
L 1259 0 
L 628 0 
L 628 4666 
z
" id="DejaVuSans-49" transform="scale(0.015625)"/>
      <path d="M 628 4666 
L 3309 4666 
L 3309 4134 
L 1259 4134 
L 1259 2759 
L 3109 2759 
L 3109 2228 
L 1259 2228 
L 1259 0 
L 628 0 
L 628 4666 
z
" id="DejaVuSans-46" transform="scale(0.015625)"/>
      <path d="M 628 4666 
L 1259 4666 
L 1259 531 
L 3531 531 
L 3531 0 
L 628 0 
L 628 4666 
z
" id="DejaVuSans-4c" transform="scale(0.015625)"/>
     </defs>
     <use xlink:href="#DejaVuSans-43"/>
     <use x="69.824219" xlink:href="#DejaVuSans-49"/>
     <use x="99.316406" xlink:href="#DejaVuSans-46"/>
     <use x="147.710938" xlink:href="#DejaVuSans-41"/>
     <use x="216.119141" xlink:href="#DejaVuSans-52"/>
     <use x="285.601562" xlink:href="#DejaVuSans-20"/>
     <use x="317.388672" xlink:href="#DejaVuSans-4c"/>
     <use x="371.351562" xlink:href="#DejaVuSans-6f"/>
     <use x="432.533203" xlink:href="#DejaVuSans-63"/>
     <use x="487.513672" xlink:href="#DejaVuSans-61"/>
     <use x="548.792969" xlink:href="#DejaVuSans-6c"/>
     <use x="576.576172" xlink:href="#DejaVuSans-20"/>
     <use x="608.363281" xlink:href="#DejaVuSans-52"/>
     <use x="673.345703" xlink:href="#DejaVuSans-6f"/>
     <use x="734.527344" xlink:href="#DejaVuSans-75"/>
     <use x="797.90625" xlink:href="#DejaVuSans-6e"/>
     <use x="861.285156" xlink:href="#DejaVuSans-64"/>
     <use x="924.761719" xlink:href="#DejaVuSans-73"/>
     <use x="976.861328" xlink:href="#DejaVuSans-20"/>
     <use x="1008.648438" xlink:href="#DejaVuSans-30"/>
     <use x="1072.271484" xlink:href="#DejaVuSans-31"/>
    </g>
   </g>
   <g id="legend_1">
    <g id="patch_7">
     <path d="M 373.25 196.11625 
L 447.821875 196.11625 
Q 449.821875 196.11625 449.821875 194.11625 
L 449.821875 136.40375 
Q 449.821875 134.40375 447.821875 134.40375 
L 373.25 134.40375 
Q 371.25 134.40375 371.25 136.40375 
L 371.25 194.11625 
Q 371.25 196.11625 373.25 196.11625 
z
" style="fill:#ffffff;opacity:0.8;stroke:#cccccc;stroke-linejoin:miter;"/>
    </g>
    <g id="line2d_33">
     <path d="M 375.25 142.502187 
L 395.25 142.502187 
" style="fill:none;stroke:#1f77b4;stroke-linecap:square;stroke-width:1.5;"/>
    </g>
    <g id="line2d_34"/>
    <g id="text_18">
     <!-- FedAvg -->
     <g transform="translate(403.25 146.002187)scale(0.1 -0.1)">
      <defs>
       <path d="M 191 3500 
L 800 3500 
L 1894 563 
L 2988 3500 
L 3597 3500 
L 2284 0 
L 1503 0 
L 191 3500 
z
" id="DejaVuSans-76" transform="scale(0.015625)"/>
       <path d="M 2906 1791 
Q 2906 2416 2648 2759 
Q 2391 3103 1925 3103 
Q 1463 3103 1205 2759 
Q 947 2416 947 1791 
Q 947 1169 1205 825 
Q 1463 481 1925 481 
Q 2391 481 2648 825 
Q 2906 1169 2906 1791 
z
M 3481 434 
Q 3481 -459 3084 -895 
Q 2688 -1331 1869 -1331 
Q 1566 -1331 1297 -1286 
Q 1028 -1241 775 -1147 
L 775 -588 
Q 1028 -725 1275 -790 
Q 1522 -856 1778 -856 
Q 2344 -856 2625 -561 
Q 2906 -266 2906 331 
L 2906 616 
Q 2728 306 2450 153 
Q 2172 0 1784 0 
Q 1141 0 747 490 
Q 353 981 353 1791 
Q 353 2603 747 3093 
Q 1141 3584 1784 3584 
Q 2172 3584 2450 3431 
Q 2728 3278 2906 2969 
L 2906 3500 
L 3481 3500 
L 3481 434 
z
" id="DejaVuSans-67" transform="scale(0.015625)"/>
      </defs>
      <use xlink:href="#DejaVuSans-46"/>
      <use x="52.019531" xlink:href="#DejaVuSans-65"/>
      <use x="113.542969" xlink:href="#DejaVuSans-64"/>
      <use x="177.019531" xlink:href="#DejaVuSans-41"/>
      <use x="239.552734" xlink:href="#DejaVuSans-76"/>
      <use x="298.732422" xlink:href="#DejaVuSans-67"/>
     </g>
    </g>
    <g id="line2d_35">
     <path d="M 375.25 157.180312 
L 395.25 157.180312 
" style="fill:none;stroke:#ff7f0e;stroke-linecap:square;stroke-width:1.5;"/>
    </g>
    <g id="line2d_36"/>
    <g id="text_19">
     <!-- FedMed -->
     <g transform="translate(403.25 160.680312)scale(0.1 -0.1)">
      <defs>
       <path d="M 628 4666 
L 1569 4666 
L 2759 1491 
L 3956 4666 
L 4897 4666 
L 4897 0 
L 4281 0 
L 4281 4097 
L 3078 897 
L 2444 897 
L 1241 4097 
L 1241 0 
L 628 0 
L 628 4666 
z
" id="DejaVuSans-4d" transform="scale(0.015625)"/>
      </defs>
      <use xlink:href="#DejaVuSans-46"/>
      <use x="52.019531" xlink:href="#DejaVuSans-65"/>
      <use x="113.542969" xlink:href="#DejaVuSans-64"/>
      <use x="177.019531" xlink:href="#DejaVuSans-4d"/>
      <use x="263.298828" xlink:href="#DejaVuSans-65"/>
      <use x="324.822266" xlink:href="#DejaVuSans-64"/>
     </g>
    </g>
    <g id="line2d_37">
     <path d="M 375.25 171.858437 
L 395.25 171.858437 
" style="fill:none;stroke:#2ca02c;stroke-linecap:square;stroke-width:1.5;"/>
    </g>
    <g id="line2d_38"/>
    <g id="text_20">
     <!-- FedProx -->
     <g transform="translate(403.25 175.358437)scale(0.1 -0.1)">
      <defs>
       <path d="M 1259 4147 
L 1259 2394 
L 2053 2394 
Q 2494 2394 2734 2622 
Q 2975 2850 2975 3272 
Q 2975 3691 2734 3919 
Q 2494 4147 2053 4147 
L 1259 4147 
z
M 628 4666 
L 2053 4666 
Q 2838 4666 3239 4311 
Q 3641 3956 3641 3272 
Q 3641 2581 3239 2228 
Q 2838 1875 2053 1875 
L 1259 1875 
L 1259 0 
L 628 0 
L 628 4666 
z
" id="DejaVuSans-50" transform="scale(0.015625)"/>
       <path d="M 3513 3500 
L 2247 1797 
L 3578 0 
L 2900 0 
L 1881 1375 
L 863 0 
L 184 0 
L 1544 1831 
L 300 3500 
L 978 3500 
L 1906 2253 
L 2834 3500 
L 3513 3500 
z
" id="DejaVuSans-78" transform="scale(0.015625)"/>
      </defs>
      <use xlink:href="#DejaVuSans-46"/>
      <use x="52.019531" xlink:href="#DejaVuSans-65"/>
      <use x="113.542969" xlink:href="#DejaVuSans-64"/>
      <use x="177.019531" xlink:href="#DejaVuSans-50"/>
      <use x="235.572266" xlink:href="#DejaVuSans-72"/>
      <use x="274.435547" xlink:href="#DejaVuSans-6f"/>
      <use x="332.492188" xlink:href="#DejaVuSans-78"/>
     </g>
    </g>
    <g id="line2d_39">
     <path d="M 375.25 186.536563 
L 395.25 186.536563 
" style="fill:none;stroke:#d62728;stroke-linecap:square;stroke-width:1.5;"/>
    </g>
    <g id="line2d_40"/>
    <g id="text_21">
     <!-- qFedAvg -->
     <g transform="translate(403.25 190.036563)scale(0.1 -0.1)">
      <defs>
       <path d="M 947 1747 
Q 947 1113 1208 752 
Q 1469 391 1925 391 
Q 2381 391 2643 752 
Q 2906 1113 2906 1747 
Q 2906 2381 2643 2742 
Q 2381 3103 1925 3103 
Q 1469 3103 1208 2742 
Q 947 2381 947 1747 
z
M 2906 525 
Q 2725 213 2448 61 
Q 2172 -91 1784 -91 
Q 1150 -91 751 415 
Q 353 922 353 1747 
Q 353 2572 751 3078 
Q 1150 3584 1784 3584 
Q 2172 3584 2448 3432 
Q 2725 3281 2906 2969 
L 2906 3500 
L 3481 3500 
L 3481 -1331 
L 2906 -1331 
L 2906 525 
z
" id="DejaVuSans-71" transform="scale(0.015625)"/>
      </defs>
      <use xlink:href="#DejaVuSans-71"/>
      <use x="63.476562" xlink:href="#DejaVuSans-46"/>
      <use x="115.496094" xlink:href="#DejaVuSans-65"/>
      <use x="177.019531" xlink:href="#DejaVuSans-64"/>
      <use x="240.496094" xlink:href="#DejaVuSans-41"/>
      <use x="303.029297" xlink:href="#DejaVuSans-76"/>
      <use x="362.208984" xlink:href="#DejaVuSans-67"/>
     </g>
    </g>
   </g>
  </g>
 </g>
 <defs>
  <clipPath id="p38a76a1f6a">
   <rect height="276.76" width="321.68" x="44.57" y="26.88"/>
  </clipPath>
 </defs>
</svg>
