<?xml version="1.0" encoding="utf-8" standalone="no"?>
<!DOCTYPE svg PUBLIC "-//W3C//DTD SVG 1.1//EN"
  "http://www.w3.org/Graphics/SVG/1.1/DTD/svg11.dtd">
<svg height="345.6pt" version="1.1" viewBox="0 0 460.8 345.6" width="460.8pt" xmlns="http://www.w3.org/2000/svg" xmlns:xlink="http://www.w3.org/1999/xlink">
 <metadata>
  <rdf:RDF xmlns:cc="http://creativecommons.org/ns#" xmlns:dc="http://purl.org/dc/elements/1.1/" xmlns:rdf="http://www.w3.org/1999/02/22-rdf-syntax-ns#">
   <cc:Work>
    <dc:type rdf:resource="http://purl.org/dc/dcmitype/StillImage"/>
    <dc:date>2021-05-07T12:06:45.865769</dc:date>
    <dc:format>image/svg+xml</dc:format>
    <dc:creator>
     <cc:Agent>
      <dc:title>Matplotlib v3.4.1, https://matplotlib.org/</dc:title>
     </cc:Agent>
    </dc:creator>
   </cc:Work>
  </rdf:RDF>
 </metadata>
 <defs>
  <style type="text/css">*{stroke-linecap:butt;stroke-linejoin:round;}</style>
 </defs>
 <g id="figure_1">
  <g id="patch_1">
   <path d="M 0 345.6 
L 460.8 345.6 
L 460.8 0 
L 0 0 
z
" style="fill:#ffffff;"/>
  </g>
  <g id="axes_1">
   <g id="patch_2">
    <path d="M 44.57 303.64 
L 450 303.64 
L 450 32.876829 
L 44.57 32.876829 
z
" style="fill:#ffffff;"/>
   </g>
   <g id="PolyCollection_1">
    <path clip-path="url(#pb0d16ae27f)" d="M 62.998636 283.457524 
L 62.998636 286.34045 
L 70.520529 286.295311 
L 78.042421 275.846441 
L 85.564314 248.449433 
L 93.086206 260.720942 
L 100.608098 251.589083 
L 108.129991 249.061203 
L 115.651883 238.628789 
L 123.173776 222.633225 
L 130.695668 220.969594 
L 138.21756 194.491472 
L 145.739453 216.59612 
L 153.261345 195.913259 
L 160.783237 192.129615 
L 168.30513 182.745038 
L 175.827022 179.584721 
L 183.348915 200.044743 
L 190.870807 162.272634 
L 198.392699 171.314082 
L 205.914592 162.412188 
L 213.436484 177.699071 
L 220.958377 158.813577 
L 228.480269 149.679776 
L 236.002161 155.468556 
L 243.524054 129.189123 
L 251.045946 152.289872 
L 258.567839 142.186327 
L 266.089731 154.941693 
L 273.611623 129.13778 
L 281.133516 136.302073 
L 288.655408 121.228306 
L 296.177301 123.097212 
L 303.699193 122.234036 
L 311.221085 103.687501 
L 318.742978 101.625123 
L 326.26487 102.816299 
L 333.786763 130.31239 
L 341.308655 108.538566 
L 348.830547 115.748412 
L 356.35244 90.850189 
L 363.874332 107.611267 
L 371.396224 108.002761 
L 378.918117 99.613903 
L 386.440009 100.277568 
L 393.961902 91.466962 
L 401.483794 72.256181 
L 409.005686 96.703337 
L 416.527579 95.78965 
L 424.049471 83.303224 
L 431.571364 88.245412 
L 431.571364 65.368854 
L 431.571364 65.368854 
L 424.049471 56.653571 
L 416.527579 76.096095 
L 409.005686 58.756533 
L 401.483794 45.184246 
L 393.961902 68.053236 
L 386.440009 85.265647 
L 378.918117 80.76162 
L 371.396224 80.30886 
L 363.874332 77.378267 
L 356.35244 70.146493 
L 348.830547 71.640407 
L 341.308655 66.484706 
L 333.786763 87.898016 
L 326.26487 80.696752 
L 318.742978 79.488643 
L 311.221085 86.838845 
L 303.699193 72.90632 
L 296.177301 83.485889 
L 288.655408 84.801113 
L 281.133516 107.93135 
L 273.611623 112.696358 
L 266.089731 111.069857 
L 258.567839 89.312429 
L 251.045946 103.939978 
L 243.524054 100.464029 
L 236.002161 91.164152 
L 228.480269 112.640567 
L 220.958377 113.842148 
L 213.436484 121.717912 
L 205.914592 131.098863 
L 198.392699 132.347791 
L 190.870807 136.775229 
L 183.348915 133.700476 
L 175.827022 139.211105 
L 168.30513 146.38617 
L 160.783237 143.092086 
L 153.261345 158.318164 
L 145.739453 173.809143 
L 138.21756 181.887199 
L 130.695668 185.307863 
L 123.173776 196.3789 
L 115.651883 193.856246 
L 108.129991 216.644704 
L 100.608098 225.375008 
L 93.086206 233.776387 
L 85.564314 233.313229 
L 78.042421 252.425442 
L 70.520529 279.257774 
L 62.998636 283.457524 
z
" style="fill:#1f77b4;fill-opacity:0.5;"/>
   </g>
   <g id="PolyCollection_2">
    <path clip-path="url(#pb0d16ae27f)" d="M 62.998636 284.345306 
L 62.998636 286.929151 
L 70.520529 286.819856 
L 78.042421 291.192358 
L 85.564314 281.097431 
L 93.086206 281.073499 
L 100.608098 273.778257 
L 108.129991 274.435667 
L 115.651883 272.292823 
L 123.173776 268.464936 
L 130.695668 285.134758 
L 138.21756 255.108282 
L 145.739453 280.302319 
L 153.261345 271.871433 
L 160.783237 276.938086 
L 168.30513 271.31894 
L 175.827022 276.492362 
L 183.348915 264.434406 
L 190.870807 286.494752 
L 198.392699 275.815441 
L 205.914592 280.688474 
L 213.436484 278.110597 
L 220.958377 276.973499 
L 228.480269 252.549536 
L 236.002161 278.767102 
L 243.524054 245.080574 
L 251.045946 267.850131 
L 258.567839 231.846932 
L 266.089731 275.998806 
L 273.611623 271.402995 
L 281.133516 238.065515 
L 288.655408 258.973608 
L 296.177301 257.925794 
L 303.699193 249.821567 
L 311.221085 254.320604 
L 318.742978 218.724595 
L 326.26487 235.102098 
L 333.786763 262.12486 
L 341.308655 215.68837 
L 348.830547 221.140273 
L 356.35244 218.442895 
L 363.874332 228.773121 
L 371.396224 238.166854 
L 378.918117 252.973365 
L 386.440009 257.189078 
L 393.961902 252.511166 
L 401.483794 203.836689 
L 409.005686 203.666137 
L 416.527579 210.164979 
L 424.049471 236.832501 
L 431.571364 207.592986 
L 431.571364 190.748373 
L 431.571364 190.748373 
L 424.049471 173.874406 
L 416.527579 177.287316 
L 409.005686 184.893522 
L 401.483794 175.125828 
L 393.961902 181.819472 
L 386.440009 192.644634 
L 378.918117 176.189582 
L 371.396224 181.583512 
L 363.874332 176.396973 
L 356.35244 169.193962 
L 348.830547 190.304875 
L 341.308655 197.417822 
L 333.786763 194.722147 
L 326.26487 194.24541 
L 318.742978 205.270661 
L 311.221085 191.8219 
L 303.699193 214.038736 
L 296.177301 205.380828 
L 288.655408 201.749168 
L 281.133516 209.553472 
L 273.611623 230.10763 
L 266.089731 213.330832 
L 258.567839 190.48728 
L 251.045946 214.097092 
L 243.524054 214.90396 
L 236.002161 196.720506 
L 228.480269 229.397686 
L 220.958377 240.0402 
L 213.436484 218.970578 
L 205.914592 219.714789 
L 198.392699 248.026993 
L 190.870807 245.46834 
L 183.348915 219.912102 
L 175.827022 243.843424 
L 168.30513 228.346081 
L 160.783237 227.525506 
L 153.261345 237.390729 
L 145.739453 234.127534 
L 138.21756 242.157454 
L 130.695668 238.523115 
L 123.173776 236.183216 
L 115.651883 248.042963 
L 108.129991 247.007482 
L 100.608098 253.939945 
L 93.086206 248.674868 
L 85.564314 255.664231 
L 78.042421 264.209905 
L 70.520529 269.320648 
L 62.998636 284.345306 
z
" style="fill:#ff7f0e;fill-opacity:0.5;"/>
   </g>
   <g id="PolyCollection_3">
    <path clip-path="url(#pb0d16ae27f)" d="M 62.998636 280.570377 
L 62.998636 285.536389 
L 70.520529 284.003598 
L 78.042421 277.217118 
L 85.564314 265.45329 
L 93.086206 258.200768 
L 100.608098 254.308651 
L 108.129991 246.912457 
L 115.651883 248.146974 
L 123.173776 228.000104 
L 130.695668 215.696653 
L 138.21756 214.271927 
L 145.739453 203.858739 
L 153.261345 205.219686 
L 160.783237 221.495497 
L 168.30513 208.846361 
L 175.827022 209.768106 
L 183.348915 198.179616 
L 190.870807 199.806355 
L 198.392699 191.002062 
L 205.914592 162.01116 
L 213.436484 161.284853 
L 220.958377 164.126185 
L 228.480269 151.04821 
L 236.002161 143.044314 
L 243.524054 158.052109 
L 251.045946 149.827991 
L 258.567839 152.935303 
L 266.089731 153.357814 
L 273.611623 149.478642 
L 281.133516 130.735219 
L 288.655408 142.367285 
L 296.177301 145.955576 
L 303.699193 149.355262 
L 311.221085 140.445017 
L 318.742978 125.860338 
L 326.26487 145.355324 
L 333.786763 127.44384 
L 341.308655 121.879078 
L 348.830547 115.573487 
L 356.35244 119.960401 
L 363.874332 112.245875 
L 371.396224 139.933246 
L 378.918117 113.483658 
L 386.440009 112.411579 
L 393.961902 122.196121 
L 401.483794 108.592681 
L 409.005686 133.467176 
L 416.527579 111.696586 
L 424.049471 112.767939 
L 431.571364 102.514857 
L 431.571364 73.984899 
L 431.571364 73.984899 
L 424.049471 85.879065 
L 416.527579 83.44377 
L 409.005686 71.454881 
L 401.483794 87.655037 
L 393.961902 83.833298 
L 386.440009 94.540642 
L 378.918117 74.458842 
L 371.396224 85.844137 
L 363.874332 95.998269 
L 356.35244 81.270448 
L 348.830547 91.009614 
L 341.308655 99.468855 
L 333.786763 106.454201 
L 326.26487 99.06266 
L 318.742978 93.641991 
L 311.221085 86.439729 
L 303.699193 105.398104 
L 296.177301 95.509441 
L 288.655408 107.402951 
L 281.133516 109.437876 
L 273.611623 111.918899 
L 266.089731 117.821428 
L 258.567839 110.307842 
L 251.045946 133.532238 
L 243.524054 129.183888 
L 236.002161 130.718774 
L 228.480269 131.758337 
L 220.958377 132.337832 
L 213.436484 125.397463 
L 205.914592 144.603679 
L 198.392699 161.752878 
L 190.870807 167.528857 
L 183.348915 167.309992 
L 175.827022 171.224576 
L 168.30513 160.519016 
L 160.783237 154.514054 
L 153.261345 183.709093 
L 145.739453 197.804708 
L 138.21756 199.203386 
L 130.695668 193.902891 
L 123.173776 208.91438 
L 115.651883 223.833986 
L 108.129991 222.300097 
L 100.608098 227.26945 
L 93.086206 227.068541 
L 85.564314 225.906513 
L 78.042421 250.501084 
L 70.520529 281.180366 
L 62.998636 280.570377 
z
" style="fill:#2ca02c;fill-opacity:0.5;"/>
   </g>
   <g id="PolyCollection_4">
    <path clip-path="url(#pb0d16ae27f)" d="M 62.998636 283.607064 
L 62.998636 283.607064 
L 70.520529 283.738287 
L 78.042421 291.332583 
L 85.564314 275.998624 
L 93.086206 258.976952 
L 100.608098 250.789765 
L 108.129991 248.138694 
L 115.651883 242.161974 
L 123.173776 237.24217 
L 130.695668 236.255952 
L 138.21756 235.344753 
L 145.739453 234.543913 
L 153.261345 234.932404 
L 160.783237 234.523343 
L 168.30513 233.566605 
L 175.827022 232.938834 
L 183.348915 230.915503 
L 190.870807 231.750503 
L 198.392699 229.093099 
L 205.914592 228.258352 
L 213.436484 227.562975 
L 220.958377 225.81582 
L 228.480269 226.017721 
L 236.002161 226.335191 
L 243.524054 227.200284 
L 251.045946 227.285191 
L 258.567839 226.987711 
L 266.089731 227.819814 
L 273.611623 223.728792 
L 281.133516 226.867863 
L 288.655408 228.130784 
L 296.177301 231.378443 
L 303.699193 229.559149 
L 311.221085 228.33908 
L 318.742978 225.338064 
L 326.26487 228.555222 
L 333.786763 228.049667 
L 341.308655 227.71874 
L 348.830547 225.884597 
L 356.35244 224.876516 
L 363.874332 224.217273 
L 371.396224 222.813335 
L 378.918117 222.070397 
L 386.440009 222.924577 
L 393.961902 222.161243 
L 401.483794 220.918868 
L 409.005686 222.353523 
L 416.527579 221.777992 
L 424.049471 221.237089 
L 431.571364 220.786739 
L 431.571364 173.72407 
L 431.571364 173.72407 
L 424.049471 173.740288 
L 416.527579 173.957559 
L 409.005686 174.169363 
L 401.483794 174.700041 
L 393.961902 178.823206 
L 386.440009 174.648088 
L 378.918117 176.872814 
L 371.396224 175.867431 
L 363.874332 179.65407 
L 356.35244 177.113972 
L 348.830547 181.004862 
L 341.308655 181.620205 
L 333.786763 177.454666 
L 326.26487 182.21259 
L 318.742978 180.414134 
L 311.221085 182.195447 
L 303.699193 186.355498 
L 296.177301 183.894672 
L 288.655408 188.717001 
L 281.133516 187.078448 
L 273.611623 195.291453 
L 266.089731 189.027971 
L 258.567839 193.563463 
L 251.045946 193.64507 
L 243.524054 194.998461 
L 236.002161 192.889179 
L 228.480269 197.639051 
L 220.958377 198.438743 
L 213.436484 205.104405 
L 205.914592 197.702103 
L 198.392699 206.359112 
L 190.870807 199.99832 
L 183.348915 206.563367 
L 175.827022 206.654175 
L 168.30513 212.062637 
L 160.783237 209.472908 
L 153.261345 213.53999 
L 145.739453 214.715816 
L 138.21756 217.472563 
L 130.695668 219.229553 
L 123.173776 221.17397 
L 115.651883 224.098353 
L 108.129991 226.898956 
L 100.608098 227.892953 
L 93.086206 233.484123 
L 85.564314 242.225791 
L 78.042421 255.250461 
L 70.520529 283.563323 
L 62.998636 283.607064 
z
" style="fill:#d62728;fill-opacity:0.5;"/>
   </g>
   <g id="matplotlib.axis_1">
    <g id="xtick_1">
     <g id="line2d_1">
      <defs>
       <path d="M 0 0 
L 0 3.5 
" id="mefe5869757" style="stroke:#000000;stroke-width:0.8;"/>
      </defs>
      <g>
       <use style="stroke:#000000;stroke-width:0.8;" x="62.998636" xlink:href="#mefe5869757" y="303.64"/>
      </g>
     </g>
     <g id="text_1">
      <!-- 0 -->
      <g transform="translate(59.817386 318.238437)scale(0.1 -0.1)">
       <defs>
        <path d="M 2034 4250 
Q 1547 4250 1301 3770 
Q 1056 3291 1056 2328 
Q 1056 1369 1301 889 
Q 1547 409 2034 409 
Q 2525 409 2770 889 
Q 3016 1369 3016 2328 
Q 3016 3291 2770 3770 
Q 2525 4250 2034 4250 
z
M 2034 4750 
Q 2819 4750 3233 4129 
Q 3647 3509 3647 2328 
Q 3647 1150 3233 529 
Q 2819 -91 2034 -91 
Q 1250 -91 836 529 
Q 422 1150 422 2328 
Q 422 3509 836 4129 
Q 1250 4750 2034 4750 
z
" id="DejaVuSans-30" transform="scale(0.015625)"/>
       </defs>
       <use xlink:href="#DejaVuSans-30"/>
      </g>
     </g>
    </g>
    <g id="xtick_2">
     <g id="line2d_2">
      <g>
       <use style="stroke:#000000;stroke-width:0.8;" x="138.21756" xlink:href="#mefe5869757" y="303.64"/>
      </g>
     </g>
     <g id="text_2">
      <!-- 10 -->
      <g transform="translate(131.85506 318.238437)scale(0.1 -0.1)">
       <defs>
        <path d="M 794 531 
L 1825 531 
L 1825 4091 
L 703 3866 
L 703 4441 
L 1819 4666 
L 2450 4666 
L 2450 531 
L 3481 531 
L 3481 0 
L 794 0 
L 794 531 
z
" id="DejaVuSans-31" transform="scale(0.015625)"/>
       </defs>
       <use xlink:href="#DejaVuSans-31"/>
       <use x="63.623047" xlink:href="#DejaVuSans-30"/>
      </g>
     </g>
    </g>
    <g id="xtick_3">
     <g id="line2d_3">
      <g>
       <use style="stroke:#000000;stroke-width:0.8;" x="213.436484" xlink:href="#mefe5869757" y="303.64"/>
      </g>
     </g>
     <g id="text_3">
      <!-- 20 -->
      <g transform="translate(207.073984 318.238437)scale(0.1 -0.1)">
       <defs>
        <path d="M 1228 531 
L 3431 531 
L 3431 0 
L 469 0 
L 469 531 
Q 828 903 1448 1529 
Q 2069 2156 2228 2338 
Q 2531 2678 2651 2914 
Q 2772 3150 2772 3378 
Q 2772 3750 2511 3984 
Q 2250 4219 1831 4219 
Q 1534 4219 1204 4116 
Q 875 4013 500 3803 
L 500 4441 
Q 881 4594 1212 4672 
Q 1544 4750 1819 4750 
Q 2544 4750 2975 4387 
Q 3406 4025 3406 3419 
Q 3406 3131 3298 2873 
Q 3191 2616 2906 2266 
Q 2828 2175 2409 1742 
Q 1991 1309 1228 531 
z
" id="DejaVuSans-32" transform="scale(0.015625)"/>
       </defs>
       <use xlink:href="#DejaVuSans-32"/>
       <use x="63.623047" xlink:href="#DejaVuSans-30"/>
      </g>
     </g>
    </g>
    <g id="xtick_4">
     <g id="line2d_4">
      <g>
       <use style="stroke:#000000;stroke-width:0.8;" x="288.655408" xlink:href="#mefe5869757" y="303.64"/>
      </g>
     </g>
     <g id="text_4">
      <!-- 30 -->
      <g transform="translate(282.292908 318.238437)scale(0.1 -0.1)">
       <defs>
        <path d="M 2597 2516 
Q 3050 2419 3304 2112 
Q 3559 1806 3559 1356 
Q 3559 666 3084 287 
Q 2609 -91 1734 -91 
Q 1441 -91 1130 -33 
Q 819 25 488 141 
L 488 750 
Q 750 597 1062 519 
Q 1375 441 1716 441 
Q 2309 441 2620 675 
Q 2931 909 2931 1356 
Q 2931 1769 2642 2001 
Q 2353 2234 1838 2234 
L 1294 2234 
L 1294 2753 
L 1863 2753 
Q 2328 2753 2575 2939 
Q 2822 3125 2822 3475 
Q 2822 3834 2567 4026 
Q 2313 4219 1838 4219 
Q 1578 4219 1281 4162 
Q 984 4106 628 3988 
L 628 4550 
Q 988 4650 1302 4700 
Q 1616 4750 1894 4750 
Q 2613 4750 3031 4423 
Q 3450 4097 3450 3541 
Q 3450 3153 3228 2886 
Q 3006 2619 2597 2516 
z
" id="DejaVuSans-33" transform="scale(0.015625)"/>
       </defs>
       <use xlink:href="#DejaVuSans-33"/>
       <use x="63.623047" xlink:href="#DejaVuSans-30"/>
      </g>
     </g>
    </g>
    <g id="xtick_5">
     <g id="line2d_5">
      <g>
       <use style="stroke:#000000;stroke-width:0.8;" x="363.874332" xlink:href="#mefe5869757" y="303.64"/>
      </g>
     </g>
     <g id="text_5">
      <!-- 40 -->
      <g transform="translate(357.511832 318.238437)scale(0.1 -0.1)">
       <defs>
        <path d="M 2419 4116 
L 825 1625 
L 2419 1625 
L 2419 4116 
z
M 2253 4666 
L 3047 4666 
L 3047 1625 
L 3713 1625 
L 3713 1100 
L 3047 1100 
L 3047 0 
L 2419 0 
L 2419 1100 
L 313 1100 
L 313 1709 
L 2253 4666 
z
" id="DejaVuSans-34" transform="scale(0.015625)"/>
       </defs>
       <use xlink:href="#DejaVuSans-34"/>
       <use x="63.623047" xlink:href="#DejaVuSans-30"/>
      </g>
     </g>
    </g>
    <g id="xtick_6">
     <g id="line2d_6">
      <g>
       <use style="stroke:#000000;stroke-width:0.8;" x="439.093256" xlink:href="#mefe5869757" y="303.64"/>
      </g>
     </g>
     <g id="text_6">
      <!-- 50 -->
      <g transform="translate(432.730756 318.238437)scale(0.1 -0.1)">
       <defs>
        <path d="M 691 4666 
L 3169 4666 
L 3169 4134 
L 1269 4134 
L 1269 2991 
Q 1406 3038 1543 3061 
Q 1681 3084 1819 3084 
Q 2600 3084 3056 2656 
Q 3513 2228 3513 1497 
Q 3513 744 3044 326 
Q 2575 -91 1722 -91 
Q 1428 -91 1123 -41 
Q 819 9 494 109 
L 494 744 
Q 775 591 1075 516 
Q 1375 441 1709 441 
Q 2250 441 2565 725 
Q 2881 1009 2881 1497 
Q 2881 1984 2565 2268 
Q 2250 2553 1709 2553 
Q 1456 2553 1204 2497 
Q 953 2441 691 2322 
L 691 4666 
z
" id="DejaVuSans-35" transform="scale(0.015625)"/>
       </defs>
       <use xlink:href="#DejaVuSans-35"/>
       <use x="63.623047" xlink:href="#DejaVuSans-30"/>
      </g>
     </g>
    </g>
    <g id="text_7">
     <!-- Global Communication Rounds -->
     <g transform="translate(170.323281 331.916562)scale(0.1 -0.1)">
      <defs>
       <path d="M 3809 666 
L 3809 1919 
L 2778 1919 
L 2778 2438 
L 4434 2438 
L 4434 434 
Q 4069 175 3628 42 
Q 3188 -91 2688 -91 
Q 1594 -91 976 548 
Q 359 1188 359 2328 
Q 359 3472 976 4111 
Q 1594 4750 2688 4750 
Q 3144 4750 3555 4637 
Q 3966 4525 4313 4306 
L 4313 3634 
Q 3963 3931 3569 4081 
Q 3175 4231 2741 4231 
Q 1884 4231 1454 3753 
Q 1025 3275 1025 2328 
Q 1025 1384 1454 906 
Q 1884 428 2741 428 
Q 3075 428 3337 486 
Q 3600 544 3809 666 
z
" id="DejaVuSans-47" transform="scale(0.015625)"/>
       <path d="M 603 4863 
L 1178 4863 
L 1178 0 
L 603 0 
L 603 4863 
z
" id="DejaVuSans-6c" transform="scale(0.015625)"/>
       <path d="M 1959 3097 
Q 1497 3097 1228 2736 
Q 959 2375 959 1747 
Q 959 1119 1226 758 
Q 1494 397 1959 397 
Q 2419 397 2687 759 
Q 2956 1122 2956 1747 
Q 2956 2369 2687 2733 
Q 2419 3097 1959 3097 
z
M 1959 3584 
Q 2709 3584 3137 3096 
Q 3566 2609 3566 1747 
Q 3566 888 3137 398 
Q 2709 -91 1959 -91 
Q 1206 -91 779 398 
Q 353 888 353 1747 
Q 353 2609 779 3096 
Q 1206 3584 1959 3584 
z
" id="DejaVuSans-6f" transform="scale(0.015625)"/>
       <path d="M 3116 1747 
Q 3116 2381 2855 2742 
Q 2594 3103 2138 3103 
Q 1681 3103 1420 2742 
Q 1159 2381 1159 1747 
Q 1159 1113 1420 752 
Q 1681 391 2138 391 
Q 2594 391 2855 752 
Q 3116 1113 3116 1747 
z
M 1159 2969 
Q 1341 3281 1617 3432 
Q 1894 3584 2278 3584 
Q 2916 3584 3314 3078 
Q 3713 2572 3713 1747 
Q 3713 922 3314 415 
Q 2916 -91 2278 -91 
Q 1894 -91 1617 61 
Q 1341 213 1159 525 
L 1159 0 
L 581 0 
L 581 4863 
L 1159 4863 
L 1159 2969 
z
" id="DejaVuSans-62" transform="scale(0.015625)"/>
       <path d="M 2194 1759 
Q 1497 1759 1228 1600 
Q 959 1441 959 1056 
Q 959 750 1161 570 
Q 1363 391 1709 391 
Q 2188 391 2477 730 
Q 2766 1069 2766 1631 
L 2766 1759 
L 2194 1759 
z
M 3341 1997 
L 3341 0 
L 2766 0 
L 2766 531 
Q 2569 213 2275 61 
Q 1981 -91 1556 -91 
Q 1019 -91 701 211 
Q 384 513 384 1019 
Q 384 1609 779 1909 
Q 1175 2209 1959 2209 
L 2766 2209 
L 2766 2266 
Q 2766 2663 2505 2880 
Q 2244 3097 1772 3097 
Q 1472 3097 1187 3025 
Q 903 2953 641 2809 
L 641 3341 
Q 956 3463 1253 3523 
Q 1550 3584 1831 3584 
Q 2591 3584 2966 3190 
Q 3341 2797 3341 1997 
z
" id="DejaVuSans-61" transform="scale(0.015625)"/>
       <path id="DejaVuSans-20" transform="scale(0.015625)"/>
       <path d="M 4122 4306 
L 4122 3641 
Q 3803 3938 3442 4084 
Q 3081 4231 2675 4231 
Q 1875 4231 1450 3742 
Q 1025 3253 1025 2328 
Q 1025 1406 1450 917 
Q 1875 428 2675 428 
Q 3081 428 3442 575 
Q 3803 722 4122 1019 
L 4122 359 
Q 3791 134 3420 21 
Q 3050 -91 2638 -91 
Q 1578 -91 968 557 
Q 359 1206 359 2328 
Q 359 3453 968 4101 
Q 1578 4750 2638 4750 
Q 3056 4750 3426 4639 
Q 3797 4528 4122 4306 
z
" id="DejaVuSans-43" transform="scale(0.015625)"/>
       <path d="M 3328 2828 
Q 3544 3216 3844 3400 
Q 4144 3584 4550 3584 
Q 5097 3584 5394 3201 
Q 5691 2819 5691 2113 
L 5691 0 
L 5113 0 
L 5113 2094 
Q 5113 2597 4934 2840 
Q 4756 3084 4391 3084 
Q 3944 3084 3684 2787 
Q 3425 2491 3425 1978 
L 3425 0 
L 2847 0 
L 2847 2094 
Q 2847 2600 2669 2842 
Q 2491 3084 2119 3084 
Q 1678 3084 1418 2786 
Q 1159 2488 1159 1978 
L 1159 0 
L 581 0 
L 581 3500 
L 1159 3500 
L 1159 2956 
Q 1356 3278 1631 3431 
Q 1906 3584 2284 3584 
Q 2666 3584 2933 3390 
Q 3200 3197 3328 2828 
z
" id="DejaVuSans-6d" transform="scale(0.015625)"/>
       <path d="M 544 1381 
L 544 3500 
L 1119 3500 
L 1119 1403 
Q 1119 906 1312 657 
Q 1506 409 1894 409 
Q 2359 409 2629 706 
Q 2900 1003 2900 1516 
L 2900 3500 
L 3475 3500 
L 3475 0 
L 2900 0 
L 2900 538 
Q 2691 219 2414 64 
Q 2138 -91 1772 -91 
Q 1169 -91 856 284 
Q 544 659 544 1381 
z
M 1991 3584 
L 1991 3584 
z
" id="DejaVuSans-75" transform="scale(0.015625)"/>
       <path d="M 3513 2113 
L 3513 0 
L 2938 0 
L 2938 2094 
Q 2938 2591 2744 2837 
Q 2550 3084 2163 3084 
Q 1697 3084 1428 2787 
Q 1159 2491 1159 1978 
L 1159 0 
L 581 0 
L 581 3500 
L 1159 3500 
L 1159 2956 
Q 1366 3272 1645 3428 
Q 1925 3584 2291 3584 
Q 2894 3584 3203 3211 
Q 3513 2838 3513 2113 
z
" id="DejaVuSans-6e" transform="scale(0.015625)"/>
       <path d="M 603 3500 
L 1178 3500 
L 1178 0 
L 603 0 
L 603 3500 
z
M 603 4863 
L 1178 4863 
L 1178 4134 
L 603 4134 
L 603 4863 
z
" id="DejaVuSans-69" transform="scale(0.015625)"/>
       <path d="M 3122 3366 
L 3122 2828 
Q 2878 2963 2633 3030 
Q 2388 3097 2138 3097 
Q 1578 3097 1268 2742 
Q 959 2388 959 1747 
Q 959 1106 1268 751 
Q 1578 397 2138 397 
Q 2388 397 2633 464 
Q 2878 531 3122 666 
L 3122 134 
Q 2881 22 2623 -34 
Q 2366 -91 2075 -91 
Q 1284 -91 818 406 
Q 353 903 353 1747 
Q 353 2603 823 3093 
Q 1294 3584 2113 3584 
Q 2378 3584 2631 3529 
Q 2884 3475 3122 3366 
z
" id="DejaVuSans-63" transform="scale(0.015625)"/>
       <path d="M 1172 4494 
L 1172 3500 
L 2356 3500 
L 2356 3053 
L 1172 3053 
L 1172 1153 
Q 1172 725 1289 603 
Q 1406 481 1766 481 
L 2356 481 
L 2356 0 
L 1766 0 
Q 1100 0 847 248 
Q 594 497 594 1153 
L 594 3053 
L 172 3053 
L 172 3500 
L 594 3500 
L 594 4494 
L 1172 4494 
z
" id="DejaVuSans-74" transform="scale(0.015625)"/>
       <path d="M 2841 2188 
Q 3044 2119 3236 1894 
Q 3428 1669 3622 1275 
L 4263 0 
L 3584 0 
L 2988 1197 
Q 2756 1666 2539 1819 
Q 2322 1972 1947 1972 
L 1259 1972 
L 1259 0 
L 628 0 
L 628 4666 
L 2053 4666 
Q 2853 4666 3247 4331 
Q 3641 3997 3641 3322 
Q 3641 2881 3436 2590 
Q 3231 2300 2841 2188 
z
M 1259 4147 
L 1259 2491 
L 2053 2491 
Q 2509 2491 2742 2702 
Q 2975 2913 2975 3322 
Q 2975 3731 2742 3939 
Q 2509 4147 2053 4147 
L 1259 4147 
z
" id="DejaVuSans-52" transform="scale(0.015625)"/>
       <path d="M 2906 2969 
L 2906 4863 
L 3481 4863 
L 3481 0 
L 2906 0 
L 2906 525 
Q 2725 213 2448 61 
Q 2172 -91 1784 -91 
Q 1150 -91 751 415 
Q 353 922 353 1747 
Q 353 2572 751 3078 
Q 1150 3584 1784 3584 
Q 2172 3584 2448 3432 
Q 2725 3281 2906 2969 
z
M 947 1747 
Q 947 1113 1208 752 
Q 1469 391 1925 391 
Q 2381 391 2643 752 
Q 2906 1113 2906 1747 
Q 2906 2381 2643 2742 
Q 2381 3103 1925 3103 
Q 1469 3103 1208 2742 
Q 947 2381 947 1747 
z
" id="DejaVuSans-64" transform="scale(0.015625)"/>
       <path d="M 2834 3397 
L 2834 2853 
Q 2591 2978 2328 3040 
Q 2066 3103 1784 3103 
Q 1356 3103 1142 2972 
Q 928 2841 928 2578 
Q 928 2378 1081 2264 
Q 1234 2150 1697 2047 
L 1894 2003 
Q 2506 1872 2764 1633 
Q 3022 1394 3022 966 
Q 3022 478 2636 193 
Q 2250 -91 1575 -91 
Q 1294 -91 989 -36 
Q 684 19 347 128 
L 347 722 
Q 666 556 975 473 
Q 1284 391 1588 391 
Q 1994 391 2212 530 
Q 2431 669 2431 922 
Q 2431 1156 2273 1281 
Q 2116 1406 1581 1522 
L 1381 1569 
Q 847 1681 609 1914 
Q 372 2147 372 2553 
Q 372 3047 722 3315 
Q 1072 3584 1716 3584 
Q 2034 3584 2315 3537 
Q 2597 3491 2834 3397 
z
" id="DejaVuSans-73" transform="scale(0.015625)"/>
      </defs>
      <use xlink:href="#DejaVuSans-47"/>
      <use x="77.490234" xlink:href="#DejaVuSans-6c"/>
      <use x="105.273438" xlink:href="#DejaVuSans-6f"/>
      <use x="166.455078" xlink:href="#DejaVuSans-62"/>
      <use x="229.931641" xlink:href="#DejaVuSans-61"/>
      <use x="291.210938" xlink:href="#DejaVuSans-6c"/>
      <use x="318.994141" xlink:href="#DejaVuSans-20"/>
      <use x="350.78125" xlink:href="#DejaVuSans-43"/>
      <use x="420.605469" xlink:href="#DejaVuSans-6f"/>
      <use x="481.787109" xlink:href="#DejaVuSans-6d"/>
      <use x="579.199219" xlink:href="#DejaVuSans-6d"/>
      <use x="676.611328" xlink:href="#DejaVuSans-75"/>
      <use x="739.990234" xlink:href="#DejaVuSans-6e"/>
      <use x="803.369141" xlink:href="#DejaVuSans-69"/>
      <use x="831.152344" xlink:href="#DejaVuSans-63"/>
      <use x="886.132812" xlink:href="#DejaVuSans-61"/>
      <use x="947.412109" xlink:href="#DejaVuSans-74"/>
      <use x="986.621094" xlink:href="#DejaVuSans-69"/>
      <use x="1014.404297" xlink:href="#DejaVuSans-6f"/>
      <use x="1075.585938" xlink:href="#DejaVuSans-6e"/>
      <use x="1138.964844" xlink:href="#DejaVuSans-20"/>
      <use x="1170.751953" xlink:href="#DejaVuSans-52"/>
      <use x="1235.734375" xlink:href="#DejaVuSans-6f"/>
      <use x="1296.916016" xlink:href="#DejaVuSans-75"/>
      <use x="1360.294922" xlink:href="#DejaVuSans-6e"/>
      <use x="1423.673828" xlink:href="#DejaVuSans-64"/>
      <use x="1487.150391" xlink:href="#DejaVuSans-73"/>
     </g>
    </g>
   </g>
   <g id="matplotlib.axis_2">
    <g id="ytick_1">
     <g id="line2d_7">
      <defs>
       <path d="M 0 0 
L -3.5 0 
" id="mba978d7766" style="stroke:#000000;stroke-width:0.8;"/>
      </defs>
      <g>
       <use style="stroke:#000000;stroke-width:0.8;" x="44.57" xlink:href="#mba978d7766" y="283.607064"/>
      </g>
     </g>
     <g id="text_8">
      <!-- 10 -->
      <g transform="translate(24.845 287.406283)scale(0.1 -0.1)">
       <use xlink:href="#DejaVuSans-31"/>
       <use x="63.623047" xlink:href="#DejaVuSans-30"/>
      </g>
     </g>
    </g>
    <g id="ytick_2">
     <g id="line2d_8">
      <g>
       <use style="stroke:#000000;stroke-width:0.8;" x="44.57" xlink:href="#mba978d7766" y="247.156385"/>
      </g>
     </g>
     <g id="text_9">
      <!-- 20 -->
      <g transform="translate(24.845 250.955603)scale(0.1 -0.1)">
       <use xlink:href="#DejaVuSans-32"/>
       <use x="63.623047" xlink:href="#DejaVuSans-30"/>
      </g>
     </g>
    </g>
    <g id="ytick_3">
     <g id="line2d_9">
      <g>
       <use style="stroke:#000000;stroke-width:0.8;" x="44.57" xlink:href="#mba978d7766" y="210.705705"/>
      </g>
     </g>
     <g id="text_10">
      <!-- 30 -->
      <g transform="translate(24.845 214.504924)scale(0.1 -0.1)">
       <use xlink:href="#DejaVuSans-33"/>
       <use x="63.623047" xlink:href="#DejaVuSans-30"/>
      </g>
     </g>
    </g>
    <g id="ytick_4">
     <g id="line2d_10">
      <g>
       <use style="stroke:#000000;stroke-width:0.8;" x="44.57" xlink:href="#mba978d7766" y="174.255025"/>
      </g>
     </g>
     <g id="text_11">
      <!-- 40 -->
      <g transform="translate(24.845 178.054244)scale(0.1 -0.1)">
       <use xlink:href="#DejaVuSans-34"/>
       <use x="63.623047" xlink:href="#DejaVuSans-30"/>
      </g>
     </g>
    </g>
    <g id="ytick_5">
     <g id="line2d_11">
      <g>
       <use style="stroke:#000000;stroke-width:0.8;" x="44.57" xlink:href="#mba978d7766" y="137.804346"/>
      </g>
     </g>
     <g id="text_12">
      <!-- 50 -->
      <g transform="translate(24.845 141.603565)scale(0.1 -0.1)">
       <use xlink:href="#DejaVuSans-35"/>
       <use x="63.623047" xlink:href="#DejaVuSans-30"/>
      </g>
     </g>
    </g>
    <g id="ytick_6">
     <g id="line2d_12">
      <g>
       <use style="stroke:#000000;stroke-width:0.8;" x="44.57" xlink:href="#mba978d7766" y="101.353666"/>
      </g>
     </g>
     <g id="text_13">
      <!-- 60 -->
      <g transform="translate(24.845 105.152885)scale(0.1 -0.1)">
       <defs>
        <path d="M 2113 2584 
Q 1688 2584 1439 2293 
Q 1191 2003 1191 1497 
Q 1191 994 1439 701 
Q 1688 409 2113 409 
Q 2538 409 2786 701 
Q 3034 994 3034 1497 
Q 3034 2003 2786 2293 
Q 2538 2584 2113 2584 
z
M 3366 4563 
L 3366 3988 
Q 3128 4100 2886 4159 
Q 2644 4219 2406 4219 
Q 1781 4219 1451 3797 
Q 1122 3375 1075 2522 
Q 1259 2794 1537 2939 
Q 1816 3084 2150 3084 
Q 2853 3084 3261 2657 
Q 3669 2231 3669 1497 
Q 3669 778 3244 343 
Q 2819 -91 2113 -91 
Q 1303 -91 875 529 
Q 447 1150 447 2328 
Q 447 3434 972 4092 
Q 1497 4750 2381 4750 
Q 2619 4750 2861 4703 
Q 3103 4656 3366 4563 
z
" id="DejaVuSans-36" transform="scale(0.015625)"/>
       </defs>
       <use xlink:href="#DejaVuSans-36"/>
       <use x="63.623047" xlink:href="#DejaVuSans-30"/>
      </g>
     </g>
    </g>
    <g id="ytick_7">
     <g id="line2d_13">
      <g>
       <use style="stroke:#000000;stroke-width:0.8;" x="44.57" xlink:href="#mba978d7766" y="64.902987"/>
      </g>
     </g>
     <g id="text_14">
      <!-- 70 -->
      <g transform="translate(24.845 68.702205)scale(0.1 -0.1)">
       <defs>
        <path d="M 525 4666 
L 3525 4666 
L 3525 4397 
L 1831 0 
L 1172 0 
L 2766 4134 
L 525 4134 
L 525 4666 
z
" id="DejaVuSans-37" transform="scale(0.015625)"/>
       </defs>
       <use xlink:href="#DejaVuSans-37"/>
       <use x="63.623047" xlink:href="#DejaVuSans-30"/>
      </g>
     </g>
    </g>
    <g id="text_15">
     <!-- Test Accuracy -->
     <g transform="translate(18.765313 202.520914)rotate(-90)scale(0.1 -0.1)">
      <defs>
       <path d="M -19 4666 
L 3928 4666 
L 3928 4134 
L 2272 4134 
L 2272 0 
L 1638 0 
L 1638 4134 
L -19 4134 
L -19 4666 
z
" id="DejaVuSans-54" transform="scale(0.015625)"/>
       <path d="M 3597 1894 
L 3597 1613 
L 953 1613 
Q 991 1019 1311 708 
Q 1631 397 2203 397 
Q 2534 397 2845 478 
Q 3156 559 3463 722 
L 3463 178 
Q 3153 47 2828 -22 
Q 2503 -91 2169 -91 
Q 1331 -91 842 396 
Q 353 884 353 1716 
Q 353 2575 817 3079 
Q 1281 3584 2069 3584 
Q 2775 3584 3186 3129 
Q 3597 2675 3597 1894 
z
M 3022 2063 
Q 3016 2534 2758 2815 
Q 2500 3097 2075 3097 
Q 1594 3097 1305 2825 
Q 1016 2553 972 2059 
L 3022 2063 
z
" id="DejaVuSans-65" transform="scale(0.015625)"/>
       <path d="M 2188 4044 
L 1331 1722 
L 3047 1722 
L 2188 4044 
z
M 1831 4666 
L 2547 4666 
L 4325 0 
L 3669 0 
L 3244 1197 
L 1141 1197 
L 716 0 
L 50 0 
L 1831 4666 
z
" id="DejaVuSans-41" transform="scale(0.015625)"/>
       <path d="M 2631 2963 
Q 2534 3019 2420 3045 
Q 2306 3072 2169 3072 
Q 1681 3072 1420 2755 
Q 1159 2438 1159 1844 
L 1159 0 
L 581 0 
L 581 3500 
L 1159 3500 
L 1159 2956 
Q 1341 3275 1631 3429 
Q 1922 3584 2338 3584 
Q 2397 3584 2469 3576 
Q 2541 3569 2628 3553 
L 2631 2963 
z
" id="DejaVuSans-72" transform="scale(0.015625)"/>
       <path d="M 2059 -325 
Q 1816 -950 1584 -1140 
Q 1353 -1331 966 -1331 
L 506 -1331 
L 506 -850 
L 844 -850 
Q 1081 -850 1212 -737 
Q 1344 -625 1503 -206 
L 1606 56 
L 191 3500 
L 800 3500 
L 1894 763 
L 2988 3500 
L 3597 3500 
L 2059 -325 
z
" id="DejaVuSans-79" transform="scale(0.015625)"/>
      </defs>
      <use xlink:href="#DejaVuSans-54"/>
      <use x="44.083984" xlink:href="#DejaVuSans-65"/>
      <use x="105.607422" xlink:href="#DejaVuSans-73"/>
      <use x="157.707031" xlink:href="#DejaVuSans-74"/>
      <use x="196.916016" xlink:href="#DejaVuSans-20"/>
      <use x="228.703125" xlink:href="#DejaVuSans-41"/>
      <use x="295.361328" xlink:href="#DejaVuSans-63"/>
      <use x="350.341797" xlink:href="#DejaVuSans-63"/>
      <use x="405.322266" xlink:href="#DejaVuSans-75"/>
      <use x="468.701172" xlink:href="#DejaVuSans-72"/>
      <use x="509.814453" xlink:href="#DejaVuSans-61"/>
      <use x="571.09375" xlink:href="#DejaVuSans-63"/>
      <use x="626.074219" xlink:href="#DejaVuSans-79"/>
     </g>
    </g>
   </g>
   <g id="line2d_14">
    <path clip-path="url(#pb0d16ae27f)" d="M 62.998636 284.898987 
L 70.520529 282.776542 
L 78.042421 264.135942 
L 85.564314 240.881331 
L 93.086206 247.248665 
L 100.608098 238.482046 
L 108.129991 232.852953 
L 115.651883 216.242517 
L 123.173776 209.506062 
L 130.695668 203.138728 
L 138.21756 188.189336 
L 145.739453 195.202631 
L 153.261345 177.115712 
L 160.783237 167.610851 
L 168.30513 164.565604 
L 175.827022 159.397913 
L 183.348915 166.872609 
L 190.870807 149.523931 
L 198.392699 151.830936 
L 205.914592 146.755525 
L 213.436484 149.708492 
L 220.958377 136.327863 
L 228.480269 131.160171 
L 236.002161 123.316354 
L 243.524054 114.826576 
L 251.045946 128.114925 
L 258.567839 115.749378 
L 266.089731 133.005775 
L 273.611623 120.917069 
L 281.133516 122.116712 
L 288.655408 103.01471 
L 296.177301 103.29155 
L 303.699193 97.570178 
L 311.221085 95.263173 
L 318.742978 90.556883 
L 326.26487 91.756525 
L 333.786763 109.105203 
L 341.308655 87.511636 
L 348.830547 93.69441 
L 356.35244 80.498341 
L 363.874332 92.494767 
L 371.396224 94.155811 
L 378.918117 90.187762 
L 386.440009 92.771607 
L 393.961902 79.760099 
L 401.483794 58.720213 
L 409.005686 77.729935 
L 416.527579 85.942873 
L 424.049471 69.978398 
L 431.571364 76.807133 
" style="fill:none;stroke:#1f77b4;stroke-linecap:square;stroke-width:1.5;"/>
   </g>
   <g id="line2d_15">
    <path clip-path="url(#pb0d16ae27f)" d="M 62.998636 285.637229 
L 70.520529 278.070252 
L 78.042421 277.701131 
L 85.564314 268.380831 
L 93.086206 264.874183 
L 100.608098 263.859101 
L 108.129991 260.721574 
L 115.651883 260.167893 
L 123.173776 252.324076 
L 130.695668 261.828937 
L 138.21756 248.632868 
L 145.739453 257.214927 
L 153.261345 254.631081 
L 160.783237 252.231796 
L 168.30513 249.83251 
L 175.827022 260.167893 
L 183.348915 242.173254 
L 190.870807 265.981546 
L 198.392699 261.921217 
L 205.914592 250.201631 
L 213.436484 248.540588 
L 220.958377 258.506849 
L 228.480269 240.973611 
L 236.002161 237.743804 
L 243.524054 229.992267 
L 251.045946 240.973611 
L 258.567839 211.167106 
L 266.089731 244.664819 
L 273.611623 250.755312 
L 281.133516 223.809494 
L 288.655408 230.361388 
L 296.177301 231.653311 
L 303.699193 231.930151 
L 311.221085 223.071252 
L 318.742978 211.997628 
L 326.26487 214.673754 
L 333.786763 228.423504 
L 341.308655 206.553096 
L 348.830547 205.722574 
L 356.35244 193.818428 
L 363.874332 202.585047 
L 371.396224 209.875183 
L 378.918117 214.581473 
L 386.440009 224.916856 
L 393.961902 217.165319 
L 401.483794 189.481259 
L 409.005686 194.279829 
L 416.527579 193.726148 
L 424.049471 205.353453 
L 431.571364 199.17068 
" style="fill:none;stroke:#ff7f0e;stroke-linecap:square;stroke-width:1.5;"/>
   </g>
   <g id="line2d_16">
    <path clip-path="url(#pb0d16ae27f)" d="M 62.998636 283.053383 
L 70.520529 282.591982 
L 78.042421 263.859101 
L 85.564314 245.679901 
L 93.086206 242.634655 
L 100.608098 240.789051 
L 108.129991 234.606277 
L 115.651883 235.99048 
L 123.173776 218.457242 
L 130.695668 204.799772 
L 138.21756 206.737656 
L 145.739453 200.831723 
L 153.261345 194.46439 
L 160.783237 188.004775 
L 168.30513 184.682688 
L 175.827022 190.496341 
L 183.348915 182.744804 
L 190.870807 183.667606 
L 198.392699 176.37747 
L 205.914592 153.30742 
L 213.436484 143.341158 
L 220.958377 148.232009 
L 228.480269 141.403274 
L 236.002161 136.881544 
L 243.524054 143.617999 
L 251.045946 141.680114 
L 258.567839 131.621572 
L 266.089731 135.589621 
L 273.611623 130.69877 
L 281.133516 120.086547 
L 288.655408 124.885118 
L 296.177301 120.732509 
L 303.699193 127.376683 
L 311.221085 113.442373 
L 318.742978 109.751165 
L 326.26487 122.208992 
L 333.786763 116.94902 
L 341.308655 110.673967 
L 348.830547 103.29155 
L 356.35244 100.615425 
L 363.874332 104.122072 
L 371.396224 112.888691 
L 378.918117 93.97125 
L 386.440009 103.476111 
L 393.961902 103.01471 
L 401.483794 98.123859 
L 409.005686 102.461029 
L 416.527579 97.570178 
L 424.049471 99.323502 
L 431.571364 88.249878 
" style="fill:none;stroke:#2ca02c;stroke-linecap:square;stroke-width:1.5;"/>
   </g>
   <g id="line2d_17">
    <path clip-path="url(#pb0d16ae27f)" d="M 62.998636 283.607064 
L 70.520529 283.650805 
L 78.042421 273.291522 
L 85.564314 259.112208 
L 93.086206 246.230537 
L 100.608098 239.341359 
L 108.129991 237.518825 
L 115.651883 233.130163 
L 123.173776 229.20807 
L 130.695668 227.742753 
L 138.21756 226.408658 
L 145.739453 224.629865 
L 153.261345 224.236197 
L 160.783237 221.998126 
L 168.30513 222.814621 
L 175.827022 219.796505 
L 183.348915 218.739435 
L 190.870807 215.874411 
L 198.392699 217.726106 
L 205.914592 212.980227 
L 213.436484 216.33369 
L 220.958377 212.127282 
L 228.480269 211.828386 
L 236.002161 209.612185 
L 243.524054 211.099372 
L 251.045946 210.465131 
L 258.567839 210.275587 
L 266.089731 208.423892 
L 273.611623 209.510123 
L 281.133516 206.973155 
L 288.655408 208.423892 
L 296.177301 207.636558 
L 303.699193 207.957324 
L 311.221085 205.267264 
L 318.742978 202.876099 
L 326.26487 205.383906 
L 333.786763 202.752167 
L 341.308655 204.669472 
L 348.830547 203.44473 
L 356.35244 200.995244 
L 363.874332 201.935672 
L 371.396224 199.340383 
L 378.918117 199.471606 
L 386.440009 198.786333 
L 393.961902 200.492225 
L 401.483794 197.809455 
L 409.005686 198.261443 
L 416.527579 197.867776 
L 424.049471 197.488689 
L 431.571364 197.255404 
" style="fill:none;stroke:#d62728;stroke-linecap:square;stroke-width:1.5;"/>
   </g>
   <g id="patch_3">
    <path d="M 44.57 303.64 
L 44.57 32.876829 
" style="fill:none;stroke:#000000;stroke-linecap:square;stroke-linejoin:miter;stroke-width:0.8;"/>
   </g>
   <g id="patch_4">
    <path d="M 450 303.64 
L 450 32.876829 
" style="fill:none;stroke:#000000;stroke-linecap:square;stroke-linejoin:miter;stroke-width:0.8;"/>
   </g>
   <g id="patch_5">
    <path d="M 44.57 303.64 
L 450 303.64 
" style="fill:none;stroke:#000000;stroke-linecap:square;stroke-linejoin:miter;stroke-width:0.8;"/>
   </g>
   <g id="patch_6">
    <path d="M 44.57 32.876829 
L 450 32.876829 
" style="fill:none;stroke:#000000;stroke-linecap:square;stroke-linejoin:miter;stroke-width:0.8;"/>
   </g>
   <g id="legend_1">
    <g id="patch_7">
     <path d="M 80.886563 28.478637 
L 413.683438 28.478637 
Q 415.683438 28.478637 415.683438 26.478637 
L 415.683438 12.800512 
Q 415.683438 10.800512 413.683438 10.800512 
L 80.886563 10.800512 
Q 78.886563 10.800512 78.886563 12.800512 
L 78.886563 26.478637 
Q 78.886563 28.478637 80.886563 28.478637 
z
" style="fill:#ffffff;opacity:0.8;stroke:#cccccc;stroke-linejoin:miter;"/>
    </g>
    <g id="line2d_18">
     <path d="M 82.886563 18.898949 
L 102.886563 18.898949 
" style="fill:none;stroke:#1f77b4;stroke-linecap:square;stroke-width:1.5;"/>
    </g>
    <g id="line2d_19"/>
    <g id="text_16">
     <!-- FedAvg -->
     <g transform="translate(110.886563 22.398949)scale(0.1 -0.1)">
      <defs>
       <path d="M 628 4666 
L 3309 4666 
L 3309 4134 
L 1259 4134 
L 1259 2759 
L 3109 2759 
L 3109 2228 
L 1259 2228 
L 1259 0 
L 628 0 
L 628 4666 
z
" id="DejaVuSans-46" transform="scale(0.015625)"/>
       <path d="M 191 3500 
L 800 3500 
L 1894 563 
L 2988 3500 
L 3597 3500 
L 2284 0 
L 1503 0 
L 191 3500 
z
" id="DejaVuSans-76" transform="scale(0.015625)"/>
       <path d="M 2906 1791 
Q 2906 2416 2648 2759 
Q 2391 3103 1925 3103 
Q 1463 3103 1205 2759 
Q 947 2416 947 1791 
Q 947 1169 1205 825 
Q 1463 481 1925 481 
Q 2391 481 2648 825 
Q 2906 1169 2906 1791 
z
M 3481 434 
Q 3481 -459 3084 -895 
Q 2688 -1331 1869 -1331 
Q 1566 -1331 1297 -1286 
Q 1028 -1241 775 -1147 
L 775 -588 
Q 1028 -725 1275 -790 
Q 1522 -856 1778 -856 
Q 2344 -856 2625 -561 
Q 2906 -266 2906 331 
L 2906 616 
Q 2728 306 2450 153 
Q 2172 0 1784 0 
Q 1141 0 747 490 
Q 353 981 353 1791 
Q 353 2603 747 3093 
Q 1141 3584 1784 3584 
Q 2172 3584 2450 3431 
Q 2728 3278 2906 2969 
L 2906 3500 
L 3481 3500 
L 3481 434 
z
" id="DejaVuSans-67" transform="scale(0.015625)"/>
      </defs>
      <use xlink:href="#DejaVuSans-46"/>
      <use x="52.019531" xlink:href="#DejaVuSans-65"/>
      <use x="113.542969" xlink:href="#DejaVuSans-64"/>
      <use x="177.019531" xlink:href="#DejaVuSans-41"/>
      <use x="239.552734" xlink:href="#DejaVuSans-76"/>
      <use x="298.732422" xlink:href="#DejaVuSans-67"/>
     </g>
    </g>
    <g id="line2d_20">
     <path d="M 167.11 18.898949 
L 187.11 18.898949 
" style="fill:none;stroke:#ff7f0e;stroke-linecap:square;stroke-width:1.5;"/>
    </g>
    <g id="line2d_21"/>
    <g id="text_17">
     <!-- FedMed -->
     <g transform="translate(195.11 22.398949)scale(0.1 -0.1)">
      <defs>
       <path d="M 628 4666 
L 1569 4666 
L 2759 1491 
L 3956 4666 
L 4897 4666 
L 4897 0 
L 4281 0 
L 4281 4097 
L 3078 897 
L 2444 897 
L 1241 4097 
L 1241 0 
L 628 0 
L 628 4666 
z
" id="DejaVuSans-4d" transform="scale(0.015625)"/>
      </defs>
      <use xlink:href="#DejaVuSans-46"/>
      <use x="52.019531" xlink:href="#DejaVuSans-65"/>
      <use x="113.542969" xlink:href="#DejaVuSans-64"/>
      <use x="177.019531" xlink:href="#DejaVuSans-4d"/>
      <use x="263.298828" xlink:href="#DejaVuSans-65"/>
      <use x="324.822266" xlink:href="#DejaVuSans-64"/>
     </g>
    </g>
    <g id="line2d_22">
     <path d="M 253.942813 18.898949 
L 273.942813 18.898949 
" style="fill:none;stroke:#2ca02c;stroke-linecap:square;stroke-width:1.5;"/>
    </g>
    <g id="line2d_23"/>
    <g id="text_18">
     <!-- FedProx -->
     <g transform="translate(281.942813 22.398949)scale(0.1 -0.1)">
      <defs>
       <path d="M 1259 4147 
L 1259 2394 
L 2053 2394 
Q 2494 2394 2734 2622 
Q 2975 2850 2975 3272 
Q 2975 3691 2734 3919 
Q 2494 4147 2053 4147 
L 1259 4147 
z
M 628 4666 
L 2053 4666 
Q 2838 4666 3239 4311 
Q 3641 3956 3641 3272 
Q 3641 2581 3239 2228 
Q 2838 1875 2053 1875 
L 1259 1875 
L 1259 0 
L 628 0 
L 628 4666 
z
" id="DejaVuSans-50" transform="scale(0.015625)"/>
       <path d="M 3513 3500 
L 2247 1797 
L 3578 0 
L 2900 0 
L 1881 1375 
L 863 0 
L 184 0 
L 1544 1831 
L 300 3500 
L 978 3500 
L 1906 2253 
L 2834 3500 
L 3513 3500 
z
" id="DejaVuSans-78" transform="scale(0.015625)"/>
      </defs>
      <use xlink:href="#DejaVuSans-46"/>
      <use x="52.019531" xlink:href="#DejaVuSans-65"/>
      <use x="113.542969" xlink:href="#DejaVuSans-64"/>
      <use x="177.019531" xlink:href="#DejaVuSans-50"/>
      <use x="235.572266" xlink:href="#DejaVuSans-72"/>
      <use x="274.435547" xlink:href="#DejaVuSans-6f"/>
      <use x="332.492188" xlink:href="#DejaVuSans-78"/>
     </g>
    </g>
    <g id="line2d_24">
     <path d="M 341.111563 18.898949 
L 361.111563 18.898949 
" style="fill:none;stroke:#d62728;stroke-linecap:square;stroke-width:1.5;"/>
    </g>
    <g id="line2d_25"/>
    <g id="text_19">
     <!-- qFedAvg -->
     <g transform="translate(369.111563 22.398949)scale(0.1 -0.1)">
      <defs>
       <path d="M 947 1747 
Q 947 1113 1208 752 
Q 1469 391 1925 391 
Q 2381 391 2643 752 
Q 2906 1113 2906 1747 
Q 2906 2381 2643 2742 
Q 2381 3103 1925 3103 
Q 1469 3103 1208 2742 
Q 947 2381 947 1747 
z
M 2906 525 
Q 2725 213 2448 61 
Q 2172 -91 1784 -91 
Q 1150 -91 751 415 
Q 353 922 353 1747 
Q 353 2572 751 3078 
Q 1150 3584 1784 3584 
Q 2172 3584 2448 3432 
Q 2725 3281 2906 2969 
L 2906 3500 
L 3481 3500 
L 3481 -1331 
L 2906 -1331 
L 2906 525 
z
" id="DejaVuSans-71" transform="scale(0.015625)"/>
      </defs>
      <use xlink:href="#DejaVuSans-71"/>
      <use x="63.476562" xlink:href="#DejaVuSans-46"/>
      <use x="115.496094" xlink:href="#DejaVuSans-65"/>
      <use x="177.019531" xlink:href="#DejaVuSans-64"/>
      <use x="240.496094" xlink:href="#DejaVuSans-41"/>
      <use x="303.029297" xlink:href="#DejaVuSans-76"/>
      <use x="362.208984" xlink:href="#DejaVuSans-67"/>
     </g>
    </g>
   </g>
  </g>
 </g>
 <defs>
  <clipPath id="pb0d16ae27f">
   <rect height="270.763171" width="405.43" x="44.57" y="32.876829"/>
  </clipPath>
 </defs>
</svg>
