<?xml version="1.0" encoding="utf-8" standalone="no"?>
<!DOCTYPE svg PUBLIC "-//W3C//DTD SVG 1.1//EN"
  "http://www.w3.org/Graphics/SVG/1.1/DTD/svg11.dtd">
<!-- Created with matplotlib (https://matplotlib.org/) -->
<svg height="432pt" version="1.1" viewBox="0 0 576 432" width="576pt" xmlns="http://www.w3.org/2000/svg" xmlns:xlink="http://www.w3.org/1999/xlink">
 <defs>
  <style type="text/css">
*{stroke-linecap:butt;stroke-linejoin:round;}
  </style>
 </defs>
 <g id="figure_1">
  <g id="patch_1">
   <path d="M 0 432 
L 576 432 
L 576 0 
L 0 0 
z
" style="fill:#ffffff;"/>
  </g>
  <g id="axes_1">
   <g id="patch_2">
    <path d="M 61.2 374.8 
L 556.1 374.8 
L 556.1 56.448219 
L 61.2 56.448219 
z
" style="fill:#ffffff;"/>
   </g>
   <g id="PolyCollection_1">
    <path clip-path="url(#p557dd59e19)" d="M 83.695455 132.915206 
L 83.695455 268.749751 
L 92.877273 131.85606 
L 102.059091 125.188302 
L 111.240909 119.76518 
L 120.422727 115.955233 
L 129.604545 111.066736 
L 138.786364 109.673459 
L 147.968182 108.001572 
L 157.15 103.279633 
L 166.331818 98.149399 
L 175.513636 99.41507 
L 184.695455 101.148789 
L 193.877273 98.469067 
L 203.059091 95.173226 
L 212.240909 97.773625 
L 221.422727 95.304917 
L 230.604545 98.963905 
L 239.786364 94.443989 
L 248.968182 91.852164 
L 258.15 91.18628 
L 267.331818 92.235705 
L 276.513636 90.99504 
L 285.695455 90.443716 
L 294.877273 89.772016 
L 304.059091 90.129892 
L 313.240909 87.223138 
L 322.422727 87.925012 
L 331.604545 89.207978 
L 340.786364 87.534338 
L 349.968182 88.31991 
L 359.15 84.739263 
L 368.331818 87.403247 
L 377.513636 86.850171 
L 386.695455 84.908729 
L 395.877273 86.906961 
L 405.059091 85.228397 
L 414.240909 83.764329 
L 423.422727 85.165378 
L 432.604545 81.404994 
L 441.786364 81.798663 
L 450.968182 81.364033 
L 460.15 82.485656 
L 469.331818 82.127492 
L 478.513636 78.208311 
L 487.695455 82.010406 
L 496.877273 79.385103 
L 506.059091 77.440547 
L 515.240909 80.029546 
L 524.422727 80.317561 
L 533.604545 77.912769 
L 533.604545 74.410979 
L 533.604545 74.410979 
L 524.422727 76.481542 
L 515.240909 76.769557 
L 506.059091 73.604528 
L 496.877273 71.659972 
L 487.695455 75.428034 
L 478.513636 70.918754 
L 469.331818 74.671612 
L 460.15 78.149466 
L 450.968182 75.43507 
L 441.786364 77.557785 
L 432.604545 74.115437 
L 423.422727 79.305763 
L 414.240909 79.428138 
L 405.059091 75.406725 
L 395.877273 76.285506 
L 386.695455 75.087056 
L 377.513636 75.70296 
L 368.331818 77.70723 
L 359.15 77.174532 
L 349.968182 78.708576 
L 340.786364 80.133484 
L 331.604545 79.099181 
L 322.422727 81.66082 
L 313.240909 81.723358 
L 304.059091 83.931295 
L 294.877273 82.371162 
L 285.695455 83.617471 
L 276.513636 83.705483 
L 267.331818 83.104154 
L 258.15 86.071589 
L 248.968182 84.127032 
L 239.786364 86.010562 
L 230.604545 87.244674 
L 221.422727 87.067643 
L 212.240909 86.516945 
L 203.059091 92.314026 
L 193.877273 94.132876 
L 184.695455 95.289173 
L 175.513636 97.022892 
L 166.331818 93.813208 
L 157.15 99.551693 
L 147.968182 102.501792 
L 138.786364 100.190568 
L 129.604545 102.633309 
L 120.422727 111.170878 
L 111.240909 112.475623 
L 102.059091 119.839229 
L 92.877273 124.679527 
L 83.695455 132.915206 
z
" style="fill:#1f77b4;fill-opacity:0.5;"/>
   </g>
   <g id="PolyCollection_2">
    <path clip-path="url(#p557dd59e19)" d="M 83.695455 129.743336 
L 83.695455 334.576592 
L 92.877273 141.201269 
L 102.059091 129.64097 
L 111.240909 124.334391 
L 120.422727 115.993277 
L 129.604545 115.09946 
L 138.786364 110.55045 
L 147.968182 108.829059 
L 157.15 104.228091 
L 166.331818 100.799045 
L 175.513636 102.142467 
L 184.695455 99.971822 
L 193.877273 101.073103 
L 203.059091 98.897969 
L 212.240909 97.323283 
L 221.422727 95.494521 
L 230.604545 99.9744 
L 239.786364 98.953278 
L 248.968182 96.27808 
L 258.15 94.462064 
L 267.331818 94.292751 
L 276.513636 92.55242 
L 285.695455 96.50196 
L 294.877273 95.004484 
L 304.059091 95.746827 
L 313.240909 94.797134 
L 322.422727 91.132241 
L 331.604545 93.979043 
L 340.786364 93.237402 
L 349.968182 95.048846 
L 359.15 90.979359 
L 368.331818 93.395678 
L 377.513636 91.706936 
L 386.695455 91.43253 
L 395.877273 91.370357 
L 405.059091 89.667041 
L 414.240909 87.223138 
L 423.422727 88.783435 
L 432.604545 90.108595 
L 441.786364 88.925711 
L 450.968182 89.567921 
L 460.15 87.223138 
L 469.331818 91.228197 
L 478.513636 90.198996 
L 487.695455 85.682338 
L 496.877273 83.984838 
L 506.059091 88.084102 
L 515.240909 87.88637 
L 524.422727 85.229775 
L 533.604545 87.185094 
L 533.604545 82.400738 
L 533.604545 82.400738 
L 524.422727 79.880702 
L 515.240909 81.060125 
L 506.059091 81.50173 
L 496.877273 81.125639 
L 487.695455 81.346148 
L 478.513636 79.386836 
L 469.331818 78.996971 
L 460.15 81.723358 
L 450.968182 79.378575 
L 441.786364 80.020785 
L 432.604545 80.755909 
L 423.422727 83.999079 
L 414.240909 81.723358 
L 405.059091 81.8368 
L 395.877273 83.969503 
L 386.695455 84.546666 
L 377.513636 82.354251 
L 368.331818 82.583518 
L 359.15 81.803155 
L 349.968182 87.323714 
L 340.786364 84.659804 
L 331.604545 80.72148 
L 322.422727 87.404301 
L 313.240909 88.214763 
L 304.059091 87.26507 
L 294.877273 89.286085 
L 285.695455 87.149274 
L 276.513636 86.623458 
L 267.331818 88.719146 
L 258.15 86.631824 
L 248.968182 87.373154 
L 239.786364 89.173311 
L 230.604545 90.709534 
L 221.422727 91.992731 
L 212.240909 90.803305 
L 203.059091 93.703975 
L 193.877273 92.168177 
L 184.695455 95.187467 
L 175.513636 96.213505 
L 166.331818 96.278254 
L 157.15 97.963899 
L 147.968182 100.395632 
L 138.786364 103.149596 
L 129.604545 106.911959 
L 120.422727 110.493497 
L 111.240909 118.135794 
L 102.059091 123.058598 
L 92.877273 123.645691 
L 83.695455 129.743336 
z
" style="fill:#ff7f0e;fill-opacity:0.5;"/>
   </g>
   <g id="PolyCollection_3">
    <path clip-path="url(#p557dd59e19)" d="M 83.695455 160.011826 
L 83.695455 169.408114 
L 92.877273 136.034334 
L 102.059091 129.659213 
L 111.240909 121.457882 
L 120.422727 117.280394 
L 129.604545 110.686041 
L 138.786364 108.001572 
L 147.968182 103.973009 
L 157.15 102.320629 
L 166.331818 101.397849 
L 175.513636 100.321067 
L 184.695455 98.826024 
L 193.877273 98.69315 
L 203.059091 97.622969 
L 212.240909 94.620047 
L 221.422727 95.661635 
L 230.604545 95.544397 
L 239.786364 93.156165 
L 248.968182 92.872088 
L 258.15 93.640398 
L 267.331818 91.38871 
L 276.513636 90.699498 
L 285.695455 91.208998 
L 294.877273 89.939261 
L 304.059091 90.699498 
L 313.240909 89.170887 
L 322.422727 93.003398 
L 331.604545 89.497728 
L 340.786364 88.879021 
L 349.968182 86.391257 
L 359.15 87.174281 
L 368.331818 87.781324 
L 377.513636 86.301046 
L 386.695455 86.11124 
L 395.877273 85.669337 
L 405.059091 87.185094 
L 414.240909 85.904474 
L 423.422727 86.583801 
L 432.604545 87.350262 
L 441.786364 85.791572 
L 450.968182 85.682338 
L 460.15 87.534338 
L 469.331818 84.880383 
L 478.513636 83.194575 
L 487.695455 82.23557 
L 496.877273 85.207088 
L 506.059091 82.472654 
L 515.240909 82.386497 
L 524.422727 84.383037 
L 533.604545 85.334869 
L 533.604545 79.136272 
L 533.604545 79.136272 
L 524.422727 78.809431 
L 515.240909 79.527298 
L 506.059091 80.080477 
L 496.877273 78.624716 
L 487.695455 77.120879 
L 478.513636 80.637229 
L 469.331818 78.951421 
L 460.15 80.133484 
L 450.968182 81.346148 
L 441.786364 80.597578 
L 432.604545 80.956897 
L 423.422727 81.084021 
L 414.240909 82.402685 
L 405.059091 82.400738 
L 395.877273 83.277159 
L 386.695455 80.917246 
L 377.513636 80.72744 
L 368.331818 83.08318 
L 359.15 85.608233 
L 349.968182 83.833911 
L 340.786364 84.54283 
L 331.604545 83.924122 
L 322.422727 82.975798 
L 313.240909 82.97229 
L 304.059091 87.197708 
L 294.877273 86.679272 
L 285.695455 86.688207 
L 276.513636 87.197708 
L 267.331818 87.147832 
L 258.15 86.814153 
L 248.968182 86.943126 
L 239.786364 91.134405 
L 230.604545 91.303519 
L 221.422727 93.10429 
L 212.240909 92.227869 
L 203.059091 90.50362 
L 193.877273 93.908794 
L 184.695455 95.693928 
L 175.513636 92.920213 
L 166.331818 95.67945 
L 157.15 98.592689 
L 147.968182 98.858317 
L 138.786364 102.501792 
L 129.604545 103.014004 
L 120.422727 107.927708 
L 111.240909 112.061593 
L 102.059091 120.483009 
L 92.877273 129.451963 
L 83.695455 160.011826 
z
" style="fill:#2ca02c;fill-opacity:0.5;"/>
   </g>
   <g id="PolyCollection_4">
    <path clip-path="url(#p557dd59e19)" d="M 83.695455 311.785034 
L 83.695455 360.329464 
L 92.877273 212.193369 
L 102.059091 181.299307 
L 111.240909 168.515845 
L 120.422727 162.170565 
L 129.604545 156.968511 
L 138.786364 153.045701 
L 147.968182 149.993464 
L 157.15 146.174558 
L 166.331818 143.656922 
L 175.513636 141.780873 
L 184.695455 139.786836 
L 193.877273 138.117019 
L 203.059091 136.016337 
L 212.240909 134.157098 
L 221.422727 133.137786 
L 230.604545 131.491326 
L 239.786364 129.730141 
L 248.968182 128.427039 
L 258.15 126.928208 
L 267.331818 125.731029 
L 276.513636 124.198674 
L 285.695455 123.180387 
L 294.877273 121.892043 
L 304.059091 121.206063 
L 313.240909 120.414429 
L 322.422727 119.594851 
L 331.604545 118.924289 
L 340.786364 118.289789 
L 349.968182 117.557887 
L 359.15 117.227685 
L 368.331818 116.832469 
L 377.513636 116.411266 
L 386.695455 115.774355 
L 395.877273 115.410678 
L 405.059091 114.82313 
L 414.240909 114.383532 
L 423.422727 114.129894 
L 432.604545 113.937092 
L 441.786364 113.714248 
L 450.968182 113.178709 
L 460.15 113.234131 
L 469.331818 112.545611 
L 478.513636 111.853862 
L 487.695455 111.352036 
L 496.877273 111.382075 
L 506.059091 111.228599 
L 515.240909 111.369602 
L 524.422727 110.708631 
L 533.604545 110.638917 
L 533.604545 108.52362 
L 533.604545 108.52362 
L 524.422727 108.605428 
L 515.240909 108.651563 
L 506.059091 109.146119 
L 496.877273 109.245181 
L 487.695455 109.224713 
L 478.513636 109.27847 
L 469.331818 109.495857 
L 460.15 109.817489 
L 450.968182 109.923418 
L 441.786364 110.549554 
L 432.604545 110.781278 
L 423.422727 111.093552 
L 414.240909 111.698542 
L 405.059091 111.915543 
L 395.877273 112.843223 
L 386.695455 112.530053 
L 377.513636 112.953801 
L 368.331818 113.795287 
L 359.15 114.208193 
L 349.968182 114.888142 
L 340.786364 115.924006 
L 331.604545 116.754226 
L 322.422727 117.144322 
L 313.240909 117.738957 
L 304.059091 118.108997 
L 294.877273 118.685707 
L 285.695455 119.771219 
L 276.513636 120.268159 
L 267.331818 121.412705 
L 258.15 122.43786 
L 248.968182 123.868468 
L 239.786364 125.19176 
L 230.604545 126.764076 
L 221.422727 128.299593 
L 212.240909 130.058198 
L 203.059091 131.279922 
L 193.877273 133.169338 
L 184.695455 135.085559 
L 175.513636 136.172484 
L 166.331818 138.033997 
L 157.15 140.365088 
L 147.968182 142.708107 
L 138.786364 145.615763 
L 129.604545 150.026704 
L 120.422727 153.916014 
L 111.240909 158.833923 
L 102.059091 169.586993 
L 92.877273 197.837306 
L 83.695455 311.785034 
z
" style="fill:#d62728;fill-opacity:0.5;"/>
   </g>
   <g id="matplotlib.axis_1">
    <g id="xtick_1">
     <g id="line2d_1">
      <defs>
       <path d="M 0 0 
L 0 3.5 
" id="m8b39a9d899" style="stroke:#000000;stroke-width:0.8;"/>
      </defs>
      <g>
       <use style="stroke:#000000;stroke-width:0.8;" x="83.695455" xlink:href="#m8b39a9d899" y="374.8"/>
      </g>
     </g>
     <g id="text_1">
      <!-- 0 -->
      <defs>
       <path d="M 31.78125 66.40625 
Q 24.171875 66.40625 20.328125 58.90625 
Q 16.5 51.421875 16.5 36.375 
Q 16.5 21.390625 20.328125 13.890625 
Q 24.171875 6.390625 31.78125 6.390625 
Q 39.453125 6.390625 43.28125 13.890625 
Q 47.125 21.390625 47.125 36.375 
Q 47.125 51.421875 43.28125 58.90625 
Q 39.453125 66.40625 31.78125 66.40625 
z
M 31.78125 74.21875 
Q 44.046875 74.21875 50.515625 64.515625 
Q 56.984375 54.828125 56.984375 36.375 
Q 56.984375 17.96875 50.515625 8.265625 
Q 44.046875 -1.421875 31.78125 -1.421875 
Q 19.53125 -1.421875 13.0625 8.265625 
Q 6.59375 17.96875 6.59375 36.375 
Q 6.59375 54.828125 13.0625 64.515625 
Q 19.53125 74.21875 31.78125 74.21875 
z
" id="DejaVuSans-48"/>
      </defs>
      <g transform="translate(78.92358 393.197656)scale(0.15 -0.15)">
       <use xlink:href="#DejaVuSans-48"/>
      </g>
     </g>
    </g>
    <g id="xtick_2">
     <g id="line2d_2">
      <g>
       <use style="stroke:#000000;stroke-width:0.8;" x="175.513636" xlink:href="#m8b39a9d899" y="374.8"/>
      </g>
     </g>
     <g id="text_2">
      <!-- 10 -->
      <defs>
       <path d="M 12.40625 8.296875 
L 28.515625 8.296875 
L 28.515625 63.921875 
L 10.984375 60.40625 
L 10.984375 69.390625 
L 28.421875 72.90625 
L 38.28125 72.90625 
L 38.28125 8.296875 
L 54.390625 8.296875 
L 54.390625 0 
L 12.40625 0 
z
" id="DejaVuSans-49"/>
      </defs>
      <g transform="translate(165.969886 393.197656)scale(0.15 -0.15)">
       <use xlink:href="#DejaVuSans-49"/>
       <use x="63.623047" xlink:href="#DejaVuSans-48"/>
      </g>
     </g>
    </g>
    <g id="xtick_3">
     <g id="line2d_3">
      <g>
       <use style="stroke:#000000;stroke-width:0.8;" x="267.331818" xlink:href="#m8b39a9d899" y="374.8"/>
      </g>
     </g>
     <g id="text_3">
      <!-- 20 -->
      <defs>
       <path d="M 19.1875 8.296875 
L 53.609375 8.296875 
L 53.609375 0 
L 7.328125 0 
L 7.328125 8.296875 
Q 12.9375 14.109375 22.625 23.890625 
Q 32.328125 33.6875 34.8125 36.53125 
Q 39.546875 41.84375 41.421875 45.53125 
Q 43.3125 49.21875 43.3125 52.78125 
Q 43.3125 58.59375 39.234375 62.25 
Q 35.15625 65.921875 28.609375 65.921875 
Q 23.96875 65.921875 18.8125 64.3125 
Q 13.671875 62.703125 7.8125 59.421875 
L 7.8125 69.390625 
Q 13.765625 71.78125 18.9375 73 
Q 24.125 74.21875 28.421875 74.21875 
Q 39.75 74.21875 46.484375 68.546875 
Q 53.21875 62.890625 53.21875 53.421875 
Q 53.21875 48.921875 51.53125 44.890625 
Q 49.859375 40.875 45.40625 35.40625 
Q 44.1875 33.984375 37.640625 27.21875 
Q 31.109375 20.453125 19.1875 8.296875 
z
" id="DejaVuSans-50"/>
      </defs>
      <g transform="translate(257.788068 393.197656)scale(0.15 -0.15)">
       <use xlink:href="#DejaVuSans-50"/>
       <use x="63.623047" xlink:href="#DejaVuSans-48"/>
      </g>
     </g>
    </g>
    <g id="xtick_4">
     <g id="line2d_4">
      <g>
       <use style="stroke:#000000;stroke-width:0.8;" x="359.15" xlink:href="#m8b39a9d899" y="374.8"/>
      </g>
     </g>
     <g id="text_4">
      <!-- 30 -->
      <defs>
       <path d="M 40.578125 39.3125 
Q 47.65625 37.796875 51.625 33 
Q 55.609375 28.21875 55.609375 21.1875 
Q 55.609375 10.40625 48.1875 4.484375 
Q 40.765625 -1.421875 27.09375 -1.421875 
Q 22.515625 -1.421875 17.65625 -0.515625 
Q 12.796875 0.390625 7.625 2.203125 
L 7.625 11.71875 
Q 11.71875 9.328125 16.59375 8.109375 
Q 21.484375 6.890625 26.8125 6.890625 
Q 36.078125 6.890625 40.9375 10.546875 
Q 45.796875 14.203125 45.796875 21.1875 
Q 45.796875 27.640625 41.28125 31.265625 
Q 36.765625 34.90625 28.71875 34.90625 
L 20.21875 34.90625 
L 20.21875 43.015625 
L 29.109375 43.015625 
Q 36.375 43.015625 40.234375 45.921875 
Q 44.09375 48.828125 44.09375 54.296875 
Q 44.09375 59.90625 40.109375 62.90625 
Q 36.140625 65.921875 28.71875 65.921875 
Q 24.65625 65.921875 20.015625 65.03125 
Q 15.375 64.15625 9.8125 62.3125 
L 9.8125 71.09375 
Q 15.4375 72.65625 20.34375 73.4375 
Q 25.25 74.21875 29.59375 74.21875 
Q 40.828125 74.21875 47.359375 69.109375 
Q 53.90625 64.015625 53.90625 55.328125 
Q 53.90625 49.265625 50.4375 45.09375 
Q 46.96875 40.921875 40.578125 39.3125 
z
" id="DejaVuSans-51"/>
      </defs>
      <g transform="translate(349.60625 393.197656)scale(0.15 -0.15)">
       <use xlink:href="#DejaVuSans-51"/>
       <use x="63.623047" xlink:href="#DejaVuSans-48"/>
      </g>
     </g>
    </g>
    <g id="xtick_5">
     <g id="line2d_5">
      <g>
       <use style="stroke:#000000;stroke-width:0.8;" x="450.968182" xlink:href="#m8b39a9d899" y="374.8"/>
      </g>
     </g>
     <g id="text_5">
      <!-- 40 -->
      <defs>
       <path d="M 37.796875 64.3125 
L 12.890625 25.390625 
L 37.796875 25.390625 
z
M 35.203125 72.90625 
L 47.609375 72.90625 
L 47.609375 25.390625 
L 58.015625 25.390625 
L 58.015625 17.1875 
L 47.609375 17.1875 
L 47.609375 0 
L 37.796875 0 
L 37.796875 17.1875 
L 4.890625 17.1875 
L 4.890625 26.703125 
z
" id="DejaVuSans-52"/>
      </defs>
      <g transform="translate(441.424432 393.197656)scale(0.15 -0.15)">
       <use xlink:href="#DejaVuSans-52"/>
       <use x="63.623047" xlink:href="#DejaVuSans-48"/>
      </g>
     </g>
    </g>
    <g id="xtick_6">
     <g id="line2d_6">
      <g>
       <use style="stroke:#000000;stroke-width:0.8;" x="542.786364" xlink:href="#m8b39a9d899" y="374.8"/>
      </g>
     </g>
     <g id="text_6">
      <!-- 50 -->
      <defs>
       <path d="M 10.796875 72.90625 
L 49.515625 72.90625 
L 49.515625 64.59375 
L 19.828125 64.59375 
L 19.828125 46.734375 
Q 21.96875 47.46875 24.109375 47.828125 
Q 26.265625 48.1875 28.421875 48.1875 
Q 40.625 48.1875 47.75 41.5 
Q 54.890625 34.8125 54.890625 23.390625 
Q 54.890625 11.625 47.5625 5.09375 
Q 40.234375 -1.421875 26.90625 -1.421875 
Q 22.3125 -1.421875 17.546875 -0.640625 
Q 12.796875 0.140625 7.71875 1.703125 
L 7.71875 11.625 
Q 12.109375 9.234375 16.796875 8.0625 
Q 21.484375 6.890625 26.703125 6.890625 
Q 35.15625 6.890625 40.078125 11.328125 
Q 45.015625 15.765625 45.015625 23.390625 
Q 45.015625 31 40.078125 35.4375 
Q 35.15625 39.890625 26.703125 39.890625 
Q 22.75 39.890625 18.8125 39.015625 
Q 14.890625 38.140625 10.796875 36.28125 
z
" id="DejaVuSans-53"/>
      </defs>
      <g transform="translate(533.242614 393.197656)scale(0.15 -0.15)">
       <use xlink:href="#DejaVuSans-53"/>
       <use x="63.623047" xlink:href="#DejaVuSans-48"/>
      </g>
     </g>
    </g>
    <g id="text_7">
     <!-- Global Communication Rounds -->
     <defs>
      <path d="M 59.515625 10.40625 
L 59.515625 29.984375 
L 43.40625 29.984375 
L 43.40625 38.09375 
L 69.28125 38.09375 
L 69.28125 6.78125 
Q 63.578125 2.734375 56.6875 0.65625 
Q 49.8125 -1.421875 42 -1.421875 
Q 24.90625 -1.421875 15.25 8.5625 
Q 5.609375 18.5625 5.609375 36.375 
Q 5.609375 54.25 15.25 64.234375 
Q 24.90625 74.21875 42 74.21875 
Q 49.125 74.21875 55.546875 72.453125 
Q 61.96875 70.703125 67.390625 67.28125 
L 67.390625 56.78125 
Q 61.921875 61.421875 55.765625 63.765625 
Q 49.609375 66.109375 42.828125 66.109375 
Q 29.4375 66.109375 22.71875 58.640625 
Q 16.015625 51.171875 16.015625 36.375 
Q 16.015625 21.625 22.71875 14.15625 
Q 29.4375 6.6875 42.828125 6.6875 
Q 48.046875 6.6875 52.140625 7.59375 
Q 56.25 8.5 59.515625 10.40625 
z
" id="DejaVuSans-71"/>
      <path d="M 9.421875 75.984375 
L 18.40625 75.984375 
L 18.40625 0 
L 9.421875 0 
z
" id="DejaVuSans-108"/>
      <path d="M 30.609375 48.390625 
Q 23.390625 48.390625 19.1875 42.75 
Q 14.984375 37.109375 14.984375 27.296875 
Q 14.984375 17.484375 19.15625 11.84375 
Q 23.34375 6.203125 30.609375 6.203125 
Q 37.796875 6.203125 41.984375 11.859375 
Q 46.1875 17.53125 46.1875 27.296875 
Q 46.1875 37.015625 41.984375 42.703125 
Q 37.796875 48.390625 30.609375 48.390625 
z
M 30.609375 56 
Q 42.328125 56 49.015625 48.375 
Q 55.71875 40.765625 55.71875 27.296875 
Q 55.71875 13.875 49.015625 6.21875 
Q 42.328125 -1.421875 30.609375 -1.421875 
Q 18.84375 -1.421875 12.171875 6.21875 
Q 5.515625 13.875 5.515625 27.296875 
Q 5.515625 40.765625 12.171875 48.375 
Q 18.84375 56 30.609375 56 
z
" id="DejaVuSans-111"/>
      <path d="M 48.6875 27.296875 
Q 48.6875 37.203125 44.609375 42.84375 
Q 40.53125 48.484375 33.40625 48.484375 
Q 26.265625 48.484375 22.1875 42.84375 
Q 18.109375 37.203125 18.109375 27.296875 
Q 18.109375 17.390625 22.1875 11.75 
Q 26.265625 6.109375 33.40625 6.109375 
Q 40.53125 6.109375 44.609375 11.75 
Q 48.6875 17.390625 48.6875 27.296875 
z
M 18.109375 46.390625 
Q 20.953125 51.265625 25.265625 53.625 
Q 29.59375 56 35.59375 56 
Q 45.5625 56 51.78125 48.09375 
Q 58.015625 40.1875 58.015625 27.296875 
Q 58.015625 14.40625 51.78125 6.484375 
Q 45.5625 -1.421875 35.59375 -1.421875 
Q 29.59375 -1.421875 25.265625 0.953125 
Q 20.953125 3.328125 18.109375 8.203125 
L 18.109375 0 
L 9.078125 0 
L 9.078125 75.984375 
L 18.109375 75.984375 
z
" id="DejaVuSans-98"/>
      <path d="M 34.28125 27.484375 
Q 23.390625 27.484375 19.1875 25 
Q 14.984375 22.515625 14.984375 16.5 
Q 14.984375 11.71875 18.140625 8.90625 
Q 21.296875 6.109375 26.703125 6.109375 
Q 34.1875 6.109375 38.703125 11.40625 
Q 43.21875 16.703125 43.21875 25.484375 
L 43.21875 27.484375 
z
M 52.203125 31.203125 
L 52.203125 0 
L 43.21875 0 
L 43.21875 8.296875 
Q 40.140625 3.328125 35.546875 0.953125 
Q 30.953125 -1.421875 24.3125 -1.421875 
Q 15.921875 -1.421875 10.953125 3.296875 
Q 6 8.015625 6 15.921875 
Q 6 25.140625 12.171875 29.828125 
Q 18.359375 34.515625 30.609375 34.515625 
L 43.21875 34.515625 
L 43.21875 35.40625 
Q 43.21875 41.609375 39.140625 45 
Q 35.0625 48.390625 27.6875 48.390625 
Q 23 48.390625 18.546875 47.265625 
Q 14.109375 46.140625 10.015625 43.890625 
L 10.015625 52.203125 
Q 14.9375 54.109375 19.578125 55.046875 
Q 24.21875 56 28.609375 56 
Q 40.484375 56 46.34375 49.84375 
Q 52.203125 43.703125 52.203125 31.203125 
z
" id="DejaVuSans-97"/>
      <path id="DejaVuSans-32"/>
      <path d="M 64.40625 67.28125 
L 64.40625 56.890625 
Q 59.421875 61.53125 53.78125 63.8125 
Q 48.140625 66.109375 41.796875 66.109375 
Q 29.296875 66.109375 22.65625 58.46875 
Q 16.015625 50.828125 16.015625 36.375 
Q 16.015625 21.96875 22.65625 14.328125 
Q 29.296875 6.6875 41.796875 6.6875 
Q 48.140625 6.6875 53.78125 8.984375 
Q 59.421875 11.28125 64.40625 15.921875 
L 64.40625 5.609375 
Q 59.234375 2.09375 53.4375 0.328125 
Q 47.65625 -1.421875 41.21875 -1.421875 
Q 24.65625 -1.421875 15.125 8.703125 
Q 5.609375 18.84375 5.609375 36.375 
Q 5.609375 53.953125 15.125 64.078125 
Q 24.65625 74.21875 41.21875 74.21875 
Q 47.75 74.21875 53.53125 72.484375 
Q 59.328125 70.75 64.40625 67.28125 
z
" id="DejaVuSans-67"/>
      <path d="M 52 44.1875 
Q 55.375 50.25 60.0625 53.125 
Q 64.75 56 71.09375 56 
Q 79.640625 56 84.28125 50.015625 
Q 88.921875 44.046875 88.921875 33.015625 
L 88.921875 0 
L 79.890625 0 
L 79.890625 32.71875 
Q 79.890625 40.578125 77.09375 44.375 
Q 74.3125 48.1875 68.609375 48.1875 
Q 61.625 48.1875 57.5625 43.546875 
Q 53.515625 38.921875 53.515625 30.90625 
L 53.515625 0 
L 44.484375 0 
L 44.484375 32.71875 
Q 44.484375 40.625 41.703125 44.40625 
Q 38.921875 48.1875 33.109375 48.1875 
Q 26.21875 48.1875 22.15625 43.53125 
Q 18.109375 38.875 18.109375 30.90625 
L 18.109375 0 
L 9.078125 0 
L 9.078125 54.6875 
L 18.109375 54.6875 
L 18.109375 46.1875 
Q 21.1875 51.21875 25.484375 53.609375 
Q 29.78125 56 35.6875 56 
Q 41.65625 56 45.828125 52.96875 
Q 50 49.953125 52 44.1875 
z
" id="DejaVuSans-109"/>
      <path d="M 8.5 21.578125 
L 8.5 54.6875 
L 17.484375 54.6875 
L 17.484375 21.921875 
Q 17.484375 14.15625 20.5 10.265625 
Q 23.53125 6.390625 29.59375 6.390625 
Q 36.859375 6.390625 41.078125 11.03125 
Q 45.3125 15.671875 45.3125 23.6875 
L 45.3125 54.6875 
L 54.296875 54.6875 
L 54.296875 0 
L 45.3125 0 
L 45.3125 8.40625 
Q 42.046875 3.421875 37.71875 1 
Q 33.40625 -1.421875 27.6875 -1.421875 
Q 18.265625 -1.421875 13.375 4.4375 
Q 8.5 10.296875 8.5 21.578125 
z
M 31.109375 56 
z
" id="DejaVuSans-117"/>
      <path d="M 54.890625 33.015625 
L 54.890625 0 
L 45.90625 0 
L 45.90625 32.71875 
Q 45.90625 40.484375 42.875 44.328125 
Q 39.84375 48.1875 33.796875 48.1875 
Q 26.515625 48.1875 22.3125 43.546875 
Q 18.109375 38.921875 18.109375 30.90625 
L 18.109375 0 
L 9.078125 0 
L 9.078125 54.6875 
L 18.109375 54.6875 
L 18.109375 46.1875 
Q 21.34375 51.125 25.703125 53.5625 
Q 30.078125 56 35.796875 56 
Q 45.21875 56 50.046875 50.171875 
Q 54.890625 44.34375 54.890625 33.015625 
z
" id="DejaVuSans-110"/>
      <path d="M 9.421875 54.6875 
L 18.40625 54.6875 
L 18.40625 0 
L 9.421875 0 
z
M 9.421875 75.984375 
L 18.40625 75.984375 
L 18.40625 64.59375 
L 9.421875 64.59375 
z
" id="DejaVuSans-105"/>
      <path d="M 48.78125 52.59375 
L 48.78125 44.1875 
Q 44.96875 46.296875 41.140625 47.34375 
Q 37.3125 48.390625 33.40625 48.390625 
Q 24.65625 48.390625 19.8125 42.84375 
Q 14.984375 37.3125 14.984375 27.296875 
Q 14.984375 17.28125 19.8125 11.734375 
Q 24.65625 6.203125 33.40625 6.203125 
Q 37.3125 6.203125 41.140625 7.25 
Q 44.96875 8.296875 48.78125 10.40625 
L 48.78125 2.09375 
Q 45.015625 0.34375 40.984375 -0.53125 
Q 36.96875 -1.421875 32.421875 -1.421875 
Q 20.0625 -1.421875 12.78125 6.34375 
Q 5.515625 14.109375 5.515625 27.296875 
Q 5.515625 40.671875 12.859375 48.328125 
Q 20.21875 56 33.015625 56 
Q 37.15625 56 41.109375 55.140625 
Q 45.0625 54.296875 48.78125 52.59375 
z
" id="DejaVuSans-99"/>
      <path d="M 18.3125 70.21875 
L 18.3125 54.6875 
L 36.8125 54.6875 
L 36.8125 47.703125 
L 18.3125 47.703125 
L 18.3125 18.015625 
Q 18.3125 11.328125 20.140625 9.421875 
Q 21.96875 7.515625 27.59375 7.515625 
L 36.8125 7.515625 
L 36.8125 0 
L 27.59375 0 
Q 17.1875 0 13.234375 3.875 
Q 9.28125 7.765625 9.28125 18.015625 
L 9.28125 47.703125 
L 2.6875 47.703125 
L 2.6875 54.6875 
L 9.28125 54.6875 
L 9.28125 70.21875 
z
" id="DejaVuSans-116"/>
      <path d="M 44.390625 34.1875 
Q 47.5625 33.109375 50.5625 29.59375 
Q 53.5625 26.078125 56.59375 19.921875 
L 66.609375 0 
L 56 0 
L 46.6875 18.703125 
Q 43.0625 26.03125 39.671875 28.421875 
Q 36.28125 30.8125 30.421875 30.8125 
L 19.671875 30.8125 
L 19.671875 0 
L 9.8125 0 
L 9.8125 72.90625 
L 32.078125 72.90625 
Q 44.578125 72.90625 50.734375 67.671875 
Q 56.890625 62.453125 56.890625 51.90625 
Q 56.890625 45.015625 53.6875 40.46875 
Q 50.484375 35.9375 44.390625 34.1875 
z
M 19.671875 64.796875 
L 19.671875 38.921875 
L 32.078125 38.921875 
Q 39.203125 38.921875 42.84375 42.21875 
Q 46.484375 45.515625 46.484375 51.90625 
Q 46.484375 58.296875 42.84375 61.546875 
Q 39.203125 64.796875 32.078125 64.796875 
z
" id="DejaVuSans-82"/>
      <path d="M 45.40625 46.390625 
L 45.40625 75.984375 
L 54.390625 75.984375 
L 54.390625 0 
L 45.40625 0 
L 45.40625 8.203125 
Q 42.578125 3.328125 38.25 0.953125 
Q 33.9375 -1.421875 27.875 -1.421875 
Q 17.96875 -1.421875 11.734375 6.484375 
Q 5.515625 14.40625 5.515625 27.296875 
Q 5.515625 40.1875 11.734375 48.09375 
Q 17.96875 56 27.875 56 
Q 33.9375 56 38.25 53.625 
Q 42.578125 51.265625 45.40625 46.390625 
z
M 14.796875 27.296875 
Q 14.796875 17.390625 18.875 11.75 
Q 22.953125 6.109375 30.078125 6.109375 
Q 37.203125 6.109375 41.296875 11.75 
Q 45.40625 17.390625 45.40625 27.296875 
Q 45.40625 37.203125 41.296875 42.84375 
Q 37.203125 48.484375 30.078125 48.484375 
Q 22.953125 48.484375 18.875 42.84375 
Q 14.796875 37.203125 14.796875 27.296875 
z
" id="DejaVuSans-100"/>
      <path d="M 44.28125 53.078125 
L 44.28125 44.578125 
Q 40.484375 46.53125 36.375 47.5 
Q 32.28125 48.484375 27.875 48.484375 
Q 21.1875 48.484375 17.84375 46.4375 
Q 14.5 44.390625 14.5 40.28125 
Q 14.5 37.15625 16.890625 35.375 
Q 19.28125 33.59375 26.515625 31.984375 
L 29.59375 31.296875 
Q 39.15625 29.25 43.1875 25.515625 
Q 47.21875 21.78125 47.21875 15.09375 
Q 47.21875 7.46875 41.1875 3.015625 
Q 35.15625 -1.421875 24.609375 -1.421875 
Q 20.21875 -1.421875 15.453125 -0.5625 
Q 10.6875 0.296875 5.421875 2 
L 5.421875 11.28125 
Q 10.40625 8.6875 15.234375 7.390625 
Q 20.0625 6.109375 24.8125 6.109375 
Q 31.15625 6.109375 34.5625 8.28125 
Q 37.984375 10.453125 37.984375 14.40625 
Q 37.984375 18.0625 35.515625 20.015625 
Q 33.0625 21.96875 24.703125 23.78125 
L 21.578125 24.515625 
Q 13.234375 26.265625 9.515625 29.90625 
Q 5.8125 33.546875 5.8125 39.890625 
Q 5.8125 47.609375 11.28125 51.796875 
Q 16.75 56 26.8125 56 
Q 31.78125 56 36.171875 55.265625 
Q 40.578125 54.546875 44.28125 53.078125 
z
" id="DejaVuSans-115"/>
     </defs>
     <g transform="translate(193.207422 411.714844)scale(0.15 -0.15)">
      <use xlink:href="#DejaVuSans-71"/>
      <use x="77.490234" xlink:href="#DejaVuSans-108"/>
      <use x="105.273438" xlink:href="#DejaVuSans-111"/>
      <use x="166.455078" xlink:href="#DejaVuSans-98"/>
      <use x="229.931641" xlink:href="#DejaVuSans-97"/>
      <use x="291.210938" xlink:href="#DejaVuSans-108"/>
      <use x="318.994141" xlink:href="#DejaVuSans-32"/>
      <use x="350.78125" xlink:href="#DejaVuSans-67"/>
      <use x="420.605469" xlink:href="#DejaVuSans-111"/>
      <use x="481.787109" xlink:href="#DejaVuSans-109"/>
      <use x="579.199219" xlink:href="#DejaVuSans-109"/>
      <use x="676.611328" xlink:href="#DejaVuSans-117"/>
      <use x="739.990234" xlink:href="#DejaVuSans-110"/>
      <use x="803.369141" xlink:href="#DejaVuSans-105"/>
      <use x="831.152344" xlink:href="#DejaVuSans-99"/>
      <use x="886.132812" xlink:href="#DejaVuSans-97"/>
      <use x="947.412109" xlink:href="#DejaVuSans-116"/>
      <use x="986.621094" xlink:href="#DejaVuSans-105"/>
      <use x="1014.404297" xlink:href="#DejaVuSans-111"/>
      <use x="1075.585938" xlink:href="#DejaVuSans-110"/>
      <use x="1138.964844" xlink:href="#DejaVuSans-32"/>
      <use x="1170.751953" xlink:href="#DejaVuSans-82"/>
      <use x="1235.734375" xlink:href="#DejaVuSans-111"/>
      <use x="1296.916016" xlink:href="#DejaVuSans-117"/>
      <use x="1360.294922" xlink:href="#DejaVuSans-110"/>
      <use x="1423.673828" xlink:href="#DejaVuSans-100"/>
      <use x="1487.150391" xlink:href="#DejaVuSans-115"/>
     </g>
    </g>
   </g>
   <g id="matplotlib.axis_2">
    <g id="ytick_1">
     <g id="line2d_7">
      <defs>
       <path d="M 0 0 
L -3.5 0 
" id="mc162605dea" style="stroke:#000000;stroke-width:0.8;"/>
      </defs>
      <g>
       <use style="stroke:#000000;stroke-width:0.8;" x="61.2" xlink:href="#mc162605dea" y="366.260781"/>
      </g>
     </g>
     <g id="text_8">
      <!-- 75 -->
      <defs>
       <path d="M 8.203125 72.90625 
L 55.078125 72.90625 
L 55.078125 68.703125 
L 28.609375 0 
L 18.3125 0 
L 43.21875 64.59375 
L 8.203125 64.59375 
z
" id="DejaVuSans-55"/>
      </defs>
      <g transform="translate(35.1125 371.959609)scale(0.15 -0.15)">
       <use xlink:href="#DejaVuSans-55"/>
       <use x="63.623047" xlink:href="#DejaVuSans-53"/>
      </g>
     </g>
    </g>
    <g id="ytick_2">
     <g id="line2d_8">
      <g>
       <use style="stroke:#000000;stroke-width:0.8;" x="61.2" xlink:href="#mc162605dea" y="303.126308"/>
      </g>
     </g>
     <g id="text_9">
      <!-- 80 -->
      <defs>
       <path d="M 31.78125 34.625 
Q 24.75 34.625 20.71875 30.859375 
Q 16.703125 27.09375 16.703125 20.515625 
Q 16.703125 13.921875 20.71875 10.15625 
Q 24.75 6.390625 31.78125 6.390625 
Q 38.8125 6.390625 42.859375 10.171875 
Q 46.921875 13.96875 46.921875 20.515625 
Q 46.921875 27.09375 42.890625 30.859375 
Q 38.875 34.625 31.78125 34.625 
z
M 21.921875 38.8125 
Q 15.578125 40.375 12.03125 44.71875 
Q 8.5 49.078125 8.5 55.328125 
Q 8.5 64.0625 14.71875 69.140625 
Q 20.953125 74.21875 31.78125 74.21875 
Q 42.671875 74.21875 48.875 69.140625 
Q 55.078125 64.0625 55.078125 55.328125 
Q 55.078125 49.078125 51.53125 44.71875 
Q 48 40.375 41.703125 38.8125 
Q 48.828125 37.15625 52.796875 32.3125 
Q 56.78125 27.484375 56.78125 20.515625 
Q 56.78125 9.90625 50.3125 4.234375 
Q 43.84375 -1.421875 31.78125 -1.421875 
Q 19.734375 -1.421875 13.25 4.234375 
Q 6.78125 9.90625 6.78125 20.515625 
Q 6.78125 27.484375 10.78125 32.3125 
Q 14.796875 37.15625 21.921875 38.8125 
z
M 18.3125 54.390625 
Q 18.3125 48.734375 21.84375 45.5625 
Q 25.390625 42.390625 31.78125 42.390625 
Q 38.140625 42.390625 41.71875 45.5625 
Q 45.3125 48.734375 45.3125 54.390625 
Q 45.3125 60.0625 41.71875 63.234375 
Q 38.140625 66.40625 31.78125 66.40625 
Q 25.390625 66.40625 21.84375 63.234375 
Q 18.3125 60.0625 18.3125 54.390625 
z
" id="DejaVuSans-56"/>
      </defs>
      <g transform="translate(35.1125 308.825136)scale(0.15 -0.15)">
       <use xlink:href="#DejaVuSans-56"/>
       <use x="63.623047" xlink:href="#DejaVuSans-48"/>
      </g>
     </g>
    </g>
    <g id="ytick_3">
     <g id="line2d_9">
      <g>
       <use style="stroke:#000000;stroke-width:0.8;" x="61.2" xlink:href="#mc162605dea" y="239.991835"/>
      </g>
     </g>
     <g id="text_10">
      <!-- 85 -->
      <g transform="translate(35.1125 245.690663)scale(0.15 -0.15)">
       <use xlink:href="#DejaVuSans-56"/>
       <use x="63.623047" xlink:href="#DejaVuSans-53"/>
      </g>
     </g>
    </g>
    <g id="ytick_4">
     <g id="line2d_10">
      <g>
       <use style="stroke:#000000;stroke-width:0.8;" x="61.2" xlink:href="#mc162605dea" y="176.857362"/>
      </g>
     </g>
     <g id="text_11">
      <!-- 90 -->
      <defs>
       <path d="M 10.984375 1.515625 
L 10.984375 10.5 
Q 14.703125 8.734375 18.5 7.8125 
Q 22.3125 6.890625 25.984375 6.890625 
Q 35.75 6.890625 40.890625 13.453125 
Q 46.046875 20.015625 46.78125 33.40625 
Q 43.953125 29.203125 39.59375 26.953125 
Q 35.25 24.703125 29.984375 24.703125 
Q 19.046875 24.703125 12.671875 31.3125 
Q 6.296875 37.9375 6.296875 49.421875 
Q 6.296875 60.640625 12.9375 67.421875 
Q 19.578125 74.21875 30.609375 74.21875 
Q 43.265625 74.21875 49.921875 64.515625 
Q 56.59375 54.828125 56.59375 36.375 
Q 56.59375 19.140625 48.40625 8.859375 
Q 40.234375 -1.421875 26.421875 -1.421875 
Q 22.703125 -1.421875 18.890625 -0.6875 
Q 15.09375 0.046875 10.984375 1.515625 
z
M 30.609375 32.421875 
Q 37.25 32.421875 41.125 36.953125 
Q 45.015625 41.5 45.015625 49.421875 
Q 45.015625 57.28125 41.125 61.84375 
Q 37.25 66.40625 30.609375 66.40625 
Q 23.96875 66.40625 20.09375 61.84375 
Q 16.21875 57.28125 16.21875 49.421875 
Q 16.21875 41.5 20.09375 36.953125 
Q 23.96875 32.421875 30.609375 32.421875 
z
" id="DejaVuSans-57"/>
      </defs>
      <g transform="translate(35.1125 182.556191)scale(0.15 -0.15)">
       <use xlink:href="#DejaVuSans-57"/>
       <use x="63.623047" xlink:href="#DejaVuSans-48"/>
      </g>
     </g>
    </g>
    <g id="ytick_5">
     <g id="line2d_11">
      <g>
       <use style="stroke:#000000;stroke-width:0.8;" x="61.2" xlink:href="#mc162605dea" y="113.72289"/>
      </g>
     </g>
     <g id="text_12">
      <!-- 95 -->
      <g transform="translate(35.1125 119.421718)scale(0.15 -0.15)">
       <use xlink:href="#DejaVuSans-57"/>
       <use x="63.623047" xlink:href="#DejaVuSans-53"/>
      </g>
     </g>
    </g>
    <g id="text_13">
     <!-- Test Accuracy -->
     <defs>
      <path d="M -0.296875 72.90625 
L 61.375 72.90625 
L 61.375 64.59375 
L 35.5 64.59375 
L 35.5 0 
L 25.59375 0 
L 25.59375 64.59375 
L -0.296875 64.59375 
z
" id="DejaVuSans-84"/>
      <path d="M 56.203125 29.59375 
L 56.203125 25.203125 
L 14.890625 25.203125 
Q 15.484375 15.921875 20.484375 11.0625 
Q 25.484375 6.203125 34.421875 6.203125 
Q 39.59375 6.203125 44.453125 7.46875 
Q 49.3125 8.734375 54.109375 11.28125 
L 54.109375 2.78125 
Q 49.265625 0.734375 44.1875 -0.34375 
Q 39.109375 -1.421875 33.890625 -1.421875 
Q 20.796875 -1.421875 13.15625 6.1875 
Q 5.515625 13.8125 5.515625 26.8125 
Q 5.515625 40.234375 12.765625 48.109375 
Q 20.015625 56 32.328125 56 
Q 43.359375 56 49.78125 48.890625 
Q 56.203125 41.796875 56.203125 29.59375 
z
M 47.21875 32.234375 
Q 47.125 39.59375 43.09375 43.984375 
Q 39.0625 48.390625 32.421875 48.390625 
Q 24.90625 48.390625 20.390625 44.140625 
Q 15.875 39.890625 15.1875 32.171875 
z
" id="DejaVuSans-101"/>
      <path d="M 34.1875 63.1875 
L 20.796875 26.90625 
L 47.609375 26.90625 
z
M 28.609375 72.90625 
L 39.796875 72.90625 
L 67.578125 0 
L 57.328125 0 
L 50.6875 18.703125 
L 17.828125 18.703125 
L 11.1875 0 
L 0.78125 0 
z
" id="DejaVuSans-65"/>
      <path d="M 41.109375 46.296875 
Q 39.59375 47.171875 37.8125 47.578125 
Q 36.03125 48 33.890625 48 
Q 26.265625 48 22.1875 43.046875 
Q 18.109375 38.09375 18.109375 28.8125 
L 18.109375 0 
L 9.078125 0 
L 9.078125 54.6875 
L 18.109375 54.6875 
L 18.109375 46.1875 
Q 20.953125 51.171875 25.484375 53.578125 
Q 30.03125 56 36.53125 56 
Q 37.453125 56 38.578125 55.875 
Q 39.703125 55.765625 41.0625 55.515625 
z
" id="DejaVuSans-114"/>
      <path d="M 32.171875 -5.078125 
Q 28.375 -14.84375 24.75 -17.8125 
Q 21.140625 -20.796875 15.09375 -20.796875 
L 7.90625 -20.796875 
L 7.90625 -13.28125 
L 13.1875 -13.28125 
Q 16.890625 -13.28125 18.9375 -11.515625 
Q 21 -9.765625 23.484375 -3.21875 
L 25.09375 0.875 
L 2.984375 54.6875 
L 12.5 54.6875 
L 29.59375 11.921875 
L 46.6875 54.6875 
L 56.203125 54.6875 
z
" id="DejaVuSans-121"/>
     </defs>
     <g transform="translate(27.992969 267.017859)rotate(-90)scale(0.15 -0.15)">
      <use xlink:href="#DejaVuSans-84"/>
      <use x="44.083984" xlink:href="#DejaVuSans-101"/>
      <use x="105.607422" xlink:href="#DejaVuSans-115"/>
      <use x="157.707031" xlink:href="#DejaVuSans-116"/>
      <use x="196.916016" xlink:href="#DejaVuSans-32"/>
      <use x="228.703125" xlink:href="#DejaVuSans-65"/>
      <use x="295.361328" xlink:href="#DejaVuSans-99"/>
      <use x="350.341797" xlink:href="#DejaVuSans-99"/>
      <use x="405.322266" xlink:href="#DejaVuSans-117"/>
      <use x="468.701172" xlink:href="#DejaVuSans-114"/>
      <use x="509.814453" xlink:href="#DejaVuSans-97"/>
      <use x="571.09375" xlink:href="#DejaVuSans-99"/>
      <use x="626.074219" xlink:href="#DejaVuSans-121"/>
     </g>
    </g>
   </g>
   <g id="line2d_12">
    <path clip-path="url(#p557dd59e19)" d="M 83.695455 200.832479 
L 92.877273 128.267793 
L 102.059091 122.513765 
L 111.240909 116.120401 
L 120.422727 113.563055 
L 129.604545 106.850023 
L 138.786364 104.932014 
L 147.968182 105.251682 
L 157.15 101.415663 
L 166.331818 95.981303 
L 175.513636 98.218981 
L 184.695455 98.218981 
L 193.877273 96.300972 
L 203.059091 93.743626 
L 212.240909 92.145285 
L 221.422727 91.18628 
L 230.604545 93.10429 
L 239.786364 90.227276 
L 248.968182 87.989598 
L 258.15 88.628934 
L 267.331818 87.66993 
L 276.513636 87.350262 
L 285.695455 87.030593 
L 294.877273 86.071589 
L 304.059091 87.030593 
L 313.240909 84.473248 
L 322.422727 84.792916 
L 331.604545 84.153579 
L 340.786364 83.833911 
L 349.968182 83.514243 
L 359.15 80.956897 
L 368.331818 82.555238 
L 377.513636 81.276566 
L 386.695455 79.997893 
L 395.877273 81.596234 
L 405.059091 80.317561 
L 414.240909 81.596234 
L 423.422727 82.23557 
L 432.604545 77.760215 
L 441.786364 79.678224 
L 450.968182 78.399552 
L 460.15 80.317561 
L 469.331818 78.399552 
L 478.513636 74.563533 
L 487.695455 78.71922 
L 496.877273 75.522538 
L 506.059091 75.522538 
L 515.240909 78.399552 
L 524.422727 78.399552 
L 533.604545 76.161874 
" style="fill:none;stroke:#1f77b4;stroke-linecap:square;stroke-width:1.5;"/>
   </g>
   <g id="line2d_13">
    <path clip-path="url(#p557dd59e19)" d="M 83.695455 232.159964 
L 92.877273 132.42348 
L 102.059091 126.349784 
L 111.240909 121.235093 
L 120.422727 113.243387 
L 129.604545 111.00571 
L 138.786364 106.850023 
L 147.968182 104.612345 
L 157.15 101.095995 
L 166.331818 98.538649 
L 175.513636 99.177986 
L 184.695455 97.579645 
L 193.877273 96.62064 
L 203.059091 96.300972 
L 212.240909 94.063294 
L 221.422727 93.743626 
L 230.604545 95.341967 
L 239.786364 94.063294 
L 248.968182 91.825617 
L 258.15 90.546944 
L 267.331818 91.505948 
L 276.513636 89.587939 
L 285.695455 91.825617 
L 294.877273 92.145285 
L 304.059091 91.505948 
L 313.240909 91.505948 
L 322.422727 89.268271 
L 331.604545 87.350262 
L 340.786364 88.948603 
L 349.968182 91.18628 
L 359.15 86.391257 
L 368.331818 87.989598 
L 377.513636 87.030593 
L 386.695455 87.989598 
L 395.877273 87.66993 
L 405.059091 85.751921 
L 414.240909 84.473248 
L 423.422727 86.391257 
L 432.604545 85.432252 
L 441.786364 84.473248 
L 450.968182 84.473248 
L 460.15 84.473248 
L 469.331818 85.112584 
L 478.513636 84.792916 
L 487.695455 83.514243 
L 496.877273 82.555238 
L 506.059091 84.792916 
L 515.240909 84.473248 
L 524.422727 82.555238 
L 533.604545 84.792916 
" style="fill:none;stroke:#ff7f0e;stroke-linecap:square;stroke-width:1.5;"/>
   </g>
   <g id="line2d_14">
    <path clip-path="url(#p557dd59e19)" d="M 83.695455 164.70997 
L 92.877273 132.743148 
L 102.059091 125.071111 
L 111.240909 116.759738 
L 120.422727 112.604051 
L 129.604545 106.850023 
L 138.786364 105.251682 
L 147.968182 101.415663 
L 157.15 100.456659 
L 166.331818 98.538649 
L 175.513636 96.62064 
L 184.695455 97.259976 
L 193.877273 96.300972 
L 203.059091 94.063294 
L 212.240909 93.423958 
L 221.422727 94.382962 
L 230.604545 93.423958 
L 239.786364 92.145285 
L 248.968182 89.907607 
L 258.15 90.227276 
L 267.331818 89.268271 
L 276.513636 88.948603 
L 285.695455 88.948603 
L 294.877273 88.309266 
L 304.059091 88.948603 
L 313.240909 86.071589 
L 322.422727 87.989598 
L 331.604545 86.710925 
L 340.786364 86.710925 
L 349.968182 85.112584 
L 359.15 86.391257 
L 368.331818 85.432252 
L 377.513636 83.514243 
L 386.695455 83.514243 
L 395.877273 84.473248 
L 405.059091 84.792916 
L 414.240909 84.153579 
L 423.422727 83.833911 
L 432.604545 84.153579 
L 441.786364 83.194575 
L 450.968182 83.514243 
L 460.15 83.833911 
L 469.331818 81.915902 
L 478.513636 81.915902 
L 487.695455 79.678224 
L 496.877273 81.915902 
L 506.059091 81.276566 
L 515.240909 80.956897 
L 524.422727 81.596234 
L 533.604545 82.23557 
" style="fill:none;stroke:#2ca02c;stroke-linecap:square;stroke-width:1.5;"/>
   </g>
   <g id="line2d_15">
    <path clip-path="url(#p557dd59e19)" d="M 83.695455 336.057249 
L 92.877273 205.015337 
L 102.059091 175.44315 
L 111.240909 163.674884 
L 120.422727 158.043289 
L 129.604545 153.497607 
L 138.786364 149.330732 
L 147.968182 146.350785 
L 157.15 143.269823 
L 166.331818 140.845459 
L 175.513636 138.976679 
L 184.695455 137.436198 
L 193.877273 135.643179 
L 203.059091 133.648129 
L 212.240909 132.107648 
L 221.422727 130.71869 
L 230.604545 129.127701 
L 239.786364 127.460951 
L 248.968182 126.147754 
L 258.15 124.683034 
L 267.331818 123.571867 
L 276.513636 122.233416 
L 285.695455 121.475803 
L 294.877273 120.288875 
L 304.059091 119.65753 
L 313.240909 119.076693 
L 322.422727 118.369587 
L 331.604545 117.839257 
L 340.786364 117.106897 
L 349.968182 116.223015 
L 359.15 115.717939 
L 368.331818 115.313878 
L 377.513636 114.682534 
L 386.695455 114.152204 
L 395.877273 114.12695 
L 405.059091 113.369336 
L 414.240909 113.041037 
L 423.422727 112.611723 
L 432.604545 112.359185 
L 441.786364 112.131901 
L 450.968182 111.551064 
L 460.15 111.52581 
L 469.331818 111.020734 
L 478.513636 110.566166 
L 487.695455 110.288374 
L 496.877273 110.313628 
L 506.059091 110.187359 
L 515.240909 110.010583 
L 524.422727 109.657029 
L 533.604545 109.581268 
" style="fill:none;stroke:#d62728;stroke-linecap:square;stroke-width:1.5;"/>
   </g>
   <g id="patch_3">
    <path d="M 61.2 374.8 
L 61.2 56.448219 
" style="fill:none;stroke:#000000;stroke-linecap:square;stroke-linejoin:miter;stroke-width:0.8;"/>
   </g>
   <g id="patch_4">
    <path d="M 556.1 374.8 
L 556.1 56.448219 
" style="fill:none;stroke:#000000;stroke-linecap:square;stroke-linejoin:miter;stroke-width:0.8;"/>
   </g>
   <g id="patch_5">
    <path d="M 61.2 374.8 
L 556.1 374.8 
" style="fill:none;stroke:#000000;stroke-linecap:square;stroke-linejoin:miter;stroke-width:0.8;"/>
   </g>
   <g id="patch_6">
    <path d="M 61.2 56.448219 
L 556.1 56.448219 
" style="fill:none;stroke:#000000;stroke-linecap:square;stroke-linejoin:miter;stroke-width:0.8;"/>
   </g>
   <g id="legend_1">
    <g id="patch_7">
     <path d="M 59.052344 42.712639 
L 558.247656 42.712639 
Q 561.247656 42.712639 561.247656 39.712639 
L 561.247656 19.195452 
Q 561.247656 16.195452 558.247656 16.195452 
L 59.052344 16.195452 
Q 56.052344 16.195452 56.052344 19.195452 
L 56.052344 39.712639 
Q 56.052344 42.712639 59.052344 42.712639 
z
" style="fill:#ffffff;opacity:0.8;stroke:#cccccc;stroke-linejoin:miter;"/>
    </g>
    <g id="line2d_16">
     <path d="M 62.052344 28.343108 
L 92.052344 28.343108 
" style="fill:none;stroke:#1f77b4;stroke-linecap:square;stroke-width:1.5;"/>
    </g>
    <g id="line2d_17"/>
    <g id="text_14">
     <!-- FedAvg -->
     <defs>
      <path d="M 9.8125 72.90625 
L 51.703125 72.90625 
L 51.703125 64.59375 
L 19.671875 64.59375 
L 19.671875 43.109375 
L 48.578125 43.109375 
L 48.578125 34.8125 
L 19.671875 34.8125 
L 19.671875 0 
L 9.8125 0 
z
" id="DejaVuSans-70"/>
      <path d="M 2.984375 54.6875 
L 12.5 54.6875 
L 29.59375 8.796875 
L 46.6875 54.6875 
L 56.203125 54.6875 
L 35.6875 0 
L 23.484375 0 
z
" id="DejaVuSans-118"/>
      <path d="M 45.40625 27.984375 
Q 45.40625 37.75 41.375 43.109375 
Q 37.359375 48.484375 30.078125 48.484375 
Q 22.859375 48.484375 18.828125 43.109375 
Q 14.796875 37.75 14.796875 27.984375 
Q 14.796875 18.265625 18.828125 12.890625 
Q 22.859375 7.515625 30.078125 7.515625 
Q 37.359375 7.515625 41.375 12.890625 
Q 45.40625 18.265625 45.40625 27.984375 
z
M 54.390625 6.78125 
Q 54.390625 -7.171875 48.1875 -13.984375 
Q 42 -20.796875 29.203125 -20.796875 
Q 24.46875 -20.796875 20.265625 -20.09375 
Q 16.0625 -19.390625 12.109375 -17.921875 
L 12.109375 -9.1875 
Q 16.0625 -11.328125 19.921875 -12.34375 
Q 23.78125 -13.375 27.78125 -13.375 
Q 36.625 -13.375 41.015625 -8.765625 
Q 45.40625 -4.15625 45.40625 5.171875 
L 45.40625 9.625 
Q 42.625 4.78125 38.28125 2.390625 
Q 33.9375 0 27.875 0 
Q 17.828125 0 11.671875 7.65625 
Q 5.515625 15.328125 5.515625 27.984375 
Q 5.515625 40.671875 11.671875 48.328125 
Q 17.828125 56 27.875 56 
Q 33.9375 56 38.28125 53.609375 
Q 42.625 51.21875 45.40625 46.390625 
L 45.40625 54.6875 
L 54.390625 54.6875 
z
" id="DejaVuSans-103"/>
     </defs>
     <g transform="translate(104.052344 33.593108)scale(0.15 -0.15)">
      <use xlink:href="#DejaVuSans-70"/>
      <use x="52.019531" xlink:href="#DejaVuSans-101"/>
      <use x="113.542969" xlink:href="#DejaVuSans-100"/>
      <use x="177.019531" xlink:href="#DejaVuSans-65"/>
      <use x="239.552734" xlink:href="#DejaVuSans-118"/>
      <use x="298.732422" xlink:href="#DejaVuSans-103"/>
     </g>
    </g>
    <g id="line2d_18">
     <path d="M 188.3875 28.343108 
L 218.3875 28.343108 
" style="fill:none;stroke:#ff7f0e;stroke-linecap:square;stroke-width:1.5;"/>
    </g>
    <g id="line2d_19"/>
    <g id="text_15">
     <!-- FedMed -->
     <defs>
      <path d="M 9.8125 72.90625 
L 24.515625 72.90625 
L 43.109375 23.296875 
L 61.8125 72.90625 
L 76.515625 72.90625 
L 76.515625 0 
L 66.890625 0 
L 66.890625 64.015625 
L 48.09375 14.015625 
L 38.1875 14.015625 
L 19.390625 64.015625 
L 19.390625 0 
L 9.8125 0 
z
" id="DejaVuSans-77"/>
     </defs>
     <g transform="translate(230.3875 33.593108)scale(0.15 -0.15)">
      <use xlink:href="#DejaVuSans-70"/>
      <use x="52.019531" xlink:href="#DejaVuSans-101"/>
      <use x="113.542969" xlink:href="#DejaVuSans-100"/>
      <use x="177.019531" xlink:href="#DejaVuSans-77"/>
      <use x="263.298828" xlink:href="#DejaVuSans-101"/>
      <use x="324.822266" xlink:href="#DejaVuSans-100"/>
     </g>
    </g>
    <g id="line2d_20">
     <path d="M 318.636719 28.343108 
L 348.636719 28.343108 
" style="fill:none;stroke:#2ca02c;stroke-linecap:square;stroke-width:1.5;"/>
    </g>
    <g id="line2d_21"/>
    <g id="text_16">
     <!-- FedProx -->
     <defs>
      <path d="M 19.671875 64.796875 
L 19.671875 37.40625 
L 32.078125 37.40625 
Q 38.96875 37.40625 42.71875 40.96875 
Q 46.484375 44.53125 46.484375 51.125 
Q 46.484375 57.671875 42.71875 61.234375 
Q 38.96875 64.796875 32.078125 64.796875 
z
M 9.8125 72.90625 
L 32.078125 72.90625 
Q 44.34375 72.90625 50.609375 67.359375 
Q 56.890625 61.8125 56.890625 51.125 
Q 56.890625 40.328125 50.609375 34.8125 
Q 44.34375 29.296875 32.078125 29.296875 
L 19.671875 29.296875 
L 19.671875 0 
L 9.8125 0 
z
" id="DejaVuSans-80"/>
      <path d="M 54.890625 54.6875 
L 35.109375 28.078125 
L 55.90625 0 
L 45.3125 0 
L 29.390625 21.484375 
L 13.484375 0 
L 2.875 0 
L 24.125 28.609375 
L 4.6875 54.6875 
L 15.28125 54.6875 
L 29.78125 35.203125 
L 44.28125 54.6875 
z
" id="DejaVuSans-120"/>
     </defs>
     <g transform="translate(360.636719 33.593108)scale(0.15 -0.15)">
      <use xlink:href="#DejaVuSans-70"/>
      <use x="52.019531" xlink:href="#DejaVuSans-101"/>
      <use x="113.542969" xlink:href="#DejaVuSans-100"/>
      <use x="177.019531" xlink:href="#DejaVuSans-80"/>
      <use x="235.572266" xlink:href="#DejaVuSans-114"/>
      <use x="274.435547" xlink:href="#DejaVuSans-111"/>
      <use x="332.492188" xlink:href="#DejaVuSans-120"/>
     </g>
    </g>
    <g id="line2d_22">
     <path d="M 449.389844 28.343108 
L 479.389844 28.343108 
" style="fill:none;stroke:#d62728;stroke-linecap:square;stroke-width:1.5;"/>
    </g>
    <g id="line2d_23"/>
    <g id="text_17">
     <!-- qFedAvg -->
     <defs>
      <path d="M 14.796875 27.296875 
Q 14.796875 17.390625 18.875 11.75 
Q 22.953125 6.109375 30.078125 6.109375 
Q 37.203125 6.109375 41.296875 11.75 
Q 45.40625 17.390625 45.40625 27.296875 
Q 45.40625 37.203125 41.296875 42.84375 
Q 37.203125 48.484375 30.078125 48.484375 
Q 22.953125 48.484375 18.875 42.84375 
Q 14.796875 37.203125 14.796875 27.296875 
z
M 45.40625 8.203125 
Q 42.578125 3.328125 38.25 0.953125 
Q 33.9375 -1.421875 27.875 -1.421875 
Q 17.96875 -1.421875 11.734375 6.484375 
Q 5.515625 14.40625 5.515625 27.296875 
Q 5.515625 40.1875 11.734375 48.09375 
Q 17.96875 56 27.875 56 
Q 33.9375 56 38.25 53.625 
Q 42.578125 51.265625 45.40625 46.390625 
L 45.40625 54.6875 
L 54.390625 54.6875 
L 54.390625 -20.796875 
L 45.40625 -20.796875 
z
" id="DejaVuSans-113"/>
     </defs>
     <g transform="translate(491.389844 33.593108)scale(0.15 -0.15)">
      <use xlink:href="#DejaVuSans-113"/>
      <use x="63.476562" xlink:href="#DejaVuSans-70"/>
      <use x="115.496094" xlink:href="#DejaVuSans-101"/>
      <use x="177.019531" xlink:href="#DejaVuSans-100"/>
      <use x="240.496094" xlink:href="#DejaVuSans-65"/>
      <use x="303.029297" xlink:href="#DejaVuSans-118"/>
      <use x="362.208984" xlink:href="#DejaVuSans-103"/>
     </g>
    </g>
   </g>
  </g>
 </g>
 <defs>
  <clipPath id="p557dd59e19">
   <rect height="318.351781" width="494.9" x="61.2" y="56.448219"/>
  </clipPath>
 </defs>
</svg>
