<?xml version="1.0" encoding="utf-8" standalone="no"?>
<!DOCTYPE svg PUBLIC "-//W3C//DTD SVG 1.1//EN"
  "http://www.w3.org/Graphics/SVG/1.1/DTD/svg11.dtd">
<!-- Created with matplotlib (https://matplotlib.org/) -->
<svg height="432pt" version="1.1" viewBox="0 0 576 432" width="576pt" xmlns="http://www.w3.org/2000/svg" xmlns:xlink="http://www.w3.org/1999/xlink">
 <defs>
  <style type="text/css">
*{stroke-linecap:butt;stroke-linejoin:round;}
  </style>
 </defs>
 <g id="figure_1">
  <g id="patch_1">
   <path d="M 0 432 
L 576 432 
L 576 0 
L 0 0 
z
" style="fill:#ffffff;"/>
  </g>
  <g id="axes_1">
   <g id="patch_2">
    <path d="M 70.7 374.8 
L 551.35 374.8 
L 551.35 56.448219 
L 70.7 56.448219 
z
" style="fill:#ffffff;"/>
   </g>
   <g id="PolyCollection_1">
    <path clip-path="url(#pe937e387e2)" d="M 92.547727 286.612015 
L 92.547727 315.474103 
L 101.465167 216.388753 
L 110.382607 192.55225 
L 119.300046 165.14711 
L 128.217486 154.580797 
L 137.134926 142.349969 
L 146.052365 136.940863 
L 154.969805 132.129743 
L 163.887245 119.817859 
L 172.804685 113.683925 
L 181.722124 108.604811 
L 190.639564 106.197935 
L 199.557004 103.134738 
L 208.474443 102.625179 
L 217.391883 101.193448 
L 226.309323 101.747454 
L 235.226763 95.368307 
L 244.144202 94.766041 
L 253.061642 99.166875 
L 261.979082 93.672026 
L 270.896521 97.273706 
L 279.813961 102.040724 
L 288.731401 97.73387 
L 297.64884 96.462322 
L 306.56628 94.766041 
L 315.48372 93.672026 
L 324.40116 92.086263 
L 333.318599 93.672026 
L 342.236039 97.273706 
L 351.153479 96.277381 
L 360.070918 96.57065 
L 368.988358 89.898234 
L 377.905798 98.412217 
L 386.823237 93.991662 
L 395.740677 96.277381 
L 404.658117 90.807307 
L 413.575557 101.055038 
L 422.492996 87.599687 
L 431.410436 93.696801 
L 440.327876 95.723375 
L 449.245315 91.100577 
L 458.162755 92.467493 
L 467.080195 86.724519 
L 475.997635 83.051515 
L 484.915074 88.566085 
L 493.832514 86.99742 
L 502.749954 84.317643 
L 511.667393 83.051515 
L 520.584833 88.619278 
L 529.502273 86.724519 
L 529.502273 75.567715 
L 529.502273 75.567715 
L 520.584833 75.860985 
L 511.667393 74.864659 
L 502.749954 73.598532 
L 493.832514 70.918755 
L 484.915074 73.726148 
L 475.997635 74.864659 
L 467.080195 75.567715 
L 458.162755 76.388828 
L 449.245315 79.943773 
L 440.327876 81.885063 
L 431.410436 83.911637 
L 422.492996 76.880576 
L 413.575557 78.74143 
L 404.658117 78.049014 
L 395.740677 83.519087 
L 386.823237 85.804806 
L 377.905798 83.57228 
L 368.988358 85.522175 
L 360.070918 85.413846 
L 351.153479 83.519087 
L 342.236039 89.08685 
L 333.318599 88.312471 
L 324.40116 87.710205 
L 315.48372 88.312471 
L 306.56628 89.406485 
L 297.64884 87.710205 
L 288.731401 90.814714 
L 279.813961 90.88392 
L 270.896521 89.08685 
L 261.979082 88.312471 
L 253.061642 89.38171 
L 244.144202 89.406485 
L 235.226763 86.61619 
L 226.309323 88.98916 
L 217.391883 87.355136 
L 208.474443 88.111435 
L 199.557004 91.977934 
L 190.639564 95.478825 
L 181.722124 97.448007 
L 172.804685 105.497069 
L 163.887245 103.739194 
L 154.969805 113.307603 
L 146.052365 119.436629 
L 137.134926 122.77964 
L 128.217486 136.805163 
L 119.300046 150.307173 
L 110.382607 160.098531 
L 101.465167 182.210643 
L 92.547727 286.612015 
z
" style="fill:#1f77b4;fill-opacity:0.5;"/>
   </g>
   <g id="PolyCollection_2">
    <path clip-path="url(#pe937e387e2)" d="M 92.547727 303.021473 
L 92.547727 360.329465 
L 101.465167 216.149442 
L 110.382607 199.739223 
L 119.300046 179.172372 
L 128.217486 157.325911 
L 137.134926 154.162467 
L 146.052365 142.300418 
L 154.969805 136.830345 
L 163.887245 131.962538 
L 172.804685 137.473466 
L 181.722124 119.153998 
L 190.639564 122.153412 
L 199.557004 116.676677 
L 208.474443 113.683925 
L 217.391883 109.479979 
L 226.309323 112.6876 
L 235.226763 108.604811 
L 244.144202 107.402468 
L 253.061642 105.73653 
L 261.979082 103.134738 
L 270.896521 100.83838 
L 279.813961 103.134738 
L 288.731401 100.83838 
L 297.64884 101.747454 
L 306.56628 99.166875 
L 315.48372 99.461735 
L 324.40116 104.009906 
L 333.318599 97.273706 
L 342.236039 104.649178 
L 351.153479 100.266457 
L 360.070918 105.73653 
L 368.988358 103.134738 
L 377.905798 102.040724 
L 386.823237 99.179104 
L 395.740677 100.43715 
L 404.658117 101.193448 
L 413.575557 97.273706 
L 422.492996 93.672026 
L 431.410436 96.462322 
L 440.327876 99.461735 
L 449.245315 97.664665 
L 458.162755 94.766041 
L 467.080195 100.266457 
L 475.997635 97.664665 
L 484.915074 97.273706 
L 493.832514 103.203944 
L 502.749954 100.727862 
L 511.667393 102.040724 
L 520.584833 100.236114 
L 529.502273 102.040724 
L 529.502273 90.88392 
L 529.502273 90.88392 
L 520.584833 94.876559 
L 511.667393 90.88392 
L 502.749954 90.008752 
L 493.832514 96.284787 
L 484.915074 89.08685 
L 475.997635 86.507861 
L 467.080195 88.282127 
L 458.162755 89.406485 
L 449.245315 86.507861 
L 440.327876 91.274879 
L 431.410436 87.710205 
L 422.492996 88.312471 
L 413.575557 89.08685 
L 404.658117 87.355136 
L 395.740677 85.923406 
L 386.823237 82.805393 
L 377.905798 90.88392 
L 368.988358 91.977934 
L 360.070918 93.752201 
L 351.153479 88.282127 
L 342.236039 88.275466 
L 333.318599 89.08685 
L 324.40116 93.290796 
L 315.48372 91.274879 
L 306.56628 89.38171 
L 297.64884 88.98916 
L 288.731401 92.086263 
L 279.813961 91.977934 
L 270.896521 92.086263 
L 261.979082 91.977934 
L 253.061642 93.752201 
L 244.144202 98.650351 
L 235.226763 97.448007 
L 226.309323 99.929307 
L 217.391883 98.760869 
L 208.474443 105.497069 
L 199.557004 104.692347 
L 190.639564 105.7797 
L 181.722124 110.967143 
L 172.804685 116.715997 
L 163.887245 126.602983 
L 154.969805 126.111235 
L 146.052365 131.581308 
L 137.134926 145.975611 
L 128.217486 142.812167 
L 119.300046 160.350233 
L 110.382607 174.791851 
L 101.465167 191.20207 
L 92.547727 303.021473 
z
" style="fill:#ff7f0e;fill-opacity:0.5;"/>
   </g>
   <g id="PolyCollection_3">
    <path clip-path="url(#pe937e387e2)" d="M 92.547727 285.455039 
L 92.547727 329.759255 
L 101.465167 225.847603 
L 110.382607 194.210855 
L 119.300046 168.775617 
L 128.217486 168.667288 
L 137.134926 143.32001 
L 146.052365 136.940863 
L 154.969805 124.624072 
L 163.887245 133.093558 
L 172.804685 131.716913 
L 181.722124 124.47164 
L 190.639564 112.651505 
L 199.557004 112.51926 
L 208.474443 108.897549 
L 217.391883 105.99972 
L 226.309323 99.559424 
L 235.226763 104.120424 
L 244.144202 101.193448 
L 253.061642 104.120424 
L 261.979082 107.701811 
L 270.896521 97.664665 
L 279.813961 102.591347 
L 288.731401 99.166875 
L 297.64884 96.277381 
L 306.56628 96.462322 
L 315.48372 95.368307 
L 324.40116 93.991662 
L 333.318599 98.412217 
L 342.236039 99.880065 
L 351.153479 97.937567 
L 360.070918 94.796384 
L 368.988358 96.277381 
L 377.905798 100.505099 
L 386.823237 91.685033 
L 395.740677 94.796384 
L 404.658117 94.803046 
L 413.575557 97.121274 
L 422.492996 94.796384 
L 431.410436 92.263797 
L 440.327876 92.942144 
L 449.245315 92.194592 
L 458.162755 90.992248 
L 467.080195 92.942144 
L 475.997635 90.992248 
L 484.915074 89.497003 
L 493.832514 92.942144 
L 502.749954 92.942144 
L 511.667393 88.566085 
L 520.584833 91.685033 
L 529.502273 90.253302 
L 529.502273 76.41499 
L 529.502273 76.41499 
L 520.584833 77.171288 
L 511.667393 73.726148 
L 502.749954 78.102207 
L 493.832514 78.102207 
L 484.915074 74.983259 
L 475.997635 73.488014 
L 467.080195 78.102207 
L 458.162755 73.488014 
L 449.245315 81.037788 
L 440.327876 78.102207 
L 431.410436 85.344641 
L 422.492996 82.812054 
L 413.575557 78.299135 
L 404.658117 78.429334 
L 395.740677 82.812054 
L 386.823237 77.171288 
L 377.905798 79.291368 
L 368.988358 83.519087 
L 360.070918 82.812054 
L 351.153479 81.858901 
L 342.236039 82.104431 
L 333.318599 83.57228 
L 324.40116 85.804806 
L 315.48372 86.61619 
L 306.56628 87.710205 
L 297.64884 83.519087 
L 288.731401 89.38171 
L 279.813961 83.769208 
L 270.896521 86.507861 
L 261.979082 87.410862 
L 253.061642 90.992248 
L 244.144202 87.355136 
L 235.226763 90.992248 
L 226.309323 86.801131 
L 217.391883 86.924923 
L 208.474443 90.591182 
L 199.557004 89.1575 
L 190.639564 91.213284 
L 181.722124 105.649501 
L 172.804685 107.156345 
L 163.887245 116.719846 
L 154.969805 116.437216 
L 146.052365 123.812688 
L 137.134926 130.561717 
L 128.217486 142.410936 
L 119.300046 157.618813 
L 110.382607 178.132189 
L 101.465167 196.820114 
L 92.547727 285.455039 
z
" style="fill:#2ca02c;fill-opacity:0.5;"/>
   </g>
   <g id="PolyCollection_4">
    <path clip-path="url(#pe937e387e2)" d="M 92.547727 275.524102 
L 92.547727 305.966097 
L 101.465167 227.521913 
L 110.382607 205.522777 
L 119.300046 186.614182 
L 128.217486 176.740362 
L 137.134926 166.10389 
L 146.052365 160.743672 
L 154.969805 154.213113 
L 163.887245 150.668669 
L 172.804685 147.361565 
L 181.722124 145.909163 
L 190.639564 142.209369 
L 199.557004 142.474165 
L 208.474443 140.755244 
L 217.391883 138.757004 
L 226.309323 137.264145 
L 235.226763 135.892139 
L 244.144202 134.278581 
L 253.061642 133.449871 
L 261.979082 132.597209 
L 270.896521 132.071316 
L 279.813961 130.094756 
L 288.731401 130.354264 
L 297.64884 130.873604 
L 306.56628 130.302245 
L 315.48372 130.397734 
L 324.40116 130.301144 
L 333.318599 129.206256 
L 342.236039 127.928317 
L 351.153479 127.673635 
L 360.070918 127.924266 
L 368.988358 128.607754 
L 377.905798 126.151571 
L 386.823237 126.634973 
L 395.740677 126.607719 
L 404.658117 127.190955 
L 413.575557 125.919855 
L 422.492996 126.194333 
L 431.410436 126.644679 
L 440.327876 125.501174 
L 449.245315 124.572729 
L 458.162755 125.391372 
L 467.080195 125.563832 
L 475.997635 126.423524 
L 484.915074 124.911475 
L 493.832514 125.218806 
L 502.749954 124.259875 
L 511.667393 124.50221 
L 520.584833 123.065963 
L 529.502273 124.834615 
L 529.502273 116.996858 
L 529.502273 116.996858 
L 520.584833 118.074093 
L 511.667393 117.15641 
L 502.749954 118.090162 
L 493.832514 117.476939 
L 484.915074 119.685668 
L 475.997635 120.420724 
L 467.080195 120.070436 
L 458.162755 119.378625 
L 449.245315 119.851559 
L 440.327876 119.268823 
L 431.410436 118.471027 
L 422.492996 120.477061 
L 413.575557 120.75154 
L 404.658117 119.307585 
L 395.740677 119.890821 
L 386.823237 119.17215 
L 377.905798 120.00126 
L 368.988358 120.310747 
L 360.070918 119.438545 
L 351.153479 120.899157 
L 342.236039 121.681601 
L 333.318599 122.305059 
L 324.40116 123.111568 
L 315.48372 124.743522 
L 306.56628 123.974739 
L 297.64884 122.884817 
L 288.731401 122.021323 
L 279.813961 124.182228 
L 270.896521 125.144192 
L 261.979082 123.926881 
L 253.061642 123.247073 
L 244.144202 125.356887 
L 235.226763 127.027561 
L 226.309323 130.149767 
L 217.391883 130.904014 
L 208.474443 131.15288 
L 199.557004 133.409608 
L 190.639564 136.440073 
L 181.722124 136.543074 
L 172.804685 138.893467 
L 163.887245 142.154827 
L 154.969805 146.043118 
L 146.052365 151.785215 
L 137.134926 157.660528 
L 128.217486 165.519467 
L 119.300046 177.943854 
L 110.382607 191.013307 
L 101.465167 217.759087 
L 92.547727 275.524102 
z
" style="fill:#d62728;fill-opacity:0.5;"/>
   </g>
   <g id="matplotlib.axis_1">
    <g id="xtick_1">
     <g id="line2d_1">
      <defs>
       <path d="M 0 0 
L 0 3.5 
" id="m8dbd763e59" style="stroke:#000000;stroke-width:0.8;"/>
      </defs>
      <g>
       <use style="stroke:#000000;stroke-width:0.8;" x="92.547727" xlink:href="#m8dbd763e59" y="374.8"/>
      </g>
     </g>
     <g id="text_1">
      <!-- 0 -->
      <defs>
       <path d="M 31.78125 66.40625 
Q 24.171875 66.40625 20.328125 58.90625 
Q 16.5 51.421875 16.5 36.375 
Q 16.5 21.390625 20.328125 13.890625 
Q 24.171875 6.390625 31.78125 6.390625 
Q 39.453125 6.390625 43.28125 13.890625 
Q 47.125 21.390625 47.125 36.375 
Q 47.125 51.421875 43.28125 58.90625 
Q 39.453125 66.40625 31.78125 66.40625 
z
M 31.78125 74.21875 
Q 44.046875 74.21875 50.515625 64.515625 
Q 56.984375 54.828125 56.984375 36.375 
Q 56.984375 17.96875 50.515625 8.265625 
Q 44.046875 -1.421875 31.78125 -1.421875 
Q 19.53125 -1.421875 13.0625 8.265625 
Q 6.59375 17.96875 6.59375 36.375 
Q 6.59375 54.828125 13.0625 64.515625 
Q 19.53125 74.21875 31.78125 74.21875 
z
" id="DejaVuSans-48"/>
      </defs>
      <g transform="translate(87.775852 393.197656)scale(0.15 -0.15)">
       <use xlink:href="#DejaVuSans-48"/>
      </g>
     </g>
    </g>
    <g id="xtick_2">
     <g id="line2d_2">
      <g>
       <use style="stroke:#000000;stroke-width:0.8;" x="181.722124" xlink:href="#m8dbd763e59" y="374.8"/>
      </g>
     </g>
     <g id="text_2">
      <!-- 10 -->
      <defs>
       <path d="M 12.40625 8.296875 
L 28.515625 8.296875 
L 28.515625 63.921875 
L 10.984375 60.40625 
L 10.984375 69.390625 
L 28.421875 72.90625 
L 38.28125 72.90625 
L 38.28125 8.296875 
L 54.390625 8.296875 
L 54.390625 0 
L 12.40625 0 
z
" id="DejaVuSans-49"/>
      </defs>
      <g transform="translate(172.178374 393.197656)scale(0.15 -0.15)">
       <use xlink:href="#DejaVuSans-49"/>
       <use x="63.623047" xlink:href="#DejaVuSans-48"/>
      </g>
     </g>
    </g>
    <g id="xtick_3">
     <g id="line2d_3">
      <g>
       <use style="stroke:#000000;stroke-width:0.8;" x="270.896521" xlink:href="#m8dbd763e59" y="374.8"/>
      </g>
     </g>
     <g id="text_3">
      <!-- 20 -->
      <defs>
       <path d="M 19.1875 8.296875 
L 53.609375 8.296875 
L 53.609375 0 
L 7.328125 0 
L 7.328125 8.296875 
Q 12.9375 14.109375 22.625 23.890625 
Q 32.328125 33.6875 34.8125 36.53125 
Q 39.546875 41.84375 41.421875 45.53125 
Q 43.3125 49.21875 43.3125 52.78125 
Q 43.3125 58.59375 39.234375 62.25 
Q 35.15625 65.921875 28.609375 65.921875 
Q 23.96875 65.921875 18.8125 64.3125 
Q 13.671875 62.703125 7.8125 59.421875 
L 7.8125 69.390625 
Q 13.765625 71.78125 18.9375 73 
Q 24.125 74.21875 28.421875 74.21875 
Q 39.75 74.21875 46.484375 68.546875 
Q 53.21875 62.890625 53.21875 53.421875 
Q 53.21875 48.921875 51.53125 44.890625 
Q 49.859375 40.875 45.40625 35.40625 
Q 44.1875 33.984375 37.640625 27.21875 
Q 31.109375 20.453125 19.1875 8.296875 
z
" id="DejaVuSans-50"/>
      </defs>
      <g transform="translate(261.352771 393.197656)scale(0.15 -0.15)">
       <use xlink:href="#DejaVuSans-50"/>
       <use x="63.623047" xlink:href="#DejaVuSans-48"/>
      </g>
     </g>
    </g>
    <g id="xtick_4">
     <g id="line2d_4">
      <g>
       <use style="stroke:#000000;stroke-width:0.8;" x="360.070918" xlink:href="#m8dbd763e59" y="374.8"/>
      </g>
     </g>
     <g id="text_4">
      <!-- 30 -->
      <defs>
       <path d="M 40.578125 39.3125 
Q 47.65625 37.796875 51.625 33 
Q 55.609375 28.21875 55.609375 21.1875 
Q 55.609375 10.40625 48.1875 4.484375 
Q 40.765625 -1.421875 27.09375 -1.421875 
Q 22.515625 -1.421875 17.65625 -0.515625 
Q 12.796875 0.390625 7.625 2.203125 
L 7.625 11.71875 
Q 11.71875 9.328125 16.59375 8.109375 
Q 21.484375 6.890625 26.8125 6.890625 
Q 36.078125 6.890625 40.9375 10.546875 
Q 45.796875 14.203125 45.796875 21.1875 
Q 45.796875 27.640625 41.28125 31.265625 
Q 36.765625 34.90625 28.71875 34.90625 
L 20.21875 34.90625 
L 20.21875 43.015625 
L 29.109375 43.015625 
Q 36.375 43.015625 40.234375 45.921875 
Q 44.09375 48.828125 44.09375 54.296875 
Q 44.09375 59.90625 40.109375 62.90625 
Q 36.140625 65.921875 28.71875 65.921875 
Q 24.65625 65.921875 20.015625 65.03125 
Q 15.375 64.15625 9.8125 62.3125 
L 9.8125 71.09375 
Q 15.4375 72.65625 20.34375 73.4375 
Q 25.25 74.21875 29.59375 74.21875 
Q 40.828125 74.21875 47.359375 69.109375 
Q 53.90625 64.015625 53.90625 55.328125 
Q 53.90625 49.265625 50.4375 45.09375 
Q 46.96875 40.921875 40.578125 39.3125 
z
" id="DejaVuSans-51"/>
      </defs>
      <g transform="translate(350.527168 393.197656)scale(0.15 -0.15)">
       <use xlink:href="#DejaVuSans-51"/>
       <use x="63.623047" xlink:href="#DejaVuSans-48"/>
      </g>
     </g>
    </g>
    <g id="xtick_5">
     <g id="line2d_5">
      <g>
       <use style="stroke:#000000;stroke-width:0.8;" x="449.245315" xlink:href="#m8dbd763e59" y="374.8"/>
      </g>
     </g>
     <g id="text_5">
      <!-- 40 -->
      <defs>
       <path d="M 37.796875 64.3125 
L 12.890625 25.390625 
L 37.796875 25.390625 
z
M 35.203125 72.90625 
L 47.609375 72.90625 
L 47.609375 25.390625 
L 58.015625 25.390625 
L 58.015625 17.1875 
L 47.609375 17.1875 
L 47.609375 0 
L 37.796875 0 
L 37.796875 17.1875 
L 4.890625 17.1875 
L 4.890625 26.703125 
z
" id="DejaVuSans-52"/>
      </defs>
      <g transform="translate(439.701565 393.197656)scale(0.15 -0.15)">
       <use xlink:href="#DejaVuSans-52"/>
       <use x="63.623047" xlink:href="#DejaVuSans-48"/>
      </g>
     </g>
    </g>
    <g id="xtick_6">
     <g id="line2d_6">
      <g>
       <use style="stroke:#000000;stroke-width:0.8;" x="538.419712" xlink:href="#m8dbd763e59" y="374.8"/>
      </g>
     </g>
     <g id="text_6">
      <!-- 50 -->
      <defs>
       <path d="M 10.796875 72.90625 
L 49.515625 72.90625 
L 49.515625 64.59375 
L 19.828125 64.59375 
L 19.828125 46.734375 
Q 21.96875 47.46875 24.109375 47.828125 
Q 26.265625 48.1875 28.421875 48.1875 
Q 40.625 48.1875 47.75 41.5 
Q 54.890625 34.8125 54.890625 23.390625 
Q 54.890625 11.625 47.5625 5.09375 
Q 40.234375 -1.421875 26.90625 -1.421875 
Q 22.3125 -1.421875 17.546875 -0.640625 
Q 12.796875 0.140625 7.71875 1.703125 
L 7.71875 11.625 
Q 12.109375 9.234375 16.796875 8.0625 
Q 21.484375 6.890625 26.703125 6.890625 
Q 35.15625 6.890625 40.078125 11.328125 
Q 45.015625 15.765625 45.015625 23.390625 
Q 45.015625 31 40.078125 35.4375 
Q 35.15625 39.890625 26.703125 39.890625 
Q 22.75 39.890625 18.8125 39.015625 
Q 14.890625 38.140625 10.796875 36.28125 
z
" id="DejaVuSans-53"/>
      </defs>
      <g transform="translate(528.875962 393.197656)scale(0.15 -0.15)">
       <use xlink:href="#DejaVuSans-53"/>
       <use x="63.623047" xlink:href="#DejaVuSans-48"/>
      </g>
     </g>
    </g>
    <g id="text_7">
     <!-- Global Communication Rounds -->
     <defs>
      <path d="M 59.515625 10.40625 
L 59.515625 29.984375 
L 43.40625 29.984375 
L 43.40625 38.09375 
L 69.28125 38.09375 
L 69.28125 6.78125 
Q 63.578125 2.734375 56.6875 0.65625 
Q 49.8125 -1.421875 42 -1.421875 
Q 24.90625 -1.421875 15.25 8.5625 
Q 5.609375 18.5625 5.609375 36.375 
Q 5.609375 54.25 15.25 64.234375 
Q 24.90625 74.21875 42 74.21875 
Q 49.125 74.21875 55.546875 72.453125 
Q 61.96875 70.703125 67.390625 67.28125 
L 67.390625 56.78125 
Q 61.921875 61.421875 55.765625 63.765625 
Q 49.609375 66.109375 42.828125 66.109375 
Q 29.4375 66.109375 22.71875 58.640625 
Q 16.015625 51.171875 16.015625 36.375 
Q 16.015625 21.625 22.71875 14.15625 
Q 29.4375 6.6875 42.828125 6.6875 
Q 48.046875 6.6875 52.140625 7.59375 
Q 56.25 8.5 59.515625 10.40625 
z
" id="DejaVuSans-71"/>
      <path d="M 9.421875 75.984375 
L 18.40625 75.984375 
L 18.40625 0 
L 9.421875 0 
z
" id="DejaVuSans-108"/>
      <path d="M 30.609375 48.390625 
Q 23.390625 48.390625 19.1875 42.75 
Q 14.984375 37.109375 14.984375 27.296875 
Q 14.984375 17.484375 19.15625 11.84375 
Q 23.34375 6.203125 30.609375 6.203125 
Q 37.796875 6.203125 41.984375 11.859375 
Q 46.1875 17.53125 46.1875 27.296875 
Q 46.1875 37.015625 41.984375 42.703125 
Q 37.796875 48.390625 30.609375 48.390625 
z
M 30.609375 56 
Q 42.328125 56 49.015625 48.375 
Q 55.71875 40.765625 55.71875 27.296875 
Q 55.71875 13.875 49.015625 6.21875 
Q 42.328125 -1.421875 30.609375 -1.421875 
Q 18.84375 -1.421875 12.171875 6.21875 
Q 5.515625 13.875 5.515625 27.296875 
Q 5.515625 40.765625 12.171875 48.375 
Q 18.84375 56 30.609375 56 
z
" id="DejaVuSans-111"/>
      <path d="M 48.6875 27.296875 
Q 48.6875 37.203125 44.609375 42.84375 
Q 40.53125 48.484375 33.40625 48.484375 
Q 26.265625 48.484375 22.1875 42.84375 
Q 18.109375 37.203125 18.109375 27.296875 
Q 18.109375 17.390625 22.1875 11.75 
Q 26.265625 6.109375 33.40625 6.109375 
Q 40.53125 6.109375 44.609375 11.75 
Q 48.6875 17.390625 48.6875 27.296875 
z
M 18.109375 46.390625 
Q 20.953125 51.265625 25.265625 53.625 
Q 29.59375 56 35.59375 56 
Q 45.5625 56 51.78125 48.09375 
Q 58.015625 40.1875 58.015625 27.296875 
Q 58.015625 14.40625 51.78125 6.484375 
Q 45.5625 -1.421875 35.59375 -1.421875 
Q 29.59375 -1.421875 25.265625 0.953125 
Q 20.953125 3.328125 18.109375 8.203125 
L 18.109375 0 
L 9.078125 0 
L 9.078125 75.984375 
L 18.109375 75.984375 
z
" id="DejaVuSans-98"/>
      <path d="M 34.28125 27.484375 
Q 23.390625 27.484375 19.1875 25 
Q 14.984375 22.515625 14.984375 16.5 
Q 14.984375 11.71875 18.140625 8.90625 
Q 21.296875 6.109375 26.703125 6.109375 
Q 34.1875 6.109375 38.703125 11.40625 
Q 43.21875 16.703125 43.21875 25.484375 
L 43.21875 27.484375 
z
M 52.203125 31.203125 
L 52.203125 0 
L 43.21875 0 
L 43.21875 8.296875 
Q 40.140625 3.328125 35.546875 0.953125 
Q 30.953125 -1.421875 24.3125 -1.421875 
Q 15.921875 -1.421875 10.953125 3.296875 
Q 6 8.015625 6 15.921875 
Q 6 25.140625 12.171875 29.828125 
Q 18.359375 34.515625 30.609375 34.515625 
L 43.21875 34.515625 
L 43.21875 35.40625 
Q 43.21875 41.609375 39.140625 45 
Q 35.0625 48.390625 27.6875 48.390625 
Q 23 48.390625 18.546875 47.265625 
Q 14.109375 46.140625 10.015625 43.890625 
L 10.015625 52.203125 
Q 14.9375 54.109375 19.578125 55.046875 
Q 24.21875 56 28.609375 56 
Q 40.484375 56 46.34375 49.84375 
Q 52.203125 43.703125 52.203125 31.203125 
z
" id="DejaVuSans-97"/>
      <path id="DejaVuSans-32"/>
      <path d="M 64.40625 67.28125 
L 64.40625 56.890625 
Q 59.421875 61.53125 53.78125 63.8125 
Q 48.140625 66.109375 41.796875 66.109375 
Q 29.296875 66.109375 22.65625 58.46875 
Q 16.015625 50.828125 16.015625 36.375 
Q 16.015625 21.96875 22.65625 14.328125 
Q 29.296875 6.6875 41.796875 6.6875 
Q 48.140625 6.6875 53.78125 8.984375 
Q 59.421875 11.28125 64.40625 15.921875 
L 64.40625 5.609375 
Q 59.234375 2.09375 53.4375 0.328125 
Q 47.65625 -1.421875 41.21875 -1.421875 
Q 24.65625 -1.421875 15.125 8.703125 
Q 5.609375 18.84375 5.609375 36.375 
Q 5.609375 53.953125 15.125 64.078125 
Q 24.65625 74.21875 41.21875 74.21875 
Q 47.75 74.21875 53.53125 72.484375 
Q 59.328125 70.75 64.40625 67.28125 
z
" id="DejaVuSans-67"/>
      <path d="M 52 44.1875 
Q 55.375 50.25 60.0625 53.125 
Q 64.75 56 71.09375 56 
Q 79.640625 56 84.28125 50.015625 
Q 88.921875 44.046875 88.921875 33.015625 
L 88.921875 0 
L 79.890625 0 
L 79.890625 32.71875 
Q 79.890625 40.578125 77.09375 44.375 
Q 74.3125 48.1875 68.609375 48.1875 
Q 61.625 48.1875 57.5625 43.546875 
Q 53.515625 38.921875 53.515625 30.90625 
L 53.515625 0 
L 44.484375 0 
L 44.484375 32.71875 
Q 44.484375 40.625 41.703125 44.40625 
Q 38.921875 48.1875 33.109375 48.1875 
Q 26.21875 48.1875 22.15625 43.53125 
Q 18.109375 38.875 18.109375 30.90625 
L 18.109375 0 
L 9.078125 0 
L 9.078125 54.6875 
L 18.109375 54.6875 
L 18.109375 46.1875 
Q 21.1875 51.21875 25.484375 53.609375 
Q 29.78125 56 35.6875 56 
Q 41.65625 56 45.828125 52.96875 
Q 50 49.953125 52 44.1875 
z
" id="DejaVuSans-109"/>
      <path d="M 8.5 21.578125 
L 8.5 54.6875 
L 17.484375 54.6875 
L 17.484375 21.921875 
Q 17.484375 14.15625 20.5 10.265625 
Q 23.53125 6.390625 29.59375 6.390625 
Q 36.859375 6.390625 41.078125 11.03125 
Q 45.3125 15.671875 45.3125 23.6875 
L 45.3125 54.6875 
L 54.296875 54.6875 
L 54.296875 0 
L 45.3125 0 
L 45.3125 8.40625 
Q 42.046875 3.421875 37.71875 1 
Q 33.40625 -1.421875 27.6875 -1.421875 
Q 18.265625 -1.421875 13.375 4.4375 
Q 8.5 10.296875 8.5 21.578125 
z
M 31.109375 56 
z
" id="DejaVuSans-117"/>
      <path d="M 54.890625 33.015625 
L 54.890625 0 
L 45.90625 0 
L 45.90625 32.71875 
Q 45.90625 40.484375 42.875 44.328125 
Q 39.84375 48.1875 33.796875 48.1875 
Q 26.515625 48.1875 22.3125 43.546875 
Q 18.109375 38.921875 18.109375 30.90625 
L 18.109375 0 
L 9.078125 0 
L 9.078125 54.6875 
L 18.109375 54.6875 
L 18.109375 46.1875 
Q 21.34375 51.125 25.703125 53.5625 
Q 30.078125 56 35.796875 56 
Q 45.21875 56 50.046875 50.171875 
Q 54.890625 44.34375 54.890625 33.015625 
z
" id="DejaVuSans-110"/>
      <path d="M 9.421875 54.6875 
L 18.40625 54.6875 
L 18.40625 0 
L 9.421875 0 
z
M 9.421875 75.984375 
L 18.40625 75.984375 
L 18.40625 64.59375 
L 9.421875 64.59375 
z
" id="DejaVuSans-105"/>
      <path d="M 48.78125 52.59375 
L 48.78125 44.1875 
Q 44.96875 46.296875 41.140625 47.34375 
Q 37.3125 48.390625 33.40625 48.390625 
Q 24.65625 48.390625 19.8125 42.84375 
Q 14.984375 37.3125 14.984375 27.296875 
Q 14.984375 17.28125 19.8125 11.734375 
Q 24.65625 6.203125 33.40625 6.203125 
Q 37.3125 6.203125 41.140625 7.25 
Q 44.96875 8.296875 48.78125 10.40625 
L 48.78125 2.09375 
Q 45.015625 0.34375 40.984375 -0.53125 
Q 36.96875 -1.421875 32.421875 -1.421875 
Q 20.0625 -1.421875 12.78125 6.34375 
Q 5.515625 14.109375 5.515625 27.296875 
Q 5.515625 40.671875 12.859375 48.328125 
Q 20.21875 56 33.015625 56 
Q 37.15625 56 41.109375 55.140625 
Q 45.0625 54.296875 48.78125 52.59375 
z
" id="DejaVuSans-99"/>
      <path d="M 18.3125 70.21875 
L 18.3125 54.6875 
L 36.8125 54.6875 
L 36.8125 47.703125 
L 18.3125 47.703125 
L 18.3125 18.015625 
Q 18.3125 11.328125 20.140625 9.421875 
Q 21.96875 7.515625 27.59375 7.515625 
L 36.8125 7.515625 
L 36.8125 0 
L 27.59375 0 
Q 17.1875 0 13.234375 3.875 
Q 9.28125 7.765625 9.28125 18.015625 
L 9.28125 47.703125 
L 2.6875 47.703125 
L 2.6875 54.6875 
L 9.28125 54.6875 
L 9.28125 70.21875 
z
" id="DejaVuSans-116"/>
      <path d="M 44.390625 34.1875 
Q 47.5625 33.109375 50.5625 29.59375 
Q 53.5625 26.078125 56.59375 19.921875 
L 66.609375 0 
L 56 0 
L 46.6875 18.703125 
Q 43.0625 26.03125 39.671875 28.421875 
Q 36.28125 30.8125 30.421875 30.8125 
L 19.671875 30.8125 
L 19.671875 0 
L 9.8125 0 
L 9.8125 72.90625 
L 32.078125 72.90625 
Q 44.578125 72.90625 50.734375 67.671875 
Q 56.890625 62.453125 56.890625 51.90625 
Q 56.890625 45.015625 53.6875 40.46875 
Q 50.484375 35.9375 44.390625 34.1875 
z
M 19.671875 64.796875 
L 19.671875 38.921875 
L 32.078125 38.921875 
Q 39.203125 38.921875 42.84375 42.21875 
Q 46.484375 45.515625 46.484375 51.90625 
Q 46.484375 58.296875 42.84375 61.546875 
Q 39.203125 64.796875 32.078125 64.796875 
z
" id="DejaVuSans-82"/>
      <path d="M 45.40625 46.390625 
L 45.40625 75.984375 
L 54.390625 75.984375 
L 54.390625 0 
L 45.40625 0 
L 45.40625 8.203125 
Q 42.578125 3.328125 38.25 0.953125 
Q 33.9375 -1.421875 27.875 -1.421875 
Q 17.96875 -1.421875 11.734375 6.484375 
Q 5.515625 14.40625 5.515625 27.296875 
Q 5.515625 40.1875 11.734375 48.09375 
Q 17.96875 56 27.875 56 
Q 33.9375 56 38.25 53.625 
Q 42.578125 51.265625 45.40625 46.390625 
z
M 14.796875 27.296875 
Q 14.796875 17.390625 18.875 11.75 
Q 22.953125 6.109375 30.078125 6.109375 
Q 37.203125 6.109375 41.296875 11.75 
Q 45.40625 17.390625 45.40625 27.296875 
Q 45.40625 37.203125 41.296875 42.84375 
Q 37.203125 48.484375 30.078125 48.484375 
Q 22.953125 48.484375 18.875 42.84375 
Q 14.796875 37.203125 14.796875 27.296875 
z
" id="DejaVuSans-100"/>
      <path d="M 44.28125 53.078125 
L 44.28125 44.578125 
Q 40.484375 46.53125 36.375 47.5 
Q 32.28125 48.484375 27.875 48.484375 
Q 21.1875 48.484375 17.84375 46.4375 
Q 14.5 44.390625 14.5 40.28125 
Q 14.5 37.15625 16.890625 35.375 
Q 19.28125 33.59375 26.515625 31.984375 
L 29.59375 31.296875 
Q 39.15625 29.25 43.1875 25.515625 
Q 47.21875 21.78125 47.21875 15.09375 
Q 47.21875 7.46875 41.1875 3.015625 
Q 35.15625 -1.421875 24.609375 -1.421875 
Q 20.21875 -1.421875 15.453125 -0.5625 
Q 10.6875 0.296875 5.421875 2 
L 5.421875 11.28125 
Q 10.40625 8.6875 15.234375 7.390625 
Q 20.0625 6.109375 24.8125 6.109375 
Q 31.15625 6.109375 34.5625 8.28125 
Q 37.984375 10.453125 37.984375 14.40625 
Q 37.984375 18.0625 35.515625 20.015625 
Q 33.0625 21.96875 24.703125 23.78125 
L 21.578125 24.515625 
Q 13.234375 26.265625 9.515625 29.90625 
Q 5.8125 33.546875 5.8125 39.890625 
Q 5.8125 47.609375 11.28125 51.796875 
Q 16.75 56 26.8125 56 
Q 31.78125 56 36.171875 55.265625 
Q 40.578125 54.546875 44.28125 53.078125 
z
" id="DejaVuSans-115"/>
     </defs>
     <g transform="translate(195.582422 411.714844)scale(0.15 -0.15)">
      <use xlink:href="#DejaVuSans-71"/>
      <use x="77.490234" xlink:href="#DejaVuSans-108"/>
      <use x="105.273438" xlink:href="#DejaVuSans-111"/>
      <use x="166.455078" xlink:href="#DejaVuSans-98"/>
      <use x="229.931641" xlink:href="#DejaVuSans-97"/>
      <use x="291.210938" xlink:href="#DejaVuSans-108"/>
      <use x="318.994141" xlink:href="#DejaVuSans-32"/>
      <use x="350.78125" xlink:href="#DejaVuSans-67"/>
      <use x="420.605469" xlink:href="#DejaVuSans-111"/>
      <use x="481.787109" xlink:href="#DejaVuSans-109"/>
      <use x="579.199219" xlink:href="#DejaVuSans-109"/>
      <use x="676.611328" xlink:href="#DejaVuSans-117"/>
      <use x="739.990234" xlink:href="#DejaVuSans-110"/>
      <use x="803.369141" xlink:href="#DejaVuSans-105"/>
      <use x="831.152344" xlink:href="#DejaVuSans-99"/>
      <use x="886.132812" xlink:href="#DejaVuSans-97"/>
      <use x="947.412109" xlink:href="#DejaVuSans-116"/>
      <use x="986.621094" xlink:href="#DejaVuSans-105"/>
      <use x="1014.404297" xlink:href="#DejaVuSans-111"/>
      <use x="1075.585938" xlink:href="#DejaVuSans-110"/>
      <use x="1138.964844" xlink:href="#DejaVuSans-32"/>
      <use x="1170.751953" xlink:href="#DejaVuSans-82"/>
      <use x="1235.734375" xlink:href="#DejaVuSans-111"/>
      <use x="1296.916016" xlink:href="#DejaVuSans-117"/>
      <use x="1360.294922" xlink:href="#DejaVuSans-110"/>
      <use x="1423.673828" xlink:href="#DejaVuSans-100"/>
      <use x="1487.150391" xlink:href="#DejaVuSans-115"/>
     </g>
    </g>
   </g>
   <g id="matplotlib.axis_2">
    <g id="ytick_1">
     <g id="line2d_7">
      <defs>
       <path d="M 0 0 
L -3.5 0 
" id="m676d9bda0e" style="stroke:#000000;stroke-width:0.8;"/>
      </defs>
      <g>
       <use style="stroke:#000000;stroke-width:0.8;" x="70.7" xlink:href="#m676d9bda0e" y="363.948901"/>
      </g>
     </g>
     <g id="text_8">
      <!-- 93 -->
      <defs>
       <path d="M 10.984375 1.515625 
L 10.984375 10.5 
Q 14.703125 8.734375 18.5 7.8125 
Q 22.3125 6.890625 25.984375 6.890625 
Q 35.75 6.890625 40.890625 13.453125 
Q 46.046875 20.015625 46.78125 33.40625 
Q 43.953125 29.203125 39.59375 26.953125 
Q 35.25 24.703125 29.984375 24.703125 
Q 19.046875 24.703125 12.671875 31.3125 
Q 6.296875 37.9375 6.296875 49.421875 
Q 6.296875 60.640625 12.9375 67.421875 
Q 19.578125 74.21875 30.609375 74.21875 
Q 43.265625 74.21875 49.921875 64.515625 
Q 56.59375 54.828125 56.59375 36.375 
Q 56.59375 19.140625 48.40625 8.859375 
Q 40.234375 -1.421875 26.421875 -1.421875 
Q 22.703125 -1.421875 18.890625 -0.6875 
Q 15.09375 0.046875 10.984375 1.515625 
z
M 30.609375 32.421875 
Q 37.25 32.421875 41.125 36.953125 
Q 45.015625 41.5 45.015625 49.421875 
Q 45.015625 57.28125 41.125 61.84375 
Q 37.25 66.40625 30.609375 66.40625 
Q 23.96875 66.40625 20.09375 61.84375 
Q 16.21875 57.28125 16.21875 49.421875 
Q 16.21875 41.5 20.09375 36.953125 
Q 23.96875 32.421875 30.609375 32.421875 
z
" id="DejaVuSans-57"/>
      </defs>
      <g transform="translate(44.6125 369.647729)scale(0.15 -0.15)">
       <use xlink:href="#DejaVuSans-57"/>
       <use x="63.623047" xlink:href="#DejaVuSans-51"/>
      </g>
     </g>
    </g>
    <g id="ytick_2">
     <g id="line2d_8">
      <g>
       <use style="stroke:#000000;stroke-width:0.8;" x="70.7" xlink:href="#m676d9bda0e" y="320.735322"/>
      </g>
     </g>
     <g id="text_9">
      <!-- 94 -->
      <g transform="translate(44.6125 326.434151)scale(0.15 -0.15)">
       <use xlink:href="#DejaVuSans-57"/>
       <use x="63.623047" xlink:href="#DejaVuSans-52"/>
      </g>
     </g>
    </g>
    <g id="ytick_3">
     <g id="line2d_9">
      <g>
       <use style="stroke:#000000;stroke-width:0.8;" x="70.7" xlink:href="#m676d9bda0e" y="277.521744"/>
      </g>
     </g>
     <g id="text_10">
      <!-- 95 -->
      <g transform="translate(44.6125 283.220572)scale(0.15 -0.15)">
       <use xlink:href="#DejaVuSans-57"/>
       <use x="63.623047" xlink:href="#DejaVuSans-53"/>
      </g>
     </g>
    </g>
    <g id="ytick_4">
     <g id="line2d_10">
      <g>
       <use style="stroke:#000000;stroke-width:0.8;" x="70.7" xlink:href="#m676d9bda0e" y="234.308166"/>
      </g>
     </g>
     <g id="text_11">
      <!-- 96 -->
      <defs>
       <path d="M 33.015625 40.375 
Q 26.375 40.375 22.484375 35.828125 
Q 18.609375 31.296875 18.609375 23.390625 
Q 18.609375 15.53125 22.484375 10.953125 
Q 26.375 6.390625 33.015625 6.390625 
Q 39.65625 6.390625 43.53125 10.953125 
Q 47.40625 15.53125 47.40625 23.390625 
Q 47.40625 31.296875 43.53125 35.828125 
Q 39.65625 40.375 33.015625 40.375 
z
M 52.59375 71.296875 
L 52.59375 62.3125 
Q 48.875 64.0625 45.09375 64.984375 
Q 41.3125 65.921875 37.59375 65.921875 
Q 27.828125 65.921875 22.671875 59.328125 
Q 17.53125 52.734375 16.796875 39.40625 
Q 19.671875 43.65625 24.015625 45.921875 
Q 28.375 48.1875 33.59375 48.1875 
Q 44.578125 48.1875 50.953125 41.515625 
Q 57.328125 34.859375 57.328125 23.390625 
Q 57.328125 12.15625 50.6875 5.359375 
Q 44.046875 -1.421875 33.015625 -1.421875 
Q 20.359375 -1.421875 13.671875 8.265625 
Q 6.984375 17.96875 6.984375 36.375 
Q 6.984375 53.65625 15.1875 63.9375 
Q 23.390625 74.21875 37.203125 74.21875 
Q 40.921875 74.21875 44.703125 73.484375 
Q 48.484375 72.75 52.59375 71.296875 
z
" id="DejaVuSans-54"/>
      </defs>
      <g transform="translate(44.6125 240.006994)scale(0.15 -0.15)">
       <use xlink:href="#DejaVuSans-57"/>
       <use x="63.623047" xlink:href="#DejaVuSans-54"/>
      </g>
     </g>
    </g>
    <g id="ytick_5">
     <g id="line2d_11">
      <g>
       <use style="stroke:#000000;stroke-width:0.8;" x="70.7" xlink:href="#m676d9bda0e" y="191.094588"/>
      </g>
     </g>
     <g id="text_12">
      <!-- 97 -->
      <defs>
       <path d="M 8.203125 72.90625 
L 55.078125 72.90625 
L 55.078125 68.703125 
L 28.609375 0 
L 18.3125 0 
L 43.21875 64.59375 
L 8.203125 64.59375 
z
" id="DejaVuSans-55"/>
      </defs>
      <g transform="translate(44.6125 196.793416)scale(0.15 -0.15)">
       <use xlink:href="#DejaVuSans-57"/>
       <use x="63.623047" xlink:href="#DejaVuSans-55"/>
      </g>
     </g>
    </g>
    <g id="ytick_6">
     <g id="line2d_12">
      <g>
       <use style="stroke:#000000;stroke-width:0.8;" x="70.7" xlink:href="#m676d9bda0e" y="147.88101"/>
      </g>
     </g>
     <g id="text_13">
      <!-- 98 -->
      <defs>
       <path d="M 31.78125 34.625 
Q 24.75 34.625 20.71875 30.859375 
Q 16.703125 27.09375 16.703125 20.515625 
Q 16.703125 13.921875 20.71875 10.15625 
Q 24.75 6.390625 31.78125 6.390625 
Q 38.8125 6.390625 42.859375 10.171875 
Q 46.921875 13.96875 46.921875 20.515625 
Q 46.921875 27.09375 42.890625 30.859375 
Q 38.875 34.625 31.78125 34.625 
z
M 21.921875 38.8125 
Q 15.578125 40.375 12.03125 44.71875 
Q 8.5 49.078125 8.5 55.328125 
Q 8.5 64.0625 14.71875 69.140625 
Q 20.953125 74.21875 31.78125 74.21875 
Q 42.671875 74.21875 48.875 69.140625 
Q 55.078125 64.0625 55.078125 55.328125 
Q 55.078125 49.078125 51.53125 44.71875 
Q 48 40.375 41.703125 38.8125 
Q 48.828125 37.15625 52.796875 32.3125 
Q 56.78125 27.484375 56.78125 20.515625 
Q 56.78125 9.90625 50.3125 4.234375 
Q 43.84375 -1.421875 31.78125 -1.421875 
Q 19.734375 -1.421875 13.25 4.234375 
Q 6.78125 9.90625 6.78125 20.515625 
Q 6.78125 27.484375 10.78125 32.3125 
Q 14.796875 37.15625 21.921875 38.8125 
z
M 18.3125 54.390625 
Q 18.3125 48.734375 21.84375 45.5625 
Q 25.390625 42.390625 31.78125 42.390625 
Q 38.140625 42.390625 41.71875 45.5625 
Q 45.3125 48.734375 45.3125 54.390625 
Q 45.3125 60.0625 41.71875 63.234375 
Q 38.140625 66.40625 31.78125 66.40625 
Q 25.390625 66.40625 21.84375 63.234375 
Q 18.3125 60.0625 18.3125 54.390625 
z
" id="DejaVuSans-56"/>
      </defs>
      <g transform="translate(44.6125 153.579838)scale(0.15 -0.15)">
       <use xlink:href="#DejaVuSans-57"/>
       <use x="63.623047" xlink:href="#DejaVuSans-56"/>
      </g>
     </g>
    </g>
    <g id="ytick_7">
     <g id="line2d_13">
      <g>
       <use style="stroke:#000000;stroke-width:0.8;" x="70.7" xlink:href="#m676d9bda0e" y="104.667431"/>
      </g>
     </g>
     <g id="text_14">
      <!-- 99 -->
      <g transform="translate(44.6125 110.36626)scale(0.15 -0.15)">
       <use xlink:href="#DejaVuSans-57"/>
       <use x="63.623047" xlink:href="#DejaVuSans-57"/>
      </g>
     </g>
    </g>
    <g id="ytick_8">
     <g id="line2d_14">
      <g>
       <use style="stroke:#000000;stroke-width:0.8;" x="70.7" xlink:href="#m676d9bda0e" y="61.453853"/>
      </g>
     </g>
     <g id="text_15">
      <!-- 100 -->
      <g transform="translate(35.06875 67.152681)scale(0.15 -0.15)">
       <use xlink:href="#DejaVuSans-49"/>
       <use x="63.623047" xlink:href="#DejaVuSans-48"/>
       <use x="127.246094" xlink:href="#DejaVuSans-48"/>
      </g>
     </g>
    </g>
    <g id="text_16">
     <!-- Test Accuracy -->
     <defs>
      <path d="M -0.296875 72.90625 
L 61.375 72.90625 
L 61.375 64.59375 
L 35.5 64.59375 
L 35.5 0 
L 25.59375 0 
L 25.59375 64.59375 
L -0.296875 64.59375 
z
" id="DejaVuSans-84"/>
      <path d="M 56.203125 29.59375 
L 56.203125 25.203125 
L 14.890625 25.203125 
Q 15.484375 15.921875 20.484375 11.0625 
Q 25.484375 6.203125 34.421875 6.203125 
Q 39.59375 6.203125 44.453125 7.46875 
Q 49.3125 8.734375 54.109375 11.28125 
L 54.109375 2.78125 
Q 49.265625 0.734375 44.1875 -0.34375 
Q 39.109375 -1.421875 33.890625 -1.421875 
Q 20.796875 -1.421875 13.15625 6.1875 
Q 5.515625 13.8125 5.515625 26.8125 
Q 5.515625 40.234375 12.765625 48.109375 
Q 20.015625 56 32.328125 56 
Q 43.359375 56 49.78125 48.890625 
Q 56.203125 41.796875 56.203125 29.59375 
z
M 47.21875 32.234375 
Q 47.125 39.59375 43.09375 43.984375 
Q 39.0625 48.390625 32.421875 48.390625 
Q 24.90625 48.390625 20.390625 44.140625 
Q 15.875 39.890625 15.1875 32.171875 
z
" id="DejaVuSans-101"/>
      <path d="M 34.1875 63.1875 
L 20.796875 26.90625 
L 47.609375 26.90625 
z
M 28.609375 72.90625 
L 39.796875 72.90625 
L 67.578125 0 
L 57.328125 0 
L 50.6875 18.703125 
L 17.828125 18.703125 
L 11.1875 0 
L 0.78125 0 
z
" id="DejaVuSans-65"/>
      <path d="M 41.109375 46.296875 
Q 39.59375 47.171875 37.8125 47.578125 
Q 36.03125 48 33.890625 48 
Q 26.265625 48 22.1875 43.046875 
Q 18.109375 38.09375 18.109375 28.8125 
L 18.109375 0 
L 9.078125 0 
L 9.078125 54.6875 
L 18.109375 54.6875 
L 18.109375 46.1875 
Q 20.953125 51.171875 25.484375 53.578125 
Q 30.03125 56 36.53125 56 
Q 37.453125 56 38.578125 55.875 
Q 39.703125 55.765625 41.0625 55.515625 
z
" id="DejaVuSans-114"/>
      <path d="M 32.171875 -5.078125 
Q 28.375 -14.84375 24.75 -17.8125 
Q 21.140625 -20.796875 15.09375 -20.796875 
L 7.90625 -20.796875 
L 7.90625 -13.28125 
L 13.1875 -13.28125 
Q 16.890625 -13.28125 18.9375 -11.515625 
Q 21 -9.765625 23.484375 -3.21875 
L 25.09375 0.875 
L 2.984375 54.6875 
L 12.5 54.6875 
L 29.59375 11.921875 
L 46.6875 54.6875 
L 56.203125 54.6875 
z
" id="DejaVuSans-121"/>
     </defs>
     <g transform="translate(27.949219 267.017859)rotate(-90)scale(0.15 -0.15)">
      <use xlink:href="#DejaVuSans-84"/>
      <use x="44.083984" xlink:href="#DejaVuSans-101"/>
      <use x="105.607422" xlink:href="#DejaVuSans-115"/>
      <use x="157.707031" xlink:href="#DejaVuSans-116"/>
      <use x="196.916016" xlink:href="#DejaVuSans-32"/>
      <use x="228.703125" xlink:href="#DejaVuSans-65"/>
      <use x="295.361328" xlink:href="#DejaVuSans-99"/>
      <use x="350.341797" xlink:href="#DejaVuSans-99"/>
      <use x="405.322266" xlink:href="#DejaVuSans-117"/>
      <use x="468.701172" xlink:href="#DejaVuSans-114"/>
      <use x="509.814453" xlink:href="#DejaVuSans-97"/>
      <use x="571.09375" xlink:href="#DejaVuSans-99"/>
      <use x="626.074219" xlink:href="#DejaVuSans-121"/>
     </g>
    </g>
   </g>
   <g id="line2d_15">
    <path clip-path="url(#pe937e387e2)" d="M 92.547727 301.043059 
L 101.465167 199.299698 
L 110.382607 176.32539 
L 119.300046 157.727141 
L 128.217486 145.69298 
L 137.134926 132.564805 
L 146.052365 128.188746 
L 154.969805 122.718673 
L 163.887245 111.778527 
L 172.804685 109.590497 
L 181.722124 103.026409 
L 190.639564 100.83838 
L 199.557004 97.556336 
L 208.474443 95.368307 
L 217.391883 94.274292 
L 226.309323 95.368307 
L 235.226763 90.992248 
L 244.144202 92.086263 
L 253.061642 94.274292 
L 261.979082 90.992248 
L 270.896521 93.180278 
L 279.813961 96.462322 
L 288.731401 94.274292 
L 297.64884 92.086263 
L 306.56628 92.086263 
L 315.48372 90.992248 
L 324.40116 89.898234 
L 333.318599 90.992248 
L 342.236039 93.180278 
L 351.153479 89.898234 
L 360.070918 90.992248 
L 368.988358 87.710205 
L 377.905798 90.992248 
L 386.823237 89.898234 
L 395.740677 89.898234 
L 404.658117 84.428161 
L 413.575557 89.898234 
L 422.492996 82.240131 
L 431.410436 88.804219 
L 440.327876 88.804219 
L 449.245315 85.522175 
L 458.162755 84.428161 
L 467.080195 81.146117 
L 475.997635 78.958087 
L 484.915074 81.146117 
L 493.832514 78.958087 
L 502.749954 78.958087 
L 511.667393 78.958087 
L 520.584833 82.240131 
L 529.502273 81.146117 
" style="fill:none;stroke:#1f77b4;stroke-linecap:square;stroke-width:1.5;"/>
   </g>
   <g id="line2d_16">
    <path clip-path="url(#pe937e387e2)" d="M 92.547727 331.675469 
L 101.465167 203.675756 
L 110.382607 187.265537 
L 119.300046 169.761302 
L 128.217486 150.069039 
L 137.134926 150.069039 
L 146.052365 136.940863 
L 154.969805 131.47079 
L 163.887245 129.282761 
L 172.804685 127.094731 
L 181.722124 115.06057 
L 190.639564 113.966556 
L 199.557004 110.684512 
L 208.474443 109.590497 
L 217.391883 104.120424 
L 226.309323 106.308453 
L 235.226763 103.026409 
L 244.144202 103.026409 
L 253.061642 99.744366 
L 261.979082 97.556336 
L 270.896521 96.462322 
L 279.813961 97.556336 
L 288.731401 96.462322 
L 297.64884 95.368307 
L 306.56628 94.274292 
L 315.48372 95.368307 
L 324.40116 98.650351 
L 333.318599 93.180278 
L 342.236039 96.462322 
L 351.153479 94.274292 
L 360.070918 99.744366 
L 368.988358 97.556336 
L 377.905798 96.462322 
L 386.823237 90.992248 
L 395.740677 93.180278 
L 404.658117 94.274292 
L 413.575557 93.180278 
L 422.492996 90.992248 
L 431.410436 92.086263 
L 440.327876 95.368307 
L 449.245315 92.086263 
L 458.162755 92.086263 
L 467.080195 94.274292 
L 475.997635 92.086263 
L 484.915074 93.180278 
L 493.832514 99.744366 
L 502.749954 95.368307 
L 511.667393 96.462322 
L 520.584833 97.556336 
L 529.502273 96.462322 
" style="fill:none;stroke:#ff7f0e;stroke-linecap:square;stroke-width:1.5;"/>
   </g>
   <g id="line2d_17">
    <path clip-path="url(#pe937e387e2)" d="M 92.547727 307.607147 
L 101.465167 211.333859 
L 110.382607 186.171522 
L 119.300046 163.197215 
L 128.217486 155.539112 
L 137.134926 136.940863 
L 146.052365 130.376775 
L 154.969805 120.530644 
L 163.887245 124.906702 
L 172.804685 119.436629 
L 181.722124 115.06057 
L 190.639564 101.932395 
L 199.557004 100.83838 
L 208.474443 99.744366 
L 217.391883 96.462322 
L 226.309323 93.180278 
L 235.226763 97.556336 
L 244.144202 94.274292 
L 253.061642 97.556336 
L 261.979082 97.556336 
L 270.896521 92.086263 
L 279.813961 93.180278 
L 288.731401 94.274292 
L 297.64884 89.898234 
L 306.56628 92.086263 
L 315.48372 90.992248 
L 324.40116 89.898234 
L 333.318599 90.992248 
L 342.236039 90.992248 
L 351.153479 89.898234 
L 360.070918 88.804219 
L 368.988358 89.898234 
L 377.905798 89.898234 
L 386.823237 84.428161 
L 395.740677 88.804219 
L 404.658117 86.61619 
L 413.575557 87.710205 
L 422.492996 88.804219 
L 431.410436 88.804219 
L 440.327876 85.522175 
L 449.245315 86.61619 
L 458.162755 82.240131 
L 467.080195 85.522175 
L 475.997635 82.240131 
L 484.915074 82.240131 
L 493.832514 85.522175 
L 502.749954 85.522175 
L 511.667393 81.146117 
L 520.584833 84.428161 
L 529.502273 83.334146 
" style="fill:none;stroke:#2ca02c;stroke-linecap:square;stroke-width:1.5;"/>
   </g>
   <g id="line2d_18">
    <path clip-path="url(#pe937e387e2)" d="M 92.547727 290.745099 
L 101.465167 222.6405 
L 110.382607 198.268042 
L 119.300046 182.279018 
L 128.217486 171.129915 
L 137.134926 161.882209 
L 146.052365 156.264444 
L 154.969805 150.128116 
L 163.887245 146.411748 
L 172.804685 143.127516 
L 181.722124 141.226119 
L 190.639564 139.324721 
L 199.557004 137.941887 
L 208.474443 135.954062 
L 217.391883 134.830509 
L 226.309323 133.706956 
L 235.226763 131.45985 
L 244.144202 129.817734 
L 253.061642 128.348472 
L 261.979082 128.262045 
L 270.896521 128.607754 
L 279.813961 127.138492 
L 288.731401 126.187793 
L 297.64884 126.879211 
L 306.56628 127.138492 
L 315.48372 127.570628 
L 324.40116 126.706356 
L 333.318599 125.755658 
L 342.236039 124.804959 
L 351.153479 124.286396 
L 360.070918 123.681406 
L 368.988358 124.45925 
L 377.905798 123.076416 
L 386.823237 122.903561 
L 395.740677 123.24927 
L 404.658117 123.24927 
L 413.575557 123.335697 
L 422.492996 123.335697 
L 431.410436 122.557853 
L 440.327876 122.384998 
L 449.245315 122.212144 
L 458.162755 122.384998 
L 467.080195 122.817134 
L 475.997635 123.422124 
L 484.915074 122.298571 
L 493.832514 121.347873 
L 502.749954 121.175018 
L 511.667393 120.82931 
L 520.584833 120.570028 
L 529.502273 120.915737 
" style="fill:none;stroke:#d62728;stroke-linecap:square;stroke-width:1.5;"/>
   </g>
   <g id="patch_3">
    <path d="M 70.7 374.8 
L 70.7 56.448219 
" style="fill:none;stroke:#000000;stroke-linecap:square;stroke-linejoin:miter;stroke-width:0.8;"/>
   </g>
   <g id="patch_4">
    <path d="M 551.35 374.8 
L 551.35 56.448219 
" style="fill:none;stroke:#000000;stroke-linecap:square;stroke-linejoin:miter;stroke-width:0.8;"/>
   </g>
   <g id="patch_5">
    <path d="M 70.7 374.8 
L 551.35 374.8 
" style="fill:none;stroke:#000000;stroke-linecap:square;stroke-linejoin:miter;stroke-width:0.8;"/>
   </g>
   <g id="patch_6">
    <path d="M 70.7 56.448219 
L 551.35 56.448219 
" style="fill:none;stroke:#000000;stroke-linecap:square;stroke-linejoin:miter;stroke-width:0.8;"/>
   </g>
   <g id="legend_1">
    <g id="patch_7">
     <path d="M 61.427344 42.712639 
L 560.622656 42.712639 
Q 563.622656 42.712639 563.622656 39.712639 
L 563.622656 19.195452 
Q 563.622656 16.195452 560.622656 16.195452 
L 61.427344 16.195452 
Q 58.427344 16.195452 58.427344 19.195452 
L 58.427344 39.712639 
Q 58.427344 42.712639 61.427344 42.712639 
z
" style="fill:#ffffff;opacity:0.8;stroke:#cccccc;stroke-linejoin:miter;"/>
    </g>
    <g id="line2d_19">
     <path d="M 64.427344 28.343108 
L 94.427344 28.343108 
" style="fill:none;stroke:#1f77b4;stroke-linecap:square;stroke-width:1.5;"/>
    </g>
    <g id="line2d_20"/>
    <g id="text_17">
     <!-- FedAvg -->
     <defs>
      <path d="M 9.8125 72.90625 
L 51.703125 72.90625 
L 51.703125 64.59375 
L 19.671875 64.59375 
L 19.671875 43.109375 
L 48.578125 43.109375 
L 48.578125 34.8125 
L 19.671875 34.8125 
L 19.671875 0 
L 9.8125 0 
z
" id="DejaVuSans-70"/>
      <path d="M 2.984375 54.6875 
L 12.5 54.6875 
L 29.59375 8.796875 
L 46.6875 54.6875 
L 56.203125 54.6875 
L 35.6875 0 
L 23.484375 0 
z
" id="DejaVuSans-118"/>
      <path d="M 45.40625 27.984375 
Q 45.40625 37.75 41.375 43.109375 
Q 37.359375 48.484375 30.078125 48.484375 
Q 22.859375 48.484375 18.828125 43.109375 
Q 14.796875 37.75 14.796875 27.984375 
Q 14.796875 18.265625 18.828125 12.890625 
Q 22.859375 7.515625 30.078125 7.515625 
Q 37.359375 7.515625 41.375 12.890625 
Q 45.40625 18.265625 45.40625 27.984375 
z
M 54.390625 6.78125 
Q 54.390625 -7.171875 48.1875 -13.984375 
Q 42 -20.796875 29.203125 -20.796875 
Q 24.46875 -20.796875 20.265625 -20.09375 
Q 16.0625 -19.390625 12.109375 -17.921875 
L 12.109375 -9.1875 
Q 16.0625 -11.328125 19.921875 -12.34375 
Q 23.78125 -13.375 27.78125 -13.375 
Q 36.625 -13.375 41.015625 -8.765625 
Q 45.40625 -4.15625 45.40625 5.171875 
L 45.40625 9.625 
Q 42.625 4.78125 38.28125 2.390625 
Q 33.9375 0 27.875 0 
Q 17.828125 0 11.671875 7.65625 
Q 5.515625 15.328125 5.515625 27.984375 
Q 5.515625 40.671875 11.671875 48.328125 
Q 17.828125 56 27.875 56 
Q 33.9375 56 38.28125 53.609375 
Q 42.625 51.21875 45.40625 46.390625 
L 45.40625 54.6875 
L 54.390625 54.6875 
z
" id="DejaVuSans-103"/>
     </defs>
     <g transform="translate(106.427344 33.593108)scale(0.15 -0.15)">
      <use xlink:href="#DejaVuSans-70"/>
      <use x="52.019531" xlink:href="#DejaVuSans-101"/>
      <use x="113.542969" xlink:href="#DejaVuSans-100"/>
      <use x="177.019531" xlink:href="#DejaVuSans-65"/>
      <use x="239.552734" xlink:href="#DejaVuSans-118"/>
      <use x="298.732422" xlink:href="#DejaVuSans-103"/>
     </g>
    </g>
    <g id="line2d_21">
     <path d="M 190.7625 28.343108 
L 220.7625 28.343108 
" style="fill:none;stroke:#ff7f0e;stroke-linecap:square;stroke-width:1.5;"/>
    </g>
    <g id="line2d_22"/>
    <g id="text_18">
     <!-- FedMed -->
     <defs>
      <path d="M 9.8125 72.90625 
L 24.515625 72.90625 
L 43.109375 23.296875 
L 61.8125 72.90625 
L 76.515625 72.90625 
L 76.515625 0 
L 66.890625 0 
L 66.890625 64.015625 
L 48.09375 14.015625 
L 38.1875 14.015625 
L 19.390625 64.015625 
L 19.390625 0 
L 9.8125 0 
z
" id="DejaVuSans-77"/>
     </defs>
     <g transform="translate(232.7625 33.593108)scale(0.15 -0.15)">
      <use xlink:href="#DejaVuSans-70"/>
      <use x="52.019531" xlink:href="#DejaVuSans-101"/>
      <use x="113.542969" xlink:href="#DejaVuSans-100"/>
      <use x="177.019531" xlink:href="#DejaVuSans-77"/>
      <use x="263.298828" xlink:href="#DejaVuSans-101"/>
      <use x="324.822266" xlink:href="#DejaVuSans-100"/>
     </g>
    </g>
    <g id="line2d_23">
     <path d="M 321.011719 28.343108 
L 351.011719 28.343108 
" style="fill:none;stroke:#2ca02c;stroke-linecap:square;stroke-width:1.5;"/>
    </g>
    <g id="line2d_24"/>
    <g id="text_19">
     <!-- FedProx -->
     <defs>
      <path d="M 19.671875 64.796875 
L 19.671875 37.40625 
L 32.078125 37.40625 
Q 38.96875 37.40625 42.71875 40.96875 
Q 46.484375 44.53125 46.484375 51.125 
Q 46.484375 57.671875 42.71875 61.234375 
Q 38.96875 64.796875 32.078125 64.796875 
z
M 9.8125 72.90625 
L 32.078125 72.90625 
Q 44.34375 72.90625 50.609375 67.359375 
Q 56.890625 61.8125 56.890625 51.125 
Q 56.890625 40.328125 50.609375 34.8125 
Q 44.34375 29.296875 32.078125 29.296875 
L 19.671875 29.296875 
L 19.671875 0 
L 9.8125 0 
z
" id="DejaVuSans-80"/>
      <path d="M 54.890625 54.6875 
L 35.109375 28.078125 
L 55.90625 0 
L 45.3125 0 
L 29.390625 21.484375 
L 13.484375 0 
L 2.875 0 
L 24.125 28.609375 
L 4.6875 54.6875 
L 15.28125 54.6875 
L 29.78125 35.203125 
L 44.28125 54.6875 
z
" id="DejaVuSans-120"/>
     </defs>
     <g transform="translate(363.011719 33.593108)scale(0.15 -0.15)">
      <use xlink:href="#DejaVuSans-70"/>
      <use x="52.019531" xlink:href="#DejaVuSans-101"/>
      <use x="113.542969" xlink:href="#DejaVuSans-100"/>
      <use x="177.019531" xlink:href="#DejaVuSans-80"/>
      <use x="235.572266" xlink:href="#DejaVuSans-114"/>
      <use x="274.435547" xlink:href="#DejaVuSans-111"/>
      <use x="332.492188" xlink:href="#DejaVuSans-120"/>
     </g>
    </g>
    <g id="line2d_25">
     <path d="M 451.764844 28.343108 
L 481.764844 28.343108 
" style="fill:none;stroke:#d62728;stroke-linecap:square;stroke-width:1.5;"/>
    </g>
    <g id="line2d_26"/>
    <g id="text_20">
     <!-- qFedAvg -->
     <defs>
      <path d="M 14.796875 27.296875 
Q 14.796875 17.390625 18.875 11.75 
Q 22.953125 6.109375 30.078125 6.109375 
Q 37.203125 6.109375 41.296875 11.75 
Q 45.40625 17.390625 45.40625 27.296875 
Q 45.40625 37.203125 41.296875 42.84375 
Q 37.203125 48.484375 30.078125 48.484375 
Q 22.953125 48.484375 18.875 42.84375 
Q 14.796875 37.203125 14.796875 27.296875 
z
M 45.40625 8.203125 
Q 42.578125 3.328125 38.25 0.953125 
Q 33.9375 -1.421875 27.875 -1.421875 
Q 17.96875 -1.421875 11.734375 6.484375 
Q 5.515625 14.40625 5.515625 27.296875 
Q 5.515625 40.1875 11.734375 48.09375 
Q 17.96875 56 27.875 56 
Q 33.9375 56 38.25 53.625 
Q 42.578125 51.265625 45.40625 46.390625 
L 45.40625 54.6875 
L 54.390625 54.6875 
L 54.390625 -20.796875 
L 45.40625 -20.796875 
z
" id="DejaVuSans-113"/>
     </defs>
     <g transform="translate(493.764844 33.593108)scale(0.15 -0.15)">
      <use xlink:href="#DejaVuSans-113"/>
      <use x="63.476562" xlink:href="#DejaVuSans-70"/>
      <use x="115.496094" xlink:href="#DejaVuSans-101"/>
      <use x="177.019531" xlink:href="#DejaVuSans-100"/>
      <use x="240.496094" xlink:href="#DejaVuSans-65"/>
      <use x="303.029297" xlink:href="#DejaVuSans-118"/>
      <use x="362.208984" xlink:href="#DejaVuSans-103"/>
     </g>
    </g>
   </g>
  </g>
 </g>
 <defs>
  <clipPath id="pe937e387e2">
   <rect height="318.351781" width="480.65" x="70.7" y="56.448219"/>
  </clipPath>
 </defs>
</svg>
