<?xml version="1.0" encoding="utf-8" standalone="no"?>
<!DOCTYPE svg PUBLIC "-//W3C//DTD SVG 1.1//EN"
  "http://www.w3.org/Graphics/SVG/1.1/DTD/svg11.dtd">
<!-- Created with matplotlib (https://matplotlib.org/) -->
<svg height="432pt" version="1.1" viewBox="0 0 576 432" width="576pt" xmlns="http://www.w3.org/2000/svg" xmlns:xlink="http://www.w3.org/1999/xlink">
 <defs>
  <style type="text/css">
*{stroke-linecap:butt;stroke-linejoin:round;}
  </style>
 </defs>
 <g id="figure_1">
  <g id="patch_1">
   <path d="M 0 432 
L 576 432 
L 576 0 
L 0 0 
z
" style="fill:#ffffff;"/>
  </g>
  <g id="axes_1">
   <g id="patch_2">
    <path d="M 61.2 266.884954 
L 559.8 266.884954 
L 559.8 16.2 
L 61.2 16.2 
z
" style="fill:#ffffff;"/>
   </g>
   <g id="matplotlib.axis_1">
    <g id="xtick_1">
     <g id="line2d_1">
      <path clip-path="url(#p53a9429a17)" d="M 102.75 266.884954 
L 102.75 16.2 
" style="fill:none;stroke:#b0b0b0;stroke-linecap:square;stroke-width:0.8;"/>
     </g>
     <g id="line2d_2">
      <defs>
       <path d="M 0 0 
L 0 3.5 
" id="m94bf18c57d" style="stroke:#000000;stroke-width:0.8;"/>
      </defs>
      <g>
       <use style="stroke:#000000;stroke-width:0.8;" x="102.75" xlink:href="#m94bf18c57d" y="266.884954"/>
      </g>
     </g>
     <g id="text_1">
      <!-- FedAvg CNN -->
      <defs>
       <path d="M 9.8125 72.90625 
L 51.703125 72.90625 
L 51.703125 64.59375 
L 19.671875 64.59375 
L 19.671875 43.109375 
L 48.578125 43.109375 
L 48.578125 34.8125 
L 19.671875 34.8125 
L 19.671875 0 
L 9.8125 0 
z
" id="DejaVuSans-70"/>
       <path d="M 56.203125 29.59375 
L 56.203125 25.203125 
L 14.890625 25.203125 
Q 15.484375 15.921875 20.484375 11.0625 
Q 25.484375 6.203125 34.421875 6.203125 
Q 39.59375 6.203125 44.453125 7.46875 
Q 49.3125 8.734375 54.109375 11.28125 
L 54.109375 2.78125 
Q 49.265625 0.734375 44.1875 -0.34375 
Q 39.109375 -1.421875 33.890625 -1.421875 
Q 20.796875 -1.421875 13.15625 6.1875 
Q 5.515625 13.8125 5.515625 26.8125 
Q 5.515625 40.234375 12.765625 48.109375 
Q 20.015625 56 32.328125 56 
Q 43.359375 56 49.78125 48.890625 
Q 56.203125 41.796875 56.203125 29.59375 
z
M 47.21875 32.234375 
Q 47.125 39.59375 43.09375 43.984375 
Q 39.0625 48.390625 32.421875 48.390625 
Q 24.90625 48.390625 20.390625 44.140625 
Q 15.875 39.890625 15.1875 32.171875 
z
" id="DejaVuSans-101"/>
       <path d="M 45.40625 46.390625 
L 45.40625 75.984375 
L 54.390625 75.984375 
L 54.390625 0 
L 45.40625 0 
L 45.40625 8.203125 
Q 42.578125 3.328125 38.25 0.953125 
Q 33.9375 -1.421875 27.875 -1.421875 
Q 17.96875 -1.421875 11.734375 6.484375 
Q 5.515625 14.40625 5.515625 27.296875 
Q 5.515625 40.1875 11.734375 48.09375 
Q 17.96875 56 27.875 56 
Q 33.9375 56 38.25 53.625 
Q 42.578125 51.265625 45.40625 46.390625 
z
M 14.796875 27.296875 
Q 14.796875 17.390625 18.875 11.75 
Q 22.953125 6.109375 30.078125 6.109375 
Q 37.203125 6.109375 41.296875 11.75 
Q 45.40625 17.390625 45.40625 27.296875 
Q 45.40625 37.203125 41.296875 42.84375 
Q 37.203125 48.484375 30.078125 48.484375 
Q 22.953125 48.484375 18.875 42.84375 
Q 14.796875 37.203125 14.796875 27.296875 
z
" id="DejaVuSans-100"/>
       <path d="M 34.1875 63.1875 
L 20.796875 26.90625 
L 47.609375 26.90625 
z
M 28.609375 72.90625 
L 39.796875 72.90625 
L 67.578125 0 
L 57.328125 0 
L 50.6875 18.703125 
L 17.828125 18.703125 
L 11.1875 0 
L 0.78125 0 
z
" id="DejaVuSans-65"/>
       <path d="M 2.984375 54.6875 
L 12.5 54.6875 
L 29.59375 8.796875 
L 46.6875 54.6875 
L 56.203125 54.6875 
L 35.6875 0 
L 23.484375 0 
z
" id="DejaVuSans-118"/>
       <path d="M 45.40625 27.984375 
Q 45.40625 37.75 41.375 43.109375 
Q 37.359375 48.484375 30.078125 48.484375 
Q 22.859375 48.484375 18.828125 43.109375 
Q 14.796875 37.75 14.796875 27.984375 
Q 14.796875 18.265625 18.828125 12.890625 
Q 22.859375 7.515625 30.078125 7.515625 
Q 37.359375 7.515625 41.375 12.890625 
Q 45.40625 18.265625 45.40625 27.984375 
z
M 54.390625 6.78125 
Q 54.390625 -7.171875 48.1875 -13.984375 
Q 42 -20.796875 29.203125 -20.796875 
Q 24.46875 -20.796875 20.265625 -20.09375 
Q 16.0625 -19.390625 12.109375 -17.921875 
L 12.109375 -9.1875 
Q 16.0625 -11.328125 19.921875 -12.34375 
Q 23.78125 -13.375 27.78125 -13.375 
Q 36.625 -13.375 41.015625 -8.765625 
Q 45.40625 -4.15625 45.40625 5.171875 
L 45.40625 9.625 
Q 42.625 4.78125 38.28125 2.390625 
Q 33.9375 0 27.875 0 
Q 17.828125 0 11.671875 7.65625 
Q 5.515625 15.328125 5.515625 27.984375 
Q 5.515625 40.671875 11.671875 48.328125 
Q 17.828125 56 27.875 56 
Q 33.9375 56 38.28125 53.609375 
Q 42.625 51.21875 45.40625 46.390625 
L 45.40625 54.6875 
L 54.390625 54.6875 
z
" id="DejaVuSans-103"/>
       <path id="DejaVuSans-32"/>
       <path d="M 64.40625 67.28125 
L 64.40625 56.890625 
Q 59.421875 61.53125 53.78125 63.8125 
Q 48.140625 66.109375 41.796875 66.109375 
Q 29.296875 66.109375 22.65625 58.46875 
Q 16.015625 50.828125 16.015625 36.375 
Q 16.015625 21.96875 22.65625 14.328125 
Q 29.296875 6.6875 41.796875 6.6875 
Q 48.140625 6.6875 53.78125 8.984375 
Q 59.421875 11.28125 64.40625 15.921875 
L 64.40625 5.609375 
Q 59.234375 2.09375 53.4375 0.328125 
Q 47.65625 -1.421875 41.21875 -1.421875 
Q 24.65625 -1.421875 15.125 8.703125 
Q 5.609375 18.84375 5.609375 36.375 
Q 5.609375 53.953125 15.125 64.078125 
Q 24.65625 74.21875 41.21875 74.21875 
Q 47.75 74.21875 53.53125 72.484375 
Q 59.328125 70.75 64.40625 67.28125 
z
" id="DejaVuSans-67"/>
       <path d="M 9.8125 72.90625 
L 23.09375 72.90625 
L 55.421875 11.921875 
L 55.421875 72.90625 
L 64.984375 72.90625 
L 64.984375 0 
L 51.703125 0 
L 19.390625 60.984375 
L 19.390625 0 
L 9.8125 0 
z
" id="DejaVuSans-78"/>
      </defs>
      <g transform="translate(35.475971 347.012501)rotate(-45)scale(0.15 -0.15)">
       <use xlink:href="#DejaVuSans-70"/>
       <use x="52.019531" xlink:href="#DejaVuSans-101"/>
       <use x="113.542969" xlink:href="#DejaVuSans-100"/>
       <use x="177.019531" xlink:href="#DejaVuSans-65"/>
       <use x="239.552734" xlink:href="#DejaVuSans-118"/>
       <use x="298.732422" xlink:href="#DejaVuSans-103"/>
       <use x="362.208984" xlink:href="#DejaVuSans-32"/>
       <use x="393.996094" xlink:href="#DejaVuSans-67"/>
       <use x="463.820312" xlink:href="#DejaVuSans-78"/>
       <use x="538.625" xlink:href="#DejaVuSans-78"/>
      </g>
     </g>
    </g>
    <g id="xtick_2">
     <g id="line2d_3">
      <path clip-path="url(#p53a9429a17)" d="M 172 266.884954 
L 172 16.2 
" style="fill:none;stroke:#b0b0b0;stroke-linecap:square;stroke-width:0.8;"/>
     </g>
     <g id="line2d_4">
      <g>
       <use style="stroke:#000000;stroke-width:0.8;" x="172" xlink:href="#m94bf18c57d" y="266.884954"/>
      </g>
     </g>
     <g id="text_2">
      <!-- FedMed CNN -->
      <defs>
       <path d="M 9.8125 72.90625 
L 24.515625 72.90625 
L 43.109375 23.296875 
L 61.8125 72.90625 
L 76.515625 72.90625 
L 76.515625 0 
L 66.890625 0 
L 66.890625 64.015625 
L 48.09375 14.015625 
L 38.1875 14.015625 
L 19.390625 64.015625 
L 19.390625 0 
L 9.8125 0 
z
" id="DejaVuSans-77"/>
      </defs>
      <g transform="translate(101.958311 349.780161)rotate(-45)scale(0.15 -0.15)">
       <use xlink:href="#DejaVuSans-70"/>
       <use x="52.019531" xlink:href="#DejaVuSans-101"/>
       <use x="113.542969" xlink:href="#DejaVuSans-100"/>
       <use x="177.019531" xlink:href="#DejaVuSans-77"/>
       <use x="263.298828" xlink:href="#DejaVuSans-101"/>
       <use x="324.822266" xlink:href="#DejaVuSans-100"/>
       <use x="388.298828" xlink:href="#DejaVuSans-32"/>
       <use x="420.085938" xlink:href="#DejaVuSans-67"/>
       <use x="489.910156" xlink:href="#DejaVuSans-78"/>
       <use x="564.714844" xlink:href="#DejaVuSans-78"/>
      </g>
     </g>
    </g>
    <g id="xtick_3">
     <g id="line2d_5">
      <path clip-path="url(#p53a9429a17)" d="M 241.25 266.884954 
L 241.25 16.2 
" style="fill:none;stroke:#b0b0b0;stroke-linecap:square;stroke-width:0.8;"/>
     </g>
     <g id="line2d_6">
      <g>
       <use style="stroke:#000000;stroke-width:0.8;" x="241.25" xlink:href="#m94bf18c57d" y="266.884954"/>
      </g>
     </g>
     <g id="text_3">
      <!-- FedProx CNN -->
      <defs>
       <path d="M 19.671875 64.796875 
L 19.671875 37.40625 
L 32.078125 37.40625 
Q 38.96875 37.40625 42.71875 40.96875 
Q 46.484375 44.53125 46.484375 51.125 
Q 46.484375 57.671875 42.71875 61.234375 
Q 38.96875 64.796875 32.078125 64.796875 
z
M 9.8125 72.90625 
L 32.078125 72.90625 
Q 44.34375 72.90625 50.609375 67.359375 
Q 56.890625 61.8125 56.890625 51.125 
Q 56.890625 40.328125 50.609375 34.8125 
Q 44.34375 29.296875 32.078125 29.296875 
L 19.671875 29.296875 
L 19.671875 0 
L 9.8125 0 
z
" id="DejaVuSans-80"/>
       <path d="M 41.109375 46.296875 
Q 39.59375 47.171875 37.8125 47.578125 
Q 36.03125 48 33.890625 48 
Q 26.265625 48 22.1875 43.046875 
Q 18.109375 38.09375 18.109375 28.8125 
L 18.109375 0 
L 9.078125 0 
L 9.078125 54.6875 
L 18.109375 54.6875 
L 18.109375 46.1875 
Q 20.953125 51.171875 25.484375 53.578125 
Q 30.03125 56 36.53125 56 
Q 37.453125 56 38.578125 55.875 
Q 39.703125 55.765625 41.0625 55.515625 
z
" id="DejaVuSans-114"/>
       <path d="M 30.609375 48.390625 
Q 23.390625 48.390625 19.1875 42.75 
Q 14.984375 37.109375 14.984375 27.296875 
Q 14.984375 17.484375 19.15625 11.84375 
Q 23.34375 6.203125 30.609375 6.203125 
Q 37.796875 6.203125 41.984375 11.859375 
Q 46.1875 17.53125 46.1875 27.296875 
Q 46.1875 37.015625 41.984375 42.703125 
Q 37.796875 48.390625 30.609375 48.390625 
z
M 30.609375 56 
Q 42.328125 56 49.015625 48.375 
Q 55.71875 40.765625 55.71875 27.296875 
Q 55.71875 13.875 49.015625 6.21875 
Q 42.328125 -1.421875 30.609375 -1.421875 
Q 18.84375 -1.421875 12.171875 6.21875 
Q 5.515625 13.875 5.515625 27.296875 
Q 5.515625 40.765625 12.171875 48.375 
Q 18.84375 56 30.609375 56 
z
" id="DejaVuSans-111"/>
       <path d="M 54.890625 54.6875 
L 35.109375 28.078125 
L 55.90625 0 
L 45.3125 0 
L 29.390625 21.484375 
L 13.484375 0 
L 2.875 0 
L 24.125 28.609375 
L 4.6875 54.6875 
L 15.28125 54.6875 
L 29.78125 35.203125 
L 44.28125 54.6875 
z
" id="DejaVuSans-120"/>
      </defs>
      <g transform="translate(170.851996 350.136477)rotate(-45)scale(0.15 -0.15)">
       <use xlink:href="#DejaVuSans-70"/>
       <use x="52.019531" xlink:href="#DejaVuSans-101"/>
       <use x="113.542969" xlink:href="#DejaVuSans-100"/>
       <use x="177.019531" xlink:href="#DejaVuSans-80"/>
       <use x="235.572266" xlink:href="#DejaVuSans-114"/>
       <use x="274.435547" xlink:href="#DejaVuSans-111"/>
       <use x="332.492188" xlink:href="#DejaVuSans-120"/>
       <use x="391.671875" xlink:href="#DejaVuSans-32"/>
       <use x="423.458984" xlink:href="#DejaVuSans-67"/>
       <use x="493.283203" xlink:href="#DejaVuSans-78"/>
       <use x="568.087891" xlink:href="#DejaVuSans-78"/>
      </g>
     </g>
    </g>
    <g id="xtick_4">
     <g id="line2d_7">
      <path clip-path="url(#p53a9429a17)" d="M 310.5 266.884954 
L 310.5 16.2 
" style="fill:none;stroke:#b0b0b0;stroke-linecap:square;stroke-width:0.8;"/>
     </g>
     <g id="line2d_8">
      <g>
       <use style="stroke:#000000;stroke-width:0.8;" x="310.5" xlink:href="#m94bf18c57d" y="266.884954"/>
      </g>
     </g>
     <g id="text_4">
      <!-- qFedAvg_001_u CNN -->
      <defs>
       <path d="M 14.796875 27.296875 
Q 14.796875 17.390625 18.875 11.75 
Q 22.953125 6.109375 30.078125 6.109375 
Q 37.203125 6.109375 41.296875 11.75 
Q 45.40625 17.390625 45.40625 27.296875 
Q 45.40625 37.203125 41.296875 42.84375 
Q 37.203125 48.484375 30.078125 48.484375 
Q 22.953125 48.484375 18.875 42.84375 
Q 14.796875 37.203125 14.796875 27.296875 
z
M 45.40625 8.203125 
Q 42.578125 3.328125 38.25 0.953125 
Q 33.9375 -1.421875 27.875 -1.421875 
Q 17.96875 -1.421875 11.734375 6.484375 
Q 5.515625 14.40625 5.515625 27.296875 
Q 5.515625 40.1875 11.734375 48.09375 
Q 17.96875 56 27.875 56 
Q 33.9375 56 38.25 53.625 
Q 42.578125 51.265625 45.40625 46.390625 
L 45.40625 54.6875 
L 54.390625 54.6875 
L 54.390625 -20.796875 
L 45.40625 -20.796875 
z
" id="DejaVuSans-113"/>
       <path d="M 50.984375 -16.609375 
L 50.984375 -23.578125 
L -0.984375 -23.578125 
L -0.984375 -16.609375 
z
" id="DejaVuSans-95"/>
       <path d="M 31.78125 66.40625 
Q 24.171875 66.40625 20.328125 58.90625 
Q 16.5 51.421875 16.5 36.375 
Q 16.5 21.390625 20.328125 13.890625 
Q 24.171875 6.390625 31.78125 6.390625 
Q 39.453125 6.390625 43.28125 13.890625 
Q 47.125 21.390625 47.125 36.375 
Q 47.125 51.421875 43.28125 58.90625 
Q 39.453125 66.40625 31.78125 66.40625 
z
M 31.78125 74.21875 
Q 44.046875 74.21875 50.515625 64.515625 
Q 56.984375 54.828125 56.984375 36.375 
Q 56.984375 17.96875 50.515625 8.265625 
Q 44.046875 -1.421875 31.78125 -1.421875 
Q 19.53125 -1.421875 13.0625 8.265625 
Q 6.59375 17.96875 6.59375 36.375 
Q 6.59375 54.828125 13.0625 64.515625 
Q 19.53125 74.21875 31.78125 74.21875 
z
" id="DejaVuSans-48"/>
       <path d="M 12.40625 8.296875 
L 28.515625 8.296875 
L 28.515625 63.921875 
L 10.984375 60.40625 
L 10.984375 69.390625 
L 28.421875 72.90625 
L 38.28125 72.90625 
L 38.28125 8.296875 
L 54.390625 8.296875 
L 54.390625 0 
L 12.40625 0 
z
" id="DejaVuSans-49"/>
       <path d="M 8.5 21.578125 
L 8.5 54.6875 
L 17.484375 54.6875 
L 17.484375 21.921875 
Q 17.484375 14.15625 20.5 10.265625 
Q 23.53125 6.390625 29.59375 6.390625 
Q 36.859375 6.390625 41.078125 11.03125 
Q 45.3125 15.671875 45.3125 23.6875 
L 45.3125 54.6875 
L 54.296875 54.6875 
L 54.296875 0 
L 45.3125 0 
L 45.3125 8.40625 
Q 42.046875 3.421875 37.71875 1 
Q 33.40625 -1.421875 27.6875 -1.421875 
Q 18.265625 -1.421875 13.375 4.4375 
Q 8.5 10.296875 8.5 21.578125 
z
M 31.109375 56 
z
" id="DejaVuSans-117"/>
      </defs>
      <g transform="translate(198.623554 391.319922)rotate(-45)scale(0.15 -0.15)">
       <use xlink:href="#DejaVuSans-113"/>
       <use x="63.476562" xlink:href="#DejaVuSans-70"/>
       <use x="115.496094" xlink:href="#DejaVuSans-101"/>
       <use x="177.019531" xlink:href="#DejaVuSans-100"/>
       <use x="240.496094" xlink:href="#DejaVuSans-65"/>
       <use x="303.029297" xlink:href="#DejaVuSans-118"/>
       <use x="362.208984" xlink:href="#DejaVuSans-103"/>
       <use x="425.685547" xlink:href="#DejaVuSans-95"/>
       <use x="475.685547" xlink:href="#DejaVuSans-48"/>
       <use x="539.308594" xlink:href="#DejaVuSans-48"/>
       <use x="602.931641" xlink:href="#DejaVuSans-49"/>
       <use x="666.554688" xlink:href="#DejaVuSans-95"/>
       <use x="716.554688" xlink:href="#DejaVuSans-117"/>
       <use x="779.933594" xlink:href="#DejaVuSans-32"/>
       <use x="811.720703" xlink:href="#DejaVuSans-67"/>
       <use x="881.544922" xlink:href="#DejaVuSans-78"/>
       <use x="956.349609" xlink:href="#DejaVuSans-78"/>
      </g>
     </g>
    </g>
    <g id="xtick_5">
     <g id="line2d_9">
      <path clip-path="url(#p53a9429a17)" d="M 379.75 266.884954 
L 379.75 16.2 
" style="fill:none;stroke:#b0b0b0;stroke-linecap:square;stroke-width:0.8;"/>
     </g>
     <g id="line2d_10">
      <g>
       <use style="stroke:#000000;stroke-width:0.8;" x="379.75" xlink:href="#m94bf18c57d" y="266.884954"/>
      </g>
     </g>
     <g id="text_5">
      <!-- qFedAvg_1_w CNN -->
      <defs>
       <path d="M 4.203125 54.6875 
L 13.1875 54.6875 
L 24.421875 12.015625 
L 35.59375 54.6875 
L 46.1875 54.6875 
L 57.421875 12.015625 
L 68.609375 54.6875 
L 77.59375 54.6875 
L 63.28125 0 
L 52.6875 0 
L 40.921875 44.828125 
L 29.109375 0 
L 18.5 0 
z
" id="DejaVuSans-119"/>
      </defs>
      <g transform="translate(279.418177 379.775299)rotate(-45)scale(0.15 -0.15)">
       <use xlink:href="#DejaVuSans-113"/>
       <use x="63.476562" xlink:href="#DejaVuSans-70"/>
       <use x="115.496094" xlink:href="#DejaVuSans-101"/>
       <use x="177.019531" xlink:href="#DejaVuSans-100"/>
       <use x="240.496094" xlink:href="#DejaVuSans-65"/>
       <use x="303.029297" xlink:href="#DejaVuSans-118"/>
       <use x="362.208984" xlink:href="#DejaVuSans-103"/>
       <use x="425.685547" xlink:href="#DejaVuSans-95"/>
       <use x="475.685547" xlink:href="#DejaVuSans-49"/>
       <use x="539.308594" xlink:href="#DejaVuSans-95"/>
       <use x="589.308594" xlink:href="#DejaVuSans-119"/>
       <use x="671.095703" xlink:href="#DejaVuSans-32"/>
       <use x="702.882812" xlink:href="#DejaVuSans-67"/>
       <use x="772.707031" xlink:href="#DejaVuSans-78"/>
       <use x="847.511719" xlink:href="#DejaVuSans-78"/>
      </g>
     </g>
    </g>
    <g id="xtick_6">
     <g id="line2d_11">
      <path clip-path="url(#p53a9429a17)" d="M 449 266.884954 
L 449 16.2 
" style="fill:none;stroke:#b0b0b0;stroke-linecap:square;stroke-width:0.8;"/>
     </g>
     <g id="line2d_12">
      <g>
       <use style="stroke:#000000;stroke-width:0.8;" x="449" xlink:href="#m94bf18c57d" y="266.884954"/>
      </g>
     </g>
     <g id="text_6">
      <!-- qFedAvg_001_w CNN -->
      <g transform="translate(335.171276 393.2722)rotate(-45)scale(0.15 -0.15)">
       <use xlink:href="#DejaVuSans-113"/>
       <use x="63.476562" xlink:href="#DejaVuSans-70"/>
       <use x="115.496094" xlink:href="#DejaVuSans-101"/>
       <use x="177.019531" xlink:href="#DejaVuSans-100"/>
       <use x="240.496094" xlink:href="#DejaVuSans-65"/>
       <use x="303.029297" xlink:href="#DejaVuSans-118"/>
       <use x="362.208984" xlink:href="#DejaVuSans-103"/>
       <use x="425.685547" xlink:href="#DejaVuSans-95"/>
       <use x="475.685547" xlink:href="#DejaVuSans-48"/>
       <use x="539.308594" xlink:href="#DejaVuSans-48"/>
       <use x="602.931641" xlink:href="#DejaVuSans-49"/>
       <use x="666.554688" xlink:href="#DejaVuSans-95"/>
       <use x="716.554688" xlink:href="#DejaVuSans-119"/>
       <use x="798.341797" xlink:href="#DejaVuSans-32"/>
       <use x="830.128906" xlink:href="#DejaVuSans-67"/>
       <use x="899.953125" xlink:href="#DejaVuSans-78"/>
       <use x="974.757812" xlink:href="#DejaVuSans-78"/>
      </g>
     </g>
    </g>
    <g id="xtick_7">
     <g id="line2d_13">
      <path clip-path="url(#p53a9429a17)" d="M 518.25 266.884954 
L 518.25 16.2 
" style="fill:none;stroke:#b0b0b0;stroke-linecap:square;stroke-width:0.8;"/>
     </g>
     <g id="line2d_14">
      <g>
       <use style="stroke:#000000;stroke-width:0.8;" x="518.25" xlink:href="#m94bf18c57d" y="266.884954"/>
      </g>
     </g>
     <g id="text_7">
      <!-- qFedAvg_1_u CNN -->
      <g transform="translate(419.870455 377.823022)rotate(-45)scale(0.15 -0.15)">
       <use xlink:href="#DejaVuSans-113"/>
       <use x="63.476562" xlink:href="#DejaVuSans-70"/>
       <use x="115.496094" xlink:href="#DejaVuSans-101"/>
       <use x="177.019531" xlink:href="#DejaVuSans-100"/>
       <use x="240.496094" xlink:href="#DejaVuSans-65"/>
       <use x="303.029297" xlink:href="#DejaVuSans-118"/>
       <use x="362.208984" xlink:href="#DejaVuSans-103"/>
       <use x="425.685547" xlink:href="#DejaVuSans-95"/>
       <use x="475.685547" xlink:href="#DejaVuSans-49"/>
       <use x="539.308594" xlink:href="#DejaVuSans-95"/>
       <use x="589.308594" xlink:href="#DejaVuSans-117"/>
       <use x="652.6875" xlink:href="#DejaVuSans-32"/>
       <use x="684.474609" xlink:href="#DejaVuSans-67"/>
       <use x="754.298828" xlink:href="#DejaVuSans-78"/>
       <use x="829.103516" xlink:href="#DejaVuSans-78"/>
      </g>
     </g>
    </g>
    <g id="text_8">
     <!-- Algorithms -->
     <defs>
      <path d="M 9.421875 75.984375 
L 18.40625 75.984375 
L 18.40625 0 
L 9.421875 0 
z
" id="DejaVuSans-108"/>
      <path d="M 9.421875 54.6875 
L 18.40625 54.6875 
L 18.40625 0 
L 9.421875 0 
z
M 9.421875 75.984375 
L 18.40625 75.984375 
L 18.40625 64.59375 
L 9.421875 64.59375 
z
" id="DejaVuSans-105"/>
      <path d="M 18.3125 70.21875 
L 18.3125 54.6875 
L 36.8125 54.6875 
L 36.8125 47.703125 
L 18.3125 47.703125 
L 18.3125 18.015625 
Q 18.3125 11.328125 20.140625 9.421875 
Q 21.96875 7.515625 27.59375 7.515625 
L 36.8125 7.515625 
L 36.8125 0 
L 27.59375 0 
Q 17.1875 0 13.234375 3.875 
Q 9.28125 7.765625 9.28125 18.015625 
L 9.28125 47.703125 
L 2.6875 47.703125 
L 2.6875 54.6875 
L 9.28125 54.6875 
L 9.28125 70.21875 
z
" id="DejaVuSans-116"/>
      <path d="M 54.890625 33.015625 
L 54.890625 0 
L 45.90625 0 
L 45.90625 32.71875 
Q 45.90625 40.484375 42.875 44.328125 
Q 39.84375 48.1875 33.796875 48.1875 
Q 26.515625 48.1875 22.3125 43.546875 
Q 18.109375 38.921875 18.109375 30.90625 
L 18.109375 0 
L 9.078125 0 
L 9.078125 75.984375 
L 18.109375 75.984375 
L 18.109375 46.1875 
Q 21.34375 51.125 25.703125 53.5625 
Q 30.078125 56 35.796875 56 
Q 45.21875 56 50.046875 50.171875 
Q 54.890625 44.34375 54.890625 33.015625 
z
" id="DejaVuSans-104"/>
      <path d="M 52 44.1875 
Q 55.375 50.25 60.0625 53.125 
Q 64.75 56 71.09375 56 
Q 79.640625 56 84.28125 50.015625 
Q 88.921875 44.046875 88.921875 33.015625 
L 88.921875 0 
L 79.890625 0 
L 79.890625 32.71875 
Q 79.890625 40.578125 77.09375 44.375 
Q 74.3125 48.1875 68.609375 48.1875 
Q 61.625 48.1875 57.5625 43.546875 
Q 53.515625 38.921875 53.515625 30.90625 
L 53.515625 0 
L 44.484375 0 
L 44.484375 32.71875 
Q 44.484375 40.625 41.703125 44.40625 
Q 38.921875 48.1875 33.109375 48.1875 
Q 26.21875 48.1875 22.15625 43.53125 
Q 18.109375 38.875 18.109375 30.90625 
L 18.109375 0 
L 9.078125 0 
L 9.078125 54.6875 
L 18.109375 54.6875 
L 18.109375 46.1875 
Q 21.1875 51.21875 25.484375 53.609375 
Q 29.78125 56 35.6875 56 
Q 41.65625 56 45.828125 52.96875 
Q 50 49.953125 52 44.1875 
z
" id="DejaVuSans-109"/>
      <path d="M 44.28125 53.078125 
L 44.28125 44.578125 
Q 40.484375 46.53125 36.375 47.5 
Q 32.28125 48.484375 27.875 48.484375 
Q 21.1875 48.484375 17.84375 46.4375 
Q 14.5 44.390625 14.5 40.28125 
Q 14.5 37.15625 16.890625 35.375 
Q 19.28125 33.59375 26.515625 31.984375 
L 29.59375 31.296875 
Q 39.15625 29.25 43.1875 25.515625 
Q 47.21875 21.78125 47.21875 15.09375 
Q 47.21875 7.46875 41.1875 3.015625 
Q 35.15625 -1.421875 24.609375 -1.421875 
Q 20.21875 -1.421875 15.453125 -0.5625 
Q 10.6875 0.296875 5.421875 2 
L 5.421875 11.28125 
Q 10.40625 8.6875 15.234375 7.390625 
Q 20.0625 6.109375 24.8125 6.109375 
Q 31.15625 6.109375 34.5625 8.28125 
Q 37.984375 10.453125 37.984375 14.40625 
Q 37.984375 18.0625 35.515625 20.015625 
Q 33.0625 21.96875 24.703125 23.78125 
L 21.578125 24.515625 
Q 13.234375 26.265625 9.515625 29.90625 
Q 5.8125 33.546875 5.8125 39.890625 
Q 5.8125 47.609375 11.28125 51.796875 
Q 16.75 56 26.8125 56 
Q 31.78125 56 36.171875 55.265625 
Q 40.578125 54.546875 44.28125 53.078125 
z
" id="DejaVuSans-115"/>
     </defs>
     <g transform="translate(269.862891 411.170694)scale(0.15 -0.15)">
      <use xlink:href="#DejaVuSans-65"/>
      <use x="68.408203" xlink:href="#DejaVuSans-108"/>
      <use x="96.191406" xlink:href="#DejaVuSans-103"/>
      <use x="159.667969" xlink:href="#DejaVuSans-111"/>
      <use x="220.849609" xlink:href="#DejaVuSans-114"/>
      <use x="261.962891" xlink:href="#DejaVuSans-105"/>
      <use x="289.746094" xlink:href="#DejaVuSans-116"/>
      <use x="328.955078" xlink:href="#DejaVuSans-104"/>
      <use x="392.333984" xlink:href="#DejaVuSans-109"/>
      <use x="489.746094" xlink:href="#DejaVuSans-115"/>
     </g>
    </g>
   </g>
   <g id="matplotlib.axis_2">
    <g id="ytick_1">
     <g id="line2d_15">
      <path clip-path="url(#p53a9429a17)" d="M 61.2 247.608936 
L 559.8 247.608936 
" style="fill:none;stroke:#b0b0b0;stroke-linecap:square;stroke-width:0.8;"/>
     </g>
     <g id="line2d_16">
      <defs>
       <path d="M 0 0 
L -3.5 0 
" id="m4530a59bfc" style="stroke:#000000;stroke-width:0.8;"/>
      </defs>
      <g>
       <use style="stroke:#000000;stroke-width:0.8;" x="61.2" xlink:href="#m4530a59bfc" y="247.608936"/>
      </g>
     </g>
     <g id="text_9">
      <!-- 5 -->
      <defs>
       <path d="M 10.796875 72.90625 
L 49.515625 72.90625 
L 49.515625 64.59375 
L 19.828125 64.59375 
L 19.828125 46.734375 
Q 21.96875 47.46875 24.109375 47.828125 
Q 26.265625 48.1875 28.421875 48.1875 
Q 40.625 48.1875 47.75 41.5 
Q 54.890625 34.8125 54.890625 23.390625 
Q 54.890625 11.625 47.5625 5.09375 
Q 40.234375 -1.421875 26.90625 -1.421875 
Q 22.3125 -1.421875 17.546875 -0.640625 
Q 12.796875 0.140625 7.71875 1.703125 
L 7.71875 11.625 
Q 12.109375 9.234375 16.796875 8.0625 
Q 21.484375 6.890625 26.703125 6.890625 
Q 35.15625 6.890625 40.078125 11.328125 
Q 45.015625 15.765625 45.015625 23.390625 
Q 45.015625 31 40.078125 35.4375 
Q 35.15625 39.890625 26.703125 39.890625 
Q 22.75 39.890625 18.8125 39.015625 
Q 14.890625 38.140625 10.796875 36.28125 
z
" id="DejaVuSans-53"/>
      </defs>
      <g transform="translate(44.65625 253.307765)scale(0.15 -0.15)">
       <use xlink:href="#DejaVuSans-53"/>
      </g>
     </g>
    </g>
    <g id="ytick_2">
     <g id="line2d_17">
      <path clip-path="url(#p53a9429a17)" d="M 61.2 205.215125 
L 559.8 205.215125 
" style="fill:none;stroke:#b0b0b0;stroke-linecap:square;stroke-width:0.8;"/>
     </g>
     <g id="line2d_18">
      <g>
       <use style="stroke:#000000;stroke-width:0.8;" x="61.2" xlink:href="#m4530a59bfc" y="205.215125"/>
      </g>
     </g>
     <g id="text_10">
      <!-- 6 -->
      <defs>
       <path d="M 33.015625 40.375 
Q 26.375 40.375 22.484375 35.828125 
Q 18.609375 31.296875 18.609375 23.390625 
Q 18.609375 15.53125 22.484375 10.953125 
Q 26.375 6.390625 33.015625 6.390625 
Q 39.65625 6.390625 43.53125 10.953125 
Q 47.40625 15.53125 47.40625 23.390625 
Q 47.40625 31.296875 43.53125 35.828125 
Q 39.65625 40.375 33.015625 40.375 
z
M 52.59375 71.296875 
L 52.59375 62.3125 
Q 48.875 64.0625 45.09375 64.984375 
Q 41.3125 65.921875 37.59375 65.921875 
Q 27.828125 65.921875 22.671875 59.328125 
Q 17.53125 52.734375 16.796875 39.40625 
Q 19.671875 43.65625 24.015625 45.921875 
Q 28.375 48.1875 33.59375 48.1875 
Q 44.578125 48.1875 50.953125 41.515625 
Q 57.328125 34.859375 57.328125 23.390625 
Q 57.328125 12.15625 50.6875 5.359375 
Q 44.046875 -1.421875 33.015625 -1.421875 
Q 20.359375 -1.421875 13.671875 8.265625 
Q 6.984375 17.96875 6.984375 36.375 
Q 6.984375 53.65625 15.1875 63.9375 
Q 23.390625 74.21875 37.203125 74.21875 
Q 40.921875 74.21875 44.703125 73.484375 
Q 48.484375 72.75 52.59375 71.296875 
z
" id="DejaVuSans-54"/>
      </defs>
      <g transform="translate(44.65625 210.913953)scale(0.15 -0.15)">
       <use xlink:href="#DejaVuSans-54"/>
      </g>
     </g>
    </g>
    <g id="ytick_3">
     <g id="line2d_19">
      <path clip-path="url(#p53a9429a17)" d="M 61.2 162.821313 
L 559.8 162.821313 
" style="fill:none;stroke:#b0b0b0;stroke-linecap:square;stroke-width:0.8;"/>
     </g>
     <g id="line2d_20">
      <g>
       <use style="stroke:#000000;stroke-width:0.8;" x="61.2" xlink:href="#m4530a59bfc" y="162.821313"/>
      </g>
     </g>
     <g id="text_11">
      <!-- 7 -->
      <defs>
       <path d="M 8.203125 72.90625 
L 55.078125 72.90625 
L 55.078125 68.703125 
L 28.609375 0 
L 18.3125 0 
L 43.21875 64.59375 
L 8.203125 64.59375 
z
" id="DejaVuSans-55"/>
      </defs>
      <g transform="translate(44.65625 168.520141)scale(0.15 -0.15)">
       <use xlink:href="#DejaVuSans-55"/>
      </g>
     </g>
    </g>
    <g id="ytick_4">
     <g id="line2d_21">
      <path clip-path="url(#p53a9429a17)" d="M 61.2 120.427502 
L 559.8 120.427502 
" style="fill:none;stroke:#b0b0b0;stroke-linecap:square;stroke-width:0.8;"/>
     </g>
     <g id="line2d_22">
      <g>
       <use style="stroke:#000000;stroke-width:0.8;" x="61.2" xlink:href="#m4530a59bfc" y="120.427502"/>
      </g>
     </g>
     <g id="text_12">
      <!-- 8 -->
      <defs>
       <path d="M 31.78125 34.625 
Q 24.75 34.625 20.71875 30.859375 
Q 16.703125 27.09375 16.703125 20.515625 
Q 16.703125 13.921875 20.71875 10.15625 
Q 24.75 6.390625 31.78125 6.390625 
Q 38.8125 6.390625 42.859375 10.171875 
Q 46.921875 13.96875 46.921875 20.515625 
Q 46.921875 27.09375 42.890625 30.859375 
Q 38.875 34.625 31.78125 34.625 
z
M 21.921875 38.8125 
Q 15.578125 40.375 12.03125 44.71875 
Q 8.5 49.078125 8.5 55.328125 
Q 8.5 64.0625 14.71875 69.140625 
Q 20.953125 74.21875 31.78125 74.21875 
Q 42.671875 74.21875 48.875 69.140625 
Q 55.078125 64.0625 55.078125 55.328125 
Q 55.078125 49.078125 51.53125 44.71875 
Q 48 40.375 41.703125 38.8125 
Q 48.828125 37.15625 52.796875 32.3125 
Q 56.78125 27.484375 56.78125 20.515625 
Q 56.78125 9.90625 50.3125 4.234375 
Q 43.84375 -1.421875 31.78125 -1.421875 
Q 19.734375 -1.421875 13.25 4.234375 
Q 6.78125 9.90625 6.78125 20.515625 
Q 6.78125 27.484375 10.78125 32.3125 
Q 14.796875 37.15625 21.921875 38.8125 
z
M 18.3125 54.390625 
Q 18.3125 48.734375 21.84375 45.5625 
Q 25.390625 42.390625 31.78125 42.390625 
Q 38.140625 42.390625 41.71875 45.5625 
Q 45.3125 48.734375 45.3125 54.390625 
Q 45.3125 60.0625 41.71875 63.234375 
Q 38.140625 66.40625 31.78125 66.40625 
Q 25.390625 66.40625 21.84375 63.234375 
Q 18.3125 60.0625 18.3125 54.390625 
z
" id="DejaVuSans-56"/>
      </defs>
      <g transform="translate(44.65625 126.12633)scale(0.15 -0.15)">
       <use xlink:href="#DejaVuSans-56"/>
      </g>
     </g>
    </g>
    <g id="ytick_5">
     <g id="line2d_23">
      <path clip-path="url(#p53a9429a17)" d="M 61.2 78.03369 
L 559.8 78.03369 
" style="fill:none;stroke:#b0b0b0;stroke-linecap:square;stroke-width:0.8;"/>
     </g>
     <g id="line2d_24">
      <g>
       <use style="stroke:#000000;stroke-width:0.8;" x="61.2" xlink:href="#m4530a59bfc" y="78.03369"/>
      </g>
     </g>
     <g id="text_13">
      <!-- 9 -->
      <defs>
       <path d="M 10.984375 1.515625 
L 10.984375 10.5 
Q 14.703125 8.734375 18.5 7.8125 
Q 22.3125 6.890625 25.984375 6.890625 
Q 35.75 6.890625 40.890625 13.453125 
Q 46.046875 20.015625 46.78125 33.40625 
Q 43.953125 29.203125 39.59375 26.953125 
Q 35.25 24.703125 29.984375 24.703125 
Q 19.046875 24.703125 12.671875 31.3125 
Q 6.296875 37.9375 6.296875 49.421875 
Q 6.296875 60.640625 12.9375 67.421875 
Q 19.578125 74.21875 30.609375 74.21875 
Q 43.265625 74.21875 49.921875 64.515625 
Q 56.59375 54.828125 56.59375 36.375 
Q 56.59375 19.140625 48.40625 8.859375 
Q 40.234375 -1.421875 26.421875 -1.421875 
Q 22.703125 -1.421875 18.890625 -0.6875 
Q 15.09375 0.046875 10.984375 1.515625 
z
M 30.609375 32.421875 
Q 37.25 32.421875 41.125 36.953125 
Q 45.015625 41.5 45.015625 49.421875 
Q 45.015625 57.28125 41.125 61.84375 
Q 37.25 66.40625 30.609375 66.40625 
Q 23.96875 66.40625 20.09375 61.84375 
Q 16.21875 57.28125 16.21875 49.421875 
Q 16.21875 41.5 20.09375 36.953125 
Q 23.96875 32.421875 30.609375 32.421875 
z
" id="DejaVuSans-57"/>
      </defs>
      <g transform="translate(44.65625 83.732518)scale(0.15 -0.15)">
       <use xlink:href="#DejaVuSans-57"/>
      </g>
     </g>
    </g>
    <g id="ytick_6">
     <g id="line2d_25">
      <path clip-path="url(#p53a9429a17)" d="M 61.2 35.639878 
L 559.8 35.639878 
" style="fill:none;stroke:#b0b0b0;stroke-linecap:square;stroke-width:0.8;"/>
     </g>
     <g id="line2d_26">
      <g>
       <use style="stroke:#000000;stroke-width:0.8;" x="61.2" xlink:href="#m4530a59bfc" y="35.639878"/>
      </g>
     </g>
     <g id="text_14">
      <!-- 10 -->
      <g transform="translate(35.1125 41.338706)scale(0.15 -0.15)">
       <use xlink:href="#DejaVuSans-49"/>
       <use x="63.623047" xlink:href="#DejaVuSans-48"/>
      </g>
     </g>
    </g>
    <g id="text_15">
     <!-- Entropy -->
     <defs>
      <path d="M 9.8125 72.90625 
L 55.90625 72.90625 
L 55.90625 64.59375 
L 19.671875 64.59375 
L 19.671875 43.015625 
L 54.390625 43.015625 
L 54.390625 34.71875 
L 19.671875 34.71875 
L 19.671875 8.296875 
L 56.78125 8.296875 
L 56.78125 0 
L 9.8125 0 
z
" id="DejaVuSans-69"/>
      <path d="M 54.890625 33.015625 
L 54.890625 0 
L 45.90625 0 
L 45.90625 32.71875 
Q 45.90625 40.484375 42.875 44.328125 
Q 39.84375 48.1875 33.796875 48.1875 
Q 26.515625 48.1875 22.3125 43.546875 
Q 18.109375 38.921875 18.109375 30.90625 
L 18.109375 0 
L 9.078125 0 
L 9.078125 54.6875 
L 18.109375 54.6875 
L 18.109375 46.1875 
Q 21.34375 51.125 25.703125 53.5625 
Q 30.078125 56 35.796875 56 
Q 45.21875 56 50.046875 50.171875 
Q 54.890625 44.34375 54.890625 33.015625 
z
" id="DejaVuSans-110"/>
      <path d="M 18.109375 8.203125 
L 18.109375 -20.796875 
L 9.078125 -20.796875 
L 9.078125 54.6875 
L 18.109375 54.6875 
L 18.109375 46.390625 
Q 20.953125 51.265625 25.265625 53.625 
Q 29.59375 56 35.59375 56 
Q 45.5625 56 51.78125 48.09375 
Q 58.015625 40.1875 58.015625 27.296875 
Q 58.015625 14.40625 51.78125 6.484375 
Q 45.5625 -1.421875 35.59375 -1.421875 
Q 29.59375 -1.421875 25.265625 0.953125 
Q 20.953125 3.328125 18.109375 8.203125 
z
M 48.6875 27.296875 
Q 48.6875 37.203125 44.609375 42.84375 
Q 40.53125 48.484375 33.40625 48.484375 
Q 26.265625 48.484375 22.1875 42.84375 
Q 18.109375 37.203125 18.109375 27.296875 
Q 18.109375 17.390625 22.1875 11.75 
Q 26.265625 6.109375 33.40625 6.109375 
Q 40.53125 6.109375 44.609375 11.75 
Q 48.6875 17.390625 48.6875 27.296875 
z
" id="DejaVuSans-112"/>
      <path d="M 32.171875 -5.078125 
Q 28.375 -14.84375 24.75 -17.8125 
Q 21.140625 -20.796875 15.09375 -20.796875 
L 7.90625 -20.796875 
L 7.90625 -13.28125 
L 13.1875 -13.28125 
Q 16.890625 -13.28125 18.9375 -11.515625 
Q 21 -9.765625 23.484375 -3.21875 
L 25.09375 0.875 
L 2.984375 54.6875 
L 12.5 54.6875 
L 29.59375 11.921875 
L 46.6875 54.6875 
L 56.203125 54.6875 
z
" id="DejaVuSans-121"/>
     </defs>
     <g transform="translate(27.992969 170.678805)rotate(-90)scale(0.15 -0.15)">
      <use xlink:href="#DejaVuSans-69"/>
      <use x="63.183594" xlink:href="#DejaVuSans-110"/>
      <use x="126.5625" xlink:href="#DejaVuSans-116"/>
      <use x="165.771484" xlink:href="#DejaVuSans-114"/>
      <use x="204.634766" xlink:href="#DejaVuSans-111"/>
      <use x="265.816406" xlink:href="#DejaVuSans-112"/>
      <use x="329.292969" xlink:href="#DejaVuSans-121"/>
     </g>
    </g>
   </g>
   <g id="LineCollection_1">
    <path clip-path="url(#p53a9429a17)" d="M 102.75 242.660731 
L 102.75 236.741627 
" style="fill:none;stroke:#000000;stroke-width:3;"/>
    <path clip-path="url(#p53a9429a17)" d="M 172 244.507252 
L 172 235.960647 
" style="fill:none;stroke:#000000;stroke-width:3;"/>
    <path clip-path="url(#p53a9429a17)" d="M 241.25 233.677422 
L 241.25 228.818802 
" style="fill:none;stroke:#000000;stroke-width:3;"/>
    <path clip-path="url(#p53a9429a17)" d="M 310.5 222.313427 
L 310.5 216.156288 
" style="fill:none;stroke:#000000;stroke-width:3;"/>
    <path clip-path="url(#p53a9429a17)" d="M 379.75 196.686998 
L 379.75 192.696495 
" style="fill:none;stroke:#000000;stroke-width:3;"/>
    <path clip-path="url(#p53a9429a17)" d="M 449 222.070911 
L 449 216.460034 
" style="fill:none;stroke:#000000;stroke-width:3;"/>
    <path clip-path="url(#p53a9429a17)" d="M 518.25 194.438597 
L 518.25 189.895888 
" style="fill:none;stroke:#000000;stroke-width:3;"/>
   </g>
   <g id="LineCollection_2">
    <path clip-path="url(#p53a9429a17)" d="M 102.75 243.408576 
L 102.75 234.835352 
" style="fill:none;stroke:#000000;"/>
    <path clip-path="url(#p53a9429a17)" d="M 172 245.994541 
L 172 234.081937 
" style="fill:none;stroke:#000000;"/>
    <path clip-path="url(#p53a9429a17)" d="M 241.25 235.91858 
L 241.25 229.273532 
" style="fill:none;stroke:#000000;"/>
    <path clip-path="url(#p53a9429a17)" d="M 310.5 222.377158 
L 310.5 213.659185 
" style="fill:none;stroke:#000000;"/>
    <path clip-path="url(#p53a9429a17)" d="M 379.75 196.685084 
L 379.75 191.277801 
" style="fill:none;stroke:#000000;"/>
    <path clip-path="url(#p53a9429a17)" d="M 449 222.969248 
L 449 215.978413 
" style="fill:none;stroke:#000000;"/>
    <path clip-path="url(#p53a9429a17)" d="M 518.25 194.669306 
L 518.25 188.094122 
" style="fill:none;stroke:#000000;"/>
   </g>
   <g id="LineCollection_3">
    <path clip-path="url(#p53a9429a17)" d="M 102.75 37.090413 
L 102.75 37.090413 
" style="fill:none;stroke:#ff0000;"/>
    <path clip-path="url(#p53a9429a17)" d="M 172 37.090413 
L 172 37.090413 
" style="fill:none;stroke:#ff0000;"/>
    <path clip-path="url(#p53a9429a17)" d="M 241.25 37.090413 
L 241.25 37.090413 
" style="fill:none;stroke:#ff0000;"/>
    <path clip-path="url(#p53a9429a17)" d="M 310.5 37.090413 
L 310.5 37.090413 
" style="fill:none;stroke:#ff0000;"/>
    <path clip-path="url(#p53a9429a17)" d="M 379.75 37.090413 
L 379.75 37.090413 
" style="fill:none;stroke:#ff0000;"/>
    <path clip-path="url(#p53a9429a17)" d="M 449 37.090413 
L 449 37.090413 
" style="fill:none;stroke:#ff0000;"/>
    <path clip-path="url(#p53a9429a17)" d="M 518.25 37.090413 
L 518.25 37.090413 
" style="fill:none;stroke:#ff0000;"/>
   </g>
   <g id="line2d_27">
    <defs>
     <path d="M 0 3 
C 0.795609 3 1.55874 2.683901 2.12132 2.12132 
C 2.683901 1.55874 3 0.795609 3 0 
C 3 -0.795609 2.683901 -1.55874 2.12132 -2.12132 
C 1.55874 -2.683901 0.795609 -3 0 -3 
C -0.795609 -3 -1.55874 -2.683901 -2.12132 -2.12132 
C -2.683901 -1.55874 -3 -0.795609 -3 0 
C -3 0.795609 -2.683901 1.55874 -2.12132 2.12132 
C -1.55874 2.683901 -0.795609 3 0 3 
z
" id="ma2ee713c5a" style="stroke:#000000;"/>
    </defs>
    <g clip-path="url(#p53a9429a17)">
     <use style="stroke:#000000;" x="102.75" xlink:href="#ma2ee713c5a" y="239.701179"/>
     <use style="stroke:#000000;" x="172" xlink:href="#ma2ee713c5a" y="240.233949"/>
     <use style="stroke:#000000;" x="241.25" xlink:href="#ma2ee713c5a" y="231.248112"/>
     <use style="stroke:#000000;" x="310.5" xlink:href="#ma2ee713c5a" y="219.234857"/>
     <use style="stroke:#000000;" x="379.75" xlink:href="#ma2ee713c5a" y="194.691746"/>
     <use style="stroke:#000000;" x="449" xlink:href="#ma2ee713c5a" y="219.265472"/>
     <use style="stroke:#000000;" x="518.25" xlink:href="#ma2ee713c5a" y="192.167243"/>
    </g>
   </g>
   <g id="line2d_28">
    <defs>
     <path d="M 0 1.5 
C 0.397805 1.5 0.77937 1.341951 1.06066 1.06066 
C 1.341951 0.77937 1.5 0.397805 1.5 0 
C 1.5 -0.397805 1.341951 -0.77937 1.06066 -1.06066 
C 0.77937 -1.341951 0.397805 -1.5 0 -1.5 
C -0.397805 -1.5 -0.77937 -1.341951 -1.06066 -1.06066 
C -1.341951 -0.77937 -1.5 -0.397805 -1.5 0 
C -1.5 0.397805 -1.341951 0.77937 -1.06066 1.06066 
C -0.77937 1.341951 -0.397805 1.5 0 1.5 
z
" id="m3a50a4807c" style="stroke:#000000;"/>
    </defs>
    <g clip-path="url(#p53a9429a17)">
     <use style="stroke:#000000;" x="102.75" xlink:href="#m3a50a4807c" y="239.701179"/>
     <use style="stroke:#000000;" x="172" xlink:href="#m3a50a4807c" y="240.233949"/>
     <use style="stroke:#000000;" x="241.25" xlink:href="#m3a50a4807c" y="231.248112"/>
     <use style="stroke:#000000;" x="310.5" xlink:href="#m3a50a4807c" y="219.234857"/>
     <use style="stroke:#000000;" x="379.75" xlink:href="#m3a50a4807c" y="194.691746"/>
     <use style="stroke:#000000;" x="449" xlink:href="#m3a50a4807c" y="219.265472"/>
     <use style="stroke:#000000;" x="518.25" xlink:href="#m3a50a4807c" y="192.167243"/>
    </g>
   </g>
   <g id="line2d_29">
    <defs>
     <path d="M -0 4.242641 
L 4.242641 0 
L 0 -4.242641 
L -4.242641 -0 
z
" id="ma580550376" style="stroke:#ff0000;stroke-linejoin:miter;"/>
    </defs>
    <g clip-path="url(#p53a9429a17)">
     <use style="fill:#ff0000;stroke:#ff0000;stroke-linejoin:miter;" x="102.75" xlink:href="#ma580550376" y="37.090413"/>
     <use style="fill:#ff0000;stroke:#ff0000;stroke-linejoin:miter;" x="172" xlink:href="#ma580550376" y="37.090413"/>
     <use style="fill:#ff0000;stroke:#ff0000;stroke-linejoin:miter;" x="241.25" xlink:href="#ma580550376" y="37.090413"/>
     <use style="fill:#ff0000;stroke:#ff0000;stroke-linejoin:miter;" x="310.5" xlink:href="#ma580550376" y="37.090413"/>
     <use style="fill:#ff0000;stroke:#ff0000;stroke-linejoin:miter;" x="379.75" xlink:href="#ma580550376" y="37.090413"/>
     <use style="fill:#ff0000;stroke:#ff0000;stroke-linejoin:miter;" x="449" xlink:href="#ma580550376" y="37.090413"/>
     <use style="fill:#ff0000;stroke:#ff0000;stroke-linejoin:miter;" x="518.25" xlink:href="#ma580550376" y="37.090413"/>
    </g>
   </g>
   <g id="patch_3">
    <path d="M 61.2 266.884954 
L 61.2 16.2 
" style="fill:none;stroke:#000000;stroke-linecap:square;stroke-linejoin:miter;stroke-width:0.8;"/>
   </g>
   <g id="patch_4">
    <path d="M 559.8 266.884954 
L 559.8 16.2 
" style="fill:none;stroke:#000000;stroke-linecap:square;stroke-linejoin:miter;stroke-width:0.8;"/>
   </g>
   <g id="patch_5">
    <path d="M 61.2 266.884954 
L 559.8 266.884954 
" style="fill:none;stroke:#000000;stroke-linecap:square;stroke-linejoin:miter;stroke-width:0.8;"/>
   </g>
   <g id="patch_6">
    <path d="M 61.2 16.2 
L 559.8 16.2 
" style="fill:none;stroke:#000000;stroke-linecap:square;stroke-linejoin:miter;stroke-width:0.8;"/>
   </g>
   <g id="axes_2">
    <g id="patch_7">
     <path d="M 76.158 129.008229 
L 126.018 129.008229 
L 126.018 66.336991 
L 76.158 66.336991 
z
" style="fill:#ffffff;"/>
    </g>
    <g id="patch_8">
     <path clip-path="url(#pe2eb7aa08a)" d="M 111.640648 129.008229 
L 111.895628 129.008229 
L 111.895628 126.295189 
L 111.640648 126.295189 
z
" style="fill:#1f77b4;"/>
    </g>
    <g id="patch_9">
     <path clip-path="url(#pe2eb7aa08a)" d="M 111.895628 129.008229 
L 112.150609 129.008229 
L 112.150609 129.008229 
L 111.895628 129.008229 
z
" style="fill:#1f77b4;"/>
    </g>
    <g id="patch_10">
     <path clip-path="url(#pe2eb7aa08a)" d="M 112.150609 129.008229 
L 112.405589 129.008229 
L 112.405589 129.008229 
L 112.150609 129.008229 
z
" style="fill:#1f77b4;"/>
    </g>
    <g id="patch_11">
     <path clip-path="url(#pe2eb7aa08a)" d="M 112.405589 129.008229 
L 112.660569 129.008229 
L 112.660569 129.008229 
L 112.405589 129.008229 
z
" style="fill:#1f77b4;"/>
    </g>
    <g id="patch_12">
     <path clip-path="url(#pe2eb7aa08a)" d="M 112.660569 129.008229 
L 112.915549 129.008229 
L 112.915549 129.008229 
L 112.660569 129.008229 
z
" style="fill:#1f77b4;"/>
    </g>
    <g id="patch_13">
     <path clip-path="url(#pe2eb7aa08a)" d="M 112.915549 129.008229 
L 113.17053 129.008229 
L 113.17053 129.008229 
L 112.915549 129.008229 
z
" style="fill:#1f77b4;"/>
    </g>
    <g id="patch_14">
     <path clip-path="url(#pe2eb7aa08a)" d="M 113.17053 129.008229 
L 113.42551 129.008229 
L 113.42551 129.008229 
L 113.17053 129.008229 
z
" style="fill:#1f77b4;"/>
    </g>
    <g id="patch_15">
     <path clip-path="url(#pe2eb7aa08a)" d="M 113.42551 129.008229 
L 113.68049 129.008229 
L 113.68049 126.295189 
L 113.42551 126.295189 
z
" style="fill:#1f77b4;"/>
    </g>
    <g id="patch_16">
     <path clip-path="url(#pe2eb7aa08a)" d="M 113.68049 129.008229 
L 113.93547 129.008229 
L 113.93547 129.008229 
L 113.68049 129.008229 
z
" style="fill:#1f77b4;"/>
    </g>
    <g id="patch_17">
     <path clip-path="url(#pe2eb7aa08a)" d="M 113.93547 129.008229 
L 114.190451 129.008229 
L 114.190451 129.008229 
L 113.93547 129.008229 
z
" style="fill:#1f77b4;"/>
    </g>
    <g id="patch_18">
     <path clip-path="url(#pe2eb7aa08a)" d="M 114.190451 129.008229 
L 114.445431 129.008229 
L 114.445431 129.008229 
L 114.190451 129.008229 
z
" style="fill:#1f77b4;"/>
    </g>
    <g id="patch_19">
     <path clip-path="url(#pe2eb7aa08a)" d="M 114.445431 129.008229 
L 114.700411 129.008229 
L 114.700411 129.008229 
L 114.445431 129.008229 
z
" style="fill:#1f77b4;"/>
    </g>
    <g id="patch_20">
     <path clip-path="url(#pe2eb7aa08a)" d="M 114.700411 129.008229 
L 114.955391 129.008229 
L 114.955391 129.008229 
L 114.700411 129.008229 
z
" style="fill:#1f77b4;"/>
    </g>
    <g id="patch_21">
     <path clip-path="url(#pe2eb7aa08a)" d="M 114.955391 129.008229 
L 115.210372 129.008229 
L 115.210372 129.008229 
L 114.955391 129.008229 
z
" style="fill:#1f77b4;"/>
    </g>
    <g id="patch_22">
     <path clip-path="url(#pe2eb7aa08a)" d="M 115.210372 129.008229 
L 115.465352 129.008229 
L 115.465352 129.008229 
L 115.210372 129.008229 
z
" style="fill:#1f77b4;"/>
    </g>
    <g id="patch_23">
     <path clip-path="url(#pe2eb7aa08a)" d="M 115.465352 129.008229 
L 115.720332 129.008229 
L 115.720332 129.008229 
L 115.465352 129.008229 
z
" style="fill:#1f77b4;"/>
    </g>
    <g id="patch_24">
     <path clip-path="url(#pe2eb7aa08a)" d="M 115.720332 129.008229 
L 115.975312 129.008229 
L 115.975312 129.008229 
L 115.720332 129.008229 
z
" style="fill:#1f77b4;"/>
    </g>
    <g id="patch_25">
     <path clip-path="url(#pe2eb7aa08a)" d="M 115.975312 129.008229 
L 116.230293 129.008229 
L 116.230293 123.582148 
L 115.975312 123.582148 
z
" style="fill:#1f77b4;"/>
    </g>
    <g id="patch_26">
     <path clip-path="url(#pe2eb7aa08a)" d="M 116.230293 129.008229 
L 116.485273 129.008229 
L 116.485273 115.443026 
L 116.230293 115.443026 
z
" style="fill:#1f77b4;"/>
    </g>
    <g id="patch_27">
     <path clip-path="url(#pe2eb7aa08a)" d="M 116.485273 129.008229 
L 116.740253 129.008229 
L 116.740253 88.31262 
L 116.485273 88.31262 
z
" style="fill:#1f77b4;"/>
    </g>
    <g id="patch_28">
     <path clip-path="url(#pe2eb7aa08a)" d="M 116.740253 129.008229 
L 116.995233 129.008229 
L 116.995233 69.321336 
L 116.740253 69.321336 
z
" style="fill:#1f77b4;"/>
    </g>
    <g id="patch_29">
     <path clip-path="url(#pe2eb7aa08a)" d="M 116.995233 129.008229 
L 117.250214 129.008229 
L 117.250214 72.034376 
L 116.995233 72.034376 
z
" style="fill:#1f77b4;"/>
    </g>
    <g id="patch_30">
     <path clip-path="url(#pe2eb7aa08a)" d="M 117.250214 129.008229 
L 117.505194 129.008229 
L 117.505194 69.321336 
L 117.250214 69.321336 
z
" style="fill:#1f77b4;"/>
    </g>
    <g id="patch_31">
     <path clip-path="url(#pe2eb7aa08a)" d="M 117.505194 129.008229 
L 117.760174 129.008229 
L 117.760174 112.729986 
L 117.505194 112.729986 
z
" style="fill:#1f77b4;"/>
    </g>
    <g id="patch_32">
     <path clip-path="url(#pe2eb7aa08a)" d="M 117.760174 129.008229 
L 118.015154 129.008229 
L 118.015154 115.443026 
L 117.760174 115.443026 
z
" style="fill:#1f77b4;"/>
    </g>
    <g id="patch_33">
     <path d="M 76.158 129.008229 
L 76.158 66.336991 
" style="fill:none;stroke:#000000;stroke-linecap:square;stroke-linejoin:miter;stroke-width:0.8;"/>
    </g>
    <g id="patch_34">
     <path d="M 126.018 129.008229 
L 126.018 66.336991 
" style="fill:none;stroke:#000000;stroke-linecap:square;stroke-linejoin:miter;stroke-width:0.8;"/>
    </g>
    <g id="patch_35">
     <path d="M 76.158 129.008229 
L 126.018 129.008229 
" style="fill:none;stroke:#000000;stroke-linecap:square;stroke-linejoin:miter;stroke-width:0.8;"/>
    </g>
    <g id="patch_36">
     <path d="M 76.158 66.336991 
L 126.018 66.336991 
" style="fill:none;stroke:#000000;stroke-linecap:square;stroke-linejoin:miter;stroke-width:0.8;"/>
    </g>
   </g>
   <g id="axes_3">
    <g id="patch_37">
     <path d="M 145.7127 129.008229 
L 195.5727 129.008229 
L 195.5727 66.336991 
L 145.7127 66.336991 
z
" style="fill:#ffffff;"/>
    </g>
    <g id="patch_38">
     <path clip-path="url(#p6bf9ac6316)" d="M 181.637146 129.008229 
L 181.863346 129.008229 
L 181.863346 126.620754 
L 181.637146 126.620754 
z
" style="fill:#1f77b4;"/>
    </g>
    <g id="patch_39">
     <path clip-path="url(#p6bf9ac6316)" d="M 181.863346 129.008229 
L 182.089546 129.008229 
L 182.089546 129.008229 
L 181.863346 129.008229 
z
" style="fill:#1f77b4;"/>
    </g>
    <g id="patch_40">
     <path clip-path="url(#p6bf9ac6316)" d="M 182.089546 129.008229 
L 182.315746 129.008229 
L 182.315746 129.008229 
L 182.089546 129.008229 
z
" style="fill:#1f77b4;"/>
    </g>
    <g id="patch_41">
     <path clip-path="url(#p6bf9ac6316)" d="M 182.315746 129.008229 
L 182.541947 129.008229 
L 182.541947 129.008229 
L 182.315746 129.008229 
z
" style="fill:#1f77b4;"/>
    </g>
    <g id="patch_42">
     <path clip-path="url(#p6bf9ac6316)" d="M 182.541947 129.008229 
L 182.768147 129.008229 
L 182.768147 129.008229 
L 182.541947 129.008229 
z
" style="fill:#1f77b4;"/>
    </g>
    <g id="patch_43">
     <path clip-path="url(#p6bf9ac6316)" d="M 182.768147 129.008229 
L 182.994347 129.008229 
L 182.994347 129.008229 
L 182.768147 129.008229 
z
" style="fill:#1f77b4;"/>
    </g>
    <g id="patch_44">
     <path clip-path="url(#p6bf9ac6316)" d="M 182.994347 129.008229 
L 183.220548 129.008229 
L 183.220548 129.008229 
L 182.994347 129.008229 
z
" style="fill:#1f77b4;"/>
    </g>
    <g id="patch_45">
     <path clip-path="url(#p6bf9ac6316)" d="M 183.220548 129.008229 
L 183.446748 129.008229 
L 183.446748 126.620754 
L 183.220548 126.620754 
z
" style="fill:#1f77b4;"/>
    </g>
    <g id="patch_46">
     <path clip-path="url(#p6bf9ac6316)" d="M 183.446748 129.008229 
L 183.672948 129.008229 
L 183.672948 129.008229 
L 183.446748 129.008229 
z
" style="fill:#1f77b4;"/>
    </g>
    <g id="patch_47">
     <path clip-path="url(#p6bf9ac6316)" d="M 183.672948 129.008229 
L 183.899149 129.008229 
L 183.899149 129.008229 
L 183.672948 129.008229 
z
" style="fill:#1f77b4;"/>
    </g>
    <g id="patch_48">
     <path clip-path="url(#p6bf9ac6316)" d="M 183.899149 129.008229 
L 184.125349 129.008229 
L 184.125349 129.008229 
L 183.899149 129.008229 
z
" style="fill:#1f77b4;"/>
    </g>
    <g id="patch_49">
     <path clip-path="url(#p6bf9ac6316)" d="M 184.125349 129.008229 
L 184.351549 129.008229 
L 184.351549 129.008229 
L 184.125349 129.008229 
z
" style="fill:#1f77b4;"/>
    </g>
    <g id="patch_50">
     <path clip-path="url(#p6bf9ac6316)" d="M 184.351549 129.008229 
L 184.57775 129.008229 
L 184.57775 129.008229 
L 184.351549 129.008229 
z
" style="fill:#1f77b4;"/>
    </g>
    <g id="patch_51">
     <path clip-path="url(#p6bf9ac6316)" d="M 184.57775 129.008229 
L 184.80395 129.008229 
L 184.80395 129.008229 
L 184.57775 129.008229 
z
" style="fill:#1f77b4;"/>
    </g>
    <g id="patch_52">
     <path clip-path="url(#p6bf9ac6316)" d="M 184.80395 129.008229 
L 185.03015 129.008229 
L 185.03015 129.008229 
L 184.80395 129.008229 
z
" style="fill:#1f77b4;"/>
    </g>
    <g id="patch_53">
     <path clip-path="url(#p6bf9ac6316)" d="M 185.03015 129.008229 
L 185.25635 129.008229 
L 185.25635 129.008229 
L 185.03015 129.008229 
z
" style="fill:#1f77b4;"/>
    </g>
    <g id="patch_54">
     <path clip-path="url(#p6bf9ac6316)" d="M 185.25635 129.008229 
L 185.482551 129.008229 
L 185.482551 129.008229 
L 185.25635 129.008229 
z
" style="fill:#1f77b4;"/>
    </g>
    <g id="patch_55">
     <path clip-path="url(#p6bf9ac6316)" d="M 185.482551 129.008229 
L 185.708751 129.008229 
L 185.708751 126.620754 
L 185.482551 126.620754 
z
" style="fill:#1f77b4;"/>
    </g>
    <g id="patch_56">
     <path clip-path="url(#p6bf9ac6316)" d="M 185.708751 129.008229 
L 185.934951 129.008229 
L 185.934951 119.458326 
L 185.708751 119.458326 
z
" style="fill:#1f77b4;"/>
    </g>
    <g id="patch_57">
     <path clip-path="url(#p6bf9ac6316)" d="M 185.934951 129.008229 
L 186.161152 129.008229 
L 186.161152 100.35852 
L 185.934951 100.35852 
z
" style="fill:#1f77b4;"/>
    </g>
    <g id="patch_58">
     <path clip-path="url(#p6bf9ac6316)" d="M 186.161152 129.008229 
L 186.387352 129.008229 
L 186.387352 86.033666 
L 186.161152 86.033666 
z
" style="fill:#1f77b4;"/>
    </g>
    <g id="patch_59">
     <path clip-path="url(#p6bf9ac6316)" d="M 186.387352 129.008229 
L 186.613552 129.008229 
L 186.613552 74.096287 
L 186.387352 74.096287 
z
" style="fill:#1f77b4;"/>
    </g>
    <g id="patch_60">
     <path clip-path="url(#p6bf9ac6316)" d="M 186.613552 129.008229 
L 186.839753 129.008229 
L 186.839753 69.321336 
L 186.613552 69.321336 
z
" style="fill:#1f77b4;"/>
    </g>
    <g id="patch_61">
     <path clip-path="url(#p6bf9ac6316)" d="M 186.839753 129.008229 
L 187.065953 129.008229 
L 187.065953 105.133472 
L 186.839753 105.133472 
z
" style="fill:#1f77b4;"/>
    </g>
    <g id="patch_62">
     <path clip-path="url(#p6bf9ac6316)" d="M 187.065953 129.008229 
L 187.292153 129.008229 
L 187.292153 117.070851 
L 187.065953 117.070851 
z
" style="fill:#1f77b4;"/>
    </g>
    <g id="patch_63">
     <path d="M 145.7127 129.008229 
L 145.7127 66.336991 
" style="fill:none;stroke:#000000;stroke-linecap:square;stroke-linejoin:miter;stroke-width:0.8;"/>
    </g>
    <g id="patch_64">
     <path d="M 195.5727 129.008229 
L 195.5727 66.336991 
" style="fill:none;stroke:#000000;stroke-linecap:square;stroke-linejoin:miter;stroke-width:0.8;"/>
    </g>
    <g id="patch_65">
     <path d="M 145.7127 129.008229 
L 195.5727 129.008229 
" style="fill:none;stroke:#000000;stroke-linecap:square;stroke-linejoin:miter;stroke-width:0.8;"/>
    </g>
    <g id="patch_66">
     <path d="M 145.7127 66.336991 
L 195.5727 66.336991 
" style="fill:none;stroke:#000000;stroke-linecap:square;stroke-linejoin:miter;stroke-width:0.8;"/>
    </g>
   </g>
   <g id="axes_4">
    <g id="patch_67">
     <path d="M 215.2674 129.008229 
L 265.1274 129.008229 
L 265.1274 66.336991 
L 215.2674 66.336991 
z
" style="fill:#ffffff;"/>
    </g>
    <g id="patch_68">
     <path clip-path="url(#pdb159d675a)" d="M 251.116109 129.008229 
L 251.319588 129.008229 
L 251.319588 126.165996 
L 251.116109 126.165996 
z
" style="fill:#1f77b4;"/>
    </g>
    <g id="patch_69">
     <path clip-path="url(#pdb159d675a)" d="M 251.319588 129.008229 
L 251.523067 129.008229 
L 251.523067 126.165996 
L 251.319588 126.165996 
z
" style="fill:#1f77b4;"/>
    </g>
    <g id="patch_70">
     <path clip-path="url(#pdb159d675a)" d="M 251.523067 129.008229 
L 251.726547 129.008229 
L 251.726547 129.008229 
L 251.523067 129.008229 
z
" style="fill:#1f77b4;"/>
    </g>
    <g id="patch_71">
     <path clip-path="url(#pdb159d675a)" d="M 251.726547 129.008229 
L 251.930026 129.008229 
L 251.930026 129.008229 
L 251.726547 129.008229 
z
" style="fill:#1f77b4;"/>
    </g>
    <g id="patch_72">
     <path clip-path="url(#pdb159d675a)" d="M 251.930026 129.008229 
L 252.133505 129.008229 
L 252.133505 129.008229 
L 251.930026 129.008229 
z
" style="fill:#1f77b4;"/>
    </g>
    <g id="patch_73">
     <path clip-path="url(#pdb159d675a)" d="M 252.133505 129.008229 
L 252.336985 129.008229 
L 252.336985 129.008229 
L 252.133505 129.008229 
z
" style="fill:#1f77b4;"/>
    </g>
    <g id="patch_74">
     <path clip-path="url(#pdb159d675a)" d="M 252.336985 129.008229 
L 252.540464 129.008229 
L 252.540464 129.008229 
L 252.336985 129.008229 
z
" style="fill:#1f77b4;"/>
    </g>
    <g id="patch_75">
     <path clip-path="url(#pdb159d675a)" d="M 252.540464 129.008229 
L 252.743943 129.008229 
L 252.743943 126.165996 
L 252.540464 126.165996 
z
" style="fill:#1f77b4;"/>
    </g>
    <g id="patch_76">
     <path clip-path="url(#pdb159d675a)" d="M 252.743943 129.008229 
L 252.947422 129.008229 
L 252.947422 129.008229 
L 252.743943 129.008229 
z
" style="fill:#1f77b4;"/>
    </g>
    <g id="patch_77">
     <path clip-path="url(#pdb159d675a)" d="M 252.947422 129.008229 
L 253.150902 129.008229 
L 253.150902 129.008229 
L 252.947422 129.008229 
z
" style="fill:#1f77b4;"/>
    </g>
    <g id="patch_78">
     <path clip-path="url(#pdb159d675a)" d="M 253.150902 129.008229 
L 253.354381 129.008229 
L 253.354381 129.008229 
L 253.150902 129.008229 
z
" style="fill:#1f77b4;"/>
    </g>
    <g id="patch_79">
     <path clip-path="url(#pdb159d675a)" d="M 253.354381 129.008229 
L 253.55786 129.008229 
L 253.55786 123.323763 
L 253.354381 123.323763 
z
" style="fill:#1f77b4;"/>
    </g>
    <g id="patch_80">
     <path clip-path="url(#pdb159d675a)" d="M 253.55786 129.008229 
L 253.76134 129.008229 
L 253.76134 126.165996 
L 253.55786 126.165996 
z
" style="fill:#1f77b4;"/>
    </g>
    <g id="patch_81">
     <path clip-path="url(#pdb159d675a)" d="M 253.76134 129.008229 
L 253.964819 129.008229 
L 253.964819 117.639297 
L 253.76134 117.639297 
z
" style="fill:#1f77b4;"/>
    </g>
    <g id="patch_82">
     <path clip-path="url(#pdb159d675a)" d="M 253.964819 129.008229 
L 254.168298 129.008229 
L 254.168298 126.165996 
L 253.964819 126.165996 
z
" style="fill:#1f77b4;"/>
    </g>
    <g id="patch_83">
     <path clip-path="url(#pdb159d675a)" d="M 254.168298 129.008229 
L 254.371778 129.008229 
L 254.371778 120.48153 
L 254.168298 120.48153 
z
" style="fill:#1f77b4;"/>
    </g>
    <g id="patch_84">
     <path clip-path="url(#pdb159d675a)" d="M 254.371778 129.008229 
L 254.575257 129.008229 
L 254.575257 120.48153 
L 254.371778 120.48153 
z
" style="fill:#1f77b4;"/>
    </g>
    <g id="patch_85">
     <path clip-path="url(#pdb159d675a)" d="M 254.575257 129.008229 
L 254.778736 129.008229 
L 254.778736 111.954831 
L 254.575257 111.954831 
z
" style="fill:#1f77b4;"/>
    </g>
    <g id="patch_86">
     <path clip-path="url(#pdb159d675a)" d="M 254.778736 129.008229 
L 254.982215 129.008229 
L 254.982215 114.797064 
L 254.778736 114.797064 
z
" style="fill:#1f77b4;"/>
    </g>
    <g id="patch_87">
     <path clip-path="url(#pdb159d675a)" d="M 254.982215 129.008229 
L 255.185695 129.008229 
L 255.185695 106.270365 
L 254.982215 106.270365 
z
" style="fill:#1f77b4;"/>
    </g>
    <g id="patch_88">
     <path clip-path="url(#pdb159d675a)" d="M 255.185695 129.008229 
L 255.389174 129.008229 
L 255.389174 100.585899 
L 255.185695 100.585899 
z
" style="fill:#1f77b4;"/>
    </g>
    <g id="patch_89">
     <path clip-path="url(#pdb159d675a)" d="M 255.389174 129.008229 
L 255.592653 129.008229 
L 255.592653 83.532501 
L 255.389174 83.532501 
z
" style="fill:#1f77b4;"/>
    </g>
    <g id="patch_90">
     <path clip-path="url(#pdb159d675a)" d="M 255.592653 129.008229 
L 255.796133 129.008229 
L 255.796133 69.321336 
L 255.592653 69.321336 
z
" style="fill:#1f77b4;"/>
    </g>
    <g id="patch_91">
     <path clip-path="url(#pdb159d675a)" d="M 255.796133 129.008229 
L 255.999612 129.008229 
L 255.999612 97.743666 
L 255.796133 97.743666 
z
" style="fill:#1f77b4;"/>
    </g>
    <g id="patch_92">
     <path clip-path="url(#pdb159d675a)" d="M 255.999612 129.008229 
L 256.203091 129.008229 
L 256.203091 111.954831 
L 255.999612 111.954831 
z
" style="fill:#1f77b4;"/>
    </g>
    <g id="patch_93">
     <path d="M 215.2674 129.008229 
L 215.2674 66.336991 
" style="fill:none;stroke:#000000;stroke-linecap:square;stroke-linejoin:miter;stroke-width:0.8;"/>
    </g>
    <g id="patch_94">
     <path d="M 265.1274 129.008229 
L 265.1274 66.336991 
" style="fill:none;stroke:#000000;stroke-linecap:square;stroke-linejoin:miter;stroke-width:0.8;"/>
    </g>
    <g id="patch_95">
     <path d="M 215.2674 129.008229 
L 265.1274 129.008229 
" style="fill:none;stroke:#000000;stroke-linecap:square;stroke-linejoin:miter;stroke-width:0.8;"/>
    </g>
    <g id="patch_96">
     <path d="M 215.2674 66.336991 
L 265.1274 66.336991 
" style="fill:none;stroke:#000000;stroke-linecap:square;stroke-linejoin:miter;stroke-width:0.8;"/>
    </g>
   </g>
   <g id="axes_5">
    <g id="patch_97">
     <path d="M 284.8221 129.008229 
L 334.6821 129.008229 
L 334.6821 66.336991 
L 284.8221 66.336991 
z
" style="fill:#ffffff;"/>
    </g>
    <g id="patch_98">
     <path clip-path="url(#pa3f49e347e)" d="M 314.472845 129.008229 
L 314.728288 129.008229 
L 314.728288 126.413147 
L 314.472845 126.413147 
z
" style="fill:#1f77b4;"/>
    </g>
    <g id="patch_99">
     <path clip-path="url(#pa3f49e347e)" d="M 314.728288 129.008229 
L 314.98373 129.008229 
L 314.98373 129.008229 
L 314.728288 129.008229 
z
" style="fill:#1f77b4;"/>
    </g>
    <g id="patch_100">
     <path clip-path="url(#pa3f49e347e)" d="M 314.98373 129.008229 
L 315.239173 129.008229 
L 315.239173 129.008229 
L 314.98373 129.008229 
z
" style="fill:#1f77b4;"/>
    </g>
    <g id="patch_101">
     <path clip-path="url(#pa3f49e347e)" d="M 315.239173 129.008229 
L 315.494616 129.008229 
L 315.494616 129.008229 
L 315.239173 129.008229 
z
" style="fill:#1f77b4;"/>
    </g>
    <g id="patch_102">
     <path clip-path="url(#pa3f49e347e)" d="M 315.494616 129.008229 
L 315.750059 129.008229 
L 315.750059 129.008229 
L 315.494616 129.008229 
z
" style="fill:#1f77b4;"/>
    </g>
    <g id="patch_103">
     <path clip-path="url(#pa3f49e347e)" d="M 315.750059 129.008229 
L 316.005501 129.008229 
L 316.005501 129.008229 
L 315.750059 129.008229 
z
" style="fill:#1f77b4;"/>
    </g>
    <g id="patch_104">
     <path clip-path="url(#pa3f49e347e)" d="M 316.005501 129.008229 
L 316.260944 129.008229 
L 316.260944 129.008229 
L 316.005501 129.008229 
z
" style="fill:#1f77b4;"/>
    </g>
    <g id="patch_105">
     <path clip-path="url(#pa3f49e347e)" d="M 316.260944 129.008229 
L 316.516387 129.008229 
L 316.516387 129.008229 
L 316.260944 129.008229 
z
" style="fill:#1f77b4;"/>
    </g>
    <g id="patch_106">
     <path clip-path="url(#pa3f49e347e)" d="M 316.516387 129.008229 
L 316.77183 129.008229 
L 316.77183 129.008229 
L 316.516387 129.008229 
z
" style="fill:#1f77b4;"/>
    </g>
    <g id="patch_107">
     <path clip-path="url(#pa3f49e347e)" d="M 316.77183 129.008229 
L 317.027272 129.008229 
L 317.027272 129.008229 
L 316.77183 129.008229 
z
" style="fill:#1f77b4;"/>
    </g>
    <g id="patch_108">
     <path clip-path="url(#pa3f49e347e)" d="M 317.027272 129.008229 
L 317.282715 129.008229 
L 317.282715 126.413147 
L 317.027272 126.413147 
z
" style="fill:#1f77b4;"/>
    </g>
    <g id="patch_109">
     <path clip-path="url(#pa3f49e347e)" d="M 317.282715 129.008229 
L 317.538158 129.008229 
L 317.538158 129.008229 
L 317.282715 129.008229 
z
" style="fill:#1f77b4;"/>
    </g>
    <g id="patch_110">
     <path clip-path="url(#pa3f49e347e)" d="M 317.538158 129.008229 
L 317.793601 129.008229 
L 317.793601 129.008229 
L 317.538158 129.008229 
z
" style="fill:#1f77b4;"/>
    </g>
    <g id="patch_111">
     <path clip-path="url(#pa3f49e347e)" d="M 317.793601 129.008229 
L 318.049043 129.008229 
L 318.049043 129.008229 
L 317.793601 129.008229 
z
" style="fill:#1f77b4;"/>
    </g>
    <g id="patch_112">
     <path clip-path="url(#pa3f49e347e)" d="M 318.049043 129.008229 
L 318.304486 129.008229 
L 318.304486 126.413147 
L 318.049043 126.413147 
z
" style="fill:#1f77b4;"/>
    </g>
    <g id="patch_113">
     <path clip-path="url(#pa3f49e347e)" d="M 318.304486 129.008229 
L 318.559929 129.008229 
L 318.559929 118.6279 
L 318.304486 118.6279 
z
" style="fill:#1f77b4;"/>
    </g>
    <g id="patch_114">
     <path clip-path="url(#pa3f49e347e)" d="M 318.559929 129.008229 
L 318.815372 129.008229 
L 318.815372 126.413147 
L 318.559929 126.413147 
z
" style="fill:#1f77b4;"/>
    </g>
    <g id="patch_115">
     <path clip-path="url(#pa3f49e347e)" d="M 318.815372 129.008229 
L 319.070814 129.008229 
L 319.070814 121.222982 
L 318.815372 121.222982 
z
" style="fill:#1f77b4;"/>
    </g>
    <g id="patch_116">
     <path clip-path="url(#pa3f49e347e)" d="M 319.070814 129.008229 
L 319.326257 129.008229 
L 319.326257 105.652488 
L 319.070814 105.652488 
z
" style="fill:#1f77b4;"/>
    </g>
    <g id="patch_117">
     <path clip-path="url(#pa3f49e347e)" d="M 319.326257 129.008229 
L 319.5817 129.008229 
L 319.5817 90.081994 
L 319.326257 90.081994 
z
" style="fill:#1f77b4;"/>
    </g>
    <g id="patch_118">
     <path clip-path="url(#pa3f49e347e)" d="M 319.5817 129.008229 
L 319.837143 129.008229 
L 319.837143 69.321336 
L 319.5817 69.321336 
z
" style="fill:#1f77b4;"/>
    </g>
    <g id="patch_119">
     <path clip-path="url(#pa3f49e347e)" d="M 319.837143 129.008229 
L 320.092585 129.008229 
L 320.092585 95.272159 
L 319.837143 95.272159 
z
" style="fill:#1f77b4;"/>
    </g>
    <g id="patch_120">
     <path clip-path="url(#pa3f49e347e)" d="M 320.092585 129.008229 
L 320.348028 129.008229 
L 320.348028 82.296747 
L 320.092585 82.296747 
z
" style="fill:#1f77b4;"/>
    </g>
    <g id="patch_121">
     <path clip-path="url(#pa3f49e347e)" d="M 320.348028 129.008229 
L 320.603471 129.008229 
L 320.603471 110.842653 
L 320.348028 110.842653 
z
" style="fill:#1f77b4;"/>
    </g>
    <g id="patch_122">
     <path clip-path="url(#pa3f49e347e)" d="M 320.603471 129.008229 
L 320.858914 129.008229 
L 320.858914 118.6279 
L 320.603471 118.6279 
z
" style="fill:#1f77b4;"/>
    </g>
    <g id="patch_123">
     <path d="M 284.8221 129.008229 
L 284.8221 66.336991 
" style="fill:none;stroke:#000000;stroke-linecap:square;stroke-linejoin:miter;stroke-width:0.8;"/>
    </g>
    <g id="patch_124">
     <path d="M 334.6821 129.008229 
L 334.6821 66.336991 
" style="fill:none;stroke:#000000;stroke-linecap:square;stroke-linejoin:miter;stroke-width:0.8;"/>
    </g>
    <g id="patch_125">
     <path d="M 284.8221 129.008229 
L 334.6821 129.008229 
" style="fill:none;stroke:#000000;stroke-linecap:square;stroke-linejoin:miter;stroke-width:0.8;"/>
    </g>
    <g id="patch_126">
     <path d="M 284.8221 66.336991 
L 334.6821 66.336991 
" style="fill:none;stroke:#000000;stroke-linecap:square;stroke-linejoin:miter;stroke-width:0.8;"/>
    </g>
   </g>
   <g id="axes_6">
    <g id="patch_127">
     <path d="M 354.3768 129.008229 
L 404.2368 129.008229 
L 404.2368 66.336991 
L 354.3768 66.336991 
z
" style="fill:#ffffff;"/>
    </g>
    <g id="patch_128">
     <path clip-path="url(#p0a0f8723ae)" d="M 372.374266 129.008229 
L 372.717941 129.008229 
L 372.717941 124.034322 
L 372.374266 124.034322 
z
" style="fill:#1f77b4;"/>
    </g>
    <g id="patch_129">
     <path clip-path="url(#p0a0f8723ae)" d="M 372.717941 129.008229 
L 373.061616 129.008229 
L 373.061616 129.008229 
L 372.717941 129.008229 
z
" style="fill:#1f77b4;"/>
    </g>
    <g id="patch_130">
     <path clip-path="url(#p0a0f8723ae)" d="M 373.061616 129.008229 
L 373.405291 129.008229 
L 373.405291 129.008229 
L 373.061616 129.008229 
z
" style="fill:#1f77b4;"/>
    </g>
    <g id="patch_131">
     <path clip-path="url(#p0a0f8723ae)" d="M 373.405291 129.008229 
L 373.748966 129.008229 
L 373.748966 124.034322 
L 373.405291 124.034322 
z
" style="fill:#1f77b4;"/>
    </g>
    <g id="patch_132">
     <path clip-path="url(#p0a0f8723ae)" d="M 373.748966 129.008229 
L 374.092641 129.008229 
L 374.092641 119.060414 
L 373.748966 119.060414 
z
" style="fill:#1f77b4;"/>
    </g>
    <g id="patch_133">
     <path clip-path="url(#p0a0f8723ae)" d="M 374.092641 129.008229 
L 374.436316 129.008229 
L 374.436316 119.060414 
L 374.092641 119.060414 
z
" style="fill:#1f77b4;"/>
    </g>
    <g id="patch_134">
     <path clip-path="url(#p0a0f8723ae)" d="M 374.436316 129.008229 
L 374.779991 129.008229 
L 374.779991 114.086506 
L 374.436316 114.086506 
z
" style="fill:#1f77b4;"/>
    </g>
    <g id="patch_135">
     <path clip-path="url(#p0a0f8723ae)" d="M 374.779991 129.008229 
L 375.123666 129.008229 
L 375.123666 94.190875 
L 374.779991 94.190875 
z
" style="fill:#1f77b4;"/>
    </g>
    <g id="patch_136">
     <path clip-path="url(#p0a0f8723ae)" d="M 375.123666 129.008229 
L 375.467341 129.008229 
L 375.467341 104.13869 
L 375.123666 104.13869 
z
" style="fill:#1f77b4;"/>
    </g>
    <g id="patch_137">
     <path clip-path="url(#p0a0f8723ae)" d="M 375.467341 129.008229 
L 375.811016 129.008229 
L 375.811016 114.086506 
L 375.467341 114.086506 
z
" style="fill:#1f77b4;"/>
    </g>
    <g id="patch_138">
     <path clip-path="url(#p0a0f8723ae)" d="M 375.811016 129.008229 
L 376.154691 129.008229 
L 376.154691 94.190875 
L 375.811016 94.190875 
z
" style="fill:#1f77b4;"/>
    </g>
    <g id="patch_139">
     <path clip-path="url(#p0a0f8723ae)" d="M 376.154691 129.008229 
L 376.498366 129.008229 
L 376.498366 89.216967 
L 376.154691 89.216967 
z
" style="fill:#1f77b4;"/>
    </g>
    <g id="patch_140">
     <path clip-path="url(#p0a0f8723ae)" d="M 376.498366 129.008229 
L 376.842041 129.008229 
L 376.842041 99.164782 
L 376.498366 99.164782 
z
" style="fill:#1f77b4;"/>
    </g>
    <g id="patch_141">
     <path clip-path="url(#p0a0f8723ae)" d="M 376.842041 129.008229 
L 377.185716 129.008229 
L 377.185716 89.216967 
L 376.842041 89.216967 
z
" style="fill:#1f77b4;"/>
    </g>
    <g id="patch_142">
     <path clip-path="url(#p0a0f8723ae)" d="M 377.185716 129.008229 
L 377.529391 129.008229 
L 377.529391 69.321336 
L 377.185716 69.321336 
z
" style="fill:#1f77b4;"/>
    </g>
    <g id="patch_143">
     <path clip-path="url(#p0a0f8723ae)" d="M 377.529391 129.008229 
L 377.873066 129.008229 
L 377.873066 99.164782 
L 377.529391 99.164782 
z
" style="fill:#1f77b4;"/>
    </g>
    <g id="patch_144">
     <path clip-path="url(#p0a0f8723ae)" d="M 377.873066 129.008229 
L 378.216741 129.008229 
L 378.216741 99.164782 
L 377.873066 99.164782 
z
" style="fill:#1f77b4;"/>
    </g>
    <g id="patch_145">
     <path clip-path="url(#p0a0f8723ae)" d="M 378.216741 129.008229 
L 378.560416 129.008229 
L 378.560416 84.243059 
L 378.216741 84.243059 
z
" style="fill:#1f77b4;"/>
    </g>
    <g id="patch_146">
     <path clip-path="url(#p0a0f8723ae)" d="M 378.560416 129.008229 
L 378.904091 129.008229 
L 378.904091 114.086506 
L 378.560416 114.086506 
z
" style="fill:#1f77b4;"/>
    </g>
    <g id="patch_147">
     <path clip-path="url(#p0a0f8723ae)" d="M 378.904091 129.008229 
L 379.247766 129.008229 
L 379.247766 109.112598 
L 378.904091 109.112598 
z
" style="fill:#1f77b4;"/>
    </g>
    <g id="patch_148">
     <path clip-path="url(#p0a0f8723ae)" d="M 379.247766 129.008229 
L 379.591441 129.008229 
L 379.591441 109.112598 
L 379.247766 109.112598 
z
" style="fill:#1f77b4;"/>
    </g>
    <g id="patch_149">
     <path clip-path="url(#p0a0f8723ae)" d="M 379.591441 129.008229 
L 379.935116 129.008229 
L 379.935116 119.060414 
L 379.591441 119.060414 
z
" style="fill:#1f77b4;"/>
    </g>
    <g id="patch_150">
     <path clip-path="url(#p0a0f8723ae)" d="M 379.935116 129.008229 
L 380.278791 129.008229 
L 380.278791 129.008229 
L 379.935116 129.008229 
z
" style="fill:#1f77b4;"/>
    </g>
    <g id="patch_151">
     <path clip-path="url(#p0a0f8723ae)" d="M 380.278791 129.008229 
L 380.622466 129.008229 
L 380.622466 129.008229 
L 380.278791 129.008229 
z
" style="fill:#1f77b4;"/>
    </g>
    <g id="patch_152">
     <path clip-path="url(#p0a0f8723ae)" d="M 380.622466 129.008229 
L 380.966141 129.008229 
L 380.966141 124.034322 
L 380.622466 124.034322 
z
" style="fill:#1f77b4;"/>
    </g>
    <g id="patch_153">
     <path d="M 354.3768 129.008229 
L 354.3768 66.336991 
" style="fill:none;stroke:#000000;stroke-linecap:square;stroke-linejoin:miter;stroke-width:0.8;"/>
    </g>
    <g id="patch_154">
     <path d="M 404.2368 129.008229 
L 404.2368 66.336991 
" style="fill:none;stroke:#000000;stroke-linecap:square;stroke-linejoin:miter;stroke-width:0.8;"/>
    </g>
    <g id="patch_155">
     <path d="M 354.3768 129.008229 
L 404.2368 129.008229 
" style="fill:none;stroke:#000000;stroke-linecap:square;stroke-linejoin:miter;stroke-width:0.8;"/>
    </g>
    <g id="patch_156">
     <path d="M 354.3768 66.336991 
L 404.2368 66.336991 
" style="fill:none;stroke:#000000;stroke-linecap:square;stroke-linejoin:miter;stroke-width:0.8;"/>
    </g>
   </g>
   <g id="axes_7">
    <g id="patch_157">
     <path d="M 423.9315 129.008229 
L 473.7915 129.008229 
L 473.7915 66.336991 
L 423.9315 66.336991 
z
" style="fill:#ffffff;"/>
    </g>
    <g id="patch_158">
     <path clip-path="url(#p5cf368b254)" d="M 453.968161 129.008229 
L 454.201107 129.008229 
L 454.201107 125.866814 
L 453.968161 125.866814 
z
" style="fill:#1f77b4;"/>
    </g>
    <g id="patch_159">
     <path clip-path="url(#p5cf368b254)" d="M 454.201107 129.008229 
L 454.434053 129.008229 
L 454.434053 129.008229 
L 454.201107 129.008229 
z
" style="fill:#1f77b4;"/>
    </g>
    <g id="patch_160">
     <path clip-path="url(#p5cf368b254)" d="M 454.434053 129.008229 
L 454.666999 129.008229 
L 454.666999 129.008229 
L 454.434053 129.008229 
z
" style="fill:#1f77b4;"/>
    </g>
    <g id="patch_161">
     <path clip-path="url(#p5cf368b254)" d="M 454.666999 129.008229 
L 454.899945 129.008229 
L 454.899945 125.866814 
L 454.666999 125.866814 
z
" style="fill:#1f77b4;"/>
    </g>
    <g id="patch_162">
     <path clip-path="url(#p5cf368b254)" d="M 454.899945 129.008229 
L 455.132891 129.008229 
L 455.132891 129.008229 
L 454.899945 129.008229 
z
" style="fill:#1f77b4;"/>
    </g>
    <g id="patch_163">
     <path clip-path="url(#p5cf368b254)" d="M 455.132891 129.008229 
L 455.365837 129.008229 
L 455.365837 125.866814 
L 455.132891 125.866814 
z
" style="fill:#1f77b4;"/>
    </g>
    <g id="patch_164">
     <path clip-path="url(#p5cf368b254)" d="M 455.365837 129.008229 
L 455.598783 129.008229 
L 455.598783 129.008229 
L 455.365837 129.008229 
z
" style="fill:#1f77b4;"/>
    </g>
    <g id="patch_165">
     <path clip-path="url(#p5cf368b254)" d="M 455.598783 129.008229 
L 455.831729 129.008229 
L 455.831729 129.008229 
L 455.598783 129.008229 
z
" style="fill:#1f77b4;"/>
    </g>
    <g id="patch_166">
     <path clip-path="url(#p5cf368b254)" d="M 455.831729 129.008229 
L 456.064674 129.008229 
L 456.064674 129.008229 
L 455.831729 129.008229 
z
" style="fill:#1f77b4;"/>
    </g>
    <g id="patch_167">
     <path clip-path="url(#p5cf368b254)" d="M 456.064674 129.008229 
L 456.29762 129.008229 
L 456.29762 129.008229 
L 456.064674 129.008229 
z
" style="fill:#1f77b4;"/>
    </g>
    <g id="patch_168">
     <path clip-path="url(#p5cf368b254)" d="M 456.29762 129.008229 
L 456.530566 129.008229 
L 456.530566 129.008229 
L 456.29762 129.008229 
z
" style="fill:#1f77b4;"/>
    </g>
    <g id="patch_169">
     <path clip-path="url(#p5cf368b254)" d="M 456.530566 129.008229 
L 456.763512 129.008229 
L 456.763512 125.866814 
L 456.530566 125.866814 
z
" style="fill:#1f77b4;"/>
    </g>
    <g id="patch_170">
     <path clip-path="url(#p5cf368b254)" d="M 456.763512 129.008229 
L 456.996458 129.008229 
L 456.996458 129.008229 
L 456.763512 129.008229 
z
" style="fill:#1f77b4;"/>
    </g>
    <g id="patch_171">
     <path clip-path="url(#p5cf368b254)" d="M 456.996458 129.008229 
L 457.229404 129.008229 
L 457.229404 129.008229 
L 456.996458 129.008229 
z
" style="fill:#1f77b4;"/>
    </g>
    <g id="patch_172">
     <path clip-path="url(#p5cf368b254)" d="M 457.229404 129.008229 
L 457.46235 129.008229 
L 457.46235 129.008229 
L 457.229404 129.008229 
z
" style="fill:#1f77b4;"/>
    </g>
    <g id="patch_173">
     <path clip-path="url(#p5cf368b254)" d="M 457.46235 129.008229 
L 457.695296 129.008229 
L 457.695296 119.583983 
L 457.46235 119.583983 
z
" style="fill:#1f77b4;"/>
    </g>
    <g id="patch_174">
     <path clip-path="url(#p5cf368b254)" d="M 457.695296 129.008229 
L 457.928242 129.008229 
L 457.928242 116.442567 
L 457.695296 116.442567 
z
" style="fill:#1f77b4;"/>
    </g>
    <g id="patch_175">
     <path clip-path="url(#p5cf368b254)" d="M 457.928242 129.008229 
L 458.161188 129.008229 
L 458.161188 103.876906 
L 457.928242 103.876906 
z
" style="fill:#1f77b4;"/>
    </g>
    <g id="patch_176">
     <path clip-path="url(#p5cf368b254)" d="M 458.161188 129.008229 
L 458.394134 129.008229 
L 458.394134 103.876906 
L 458.161188 103.876906 
z
" style="fill:#1f77b4;"/>
    </g>
    <g id="patch_177">
     <path clip-path="url(#p5cf368b254)" d="M 458.394134 129.008229 
L 458.62708 129.008229 
L 458.62708 81.886997 
L 458.394134 81.886997 
z
" style="fill:#1f77b4;"/>
    </g>
    <g id="patch_178">
     <path clip-path="url(#p5cf368b254)" d="M 458.62708 129.008229 
L 458.860026 129.008229 
L 458.860026 94.452659 
L 458.62708 94.452659 
z
" style="fill:#1f77b4;"/>
    </g>
    <g id="patch_179">
     <path clip-path="url(#p5cf368b254)" d="M 458.860026 129.008229 
L 459.092971 129.008229 
L 459.092971 69.321336 
L 458.860026 69.321336 
z
" style="fill:#1f77b4;"/>
    </g>
    <g id="patch_180">
     <path clip-path="url(#p5cf368b254)" d="M 459.092971 129.008229 
L 459.325917 129.008229 
L 459.325917 97.594075 
L 459.092971 97.594075 
z
" style="fill:#1f77b4;"/>
    </g>
    <g id="patch_181">
     <path clip-path="url(#p5cf368b254)" d="M 459.325917 129.008229 
L 459.558863 129.008229 
L 459.558863 94.452659 
L 459.325917 94.452659 
z
" style="fill:#1f77b4;"/>
    </g>
    <g id="patch_182">
     <path clip-path="url(#p5cf368b254)" d="M 459.558863 129.008229 
L 459.791809 129.008229 
L 459.791809 107.018321 
L 459.558863 107.018321 
z
" style="fill:#1f77b4;"/>
    </g>
    <g id="patch_183">
     <path d="M 423.9315 129.008229 
L 423.9315 66.336991 
" style="fill:none;stroke:#000000;stroke-linecap:square;stroke-linejoin:miter;stroke-width:0.8;"/>
    </g>
    <g id="patch_184">
     <path d="M 473.7915 129.008229 
L 473.7915 66.336991 
" style="fill:none;stroke:#000000;stroke-linecap:square;stroke-linejoin:miter;stroke-width:0.8;"/>
    </g>
    <g id="patch_185">
     <path d="M 423.9315 129.008229 
L 473.7915 129.008229 
" style="fill:none;stroke:#000000;stroke-linecap:square;stroke-linejoin:miter;stroke-width:0.8;"/>
    </g>
    <g id="patch_186">
     <path d="M 423.9315 66.336991 
L 473.7915 66.336991 
" style="fill:none;stroke:#000000;stroke-linecap:square;stroke-linejoin:miter;stroke-width:0.8;"/>
    </g>
   </g>
   <g id="axes_8">
    <g id="patch_187">
     <path d="M 493.4862 129.008229 
L 543.3462 129.008229 
L 543.3462 66.336991 
L 493.4862 66.336991 
z
" style="fill:#ffffff;"/>
    </g>
    <g id="patch_188">
     <path clip-path="url(#p83730ef0d0)" d="M 511.11869 129.008229 
L 511.468548 129.008229 
L 511.468548 124.034322 
L 511.11869 124.034322 
z
" style="fill:#1f77b4;"/>
    </g>
    <g id="patch_189">
     <path clip-path="url(#p83730ef0d0)" d="M 511.468548 129.008229 
L 511.818406 129.008229 
L 511.818406 124.034322 
L 511.468548 124.034322 
z
" style="fill:#1f77b4;"/>
    </g>
    <g id="patch_190">
     <path clip-path="url(#p83730ef0d0)" d="M 511.818406 129.008229 
L 512.168263 129.008229 
L 512.168263 124.034322 
L 511.818406 124.034322 
z
" style="fill:#1f77b4;"/>
    </g>
    <g id="patch_191">
     <path clip-path="url(#p83730ef0d0)" d="M 512.168263 129.008229 
L 512.518121 129.008229 
L 512.518121 109.112598 
L 512.168263 109.112598 
z
" style="fill:#1f77b4;"/>
    </g>
    <g id="patch_192">
     <path clip-path="url(#p83730ef0d0)" d="M 512.518121 129.008229 
L 512.867979 129.008229 
L 512.867979 119.060414 
L 512.518121 119.060414 
z
" style="fill:#1f77b4;"/>
    </g>
    <g id="patch_193">
     <path clip-path="url(#p83730ef0d0)" d="M 512.867979 129.008229 
L 513.217836 129.008229 
L 513.217836 124.034322 
L 512.867979 124.034322 
z
" style="fill:#1f77b4;"/>
    </g>
    <g id="patch_194">
     <path clip-path="url(#p83730ef0d0)" d="M 513.217836 129.008229 
L 513.567694 129.008229 
L 513.567694 114.086506 
L 513.217836 114.086506 
z
" style="fill:#1f77b4;"/>
    </g>
    <g id="patch_195">
     <path clip-path="url(#p83730ef0d0)" d="M 513.567694 129.008229 
L 513.917552 129.008229 
L 513.917552 114.086506 
L 513.567694 114.086506 
z
" style="fill:#1f77b4;"/>
    </g>
    <g id="patch_196">
     <path clip-path="url(#p83730ef0d0)" d="M 513.917552 129.008229 
L 514.267409 129.008229 
L 514.267409 114.086506 
L 513.917552 114.086506 
z
" style="fill:#1f77b4;"/>
    </g>
    <g id="patch_197">
     <path clip-path="url(#p83730ef0d0)" d="M 514.267409 129.008229 
L 514.617267 129.008229 
L 514.617267 109.112598 
L 514.267409 109.112598 
z
" style="fill:#1f77b4;"/>
    </g>
    <g id="patch_198">
     <path clip-path="url(#p83730ef0d0)" d="M 514.617267 129.008229 
L 514.967125 129.008229 
L 514.967125 104.13869 
L 514.617267 104.13869 
z
" style="fill:#1f77b4;"/>
    </g>
    <g id="patch_199">
     <path clip-path="url(#p83730ef0d0)" d="M 514.967125 129.008229 
L 515.316982 129.008229 
L 515.316982 89.216967 
L 514.967125 89.216967 
z
" style="fill:#1f77b4;"/>
    </g>
    <g id="patch_200">
     <path clip-path="url(#p83730ef0d0)" d="M 515.316982 129.008229 
L 515.66684 129.008229 
L 515.66684 69.321336 
L 515.316982 69.321336 
z
" style="fill:#1f77b4;"/>
    </g>
    <g id="patch_201">
     <path clip-path="url(#p83730ef0d0)" d="M 515.66684 129.008229 
L 516.016697 129.008229 
L 516.016697 89.216967 
L 515.66684 89.216967 
z
" style="fill:#1f77b4;"/>
    </g>
    <g id="patch_202">
     <path clip-path="url(#p83730ef0d0)" d="M 516.016697 129.008229 
L 516.366555 129.008229 
L 516.366555 114.086506 
L 516.016697 114.086506 
z
" style="fill:#1f77b4;"/>
    </g>
    <g id="patch_203">
     <path clip-path="url(#p83730ef0d0)" d="M 516.366555 129.008229 
L 516.716413 129.008229 
L 516.716413 89.216967 
L 516.366555 89.216967 
z
" style="fill:#1f77b4;"/>
    </g>
    <g id="patch_204">
     <path clip-path="url(#p83730ef0d0)" d="M 516.716413 129.008229 
L 517.06627 129.008229 
L 517.06627 89.216967 
L 516.716413 89.216967 
z
" style="fill:#1f77b4;"/>
    </g>
    <g id="patch_205">
     <path clip-path="url(#p83730ef0d0)" d="M 517.06627 129.008229 
L 517.416128 129.008229 
L 517.416128 104.13869 
L 517.06627 104.13869 
z
" style="fill:#1f77b4;"/>
    </g>
    <g id="patch_206">
     <path clip-path="url(#p83730ef0d0)" d="M 517.416128 129.008229 
L 517.765986 129.008229 
L 517.765986 94.190875 
L 517.416128 94.190875 
z
" style="fill:#1f77b4;"/>
    </g>
    <g id="patch_207">
     <path clip-path="url(#p83730ef0d0)" d="M 517.765986 129.008229 
L 518.115843 129.008229 
L 518.115843 119.060414 
L 517.765986 119.060414 
z
" style="fill:#1f77b4;"/>
    </g>
    <g id="patch_208">
     <path clip-path="url(#p83730ef0d0)" d="M 518.115843 129.008229 
L 518.465701 129.008229 
L 518.465701 109.112598 
L 518.115843 109.112598 
z
" style="fill:#1f77b4;"/>
    </g>
    <g id="patch_209">
     <path clip-path="url(#p83730ef0d0)" d="M 518.465701 129.008229 
L 518.815559 129.008229 
L 518.815559 109.112598 
L 518.465701 109.112598 
z
" style="fill:#1f77b4;"/>
    </g>
    <g id="patch_210">
     <path clip-path="url(#p83730ef0d0)" d="M 518.815559 129.008229 
L 519.165416 129.008229 
L 519.165416 124.034322 
L 518.815559 124.034322 
z
" style="fill:#1f77b4;"/>
    </g>
    <g id="patch_211">
     <path clip-path="url(#p83730ef0d0)" d="M 519.165416 129.008229 
L 519.515274 129.008229 
L 519.515274 124.034322 
L 519.165416 124.034322 
z
" style="fill:#1f77b4;"/>
    </g>
    <g id="patch_212">
     <path clip-path="url(#p83730ef0d0)" d="M 519.515274 129.008229 
L 519.865132 129.008229 
L 519.865132 124.034322 
L 519.515274 124.034322 
z
" style="fill:#1f77b4;"/>
    </g>
    <g id="patch_213">
     <path d="M 493.4862 129.008229 
L 493.4862 66.336991 
" style="fill:none;stroke:#000000;stroke-linecap:square;stroke-linejoin:miter;stroke-width:0.8;"/>
    </g>
    <g id="patch_214">
     <path d="M 543.3462 129.008229 
L 543.3462 66.336991 
" style="fill:none;stroke:#000000;stroke-linecap:square;stroke-linejoin:miter;stroke-width:0.8;"/>
    </g>
    <g id="patch_215">
     <path d="M 493.4862 129.008229 
L 543.3462 129.008229 
" style="fill:none;stroke:#000000;stroke-linecap:square;stroke-linejoin:miter;stroke-width:0.8;"/>
    </g>
    <g id="patch_216">
     <path d="M 493.4862 66.336991 
L 543.3462 66.336991 
" style="fill:none;stroke:#000000;stroke-linecap:square;stroke-linejoin:miter;stroke-width:0.8;"/>
    </g>
   </g>
  </g>
 </g>
 <defs>
  <clipPath id="p53a9429a17">
   <rect height="250.684954" width="498.6" x="61.2" y="16.2"/>
  </clipPath>
  <clipPath id="pe2eb7aa08a">
   <rect height="62.671239" width="49.86" x="76.158" y="66.336991"/>
  </clipPath>
  <clipPath id="p6bf9ac6316">
   <rect height="62.671239" width="49.86" x="145.7127" y="66.336991"/>
  </clipPath>
  <clipPath id="pdb159d675a">
   <rect height="62.671239" width="49.86" x="215.2674" y="66.336991"/>
  </clipPath>
  <clipPath id="pa3f49e347e">
   <rect height="62.671239" width="49.86" x="284.8221" y="66.336991"/>
  </clipPath>
  <clipPath id="p0a0f8723ae">
   <rect height="62.671239" width="49.86" x="354.3768" y="66.336991"/>
  </clipPath>
  <clipPath id="p5cf368b254">
   <rect height="62.671239" width="49.86" x="423.9315" y="66.336991"/>
  </clipPath>
  <clipPath id="p83730ef0d0">
   <rect height="62.671239" width="49.86" x="493.4862" y="66.336991"/>
  </clipPath>
 </defs>
</svg>
