<?xml version="1.0" encoding="utf-8" standalone="no"?>
<!DOCTYPE svg PUBLIC "-//W3C//DTD SVG 1.1//EN"
  "http://www.w3.org/Graphics/SVG/1.1/DTD/svg11.dtd">
<svg height="345.6pt" version="1.1" viewBox="0 0 460.8 345.6" width="460.8pt" xmlns="http://www.w3.org/2000/svg" xmlns:xlink="http://www.w3.org/1999/xlink">
 <metadata>
  <rdf:RDF xmlns:cc="http://creativecommons.org/ns#" xmlns:dc="http://purl.org/dc/elements/1.1/" xmlns:rdf="http://www.w3.org/1999/02/22-rdf-syntax-ns#">
   <cc:Work>
    <dc:type rdf:resource="http://purl.org/dc/dcmitype/StillImage"/>
    <dc:date>2021-05-07T12:06:50.151923</dc:date>
    <dc:format>image/svg+xml</dc:format>
    <dc:creator>
     <cc:Agent>
      <dc:title>Matplotlib v3.4.1, https://matplotlib.org/</dc:title>
     </cc:Agent>
    </dc:creator>
   </cc:Work>
  </rdf:RDF>
 </metadata>
 <defs>
  <style type="text/css">*{stroke-linecap:butt;stroke-linejoin:round;}</style>
 </defs>
 <g id="figure_1">
  <g id="patch_1">
   <path d="M 0 345.6 
L 460.8 345.6 
L 460.8 0 
L 0 0 
z
" style="fill:#ffffff;"/>
  </g>
  <g id="axes_1">
   <g id="patch_2">
    <path d="M 44.48 303.64 
L 450 303.64 
L 450 32.876829 
L 44.48 32.876829 
z
" style="fill:#ffffff;"/>
   </g>
   <g id="PolyCollection_1">
    <path clip-path="url(#pf04547e302)" d="M 62.912727 243.875007 
L 62.912727 291.332583 
L 70.436289 223.461768 
L 77.959852 146.652147 
L 85.483414 120.170492 
L 93.006976 107.634798 
L 100.530538 96.715923 
L 108.0541 96.644697 
L 115.577662 89.37257 
L 123.101224 87.029249 
L 130.624787 84.764277 
L 138.148349 83.681649 
L 145.671911 79.550568 
L 153.195473 80.127495 
L 160.719035 74.920908 
L 168.242597 76.1816 
L 175.76616 75.2343 
L 183.289722 73.859647 
L 190.813284 71.437979 
L 198.336846 71.281283 
L 205.860408 72.798387 
L 213.38397 70.590395 
L 220.907532 68.439384 
L 228.431095 68.574712 
L 235.954657 67.28553 
L 243.478219 66.409456 
L 251.001781 66.744216 
L 258.525343 64.593205 
L 266.048905 64.294058 
L 273.572468 62.541909 
L 281.09603 63.161572 
L 288.619592 64.137361 
L 296.143154 62.584645 
L 303.666716 61.558997 
L 311.190278 62.912282 
L 318.71384 63.382371 
L 326.237403 62.940772 
L 333.760965 65.056171 
L 341.284527 61.644468 
L 348.808089 61.323953 
L 356.331651 61.893757 
L 363.855213 64.529102 
L 371.378776 63.417983 
L 378.902338 64.208587 
L 386.4259 61.117399 
L 393.949462 59.657275 
L 401.473024 60.70429 
L 408.996586 60.932212 
L 416.520148 59.607417 
L 424.043711 59.144451 
L 431.567273 58.204274 
L 431.567273 56.872356 
L 431.567273 56.872356 
L 424.043711 57.670083 
L 416.520148 55.697135 
L 408.996586 56.345288 
L 401.473024 57.492019 
L 393.949462 59.151574 
L 386.4259 57.214239 
L 378.902338 58.346725 
L 371.378776 57.228484 
L 363.855213 60.561839 
L 356.331651 59.450721 
L 348.808089 60.013403 
L 341.284527 60.917967 
L 333.760965 60.440756 
L 326.237403 58.588892 
L 318.71384 57.791166 
L 311.190278 57.677205 
L 303.666716 61.402301 
L 296.143154 60.668678 
L 288.619592 61.829654 
L 281.09603 60.754148 
L 273.572468 60.462124 
L 266.048905 63.197184 
L 258.525343 61.922247 
L 251.001781 64.023401 
L 243.478219 63.090346 
L 235.954657 64.009155 
L 228.431095 65.098906 
L 220.907532 64.557592 
L 213.38397 65.326828 
L 205.860408 67.634535 
L 198.336846 68.047643 
L 190.813284 66.851054 
L 183.289722 67.577555 
L 175.76616 67.969295 
L 168.242597 71.972171 
L 160.719035 71.160199 
L 153.195473 73.28272 
L 145.671911 77.043429 
L 138.148349 75.939433 
L 130.624787 77.869645 
L 123.101224 83.026374 
L 115.577662 85.519268 
L 108.0541 87.05774 
L 100.530538 95.590559 
L 93.006976 98.71736 
L 85.483414 109.629113 
L 77.959852 126.117825 
L 70.436289 159.62944 
L 62.912727 243.875007 
z
" style="fill:#1f77b4;fill-opacity:0.5;"/>
   </g>
   <g id="PolyCollection_2">
    <path clip-path="url(#pf04547e302)" d="M 62.912727 289.922317 
L 62.912727 291.332583 
L 70.436289 265.392242 
L 77.959852 207.17961 
L 85.483414 182.621044 
L 93.006976 164.53688 
L 100.530538 163.25482 
L 108.0541 155.868732 
L 115.577662 140.434158 
L 123.101224 134.130698 
L 130.624787 130.220416 
L 138.148349 127.449742 
L 145.671911 124.572231 
L 153.195473 121.310101 
L 160.719035 115.918328 
L 168.242597 113.802929 
L 175.76616 113.97387 
L 183.289722 109.906892 
L 190.813284 106.366983 
L 198.336846 104.130501 
L 205.860408 104.857002 
L 213.38397 106.715988 
L 220.907532 103.667535 
L 228.431095 98.546419 
L 235.954657 98.973772 
L 243.478219 97.68459 
L 251.001781 98.147556 
L 258.525343 94.828446 
L 266.048905 95.782868 
L 273.572468 94.507931 
L 281.09603 95.056368 
L 288.619592 94.443828 
L 296.143154 92.912479 
L 303.666716 94.507931 
L 311.190278 91.423865 
L 318.71384 92.307062 
L 326.237403 90.782835 
L 333.760965 91.858341 
L 341.284527 91.566316 
L 348.808089 90.319869 
L 356.331651 87.121843 
L 363.855213 89.052055 
L 371.378776 84.579091 
L 378.902338 86.50218 
L 386.4259 86.687367 
L 393.949462 86.943779 
L 401.473024 87.534951 
L 408.996586 85.683087 
L 416.520148 84.992199 
L 424.043711 85.433797 
L 431.567273 84.123247 
L 431.567273 82.969394 
L 431.567273 82.969394 
L 424.043711 81.487902 
L 416.520148 83.546321 
L 408.996586 85.640351 
L 401.473024 85.305591 
L 393.949462 85.661719 
L 386.4259 84.721542 
L 378.902338 84.970831 
L 371.378776 83.667404 
L 363.855213 86.644631 
L 356.331651 86.366852 
L 348.808089 85.597616 
L 341.284527 88.995074 
L 333.760965 89.607614 
L 326.237403 90.540668 
L 318.71384 87.962304 
L 311.190278 88.382535 
L 303.666716 88.646069 
L 296.143154 92.72017 
L 288.619592 93.161768 
L 281.09603 92.663189 
L 273.572468 93.717327 
L 266.048905 93.72445 
L 258.525343 94.493686 
L 251.001781 95.861216 
L 243.478219 94.258641 
L 235.954657 93.432425 
L 228.431095 96.366917 
L 220.907532 99.066365 
L 213.38397 99.707395 
L 205.860408 102.435333 
L 198.336846 103.418246 
L 190.813284 102.869809 
L 183.289722 107.378386 
L 175.76616 108.938225 
L 168.242597 107.33565 
L 160.719035 109.144779 
L 153.195473 112.143374 
L 145.671911 124.159122 
L 138.148349 124.76454 
L 130.624787 125.028074 
L 123.101224 125.576511 
L 115.577662 136.310199 
L 108.0541 135.711905 
L 100.530538 137.570891 
L 93.006976 152.214862 
L 85.483414 165.085317 
L 77.959852 189.821946 
L 70.436289 261.546063 
L 62.912727 289.922317 
z
" style="fill:#ff7f0e;fill-opacity:0.5;"/>
   </g>
   <g id="PolyCollection_3">
    <path clip-path="url(#pf04547e302)" d="M 62.912727 244.779571 
L 62.912727 257.564555 
L 70.436289 185.327615 
L 77.959852 145.078063 
L 85.483414 128.639209 
L 93.006976 125.868535 
L 100.530538 107.570695 
L 108.0541 96.203099 
L 115.577662 91.423865 
L 123.101224 87.940936 
L 130.624787 83.802732 
L 138.148349 81.359697 
L 145.671911 77.570498 
L 153.195473 72.684426 
L 160.719035 70.590395 
L 168.242597 70.056204 
L 175.76616 68.987821 
L 183.289722 67.427981 
L 190.813284 70.106061 
L 198.336846 64.849617 
L 205.860408 63.724253 
L 213.38397 62.68436 
L 220.907532 63.033366 
L 228.431095 62.32111 
L 235.954657 60.063261 
L 243.478219 63.097469 
L 251.001781 61.110276 
L 258.525343 60.241324 
L 266.048905 60.882354 
L 273.572468 61.003438 
L 281.09603 59.593172 
L 288.619592 61.25985 
L 296.143154 60.184344 
L 303.666716 59.756991 
L 311.190278 58.94502 
L 318.71384 61.302585 
L 326.237403 61.302585 
L 333.760965 60.896599 
L 341.284527 58.004843 
L 348.808089 57.420793 
L 356.331651 55.105963 
L 363.855213 53.9806 
L 371.378776 54.67861 
L 378.902338 56.309675 
L 386.4259 54.73559 
L 393.949462 55.483458 
L 401.473024 54.664365 
L 408.996586 52.627314 
L 416.520148 52.954952 
L 424.043711 55.098841 
L 431.567273 54.7071 
L 431.567273 50.68998 
L 431.567273 50.68998 
L 424.043711 51.209926 
L 416.520148 48.090248 
L 408.996586 49.870886 
L 401.473024 48.182841 
L 393.949462 51.430725 
L 386.4259 51.195681 
L 378.902338 50.547529 
L 371.378776 51.38799 
L 363.855213 50.091685 
L 356.331651 52.563211 
L 348.808089 51.850956 
L 341.284527 51.630157 
L 333.760965 52.064633 
L 326.237403 53.838149 
L 318.71384 53.189996 
L 311.190278 53.788291 
L 303.666716 52.812501 
L 296.143154 56.195714 
L 288.619592 54.101683 
L 281.09603 54.7071 
L 273.572468 55.932179 
L 266.048905 59.343883 
L 258.525343 56.437881 
L 251.001781 56.359533 
L 243.478219 59.70001 
L 235.954657 59.023368 
L 228.431095 56.922214 
L 220.907532 59.286902 
L 213.38397 59.806849 
L 205.860408 62.727096 
L 198.336846 64.507734 
L 190.813284 66.608888 
L 183.289722 65.853897 
L 175.76616 66.551907 
L 168.242597 67.527697 
L 160.719035 68.311178 
L 153.195473 71.908068 
L 145.671911 73.475029 
L 138.148349 75.975046 
L 130.624787 79.22293 
L 123.101224 85.868273 
L 115.577662 88.382535 
L 108.0541 95.9823 
L 100.530538 102.335618 
L 93.006976 115.59069 
L 85.483414 125.612123 
L 77.959852 141.068065 
L 70.436289 180.640974 
L 62.912727 244.779571 
z
" style="fill:#2ca02c;fill-opacity:0.5;"/>
   </g>
   <g id="PolyCollection_4">
    <path clip-path="url(#pf04547e302)" d="M 62.912727 239.402043 
L 62.912727 245.591542 
L 70.436289 203.119754 
L 77.959852 134.664889 
L 85.483414 128.674822 
L 93.006976 114.451082 
L 100.530538 97.257237 
L 108.0541 98.368355 
L 115.577662 97.876899 
L 123.101224 91.950934 
L 130.624787 86.815573 
L 138.148349 86.295626 
L 145.671911 80.569093 
L 153.195473 79.22293 
L 160.719035 74.20153 
L 168.242597 74.17304 
L 175.76616 69.778424 
L 183.289722 67.705761 
L 190.813284 66.345353 
L 198.336846 64.051891 
L 205.860408 63.011998 
L 213.38397 63.097469 
L 220.907532 62.833934 
L 228.431095 63.090346 
L 235.954657 58.353848 
L 243.478219 57.776921 
L 251.001781 58.02621 
L 258.525343 58.709975 
L 266.048905 56.316797 
L 273.572468 56.395145 
L 281.09603 54.635875 
L 288.619592 55.276904 
L 296.143154 53.831026 
L 303.666716 54.293992 
L 311.190278 51.801098 
L 318.71384 50.768328 
L 326.237403 50.853799 
L 333.760965 50.832431 
L 341.284527 49.764048 
L 348.808089 49.970602 
L 356.331651 49.806783 
L 363.855213 50.319607 
L 371.378776 49.40792 
L 378.902338 48.496233 
L 386.4259 48.132983 
L 393.949462 47.755488 
L 401.473024 47.477708 
L 408.996586 46.979129 
L 416.520148 47.356625 
L 424.043711 46.08881 
L 431.567273 45.75405 
L 431.567273 45.412167 
L 431.567273 45.412167 
L 424.043711 45.718437 
L 416.520148 45.184246 
L 408.996586 45.967727 
L 401.473024 46.801065 
L 393.949462 47.235541 
L 386.4259 47.157193 
L 378.902338 47.755488 
L 371.378776 48.880851 
L 363.855213 48.531846 
L 356.331651 49.628719 
L 348.808089 49.293959 
L 341.284527 49.635842 
L 333.760965 50.68998 
L 326.237403 50.697102 
L 318.71384 50.483426 
L 311.190278 51.644402 
L 303.666716 52.805378 
L 296.143154 51.922182 
L 288.619592 53.011932 
L 281.09603 52.69854 
L 273.572468 53.068913 
L 266.048905 52.734153 
L 258.525343 53.239854 
L 251.001781 55.775483 
L 243.478219 57.655837 
L 235.954657 58.033333 
L 228.431095 59.664398 
L 220.907532 60.860987 
L 213.38397 62.278375 
L 205.860408 62.249885 
L 198.336846 63.781234 
L 190.813284 61.131644 
L 183.289722 66.331108 
L 175.76616 67.207182 
L 168.242597 70.205777 
L 160.719035 70.2129 
L 153.195473 71.623165 
L 145.671911 77.891013 
L 138.148349 78.197283 
L 130.624787 80.212965 
L 123.101224 84.985076 
L 115.577662 89.137525 
L 108.0541 87.271416 
L 100.530538 92.421023 
L 93.006976 108.881244 
L 85.483414 124.251716 
L 77.959852 128.81015 
L 70.436289 185.206531 
L 62.912727 239.402043 
z
" style="fill:#d62728;fill-opacity:0.5;"/>
   </g>
   <g id="matplotlib.axis_1">
    <g id="xtick_1">
     <g id="line2d_1">
      <defs>
       <path d="M 0 0 
L 0 3.5 
" id="m39b37f1e7f" style="stroke:#000000;stroke-width:0.8;"/>
      </defs>
      <g>
       <use style="stroke:#000000;stroke-width:0.8;" x="62.912727" xlink:href="#m39b37f1e7f" y="303.64"/>
      </g>
     </g>
     <g id="text_1">
      <!-- 0 -->
      <g transform="translate(59.731477 318.238437)scale(0.1 -0.1)">
       <defs>
        <path d="M 2034 4250 
Q 1547 4250 1301 3770 
Q 1056 3291 1056 2328 
Q 1056 1369 1301 889 
Q 1547 409 2034 409 
Q 2525 409 2770 889 
Q 3016 1369 3016 2328 
Q 3016 3291 2770 3770 
Q 2525 4250 2034 4250 
z
M 2034 4750 
Q 2819 4750 3233 4129 
Q 3647 3509 3647 2328 
Q 3647 1150 3233 529 
Q 2819 -91 2034 -91 
Q 1250 -91 836 529 
Q 422 1150 422 2328 
Q 422 3509 836 4129 
Q 1250 4750 2034 4750 
z
" id="DejaVuSans-30" transform="scale(0.015625)"/>
       </defs>
       <use xlink:href="#DejaVuSans-30"/>
      </g>
     </g>
    </g>
    <g id="xtick_2">
     <g id="line2d_2">
      <g>
       <use style="stroke:#000000;stroke-width:0.8;" x="138.148349" xlink:href="#m39b37f1e7f" y="303.64"/>
      </g>
     </g>
     <g id="text_2">
      <!-- 10 -->
      <g transform="translate(131.785849 318.238437)scale(0.1 -0.1)">
       <defs>
        <path d="M 794 531 
L 1825 531 
L 1825 4091 
L 703 3866 
L 703 4441 
L 1819 4666 
L 2450 4666 
L 2450 531 
L 3481 531 
L 3481 0 
L 794 0 
L 794 531 
z
" id="DejaVuSans-31" transform="scale(0.015625)"/>
       </defs>
       <use xlink:href="#DejaVuSans-31"/>
       <use x="63.623047" xlink:href="#DejaVuSans-30"/>
      </g>
     </g>
    </g>
    <g id="xtick_3">
     <g id="line2d_3">
      <g>
       <use style="stroke:#000000;stroke-width:0.8;" x="213.38397" xlink:href="#m39b37f1e7f" y="303.64"/>
      </g>
     </g>
     <g id="text_3">
      <!-- 20 -->
      <g transform="translate(207.02147 318.238437)scale(0.1 -0.1)">
       <defs>
        <path d="M 1228 531 
L 3431 531 
L 3431 0 
L 469 0 
L 469 531 
Q 828 903 1448 1529 
Q 2069 2156 2228 2338 
Q 2531 2678 2651 2914 
Q 2772 3150 2772 3378 
Q 2772 3750 2511 3984 
Q 2250 4219 1831 4219 
Q 1534 4219 1204 4116 
Q 875 4013 500 3803 
L 500 4441 
Q 881 4594 1212 4672 
Q 1544 4750 1819 4750 
Q 2544 4750 2975 4387 
Q 3406 4025 3406 3419 
Q 3406 3131 3298 2873 
Q 3191 2616 2906 2266 
Q 2828 2175 2409 1742 
Q 1991 1309 1228 531 
z
" id="DejaVuSans-32" transform="scale(0.015625)"/>
       </defs>
       <use xlink:href="#DejaVuSans-32"/>
       <use x="63.623047" xlink:href="#DejaVuSans-30"/>
      </g>
     </g>
    </g>
    <g id="xtick_4">
     <g id="line2d_4">
      <g>
       <use style="stroke:#000000;stroke-width:0.8;" x="288.619592" xlink:href="#m39b37f1e7f" y="303.64"/>
      </g>
     </g>
     <g id="text_4">
      <!-- 30 -->
      <g transform="translate(282.257092 318.238437)scale(0.1 -0.1)">
       <defs>
        <path d="M 2597 2516 
Q 3050 2419 3304 2112 
Q 3559 1806 3559 1356 
Q 3559 666 3084 287 
Q 2609 -91 1734 -91 
Q 1441 -91 1130 -33 
Q 819 25 488 141 
L 488 750 
Q 750 597 1062 519 
Q 1375 441 1716 441 
Q 2309 441 2620 675 
Q 2931 909 2931 1356 
Q 2931 1769 2642 2001 
Q 2353 2234 1838 2234 
L 1294 2234 
L 1294 2753 
L 1863 2753 
Q 2328 2753 2575 2939 
Q 2822 3125 2822 3475 
Q 2822 3834 2567 4026 
Q 2313 4219 1838 4219 
Q 1578 4219 1281 4162 
Q 984 4106 628 3988 
L 628 4550 
Q 988 4650 1302 4700 
Q 1616 4750 1894 4750 
Q 2613 4750 3031 4423 
Q 3450 4097 3450 3541 
Q 3450 3153 3228 2886 
Q 3006 2619 2597 2516 
z
" id="DejaVuSans-33" transform="scale(0.015625)"/>
       </defs>
       <use xlink:href="#DejaVuSans-33"/>
       <use x="63.623047" xlink:href="#DejaVuSans-30"/>
      </g>
     </g>
    </g>
    <g id="xtick_5">
     <g id="line2d_5">
      <g>
       <use style="stroke:#000000;stroke-width:0.8;" x="363.855213" xlink:href="#m39b37f1e7f" y="303.64"/>
      </g>
     </g>
     <g id="text_5">
      <!-- 40 -->
      <g transform="translate(357.492713 318.238437)scale(0.1 -0.1)">
       <defs>
        <path d="M 2419 4116 
L 825 1625 
L 2419 1625 
L 2419 4116 
z
M 2253 4666 
L 3047 4666 
L 3047 1625 
L 3713 1625 
L 3713 1100 
L 3047 1100 
L 3047 0 
L 2419 0 
L 2419 1100 
L 313 1100 
L 313 1709 
L 2253 4666 
z
" id="DejaVuSans-34" transform="scale(0.015625)"/>
       </defs>
       <use xlink:href="#DejaVuSans-34"/>
       <use x="63.623047" xlink:href="#DejaVuSans-30"/>
      </g>
     </g>
    </g>
    <g id="xtick_6">
     <g id="line2d_6">
      <g>
       <use style="stroke:#000000;stroke-width:0.8;" x="439.090835" xlink:href="#m39b37f1e7f" y="303.64"/>
      </g>
     </g>
     <g id="text_6">
      <!-- 50 -->
      <g transform="translate(432.728335 318.238437)scale(0.1 -0.1)">
       <defs>
        <path d="M 691 4666 
L 3169 4666 
L 3169 4134 
L 1269 4134 
L 1269 2991 
Q 1406 3038 1543 3061 
Q 1681 3084 1819 3084 
Q 2600 3084 3056 2656 
Q 3513 2228 3513 1497 
Q 3513 744 3044 326 
Q 2575 -91 1722 -91 
Q 1428 -91 1123 -41 
Q 819 9 494 109 
L 494 744 
Q 775 591 1075 516 
Q 1375 441 1709 441 
Q 2250 441 2565 725 
Q 2881 1009 2881 1497 
Q 2881 1984 2565 2268 
Q 2250 2553 1709 2553 
Q 1456 2553 1204 2497 
Q 953 2441 691 2322 
L 691 4666 
z
" id="DejaVuSans-35" transform="scale(0.015625)"/>
       </defs>
       <use xlink:href="#DejaVuSans-35"/>
       <use x="63.623047" xlink:href="#DejaVuSans-30"/>
      </g>
     </g>
    </g>
    <g id="text_7">
     <!-- Global Communication Rounds -->
     <g transform="translate(170.278281 331.916562)scale(0.1 -0.1)">
      <defs>
       <path d="M 3809 666 
L 3809 1919 
L 2778 1919 
L 2778 2438 
L 4434 2438 
L 4434 434 
Q 4069 175 3628 42 
Q 3188 -91 2688 -91 
Q 1594 -91 976 548 
Q 359 1188 359 2328 
Q 359 3472 976 4111 
Q 1594 4750 2688 4750 
Q 3144 4750 3555 4637 
Q 3966 4525 4313 4306 
L 4313 3634 
Q 3963 3931 3569 4081 
Q 3175 4231 2741 4231 
Q 1884 4231 1454 3753 
Q 1025 3275 1025 2328 
Q 1025 1384 1454 906 
Q 1884 428 2741 428 
Q 3075 428 3337 486 
Q 3600 544 3809 666 
z
" id="DejaVuSans-47" transform="scale(0.015625)"/>
       <path d="M 603 4863 
L 1178 4863 
L 1178 0 
L 603 0 
L 603 4863 
z
" id="DejaVuSans-6c" transform="scale(0.015625)"/>
       <path d="M 1959 3097 
Q 1497 3097 1228 2736 
Q 959 2375 959 1747 
Q 959 1119 1226 758 
Q 1494 397 1959 397 
Q 2419 397 2687 759 
Q 2956 1122 2956 1747 
Q 2956 2369 2687 2733 
Q 2419 3097 1959 3097 
z
M 1959 3584 
Q 2709 3584 3137 3096 
Q 3566 2609 3566 1747 
Q 3566 888 3137 398 
Q 2709 -91 1959 -91 
Q 1206 -91 779 398 
Q 353 888 353 1747 
Q 353 2609 779 3096 
Q 1206 3584 1959 3584 
z
" id="DejaVuSans-6f" transform="scale(0.015625)"/>
       <path d="M 3116 1747 
Q 3116 2381 2855 2742 
Q 2594 3103 2138 3103 
Q 1681 3103 1420 2742 
Q 1159 2381 1159 1747 
Q 1159 1113 1420 752 
Q 1681 391 2138 391 
Q 2594 391 2855 752 
Q 3116 1113 3116 1747 
z
M 1159 2969 
Q 1341 3281 1617 3432 
Q 1894 3584 2278 3584 
Q 2916 3584 3314 3078 
Q 3713 2572 3713 1747 
Q 3713 922 3314 415 
Q 2916 -91 2278 -91 
Q 1894 -91 1617 61 
Q 1341 213 1159 525 
L 1159 0 
L 581 0 
L 581 4863 
L 1159 4863 
L 1159 2969 
z
" id="DejaVuSans-62" transform="scale(0.015625)"/>
       <path d="M 2194 1759 
Q 1497 1759 1228 1600 
Q 959 1441 959 1056 
Q 959 750 1161 570 
Q 1363 391 1709 391 
Q 2188 391 2477 730 
Q 2766 1069 2766 1631 
L 2766 1759 
L 2194 1759 
z
M 3341 1997 
L 3341 0 
L 2766 0 
L 2766 531 
Q 2569 213 2275 61 
Q 1981 -91 1556 -91 
Q 1019 -91 701 211 
Q 384 513 384 1019 
Q 384 1609 779 1909 
Q 1175 2209 1959 2209 
L 2766 2209 
L 2766 2266 
Q 2766 2663 2505 2880 
Q 2244 3097 1772 3097 
Q 1472 3097 1187 3025 
Q 903 2953 641 2809 
L 641 3341 
Q 956 3463 1253 3523 
Q 1550 3584 1831 3584 
Q 2591 3584 2966 3190 
Q 3341 2797 3341 1997 
z
" id="DejaVuSans-61" transform="scale(0.015625)"/>
       <path id="DejaVuSans-20" transform="scale(0.015625)"/>
       <path d="M 4122 4306 
L 4122 3641 
Q 3803 3938 3442 4084 
Q 3081 4231 2675 4231 
Q 1875 4231 1450 3742 
Q 1025 3253 1025 2328 
Q 1025 1406 1450 917 
Q 1875 428 2675 428 
Q 3081 428 3442 575 
Q 3803 722 4122 1019 
L 4122 359 
Q 3791 134 3420 21 
Q 3050 -91 2638 -91 
Q 1578 -91 968 557 
Q 359 1206 359 2328 
Q 359 3453 968 4101 
Q 1578 4750 2638 4750 
Q 3056 4750 3426 4639 
Q 3797 4528 4122 4306 
z
" id="DejaVuSans-43" transform="scale(0.015625)"/>
       <path d="M 3328 2828 
Q 3544 3216 3844 3400 
Q 4144 3584 4550 3584 
Q 5097 3584 5394 3201 
Q 5691 2819 5691 2113 
L 5691 0 
L 5113 0 
L 5113 2094 
Q 5113 2597 4934 2840 
Q 4756 3084 4391 3084 
Q 3944 3084 3684 2787 
Q 3425 2491 3425 1978 
L 3425 0 
L 2847 0 
L 2847 2094 
Q 2847 2600 2669 2842 
Q 2491 3084 2119 3084 
Q 1678 3084 1418 2786 
Q 1159 2488 1159 1978 
L 1159 0 
L 581 0 
L 581 3500 
L 1159 3500 
L 1159 2956 
Q 1356 3278 1631 3431 
Q 1906 3584 2284 3584 
Q 2666 3584 2933 3390 
Q 3200 3197 3328 2828 
z
" id="DejaVuSans-6d" transform="scale(0.015625)"/>
       <path d="M 544 1381 
L 544 3500 
L 1119 3500 
L 1119 1403 
Q 1119 906 1312 657 
Q 1506 409 1894 409 
Q 2359 409 2629 706 
Q 2900 1003 2900 1516 
L 2900 3500 
L 3475 3500 
L 3475 0 
L 2900 0 
L 2900 538 
Q 2691 219 2414 64 
Q 2138 -91 1772 -91 
Q 1169 -91 856 284 
Q 544 659 544 1381 
z
M 1991 3584 
L 1991 3584 
z
" id="DejaVuSans-75" transform="scale(0.015625)"/>
       <path d="M 3513 2113 
L 3513 0 
L 2938 0 
L 2938 2094 
Q 2938 2591 2744 2837 
Q 2550 3084 2163 3084 
Q 1697 3084 1428 2787 
Q 1159 2491 1159 1978 
L 1159 0 
L 581 0 
L 581 3500 
L 1159 3500 
L 1159 2956 
Q 1366 3272 1645 3428 
Q 1925 3584 2291 3584 
Q 2894 3584 3203 3211 
Q 3513 2838 3513 2113 
z
" id="DejaVuSans-6e" transform="scale(0.015625)"/>
       <path d="M 603 3500 
L 1178 3500 
L 1178 0 
L 603 0 
L 603 3500 
z
M 603 4863 
L 1178 4863 
L 1178 4134 
L 603 4134 
L 603 4863 
z
" id="DejaVuSans-69" transform="scale(0.015625)"/>
       <path d="M 3122 3366 
L 3122 2828 
Q 2878 2963 2633 3030 
Q 2388 3097 2138 3097 
Q 1578 3097 1268 2742 
Q 959 2388 959 1747 
Q 959 1106 1268 751 
Q 1578 397 2138 397 
Q 2388 397 2633 464 
Q 2878 531 3122 666 
L 3122 134 
Q 2881 22 2623 -34 
Q 2366 -91 2075 -91 
Q 1284 -91 818 406 
Q 353 903 353 1747 
Q 353 2603 823 3093 
Q 1294 3584 2113 3584 
Q 2378 3584 2631 3529 
Q 2884 3475 3122 3366 
z
" id="DejaVuSans-63" transform="scale(0.015625)"/>
       <path d="M 1172 4494 
L 1172 3500 
L 2356 3500 
L 2356 3053 
L 1172 3053 
L 1172 1153 
Q 1172 725 1289 603 
Q 1406 481 1766 481 
L 2356 481 
L 2356 0 
L 1766 0 
Q 1100 0 847 248 
Q 594 497 594 1153 
L 594 3053 
L 172 3053 
L 172 3500 
L 594 3500 
L 594 4494 
L 1172 4494 
z
" id="DejaVuSans-74" transform="scale(0.015625)"/>
       <path d="M 2841 2188 
Q 3044 2119 3236 1894 
Q 3428 1669 3622 1275 
L 4263 0 
L 3584 0 
L 2988 1197 
Q 2756 1666 2539 1819 
Q 2322 1972 1947 1972 
L 1259 1972 
L 1259 0 
L 628 0 
L 628 4666 
L 2053 4666 
Q 2853 4666 3247 4331 
Q 3641 3997 3641 3322 
Q 3641 2881 3436 2590 
Q 3231 2300 2841 2188 
z
M 1259 4147 
L 1259 2491 
L 2053 2491 
Q 2509 2491 2742 2702 
Q 2975 2913 2975 3322 
Q 2975 3731 2742 3939 
Q 2509 4147 2053 4147 
L 1259 4147 
z
" id="DejaVuSans-52" transform="scale(0.015625)"/>
       <path d="M 2906 2969 
L 2906 4863 
L 3481 4863 
L 3481 0 
L 2906 0 
L 2906 525 
Q 2725 213 2448 61 
Q 2172 -91 1784 -91 
Q 1150 -91 751 415 
Q 353 922 353 1747 
Q 353 2572 751 3078 
Q 1150 3584 1784 3584 
Q 2172 3584 2448 3432 
Q 2725 3281 2906 2969 
z
M 947 1747 
Q 947 1113 1208 752 
Q 1469 391 1925 391 
Q 2381 391 2643 752 
Q 2906 1113 2906 1747 
Q 2906 2381 2643 2742 
Q 2381 3103 1925 3103 
Q 1469 3103 1208 2742 
Q 947 2381 947 1747 
z
" id="DejaVuSans-64" transform="scale(0.015625)"/>
       <path d="M 2834 3397 
L 2834 2853 
Q 2591 2978 2328 3040 
Q 2066 3103 1784 3103 
Q 1356 3103 1142 2972 
Q 928 2841 928 2578 
Q 928 2378 1081 2264 
Q 1234 2150 1697 2047 
L 1894 2003 
Q 2506 1872 2764 1633 
Q 3022 1394 3022 966 
Q 3022 478 2636 193 
Q 2250 -91 1575 -91 
Q 1294 -91 989 -36 
Q 684 19 347 128 
L 347 722 
Q 666 556 975 473 
Q 1284 391 1588 391 
Q 1994 391 2212 530 
Q 2431 669 2431 922 
Q 2431 1156 2273 1281 
Q 2116 1406 1581 1522 
L 1381 1569 
Q 847 1681 609 1914 
Q 372 2147 372 2553 
Q 372 3047 722 3315 
Q 1072 3584 1716 3584 
Q 2034 3584 2315 3537 
Q 2597 3491 2834 3397 
z
" id="DejaVuSans-73" transform="scale(0.015625)"/>
      </defs>
      <use xlink:href="#DejaVuSans-47"/>
      <use x="77.490234" xlink:href="#DejaVuSans-6c"/>
      <use x="105.273438" xlink:href="#DejaVuSans-6f"/>
      <use x="166.455078" xlink:href="#DejaVuSans-62"/>
      <use x="229.931641" xlink:href="#DejaVuSans-61"/>
      <use x="291.210938" xlink:href="#DejaVuSans-6c"/>
      <use x="318.994141" xlink:href="#DejaVuSans-20"/>
      <use x="350.78125" xlink:href="#DejaVuSans-43"/>
      <use x="420.605469" xlink:href="#DejaVuSans-6f"/>
      <use x="481.787109" xlink:href="#DejaVuSans-6d"/>
      <use x="579.199219" xlink:href="#DejaVuSans-6d"/>
      <use x="676.611328" xlink:href="#DejaVuSans-75"/>
      <use x="739.990234" xlink:href="#DejaVuSans-6e"/>
      <use x="803.369141" xlink:href="#DejaVuSans-69"/>
      <use x="831.152344" xlink:href="#DejaVuSans-63"/>
      <use x="886.132812" xlink:href="#DejaVuSans-61"/>
      <use x="947.412109" xlink:href="#DejaVuSans-74"/>
      <use x="986.621094" xlink:href="#DejaVuSans-69"/>
      <use x="1014.404297" xlink:href="#DejaVuSans-6f"/>
      <use x="1075.585938" xlink:href="#DejaVuSans-6e"/>
      <use x="1138.964844" xlink:href="#DejaVuSans-20"/>
      <use x="1170.751953" xlink:href="#DejaVuSans-52"/>
      <use x="1235.734375" xlink:href="#DejaVuSans-6f"/>
      <use x="1296.916016" xlink:href="#DejaVuSans-75"/>
      <use x="1360.294922" xlink:href="#DejaVuSans-6e"/>
      <use x="1423.673828" xlink:href="#DejaVuSans-64"/>
      <use x="1487.150391" xlink:href="#DejaVuSans-73"/>
     </g>
    </g>
   </g>
   <g id="matplotlib.axis_2">
    <g id="ytick_1">
     <g id="line2d_7">
      <defs>
       <path d="M 0 0 
L -3.5 0 
" id="md82eed4b46" style="stroke:#000000;stroke-width:0.8;"/>
      </defs>
      <g>
       <use style="stroke:#000000;stroke-width:0.8;" x="44.48" xlink:href="#md82eed4b46" y="281.25132"/>
      </g>
     </g>
     <g id="text_8">
      <!-- 20 -->
      <g transform="translate(24.755 285.050539)scale(0.1 -0.1)">
       <use xlink:href="#DejaVuSans-32"/>
       <use x="63.623047" xlink:href="#DejaVuSans-30"/>
      </g>
     </g>
    </g>
    <g id="ytick_2">
     <g id="line2d_8">
      <g>
       <use style="stroke:#000000;stroke-width:0.8;" x="44.48" xlink:href="#md82eed4b46" y="244.400295"/>
      </g>
     </g>
     <g id="text_9">
      <!-- 25 -->
      <g transform="translate(24.755 248.199514)scale(0.1 -0.1)">
       <use xlink:href="#DejaVuSans-32"/>
       <use x="63.623047" xlink:href="#DejaVuSans-35"/>
      </g>
     </g>
    </g>
    <g id="ytick_3">
     <g id="line2d_9">
      <g>
       <use style="stroke:#000000;stroke-width:0.8;" x="44.48" xlink:href="#md82eed4b46" y="207.54927"/>
      </g>
     </g>
     <g id="text_10">
      <!-- 30 -->
      <g transform="translate(24.755 211.348489)scale(0.1 -0.1)">
       <use xlink:href="#DejaVuSans-33"/>
       <use x="63.623047" xlink:href="#DejaVuSans-30"/>
      </g>
     </g>
    </g>
    <g id="ytick_4">
     <g id="line2d_10">
      <g>
       <use style="stroke:#000000;stroke-width:0.8;" x="44.48" xlink:href="#md82eed4b46" y="170.698245"/>
      </g>
     </g>
     <g id="text_11">
      <!-- 35 -->
      <g transform="translate(24.755 174.497464)scale(0.1 -0.1)">
       <use xlink:href="#DejaVuSans-33"/>
       <use x="63.623047" xlink:href="#DejaVuSans-35"/>
      </g>
     </g>
    </g>
    <g id="ytick_5">
     <g id="line2d_11">
      <g>
       <use style="stroke:#000000;stroke-width:0.8;" x="44.48" xlink:href="#md82eed4b46" y="133.84722"/>
      </g>
     </g>
     <g id="text_12">
      <!-- 40 -->
      <g transform="translate(24.755 137.646439)scale(0.1 -0.1)">
       <use xlink:href="#DejaVuSans-34"/>
       <use x="63.623047" xlink:href="#DejaVuSans-30"/>
      </g>
     </g>
    </g>
    <g id="ytick_6">
     <g id="line2d_12">
      <g>
       <use style="stroke:#000000;stroke-width:0.8;" x="44.48" xlink:href="#md82eed4b46" y="96.996195"/>
      </g>
     </g>
     <g id="text_13">
      <!-- 45 -->
      <g transform="translate(24.755 100.795414)scale(0.1 -0.1)">
       <use xlink:href="#DejaVuSans-34"/>
       <use x="63.623047" xlink:href="#DejaVuSans-35"/>
      </g>
     </g>
    </g>
    <g id="ytick_7">
     <g id="line2d_13">
      <g>
       <use style="stroke:#000000;stroke-width:0.8;" x="44.48" xlink:href="#md82eed4b46" y="60.14517"/>
      </g>
     </g>
     <g id="text_14">
      <!-- 50 -->
      <g transform="translate(24.755 63.944389)scale(0.1 -0.1)">
       <use xlink:href="#DejaVuSans-35"/>
       <use x="63.623047" xlink:href="#DejaVuSans-30"/>
      </g>
     </g>
    </g>
    <g id="text_15">
     <!-- Test Accuracy -->
     <g transform="translate(18.675313 202.520914)rotate(-90)scale(0.1 -0.1)">
      <defs>
       <path d="M -19 4666 
L 3928 4666 
L 3928 4134 
L 2272 4134 
L 2272 0 
L 1638 0 
L 1638 4134 
L -19 4134 
L -19 4666 
z
" id="DejaVuSans-54" transform="scale(0.015625)"/>
       <path d="M 3597 1894 
L 3597 1613 
L 953 1613 
Q 991 1019 1311 708 
Q 1631 397 2203 397 
Q 2534 397 2845 478 
Q 3156 559 3463 722 
L 3463 178 
Q 3153 47 2828 -22 
Q 2503 -91 2169 -91 
Q 1331 -91 842 396 
Q 353 884 353 1716 
Q 353 2575 817 3079 
Q 1281 3584 2069 3584 
Q 2775 3584 3186 3129 
Q 3597 2675 3597 1894 
z
M 3022 2063 
Q 3016 2534 2758 2815 
Q 2500 3097 2075 3097 
Q 1594 3097 1305 2825 
Q 1016 2553 972 2059 
L 3022 2063 
z
" id="DejaVuSans-65" transform="scale(0.015625)"/>
       <path d="M 2188 4044 
L 1331 1722 
L 3047 1722 
L 2188 4044 
z
M 1831 4666 
L 2547 4666 
L 4325 0 
L 3669 0 
L 3244 1197 
L 1141 1197 
L 716 0 
L 50 0 
L 1831 4666 
z
" id="DejaVuSans-41" transform="scale(0.015625)"/>
       <path d="M 2631 2963 
Q 2534 3019 2420 3045 
Q 2306 3072 2169 3072 
Q 1681 3072 1420 2755 
Q 1159 2438 1159 1844 
L 1159 0 
L 581 0 
L 581 3500 
L 1159 3500 
L 1159 2956 
Q 1341 3275 1631 3429 
Q 1922 3584 2338 3584 
Q 2397 3584 2469 3576 
Q 2541 3569 2628 3553 
L 2631 2963 
z
" id="DejaVuSans-72" transform="scale(0.015625)"/>
       <path d="M 2059 -325 
Q 1816 -950 1584 -1140 
Q 1353 -1331 966 -1331 
L 506 -1331 
L 506 -850 
L 844 -850 
Q 1081 -850 1212 -737 
Q 1344 -625 1503 -206 
L 1606 56 
L 191 3500 
L 800 3500 
L 1894 763 
L 2988 3500 
L 3597 3500 
L 2059 -325 
z
" id="DejaVuSans-79" transform="scale(0.015625)"/>
      </defs>
      <use xlink:href="#DejaVuSans-54"/>
      <use x="44.083984" xlink:href="#DejaVuSans-65"/>
      <use x="105.607422" xlink:href="#DejaVuSans-73"/>
      <use x="157.707031" xlink:href="#DejaVuSans-74"/>
      <use x="196.916016" xlink:href="#DejaVuSans-20"/>
      <use x="228.703125" xlink:href="#DejaVuSans-41"/>
      <use x="295.361328" xlink:href="#DejaVuSans-63"/>
      <use x="350.341797" xlink:href="#DejaVuSans-63"/>
      <use x="405.322266" xlink:href="#DejaVuSans-75"/>
      <use x="468.701172" xlink:href="#DejaVuSans-72"/>
      <use x="509.814453" xlink:href="#DejaVuSans-61"/>
      <use x="571.09375" xlink:href="#DejaVuSans-63"/>
      <use x="626.074219" xlink:href="#DejaVuSans-79"/>
     </g>
    </g>
   </g>
   <g id="line2d_14">
    <path clip-path="url(#pf04547e302)" d="M 62.912727 267.603795 
L 70.436289 191.545604 
L 77.959852 136.384986 
L 85.483414 114.899802 
L 93.006976 103.176079 
L 100.530538 96.153241 
L 108.0541 91.851218 
L 115.577662 87.445919 
L 123.101224 85.027812 
L 130.624787 81.316961 
L 138.148349 79.810541 
L 145.671911 78.296998 
L 153.195473 76.705108 
L 160.719035 73.040554 
L 168.242597 74.076885 
L 175.76616 71.601798 
L 183.289722 70.718601 
L 190.813284 69.144517 
L 198.336846 69.664463 
L 205.860408 70.216461 
L 213.38397 67.958612 
L 220.907532 66.498488 
L 228.431095 66.836809 
L 235.954657 65.647343 
L 243.478219 64.749901 
L 251.001781 65.383808 
L 258.525343 63.257726 
L 266.048905 63.745621 
L 273.572468 61.502016 
L 281.09603 61.95786 
L 288.619592 62.983508 
L 296.143154 61.626661 
L 303.666716 61.480649 
L 311.190278 60.294744 
L 318.71384 60.586768 
L 326.237403 60.764832 
L 333.760965 62.748463 
L 341.284527 61.281217 
L 348.808089 60.668678 
L 356.331651 60.672239 
L 363.855213 62.545471 
L 371.378776 60.323234 
L 378.902338 61.277656 
L 386.4259 59.165819 
L 393.949462 59.404424 
L 401.473024 59.098155 
L 408.996586 58.63875 
L 416.520148 57.652276 
L 424.043711 58.407267 
L 431.567273 57.538315 
" style="fill:none;stroke:#1f77b4;stroke-linecap:square;stroke-width:1.5;"/>
   </g>
   <g id="line2d_15">
    <path clip-path="url(#pf04547e302)" d="M 62.912727 290.62745 
L 70.436289 263.469153 
L 77.959852 198.500778 
L 85.483414 173.85318 
L 93.006976 158.375871 
L 100.530538 150.412856 
L 108.0541 145.790318 
L 115.577662 138.372179 
L 123.101224 129.853604 
L 130.624787 127.624245 
L 138.148349 126.107141 
L 145.671911 124.365676 
L 153.195473 116.726738 
L 160.719035 112.531553 
L 168.242597 110.56929 
L 175.76616 111.456048 
L 183.289722 108.642639 
L 190.813284 104.618396 
L 198.336846 103.774373 
L 205.860408 103.646167 
L 213.38397 103.211692 
L 220.907532 101.36695 
L 228.431095 97.456668 
L 235.954657 96.203099 
L 243.478219 95.971616 
L 251.001781 97.004386 
L 258.525343 94.661066 
L 266.048905 94.753659 
L 273.572468 94.112629 
L 281.09603 93.859778 
L 288.619592 93.802798 
L 296.143154 92.816324 
L 303.666716 91.577 
L 311.190278 89.9032 
L 318.71384 90.134683 
L 326.237403 90.661752 
L 333.760965 90.732977 
L 341.284527 90.280695 
L 348.808089 87.958743 
L 356.331651 86.744347 
L 363.855213 87.848343 
L 371.378776 84.123247 
L 378.902338 85.736506 
L 386.4259 85.704454 
L 393.949462 86.302749 
L 401.473024 86.420271 
L 408.996586 85.661719 
L 416.520148 84.26926 
L 424.043711 83.46085 
L 431.567273 83.546321 
" style="fill:none;stroke:#ff7f0e;stroke-linecap:square;stroke-width:1.5;"/>
   </g>
   <g id="line2d_16">
    <path clip-path="url(#pf04547e302)" d="M 62.912727 251.172063 
L 70.436289 182.984294 
L 77.959852 143.073064 
L 85.483414 127.125666 
L 93.006976 120.729613 
L 100.530538 104.953156 
L 108.0541 96.092699 
L 115.577662 89.9032 
L 123.101224 86.904605 
L 130.624787 81.512831 
L 138.148349 78.667371 
L 145.671911 75.522764 
L 153.195473 72.296247 
L 160.719035 69.450787 
L 168.242597 68.79195 
L 175.76616 67.769864 
L 183.289722 66.640939 
L 190.813284 68.357475 
L 198.336846 64.678675 
L 205.860408 63.225674 
L 213.38397 61.245605 
L 220.907532 61.160134 
L 228.431095 59.621662 
L 235.954657 59.543314 
L 243.478219 61.398739 
L 251.001781 58.734904 
L 258.525343 58.339603 
L 266.048905 60.113118 
L 273.572468 58.467809 
L 281.09603 57.150136 
L 288.619592 57.680766 
L 296.143154 58.190029 
L 303.666716 56.284746 
L 311.190278 56.366655 
L 318.71384 57.246291 
L 326.237403 57.570367 
L 333.760965 56.480616 
L 341.284527 54.8175 
L 348.808089 54.635875 
L 356.331651 53.834587 
L 363.855213 52.036142 
L 371.378776 53.0333 
L 378.902338 53.428602 
L 386.4259 52.965636 
L 393.949462 53.457092 
L 401.473024 51.423603 
L 408.996586 51.2491 
L 416.520148 50.5226 
L 424.043711 53.154383 
L 431.567273 52.69854 
" style="fill:none;stroke:#2ca02c;stroke-linecap:square;stroke-width:1.5;"/>
   </g>
   <g id="line2d_17">
    <path clip-path="url(#pf04547e302)" d="M 62.912727 242.496793 
L 70.436289 194.163143 
L 77.959852 131.73752 
L 85.483414 126.463269 
L 93.006976 111.666163 
L 100.530538 94.83913 
L 108.0541 92.819886 
L 115.577662 93.507212 
L 123.101224 88.468005 
L 130.624787 83.514269 
L 138.148349 82.246454 
L 145.671911 79.230053 
L 153.195473 75.423048 
L 160.719035 72.207215 
L 168.242597 72.189408 
L 175.76616 68.492803 
L 183.289722 67.018434 
L 190.813284 63.738498 
L 198.336846 63.916562 
L 205.860408 62.630941 
L 213.38397 62.687922 
L 220.907532 61.84746 
L 228.431095 61.377372 
L 235.954657 58.19359 
L 243.478219 57.716379 
L 251.001781 56.900847 
L 258.525343 55.974915 
L 266.048905 54.525475 
L 273.572468 54.732029 
L 281.09603 53.667207 
L 288.619592 54.144418 
L 296.143154 52.876604 
L 303.666716 53.549685 
L 311.190278 51.72275 
L 318.71384 50.625877 
L 326.237403 50.77545 
L 333.760965 50.761205 
L 341.284527 49.699945 
L 348.808089 49.632281 
L 356.331651 49.717751 
L 363.855213 49.425726 
L 371.378776 49.144386 
L 378.902338 48.12586 
L 386.4259 47.645088 
L 393.949462 47.495514 
L 401.473024 47.139387 
L 408.996586 46.473428 
L 416.520148 46.270435 
L 424.043711 45.903624 
L 431.567273 45.583109 
" style="fill:none;stroke:#d62728;stroke-linecap:square;stroke-width:1.5;"/>
   </g>
   <g id="patch_3">
    <path d="M 44.48 303.64 
L 44.48 32.876829 
" style="fill:none;stroke:#000000;stroke-linecap:square;stroke-linejoin:miter;stroke-width:0.8;"/>
   </g>
   <g id="patch_4">
    <path d="M 450 303.64 
L 450 32.876829 
" style="fill:none;stroke:#000000;stroke-linecap:square;stroke-linejoin:miter;stroke-width:0.8;"/>
   </g>
   <g id="patch_5">
    <path d="M 44.48 303.64 
L 450 303.64 
" style="fill:none;stroke:#000000;stroke-linecap:square;stroke-linejoin:miter;stroke-width:0.8;"/>
   </g>
   <g id="patch_6">
    <path d="M 44.48 32.876829 
L 450 32.876829 
" style="fill:none;stroke:#000000;stroke-linecap:square;stroke-linejoin:miter;stroke-width:0.8;"/>
   </g>
   <g id="legend_1">
    <g id="patch_7">
     <path d="M 80.841563 28.478637 
L 413.638438 28.478637 
Q 415.638438 28.478637 415.638438 26.478637 
L 415.638438 12.800512 
Q 415.638438 10.800512 413.638438 10.800512 
L 80.841563 10.800512 
Q 78.841563 10.800512 78.841563 12.800512 
L 78.841563 26.478637 
Q 78.841563 28.478637 80.841563 28.478637 
z
" style="fill:#ffffff;opacity:0.8;stroke:#cccccc;stroke-linejoin:miter;"/>
    </g>
    <g id="line2d_18">
     <path d="M 82.841563 18.898949 
L 102.841563 18.898949 
" style="fill:none;stroke:#1f77b4;stroke-linecap:square;stroke-width:1.5;"/>
    </g>
    <g id="line2d_19"/>
    <g id="text_16">
     <!-- FedAvg -->
     <g transform="translate(110.841563 22.398949)scale(0.1 -0.1)">
      <defs>
       <path d="M 628 4666 
L 3309 4666 
L 3309 4134 
L 1259 4134 
L 1259 2759 
L 3109 2759 
L 3109 2228 
L 1259 2228 
L 1259 0 
L 628 0 
L 628 4666 
z
" id="DejaVuSans-46" transform="scale(0.015625)"/>
       <path d="M 191 3500 
L 800 3500 
L 1894 563 
L 2988 3500 
L 3597 3500 
L 2284 0 
L 1503 0 
L 191 3500 
z
" id="DejaVuSans-76" transform="scale(0.015625)"/>
       <path d="M 2906 1791 
Q 2906 2416 2648 2759 
Q 2391 3103 1925 3103 
Q 1463 3103 1205 2759 
Q 947 2416 947 1791 
Q 947 1169 1205 825 
Q 1463 481 1925 481 
Q 2391 481 2648 825 
Q 2906 1169 2906 1791 
z
M 3481 434 
Q 3481 -459 3084 -895 
Q 2688 -1331 1869 -1331 
Q 1566 -1331 1297 -1286 
Q 1028 -1241 775 -1147 
L 775 -588 
Q 1028 -725 1275 -790 
Q 1522 -856 1778 -856 
Q 2344 -856 2625 -561 
Q 2906 -266 2906 331 
L 2906 616 
Q 2728 306 2450 153 
Q 2172 0 1784 0 
Q 1141 0 747 490 
Q 353 981 353 1791 
Q 353 2603 747 3093 
Q 1141 3584 1784 3584 
Q 2172 3584 2450 3431 
Q 2728 3278 2906 2969 
L 2906 3500 
L 3481 3500 
L 3481 434 
z
" id="DejaVuSans-67" transform="scale(0.015625)"/>
      </defs>
      <use xlink:href="#DejaVuSans-46"/>
      <use x="52.019531" xlink:href="#DejaVuSans-65"/>
      <use x="113.542969" xlink:href="#DejaVuSans-64"/>
      <use x="177.019531" xlink:href="#DejaVuSans-41"/>
      <use x="239.552734" xlink:href="#DejaVuSans-76"/>
      <use x="298.732422" xlink:href="#DejaVuSans-67"/>
     </g>
    </g>
    <g id="line2d_20">
     <path d="M 167.065 18.898949 
L 187.065 18.898949 
" style="fill:none;stroke:#ff7f0e;stroke-linecap:square;stroke-width:1.5;"/>
    </g>
    <g id="line2d_21"/>
    <g id="text_17">
     <!-- FedMed -->
     <g transform="translate(195.065 22.398949)scale(0.1 -0.1)">
      <defs>
       <path d="M 628 4666 
L 1569 4666 
L 2759 1491 
L 3956 4666 
L 4897 4666 
L 4897 0 
L 4281 0 
L 4281 4097 
L 3078 897 
L 2444 897 
L 1241 4097 
L 1241 0 
L 628 0 
L 628 4666 
z
" id="DejaVuSans-4d" transform="scale(0.015625)"/>
      </defs>
      <use xlink:href="#DejaVuSans-46"/>
      <use x="52.019531" xlink:href="#DejaVuSans-65"/>
      <use x="113.542969" xlink:href="#DejaVuSans-64"/>
      <use x="177.019531" xlink:href="#DejaVuSans-4d"/>
      <use x="263.298828" xlink:href="#DejaVuSans-65"/>
      <use x="324.822266" xlink:href="#DejaVuSans-64"/>
     </g>
    </g>
    <g id="line2d_22">
     <path d="M 253.897813 18.898949 
L 273.897812 18.898949 
" style="fill:none;stroke:#2ca02c;stroke-linecap:square;stroke-width:1.5;"/>
    </g>
    <g id="line2d_23"/>
    <g id="text_18">
     <!-- FedProx -->
     <g transform="translate(281.897812 22.398949)scale(0.1 -0.1)">
      <defs>
       <path d="M 1259 4147 
L 1259 2394 
L 2053 2394 
Q 2494 2394 2734 2622 
Q 2975 2850 2975 3272 
Q 2975 3691 2734 3919 
Q 2494 4147 2053 4147 
L 1259 4147 
z
M 628 4666 
L 2053 4666 
Q 2838 4666 3239 4311 
Q 3641 3956 3641 3272 
Q 3641 2581 3239 2228 
Q 2838 1875 2053 1875 
L 1259 1875 
L 1259 0 
L 628 0 
L 628 4666 
z
" id="DejaVuSans-50" transform="scale(0.015625)"/>
       <path d="M 3513 3500 
L 2247 1797 
L 3578 0 
L 2900 0 
L 1881 1375 
L 863 0 
L 184 0 
L 1544 1831 
L 300 3500 
L 978 3500 
L 1906 2253 
L 2834 3500 
L 3513 3500 
z
" id="DejaVuSans-78" transform="scale(0.015625)"/>
      </defs>
      <use xlink:href="#DejaVuSans-46"/>
      <use x="52.019531" xlink:href="#DejaVuSans-65"/>
      <use x="113.542969" xlink:href="#DejaVuSans-64"/>
      <use x="177.019531" xlink:href="#DejaVuSans-50"/>
      <use x="235.572266" xlink:href="#DejaVuSans-72"/>
      <use x="274.435547" xlink:href="#DejaVuSans-6f"/>
      <use x="332.492188" xlink:href="#DejaVuSans-78"/>
     </g>
    </g>
    <g id="line2d_24">
     <path d="M 341.066563 18.898949 
L 361.066563 18.898949 
" style="fill:none;stroke:#d62728;stroke-linecap:square;stroke-width:1.5;"/>
    </g>
    <g id="line2d_25"/>
    <g id="text_19">
     <!-- qFedAvg -->
     <g transform="translate(369.066563 22.398949)scale(0.1 -0.1)">
      <defs>
       <path d="M 947 1747 
Q 947 1113 1208 752 
Q 1469 391 1925 391 
Q 2381 391 2643 752 
Q 2906 1113 2906 1747 
Q 2906 2381 2643 2742 
Q 2381 3103 1925 3103 
Q 1469 3103 1208 2742 
Q 947 2381 947 1747 
z
M 2906 525 
Q 2725 213 2448 61 
Q 2172 -91 1784 -91 
Q 1150 -91 751 415 
Q 353 922 353 1747 
Q 353 2572 751 3078 
Q 1150 3584 1784 3584 
Q 2172 3584 2448 3432 
Q 2725 3281 2906 2969 
L 2906 3500 
L 3481 3500 
L 3481 -1331 
L 2906 -1331 
L 2906 525 
z
" id="DejaVuSans-71" transform="scale(0.015625)"/>
      </defs>
      <use xlink:href="#DejaVuSans-71"/>
      <use x="63.476562" xlink:href="#DejaVuSans-46"/>
      <use x="115.496094" xlink:href="#DejaVuSans-65"/>
      <use x="177.019531" xlink:href="#DejaVuSans-64"/>
      <use x="240.496094" xlink:href="#DejaVuSans-41"/>
      <use x="303.029297" xlink:href="#DejaVuSans-76"/>
      <use x="362.208984" xlink:href="#DejaVuSans-67"/>
     </g>
    </g>
   </g>
  </g>
 </g>
 <defs>
  <clipPath id="pf04547e302">
   <rect height="270.763171" width="405.52" x="44.48" y="32.876829"/>
  </clipPath>
 </defs>
</svg>
