<?xml version="1.0" encoding="utf-8" standalone="no"?>
<!DOCTYPE svg PUBLIC "-//W3C//DTD SVG 1.1//EN"
  "http://www.w3.org/Graphics/SVG/1.1/DTD/svg11.dtd">
<svg height="432pt" version="1.1" viewBox="0 0 576 432" width="576pt" xmlns="http://www.w3.org/2000/svg" xmlns:xlink="http://www.w3.org/1999/xlink">
 <metadata>
  <rdf:RDF xmlns:cc="http://creativecommons.org/ns#" xmlns:dc="http://purl.org/dc/elements/1.1/" xmlns:rdf="http://www.w3.org/1999/02/22-rdf-syntax-ns#">
   <cc:Work>
    <dc:type rdf:resource="http://purl.org/dc/dcmitype/StillImage"/>
    <dc:date>2021-05-07T22:04:47.334824</dc:date>
    <dc:format>image/svg+xml</dc:format>
    <dc:creator>
     <cc:Agent>
      <dc:title>Matplotlib v3.4.1, https://matplotlib.org/</dc:title>
     </cc:Agent>
    </dc:creator>
   </cc:Work>
  </rdf:RDF>
 </metadata>
 <defs>
  <style type="text/css">*{stroke-linecap:butt;stroke-linejoin:round;}</style>
 </defs>
 <g id="figure_1">
  <g id="patch_1">
   <path d="M 0 432 
L 576 432 
L 576 0 
L 0 0 
z
" style="fill:#ffffff;"/>
  </g>
  <g id="axes_1">
   <g id="patch_2">
    <path d="M 60.68 376 
L 556.55 376 
L 556.55 56.601989 
L 60.68 56.601989 
z
" style="fill:#ffffff;"/>
   </g>
   <g id="PolyCollection_1">
    <path clip-path="url(#pb7e8c86091)" d="M 83.219545 361.450136 
L 83.219545 361.481909 
L 92.41936 360.060085 
L 101.619174 285.807524 
L 110.818989 239.935835 
L 120.018803 222.16701 
L 129.218618 204.898603 
L 138.418432 196.621841 
L 147.618247 192.93622 
L 156.818061 186.422838 
L 166.017876 179.496411 
L 175.21769 179.067481 
L 184.417505 172.021908 
L 193.617319 168.773159 
L 202.817134 162.228004 
L 212.016948 160.059524 
L 221.216763 154.634353 
L 230.416577 153.649403 
L 239.616391 149.233012 
L 248.816206 147.175736 
L 258.01602 144.530667 
L 267.215835 142.783174 
L 276.415649 142.632255 
L 285.615464 138.255579 
L 294.815278 135.705828 
L 304.015093 133.148134 
L 313.214907 132.036093 
L 322.414722 128.42196 
L 331.614536 126.698297 
L 340.814351 126.70624 
L 350.014165 125.062008 
L 359.21398 122.146872 
L 368.413794 122.766438 
L 377.613609 120.09754 
L 386.813423 118.91401 
L 396.013237 118.778977 
L 405.213052 116.141851 
L 414.412866 117.468357 
L 423.612681 114.688255 
L 432.812495 114.60088 
L 442.01231 113.5921 
L 451.212124 111.646028 
L 460.411939 110.367181 
L 469.611753 108.993017 
L 478.811568 108.214588 
L 488.011382 108.651461 
L 497.211197 107.523534 
L 506.411011 105.855473 
L 515.610826 105.831643 
L 524.81064 105.227964 
L 534.010455 105.625121 
L 534.010455 98.88933 
L 534.010455 98.88933 
L 524.81064 101.820353 
L 515.610826 101.621774 
L 506.411011 102.408146 
L 497.211197 103.869685 
L 488.011382 105.561576 
L 478.811568 105.8237 
L 469.611753 105.966677 
L 460.411939 109.977967 
L 451.212124 109.318686 
L 442.01231 110.16066 
L 432.812495 111.383905 
L 423.612681 114.545278 
L 414.412866 112.916932 
L 405.213052 113.584157 
L 396.013237 113.647702 
L 386.813423 116.602554 
L 377.613609 118.318274 
L 368.413794 119.350883 
L 359.21398 120.454981 
L 350.014165 119.414429 
L 340.814351 120.883911 
L 331.614536 121.956236 
L 322.414722 124.81577 
L 313.214907 126.507661 
L 304.015093 127.389351 
L 294.815278 128.14395 
L 285.615464 130.900223 
L 276.415649 132.147297 
L 267.215835 132.059923 
L 258.01602 138.263522 
L 248.816206 139.470881 
L 239.616391 141.853826 
L 230.416577 144.84045 
L 221.216763 147.223395 
L 212.016948 151.687445 
L 202.817134 155.182431 
L 193.617319 158.25643 
L 184.417505 162.903172 
L 175.21769 167.804095 
L 166.017876 171.052843 
L 156.818061 180.671997 
L 147.618247 184.58797 
L 138.418432 190.585048 
L 129.218618 203.047849 
L 120.018803 209.410312 
L 110.818989 227.552465 
L 101.619174 243.303731 
L 92.41936 293.655355 
L 83.219545 361.450136 
z
" style="fill:#1f77b4;fill-opacity:0.5;"/>
   </g>
   <g id="PolyCollection_2">
    <path clip-path="url(#pb7e8c86091)" d="M 83.219545 361.481909 
L 83.219545 361.481909 
L 92.41936 361.481909 
L 101.619174 334.848528 
L 110.818989 321.448435 
L 120.018803 300.994825 
L 129.218618 313.529115 
L 138.418432 286.697156 
L 147.618247 272.034102 
L 156.818061 268.586776 
L 166.017876 258.244795 
L 175.21769 259.658676 
L 184.417505 249.769455 
L 193.617319 243.168697 
L 202.817134 233.279476 
L 212.016948 232.318355 
L 221.216763 225.717598 
L 230.416577 220.316256 
L 239.616391 214.485985 
L 248.816206 214.684563 
L 258.01602 211.554962 
L 267.215835 207.551615 
L 276.415649 211.912404 
L 285.615464 200.776109 
L 294.815278 199.076275 
L 304.015093 201.030289 
L 313.214907 198.146926 
L 322.414722 193.293662 
L 331.614536 190.934546 
L 340.814351 191.697089 
L 350.014165 190.783627 
L 359.21398 189.671586 
L 368.413794 192.054531 
L 377.613609 190.497673 
L 386.813423 185.286967 
L 396.013237 184.71506 
L 405.213052 180.862633 
L 414.412866 180.894406 
L 423.612681 181.029439 
L 432.812495 178.38437 
L 442.01231 176.462128 
L 451.212124 179.019822 
L 460.411939 175.921994 
L 469.611753 173.928263 
L 478.811568 173.229266 
L 488.011382 173.372243 
L 497.211197 169.654849 
L 506.411011 168.87642 
L 515.610826 169.583361 
L 524.81064 168.256855 
L 534.010455 165.667388 
L 534.010455 160.297819 
L 534.010455 160.297819 
L 524.81064 162.942888 
L 515.610826 163.324159 
L 506.411011 164.221735 
L 497.211197 163.2765 
L 488.011382 167.851754 
L 478.811568 167.001837 
L 469.611753 167.343393 
L 460.411939 168.407775 
L 451.212124 169.821655 
L 442.01231 170.401505 
L 432.812495 171.807443 
L 423.612681 173.276925 
L 414.412866 173.817059 
L 405.213052 174.905271 
L 396.013237 174.571659 
L 386.813423 179.210458 
L 377.613609 174.825839 
L 368.413794 179.091311 
L 359.21398 183.4521 
L 350.014165 189.488893 
L 340.814351 189.075849 
L 331.614536 186.939142 
L 322.414722 187.248925 
L 313.214907 191.665316 
L 304.015093 192.173678 
L 294.815278 197.948347 
L 285.615464 199.060388 
L 276.415649 201.141493 
L 267.215835 203.460893 
L 258.01602 207.599274 
L 248.816206 208.77486 
L 239.616391 213.715499 
L 230.416577 218.846774 
L 221.216763 224.168684 
L 212.016948 229.951297 
L 202.817134 230.030728 
L 193.617319 239.109748 
L 184.417505 247.624804 
L 175.21769 252.343035 
L 166.017876 251.794958 
L 156.818061 261.493543 
L 147.618247 268.594719 
L 138.418432 270.175405 
L 129.218618 284.425416 
L 120.018803 281.438791 
L 110.818989 295.061293 
L 101.619174 334.04627 
L 92.41936 361.481909 
L 83.219545 361.481909 
z
" style="fill:#ff7f0e;fill-opacity:0.5;"/>
   </g>
   <g id="PolyCollection_3">
    <path clip-path="url(#pb7e8c86091)" d="M 83.219545 356.271203 
L 83.219545 361.481909 
L 92.41936 361.481909 
L 101.619174 323.481882 
L 110.818989 281.041634 
L 120.018803 248.736845 
L 129.218618 240.166187 
L 138.418432 222.03992 
L 147.618247 206.542835 
L 156.818061 197.416156 
L 166.017876 191.149011 
L 175.21769 184.468823 
L 184.417505 184.143154 
L 193.617319 177.693316 
L 202.817134 171.243479 
L 212.016948 166.286954 
L 221.216763 161.775245 
L 230.416577 158.375577 
L 239.616391 155.698735 
L 248.816206 154.975909 
L 258.01602 151.727161 
L 267.215835 148.851741 
L 276.415649 146.262274 
L 285.615464 143.609262 
L 294.815278 142.957924 
L 304.015093 141.901485 
L 313.214907 140.026902 
L 322.414722 136.428655 
L 331.614536 135.602567 
L 340.814351 134.419038 
L 350.014165 131.916946 
L 359.21398 130.264771 
L 368.413794 129.502228 
L 377.613609 128.970037 
L 386.813423 127.826224 
L 396.013237 126.563263 
L 405.213052 124.307409 
L 414.412866 123.393947 
L 423.612681 122.361337 
L 432.812495 119.891018 
L 442.01231 119.692439 
L 451.212124 120.041937 
L 460.411939 118.310331 
L 469.611753 115.816182 
L 478.811568 115.625546 
L 488.011382 113.091682 
L 497.211197 112.718354 
L 506.411011 109.239254 
L 515.610826 108.381394 
L 524.81064 108.262247 
L 534.010455 106.204971 
L 534.010455 102.79736 
L 534.010455 102.79736 
L 524.81064 104.274786 
L 515.610826 103.694936 
L 506.411011 105.053214 
L 497.211197 104.767261 
L 488.011382 107.285239 
L 478.811568 105.887245 
L 469.611753 107.706226 
L 460.411939 110.033569 
L 451.212124 110.343352 
L 442.01231 111.336246 
L 432.812495 111.892266 
L 423.612681 112.090845 
L 414.412866 114.704141 
L 405.213052 114.759743 
L 396.013237 117.158574 
L 386.813423 118.755147 
L 377.613609 121.026888 
L 368.413794 121.574965 
L 359.21398 121.956236 
L 350.014165 124.077057 
L 340.814351 125.745119 
L 331.614536 127.43701 
L 322.414722 130.542781 
L 313.214907 132.568284 
L 304.015093 135.253069 
L 294.815278 137.80282 
L 285.615464 137.405662 
L 276.415649 139.597971 
L 267.215835 142.759345 
L 258.01602 145.87306 
L 248.816206 148.899399 
L 239.616391 154.3484 
L 230.416577 158.248486 
L 221.216763 160.798237 
L 212.016948 161.942051 
L 202.817134 167.168643 
L 193.617319 172.649416 
L 184.417505 175.365973 
L 175.21769 175.23094 
L 166.017876 181.83964 
L 156.818061 190.251436 
L 147.618247 192.825016 
L 138.418432 195.83547 
L 129.218618 210.06165 
L 120.018803 215.38356 
L 110.818989 225.789086 
L 101.619174 236.297873 
L 92.41936 305.482705 
L 83.219545 356.271203 
z
" style="fill:#2ca02c;fill-opacity:0.5;"/>
   </g>
   <g id="PolyCollection_4">
    <path clip-path="url(#pb7e8c86091)" d="M 83.219545 291.701341 
L 83.219545 322.647851 
L 92.41936 220.419517 
L 101.619174 193.651104 
L 110.818989 175.548666 
L 120.018803 160.917385 
L 129.218618 152.235522 
L 138.418432 147.652325 
L 147.618247 140.273139 
L 156.818061 134.482583 
L 166.017876 130.232998 
L 175.21769 126.777728 
L 184.417505 122.401053 
L 193.617319 117.619277 
L 202.817134 113.226715 
L 212.016948 111.177383 
L 221.216763 108.135156 
L 230.416577 104.528967 
L 239.616391 103.178631 
L 248.816206 101.192844 
L 258.01602 99.397692 
L 267.215835 97.284814 
L 276.415649 95.163993 
L 285.615464 93.424444 
L 294.815278 91.740496 
L 304.015093 90.310729 
L 313.214907 89.079541 
L 322.414722 88.491748 
L 331.614536 87.332048 
L 340.814351 86.029371 
L 350.014165 83.177781 
L 359.21398 82.748851 
L 368.413794 81.898934 
L 377.613609 80.763063 
L 386.813423 81.120505 
L 396.013237 79.833715 
L 405.213052 80.786893 
L 414.412866 78.18154 
L 423.612681 77.069499 
L 432.812495 77.951188 
L 442.01231 77.617576 
L 451.212124 75.822424 
L 460.411939 74.885133 
L 469.611753 74.44826 
L 478.811568 74.495918 
L 488.011382 73.725433 
L 497.211197 73.225015 
L 506.411011 72.907289 
L 515.610826 72.375098 
L 524.81064 72.637221 
L 534.010455 71.596669 
L 534.010455 71.12008 
L 534.010455 71.12008 
L 524.81064 71.620498 
L 515.610826 71.445749 
L 506.411011 72.597506 
L 497.211197 73.034379 
L 488.011382 73.304446 
L 478.811568 73.193242 
L 469.611753 74.194079 
L 460.411939 74.615066 
L 451.212124 74.948678 
L 442.01231 75.30612 
L 432.812495 75.981287 
L 423.612681 76.322843 
L 414.412866 77.307793 
L 405.213052 78.189483 
L 396.013237 77.339566 
L 386.813423 79.095002 
L 377.613609 79.373012 
L 368.413794 80.040237 
L 359.21398 81.63681 
L 350.014165 82.844169 
L 340.814351 83.344587 
L 331.614536 84.877615 
L 322.414722 85.115909 
L 313.214907 87.586229 
L 304.015093 87.935727 
L 294.815278 89.714993 
L 285.615464 92.884309 
L 276.415649 93.082888 
L 267.215835 95.561151 
L 258.01602 96.31575 
L 248.816206 99.810736 
L 239.616391 100.414415 
L 230.416577 103.321608 
L 221.216763 106.181142 
L 212.016948 108.174872 
L 202.817134 112.710411 
L 193.617319 113.194943 
L 184.417505 118.072036 
L 175.21769 121.439932 
L 166.017876 126.730069 
L 156.818061 130.947882 
L 147.618247 137.524809 
L 138.418432 143.569546 
L 129.218618 149.487193 
L 120.018803 160.091297 
L 110.818989 173.475504 
L 101.619174 193.38898 
L 92.41936 216.019012 
L 83.219545 291.701341 
z
" style="fill:#d62728;fill-opacity:0.5;"/>
   </g>
   <g id="matplotlib.axis_1">
    <g id="xtick_1">
     <g id="line2d_1">
      <defs>
       <path d="M 0 0 
L 0 3.5 
" id="me3630f5d71" style="stroke:#000000;stroke-width:0.8;"/>
      </defs>
      <g>
       <use style="stroke:#000000;stroke-width:0.8;" x="83.219545" xlink:href="#me3630f5d71" y="376"/>
      </g>
     </g>
     <g id="text_1">
      <!-- 0 -->
      <g transform="translate(78.44767 394.397656)scale(0.15 -0.15)">
       <defs>
        <path d="M 2034 4250 
Q 1547 4250 1301 3770 
Q 1056 3291 1056 2328 
Q 1056 1369 1301 889 
Q 1547 409 2034 409 
Q 2525 409 2770 889 
Q 3016 1369 3016 2328 
Q 3016 3291 2770 3770 
Q 2525 4250 2034 4250 
z
M 2034 4750 
Q 2819 4750 3233 4129 
Q 3647 3509 3647 2328 
Q 3647 1150 3233 529 
Q 2819 -91 2034 -91 
Q 1250 -91 836 529 
Q 422 1150 422 2328 
Q 422 3509 836 4129 
Q 1250 4750 2034 4750 
z
" id="DejaVuSans-30" transform="scale(0.015625)"/>
       </defs>
       <use xlink:href="#DejaVuSans-30"/>
      </g>
     </g>
    </g>
    <g id="xtick_2">
     <g id="line2d_2">
      <g>
       <use style="stroke:#000000;stroke-width:0.8;" x="175.21769" xlink:href="#me3630f5d71" y="376"/>
      </g>
     </g>
     <g id="text_2">
      <!-- 10 -->
      <g transform="translate(165.67394 394.397656)scale(0.15 -0.15)">
       <defs>
        <path d="M 794 531 
L 1825 531 
L 1825 4091 
L 703 3866 
L 703 4441 
L 1819 4666 
L 2450 4666 
L 2450 531 
L 3481 531 
L 3481 0 
L 794 0 
L 794 531 
z
" id="DejaVuSans-31" transform="scale(0.015625)"/>
       </defs>
       <use xlink:href="#DejaVuSans-31"/>
       <use x="63.623047" xlink:href="#DejaVuSans-30"/>
      </g>
     </g>
    </g>
    <g id="xtick_3">
     <g id="line2d_3">
      <g>
       <use style="stroke:#000000;stroke-width:0.8;" x="267.215835" xlink:href="#me3630f5d71" y="376"/>
      </g>
     </g>
     <g id="text_3">
      <!-- 20 -->
      <g transform="translate(257.672085 394.397656)scale(0.15 -0.15)">
       <defs>
        <path d="M 1228 531 
L 3431 531 
L 3431 0 
L 469 0 
L 469 531 
Q 828 903 1448 1529 
Q 2069 2156 2228 2338 
Q 2531 2678 2651 2914 
Q 2772 3150 2772 3378 
Q 2772 3750 2511 3984 
Q 2250 4219 1831 4219 
Q 1534 4219 1204 4116 
Q 875 4013 500 3803 
L 500 4441 
Q 881 4594 1212 4672 
Q 1544 4750 1819 4750 
Q 2544 4750 2975 4387 
Q 3406 4025 3406 3419 
Q 3406 3131 3298 2873 
Q 3191 2616 2906 2266 
Q 2828 2175 2409 1742 
Q 1991 1309 1228 531 
z
" id="DejaVuSans-32" transform="scale(0.015625)"/>
       </defs>
       <use xlink:href="#DejaVuSans-32"/>
       <use x="63.623047" xlink:href="#DejaVuSans-30"/>
      </g>
     </g>
    </g>
    <g id="xtick_4">
     <g id="line2d_4">
      <g>
       <use style="stroke:#000000;stroke-width:0.8;" x="359.21398" xlink:href="#me3630f5d71" y="376"/>
      </g>
     </g>
     <g id="text_4">
      <!-- 30 -->
      <g transform="translate(349.67023 394.397656)scale(0.15 -0.15)">
       <defs>
        <path d="M 2597 2516 
Q 3050 2419 3304 2112 
Q 3559 1806 3559 1356 
Q 3559 666 3084 287 
Q 2609 -91 1734 -91 
Q 1441 -91 1130 -33 
Q 819 25 488 141 
L 488 750 
Q 750 597 1062 519 
Q 1375 441 1716 441 
Q 2309 441 2620 675 
Q 2931 909 2931 1356 
Q 2931 1769 2642 2001 
Q 2353 2234 1838 2234 
L 1294 2234 
L 1294 2753 
L 1863 2753 
Q 2328 2753 2575 2939 
Q 2822 3125 2822 3475 
Q 2822 3834 2567 4026 
Q 2313 4219 1838 4219 
Q 1578 4219 1281 4162 
Q 984 4106 628 3988 
L 628 4550 
Q 988 4650 1302 4700 
Q 1616 4750 1894 4750 
Q 2613 4750 3031 4423 
Q 3450 4097 3450 3541 
Q 3450 3153 3228 2886 
Q 3006 2619 2597 2516 
z
" id="DejaVuSans-33" transform="scale(0.015625)"/>
       </defs>
       <use xlink:href="#DejaVuSans-33"/>
       <use x="63.623047" xlink:href="#DejaVuSans-30"/>
      </g>
     </g>
    </g>
    <g id="xtick_5">
     <g id="line2d_5">
      <g>
       <use style="stroke:#000000;stroke-width:0.8;" x="451.212124" xlink:href="#me3630f5d71" y="376"/>
      </g>
     </g>
     <g id="text_5">
      <!-- 40 -->
      <g transform="translate(441.668374 394.397656)scale(0.15 -0.15)">
       <defs>
        <path d="M 2419 4116 
L 825 1625 
L 2419 1625 
L 2419 4116 
z
M 2253 4666 
L 3047 4666 
L 3047 1625 
L 3713 1625 
L 3713 1100 
L 3047 1100 
L 3047 0 
L 2419 0 
L 2419 1100 
L 313 1100 
L 313 1709 
L 2253 4666 
z
" id="DejaVuSans-34" transform="scale(0.015625)"/>
       </defs>
       <use xlink:href="#DejaVuSans-34"/>
       <use x="63.623047" xlink:href="#DejaVuSans-30"/>
      </g>
     </g>
    </g>
    <g id="xtick_6">
     <g id="line2d_6">
      <g>
       <use style="stroke:#000000;stroke-width:0.8;" x="543.210269" xlink:href="#me3630f5d71" y="376"/>
      </g>
     </g>
     <g id="text_6">
      <!-- 50 -->
      <g transform="translate(533.666519 394.397656)scale(0.15 -0.15)">
       <defs>
        <path d="M 691 4666 
L 3169 4666 
L 3169 4134 
L 1269 4134 
L 1269 2991 
Q 1406 3038 1543 3061 
Q 1681 3084 1819 3084 
Q 2600 3084 3056 2656 
Q 3513 2228 3513 1497 
Q 3513 744 3044 326 
Q 2575 -91 1722 -91 
Q 1428 -91 1123 -41 
Q 819 9 494 109 
L 494 744 
Q 775 591 1075 516 
Q 1375 441 1709 441 
Q 2250 441 2565 725 
Q 2881 1009 2881 1497 
Q 2881 1984 2565 2268 
Q 2250 2553 1709 2553 
Q 1456 2553 1204 2497 
Q 953 2441 691 2322 
L 691 4666 
z
" id="DejaVuSans-35" transform="scale(0.015625)"/>
       </defs>
       <use xlink:href="#DejaVuSans-35"/>
       <use x="63.623047" xlink:href="#DejaVuSans-30"/>
      </g>
     </g>
    </g>
    <g id="text_7">
     <!-- Global Communication Rounds -->
     <g transform="translate(193.172422 412.914844)scale(0.15 -0.15)">
      <defs>
       <path d="M 3809 666 
L 3809 1919 
L 2778 1919 
L 2778 2438 
L 4434 2438 
L 4434 434 
Q 4069 175 3628 42 
Q 3188 -91 2688 -91 
Q 1594 -91 976 548 
Q 359 1188 359 2328 
Q 359 3472 976 4111 
Q 1594 4750 2688 4750 
Q 3144 4750 3555 4637 
Q 3966 4525 4313 4306 
L 4313 3634 
Q 3963 3931 3569 4081 
Q 3175 4231 2741 4231 
Q 1884 4231 1454 3753 
Q 1025 3275 1025 2328 
Q 1025 1384 1454 906 
Q 1884 428 2741 428 
Q 3075 428 3337 486 
Q 3600 544 3809 666 
z
" id="DejaVuSans-47" transform="scale(0.015625)"/>
       <path d="M 603 4863 
L 1178 4863 
L 1178 0 
L 603 0 
L 603 4863 
z
" id="DejaVuSans-6c" transform="scale(0.015625)"/>
       <path d="M 1959 3097 
Q 1497 3097 1228 2736 
Q 959 2375 959 1747 
Q 959 1119 1226 758 
Q 1494 397 1959 397 
Q 2419 397 2687 759 
Q 2956 1122 2956 1747 
Q 2956 2369 2687 2733 
Q 2419 3097 1959 3097 
z
M 1959 3584 
Q 2709 3584 3137 3096 
Q 3566 2609 3566 1747 
Q 3566 888 3137 398 
Q 2709 -91 1959 -91 
Q 1206 -91 779 398 
Q 353 888 353 1747 
Q 353 2609 779 3096 
Q 1206 3584 1959 3584 
z
" id="DejaVuSans-6f" transform="scale(0.015625)"/>
       <path d="M 3116 1747 
Q 3116 2381 2855 2742 
Q 2594 3103 2138 3103 
Q 1681 3103 1420 2742 
Q 1159 2381 1159 1747 
Q 1159 1113 1420 752 
Q 1681 391 2138 391 
Q 2594 391 2855 752 
Q 3116 1113 3116 1747 
z
M 1159 2969 
Q 1341 3281 1617 3432 
Q 1894 3584 2278 3584 
Q 2916 3584 3314 3078 
Q 3713 2572 3713 1747 
Q 3713 922 3314 415 
Q 2916 -91 2278 -91 
Q 1894 -91 1617 61 
Q 1341 213 1159 525 
L 1159 0 
L 581 0 
L 581 4863 
L 1159 4863 
L 1159 2969 
z
" id="DejaVuSans-62" transform="scale(0.015625)"/>
       <path d="M 2194 1759 
Q 1497 1759 1228 1600 
Q 959 1441 959 1056 
Q 959 750 1161 570 
Q 1363 391 1709 391 
Q 2188 391 2477 730 
Q 2766 1069 2766 1631 
L 2766 1759 
L 2194 1759 
z
M 3341 1997 
L 3341 0 
L 2766 0 
L 2766 531 
Q 2569 213 2275 61 
Q 1981 -91 1556 -91 
Q 1019 -91 701 211 
Q 384 513 384 1019 
Q 384 1609 779 1909 
Q 1175 2209 1959 2209 
L 2766 2209 
L 2766 2266 
Q 2766 2663 2505 2880 
Q 2244 3097 1772 3097 
Q 1472 3097 1187 3025 
Q 903 2953 641 2809 
L 641 3341 
Q 956 3463 1253 3523 
Q 1550 3584 1831 3584 
Q 2591 3584 2966 3190 
Q 3341 2797 3341 1997 
z
" id="DejaVuSans-61" transform="scale(0.015625)"/>
       <path id="DejaVuSans-20" transform="scale(0.015625)"/>
       <path d="M 4122 4306 
L 4122 3641 
Q 3803 3938 3442 4084 
Q 3081 4231 2675 4231 
Q 1875 4231 1450 3742 
Q 1025 3253 1025 2328 
Q 1025 1406 1450 917 
Q 1875 428 2675 428 
Q 3081 428 3442 575 
Q 3803 722 4122 1019 
L 4122 359 
Q 3791 134 3420 21 
Q 3050 -91 2638 -91 
Q 1578 -91 968 557 
Q 359 1206 359 2328 
Q 359 3453 968 4101 
Q 1578 4750 2638 4750 
Q 3056 4750 3426 4639 
Q 3797 4528 4122 4306 
z
" id="DejaVuSans-43" transform="scale(0.015625)"/>
       <path d="M 3328 2828 
Q 3544 3216 3844 3400 
Q 4144 3584 4550 3584 
Q 5097 3584 5394 3201 
Q 5691 2819 5691 2113 
L 5691 0 
L 5113 0 
L 5113 2094 
Q 5113 2597 4934 2840 
Q 4756 3084 4391 3084 
Q 3944 3084 3684 2787 
Q 3425 2491 3425 1978 
L 3425 0 
L 2847 0 
L 2847 2094 
Q 2847 2600 2669 2842 
Q 2491 3084 2119 3084 
Q 1678 3084 1418 2786 
Q 1159 2488 1159 1978 
L 1159 0 
L 581 0 
L 581 3500 
L 1159 3500 
L 1159 2956 
Q 1356 3278 1631 3431 
Q 1906 3584 2284 3584 
Q 2666 3584 2933 3390 
Q 3200 3197 3328 2828 
z
" id="DejaVuSans-6d" transform="scale(0.015625)"/>
       <path d="M 544 1381 
L 544 3500 
L 1119 3500 
L 1119 1403 
Q 1119 906 1312 657 
Q 1506 409 1894 409 
Q 2359 409 2629 706 
Q 2900 1003 2900 1516 
L 2900 3500 
L 3475 3500 
L 3475 0 
L 2900 0 
L 2900 538 
Q 2691 219 2414 64 
Q 2138 -91 1772 -91 
Q 1169 -91 856 284 
Q 544 659 544 1381 
z
M 1991 3584 
L 1991 3584 
z
" id="DejaVuSans-75" transform="scale(0.015625)"/>
       <path d="M 3513 2113 
L 3513 0 
L 2938 0 
L 2938 2094 
Q 2938 2591 2744 2837 
Q 2550 3084 2163 3084 
Q 1697 3084 1428 2787 
Q 1159 2491 1159 1978 
L 1159 0 
L 581 0 
L 581 3500 
L 1159 3500 
L 1159 2956 
Q 1366 3272 1645 3428 
Q 1925 3584 2291 3584 
Q 2894 3584 3203 3211 
Q 3513 2838 3513 2113 
z
" id="DejaVuSans-6e" transform="scale(0.015625)"/>
       <path d="M 603 3500 
L 1178 3500 
L 1178 0 
L 603 0 
L 603 3500 
z
M 603 4863 
L 1178 4863 
L 1178 4134 
L 603 4134 
L 603 4863 
z
" id="DejaVuSans-69" transform="scale(0.015625)"/>
       <path d="M 3122 3366 
L 3122 2828 
Q 2878 2963 2633 3030 
Q 2388 3097 2138 3097 
Q 1578 3097 1268 2742 
Q 959 2388 959 1747 
Q 959 1106 1268 751 
Q 1578 397 2138 397 
Q 2388 397 2633 464 
Q 2878 531 3122 666 
L 3122 134 
Q 2881 22 2623 -34 
Q 2366 -91 2075 -91 
Q 1284 -91 818 406 
Q 353 903 353 1747 
Q 353 2603 823 3093 
Q 1294 3584 2113 3584 
Q 2378 3584 2631 3529 
Q 2884 3475 3122 3366 
z
" id="DejaVuSans-63" transform="scale(0.015625)"/>
       <path d="M 1172 4494 
L 1172 3500 
L 2356 3500 
L 2356 3053 
L 1172 3053 
L 1172 1153 
Q 1172 725 1289 603 
Q 1406 481 1766 481 
L 2356 481 
L 2356 0 
L 1766 0 
Q 1100 0 847 248 
Q 594 497 594 1153 
L 594 3053 
L 172 3053 
L 172 3500 
L 594 3500 
L 594 4494 
L 1172 4494 
z
" id="DejaVuSans-74" transform="scale(0.015625)"/>
       <path d="M 2841 2188 
Q 3044 2119 3236 1894 
Q 3428 1669 3622 1275 
L 4263 0 
L 3584 0 
L 2988 1197 
Q 2756 1666 2539 1819 
Q 2322 1972 1947 1972 
L 1259 1972 
L 1259 0 
L 628 0 
L 628 4666 
L 2053 4666 
Q 2853 4666 3247 4331 
Q 3641 3997 3641 3322 
Q 3641 2881 3436 2590 
Q 3231 2300 2841 2188 
z
M 1259 4147 
L 1259 2491 
L 2053 2491 
Q 2509 2491 2742 2702 
Q 2975 2913 2975 3322 
Q 2975 3731 2742 3939 
Q 2509 4147 2053 4147 
L 1259 4147 
z
" id="DejaVuSans-52" transform="scale(0.015625)"/>
       <path d="M 2906 2969 
L 2906 4863 
L 3481 4863 
L 3481 0 
L 2906 0 
L 2906 525 
Q 2725 213 2448 61 
Q 2172 -91 1784 -91 
Q 1150 -91 751 415 
Q 353 922 353 1747 
Q 353 2572 751 3078 
Q 1150 3584 1784 3584 
Q 2172 3584 2448 3432 
Q 2725 3281 2906 2969 
z
M 947 1747 
Q 947 1113 1208 752 
Q 1469 391 1925 391 
Q 2381 391 2643 752 
Q 2906 1113 2906 1747 
Q 2906 2381 2643 2742 
Q 2381 3103 1925 3103 
Q 1469 3103 1208 2742 
Q 947 2381 947 1747 
z
" id="DejaVuSans-64" transform="scale(0.015625)"/>
       <path d="M 2834 3397 
L 2834 2853 
Q 2591 2978 2328 3040 
Q 2066 3103 1784 3103 
Q 1356 3103 1142 2972 
Q 928 2841 928 2578 
Q 928 2378 1081 2264 
Q 1234 2150 1697 2047 
L 1894 2003 
Q 2506 1872 2764 1633 
Q 3022 1394 3022 966 
Q 3022 478 2636 193 
Q 2250 -91 1575 -91 
Q 1294 -91 989 -36 
Q 684 19 347 128 
L 347 722 
Q 666 556 975 473 
Q 1284 391 1588 391 
Q 1994 391 2212 530 
Q 2431 669 2431 922 
Q 2431 1156 2273 1281 
Q 2116 1406 1581 1522 
L 1381 1569 
Q 847 1681 609 1914 
Q 372 2147 372 2553 
Q 372 3047 722 3315 
Q 1072 3584 1716 3584 
Q 2034 3584 2315 3537 
Q 2597 3491 2834 3397 
z
" id="DejaVuSans-73" transform="scale(0.015625)"/>
      </defs>
      <use xlink:href="#DejaVuSans-47"/>
      <use x="77.490234" xlink:href="#DejaVuSans-6c"/>
      <use x="105.273438" xlink:href="#DejaVuSans-6f"/>
      <use x="166.455078" xlink:href="#DejaVuSans-62"/>
      <use x="229.931641" xlink:href="#DejaVuSans-61"/>
      <use x="291.210938" xlink:href="#DejaVuSans-6c"/>
      <use x="318.994141" xlink:href="#DejaVuSans-20"/>
      <use x="350.78125" xlink:href="#DejaVuSans-43"/>
      <use x="420.605469" xlink:href="#DejaVuSans-6f"/>
      <use x="481.787109" xlink:href="#DejaVuSans-6d"/>
      <use x="579.199219" xlink:href="#DejaVuSans-6d"/>
      <use x="676.611328" xlink:href="#DejaVuSans-75"/>
      <use x="739.990234" xlink:href="#DejaVuSans-6e"/>
      <use x="803.369141" xlink:href="#DejaVuSans-69"/>
      <use x="831.152344" xlink:href="#DejaVuSans-63"/>
      <use x="886.132812" xlink:href="#DejaVuSans-61"/>
      <use x="947.412109" xlink:href="#DejaVuSans-74"/>
      <use x="986.621094" xlink:href="#DejaVuSans-69"/>
      <use x="1014.404297" xlink:href="#DejaVuSans-6f"/>
      <use x="1075.585938" xlink:href="#DejaVuSans-6e"/>
      <use x="1138.964844" xlink:href="#DejaVuSans-20"/>
      <use x="1170.751953" xlink:href="#DejaVuSans-52"/>
      <use x="1235.734375" xlink:href="#DejaVuSans-6f"/>
      <use x="1296.916016" xlink:href="#DejaVuSans-75"/>
      <use x="1360.294922" xlink:href="#DejaVuSans-6e"/>
      <use x="1423.673828" xlink:href="#DejaVuSans-64"/>
      <use x="1487.150391" xlink:href="#DejaVuSans-73"/>
     </g>
    </g>
   </g>
   <g id="matplotlib.axis_2">
    <g id="ytick_1">
     <g id="line2d_7">
      <defs>
       <path d="M 0 0 
L -3.5 0 
" id="m5434c701a6" style="stroke:#000000;stroke-width:0.8;"/>
      </defs>
      <g>
       <use style="stroke:#000000;stroke-width:0.8;" x="60.68" xlink:href="#m5434c701a6" y="350.239175"/>
      </g>
     </g>
     <g id="text_8">
      <!-- 20 -->
      <g transform="translate(34.5925 355.938003)scale(0.15 -0.15)">
       <use xlink:href="#DejaVuSans-32"/>
       <use x="63.623047" xlink:href="#DejaVuSans-30"/>
      </g>
     </g>
    </g>
    <g id="ytick_2">
     <g id="line2d_8">
      <g>
       <use style="stroke:#000000;stroke-width:0.8;" x="60.68" xlink:href="#m5434c701a6" y="309.142511"/>
      </g>
     </g>
     <g id="text_9">
      <!-- 25 -->
      <g transform="translate(34.5925 314.841339)scale(0.15 -0.15)">
       <use xlink:href="#DejaVuSans-32"/>
       <use x="63.623047" xlink:href="#DejaVuSans-35"/>
      </g>
     </g>
    </g>
    <g id="ytick_3">
     <g id="line2d_9">
      <g>
       <use style="stroke:#000000;stroke-width:0.8;" x="60.68" xlink:href="#m5434c701a6" y="268.045847"/>
      </g>
     </g>
     <g id="text_10">
      <!-- 30 -->
      <g transform="translate(34.5925 273.744675)scale(0.15 -0.15)">
       <use xlink:href="#DejaVuSans-33"/>
       <use x="63.623047" xlink:href="#DejaVuSans-30"/>
      </g>
     </g>
    </g>
    <g id="ytick_4">
     <g id="line2d_10">
      <g>
       <use style="stroke:#000000;stroke-width:0.8;" x="60.68" xlink:href="#m5434c701a6" y="226.949183"/>
      </g>
     </g>
     <g id="text_11">
      <!-- 35 -->
      <g transform="translate(34.5925 232.648011)scale(0.15 -0.15)">
       <use xlink:href="#DejaVuSans-33"/>
       <use x="63.623047" xlink:href="#DejaVuSans-35"/>
      </g>
     </g>
    </g>
    <g id="ytick_5">
     <g id="line2d_11">
      <g>
       <use style="stroke:#000000;stroke-width:0.8;" x="60.68" xlink:href="#m5434c701a6" y="185.852519"/>
      </g>
     </g>
     <g id="text_12">
      <!-- 40 -->
      <g transform="translate(34.5925 191.551348)scale(0.15 -0.15)">
       <use xlink:href="#DejaVuSans-34"/>
       <use x="63.623047" xlink:href="#DejaVuSans-30"/>
      </g>
     </g>
    </g>
    <g id="ytick_6">
     <g id="line2d_12">
      <g>
       <use style="stroke:#000000;stroke-width:0.8;" x="60.68" xlink:href="#m5434c701a6" y="144.755856"/>
      </g>
     </g>
     <g id="text_13">
      <!-- 45 -->
      <g transform="translate(34.5925 150.454684)scale(0.15 -0.15)">
       <use xlink:href="#DejaVuSans-34"/>
       <use x="63.623047" xlink:href="#DejaVuSans-35"/>
      </g>
     </g>
    </g>
    <g id="ytick_7">
     <g id="line2d_13">
      <g>
       <use style="stroke:#000000;stroke-width:0.8;" x="60.68" xlink:href="#m5434c701a6" y="103.659192"/>
      </g>
     </g>
     <g id="text_14">
      <!-- 50 -->
      <g transform="translate(34.5925 109.35802)scale(0.15 -0.15)">
       <use xlink:href="#DejaVuSans-35"/>
       <use x="63.623047" xlink:href="#DejaVuSans-30"/>
      </g>
     </g>
    </g>
    <g id="ytick_8">
     <g id="line2d_14">
      <g>
       <use style="stroke:#000000;stroke-width:0.8;" x="60.68" xlink:href="#m5434c701a6" y="62.562528"/>
      </g>
     </g>
     <g id="text_15">
      <!-- 55 -->
      <g transform="translate(34.5925 68.261356)scale(0.15 -0.15)">
       <use xlink:href="#DejaVuSans-35"/>
       <use x="63.623047" xlink:href="#DejaVuSans-35"/>
      </g>
     </g>
    </g>
    <g id="text_16">
     <!-- Test Accuracy -->
     <g transform="translate(27.472969 267.694744)rotate(-90)scale(0.15 -0.15)">
      <defs>
       <path d="M -19 4666 
L 3928 4666 
L 3928 4134 
L 2272 4134 
L 2272 0 
L 1638 0 
L 1638 4134 
L -19 4134 
L -19 4666 
z
" id="DejaVuSans-54" transform="scale(0.015625)"/>
       <path d="M 3597 1894 
L 3597 1613 
L 953 1613 
Q 991 1019 1311 708 
Q 1631 397 2203 397 
Q 2534 397 2845 478 
Q 3156 559 3463 722 
L 3463 178 
Q 3153 47 2828 -22 
Q 2503 -91 2169 -91 
Q 1331 -91 842 396 
Q 353 884 353 1716 
Q 353 2575 817 3079 
Q 1281 3584 2069 3584 
Q 2775 3584 3186 3129 
Q 3597 2675 3597 1894 
z
M 3022 2063 
Q 3016 2534 2758 2815 
Q 2500 3097 2075 3097 
Q 1594 3097 1305 2825 
Q 1016 2553 972 2059 
L 3022 2063 
z
" id="DejaVuSans-65" transform="scale(0.015625)"/>
       <path d="M 2188 4044 
L 1331 1722 
L 3047 1722 
L 2188 4044 
z
M 1831 4666 
L 2547 4666 
L 4325 0 
L 3669 0 
L 3244 1197 
L 1141 1197 
L 716 0 
L 50 0 
L 1831 4666 
z
" id="DejaVuSans-41" transform="scale(0.015625)"/>
       <path d="M 2631 2963 
Q 2534 3019 2420 3045 
Q 2306 3072 2169 3072 
Q 1681 3072 1420 2755 
Q 1159 2438 1159 1844 
L 1159 0 
L 581 0 
L 581 3500 
L 1159 3500 
L 1159 2956 
Q 1341 3275 1631 3429 
Q 1922 3584 2338 3584 
Q 2397 3584 2469 3576 
Q 2541 3569 2628 3553 
L 2631 2963 
z
" id="DejaVuSans-72" transform="scale(0.015625)"/>
       <path d="M 2059 -325 
Q 1816 -950 1584 -1140 
Q 1353 -1331 966 -1331 
L 506 -1331 
L 506 -850 
L 844 -850 
Q 1081 -850 1212 -737 
Q 1344 -625 1503 -206 
L 1606 56 
L 191 3500 
L 800 3500 
L 1894 763 
L 2988 3500 
L 3597 3500 
L 2059 -325 
z
" id="DejaVuSans-79" transform="scale(0.015625)"/>
      </defs>
      <use xlink:href="#DejaVuSans-54"/>
      <use x="44.083984" xlink:href="#DejaVuSans-65"/>
      <use x="105.607422" xlink:href="#DejaVuSans-73"/>
      <use x="157.707031" xlink:href="#DejaVuSans-74"/>
      <use x="196.916016" xlink:href="#DejaVuSans-20"/>
      <use x="228.703125" xlink:href="#DejaVuSans-41"/>
      <use x="295.361328" xlink:href="#DejaVuSans-63"/>
      <use x="350.341797" xlink:href="#DejaVuSans-63"/>
      <use x="405.322266" xlink:href="#DejaVuSans-75"/>
      <use x="468.701172" xlink:href="#DejaVuSans-72"/>
      <use x="509.814453" xlink:href="#DejaVuSans-61"/>
      <use x="571.09375" xlink:href="#DejaVuSans-63"/>
      <use x="626.074219" xlink:href="#DejaVuSans-79"/>
     </g>
    </g>
   </g>
   <g id="line2d_15">
    <path clip-path="url(#pb7e8c86091)" d="M 83.219545 361.466022 
L 92.41936 326.85772 
L 101.619174 264.555627 
L 110.818989 233.74415 
L 120.018803 215.788661 
L 129.218618 203.973226 
L 138.418432 193.603445 
L 147.618247 188.762095 
L 156.818061 183.547417 
L 166.017876 175.274627 
L 175.21769 173.435788 
L 184.417505 167.46254 
L 193.617319 163.514794 
L 202.817134 158.705217 
L 212.016948 155.873485 
L 221.216763 150.928874 
L 230.416577 149.244926 
L 239.616391 145.543419 
L 248.816206 143.323309 
L 258.01602 141.397095 
L 267.215835 137.421549 
L 276.415649 137.389776 
L 285.615464 134.577901 
L 294.815278 131.924889 
L 304.015093 130.268742 
L 313.214907 129.271877 
L 322.414722 126.618865 
L 331.614536 124.327267 
L 340.814351 123.795076 
L 350.014165 122.238218 
L 359.21398 121.300927 
L 368.413794 121.058661 
L 377.613609 119.207907 
L 386.813423 117.758282 
L 396.013237 116.213339 
L 405.213052 114.863004 
L 414.412866 115.192645 
L 423.612681 114.616766 
L 432.812495 112.992392 
L 442.01231 111.87638 
L 451.212124 110.482357 
L 460.411939 110.172574 
L 469.611753 107.479847 
L 478.811568 107.019144 
L 488.011382 107.106519 
L 497.211197 105.69661 
L 506.411011 104.131809 
L 515.610826 103.726708 
L 524.81064 103.524158 
L 534.010455 102.257226 
" style="fill:none;stroke:#1f77b4;stroke-linecap:square;stroke-width:1.5;"/>
   </g>
   <g id="line2d_16">
    <path clip-path="url(#pb7e8c86091)" d="M 83.219545 361.481909 
L 92.41936 361.481909 
L 101.619174 334.447399 
L 110.818989 308.254864 
L 120.018803 291.216808 
L 129.218618 298.977265 
L 138.418432 278.436281 
L 147.618247 270.314411 
L 156.818061 265.040159 
L 166.017876 255.019876 
L 175.21769 256.000855 
L 184.417505 248.697129 
L 193.617319 241.139223 
L 202.817134 231.655102 
L 212.016948 231.134826 
L 221.216763 224.943141 
L 230.416577 219.581515 
L 239.616391 214.100742 
L 248.816206 211.729712 
L 258.01602 209.577118 
L 267.215835 205.506254 
L 276.415649 206.526949 
L 285.615464 199.918248 
L 294.815278 198.512311 
L 304.015093 196.601984 
L 313.214907 194.906121 
L 322.414722 190.271293 
L 331.614536 188.936844 
L 340.814351 190.386469 
L 350.014165 190.13626 
L 359.21398 186.561843 
L 368.413794 185.572921 
L 377.613609 182.661756 
L 386.813423 182.248713 
L 396.013237 179.643359 
L 405.213052 177.883952 
L 414.412866 177.355732 
L 423.612681 177.153182 
L 432.812495 175.095906 
L 442.01231 173.431817 
L 451.212124 174.420739 
L 460.411939 172.164884 
L 469.611753 170.635828 
L 478.811568 170.115552 
L 488.011382 170.611999 
L 497.211197 166.465675 
L 506.411011 166.549078 
L 515.610826 166.45376 
L 524.81064 165.599871 
L 534.010455 162.982603 
" style="fill:none;stroke:#ff7f0e;stroke-linecap:square;stroke-width:1.5;"/>
   </g>
   <g id="line2d_17">
    <path clip-path="url(#pb7e8c86091)" d="M 83.219545 358.876556 
L 92.41936 333.482307 
L 101.619174 279.889877 
L 110.818989 253.41536 
L 120.018803 232.060203 
L 129.218618 225.113919 
L 138.418432 208.937695 
L 147.618247 199.683926 
L 156.818061 193.833796 
L 166.017876 186.494326 
L 175.21769 179.849881 
L 184.417505 179.754564 
L 193.617319 175.171366 
L 202.817134 169.206061 
L 212.016948 164.114502 
L 221.216763 161.286741 
L 230.416577 158.312032 
L 239.616391 155.023568 
L 248.816206 151.937654 
L 258.01602 148.80011 
L 267.215835 145.805543 
L 276.415649 142.930123 
L 285.615464 140.507462 
L 294.815278 140.380372 
L 304.015093 138.577277 
L 313.214907 136.297593 
L 322.414722 133.485718 
L 331.614536 131.519788 
L 340.814351 130.082078 
L 350.014165 127.997002 
L 359.21398 126.110504 
L 368.413794 125.538597 
L 377.613609 124.998463 
L 386.813423 123.290686 
L 396.013237 121.860919 
L 405.213052 119.533576 
L 414.412866 119.049044 
L 423.612681 117.226091 
L 432.812495 115.891642 
L 442.01231 115.514342 
L 451.212124 115.192645 
L 460.411939 114.17195 
L 469.611753 111.761204 
L 478.811568 110.756396 
L 488.011382 110.188461 
L 497.211197 108.742807 
L 506.411011 107.146234 
L 515.610826 106.038165 
L 524.81064 106.268516 
L 534.010455 104.501166 
" style="fill:none;stroke:#2ca02c;stroke-linecap:square;stroke-width:1.5;"/>
   </g>
   <g id="line2d_18">
    <path clip-path="url(#pb7e8c86091)" d="M 83.219545 307.174596 
L 92.41936 218.219265 
L 101.619174 193.520042 
L 110.818989 174.512085 
L 120.018803 160.504341 
L 129.218618 150.861357 
L 138.418432 145.610936 
L 147.618247 138.898974 
L 156.818061 132.715232 
L 166.017876 128.481534 
L 175.21769 124.10883 
L 184.417505 120.236545 
L 193.617319 115.40711 
L 202.817134 112.968563 
L 212.016948 109.676127 
L 221.216763 107.158149 
L 230.416577 103.925287 
L 239.616391 101.796523 
L 248.816206 100.50179 
L 258.01602 97.856721 
L 267.215835 96.422983 
L 276.415649 94.123441 
L 285.615464 93.154377 
L 294.815278 90.727744 
L 304.015093 89.123228 
L 313.214907 88.332885 
L 322.414722 86.803829 
L 331.614536 86.104831 
L 340.814351 84.686979 
L 350.014165 83.010975 
L 359.21398 82.19283 
L 368.413794 80.969585 
L 377.613609 80.068038 
L 386.813423 80.107754 
L 396.013237 78.58664 
L 405.213052 79.488188 
L 414.412866 77.744667 
L 423.612681 76.696171 
L 432.812495 76.966238 
L 442.01231 76.461848 
L 451.212124 75.385551 
L 460.411939 74.750099 
L 469.611753 74.321169 
L 478.811568 73.84458 
L 488.011382 73.514939 
L 497.211197 73.129697 
L 506.411011 72.752397 
L 515.610826 71.910423 
L 524.81064 72.12886 
L 534.010455 71.358374 
" style="fill:none;stroke:#d62728;stroke-linecap:square;stroke-width:1.5;"/>
   </g>
   <g id="patch_3">
    <path d="M 60.68 376 
L 60.68 56.601989 
" style="fill:none;stroke:#000000;stroke-linecap:square;stroke-linejoin:miter;stroke-width:0.8;"/>
   </g>
   <g id="patch_4">
    <path d="M 556.55 376 
L 556.55 56.601989 
" style="fill:none;stroke:#000000;stroke-linecap:square;stroke-linejoin:miter;stroke-width:0.8;"/>
   </g>
   <g id="patch_5">
    <path d="M 60.68 376 
L 556.55 376 
" style="fill:none;stroke:#000000;stroke-linecap:square;stroke-linejoin:miter;stroke-width:0.8;"/>
   </g>
   <g id="patch_6">
    <path d="M 60.68 56.601989 
L 556.55 56.601989 
" style="fill:none;stroke:#000000;stroke-linecap:square;stroke-linejoin:miter;stroke-width:0.8;"/>
   </g>
   <g id="legend_1">
    <g id="patch_7">
     <path d="M 59.017344 42.709474 
L 558.212656 42.709474 
Q 561.212656 42.709474 561.212656 39.709474 
L 561.212656 19.192287 
Q 561.212656 16.192287 558.212656 16.192287 
L 59.017344 16.192287 
Q 56.017344 16.192287 56.017344 19.192287 
L 56.017344 39.709474 
Q 56.017344 42.709474 59.017344 42.709474 
z
" style="fill:#ffffff;opacity:0.8;stroke:#cccccc;stroke-linejoin:miter;"/>
    </g>
    <g id="line2d_19">
     <path d="M 62.017344 28.339943 
L 92.017344 28.339943 
" style="fill:none;stroke:#1f77b4;stroke-linecap:square;stroke-width:1.5;"/>
    </g>
    <g id="line2d_20"/>
    <g id="text_17">
     <!-- FedAvg -->
     <g transform="translate(104.017344 33.589943)scale(0.15 -0.15)">
      <defs>
       <path d="M 628 4666 
L 3309 4666 
L 3309 4134 
L 1259 4134 
L 1259 2759 
L 3109 2759 
L 3109 2228 
L 1259 2228 
L 1259 0 
L 628 0 
L 628 4666 
z
" id="DejaVuSans-46" transform="scale(0.015625)"/>
       <path d="M 191 3500 
L 800 3500 
L 1894 563 
L 2988 3500 
L 3597 3500 
L 2284 0 
L 1503 0 
L 191 3500 
z
" id="DejaVuSans-76" transform="scale(0.015625)"/>
       <path d="M 2906 1791 
Q 2906 2416 2648 2759 
Q 2391 3103 1925 3103 
Q 1463 3103 1205 2759 
Q 947 2416 947 1791 
Q 947 1169 1205 825 
Q 1463 481 1925 481 
Q 2391 481 2648 825 
Q 2906 1169 2906 1791 
z
M 3481 434 
Q 3481 -459 3084 -895 
Q 2688 -1331 1869 -1331 
Q 1566 -1331 1297 -1286 
Q 1028 -1241 775 -1147 
L 775 -588 
Q 1028 -725 1275 -790 
Q 1522 -856 1778 -856 
Q 2344 -856 2625 -561 
Q 2906 -266 2906 331 
L 2906 616 
Q 2728 306 2450 153 
Q 2172 0 1784 0 
Q 1141 0 747 490 
Q 353 981 353 1791 
Q 353 2603 747 3093 
Q 1141 3584 1784 3584 
Q 2172 3584 2450 3431 
Q 2728 3278 2906 2969 
L 2906 3500 
L 3481 3500 
L 3481 434 
z
" id="DejaVuSans-67" transform="scale(0.015625)"/>
      </defs>
      <use xlink:href="#DejaVuSans-46"/>
      <use x="52.019531" xlink:href="#DejaVuSans-65"/>
      <use x="113.542969" xlink:href="#DejaVuSans-64"/>
      <use x="177.019531" xlink:href="#DejaVuSans-41"/>
      <use x="239.552734" xlink:href="#DejaVuSans-76"/>
      <use x="298.732422" xlink:href="#DejaVuSans-67"/>
     </g>
    </g>
    <g id="line2d_21">
     <path d="M 188.3525 28.339943 
L 218.3525 28.339943 
" style="fill:none;stroke:#ff7f0e;stroke-linecap:square;stroke-width:1.5;"/>
    </g>
    <g id="line2d_22"/>
    <g id="text_18">
     <!-- FedMed -->
     <g transform="translate(230.3525 33.589943)scale(0.15 -0.15)">
      <defs>
       <path d="M 628 4666 
L 1569 4666 
L 2759 1491 
L 3956 4666 
L 4897 4666 
L 4897 0 
L 4281 0 
L 4281 4097 
L 3078 897 
L 2444 897 
L 1241 4097 
L 1241 0 
L 628 0 
L 628 4666 
z
" id="DejaVuSans-4d" transform="scale(0.015625)"/>
      </defs>
      <use xlink:href="#DejaVuSans-46"/>
      <use x="52.019531" xlink:href="#DejaVuSans-65"/>
      <use x="113.542969" xlink:href="#DejaVuSans-64"/>
      <use x="177.019531" xlink:href="#DejaVuSans-4d"/>
      <use x="263.298828" xlink:href="#DejaVuSans-65"/>
      <use x="324.822266" xlink:href="#DejaVuSans-64"/>
     </g>
    </g>
    <g id="line2d_23">
     <path d="M 318.601719 28.339943 
L 348.601719 28.339943 
" style="fill:none;stroke:#2ca02c;stroke-linecap:square;stroke-width:1.5;"/>
    </g>
    <g id="line2d_24"/>
    <g id="text_19">
     <!-- FedProx -->
     <g transform="translate(360.601719 33.589943)scale(0.15 -0.15)">
      <defs>
       <path d="M 1259 4147 
L 1259 2394 
L 2053 2394 
Q 2494 2394 2734 2622 
Q 2975 2850 2975 3272 
Q 2975 3691 2734 3919 
Q 2494 4147 2053 4147 
L 1259 4147 
z
M 628 4666 
L 2053 4666 
Q 2838 4666 3239 4311 
Q 3641 3956 3641 3272 
Q 3641 2581 3239 2228 
Q 2838 1875 2053 1875 
L 1259 1875 
L 1259 0 
L 628 0 
L 628 4666 
z
" id="DejaVuSans-50" transform="scale(0.015625)"/>
       <path d="M 3513 3500 
L 2247 1797 
L 3578 0 
L 2900 0 
L 1881 1375 
L 863 0 
L 184 0 
L 1544 1831 
L 300 3500 
L 978 3500 
L 1906 2253 
L 2834 3500 
L 3513 3500 
z
" id="DejaVuSans-78" transform="scale(0.015625)"/>
      </defs>
      <use xlink:href="#DejaVuSans-46"/>
      <use x="52.019531" xlink:href="#DejaVuSans-65"/>
      <use x="113.542969" xlink:href="#DejaVuSans-64"/>
      <use x="177.019531" xlink:href="#DejaVuSans-50"/>
      <use x="235.572266" xlink:href="#DejaVuSans-72"/>
      <use x="274.435547" xlink:href="#DejaVuSans-6f"/>
      <use x="332.492188" xlink:href="#DejaVuSans-78"/>
     </g>
    </g>
    <g id="line2d_25">
     <path d="M 449.354844 28.339943 
L 479.354844 28.339943 
" style="fill:none;stroke:#d62728;stroke-linecap:square;stroke-width:1.5;"/>
    </g>
    <g id="line2d_26"/>
    <g id="text_20">
     <!-- qFedAvg -->
     <g transform="translate(491.354844 33.589943)scale(0.15 -0.15)">
      <defs>
       <path d="M 947 1747 
Q 947 1113 1208 752 
Q 1469 391 1925 391 
Q 2381 391 2643 752 
Q 2906 1113 2906 1747 
Q 2906 2381 2643 2742 
Q 2381 3103 1925 3103 
Q 1469 3103 1208 2742 
Q 947 2381 947 1747 
z
M 2906 525 
Q 2725 213 2448 61 
Q 2172 -91 1784 -91 
Q 1150 -91 751 415 
Q 353 922 353 1747 
Q 353 2572 751 3078 
Q 1150 3584 1784 3584 
Q 2172 3584 2448 3432 
Q 2725 3281 2906 2969 
L 2906 3500 
L 3481 3500 
L 3481 -1331 
L 2906 -1331 
L 2906 525 
z
" id="DejaVuSans-71" transform="scale(0.015625)"/>
      </defs>
      <use xlink:href="#DejaVuSans-71"/>
      <use x="63.476562" xlink:href="#DejaVuSans-46"/>
      <use x="115.496094" xlink:href="#DejaVuSans-65"/>
      <use x="177.019531" xlink:href="#DejaVuSans-64"/>
      <use x="240.496094" xlink:href="#DejaVuSans-41"/>
      <use x="303.029297" xlink:href="#DejaVuSans-76"/>
      <use x="362.208984" xlink:href="#DejaVuSans-67"/>
     </g>
    </g>
   </g>
  </g>
 </g>
 <defs>
  <clipPath id="pb7e8c86091">
   <rect height="319.398011" width="495.87" x="60.68" y="56.601989"/>
  </clipPath>
 </defs>
</svg>
