<?xml version="1.0" encoding="utf-8" standalone="no"?>
<!DOCTYPE svg PUBLIC "-//W3C//DTD SVG 1.1//EN"
  "http://www.w3.org/Graphics/SVG/1.1/DTD/svg11.dtd">
<svg height="432pt" version="1.1" viewBox="0 0 576 432" width="576pt" xmlns="http://www.w3.org/2000/svg" xmlns:xlink="http://www.w3.org/1999/xlink">
 <metadata>
  <rdf:RDF xmlns:cc="http://creativecommons.org/ns#" xmlns:dc="http://purl.org/dc/elements/1.1/" xmlns:rdf="http://www.w3.org/1999/02/22-rdf-syntax-ns#">
   <cc:Work>
    <dc:type rdf:resource="http://purl.org/dc/dcmitype/StillImage"/>
    <dc:date>2021-05-07T22:04:47.994221</dc:date>
    <dc:format>image/svg+xml</dc:format>
    <dc:creator>
     <cc:Agent>
      <dc:title>Matplotlib v3.4.1, https://matplotlib.org/</dc:title>
     </cc:Agent>
    </dc:creator>
   </cc:Work>
  </rdf:RDF>
 </metadata>
 <defs>
  <style type="text/css">*{stroke-linecap:butt;stroke-linejoin:round;}</style>
 </defs>
 <g id="figure_1">
  <g id="patch_1">
   <path d="M 0 432 
L 576 432 
L 576 0 
L 0 0 
z
" style="fill:#ffffff;"/>
  </g>
  <g id="axes_1">
   <g id="patch_2">
    <path d="M 60.68 376 
L 556.55 376 
L 556.55 56.601989 
L 60.68 56.601989 
z
" style="fill:#ffffff;"/>
   </g>
   <g id="PolyCollection_1">
    <path clip-path="url(#p56211f8a86)" d="M 83.219545 305.49994 
L 83.219545 361.481909 
L 92.41936 281.420047 
L 101.619174 190.813781 
L 110.818989 159.575456 
L 120.018803 144.788083 
L 129.218618 131.907945 
L 138.418432 131.823926 
L 147.618247 123.245569 
L 156.818061 120.481339 
L 166.017876 117.809529 
L 175.21769 116.532438 
L 184.417505 111.659327 
L 193.617319 112.339882 
L 202.817134 106.198081 
L 212.016948 107.68522 
L 221.216763 106.567765 
L 230.416577 104.946195 
L 239.616391 102.089544 
L 248.816206 101.904702 
L 258.01602 103.69431 
L 267.215835 101.089716 
L 276.415649 98.552337 
L 285.615464 98.711973 
L 294.815278 97.191227 
L 304.015093 96.157791 
L 313.214907 96.552681 
L 322.414722 94.015302 
L 331.614536 93.662422 
L 340.814351 91.59555 
L 350.014165 92.326517 
L 359.21398 93.477579 
L 368.413794 91.645962 
L 377.613609 90.436086 
L 386.813423 92.03245 
L 396.013237 92.586976 
L 405.213052 92.066058 
L 414.412866 94.561427 
L 423.612681 90.536909 
L 432.812495 90.158822 
L 442.01231 90.830976 
L 451.212124 93.939685 
L 460.411939 92.628986 
L 469.611753 93.561599 
L 478.811568 89.915167 
L 488.011382 88.192774 
L 497.211197 89.427856 
L 506.411011 89.696717 
L 515.610826 88.133961 
L 524.81064 87.587836 
L 534.010455 86.478783 
L 534.010455 84.907625 
L 534.010455 84.907625 
L 524.81064 85.848639 
L 515.610826 83.521309 
L 506.411011 84.285883 
L 497.211197 85.638591 
L 488.011382 87.596238 
L 478.811568 85.310917 
L 469.611753 86.646821 
L 460.411939 85.327721 
L 451.212124 89.259817 
L 442.01231 87.949118 
L 432.812495 88.61287 
L 423.612681 89.679913 
L 414.412866 89.116985 
L 405.213052 86.932487 
L 396.013237 85.991472 
L 386.813423 85.857041 
L 377.613609 90.251244 
L 368.413794 89.385846 
L 359.21398 90.755359 
L 350.014165 89.486669 
L 340.814351 89.142191 
L 331.614536 92.368526 
L 322.414722 90.864583 
L 313.214907 93.343149 
L 304.015093 92.242498 
L 294.815278 93.326345 
L 285.615464 94.611838 
L 276.415649 93.973293 
L 267.215835 94.880699 
L 258.01602 97.60292 
L 248.816206 98.090232 
L 239.616391 96.67871 
L 230.416577 97.535705 
L 221.216763 97.99781 
L 212.016948 102.719687 
L 202.817134 101.761869 
L 193.617319 104.26564 
L 184.417505 108.701852 
L 175.21769 107.399555 
L 166.017876 109.676474 
L 156.818061 115.759462 
L 147.618247 118.700132 
L 138.418432 120.514946 
L 129.218618 130.580442 
L 120.018803 134.268884 
L 110.818989 147.140619 
L 101.619174 166.591056 
L 92.41936 206.122073 
L 83.219545 305.49994 
z
" style="fill:#1f77b4;fill-opacity:0.5;"/>
   </g>
   <g id="PolyCollection_2">
    <path clip-path="url(#p56211f8a86)" d="M 83.219545 359.818329 
L 83.219545 361.481909 
L 92.41936 330.882129 
L 101.619174 262.213266 
L 110.818989 233.243459 
L 120.018803 211.910993 
L 129.218618 210.398648 
L 138.418432 201.685861 
L 147.618247 183.478908 
L 156.818061 176.043212 
L 166.017876 171.43056 
L 175.21769 168.162214 
L 184.417505 164.76784 
L 193.617319 160.919762 
L 202.817134 154.559512 
L 212.016948 152.064142 
L 221.216763 152.265788 
L 230.416577 147.468294 
L 239.616391 143.292542 
L 248.816206 140.65434 
L 258.01602 141.511335 
L 267.215835 143.704236 
L 276.415649 140.108215 
L 285.615464 134.067238 
L 294.815278 134.571353 
L 304.015093 133.050606 
L 313.214907 133.59673 
L 322.414722 129.681437 
L 331.614536 130.807294 
L 340.814351 129.303351 
L 350.014165 129.950299 
L 359.21398 129.227734 
L 368.413794 127.421322 
L 377.613609 129.303351 
L 386.813423 125.665321 
L 396.013237 126.707159 
L 405.213052 124.909149 
L 414.412866 126.177838 
L 423.612681 125.833359 
L 432.812495 124.363024 
L 442.01231 120.590564 
L 451.212124 122.867483 
L 460.411939 117.59108 
L 469.611753 119.859597 
L 478.811568 120.078047 
L 488.011382 120.380516 
L 497.211197 121.077875 
L 506.411011 118.893377 
L 515.610826 118.078391 
L 524.81064 118.599309 
L 534.010455 117.053357 
L 534.010455 115.692246 
L 534.010455 115.692246 
L 524.81064 113.944648 
L 515.610826 116.372802 
L 506.411011 118.842965 
L 497.211197 118.448075 
L 488.011382 118.868171 
L 478.811568 117.759118 
L 469.611753 118.053185 
L 460.411939 116.515634 
L 451.212124 120.027635 
L 442.01231 119.699961 
L 432.812495 118.792554 
L 423.612681 122.800268 
L 414.412866 123.522832 
L 405.213052 124.623484 
L 396.013237 121.58199 
L 386.813423 122.077703 
L 377.613609 122.388574 
L 368.413794 127.19447 
L 359.21398 127.715389 
L 350.014165 127.127255 
L 340.814351 128.370738 
L 331.614536 128.37914 
L 322.414722 129.286547 
L 313.214907 130.899715 
L 304.015093 129.009284 
L 294.815278 128.034662 
L 285.615464 131.496251 
L 276.415649 134.680577 
L 267.215835 135.43675 
L 258.01602 138.654684 
L 248.816206 139.814148 
L 239.616391 139.167201 
L 230.416577 144.485614 
L 221.216763 146.325634 
L 212.016948 144.435202 
L 202.817134 146.569289 
L 193.617319 150.106496 
L 184.417505 164.280529 
L 175.21769 164.994692 
L 166.017876 165.305563 
L 156.818061 165.95251 
L 147.618247 178.614198 
L 138.418432 177.908437 
L 129.218618 180.101337 
L 120.018803 197.375678 
L 110.818989 212.55794 
L 101.619174 241.737796 
L 92.41936 326.345094 
L 83.219545 359.818329 
z
" style="fill:#ff7f0e;fill-opacity:0.5;"/>
   </g>
   <g id="PolyCollection_3">
    <path clip-path="url(#p56211f8a86)" d="M 83.219545 306.566983 
L 83.219545 321.648423 
L 92.41936 236.436187 
L 101.619174 188.956957 
L 110.818989 169.565334 
L 120.018803 166.296989 
L 129.218618 144.712466 
L 138.418432 131.303007 
L 147.618247 125.665321 
L 156.818061 121.556784 
L 166.017876 116.675271 
L 175.21769 113.793413 
L 184.417505 109.323594 
L 193.617319 103.559879 
L 202.817134 101.089716 
L 212.016948 100.459572 
L 221.216763 99.199285 
L 230.416577 97.359265 
L 239.616391 100.518385 
L 248.816206 94.317771 
L 258.01602 92.990268 
L 267.215835 91.763589 
L 276.415649 92.175282 
L 285.615464 91.335091 
L 294.815278 88.671683 
L 304.015093 92.2509 
L 313.214907 89.906765 
L 322.414722 88.881731 
L 331.614536 89.637904 
L 340.814351 89.780736 
L 350.014165 88.117157 
L 359.21398 90.083205 
L 368.413794 88.814516 
L 377.613609 88.310401 
L 386.813423 87.352582 
L 396.013237 90.133617 
L 405.213052 90.133617 
L 414.412866 89.654707 
L 423.612681 86.243529 
L 432.812495 85.554572 
L 442.01231 82.823949 
L 451.212124 81.496447 
L 460.411939 82.319834 
L 469.611753 84.243873 
L 478.811568 82.38705 
L 488.011382 83.269251 
L 497.211197 82.303031 
L 506.411011 79.900083 
L 515.610826 80.286571 
L 524.81064 82.815548 
L 534.010455 82.353442 
L 534.010455 77.614761 
L 534.010455 77.614761 
L 524.81064 78.228101 
L 515.610826 74.548062 
L 506.411011 76.648541 
L 497.211197 74.657287 
L 488.011382 78.488561 
L 478.811568 78.211297 
L 469.611753 77.446723 
L 460.411939 78.438149 
L 451.212124 76.909 
L 442.01231 79.824465 
L 432.812495 78.984274 
L 423.612681 78.723814 
L 414.412866 79.236331 
L 405.213052 81.328408 
L 396.013237 80.563834 
L 386.813423 81.269595 
L 377.613609 80.118532 
L 368.413794 84.109443 
L 359.21398 81.639279 
L 350.014165 82.353442 
L 340.814351 83.798572 
L 331.614536 87.82309 
L 322.414722 84.395108 
L 313.214907 84.302687 
L 304.015093 88.243186 
L 294.815278 87.445003 
L 285.615464 84.966438 
L 276.415649 87.755874 
L 267.215835 88.369214 
L 258.01602 91.814 
L 248.816206 93.914479 
L 239.616391 96.393044 
L 230.416577 95.502441 
L 221.216763 96.325829 
L 212.016948 97.476892 
L 202.817134 98.401102 
L 193.617319 102.64407 
L 184.417505 104.492492 
L 175.21769 107.441565 
L 166.017876 111.272838 
L 156.818061 119.111826 
L 147.618247 122.077703 
L 138.418432 131.042548 
L 129.218618 138.537057 
L 120.018803 154.173023 
L 110.818989 165.99452 
L 101.619174 184.226678 
L 92.41936 230.907726 
L 83.219545 306.566983 
z
" style="fill:#2ca02c;fill-opacity:0.5;"/>
   </g>
   <g id="PolyCollection_4">
    <path clip-path="url(#p56211f8a86)" d="M 83.219545 300.223536 
L 83.219545 307.524801 
L 92.41936 257.424174 
L 101.619174 176.673356 
L 110.818989 169.607344 
L 120.018803 152.828717 
L 129.218618 132.546491 
L 138.418432 133.85719 
L 147.618247 133.277457 
L 156.818061 126.287063 
L 166.017876 120.229281 
L 175.21769 119.615941 
L 184.417505 112.860801 
L 193.617319 111.272838 
L 202.817134 105.349487 
L 212.016948 105.31588 
L 221.216763 100.131897 
L 230.416577 97.68694 
L 239.616391 96.082174 
L 248.816206 93.376756 
L 258.01602 92.150077 
L 267.215835 92.2509 
L 276.415649 91.940029 
L 285.615464 92.242498 
L 294.815278 86.655223 
L 304.015093 85.974668 
L 313.214907 86.268735 
L 322.414722 87.075319 
L 331.614536 84.252275 
L 340.814351 84.344696 
L 350.014165 82.269423 
L 359.21398 83.025595 
L 368.413794 81.320006 
L 377.613609 81.866131 
L 386.813423 78.92546 
L 396.013237 77.707182 
L 405.213052 77.808005 
L 414.412866 77.7828 
L 423.612681 76.522512 
L 432.812495 76.766168 
L 442.01231 76.572924 
L 451.212124 77.177862 
L 460.411939 76.102416 
L 469.611753 75.026971 
L 478.811568 74.598473 
L 488.011382 74.153172 
L 497.211197 73.825497 
L 506.411011 73.237363 
L 515.610826 73.682664 
L 524.81064 72.187123 
L 534.010455 71.792233 
L 534.010455 71.388941 
L 534.010455 71.388941 
L 524.81064 71.750224 
L 515.610826 71.12008 
L 506.411011 72.044291 
L 497.211197 73.027315 
L 488.011382 73.539832 
L 478.811568 73.447411 
L 469.611753 74.153172 
L 460.411939 75.480675 
L 451.212124 75.068981 
L 442.01231 76.362876 
L 432.812495 75.967986 
L 423.612681 76.371278 
L 414.412866 77.614761 
L 405.213052 77.623163 
L 396.013237 77.371106 
L 386.813423 78.740618 
L 377.613609 80.11013 
L 368.413794 79.068293 
L 359.21398 80.353786 
L 350.014165 79.984102 
L 340.814351 80.421001 
L 331.614536 80.026111 
L 322.414722 80.622647 
L 313.214907 83.61373 
L 304.015093 85.831836 
L 294.815278 86.277137 
L 285.615464 88.201176 
L 276.415649 89.612698 
L 267.215835 91.284679 
L 258.01602 91.251072 
L 248.816206 93.057484 
L 239.616391 89.931971 
L 230.416577 96.06537 
L 221.216763 97.098805 
L 212.016948 100.636012 
L 202.817134 100.644414 
L 193.617319 102.307994 
L 184.417505 109.70168 
L 175.21769 110.062962 
L 166.017876 112.440705 
L 156.818061 118.069989 
L 147.618247 122.968306 
L 138.418432 120.767004 
L 129.218618 126.841589 
L 120.018803 146.258418 
L 110.818989 164.389754 
L 101.619174 169.76698 
L 92.41936 236.293354 
L 83.219545 300.223536 
z
" style="fill:#d62728;fill-opacity:0.5;"/>
   </g>
   <g id="matplotlib.axis_1">
    <g id="xtick_1">
     <g id="line2d_1">
      <defs>
       <path d="M 0 0 
L 0 3.5 
" id="m3360d957b8" style="stroke:#000000;stroke-width:0.8;"/>
      </defs>
      <g>
       <use style="stroke:#000000;stroke-width:0.8;" x="83.219545" xlink:href="#m3360d957b8" y="376"/>
      </g>
     </g>
     <g id="text_1">
      <!-- 0 -->
      <g transform="translate(78.44767 394.397656)scale(0.15 -0.15)">
       <defs>
        <path d="M 2034 4250 
Q 1547 4250 1301 3770 
Q 1056 3291 1056 2328 
Q 1056 1369 1301 889 
Q 1547 409 2034 409 
Q 2525 409 2770 889 
Q 3016 1369 3016 2328 
Q 3016 3291 2770 3770 
Q 2525 4250 2034 4250 
z
M 2034 4750 
Q 2819 4750 3233 4129 
Q 3647 3509 3647 2328 
Q 3647 1150 3233 529 
Q 2819 -91 2034 -91 
Q 1250 -91 836 529 
Q 422 1150 422 2328 
Q 422 3509 836 4129 
Q 1250 4750 2034 4750 
z
" id="DejaVuSans-30" transform="scale(0.015625)"/>
       </defs>
       <use xlink:href="#DejaVuSans-30"/>
      </g>
     </g>
    </g>
    <g id="xtick_2">
     <g id="line2d_2">
      <g>
       <use style="stroke:#000000;stroke-width:0.8;" x="175.21769" xlink:href="#m3360d957b8" y="376"/>
      </g>
     </g>
     <g id="text_2">
      <!-- 10 -->
      <g transform="translate(165.67394 394.397656)scale(0.15 -0.15)">
       <defs>
        <path d="M 794 531 
L 1825 531 
L 1825 4091 
L 703 3866 
L 703 4441 
L 1819 4666 
L 2450 4666 
L 2450 531 
L 3481 531 
L 3481 0 
L 794 0 
L 794 531 
z
" id="DejaVuSans-31" transform="scale(0.015625)"/>
       </defs>
       <use xlink:href="#DejaVuSans-31"/>
       <use x="63.623047" xlink:href="#DejaVuSans-30"/>
      </g>
     </g>
    </g>
    <g id="xtick_3">
     <g id="line2d_3">
      <g>
       <use style="stroke:#000000;stroke-width:0.8;" x="267.215835" xlink:href="#m3360d957b8" y="376"/>
      </g>
     </g>
     <g id="text_3">
      <!-- 20 -->
      <g transform="translate(257.672085 394.397656)scale(0.15 -0.15)">
       <defs>
        <path d="M 1228 531 
L 3431 531 
L 3431 0 
L 469 0 
L 469 531 
Q 828 903 1448 1529 
Q 2069 2156 2228 2338 
Q 2531 2678 2651 2914 
Q 2772 3150 2772 3378 
Q 2772 3750 2511 3984 
Q 2250 4219 1831 4219 
Q 1534 4219 1204 4116 
Q 875 4013 500 3803 
L 500 4441 
Q 881 4594 1212 4672 
Q 1544 4750 1819 4750 
Q 2544 4750 2975 4387 
Q 3406 4025 3406 3419 
Q 3406 3131 3298 2873 
Q 3191 2616 2906 2266 
Q 2828 2175 2409 1742 
Q 1991 1309 1228 531 
z
" id="DejaVuSans-32" transform="scale(0.015625)"/>
       </defs>
       <use xlink:href="#DejaVuSans-32"/>
       <use x="63.623047" xlink:href="#DejaVuSans-30"/>
      </g>
     </g>
    </g>
    <g id="xtick_4">
     <g id="line2d_4">
      <g>
       <use style="stroke:#000000;stroke-width:0.8;" x="359.21398" xlink:href="#m3360d957b8" y="376"/>
      </g>
     </g>
     <g id="text_4">
      <!-- 30 -->
      <g transform="translate(349.67023 394.397656)scale(0.15 -0.15)">
       <defs>
        <path d="M 2597 2516 
Q 3050 2419 3304 2112 
Q 3559 1806 3559 1356 
Q 3559 666 3084 287 
Q 2609 -91 1734 -91 
Q 1441 -91 1130 -33 
Q 819 25 488 141 
L 488 750 
Q 750 597 1062 519 
Q 1375 441 1716 441 
Q 2309 441 2620 675 
Q 2931 909 2931 1356 
Q 2931 1769 2642 2001 
Q 2353 2234 1838 2234 
L 1294 2234 
L 1294 2753 
L 1863 2753 
Q 2328 2753 2575 2939 
Q 2822 3125 2822 3475 
Q 2822 3834 2567 4026 
Q 2313 4219 1838 4219 
Q 1578 4219 1281 4162 
Q 984 4106 628 3988 
L 628 4550 
Q 988 4650 1302 4700 
Q 1616 4750 1894 4750 
Q 2613 4750 3031 4423 
Q 3450 4097 3450 3541 
Q 3450 3153 3228 2886 
Q 3006 2619 2597 2516 
z
" id="DejaVuSans-33" transform="scale(0.015625)"/>
       </defs>
       <use xlink:href="#DejaVuSans-33"/>
       <use x="63.623047" xlink:href="#DejaVuSans-30"/>
      </g>
     </g>
    </g>
    <g id="xtick_5">
     <g id="line2d_5">
      <g>
       <use style="stroke:#000000;stroke-width:0.8;" x="451.212124" xlink:href="#m3360d957b8" y="376"/>
      </g>
     </g>
     <g id="text_5">
      <!-- 40 -->
      <g transform="translate(441.668374 394.397656)scale(0.15 -0.15)">
       <defs>
        <path d="M 2419 4116 
L 825 1625 
L 2419 1625 
L 2419 4116 
z
M 2253 4666 
L 3047 4666 
L 3047 1625 
L 3713 1625 
L 3713 1100 
L 3047 1100 
L 3047 0 
L 2419 0 
L 2419 1100 
L 313 1100 
L 313 1709 
L 2253 4666 
z
" id="DejaVuSans-34" transform="scale(0.015625)"/>
       </defs>
       <use xlink:href="#DejaVuSans-34"/>
       <use x="63.623047" xlink:href="#DejaVuSans-30"/>
      </g>
     </g>
    </g>
    <g id="xtick_6">
     <g id="line2d_6">
      <g>
       <use style="stroke:#000000;stroke-width:0.8;" x="543.210269" xlink:href="#m3360d957b8" y="376"/>
      </g>
     </g>
     <g id="text_6">
      <!-- 50 -->
      <g transform="translate(533.666519 394.397656)scale(0.15 -0.15)">
       <defs>
        <path d="M 691 4666 
L 3169 4666 
L 3169 4134 
L 1269 4134 
L 1269 2991 
Q 1406 3038 1543 3061 
Q 1681 3084 1819 3084 
Q 2600 3084 3056 2656 
Q 3513 2228 3513 1497 
Q 3513 744 3044 326 
Q 2575 -91 1722 -91 
Q 1428 -91 1123 -41 
Q 819 9 494 109 
L 494 744 
Q 775 591 1075 516 
Q 1375 441 1709 441 
Q 2250 441 2565 725 
Q 2881 1009 2881 1497 
Q 2881 1984 2565 2268 
Q 2250 2553 1709 2553 
Q 1456 2553 1204 2497 
Q 953 2441 691 2322 
L 691 4666 
z
" id="DejaVuSans-35" transform="scale(0.015625)"/>
       </defs>
       <use xlink:href="#DejaVuSans-35"/>
       <use x="63.623047" xlink:href="#DejaVuSans-30"/>
      </g>
     </g>
    </g>
    <g id="text_7">
     <!-- Global Communication Rounds -->
     <g transform="translate(193.172422 412.914844)scale(0.15 -0.15)">
      <defs>
       <path d="M 3809 666 
L 3809 1919 
L 2778 1919 
L 2778 2438 
L 4434 2438 
L 4434 434 
Q 4069 175 3628 42 
Q 3188 -91 2688 -91 
Q 1594 -91 976 548 
Q 359 1188 359 2328 
Q 359 3472 976 4111 
Q 1594 4750 2688 4750 
Q 3144 4750 3555 4637 
Q 3966 4525 4313 4306 
L 4313 3634 
Q 3963 3931 3569 4081 
Q 3175 4231 2741 4231 
Q 1884 4231 1454 3753 
Q 1025 3275 1025 2328 
Q 1025 1384 1454 906 
Q 1884 428 2741 428 
Q 3075 428 3337 486 
Q 3600 544 3809 666 
z
" id="DejaVuSans-47" transform="scale(0.015625)"/>
       <path d="M 603 4863 
L 1178 4863 
L 1178 0 
L 603 0 
L 603 4863 
z
" id="DejaVuSans-6c" transform="scale(0.015625)"/>
       <path d="M 1959 3097 
Q 1497 3097 1228 2736 
Q 959 2375 959 1747 
Q 959 1119 1226 758 
Q 1494 397 1959 397 
Q 2419 397 2687 759 
Q 2956 1122 2956 1747 
Q 2956 2369 2687 2733 
Q 2419 3097 1959 3097 
z
M 1959 3584 
Q 2709 3584 3137 3096 
Q 3566 2609 3566 1747 
Q 3566 888 3137 398 
Q 2709 -91 1959 -91 
Q 1206 -91 779 398 
Q 353 888 353 1747 
Q 353 2609 779 3096 
Q 1206 3584 1959 3584 
z
" id="DejaVuSans-6f" transform="scale(0.015625)"/>
       <path d="M 3116 1747 
Q 3116 2381 2855 2742 
Q 2594 3103 2138 3103 
Q 1681 3103 1420 2742 
Q 1159 2381 1159 1747 
Q 1159 1113 1420 752 
Q 1681 391 2138 391 
Q 2594 391 2855 752 
Q 3116 1113 3116 1747 
z
M 1159 2969 
Q 1341 3281 1617 3432 
Q 1894 3584 2278 3584 
Q 2916 3584 3314 3078 
Q 3713 2572 3713 1747 
Q 3713 922 3314 415 
Q 2916 -91 2278 -91 
Q 1894 -91 1617 61 
Q 1341 213 1159 525 
L 1159 0 
L 581 0 
L 581 4863 
L 1159 4863 
L 1159 2969 
z
" id="DejaVuSans-62" transform="scale(0.015625)"/>
       <path d="M 2194 1759 
Q 1497 1759 1228 1600 
Q 959 1441 959 1056 
Q 959 750 1161 570 
Q 1363 391 1709 391 
Q 2188 391 2477 730 
Q 2766 1069 2766 1631 
L 2766 1759 
L 2194 1759 
z
M 3341 1997 
L 3341 0 
L 2766 0 
L 2766 531 
Q 2569 213 2275 61 
Q 1981 -91 1556 -91 
Q 1019 -91 701 211 
Q 384 513 384 1019 
Q 384 1609 779 1909 
Q 1175 2209 1959 2209 
L 2766 2209 
L 2766 2266 
Q 2766 2663 2505 2880 
Q 2244 3097 1772 3097 
Q 1472 3097 1187 3025 
Q 903 2953 641 2809 
L 641 3341 
Q 956 3463 1253 3523 
Q 1550 3584 1831 3584 
Q 2591 3584 2966 3190 
Q 3341 2797 3341 1997 
z
" id="DejaVuSans-61" transform="scale(0.015625)"/>
       <path id="DejaVuSans-20" transform="scale(0.015625)"/>
       <path d="M 4122 4306 
L 4122 3641 
Q 3803 3938 3442 4084 
Q 3081 4231 2675 4231 
Q 1875 4231 1450 3742 
Q 1025 3253 1025 2328 
Q 1025 1406 1450 917 
Q 1875 428 2675 428 
Q 3081 428 3442 575 
Q 3803 722 4122 1019 
L 4122 359 
Q 3791 134 3420 21 
Q 3050 -91 2638 -91 
Q 1578 -91 968 557 
Q 359 1206 359 2328 
Q 359 3453 968 4101 
Q 1578 4750 2638 4750 
Q 3056 4750 3426 4639 
Q 3797 4528 4122 4306 
z
" id="DejaVuSans-43" transform="scale(0.015625)"/>
       <path d="M 3328 2828 
Q 3544 3216 3844 3400 
Q 4144 3584 4550 3584 
Q 5097 3584 5394 3201 
Q 5691 2819 5691 2113 
L 5691 0 
L 5113 0 
L 5113 2094 
Q 5113 2597 4934 2840 
Q 4756 3084 4391 3084 
Q 3944 3084 3684 2787 
Q 3425 2491 3425 1978 
L 3425 0 
L 2847 0 
L 2847 2094 
Q 2847 2600 2669 2842 
Q 2491 3084 2119 3084 
Q 1678 3084 1418 2786 
Q 1159 2488 1159 1978 
L 1159 0 
L 581 0 
L 581 3500 
L 1159 3500 
L 1159 2956 
Q 1356 3278 1631 3431 
Q 1906 3584 2284 3584 
Q 2666 3584 2933 3390 
Q 3200 3197 3328 2828 
z
" id="DejaVuSans-6d" transform="scale(0.015625)"/>
       <path d="M 544 1381 
L 544 3500 
L 1119 3500 
L 1119 1403 
Q 1119 906 1312 657 
Q 1506 409 1894 409 
Q 2359 409 2629 706 
Q 2900 1003 2900 1516 
L 2900 3500 
L 3475 3500 
L 3475 0 
L 2900 0 
L 2900 538 
Q 2691 219 2414 64 
Q 2138 -91 1772 -91 
Q 1169 -91 856 284 
Q 544 659 544 1381 
z
M 1991 3584 
L 1991 3584 
z
" id="DejaVuSans-75" transform="scale(0.015625)"/>
       <path d="M 3513 2113 
L 3513 0 
L 2938 0 
L 2938 2094 
Q 2938 2591 2744 2837 
Q 2550 3084 2163 3084 
Q 1697 3084 1428 2787 
Q 1159 2491 1159 1978 
L 1159 0 
L 581 0 
L 581 3500 
L 1159 3500 
L 1159 2956 
Q 1366 3272 1645 3428 
Q 1925 3584 2291 3584 
Q 2894 3584 3203 3211 
Q 3513 2838 3513 2113 
z
" id="DejaVuSans-6e" transform="scale(0.015625)"/>
       <path d="M 603 3500 
L 1178 3500 
L 1178 0 
L 603 0 
L 603 3500 
z
M 603 4863 
L 1178 4863 
L 1178 4134 
L 603 4134 
L 603 4863 
z
" id="DejaVuSans-69" transform="scale(0.015625)"/>
       <path d="M 3122 3366 
L 3122 2828 
Q 2878 2963 2633 3030 
Q 2388 3097 2138 3097 
Q 1578 3097 1268 2742 
Q 959 2388 959 1747 
Q 959 1106 1268 751 
Q 1578 397 2138 397 
Q 2388 397 2633 464 
Q 2878 531 3122 666 
L 3122 134 
Q 2881 22 2623 -34 
Q 2366 -91 2075 -91 
Q 1284 -91 818 406 
Q 353 903 353 1747 
Q 353 2603 823 3093 
Q 1294 3584 2113 3584 
Q 2378 3584 2631 3529 
Q 2884 3475 3122 3366 
z
" id="DejaVuSans-63" transform="scale(0.015625)"/>
       <path d="M 1172 4494 
L 1172 3500 
L 2356 3500 
L 2356 3053 
L 1172 3053 
L 1172 1153 
Q 1172 725 1289 603 
Q 1406 481 1766 481 
L 2356 481 
L 2356 0 
L 1766 0 
Q 1100 0 847 248 
Q 594 497 594 1153 
L 594 3053 
L 172 3053 
L 172 3500 
L 594 3500 
L 594 4494 
L 1172 4494 
z
" id="DejaVuSans-74" transform="scale(0.015625)"/>
       <path d="M 2841 2188 
Q 3044 2119 3236 1894 
Q 3428 1669 3622 1275 
L 4263 0 
L 3584 0 
L 2988 1197 
Q 2756 1666 2539 1819 
Q 2322 1972 1947 1972 
L 1259 1972 
L 1259 0 
L 628 0 
L 628 4666 
L 2053 4666 
Q 2853 4666 3247 4331 
Q 3641 3997 3641 3322 
Q 3641 2881 3436 2590 
Q 3231 2300 2841 2188 
z
M 1259 4147 
L 1259 2491 
L 2053 2491 
Q 2509 2491 2742 2702 
Q 2975 2913 2975 3322 
Q 2975 3731 2742 3939 
Q 2509 4147 2053 4147 
L 1259 4147 
z
" id="DejaVuSans-52" transform="scale(0.015625)"/>
       <path d="M 2906 2969 
L 2906 4863 
L 3481 4863 
L 3481 0 
L 2906 0 
L 2906 525 
Q 2725 213 2448 61 
Q 2172 -91 1784 -91 
Q 1150 -91 751 415 
Q 353 922 353 1747 
Q 353 2572 751 3078 
Q 1150 3584 1784 3584 
Q 2172 3584 2448 3432 
Q 2725 3281 2906 2969 
z
M 947 1747 
Q 947 1113 1208 752 
Q 1469 391 1925 391 
Q 2381 391 2643 752 
Q 2906 1113 2906 1747 
Q 2906 2381 2643 2742 
Q 2381 3103 1925 3103 
Q 1469 3103 1208 2742 
Q 947 2381 947 1747 
z
" id="DejaVuSans-64" transform="scale(0.015625)"/>
       <path d="M 2834 3397 
L 2834 2853 
Q 2591 2978 2328 3040 
Q 2066 3103 1784 3103 
Q 1356 3103 1142 2972 
Q 928 2841 928 2578 
Q 928 2378 1081 2264 
Q 1234 2150 1697 2047 
L 1894 2003 
Q 2506 1872 2764 1633 
Q 3022 1394 3022 966 
Q 3022 478 2636 193 
Q 2250 -91 1575 -91 
Q 1294 -91 989 -36 
Q 684 19 347 128 
L 347 722 
Q 666 556 975 473 
Q 1284 391 1588 391 
Q 1994 391 2212 530 
Q 2431 669 2431 922 
Q 2431 1156 2273 1281 
Q 2116 1406 1581 1522 
L 1381 1569 
Q 847 1681 609 1914 
Q 372 2147 372 2553 
Q 372 3047 722 3315 
Q 1072 3584 1716 3584 
Q 2034 3584 2315 3537 
Q 2597 3491 2834 3397 
z
" id="DejaVuSans-73" transform="scale(0.015625)"/>
      </defs>
      <use xlink:href="#DejaVuSans-47"/>
      <use x="77.490234" xlink:href="#DejaVuSans-6c"/>
      <use x="105.273438" xlink:href="#DejaVuSans-6f"/>
      <use x="166.455078" xlink:href="#DejaVuSans-62"/>
      <use x="229.931641" xlink:href="#DejaVuSans-61"/>
      <use x="291.210938" xlink:href="#DejaVuSans-6c"/>
      <use x="318.994141" xlink:href="#DejaVuSans-20"/>
      <use x="350.78125" xlink:href="#DejaVuSans-43"/>
      <use x="420.605469" xlink:href="#DejaVuSans-6f"/>
      <use x="481.787109" xlink:href="#DejaVuSans-6d"/>
      <use x="579.199219" xlink:href="#DejaVuSans-6d"/>
      <use x="676.611328" xlink:href="#DejaVuSans-75"/>
      <use x="739.990234" xlink:href="#DejaVuSans-6e"/>
      <use x="803.369141" xlink:href="#DejaVuSans-69"/>
      <use x="831.152344" xlink:href="#DejaVuSans-63"/>
      <use x="886.132812" xlink:href="#DejaVuSans-61"/>
      <use x="947.412109" xlink:href="#DejaVuSans-74"/>
      <use x="986.621094" xlink:href="#DejaVuSans-69"/>
      <use x="1014.404297" xlink:href="#DejaVuSans-6f"/>
      <use x="1075.585938" xlink:href="#DejaVuSans-6e"/>
      <use x="1138.964844" xlink:href="#DejaVuSans-20"/>
      <use x="1170.751953" xlink:href="#DejaVuSans-52"/>
      <use x="1235.734375" xlink:href="#DejaVuSans-6f"/>
      <use x="1296.916016" xlink:href="#DejaVuSans-75"/>
      <use x="1360.294922" xlink:href="#DejaVuSans-6e"/>
      <use x="1423.673828" xlink:href="#DejaVuSans-64"/>
      <use x="1487.150391" xlink:href="#DejaVuSans-73"/>
     </g>
    </g>
   </g>
   <g id="matplotlib.axis_2">
    <g id="ytick_1">
     <g id="line2d_7">
      <defs>
       <path d="M 0 0 
L -3.5 0 
" id="m5463ddbd26" style="stroke:#000000;stroke-width:0.8;"/>
      </defs>
      <g>
       <use style="stroke:#000000;stroke-width:0.8;" x="60.68" xlink:href="#m5463ddbd26" y="349.589836"/>
      </g>
     </g>
     <g id="text_8">
      <!-- 20 -->
      <g transform="translate(34.5925 355.288664)scale(0.15 -0.15)">
       <use xlink:href="#DejaVuSans-32"/>
       <use x="63.623047" xlink:href="#DejaVuSans-30"/>
      </g>
     </g>
    </g>
    <g id="ytick_2">
     <g id="line2d_8">
      <g>
       <use style="stroke:#000000;stroke-width:0.8;" x="60.68" xlink:href="#m5463ddbd26" y="306.119581"/>
      </g>
     </g>
     <g id="text_9">
      <!-- 25 -->
      <g transform="translate(34.5925 311.818409)scale(0.15 -0.15)">
       <use xlink:href="#DejaVuSans-32"/>
       <use x="63.623047" xlink:href="#DejaVuSans-35"/>
      </g>
     </g>
    </g>
    <g id="ytick_3">
     <g id="line2d_9">
      <g>
       <use style="stroke:#000000;stroke-width:0.8;" x="60.68" xlink:href="#m5463ddbd26" y="262.649326"/>
      </g>
     </g>
     <g id="text_10">
      <!-- 30 -->
      <g transform="translate(34.5925 268.348154)scale(0.15 -0.15)">
       <use xlink:href="#DejaVuSans-33"/>
       <use x="63.623047" xlink:href="#DejaVuSans-30"/>
      </g>
     </g>
    </g>
    <g id="ytick_4">
     <g id="line2d_10">
      <g>
       <use style="stroke:#000000;stroke-width:0.8;" x="60.68" xlink:href="#m5463ddbd26" y="219.179071"/>
      </g>
     </g>
     <g id="text_11">
      <!-- 35 -->
      <g transform="translate(34.5925 224.877899)scale(0.15 -0.15)">
       <use xlink:href="#DejaVuSans-33"/>
       <use x="63.623047" xlink:href="#DejaVuSans-35"/>
      </g>
     </g>
    </g>
    <g id="ytick_5">
     <g id="line2d_11">
      <g>
       <use style="stroke:#000000;stroke-width:0.8;" x="60.68" xlink:href="#m5463ddbd26" y="175.708816"/>
      </g>
     </g>
     <g id="text_12">
      <!-- 40 -->
      <g transform="translate(34.5925 181.407644)scale(0.15 -0.15)">
       <use xlink:href="#DejaVuSans-34"/>
       <use x="63.623047" xlink:href="#DejaVuSans-30"/>
      </g>
     </g>
    </g>
    <g id="ytick_6">
     <g id="line2d_12">
      <g>
       <use style="stroke:#000000;stroke-width:0.8;" x="60.68" xlink:href="#m5463ddbd26" y="132.23856"/>
      </g>
     </g>
     <g id="text_13">
      <!-- 45 -->
      <g transform="translate(34.5925 137.937389)scale(0.15 -0.15)">
       <use xlink:href="#DejaVuSans-34"/>
       <use x="63.623047" xlink:href="#DejaVuSans-35"/>
      </g>
     </g>
    </g>
    <g id="ytick_7">
     <g id="line2d_13">
      <g>
       <use style="stroke:#000000;stroke-width:0.8;" x="60.68" xlink:href="#m5463ddbd26" y="88.768305"/>
      </g>
     </g>
     <g id="text_14">
      <!-- 50 -->
      <g transform="translate(34.5925 94.467133)scale(0.15 -0.15)">
       <use xlink:href="#DejaVuSans-35"/>
       <use x="63.623047" xlink:href="#DejaVuSans-30"/>
      </g>
     </g>
    </g>
    <g id="text_15">
     <!-- Test Accuracy -->
     <g transform="translate(27.472969 267.694744)rotate(-90)scale(0.15 -0.15)">
      <defs>
       <path d="M -19 4666 
L 3928 4666 
L 3928 4134 
L 2272 4134 
L 2272 0 
L 1638 0 
L 1638 4134 
L -19 4134 
L -19 4666 
z
" id="DejaVuSans-54" transform="scale(0.015625)"/>
       <path d="M 3597 1894 
L 3597 1613 
L 953 1613 
Q 991 1019 1311 708 
Q 1631 397 2203 397 
Q 2534 397 2845 478 
Q 3156 559 3463 722 
L 3463 178 
Q 3153 47 2828 -22 
Q 2503 -91 2169 -91 
Q 1331 -91 842 396 
Q 353 884 353 1716 
Q 353 2575 817 3079 
Q 1281 3584 2069 3584 
Q 2775 3584 3186 3129 
Q 3597 2675 3597 1894 
z
M 3022 2063 
Q 3016 2534 2758 2815 
Q 2500 3097 2075 3097 
Q 1594 3097 1305 2825 
Q 1016 2553 972 2059 
L 3022 2063 
z
" id="DejaVuSans-65" transform="scale(0.015625)"/>
       <path d="M 2188 4044 
L 1331 1722 
L 3047 1722 
L 2188 4044 
z
M 1831 4666 
L 2547 4666 
L 4325 0 
L 3669 0 
L 3244 1197 
L 1141 1197 
L 716 0 
L 50 0 
L 1831 4666 
z
" id="DejaVuSans-41" transform="scale(0.015625)"/>
       <path d="M 2631 2963 
Q 2534 3019 2420 3045 
Q 2306 3072 2169 3072 
Q 1681 3072 1420 2755 
Q 1159 2438 1159 1844 
L 1159 0 
L 581 0 
L 581 3500 
L 1159 3500 
L 1159 2956 
Q 1341 3275 1631 3429 
Q 1922 3584 2338 3584 
Q 2397 3584 2469 3576 
Q 2541 3569 2628 3553 
L 2631 2963 
z
" id="DejaVuSans-72" transform="scale(0.015625)"/>
       <path d="M 2059 -325 
Q 1816 -950 1584 -1140 
Q 1353 -1331 966 -1331 
L 506 -1331 
L 506 -850 
L 844 -850 
Q 1081 -850 1212 -737 
Q 1344 -625 1503 -206 
L 1606 56 
L 191 3500 
L 800 3500 
L 1894 763 
L 2988 3500 
L 3597 3500 
L 2059 -325 
z
" id="DejaVuSans-79" transform="scale(0.015625)"/>
      </defs>
      <use xlink:href="#DejaVuSans-54"/>
      <use x="44.083984" xlink:href="#DejaVuSans-65"/>
      <use x="105.607422" xlink:href="#DejaVuSans-73"/>
      <use x="157.707031" xlink:href="#DejaVuSans-74"/>
      <use x="196.916016" xlink:href="#DejaVuSans-20"/>
      <use x="228.703125" xlink:href="#DejaVuSans-41"/>
      <use x="295.361328" xlink:href="#DejaVuSans-63"/>
      <use x="350.341797" xlink:href="#DejaVuSans-63"/>
      <use x="405.322266" xlink:href="#DejaVuSans-75"/>
      <use x="468.701172" xlink:href="#DejaVuSans-72"/>
      <use x="509.814453" xlink:href="#DejaVuSans-61"/>
      <use x="571.09375" xlink:href="#DejaVuSans-63"/>
      <use x="626.074219" xlink:href="#DejaVuSans-79"/>
     </g>
    </g>
   </g>
   <g id="line2d_14">
    <path clip-path="url(#p56211f8a86)" d="M 83.219545 333.490924 
L 92.41936 243.77106 
L 101.619174 178.702418 
L 110.818989 153.358038 
L 120.018803 139.528483 
L 129.218618 131.244194 
L 138.418432 126.169436 
L 147.618247 120.972851 
L 156.818061 118.1204 
L 166.017876 113.743002 
L 175.21769 111.965996 
L 184.417505 110.180589 
L 193.617319 108.302761 
L 202.817134 103.979975 
L 212.016948 105.202454 
L 221.216763 102.282788 
L 230.416577 101.24095 
L 239.616391 99.384127 
L 248.816206 99.997467 
L 258.01602 100.648615 
L 267.215835 97.985208 
L 276.415649 96.262815 
L 285.615464 96.661906 
L 294.815278 95.258786 
L 304.015093 94.200144 
L 313.214907 94.947915 
L 322.414722 92.439943 
L 331.614536 93.015474 
L 340.814351 90.36887 
L 350.014165 90.906593 
L 359.21398 92.116469 
L 368.413794 90.515904 
L 377.613609 90.343665 
L 386.813423 88.944746 
L 396.013237 89.289224 
L 405.213052 89.499272 
L 414.412866 91.839206 
L 423.612681 90.108411 
L 432.812495 89.385846 
L 442.01231 89.390047 
L 451.212124 91.599751 
L 460.411939 88.978353 
L 469.611753 90.10421 
L 478.811568 87.613042 
L 488.011382 87.894506 
L 497.211197 87.533224 
L 506.411011 86.9913 
L 515.610826 85.827635 
L 524.81064 86.718238 
L 534.010455 85.693204 
" style="fill:none;stroke:#1f77b4;stroke-linecap:square;stroke-width:1.5;"/>
   </g>
   <g id="line2d_15">
    <path clip-path="url(#p56211f8a86)" d="M 83.219545 360.650119 
L 92.41936 328.613612 
L 101.619174 251.975531 
L 110.818989 222.9007 
L 120.018803 204.643335 
L 129.218618 195.249993 
L 138.418432 189.797149 
L 147.618247 181.046553 
L 156.818061 170.997861 
L 166.017876 168.368061 
L 175.21769 166.578453 
L 184.417505 164.524184 
L 193.617319 155.513129 
L 202.817134 150.5644 
L 212.016948 148.249672 
L 221.216763 149.295711 
L 230.416577 145.976954 
L 239.616391 141.229871 
L 248.816206 140.234244 
L 258.01602 140.08301 
L 267.215835 139.570493 
L 276.415649 137.394396 
L 285.615464 132.781744 
L 294.815278 131.303007 
L 304.015093 131.029945 
L 313.214907 132.248223 
L 322.414722 129.483992 
L 331.614536 129.593217 
L 340.814351 128.837045 
L 350.014165 128.538777 
L 359.21398 128.471561 
L 368.413794 127.307896 
L 377.613609 125.845962 
L 386.813423 123.871512 
L 396.013237 124.144574 
L 405.213052 124.766316 
L 414.412866 124.850335 
L 423.612681 124.316814 
L 432.812495 121.577789 
L 442.01231 120.145262 
L 451.212124 121.447559 
L 460.411939 117.053357 
L 469.611753 118.956391 
L 478.811568 118.918582 
L 488.011382 119.624343 
L 497.211197 119.762975 
L 506.411011 118.868171 
L 515.610826 117.225596 
L 524.81064 116.271979 
L 534.010455 116.372802 
" style="fill:none;stroke:#ff7f0e;stroke-linecap:square;stroke-width:1.5;"/>
   </g>
   <g id="line2d_16">
    <path clip-path="url(#p56211f8a86)" d="M 83.219545 314.107703 
L 92.41936 233.671956 
L 101.619174 186.591818 
L 110.818989 167.779927 
L 120.018803 160.235006 
L 129.218618 141.624761 
L 138.418432 131.172777 
L 147.618247 123.871512 
L 156.818061 120.334305 
L 166.017876 113.974054 
L 175.21769 110.617489 
L 184.417505 106.908043 
L 193.617319 103.101975 
L 202.817134 99.745409 
L 212.016948 98.968232 
L 221.216763 97.762557 
L 230.416577 96.430853 
L 239.616391 98.455715 
L 248.816206 94.116125 
L 258.01602 92.402134 
L 267.215835 90.066401 
L 276.415649 89.965578 
L 285.615464 88.150764 
L 294.815278 88.058343 
L 304.015093 90.247043 
L 313.214907 87.104726 
L 322.414722 86.63842 
L 331.614536 88.730497 
L 340.814351 86.789654 
L 350.014165 85.235299 
L 359.21398 85.861242 
L 368.413794 86.461979 
L 377.613609 84.214467 
L 386.813423 84.311089 
L 396.013237 85.348725 
L 405.213052 85.731013 
L 414.412866 84.445519 
L 423.612681 82.483672 
L 432.812495 82.269423 
L 442.01231 81.324207 
L 451.212124 79.202724 
L 460.411939 80.378992 
L 469.611753 80.845298 
L 478.811568 80.299174 
L 488.011382 80.878906 
L 497.211197 78.480159 
L 506.411011 78.274312 
L 515.610826 77.417316 
L 524.81064 80.521824 
L 534.010455 79.984102 
" style="fill:none;stroke:#2ca02c;stroke-linecap:square;stroke-width:1.5;"/>
   </g>
   <g id="line2d_17">
    <path clip-path="url(#p56211f8a86)" d="M 83.219545 303.874169 
L 92.41936 246.858764 
L 101.619174 173.220168 
L 110.818989 166.998549 
L 120.018803 149.543568 
L 129.218618 129.69404 
L 138.418432 127.312097 
L 147.618247 128.122882 
L 156.818061 122.178526 
L 166.017876 116.334993 
L 175.21769 114.839452 
L 184.417505 111.28124 
L 193.617319 106.790416 
L 202.817134 102.996951 
L 212.016948 102.975946 
L 221.216763 98.615351 
L 230.416577 96.876155 
L 239.616391 93.007072 
L 248.816206 93.21712 
L 258.01602 91.700574 
L 267.215835 91.767789 
L 276.415649 90.776363 
L 285.615464 90.221837 
L 294.815278 86.46618 
L 304.015093 85.903252 
L 313.214907 84.941232 
L 322.414722 83.848983 
L 331.614536 82.139193 
L 340.814351 82.382849 
L 350.014165 81.126762 
L 359.21398 81.689691 
L 368.413794 80.19415 
L 377.613609 80.988131 
L 386.813423 78.833039 
L 396.013237 77.539144 
L 405.213052 77.715584 
L 414.412866 77.69878 
L 423.612681 76.446895 
L 432.812495 76.367077 
L 442.01231 76.4679 
L 451.212124 76.123421 
L 460.411939 75.791545 
L 469.611753 74.590071 
L 478.811568 74.022942 
L 488.011382 73.846502 
L 497.211197 73.426406 
L 506.411011 72.640827 
L 515.610826 72.401372 
L 524.81064 71.968673 
L 534.010455 71.590587 
" style="fill:none;stroke:#d62728;stroke-linecap:square;stroke-width:1.5;"/>
   </g>
   <g id="patch_3">
    <path d="M 60.68 376 
L 60.68 56.601989 
" style="fill:none;stroke:#000000;stroke-linecap:square;stroke-linejoin:miter;stroke-width:0.8;"/>
   </g>
   <g id="patch_4">
    <path d="M 556.55 376 
L 556.55 56.601989 
" style="fill:none;stroke:#000000;stroke-linecap:square;stroke-linejoin:miter;stroke-width:0.8;"/>
   </g>
   <g id="patch_5">
    <path d="M 60.68 376 
L 556.55 376 
" style="fill:none;stroke:#000000;stroke-linecap:square;stroke-linejoin:miter;stroke-width:0.8;"/>
   </g>
   <g id="patch_6">
    <path d="M 60.68 56.601989 
L 556.55 56.601989 
" style="fill:none;stroke:#000000;stroke-linecap:square;stroke-linejoin:miter;stroke-width:0.8;"/>
   </g>
   <g id="legend_1">
    <g id="patch_7">
     <path d="M 59.017344 42.709474 
L 558.212656 42.709474 
Q 561.212656 42.709474 561.212656 39.709474 
L 561.212656 19.192287 
Q 561.212656 16.192287 558.212656 16.192287 
L 59.017344 16.192287 
Q 56.017344 16.192287 56.017344 19.192287 
L 56.017344 39.709474 
Q 56.017344 42.709474 59.017344 42.709474 
z
" style="fill:#ffffff;opacity:0.8;stroke:#cccccc;stroke-linejoin:miter;"/>
    </g>
    <g id="line2d_18">
     <path d="M 62.017344 28.339943 
L 92.017344 28.339943 
" style="fill:none;stroke:#1f77b4;stroke-linecap:square;stroke-width:1.5;"/>
    </g>
    <g id="line2d_19"/>
    <g id="text_16">
     <!-- FedAvg -->
     <g transform="translate(104.017344 33.589943)scale(0.15 -0.15)">
      <defs>
       <path d="M 628 4666 
L 3309 4666 
L 3309 4134 
L 1259 4134 
L 1259 2759 
L 3109 2759 
L 3109 2228 
L 1259 2228 
L 1259 0 
L 628 0 
L 628 4666 
z
" id="DejaVuSans-46" transform="scale(0.015625)"/>
       <path d="M 191 3500 
L 800 3500 
L 1894 563 
L 2988 3500 
L 3597 3500 
L 2284 0 
L 1503 0 
L 191 3500 
z
" id="DejaVuSans-76" transform="scale(0.015625)"/>
       <path d="M 2906 1791 
Q 2906 2416 2648 2759 
Q 2391 3103 1925 3103 
Q 1463 3103 1205 2759 
Q 947 2416 947 1791 
Q 947 1169 1205 825 
Q 1463 481 1925 481 
Q 2391 481 2648 825 
Q 2906 1169 2906 1791 
z
M 3481 434 
Q 3481 -459 3084 -895 
Q 2688 -1331 1869 -1331 
Q 1566 -1331 1297 -1286 
Q 1028 -1241 775 -1147 
L 775 -588 
Q 1028 -725 1275 -790 
Q 1522 -856 1778 -856 
Q 2344 -856 2625 -561 
Q 2906 -266 2906 331 
L 2906 616 
Q 2728 306 2450 153 
Q 2172 0 1784 0 
Q 1141 0 747 490 
Q 353 981 353 1791 
Q 353 2603 747 3093 
Q 1141 3584 1784 3584 
Q 2172 3584 2450 3431 
Q 2728 3278 2906 2969 
L 2906 3500 
L 3481 3500 
L 3481 434 
z
" id="DejaVuSans-67" transform="scale(0.015625)"/>
      </defs>
      <use xlink:href="#DejaVuSans-46"/>
      <use x="52.019531" xlink:href="#DejaVuSans-65"/>
      <use x="113.542969" xlink:href="#DejaVuSans-64"/>
      <use x="177.019531" xlink:href="#DejaVuSans-41"/>
      <use x="239.552734" xlink:href="#DejaVuSans-76"/>
      <use x="298.732422" xlink:href="#DejaVuSans-67"/>
     </g>
    </g>
    <g id="line2d_20">
     <path d="M 188.3525 28.339943 
L 218.3525 28.339943 
" style="fill:none;stroke:#ff7f0e;stroke-linecap:square;stroke-width:1.5;"/>
    </g>
    <g id="line2d_21"/>
    <g id="text_17">
     <!-- FedMed -->
     <g transform="translate(230.3525 33.589943)scale(0.15 -0.15)">
      <defs>
       <path d="M 628 4666 
L 1569 4666 
L 2759 1491 
L 3956 4666 
L 4897 4666 
L 4897 0 
L 4281 0 
L 4281 4097 
L 3078 897 
L 2444 897 
L 1241 4097 
L 1241 0 
L 628 0 
L 628 4666 
z
" id="DejaVuSans-4d" transform="scale(0.015625)"/>
      </defs>
      <use xlink:href="#DejaVuSans-46"/>
      <use x="52.019531" xlink:href="#DejaVuSans-65"/>
      <use x="113.542969" xlink:href="#DejaVuSans-64"/>
      <use x="177.019531" xlink:href="#DejaVuSans-4d"/>
      <use x="263.298828" xlink:href="#DejaVuSans-65"/>
      <use x="324.822266" xlink:href="#DejaVuSans-64"/>
     </g>
    </g>
    <g id="line2d_22">
     <path d="M 318.601719 28.339943 
L 348.601719 28.339943 
" style="fill:none;stroke:#2ca02c;stroke-linecap:square;stroke-width:1.5;"/>
    </g>
    <g id="line2d_23"/>
    <g id="text_18">
     <!-- FedProx -->
     <g transform="translate(360.601719 33.589943)scale(0.15 -0.15)">
      <defs>
       <path d="M 1259 4147 
L 1259 2394 
L 2053 2394 
Q 2494 2394 2734 2622 
Q 2975 2850 2975 3272 
Q 2975 3691 2734 3919 
Q 2494 4147 2053 4147 
L 1259 4147 
z
M 628 4666 
L 2053 4666 
Q 2838 4666 3239 4311 
Q 3641 3956 3641 3272 
Q 3641 2581 3239 2228 
Q 2838 1875 2053 1875 
L 1259 1875 
L 1259 0 
L 628 0 
L 628 4666 
z
" id="DejaVuSans-50" transform="scale(0.015625)"/>
       <path d="M 3513 3500 
L 2247 1797 
L 3578 0 
L 2900 0 
L 1881 1375 
L 863 0 
L 184 0 
L 1544 1831 
L 300 3500 
L 978 3500 
L 1906 2253 
L 2834 3500 
L 3513 3500 
z
" id="DejaVuSans-78" transform="scale(0.015625)"/>
      </defs>
      <use xlink:href="#DejaVuSans-46"/>
      <use x="52.019531" xlink:href="#DejaVuSans-65"/>
      <use x="113.542969" xlink:href="#DejaVuSans-64"/>
      <use x="177.019531" xlink:href="#DejaVuSans-50"/>
      <use x="235.572266" xlink:href="#DejaVuSans-72"/>
      <use x="274.435547" xlink:href="#DejaVuSans-6f"/>
      <use x="332.492188" xlink:href="#DejaVuSans-78"/>
     </g>
    </g>
    <g id="line2d_24">
     <path d="M 449.354844 28.339943 
L 479.354844 28.339943 
" style="fill:none;stroke:#d62728;stroke-linecap:square;stroke-width:1.5;"/>
    </g>
    <g id="line2d_25"/>
    <g id="text_19">
     <!-- qFedAvg -->
     <g transform="translate(491.354844 33.589943)scale(0.15 -0.15)">
      <defs>
       <path d="M 947 1747 
Q 947 1113 1208 752 
Q 1469 391 1925 391 
Q 2381 391 2643 752 
Q 2906 1113 2906 1747 
Q 2906 2381 2643 2742 
Q 2381 3103 1925 3103 
Q 1469 3103 1208 2742 
Q 947 2381 947 1747 
z
M 2906 525 
Q 2725 213 2448 61 
Q 2172 -91 1784 -91 
Q 1150 -91 751 415 
Q 353 922 353 1747 
Q 353 2572 751 3078 
Q 1150 3584 1784 3584 
Q 2172 3584 2448 3432 
Q 2725 3281 2906 2969 
L 2906 3500 
L 3481 3500 
L 3481 -1331 
L 2906 -1331 
L 2906 525 
z
" id="DejaVuSans-71" transform="scale(0.015625)"/>
      </defs>
      <use xlink:href="#DejaVuSans-71"/>
      <use x="63.476562" xlink:href="#DejaVuSans-46"/>
      <use x="115.496094" xlink:href="#DejaVuSans-65"/>
      <use x="177.019531" xlink:href="#DejaVuSans-64"/>
      <use x="240.496094" xlink:href="#DejaVuSans-41"/>
      <use x="303.029297" xlink:href="#DejaVuSans-76"/>
      <use x="362.208984" xlink:href="#DejaVuSans-67"/>
     </g>
    </g>
   </g>
  </g>
 </g>
 <defs>
  <clipPath id="p56211f8a86">
   <rect height="319.398011" width="495.87" x="60.68" y="56.601989"/>
  </clipPath>
 </defs>
</svg>
