<?xml version="1.0" encoding="utf-8" standalone="no"?>
<!DOCTYPE svg PUBLIC "-//W3C//DTD SVG 1.1//EN"
  "http://www.w3.org/Graphics/SVG/1.1/DTD/svg11.dtd">
<svg height="345.6pt" version="1.1" viewBox="0 0 460.8 345.6" width="460.8pt" xmlns="http://www.w3.org/2000/svg" xmlns:xlink="http://www.w3.org/1999/xlink">
 <metadata>
  <rdf:RDF xmlns:cc="http://creativecommons.org/ns#" xmlns:dc="http://purl.org/dc/elements/1.1/" xmlns:rdf="http://www.w3.org/1999/02/22-rdf-syntax-ns#">
   <cc:Work>
    <dc:type rdf:resource="http://purl.org/dc/dcmitype/StillImage"/>
    <dc:date>2021-05-07T11:38:11.871476</dc:date>
    <dc:format>image/svg+xml</dc:format>
    <dc:creator>
     <cc:Agent>
      <dc:title>Matplotlib v3.4.1, https://matplotlib.org/</dc:title>
     </cc:Agent>
    </dc:creator>
   </cc:Work>
  </rdf:RDF>
 </metadata>
 <defs>
  <style type="text/css">*{stroke-linecap:butt;stroke-linejoin:round;}</style>
 </defs>
 <g id="figure_1">
  <g id="patch_1">
   <path d="M 0 345.6 
L 460.8 345.6 
L 460.8 0 
L 0 0 
z
" style="fill:#ffffff;"/>
  </g>
  <g id="axes_1">
   <g id="patch_2">
    <path d="M 44.48 303.64 
L 450 303.64 
L 450 48.38 
L 44.48 48.38 
z
" style="fill:#ffffff;"/>
   </g>
   <g id="PolyCollection_1">
    <path clip-path="url(#p7e9ef7e7f7)" d="M 62.912727 247.29699 
L 62.912727 292.037273 
L 70.436289 228.052558 
L 77.959852 155.64085 
L 85.483414 130.675463 
L 93.006976 118.857528 
L 100.530538 108.563839 
L 108.0541 108.496692 
L 115.577662 101.640947 
L 123.101224 99.431799 
L 130.624787 97.296513 
L 138.148349 96.275873 
L 145.671911 92.381326 
L 153.195473 92.92522 
L 160.719035 88.016748 
L 168.242597 89.205256 
L 175.76616 88.312197 
L 183.289722 87.016253 
L 190.813284 84.733242 
L 198.336846 84.585518 
L 205.860408 86.015757 
L 213.38397 83.934189 
L 220.907532 81.906339 
L 228.431095 82.033919 
L 235.954657 80.818552 
L 243.478219 79.992639 
L 251.001781 80.308232 
L 258.525343 78.280382 
L 266.048905 77.998363 
L 273.572468 76.346538 
L 281.09603 76.93072 
L 288.619592 77.850639 
L 296.143154 76.386826 
L 303.666716 75.419904 
L 311.190278 76.695704 
L 318.71384 77.138877 
L 326.237403 76.722563 
L 333.760965 78.716839 
L 341.284527 75.500481 
L 348.808089 75.198318 
L 356.331651 75.735497 
L 363.855213 78.219949 
L 371.378776 77.17245 
L 378.902338 77.917786 
L 386.4259 75.003591 
L 393.949462 73.62707 
L 401.473024 74.614136 
L 408.996586 74.829008 
L 416.520148 73.580067 
L 424.043711 73.143609 
L 431.567273 72.257264 
L 431.567273 71.001608 
L 431.567273 71.001608 
L 424.043711 71.753659 
L 416.520148 69.893677 
L 408.996586 70.504718 
L 401.473024 71.58579 
L 393.949462 73.150324 
L 386.4259 71.323916 
L 378.902338 72.391559 
L 371.378776 71.337345 
L 363.855213 74.479841 
L 356.331651 73.432343 
L 348.808089 73.962807 
L 341.284527 74.815578 
L 333.760965 74.365691 
L 326.237403 72.61986 
L 318.71384 71.867809 
L 311.190278 71.760373 
L 303.666716 75.27218 
L 296.143154 74.580562 
L 288.619592 75.675064 
L 281.09603 74.661139 
L 273.572468 74.385835 
L 266.048905 76.964293 
L 258.525343 75.762356 
L 251.001781 77.743203 
L 243.478219 76.863572 
L 235.954657 77.729773 
L 228.431095 78.757128 
L 220.907532 78.246808 
L 213.38397 78.971999 
L 205.860408 81.147574 
L 198.336846 81.537028 
L 190.813284 80.408953 
L 183.289722 81.093856 
L 175.76616 81.463166 
L 168.242597 85.236848 
L 160.719035 84.471368 
L 153.195473 86.472359 
L 145.671911 90.017739 
L 138.148349 88.976955 
L 130.624787 90.796649 
L 123.101224 95.658117 
L 115.577662 98.008275 
L 108.0541 99.458658 
L 100.530538 107.502911 
L 93.006976 110.45068 
L 85.483414 120.737654 
L 77.959852 136.282267 
L 70.436289 167.875098 
L 62.912727 247.29699 
z
" style="fill:#1f77b4;fill-opacity:0.5;"/>
   </g>
   <g id="PolyCollection_2">
    <path clip-path="url(#p7e9ef7e7f7)" d="M 62.912727 290.707755 
L 62.912727 292.037273 
L 70.436289 267.582206 
L 77.959852 212.702672 
L 85.483414 189.550264 
L 93.006976 172.501551 
L 100.530538 171.292898 
L 108.0541 164.329718 
L 115.577662 149.778886 
L 123.101224 143.836345 
L 130.624787 140.149955 
L 138.148349 137.537923 
L 145.671911 134.82517 
L 153.195473 131.749821 
L 160.719035 126.666766 
L 168.242597 124.672489 
L 175.76616 124.833643 
L 183.289722 120.999529 
L 190.813284 117.662306 
L 198.336846 115.553879 
L 205.860408 116.238782 
L 213.38397 117.991328 
L 220.907532 115.117421 
L 228.431095 110.289526 
L 235.954657 110.69241 
L 243.478219 109.477043 
L 251.001781 109.913501 
L 258.525343 106.784434 
L 266.048905 107.684209 
L 273.572468 106.482271 
L 281.09603 106.999306 
L 288.619592 106.421838 
L 296.143154 104.97817 
L 303.666716 106.482271 
L 311.190278 103.57479 
L 318.71384 104.407418 
L 326.237403 102.970464 
L 333.760965 103.984389 
L 341.284527 103.709085 
L 348.808089 102.534006 
L 356.331651 99.51909 
L 363.855213 101.338783 
L 371.378776 97.12193 
L 378.902338 98.934908 
L 386.4259 99.109491 
L 393.949462 99.351222 
L 401.473024 99.908545 
L 408.996586 98.162714 
L 416.520148 97.511384 
L 424.043711 97.927698 
L 431.567273 96.692186 
L 431.567273 95.604399 
L 431.567273 95.604399 
L 424.043711 94.207734 
L 416.520148 96.148293 
L 408.996586 98.122425 
L 401.473024 97.806833 
L 393.949462 98.142569 
L 386.4259 97.256224 
L 378.902338 97.49124 
L 371.378776 96.262443 
L 363.855213 99.069203 
L 356.331651 98.807328 
L 348.808089 98.082137 
L 341.284527 101.285066 
L 333.760965 101.862533 
L 326.237403 102.742163 
L 318.71384 100.311429 
L 311.190278 100.707598 
L 303.666716 100.956044 
L 296.143154 104.796872 
L 288.619592 105.213186 
L 281.09603 104.743154 
L 273.572468 105.736935 
L 266.048905 105.74365 
L 258.525343 106.468841 
L 251.001781 107.758071 
L 243.478219 106.247255 
L 235.954657 105.468346 
L 228.431095 108.234817 
L 220.907532 110.779702 
L 213.38397 111.384028 
L 205.860408 113.955772 
L 198.336846 114.882405 
L 190.813284 114.36537 
L 183.289722 118.615798 
L 175.76616 120.086325 
L 168.242597 118.57551 
L 160.719035 120.281052 
L 153.195473 123.107956 
L 145.671911 134.435715 
L 138.148349 135.006467 
L 130.624787 135.254913 
L 123.101224 135.771947 
L 115.577662 145.891054 
L 108.0541 145.327016 
L 100.530538 147.079562 
L 93.006976 160.885058 
L 85.483414 173.018585 
L 77.959852 196.338862 
L 70.436289 263.956249 
L 62.912727 290.707755 
z
" style="fill:#ff7f0e;fill-opacity:0.5;"/>
   </g>
   <g id="PolyCollection_3">
    <path clip-path="url(#p7e9ef7e7f7)" d="M 62.912727 248.149761 
L 62.912727 260.202712 
L 70.436289 192.101864 
L 77.959852 154.156893 
L 85.483414 138.659284 
L 93.006976 136.047251 
L 100.530538 118.797096 
L 108.0541 108.080378 
L 115.577662 103.57479 
L 123.101224 100.291285 
L 130.624787 96.390023 
L 138.148349 94.086869 
L 145.671911 90.51463 
L 153.195473 85.908321 
L 160.719035 83.934189 
L 168.242597 83.430584 
L 175.76616 82.423373 
L 183.289722 80.952846 
L 190.813284 83.477587 
L 198.336846 78.522112 
L 205.860408 77.461184 
L 213.38397 76.480832 
L 220.907532 76.809855 
L 228.431095 76.138381 
L 235.954657 74.00981 
L 243.478219 76.870287 
L 251.001781 74.996876 
L 258.525343 74.177678 
L 266.048905 74.782004 
L 273.572468 74.896155 
L 281.09603 73.566637 
L 288.619592 75.137885 
L 296.143154 74.12396 
L 303.666716 73.721076 
L 311.190278 72.955596 
L 318.71384 75.178174 
L 326.237403 75.178174 
L 333.760965 74.795434 
L 341.284527 72.069251 
L 348.808089 71.518643 
L 356.331651 69.336354 
L 363.855213 68.275426 
L 371.378776 68.93347 
L 378.902338 70.471144 
L 386.4259 68.987188 
L 393.949462 69.692235 
L 401.473024 68.92004 
L 408.996586 66.999626 
L 416.520148 67.308504 
L 424.043711 69.329639 
L 431.567273 68.960329 
L 431.567273 65.173218 
L 431.567273 65.173218 
L 424.043711 65.663394 
L 416.520148 62.722339 
L 408.996586 64.401023 
L 401.473024 62.809631 
L 393.949462 65.87155 
L 386.4259 65.649964 
L 378.902338 65.038923 
L 371.378776 65.831262 
L 363.855213 64.60918 
L 356.331651 66.939193 
L 348.808089 66.26772 
L 341.284527 66.059563 
L 333.760965 66.469162 
L 326.237403 68.141131 
L 318.71384 67.53009 
L 311.190278 68.094128 
L 303.666716 67.174209 
L 296.143154 70.363708 
L 288.619592 68.389576 
L 281.09603 68.960329 
L 273.572468 70.115263 
L 266.048905 73.331622 
L 258.525343 70.592009 
L 251.001781 70.518147 
L 243.478219 73.667358 
L 235.954657 73.029458 
L 228.431095 71.048611 
L 220.907532 73.277904 
L 213.38397 73.768079 
L 205.860408 76.521121 
L 198.336846 78.199805 
L 190.813284 80.180652 
L 183.289722 79.46889 
L 175.76616 80.126934 
L 168.242597 81.046853 
L 160.719035 81.785474 
L 153.195473 85.176415 
L 145.671911 86.653657 
L 138.148349 89.010529 
L 130.624787 92.072448 
L 123.101224 98.337297 
L 115.577662 100.707598 
L 108.0541 107.872221 
L 100.530538 113.861765 
L 93.006976 126.357888 
L 85.483414 135.805521 
L 77.959852 150.376497 
L 70.436289 187.683568 
L 62.912727 248.149761 
z
" style="fill:#2ca02c;fill-opacity:0.5;"/>
   </g>
   <g id="PolyCollection_4">
    <path clip-path="url(#p7e9ef7e7f7)" d="M 62.912727 243.080136 
L 62.912727 248.915241 
L 70.436289 208.875273 
L 77.959852 144.33995 
L 85.483414 138.692857 
L 93.006976 125.28353 
L 100.530538 109.074159 
L 108.0541 110.121658 
L 115.577662 109.658341 
L 123.101224 104.071681 
L 130.624787 99.230356 
L 138.148349 98.740181 
L 145.671911 93.341533 
L 153.195473 92.072448 
L 160.719035 87.33856 
L 168.242597 87.311701 
L 175.76616 83.168709 
L 183.289722 81.214721 
L 190.813284 79.932207 
L 198.336846 77.770062 
L 205.860408 76.78971 
L 213.38397 76.870287 
L 220.907532 76.621842 
L 228.431095 76.863572 
L 235.954657 72.398273 
L 243.478219 71.85438 
L 251.001781 72.089395 
L 258.525343 72.73401 
L 266.048905 70.477859 
L 273.572468 70.551721 
L 281.09603 68.893181 
L 288.619592 69.497508 
L 296.143154 68.134416 
L 303.666716 68.570874 
L 311.190278 66.220717 
L 318.71384 65.24708 
L 326.237403 65.327657 
L 333.760965 65.307513 
L 341.284527 64.300302 
L 348.808089 64.49503 
L 356.331651 64.340591 
L 363.855213 64.824052 
L 371.378776 63.964565 
L 378.902338 63.105079 
L 386.4259 62.762628 
L 393.949462 62.406747 
L 401.473024 62.144872 
L 408.996586 61.674841 
L 416.520148 62.030722 
L 424.043711 60.835499 
L 431.567273 60.519906 
L 431.567273 60.197599 
L 431.567273 60.197599 
L 424.043711 60.486332 
L 416.520148 59.982727 
L 408.996586 60.721348 
L 401.473024 61.506972 
L 393.949462 61.916571 
L 386.4259 61.842709 
L 378.902338 62.406747 
L 371.378776 63.467675 
L 363.855213 63.138653 
L 356.331651 64.172722 
L 348.808089 63.85713 
L 341.284527 64.179437 
L 333.760965 65.173218 
L 326.237403 65.179933 
L 318.71384 64.978491 
L 311.190278 66.072992 
L 303.666716 67.167494 
L 296.143154 66.334867 
L 288.619592 67.362222 
L 281.09603 67.066773 
L 273.572468 67.41594 
L 266.048905 67.100347 
L 258.525343 67.577093 
L 251.001781 69.967539 
L 243.478219 71.740229 
L 235.954657 72.09611 
L 228.431095 73.633785 
L 220.907532 74.76186 
L 213.38397 76.098093 
L 205.860408 76.071234 
L 198.336846 77.514902 
L 190.813284 75.01702 
L 183.289722 79.918777 
L 175.76616 80.74469 
L 168.242597 83.571593 
L 160.719035 83.578308 
L 153.195473 84.907826 
L 145.671911 90.816793 
L 138.148349 91.105526 
L 130.624787 93.005797 
L 123.101224 97.504669 
L 115.577662 101.41936 
L 108.0541 99.6601 
L 100.530538 104.514853 
L 93.006976 120.032607 
L 85.483414 134.523006 
L 77.959852 138.820437 
L 70.436289 191.987713 
L 62.912727 243.080136 
z
" style="fill:#d62728;fill-opacity:0.5;"/>
   </g>
   <g id="matplotlib.axis_1">
    <g id="xtick_1">
     <g id="line2d_1">
      <defs>
       <path d="M 0 0 
L 0 3.5 
" id="m79c3d63a3f" style="stroke:#000000;stroke-width:0.8;"/>
      </defs>
      <g>
       <use style="stroke:#000000;stroke-width:0.8;" x="62.912727" xlink:href="#m79c3d63a3f" y="303.64"/>
      </g>
     </g>
     <g id="text_1">
      <!-- 0 -->
      <g transform="translate(59.731477 318.238437)scale(0.1 -0.1)">
       <defs>
        <path d="M 2034 4250 
Q 1547 4250 1301 3770 
Q 1056 3291 1056 2328 
Q 1056 1369 1301 889 
Q 1547 409 2034 409 
Q 2525 409 2770 889 
Q 3016 1369 3016 2328 
Q 3016 3291 2770 3770 
Q 2525 4250 2034 4250 
z
M 2034 4750 
Q 2819 4750 3233 4129 
Q 3647 3509 3647 2328 
Q 3647 1150 3233 529 
Q 2819 -91 2034 -91 
Q 1250 -91 836 529 
Q 422 1150 422 2328 
Q 422 3509 836 4129 
Q 1250 4750 2034 4750 
z
" id="DejaVuSans-30" transform="scale(0.015625)"/>
       </defs>
       <use xlink:href="#DejaVuSans-30"/>
      </g>
     </g>
    </g>
    <g id="xtick_2">
     <g id="line2d_2">
      <g>
       <use style="stroke:#000000;stroke-width:0.8;" x="138.148349" xlink:href="#m79c3d63a3f" y="303.64"/>
      </g>
     </g>
     <g id="text_2">
      <!-- 10 -->
      <g transform="translate(131.785849 318.238437)scale(0.1 -0.1)">
       <defs>
        <path d="M 794 531 
L 1825 531 
L 1825 4091 
L 703 3866 
L 703 4441 
L 1819 4666 
L 2450 4666 
L 2450 531 
L 3481 531 
L 3481 0 
L 794 0 
L 794 531 
z
" id="DejaVuSans-31" transform="scale(0.015625)"/>
       </defs>
       <use xlink:href="#DejaVuSans-31"/>
       <use x="63.623047" xlink:href="#DejaVuSans-30"/>
      </g>
     </g>
    </g>
    <g id="xtick_3">
     <g id="line2d_3">
      <g>
       <use style="stroke:#000000;stroke-width:0.8;" x="213.38397" xlink:href="#m79c3d63a3f" y="303.64"/>
      </g>
     </g>
     <g id="text_3">
      <!-- 20 -->
      <g transform="translate(207.02147 318.238437)scale(0.1 -0.1)">
       <defs>
        <path d="M 1228 531 
L 3431 531 
L 3431 0 
L 469 0 
L 469 531 
Q 828 903 1448 1529 
Q 2069 2156 2228 2338 
Q 2531 2678 2651 2914 
Q 2772 3150 2772 3378 
Q 2772 3750 2511 3984 
Q 2250 4219 1831 4219 
Q 1534 4219 1204 4116 
Q 875 4013 500 3803 
L 500 4441 
Q 881 4594 1212 4672 
Q 1544 4750 1819 4750 
Q 2544 4750 2975 4387 
Q 3406 4025 3406 3419 
Q 3406 3131 3298 2873 
Q 3191 2616 2906 2266 
Q 2828 2175 2409 1742 
Q 1991 1309 1228 531 
z
" id="DejaVuSans-32" transform="scale(0.015625)"/>
       </defs>
       <use xlink:href="#DejaVuSans-32"/>
       <use x="63.623047" xlink:href="#DejaVuSans-30"/>
      </g>
     </g>
    </g>
    <g id="xtick_4">
     <g id="line2d_4">
      <g>
       <use style="stroke:#000000;stroke-width:0.8;" x="288.619592" xlink:href="#m79c3d63a3f" y="303.64"/>
      </g>
     </g>
     <g id="text_4">
      <!-- 30 -->
      <g transform="translate(282.257092 318.238437)scale(0.1 -0.1)">
       <defs>
        <path d="M 2597 2516 
Q 3050 2419 3304 2112 
Q 3559 1806 3559 1356 
Q 3559 666 3084 287 
Q 2609 -91 1734 -91 
Q 1441 -91 1130 -33 
Q 819 25 488 141 
L 488 750 
Q 750 597 1062 519 
Q 1375 441 1716 441 
Q 2309 441 2620 675 
Q 2931 909 2931 1356 
Q 2931 1769 2642 2001 
Q 2353 2234 1838 2234 
L 1294 2234 
L 1294 2753 
L 1863 2753 
Q 2328 2753 2575 2939 
Q 2822 3125 2822 3475 
Q 2822 3834 2567 4026 
Q 2313 4219 1838 4219 
Q 1578 4219 1281 4162 
Q 984 4106 628 3988 
L 628 4550 
Q 988 4650 1302 4700 
Q 1616 4750 1894 4750 
Q 2613 4750 3031 4423 
Q 3450 4097 3450 3541 
Q 3450 3153 3228 2886 
Q 3006 2619 2597 2516 
z
" id="DejaVuSans-33" transform="scale(0.015625)"/>
       </defs>
       <use xlink:href="#DejaVuSans-33"/>
       <use x="63.623047" xlink:href="#DejaVuSans-30"/>
      </g>
     </g>
    </g>
    <g id="xtick_5">
     <g id="line2d_5">
      <g>
       <use style="stroke:#000000;stroke-width:0.8;" x="363.855213" xlink:href="#m79c3d63a3f" y="303.64"/>
      </g>
     </g>
     <g id="text_5">
      <!-- 40 -->
      <g transform="translate(357.492713 318.238437)scale(0.1 -0.1)">
       <defs>
        <path d="M 2419 4116 
L 825 1625 
L 2419 1625 
L 2419 4116 
z
M 2253 4666 
L 3047 4666 
L 3047 1625 
L 3713 1625 
L 3713 1100 
L 3047 1100 
L 3047 0 
L 2419 0 
L 2419 1100 
L 313 1100 
L 313 1709 
L 2253 4666 
z
" id="DejaVuSans-34" transform="scale(0.015625)"/>
       </defs>
       <use xlink:href="#DejaVuSans-34"/>
       <use x="63.623047" xlink:href="#DejaVuSans-30"/>
      </g>
     </g>
    </g>
    <g id="xtick_6">
     <g id="line2d_6">
      <g>
       <use style="stroke:#000000;stroke-width:0.8;" x="439.090835" xlink:href="#m79c3d63a3f" y="303.64"/>
      </g>
     </g>
     <g id="text_6">
      <!-- 50 -->
      <g transform="translate(432.728335 318.238437)scale(0.1 -0.1)">
       <defs>
        <path d="M 691 4666 
L 3169 4666 
L 3169 4134 
L 1269 4134 
L 1269 2991 
Q 1406 3038 1543 3061 
Q 1681 3084 1819 3084 
Q 2600 3084 3056 2656 
Q 3513 2228 3513 1497 
Q 3513 744 3044 326 
Q 2575 -91 1722 -91 
Q 1428 -91 1123 -41 
Q 819 9 494 109 
L 494 744 
Q 775 591 1075 516 
Q 1375 441 1709 441 
Q 2250 441 2565 725 
Q 2881 1009 2881 1497 
Q 2881 1984 2565 2268 
Q 2250 2553 1709 2553 
Q 1456 2553 1204 2497 
Q 953 2441 691 2322 
L 691 4666 
z
" id="DejaVuSans-35" transform="scale(0.015625)"/>
       </defs>
       <use xlink:href="#DejaVuSans-35"/>
       <use x="63.623047" xlink:href="#DejaVuSans-30"/>
      </g>
     </g>
    </g>
    <g id="text_7">
     <!-- Global Communication Rounds -->
     <g transform="translate(170.278281 331.916562)scale(0.1 -0.1)">
      <defs>
       <path d="M 3809 666 
L 3809 1919 
L 2778 1919 
L 2778 2438 
L 4434 2438 
L 4434 434 
Q 4069 175 3628 42 
Q 3188 -91 2688 -91 
Q 1594 -91 976 548 
Q 359 1188 359 2328 
Q 359 3472 976 4111 
Q 1594 4750 2688 4750 
Q 3144 4750 3555 4637 
Q 3966 4525 4313 4306 
L 4313 3634 
Q 3963 3931 3569 4081 
Q 3175 4231 2741 4231 
Q 1884 4231 1454 3753 
Q 1025 3275 1025 2328 
Q 1025 1384 1454 906 
Q 1884 428 2741 428 
Q 3075 428 3337 486 
Q 3600 544 3809 666 
z
" id="DejaVuSans-47" transform="scale(0.015625)"/>
       <path d="M 603 4863 
L 1178 4863 
L 1178 0 
L 603 0 
L 603 4863 
z
" id="DejaVuSans-6c" transform="scale(0.015625)"/>
       <path d="M 1959 3097 
Q 1497 3097 1228 2736 
Q 959 2375 959 1747 
Q 959 1119 1226 758 
Q 1494 397 1959 397 
Q 2419 397 2687 759 
Q 2956 1122 2956 1747 
Q 2956 2369 2687 2733 
Q 2419 3097 1959 3097 
z
M 1959 3584 
Q 2709 3584 3137 3096 
Q 3566 2609 3566 1747 
Q 3566 888 3137 398 
Q 2709 -91 1959 -91 
Q 1206 -91 779 398 
Q 353 888 353 1747 
Q 353 2609 779 3096 
Q 1206 3584 1959 3584 
z
" id="DejaVuSans-6f" transform="scale(0.015625)"/>
       <path d="M 3116 1747 
Q 3116 2381 2855 2742 
Q 2594 3103 2138 3103 
Q 1681 3103 1420 2742 
Q 1159 2381 1159 1747 
Q 1159 1113 1420 752 
Q 1681 391 2138 391 
Q 2594 391 2855 752 
Q 3116 1113 3116 1747 
z
M 1159 2969 
Q 1341 3281 1617 3432 
Q 1894 3584 2278 3584 
Q 2916 3584 3314 3078 
Q 3713 2572 3713 1747 
Q 3713 922 3314 415 
Q 2916 -91 2278 -91 
Q 1894 -91 1617 61 
Q 1341 213 1159 525 
L 1159 0 
L 581 0 
L 581 4863 
L 1159 4863 
L 1159 2969 
z
" id="DejaVuSans-62" transform="scale(0.015625)"/>
       <path d="M 2194 1759 
Q 1497 1759 1228 1600 
Q 959 1441 959 1056 
Q 959 750 1161 570 
Q 1363 391 1709 391 
Q 2188 391 2477 730 
Q 2766 1069 2766 1631 
L 2766 1759 
L 2194 1759 
z
M 3341 1997 
L 3341 0 
L 2766 0 
L 2766 531 
Q 2569 213 2275 61 
Q 1981 -91 1556 -91 
Q 1019 -91 701 211 
Q 384 513 384 1019 
Q 384 1609 779 1909 
Q 1175 2209 1959 2209 
L 2766 2209 
L 2766 2266 
Q 2766 2663 2505 2880 
Q 2244 3097 1772 3097 
Q 1472 3097 1187 3025 
Q 903 2953 641 2809 
L 641 3341 
Q 956 3463 1253 3523 
Q 1550 3584 1831 3584 
Q 2591 3584 2966 3190 
Q 3341 2797 3341 1997 
z
" id="DejaVuSans-61" transform="scale(0.015625)"/>
       <path id="DejaVuSans-20" transform="scale(0.015625)"/>
       <path d="M 4122 4306 
L 4122 3641 
Q 3803 3938 3442 4084 
Q 3081 4231 2675 4231 
Q 1875 4231 1450 3742 
Q 1025 3253 1025 2328 
Q 1025 1406 1450 917 
Q 1875 428 2675 428 
Q 3081 428 3442 575 
Q 3803 722 4122 1019 
L 4122 359 
Q 3791 134 3420 21 
Q 3050 -91 2638 -91 
Q 1578 -91 968 557 
Q 359 1206 359 2328 
Q 359 3453 968 4101 
Q 1578 4750 2638 4750 
Q 3056 4750 3426 4639 
Q 3797 4528 4122 4306 
z
" id="DejaVuSans-43" transform="scale(0.015625)"/>
       <path d="M 3328 2828 
Q 3544 3216 3844 3400 
Q 4144 3584 4550 3584 
Q 5097 3584 5394 3201 
Q 5691 2819 5691 2113 
L 5691 0 
L 5113 0 
L 5113 2094 
Q 5113 2597 4934 2840 
Q 4756 3084 4391 3084 
Q 3944 3084 3684 2787 
Q 3425 2491 3425 1978 
L 3425 0 
L 2847 0 
L 2847 2094 
Q 2847 2600 2669 2842 
Q 2491 3084 2119 3084 
Q 1678 3084 1418 2786 
Q 1159 2488 1159 1978 
L 1159 0 
L 581 0 
L 581 3500 
L 1159 3500 
L 1159 2956 
Q 1356 3278 1631 3431 
Q 1906 3584 2284 3584 
Q 2666 3584 2933 3390 
Q 3200 3197 3328 2828 
z
" id="DejaVuSans-6d" transform="scale(0.015625)"/>
       <path d="M 544 1381 
L 544 3500 
L 1119 3500 
L 1119 1403 
Q 1119 906 1312 657 
Q 1506 409 1894 409 
Q 2359 409 2629 706 
Q 2900 1003 2900 1516 
L 2900 3500 
L 3475 3500 
L 3475 0 
L 2900 0 
L 2900 538 
Q 2691 219 2414 64 
Q 2138 -91 1772 -91 
Q 1169 -91 856 284 
Q 544 659 544 1381 
z
M 1991 3584 
L 1991 3584 
z
" id="DejaVuSans-75" transform="scale(0.015625)"/>
       <path d="M 3513 2113 
L 3513 0 
L 2938 0 
L 2938 2094 
Q 2938 2591 2744 2837 
Q 2550 3084 2163 3084 
Q 1697 3084 1428 2787 
Q 1159 2491 1159 1978 
L 1159 0 
L 581 0 
L 581 3500 
L 1159 3500 
L 1159 2956 
Q 1366 3272 1645 3428 
Q 1925 3584 2291 3584 
Q 2894 3584 3203 3211 
Q 3513 2838 3513 2113 
z
" id="DejaVuSans-6e" transform="scale(0.015625)"/>
       <path d="M 603 3500 
L 1178 3500 
L 1178 0 
L 603 0 
L 603 3500 
z
M 603 4863 
L 1178 4863 
L 1178 4134 
L 603 4134 
L 603 4863 
z
" id="DejaVuSans-69" transform="scale(0.015625)"/>
       <path d="M 3122 3366 
L 3122 2828 
Q 2878 2963 2633 3030 
Q 2388 3097 2138 3097 
Q 1578 3097 1268 2742 
Q 959 2388 959 1747 
Q 959 1106 1268 751 
Q 1578 397 2138 397 
Q 2388 397 2633 464 
Q 2878 531 3122 666 
L 3122 134 
Q 2881 22 2623 -34 
Q 2366 -91 2075 -91 
Q 1284 -91 818 406 
Q 353 903 353 1747 
Q 353 2603 823 3093 
Q 1294 3584 2113 3584 
Q 2378 3584 2631 3529 
Q 2884 3475 3122 3366 
z
" id="DejaVuSans-63" transform="scale(0.015625)"/>
       <path d="M 1172 4494 
L 1172 3500 
L 2356 3500 
L 2356 3053 
L 1172 3053 
L 1172 1153 
Q 1172 725 1289 603 
Q 1406 481 1766 481 
L 2356 481 
L 2356 0 
L 1766 0 
Q 1100 0 847 248 
Q 594 497 594 1153 
L 594 3053 
L 172 3053 
L 172 3500 
L 594 3500 
L 594 4494 
L 1172 4494 
z
" id="DejaVuSans-74" transform="scale(0.015625)"/>
       <path d="M 2841 2188 
Q 3044 2119 3236 1894 
Q 3428 1669 3622 1275 
L 4263 0 
L 3584 0 
L 2988 1197 
Q 2756 1666 2539 1819 
Q 2322 1972 1947 1972 
L 1259 1972 
L 1259 0 
L 628 0 
L 628 4666 
L 2053 4666 
Q 2853 4666 3247 4331 
Q 3641 3997 3641 3322 
Q 3641 2881 3436 2590 
Q 3231 2300 2841 2188 
z
M 1259 4147 
L 1259 2491 
L 2053 2491 
Q 2509 2491 2742 2702 
Q 2975 2913 2975 3322 
Q 2975 3731 2742 3939 
Q 2509 4147 2053 4147 
L 1259 4147 
z
" id="DejaVuSans-52" transform="scale(0.015625)"/>
       <path d="M 2906 2969 
L 2906 4863 
L 3481 4863 
L 3481 0 
L 2906 0 
L 2906 525 
Q 2725 213 2448 61 
Q 2172 -91 1784 -91 
Q 1150 -91 751 415 
Q 353 922 353 1747 
Q 353 2572 751 3078 
Q 1150 3584 1784 3584 
Q 2172 3584 2448 3432 
Q 2725 3281 2906 2969 
z
M 947 1747 
Q 947 1113 1208 752 
Q 1469 391 1925 391 
Q 2381 391 2643 752 
Q 2906 1113 2906 1747 
Q 2906 2381 2643 2742 
Q 2381 3103 1925 3103 
Q 1469 3103 1208 2742 
Q 947 2381 947 1747 
z
" id="DejaVuSans-64" transform="scale(0.015625)"/>
       <path d="M 2834 3397 
L 2834 2853 
Q 2591 2978 2328 3040 
Q 2066 3103 1784 3103 
Q 1356 3103 1142 2972 
Q 928 2841 928 2578 
Q 928 2378 1081 2264 
Q 1234 2150 1697 2047 
L 1894 2003 
Q 2506 1872 2764 1633 
Q 3022 1394 3022 966 
Q 3022 478 2636 193 
Q 2250 -91 1575 -91 
Q 1294 -91 989 -36 
Q 684 19 347 128 
L 347 722 
Q 666 556 975 473 
Q 1284 391 1588 391 
Q 1994 391 2212 530 
Q 2431 669 2431 922 
Q 2431 1156 2273 1281 
Q 2116 1406 1581 1522 
L 1381 1569 
Q 847 1681 609 1914 
Q 372 2147 372 2553 
Q 372 3047 722 3315 
Q 1072 3584 1716 3584 
Q 2034 3584 2315 3537 
Q 2597 3491 2834 3397 
z
" id="DejaVuSans-73" transform="scale(0.015625)"/>
      </defs>
      <use xlink:href="#DejaVuSans-47"/>
      <use x="77.490234" xlink:href="#DejaVuSans-6c"/>
      <use x="105.273438" xlink:href="#DejaVuSans-6f"/>
      <use x="166.455078" xlink:href="#DejaVuSans-62"/>
      <use x="229.931641" xlink:href="#DejaVuSans-61"/>
      <use x="291.210938" xlink:href="#DejaVuSans-6c"/>
      <use x="318.994141" xlink:href="#DejaVuSans-20"/>
      <use x="350.78125" xlink:href="#DejaVuSans-43"/>
      <use x="420.605469" xlink:href="#DejaVuSans-6f"/>
      <use x="481.787109" xlink:href="#DejaVuSans-6d"/>
      <use x="579.199219" xlink:href="#DejaVuSans-6d"/>
      <use x="676.611328" xlink:href="#DejaVuSans-75"/>
      <use x="739.990234" xlink:href="#DejaVuSans-6e"/>
      <use x="803.369141" xlink:href="#DejaVuSans-69"/>
      <use x="831.152344" xlink:href="#DejaVuSans-63"/>
      <use x="886.132812" xlink:href="#DejaVuSans-61"/>
      <use x="947.412109" xlink:href="#DejaVuSans-74"/>
      <use x="986.621094" xlink:href="#DejaVuSans-69"/>
      <use x="1014.404297" xlink:href="#DejaVuSans-6f"/>
      <use x="1075.585938" xlink:href="#DejaVuSans-6e"/>
      <use x="1138.964844" xlink:href="#DejaVuSans-20"/>
      <use x="1170.751953" xlink:href="#DejaVuSans-52"/>
      <use x="1235.734375" xlink:href="#DejaVuSans-6f"/>
      <use x="1296.916016" xlink:href="#DejaVuSans-75"/>
      <use x="1360.294922" xlink:href="#DejaVuSans-6e"/>
      <use x="1423.673828" xlink:href="#DejaVuSans-64"/>
      <use x="1487.150391" xlink:href="#DejaVuSans-73"/>
     </g>
    </g>
   </g>
   <g id="matplotlib.axis_2">
    <g id="ytick_1">
     <g id="line2d_7">
      <defs>
       <path d="M 0 0 
L -3.5 0 
" id="m2a834cd258" style="stroke:#000000;stroke-width:0.8;"/>
      </defs>
      <g>
       <use style="stroke:#000000;stroke-width:0.8;" x="44.48" xlink:href="#m2a834cd258" y="282.533236"/>
      </g>
     </g>
     <g id="text_8">
      <!-- 20 -->
      <g transform="translate(24.755 286.332455)scale(0.1 -0.1)">
       <use xlink:href="#DejaVuSans-32"/>
       <use x="63.623047" xlink:href="#DejaVuSans-30"/>
      </g>
     </g>
    </g>
    <g id="ytick_2">
     <g id="line2d_8">
      <g>
       <use style="stroke:#000000;stroke-width:0.8;" x="44.48" xlink:href="#m2a834cd258" y="247.792202"/>
      </g>
     </g>
     <g id="text_9">
      <!-- 25 -->
      <g transform="translate(24.755 251.59142)scale(0.1 -0.1)">
       <use xlink:href="#DejaVuSans-32"/>
       <use x="63.623047" xlink:href="#DejaVuSans-35"/>
      </g>
     </g>
    </g>
    <g id="ytick_3">
     <g id="line2d_9">
      <g>
       <use style="stroke:#000000;stroke-width:0.8;" x="44.48" xlink:href="#m2a834cd258" y="213.051167"/>
      </g>
     </g>
     <g id="text_10">
      <!-- 30 -->
      <g transform="translate(24.755 216.850386)scale(0.1 -0.1)">
       <use xlink:href="#DejaVuSans-33"/>
       <use x="63.623047" xlink:href="#DejaVuSans-30"/>
      </g>
     </g>
    </g>
    <g id="ytick_4">
     <g id="line2d_10">
      <g>
       <use style="stroke:#000000;stroke-width:0.8;" x="44.48" xlink:href="#m2a834cd258" y="178.310133"/>
      </g>
     </g>
     <g id="text_11">
      <!-- 35 -->
      <g transform="translate(24.755 182.109351)scale(0.1 -0.1)">
       <use xlink:href="#DejaVuSans-33"/>
       <use x="63.623047" xlink:href="#DejaVuSans-35"/>
      </g>
     </g>
    </g>
    <g id="ytick_5">
     <g id="line2d_11">
      <g>
       <use style="stroke:#000000;stroke-width:0.8;" x="44.48" xlink:href="#m2a834cd258" y="143.569098"/>
      </g>
     </g>
     <g id="text_12">
      <!-- 40 -->
      <g transform="translate(24.755 147.368317)scale(0.1 -0.1)">
       <use xlink:href="#DejaVuSans-34"/>
       <use x="63.623047" xlink:href="#DejaVuSans-30"/>
      </g>
     </g>
    </g>
    <g id="ytick_6">
     <g id="line2d_12">
      <g>
       <use style="stroke:#000000;stroke-width:0.8;" x="44.48" xlink:href="#m2a834cd258" y="108.828064"/>
      </g>
     </g>
     <g id="text_13">
      <!-- 45 -->
      <g transform="translate(24.755 112.627282)scale(0.1 -0.1)">
       <use xlink:href="#DejaVuSans-34"/>
       <use x="63.623047" xlink:href="#DejaVuSans-35"/>
      </g>
     </g>
    </g>
    <g id="ytick_7">
     <g id="line2d_13">
      <g>
       <use style="stroke:#000000;stroke-width:0.8;" x="44.48" xlink:href="#m2a834cd258" y="74.087029"/>
      </g>
     </g>
     <g id="text_14">
      <!-- 50 -->
      <g transform="translate(24.755 77.886248)scale(0.1 -0.1)">
       <use xlink:href="#DejaVuSans-35"/>
       <use x="63.623047" xlink:href="#DejaVuSans-30"/>
      </g>
     </g>
    </g>
    <g id="text_15">
     <!-- Test Accuracy -->
     <g transform="translate(18.675313 210.2725)rotate(-90)scale(0.1 -0.1)">
      <defs>
       <path d="M -19 4666 
L 3928 4666 
L 3928 4134 
L 2272 4134 
L 2272 0 
L 1638 0 
L 1638 4134 
L -19 4134 
L -19 4666 
z
" id="DejaVuSans-54" transform="scale(0.015625)"/>
       <path d="M 3597 1894 
L 3597 1613 
L 953 1613 
Q 991 1019 1311 708 
Q 1631 397 2203 397 
Q 2534 397 2845 478 
Q 3156 559 3463 722 
L 3463 178 
Q 3153 47 2828 -22 
Q 2503 -91 2169 -91 
Q 1331 -91 842 396 
Q 353 884 353 1716 
Q 353 2575 817 3079 
Q 1281 3584 2069 3584 
Q 2775 3584 3186 3129 
Q 3597 2675 3597 1894 
z
M 3022 2063 
Q 3016 2534 2758 2815 
Q 2500 3097 2075 3097 
Q 1594 3097 1305 2825 
Q 1016 2553 972 2059 
L 3022 2063 
z
" id="DejaVuSans-65" transform="scale(0.015625)"/>
       <path d="M 2188 4044 
L 1331 1722 
L 3047 1722 
L 2188 4044 
z
M 1831 4666 
L 2547 4666 
L 4325 0 
L 3669 0 
L 3244 1197 
L 1141 1197 
L 716 0 
L 50 0 
L 1831 4666 
z
" id="DejaVuSans-41" transform="scale(0.015625)"/>
       <path d="M 2631 2963 
Q 2534 3019 2420 3045 
Q 2306 3072 2169 3072 
Q 1681 3072 1420 2755 
Q 1159 2438 1159 1844 
L 1159 0 
L 581 0 
L 581 3500 
L 1159 3500 
L 1159 2956 
Q 1341 3275 1631 3429 
Q 1922 3584 2338 3584 
Q 2397 3584 2469 3576 
Q 2541 3569 2628 3553 
L 2631 2963 
z
" id="DejaVuSans-72" transform="scale(0.015625)"/>
       <path d="M 2059 -325 
Q 1816 -950 1584 -1140 
Q 1353 -1331 966 -1331 
L 506 -1331 
L 506 -850 
L 844 -850 
Q 1081 -850 1212 -737 
Q 1344 -625 1503 -206 
L 1606 56 
L 191 3500 
L 800 3500 
L 1894 763 
L 2988 3500 
L 3597 3500 
L 2059 -325 
z
" id="DejaVuSans-79" transform="scale(0.015625)"/>
      </defs>
      <use xlink:href="#DejaVuSans-54"/>
      <use x="44.083984" xlink:href="#DejaVuSans-65"/>
      <use x="105.607422" xlink:href="#DejaVuSans-73"/>
      <use x="157.707031" xlink:href="#DejaVuSans-74"/>
      <use x="196.916016" xlink:href="#DejaVuSans-20"/>
      <use x="228.703125" xlink:href="#DejaVuSans-41"/>
      <use x="295.361328" xlink:href="#DejaVuSans-63"/>
      <use x="350.341797" xlink:href="#DejaVuSans-63"/>
      <use x="405.322266" xlink:href="#DejaVuSans-75"/>
      <use x="468.701172" xlink:href="#DejaVuSans-72"/>
      <use x="509.814453" xlink:href="#DejaVuSans-61"/>
      <use x="571.09375" xlink:href="#DejaVuSans-63"/>
      <use x="626.074219" xlink:href="#DejaVuSans-79"/>
     </g>
    </g>
   </g>
   <g id="line2d_14">
    <path clip-path="url(#p7e9ef7e7f7)" d="M 62.912727 269.667131 
L 70.436289 197.963828 
L 77.959852 145.961558 
L 85.483414 125.706559 
L 93.006976 114.654104 
L 100.530538 108.033375 
L 108.0541 103.977675 
L 115.577662 99.824611 
L 123.101224 97.544958 
L 130.624787 94.046581 
L 138.148349 92.626414 
L 145.671911 91.199533 
L 153.195473 89.698789 
L 160.719035 86.244058 
L 168.242597 87.221052 
L 175.76616 84.887681 
L 183.289722 84.055054 
L 190.813284 82.571098 
L 198.336846 83.061273 
L 205.860408 83.581665 
L 213.38397 81.453094 
L 220.907532 80.076573 
L 228.431095 80.395523 
L 235.954657 79.274162 
L 243.478219 78.428106 
L 251.001781 79.025717 
L 258.525343 77.021369 
L 266.048905 77.481328 
L 273.572468 75.366186 
L 281.09603 75.795929 
L 288.619592 76.762851 
L 296.143154 75.483694 
L 303.666716 75.346042 
L 311.190278 74.228039 
L 318.71384 74.503343 
L 326.237403 74.671211 
L 333.760965 76.541265 
L 341.284527 75.15803 
L 348.808089 74.580562 
L 356.331651 74.58392 
L 363.855213 76.349895 
L 371.378776 74.254898 
L 378.902338 75.154672 
L 386.4259 73.163753 
L 393.949462 73.388697 
L 401.473024 73.099963 
L 408.996586 72.666863 
L 416.520148 71.736872 
L 424.043711 72.448634 
L 431.567273 71.629436 
" style="fill:none;stroke:#1f77b4;stroke-linecap:square;stroke-width:1.5;"/>
   </g>
   <g id="line2d_15">
    <path clip-path="url(#p7e9ef7e7f7)" d="M 62.912727 291.372514 
L 70.436289 265.769227 
L 77.959852 204.520767 
L 85.483414 181.284425 
L 93.006976 166.693304 
L 100.530538 159.18623 
L 108.0541 154.828367 
L 115.577662 147.83497 
L 123.101224 139.804146 
L 130.624787 137.702434 
L 138.148349 136.272195 
L 145.671911 134.630442 
L 153.195473 127.428888 
L 160.719035 123.473909 
L 168.242597 121.624 
L 175.76616 122.459984 
L 183.289722 119.807664 
L 190.813284 116.013838 
L 198.336846 115.218142 
L 205.860408 115.097277 
L 213.38397 114.687678 
L 220.907532 112.948561 
L 228.431095 109.262171 
L 235.954657 108.080378 
L 243.478219 107.862149 
L 251.001781 108.835786 
L 258.525343 106.626638 
L 266.048905 106.713929 
L 273.572468 106.109603 
L 281.09603 105.87123 
L 288.619592 105.817512 
L 296.143154 104.887521 
L 303.666716 103.719157 
L 311.190278 102.141194 
L 318.71384 102.359423 
L 326.237403 102.856314 
L 333.760965 102.923461 
L 341.284527 102.497075 
L 348.808089 100.308072 
L 356.331651 99.163209 
L 363.855213 100.203993 
L 371.378776 96.692186 
L 378.902338 98.213074 
L 386.4259 98.182858 
L 393.949462 98.746896 
L 401.473024 98.857689 
L 408.996586 98.142569 
L 416.520148 96.829839 
L 424.043711 96.067716 
L 431.567273 96.148293 
" style="fill:none;stroke:#ff7f0e;stroke-linecap:square;stroke-width:1.5;"/>
   </g>
   <g id="line2d_16">
    <path clip-path="url(#p7e9ef7e7f7)" d="M 62.912727 254.176236 
L 70.436289 189.892716 
L 77.959852 152.266695 
L 85.483414 137.232402 
L 93.006976 131.20257 
L 100.530538 116.329431 
L 108.0541 107.9763 
L 115.577662 102.141194 
L 123.101224 99.314291 
L 130.624787 94.231236 
L 138.148349 91.548699 
L 145.671911 88.584143 
L 153.195473 85.542368 
L 160.719035 82.859831 
L 168.242597 82.238718 
L 175.76616 81.275154 
L 183.289722 80.210868 
L 190.813284 81.829119 
L 198.336846 78.360958 
L 205.860408 76.991152 
L 213.38397 75.124456 
L 220.907532 75.043879 
L 228.431095 73.593496 
L 235.954657 73.519634 
L 243.478219 75.268823 
L 251.001781 72.757512 
L 258.525343 72.384844 
L 266.048905 74.056813 
L 273.572468 72.505709 
L 281.09603 71.263483 
L 288.619592 71.763731 
L 296.143154 72.243834 
L 303.666716 70.447643 
L 311.190278 70.524862 
L 318.71384 71.354132 
L 326.237403 71.659652 
L 333.760965 70.632298 
L 341.284527 69.064407 
L 348.808089 68.893181 
L 356.331651 68.137774 
L 363.855213 66.442303 
L 371.378776 67.382366 
L 378.902338 67.755034 
L 386.4259 67.318576 
L 393.949462 67.781893 
L 401.473024 65.864836 
L 408.996586 65.700325 
L 416.520148 65.015422 
L 424.043711 67.496516 
L 431.567273 67.066773 
" style="fill:none;stroke:#2ca02c;stroke-linecap:square;stroke-width:1.5;"/>
   </g>
   <g id="line2d_17">
    <path clip-path="url(#p7e9ef7e7f7)" d="M 62.912727 245.997689 
L 70.436289 200.431493 
L 77.959852 141.580194 
L 85.483414 136.607932 
L 93.006976 122.658069 
L 100.530538 106.794506 
L 108.0541 104.890879 
L 115.577662 105.538851 
L 123.101224 100.788175 
L 130.624787 96.118077 
L 138.148349 94.922854 
L 145.671911 92.079163 
L 153.195473 88.490137 
L 160.719035 85.458434 
L 168.242597 85.441647 
L 175.76616 81.956699 
L 183.289722 80.566749 
L 190.813284 77.474613 
L 198.336846 77.642482 
L 205.860408 76.430472 
L 213.38397 76.48419 
L 220.907532 75.691851 
L 228.431095 75.248679 
L 235.954657 72.247192 
L 243.478219 71.797304 
L 251.001781 71.028467 
L 258.525343 70.155552 
L 266.048905 68.789103 
L 273.572468 68.98383 
L 281.09603 67.979977 
L 288.619592 68.429865 
L 296.143154 67.234642 
L 303.666716 67.869184 
L 311.190278 66.146854 
L 318.71384 65.112785 
L 326.237403 65.253795 
L 333.760965 65.240365 
L 341.284527 64.23987 
L 348.808089 64.17608 
L 356.331651 64.256656 
L 363.855213 63.981352 
L 371.378776 63.71612 
L 378.902338 62.755913 
L 386.4259 62.302668 
L 393.949462 62.161659 
L 401.473024 61.825922 
L 408.996586 61.198094 
L 416.520148 61.006724 
L 424.043711 60.660916 
L 431.567273 60.358752 
" style="fill:none;stroke:#d62728;stroke-linecap:square;stroke-width:1.5;"/>
   </g>
   <g id="patch_3">
    <path d="M 44.48 303.64 
L 44.48 48.38 
" style="fill:none;stroke:#000000;stroke-linecap:square;stroke-linejoin:miter;stroke-width:0.8;"/>
   </g>
   <g id="patch_4">
    <path d="M 450 303.64 
L 450 48.38 
" style="fill:none;stroke:#000000;stroke-linecap:square;stroke-linejoin:miter;stroke-width:0.8;"/>
   </g>
   <g id="patch_5">
    <path d="M 44.48 303.64 
L 450 303.64 
" style="fill:none;stroke:#000000;stroke-linecap:square;stroke-linejoin:miter;stroke-width:0.8;"/>
   </g>
   <g id="patch_6">
    <path d="M 44.48 48.38 
L 450 48.38 
" style="fill:none;stroke:#000000;stroke-linecap:square;stroke-linejoin:miter;stroke-width:0.8;"/>
   </g>
   <g id="text_16">
    <!-- Local Rounds 05 -->
    <g transform="translate(198.129063 20.88)scale(0.12 -0.12)">
     <defs>
      <path d="M 628 4666 
L 1259 4666 
L 1259 531 
L 3531 531 
L 3531 0 
L 628 0 
L 628 4666 
z
" id="DejaVuSans-4c" transform="scale(0.015625)"/>
     </defs>
     <use xlink:href="#DejaVuSans-4c"/>
     <use x="53.962891" xlink:href="#DejaVuSans-6f"/>
     <use x="115.144531" xlink:href="#DejaVuSans-63"/>
     <use x="170.125" xlink:href="#DejaVuSans-61"/>
     <use x="231.404297" xlink:href="#DejaVuSans-6c"/>
     <use x="259.1875" xlink:href="#DejaVuSans-20"/>
     <use x="290.974609" xlink:href="#DejaVuSans-52"/>
     <use x="355.957031" xlink:href="#DejaVuSans-6f"/>
     <use x="417.138672" xlink:href="#DejaVuSans-75"/>
     <use x="480.517578" xlink:href="#DejaVuSans-6e"/>
     <use x="543.896484" xlink:href="#DejaVuSans-64"/>
     <use x="607.373047" xlink:href="#DejaVuSans-73"/>
     <use x="659.472656" xlink:href="#DejaVuSans-20"/>
     <use x="691.259766" xlink:href="#DejaVuSans-30"/>
     <use x="754.882812" xlink:href="#DejaVuSans-35"/>
    </g>
   </g>
   <g id="legend_1">
    <g id="patch_7">
     <path d="M 80.841563 45.532125 
L 413.638438 45.532125 
Q 415.638438 45.532125 415.638438 43.532125 
L 415.638438 29.854 
Q 415.638438 27.854 413.638438 27.854 
L 80.841563 27.854 
Q 78.841563 27.854 78.841563 29.854 
L 78.841563 43.532125 
Q 78.841563 45.532125 80.841563 45.532125 
z
" style="fill:#ffffff;opacity:0.8;stroke:#cccccc;stroke-linejoin:miter;"/>
    </g>
    <g id="line2d_18">
     <path d="M 82.841563 35.952438 
L 102.841563 35.952438 
" style="fill:none;stroke:#1f77b4;stroke-linecap:square;stroke-width:1.5;"/>
    </g>
    <g id="line2d_19"/>
    <g id="text_17">
     <!-- FedAvg -->
     <g transform="translate(110.841563 39.452438)scale(0.1 -0.1)">
      <defs>
       <path d="M 628 4666 
L 3309 4666 
L 3309 4134 
L 1259 4134 
L 1259 2759 
L 3109 2759 
L 3109 2228 
L 1259 2228 
L 1259 0 
L 628 0 
L 628 4666 
z
" id="DejaVuSans-46" transform="scale(0.015625)"/>
       <path d="M 191 3500 
L 800 3500 
L 1894 563 
L 2988 3500 
L 3597 3500 
L 2284 0 
L 1503 0 
L 191 3500 
z
" id="DejaVuSans-76" transform="scale(0.015625)"/>
       <path d="M 2906 1791 
Q 2906 2416 2648 2759 
Q 2391 3103 1925 3103 
Q 1463 3103 1205 2759 
Q 947 2416 947 1791 
Q 947 1169 1205 825 
Q 1463 481 1925 481 
Q 2391 481 2648 825 
Q 2906 1169 2906 1791 
z
M 3481 434 
Q 3481 -459 3084 -895 
Q 2688 -1331 1869 -1331 
Q 1566 -1331 1297 -1286 
Q 1028 -1241 775 -1147 
L 775 -588 
Q 1028 -725 1275 -790 
Q 1522 -856 1778 -856 
Q 2344 -856 2625 -561 
Q 2906 -266 2906 331 
L 2906 616 
Q 2728 306 2450 153 
Q 2172 0 1784 0 
Q 1141 0 747 490 
Q 353 981 353 1791 
Q 353 2603 747 3093 
Q 1141 3584 1784 3584 
Q 2172 3584 2450 3431 
Q 2728 3278 2906 2969 
L 2906 3500 
L 3481 3500 
L 3481 434 
z
" id="DejaVuSans-67" transform="scale(0.015625)"/>
      </defs>
      <use xlink:href="#DejaVuSans-46"/>
      <use x="52.019531" xlink:href="#DejaVuSans-65"/>
      <use x="113.542969" xlink:href="#DejaVuSans-64"/>
      <use x="177.019531" xlink:href="#DejaVuSans-41"/>
      <use x="239.552734" xlink:href="#DejaVuSans-76"/>
      <use x="298.732422" xlink:href="#DejaVuSans-67"/>
     </g>
    </g>
    <g id="line2d_20">
     <path d="M 167.065 35.952438 
L 187.065 35.952438 
" style="fill:none;stroke:#ff7f0e;stroke-linecap:square;stroke-width:1.5;"/>
    </g>
    <g id="line2d_21"/>
    <g id="text_18">
     <!-- FedMed -->
     <g transform="translate(195.065 39.452438)scale(0.1 -0.1)">
      <defs>
       <path d="M 628 4666 
L 1569 4666 
L 2759 1491 
L 3956 4666 
L 4897 4666 
L 4897 0 
L 4281 0 
L 4281 4097 
L 3078 897 
L 2444 897 
L 1241 4097 
L 1241 0 
L 628 0 
L 628 4666 
z
" id="DejaVuSans-4d" transform="scale(0.015625)"/>
      </defs>
      <use xlink:href="#DejaVuSans-46"/>
      <use x="52.019531" xlink:href="#DejaVuSans-65"/>
      <use x="113.542969" xlink:href="#DejaVuSans-64"/>
      <use x="177.019531" xlink:href="#DejaVuSans-4d"/>
      <use x="263.298828" xlink:href="#DejaVuSans-65"/>
      <use x="324.822266" xlink:href="#DejaVuSans-64"/>
     </g>
    </g>
    <g id="line2d_22">
     <path d="M 253.897813 35.952438 
L 273.897812 35.952438 
" style="fill:none;stroke:#2ca02c;stroke-linecap:square;stroke-width:1.5;"/>
    </g>
    <g id="line2d_23"/>
    <g id="text_19">
     <!-- FedProx -->
     <g transform="translate(281.897812 39.452438)scale(0.1 -0.1)">
      <defs>
       <path d="M 1259 4147 
L 1259 2394 
L 2053 2394 
Q 2494 2394 2734 2622 
Q 2975 2850 2975 3272 
Q 2975 3691 2734 3919 
Q 2494 4147 2053 4147 
L 1259 4147 
z
M 628 4666 
L 2053 4666 
Q 2838 4666 3239 4311 
Q 3641 3956 3641 3272 
Q 3641 2581 3239 2228 
Q 2838 1875 2053 1875 
L 1259 1875 
L 1259 0 
L 628 0 
L 628 4666 
z
" id="DejaVuSans-50" transform="scale(0.015625)"/>
       <path d="M 3513 3500 
L 2247 1797 
L 3578 0 
L 2900 0 
L 1881 1375 
L 863 0 
L 184 0 
L 1544 1831 
L 300 3500 
L 978 3500 
L 1906 2253 
L 2834 3500 
L 3513 3500 
z
" id="DejaVuSans-78" transform="scale(0.015625)"/>
      </defs>
      <use xlink:href="#DejaVuSans-46"/>
      <use x="52.019531" xlink:href="#DejaVuSans-65"/>
      <use x="113.542969" xlink:href="#DejaVuSans-64"/>
      <use x="177.019531" xlink:href="#DejaVuSans-50"/>
      <use x="235.572266" xlink:href="#DejaVuSans-72"/>
      <use x="274.435547" xlink:href="#DejaVuSans-6f"/>
      <use x="332.492188" xlink:href="#DejaVuSans-78"/>
     </g>
    </g>
    <g id="line2d_24">
     <path d="M 341.066563 35.952438 
L 361.066563 35.952438 
" style="fill:none;stroke:#d62728;stroke-linecap:square;stroke-width:1.5;"/>
    </g>
    <g id="line2d_25"/>
    <g id="text_20">
     <!-- qFedAvg -->
     <g transform="translate(369.066563 39.452438)scale(0.1 -0.1)">
      <defs>
       <path d="M 947 1747 
Q 947 1113 1208 752 
Q 1469 391 1925 391 
Q 2381 391 2643 752 
Q 2906 1113 2906 1747 
Q 2906 2381 2643 2742 
Q 2381 3103 1925 3103 
Q 1469 3103 1208 2742 
Q 947 2381 947 1747 
z
M 2906 525 
Q 2725 213 2448 61 
Q 2172 -91 1784 -91 
Q 1150 -91 751 415 
Q 353 922 353 1747 
Q 353 2572 751 3078 
Q 1150 3584 1784 3584 
Q 2172 3584 2448 3432 
Q 2725 3281 2906 2969 
L 2906 3500 
L 3481 3500 
L 3481 -1331 
L 2906 -1331 
L 2906 525 
z
" id="DejaVuSans-71" transform="scale(0.015625)"/>
      </defs>
      <use xlink:href="#DejaVuSans-71"/>
      <use x="63.476562" xlink:href="#DejaVuSans-46"/>
      <use x="115.496094" xlink:href="#DejaVuSans-65"/>
      <use x="177.019531" xlink:href="#DejaVuSans-64"/>
      <use x="240.496094" xlink:href="#DejaVuSans-41"/>
      <use x="303.029297" xlink:href="#DejaVuSans-76"/>
      <use x="362.208984" xlink:href="#DejaVuSans-67"/>
     </g>
    </g>
   </g>
  </g>
 </g>
 <defs>
  <clipPath id="p7e9ef7e7f7">
   <rect height="255.26" width="405.52" x="44.48" y="48.38"/>
  </clipPath>
 </defs>
</svg>
