<?xml version="1.0" encoding="utf-8" standalone="no"?>
<!DOCTYPE svg PUBLIC "-//W3C//DTD SVG 1.1//EN"
  "http://www.w3.org/Graphics/SVG/1.1/DTD/svg11.dtd">
<svg height="345.6pt" version="1.1" viewBox="0 0 460.8 345.6" width="460.8pt" xmlns="http://www.w3.org/2000/svg" xmlns:xlink="http://www.w3.org/1999/xlink">
 <metadata>
  <rdf:RDF xmlns:cc="http://creativecommons.org/ns#" xmlns:dc="http://purl.org/dc/elements/1.1/" xmlns:rdf="http://www.w3.org/1999/02/22-rdf-syntax-ns#">
   <cc:Work>
    <dc:type rdf:resource="http://purl.org/dc/dcmitype/StillImage"/>
    <dc:date>2021-05-07T12:06:49.713452</dc:date>
    <dc:format>image/svg+xml</dc:format>
    <dc:creator>
     <cc:Agent>
      <dc:title>Matplotlib v3.4.1, https://matplotlib.org/</dc:title>
     </cc:Agent>
    </dc:creator>
   </cc:Work>
  </rdf:RDF>
 </metadata>
 <defs>
  <style type="text/css">*{stroke-linecap:butt;stroke-linejoin:round;}</style>
 </defs>
 <g id="figure_1">
  <g id="patch_1">
   <path d="M 0 345.6 
L 460.8 345.6 
L 460.8 0 
L 0 0 
z
" style="fill:#ffffff;"/>
  </g>
  <g id="axes_1">
   <g id="patch_2">
    <path d="M 44.48 303.64 
L 450 303.64 
L 450 32.876829 
L 44.48 32.876829 
z
" style="fill:#ffffff;"/>
   </g>
   <g id="PolyCollection_1">
    <path clip-path="url(#p277bab5333)" d="M 62.912727 291.305649 
L 62.912727 291.332583 
L 70.436289 290.127261 
L 77.959852 227.181162 
L 85.483414 188.294371 
L 93.006976 173.23121 
L 100.530538 158.592269 
L 108.0541 151.575813 
L 115.577662 148.451402 
L 123.101224 142.929814 
L 130.624787 137.058077 
L 138.148349 136.694461 
L 145.671911 130.721719 
L 153.195473 127.967659 
L 160.719035 122.419136 
L 168.242597 120.580852 
L 175.76616 115.981773 
L 183.289722 115.146801 
L 190.813284 111.402896 
L 198.336846 109.658882 
L 205.860408 107.416579 
L 213.38397 105.935177 
L 220.907532 105.807238 
L 228.431095 102.097 
L 235.954657 99.935501 
L 243.478219 97.767268 
L 251.001781 96.824558 
L 258.525343 93.76075 
L 266.048905 92.299549 
L 273.572468 92.306283 
L 281.09603 90.912419 
L 288.619592 88.441171 
L 296.143154 88.966396 
L 303.666716 86.703891 
L 311.190278 85.700578 
L 318.71384 85.586107 
L 326.237403 83.350537 
L 333.760965 84.475055 
L 341.284527 82.11828 
L 348.808089 82.04421 
L 356.331651 81.189037 
L 363.855213 79.539295 
L 371.378776 78.455178 
L 378.902338 77.290258 
L 386.4259 76.630361 
L 393.949462 77.000711 
L 401.473024 76.044534 
L 408.996586 74.630469 
L 416.520148 74.610268 
L 424.043711 74.098511 
L 431.567273 74.435193 
L 431.567273 68.725063 
L 431.567273 68.725063 
L 424.043711 71.209778 
L 416.520148 71.041437 
L 408.996586 71.708067 
L 401.473024 72.947058 
L 393.949462 74.381324 
L 386.4259 74.603534 
L 378.902338 74.72474 
L 371.378776 78.12523 
L 363.855213 77.566337 
L 356.331651 78.280103 
L 348.808089 79.317084 
L 341.284527 81.997075 
L 333.760965 80.616678 
L 326.237403 81.182304 
L 318.71384 81.236173 
L 311.190278 83.741088 
L 303.666716 85.195555 
L 296.143154 86.070929 
L 288.619592 87.006905 
L 281.09603 86.124798 
L 273.572468 87.370522 
L 266.048905 88.279564 
L 258.525343 90.703676 
L 251.001781 92.137942 
L 243.478219 92.885376 
L 235.954657 93.525072 
L 228.431095 95.861647 
L 220.907532 96.918829 
L 213.38397 96.844758 
L 205.860408 102.103734 
L 198.336846 103.127248 
L 190.813284 105.147341 
L 183.289722 107.679191 
L 175.76616 109.699284 
L 168.242597 113.483592 
L 160.719035 116.446395 
L 153.195473 119.052315 
L 145.671911 122.991496 
L 138.148349 127.146154 
L 130.624787 129.900214 
L 123.101224 138.054657 
L 115.577662 141.374343 
L 108.0541 146.458244 
L 100.530538 157.02333 
L 93.006976 162.416979 
L 85.483414 177.79662 
L 77.959852 191.149435 
L 70.436289 233.834001 
L 62.912727 291.305649 
z
" style="fill:#1f77b4;fill-opacity:0.5;"/>
   </g>
   <g id="PolyCollection_2">
    <path clip-path="url(#p277bab5333)" d="M 62.912727 291.332583 
L 62.912727 291.332583 
L 70.436289 291.332583 
L 77.959852 268.754677 
L 85.483414 257.39502 
L 93.006976 240.055888 
L 100.530538 250.681577 
L 108.0541 227.93533 
L 115.577662 215.505024 
L 123.101224 212.582623 
L 130.624787 203.815419 
L 138.148349 205.014007 
L 145.671911 196.630621 
L 153.195473 191.034963 
L 160.719035 182.651577 
L 168.242597 181.836806 
L 175.76616 176.241149 
L 183.289722 171.662271 
L 190.813284 166.719777 
L 198.336846 166.888118 
L 205.860408 164.235062 
L 213.38397 160.841306 
L 220.907532 164.538076 
L 228.431095 155.097508 
L 235.954657 153.656509 
L 243.478219 155.312985 
L 251.001781 152.868672 
L 258.525343 148.754416 
L 266.048905 146.754524 
L 273.572468 147.400954 
L 281.09603 146.626585 
L 288.619592 145.683875 
L 296.143154 147.703968 
L 303.666716 146.384174 
L 311.190278 141.966903 
L 318.71384 141.482081 
L 326.237403 138.216264 
L 333.760965 138.243199 
L 341.284527 138.357671 
L 348.808089 136.115367 
L 356.331651 134.485826 
L 363.855213 136.654059 
L 371.378776 134.027938 
L 378.902338 132.337793 
L 386.4259 131.745233 
L 393.949462 131.866438 
L 401.473024 128.715093 
L 408.996586 128.055196 
L 416.520148 128.65449 
L 424.043711 127.529972 
L 431.567273 125.334804 
L 431.567273 120.782861 
L 431.567273 120.782861 
L 424.043711 123.025164 
L 416.520148 123.348379 
L 408.996586 124.109281 
L 401.473024 123.307977 
L 393.949462 127.186556 
L 386.4259 126.466056 
L 378.902338 126.755603 
L 371.378776 127.657911 
L 363.855213 128.8565 
L 356.331651 129.348056 
L 348.808089 130.53991 
L 341.284527 131.785634 
L 333.760965 132.243522 
L 326.237403 133.166031 
L 318.71384 132.883218 
L 311.190278 136.815666 
L 303.666716 133.098695 
L 296.143154 136.714662 
L 288.619592 140.411432 
L 281.09603 145.529001 
L 273.572468 145.178851 
L 266.048905 143.367501 
L 258.525343 143.630113 
L 251.001781 147.374019 
L 243.478219 147.804972 
L 235.954657 152.700331 
L 228.431095 153.643041 
L 220.907532 155.407256 
L 213.38397 157.37348 
L 205.860408 160.881708 
L 198.336846 161.878287 
L 190.813284 166.066613 
L 183.289722 170.416547 
L 175.76616 174.928088 
L 168.242597 179.830181 
L 160.719035 179.897517 
L 153.195473 187.594072 
L 145.671911 194.812537 
L 138.148349 198.812322 
L 130.624787 198.3477 
L 123.101224 206.569479 
L 115.577662 212.589356 
L 108.0541 213.929351 
L 100.530538 226.009508 
L 93.006976 223.477658 
L 85.483414 235.025856 
L 77.959852 268.074579 
L 70.436289 291.332583 
L 62.912727 291.332583 
z
" style="fill:#ff7f0e;fill-opacity:0.5;"/>
   </g>
   <g id="PolyCollection_3">
    <path clip-path="url(#p277bab5333)" d="M 62.912727 286.915313 
L 62.912727 291.332583 
L 70.436289 291.332583 
L 77.959852 259.118833 
L 85.483414 223.140976 
L 93.006976 195.755248 
L 100.530538 188.489646 
L 108.0541 173.123472 
L 115.577662 159.986133 
L 123.101224 152.249177 
L 130.624787 146.936332 
L 138.148349 141.273338 
L 145.671911 140.997259 
L 153.195473 135.52954 
L 160.719035 130.061822 
L 168.242597 125.860028 
L 175.76616 122.035319 
L 183.289722 119.153319 
L 190.813284 116.884081 
L 198.336846 116.27132 
L 205.860408 113.51726 
L 213.38397 111.079681 
L 220.907532 108.884513 
L 228.431095 106.635476 
L 235.954657 106.083317 
L 243.478219 105.187743 
L 251.001781 103.598603 
L 258.525343 100.548262 
L 266.048905 99.847963 
L 273.572468 98.844651 
L 281.09603 96.723553 
L 288.619592 95.322955 
L 296.143154 94.676525 
L 303.666716 94.225371 
L 311.190278 93.255726 
L 318.71384 92.185077 
L 326.237403 90.272722 
L 333.760965 89.498353 
L 341.284527 88.62298 
L 348.808089 86.528817 
L 356.331651 86.360476 
L 363.855213 86.656756 
L 371.378776 85.188822 
L 378.902338 83.074458 
L 386.4259 82.91285 
L 393.949462 80.764818 
L 401.473024 80.448337 
L 408.996586 77.499001 
L 416.520148 76.771767 
L 424.043711 76.670763 
L 431.567273 74.926749 
L 431.567273 72.038016 
L 431.567273 72.038016 
L 424.043711 73.290474 
L 416.520148 72.798918 
L 408.996586 73.950371 
L 401.473024 73.707959 
L 393.949462 75.842524 
L 386.4259 74.657403 
L 378.902338 76.199408 
L 371.378776 78.172365 
L 363.855213 78.434977 
L 356.331651 79.276683 
L 348.808089 79.748038 
L 341.284527 79.916379 
L 333.760965 82.131747 
L 326.237403 82.178883 
L 318.71384 84.212443 
L 311.190278 85.565906 
L 303.666716 87.491728 
L 296.143154 87.956349 
L 288.619592 88.279564 
L 281.09603 90.077447 
L 273.572468 91.491512 
L 266.048905 92.925778 
L 258.525343 95.558633 
L 251.001781 97.275712 
L 243.478219 99.551683 
L 235.954657 101.713183 
L 228.431095 101.376501 
L 220.907532 103.234986 
L 213.38397 105.914976 
L 205.860408 108.554564 
L 198.336846 111.120083 
L 190.813284 115.739362 
L 183.289722 119.045581 
L 175.76616 121.207081 
L 168.242597 122.176725 
L 160.719035 126.607463 
L 153.195473 131.253677 
L 145.671911 133.556583 
L 138.148349 133.442111 
L 130.624787 139.044502 
L 123.101224 146.175431 
L 115.577662 148.357131 
L 108.0541 150.909182 
L 100.530538 162.969137 
L 93.006976 167.480679 
L 85.483414 176.301752 
L 77.959852 185.210362 
L 70.436289 243.860397 
L 62.912727 286.915313 
z
" style="fill:#2ca02c;fill-opacity:0.5;"/>
   </g>
   <g id="PolyCollection_4">
    <path clip-path="url(#p277bab5333)" d="M 62.912727 232.177525 
L 62.912727 258.4118 
L 70.436289 171.749809 
L 77.959852 149.05743 
L 85.483414 133.711457 
L 93.006976 121.308085 
L 100.530538 113.948213 
L 108.0541 110.062901 
L 115.577662 103.807346 
L 123.101224 98.89852 
L 130.624787 95.29602 
L 138.148349 92.366886 
L 145.671911 88.656648 
L 153.195473 84.602995 
L 160.719035 80.87929 
L 168.242597 79.14201 
L 175.76616 76.563024 
L 183.289722 73.50595 
L 190.813284 72.361231 
L 198.336846 70.67782 
L 205.860408 69.156016 
L 213.38397 67.364867 
L 220.907532 65.566984 
L 228.431095 64.092317 
L 235.954657 62.664784 
L 243.478219 61.452728 
L 251.001781 60.409014 
L 258.525343 59.910724 
L 266.048905 58.927612 
L 273.572468 57.823294 
L 281.09603 55.405916 
L 288.619592 55.0423 
L 296.143154 54.3218 
L 303.666716 53.358889 
L 311.190278 53.661903 
L 318.71384 52.571053 
L 326.237403 53.37909 
L 333.760965 51.170455 
L 341.284527 50.227745 
L 348.808089 50.975179 
L 356.331651 50.692366 
L 363.855213 49.170563 
L 371.378776 48.375993 
L 378.902338 48.005642 
L 386.4259 48.046044 
L 393.949462 47.392881 
L 401.473024 46.968661 
L 408.996586 46.699315 
L 416.520148 46.248161 
L 424.043711 46.470372 
L 431.567273 45.588264 
L 431.567273 45.184246 
L 431.567273 45.184246 
L 424.043711 45.608465 
L 416.520148 45.460325 
L 408.996586 46.436703 
L 401.473024 46.807054 
L 393.949462 47.035998 
L 386.4259 46.941727 
L 378.902338 47.790166 
L 371.378776 48.147049 
L 363.855213 48.429862 
L 356.331651 48.732876 
L 348.808089 49.305235 
L 341.284527 49.594782 
L 333.760965 50.429754 
L 326.237403 51.177188 
L 318.71384 50.456689 
L 311.190278 51.944824 
L 303.666716 52.180501 
L 296.143154 52.746127 
L 288.619592 54.09959 
L 281.09603 55.123103 
L 273.572468 55.547323 
L 266.048905 56.846916 
L 258.525343 57.048925 
L 251.001781 59.143089 
L 243.478219 59.439369 
L 235.954657 60.947705 
L 228.431095 63.634429 
L 220.907532 63.80277 
L 213.38397 65.903667 
L 205.860408 66.543363 
L 198.336846 69.506166 
L 190.813284 70.017923 
L 183.289722 72.482436 
L 175.76616 74.906548 
L 168.242597 76.596693 
L 160.719035 80.441603 
L 153.195473 80.852355 
L 145.671911 84.986812 
L 138.148349 87.841877 
L 130.624787 92.326484 
L 123.101224 95.902048 
L 115.577662 101.477505 
L 108.0541 106.601808 
L 100.530538 111.618372 
L 93.006976 120.607786 
L 85.483414 131.953976 
L 77.959852 148.83522 
L 70.436289 168.01937 
L 62.912727 232.177525 
z
" style="fill:#d62728;fill-opacity:0.5;"/>
   </g>
   <g id="matplotlib.axis_1">
    <g id="xtick_1">
     <g id="line2d_1">
      <defs>
       <path d="M 0 0 
L 0 3.5 
" id="m4f64d61745" style="stroke:#000000;stroke-width:0.8;"/>
      </defs>
      <g>
       <use style="stroke:#000000;stroke-width:0.8;" x="62.912727" xlink:href="#m4f64d61745" y="303.64"/>
      </g>
     </g>
     <g id="text_1">
      <!-- 0 -->
      <g transform="translate(59.731477 318.238437)scale(0.1 -0.1)">
       <defs>
        <path d="M 2034 4250 
Q 1547 4250 1301 3770 
Q 1056 3291 1056 2328 
Q 1056 1369 1301 889 
Q 1547 409 2034 409 
Q 2525 409 2770 889 
Q 3016 1369 3016 2328 
Q 3016 3291 2770 3770 
Q 2525 4250 2034 4250 
z
M 2034 4750 
Q 2819 4750 3233 4129 
Q 3647 3509 3647 2328 
Q 3647 1150 3233 529 
Q 2819 -91 2034 -91 
Q 1250 -91 836 529 
Q 422 1150 422 2328 
Q 422 3509 836 4129 
Q 1250 4750 2034 4750 
z
" id="DejaVuSans-30" transform="scale(0.015625)"/>
       </defs>
       <use xlink:href="#DejaVuSans-30"/>
      </g>
     </g>
    </g>
    <g id="xtick_2">
     <g id="line2d_2">
      <g>
       <use style="stroke:#000000;stroke-width:0.8;" x="138.148349" xlink:href="#m4f64d61745" y="303.64"/>
      </g>
     </g>
     <g id="text_2">
      <!-- 10 -->
      <g transform="translate(131.785849 318.238437)scale(0.1 -0.1)">
       <defs>
        <path d="M 794 531 
L 1825 531 
L 1825 4091 
L 703 3866 
L 703 4441 
L 1819 4666 
L 2450 4666 
L 2450 531 
L 3481 531 
L 3481 0 
L 794 0 
L 794 531 
z
" id="DejaVuSans-31" transform="scale(0.015625)"/>
       </defs>
       <use xlink:href="#DejaVuSans-31"/>
       <use x="63.623047" xlink:href="#DejaVuSans-30"/>
      </g>
     </g>
    </g>
    <g id="xtick_3">
     <g id="line2d_3">
      <g>
       <use style="stroke:#000000;stroke-width:0.8;" x="213.38397" xlink:href="#m4f64d61745" y="303.64"/>
      </g>
     </g>
     <g id="text_3">
      <!-- 20 -->
      <g transform="translate(207.02147 318.238437)scale(0.1 -0.1)">
       <defs>
        <path d="M 1228 531 
L 3431 531 
L 3431 0 
L 469 0 
L 469 531 
Q 828 903 1448 1529 
Q 2069 2156 2228 2338 
Q 2531 2678 2651 2914 
Q 2772 3150 2772 3378 
Q 2772 3750 2511 3984 
Q 2250 4219 1831 4219 
Q 1534 4219 1204 4116 
Q 875 4013 500 3803 
L 500 4441 
Q 881 4594 1212 4672 
Q 1544 4750 1819 4750 
Q 2544 4750 2975 4387 
Q 3406 4025 3406 3419 
Q 3406 3131 3298 2873 
Q 3191 2616 2906 2266 
Q 2828 2175 2409 1742 
Q 1991 1309 1228 531 
z
" id="DejaVuSans-32" transform="scale(0.015625)"/>
       </defs>
       <use xlink:href="#DejaVuSans-32"/>
       <use x="63.623047" xlink:href="#DejaVuSans-30"/>
      </g>
     </g>
    </g>
    <g id="xtick_4">
     <g id="line2d_4">
      <g>
       <use style="stroke:#000000;stroke-width:0.8;" x="288.619592" xlink:href="#m4f64d61745" y="303.64"/>
      </g>
     </g>
     <g id="text_4">
      <!-- 30 -->
      <g transform="translate(282.257092 318.238437)scale(0.1 -0.1)">
       <defs>
        <path d="M 2597 2516 
Q 3050 2419 3304 2112 
Q 3559 1806 3559 1356 
Q 3559 666 3084 287 
Q 2609 -91 1734 -91 
Q 1441 -91 1130 -33 
Q 819 25 488 141 
L 488 750 
Q 750 597 1062 519 
Q 1375 441 1716 441 
Q 2309 441 2620 675 
Q 2931 909 2931 1356 
Q 2931 1769 2642 2001 
Q 2353 2234 1838 2234 
L 1294 2234 
L 1294 2753 
L 1863 2753 
Q 2328 2753 2575 2939 
Q 2822 3125 2822 3475 
Q 2822 3834 2567 4026 
Q 2313 4219 1838 4219 
Q 1578 4219 1281 4162 
Q 984 4106 628 3988 
L 628 4550 
Q 988 4650 1302 4700 
Q 1616 4750 1894 4750 
Q 2613 4750 3031 4423 
Q 3450 4097 3450 3541 
Q 3450 3153 3228 2886 
Q 3006 2619 2597 2516 
z
" id="DejaVuSans-33" transform="scale(0.015625)"/>
       </defs>
       <use xlink:href="#DejaVuSans-33"/>
       <use x="63.623047" xlink:href="#DejaVuSans-30"/>
      </g>
     </g>
    </g>
    <g id="xtick_5">
     <g id="line2d_5">
      <g>
       <use style="stroke:#000000;stroke-width:0.8;" x="363.855213" xlink:href="#m4f64d61745" y="303.64"/>
      </g>
     </g>
     <g id="text_5">
      <!-- 40 -->
      <g transform="translate(357.492713 318.238437)scale(0.1 -0.1)">
       <defs>
        <path d="M 2419 4116 
L 825 1625 
L 2419 1625 
L 2419 4116 
z
M 2253 4666 
L 3047 4666 
L 3047 1625 
L 3713 1625 
L 3713 1100 
L 3047 1100 
L 3047 0 
L 2419 0 
L 2419 1100 
L 313 1100 
L 313 1709 
L 2253 4666 
z
" id="DejaVuSans-34" transform="scale(0.015625)"/>
       </defs>
       <use xlink:href="#DejaVuSans-34"/>
       <use x="63.623047" xlink:href="#DejaVuSans-30"/>
      </g>
     </g>
    </g>
    <g id="xtick_6">
     <g id="line2d_6">
      <g>
       <use style="stroke:#000000;stroke-width:0.8;" x="439.090835" xlink:href="#m4f64d61745" y="303.64"/>
      </g>
     </g>
     <g id="text_6">
      <!-- 50 -->
      <g transform="translate(432.728335 318.238437)scale(0.1 -0.1)">
       <defs>
        <path d="M 691 4666 
L 3169 4666 
L 3169 4134 
L 1269 4134 
L 1269 2991 
Q 1406 3038 1543 3061 
Q 1681 3084 1819 3084 
Q 2600 3084 3056 2656 
Q 3513 2228 3513 1497 
Q 3513 744 3044 326 
Q 2575 -91 1722 -91 
Q 1428 -91 1123 -41 
Q 819 9 494 109 
L 494 744 
Q 775 591 1075 516 
Q 1375 441 1709 441 
Q 2250 441 2565 725 
Q 2881 1009 2881 1497 
Q 2881 1984 2565 2268 
Q 2250 2553 1709 2553 
Q 1456 2553 1204 2497 
Q 953 2441 691 2322 
L 691 4666 
z
" id="DejaVuSans-35" transform="scale(0.015625)"/>
       </defs>
       <use xlink:href="#DejaVuSans-35"/>
       <use x="63.623047" xlink:href="#DejaVuSans-30"/>
      </g>
     </g>
    </g>
    <g id="text_7">
     <!-- Global Communication Rounds -->
     <g transform="translate(170.278281 331.916562)scale(0.1 -0.1)">
      <defs>
       <path d="M 3809 666 
L 3809 1919 
L 2778 1919 
L 2778 2438 
L 4434 2438 
L 4434 434 
Q 4069 175 3628 42 
Q 3188 -91 2688 -91 
Q 1594 -91 976 548 
Q 359 1188 359 2328 
Q 359 3472 976 4111 
Q 1594 4750 2688 4750 
Q 3144 4750 3555 4637 
Q 3966 4525 4313 4306 
L 4313 3634 
Q 3963 3931 3569 4081 
Q 3175 4231 2741 4231 
Q 1884 4231 1454 3753 
Q 1025 3275 1025 2328 
Q 1025 1384 1454 906 
Q 1884 428 2741 428 
Q 3075 428 3337 486 
Q 3600 544 3809 666 
z
" id="DejaVuSans-47" transform="scale(0.015625)"/>
       <path d="M 603 4863 
L 1178 4863 
L 1178 0 
L 603 0 
L 603 4863 
z
" id="DejaVuSans-6c" transform="scale(0.015625)"/>
       <path d="M 1959 3097 
Q 1497 3097 1228 2736 
Q 959 2375 959 1747 
Q 959 1119 1226 758 
Q 1494 397 1959 397 
Q 2419 397 2687 759 
Q 2956 1122 2956 1747 
Q 2956 2369 2687 2733 
Q 2419 3097 1959 3097 
z
M 1959 3584 
Q 2709 3584 3137 3096 
Q 3566 2609 3566 1747 
Q 3566 888 3137 398 
Q 2709 -91 1959 -91 
Q 1206 -91 779 398 
Q 353 888 353 1747 
Q 353 2609 779 3096 
Q 1206 3584 1959 3584 
z
" id="DejaVuSans-6f" transform="scale(0.015625)"/>
       <path d="M 3116 1747 
Q 3116 2381 2855 2742 
Q 2594 3103 2138 3103 
Q 1681 3103 1420 2742 
Q 1159 2381 1159 1747 
Q 1159 1113 1420 752 
Q 1681 391 2138 391 
Q 2594 391 2855 752 
Q 3116 1113 3116 1747 
z
M 1159 2969 
Q 1341 3281 1617 3432 
Q 1894 3584 2278 3584 
Q 2916 3584 3314 3078 
Q 3713 2572 3713 1747 
Q 3713 922 3314 415 
Q 2916 -91 2278 -91 
Q 1894 -91 1617 61 
Q 1341 213 1159 525 
L 1159 0 
L 581 0 
L 581 4863 
L 1159 4863 
L 1159 2969 
z
" id="DejaVuSans-62" transform="scale(0.015625)"/>
       <path d="M 2194 1759 
Q 1497 1759 1228 1600 
Q 959 1441 959 1056 
Q 959 750 1161 570 
Q 1363 391 1709 391 
Q 2188 391 2477 730 
Q 2766 1069 2766 1631 
L 2766 1759 
L 2194 1759 
z
M 3341 1997 
L 3341 0 
L 2766 0 
L 2766 531 
Q 2569 213 2275 61 
Q 1981 -91 1556 -91 
Q 1019 -91 701 211 
Q 384 513 384 1019 
Q 384 1609 779 1909 
Q 1175 2209 1959 2209 
L 2766 2209 
L 2766 2266 
Q 2766 2663 2505 2880 
Q 2244 3097 1772 3097 
Q 1472 3097 1187 3025 
Q 903 2953 641 2809 
L 641 3341 
Q 956 3463 1253 3523 
Q 1550 3584 1831 3584 
Q 2591 3584 2966 3190 
Q 3341 2797 3341 1997 
z
" id="DejaVuSans-61" transform="scale(0.015625)"/>
       <path id="DejaVuSans-20" transform="scale(0.015625)"/>
       <path d="M 4122 4306 
L 4122 3641 
Q 3803 3938 3442 4084 
Q 3081 4231 2675 4231 
Q 1875 4231 1450 3742 
Q 1025 3253 1025 2328 
Q 1025 1406 1450 917 
Q 1875 428 2675 428 
Q 3081 428 3442 575 
Q 3803 722 4122 1019 
L 4122 359 
Q 3791 134 3420 21 
Q 3050 -91 2638 -91 
Q 1578 -91 968 557 
Q 359 1206 359 2328 
Q 359 3453 968 4101 
Q 1578 4750 2638 4750 
Q 3056 4750 3426 4639 
Q 3797 4528 4122 4306 
z
" id="DejaVuSans-43" transform="scale(0.015625)"/>
       <path d="M 3328 2828 
Q 3544 3216 3844 3400 
Q 4144 3584 4550 3584 
Q 5097 3584 5394 3201 
Q 5691 2819 5691 2113 
L 5691 0 
L 5113 0 
L 5113 2094 
Q 5113 2597 4934 2840 
Q 4756 3084 4391 3084 
Q 3944 3084 3684 2787 
Q 3425 2491 3425 1978 
L 3425 0 
L 2847 0 
L 2847 2094 
Q 2847 2600 2669 2842 
Q 2491 3084 2119 3084 
Q 1678 3084 1418 2786 
Q 1159 2488 1159 1978 
L 1159 0 
L 581 0 
L 581 3500 
L 1159 3500 
L 1159 2956 
Q 1356 3278 1631 3431 
Q 1906 3584 2284 3584 
Q 2666 3584 2933 3390 
Q 3200 3197 3328 2828 
z
" id="DejaVuSans-6d" transform="scale(0.015625)"/>
       <path d="M 544 1381 
L 544 3500 
L 1119 3500 
L 1119 1403 
Q 1119 906 1312 657 
Q 1506 409 1894 409 
Q 2359 409 2629 706 
Q 2900 1003 2900 1516 
L 2900 3500 
L 3475 3500 
L 3475 0 
L 2900 0 
L 2900 538 
Q 2691 219 2414 64 
Q 2138 -91 1772 -91 
Q 1169 -91 856 284 
Q 544 659 544 1381 
z
M 1991 3584 
L 1991 3584 
z
" id="DejaVuSans-75" transform="scale(0.015625)"/>
       <path d="M 3513 2113 
L 3513 0 
L 2938 0 
L 2938 2094 
Q 2938 2591 2744 2837 
Q 2550 3084 2163 3084 
Q 1697 3084 1428 2787 
Q 1159 2491 1159 1978 
L 1159 0 
L 581 0 
L 581 3500 
L 1159 3500 
L 1159 2956 
Q 1366 3272 1645 3428 
Q 1925 3584 2291 3584 
Q 2894 3584 3203 3211 
Q 3513 2838 3513 2113 
z
" id="DejaVuSans-6e" transform="scale(0.015625)"/>
       <path d="M 603 3500 
L 1178 3500 
L 1178 0 
L 603 0 
L 603 3500 
z
M 603 4863 
L 1178 4863 
L 1178 4134 
L 603 4134 
L 603 4863 
z
" id="DejaVuSans-69" transform="scale(0.015625)"/>
       <path d="M 3122 3366 
L 3122 2828 
Q 2878 2963 2633 3030 
Q 2388 3097 2138 3097 
Q 1578 3097 1268 2742 
Q 959 2388 959 1747 
Q 959 1106 1268 751 
Q 1578 397 2138 397 
Q 2388 397 2633 464 
Q 2878 531 3122 666 
L 3122 134 
Q 2881 22 2623 -34 
Q 2366 -91 2075 -91 
Q 1284 -91 818 406 
Q 353 903 353 1747 
Q 353 2603 823 3093 
Q 1294 3584 2113 3584 
Q 2378 3584 2631 3529 
Q 2884 3475 3122 3366 
z
" id="DejaVuSans-63" transform="scale(0.015625)"/>
       <path d="M 1172 4494 
L 1172 3500 
L 2356 3500 
L 2356 3053 
L 1172 3053 
L 1172 1153 
Q 1172 725 1289 603 
Q 1406 481 1766 481 
L 2356 481 
L 2356 0 
L 1766 0 
Q 1100 0 847 248 
Q 594 497 594 1153 
L 594 3053 
L 172 3053 
L 172 3500 
L 594 3500 
L 594 4494 
L 1172 4494 
z
" id="DejaVuSans-74" transform="scale(0.015625)"/>
       <path d="M 2841 2188 
Q 3044 2119 3236 1894 
Q 3428 1669 3622 1275 
L 4263 0 
L 3584 0 
L 2988 1197 
Q 2756 1666 2539 1819 
Q 2322 1972 1947 1972 
L 1259 1972 
L 1259 0 
L 628 0 
L 628 4666 
L 2053 4666 
Q 2853 4666 3247 4331 
Q 3641 3997 3641 3322 
Q 3641 2881 3436 2590 
Q 3231 2300 2841 2188 
z
M 1259 4147 
L 1259 2491 
L 2053 2491 
Q 2509 2491 2742 2702 
Q 2975 2913 2975 3322 
Q 2975 3731 2742 3939 
Q 2509 4147 2053 4147 
L 1259 4147 
z
" id="DejaVuSans-52" transform="scale(0.015625)"/>
       <path d="M 2906 2969 
L 2906 4863 
L 3481 4863 
L 3481 0 
L 2906 0 
L 2906 525 
Q 2725 213 2448 61 
Q 2172 -91 1784 -91 
Q 1150 -91 751 415 
Q 353 922 353 1747 
Q 353 2572 751 3078 
Q 1150 3584 1784 3584 
Q 2172 3584 2448 3432 
Q 2725 3281 2906 2969 
z
M 947 1747 
Q 947 1113 1208 752 
Q 1469 391 1925 391 
Q 2381 391 2643 752 
Q 2906 1113 2906 1747 
Q 2906 2381 2643 2742 
Q 2381 3103 1925 3103 
Q 1469 3103 1208 2742 
Q 947 2381 947 1747 
z
" id="DejaVuSans-64" transform="scale(0.015625)"/>
       <path d="M 2834 3397 
L 2834 2853 
Q 2591 2978 2328 3040 
Q 2066 3103 1784 3103 
Q 1356 3103 1142 2972 
Q 928 2841 928 2578 
Q 928 2378 1081 2264 
Q 1234 2150 1697 2047 
L 1894 2003 
Q 2506 1872 2764 1633 
Q 3022 1394 3022 966 
Q 3022 478 2636 193 
Q 2250 -91 1575 -91 
Q 1294 -91 989 -36 
Q 684 19 347 128 
L 347 722 
Q 666 556 975 473 
Q 1284 391 1588 391 
Q 1994 391 2212 530 
Q 2431 669 2431 922 
Q 2431 1156 2273 1281 
Q 2116 1406 1581 1522 
L 1381 1569 
Q 847 1681 609 1914 
Q 372 2147 372 2553 
Q 372 3047 722 3315 
Q 1072 3584 1716 3584 
Q 2034 3584 2315 3537 
Q 2597 3491 2834 3397 
z
" id="DejaVuSans-73" transform="scale(0.015625)"/>
      </defs>
      <use xlink:href="#DejaVuSans-47"/>
      <use x="77.490234" xlink:href="#DejaVuSans-6c"/>
      <use x="105.273438" xlink:href="#DejaVuSans-6f"/>
      <use x="166.455078" xlink:href="#DejaVuSans-62"/>
      <use x="229.931641" xlink:href="#DejaVuSans-61"/>
      <use x="291.210938" xlink:href="#DejaVuSans-6c"/>
      <use x="318.994141" xlink:href="#DejaVuSans-20"/>
      <use x="350.78125" xlink:href="#DejaVuSans-43"/>
      <use x="420.605469" xlink:href="#DejaVuSans-6f"/>
      <use x="481.787109" xlink:href="#DejaVuSans-6d"/>
      <use x="579.199219" xlink:href="#DejaVuSans-6d"/>
      <use x="676.611328" xlink:href="#DejaVuSans-75"/>
      <use x="739.990234" xlink:href="#DejaVuSans-6e"/>
      <use x="803.369141" xlink:href="#DejaVuSans-69"/>
      <use x="831.152344" xlink:href="#DejaVuSans-63"/>
      <use x="886.132812" xlink:href="#DejaVuSans-61"/>
      <use x="947.412109" xlink:href="#DejaVuSans-74"/>
      <use x="986.621094" xlink:href="#DejaVuSans-69"/>
      <use x="1014.404297" xlink:href="#DejaVuSans-6f"/>
      <use x="1075.585938" xlink:href="#DejaVuSans-6e"/>
      <use x="1138.964844" xlink:href="#DejaVuSans-20"/>
      <use x="1170.751953" xlink:href="#DejaVuSans-52"/>
      <use x="1235.734375" xlink:href="#DejaVuSans-6f"/>
      <use x="1296.916016" xlink:href="#DejaVuSans-75"/>
      <use x="1360.294922" xlink:href="#DejaVuSans-6e"/>
      <use x="1423.673828" xlink:href="#DejaVuSans-64"/>
      <use x="1487.150391" xlink:href="#DejaVuSans-73"/>
     </g>
    </g>
   </g>
   <g id="matplotlib.axis_2">
    <g id="ytick_1">
     <g id="line2d_7">
      <defs>
       <path d="M 0 0 
L -3.5 0 
" id="mc5a7a0a838" style="stroke:#000000;stroke-width:0.8;"/>
      </defs>
      <g>
       <use style="stroke:#000000;stroke-width:0.8;" x="44.48" xlink:href="#mc5a7a0a838" y="281.801784"/>
      </g>
     </g>
     <g id="text_8">
      <!-- 20 -->
      <g transform="translate(24.755 285.601003)scale(0.1 -0.1)">
       <use xlink:href="#DejaVuSans-32"/>
       <use x="63.623047" xlink:href="#DejaVuSans-30"/>
      </g>
     </g>
    </g>
    <g id="ytick_2">
     <g id="line2d_8">
      <g>
       <use style="stroke:#000000;stroke-width:0.8;" x="44.48" xlink:href="#mc5a7a0a838" y="246.962923"/>
      </g>
     </g>
     <g id="text_9">
      <!-- 25 -->
      <g transform="translate(24.755 250.762142)scale(0.1 -0.1)">
       <use xlink:href="#DejaVuSans-32"/>
       <use x="63.623047" xlink:href="#DejaVuSans-35"/>
      </g>
     </g>
    </g>
    <g id="ytick_3">
     <g id="line2d_9">
      <g>
       <use style="stroke:#000000;stroke-width:0.8;" x="44.48" xlink:href="#mc5a7a0a838" y="212.124061"/>
      </g>
     </g>
     <g id="text_10">
      <!-- 30 -->
      <g transform="translate(24.755 215.92328)scale(0.1 -0.1)">
       <use xlink:href="#DejaVuSans-33"/>
       <use x="63.623047" xlink:href="#DejaVuSans-30"/>
      </g>
     </g>
    </g>
    <g id="ytick_4">
     <g id="line2d_10">
      <g>
       <use style="stroke:#000000;stroke-width:0.8;" x="44.48" xlink:href="#mc5a7a0a838" y="177.2852"/>
      </g>
     </g>
     <g id="text_11">
      <!-- 35 -->
      <g transform="translate(24.755 181.084419)scale(0.1 -0.1)">
       <use xlink:href="#DejaVuSans-33"/>
       <use x="63.623047" xlink:href="#DejaVuSans-35"/>
      </g>
     </g>
    </g>
    <g id="ytick_5">
     <g id="line2d_11">
      <g>
       <use style="stroke:#000000;stroke-width:0.8;" x="44.48" xlink:href="#mc5a7a0a838" y="142.446339"/>
      </g>
     </g>
     <g id="text_12">
      <!-- 40 -->
      <g transform="translate(24.755 146.245558)scale(0.1 -0.1)">
       <use xlink:href="#DejaVuSans-34"/>
       <use x="63.623047" xlink:href="#DejaVuSans-30"/>
      </g>
     </g>
    </g>
    <g id="ytick_6">
     <g id="line2d_12">
      <g>
       <use style="stroke:#000000;stroke-width:0.8;" x="44.48" xlink:href="#mc5a7a0a838" y="107.607478"/>
      </g>
     </g>
     <g id="text_13">
      <!-- 45 -->
      <g transform="translate(24.755 111.406696)scale(0.1 -0.1)">
       <use xlink:href="#DejaVuSans-34"/>
       <use x="63.623047" xlink:href="#DejaVuSans-35"/>
      </g>
     </g>
    </g>
    <g id="ytick_7">
     <g id="line2d_13">
      <g>
       <use style="stroke:#000000;stroke-width:0.8;" x="44.48" xlink:href="#mc5a7a0a838" y="72.768616"/>
      </g>
     </g>
     <g id="text_14">
      <!-- 50 -->
      <g transform="translate(24.755 76.567835)scale(0.1 -0.1)">
       <use xlink:href="#DejaVuSans-35"/>
       <use x="63.623047" xlink:href="#DejaVuSans-30"/>
      </g>
     </g>
    </g>
    <g id="ytick_8">
     <g id="line2d_14">
      <g>
       <use style="stroke:#000000;stroke-width:0.8;" x="44.48" xlink:href="#mc5a7a0a838" y="37.929755"/>
      </g>
     </g>
     <g id="text_15">
      <!-- 55 -->
      <g transform="translate(24.755 41.728974)scale(0.1 -0.1)">
       <use xlink:href="#DejaVuSans-35"/>
       <use x="63.623047" xlink:href="#DejaVuSans-35"/>
      </g>
     </g>
    </g>
    <g id="text_16">
     <!-- Test Accuracy -->
     <g transform="translate(18.675313 202.520914)rotate(-90)scale(0.1 -0.1)">
      <defs>
       <path d="M -19 4666 
L 3928 4666 
L 3928 4134 
L 2272 4134 
L 2272 0 
L 1638 0 
L 1638 4134 
L -19 4134 
L -19 4666 
z
" id="DejaVuSans-54" transform="scale(0.015625)"/>
       <path d="M 3597 1894 
L 3597 1613 
L 953 1613 
Q 991 1019 1311 708 
Q 1631 397 2203 397 
Q 2534 397 2845 478 
Q 3156 559 3463 722 
L 3463 178 
Q 3153 47 2828 -22 
Q 2503 -91 2169 -91 
Q 1331 -91 842 396 
Q 353 884 353 1716 
Q 353 2575 817 3079 
Q 1281 3584 2069 3584 
Q 2775 3584 3186 3129 
Q 3597 2675 3597 1894 
z
M 3022 2063 
Q 3016 2534 2758 2815 
Q 2500 3097 2075 3097 
Q 1594 3097 1305 2825 
Q 1016 2553 972 2059 
L 3022 2063 
z
" id="DejaVuSans-65" transform="scale(0.015625)"/>
       <path d="M 2188 4044 
L 1331 1722 
L 3047 1722 
L 2188 4044 
z
M 1831 4666 
L 2547 4666 
L 4325 0 
L 3669 0 
L 3244 1197 
L 1141 1197 
L 716 0 
L 50 0 
L 1831 4666 
z
" id="DejaVuSans-41" transform="scale(0.015625)"/>
       <path d="M 2631 2963 
Q 2534 3019 2420 3045 
Q 2306 3072 2169 3072 
Q 1681 3072 1420 2755 
Q 1159 2438 1159 1844 
L 1159 0 
L 581 0 
L 581 3500 
L 1159 3500 
L 1159 2956 
Q 1341 3275 1631 3429 
Q 1922 3584 2338 3584 
Q 2397 3584 2469 3576 
Q 2541 3569 2628 3553 
L 2631 2963 
z
" id="DejaVuSans-72" transform="scale(0.015625)"/>
       <path d="M 2059 -325 
Q 1816 -950 1584 -1140 
Q 1353 -1331 966 -1331 
L 506 -1331 
L 506 -850 
L 844 -850 
Q 1081 -850 1212 -737 
Q 1344 -625 1503 -206 
L 1606 56 
L 191 3500 
L 800 3500 
L 1894 763 
L 2988 3500 
L 3597 3500 
L 2059 -325 
z
" id="DejaVuSans-79" transform="scale(0.015625)"/>
      </defs>
      <use xlink:href="#DejaVuSans-54"/>
      <use x="44.083984" xlink:href="#DejaVuSans-65"/>
      <use x="105.607422" xlink:href="#DejaVuSans-73"/>
      <use x="157.707031" xlink:href="#DejaVuSans-74"/>
      <use x="196.916016" xlink:href="#DejaVuSans-20"/>
      <use x="228.703125" xlink:href="#DejaVuSans-41"/>
      <use x="295.361328" xlink:href="#DejaVuSans-63"/>
      <use x="350.341797" xlink:href="#DejaVuSans-63"/>
      <use x="405.322266" xlink:href="#DejaVuSans-75"/>
      <use x="468.701172" xlink:href="#DejaVuSans-72"/>
      <use x="509.814453" xlink:href="#DejaVuSans-61"/>
      <use x="571.09375" xlink:href="#DejaVuSans-63"/>
      <use x="626.074219" xlink:href="#DejaVuSans-79"/>
     </g>
    </g>
   </g>
   <g id="line2d_15">
    <path clip-path="url(#p277bab5333)" d="M 62.912727 291.319116 
L 70.436289 261.980631 
L 77.959852 209.165299 
L 85.483414 183.045495 
L 93.006976 167.824094 
L 100.530538 157.8078 
L 108.0541 149.017028 
L 115.577662 144.912872 
L 123.101224 140.492236 
L 130.624787 133.479146 
L 138.148349 131.920307 
L 145.671911 126.856607 
L 153.195473 123.509987 
L 160.719035 119.432766 
L 168.242597 117.032222 
L 175.76616 112.840529 
L 183.289722 111.412996 
L 190.813284 108.275118 
L 198.336846 106.393065 
L 205.860408 104.760156 
L 213.38397 101.389968 
L 220.907532 101.363033 
L 228.431095 98.979323 
L 235.954657 96.730287 
L 243.478219 95.326322 
L 251.001781 94.48125 
L 258.525343 92.232213 
L 266.048905 90.289557 
L 273.572468 89.838402 
L 281.09603 88.518608 
L 288.619592 87.724038 
L 296.143154 87.518662 
L 303.666716 85.949723 
L 311.190278 84.720833 
L 318.71384 83.41114 
L 326.237403 82.26642 
L 333.760965 82.545867 
L 341.284527 82.057677 
L 348.808089 80.680647 
L 356.331651 79.73457 
L 363.855213 78.552816 
L 371.378776 78.290204 
L 378.902338 76.007499 
L 386.4259 75.616947 
L 393.949462 75.691017 
L 401.473024 74.495796 
L 408.996586 73.169268 
L 416.520148 72.825852 
L 424.043711 72.654144 
L 431.567273 71.580128 
" style="fill:none;stroke:#1f77b4;stroke-linecap:square;stroke-width:1.5;"/>
   </g>
   <g id="line2d_16">
    <path clip-path="url(#p277bab5333)" d="M 62.912727 291.332583 
L 70.436289 291.332583 
L 77.959852 268.414628 
L 85.483414 246.210438 
L 93.006976 231.766773 
L 100.530538 238.345543 
L 108.0541 220.932341 
L 115.577662 214.04719 
L 123.101224 209.576051 
L 130.624787 201.08156 
L 138.148349 201.913165 
L 145.671911 195.721579 
L 153.195473 189.314518 
L 160.719035 181.274547 
L 168.242597 180.833494 
L 175.76616 175.584619 
L 183.289722 171.039409 
L 190.813284 166.393195 
L 198.336846 164.383203 
L 205.860408 162.558385 
L 213.38397 159.107393 
L 220.907532 159.972666 
L 228.431095 154.370275 
L 235.954657 153.17842 
L 243.478219 151.558979 
L 251.001781 150.121346 
L 258.525343 146.192265 
L 266.048905 145.061013 
L 273.572468 146.289903 
L 281.09603 146.077793 
L 288.619592 143.047653 
L 296.143154 142.209315 
L 303.666716 139.741434 
L 311.190278 139.391285 
L 318.71384 137.18265 
L 326.237403 135.691148 
L 333.760965 135.24336 
L 341.284527 135.071653 
L 348.808089 133.327639 
L 356.331651 131.916941 
L 363.855213 132.755279 
L 371.378776 130.842924 
L 378.902338 129.546698 
L 386.4259 129.105644 
L 393.949462 129.526497 
L 401.473024 126.011535 
L 408.996586 126.082238 
L 416.520148 126.001435 
L 424.043711 125.277568 
L 431.567273 123.058833 
" style="fill:none;stroke:#ff7f0e;stroke-linecap:square;stroke-width:1.5;"/>
   </g>
   <g id="line2d_17">
    <path clip-path="url(#p277bab5333)" d="M 62.912727 289.123948 
L 70.436289 267.59649 
L 77.959852 222.164597 
L 85.483414 199.721364 
L 93.006976 181.617963 
L 100.530538 175.729392 
L 108.0541 162.016327 
L 115.577662 154.171632 
L 123.101224 149.212304 
L 130.624787 142.990417 
L 138.148349 137.357724 
L 145.671911 137.276921 
L 153.195473 133.391608 
L 160.719035 128.334642 
L 168.242597 124.018377 
L 175.76616 121.6212 
L 183.289722 119.09945 
L 190.813284 116.311722 
L 198.336846 113.695701 
L 205.860408 111.035912 
L 213.38397 108.497329 
L 220.907532 106.05975 
L 228.431095 104.005988 
L 235.954657 103.89825 
L 243.478219 102.369713 
L 251.001781 100.437157 
L 258.525343 98.053447 
L 266.048905 96.386871 
L 273.572468 95.168081 
L 281.09603 93.4005 
L 288.619592 91.801259 
L 296.143154 91.316437 
L 303.666716 90.858549 
L 311.190278 89.410816 
L 318.71384 88.19876 
L 326.237403 86.225803 
L 333.760965 85.81505 
L 341.284527 84.269679 
L 348.808089 83.138427 
L 356.331651 82.818579 
L 363.855213 82.545867 
L 371.378776 81.680593 
L 378.902338 79.636933 
L 386.4259 78.785127 
L 393.949462 78.303671 
L 401.473024 77.078148 
L 408.996586 75.724686 
L 416.520148 74.785342 
L 424.043711 74.980618 
L 431.567273 73.482382 
" style="fill:none;stroke:#2ca02c;stroke-linecap:square;stroke-width:1.5;"/>
   </g>
   <g id="line2d_18">
    <path clip-path="url(#p277bab5333)" d="M 62.912727 245.294663 
L 70.436289 169.884589 
L 77.959852 148.946325 
L 85.483414 132.832716 
L 93.006976 120.957936 
L 100.530538 112.783293 
L 108.0541 108.332354 
L 115.577662 102.642425 
L 123.101224 97.400284 
L 130.624787 93.811252 
L 138.148349 90.104381 
L 145.671911 86.82173 
L 153.195473 82.727675 
L 160.719035 80.660446 
L 168.242597 77.869351 
L 175.76616 75.734786 
L 183.289722 72.994193 
L 190.813284 71.189577 
L 198.336846 70.091993 
L 205.860408 67.84969 
L 213.38397 66.634267 
L 220.907532 64.684877 
L 228.431095 63.863373 
L 235.954657 61.806245 
L 243.478219 60.446049 
L 251.001781 59.776051 
L 258.525343 58.479825 
L 266.048905 57.887264 
L 273.572468 56.685309 
L 281.09603 55.26451 
L 288.619592 54.570945 
L 296.143154 53.533964 
L 303.666716 52.769695 
L 311.190278 52.803363 
L 318.71384 51.513871 
L 326.237403 52.278139 
L 333.760965 50.800104 
L 341.284527 49.911263 
L 348.808089 50.140207 
L 356.331651 49.712621 
L 363.855213 48.800212 
L 371.378776 48.261521 
L 378.902338 47.897904 
L 386.4259 47.493885 
L 393.949462 47.214439 
L 401.473024 46.887857 
L 408.996586 46.568009 
L 416.520148 45.854243 
L 424.043711 46.039418 
L 431.567273 45.386255 
" style="fill:none;stroke:#d62728;stroke-linecap:square;stroke-width:1.5;"/>
   </g>
   <g id="patch_3">
    <path d="M 44.48 303.64 
L 44.48 32.876829 
" style="fill:none;stroke:#000000;stroke-linecap:square;stroke-linejoin:miter;stroke-width:0.8;"/>
   </g>
   <g id="patch_4">
    <path d="M 450 303.64 
L 450 32.876829 
" style="fill:none;stroke:#000000;stroke-linecap:square;stroke-linejoin:miter;stroke-width:0.8;"/>
   </g>
   <g id="patch_5">
    <path d="M 44.48 303.64 
L 450 303.64 
" style="fill:none;stroke:#000000;stroke-linecap:square;stroke-linejoin:miter;stroke-width:0.8;"/>
   </g>
   <g id="patch_6">
    <path d="M 44.48 32.876829 
L 450 32.876829 
" style="fill:none;stroke:#000000;stroke-linecap:square;stroke-linejoin:miter;stroke-width:0.8;"/>
   </g>
   <g id="legend_1">
    <g id="patch_7">
     <path d="M 80.841563 28.478637 
L 413.638438 28.478637 
Q 415.638438 28.478637 415.638438 26.478637 
L 415.638438 12.800512 
Q 415.638438 10.800512 413.638438 10.800512 
L 80.841563 10.800512 
Q 78.841563 10.800512 78.841563 12.800512 
L 78.841563 26.478637 
Q 78.841563 28.478637 80.841563 28.478637 
z
" style="fill:#ffffff;opacity:0.8;stroke:#cccccc;stroke-linejoin:miter;"/>
    </g>
    <g id="line2d_19">
     <path d="M 82.841563 18.898949 
L 102.841563 18.898949 
" style="fill:none;stroke:#1f77b4;stroke-linecap:square;stroke-width:1.5;"/>
    </g>
    <g id="line2d_20"/>
    <g id="text_17">
     <!-- FedAvg -->
     <g transform="translate(110.841563 22.398949)scale(0.1 -0.1)">
      <defs>
       <path d="M 628 4666 
L 3309 4666 
L 3309 4134 
L 1259 4134 
L 1259 2759 
L 3109 2759 
L 3109 2228 
L 1259 2228 
L 1259 0 
L 628 0 
L 628 4666 
z
" id="DejaVuSans-46" transform="scale(0.015625)"/>
       <path d="M 191 3500 
L 800 3500 
L 1894 563 
L 2988 3500 
L 3597 3500 
L 2284 0 
L 1503 0 
L 191 3500 
z
" id="DejaVuSans-76" transform="scale(0.015625)"/>
       <path d="M 2906 1791 
Q 2906 2416 2648 2759 
Q 2391 3103 1925 3103 
Q 1463 3103 1205 2759 
Q 947 2416 947 1791 
Q 947 1169 1205 825 
Q 1463 481 1925 481 
Q 2391 481 2648 825 
Q 2906 1169 2906 1791 
z
M 3481 434 
Q 3481 -459 3084 -895 
Q 2688 -1331 1869 -1331 
Q 1566 -1331 1297 -1286 
Q 1028 -1241 775 -1147 
L 775 -588 
Q 1028 -725 1275 -790 
Q 1522 -856 1778 -856 
Q 2344 -856 2625 -561 
Q 2906 -266 2906 331 
L 2906 616 
Q 2728 306 2450 153 
Q 2172 0 1784 0 
Q 1141 0 747 490 
Q 353 981 353 1791 
Q 353 2603 747 3093 
Q 1141 3584 1784 3584 
Q 2172 3584 2450 3431 
Q 2728 3278 2906 2969 
L 2906 3500 
L 3481 3500 
L 3481 434 
z
" id="DejaVuSans-67" transform="scale(0.015625)"/>
      </defs>
      <use xlink:href="#DejaVuSans-46"/>
      <use x="52.019531" xlink:href="#DejaVuSans-65"/>
      <use x="113.542969" xlink:href="#DejaVuSans-64"/>
      <use x="177.019531" xlink:href="#DejaVuSans-41"/>
      <use x="239.552734" xlink:href="#DejaVuSans-76"/>
      <use x="298.732422" xlink:href="#DejaVuSans-67"/>
     </g>
    </g>
    <g id="line2d_21">
     <path d="M 167.065 18.898949 
L 187.065 18.898949 
" style="fill:none;stroke:#ff7f0e;stroke-linecap:square;stroke-width:1.5;"/>
    </g>
    <g id="line2d_22"/>
    <g id="text_18">
     <!-- FedMed -->
     <g transform="translate(195.065 22.398949)scale(0.1 -0.1)">
      <defs>
       <path d="M 628 4666 
L 1569 4666 
L 2759 1491 
L 3956 4666 
L 4897 4666 
L 4897 0 
L 4281 0 
L 4281 4097 
L 3078 897 
L 2444 897 
L 1241 4097 
L 1241 0 
L 628 0 
L 628 4666 
z
" id="DejaVuSans-4d" transform="scale(0.015625)"/>
      </defs>
      <use xlink:href="#DejaVuSans-46"/>
      <use x="52.019531" xlink:href="#DejaVuSans-65"/>
      <use x="113.542969" xlink:href="#DejaVuSans-64"/>
      <use x="177.019531" xlink:href="#DejaVuSans-4d"/>
      <use x="263.298828" xlink:href="#DejaVuSans-65"/>
      <use x="324.822266" xlink:href="#DejaVuSans-64"/>
     </g>
    </g>
    <g id="line2d_23">
     <path d="M 253.897813 18.898949 
L 273.897812 18.898949 
" style="fill:none;stroke:#2ca02c;stroke-linecap:square;stroke-width:1.5;"/>
    </g>
    <g id="line2d_24"/>
    <g id="text_19">
     <!-- FedProx -->
     <g transform="translate(281.897812 22.398949)scale(0.1 -0.1)">
      <defs>
       <path d="M 1259 4147 
L 1259 2394 
L 2053 2394 
Q 2494 2394 2734 2622 
Q 2975 2850 2975 3272 
Q 2975 3691 2734 3919 
Q 2494 4147 2053 4147 
L 1259 4147 
z
M 628 4666 
L 2053 4666 
Q 2838 4666 3239 4311 
Q 3641 3956 3641 3272 
Q 3641 2581 3239 2228 
Q 2838 1875 2053 1875 
L 1259 1875 
L 1259 0 
L 628 0 
L 628 4666 
z
" id="DejaVuSans-50" transform="scale(0.015625)"/>
       <path d="M 3513 3500 
L 2247 1797 
L 3578 0 
L 2900 0 
L 1881 1375 
L 863 0 
L 184 0 
L 1544 1831 
L 300 3500 
L 978 3500 
L 1906 2253 
L 2834 3500 
L 3513 3500 
z
" id="DejaVuSans-78" transform="scale(0.015625)"/>
      </defs>
      <use xlink:href="#DejaVuSans-46"/>
      <use x="52.019531" xlink:href="#DejaVuSans-65"/>
      <use x="113.542969" xlink:href="#DejaVuSans-64"/>
      <use x="177.019531" xlink:href="#DejaVuSans-50"/>
      <use x="235.572266" xlink:href="#DejaVuSans-72"/>
      <use x="274.435547" xlink:href="#DejaVuSans-6f"/>
      <use x="332.492188" xlink:href="#DejaVuSans-78"/>
     </g>
    </g>
    <g id="line2d_25">
     <path d="M 341.066563 18.898949 
L 361.066563 18.898949 
" style="fill:none;stroke:#d62728;stroke-linecap:square;stroke-width:1.5;"/>
    </g>
    <g id="line2d_26"/>
    <g id="text_20">
     <!-- qFedAvg -->
     <g transform="translate(369.066563 22.398949)scale(0.1 -0.1)">
      <defs>
       <path d="M 947 1747 
Q 947 1113 1208 752 
Q 1469 391 1925 391 
Q 2381 391 2643 752 
Q 2906 1113 2906 1747 
Q 2906 2381 2643 2742 
Q 2381 3103 1925 3103 
Q 1469 3103 1208 2742 
Q 947 2381 947 1747 
z
M 2906 525 
Q 2725 213 2448 61 
Q 2172 -91 1784 -91 
Q 1150 -91 751 415 
Q 353 922 353 1747 
Q 353 2572 751 3078 
Q 1150 3584 1784 3584 
Q 2172 3584 2448 3432 
Q 2725 3281 2906 2969 
L 2906 3500 
L 3481 3500 
L 3481 -1331 
L 2906 -1331 
L 2906 525 
z
" id="DejaVuSans-71" transform="scale(0.015625)"/>
      </defs>
      <use xlink:href="#DejaVuSans-71"/>
      <use x="63.476562" xlink:href="#DejaVuSans-46"/>
      <use x="115.496094" xlink:href="#DejaVuSans-65"/>
      <use x="177.019531" xlink:href="#DejaVuSans-64"/>
      <use x="240.496094" xlink:href="#DejaVuSans-41"/>
      <use x="303.029297" xlink:href="#DejaVuSans-76"/>
      <use x="362.208984" xlink:href="#DejaVuSans-67"/>
     </g>
    </g>
   </g>
  </g>
 </g>
 <defs>
  <clipPath id="p277bab5333">
   <rect height="270.763171" width="405.52" x="44.48" y="32.876829"/>
  </clipPath>
 </defs>
</svg>
