<?xml version="1.0" encoding="utf-8" standalone="no"?>
<!DOCTYPE svg PUBLIC "-//W3C//DTD SVG 1.1//EN"
  "http://www.w3.org/Graphics/SVG/1.1/DTD/svg11.dtd">
<svg height="345.6pt" version="1.1" viewBox="0 0 460.8 345.6" width="460.8pt" xmlns="http://www.w3.org/2000/svg" xmlns:xlink="http://www.w3.org/1999/xlink">
 <metadata>
  <rdf:RDF xmlns:cc="http://creativecommons.org/ns#" xmlns:dc="http://purl.org/dc/elements/1.1/" xmlns:rdf="http://www.w3.org/1999/02/22-rdf-syntax-ns#">
   <cc:Work>
    <dc:type rdf:resource="http://purl.org/dc/dcmitype/StillImage"/>
    <dc:date>2021-04-30T09:52:41.717083</dc:date>
    <dc:format>image/svg+xml</dc:format>
    <dc:creator>
     <cc:Agent>
      <dc:title>Matplotlib v3.4.1, https://matplotlib.org/</dc:title>
     </cc:Agent>
    </dc:creator>
   </cc:Work>
  </rdf:RDF>
 </metadata>
 <defs>
  <style type="text/css">*{stroke-linecap:butt;stroke-linejoin:round;}</style>
 </defs>
 <g id="figure_1">
  <g id="patch_1">
   <path d="M 0 345.6 
L 460.8 345.6 
L 460.8 0 
L 0 0 
z
" style="fill:#ffffff;"/>
  </g>
  <g id="axes_1">
   <g id="patch_2">
    <path d="M 53.93 303.64 
L 366.25 303.64 
L 366.25 26.88 
L 53.93 26.88 
z
" style="fill:#ffffff;"/>
   </g>
   <g id="PolyCollection_1">
    <path clip-path="url(#pf56b3b6faa)" d="M 68.126364 291.032469 
L 68.126364 291.06 
L 73.920798 289.827982 
L 79.715232 225.487761 
L 85.509666 185.73971 
L 91.3041 170.342933 
L 97.098534 155.37977 
L 102.892968 148.207914 
L 108.687403 145.014304 
L 114.481837 139.370425 
L 120.276271 133.368642 
L 126.070705 132.996972 
L 131.865139 126.891946 
L 137.659573 124.07689 
L 143.454007 118.405479 
L 149.248442 116.526481 
L 155.042876 111.825542 
L 160.83731 110.972078 
L 166.631744 107.145252 
L 172.426178 105.362613 
L 178.220612 103.070647 
L 184.015046 101.556436 
L 189.809481 101.425663 
L 195.603915 97.633251 
L 201.398349 95.423879 
L 207.192783 93.207624 
L 212.987217 92.244035 
L 218.781651 89.11237 
L 224.576085 87.618807 
L 230.370519 87.62569 
L 236.164954 86.200955 
L 241.959388 83.674975 
L 247.753822 84.211831 
L 253.548256 81.899218 
L 259.34269 80.873683 
L 265.137124 80.756676 
L 270.931558 78.471593 
L 276.725993 79.621018 
L 282.520427 77.212045 
L 288.314861 77.136334 
L 294.109295 76.262221 
L 299.903729 74.57594 
L 305.698163 73.467813 
L 311.492597 72.277092 
L 317.287032 71.60258 
L 323.081466 71.981133 
L 328.8759 71.003778 
L 334.670334 69.558394 
L 340.464768 69.537746 
L 346.259202 69.014655 
L 352.053636 69.358794 
L 352.053636 63.522197 
L 352.053636 63.522197 
L 346.259202 66.061942 
L 340.464768 65.889873 
L 334.670334 66.571268 
L 328.8759 67.837699 
L 323.081466 69.303731 
L 317.287032 69.530863 
L 311.492597 69.654753 
L 305.698163 73.130557 
L 299.903729 72.559286 
L 294.109295 73.288861 
L 288.314861 74.348809 
L 282.520427 77.088155 
L 276.725993 75.677185 
L 270.931558 76.255339 
L 265.137124 76.310401 
L 259.34269 78.870795 
L 253.548256 80.357475 
L 247.753822 81.252236 
L 241.959388 82.208943 
L 236.164954 81.307299 
L 230.370519 82.580613 
L 224.576085 83.509788 
L 218.781651 85.987589 
L 212.987217 87.453621 
L 207.192783 88.217609 
L 201.398349 88.871473 
L 195.603915 91.259798 
L 189.809481 92.340394 
L 184.015046 92.264683 
L 178.220612 97.640134 
L 172.426178 98.686317 
L 166.631744 100.75115 
L 160.83731 103.339075 
L 155.042876 105.403909 
L 149.248442 109.272031 
L 143.454007 112.300454 
L 137.659573 114.96409 
L 131.865139 118.990516 
L 126.070705 123.237191 
L 120.276271 126.052247 
L 114.481837 134.387293 
L 108.687403 137.780503 
L 102.892968 142.977002 
L 97.098534 153.776083 
L 91.3041 159.289189 
L 85.509666 175.009457 
L 79.715232 188.658008 
L 73.920798 232.287947 
L 68.126364 291.032469 
z
" style="fill:#1f77b4;fill-opacity:0.5;"/>
   </g>
   <g id="PolyCollection_2">
    <path clip-path="url(#pf56b3b6faa)" d="M 68.126364 291.06 
L 68.126364 291.06 
L 73.920798 291.06 
L 79.715232 267.982041 
L 85.509666 256.370792 
L 91.3041 238.647635 
L 97.098534 249.508661 
L 102.892968 226.258632 
L 108.687403 213.553021 
L 114.481837 210.565895 
L 120.276271 201.604516 
L 126.070705 202.829651 
L 131.865139 194.260591 
L 137.659573 188.541001 
L 143.454007 179.971941 
L 149.248442 179.139125 
L 155.042876 173.419535 
L 160.83731 168.739245 
L 166.631744 163.687285 
L 172.426178 163.859354 
L 178.220612 161.147539 
L 184.015046 157.678619 
L 189.809481 161.457264 
L 195.603915 151.807608 
L 201.398349 150.334693 
L 207.192783 152.027857 
L 212.987217 149.529408 
L 218.781651 145.32403 
L 224.576085 143.279844 
L 230.370519 143.940591 
L 236.164954 143.149071 
L 241.959388 142.185482 
L 247.753822 144.250316 
L 253.548256 142.901291 
L 259.34269 138.386188 
L 265.137124 137.890628 
L 270.931558 134.55248 
L 276.725993 134.580011 
L 282.520427 134.697018 
L 288.314861 132.405053 
L 294.109295 130.73942 
L 299.903729 132.955675 
L 305.698163 130.271391 
L 311.492597 128.543813 
L 317.287032 127.938129 
L 323.081466 128.062019 
L 328.8759 124.840878 
L 334.670334 124.166366 
L 340.464768 124.778933 
L 346.259202 123.629509 
L 352.053636 121.385723 
L 352.053636 116.732964 
L 352.053636 116.732964 
L 346.259202 119.02493 
L 340.464768 119.355303 
L 334.670334 120.133057 
L 328.8759 119.314006 
L 323.081466 123.278487 
L 317.287032 122.54203 
L 311.492597 122.837989 
L 305.698163 123.760282 
L 299.903729 124.985416 
L 294.109295 125.487859 
L 288.314861 126.706111 
L 282.520427 127.979426 
L 276.725993 128.447455 
L 270.931558 129.390395 
L 265.137124 129.101319 
L 259.34269 133.120862 
L 253.548256 129.321568 
L 247.753822 133.01762 
L 241.959388 136.796266 
L 236.164954 142.027178 
L 230.370519 141.669274 
L 224.576085 139.817806 
L 218.781651 140.086234 
L 212.987217 143.91306 
L 207.192783 144.353558 
L 201.398349 149.357338 
L 195.603915 150.320927 
L 189.809481 152.124216 
L 184.015046 154.133987 
L 178.220612 157.719915 
L 172.426178 158.738567 
L 166.631744 163.019655 
L 160.83731 167.465931 
L 155.042876 172.077393 
L 149.248442 177.088056 
L 143.454007 177.156884 
L 137.659573 185.023901 
L 131.865139 192.40224 
L 126.070705 196.490611 
L 120.276271 196.0157 
L 114.481837 204.419573 
L 108.687403 210.572778 
L 102.892968 211.942451 
L 97.098534 224.290157 
L 91.3041 221.702232 
L 85.509666 233.506199 
L 79.715232 267.28688 
L 73.920798 291.06 
L 68.126364 291.06 
z
" style="fill:#ff7f0e;fill-opacity:0.5;"/>
   </g>
   <g id="PolyCollection_3">
    <path clip-path="url(#pf56b3b6faa)" d="M 68.126364 286.544897 
L 68.126364 291.06 
L 73.920798 291.06 
L 79.715232 258.132783 
L 85.509666 221.358093 
L 91.3041 193.36583 
L 97.098534 185.939311 
L 102.892968 170.232808 
L 108.687403 156.804506 
L 114.481837 148.896192 
L 120.276271 143.465679 
L 126.070705 137.677262 
L 131.865139 137.395068 
L 137.659573 131.806251 
L 143.454007 126.217434 
L 149.248442 121.92258 
L 155.042876 118.013161 
L 160.83731 115.067331 
L 166.631744 112.747835 
L 172.426178 112.121502 
L 178.220612 109.306445 
L 184.015046 106.814879 
L 189.809481 104.571093 
L 195.603915 102.272245 
L 201.398349 101.707857 
L 207.192783 100.792447 
L 212.987217 99.168111 
L 218.781651 96.050212 
L 224.576085 95.334403 
L 230.370519 94.308869 
L 236.164954 92.140793 
L 241.959388 90.709175 
L 247.753822 90.048428 
L 253.548256 89.587282 
L 259.34269 88.596162 
L 265.137124 87.5018 
L 270.931558 85.547091 
L 276.725993 84.755571 
L 282.520427 83.86081 
L 288.314861 81.720265 
L 294.109295 81.548196 
L 299.903729 81.851038 
L 305.698163 80.350592 
L 311.492597 78.1894 
L 317.287032 78.024213 
L 323.081466 75.828606 
L 328.8759 75.505116 
L 334.670334 72.490458 
L 340.464768 71.747118 
L 346.259202 71.643876 
L 352.053636 69.861236 
L 352.053636 66.908524 
L 352.053636 66.908524 
L 346.259202 68.188721 
L 340.464768 67.686278 
L 334.670334 68.863233 
L 328.8759 68.615453 
L 323.081466 70.797294 
L 317.287032 69.585925 
L 311.492597 71.162082 
L 305.698163 73.178736 
L 299.903729 73.447165 
L 294.109295 74.307512 
L 288.314861 74.789307 
L 282.520427 74.961376 
L 276.725993 77.22581 
L 270.931558 77.27399 
L 265.137124 79.352589 
L 259.34269 80.736028 
L 253.548256 82.704503 
L 247.753822 83.179415 
L 241.959388 83.509788 
L 236.164954 85.34749 
L 230.370519 86.792874 
L 224.576085 88.258906 
L 218.781651 90.950072 
L 212.987217 92.705181 
L 207.192783 95.031561 
L 201.398349 97.240933 
L 195.603915 96.896794 
L 189.809481 98.796441 
L 184.015046 101.535787 
L 178.220612 104.233837 
L 172.426178 106.856176 
L 166.631744 111.577762 
L 160.83731 114.957207 
L 155.042876 117.166579 
L 149.248442 118.157699 
L 143.454007 122.686568 
L 137.659573 127.435686 
L 131.865139 129.789596 
L 126.070705 129.672589 
L 120.276271 135.399062 
L 114.481837 142.687925 
L 108.687403 144.917946 
L 102.892968 147.526519 
L 97.098534 159.853577 
L 91.3041 164.465039 
L 85.509666 173.48148 
L 79.715232 182.587397 
L 73.920798 242.536405 
L 68.126364 286.544897 
z
" style="fill:#2ca02c;fill-opacity:0.5;"/>
   </g>
   <g id="PolyCollection_4">
    <path clip-path="url(#pf56b3b6faa)" d="M 68.126364 230.594783 
L 68.126364 257.410092 
L 73.920798 168.828721 
L 79.715232 145.633755 
L 85.509666 129.9479 
L 91.3041 117.269821 
L 97.098534 109.746943 
L 102.892968 105.775579 
L 108.687403 99.381477 
L 114.481837 94.363931 
L 120.276271 90.681644 
L 126.070705 87.687635 
L 131.865139 83.895224 
L 137.659573 79.75179 
L 143.454007 75.945613 
L 149.248442 74.169856 
L 155.042876 71.533752 
L 160.83731 68.40897 
L 166.631744 67.238898 
L 172.426178 65.518203 
L 178.220612 63.962695 
L 184.015046 62.131875 
L 189.809481 60.294173 
L 195.603915 58.786844 
L 201.398349 57.327695 
L 207.192783 56.088795 
L 212.987217 55.021964 
L 218.781651 54.512638 
L 224.576085 53.507753 
L 230.370519 52.378977 
L 236.164954 49.908059 
L 241.959388 49.536389 
L 247.753822 48.799932 
L 253.548256 47.815694 
L 259.34269 48.125419 
L 265.137124 47.010409 
L 270.931558 47.836342 
L 276.725993 45.578791 
L 282.520427 44.615202 
L 288.314861 45.37919 
L 294.109295 45.090114 
L 299.903729 43.534605 
L 305.698163 42.722437 
L 311.492597 42.343885 
L 317.287032 42.385181 
L 323.081466 41.717552 
L 328.8759 41.283937 
L 334.670334 41.008625 
L 340.464768 40.547479 
L 346.259202 40.774611 
L 352.053636 39.872967 
L 352.053636 39.46 
L 352.053636 39.46 
L 346.259202 39.893615 
L 340.464768 39.742194 
L 334.670334 40.740197 
L 328.8759 41.11875 
L 323.081466 41.352764 
L 317.287032 41.256405 
L 311.492597 42.123636 
L 305.698163 42.488423 
L 299.903729 42.7775 
L 294.109295 43.087225 
L 288.314861 43.672261 
L 282.520427 43.96822 
L 276.725993 44.821685 
L 270.931558 45.585674 
L 265.137124 44.849216 
L 259.34269 46.37031 
L 253.548256 46.611208 
L 247.753822 47.189361 
L 241.959388 48.5728 
L 236.164954 49.618982 
L 230.370519 50.052597 
L 224.576085 51.380974 
L 218.781651 51.587457 
L 212.987217 53.728002 
L 207.192783 54.030844 
L 201.398349 55.572587 
L 195.603915 58.318815 
L 189.809481 58.490885 
L 184.015046 60.638312 
L 178.220612 61.292176 
L 172.426178 64.320599 
L 166.631744 64.84369 
L 160.83731 67.362788 
L 155.042876 69.840588 
L 149.248442 71.568166 
L 143.454007 75.498233 
L 137.659573 75.918082 
L 131.865139 80.144109 
L 126.070705 83.062407 
L 120.276271 87.646338 
L 114.481837 91.301094 
L 108.687403 97.000036 
L 102.892968 102.237831 
L 97.098534 107.365501 
L 91.3041 116.554012 
L 85.509666 128.151495 
L 79.715232 145.406623 
L 73.920798 165.015661 
L 68.126364 230.594783 
z
" style="fill:#d62728;fill-opacity:0.5;"/>
   </g>
   <g id="matplotlib.axis_1">
    <g id="xtick_1">
     <g id="line2d_1">
      <path clip-path="url(#pf56b3b6faa)" d="M 68.126364 303.64 
L 68.126364 26.88 
" style="fill:none;stroke:#b0b0b0;stroke-linecap:square;stroke-width:0.8;"/>
     </g>
     <g id="line2d_2">
      <defs>
       <path d="M 0 0 
L 0 3.5 
" id="m486ee28573" style="stroke:#000000;stroke-width:0.8;"/>
      </defs>
      <g>
       <use style="stroke:#000000;stroke-width:0.8;" x="68.126364" xlink:href="#m486ee28573" y="303.64"/>
      </g>
     </g>
     <g id="text_1">
      <!-- 0 -->
      <g transform="translate(64.945114 318.238437)scale(0.1 -0.1)">
       <defs>
        <path d="M 2034 4250 
Q 1547 4250 1301 3770 
Q 1056 3291 1056 2328 
Q 1056 1369 1301 889 
Q 1547 409 2034 409 
Q 2525 409 2770 889 
Q 3016 1369 3016 2328 
Q 3016 3291 2770 3770 
Q 2525 4250 2034 4250 
z
M 2034 4750 
Q 2819 4750 3233 4129 
Q 3647 3509 3647 2328 
Q 3647 1150 3233 529 
Q 2819 -91 2034 -91 
Q 1250 -91 836 529 
Q 422 1150 422 2328 
Q 422 3509 836 4129 
Q 1250 4750 2034 4750 
z
" id="DejaVuSans-30" transform="scale(0.015625)"/>
       </defs>
       <use xlink:href="#DejaVuSans-30"/>
      </g>
     </g>
    </g>
    <g id="xtick_2">
     <g id="line2d_3">
      <path clip-path="url(#pf56b3b6faa)" d="M 126.070705 303.64 
L 126.070705 26.88 
" style="fill:none;stroke:#b0b0b0;stroke-linecap:square;stroke-width:0.8;"/>
     </g>
     <g id="line2d_4">
      <g>
       <use style="stroke:#000000;stroke-width:0.8;" x="126.070705" xlink:href="#m486ee28573" y="303.64"/>
      </g>
     </g>
     <g id="text_2">
      <!-- 10 -->
      <g transform="translate(119.708205 318.238437)scale(0.1 -0.1)">
       <defs>
        <path d="M 794 531 
L 1825 531 
L 1825 4091 
L 703 3866 
L 703 4441 
L 1819 4666 
L 2450 4666 
L 2450 531 
L 3481 531 
L 3481 0 
L 794 0 
L 794 531 
z
" id="DejaVuSans-31" transform="scale(0.015625)"/>
       </defs>
       <use xlink:href="#DejaVuSans-31"/>
       <use x="63.623047" xlink:href="#DejaVuSans-30"/>
      </g>
     </g>
    </g>
    <g id="xtick_3">
     <g id="line2d_5">
      <path clip-path="url(#pf56b3b6faa)" d="M 184.015046 303.64 
L 184.015046 26.88 
" style="fill:none;stroke:#b0b0b0;stroke-linecap:square;stroke-width:0.8;"/>
     </g>
     <g id="line2d_6">
      <g>
       <use style="stroke:#000000;stroke-width:0.8;" x="184.015046" xlink:href="#m486ee28573" y="303.64"/>
      </g>
     </g>
     <g id="text_3">
      <!-- 20 -->
      <g transform="translate(177.652546 318.238437)scale(0.1 -0.1)">
       <defs>
        <path d="M 1228 531 
L 3431 531 
L 3431 0 
L 469 0 
L 469 531 
Q 828 903 1448 1529 
Q 2069 2156 2228 2338 
Q 2531 2678 2651 2914 
Q 2772 3150 2772 3378 
Q 2772 3750 2511 3984 
Q 2250 4219 1831 4219 
Q 1534 4219 1204 4116 
Q 875 4013 500 3803 
L 500 4441 
Q 881 4594 1212 4672 
Q 1544 4750 1819 4750 
Q 2544 4750 2975 4387 
Q 3406 4025 3406 3419 
Q 3406 3131 3298 2873 
Q 3191 2616 2906 2266 
Q 2828 2175 2409 1742 
Q 1991 1309 1228 531 
z
" id="DejaVuSans-32" transform="scale(0.015625)"/>
       </defs>
       <use xlink:href="#DejaVuSans-32"/>
       <use x="63.623047" xlink:href="#DejaVuSans-30"/>
      </g>
     </g>
    </g>
    <g id="xtick_4">
     <g id="line2d_7">
      <path clip-path="url(#pf56b3b6faa)" d="M 241.959388 303.64 
L 241.959388 26.88 
" style="fill:none;stroke:#b0b0b0;stroke-linecap:square;stroke-width:0.8;"/>
     </g>
     <g id="line2d_8">
      <g>
       <use style="stroke:#000000;stroke-width:0.8;" x="241.959388" xlink:href="#m486ee28573" y="303.64"/>
      </g>
     </g>
     <g id="text_4">
      <!-- 30 -->
      <g transform="translate(235.596888 318.238437)scale(0.1 -0.1)">
       <defs>
        <path d="M 2597 2516 
Q 3050 2419 3304 2112 
Q 3559 1806 3559 1356 
Q 3559 666 3084 287 
Q 2609 -91 1734 -91 
Q 1441 -91 1130 -33 
Q 819 25 488 141 
L 488 750 
Q 750 597 1062 519 
Q 1375 441 1716 441 
Q 2309 441 2620 675 
Q 2931 909 2931 1356 
Q 2931 1769 2642 2001 
Q 2353 2234 1838 2234 
L 1294 2234 
L 1294 2753 
L 1863 2753 
Q 2328 2753 2575 2939 
Q 2822 3125 2822 3475 
Q 2822 3834 2567 4026 
Q 2313 4219 1838 4219 
Q 1578 4219 1281 4162 
Q 984 4106 628 3988 
L 628 4550 
Q 988 4650 1302 4700 
Q 1616 4750 1894 4750 
Q 2613 4750 3031 4423 
Q 3450 4097 3450 3541 
Q 3450 3153 3228 2886 
Q 3006 2619 2597 2516 
z
" id="DejaVuSans-33" transform="scale(0.015625)"/>
       </defs>
       <use xlink:href="#DejaVuSans-33"/>
       <use x="63.623047" xlink:href="#DejaVuSans-30"/>
      </g>
     </g>
    </g>
    <g id="xtick_5">
     <g id="line2d_9">
      <path clip-path="url(#pf56b3b6faa)" d="M 299.903729 303.64 
L 299.903729 26.88 
" style="fill:none;stroke:#b0b0b0;stroke-linecap:square;stroke-width:0.8;"/>
     </g>
     <g id="line2d_10">
      <g>
       <use style="stroke:#000000;stroke-width:0.8;" x="299.903729" xlink:href="#m486ee28573" y="303.64"/>
      </g>
     </g>
     <g id="text_5">
      <!-- 40 -->
      <g transform="translate(293.541229 318.238437)scale(0.1 -0.1)">
       <defs>
        <path d="M 2419 4116 
L 825 1625 
L 2419 1625 
L 2419 4116 
z
M 2253 4666 
L 3047 4666 
L 3047 1625 
L 3713 1625 
L 3713 1100 
L 3047 1100 
L 3047 0 
L 2419 0 
L 2419 1100 
L 313 1100 
L 313 1709 
L 2253 4666 
z
" id="DejaVuSans-34" transform="scale(0.015625)"/>
       </defs>
       <use xlink:href="#DejaVuSans-34"/>
       <use x="63.623047" xlink:href="#DejaVuSans-30"/>
      </g>
     </g>
    </g>
    <g id="xtick_6">
     <g id="line2d_11">
      <path clip-path="url(#pf56b3b6faa)" d="M 357.848071 303.64 
L 357.848071 26.88 
" style="fill:none;stroke:#b0b0b0;stroke-linecap:square;stroke-width:0.8;"/>
     </g>
     <g id="line2d_12">
      <g>
       <use style="stroke:#000000;stroke-width:0.8;" x="357.848071" xlink:href="#m486ee28573" y="303.64"/>
      </g>
     </g>
     <g id="text_6">
      <!-- 50 -->
      <g transform="translate(351.485571 318.238437)scale(0.1 -0.1)">
       <defs>
        <path d="M 691 4666 
L 3169 4666 
L 3169 4134 
L 1269 4134 
L 1269 2991 
Q 1406 3038 1543 3061 
Q 1681 3084 1819 3084 
Q 2600 3084 3056 2656 
Q 3513 2228 3513 1497 
Q 3513 744 3044 326 
Q 2575 -91 1722 -91 
Q 1428 -91 1123 -41 
Q 819 9 494 109 
L 494 744 
Q 775 591 1075 516 
Q 1375 441 1709 441 
Q 2250 441 2565 725 
Q 2881 1009 2881 1497 
Q 2881 1984 2565 2268 
Q 2250 2553 1709 2553 
Q 1456 2553 1204 2497 
Q 953 2441 691 2322 
L 691 4666 
z
" id="DejaVuSans-35" transform="scale(0.015625)"/>
       </defs>
       <use xlink:href="#DejaVuSans-35"/>
       <use x="63.623047" xlink:href="#DejaVuSans-30"/>
      </g>
     </g>
    </g>
    <g id="text_7">
     <!-- Global Communication Rounds -->
     <g transform="translate(133.128281 331.916562)scale(0.1 -0.1)">
      <defs>
       <path d="M 3809 666 
L 3809 1919 
L 2778 1919 
L 2778 2438 
L 4434 2438 
L 4434 434 
Q 4069 175 3628 42 
Q 3188 -91 2688 -91 
Q 1594 -91 976 548 
Q 359 1188 359 2328 
Q 359 3472 976 4111 
Q 1594 4750 2688 4750 
Q 3144 4750 3555 4637 
Q 3966 4525 4313 4306 
L 4313 3634 
Q 3963 3931 3569 4081 
Q 3175 4231 2741 4231 
Q 1884 4231 1454 3753 
Q 1025 3275 1025 2328 
Q 1025 1384 1454 906 
Q 1884 428 2741 428 
Q 3075 428 3337 486 
Q 3600 544 3809 666 
z
" id="DejaVuSans-47" transform="scale(0.015625)"/>
       <path d="M 603 4863 
L 1178 4863 
L 1178 0 
L 603 0 
L 603 4863 
z
" id="DejaVuSans-6c" transform="scale(0.015625)"/>
       <path d="M 1959 3097 
Q 1497 3097 1228 2736 
Q 959 2375 959 1747 
Q 959 1119 1226 758 
Q 1494 397 1959 397 
Q 2419 397 2687 759 
Q 2956 1122 2956 1747 
Q 2956 2369 2687 2733 
Q 2419 3097 1959 3097 
z
M 1959 3584 
Q 2709 3584 3137 3096 
Q 3566 2609 3566 1747 
Q 3566 888 3137 398 
Q 2709 -91 1959 -91 
Q 1206 -91 779 398 
Q 353 888 353 1747 
Q 353 2609 779 3096 
Q 1206 3584 1959 3584 
z
" id="DejaVuSans-6f" transform="scale(0.015625)"/>
       <path d="M 3116 1747 
Q 3116 2381 2855 2742 
Q 2594 3103 2138 3103 
Q 1681 3103 1420 2742 
Q 1159 2381 1159 1747 
Q 1159 1113 1420 752 
Q 1681 391 2138 391 
Q 2594 391 2855 752 
Q 3116 1113 3116 1747 
z
M 1159 2969 
Q 1341 3281 1617 3432 
Q 1894 3584 2278 3584 
Q 2916 3584 3314 3078 
Q 3713 2572 3713 1747 
Q 3713 922 3314 415 
Q 2916 -91 2278 -91 
Q 1894 -91 1617 61 
Q 1341 213 1159 525 
L 1159 0 
L 581 0 
L 581 4863 
L 1159 4863 
L 1159 2969 
z
" id="DejaVuSans-62" transform="scale(0.015625)"/>
       <path d="M 2194 1759 
Q 1497 1759 1228 1600 
Q 959 1441 959 1056 
Q 959 750 1161 570 
Q 1363 391 1709 391 
Q 2188 391 2477 730 
Q 2766 1069 2766 1631 
L 2766 1759 
L 2194 1759 
z
M 3341 1997 
L 3341 0 
L 2766 0 
L 2766 531 
Q 2569 213 2275 61 
Q 1981 -91 1556 -91 
Q 1019 -91 701 211 
Q 384 513 384 1019 
Q 384 1609 779 1909 
Q 1175 2209 1959 2209 
L 2766 2209 
L 2766 2266 
Q 2766 2663 2505 2880 
Q 2244 3097 1772 3097 
Q 1472 3097 1187 3025 
Q 903 2953 641 2809 
L 641 3341 
Q 956 3463 1253 3523 
Q 1550 3584 1831 3584 
Q 2591 3584 2966 3190 
Q 3341 2797 3341 1997 
z
" id="DejaVuSans-61" transform="scale(0.015625)"/>
       <path id="DejaVuSans-20" transform="scale(0.015625)"/>
       <path d="M 4122 4306 
L 4122 3641 
Q 3803 3938 3442 4084 
Q 3081 4231 2675 4231 
Q 1875 4231 1450 3742 
Q 1025 3253 1025 2328 
Q 1025 1406 1450 917 
Q 1875 428 2675 428 
Q 3081 428 3442 575 
Q 3803 722 4122 1019 
L 4122 359 
Q 3791 134 3420 21 
Q 3050 -91 2638 -91 
Q 1578 -91 968 557 
Q 359 1206 359 2328 
Q 359 3453 968 4101 
Q 1578 4750 2638 4750 
Q 3056 4750 3426 4639 
Q 3797 4528 4122 4306 
z
" id="DejaVuSans-43" transform="scale(0.015625)"/>
       <path d="M 3328 2828 
Q 3544 3216 3844 3400 
Q 4144 3584 4550 3584 
Q 5097 3584 5394 3201 
Q 5691 2819 5691 2113 
L 5691 0 
L 5113 0 
L 5113 2094 
Q 5113 2597 4934 2840 
Q 4756 3084 4391 3084 
Q 3944 3084 3684 2787 
Q 3425 2491 3425 1978 
L 3425 0 
L 2847 0 
L 2847 2094 
Q 2847 2600 2669 2842 
Q 2491 3084 2119 3084 
Q 1678 3084 1418 2786 
Q 1159 2488 1159 1978 
L 1159 0 
L 581 0 
L 581 3500 
L 1159 3500 
L 1159 2956 
Q 1356 3278 1631 3431 
Q 1906 3584 2284 3584 
Q 2666 3584 2933 3390 
Q 3200 3197 3328 2828 
z
" id="DejaVuSans-6d" transform="scale(0.015625)"/>
       <path d="M 544 1381 
L 544 3500 
L 1119 3500 
L 1119 1403 
Q 1119 906 1312 657 
Q 1506 409 1894 409 
Q 2359 409 2629 706 
Q 2900 1003 2900 1516 
L 2900 3500 
L 3475 3500 
L 3475 0 
L 2900 0 
L 2900 538 
Q 2691 219 2414 64 
Q 2138 -91 1772 -91 
Q 1169 -91 856 284 
Q 544 659 544 1381 
z
M 1991 3584 
L 1991 3584 
z
" id="DejaVuSans-75" transform="scale(0.015625)"/>
       <path d="M 3513 2113 
L 3513 0 
L 2938 0 
L 2938 2094 
Q 2938 2591 2744 2837 
Q 2550 3084 2163 3084 
Q 1697 3084 1428 2787 
Q 1159 2491 1159 1978 
L 1159 0 
L 581 0 
L 581 3500 
L 1159 3500 
L 1159 2956 
Q 1366 3272 1645 3428 
Q 1925 3584 2291 3584 
Q 2894 3584 3203 3211 
Q 3513 2838 3513 2113 
z
" id="DejaVuSans-6e" transform="scale(0.015625)"/>
       <path d="M 603 3500 
L 1178 3500 
L 1178 0 
L 603 0 
L 603 3500 
z
M 603 4863 
L 1178 4863 
L 1178 4134 
L 603 4134 
L 603 4863 
z
" id="DejaVuSans-69" transform="scale(0.015625)"/>
       <path d="M 3122 3366 
L 3122 2828 
Q 2878 2963 2633 3030 
Q 2388 3097 2138 3097 
Q 1578 3097 1268 2742 
Q 959 2388 959 1747 
Q 959 1106 1268 751 
Q 1578 397 2138 397 
Q 2388 397 2633 464 
Q 2878 531 3122 666 
L 3122 134 
Q 2881 22 2623 -34 
Q 2366 -91 2075 -91 
Q 1284 -91 818 406 
Q 353 903 353 1747 
Q 353 2603 823 3093 
Q 1294 3584 2113 3584 
Q 2378 3584 2631 3529 
Q 2884 3475 3122 3366 
z
" id="DejaVuSans-63" transform="scale(0.015625)"/>
       <path d="M 1172 4494 
L 1172 3500 
L 2356 3500 
L 2356 3053 
L 1172 3053 
L 1172 1153 
Q 1172 725 1289 603 
Q 1406 481 1766 481 
L 2356 481 
L 2356 0 
L 1766 0 
Q 1100 0 847 248 
Q 594 497 594 1153 
L 594 3053 
L 172 3053 
L 172 3500 
L 594 3500 
L 594 4494 
L 1172 4494 
z
" id="DejaVuSans-74" transform="scale(0.015625)"/>
       <path d="M 2841 2188 
Q 3044 2119 3236 1894 
Q 3428 1669 3622 1275 
L 4263 0 
L 3584 0 
L 2988 1197 
Q 2756 1666 2539 1819 
Q 2322 1972 1947 1972 
L 1259 1972 
L 1259 0 
L 628 0 
L 628 4666 
L 2053 4666 
Q 2853 4666 3247 4331 
Q 3641 3997 3641 3322 
Q 3641 2881 3436 2590 
Q 3231 2300 2841 2188 
z
M 1259 4147 
L 1259 2491 
L 2053 2491 
Q 2509 2491 2742 2702 
Q 2975 2913 2975 3322 
Q 2975 3731 2742 3939 
Q 2509 4147 2053 4147 
L 1259 4147 
z
" id="DejaVuSans-52" transform="scale(0.015625)"/>
       <path d="M 2906 2969 
L 2906 4863 
L 3481 4863 
L 3481 0 
L 2906 0 
L 2906 525 
Q 2725 213 2448 61 
Q 2172 -91 1784 -91 
Q 1150 -91 751 415 
Q 353 922 353 1747 
Q 353 2572 751 3078 
Q 1150 3584 1784 3584 
Q 2172 3584 2448 3432 
Q 2725 3281 2906 2969 
z
M 947 1747 
Q 947 1113 1208 752 
Q 1469 391 1925 391 
Q 2381 391 2643 752 
Q 2906 1113 2906 1747 
Q 2906 2381 2643 2742 
Q 2381 3103 1925 3103 
Q 1469 3103 1208 2742 
Q 947 2381 947 1747 
z
" id="DejaVuSans-64" transform="scale(0.015625)"/>
       <path d="M 2834 3397 
L 2834 2853 
Q 2591 2978 2328 3040 
Q 2066 3103 1784 3103 
Q 1356 3103 1142 2972 
Q 928 2841 928 2578 
Q 928 2378 1081 2264 
Q 1234 2150 1697 2047 
L 1894 2003 
Q 2506 1872 2764 1633 
Q 3022 1394 3022 966 
Q 3022 478 2636 193 
Q 2250 -91 1575 -91 
Q 1294 -91 989 -36 
Q 684 19 347 128 
L 347 722 
Q 666 556 975 473 
Q 1284 391 1588 391 
Q 1994 391 2212 530 
Q 2431 669 2431 922 
Q 2431 1156 2273 1281 
Q 2116 1406 1581 1522 
L 1381 1569 
Q 847 1681 609 1914 
Q 372 2147 372 2553 
Q 372 3047 722 3315 
Q 1072 3584 1716 3584 
Q 2034 3584 2315 3537 
Q 2597 3491 2834 3397 
z
" id="DejaVuSans-73" transform="scale(0.015625)"/>
      </defs>
      <use xlink:href="#DejaVuSans-47"/>
      <use x="77.490234" xlink:href="#DejaVuSans-6c"/>
      <use x="105.273438" xlink:href="#DejaVuSans-6f"/>
      <use x="166.455078" xlink:href="#DejaVuSans-62"/>
      <use x="229.931641" xlink:href="#DejaVuSans-61"/>
      <use x="291.210938" xlink:href="#DejaVuSans-6c"/>
      <use x="318.994141" xlink:href="#DejaVuSans-20"/>
      <use x="350.78125" xlink:href="#DejaVuSans-43"/>
      <use x="420.605469" xlink:href="#DejaVuSans-6f"/>
      <use x="481.787109" xlink:href="#DejaVuSans-6d"/>
      <use x="579.199219" xlink:href="#DejaVuSans-6d"/>
      <use x="676.611328" xlink:href="#DejaVuSans-75"/>
      <use x="739.990234" xlink:href="#DejaVuSans-6e"/>
      <use x="803.369141" xlink:href="#DejaVuSans-69"/>
      <use x="831.152344" xlink:href="#DejaVuSans-63"/>
      <use x="886.132812" xlink:href="#DejaVuSans-61"/>
      <use x="947.412109" xlink:href="#DejaVuSans-74"/>
      <use x="986.621094" xlink:href="#DejaVuSans-69"/>
      <use x="1014.404297" xlink:href="#DejaVuSans-6f"/>
      <use x="1075.585938" xlink:href="#DejaVuSans-6e"/>
      <use x="1138.964844" xlink:href="#DejaVuSans-20"/>
      <use x="1170.751953" xlink:href="#DejaVuSans-52"/>
      <use x="1235.734375" xlink:href="#DejaVuSans-6f"/>
      <use x="1296.916016" xlink:href="#DejaVuSans-75"/>
      <use x="1360.294922" xlink:href="#DejaVuSans-6e"/>
      <use x="1423.673828" xlink:href="#DejaVuSans-64"/>
      <use x="1487.150391" xlink:href="#DejaVuSans-73"/>
     </g>
    </g>
   </g>
   <g id="matplotlib.axis_2">
    <g id="ytick_1">
     <g id="line2d_13">
      <path clip-path="url(#pf56b3b6faa)" d="M 53.93 281.318114 
L 366.25 281.318114 
" style="fill:none;stroke:#b0b0b0;stroke-linecap:square;stroke-width:0.8;"/>
     </g>
     <g id="line2d_14">
      <defs>
       <path d="M 0 0 
L -3.5 0 
" id="mb4f56029e0" style="stroke:#000000;stroke-width:0.8;"/>
      </defs>
      <g>
       <use style="stroke:#000000;stroke-width:0.8;" x="53.93" xlink:href="#mb4f56029e0" y="281.318114"/>
      </g>
     </g>
     <g id="text_8">
      <!-- 0.20 -->
      <g transform="translate(24.664375 285.117333)scale(0.1 -0.1)">
       <defs>
        <path d="M 684 794 
L 1344 794 
L 1344 0 
L 684 0 
L 684 794 
z
" id="DejaVuSans-2e" transform="scale(0.015625)"/>
       </defs>
       <use xlink:href="#DejaVuSans-30"/>
       <use x="63.623047" xlink:href="#DejaVuSans-2e"/>
       <use x="95.410156" xlink:href="#DejaVuSans-32"/>
       <use x="159.033203" xlink:href="#DejaVuSans-30"/>
      </g>
     </g>
    </g>
    <g id="ytick_2">
     <g id="line2d_15">
      <path clip-path="url(#pf56b3b6faa)" d="M 53.93 245.707646 
L 366.25 245.707646 
" style="fill:none;stroke:#b0b0b0;stroke-linecap:square;stroke-width:0.8;"/>
     </g>
     <g id="line2d_16">
      <g>
       <use style="stroke:#000000;stroke-width:0.8;" x="53.93" xlink:href="#mb4f56029e0" y="245.707646"/>
      </g>
     </g>
     <g id="text_9">
      <!-- 0.25 -->
      <g transform="translate(24.664375 249.506865)scale(0.1 -0.1)">
       <use xlink:href="#DejaVuSans-30"/>
       <use x="63.623047" xlink:href="#DejaVuSans-2e"/>
       <use x="95.410156" xlink:href="#DejaVuSans-32"/>
       <use x="159.033203" xlink:href="#DejaVuSans-35"/>
      </g>
     </g>
    </g>
    <g id="ytick_3">
     <g id="line2d_17">
      <path clip-path="url(#pf56b3b6faa)" d="M 53.93 210.097178 
L 366.25 210.097178 
" style="fill:none;stroke:#b0b0b0;stroke-linecap:square;stroke-width:0.8;"/>
     </g>
     <g id="line2d_18">
      <g>
       <use style="stroke:#000000;stroke-width:0.8;" x="53.93" xlink:href="#mb4f56029e0" y="210.097178"/>
      </g>
     </g>
     <g id="text_10">
      <!-- 0.30 -->
      <g transform="translate(24.664375 213.896397)scale(0.1 -0.1)">
       <use xlink:href="#DejaVuSans-30"/>
       <use x="63.623047" xlink:href="#DejaVuSans-2e"/>
       <use x="95.410156" xlink:href="#DejaVuSans-33"/>
       <use x="159.033203" xlink:href="#DejaVuSans-30"/>
      </g>
     </g>
    </g>
    <g id="ytick_4">
     <g id="line2d_19">
      <path clip-path="url(#pf56b3b6faa)" d="M 53.93 174.48671 
L 366.25 174.48671 
" style="fill:none;stroke:#b0b0b0;stroke-linecap:square;stroke-width:0.8;"/>
     </g>
     <g id="line2d_20">
      <g>
       <use style="stroke:#000000;stroke-width:0.8;" x="53.93" xlink:href="#mb4f56029e0" y="174.48671"/>
      </g>
     </g>
     <g id="text_11">
      <!-- 0.35 -->
      <g transform="translate(24.664375 178.285929)scale(0.1 -0.1)">
       <use xlink:href="#DejaVuSans-30"/>
       <use x="63.623047" xlink:href="#DejaVuSans-2e"/>
       <use x="95.410156" xlink:href="#DejaVuSans-33"/>
       <use x="159.033203" xlink:href="#DejaVuSans-35"/>
      </g>
     </g>
    </g>
    <g id="ytick_5">
     <g id="line2d_21">
      <path clip-path="url(#pf56b3b6faa)" d="M 53.93 138.876242 
L 366.25 138.876242 
" style="fill:none;stroke:#b0b0b0;stroke-linecap:square;stroke-width:0.8;"/>
     </g>
     <g id="line2d_22">
      <g>
       <use style="stroke:#000000;stroke-width:0.8;" x="53.93" xlink:href="#mb4f56029e0" y="138.876242"/>
      </g>
     </g>
     <g id="text_12">
      <!-- 0.40 -->
      <g transform="translate(24.664375 142.675461)scale(0.1 -0.1)">
       <use xlink:href="#DejaVuSans-30"/>
       <use x="63.623047" xlink:href="#DejaVuSans-2e"/>
       <use x="95.410156" xlink:href="#DejaVuSans-34"/>
       <use x="159.033203" xlink:href="#DejaVuSans-30"/>
      </g>
     </g>
    </g>
    <g id="ytick_6">
     <g id="line2d_23">
      <path clip-path="url(#pf56b3b6faa)" d="M 53.93 103.265774 
L 366.25 103.265774 
" style="fill:none;stroke:#b0b0b0;stroke-linecap:square;stroke-width:0.8;"/>
     </g>
     <g id="line2d_24">
      <g>
       <use style="stroke:#000000;stroke-width:0.8;" x="53.93" xlink:href="#mb4f56029e0" y="103.265774"/>
      </g>
     </g>
     <g id="text_13">
      <!-- 0.45 -->
      <g transform="translate(24.664375 107.064993)scale(0.1 -0.1)">
       <use xlink:href="#DejaVuSans-30"/>
       <use x="63.623047" xlink:href="#DejaVuSans-2e"/>
       <use x="95.410156" xlink:href="#DejaVuSans-34"/>
       <use x="159.033203" xlink:href="#DejaVuSans-35"/>
      </g>
     </g>
    </g>
    <g id="ytick_7">
     <g id="line2d_25">
      <path clip-path="url(#pf56b3b6faa)" d="M 53.93 67.655306 
L 366.25 67.655306 
" style="fill:none;stroke:#b0b0b0;stroke-linecap:square;stroke-width:0.8;"/>
     </g>
     <g id="line2d_26">
      <g>
       <use style="stroke:#000000;stroke-width:0.8;" x="53.93" xlink:href="#mb4f56029e0" y="67.655306"/>
      </g>
     </g>
     <g id="text_14">
      <!-- 0.50 -->
      <g transform="translate(24.664375 71.454524)scale(0.1 -0.1)">
       <use xlink:href="#DejaVuSans-30"/>
       <use x="63.623047" xlink:href="#DejaVuSans-2e"/>
       <use x="95.410156" xlink:href="#DejaVuSans-35"/>
       <use x="159.033203" xlink:href="#DejaVuSans-30"/>
      </g>
     </g>
    </g>
    <g id="ytick_8">
     <g id="line2d_27">
      <path clip-path="url(#pf56b3b6faa)" d="M 53.93 32.044838 
L 366.25 32.044838 
" style="fill:none;stroke:#b0b0b0;stroke-linecap:square;stroke-width:0.8;"/>
     </g>
     <g id="line2d_28">
      <g>
       <use style="stroke:#000000;stroke-width:0.8;" x="53.93" xlink:href="#mb4f56029e0" y="32.044838"/>
      </g>
     </g>
     <g id="text_15">
      <!-- 0.55 -->
      <g transform="translate(24.664375 35.844056)scale(0.1 -0.1)">
       <use xlink:href="#DejaVuSans-30"/>
       <use x="63.623047" xlink:href="#DejaVuSans-2e"/>
       <use x="95.410156" xlink:href="#DejaVuSans-35"/>
       <use x="159.033203" xlink:href="#DejaVuSans-35"/>
      </g>
     </g>
    </g>
    <g id="text_16">
     <!-- Test Accuracy -->
     <g transform="translate(18.584688 199.5225)rotate(-90)scale(0.1 -0.1)">
      <defs>
       <path d="M -19 4666 
L 3928 4666 
L 3928 4134 
L 2272 4134 
L 2272 0 
L 1638 0 
L 1638 4134 
L -19 4134 
L -19 4666 
z
" id="DejaVuSans-54" transform="scale(0.015625)"/>
       <path d="M 3597 1894 
L 3597 1613 
L 953 1613 
Q 991 1019 1311 708 
Q 1631 397 2203 397 
Q 2534 397 2845 478 
Q 3156 559 3463 722 
L 3463 178 
Q 3153 47 2828 -22 
Q 2503 -91 2169 -91 
Q 1331 -91 842 396 
Q 353 884 353 1716 
Q 353 2575 817 3079 
Q 1281 3584 2069 3584 
Q 2775 3584 3186 3129 
Q 3597 2675 3597 1894 
z
M 3022 2063 
Q 3016 2534 2758 2815 
Q 2500 3097 2075 3097 
Q 1594 3097 1305 2825 
Q 1016 2553 972 2059 
L 3022 2063 
z
" id="DejaVuSans-65" transform="scale(0.015625)"/>
       <path d="M 2188 4044 
L 1331 1722 
L 3047 1722 
L 2188 4044 
z
M 1831 4666 
L 2547 4666 
L 4325 0 
L 3669 0 
L 3244 1197 
L 1141 1197 
L 716 0 
L 50 0 
L 1831 4666 
z
" id="DejaVuSans-41" transform="scale(0.015625)"/>
       <path d="M 2631 2963 
Q 2534 3019 2420 3045 
Q 2306 3072 2169 3072 
Q 1681 3072 1420 2755 
Q 1159 2438 1159 1844 
L 1159 0 
L 581 0 
L 581 3500 
L 1159 3500 
L 1159 2956 
Q 1341 3275 1631 3429 
Q 1922 3584 2338 3584 
Q 2397 3584 2469 3576 
Q 2541 3569 2628 3553 
L 2631 2963 
z
" id="DejaVuSans-72" transform="scale(0.015625)"/>
       <path d="M 2059 -325 
Q 1816 -950 1584 -1140 
Q 1353 -1331 966 -1331 
L 506 -1331 
L 506 -850 
L 844 -850 
Q 1081 -850 1212 -737 
Q 1344 -625 1503 -206 
L 1606 56 
L 191 3500 
L 800 3500 
L 1894 763 
L 2988 3500 
L 3597 3500 
L 2059 -325 
z
" id="DejaVuSans-79" transform="scale(0.015625)"/>
      </defs>
      <use xlink:href="#DejaVuSans-54"/>
      <use x="44.083984" xlink:href="#DejaVuSans-65"/>
      <use x="105.607422" xlink:href="#DejaVuSans-73"/>
      <use x="157.707031" xlink:href="#DejaVuSans-74"/>
      <use x="196.916016" xlink:href="#DejaVuSans-20"/>
      <use x="228.703125" xlink:href="#DejaVuSans-41"/>
      <use x="295.361328" xlink:href="#DejaVuSans-63"/>
      <use x="350.341797" xlink:href="#DejaVuSans-63"/>
      <use x="405.322266" xlink:href="#DejaVuSans-75"/>
      <use x="468.701172" xlink:href="#DejaVuSans-72"/>
      <use x="509.814453" xlink:href="#DejaVuSans-61"/>
      <use x="571.09375" xlink:href="#DejaVuSans-63"/>
      <use x="626.074219" xlink:href="#DejaVuSans-79"/>
     </g>
    </g>
   </g>
   <g id="line2d_29">
    <path clip-path="url(#pf56b3b6faa)" d="M 68.126364 291.046234 
L 73.920798 261.057965 
L 79.715232 207.072885 
L 85.509666 180.374584 
L 91.3041 164.816061 
L 97.098534 154.577926 
L 102.892968 145.592458 
L 108.687403 141.397404 
L 114.481837 136.878859 
L 120.276271 129.710445 
L 126.070705 128.117081 
L 131.865139 122.941231 
L 137.659573 119.52049 
L 143.454007 115.352967 
L 149.248442 112.899256 
L 155.042876 108.614726 
L 160.83731 107.155577 
L 166.631744 103.948201 
L 172.426178 102.024465 
L 178.220612 100.355391 
L 184.015046 96.910559 
L 189.809481 96.883028 
L 195.603915 94.446524 
L 201.398349 92.147676 
L 207.192783 90.712617 
L 212.987217 89.848828 
L 218.781651 87.549979 
L 224.576085 85.564298 
L 230.370519 85.103151 
L 236.164954 83.754127 
L 241.959388 82.941959 
L 247.753822 82.732034 
L 253.548256 81.128346 
L 259.34269 79.872239 
L 265.137124 78.533539 
L 270.931558 77.363466 
L 276.725993 77.649101 
L 282.520427 77.1501 
L 288.314861 75.742571 
L 294.109295 74.775541 
L 299.903729 73.567613 
L 305.698163 73.299185 
L 311.492597 70.965923 
L 317.287032 70.566721 
L 323.081466 70.642432 
L 328.8759 69.420739 
L 334.670334 68.064831 
L 340.464768 67.713809 
L 346.259202 67.538298 
L 352.053636 66.440495 
" style="fill:none;stroke:#1f77b4;stroke-linecap:square;stroke-width:1.5;"/>
   </g>
   <g id="line2d_30">
    <path clip-path="url(#pf56b3b6faa)" d="M 68.126364 291.06 
L 73.920798 291.06 
L 79.715232 267.63446 
L 85.509666 244.938495 
L 91.3041 230.174934 
L 97.098534 236.899409 
L 102.892968 219.100542 
L 108.687403 212.0629 
L 114.481837 207.492734 
L 120.276271 198.810108 
L 126.070705 199.660131 
L 131.865139 193.331416 
L 137.659573 186.782451 
L 143.454007 178.564413 
L 149.248442 178.11359 
L 155.042876 172.748464 
L 160.83731 168.102588 
L 166.631744 163.35347 
L 172.426178 161.29896 
L 178.220612 159.433727 
L 184.015046 155.906303 
L 189.809481 156.79074 
L 195.603915 151.064268 
L 201.398349 149.846016 
L 207.192783 148.190707 
L 212.987217 146.721234 
L 218.781651 142.705132 
L 224.576085 141.548825 
L 230.370519 142.804932 
L 236.164954 142.588125 
L 241.959388 139.490874 
L 247.753822 138.633968 
L 253.548256 136.111429 
L 259.34269 135.753525 
L 265.137124 133.495973 
L 270.931558 131.971438 
L 276.725993 131.513733 
L 282.520427 131.338222 
L 288.314861 129.555582 
L 294.109295 128.11364 
L 299.903729 128.970546 
L 305.698163 127.015836 
L 311.492597 125.690901 
L 317.287032 125.240079 
L 323.081466 125.670253 
L 328.8759 122.077442 
L 334.670334 122.149711 
L 340.464768 122.067118 
L 346.259202 121.327219 
L 352.053636 119.059343 
" style="fill:none;stroke:#ff7f0e;stroke-linecap:square;stroke-width:1.5;"/>
   </g>
   <g id="line2d_31">
    <path clip-path="url(#pf56b3b6faa)" d="M 68.126364 288.802448 
L 73.920798 266.798203 
L 79.715232 220.36009 
L 85.509666 197.419787 
L 91.3041 178.915434 
L 97.098534 172.896444 
L 102.892968 158.879664 
L 108.687403 150.861226 
L 114.481837 145.792059 
L 120.276271 139.43237 
L 126.070705 133.674925 
L 131.865139 133.592332 
L 137.659573 129.620968 
L 143.454007 124.452001 
L 149.248442 120.04014 
L 155.042876 117.58987 
L 160.83731 115.012269 
L 166.631744 112.162799 
L 172.426178 109.488839 
L 178.220612 106.770141 
L 184.015046 104.175333 
L 189.809481 101.683767 
L 195.603915 99.584519 
L 201.398349 99.474395 
L 207.192783 97.912004 
L 212.987217 95.936646 
L 218.781651 93.500142 
L 224.576085 91.796654 
L 230.370519 90.550871 
L 236.164954 88.744142 
L 241.959388 87.109482 
L 247.753822 86.613921 
L 253.548256 86.145892 
L 259.34269 84.666095 
L 265.137124 83.427195 
L 270.931558 81.41054 
L 276.725993 80.990691 
L 282.520427 79.411093 
L 288.314861 78.254786 
L 294.109295 77.927854 
L 299.903729 77.649101 
L 305.698163 76.764664 
L 311.492597 74.675741 
L 317.287032 73.805069 
L 323.081466 73.31295 
L 328.8759 72.060285 
L 334.670334 70.676846 
L 340.464768 69.716698 
L 346.259202 69.916299 
L 352.053636 68.38488 
" style="fill:none;stroke:#2ca02c;stroke-linecap:square;stroke-width:1.5;"/>
   </g>
   <g id="line2d_32">
    <path clip-path="url(#pf56b3b6faa)" d="M 68.126364 244.002437 
L 73.920798 166.922191 
L 79.715232 145.520189 
L 85.509666 129.049698 
L 91.3041 116.911916 
L 97.098534 108.556222 
L 102.892968 104.006705 
L 108.687403 98.190756 
L 114.481837 92.832513 
L 120.276271 89.163991 
L 126.070705 85.375021 
L 131.865139 82.019666 
L 137.659573 77.834936 
L 143.454007 75.721923 
L 149.248442 72.869011 
L 155.042876 70.68717 
L 160.83731 67.885879 
L 166.631744 66.041294 
L 172.426178 64.919401 
L 178.220612 62.627435 
L 184.015046 61.385094 
L 189.809481 59.392529 
L 195.603915 58.55283 
L 201.398349 56.450141 
L 207.192783 55.059819 
L 212.987217 54.374983 
L 218.781651 53.050048 
L 224.576085 52.444363 
L 230.370519 51.215787 
L 236.164954 49.763521 
L 241.959388 49.054594 
L 247.753822 47.994646 
L 253.548256 47.213451 
L 259.34269 47.247865 
L 265.137124 45.929813 
L 270.931558 46.711008 
L 276.725993 45.200238 
L 282.520427 44.291711 
L 288.314861 44.525726 
L 294.109295 44.088669 
L 299.903729 43.156053 
L 305.698163 42.60543 
L 311.492597 42.23376 
L 317.287032 41.820793 
L 323.081466 41.535158 
L 328.8759 41.201343 
L 334.670334 40.874411 
L 340.464768 40.144837 
L 346.259202 40.334113 
L 352.053636 39.666483 
" style="fill:none;stroke:#d62728;stroke-linecap:square;stroke-width:1.5;"/>
   </g>
   <g id="patch_3">
    <path d="M 53.93 303.64 
L 53.93 26.88 
" style="fill:none;stroke:#000000;stroke-linecap:square;stroke-linejoin:miter;stroke-width:0.8;"/>
   </g>
   <g id="patch_4">
    <path d="M 366.25 303.64 
L 366.25 26.88 
" style="fill:none;stroke:#000000;stroke-linecap:square;stroke-linejoin:miter;stroke-width:0.8;"/>
   </g>
   <g id="patch_5">
    <path d="M 53.93 303.64 
L 366.25 303.64 
" style="fill:none;stroke:#000000;stroke-linecap:square;stroke-linejoin:miter;stroke-width:0.8;"/>
   </g>
   <g id="patch_6">
    <path d="M 53.93 26.88 
L 366.25 26.88 
" style="fill:none;stroke:#000000;stroke-linecap:square;stroke-linejoin:miter;stroke-width:0.8;"/>
   </g>
   <g id="text_17">
    <!-- Shakespeare Local Rounds 01 -->
    <g transform="translate(120.508125 20.88)scale(0.12 -0.12)">
     <defs>
      <path d="M 3425 4513 
L 3425 3897 
Q 3066 4069 2747 4153 
Q 2428 4238 2131 4238 
Q 1616 4238 1336 4038 
Q 1056 3838 1056 3469 
Q 1056 3159 1242 3001 
Q 1428 2844 1947 2747 
L 2328 2669 
Q 3034 2534 3370 2195 
Q 3706 1856 3706 1288 
Q 3706 609 3251 259 
Q 2797 -91 1919 -91 
Q 1588 -91 1214 -16 
Q 841 59 441 206 
L 441 856 
Q 825 641 1194 531 
Q 1563 422 1919 422 
Q 2459 422 2753 634 
Q 3047 847 3047 1241 
Q 3047 1584 2836 1778 
Q 2625 1972 2144 2069 
L 1759 2144 
Q 1053 2284 737 2584 
Q 422 2884 422 3419 
Q 422 4038 858 4394 
Q 1294 4750 2059 4750 
Q 2388 4750 2728 4690 
Q 3069 4631 3425 4513 
z
" id="DejaVuSans-53" transform="scale(0.015625)"/>
      <path d="M 3513 2113 
L 3513 0 
L 2938 0 
L 2938 2094 
Q 2938 2591 2744 2837 
Q 2550 3084 2163 3084 
Q 1697 3084 1428 2787 
Q 1159 2491 1159 1978 
L 1159 0 
L 581 0 
L 581 4863 
L 1159 4863 
L 1159 2956 
Q 1366 3272 1645 3428 
Q 1925 3584 2291 3584 
Q 2894 3584 3203 3211 
Q 3513 2838 3513 2113 
z
" id="DejaVuSans-68" transform="scale(0.015625)"/>
      <path d="M 581 4863 
L 1159 4863 
L 1159 1991 
L 2875 3500 
L 3609 3500 
L 1753 1863 
L 3688 0 
L 2938 0 
L 1159 1709 
L 1159 0 
L 581 0 
L 581 4863 
z
" id="DejaVuSans-6b" transform="scale(0.015625)"/>
      <path d="M 1159 525 
L 1159 -1331 
L 581 -1331 
L 581 3500 
L 1159 3500 
L 1159 2969 
Q 1341 3281 1617 3432 
Q 1894 3584 2278 3584 
Q 2916 3584 3314 3078 
Q 3713 2572 3713 1747 
Q 3713 922 3314 415 
Q 2916 -91 2278 -91 
Q 1894 -91 1617 61 
Q 1341 213 1159 525 
z
M 3116 1747 
Q 3116 2381 2855 2742 
Q 2594 3103 2138 3103 
Q 1681 3103 1420 2742 
Q 1159 2381 1159 1747 
Q 1159 1113 1420 752 
Q 1681 391 2138 391 
Q 2594 391 2855 752 
Q 3116 1113 3116 1747 
z
" id="DejaVuSans-70" transform="scale(0.015625)"/>
      <path d="M 628 4666 
L 1259 4666 
L 1259 531 
L 3531 531 
L 3531 0 
L 628 0 
L 628 4666 
z
" id="DejaVuSans-4c" transform="scale(0.015625)"/>
     </defs>
     <use xlink:href="#DejaVuSans-53"/>
     <use x="63.476562" xlink:href="#DejaVuSans-68"/>
     <use x="126.855469" xlink:href="#DejaVuSans-61"/>
     <use x="188.134766" xlink:href="#DejaVuSans-6b"/>
     <use x="242.419922" xlink:href="#DejaVuSans-65"/>
     <use x="303.943359" xlink:href="#DejaVuSans-73"/>
     <use x="356.042969" xlink:href="#DejaVuSans-70"/>
     <use x="419.519531" xlink:href="#DejaVuSans-65"/>
     <use x="481.042969" xlink:href="#DejaVuSans-61"/>
     <use x="542.322266" xlink:href="#DejaVuSans-72"/>
     <use x="581.185547" xlink:href="#DejaVuSans-65"/>
     <use x="642.708984" xlink:href="#DejaVuSans-20"/>
     <use x="674.496094" xlink:href="#DejaVuSans-4c"/>
     <use x="728.458984" xlink:href="#DejaVuSans-6f"/>
     <use x="789.640625" xlink:href="#DejaVuSans-63"/>
     <use x="844.621094" xlink:href="#DejaVuSans-61"/>
     <use x="905.900391" xlink:href="#DejaVuSans-6c"/>
     <use x="933.683594" xlink:href="#DejaVuSans-20"/>
     <use x="965.470703" xlink:href="#DejaVuSans-52"/>
     <use x="1030.453125" xlink:href="#DejaVuSans-6f"/>
     <use x="1091.634766" xlink:href="#DejaVuSans-75"/>
     <use x="1155.013672" xlink:href="#DejaVuSans-6e"/>
     <use x="1218.392578" xlink:href="#DejaVuSans-64"/>
     <use x="1281.869141" xlink:href="#DejaVuSans-73"/>
     <use x="1333.96875" xlink:href="#DejaVuSans-20"/>
     <use x="1365.755859" xlink:href="#DejaVuSans-30"/>
     <use x="1429.378906" xlink:href="#DejaVuSans-31"/>
    </g>
   </g>
   <g id="legend_1">
    <g id="patch_7">
     <path d="M 373.25 196.11625 
L 447.821875 196.11625 
Q 449.821875 196.11625 449.821875 194.11625 
L 449.821875 136.40375 
Q 449.821875 134.40375 447.821875 134.40375 
L 373.25 134.40375 
Q 371.25 134.40375 371.25 136.40375 
L 371.25 194.11625 
Q 371.25 196.11625 373.25 196.11625 
z
" style="fill:#ffffff;opacity:0.8;stroke:#cccccc;stroke-linejoin:miter;"/>
    </g>
    <g id="line2d_33">
     <path d="M 375.25 142.502187 
L 395.25 142.502187 
" style="fill:none;stroke:#1f77b4;stroke-linecap:square;stroke-width:1.5;"/>
    </g>
    <g id="line2d_34"/>
    <g id="text_18">
     <!-- FedAvg -->
     <g transform="translate(403.25 146.002187)scale(0.1 -0.1)">
      <defs>
       <path d="M 628 4666 
L 3309 4666 
L 3309 4134 
L 1259 4134 
L 1259 2759 
L 3109 2759 
L 3109 2228 
L 1259 2228 
L 1259 0 
L 628 0 
L 628 4666 
z
" id="DejaVuSans-46" transform="scale(0.015625)"/>
       <path d="M 191 3500 
L 800 3500 
L 1894 563 
L 2988 3500 
L 3597 3500 
L 2284 0 
L 1503 0 
L 191 3500 
z
" id="DejaVuSans-76" transform="scale(0.015625)"/>
       <path d="M 2906 1791 
Q 2906 2416 2648 2759 
Q 2391 3103 1925 3103 
Q 1463 3103 1205 2759 
Q 947 2416 947 1791 
Q 947 1169 1205 825 
Q 1463 481 1925 481 
Q 2391 481 2648 825 
Q 2906 1169 2906 1791 
z
M 3481 434 
Q 3481 -459 3084 -895 
Q 2688 -1331 1869 -1331 
Q 1566 -1331 1297 -1286 
Q 1028 -1241 775 -1147 
L 775 -588 
Q 1028 -725 1275 -790 
Q 1522 -856 1778 -856 
Q 2344 -856 2625 -561 
Q 2906 -266 2906 331 
L 2906 616 
Q 2728 306 2450 153 
Q 2172 0 1784 0 
Q 1141 0 747 490 
Q 353 981 353 1791 
Q 353 2603 747 3093 
Q 1141 3584 1784 3584 
Q 2172 3584 2450 3431 
Q 2728 3278 2906 2969 
L 2906 3500 
L 3481 3500 
L 3481 434 
z
" id="DejaVuSans-67" transform="scale(0.015625)"/>
      </defs>
      <use xlink:href="#DejaVuSans-46"/>
      <use x="52.019531" xlink:href="#DejaVuSans-65"/>
      <use x="113.542969" xlink:href="#DejaVuSans-64"/>
      <use x="177.019531" xlink:href="#DejaVuSans-41"/>
      <use x="239.552734" xlink:href="#DejaVuSans-76"/>
      <use x="298.732422" xlink:href="#DejaVuSans-67"/>
     </g>
    </g>
    <g id="line2d_35">
     <path d="M 375.25 157.180312 
L 395.25 157.180312 
" style="fill:none;stroke:#ff7f0e;stroke-linecap:square;stroke-width:1.5;"/>
    </g>
    <g id="line2d_36"/>
    <g id="text_19">
     <!-- FedMed -->
     <g transform="translate(403.25 160.680312)scale(0.1 -0.1)">
      <defs>
       <path d="M 628 4666 
L 1569 4666 
L 2759 1491 
L 3956 4666 
L 4897 4666 
L 4897 0 
L 4281 0 
L 4281 4097 
L 3078 897 
L 2444 897 
L 1241 4097 
L 1241 0 
L 628 0 
L 628 4666 
z
" id="DejaVuSans-4d" transform="scale(0.015625)"/>
      </defs>
      <use xlink:href="#DejaVuSans-46"/>
      <use x="52.019531" xlink:href="#DejaVuSans-65"/>
      <use x="113.542969" xlink:href="#DejaVuSans-64"/>
      <use x="177.019531" xlink:href="#DejaVuSans-4d"/>
      <use x="263.298828" xlink:href="#DejaVuSans-65"/>
      <use x="324.822266" xlink:href="#DejaVuSans-64"/>
     </g>
    </g>
    <g id="line2d_37">
     <path d="M 375.25 171.858437 
L 395.25 171.858437 
" style="fill:none;stroke:#2ca02c;stroke-linecap:square;stroke-width:1.5;"/>
    </g>
    <g id="line2d_38"/>
    <g id="text_20">
     <!-- FedProx -->
     <g transform="translate(403.25 175.358437)scale(0.1 -0.1)">
      <defs>
       <path d="M 1259 4147 
L 1259 2394 
L 2053 2394 
Q 2494 2394 2734 2622 
Q 2975 2850 2975 3272 
Q 2975 3691 2734 3919 
Q 2494 4147 2053 4147 
L 1259 4147 
z
M 628 4666 
L 2053 4666 
Q 2838 4666 3239 4311 
Q 3641 3956 3641 3272 
Q 3641 2581 3239 2228 
Q 2838 1875 2053 1875 
L 1259 1875 
L 1259 0 
L 628 0 
L 628 4666 
z
" id="DejaVuSans-50" transform="scale(0.015625)"/>
       <path d="M 3513 3500 
L 2247 1797 
L 3578 0 
L 2900 0 
L 1881 1375 
L 863 0 
L 184 0 
L 1544 1831 
L 300 3500 
L 978 3500 
L 1906 2253 
L 2834 3500 
L 3513 3500 
z
" id="DejaVuSans-78" transform="scale(0.015625)"/>
      </defs>
      <use xlink:href="#DejaVuSans-46"/>
      <use x="52.019531" xlink:href="#DejaVuSans-65"/>
      <use x="113.542969" xlink:href="#DejaVuSans-64"/>
      <use x="177.019531" xlink:href="#DejaVuSans-50"/>
      <use x="235.572266" xlink:href="#DejaVuSans-72"/>
      <use x="274.435547" xlink:href="#DejaVuSans-6f"/>
      <use x="332.492188" xlink:href="#DejaVuSans-78"/>
     </g>
    </g>
    <g id="line2d_39">
     <path d="M 375.25 186.536563 
L 395.25 186.536563 
" style="fill:none;stroke:#d62728;stroke-linecap:square;stroke-width:1.5;"/>
    </g>
    <g id="line2d_40"/>
    <g id="text_21">
     <!-- qFedAvg -->
     <g transform="translate(403.25 190.036563)scale(0.1 -0.1)">
      <defs>
       <path d="M 947 1747 
Q 947 1113 1208 752 
Q 1469 391 1925 391 
Q 2381 391 2643 752 
Q 2906 1113 2906 1747 
Q 2906 2381 2643 2742 
Q 2381 3103 1925 3103 
Q 1469 3103 1208 2742 
Q 947 2381 947 1747 
z
M 2906 525 
Q 2725 213 2448 61 
Q 2172 -91 1784 -91 
Q 1150 -91 751 415 
Q 353 922 353 1747 
Q 353 2572 751 3078 
Q 1150 3584 1784 3584 
Q 2172 3584 2448 3432 
Q 2725 3281 2906 2969 
L 2906 3500 
L 3481 3500 
L 3481 -1331 
L 2906 -1331 
L 2906 525 
z
" id="DejaVuSans-71" transform="scale(0.015625)"/>
      </defs>
      <use xlink:href="#DejaVuSans-71"/>
      <use x="63.476562" xlink:href="#DejaVuSans-46"/>
      <use x="115.496094" xlink:href="#DejaVuSans-65"/>
      <use x="177.019531" xlink:href="#DejaVuSans-64"/>
      <use x="240.496094" xlink:href="#DejaVuSans-41"/>
      <use x="303.029297" xlink:href="#DejaVuSans-76"/>
      <use x="362.208984" xlink:href="#DejaVuSans-67"/>
     </g>
    </g>
   </g>
  </g>
 </g>
 <defs>
  <clipPath id="pf56b3b6faa">
   <rect height="276.76" width="312.32" x="53.93" y="26.88"/>
  </clipPath>
 </defs>
</svg>
