<?xml version="1.0" encoding="utf-8" standalone="no"?>
<!DOCTYPE svg PUBLIC "-//W3C//DTD SVG 1.1//EN"
  "http://www.w3.org/Graphics/SVG/1.1/DTD/svg11.dtd">
<!-- Created with matplotlib (https://matplotlib.org/) -->
<svg height="432pt" version="1.1" viewBox="0 0 576 432" width="576pt" xmlns="http://www.w3.org/2000/svg" xmlns:xlink="http://www.w3.org/1999/xlink">
 <defs>
  <style type="text/css">
*{stroke-linecap:butt;stroke-linejoin:round;}
  </style>
 </defs>
 <g id="figure_1">
  <g id="patch_1">
   <path d="M 0 432 
L 576 432 
L 576 0 
L 0 0 
z
" style="fill:#ffffff;"/>
  </g>
  <g id="axes_1">
   <g id="patch_2">
    <path d="M 61.2 307.156895 
L 559.8 307.156895 
L 559.8 57.624 
L 61.2 57.624 
z
" style="fill:#ffffff;"/>
   </g>
   <g id="matplotlib.axis_1">
    <g id="xtick_1">
     <g id="line2d_1">
      <path clip-path="url(#p53e29c93ea)" d="M 102.75 307.156895 
L 102.75 57.624 
" style="fill:none;stroke:#b0b0b0;stroke-linecap:square;stroke-width:0.8;"/>
     </g>
     <g id="line2d_2">
      <defs>
       <path d="M 0 0 
L 0 3.5 
" id="m855db3898a" style="stroke:#000000;stroke-width:0.8;"/>
      </defs>
      <g>
       <use style="stroke:#000000;stroke-width:0.8;" x="102.75" xlink:href="#m855db3898a" y="307.156895"/>
      </g>
     </g>
     <g id="text_1">
      <!-- FedAvg CNN -->
      <defs>
       <path d="M 9.8125 72.90625 
L 51.703125 72.90625 
L 51.703125 64.59375 
L 19.671875 64.59375 
L 19.671875 43.109375 
L 48.578125 43.109375 
L 48.578125 34.8125 
L 19.671875 34.8125 
L 19.671875 0 
L 9.8125 0 
z
" id="DejaVuSans-70"/>
       <path d="M 56.203125 29.59375 
L 56.203125 25.203125 
L 14.890625 25.203125 
Q 15.484375 15.921875 20.484375 11.0625 
Q 25.484375 6.203125 34.421875 6.203125 
Q 39.59375 6.203125 44.453125 7.46875 
Q 49.3125 8.734375 54.109375 11.28125 
L 54.109375 2.78125 
Q 49.265625 0.734375 44.1875 -0.34375 
Q 39.109375 -1.421875 33.890625 -1.421875 
Q 20.796875 -1.421875 13.15625 6.1875 
Q 5.515625 13.8125 5.515625 26.8125 
Q 5.515625 40.234375 12.765625 48.109375 
Q 20.015625 56 32.328125 56 
Q 43.359375 56 49.78125 48.890625 
Q 56.203125 41.796875 56.203125 29.59375 
z
M 47.21875 32.234375 
Q 47.125 39.59375 43.09375 43.984375 
Q 39.0625 48.390625 32.421875 48.390625 
Q 24.90625 48.390625 20.390625 44.140625 
Q 15.875 39.890625 15.1875 32.171875 
z
" id="DejaVuSans-101"/>
       <path d="M 45.40625 46.390625 
L 45.40625 75.984375 
L 54.390625 75.984375 
L 54.390625 0 
L 45.40625 0 
L 45.40625 8.203125 
Q 42.578125 3.328125 38.25 0.953125 
Q 33.9375 -1.421875 27.875 -1.421875 
Q 17.96875 -1.421875 11.734375 6.484375 
Q 5.515625 14.40625 5.515625 27.296875 
Q 5.515625 40.1875 11.734375 48.09375 
Q 17.96875 56 27.875 56 
Q 33.9375 56 38.25 53.625 
Q 42.578125 51.265625 45.40625 46.390625 
z
M 14.796875 27.296875 
Q 14.796875 17.390625 18.875 11.75 
Q 22.953125 6.109375 30.078125 6.109375 
Q 37.203125 6.109375 41.296875 11.75 
Q 45.40625 17.390625 45.40625 27.296875 
Q 45.40625 37.203125 41.296875 42.84375 
Q 37.203125 48.484375 30.078125 48.484375 
Q 22.953125 48.484375 18.875 42.84375 
Q 14.796875 37.203125 14.796875 27.296875 
z
" id="DejaVuSans-100"/>
       <path d="M 34.1875 63.1875 
L 20.796875 26.90625 
L 47.609375 26.90625 
z
M 28.609375 72.90625 
L 39.796875 72.90625 
L 67.578125 0 
L 57.328125 0 
L 50.6875 18.703125 
L 17.828125 18.703125 
L 11.1875 0 
L 0.78125 0 
z
" id="DejaVuSans-65"/>
       <path d="M 2.984375 54.6875 
L 12.5 54.6875 
L 29.59375 8.796875 
L 46.6875 54.6875 
L 56.203125 54.6875 
L 35.6875 0 
L 23.484375 0 
z
" id="DejaVuSans-118"/>
       <path d="M 45.40625 27.984375 
Q 45.40625 37.75 41.375 43.109375 
Q 37.359375 48.484375 30.078125 48.484375 
Q 22.859375 48.484375 18.828125 43.109375 
Q 14.796875 37.75 14.796875 27.984375 
Q 14.796875 18.265625 18.828125 12.890625 
Q 22.859375 7.515625 30.078125 7.515625 
Q 37.359375 7.515625 41.375 12.890625 
Q 45.40625 18.265625 45.40625 27.984375 
z
M 54.390625 6.78125 
Q 54.390625 -7.171875 48.1875 -13.984375 
Q 42 -20.796875 29.203125 -20.796875 
Q 24.46875 -20.796875 20.265625 -20.09375 
Q 16.0625 -19.390625 12.109375 -17.921875 
L 12.109375 -9.1875 
Q 16.0625 -11.328125 19.921875 -12.34375 
Q 23.78125 -13.375 27.78125 -13.375 
Q 36.625 -13.375 41.015625 -8.765625 
Q 45.40625 -4.15625 45.40625 5.171875 
L 45.40625 9.625 
Q 42.625 4.78125 38.28125 2.390625 
Q 33.9375 0 27.875 0 
Q 17.828125 0 11.671875 7.65625 
Q 5.515625 15.328125 5.515625 27.984375 
Q 5.515625 40.671875 11.671875 48.328125 
Q 17.828125 56 27.875 56 
Q 33.9375 56 38.28125 53.609375 
Q 42.625 51.21875 45.40625 46.390625 
L 45.40625 54.6875 
L 54.390625 54.6875 
z
" id="DejaVuSans-103"/>
       <path id="DejaVuSans-32"/>
       <path d="M 64.40625 67.28125 
L 64.40625 56.890625 
Q 59.421875 61.53125 53.78125 63.8125 
Q 48.140625 66.109375 41.796875 66.109375 
Q 29.296875 66.109375 22.65625 58.46875 
Q 16.015625 50.828125 16.015625 36.375 
Q 16.015625 21.96875 22.65625 14.328125 
Q 29.296875 6.6875 41.796875 6.6875 
Q 48.140625 6.6875 53.78125 8.984375 
Q 59.421875 11.28125 64.40625 15.921875 
L 64.40625 5.609375 
Q 59.234375 2.09375 53.4375 0.328125 
Q 47.65625 -1.421875 41.21875 -1.421875 
Q 24.65625 -1.421875 15.125 8.703125 
Q 5.609375 18.84375 5.609375 36.375 
Q 5.609375 53.953125 15.125 64.078125 
Q 24.65625 74.21875 41.21875 74.21875 
Q 47.75 74.21875 53.53125 72.484375 
Q 59.328125 70.75 64.40625 67.28125 
z
" id="DejaVuSans-67"/>
       <path d="M 9.8125 72.90625 
L 23.09375 72.90625 
L 55.421875 11.921875 
L 55.421875 72.90625 
L 64.984375 72.90625 
L 64.984375 0 
L 51.703125 0 
L 19.390625 60.984375 
L 19.390625 0 
L 9.8125 0 
z
" id="DejaVuSans-78"/>
      </defs>
      <g transform="translate(35.475971 387.284442)rotate(-45)scale(0.15 -0.15)">
       <use xlink:href="#DejaVuSans-70"/>
       <use x="52.019531" xlink:href="#DejaVuSans-101"/>
       <use x="113.542969" xlink:href="#DejaVuSans-100"/>
       <use x="177.019531" xlink:href="#DejaVuSans-65"/>
       <use x="239.552734" xlink:href="#DejaVuSans-118"/>
       <use x="298.732422" xlink:href="#DejaVuSans-103"/>
       <use x="362.208984" xlink:href="#DejaVuSans-32"/>
       <use x="393.996094" xlink:href="#DejaVuSans-67"/>
       <use x="463.820312" xlink:href="#DejaVuSans-78"/>
       <use x="538.625" xlink:href="#DejaVuSans-78"/>
      </g>
     </g>
    </g>
    <g id="xtick_2">
     <g id="line2d_3">
      <path clip-path="url(#p53e29c93ea)" d="M 241.25 307.156895 
L 241.25 57.624 
" style="fill:none;stroke:#b0b0b0;stroke-linecap:square;stroke-width:0.8;"/>
     </g>
     <g id="line2d_4">
      <g>
       <use style="stroke:#000000;stroke-width:0.8;" x="241.25" xlink:href="#m855db3898a" y="307.156895"/>
      </g>
     </g>
     <g id="text_2">
      <!-- FedMed CNN -->
      <defs>
       <path d="M 9.8125 72.90625 
L 24.515625 72.90625 
L 43.109375 23.296875 
L 61.8125 72.90625 
L 76.515625 72.90625 
L 76.515625 0 
L 66.890625 0 
L 66.890625 64.015625 
L 48.09375 14.015625 
L 38.1875 14.015625 
L 19.390625 64.015625 
L 19.390625 0 
L 9.8125 0 
z
" id="DejaVuSans-77"/>
      </defs>
      <g transform="translate(171.208311 390.052102)rotate(-45)scale(0.15 -0.15)">
       <use xlink:href="#DejaVuSans-70"/>
       <use x="52.019531" xlink:href="#DejaVuSans-101"/>
       <use x="113.542969" xlink:href="#DejaVuSans-100"/>
       <use x="177.019531" xlink:href="#DejaVuSans-77"/>
       <use x="263.298828" xlink:href="#DejaVuSans-101"/>
       <use x="324.822266" xlink:href="#DejaVuSans-100"/>
       <use x="388.298828" xlink:href="#DejaVuSans-32"/>
       <use x="420.085938" xlink:href="#DejaVuSans-67"/>
       <use x="489.910156" xlink:href="#DejaVuSans-78"/>
       <use x="564.714844" xlink:href="#DejaVuSans-78"/>
      </g>
     </g>
    </g>
    <g id="xtick_3">
     <g id="line2d_5">
      <path clip-path="url(#p53e29c93ea)" d="M 379.75 307.156895 
L 379.75 57.624 
" style="fill:none;stroke:#b0b0b0;stroke-linecap:square;stroke-width:0.8;"/>
     </g>
     <g id="line2d_6">
      <g>
       <use style="stroke:#000000;stroke-width:0.8;" x="379.75" xlink:href="#m855db3898a" y="307.156895"/>
      </g>
     </g>
     <g id="text_3">
      <!-- FedProx CNN -->
      <defs>
       <path d="M 19.671875 64.796875 
L 19.671875 37.40625 
L 32.078125 37.40625 
Q 38.96875 37.40625 42.71875 40.96875 
Q 46.484375 44.53125 46.484375 51.125 
Q 46.484375 57.671875 42.71875 61.234375 
Q 38.96875 64.796875 32.078125 64.796875 
z
M 9.8125 72.90625 
L 32.078125 72.90625 
Q 44.34375 72.90625 50.609375 67.359375 
Q 56.890625 61.8125 56.890625 51.125 
Q 56.890625 40.328125 50.609375 34.8125 
Q 44.34375 29.296875 32.078125 29.296875 
L 19.671875 29.296875 
L 19.671875 0 
L 9.8125 0 
z
" id="DejaVuSans-80"/>
       <path d="M 41.109375 46.296875 
Q 39.59375 47.171875 37.8125 47.578125 
Q 36.03125 48 33.890625 48 
Q 26.265625 48 22.1875 43.046875 
Q 18.109375 38.09375 18.109375 28.8125 
L 18.109375 0 
L 9.078125 0 
L 9.078125 54.6875 
L 18.109375 54.6875 
L 18.109375 46.1875 
Q 20.953125 51.171875 25.484375 53.578125 
Q 30.03125 56 36.53125 56 
Q 37.453125 56 38.578125 55.875 
Q 39.703125 55.765625 41.0625 55.515625 
z
" id="DejaVuSans-114"/>
       <path d="M 30.609375 48.390625 
Q 23.390625 48.390625 19.1875 42.75 
Q 14.984375 37.109375 14.984375 27.296875 
Q 14.984375 17.484375 19.15625 11.84375 
Q 23.34375 6.203125 30.609375 6.203125 
Q 37.796875 6.203125 41.984375 11.859375 
Q 46.1875 17.53125 46.1875 27.296875 
Q 46.1875 37.015625 41.984375 42.703125 
Q 37.796875 48.390625 30.609375 48.390625 
z
M 30.609375 56 
Q 42.328125 56 49.015625 48.375 
Q 55.71875 40.765625 55.71875 27.296875 
Q 55.71875 13.875 49.015625 6.21875 
Q 42.328125 -1.421875 30.609375 -1.421875 
Q 18.84375 -1.421875 12.171875 6.21875 
Q 5.515625 13.875 5.515625 27.296875 
Q 5.515625 40.765625 12.171875 48.375 
Q 18.84375 56 30.609375 56 
z
" id="DejaVuSans-111"/>
       <path d="M 54.890625 54.6875 
L 35.109375 28.078125 
L 55.90625 0 
L 45.3125 0 
L 29.390625 21.484375 
L 13.484375 0 
L 2.875 0 
L 24.125 28.609375 
L 4.6875 54.6875 
L 15.28125 54.6875 
L 29.78125 35.203125 
L 44.28125 54.6875 
z
" id="DejaVuSans-120"/>
      </defs>
      <g transform="translate(309.351996 390.408418)rotate(-45)scale(0.15 -0.15)">
       <use xlink:href="#DejaVuSans-70"/>
       <use x="52.019531" xlink:href="#DejaVuSans-101"/>
       <use x="113.542969" xlink:href="#DejaVuSans-100"/>
       <use x="177.019531" xlink:href="#DejaVuSans-80"/>
       <use x="235.572266" xlink:href="#DejaVuSans-114"/>
       <use x="274.435547" xlink:href="#DejaVuSans-111"/>
       <use x="332.492188" xlink:href="#DejaVuSans-120"/>
       <use x="391.671875" xlink:href="#DejaVuSans-32"/>
       <use x="423.458984" xlink:href="#DejaVuSans-67"/>
       <use x="493.283203" xlink:href="#DejaVuSans-78"/>
       <use x="568.087891" xlink:href="#DejaVuSans-78"/>
      </g>
     </g>
    </g>
    <g id="xtick_4">
     <g id="line2d_7">
      <path clip-path="url(#p53e29c93ea)" d="M 518.25 307.156895 
L 518.25 57.624 
" style="fill:none;stroke:#b0b0b0;stroke-linecap:square;stroke-width:0.8;"/>
     </g>
     <g id="line2d_8">
      <g>
       <use style="stroke:#000000;stroke-width:0.8;" x="518.25" xlink:href="#m855db3898a" y="307.156895"/>
      </g>
     </g>
     <g id="text_4">
      <!-- qFedAvg CNN -->
      <defs>
       <path d="M 14.796875 27.296875 
Q 14.796875 17.390625 18.875 11.75 
Q 22.953125 6.109375 30.078125 6.109375 
Q 37.203125 6.109375 41.296875 11.75 
Q 45.40625 17.390625 45.40625 27.296875 
Q 45.40625 37.203125 41.296875 42.84375 
Q 37.203125 48.484375 30.078125 48.484375 
Q 22.953125 48.484375 18.875 42.84375 
Q 14.796875 37.203125 14.796875 27.296875 
z
M 45.40625 8.203125 
Q 42.578125 3.328125 38.25 0.953125 
Q 33.9375 -1.421875 27.875 -1.421875 
Q 17.96875 -1.421875 11.734375 6.484375 
Q 5.515625 14.40625 5.515625 27.296875 
Q 5.515625 40.1875 11.734375 48.09375 
Q 17.96875 56 27.875 56 
Q 33.9375 56 38.25 53.625 
Q 42.578125 51.265625 45.40625 46.390625 
L 45.40625 54.6875 
L 54.390625 54.6875 
L 54.390625 -20.796875 
L 45.40625 -20.796875 
z
" id="DejaVuSans-113"/>
      </defs>
      <g transform="translate(444.242437 394.017977)rotate(-45)scale(0.15 -0.15)">
       <use xlink:href="#DejaVuSans-113"/>
       <use x="63.476562" xlink:href="#DejaVuSans-70"/>
       <use x="115.496094" xlink:href="#DejaVuSans-101"/>
       <use x="177.019531" xlink:href="#DejaVuSans-100"/>
       <use x="240.496094" xlink:href="#DejaVuSans-65"/>
       <use x="303.029297" xlink:href="#DejaVuSans-118"/>
       <use x="362.208984" xlink:href="#DejaVuSans-103"/>
       <use x="425.685547" xlink:href="#DejaVuSans-32"/>
       <use x="457.472656" xlink:href="#DejaVuSans-67"/>
       <use x="527.296875" xlink:href="#DejaVuSans-78"/>
       <use x="602.101562" xlink:href="#DejaVuSans-78"/>
      </g>
     </g>
    </g>
    <g id="text_5">
     <!-- Algorithms -->
     <defs>
      <path d="M 9.421875 75.984375 
L 18.40625 75.984375 
L 18.40625 0 
L 9.421875 0 
z
" id="DejaVuSans-108"/>
      <path d="M 9.421875 54.6875 
L 18.40625 54.6875 
L 18.40625 0 
L 9.421875 0 
z
M 9.421875 75.984375 
L 18.40625 75.984375 
L 18.40625 64.59375 
L 9.421875 64.59375 
z
" id="DejaVuSans-105"/>
      <path d="M 18.3125 70.21875 
L 18.3125 54.6875 
L 36.8125 54.6875 
L 36.8125 47.703125 
L 18.3125 47.703125 
L 18.3125 18.015625 
Q 18.3125 11.328125 20.140625 9.421875 
Q 21.96875 7.515625 27.59375 7.515625 
L 36.8125 7.515625 
L 36.8125 0 
L 27.59375 0 
Q 17.1875 0 13.234375 3.875 
Q 9.28125 7.765625 9.28125 18.015625 
L 9.28125 47.703125 
L 2.6875 47.703125 
L 2.6875 54.6875 
L 9.28125 54.6875 
L 9.28125 70.21875 
z
" id="DejaVuSans-116"/>
      <path d="M 54.890625 33.015625 
L 54.890625 0 
L 45.90625 0 
L 45.90625 32.71875 
Q 45.90625 40.484375 42.875 44.328125 
Q 39.84375 48.1875 33.796875 48.1875 
Q 26.515625 48.1875 22.3125 43.546875 
Q 18.109375 38.921875 18.109375 30.90625 
L 18.109375 0 
L 9.078125 0 
L 9.078125 75.984375 
L 18.109375 75.984375 
L 18.109375 46.1875 
Q 21.34375 51.125 25.703125 53.5625 
Q 30.078125 56 35.796875 56 
Q 45.21875 56 50.046875 50.171875 
Q 54.890625 44.34375 54.890625 33.015625 
z
" id="DejaVuSans-104"/>
      <path d="M 52 44.1875 
Q 55.375 50.25 60.0625 53.125 
Q 64.75 56 71.09375 56 
Q 79.640625 56 84.28125 50.015625 
Q 88.921875 44.046875 88.921875 33.015625 
L 88.921875 0 
L 79.890625 0 
L 79.890625 32.71875 
Q 79.890625 40.578125 77.09375 44.375 
Q 74.3125 48.1875 68.609375 48.1875 
Q 61.625 48.1875 57.5625 43.546875 
Q 53.515625 38.921875 53.515625 30.90625 
L 53.515625 0 
L 44.484375 0 
L 44.484375 32.71875 
Q 44.484375 40.625 41.703125 44.40625 
Q 38.921875 48.1875 33.109375 48.1875 
Q 26.21875 48.1875 22.15625 43.53125 
Q 18.109375 38.875 18.109375 30.90625 
L 18.109375 0 
L 9.078125 0 
L 9.078125 54.6875 
L 18.109375 54.6875 
L 18.109375 46.1875 
Q 21.1875 51.21875 25.484375 53.609375 
Q 29.78125 56 35.6875 56 
Q 41.65625 56 45.828125 52.96875 
Q 50 49.953125 52 44.1875 
z
" id="DejaVuSans-109"/>
      <path d="M 44.28125 53.078125 
L 44.28125 44.578125 
Q 40.484375 46.53125 36.375 47.5 
Q 32.28125 48.484375 27.875 48.484375 
Q 21.1875 48.484375 17.84375 46.4375 
Q 14.5 44.390625 14.5 40.28125 
Q 14.5 37.15625 16.890625 35.375 
Q 19.28125 33.59375 26.515625 31.984375 
L 29.59375 31.296875 
Q 39.15625 29.25 43.1875 25.515625 
Q 47.21875 21.78125 47.21875 15.09375 
Q 47.21875 7.46875 41.1875 3.015625 
Q 35.15625 -1.421875 24.609375 -1.421875 
Q 20.21875 -1.421875 15.453125 -0.5625 
Q 10.6875 0.296875 5.421875 2 
L 5.421875 11.28125 
Q 10.40625 8.6875 15.234375 7.390625 
Q 20.0625 6.109375 24.8125 6.109375 
Q 31.15625 6.109375 34.5625 8.28125 
Q 37.984375 10.453125 37.984375 14.40625 
Q 37.984375 18.0625 35.515625 20.015625 
Q 33.0625 21.96875 24.703125 23.78125 
L 21.578125 24.515625 
Q 13.234375 26.265625 9.515625 29.90625 
Q 5.8125 33.546875 5.8125 39.890625 
Q 5.8125 47.609375 11.28125 51.796875 
Q 16.75 56 26.8125 56 
Q 31.78125 56 36.171875 55.265625 
Q 40.578125 54.546875 44.28125 53.078125 
z
" id="DejaVuSans-115"/>
     </defs>
     <g transform="translate(269.862891 411.621475)scale(0.15 -0.15)">
      <use xlink:href="#DejaVuSans-65"/>
      <use x="68.408203" xlink:href="#DejaVuSans-108"/>
      <use x="96.191406" xlink:href="#DejaVuSans-103"/>
      <use x="159.667969" xlink:href="#DejaVuSans-111"/>
      <use x="220.849609" xlink:href="#DejaVuSans-114"/>
      <use x="261.962891" xlink:href="#DejaVuSans-105"/>
      <use x="289.746094" xlink:href="#DejaVuSans-116"/>
      <use x="328.955078" xlink:href="#DejaVuSans-104"/>
      <use x="392.333984" xlink:href="#DejaVuSans-109"/>
      <use x="489.746094" xlink:href="#DejaVuSans-115"/>
     </g>
    </g>
   </g>
   <g id="matplotlib.axis_2">
    <g id="ytick_1">
     <g id="line2d_9">
      <path clip-path="url(#p53e29c93ea)" d="M 61.2 299.265068 
L 559.8 299.265068 
" style="fill:none;stroke:#b0b0b0;stroke-linecap:square;stroke-width:0.8;"/>
     </g>
     <g id="line2d_10">
      <defs>
       <path d="M 0 0 
L -3.5 0 
" id="m66477e74e8" style="stroke:#000000;stroke-width:0.8;"/>
      </defs>
      <g>
       <use style="stroke:#000000;stroke-width:0.8;" x="61.2" xlink:href="#m66477e74e8" y="299.265068"/>
      </g>
     </g>
     <g id="text_6">
      <!-- 30 -->
      <defs>
       <path d="M 40.578125 39.3125 
Q 47.65625 37.796875 51.625 33 
Q 55.609375 28.21875 55.609375 21.1875 
Q 55.609375 10.40625 48.1875 4.484375 
Q 40.765625 -1.421875 27.09375 -1.421875 
Q 22.515625 -1.421875 17.65625 -0.515625 
Q 12.796875 0.390625 7.625 2.203125 
L 7.625 11.71875 
Q 11.71875 9.328125 16.59375 8.109375 
Q 21.484375 6.890625 26.8125 6.890625 
Q 36.078125 6.890625 40.9375 10.546875 
Q 45.796875 14.203125 45.796875 21.1875 
Q 45.796875 27.640625 41.28125 31.265625 
Q 36.765625 34.90625 28.71875 34.90625 
L 20.21875 34.90625 
L 20.21875 43.015625 
L 29.109375 43.015625 
Q 36.375 43.015625 40.234375 45.921875 
Q 44.09375 48.828125 44.09375 54.296875 
Q 44.09375 59.90625 40.109375 62.90625 
Q 36.140625 65.921875 28.71875 65.921875 
Q 24.65625 65.921875 20.015625 65.03125 
Q 15.375 64.15625 9.8125 62.3125 
L 9.8125 71.09375 
Q 15.4375 72.65625 20.34375 73.4375 
Q 25.25 74.21875 29.59375 74.21875 
Q 40.828125 74.21875 47.359375 69.109375 
Q 53.90625 64.015625 53.90625 55.328125 
Q 53.90625 49.265625 50.4375 45.09375 
Q 46.96875 40.921875 40.578125 39.3125 
z
" id="DejaVuSans-51"/>
       <path d="M 31.78125 66.40625 
Q 24.171875 66.40625 20.328125 58.90625 
Q 16.5 51.421875 16.5 36.375 
Q 16.5 21.390625 20.328125 13.890625 
Q 24.171875 6.390625 31.78125 6.390625 
Q 39.453125 6.390625 43.28125 13.890625 
Q 47.125 21.390625 47.125 36.375 
Q 47.125 51.421875 43.28125 58.90625 
Q 39.453125 66.40625 31.78125 66.40625 
z
M 31.78125 74.21875 
Q 44.046875 74.21875 50.515625 64.515625 
Q 56.984375 54.828125 56.984375 36.375 
Q 56.984375 17.96875 50.515625 8.265625 
Q 44.046875 -1.421875 31.78125 -1.421875 
Q 19.53125 -1.421875 13.0625 8.265625 
Q 6.59375 17.96875 6.59375 36.375 
Q 6.59375 54.828125 13.0625 64.515625 
Q 19.53125 74.21875 31.78125 74.21875 
z
" id="DejaVuSans-48"/>
      </defs>
      <g transform="translate(35.1125 304.963896)scale(0.15 -0.15)">
       <use xlink:href="#DejaVuSans-51"/>
       <use x="63.623047" xlink:href="#DejaVuSans-48"/>
      </g>
     </g>
    </g>
    <g id="ytick_2">
     <g id="line2d_11">
      <path clip-path="url(#p53e29c93ea)" d="M 61.2 258.690914 
L 559.8 258.690914 
" style="fill:none;stroke:#b0b0b0;stroke-linecap:square;stroke-width:0.8;"/>
     </g>
     <g id="line2d_12">
      <g>
       <use style="stroke:#000000;stroke-width:0.8;" x="61.2" xlink:href="#m66477e74e8" y="258.690914"/>
      </g>
     </g>
     <g id="text_7">
      <!-- 40 -->
      <defs>
       <path d="M 37.796875 64.3125 
L 12.890625 25.390625 
L 37.796875 25.390625 
z
M 35.203125 72.90625 
L 47.609375 72.90625 
L 47.609375 25.390625 
L 58.015625 25.390625 
L 58.015625 17.1875 
L 47.609375 17.1875 
L 47.609375 0 
L 37.796875 0 
L 37.796875 17.1875 
L 4.890625 17.1875 
L 4.890625 26.703125 
z
" id="DejaVuSans-52"/>
      </defs>
      <g transform="translate(35.1125 264.389742)scale(0.15 -0.15)">
       <use xlink:href="#DejaVuSans-52"/>
       <use x="63.623047" xlink:href="#DejaVuSans-48"/>
      </g>
     </g>
    </g>
    <g id="ytick_3">
     <g id="line2d_13">
      <path clip-path="url(#p53e29c93ea)" d="M 61.2 218.11676 
L 559.8 218.11676 
" style="fill:none;stroke:#b0b0b0;stroke-linecap:square;stroke-width:0.8;"/>
     </g>
     <g id="line2d_14">
      <g>
       <use style="stroke:#000000;stroke-width:0.8;" x="61.2" xlink:href="#m66477e74e8" y="218.11676"/>
      </g>
     </g>
     <g id="text_8">
      <!-- 50 -->
      <defs>
       <path d="M 10.796875 72.90625 
L 49.515625 72.90625 
L 49.515625 64.59375 
L 19.828125 64.59375 
L 19.828125 46.734375 
Q 21.96875 47.46875 24.109375 47.828125 
Q 26.265625 48.1875 28.421875 48.1875 
Q 40.625 48.1875 47.75 41.5 
Q 54.890625 34.8125 54.890625 23.390625 
Q 54.890625 11.625 47.5625 5.09375 
Q 40.234375 -1.421875 26.90625 -1.421875 
Q 22.3125 -1.421875 17.546875 -0.640625 
Q 12.796875 0.140625 7.71875 1.703125 
L 7.71875 11.625 
Q 12.109375 9.234375 16.796875 8.0625 
Q 21.484375 6.890625 26.703125 6.890625 
Q 35.15625 6.890625 40.078125 11.328125 
Q 45.015625 15.765625 45.015625 23.390625 
Q 45.015625 31 40.078125 35.4375 
Q 35.15625 39.890625 26.703125 39.890625 
Q 22.75 39.890625 18.8125 39.015625 
Q 14.890625 38.140625 10.796875 36.28125 
z
" id="DejaVuSans-53"/>
      </defs>
      <g transform="translate(35.1125 223.815588)scale(0.15 -0.15)">
       <use xlink:href="#DejaVuSans-53"/>
       <use x="63.623047" xlink:href="#DejaVuSans-48"/>
      </g>
     </g>
    </g>
    <g id="ytick_4">
     <g id="line2d_15">
      <path clip-path="url(#p53e29c93ea)" d="M 61.2 177.542606 
L 559.8 177.542606 
" style="fill:none;stroke:#b0b0b0;stroke-linecap:square;stroke-width:0.8;"/>
     </g>
     <g id="line2d_16">
      <g>
       <use style="stroke:#000000;stroke-width:0.8;" x="61.2" xlink:href="#m66477e74e8" y="177.542606"/>
      </g>
     </g>
     <g id="text_9">
      <!-- 60 -->
      <defs>
       <path d="M 33.015625 40.375 
Q 26.375 40.375 22.484375 35.828125 
Q 18.609375 31.296875 18.609375 23.390625 
Q 18.609375 15.53125 22.484375 10.953125 
Q 26.375 6.390625 33.015625 6.390625 
Q 39.65625 6.390625 43.53125 10.953125 
Q 47.40625 15.53125 47.40625 23.390625 
Q 47.40625 31.296875 43.53125 35.828125 
Q 39.65625 40.375 33.015625 40.375 
z
M 52.59375 71.296875 
L 52.59375 62.3125 
Q 48.875 64.0625 45.09375 64.984375 
Q 41.3125 65.921875 37.59375 65.921875 
Q 27.828125 65.921875 22.671875 59.328125 
Q 17.53125 52.734375 16.796875 39.40625 
Q 19.671875 43.65625 24.015625 45.921875 
Q 28.375 48.1875 33.59375 48.1875 
Q 44.578125 48.1875 50.953125 41.515625 
Q 57.328125 34.859375 57.328125 23.390625 
Q 57.328125 12.15625 50.6875 5.359375 
Q 44.046875 -1.421875 33.015625 -1.421875 
Q 20.359375 -1.421875 13.671875 8.265625 
Q 6.984375 17.96875 6.984375 36.375 
Q 6.984375 53.65625 15.1875 63.9375 
Q 23.390625 74.21875 37.203125 74.21875 
Q 40.921875 74.21875 44.703125 73.484375 
Q 48.484375 72.75 52.59375 71.296875 
z
" id="DejaVuSans-54"/>
      </defs>
      <g transform="translate(35.1125 183.241435)scale(0.15 -0.15)">
       <use xlink:href="#DejaVuSans-54"/>
       <use x="63.623047" xlink:href="#DejaVuSans-48"/>
      </g>
     </g>
    </g>
    <g id="ytick_5">
     <g id="line2d_17">
      <path clip-path="url(#p53e29c93ea)" d="M 61.2 136.968453 
L 559.8 136.968453 
" style="fill:none;stroke:#b0b0b0;stroke-linecap:square;stroke-width:0.8;"/>
     </g>
     <g id="line2d_18">
      <g>
       <use style="stroke:#000000;stroke-width:0.8;" x="61.2" xlink:href="#m66477e74e8" y="136.968453"/>
      </g>
     </g>
     <g id="text_10">
      <!-- 70 -->
      <defs>
       <path d="M 8.203125 72.90625 
L 55.078125 72.90625 
L 55.078125 68.703125 
L 28.609375 0 
L 18.3125 0 
L 43.21875 64.59375 
L 8.203125 64.59375 
z
" id="DejaVuSans-55"/>
      </defs>
      <g transform="translate(35.1125 142.667281)scale(0.15 -0.15)">
       <use xlink:href="#DejaVuSans-55"/>
       <use x="63.623047" xlink:href="#DejaVuSans-48"/>
      </g>
     </g>
    </g>
    <g id="ytick_6">
     <g id="line2d_19">
      <path clip-path="url(#p53e29c93ea)" d="M 61.2 96.394299 
L 559.8 96.394299 
" style="fill:none;stroke:#b0b0b0;stroke-linecap:square;stroke-width:0.8;"/>
     </g>
     <g id="line2d_20">
      <g>
       <use style="stroke:#000000;stroke-width:0.8;" x="61.2" xlink:href="#m66477e74e8" y="96.394299"/>
      </g>
     </g>
     <g id="text_11">
      <!-- 80 -->
      <defs>
       <path d="M 31.78125 34.625 
Q 24.75 34.625 20.71875 30.859375 
Q 16.703125 27.09375 16.703125 20.515625 
Q 16.703125 13.921875 20.71875 10.15625 
Q 24.75 6.390625 31.78125 6.390625 
Q 38.8125 6.390625 42.859375 10.171875 
Q 46.921875 13.96875 46.921875 20.515625 
Q 46.921875 27.09375 42.890625 30.859375 
Q 38.875 34.625 31.78125 34.625 
z
M 21.921875 38.8125 
Q 15.578125 40.375 12.03125 44.71875 
Q 8.5 49.078125 8.5 55.328125 
Q 8.5 64.0625 14.71875 69.140625 
Q 20.953125 74.21875 31.78125 74.21875 
Q 42.671875 74.21875 48.875 69.140625 
Q 55.078125 64.0625 55.078125 55.328125 
Q 55.078125 49.078125 51.53125 44.71875 
Q 48 40.375 41.703125 38.8125 
Q 48.828125 37.15625 52.796875 32.3125 
Q 56.78125 27.484375 56.78125 20.515625 
Q 56.78125 9.90625 50.3125 4.234375 
Q 43.84375 -1.421875 31.78125 -1.421875 
Q 19.734375 -1.421875 13.25 4.234375 
Q 6.78125 9.90625 6.78125 20.515625 
Q 6.78125 27.484375 10.78125 32.3125 
Q 14.796875 37.15625 21.921875 38.8125 
z
M 18.3125 54.390625 
Q 18.3125 48.734375 21.84375 45.5625 
Q 25.390625 42.390625 31.78125 42.390625 
Q 38.140625 42.390625 41.71875 45.5625 
Q 45.3125 48.734375 45.3125 54.390625 
Q 45.3125 60.0625 41.71875 63.234375 
Q 38.140625 66.40625 31.78125 66.40625 
Q 25.390625 66.40625 21.84375 63.234375 
Q 18.3125 60.0625 18.3125 54.390625 
z
" id="DejaVuSans-56"/>
      </defs>
      <g transform="translate(35.1125 102.093127)scale(0.15 -0.15)">
       <use xlink:href="#DejaVuSans-56"/>
       <use x="63.623047" xlink:href="#DejaVuSans-48"/>
      </g>
     </g>
    </g>
    <g id="text_12">
     <!-- Test Accuracy -->
     <defs>
      <path d="M -0.296875 72.90625 
L 61.375 72.90625 
L 61.375 64.59375 
L 35.5 64.59375 
L 35.5 0 
L 25.59375 0 
L 25.59375 64.59375 
L -0.296875 64.59375 
z
" id="DejaVuSans-84"/>
      <path d="M 48.78125 52.59375 
L 48.78125 44.1875 
Q 44.96875 46.296875 41.140625 47.34375 
Q 37.3125 48.390625 33.40625 48.390625 
Q 24.65625 48.390625 19.8125 42.84375 
Q 14.984375 37.3125 14.984375 27.296875 
Q 14.984375 17.28125 19.8125 11.734375 
Q 24.65625 6.203125 33.40625 6.203125 
Q 37.3125 6.203125 41.140625 7.25 
Q 44.96875 8.296875 48.78125 10.40625 
L 48.78125 2.09375 
Q 45.015625 0.34375 40.984375 -0.53125 
Q 36.96875 -1.421875 32.421875 -1.421875 
Q 20.0625 -1.421875 12.78125 6.34375 
Q 5.515625 14.109375 5.515625 27.296875 
Q 5.515625 40.671875 12.859375 48.328125 
Q 20.21875 56 33.015625 56 
Q 37.15625 56 41.109375 55.140625 
Q 45.0625 54.296875 48.78125 52.59375 
z
" id="DejaVuSans-99"/>
      <path d="M 8.5 21.578125 
L 8.5 54.6875 
L 17.484375 54.6875 
L 17.484375 21.921875 
Q 17.484375 14.15625 20.5 10.265625 
Q 23.53125 6.390625 29.59375 6.390625 
Q 36.859375 6.390625 41.078125 11.03125 
Q 45.3125 15.671875 45.3125 23.6875 
L 45.3125 54.6875 
L 54.296875 54.6875 
L 54.296875 0 
L 45.3125 0 
L 45.3125 8.40625 
Q 42.046875 3.421875 37.71875 1 
Q 33.40625 -1.421875 27.6875 -1.421875 
Q 18.265625 -1.421875 13.375 4.4375 
Q 8.5 10.296875 8.5 21.578125 
z
M 31.109375 56 
z
" id="DejaVuSans-117"/>
      <path d="M 34.28125 27.484375 
Q 23.390625 27.484375 19.1875 25 
Q 14.984375 22.515625 14.984375 16.5 
Q 14.984375 11.71875 18.140625 8.90625 
Q 21.296875 6.109375 26.703125 6.109375 
Q 34.1875 6.109375 38.703125 11.40625 
Q 43.21875 16.703125 43.21875 25.484375 
L 43.21875 27.484375 
z
M 52.203125 31.203125 
L 52.203125 0 
L 43.21875 0 
L 43.21875 8.296875 
Q 40.140625 3.328125 35.546875 0.953125 
Q 30.953125 -1.421875 24.3125 -1.421875 
Q 15.921875 -1.421875 10.953125 3.296875 
Q 6 8.015625 6 15.921875 
Q 6 25.140625 12.171875 29.828125 
Q 18.359375 34.515625 30.609375 34.515625 
L 43.21875 34.515625 
L 43.21875 35.40625 
Q 43.21875 41.609375 39.140625 45 
Q 35.0625 48.390625 27.6875 48.390625 
Q 23 48.390625 18.546875 47.265625 
Q 14.109375 46.140625 10.015625 43.890625 
L 10.015625 52.203125 
Q 14.9375 54.109375 19.578125 55.046875 
Q 24.21875 56 28.609375 56 
Q 40.484375 56 46.34375 49.84375 
Q 52.203125 43.703125 52.203125 31.203125 
z
" id="DejaVuSans-97"/>
      <path d="M 32.171875 -5.078125 
Q 28.375 -14.84375 24.75 -17.8125 
Q 21.140625 -20.796875 15.09375 -20.796875 
L 7.90625 -20.796875 
L 7.90625 -13.28125 
L 13.1875 -13.28125 
Q 16.890625 -13.28125 18.9375 -11.515625 
Q 21 -9.765625 23.484375 -3.21875 
L 25.09375 0.875 
L 2.984375 54.6875 
L 12.5 54.6875 
L 29.59375 11.921875 
L 46.6875 54.6875 
L 56.203125 54.6875 
z
" id="DejaVuSans-121"/>
     </defs>
     <g transform="translate(27.992969 233.784197)rotate(-90)scale(0.15 -0.15)">
      <use xlink:href="#DejaVuSans-84"/>
      <use x="44.083984" xlink:href="#DejaVuSans-101"/>
      <use x="105.607422" xlink:href="#DejaVuSans-115"/>
      <use x="157.707031" xlink:href="#DejaVuSans-116"/>
      <use x="196.916016" xlink:href="#DejaVuSans-32"/>
      <use x="228.703125" xlink:href="#DejaVuSans-65"/>
      <use x="295.361328" xlink:href="#DejaVuSans-99"/>
      <use x="350.341797" xlink:href="#DejaVuSans-99"/>
      <use x="405.322266" xlink:href="#DejaVuSans-117"/>
      <use x="468.701172" xlink:href="#DejaVuSans-114"/>
      <use x="509.814453" xlink:href="#DejaVuSans-97"/>
      <use x="571.09375" xlink:href="#DejaVuSans-99"/>
      <use x="626.074219" xlink:href="#DejaVuSans-121"/>
     </g>
    </g>
   </g>
   <g id="LineCollection_1">
    <path clip-path="url(#p53e29c93ea)" d="M 102.75 175.083921 
L 102.75 167.058651 
" style="fill:none;stroke:#ff0000;stroke-width:3;"/>
   </g>
   <g id="LineCollection_2">
    <path clip-path="url(#p53e29c93ea)" d="M 102.75 176.515413 
L 102.75 165.729878 
" style="fill:none;stroke:#ff0000;"/>
   </g>
   <g id="LineCollection_3">
    <path clip-path="url(#p53e29c93ea)" d="M 102.75 175.083921 
L 102.75 167.058651 
" style="fill:none;stroke:#ff0000;stroke-width:3;"/>
    <path clip-path="url(#p53e29c93ea)" d="M 241.25 188.472785 
L 241.25 170.310326 
" style="fill:none;stroke:#ff0000;stroke-width:3;"/>
   </g>
   <g id="LineCollection_4">
    <path clip-path="url(#p53e29c93ea)" d="M 102.75 176.515413 
L 102.75 165.729878 
" style="fill:none;stroke:#ff0000;"/>
    <path clip-path="url(#p53e29c93ea)" d="M 241.25 191.923319 
L 241.25 165.216281 
" style="fill:none;stroke:#ff0000;"/>
   </g>
   <g id="LineCollection_5">
    <path clip-path="url(#p53e29c93ea)" d="M 102.75 175.083921 
L 102.75 167.058651 
" style="fill:none;stroke:#ff0000;stroke-width:3;"/>
    <path clip-path="url(#p53e29c93ea)" d="M 241.25 188.472785 
L 241.25 170.310326 
" style="fill:none;stroke:#ff0000;stroke-width:3;"/>
    <path clip-path="url(#p53e29c93ea)" d="M 379.75 218.392452 
L 379.75 161.55085 
" style="fill:none;stroke:#ff0000;stroke-width:3;"/>
   </g>
   <g id="LineCollection_6">
    <path clip-path="url(#p53e29c93ea)" d="M 102.75 176.515413 
L 102.75 165.729878 
" style="fill:none;stroke:#ff0000;"/>
    <path clip-path="url(#p53e29c93ea)" d="M 241.25 191.923319 
L 241.25 165.216281 
" style="fill:none;stroke:#ff0000;"/>
    <path clip-path="url(#p53e29c93ea)" d="M 379.75 246.364589 
L 379.75 171.379444 
" style="fill:none;stroke:#ff0000;"/>
   </g>
   <g id="LineCollection_7">
    <path clip-path="url(#p53e29c93ea)" d="M 102.75 175.083921 
L 102.75 167.058651 
" style="fill:none;stroke:#ff0000;stroke-width:3;"/>
    <path clip-path="url(#p53e29c93ea)" d="M 241.25 188.472785 
L 241.25 170.310326 
" style="fill:none;stroke:#ff0000;stroke-width:3;"/>
    <path clip-path="url(#p53e29c93ea)" d="M 379.75 218.392452 
L 379.75 161.55085 
" style="fill:none;stroke:#ff0000;stroke-width:3;"/>
    <path clip-path="url(#p53e29c93ea)" d="M 518.25 174.225972 
L 518.25 169.563396 
" style="fill:none;stroke:#ff0000;stroke-width:3;"/>
   </g>
   <g id="LineCollection_8">
    <path clip-path="url(#p53e29c93ea)" d="M 102.75 176.515413 
L 102.75 165.729878 
" style="fill:none;stroke:#ff0000;"/>
    <path clip-path="url(#p53e29c93ea)" d="M 241.25 191.923319 
L 241.25 165.216281 
" style="fill:none;stroke:#ff0000;"/>
    <path clip-path="url(#p53e29c93ea)" d="M 379.75 246.364589 
L 379.75 171.379444 
" style="fill:none;stroke:#ff0000;"/>
    <path clip-path="url(#p53e29c93ea)" d="M 518.25 175.351602 
L 518.25 169.508924 
" style="fill:none;stroke:#ff0000;"/>
   </g>
   <g id="LineCollection_9">
    <path clip-path="url(#p53e29c93ea)" d="M 102.75 89.57177 
L 102.75 82.262075 
" style="fill:none;stroke:#008000;stroke-width:3;"/>
   </g>
   <g id="LineCollection_10">
    <path clip-path="url(#p53e29c93ea)" d="M 102.75 88.690346 
L 102.75 78.932005 
" style="fill:none;stroke:#008000;"/>
   </g>
   <g id="LineCollection_11">
    <path clip-path="url(#p53e29c93ea)" d="M 102.75 89.57177 
L 102.75 82.262075 
" style="fill:none;stroke:#008000;stroke-width:3;"/>
    <path clip-path="url(#p53e29c93ea)" d="M 241.25 100.519259 
L 241.25 92.680216 
" style="fill:none;stroke:#008000;stroke-width:3;"/>
   </g>
   <g id="LineCollection_12">
    <path clip-path="url(#p53e29c93ea)" d="M 102.75 88.690346 
L 102.75 78.932005 
" style="fill:none;stroke:#008000;"/>
    <path clip-path="url(#p53e29c93ea)" d="M 241.25 103.071058 
L 241.25 91.771927 
" style="fill:none;stroke:#008000;"/>
   </g>
   <g id="LineCollection_13">
    <path clip-path="url(#p53e29c93ea)" d="M 102.75 89.57177 
L 102.75 82.262075 
" style="fill:none;stroke:#008000;stroke-width:3;"/>
    <path clip-path="url(#p53e29c93ea)" d="M 241.25 100.519259 
L 241.25 92.680216 
" style="fill:none;stroke:#008000;stroke-width:3;"/>
    <path clip-path="url(#p53e29c93ea)" d="M 379.75 106.61673 
L 379.75 96.649244 
" style="fill:none;stroke:#008000;stroke-width:3;"/>
   </g>
   <g id="LineCollection_14">
    <path clip-path="url(#p53e29c93ea)" d="M 102.75 88.690346 
L 102.75 78.932005 
" style="fill:none;stroke:#008000;"/>
    <path clip-path="url(#p53e29c93ea)" d="M 241.25 103.071058 
L 241.25 91.771927 
" style="fill:none;stroke:#008000;"/>
    <path clip-path="url(#p53e29c93ea)" d="M 379.75 107.179833 
L 379.75 92.799121 
" style="fill:none;stroke:#008000;"/>
   </g>
   <g id="LineCollection_15">
    <path clip-path="url(#p53e29c93ea)" d="M 102.75 89.57177 
L 102.75 82.262075 
" style="fill:none;stroke:#008000;stroke-width:3;"/>
    <path clip-path="url(#p53e29c93ea)" d="M 241.25 100.519259 
L 241.25 92.680216 
" style="fill:none;stroke:#008000;stroke-width:3;"/>
    <path clip-path="url(#p53e29c93ea)" d="M 379.75 106.61673 
L 379.75 96.649244 
" style="fill:none;stroke:#008000;stroke-width:3;"/>
    <path clip-path="url(#p53e29c93ea)" d="M 518.25 174.889669 
L 518.25 159.713711 
" style="fill:none;stroke:#008000;stroke-width:3;"/>
   </g>
   <g id="LineCollection_16">
    <path clip-path="url(#p53e29c93ea)" d="M 102.75 88.690346 
L 102.75 78.932005 
" style="fill:none;stroke:#008000;"/>
    <path clip-path="url(#p53e29c93ea)" d="M 241.25 103.071058 
L 241.25 91.771927 
" style="fill:none;stroke:#008000;"/>
    <path clip-path="url(#p53e29c93ea)" d="M 379.75 107.179833 
L 379.75 92.799121 
" style="fill:none;stroke:#008000;"/>
    <path clip-path="url(#p53e29c93ea)" d="M 518.25 180.301649 
L 518.25 157.742419 
" style="fill:none;stroke:#008000;"/>
   </g>
   <g id="LineCollection_17">
    <path clip-path="url(#p53e29c93ea)" d="M 102.75 86.838542 
L 102.75 79.448456 
" style="fill:none;stroke:#0000ff;stroke-width:3;"/>
   </g>
   <g id="LineCollection_18">
    <path clip-path="url(#p53e29c93ea)" d="M 102.75 89.717539 
L 102.75 78.418408 
" style="fill:none;stroke:#0000ff;"/>
   </g>
   <g id="LineCollection_19">
    <path clip-path="url(#p53e29c93ea)" d="M 102.75 86.838542 
L 102.75 79.448456 
" style="fill:none;stroke:#0000ff;stroke-width:3;"/>
    <path clip-path="url(#p53e29c93ea)" d="M 241.25 95.987925 
L 241.25 84.268909 
" style="fill:none;stroke:#0000ff;stroke-width:3;"/>
   </g>
   <g id="LineCollection_20">
    <path clip-path="url(#p53e29c93ea)" d="M 102.75 89.717539 
L 102.75 78.418408 
" style="fill:none;stroke:#0000ff;"/>
    <path clip-path="url(#p53e29c93ea)" d="M 241.25 96.907896 
L 241.25 80.986392 
" style="fill:none;stroke:#0000ff;"/>
   </g>
   <g id="LineCollection_21">
    <path clip-path="url(#p53e29c93ea)" d="M 102.75 86.838542 
L 102.75 79.448456 
" style="fill:none;stroke:#0000ff;stroke-width:3;"/>
    <path clip-path="url(#p53e29c93ea)" d="M 241.25 95.987925 
L 241.25 84.268909 
" style="fill:none;stroke:#0000ff;stroke-width:3;"/>
    <path clip-path="url(#p53e29c93ea)" d="M 379.75 93.537862 
L 379.75 85.48634 
" style="fill:none;stroke:#0000ff;stroke-width:3;"/>
   </g>
   <g id="LineCollection_22">
    <path clip-path="url(#p53e29c93ea)" d="M 102.75 89.717539 
L 102.75 78.418408 
" style="fill:none;stroke:#0000ff;"/>
    <path clip-path="url(#p53e29c93ea)" d="M 241.25 96.907896 
L 241.25 80.986392 
" style="fill:none;stroke:#0000ff;"/>
    <path clip-path="url(#p53e29c93ea)" d="M 379.75 94.853508 
L 379.75 82.527183 
" style="fill:none;stroke:#0000ff;"/>
   </g>
   <g id="LineCollection_23">
    <path clip-path="url(#p53e29c93ea)" d="M 102.75 86.838542 
L 102.75 79.448456 
" style="fill:none;stroke:#0000ff;stroke-width:3;"/>
    <path clip-path="url(#p53e29c93ea)" d="M 241.25 95.987925 
L 241.25 84.268909 
" style="fill:none;stroke:#0000ff;stroke-width:3;"/>
    <path clip-path="url(#p53e29c93ea)" d="M 379.75 93.537862 
L 379.75 85.48634 
" style="fill:none;stroke:#0000ff;stroke-width:3;"/>
    <path clip-path="url(#p53e29c93ea)" d="M 518.25 227.955569 
L 518.25 210.193052 
" style="fill:none;stroke:#0000ff;stroke-width:3;"/>
   </g>
   <g id="LineCollection_24">
    <path clip-path="url(#p53e29c93ea)" d="M 102.75 89.717539 
L 102.75 78.418408 
" style="fill:none;stroke:#0000ff;"/>
    <path clip-path="url(#p53e29c93ea)" d="M 241.25 96.907896 
L 241.25 80.986392 
" style="fill:none;stroke:#0000ff;"/>
    <path clip-path="url(#p53e29c93ea)" d="M 379.75 94.853508 
L 379.75 82.527183 
" style="fill:none;stroke:#0000ff;"/>
    <path clip-path="url(#p53e29c93ea)" d="M 518.25 236.415704 
L 518.25 211.138006 
" style="fill:none;stroke:#0000ff;"/>
   </g>
   <g id="LineCollection_25">
    <path clip-path="url(#p53e29c93ea)" d="M 102.75 91.640451 
L 102.75 88.000067 
" style="fill:none;stroke:#000000;stroke-width:3;"/>
   </g>
   <g id="LineCollection_26">
    <path clip-path="url(#p53e29c93ea)" d="M 102.75 93.312718 
L 102.75 88.176749 
" style="fill:none;stroke:#000000;"/>
   </g>
   <g id="LineCollection_27">
    <path clip-path="url(#p53e29c93ea)" d="M 102.75 91.640451 
L 102.75 88.000067 
" style="fill:none;stroke:#000000;stroke-width:3;"/>
    <path clip-path="url(#p53e29c93ea)" d="M 241.25 105.97465 
L 241.25 94.415182 
" style="fill:none;stroke:#000000;stroke-width:3;"/>
   </g>
   <g id="LineCollection_28">
    <path clip-path="url(#p53e29c93ea)" d="M 102.75 93.312718 
L 102.75 88.176749 
" style="fill:none;stroke:#000000;"/>
    <path clip-path="url(#p53e29c93ea)" d="M 241.25 109.747818 
L 241.25 92.799121 
" style="fill:none;stroke:#000000;"/>
   </g>
   <g id="LineCollection_29">
    <path clip-path="url(#p53e29c93ea)" d="M 102.75 91.640451 
L 102.75 88.000067 
" style="fill:none;stroke:#000000;stroke-width:3;"/>
    <path clip-path="url(#p53e29c93ea)" d="M 241.25 105.97465 
L 241.25 94.415182 
" style="fill:none;stroke:#000000;stroke-width:3;"/>
    <path clip-path="url(#p53e29c93ea)" d="M 379.75 96.790882 
L 379.75 89.423675 
" style="fill:none;stroke:#000000;stroke-width:3;"/>
   </g>
   <g id="LineCollection_30">
    <path clip-path="url(#p53e29c93ea)" d="M 102.75 93.312718 
L 102.75 88.176749 
" style="fill:none;stroke:#000000;"/>
    <path clip-path="url(#p53e29c93ea)" d="M 241.25 109.747818 
L 241.25 92.799121 
" style="fill:none;stroke:#000000;"/>
    <path clip-path="url(#p53e29c93ea)" d="M 379.75 97.421493 
L 379.75 87.663152 
" style="fill:none;stroke:#000000;"/>
   </g>
   <g id="LineCollection_31">
    <path clip-path="url(#p53e29c93ea)" d="M 102.75 91.640451 
L 102.75 88.000067 
" style="fill:none;stroke:#000000;stroke-width:3;"/>
    <path clip-path="url(#p53e29c93ea)" d="M 241.25 105.97465 
L 241.25 94.415182 
" style="fill:none;stroke:#000000;stroke-width:3;"/>
    <path clip-path="url(#p53e29c93ea)" d="M 379.75 96.790882 
L 379.75 89.423675 
" style="fill:none;stroke:#000000;stroke-width:3;"/>
    <path clip-path="url(#p53e29c93ea)" d="M 518.25 282.643304 
L 518.25 260.300241 
" style="fill:none;stroke:#000000;stroke-width:3;"/>
   </g>
   <g id="LineCollection_32">
    <path clip-path="url(#p53e29c93ea)" d="M 102.75 93.312718 
L 102.75 88.176749 
" style="fill:none;stroke:#000000;"/>
    <path clip-path="url(#p53e29c93ea)" d="M 241.25 109.747818 
L 241.25 92.799121 
" style="fill:none;stroke:#000000;"/>
    <path clip-path="url(#p53e29c93ea)" d="M 379.75 97.421493 
L 379.75 87.663152 
" style="fill:none;stroke:#000000;"/>
    <path clip-path="url(#p53e29c93ea)" d="M 518.25 286.362487 
L 518.25 252.036753 
" style="fill:none;stroke:#000000;"/>
   </g>
   <g id="line2d_21">
    <defs>
     <path d="M 0 3 
C 0.795609 3 1.55874 2.683901 2.12132 2.12132 
C 2.683901 1.55874 3 0.795609 3 0 
C 3 -0.795609 2.683901 -1.55874 2.12132 -2.12132 
C 1.55874 -2.683901 0.795609 -3 0 -3 
C -0.795609 -3 -1.55874 -2.683901 -2.12132 -2.12132 
C -2.683901 -1.55874 -3 -0.795609 -3 0 
C -3 0.795609 -2.683901 1.55874 -2.12132 2.12132 
C -1.55874 2.683901 -0.795609 3 0 3 
z
" id="m291645ca41" style="stroke:#ff0000;"/>
    </defs>
    <g clip-path="url(#p53e29c93ea)">
     <use style="fill:#ff0000;stroke:#ff0000;" x="102.75" xlink:href="#m291645ca41" y="171.071286"/>
    </g>
   </g>
   <g id="line2d_22">
    <defs>
     <path d="M 0 1.5 
C 0.397805 1.5 0.77937 1.341951 1.06066 1.06066 
C 1.341951 0.77937 1.5 0.397805 1.5 0 
C 1.5 -0.397805 1.341951 -0.77937 1.06066 -1.06066 
C 0.77937 -1.341951 0.397805 -1.5 0 -1.5 
C -0.397805 -1.5 -0.77937 -1.341951 -1.06066 -1.06066 
C -1.341951 -0.77937 -1.5 -0.397805 -1.5 0 
C -1.5 0.397805 -1.341951 0.77937 -1.06066 1.06066 
C -0.77937 1.341951 -0.397805 1.5 0 1.5 
z
" id="m1dcd3b3769" style="stroke:#ff0000;"/>
    </defs>
    <g clip-path="url(#p53e29c93ea)">
     <use style="fill:#ff0000;stroke:#ff0000;" x="102.75" xlink:href="#m1dcd3b3769" y="171.071286"/>
    </g>
   </g>
   <g id="line2d_23">
    <g clip-path="url(#p53e29c93ea)">
     <use style="fill:#ff0000;stroke:#ff0000;" x="102.75" xlink:href="#m291645ca41" y="171.071286"/>
     <use style="fill:#ff0000;stroke:#ff0000;" x="241.25" xlink:href="#m291645ca41" y="179.391555"/>
    </g>
   </g>
   <g id="line2d_24">
    <g clip-path="url(#p53e29c93ea)">
     <use style="fill:#ff0000;stroke:#ff0000;" x="102.75" xlink:href="#m1dcd3b3769" y="171.071286"/>
     <use style="fill:#ff0000;stroke:#ff0000;" x="241.25" xlink:href="#m1dcd3b3769" y="179.391555"/>
    </g>
   </g>
   <g id="line2d_25">
    <g clip-path="url(#p53e29c93ea)">
     <use style="fill:#ff0000;stroke:#ff0000;" x="102.75" xlink:href="#m291645ca41" y="171.071286"/>
     <use style="fill:#ff0000;stroke:#ff0000;" x="241.25" xlink:href="#m291645ca41" y="179.391555"/>
     <use style="fill:#ff0000;stroke:#ff0000;" x="379.75" xlink:href="#m291645ca41" y="189.971651"/>
    </g>
   </g>
   <g id="line2d_26">
    <g clip-path="url(#p53e29c93ea)">
     <use style="fill:#ff0000;stroke:#ff0000;" x="102.75" xlink:href="#m1dcd3b3769" y="171.071286"/>
     <use style="fill:#ff0000;stroke:#ff0000;" x="241.25" xlink:href="#m1dcd3b3769" y="179.391555"/>
     <use style="fill:#ff0000;stroke:#ff0000;" x="379.75" xlink:href="#m1dcd3b3769" y="189.971651"/>
    </g>
   </g>
   <g id="line2d_27">
    <g clip-path="url(#p53e29c93ea)">
     <use style="fill:#ff0000;stroke:#ff0000;" x="102.75" xlink:href="#m291645ca41" y="171.071286"/>
     <use style="fill:#ff0000;stroke:#ff0000;" x="241.25" xlink:href="#m291645ca41" y="179.391555"/>
     <use style="fill:#ff0000;stroke:#ff0000;" x="379.75" xlink:href="#m291645ca41" y="189.971651"/>
     <use style="fill:#ff0000;stroke:#ff0000;" x="518.25" xlink:href="#m291645ca41" y="171.894684"/>
    </g>
   </g>
   <g id="line2d_28">
    <g clip-path="url(#p53e29c93ea)">
     <use style="fill:#ff0000;stroke:#ff0000;" x="102.75" xlink:href="#m1dcd3b3769" y="171.071286"/>
     <use style="fill:#ff0000;stroke:#ff0000;" x="241.25" xlink:href="#m1dcd3b3769" y="179.391555"/>
     <use style="fill:#ff0000;stroke:#ff0000;" x="379.75" xlink:href="#m1dcd3b3769" y="189.971651"/>
     <use style="fill:#ff0000;stroke:#ff0000;" x="518.25" xlink:href="#m1dcd3b3769" y="171.894684"/>
    </g>
   </g>
   <g id="line2d_29">
    <defs>
     <path d="M 0 3 
C 0.795609 3 1.55874 2.683901 2.12132 2.12132 
C 2.683901 1.55874 3 0.795609 3 0 
C 3 -0.795609 2.683901 -1.55874 2.12132 -2.12132 
C 1.55874 -2.683901 0.795609 -3 0 -3 
C -0.795609 -3 -1.55874 -2.683901 -2.12132 -2.12132 
C -2.683901 -1.55874 -3 -0.795609 -3 0 
C -3 0.795609 -2.683901 1.55874 -2.12132 2.12132 
C -1.55874 2.683901 -0.795609 3 0 3 
z
" id="mf6a5b8ea77" style="stroke:#008000;"/>
    </defs>
    <g clip-path="url(#p53e29c93ea)">
     <use style="fill:#008000;stroke:#008000;" x="102.75" xlink:href="#mf6a5b8ea77" y="85.916922"/>
    </g>
   </g>
   <g id="line2d_30">
    <defs>
     <path d="M 0 1.5 
C 0.397805 1.5 0.77937 1.341951 1.06066 1.06066 
C 1.341951 0.77937 1.5 0.397805 1.5 0 
C 1.5 -0.397805 1.341951 -0.77937 1.06066 -1.06066 
C 0.77937 -1.341951 0.397805 -1.5 0 -1.5 
C -0.397805 -1.5 -0.77937 -1.341951 -1.06066 -1.06066 
C -1.341951 -0.77937 -1.5 -0.397805 -1.5 0 
C -1.5 0.397805 -1.341951 0.77937 -1.06066 1.06066 
C -0.77937 1.341951 -0.397805 1.5 0 1.5 
z
" id="m947d1698b3" style="stroke:#008000;"/>
    </defs>
    <g clip-path="url(#p53e29c93ea)">
     <use style="fill:#008000;stroke:#008000;" x="102.75" xlink:href="#m947d1698b3" y="85.916922"/>
    </g>
   </g>
   <g id="line2d_31">
    <g clip-path="url(#p53e29c93ea)">
     <use style="fill:#008000;stroke:#008000;" x="102.75" xlink:href="#mf6a5b8ea77" y="85.916922"/>
     <use style="fill:#008000;stroke:#008000;" x="241.25" xlink:href="#mf6a5b8ea77" y="96.599738"/>
    </g>
   </g>
   <g id="line2d_32">
    <g clip-path="url(#p53e29c93ea)">
     <use style="fill:#008000;stroke:#008000;" x="102.75" xlink:href="#m947d1698b3" y="85.916922"/>
     <use style="fill:#008000;stroke:#008000;" x="241.25" xlink:href="#m947d1698b3" y="96.599738"/>
    </g>
   </g>
   <g id="line2d_33">
    <g clip-path="url(#p53e29c93ea)">
     <use style="fill:#008000;stroke:#008000;" x="102.75" xlink:href="#mf6a5b8ea77" y="85.916922"/>
     <use style="fill:#008000;stroke:#008000;" x="241.25" xlink:href="#mf6a5b8ea77" y="96.599738"/>
     <use style="fill:#008000;stroke:#008000;" x="379.75" xlink:href="#mf6a5b8ea77" y="101.632987"/>
    </g>
   </g>
   <g id="line2d_34">
    <g clip-path="url(#p53e29c93ea)">
     <use style="fill:#008000;stroke:#008000;" x="102.75" xlink:href="#m947d1698b3" y="85.916922"/>
     <use style="fill:#008000;stroke:#008000;" x="241.25" xlink:href="#m947d1698b3" y="96.599738"/>
     <use style="fill:#008000;stroke:#008000;" x="379.75" xlink:href="#m947d1698b3" y="101.632987"/>
    </g>
   </g>
   <g id="line2d_35">
    <g clip-path="url(#p53e29c93ea)">
     <use style="fill:#008000;stroke:#008000;" x="102.75" xlink:href="#mf6a5b8ea77" y="85.916922"/>
     <use style="fill:#008000;stroke:#008000;" x="241.25" xlink:href="#mf6a5b8ea77" y="96.599738"/>
     <use style="fill:#008000;stroke:#008000;" x="379.75" xlink:href="#mf6a5b8ea77" y="101.632987"/>
     <use style="fill:#008000;stroke:#008000;" x="518.25" xlink:href="#mf6a5b8ea77" y="167.30169"/>
    </g>
   </g>
   <g id="line2d_36">
    <g clip-path="url(#p53e29c93ea)">
     <use style="fill:#008000;stroke:#008000;" x="102.75" xlink:href="#m947d1698b3" y="85.916922"/>
     <use style="fill:#008000;stroke:#008000;" x="241.25" xlink:href="#m947d1698b3" y="96.599738"/>
     <use style="fill:#008000;stroke:#008000;" x="379.75" xlink:href="#m947d1698b3" y="101.632987"/>
     <use style="fill:#008000;stroke:#008000;" x="518.25" xlink:href="#m947d1698b3" y="167.30169"/>
    </g>
   </g>
   <g id="line2d_37">
    <defs>
     <path d="M 0 3 
C 0.795609 3 1.55874 2.683901 2.12132 2.12132 
C 2.683901 1.55874 3 0.795609 3 0 
C 3 -0.795609 2.683901 -1.55874 2.12132 -2.12132 
C 1.55874 -2.683901 0.795609 -3 0 -3 
C -0.795609 -3 -1.55874 -2.683901 -2.12132 -2.12132 
C -2.683901 -1.55874 -3 -0.795609 -3 0 
C -3 0.795609 -2.683901 1.55874 -2.12132 2.12132 
C -1.55874 2.683901 -0.795609 3 0 3 
z
" id="maa5302146a" style="stroke:#0000ff;"/>
    </defs>
    <g clip-path="url(#p53e29c93ea)">
     <use style="fill:#0000ff;stroke:#0000ff;" x="102.75" xlink:href="#maa5302146a" y="83.143499"/>
    </g>
   </g>
   <g id="line2d_38">
    <defs>
     <path d="M 0 1.5 
C 0.397805 1.5 0.77937 1.341951 1.06066 1.06066 
C 1.341951 0.77937 1.5 0.397805 1.5 0 
C 1.5 -0.397805 1.341951 -0.77937 1.06066 -1.06066 
C 0.77937 -1.341951 0.397805 -1.5 0 -1.5 
C -0.397805 -1.5 -0.77937 -1.341951 -1.06066 -1.06066 
C -1.341951 -0.77937 -1.5 -0.397805 -1.5 0 
C -1.5 0.397805 -1.341951 0.77937 -1.06066 1.06066 
C -0.77937 1.341951 -0.397805 1.5 0 1.5 
z
" id="m0dfaf77fcb" style="stroke:#0000ff;"/>
    </defs>
    <g clip-path="url(#p53e29c93ea)">
     <use style="fill:#0000ff;stroke:#0000ff;" x="102.75" xlink:href="#m0dfaf77fcb" y="83.143499"/>
    </g>
   </g>
   <g id="line2d_39">
    <g clip-path="url(#p53e29c93ea)">
     <use style="fill:#0000ff;stroke:#0000ff;" x="102.75" xlink:href="#maa5302146a" y="83.143499"/>
     <use style="fill:#0000ff;stroke:#0000ff;" x="241.25" xlink:href="#maa5302146a" y="90.128417"/>
    </g>
   </g>
   <g id="line2d_40">
    <g clip-path="url(#p53e29c93ea)">
     <use style="fill:#0000ff;stroke:#0000ff;" x="102.75" xlink:href="#m0dfaf77fcb" y="83.143499"/>
     <use style="fill:#0000ff;stroke:#0000ff;" x="241.25" xlink:href="#m0dfaf77fcb" y="90.128417"/>
    </g>
   </g>
   <g id="line2d_41">
    <g clip-path="url(#p53e29c93ea)">
     <use style="fill:#0000ff;stroke:#0000ff;" x="102.75" xlink:href="#maa5302146a" y="83.143499"/>
     <use style="fill:#0000ff;stroke:#0000ff;" x="241.25" xlink:href="#maa5302146a" y="90.128417"/>
     <use style="fill:#0000ff;stroke:#0000ff;" x="379.75" xlink:href="#maa5302146a" y="89.512101"/>
    </g>
   </g>
   <g id="line2d_42">
    <g clip-path="url(#p53e29c93ea)">
     <use style="fill:#0000ff;stroke:#0000ff;" x="102.75" xlink:href="#m0dfaf77fcb" y="83.143499"/>
     <use style="fill:#0000ff;stroke:#0000ff;" x="241.25" xlink:href="#m0dfaf77fcb" y="90.128417"/>
     <use style="fill:#0000ff;stroke:#0000ff;" x="379.75" xlink:href="#m0dfaf77fcb" y="89.512101"/>
    </g>
   </g>
   <g id="line2d_43">
    <g clip-path="url(#p53e29c93ea)">
     <use style="fill:#0000ff;stroke:#0000ff;" x="102.75" xlink:href="#maa5302146a" y="83.143499"/>
     <use style="fill:#0000ff;stroke:#0000ff;" x="241.25" xlink:href="#maa5302146a" y="90.128417"/>
     <use style="fill:#0000ff;stroke:#0000ff;" x="379.75" xlink:href="#maa5302146a" y="89.512101"/>
     <use style="fill:#0000ff;stroke:#0000ff;" x="518.25" xlink:href="#maa5302146a" y="219.07431"/>
    </g>
   </g>
   <g id="line2d_44">
    <g clip-path="url(#p53e29c93ea)">
     <use style="fill:#0000ff;stroke:#0000ff;" x="102.75" xlink:href="#m0dfaf77fcb" y="83.143499"/>
     <use style="fill:#0000ff;stroke:#0000ff;" x="241.25" xlink:href="#m0dfaf77fcb" y="90.128417"/>
     <use style="fill:#0000ff;stroke:#0000ff;" x="379.75" xlink:href="#m0dfaf77fcb" y="89.512101"/>
     <use style="fill:#0000ff;stroke:#0000ff;" x="518.25" xlink:href="#m0dfaf77fcb" y="219.07431"/>
    </g>
   </g>
   <g id="line2d_45">
    <defs>
     <path d="M 0 3 
C 0.795609 3 1.55874 2.683901 2.12132 2.12132 
C 2.683901 1.55874 3 0.795609 3 0 
C 3 -0.795609 2.683901 -1.55874 2.12132 -2.12132 
C 1.55874 -2.683901 0.795609 -3 0 -3 
C -0.795609 -3 -1.55874 -2.683901 -2.12132 -2.12132 
C -2.683901 -1.55874 -3 -0.795609 -3 0 
C -3 0.795609 -2.683901 1.55874 -2.12132 2.12132 
C -1.55874 2.683901 -0.795609 3 0 3 
z
" id="m74ac208bbc" style="stroke:#000000;"/>
    </defs>
    <g clip-path="url(#p53e29c93ea)">
     <use style="stroke:#000000;" x="102.75" xlink:href="#m74ac208bbc" y="89.820259"/>
    </g>
   </g>
   <g id="line2d_46">
    <defs>
     <path d="M 0 1.5 
C 0.397805 1.5 0.77937 1.341951 1.06066 1.06066 
C 1.341951 0.77937 1.5 0.397805 1.5 0 
C 1.5 -0.397805 1.341951 -0.77937 1.06066 -1.06066 
C 0.77937 -1.341951 0.397805 -1.5 0 -1.5 
C -0.397805 -1.5 -0.77937 -1.341951 -1.06066 -1.06066 
C -1.341951 -0.77937 -1.5 -0.397805 -1.5 0 
C -1.5 0.397805 -1.341951 0.77937 -1.06066 1.06066 
C -0.77937 1.341951 -0.397805 1.5 0 1.5 
z
" id="m153e4d3595" style="stroke:#000000;"/>
    </defs>
    <g clip-path="url(#p53e29c93ea)">
     <use style="stroke:#000000;" x="102.75" xlink:href="#m153e4d3595" y="89.820259"/>
    </g>
   </g>
   <g id="line2d_47">
    <g clip-path="url(#p53e29c93ea)">
     <use style="stroke:#000000;" x="102.75" xlink:href="#m74ac208bbc" y="89.820259"/>
     <use style="stroke:#000000;" x="241.25" xlink:href="#m74ac208bbc" y="100.194916"/>
    </g>
   </g>
   <g id="line2d_48">
    <g clip-path="url(#p53e29c93ea)">
     <use style="stroke:#000000;" x="102.75" xlink:href="#m153e4d3595" y="89.820259"/>
     <use style="stroke:#000000;" x="241.25" xlink:href="#m153e4d3595" y="100.194916"/>
    </g>
   </g>
   <g id="line2d_49">
    <g clip-path="url(#p53e29c93ea)">
     <use style="stroke:#000000;" x="102.75" xlink:href="#m74ac208bbc" y="89.820259"/>
     <use style="stroke:#000000;" x="241.25" xlink:href="#m74ac208bbc" y="100.194916"/>
     <use style="stroke:#000000;" x="379.75" xlink:href="#m74ac208bbc" y="93.107279"/>
    </g>
   </g>
   <g id="line2d_50">
    <g clip-path="url(#p53e29c93ea)">
     <use style="stroke:#000000;" x="102.75" xlink:href="#m153e4d3595" y="89.820259"/>
     <use style="stroke:#000000;" x="241.25" xlink:href="#m153e4d3595" y="100.194916"/>
     <use style="stroke:#000000;" x="379.75" xlink:href="#m153e4d3595" y="93.107279"/>
    </g>
   </g>
   <g id="line2d_51">
    <g clip-path="url(#p53e29c93ea)">
     <use style="stroke:#000000;" x="102.75" xlink:href="#m74ac208bbc" y="89.820259"/>
     <use style="stroke:#000000;" x="241.25" xlink:href="#m74ac208bbc" y="100.194916"/>
     <use style="stroke:#000000;" x="379.75" xlink:href="#m74ac208bbc" y="93.107279"/>
     <use style="stroke:#000000;" x="518.25" xlink:href="#m74ac208bbc" y="271.471773"/>
    </g>
   </g>
   <g id="line2d_52">
    <g clip-path="url(#p53e29c93ea)">
     <use style="stroke:#000000;" x="102.75" xlink:href="#m153e4d3595" y="89.820259"/>
     <use style="stroke:#000000;" x="241.25" xlink:href="#m153e4d3595" y="100.194916"/>
     <use style="stroke:#000000;" x="379.75" xlink:href="#m153e4d3595" y="93.107279"/>
     <use style="stroke:#000000;" x="518.25" xlink:href="#m153e4d3595" y="271.471773"/>
    </g>
   </g>
   <g id="patch_3">
    <path d="M 61.2 307.156895 
L 61.2 57.624 
" style="fill:none;stroke:#000000;stroke-linecap:square;stroke-linejoin:miter;stroke-width:0.8;"/>
   </g>
   <g id="patch_4">
    <path d="M 559.8 307.156895 
L 559.8 57.624 
" style="fill:none;stroke:#000000;stroke-linecap:square;stroke-linejoin:miter;stroke-width:0.8;"/>
   </g>
   <g id="patch_5">
    <path d="M 61.2 307.156895 
L 559.8 307.156895 
" style="fill:none;stroke:#000000;stroke-linecap:square;stroke-linejoin:miter;stroke-width:0.8;"/>
   </g>
   <g id="patch_6">
    <path d="M 61.2 57.624 
L 559.8 57.624 
" style="fill:none;stroke:#000000;stroke-linecap:square;stroke-linejoin:miter;stroke-width:0.8;"/>
   </g>
   <g id="legend_1">
    <g id="patch_7">
     <path d="M 149.86875 54.211253 
L 471.13125 54.211253 
Q 474.13125 54.211253 474.13125 51.211253 
L 474.13125 30.694066 
Q 474.13125 27.694066 471.13125 27.694066 
L 149.86875 27.694066 
Q 146.86875 27.694066 146.86875 30.694066 
L 146.86875 51.211253 
Q 146.86875 54.211253 149.86875 54.211253 
z
" style="fill:#ffffff;opacity:0.8;stroke:#cccccc;stroke-linejoin:miter;"/>
    </g>
    <g id="LineCollection_33">
     <path d="M 167.86875 47.341722 
L 167.86875 32.341722 
" style="fill:none;stroke:#ff0000;stroke-width:3;"/>
    </g>
    <g id="line2d_53"/>
    <g id="line2d_54">
     <g>
      <use style="fill:#ff0000;stroke:#ff0000;" x="167.86875" xlink:href="#m291645ca41" y="39.841722"/>
     </g>
    </g>
    <g id="text_13">
     <!-- 1 -->
     <defs>
      <path d="M 12.40625 8.296875 
L 28.515625 8.296875 
L 28.515625 63.921875 
L 10.984375 60.40625 
L 10.984375 69.390625 
L 28.421875 72.90625 
L 38.28125 72.90625 
L 38.28125 8.296875 
L 54.390625 8.296875 
L 54.390625 0 
L 12.40625 0 
z
" id="DejaVuSans-49"/>
     </defs>
     <g transform="translate(194.86875 45.091722)scale(0.15 -0.15)">
      <use xlink:href="#DejaVuSans-49"/>
     </g>
    </g>
    <g id="LineCollection_34">
     <path d="M 249.4125 47.341722 
L 249.4125 32.341722 
" style="fill:none;stroke:#008000;stroke-width:3;"/>
    </g>
    <g id="line2d_55"/>
    <g id="line2d_56">
     <g>
      <use style="fill:#008000;stroke:#008000;" x="249.4125" xlink:href="#mf6a5b8ea77" y="39.841722"/>
     </g>
    </g>
    <g id="text_14">
     <!-- 5 -->
     <g transform="translate(276.4125 45.091722)scale(0.15 -0.15)">
      <use xlink:href="#DejaVuSans-53"/>
     </g>
    </g>
    <g id="LineCollection_35">
     <path d="M 330.95625 47.341722 
L 330.95625 32.341722 
" style="fill:none;stroke:#0000ff;stroke-width:3;"/>
    </g>
    <g id="line2d_57"/>
    <g id="line2d_58">
     <g>
      <use style="fill:#0000ff;stroke:#0000ff;" x="330.95625" xlink:href="#maa5302146a" y="39.841722"/>
     </g>
    </g>
    <g id="text_15">
     <!-- 10 -->
     <g transform="translate(357.95625 45.091722)scale(0.15 -0.15)">
      <use xlink:href="#DejaVuSans-49"/>
      <use x="63.623047" xlink:href="#DejaVuSans-48"/>
     </g>
    </g>
    <g id="LineCollection_36">
     <path d="M 422.04375 47.341722 
L 422.04375 32.341722 
" style="fill:none;stroke:#000000;stroke-width:3;"/>
    </g>
    <g id="line2d_59"/>
    <g id="line2d_60">
     <g>
      <use style="stroke:#000000;" x="422.04375" xlink:href="#m74ac208bbc" y="39.841722"/>
     </g>
    </g>
    <g id="text_16">
     <!-- 25 -->
     <defs>
      <path d="M 19.1875 8.296875 
L 53.609375 8.296875 
L 53.609375 0 
L 7.328125 0 
L 7.328125 8.296875 
Q 12.9375 14.109375 22.625 23.890625 
Q 32.328125 33.6875 34.8125 36.53125 
Q 39.546875 41.84375 41.421875 45.53125 
Q 43.3125 49.21875 43.3125 52.78125 
Q 43.3125 58.59375 39.234375 62.25 
Q 35.15625 65.921875 28.609375 65.921875 
Q 23.96875 65.921875 18.8125 64.3125 
Q 13.671875 62.703125 7.8125 59.421875 
L 7.8125 69.390625 
Q 13.765625 71.78125 18.9375 73 
Q 24.125 74.21875 28.421875 74.21875 
Q 39.75 74.21875 46.484375 68.546875 
Q 53.21875 62.890625 53.21875 53.421875 
Q 53.21875 48.921875 51.53125 44.890625 
Q 49.859375 40.875 45.40625 35.40625 
Q 44.1875 33.984375 37.640625 27.21875 
Q 31.109375 20.453125 19.1875 8.296875 
z
" id="DejaVuSans-50"/>
     </defs>
     <g transform="translate(449.04375 45.091722)scale(0.15 -0.15)">
      <use xlink:href="#DejaVuSans-50"/>
      <use x="63.623047" xlink:href="#DejaVuSans-53"/>
     </g>
    </g>
   </g>
  </g>
 </g>
 <defs>
  <clipPath id="p53e29c93ea">
   <rect height="249.532895" width="498.6" x="61.2" y="57.624"/>
  </clipPath>
 </defs>
</svg>
