<?xml version="1.0" encoding="utf-8" standalone="no"?>
<!DOCTYPE svg PUBLIC "-//W3C//DTD SVG 1.1//EN"
  "http://www.w3.org/Graphics/SVG/1.1/DTD/svg11.dtd">
<svg height="345.6pt" version="1.1" viewBox="0 0 460.8 345.6" width="460.8pt" xmlns="http://www.w3.org/2000/svg" xmlns:xlink="http://www.w3.org/1999/xlink">
 <metadata>
  <rdf:RDF xmlns:cc="http://creativecommons.org/ns#" xmlns:dc="http://purl.org/dc/elements/1.1/" xmlns:rdf="http://www.w3.org/1999/02/22-rdf-syntax-ns#">
   <cc:Work>
    <dc:type rdf:resource="http://purl.org/dc/dcmitype/StillImage"/>
    <dc:date>2021-04-27T10:14:56.763278</dc:date>
    <dc:format>image/svg+xml</dc:format>
    <dc:creator>
     <cc:Agent>
      <dc:title>Matplotlib v3.4.1, https://matplotlib.org/</dc:title>
     </cc:Agent>
    </dc:creator>
   </cc:Work>
  </rdf:RDF>
 </metadata>
 <defs>
  <style type="text/css">*{stroke-linecap:butt;stroke-linejoin:round;}</style>
 </defs>
 <g id="figure_1">
  <g id="patch_1">
   <path d="M 0 345.6 
L 460.8 345.6 
L 460.8 0 
L 0 0 
z
" style="fill:#ffffff;"/>
  </g>
  <g id="axes_1">
   <g id="patch_2">
    <path d="M 44.57 303.64 
L 366.25 303.64 
L 366.25 26.88 
L 44.57 26.88 
z
" style="fill:#ffffff;"/>
   </g>
   <g id="PolyCollection_1">
    <path clip-path="url(#p67d1ca8239)" d="M 59.191818 283.010525 
L 59.191818 285.957302 
L 65.159907 285.911163 
L 71.127996 275.230873 
L 77.096085 247.227079 
L 83.064174 259.770376 
L 89.032263 250.436266 
L 95.000353 247.852399 
L 100.968442 237.188929 
L 106.936531 220.839097 
L 112.90462 219.13862 
L 118.872709 192.074064 
L 124.840798 214.668283 
L 130.808887 193.527341 
L 136.776976 189.659897 
L 142.745065 180.067472 
L 148.713154 176.83716 
L 154.681243 197.750328 
L 160.649332 159.141647 
L 166.617421 168.383344 
L 172.58551 159.284292 
L 178.553599 174.909747 
L 184.521688 155.605979 
L 190.489777 146.269884 
L 196.457866 152.186874 
L 202.425955 125.325406 
L 208.394045 148.937788 
L 214.362134 138.610471 
L 220.330223 151.648342 
L 226.298312 125.272926 
L 232.266401 132.595893 
L 238.23449 117.188275 
L 244.202579 119.098573 
L 250.170668 118.21628 
L 256.138757 99.258978 
L 262.106846 97.150922 
L 268.074935 98.368481 
L 274.043024 126.473552 
L 280.011113 104.217484 
L 285.979202 111.587013 
L 291.947291 86.137347 
L 297.91538 103.269647 
L 303.883469 103.669812 
L 309.851558 95.095159 
L 315.819647 95.773522 
L 321.787737 86.76778 
L 327.755826 67.131521 
L 333.723915 92.120129 
L 339.692004 91.186207 
L 345.660093 78.423233 
L 351.628182 83.474879 
L 351.628182 60.091654 
L 351.628182 60.091654 
L 345.660093 51.183347 
L 339.692004 71.056481 
L 333.723915 53.332884 
L 327.755826 39.46 
L 321.787737 62.83549 
L 315.819647 80.429119 
L 309.851558 75.825338 
L 303.883469 75.362549 
L 297.91538 72.367051 
L 291.947291 64.975108 
L 285.979202 66.502109 
L 280.011113 61.23222 
L 274.043024 83.11979 
L 268.074935 75.759033 
L 262.106846 74.524167 
L 256.138757 82.03716 
L 250.170668 67.796059 
L 244.202579 78.609943 
L 238.23449 79.954297 
L 232.266401 103.59682 
L 226.298312 108.467362 
L 220.330223 106.804838 
L 214.362134 84.565528 
L 208.394045 99.517046 
L 202.425955 95.964113 
L 196.457866 86.458264 
L 190.489777 108.410336 
L 184.521688 109.638529 
L 178.553599 117.688725 
L 172.58551 127.277443 
L 166.617421 128.554032 
L 160.649332 133.079529 
L 154.681243 129.936677 
L 148.713154 135.569354 
L 142.745065 142.903332 
L 136.776976 139.536291 
L 130.808887 155.099595 
L 124.840798 170.933665 
L 118.872709 179.190634 
L 112.90462 182.687057 
L 106.936531 194.003294 
L 100.968442 191.424769 
L 95.000353 214.717943 
L 89.032263 223.641605 
L 83.064174 232.229057 
L 77.096085 231.755641 
L 71.127996 251.291149 
L 65.159907 278.717759 
L 59.191818 283.010525 
z
" style="fill:#1f77b4;fill-opacity:0.5;"/>
   </g>
   <g id="PolyCollection_2">
    <path clip-path="url(#p67d1ca8239)" d="M 59.191818 283.917969 
L 59.191818 286.559042 
L 65.159907 286.447325 
L 71.127996 290.916669 
L 77.096085 280.598161 
L 83.064174 280.573699 
L 89.032263 273.116883 
L 95.000353 273.788853 
L 100.968442 271.59855 
L 106.936531 267.685883 
L 112.90462 284.724906 
L 118.872709 254.033408 
L 124.840798 279.785439 
L 130.808887 271.167827 
L 136.776976 276.346695 
L 142.745065 270.603098 
L 148.713154 275.8911 
L 154.681243 263.566085 
L 160.649332 286.115021 
L 166.617421 275.199186 
L 172.58551 280.180146 
L 178.553599 277.545175 
L 184.521688 276.382893 
L 190.489777 251.417991 
L 196.457866 278.21622 
L 202.425955 243.783607 
L 208.394045 267.057461 
L 214.362134 230.256869 
L 220.330223 275.386612 
L 226.298312 270.689014 
L 232.266401 236.61318 
L 238.23449 257.984342 
L 244.202579 256.913321 
L 250.170668 248.629603 
L 256.138757 253.228284 
L 262.106846 216.843899 
L 268.074935 233.584129 
L 274.043024 261.205388 
L 280.011113 213.740428 
L 285.979202 219.31308 
L 291.947291 216.55596 
L 297.91538 227.114979 
L 303.883469 236.716763 
L 309.851558 251.851206 
L 315.819647 256.160289 
L 321.787737 251.378771 
L 327.755826 201.626258 
L 333.723915 201.451928 
L 339.692004 208.094706 
L 345.660093 235.352857 
L 351.628182 205.465749 
L 351.628182 188.248064 
L 351.628182 188.248064 
L 345.660093 171.000373 
L 339.692004 174.488873 
L 333.723915 182.26354 
L 327.755826 172.279513 
L 321.787737 179.121406 
L 315.819647 190.186323 
L 309.851558 173.366827 
L 303.883469 178.88022 
L 297.91538 173.578811 
L 291.947291 166.216268 
L 285.979202 187.794743 
L 280.011113 195.065227 
L 274.043024 192.309849 
L 268.074935 191.822552 
L 262.106846 203.091989 
L 256.138757 189.345367 
L 250.170668 212.054258 
L 244.202579 203.204596 
L 238.23449 199.492502 
L 232.266401 207.469655 
L 226.298312 228.479045 
L 220.330223 211.330676 
L 214.362134 187.981187 
L 208.394045 212.113906 
L 202.425955 212.938646 
L 196.457866 194.352466 
L 190.489777 227.753377 
L 184.521688 238.6316 
L 178.553599 217.09533 
L 172.58551 217.856024 
L 166.617421 246.795283 
L 160.649332 244.179961 
L 154.681243 218.057707 
L 148.713154 242.519057 
L 142.745065 226.67848 
L 136.776976 225.839732 
L 130.808887 235.923448 
L 124.840798 232.587981 
L 118.872709 240.795746 
L 112.90462 237.080915 
L 106.936531 234.689192 
L 100.968442 246.811607 
L 95.000353 245.753192 
L 89.032263 252.839195 
L 83.064174 247.457507 
L 77.096085 254.601669 
L 71.127996 263.336612 
L 65.159907 268.560548 
L 59.191818 283.917969 
z
" style="fill:#ff7f0e;fill-opacity:0.5;"/>
   </g>
   <g id="PolyCollection_3">
    <path clip-path="url(#p67d1ca8239)" d="M 59.191818 280.059434 
L 59.191818 285.135433 
L 65.159907 283.568693 
L 71.127996 276.631908 
L 77.096085 264.607535 
L 83.064174 257.194386 
L 89.032263 253.216067 
L 95.000353 245.656063 
L 100.968442 246.917921 
L 106.936531 226.324841 
L 112.90462 213.748895 
L 118.872709 212.292614 
L 124.840798 201.648796 
L 130.808887 203.039885 
L 136.776976 219.676171 
L 142.745065 206.746883 
L 148.713154 207.689043 
L 154.681243 195.843893 
L 160.649332 197.506661 
L 166.617421 188.507372 
L 172.58551 158.874382 
L 178.553599 158.131989 
L 184.521688 161.036251 
L 190.489777 147.668627 
L 196.457866 139.487461 
L 202.425955 154.827646 
L 208.394045 146.421382 
L 214.362134 149.597514 
L 220.330223 150.029383 
L 226.298312 146.064295 
L 232.266401 126.905745 
L 238.23449 138.795437 
L 244.202579 142.463201 
L 250.170668 145.938183 
L 256.138757 136.830595 
L 262.106846 121.922897 
L 268.074935 141.849655 
L 274.043024 123.541469 
L 280.011113 117.85346 
L 285.979202 111.408214 
L 291.947291 115.892289 
L 297.91538 108.006902 
L 303.883469 136.307489 
L 309.851558 109.272099 
L 315.819647 108.176276 
L 321.787737 118.177525 
L 327.755826 104.272797 
L 333.723915 129.69821 
L 339.692004 107.445447 
L 345.660093 108.540528 
L 351.628182 98.060362 
L 351.628182 68.898526 
L 351.628182 68.898526 
L 345.660093 81.056123 
L 339.692004 78.566891 
L 333.723915 66.312474 
L 327.755826 82.871429 
L 321.787737 78.965047 
L 315.819647 89.909536 
L 309.851558 69.382967 
L 303.883469 81.020421 
L 297.91538 91.399446 
L 291.947291 76.345435 
L 285.979202 86.300303 
L 280.011113 94.946898 
L 274.043024 102.086955 
L 268.074935 94.531706 
L 262.106846 88.990981 
L 256.138757 81.629204 
L 250.170668 101.007467 
L 244.202579 90.899791 
L 238.23449 103.056717 
L 232.266401 105.136711 
L 226.298312 107.672684 
L 220.330223 113.705942 
L 214.362134 106.025946 
L 208.394045 129.764712 
L 202.425955 125.320056 
L 196.457866 126.888936 
L 190.489777 127.951523 
L 184.521688 128.543853 
L 178.553599 121.44977 
L 172.58551 141.081363 
L 166.617421 158.610379 
L 160.649332 164.514284 
L 154.681243 164.290572 
L 148.713154 168.291856 
L 142.745065 157.34919 
L 136.776976 151.211231 
L 130.808887 181.052879 
L 124.840798 195.460681 
L 118.872709 196.890337 
L 112.90462 191.472447 
L 106.936531 206.816409 
L 100.968442 222.066453 
L 95.000353 220.498591 
L 89.032263 225.578005 
L 83.064174 225.372646 
L 77.096085 224.184881 
L 71.127996 249.32417 
L 65.159907 280.682933 
L 59.191818 280.059434 
z
" style="fill:#2ca02c;fill-opacity:0.5;"/>
   </g>
   <g id="PolyCollection_4">
    <path clip-path="url(#p67d1ca8239)" d="M 59.191818 283.163377 
L 59.191818 283.163377 
L 65.159907 283.297506 
L 71.127996 291.06 
L 77.096085 275.386426 
L 83.064174 257.98776 
L 89.032263 249.619244 
L 95.000353 246.909458 
L 100.968442 240.800366 
L 106.936531 235.771599 
L 112.90462 234.763539 
L 118.872709 233.832158 
L 124.840798 233.013582 
L 130.808887 233.410677 
L 136.776976 232.992556 
L 142.745065 232.014628 
L 148.713154 231.372954 
L 154.681243 229.30481 
L 160.649332 230.158304 
L 166.617421 227.442044 
L 172.58551 226.588809 
L 178.553599 225.87803 
L 184.521688 224.092179 
L 190.489777 224.298553 
L 196.457866 224.623054 
L 202.425955 225.507307 
L 208.394045 225.594095 
L 214.362134 225.290026 
L 220.330223 226.140558 
L 226.298312 221.958929 
L 232.266401 225.167523 
L 238.23449 226.458416 
L 244.202579 229.778003 
L 250.170668 227.918416 
L 256.138757 226.671325 
L 262.106846 223.603843 
L 268.074935 226.892254 
L 274.043024 226.375502 
L 280.011113 226.037246 
L 285.979202 224.16248 
L 291.947291 223.132073 
L 297.91538 222.458228 
L 303.883469 221.023196 
L 309.851558 220.263803 
L 315.819647 221.136902 
L 321.787737 220.356662 
L 327.755826 219.086771 
L 333.723915 220.553201 
L 339.692004 219.964923 
L 345.660093 219.41204 
L 351.628182 218.951715 
L 351.628182 170.846708 
L 351.628182 170.846708 
L 345.660093 170.863285 
L 339.692004 171.085369 
L 333.723915 171.301863 
L 327.755826 171.844295 
L 321.787737 176.058779 
L 315.819647 171.791192 
L 309.851558 174.065191 
L 303.883469 173.037541 
L 297.91538 176.908045 
L 291.947291 174.311689 
L 285.979202 178.288755 
L 280.011113 178.917726 
L 274.043024 174.659929 
L 268.074935 179.523231 
L 262.106846 177.684943 
L 256.138757 179.505709 
L 250.170668 183.757896 
L 244.202579 181.242568 
L 238.23449 186.1717 
L 232.266401 184.496857 
L 226.298312 192.891763 
L 220.330223 186.489558 
L 214.362134 191.125501 
L 208.394045 191.208916 
L 202.425955 192.592281 
L 196.457866 190.436283 
L 190.489777 195.291355 
L 184.521688 196.108759 
L 178.553599 202.922051 
L 172.58551 195.355803 
L 166.617421 204.204547 
L 160.649332 197.702877 
L 154.681243 204.413326 
L 148.713154 204.506145 
L 142.745065 210.034393 
L 136.776976 207.387307 
L 130.808887 211.544466 
L 124.840798 212.746334 
L 118.872709 215.564137 
L 112.90462 217.360041 
L 106.936531 219.347522 
L 100.968442 222.336674 
L 95.000353 225.199305 
L 89.032263 226.215317 
L 83.064174 231.930319 
L 77.096085 240.865597 
L 71.127996 254.178735 
L 65.159907 283.118668 
L 59.191818 283.163377 
z
" style="fill:#d62728;fill-opacity:0.5;"/>
   </g>
   <g id="matplotlib.axis_1">
    <g id="xtick_1">
     <g id="line2d_1">
      <path clip-path="url(#p67d1ca8239)" d="M 59.191818 303.64 
L 59.191818 26.88 
" style="fill:none;stroke:#b0b0b0;stroke-linecap:square;stroke-width:0.8;"/>
     </g>
     <g id="line2d_2">
      <defs>
       <path d="M 0 0 
L 0 3.5 
" id="mb76ca12330" style="stroke:#000000;stroke-width:0.8;"/>
      </defs>
      <g>
       <use style="stroke:#000000;stroke-width:0.8;" x="59.191818" xlink:href="#mb76ca12330" y="303.64"/>
      </g>
     </g>
     <g id="text_1">
      <!-- 0 -->
      <g transform="translate(56.010568 318.238437)scale(0.1 -0.1)">
       <defs>
        <path d="M 2034 4250 
Q 1547 4250 1301 3770 
Q 1056 3291 1056 2328 
Q 1056 1369 1301 889 
Q 1547 409 2034 409 
Q 2525 409 2770 889 
Q 3016 1369 3016 2328 
Q 3016 3291 2770 3770 
Q 2525 4250 2034 4250 
z
M 2034 4750 
Q 2819 4750 3233 4129 
Q 3647 3509 3647 2328 
Q 3647 1150 3233 529 
Q 2819 -91 2034 -91 
Q 1250 -91 836 529 
Q 422 1150 422 2328 
Q 422 3509 836 4129 
Q 1250 4750 2034 4750 
z
" id="DejaVuSans-30" transform="scale(0.015625)"/>
       </defs>
       <use xlink:href="#DejaVuSans-30"/>
      </g>
     </g>
    </g>
    <g id="xtick_2">
     <g id="line2d_3">
      <path clip-path="url(#p67d1ca8239)" d="M 118.872709 303.64 
L 118.872709 26.88 
" style="fill:none;stroke:#b0b0b0;stroke-linecap:square;stroke-width:0.8;"/>
     </g>
     <g id="line2d_4">
      <g>
       <use style="stroke:#000000;stroke-width:0.8;" x="118.872709" xlink:href="#mb76ca12330" y="303.64"/>
      </g>
     </g>
     <g id="text_2">
      <!-- 10 -->
      <g transform="translate(112.510209 318.238437)scale(0.1 -0.1)">
       <defs>
        <path d="M 794 531 
L 1825 531 
L 1825 4091 
L 703 3866 
L 703 4441 
L 1819 4666 
L 2450 4666 
L 2450 531 
L 3481 531 
L 3481 0 
L 794 0 
L 794 531 
z
" id="DejaVuSans-31" transform="scale(0.015625)"/>
       </defs>
       <use xlink:href="#DejaVuSans-31"/>
       <use x="63.623047" xlink:href="#DejaVuSans-30"/>
      </g>
     </g>
    </g>
    <g id="xtick_3">
     <g id="line2d_5">
      <path clip-path="url(#p67d1ca8239)" d="M 178.553599 303.64 
L 178.553599 26.88 
" style="fill:none;stroke:#b0b0b0;stroke-linecap:square;stroke-width:0.8;"/>
     </g>
     <g id="line2d_6">
      <g>
       <use style="stroke:#000000;stroke-width:0.8;" x="178.553599" xlink:href="#mb76ca12330" y="303.64"/>
      </g>
     </g>
     <g id="text_3">
      <!-- 20 -->
      <g transform="translate(172.191099 318.238437)scale(0.1 -0.1)">
       <defs>
        <path d="M 1228 531 
L 3431 531 
L 3431 0 
L 469 0 
L 469 531 
Q 828 903 1448 1529 
Q 2069 2156 2228 2338 
Q 2531 2678 2651 2914 
Q 2772 3150 2772 3378 
Q 2772 3750 2511 3984 
Q 2250 4219 1831 4219 
Q 1534 4219 1204 4116 
Q 875 4013 500 3803 
L 500 4441 
Q 881 4594 1212 4672 
Q 1544 4750 1819 4750 
Q 2544 4750 2975 4387 
Q 3406 4025 3406 3419 
Q 3406 3131 3298 2873 
Q 3191 2616 2906 2266 
Q 2828 2175 2409 1742 
Q 1991 1309 1228 531 
z
" id="DejaVuSans-32" transform="scale(0.015625)"/>
       </defs>
       <use xlink:href="#DejaVuSans-32"/>
       <use x="63.623047" xlink:href="#DejaVuSans-30"/>
      </g>
     </g>
    </g>
    <g id="xtick_4">
     <g id="line2d_7">
      <path clip-path="url(#p67d1ca8239)" d="M 238.23449 303.64 
L 238.23449 26.88 
" style="fill:none;stroke:#b0b0b0;stroke-linecap:square;stroke-width:0.8;"/>
     </g>
     <g id="line2d_8">
      <g>
       <use style="stroke:#000000;stroke-width:0.8;" x="238.23449" xlink:href="#mb76ca12330" y="303.64"/>
      </g>
     </g>
     <g id="text_4">
      <!-- 30 -->
      <g transform="translate(231.87199 318.238437)scale(0.1 -0.1)">
       <defs>
        <path d="M 2597 2516 
Q 3050 2419 3304 2112 
Q 3559 1806 3559 1356 
Q 3559 666 3084 287 
Q 2609 -91 1734 -91 
Q 1441 -91 1130 -33 
Q 819 25 488 141 
L 488 750 
Q 750 597 1062 519 
Q 1375 441 1716 441 
Q 2309 441 2620 675 
Q 2931 909 2931 1356 
Q 2931 1769 2642 2001 
Q 2353 2234 1838 2234 
L 1294 2234 
L 1294 2753 
L 1863 2753 
Q 2328 2753 2575 2939 
Q 2822 3125 2822 3475 
Q 2822 3834 2567 4026 
Q 2313 4219 1838 4219 
Q 1578 4219 1281 4162 
Q 984 4106 628 3988 
L 628 4550 
Q 988 4650 1302 4700 
Q 1616 4750 1894 4750 
Q 2613 4750 3031 4423 
Q 3450 4097 3450 3541 
Q 3450 3153 3228 2886 
Q 3006 2619 2597 2516 
z
" id="DejaVuSans-33" transform="scale(0.015625)"/>
       </defs>
       <use xlink:href="#DejaVuSans-33"/>
       <use x="63.623047" xlink:href="#DejaVuSans-30"/>
      </g>
     </g>
    </g>
    <g id="xtick_5">
     <g id="line2d_9">
      <path clip-path="url(#p67d1ca8239)" d="M 297.91538 303.64 
L 297.91538 26.88 
" style="fill:none;stroke:#b0b0b0;stroke-linecap:square;stroke-width:0.8;"/>
     </g>
     <g id="line2d_10">
      <g>
       <use style="stroke:#000000;stroke-width:0.8;" x="297.91538" xlink:href="#mb76ca12330" y="303.64"/>
      </g>
     </g>
     <g id="text_5">
      <!-- 40 -->
      <g transform="translate(291.55288 318.238437)scale(0.1 -0.1)">
       <defs>
        <path d="M 2419 4116 
L 825 1625 
L 2419 1625 
L 2419 4116 
z
M 2253 4666 
L 3047 4666 
L 3047 1625 
L 3713 1625 
L 3713 1100 
L 3047 1100 
L 3047 0 
L 2419 0 
L 2419 1100 
L 313 1100 
L 313 1709 
L 2253 4666 
z
" id="DejaVuSans-34" transform="scale(0.015625)"/>
       </defs>
       <use xlink:href="#DejaVuSans-34"/>
       <use x="63.623047" xlink:href="#DejaVuSans-30"/>
      </g>
     </g>
    </g>
    <g id="xtick_6">
     <g id="line2d_11">
      <path clip-path="url(#p67d1ca8239)" d="M 357.596271 303.64 
L 357.596271 26.88 
" style="fill:none;stroke:#b0b0b0;stroke-linecap:square;stroke-width:0.8;"/>
     </g>
     <g id="line2d_12">
      <g>
       <use style="stroke:#000000;stroke-width:0.8;" x="357.596271" xlink:href="#mb76ca12330" y="303.64"/>
      </g>
     </g>
     <g id="text_6">
      <!-- 50 -->
      <g transform="translate(351.233771 318.238437)scale(0.1 -0.1)">
       <defs>
        <path d="M 691 4666 
L 3169 4666 
L 3169 4134 
L 1269 4134 
L 1269 2991 
Q 1406 3038 1543 3061 
Q 1681 3084 1819 3084 
Q 2600 3084 3056 2656 
Q 3513 2228 3513 1497 
Q 3513 744 3044 326 
Q 2575 -91 1722 -91 
Q 1428 -91 1123 -41 
Q 819 9 494 109 
L 494 744 
Q 775 591 1075 516 
Q 1375 441 1709 441 
Q 2250 441 2565 725 
Q 2881 1009 2881 1497 
Q 2881 1984 2565 2268 
Q 2250 2553 1709 2553 
Q 1456 2553 1204 2497 
Q 953 2441 691 2322 
L 691 4666 
z
" id="DejaVuSans-35" transform="scale(0.015625)"/>
       </defs>
       <use xlink:href="#DejaVuSans-35"/>
       <use x="63.623047" xlink:href="#DejaVuSans-30"/>
      </g>
     </g>
    </g>
    <g id="text_7">
     <!-- Global Communication Rounds -->
     <g transform="translate(128.448281 331.916562)scale(0.1 -0.1)">
      <defs>
       <path d="M 3809 666 
L 3809 1919 
L 2778 1919 
L 2778 2438 
L 4434 2438 
L 4434 434 
Q 4069 175 3628 42 
Q 3188 -91 2688 -91 
Q 1594 -91 976 548 
Q 359 1188 359 2328 
Q 359 3472 976 4111 
Q 1594 4750 2688 4750 
Q 3144 4750 3555 4637 
Q 3966 4525 4313 4306 
L 4313 3634 
Q 3963 3931 3569 4081 
Q 3175 4231 2741 4231 
Q 1884 4231 1454 3753 
Q 1025 3275 1025 2328 
Q 1025 1384 1454 906 
Q 1884 428 2741 428 
Q 3075 428 3337 486 
Q 3600 544 3809 666 
z
" id="DejaVuSans-47" transform="scale(0.015625)"/>
       <path d="M 603 4863 
L 1178 4863 
L 1178 0 
L 603 0 
L 603 4863 
z
" id="DejaVuSans-6c" transform="scale(0.015625)"/>
       <path d="M 1959 3097 
Q 1497 3097 1228 2736 
Q 959 2375 959 1747 
Q 959 1119 1226 758 
Q 1494 397 1959 397 
Q 2419 397 2687 759 
Q 2956 1122 2956 1747 
Q 2956 2369 2687 2733 
Q 2419 3097 1959 3097 
z
M 1959 3584 
Q 2709 3584 3137 3096 
Q 3566 2609 3566 1747 
Q 3566 888 3137 398 
Q 2709 -91 1959 -91 
Q 1206 -91 779 398 
Q 353 888 353 1747 
Q 353 2609 779 3096 
Q 1206 3584 1959 3584 
z
" id="DejaVuSans-6f" transform="scale(0.015625)"/>
       <path d="M 3116 1747 
Q 3116 2381 2855 2742 
Q 2594 3103 2138 3103 
Q 1681 3103 1420 2742 
Q 1159 2381 1159 1747 
Q 1159 1113 1420 752 
Q 1681 391 2138 391 
Q 2594 391 2855 752 
Q 3116 1113 3116 1747 
z
M 1159 2969 
Q 1341 3281 1617 3432 
Q 1894 3584 2278 3584 
Q 2916 3584 3314 3078 
Q 3713 2572 3713 1747 
Q 3713 922 3314 415 
Q 2916 -91 2278 -91 
Q 1894 -91 1617 61 
Q 1341 213 1159 525 
L 1159 0 
L 581 0 
L 581 4863 
L 1159 4863 
L 1159 2969 
z
" id="DejaVuSans-62" transform="scale(0.015625)"/>
       <path d="M 2194 1759 
Q 1497 1759 1228 1600 
Q 959 1441 959 1056 
Q 959 750 1161 570 
Q 1363 391 1709 391 
Q 2188 391 2477 730 
Q 2766 1069 2766 1631 
L 2766 1759 
L 2194 1759 
z
M 3341 1997 
L 3341 0 
L 2766 0 
L 2766 531 
Q 2569 213 2275 61 
Q 1981 -91 1556 -91 
Q 1019 -91 701 211 
Q 384 513 384 1019 
Q 384 1609 779 1909 
Q 1175 2209 1959 2209 
L 2766 2209 
L 2766 2266 
Q 2766 2663 2505 2880 
Q 2244 3097 1772 3097 
Q 1472 3097 1187 3025 
Q 903 2953 641 2809 
L 641 3341 
Q 956 3463 1253 3523 
Q 1550 3584 1831 3584 
Q 2591 3584 2966 3190 
Q 3341 2797 3341 1997 
z
" id="DejaVuSans-61" transform="scale(0.015625)"/>
       <path id="DejaVuSans-20" transform="scale(0.015625)"/>
       <path d="M 4122 4306 
L 4122 3641 
Q 3803 3938 3442 4084 
Q 3081 4231 2675 4231 
Q 1875 4231 1450 3742 
Q 1025 3253 1025 2328 
Q 1025 1406 1450 917 
Q 1875 428 2675 428 
Q 3081 428 3442 575 
Q 3803 722 4122 1019 
L 4122 359 
Q 3791 134 3420 21 
Q 3050 -91 2638 -91 
Q 1578 -91 968 557 
Q 359 1206 359 2328 
Q 359 3453 968 4101 
Q 1578 4750 2638 4750 
Q 3056 4750 3426 4639 
Q 3797 4528 4122 4306 
z
" id="DejaVuSans-43" transform="scale(0.015625)"/>
       <path d="M 3328 2828 
Q 3544 3216 3844 3400 
Q 4144 3584 4550 3584 
Q 5097 3584 5394 3201 
Q 5691 2819 5691 2113 
L 5691 0 
L 5113 0 
L 5113 2094 
Q 5113 2597 4934 2840 
Q 4756 3084 4391 3084 
Q 3944 3084 3684 2787 
Q 3425 2491 3425 1978 
L 3425 0 
L 2847 0 
L 2847 2094 
Q 2847 2600 2669 2842 
Q 2491 3084 2119 3084 
Q 1678 3084 1418 2786 
Q 1159 2488 1159 1978 
L 1159 0 
L 581 0 
L 581 3500 
L 1159 3500 
L 1159 2956 
Q 1356 3278 1631 3431 
Q 1906 3584 2284 3584 
Q 2666 3584 2933 3390 
Q 3200 3197 3328 2828 
z
" id="DejaVuSans-6d" transform="scale(0.015625)"/>
       <path d="M 544 1381 
L 544 3500 
L 1119 3500 
L 1119 1403 
Q 1119 906 1312 657 
Q 1506 409 1894 409 
Q 2359 409 2629 706 
Q 2900 1003 2900 1516 
L 2900 3500 
L 3475 3500 
L 3475 0 
L 2900 0 
L 2900 538 
Q 2691 219 2414 64 
Q 2138 -91 1772 -91 
Q 1169 -91 856 284 
Q 544 659 544 1381 
z
M 1991 3584 
L 1991 3584 
z
" id="DejaVuSans-75" transform="scale(0.015625)"/>
       <path d="M 3513 2113 
L 3513 0 
L 2938 0 
L 2938 2094 
Q 2938 2591 2744 2837 
Q 2550 3084 2163 3084 
Q 1697 3084 1428 2787 
Q 1159 2491 1159 1978 
L 1159 0 
L 581 0 
L 581 3500 
L 1159 3500 
L 1159 2956 
Q 1366 3272 1645 3428 
Q 1925 3584 2291 3584 
Q 2894 3584 3203 3211 
Q 3513 2838 3513 2113 
z
" id="DejaVuSans-6e" transform="scale(0.015625)"/>
       <path d="M 603 3500 
L 1178 3500 
L 1178 0 
L 603 0 
L 603 3500 
z
M 603 4863 
L 1178 4863 
L 1178 4134 
L 603 4134 
L 603 4863 
z
" id="DejaVuSans-69" transform="scale(0.015625)"/>
       <path d="M 3122 3366 
L 3122 2828 
Q 2878 2963 2633 3030 
Q 2388 3097 2138 3097 
Q 1578 3097 1268 2742 
Q 959 2388 959 1747 
Q 959 1106 1268 751 
Q 1578 397 2138 397 
Q 2388 397 2633 464 
Q 2878 531 3122 666 
L 3122 134 
Q 2881 22 2623 -34 
Q 2366 -91 2075 -91 
Q 1284 -91 818 406 
Q 353 903 353 1747 
Q 353 2603 823 3093 
Q 1294 3584 2113 3584 
Q 2378 3584 2631 3529 
Q 2884 3475 3122 3366 
z
" id="DejaVuSans-63" transform="scale(0.015625)"/>
       <path d="M 1172 4494 
L 1172 3500 
L 2356 3500 
L 2356 3053 
L 1172 3053 
L 1172 1153 
Q 1172 725 1289 603 
Q 1406 481 1766 481 
L 2356 481 
L 2356 0 
L 1766 0 
Q 1100 0 847 248 
Q 594 497 594 1153 
L 594 3053 
L 172 3053 
L 172 3500 
L 594 3500 
L 594 4494 
L 1172 4494 
z
" id="DejaVuSans-74" transform="scale(0.015625)"/>
       <path d="M 2841 2188 
Q 3044 2119 3236 1894 
Q 3428 1669 3622 1275 
L 4263 0 
L 3584 0 
L 2988 1197 
Q 2756 1666 2539 1819 
Q 2322 1972 1947 1972 
L 1259 1972 
L 1259 0 
L 628 0 
L 628 4666 
L 2053 4666 
Q 2853 4666 3247 4331 
Q 3641 3997 3641 3322 
Q 3641 2881 3436 2590 
Q 3231 2300 2841 2188 
z
M 1259 4147 
L 1259 2491 
L 2053 2491 
Q 2509 2491 2742 2702 
Q 2975 2913 2975 3322 
Q 2975 3731 2742 3939 
Q 2509 4147 2053 4147 
L 1259 4147 
z
" id="DejaVuSans-52" transform="scale(0.015625)"/>
       <path d="M 2906 2969 
L 2906 4863 
L 3481 4863 
L 3481 0 
L 2906 0 
L 2906 525 
Q 2725 213 2448 61 
Q 2172 -91 1784 -91 
Q 1150 -91 751 415 
Q 353 922 353 1747 
Q 353 2572 751 3078 
Q 1150 3584 1784 3584 
Q 2172 3584 2448 3432 
Q 2725 3281 2906 2969 
z
M 947 1747 
Q 947 1113 1208 752 
Q 1469 391 1925 391 
Q 2381 391 2643 752 
Q 2906 1113 2906 1747 
Q 2906 2381 2643 2742 
Q 2381 3103 1925 3103 
Q 1469 3103 1208 2742 
Q 947 2381 947 1747 
z
" id="DejaVuSans-64" transform="scale(0.015625)"/>
       <path d="M 2834 3397 
L 2834 2853 
Q 2591 2978 2328 3040 
Q 2066 3103 1784 3103 
Q 1356 3103 1142 2972 
Q 928 2841 928 2578 
Q 928 2378 1081 2264 
Q 1234 2150 1697 2047 
L 1894 2003 
Q 2506 1872 2764 1633 
Q 3022 1394 3022 966 
Q 3022 478 2636 193 
Q 2250 -91 1575 -91 
Q 1294 -91 989 -36 
Q 684 19 347 128 
L 347 722 
Q 666 556 975 473 
Q 1284 391 1588 391 
Q 1994 391 2212 530 
Q 2431 669 2431 922 
Q 2431 1156 2273 1281 
Q 2116 1406 1581 1522 
L 1381 1569 
Q 847 1681 609 1914 
Q 372 2147 372 2553 
Q 372 3047 722 3315 
Q 1072 3584 1716 3584 
Q 2034 3584 2315 3537 
Q 2597 3491 2834 3397 
z
" id="DejaVuSans-73" transform="scale(0.015625)"/>
      </defs>
      <use xlink:href="#DejaVuSans-47"/>
      <use x="77.490234" xlink:href="#DejaVuSans-6c"/>
      <use x="105.273438" xlink:href="#DejaVuSans-6f"/>
      <use x="166.455078" xlink:href="#DejaVuSans-62"/>
      <use x="229.931641" xlink:href="#DejaVuSans-61"/>
      <use x="291.210938" xlink:href="#DejaVuSans-6c"/>
      <use x="318.994141" xlink:href="#DejaVuSans-20"/>
      <use x="350.78125" xlink:href="#DejaVuSans-43"/>
      <use x="420.605469" xlink:href="#DejaVuSans-6f"/>
      <use x="481.787109" xlink:href="#DejaVuSans-6d"/>
      <use x="579.199219" xlink:href="#DejaVuSans-6d"/>
      <use x="676.611328" xlink:href="#DejaVuSans-75"/>
      <use x="739.990234" xlink:href="#DejaVuSans-6e"/>
      <use x="803.369141" xlink:href="#DejaVuSans-69"/>
      <use x="831.152344" xlink:href="#DejaVuSans-63"/>
      <use x="886.132812" xlink:href="#DejaVuSans-61"/>
      <use x="947.412109" xlink:href="#DejaVuSans-74"/>
      <use x="986.621094" xlink:href="#DejaVuSans-69"/>
      <use x="1014.404297" xlink:href="#DejaVuSans-6f"/>
      <use x="1075.585938" xlink:href="#DejaVuSans-6e"/>
      <use x="1138.964844" xlink:href="#DejaVuSans-20"/>
      <use x="1170.751953" xlink:href="#DejaVuSans-52"/>
      <use x="1235.734375" xlink:href="#DejaVuSans-6f"/>
      <use x="1296.916016" xlink:href="#DejaVuSans-75"/>
      <use x="1360.294922" xlink:href="#DejaVuSans-6e"/>
      <use x="1423.673828" xlink:href="#DejaVuSans-64"/>
      <use x="1487.150391" xlink:href="#DejaVuSans-73"/>
     </g>
    </g>
   </g>
   <g id="matplotlib.axis_2">
    <g id="ytick_1">
     <g id="line2d_13">
      <path clip-path="url(#p67d1ca8239)" d="M 44.57 283.163377 
L 366.25 283.163377 
" style="fill:none;stroke:#b0b0b0;stroke-linecap:square;stroke-width:0.8;"/>
     </g>
     <g id="line2d_14">
      <defs>
       <path d="M 0 0 
L -3.5 0 
" id="m747aea8429" style="stroke:#000000;stroke-width:0.8;"/>
      </defs>
      <g>
       <use style="stroke:#000000;stroke-width:0.8;" x="44.57" xlink:href="#m747aea8429" y="283.163377"/>
      </g>
     </g>
     <g id="text_8">
      <!-- 10 -->
      <g transform="translate(24.845 286.962596)scale(0.1 -0.1)">
       <use xlink:href="#DejaVuSans-31"/>
       <use x="63.623047" xlink:href="#DejaVuSans-30"/>
      </g>
     </g>
    </g>
    <g id="ytick_2">
     <g id="line2d_15">
      <path clip-path="url(#p67d1ca8239)" d="M 44.57 245.905393 
L 366.25 245.905393 
" style="fill:none;stroke:#b0b0b0;stroke-linecap:square;stroke-width:0.8;"/>
     </g>
     <g id="line2d_16">
      <g>
       <use style="stroke:#000000;stroke-width:0.8;" x="44.57" xlink:href="#m747aea8429" y="245.905393"/>
      </g>
     </g>
     <g id="text_9">
      <!-- 20 -->
      <g transform="translate(24.845 249.704611)scale(0.1 -0.1)">
       <use xlink:href="#DejaVuSans-32"/>
       <use x="63.623047" xlink:href="#DejaVuSans-30"/>
      </g>
     </g>
    </g>
    <g id="ytick_3">
     <g id="line2d_17">
      <path clip-path="url(#p67d1ca8239)" d="M 44.57 208.647408 
L 366.25 208.647408 
" style="fill:none;stroke:#b0b0b0;stroke-linecap:square;stroke-width:0.8;"/>
     </g>
     <g id="line2d_18">
      <g>
       <use style="stroke:#000000;stroke-width:0.8;" x="44.57" xlink:href="#m747aea8429" y="208.647408"/>
      </g>
     </g>
     <g id="text_10">
      <!-- 30 -->
      <g transform="translate(24.845 212.446627)scale(0.1 -0.1)">
       <use xlink:href="#DejaVuSans-33"/>
       <use x="63.623047" xlink:href="#DejaVuSans-30"/>
      </g>
     </g>
    </g>
    <g id="ytick_4">
     <g id="line2d_19">
      <path clip-path="url(#p67d1ca8239)" d="M 44.57 171.389423 
L 366.25 171.389423 
" style="fill:none;stroke:#b0b0b0;stroke-linecap:square;stroke-width:0.8;"/>
     </g>
     <g id="line2d_20">
      <g>
       <use style="stroke:#000000;stroke-width:0.8;" x="44.57" xlink:href="#m747aea8429" y="171.389423"/>
      </g>
     </g>
     <g id="text_11">
      <!-- 40 -->
      <g transform="translate(24.845 175.188642)scale(0.1 -0.1)">
       <use xlink:href="#DejaVuSans-34"/>
       <use x="63.623047" xlink:href="#DejaVuSans-30"/>
      </g>
     </g>
    </g>
    <g id="ytick_5">
     <g id="line2d_21">
      <path clip-path="url(#p67d1ca8239)" d="M 44.57 134.131439 
L 366.25 134.131439 
" style="fill:none;stroke:#b0b0b0;stroke-linecap:square;stroke-width:0.8;"/>
     </g>
     <g id="line2d_22">
      <g>
       <use style="stroke:#000000;stroke-width:0.8;" x="44.57" xlink:href="#m747aea8429" y="134.131439"/>
      </g>
     </g>
     <g id="text_12">
      <!-- 50 -->
      <g transform="translate(24.845 137.930657)scale(0.1 -0.1)">
       <use xlink:href="#DejaVuSans-35"/>
       <use x="63.623047" xlink:href="#DejaVuSans-30"/>
      </g>
     </g>
    </g>
    <g id="ytick_6">
     <g id="line2d_23">
      <path clip-path="url(#p67d1ca8239)" d="M 44.57 96.873454 
L 366.25 96.873454 
" style="fill:none;stroke:#b0b0b0;stroke-linecap:square;stroke-width:0.8;"/>
     </g>
     <g id="line2d_24">
      <g>
       <use style="stroke:#000000;stroke-width:0.8;" x="44.57" xlink:href="#m747aea8429" y="96.873454"/>
      </g>
     </g>
     <g id="text_13">
      <!-- 60 -->
      <g transform="translate(24.845 100.672673)scale(0.1 -0.1)">
       <defs>
        <path d="M 2113 2584 
Q 1688 2584 1439 2293 
Q 1191 2003 1191 1497 
Q 1191 994 1439 701 
Q 1688 409 2113 409 
Q 2538 409 2786 701 
Q 3034 994 3034 1497 
Q 3034 2003 2786 2293 
Q 2538 2584 2113 2584 
z
M 3366 4563 
L 3366 3988 
Q 3128 4100 2886 4159 
Q 2644 4219 2406 4219 
Q 1781 4219 1451 3797 
Q 1122 3375 1075 2522 
Q 1259 2794 1537 2939 
Q 1816 3084 2150 3084 
Q 2853 3084 3261 2657 
Q 3669 2231 3669 1497 
Q 3669 778 3244 343 
Q 2819 -91 2113 -91 
Q 1303 -91 875 529 
Q 447 1150 447 2328 
Q 447 3434 972 4092 
Q 1497 4750 2381 4750 
Q 2619 4750 2861 4703 
Q 3103 4656 3366 4563 
z
" id="DejaVuSans-36" transform="scale(0.015625)"/>
       </defs>
       <use xlink:href="#DejaVuSans-36"/>
       <use x="63.623047" xlink:href="#DejaVuSans-30"/>
      </g>
     </g>
    </g>
    <g id="ytick_7">
     <g id="line2d_25">
      <path clip-path="url(#p67d1ca8239)" d="M 44.57 59.615469 
L 366.25 59.615469 
" style="fill:none;stroke:#b0b0b0;stroke-linecap:square;stroke-width:0.8;"/>
     </g>
     <g id="line2d_26">
      <g>
       <use style="stroke:#000000;stroke-width:0.8;" x="44.57" xlink:href="#m747aea8429" y="59.615469"/>
      </g>
     </g>
     <g id="text_14">
      <!-- 70 -->
      <g transform="translate(24.845 63.414688)scale(0.1 -0.1)">
       <defs>
        <path d="M 525 4666 
L 3525 4666 
L 3525 4397 
L 1831 0 
L 1172 0 
L 2766 4134 
L 525 4134 
L 525 4666 
z
" id="DejaVuSans-37" transform="scale(0.015625)"/>
       </defs>
       <use xlink:href="#DejaVuSans-37"/>
       <use x="63.623047" xlink:href="#DejaVuSans-30"/>
      </g>
     </g>
    </g>
    <g id="text_15">
     <!-- Test Accuracy -->
     <g transform="translate(18.765313 199.5225)rotate(-90)scale(0.1 -0.1)">
      <defs>
       <path d="M -19 4666 
L 3928 4666 
L 3928 4134 
L 2272 4134 
L 2272 0 
L 1638 0 
L 1638 4134 
L -19 4134 
L -19 4666 
z
" id="DejaVuSans-54" transform="scale(0.015625)"/>
       <path d="M 3597 1894 
L 3597 1613 
L 953 1613 
Q 991 1019 1311 708 
Q 1631 397 2203 397 
Q 2534 397 2845 478 
Q 3156 559 3463 722 
L 3463 178 
Q 3153 47 2828 -22 
Q 2503 -91 2169 -91 
Q 1331 -91 842 396 
Q 353 884 353 1716 
Q 353 2575 817 3079 
Q 1281 3584 2069 3584 
Q 2775 3584 3186 3129 
Q 3597 2675 3597 1894 
z
M 3022 2063 
Q 3016 2534 2758 2815 
Q 2500 3097 2075 3097 
Q 1594 3097 1305 2825 
Q 1016 2553 972 2059 
L 3022 2063 
z
" id="DejaVuSans-65" transform="scale(0.015625)"/>
       <path d="M 2188 4044 
L 1331 1722 
L 3047 1722 
L 2188 4044 
z
M 1831 4666 
L 2547 4666 
L 4325 0 
L 3669 0 
L 3244 1197 
L 1141 1197 
L 716 0 
L 50 0 
L 1831 4666 
z
" id="DejaVuSans-41" transform="scale(0.015625)"/>
       <path d="M 2631 2963 
Q 2534 3019 2420 3045 
Q 2306 3072 2169 3072 
Q 1681 3072 1420 2755 
Q 1159 2438 1159 1844 
L 1159 0 
L 581 0 
L 581 3500 
L 1159 3500 
L 1159 2956 
Q 1341 3275 1631 3429 
Q 1922 3584 2338 3584 
Q 2397 3584 2469 3576 
Q 2541 3569 2628 3553 
L 2631 2963 
z
" id="DejaVuSans-72" transform="scale(0.015625)"/>
       <path d="M 2059 -325 
Q 1816 -950 1584 -1140 
Q 1353 -1331 966 -1331 
L 506 -1331 
L 506 -850 
L 844 -850 
Q 1081 -850 1212 -737 
Q 1344 -625 1503 -206 
L 1606 56 
L 191 3500 
L 800 3500 
L 1894 763 
L 2988 3500 
L 3597 3500 
L 2059 -325 
z
" id="DejaVuSans-79" transform="scale(0.015625)"/>
      </defs>
      <use xlink:href="#DejaVuSans-54"/>
      <use x="44.083984" xlink:href="#DejaVuSans-65"/>
      <use x="105.607422" xlink:href="#DejaVuSans-73"/>
      <use x="157.707031" xlink:href="#DejaVuSans-74"/>
      <use x="196.916016" xlink:href="#DejaVuSans-20"/>
      <use x="228.703125" xlink:href="#DejaVuSans-41"/>
      <use x="295.361328" xlink:href="#DejaVuSans-63"/>
      <use x="350.341797" xlink:href="#DejaVuSans-63"/>
      <use x="405.322266" xlink:href="#DejaVuSans-75"/>
      <use x="468.701172" xlink:href="#DejaVuSans-72"/>
      <use x="509.814453" xlink:href="#DejaVuSans-61"/>
      <use x="571.09375" xlink:href="#DejaVuSans-63"/>
      <use x="626.074219" xlink:href="#DejaVuSans-79"/>
     </g>
    </g>
   </g>
   <g id="line2d_27">
    <path clip-path="url(#p67d1ca8239)" d="M 59.191818 284.483913 
L 65.159907 282.314461 
L 71.127996 263.261011 
L 77.096085 239.49136 
L 83.064174 245.999717 
L 89.032263 237.038935 
L 95.000353 231.285171 
L 100.968442 214.306849 
L 106.936531 207.421196 
L 112.90462 200.912839 
L 118.872709 185.632349 
L 124.840798 192.800974 
L 130.808887 174.313468 
L 136.776976 164.598094 
L 142.745065 161.485402 
L 148.713154 156.203257 
L 154.681243 163.843502 
L 160.649332 146.110588 
L 166.617421 148.468688 
L 172.58551 143.280868 
L 178.553599 146.299236 
L 184.521688 132.622254 
L 190.489777 127.34011 
L 196.457866 119.322569 
L 202.425955 110.64476 
L 208.394045 124.227417 
L 214.362134 111.588 
L 220.330223 129.22659 
L 226.298312 116.870144 
L 232.266401 118.096357 
L 238.23449 98.571286 
L 244.202579 98.854258 
L 250.170668 93.006169 
L 256.138757 90.648069 
L 262.106846 85.837544 
L 268.074935 87.063757 
L 274.043024 104.796671 
L 280.011113 82.724852 
L 285.979202 89.044561 
L 291.947291 75.556227 
L 297.91538 87.818349 
L 303.883469 89.516181 
L 309.851558 85.460248 
L 315.819647 88.101321 
L 321.787737 74.801635 
L 327.755826 53.29576 
L 333.723915 72.726507 
L 339.692004 81.121344 
L 345.660093 64.80329 
L 351.628182 71.783267 
" style="fill:none;stroke:#1f77b4;stroke-linecap:square;stroke-width:1.5;"/>
   </g>
   <g id="line2d_28">
    <path clip-path="url(#p67d1ca8239)" d="M 59.191818 285.238506 
L 65.159907 277.503937 
L 71.127996 277.12664 
L 77.096085 267.599915 
L 83.064174 264.015603 
L 89.032263 262.978039 
L 95.000353 259.771022 
L 100.968442 259.205078 
L 106.936531 251.187537 
L 112.90462 260.90291 
L 118.872709 247.414577 
L 124.840798 256.18671 
L 130.808887 253.545638 
L 136.776976 251.093213 
L 142.745065 248.640789 
L 148.713154 259.205078 
L 154.681243 240.811896 
L 160.649332 265.147491 
L 166.617421 260.997234 
L 172.58551 249.018085 
L 178.553599 247.320253 
L 184.521688 257.507246 
L 190.489777 239.585684 
L 196.457866 236.284343 
L 202.425955 228.361126 
L 208.394045 239.585684 
L 214.362134 209.119028 
L 220.330223 243.358644 
L 226.298312 249.584029 
L 232.266401 222.041418 
L 238.23449 228.738422 
L 244.202579 230.058959 
L 250.170668 230.341931 
L 256.138757 221.286825 
L 262.106846 209.967944 
L 268.074935 212.70334 
L 274.043024 226.757618 
L 280.011113 204.402827 
L 285.979202 203.553911 
L 291.947291 191.386114 
L 297.91538 200.346895 
L 303.883469 207.798492 
L 309.851558 212.609016 
L 315.819647 223.173306 
L 321.787737 215.250089 
L 327.755826 186.952885 
L 333.723915 191.857734 
L 339.692004 191.29179 
L 345.660093 203.176615 
L 351.628182 196.856906 
" style="fill:none;stroke:#ff7f0e;stroke-linecap:square;stroke-width:1.5;"/>
   </g>
   <g id="line2d_29">
    <path clip-path="url(#p67d1ca8239)" d="M 59.191818 282.597433 
L 65.159907 282.125813 
L 71.127996 262.978039 
L 77.096085 244.396208 
L 83.064174 241.283516 
L 89.032263 239.397036 
L 95.000353 233.077327 
L 100.968442 234.492187 
L 106.936531 216.570625 
L 112.90462 202.610671 
L 118.872709 204.591475 
L 124.840798 198.554739 
L 130.808887 192.046382 
L 136.776976 185.443701 
L 142.745065 182.048037 
L 148.713154 187.990449 
L 154.681243 180.067232 
L 160.649332 181.010472 
L 166.617421 173.558875 
L 172.58551 149.977873 
L 178.553599 139.790879 
L 184.521688 144.790052 
L 190.489777 137.810075 
L 196.457866 133.188198 
L 202.425955 140.073851 
L 208.394045 138.093047 
L 214.362134 127.81173 
L 220.330223 131.867662 
L 226.298312 126.86849 
L 232.266401 116.021228 
L 238.23449 120.926077 
L 244.202579 116.681496 
L 250.170668 123.472825 
L 256.138757 109.229899 
L 262.106846 105.456939 
L 268.074935 118.190681 
L 274.043024 112.814212 
L 280.011113 106.400179 
L 285.979202 98.854258 
L 291.947291 96.118862 
L 297.91538 99.703174 
L 303.883469 108.663955 
L 309.851558 89.327533 
L 315.819647 99.042906 
L 321.787737 98.571286 
L 327.755826 93.572113 
L 333.723915 98.005342 
L 339.692004 93.006169 
L 345.660093 94.798326 
L 351.628182 83.479444 
" style="fill:none;stroke:#2ca02c;stroke-linecap:square;stroke-width:1.5;"/>
   </g>
   <g id="line2d_30">
    <path clip-path="url(#p67d1ca8239)" d="M 59.191818 283.163377 
L 65.159907 283.208087 
L 71.127996 272.619368 
L 77.096085 258.126012 
L 83.064174 244.95904 
L 89.032263 237.917281 
L 95.000353 236.054381 
L 100.968442 231.56852 
L 106.936531 227.559561 
L 112.90462 226.06179 
L 118.872709 224.698148 
L 124.840798 222.879958 
L 130.808887 222.477572 
L 136.776976 220.189932 
L 142.745065 221.02451 
L 148.713154 217.939549 
L 154.681243 216.859068 
L 160.649332 213.93059 
L 166.617421 215.823296 
L 172.58551 210.972306 
L 178.553599 214.400041 
L 184.521688 210.100469 
L 190.489777 209.794954 
L 196.457866 207.529668 
L 202.425955 209.049794 
L 208.394045 208.401505 
L 214.362134 208.207764 
L 220.330223 206.315058 
L 226.298312 207.425346 
L 232.266401 204.83219 
L 238.23449 206.315058 
L 244.202579 205.510286 
L 250.170668 205.838156 
L 256.138757 203.088517 
L 262.106846 200.644393 
L 268.074935 203.207742 
L 274.043024 200.517716 
L 280.011113 202.477486 
L 285.979202 201.225617 
L 291.947291 198.721881 
L 297.91538 199.683137 
L 303.883469 197.030368 
L 309.851558 197.164497 
L 315.819647 196.464047 
L 321.787737 198.207721 
L 327.755826 195.465533 
L 333.723915 195.927532 
L 339.692004 195.525146 
L 345.660093 195.137663 
L 351.628182 194.899212 
" style="fill:none;stroke:#d62728;stroke-linecap:square;stroke-width:1.5;"/>
   </g>
   <g id="patch_3">
    <path d="M 44.57 303.64 
L 44.57 26.88 
" style="fill:none;stroke:#000000;stroke-linecap:square;stroke-linejoin:miter;stroke-width:0.8;"/>
   </g>
   <g id="patch_4">
    <path d="M 366.25 303.64 
L 366.25 26.88 
" style="fill:none;stroke:#000000;stroke-linecap:square;stroke-linejoin:miter;stroke-width:0.8;"/>
   </g>
   <g id="patch_5">
    <path d="M 44.57 303.64 
L 366.25 303.64 
" style="fill:none;stroke:#000000;stroke-linecap:square;stroke-linejoin:miter;stroke-width:0.8;"/>
   </g>
   <g id="patch_6">
    <path d="M 44.57 26.88 
L 366.25 26.88 
" style="fill:none;stroke:#000000;stroke-linecap:square;stroke-linejoin:miter;stroke-width:0.8;"/>
   </g>
   <g id="text_16">
    <!-- CIFAR Local Rounds 25 -->
    <g transform="translate(137.255625 20.88)scale(0.12 -0.12)">
     <defs>
      <path d="M 628 4666 
L 1259 4666 
L 1259 0 
L 628 0 
L 628 4666 
z
" id="DejaVuSans-49" transform="scale(0.015625)"/>
      <path d="M 628 4666 
L 3309 4666 
L 3309 4134 
L 1259 4134 
L 1259 2759 
L 3109 2759 
L 3109 2228 
L 1259 2228 
L 1259 0 
L 628 0 
L 628 4666 
z
" id="DejaVuSans-46" transform="scale(0.015625)"/>
      <path d="M 628 4666 
L 1259 4666 
L 1259 531 
L 3531 531 
L 3531 0 
L 628 0 
L 628 4666 
z
" id="DejaVuSans-4c" transform="scale(0.015625)"/>
     </defs>
     <use xlink:href="#DejaVuSans-43"/>
     <use x="69.824219" xlink:href="#DejaVuSans-49"/>
     <use x="99.316406" xlink:href="#DejaVuSans-46"/>
     <use x="147.710938" xlink:href="#DejaVuSans-41"/>
     <use x="216.119141" xlink:href="#DejaVuSans-52"/>
     <use x="285.601562" xlink:href="#DejaVuSans-20"/>
     <use x="317.388672" xlink:href="#DejaVuSans-4c"/>
     <use x="371.351562" xlink:href="#DejaVuSans-6f"/>
     <use x="432.533203" xlink:href="#DejaVuSans-63"/>
     <use x="487.513672" xlink:href="#DejaVuSans-61"/>
     <use x="548.792969" xlink:href="#DejaVuSans-6c"/>
     <use x="576.576172" xlink:href="#DejaVuSans-20"/>
     <use x="608.363281" xlink:href="#DejaVuSans-52"/>
     <use x="673.345703" xlink:href="#DejaVuSans-6f"/>
     <use x="734.527344" xlink:href="#DejaVuSans-75"/>
     <use x="797.90625" xlink:href="#DejaVuSans-6e"/>
     <use x="861.285156" xlink:href="#DejaVuSans-64"/>
     <use x="924.761719" xlink:href="#DejaVuSans-73"/>
     <use x="976.861328" xlink:href="#DejaVuSans-20"/>
     <use x="1008.648438" xlink:href="#DejaVuSans-32"/>
     <use x="1072.271484" xlink:href="#DejaVuSans-35"/>
    </g>
   </g>
   <g id="legend_1">
    <g id="patch_7">
     <path d="M 373.25 196.11625 
L 447.821875 196.11625 
Q 449.821875 196.11625 449.821875 194.11625 
L 449.821875 136.40375 
Q 449.821875 134.40375 447.821875 134.40375 
L 373.25 134.40375 
Q 371.25 134.40375 371.25 136.40375 
L 371.25 194.11625 
Q 371.25 196.11625 373.25 196.11625 
z
" style="fill:#ffffff;opacity:0.8;stroke:#cccccc;stroke-linejoin:miter;"/>
    </g>
    <g id="line2d_31">
     <path d="M 375.25 142.502187 
L 395.25 142.502187 
" style="fill:none;stroke:#1f77b4;stroke-linecap:square;stroke-width:1.5;"/>
    </g>
    <g id="line2d_32"/>
    <g id="text_17">
     <!-- FedAvg -->
     <g transform="translate(403.25 146.002187)scale(0.1 -0.1)">
      <defs>
       <path d="M 191 3500 
L 800 3500 
L 1894 563 
L 2988 3500 
L 3597 3500 
L 2284 0 
L 1503 0 
L 191 3500 
z
" id="DejaVuSans-76" transform="scale(0.015625)"/>
       <path d="M 2906 1791 
Q 2906 2416 2648 2759 
Q 2391 3103 1925 3103 
Q 1463 3103 1205 2759 
Q 947 2416 947 1791 
Q 947 1169 1205 825 
Q 1463 481 1925 481 
Q 2391 481 2648 825 
Q 2906 1169 2906 1791 
z
M 3481 434 
Q 3481 -459 3084 -895 
Q 2688 -1331 1869 -1331 
Q 1566 -1331 1297 -1286 
Q 1028 -1241 775 -1147 
L 775 -588 
Q 1028 -725 1275 -790 
Q 1522 -856 1778 -856 
Q 2344 -856 2625 -561 
Q 2906 -266 2906 331 
L 2906 616 
Q 2728 306 2450 153 
Q 2172 0 1784 0 
Q 1141 0 747 490 
Q 353 981 353 1791 
Q 353 2603 747 3093 
Q 1141 3584 1784 3584 
Q 2172 3584 2450 3431 
Q 2728 3278 2906 2969 
L 2906 3500 
L 3481 3500 
L 3481 434 
z
" id="DejaVuSans-67" transform="scale(0.015625)"/>
      </defs>
      <use xlink:href="#DejaVuSans-46"/>
      <use x="52.019531" xlink:href="#DejaVuSans-65"/>
      <use x="113.542969" xlink:href="#DejaVuSans-64"/>
      <use x="177.019531" xlink:href="#DejaVuSans-41"/>
      <use x="239.552734" xlink:href="#DejaVuSans-76"/>
      <use x="298.732422" xlink:href="#DejaVuSans-67"/>
     </g>
    </g>
    <g id="line2d_33">
     <path d="M 375.25 157.180312 
L 395.25 157.180312 
" style="fill:none;stroke:#ff7f0e;stroke-linecap:square;stroke-width:1.5;"/>
    </g>
    <g id="line2d_34"/>
    <g id="text_18">
     <!-- FedMed -->
     <g transform="translate(403.25 160.680312)scale(0.1 -0.1)">
      <defs>
       <path d="M 628 4666 
L 1569 4666 
L 2759 1491 
L 3956 4666 
L 4897 4666 
L 4897 0 
L 4281 0 
L 4281 4097 
L 3078 897 
L 2444 897 
L 1241 4097 
L 1241 0 
L 628 0 
L 628 4666 
z
" id="DejaVuSans-4d" transform="scale(0.015625)"/>
      </defs>
      <use xlink:href="#DejaVuSans-46"/>
      <use x="52.019531" xlink:href="#DejaVuSans-65"/>
      <use x="113.542969" xlink:href="#DejaVuSans-64"/>
      <use x="177.019531" xlink:href="#DejaVuSans-4d"/>
      <use x="263.298828" xlink:href="#DejaVuSans-65"/>
      <use x="324.822266" xlink:href="#DejaVuSans-64"/>
     </g>
    </g>
    <g id="line2d_35">
     <path d="M 375.25 171.858437 
L 395.25 171.858437 
" style="fill:none;stroke:#2ca02c;stroke-linecap:square;stroke-width:1.5;"/>
    </g>
    <g id="line2d_36"/>
    <g id="text_19">
     <!-- FedProx -->
     <g transform="translate(403.25 175.358437)scale(0.1 -0.1)">
      <defs>
       <path d="M 1259 4147 
L 1259 2394 
L 2053 2394 
Q 2494 2394 2734 2622 
Q 2975 2850 2975 3272 
Q 2975 3691 2734 3919 
Q 2494 4147 2053 4147 
L 1259 4147 
z
M 628 4666 
L 2053 4666 
Q 2838 4666 3239 4311 
Q 3641 3956 3641 3272 
Q 3641 2581 3239 2228 
Q 2838 1875 2053 1875 
L 1259 1875 
L 1259 0 
L 628 0 
L 628 4666 
z
" id="DejaVuSans-50" transform="scale(0.015625)"/>
       <path d="M 3513 3500 
L 2247 1797 
L 3578 0 
L 2900 0 
L 1881 1375 
L 863 0 
L 184 0 
L 1544 1831 
L 300 3500 
L 978 3500 
L 1906 2253 
L 2834 3500 
L 3513 3500 
z
" id="DejaVuSans-78" transform="scale(0.015625)"/>
      </defs>
      <use xlink:href="#DejaVuSans-46"/>
      <use x="52.019531" xlink:href="#DejaVuSans-65"/>
      <use x="113.542969" xlink:href="#DejaVuSans-64"/>
      <use x="177.019531" xlink:href="#DejaVuSans-50"/>
      <use x="235.572266" xlink:href="#DejaVuSans-72"/>
      <use x="274.435547" xlink:href="#DejaVuSans-6f"/>
      <use x="332.492188" xlink:href="#DejaVuSans-78"/>
     </g>
    </g>
    <g id="line2d_37">
     <path d="M 375.25 186.536563 
L 395.25 186.536563 
" style="fill:none;stroke:#d62728;stroke-linecap:square;stroke-width:1.5;"/>
    </g>
    <g id="line2d_38"/>
    <g id="text_20">
     <!-- qFedAvg -->
     <g transform="translate(403.25 190.036563)scale(0.1 -0.1)">
      <defs>
       <path d="M 947 1747 
Q 947 1113 1208 752 
Q 1469 391 1925 391 
Q 2381 391 2643 752 
Q 2906 1113 2906 1747 
Q 2906 2381 2643 2742 
Q 2381 3103 1925 3103 
Q 1469 3103 1208 2742 
Q 947 2381 947 1747 
z
M 2906 525 
Q 2725 213 2448 61 
Q 2172 -91 1784 -91 
Q 1150 -91 751 415 
Q 353 922 353 1747 
Q 353 2572 751 3078 
Q 1150 3584 1784 3584 
Q 2172 3584 2448 3432 
Q 2725 3281 2906 2969 
L 2906 3500 
L 3481 3500 
L 3481 -1331 
L 2906 -1331 
L 2906 525 
z
" id="DejaVuSans-71" transform="scale(0.015625)"/>
      </defs>
      <use xlink:href="#DejaVuSans-71"/>
      <use x="63.476562" xlink:href="#DejaVuSans-46"/>
      <use x="115.496094" xlink:href="#DejaVuSans-65"/>
      <use x="177.019531" xlink:href="#DejaVuSans-64"/>
      <use x="240.496094" xlink:href="#DejaVuSans-41"/>
      <use x="303.029297" xlink:href="#DejaVuSans-76"/>
      <use x="362.208984" xlink:href="#DejaVuSans-67"/>
     </g>
    </g>
   </g>
  </g>
 </g>
 <defs>
  <clipPath id="p67d1ca8239">
   <rect height="276.76" width="321.68" x="44.57" y="26.88"/>
  </clipPath>
 </defs>
</svg>
