<?xml version="1.0" encoding="utf-8" standalone="no"?>
<!DOCTYPE svg PUBLIC "-//W3C//DTD SVG 1.1//EN"
  "http://www.w3.org/Graphics/SVG/1.1/DTD/svg11.dtd">
<svg height="345.6pt" version="1.1" viewBox="0 0 460.8 345.6" width="460.8pt" xmlns="http://www.w3.org/2000/svg" xmlns:xlink="http://www.w3.org/1999/xlink">
 <metadata>
  <rdf:RDF xmlns:cc="http://creativecommons.org/ns#" xmlns:dc="http://purl.org/dc/elements/1.1/" xmlns:rdf="http://www.w3.org/1999/02/22-rdf-syntax-ns#">
   <cc:Work>
    <dc:type rdf:resource="http://purl.org/dc/dcmitype/StillImage"/>
    <dc:date>2021-04-27T19:13:12.735456</dc:date>
    <dc:format>image/svg+xml</dc:format>
    <dc:creator>
     <cc:Agent>
      <dc:title>Matplotlib v3.4.1, https://matplotlib.org/</dc:title>
     </cc:Agent>
    </dc:creator>
   </cc:Work>
  </rdf:RDF>
 </metadata>
 <defs>
  <style type="text/css">*{stroke-linecap:butt;stroke-linejoin:round;}</style>
 </defs>
 <g id="figure_1">
  <g id="patch_1">
   <path d="M 0 345.6 
L 460.8 345.6 
L 460.8 0 
L 0 0 
z
" style="fill:#ffffff;"/>
  </g>
  <g id="axes_1">
   <g id="patch_2">
    <path d="M 50.87 303.64 
L 366.25 303.64 
L 366.25 26.88 
L 50.87 26.88 
z
" style="fill:#ffffff;"/>
   </g>
   <g id="PolyCollection_1">
    <path clip-path="url(#p6ffd3910a2)" d="M 65.205455 112.276862 
L 65.205455 135.502584 
L 71.05666 93.665887 
L 76.907866 86.196395 
L 82.759072 77.578571 
L 88.610278 69.185388 
L 94.461484 68.463995 
L 100.31269 64.81874 
L 106.163896 60.159887 
L 112.015102 59.599605 
L 117.866308 56.850808 
L 123.717514 56.296227 
L 129.56872 55.884326 
L 135.419926 52.509291 
L 141.271132 52.877608 
L 147.122338 50.74155 
L 152.973544 50.949077 
L 158.82475 52.091233 
L 164.675955 54.06777 
L 170.527161 51.772373 
L 176.378367 51.748383 
L 182.229573 51.659572 
L 188.080779 49.882245 
L 193.931985 50.375628 
L 199.783191 50.74155 
L 205.634397 52.842544 
L 211.485603 51.600854 
L 217.336809 50.292223 
L 223.188015 51.659572 
L 229.039221 50.292223 
L 234.890427 49.281467 
L 240.741633 48.788084 
L 246.592839 49.743012 
L 252.444045 48.788084 
L 258.29525 49.450061 
L 264.146456 47.365488 
L 269.997662 47.957567 
L 275.848868 46.794484 
L 281.700074 45.807718 
L 287.55128 45.984034 
L 293.402486 47.476528 
L 299.253692 44.676801 
L 305.104898 46.378721 
L 310.956104 44.676801 
L 316.80731 44.898572 
L 322.658516 45.807718 
L 328.509722 46.015245 
L 334.360928 48.221147 
L 340.212134 46.015245 
L 346.06334 47.157401 
L 351.914545 45.490651 
L 351.914545 40.45911 
L 351.914545 40.45911 
L 346.06334 41.752659 
L 340.212134 42.894816 
L 334.360928 41.67568 
L 328.509722 42.894816 
L 322.658516 42.115576 
L 316.80731 40.064423 
L 310.956104 42.259727 
L 305.104898 41.544573 
L 299.253692 42.259727 
L 293.402486 39.46 
L 287.55128 40.952493 
L 281.700074 42.115576 
L 275.848868 43.102343 
L 269.997662 42.926026 
L 264.146456 42.531339 
L 258.29525 41.433533 
L 252.444045 42.095509 
L 246.592839 41.140582 
L 240.741633 42.095509 
L 234.890427 42.588892 
L 229.039221 44.538436 
L 223.188015 43.171087 
L 217.336809 44.538436 
L 211.485603 44.216571 
L 205.634397 44.948413 
L 199.783191 47.049408 
L 193.931985 46.428563 
L 188.080779 45.93518 
L 182.229573 43.171087 
L 176.378367 45.055808 
L 170.527161 46.018585 
L 164.675955 46.683487 
L 158.82475 46.686491 
L 152.973544 47.828647 
L 147.122338 47.049408 
L 141.271132 45.900116 
L 135.419926 46.268433 
L 129.56872 46.840463 
L 123.717514 48.402096 
L 117.866308 48.83428 
L 112.015102 50.03255 
L 106.163896 54.406099 
L 100.31269 55.667845 
L 94.461484 56.956421 
L 88.610278 61.16886 
L 82.759072 66.590406 
L 76.907866 77.70791 
L 71.05666 89.973745 
L 65.205455 112.276862 
z
" style="fill:#1f77b4;fill-opacity:0.5;"/>
   </g>
   <g id="PolyCollection_2">
    <path clip-path="url(#p6ffd3910a2)" d="M 65.205455 124.958975 
L 65.205455 151.436695 
L 71.05666 99.762801 
L 76.907866 89.992142 
L 82.759072 83.141045 
L 88.610278 73.071255 
L 94.461484 71.376316 
L 100.31269 62.745272 
L 106.163896 63.007385 
L 112.015102 62.845207 
L 117.866308 57.282993 
L 123.717514 58.763143 
L 129.56872 57.676693 
L 135.419926 54.195232 
L 141.271132 53.335928 
L 147.122338 52.077549 
L 152.973544 53.415993 
L 158.82475 54.766235 
L 164.675955 54.239288 
L 170.527161 52.349161 
L 176.378367 50.869012 
L 182.229573 51.728316 
L 188.080779 50.74155 
L 193.931985 52.891399 
L 199.783191 52.349161 
L 205.634397 50.949077 
L 211.485603 53.384782 
L 217.336809 51.584166 
L 223.188015 53.335928 
L 229.039221 51.728316 
L 234.890427 52.52109 
L 240.741633 50.949077 
L 246.592839 52.091233 
L 252.444045 50.917866 
L 258.29525 51.312553 
L 264.146456 52.091233 
L 269.997662 51.312553 
L 275.848868 53.154979 
L 281.700074 52.891399 
L 287.55128 50.74155 
L 293.402486 51.312553 
L 299.253692 50.74155 
L 305.104898 51.748383 
L 310.956104 51.772373 
L 316.80731 51.362395 
L 322.658516 50.949077 
L 328.509722 50.949077 
L 334.360928 50.917866 
L 340.212134 50.949077 
L 346.06334 50.74155 
L 351.914545 50.375628 
L 351.914545 46.428563 
L 351.914545 46.428563 
L 346.06334 47.049408 
L 340.212134 47.828647 
L 334.360928 45.886325 
L 328.509722 47.828647 
L 322.658516 47.828647 
L 316.80731 45.441797 
L 310.956104 46.018585 
L 305.104898 45.055808 
L 299.253692 47.049408 
L 293.402486 46.478405 
L 287.55128 47.049408 
L 281.700074 47.859858 
L 275.848868 46.609512 
L 269.997662 46.478405 
L 264.146456 46.686491 
L 258.29525 46.478405 
L 252.444045 45.886325 
L 246.592839 46.686491 
L 240.741633 47.828647 
L 234.890427 45.269868 
L 229.039221 48.036174 
L 223.188015 47.415329 
L 217.336809 49.167091 
L 211.485603 48.353241 
L 205.634397 47.828647 
L 199.783191 48.402096 
L 193.931985 47.859858 
L 188.080779 47.049408 
L 182.229573 48.036174 
L 176.378367 48.895479 
L 170.527161 48.402096 
L 164.675955 48.485501 
L 158.82475 49.932087 
L 152.973544 50.295563 
L 147.122338 49.660475 
L 141.271132 51.362395 
L 135.419926 50.50309 
L 129.56872 48.008396 
L 123.717514 52.842544 
L 117.866308 55.30946 
L 112.015102 53.694312 
L 106.163896 54.5189 
L 100.31269 55.76778 
L 94.461484 57.991166 
L 88.610278 67.150657 
L 82.759072 70.895596 
L 76.907866 79.83276 
L 71.05666 94.73126 
L 65.205455 124.958975 
z
" style="fill:#ff7f0e;fill-opacity:0.5;"/>
   </g>
   <g id="PolyCollection_3">
    <path clip-path="url(#p6ffd3910a2)" d="M 65.205455 113.578113 
L 65.205455 138.148398 
L 71.05666 102.085269 
L 76.907866 87.428222 
L 82.759072 81.262563 
L 88.610278 77.808881 
L 94.461484 75.190647 
L 100.31269 70.011272 
L 106.163896 68.52426 
L 112.015102 62.994316 
L 117.866308 60.159887 
L 123.717514 58.073553 
L 129.56872 57.344191 
L 135.419926 56.682215 
L 141.271132 56.593404 
L 147.122338 57.776376 
L 152.973544 57.344191 
L 158.82475 60.083968 
L 164.675955 59.338009 
L 170.527161 57.344191 
L 176.378367 58.073553 
L 182.229573 57.776376 
L 188.080779 58.860852 
L 193.931985 57.922235 
L 199.783191 57.911375 
L 205.634397 58.860852 
L 211.485603 58.073553 
L 217.336809 57.344191 
L 223.188015 56.850808 
L 229.039221 56.78961 
L 234.890427 57.481212 
L 240.741633 56.682215 
L 246.592839 56.850808 
L 252.444045 56.393936 
L 258.29525 56.593404 
L 264.146456 56.78961 
L 269.997662 56.593404 
L 275.848868 56.536422 
L 281.700074 56.536422 
L 287.55128 56.630286 
L 293.402486 56.129416 
L 299.253692 56.182911 
L 305.104898 56.78961 
L 310.956104 56.393936 
L 316.80731 56.78961 
L 322.658516 56.268731 
L 328.509722 56.182911 
L 334.360928 56.145922 
L 340.212134 56.268731 
L 346.06334 56.145922 
L 351.914545 56.145922 
L 351.914545 46.578867 
L 351.914545 46.578867 
L 346.06334 46.578867 
L 340.212134 47.442825 
L 334.360928 46.578867 
L 328.509722 45.555112 
L 322.658516 47.442825 
L 316.80731 46.921946 
L 310.956104 46.330854 
L 305.104898 46.921946 
L 299.253692 45.555112 
L 293.402486 44.621841 
L 287.55128 46.094504 
L 281.700074 47.175134 
L 275.848868 47.175134 
L 269.997662 48.104919 
L 264.146456 46.921946 
L 258.29525 48.104919 
L 252.444045 46.330854 
L 246.592839 48.83428 
L 240.741633 49.98964 
L 234.890427 46.230344 
L 229.039221 46.921946 
L 223.188015 48.83428 
L 217.336809 49.327664 
L 211.485603 49.585068 
L 205.634397 48.79777 
L 199.783191 48.76048 
L 193.931985 47.762854 
L 188.080779 48.79777 
L 182.229573 49.882245 
L 176.378367 49.585068 
L 170.527161 49.327664 
L 164.675955 50.294146 
L 158.82475 49.548186 
L 152.973544 49.327664 
L 147.122338 49.882245 
L 141.271132 48.104919 
L 135.419926 49.98964 
L 129.56872 49.327664 
L 123.717514 49.585068 
L 117.866308 54.406099 
L 112.015102 51.57167 
L 106.163896 54.922624 
L 100.31269 60.342976 
L 94.461484 65.031265 
L 88.610278 69.320395 
L 82.759072 72.774078 
L 76.907866 82.396681 
L 71.05666 89.448494 
L 65.205455 113.578113 
z
" style="fill:#2ca02c;fill-opacity:0.5;"/>
   </g>
   <g id="PolyCollection_4">
    <path clip-path="url(#p6ffd3910a2)" d="M 65.205455 229.939264 
L 65.205455 291.06 
L 71.05666 134.347643 
L 76.907866 111.364117 
L 82.759072 104.108098 
L 88.610278 98.442943 
L 94.461484 93.695636 
L 100.31269 91.962201 
L 106.163896 88.774685 
L 112.015102 86.980361 
L 117.866308 85.568078 
L 123.717514 83.79789 
L 129.56872 82.968498 
L 135.419926 81.036313 
L 141.271132 79.718333 
L 147.122338 78.966143 
L 152.973544 78.406746 
L 158.82475 77.513784 
L 164.675955 76.586915 
L 170.527161 75.998855 
L 176.378367 75.481639 
L 182.229573 75.082092 
L 188.080779 74.074417 
L 193.931985 73.689524 
L 199.783191 73.183991 
L 205.634397 72.214982 
L 211.485603 71.532494 
L 217.336809 71.809775 
L 223.188015 70.939932 
L 229.039221 70.316639 
L 234.890427 70.540775 
L 240.741633 69.895537 
L 246.592839 69.3763 
L 252.444045 69.073878 
L 258.29525 68.830541 
L 264.146456 68.838826 
L 269.997662 68.742697 
L 275.848868 68.347825 
L 281.700074 67.982333 
L 287.55128 67.634767 
L 293.402486 67.895205 
L 299.253692 67.195876 
L 305.104898 67.195404 
L 310.956104 66.837807 
L 316.80731 66.48639 
L 322.658516 66.283356 
L 328.509722 65.840097 
L 334.360928 65.934152 
L 340.212134 66.287532 
L 346.06334 65.868874 
L 351.914545 65.557203 
L 351.914545 63.174801 
L 351.914545 63.174801 
L 346.06334 63.330858 
L 340.212134 63.535836 
L 334.360928 63.577397 
L 328.509722 63.905316 
L 322.658516 64.241602 
L 316.80731 64.038568 
L 310.956104 63.921015 
L 305.104898 63.875236 
L 299.253692 64.264537 
L 293.402486 64.656571 
L 287.55128 65.072919 
L 281.700074 65.504898 
L 275.848868 65.373269 
L 269.997662 65.757944 
L 264.146456 65.194087 
L 258.29525 65.358281 
L 252.444045 65.816535 
L 246.592839 66.059795 
L 240.741633 66.709876 
L 234.890427 66.532365 
L 229.039221 67.146274 
L 223.188015 68.082071 
L 217.336809 68.381547 
L 211.485603 68.970646 
L 205.634397 69.067703 
L 199.783191 69.345967 
L 193.931985 70.243616 
L 188.080779 71.105996 
L 182.229573 71.657411 
L 176.378367 72.271274 
L 170.527161 72.533603 
L 164.675955 72.880998 
L 158.82475 74.448674 
L 152.973544 75.504575 
L 147.122338 76.192451 
L 141.271132 77.467079 
L 135.419926 78.253871 
L 129.56872 79.28396 
L 123.717514 80.481385 
L 117.866308 81.67347 
L 112.015102 83.145505 
L 106.163896 85.015045 
L 100.31269 86.738665 
L 94.461484 89.214775 
L 88.610278 92.808604 
L 82.759072 98.446859 
L 76.907866 107.249475 
L 71.05666 126.751174 
L 65.205455 229.939264 
z
" style="fill:#d62728;fill-opacity:0.5;"/>
   </g>
   <g id="matplotlib.axis_1">
    <g id="xtick_1">
     <g id="line2d_1">
      <path clip-path="url(#p6ffd3910a2)" d="M 65.205455 303.64 
L 65.205455 26.88 
" style="fill:none;stroke:#b0b0b0;stroke-linecap:square;stroke-width:0.8;"/>
     </g>
     <g id="line2d_2">
      <defs>
       <path d="M 0 0 
L 0 3.5 
" id="mf6c05ffe12" style="stroke:#000000;stroke-width:0.8;"/>
      </defs>
      <g>
       <use style="stroke:#000000;stroke-width:0.8;" x="65.205455" xlink:href="#mf6c05ffe12" y="303.64"/>
      </g>
     </g>
     <g id="text_1">
      <!-- 0 -->
      <g transform="translate(62.024205 318.238437)scale(0.1 -0.1)">
       <defs>
        <path d="M 2034 4250 
Q 1547 4250 1301 3770 
Q 1056 3291 1056 2328 
Q 1056 1369 1301 889 
Q 1547 409 2034 409 
Q 2525 409 2770 889 
Q 3016 1369 3016 2328 
Q 3016 3291 2770 3770 
Q 2525 4250 2034 4250 
z
M 2034 4750 
Q 2819 4750 3233 4129 
Q 3647 3509 3647 2328 
Q 3647 1150 3233 529 
Q 2819 -91 2034 -91 
Q 1250 -91 836 529 
Q 422 1150 422 2328 
Q 422 3509 836 4129 
Q 1250 4750 2034 4750 
z
" id="DejaVuSans-30" transform="scale(0.015625)"/>
       </defs>
       <use xlink:href="#DejaVuSans-30"/>
      </g>
     </g>
    </g>
    <g id="xtick_2">
     <g id="line2d_3">
      <path clip-path="url(#p6ffd3910a2)" d="M 123.717514 303.64 
L 123.717514 26.88 
" style="fill:none;stroke:#b0b0b0;stroke-linecap:square;stroke-width:0.8;"/>
     </g>
     <g id="line2d_4">
      <g>
       <use style="stroke:#000000;stroke-width:0.8;" x="123.717514" xlink:href="#mf6c05ffe12" y="303.64"/>
      </g>
     </g>
     <g id="text_2">
      <!-- 10 -->
      <g transform="translate(117.355014 318.238437)scale(0.1 -0.1)">
       <defs>
        <path d="M 794 531 
L 1825 531 
L 1825 4091 
L 703 3866 
L 703 4441 
L 1819 4666 
L 2450 4666 
L 2450 531 
L 3481 531 
L 3481 0 
L 794 0 
L 794 531 
z
" id="DejaVuSans-31" transform="scale(0.015625)"/>
       </defs>
       <use xlink:href="#DejaVuSans-31"/>
       <use x="63.623047" xlink:href="#DejaVuSans-30"/>
      </g>
     </g>
    </g>
    <g id="xtick_3">
     <g id="line2d_5">
      <path clip-path="url(#p6ffd3910a2)" d="M 182.229573 303.64 
L 182.229573 26.88 
" style="fill:none;stroke:#b0b0b0;stroke-linecap:square;stroke-width:0.8;"/>
     </g>
     <g id="line2d_6">
      <g>
       <use style="stroke:#000000;stroke-width:0.8;" x="182.229573" xlink:href="#mf6c05ffe12" y="303.64"/>
      </g>
     </g>
     <g id="text_3">
      <!-- 20 -->
      <g transform="translate(175.867073 318.238437)scale(0.1 -0.1)">
       <defs>
        <path d="M 1228 531 
L 3431 531 
L 3431 0 
L 469 0 
L 469 531 
Q 828 903 1448 1529 
Q 2069 2156 2228 2338 
Q 2531 2678 2651 2914 
Q 2772 3150 2772 3378 
Q 2772 3750 2511 3984 
Q 2250 4219 1831 4219 
Q 1534 4219 1204 4116 
Q 875 4013 500 3803 
L 500 4441 
Q 881 4594 1212 4672 
Q 1544 4750 1819 4750 
Q 2544 4750 2975 4387 
Q 3406 4025 3406 3419 
Q 3406 3131 3298 2873 
Q 3191 2616 2906 2266 
Q 2828 2175 2409 1742 
Q 1991 1309 1228 531 
z
" id="DejaVuSans-32" transform="scale(0.015625)"/>
       </defs>
       <use xlink:href="#DejaVuSans-32"/>
       <use x="63.623047" xlink:href="#DejaVuSans-30"/>
      </g>
     </g>
    </g>
    <g id="xtick_4">
     <g id="line2d_7">
      <path clip-path="url(#p6ffd3910a2)" d="M 240.741633 303.64 
L 240.741633 26.88 
" style="fill:none;stroke:#b0b0b0;stroke-linecap:square;stroke-width:0.8;"/>
     </g>
     <g id="line2d_8">
      <g>
       <use style="stroke:#000000;stroke-width:0.8;" x="240.741633" xlink:href="#mf6c05ffe12" y="303.64"/>
      </g>
     </g>
     <g id="text_4">
      <!-- 30 -->
      <g transform="translate(234.379133 318.238437)scale(0.1 -0.1)">
       <defs>
        <path d="M 2597 2516 
Q 3050 2419 3304 2112 
Q 3559 1806 3559 1356 
Q 3559 666 3084 287 
Q 2609 -91 1734 -91 
Q 1441 -91 1130 -33 
Q 819 25 488 141 
L 488 750 
Q 750 597 1062 519 
Q 1375 441 1716 441 
Q 2309 441 2620 675 
Q 2931 909 2931 1356 
Q 2931 1769 2642 2001 
Q 2353 2234 1838 2234 
L 1294 2234 
L 1294 2753 
L 1863 2753 
Q 2328 2753 2575 2939 
Q 2822 3125 2822 3475 
Q 2822 3834 2567 4026 
Q 2313 4219 1838 4219 
Q 1578 4219 1281 4162 
Q 984 4106 628 3988 
L 628 4550 
Q 988 4650 1302 4700 
Q 1616 4750 1894 4750 
Q 2613 4750 3031 4423 
Q 3450 4097 3450 3541 
Q 3450 3153 3228 2886 
Q 3006 2619 2597 2516 
z
" id="DejaVuSans-33" transform="scale(0.015625)"/>
       </defs>
       <use xlink:href="#DejaVuSans-33"/>
       <use x="63.623047" xlink:href="#DejaVuSans-30"/>
      </g>
     </g>
    </g>
    <g id="xtick_5">
     <g id="line2d_9">
      <path clip-path="url(#p6ffd3910a2)" d="M 299.253692 303.64 
L 299.253692 26.88 
" style="fill:none;stroke:#b0b0b0;stroke-linecap:square;stroke-width:0.8;"/>
     </g>
     <g id="line2d_10">
      <g>
       <use style="stroke:#000000;stroke-width:0.8;" x="299.253692" xlink:href="#mf6c05ffe12" y="303.64"/>
      </g>
     </g>
     <g id="text_5">
      <!-- 40 -->
      <g transform="translate(292.891192 318.238437)scale(0.1 -0.1)">
       <defs>
        <path d="M 2419 4116 
L 825 1625 
L 2419 1625 
L 2419 4116 
z
M 2253 4666 
L 3047 4666 
L 3047 1625 
L 3713 1625 
L 3713 1100 
L 3047 1100 
L 3047 0 
L 2419 0 
L 2419 1100 
L 313 1100 
L 313 1709 
L 2253 4666 
z
" id="DejaVuSans-34" transform="scale(0.015625)"/>
       </defs>
       <use xlink:href="#DejaVuSans-34"/>
       <use x="63.623047" xlink:href="#DejaVuSans-30"/>
      </g>
     </g>
    </g>
    <g id="xtick_6">
     <g id="line2d_11">
      <path clip-path="url(#p6ffd3910a2)" d="M 357.765751 303.64 
L 357.765751 26.88 
" style="fill:none;stroke:#b0b0b0;stroke-linecap:square;stroke-width:0.8;"/>
     </g>
     <g id="line2d_12">
      <g>
       <use style="stroke:#000000;stroke-width:0.8;" x="357.765751" xlink:href="#mf6c05ffe12" y="303.64"/>
      </g>
     </g>
     <g id="text_6">
      <!-- 50 -->
      <g transform="translate(351.403251 318.238437)scale(0.1 -0.1)">
       <defs>
        <path d="M 691 4666 
L 3169 4666 
L 3169 4134 
L 1269 4134 
L 1269 2991 
Q 1406 3038 1543 3061 
Q 1681 3084 1819 3084 
Q 2600 3084 3056 2656 
Q 3513 2228 3513 1497 
Q 3513 744 3044 326 
Q 2575 -91 1722 -91 
Q 1428 -91 1123 -41 
Q 819 9 494 109 
L 494 744 
Q 775 591 1075 516 
Q 1375 441 1709 441 
Q 2250 441 2565 725 
Q 2881 1009 2881 1497 
Q 2881 1984 2565 2268 
Q 2250 2553 1709 2553 
Q 1456 2553 1204 2497 
Q 953 2441 691 2322 
L 691 4666 
z
" id="DejaVuSans-35" transform="scale(0.015625)"/>
       </defs>
       <use xlink:href="#DejaVuSans-35"/>
       <use x="63.623047" xlink:href="#DejaVuSans-30"/>
      </g>
     </g>
    </g>
    <g id="text_7">
     <!-- Global Communication Rounds -->
     <g transform="translate(131.598281 331.916562)scale(0.1 -0.1)">
      <defs>
       <path d="M 3809 666 
L 3809 1919 
L 2778 1919 
L 2778 2438 
L 4434 2438 
L 4434 434 
Q 4069 175 3628 42 
Q 3188 -91 2688 -91 
Q 1594 -91 976 548 
Q 359 1188 359 2328 
Q 359 3472 976 4111 
Q 1594 4750 2688 4750 
Q 3144 4750 3555 4637 
Q 3966 4525 4313 4306 
L 4313 3634 
Q 3963 3931 3569 4081 
Q 3175 4231 2741 4231 
Q 1884 4231 1454 3753 
Q 1025 3275 1025 2328 
Q 1025 1384 1454 906 
Q 1884 428 2741 428 
Q 3075 428 3337 486 
Q 3600 544 3809 666 
z
" id="DejaVuSans-47" transform="scale(0.015625)"/>
       <path d="M 603 4863 
L 1178 4863 
L 1178 0 
L 603 0 
L 603 4863 
z
" id="DejaVuSans-6c" transform="scale(0.015625)"/>
       <path d="M 1959 3097 
Q 1497 3097 1228 2736 
Q 959 2375 959 1747 
Q 959 1119 1226 758 
Q 1494 397 1959 397 
Q 2419 397 2687 759 
Q 2956 1122 2956 1747 
Q 2956 2369 2687 2733 
Q 2419 3097 1959 3097 
z
M 1959 3584 
Q 2709 3584 3137 3096 
Q 3566 2609 3566 1747 
Q 3566 888 3137 398 
Q 2709 -91 1959 -91 
Q 1206 -91 779 398 
Q 353 888 353 1747 
Q 353 2609 779 3096 
Q 1206 3584 1959 3584 
z
" id="DejaVuSans-6f" transform="scale(0.015625)"/>
       <path d="M 3116 1747 
Q 3116 2381 2855 2742 
Q 2594 3103 2138 3103 
Q 1681 3103 1420 2742 
Q 1159 2381 1159 1747 
Q 1159 1113 1420 752 
Q 1681 391 2138 391 
Q 2594 391 2855 752 
Q 3116 1113 3116 1747 
z
M 1159 2969 
Q 1341 3281 1617 3432 
Q 1894 3584 2278 3584 
Q 2916 3584 3314 3078 
Q 3713 2572 3713 1747 
Q 3713 922 3314 415 
Q 2916 -91 2278 -91 
Q 1894 -91 1617 61 
Q 1341 213 1159 525 
L 1159 0 
L 581 0 
L 581 4863 
L 1159 4863 
L 1159 2969 
z
" id="DejaVuSans-62" transform="scale(0.015625)"/>
       <path d="M 2194 1759 
Q 1497 1759 1228 1600 
Q 959 1441 959 1056 
Q 959 750 1161 570 
Q 1363 391 1709 391 
Q 2188 391 2477 730 
Q 2766 1069 2766 1631 
L 2766 1759 
L 2194 1759 
z
M 3341 1997 
L 3341 0 
L 2766 0 
L 2766 531 
Q 2569 213 2275 61 
Q 1981 -91 1556 -91 
Q 1019 -91 701 211 
Q 384 513 384 1019 
Q 384 1609 779 1909 
Q 1175 2209 1959 2209 
L 2766 2209 
L 2766 2266 
Q 2766 2663 2505 2880 
Q 2244 3097 1772 3097 
Q 1472 3097 1187 3025 
Q 903 2953 641 2809 
L 641 3341 
Q 956 3463 1253 3523 
Q 1550 3584 1831 3584 
Q 2591 3584 2966 3190 
Q 3341 2797 3341 1997 
z
" id="DejaVuSans-61" transform="scale(0.015625)"/>
       <path id="DejaVuSans-20" transform="scale(0.015625)"/>
       <path d="M 4122 4306 
L 4122 3641 
Q 3803 3938 3442 4084 
Q 3081 4231 2675 4231 
Q 1875 4231 1450 3742 
Q 1025 3253 1025 2328 
Q 1025 1406 1450 917 
Q 1875 428 2675 428 
Q 3081 428 3442 575 
Q 3803 722 4122 1019 
L 4122 359 
Q 3791 134 3420 21 
Q 3050 -91 2638 -91 
Q 1578 -91 968 557 
Q 359 1206 359 2328 
Q 359 3453 968 4101 
Q 1578 4750 2638 4750 
Q 3056 4750 3426 4639 
Q 3797 4528 4122 4306 
z
" id="DejaVuSans-43" transform="scale(0.015625)"/>
       <path d="M 3328 2828 
Q 3544 3216 3844 3400 
Q 4144 3584 4550 3584 
Q 5097 3584 5394 3201 
Q 5691 2819 5691 2113 
L 5691 0 
L 5113 0 
L 5113 2094 
Q 5113 2597 4934 2840 
Q 4756 3084 4391 3084 
Q 3944 3084 3684 2787 
Q 3425 2491 3425 1978 
L 3425 0 
L 2847 0 
L 2847 2094 
Q 2847 2600 2669 2842 
Q 2491 3084 2119 3084 
Q 1678 3084 1418 2786 
Q 1159 2488 1159 1978 
L 1159 0 
L 581 0 
L 581 3500 
L 1159 3500 
L 1159 2956 
Q 1356 3278 1631 3431 
Q 1906 3584 2284 3584 
Q 2666 3584 2933 3390 
Q 3200 3197 3328 2828 
z
" id="DejaVuSans-6d" transform="scale(0.015625)"/>
       <path d="M 544 1381 
L 544 3500 
L 1119 3500 
L 1119 1403 
Q 1119 906 1312 657 
Q 1506 409 1894 409 
Q 2359 409 2629 706 
Q 2900 1003 2900 1516 
L 2900 3500 
L 3475 3500 
L 3475 0 
L 2900 0 
L 2900 538 
Q 2691 219 2414 64 
Q 2138 -91 1772 -91 
Q 1169 -91 856 284 
Q 544 659 544 1381 
z
M 1991 3584 
L 1991 3584 
z
" id="DejaVuSans-75" transform="scale(0.015625)"/>
       <path d="M 3513 2113 
L 3513 0 
L 2938 0 
L 2938 2094 
Q 2938 2591 2744 2837 
Q 2550 3084 2163 3084 
Q 1697 3084 1428 2787 
Q 1159 2491 1159 1978 
L 1159 0 
L 581 0 
L 581 3500 
L 1159 3500 
L 1159 2956 
Q 1366 3272 1645 3428 
Q 1925 3584 2291 3584 
Q 2894 3584 3203 3211 
Q 3513 2838 3513 2113 
z
" id="DejaVuSans-6e" transform="scale(0.015625)"/>
       <path d="M 603 3500 
L 1178 3500 
L 1178 0 
L 603 0 
L 603 3500 
z
M 603 4863 
L 1178 4863 
L 1178 4134 
L 603 4134 
L 603 4863 
z
" id="DejaVuSans-69" transform="scale(0.015625)"/>
       <path d="M 3122 3366 
L 3122 2828 
Q 2878 2963 2633 3030 
Q 2388 3097 2138 3097 
Q 1578 3097 1268 2742 
Q 959 2388 959 1747 
Q 959 1106 1268 751 
Q 1578 397 2138 397 
Q 2388 397 2633 464 
Q 2878 531 3122 666 
L 3122 134 
Q 2881 22 2623 -34 
Q 2366 -91 2075 -91 
Q 1284 -91 818 406 
Q 353 903 353 1747 
Q 353 2603 823 3093 
Q 1294 3584 2113 3584 
Q 2378 3584 2631 3529 
Q 2884 3475 3122 3366 
z
" id="DejaVuSans-63" transform="scale(0.015625)"/>
       <path d="M 1172 4494 
L 1172 3500 
L 2356 3500 
L 2356 3053 
L 1172 3053 
L 1172 1153 
Q 1172 725 1289 603 
Q 1406 481 1766 481 
L 2356 481 
L 2356 0 
L 1766 0 
Q 1100 0 847 248 
Q 594 497 594 1153 
L 594 3053 
L 172 3053 
L 172 3500 
L 594 3500 
L 594 4494 
L 1172 4494 
z
" id="DejaVuSans-74" transform="scale(0.015625)"/>
       <path d="M 2841 2188 
Q 3044 2119 3236 1894 
Q 3428 1669 3622 1275 
L 4263 0 
L 3584 0 
L 2988 1197 
Q 2756 1666 2539 1819 
Q 2322 1972 1947 1972 
L 1259 1972 
L 1259 0 
L 628 0 
L 628 4666 
L 2053 4666 
Q 2853 4666 3247 4331 
Q 3641 3997 3641 3322 
Q 3641 2881 3436 2590 
Q 3231 2300 2841 2188 
z
M 1259 4147 
L 1259 2491 
L 2053 2491 
Q 2509 2491 2742 2702 
Q 2975 2913 2975 3322 
Q 2975 3731 2742 3939 
Q 2509 4147 2053 4147 
L 1259 4147 
z
" id="DejaVuSans-52" transform="scale(0.015625)"/>
       <path d="M 2906 2969 
L 2906 4863 
L 3481 4863 
L 3481 0 
L 2906 0 
L 2906 525 
Q 2725 213 2448 61 
Q 2172 -91 1784 -91 
Q 1150 -91 751 415 
Q 353 922 353 1747 
Q 353 2572 751 3078 
Q 1150 3584 1784 3584 
Q 2172 3584 2448 3432 
Q 2725 3281 2906 2969 
z
M 947 1747 
Q 947 1113 1208 752 
Q 1469 391 1925 391 
Q 2381 391 2643 752 
Q 2906 1113 2906 1747 
Q 2906 2381 2643 2742 
Q 2381 3103 1925 3103 
Q 1469 3103 1208 2742 
Q 947 2381 947 1747 
z
" id="DejaVuSans-64" transform="scale(0.015625)"/>
       <path d="M 2834 3397 
L 2834 2853 
Q 2591 2978 2328 3040 
Q 2066 3103 1784 3103 
Q 1356 3103 1142 2972 
Q 928 2841 928 2578 
Q 928 2378 1081 2264 
Q 1234 2150 1697 2047 
L 1894 2003 
Q 2506 1872 2764 1633 
Q 3022 1394 3022 966 
Q 3022 478 2636 193 
Q 2250 -91 1575 -91 
Q 1294 -91 989 -36 
Q 684 19 347 128 
L 347 722 
Q 666 556 975 473 
Q 1284 391 1588 391 
Q 1994 391 2212 530 
Q 2431 669 2431 922 
Q 2431 1156 2273 1281 
Q 2116 1406 1581 1522 
L 1381 1569 
Q 847 1681 609 1914 
Q 372 2147 372 2553 
Q 372 3047 722 3315 
Q 1072 3584 1716 3584 
Q 2034 3584 2315 3537 
Q 2597 3491 2834 3397 
z
" id="DejaVuSans-73" transform="scale(0.015625)"/>
      </defs>
      <use xlink:href="#DejaVuSans-47"/>
      <use x="77.490234" xlink:href="#DejaVuSans-6c"/>
      <use x="105.273438" xlink:href="#DejaVuSans-6f"/>
      <use x="166.455078" xlink:href="#DejaVuSans-62"/>
      <use x="229.931641" xlink:href="#DejaVuSans-61"/>
      <use x="291.210938" xlink:href="#DejaVuSans-6c"/>
      <use x="318.994141" xlink:href="#DejaVuSans-20"/>
      <use x="350.78125" xlink:href="#DejaVuSans-43"/>
      <use x="420.605469" xlink:href="#DejaVuSans-6f"/>
      <use x="481.787109" xlink:href="#DejaVuSans-6d"/>
      <use x="579.199219" xlink:href="#DejaVuSans-6d"/>
      <use x="676.611328" xlink:href="#DejaVuSans-75"/>
      <use x="739.990234" xlink:href="#DejaVuSans-6e"/>
      <use x="803.369141" xlink:href="#DejaVuSans-69"/>
      <use x="831.152344" xlink:href="#DejaVuSans-63"/>
      <use x="886.132812" xlink:href="#DejaVuSans-61"/>
      <use x="947.412109" xlink:href="#DejaVuSans-74"/>
      <use x="986.621094" xlink:href="#DejaVuSans-69"/>
      <use x="1014.404297" xlink:href="#DejaVuSans-6f"/>
      <use x="1075.585938" xlink:href="#DejaVuSans-6e"/>
      <use x="1138.964844" xlink:href="#DejaVuSans-20"/>
      <use x="1170.751953" xlink:href="#DejaVuSans-52"/>
      <use x="1235.734375" xlink:href="#DejaVuSans-6f"/>
      <use x="1296.916016" xlink:href="#DejaVuSans-75"/>
      <use x="1360.294922" xlink:href="#DejaVuSans-6e"/>
      <use x="1423.673828" xlink:href="#DejaVuSans-64"/>
      <use x="1487.150391" xlink:href="#DejaVuSans-73"/>
     </g>
    </g>
   </g>
   <g id="matplotlib.axis_2">
    <g id="ytick_1">
     <g id="line2d_13">
      <path clip-path="url(#p6ffd3910a2)" d="M 50.87 268.450995 
L 366.25 268.450995 
" style="fill:none;stroke:#b0b0b0;stroke-linecap:square;stroke-width:0.8;"/>
     </g>
     <g id="line2d_14">
      <defs>
       <path d="M 0 0 
L -3.5 0 
" id="mb9e64f2cf3" style="stroke:#000000;stroke-width:0.8;"/>
      </defs>
      <g>
       <use style="stroke:#000000;stroke-width:0.8;" x="50.87" xlink:href="#mb9e64f2cf3" y="268.450995"/>
      </g>
     </g>
     <g id="text_8">
      <!-- 88 -->
      <g transform="translate(31.145 272.250214)scale(0.1 -0.1)">
       <defs>
        <path d="M 2034 2216 
Q 1584 2216 1326 1975 
Q 1069 1734 1069 1313 
Q 1069 891 1326 650 
Q 1584 409 2034 409 
Q 2484 409 2743 651 
Q 3003 894 3003 1313 
Q 3003 1734 2745 1975 
Q 2488 2216 2034 2216 
z
M 1403 2484 
Q 997 2584 770 2862 
Q 544 3141 544 3541 
Q 544 4100 942 4425 
Q 1341 4750 2034 4750 
Q 2731 4750 3128 4425 
Q 3525 4100 3525 3541 
Q 3525 3141 3298 2862 
Q 3072 2584 2669 2484 
Q 3125 2378 3379 2068 
Q 3634 1759 3634 1313 
Q 3634 634 3220 271 
Q 2806 -91 2034 -91 
Q 1263 -91 848 271 
Q 434 634 434 1313 
Q 434 1759 690 2068 
Q 947 2378 1403 2484 
z
M 1172 3481 
Q 1172 3119 1398 2916 
Q 1625 2713 2034 2713 
Q 2441 2713 2670 2916 
Q 2900 3119 2900 3481 
Q 2900 3844 2670 4047 
Q 2441 4250 2034 4250 
Q 1625 4250 1398 4047 
Q 1172 3844 1172 3481 
z
" id="DejaVuSans-38" transform="scale(0.015625)"/>
       </defs>
       <use xlink:href="#DejaVuSans-38"/>
       <use x="63.623047" xlink:href="#DejaVuSans-38"/>
      </g>
     </g>
    </g>
    <g id="ytick_2">
     <g id="line2d_15">
      <path clip-path="url(#p6ffd3910a2)" d="M 50.87 229.473724 
L 366.25 229.473724 
" style="fill:none;stroke:#b0b0b0;stroke-linecap:square;stroke-width:0.8;"/>
     </g>
     <g id="line2d_16">
      <g>
       <use style="stroke:#000000;stroke-width:0.8;" x="50.87" xlink:href="#mb9e64f2cf3" y="229.473724"/>
      </g>
     </g>
     <g id="text_9">
      <!-- 90 -->
      <g transform="translate(31.145 233.272942)scale(0.1 -0.1)">
       <defs>
        <path d="M 703 97 
L 703 672 
Q 941 559 1184 500 
Q 1428 441 1663 441 
Q 2288 441 2617 861 
Q 2947 1281 2994 2138 
Q 2813 1869 2534 1725 
Q 2256 1581 1919 1581 
Q 1219 1581 811 2004 
Q 403 2428 403 3163 
Q 403 3881 828 4315 
Q 1253 4750 1959 4750 
Q 2769 4750 3195 4129 
Q 3622 3509 3622 2328 
Q 3622 1225 3098 567 
Q 2575 -91 1691 -91 
Q 1453 -91 1209 -44 
Q 966 3 703 97 
z
M 1959 2075 
Q 2384 2075 2632 2365 
Q 2881 2656 2881 3163 
Q 2881 3666 2632 3958 
Q 2384 4250 1959 4250 
Q 1534 4250 1286 3958 
Q 1038 3666 1038 3163 
Q 1038 2656 1286 2365 
Q 1534 2075 1959 2075 
z
" id="DejaVuSans-39" transform="scale(0.015625)"/>
       </defs>
       <use xlink:href="#DejaVuSans-39"/>
       <use x="63.623047" xlink:href="#DejaVuSans-30"/>
      </g>
     </g>
    </g>
    <g id="ytick_3">
     <g id="line2d_17">
      <path clip-path="url(#p6ffd3910a2)" d="M 50.87 190.496452 
L 366.25 190.496452 
" style="fill:none;stroke:#b0b0b0;stroke-linecap:square;stroke-width:0.8;"/>
     </g>
     <g id="line2d_18">
      <g>
       <use style="stroke:#000000;stroke-width:0.8;" x="50.87" xlink:href="#mb9e64f2cf3" y="190.496452"/>
      </g>
     </g>
     <g id="text_10">
      <!-- 92 -->
      <g transform="translate(31.145 194.295671)scale(0.1 -0.1)">
       <use xlink:href="#DejaVuSans-39"/>
       <use x="63.623047" xlink:href="#DejaVuSans-32"/>
      </g>
     </g>
    </g>
    <g id="ytick_4">
     <g id="line2d_19">
      <path clip-path="url(#p6ffd3910a2)" d="M 50.87 151.519181 
L 366.25 151.519181 
" style="fill:none;stroke:#b0b0b0;stroke-linecap:square;stroke-width:0.8;"/>
     </g>
     <g id="line2d_20">
      <g>
       <use style="stroke:#000000;stroke-width:0.8;" x="50.87" xlink:href="#mb9e64f2cf3" y="151.519181"/>
      </g>
     </g>
     <g id="text_11">
      <!-- 94 -->
      <g transform="translate(31.145 155.3184)scale(0.1 -0.1)">
       <use xlink:href="#DejaVuSans-39"/>
       <use x="63.623047" xlink:href="#DejaVuSans-34"/>
      </g>
     </g>
    </g>
    <g id="ytick_5">
     <g id="line2d_21">
      <path clip-path="url(#p6ffd3910a2)" d="M 50.87 112.541909 
L 366.25 112.541909 
" style="fill:none;stroke:#b0b0b0;stroke-linecap:square;stroke-width:0.8;"/>
     </g>
     <g id="line2d_22">
      <g>
       <use style="stroke:#000000;stroke-width:0.8;" x="50.87" xlink:href="#mb9e64f2cf3" y="112.541909"/>
      </g>
     </g>
     <g id="text_12">
      <!-- 96 -->
      <g transform="translate(31.145 116.341128)scale(0.1 -0.1)">
       <defs>
        <path d="M 2113 2584 
Q 1688 2584 1439 2293 
Q 1191 2003 1191 1497 
Q 1191 994 1439 701 
Q 1688 409 2113 409 
Q 2538 409 2786 701 
Q 3034 994 3034 1497 
Q 3034 2003 2786 2293 
Q 2538 2584 2113 2584 
z
M 3366 4563 
L 3366 3988 
Q 3128 4100 2886 4159 
Q 2644 4219 2406 4219 
Q 1781 4219 1451 3797 
Q 1122 3375 1075 2522 
Q 1259 2794 1537 2939 
Q 1816 3084 2150 3084 
Q 2853 3084 3261 2657 
Q 3669 2231 3669 1497 
Q 3669 778 3244 343 
Q 2819 -91 2113 -91 
Q 1303 -91 875 529 
Q 447 1150 447 2328 
Q 447 3434 972 4092 
Q 1497 4750 2381 4750 
Q 2619 4750 2861 4703 
Q 3103 4656 3366 4563 
z
" id="DejaVuSans-36" transform="scale(0.015625)"/>
       </defs>
       <use xlink:href="#DejaVuSans-39"/>
       <use x="63.623047" xlink:href="#DejaVuSans-36"/>
      </g>
     </g>
    </g>
    <g id="ytick_6">
     <g id="line2d_23">
      <path clip-path="url(#p6ffd3910a2)" d="M 50.87 73.564638 
L 366.25 73.564638 
" style="fill:none;stroke:#b0b0b0;stroke-linecap:square;stroke-width:0.8;"/>
     </g>
     <g id="line2d_24">
      <g>
       <use style="stroke:#000000;stroke-width:0.8;" x="50.87" xlink:href="#mb9e64f2cf3" y="73.564638"/>
      </g>
     </g>
     <g id="text_13">
      <!-- 98 -->
      <g transform="translate(31.145 77.363857)scale(0.1 -0.1)">
       <use xlink:href="#DejaVuSans-39"/>
       <use x="63.623047" xlink:href="#DejaVuSans-38"/>
      </g>
     </g>
    </g>
    <g id="ytick_7">
     <g id="line2d_25">
      <path clip-path="url(#p6ffd3910a2)" d="M 50.87 34.587367 
L 366.25 34.587367 
" style="fill:none;stroke:#b0b0b0;stroke-linecap:square;stroke-width:0.8;"/>
     </g>
     <g id="line2d_26">
      <g>
       <use style="stroke:#000000;stroke-width:0.8;" x="50.87" xlink:href="#mb9e64f2cf3" y="34.587367"/>
      </g>
     </g>
     <g id="text_14">
      <!-- 100 -->
      <g transform="translate(24.7825 38.386585)scale(0.1 -0.1)">
       <use xlink:href="#DejaVuSans-31"/>
       <use x="63.623047" xlink:href="#DejaVuSans-30"/>
       <use x="127.246094" xlink:href="#DejaVuSans-30"/>
      </g>
     </g>
    </g>
    <g id="text_15">
     <!-- Test Accuracy -->
     <g transform="translate(18.702813 199.5225)rotate(-90)scale(0.1 -0.1)">
      <defs>
       <path d="M -19 4666 
L 3928 4666 
L 3928 4134 
L 2272 4134 
L 2272 0 
L 1638 0 
L 1638 4134 
L -19 4134 
L -19 4666 
z
" id="DejaVuSans-54" transform="scale(0.015625)"/>
       <path d="M 3597 1894 
L 3597 1613 
L 953 1613 
Q 991 1019 1311 708 
Q 1631 397 2203 397 
Q 2534 397 2845 478 
Q 3156 559 3463 722 
L 3463 178 
Q 3153 47 2828 -22 
Q 2503 -91 2169 -91 
Q 1331 -91 842 396 
Q 353 884 353 1716 
Q 353 2575 817 3079 
Q 1281 3584 2069 3584 
Q 2775 3584 3186 3129 
Q 3597 2675 3597 1894 
z
M 3022 2063 
Q 3016 2534 2758 2815 
Q 2500 3097 2075 3097 
Q 1594 3097 1305 2825 
Q 1016 2553 972 2059 
L 3022 2063 
z
" id="DejaVuSans-65" transform="scale(0.015625)"/>
       <path d="M 2188 4044 
L 1331 1722 
L 3047 1722 
L 2188 4044 
z
M 1831 4666 
L 2547 4666 
L 4325 0 
L 3669 0 
L 3244 1197 
L 1141 1197 
L 716 0 
L 50 0 
L 1831 4666 
z
" id="DejaVuSans-41" transform="scale(0.015625)"/>
       <path d="M 2631 2963 
Q 2534 3019 2420 3045 
Q 2306 3072 2169 3072 
Q 1681 3072 1420 2755 
Q 1159 2438 1159 1844 
L 1159 0 
L 581 0 
L 581 3500 
L 1159 3500 
L 1159 2956 
Q 1341 3275 1631 3429 
Q 1922 3584 2338 3584 
Q 2397 3584 2469 3576 
Q 2541 3569 2628 3553 
L 2631 2963 
z
" id="DejaVuSans-72" transform="scale(0.015625)"/>
       <path d="M 2059 -325 
Q 1816 -950 1584 -1140 
Q 1353 -1331 966 -1331 
L 506 -1331 
L 506 -850 
L 844 -850 
Q 1081 -850 1212 -737 
Q 1344 -625 1503 -206 
L 1606 56 
L 191 3500 
L 800 3500 
L 1894 763 
L 2988 3500 
L 3597 3500 
L 2059 -325 
z
" id="DejaVuSans-79" transform="scale(0.015625)"/>
      </defs>
      <use xlink:href="#DejaVuSans-54"/>
      <use x="44.083984" xlink:href="#DejaVuSans-65"/>
      <use x="105.607422" xlink:href="#DejaVuSans-73"/>
      <use x="157.707031" xlink:href="#DejaVuSans-74"/>
      <use x="196.916016" xlink:href="#DejaVuSans-20"/>
      <use x="228.703125" xlink:href="#DejaVuSans-41"/>
      <use x="295.361328" xlink:href="#DejaVuSans-63"/>
      <use x="350.341797" xlink:href="#DejaVuSans-63"/>
      <use x="405.322266" xlink:href="#DejaVuSans-75"/>
      <use x="468.701172" xlink:href="#DejaVuSans-72"/>
      <use x="509.814453" xlink:href="#DejaVuSans-61"/>
      <use x="571.09375" xlink:href="#DejaVuSans-63"/>
      <use x="626.074219" xlink:href="#DejaVuSans-79"/>
     </g>
    </g>
   </g>
   <g id="line2d_27">
    <path clip-path="url(#p6ffd3910a2)" d="M 65.205455 123.889723 
L 71.05666 91.819816 
L 76.907866 81.952152 
L 82.759072 72.084489 
L 88.610278 65.177124 
L 94.461484 62.710208 
L 100.31269 60.243292 
L 106.163896 57.282993 
L 112.015102 54.816077 
L 117.866308 52.842544 
L 123.717514 52.349161 
L 129.56872 51.362395 
L 135.419926 49.388862 
L 141.271132 49.388862 
L 147.122338 48.895479 
L 152.973544 49.388862 
L 158.82475 49.388862 
L 164.675955 50.375628 
L 170.527161 48.895479 
L 176.378367 48.402096 
L 182.229573 47.415329 
L 188.080779 47.908713 
L 193.931985 48.402096 
L 199.783191 48.895479 
L 205.634397 48.895479 
L 211.485603 47.908713 
L 217.336809 47.415329 
L 223.188015 47.415329 
L 229.039221 47.415329 
L 234.890427 45.93518 
L 240.741633 45.441797 
L 246.592839 45.441797 
L 252.444045 45.441797 
L 258.29525 45.441797 
L 264.146456 44.948413 
L 269.997662 45.441797 
L 275.848868 44.948413 
L 281.700074 43.961647 
L 287.55128 43.468264 
L 293.402486 43.468264 
L 299.253692 43.468264 
L 305.104898 43.961647 
L 310.956104 43.468264 
L 316.80731 42.481498 
L 322.658516 43.961647 
L 328.509722 44.45503 
L 334.360928 44.948413 
L 340.212134 44.45503 
L 346.06334 44.45503 
L 351.914545 42.974881 
" style="fill:none;stroke:#1f77b4;stroke-linecap:square;stroke-width:1.5;"/>
   </g>
   <g id="line2d_28">
    <path clip-path="url(#p6ffd3910a2)" d="M 65.205455 138.197835 
L 71.05666 97.247031 
L 76.907866 84.912451 
L 82.759072 77.01832 
L 88.610278 70.110956 
L 94.461484 64.683741 
L 100.31269 59.256526 
L 106.163896 58.763143 
L 112.015102 58.269759 
L 117.866308 56.296227 
L 123.717514 55.802843 
L 129.56872 52.842544 
L 135.419926 52.349161 
L 141.271132 52.349161 
L 147.122338 50.869012 
L 152.973544 51.855778 
L 158.82475 52.349161 
L 164.675955 51.362395 
L 170.527161 50.375628 
L 176.378367 49.882245 
L 182.229573 49.882245 
L 188.080779 48.895479 
L 193.931985 50.375628 
L 199.783191 50.375628 
L 205.634397 49.388862 
L 211.485603 50.869012 
L 217.336809 50.375628 
L 223.188015 50.375628 
L 229.039221 49.882245 
L 234.890427 48.895479 
L 240.741633 49.388862 
L 246.592839 49.388862 
L 252.444045 48.402096 
L 258.29525 48.895479 
L 264.146456 49.388862 
L 269.997662 48.895479 
L 275.848868 49.882245 
L 281.700074 50.375628 
L 287.55128 48.895479 
L 293.402486 48.895479 
L 299.253692 48.895479 
L 305.104898 48.402096 
L 310.956104 48.895479 
L 316.80731 48.402096 
L 322.658516 49.388862 
L 328.509722 49.388862 
L 334.360928 48.402096 
L 340.212134 49.388862 
L 346.06334 48.895479 
L 351.914545 48.402096 
" style="fill:none;stroke:#ff7f0e;stroke-linecap:square;stroke-width:1.5;"/>
   </g>
   <g id="line2d_29">
    <path clip-path="url(#p6ffd3910a2)" d="M 65.205455 125.863255 
L 71.05666 95.766881 
L 76.907866 84.912451 
L 82.759072 77.01832 
L 88.610278 73.564638 
L 94.461484 70.110956 
L 100.31269 65.177124 
L 106.163896 61.723442 
L 112.015102 57.282993 
L 117.866308 57.282993 
L 123.717514 53.829311 
L 129.56872 53.335928 
L 135.419926 53.335928 
L 141.271132 52.349161 
L 147.122338 53.829311 
L 152.973544 53.335928 
L 158.82475 54.816077 
L 164.675955 54.816077 
L 170.527161 53.335928 
L 176.378367 53.829311 
L 182.229573 53.829311 
L 188.080779 53.829311 
L 193.931985 52.842544 
L 199.783191 53.335928 
L 205.634397 53.829311 
L 211.485603 53.829311 
L 217.336809 53.335928 
L 223.188015 52.842544 
L 229.039221 51.855778 
L 234.890427 51.855778 
L 240.741633 53.335928 
L 246.592839 52.842544 
L 252.444045 51.362395 
L 258.29525 52.349161 
L 264.146456 51.855778 
L 269.997662 52.349161 
L 275.848868 51.855778 
L 281.700074 51.855778 
L 287.55128 51.362395 
L 293.402486 50.375628 
L 299.253692 50.869012 
L 305.104898 51.855778 
L 310.956104 51.362395 
L 316.80731 51.855778 
L 322.658516 51.855778 
L 328.509722 50.869012 
L 334.360928 51.362395 
L 340.212134 51.855778 
L 346.06334 51.362395 
L 351.914545 51.362395 
" style="fill:none;stroke:#2ca02c;stroke-linecap:square;stroke-width:1.5;"/>
   </g>
   <g id="line2d_30">
    <path clip-path="url(#p6ffd3910a2)" d="M 65.205455 260.499632 
L 71.05666 130.549409 
L 76.907866 109.306796 
L 82.759072 101.277478 
L 88.610278 95.625774 
L 94.461484 91.455206 
L 100.31269 89.350433 
L 106.163896 86.894865 
L 112.015102 85.062933 
L 117.866308 83.620774 
L 123.717514 82.139638 
L 129.56872 81.126229 
L 135.419926 79.645092 
L 141.271132 78.592706 
L 147.122338 77.579297 
L 152.973544 76.955661 
L 158.82475 75.981229 
L 164.675955 74.733956 
L 170.527161 74.266229 
L 176.378367 73.876456 
L 182.229573 73.369752 
L 188.080779 72.590206 
L 193.931985 71.96657 
L 199.783191 71.264979 
L 205.634397 70.641343 
L 211.485603 70.25157 
L 217.336809 70.095661 
L 223.188015 69.511002 
L 229.039221 68.731456 
L 234.890427 68.53657 
L 240.741633 68.302706 
L 246.592839 67.718047 
L 252.444045 67.445206 
L 258.29525 67.094411 
L 264.146456 67.016456 
L 269.997662 67.25032 
L 275.848868 66.860547 
L 281.700074 66.743616 
L 287.55128 66.353843 
L 293.402486 66.275888 
L 299.253692 65.730207 
L 305.104898 65.53532 
L 310.956104 65.379411 
L 316.80731 65.262479 
L 322.658516 65.262479 
L 328.509722 64.872707 
L 334.360928 64.755775 
L 340.212134 64.911684 
L 346.06334 64.599866 
L 351.914545 64.366002 
" style="fill:none;stroke:#d62728;stroke-linecap:square;stroke-width:1.5;"/>
   </g>
   <g id="patch_3">
    <path d="M 50.87 303.64 
L 50.87 26.88 
" style="fill:none;stroke:#000000;stroke-linecap:square;stroke-linejoin:miter;stroke-width:0.8;"/>
   </g>
   <g id="patch_4">
    <path d="M 366.25 303.64 
L 366.25 26.88 
" style="fill:none;stroke:#000000;stroke-linecap:square;stroke-linejoin:miter;stroke-width:0.8;"/>
   </g>
   <g id="patch_5">
    <path d="M 50.87 303.64 
L 366.25 303.64 
" style="fill:none;stroke:#000000;stroke-linecap:square;stroke-linejoin:miter;stroke-width:0.8;"/>
   </g>
   <g id="patch_6">
    <path d="M 50.87 26.88 
L 366.25 26.88 
" style="fill:none;stroke:#000000;stroke-linecap:square;stroke-linejoin:miter;stroke-width:0.8;"/>
   </g>
   <g id="text_16">
    <!-- MNIST Local Rounds 25 -->
    <g transform="translate(138.632812 20.88)scale(0.12 -0.12)">
     <defs>
      <path d="M 628 4666 
L 1569 4666 
L 2759 1491 
L 3956 4666 
L 4897 4666 
L 4897 0 
L 4281 0 
L 4281 4097 
L 3078 897 
L 2444 897 
L 1241 4097 
L 1241 0 
L 628 0 
L 628 4666 
z
" id="DejaVuSans-4d" transform="scale(0.015625)"/>
      <path d="M 628 4666 
L 1478 4666 
L 3547 763 
L 3547 4666 
L 4159 4666 
L 4159 0 
L 3309 0 
L 1241 3903 
L 1241 0 
L 628 0 
L 628 4666 
z
" id="DejaVuSans-4e" transform="scale(0.015625)"/>
      <path d="M 628 4666 
L 1259 4666 
L 1259 0 
L 628 0 
L 628 4666 
z
" id="DejaVuSans-49" transform="scale(0.015625)"/>
      <path d="M 3425 4513 
L 3425 3897 
Q 3066 4069 2747 4153 
Q 2428 4238 2131 4238 
Q 1616 4238 1336 4038 
Q 1056 3838 1056 3469 
Q 1056 3159 1242 3001 
Q 1428 2844 1947 2747 
L 2328 2669 
Q 3034 2534 3370 2195 
Q 3706 1856 3706 1288 
Q 3706 609 3251 259 
Q 2797 -91 1919 -91 
Q 1588 -91 1214 -16 
Q 841 59 441 206 
L 441 856 
Q 825 641 1194 531 
Q 1563 422 1919 422 
Q 2459 422 2753 634 
Q 3047 847 3047 1241 
Q 3047 1584 2836 1778 
Q 2625 1972 2144 2069 
L 1759 2144 
Q 1053 2284 737 2584 
Q 422 2884 422 3419 
Q 422 4038 858 4394 
Q 1294 4750 2059 4750 
Q 2388 4750 2728 4690 
Q 3069 4631 3425 4513 
z
" id="DejaVuSans-53" transform="scale(0.015625)"/>
      <path d="M 628 4666 
L 1259 4666 
L 1259 531 
L 3531 531 
L 3531 0 
L 628 0 
L 628 4666 
z
" id="DejaVuSans-4c" transform="scale(0.015625)"/>
     </defs>
     <use xlink:href="#DejaVuSans-4d"/>
     <use x="86.279297" xlink:href="#DejaVuSans-4e"/>
     <use x="161.083984" xlink:href="#DejaVuSans-49"/>
     <use x="190.576172" xlink:href="#DejaVuSans-53"/>
     <use x="254.052734" xlink:href="#DejaVuSans-54"/>
     <use x="315.136719" xlink:href="#DejaVuSans-20"/>
     <use x="346.923828" xlink:href="#DejaVuSans-4c"/>
     <use x="400.886719" xlink:href="#DejaVuSans-6f"/>
     <use x="462.068359" xlink:href="#DejaVuSans-63"/>
     <use x="517.048828" xlink:href="#DejaVuSans-61"/>
     <use x="578.328125" xlink:href="#DejaVuSans-6c"/>
     <use x="606.111328" xlink:href="#DejaVuSans-20"/>
     <use x="637.898438" xlink:href="#DejaVuSans-52"/>
     <use x="702.880859" xlink:href="#DejaVuSans-6f"/>
     <use x="764.0625" xlink:href="#DejaVuSans-75"/>
     <use x="827.441406" xlink:href="#DejaVuSans-6e"/>
     <use x="890.820312" xlink:href="#DejaVuSans-64"/>
     <use x="954.296875" xlink:href="#DejaVuSans-73"/>
     <use x="1006.396484" xlink:href="#DejaVuSans-20"/>
     <use x="1038.183594" xlink:href="#DejaVuSans-32"/>
     <use x="1101.806641" xlink:href="#DejaVuSans-35"/>
    </g>
   </g>
   <g id="legend_1">
    <g id="patch_7">
     <path d="M 373.25 196.11625 
L 447.821875 196.11625 
Q 449.821875 196.11625 449.821875 194.11625 
L 449.821875 136.40375 
Q 449.821875 134.40375 447.821875 134.40375 
L 373.25 134.40375 
Q 371.25 134.40375 371.25 136.40375 
L 371.25 194.11625 
Q 371.25 196.11625 373.25 196.11625 
z
" style="fill:#ffffff;opacity:0.8;stroke:#cccccc;stroke-linejoin:miter;"/>
    </g>
    <g id="line2d_31">
     <path d="M 375.25 142.502187 
L 395.25 142.502187 
" style="fill:none;stroke:#1f77b4;stroke-linecap:square;stroke-width:1.5;"/>
    </g>
    <g id="line2d_32"/>
    <g id="text_17">
     <!-- FedAvg -->
     <g transform="translate(403.25 146.002187)scale(0.1 -0.1)">
      <defs>
       <path d="M 628 4666 
L 3309 4666 
L 3309 4134 
L 1259 4134 
L 1259 2759 
L 3109 2759 
L 3109 2228 
L 1259 2228 
L 1259 0 
L 628 0 
L 628 4666 
z
" id="DejaVuSans-46" transform="scale(0.015625)"/>
       <path d="M 191 3500 
L 800 3500 
L 1894 563 
L 2988 3500 
L 3597 3500 
L 2284 0 
L 1503 0 
L 191 3500 
z
" id="DejaVuSans-76" transform="scale(0.015625)"/>
       <path d="M 2906 1791 
Q 2906 2416 2648 2759 
Q 2391 3103 1925 3103 
Q 1463 3103 1205 2759 
Q 947 2416 947 1791 
Q 947 1169 1205 825 
Q 1463 481 1925 481 
Q 2391 481 2648 825 
Q 2906 1169 2906 1791 
z
M 3481 434 
Q 3481 -459 3084 -895 
Q 2688 -1331 1869 -1331 
Q 1566 -1331 1297 -1286 
Q 1028 -1241 775 -1147 
L 775 -588 
Q 1028 -725 1275 -790 
Q 1522 -856 1778 -856 
Q 2344 -856 2625 -561 
Q 2906 -266 2906 331 
L 2906 616 
Q 2728 306 2450 153 
Q 2172 0 1784 0 
Q 1141 0 747 490 
Q 353 981 353 1791 
Q 353 2603 747 3093 
Q 1141 3584 1784 3584 
Q 2172 3584 2450 3431 
Q 2728 3278 2906 2969 
L 2906 3500 
L 3481 3500 
L 3481 434 
z
" id="DejaVuSans-67" transform="scale(0.015625)"/>
      </defs>
      <use xlink:href="#DejaVuSans-46"/>
      <use x="52.019531" xlink:href="#DejaVuSans-65"/>
      <use x="113.542969" xlink:href="#DejaVuSans-64"/>
      <use x="177.019531" xlink:href="#DejaVuSans-41"/>
      <use x="239.552734" xlink:href="#DejaVuSans-76"/>
      <use x="298.732422" xlink:href="#DejaVuSans-67"/>
     </g>
    </g>
    <g id="line2d_33">
     <path d="M 375.25 157.180312 
L 395.25 157.180312 
" style="fill:none;stroke:#ff7f0e;stroke-linecap:square;stroke-width:1.5;"/>
    </g>
    <g id="line2d_34"/>
    <g id="text_18">
     <!-- FedMed -->
     <g transform="translate(403.25 160.680312)scale(0.1 -0.1)">
      <use xlink:href="#DejaVuSans-46"/>
      <use x="52.019531" xlink:href="#DejaVuSans-65"/>
      <use x="113.542969" xlink:href="#DejaVuSans-64"/>
      <use x="177.019531" xlink:href="#DejaVuSans-4d"/>
      <use x="263.298828" xlink:href="#DejaVuSans-65"/>
      <use x="324.822266" xlink:href="#DejaVuSans-64"/>
     </g>
    </g>
    <g id="line2d_35">
     <path d="M 375.25 171.858437 
L 395.25 171.858437 
" style="fill:none;stroke:#2ca02c;stroke-linecap:square;stroke-width:1.5;"/>
    </g>
    <g id="line2d_36"/>
    <g id="text_19">
     <!-- FedProx -->
     <g transform="translate(403.25 175.358437)scale(0.1 -0.1)">
      <defs>
       <path d="M 1259 4147 
L 1259 2394 
L 2053 2394 
Q 2494 2394 2734 2622 
Q 2975 2850 2975 3272 
Q 2975 3691 2734 3919 
Q 2494 4147 2053 4147 
L 1259 4147 
z
M 628 4666 
L 2053 4666 
Q 2838 4666 3239 4311 
Q 3641 3956 3641 3272 
Q 3641 2581 3239 2228 
Q 2838 1875 2053 1875 
L 1259 1875 
L 1259 0 
L 628 0 
L 628 4666 
z
" id="DejaVuSans-50" transform="scale(0.015625)"/>
       <path d="M 3513 3500 
L 2247 1797 
L 3578 0 
L 2900 0 
L 1881 1375 
L 863 0 
L 184 0 
L 1544 1831 
L 300 3500 
L 978 3500 
L 1906 2253 
L 2834 3500 
L 3513 3500 
z
" id="DejaVuSans-78" transform="scale(0.015625)"/>
      </defs>
      <use xlink:href="#DejaVuSans-46"/>
      <use x="52.019531" xlink:href="#DejaVuSans-65"/>
      <use x="113.542969" xlink:href="#DejaVuSans-64"/>
      <use x="177.019531" xlink:href="#DejaVuSans-50"/>
      <use x="235.572266" xlink:href="#DejaVuSans-72"/>
      <use x="274.435547" xlink:href="#DejaVuSans-6f"/>
      <use x="332.492188" xlink:href="#DejaVuSans-78"/>
     </g>
    </g>
    <g id="line2d_37">
     <path d="M 375.25 186.536563 
L 395.25 186.536563 
" style="fill:none;stroke:#d62728;stroke-linecap:square;stroke-width:1.5;"/>
    </g>
    <g id="line2d_38"/>
    <g id="text_20">
     <!-- qFedAvg -->
     <g transform="translate(403.25 190.036563)scale(0.1 -0.1)">
      <defs>
       <path d="M 947 1747 
Q 947 1113 1208 752 
Q 1469 391 1925 391 
Q 2381 391 2643 752 
Q 2906 1113 2906 1747 
Q 2906 2381 2643 2742 
Q 2381 3103 1925 3103 
Q 1469 3103 1208 2742 
Q 947 2381 947 1747 
z
M 2906 525 
Q 2725 213 2448 61 
Q 2172 -91 1784 -91 
Q 1150 -91 751 415 
Q 353 922 353 1747 
Q 353 2572 751 3078 
Q 1150 3584 1784 3584 
Q 2172 3584 2448 3432 
Q 2725 3281 2906 2969 
L 2906 3500 
L 3481 3500 
L 3481 -1331 
L 2906 -1331 
L 2906 525 
z
" id="DejaVuSans-71" transform="scale(0.015625)"/>
      </defs>
      <use xlink:href="#DejaVuSans-71"/>
      <use x="63.476562" xlink:href="#DejaVuSans-46"/>
      <use x="115.496094" xlink:href="#DejaVuSans-65"/>
      <use x="177.019531" xlink:href="#DejaVuSans-64"/>
      <use x="240.496094" xlink:href="#DejaVuSans-41"/>
      <use x="303.029297" xlink:href="#DejaVuSans-76"/>
      <use x="362.208984" xlink:href="#DejaVuSans-67"/>
     </g>
    </g>
   </g>
  </g>
 </g>
 <defs>
  <clipPath id="p6ffd3910a2">
   <rect height="276.76" width="315.38" x="50.87" y="26.88"/>
  </clipPath>
 </defs>
</svg>
