<?xml version="1.0" encoding="utf-8" standalone="no"?>
<!DOCTYPE svg PUBLIC "-//W3C//DTD SVG 1.1//EN"
  "http://www.w3.org/Graphics/SVG/1.1/DTD/svg11.dtd">
<svg height="345.6pt" version="1.1" viewBox="0 0 460.8 345.6" width="460.8pt" xmlns="http://www.w3.org/2000/svg" xmlns:xlink="http://www.w3.org/1999/xlink">
 <metadata>
  <rdf:RDF xmlns:cc="http://creativecommons.org/ns#" xmlns:dc="http://purl.org/dc/elements/1.1/" xmlns:rdf="http://www.w3.org/1999/02/22-rdf-syntax-ns#">
   <cc:Work>
    <dc:type rdf:resource="http://purl.org/dc/dcmitype/StillImage"/>
    <dc:date>2021-04-27T19:13:21.619829</dc:date>
    <dc:format>image/svg+xml</dc:format>
    <dc:creator>
     <cc:Agent>
      <dc:title>Matplotlib v3.4.1, https://matplotlib.org/</dc:title>
     </cc:Agent>
    </dc:creator>
   </cc:Work>
  </rdf:RDF>
 </metadata>
 <defs>
  <style type="text/css">*{stroke-linecap:butt;stroke-linejoin:round;}</style>
 </defs>
 <g id="figure_1">
  <g id="patch_1">
   <path d="M 0 345.6 
L 460.8 345.6 
L 460.8 0 
L 0 0 
z
" style="fill:#ffffff;"/>
  </g>
  <g id="axes_1">
   <g id="patch_2">
    <path d="M 44.57 303.64 
L 366.25 303.64 
L 366.25 26.88 
L 44.57 26.88 
z
" style="fill:#ffffff;"/>
   </g>
   <g id="PolyCollection_1">
    <path clip-path="url(#p2548a8fcd2)" d="M 59.191818 275.208552 
L 59.191818 289.248883 
L 65.159907 199.964799 
L 71.127996 173.433763 
L 77.096085 160.685216 
L 83.064174 145.789984 
L 89.032263 133.066862 
L 95.000353 123.723967 
L 100.968442 117.172036 
L 106.936531 107.507789 
L 112.90462 101.46092 
L 118.872709 96.128808 
L 124.840798 93.9128 
L 130.808887 90.04222 
L 136.776976 86.908851 
L 142.745065 85.388263 
L 148.713154 81.749501 
L 154.681243 81.731869 
L 160.649332 76.83821 
L 166.617421 74.57604 
L 172.58551 73.261974 
L 178.553599 71.343501 
L 184.521688 67.415272 
L 190.489777 66.585702 
L 196.457866 66.886754 
L 202.425955 63.756773 
L 208.394045 63.527413 
L 214.362134 61.411743 
L 220.330223 61.210954 
L 226.298312 58.593602 
L 232.266401 58.282646 
L 238.23449 58.106769 
L 244.202579 56.503565 
L 250.170668 57.014999 
L 256.138757 55.316224 
L 262.106846 54.509532 
L 268.074935 56.927933 
L 274.043024 52.497704 
L 280.011113 52.053729 
L 285.979202 51.271058 
L 291.947291 50.05978 
L 297.91538 48.86868 
L 303.883469 49.084847 
L 309.851558 51.301754 
L 315.819647 48.846683 
L 321.787737 51.608017 
L 327.755826 47.972354 
L 333.723915 47.603006 
L 339.692004 48.323767 
L 345.660093 46.830516 
L 351.628182 45.528806 
L 351.628182 39.46 
L 351.628182 39.46 
L 345.660093 41.363746 
L 339.692004 42.738533 
L 333.723915 42.447046 
L 327.755826 39.547074 
L 321.787737 43.165863 
L 315.819647 43.565282 
L 309.851558 45.496624 
L 303.883469 43.15841 
L 297.91538 44.04941 
L 291.947291 44.7141 
L 285.979202 47.551818 
L 280.011113 48.118812 
L 274.043024 48.855795 
L 268.074935 46.618773 
L 262.106846 46.169135 
L 256.138757 49.24273 
L 250.170668 50.918118 
L 244.202579 50.923429 
L 238.23449 50.838598 
L 232.266401 51.674969 
L 226.298312 52.882388 
L 220.330223 54.145323 
L 214.362134 54.281951 
L 208.394045 58.071066 
L 202.425955 56.829458 
L 196.457866 61.797469 
L 190.489777 61.592396 
L 184.521688 64.643114 
L 178.553599 65.270006 
L 172.58551 66.38828 
L 166.617421 66.930004 
L 160.649332 70.741329 
L 154.681243 73.945662 
L 148.713154 71.903532 
L 142.745065 76.194054 
L 136.776976 80.74696 
L 130.808887 83.18096 
L 124.840798 88.083206 
L 118.872709 89.41007 
L 112.90462 96.73107 
L 106.936531 104.518272 
L 100.968442 108.350679 
L 95.000353 117.488608 
L 89.032263 127.71586 
L 83.064174 139.118008 
L 77.096085 152.059624 
L 71.127996 164.279887 
L 65.159907 192.747716 
L 59.191818 275.208552 
z
" style="fill:#1f77b4;fill-opacity:0.5;"/>
   </g>
   <g id="PolyCollection_2">
    <path clip-path="url(#p2548a8fcd2)" d="M 59.191818 284.762587 
L 59.191818 289.142506 
L 65.159907 208.700537 
L 71.127996 176.528358 
L 77.096085 166.868538 
L 83.064174 152.085588 
L 89.032263 141.549681 
L 95.000353 132.984349 
L 100.968442 121.162528 
L 106.936531 120.518785 
L 112.90462 114.470033 
L 118.872709 103.236205 
L 124.840798 102.133391 
L 130.808887 96.188529 
L 136.776976 94.285923 
L 142.745065 87.840685 
L 148.713154 86.009993 
L 154.681243 88.599238 
L 160.649332 87.975299 
L 166.617421 82.059554 
L 172.58551 81.48607 
L 178.553599 79.747765 
L 184.521688 77.195998 
L 190.489777 74.462684 
L 196.457866 73.301484 
L 202.425955 70.315 
L 208.394045 69.333686 
L 214.362134 68.118834 
L 220.330223 71.325252 
L 226.298312 66.855685 
L 232.266401 67.880823 
L 238.23449 64.702772 
L 244.202579 64.235108 
L 250.170668 64.99946 
L 256.138757 61.213842 
L 262.106846 63.004838 
L 268.074935 61.225143 
L 274.043024 60.107191 
L 280.011113 60.489319 
L 285.979202 60.642847 
L 291.947291 59.156906 
L 297.91538 59.911115 
L 303.883469 59.720552 
L 309.851558 58.387209 
L 315.819647 57.114961 
L 321.787737 53.664639 
L 327.755826 53.23568 
L 333.723915 53.166891 
L 339.692004 53.41969 
L 345.660093 53.303419 
L 351.628182 53.042362 
L 351.628182 43.4186 
L 351.628182 43.4186 
L 345.660093 47.206539 
L 339.692004 44.728353 
L 333.723915 45.824693 
L 327.755826 44.912364 
L 321.787737 47.014027 
L 315.819647 47.443994 
L 309.851558 49.208492 
L 303.883469 45.00711 
L 297.91538 47.34717 
L 291.947291 48.776211 
L 285.979202 49.652186 
L 280.011113 47.781215 
L 274.043024 51.031382 
L 268.074935 52.61276 
L 262.106846 51.507899 
L 256.138757 52.286645 
L 250.170668 55.249354 
L 244.202579 54.832749 
L 238.23449 53.352836 
L 232.266401 55.910863 
L 226.298312 57.273417 
L 220.330223 57.696388 
L 214.362134 58.878307 
L 208.394045 62.049868 
L 202.425955 61.574679 
L 196.457866 63.312023 
L 190.489777 67.04336 
L 184.521688 67.178085 
L 178.553599 70.868521 
L 172.58551 70.479881 
L 166.617421 75.13635 
L 160.649332 75.294099 
L 154.681243 80.912363 
L 148.713154 79.62132 
L 142.745065 83.357998 
L 136.776976 82.986254 
L 130.808887 86.482309 
L 124.840798 91.166062 
L 118.872709 95.968035 
L 112.90462 101.267608 
L 106.936531 109.221634 
L 100.968442 116.00105 
L 95.000353 124.592919 
L 89.032263 134.585486 
L 83.064174 144.125851 
L 77.096085 154.649127 
L 71.127996 168.945868 
L 65.159907 200.207962 
L 59.191818 284.762587 
z
" style="fill:#ff7f0e;fill-opacity:0.5;"/>
   </g>
   <g id="PolyCollection_3">
    <path clip-path="url(#p2548a8fcd2)" d="M 59.191818 274.100466 
L 59.191818 282.596393 
L 65.159907 203.213264 
L 71.127996 178.760995 
L 77.096085 163.847921 
L 83.064174 161.533533 
L 89.032263 148.084571 
L 95.000353 135.791228 
L 100.968442 127.776385 
L 106.936531 123.853711 
L 112.90462 115.020383 
L 118.872709 109.920062 
L 124.840798 104.229856 
L 130.808887 101.429044 
L 136.776976 97.212455 
L 142.745065 90.940052 
L 148.713154 90.183109 
L 154.681243 85.675871 
L 160.649332 84.288839 
L 166.617421 85.10132 
L 172.58551 80.915846 
L 178.553599 78.333556 
L 184.521688 74.206257 
L 190.489777 76.11876 
L 196.457866 72.551772 
L 202.425955 70.331252 
L 208.394045 67.356626 
L 214.362134 65.17819 
L 220.330223 70.365021 
L 226.298312 65.417566 
L 232.266401 64.633897 
L 238.23449 64.692091 
L 244.202579 64.268583 
L 250.170668 60.697036 
L 256.138757 62.440114 
L 262.106846 59.651348 
L 268.074935 58.855259 
L 274.043024 58.175807 
L 280.011113 60.021938 
L 285.979202 56.881955 
L 291.947291 54.35385 
L 297.91538 56.307251 
L 303.883469 54.29827 
L 309.851558 54.351333 
L 315.819647 52.770363 
L 321.787737 51.812076 
L 327.755826 51.435936 
L 333.723915 50.294322 
L 339.692004 53.005135 
L 345.660093 50.413485 
L 351.628182 51.030348 
L 351.628182 44.418365 
L 351.628182 44.418365 
L 345.660093 45.541352 
L 339.692004 44.974201 
L 333.723915 44.648266 
L 327.755826 46.712107 
L 321.787737 47.179508 
L 315.819647 48.583136 
L 309.851558 49.195372 
L 303.883469 48.067478 
L 297.91538 52.975532 
L 291.947291 50.879937 
L 285.979202 51.725995 
L 280.011113 51.791468 
L 274.043024 54.818556 
L 268.074935 53.295563 
L 262.106846 51.655933 
L 256.138757 54.940661 
L 250.170668 53.140868 
L 244.202579 58.342146 
L 238.23449 55.050599 
L 232.266401 60.001329 
L 226.298312 58.036704 
L 220.330223 60.006284 
L 214.362134 62.325076 
L 208.394045 63.858219 
L 202.425955 63.245508 
L 196.457866 68.616855 
L 190.489777 67.074366 
L 184.521688 71.517491 
L 178.553599 71.439189 
L 172.58551 72.231062 
L 166.617421 76.312288 
L 160.649332 74.25673 
L 154.681243 81.136399 
L 148.713154 82.702656 
L 142.745065 86.332125 
L 136.776976 86.470632 
L 130.808887 90.858161 
L 124.840798 98.179839 
L 118.872709 102.443415 
L 112.90462 105.441086 
L 106.936531 115.334366 
L 100.968442 122.040307 
L 95.000353 129.884032 
L 89.032263 140.703709 
L 83.064174 151.88614 
L 77.096085 161.212616 
L 71.127996 172.786725 
L 65.159907 196.753702 
L 59.191818 274.100466 
z
" style="fill:#2ca02c;fill-opacity:0.5;"/>
   </g>
   <g id="PolyCollection_4">
    <path clip-path="url(#p2548a8fcd2)" d="M 59.191818 273.28052 
L 59.191818 291.06 
L 65.159907 201.006668 
L 71.127996 181.537205 
L 77.096085 171.093739 
L 83.064174 167.336526 
L 89.032263 162.725556 
L 95.000353 165.507787 
L 100.968442 162.734764 
L 106.936531 162.74872 
L 112.90462 161.08133 
L 118.872709 165.26327 
L 124.840798 161.184764 
L 130.808887 163.318388 
L 136.776976 160.25432 
L 142.745065 159.657713 
L 148.713154 163.33239 
L 154.681243 162.00486 
L 160.649332 166.226153 
L 166.617421 163.811512 
L 172.58551 161.597123 
L 178.553599 161.368573 
L 184.521688 163.802841 
L 190.489777 162.981065 
L 196.457866 161.543598 
L 202.425955 159.891461 
L 208.394045 157.775183 
L 214.362134 159.992607 
L 220.330223 160.604555 
L 226.298312 164.927226 
L 232.266401 161.765479 
L 238.23449 160.776828 
L 244.202579 160.754875 
L 250.170668 161.40167 
L 256.138757 164.252869 
L 262.106846 165.085667 
L 268.074935 164.986057 
L 274.043024 161.280475 
L 280.011113 163.732829 
L 285.979202 163.564651 
L 291.947291 161.019084 
L 297.91538 159.245626 
L 303.883469 160.518541 
L 309.851558 159.884068 
L 315.819647 159.375871 
L 321.787737 162.29285 
L 327.755826 162.319538 
L 333.723915 161.028387 
L 339.692004 159.132759 
L 345.660093 160.706055 
L 351.628182 161.415392 
L 351.628182 146.828651 
L 351.628182 146.828651 
L 345.660093 146.165211 
L 339.692004 144.33988 
L 333.723915 144.789971 
L 327.755826 147.017397 
L 321.787737 145.364764 
L 315.819647 147.442082 
L 309.851558 147.440348 
L 303.883469 146.925826 
L 297.91538 145.133314 
L 291.947291 145.638935 
L 285.979202 146.865176 
L 280.011113 145.324219 
L 274.043024 144.417932 
L 268.074935 145.603705 
L 262.106846 144.611123 
L 256.138757 145.590528 
L 250.170668 143.683651 
L 244.202579 144.583677 
L 238.23449 145.04153 
L 232.266401 145.812167 
L 226.298312 142.077319 
L 220.330223 143.721072 
L 214.362134 146.358868 
L 208.394045 146.910299 
L 202.425955 145.500402 
L 196.457866 146.034049 
L 190.489777 148.928164 
L 184.521688 147.493302 
L 178.553599 149.367796 
L 172.58551 147.446597 
L 166.617421 148.057733 
L 160.649332 149.921363 
L 154.681243 149.131348 
L 148.713154 150.909229 
L 142.745065 153.117832 
L 136.776976 150.988512 
L 130.808887 149.976948 
L 124.840798 148.512025 
L 118.872709 151.084165 
L 112.90462 148.828707 
L 106.936531 149.360428 
L 100.968442 151.66679 
L 95.000353 152.478985 
L 89.032263 155.647727 
L 83.064174 161.552505 
L 77.096085 163.379702 
L 71.127996 169.90271 
L 65.159907 186.312078 
L 59.191818 273.28052 
z
" style="fill:#d62728;fill-opacity:0.5;"/>
   </g>
   <g id="matplotlib.axis_1">
    <g id="xtick_1">
     <g id="line2d_1">
      <path clip-path="url(#p2548a8fcd2)" d="M 59.191818 303.64 
L 59.191818 26.88 
" style="fill:none;stroke:#b0b0b0;stroke-linecap:square;stroke-width:0.8;"/>
     </g>
     <g id="line2d_2">
      <defs>
       <path d="M 0 0 
L 0 3.5 
" id="m8b85805db5" style="stroke:#000000;stroke-width:0.8;"/>
      </defs>
      <g>
       <use style="stroke:#000000;stroke-width:0.8;" x="59.191818" xlink:href="#m8b85805db5" y="303.64"/>
      </g>
     </g>
     <g id="text_1">
      <!-- 0 -->
      <g transform="translate(56.010568 318.238437)scale(0.1 -0.1)">
       <defs>
        <path d="M 2034 4250 
Q 1547 4250 1301 3770 
Q 1056 3291 1056 2328 
Q 1056 1369 1301 889 
Q 1547 409 2034 409 
Q 2525 409 2770 889 
Q 3016 1369 3016 2328 
Q 3016 3291 2770 3770 
Q 2525 4250 2034 4250 
z
M 2034 4750 
Q 2819 4750 3233 4129 
Q 3647 3509 3647 2328 
Q 3647 1150 3233 529 
Q 2819 -91 2034 -91 
Q 1250 -91 836 529 
Q 422 1150 422 2328 
Q 422 3509 836 4129 
Q 1250 4750 2034 4750 
z
" id="DejaVuSans-30" transform="scale(0.015625)"/>
       </defs>
       <use xlink:href="#DejaVuSans-30"/>
      </g>
     </g>
    </g>
    <g id="xtick_2">
     <g id="line2d_3">
      <path clip-path="url(#p2548a8fcd2)" d="M 118.872709 303.64 
L 118.872709 26.88 
" style="fill:none;stroke:#b0b0b0;stroke-linecap:square;stroke-width:0.8;"/>
     </g>
     <g id="line2d_4">
      <g>
       <use style="stroke:#000000;stroke-width:0.8;" x="118.872709" xlink:href="#m8b85805db5" y="303.64"/>
      </g>
     </g>
     <g id="text_2">
      <!-- 10 -->
      <g transform="translate(112.510209 318.238437)scale(0.1 -0.1)">
       <defs>
        <path d="M 794 531 
L 1825 531 
L 1825 4091 
L 703 3866 
L 703 4441 
L 1819 4666 
L 2450 4666 
L 2450 531 
L 3481 531 
L 3481 0 
L 794 0 
L 794 531 
z
" id="DejaVuSans-31" transform="scale(0.015625)"/>
       </defs>
       <use xlink:href="#DejaVuSans-31"/>
       <use x="63.623047" xlink:href="#DejaVuSans-30"/>
      </g>
     </g>
    </g>
    <g id="xtick_3">
     <g id="line2d_5">
      <path clip-path="url(#p2548a8fcd2)" d="M 178.553599 303.64 
L 178.553599 26.88 
" style="fill:none;stroke:#b0b0b0;stroke-linecap:square;stroke-width:0.8;"/>
     </g>
     <g id="line2d_6">
      <g>
       <use style="stroke:#000000;stroke-width:0.8;" x="178.553599" xlink:href="#m8b85805db5" y="303.64"/>
      </g>
     </g>
     <g id="text_3">
      <!-- 20 -->
      <g transform="translate(172.191099 318.238437)scale(0.1 -0.1)">
       <defs>
        <path d="M 1228 531 
L 3431 531 
L 3431 0 
L 469 0 
L 469 531 
Q 828 903 1448 1529 
Q 2069 2156 2228 2338 
Q 2531 2678 2651 2914 
Q 2772 3150 2772 3378 
Q 2772 3750 2511 3984 
Q 2250 4219 1831 4219 
Q 1534 4219 1204 4116 
Q 875 4013 500 3803 
L 500 4441 
Q 881 4594 1212 4672 
Q 1544 4750 1819 4750 
Q 2544 4750 2975 4387 
Q 3406 4025 3406 3419 
Q 3406 3131 3298 2873 
Q 3191 2616 2906 2266 
Q 2828 2175 2409 1742 
Q 1991 1309 1228 531 
z
" id="DejaVuSans-32" transform="scale(0.015625)"/>
       </defs>
       <use xlink:href="#DejaVuSans-32"/>
       <use x="63.623047" xlink:href="#DejaVuSans-30"/>
      </g>
     </g>
    </g>
    <g id="xtick_4">
     <g id="line2d_7">
      <path clip-path="url(#p2548a8fcd2)" d="M 238.23449 303.64 
L 238.23449 26.88 
" style="fill:none;stroke:#b0b0b0;stroke-linecap:square;stroke-width:0.8;"/>
     </g>
     <g id="line2d_8">
      <g>
       <use style="stroke:#000000;stroke-width:0.8;" x="238.23449" xlink:href="#m8b85805db5" y="303.64"/>
      </g>
     </g>
     <g id="text_4">
      <!-- 30 -->
      <g transform="translate(231.87199 318.238437)scale(0.1 -0.1)">
       <defs>
        <path d="M 2597 2516 
Q 3050 2419 3304 2112 
Q 3559 1806 3559 1356 
Q 3559 666 3084 287 
Q 2609 -91 1734 -91 
Q 1441 -91 1130 -33 
Q 819 25 488 141 
L 488 750 
Q 750 597 1062 519 
Q 1375 441 1716 441 
Q 2309 441 2620 675 
Q 2931 909 2931 1356 
Q 2931 1769 2642 2001 
Q 2353 2234 1838 2234 
L 1294 2234 
L 1294 2753 
L 1863 2753 
Q 2328 2753 2575 2939 
Q 2822 3125 2822 3475 
Q 2822 3834 2567 4026 
Q 2313 4219 1838 4219 
Q 1578 4219 1281 4162 
Q 984 4106 628 3988 
L 628 4550 
Q 988 4650 1302 4700 
Q 1616 4750 1894 4750 
Q 2613 4750 3031 4423 
Q 3450 4097 3450 3541 
Q 3450 3153 3228 2886 
Q 3006 2619 2597 2516 
z
" id="DejaVuSans-33" transform="scale(0.015625)"/>
       </defs>
       <use xlink:href="#DejaVuSans-33"/>
       <use x="63.623047" xlink:href="#DejaVuSans-30"/>
      </g>
     </g>
    </g>
    <g id="xtick_5">
     <g id="line2d_9">
      <path clip-path="url(#p2548a8fcd2)" d="M 297.91538 303.64 
L 297.91538 26.88 
" style="fill:none;stroke:#b0b0b0;stroke-linecap:square;stroke-width:0.8;"/>
     </g>
     <g id="line2d_10">
      <g>
       <use style="stroke:#000000;stroke-width:0.8;" x="297.91538" xlink:href="#m8b85805db5" y="303.64"/>
      </g>
     </g>
     <g id="text_5">
      <!-- 40 -->
      <g transform="translate(291.55288 318.238437)scale(0.1 -0.1)">
       <defs>
        <path d="M 2419 4116 
L 825 1625 
L 2419 1625 
L 2419 4116 
z
M 2253 4666 
L 3047 4666 
L 3047 1625 
L 3713 1625 
L 3713 1100 
L 3047 1100 
L 3047 0 
L 2419 0 
L 2419 1100 
L 313 1100 
L 313 1709 
L 2253 4666 
z
" id="DejaVuSans-34" transform="scale(0.015625)"/>
       </defs>
       <use xlink:href="#DejaVuSans-34"/>
       <use x="63.623047" xlink:href="#DejaVuSans-30"/>
      </g>
     </g>
    </g>
    <g id="xtick_6">
     <g id="line2d_11">
      <path clip-path="url(#p2548a8fcd2)" d="M 357.596271 303.64 
L 357.596271 26.88 
" style="fill:none;stroke:#b0b0b0;stroke-linecap:square;stroke-width:0.8;"/>
     </g>
     <g id="line2d_12">
      <g>
       <use style="stroke:#000000;stroke-width:0.8;" x="357.596271" xlink:href="#m8b85805db5" y="303.64"/>
      </g>
     </g>
     <g id="text_6">
      <!-- 50 -->
      <g transform="translate(351.233771 318.238437)scale(0.1 -0.1)">
       <defs>
        <path d="M 691 4666 
L 3169 4666 
L 3169 4134 
L 1269 4134 
L 1269 2991 
Q 1406 3038 1543 3061 
Q 1681 3084 1819 3084 
Q 2600 3084 3056 2656 
Q 3513 2228 3513 1497 
Q 3513 744 3044 326 
Q 2575 -91 1722 -91 
Q 1428 -91 1123 -41 
Q 819 9 494 109 
L 494 744 
Q 775 591 1075 516 
Q 1375 441 1709 441 
Q 2250 441 2565 725 
Q 2881 1009 2881 1497 
Q 2881 1984 2565 2268 
Q 2250 2553 1709 2553 
Q 1456 2553 1204 2497 
Q 953 2441 691 2322 
L 691 4666 
z
" id="DejaVuSans-35" transform="scale(0.015625)"/>
       </defs>
       <use xlink:href="#DejaVuSans-35"/>
       <use x="63.623047" xlink:href="#DejaVuSans-30"/>
      </g>
     </g>
    </g>
    <g id="text_7">
     <!-- Global Communication Rounds -->
     <g transform="translate(128.448281 331.916562)scale(0.1 -0.1)">
      <defs>
       <path d="M 3809 666 
L 3809 1919 
L 2778 1919 
L 2778 2438 
L 4434 2438 
L 4434 434 
Q 4069 175 3628 42 
Q 3188 -91 2688 -91 
Q 1594 -91 976 548 
Q 359 1188 359 2328 
Q 359 3472 976 4111 
Q 1594 4750 2688 4750 
Q 3144 4750 3555 4637 
Q 3966 4525 4313 4306 
L 4313 3634 
Q 3963 3931 3569 4081 
Q 3175 4231 2741 4231 
Q 1884 4231 1454 3753 
Q 1025 3275 1025 2328 
Q 1025 1384 1454 906 
Q 1884 428 2741 428 
Q 3075 428 3337 486 
Q 3600 544 3809 666 
z
" id="DejaVuSans-47" transform="scale(0.015625)"/>
       <path d="M 603 4863 
L 1178 4863 
L 1178 0 
L 603 0 
L 603 4863 
z
" id="DejaVuSans-6c" transform="scale(0.015625)"/>
       <path d="M 1959 3097 
Q 1497 3097 1228 2736 
Q 959 2375 959 1747 
Q 959 1119 1226 758 
Q 1494 397 1959 397 
Q 2419 397 2687 759 
Q 2956 1122 2956 1747 
Q 2956 2369 2687 2733 
Q 2419 3097 1959 3097 
z
M 1959 3584 
Q 2709 3584 3137 3096 
Q 3566 2609 3566 1747 
Q 3566 888 3137 398 
Q 2709 -91 1959 -91 
Q 1206 -91 779 398 
Q 353 888 353 1747 
Q 353 2609 779 3096 
Q 1206 3584 1959 3584 
z
" id="DejaVuSans-6f" transform="scale(0.015625)"/>
       <path d="M 3116 1747 
Q 3116 2381 2855 2742 
Q 2594 3103 2138 3103 
Q 1681 3103 1420 2742 
Q 1159 2381 1159 1747 
Q 1159 1113 1420 752 
Q 1681 391 2138 391 
Q 2594 391 2855 752 
Q 3116 1113 3116 1747 
z
M 1159 2969 
Q 1341 3281 1617 3432 
Q 1894 3584 2278 3584 
Q 2916 3584 3314 3078 
Q 3713 2572 3713 1747 
Q 3713 922 3314 415 
Q 2916 -91 2278 -91 
Q 1894 -91 1617 61 
Q 1341 213 1159 525 
L 1159 0 
L 581 0 
L 581 4863 
L 1159 4863 
L 1159 2969 
z
" id="DejaVuSans-62" transform="scale(0.015625)"/>
       <path d="M 2194 1759 
Q 1497 1759 1228 1600 
Q 959 1441 959 1056 
Q 959 750 1161 570 
Q 1363 391 1709 391 
Q 2188 391 2477 730 
Q 2766 1069 2766 1631 
L 2766 1759 
L 2194 1759 
z
M 3341 1997 
L 3341 0 
L 2766 0 
L 2766 531 
Q 2569 213 2275 61 
Q 1981 -91 1556 -91 
Q 1019 -91 701 211 
Q 384 513 384 1019 
Q 384 1609 779 1909 
Q 1175 2209 1959 2209 
L 2766 2209 
L 2766 2266 
Q 2766 2663 2505 2880 
Q 2244 3097 1772 3097 
Q 1472 3097 1187 3025 
Q 903 2953 641 2809 
L 641 3341 
Q 956 3463 1253 3523 
Q 1550 3584 1831 3584 
Q 2591 3584 2966 3190 
Q 3341 2797 3341 1997 
z
" id="DejaVuSans-61" transform="scale(0.015625)"/>
       <path id="DejaVuSans-20" transform="scale(0.015625)"/>
       <path d="M 4122 4306 
L 4122 3641 
Q 3803 3938 3442 4084 
Q 3081 4231 2675 4231 
Q 1875 4231 1450 3742 
Q 1025 3253 1025 2328 
Q 1025 1406 1450 917 
Q 1875 428 2675 428 
Q 3081 428 3442 575 
Q 3803 722 4122 1019 
L 4122 359 
Q 3791 134 3420 21 
Q 3050 -91 2638 -91 
Q 1578 -91 968 557 
Q 359 1206 359 2328 
Q 359 3453 968 4101 
Q 1578 4750 2638 4750 
Q 3056 4750 3426 4639 
Q 3797 4528 4122 4306 
z
" id="DejaVuSans-43" transform="scale(0.015625)"/>
       <path d="M 3328 2828 
Q 3544 3216 3844 3400 
Q 4144 3584 4550 3584 
Q 5097 3584 5394 3201 
Q 5691 2819 5691 2113 
L 5691 0 
L 5113 0 
L 5113 2094 
Q 5113 2597 4934 2840 
Q 4756 3084 4391 3084 
Q 3944 3084 3684 2787 
Q 3425 2491 3425 1978 
L 3425 0 
L 2847 0 
L 2847 2094 
Q 2847 2600 2669 2842 
Q 2491 3084 2119 3084 
Q 1678 3084 1418 2786 
Q 1159 2488 1159 1978 
L 1159 0 
L 581 0 
L 581 3500 
L 1159 3500 
L 1159 2956 
Q 1356 3278 1631 3431 
Q 1906 3584 2284 3584 
Q 2666 3584 2933 3390 
Q 3200 3197 3328 2828 
z
" id="DejaVuSans-6d" transform="scale(0.015625)"/>
       <path d="M 544 1381 
L 544 3500 
L 1119 3500 
L 1119 1403 
Q 1119 906 1312 657 
Q 1506 409 1894 409 
Q 2359 409 2629 706 
Q 2900 1003 2900 1516 
L 2900 3500 
L 3475 3500 
L 3475 0 
L 2900 0 
L 2900 538 
Q 2691 219 2414 64 
Q 2138 -91 1772 -91 
Q 1169 -91 856 284 
Q 544 659 544 1381 
z
M 1991 3584 
L 1991 3584 
z
" id="DejaVuSans-75" transform="scale(0.015625)"/>
       <path d="M 3513 2113 
L 3513 0 
L 2938 0 
L 2938 2094 
Q 2938 2591 2744 2837 
Q 2550 3084 2163 3084 
Q 1697 3084 1428 2787 
Q 1159 2491 1159 1978 
L 1159 0 
L 581 0 
L 581 3500 
L 1159 3500 
L 1159 2956 
Q 1366 3272 1645 3428 
Q 1925 3584 2291 3584 
Q 2894 3584 3203 3211 
Q 3513 2838 3513 2113 
z
" id="DejaVuSans-6e" transform="scale(0.015625)"/>
       <path d="M 603 3500 
L 1178 3500 
L 1178 0 
L 603 0 
L 603 3500 
z
M 603 4863 
L 1178 4863 
L 1178 4134 
L 603 4134 
L 603 4863 
z
" id="DejaVuSans-69" transform="scale(0.015625)"/>
       <path d="M 3122 3366 
L 3122 2828 
Q 2878 2963 2633 3030 
Q 2388 3097 2138 3097 
Q 1578 3097 1268 2742 
Q 959 2388 959 1747 
Q 959 1106 1268 751 
Q 1578 397 2138 397 
Q 2388 397 2633 464 
Q 2878 531 3122 666 
L 3122 134 
Q 2881 22 2623 -34 
Q 2366 -91 2075 -91 
Q 1284 -91 818 406 
Q 353 903 353 1747 
Q 353 2603 823 3093 
Q 1294 3584 2113 3584 
Q 2378 3584 2631 3529 
Q 2884 3475 3122 3366 
z
" id="DejaVuSans-63" transform="scale(0.015625)"/>
       <path d="M 1172 4494 
L 1172 3500 
L 2356 3500 
L 2356 3053 
L 1172 3053 
L 1172 1153 
Q 1172 725 1289 603 
Q 1406 481 1766 481 
L 2356 481 
L 2356 0 
L 1766 0 
Q 1100 0 847 248 
Q 594 497 594 1153 
L 594 3053 
L 172 3053 
L 172 3500 
L 594 3500 
L 594 4494 
L 1172 4494 
z
" id="DejaVuSans-74" transform="scale(0.015625)"/>
       <path d="M 2841 2188 
Q 3044 2119 3236 1894 
Q 3428 1669 3622 1275 
L 4263 0 
L 3584 0 
L 2988 1197 
Q 2756 1666 2539 1819 
Q 2322 1972 1947 1972 
L 1259 1972 
L 1259 0 
L 628 0 
L 628 4666 
L 2053 4666 
Q 2853 4666 3247 4331 
Q 3641 3997 3641 3322 
Q 3641 2881 3436 2590 
Q 3231 2300 2841 2188 
z
M 1259 4147 
L 1259 2491 
L 2053 2491 
Q 2509 2491 2742 2702 
Q 2975 2913 2975 3322 
Q 2975 3731 2742 3939 
Q 2509 4147 2053 4147 
L 1259 4147 
z
" id="DejaVuSans-52" transform="scale(0.015625)"/>
       <path d="M 2906 2969 
L 2906 4863 
L 3481 4863 
L 3481 0 
L 2906 0 
L 2906 525 
Q 2725 213 2448 61 
Q 2172 -91 1784 -91 
Q 1150 -91 751 415 
Q 353 922 353 1747 
Q 353 2572 751 3078 
Q 1150 3584 1784 3584 
Q 2172 3584 2448 3432 
Q 2725 3281 2906 2969 
z
M 947 1747 
Q 947 1113 1208 752 
Q 1469 391 1925 391 
Q 2381 391 2643 752 
Q 2906 1113 2906 1747 
Q 2906 2381 2643 2742 
Q 2381 3103 1925 3103 
Q 1469 3103 1208 2742 
Q 947 2381 947 1747 
z
" id="DejaVuSans-64" transform="scale(0.015625)"/>
       <path d="M 2834 3397 
L 2834 2853 
Q 2591 2978 2328 3040 
Q 2066 3103 1784 3103 
Q 1356 3103 1142 2972 
Q 928 2841 928 2578 
Q 928 2378 1081 2264 
Q 1234 2150 1697 2047 
L 1894 2003 
Q 2506 1872 2764 1633 
Q 3022 1394 3022 966 
Q 3022 478 2636 193 
Q 2250 -91 1575 -91 
Q 1294 -91 989 -36 
Q 684 19 347 128 
L 347 722 
Q 666 556 975 473 
Q 1284 391 1588 391 
Q 1994 391 2212 530 
Q 2431 669 2431 922 
Q 2431 1156 2273 1281 
Q 2116 1406 1581 1522 
L 1381 1569 
Q 847 1681 609 1914 
Q 372 2147 372 2553 
Q 372 3047 722 3315 
Q 1072 3584 1716 3584 
Q 2034 3584 2315 3537 
Q 2597 3491 2834 3397 
z
" id="DejaVuSans-73" transform="scale(0.015625)"/>
      </defs>
      <use xlink:href="#DejaVuSans-47"/>
      <use x="77.490234" xlink:href="#DejaVuSans-6c"/>
      <use x="105.273438" xlink:href="#DejaVuSans-6f"/>
      <use x="166.455078" xlink:href="#DejaVuSans-62"/>
      <use x="229.931641" xlink:href="#DejaVuSans-61"/>
      <use x="291.210938" xlink:href="#DejaVuSans-6c"/>
      <use x="318.994141" xlink:href="#DejaVuSans-20"/>
      <use x="350.78125" xlink:href="#DejaVuSans-43"/>
      <use x="420.605469" xlink:href="#DejaVuSans-6f"/>
      <use x="481.787109" xlink:href="#DejaVuSans-6d"/>
      <use x="579.199219" xlink:href="#DejaVuSans-6d"/>
      <use x="676.611328" xlink:href="#DejaVuSans-75"/>
      <use x="739.990234" xlink:href="#DejaVuSans-6e"/>
      <use x="803.369141" xlink:href="#DejaVuSans-69"/>
      <use x="831.152344" xlink:href="#DejaVuSans-63"/>
      <use x="886.132812" xlink:href="#DejaVuSans-61"/>
      <use x="947.412109" xlink:href="#DejaVuSans-74"/>
      <use x="986.621094" xlink:href="#DejaVuSans-69"/>
      <use x="1014.404297" xlink:href="#DejaVuSans-6f"/>
      <use x="1075.585938" xlink:href="#DejaVuSans-6e"/>
      <use x="1138.964844" xlink:href="#DejaVuSans-20"/>
      <use x="1170.751953" xlink:href="#DejaVuSans-52"/>
      <use x="1235.734375" xlink:href="#DejaVuSans-6f"/>
      <use x="1296.916016" xlink:href="#DejaVuSans-75"/>
      <use x="1360.294922" xlink:href="#DejaVuSans-6e"/>
      <use x="1423.673828" xlink:href="#DejaVuSans-64"/>
      <use x="1487.150391" xlink:href="#DejaVuSans-73"/>
     </g>
    </g>
   </g>
   <g id="matplotlib.axis_2">
    <g id="ytick_1">
     <g id="line2d_13">
      <path clip-path="url(#p2548a8fcd2)" d="M 44.57 286.61513 
L 366.25 286.61513 
" style="fill:none;stroke:#b0b0b0;stroke-linecap:square;stroke-width:0.8;"/>
     </g>
     <g id="line2d_14">
      <defs>
       <path d="M 0 0 
L -3.5 0 
" id="mc0c9f1d934" style="stroke:#000000;stroke-width:0.8;"/>
      </defs>
      <g>
       <use style="stroke:#000000;stroke-width:0.8;" x="44.57" xlink:href="#mc0c9f1d934" y="286.61513"/>
      </g>
     </g>
     <g id="text_8">
      <!-- 10 -->
      <g transform="translate(24.845 290.414349)scale(0.1 -0.1)">
       <use xlink:href="#DejaVuSans-31"/>
       <use x="63.623047" xlink:href="#DejaVuSans-30"/>
      </g>
     </g>
    </g>
    <g id="ytick_2">
     <g id="line2d_15">
      <path clip-path="url(#p2548a8fcd2)" d="M 44.57 253.295266 
L 366.25 253.295266 
" style="fill:none;stroke:#b0b0b0;stroke-linecap:square;stroke-width:0.8;"/>
     </g>
     <g id="line2d_16">
      <g>
       <use style="stroke:#000000;stroke-width:0.8;" x="44.57" xlink:href="#mc0c9f1d934" y="253.295266"/>
      </g>
     </g>
     <g id="text_9">
      <!-- 20 -->
      <g transform="translate(24.845 257.094485)scale(0.1 -0.1)">
       <use xlink:href="#DejaVuSans-32"/>
       <use x="63.623047" xlink:href="#DejaVuSans-30"/>
      </g>
     </g>
    </g>
    <g id="ytick_3">
     <g id="line2d_17">
      <path clip-path="url(#p2548a8fcd2)" d="M 44.57 219.975402 
L 366.25 219.975402 
" style="fill:none;stroke:#b0b0b0;stroke-linecap:square;stroke-width:0.8;"/>
     </g>
     <g id="line2d_18">
      <g>
       <use style="stroke:#000000;stroke-width:0.8;" x="44.57" xlink:href="#mc0c9f1d934" y="219.975402"/>
      </g>
     </g>
     <g id="text_10">
      <!-- 30 -->
      <g transform="translate(24.845 223.77462)scale(0.1 -0.1)">
       <use xlink:href="#DejaVuSans-33"/>
       <use x="63.623047" xlink:href="#DejaVuSans-30"/>
      </g>
     </g>
    </g>
    <g id="ytick_4">
     <g id="line2d_19">
      <path clip-path="url(#p2548a8fcd2)" d="M 44.57 186.655537 
L 366.25 186.655537 
" style="fill:none;stroke:#b0b0b0;stroke-linecap:square;stroke-width:0.8;"/>
     </g>
     <g id="line2d_20">
      <g>
       <use style="stroke:#000000;stroke-width:0.8;" x="44.57" xlink:href="#mc0c9f1d934" y="186.655537"/>
      </g>
     </g>
     <g id="text_11">
      <!-- 40 -->
      <g transform="translate(24.845 190.454756)scale(0.1 -0.1)">
       <use xlink:href="#DejaVuSans-34"/>
       <use x="63.623047" xlink:href="#DejaVuSans-30"/>
      </g>
     </g>
    </g>
    <g id="ytick_5">
     <g id="line2d_21">
      <path clip-path="url(#p2548a8fcd2)" d="M 44.57 153.335673 
L 366.25 153.335673 
" style="fill:none;stroke:#b0b0b0;stroke-linecap:square;stroke-width:0.8;"/>
     </g>
     <g id="line2d_22">
      <g>
       <use style="stroke:#000000;stroke-width:0.8;" x="44.57" xlink:href="#mc0c9f1d934" y="153.335673"/>
      </g>
     </g>
     <g id="text_12">
      <!-- 50 -->
      <g transform="translate(24.845 157.134892)scale(0.1 -0.1)">
       <use xlink:href="#DejaVuSans-35"/>
       <use x="63.623047" xlink:href="#DejaVuSans-30"/>
      </g>
     </g>
    </g>
    <g id="ytick_6">
     <g id="line2d_23">
      <path clip-path="url(#p2548a8fcd2)" d="M 44.57 120.015809 
L 366.25 120.015809 
" style="fill:none;stroke:#b0b0b0;stroke-linecap:square;stroke-width:0.8;"/>
     </g>
     <g id="line2d_24">
      <g>
       <use style="stroke:#000000;stroke-width:0.8;" x="44.57" xlink:href="#mc0c9f1d934" y="120.015809"/>
      </g>
     </g>
     <g id="text_13">
      <!-- 60 -->
      <g transform="translate(24.845 123.815028)scale(0.1 -0.1)">
       <defs>
        <path d="M 2113 2584 
Q 1688 2584 1439 2293 
Q 1191 2003 1191 1497 
Q 1191 994 1439 701 
Q 1688 409 2113 409 
Q 2538 409 2786 701 
Q 3034 994 3034 1497 
Q 3034 2003 2786 2293 
Q 2538 2584 2113 2584 
z
M 3366 4563 
L 3366 3988 
Q 3128 4100 2886 4159 
Q 2644 4219 2406 4219 
Q 1781 4219 1451 3797 
Q 1122 3375 1075 2522 
Q 1259 2794 1537 2939 
Q 1816 3084 2150 3084 
Q 2853 3084 3261 2657 
Q 3669 2231 3669 1497 
Q 3669 778 3244 343 
Q 2819 -91 2113 -91 
Q 1303 -91 875 529 
Q 447 1150 447 2328 
Q 447 3434 972 4092 
Q 1497 4750 2381 4750 
Q 2619 4750 2861 4703 
Q 3103 4656 3366 4563 
z
" id="DejaVuSans-36" transform="scale(0.015625)"/>
       </defs>
       <use xlink:href="#DejaVuSans-36"/>
       <use x="63.623047" xlink:href="#DejaVuSans-30"/>
      </g>
     </g>
    </g>
    <g id="ytick_7">
     <g id="line2d_25">
      <path clip-path="url(#p2548a8fcd2)" d="M 44.57 86.695945 
L 366.25 86.695945 
" style="fill:none;stroke:#b0b0b0;stroke-linecap:square;stroke-width:0.8;"/>
     </g>
     <g id="line2d_26">
      <g>
       <use style="stroke:#000000;stroke-width:0.8;" x="44.57" xlink:href="#mc0c9f1d934" y="86.695945"/>
      </g>
     </g>
     <g id="text_14">
      <!-- 70 -->
      <g transform="translate(24.845 90.495163)scale(0.1 -0.1)">
       <defs>
        <path d="M 525 4666 
L 3525 4666 
L 3525 4397 
L 1831 0 
L 1172 0 
L 2766 4134 
L 525 4134 
L 525 4666 
z
" id="DejaVuSans-37" transform="scale(0.015625)"/>
       </defs>
       <use xlink:href="#DejaVuSans-37"/>
       <use x="63.623047" xlink:href="#DejaVuSans-30"/>
      </g>
     </g>
    </g>
    <g id="ytick_8">
     <g id="line2d_27">
      <path clip-path="url(#p2548a8fcd2)" d="M 44.57 53.37608 
L 366.25 53.37608 
" style="fill:none;stroke:#b0b0b0;stroke-linecap:square;stroke-width:0.8;"/>
     </g>
     <g id="line2d_28">
      <g>
       <use style="stroke:#000000;stroke-width:0.8;" x="44.57" xlink:href="#mc0c9f1d934" y="53.37608"/>
      </g>
     </g>
     <g id="text_15">
      <!-- 80 -->
      <g transform="translate(24.845 57.175299)scale(0.1 -0.1)">
       <defs>
        <path d="M 2034 2216 
Q 1584 2216 1326 1975 
Q 1069 1734 1069 1313 
Q 1069 891 1326 650 
Q 1584 409 2034 409 
Q 2484 409 2743 651 
Q 3003 894 3003 1313 
Q 3003 1734 2745 1975 
Q 2488 2216 2034 2216 
z
M 1403 2484 
Q 997 2584 770 2862 
Q 544 3141 544 3541 
Q 544 4100 942 4425 
Q 1341 4750 2034 4750 
Q 2731 4750 3128 4425 
Q 3525 4100 3525 3541 
Q 3525 3141 3298 2862 
Q 3072 2584 2669 2484 
Q 3125 2378 3379 2068 
Q 3634 1759 3634 1313 
Q 3634 634 3220 271 
Q 2806 -91 2034 -91 
Q 1263 -91 848 271 
Q 434 634 434 1313 
Q 434 1759 690 2068 
Q 947 2378 1403 2484 
z
M 1172 3481 
Q 1172 3119 1398 2916 
Q 1625 2713 2034 2713 
Q 2441 2713 2670 2916 
Q 2900 3119 2900 3481 
Q 2900 3844 2670 4047 
Q 2441 4250 2034 4250 
Q 1625 4250 1398 4047 
Q 1172 3844 1172 3481 
z
" id="DejaVuSans-38" transform="scale(0.015625)"/>
       </defs>
       <use xlink:href="#DejaVuSans-38"/>
       <use x="63.623047" xlink:href="#DejaVuSans-30"/>
      </g>
     </g>
    </g>
    <g id="text_16">
     <!-- Test Accuracy -->
     <g transform="translate(18.765313 199.5225)rotate(-90)scale(0.1 -0.1)">
      <defs>
       <path d="M -19 4666 
L 3928 4666 
L 3928 4134 
L 2272 4134 
L 2272 0 
L 1638 0 
L 1638 4134 
L -19 4134 
L -19 4666 
z
" id="DejaVuSans-54" transform="scale(0.015625)"/>
       <path d="M 3597 1894 
L 3597 1613 
L 953 1613 
Q 991 1019 1311 708 
Q 1631 397 2203 397 
Q 2534 397 2845 478 
Q 3156 559 3463 722 
L 3463 178 
Q 3153 47 2828 -22 
Q 2503 -91 2169 -91 
Q 1331 -91 842 396 
Q 353 884 353 1716 
Q 353 2575 817 3079 
Q 1281 3584 2069 3584 
Q 2775 3584 3186 3129 
Q 3597 2675 3597 1894 
z
M 3022 2063 
Q 3016 2534 2758 2815 
Q 2500 3097 2075 3097 
Q 1594 3097 1305 2825 
Q 1016 2553 972 2059 
L 3022 2063 
z
" id="DejaVuSans-65" transform="scale(0.015625)"/>
       <path d="M 2188 4044 
L 1331 1722 
L 3047 1722 
L 2188 4044 
z
M 1831 4666 
L 2547 4666 
L 4325 0 
L 3669 0 
L 3244 1197 
L 1141 1197 
L 716 0 
L 50 0 
L 1831 4666 
z
" id="DejaVuSans-41" transform="scale(0.015625)"/>
       <path d="M 2631 2963 
Q 2534 3019 2420 3045 
Q 2306 3072 2169 3072 
Q 1681 3072 1420 2755 
Q 1159 2438 1159 1844 
L 1159 0 
L 581 0 
L 581 3500 
L 1159 3500 
L 1159 2956 
Q 1341 3275 1631 3429 
Q 1922 3584 2338 3584 
Q 2397 3584 2469 3576 
Q 2541 3569 2628 3553 
L 2631 2963 
z
" id="DejaVuSans-72" transform="scale(0.015625)"/>
       <path d="M 2059 -325 
Q 1816 -950 1584 -1140 
Q 1353 -1331 966 -1331 
L 506 -1331 
L 506 -850 
L 844 -850 
Q 1081 -850 1212 -737 
Q 1344 -625 1503 -206 
L 1606 56 
L 191 3500 
L 800 3500 
L 1894 763 
L 2988 3500 
L 3597 3500 
L 2059 -325 
z
" id="DejaVuSans-79" transform="scale(0.015625)"/>
      </defs>
      <use xlink:href="#DejaVuSans-54"/>
      <use x="44.083984" xlink:href="#DejaVuSans-65"/>
      <use x="105.607422" xlink:href="#DejaVuSans-73"/>
      <use x="157.707031" xlink:href="#DejaVuSans-74"/>
      <use x="196.916016" xlink:href="#DejaVuSans-20"/>
      <use x="228.703125" xlink:href="#DejaVuSans-41"/>
      <use x="295.361328" xlink:href="#DejaVuSans-63"/>
      <use x="350.341797" xlink:href="#DejaVuSans-63"/>
      <use x="405.322266" xlink:href="#DejaVuSans-75"/>
      <use x="468.701172" xlink:href="#DejaVuSans-72"/>
      <use x="509.814453" xlink:href="#DejaVuSans-61"/>
      <use x="571.09375" xlink:href="#DejaVuSans-63"/>
      <use x="626.074219" xlink:href="#DejaVuSans-79"/>
     </g>
    </g>
   </g>
   <g id="line2d_29">
    <path clip-path="url(#p2548a8fcd2)" d="M 59.191818 282.228718 
L 65.159907 196.356257 
L 71.127996 168.856825 
L 77.096085 156.37242 
L 83.064174 142.453996 
L 89.032263 130.391361 
L 95.000353 120.606287 
L 100.968442 112.761357 
L 106.936531 106.01303 
L 112.90462 99.095995 
L 118.872709 92.769439 
L 124.840798 90.998003 
L 130.808887 86.61159 
L 136.776976 83.827906 
L 142.745065 80.791158 
L 148.713154 76.826516 
L 154.681243 77.838765 
L 160.649332 73.789769 
L 166.617421 70.753022 
L 172.58551 69.825127 
L 178.553599 68.306754 
L 184.521688 66.029193 
L 190.489777 64.089049 
L 196.457866 64.342112 
L 202.425955 60.293115 
L 208.394045 60.79924 
L 214.362134 57.846847 
L 220.330223 57.678139 
L 226.298312 55.737995 
L 232.266401 54.978808 
L 238.23449 54.472683 
L 244.202579 53.713497 
L 250.170668 53.966559 
L 256.138757 52.279477 
L 262.106846 50.339333 
L 268.074935 51.773353 
L 274.043024 50.676749 
L 280.011113 50.086271 
L 285.979202 49.411438 
L 291.947291 47.38694 
L 297.91538 46.459045 
L 303.883469 46.121629 
L 309.851558 48.399189 
L 315.819647 46.205983 
L 321.787737 47.38694 
L 327.755826 43.759714 
L 333.723915 45.025026 
L 339.692004 45.53115 
L 345.660093 44.097131 
L 351.628182 42.494403 
" style="fill:none;stroke:#1f77b4;stroke-linecap:square;stroke-width:1.5;"/>
   </g>
   <g id="line2d_30">
    <path clip-path="url(#p2548a8fcd2)" d="M 59.191818 286.952546 
L 65.159907 204.45425 
L 71.127996 172.737113 
L 77.096085 160.758833 
L 83.064174 148.10572 
L 89.032263 138.067583 
L 95.000353 128.788634 
L 100.968442 118.581789 
L 106.936531 114.870209 
L 112.90462 107.86882 
L 118.872709 99.60212 
L 124.840798 96.649727 
L 130.808887 91.335419 
L 136.776976 88.636089 
L 142.745065 85.599341 
L 148.713154 82.815657 
L 154.681243 84.755801 
L 160.649332 81.634699 
L 166.617421 78.597952 
L 172.58551 75.982975 
L 178.553599 75.308143 
L 184.521688 72.187042 
L 190.489777 70.753022 
L 196.457866 68.306754 
L 202.425955 65.944839 
L 208.394045 65.691777 
L 214.362134 63.498571 
L 220.330223 64.51082 
L 226.298312 62.064551 
L 232.266401 61.895843 
L 238.23449 59.027804 
L 244.202579 59.533929 
L 250.170668 60.124407 
L 256.138757 56.750244 
L 262.106846 57.256368 
L 268.074935 56.918952 
L 274.043024 55.569286 
L 280.011113 54.135267 
L 285.979202 55.147516 
L 291.947291 53.966559 
L 297.91538 53.629143 
L 303.883469 52.363831 
L 309.851558 53.797851 
L 315.819647 52.279477 
L 321.787737 50.339333 
L 327.755826 49.074022 
L 333.723915 49.495792 
L 339.692004 49.074022 
L 345.660093 50.254979 
L 351.628182 48.230481 
" style="fill:none;stroke:#ff7f0e;stroke-linecap:square;stroke-width:1.5;"/>
   </g>
   <g id="line2d_31">
    <path clip-path="url(#p2548a8fcd2)" d="M 59.191818 278.34843 
L 65.159907 199.983483 
L 71.127996 175.77386 
L 77.096085 162.530268 
L 83.064174 156.709837 
L 89.032263 144.39414 
L 95.000353 132.83763 
L 100.968442 124.908346 
L 106.936531 119.594038 
L 112.90462 110.230735 
L 118.872709 106.181739 
L 124.840798 101.204847 
L 130.808887 96.143602 
L 136.776976 91.841544 
L 142.745065 88.636089 
L 148.713154 86.442882 
L 154.681243 83.406135 
L 160.649332 79.272785 
L 166.617421 80.706804 
L 172.58551 76.573454 
L 178.553599 74.886372 
L 184.521688 72.861874 
L 190.489777 71.596563 
L 196.457866 70.584314 
L 202.425955 66.78838 
L 208.394045 65.607423 
L 214.362134 63.751633 
L 220.330223 65.185652 
L 226.298312 61.727135 
L 232.266401 62.317613 
L 238.23449 59.871345 
L 244.202579 61.305364 
L 250.170668 56.918952 
L 256.138757 58.690388 
L 262.106846 55.653641 
L 268.074935 56.075411 
L 274.043024 56.497181 
L 280.011113 55.906703 
L 285.979202 54.303975 
L 291.947291 52.616893 
L 297.91538 54.641392 
L 303.883469 51.182874 
L 309.851558 51.773353 
L 315.819647 50.676749 
L 321.787737 49.495792 
L 327.755826 49.074022 
L 333.723915 47.471294 
L 339.692004 48.989668 
L 345.660093 47.977419 
L 351.628182 47.724356 
" style="fill:none;stroke:#2ca02c;stroke-linecap:square;stroke-width:1.5;"/>
   </g>
   <g id="line2d_32">
    <path clip-path="url(#p2548a8fcd2)" d="M 59.191818 282.17026 
L 65.159907 193.659373 
L 71.127996 175.719958 
L 77.096085 167.23672 
L 83.064174 164.444516 
L 89.032263 159.186641 
L 95.000353 158.993386 
L 100.968442 157.200777 
L 106.936531 156.054574 
L 112.90462 154.955018 
L 118.872709 158.173717 
L 124.840798 154.848395 
L 130.808887 156.647668 
L 136.776976 155.621416 
L 142.745065 156.387773 
L 148.713154 157.12081 
L 154.681243 155.568104 
L 160.649332 158.073758 
L 166.617421 155.934622 
L 172.58551 154.52186 
L 178.553599 155.368185 
L 184.521688 155.648072 
L 190.489777 155.954614 
L 196.457866 153.788823 
L 202.425955 152.695932 
L 208.394045 152.342741 
L 214.362134 153.175738 
L 220.330223 152.162814 
L 226.298312 153.502272 
L 232.266401 153.788823 
L 238.23449 152.909179 
L 244.202579 152.669276 
L 250.170668 152.54266 
L 256.138757 154.921699 
L 262.106846 154.848395 
L 268.074935 155.294881 
L 274.043024 152.849203 
L 280.011113 154.528524 
L 285.979202 155.214913 
L 291.947291 153.329009 
L 297.91538 152.18947 
L 303.883469 153.722183 
L 309.851558 153.662208 
L 315.819647 153.408977 
L 321.787737 153.828807 
L 327.755826 154.668468 
L 333.723915 152.909179 
L 339.692004 151.73632 
L 345.660093 153.435633 
L 351.628182 154.122022 
" style="fill:none;stroke:#d62728;stroke-linecap:square;stroke-width:1.5;"/>
   </g>
   <g id="patch_3">
    <path d="M 44.57 303.64 
L 44.57 26.88 
" style="fill:none;stroke:#000000;stroke-linecap:square;stroke-linejoin:miter;stroke-width:0.8;"/>
   </g>
   <g id="patch_4">
    <path d="M 366.25 303.64 
L 366.25 26.88 
" style="fill:none;stroke:#000000;stroke-linecap:square;stroke-linejoin:miter;stroke-width:0.8;"/>
   </g>
   <g id="patch_5">
    <path d="M 44.57 303.64 
L 366.25 303.64 
" style="fill:none;stroke:#000000;stroke-linecap:square;stroke-linejoin:miter;stroke-width:0.8;"/>
   </g>
   <g id="patch_6">
    <path d="M 44.57 26.88 
L 366.25 26.88 
" style="fill:none;stroke:#000000;stroke-linecap:square;stroke-linejoin:miter;stroke-width:0.8;"/>
   </g>
   <g id="text_17">
    <!-- CIFAR Local Rounds 10 -->
    <g transform="translate(137.255625 20.88)scale(0.12 -0.12)">
     <defs>
      <path d="M 628 4666 
L 1259 4666 
L 1259 0 
L 628 0 
L 628 4666 
z
" id="DejaVuSans-49" transform="scale(0.015625)"/>
      <path d="M 628 4666 
L 3309 4666 
L 3309 4134 
L 1259 4134 
L 1259 2759 
L 3109 2759 
L 3109 2228 
L 1259 2228 
L 1259 0 
L 628 0 
L 628 4666 
z
" id="DejaVuSans-46" transform="scale(0.015625)"/>
      <path d="M 628 4666 
L 1259 4666 
L 1259 531 
L 3531 531 
L 3531 0 
L 628 0 
L 628 4666 
z
" id="DejaVuSans-4c" transform="scale(0.015625)"/>
     </defs>
     <use xlink:href="#DejaVuSans-43"/>
     <use x="69.824219" xlink:href="#DejaVuSans-49"/>
     <use x="99.316406" xlink:href="#DejaVuSans-46"/>
     <use x="147.710938" xlink:href="#DejaVuSans-41"/>
     <use x="216.119141" xlink:href="#DejaVuSans-52"/>
     <use x="285.601562" xlink:href="#DejaVuSans-20"/>
     <use x="317.388672" xlink:href="#DejaVuSans-4c"/>
     <use x="371.351562" xlink:href="#DejaVuSans-6f"/>
     <use x="432.533203" xlink:href="#DejaVuSans-63"/>
     <use x="487.513672" xlink:href="#DejaVuSans-61"/>
     <use x="548.792969" xlink:href="#DejaVuSans-6c"/>
     <use x="576.576172" xlink:href="#DejaVuSans-20"/>
     <use x="608.363281" xlink:href="#DejaVuSans-52"/>
     <use x="673.345703" xlink:href="#DejaVuSans-6f"/>
     <use x="734.527344" xlink:href="#DejaVuSans-75"/>
     <use x="797.90625" xlink:href="#DejaVuSans-6e"/>
     <use x="861.285156" xlink:href="#DejaVuSans-64"/>
     <use x="924.761719" xlink:href="#DejaVuSans-73"/>
     <use x="976.861328" xlink:href="#DejaVuSans-20"/>
     <use x="1008.648438" xlink:href="#DejaVuSans-31"/>
     <use x="1072.271484" xlink:href="#DejaVuSans-30"/>
    </g>
   </g>
   <g id="legend_1">
    <g id="patch_7">
     <path d="M 373.25 196.11625 
L 447.821875 196.11625 
Q 449.821875 196.11625 449.821875 194.11625 
L 449.821875 136.40375 
Q 449.821875 134.40375 447.821875 134.40375 
L 373.25 134.40375 
Q 371.25 134.40375 371.25 136.40375 
L 371.25 194.11625 
Q 371.25 196.11625 373.25 196.11625 
z
" style="fill:#ffffff;opacity:0.8;stroke:#cccccc;stroke-linejoin:miter;"/>
    </g>
    <g id="line2d_33">
     <path d="M 375.25 142.502187 
L 395.25 142.502187 
" style="fill:none;stroke:#1f77b4;stroke-linecap:square;stroke-width:1.5;"/>
    </g>
    <g id="line2d_34"/>
    <g id="text_18">
     <!-- FedAvg -->
     <g transform="translate(403.25 146.002187)scale(0.1 -0.1)">
      <defs>
       <path d="M 191 3500 
L 800 3500 
L 1894 563 
L 2988 3500 
L 3597 3500 
L 2284 0 
L 1503 0 
L 191 3500 
z
" id="DejaVuSans-76" transform="scale(0.015625)"/>
       <path d="M 2906 1791 
Q 2906 2416 2648 2759 
Q 2391 3103 1925 3103 
Q 1463 3103 1205 2759 
Q 947 2416 947 1791 
Q 947 1169 1205 825 
Q 1463 481 1925 481 
Q 2391 481 2648 825 
Q 2906 1169 2906 1791 
z
M 3481 434 
Q 3481 -459 3084 -895 
Q 2688 -1331 1869 -1331 
Q 1566 -1331 1297 -1286 
Q 1028 -1241 775 -1147 
L 775 -588 
Q 1028 -725 1275 -790 
Q 1522 -856 1778 -856 
Q 2344 -856 2625 -561 
Q 2906 -266 2906 331 
L 2906 616 
Q 2728 306 2450 153 
Q 2172 0 1784 0 
Q 1141 0 747 490 
Q 353 981 353 1791 
Q 353 2603 747 3093 
Q 1141 3584 1784 3584 
Q 2172 3584 2450 3431 
Q 2728 3278 2906 2969 
L 2906 3500 
L 3481 3500 
L 3481 434 
z
" id="DejaVuSans-67" transform="scale(0.015625)"/>
      </defs>
      <use xlink:href="#DejaVuSans-46"/>
      <use x="52.019531" xlink:href="#DejaVuSans-65"/>
      <use x="113.542969" xlink:href="#DejaVuSans-64"/>
      <use x="177.019531" xlink:href="#DejaVuSans-41"/>
      <use x="239.552734" xlink:href="#DejaVuSans-76"/>
      <use x="298.732422" xlink:href="#DejaVuSans-67"/>
     </g>
    </g>
    <g id="line2d_35">
     <path d="M 375.25 157.180312 
L 395.25 157.180312 
" style="fill:none;stroke:#ff7f0e;stroke-linecap:square;stroke-width:1.5;"/>
    </g>
    <g id="line2d_36"/>
    <g id="text_19">
     <!-- FedMed -->
     <g transform="translate(403.25 160.680312)scale(0.1 -0.1)">
      <defs>
       <path d="M 628 4666 
L 1569 4666 
L 2759 1491 
L 3956 4666 
L 4897 4666 
L 4897 0 
L 4281 0 
L 4281 4097 
L 3078 897 
L 2444 897 
L 1241 4097 
L 1241 0 
L 628 0 
L 628 4666 
z
" id="DejaVuSans-4d" transform="scale(0.015625)"/>
      </defs>
      <use xlink:href="#DejaVuSans-46"/>
      <use x="52.019531" xlink:href="#DejaVuSans-65"/>
      <use x="113.542969" xlink:href="#DejaVuSans-64"/>
      <use x="177.019531" xlink:href="#DejaVuSans-4d"/>
      <use x="263.298828" xlink:href="#DejaVuSans-65"/>
      <use x="324.822266" xlink:href="#DejaVuSans-64"/>
     </g>
    </g>
    <g id="line2d_37">
     <path d="M 375.25 171.858437 
L 395.25 171.858437 
" style="fill:none;stroke:#2ca02c;stroke-linecap:square;stroke-width:1.5;"/>
    </g>
    <g id="line2d_38"/>
    <g id="text_20">
     <!-- FedProx -->
     <g transform="translate(403.25 175.358437)scale(0.1 -0.1)">
      <defs>
       <path d="M 1259 4147 
L 1259 2394 
L 2053 2394 
Q 2494 2394 2734 2622 
Q 2975 2850 2975 3272 
Q 2975 3691 2734 3919 
Q 2494 4147 2053 4147 
L 1259 4147 
z
M 628 4666 
L 2053 4666 
Q 2838 4666 3239 4311 
Q 3641 3956 3641 3272 
Q 3641 2581 3239 2228 
Q 2838 1875 2053 1875 
L 1259 1875 
L 1259 0 
L 628 0 
L 628 4666 
z
" id="DejaVuSans-50" transform="scale(0.015625)"/>
       <path d="M 3513 3500 
L 2247 1797 
L 3578 0 
L 2900 0 
L 1881 1375 
L 863 0 
L 184 0 
L 1544 1831 
L 300 3500 
L 978 3500 
L 1906 2253 
L 2834 3500 
L 3513 3500 
z
" id="DejaVuSans-78" transform="scale(0.015625)"/>
      </defs>
      <use xlink:href="#DejaVuSans-46"/>
      <use x="52.019531" xlink:href="#DejaVuSans-65"/>
      <use x="113.542969" xlink:href="#DejaVuSans-64"/>
      <use x="177.019531" xlink:href="#DejaVuSans-50"/>
      <use x="235.572266" xlink:href="#DejaVuSans-72"/>
      <use x="274.435547" xlink:href="#DejaVuSans-6f"/>
      <use x="332.492188" xlink:href="#DejaVuSans-78"/>
     </g>
    </g>
    <g id="line2d_39">
     <path d="M 375.25 186.536563 
L 395.25 186.536563 
" style="fill:none;stroke:#d62728;stroke-linecap:square;stroke-width:1.5;"/>
    </g>
    <g id="line2d_40"/>
    <g id="text_21">
     <!-- qFedAvg -->
     <g transform="translate(403.25 190.036563)scale(0.1 -0.1)">
      <defs>
       <path d="M 947 1747 
Q 947 1113 1208 752 
Q 1469 391 1925 391 
Q 2381 391 2643 752 
Q 2906 1113 2906 1747 
Q 2906 2381 2643 2742 
Q 2381 3103 1925 3103 
Q 1469 3103 1208 2742 
Q 947 2381 947 1747 
z
M 2906 525 
Q 2725 213 2448 61 
Q 2172 -91 1784 -91 
Q 1150 -91 751 415 
Q 353 922 353 1747 
Q 353 2572 751 3078 
Q 1150 3584 1784 3584 
Q 2172 3584 2448 3432 
Q 2725 3281 2906 2969 
L 2906 3500 
L 3481 3500 
L 3481 -1331 
L 2906 -1331 
L 2906 525 
z
" id="DejaVuSans-71" transform="scale(0.015625)"/>
      </defs>
      <use xlink:href="#DejaVuSans-71"/>
      <use x="63.476562" xlink:href="#DejaVuSans-46"/>
      <use x="115.496094" xlink:href="#DejaVuSans-65"/>
      <use x="177.019531" xlink:href="#DejaVuSans-64"/>
      <use x="240.496094" xlink:href="#DejaVuSans-41"/>
      <use x="303.029297" xlink:href="#DejaVuSans-76"/>
      <use x="362.208984" xlink:href="#DejaVuSans-67"/>
     </g>
    </g>
   </g>
  </g>
 </g>
 <defs>
  <clipPath id="p2548a8fcd2">
   <rect height="276.76" width="321.68" x="44.57" y="26.88"/>
  </clipPath>
 </defs>
</svg>
