<?xml version="1.0" encoding="utf-8" standalone="no"?>
<!DOCTYPE svg PUBLIC "-//W3C//DTD SVG 1.1//EN"
  "http://www.w3.org/Graphics/SVG/1.1/DTD/svg11.dtd">
<svg height="345.6pt" version="1.1" viewBox="0 0 460.8 345.6" width="460.8pt" xmlns="http://www.w3.org/2000/svg" xmlns:xlink="http://www.w3.org/1999/xlink">
 <metadata>
  <rdf:RDF xmlns:cc="http://creativecommons.org/ns#" xmlns:dc="http://purl.org/dc/elements/1.1/" xmlns:rdf="http://www.w3.org/1999/02/22-rdf-syntax-ns#">
   <cc:Work>
    <dc:type rdf:resource="http://purl.org/dc/dcmitype/StillImage"/>
    <dc:date>2021-04-27T10:14:55.468155</dc:date>
    <dc:format>image/svg+xml</dc:format>
    <dc:creator>
     <cc:Agent>
      <dc:title>Matplotlib v3.4.1, https://matplotlib.org/</dc:title>
     </cc:Agent>
    </dc:creator>
   </cc:Work>
  </rdf:RDF>
 </metadata>
 <defs>
  <style type="text/css">*{stroke-linecap:butt;stroke-linejoin:round;}</style>
 </defs>
 <g id="figure_1">
  <g id="patch_1">
   <path d="M 0 345.6 
L 460.8 345.6 
L 460.8 0 
L 0 0 
z
" style="fill:#ffffff;"/>
  </g>
  <g id="axes_1">
   <g id="patch_2">
    <path d="M 44.57 303.64 
L 366.25 303.64 
L 366.25 26.88 
L 44.57 26.88 
z
" style="fill:#ffffff;"/>
   </g>
   <g id="PolyCollection_1">
    <path clip-path="url(#p40ec3692ac)" d="M 59.191818 284.510239 
L 59.191818 288.025806 
L 65.159907 287.401905 
L 71.127996 274.327672 
L 77.096085 268.313157 
L 83.064174 266.155991 
L 89.032263 247.261737 
L 95.000353 261.140198 
L 100.968442 233.04107 
L 106.936531 240.336513 
L 112.90462 239.502384 
L 118.872709 203.691857 
L 124.840798 228.1502 
L 130.808887 213.901066 
L 136.776976 207.830187 
L 142.745065 193.667328 
L 148.713154 196.797437 
L 154.681243 203.369665 
L 160.649332 189.617712 
L 166.617421 192.650636 
L 172.58551 196.171035 
L 178.553599 184.291795 
L 184.521688 165.295708 
L 190.489777 157.772981 
L 196.457866 189.813927 
L 202.425955 154.10422 
L 208.394045 168.999838 
L 214.362134 158.078812 
L 220.330223 157.313826 
L 226.298312 147.376215 
L 232.266401 150.026376 
L 238.23449 142.025145 
L 244.202579 138.610825 
L 250.170668 138.131104 
L 256.138757 122.007828 
L 262.106846 112.912631 
L 268.074935 99.330278 
L 274.043024 135.806715 
L 280.011113 115.918738 
L 285.979202 113.17113 
L 291.947291 100.613692 
L 297.91538 108.597899 
L 303.883469 109.675393 
L 309.851558 108.936036 
L 315.819647 101.534275 
L 321.787737 95.985562 
L 327.755826 70.575462 
L 333.723915 102.258953 
L 339.692004 90.378836 
L 345.660093 87.361848 
L 351.628182 75.857612 
L 351.628182 58.934572 
L 351.628182 58.934572 
L 345.660093 47.880458 
L 339.692004 66.469337 
L 333.723915 51.888486 
L 327.755826 39.46 
L 321.787737 71.440483 
L 315.819647 70.618053 
L 309.851558 72.89392 
L 303.883469 81.382069 
L 297.91538 68.055652 
L 291.947291 68.16272 
L 285.979202 80.136943 
L 280.011113 76.714152 
L 274.043024 92.835953 
L 268.074935 78.67364 
L 262.106846 86.922214 
L 256.138757 92.906112 
L 250.170668 80.158752 
L 244.202579 87.55617 
L 238.23449 95.619967 
L 232.266401 120.702719 
L 226.298312 113.900313 
L 220.330223 118.141553 
L 214.362134 103.422778 
L 208.394045 113.207374 
L 202.425955 117.074998 
L 196.457866 114.224212 
L 190.489777 133.886797 
L 184.521688 133.115904 
L 178.553599 147.2038 
L 172.58551 152.429205 
L 166.617421 156.399725 
L 160.649332 164.158933 
L 154.681243 161.885096 
L 148.713154 168.007203 
L 142.745065 157.633645 
L 136.776976 160.800492 
L 130.808887 164.857363 
L 124.840798 180.766417 
L 118.872709 186.99481 
L 112.90462 217.127189 
L 106.936531 209.766288 
L 100.968442 201.082392 
L 95.000353 204.49182 
L 89.032263 226.022358 
L 83.064174 228.058788 
L 77.096085 235.354188 
L 71.127996 238.79224 
L 65.159907 274.106145 
L 59.191818 284.510239 
z
" style="fill:#1f77b4;fill-opacity:0.5;"/>
   </g>
   <g id="PolyCollection_2">
    <path clip-path="url(#p40ec3692ac)" d="M 59.191818 285.571357 
L 59.191818 288.540116 
L 65.159907 288.07119 
L 71.127996 285.02226 
L 77.096085 281.036002 
L 83.064174 285.984512 
L 89.032263 277.924555 
L 95.000353 273.301743 
L 100.968442 281.367516 
L 106.936531 269.539216 
L 112.90462 286.405015 
L 118.872709 264.624741 
L 124.840798 269.475768 
L 130.808887 270.302824 
L 136.776976 251.200997 
L 142.745065 263.897901 
L 148.713154 267.134803 
L 154.681243 258.776021 
L 160.649332 286.234589 
L 166.617421 263.510964 
L 172.58551 267.377267 
L 178.553599 263.850023 
L 184.521688 272.470677 
L 190.489777 245.077227 
L 196.457866 272.297313 
L 202.425955 267.018477 
L 208.394045 267.420407 
L 214.362134 235.418043 
L 220.330223 276.210519 
L 226.298312 258.517004 
L 232.266401 239.457949 
L 238.23449 259.234082 
L 244.202579 255.132046 
L 250.170668 240.660083 
L 256.138757 243.126374 
L 262.106846 230.949834 
L 268.074935 208.454694 
L 274.043024 259.334799 
L 280.011113 225.580733 
L 285.979202 214.242877 
L 291.947291 198.880889 
L 297.91538 223.927486 
L 303.883469 229.616094 
L 309.851558 251.37362 
L 315.819647 273.347835 
L 321.787737 267.20454 
L 327.755826 202.388145 
L 333.723915 218.541195 
L 339.692004 203.879223 
L 345.660093 251.249931 
L 351.628182 205.704705 
L 351.628182 164.27634 
L 351.628182 164.27634 
L 345.660093 146.18857 
L 339.692004 167.67725 
L 333.723915 152.790217 
L 327.755826 143.961483 
L 321.787737 170.5199 
L 315.819647 167.52746 
L 309.851558 167.220625 
L 303.883469 170.298079 
L 297.91538 160.232409 
L 291.947291 166.598934 
L 285.979202 180.269829 
L 280.011113 170.507401 
L 274.043024 174.33854 
L 268.074935 194.160212 
L 262.106846 179.542211 
L 256.138757 184.695377 
L 250.170668 205.84174 
L 244.202579 185.96831 
L 238.23449 185.01713 
L 232.266401 210.644852 
L 226.298312 202.38873 
L 220.330223 218.454382 
L 214.362134 194.204197 
L 208.394045 229.495105 
L 202.425955 222.470019 
L 196.457866 203.462454 
L 190.489777 217.628996 
L 184.521688 229.171118 
L 178.553599 202.682239 
L 172.58551 217.159884 
L 166.617421 224.402103 
L 160.649332 227.560506 
L 154.681243 199.42898 
L 148.713154 225.279487 
L 142.745065 229.866756 
L 136.776976 216.006448 
L 130.808887 229.988605 
L 124.840798 215.736566 
L 118.872709 235.216565 
L 112.90462 246.520275 
L 106.936531 237.053923 
L 100.968442 243.455573 
L 95.000353 238.242741 
L 89.032263 248.248901 
L 83.064174 261.344689 
L 77.096085 246.937944 
L 71.127996 253.079435 
L 65.159907 278.613266 
L 59.191818 285.571357 
z
" style="fill:#ff7f0e;fill-opacity:0.5;"/>
   </g>
   <g id="PolyCollection_3">
    <path clip-path="url(#p40ec3692ac)" d="M 59.191818 275.622348 
L 59.191818 286.335825 
L 65.159907 290.410323 
L 71.127996 266.928389 
L 77.096085 260.591243 
L 83.064174 258.420538 
L 89.032263 247.693923 
L 95.000353 253.110638 
L 100.968442 245.43923 
L 106.936531 235.26171 
L 112.90462 235.136027 
L 118.872709 231.587485 
L 124.840798 219.017395 
L 130.808887 227.481892 
L 136.776976 226.887493 
L 142.745065 207.877065 
L 148.713154 180.970819 
L 154.681243 202.624554 
L 160.649332 214.796174 
L 166.617421 198.803959 
L 172.58551 196.351047 
L 178.553599 199.246558 
L 184.521688 195.600894 
L 190.489777 181.029527 
L 196.457866 179.387984 
L 202.425955 206.996388 
L 208.394045 187.266121 
L 214.362134 204.060887 
L 220.330223 170.655594 
L 226.298312 167.188311 
L 232.266401 160.380618 
L 238.23449 137.519159 
L 244.202579 140.635947 
L 250.170668 135.663631 
L 256.138757 161.014394 
L 262.106846 132.761646 
L 268.074935 139.451749 
L 274.043024 141.54408 
L 280.011113 139.598229 
L 285.979202 136.639573 
L 291.947291 144.767905 
L 297.91538 127.042495 
L 303.883469 131.927615 
L 309.851558 113.269945 
L 315.819647 129.707842 
L 321.787737 122.508204 
L 327.755826 129.081104 
L 333.723915 127.852243 
L 339.692004 114.737794 
L 345.660093 124.211925 
L 351.628182 137.265843 
L 351.628182 83.274625 
L 351.628182 83.274625 
L 345.660093 76.073042 
L 339.692004 74.519179 
L 333.723915 77.159008 
L 327.755826 111.03968 
L 321.787737 78.902069 
L 315.819647 104.561354 
L 309.851558 100.518689 
L 303.883469 88.612852 
L 297.91538 102.725478 
L 291.947291 112.907645 
L 285.979202 105.956883 
L 280.011113 99.397249 
L 274.043024 110.054821 
L 268.074935 120.474413 
L 262.106846 122.438232 
L 256.138757 105.888662 
L 250.170668 121.561797 
L 244.202579 113.213565 
L 238.23449 122.181942 
L 232.266401 133.754833 
L 226.298312 129.872934 
L 220.330223 127.080834 
L 214.362134 146.339842 
L 208.394045 154.807346 
L 202.425955 145.654951 
L 196.457866 145.580839 
L 190.489777 155.642474 
L 184.521688 146.472574 
L 178.553599 157.005759 
L 172.58551 153.82462 
L 166.617421 160.599214 
L 160.649332 146.182427 
L 154.681243 174.108325 
L 148.713154 167.629421 
L 142.745065 166.155081 
L 136.776976 186.305286 
L 130.808887 200.339858 
L 124.840798 194.625505 
L 118.872709 197.584632 
L 112.90462 216.09208 
L 106.936531 214.165907 
L 100.968442 213.440954 
L 95.000353 217.472724 
L 89.032263 229.641272 
L 83.064174 239.395218 
L 77.096085 236.324269 
L 71.127996 234.488345 
L 65.159907 254.218145 
L 59.191818 275.622348 
z
" style="fill:#2ca02c;fill-opacity:0.5;"/>
   </g>
   <g id="PolyCollection_4">
    <path clip-path="url(#p40ec3692ac)" d="M 59.191818 284.692595 
L 59.191818 284.692595 
L 65.159907 291.06 
L 71.127996 286.129978 
L 77.096085 280.798816 
L 83.064174 277.415829 
L 89.032263 275.935527 
L 95.000353 263.76504 
L 100.968442 255.434847 
L 106.936531 253.106529 
L 112.90462 253.116851 
L 118.872709 245.477756 
L 124.840798 246.016756 
L 130.808887 238.985062 
L 136.776976 237.644035 
L 142.745065 229.193198 
L 148.713154 235.091293 
L 154.681243 222.757802 
L 160.649332 232.350169 
L 166.617421 226.135507 
L 172.58551 225.910446 
L 178.553599 211.383381 
L 184.521688 221.075711 
L 190.489777 214.325207 
L 196.457866 214.725076 
L 202.425955 214.429086 
L 208.394045 207.616098 
L 214.362134 209.116764 
L 220.330223 204.116926 
L 226.298312 193.931526 
L 232.266401 199.938775 
L 238.23449 193.70074 
L 244.202579 199.913568 
L 250.170668 181.634006 
L 256.138757 202.138017 
L 262.106846 191.610477 
L 268.074935 191.803808 
L 274.043024 182.921542 
L 280.011113 187.04996 
L 285.979202 176.717151 
L 291.947291 175.898915 
L 297.91538 178.662922 
L 303.883469 176.135887 
L 309.851558 175.73544 
L 315.819647 170.301099 
L 321.787737 171.963373 
L 327.755826 174.923741 
L 333.723915 179.036198 
L 339.692004 171.393343 
L 345.660093 165.272514 
L 351.628182 169.787634 
L 351.628182 131.780009 
L 351.628182 131.780009 
L 345.660093 131.423457 
L 339.692004 130.334319 
L 333.723915 131.972534 
L 327.755826 134.502586 
L 321.787737 137.658533 
L 315.819647 138.307357 
L 309.851558 131.788446 
L 303.883469 137.379801 
L 297.91538 135.368381 
L 291.947291 151.093882 
L 285.979202 141.616871 
L 280.011113 141.68526 
L 274.043024 143.697879 
L 268.074935 139.26057 
L 262.106846 143.774399 
L 256.138757 148.644191 
L 250.170668 153.181915 
L 244.202579 157.678314 
L 238.23449 153.774419 
L 232.266401 153.954902 
L 226.298312 160.620004 
L 220.330223 157.368737 
L 214.362134 160.60096 
L 208.394045 165.141976 
L 202.425955 163.28956 
L 196.457866 162.851332 
L 190.489777 163.820155 
L 184.521688 161.230131 
L 178.553599 172.238168 
L 172.58551 168.574578 
L 166.617421 171.603225 
L 160.649332 173.478385 
L 154.681243 177.327868 
L 148.713154 176.764623 
L 142.745065 177.382109 
L 136.776976 183.830767 
L 130.808887 191.948609 
L 124.840798 190.055285 
L 118.872709 196.639427 
L 112.90462 206.851279 
L 106.936531 210.115309 
L 100.968442 221.441899 
L 95.000353 226.357677 
L 89.032263 233.193827 
L 83.064174 245.012835 
L 77.096085 256.671583 
L 71.127996 269.120248 
L 65.159907 264.972539 
L 59.191818 284.692595 
z
" style="fill:#d62728;fill-opacity:0.5;"/>
   </g>
   <g id="matplotlib.axis_1">
    <g id="xtick_1">
     <g id="line2d_1">
      <path clip-path="url(#p40ec3692ac)" d="M 59.191818 303.64 
L 59.191818 26.88 
" style="fill:none;stroke:#b0b0b0;stroke-linecap:square;stroke-width:0.8;"/>
     </g>
     <g id="line2d_2">
      <defs>
       <path d="M 0 0 
L 0 3.5 
" id="mc2a5a9c626" style="stroke:#000000;stroke-width:0.8;"/>
      </defs>
      <g>
       <use style="stroke:#000000;stroke-width:0.8;" x="59.191818" xlink:href="#mc2a5a9c626" y="303.64"/>
      </g>
     </g>
     <g id="text_1">
      <!-- 0 -->
      <g transform="translate(56.010568 318.238437)scale(0.1 -0.1)">
       <defs>
        <path d="M 2034 4250 
Q 1547 4250 1301 3770 
Q 1056 3291 1056 2328 
Q 1056 1369 1301 889 
Q 1547 409 2034 409 
Q 2525 409 2770 889 
Q 3016 1369 3016 2328 
Q 3016 3291 2770 3770 
Q 2525 4250 2034 4250 
z
M 2034 4750 
Q 2819 4750 3233 4129 
Q 3647 3509 3647 2328 
Q 3647 1150 3233 529 
Q 2819 -91 2034 -91 
Q 1250 -91 836 529 
Q 422 1150 422 2328 
Q 422 3509 836 4129 
Q 1250 4750 2034 4750 
z
" id="DejaVuSans-30" transform="scale(0.015625)"/>
       </defs>
       <use xlink:href="#DejaVuSans-30"/>
      </g>
     </g>
    </g>
    <g id="xtick_2">
     <g id="line2d_3">
      <path clip-path="url(#p40ec3692ac)" d="M 118.872709 303.64 
L 118.872709 26.88 
" style="fill:none;stroke:#b0b0b0;stroke-linecap:square;stroke-width:0.8;"/>
     </g>
     <g id="line2d_4">
      <g>
       <use style="stroke:#000000;stroke-width:0.8;" x="118.872709" xlink:href="#mc2a5a9c626" y="303.64"/>
      </g>
     </g>
     <g id="text_2">
      <!-- 10 -->
      <g transform="translate(112.510209 318.238437)scale(0.1 -0.1)">
       <defs>
        <path d="M 794 531 
L 1825 531 
L 1825 4091 
L 703 3866 
L 703 4441 
L 1819 4666 
L 2450 4666 
L 2450 531 
L 3481 531 
L 3481 0 
L 794 0 
L 794 531 
z
" id="DejaVuSans-31" transform="scale(0.015625)"/>
       </defs>
       <use xlink:href="#DejaVuSans-31"/>
       <use x="63.623047" xlink:href="#DejaVuSans-30"/>
      </g>
     </g>
    </g>
    <g id="xtick_3">
     <g id="line2d_5">
      <path clip-path="url(#p40ec3692ac)" d="M 178.553599 303.64 
L 178.553599 26.88 
" style="fill:none;stroke:#b0b0b0;stroke-linecap:square;stroke-width:0.8;"/>
     </g>
     <g id="line2d_6">
      <g>
       <use style="stroke:#000000;stroke-width:0.8;" x="178.553599" xlink:href="#mc2a5a9c626" y="303.64"/>
      </g>
     </g>
     <g id="text_3">
      <!-- 20 -->
      <g transform="translate(172.191099 318.238437)scale(0.1 -0.1)">
       <defs>
        <path d="M 1228 531 
L 3431 531 
L 3431 0 
L 469 0 
L 469 531 
Q 828 903 1448 1529 
Q 2069 2156 2228 2338 
Q 2531 2678 2651 2914 
Q 2772 3150 2772 3378 
Q 2772 3750 2511 3984 
Q 2250 4219 1831 4219 
Q 1534 4219 1204 4116 
Q 875 4013 500 3803 
L 500 4441 
Q 881 4594 1212 4672 
Q 1544 4750 1819 4750 
Q 2544 4750 2975 4387 
Q 3406 4025 3406 3419 
Q 3406 3131 3298 2873 
Q 3191 2616 2906 2266 
Q 2828 2175 2409 1742 
Q 1991 1309 1228 531 
z
" id="DejaVuSans-32" transform="scale(0.015625)"/>
       </defs>
       <use xlink:href="#DejaVuSans-32"/>
       <use x="63.623047" xlink:href="#DejaVuSans-30"/>
      </g>
     </g>
    </g>
    <g id="xtick_4">
     <g id="line2d_7">
      <path clip-path="url(#p40ec3692ac)" d="M 238.23449 303.64 
L 238.23449 26.88 
" style="fill:none;stroke:#b0b0b0;stroke-linecap:square;stroke-width:0.8;"/>
     </g>
     <g id="line2d_8">
      <g>
       <use style="stroke:#000000;stroke-width:0.8;" x="238.23449" xlink:href="#mc2a5a9c626" y="303.64"/>
      </g>
     </g>
     <g id="text_4">
      <!-- 30 -->
      <g transform="translate(231.87199 318.238437)scale(0.1 -0.1)">
       <defs>
        <path d="M 2597 2516 
Q 3050 2419 3304 2112 
Q 3559 1806 3559 1356 
Q 3559 666 3084 287 
Q 2609 -91 1734 -91 
Q 1441 -91 1130 -33 
Q 819 25 488 141 
L 488 750 
Q 750 597 1062 519 
Q 1375 441 1716 441 
Q 2309 441 2620 675 
Q 2931 909 2931 1356 
Q 2931 1769 2642 2001 
Q 2353 2234 1838 2234 
L 1294 2234 
L 1294 2753 
L 1863 2753 
Q 2328 2753 2575 2939 
Q 2822 3125 2822 3475 
Q 2822 3834 2567 4026 
Q 2313 4219 1838 4219 
Q 1578 4219 1281 4162 
Q 984 4106 628 3988 
L 628 4550 
Q 988 4650 1302 4700 
Q 1616 4750 1894 4750 
Q 2613 4750 3031 4423 
Q 3450 4097 3450 3541 
Q 3450 3153 3228 2886 
Q 3006 2619 2597 2516 
z
" id="DejaVuSans-33" transform="scale(0.015625)"/>
       </defs>
       <use xlink:href="#DejaVuSans-33"/>
       <use x="63.623047" xlink:href="#DejaVuSans-30"/>
      </g>
     </g>
    </g>
    <g id="xtick_5">
     <g id="line2d_9">
      <path clip-path="url(#p40ec3692ac)" d="M 297.91538 303.64 
L 297.91538 26.88 
" style="fill:none;stroke:#b0b0b0;stroke-linecap:square;stroke-width:0.8;"/>
     </g>
     <g id="line2d_10">
      <g>
       <use style="stroke:#000000;stroke-width:0.8;" x="297.91538" xlink:href="#mc2a5a9c626" y="303.64"/>
      </g>
     </g>
     <g id="text_5">
      <!-- 40 -->
      <g transform="translate(291.55288 318.238437)scale(0.1 -0.1)">
       <defs>
        <path d="M 2419 4116 
L 825 1625 
L 2419 1625 
L 2419 4116 
z
M 2253 4666 
L 3047 4666 
L 3047 1625 
L 3713 1625 
L 3713 1100 
L 3047 1100 
L 3047 0 
L 2419 0 
L 2419 1100 
L 313 1100 
L 313 1709 
L 2253 4666 
z
" id="DejaVuSans-34" transform="scale(0.015625)"/>
       </defs>
       <use xlink:href="#DejaVuSans-34"/>
       <use x="63.623047" xlink:href="#DejaVuSans-30"/>
      </g>
     </g>
    </g>
    <g id="xtick_6">
     <g id="line2d_11">
      <path clip-path="url(#p40ec3692ac)" d="M 357.596271 303.64 
L 357.596271 26.88 
" style="fill:none;stroke:#b0b0b0;stroke-linecap:square;stroke-width:0.8;"/>
     </g>
     <g id="line2d_12">
      <g>
       <use style="stroke:#000000;stroke-width:0.8;" x="357.596271" xlink:href="#mc2a5a9c626" y="303.64"/>
      </g>
     </g>
     <g id="text_6">
      <!-- 50 -->
      <g transform="translate(351.233771 318.238437)scale(0.1 -0.1)">
       <defs>
        <path d="M 691 4666 
L 3169 4666 
L 3169 4134 
L 1269 4134 
L 1269 2991 
Q 1406 3038 1543 3061 
Q 1681 3084 1819 3084 
Q 2600 3084 3056 2656 
Q 3513 2228 3513 1497 
Q 3513 744 3044 326 
Q 2575 -91 1722 -91 
Q 1428 -91 1123 -41 
Q 819 9 494 109 
L 494 744 
Q 775 591 1075 516 
Q 1375 441 1709 441 
Q 2250 441 2565 725 
Q 2881 1009 2881 1497 
Q 2881 1984 2565 2268 
Q 2250 2553 1709 2553 
Q 1456 2553 1204 2497 
Q 953 2441 691 2322 
L 691 4666 
z
" id="DejaVuSans-35" transform="scale(0.015625)"/>
       </defs>
       <use xlink:href="#DejaVuSans-35"/>
       <use x="63.623047" xlink:href="#DejaVuSans-30"/>
      </g>
     </g>
    </g>
    <g id="text_7">
     <!-- Global Communication Rounds -->
     <g transform="translate(128.448281 331.916562)scale(0.1 -0.1)">
      <defs>
       <path d="M 3809 666 
L 3809 1919 
L 2778 1919 
L 2778 2438 
L 4434 2438 
L 4434 434 
Q 4069 175 3628 42 
Q 3188 -91 2688 -91 
Q 1594 -91 976 548 
Q 359 1188 359 2328 
Q 359 3472 976 4111 
Q 1594 4750 2688 4750 
Q 3144 4750 3555 4637 
Q 3966 4525 4313 4306 
L 4313 3634 
Q 3963 3931 3569 4081 
Q 3175 4231 2741 4231 
Q 1884 4231 1454 3753 
Q 1025 3275 1025 2328 
Q 1025 1384 1454 906 
Q 1884 428 2741 428 
Q 3075 428 3337 486 
Q 3600 544 3809 666 
z
" id="DejaVuSans-47" transform="scale(0.015625)"/>
       <path d="M 603 4863 
L 1178 4863 
L 1178 0 
L 603 0 
L 603 4863 
z
" id="DejaVuSans-6c" transform="scale(0.015625)"/>
       <path d="M 1959 3097 
Q 1497 3097 1228 2736 
Q 959 2375 959 1747 
Q 959 1119 1226 758 
Q 1494 397 1959 397 
Q 2419 397 2687 759 
Q 2956 1122 2956 1747 
Q 2956 2369 2687 2733 
Q 2419 3097 1959 3097 
z
M 1959 3584 
Q 2709 3584 3137 3096 
Q 3566 2609 3566 1747 
Q 3566 888 3137 398 
Q 2709 -91 1959 -91 
Q 1206 -91 779 398 
Q 353 888 353 1747 
Q 353 2609 779 3096 
Q 1206 3584 1959 3584 
z
" id="DejaVuSans-6f" transform="scale(0.015625)"/>
       <path d="M 3116 1747 
Q 3116 2381 2855 2742 
Q 2594 3103 2138 3103 
Q 1681 3103 1420 2742 
Q 1159 2381 1159 1747 
Q 1159 1113 1420 752 
Q 1681 391 2138 391 
Q 2594 391 2855 752 
Q 3116 1113 3116 1747 
z
M 1159 2969 
Q 1341 3281 1617 3432 
Q 1894 3584 2278 3584 
Q 2916 3584 3314 3078 
Q 3713 2572 3713 1747 
Q 3713 922 3314 415 
Q 2916 -91 2278 -91 
Q 1894 -91 1617 61 
Q 1341 213 1159 525 
L 1159 0 
L 581 0 
L 581 4863 
L 1159 4863 
L 1159 2969 
z
" id="DejaVuSans-62" transform="scale(0.015625)"/>
       <path d="M 2194 1759 
Q 1497 1759 1228 1600 
Q 959 1441 959 1056 
Q 959 750 1161 570 
Q 1363 391 1709 391 
Q 2188 391 2477 730 
Q 2766 1069 2766 1631 
L 2766 1759 
L 2194 1759 
z
M 3341 1997 
L 3341 0 
L 2766 0 
L 2766 531 
Q 2569 213 2275 61 
Q 1981 -91 1556 -91 
Q 1019 -91 701 211 
Q 384 513 384 1019 
Q 384 1609 779 1909 
Q 1175 2209 1959 2209 
L 2766 2209 
L 2766 2266 
Q 2766 2663 2505 2880 
Q 2244 3097 1772 3097 
Q 1472 3097 1187 3025 
Q 903 2953 641 2809 
L 641 3341 
Q 956 3463 1253 3523 
Q 1550 3584 1831 3584 
Q 2591 3584 2966 3190 
Q 3341 2797 3341 1997 
z
" id="DejaVuSans-61" transform="scale(0.015625)"/>
       <path id="DejaVuSans-20" transform="scale(0.015625)"/>
       <path d="M 4122 4306 
L 4122 3641 
Q 3803 3938 3442 4084 
Q 3081 4231 2675 4231 
Q 1875 4231 1450 3742 
Q 1025 3253 1025 2328 
Q 1025 1406 1450 917 
Q 1875 428 2675 428 
Q 3081 428 3442 575 
Q 3803 722 4122 1019 
L 4122 359 
Q 3791 134 3420 21 
Q 3050 -91 2638 -91 
Q 1578 -91 968 557 
Q 359 1206 359 2328 
Q 359 3453 968 4101 
Q 1578 4750 2638 4750 
Q 3056 4750 3426 4639 
Q 3797 4528 4122 4306 
z
" id="DejaVuSans-43" transform="scale(0.015625)"/>
       <path d="M 3328 2828 
Q 3544 3216 3844 3400 
Q 4144 3584 4550 3584 
Q 5097 3584 5394 3201 
Q 5691 2819 5691 2113 
L 5691 0 
L 5113 0 
L 5113 2094 
Q 5113 2597 4934 2840 
Q 4756 3084 4391 3084 
Q 3944 3084 3684 2787 
Q 3425 2491 3425 1978 
L 3425 0 
L 2847 0 
L 2847 2094 
Q 2847 2600 2669 2842 
Q 2491 3084 2119 3084 
Q 1678 3084 1418 2786 
Q 1159 2488 1159 1978 
L 1159 0 
L 581 0 
L 581 3500 
L 1159 3500 
L 1159 2956 
Q 1356 3278 1631 3431 
Q 1906 3584 2284 3584 
Q 2666 3584 2933 3390 
Q 3200 3197 3328 2828 
z
" id="DejaVuSans-6d" transform="scale(0.015625)"/>
       <path d="M 544 1381 
L 544 3500 
L 1119 3500 
L 1119 1403 
Q 1119 906 1312 657 
Q 1506 409 1894 409 
Q 2359 409 2629 706 
Q 2900 1003 2900 1516 
L 2900 3500 
L 3475 3500 
L 3475 0 
L 2900 0 
L 2900 538 
Q 2691 219 2414 64 
Q 2138 -91 1772 -91 
Q 1169 -91 856 284 
Q 544 659 544 1381 
z
M 1991 3584 
L 1991 3584 
z
" id="DejaVuSans-75" transform="scale(0.015625)"/>
       <path d="M 3513 2113 
L 3513 0 
L 2938 0 
L 2938 2094 
Q 2938 2591 2744 2837 
Q 2550 3084 2163 3084 
Q 1697 3084 1428 2787 
Q 1159 2491 1159 1978 
L 1159 0 
L 581 0 
L 581 3500 
L 1159 3500 
L 1159 2956 
Q 1366 3272 1645 3428 
Q 1925 3584 2291 3584 
Q 2894 3584 3203 3211 
Q 3513 2838 3513 2113 
z
" id="DejaVuSans-6e" transform="scale(0.015625)"/>
       <path d="M 603 3500 
L 1178 3500 
L 1178 0 
L 603 0 
L 603 3500 
z
M 603 4863 
L 1178 4863 
L 1178 4134 
L 603 4134 
L 603 4863 
z
" id="DejaVuSans-69" transform="scale(0.015625)"/>
       <path d="M 3122 3366 
L 3122 2828 
Q 2878 2963 2633 3030 
Q 2388 3097 2138 3097 
Q 1578 3097 1268 2742 
Q 959 2388 959 1747 
Q 959 1106 1268 751 
Q 1578 397 2138 397 
Q 2388 397 2633 464 
Q 2878 531 3122 666 
L 3122 134 
Q 2881 22 2623 -34 
Q 2366 -91 2075 -91 
Q 1284 -91 818 406 
Q 353 903 353 1747 
Q 353 2603 823 3093 
Q 1294 3584 2113 3584 
Q 2378 3584 2631 3529 
Q 2884 3475 3122 3366 
z
" id="DejaVuSans-63" transform="scale(0.015625)"/>
       <path d="M 1172 4494 
L 1172 3500 
L 2356 3500 
L 2356 3053 
L 1172 3053 
L 1172 1153 
Q 1172 725 1289 603 
Q 1406 481 1766 481 
L 2356 481 
L 2356 0 
L 1766 0 
Q 1100 0 847 248 
Q 594 497 594 1153 
L 594 3053 
L 172 3053 
L 172 3500 
L 594 3500 
L 594 4494 
L 1172 4494 
z
" id="DejaVuSans-74" transform="scale(0.015625)"/>
       <path d="M 2841 2188 
Q 3044 2119 3236 1894 
Q 3428 1669 3622 1275 
L 4263 0 
L 3584 0 
L 2988 1197 
Q 2756 1666 2539 1819 
Q 2322 1972 1947 1972 
L 1259 1972 
L 1259 0 
L 628 0 
L 628 4666 
L 2053 4666 
Q 2853 4666 3247 4331 
Q 3641 3997 3641 3322 
Q 3641 2881 3436 2590 
Q 3231 2300 2841 2188 
z
M 1259 4147 
L 1259 2491 
L 2053 2491 
Q 2509 2491 2742 2702 
Q 2975 2913 2975 3322 
Q 2975 3731 2742 3939 
Q 2509 4147 2053 4147 
L 1259 4147 
z
" id="DejaVuSans-52" transform="scale(0.015625)"/>
       <path d="M 2906 2969 
L 2906 4863 
L 3481 4863 
L 3481 0 
L 2906 0 
L 2906 525 
Q 2725 213 2448 61 
Q 2172 -91 1784 -91 
Q 1150 -91 751 415 
Q 353 922 353 1747 
Q 353 2572 751 3078 
Q 1150 3584 1784 3584 
Q 2172 3584 2448 3432 
Q 2725 3281 2906 2969 
z
M 947 1747 
Q 947 1113 1208 752 
Q 1469 391 1925 391 
Q 2381 391 2643 752 
Q 2906 1113 2906 1747 
Q 2906 2381 2643 2742 
Q 2381 3103 1925 3103 
Q 1469 3103 1208 2742 
Q 947 2381 947 1747 
z
" id="DejaVuSans-64" transform="scale(0.015625)"/>
       <path d="M 2834 3397 
L 2834 2853 
Q 2591 2978 2328 3040 
Q 2066 3103 1784 3103 
Q 1356 3103 1142 2972 
Q 928 2841 928 2578 
Q 928 2378 1081 2264 
Q 1234 2150 1697 2047 
L 1894 2003 
Q 2506 1872 2764 1633 
Q 3022 1394 3022 966 
Q 3022 478 2636 193 
Q 2250 -91 1575 -91 
Q 1294 -91 989 -36 
Q 684 19 347 128 
L 347 722 
Q 666 556 975 473 
Q 1284 391 1588 391 
Q 1994 391 2212 530 
Q 2431 669 2431 922 
Q 2431 1156 2273 1281 
Q 2116 1406 1581 1522 
L 1381 1569 
Q 847 1681 609 1914 
Q 372 2147 372 2553 
Q 372 3047 722 3315 
Q 1072 3584 1716 3584 
Q 2034 3584 2315 3537 
Q 2597 3491 2834 3397 
z
" id="DejaVuSans-73" transform="scale(0.015625)"/>
      </defs>
      <use xlink:href="#DejaVuSans-47"/>
      <use x="77.490234" xlink:href="#DejaVuSans-6c"/>
      <use x="105.273438" xlink:href="#DejaVuSans-6f"/>
      <use x="166.455078" xlink:href="#DejaVuSans-62"/>
      <use x="229.931641" xlink:href="#DejaVuSans-61"/>
      <use x="291.210938" xlink:href="#DejaVuSans-6c"/>
      <use x="318.994141" xlink:href="#DejaVuSans-20"/>
      <use x="350.78125" xlink:href="#DejaVuSans-43"/>
      <use x="420.605469" xlink:href="#DejaVuSans-6f"/>
      <use x="481.787109" xlink:href="#DejaVuSans-6d"/>
      <use x="579.199219" xlink:href="#DejaVuSans-6d"/>
      <use x="676.611328" xlink:href="#DejaVuSans-75"/>
      <use x="739.990234" xlink:href="#DejaVuSans-6e"/>
      <use x="803.369141" xlink:href="#DejaVuSans-69"/>
      <use x="831.152344" xlink:href="#DejaVuSans-63"/>
      <use x="886.132812" xlink:href="#DejaVuSans-61"/>
      <use x="947.412109" xlink:href="#DejaVuSans-74"/>
      <use x="986.621094" xlink:href="#DejaVuSans-69"/>
      <use x="1014.404297" xlink:href="#DejaVuSans-6f"/>
      <use x="1075.585938" xlink:href="#DejaVuSans-6e"/>
      <use x="1138.964844" xlink:href="#DejaVuSans-20"/>
      <use x="1170.751953" xlink:href="#DejaVuSans-52"/>
      <use x="1235.734375" xlink:href="#DejaVuSans-6f"/>
      <use x="1296.916016" xlink:href="#DejaVuSans-75"/>
      <use x="1360.294922" xlink:href="#DejaVuSans-6e"/>
      <use x="1423.673828" xlink:href="#DejaVuSans-64"/>
      <use x="1487.150391" xlink:href="#DejaVuSans-73"/>
     </g>
    </g>
   </g>
   <g id="matplotlib.axis_2">
    <g id="ytick_1">
     <g id="line2d_13">
      <path clip-path="url(#p40ec3692ac)" d="M 44.57 284.692595 
L 366.25 284.692595 
" style="fill:none;stroke:#b0b0b0;stroke-linecap:square;stroke-width:0.8;"/>
     </g>
     <g id="line2d_14">
      <defs>
       <path d="M 0 0 
L -3.5 0 
" id="m1941ee1696" style="stroke:#000000;stroke-width:0.8;"/>
      </defs>
      <g>
       <use style="stroke:#000000;stroke-width:0.8;" x="44.57" xlink:href="#m1941ee1696" y="284.692595"/>
      </g>
     </g>
     <g id="text_8">
      <!-- 10 -->
      <g transform="translate(24.845 288.491814)scale(0.1 -0.1)">
       <use xlink:href="#DejaVuSans-31"/>
       <use x="63.623047" xlink:href="#DejaVuSans-30"/>
      </g>
     </g>
    </g>
    <g id="ytick_2">
     <g id="line2d_15">
      <path clip-path="url(#p40ec3692ac)" d="M 44.57 240.243025 
L 366.25 240.243025 
" style="fill:none;stroke:#b0b0b0;stroke-linecap:square;stroke-width:0.8;"/>
     </g>
     <g id="line2d_16">
      <g>
       <use style="stroke:#000000;stroke-width:0.8;" x="44.57" xlink:href="#m1941ee1696" y="240.243025"/>
      </g>
     </g>
     <g id="text_9">
      <!-- 20 -->
      <g transform="translate(24.845 244.042244)scale(0.1 -0.1)">
       <use xlink:href="#DejaVuSans-32"/>
       <use x="63.623047" xlink:href="#DejaVuSans-30"/>
      </g>
     </g>
    </g>
    <g id="ytick_3">
     <g id="line2d_17">
      <path clip-path="url(#p40ec3692ac)" d="M 44.57 195.793456 
L 366.25 195.793456 
" style="fill:none;stroke:#b0b0b0;stroke-linecap:square;stroke-width:0.8;"/>
     </g>
     <g id="line2d_18">
      <g>
       <use style="stroke:#000000;stroke-width:0.8;" x="44.57" xlink:href="#m1941ee1696" y="195.793456"/>
      </g>
     </g>
     <g id="text_10">
      <!-- 30 -->
      <g transform="translate(24.845 199.592675)scale(0.1 -0.1)">
       <use xlink:href="#DejaVuSans-33"/>
       <use x="63.623047" xlink:href="#DejaVuSans-30"/>
      </g>
     </g>
    </g>
    <g id="ytick_4">
     <g id="line2d_19">
      <path clip-path="url(#p40ec3692ac)" d="M 44.57 151.343886 
L 366.25 151.343886 
" style="fill:none;stroke:#b0b0b0;stroke-linecap:square;stroke-width:0.8;"/>
     </g>
     <g id="line2d_20">
      <g>
       <use style="stroke:#000000;stroke-width:0.8;" x="44.57" xlink:href="#m1941ee1696" y="151.343886"/>
      </g>
     </g>
     <g id="text_11">
      <!-- 40 -->
      <g transform="translate(24.845 155.143105)scale(0.1 -0.1)">
       <use xlink:href="#DejaVuSans-34"/>
       <use x="63.623047" xlink:href="#DejaVuSans-30"/>
      </g>
     </g>
    </g>
    <g id="ytick_5">
     <g id="line2d_21">
      <path clip-path="url(#p40ec3692ac)" d="M 44.57 106.894317 
L 366.25 106.894317 
" style="fill:none;stroke:#b0b0b0;stroke-linecap:square;stroke-width:0.8;"/>
     </g>
     <g id="line2d_22">
      <g>
       <use style="stroke:#000000;stroke-width:0.8;" x="44.57" xlink:href="#m1941ee1696" y="106.894317"/>
      </g>
     </g>
     <g id="text_12">
      <!-- 50 -->
      <g transform="translate(24.845 110.693536)scale(0.1 -0.1)">
       <use xlink:href="#DejaVuSans-35"/>
       <use x="63.623047" xlink:href="#DejaVuSans-30"/>
      </g>
     </g>
    </g>
    <g id="ytick_6">
     <g id="line2d_23">
      <path clip-path="url(#p40ec3692ac)" d="M 44.57 62.444748 
L 366.25 62.444748 
" style="fill:none;stroke:#b0b0b0;stroke-linecap:square;stroke-width:0.8;"/>
     </g>
     <g id="line2d_24">
      <g>
       <use style="stroke:#000000;stroke-width:0.8;" x="44.57" xlink:href="#m1941ee1696" y="62.444748"/>
      </g>
     </g>
     <g id="text_13">
      <!-- 60 -->
      <g transform="translate(24.845 66.243966)scale(0.1 -0.1)">
       <defs>
        <path d="M 2113 2584 
Q 1688 2584 1439 2293 
Q 1191 2003 1191 1497 
Q 1191 994 1439 701 
Q 1688 409 2113 409 
Q 2538 409 2786 701 
Q 3034 994 3034 1497 
Q 3034 2003 2786 2293 
Q 2538 2584 2113 2584 
z
M 3366 4563 
L 3366 3988 
Q 3128 4100 2886 4159 
Q 2644 4219 2406 4219 
Q 1781 4219 1451 3797 
Q 1122 3375 1075 2522 
Q 1259 2794 1537 2939 
Q 1816 3084 2150 3084 
Q 2853 3084 3261 2657 
Q 3669 2231 3669 1497 
Q 3669 778 3244 343 
Q 2819 -91 2113 -91 
Q 1303 -91 875 529 
Q 447 1150 447 2328 
Q 447 3434 972 4092 
Q 1497 4750 2381 4750 
Q 2619 4750 2861 4703 
Q 3103 4656 3366 4563 
z
" id="DejaVuSans-36" transform="scale(0.015625)"/>
       </defs>
       <use xlink:href="#DejaVuSans-36"/>
       <use x="63.623047" xlink:href="#DejaVuSans-30"/>
      </g>
     </g>
    </g>
    <g id="text_14">
     <!-- Test Accuracy -->
     <g transform="translate(18.765313 199.5225)rotate(-90)scale(0.1 -0.1)">
      <defs>
       <path d="M -19 4666 
L 3928 4666 
L 3928 4134 
L 2272 4134 
L 2272 0 
L 1638 0 
L 1638 4134 
L -19 4134 
L -19 4666 
z
" id="DejaVuSans-54" transform="scale(0.015625)"/>
       <path d="M 3597 1894 
L 3597 1613 
L 953 1613 
Q 991 1019 1311 708 
Q 1631 397 2203 397 
Q 2534 397 2845 478 
Q 3156 559 3463 722 
L 3463 178 
Q 3153 47 2828 -22 
Q 2503 -91 2169 -91 
Q 1331 -91 842 396 
Q 353 884 353 1716 
Q 353 2575 817 3079 
Q 1281 3584 2069 3584 
Q 2775 3584 3186 3129 
Q 3597 2675 3597 1894 
z
M 3022 2063 
Q 3016 2534 2758 2815 
Q 2500 3097 2075 3097 
Q 1594 3097 1305 2825 
Q 1016 2553 972 2059 
L 3022 2063 
z
" id="DejaVuSans-65" transform="scale(0.015625)"/>
       <path d="M 2188 4044 
L 1331 1722 
L 3047 1722 
L 2188 4044 
z
M 1831 4666 
L 2547 4666 
L 4325 0 
L 3669 0 
L 3244 1197 
L 1141 1197 
L 716 0 
L 50 0 
L 1831 4666 
z
" id="DejaVuSans-41" transform="scale(0.015625)"/>
       <path d="M 2631 2963 
Q 2534 3019 2420 3045 
Q 2306 3072 2169 3072 
Q 1681 3072 1420 2755 
Q 1159 2438 1159 1844 
L 1159 0 
L 581 0 
L 581 3500 
L 1159 3500 
L 1159 2956 
Q 1341 3275 1631 3429 
Q 1922 3584 2338 3584 
Q 2397 3584 2469 3576 
Q 2541 3569 2628 3553 
L 2631 2963 
z
" id="DejaVuSans-72" transform="scale(0.015625)"/>
       <path d="M 2059 -325 
Q 1816 -950 1584 -1140 
Q 1353 -1331 966 -1331 
L 506 -1331 
L 506 -850 
L 844 -850 
Q 1081 -850 1212 -737 
Q 1344 -625 1503 -206 
L 1606 56 
L 191 3500 
L 800 3500 
L 1894 763 
L 2988 3500 
L 3597 3500 
L 2059 -325 
z
" id="DejaVuSans-79" transform="scale(0.015625)"/>
      </defs>
      <use xlink:href="#DejaVuSans-54"/>
      <use x="44.083984" xlink:href="#DejaVuSans-65"/>
      <use x="105.607422" xlink:href="#DejaVuSans-73"/>
      <use x="157.707031" xlink:href="#DejaVuSans-74"/>
      <use x="196.916016" xlink:href="#DejaVuSans-20"/>
      <use x="228.703125" xlink:href="#DejaVuSans-41"/>
      <use x="295.361328" xlink:href="#DejaVuSans-63"/>
      <use x="350.341797" xlink:href="#DejaVuSans-63"/>
      <use x="405.322266" xlink:href="#DejaVuSans-75"/>
      <use x="468.701172" xlink:href="#DejaVuSans-72"/>
      <use x="509.814453" xlink:href="#DejaVuSans-61"/>
      <use x="571.09375" xlink:href="#DejaVuSans-63"/>
      <use x="626.074219" xlink:href="#DejaVuSans-79"/>
     </g>
    </g>
   </g>
   <g id="line2d_25">
    <path clip-path="url(#p40ec3692ac)" d="M 59.191818 286.268023 
L 65.159907 280.754025 
L 71.127996 256.559956 
L 77.096085 251.833673 
L 83.064174 247.107389 
L 89.032263 236.642048 
L 95.000353 232.816009 
L 100.968442 217.061731 
L 106.936531 225.0514 
L 112.90462 228.314786 
L 118.872709 195.343334 
L 124.840798 204.458309 
L 130.808887 189.379214 
L 136.776976 184.315339 
L 142.745065 175.650486 
L 148.713154 182.40232 
L 154.681243 182.627381 
L 160.649332 176.888323 
L 166.617421 174.525181 
L 172.58551 174.30012 
L 178.553599 165.747798 
L 184.521688 149.205806 
L 190.489777 145.829889 
L 196.457866 152.01907 
L 202.425955 135.589609 
L 208.394045 141.103606 
L 214.362134 130.750795 
L 220.330223 137.727689 
L 226.298312 130.638264 
L 232.266401 135.364548 
L 238.23449 118.822556 
L 244.202579 113.083498 
L 250.170668 109.144928 
L 256.138757 107.45697 
L 262.106846 99.917423 
L 268.074935 89.001959 
L 274.043024 114.321334 
L 280.011113 96.316445 
L 285.979202 96.654036 
L 291.947291 84.388206 
L 297.91538 88.326775 
L 303.883469 95.528731 
L 309.851558 90.914978 
L 315.819647 86.076164 
L 321.787737 83.713023 
L 327.755826 55.017731 
L 333.723915 77.07372 
L 339.692004 78.424086 
L 345.660093 67.621153 
L 351.628182 67.396092 
" style="fill:none;stroke:#1f77b4;stroke-linecap:square;stroke-width:1.5;"/>
   </g>
   <g id="line2d_26">
    <path clip-path="url(#p40ec3692ac)" d="M 59.191818 287.055736 
L 65.159907 283.342228 
L 71.127996 269.050848 
L 77.096085 263.986973 
L 83.064174 273.6646 
L 89.032263 263.086728 
L 95.000353 255.772242 
L 100.968442 262.411545 
L 106.936531 253.29657 
L 112.90462 266.462645 
L 118.872709 249.920653 
L 124.840798 242.606167 
L 130.808887 250.145714 
L 136.776976 233.603723 
L 142.745065 246.882328 
L 148.713154 246.207145 
L 154.681243 229.1025 
L 160.649332 256.897548 
L 166.617421 243.956534 
L 172.58551 242.268575 
L 178.553599 233.266131 
L 184.521688 250.820898 
L 190.489777 231.353111 
L 196.457866 237.879884 
L 202.425955 244.744248 
L 208.394045 248.457756 
L 214.362134 214.81112 
L 220.330223 247.33245 
L 226.298312 230.452867 
L 232.266401 225.0514 
L 238.23449 222.125606 
L 244.202579 220.550178 
L 250.170668 223.250911 
L 256.138757 213.910875 
L 262.106846 205.246023 
L 268.074935 201.307453 
L 274.043024 216.83667 
L 280.011113 198.044067 
L 285.979202 197.256353 
L 291.947291 182.739911 
L 297.91538 192.079948 
L 303.883469 199.957086 
L 309.851558 209.297123 
L 315.819647 220.437648 
L 321.787737 218.86222 
L 327.755826 173.174814 
L 333.723915 185.665706 
L 339.692004 185.778236 
L 345.660093 198.71925 
L 351.628182 184.990523 
" style="fill:none;stroke:#ff7f0e;stroke-linecap:square;stroke-width:1.5;"/>
   </g>
   <g id="line2d_27">
    <path clip-path="url(#p40ec3692ac)" d="M 59.191818 280.979086 
L 65.159907 272.314234 
L 71.127996 250.708367 
L 77.096085 248.457756 
L 83.064174 248.907878 
L 89.032263 238.667598 
L 95.000353 235.291681 
L 100.968442 229.440092 
L 106.936531 224.713809 
L 112.90462 225.614053 
L 118.872709 214.586059 
L 124.840798 206.82145 
L 130.808887 213.910875 
L 136.776976 206.596389 
L 142.745065 187.016073 
L 148.713154 174.30012 
L 154.681243 188.366439 
L 160.649332 180.4893 
L 166.617421 179.701586 
L 172.58551 175.087834 
L 178.553599 178.126159 
L 184.521688 171.036734 
L 190.489777 168.336 
L 196.457866 162.484411 
L 202.425955 176.32567 
L 208.394045 171.036734 
L 214.362134 175.200364 
L 220.330223 148.868214 
L 226.298312 148.530623 
L 232.266401 147.067725 
L 238.23449 129.85055 
L 244.202579 126.924756 
L 250.170668 128.612714 
L 256.138757 133.451528 
L 262.106846 127.599939 
L 268.074935 129.963081 
L 274.043024 125.79945 
L 280.011113 119.497739 
L 285.979202 121.298228 
L 291.947291 128.837775 
L 297.91538 114.883986 
L 303.883469 110.270234 
L 309.851558 106.894317 
L 315.819647 117.134598 
L 321.787737 100.705136 
L 327.755826 120.060392 
L 333.723915 102.505625 
L 339.692004 94.628486 
L 345.660093 100.142484 
L 351.628182 110.270234 
" style="fill:none;stroke:#2ca02c;stroke-linecap:square;stroke-width:1.5;"/>
   </g>
   <g id="line2d_28">
    <path clip-path="url(#p40ec3692ac)" d="M 59.191818 284.692595 
L 65.159907 278.016269 
L 71.127996 277.625113 
L 77.096085 268.735199 
L 83.064174 261.214332 
L 89.032263 254.564677 
L 95.000353 245.061359 
L 100.968442 238.438373 
L 106.936531 231.610919 
L 112.90462 229.984065 
L 118.872709 221.058591 
L 124.840798 218.03602 
L 130.808887 215.466835 
L 136.776976 210.737401 
L 142.745065 203.287653 
L 148.713154 205.927958 
L 154.681243 200.042835 
L 160.649332 202.914277 
L 166.617421 198.869366 
L 172.58551 197.242512 
L 178.553599 191.810774 
L 184.521688 191.152921 
L 190.489777 189.072681 
L 196.457866 188.788204 
L 202.425955 188.859323 
L 208.394045 186.379037 
L 214.362134 184.858862 
L 220.330223 180.742832 
L 226.298312 177.275765 
L 232.266401 176.946838 
L 238.23449 173.73758 
L 244.202579 178.795941 
L 250.170668 167.407961 
L 256.138757 175.391104 
L 262.106846 167.692438 
L 268.074935 165.532189 
L 274.043024 163.309711 
L 280.011113 164.36761 
L 285.979202 159.167011 
L 291.947291 163.496399 
L 297.91538 157.015652 
L 303.883469 156.757844 
L 309.851558 153.761943 
L 315.819647 154.304228 
L 321.787737 154.810953 
L 327.755826 154.713164 
L 333.723915 155.504366 
L 339.692004 150.863831 
L 345.660093 148.347985 
L 351.628182 150.783822 
" style="fill:none;stroke:#d62728;stroke-linecap:square;stroke-width:1.5;"/>
   </g>
   <g id="patch_3">
    <path d="M 44.57 303.64 
L 44.57 26.88 
" style="fill:none;stroke:#000000;stroke-linecap:square;stroke-linejoin:miter;stroke-width:0.8;"/>
   </g>
   <g id="patch_4">
    <path d="M 366.25 303.64 
L 366.25 26.88 
" style="fill:none;stroke:#000000;stroke-linecap:square;stroke-linejoin:miter;stroke-width:0.8;"/>
   </g>
   <g id="patch_5">
    <path d="M 44.57 303.64 
L 366.25 303.64 
" style="fill:none;stroke:#000000;stroke-linecap:square;stroke-linejoin:miter;stroke-width:0.8;"/>
   </g>
   <g id="patch_6">
    <path d="M 44.57 26.88 
L 366.25 26.88 
" style="fill:none;stroke:#000000;stroke-linecap:square;stroke-linejoin:miter;stroke-width:0.8;"/>
   </g>
   <g id="text_15">
    <!-- CIFAR Local Rounds 05 -->
    <g transform="translate(137.255625 20.88)scale(0.12 -0.12)">
     <defs>
      <path d="M 628 4666 
L 1259 4666 
L 1259 0 
L 628 0 
L 628 4666 
z
" id="DejaVuSans-49" transform="scale(0.015625)"/>
      <path d="M 628 4666 
L 3309 4666 
L 3309 4134 
L 1259 4134 
L 1259 2759 
L 3109 2759 
L 3109 2228 
L 1259 2228 
L 1259 0 
L 628 0 
L 628 4666 
z
" id="DejaVuSans-46" transform="scale(0.015625)"/>
      <path d="M 628 4666 
L 1259 4666 
L 1259 531 
L 3531 531 
L 3531 0 
L 628 0 
L 628 4666 
z
" id="DejaVuSans-4c" transform="scale(0.015625)"/>
     </defs>
     <use xlink:href="#DejaVuSans-43"/>
     <use x="69.824219" xlink:href="#DejaVuSans-49"/>
     <use x="99.316406" xlink:href="#DejaVuSans-46"/>
     <use x="147.710938" xlink:href="#DejaVuSans-41"/>
     <use x="216.119141" xlink:href="#DejaVuSans-52"/>
     <use x="285.601562" xlink:href="#DejaVuSans-20"/>
     <use x="317.388672" xlink:href="#DejaVuSans-4c"/>
     <use x="371.351562" xlink:href="#DejaVuSans-6f"/>
     <use x="432.533203" xlink:href="#DejaVuSans-63"/>
     <use x="487.513672" xlink:href="#DejaVuSans-61"/>
     <use x="548.792969" xlink:href="#DejaVuSans-6c"/>
     <use x="576.576172" xlink:href="#DejaVuSans-20"/>
     <use x="608.363281" xlink:href="#DejaVuSans-52"/>
     <use x="673.345703" xlink:href="#DejaVuSans-6f"/>
     <use x="734.527344" xlink:href="#DejaVuSans-75"/>
     <use x="797.90625" xlink:href="#DejaVuSans-6e"/>
     <use x="861.285156" xlink:href="#DejaVuSans-64"/>
     <use x="924.761719" xlink:href="#DejaVuSans-73"/>
     <use x="976.861328" xlink:href="#DejaVuSans-20"/>
     <use x="1008.648438" xlink:href="#DejaVuSans-30"/>
     <use x="1072.271484" xlink:href="#DejaVuSans-35"/>
    </g>
   </g>
   <g id="legend_1">
    <g id="patch_7">
     <path d="M 373.25 196.11625 
L 447.821875 196.11625 
Q 449.821875 196.11625 449.821875 194.11625 
L 449.821875 136.40375 
Q 449.821875 134.40375 447.821875 134.40375 
L 373.25 134.40375 
Q 371.25 134.40375 371.25 136.40375 
L 371.25 194.11625 
Q 371.25 196.11625 373.25 196.11625 
z
" style="fill:#ffffff;opacity:0.8;stroke:#cccccc;stroke-linejoin:miter;"/>
    </g>
    <g id="line2d_29">
     <path d="M 375.25 142.502187 
L 395.25 142.502187 
" style="fill:none;stroke:#1f77b4;stroke-linecap:square;stroke-width:1.5;"/>
    </g>
    <g id="line2d_30"/>
    <g id="text_16">
     <!-- FedAvg -->
     <g transform="translate(403.25 146.002187)scale(0.1 -0.1)">
      <defs>
       <path d="M 191 3500 
L 800 3500 
L 1894 563 
L 2988 3500 
L 3597 3500 
L 2284 0 
L 1503 0 
L 191 3500 
z
" id="DejaVuSans-76" transform="scale(0.015625)"/>
       <path d="M 2906 1791 
Q 2906 2416 2648 2759 
Q 2391 3103 1925 3103 
Q 1463 3103 1205 2759 
Q 947 2416 947 1791 
Q 947 1169 1205 825 
Q 1463 481 1925 481 
Q 2391 481 2648 825 
Q 2906 1169 2906 1791 
z
M 3481 434 
Q 3481 -459 3084 -895 
Q 2688 -1331 1869 -1331 
Q 1566 -1331 1297 -1286 
Q 1028 -1241 775 -1147 
L 775 -588 
Q 1028 -725 1275 -790 
Q 1522 -856 1778 -856 
Q 2344 -856 2625 -561 
Q 2906 -266 2906 331 
L 2906 616 
Q 2728 306 2450 153 
Q 2172 0 1784 0 
Q 1141 0 747 490 
Q 353 981 353 1791 
Q 353 2603 747 3093 
Q 1141 3584 1784 3584 
Q 2172 3584 2450 3431 
Q 2728 3278 2906 2969 
L 2906 3500 
L 3481 3500 
L 3481 434 
z
" id="DejaVuSans-67" transform="scale(0.015625)"/>
      </defs>
      <use xlink:href="#DejaVuSans-46"/>
      <use x="52.019531" xlink:href="#DejaVuSans-65"/>
      <use x="113.542969" xlink:href="#DejaVuSans-64"/>
      <use x="177.019531" xlink:href="#DejaVuSans-41"/>
      <use x="239.552734" xlink:href="#DejaVuSans-76"/>
      <use x="298.732422" xlink:href="#DejaVuSans-67"/>
     </g>
    </g>
    <g id="line2d_31">
     <path d="M 375.25 157.180312 
L 395.25 157.180312 
" style="fill:none;stroke:#ff7f0e;stroke-linecap:square;stroke-width:1.5;"/>
    </g>
    <g id="line2d_32"/>
    <g id="text_17">
     <!-- FedMed -->
     <g transform="translate(403.25 160.680312)scale(0.1 -0.1)">
      <defs>
       <path d="M 628 4666 
L 1569 4666 
L 2759 1491 
L 3956 4666 
L 4897 4666 
L 4897 0 
L 4281 0 
L 4281 4097 
L 3078 897 
L 2444 897 
L 1241 4097 
L 1241 0 
L 628 0 
L 628 4666 
z
" id="DejaVuSans-4d" transform="scale(0.015625)"/>
      </defs>
      <use xlink:href="#DejaVuSans-46"/>
      <use x="52.019531" xlink:href="#DejaVuSans-65"/>
      <use x="113.542969" xlink:href="#DejaVuSans-64"/>
      <use x="177.019531" xlink:href="#DejaVuSans-4d"/>
      <use x="263.298828" xlink:href="#DejaVuSans-65"/>
      <use x="324.822266" xlink:href="#DejaVuSans-64"/>
     </g>
    </g>
    <g id="line2d_33">
     <path d="M 375.25 171.858437 
L 395.25 171.858437 
" style="fill:none;stroke:#2ca02c;stroke-linecap:square;stroke-width:1.5;"/>
    </g>
    <g id="line2d_34"/>
    <g id="text_18">
     <!-- FedProx -->
     <g transform="translate(403.25 175.358437)scale(0.1 -0.1)">
      <defs>
       <path d="M 1259 4147 
L 1259 2394 
L 2053 2394 
Q 2494 2394 2734 2622 
Q 2975 2850 2975 3272 
Q 2975 3691 2734 3919 
Q 2494 4147 2053 4147 
L 1259 4147 
z
M 628 4666 
L 2053 4666 
Q 2838 4666 3239 4311 
Q 3641 3956 3641 3272 
Q 3641 2581 3239 2228 
Q 2838 1875 2053 1875 
L 1259 1875 
L 1259 0 
L 628 0 
L 628 4666 
z
" id="DejaVuSans-50" transform="scale(0.015625)"/>
       <path d="M 3513 3500 
L 2247 1797 
L 3578 0 
L 2900 0 
L 1881 1375 
L 863 0 
L 184 0 
L 1544 1831 
L 300 3500 
L 978 3500 
L 1906 2253 
L 2834 3500 
L 3513 3500 
z
" id="DejaVuSans-78" transform="scale(0.015625)"/>
      </defs>
      <use xlink:href="#DejaVuSans-46"/>
      <use x="52.019531" xlink:href="#DejaVuSans-65"/>
      <use x="113.542969" xlink:href="#DejaVuSans-64"/>
      <use x="177.019531" xlink:href="#DejaVuSans-50"/>
      <use x="235.572266" xlink:href="#DejaVuSans-72"/>
      <use x="274.435547" xlink:href="#DejaVuSans-6f"/>
      <use x="332.492188" xlink:href="#DejaVuSans-78"/>
     </g>
    </g>
    <g id="line2d_35">
     <path d="M 375.25 186.536563 
L 395.25 186.536563 
" style="fill:none;stroke:#d62728;stroke-linecap:square;stroke-width:1.5;"/>
    </g>
    <g id="line2d_36"/>
    <g id="text_19">
     <!-- qFedAvg -->
     <g transform="translate(403.25 190.036563)scale(0.1 -0.1)">
      <defs>
       <path d="M 947 1747 
Q 947 1113 1208 752 
Q 1469 391 1925 391 
Q 2381 391 2643 752 
Q 2906 1113 2906 1747 
Q 2906 2381 2643 2742 
Q 2381 3103 1925 3103 
Q 1469 3103 1208 2742 
Q 947 2381 947 1747 
z
M 2906 525 
Q 2725 213 2448 61 
Q 2172 -91 1784 -91 
Q 1150 -91 751 415 
Q 353 922 353 1747 
Q 353 2572 751 3078 
Q 1150 3584 1784 3584 
Q 2172 3584 2448 3432 
Q 2725 3281 2906 2969 
L 2906 3500 
L 3481 3500 
L 3481 -1331 
L 2906 -1331 
L 2906 525 
z
" id="DejaVuSans-71" transform="scale(0.015625)"/>
      </defs>
      <use xlink:href="#DejaVuSans-71"/>
      <use x="63.476562" xlink:href="#DejaVuSans-46"/>
      <use x="115.496094" xlink:href="#DejaVuSans-65"/>
      <use x="177.019531" xlink:href="#DejaVuSans-64"/>
      <use x="240.496094" xlink:href="#DejaVuSans-41"/>
      <use x="303.029297" xlink:href="#DejaVuSans-76"/>
      <use x="362.208984" xlink:href="#DejaVuSans-67"/>
     </g>
    </g>
   </g>
  </g>
 </g>
 <defs>
  <clipPath id="p40ec3692ac">
   <rect height="276.76" width="321.68" x="44.57" y="26.88"/>
  </clipPath>
 </defs>
</svg>
