<?xml version="1.0" encoding="utf-8" standalone="no"?>
<!DOCTYPE svg PUBLIC "-//W3C//DTD SVG 1.1//EN"
  "http://www.w3.org/Graphics/SVG/1.1/DTD/svg11.dtd">
<svg height="345.6pt" version="1.1" viewBox="0 0 460.8 345.6" width="460.8pt" xmlns="http://www.w3.org/2000/svg" xmlns:xlink="http://www.w3.org/1999/xlink">
 <metadata>
  <rdf:RDF xmlns:cc="http://creativecommons.org/ns#" xmlns:dc="http://purl.org/dc/elements/1.1/" xmlns:rdf="http://www.w3.org/1999/02/22-rdf-syntax-ns#">
   <cc:Work>
    <dc:type rdf:resource="http://purl.org/dc/dcmitype/StillImage"/>
    <dc:date>2021-04-27T10:14:11.034827</dc:date>
    <dc:format>image/svg+xml</dc:format>
    <dc:creator>
     <cc:Agent>
      <dc:title>Matplotlib v3.4.1, https://matplotlib.org/</dc:title>
     </cc:Agent>
    </dc:creator>
   </cc:Work>
  </rdf:RDF>
 </metadata>
 <defs>
  <style type="text/css">*{stroke-linecap:butt;stroke-linejoin:round;}</style>
 </defs>
 <g id="figure_1">
  <g id="patch_1">
   <path d="M 0 345.6 
L 460.8 345.6 
L 460.8 0 
L 0 0 
z
" style="fill:#ffffff;"/>
  </g>
  <g id="axes_1">
   <g id="patch_2">
    <path d="M 50.87 303.64 
L 366.25 303.64 
L 366.25 26.88 
L 50.87 26.88 
z
" style="fill:#ffffff;"/>
   </g>
   <g id="PolyCollection_1">
    <path clip-path="url(#pc0e3d38a9e)" d="M 65.205455 184.91238 
L 65.205455 219.180578 
L 71.05666 157.349133 
L 76.907866 148.477475 
L 82.759072 113.763183 
L 88.610278 107.435116 
L 94.461484 97.768902 
L 100.31269 92.247772 
L 106.163896 81.046306 
L 112.015102 77.224963 
L 117.866308 72.105171 
L 123.717514 66.98538 
L 129.56872 64.836072 
L 135.419926 61.930362 
L 141.271132 61.930362 
L 147.122338 60.84163 
L 152.973544 58.42779 
L 158.82475 58.151811 
L 164.675955 58.42779 
L 170.527161 61.865589 
L 176.378367 63.639015 
L 182.229573 63.589228 
L 188.080779 59.71628 
L 193.931985 58.128622 
L 199.783191 60.84163 
L 205.634397 60.84163 
L 211.485603 59.180981 
L 217.336809 58.519224 
L 223.188015 58.42779 
L 229.039221 58.519224 
L 234.890427 58.42779 
L 240.741633 62.788155 
L 246.592839 57.668364 
L 252.444045 54.032789 
L 258.29525 55.721839 
L 264.146456 55.447349 
L 269.997662 53.399432 
L 275.848868 53.349646 
L 281.700074 55.447349 
L 287.55128 53.399432 
L 293.402486 54.06119 
L 299.253692 54.06119 
L 305.104898 52.445132 
L 310.956104 54.493048 
L 316.80731 58.163258 
L 322.658516 58.519224 
L 328.509722 51.69078 
L 334.360928 55.620447 
L 340.212134 50.500656 
L 346.06334 57.445479 
L 351.914545 53.03202 
L 351.914545 43.873459 
L 351.914545 43.873459 
L 346.06334 43.555833 
L 340.212134 42.30899 
L 334.360928 47.428781 
L 328.509722 45.214699 
L 322.658516 46.577921 
L 316.80731 42.838054 
L 310.956104 44.460347 
L 305.104898 42.412431 
L 299.253692 42.844289 
L 293.402486 42.844289 
L 287.55128 41.45813 
L 281.700074 43.506046 
L 275.848868 39.46 
L 269.997662 41.45813 
L 264.146456 43.506046 
L 258.29525 45.279473 
L 252.444045 49.016439 
L 246.592839 45.380865 
L 240.741633 46.404823 
L 234.890427 50.765188 
L 229.039221 46.577921 
L 223.188015 50.765188 
L 217.336809 46.577921 
L 211.485603 47.96408 
L 205.634397 50.399264 
L 199.783191 50.399264 
L 193.931985 53.112272 
L 188.080779 51.524614 
L 182.229573 49.699583 
L 176.378367 51.697712 
L 170.527161 51.423222 
L 164.675955 50.765188 
L 158.82475 48.99325 
L 152.973544 50.765188 
L 147.122338 50.399264 
L 141.271132 55.454282 
L 135.419926 55.454282 
L 129.56872 60.740239 
L 123.717514 56.543014 
L 117.866308 61.662805 
L 112.015102 66.782596 
L 106.163896 69.105003 
L 100.31269 70.191036 
L 94.461484 91.292821 
L 88.610278 89.818272 
L 82.759072 99.873538 
L 76.907866 116.357159 
L 71.05666 142.300082 
L 65.205455 184.91238 
z
" style="fill:#1f77b4;fill-opacity:0.5;"/>
   </g>
   <g id="PolyCollection_2">
    <path clip-path="url(#pc0e3d38a9e)" d="M 65.205455 217.469976 
L 65.205455 250.108394 
L 71.05666 162.39228 
L 76.907866 148.079404 
L 82.759072 130.3694 
L 88.610278 120.841837 
L 94.461484 110.602254 
L 100.31269 103.02524 
L 106.163896 94.307976 
L 112.015102 89.003868 
L 117.866308 90.059491 
L 123.717514 81.320796 
L 129.56872 78.906955 
L 135.419926 78.764285 
L 141.271132 69.852422 
L 147.122338 75.926514 
L 152.973544 70.288194 
L 158.82475 70.288194 
L 164.675955 75.355828 
L 170.527161 64.836072 
L 176.378367 61.499665 
L 182.229573 65.19289 
L 188.080779 64.963082 
L 193.931985 65.961422 
L 199.783191 68.70902 
L 205.634397 66.98538 
L 211.485603 68.391394 
L 217.336809 63.248414 
L 223.188015 67.850883 
L 229.039221 61.930362 
L 234.890427 67.907946 
L 240.741633 64.732631 
L 246.592839 65.168403 
L 252.444045 65.961422 
L 258.29525 64.300772 
L 264.146456 68.758806 
L 269.997662 61.499665 
L 275.848868 63.639015 
L 281.700074 67.850883 
L 287.55128 61.930362 
L 293.402486 64.836072 
L 299.253692 61.930362 
L 305.104898 56.644405 
L 310.956104 60.740239 
L 316.80731 58.519224 
L 322.658516 59.152581 
L 328.509722 63.547581 
L 334.360928 61.499665 
L 340.212134 61.930362 
L 346.06334 59.71628 
L 351.914545 61.499665 
L 351.914545 53.837063 
L 351.914545 53.837063 
L 346.06334 51.524614 
L 340.212134 55.454282 
L 334.360928 53.837063 
L 328.509722 55.884979 
L 322.658516 54.13623 
L 316.80731 46.577921 
L 310.956104 52.548572 
L 305.104898 52.548572 
L 299.253692 55.454282 
L 293.402486 56.644405 
L 287.55128 55.454282 
L 281.700074 49.533761 
L 275.848868 51.697712 
L 269.997662 53.837063 
L 264.146456 56.817504 
L 258.29525 53.083872 
L 252.444045 55.519055 
L 246.592839 52.216241 
L 240.741633 54.69993 
L 234.890427 51.524614 
L 229.039221 55.454282 
L 223.188015 49.533761 
L 217.336809 58.232063 
L 211.485603 59.232833 
L 205.634397 56.543014 
L 199.783191 54.819374 
L 193.931985 55.519055 
L 188.080779 48.325729 
L 182.229573 50.143838 
L 176.378367 53.837063 
L 170.527161 60.740239 
L 164.675955 56.364232 
L 158.82475 57.336033 
L 152.973544 57.336033 
L 147.122338 63.985211 
L 141.271132 59.819721 
L 135.419926 61.147441 
L 129.56872 71.244353 
L 123.717514 70.878429 
L 117.866308 76.47515 
L 112.015102 71.387023 
L 106.163896 80.418331 
L 100.31269 81.940649 
L 94.461484 90.746967 
L 88.610278 100.98655 
L 82.759072 109.890235 
L 76.907866 126.994813 
L 71.05666 143.400684 
L 65.205455 217.469976 
z
" style="fill:#ff7f0e;fill-opacity:0.5;"/>
   </g>
   <g id="PolyCollection_3">
    <path clip-path="url(#pc0e3d38a9e)" d="M 65.205455 205.358214 
L 65.205455 266.315989 
L 71.05666 166.797573 
L 76.907866 147.569809 
L 82.759072 131.289918 
L 88.610278 110.810753 
L 94.461484 96.578778 
L 100.31269 91.170023 
L 106.163896 85.647568 
L 112.015102 86.050232 
L 117.866308 76.379786 
L 123.717514 68.391394 
L 129.56872 75.355828 
L 135.419926 72.804853 
L 141.271132 73.522632 
L 147.122338 71.74366 
L 152.973544 64.272372 
L 158.82475 63.248414 
L 164.675955 65.86003 
L 170.527161 63.547581 
L 176.378367 63.639015 
L 182.229573 64.732631 
L 188.080779 65.686932 
L 193.931985 54.596489 
L 199.783191 58.151811 
L 205.634397 56.810571 
L 211.485603 59.71628 
L 217.336809 56.379873 
L 223.188015 54.596489 
L 229.039221 54.596489 
L 234.890427 56.810571 
L 240.741633 58.42779 
L 246.592839 54.032789 
L 252.444045 58.519224 
L 258.29525 56.379873 
L 264.146456 57.564923 
L 269.997662 54.596489 
L 275.848868 54.596489 
L 281.700074 56.379873 
L 287.55128 59.71628 
L 293.402486 58.151811 
L 299.253692 54.596489 
L 305.104898 56.379873 
L 310.956104 60.56714 
L 316.80731 58.151811 
L 322.658516 54.596489 
L 328.509722 56.810571 
L 334.360928 56.810571 
L 340.212134 58.42779 
L 346.06334 58.519224 
L 351.914545 54.032789 
L 351.914545 49.016439 
L 351.914545 49.016439 
L 346.06334 46.577921 
L 340.212134 50.765188 
L 334.360928 50.33449 
L 328.509722 50.33449 
L 322.658516 50.500656 
L 316.80731 48.99325 
L 310.956104 48.625838 
L 305.104898 48.717271 
L 299.253692 46.404823 
L 293.402486 48.99325 
L 287.55128 51.524614 
L 281.700074 48.717271 
L 275.848868 50.500656 
L 269.997662 50.500656 
L 264.146456 47.532222 
L 258.29525 48.717271 
L 252.444045 46.577921 
L 246.592839 49.016439 
L 240.741633 50.765188 
L 234.890427 50.33449 
L 229.039221 50.500656 
L 223.188015 50.500656 
L 217.336809 48.717271 
L 211.485603 51.524614 
L 205.634397 50.33449 
L 199.783191 48.99325 
L 193.931985 50.500656 
L 188.080779 53.745629 
L 182.229573 54.69993 
L 176.378367 51.697712 
L 170.527161 55.884979 
L 164.675955 57.668364 
L 158.82475 58.232063 
L 152.973544 59.256022 
L 147.122338 55.880567 
L 141.271132 58.197428 
L 135.419926 58.915207 
L 129.56872 56.364232 
L 123.717514 59.232833 
L 117.866308 57.38819 
L 112.015102 68.19691 
L 106.163896 72.695407 
L 100.31269 73.316701 
L 94.461484 80.195446 
L 88.610278 100.778052 
L 82.759072 121.257217 
L 76.907866 127.504407 
L 71.05666 143.091225 
L 65.205455 205.358214 
z
" style="fill:#2ca02c;fill-opacity:0.5;"/>
   </g>
   <g id="PolyCollection_4">
    <path clip-path="url(#pc0e3d38a9e)" d="M 65.205455 247.331227 
L 65.205455 291.06 
L 71.05666 195.284463 
L 76.907866 171.785227 
L 82.759072 155.458811 
L 88.610278 145.131357 
L 94.461484 136.915077 
L 100.31269 129.283634 
L 106.163896 124.814502 
L 112.015102 120.512243 
L 117.866308 118.113437 
L 123.717514 115.664578 
L 129.56872 113.403752 
L 135.419926 109.765277 
L 141.271132 108.168992 
L 147.122338 105.880593 
L 152.973544 104.771427 
L 158.82475 103.030954 
L 164.675955 102.554398 
L 170.527161 100.008304 
L 176.378367 98.637003 
L 182.229573 98.747942 
L 188.080779 96.730533 
L 193.931985 95.725908 
L 199.783191 96.088656 
L 205.634397 95.487409 
L 211.485603 94.501912 
L 217.336809 94.743863 
L 223.188015 93.883192 
L 229.039221 93.847559 
L 234.890427 93.880864 
L 240.741633 93.093958 
L 246.592839 93.479305 
L 252.444045 93.222084 
L 258.29525 91.846847 
L 264.146456 91.891879 
L 269.997662 91.084214 
L 275.848868 89.838069 
L 281.700074 90.420429 
L 287.55128 91.750632 
L 293.402486 90.985709 
L 299.253692 90.919321 
L 305.104898 88.976608 
L 310.956104 89.804408 
L 316.80731 90.123377 
L 322.658516 89.975165 
L 328.509722 88.769985 
L 334.360928 89.040819 
L 340.212134 89.9437 
L 346.06334 87.938337 
L 351.914545 88.400423 
L 351.914545 78.046157 
L 351.914545 78.046157 
L 346.06334 79.478956 
L 340.212134 79.576803 
L 334.360928 79.347186 
L 328.509722 79.61802 
L 322.658516 79.545338 
L 316.80731 80.367838 
L 310.956104 79.55431 
L 305.104898 79.087826 
L 299.253692 79.248323 
L 293.402486 79.02015 
L 287.55128 80.034866 
L 281.700074 79.100074 
L 275.848868 80.976717 
L 269.997662 81.024856 
L 264.146456 80.864332 
L 258.29525 81.232935 
L 252.444045 81.151981 
L 246.592839 81.056545 
L 240.741633 81.927249 
L 234.890427 83.567124 
L 229.039221 83.762214 
L 223.188015 84.050152 
L 217.336809 84.64555 
L 211.485603 85.372856 
L 205.634397 86.814141 
L 199.783191 86.536464 
L 193.931985 87.70814 
L 188.080779 89.615653 
L 182.229573 90.995736 
L 176.378367 91.915603 
L 170.527161 92.647512 
L 164.675955 96.734619 
L 158.82475 95.934492 
L 152.973544 97.915084 
L 147.122338 98.747343 
L 141.271132 98.562154 
L 135.419926 102.628358 
L 129.56872 104.652373 
L 123.717514 105.78904 
L 117.866308 109.326241 
L 112.015102 112.913495 
L 106.163896 116.862292 
L 100.31269 122.58564 
L 94.461484 127.573459 
L 88.610278 133.917866 
L 82.759072 143.651801 
L 76.907866 157.0939 
L 71.05666 175.98244 
L 65.205455 247.331227 
z
" style="fill:#d62728;fill-opacity:0.5;"/>
   </g>
   <g id="matplotlib.axis_1">
    <g id="xtick_1">
     <g id="line2d_1">
      <path clip-path="url(#pc0e3d38a9e)" d="M 65.205455 303.64 
L 65.205455 26.88 
" style="fill:none;stroke:#b0b0b0;stroke-linecap:square;stroke-width:0.8;"/>
     </g>
     <g id="line2d_2">
      <defs>
       <path d="M 0 0 
L 0 3.5 
" id="m0b21422667" style="stroke:#000000;stroke-width:0.8;"/>
      </defs>
      <g>
       <use style="stroke:#000000;stroke-width:0.8;" x="65.205455" xlink:href="#m0b21422667" y="303.64"/>
      </g>
     </g>
     <g id="text_1">
      <!-- 0 -->
      <g transform="translate(62.024205 318.238437)scale(0.1 -0.1)">
       <defs>
        <path d="M 2034 4250 
Q 1547 4250 1301 3770 
Q 1056 3291 1056 2328 
Q 1056 1369 1301 889 
Q 1547 409 2034 409 
Q 2525 409 2770 889 
Q 3016 1369 3016 2328 
Q 3016 3291 2770 3770 
Q 2525 4250 2034 4250 
z
M 2034 4750 
Q 2819 4750 3233 4129 
Q 3647 3509 3647 2328 
Q 3647 1150 3233 529 
Q 2819 -91 2034 -91 
Q 1250 -91 836 529 
Q 422 1150 422 2328 
Q 422 3509 836 4129 
Q 1250 4750 2034 4750 
z
" id="DejaVuSans-30" transform="scale(0.015625)"/>
       </defs>
       <use xlink:href="#DejaVuSans-30"/>
      </g>
     </g>
    </g>
    <g id="xtick_2">
     <g id="line2d_3">
      <path clip-path="url(#pc0e3d38a9e)" d="M 123.717514 303.64 
L 123.717514 26.88 
" style="fill:none;stroke:#b0b0b0;stroke-linecap:square;stroke-width:0.8;"/>
     </g>
     <g id="line2d_4">
      <g>
       <use style="stroke:#000000;stroke-width:0.8;" x="123.717514" xlink:href="#m0b21422667" y="303.64"/>
      </g>
     </g>
     <g id="text_2">
      <!-- 10 -->
      <g transform="translate(117.355014 318.238437)scale(0.1 -0.1)">
       <defs>
        <path d="M 794 531 
L 1825 531 
L 1825 4091 
L 703 3866 
L 703 4441 
L 1819 4666 
L 2450 4666 
L 2450 531 
L 3481 531 
L 3481 0 
L 794 0 
L 794 531 
z
" id="DejaVuSans-31" transform="scale(0.015625)"/>
       </defs>
       <use xlink:href="#DejaVuSans-31"/>
       <use x="63.623047" xlink:href="#DejaVuSans-30"/>
      </g>
     </g>
    </g>
    <g id="xtick_3">
     <g id="line2d_5">
      <path clip-path="url(#pc0e3d38a9e)" d="M 182.229573 303.64 
L 182.229573 26.88 
" style="fill:none;stroke:#b0b0b0;stroke-linecap:square;stroke-width:0.8;"/>
     </g>
     <g id="line2d_6">
      <g>
       <use style="stroke:#000000;stroke-width:0.8;" x="182.229573" xlink:href="#m0b21422667" y="303.64"/>
      </g>
     </g>
     <g id="text_3">
      <!-- 20 -->
      <g transform="translate(175.867073 318.238437)scale(0.1 -0.1)">
       <defs>
        <path d="M 1228 531 
L 3431 531 
L 3431 0 
L 469 0 
L 469 531 
Q 828 903 1448 1529 
Q 2069 2156 2228 2338 
Q 2531 2678 2651 2914 
Q 2772 3150 2772 3378 
Q 2772 3750 2511 3984 
Q 2250 4219 1831 4219 
Q 1534 4219 1204 4116 
Q 875 4013 500 3803 
L 500 4441 
Q 881 4594 1212 4672 
Q 1544 4750 1819 4750 
Q 2544 4750 2975 4387 
Q 3406 4025 3406 3419 
Q 3406 3131 3298 2873 
Q 3191 2616 2906 2266 
Q 2828 2175 2409 1742 
Q 1991 1309 1228 531 
z
" id="DejaVuSans-32" transform="scale(0.015625)"/>
       </defs>
       <use xlink:href="#DejaVuSans-32"/>
       <use x="63.623047" xlink:href="#DejaVuSans-30"/>
      </g>
     </g>
    </g>
    <g id="xtick_4">
     <g id="line2d_7">
      <path clip-path="url(#pc0e3d38a9e)" d="M 240.741633 303.64 
L 240.741633 26.88 
" style="fill:none;stroke:#b0b0b0;stroke-linecap:square;stroke-width:0.8;"/>
     </g>
     <g id="line2d_8">
      <g>
       <use style="stroke:#000000;stroke-width:0.8;" x="240.741633" xlink:href="#m0b21422667" y="303.64"/>
      </g>
     </g>
     <g id="text_4">
      <!-- 30 -->
      <g transform="translate(234.379133 318.238437)scale(0.1 -0.1)">
       <defs>
        <path d="M 2597 2516 
Q 3050 2419 3304 2112 
Q 3559 1806 3559 1356 
Q 3559 666 3084 287 
Q 2609 -91 1734 -91 
Q 1441 -91 1130 -33 
Q 819 25 488 141 
L 488 750 
Q 750 597 1062 519 
Q 1375 441 1716 441 
Q 2309 441 2620 675 
Q 2931 909 2931 1356 
Q 2931 1769 2642 2001 
Q 2353 2234 1838 2234 
L 1294 2234 
L 1294 2753 
L 1863 2753 
Q 2328 2753 2575 2939 
Q 2822 3125 2822 3475 
Q 2822 3834 2567 4026 
Q 2313 4219 1838 4219 
Q 1578 4219 1281 4162 
Q 984 4106 628 3988 
L 628 4550 
Q 988 4650 1302 4700 
Q 1616 4750 1894 4750 
Q 2613 4750 3031 4423 
Q 3450 4097 3450 3541 
Q 3450 3153 3228 2886 
Q 3006 2619 2597 2516 
z
" id="DejaVuSans-33" transform="scale(0.015625)"/>
       </defs>
       <use xlink:href="#DejaVuSans-33"/>
       <use x="63.623047" xlink:href="#DejaVuSans-30"/>
      </g>
     </g>
    </g>
    <g id="xtick_5">
     <g id="line2d_9">
      <path clip-path="url(#pc0e3d38a9e)" d="M 299.253692 303.64 
L 299.253692 26.88 
" style="fill:none;stroke:#b0b0b0;stroke-linecap:square;stroke-width:0.8;"/>
     </g>
     <g id="line2d_10">
      <g>
       <use style="stroke:#000000;stroke-width:0.8;" x="299.253692" xlink:href="#m0b21422667" y="303.64"/>
      </g>
     </g>
     <g id="text_5">
      <!-- 40 -->
      <g transform="translate(292.891192 318.238437)scale(0.1 -0.1)">
       <defs>
        <path d="M 2419 4116 
L 825 1625 
L 2419 1625 
L 2419 4116 
z
M 2253 4666 
L 3047 4666 
L 3047 1625 
L 3713 1625 
L 3713 1100 
L 3047 1100 
L 3047 0 
L 2419 0 
L 2419 1100 
L 313 1100 
L 313 1709 
L 2253 4666 
z
" id="DejaVuSans-34" transform="scale(0.015625)"/>
       </defs>
       <use xlink:href="#DejaVuSans-34"/>
       <use x="63.623047" xlink:href="#DejaVuSans-30"/>
      </g>
     </g>
    </g>
    <g id="xtick_6">
     <g id="line2d_11">
      <path clip-path="url(#pc0e3d38a9e)" d="M 357.765751 303.64 
L 357.765751 26.88 
" style="fill:none;stroke:#b0b0b0;stroke-linecap:square;stroke-width:0.8;"/>
     </g>
     <g id="line2d_12">
      <g>
       <use style="stroke:#000000;stroke-width:0.8;" x="357.765751" xlink:href="#m0b21422667" y="303.64"/>
      </g>
     </g>
     <g id="text_6">
      <!-- 50 -->
      <g transform="translate(351.403251 318.238437)scale(0.1 -0.1)">
       <defs>
        <path d="M 691 4666 
L 3169 4666 
L 3169 4134 
L 1269 4134 
L 1269 2991 
Q 1406 3038 1543 3061 
Q 1681 3084 1819 3084 
Q 2600 3084 3056 2656 
Q 3513 2228 3513 1497 
Q 3513 744 3044 326 
Q 2575 -91 1722 -91 
Q 1428 -91 1123 -41 
Q 819 9 494 109 
L 494 744 
Q 775 591 1075 516 
Q 1375 441 1709 441 
Q 2250 441 2565 725 
Q 2881 1009 2881 1497 
Q 2881 1984 2565 2268 
Q 2250 2553 1709 2553 
Q 1456 2553 1204 2497 
Q 953 2441 691 2322 
L 691 4666 
z
" id="DejaVuSans-35" transform="scale(0.015625)"/>
       </defs>
       <use xlink:href="#DejaVuSans-35"/>
       <use x="63.623047" xlink:href="#DejaVuSans-30"/>
      </g>
     </g>
    </g>
    <g id="text_7">
     <!-- Global Communication Rounds -->
     <g transform="translate(131.598281 331.916562)scale(0.1 -0.1)">
      <defs>
       <path d="M 3809 666 
L 3809 1919 
L 2778 1919 
L 2778 2438 
L 4434 2438 
L 4434 434 
Q 4069 175 3628 42 
Q 3188 -91 2688 -91 
Q 1594 -91 976 548 
Q 359 1188 359 2328 
Q 359 3472 976 4111 
Q 1594 4750 2688 4750 
Q 3144 4750 3555 4637 
Q 3966 4525 4313 4306 
L 4313 3634 
Q 3963 3931 3569 4081 
Q 3175 4231 2741 4231 
Q 1884 4231 1454 3753 
Q 1025 3275 1025 2328 
Q 1025 1384 1454 906 
Q 1884 428 2741 428 
Q 3075 428 3337 486 
Q 3600 544 3809 666 
z
" id="DejaVuSans-47" transform="scale(0.015625)"/>
       <path d="M 603 4863 
L 1178 4863 
L 1178 0 
L 603 0 
L 603 4863 
z
" id="DejaVuSans-6c" transform="scale(0.015625)"/>
       <path d="M 1959 3097 
Q 1497 3097 1228 2736 
Q 959 2375 959 1747 
Q 959 1119 1226 758 
Q 1494 397 1959 397 
Q 2419 397 2687 759 
Q 2956 1122 2956 1747 
Q 2956 2369 2687 2733 
Q 2419 3097 1959 3097 
z
M 1959 3584 
Q 2709 3584 3137 3096 
Q 3566 2609 3566 1747 
Q 3566 888 3137 398 
Q 2709 -91 1959 -91 
Q 1206 -91 779 398 
Q 353 888 353 1747 
Q 353 2609 779 3096 
Q 1206 3584 1959 3584 
z
" id="DejaVuSans-6f" transform="scale(0.015625)"/>
       <path d="M 3116 1747 
Q 3116 2381 2855 2742 
Q 2594 3103 2138 3103 
Q 1681 3103 1420 2742 
Q 1159 2381 1159 1747 
Q 1159 1113 1420 752 
Q 1681 391 2138 391 
Q 2594 391 2855 752 
Q 3116 1113 3116 1747 
z
M 1159 2969 
Q 1341 3281 1617 3432 
Q 1894 3584 2278 3584 
Q 2916 3584 3314 3078 
Q 3713 2572 3713 1747 
Q 3713 922 3314 415 
Q 2916 -91 2278 -91 
Q 1894 -91 1617 61 
Q 1341 213 1159 525 
L 1159 0 
L 581 0 
L 581 4863 
L 1159 4863 
L 1159 2969 
z
" id="DejaVuSans-62" transform="scale(0.015625)"/>
       <path d="M 2194 1759 
Q 1497 1759 1228 1600 
Q 959 1441 959 1056 
Q 959 750 1161 570 
Q 1363 391 1709 391 
Q 2188 391 2477 730 
Q 2766 1069 2766 1631 
L 2766 1759 
L 2194 1759 
z
M 3341 1997 
L 3341 0 
L 2766 0 
L 2766 531 
Q 2569 213 2275 61 
Q 1981 -91 1556 -91 
Q 1019 -91 701 211 
Q 384 513 384 1019 
Q 384 1609 779 1909 
Q 1175 2209 1959 2209 
L 2766 2209 
L 2766 2266 
Q 2766 2663 2505 2880 
Q 2244 3097 1772 3097 
Q 1472 3097 1187 3025 
Q 903 2953 641 2809 
L 641 3341 
Q 956 3463 1253 3523 
Q 1550 3584 1831 3584 
Q 2591 3584 2966 3190 
Q 3341 2797 3341 1997 
z
" id="DejaVuSans-61" transform="scale(0.015625)"/>
       <path id="DejaVuSans-20" transform="scale(0.015625)"/>
       <path d="M 4122 4306 
L 4122 3641 
Q 3803 3938 3442 4084 
Q 3081 4231 2675 4231 
Q 1875 4231 1450 3742 
Q 1025 3253 1025 2328 
Q 1025 1406 1450 917 
Q 1875 428 2675 428 
Q 3081 428 3442 575 
Q 3803 722 4122 1019 
L 4122 359 
Q 3791 134 3420 21 
Q 3050 -91 2638 -91 
Q 1578 -91 968 557 
Q 359 1206 359 2328 
Q 359 3453 968 4101 
Q 1578 4750 2638 4750 
Q 3056 4750 3426 4639 
Q 3797 4528 4122 4306 
z
" id="DejaVuSans-43" transform="scale(0.015625)"/>
       <path d="M 3328 2828 
Q 3544 3216 3844 3400 
Q 4144 3584 4550 3584 
Q 5097 3584 5394 3201 
Q 5691 2819 5691 2113 
L 5691 0 
L 5113 0 
L 5113 2094 
Q 5113 2597 4934 2840 
Q 4756 3084 4391 3084 
Q 3944 3084 3684 2787 
Q 3425 2491 3425 1978 
L 3425 0 
L 2847 0 
L 2847 2094 
Q 2847 2600 2669 2842 
Q 2491 3084 2119 3084 
Q 1678 3084 1418 2786 
Q 1159 2488 1159 1978 
L 1159 0 
L 581 0 
L 581 3500 
L 1159 3500 
L 1159 2956 
Q 1356 3278 1631 3431 
Q 1906 3584 2284 3584 
Q 2666 3584 2933 3390 
Q 3200 3197 3328 2828 
z
" id="DejaVuSans-6d" transform="scale(0.015625)"/>
       <path d="M 544 1381 
L 544 3500 
L 1119 3500 
L 1119 1403 
Q 1119 906 1312 657 
Q 1506 409 1894 409 
Q 2359 409 2629 706 
Q 2900 1003 2900 1516 
L 2900 3500 
L 3475 3500 
L 3475 0 
L 2900 0 
L 2900 538 
Q 2691 219 2414 64 
Q 2138 -91 1772 -91 
Q 1169 -91 856 284 
Q 544 659 544 1381 
z
M 1991 3584 
L 1991 3584 
z
" id="DejaVuSans-75" transform="scale(0.015625)"/>
       <path d="M 3513 2113 
L 3513 0 
L 2938 0 
L 2938 2094 
Q 2938 2591 2744 2837 
Q 2550 3084 2163 3084 
Q 1697 3084 1428 2787 
Q 1159 2491 1159 1978 
L 1159 0 
L 581 0 
L 581 3500 
L 1159 3500 
L 1159 2956 
Q 1366 3272 1645 3428 
Q 1925 3584 2291 3584 
Q 2894 3584 3203 3211 
Q 3513 2838 3513 2113 
z
" id="DejaVuSans-6e" transform="scale(0.015625)"/>
       <path d="M 603 3500 
L 1178 3500 
L 1178 0 
L 603 0 
L 603 3500 
z
M 603 4863 
L 1178 4863 
L 1178 4134 
L 603 4134 
L 603 4863 
z
" id="DejaVuSans-69" transform="scale(0.015625)"/>
       <path d="M 3122 3366 
L 3122 2828 
Q 2878 2963 2633 3030 
Q 2388 3097 2138 3097 
Q 1578 3097 1268 2742 
Q 959 2388 959 1747 
Q 959 1106 1268 751 
Q 1578 397 2138 397 
Q 2388 397 2633 464 
Q 2878 531 3122 666 
L 3122 134 
Q 2881 22 2623 -34 
Q 2366 -91 2075 -91 
Q 1284 -91 818 406 
Q 353 903 353 1747 
Q 353 2603 823 3093 
Q 1294 3584 2113 3584 
Q 2378 3584 2631 3529 
Q 2884 3475 3122 3366 
z
" id="DejaVuSans-63" transform="scale(0.015625)"/>
       <path d="M 1172 4494 
L 1172 3500 
L 2356 3500 
L 2356 3053 
L 1172 3053 
L 1172 1153 
Q 1172 725 1289 603 
Q 1406 481 1766 481 
L 2356 481 
L 2356 0 
L 1766 0 
Q 1100 0 847 248 
Q 594 497 594 1153 
L 594 3053 
L 172 3053 
L 172 3500 
L 594 3500 
L 594 4494 
L 1172 4494 
z
" id="DejaVuSans-74" transform="scale(0.015625)"/>
       <path d="M 2841 2188 
Q 3044 2119 3236 1894 
Q 3428 1669 3622 1275 
L 4263 0 
L 3584 0 
L 2988 1197 
Q 2756 1666 2539 1819 
Q 2322 1972 1947 1972 
L 1259 1972 
L 1259 0 
L 628 0 
L 628 4666 
L 2053 4666 
Q 2853 4666 3247 4331 
Q 3641 3997 3641 3322 
Q 3641 2881 3436 2590 
Q 3231 2300 2841 2188 
z
M 1259 4147 
L 1259 2491 
L 2053 2491 
Q 2509 2491 2742 2702 
Q 2975 2913 2975 3322 
Q 2975 3731 2742 3939 
Q 2509 4147 2053 4147 
L 1259 4147 
z
" id="DejaVuSans-52" transform="scale(0.015625)"/>
       <path d="M 2906 2969 
L 2906 4863 
L 3481 4863 
L 3481 0 
L 2906 0 
L 2906 525 
Q 2725 213 2448 61 
Q 2172 -91 1784 -91 
Q 1150 -91 751 415 
Q 353 922 353 1747 
Q 353 2572 751 3078 
Q 1150 3584 1784 3584 
Q 2172 3584 2448 3432 
Q 2725 3281 2906 2969 
z
M 947 1747 
Q 947 1113 1208 752 
Q 1469 391 1925 391 
Q 2381 391 2643 752 
Q 2906 1113 2906 1747 
Q 2906 2381 2643 2742 
Q 2381 3103 1925 3103 
Q 1469 3103 1208 2742 
Q 947 2381 947 1747 
z
" id="DejaVuSans-64" transform="scale(0.015625)"/>
       <path d="M 2834 3397 
L 2834 2853 
Q 2591 2978 2328 3040 
Q 2066 3103 1784 3103 
Q 1356 3103 1142 2972 
Q 928 2841 928 2578 
Q 928 2378 1081 2264 
Q 1234 2150 1697 2047 
L 1894 2003 
Q 2506 1872 2764 1633 
Q 3022 1394 3022 966 
Q 3022 478 2636 193 
Q 2250 -91 1575 -91 
Q 1294 -91 989 -36 
Q 684 19 347 128 
L 347 722 
Q 666 556 975 473 
Q 1284 391 1588 391 
Q 1994 391 2212 530 
Q 2431 669 2431 922 
Q 2431 1156 2273 1281 
Q 2116 1406 1581 1522 
L 1381 1569 
Q 847 1681 609 1914 
Q 372 2147 372 2553 
Q 372 3047 722 3315 
Q 1072 3584 1716 3584 
Q 2034 3584 2315 3537 
Q 2597 3491 2834 3397 
z
" id="DejaVuSans-73" transform="scale(0.015625)"/>
      </defs>
      <use xlink:href="#DejaVuSans-47"/>
      <use x="77.490234" xlink:href="#DejaVuSans-6c"/>
      <use x="105.273438" xlink:href="#DejaVuSans-6f"/>
      <use x="166.455078" xlink:href="#DejaVuSans-62"/>
      <use x="229.931641" xlink:href="#DejaVuSans-61"/>
      <use x="291.210938" xlink:href="#DejaVuSans-6c"/>
      <use x="318.994141" xlink:href="#DejaVuSans-20"/>
      <use x="350.78125" xlink:href="#DejaVuSans-43"/>
      <use x="420.605469" xlink:href="#DejaVuSans-6f"/>
      <use x="481.787109" xlink:href="#DejaVuSans-6d"/>
      <use x="579.199219" xlink:href="#DejaVuSans-6d"/>
      <use x="676.611328" xlink:href="#DejaVuSans-75"/>
      <use x="739.990234" xlink:href="#DejaVuSans-6e"/>
      <use x="803.369141" xlink:href="#DejaVuSans-69"/>
      <use x="831.152344" xlink:href="#DejaVuSans-63"/>
      <use x="886.132812" xlink:href="#DejaVuSans-61"/>
      <use x="947.412109" xlink:href="#DejaVuSans-74"/>
      <use x="986.621094" xlink:href="#DejaVuSans-69"/>
      <use x="1014.404297" xlink:href="#DejaVuSans-6f"/>
      <use x="1075.585938" xlink:href="#DejaVuSans-6e"/>
      <use x="1138.964844" xlink:href="#DejaVuSans-20"/>
      <use x="1170.751953" xlink:href="#DejaVuSans-52"/>
      <use x="1235.734375" xlink:href="#DejaVuSans-6f"/>
      <use x="1296.916016" xlink:href="#DejaVuSans-75"/>
      <use x="1360.294922" xlink:href="#DejaVuSans-6e"/>
      <use x="1423.673828" xlink:href="#DejaVuSans-64"/>
      <use x="1487.150391" xlink:href="#DejaVuSans-73"/>
     </g>
    </g>
   </g>
   <g id="matplotlib.axis_2">
    <g id="ytick_1">
     <g id="line2d_13">
      <path clip-path="url(#pc0e3d38a9e)" d="M 50.87 270.651682 
L 366.25 270.651682 
" style="fill:none;stroke:#b0b0b0;stroke-linecap:square;stroke-width:0.8;"/>
     </g>
     <g id="line2d_14">
      <defs>
       <path d="M 0 0 
L -3.5 0 
" id="m6962f18a04" style="stroke:#000000;stroke-width:0.8;"/>
      </defs>
      <g>
       <use style="stroke:#000000;stroke-width:0.8;" x="50.87" xlink:href="#m6962f18a04" y="270.651682"/>
      </g>
     </g>
     <g id="text_8">
      <!-- 94 -->
      <g transform="translate(31.145 274.450901)scale(0.1 -0.1)">
       <defs>
        <path d="M 703 97 
L 703 672 
Q 941 559 1184 500 
Q 1428 441 1663 441 
Q 2288 441 2617 861 
Q 2947 1281 2994 2138 
Q 2813 1869 2534 1725 
Q 2256 1581 1919 1581 
Q 1219 1581 811 2004 
Q 403 2428 403 3163 
Q 403 3881 828 4315 
Q 1253 4750 1959 4750 
Q 2769 4750 3195 4129 
Q 3622 3509 3622 2328 
Q 3622 1225 3098 567 
Q 2575 -91 1691 -91 
Q 1453 -91 1209 -44 
Q 966 3 703 97 
z
M 1959 2075 
Q 2384 2075 2632 2365 
Q 2881 2656 2881 3163 
Q 2881 3666 2632 3958 
Q 2384 4250 1959 4250 
Q 1534 4250 1286 3958 
Q 1038 3666 1038 3163 
Q 1038 2656 1286 2365 
Q 1534 2075 1959 2075 
z
" id="DejaVuSans-39" transform="scale(0.015625)"/>
       </defs>
       <use xlink:href="#DejaVuSans-39"/>
       <use x="63.623047" xlink:href="#DejaVuSans-34"/>
      </g>
     </g>
    </g>
    <g id="ytick_2">
     <g id="line2d_15">
      <path clip-path="url(#pc0e3d38a9e)" d="M 50.87 230.205331 
L 366.25 230.205331 
" style="fill:none;stroke:#b0b0b0;stroke-linecap:square;stroke-width:0.8;"/>
     </g>
     <g id="line2d_16">
      <g>
       <use style="stroke:#000000;stroke-width:0.8;" x="50.87" xlink:href="#m6962f18a04" y="230.205331"/>
      </g>
     </g>
     <g id="text_9">
      <!-- 95 -->
      <g transform="translate(31.145 234.00455)scale(0.1 -0.1)">
       <use xlink:href="#DejaVuSans-39"/>
       <use x="63.623047" xlink:href="#DejaVuSans-35"/>
      </g>
     </g>
    </g>
    <g id="ytick_3">
     <g id="line2d_17">
      <path clip-path="url(#pc0e3d38a9e)" d="M 50.87 189.75898 
L 366.25 189.75898 
" style="fill:none;stroke:#b0b0b0;stroke-linecap:square;stroke-width:0.8;"/>
     </g>
     <g id="line2d_18">
      <g>
       <use style="stroke:#000000;stroke-width:0.8;" x="50.87" xlink:href="#m6962f18a04" y="189.75898"/>
      </g>
     </g>
     <g id="text_10">
      <!-- 96 -->
      <g transform="translate(31.145 193.558198)scale(0.1 -0.1)">
       <defs>
        <path d="M 2113 2584 
Q 1688 2584 1439 2293 
Q 1191 2003 1191 1497 
Q 1191 994 1439 701 
Q 1688 409 2113 409 
Q 2538 409 2786 701 
Q 3034 994 3034 1497 
Q 3034 2003 2786 2293 
Q 2538 2584 2113 2584 
z
M 3366 4563 
L 3366 3988 
Q 3128 4100 2886 4159 
Q 2644 4219 2406 4219 
Q 1781 4219 1451 3797 
Q 1122 3375 1075 2522 
Q 1259 2794 1537 2939 
Q 1816 3084 2150 3084 
Q 2853 3084 3261 2657 
Q 3669 2231 3669 1497 
Q 3669 778 3244 343 
Q 2819 -91 2113 -91 
Q 1303 -91 875 529 
Q 447 1150 447 2328 
Q 447 3434 972 4092 
Q 1497 4750 2381 4750 
Q 2619 4750 2861 4703 
Q 3103 4656 3366 4563 
z
" id="DejaVuSans-36" transform="scale(0.015625)"/>
       </defs>
       <use xlink:href="#DejaVuSans-39"/>
       <use x="63.623047" xlink:href="#DejaVuSans-36"/>
      </g>
     </g>
    </g>
    <g id="ytick_4">
     <g id="line2d_19">
      <path clip-path="url(#pc0e3d38a9e)" d="M 50.87 149.312628 
L 366.25 149.312628 
" style="fill:none;stroke:#b0b0b0;stroke-linecap:square;stroke-width:0.8;"/>
     </g>
     <g id="line2d_20">
      <g>
       <use style="stroke:#000000;stroke-width:0.8;" x="50.87" xlink:href="#m6962f18a04" y="149.312628"/>
      </g>
     </g>
     <g id="text_11">
      <!-- 97 -->
      <g transform="translate(31.145 153.111847)scale(0.1 -0.1)">
       <defs>
        <path d="M 525 4666 
L 3525 4666 
L 3525 4397 
L 1831 0 
L 1172 0 
L 2766 4134 
L 525 4134 
L 525 4666 
z
" id="DejaVuSans-37" transform="scale(0.015625)"/>
       </defs>
       <use xlink:href="#DejaVuSans-39"/>
       <use x="63.623047" xlink:href="#DejaVuSans-37"/>
      </g>
     </g>
    </g>
    <g id="ytick_5">
     <g id="line2d_21">
      <path clip-path="url(#pc0e3d38a9e)" d="M 50.87 108.866277 
L 366.25 108.866277 
" style="fill:none;stroke:#b0b0b0;stroke-linecap:square;stroke-width:0.8;"/>
     </g>
     <g id="line2d_22">
      <g>
       <use style="stroke:#000000;stroke-width:0.8;" x="50.87" xlink:href="#m6962f18a04" y="108.866277"/>
      </g>
     </g>
     <g id="text_12">
      <!-- 98 -->
      <g transform="translate(31.145 112.665496)scale(0.1 -0.1)">
       <defs>
        <path d="M 2034 2216 
Q 1584 2216 1326 1975 
Q 1069 1734 1069 1313 
Q 1069 891 1326 650 
Q 1584 409 2034 409 
Q 2484 409 2743 651 
Q 3003 894 3003 1313 
Q 3003 1734 2745 1975 
Q 2488 2216 2034 2216 
z
M 1403 2484 
Q 997 2584 770 2862 
Q 544 3141 544 3541 
Q 544 4100 942 4425 
Q 1341 4750 2034 4750 
Q 2731 4750 3128 4425 
Q 3525 4100 3525 3541 
Q 3525 3141 3298 2862 
Q 3072 2584 2669 2484 
Q 3125 2378 3379 2068 
Q 3634 1759 3634 1313 
Q 3634 634 3220 271 
Q 2806 -91 2034 -91 
Q 1263 -91 848 271 
Q 434 634 434 1313 
Q 434 1759 690 2068 
Q 947 2378 1403 2484 
z
M 1172 3481 
Q 1172 3119 1398 2916 
Q 1625 2713 2034 2713 
Q 2441 2713 2670 2916 
Q 2900 3119 2900 3481 
Q 2900 3844 2670 4047 
Q 2441 4250 2034 4250 
Q 1625 4250 1398 4047 
Q 1172 3844 1172 3481 
z
" id="DejaVuSans-38" transform="scale(0.015625)"/>
       </defs>
       <use xlink:href="#DejaVuSans-39"/>
       <use x="63.623047" xlink:href="#DejaVuSans-38"/>
      </g>
     </g>
    </g>
    <g id="ytick_6">
     <g id="line2d_23">
      <path clip-path="url(#pc0e3d38a9e)" d="M 50.87 68.419925 
L 366.25 68.419925 
" style="fill:none;stroke:#b0b0b0;stroke-linecap:square;stroke-width:0.8;"/>
     </g>
     <g id="line2d_24">
      <g>
       <use style="stroke:#000000;stroke-width:0.8;" x="50.87" xlink:href="#m6962f18a04" y="68.419925"/>
      </g>
     </g>
     <g id="text_13">
      <!-- 99 -->
      <g transform="translate(31.145 72.219144)scale(0.1 -0.1)">
       <use xlink:href="#DejaVuSans-39"/>
       <use x="63.623047" xlink:href="#DejaVuSans-39"/>
      </g>
     </g>
    </g>
    <g id="ytick_7">
     <g id="line2d_25">
      <path clip-path="url(#pc0e3d38a9e)" d="M 50.87 27.973574 
L 366.25 27.973574 
" style="fill:none;stroke:#b0b0b0;stroke-linecap:square;stroke-width:0.8;"/>
     </g>
     <g id="line2d_26">
      <g>
       <use style="stroke:#000000;stroke-width:0.8;" x="50.87" xlink:href="#m6962f18a04" y="27.973574"/>
      </g>
     </g>
     <g id="text_14">
      <!-- 100 -->
      <g transform="translate(24.7825 31.772793)scale(0.1 -0.1)">
       <use xlink:href="#DejaVuSans-31"/>
       <use x="63.623047" xlink:href="#DejaVuSans-30"/>
       <use x="127.246094" xlink:href="#DejaVuSans-30"/>
      </g>
     </g>
    </g>
    <g id="text_15">
     <!-- Test Accuracy -->
     <g transform="translate(18.702813 199.5225)rotate(-90)scale(0.1 -0.1)">
      <defs>
       <path d="M -19 4666 
L 3928 4666 
L 3928 4134 
L 2272 4134 
L 2272 0 
L 1638 0 
L 1638 4134 
L -19 4134 
L -19 4666 
z
" id="DejaVuSans-54" transform="scale(0.015625)"/>
       <path d="M 3597 1894 
L 3597 1613 
L 953 1613 
Q 991 1019 1311 708 
Q 1631 397 2203 397 
Q 2534 397 2845 478 
Q 3156 559 3463 722 
L 3463 178 
Q 3153 47 2828 -22 
Q 2503 -91 2169 -91 
Q 1331 -91 842 396 
Q 353 884 353 1716 
Q 353 2575 817 3079 
Q 1281 3584 2069 3584 
Q 2775 3584 3186 3129 
Q 3597 2675 3597 1894 
z
M 3022 2063 
Q 3016 2534 2758 2815 
Q 2500 3097 2075 3097 
Q 1594 3097 1305 2825 
Q 1016 2553 972 2059 
L 3022 2063 
z
" id="DejaVuSans-65" transform="scale(0.015625)"/>
       <path d="M 2188 4044 
L 1331 1722 
L 3047 1722 
L 2188 4044 
z
M 1831 4666 
L 2547 4666 
L 4325 0 
L 3669 0 
L 3244 1197 
L 1141 1197 
L 716 0 
L 50 0 
L 1831 4666 
z
" id="DejaVuSans-41" transform="scale(0.015625)"/>
       <path d="M 2631 2963 
Q 2534 3019 2420 3045 
Q 2306 3072 2169 3072 
Q 1681 3072 1420 2755 
Q 1159 2438 1159 1844 
L 1159 0 
L 581 0 
L 581 3500 
L 1159 3500 
L 1159 2956 
Q 1341 3275 1631 3429 
Q 1922 3584 2338 3584 
Q 2397 3584 2469 3576 
Q 2541 3569 2628 3553 
L 2631 2963 
z
" id="DejaVuSans-72" transform="scale(0.015625)"/>
       <path d="M 2059 -325 
Q 1816 -950 1584 -1140 
Q 1353 -1331 966 -1331 
L 506 -1331 
L 506 -850 
L 844 -850 
Q 1081 -850 1212 -737 
Q 1344 -625 1503 -206 
L 1606 56 
L 191 3500 
L 800 3500 
L 1894 763 
L 2988 3500 
L 3597 3500 
L 2059 -325 
z
" id="DejaVuSans-79" transform="scale(0.015625)"/>
      </defs>
      <use xlink:href="#DejaVuSans-54"/>
      <use x="44.083984" xlink:href="#DejaVuSans-65"/>
      <use x="105.607422" xlink:href="#DejaVuSans-73"/>
      <use x="157.707031" xlink:href="#DejaVuSans-74"/>
      <use x="196.916016" xlink:href="#DejaVuSans-20"/>
      <use x="228.703125" xlink:href="#DejaVuSans-41"/>
      <use x="295.361328" xlink:href="#DejaVuSans-63"/>
      <use x="350.341797" xlink:href="#DejaVuSans-63"/>
      <use x="405.322266" xlink:href="#DejaVuSans-75"/>
      <use x="468.701172" xlink:href="#DejaVuSans-72"/>
      <use x="509.814453" xlink:href="#DejaVuSans-61"/>
      <use x="571.09375" xlink:href="#DejaVuSans-63"/>
      <use x="626.074219" xlink:href="#DejaVuSans-79"/>
     </g>
    </g>
   </g>
   <g id="line2d_27">
    <path clip-path="url(#pc0e3d38a9e)" d="M 65.205455 202.046479 
L 71.05666 149.824607 
L 76.907866 132.417317 
L 82.759072 106.81836 
L 88.610278 98.626694 
L 94.461484 94.530861 
L 100.31269 81.219404 
L 106.163896 75.075654 
L 112.015102 72.003779 
L 117.866308 66.883988 
L 123.717514 61.764197 
L 129.56872 62.788155 
L 135.419926 58.692322 
L 141.271132 58.692322 
L 147.122338 55.620447 
L 152.973544 54.596489 
L 158.82475 53.572531 
L 164.675955 54.596489 
L 170.527161 56.644405 
L 176.378367 57.668364 
L 182.229573 56.644405 
L 188.080779 55.620447 
L 193.931985 55.620447 
L 199.783191 55.620447 
L 205.634397 55.620447 
L 211.485603 53.572531 
L 217.336809 52.548572 
L 223.188015 54.596489 
L 229.039221 52.548572 
L 234.890427 54.596489 
L 240.741633 54.596489 
L 246.592839 51.524614 
L 252.444045 51.524614 
L 258.29525 50.500656 
L 264.146456 49.476698 
L 269.997662 47.428781 
L 275.848868 46.404823 
L 281.700074 49.476698 
L 287.55128 47.428781 
L 293.402486 48.452739 
L 299.253692 48.452739 
L 305.104898 47.428781 
L 310.956104 49.476698 
L 316.80731 50.500656 
L 322.658516 52.548572 
L 328.509722 48.452739 
L 334.360928 51.524614 
L 340.212134 46.404823 
L 346.06334 50.500656 
L 351.914545 48.452739 
" style="fill:none;stroke:#1f77b4;stroke-linecap:square;stroke-width:1.5;"/>
   </g>
   <g id="line2d_28">
    <path clip-path="url(#pc0e3d38a9e)" d="M 65.205455 233.789185 
L 71.05666 152.896482 
L 76.907866 137.537108 
L 82.759072 120.129818 
L 88.610278 110.914193 
L 94.461484 100.674611 
L 100.31269 92.482945 
L 106.163896 87.363153 
L 112.015102 80.195446 
L 117.866308 83.26732 
L 123.717514 76.099612 
L 129.56872 75.075654 
L 135.419926 69.955863 
L 141.271132 64.836072 
L 147.122338 69.955863 
L 152.973544 63.812113 
L 158.82475 63.812113 
L 164.675955 65.86003 
L 170.527161 62.788155 
L 176.378367 57.668364 
L 182.229573 57.668364 
L 188.080779 56.644405 
L 193.931985 60.740239 
L 199.783191 61.764197 
L 205.634397 61.764197 
L 211.485603 63.812113 
L 217.336809 60.740239 
L 223.188015 58.692322 
L 229.039221 58.692322 
L 234.890427 59.71628 
L 240.741633 59.71628 
L 246.592839 58.692322 
L 252.444045 60.740239 
L 258.29525 58.692322 
L 264.146456 62.788155 
L 269.997662 57.668364 
L 275.848868 57.668364 
L 281.700074 58.692322 
L 287.55128 58.692322 
L 293.402486 60.740239 
L 299.253692 58.692322 
L 305.104898 54.596489 
L 310.956104 56.644405 
L 316.80731 52.548572 
L 322.658516 56.644405 
L 328.509722 59.71628 
L 334.360928 57.668364 
L 340.212134 58.692322 
L 346.06334 55.620447 
L 351.914545 57.668364 
" style="fill:none;stroke:#ff7f0e;stroke-linecap:square;stroke-width:1.5;"/>
   </g>
   <g id="line2d_29">
    <path clip-path="url(#pc0e3d38a9e)" d="M 65.205455 235.837101 
L 71.05666 154.944399 
L 76.907866 137.537108 
L 82.759072 126.273567 
L 88.610278 105.794402 
L 94.461484 88.387112 
L 100.31269 82.243362 
L 106.163896 79.171487 
L 112.015102 77.123571 
L 117.866308 66.883988 
L 123.717514 63.812113 
L 129.56872 65.86003 
L 135.419926 65.86003 
L 141.271132 65.86003 
L 147.122338 63.812113 
L 152.973544 61.764197 
L 158.82475 60.740239 
L 164.675955 61.764197 
L 170.527161 59.71628 
L 176.378367 57.668364 
L 182.229573 59.71628 
L 188.080779 59.71628 
L 193.931985 52.548572 
L 199.783191 53.572531 
L 205.634397 53.572531 
L 211.485603 55.620447 
L 217.336809 52.548572 
L 223.188015 52.548572 
L 229.039221 52.548572 
L 234.890427 53.572531 
L 240.741633 54.596489 
L 246.592839 51.524614 
L 252.444045 52.548572 
L 258.29525 52.548572 
L 264.146456 52.548572 
L 269.997662 52.548572 
L 275.848868 52.548572 
L 281.700074 52.548572 
L 287.55128 55.620447 
L 293.402486 53.572531 
L 299.253692 50.500656 
L 305.104898 52.548572 
L 310.956104 54.596489 
L 316.80731 53.572531 
L 322.658516 52.548572 
L 328.509722 53.572531 
L 334.360928 53.572531 
L 340.212134 54.596489 
L 346.06334 52.548572 
L 351.914545 51.524614 
" style="fill:none;stroke:#2ca02c;stroke-linecap:square;stroke-width:1.5;"/>
   </g>
   <g id="line2d_30">
    <path clip-path="url(#pc0e3d38a9e)" d="M 65.205455 269.195614 
L 71.05666 185.633452 
L 76.907866 164.439564 
L 82.759072 149.555306 
L 88.610278 139.524611 
L 94.461484 132.244268 
L 100.31269 125.934637 
L 106.163896 120.838397 
L 112.015102 116.712869 
L 117.866308 113.719839 
L 123.717514 110.726809 
L 129.56872 109.028062 
L 135.419926 106.196818 
L 141.271132 103.365573 
L 147.122338 102.313968 
L 152.973544 101.343256 
L 158.82475 99.482723 
L 164.675955 99.644509 
L 170.527161 96.327908 
L 176.378367 95.276303 
L 182.229573 94.871839 
L 188.080779 93.173093 
L 193.931985 91.717024 
L 199.783191 91.31256 
L 205.634397 91.150775 
L 211.485603 89.937384 
L 217.336809 89.694706 
L 223.188015 88.966672 
L 229.039221 88.804887 
L 234.890427 88.723994 
L 240.741633 87.510603 
L 246.592839 87.267925 
L 252.444045 87.187033 
L 258.29525 86.539891 
L 264.146456 86.378105 
L 269.997662 86.054535 
L 275.848868 85.407393 
L 281.700074 84.760251 
L 287.55128 85.892749 
L 293.402486 85.00293 
L 299.253692 85.083822 
L 305.104898 84.032217 
L 310.956104 84.679359 
L 316.80731 85.245608 
L 322.658516 84.760251 
L 328.509722 84.194003 
L 334.360928 84.194003 
L 340.212134 84.760251 
L 346.06334 83.708646 
L 351.914545 83.22329 
" style="fill:none;stroke:#d62728;stroke-linecap:square;stroke-width:1.5;"/>
   </g>
   <g id="patch_3">
    <path d="M 50.87 303.64 
L 50.87 26.88 
" style="fill:none;stroke:#000000;stroke-linecap:square;stroke-linejoin:miter;stroke-width:0.8;"/>
   </g>
   <g id="patch_4">
    <path d="M 366.25 303.64 
L 366.25 26.88 
" style="fill:none;stroke:#000000;stroke-linecap:square;stroke-linejoin:miter;stroke-width:0.8;"/>
   </g>
   <g id="patch_5">
    <path d="M 50.87 303.64 
L 366.25 303.64 
" style="fill:none;stroke:#000000;stroke-linecap:square;stroke-linejoin:miter;stroke-width:0.8;"/>
   </g>
   <g id="patch_6">
    <path d="M 50.87 26.88 
L 366.25 26.88 
" style="fill:none;stroke:#000000;stroke-linecap:square;stroke-linejoin:miter;stroke-width:0.8;"/>
   </g>
   <g id="text_16">
    <!-- MNIST Local Rounds 10 -->
    <g transform="translate(138.632812 20.88)scale(0.12 -0.12)">
     <defs>
      <path d="M 628 4666 
L 1569 4666 
L 2759 1491 
L 3956 4666 
L 4897 4666 
L 4897 0 
L 4281 0 
L 4281 4097 
L 3078 897 
L 2444 897 
L 1241 4097 
L 1241 0 
L 628 0 
L 628 4666 
z
" id="DejaVuSans-4d" transform="scale(0.015625)"/>
      <path d="M 628 4666 
L 1478 4666 
L 3547 763 
L 3547 4666 
L 4159 4666 
L 4159 0 
L 3309 0 
L 1241 3903 
L 1241 0 
L 628 0 
L 628 4666 
z
" id="DejaVuSans-4e" transform="scale(0.015625)"/>
      <path d="M 628 4666 
L 1259 4666 
L 1259 0 
L 628 0 
L 628 4666 
z
" id="DejaVuSans-49" transform="scale(0.015625)"/>
      <path d="M 3425 4513 
L 3425 3897 
Q 3066 4069 2747 4153 
Q 2428 4238 2131 4238 
Q 1616 4238 1336 4038 
Q 1056 3838 1056 3469 
Q 1056 3159 1242 3001 
Q 1428 2844 1947 2747 
L 2328 2669 
Q 3034 2534 3370 2195 
Q 3706 1856 3706 1288 
Q 3706 609 3251 259 
Q 2797 -91 1919 -91 
Q 1588 -91 1214 -16 
Q 841 59 441 206 
L 441 856 
Q 825 641 1194 531 
Q 1563 422 1919 422 
Q 2459 422 2753 634 
Q 3047 847 3047 1241 
Q 3047 1584 2836 1778 
Q 2625 1972 2144 2069 
L 1759 2144 
Q 1053 2284 737 2584 
Q 422 2884 422 3419 
Q 422 4038 858 4394 
Q 1294 4750 2059 4750 
Q 2388 4750 2728 4690 
Q 3069 4631 3425 4513 
z
" id="DejaVuSans-53" transform="scale(0.015625)"/>
      <path d="M 628 4666 
L 1259 4666 
L 1259 531 
L 3531 531 
L 3531 0 
L 628 0 
L 628 4666 
z
" id="DejaVuSans-4c" transform="scale(0.015625)"/>
     </defs>
     <use xlink:href="#DejaVuSans-4d"/>
     <use x="86.279297" xlink:href="#DejaVuSans-4e"/>
     <use x="161.083984" xlink:href="#DejaVuSans-49"/>
     <use x="190.576172" xlink:href="#DejaVuSans-53"/>
     <use x="254.052734" xlink:href="#DejaVuSans-54"/>
     <use x="315.136719" xlink:href="#DejaVuSans-20"/>
     <use x="346.923828" xlink:href="#DejaVuSans-4c"/>
     <use x="400.886719" xlink:href="#DejaVuSans-6f"/>
     <use x="462.068359" xlink:href="#DejaVuSans-63"/>
     <use x="517.048828" xlink:href="#DejaVuSans-61"/>
     <use x="578.328125" xlink:href="#DejaVuSans-6c"/>
     <use x="606.111328" xlink:href="#DejaVuSans-20"/>
     <use x="637.898438" xlink:href="#DejaVuSans-52"/>
     <use x="702.880859" xlink:href="#DejaVuSans-6f"/>
     <use x="764.0625" xlink:href="#DejaVuSans-75"/>
     <use x="827.441406" xlink:href="#DejaVuSans-6e"/>
     <use x="890.820312" xlink:href="#DejaVuSans-64"/>
     <use x="954.296875" xlink:href="#DejaVuSans-73"/>
     <use x="1006.396484" xlink:href="#DejaVuSans-20"/>
     <use x="1038.183594" xlink:href="#DejaVuSans-31"/>
     <use x="1101.806641" xlink:href="#DejaVuSans-30"/>
    </g>
   </g>
   <g id="legend_1">
    <g id="patch_7">
     <path d="M 373.25 196.11625 
L 447.821875 196.11625 
Q 449.821875 196.11625 449.821875 194.11625 
L 449.821875 136.40375 
Q 449.821875 134.40375 447.821875 134.40375 
L 373.25 134.40375 
Q 371.25 134.40375 371.25 136.40375 
L 371.25 194.11625 
Q 371.25 196.11625 373.25 196.11625 
z
" style="fill:#ffffff;opacity:0.8;stroke:#cccccc;stroke-linejoin:miter;"/>
    </g>
    <g id="line2d_31">
     <path d="M 375.25 142.502187 
L 395.25 142.502187 
" style="fill:none;stroke:#1f77b4;stroke-linecap:square;stroke-width:1.5;"/>
    </g>
    <g id="line2d_32"/>
    <g id="text_17">
     <!-- FedAvg -->
     <g transform="translate(403.25 146.002187)scale(0.1 -0.1)">
      <defs>
       <path d="M 628 4666 
L 3309 4666 
L 3309 4134 
L 1259 4134 
L 1259 2759 
L 3109 2759 
L 3109 2228 
L 1259 2228 
L 1259 0 
L 628 0 
L 628 4666 
z
" id="DejaVuSans-46" transform="scale(0.015625)"/>
       <path d="M 191 3500 
L 800 3500 
L 1894 563 
L 2988 3500 
L 3597 3500 
L 2284 0 
L 1503 0 
L 191 3500 
z
" id="DejaVuSans-76" transform="scale(0.015625)"/>
       <path d="M 2906 1791 
Q 2906 2416 2648 2759 
Q 2391 3103 1925 3103 
Q 1463 3103 1205 2759 
Q 947 2416 947 1791 
Q 947 1169 1205 825 
Q 1463 481 1925 481 
Q 2391 481 2648 825 
Q 2906 1169 2906 1791 
z
M 3481 434 
Q 3481 -459 3084 -895 
Q 2688 -1331 1869 -1331 
Q 1566 -1331 1297 -1286 
Q 1028 -1241 775 -1147 
L 775 -588 
Q 1028 -725 1275 -790 
Q 1522 -856 1778 -856 
Q 2344 -856 2625 -561 
Q 2906 -266 2906 331 
L 2906 616 
Q 2728 306 2450 153 
Q 2172 0 1784 0 
Q 1141 0 747 490 
Q 353 981 353 1791 
Q 353 2603 747 3093 
Q 1141 3584 1784 3584 
Q 2172 3584 2450 3431 
Q 2728 3278 2906 2969 
L 2906 3500 
L 3481 3500 
L 3481 434 
z
" id="DejaVuSans-67" transform="scale(0.015625)"/>
      </defs>
      <use xlink:href="#DejaVuSans-46"/>
      <use x="52.019531" xlink:href="#DejaVuSans-65"/>
      <use x="113.542969" xlink:href="#DejaVuSans-64"/>
      <use x="177.019531" xlink:href="#DejaVuSans-41"/>
      <use x="239.552734" xlink:href="#DejaVuSans-76"/>
      <use x="298.732422" xlink:href="#DejaVuSans-67"/>
     </g>
    </g>
    <g id="line2d_33">
     <path d="M 375.25 157.180312 
L 395.25 157.180312 
" style="fill:none;stroke:#ff7f0e;stroke-linecap:square;stroke-width:1.5;"/>
    </g>
    <g id="line2d_34"/>
    <g id="text_18">
     <!-- FedMed -->
     <g transform="translate(403.25 160.680312)scale(0.1 -0.1)">
      <use xlink:href="#DejaVuSans-46"/>
      <use x="52.019531" xlink:href="#DejaVuSans-65"/>
      <use x="113.542969" xlink:href="#DejaVuSans-64"/>
      <use x="177.019531" xlink:href="#DejaVuSans-4d"/>
      <use x="263.298828" xlink:href="#DejaVuSans-65"/>
      <use x="324.822266" xlink:href="#DejaVuSans-64"/>
     </g>
    </g>
    <g id="line2d_35">
     <path d="M 375.25 171.858437 
L 395.25 171.858437 
" style="fill:none;stroke:#2ca02c;stroke-linecap:square;stroke-width:1.5;"/>
    </g>
    <g id="line2d_36"/>
    <g id="text_19">
     <!-- FedProx -->
     <g transform="translate(403.25 175.358437)scale(0.1 -0.1)">
      <defs>
       <path d="M 1259 4147 
L 1259 2394 
L 2053 2394 
Q 2494 2394 2734 2622 
Q 2975 2850 2975 3272 
Q 2975 3691 2734 3919 
Q 2494 4147 2053 4147 
L 1259 4147 
z
M 628 4666 
L 2053 4666 
Q 2838 4666 3239 4311 
Q 3641 3956 3641 3272 
Q 3641 2581 3239 2228 
Q 2838 1875 2053 1875 
L 1259 1875 
L 1259 0 
L 628 0 
L 628 4666 
z
" id="DejaVuSans-50" transform="scale(0.015625)"/>
       <path d="M 3513 3500 
L 2247 1797 
L 3578 0 
L 2900 0 
L 1881 1375 
L 863 0 
L 184 0 
L 1544 1831 
L 300 3500 
L 978 3500 
L 1906 2253 
L 2834 3500 
L 3513 3500 
z
" id="DejaVuSans-78" transform="scale(0.015625)"/>
      </defs>
      <use xlink:href="#DejaVuSans-46"/>
      <use x="52.019531" xlink:href="#DejaVuSans-65"/>
      <use x="113.542969" xlink:href="#DejaVuSans-64"/>
      <use x="177.019531" xlink:href="#DejaVuSans-50"/>
      <use x="235.572266" xlink:href="#DejaVuSans-72"/>
      <use x="274.435547" xlink:href="#DejaVuSans-6f"/>
      <use x="332.492188" xlink:href="#DejaVuSans-78"/>
     </g>
    </g>
    <g id="line2d_37">
     <path d="M 375.25 186.536563 
L 395.25 186.536563 
" style="fill:none;stroke:#d62728;stroke-linecap:square;stroke-width:1.5;"/>
    </g>
    <g id="line2d_38"/>
    <g id="text_20">
     <!-- qFedAvg -->
     <g transform="translate(403.25 190.036563)scale(0.1 -0.1)">
      <defs>
       <path d="M 947 1747 
Q 947 1113 1208 752 
Q 1469 391 1925 391 
Q 2381 391 2643 752 
Q 2906 1113 2906 1747 
Q 2906 2381 2643 2742 
Q 2381 3103 1925 3103 
Q 1469 3103 1208 2742 
Q 947 2381 947 1747 
z
M 2906 525 
Q 2725 213 2448 61 
Q 2172 -91 1784 -91 
Q 1150 -91 751 415 
Q 353 922 353 1747 
Q 353 2572 751 3078 
Q 1150 3584 1784 3584 
Q 2172 3584 2448 3432 
Q 2725 3281 2906 2969 
L 2906 3500 
L 3481 3500 
L 3481 -1331 
L 2906 -1331 
L 2906 525 
z
" id="DejaVuSans-71" transform="scale(0.015625)"/>
      </defs>
      <use xlink:href="#DejaVuSans-71"/>
      <use x="63.476562" xlink:href="#DejaVuSans-46"/>
      <use x="115.496094" xlink:href="#DejaVuSans-65"/>
      <use x="177.019531" xlink:href="#DejaVuSans-64"/>
      <use x="240.496094" xlink:href="#DejaVuSans-41"/>
      <use x="303.029297" xlink:href="#DejaVuSans-76"/>
      <use x="362.208984" xlink:href="#DejaVuSans-67"/>
     </g>
    </g>
   </g>
  </g>
 </g>
 <defs>
  <clipPath id="pc0e3d38a9e">
   <rect height="276.76" width="315.38" x="50.87" y="26.88"/>
  </clipPath>
 </defs>
</svg>
