<?xml version="1.0" encoding="utf-8" standalone="no"?>
<!DOCTYPE svg PUBLIC "-//W3C//DTD SVG 1.1//EN"
  "http://www.w3.org/Graphics/SVG/1.1/DTD/svg11.dtd">
<!-- Created with matplotlib (https://matplotlib.org/) -->
<svg height="432pt" version="1.1" viewBox="0 0 576 432" width="576pt" xmlns="http://www.w3.org/2000/svg" xmlns:xlink="http://www.w3.org/1999/xlink">
 <defs>
  <style type="text/css">
*{stroke-linecap:butt;stroke-linejoin:round;}
  </style>
 </defs>
 <g id="figure_1">
  <g id="patch_1">
   <path d="M 0 432 
L 576 432 
L 576 0 
L 0 0 
z
" style="fill:#ffffff;"/>
  </g>
  <g id="axes_1">
   <g id="patch_2">
    <path d="M 70.7 374.8 
L 551.35 374.8 
L 551.35 56.448219 
L 70.7 56.448219 
z
" style="fill:#ffffff;"/>
   </g>
   <g id="PolyCollection_1">
    <path clip-path="url(#p4ac47530ae)" d="M 92.547727 301.232777 
L 92.547727 332.34067 
L 101.465167 318.241622 
L 110.382607 250.807569 
L 119.300046 215.349324 
L 128.217486 170.500944 
L 137.134926 138.850169 
L 146.052365 141.284972 
L 154.969805 160.254713 
L 163.887245 142.886983 
L 172.804685 133.191638 
L 181.722124 127.672056 
L 190.639564 105.89213 
L 199.557004 108.309774 
L 208.474443 106.372791 
L 217.391883 99.904796 
L 226.309323 119.886552 
L 235.226763 96.587777 
L 244.144202 90.397934 
L 253.061642 105.841424 
L 261.979082 101.699481 
L 270.896521 102.041117 
L 279.813961 107.88424 
L 288.731401 88.64704 
L 297.64884 95.536679 
L 306.56628 82.0627 
L 315.48372 89.89242 
L 324.40116 83.919373 
L 333.318599 87.987967 
L 342.236039 88.126904 
L 351.153479 100.42909 
L 360.070918 81.881436 
L 368.988358 81.961662 
L 377.905798 84.349273 
L 386.823237 82.255801 
L 395.740677 81.167354 
L 404.658117 78.387421 
L 413.575557 82.35605 
L 422.492996 85.948231 
L 431.410436 81.185378 
L 440.327876 76.835601 
L 449.245315 79.391407 
L 458.162755 81.379124 
L 467.080195 78.170096 
L 475.997635 85.245158 
L 484.915074 77.128364 
L 493.832514 76.920115 
L 502.749954 76.229718 
L 511.667393 81.975518 
L 520.584833 77.331317 
L 529.502273 77.766277 
L 529.502273 72.877093 
L 529.502273 72.877093 
L 520.584833 73.634437 
L 511.667393 73.987176 
L 502.749954 74.09127 
L 493.832514 73.562064 
L 484.915074 73.031432 
L 475.997635 71.845878 
L 467.080195 72.956849 
L 458.162755 74.744762 
L 449.245315 74.959371 
L 440.327876 74.613728 
L 431.410436 73.004209 
L 422.492996 73.077103 
L 413.575557 75.702135 
L 404.658117 76.28574 
L 395.740677 76.568447 
L 386.823237 77.736683 
L 377.905798 76.771553 
L 368.988358 77.547248 
L 360.070918 78.755815 
L 351.153479 72.619915 
L 342.236039 73.79988 
L 333.318599 75.22835 
L 324.40116 76.717877 
L 315.48372 80.416327 
L 306.56628 78.735742 
L 297.64884 79.9302 
L 288.731401 80.694558 
L 279.813961 72.740771 
L 270.896521 75.843636 
L 261.979082 77.635997 
L 253.061642 79.458143 
L 244.144202 82.328688 
L 235.226763 79.201485 
L 226.309323 77.663579 
L 217.391883 90.552904 
L 208.474443 81.828225 
L 199.557004 87.789632 
L 190.639564 90.046084 
L 181.722124 89.865835 
L 172.804685 85.15221 
L 163.887245 96.411776 
L 154.969805 100.321339 
L 146.052365 117.195588 
L 137.134926 121.725883 
L 128.217486 121.668664 
L 119.300046 182.561983 
L 110.382607 213.353491 
L 101.465167 237.315084 
L 92.547727 301.232777 
z
" style="fill:#1f77b4;fill-opacity:0.5;"/>
   </g>
   <g id="PolyCollection_2">
    <path clip-path="url(#p4ac47530ae)" d="M 92.547727 338.043011 
L 92.547727 360.329464 
L 101.465167 359.397994 
L 110.382607 314.807473 
L 119.300046 323.737706 
L 128.217486 328.539304 
L 137.134926 241.198063 
L 146.052365 259.124116 
L 154.969805 297.748398 
L 163.887245 279.447688 
L 172.804685 245.905831 
L 181.722124 241.68471 
L 190.639564 205.331858 
L 199.557004 175.290624 
L 208.474443 201.273603 
L 217.391883 236.872803 
L 226.309323 240.404981 
L 235.226763 219.972734 
L 244.144202 168.732226 
L 253.061642 181.388932 
L 261.979082 187.28263 
L 270.896521 180.621737 
L 279.813961 181.892082 
L 288.731401 175.446395 
L 297.64884 162.695907 
L 306.56628 184.017881 
L 315.48372 191.339844 
L 324.40116 204.573467 
L 333.318599 133.439663 
L 342.236039 167.445337 
L 351.153479 206.851875 
L 360.070918 245.582657 
L 368.988358 211.686645 
L 377.905798 198.272009 
L 386.823237 166.452949 
L 395.740677 164.760154 
L 404.658117 178.108684 
L 413.575557 193.354929 
L 422.492996 159.251062 
L 431.410436 135.670223 
L 440.327876 154.701034 
L 449.245315 161.804067 
L 458.162755 120.796632 
L 467.080195 142.538442 
L 475.997635 151.199664 
L 484.915074 163.477033 
L 493.832514 140.76013 
L 502.749954 134.121389 
L 511.667393 147.129618 
L 520.584833 135.845612 
L 529.502273 168.401514 
L 529.502273 100.556502 
L 529.502273 100.556502 
L 520.584833 93.459266 
L 511.667393 111.673325 
L 502.749954 119.039848 
L 493.832514 122.556179 
L 484.915074 117.731546 
L 475.997635 102.60634 
L 467.080195 98.211041 
L 458.162755 99.481516 
L 449.245315 109.088248 
L 440.327876 96.848288 
L 431.410436 114.428373 
L 422.492996 114.865085 
L 413.575557 100.748979 
L 404.658117 102.777511 
L 395.740677 131.278052 
L 386.823237 129.101683 
L 377.905798 107.921269 
L 368.988358 104.339322 
L 360.070918 73.344759 
L 351.153479 89.99229 
L 342.236039 106.026044 
L 333.318599 95.542832 
L 324.40116 88.240908 
L 315.48372 142.094817 
L 306.56628 103.638361 
L 297.64884 112.226198 
L 288.731401 118.657512 
L 279.813961 138.163676 
L 270.896521 117.834344 
L 261.979082 117.298733 
L 253.061642 119.807406 
L 244.144202 111.348011 
L 235.226763 107.175454 
L 226.309323 133.166392 
L 217.391883 142.340277 
L 208.474443 154.244309 
L 199.557004 145.732283 
L 190.639564 149.863671 
L 181.722124 156.065405 
L 172.804685 113.158297 
L 163.887245 145.221427 
L 154.969805 188.495913 
L 146.052365 203.263837 
L 137.134926 192.820165 
L 128.217486 283.918041 
L 119.300046 242.78003 
L 110.382607 241.877574 
L 101.465167 303.189944 
L 92.547727 338.043011 
z
" style="fill:#ff7f0e;fill-opacity:0.5;"/>
   </g>
   <g id="PolyCollection_3">
    <path clip-path="url(#p4ac47530ae)" d="M 92.547727 278.043414 
L 92.547727 329.094608 
L 101.465167 273.157508 
L 110.382607 216.460466 
L 119.300046 180.605977 
L 128.217486 157.797451 
L 137.134926 136.768337 
L 146.052365 141.514721 
L 154.969805 133.063169 
L 163.887245 120.271579 
L 172.804685 99.287535 
L 181.722124 94.781234 
L 190.639564 102.12362 
L 199.557004 103.215891 
L 208.474443 101.774855 
L 217.391883 99.556077 
L 226.309323 90.710034 
L 235.226763 91.536703 
L 244.144202 87.388288 
L 253.061642 90.945852 
L 261.979082 90.056847 
L 270.896521 83.876513 
L 279.813961 83.509515 
L 288.731401 85.167127 
L 297.64884 84.126052 
L 306.56628 84.938775 
L 315.48372 80.975616 
L 324.40116 82.017176 
L 333.318599 82.252925 
L 342.236039 81.561133 
L 351.153479 79.602831 
L 360.070918 81.089235 
L 368.988358 77.947161 
L 377.905798 80.300245 
L 386.823237 81.34962 
L 395.740677 80.2272 
L 404.658117 84.435114 
L 413.575557 83.468451 
L 422.492996 79.88319 
L 431.410436 78.328495 
L 440.327876 77.575007 
L 449.245315 78.134463 
L 458.162755 77.961092 
L 467.080195 79.115787 
L 475.997635 79.227791 
L 484.915074 78.519461 
L 493.832514 80.385086 
L 502.749954 77.671437 
L 511.667393 80.159112 
L 520.584833 76.984359 
L 529.502273 77.124515 
L 529.502273 72.068131 
L 529.502273 72.068131 
L 520.584833 70.918754 
L 511.667393 72.418558 
L 502.749954 72.971934 
L 493.832514 73.965692 
L 484.915074 74.058209 
L 475.997635 73.994646 
L 467.080195 73.784266 
L 458.162755 74.133003 
L 449.245315 74.120824 
L 440.327876 73.71313 
L 431.410436 74.893941 
L 422.492996 75.112354 
L 413.575557 74.589734 
L 404.658117 73.784263 
L 395.740677 73.640003 
L 386.823237 74.774266 
L 377.905798 75.017683 
L 368.988358 76.081233 
L 360.070918 76.162992 
L 351.153479 76.198672 
L 342.236039 77.464202 
L 333.318599 78.706709 
L 324.40116 75.557434 
L 315.48372 77.24376 
L 306.56628 77.471583 
L 297.64884 79.090265 
L 288.731401 78.532765 
L 279.813961 80.190376 
L 270.896521 78.856229 
L 261.979082 79.768326 
L 253.061642 82.425537 
L 244.144202 82.275693 
L 235.226763 82.157068 
L 226.309323 84.756845 
L 217.391883 85.259916 
L 208.474443 86.748545 
L 199.557004 83.856785 
L 190.639564 92.36387 
L 181.722124 88.422843 
L 172.804685 90.041823 
L 163.887245 93.236521 
L 154.969805 101.561032 
L 146.052365 105.03766 
L 137.134926 129.771804 
L 128.217486 131.793091 
L 119.300046 154.762984 
L 110.382607 183.385141 
L 101.465167 234.525288 
L 92.547727 278.043414 
z
" style="fill:#2ca02c;fill-opacity:0.5;"/>
   </g>
   <g id="PolyCollection_4">
    <path clip-path="url(#p4ac47530ae)" d="M 92.547727 254.57877 
L 92.547727 331.661888 
L 101.465167 294.808402 
L 110.382607 261.475536 
L 119.300046 240.955992 
L 128.217486 223.122058 
L 137.134926 190.636666 
L 146.052365 178.793349 
L 154.969805 167.305958 
L 163.887245 156.385753 
L 172.804685 152.02335 
L 181.722124 147.148691 
L 190.639564 144.041696 
L 199.557004 140.329082 
L 208.474443 138.643017 
L 217.391883 138.008977 
L 226.309323 136.276483 
L 235.226763 136.14465 
L 244.144202 136.293038 
L 253.061642 133.653798 
L 261.979082 133.28971 
L 270.896521 133.026056 
L 279.813961 132.238784 
L 288.731401 132.195771 
L 297.64884 132.261805 
L 306.56628 130.111824 
L 315.48372 131.032786 
L 324.40116 130.305568 
L 333.318599 130.084944 
L 342.236039 129.210498 
L 351.153479 129.363938 
L 360.070918 129.455705 
L 368.988358 128.604191 
L 377.905798 129.246193 
L 386.823237 128.748735 
L 395.740677 128.967275 
L 404.658117 128.164251 
L 413.575557 128.042687 
L 422.492996 128.199735 
L 431.410436 127.638791 
L 440.327876 127.449869 
L 449.245315 127.664513 
L 458.162755 127.636345 
L 467.080195 127.202126 
L 475.997635 127.598915 
L 484.915074 126.79078 
L 493.832514 127.437502 
L 502.749954 127.106287 
L 511.667393 126.693464 
L 520.584833 126.916033 
L 529.502273 126.780783 
L 529.502273 107.004417 
L 529.502273 107.004417 
L 520.584833 107.454937 
L 511.667393 106.709711 
L 502.749954 106.85719 
L 493.832514 109.047335 
L 484.915074 107.656595 
L 475.997635 107.816254 
L 467.080195 107.448995 
L 458.162755 107.562343 
L 449.245315 108.209085 
L 440.327876 108.4874 
L 431.410436 108.693236 
L 422.492996 108.947277 
L 413.575557 108.976983 
L 404.658117 108.664407 
L 395.740677 108.790975 
L 386.823237 109.748096 
L 377.905798 110.294836 
L 368.988358 109.981778 
L 360.070918 110.034388 
L 351.153479 110.877469 
L 342.236039 110.954505 
L 333.318599 112.041116 
L 324.40116 111.960567 
L 315.48372 112.901521 
L 306.56628 112.498132 
L 297.64884 113.035054 
L 288.731401 113.457645 
L 279.813961 114.484299 
L 270.896521 114.970441 
L 261.979082 114.65585 
L 253.061642 117.347955 
L 244.144202 118.121464 
L 235.226763 120.243643 
L 226.309323 121.105074 
L 217.391883 122.836264 
L 208.474443 124.354294 
L 199.557004 127.774618 
L 190.639564 129.703227 
L 181.722124 130.136322 
L 172.804685 135.576315 
L 163.887245 142.127067 
L 154.969805 148.194202 
L 146.052365 154.228984 
L 137.134926 162.760287 
L 128.217486 177.340267 
L 119.300046 198.689274 
L 110.382607 224.814876 
L 101.465167 228.53835 
L 92.547727 254.57877 
z
" style="fill:#d62728;fill-opacity:0.5;"/>
   </g>
   <g id="matplotlib.axis_1">
    <g id="xtick_1">
     <g id="line2d_1">
      <defs>
       <path d="M 0 0 
L 0 3.5 
" id="m78e4240653" style="stroke:#000000;stroke-width:0.8;"/>
      </defs>
      <g>
       <use style="stroke:#000000;stroke-width:0.8;" x="92.547727" xlink:href="#m78e4240653" y="374.8"/>
      </g>
     </g>
     <g id="text_1">
      <!-- 0 -->
      <defs>
       <path d="M 31.78125 66.40625 
Q 24.171875 66.40625 20.328125 58.90625 
Q 16.5 51.421875 16.5 36.375 
Q 16.5 21.390625 20.328125 13.890625 
Q 24.171875 6.390625 31.78125 6.390625 
Q 39.453125 6.390625 43.28125 13.890625 
Q 47.125 21.390625 47.125 36.375 
Q 47.125 51.421875 43.28125 58.90625 
Q 39.453125 66.40625 31.78125 66.40625 
z
M 31.78125 74.21875 
Q 44.046875 74.21875 50.515625 64.515625 
Q 56.984375 54.828125 56.984375 36.375 
Q 56.984375 17.96875 50.515625 8.265625 
Q 44.046875 -1.421875 31.78125 -1.421875 
Q 19.53125 -1.421875 13.0625 8.265625 
Q 6.59375 17.96875 6.59375 36.375 
Q 6.59375 54.828125 13.0625 64.515625 
Q 19.53125 74.21875 31.78125 74.21875 
z
" id="DejaVuSans-48"/>
      </defs>
      <g transform="translate(87.775852 393.197656)scale(0.15 -0.15)">
       <use xlink:href="#DejaVuSans-48"/>
      </g>
     </g>
    </g>
    <g id="xtick_2">
     <g id="line2d_2">
      <g>
       <use style="stroke:#000000;stroke-width:0.8;" x="181.722124" xlink:href="#m78e4240653" y="374.8"/>
      </g>
     </g>
     <g id="text_2">
      <!-- 10 -->
      <defs>
       <path d="M 12.40625 8.296875 
L 28.515625 8.296875 
L 28.515625 63.921875 
L 10.984375 60.40625 
L 10.984375 69.390625 
L 28.421875 72.90625 
L 38.28125 72.90625 
L 38.28125 8.296875 
L 54.390625 8.296875 
L 54.390625 0 
L 12.40625 0 
z
" id="DejaVuSans-49"/>
      </defs>
      <g transform="translate(172.178374 393.197656)scale(0.15 -0.15)">
       <use xlink:href="#DejaVuSans-49"/>
       <use x="63.623047" xlink:href="#DejaVuSans-48"/>
      </g>
     </g>
    </g>
    <g id="xtick_3">
     <g id="line2d_3">
      <g>
       <use style="stroke:#000000;stroke-width:0.8;" x="270.896521" xlink:href="#m78e4240653" y="374.8"/>
      </g>
     </g>
     <g id="text_3">
      <!-- 20 -->
      <defs>
       <path d="M 19.1875 8.296875 
L 53.609375 8.296875 
L 53.609375 0 
L 7.328125 0 
L 7.328125 8.296875 
Q 12.9375 14.109375 22.625 23.890625 
Q 32.328125 33.6875 34.8125 36.53125 
Q 39.546875 41.84375 41.421875 45.53125 
Q 43.3125 49.21875 43.3125 52.78125 
Q 43.3125 58.59375 39.234375 62.25 
Q 35.15625 65.921875 28.609375 65.921875 
Q 23.96875 65.921875 18.8125 64.3125 
Q 13.671875 62.703125 7.8125 59.421875 
L 7.8125 69.390625 
Q 13.765625 71.78125 18.9375 73 
Q 24.125 74.21875 28.421875 74.21875 
Q 39.75 74.21875 46.484375 68.546875 
Q 53.21875 62.890625 53.21875 53.421875 
Q 53.21875 48.921875 51.53125 44.890625 
Q 49.859375 40.875 45.40625 35.40625 
Q 44.1875 33.984375 37.640625 27.21875 
Q 31.109375 20.453125 19.1875 8.296875 
z
" id="DejaVuSans-50"/>
      </defs>
      <g transform="translate(261.352771 393.197656)scale(0.15 -0.15)">
       <use xlink:href="#DejaVuSans-50"/>
       <use x="63.623047" xlink:href="#DejaVuSans-48"/>
      </g>
     </g>
    </g>
    <g id="xtick_4">
     <g id="line2d_4">
      <g>
       <use style="stroke:#000000;stroke-width:0.8;" x="360.070918" xlink:href="#m78e4240653" y="374.8"/>
      </g>
     </g>
     <g id="text_4">
      <!-- 30 -->
      <defs>
       <path d="M 40.578125 39.3125 
Q 47.65625 37.796875 51.625 33 
Q 55.609375 28.21875 55.609375 21.1875 
Q 55.609375 10.40625 48.1875 4.484375 
Q 40.765625 -1.421875 27.09375 -1.421875 
Q 22.515625 -1.421875 17.65625 -0.515625 
Q 12.796875 0.390625 7.625 2.203125 
L 7.625 11.71875 
Q 11.71875 9.328125 16.59375 8.109375 
Q 21.484375 6.890625 26.8125 6.890625 
Q 36.078125 6.890625 40.9375 10.546875 
Q 45.796875 14.203125 45.796875 21.1875 
Q 45.796875 27.640625 41.28125 31.265625 
Q 36.765625 34.90625 28.71875 34.90625 
L 20.21875 34.90625 
L 20.21875 43.015625 
L 29.109375 43.015625 
Q 36.375 43.015625 40.234375 45.921875 
Q 44.09375 48.828125 44.09375 54.296875 
Q 44.09375 59.90625 40.109375 62.90625 
Q 36.140625 65.921875 28.71875 65.921875 
Q 24.65625 65.921875 20.015625 65.03125 
Q 15.375 64.15625 9.8125 62.3125 
L 9.8125 71.09375 
Q 15.4375 72.65625 20.34375 73.4375 
Q 25.25 74.21875 29.59375 74.21875 
Q 40.828125 74.21875 47.359375 69.109375 
Q 53.90625 64.015625 53.90625 55.328125 
Q 53.90625 49.265625 50.4375 45.09375 
Q 46.96875 40.921875 40.578125 39.3125 
z
" id="DejaVuSans-51"/>
      </defs>
      <g transform="translate(350.527168 393.197656)scale(0.15 -0.15)">
       <use xlink:href="#DejaVuSans-51"/>
       <use x="63.623047" xlink:href="#DejaVuSans-48"/>
      </g>
     </g>
    </g>
    <g id="xtick_5">
     <g id="line2d_5">
      <g>
       <use style="stroke:#000000;stroke-width:0.8;" x="449.245315" xlink:href="#m78e4240653" y="374.8"/>
      </g>
     </g>
     <g id="text_5">
      <!-- 40 -->
      <defs>
       <path d="M 37.796875 64.3125 
L 12.890625 25.390625 
L 37.796875 25.390625 
z
M 35.203125 72.90625 
L 47.609375 72.90625 
L 47.609375 25.390625 
L 58.015625 25.390625 
L 58.015625 17.1875 
L 47.609375 17.1875 
L 47.609375 0 
L 37.796875 0 
L 37.796875 17.1875 
L 4.890625 17.1875 
L 4.890625 26.703125 
z
" id="DejaVuSans-52"/>
      </defs>
      <g transform="translate(439.701565 393.197656)scale(0.15 -0.15)">
       <use xlink:href="#DejaVuSans-52"/>
       <use x="63.623047" xlink:href="#DejaVuSans-48"/>
      </g>
     </g>
    </g>
    <g id="xtick_6">
     <g id="line2d_6">
      <g>
       <use style="stroke:#000000;stroke-width:0.8;" x="538.419712" xlink:href="#m78e4240653" y="374.8"/>
      </g>
     </g>
     <g id="text_6">
      <!-- 50 -->
      <defs>
       <path d="M 10.796875 72.90625 
L 49.515625 72.90625 
L 49.515625 64.59375 
L 19.828125 64.59375 
L 19.828125 46.734375 
Q 21.96875 47.46875 24.109375 47.828125 
Q 26.265625 48.1875 28.421875 48.1875 
Q 40.625 48.1875 47.75 41.5 
Q 54.890625 34.8125 54.890625 23.390625 
Q 54.890625 11.625 47.5625 5.09375 
Q 40.234375 -1.421875 26.90625 -1.421875 
Q 22.3125 -1.421875 17.546875 -0.640625 
Q 12.796875 0.140625 7.71875 1.703125 
L 7.71875 11.625 
Q 12.109375 9.234375 16.796875 8.0625 
Q 21.484375 6.890625 26.703125 6.890625 
Q 35.15625 6.890625 40.078125 11.328125 
Q 45.015625 15.765625 45.015625 23.390625 
Q 45.015625 31 40.078125 35.4375 
Q 35.15625 39.890625 26.703125 39.890625 
Q 22.75 39.890625 18.8125 39.015625 
Q 14.890625 38.140625 10.796875 36.28125 
z
" id="DejaVuSans-53"/>
      </defs>
      <g transform="translate(528.875962 393.197656)scale(0.15 -0.15)">
       <use xlink:href="#DejaVuSans-53"/>
       <use x="63.623047" xlink:href="#DejaVuSans-48"/>
      </g>
     </g>
    </g>
    <g id="text_7">
     <!-- Global Communication Rounds -->
     <defs>
      <path d="M 59.515625 10.40625 
L 59.515625 29.984375 
L 43.40625 29.984375 
L 43.40625 38.09375 
L 69.28125 38.09375 
L 69.28125 6.78125 
Q 63.578125 2.734375 56.6875 0.65625 
Q 49.8125 -1.421875 42 -1.421875 
Q 24.90625 -1.421875 15.25 8.5625 
Q 5.609375 18.5625 5.609375 36.375 
Q 5.609375 54.25 15.25 64.234375 
Q 24.90625 74.21875 42 74.21875 
Q 49.125 74.21875 55.546875 72.453125 
Q 61.96875 70.703125 67.390625 67.28125 
L 67.390625 56.78125 
Q 61.921875 61.421875 55.765625 63.765625 
Q 49.609375 66.109375 42.828125 66.109375 
Q 29.4375 66.109375 22.71875 58.640625 
Q 16.015625 51.171875 16.015625 36.375 
Q 16.015625 21.625 22.71875 14.15625 
Q 29.4375 6.6875 42.828125 6.6875 
Q 48.046875 6.6875 52.140625 7.59375 
Q 56.25 8.5 59.515625 10.40625 
z
" id="DejaVuSans-71"/>
      <path d="M 9.421875 75.984375 
L 18.40625 75.984375 
L 18.40625 0 
L 9.421875 0 
z
" id="DejaVuSans-108"/>
      <path d="M 30.609375 48.390625 
Q 23.390625 48.390625 19.1875 42.75 
Q 14.984375 37.109375 14.984375 27.296875 
Q 14.984375 17.484375 19.15625 11.84375 
Q 23.34375 6.203125 30.609375 6.203125 
Q 37.796875 6.203125 41.984375 11.859375 
Q 46.1875 17.53125 46.1875 27.296875 
Q 46.1875 37.015625 41.984375 42.703125 
Q 37.796875 48.390625 30.609375 48.390625 
z
M 30.609375 56 
Q 42.328125 56 49.015625 48.375 
Q 55.71875 40.765625 55.71875 27.296875 
Q 55.71875 13.875 49.015625 6.21875 
Q 42.328125 -1.421875 30.609375 -1.421875 
Q 18.84375 -1.421875 12.171875 6.21875 
Q 5.515625 13.875 5.515625 27.296875 
Q 5.515625 40.765625 12.171875 48.375 
Q 18.84375 56 30.609375 56 
z
" id="DejaVuSans-111"/>
      <path d="M 48.6875 27.296875 
Q 48.6875 37.203125 44.609375 42.84375 
Q 40.53125 48.484375 33.40625 48.484375 
Q 26.265625 48.484375 22.1875 42.84375 
Q 18.109375 37.203125 18.109375 27.296875 
Q 18.109375 17.390625 22.1875 11.75 
Q 26.265625 6.109375 33.40625 6.109375 
Q 40.53125 6.109375 44.609375 11.75 
Q 48.6875 17.390625 48.6875 27.296875 
z
M 18.109375 46.390625 
Q 20.953125 51.265625 25.265625 53.625 
Q 29.59375 56 35.59375 56 
Q 45.5625 56 51.78125 48.09375 
Q 58.015625 40.1875 58.015625 27.296875 
Q 58.015625 14.40625 51.78125 6.484375 
Q 45.5625 -1.421875 35.59375 -1.421875 
Q 29.59375 -1.421875 25.265625 0.953125 
Q 20.953125 3.328125 18.109375 8.203125 
L 18.109375 0 
L 9.078125 0 
L 9.078125 75.984375 
L 18.109375 75.984375 
z
" id="DejaVuSans-98"/>
      <path d="M 34.28125 27.484375 
Q 23.390625 27.484375 19.1875 25 
Q 14.984375 22.515625 14.984375 16.5 
Q 14.984375 11.71875 18.140625 8.90625 
Q 21.296875 6.109375 26.703125 6.109375 
Q 34.1875 6.109375 38.703125 11.40625 
Q 43.21875 16.703125 43.21875 25.484375 
L 43.21875 27.484375 
z
M 52.203125 31.203125 
L 52.203125 0 
L 43.21875 0 
L 43.21875 8.296875 
Q 40.140625 3.328125 35.546875 0.953125 
Q 30.953125 -1.421875 24.3125 -1.421875 
Q 15.921875 -1.421875 10.953125 3.296875 
Q 6 8.015625 6 15.921875 
Q 6 25.140625 12.171875 29.828125 
Q 18.359375 34.515625 30.609375 34.515625 
L 43.21875 34.515625 
L 43.21875 35.40625 
Q 43.21875 41.609375 39.140625 45 
Q 35.0625 48.390625 27.6875 48.390625 
Q 23 48.390625 18.546875 47.265625 
Q 14.109375 46.140625 10.015625 43.890625 
L 10.015625 52.203125 
Q 14.9375 54.109375 19.578125 55.046875 
Q 24.21875 56 28.609375 56 
Q 40.484375 56 46.34375 49.84375 
Q 52.203125 43.703125 52.203125 31.203125 
z
" id="DejaVuSans-97"/>
      <path id="DejaVuSans-32"/>
      <path d="M 64.40625 67.28125 
L 64.40625 56.890625 
Q 59.421875 61.53125 53.78125 63.8125 
Q 48.140625 66.109375 41.796875 66.109375 
Q 29.296875 66.109375 22.65625 58.46875 
Q 16.015625 50.828125 16.015625 36.375 
Q 16.015625 21.96875 22.65625 14.328125 
Q 29.296875 6.6875 41.796875 6.6875 
Q 48.140625 6.6875 53.78125 8.984375 
Q 59.421875 11.28125 64.40625 15.921875 
L 64.40625 5.609375 
Q 59.234375 2.09375 53.4375 0.328125 
Q 47.65625 -1.421875 41.21875 -1.421875 
Q 24.65625 -1.421875 15.125 8.703125 
Q 5.609375 18.84375 5.609375 36.375 
Q 5.609375 53.953125 15.125 64.078125 
Q 24.65625 74.21875 41.21875 74.21875 
Q 47.75 74.21875 53.53125 72.484375 
Q 59.328125 70.75 64.40625 67.28125 
z
" id="DejaVuSans-67"/>
      <path d="M 52 44.1875 
Q 55.375 50.25 60.0625 53.125 
Q 64.75 56 71.09375 56 
Q 79.640625 56 84.28125 50.015625 
Q 88.921875 44.046875 88.921875 33.015625 
L 88.921875 0 
L 79.890625 0 
L 79.890625 32.71875 
Q 79.890625 40.578125 77.09375 44.375 
Q 74.3125 48.1875 68.609375 48.1875 
Q 61.625 48.1875 57.5625 43.546875 
Q 53.515625 38.921875 53.515625 30.90625 
L 53.515625 0 
L 44.484375 0 
L 44.484375 32.71875 
Q 44.484375 40.625 41.703125 44.40625 
Q 38.921875 48.1875 33.109375 48.1875 
Q 26.21875 48.1875 22.15625 43.53125 
Q 18.109375 38.875 18.109375 30.90625 
L 18.109375 0 
L 9.078125 0 
L 9.078125 54.6875 
L 18.109375 54.6875 
L 18.109375 46.1875 
Q 21.1875 51.21875 25.484375 53.609375 
Q 29.78125 56 35.6875 56 
Q 41.65625 56 45.828125 52.96875 
Q 50 49.953125 52 44.1875 
z
" id="DejaVuSans-109"/>
      <path d="M 8.5 21.578125 
L 8.5 54.6875 
L 17.484375 54.6875 
L 17.484375 21.921875 
Q 17.484375 14.15625 20.5 10.265625 
Q 23.53125 6.390625 29.59375 6.390625 
Q 36.859375 6.390625 41.078125 11.03125 
Q 45.3125 15.671875 45.3125 23.6875 
L 45.3125 54.6875 
L 54.296875 54.6875 
L 54.296875 0 
L 45.3125 0 
L 45.3125 8.40625 
Q 42.046875 3.421875 37.71875 1 
Q 33.40625 -1.421875 27.6875 -1.421875 
Q 18.265625 -1.421875 13.375 4.4375 
Q 8.5 10.296875 8.5 21.578125 
z
M 31.109375 56 
z
" id="DejaVuSans-117"/>
      <path d="M 54.890625 33.015625 
L 54.890625 0 
L 45.90625 0 
L 45.90625 32.71875 
Q 45.90625 40.484375 42.875 44.328125 
Q 39.84375 48.1875 33.796875 48.1875 
Q 26.515625 48.1875 22.3125 43.546875 
Q 18.109375 38.921875 18.109375 30.90625 
L 18.109375 0 
L 9.078125 0 
L 9.078125 54.6875 
L 18.109375 54.6875 
L 18.109375 46.1875 
Q 21.34375 51.125 25.703125 53.5625 
Q 30.078125 56 35.796875 56 
Q 45.21875 56 50.046875 50.171875 
Q 54.890625 44.34375 54.890625 33.015625 
z
" id="DejaVuSans-110"/>
      <path d="M 9.421875 54.6875 
L 18.40625 54.6875 
L 18.40625 0 
L 9.421875 0 
z
M 9.421875 75.984375 
L 18.40625 75.984375 
L 18.40625 64.59375 
L 9.421875 64.59375 
z
" id="DejaVuSans-105"/>
      <path d="M 48.78125 52.59375 
L 48.78125 44.1875 
Q 44.96875 46.296875 41.140625 47.34375 
Q 37.3125 48.390625 33.40625 48.390625 
Q 24.65625 48.390625 19.8125 42.84375 
Q 14.984375 37.3125 14.984375 27.296875 
Q 14.984375 17.28125 19.8125 11.734375 
Q 24.65625 6.203125 33.40625 6.203125 
Q 37.3125 6.203125 41.140625 7.25 
Q 44.96875 8.296875 48.78125 10.40625 
L 48.78125 2.09375 
Q 45.015625 0.34375 40.984375 -0.53125 
Q 36.96875 -1.421875 32.421875 -1.421875 
Q 20.0625 -1.421875 12.78125 6.34375 
Q 5.515625 14.109375 5.515625 27.296875 
Q 5.515625 40.671875 12.859375 48.328125 
Q 20.21875 56 33.015625 56 
Q 37.15625 56 41.109375 55.140625 
Q 45.0625 54.296875 48.78125 52.59375 
z
" id="DejaVuSans-99"/>
      <path d="M 18.3125 70.21875 
L 18.3125 54.6875 
L 36.8125 54.6875 
L 36.8125 47.703125 
L 18.3125 47.703125 
L 18.3125 18.015625 
Q 18.3125 11.328125 20.140625 9.421875 
Q 21.96875 7.515625 27.59375 7.515625 
L 36.8125 7.515625 
L 36.8125 0 
L 27.59375 0 
Q 17.1875 0 13.234375 3.875 
Q 9.28125 7.765625 9.28125 18.015625 
L 9.28125 47.703125 
L 2.6875 47.703125 
L 2.6875 54.6875 
L 9.28125 54.6875 
L 9.28125 70.21875 
z
" id="DejaVuSans-116"/>
      <path d="M 44.390625 34.1875 
Q 47.5625 33.109375 50.5625 29.59375 
Q 53.5625 26.078125 56.59375 19.921875 
L 66.609375 0 
L 56 0 
L 46.6875 18.703125 
Q 43.0625 26.03125 39.671875 28.421875 
Q 36.28125 30.8125 30.421875 30.8125 
L 19.671875 30.8125 
L 19.671875 0 
L 9.8125 0 
L 9.8125 72.90625 
L 32.078125 72.90625 
Q 44.578125 72.90625 50.734375 67.671875 
Q 56.890625 62.453125 56.890625 51.90625 
Q 56.890625 45.015625 53.6875 40.46875 
Q 50.484375 35.9375 44.390625 34.1875 
z
M 19.671875 64.796875 
L 19.671875 38.921875 
L 32.078125 38.921875 
Q 39.203125 38.921875 42.84375 42.21875 
Q 46.484375 45.515625 46.484375 51.90625 
Q 46.484375 58.296875 42.84375 61.546875 
Q 39.203125 64.796875 32.078125 64.796875 
z
" id="DejaVuSans-82"/>
      <path d="M 45.40625 46.390625 
L 45.40625 75.984375 
L 54.390625 75.984375 
L 54.390625 0 
L 45.40625 0 
L 45.40625 8.203125 
Q 42.578125 3.328125 38.25 0.953125 
Q 33.9375 -1.421875 27.875 -1.421875 
Q 17.96875 -1.421875 11.734375 6.484375 
Q 5.515625 14.40625 5.515625 27.296875 
Q 5.515625 40.1875 11.734375 48.09375 
Q 17.96875 56 27.875 56 
Q 33.9375 56 38.25 53.625 
Q 42.578125 51.265625 45.40625 46.390625 
z
M 14.796875 27.296875 
Q 14.796875 17.390625 18.875 11.75 
Q 22.953125 6.109375 30.078125 6.109375 
Q 37.203125 6.109375 41.296875 11.75 
Q 45.40625 17.390625 45.40625 27.296875 
Q 45.40625 37.203125 41.296875 42.84375 
Q 37.203125 48.484375 30.078125 48.484375 
Q 22.953125 48.484375 18.875 42.84375 
Q 14.796875 37.203125 14.796875 27.296875 
z
" id="DejaVuSans-100"/>
      <path d="M 44.28125 53.078125 
L 44.28125 44.578125 
Q 40.484375 46.53125 36.375 47.5 
Q 32.28125 48.484375 27.875 48.484375 
Q 21.1875 48.484375 17.84375 46.4375 
Q 14.5 44.390625 14.5 40.28125 
Q 14.5 37.15625 16.890625 35.375 
Q 19.28125 33.59375 26.515625 31.984375 
L 29.59375 31.296875 
Q 39.15625 29.25 43.1875 25.515625 
Q 47.21875 21.78125 47.21875 15.09375 
Q 47.21875 7.46875 41.1875 3.015625 
Q 35.15625 -1.421875 24.609375 -1.421875 
Q 20.21875 -1.421875 15.453125 -0.5625 
Q 10.6875 0.296875 5.421875 2 
L 5.421875 11.28125 
Q 10.40625 8.6875 15.234375 7.390625 
Q 20.0625 6.109375 24.8125 6.109375 
Q 31.15625 6.109375 34.5625 8.28125 
Q 37.984375 10.453125 37.984375 14.40625 
Q 37.984375 18.0625 35.515625 20.015625 
Q 33.0625 21.96875 24.703125 23.78125 
L 21.578125 24.515625 
Q 13.234375 26.265625 9.515625 29.90625 
Q 5.8125 33.546875 5.8125 39.890625 
Q 5.8125 47.609375 11.28125 51.796875 
Q 16.75 56 26.8125 56 
Q 31.78125 56 36.171875 55.265625 
Q 40.578125 54.546875 44.28125 53.078125 
z
" id="DejaVuSans-115"/>
     </defs>
     <g transform="translate(195.582422 411.714844)scale(0.15 -0.15)">
      <use xlink:href="#DejaVuSans-71"/>
      <use x="77.490234" xlink:href="#DejaVuSans-108"/>
      <use x="105.273438" xlink:href="#DejaVuSans-111"/>
      <use x="166.455078" xlink:href="#DejaVuSans-98"/>
      <use x="229.931641" xlink:href="#DejaVuSans-97"/>
      <use x="291.210938" xlink:href="#DejaVuSans-108"/>
      <use x="318.994141" xlink:href="#DejaVuSans-32"/>
      <use x="350.78125" xlink:href="#DejaVuSans-67"/>
      <use x="420.605469" xlink:href="#DejaVuSans-111"/>
      <use x="481.787109" xlink:href="#DejaVuSans-109"/>
      <use x="579.199219" xlink:href="#DejaVuSans-109"/>
      <use x="676.611328" xlink:href="#DejaVuSans-117"/>
      <use x="739.990234" xlink:href="#DejaVuSans-110"/>
      <use x="803.369141" xlink:href="#DejaVuSans-105"/>
      <use x="831.152344" xlink:href="#DejaVuSans-99"/>
      <use x="886.132812" xlink:href="#DejaVuSans-97"/>
      <use x="947.412109" xlink:href="#DejaVuSans-116"/>
      <use x="986.621094" xlink:href="#DejaVuSans-105"/>
      <use x="1014.404297" xlink:href="#DejaVuSans-111"/>
      <use x="1075.585938" xlink:href="#DejaVuSans-110"/>
      <use x="1138.964844" xlink:href="#DejaVuSans-32"/>
      <use x="1170.751953" xlink:href="#DejaVuSans-82"/>
      <use x="1235.734375" xlink:href="#DejaVuSans-111"/>
      <use x="1296.916016" xlink:href="#DejaVuSans-117"/>
      <use x="1360.294922" xlink:href="#DejaVuSans-110"/>
      <use x="1423.673828" xlink:href="#DejaVuSans-100"/>
      <use x="1487.150391" xlink:href="#DejaVuSans-115"/>
     </g>
    </g>
   </g>
   <g id="matplotlib.axis_2">
    <g id="ytick_1">
     <g id="line2d_7">
      <defs>
       <path d="M 0 0 
L -3.5 0 
" id="m5bc8c652cc" style="stroke:#000000;stroke-width:0.8;"/>
      </defs>
      <g>
       <use style="stroke:#000000;stroke-width:0.8;" x="70.7" xlink:href="#m5bc8c652cc" y="323.153792"/>
      </g>
     </g>
     <g id="text_8">
      <!-- 20 -->
      <g transform="translate(44.6125 328.85262)scale(0.15 -0.15)">
       <use xlink:href="#DejaVuSans-50"/>
       <use x="63.623047" xlink:href="#DejaVuSans-48"/>
      </g>
     </g>
    </g>
    <g id="ytick_2">
     <g id="line2d_8">
      <g>
       <use style="stroke:#000000;stroke-width:0.8;" x="70.7" xlink:href="#m5bc8c652cc" y="259.483105"/>
      </g>
     </g>
     <g id="text_9">
      <!-- 40 -->
      <g transform="translate(44.6125 265.181933)scale(0.15 -0.15)">
       <use xlink:href="#DejaVuSans-52"/>
       <use x="63.623047" xlink:href="#DejaVuSans-48"/>
      </g>
     </g>
    </g>
    <g id="ytick_3">
     <g id="line2d_9">
      <g>
       <use style="stroke:#000000;stroke-width:0.8;" x="70.7" xlink:href="#m5bc8c652cc" y="195.812417"/>
      </g>
     </g>
     <g id="text_10">
      <!-- 60 -->
      <defs>
       <path d="M 33.015625 40.375 
Q 26.375 40.375 22.484375 35.828125 
Q 18.609375 31.296875 18.609375 23.390625 
Q 18.609375 15.53125 22.484375 10.953125 
Q 26.375 6.390625 33.015625 6.390625 
Q 39.65625 6.390625 43.53125 10.953125 
Q 47.40625 15.53125 47.40625 23.390625 
Q 47.40625 31.296875 43.53125 35.828125 
Q 39.65625 40.375 33.015625 40.375 
z
M 52.59375 71.296875 
L 52.59375 62.3125 
Q 48.875 64.0625 45.09375 64.984375 
Q 41.3125 65.921875 37.59375 65.921875 
Q 27.828125 65.921875 22.671875 59.328125 
Q 17.53125 52.734375 16.796875 39.40625 
Q 19.671875 43.65625 24.015625 45.921875 
Q 28.375 48.1875 33.59375 48.1875 
Q 44.578125 48.1875 50.953125 41.515625 
Q 57.328125 34.859375 57.328125 23.390625 
Q 57.328125 12.15625 50.6875 5.359375 
Q 44.046875 -1.421875 33.015625 -1.421875 
Q 20.359375 -1.421875 13.671875 8.265625 
Q 6.984375 17.96875 6.984375 36.375 
Q 6.984375 53.65625 15.1875 63.9375 
Q 23.390625 74.21875 37.203125 74.21875 
Q 40.921875 74.21875 44.703125 73.484375 
Q 48.484375 72.75 52.59375 71.296875 
z
" id="DejaVuSans-54"/>
      </defs>
      <g transform="translate(44.6125 201.511245)scale(0.15 -0.15)">
       <use xlink:href="#DejaVuSans-54"/>
       <use x="63.623047" xlink:href="#DejaVuSans-48"/>
      </g>
     </g>
    </g>
    <g id="ytick_4">
     <g id="line2d_10">
      <g>
       <use style="stroke:#000000;stroke-width:0.8;" x="70.7" xlink:href="#m5bc8c652cc" y="132.141729"/>
      </g>
     </g>
     <g id="text_11">
      <!-- 80 -->
      <defs>
       <path d="M 31.78125 34.625 
Q 24.75 34.625 20.71875 30.859375 
Q 16.703125 27.09375 16.703125 20.515625 
Q 16.703125 13.921875 20.71875 10.15625 
Q 24.75 6.390625 31.78125 6.390625 
Q 38.8125 6.390625 42.859375 10.171875 
Q 46.921875 13.96875 46.921875 20.515625 
Q 46.921875 27.09375 42.890625 30.859375 
Q 38.875 34.625 31.78125 34.625 
z
M 21.921875 38.8125 
Q 15.578125 40.375 12.03125 44.71875 
Q 8.5 49.078125 8.5 55.328125 
Q 8.5 64.0625 14.71875 69.140625 
Q 20.953125 74.21875 31.78125 74.21875 
Q 42.671875 74.21875 48.875 69.140625 
Q 55.078125 64.0625 55.078125 55.328125 
Q 55.078125 49.078125 51.53125 44.71875 
Q 48 40.375 41.703125 38.8125 
Q 48.828125 37.15625 52.796875 32.3125 
Q 56.78125 27.484375 56.78125 20.515625 
Q 56.78125 9.90625 50.3125 4.234375 
Q 43.84375 -1.421875 31.78125 -1.421875 
Q 19.734375 -1.421875 13.25 4.234375 
Q 6.78125 9.90625 6.78125 20.515625 
Q 6.78125 27.484375 10.78125 32.3125 
Q 14.796875 37.15625 21.921875 38.8125 
z
M 18.3125 54.390625 
Q 18.3125 48.734375 21.84375 45.5625 
Q 25.390625 42.390625 31.78125 42.390625 
Q 38.140625 42.390625 41.71875 45.5625 
Q 45.3125 48.734375 45.3125 54.390625 
Q 45.3125 60.0625 41.71875 63.234375 
Q 38.140625 66.40625 31.78125 66.40625 
Q 25.390625 66.40625 21.84375 63.234375 
Q 18.3125 60.0625 18.3125 54.390625 
z
" id="DejaVuSans-56"/>
      </defs>
      <g transform="translate(44.6125 137.840557)scale(0.15 -0.15)">
       <use xlink:href="#DejaVuSans-56"/>
       <use x="63.623047" xlink:href="#DejaVuSans-48"/>
      </g>
     </g>
    </g>
    <g id="ytick_5">
     <g id="line2d_11">
      <g>
       <use style="stroke:#000000;stroke-width:0.8;" x="70.7" xlink:href="#m5bc8c652cc" y="68.471042"/>
      </g>
     </g>
     <g id="text_12">
      <!-- 100 -->
      <g transform="translate(35.06875 74.16987)scale(0.15 -0.15)">
       <use xlink:href="#DejaVuSans-49"/>
       <use x="63.623047" xlink:href="#DejaVuSans-48"/>
       <use x="127.246094" xlink:href="#DejaVuSans-48"/>
      </g>
     </g>
    </g>
    <g id="text_13">
     <!-- Test Accuracy -->
     <defs>
      <path d="M -0.296875 72.90625 
L 61.375 72.90625 
L 61.375 64.59375 
L 35.5 64.59375 
L 35.5 0 
L 25.59375 0 
L 25.59375 64.59375 
L -0.296875 64.59375 
z
" id="DejaVuSans-84"/>
      <path d="M 56.203125 29.59375 
L 56.203125 25.203125 
L 14.890625 25.203125 
Q 15.484375 15.921875 20.484375 11.0625 
Q 25.484375 6.203125 34.421875 6.203125 
Q 39.59375 6.203125 44.453125 7.46875 
Q 49.3125 8.734375 54.109375 11.28125 
L 54.109375 2.78125 
Q 49.265625 0.734375 44.1875 -0.34375 
Q 39.109375 -1.421875 33.890625 -1.421875 
Q 20.796875 -1.421875 13.15625 6.1875 
Q 5.515625 13.8125 5.515625 26.8125 
Q 5.515625 40.234375 12.765625 48.109375 
Q 20.015625 56 32.328125 56 
Q 43.359375 56 49.78125 48.890625 
Q 56.203125 41.796875 56.203125 29.59375 
z
M 47.21875 32.234375 
Q 47.125 39.59375 43.09375 43.984375 
Q 39.0625 48.390625 32.421875 48.390625 
Q 24.90625 48.390625 20.390625 44.140625 
Q 15.875 39.890625 15.1875 32.171875 
z
" id="DejaVuSans-101"/>
      <path d="M 34.1875 63.1875 
L 20.796875 26.90625 
L 47.609375 26.90625 
z
M 28.609375 72.90625 
L 39.796875 72.90625 
L 67.578125 0 
L 57.328125 0 
L 50.6875 18.703125 
L 17.828125 18.703125 
L 11.1875 0 
L 0.78125 0 
z
" id="DejaVuSans-65"/>
      <path d="M 41.109375 46.296875 
Q 39.59375 47.171875 37.8125 47.578125 
Q 36.03125 48 33.890625 48 
Q 26.265625 48 22.1875 43.046875 
Q 18.109375 38.09375 18.109375 28.8125 
L 18.109375 0 
L 9.078125 0 
L 9.078125 54.6875 
L 18.109375 54.6875 
L 18.109375 46.1875 
Q 20.953125 51.171875 25.484375 53.578125 
Q 30.03125 56 36.53125 56 
Q 37.453125 56 38.578125 55.875 
Q 39.703125 55.765625 41.0625 55.515625 
z
" id="DejaVuSans-114"/>
      <path d="M 32.171875 -5.078125 
Q 28.375 -14.84375 24.75 -17.8125 
Q 21.140625 -20.796875 15.09375 -20.796875 
L 7.90625 -20.796875 
L 7.90625 -13.28125 
L 13.1875 -13.28125 
Q 16.890625 -13.28125 18.9375 -11.515625 
Q 21 -9.765625 23.484375 -3.21875 
L 25.09375 0.875 
L 2.984375 54.6875 
L 12.5 54.6875 
L 29.59375 11.921875 
L 46.6875 54.6875 
L 56.203125 54.6875 
z
" id="DejaVuSans-121"/>
     </defs>
     <g transform="translate(27.949219 267.017859)rotate(-90)scale(0.15 -0.15)">
      <use xlink:href="#DejaVuSans-84"/>
      <use x="44.083984" xlink:href="#DejaVuSans-101"/>
      <use x="105.607422" xlink:href="#DejaVuSans-115"/>
      <use x="157.707031" xlink:href="#DejaVuSans-116"/>
      <use x="196.916016" xlink:href="#DejaVuSans-32"/>
      <use x="228.703125" xlink:href="#DejaVuSans-65"/>
      <use x="295.361328" xlink:href="#DejaVuSans-99"/>
      <use x="350.341797" xlink:href="#DejaVuSans-99"/>
      <use x="405.322266" xlink:href="#DejaVuSans-117"/>
      <use x="468.701172" xlink:href="#DejaVuSans-114"/>
      <use x="509.814453" xlink:href="#DejaVuSans-97"/>
      <use x="571.09375" xlink:href="#DejaVuSans-99"/>
      <use x="626.074219" xlink:href="#DejaVuSans-121"/>
     </g>
    </g>
   </g>
   <g id="line2d_12">
    <path clip-path="url(#p4ac47530ae)" d="M 92.547727 316.786723 
L 101.465167 277.778353 
L 110.382607 232.08053 
L 119.300046 198.955653 
L 128.217486 146.084804 
L 137.134926 130.288026 
L 146.052365 129.24028 
L 154.969805 130.288026 
L 163.887245 119.649379 
L 172.804685 109.171924 
L 181.722124 108.768945 
L 190.639564 97.969107 
L 199.557004 98.049703 
L 208.474443 94.100508 
L 217.391883 95.22885 
L 226.309323 98.775065 
L 235.226763 87.894631 
L 244.144202 86.363311 
L 253.061642 92.649784 
L 261.979082 89.667739 
L 270.896521 88.942377 
L 279.813961 90.312505 
L 288.731401 84.670799 
L 297.64884 87.73344 
L 306.56628 80.399221 
L 315.48372 85.154374 
L 324.40116 80.318625 
L 333.318599 81.608158 
L 342.236039 80.963392 
L 351.153479 86.524503 
L 360.070918 80.318625 
L 368.988358 79.754455 
L 377.905798 80.560413 
L 386.823237 79.996242 
L 395.740677 78.867901 
L 404.658117 77.336581 
L 413.575557 79.029092 
L 422.492996 79.512667 
L 431.410436 77.094793 
L 440.327876 75.724664 
L 449.245315 77.175389 
L 458.162755 78.061943 
L 467.080195 75.563473 
L 475.997635 78.545518 
L 484.915074 75.079898 
L 493.832514 75.24109 
L 502.749954 75.160494 
L 511.667393 77.981347 
L 520.584833 75.482877 
L 529.502273 75.321685 
" style="fill:none;stroke:#1f77b4;stroke-linecap:square;stroke-width:1.5;"/>
   </g>
   <g id="line2d_13">
    <path clip-path="url(#p4ac47530ae)" d="M 92.547727 349.186238 
L 101.465167 331.293969 
L 110.382607 278.342523 
L 119.300046 283.258868 
L 128.217486 306.228673 
L 137.134926 217.009114 
L 146.052365 231.193976 
L 154.969805 243.122156 
L 163.887245 212.334557 
L 172.804685 179.532064 
L 181.722124 198.875058 
L 190.639564 177.597765 
L 199.557004 160.511453 
L 208.474443 177.758956 
L 217.391883 189.60654 
L 226.309323 186.785687 
L 235.226763 163.574094 
L 244.144202 140.040118 
L 253.061642 150.598169 
L 261.979082 152.290681 
L 270.896521 149.22804 
L 279.813961 160.027879 
L 288.731401 147.051954 
L 297.64884 137.461053 
L 306.56628 143.828121 
L 315.48372 166.717331 
L 324.40116 146.407187 
L 333.318599 114.491248 
L 342.236039 136.73569 
L 351.153479 148.422082 
L 360.070918 159.463708 
L 368.988358 158.012983 
L 377.905798 153.096639 
L 386.823237 147.777316 
L 395.740677 148.019103 
L 404.658117 140.443098 
L 413.575557 147.051954 
L 422.492996 137.058074 
L 431.410436 125.049298 
L 440.327876 125.774661 
L 449.245315 135.446157 
L 458.162755 110.139074 
L 467.080195 120.374742 
L 475.997635 126.903002 
L 484.915074 140.604289 
L 493.832514 131.658155 
L 502.749954 126.580619 
L 511.667393 129.401472 
L 520.584833 114.652439 
L 529.502273 134.479008 
" style="fill:none;stroke:#ff7f0e;stroke-linecap:square;stroke-width:1.5;"/>
   </g>
   <g id="line2d_14">
    <path clip-path="url(#p4ac47530ae)" d="M 92.547727 303.569011 
L 101.465167 253.841398 
L 110.382607 199.922803 
L 119.300046 167.68448 
L 128.217486 144.795271 
L 137.134926 133.270071 
L 146.052365 123.276191 
L 154.969805 117.312101 
L 163.887245 106.75405 
L 172.804685 94.664679 
L 181.722124 91.602038 
L 190.639564 97.243745 
L 199.557004 93.536338 
L 208.474443 94.2617 
L 217.391883 92.407996 
L 226.309323 87.73344 
L 235.226763 86.846886 
L 244.144202 84.831991 
L 253.061642 86.685694 
L 261.979082 84.912586 
L 270.896521 81.366371 
L 279.813961 81.849946 
L 288.731401 81.849946 
L 297.64884 81.608158 
L 306.56628 81.205179 
L 315.48372 79.109688 
L 324.40116 78.787305 
L 333.318599 80.479817 
L 342.236039 79.512667 
L 351.153479 77.900751 
L 360.070918 78.626113 
L 368.988358 77.014197 
L 377.905798 77.658964 
L 386.823237 78.061943 
L 395.740677 76.933601 
L 404.658117 79.109688 
L 413.575557 79.029092 
L 422.492996 77.497772 
L 431.410436 76.611218 
L 440.327876 75.644069 
L 449.245315 76.127643 
L 458.162755 76.047048 
L 467.080195 76.450027 
L 475.997635 76.611218 
L 484.915074 76.288835 
L 493.832514 77.175389 
L 502.749954 75.321685 
L 511.667393 76.288835 
L 520.584833 73.951557 
L 529.502273 74.596323 
" style="fill:none;stroke:#2ca02c;stroke-linecap:square;stroke-width:1.5;"/>
   </g>
   <g id="line2d_15">
    <path clip-path="url(#p4ac47530ae)" d="M 92.547727 293.120329 
L 101.465167 261.673376 
L 110.382607 243.145206 
L 119.300046 219.822633 
L 128.217486 200.231163 
L 137.134926 176.698477 
L 146.052365 166.511167 
L 154.969805 157.75008 
L 163.887245 149.25641 
L 172.804685 143.799832 
L 181.722124 138.642507 
L 190.639564 136.872461 
L 199.557004 134.05185 
L 208.474443 131.498655 
L 217.391883 130.422621 
L 226.309323 128.690778 
L 235.226763 128.194147 
L 244.144202 127.207251 
L 253.061642 125.500877 
L 261.979082 123.97278 
L 270.896521 123.998248 
L 279.813961 123.361542 
L 288.731401 122.826708 
L 297.64884 122.64843 
L 306.56628 121.304978 
L 315.48372 121.967153 
L 324.40116 121.133067 
L 333.318599 121.06303 
L 342.236039 120.082501 
L 351.153479 120.120704 
L 360.070918 119.745046 
L 368.988358 119.292985 
L 377.905798 119.770515 
L 386.823237 119.248415 
L 395.740677 118.879125 
L 404.658117 118.414329 
L 413.575557 118.509835 
L 422.492996 118.573506 
L 431.410436 118.166013 
L 440.327876 117.968634 
L 449.245315 117.936799 
L 458.162755 117.599344 
L 467.080195 117.32556 
L 475.997635 117.707584 
L 484.915074 117.223687 
L 493.832514 118.242418 
L 502.749954 116.981739 
L 511.667393 116.701588 
L 520.584833 117.185485 
L 529.502273 116.8926 
" style="fill:none;stroke:#d62728;stroke-linecap:square;stroke-width:1.5;"/>
   </g>
   <g id="patch_3">
    <path d="M 70.7 374.8 
L 70.7 56.448219 
" style="fill:none;stroke:#000000;stroke-linecap:square;stroke-linejoin:miter;stroke-width:0.8;"/>
   </g>
   <g id="patch_4">
    <path d="M 551.35 374.8 
L 551.35 56.448219 
" style="fill:none;stroke:#000000;stroke-linecap:square;stroke-linejoin:miter;stroke-width:0.8;"/>
   </g>
   <g id="patch_5">
    <path d="M 70.7 374.8 
L 551.35 374.8 
" style="fill:none;stroke:#000000;stroke-linecap:square;stroke-linejoin:miter;stroke-width:0.8;"/>
   </g>
   <g id="patch_6">
    <path d="M 70.7 56.448219 
L 551.35 56.448219 
" style="fill:none;stroke:#000000;stroke-linecap:square;stroke-linejoin:miter;stroke-width:0.8;"/>
   </g>
   <g id="legend_1">
    <g id="patch_7">
     <path d="M 61.427344 42.712639 
L 560.622656 42.712639 
Q 563.622656 42.712639 563.622656 39.712639 
L 563.622656 19.195452 
Q 563.622656 16.195452 560.622656 16.195452 
L 61.427344 16.195452 
Q 58.427344 16.195452 58.427344 19.195452 
L 58.427344 39.712639 
Q 58.427344 42.712639 61.427344 42.712639 
z
" style="fill:#ffffff;opacity:0.8;stroke:#cccccc;stroke-linejoin:miter;"/>
    </g>
    <g id="line2d_16">
     <path d="M 64.427344 28.343108 
L 94.427344 28.343108 
" style="fill:none;stroke:#1f77b4;stroke-linecap:square;stroke-width:1.5;"/>
    </g>
    <g id="line2d_17"/>
    <g id="text_14">
     <!-- FedAvg -->
     <defs>
      <path d="M 9.8125 72.90625 
L 51.703125 72.90625 
L 51.703125 64.59375 
L 19.671875 64.59375 
L 19.671875 43.109375 
L 48.578125 43.109375 
L 48.578125 34.8125 
L 19.671875 34.8125 
L 19.671875 0 
L 9.8125 0 
z
" id="DejaVuSans-70"/>
      <path d="M 2.984375 54.6875 
L 12.5 54.6875 
L 29.59375 8.796875 
L 46.6875 54.6875 
L 56.203125 54.6875 
L 35.6875 0 
L 23.484375 0 
z
" id="DejaVuSans-118"/>
      <path d="M 45.40625 27.984375 
Q 45.40625 37.75 41.375 43.109375 
Q 37.359375 48.484375 30.078125 48.484375 
Q 22.859375 48.484375 18.828125 43.109375 
Q 14.796875 37.75 14.796875 27.984375 
Q 14.796875 18.265625 18.828125 12.890625 
Q 22.859375 7.515625 30.078125 7.515625 
Q 37.359375 7.515625 41.375 12.890625 
Q 45.40625 18.265625 45.40625 27.984375 
z
M 54.390625 6.78125 
Q 54.390625 -7.171875 48.1875 -13.984375 
Q 42 -20.796875 29.203125 -20.796875 
Q 24.46875 -20.796875 20.265625 -20.09375 
Q 16.0625 -19.390625 12.109375 -17.921875 
L 12.109375 -9.1875 
Q 16.0625 -11.328125 19.921875 -12.34375 
Q 23.78125 -13.375 27.78125 -13.375 
Q 36.625 -13.375 41.015625 -8.765625 
Q 45.40625 -4.15625 45.40625 5.171875 
L 45.40625 9.625 
Q 42.625 4.78125 38.28125 2.390625 
Q 33.9375 0 27.875 0 
Q 17.828125 0 11.671875 7.65625 
Q 5.515625 15.328125 5.515625 27.984375 
Q 5.515625 40.671875 11.671875 48.328125 
Q 17.828125 56 27.875 56 
Q 33.9375 56 38.28125 53.609375 
Q 42.625 51.21875 45.40625 46.390625 
L 45.40625 54.6875 
L 54.390625 54.6875 
z
" id="DejaVuSans-103"/>
     </defs>
     <g transform="translate(106.427344 33.593108)scale(0.15 -0.15)">
      <use xlink:href="#DejaVuSans-70"/>
      <use x="52.019531" xlink:href="#DejaVuSans-101"/>
      <use x="113.542969" xlink:href="#DejaVuSans-100"/>
      <use x="177.019531" xlink:href="#DejaVuSans-65"/>
      <use x="239.552734" xlink:href="#DejaVuSans-118"/>
      <use x="298.732422" xlink:href="#DejaVuSans-103"/>
     </g>
    </g>
    <g id="line2d_18">
     <path d="M 190.7625 28.343108 
L 220.7625 28.343108 
" style="fill:none;stroke:#ff7f0e;stroke-linecap:square;stroke-width:1.5;"/>
    </g>
    <g id="line2d_19"/>
    <g id="text_15">
     <!-- FedMed -->
     <defs>
      <path d="M 9.8125 72.90625 
L 24.515625 72.90625 
L 43.109375 23.296875 
L 61.8125 72.90625 
L 76.515625 72.90625 
L 76.515625 0 
L 66.890625 0 
L 66.890625 64.015625 
L 48.09375 14.015625 
L 38.1875 14.015625 
L 19.390625 64.015625 
L 19.390625 0 
L 9.8125 0 
z
" id="DejaVuSans-77"/>
     </defs>
     <g transform="translate(232.7625 33.593108)scale(0.15 -0.15)">
      <use xlink:href="#DejaVuSans-70"/>
      <use x="52.019531" xlink:href="#DejaVuSans-101"/>
      <use x="113.542969" xlink:href="#DejaVuSans-100"/>
      <use x="177.019531" xlink:href="#DejaVuSans-77"/>
      <use x="263.298828" xlink:href="#DejaVuSans-101"/>
      <use x="324.822266" xlink:href="#DejaVuSans-100"/>
     </g>
    </g>
    <g id="line2d_20">
     <path d="M 321.011719 28.343108 
L 351.011719 28.343108 
" style="fill:none;stroke:#2ca02c;stroke-linecap:square;stroke-width:1.5;"/>
    </g>
    <g id="line2d_21"/>
    <g id="text_16">
     <!-- FedProx -->
     <defs>
      <path d="M 19.671875 64.796875 
L 19.671875 37.40625 
L 32.078125 37.40625 
Q 38.96875 37.40625 42.71875 40.96875 
Q 46.484375 44.53125 46.484375 51.125 
Q 46.484375 57.671875 42.71875 61.234375 
Q 38.96875 64.796875 32.078125 64.796875 
z
M 9.8125 72.90625 
L 32.078125 72.90625 
Q 44.34375 72.90625 50.609375 67.359375 
Q 56.890625 61.8125 56.890625 51.125 
Q 56.890625 40.328125 50.609375 34.8125 
Q 44.34375 29.296875 32.078125 29.296875 
L 19.671875 29.296875 
L 19.671875 0 
L 9.8125 0 
z
" id="DejaVuSans-80"/>
      <path d="M 54.890625 54.6875 
L 35.109375 28.078125 
L 55.90625 0 
L 45.3125 0 
L 29.390625 21.484375 
L 13.484375 0 
L 2.875 0 
L 24.125 28.609375 
L 4.6875 54.6875 
L 15.28125 54.6875 
L 29.78125 35.203125 
L 44.28125 54.6875 
z
" id="DejaVuSans-120"/>
     </defs>
     <g transform="translate(363.011719 33.593108)scale(0.15 -0.15)">
      <use xlink:href="#DejaVuSans-70"/>
      <use x="52.019531" xlink:href="#DejaVuSans-101"/>
      <use x="113.542969" xlink:href="#DejaVuSans-100"/>
      <use x="177.019531" xlink:href="#DejaVuSans-80"/>
      <use x="235.572266" xlink:href="#DejaVuSans-114"/>
      <use x="274.435547" xlink:href="#DejaVuSans-111"/>
      <use x="332.492188" xlink:href="#DejaVuSans-120"/>
     </g>
    </g>
    <g id="line2d_22">
     <path d="M 451.764844 28.343108 
L 481.764844 28.343108 
" style="fill:none;stroke:#d62728;stroke-linecap:square;stroke-width:1.5;"/>
    </g>
    <g id="line2d_23"/>
    <g id="text_17">
     <!-- qFedAvg -->
     <defs>
      <path d="M 14.796875 27.296875 
Q 14.796875 17.390625 18.875 11.75 
Q 22.953125 6.109375 30.078125 6.109375 
Q 37.203125 6.109375 41.296875 11.75 
Q 45.40625 17.390625 45.40625 27.296875 
Q 45.40625 37.203125 41.296875 42.84375 
Q 37.203125 48.484375 30.078125 48.484375 
Q 22.953125 48.484375 18.875 42.84375 
Q 14.796875 37.203125 14.796875 27.296875 
z
M 45.40625 8.203125 
Q 42.578125 3.328125 38.25 0.953125 
Q 33.9375 -1.421875 27.875 -1.421875 
Q 17.96875 -1.421875 11.734375 6.484375 
Q 5.515625 14.40625 5.515625 27.296875 
Q 5.515625 40.1875 11.734375 48.09375 
Q 17.96875 56 27.875 56 
Q 33.9375 56 38.25 53.625 
Q 42.578125 51.265625 45.40625 46.390625 
L 45.40625 54.6875 
L 54.390625 54.6875 
L 54.390625 -20.796875 
L 45.40625 -20.796875 
z
" id="DejaVuSans-113"/>
     </defs>
     <g transform="translate(493.764844 33.593108)scale(0.15 -0.15)">
      <use xlink:href="#DejaVuSans-113"/>
      <use x="63.476562" xlink:href="#DejaVuSans-70"/>
      <use x="115.496094" xlink:href="#DejaVuSans-101"/>
      <use x="177.019531" xlink:href="#DejaVuSans-100"/>
      <use x="240.496094" xlink:href="#DejaVuSans-65"/>
      <use x="303.029297" xlink:href="#DejaVuSans-118"/>
      <use x="362.208984" xlink:href="#DejaVuSans-103"/>
     </g>
    </g>
   </g>
  </g>
 </g>
 <defs>
  <clipPath id="p4ac47530ae">
   <rect height="318.351781" width="480.65" x="70.7" y="56.448219"/>
  </clipPath>
 </defs>
</svg>
