<?xml version="1.0" encoding="utf-8" standalone="no"?>
<!DOCTYPE svg PUBLIC "-//W3C//DTD SVG 1.1//EN"
  "http://www.w3.org/Graphics/SVG/1.1/DTD/svg11.dtd">
<!-- Created with matplotlib (https://matplotlib.org/) -->
<svg height="432pt" version="1.1" viewBox="0 0 576 432" width="576pt" xmlns="http://www.w3.org/2000/svg" xmlns:xlink="http://www.w3.org/1999/xlink">
 <defs>
  <style type="text/css">
*{stroke-linecap:butt;stroke-linejoin:round;}
  </style>
 </defs>
 <g id="figure_1">
  <g id="patch_1">
   <path d="M 0 432 
L 576 432 
L 576 0 
L 0 0 
z
" style="fill:#ffffff;"/>
  </g>
  <g id="axes_1">
   <g id="patch_2">
    <path d="M 70.7 374.8 
L 551.35 374.8 
L 551.35 56.448219 
L 70.7 56.448219 
z
" style="fill:#ffffff;"/>
   </g>
   <g id="PolyCollection_1">
    <path clip-path="url(#p9bcc61d94f)" d="M 92.547727 301.796409 
L 92.547727 350.161164 
L 101.465167 286.935953 
L 110.382607 237.72101 
L 119.300046 210.367784 
L 128.217486 162.573975 
L 137.134926 137.842131 
L 146.052365 144.259752 
L 154.969805 147.219503 
L 163.887245 138.126587 
L 172.804685 131.730431 
L 181.722124 133.019167 
L 190.639564 107.385169 
L 199.557004 109.690665 
L 208.474443 106.205829 
L 217.391883 104.640455 
L 226.309323 118.255661 
L 235.226763 96.219741 
L 244.144202 94.236921 
L 253.061642 110.257686 
L 261.979082 108.982642 
L 270.896521 105.972821 
L 279.813961 99.619772 
L 288.731401 98.610734 
L 297.64884 94.684585 
L 306.56628 90.024149 
L 315.48372 94.718444 
L 324.40116 92.556985 
L 333.318599 92.973503 
L 342.236039 92.482738 
L 351.153479 95.273957 
L 360.070918 90.311929 
L 368.988358 89.708504 
L 377.905798 90.619668 
L 386.823237 89.15728 
L 395.740677 90.243287 
L 404.658117 87.843118 
L 413.575557 91.185092 
L 422.492996 89.484725 
L 431.410436 87.909798 
L 440.327876 86.597277 
L 449.245315 87.887003 
L 458.162755 87.63268 
L 467.080195 87.009702 
L 475.997635 86.129016 
L 484.915074 87.488086 
L 493.832514 86.24864 
L 502.749954 86.934698 
L 511.667393 87.314495 
L 520.584833 86.217073 
L 529.502273 85.572568 
L 529.502273 84.722641 
L 529.502273 84.722641 
L 520.584833 84.078137 
L 511.667393 85.153161 
L 502.749954 84.60191 
L 493.832514 84.201744 
L 484.915074 85.134745 
L 475.997635 84.166194 
L 467.080195 84.216556 
L 458.162755 84.99015 
L 449.245315 84.580652 
L 440.327876 84.163457 
L 431.410436 85.023382 
L 422.492996 84.845027 
L 413.575557 85.317107 
L 404.658117 87.262508 
L 395.740677 85.948562 
L 386.823237 85.793172 
L 377.905798 85.727356 
L 368.988358 87.569568 
L 360.070918 85.56957 
L 351.153479 86.504182 
L 342.236039 85.260859 
L 333.318599 86.63219 
L 324.40116 85.496961 
L 315.48372 88.145919 
L 306.56628 87.409098 
L 297.64884 89.886699 
L 288.731401 85.495026 
L 279.813961 88.986056 
L 270.896521 86.822725 
L 261.979082 85.985349 
L 253.061642 88.744849 
L 244.144202 91.110237 
L 235.226763 91.765388 
L 226.309323 88.660785 
L 217.391883 98.086274 
L 208.474443 91.710482 
L 199.557004 93.346412 
L 190.639564 96.582957 
L 181.722124 95.001042 
L 172.804685 95.669079 
L 163.887245 106.186968 
L 154.969805 111.214953 
L 146.052365 122.55414 
L 137.134926 119.350928 
L 128.217486 137.757659 
L 119.300046 174.223728 
L 110.382607 192.181523 
L 101.465167 230.019605 
L 92.547727 301.796409 
z
" style="fill:#1f77b4;fill-opacity:0.5;"/>
   </g>
   <g id="PolyCollection_2">
    <path clip-path="url(#p9bcc61d94f)" d="M 92.547727 338.646051 
L 92.547727 360.329464 
L 101.465167 356.113013 
L 110.382607 319.637924 
L 119.300046 328.878756 
L 128.217486 334.403736 
L 137.134926 246.066185 
L 146.052365 264.230889 
L 154.969805 301.690755 
L 163.887245 293.384524 
L 172.804685 245.197522 
L 181.722124 258.509756 
L 190.639564 200.313969 
L 199.557004 170.917795 
L 208.474443 205.631239 
L 217.391883 241.436692 
L 226.309323 239.113353 
L 235.226763 219.382213 
L 244.144202 183.934108 
L 253.061642 176.719366 
L 261.979082 188.206613 
L 270.896521 183.947994 
L 279.813961 187.901807 
L 288.731401 184.722878 
L 297.64884 180.079124 
L 306.56628 182.80129 
L 315.48372 184.360664 
L 324.40116 211.544622 
L 333.318599 139.408091 
L 342.236039 191.519094 
L 351.153479 215.404047 
L 360.070918 259.258492 
L 368.988358 232.88933 
L 377.905798 216.563894 
L 386.823237 185.79047 
L 395.740677 177.228607 
L 404.658117 196.126768 
L 413.575557 208.254335 
L 422.492996 172.791545 
L 431.410436 143.967317 
L 440.327876 163.210736 
L 449.245315 134.92623 
L 458.162755 117.647536 
L 467.080195 144.189521 
L 475.997635 147.356871 
L 484.915074 166.04863 
L 493.832514 133.126014 
L 502.749954 133.10444 
L 511.667393 142.597535 
L 520.584833 127.992503 
L 529.502273 164.181546 
L 529.502273 102.011647 
L 529.502273 102.011647 
L 520.584833 96.924212 
L 511.667393 111.336854 
L 502.749954 105.467651 
L 493.832514 112.428939 
L 484.915074 120.782802 
L 475.997635 103.939547 
L 467.080195 97.64124 
L 458.162755 100.596665 
L 449.245315 112.335646 
L 440.327876 107.948049 
L 431.410436 107.794626 
L 422.492996 116.833032 
L 413.575557 108.680995 
L 404.658117 102.808293 
L 395.740677 140.017072 
L 386.823237 135.334577 
L 377.905798 108.130173 
L 368.988358 106.856685 
L 360.070918 92.591152 
L 351.153479 87.410383 
L 342.236039 107.571142 
L 333.318599 105.836513 
L 324.40116 95.304351 
L 315.48372 135.212636 
L 306.56628 102.168045 
L 297.64884 116.373141 
L 288.731401 123.677841 
L 279.813961 149.051063 
L 270.896521 136.40118 
L 261.979082 136.332279 
L 253.061642 134.784848 
L 244.144202 121.983816 
L 235.226763 110.587794 
L 226.309323 136.943549 
L 217.391883 141.913422 
L 208.474443 147.614978 
L 199.557004 147.569282 
L 190.639564 156.346092 
L 181.722124 161.151245 
L 172.804685 105.721074 
L 163.887245 141.483601 
L 154.969805 205.33362 
L 146.052365 201.672182 
L 137.134926 170.336147 
L 128.217486 295.208676 
L 119.300046 239.284462 
L 110.382607 237.663063 
L 101.465167 310.430985 
L 92.547727 338.646051 
z
" style="fill:#ff7f0e;fill-opacity:0.5;"/>
   </g>
   <g id="PolyCollection_3">
    <path clip-path="url(#p9bcc61d94f)" d="M 92.547727 294.862955 
L 92.547727 333.197709 
L 101.465167 275.166712 
L 110.382607 237.588042 
L 119.300046 199.571583 
L 128.217486 166.660372 
L 137.134926 140.349083 
L 146.052365 146.245983 
L 154.969805 150.684327 
L 163.887245 146.589095 
L 172.804685 143.374396 
L 181.722124 142.592773 
L 190.639564 138.38994 
L 199.557004 141.700563 
L 208.474443 136.496582 
L 217.391883 137.223702 
L 226.309323 136.386437 
L 235.226763 135.742078 
L 244.144202 133.980703 
L 253.061642 134.764938 
L 261.979082 134.933103 
L 270.896521 134.035027 
L 279.813961 131.901289 
L 288.731401 132.095584 
L 297.64884 132.171661 
L 306.56628 131.971109 
L 315.48372 131.288932 
L 324.40116 133.709144 
L 333.318599 131.695934 
L 342.236039 130.905123 
L 351.153479 130.343696 
L 360.070918 130.894343 
L 368.988358 130.823191 
L 377.905798 130.872879 
L 386.823237 130.624456 
L 395.740677 130.34664 
L 404.658117 130.506892 
L 413.575557 130.773025 
L 422.492996 130.484723 
L 431.410436 129.635527 
L 440.327876 130.537061 
L 449.245315 130.146499 
L 458.162755 129.883531 
L 467.080195 129.850235 
L 475.997635 129.853337 
L 484.915074 130.211601 
L 493.832514 130.178898 
L 502.749954 129.739443 
L 511.667393 129.958644 
L 520.584833 129.922774 
L 529.502273 130.000485 
L 529.502273 72.105544 
L 529.502273 72.105544 
L 520.584833 71.872905 
L 511.667393 71.99221 
L 502.749954 71.280363 
L 493.832514 72.54783 
L 484.915074 72.825477 
L 475.997635 71.631993 
L 467.080195 71.635095 
L 458.162755 71.756974 
L 449.245315 72.580229 
L 440.327876 73.741414 
L 431.410436 70.918754 
L 422.492996 73.483403 
L 413.575557 74.281324 
L 404.658117 73.461234 
L 395.740677 73.155962 
L 386.823237 74.119543 
L 377.905798 74.802169 
L 368.988358 74.696682 
L 360.070918 74.780705 
L 351.153479 73.31408 
L 342.236039 74.9251 
L 333.318599 77.237783 
L 324.40116 78.328068 
L 315.48372 75.937864 
L 306.56628 77.583307 
L 297.64884 78.003454 
L 288.731401 78.389881 
L 279.813961 77.653127 
L 270.896521 82.657426 
L 261.979082 85.793894 
L 253.061642 85.34136 
L 244.144202 82.091052 
L 235.226763 86.847015 
L 226.309323 90.392375 
L 217.391883 90.175809 
L 208.474443 88.730482 
L 199.557004 100.750896 
L 190.639564 94.440686 
L 181.722124 98.772463 
L 172.804685 104.663354 
L 163.887245 104.396974 
L 154.969805 119.388234 
L 146.052365 116.533365 
L 137.134926 120.878519 
L 128.217486 148.568036 
L 119.300046 174.312873 
L 110.382607 192.624841 
L 101.465167 208.271103 
L 92.547727 294.862955 
z
" style="fill:#2ca02c;fill-opacity:0.5;"/>
   </g>
   <g id="PolyCollection_4">
    <path clip-path="url(#p9bcc61d94f)" d="M 92.547727 287.17545 
L 92.547727 337.591476 
L 101.465167 281.524242 
L 110.382607 264.245588 
L 119.300046 254.840754 
L 128.217486 241.767955 
L 137.134926 226.732634 
L 146.052365 206.575736 
L 154.969805 195.32159 
L 163.887245 185.785084 
L 172.804685 177.834156 
L 181.722124 168.297406 
L 190.639564 163.112321 
L 199.557004 159.187763 
L 208.474443 156.584869 
L 217.391883 155.501203 
L 226.309323 153.991508 
L 235.226763 150.377837 
L 244.144202 150.045433 
L 253.061642 148.548556 
L 261.979082 147.996071 
L 270.896521 146.786629 
L 279.813961 147.410283 
L 288.731401 145.918457 
L 297.64884 145.185486 
L 306.56628 144.867122 
L 315.48372 144.864858 
L 324.40116 143.848248 
L 333.318599 144.146245 
L 342.236039 144.011868 
L 351.153479 143.311993 
L 360.070918 142.226685 
L 368.988358 141.967329 
L 377.905798 141.570155 
L 386.823237 141.35484 
L 395.740677 141.25784 
L 404.658117 141.356958 
L 413.575557 140.425279 
L 422.492996 140.543731 
L 431.410436 139.957437 
L 440.327876 139.830214 
L 449.245315 139.541038 
L 458.162755 139.650982 
L 467.080195 140.044139 
L 475.997635 139.577612 
L 484.915074 139.948295 
L 493.832514 139.568059 
L 502.749954 139.735556 
L 511.667393 139.602244 
L 520.584833 139.522708 
L 529.502273 138.946799 
L 529.502273 120.691658 
L 529.502273 120.691658 
L 520.584833 121.881016 
L 511.667393 121.973104 
L 502.749954 122.183038 
L 493.832514 121.823407 
L 484.915074 122.37484 
L 475.997635 122.083548 
L 467.080195 122.732572 
L 458.162755 122.120507 
L 449.245315 122.254969 
L 440.327876 123.203932 
L 431.410436 123.456732 
L 422.492996 124.697 
L 413.575557 124.092182 
L 404.658117 124.839959 
L 395.740677 124.718419 
L 386.823237 125.307912 
L 377.905798 125.631984 
L 368.988358 126.387137 
L 360.070918 126.728463 
L 351.153479 128.65882 
L 342.236039 129.380967 
L 333.318599 128.952379 
L 324.40116 128.809059 
L 315.48372 129.582234 
L 306.56628 130.30324 
L 297.64884 129.93584 
L 288.731401 130.465526 
L 279.813961 132.442941 
L 270.896521 132.760125 
L 261.979082 133.94115 
L 253.061642 134.406146 
L 244.144202 136.648204 
L 235.226763 137.296504 
L 226.309323 140.633574 
L 217.391883 141.636935 
L 208.474443 144.157356 
L 199.557004 148.689087 
L 190.639564 154.559313 
L 181.722124 158.494777 
L 172.804685 164.158945 
L 163.887245 171.44571 
L 154.969805 174.964829 
L 146.052365 182.90797 
L 137.134926 193.667775 
L 128.217486 205.00114 
L 119.300046 215.673644 
L 110.382607 225.63772 
L 101.465167 248.715048 
L 92.547727 287.17545 
z
" style="fill:#d62728;fill-opacity:0.5;"/>
   </g>
   <g id="matplotlib.axis_1">
    <g id="xtick_1">
     <g id="line2d_1">
      <defs>
       <path d="M 0 0 
L 0 3.5 
" id="m541c152a52" style="stroke:#000000;stroke-width:0.8;"/>
      </defs>
      <g>
       <use style="stroke:#000000;stroke-width:0.8;" x="92.547727" xlink:href="#m541c152a52" y="374.8"/>
      </g>
     </g>
     <g id="text_1">
      <!-- 0 -->
      <defs>
       <path d="M 31.78125 66.40625 
Q 24.171875 66.40625 20.328125 58.90625 
Q 16.5 51.421875 16.5 36.375 
Q 16.5 21.390625 20.328125 13.890625 
Q 24.171875 6.390625 31.78125 6.390625 
Q 39.453125 6.390625 43.28125 13.890625 
Q 47.125 21.390625 47.125 36.375 
Q 47.125 51.421875 43.28125 58.90625 
Q 39.453125 66.40625 31.78125 66.40625 
z
M 31.78125 74.21875 
Q 44.046875 74.21875 50.515625 64.515625 
Q 56.984375 54.828125 56.984375 36.375 
Q 56.984375 17.96875 50.515625 8.265625 
Q 44.046875 -1.421875 31.78125 -1.421875 
Q 19.53125 -1.421875 13.0625 8.265625 
Q 6.59375 17.96875 6.59375 36.375 
Q 6.59375 54.828125 13.0625 64.515625 
Q 19.53125 74.21875 31.78125 74.21875 
z
" id="DejaVuSans-48"/>
      </defs>
      <g transform="translate(87.775852 393.197656)scale(0.15 -0.15)">
       <use xlink:href="#DejaVuSans-48"/>
      </g>
     </g>
    </g>
    <g id="xtick_2">
     <g id="line2d_2">
      <g>
       <use style="stroke:#000000;stroke-width:0.8;" x="181.722124" xlink:href="#m541c152a52" y="374.8"/>
      </g>
     </g>
     <g id="text_2">
      <!-- 10 -->
      <defs>
       <path d="M 12.40625 8.296875 
L 28.515625 8.296875 
L 28.515625 63.921875 
L 10.984375 60.40625 
L 10.984375 69.390625 
L 28.421875 72.90625 
L 38.28125 72.90625 
L 38.28125 8.296875 
L 54.390625 8.296875 
L 54.390625 0 
L 12.40625 0 
z
" id="DejaVuSans-49"/>
      </defs>
      <g transform="translate(172.178374 393.197656)scale(0.15 -0.15)">
       <use xlink:href="#DejaVuSans-49"/>
       <use x="63.623047" xlink:href="#DejaVuSans-48"/>
      </g>
     </g>
    </g>
    <g id="xtick_3">
     <g id="line2d_3">
      <g>
       <use style="stroke:#000000;stroke-width:0.8;" x="270.896521" xlink:href="#m541c152a52" y="374.8"/>
      </g>
     </g>
     <g id="text_3">
      <!-- 20 -->
      <defs>
       <path d="M 19.1875 8.296875 
L 53.609375 8.296875 
L 53.609375 0 
L 7.328125 0 
L 7.328125 8.296875 
Q 12.9375 14.109375 22.625 23.890625 
Q 32.328125 33.6875 34.8125 36.53125 
Q 39.546875 41.84375 41.421875 45.53125 
Q 43.3125 49.21875 43.3125 52.78125 
Q 43.3125 58.59375 39.234375 62.25 
Q 35.15625 65.921875 28.609375 65.921875 
Q 23.96875 65.921875 18.8125 64.3125 
Q 13.671875 62.703125 7.8125 59.421875 
L 7.8125 69.390625 
Q 13.765625 71.78125 18.9375 73 
Q 24.125 74.21875 28.421875 74.21875 
Q 39.75 74.21875 46.484375 68.546875 
Q 53.21875 62.890625 53.21875 53.421875 
Q 53.21875 48.921875 51.53125 44.890625 
Q 49.859375 40.875 45.40625 35.40625 
Q 44.1875 33.984375 37.640625 27.21875 
Q 31.109375 20.453125 19.1875 8.296875 
z
" id="DejaVuSans-50"/>
      </defs>
      <g transform="translate(261.352771 393.197656)scale(0.15 -0.15)">
       <use xlink:href="#DejaVuSans-50"/>
       <use x="63.623047" xlink:href="#DejaVuSans-48"/>
      </g>
     </g>
    </g>
    <g id="xtick_4">
     <g id="line2d_4">
      <g>
       <use style="stroke:#000000;stroke-width:0.8;" x="360.070918" xlink:href="#m541c152a52" y="374.8"/>
      </g>
     </g>
     <g id="text_4">
      <!-- 30 -->
      <defs>
       <path d="M 40.578125 39.3125 
Q 47.65625 37.796875 51.625 33 
Q 55.609375 28.21875 55.609375 21.1875 
Q 55.609375 10.40625 48.1875 4.484375 
Q 40.765625 -1.421875 27.09375 -1.421875 
Q 22.515625 -1.421875 17.65625 -0.515625 
Q 12.796875 0.390625 7.625 2.203125 
L 7.625 11.71875 
Q 11.71875 9.328125 16.59375 8.109375 
Q 21.484375 6.890625 26.8125 6.890625 
Q 36.078125 6.890625 40.9375 10.546875 
Q 45.796875 14.203125 45.796875 21.1875 
Q 45.796875 27.640625 41.28125 31.265625 
Q 36.765625 34.90625 28.71875 34.90625 
L 20.21875 34.90625 
L 20.21875 43.015625 
L 29.109375 43.015625 
Q 36.375 43.015625 40.234375 45.921875 
Q 44.09375 48.828125 44.09375 54.296875 
Q 44.09375 59.90625 40.109375 62.90625 
Q 36.140625 65.921875 28.71875 65.921875 
Q 24.65625 65.921875 20.015625 65.03125 
Q 15.375 64.15625 9.8125 62.3125 
L 9.8125 71.09375 
Q 15.4375 72.65625 20.34375 73.4375 
Q 25.25 74.21875 29.59375 74.21875 
Q 40.828125 74.21875 47.359375 69.109375 
Q 53.90625 64.015625 53.90625 55.328125 
Q 53.90625 49.265625 50.4375 45.09375 
Q 46.96875 40.921875 40.578125 39.3125 
z
" id="DejaVuSans-51"/>
      </defs>
      <g transform="translate(350.527168 393.197656)scale(0.15 -0.15)">
       <use xlink:href="#DejaVuSans-51"/>
       <use x="63.623047" xlink:href="#DejaVuSans-48"/>
      </g>
     </g>
    </g>
    <g id="xtick_5">
     <g id="line2d_5">
      <g>
       <use style="stroke:#000000;stroke-width:0.8;" x="449.245315" xlink:href="#m541c152a52" y="374.8"/>
      </g>
     </g>
     <g id="text_5">
      <!-- 40 -->
      <defs>
       <path d="M 37.796875 64.3125 
L 12.890625 25.390625 
L 37.796875 25.390625 
z
M 35.203125 72.90625 
L 47.609375 72.90625 
L 47.609375 25.390625 
L 58.015625 25.390625 
L 58.015625 17.1875 
L 47.609375 17.1875 
L 47.609375 0 
L 37.796875 0 
L 37.796875 17.1875 
L 4.890625 17.1875 
L 4.890625 26.703125 
z
" id="DejaVuSans-52"/>
      </defs>
      <g transform="translate(439.701565 393.197656)scale(0.15 -0.15)">
       <use xlink:href="#DejaVuSans-52"/>
       <use x="63.623047" xlink:href="#DejaVuSans-48"/>
      </g>
     </g>
    </g>
    <g id="xtick_6">
     <g id="line2d_6">
      <g>
       <use style="stroke:#000000;stroke-width:0.8;" x="538.419712" xlink:href="#m541c152a52" y="374.8"/>
      </g>
     </g>
     <g id="text_6">
      <!-- 50 -->
      <defs>
       <path d="M 10.796875 72.90625 
L 49.515625 72.90625 
L 49.515625 64.59375 
L 19.828125 64.59375 
L 19.828125 46.734375 
Q 21.96875 47.46875 24.109375 47.828125 
Q 26.265625 48.1875 28.421875 48.1875 
Q 40.625 48.1875 47.75 41.5 
Q 54.890625 34.8125 54.890625 23.390625 
Q 54.890625 11.625 47.5625 5.09375 
Q 40.234375 -1.421875 26.90625 -1.421875 
Q 22.3125 -1.421875 17.546875 -0.640625 
Q 12.796875 0.140625 7.71875 1.703125 
L 7.71875 11.625 
Q 12.109375 9.234375 16.796875 8.0625 
Q 21.484375 6.890625 26.703125 6.890625 
Q 35.15625 6.890625 40.078125 11.328125 
Q 45.015625 15.765625 45.015625 23.390625 
Q 45.015625 31 40.078125 35.4375 
Q 35.15625 39.890625 26.703125 39.890625 
Q 22.75 39.890625 18.8125 39.015625 
Q 14.890625 38.140625 10.796875 36.28125 
z
" id="DejaVuSans-53"/>
      </defs>
      <g transform="translate(528.875962 393.197656)scale(0.15 -0.15)">
       <use xlink:href="#DejaVuSans-53"/>
       <use x="63.623047" xlink:href="#DejaVuSans-48"/>
      </g>
     </g>
    </g>
    <g id="text_7">
     <!-- Global Communication Rounds -->
     <defs>
      <path d="M 59.515625 10.40625 
L 59.515625 29.984375 
L 43.40625 29.984375 
L 43.40625 38.09375 
L 69.28125 38.09375 
L 69.28125 6.78125 
Q 63.578125 2.734375 56.6875 0.65625 
Q 49.8125 -1.421875 42 -1.421875 
Q 24.90625 -1.421875 15.25 8.5625 
Q 5.609375 18.5625 5.609375 36.375 
Q 5.609375 54.25 15.25 64.234375 
Q 24.90625 74.21875 42 74.21875 
Q 49.125 74.21875 55.546875 72.453125 
Q 61.96875 70.703125 67.390625 67.28125 
L 67.390625 56.78125 
Q 61.921875 61.421875 55.765625 63.765625 
Q 49.609375 66.109375 42.828125 66.109375 
Q 29.4375 66.109375 22.71875 58.640625 
Q 16.015625 51.171875 16.015625 36.375 
Q 16.015625 21.625 22.71875 14.15625 
Q 29.4375 6.6875 42.828125 6.6875 
Q 48.046875 6.6875 52.140625 7.59375 
Q 56.25 8.5 59.515625 10.40625 
z
" id="DejaVuSans-71"/>
      <path d="M 9.421875 75.984375 
L 18.40625 75.984375 
L 18.40625 0 
L 9.421875 0 
z
" id="DejaVuSans-108"/>
      <path d="M 30.609375 48.390625 
Q 23.390625 48.390625 19.1875 42.75 
Q 14.984375 37.109375 14.984375 27.296875 
Q 14.984375 17.484375 19.15625 11.84375 
Q 23.34375 6.203125 30.609375 6.203125 
Q 37.796875 6.203125 41.984375 11.859375 
Q 46.1875 17.53125 46.1875 27.296875 
Q 46.1875 37.015625 41.984375 42.703125 
Q 37.796875 48.390625 30.609375 48.390625 
z
M 30.609375 56 
Q 42.328125 56 49.015625 48.375 
Q 55.71875 40.765625 55.71875 27.296875 
Q 55.71875 13.875 49.015625 6.21875 
Q 42.328125 -1.421875 30.609375 -1.421875 
Q 18.84375 -1.421875 12.171875 6.21875 
Q 5.515625 13.875 5.515625 27.296875 
Q 5.515625 40.765625 12.171875 48.375 
Q 18.84375 56 30.609375 56 
z
" id="DejaVuSans-111"/>
      <path d="M 48.6875 27.296875 
Q 48.6875 37.203125 44.609375 42.84375 
Q 40.53125 48.484375 33.40625 48.484375 
Q 26.265625 48.484375 22.1875 42.84375 
Q 18.109375 37.203125 18.109375 27.296875 
Q 18.109375 17.390625 22.1875 11.75 
Q 26.265625 6.109375 33.40625 6.109375 
Q 40.53125 6.109375 44.609375 11.75 
Q 48.6875 17.390625 48.6875 27.296875 
z
M 18.109375 46.390625 
Q 20.953125 51.265625 25.265625 53.625 
Q 29.59375 56 35.59375 56 
Q 45.5625 56 51.78125 48.09375 
Q 58.015625 40.1875 58.015625 27.296875 
Q 58.015625 14.40625 51.78125 6.484375 
Q 45.5625 -1.421875 35.59375 -1.421875 
Q 29.59375 -1.421875 25.265625 0.953125 
Q 20.953125 3.328125 18.109375 8.203125 
L 18.109375 0 
L 9.078125 0 
L 9.078125 75.984375 
L 18.109375 75.984375 
z
" id="DejaVuSans-98"/>
      <path d="M 34.28125 27.484375 
Q 23.390625 27.484375 19.1875 25 
Q 14.984375 22.515625 14.984375 16.5 
Q 14.984375 11.71875 18.140625 8.90625 
Q 21.296875 6.109375 26.703125 6.109375 
Q 34.1875 6.109375 38.703125 11.40625 
Q 43.21875 16.703125 43.21875 25.484375 
L 43.21875 27.484375 
z
M 52.203125 31.203125 
L 52.203125 0 
L 43.21875 0 
L 43.21875 8.296875 
Q 40.140625 3.328125 35.546875 0.953125 
Q 30.953125 -1.421875 24.3125 -1.421875 
Q 15.921875 -1.421875 10.953125 3.296875 
Q 6 8.015625 6 15.921875 
Q 6 25.140625 12.171875 29.828125 
Q 18.359375 34.515625 30.609375 34.515625 
L 43.21875 34.515625 
L 43.21875 35.40625 
Q 43.21875 41.609375 39.140625 45 
Q 35.0625 48.390625 27.6875 48.390625 
Q 23 48.390625 18.546875 47.265625 
Q 14.109375 46.140625 10.015625 43.890625 
L 10.015625 52.203125 
Q 14.9375 54.109375 19.578125 55.046875 
Q 24.21875 56 28.609375 56 
Q 40.484375 56 46.34375 49.84375 
Q 52.203125 43.703125 52.203125 31.203125 
z
" id="DejaVuSans-97"/>
      <path id="DejaVuSans-32"/>
      <path d="M 64.40625 67.28125 
L 64.40625 56.890625 
Q 59.421875 61.53125 53.78125 63.8125 
Q 48.140625 66.109375 41.796875 66.109375 
Q 29.296875 66.109375 22.65625 58.46875 
Q 16.015625 50.828125 16.015625 36.375 
Q 16.015625 21.96875 22.65625 14.328125 
Q 29.296875 6.6875 41.796875 6.6875 
Q 48.140625 6.6875 53.78125 8.984375 
Q 59.421875 11.28125 64.40625 15.921875 
L 64.40625 5.609375 
Q 59.234375 2.09375 53.4375 0.328125 
Q 47.65625 -1.421875 41.21875 -1.421875 
Q 24.65625 -1.421875 15.125 8.703125 
Q 5.609375 18.84375 5.609375 36.375 
Q 5.609375 53.953125 15.125 64.078125 
Q 24.65625 74.21875 41.21875 74.21875 
Q 47.75 74.21875 53.53125 72.484375 
Q 59.328125 70.75 64.40625 67.28125 
z
" id="DejaVuSans-67"/>
      <path d="M 52 44.1875 
Q 55.375 50.25 60.0625 53.125 
Q 64.75 56 71.09375 56 
Q 79.640625 56 84.28125 50.015625 
Q 88.921875 44.046875 88.921875 33.015625 
L 88.921875 0 
L 79.890625 0 
L 79.890625 32.71875 
Q 79.890625 40.578125 77.09375 44.375 
Q 74.3125 48.1875 68.609375 48.1875 
Q 61.625 48.1875 57.5625 43.546875 
Q 53.515625 38.921875 53.515625 30.90625 
L 53.515625 0 
L 44.484375 0 
L 44.484375 32.71875 
Q 44.484375 40.625 41.703125 44.40625 
Q 38.921875 48.1875 33.109375 48.1875 
Q 26.21875 48.1875 22.15625 43.53125 
Q 18.109375 38.875 18.109375 30.90625 
L 18.109375 0 
L 9.078125 0 
L 9.078125 54.6875 
L 18.109375 54.6875 
L 18.109375 46.1875 
Q 21.1875 51.21875 25.484375 53.609375 
Q 29.78125 56 35.6875 56 
Q 41.65625 56 45.828125 52.96875 
Q 50 49.953125 52 44.1875 
z
" id="DejaVuSans-109"/>
      <path d="M 8.5 21.578125 
L 8.5 54.6875 
L 17.484375 54.6875 
L 17.484375 21.921875 
Q 17.484375 14.15625 20.5 10.265625 
Q 23.53125 6.390625 29.59375 6.390625 
Q 36.859375 6.390625 41.078125 11.03125 
Q 45.3125 15.671875 45.3125 23.6875 
L 45.3125 54.6875 
L 54.296875 54.6875 
L 54.296875 0 
L 45.3125 0 
L 45.3125 8.40625 
Q 42.046875 3.421875 37.71875 1 
Q 33.40625 -1.421875 27.6875 -1.421875 
Q 18.265625 -1.421875 13.375 4.4375 
Q 8.5 10.296875 8.5 21.578125 
z
M 31.109375 56 
z
" id="DejaVuSans-117"/>
      <path d="M 54.890625 33.015625 
L 54.890625 0 
L 45.90625 0 
L 45.90625 32.71875 
Q 45.90625 40.484375 42.875 44.328125 
Q 39.84375 48.1875 33.796875 48.1875 
Q 26.515625 48.1875 22.3125 43.546875 
Q 18.109375 38.921875 18.109375 30.90625 
L 18.109375 0 
L 9.078125 0 
L 9.078125 54.6875 
L 18.109375 54.6875 
L 18.109375 46.1875 
Q 21.34375 51.125 25.703125 53.5625 
Q 30.078125 56 35.796875 56 
Q 45.21875 56 50.046875 50.171875 
Q 54.890625 44.34375 54.890625 33.015625 
z
" id="DejaVuSans-110"/>
      <path d="M 9.421875 54.6875 
L 18.40625 54.6875 
L 18.40625 0 
L 9.421875 0 
z
M 9.421875 75.984375 
L 18.40625 75.984375 
L 18.40625 64.59375 
L 9.421875 64.59375 
z
" id="DejaVuSans-105"/>
      <path d="M 48.78125 52.59375 
L 48.78125 44.1875 
Q 44.96875 46.296875 41.140625 47.34375 
Q 37.3125 48.390625 33.40625 48.390625 
Q 24.65625 48.390625 19.8125 42.84375 
Q 14.984375 37.3125 14.984375 27.296875 
Q 14.984375 17.28125 19.8125 11.734375 
Q 24.65625 6.203125 33.40625 6.203125 
Q 37.3125 6.203125 41.140625 7.25 
Q 44.96875 8.296875 48.78125 10.40625 
L 48.78125 2.09375 
Q 45.015625 0.34375 40.984375 -0.53125 
Q 36.96875 -1.421875 32.421875 -1.421875 
Q 20.0625 -1.421875 12.78125 6.34375 
Q 5.515625 14.109375 5.515625 27.296875 
Q 5.515625 40.671875 12.859375 48.328125 
Q 20.21875 56 33.015625 56 
Q 37.15625 56 41.109375 55.140625 
Q 45.0625 54.296875 48.78125 52.59375 
z
" id="DejaVuSans-99"/>
      <path d="M 18.3125 70.21875 
L 18.3125 54.6875 
L 36.8125 54.6875 
L 36.8125 47.703125 
L 18.3125 47.703125 
L 18.3125 18.015625 
Q 18.3125 11.328125 20.140625 9.421875 
Q 21.96875 7.515625 27.59375 7.515625 
L 36.8125 7.515625 
L 36.8125 0 
L 27.59375 0 
Q 17.1875 0 13.234375 3.875 
Q 9.28125 7.765625 9.28125 18.015625 
L 9.28125 47.703125 
L 2.6875 47.703125 
L 2.6875 54.6875 
L 9.28125 54.6875 
L 9.28125 70.21875 
z
" id="DejaVuSans-116"/>
      <path d="M 44.390625 34.1875 
Q 47.5625 33.109375 50.5625 29.59375 
Q 53.5625 26.078125 56.59375 19.921875 
L 66.609375 0 
L 56 0 
L 46.6875 18.703125 
Q 43.0625 26.03125 39.671875 28.421875 
Q 36.28125 30.8125 30.421875 30.8125 
L 19.671875 30.8125 
L 19.671875 0 
L 9.8125 0 
L 9.8125 72.90625 
L 32.078125 72.90625 
Q 44.578125 72.90625 50.734375 67.671875 
Q 56.890625 62.453125 56.890625 51.90625 
Q 56.890625 45.015625 53.6875 40.46875 
Q 50.484375 35.9375 44.390625 34.1875 
z
M 19.671875 64.796875 
L 19.671875 38.921875 
L 32.078125 38.921875 
Q 39.203125 38.921875 42.84375 42.21875 
Q 46.484375 45.515625 46.484375 51.90625 
Q 46.484375 58.296875 42.84375 61.546875 
Q 39.203125 64.796875 32.078125 64.796875 
z
" id="DejaVuSans-82"/>
      <path d="M 45.40625 46.390625 
L 45.40625 75.984375 
L 54.390625 75.984375 
L 54.390625 0 
L 45.40625 0 
L 45.40625 8.203125 
Q 42.578125 3.328125 38.25 0.953125 
Q 33.9375 -1.421875 27.875 -1.421875 
Q 17.96875 -1.421875 11.734375 6.484375 
Q 5.515625 14.40625 5.515625 27.296875 
Q 5.515625 40.1875 11.734375 48.09375 
Q 17.96875 56 27.875 56 
Q 33.9375 56 38.25 53.625 
Q 42.578125 51.265625 45.40625 46.390625 
z
M 14.796875 27.296875 
Q 14.796875 17.390625 18.875 11.75 
Q 22.953125 6.109375 30.078125 6.109375 
Q 37.203125 6.109375 41.296875 11.75 
Q 45.40625 17.390625 45.40625 27.296875 
Q 45.40625 37.203125 41.296875 42.84375 
Q 37.203125 48.484375 30.078125 48.484375 
Q 22.953125 48.484375 18.875 42.84375 
Q 14.796875 37.203125 14.796875 27.296875 
z
" id="DejaVuSans-100"/>
      <path d="M 44.28125 53.078125 
L 44.28125 44.578125 
Q 40.484375 46.53125 36.375 47.5 
Q 32.28125 48.484375 27.875 48.484375 
Q 21.1875 48.484375 17.84375 46.4375 
Q 14.5 44.390625 14.5 40.28125 
Q 14.5 37.15625 16.890625 35.375 
Q 19.28125 33.59375 26.515625 31.984375 
L 29.59375 31.296875 
Q 39.15625 29.25 43.1875 25.515625 
Q 47.21875 21.78125 47.21875 15.09375 
Q 47.21875 7.46875 41.1875 3.015625 
Q 35.15625 -1.421875 24.609375 -1.421875 
Q 20.21875 -1.421875 15.453125 -0.5625 
Q 10.6875 0.296875 5.421875 2 
L 5.421875 11.28125 
Q 10.40625 8.6875 15.234375 7.390625 
Q 20.0625 6.109375 24.8125 6.109375 
Q 31.15625 6.109375 34.5625 8.28125 
Q 37.984375 10.453125 37.984375 14.40625 
Q 37.984375 18.0625 35.515625 20.015625 
Q 33.0625 21.96875 24.703125 23.78125 
L 21.578125 24.515625 
Q 13.234375 26.265625 9.515625 29.90625 
Q 5.8125 33.546875 5.8125 39.890625 
Q 5.8125 47.609375 11.28125 51.796875 
Q 16.75 56 26.8125 56 
Q 31.78125 56 36.171875 55.265625 
Q 40.578125 54.546875 44.28125 53.078125 
z
" id="DejaVuSans-115"/>
     </defs>
     <g transform="translate(195.582422 411.714844)scale(0.15 -0.15)">
      <use xlink:href="#DejaVuSans-71"/>
      <use x="77.490234" xlink:href="#DejaVuSans-108"/>
      <use x="105.273438" xlink:href="#DejaVuSans-111"/>
      <use x="166.455078" xlink:href="#DejaVuSans-98"/>
      <use x="229.931641" xlink:href="#DejaVuSans-97"/>
      <use x="291.210938" xlink:href="#DejaVuSans-108"/>
      <use x="318.994141" xlink:href="#DejaVuSans-32"/>
      <use x="350.78125" xlink:href="#DejaVuSans-67"/>
      <use x="420.605469" xlink:href="#DejaVuSans-111"/>
      <use x="481.787109" xlink:href="#DejaVuSans-109"/>
      <use x="579.199219" xlink:href="#DejaVuSans-109"/>
      <use x="676.611328" xlink:href="#DejaVuSans-117"/>
      <use x="739.990234" xlink:href="#DejaVuSans-110"/>
      <use x="803.369141" xlink:href="#DejaVuSans-105"/>
      <use x="831.152344" xlink:href="#DejaVuSans-99"/>
      <use x="886.132812" xlink:href="#DejaVuSans-97"/>
      <use x="947.412109" xlink:href="#DejaVuSans-116"/>
      <use x="986.621094" xlink:href="#DejaVuSans-105"/>
      <use x="1014.404297" xlink:href="#DejaVuSans-111"/>
      <use x="1075.585938" xlink:href="#DejaVuSans-110"/>
      <use x="1138.964844" xlink:href="#DejaVuSans-32"/>
      <use x="1170.751953" xlink:href="#DejaVuSans-82"/>
      <use x="1235.734375" xlink:href="#DejaVuSans-111"/>
      <use x="1296.916016" xlink:href="#DejaVuSans-117"/>
      <use x="1360.294922" xlink:href="#DejaVuSans-110"/>
      <use x="1423.673828" xlink:href="#DejaVuSans-100"/>
      <use x="1487.150391" xlink:href="#DejaVuSans-115"/>
     </g>
    </g>
   </g>
   <g id="matplotlib.axis_2">
    <g id="ytick_1">
     <g id="line2d_7">
      <defs>
       <path d="M 0 0 
L -3.5 0 
" id="mb6a7309946" style="stroke:#000000;stroke-width:0.8;"/>
      </defs>
      <g>
       <use style="stroke:#000000;stroke-width:0.8;" x="70.7" xlink:href="#mb6a7309946" y="326.444311"/>
      </g>
     </g>
     <g id="text_8">
      <!-- 20 -->
      <g transform="translate(44.6125 332.143139)scale(0.15 -0.15)">
       <use xlink:href="#DejaVuSans-50"/>
       <use x="63.623047" xlink:href="#DejaVuSans-48"/>
      </g>
     </g>
    </g>
    <g id="ytick_2">
     <g id="line2d_8">
      <g>
       <use style="stroke:#000000;stroke-width:0.8;" x="70.7" xlink:href="#mb6a7309946" y="265.150292"/>
      </g>
     </g>
     <g id="text_9">
      <!-- 40 -->
      <g transform="translate(44.6125 270.84912)scale(0.15 -0.15)">
       <use xlink:href="#DejaVuSans-52"/>
       <use x="63.623047" xlink:href="#DejaVuSans-48"/>
      </g>
     </g>
    </g>
    <g id="ytick_3">
     <g id="line2d_9">
      <g>
       <use style="stroke:#000000;stroke-width:0.8;" x="70.7" xlink:href="#mb6a7309946" y="203.856274"/>
      </g>
     </g>
     <g id="text_10">
      <!-- 60 -->
      <defs>
       <path d="M 33.015625 40.375 
Q 26.375 40.375 22.484375 35.828125 
Q 18.609375 31.296875 18.609375 23.390625 
Q 18.609375 15.53125 22.484375 10.953125 
Q 26.375 6.390625 33.015625 6.390625 
Q 39.65625 6.390625 43.53125 10.953125 
Q 47.40625 15.53125 47.40625 23.390625 
Q 47.40625 31.296875 43.53125 35.828125 
Q 39.65625 40.375 33.015625 40.375 
z
M 52.59375 71.296875 
L 52.59375 62.3125 
Q 48.875 64.0625 45.09375 64.984375 
Q 41.3125 65.921875 37.59375 65.921875 
Q 27.828125 65.921875 22.671875 59.328125 
Q 17.53125 52.734375 16.796875 39.40625 
Q 19.671875 43.65625 24.015625 45.921875 
Q 28.375 48.1875 33.59375 48.1875 
Q 44.578125 48.1875 50.953125 41.515625 
Q 57.328125 34.859375 57.328125 23.390625 
Q 57.328125 12.15625 50.6875 5.359375 
Q 44.046875 -1.421875 33.015625 -1.421875 
Q 20.359375 -1.421875 13.671875 8.265625 
Q 6.984375 17.96875 6.984375 36.375 
Q 6.984375 53.65625 15.1875 63.9375 
Q 23.390625 74.21875 37.203125 74.21875 
Q 40.921875 74.21875 44.703125 73.484375 
Q 48.484375 72.75 52.59375 71.296875 
z
" id="DejaVuSans-54"/>
      </defs>
      <g transform="translate(44.6125 209.555102)scale(0.15 -0.15)">
       <use xlink:href="#DejaVuSans-54"/>
       <use x="63.623047" xlink:href="#DejaVuSans-48"/>
      </g>
     </g>
    </g>
    <g id="ytick_4">
     <g id="line2d_10">
      <g>
       <use style="stroke:#000000;stroke-width:0.8;" x="70.7" xlink:href="#mb6a7309946" y="142.562255"/>
      </g>
     </g>
     <g id="text_11">
      <!-- 80 -->
      <defs>
       <path d="M 31.78125 34.625 
Q 24.75 34.625 20.71875 30.859375 
Q 16.703125 27.09375 16.703125 20.515625 
Q 16.703125 13.921875 20.71875 10.15625 
Q 24.75 6.390625 31.78125 6.390625 
Q 38.8125 6.390625 42.859375 10.171875 
Q 46.921875 13.96875 46.921875 20.515625 
Q 46.921875 27.09375 42.890625 30.859375 
Q 38.875 34.625 31.78125 34.625 
z
M 21.921875 38.8125 
Q 15.578125 40.375 12.03125 44.71875 
Q 8.5 49.078125 8.5 55.328125 
Q 8.5 64.0625 14.71875 69.140625 
Q 20.953125 74.21875 31.78125 74.21875 
Q 42.671875 74.21875 48.875 69.140625 
Q 55.078125 64.0625 55.078125 55.328125 
Q 55.078125 49.078125 51.53125 44.71875 
Q 48 40.375 41.703125 38.8125 
Q 48.828125 37.15625 52.796875 32.3125 
Q 56.78125 27.484375 56.78125 20.515625 
Q 56.78125 9.90625 50.3125 4.234375 
Q 43.84375 -1.421875 31.78125 -1.421875 
Q 19.734375 -1.421875 13.25 4.234375 
Q 6.78125 9.90625 6.78125 20.515625 
Q 6.78125 27.484375 10.78125 32.3125 
Q 14.796875 37.15625 21.921875 38.8125 
z
M 18.3125 54.390625 
Q 18.3125 48.734375 21.84375 45.5625 
Q 25.390625 42.390625 31.78125 42.390625 
Q 38.140625 42.390625 41.71875 45.5625 
Q 45.3125 48.734375 45.3125 54.390625 
Q 45.3125 60.0625 41.71875 63.234375 
Q 38.140625 66.40625 31.78125 66.40625 
Q 25.390625 66.40625 21.84375 63.234375 
Q 18.3125 60.0625 18.3125 54.390625 
z
" id="DejaVuSans-56"/>
      </defs>
      <g transform="translate(44.6125 148.261083)scale(0.15 -0.15)">
       <use xlink:href="#DejaVuSans-56"/>
       <use x="63.623047" xlink:href="#DejaVuSans-48"/>
      </g>
     </g>
    </g>
    <g id="ytick_5">
     <g id="line2d_11">
      <g>
       <use style="stroke:#000000;stroke-width:0.8;" x="70.7" xlink:href="#mb6a7309946" y="81.268236"/>
      </g>
     </g>
     <g id="text_12">
      <!-- 100 -->
      <g transform="translate(35.06875 86.967065)scale(0.15 -0.15)">
       <use xlink:href="#DejaVuSans-49"/>
       <use x="63.623047" xlink:href="#DejaVuSans-48"/>
       <use x="127.246094" xlink:href="#DejaVuSans-48"/>
      </g>
     </g>
    </g>
    <g id="text_13">
     <!-- Test Accuracy -->
     <defs>
      <path d="M -0.296875 72.90625 
L 61.375 72.90625 
L 61.375 64.59375 
L 35.5 64.59375 
L 35.5 0 
L 25.59375 0 
L 25.59375 64.59375 
L -0.296875 64.59375 
z
" id="DejaVuSans-84"/>
      <path d="M 56.203125 29.59375 
L 56.203125 25.203125 
L 14.890625 25.203125 
Q 15.484375 15.921875 20.484375 11.0625 
Q 25.484375 6.203125 34.421875 6.203125 
Q 39.59375 6.203125 44.453125 7.46875 
Q 49.3125 8.734375 54.109375 11.28125 
L 54.109375 2.78125 
Q 49.265625 0.734375 44.1875 -0.34375 
Q 39.109375 -1.421875 33.890625 -1.421875 
Q 20.796875 -1.421875 13.15625 6.1875 
Q 5.515625 13.8125 5.515625 26.8125 
Q 5.515625 40.234375 12.765625 48.109375 
Q 20.015625 56 32.328125 56 
Q 43.359375 56 49.78125 48.890625 
Q 56.203125 41.796875 56.203125 29.59375 
z
M 47.21875 32.234375 
Q 47.125 39.59375 43.09375 43.984375 
Q 39.0625 48.390625 32.421875 48.390625 
Q 24.90625 48.390625 20.390625 44.140625 
Q 15.875 39.890625 15.1875 32.171875 
z
" id="DejaVuSans-101"/>
      <path d="M 34.1875 63.1875 
L 20.796875 26.90625 
L 47.609375 26.90625 
z
M 28.609375 72.90625 
L 39.796875 72.90625 
L 67.578125 0 
L 57.328125 0 
L 50.6875 18.703125 
L 17.828125 18.703125 
L 11.1875 0 
L 0.78125 0 
z
" id="DejaVuSans-65"/>
      <path d="M 41.109375 46.296875 
Q 39.59375 47.171875 37.8125 47.578125 
Q 36.03125 48 33.890625 48 
Q 26.265625 48 22.1875 43.046875 
Q 18.109375 38.09375 18.109375 28.8125 
L 18.109375 0 
L 9.078125 0 
L 9.078125 54.6875 
L 18.109375 54.6875 
L 18.109375 46.1875 
Q 20.953125 51.171875 25.484375 53.578125 
Q 30.03125 56 36.53125 56 
Q 37.453125 56 38.578125 55.875 
Q 39.703125 55.765625 41.0625 55.515625 
z
" id="DejaVuSans-114"/>
      <path d="M 32.171875 -5.078125 
Q 28.375 -14.84375 24.75 -17.8125 
Q 21.140625 -20.796875 15.09375 -20.796875 
L 7.90625 -20.796875 
L 7.90625 -13.28125 
L 13.1875 -13.28125 
Q 16.890625 -13.28125 18.9375 -11.515625 
Q 21 -9.765625 23.484375 -3.21875 
L 25.09375 0.875 
L 2.984375 54.6875 
L 12.5 54.6875 
L 29.59375 11.921875 
L 46.6875 54.6875 
L 56.203125 54.6875 
z
" id="DejaVuSans-121"/>
     </defs>
     <g transform="translate(27.949219 267.017859)rotate(-90)scale(0.15 -0.15)">
      <use xlink:href="#DejaVuSans-84"/>
      <use x="44.083984" xlink:href="#DejaVuSans-101"/>
      <use x="105.607422" xlink:href="#DejaVuSans-115"/>
      <use x="157.707031" xlink:href="#DejaVuSans-116"/>
      <use x="196.916016" xlink:href="#DejaVuSans-32"/>
      <use x="228.703125" xlink:href="#DejaVuSans-65"/>
      <use x="295.361328" xlink:href="#DejaVuSans-99"/>
      <use x="350.341797" xlink:href="#DejaVuSans-99"/>
      <use x="405.322266" xlink:href="#DejaVuSans-117"/>
      <use x="468.701172" xlink:href="#DejaVuSans-114"/>
      <use x="509.814453" xlink:href="#DejaVuSans-97"/>
      <use x="571.09375" xlink:href="#DejaVuSans-99"/>
      <use x="626.074219" xlink:href="#DejaVuSans-121"/>
     </g>
    </g>
   </g>
   <g id="line2d_12">
    <path clip-path="url(#p9bcc61d94f)" d="M 92.547727 325.978786 
L 101.465167 258.477779 
L 110.382607 214.951267 
L 119.300046 192.295756 
L 128.217486 150.165817 
L 137.134926 128.596529 
L 146.052365 133.406946 
L 154.969805 129.217228 
L 163.887245 122.156778 
L 172.804685 113.699755 
L 181.722124 114.010105 
L 190.639564 101.984063 
L 199.557004 101.518539 
L 208.474443 98.958156 
L 217.391883 101.363364 
L 226.309323 103.458223 
L 235.226763 93.992564 
L 244.144202 92.673579 
L 253.061642 99.501267 
L 261.979082 97.483996 
L 270.896521 96.397773 
L 279.813961 94.302914 
L 288.731401 92.05288 
L 297.64884 92.285642 
L 306.56628 88.716624 
L 315.48372 91.432181 
L 324.40116 89.026973 
L 333.318599 89.802847 
L 342.236039 88.871798 
L 351.153479 90.88907 
L 360.070918 87.94075 
L 368.988358 88.639036 
L 377.905798 88.173512 
L 386.823237 87.475226 
L 395.740677 88.095925 
L 404.658117 87.552813 
L 413.575557 88.251099 
L 422.492996 87.164876 
L 431.410436 86.46659 
L 440.327876 85.380367 
L 449.245315 86.233828 
L 458.162755 86.311415 
L 467.080195 85.613129 
L 475.997635 85.147605 
L 484.915074 86.311415 
L 493.832514 85.225192 
L 502.749954 85.768304 
L 511.667393 86.233828 
L 520.584833 85.147605 
L 529.502273 85.147605 
" style="fill:none;stroke:#1f77b4;stroke-linecap:square;stroke-width:1.5;"/>
   </g>
   <g id="line2d_13">
    <path clip-path="url(#p9bcc61d94f)" d="M 92.547727 349.487758 
L 101.465167 333.271999 
L 110.382607 278.650494 
L 119.300046 284.081609 
L 128.217486 314.806206 
L 137.134926 208.201166 
L 146.052365 232.951535 
L 154.969805 253.512187 
L 163.887245 217.434062 
L 172.804685 175.459298 
L 181.722124 209.830501 
L 190.639564 178.33003 
L 199.557004 159.243539 
L 208.474443 176.623108 
L 217.391883 191.675057 
L 226.309323 188.028451 
L 235.226763 164.985004 
L 244.144202 152.958962 
L 253.061642 155.752107 
L 261.979082 162.269446 
L 270.896521 160.174587 
L 279.813961 168.476435 
L 288.731401 154.20036 
L 297.64884 148.226133 
L 306.56628 142.484668 
L 315.48372 159.78665 
L 324.40116 153.424486 
L 333.318599 122.622302 
L 342.236039 149.545118 
L 351.153479 151.407215 
L 360.070918 175.924822 
L 368.988358 169.873008 
L 377.905798 162.347033 
L 386.823237 160.562524 
L 395.740677 158.62284 
L 404.658117 149.46753 
L 413.575557 158.467665 
L 422.492996 144.812289 
L 431.410436 125.880971 
L 440.327876 135.579392 
L 449.245315 123.630938 
L 458.162755 109.122101 
L 467.080195 120.91538 
L 475.997635 125.648209 
L 484.915074 143.415716 
L 493.832514 122.777477 
L 502.749954 119.286045 
L 511.667393 126.967195 
L 520.584833 112.458357 
L 529.502273 133.096596 
" style="fill:none;stroke:#ff7f0e;stroke-linecap:square;stroke-width:1.5;"/>
   </g>
   <g id="line2d_14">
    <path clip-path="url(#p9bcc61d94f)" d="M 92.547727 314.030332 
L 101.465167 241.718908 
L 110.382607 215.106441 
L 119.300046 186.942228 
L 128.217486 157.614204 
L 137.134926 130.613801 
L 146.052365 131.389674 
L 154.969805 135.036281 
L 163.887245 125.493035 
L 172.804685 124.018875 
L 181.722124 120.682618 
L 190.639564 116.415313 
L 199.557004 121.22573 
L 208.474443 112.613532 
L 217.391883 113.699755 
L 226.309323 113.389406 
L 235.226763 111.294547 
L 244.144202 108.035877 
L 253.061642 110.053149 
L 261.979082 110.363498 
L 270.896521 108.346227 
L 279.813961 104.777208 
L 288.731401 105.242732 
L 297.64884 105.087558 
L 306.56628 104.777208 
L 315.48372 103.613398 
L 324.40116 106.018606 
L 333.318599 104.466859 
L 342.236039 102.915111 
L 351.153479 101.828888 
L 360.070918 102.837524 
L 368.988358 102.759937 
L 377.905798 102.837524 
L 386.823237 102.372 
L 395.740677 101.751301 
L 404.658117 101.984063 
L 413.575557 102.527175 
L 422.492996 101.984063 
L 431.410436 100.277141 
L 440.327876 102.139238 
L 449.245315 101.363364 
L 458.162755 100.820253 
L 467.080195 100.742665 
L 475.997635 100.742665 
L 484.915074 101.518539 
L 493.832514 101.363364 
L 502.749954 100.509903 
L 511.667393 100.975427 
L 520.584833 100.89784 
L 529.502273 101.053015 
" style="fill:none;stroke:#2ca02c;stroke-linecap:square;stroke-width:1.5;"/>
   </g>
   <g id="line2d_15">
    <path clip-path="url(#p9bcc61d94f)" d="M 92.547727 312.383463 
L 101.465167 265.119645 
L 110.382607 244.941654 
L 119.300046 235.257199 
L 128.217486 223.384548 
L 137.134926 210.200204 
L 146.052365 194.741853 
L 154.969805 185.14321 
L 163.887245 178.615397 
L 172.804685 170.99655 
L 181.722124 163.396092 
L 190.639564 158.835817 
L 199.557004 153.938425 
L 208.474443 150.371113 
L 217.391883 148.569069 
L 226.309323 147.312541 
L 235.226763 143.837171 
L 244.144202 143.346818 
L 253.061642 141.477351 
L 261.979082 140.968611 
L 270.896521 139.773377 
L 279.813961 139.926612 
L 288.731401 138.191991 
L 297.64884 137.560663 
L 306.56628 137.585181 
L 315.48372 137.223546 
L 324.40116 136.328653 
L 333.318599 136.549312 
L 342.236039 136.696417 
L 351.153479 135.985407 
L 360.070918 134.477574 
L 368.988358 134.177233 
L 377.905798 133.601069 
L 386.823237 133.331376 
L 395.740677 132.988129 
L 404.658117 133.098459 
L 413.575557 132.25873 
L 422.492996 132.620365 
L 431.410436 131.707084 
L 440.327876 131.517073 
L 449.245315 130.898003 
L 458.162755 130.885744 
L 467.080195 131.388355 
L 475.997635 130.83058 
L 484.915074 131.161568 
L 493.832514 130.695733 
L 502.749954 130.959297 
L 511.667393 130.787674 
L 520.584833 130.701862 
L 529.502273 129.819229 
" style="fill:none;stroke:#d62728;stroke-linecap:square;stroke-width:1.5;"/>
   </g>
   <g id="patch_3">
    <path d="M 70.7 374.8 
L 70.7 56.448219 
" style="fill:none;stroke:#000000;stroke-linecap:square;stroke-linejoin:miter;stroke-width:0.8;"/>
   </g>
   <g id="patch_4">
    <path d="M 551.35 374.8 
L 551.35 56.448219 
" style="fill:none;stroke:#000000;stroke-linecap:square;stroke-linejoin:miter;stroke-width:0.8;"/>
   </g>
   <g id="patch_5">
    <path d="M 70.7 374.8 
L 551.35 374.8 
" style="fill:none;stroke:#000000;stroke-linecap:square;stroke-linejoin:miter;stroke-width:0.8;"/>
   </g>
   <g id="patch_6">
    <path d="M 70.7 56.448219 
L 551.35 56.448219 
" style="fill:none;stroke:#000000;stroke-linecap:square;stroke-linejoin:miter;stroke-width:0.8;"/>
   </g>
   <g id="legend_1">
    <g id="patch_7">
     <path d="M 61.427344 42.712639 
L 560.622656 42.712639 
Q 563.622656 42.712639 563.622656 39.712639 
L 563.622656 19.195452 
Q 563.622656 16.195452 560.622656 16.195452 
L 61.427344 16.195452 
Q 58.427344 16.195452 58.427344 19.195452 
L 58.427344 39.712639 
Q 58.427344 42.712639 61.427344 42.712639 
z
" style="fill:#ffffff;opacity:0.8;stroke:#cccccc;stroke-linejoin:miter;"/>
    </g>
    <g id="line2d_16">
     <path d="M 64.427344 28.343108 
L 94.427344 28.343108 
" style="fill:none;stroke:#1f77b4;stroke-linecap:square;stroke-width:1.5;"/>
    </g>
    <g id="line2d_17"/>
    <g id="text_14">
     <!-- FedAvg -->
     <defs>
      <path d="M 9.8125 72.90625 
L 51.703125 72.90625 
L 51.703125 64.59375 
L 19.671875 64.59375 
L 19.671875 43.109375 
L 48.578125 43.109375 
L 48.578125 34.8125 
L 19.671875 34.8125 
L 19.671875 0 
L 9.8125 0 
z
" id="DejaVuSans-70"/>
      <path d="M 2.984375 54.6875 
L 12.5 54.6875 
L 29.59375 8.796875 
L 46.6875 54.6875 
L 56.203125 54.6875 
L 35.6875 0 
L 23.484375 0 
z
" id="DejaVuSans-118"/>
      <path d="M 45.40625 27.984375 
Q 45.40625 37.75 41.375 43.109375 
Q 37.359375 48.484375 30.078125 48.484375 
Q 22.859375 48.484375 18.828125 43.109375 
Q 14.796875 37.75 14.796875 27.984375 
Q 14.796875 18.265625 18.828125 12.890625 
Q 22.859375 7.515625 30.078125 7.515625 
Q 37.359375 7.515625 41.375 12.890625 
Q 45.40625 18.265625 45.40625 27.984375 
z
M 54.390625 6.78125 
Q 54.390625 -7.171875 48.1875 -13.984375 
Q 42 -20.796875 29.203125 -20.796875 
Q 24.46875 -20.796875 20.265625 -20.09375 
Q 16.0625 -19.390625 12.109375 -17.921875 
L 12.109375 -9.1875 
Q 16.0625 -11.328125 19.921875 -12.34375 
Q 23.78125 -13.375 27.78125 -13.375 
Q 36.625 -13.375 41.015625 -8.765625 
Q 45.40625 -4.15625 45.40625 5.171875 
L 45.40625 9.625 
Q 42.625 4.78125 38.28125 2.390625 
Q 33.9375 0 27.875 0 
Q 17.828125 0 11.671875 7.65625 
Q 5.515625 15.328125 5.515625 27.984375 
Q 5.515625 40.671875 11.671875 48.328125 
Q 17.828125 56 27.875 56 
Q 33.9375 56 38.28125 53.609375 
Q 42.625 51.21875 45.40625 46.390625 
L 45.40625 54.6875 
L 54.390625 54.6875 
z
" id="DejaVuSans-103"/>
     </defs>
     <g transform="translate(106.427344 33.593108)scale(0.15 -0.15)">
      <use xlink:href="#DejaVuSans-70"/>
      <use x="52.019531" xlink:href="#DejaVuSans-101"/>
      <use x="113.542969" xlink:href="#DejaVuSans-100"/>
      <use x="177.019531" xlink:href="#DejaVuSans-65"/>
      <use x="239.552734" xlink:href="#DejaVuSans-118"/>
      <use x="298.732422" xlink:href="#DejaVuSans-103"/>
     </g>
    </g>
    <g id="line2d_18">
     <path d="M 190.7625 28.343108 
L 220.7625 28.343108 
" style="fill:none;stroke:#ff7f0e;stroke-linecap:square;stroke-width:1.5;"/>
    </g>
    <g id="line2d_19"/>
    <g id="text_15">
     <!-- FedMed -->
     <defs>
      <path d="M 9.8125 72.90625 
L 24.515625 72.90625 
L 43.109375 23.296875 
L 61.8125 72.90625 
L 76.515625 72.90625 
L 76.515625 0 
L 66.890625 0 
L 66.890625 64.015625 
L 48.09375 14.015625 
L 38.1875 14.015625 
L 19.390625 64.015625 
L 19.390625 0 
L 9.8125 0 
z
" id="DejaVuSans-77"/>
     </defs>
     <g transform="translate(232.7625 33.593108)scale(0.15 -0.15)">
      <use xlink:href="#DejaVuSans-70"/>
      <use x="52.019531" xlink:href="#DejaVuSans-101"/>
      <use x="113.542969" xlink:href="#DejaVuSans-100"/>
      <use x="177.019531" xlink:href="#DejaVuSans-77"/>
      <use x="263.298828" xlink:href="#DejaVuSans-101"/>
      <use x="324.822266" xlink:href="#DejaVuSans-100"/>
     </g>
    </g>
    <g id="line2d_20">
     <path d="M 321.011719 28.343108 
L 351.011719 28.343108 
" style="fill:none;stroke:#2ca02c;stroke-linecap:square;stroke-width:1.5;"/>
    </g>
    <g id="line2d_21"/>
    <g id="text_16">
     <!-- FedProx -->
     <defs>
      <path d="M 19.671875 64.796875 
L 19.671875 37.40625 
L 32.078125 37.40625 
Q 38.96875 37.40625 42.71875 40.96875 
Q 46.484375 44.53125 46.484375 51.125 
Q 46.484375 57.671875 42.71875 61.234375 
Q 38.96875 64.796875 32.078125 64.796875 
z
M 9.8125 72.90625 
L 32.078125 72.90625 
Q 44.34375 72.90625 50.609375 67.359375 
Q 56.890625 61.8125 56.890625 51.125 
Q 56.890625 40.328125 50.609375 34.8125 
Q 44.34375 29.296875 32.078125 29.296875 
L 19.671875 29.296875 
L 19.671875 0 
L 9.8125 0 
z
" id="DejaVuSans-80"/>
      <path d="M 54.890625 54.6875 
L 35.109375 28.078125 
L 55.90625 0 
L 45.3125 0 
L 29.390625 21.484375 
L 13.484375 0 
L 2.875 0 
L 24.125 28.609375 
L 4.6875 54.6875 
L 15.28125 54.6875 
L 29.78125 35.203125 
L 44.28125 54.6875 
z
" id="DejaVuSans-120"/>
     </defs>
     <g transform="translate(363.011719 33.593108)scale(0.15 -0.15)">
      <use xlink:href="#DejaVuSans-70"/>
      <use x="52.019531" xlink:href="#DejaVuSans-101"/>
      <use x="113.542969" xlink:href="#DejaVuSans-100"/>
      <use x="177.019531" xlink:href="#DejaVuSans-80"/>
      <use x="235.572266" xlink:href="#DejaVuSans-114"/>
      <use x="274.435547" xlink:href="#DejaVuSans-111"/>
      <use x="332.492188" xlink:href="#DejaVuSans-120"/>
     </g>
    </g>
    <g id="line2d_22">
     <path d="M 451.764844 28.343108 
L 481.764844 28.343108 
" style="fill:none;stroke:#d62728;stroke-linecap:square;stroke-width:1.5;"/>
    </g>
    <g id="line2d_23"/>
    <g id="text_17">
     <!-- qFedAvg -->
     <defs>
      <path d="M 14.796875 27.296875 
Q 14.796875 17.390625 18.875 11.75 
Q 22.953125 6.109375 30.078125 6.109375 
Q 37.203125 6.109375 41.296875 11.75 
Q 45.40625 17.390625 45.40625 27.296875 
Q 45.40625 37.203125 41.296875 42.84375 
Q 37.203125 48.484375 30.078125 48.484375 
Q 22.953125 48.484375 18.875 42.84375 
Q 14.796875 37.203125 14.796875 27.296875 
z
M 45.40625 8.203125 
Q 42.578125 3.328125 38.25 0.953125 
Q 33.9375 -1.421875 27.875 -1.421875 
Q 17.96875 -1.421875 11.734375 6.484375 
Q 5.515625 14.40625 5.515625 27.296875 
Q 5.515625 40.1875 11.734375 48.09375 
Q 17.96875 56 27.875 56 
Q 33.9375 56 38.25 53.625 
Q 42.578125 51.265625 45.40625 46.390625 
L 45.40625 54.6875 
L 54.390625 54.6875 
L 54.390625 -20.796875 
L 45.40625 -20.796875 
z
" id="DejaVuSans-113"/>
     </defs>
     <g transform="translate(493.764844 33.593108)scale(0.15 -0.15)">
      <use xlink:href="#DejaVuSans-113"/>
      <use x="63.476562" xlink:href="#DejaVuSans-70"/>
      <use x="115.496094" xlink:href="#DejaVuSans-101"/>
      <use x="177.019531" xlink:href="#DejaVuSans-100"/>
      <use x="240.496094" xlink:href="#DejaVuSans-65"/>
      <use x="303.029297" xlink:href="#DejaVuSans-118"/>
      <use x="362.208984" xlink:href="#DejaVuSans-103"/>
     </g>
    </g>
   </g>
  </g>
 </g>
 <defs>
  <clipPath id="p9bcc61d94f">
   <rect height="318.351781" width="480.65" x="70.7" y="56.448219"/>
  </clipPath>
 </defs>
</svg>
