<?xml version="1.0" encoding="utf-8" standalone="no"?>
<!DOCTYPE svg PUBLIC "-//W3C//DTD SVG 1.1//EN"
  "http://www.w3.org/Graphics/SVG/1.1/DTD/svg11.dtd">
<!-- Created with matplotlib (https://matplotlib.org/) -->
<svg height="432pt" version="1.1" viewBox="0 0 576 432" width="576pt" xmlns="http://www.w3.org/2000/svg" xmlns:xlink="http://www.w3.org/1999/xlink">
 <defs>
  <style type="text/css">
*{stroke-linecap:butt;stroke-linejoin:round;}
  </style>
 </defs>
 <g id="figure_1">
  <g id="patch_1">
   <path d="M 0 432 
L 576 432 
L 576 0 
L 0 0 
z
" style="fill:#ffffff;"/>
  </g>
  <g id="axes_1">
   <g id="patch_2">
    <path d="M 70.7 374.8 
L 551.35 374.8 
L 551.35 56.448219 
L 70.7 56.448219 
z
" style="fill:#ffffff;"/>
   </g>
   <g id="PolyCollection_1">
    <path clip-path="url(#pd6e067b363)" d="M 92.547727 300.970821 
L 92.547727 327.749298 
L 101.465167 280.508748 
L 110.382607 212.827366 
L 119.300046 201.147156 
L 128.217486 158.675156 
L 137.134926 131.491848 
L 146.052365 128.445501 
L 154.969805 138.223579 
L 163.887245 122.131833 
L 172.804685 122.54041 
L 181.722124 117.944304 
L 190.639564 96.342669 
L 199.557004 91.907248 
L 208.474443 90.46645 
L 217.391883 93.844241 
L 226.309323 93.725938 
L 235.226763 83.016871 
L 244.144202 81.418301 
L 253.061642 94.585086 
L 261.979082 95.049184 
L 270.896521 91.833353 
L 279.813961 84.359308 
L 288.731401 80.255656 
L 297.64884 81.111041 
L 306.56628 78.212728 
L 315.48372 83.070654 
L 324.40116 82.063977 
L 333.318599 83.887932 
L 342.236039 79.239406 
L 351.153479 87.062759 
L 360.070918 78.918336 
L 368.988358 76.735965 
L 377.905798 78.611777 
L 386.823237 76.56258 
L 395.740677 76.010276 
L 404.658117 75.011043 
L 413.575557 77.115266 
L 422.492996 78.379505 
L 431.410436 76.83963 
L 440.327876 73.503101 
L 449.245315 74.437158 
L 458.162755 75.293629 
L 467.080195 75.027252 
L 475.997635 75.578145 
L 484.915074 74.437158 
L 493.832514 75.126959 
L 502.749954 73.541246 
L 511.667393 76.037137 
L 520.584833 73.612812 
L 529.502273 73.726214 
L 529.502273 71.178139 
L 529.502273 71.178139 
L 520.584833 71.769305 
L 511.667393 72.370819 
L 502.749954 71.840871 
L 493.832514 71.847704 
L 484.915074 72.218997 
L 475.997635 70.918754 
L 467.080195 71.947412 
L 458.162755 72.795817 
L 449.245315 72.218997 
L 440.327876 71.879016 
L 431.410436 72.04609 
L 422.492996 72.895036 
L 413.575557 72.248218 
L 404.658117 73.237658 
L 395.740677 73.512463 
L 386.823237 74.074942 
L 377.905798 72.981273 
L 368.988358 75.175594 
L 360.070918 73.470987 
L 351.153479 73.289299 
L 342.236039 72.512898 
L 333.318599 71.686486 
L 324.40116 73.032677 
L 315.48372 76.485131 
L 306.56628 74.017341 
L 297.64884 75.25965 
L 288.731401 75.159506 
L 279.813961 75.99275 
L 270.896521 72.818582 
L 261.979082 73.265609 
L 253.061642 76.437037 
L 244.144202 78.455993 
L 235.226763 78.609225 
L 226.309323 77.933203 
L 217.391883 80.362976 
L 208.474443 76.73356 
L 199.557004 78.95562 
L 190.639564 82.482934 
L 181.722124 83.813975 
L 172.804685 83.99551 
L 163.887245 89.659492 
L 154.969805 97.933715 
L 146.052365 111.852415 
L 137.134926 105.780228 
L 128.217486 132.265753 
L 119.300046 159.069546 
L 110.382607 176.373691 
L 101.465167 184.975308 
L 92.547727 300.970821 
z
" style="fill:#1f77b4;fill-opacity:0.5;"/>
   </g>
   <g id="PolyCollection_2">
    <path clip-path="url(#pd6e067b363)" d="M 92.547727 333.048061 
L 92.547727 360.329464 
L 101.465167 339.821028 
L 110.382607 315.243146 
L 119.300046 319.533712 
L 128.217486 326.542521 
L 137.134926 233.594361 
L 146.052365 275.847263 
L 154.969805 292.382408 
L 163.887245 278.966882 
L 172.804685 232.774381 
L 181.722124 257.462609 
L 190.639564 206.152487 
L 199.557004 185.663176 
L 208.474443 197.74768 
L 217.391883 222.002125 
L 226.309323 227.370992 
L 235.226763 205.296829 
L 244.144202 164.966308 
L 253.061642 169.515409 
L 261.979082 176.988025 
L 270.896521 168.604731 
L 279.813961 174.279843 
L 288.731401 167.093495 
L 297.64884 172.551217 
L 306.56628 164.026386 
L 315.48372 196.521663 
L 324.40116 211.022047 
L 333.318599 138.645007 
L 342.236039 175.707322 
L 351.153479 206.060054 
L 360.070918 244.561567 
L 368.988358 242.439864 
L 377.905798 207.865292 
L 386.823237 174.828218 
L 395.740677 181.590969 
L 404.658117 184.642915 
L 413.575557 188.616766 
L 422.492996 154.002875 
L 431.410436 130.808651 
L 440.327876 147.731382 
L 449.245315 129.316162 
L 458.162755 99.242308 
L 467.080195 130.983219 
L 475.997635 131.114923 
L 484.915074 145.081812 
L 493.832514 122.14438 
L 502.749954 127.847736 
L 511.667393 142.219725 
L 520.584833 122.670009 
L 529.502273 145.609353 
L 529.502273 88.318375 
L 529.502273 88.318375 
L 520.584833 86.095477 
L 511.667393 101.422539 
L 502.749954 103.850426 
L 493.832514 108.757509 
L 484.915074 110.3453 
L 475.997635 89.913175 
L 467.080195 84.789473 
L 458.162755 87.546029 
L 449.245315 100.311689 
L 440.327876 86.037091 
L 431.410436 100.252492 
L 422.492996 101.902001 
L 413.575557 88.468985 
L 404.658117 98.494514 
L 395.740677 136.423238 
L 386.823237 122.801388 
L 377.905798 111.263698 
L 368.988358 98.188511 
L 360.070918 83.326431 
L 351.153479 80.421724 
L 342.236039 91.186128 
L 333.318599 85.09042 
L 324.40116 71.956127 
L 315.48372 121.014781 
L 306.56628 99.68197 
L 297.64884 106.286335 
L 288.731401 110.310765 
L 279.813961 122.23498 
L 270.896521 109.118039 
L 261.979082 112.997356 
L 253.061642 118.877424 
L 244.144202 115.623045 
L 235.226763 99.658494 
L 226.309323 131.253163 
L 217.391883 134.551719 
L 208.474443 137.625289 
L 199.557004 120.247674 
L 190.639564 146.897754 
L 181.722124 147.663917 
L 172.804685 108.491012 
L 163.887245 140.492566 
L 154.969805 191.734448 
L 146.052365 185.81468 
L 137.134926 172.009929 
L 128.217486 265.867527 
L 119.300046 230.036823 
L 110.382607 217.287137 
L 101.465167 291.765676 
L 92.547727 333.048061 
z
" style="fill:#ff7f0e;fill-opacity:0.5;"/>
   </g>
   <g id="PolyCollection_3">
    <path clip-path="url(#pd6e067b363)" d="M 92.547727 264.271159 
L 92.547727 293.102857 
L 101.465167 293.495977 
L 110.382607 218.536136 
L 119.300046 168.137451 
L 128.217486 174.353193 
L 137.134926 142.759726 
L 146.052365 132.601071 
L 154.969805 128.181654 
L 163.887245 125.110188 
L 172.804685 101.740732 
L 181.722124 100.09729 
L 190.639564 102.056365 
L 199.557004 93.509014 
L 208.474443 87.512998 
L 217.391883 86.154555 
L 226.309323 89.129363 
L 235.226763 85.136711 
L 244.144202 88.761079 
L 253.061642 88.413739 
L 261.979082 84.880068 
L 270.896521 86.294033 
L 279.813961 86.517019 
L 288.731401 85.932268 
L 297.64884 84.880553 
L 306.56628 83.42799 
L 315.48372 84.533533 
L 324.40116 95.508604 
L 333.318599 83.838002 
L 342.236039 82.881263 
L 351.153479 83.71496 
L 360.070918 83.403488 
L 368.988358 83.331162 
L 377.905798 83.646309 
L 386.823237 83.118866 
L 395.740677 83.525153 
L 404.658117 83.734397 
L 413.575557 83.386894 
L 422.492996 83.64509 
L 431.410436 82.649987 
L 440.327876 82.332185 
L 449.245315 82.663368 
L 458.162755 82.889428 
L 467.080195 83.301025 
L 475.997635 83.719287 
L 484.915074 83.848998 
L 493.832514 83.40207 
L 502.749954 83.256321 
L 511.667393 82.613144 
L 520.584833 82.755249 
L 529.502273 82.409006 
L 529.502273 71.254355 
L 529.502273 71.254355 
L 520.584833 72.341404 
L 511.667393 72.324255 
L 502.749954 72.955115 
L 493.832514 73.60564 
L 484.915074 74.432749 
L 475.997635 73.766187 
L 467.080195 73.86594 
L 458.162755 73.481263 
L 449.245315 72.911049 
L 440.327876 72.12745 
L 431.410436 72.287412 
L 422.492996 74.318148 
L 413.575557 74.257835 
L 404.658117 75.343624 
L 395.740677 75.552868 
L 386.823237 73.729589 
L 377.905798 76.06873 
L 368.988358 74.472821 
L 360.070918 74.081986 
L 351.153479 74.885296 
L 342.236039 73.807937 
L 333.318599 76.673311 
L 324.40116 78.220849 
L 315.48372 76.774053 
L 306.56628 75.490776 
L 297.64884 76.108524 
L 288.731401 79.038176 
L 279.813961 78.29417 
L 270.896521 80.587468 
L 261.979082 79.612612 
L 253.061642 81.175092 
L 244.144202 82.738808 
L 235.226763 79.515224 
L 226.309323 80.777977 
L 217.391883 79.293653 
L 208.474443 79.049993 
L 199.557004 82.131495 
L 190.639564 84.731972 
L 181.722124 85.576265 
L 172.804685 89.347483 
L 163.887245 97.98822 
L 154.969805 95.394519 
L 146.052365 97.982308 
L 137.134926 90.530983 
L 128.217486 113.243367 
L 119.300046 132.199485 
L 110.382607 192.005049 
L 101.465167 252.889464 
L 92.547727 264.271159 
z
" style="fill:#2ca02c;fill-opacity:0.5;"/>
   </g>
   <g id="PolyCollection_4">
    <path clip-path="url(#pd6e067b363)" d="M 92.547727 300.990099 
L 92.547727 334.419513 
L 101.465167 310.034838 
L 110.382607 289.396949 
L 119.300046 275.991115 
L 128.217486 271.778737 
L 137.134926 266.574951 
L 146.052365 260.200534 
L 154.969805 251.671451 
L 163.887245 246.588616 
L 172.804685 241.029154 
L 181.722124 236.967202 
L 190.639564 233.954384 
L 199.557004 230.084016 
L 208.474443 226.505242 
L 217.391883 222.359753 
L 226.309323 217.081566 
L 235.226763 211.162816 
L 244.144202 205.147242 
L 253.061642 199.67804 
L 261.979082 194.072711 
L 270.896521 188.411072 
L 279.813961 184.104981 
L 288.731401 179.625285 
L 297.64884 176.581884 
L 306.56628 173.622846 
L 315.48372 170.250222 
L 324.40116 168.020111 
L 333.318599 165.026354 
L 342.236039 162.612627 
L 351.153479 159.614696 
L 360.070918 157.824785 
L 368.988358 156.338318 
L 377.905798 155.146825 
L 386.823237 153.488793 
L 395.740677 153.268629 
L 404.658117 152.281519 
L 413.575557 151.182215 
L 422.492996 149.898057 
L 431.410436 149.161864 
L 440.327876 148.664718 
L 449.245315 147.718944 
L 458.162755 146.077764 
L 467.080195 145.304743 
L 475.997635 144.878109 
L 484.915074 144.036054 
L 493.832514 143.056432 
L 502.749954 142.969261 
L 511.667393 142.530929 
L 520.584833 141.653814 
L 529.502273 141.310921 
L 529.502273 125.522171 
L 529.502273 125.522171 
L 520.584833 126.248674 
L 511.667393 126.491278 
L 502.749954 126.971368 
L 493.832514 127.513253 
L 484.915074 128.835977 
L 475.997635 129.679792 
L 467.080195 130.51127 
L 458.162755 131.122172 
L 449.245315 131.972054 
L 440.327876 134.070911 
L 431.410436 135.070919 
L 422.492996 137.001923 
L 413.575557 138.007529 
L 404.658117 139.047016 
L 395.740677 140.538387 
L 386.823237 140.62017 
L 377.905798 142.962934 
L 368.988358 144.249922 
L 360.070918 145.506139 
L 351.153479 146.584724 
L 342.236039 148.71989 
L 333.318599 151.124733 
L 324.40116 152.609855 
L 315.48372 153.864714 
L 306.56628 156.291987 
L 297.64884 159.548022 
L 288.731401 161.486746 
L 279.813961 163.511489 
L 270.896521 165.52112 
L 261.979082 168.70401 
L 253.061642 171.72933 
L 244.144202 175.456927 
L 235.226763 179.040748 
L 226.309323 182.759138 
L 217.391883 185.293827 
L 208.474443 189.602851 
L 199.557004 193.082086 
L 190.639564 196.76039 
L 181.722124 200.189106 
L 172.804685 203.612921 
L 163.887245 206.784757 
L 154.969805 211.703913 
L 146.052365 216.561143 
L 137.134926 223.925311 
L 128.217486 228.157365 
L 119.300046 241.634043 
L 110.382607 254.61082 
L 101.465167 272.672459 
L 92.547727 300.990099 
z
" style="fill:#d62728;fill-opacity:0.5;"/>
   </g>
   <g id="matplotlib.axis_1">
    <g id="xtick_1">
     <g id="line2d_1">
      <defs>
       <path d="M 0 0 
L 0 3.5 
" id="ma715da8a56" style="stroke:#000000;stroke-width:0.8;"/>
      </defs>
      <g>
       <use style="stroke:#000000;stroke-width:0.8;" x="92.547727" xlink:href="#ma715da8a56" y="374.8"/>
      </g>
     </g>
     <g id="text_1">
      <!-- 0 -->
      <defs>
       <path d="M 31.78125 66.40625 
Q 24.171875 66.40625 20.328125 58.90625 
Q 16.5 51.421875 16.5 36.375 
Q 16.5 21.390625 20.328125 13.890625 
Q 24.171875 6.390625 31.78125 6.390625 
Q 39.453125 6.390625 43.28125 13.890625 
Q 47.125 21.390625 47.125 36.375 
Q 47.125 51.421875 43.28125 58.90625 
Q 39.453125 66.40625 31.78125 66.40625 
z
M 31.78125 74.21875 
Q 44.046875 74.21875 50.515625 64.515625 
Q 56.984375 54.828125 56.984375 36.375 
Q 56.984375 17.96875 50.515625 8.265625 
Q 44.046875 -1.421875 31.78125 -1.421875 
Q 19.53125 -1.421875 13.0625 8.265625 
Q 6.59375 17.96875 6.59375 36.375 
Q 6.59375 54.828125 13.0625 64.515625 
Q 19.53125 74.21875 31.78125 74.21875 
z
" id="DejaVuSans-48"/>
      </defs>
      <g transform="translate(87.775852 393.197656)scale(0.15 -0.15)">
       <use xlink:href="#DejaVuSans-48"/>
      </g>
     </g>
    </g>
    <g id="xtick_2">
     <g id="line2d_2">
      <g>
       <use style="stroke:#000000;stroke-width:0.8;" x="181.722124" xlink:href="#ma715da8a56" y="374.8"/>
      </g>
     </g>
     <g id="text_2">
      <!-- 10 -->
      <defs>
       <path d="M 12.40625 8.296875 
L 28.515625 8.296875 
L 28.515625 63.921875 
L 10.984375 60.40625 
L 10.984375 69.390625 
L 28.421875 72.90625 
L 38.28125 72.90625 
L 38.28125 8.296875 
L 54.390625 8.296875 
L 54.390625 0 
L 12.40625 0 
z
" id="DejaVuSans-49"/>
      </defs>
      <g transform="translate(172.178374 393.197656)scale(0.15 -0.15)">
       <use xlink:href="#DejaVuSans-49"/>
       <use x="63.623047" xlink:href="#DejaVuSans-48"/>
      </g>
     </g>
    </g>
    <g id="xtick_3">
     <g id="line2d_3">
      <g>
       <use style="stroke:#000000;stroke-width:0.8;" x="270.896521" xlink:href="#ma715da8a56" y="374.8"/>
      </g>
     </g>
     <g id="text_3">
      <!-- 20 -->
      <defs>
       <path d="M 19.1875 8.296875 
L 53.609375 8.296875 
L 53.609375 0 
L 7.328125 0 
L 7.328125 8.296875 
Q 12.9375 14.109375 22.625 23.890625 
Q 32.328125 33.6875 34.8125 36.53125 
Q 39.546875 41.84375 41.421875 45.53125 
Q 43.3125 49.21875 43.3125 52.78125 
Q 43.3125 58.59375 39.234375 62.25 
Q 35.15625 65.921875 28.609375 65.921875 
Q 23.96875 65.921875 18.8125 64.3125 
Q 13.671875 62.703125 7.8125 59.421875 
L 7.8125 69.390625 
Q 13.765625 71.78125 18.9375 73 
Q 24.125 74.21875 28.421875 74.21875 
Q 39.75 74.21875 46.484375 68.546875 
Q 53.21875 62.890625 53.21875 53.421875 
Q 53.21875 48.921875 51.53125 44.890625 
Q 49.859375 40.875 45.40625 35.40625 
Q 44.1875 33.984375 37.640625 27.21875 
Q 31.109375 20.453125 19.1875 8.296875 
z
" id="DejaVuSans-50"/>
      </defs>
      <g transform="translate(261.352771 393.197656)scale(0.15 -0.15)">
       <use xlink:href="#DejaVuSans-50"/>
       <use x="63.623047" xlink:href="#DejaVuSans-48"/>
      </g>
     </g>
    </g>
    <g id="xtick_4">
     <g id="line2d_4">
      <g>
       <use style="stroke:#000000;stroke-width:0.8;" x="360.070918" xlink:href="#ma715da8a56" y="374.8"/>
      </g>
     </g>
     <g id="text_4">
      <!-- 30 -->
      <defs>
       <path d="M 40.578125 39.3125 
Q 47.65625 37.796875 51.625 33 
Q 55.609375 28.21875 55.609375 21.1875 
Q 55.609375 10.40625 48.1875 4.484375 
Q 40.765625 -1.421875 27.09375 -1.421875 
Q 22.515625 -1.421875 17.65625 -0.515625 
Q 12.796875 0.390625 7.625 2.203125 
L 7.625 11.71875 
Q 11.71875 9.328125 16.59375 8.109375 
Q 21.484375 6.890625 26.8125 6.890625 
Q 36.078125 6.890625 40.9375 10.546875 
Q 45.796875 14.203125 45.796875 21.1875 
Q 45.796875 27.640625 41.28125 31.265625 
Q 36.765625 34.90625 28.71875 34.90625 
L 20.21875 34.90625 
L 20.21875 43.015625 
L 29.109375 43.015625 
Q 36.375 43.015625 40.234375 45.921875 
Q 44.09375 48.828125 44.09375 54.296875 
Q 44.09375 59.90625 40.109375 62.90625 
Q 36.140625 65.921875 28.71875 65.921875 
Q 24.65625 65.921875 20.015625 65.03125 
Q 15.375 64.15625 9.8125 62.3125 
L 9.8125 71.09375 
Q 15.4375 72.65625 20.34375 73.4375 
Q 25.25 74.21875 29.59375 74.21875 
Q 40.828125 74.21875 47.359375 69.109375 
Q 53.90625 64.015625 53.90625 55.328125 
Q 53.90625 49.265625 50.4375 45.09375 
Q 46.96875 40.921875 40.578125 39.3125 
z
" id="DejaVuSans-51"/>
      </defs>
      <g transform="translate(350.527168 393.197656)scale(0.15 -0.15)">
       <use xlink:href="#DejaVuSans-51"/>
       <use x="63.623047" xlink:href="#DejaVuSans-48"/>
      </g>
     </g>
    </g>
    <g id="xtick_5">
     <g id="line2d_5">
      <g>
       <use style="stroke:#000000;stroke-width:0.8;" x="449.245315" xlink:href="#ma715da8a56" y="374.8"/>
      </g>
     </g>
     <g id="text_5">
      <!-- 40 -->
      <defs>
       <path d="M 37.796875 64.3125 
L 12.890625 25.390625 
L 37.796875 25.390625 
z
M 35.203125 72.90625 
L 47.609375 72.90625 
L 47.609375 25.390625 
L 58.015625 25.390625 
L 58.015625 17.1875 
L 47.609375 17.1875 
L 47.609375 0 
L 37.796875 0 
L 37.796875 17.1875 
L 4.890625 17.1875 
L 4.890625 26.703125 
z
" id="DejaVuSans-52"/>
      </defs>
      <g transform="translate(439.701565 393.197656)scale(0.15 -0.15)">
       <use xlink:href="#DejaVuSans-52"/>
       <use x="63.623047" xlink:href="#DejaVuSans-48"/>
      </g>
     </g>
    </g>
    <g id="xtick_6">
     <g id="line2d_6">
      <g>
       <use style="stroke:#000000;stroke-width:0.8;" x="538.419712" xlink:href="#ma715da8a56" y="374.8"/>
      </g>
     </g>
     <g id="text_6">
      <!-- 50 -->
      <defs>
       <path d="M 10.796875 72.90625 
L 49.515625 72.90625 
L 49.515625 64.59375 
L 19.828125 64.59375 
L 19.828125 46.734375 
Q 21.96875 47.46875 24.109375 47.828125 
Q 26.265625 48.1875 28.421875 48.1875 
Q 40.625 48.1875 47.75 41.5 
Q 54.890625 34.8125 54.890625 23.390625 
Q 54.890625 11.625 47.5625 5.09375 
Q 40.234375 -1.421875 26.90625 -1.421875 
Q 22.3125 -1.421875 17.546875 -0.640625 
Q 12.796875 0.140625 7.71875 1.703125 
L 7.71875 11.625 
Q 12.109375 9.234375 16.796875 8.0625 
Q 21.484375 6.890625 26.703125 6.890625 
Q 35.15625 6.890625 40.078125 11.328125 
Q 45.015625 15.765625 45.015625 23.390625 
Q 45.015625 31 40.078125 35.4375 
Q 35.15625 39.890625 26.703125 39.890625 
Q 22.75 39.890625 18.8125 39.015625 
Q 14.890625 38.140625 10.796875 36.28125 
z
" id="DejaVuSans-53"/>
      </defs>
      <g transform="translate(528.875962 393.197656)scale(0.15 -0.15)">
       <use xlink:href="#DejaVuSans-53"/>
       <use x="63.623047" xlink:href="#DejaVuSans-48"/>
      </g>
     </g>
    </g>
    <g id="text_7">
     <!-- Global Communication Rounds -->
     <defs>
      <path d="M 59.515625 10.40625 
L 59.515625 29.984375 
L 43.40625 29.984375 
L 43.40625 38.09375 
L 69.28125 38.09375 
L 69.28125 6.78125 
Q 63.578125 2.734375 56.6875 0.65625 
Q 49.8125 -1.421875 42 -1.421875 
Q 24.90625 -1.421875 15.25 8.5625 
Q 5.609375 18.5625 5.609375 36.375 
Q 5.609375 54.25 15.25 64.234375 
Q 24.90625 74.21875 42 74.21875 
Q 49.125 74.21875 55.546875 72.453125 
Q 61.96875 70.703125 67.390625 67.28125 
L 67.390625 56.78125 
Q 61.921875 61.421875 55.765625 63.765625 
Q 49.609375 66.109375 42.828125 66.109375 
Q 29.4375 66.109375 22.71875 58.640625 
Q 16.015625 51.171875 16.015625 36.375 
Q 16.015625 21.625 22.71875 14.15625 
Q 29.4375 6.6875 42.828125 6.6875 
Q 48.046875 6.6875 52.140625 7.59375 
Q 56.25 8.5 59.515625 10.40625 
z
" id="DejaVuSans-71"/>
      <path d="M 9.421875 75.984375 
L 18.40625 75.984375 
L 18.40625 0 
L 9.421875 0 
z
" id="DejaVuSans-108"/>
      <path d="M 30.609375 48.390625 
Q 23.390625 48.390625 19.1875 42.75 
Q 14.984375 37.109375 14.984375 27.296875 
Q 14.984375 17.484375 19.15625 11.84375 
Q 23.34375 6.203125 30.609375 6.203125 
Q 37.796875 6.203125 41.984375 11.859375 
Q 46.1875 17.53125 46.1875 27.296875 
Q 46.1875 37.015625 41.984375 42.703125 
Q 37.796875 48.390625 30.609375 48.390625 
z
M 30.609375 56 
Q 42.328125 56 49.015625 48.375 
Q 55.71875 40.765625 55.71875 27.296875 
Q 55.71875 13.875 49.015625 6.21875 
Q 42.328125 -1.421875 30.609375 -1.421875 
Q 18.84375 -1.421875 12.171875 6.21875 
Q 5.515625 13.875 5.515625 27.296875 
Q 5.515625 40.765625 12.171875 48.375 
Q 18.84375 56 30.609375 56 
z
" id="DejaVuSans-111"/>
      <path d="M 48.6875 27.296875 
Q 48.6875 37.203125 44.609375 42.84375 
Q 40.53125 48.484375 33.40625 48.484375 
Q 26.265625 48.484375 22.1875 42.84375 
Q 18.109375 37.203125 18.109375 27.296875 
Q 18.109375 17.390625 22.1875 11.75 
Q 26.265625 6.109375 33.40625 6.109375 
Q 40.53125 6.109375 44.609375 11.75 
Q 48.6875 17.390625 48.6875 27.296875 
z
M 18.109375 46.390625 
Q 20.953125 51.265625 25.265625 53.625 
Q 29.59375 56 35.59375 56 
Q 45.5625 56 51.78125 48.09375 
Q 58.015625 40.1875 58.015625 27.296875 
Q 58.015625 14.40625 51.78125 6.484375 
Q 45.5625 -1.421875 35.59375 -1.421875 
Q 29.59375 -1.421875 25.265625 0.953125 
Q 20.953125 3.328125 18.109375 8.203125 
L 18.109375 0 
L 9.078125 0 
L 9.078125 75.984375 
L 18.109375 75.984375 
z
" id="DejaVuSans-98"/>
      <path d="M 34.28125 27.484375 
Q 23.390625 27.484375 19.1875 25 
Q 14.984375 22.515625 14.984375 16.5 
Q 14.984375 11.71875 18.140625 8.90625 
Q 21.296875 6.109375 26.703125 6.109375 
Q 34.1875 6.109375 38.703125 11.40625 
Q 43.21875 16.703125 43.21875 25.484375 
L 43.21875 27.484375 
z
M 52.203125 31.203125 
L 52.203125 0 
L 43.21875 0 
L 43.21875 8.296875 
Q 40.140625 3.328125 35.546875 0.953125 
Q 30.953125 -1.421875 24.3125 -1.421875 
Q 15.921875 -1.421875 10.953125 3.296875 
Q 6 8.015625 6 15.921875 
Q 6 25.140625 12.171875 29.828125 
Q 18.359375 34.515625 30.609375 34.515625 
L 43.21875 34.515625 
L 43.21875 35.40625 
Q 43.21875 41.609375 39.140625 45 
Q 35.0625 48.390625 27.6875 48.390625 
Q 23 48.390625 18.546875 47.265625 
Q 14.109375 46.140625 10.015625 43.890625 
L 10.015625 52.203125 
Q 14.9375 54.109375 19.578125 55.046875 
Q 24.21875 56 28.609375 56 
Q 40.484375 56 46.34375 49.84375 
Q 52.203125 43.703125 52.203125 31.203125 
z
" id="DejaVuSans-97"/>
      <path id="DejaVuSans-32"/>
      <path d="M 64.40625 67.28125 
L 64.40625 56.890625 
Q 59.421875 61.53125 53.78125 63.8125 
Q 48.140625 66.109375 41.796875 66.109375 
Q 29.296875 66.109375 22.65625 58.46875 
Q 16.015625 50.828125 16.015625 36.375 
Q 16.015625 21.96875 22.65625 14.328125 
Q 29.296875 6.6875 41.796875 6.6875 
Q 48.140625 6.6875 53.78125 8.984375 
Q 59.421875 11.28125 64.40625 15.921875 
L 64.40625 5.609375 
Q 59.234375 2.09375 53.4375 0.328125 
Q 47.65625 -1.421875 41.21875 -1.421875 
Q 24.65625 -1.421875 15.125 8.703125 
Q 5.609375 18.84375 5.609375 36.375 
Q 5.609375 53.953125 15.125 64.078125 
Q 24.65625 74.21875 41.21875 74.21875 
Q 47.75 74.21875 53.53125 72.484375 
Q 59.328125 70.75 64.40625 67.28125 
z
" id="DejaVuSans-67"/>
      <path d="M 52 44.1875 
Q 55.375 50.25 60.0625 53.125 
Q 64.75 56 71.09375 56 
Q 79.640625 56 84.28125 50.015625 
Q 88.921875 44.046875 88.921875 33.015625 
L 88.921875 0 
L 79.890625 0 
L 79.890625 32.71875 
Q 79.890625 40.578125 77.09375 44.375 
Q 74.3125 48.1875 68.609375 48.1875 
Q 61.625 48.1875 57.5625 43.546875 
Q 53.515625 38.921875 53.515625 30.90625 
L 53.515625 0 
L 44.484375 0 
L 44.484375 32.71875 
Q 44.484375 40.625 41.703125 44.40625 
Q 38.921875 48.1875 33.109375 48.1875 
Q 26.21875 48.1875 22.15625 43.53125 
Q 18.109375 38.875 18.109375 30.90625 
L 18.109375 0 
L 9.078125 0 
L 9.078125 54.6875 
L 18.109375 54.6875 
L 18.109375 46.1875 
Q 21.1875 51.21875 25.484375 53.609375 
Q 29.78125 56 35.6875 56 
Q 41.65625 56 45.828125 52.96875 
Q 50 49.953125 52 44.1875 
z
" id="DejaVuSans-109"/>
      <path d="M 8.5 21.578125 
L 8.5 54.6875 
L 17.484375 54.6875 
L 17.484375 21.921875 
Q 17.484375 14.15625 20.5 10.265625 
Q 23.53125 6.390625 29.59375 6.390625 
Q 36.859375 6.390625 41.078125 11.03125 
Q 45.3125 15.671875 45.3125 23.6875 
L 45.3125 54.6875 
L 54.296875 54.6875 
L 54.296875 0 
L 45.3125 0 
L 45.3125 8.40625 
Q 42.046875 3.421875 37.71875 1 
Q 33.40625 -1.421875 27.6875 -1.421875 
Q 18.265625 -1.421875 13.375 4.4375 
Q 8.5 10.296875 8.5 21.578125 
z
M 31.109375 56 
z
" id="DejaVuSans-117"/>
      <path d="M 54.890625 33.015625 
L 54.890625 0 
L 45.90625 0 
L 45.90625 32.71875 
Q 45.90625 40.484375 42.875 44.328125 
Q 39.84375 48.1875 33.796875 48.1875 
Q 26.515625 48.1875 22.3125 43.546875 
Q 18.109375 38.921875 18.109375 30.90625 
L 18.109375 0 
L 9.078125 0 
L 9.078125 54.6875 
L 18.109375 54.6875 
L 18.109375 46.1875 
Q 21.34375 51.125 25.703125 53.5625 
Q 30.078125 56 35.796875 56 
Q 45.21875 56 50.046875 50.171875 
Q 54.890625 44.34375 54.890625 33.015625 
z
" id="DejaVuSans-110"/>
      <path d="M 9.421875 54.6875 
L 18.40625 54.6875 
L 18.40625 0 
L 9.421875 0 
z
M 9.421875 75.984375 
L 18.40625 75.984375 
L 18.40625 64.59375 
L 9.421875 64.59375 
z
" id="DejaVuSans-105"/>
      <path d="M 48.78125 52.59375 
L 48.78125 44.1875 
Q 44.96875 46.296875 41.140625 47.34375 
Q 37.3125 48.390625 33.40625 48.390625 
Q 24.65625 48.390625 19.8125 42.84375 
Q 14.984375 37.3125 14.984375 27.296875 
Q 14.984375 17.28125 19.8125 11.734375 
Q 24.65625 6.203125 33.40625 6.203125 
Q 37.3125 6.203125 41.140625 7.25 
Q 44.96875 8.296875 48.78125 10.40625 
L 48.78125 2.09375 
Q 45.015625 0.34375 40.984375 -0.53125 
Q 36.96875 -1.421875 32.421875 -1.421875 
Q 20.0625 -1.421875 12.78125 6.34375 
Q 5.515625 14.109375 5.515625 27.296875 
Q 5.515625 40.671875 12.859375 48.328125 
Q 20.21875 56 33.015625 56 
Q 37.15625 56 41.109375 55.140625 
Q 45.0625 54.296875 48.78125 52.59375 
z
" id="DejaVuSans-99"/>
      <path d="M 18.3125 70.21875 
L 18.3125 54.6875 
L 36.8125 54.6875 
L 36.8125 47.703125 
L 18.3125 47.703125 
L 18.3125 18.015625 
Q 18.3125 11.328125 20.140625 9.421875 
Q 21.96875 7.515625 27.59375 7.515625 
L 36.8125 7.515625 
L 36.8125 0 
L 27.59375 0 
Q 17.1875 0 13.234375 3.875 
Q 9.28125 7.765625 9.28125 18.015625 
L 9.28125 47.703125 
L 2.6875 47.703125 
L 2.6875 54.6875 
L 9.28125 54.6875 
L 9.28125 70.21875 
z
" id="DejaVuSans-116"/>
      <path d="M 44.390625 34.1875 
Q 47.5625 33.109375 50.5625 29.59375 
Q 53.5625 26.078125 56.59375 19.921875 
L 66.609375 0 
L 56 0 
L 46.6875 18.703125 
Q 43.0625 26.03125 39.671875 28.421875 
Q 36.28125 30.8125 30.421875 30.8125 
L 19.671875 30.8125 
L 19.671875 0 
L 9.8125 0 
L 9.8125 72.90625 
L 32.078125 72.90625 
Q 44.578125 72.90625 50.734375 67.671875 
Q 56.890625 62.453125 56.890625 51.90625 
Q 56.890625 45.015625 53.6875 40.46875 
Q 50.484375 35.9375 44.390625 34.1875 
z
M 19.671875 64.796875 
L 19.671875 38.921875 
L 32.078125 38.921875 
Q 39.203125 38.921875 42.84375 42.21875 
Q 46.484375 45.515625 46.484375 51.90625 
Q 46.484375 58.296875 42.84375 61.546875 
Q 39.203125 64.796875 32.078125 64.796875 
z
" id="DejaVuSans-82"/>
      <path d="M 45.40625 46.390625 
L 45.40625 75.984375 
L 54.390625 75.984375 
L 54.390625 0 
L 45.40625 0 
L 45.40625 8.203125 
Q 42.578125 3.328125 38.25 0.953125 
Q 33.9375 -1.421875 27.875 -1.421875 
Q 17.96875 -1.421875 11.734375 6.484375 
Q 5.515625 14.40625 5.515625 27.296875 
Q 5.515625 40.1875 11.734375 48.09375 
Q 17.96875 56 27.875 56 
Q 33.9375 56 38.25 53.625 
Q 42.578125 51.265625 45.40625 46.390625 
z
M 14.796875 27.296875 
Q 14.796875 17.390625 18.875 11.75 
Q 22.953125 6.109375 30.078125 6.109375 
Q 37.203125 6.109375 41.296875 11.75 
Q 45.40625 17.390625 45.40625 27.296875 
Q 45.40625 37.203125 41.296875 42.84375 
Q 37.203125 48.484375 30.078125 48.484375 
Q 22.953125 48.484375 18.875 42.84375 
Q 14.796875 37.203125 14.796875 27.296875 
z
" id="DejaVuSans-100"/>
      <path d="M 44.28125 53.078125 
L 44.28125 44.578125 
Q 40.484375 46.53125 36.375 47.5 
Q 32.28125 48.484375 27.875 48.484375 
Q 21.1875 48.484375 17.84375 46.4375 
Q 14.5 44.390625 14.5 40.28125 
Q 14.5 37.15625 16.890625 35.375 
Q 19.28125 33.59375 26.515625 31.984375 
L 29.59375 31.296875 
Q 39.15625 29.25 43.1875 25.515625 
Q 47.21875 21.78125 47.21875 15.09375 
Q 47.21875 7.46875 41.1875 3.015625 
Q 35.15625 -1.421875 24.609375 -1.421875 
Q 20.21875 -1.421875 15.453125 -0.5625 
Q 10.6875 0.296875 5.421875 2 
L 5.421875 11.28125 
Q 10.40625 8.6875 15.234375 7.390625 
Q 20.0625 6.109375 24.8125 6.109375 
Q 31.15625 6.109375 34.5625 8.28125 
Q 37.984375 10.453125 37.984375 14.40625 
Q 37.984375 18.0625 35.515625 20.015625 
Q 33.0625 21.96875 24.703125 23.78125 
L 21.578125 24.515625 
Q 13.234375 26.265625 9.515625 29.90625 
Q 5.8125 33.546875 5.8125 39.890625 
Q 5.8125 47.609375 11.28125 51.796875 
Q 16.75 56 26.8125 56 
Q 31.78125 56 36.171875 55.265625 
Q 40.578125 54.546875 44.28125 53.078125 
z
" id="DejaVuSans-115"/>
     </defs>
     <g transform="translate(195.582422 411.714844)scale(0.15 -0.15)">
      <use xlink:href="#DejaVuSans-71"/>
      <use x="77.490234" xlink:href="#DejaVuSans-108"/>
      <use x="105.273438" xlink:href="#DejaVuSans-111"/>
      <use x="166.455078" xlink:href="#DejaVuSans-98"/>
      <use x="229.931641" xlink:href="#DejaVuSans-97"/>
      <use x="291.210938" xlink:href="#DejaVuSans-108"/>
      <use x="318.994141" xlink:href="#DejaVuSans-32"/>
      <use x="350.78125" xlink:href="#DejaVuSans-67"/>
      <use x="420.605469" xlink:href="#DejaVuSans-111"/>
      <use x="481.787109" xlink:href="#DejaVuSans-109"/>
      <use x="579.199219" xlink:href="#DejaVuSans-109"/>
      <use x="676.611328" xlink:href="#DejaVuSans-117"/>
      <use x="739.990234" xlink:href="#DejaVuSans-110"/>
      <use x="803.369141" xlink:href="#DejaVuSans-105"/>
      <use x="831.152344" xlink:href="#DejaVuSans-99"/>
      <use x="886.132812" xlink:href="#DejaVuSans-97"/>
      <use x="947.412109" xlink:href="#DejaVuSans-116"/>
      <use x="986.621094" xlink:href="#DejaVuSans-105"/>
      <use x="1014.404297" xlink:href="#DejaVuSans-111"/>
      <use x="1075.585938" xlink:href="#DejaVuSans-110"/>
      <use x="1138.964844" xlink:href="#DejaVuSans-32"/>
      <use x="1170.751953" xlink:href="#DejaVuSans-82"/>
      <use x="1235.734375" xlink:href="#DejaVuSans-111"/>
      <use x="1296.916016" xlink:href="#DejaVuSans-117"/>
      <use x="1360.294922" xlink:href="#DejaVuSans-110"/>
      <use x="1423.673828" xlink:href="#DejaVuSans-100"/>
      <use x="1487.150391" xlink:href="#DejaVuSans-115"/>
     </g>
    </g>
   </g>
   <g id="matplotlib.axis_2">
    <g id="ytick_1">
     <g id="line2d_7">
      <defs>
       <path d="M 0 0 
L -3.5 0 
" id="m9995356526" style="stroke:#000000;stroke-width:0.8;"/>
      </defs>
      <g>
       <use style="stroke:#000000;stroke-width:0.8;" x="70.7" xlink:href="#m9995356526" y="320.252483"/>
      </g>
     </g>
     <g id="text_8">
      <!-- 20 -->
      <g transform="translate(44.6125 325.951311)scale(0.15 -0.15)">
       <use xlink:href="#DejaVuSans-50"/>
       <use x="63.623047" xlink:href="#DejaVuSans-48"/>
      </g>
     </g>
    </g>
    <g id="ytick_2">
     <g id="line2d_8">
      <g>
       <use style="stroke:#000000;stroke-width:0.8;" x="70.7" xlink:href="#m9995356526" y="257.346878"/>
      </g>
     </g>
     <g id="text_9">
      <!-- 40 -->
      <g transform="translate(44.6125 263.045707)scale(0.15 -0.15)">
       <use xlink:href="#DejaVuSans-52"/>
       <use x="63.623047" xlink:href="#DejaVuSans-48"/>
      </g>
     </g>
    </g>
    <g id="ytick_3">
     <g id="line2d_9">
      <g>
       <use style="stroke:#000000;stroke-width:0.8;" x="70.7" xlink:href="#m9995356526" y="194.441274"/>
      </g>
     </g>
     <g id="text_10">
      <!-- 60 -->
      <defs>
       <path d="M 33.015625 40.375 
Q 26.375 40.375 22.484375 35.828125 
Q 18.609375 31.296875 18.609375 23.390625 
Q 18.609375 15.53125 22.484375 10.953125 
Q 26.375 6.390625 33.015625 6.390625 
Q 39.65625 6.390625 43.53125 10.953125 
Q 47.40625 15.53125 47.40625 23.390625 
Q 47.40625 31.296875 43.53125 35.828125 
Q 39.65625 40.375 33.015625 40.375 
z
M 52.59375 71.296875 
L 52.59375 62.3125 
Q 48.875 64.0625 45.09375 64.984375 
Q 41.3125 65.921875 37.59375 65.921875 
Q 27.828125 65.921875 22.671875 59.328125 
Q 17.53125 52.734375 16.796875 39.40625 
Q 19.671875 43.65625 24.015625 45.921875 
Q 28.375 48.1875 33.59375 48.1875 
Q 44.578125 48.1875 50.953125 41.515625 
Q 57.328125 34.859375 57.328125 23.390625 
Q 57.328125 12.15625 50.6875 5.359375 
Q 44.046875 -1.421875 33.015625 -1.421875 
Q 20.359375 -1.421875 13.671875 8.265625 
Q 6.984375 17.96875 6.984375 36.375 
Q 6.984375 53.65625 15.1875 63.9375 
Q 23.390625 74.21875 37.203125 74.21875 
Q 40.921875 74.21875 44.703125 73.484375 
Q 48.484375 72.75 52.59375 71.296875 
z
" id="DejaVuSans-54"/>
      </defs>
      <g transform="translate(44.6125 200.140102)scale(0.15 -0.15)">
       <use xlink:href="#DejaVuSans-54"/>
       <use x="63.623047" xlink:href="#DejaVuSans-48"/>
      </g>
     </g>
    </g>
    <g id="ytick_4">
     <g id="line2d_10">
      <g>
       <use style="stroke:#000000;stroke-width:0.8;" x="70.7" xlink:href="#m9995356526" y="131.535669"/>
      </g>
     </g>
     <g id="text_11">
      <!-- 80 -->
      <defs>
       <path d="M 31.78125 34.625 
Q 24.75 34.625 20.71875 30.859375 
Q 16.703125 27.09375 16.703125 20.515625 
Q 16.703125 13.921875 20.71875 10.15625 
Q 24.75 6.390625 31.78125 6.390625 
Q 38.8125 6.390625 42.859375 10.171875 
Q 46.921875 13.96875 46.921875 20.515625 
Q 46.921875 27.09375 42.890625 30.859375 
Q 38.875 34.625 31.78125 34.625 
z
M 21.921875 38.8125 
Q 15.578125 40.375 12.03125 44.71875 
Q 8.5 49.078125 8.5 55.328125 
Q 8.5 64.0625 14.71875 69.140625 
Q 20.953125 74.21875 31.78125 74.21875 
Q 42.671875 74.21875 48.875 69.140625 
Q 55.078125 64.0625 55.078125 55.328125 
Q 55.078125 49.078125 51.53125 44.71875 
Q 48 40.375 41.703125 38.8125 
Q 48.828125 37.15625 52.796875 32.3125 
Q 56.78125 27.484375 56.78125 20.515625 
Q 56.78125 9.90625 50.3125 4.234375 
Q 43.84375 -1.421875 31.78125 -1.421875 
Q 19.734375 -1.421875 13.25 4.234375 
Q 6.78125 9.90625 6.78125 20.515625 
Q 6.78125 27.484375 10.78125 32.3125 
Q 14.796875 37.15625 21.921875 38.8125 
z
M 18.3125 54.390625 
Q 18.3125 48.734375 21.84375 45.5625 
Q 25.390625 42.390625 31.78125 42.390625 
Q 38.140625 42.390625 41.71875 45.5625 
Q 45.3125 48.734375 45.3125 54.390625 
Q 45.3125 60.0625 41.71875 63.234375 
Q 38.140625 66.40625 31.78125 66.40625 
Q 25.390625 66.40625 21.84375 63.234375 
Q 18.3125 60.0625 18.3125 54.390625 
z
" id="DejaVuSans-56"/>
      </defs>
      <g transform="translate(44.6125 137.234497)scale(0.15 -0.15)">
       <use xlink:href="#DejaVuSans-56"/>
       <use x="63.623047" xlink:href="#DejaVuSans-48"/>
      </g>
     </g>
    </g>
    <g id="ytick_5">
     <g id="line2d_11">
      <g>
       <use style="stroke:#000000;stroke-width:0.8;" x="70.7" xlink:href="#m9995356526" y="68.630064"/>
      </g>
     </g>
     <g id="text_12">
      <!-- 100 -->
      <g transform="translate(35.06875 74.328892)scale(0.15 -0.15)">
       <use xlink:href="#DejaVuSans-49"/>
       <use x="63.623047" xlink:href="#DejaVuSans-48"/>
       <use x="127.246094" xlink:href="#DejaVuSans-48"/>
      </g>
     </g>
    </g>
    <g id="text_13">
     <!-- Test Accuracy -->
     <defs>
      <path d="M -0.296875 72.90625 
L 61.375 72.90625 
L 61.375 64.59375 
L 35.5 64.59375 
L 35.5 0 
L 25.59375 0 
L 25.59375 64.59375 
L -0.296875 64.59375 
z
" id="DejaVuSans-84"/>
      <path d="M 56.203125 29.59375 
L 56.203125 25.203125 
L 14.890625 25.203125 
Q 15.484375 15.921875 20.484375 11.0625 
Q 25.484375 6.203125 34.421875 6.203125 
Q 39.59375 6.203125 44.453125 7.46875 
Q 49.3125 8.734375 54.109375 11.28125 
L 54.109375 2.78125 
Q 49.265625 0.734375 44.1875 -0.34375 
Q 39.109375 -1.421875 33.890625 -1.421875 
Q 20.796875 -1.421875 13.15625 6.1875 
Q 5.515625 13.8125 5.515625 26.8125 
Q 5.515625 40.234375 12.765625 48.109375 
Q 20.015625 56 32.328125 56 
Q 43.359375 56 49.78125 48.890625 
Q 56.203125 41.796875 56.203125 29.59375 
z
M 47.21875 32.234375 
Q 47.125 39.59375 43.09375 43.984375 
Q 39.0625 48.390625 32.421875 48.390625 
Q 24.90625 48.390625 20.390625 44.140625 
Q 15.875 39.890625 15.1875 32.171875 
z
" id="DejaVuSans-101"/>
      <path d="M 34.1875 63.1875 
L 20.796875 26.90625 
L 47.609375 26.90625 
z
M 28.609375 72.90625 
L 39.796875 72.90625 
L 67.578125 0 
L 57.328125 0 
L 50.6875 18.703125 
L 17.828125 18.703125 
L 11.1875 0 
L 0.78125 0 
z
" id="DejaVuSans-65"/>
      <path d="M 41.109375 46.296875 
Q 39.59375 47.171875 37.8125 47.578125 
Q 36.03125 48 33.890625 48 
Q 26.265625 48 22.1875 43.046875 
Q 18.109375 38.09375 18.109375 28.8125 
L 18.109375 0 
L 9.078125 0 
L 9.078125 54.6875 
L 18.109375 54.6875 
L 18.109375 46.1875 
Q 20.953125 51.171875 25.484375 53.578125 
Q 30.03125 56 36.53125 56 
Q 37.453125 56 38.578125 55.875 
Q 39.703125 55.765625 41.0625 55.515625 
z
" id="DejaVuSans-114"/>
      <path d="M 32.171875 -5.078125 
Q 28.375 -14.84375 24.75 -17.8125 
Q 21.140625 -20.796875 15.09375 -20.796875 
L 7.90625 -20.796875 
L 7.90625 -13.28125 
L 13.1875 -13.28125 
Q 16.890625 -13.28125 18.9375 -11.515625 
Q 21 -9.765625 23.484375 -3.21875 
L 25.09375 0.875 
L 2.984375 54.6875 
L 12.5 54.6875 
L 29.59375 11.921875 
L 46.6875 54.6875 
L 56.203125 54.6875 
z
" id="DejaVuSans-121"/>
     </defs>
     <g transform="translate(27.949219 267.017859)rotate(-90)scale(0.15 -0.15)">
      <use xlink:href="#DejaVuSans-84"/>
      <use x="44.083984" xlink:href="#DejaVuSans-101"/>
      <use x="105.607422" xlink:href="#DejaVuSans-115"/>
      <use x="157.707031" xlink:href="#DejaVuSans-116"/>
      <use x="196.916016" xlink:href="#DejaVuSans-32"/>
      <use x="228.703125" xlink:href="#DejaVuSans-65"/>
      <use x="295.361328" xlink:href="#DejaVuSans-99"/>
      <use x="350.341797" xlink:href="#DejaVuSans-99"/>
      <use x="405.322266" xlink:href="#DejaVuSans-117"/>
      <use x="468.701172" xlink:href="#DejaVuSans-114"/>
      <use x="509.814453" xlink:href="#DejaVuSans-97"/>
      <use x="571.09375" xlink:href="#DejaVuSans-99"/>
      <use x="626.074219" xlink:href="#DejaVuSans-121"/>
     </g>
    </g>
   </g>
   <g id="line2d_12">
    <path clip-path="url(#pd6e067b363)" d="M 92.547727 314.36006 
L 101.465167 232.742028 
L 110.382607 194.600528 
L 119.300046 180.108351 
L 128.217486 145.470454 
L 137.134926 118.636038 
L 146.052365 120.148958 
L 154.969805 118.078647 
L 163.887245 105.895663 
L 172.804685 103.26796 
L 181.722124 100.87914 
L 190.639564 89.412802 
L 199.557004 85.431434 
L 208.474443 83.600005 
L 217.391883 87.103608 
L 226.309323 85.829571 
L 235.226763 80.813048 
L 244.144202 79.937147 
L 253.061642 85.511061 
L 261.979082 84.157397 
L 270.896521 82.325968 
L 279.813961 80.176029 
L 288.731401 77.707581 
L 297.64884 78.185345 
L 306.56628 76.115034 
L 315.48372 79.777892 
L 324.40116 77.548327 
L 333.318599 77.787209 
L 342.236039 75.876152 
L 351.153479 80.176029 
L 360.070918 76.194662 
L 368.988358 75.95578 
L 377.905798 75.796525 
L 386.823237 75.318761 
L 395.740677 74.761369 
L 404.658117 74.124351 
L 413.575557 74.681742 
L 422.492996 75.63727 
L 431.410436 74.44286 
L 440.327876 72.691058 
L 449.245315 73.328077 
L 458.162755 74.044723 
L 467.080195 73.487332 
L 475.997635 73.24845 
L 484.915074 73.328077 
L 493.832514 73.487332 
L 502.749954 72.691058 
L 511.667393 74.203978 
L 520.584833 72.691058 
L 529.502273 72.452176 
" style="fill:none;stroke:#1f77b4;stroke-linecap:square;stroke-width:1.5;"/>
   </g>
   <g id="line2d_13">
    <path clip-path="url(#pd6e067b363)" d="M 92.547727 346.688763 
L 101.465167 315.793352 
L 110.382607 266.265141 
L 119.300046 274.785268 
L 128.217486 296.205024 
L 137.134926 202.802145 
L 146.052365 230.830972 
L 154.969805 242.058428 
L 163.887245 209.729724 
L 172.804685 170.632696 
L 181.722124 202.563263 
L 190.639564 176.52512 
L 199.557004 152.955425 
L 208.474443 167.686485 
L 217.391883 178.276922 
L 226.309323 179.312077 
L 235.226763 152.477661 
L 244.144202 140.294677 
L 253.061642 144.196417 
L 261.979082 144.99269 
L 270.896521 138.861385 
L 279.813961 148.257412 
L 288.731401 138.70213 
L 297.64884 139.418776 
L 306.56628 131.854178 
L 315.48372 158.768222 
L 324.40116 141.489087 
L 333.318599 111.867714 
L 342.236039 133.446725 
L 351.153479 143.240889 
L 360.070918 163.943999 
L 368.988358 170.314187 
L 377.905798 159.564495 
L 386.823237 148.814803 
L 395.740677 159.007104 
L 404.658117 141.568714 
L 413.575557 138.542875 
L 422.492996 127.952438 
L 431.410436 115.530572 
L 440.327876 116.884237 
L 449.245315 114.813926 
L 458.162755 93.394169 
L 467.080195 107.886346 
L 475.997635 110.514049 
L 484.915074 127.713556 
L 493.832514 115.450944 
L 502.749954 115.849081 
L 511.667393 121.821132 
L 520.584833 104.382743 
L 529.502273 116.963864 
" style="fill:none;stroke:#ff7f0e;stroke-linecap:square;stroke-width:1.5;"/>
   </g>
   <g id="line2d_14">
    <path clip-path="url(#pd6e067b363)" d="M 92.547727 278.687008 
L 101.465167 273.192721 
L 110.382607 205.270593 
L 119.300046 150.168468 
L 128.217486 143.79828 
L 137.134926 116.645355 
L 146.052365 115.29169 
L 154.969805 111.788086 
L 163.887245 111.549204 
L 172.804685 95.544107 
L 181.722124 92.836777 
L 190.639564 93.394169 
L 199.557004 87.820255 
L 208.474443 83.281496 
L 217.391883 82.724104 
L 226.309323 84.95367 
L 235.226763 82.325968 
L 244.144202 85.749943 
L 253.061642 84.794415 
L 261.979082 82.24634 
L 270.896521 83.44075 
L 279.813961 82.405595 
L 288.731401 82.485222 
L 297.64884 80.494539 
L 306.56628 79.459383 
L 315.48372 80.653793 
L 324.40116 86.864726 
L 333.318599 80.255656 
L 342.236039 78.3446 
L 351.153479 79.300128 
L 360.070918 78.742737 
L 368.988358 78.901992 
L 377.905798 79.85752 
L 386.823237 78.424227 
L 395.740677 79.53901 
L 404.658117 79.53901 
L 413.575557 78.822364 
L 422.492996 78.981619 
L 431.410436 77.468699 
L 440.327876 77.229817 
L 449.245315 77.787209 
L 458.162755 78.185345 
L 467.080195 78.583482 
L 475.997635 78.742737 
L 484.915074 79.140874 
L 493.832514 78.503855 
L 502.749954 78.105718 
L 511.667393 77.468699 
L 520.584833 77.548327 
L 529.502273 76.831681 
" style="fill:none;stroke:#2ca02c;stroke-linecap:square;stroke-width:1.5;"/>
   </g>
   <g id="line2d_15">
    <path clip-path="url(#pd6e067b363)" d="M 92.547727 317.704806 
L 101.465167 291.353648 
L 110.382607 272.003884 
L 119.300046 258.812579 
L 128.217486 249.968051 
L 137.134926 245.250131 
L 146.052365 238.380839 
L 154.969805 231.687682 
L 163.887245 226.686687 
L 172.804685 222.321038 
L 181.722124 218.578154 
L 190.639564 215.357387 
L 199.557004 211.583051 
L 208.474443 208.054046 
L 217.391883 203.82679 
L 226.309323 199.920352 
L 235.226763 195.101782 
L 244.144202 190.302085 
L 253.061642 185.703685 
L 261.979082 181.38836 
L 270.896521 176.966096 
L 279.813961 173.808235 
L 288.731401 170.556015 
L 297.64884 168.064953 
L 306.56628 164.957416 
L 315.48372 162.057468 
L 324.40116 160.314983 
L 333.318599 158.075543 
L 342.236039 155.666259 
L 351.153479 153.09971 
L 360.070918 151.665462 
L 368.988358 150.29412 
L 377.905798 149.05488 
L 386.823237 147.054481 
L 395.740677 146.903508 
L 404.658117 145.664267 
L 413.575557 144.594872 
L 422.492996 143.44999 
L 431.410436 142.116391 
L 440.327876 141.367815 
L 449.245315 139.845499 
L 458.162755 138.599968 
L 467.080195 137.908006 
L 475.997635 137.27895 
L 484.915074 136.436015 
L 493.832514 135.284843 
L 502.749954 134.970315 
L 511.667393 134.511104 
L 520.584833 133.951244 
L 529.502273 133.416546 
" style="fill:none;stroke:#d62728;stroke-linecap:square;stroke-width:1.5;"/>
   </g>
   <g id="patch_3">
    <path d="M 70.7 374.8 
L 70.7 56.448219 
" style="fill:none;stroke:#000000;stroke-linecap:square;stroke-linejoin:miter;stroke-width:0.8;"/>
   </g>
   <g id="patch_4">
    <path d="M 551.35 374.8 
L 551.35 56.448219 
" style="fill:none;stroke:#000000;stroke-linecap:square;stroke-linejoin:miter;stroke-width:0.8;"/>
   </g>
   <g id="patch_5">
    <path d="M 70.7 374.8 
L 551.35 374.8 
" style="fill:none;stroke:#000000;stroke-linecap:square;stroke-linejoin:miter;stroke-width:0.8;"/>
   </g>
   <g id="patch_6">
    <path d="M 70.7 56.448219 
L 551.35 56.448219 
" style="fill:none;stroke:#000000;stroke-linecap:square;stroke-linejoin:miter;stroke-width:0.8;"/>
   </g>
   <g id="legend_1">
    <g id="patch_7">
     <path d="M 61.427344 42.712639 
L 560.622656 42.712639 
Q 563.622656 42.712639 563.622656 39.712639 
L 563.622656 19.195452 
Q 563.622656 16.195452 560.622656 16.195452 
L 61.427344 16.195452 
Q 58.427344 16.195452 58.427344 19.195452 
L 58.427344 39.712639 
Q 58.427344 42.712639 61.427344 42.712639 
z
" style="fill:#ffffff;opacity:0.8;stroke:#cccccc;stroke-linejoin:miter;"/>
    </g>
    <g id="line2d_16">
     <path d="M 64.427344 28.343108 
L 94.427344 28.343108 
" style="fill:none;stroke:#1f77b4;stroke-linecap:square;stroke-width:1.5;"/>
    </g>
    <g id="line2d_17"/>
    <g id="text_14">
     <!-- FedAvg -->
     <defs>
      <path d="M 9.8125 72.90625 
L 51.703125 72.90625 
L 51.703125 64.59375 
L 19.671875 64.59375 
L 19.671875 43.109375 
L 48.578125 43.109375 
L 48.578125 34.8125 
L 19.671875 34.8125 
L 19.671875 0 
L 9.8125 0 
z
" id="DejaVuSans-70"/>
      <path d="M 2.984375 54.6875 
L 12.5 54.6875 
L 29.59375 8.796875 
L 46.6875 54.6875 
L 56.203125 54.6875 
L 35.6875 0 
L 23.484375 0 
z
" id="DejaVuSans-118"/>
      <path d="M 45.40625 27.984375 
Q 45.40625 37.75 41.375 43.109375 
Q 37.359375 48.484375 30.078125 48.484375 
Q 22.859375 48.484375 18.828125 43.109375 
Q 14.796875 37.75 14.796875 27.984375 
Q 14.796875 18.265625 18.828125 12.890625 
Q 22.859375 7.515625 30.078125 7.515625 
Q 37.359375 7.515625 41.375 12.890625 
Q 45.40625 18.265625 45.40625 27.984375 
z
M 54.390625 6.78125 
Q 54.390625 -7.171875 48.1875 -13.984375 
Q 42 -20.796875 29.203125 -20.796875 
Q 24.46875 -20.796875 20.265625 -20.09375 
Q 16.0625 -19.390625 12.109375 -17.921875 
L 12.109375 -9.1875 
Q 16.0625 -11.328125 19.921875 -12.34375 
Q 23.78125 -13.375 27.78125 -13.375 
Q 36.625 -13.375 41.015625 -8.765625 
Q 45.40625 -4.15625 45.40625 5.171875 
L 45.40625 9.625 
Q 42.625 4.78125 38.28125 2.390625 
Q 33.9375 0 27.875 0 
Q 17.828125 0 11.671875 7.65625 
Q 5.515625 15.328125 5.515625 27.984375 
Q 5.515625 40.671875 11.671875 48.328125 
Q 17.828125 56 27.875 56 
Q 33.9375 56 38.28125 53.609375 
Q 42.625 51.21875 45.40625 46.390625 
L 45.40625 54.6875 
L 54.390625 54.6875 
z
" id="DejaVuSans-103"/>
     </defs>
     <g transform="translate(106.427344 33.593108)scale(0.15 -0.15)">
      <use xlink:href="#DejaVuSans-70"/>
      <use x="52.019531" xlink:href="#DejaVuSans-101"/>
      <use x="113.542969" xlink:href="#DejaVuSans-100"/>
      <use x="177.019531" xlink:href="#DejaVuSans-65"/>
      <use x="239.552734" xlink:href="#DejaVuSans-118"/>
      <use x="298.732422" xlink:href="#DejaVuSans-103"/>
     </g>
    </g>
    <g id="line2d_18">
     <path d="M 190.7625 28.343108 
L 220.7625 28.343108 
" style="fill:none;stroke:#ff7f0e;stroke-linecap:square;stroke-width:1.5;"/>
    </g>
    <g id="line2d_19"/>
    <g id="text_15">
     <!-- FedMed -->
     <defs>
      <path d="M 9.8125 72.90625 
L 24.515625 72.90625 
L 43.109375 23.296875 
L 61.8125 72.90625 
L 76.515625 72.90625 
L 76.515625 0 
L 66.890625 0 
L 66.890625 64.015625 
L 48.09375 14.015625 
L 38.1875 14.015625 
L 19.390625 64.015625 
L 19.390625 0 
L 9.8125 0 
z
" id="DejaVuSans-77"/>
     </defs>
     <g transform="translate(232.7625 33.593108)scale(0.15 -0.15)">
      <use xlink:href="#DejaVuSans-70"/>
      <use x="52.019531" xlink:href="#DejaVuSans-101"/>
      <use x="113.542969" xlink:href="#DejaVuSans-100"/>
      <use x="177.019531" xlink:href="#DejaVuSans-77"/>
      <use x="263.298828" xlink:href="#DejaVuSans-101"/>
      <use x="324.822266" xlink:href="#DejaVuSans-100"/>
     </g>
    </g>
    <g id="line2d_20">
     <path d="M 321.011719 28.343108 
L 351.011719 28.343108 
" style="fill:none;stroke:#2ca02c;stroke-linecap:square;stroke-width:1.5;"/>
    </g>
    <g id="line2d_21"/>
    <g id="text_16">
     <!-- FedProx -->
     <defs>
      <path d="M 19.671875 64.796875 
L 19.671875 37.40625 
L 32.078125 37.40625 
Q 38.96875 37.40625 42.71875 40.96875 
Q 46.484375 44.53125 46.484375 51.125 
Q 46.484375 57.671875 42.71875 61.234375 
Q 38.96875 64.796875 32.078125 64.796875 
z
M 9.8125 72.90625 
L 32.078125 72.90625 
Q 44.34375 72.90625 50.609375 67.359375 
Q 56.890625 61.8125 56.890625 51.125 
Q 56.890625 40.328125 50.609375 34.8125 
Q 44.34375 29.296875 32.078125 29.296875 
L 19.671875 29.296875 
L 19.671875 0 
L 9.8125 0 
z
" id="DejaVuSans-80"/>
      <path d="M 54.890625 54.6875 
L 35.109375 28.078125 
L 55.90625 0 
L 45.3125 0 
L 29.390625 21.484375 
L 13.484375 0 
L 2.875 0 
L 24.125 28.609375 
L 4.6875 54.6875 
L 15.28125 54.6875 
L 29.78125 35.203125 
L 44.28125 54.6875 
z
" id="DejaVuSans-120"/>
     </defs>
     <g transform="translate(363.011719 33.593108)scale(0.15 -0.15)">
      <use xlink:href="#DejaVuSans-70"/>
      <use x="52.019531" xlink:href="#DejaVuSans-101"/>
      <use x="113.542969" xlink:href="#DejaVuSans-100"/>
      <use x="177.019531" xlink:href="#DejaVuSans-80"/>
      <use x="235.572266" xlink:href="#DejaVuSans-114"/>
      <use x="274.435547" xlink:href="#DejaVuSans-111"/>
      <use x="332.492188" xlink:href="#DejaVuSans-120"/>
     </g>
    </g>
    <g id="line2d_22">
     <path d="M 451.764844 28.343108 
L 481.764844 28.343108 
" style="fill:none;stroke:#d62728;stroke-linecap:square;stroke-width:1.5;"/>
    </g>
    <g id="line2d_23"/>
    <g id="text_17">
     <!-- qFedAvg -->
     <defs>
      <path d="M 14.796875 27.296875 
Q 14.796875 17.390625 18.875 11.75 
Q 22.953125 6.109375 30.078125 6.109375 
Q 37.203125 6.109375 41.296875 11.75 
Q 45.40625 17.390625 45.40625 27.296875 
Q 45.40625 37.203125 41.296875 42.84375 
Q 37.203125 48.484375 30.078125 48.484375 
Q 22.953125 48.484375 18.875 42.84375 
Q 14.796875 37.203125 14.796875 27.296875 
z
M 45.40625 8.203125 
Q 42.578125 3.328125 38.25 0.953125 
Q 33.9375 -1.421875 27.875 -1.421875 
Q 17.96875 -1.421875 11.734375 6.484375 
Q 5.515625 14.40625 5.515625 27.296875 
Q 5.515625 40.1875 11.734375 48.09375 
Q 17.96875 56 27.875 56 
Q 33.9375 56 38.25 53.625 
Q 42.578125 51.265625 45.40625 46.390625 
L 45.40625 54.6875 
L 54.390625 54.6875 
L 54.390625 -20.796875 
L 45.40625 -20.796875 
z
" id="DejaVuSans-113"/>
     </defs>
     <g transform="translate(493.764844 33.593108)scale(0.15 -0.15)">
      <use xlink:href="#DejaVuSans-113"/>
      <use x="63.476562" xlink:href="#DejaVuSans-70"/>
      <use x="115.496094" xlink:href="#DejaVuSans-101"/>
      <use x="177.019531" xlink:href="#DejaVuSans-100"/>
      <use x="240.496094" xlink:href="#DejaVuSans-65"/>
      <use x="303.029297" xlink:href="#DejaVuSans-118"/>
      <use x="362.208984" xlink:href="#DejaVuSans-103"/>
     </g>
    </g>
   </g>
  </g>
 </g>
 <defs>
  <clipPath id="pd6e067b363">
   <rect height="318.351781" width="480.65" x="70.7" y="56.448219"/>
  </clipPath>
 </defs>
</svg>
