<?xml version="1.0" encoding="utf-8" standalone="no"?>
<!DOCTYPE svg PUBLIC "-//W3C//DTD SVG 1.1//EN"
  "http://www.w3.org/Graphics/SVG/1.1/DTD/svg11.dtd">
<svg height="345.6pt" version="1.1" viewBox="0 0 460.8 345.6" width="460.8pt" xmlns="http://www.w3.org/2000/svg" xmlns:xlink="http://www.w3.org/1999/xlink">
 <metadata>
  <rdf:RDF xmlns:cc="http://creativecommons.org/ns#" xmlns:dc="http://purl.org/dc/elements/1.1/" xmlns:rdf="http://www.w3.org/1999/02/22-rdf-syntax-ns#">
   <cc:Work>
    <dc:type rdf:resource="http://purl.org/dc/dcmitype/StillImage"/>
    <dc:date>2021-05-07T12:07:23.650988</dc:date>
    <dc:format>image/svg+xml</dc:format>
    <dc:creator>
     <cc:Agent>
      <dc:title>Matplotlib v3.4.1, https://matplotlib.org/</dc:title>
     </cc:Agent>
    </dc:creator>
   </cc:Work>
  </rdf:RDF>
 </metadata>
 <defs>
  <style type="text/css">*{stroke-linecap:butt;stroke-linejoin:round;}</style>
 </defs>
 <g id="figure_1">
  <g id="patch_1">
   <path d="M 0 345.6 
L 460.8 345.6 
L 460.8 0 
L 0 0 
z
" style="fill:#ffffff;"/>
  </g>
  <g id="axes_1">
   <g id="patch_2">
    <path d="M 44.57 170.53 
L 450 170.53 
L 450 10.8 
L 44.57 10.8 
z
" style="fill:#ffffff;"/>
   </g>
   <g id="matplotlib.axis_1">
    <g id="xtick_1">
     <g id="line2d_1">
      <path clip-path="url(#p8a6578a65c)" d="M 78.355833 170.53 
L 78.355833 10.8 
" style="fill:none;stroke:#b0b0b0;stroke-linecap:square;stroke-width:0.8;"/>
     </g>
     <g id="line2d_2">
      <defs>
       <path d="M 0 0 
L 0 3.5 
" id="m6a290c9cd0" style="stroke:#000000;stroke-width:0.8;"/>
      </defs>
      <g>
       <use style="stroke:#000000;stroke-width:0.8;" x="78.355833" xlink:href="#m6a290c9cd0" y="170.53"/>
      </g>
     </g>
     <g id="text_1">
      <!-- FedAvg CNN -->
      <g transform="translate(81.115208 238.876875)rotate(-90)scale(0.1 -0.1)">
       <defs>
        <path d="M 628 4666 
L 3309 4666 
L 3309 4134 
L 1259 4134 
L 1259 2759 
L 3109 2759 
L 3109 2228 
L 1259 2228 
L 1259 0 
L 628 0 
L 628 4666 
z
" id="DejaVuSans-46" transform="scale(0.015625)"/>
        <path d="M 3597 1894 
L 3597 1613 
L 953 1613 
Q 991 1019 1311 708 
Q 1631 397 2203 397 
Q 2534 397 2845 478 
Q 3156 559 3463 722 
L 3463 178 
Q 3153 47 2828 -22 
Q 2503 -91 2169 -91 
Q 1331 -91 842 396 
Q 353 884 353 1716 
Q 353 2575 817 3079 
Q 1281 3584 2069 3584 
Q 2775 3584 3186 3129 
Q 3597 2675 3597 1894 
z
M 3022 2063 
Q 3016 2534 2758 2815 
Q 2500 3097 2075 3097 
Q 1594 3097 1305 2825 
Q 1016 2553 972 2059 
L 3022 2063 
z
" id="DejaVuSans-65" transform="scale(0.015625)"/>
        <path d="M 2906 2969 
L 2906 4863 
L 3481 4863 
L 3481 0 
L 2906 0 
L 2906 525 
Q 2725 213 2448 61 
Q 2172 -91 1784 -91 
Q 1150 -91 751 415 
Q 353 922 353 1747 
Q 353 2572 751 3078 
Q 1150 3584 1784 3584 
Q 2172 3584 2448 3432 
Q 2725 3281 2906 2969 
z
M 947 1747 
Q 947 1113 1208 752 
Q 1469 391 1925 391 
Q 2381 391 2643 752 
Q 2906 1113 2906 1747 
Q 2906 2381 2643 2742 
Q 2381 3103 1925 3103 
Q 1469 3103 1208 2742 
Q 947 2381 947 1747 
z
" id="DejaVuSans-64" transform="scale(0.015625)"/>
        <path d="M 2188 4044 
L 1331 1722 
L 3047 1722 
L 2188 4044 
z
M 1831 4666 
L 2547 4666 
L 4325 0 
L 3669 0 
L 3244 1197 
L 1141 1197 
L 716 0 
L 50 0 
L 1831 4666 
z
" id="DejaVuSans-41" transform="scale(0.015625)"/>
        <path d="M 191 3500 
L 800 3500 
L 1894 563 
L 2988 3500 
L 3597 3500 
L 2284 0 
L 1503 0 
L 191 3500 
z
" id="DejaVuSans-76" transform="scale(0.015625)"/>
        <path d="M 2906 1791 
Q 2906 2416 2648 2759 
Q 2391 3103 1925 3103 
Q 1463 3103 1205 2759 
Q 947 2416 947 1791 
Q 947 1169 1205 825 
Q 1463 481 1925 481 
Q 2391 481 2648 825 
Q 2906 1169 2906 1791 
z
M 3481 434 
Q 3481 -459 3084 -895 
Q 2688 -1331 1869 -1331 
Q 1566 -1331 1297 -1286 
Q 1028 -1241 775 -1147 
L 775 -588 
Q 1028 -725 1275 -790 
Q 1522 -856 1778 -856 
Q 2344 -856 2625 -561 
Q 2906 -266 2906 331 
L 2906 616 
Q 2728 306 2450 153 
Q 2172 0 1784 0 
Q 1141 0 747 490 
Q 353 981 353 1791 
Q 353 2603 747 3093 
Q 1141 3584 1784 3584 
Q 2172 3584 2450 3431 
Q 2728 3278 2906 2969 
L 2906 3500 
L 3481 3500 
L 3481 434 
z
" id="DejaVuSans-67" transform="scale(0.015625)"/>
        <path id="DejaVuSans-20" transform="scale(0.015625)"/>
        <path d="M 4122 4306 
L 4122 3641 
Q 3803 3938 3442 4084 
Q 3081 4231 2675 4231 
Q 1875 4231 1450 3742 
Q 1025 3253 1025 2328 
Q 1025 1406 1450 917 
Q 1875 428 2675 428 
Q 3081 428 3442 575 
Q 3803 722 4122 1019 
L 4122 359 
Q 3791 134 3420 21 
Q 3050 -91 2638 -91 
Q 1578 -91 968 557 
Q 359 1206 359 2328 
Q 359 3453 968 4101 
Q 1578 4750 2638 4750 
Q 3056 4750 3426 4639 
Q 3797 4528 4122 4306 
z
" id="DejaVuSans-43" transform="scale(0.015625)"/>
        <path d="M 628 4666 
L 1478 4666 
L 3547 763 
L 3547 4666 
L 4159 4666 
L 4159 0 
L 3309 0 
L 1241 3903 
L 1241 0 
L 628 0 
L 628 4666 
z
" id="DejaVuSans-4e" transform="scale(0.015625)"/>
       </defs>
       <use xlink:href="#DejaVuSans-46"/>
       <use x="52.019531" xlink:href="#DejaVuSans-65"/>
       <use x="113.542969" xlink:href="#DejaVuSans-64"/>
       <use x="177.019531" xlink:href="#DejaVuSans-41"/>
       <use x="239.552734" xlink:href="#DejaVuSans-76"/>
       <use x="298.732422" xlink:href="#DejaVuSans-67"/>
       <use x="362.208984" xlink:href="#DejaVuSans-20"/>
       <use x="393.996094" xlink:href="#DejaVuSans-43"/>
       <use x="463.820312" xlink:href="#DejaVuSans-4e"/>
       <use x="538.625" xlink:href="#DejaVuSans-4e"/>
      </g>
     </g>
    </g>
    <g id="xtick_2">
     <g id="line2d_3">
      <path clip-path="url(#p8a6578a65c)" d="M 134.665556 170.53 
L 134.665556 10.8 
" style="fill:none;stroke:#b0b0b0;stroke-linecap:square;stroke-width:0.8;"/>
     </g>
     <g id="line2d_4">
      <g>
       <use style="stroke:#000000;stroke-width:0.8;" x="134.665556" xlink:href="#m6a290c9cd0" y="170.53"/>
      </g>
     </g>
     <g id="text_2">
      <!-- FedMed CNN -->
      <g transform="translate(137.424931 241.48625)rotate(-90)scale(0.1 -0.1)">
       <defs>
        <path d="M 628 4666 
L 1569 4666 
L 2759 1491 
L 3956 4666 
L 4897 4666 
L 4897 0 
L 4281 0 
L 4281 4097 
L 3078 897 
L 2444 897 
L 1241 4097 
L 1241 0 
L 628 0 
L 628 4666 
z
" id="DejaVuSans-4d" transform="scale(0.015625)"/>
       </defs>
       <use xlink:href="#DejaVuSans-46"/>
       <use x="52.019531" xlink:href="#DejaVuSans-65"/>
       <use x="113.542969" xlink:href="#DejaVuSans-64"/>
       <use x="177.019531" xlink:href="#DejaVuSans-4d"/>
       <use x="263.298828" xlink:href="#DejaVuSans-65"/>
       <use x="324.822266" xlink:href="#DejaVuSans-64"/>
       <use x="388.298828" xlink:href="#DejaVuSans-20"/>
       <use x="420.085938" xlink:href="#DejaVuSans-43"/>
       <use x="489.910156" xlink:href="#DejaVuSans-4e"/>
       <use x="564.714844" xlink:href="#DejaVuSans-4e"/>
      </g>
     </g>
    </g>
    <g id="xtick_3">
     <g id="line2d_5">
      <path clip-path="url(#p8a6578a65c)" d="M 190.975278 170.53 
L 190.975278 10.8 
" style="fill:none;stroke:#b0b0b0;stroke-linecap:square;stroke-width:0.8;"/>
     </g>
     <g id="line2d_6">
      <g>
       <use style="stroke:#000000;stroke-width:0.8;" x="190.975278" xlink:href="#m6a290c9cd0" y="170.53"/>
      </g>
     </g>
     <g id="text_3">
      <!-- FedProx CNN -->
      <g transform="translate(193.734653 241.822187)rotate(-90)scale(0.1 -0.1)">
       <defs>
        <path d="M 1259 4147 
L 1259 2394 
L 2053 2394 
Q 2494 2394 2734 2622 
Q 2975 2850 2975 3272 
Q 2975 3691 2734 3919 
Q 2494 4147 2053 4147 
L 1259 4147 
z
M 628 4666 
L 2053 4666 
Q 2838 4666 3239 4311 
Q 3641 3956 3641 3272 
Q 3641 2581 3239 2228 
Q 2838 1875 2053 1875 
L 1259 1875 
L 1259 0 
L 628 0 
L 628 4666 
z
" id="DejaVuSans-50" transform="scale(0.015625)"/>
        <path d="M 2631 2963 
Q 2534 3019 2420 3045 
Q 2306 3072 2169 3072 
Q 1681 3072 1420 2755 
Q 1159 2438 1159 1844 
L 1159 0 
L 581 0 
L 581 3500 
L 1159 3500 
L 1159 2956 
Q 1341 3275 1631 3429 
Q 1922 3584 2338 3584 
Q 2397 3584 2469 3576 
Q 2541 3569 2628 3553 
L 2631 2963 
z
" id="DejaVuSans-72" transform="scale(0.015625)"/>
        <path d="M 1959 3097 
Q 1497 3097 1228 2736 
Q 959 2375 959 1747 
Q 959 1119 1226 758 
Q 1494 397 1959 397 
Q 2419 397 2687 759 
Q 2956 1122 2956 1747 
Q 2956 2369 2687 2733 
Q 2419 3097 1959 3097 
z
M 1959 3584 
Q 2709 3584 3137 3096 
Q 3566 2609 3566 1747 
Q 3566 888 3137 398 
Q 2709 -91 1959 -91 
Q 1206 -91 779 398 
Q 353 888 353 1747 
Q 353 2609 779 3096 
Q 1206 3584 1959 3584 
z
" id="DejaVuSans-6f" transform="scale(0.015625)"/>
        <path d="M 3513 3500 
L 2247 1797 
L 3578 0 
L 2900 0 
L 1881 1375 
L 863 0 
L 184 0 
L 1544 1831 
L 300 3500 
L 978 3500 
L 1906 2253 
L 2834 3500 
L 3513 3500 
z
" id="DejaVuSans-78" transform="scale(0.015625)"/>
       </defs>
       <use xlink:href="#DejaVuSans-46"/>
       <use x="52.019531" xlink:href="#DejaVuSans-65"/>
       <use x="113.542969" xlink:href="#DejaVuSans-64"/>
       <use x="177.019531" xlink:href="#DejaVuSans-50"/>
       <use x="235.572266" xlink:href="#DejaVuSans-72"/>
       <use x="274.435547" xlink:href="#DejaVuSans-6f"/>
       <use x="332.492188" xlink:href="#DejaVuSans-78"/>
       <use x="391.671875" xlink:href="#DejaVuSans-20"/>
       <use x="423.458984" xlink:href="#DejaVuSans-43"/>
       <use x="493.283203" xlink:href="#DejaVuSans-4e"/>
       <use x="568.087891" xlink:href="#DejaVuSans-4e"/>
      </g>
     </g>
    </g>
    <g id="xtick_4">
     <g id="line2d_7">
      <path clip-path="url(#p8a6578a65c)" d="M 247.285 170.53 
L 247.285 10.8 
" style="fill:none;stroke:#b0b0b0;stroke-linecap:square;stroke-width:0.8;"/>
     </g>
     <g id="line2d_8">
      <g>
       <use style="stroke:#000000;stroke-width:0.8;" x="247.285" xlink:href="#m6a290c9cd0" y="170.53"/>
      </g>
     </g>
     <g id="text_4">
      <!-- qFedAvg_001_uniform CNN -->
      <g transform="translate(249.905313 313.081563)rotate(-90)scale(0.1 -0.1)">
       <defs>
        <path d="M 947 1747 
Q 947 1113 1208 752 
Q 1469 391 1925 391 
Q 2381 391 2643 752 
Q 2906 1113 2906 1747 
Q 2906 2381 2643 2742 
Q 2381 3103 1925 3103 
Q 1469 3103 1208 2742 
Q 947 2381 947 1747 
z
M 2906 525 
Q 2725 213 2448 61 
Q 2172 -91 1784 -91 
Q 1150 -91 751 415 
Q 353 922 353 1747 
Q 353 2572 751 3078 
Q 1150 3584 1784 3584 
Q 2172 3584 2448 3432 
Q 2725 3281 2906 2969 
L 2906 3500 
L 3481 3500 
L 3481 -1331 
L 2906 -1331 
L 2906 525 
z
" id="DejaVuSans-71" transform="scale(0.015625)"/>
        <path d="M 3263 -1063 
L 3263 -1509 
L -63 -1509 
L -63 -1063 
L 3263 -1063 
z
" id="DejaVuSans-5f" transform="scale(0.015625)"/>
        <path d="M 2034 4250 
Q 1547 4250 1301 3770 
Q 1056 3291 1056 2328 
Q 1056 1369 1301 889 
Q 1547 409 2034 409 
Q 2525 409 2770 889 
Q 3016 1369 3016 2328 
Q 3016 3291 2770 3770 
Q 2525 4250 2034 4250 
z
M 2034 4750 
Q 2819 4750 3233 4129 
Q 3647 3509 3647 2328 
Q 3647 1150 3233 529 
Q 2819 -91 2034 -91 
Q 1250 -91 836 529 
Q 422 1150 422 2328 
Q 422 3509 836 4129 
Q 1250 4750 2034 4750 
z
" id="DejaVuSans-30" transform="scale(0.015625)"/>
        <path d="M 794 531 
L 1825 531 
L 1825 4091 
L 703 3866 
L 703 4441 
L 1819 4666 
L 2450 4666 
L 2450 531 
L 3481 531 
L 3481 0 
L 794 0 
L 794 531 
z
" id="DejaVuSans-31" transform="scale(0.015625)"/>
        <path d="M 544 1381 
L 544 3500 
L 1119 3500 
L 1119 1403 
Q 1119 906 1312 657 
Q 1506 409 1894 409 
Q 2359 409 2629 706 
Q 2900 1003 2900 1516 
L 2900 3500 
L 3475 3500 
L 3475 0 
L 2900 0 
L 2900 538 
Q 2691 219 2414 64 
Q 2138 -91 1772 -91 
Q 1169 -91 856 284 
Q 544 659 544 1381 
z
M 1991 3584 
L 1991 3584 
z
" id="DejaVuSans-75" transform="scale(0.015625)"/>
        <path d="M 3513 2113 
L 3513 0 
L 2938 0 
L 2938 2094 
Q 2938 2591 2744 2837 
Q 2550 3084 2163 3084 
Q 1697 3084 1428 2787 
Q 1159 2491 1159 1978 
L 1159 0 
L 581 0 
L 581 3500 
L 1159 3500 
L 1159 2956 
Q 1366 3272 1645 3428 
Q 1925 3584 2291 3584 
Q 2894 3584 3203 3211 
Q 3513 2838 3513 2113 
z
" id="DejaVuSans-6e" transform="scale(0.015625)"/>
        <path d="M 603 3500 
L 1178 3500 
L 1178 0 
L 603 0 
L 603 3500 
z
M 603 4863 
L 1178 4863 
L 1178 4134 
L 603 4134 
L 603 4863 
z
" id="DejaVuSans-69" transform="scale(0.015625)"/>
        <path d="M 2375 4863 
L 2375 4384 
L 1825 4384 
Q 1516 4384 1395 4259 
Q 1275 4134 1275 3809 
L 1275 3500 
L 2222 3500 
L 2222 3053 
L 1275 3053 
L 1275 0 
L 697 0 
L 697 3053 
L 147 3053 
L 147 3500 
L 697 3500 
L 697 3744 
Q 697 4328 969 4595 
Q 1241 4863 1831 4863 
L 2375 4863 
z
" id="DejaVuSans-66" transform="scale(0.015625)"/>
        <path d="M 3328 2828 
Q 3544 3216 3844 3400 
Q 4144 3584 4550 3584 
Q 5097 3584 5394 3201 
Q 5691 2819 5691 2113 
L 5691 0 
L 5113 0 
L 5113 2094 
Q 5113 2597 4934 2840 
Q 4756 3084 4391 3084 
Q 3944 3084 3684 2787 
Q 3425 2491 3425 1978 
L 3425 0 
L 2847 0 
L 2847 2094 
Q 2847 2600 2669 2842 
Q 2491 3084 2119 3084 
Q 1678 3084 1418 2786 
Q 1159 2488 1159 1978 
L 1159 0 
L 581 0 
L 581 3500 
L 1159 3500 
L 1159 2956 
Q 1356 3278 1631 3431 
Q 1906 3584 2284 3584 
Q 2666 3584 2933 3390 
Q 3200 3197 3328 2828 
z
" id="DejaVuSans-6d" transform="scale(0.015625)"/>
       </defs>
       <use xlink:href="#DejaVuSans-71"/>
       <use x="63.476562" xlink:href="#DejaVuSans-46"/>
       <use x="115.496094" xlink:href="#DejaVuSans-65"/>
       <use x="177.019531" xlink:href="#DejaVuSans-64"/>
       <use x="240.496094" xlink:href="#DejaVuSans-41"/>
       <use x="303.029297" xlink:href="#DejaVuSans-76"/>
       <use x="362.208984" xlink:href="#DejaVuSans-67"/>
       <use x="425.685547" xlink:href="#DejaVuSans-5f"/>
       <use x="475.685547" xlink:href="#DejaVuSans-30"/>
       <use x="539.308594" xlink:href="#DejaVuSans-30"/>
       <use x="602.931641" xlink:href="#DejaVuSans-31"/>
       <use x="666.554688" xlink:href="#DejaVuSans-5f"/>
       <use x="716.554688" xlink:href="#DejaVuSans-75"/>
       <use x="779.933594" xlink:href="#DejaVuSans-6e"/>
       <use x="843.3125" xlink:href="#DejaVuSans-69"/>
       <use x="871.095703" xlink:href="#DejaVuSans-66"/>
       <use x="906.300781" xlink:href="#DejaVuSans-6f"/>
       <use x="967.482422" xlink:href="#DejaVuSans-72"/>
       <use x="1006.845703" xlink:href="#DejaVuSans-6d"/>
       <use x="1104.257812" xlink:href="#DejaVuSans-20"/>
       <use x="1136.044922" xlink:href="#DejaVuSans-43"/>
       <use x="1205.869141" xlink:href="#DejaVuSans-4e"/>
       <use x="1280.673828" xlink:href="#DejaVuSans-4e"/>
      </g>
     </g>
    </g>
    <g id="xtick_5">
     <g id="line2d_9">
      <path clip-path="url(#p8a6578a65c)" d="M 303.594722 170.53 
L 303.594722 10.8 
" style="fill:none;stroke:#b0b0b0;stroke-linecap:square;stroke-width:0.8;"/>
     </g>
     <g id="line2d_10">
      <g>
       <use style="stroke:#000000;stroke-width:0.8;" x="303.594722" xlink:href="#m6a290c9cd0" y="170.53"/>
      </g>
     </g>
     <g id="text_5">
      <!-- qFedAvg_1_weighted CNN -->
      <g transform="translate(306.215035 307.805)rotate(-90)scale(0.1 -0.1)">
       <defs>
        <path d="M 269 3500 
L 844 3500 
L 1563 769 
L 2278 3500 
L 2956 3500 
L 3675 769 
L 4391 3500 
L 4966 3500 
L 4050 0 
L 3372 0 
L 2619 2869 
L 1863 0 
L 1184 0 
L 269 3500 
z
" id="DejaVuSans-77" transform="scale(0.015625)"/>
        <path d="M 3513 2113 
L 3513 0 
L 2938 0 
L 2938 2094 
Q 2938 2591 2744 2837 
Q 2550 3084 2163 3084 
Q 1697 3084 1428 2787 
Q 1159 2491 1159 1978 
L 1159 0 
L 581 0 
L 581 4863 
L 1159 4863 
L 1159 2956 
Q 1366 3272 1645 3428 
Q 1925 3584 2291 3584 
Q 2894 3584 3203 3211 
Q 3513 2838 3513 2113 
z
" id="DejaVuSans-68" transform="scale(0.015625)"/>
        <path d="M 1172 4494 
L 1172 3500 
L 2356 3500 
L 2356 3053 
L 1172 3053 
L 1172 1153 
Q 1172 725 1289 603 
Q 1406 481 1766 481 
L 2356 481 
L 2356 0 
L 1766 0 
Q 1100 0 847 248 
Q 594 497 594 1153 
L 594 3053 
L 172 3053 
L 172 3500 
L 594 3500 
L 594 4494 
L 1172 4494 
z
" id="DejaVuSans-74" transform="scale(0.015625)"/>
       </defs>
       <use xlink:href="#DejaVuSans-71"/>
       <use x="63.476562" xlink:href="#DejaVuSans-46"/>
       <use x="115.496094" xlink:href="#DejaVuSans-65"/>
       <use x="177.019531" xlink:href="#DejaVuSans-64"/>
       <use x="240.496094" xlink:href="#DejaVuSans-41"/>
       <use x="303.029297" xlink:href="#DejaVuSans-76"/>
       <use x="362.208984" xlink:href="#DejaVuSans-67"/>
       <use x="425.685547" xlink:href="#DejaVuSans-5f"/>
       <use x="475.685547" xlink:href="#DejaVuSans-31"/>
       <use x="539.308594" xlink:href="#DejaVuSans-5f"/>
       <use x="589.308594" xlink:href="#DejaVuSans-77"/>
       <use x="671.095703" xlink:href="#DejaVuSans-65"/>
       <use x="732.619141" xlink:href="#DejaVuSans-69"/>
       <use x="760.402344" xlink:href="#DejaVuSans-67"/>
       <use x="823.878906" xlink:href="#DejaVuSans-68"/>
       <use x="887.257812" xlink:href="#DejaVuSans-74"/>
       <use x="926.466797" xlink:href="#DejaVuSans-65"/>
       <use x="987.990234" xlink:href="#DejaVuSans-64"/>
       <use x="1051.466797" xlink:href="#DejaVuSans-20"/>
       <use x="1083.253906" xlink:href="#DejaVuSans-43"/>
       <use x="1153.078125" xlink:href="#DejaVuSans-4e"/>
       <use x="1227.882812" xlink:href="#DejaVuSans-4e"/>
      </g>
     </g>
    </g>
    <g id="xtick_6">
     <g id="line2d_11">
      <path clip-path="url(#p8a6578a65c)" d="M 359.904444 170.53 
L 359.904444 10.8 
" style="fill:none;stroke:#b0b0b0;stroke-linecap:square;stroke-width:0.8;"/>
     </g>
     <g id="line2d_12">
      <g>
       <use style="stroke:#000000;stroke-width:0.8;" x="359.904444" xlink:href="#m6a290c9cd0" y="170.53"/>
      </g>
     </g>
     <g id="text_6">
      <!-- qFedAvg_001_weighted CNN -->
      <g transform="translate(362.524757 320.53)rotate(-90)scale(0.1 -0.1)">
       <use xlink:href="#DejaVuSans-71"/>
       <use x="63.476562" xlink:href="#DejaVuSans-46"/>
       <use x="115.496094" xlink:href="#DejaVuSans-65"/>
       <use x="177.019531" xlink:href="#DejaVuSans-64"/>
       <use x="240.496094" xlink:href="#DejaVuSans-41"/>
       <use x="303.029297" xlink:href="#DejaVuSans-76"/>
       <use x="362.208984" xlink:href="#DejaVuSans-67"/>
       <use x="425.685547" xlink:href="#DejaVuSans-5f"/>
       <use x="475.685547" xlink:href="#DejaVuSans-30"/>
       <use x="539.308594" xlink:href="#DejaVuSans-30"/>
       <use x="602.931641" xlink:href="#DejaVuSans-31"/>
       <use x="666.554688" xlink:href="#DejaVuSans-5f"/>
       <use x="716.554688" xlink:href="#DejaVuSans-77"/>
       <use x="798.341797" xlink:href="#DejaVuSans-65"/>
       <use x="859.865234" xlink:href="#DejaVuSans-69"/>
       <use x="887.648438" xlink:href="#DejaVuSans-67"/>
       <use x="951.125" xlink:href="#DejaVuSans-68"/>
       <use x="1014.503906" xlink:href="#DejaVuSans-74"/>
       <use x="1053.712891" xlink:href="#DejaVuSans-65"/>
       <use x="1115.236328" xlink:href="#DejaVuSans-64"/>
       <use x="1178.712891" xlink:href="#DejaVuSans-20"/>
       <use x="1210.5" xlink:href="#DejaVuSans-43"/>
       <use x="1280.324219" xlink:href="#DejaVuSans-4e"/>
       <use x="1355.128906" xlink:href="#DejaVuSans-4e"/>
      </g>
     </g>
    </g>
    <g id="xtick_7">
     <g id="line2d_13">
      <path clip-path="url(#p8a6578a65c)" d="M 416.214167 170.53 
L 416.214167 10.8 
" style="fill:none;stroke:#b0b0b0;stroke-linecap:square;stroke-width:0.8;"/>
     </g>
     <g id="line2d_14">
      <g>
       <use style="stroke:#000000;stroke-width:0.8;" x="416.214167" xlink:href="#m6a290c9cd0" y="170.53"/>
      </g>
     </g>
     <g id="text_7">
      <!-- qFedAvg_1_uniform CNN -->
      <g transform="translate(418.834479 300.356562)rotate(-90)scale(0.1 -0.1)">
       <use xlink:href="#DejaVuSans-71"/>
       <use x="63.476562" xlink:href="#DejaVuSans-46"/>
       <use x="115.496094" xlink:href="#DejaVuSans-65"/>
       <use x="177.019531" xlink:href="#DejaVuSans-64"/>
       <use x="240.496094" xlink:href="#DejaVuSans-41"/>
       <use x="303.029297" xlink:href="#DejaVuSans-76"/>
       <use x="362.208984" xlink:href="#DejaVuSans-67"/>
       <use x="425.685547" xlink:href="#DejaVuSans-5f"/>
       <use x="475.685547" xlink:href="#DejaVuSans-31"/>
       <use x="539.308594" xlink:href="#DejaVuSans-5f"/>
       <use x="589.308594" xlink:href="#DejaVuSans-75"/>
       <use x="652.6875" xlink:href="#DejaVuSans-6e"/>
       <use x="716.066406" xlink:href="#DejaVuSans-69"/>
       <use x="743.849609" xlink:href="#DejaVuSans-66"/>
       <use x="779.054688" xlink:href="#DejaVuSans-6f"/>
       <use x="840.236328" xlink:href="#DejaVuSans-72"/>
       <use x="879.599609" xlink:href="#DejaVuSans-6d"/>
       <use x="977.011719" xlink:href="#DejaVuSans-20"/>
       <use x="1008.798828" xlink:href="#DejaVuSans-43"/>
       <use x="1078.623047" xlink:href="#DejaVuSans-4e"/>
       <use x="1153.427734" xlink:href="#DejaVuSans-4e"/>
      </g>
     </g>
    </g>
    <g id="text_8">
     <!-- Algorithms -->
     <g transform="translate(220.193594 332.128437)scale(0.1 -0.1)">
      <defs>
       <path d="M 603 4863 
L 1178 4863 
L 1178 0 
L 603 0 
L 603 4863 
z
" id="DejaVuSans-6c" transform="scale(0.015625)"/>
       <path d="M 2834 3397 
L 2834 2853 
Q 2591 2978 2328 3040 
Q 2066 3103 1784 3103 
Q 1356 3103 1142 2972 
Q 928 2841 928 2578 
Q 928 2378 1081 2264 
Q 1234 2150 1697 2047 
L 1894 2003 
Q 2506 1872 2764 1633 
Q 3022 1394 3022 966 
Q 3022 478 2636 193 
Q 2250 -91 1575 -91 
Q 1294 -91 989 -36 
Q 684 19 347 128 
L 347 722 
Q 666 556 975 473 
Q 1284 391 1588 391 
Q 1994 391 2212 530 
Q 2431 669 2431 922 
Q 2431 1156 2273 1281 
Q 2116 1406 1581 1522 
L 1381 1569 
Q 847 1681 609 1914 
Q 372 2147 372 2553 
Q 372 3047 722 3315 
Q 1072 3584 1716 3584 
Q 2034 3584 2315 3537 
Q 2597 3491 2834 3397 
z
" id="DejaVuSans-73" transform="scale(0.015625)"/>
      </defs>
      <use xlink:href="#DejaVuSans-41"/>
      <use x="68.408203" xlink:href="#DejaVuSans-6c"/>
      <use x="96.191406" xlink:href="#DejaVuSans-67"/>
      <use x="159.667969" xlink:href="#DejaVuSans-6f"/>
      <use x="220.849609" xlink:href="#DejaVuSans-72"/>
      <use x="261.962891" xlink:href="#DejaVuSans-69"/>
      <use x="289.746094" xlink:href="#DejaVuSans-74"/>
      <use x="328.955078" xlink:href="#DejaVuSans-68"/>
      <use x="392.333984" xlink:href="#DejaVuSans-6d"/>
      <use x="489.746094" xlink:href="#DejaVuSans-73"/>
     </g>
    </g>
   </g>
   <g id="matplotlib.axis_2">
    <g id="ytick_1">
     <g id="line2d_15">
      <path clip-path="url(#p8a6578a65c)" d="M 44.57 158.247818 
L 450 158.247818 
" style="fill:none;stroke:#b0b0b0;stroke-linecap:square;stroke-width:0.8;"/>
     </g>
     <g id="line2d_16">
      <defs>
       <path d="M 0 0 
L -3.5 0 
" id="mbc373ba65d" style="stroke:#000000;stroke-width:0.8;"/>
      </defs>
      <g>
       <use style="stroke:#000000;stroke-width:0.8;" x="44.57" xlink:href="#mbc373ba65d" y="158.247818"/>
      </g>
     </g>
     <g id="text_9">
      <!-- 5 -->
      <g transform="translate(31.2075 162.047036)scale(0.1 -0.1)">
       <defs>
        <path d="M 691 4666 
L 3169 4666 
L 3169 4134 
L 1269 4134 
L 1269 2991 
Q 1406 3038 1543 3061 
Q 1681 3084 1819 3084 
Q 2600 3084 3056 2656 
Q 3513 2228 3513 1497 
Q 3513 744 3044 326 
Q 2575 -91 1722 -91 
Q 1428 -91 1123 -41 
Q 819 9 494 109 
L 494 744 
Q 775 591 1075 516 
Q 1375 441 1709 441 
Q 2250 441 2565 725 
Q 2881 1009 2881 1497 
Q 2881 1984 2565 2268 
Q 2250 2553 1709 2553 
Q 1456 2553 1204 2497 
Q 953 2441 691 2322 
L 691 4666 
z
" id="DejaVuSans-35" transform="scale(0.015625)"/>
       </defs>
       <use xlink:href="#DejaVuSans-35"/>
      </g>
     </g>
    </g>
    <g id="ytick_2">
     <g id="line2d_17">
      <path clip-path="url(#p8a6578a65c)" d="M 44.57 131.235572 
L 450 131.235572 
" style="fill:none;stroke:#b0b0b0;stroke-linecap:square;stroke-width:0.8;"/>
     </g>
     <g id="line2d_18">
      <g>
       <use style="stroke:#000000;stroke-width:0.8;" x="44.57" xlink:href="#mbc373ba65d" y="131.235572"/>
      </g>
     </g>
     <g id="text_10">
      <!-- 6 -->
      <g transform="translate(31.2075 135.034791)scale(0.1 -0.1)">
       <defs>
        <path d="M 2113 2584 
Q 1688 2584 1439 2293 
Q 1191 2003 1191 1497 
Q 1191 994 1439 701 
Q 1688 409 2113 409 
Q 2538 409 2786 701 
Q 3034 994 3034 1497 
Q 3034 2003 2786 2293 
Q 2538 2584 2113 2584 
z
M 3366 4563 
L 3366 3988 
Q 3128 4100 2886 4159 
Q 2644 4219 2406 4219 
Q 1781 4219 1451 3797 
Q 1122 3375 1075 2522 
Q 1259 2794 1537 2939 
Q 1816 3084 2150 3084 
Q 2853 3084 3261 2657 
Q 3669 2231 3669 1497 
Q 3669 778 3244 343 
Q 2819 -91 2113 -91 
Q 1303 -91 875 529 
Q 447 1150 447 2328 
Q 447 3434 972 4092 
Q 1497 4750 2381 4750 
Q 2619 4750 2861 4703 
Q 3103 4656 3366 4563 
z
" id="DejaVuSans-36" transform="scale(0.015625)"/>
       </defs>
       <use xlink:href="#DejaVuSans-36"/>
      </g>
     </g>
    </g>
    <g id="ytick_3">
     <g id="line2d_19">
      <path clip-path="url(#p8a6578a65c)" d="M 44.57 104.223327 
L 450 104.223327 
" style="fill:none;stroke:#b0b0b0;stroke-linecap:square;stroke-width:0.8;"/>
     </g>
     <g id="line2d_20">
      <g>
       <use style="stroke:#000000;stroke-width:0.8;" x="44.57" xlink:href="#mbc373ba65d" y="104.223327"/>
      </g>
     </g>
     <g id="text_11">
      <!-- 7 -->
      <g transform="translate(31.2075 108.022545)scale(0.1 -0.1)">
       <defs>
        <path d="M 525 4666 
L 3525 4666 
L 3525 4397 
L 1831 0 
L 1172 0 
L 2766 4134 
L 525 4134 
L 525 4666 
z
" id="DejaVuSans-37" transform="scale(0.015625)"/>
       </defs>
       <use xlink:href="#DejaVuSans-37"/>
      </g>
     </g>
    </g>
    <g id="ytick_4">
     <g id="line2d_21">
      <path clip-path="url(#p8a6578a65c)" d="M 44.57 77.211081 
L 450 77.211081 
" style="fill:none;stroke:#b0b0b0;stroke-linecap:square;stroke-width:0.8;"/>
     </g>
     <g id="line2d_22">
      <g>
       <use style="stroke:#000000;stroke-width:0.8;" x="44.57" xlink:href="#mbc373ba65d" y="77.211081"/>
      </g>
     </g>
     <g id="text_12">
      <!-- 8 -->
      <g transform="translate(31.2075 81.0103)scale(0.1 -0.1)">
       <defs>
        <path d="M 2034 2216 
Q 1584 2216 1326 1975 
Q 1069 1734 1069 1313 
Q 1069 891 1326 650 
Q 1584 409 2034 409 
Q 2484 409 2743 651 
Q 3003 894 3003 1313 
Q 3003 1734 2745 1975 
Q 2488 2216 2034 2216 
z
M 1403 2484 
Q 997 2584 770 2862 
Q 544 3141 544 3541 
Q 544 4100 942 4425 
Q 1341 4750 2034 4750 
Q 2731 4750 3128 4425 
Q 3525 4100 3525 3541 
Q 3525 3141 3298 2862 
Q 3072 2584 2669 2484 
Q 3125 2378 3379 2068 
Q 3634 1759 3634 1313 
Q 3634 634 3220 271 
Q 2806 -91 2034 -91 
Q 1263 -91 848 271 
Q 434 634 434 1313 
Q 434 1759 690 2068 
Q 947 2378 1403 2484 
z
M 1172 3481 
Q 1172 3119 1398 2916 
Q 1625 2713 2034 2713 
Q 2441 2713 2670 2916 
Q 2900 3119 2900 3481 
Q 2900 3844 2670 4047 
Q 2441 4250 2034 4250 
Q 1625 4250 1398 4047 
Q 1172 3844 1172 3481 
z
" id="DejaVuSans-38" transform="scale(0.015625)"/>
       </defs>
       <use xlink:href="#DejaVuSans-38"/>
      </g>
     </g>
    </g>
    <g id="ytick_5">
     <g id="line2d_23">
      <path clip-path="url(#p8a6578a65c)" d="M 44.57 50.198836 
L 450 50.198836 
" style="fill:none;stroke:#b0b0b0;stroke-linecap:square;stroke-width:0.8;"/>
     </g>
     <g id="line2d_24">
      <g>
       <use style="stroke:#000000;stroke-width:0.8;" x="44.57" xlink:href="#mbc373ba65d" y="50.198836"/>
      </g>
     </g>
     <g id="text_13">
      <!-- 9 -->
      <g transform="translate(31.2075 53.998054)scale(0.1 -0.1)">
       <defs>
        <path d="M 703 97 
L 703 672 
Q 941 559 1184 500 
Q 1428 441 1663 441 
Q 2288 441 2617 861 
Q 2947 1281 2994 2138 
Q 2813 1869 2534 1725 
Q 2256 1581 1919 1581 
Q 1219 1581 811 2004 
Q 403 2428 403 3163 
Q 403 3881 828 4315 
Q 1253 4750 1959 4750 
Q 2769 4750 3195 4129 
Q 3622 3509 3622 2328 
Q 3622 1225 3098 567 
Q 2575 -91 1691 -91 
Q 1453 -91 1209 -44 
Q 966 3 703 97 
z
M 1959 2075 
Q 2384 2075 2632 2365 
Q 2881 2656 2881 3163 
Q 2881 3666 2632 3958 
Q 2384 4250 1959 4250 
Q 1534 4250 1286 3958 
Q 1038 3666 1038 3163 
Q 1038 2656 1286 2365 
Q 1534 2075 1959 2075 
z
" id="DejaVuSans-39" transform="scale(0.015625)"/>
       </defs>
       <use xlink:href="#DejaVuSans-39"/>
      </g>
     </g>
    </g>
    <g id="ytick_6">
     <g id="line2d_25">
      <path clip-path="url(#p8a6578a65c)" d="M 44.57 23.18659 
L 450 23.18659 
" style="fill:none;stroke:#b0b0b0;stroke-linecap:square;stroke-width:0.8;"/>
     </g>
     <g id="line2d_26">
      <g>
       <use style="stroke:#000000;stroke-width:0.8;" x="44.57" xlink:href="#mbc373ba65d" y="23.18659"/>
      </g>
     </g>
     <g id="text_14">
      <!-- 10 -->
      <g transform="translate(24.845 26.985809)scale(0.1 -0.1)">
       <use xlink:href="#DejaVuSans-31"/>
       <use x="63.623047" xlink:href="#DejaVuSans-30"/>
      </g>
     </g>
    </g>
    <g id="text_15">
     <!-- Entropy -->
     <g transform="translate(18.765313 110.089219)rotate(-90)scale(0.1 -0.1)">
      <defs>
       <path d="M 628 4666 
L 3578 4666 
L 3578 4134 
L 1259 4134 
L 1259 2753 
L 3481 2753 
L 3481 2222 
L 1259 2222 
L 1259 531 
L 3634 531 
L 3634 0 
L 628 0 
L 628 4666 
z
" id="DejaVuSans-45" transform="scale(0.015625)"/>
       <path d="M 1159 525 
L 1159 -1331 
L 581 -1331 
L 581 3500 
L 1159 3500 
L 1159 2969 
Q 1341 3281 1617 3432 
Q 1894 3584 2278 3584 
Q 2916 3584 3314 3078 
Q 3713 2572 3713 1747 
Q 3713 922 3314 415 
Q 2916 -91 2278 -91 
Q 1894 -91 1617 61 
Q 1341 213 1159 525 
z
M 3116 1747 
Q 3116 2381 2855 2742 
Q 2594 3103 2138 3103 
Q 1681 3103 1420 2742 
Q 1159 2381 1159 1747 
Q 1159 1113 1420 752 
Q 1681 391 2138 391 
Q 2594 391 2855 752 
Q 3116 1113 3116 1747 
z
" id="DejaVuSans-70" transform="scale(0.015625)"/>
       <path d="M 2059 -325 
Q 1816 -950 1584 -1140 
Q 1353 -1331 966 -1331 
L 506 -1331 
L 506 -850 
L 844 -850 
Q 1081 -850 1212 -737 
Q 1344 -625 1503 -206 
L 1606 56 
L 191 3500 
L 800 3500 
L 1894 763 
L 2988 3500 
L 3597 3500 
L 2059 -325 
z
" id="DejaVuSans-79" transform="scale(0.015625)"/>
      </defs>
      <use xlink:href="#DejaVuSans-45"/>
      <use x="63.183594" xlink:href="#DejaVuSans-6e"/>
      <use x="126.5625" xlink:href="#DejaVuSans-74"/>
      <use x="165.771484" xlink:href="#DejaVuSans-72"/>
      <use x="204.634766" xlink:href="#DejaVuSans-6f"/>
      <use x="265.816406" xlink:href="#DejaVuSans-70"/>
      <use x="329.292969" xlink:href="#DejaVuSans-79"/>
     </g>
    </g>
   </g>
   <g id="LineCollection_1">
    <path clip-path="url(#p8a6578a65c)" d="M 78.355833 155.094949 
L 78.355833 151.323448 
" style="fill:none;stroke:#000000;stroke-width:3;"/>
    <path clip-path="url(#p8a6578a65c)" d="M 134.665556 156.271504 
L 134.665556 150.825827 
" style="fill:none;stroke:#000000;stroke-width:3;"/>
    <path clip-path="url(#p8a6578a65c)" d="M 190.975278 149.371016 
L 190.975278 146.275228 
" style="fill:none;stroke:#000000;stroke-width:3;"/>
    <path clip-path="url(#p8a6578a65c)" d="M 247.285 142.13017 
L 247.285 138.207 
" style="fill:none;stroke:#000000;stroke-width:3;"/>
    <path clip-path="url(#p8a6578a65c)" d="M 303.594722 125.801669 
L 303.594722 123.259024 
" style="fill:none;stroke:#000000;stroke-width:3;"/>
    <path clip-path="url(#p8a6578a65c)" d="M 359.904444 141.975645 
L 359.904444 138.400539 
" style="fill:none;stroke:#000000;stroke-width:3;"/>
    <path clip-path="url(#p8a6578a65c)" d="M 416.214167 124.369046 
L 416.214167 121.474549 
" style="fill:none;stroke:#000000;stroke-width:3;"/>
   </g>
   <g id="LineCollection_2">
    <path clip-path="url(#p8a6578a65c)" d="M 78.355833 155.571456 
L 78.355833 150.108819 
" style="fill:none;stroke:#000000;"/>
    <path clip-path="url(#p8a6578a65c)" d="M 134.665556 157.219167 
L 134.665556 149.628762 
" style="fill:none;stroke:#000000;"/>
    <path clip-path="url(#p8a6578a65c)" d="M 190.975278 150.799024 
L 190.975278 146.56497 
" style="fill:none;stroke:#000000;"/>
    <path clip-path="url(#p8a6578a65c)" d="M 247.285 142.170778 
L 247.285 136.61591 
" style="fill:none;stroke:#000000;"/>
    <path clip-path="url(#p8a6578a65c)" d="M 303.594722 125.80045 
L 303.594722 122.355068 
" style="fill:none;stroke:#000000;"/>
    <path clip-path="url(#p8a6578a65c)" d="M 359.904444 142.548042 
L 359.904444 138.093662 
" style="fill:none;stroke:#000000;"/>
    <path clip-path="url(#p8a6578a65c)" d="M 416.214167 124.516048 
L 416.214167 120.32651 
" style="fill:none;stroke:#000000;"/>
   </g>
   <g id="LineCollection_3">
    <path clip-path="url(#p8a6578a65c)" d="M 78.355833 24.110833 
L 78.355833 24.110833 
" style="fill:none;stroke:#ff0000;"/>
    <path clip-path="url(#p8a6578a65c)" d="M 134.665556 24.110833 
L 134.665556 24.110833 
" style="fill:none;stroke:#ff0000;"/>
    <path clip-path="url(#p8a6578a65c)" d="M 190.975278 24.110833 
L 190.975278 24.110833 
" style="fill:none;stroke:#ff0000;"/>
    <path clip-path="url(#p8a6578a65c)" d="M 247.285 24.110833 
L 247.285 24.110833 
" style="fill:none;stroke:#ff0000;"/>
    <path clip-path="url(#p8a6578a65c)" d="M 303.594722 24.110833 
L 303.594722 24.110833 
" style="fill:none;stroke:#ff0000;"/>
    <path clip-path="url(#p8a6578a65c)" d="M 359.904444 24.110833 
L 359.904444 24.110833 
" style="fill:none;stroke:#ff0000;"/>
    <path clip-path="url(#p8a6578a65c)" d="M 416.214167 24.110833 
L 416.214167 24.110833 
" style="fill:none;stroke:#ff0000;"/>
   </g>
   <g id="line2d_27">
    <defs>
     <path d="M 0 3 
C 0.795609 3 1.55874 2.683901 2.12132 2.12132 
C 2.683901 1.55874 3 0.795609 3 0 
C 3 -0.795609 2.683901 -1.55874 2.12132 -2.12132 
C 1.55874 -2.683901 0.795609 -3 0 -3 
C -0.795609 -3 -1.55874 -2.683901 -2.12132 -2.12132 
C -2.683901 -1.55874 -3 -0.795609 -3 0 
C -3 0.795609 -2.683901 1.55874 -2.12132 2.12132 
C -1.55874 2.683901 -0.795609 3 0 3 
z
" id="m42ed747e73" style="stroke:#000000;"/>
    </defs>
    <g clip-path="url(#p8a6578a65c)">
     <use style="stroke:#000000;" x="78.355833" xlink:href="#m42ed747e73" y="153.209198"/>
     <use style="stroke:#000000;" x="134.665556" xlink:href="#m42ed747e73" y="153.548666"/>
     <use style="stroke:#000000;" x="190.975278" xlink:href="#m42ed747e73" y="147.823122"/>
     <use style="stroke:#000000;" x="247.285" xlink:href="#m42ed747e73" y="140.168585"/>
     <use style="stroke:#000000;" x="303.594722" xlink:href="#m42ed747e73" y="124.530346"/>
     <use style="stroke:#000000;" x="359.904444" xlink:href="#m42ed747e73" y="140.188092"/>
     <use style="stroke:#000000;" x="416.214167" xlink:href="#m42ed747e73" y="122.921798"/>
    </g>
   </g>
   <g id="line2d_28">
    <defs>
     <path d="M 0 1.5 
C 0.397805 1.5 0.77937 1.341951 1.06066 1.06066 
C 1.341951 0.77937 1.5 0.397805 1.5 0 
C 1.5 -0.397805 1.341951 -0.77937 1.06066 -1.06066 
C 0.77937 -1.341951 0.397805 -1.5 0 -1.5 
C -0.397805 -1.5 -0.77937 -1.341951 -1.06066 -1.06066 
C -1.341951 -0.77937 -1.5 -0.397805 -1.5 0 
C -1.5 0.397805 -1.341951 0.77937 -1.06066 1.06066 
C -0.77937 1.341951 -0.397805 1.5 0 1.5 
z
" id="m9ec9a4bfe9" style="stroke:#000000;"/>
    </defs>
    <g clip-path="url(#p8a6578a65c)">
     <use style="stroke:#000000;" x="78.355833" xlink:href="#m9ec9a4bfe9" y="153.209198"/>
     <use style="stroke:#000000;" x="134.665556" xlink:href="#m9ec9a4bfe9" y="153.548666"/>
     <use style="stroke:#000000;" x="190.975278" xlink:href="#m9ec9a4bfe9" y="147.823122"/>
     <use style="stroke:#000000;" x="247.285" xlink:href="#m9ec9a4bfe9" y="140.168585"/>
     <use style="stroke:#000000;" x="303.594722" xlink:href="#m9ec9a4bfe9" y="124.530346"/>
     <use style="stroke:#000000;" x="359.904444" xlink:href="#m9ec9a4bfe9" y="140.188092"/>
     <use style="stroke:#000000;" x="416.214167" xlink:href="#m9ec9a4bfe9" y="122.921798"/>
    </g>
   </g>
   <g id="line2d_29">
    <defs>
     <path d="M -0 4.242641 
L 4.242641 0 
L 0 -4.242641 
L -4.242641 -0 
z
" id="m0bccf5d5d9" style="stroke:#ff0000;stroke-linejoin:miter;"/>
    </defs>
    <g clip-path="url(#p8a6578a65c)">
     <use style="fill:#ff0000;stroke:#ff0000;stroke-linejoin:miter;" x="78.355833" xlink:href="#m0bccf5d5d9" y="24.110833"/>
     <use style="fill:#ff0000;stroke:#ff0000;stroke-linejoin:miter;" x="134.665556" xlink:href="#m0bccf5d5d9" y="24.110833"/>
     <use style="fill:#ff0000;stroke:#ff0000;stroke-linejoin:miter;" x="190.975278" xlink:href="#m0bccf5d5d9" y="24.110833"/>
     <use style="fill:#ff0000;stroke:#ff0000;stroke-linejoin:miter;" x="247.285" xlink:href="#m0bccf5d5d9" y="24.110833"/>
     <use style="fill:#ff0000;stroke:#ff0000;stroke-linejoin:miter;" x="303.594722" xlink:href="#m0bccf5d5d9" y="24.110833"/>
     <use style="fill:#ff0000;stroke:#ff0000;stroke-linejoin:miter;" x="359.904444" xlink:href="#m0bccf5d5d9" y="24.110833"/>
     <use style="fill:#ff0000;stroke:#ff0000;stroke-linejoin:miter;" x="416.214167" xlink:href="#m0bccf5d5d9" y="24.110833"/>
    </g>
   </g>
   <g id="patch_3">
    <path d="M 44.57 170.53 
L 44.57 10.8 
" style="fill:none;stroke:#000000;stroke-linecap:square;stroke-linejoin:miter;stroke-width:0.8;"/>
   </g>
   <g id="patch_4">
    <path d="M 450 170.53 
L 450 10.8 
" style="fill:none;stroke:#000000;stroke-linecap:square;stroke-linejoin:miter;stroke-width:0.8;"/>
   </g>
   <g id="patch_5">
    <path d="M 44.57 170.53 
L 450 170.53 
" style="fill:none;stroke:#000000;stroke-linecap:square;stroke-linejoin:miter;stroke-width:0.8;"/>
   </g>
   <g id="patch_6">
    <path d="M 44.57 10.8 
L 450 10.8 
" style="fill:none;stroke:#000000;stroke-linecap:square;stroke-linejoin:miter;stroke-width:0.8;"/>
   </g>
   <g id="axes_2">
    <g id="patch_7">
     <path d="M 56.7329 82.6785 
L 97.2759 82.6785 
L 97.2759 42.746 
L 56.7329 42.746 
z
" style="fill:#ffffff;"/>
    </g>
    <g id="patch_8">
     <path clip-path="url(#pac87948f9b)" d="M 84.21123 82.6785 
L 84.458056 82.6785 
L 84.458056 81.526047 
L 84.21123 81.526047 
z
" style="fill:#1f77b4;"/>
    </g>
    <g id="patch_9">
     <path clip-path="url(#pac87948f9b)" d="M 84.458056 82.6785 
L 84.704882 82.6785 
L 84.704882 82.6785 
L 84.458056 82.6785 
z
" style="fill:#1f77b4;"/>
    </g>
    <g id="patch_10">
     <path clip-path="url(#pac87948f9b)" d="M 84.704882 82.6785 
L 84.951708 82.6785 
L 84.951708 82.6785 
L 84.704882 82.6785 
z
" style="fill:#1f77b4;"/>
    </g>
    <g id="patch_11">
     <path clip-path="url(#pac87948f9b)" d="M 84.951708 82.6785 
L 85.198534 82.6785 
L 85.198534 82.6785 
L 84.951708 82.6785 
z
" style="fill:#1f77b4;"/>
    </g>
    <g id="patch_12">
     <path clip-path="url(#pac87948f9b)" d="M 85.198534 82.6785 
L 85.44536 82.6785 
L 85.44536 82.6785 
L 85.198534 82.6785 
z
" style="fill:#1f77b4;"/>
    </g>
    <g id="patch_13">
     <path clip-path="url(#pac87948f9b)" d="M 85.44536 82.6785 
L 85.692186 82.6785 
L 85.692186 81.526047 
L 85.44536 81.526047 
z
" style="fill:#1f77b4;"/>
    </g>
    <g id="patch_14">
     <path clip-path="url(#pac87948f9b)" d="M 85.692186 82.6785 
L 85.939012 82.6785 
L 85.939012 82.6785 
L 85.692186 82.6785 
z
" style="fill:#1f77b4;"/>
    </g>
    <g id="patch_15">
     <path clip-path="url(#pac87948f9b)" d="M 85.939012 82.6785 
L 86.185838 82.6785 
L 86.185838 82.6785 
L 85.939012 82.6785 
z
" style="fill:#1f77b4;"/>
    </g>
    <g id="patch_16">
     <path clip-path="url(#pac87948f9b)" d="M 86.185838 82.6785 
L 86.432664 82.6785 
L 86.432664 82.6785 
L 86.185838 82.6785 
z
" style="fill:#1f77b4;"/>
    </g>
    <g id="patch_17">
     <path clip-path="url(#pac87948f9b)" d="M 86.432664 82.6785 
L 86.67949 82.6785 
L 86.67949 82.6785 
L 86.432664 82.6785 
z
" style="fill:#1f77b4;"/>
    </g>
    <g id="patch_18">
     <path clip-path="url(#pac87948f9b)" d="M 86.67949 82.6785 
L 86.926316 82.6785 
L 86.926316 82.6785 
L 86.67949 82.6785 
z
" style="fill:#1f77b4;"/>
    </g>
    <g id="patch_19">
     <path clip-path="url(#pac87948f9b)" d="M 86.926316 82.6785 
L 87.173142 82.6785 
L 87.173142 82.6785 
L 86.926316 82.6785 
z
" style="fill:#1f77b4;"/>
    </g>
    <g id="patch_20">
     <path clip-path="url(#pac87948f9b)" d="M 87.173142 82.6785 
L 87.419968 82.6785 
L 87.419968 82.6785 
L 87.173142 82.6785 
z
" style="fill:#1f77b4;"/>
    </g>
    <g id="patch_21">
     <path clip-path="url(#pac87948f9b)" d="M 87.419968 82.6785 
L 87.666794 82.6785 
L 87.666794 81.526047 
L 87.419968 81.526047 
z
" style="fill:#1f77b4;"/>
    </g>
    <g id="patch_22">
     <path clip-path="url(#pac87948f9b)" d="M 87.666794 82.6785 
L 87.91362 82.6785 
L 87.91362 79.221141 
L 87.666794 79.221141 
z
" style="fill:#1f77b4;"/>
    </g>
    <g id="patch_23">
     <path clip-path="url(#pac87948f9b)" d="M 87.91362 82.6785 
L 88.160446 82.6785 
L 88.160446 61.934344 
L 87.91362 61.934344 
z
" style="fill:#1f77b4;"/>
    </g>
    <g id="patch_24">
     <path clip-path="url(#pac87948f9b)" d="M 88.160446 82.6785 
L 88.407271 82.6785 
L 88.407271 44.647548 
L 88.160446 44.647548 
z
" style="fill:#1f77b4;"/>
    </g>
    <g id="patch_25">
     <path clip-path="url(#pac87948f9b)" d="M 88.407271 82.6785 
L 88.654097 82.6785 
L 88.654097 56.172079 
L 88.407271 56.172079 
z
" style="fill:#1f77b4;"/>
    </g>
    <g id="patch_26">
     <path clip-path="url(#pac87948f9b)" d="M 88.654097 82.6785 
L 88.900923 82.6785 
L 88.900923 65.391703 
L 88.654097 65.391703 
z
" style="fill:#1f77b4;"/>
    </g>
    <g id="patch_27">
     <path clip-path="url(#pac87948f9b)" d="M 88.900923 82.6785 
L 89.147749 82.6785 
L 89.147749 76.916234 
L 88.900923 76.916234 
z
" style="fill:#1f77b4;"/>
    </g>
    <g id="patch_28">
     <path d="M 56.7329 82.6785 
L 56.7329 42.746 
" style="fill:none;stroke:#000000;stroke-linecap:square;stroke-linejoin:miter;stroke-width:0.8;"/>
    </g>
    <g id="patch_29">
     <path d="M 97.2759 82.6785 
L 97.2759 42.746 
" style="fill:none;stroke:#000000;stroke-linecap:square;stroke-linejoin:miter;stroke-width:0.8;"/>
    </g>
    <g id="patch_30">
     <path d="M 56.7329 82.6785 
L 97.2759 82.6785 
" style="fill:none;stroke:#000000;stroke-linecap:square;stroke-linejoin:miter;stroke-width:0.8;"/>
    </g>
    <g id="patch_31">
     <path d="M 56.7329 42.746 
L 97.2759 42.746 
" style="fill:none;stroke:#000000;stroke-linecap:square;stroke-linejoin:miter;stroke-width:0.8;"/>
    </g>
   </g>
   <g id="axes_3">
    <g id="patch_32">
     <path d="M 113.290385 82.6785 
L 153.833385 82.6785 
L 153.833385 42.746 
L 113.290385 42.746 
z
" style="fill:#ffffff;"/>
    </g>
    <g id="patch_33">
     <path clip-path="url(#p6e76e0d8d8)" d="M 140.768715 82.6785 
L 141.015541 82.6785 
L 141.015541 81.526047 
L 140.768715 81.526047 
z
" style="fill:#1f77b4;"/>
    </g>
    <g id="patch_34">
     <path clip-path="url(#p6e76e0d8d8)" d="M 141.015541 82.6785 
L 141.262367 82.6785 
L 141.262367 82.6785 
L 141.015541 82.6785 
z
" style="fill:#1f77b4;"/>
    </g>
    <g id="patch_35">
     <path clip-path="url(#p6e76e0d8d8)" d="M 141.262367 82.6785 
L 141.509193 82.6785 
L 141.509193 82.6785 
L 141.262367 82.6785 
z
" style="fill:#1f77b4;"/>
    </g>
    <g id="patch_36">
     <path clip-path="url(#p6e76e0d8d8)" d="M 141.509193 82.6785 
L 141.756019 82.6785 
L 141.756019 82.6785 
L 141.509193 82.6785 
z
" style="fill:#1f77b4;"/>
    </g>
    <g id="patch_37">
     <path clip-path="url(#p6e76e0d8d8)" d="M 141.756019 82.6785 
L 142.002845 82.6785 
L 142.002845 82.6785 
L 141.756019 82.6785 
z
" style="fill:#1f77b4;"/>
    </g>
    <g id="patch_38">
     <path clip-path="url(#p6e76e0d8d8)" d="M 142.002845 82.6785 
L 142.249671 82.6785 
L 142.249671 81.526047 
L 142.002845 81.526047 
z
" style="fill:#1f77b4;"/>
    </g>
    <g id="patch_39">
     <path clip-path="url(#p6e76e0d8d8)" d="M 142.249671 82.6785 
L 142.496497 82.6785 
L 142.496497 82.6785 
L 142.249671 82.6785 
z
" style="fill:#1f77b4;"/>
    </g>
    <g id="patch_40">
     <path clip-path="url(#p6e76e0d8d8)" d="M 142.496497 82.6785 
L 142.743323 82.6785 
L 142.743323 82.6785 
L 142.496497 82.6785 
z
" style="fill:#1f77b4;"/>
    </g>
    <g id="patch_41">
     <path clip-path="url(#p6e76e0d8d8)" d="M 142.743323 82.6785 
L 142.990149 82.6785 
L 142.990149 82.6785 
L 142.743323 82.6785 
z
" style="fill:#1f77b4;"/>
    </g>
    <g id="patch_42">
     <path clip-path="url(#p6e76e0d8d8)" d="M 142.990149 82.6785 
L 143.236975 82.6785 
L 143.236975 82.6785 
L 142.990149 82.6785 
z
" style="fill:#1f77b4;"/>
    </g>
    <g id="patch_43">
     <path clip-path="url(#p6e76e0d8d8)" d="M 143.236975 82.6785 
L 143.483801 82.6785 
L 143.483801 82.6785 
L 143.236975 82.6785 
z
" style="fill:#1f77b4;"/>
    </g>
    <g id="patch_44">
     <path clip-path="url(#p6e76e0d8d8)" d="M 143.483801 82.6785 
L 143.730627 82.6785 
L 143.730627 82.6785 
L 143.483801 82.6785 
z
" style="fill:#1f77b4;"/>
    </g>
    <g id="patch_45">
     <path clip-path="url(#p6e76e0d8d8)" d="M 143.730627 82.6785 
L 143.977453 82.6785 
L 143.977453 82.6785 
L 143.730627 82.6785 
z
" style="fill:#1f77b4;"/>
    </g>
    <g id="patch_46">
     <path clip-path="url(#p6e76e0d8d8)" d="M 143.977453 82.6785 
L 144.224279 82.6785 
L 144.224279 81.526047 
L 143.977453 81.526047 
z
" style="fill:#1f77b4;"/>
    </g>
    <g id="patch_47">
     <path clip-path="url(#p6e76e0d8d8)" d="M 144.224279 82.6785 
L 144.471105 82.6785 
L 144.471105 79.221141 
L 144.224279 79.221141 
z
" style="fill:#1f77b4;"/>
    </g>
    <g id="patch_48">
     <path clip-path="url(#p6e76e0d8d8)" d="M 144.471105 82.6785 
L 144.717931 82.6785 
L 144.717931 61.934344 
L 144.471105 61.934344 
z
" style="fill:#1f77b4;"/>
    </g>
    <g id="patch_49">
     <path clip-path="url(#p6e76e0d8d8)" d="M 144.717931 82.6785 
L 144.964756 82.6785 
L 144.964756 44.647548 
L 144.717931 44.647548 
z
" style="fill:#1f77b4;"/>
    </g>
    <g id="patch_50">
     <path clip-path="url(#p6e76e0d8d8)" d="M 144.964756 82.6785 
L 145.211582 82.6785 
L 145.211582 56.172079 
L 144.964756 56.172079 
z
" style="fill:#1f77b4;"/>
    </g>
    <g id="patch_51">
     <path clip-path="url(#p6e76e0d8d8)" d="M 145.211582 82.6785 
L 145.458408 82.6785 
L 145.458408 65.391703 
L 145.211582 65.391703 
z
" style="fill:#1f77b4;"/>
    </g>
    <g id="patch_52">
     <path clip-path="url(#p6e76e0d8d8)" d="M 145.458408 82.6785 
L 145.705234 82.6785 
L 145.705234 76.916234 
L 145.458408 76.916234 
z
" style="fill:#1f77b4;"/>
    </g>
    <g id="patch_53">
     <path d="M 113.290385 82.6785 
L 113.290385 42.746 
" style="fill:none;stroke:#000000;stroke-linecap:square;stroke-linejoin:miter;stroke-width:0.8;"/>
    </g>
    <g id="patch_54">
     <path d="M 153.833385 82.6785 
L 153.833385 42.746 
" style="fill:none;stroke:#000000;stroke-linecap:square;stroke-linejoin:miter;stroke-width:0.8;"/>
    </g>
    <g id="patch_55">
     <path d="M 113.290385 82.6785 
L 153.833385 82.6785 
" style="fill:none;stroke:#000000;stroke-linecap:square;stroke-linejoin:miter;stroke-width:0.8;"/>
    </g>
    <g id="patch_56">
     <path d="M 113.290385 42.746 
L 153.833385 42.746 
" style="fill:none;stroke:#000000;stroke-linecap:square;stroke-linejoin:miter;stroke-width:0.8;"/>
    </g>
   </g>
   <g id="axes_4">
    <g id="patch_57">
     <path d="M 169.84787 82.6785 
L 210.39087 82.6785 
L 210.39087 42.746 
L 169.84787 42.746 
z
" style="fill:#ffffff;"/>
    </g>
    <g id="patch_58">
     <path clip-path="url(#p519441a9dd)" d="M 197.3262 82.6785 
L 197.573026 82.6785 
L 197.573026 81.526047 
L 197.3262 81.526047 
z
" style="fill:#1f77b4;"/>
    </g>
    <g id="patch_59">
     <path clip-path="url(#p519441a9dd)" d="M 197.573026 82.6785 
L 197.819852 82.6785 
L 197.819852 82.6785 
L 197.573026 82.6785 
z
" style="fill:#1f77b4;"/>
    </g>
    <g id="patch_60">
     <path clip-path="url(#p519441a9dd)" d="M 197.819852 82.6785 
L 198.066678 82.6785 
L 198.066678 82.6785 
L 197.819852 82.6785 
z
" style="fill:#1f77b4;"/>
    </g>
    <g id="patch_61">
     <path clip-path="url(#p519441a9dd)" d="M 198.066678 82.6785 
L 198.313504 82.6785 
L 198.313504 82.6785 
L 198.066678 82.6785 
z
" style="fill:#1f77b4;"/>
    </g>
    <g id="patch_62">
     <path clip-path="url(#p519441a9dd)" d="M 198.313504 82.6785 
L 198.56033 82.6785 
L 198.56033 82.6785 
L 198.313504 82.6785 
z
" style="fill:#1f77b4;"/>
    </g>
    <g id="patch_63">
     <path clip-path="url(#p519441a9dd)" d="M 198.56033 82.6785 
L 198.807156 82.6785 
L 198.807156 81.526047 
L 198.56033 81.526047 
z
" style="fill:#1f77b4;"/>
    </g>
    <g id="patch_64">
     <path clip-path="url(#p519441a9dd)" d="M 198.807156 82.6785 
L 199.053982 82.6785 
L 199.053982 82.6785 
L 198.807156 82.6785 
z
" style="fill:#1f77b4;"/>
    </g>
    <g id="patch_65">
     <path clip-path="url(#p519441a9dd)" d="M 199.053982 82.6785 
L 199.300808 82.6785 
L 199.300808 82.6785 
L 199.053982 82.6785 
z
" style="fill:#1f77b4;"/>
    </g>
    <g id="patch_66">
     <path clip-path="url(#p519441a9dd)" d="M 199.300808 82.6785 
L 199.547634 82.6785 
L 199.547634 82.6785 
L 199.300808 82.6785 
z
" style="fill:#1f77b4;"/>
    </g>
    <g id="patch_67">
     <path clip-path="url(#p519441a9dd)" d="M 199.547634 82.6785 
L 199.79446 82.6785 
L 199.79446 82.6785 
L 199.547634 82.6785 
z
" style="fill:#1f77b4;"/>
    </g>
    <g id="patch_68">
     <path clip-path="url(#p519441a9dd)" d="M 199.79446 82.6785 
L 200.041286 82.6785 
L 200.041286 82.6785 
L 199.79446 82.6785 
z
" style="fill:#1f77b4;"/>
    </g>
    <g id="patch_69">
     <path clip-path="url(#p519441a9dd)" d="M 200.041286 82.6785 
L 200.288112 82.6785 
L 200.288112 82.6785 
L 200.041286 82.6785 
z
" style="fill:#1f77b4;"/>
    </g>
    <g id="patch_70">
     <path clip-path="url(#p519441a9dd)" d="M 200.288112 82.6785 
L 200.534938 82.6785 
L 200.534938 82.6785 
L 200.288112 82.6785 
z
" style="fill:#1f77b4;"/>
    </g>
    <g id="patch_71">
     <path clip-path="url(#p519441a9dd)" d="M 200.534938 82.6785 
L 200.781764 82.6785 
L 200.781764 81.526047 
L 200.534938 81.526047 
z
" style="fill:#1f77b4;"/>
    </g>
    <g id="patch_72">
     <path clip-path="url(#p519441a9dd)" d="M 200.781764 82.6785 
L 201.02859 82.6785 
L 201.02859 79.221141 
L 200.781764 79.221141 
z
" style="fill:#1f77b4;"/>
    </g>
    <g id="patch_73">
     <path clip-path="url(#p519441a9dd)" d="M 201.02859 82.6785 
L 201.275416 82.6785 
L 201.275416 61.934344 
L 201.02859 61.934344 
z
" style="fill:#1f77b4;"/>
    </g>
    <g id="patch_74">
     <path clip-path="url(#p519441a9dd)" d="M 201.275416 82.6785 
L 201.522241 82.6785 
L 201.522241 44.647548 
L 201.275416 44.647548 
z
" style="fill:#1f77b4;"/>
    </g>
    <g id="patch_75">
     <path clip-path="url(#p519441a9dd)" d="M 201.522241 82.6785 
L 201.769067 82.6785 
L 201.769067 56.172079 
L 201.522241 56.172079 
z
" style="fill:#1f77b4;"/>
    </g>
    <g id="patch_76">
     <path clip-path="url(#p519441a9dd)" d="M 201.769067 82.6785 
L 202.015893 82.6785 
L 202.015893 65.391703 
L 201.769067 65.391703 
z
" style="fill:#1f77b4;"/>
    </g>
    <g id="patch_77">
     <path clip-path="url(#p519441a9dd)" d="M 202.015893 82.6785 
L 202.262719 82.6785 
L 202.262719 76.916234 
L 202.015893 76.916234 
z
" style="fill:#1f77b4;"/>
    </g>
    <g id="patch_78">
     <path d="M 169.84787 82.6785 
L 169.84787 42.746 
" style="fill:none;stroke:#000000;stroke-linecap:square;stroke-linejoin:miter;stroke-width:0.8;"/>
    </g>
    <g id="patch_79">
     <path d="M 210.39087 82.6785 
L 210.39087 42.746 
" style="fill:none;stroke:#000000;stroke-linecap:square;stroke-linejoin:miter;stroke-width:0.8;"/>
    </g>
    <g id="patch_80">
     <path d="M 169.84787 82.6785 
L 210.39087 82.6785 
" style="fill:none;stroke:#000000;stroke-linecap:square;stroke-linejoin:miter;stroke-width:0.8;"/>
    </g>
    <g id="patch_81">
     <path d="M 169.84787 42.746 
L 210.39087 42.746 
" style="fill:none;stroke:#000000;stroke-linecap:square;stroke-linejoin:miter;stroke-width:0.8;"/>
    </g>
   </g>
   <g id="axes_5">
    <g id="patch_82">
     <path d="M 226.405355 82.6785 
L 266.948355 82.6785 
L 266.948355 42.746 
L 226.405355 42.746 
z
" style="fill:#ffffff;"/>
    </g>
    <g id="patch_83">
     <path clip-path="url(#pcc9057168e)" d="M 253.883685 82.6785 
L 254.130511 82.6785 
L 254.130511 81.526047 
L 253.883685 81.526047 
z
" style="fill:#1f77b4;"/>
    </g>
    <g id="patch_84">
     <path clip-path="url(#pcc9057168e)" d="M 254.130511 82.6785 
L 254.377337 82.6785 
L 254.377337 82.6785 
L 254.130511 82.6785 
z
" style="fill:#1f77b4;"/>
    </g>
    <g id="patch_85">
     <path clip-path="url(#pcc9057168e)" d="M 254.377337 82.6785 
L 254.624163 82.6785 
L 254.624163 82.6785 
L 254.377337 82.6785 
z
" style="fill:#1f77b4;"/>
    </g>
    <g id="patch_86">
     <path clip-path="url(#pcc9057168e)" d="M 254.624163 82.6785 
L 254.870989 82.6785 
L 254.870989 82.6785 
L 254.624163 82.6785 
z
" style="fill:#1f77b4;"/>
    </g>
    <g id="patch_87">
     <path clip-path="url(#pcc9057168e)" d="M 254.870989 82.6785 
L 255.117815 82.6785 
L 255.117815 82.6785 
L 254.870989 82.6785 
z
" style="fill:#1f77b4;"/>
    </g>
    <g id="patch_88">
     <path clip-path="url(#pcc9057168e)" d="M 255.117815 82.6785 
L 255.364641 82.6785 
L 255.364641 81.526047 
L 255.117815 81.526047 
z
" style="fill:#1f77b4;"/>
    </g>
    <g id="patch_89">
     <path clip-path="url(#pcc9057168e)" d="M 255.364641 82.6785 
L 255.611467 82.6785 
L 255.611467 82.6785 
L 255.364641 82.6785 
z
" style="fill:#1f77b4;"/>
    </g>
    <g id="patch_90">
     <path clip-path="url(#pcc9057168e)" d="M 255.611467 82.6785 
L 255.858293 82.6785 
L 255.858293 82.6785 
L 255.611467 82.6785 
z
" style="fill:#1f77b4;"/>
    </g>
    <g id="patch_91">
     <path clip-path="url(#pcc9057168e)" d="M 255.858293 82.6785 
L 256.105119 82.6785 
L 256.105119 82.6785 
L 255.858293 82.6785 
z
" style="fill:#1f77b4;"/>
    </g>
    <g id="patch_92">
     <path clip-path="url(#pcc9057168e)" d="M 256.105119 82.6785 
L 256.351945 82.6785 
L 256.351945 82.6785 
L 256.105119 82.6785 
z
" style="fill:#1f77b4;"/>
    </g>
    <g id="patch_93">
     <path clip-path="url(#pcc9057168e)" d="M 256.351945 82.6785 
L 256.598771 82.6785 
L 256.598771 82.6785 
L 256.351945 82.6785 
z
" style="fill:#1f77b4;"/>
    </g>
    <g id="patch_94">
     <path clip-path="url(#pcc9057168e)" d="M 256.598771 82.6785 
L 256.845597 82.6785 
L 256.845597 82.6785 
L 256.598771 82.6785 
z
" style="fill:#1f77b4;"/>
    </g>
    <g id="patch_95">
     <path clip-path="url(#pcc9057168e)" d="M 256.845597 82.6785 
L 257.092423 82.6785 
L 257.092423 82.6785 
L 256.845597 82.6785 
z
" style="fill:#1f77b4;"/>
    </g>
    <g id="patch_96">
     <path clip-path="url(#pcc9057168e)" d="M 257.092423 82.6785 
L 257.339249 82.6785 
L 257.339249 81.526047 
L 257.092423 81.526047 
z
" style="fill:#1f77b4;"/>
    </g>
    <g id="patch_97">
     <path clip-path="url(#pcc9057168e)" d="M 257.339249 82.6785 
L 257.586075 82.6785 
L 257.586075 79.221141 
L 257.339249 79.221141 
z
" style="fill:#1f77b4;"/>
    </g>
    <g id="patch_98">
     <path clip-path="url(#pcc9057168e)" d="M 257.586075 82.6785 
L 257.832901 82.6785 
L 257.832901 61.934344 
L 257.586075 61.934344 
z
" style="fill:#1f77b4;"/>
    </g>
    <g id="patch_99">
     <path clip-path="url(#pcc9057168e)" d="M 257.832901 82.6785 
L 258.079726 82.6785 
L 258.079726 44.647548 
L 257.832901 44.647548 
z
" style="fill:#1f77b4;"/>
    </g>
    <g id="patch_100">
     <path clip-path="url(#pcc9057168e)" d="M 258.079726 82.6785 
L 258.326552 82.6785 
L 258.326552 56.172079 
L 258.079726 56.172079 
z
" style="fill:#1f77b4;"/>
    </g>
    <g id="patch_101">
     <path clip-path="url(#pcc9057168e)" d="M 258.326552 82.6785 
L 258.573378 82.6785 
L 258.573378 65.391703 
L 258.326552 65.391703 
z
" style="fill:#1f77b4;"/>
    </g>
    <g id="patch_102">
     <path clip-path="url(#pcc9057168e)" d="M 258.573378 82.6785 
L 258.820204 82.6785 
L 258.820204 76.916234 
L 258.573378 76.916234 
z
" style="fill:#1f77b4;"/>
    </g>
    <g id="patch_103">
     <path d="M 226.405355 82.6785 
L 226.405355 42.746 
" style="fill:none;stroke:#000000;stroke-linecap:square;stroke-linejoin:miter;stroke-width:0.8;"/>
    </g>
    <g id="patch_104">
     <path d="M 266.948355 82.6785 
L 266.948355 42.746 
" style="fill:none;stroke:#000000;stroke-linecap:square;stroke-linejoin:miter;stroke-width:0.8;"/>
    </g>
    <g id="patch_105">
     <path d="M 226.405355 82.6785 
L 266.948355 82.6785 
" style="fill:none;stroke:#000000;stroke-linecap:square;stroke-linejoin:miter;stroke-width:0.8;"/>
    </g>
    <g id="patch_106">
     <path d="M 226.405355 42.746 
L 266.948355 42.746 
" style="fill:none;stroke:#000000;stroke-linecap:square;stroke-linejoin:miter;stroke-width:0.8;"/>
    </g>
   </g>
   <g id="axes_6">
    <g id="patch_107">
     <path d="M 282.96284 82.6785 
L 323.50584 82.6785 
L 323.50584 42.746 
L 282.96284 42.746 
z
" style="fill:#ffffff;"/>
    </g>
    <g id="patch_108">
     <path clip-path="url(#p499da5922c)" d="M 310.44117 82.6785 
L 310.687996 82.6785 
L 310.687996 81.526047 
L 310.44117 81.526047 
z
" style="fill:#1f77b4;"/>
    </g>
    <g id="patch_109">
     <path clip-path="url(#p499da5922c)" d="M 310.687996 82.6785 
L 310.934822 82.6785 
L 310.934822 82.6785 
L 310.687996 82.6785 
z
" style="fill:#1f77b4;"/>
    </g>
    <g id="patch_110">
     <path clip-path="url(#p499da5922c)" d="M 310.934822 82.6785 
L 311.181648 82.6785 
L 311.181648 82.6785 
L 310.934822 82.6785 
z
" style="fill:#1f77b4;"/>
    </g>
    <g id="patch_111">
     <path clip-path="url(#p499da5922c)" d="M 311.181648 82.6785 
L 311.428474 82.6785 
L 311.428474 82.6785 
L 311.181648 82.6785 
z
" style="fill:#1f77b4;"/>
    </g>
    <g id="patch_112">
     <path clip-path="url(#p499da5922c)" d="M 311.428474 82.6785 
L 311.6753 82.6785 
L 311.6753 82.6785 
L 311.428474 82.6785 
z
" style="fill:#1f77b4;"/>
    </g>
    <g id="patch_113">
     <path clip-path="url(#p499da5922c)" d="M 311.6753 82.6785 
L 311.922126 82.6785 
L 311.922126 81.526047 
L 311.6753 81.526047 
z
" style="fill:#1f77b4;"/>
    </g>
    <g id="patch_114">
     <path clip-path="url(#p499da5922c)" d="M 311.922126 82.6785 
L 312.168952 82.6785 
L 312.168952 82.6785 
L 311.922126 82.6785 
z
" style="fill:#1f77b4;"/>
    </g>
    <g id="patch_115">
     <path clip-path="url(#p499da5922c)" d="M 312.168952 82.6785 
L 312.415778 82.6785 
L 312.415778 82.6785 
L 312.168952 82.6785 
z
" style="fill:#1f77b4;"/>
    </g>
    <g id="patch_116">
     <path clip-path="url(#p499da5922c)" d="M 312.415778 82.6785 
L 312.662604 82.6785 
L 312.662604 82.6785 
L 312.415778 82.6785 
z
" style="fill:#1f77b4;"/>
    </g>
    <g id="patch_117">
     <path clip-path="url(#p499da5922c)" d="M 312.662604 82.6785 
L 312.90943 82.6785 
L 312.90943 82.6785 
L 312.662604 82.6785 
z
" style="fill:#1f77b4;"/>
    </g>
    <g id="patch_118">
     <path clip-path="url(#p499da5922c)" d="M 312.90943 82.6785 
L 313.156256 82.6785 
L 313.156256 82.6785 
L 312.90943 82.6785 
z
" style="fill:#1f77b4;"/>
    </g>
    <g id="patch_119">
     <path clip-path="url(#p499da5922c)" d="M 313.156256 82.6785 
L 313.403082 82.6785 
L 313.403082 82.6785 
L 313.156256 82.6785 
z
" style="fill:#1f77b4;"/>
    </g>
    <g id="patch_120">
     <path clip-path="url(#p499da5922c)" d="M 313.403082 82.6785 
L 313.649908 82.6785 
L 313.649908 82.6785 
L 313.403082 82.6785 
z
" style="fill:#1f77b4;"/>
    </g>
    <g id="patch_121">
     <path clip-path="url(#p499da5922c)" d="M 313.649908 82.6785 
L 313.896734 82.6785 
L 313.896734 81.526047 
L 313.649908 81.526047 
z
" style="fill:#1f77b4;"/>
    </g>
    <g id="patch_122">
     <path clip-path="url(#p499da5922c)" d="M 313.896734 82.6785 
L 314.14356 82.6785 
L 314.14356 79.221141 
L 313.896734 79.221141 
z
" style="fill:#1f77b4;"/>
    </g>
    <g id="patch_123">
     <path clip-path="url(#p499da5922c)" d="M 314.14356 82.6785 
L 314.390386 82.6785 
L 314.390386 61.934344 
L 314.14356 61.934344 
z
" style="fill:#1f77b4;"/>
    </g>
    <g id="patch_124">
     <path clip-path="url(#p499da5922c)" d="M 314.390386 82.6785 
L 314.637211 82.6785 
L 314.637211 44.647548 
L 314.390386 44.647548 
z
" style="fill:#1f77b4;"/>
    </g>
    <g id="patch_125">
     <path clip-path="url(#p499da5922c)" d="M 314.637211 82.6785 
L 314.884037 82.6785 
L 314.884037 56.172079 
L 314.637211 56.172079 
z
" style="fill:#1f77b4;"/>
    </g>
    <g id="patch_126">
     <path clip-path="url(#p499da5922c)" d="M 314.884037 82.6785 
L 315.130863 82.6785 
L 315.130863 65.391703 
L 314.884037 65.391703 
z
" style="fill:#1f77b4;"/>
    </g>
    <g id="patch_127">
     <path clip-path="url(#p499da5922c)" d="M 315.130863 82.6785 
L 315.377689 82.6785 
L 315.377689 76.916234 
L 315.130863 76.916234 
z
" style="fill:#1f77b4;"/>
    </g>
    <g id="patch_128">
     <path d="M 282.96284 82.6785 
L 282.96284 42.746 
" style="fill:none;stroke:#000000;stroke-linecap:square;stroke-linejoin:miter;stroke-width:0.8;"/>
    </g>
    <g id="patch_129">
     <path d="M 323.50584 82.6785 
L 323.50584 42.746 
" style="fill:none;stroke:#000000;stroke-linecap:square;stroke-linejoin:miter;stroke-width:0.8;"/>
    </g>
    <g id="patch_130">
     <path d="M 282.96284 82.6785 
L 323.50584 82.6785 
" style="fill:none;stroke:#000000;stroke-linecap:square;stroke-linejoin:miter;stroke-width:0.8;"/>
    </g>
    <g id="patch_131">
     <path d="M 282.96284 42.746 
L 323.50584 42.746 
" style="fill:none;stroke:#000000;stroke-linecap:square;stroke-linejoin:miter;stroke-width:0.8;"/>
    </g>
   </g>
   <g id="axes_7">
    <g id="patch_132">
     <path d="M 339.520325 82.6785 
L 380.063325 82.6785 
L 380.063325 42.746 
L 339.520325 42.746 
z
" style="fill:#ffffff;"/>
    </g>
    <g id="patch_133">
     <path clip-path="url(#p278f2b04c5)" d="M 366.998655 82.6785 
L 367.245481 82.6785 
L 367.245481 81.526047 
L 366.998655 81.526047 
z
" style="fill:#1f77b4;"/>
    </g>
    <g id="patch_134">
     <path clip-path="url(#p278f2b04c5)" d="M 367.245481 82.6785 
L 367.492307 82.6785 
L 367.492307 82.6785 
L 367.245481 82.6785 
z
" style="fill:#1f77b4;"/>
    </g>
    <g id="patch_135">
     <path clip-path="url(#p278f2b04c5)" d="M 367.492307 82.6785 
L 367.739133 82.6785 
L 367.739133 82.6785 
L 367.492307 82.6785 
z
" style="fill:#1f77b4;"/>
    </g>
    <g id="patch_136">
     <path clip-path="url(#p278f2b04c5)" d="M 367.739133 82.6785 
L 367.985959 82.6785 
L 367.985959 82.6785 
L 367.739133 82.6785 
z
" style="fill:#1f77b4;"/>
    </g>
    <g id="patch_137">
     <path clip-path="url(#p278f2b04c5)" d="M 367.985959 82.6785 
L 368.232785 82.6785 
L 368.232785 82.6785 
L 367.985959 82.6785 
z
" style="fill:#1f77b4;"/>
    </g>
    <g id="patch_138">
     <path clip-path="url(#p278f2b04c5)" d="M 368.232785 82.6785 
L 368.479611 82.6785 
L 368.479611 81.526047 
L 368.232785 81.526047 
z
" style="fill:#1f77b4;"/>
    </g>
    <g id="patch_139">
     <path clip-path="url(#p278f2b04c5)" d="M 368.479611 82.6785 
L 368.726437 82.6785 
L 368.726437 82.6785 
L 368.479611 82.6785 
z
" style="fill:#1f77b4;"/>
    </g>
    <g id="patch_140">
     <path clip-path="url(#p278f2b04c5)" d="M 368.726437 82.6785 
L 368.973263 82.6785 
L 368.973263 82.6785 
L 368.726437 82.6785 
z
" style="fill:#1f77b4;"/>
    </g>
    <g id="patch_141">
     <path clip-path="url(#p278f2b04c5)" d="M 368.973263 82.6785 
L 369.220089 82.6785 
L 369.220089 82.6785 
L 368.973263 82.6785 
z
" style="fill:#1f77b4;"/>
    </g>
    <g id="patch_142">
     <path clip-path="url(#p278f2b04c5)" d="M 369.220089 82.6785 
L 369.466915 82.6785 
L 369.466915 82.6785 
L 369.220089 82.6785 
z
" style="fill:#1f77b4;"/>
    </g>
    <g id="patch_143">
     <path clip-path="url(#p278f2b04c5)" d="M 369.466915 82.6785 
L 369.713741 82.6785 
L 369.713741 82.6785 
L 369.466915 82.6785 
z
" style="fill:#1f77b4;"/>
    </g>
    <g id="patch_144">
     <path clip-path="url(#p278f2b04c5)" d="M 369.713741 82.6785 
L 369.960567 82.6785 
L 369.960567 82.6785 
L 369.713741 82.6785 
z
" style="fill:#1f77b4;"/>
    </g>
    <g id="patch_145">
     <path clip-path="url(#p278f2b04c5)" d="M 369.960567 82.6785 
L 370.207393 82.6785 
L 370.207393 82.6785 
L 369.960567 82.6785 
z
" style="fill:#1f77b4;"/>
    </g>
    <g id="patch_146">
     <path clip-path="url(#p278f2b04c5)" d="M 370.207393 82.6785 
L 370.454219 82.6785 
L 370.454219 81.526047 
L 370.207393 81.526047 
z
" style="fill:#1f77b4;"/>
    </g>
    <g id="patch_147">
     <path clip-path="url(#p278f2b04c5)" d="M 370.454219 82.6785 
L 370.701045 82.6785 
L 370.701045 79.221141 
L 370.454219 79.221141 
z
" style="fill:#1f77b4;"/>
    </g>
    <g id="patch_148">
     <path clip-path="url(#p278f2b04c5)" d="M 370.701045 82.6785 
L 370.947871 82.6785 
L 370.947871 61.934344 
L 370.701045 61.934344 
z
" style="fill:#1f77b4;"/>
    </g>
    <g id="patch_149">
     <path clip-path="url(#p278f2b04c5)" d="M 370.947871 82.6785 
L 371.194696 82.6785 
L 371.194696 44.647548 
L 370.947871 44.647548 
z
" style="fill:#1f77b4;"/>
    </g>
    <g id="patch_150">
     <path clip-path="url(#p278f2b04c5)" d="M 371.194696 82.6785 
L 371.441522 82.6785 
L 371.441522 56.172079 
L 371.194696 56.172079 
z
" style="fill:#1f77b4;"/>
    </g>
    <g id="patch_151">
     <path clip-path="url(#p278f2b04c5)" d="M 371.441522 82.6785 
L 371.688348 82.6785 
L 371.688348 65.391703 
L 371.441522 65.391703 
z
" style="fill:#1f77b4;"/>
    </g>
    <g id="patch_152">
     <path clip-path="url(#p278f2b04c5)" d="M 371.688348 82.6785 
L 371.935174 82.6785 
L 371.935174 76.916234 
L 371.688348 76.916234 
z
" style="fill:#1f77b4;"/>
    </g>
    <g id="patch_153">
     <path d="M 339.520325 82.6785 
L 339.520325 42.746 
" style="fill:none;stroke:#000000;stroke-linecap:square;stroke-linejoin:miter;stroke-width:0.8;"/>
    </g>
    <g id="patch_154">
     <path d="M 380.063325 82.6785 
L 380.063325 42.746 
" style="fill:none;stroke:#000000;stroke-linecap:square;stroke-linejoin:miter;stroke-width:0.8;"/>
    </g>
    <g id="patch_155">
     <path d="M 339.520325 82.6785 
L 380.063325 82.6785 
" style="fill:none;stroke:#000000;stroke-linecap:square;stroke-linejoin:miter;stroke-width:0.8;"/>
    </g>
    <g id="patch_156">
     <path d="M 339.520325 42.746 
L 380.063325 42.746 
" style="fill:none;stroke:#000000;stroke-linecap:square;stroke-linejoin:miter;stroke-width:0.8;"/>
    </g>
   </g>
   <g id="axes_8">
    <g id="patch_157">
     <path d="M 396.07781 82.6785 
L 436.62081 82.6785 
L 436.62081 42.746 
L 396.07781 42.746 
z
" style="fill:#ffffff;"/>
    </g>
    <g id="patch_158">
     <path clip-path="url(#pc21843dda5)" d="M 423.55614 82.6785 
L 423.802966 82.6785 
L 423.802966 81.526047 
L 423.55614 81.526047 
z
" style="fill:#1f77b4;"/>
    </g>
    <g id="patch_159">
     <path clip-path="url(#pc21843dda5)" d="M 423.802966 82.6785 
L 424.049792 82.6785 
L 424.049792 82.6785 
L 423.802966 82.6785 
z
" style="fill:#1f77b4;"/>
    </g>
    <g id="patch_160">
     <path clip-path="url(#pc21843dda5)" d="M 424.049792 82.6785 
L 424.296618 82.6785 
L 424.296618 82.6785 
L 424.049792 82.6785 
z
" style="fill:#1f77b4;"/>
    </g>
    <g id="patch_161">
     <path clip-path="url(#pc21843dda5)" d="M 424.296618 82.6785 
L 424.543444 82.6785 
L 424.543444 82.6785 
L 424.296618 82.6785 
z
" style="fill:#1f77b4;"/>
    </g>
    <g id="patch_162">
     <path clip-path="url(#pc21843dda5)" d="M 424.543444 82.6785 
L 424.79027 82.6785 
L 424.79027 82.6785 
L 424.543444 82.6785 
z
" style="fill:#1f77b4;"/>
    </g>
    <g id="patch_163">
     <path clip-path="url(#pc21843dda5)" d="M 424.79027 82.6785 
L 425.037096 82.6785 
L 425.037096 81.526047 
L 424.79027 81.526047 
z
" style="fill:#1f77b4;"/>
    </g>
    <g id="patch_164">
     <path clip-path="url(#pc21843dda5)" d="M 425.037096 82.6785 
L 425.283922 82.6785 
L 425.283922 82.6785 
L 425.037096 82.6785 
z
" style="fill:#1f77b4;"/>
    </g>
    <g id="patch_165">
     <path clip-path="url(#pc21843dda5)" d="M 425.283922 82.6785 
L 425.530748 82.6785 
L 425.530748 82.6785 
L 425.283922 82.6785 
z
" style="fill:#1f77b4;"/>
    </g>
    <g id="patch_166">
     <path clip-path="url(#pc21843dda5)" d="M 425.530748 82.6785 
L 425.777574 82.6785 
L 425.777574 82.6785 
L 425.530748 82.6785 
z
" style="fill:#1f77b4;"/>
    </g>
    <g id="patch_167">
     <path clip-path="url(#pc21843dda5)" d="M 425.777574 82.6785 
L 426.0244 82.6785 
L 426.0244 82.6785 
L 425.777574 82.6785 
z
" style="fill:#1f77b4;"/>
    </g>
    <g id="patch_168">
     <path clip-path="url(#pc21843dda5)" d="M 426.0244 82.6785 
L 426.271226 82.6785 
L 426.271226 82.6785 
L 426.0244 82.6785 
z
" style="fill:#1f77b4;"/>
    </g>
    <g id="patch_169">
     <path clip-path="url(#pc21843dda5)" d="M 426.271226 82.6785 
L 426.518052 82.6785 
L 426.518052 82.6785 
L 426.271226 82.6785 
z
" style="fill:#1f77b4;"/>
    </g>
    <g id="patch_170">
     <path clip-path="url(#pc21843dda5)" d="M 426.518052 82.6785 
L 426.764878 82.6785 
L 426.764878 82.6785 
L 426.518052 82.6785 
z
" style="fill:#1f77b4;"/>
    </g>
    <g id="patch_171">
     <path clip-path="url(#pc21843dda5)" d="M 426.764878 82.6785 
L 427.011704 82.6785 
L 427.011704 81.526047 
L 426.764878 81.526047 
z
" style="fill:#1f77b4;"/>
    </g>
    <g id="patch_172">
     <path clip-path="url(#pc21843dda5)" d="M 427.011704 82.6785 
L 427.25853 82.6785 
L 427.25853 79.221141 
L 427.011704 79.221141 
z
" style="fill:#1f77b4;"/>
    </g>
    <g id="patch_173">
     <path clip-path="url(#pc21843dda5)" d="M 427.25853 82.6785 
L 427.505356 82.6785 
L 427.505356 61.934344 
L 427.25853 61.934344 
z
" style="fill:#1f77b4;"/>
    </g>
    <g id="patch_174">
     <path clip-path="url(#pc21843dda5)" d="M 427.505356 82.6785 
L 427.752181 82.6785 
L 427.752181 44.647548 
L 427.505356 44.647548 
z
" style="fill:#1f77b4;"/>
    </g>
    <g id="patch_175">
     <path clip-path="url(#pc21843dda5)" d="M 427.752181 82.6785 
L 427.999007 82.6785 
L 427.999007 56.172079 
L 427.752181 56.172079 
z
" style="fill:#1f77b4;"/>
    </g>
    <g id="patch_176">
     <path clip-path="url(#pc21843dda5)" d="M 427.999007 82.6785 
L 428.245833 82.6785 
L 428.245833 65.391703 
L 427.999007 65.391703 
z
" style="fill:#1f77b4;"/>
    </g>
    <g id="patch_177">
     <path clip-path="url(#pc21843dda5)" d="M 428.245833 82.6785 
L 428.492659 82.6785 
L 428.492659 76.916234 
L 428.245833 76.916234 
z
" style="fill:#1f77b4;"/>
    </g>
    <g id="patch_178">
     <path d="M 396.07781 82.6785 
L 396.07781 42.746 
" style="fill:none;stroke:#000000;stroke-linecap:square;stroke-linejoin:miter;stroke-width:0.8;"/>
    </g>
    <g id="patch_179">
     <path d="M 436.62081 82.6785 
L 436.62081 42.746 
" style="fill:none;stroke:#000000;stroke-linecap:square;stroke-linejoin:miter;stroke-width:0.8;"/>
    </g>
    <g id="patch_180">
     <path d="M 396.07781 82.6785 
L 436.62081 82.6785 
" style="fill:none;stroke:#000000;stroke-linecap:square;stroke-linejoin:miter;stroke-width:0.8;"/>
    </g>
    <g id="patch_181">
     <path d="M 396.07781 42.746 
L 436.62081 42.746 
" style="fill:none;stroke:#000000;stroke-linecap:square;stroke-linejoin:miter;stroke-width:0.8;"/>
    </g>
   </g>
  </g>
 </g>
 <defs>
  <clipPath id="p8a6578a65c">
   <rect height="159.73" width="405.43" x="44.57" y="10.8"/>
  </clipPath>
  <clipPath id="pac87948f9b">
   <rect height="39.9325" width="40.543" x="56.7329" y="42.746"/>
  </clipPath>
  <clipPath id="p6e76e0d8d8">
   <rect height="39.9325" width="40.543" x="113.290385" y="42.746"/>
  </clipPath>
  <clipPath id="p519441a9dd">
   <rect height="39.9325" width="40.543" x="169.84787" y="42.746"/>
  </clipPath>
  <clipPath id="pcc9057168e">
   <rect height="39.9325" width="40.543" x="226.405355" y="42.746"/>
  </clipPath>
  <clipPath id="p499da5922c">
   <rect height="39.9325" width="40.543" x="282.96284" y="42.746"/>
  </clipPath>
  <clipPath id="p278f2b04c5">
   <rect height="39.9325" width="40.543" x="339.520325" y="42.746"/>
  </clipPath>
  <clipPath id="pc21843dda5">
   <rect height="39.9325" width="40.543" x="396.07781" y="42.746"/>
  </clipPath>
 </defs>
</svg>
