<?xml version="1.0" encoding="utf-8" standalone="no"?>
<!DOCTYPE svg PUBLIC "-//W3C//DTD SVG 1.1//EN"
  "http://www.w3.org/Graphics/SVG/1.1/DTD/svg11.dtd">
<svg height="345.6pt" version="1.1" viewBox="0 0 460.8 345.6" width="460.8pt" xmlns="http://www.w3.org/2000/svg" xmlns:xlink="http://www.w3.org/1999/xlink">
 <metadata>
  <rdf:RDF xmlns:cc="http://creativecommons.org/ns#" xmlns:dc="http://purl.org/dc/elements/1.1/" xmlns:rdf="http://www.w3.org/1999/02/22-rdf-syntax-ns#">
   <cc:Work>
    <dc:type rdf:resource="http://purl.org/dc/dcmitype/StillImage"/>
    <dc:date>2021-04-27T22:08:15.312206</dc:date>
    <dc:format>image/svg+xml</dc:format>
    <dc:creator>
     <cc:Agent>
      <dc:title>Matplotlib v3.4.1, https://matplotlib.org/</dc:title>
     </cc:Agent>
    </dc:creator>
   </cc:Work>
  </rdf:RDF>
 </metadata>
 <defs>
  <style type="text/css">*{stroke-linecap:butt;stroke-linejoin:round;}</style>
 </defs>
 <g id="figure_1">
  <g id="patch_1">
   <path d="M 0 345.6 
L 460.8 345.6 
L 460.8 0 
L 0 0 
z
" style="fill:#ffffff;"/>
  </g>
  <g id="axes_1">
   <g id="patch_2">
    <path d="M 44.57 303.64 
L 366.25 303.64 
L 366.25 26.88 
L 44.57 26.88 
z
" style="fill:#ffffff;"/>
   </g>
   <g id="PolyCollection_1">
    <path clip-path="url(#p08b6f090c3)" d="M 59.191818 244.423792 
L 59.191818 256.292673 
L 65.159907 245.705363 
L 71.127996 222.590704 
L 77.096085 213.620266 
L 83.064174 207.782676 
L 89.032263 194.207111 
L 95.000353 182.94596 
L 100.968442 181.216377 
L 106.936531 177.693501 
L 112.90462 175.030427 
L 118.872709 160.37767 
L 124.840798 160.463997 
L 130.808887 158.904812 
L 136.776976 148.844284 
L 142.745065 148.389219 
L 148.713154 142.765114 
L 154.681243 140.27594 
L 160.649332 130.760253 
L 166.617421 130.841727 
L 172.58551 130.276068 
L 178.553599 121.66925 
L 184.521688 116.541101 
L 190.489777 119.18303 
L 196.457866 116.01971 
L 202.425955 114.669385 
L 208.394045 110.033925 
L 214.362134 106.891525 
L 220.330223 103.872021 
L 226.298312 103.205796 
L 232.266401 104.339997 
L 238.23449 95.813915 
L 244.202579 94.509191 
L 250.170668 97.47952 
L 256.138757 90.078695 
L 262.106846 88.998506 
L 268.074935 80.252032 
L 274.043024 86.913031 
L 280.011113 84.710142 
L 285.979202 87.871789 
L 291.947291 77.338329 
L 297.91538 77.456781 
L 303.883469 76.777991 
L 309.851558 75.521975 
L 315.819647 76.703124 
L 321.787737 68.954056 
L 327.755826 66.78471 
L 333.723915 62.63897 
L 339.692004 58.156847 
L 345.660093 60.146237 
L 351.628182 58.110214 
L 351.628182 49.006847 
L 351.628182 49.006847 
L 345.660093 48.602084 
L 339.692004 50.82451 
L 333.723915 50.770089 
L 327.755826 48.954719 
L 321.787737 56.339888 
L 315.819647 50.92119 
L 309.851558 63.754186 
L 303.883469 64.129429 
L 297.91538 60.421158 
L 291.947291 70.560198 
L 285.979202 66.551773 
L 280.011113 71.810752 
L 274.043024 75.200751 
L 268.074935 73.938493 
L 262.106846 80.106383 
L 256.138757 79.958343 
L 250.170668 80.713811 
L 244.202579 89.04399 
L 238.23449 88.205339 
L 232.266401 88.534662 
L 226.298312 90.134936 
L 220.330223 97.858042 
L 214.362134 96.469796 
L 208.394045 99.15332 
L 202.425955 104.771485 
L 196.457866 104.819382 
L 190.489777 107.015912 
L 184.521688 111.056063 
L 178.553599 112.685985 
L 172.58551 116.197088 
L 166.617421 116.563577 
L 160.649332 124.568307 
L 154.681243 130.433059 
L 148.713154 129.109069 
L 142.745065 135.136812 
L 136.776976 134.44871 
L 130.808887 144.895434 
L 124.840798 145.899654 
L 118.872709 153.210127 
L 112.90462 157.899437 
L 106.936531 152.905993 
L 100.968442 165.462666 
L 95.000353 169.559007 
L 89.032263 175.309553 
L 83.064174 196.68953 
L 77.096085 199.940382 
L 71.127996 203.087865 
L 65.159907 228.444891 
L 59.191818 244.423792 
z
" style="fill:#1f77b4;fill-opacity:0.5;"/>
   </g>
   <g id="PolyCollection_2">
    <path clip-path="url(#p08b6f090c3)" d="M 59.191818 254.451537 
L 59.191818 277.724917 
L 65.159907 234.331702 
L 71.127996 216.641428 
L 77.096085 211.56195 
L 83.064174 198.091294 
L 89.032263 190.113457 
L 95.000353 196.41018 
L 100.968442 181.82106 
L 106.936531 175.983315 
L 112.90462 173.745095 
L 118.872709 168.983084 
L 124.840798 163.40623 
L 130.808887 161.955185 
L 136.776976 157.118163 
L 142.745065 153.774455 
L 148.713154 154.917623 
L 154.681243 146.432636 
L 160.649332 140.808405 
L 166.617421 137.614244 
L 172.58551 138.552736 
L 178.553599 128.764225 
L 184.521688 124.398334 
L 190.489777 128.181674 
L 196.457866 121.697457 
L 202.425955 121.097363 
L 208.394045 116.634534 
L 214.362134 115.453619 
L 220.330223 113.733875 
L 226.298312 108.118246 
L 232.266401 108.582333 
L 238.23449 107.092748 
L 244.202579 102.320941 
L 250.170668 108.108575 
L 256.138757 99.440259 
L 262.106846 96.702486 
L 268.074935 92.122717 
L 274.043024 94.332521 
L 280.011113 92.687222 
L 285.979202 96.064846 
L 291.947291 91.397429 
L 297.91538 89.603211 
L 303.883469 84.358977 
L 309.851558 89.362638 
L 315.819647 86.330311 
L 321.787737 82.748151 
L 327.755826 81.806242 
L 333.723915 74.951616 
L 339.692004 75.658598 
L 345.660093 72.28032 
L 351.628182 73.297709 
L 351.628182 52.695345 
L 351.628182 52.695345 
L 345.660093 57.907399 
L 339.692004 56.626454 
L 333.723915 63.85847 
L 327.755826 64.461027 
L 321.787737 69.112005 
L 315.819647 65.995918 
L 309.851558 75.314549 
L 303.883469 74.026213 
L 297.91538 71.112349 
L 291.947291 75.377092 
L 285.979202 83.060633 
L 280.011113 83.87485 
L 274.043024 85.259031 
L 268.074935 84.206318 
L 262.106846 92.443581 
L 256.138757 89.239734 
L 250.170668 90.592007 
L 244.202579 96.379641 
L 238.23449 93.006055 
L 232.266401 101.537059 
L 226.298312 94.077891 
L 220.330223 100.580183 
L 214.362134 105.152437 
L 208.394045 112.127814 
L 202.425955 114.656094 
L 196.457866 116.153332 
L 190.489777 115.961113 
L 184.521688 116.481935 
L 178.553599 120.505375 
L 172.58551 124.466043 
L 166.617421 130.764385 
L 160.649332 131.76489 
L 154.681243 132.665693 
L 148.713154 137.929885 
L 142.745065 140.238238 
L 136.776976 143.186529 
L 130.808887 148.137057 
L 124.840798 154.143195 
L 118.872709 152.527969 
L 112.90462 160.116916 
L 106.936531 156.480475 
L 100.968442 165.09102 
L 95.000353 174.97078 
L 89.032263 172.878173 
L 83.064174 191.233511 
L 77.096085 192.910257 
L 71.127996 186.665593 
L 65.159907 218.146116 
L 59.191818 254.451537 
z
" style="fill:#ff7f0e;fill-opacity:0.5;"/>
   </g>
   <g id="PolyCollection_3">
    <path clip-path="url(#p08b6f090c3)" d="M 59.191818 241.30897 
L 59.191818 272.457564 
L 65.159907 234.778634 
L 71.127996 226.53957 
L 77.096085 217.050929 
L 83.064174 200.600474 
L 89.032263 197.544625 
L 95.000353 194.029364 
L 100.968442 176.021978 
L 106.936531 176.539617 
L 112.90462 172.237099 
L 118.872709 165.00147 
L 124.840798 165.212837 
L 130.808887 158.497513 
L 136.776976 155.304089 
L 142.745065 150.268864 
L 148.713154 143.189372 
L 154.681243 148.089306 
L 160.649332 139.867643 
L 166.617421 134.871618 
L 172.58551 139.57118 
L 178.553599 133.306213 
L 184.521688 134.873155 
L 190.489777 130.505928 
L 196.457866 130.737709 
L 202.425955 129.633171 
L 208.394045 128.692331 
L 214.362134 127.153571 
L 220.330223 127.413937 
L 226.298312 125.44994 
L 232.266401 125.017612 
L 238.23449 122.062276 
L 244.202579 122.047923 
L 250.170668 123.939734 
L 256.138757 122.784588 
L 262.106846 119.462012 
L 268.074935 120.801071 
L 274.043024 116.850318 
L 280.011113 119.229792 
L 285.979202 117.437406 
L 291.947291 115.347684 
L 297.91538 114.10154 
L 303.883469 112.715759 
L 309.851558 110.571857 
L 315.819647 110.147181 
L 321.787737 111.063232 
L 327.755826 108.433877 
L 333.723915 109.40826 
L 339.692004 107.841626 
L 345.660093 105.875121 
L 351.628182 107.23672 
L 351.628182 42.75914 
L 351.628182 42.75914 
L 345.660093 39.46 
L 339.692004 45.183715 
L 333.723915 49.443004 
L 327.755826 46.921833 
L 321.787737 54.77914 
L 315.819647 51.500527 
L 309.851558 53.639257 
L 303.883469 59.884685 
L 297.91538 63.159642 
L 291.947291 67.506385 
L 285.979202 74.272068 
L 280.011113 73.877904 
L 274.043024 72.29575 
L 268.074935 80.229881 
L 262.106846 79.937681 
L 256.138757 87.101768 
L 250.170668 90.374323 
L 244.202579 86.207174 
L 238.23449 87.82408 
L 232.266401 92.325926 
L 226.298312 97.719522 
L 220.330223 97.61982 
L 214.362134 103.473073 
L 208.394045 105.662904 
L 202.425955 109.149766 
L 196.457866 111.540782 
L 190.489777 111.539526 
L 184.521688 115.328592 
L 178.553599 115.264276 
L 172.58551 122.282414 
L 166.617421 121.156053 
L 160.649332 128.97706 
L 154.681243 129.843838 
L 148.713154 128.684811 
L 142.745065 140.015238 
L 136.776976 138.941642 
L 130.808887 147.167028 
L 124.840798 152.802662 
L 118.872709 156.74262 
L 112.90462 160.925802 
L 106.936531 162.682244 
L 100.968442 170.657065 
L 95.000353 170.127451 
L 89.032263 175.933668 
L 83.064174 181.966259 
L 77.096085 194.645423 
L 71.127996 206.596181 
L 65.159907 213.504518 
L 59.191818 241.30897 
z
" style="fill:#2ca02c;fill-opacity:0.5;"/>
   </g>
   <g id="PolyCollection_4">
    <path clip-path="url(#p08b6f090c3)" d="M 59.191818 290.912721 
L 59.191818 291.06 
L 65.159907 281.309683 
L 71.127996 220.616904 
L 77.096085 203.549804 
L 83.064174 205.397315 
L 89.032263 193.080834 
L 95.000353 184.229557 
L 100.968442 181.778361 
L 106.936531 170.897161 
L 112.90462 159.800507 
L 118.872709 162.765854 
L 124.840798 155.508395 
L 130.808887 150.303298 
L 136.776976 147.739625 
L 142.745065 144.523751 
L 148.713154 135.914416 
L 154.681243 136.002107 
L 160.649332 134.613009 
L 166.617421 129.627166 
L 172.58551 131.931193 
L 178.553599 126.825052 
L 184.521688 121.122472 
L 190.489777 116.16583 
L 196.457866 113.703381 
L 202.425955 111.446409 
L 208.394045 109.16185 
L 214.362134 105.513871 
L 220.330223 104.588697 
L 226.298312 99.832823 
L 232.266401 96.01266 
L 238.23449 97.447544 
L 244.202579 95.948001 
L 250.170668 92.66146 
L 256.138757 87.329313 
L 262.106846 87.377899 
L 268.074935 85.419253 
L 274.043024 83.145592 
L 280.011113 81.309765 
L 285.979202 79.300944 
L 291.947291 76.05616 
L 297.91538 74.374737 
L 303.883469 71.810629 
L 309.851558 73.098706 
L 315.819647 69.260625 
L 321.787737 69.051419 
L 327.755826 64.958475 
L 333.723915 64.823437 
L 339.692004 63.447533 
L 345.660093 59.924835 
L 351.628182 57.137011 
L 351.628182 51.848075 
L 351.628182 51.848075 
L 345.660093 52.852694 
L 339.692004 55.478909 
L 333.723915 57.011772 
L 327.755826 56.213977 
L 321.787737 58.619735 
L 315.819647 59.680813 
L 309.851558 63.09624 
L 303.883469 66.924885 
L 297.91538 68.650289 
L 291.947291 68.957137 
L 285.979202 74.880493 
L 280.011113 74.289235 
L 274.043024 77.184757 
L 268.074935 80.434072 
L 262.106846 81.310553 
L 256.138757 83.089672 
L 250.170668 85.949939 
L 244.202579 87.339518 
L 238.23449 91.933658 
L 232.266401 92.043027 
L 226.298312 94.979304 
L 220.330223 97.10874 
L 214.362134 99.313253 
L 208.394045 103.526309 
L 202.425955 103.708679 
L 196.457866 108.005638 
L 190.489777 110.384998 
L 184.521688 112.037517 
L 178.553599 114.54576 
L 172.58551 118.147511 
L 166.617421 122.495039 
L 160.649332 125.609561 
L 154.681243 129.743438 
L 148.713154 131.893039 
L 142.745065 135.102872 
L 136.776976 137.189055 
L 130.808887 140.719065 
L 124.840798 146.725609 
L 118.872709 154.987712 
L 112.90462 155.099521 
L 106.936531 163.71989 
L 100.968442 170.272883 
L 95.000353 172.884415 
L 89.032263 180.086587 
L 83.064174 193.065335 
L 77.096085 196.035851 
L 71.127996 210.652221 
L 65.159907 261.744469 
L 59.191818 290.912721 
z
" style="fill:#d62728;fill-opacity:0.5;"/>
   </g>
   <g id="matplotlib.axis_1">
    <g id="xtick_1">
     <g id="line2d_1">
      <path clip-path="url(#p08b6f090c3)" d="M 59.191818 303.64 
L 59.191818 26.88 
" style="fill:none;stroke:#b0b0b0;stroke-linecap:square;stroke-width:0.8;"/>
     </g>
     <g id="line2d_2">
      <defs>
       <path d="M 0 0 
L 0 3.5 
" id="m31c95468e7" style="stroke:#000000;stroke-width:0.8;"/>
      </defs>
      <g>
       <use style="stroke:#000000;stroke-width:0.8;" x="59.191818" xlink:href="#m31c95468e7" y="303.64"/>
      </g>
     </g>
     <g id="text_1">
      <!-- 0 -->
      <g transform="translate(56.010568 318.238437)scale(0.1 -0.1)">
       <defs>
        <path d="M 2034 4250 
Q 1547 4250 1301 3770 
Q 1056 3291 1056 2328 
Q 1056 1369 1301 889 
Q 1547 409 2034 409 
Q 2525 409 2770 889 
Q 3016 1369 3016 2328 
Q 3016 3291 2770 3770 
Q 2525 4250 2034 4250 
z
M 2034 4750 
Q 2819 4750 3233 4129 
Q 3647 3509 3647 2328 
Q 3647 1150 3233 529 
Q 2819 -91 2034 -91 
Q 1250 -91 836 529 
Q 422 1150 422 2328 
Q 422 3509 836 4129 
Q 1250 4750 2034 4750 
z
" id="DejaVuSans-30" transform="scale(0.015625)"/>
       </defs>
       <use xlink:href="#DejaVuSans-30"/>
      </g>
     </g>
    </g>
    <g id="xtick_2">
     <g id="line2d_3">
      <path clip-path="url(#p08b6f090c3)" d="M 118.872709 303.64 
L 118.872709 26.88 
" style="fill:none;stroke:#b0b0b0;stroke-linecap:square;stroke-width:0.8;"/>
     </g>
     <g id="line2d_4">
      <g>
       <use style="stroke:#000000;stroke-width:0.8;" x="118.872709" xlink:href="#m31c95468e7" y="303.64"/>
      </g>
     </g>
     <g id="text_2">
      <!-- 10 -->
      <g transform="translate(112.510209 318.238437)scale(0.1 -0.1)">
       <defs>
        <path d="M 794 531 
L 1825 531 
L 1825 4091 
L 703 3866 
L 703 4441 
L 1819 4666 
L 2450 4666 
L 2450 531 
L 3481 531 
L 3481 0 
L 794 0 
L 794 531 
z
" id="DejaVuSans-31" transform="scale(0.015625)"/>
       </defs>
       <use xlink:href="#DejaVuSans-31"/>
       <use x="63.623047" xlink:href="#DejaVuSans-30"/>
      </g>
     </g>
    </g>
    <g id="xtick_3">
     <g id="line2d_5">
      <path clip-path="url(#p08b6f090c3)" d="M 178.553599 303.64 
L 178.553599 26.88 
" style="fill:none;stroke:#b0b0b0;stroke-linecap:square;stroke-width:0.8;"/>
     </g>
     <g id="line2d_6">
      <g>
       <use style="stroke:#000000;stroke-width:0.8;" x="178.553599" xlink:href="#m31c95468e7" y="303.64"/>
      </g>
     </g>
     <g id="text_3">
      <!-- 20 -->
      <g transform="translate(172.191099 318.238437)scale(0.1 -0.1)">
       <defs>
        <path d="M 1228 531 
L 3431 531 
L 3431 0 
L 469 0 
L 469 531 
Q 828 903 1448 1529 
Q 2069 2156 2228 2338 
Q 2531 2678 2651 2914 
Q 2772 3150 2772 3378 
Q 2772 3750 2511 3984 
Q 2250 4219 1831 4219 
Q 1534 4219 1204 4116 
Q 875 4013 500 3803 
L 500 4441 
Q 881 4594 1212 4672 
Q 1544 4750 1819 4750 
Q 2544 4750 2975 4387 
Q 3406 4025 3406 3419 
Q 3406 3131 3298 2873 
Q 3191 2616 2906 2266 
Q 2828 2175 2409 1742 
Q 1991 1309 1228 531 
z
" id="DejaVuSans-32" transform="scale(0.015625)"/>
       </defs>
       <use xlink:href="#DejaVuSans-32"/>
       <use x="63.623047" xlink:href="#DejaVuSans-30"/>
      </g>
     </g>
    </g>
    <g id="xtick_4">
     <g id="line2d_7">
      <path clip-path="url(#p08b6f090c3)" d="M 238.23449 303.64 
L 238.23449 26.88 
" style="fill:none;stroke:#b0b0b0;stroke-linecap:square;stroke-width:0.8;"/>
     </g>
     <g id="line2d_8">
      <g>
       <use style="stroke:#000000;stroke-width:0.8;" x="238.23449" xlink:href="#m31c95468e7" y="303.64"/>
      </g>
     </g>
     <g id="text_4">
      <!-- 30 -->
      <g transform="translate(231.87199 318.238437)scale(0.1 -0.1)">
       <defs>
        <path d="M 2597 2516 
Q 3050 2419 3304 2112 
Q 3559 1806 3559 1356 
Q 3559 666 3084 287 
Q 2609 -91 1734 -91 
Q 1441 -91 1130 -33 
Q 819 25 488 141 
L 488 750 
Q 750 597 1062 519 
Q 1375 441 1716 441 
Q 2309 441 2620 675 
Q 2931 909 2931 1356 
Q 2931 1769 2642 2001 
Q 2353 2234 1838 2234 
L 1294 2234 
L 1294 2753 
L 1863 2753 
Q 2328 2753 2575 2939 
Q 2822 3125 2822 3475 
Q 2822 3834 2567 4026 
Q 2313 4219 1838 4219 
Q 1578 4219 1281 4162 
Q 984 4106 628 3988 
L 628 4550 
Q 988 4650 1302 4700 
Q 1616 4750 1894 4750 
Q 2613 4750 3031 4423 
Q 3450 4097 3450 3541 
Q 3450 3153 3228 2886 
Q 3006 2619 2597 2516 
z
" id="DejaVuSans-33" transform="scale(0.015625)"/>
       </defs>
       <use xlink:href="#DejaVuSans-33"/>
       <use x="63.623047" xlink:href="#DejaVuSans-30"/>
      </g>
     </g>
    </g>
    <g id="xtick_5">
     <g id="line2d_9">
      <path clip-path="url(#p08b6f090c3)" d="M 297.91538 303.64 
L 297.91538 26.88 
" style="fill:none;stroke:#b0b0b0;stroke-linecap:square;stroke-width:0.8;"/>
     </g>
     <g id="line2d_10">
      <g>
       <use style="stroke:#000000;stroke-width:0.8;" x="297.91538" xlink:href="#m31c95468e7" y="303.64"/>
      </g>
     </g>
     <g id="text_5">
      <!-- 40 -->
      <g transform="translate(291.55288 318.238437)scale(0.1 -0.1)">
       <defs>
        <path d="M 2419 4116 
L 825 1625 
L 2419 1625 
L 2419 4116 
z
M 2253 4666 
L 3047 4666 
L 3047 1625 
L 3713 1625 
L 3713 1100 
L 3047 1100 
L 3047 0 
L 2419 0 
L 2419 1100 
L 313 1100 
L 313 1709 
L 2253 4666 
z
" id="DejaVuSans-34" transform="scale(0.015625)"/>
       </defs>
       <use xlink:href="#DejaVuSans-34"/>
       <use x="63.623047" xlink:href="#DejaVuSans-30"/>
      </g>
     </g>
    </g>
    <g id="xtick_6">
     <g id="line2d_11">
      <path clip-path="url(#p08b6f090c3)" d="M 357.596271 303.64 
L 357.596271 26.88 
" style="fill:none;stroke:#b0b0b0;stroke-linecap:square;stroke-width:0.8;"/>
     </g>
     <g id="line2d_12">
      <g>
       <use style="stroke:#000000;stroke-width:0.8;" x="357.596271" xlink:href="#m31c95468e7" y="303.64"/>
      </g>
     </g>
     <g id="text_6">
      <!-- 50 -->
      <g transform="translate(351.233771 318.238437)scale(0.1 -0.1)">
       <defs>
        <path d="M 691 4666 
L 3169 4666 
L 3169 4134 
L 1269 4134 
L 1269 2991 
Q 1406 3038 1543 3061 
Q 1681 3084 1819 3084 
Q 2600 3084 3056 2656 
Q 3513 2228 3513 1497 
Q 3513 744 3044 326 
Q 2575 -91 1722 -91 
Q 1428 -91 1123 -41 
Q 819 9 494 109 
L 494 744 
Q 775 591 1075 516 
Q 1375 441 1709 441 
Q 2250 441 2565 725 
Q 2881 1009 2881 1497 
Q 2881 1984 2565 2268 
Q 2250 2553 1709 2553 
Q 1456 2553 1204 2497 
Q 953 2441 691 2322 
L 691 4666 
z
" id="DejaVuSans-35" transform="scale(0.015625)"/>
       </defs>
       <use xlink:href="#DejaVuSans-35"/>
       <use x="63.623047" xlink:href="#DejaVuSans-30"/>
      </g>
     </g>
    </g>
    <g id="text_7">
     <!-- Global Communication Rounds -->
     <g transform="translate(128.448281 331.916562)scale(0.1 -0.1)">
      <defs>
       <path d="M 3809 666 
L 3809 1919 
L 2778 1919 
L 2778 2438 
L 4434 2438 
L 4434 434 
Q 4069 175 3628 42 
Q 3188 -91 2688 -91 
Q 1594 -91 976 548 
Q 359 1188 359 2328 
Q 359 3472 976 4111 
Q 1594 4750 2688 4750 
Q 3144 4750 3555 4637 
Q 3966 4525 4313 4306 
L 4313 3634 
Q 3963 3931 3569 4081 
Q 3175 4231 2741 4231 
Q 1884 4231 1454 3753 
Q 1025 3275 1025 2328 
Q 1025 1384 1454 906 
Q 1884 428 2741 428 
Q 3075 428 3337 486 
Q 3600 544 3809 666 
z
" id="DejaVuSans-47" transform="scale(0.015625)"/>
       <path d="M 603 4863 
L 1178 4863 
L 1178 0 
L 603 0 
L 603 4863 
z
" id="DejaVuSans-6c" transform="scale(0.015625)"/>
       <path d="M 1959 3097 
Q 1497 3097 1228 2736 
Q 959 2375 959 1747 
Q 959 1119 1226 758 
Q 1494 397 1959 397 
Q 2419 397 2687 759 
Q 2956 1122 2956 1747 
Q 2956 2369 2687 2733 
Q 2419 3097 1959 3097 
z
M 1959 3584 
Q 2709 3584 3137 3096 
Q 3566 2609 3566 1747 
Q 3566 888 3137 398 
Q 2709 -91 1959 -91 
Q 1206 -91 779 398 
Q 353 888 353 1747 
Q 353 2609 779 3096 
Q 1206 3584 1959 3584 
z
" id="DejaVuSans-6f" transform="scale(0.015625)"/>
       <path d="M 3116 1747 
Q 3116 2381 2855 2742 
Q 2594 3103 2138 3103 
Q 1681 3103 1420 2742 
Q 1159 2381 1159 1747 
Q 1159 1113 1420 752 
Q 1681 391 2138 391 
Q 2594 391 2855 752 
Q 3116 1113 3116 1747 
z
M 1159 2969 
Q 1341 3281 1617 3432 
Q 1894 3584 2278 3584 
Q 2916 3584 3314 3078 
Q 3713 2572 3713 1747 
Q 3713 922 3314 415 
Q 2916 -91 2278 -91 
Q 1894 -91 1617 61 
Q 1341 213 1159 525 
L 1159 0 
L 581 0 
L 581 4863 
L 1159 4863 
L 1159 2969 
z
" id="DejaVuSans-62" transform="scale(0.015625)"/>
       <path d="M 2194 1759 
Q 1497 1759 1228 1600 
Q 959 1441 959 1056 
Q 959 750 1161 570 
Q 1363 391 1709 391 
Q 2188 391 2477 730 
Q 2766 1069 2766 1631 
L 2766 1759 
L 2194 1759 
z
M 3341 1997 
L 3341 0 
L 2766 0 
L 2766 531 
Q 2569 213 2275 61 
Q 1981 -91 1556 -91 
Q 1019 -91 701 211 
Q 384 513 384 1019 
Q 384 1609 779 1909 
Q 1175 2209 1959 2209 
L 2766 2209 
L 2766 2266 
Q 2766 2663 2505 2880 
Q 2244 3097 1772 3097 
Q 1472 3097 1187 3025 
Q 903 2953 641 2809 
L 641 3341 
Q 956 3463 1253 3523 
Q 1550 3584 1831 3584 
Q 2591 3584 2966 3190 
Q 3341 2797 3341 1997 
z
" id="DejaVuSans-61" transform="scale(0.015625)"/>
       <path id="DejaVuSans-20" transform="scale(0.015625)"/>
       <path d="M 4122 4306 
L 4122 3641 
Q 3803 3938 3442 4084 
Q 3081 4231 2675 4231 
Q 1875 4231 1450 3742 
Q 1025 3253 1025 2328 
Q 1025 1406 1450 917 
Q 1875 428 2675 428 
Q 3081 428 3442 575 
Q 3803 722 4122 1019 
L 4122 359 
Q 3791 134 3420 21 
Q 3050 -91 2638 -91 
Q 1578 -91 968 557 
Q 359 1206 359 2328 
Q 359 3453 968 4101 
Q 1578 4750 2638 4750 
Q 3056 4750 3426 4639 
Q 3797 4528 4122 4306 
z
" id="DejaVuSans-43" transform="scale(0.015625)"/>
       <path d="M 3328 2828 
Q 3544 3216 3844 3400 
Q 4144 3584 4550 3584 
Q 5097 3584 5394 3201 
Q 5691 2819 5691 2113 
L 5691 0 
L 5113 0 
L 5113 2094 
Q 5113 2597 4934 2840 
Q 4756 3084 4391 3084 
Q 3944 3084 3684 2787 
Q 3425 2491 3425 1978 
L 3425 0 
L 2847 0 
L 2847 2094 
Q 2847 2600 2669 2842 
Q 2491 3084 2119 3084 
Q 1678 3084 1418 2786 
Q 1159 2488 1159 1978 
L 1159 0 
L 581 0 
L 581 3500 
L 1159 3500 
L 1159 2956 
Q 1356 3278 1631 3431 
Q 1906 3584 2284 3584 
Q 2666 3584 2933 3390 
Q 3200 3197 3328 2828 
z
" id="DejaVuSans-6d" transform="scale(0.015625)"/>
       <path d="M 544 1381 
L 544 3500 
L 1119 3500 
L 1119 1403 
Q 1119 906 1312 657 
Q 1506 409 1894 409 
Q 2359 409 2629 706 
Q 2900 1003 2900 1516 
L 2900 3500 
L 3475 3500 
L 3475 0 
L 2900 0 
L 2900 538 
Q 2691 219 2414 64 
Q 2138 -91 1772 -91 
Q 1169 -91 856 284 
Q 544 659 544 1381 
z
M 1991 3584 
L 1991 3584 
z
" id="DejaVuSans-75" transform="scale(0.015625)"/>
       <path d="M 3513 2113 
L 3513 0 
L 2938 0 
L 2938 2094 
Q 2938 2591 2744 2837 
Q 2550 3084 2163 3084 
Q 1697 3084 1428 2787 
Q 1159 2491 1159 1978 
L 1159 0 
L 581 0 
L 581 3500 
L 1159 3500 
L 1159 2956 
Q 1366 3272 1645 3428 
Q 1925 3584 2291 3584 
Q 2894 3584 3203 3211 
Q 3513 2838 3513 2113 
z
" id="DejaVuSans-6e" transform="scale(0.015625)"/>
       <path d="M 603 3500 
L 1178 3500 
L 1178 0 
L 603 0 
L 603 3500 
z
M 603 4863 
L 1178 4863 
L 1178 4134 
L 603 4134 
L 603 4863 
z
" id="DejaVuSans-69" transform="scale(0.015625)"/>
       <path d="M 3122 3366 
L 3122 2828 
Q 2878 2963 2633 3030 
Q 2388 3097 2138 3097 
Q 1578 3097 1268 2742 
Q 959 2388 959 1747 
Q 959 1106 1268 751 
Q 1578 397 2138 397 
Q 2388 397 2633 464 
Q 2878 531 3122 666 
L 3122 134 
Q 2881 22 2623 -34 
Q 2366 -91 2075 -91 
Q 1284 -91 818 406 
Q 353 903 353 1747 
Q 353 2603 823 3093 
Q 1294 3584 2113 3584 
Q 2378 3584 2631 3529 
Q 2884 3475 3122 3366 
z
" id="DejaVuSans-63" transform="scale(0.015625)"/>
       <path d="M 1172 4494 
L 1172 3500 
L 2356 3500 
L 2356 3053 
L 1172 3053 
L 1172 1153 
Q 1172 725 1289 603 
Q 1406 481 1766 481 
L 2356 481 
L 2356 0 
L 1766 0 
Q 1100 0 847 248 
Q 594 497 594 1153 
L 594 3053 
L 172 3053 
L 172 3500 
L 594 3500 
L 594 4494 
L 1172 4494 
z
" id="DejaVuSans-74" transform="scale(0.015625)"/>
       <path d="M 2841 2188 
Q 3044 2119 3236 1894 
Q 3428 1669 3622 1275 
L 4263 0 
L 3584 0 
L 2988 1197 
Q 2756 1666 2539 1819 
Q 2322 1972 1947 1972 
L 1259 1972 
L 1259 0 
L 628 0 
L 628 4666 
L 2053 4666 
Q 2853 4666 3247 4331 
Q 3641 3997 3641 3322 
Q 3641 2881 3436 2590 
Q 3231 2300 2841 2188 
z
M 1259 4147 
L 1259 2491 
L 2053 2491 
Q 2509 2491 2742 2702 
Q 2975 2913 2975 3322 
Q 2975 3731 2742 3939 
Q 2509 4147 2053 4147 
L 1259 4147 
z
" id="DejaVuSans-52" transform="scale(0.015625)"/>
       <path d="M 2906 2969 
L 2906 4863 
L 3481 4863 
L 3481 0 
L 2906 0 
L 2906 525 
Q 2725 213 2448 61 
Q 2172 -91 1784 -91 
Q 1150 -91 751 415 
Q 353 922 353 1747 
Q 353 2572 751 3078 
Q 1150 3584 1784 3584 
Q 2172 3584 2448 3432 
Q 2725 3281 2906 2969 
z
M 947 1747 
Q 947 1113 1208 752 
Q 1469 391 1925 391 
Q 2381 391 2643 752 
Q 2906 1113 2906 1747 
Q 2906 2381 2643 2742 
Q 2381 3103 1925 3103 
Q 1469 3103 1208 2742 
Q 947 2381 947 1747 
z
" id="DejaVuSans-64" transform="scale(0.015625)"/>
       <path d="M 2834 3397 
L 2834 2853 
Q 2591 2978 2328 3040 
Q 2066 3103 1784 3103 
Q 1356 3103 1142 2972 
Q 928 2841 928 2578 
Q 928 2378 1081 2264 
Q 1234 2150 1697 2047 
L 1894 2003 
Q 2506 1872 2764 1633 
Q 3022 1394 3022 966 
Q 3022 478 2636 193 
Q 2250 -91 1575 -91 
Q 1294 -91 989 -36 
Q 684 19 347 128 
L 347 722 
Q 666 556 975 473 
Q 1284 391 1588 391 
Q 1994 391 2212 530 
Q 2431 669 2431 922 
Q 2431 1156 2273 1281 
Q 2116 1406 1581 1522 
L 1381 1569 
Q 847 1681 609 1914 
Q 372 2147 372 2553 
Q 372 3047 722 3315 
Q 1072 3584 1716 3584 
Q 2034 3584 2315 3537 
Q 2597 3491 2834 3397 
z
" id="DejaVuSans-73" transform="scale(0.015625)"/>
      </defs>
      <use xlink:href="#DejaVuSans-47"/>
      <use x="77.490234" xlink:href="#DejaVuSans-6c"/>
      <use x="105.273438" xlink:href="#DejaVuSans-6f"/>
      <use x="166.455078" xlink:href="#DejaVuSans-62"/>
      <use x="229.931641" xlink:href="#DejaVuSans-61"/>
      <use x="291.210938" xlink:href="#DejaVuSans-6c"/>
      <use x="318.994141" xlink:href="#DejaVuSans-20"/>
      <use x="350.78125" xlink:href="#DejaVuSans-43"/>
      <use x="420.605469" xlink:href="#DejaVuSans-6f"/>
      <use x="481.787109" xlink:href="#DejaVuSans-6d"/>
      <use x="579.199219" xlink:href="#DejaVuSans-6d"/>
      <use x="676.611328" xlink:href="#DejaVuSans-75"/>
      <use x="739.990234" xlink:href="#DejaVuSans-6e"/>
      <use x="803.369141" xlink:href="#DejaVuSans-69"/>
      <use x="831.152344" xlink:href="#DejaVuSans-63"/>
      <use x="886.132812" xlink:href="#DejaVuSans-61"/>
      <use x="947.412109" xlink:href="#DejaVuSans-74"/>
      <use x="986.621094" xlink:href="#DejaVuSans-69"/>
      <use x="1014.404297" xlink:href="#DejaVuSans-6f"/>
      <use x="1075.585938" xlink:href="#DejaVuSans-6e"/>
      <use x="1138.964844" xlink:href="#DejaVuSans-20"/>
      <use x="1170.751953" xlink:href="#DejaVuSans-52"/>
      <use x="1235.734375" xlink:href="#DejaVuSans-6f"/>
      <use x="1296.916016" xlink:href="#DejaVuSans-75"/>
      <use x="1360.294922" xlink:href="#DejaVuSans-6e"/>
      <use x="1423.673828" xlink:href="#DejaVuSans-64"/>
      <use x="1487.150391" xlink:href="#DejaVuSans-73"/>
     </g>
    </g>
   </g>
   <g id="matplotlib.axis_2">
    <g id="ytick_1">
     <g id="line2d_13">
      <path clip-path="url(#p08b6f090c3)" d="M 44.57 291.02318 
L 366.25 291.02318 
" style="fill:none;stroke:#b0b0b0;stroke-linecap:square;stroke-width:0.8;"/>
     </g>
     <g id="line2d_14">
      <defs>
       <path d="M 0 0 
L -3.5 0 
" id="m19fa8f5da8" style="stroke:#000000;stroke-width:0.8;"/>
      </defs>
      <g>
       <use style="stroke:#000000;stroke-width:0.8;" x="44.57" xlink:href="#m19fa8f5da8" y="291.02318"/>
      </g>
     </g>
     <g id="text_8">
      <!-- 10 -->
      <g transform="translate(24.845 294.822399)scale(0.1 -0.1)">
       <use xlink:href="#DejaVuSans-31"/>
       <use x="63.623047" xlink:href="#DejaVuSans-30"/>
      </g>
     </g>
    </g>
    <g id="ytick_2">
     <g id="line2d_15">
      <path clip-path="url(#p08b6f090c3)" d="M 44.57 244.998383 
L 366.25 244.998383 
" style="fill:none;stroke:#b0b0b0;stroke-linecap:square;stroke-width:0.8;"/>
     </g>
     <g id="line2d_16">
      <g>
       <use style="stroke:#000000;stroke-width:0.8;" x="44.57" xlink:href="#m19fa8f5da8" y="244.998383"/>
      </g>
     </g>
     <g id="text_9">
      <!-- 20 -->
      <g transform="translate(24.845 248.797602)scale(0.1 -0.1)">
       <use xlink:href="#DejaVuSans-32"/>
       <use x="63.623047" xlink:href="#DejaVuSans-30"/>
      </g>
     </g>
    </g>
    <g id="ytick_3">
     <g id="line2d_17">
      <path clip-path="url(#p08b6f090c3)" d="M 44.57 198.973586 
L 366.25 198.973586 
" style="fill:none;stroke:#b0b0b0;stroke-linecap:square;stroke-width:0.8;"/>
     </g>
     <g id="line2d_18">
      <g>
       <use style="stroke:#000000;stroke-width:0.8;" x="44.57" xlink:href="#m19fa8f5da8" y="198.973586"/>
      </g>
     </g>
     <g id="text_10">
      <!-- 30 -->
      <g transform="translate(24.845 202.772805)scale(0.1 -0.1)">
       <use xlink:href="#DejaVuSans-33"/>
       <use x="63.623047" xlink:href="#DejaVuSans-30"/>
      </g>
     </g>
    </g>
    <g id="ytick_4">
     <g id="line2d_19">
      <path clip-path="url(#p08b6f090c3)" d="M 44.57 152.948789 
L 366.25 152.948789 
" style="fill:none;stroke:#b0b0b0;stroke-linecap:square;stroke-width:0.8;"/>
     </g>
     <g id="line2d_20">
      <g>
       <use style="stroke:#000000;stroke-width:0.8;" x="44.57" xlink:href="#m19fa8f5da8" y="152.948789"/>
      </g>
     </g>
     <g id="text_11">
      <!-- 40 -->
      <g transform="translate(24.845 156.748008)scale(0.1 -0.1)">
       <use xlink:href="#DejaVuSans-34"/>
       <use x="63.623047" xlink:href="#DejaVuSans-30"/>
      </g>
     </g>
    </g>
    <g id="ytick_5">
     <g id="line2d_21">
      <path clip-path="url(#p08b6f090c3)" d="M 44.57 106.923992 
L 366.25 106.923992 
" style="fill:none;stroke:#b0b0b0;stroke-linecap:square;stroke-width:0.8;"/>
     </g>
     <g id="line2d_22">
      <g>
       <use style="stroke:#000000;stroke-width:0.8;" x="44.57" xlink:href="#m19fa8f5da8" y="106.923992"/>
      </g>
     </g>
     <g id="text_12">
      <!-- 50 -->
      <g transform="translate(24.845 110.723211)scale(0.1 -0.1)">
       <use xlink:href="#DejaVuSans-35"/>
       <use x="63.623047" xlink:href="#DejaVuSans-30"/>
      </g>
     </g>
    </g>
    <g id="ytick_6">
     <g id="line2d_23">
      <path clip-path="url(#p08b6f090c3)" d="M 44.57 60.899195 
L 366.25 60.899195 
" style="fill:none;stroke:#b0b0b0;stroke-linecap:square;stroke-width:0.8;"/>
     </g>
     <g id="line2d_24">
      <g>
       <use style="stroke:#000000;stroke-width:0.8;" x="44.57" xlink:href="#m19fa8f5da8" y="60.899195"/>
      </g>
     </g>
     <g id="text_13">
      <!-- 60 -->
      <g transform="translate(24.845 64.698413)scale(0.1 -0.1)">
       <defs>
        <path d="M 2113 2584 
Q 1688 2584 1439 2293 
Q 1191 2003 1191 1497 
Q 1191 994 1439 701 
Q 1688 409 2113 409 
Q 2538 409 2786 701 
Q 3034 994 3034 1497 
Q 3034 2003 2786 2293 
Q 2538 2584 2113 2584 
z
M 3366 4563 
L 3366 3988 
Q 3128 4100 2886 4159 
Q 2644 4219 2406 4219 
Q 1781 4219 1451 3797 
Q 1122 3375 1075 2522 
Q 1259 2794 1537 2939 
Q 1816 3084 2150 3084 
Q 2853 3084 3261 2657 
Q 3669 2231 3669 1497 
Q 3669 778 3244 343 
Q 2819 -91 2113 -91 
Q 1303 -91 875 529 
Q 447 1150 447 2328 
Q 447 3434 972 4092 
Q 1497 4750 2381 4750 
Q 2619 4750 2861 4703 
Q 3103 4656 3366 4563 
z
" id="DejaVuSans-36" transform="scale(0.015625)"/>
       </defs>
       <use xlink:href="#DejaVuSans-36"/>
       <use x="63.623047" xlink:href="#DejaVuSans-30"/>
      </g>
     </g>
    </g>
    <g id="text_14">
     <!-- Test Accuracy -->
     <g transform="translate(18.765313 199.5225)rotate(-90)scale(0.1 -0.1)">
      <defs>
       <path d="M -19 4666 
L 3928 4666 
L 3928 4134 
L 2272 4134 
L 2272 0 
L 1638 0 
L 1638 4134 
L -19 4134 
L -19 4666 
z
" id="DejaVuSans-54" transform="scale(0.015625)"/>
       <path d="M 3597 1894 
L 3597 1613 
L 953 1613 
Q 991 1019 1311 708 
Q 1631 397 2203 397 
Q 2534 397 2845 478 
Q 3156 559 3463 722 
L 3463 178 
Q 3153 47 2828 -22 
Q 2503 -91 2169 -91 
Q 1331 -91 842 396 
Q 353 884 353 1716 
Q 353 2575 817 3079 
Q 1281 3584 2069 3584 
Q 2775 3584 3186 3129 
Q 3597 2675 3597 1894 
z
M 3022 2063 
Q 3016 2534 2758 2815 
Q 2500 3097 2075 3097 
Q 1594 3097 1305 2825 
Q 1016 2553 972 2059 
L 3022 2063 
z
" id="DejaVuSans-65" transform="scale(0.015625)"/>
       <path d="M 2188 4044 
L 1331 1722 
L 3047 1722 
L 2188 4044 
z
M 1831 4666 
L 2547 4666 
L 4325 0 
L 3669 0 
L 3244 1197 
L 1141 1197 
L 716 0 
L 50 0 
L 1831 4666 
z
" id="DejaVuSans-41" transform="scale(0.015625)"/>
       <path d="M 2631 2963 
Q 2534 3019 2420 3045 
Q 2306 3072 2169 3072 
Q 1681 3072 1420 2755 
Q 1159 2438 1159 1844 
L 1159 0 
L 581 0 
L 581 3500 
L 1159 3500 
L 1159 2956 
Q 1341 3275 1631 3429 
Q 1922 3584 2338 3584 
Q 2397 3584 2469 3576 
Q 2541 3569 2628 3553 
L 2631 2963 
z
" id="DejaVuSans-72" transform="scale(0.015625)"/>
       <path d="M 2059 -325 
Q 1816 -950 1584 -1140 
Q 1353 -1331 966 -1331 
L 506 -1331 
L 506 -850 
L 844 -850 
Q 1081 -850 1212 -737 
Q 1344 -625 1503 -206 
L 1606 56 
L 191 3500 
L 800 3500 
L 1894 763 
L 2988 3500 
L 3597 3500 
L 2059 -325 
z
" id="DejaVuSans-79" transform="scale(0.015625)"/>
      </defs>
      <use xlink:href="#DejaVuSans-54"/>
      <use x="44.083984" xlink:href="#DejaVuSans-65"/>
      <use x="105.607422" xlink:href="#DejaVuSans-73"/>
      <use x="157.707031" xlink:href="#DejaVuSans-74"/>
      <use x="196.916016" xlink:href="#DejaVuSans-20"/>
      <use x="228.703125" xlink:href="#DejaVuSans-41"/>
      <use x="295.361328" xlink:href="#DejaVuSans-63"/>
      <use x="350.341797" xlink:href="#DejaVuSans-63"/>
      <use x="405.322266" xlink:href="#DejaVuSans-75"/>
      <use x="468.701172" xlink:href="#DejaVuSans-72"/>
      <use x="509.814453" xlink:href="#DejaVuSans-61"/>
      <use x="571.09375" xlink:href="#DejaVuSans-63"/>
      <use x="626.074219" xlink:href="#DejaVuSans-79"/>
     </g>
    </g>
   </g>
   <g id="line2d_25">
    <path clip-path="url(#p08b6f090c3)" d="M 59.191818 250.358233 
L 65.159907 237.075127 
L 71.127996 212.839284 
L 77.096085 206.780324 
L 83.064174 202.236103 
L 89.032263 184.758332 
L 95.000353 176.252484 
L 100.968442 173.339522 
L 106.936531 165.299747 
L 112.90462 166.464932 
L 118.872709 156.793899 
L 124.840798 153.181826 
L 130.808887 151.900123 
L 136.776976 141.646497 
L 142.745065 141.763015 
L 148.713154 135.937092 
L 154.681243 135.354499 
L 160.649332 127.66428 
L 166.617421 123.702652 
L 172.58551 123.236578 
L 178.553599 117.177617 
L 184.521688 113.798582 
L 190.489777 113.099471 
L 196.457866 110.419546 
L 202.425955 109.720435 
L 208.394045 104.593622 
L 214.362134 101.680661 
L 220.330223 100.865031 
L 226.298312 96.670366 
L 232.266401 96.437329 
L 238.23449 92.009627 
L 244.202579 91.77659 
L 250.170668 89.096665 
L 256.138757 85.018519 
L 262.106846 84.552445 
L 268.074935 77.095263 
L 274.043024 81.056891 
L 280.011113 78.260447 
L 285.979202 77.211781 
L 291.947291 73.949264 
L 297.91538 68.938969 
L 303.883469 70.45371 
L 309.851558 69.63808 
L 315.819647 63.812157 
L 321.787737 62.646972 
L 327.755826 57.869714 
L 333.723915 56.70453 
L 339.692004 54.490679 
L 345.660093 54.37416 
L 351.628182 53.558531 
" style="fill:none;stroke:#1f77b4;stroke-linecap:square;stroke-width:1.5;"/>
   </g>
   <g id="line2d_26">
    <path clip-path="url(#p08b6f090c3)" d="M 59.191818 266.088227 
L 65.159907 226.238909 
L 71.127996 201.653511 
L 77.096085 202.236103 
L 83.064174 194.662402 
L 89.032263 181.495815 
L 95.000353 185.69048 
L 100.968442 173.45604 
L 106.936531 166.231895 
L 112.90462 166.931006 
L 118.872709 160.755527 
L 124.840798 158.774713 
L 130.808887 155.046121 
L 136.776976 150.152346 
L 142.745065 147.006347 
L 148.713154 146.423754 
L 154.681243 139.549164 
L 160.649332 136.286647 
L 166.617421 134.189315 
L 172.58551 131.50939 
L 178.553599 124.6348 
L 184.521688 120.440135 
L 190.489777 122.071393 
L 196.457866 118.925395 
L 202.425955 117.876728 
L 208.394045 114.381174 
L 214.362134 110.303028 
L 220.330223 107.157029 
L 226.298312 101.098068 
L 232.266401 105.059696 
L 238.23449 100.049402 
L 244.202579 99.350291 
L 250.170668 99.350291 
L 256.138757 94.339997 
L 262.106846 94.573034 
L 268.074935 88.164518 
L 274.043024 89.795776 
L 280.011113 88.281036 
L 285.979202 89.562739 
L 291.947291 83.38726 
L 297.91538 80.35778 
L 303.883469 79.192595 
L 309.851558 82.338594 
L 315.819647 76.163115 
L 321.787737 75.930078 
L 327.755826 73.133634 
L 333.723915 69.405043 
L 339.692004 66.142526 
L 345.660093 65.09386 
L 351.628182 62.996527 
" style="fill:none;stroke:#ff7f0e;stroke-linecap:square;stroke-width:1.5;"/>
   </g>
   <g id="line2d_27">
    <path clip-path="url(#p08b6f090c3)" d="M 59.191818 256.883267 
L 65.159907 224.141576 
L 71.127996 216.567876 
L 77.096085 205.848176 
L 83.064174 191.283367 
L 89.032263 186.739146 
L 95.000353 182.078407 
L 100.968442 173.339522 
L 106.936531 169.610931 
L 112.90462 166.58145 
L 118.872709 160.872045 
L 124.840798 159.00775 
L 130.808887 152.83227 
L 136.776976 147.122865 
L 142.745065 145.142051 
L 148.713154 135.937092 
L 154.681243 138.966572 
L 160.649332 134.422352 
L 166.617421 128.013836 
L 172.58551 130.926797 
L 178.553599 124.285244 
L 184.521688 125.100874 
L 190.489777 121.022727 
L 196.457866 121.139246 
L 202.425955 119.391468 
L 208.394045 117.177617 
L 214.362134 115.313322 
L 220.330223 112.516879 
L 226.298312 111.584731 
L 232.266401 108.671769 
L 238.23449 104.943178 
L 244.202579 104.127548 
L 250.170668 107.157029 
L 256.138757 104.943178 
L 262.106846 99.699846 
L 268.074935 100.515476 
L 274.043024 94.573034 
L 280.011113 96.553848 
L 285.979202 95.854737 
L 291.947291 91.427035 
L 297.91538 88.630591 
L 303.883469 86.300222 
L 309.851558 82.105557 
L 315.819647 80.823854 
L 321.787737 82.921186 
L 327.755826 77.677855 
L 333.723915 79.425632 
L 339.692004 76.51267 
L 345.660093 72.667561 
L 351.628182 74.99793 
" style="fill:none;stroke:#2ca02c;stroke-linecap:square;stroke-width:1.5;"/>
   </g>
   <g id="line2d_28">
    <path clip-path="url(#p08b6f090c3)" d="M 59.191818 290.98636 
L 65.159907 271.527076 
L 71.127996 215.634563 
L 77.096085 199.792827 
L 83.064174 199.231325 
L 89.032263 186.583711 
L 95.000353 178.556986 
L 100.968442 176.025622 
L 106.936531 167.308526 
L 112.90462 157.450014 
L 118.872709 158.876783 
L 124.840798 151.117002 
L 130.808887 145.511182 
L 136.776976 142.46434 
L 142.745065 139.813312 
L 148.713154 133.903728 
L 154.681243 132.872772 
L 160.649332 130.111285 
L 166.617421 126.061102 
L 172.58551 125.039352 
L 178.553599 120.685406 
L 184.521688 116.579994 
L 190.489777 113.275414 
L 196.457866 110.854509 
L 202.425955 107.577544 
L 208.394045 106.344079 
L 214.362134 102.413562 
L 220.330223 100.848719 
L 226.298312 97.406064 
L 232.266401 94.027844 
L 238.23449 94.690601 
L 244.202579 91.643759 
L 250.170668 89.305699 
L 256.138757 85.209493 
L 262.106846 84.344226 
L 268.074935 82.926663 
L 274.043024 80.165175 
L 280.011113 77.7995 
L 285.979202 77.090718 
L 291.947291 72.506649 
L 297.91538 71.512513 
L 303.883469 69.367757 
L 309.851558 68.097473 
L 315.819647 64.470719 
L 321.787737 63.835577 
L 327.755826 60.586226 
L 333.723915 60.917605 
L 339.692004 59.463221 
L 345.660093 56.388765 
L 351.628182 54.492543 
" style="fill:none;stroke:#d62728;stroke-linecap:square;stroke-width:1.5;"/>
   </g>
   <g id="patch_3">
    <path d="M 44.57 303.64 
L 44.57 26.88 
" style="fill:none;stroke:#000000;stroke-linecap:square;stroke-linejoin:miter;stroke-width:0.8;"/>
   </g>
   <g id="patch_4">
    <path d="M 366.25 303.64 
L 366.25 26.88 
" style="fill:none;stroke:#000000;stroke-linecap:square;stroke-linejoin:miter;stroke-width:0.8;"/>
   </g>
   <g id="patch_5">
    <path d="M 44.57 303.64 
L 366.25 303.64 
" style="fill:none;stroke:#000000;stroke-linecap:square;stroke-linejoin:miter;stroke-width:0.8;"/>
   </g>
   <g id="patch_6">
    <path d="M 44.57 26.88 
L 366.25 26.88 
" style="fill:none;stroke:#000000;stroke-linecap:square;stroke-linejoin:miter;stroke-width:0.8;"/>
   </g>
   <g id="text_15">
    <!-- CIFAR Local Rounds 01 -->
    <g transform="translate(137.255625 20.88)scale(0.12 -0.12)">
     <defs>
      <path d="M 628 4666 
L 1259 4666 
L 1259 0 
L 628 0 
L 628 4666 
z
" id="DejaVuSans-49" transform="scale(0.015625)"/>
      <path d="M 628 4666 
L 3309 4666 
L 3309 4134 
L 1259 4134 
L 1259 2759 
L 3109 2759 
L 3109 2228 
L 1259 2228 
L 1259 0 
L 628 0 
L 628 4666 
z
" id="DejaVuSans-46" transform="scale(0.015625)"/>
      <path d="M 628 4666 
L 1259 4666 
L 1259 531 
L 3531 531 
L 3531 0 
L 628 0 
L 628 4666 
z
" id="DejaVuSans-4c" transform="scale(0.015625)"/>
     </defs>
     <use xlink:href="#DejaVuSans-43"/>
     <use x="69.824219" xlink:href="#DejaVuSans-49"/>
     <use x="99.316406" xlink:href="#DejaVuSans-46"/>
     <use x="147.710938" xlink:href="#DejaVuSans-41"/>
     <use x="216.119141" xlink:href="#DejaVuSans-52"/>
     <use x="285.601562" xlink:href="#DejaVuSans-20"/>
     <use x="317.388672" xlink:href="#DejaVuSans-4c"/>
     <use x="371.351562" xlink:href="#DejaVuSans-6f"/>
     <use x="432.533203" xlink:href="#DejaVuSans-63"/>
     <use x="487.513672" xlink:href="#DejaVuSans-61"/>
     <use x="548.792969" xlink:href="#DejaVuSans-6c"/>
     <use x="576.576172" xlink:href="#DejaVuSans-20"/>
     <use x="608.363281" xlink:href="#DejaVuSans-52"/>
     <use x="673.345703" xlink:href="#DejaVuSans-6f"/>
     <use x="734.527344" xlink:href="#DejaVuSans-75"/>
     <use x="797.90625" xlink:href="#DejaVuSans-6e"/>
     <use x="861.285156" xlink:href="#DejaVuSans-64"/>
     <use x="924.761719" xlink:href="#DejaVuSans-73"/>
     <use x="976.861328" xlink:href="#DejaVuSans-20"/>
     <use x="1008.648438" xlink:href="#DejaVuSans-30"/>
     <use x="1072.271484" xlink:href="#DejaVuSans-31"/>
    </g>
   </g>
   <g id="legend_1">
    <g id="patch_7">
     <path d="M 373.25 196.11625 
L 447.821875 196.11625 
Q 449.821875 196.11625 449.821875 194.11625 
L 449.821875 136.40375 
Q 449.821875 134.40375 447.821875 134.40375 
L 373.25 134.40375 
Q 371.25 134.40375 371.25 136.40375 
L 371.25 194.11625 
Q 371.25 196.11625 373.25 196.11625 
z
" style="fill:#ffffff;opacity:0.8;stroke:#cccccc;stroke-linejoin:miter;"/>
    </g>
    <g id="line2d_29">
     <path d="M 375.25 142.502187 
L 395.25 142.502187 
" style="fill:none;stroke:#1f77b4;stroke-linecap:square;stroke-width:1.5;"/>
    </g>
    <g id="line2d_30"/>
    <g id="text_16">
     <!-- FedAvg -->
     <g transform="translate(403.25 146.002187)scale(0.1 -0.1)">
      <defs>
       <path d="M 191 3500 
L 800 3500 
L 1894 563 
L 2988 3500 
L 3597 3500 
L 2284 0 
L 1503 0 
L 191 3500 
z
" id="DejaVuSans-76" transform="scale(0.015625)"/>
       <path d="M 2906 1791 
Q 2906 2416 2648 2759 
Q 2391 3103 1925 3103 
Q 1463 3103 1205 2759 
Q 947 2416 947 1791 
Q 947 1169 1205 825 
Q 1463 481 1925 481 
Q 2391 481 2648 825 
Q 2906 1169 2906 1791 
z
M 3481 434 
Q 3481 -459 3084 -895 
Q 2688 -1331 1869 -1331 
Q 1566 -1331 1297 -1286 
Q 1028 -1241 775 -1147 
L 775 -588 
Q 1028 -725 1275 -790 
Q 1522 -856 1778 -856 
Q 2344 -856 2625 -561 
Q 2906 -266 2906 331 
L 2906 616 
Q 2728 306 2450 153 
Q 2172 0 1784 0 
Q 1141 0 747 490 
Q 353 981 353 1791 
Q 353 2603 747 3093 
Q 1141 3584 1784 3584 
Q 2172 3584 2450 3431 
Q 2728 3278 2906 2969 
L 2906 3500 
L 3481 3500 
L 3481 434 
z
" id="DejaVuSans-67" transform="scale(0.015625)"/>
      </defs>
      <use xlink:href="#DejaVuSans-46"/>
      <use x="52.019531" xlink:href="#DejaVuSans-65"/>
      <use x="113.542969" xlink:href="#DejaVuSans-64"/>
      <use x="177.019531" xlink:href="#DejaVuSans-41"/>
      <use x="239.552734" xlink:href="#DejaVuSans-76"/>
      <use x="298.732422" xlink:href="#DejaVuSans-67"/>
     </g>
    </g>
    <g id="line2d_31">
     <path d="M 375.25 157.180312 
L 395.25 157.180312 
" style="fill:none;stroke:#ff7f0e;stroke-linecap:square;stroke-width:1.5;"/>
    </g>
    <g id="line2d_32"/>
    <g id="text_17">
     <!-- FedMed -->
     <g transform="translate(403.25 160.680312)scale(0.1 -0.1)">
      <defs>
       <path d="M 628 4666 
L 1569 4666 
L 2759 1491 
L 3956 4666 
L 4897 4666 
L 4897 0 
L 4281 0 
L 4281 4097 
L 3078 897 
L 2444 897 
L 1241 4097 
L 1241 0 
L 628 0 
L 628 4666 
z
" id="DejaVuSans-4d" transform="scale(0.015625)"/>
      </defs>
      <use xlink:href="#DejaVuSans-46"/>
      <use x="52.019531" xlink:href="#DejaVuSans-65"/>
      <use x="113.542969" xlink:href="#DejaVuSans-64"/>
      <use x="177.019531" xlink:href="#DejaVuSans-4d"/>
      <use x="263.298828" xlink:href="#DejaVuSans-65"/>
      <use x="324.822266" xlink:href="#DejaVuSans-64"/>
     </g>
    </g>
    <g id="line2d_33">
     <path d="M 375.25 171.858437 
L 395.25 171.858437 
" style="fill:none;stroke:#2ca02c;stroke-linecap:square;stroke-width:1.5;"/>
    </g>
    <g id="line2d_34"/>
    <g id="text_18">
     <!-- FedProx -->
     <g transform="translate(403.25 175.358437)scale(0.1 -0.1)">
      <defs>
       <path d="M 1259 4147 
L 1259 2394 
L 2053 2394 
Q 2494 2394 2734 2622 
Q 2975 2850 2975 3272 
Q 2975 3691 2734 3919 
Q 2494 4147 2053 4147 
L 1259 4147 
z
M 628 4666 
L 2053 4666 
Q 2838 4666 3239 4311 
Q 3641 3956 3641 3272 
Q 3641 2581 3239 2228 
Q 2838 1875 2053 1875 
L 1259 1875 
L 1259 0 
L 628 0 
L 628 4666 
z
" id="DejaVuSans-50" transform="scale(0.015625)"/>
       <path d="M 3513 3500 
L 2247 1797 
L 3578 0 
L 2900 0 
L 1881 1375 
L 863 0 
L 184 0 
L 1544 1831 
L 300 3500 
L 978 3500 
L 1906 2253 
L 2834 3500 
L 3513 3500 
z
" id="DejaVuSans-78" transform="scale(0.015625)"/>
      </defs>
      <use xlink:href="#DejaVuSans-46"/>
      <use x="52.019531" xlink:href="#DejaVuSans-65"/>
      <use x="113.542969" xlink:href="#DejaVuSans-64"/>
      <use x="177.019531" xlink:href="#DejaVuSans-50"/>
      <use x="235.572266" xlink:href="#DejaVuSans-72"/>
      <use x="274.435547" xlink:href="#DejaVuSans-6f"/>
      <use x="332.492188" xlink:href="#DejaVuSans-78"/>
     </g>
    </g>
    <g id="line2d_35">
     <path d="M 375.25 186.536563 
L 395.25 186.536563 
" style="fill:none;stroke:#d62728;stroke-linecap:square;stroke-width:1.5;"/>
    </g>
    <g id="line2d_36"/>
    <g id="text_19">
     <!-- qFedAvg -->
     <g transform="translate(403.25 190.036563)scale(0.1 -0.1)">
      <defs>
       <path d="M 947 1747 
Q 947 1113 1208 752 
Q 1469 391 1925 391 
Q 2381 391 2643 752 
Q 2906 1113 2906 1747 
Q 2906 2381 2643 2742 
Q 2381 3103 1925 3103 
Q 1469 3103 1208 2742 
Q 947 2381 947 1747 
z
M 2906 525 
Q 2725 213 2448 61 
Q 2172 -91 1784 -91 
Q 1150 -91 751 415 
Q 353 922 353 1747 
Q 353 2572 751 3078 
Q 1150 3584 1784 3584 
Q 2172 3584 2448 3432 
Q 2725 3281 2906 2969 
L 2906 3500 
L 3481 3500 
L 3481 -1331 
L 2906 -1331 
L 2906 525 
z
" id="DejaVuSans-71" transform="scale(0.015625)"/>
      </defs>
      <use xlink:href="#DejaVuSans-71"/>
      <use x="63.476562" xlink:href="#DejaVuSans-46"/>
      <use x="115.496094" xlink:href="#DejaVuSans-65"/>
      <use x="177.019531" xlink:href="#DejaVuSans-64"/>
      <use x="240.496094" xlink:href="#DejaVuSans-41"/>
      <use x="303.029297" xlink:href="#DejaVuSans-76"/>
      <use x="362.208984" xlink:href="#DejaVuSans-67"/>
     </g>
    </g>
   </g>
  </g>
 </g>
 <defs>
  <clipPath id="p08b6f090c3">
   <rect height="276.76" width="321.68" x="44.57" y="26.88"/>
  </clipPath>
 </defs>
</svg>
