<?xml version="1.0" encoding="utf-8" standalone="no"?>
<!DOCTYPE svg PUBLIC "-//W3C//DTD SVG 1.1//EN"
  "http://www.w3.org/Graphics/SVG/1.1/DTD/svg11.dtd">
<svg height="432pt" version="1.1" viewBox="0 0 576 432" width="576pt" xmlns="http://www.w3.org/2000/svg" xmlns:xlink="http://www.w3.org/1999/xlink">
 <metadata>
  <rdf:RDF xmlns:cc="http://creativecommons.org/ns#" xmlns:dc="http://purl.org/dc/elements/1.1/" xmlns:rdf="http://www.w3.org/1999/02/22-rdf-syntax-ns#">
   <cc:Work>
    <dc:type rdf:resource="http://purl.org/dc/dcmitype/StillImage"/>
    <dc:date>2021-05-07T22:04:35.296546</dc:date>
    <dc:format>image/svg+xml</dc:format>
    <dc:creator>
     <cc:Agent>
      <dc:title>Matplotlib v3.4.1, https://matplotlib.org/</dc:title>
     </cc:Agent>
    </dc:creator>
   </cc:Work>
  </rdf:RDF>
 </metadata>
 <defs>
  <style type="text/css">*{stroke-linecap:butt;stroke-linejoin:round;}</style>
 </defs>
 <g id="figure_1">
  <g id="patch_1">
   <path d="M 0 432 
L 576 432 
L 576 0 
L 0 0 
z
" style="fill:#ffffff;"/>
  </g>
  <g id="axes_1">
   <g id="patch_2">
    <path d="M 60.77 376 
L 556.505 376 
L 556.505 56.601989 
L 60.77 56.601989 
z
" style="fill:#ffffff;"/>
   </g>
   <g id="PolyCollection_1">
    <path clip-path="url(#pa5e7b6895c)" d="M 83.303409 307.660865 
L 83.303409 321.358282 
L 92.500719 309.139876 
L 101.698029 282.464143 
L 110.895339 272.111707 
L 120.092648 265.37477 
L 129.289958 249.707736 
L 138.487268 236.711677 
L 147.684578 234.715632 
L 156.881888 230.650017 
L 166.079198 227.576666 
L 175.276507 210.666486 
L 184.473817 210.766113 
L 193.671127 208.966717 
L 202.868437 197.356251 
L 212.065747 196.831079 
L 221.263057 190.340516 
L 230.460366 187.467856 
L 239.657676 176.486171 
L 248.854986 176.580196 
L 258.052296 175.927392 
L 267.249606 165.994595 
L 276.446916 160.076397 
L 285.644225 163.125345 
L 294.841535 159.474681 
L 304.038845 157.916322 
L 313.236155 152.566717 
L 322.433465 148.940195 
L 331.630775 145.455502 
L 340.828084 144.686637 
L 350.025394 145.995575 
L 359.222704 136.155954 
L 368.420014 134.650222 
L 377.617324 138.078164 
L 386.814634 129.537158 
L 396.011943 128.290554 
L 405.209253 118.196586 
L 414.406563 125.883787 
L 423.603873 123.341519 
L 432.801183 126.990253 
L 441.998493 114.833995 
L 451.195802 114.970695 
L 460.393112 114.187329 
L 469.590422 112.73781 
L 478.787732 114.100928 
L 487.985042 105.158029 
L 497.182352 102.654471 
L 506.379661 97.870033 
L 515.576971 92.697388 
L 524.774281 94.993265 
L 533.971591 92.643571 
L 533.971591 82.137727 
L 533.971591 82.137727 
L 524.774281 81.670605 
L 515.576971 84.235422 
L 506.379661 84.172617 
L 497.182352 82.077567 
L 487.985042 90.600506 
L 478.787732 84.346996 
L 469.590422 99.15706 
L 460.393112 99.590113 
L 451.195802 95.310542 
L 441.998493 107.011616 
L 432.801183 102.385648 
L 423.603873 108.454832 
L 414.406563 112.367098 
L 405.209253 110.910376 
L 396.011943 118.028499 
L 386.814634 117.857651 
L 377.617324 118.729508 
L 368.420014 128.343045 
L 359.222704 127.375191 
L 350.025394 127.755249 
L 340.828084 129.602064 
L 331.630775 138.515001 
L 322.433465 136.91288 
L 313.236155 140.009832 
L 304.038845 146.493539 
L 294.841535 146.548814 
L 285.644225 149.083745 
L 276.446916 153.746327 
L 267.249606 155.627357 
L 258.052296 159.679385 
L 248.854986 160.102336 
L 239.657676 169.340286 
L 230.460366 176.108569 
L 221.263057 174.580604 
L 212.065747 181.536988 
L 202.868437 180.742877 
L 193.671127 192.799036 
L 184.473817 193.957968 
L 175.276507 202.394702 
L 166.079198 207.806453 
L 156.881888 202.043713 
L 147.684578 216.534883 
L 138.487268 221.262312 
L 129.289958 227.898795 
L 120.092648 252.572599 
L 110.895339 256.324281 
L 101.698029 259.95667 
L 92.500719 289.220233 
L 83.303409 307.660865 
z
" style="fill:#1f77b4;fill-opacity:0.5;"/>
   </g>
   <g id="PolyCollection_2">
    <path clip-path="url(#pa5e7b6895c)" d="M 83.303409 319.233497 
L 83.303409 346.092405 
L 92.500719 296.013974 
L 101.698029 275.598314 
L 110.895339 269.736283 
L 120.092648 254.190321 
L 129.289958 244.983408 
L 138.487268 252.250212 
L 147.684578 235.413474 
L 156.881888 228.676357 
L 166.079198 226.093315 
L 175.276507 220.597662 
L 184.473817 214.16163 
L 193.671127 212.487036 
L 202.868437 206.904815 
L 212.065747 203.045972 
L 221.263057 204.365257 
L 230.460366 194.573061 
L 239.657676 188.082354 
L 248.854986 184.396097 
L 258.052296 185.479174 
L 267.249606 174.182632 
L 276.446916 169.144126 
L 285.644225 173.510332 
L 294.841535 166.027148 
L 304.038845 165.334603 
L 313.236155 160.184225 
L 322.433465 158.821376 
L 331.630775 156.836686 
L 340.828084 150.355906 
L 350.025394 150.891491 
L 359.222704 149.172419 
L 368.420014 143.66546 
L 377.617324 150.344745 
L 386.814634 140.340977 
L 396.011943 137.181419 
L 405.209253 131.896085 
L 414.406563 134.446335 
L 423.603873 132.547558 
L 432.801183 136.445543 
L 441.998493 131.059057 
L 451.195802 128.98842 
L 460.393112 122.936253 
L 469.590422 128.710785 
L 478.787732 125.211293 
L 487.985042 121.077261 
L 497.182352 119.990239 
L 506.379661 112.079582 
L 515.576971 112.895481 
L 524.774281 108.996742 
L 533.971591 110.170871 
L 533.971591 86.39448 
L 533.971591 86.39448 
L 524.774281 92.40951 
L 515.576971 90.931221 
L 506.379661 99.277411 
L 497.182352 99.972799 
L 487.985042 105.340312 
L 478.787732 101.744157 
L 469.590422 112.498429 
L 460.393112 111.011609 
L 451.195802 107.648832 
L 441.998493 112.570606 
L 432.801183 121.437884 
L 423.603873 122.377541 
L 414.406563 123.97497 
L 405.209253 122.760075 
L 396.011943 132.266381 
L 386.814634 128.568946 
L 377.617324 130.129552 
L 368.420014 136.808836 
L 359.222704 132.915511 
L 350.025394 142.760813 
L 340.828084 134.152475 
L 331.630775 141.656519 
L 322.433465 146.93318 
L 313.236155 154.983194 
L 304.038845 157.900983 
L 294.841535 159.628888 
L 285.644225 159.407056 
L 276.446916 160.008116 
L 267.249606 164.651412 
L 258.052296 169.222267 
L 248.854986 176.490939 
L 239.657676 177.645583 
L 230.460366 178.685165 
L 221.263057 184.760366 
L 212.065747 187.424347 
L 202.868437 190.826855 
L 193.671127 196.540068 
L 184.473817 203.471519 
L 175.276507 201.60745 
L 166.079198 210.36556 
L 156.881888 206.168884 
L 147.684578 216.105981 
L 138.487268 227.50783 
L 129.289958 225.092833 
L 120.092648 246.276019 
L 110.895339 248.211086 
L 101.698029 241.004362 
L 92.500719 277.334815 
L 83.303409 319.233497 
z
" style="fill:#ff7f0e;fill-opacity:0.5;"/>
   </g>
   <g id="PolyCollection_3">
    <path clip-path="url(#pa5e7b6895c)" d="M 83.303409 304.06617 
L 83.303409 340.013557 
L 92.500719 296.529761 
L 101.698029 287.021376 
L 110.895339 276.070902 
L 120.092648 257.086069 
L 129.289958 253.559431 
L 138.487268 249.502604 
L 147.684578 228.720977 
L 156.881888 229.318364 
L 166.079198 224.352994 
L 175.276507 216.002635 
L 184.473817 216.246565 
L 193.671127 208.49667 
L 202.868437 204.811262 
L 212.065747 199.000304 
L 221.263057 190.830136 
L 230.460366 196.484961 
L 239.657676 186.996657 
L 248.854986 181.230938 
L 258.052296 186.654521 
L 267.249606 179.424364 
L 276.446916 181.232712 
L 285.644225 176.192664 
L 294.841535 176.460153 
L 304.038845 175.185448 
L 313.236155 174.099662 
L 322.433465 172.323839 
L 331.630775 172.624317 
L 340.828084 170.357743 
L 350.025394 169.858811 
L 359.222704 166.448171 
L 368.420014 166.431608 
L 377.617324 168.614874 
L 386.814634 167.281764 
L 396.011943 163.447307 
L 405.209253 164.992664 
L 414.406563 160.433252 
L 423.603873 163.179311 
L 432.801183 161.110788 
L 441.998493 158.699121 
L 451.195802 157.260995 
L 460.393112 155.661718 
L 469.590422 153.187524 
L 478.787732 152.697421 
L 487.985042 153.754601 
L 497.182352 150.720163 
L 506.379661 151.844662 
L 515.576971 150.036669 
L 524.774281 147.767202 
L 533.971591 149.338571 
L 533.971591 74.92749 
L 533.971591 74.92749 
L 524.774281 71.12008 
L 515.576971 77.725598 
L 506.379661 82.641079 
L 497.182352 79.731493 
L 487.985042 88.799307 
L 478.787732 85.015586 
L 469.590422 87.483812 
L 460.393112 94.691419 
L 451.195802 98.470921 
L 441.998493 103.487328 
L 432.801183 111.295341 
L 423.603873 110.840451 
L 414.406563 109.014549 
L 405.209253 118.171022 
L 396.011943 117.833806 
L 386.814634 126.101602 
L 377.617324 129.878331 
L 368.420014 125.069185 
L 359.222704 126.935194 
L 350.025394 132.1306 
L 340.828084 138.355141 
L 331.630775 138.240078 
L 322.433465 144.995091 
L 313.236155 147.522291 
L 304.038845 151.546344 
L 294.841535 154.305723 
L 285.644225 154.304273 
L 276.446916 158.677088 
L 267.249606 158.602863 
L 258.052296 166.702225 
L 248.854986 165.402335 
L 239.657676 174.428257 
L 230.460366 175.428571 
L 221.263057 174.090984 
L 212.065747 187.166991 
L 202.868437 185.927995 
L 193.671127 195.420595 
L 184.473817 201.924462 
L 175.276507 206.471415 
L 166.079198 211.299063 
L 156.881888 213.326106 
L 147.684578 222.529538 
L 138.487268 221.918331 
L 129.289958 228.619061 
L 120.092648 235.581042 
L 110.895339 250.213574 
L 101.698029 264.005482 
L 92.500719 271.978127 
L 83.303409 304.06617 
z
" style="fill:#2ca02c;fill-opacity:0.5;"/>
   </g>
   <g id="PolyCollection_4">
    <path clip-path="url(#pa5e7b6895c)" d="M 83.303409 361.311939 
L 83.303409 361.481909 
L 92.500719 350.229445 
L 101.698029 280.186256 
L 110.895339 260.489776 
L 120.092648 262.621917 
L 129.289958 248.407943 
L 138.487268 238.193026 
L 147.684578 235.364196 
L 156.881888 222.806624 
L 166.079198 210.000405 
L 175.276507 213.422596 
L 184.473817 205.047044 
L 193.671127 199.040043 
L 202.868437 196.081407 
L 212.065747 192.370092 
L 221.263057 182.434391 
L 230.460366 182.535591 
L 239.657676 180.932487 
L 248.854986 175.178519 
L 258.052296 177.837507 
L 267.249606 171.944707 
L 276.446916 165.36358 
L 285.644225 159.643311 
L 294.841535 156.801495 
L 304.038845 154.196811 
L 313.236155 151.560289 
L 322.433465 147.350297 
L 331.630775 146.28259 
L 340.828084 140.79402 
L 350.025394 136.385318 
L 359.222704 138.041261 
L 368.420014 136.310697 
L 377.617324 132.517827 
L 386.814634 126.364203 
L 396.011943 126.420274 
L 405.209253 124.159876 
L 414.406563 121.535932 
L 423.603873 119.417275 
L 432.801183 117.098972 
L 441.998493 113.354293 
L 451.195802 111.413828 
L 460.393112 108.45469 
L 469.590422 109.94121 
L 478.787732 105.511828 
L 487.985042 105.270392 
L 497.182352 100.546884 
L 506.379661 100.391042 
L 515.576971 98.803164 
L 524.774281 94.737755 
L 533.971591 91.520435 
L 533.971591 85.416678 
L 533.971591 85.416678 
L 524.774281 86.57607 
L 515.576971 89.606883 
L 506.379661 91.375901 
L 497.182352 90.455197 
L 487.985042 93.231589 
L 478.787732 94.456138 
L 469.590422 98.39775 
L 460.393112 102.816242 
L 451.195802 104.807463 
L 441.998493 105.161585 
L 432.801183 111.997501 
L 423.603873 111.315153 
L 414.406563 114.656763 
L 405.209253 118.406672 
L 396.011943 119.418185 
L 386.814634 121.471397 
L 377.617324 124.772321 
L 368.420014 126.37598 
L 359.222704 131.677899 
L 350.025394 131.804118 
L 340.828084 135.192761 
L 331.630775 137.650261 
L 322.433465 140.194404 
L 313.236155 145.056529 
L 304.038845 145.266995 
L 294.841535 150.225949 
L 285.644225 152.971877 
L 276.446916 154.878985 
L 267.249606 157.773652 
L 258.052296 161.930293 
L 248.854986 166.947607 
L 239.657676 170.541956 
L 230.460366 175.312704 
L 221.263057 177.793476 
L 212.065747 181.49782 
L 202.868437 183.905402 
L 193.671127 187.979251 
L 184.473817 194.911171 
L 175.276507 204.446144 
L 166.079198 204.575178 
L 156.881888 214.523613 
L 147.684578 222.086169 
L 138.487268 225.100037 
L 129.289958 233.411785 
L 120.092648 248.390056 
L 110.895339 251.818213 
L 101.698029 268.686401 
L 92.500719 327.649988 
L 83.303409 361.311939 
z
" style="fill:#d62728;fill-opacity:0.5;"/>
   </g>
   <g id="matplotlib.axis_1">
    <g id="xtick_1">
     <g id="line2d_1">
      <defs>
       <path d="M 0 0 
L 0 3.5 
" id="m5ccc4e804d" style="stroke:#000000;stroke-width:0.8;"/>
      </defs>
      <g>
       <use style="stroke:#000000;stroke-width:0.8;" x="83.303409" xlink:href="#m5ccc4e804d" y="376"/>
      </g>
     </g>
     <g id="text_1">
      <!-- 0 -->
      <g transform="translate(78.531534 394.397656)scale(0.15 -0.15)">
       <defs>
        <path d="M 2034 4250 
Q 1547 4250 1301 3770 
Q 1056 3291 1056 2328 
Q 1056 1369 1301 889 
Q 1547 409 2034 409 
Q 2525 409 2770 889 
Q 3016 1369 3016 2328 
Q 3016 3291 2770 3770 
Q 2525 4250 2034 4250 
z
M 2034 4750 
Q 2819 4750 3233 4129 
Q 3647 3509 3647 2328 
Q 3647 1150 3233 529 
Q 2819 -91 2034 -91 
Q 1250 -91 836 529 
Q 422 1150 422 2328 
Q 422 3509 836 4129 
Q 1250 4750 2034 4750 
z
" id="DejaVuSans-30" transform="scale(0.015625)"/>
       </defs>
       <use xlink:href="#DejaVuSans-30"/>
      </g>
     </g>
    </g>
    <g id="xtick_2">
     <g id="line2d_2">
      <g>
       <use style="stroke:#000000;stroke-width:0.8;" x="175.276507" xlink:href="#m5ccc4e804d" y="376"/>
      </g>
     </g>
     <g id="text_2">
      <!-- 10 -->
      <g transform="translate(165.732757 394.397656)scale(0.15 -0.15)">
       <defs>
        <path d="M 794 531 
L 1825 531 
L 1825 4091 
L 703 3866 
L 703 4441 
L 1819 4666 
L 2450 4666 
L 2450 531 
L 3481 531 
L 3481 0 
L 794 0 
L 794 531 
z
" id="DejaVuSans-31" transform="scale(0.015625)"/>
       </defs>
       <use xlink:href="#DejaVuSans-31"/>
       <use x="63.623047" xlink:href="#DejaVuSans-30"/>
      </g>
     </g>
    </g>
    <g id="xtick_3">
     <g id="line2d_3">
      <g>
       <use style="stroke:#000000;stroke-width:0.8;" x="267.249606" xlink:href="#m5ccc4e804d" y="376"/>
      </g>
     </g>
     <g id="text_3">
      <!-- 20 -->
      <g transform="translate(257.705856 394.397656)scale(0.15 -0.15)">
       <defs>
        <path d="M 1228 531 
L 3431 531 
L 3431 0 
L 469 0 
L 469 531 
Q 828 903 1448 1529 
Q 2069 2156 2228 2338 
Q 2531 2678 2651 2914 
Q 2772 3150 2772 3378 
Q 2772 3750 2511 3984 
Q 2250 4219 1831 4219 
Q 1534 4219 1204 4116 
Q 875 4013 500 3803 
L 500 4441 
Q 881 4594 1212 4672 
Q 1544 4750 1819 4750 
Q 2544 4750 2975 4387 
Q 3406 4025 3406 3419 
Q 3406 3131 3298 2873 
Q 3191 2616 2906 2266 
Q 2828 2175 2409 1742 
Q 1991 1309 1228 531 
z
" id="DejaVuSans-32" transform="scale(0.015625)"/>
       </defs>
       <use xlink:href="#DejaVuSans-32"/>
       <use x="63.623047" xlink:href="#DejaVuSans-30"/>
      </g>
     </g>
    </g>
    <g id="xtick_4">
     <g id="line2d_4">
      <g>
       <use style="stroke:#000000;stroke-width:0.8;" x="359.222704" xlink:href="#m5ccc4e804d" y="376"/>
      </g>
     </g>
     <g id="text_4">
      <!-- 30 -->
      <g transform="translate(349.678954 394.397656)scale(0.15 -0.15)">
       <defs>
        <path d="M 2597 2516 
Q 3050 2419 3304 2112 
Q 3559 1806 3559 1356 
Q 3559 666 3084 287 
Q 2609 -91 1734 -91 
Q 1441 -91 1130 -33 
Q 819 25 488 141 
L 488 750 
Q 750 597 1062 519 
Q 1375 441 1716 441 
Q 2309 441 2620 675 
Q 2931 909 2931 1356 
Q 2931 1769 2642 2001 
Q 2353 2234 1838 2234 
L 1294 2234 
L 1294 2753 
L 1863 2753 
Q 2328 2753 2575 2939 
Q 2822 3125 2822 3475 
Q 2822 3834 2567 4026 
Q 2313 4219 1838 4219 
Q 1578 4219 1281 4162 
Q 984 4106 628 3988 
L 628 4550 
Q 988 4650 1302 4700 
Q 1616 4750 1894 4750 
Q 2613 4750 3031 4423 
Q 3450 4097 3450 3541 
Q 3450 3153 3228 2886 
Q 3006 2619 2597 2516 
z
" id="DejaVuSans-33" transform="scale(0.015625)"/>
       </defs>
       <use xlink:href="#DejaVuSans-33"/>
       <use x="63.623047" xlink:href="#DejaVuSans-30"/>
      </g>
     </g>
    </g>
    <g id="xtick_5">
     <g id="line2d_5">
      <g>
       <use style="stroke:#000000;stroke-width:0.8;" x="451.195802" xlink:href="#m5ccc4e804d" y="376"/>
      </g>
     </g>
     <g id="text_5">
      <!-- 40 -->
      <g transform="translate(441.652052 394.397656)scale(0.15 -0.15)">
       <defs>
        <path d="M 2419 4116 
L 825 1625 
L 2419 1625 
L 2419 4116 
z
M 2253 4666 
L 3047 4666 
L 3047 1625 
L 3713 1625 
L 3713 1100 
L 3047 1100 
L 3047 0 
L 2419 0 
L 2419 1100 
L 313 1100 
L 313 1709 
L 2253 4666 
z
" id="DejaVuSans-34" transform="scale(0.015625)"/>
       </defs>
       <use xlink:href="#DejaVuSans-34"/>
       <use x="63.623047" xlink:href="#DejaVuSans-30"/>
      </g>
     </g>
    </g>
    <g id="xtick_6">
     <g id="line2d_6">
      <g>
       <use style="stroke:#000000;stroke-width:0.8;" x="543.168901" xlink:href="#m5ccc4e804d" y="376"/>
      </g>
     </g>
     <g id="text_6">
      <!-- 50 -->
      <g transform="translate(533.625151 394.397656)scale(0.15 -0.15)">
       <defs>
        <path d="M 691 4666 
L 3169 4666 
L 3169 4134 
L 1269 4134 
L 1269 2991 
Q 1406 3038 1543 3061 
Q 1681 3084 1819 3084 
Q 2600 3084 3056 2656 
Q 3513 2228 3513 1497 
Q 3513 744 3044 326 
Q 2575 -91 1722 -91 
Q 1428 -91 1123 -41 
Q 819 9 494 109 
L 494 744 
Q 775 591 1075 516 
Q 1375 441 1709 441 
Q 2250 441 2565 725 
Q 2881 1009 2881 1497 
Q 2881 1984 2565 2268 
Q 2250 2553 1709 2553 
Q 1456 2553 1204 2497 
Q 953 2441 691 2322 
L 691 4666 
z
" id="DejaVuSans-35" transform="scale(0.015625)"/>
       </defs>
       <use xlink:href="#DejaVuSans-35"/>
       <use x="63.623047" xlink:href="#DejaVuSans-30"/>
      </g>
     </g>
    </g>
    <g id="text_7">
     <!-- Global Communication Rounds -->
     <g transform="translate(193.194922 412.914844)scale(0.15 -0.15)">
      <defs>
       <path d="M 3809 666 
L 3809 1919 
L 2778 1919 
L 2778 2438 
L 4434 2438 
L 4434 434 
Q 4069 175 3628 42 
Q 3188 -91 2688 -91 
Q 1594 -91 976 548 
Q 359 1188 359 2328 
Q 359 3472 976 4111 
Q 1594 4750 2688 4750 
Q 3144 4750 3555 4637 
Q 3966 4525 4313 4306 
L 4313 3634 
Q 3963 3931 3569 4081 
Q 3175 4231 2741 4231 
Q 1884 4231 1454 3753 
Q 1025 3275 1025 2328 
Q 1025 1384 1454 906 
Q 1884 428 2741 428 
Q 3075 428 3337 486 
Q 3600 544 3809 666 
z
" id="DejaVuSans-47" transform="scale(0.015625)"/>
       <path d="M 603 4863 
L 1178 4863 
L 1178 0 
L 603 0 
L 603 4863 
z
" id="DejaVuSans-6c" transform="scale(0.015625)"/>
       <path d="M 1959 3097 
Q 1497 3097 1228 2736 
Q 959 2375 959 1747 
Q 959 1119 1226 758 
Q 1494 397 1959 397 
Q 2419 397 2687 759 
Q 2956 1122 2956 1747 
Q 2956 2369 2687 2733 
Q 2419 3097 1959 3097 
z
M 1959 3584 
Q 2709 3584 3137 3096 
Q 3566 2609 3566 1747 
Q 3566 888 3137 398 
Q 2709 -91 1959 -91 
Q 1206 -91 779 398 
Q 353 888 353 1747 
Q 353 2609 779 3096 
Q 1206 3584 1959 3584 
z
" id="DejaVuSans-6f" transform="scale(0.015625)"/>
       <path d="M 3116 1747 
Q 3116 2381 2855 2742 
Q 2594 3103 2138 3103 
Q 1681 3103 1420 2742 
Q 1159 2381 1159 1747 
Q 1159 1113 1420 752 
Q 1681 391 2138 391 
Q 2594 391 2855 752 
Q 3116 1113 3116 1747 
z
M 1159 2969 
Q 1341 3281 1617 3432 
Q 1894 3584 2278 3584 
Q 2916 3584 3314 3078 
Q 3713 2572 3713 1747 
Q 3713 922 3314 415 
Q 2916 -91 2278 -91 
Q 1894 -91 1617 61 
Q 1341 213 1159 525 
L 1159 0 
L 581 0 
L 581 4863 
L 1159 4863 
L 1159 2969 
z
" id="DejaVuSans-62" transform="scale(0.015625)"/>
       <path d="M 2194 1759 
Q 1497 1759 1228 1600 
Q 959 1441 959 1056 
Q 959 750 1161 570 
Q 1363 391 1709 391 
Q 2188 391 2477 730 
Q 2766 1069 2766 1631 
L 2766 1759 
L 2194 1759 
z
M 3341 1997 
L 3341 0 
L 2766 0 
L 2766 531 
Q 2569 213 2275 61 
Q 1981 -91 1556 -91 
Q 1019 -91 701 211 
Q 384 513 384 1019 
Q 384 1609 779 1909 
Q 1175 2209 1959 2209 
L 2766 2209 
L 2766 2266 
Q 2766 2663 2505 2880 
Q 2244 3097 1772 3097 
Q 1472 3097 1187 3025 
Q 903 2953 641 2809 
L 641 3341 
Q 956 3463 1253 3523 
Q 1550 3584 1831 3584 
Q 2591 3584 2966 3190 
Q 3341 2797 3341 1997 
z
" id="DejaVuSans-61" transform="scale(0.015625)"/>
       <path id="DejaVuSans-20" transform="scale(0.015625)"/>
       <path d="M 4122 4306 
L 4122 3641 
Q 3803 3938 3442 4084 
Q 3081 4231 2675 4231 
Q 1875 4231 1450 3742 
Q 1025 3253 1025 2328 
Q 1025 1406 1450 917 
Q 1875 428 2675 428 
Q 3081 428 3442 575 
Q 3803 722 4122 1019 
L 4122 359 
Q 3791 134 3420 21 
Q 3050 -91 2638 -91 
Q 1578 -91 968 557 
Q 359 1206 359 2328 
Q 359 3453 968 4101 
Q 1578 4750 2638 4750 
Q 3056 4750 3426 4639 
Q 3797 4528 4122 4306 
z
" id="DejaVuSans-43" transform="scale(0.015625)"/>
       <path d="M 3328 2828 
Q 3544 3216 3844 3400 
Q 4144 3584 4550 3584 
Q 5097 3584 5394 3201 
Q 5691 2819 5691 2113 
L 5691 0 
L 5113 0 
L 5113 2094 
Q 5113 2597 4934 2840 
Q 4756 3084 4391 3084 
Q 3944 3084 3684 2787 
Q 3425 2491 3425 1978 
L 3425 0 
L 2847 0 
L 2847 2094 
Q 2847 2600 2669 2842 
Q 2491 3084 2119 3084 
Q 1678 3084 1418 2786 
Q 1159 2488 1159 1978 
L 1159 0 
L 581 0 
L 581 3500 
L 1159 3500 
L 1159 2956 
Q 1356 3278 1631 3431 
Q 1906 3584 2284 3584 
Q 2666 3584 2933 3390 
Q 3200 3197 3328 2828 
z
" id="DejaVuSans-6d" transform="scale(0.015625)"/>
       <path d="M 544 1381 
L 544 3500 
L 1119 3500 
L 1119 1403 
Q 1119 906 1312 657 
Q 1506 409 1894 409 
Q 2359 409 2629 706 
Q 2900 1003 2900 1516 
L 2900 3500 
L 3475 3500 
L 3475 0 
L 2900 0 
L 2900 538 
Q 2691 219 2414 64 
Q 2138 -91 1772 -91 
Q 1169 -91 856 284 
Q 544 659 544 1381 
z
M 1991 3584 
L 1991 3584 
z
" id="DejaVuSans-75" transform="scale(0.015625)"/>
       <path d="M 3513 2113 
L 3513 0 
L 2938 0 
L 2938 2094 
Q 2938 2591 2744 2837 
Q 2550 3084 2163 3084 
Q 1697 3084 1428 2787 
Q 1159 2491 1159 1978 
L 1159 0 
L 581 0 
L 581 3500 
L 1159 3500 
L 1159 2956 
Q 1366 3272 1645 3428 
Q 1925 3584 2291 3584 
Q 2894 3584 3203 3211 
Q 3513 2838 3513 2113 
z
" id="DejaVuSans-6e" transform="scale(0.015625)"/>
       <path d="M 603 3500 
L 1178 3500 
L 1178 0 
L 603 0 
L 603 3500 
z
M 603 4863 
L 1178 4863 
L 1178 4134 
L 603 4134 
L 603 4863 
z
" id="DejaVuSans-69" transform="scale(0.015625)"/>
       <path d="M 3122 3366 
L 3122 2828 
Q 2878 2963 2633 3030 
Q 2388 3097 2138 3097 
Q 1578 3097 1268 2742 
Q 959 2388 959 1747 
Q 959 1106 1268 751 
Q 1578 397 2138 397 
Q 2388 397 2633 464 
Q 2878 531 3122 666 
L 3122 134 
Q 2881 22 2623 -34 
Q 2366 -91 2075 -91 
Q 1284 -91 818 406 
Q 353 903 353 1747 
Q 353 2603 823 3093 
Q 1294 3584 2113 3584 
Q 2378 3584 2631 3529 
Q 2884 3475 3122 3366 
z
" id="DejaVuSans-63" transform="scale(0.015625)"/>
       <path d="M 1172 4494 
L 1172 3500 
L 2356 3500 
L 2356 3053 
L 1172 3053 
L 1172 1153 
Q 1172 725 1289 603 
Q 1406 481 1766 481 
L 2356 481 
L 2356 0 
L 1766 0 
Q 1100 0 847 248 
Q 594 497 594 1153 
L 594 3053 
L 172 3053 
L 172 3500 
L 594 3500 
L 594 4494 
L 1172 4494 
z
" id="DejaVuSans-74" transform="scale(0.015625)"/>
       <path d="M 2841 2188 
Q 3044 2119 3236 1894 
Q 3428 1669 3622 1275 
L 4263 0 
L 3584 0 
L 2988 1197 
Q 2756 1666 2539 1819 
Q 2322 1972 1947 1972 
L 1259 1972 
L 1259 0 
L 628 0 
L 628 4666 
L 2053 4666 
Q 2853 4666 3247 4331 
Q 3641 3997 3641 3322 
Q 3641 2881 3436 2590 
Q 3231 2300 2841 2188 
z
M 1259 4147 
L 1259 2491 
L 2053 2491 
Q 2509 2491 2742 2702 
Q 2975 2913 2975 3322 
Q 2975 3731 2742 3939 
Q 2509 4147 2053 4147 
L 1259 4147 
z
" id="DejaVuSans-52" transform="scale(0.015625)"/>
       <path d="M 2906 2969 
L 2906 4863 
L 3481 4863 
L 3481 0 
L 2906 0 
L 2906 525 
Q 2725 213 2448 61 
Q 2172 -91 1784 -91 
Q 1150 -91 751 415 
Q 353 922 353 1747 
Q 353 2572 751 3078 
Q 1150 3584 1784 3584 
Q 2172 3584 2448 3432 
Q 2725 3281 2906 2969 
z
M 947 1747 
Q 947 1113 1208 752 
Q 1469 391 1925 391 
Q 2381 391 2643 752 
Q 2906 1113 2906 1747 
Q 2906 2381 2643 2742 
Q 2381 3103 1925 3103 
Q 1469 3103 1208 2742 
Q 947 2381 947 1747 
z
" id="DejaVuSans-64" transform="scale(0.015625)"/>
       <path d="M 2834 3397 
L 2834 2853 
Q 2591 2978 2328 3040 
Q 2066 3103 1784 3103 
Q 1356 3103 1142 2972 
Q 928 2841 928 2578 
Q 928 2378 1081 2264 
Q 1234 2150 1697 2047 
L 1894 2003 
Q 2506 1872 2764 1633 
Q 3022 1394 3022 966 
Q 3022 478 2636 193 
Q 2250 -91 1575 -91 
Q 1294 -91 989 -36 
Q 684 19 347 128 
L 347 722 
Q 666 556 975 473 
Q 1284 391 1588 391 
Q 1994 391 2212 530 
Q 2431 669 2431 922 
Q 2431 1156 2273 1281 
Q 2116 1406 1581 1522 
L 1381 1569 
Q 847 1681 609 1914 
Q 372 2147 372 2553 
Q 372 3047 722 3315 
Q 1072 3584 1716 3584 
Q 2034 3584 2315 3537 
Q 2597 3491 2834 3397 
z
" id="DejaVuSans-73" transform="scale(0.015625)"/>
      </defs>
      <use xlink:href="#DejaVuSans-47"/>
      <use x="77.490234" xlink:href="#DejaVuSans-6c"/>
      <use x="105.273438" xlink:href="#DejaVuSans-6f"/>
      <use x="166.455078" xlink:href="#DejaVuSans-62"/>
      <use x="229.931641" xlink:href="#DejaVuSans-61"/>
      <use x="291.210938" xlink:href="#DejaVuSans-6c"/>
      <use x="318.994141" xlink:href="#DejaVuSans-20"/>
      <use x="350.78125" xlink:href="#DejaVuSans-43"/>
      <use x="420.605469" xlink:href="#DejaVuSans-6f"/>
      <use x="481.787109" xlink:href="#DejaVuSans-6d"/>
      <use x="579.199219" xlink:href="#DejaVuSans-6d"/>
      <use x="676.611328" xlink:href="#DejaVuSans-75"/>
      <use x="739.990234" xlink:href="#DejaVuSans-6e"/>
      <use x="803.369141" xlink:href="#DejaVuSans-69"/>
      <use x="831.152344" xlink:href="#DejaVuSans-63"/>
      <use x="886.132812" xlink:href="#DejaVuSans-61"/>
      <use x="947.412109" xlink:href="#DejaVuSans-74"/>
      <use x="986.621094" xlink:href="#DejaVuSans-69"/>
      <use x="1014.404297" xlink:href="#DejaVuSans-6f"/>
      <use x="1075.585938" xlink:href="#DejaVuSans-6e"/>
      <use x="1138.964844" xlink:href="#DejaVuSans-20"/>
      <use x="1170.751953" xlink:href="#DejaVuSans-52"/>
      <use x="1235.734375" xlink:href="#DejaVuSans-6f"/>
      <use x="1296.916016" xlink:href="#DejaVuSans-75"/>
      <use x="1360.294922" xlink:href="#DejaVuSans-6e"/>
      <use x="1423.673828" xlink:href="#DejaVuSans-64"/>
      <use x="1487.150391" xlink:href="#DejaVuSans-73"/>
     </g>
    </g>
   </g>
   <g id="matplotlib.axis_2">
    <g id="ytick_1">
     <g id="line2d_7">
      <defs>
       <path d="M 0 0 
L -3.5 0 
" id="m5cb1e52f5c" style="stroke:#000000;stroke-width:0.8;"/>
      </defs>
      <g>
       <use style="stroke:#000000;stroke-width:0.8;" x="60.77" xlink:href="#m5cb1e52f5c" y="361.439416"/>
      </g>
     </g>
     <g id="text_8">
      <!-- 10 -->
      <g transform="translate(34.6825 367.138244)scale(0.15 -0.15)">
       <use xlink:href="#DejaVuSans-31"/>
       <use x="63.623047" xlink:href="#DejaVuSans-30"/>
      </g>
     </g>
    </g>
    <g id="ytick_2">
     <g id="line2d_8">
      <g>
       <use style="stroke:#000000;stroke-width:0.8;" x="60.77" xlink:href="#m5cb1e52f5c" y="308.323978"/>
      </g>
     </g>
     <g id="text_9">
      <!-- 20 -->
      <g transform="translate(34.6825 314.022806)scale(0.15 -0.15)">
       <use xlink:href="#DejaVuSans-32"/>
       <use x="63.623047" xlink:href="#DejaVuSans-30"/>
      </g>
     </g>
    </g>
    <g id="ytick_3">
     <g id="line2d_9">
      <g>
       <use style="stroke:#000000;stroke-width:0.8;" x="60.77" xlink:href="#m5cb1e52f5c" y="255.20854"/>
      </g>
     </g>
     <g id="text_10">
      <!-- 30 -->
      <g transform="translate(34.6825 260.907368)scale(0.15 -0.15)">
       <use xlink:href="#DejaVuSans-33"/>
       <use x="63.623047" xlink:href="#DejaVuSans-30"/>
      </g>
     </g>
    </g>
    <g id="ytick_4">
     <g id="line2d_10">
      <g>
       <use style="stroke:#000000;stroke-width:0.8;" x="60.77" xlink:href="#m5cb1e52f5c" y="202.093102"/>
      </g>
     </g>
     <g id="text_11">
      <!-- 40 -->
      <g transform="translate(34.6825 207.79193)scale(0.15 -0.15)">
       <use xlink:href="#DejaVuSans-34"/>
       <use x="63.623047" xlink:href="#DejaVuSans-30"/>
      </g>
     </g>
    </g>
    <g id="ytick_5">
     <g id="line2d_11">
      <g>
       <use style="stroke:#000000;stroke-width:0.8;" x="60.77" xlink:href="#m5cb1e52f5c" y="148.977664"/>
      </g>
     </g>
     <g id="text_12">
      <!-- 50 -->
      <g transform="translate(34.6825 154.676492)scale(0.15 -0.15)">
       <use xlink:href="#DejaVuSans-35"/>
       <use x="63.623047" xlink:href="#DejaVuSans-30"/>
      </g>
     </g>
    </g>
    <g id="ytick_6">
     <g id="line2d_12">
      <g>
       <use style="stroke:#000000;stroke-width:0.8;" x="60.77" xlink:href="#m5cb1e52f5c" y="95.862225"/>
      </g>
     </g>
     <g id="text_13">
      <!-- 60 -->
      <g transform="translate(34.6825 101.561053)scale(0.15 -0.15)">
       <defs>
        <path d="M 2113 2584 
Q 1688 2584 1439 2293 
Q 1191 2003 1191 1497 
Q 1191 994 1439 701 
Q 1688 409 2113 409 
Q 2538 409 2786 701 
Q 3034 994 3034 1497 
Q 3034 2003 2786 2293 
Q 2538 2584 2113 2584 
z
M 3366 4563 
L 3366 3988 
Q 3128 4100 2886 4159 
Q 2644 4219 2406 4219 
Q 1781 4219 1451 3797 
Q 1122 3375 1075 2522 
Q 1259 2794 1537 2939 
Q 1816 3084 2150 3084 
Q 2853 3084 3261 2657 
Q 3669 2231 3669 1497 
Q 3669 778 3244 343 
Q 2819 -91 2113 -91 
Q 1303 -91 875 529 
Q 447 1150 447 2328 
Q 447 3434 972 4092 
Q 1497 4750 2381 4750 
Q 2619 4750 2861 4703 
Q 3103 4656 3366 4563 
z
" id="DejaVuSans-36" transform="scale(0.015625)"/>
       </defs>
       <use xlink:href="#DejaVuSans-36"/>
       <use x="63.623047" xlink:href="#DejaVuSans-30"/>
      </g>
     </g>
    </g>
    <g id="text_14">
     <!-- Test Accuracy -->
     <g transform="translate(27.562969 267.694744)rotate(-90)scale(0.15 -0.15)">
      <defs>
       <path d="M -19 4666 
L 3928 4666 
L 3928 4134 
L 2272 4134 
L 2272 0 
L 1638 0 
L 1638 4134 
L -19 4134 
L -19 4666 
z
" id="DejaVuSans-54" transform="scale(0.015625)"/>
       <path d="M 3597 1894 
L 3597 1613 
L 953 1613 
Q 991 1019 1311 708 
Q 1631 397 2203 397 
Q 2534 397 2845 478 
Q 3156 559 3463 722 
L 3463 178 
Q 3153 47 2828 -22 
Q 2503 -91 2169 -91 
Q 1331 -91 842 396 
Q 353 884 353 1716 
Q 353 2575 817 3079 
Q 1281 3584 2069 3584 
Q 2775 3584 3186 3129 
Q 3597 2675 3597 1894 
z
M 3022 2063 
Q 3016 2534 2758 2815 
Q 2500 3097 2075 3097 
Q 1594 3097 1305 2825 
Q 1016 2553 972 2059 
L 3022 2063 
z
" id="DejaVuSans-65" transform="scale(0.015625)"/>
       <path d="M 2188 4044 
L 1331 1722 
L 3047 1722 
L 2188 4044 
z
M 1831 4666 
L 2547 4666 
L 4325 0 
L 3669 0 
L 3244 1197 
L 1141 1197 
L 716 0 
L 50 0 
L 1831 4666 
z
" id="DejaVuSans-41" transform="scale(0.015625)"/>
       <path d="M 2631 2963 
Q 2534 3019 2420 3045 
Q 2306 3072 2169 3072 
Q 1681 3072 1420 2755 
Q 1159 2438 1159 1844 
L 1159 0 
L 581 0 
L 581 3500 
L 1159 3500 
L 1159 2956 
Q 1341 3275 1631 3429 
Q 1922 3584 2338 3584 
Q 2397 3584 2469 3576 
Q 2541 3569 2628 3553 
L 2631 2963 
z
" id="DejaVuSans-72" transform="scale(0.015625)"/>
       <path d="M 2059 -325 
Q 1816 -950 1584 -1140 
Q 1353 -1331 966 -1331 
L 506 -1331 
L 506 -850 
L 844 -850 
Q 1081 -850 1212 -737 
Q 1344 -625 1503 -206 
L 1606 56 
L 191 3500 
L 800 3500 
L 1894 763 
L 2988 3500 
L 3597 3500 
L 2059 -325 
z
" id="DejaVuSans-79" transform="scale(0.015625)"/>
      </defs>
      <use xlink:href="#DejaVuSans-54"/>
      <use x="44.083984" xlink:href="#DejaVuSans-65"/>
      <use x="105.607422" xlink:href="#DejaVuSans-73"/>
      <use x="157.707031" xlink:href="#DejaVuSans-74"/>
      <use x="196.916016" xlink:href="#DejaVuSans-20"/>
      <use x="228.703125" xlink:href="#DejaVuSans-41"/>
      <use x="295.361328" xlink:href="#DejaVuSans-63"/>
      <use x="350.341797" xlink:href="#DejaVuSans-63"/>
      <use x="405.322266" xlink:href="#DejaVuSans-75"/>
      <use x="468.701172" xlink:href="#DejaVuSans-72"/>
      <use x="509.814453" xlink:href="#DejaVuSans-61"/>
      <use x="571.09375" xlink:href="#DejaVuSans-63"/>
      <use x="626.074219" xlink:href="#DejaVuSans-79"/>
     </g>
    </g>
   </g>
   <g id="line2d_13">
    <path clip-path="url(#pa5e7b6895c)" d="M 83.303409 314.509573 
L 92.500719 299.180055 
L 101.698029 271.210406 
L 110.895339 264.217994 
L 120.092648 258.973685 
L 129.289958 238.803265 
L 138.487268 228.986994 
L 147.684578 225.625258 
L 156.881888 216.346865 
L 166.079198 217.691559 
L 175.276507 206.530594 
L 184.473817 202.362041 
L 193.671127 200.882877 
L 202.868437 189.049564 
L 212.065747 189.184033 
L 221.263057 182.46056 
L 230.460366 181.788213 
L 239.657676 172.913228 
L 248.854986 168.341266 
L 258.052296 167.803388 
L 267.249606 160.810976 
L 276.446916 156.911362 
L 285.644225 156.104545 
L 294.841535 153.011747 
L 304.038845 152.204931 
L 313.236155 146.288274 
L 322.433465 142.926538 
L 331.630775 141.985251 
L 340.828084 137.144351 
L 350.025394 136.875412 
L 359.222704 131.765572 
L 368.420014 131.496633 
L 377.617324 128.403836 
L 386.814634 123.697404 
L 396.011943 123.159526 
L 405.209253 114.553481 
L 414.406563 119.125443 
L 423.603873 115.898175 
L 432.801183 114.68795 
L 441.998493 110.922805 
L 451.195802 105.140618 
L 460.393112 106.888721 
L 469.590422 105.947435 
L 478.787732 99.223962 
L 487.985042 97.879267 
L 497.182352 92.366019 
L 506.379661 91.021325 
L 515.576971 88.466405 
L 524.774281 88.331935 
L 533.971591 87.390649 
" style="fill:none;stroke:#1f77b4;stroke-linecap:square;stroke-width:1.5;"/>
   </g>
   <g id="line2d_14">
    <path clip-path="url(#pa5e7b6895c)" d="M 83.303409 332.662951 
L 92.500719 286.674394 
L 101.698029 258.301338 
L 110.895339 258.973685 
L 120.092648 250.23317 
L 129.289958 235.03812 
L 138.487268 239.879021 
L 147.684578 225.759727 
L 156.881888 217.422621 
L 166.079198 218.229437 
L 175.276507 211.102556 
L 184.473817 208.816575 
L 193.671127 204.513552 
L 202.868437 198.865835 
L 212.065747 195.235159 
L 221.263057 194.562812 
L 230.460366 186.629113 
L 239.657676 182.863968 
L 248.854986 180.443518 
L 258.052296 177.35072 
L 267.249606 169.417022 
L 276.446916 164.576121 
L 285.644225 166.458694 
L 294.841535 162.828018 
L 304.038845 161.617793 
L 313.236155 157.583709 
L 322.433465 152.877278 
L 331.630775 149.246602 
L 340.828084 142.25419 
L 350.025394 146.826152 
L 359.222704 141.043965 
L 368.420014 140.237148 
L 377.617324 140.237148 
L 386.814634 134.454961 
L 396.011943 134.7239 
L 405.209253 127.32808 
L 414.406563 129.210652 
L 423.603873 127.462549 
L 432.801183 128.941713 
L 441.998493 121.814832 
L 451.195802 118.318626 
L 460.393112 116.973931 
L 469.590422 120.604607 
L 478.787732 113.477725 
L 487.985042 113.208786 
L 497.182352 109.981519 
L 506.379661 105.678496 
L 515.576971 101.913351 
L 524.774281 100.703126 
L 533.971591 98.282676 
" style="fill:none;stroke:#ff7f0e;stroke-linecap:square;stroke-width:1.5;"/>
   </g>
   <g id="line2d_15">
    <path clip-path="url(#pa5e7b6895c)" d="M 83.303409 322.039863 
L 92.500719 284.253944 
L 101.698029 275.513429 
L 110.895339 263.142238 
L 120.092648 246.333555 
L 129.289958 241.089246 
L 138.487268 235.710468 
L 147.684578 225.625258 
L 156.881888 221.322235 
L 166.079198 217.826029 
L 175.276507 211.237025 
L 184.473817 209.085514 
L 193.671127 201.958632 
L 202.868437 195.369629 
L 212.065747 193.083648 
L 221.263057 182.46056 
L 230.460366 185.956766 
L 239.657676 180.712457 
L 248.854986 173.316636 
L 258.052296 176.678373 
L 267.249606 169.013614 
L 276.446916 169.9549 
L 285.644225 165.248469 
L 294.841535 165.382938 
L 304.038845 163.365896 
L 313.236155 160.810976 
L 322.433465 158.659465 
L 331.630775 155.432198 
L 340.828084 154.356442 
L 350.025394 150.994705 
L 359.222704 146.691683 
L 368.420014 145.750396 
L 377.617324 149.246602 
L 386.814634 146.691683 
L 396.011943 140.640557 
L 405.209253 141.581843 
L 414.406563 134.7239 
L 423.603873 137.009881 
L 432.801183 136.203064 
L 441.998493 131.093225 
L 451.195802 127.865958 
L 460.393112 125.176568 
L 469.590422 120.335668 
L 478.787732 118.856504 
L 487.985042 121.276954 
L 497.182352 115.225828 
L 506.379661 117.24287 
L 515.576971 113.881133 
L 524.774281 109.443641 
L 533.971591 112.13303 
" style="fill:none;stroke:#2ca02c;stroke-linecap:square;stroke-width:1.5;"/>
   </g>
   <g id="line2d_16">
    <path clip-path="url(#pa5e7b6895c)" d="M 83.303409 361.396924 
L 92.500719 338.939717 
L 101.698029 274.436328 
L 110.895339 256.153995 
L 120.092648 255.505986 
L 129.289958 240.909864 
L 138.487268 231.646531 
L 147.684578 228.725182 
L 156.881888 218.665118 
L 166.079198 207.287792 
L 175.276507 208.93437 
L 184.473817 199.979107 
L 193.671127 193.509647 
L 202.868437 189.993405 
L 212.065747 186.933956 
L 221.263057 180.113933 
L 230.460366 178.924148 
L 239.657676 175.737221 
L 248.854986 171.063063 
L 258.052296 169.8839 
L 267.249606 164.85918 
L 276.446916 160.121282 
L 285.644225 156.307594 
L 294.841535 153.513722 
L 304.038845 149.731903 
L 313.236155 148.308409 
L 322.433465 143.772351 
L 331.630775 141.966426 
L 340.828084 137.993391 
L 350.025394 134.094718 
L 359.222704 134.85958 
L 368.420014 131.343338 
L 377.617324 128.645074 
L 386.814634 123.9178 
L 396.011943 122.91923 
L 405.209253 121.283274 
L 414.406563 118.096348 
L 423.603873 115.366214 
L 432.801183 114.548236 
L 441.998493 109.257939 
L 451.195802 108.110645 
L 460.393112 105.635466 
L 469.590422 104.16948 
L 478.787732 99.983983 
L 487.985042 99.25099 
L 497.182352 95.50104 
L 506.379661 95.883472 
L 515.576971 94.205024 
L 524.774281 90.656912 
L 533.971591 88.468556 
" style="fill:none;stroke:#d62728;stroke-linecap:square;stroke-width:1.5;"/>
   </g>
   <g id="patch_3">
    <path d="M 60.77 376 
L 60.77 56.601989 
" style="fill:none;stroke:#000000;stroke-linecap:square;stroke-linejoin:miter;stroke-width:0.8;"/>
   </g>
   <g id="patch_4">
    <path d="M 556.505 376 
L 556.505 56.601989 
" style="fill:none;stroke:#000000;stroke-linecap:square;stroke-linejoin:miter;stroke-width:0.8;"/>
   </g>
   <g id="patch_5">
    <path d="M 60.77 376 
L 556.505 376 
" style="fill:none;stroke:#000000;stroke-linecap:square;stroke-linejoin:miter;stroke-width:0.8;"/>
   </g>
   <g id="patch_6">
    <path d="M 60.77 56.601989 
L 556.505 56.601989 
" style="fill:none;stroke:#000000;stroke-linecap:square;stroke-linejoin:miter;stroke-width:0.8;"/>
   </g>
   <g id="legend_1">
    <g id="patch_7">
     <path d="M 59.039844 42.709474 
L 558.235156 42.709474 
Q 561.235156 42.709474 561.235156 39.709474 
L 561.235156 19.192287 
Q 561.235156 16.192287 558.235156 16.192287 
L 59.039844 16.192287 
Q 56.039844 16.192287 56.039844 19.192287 
L 56.039844 39.709474 
Q 56.039844 42.709474 59.039844 42.709474 
z
" style="fill:#ffffff;opacity:0.8;stroke:#cccccc;stroke-linejoin:miter;"/>
    </g>
    <g id="line2d_17">
     <path d="M 62.039844 28.339943 
L 92.039844 28.339943 
" style="fill:none;stroke:#1f77b4;stroke-linecap:square;stroke-width:1.5;"/>
    </g>
    <g id="line2d_18"/>
    <g id="text_15">
     <!-- FedAvg -->
     <g transform="translate(104.039844 33.589943)scale(0.15 -0.15)">
      <defs>
       <path d="M 628 4666 
L 3309 4666 
L 3309 4134 
L 1259 4134 
L 1259 2759 
L 3109 2759 
L 3109 2228 
L 1259 2228 
L 1259 0 
L 628 0 
L 628 4666 
z
" id="DejaVuSans-46" transform="scale(0.015625)"/>
       <path d="M 191 3500 
L 800 3500 
L 1894 563 
L 2988 3500 
L 3597 3500 
L 2284 0 
L 1503 0 
L 191 3500 
z
" id="DejaVuSans-76" transform="scale(0.015625)"/>
       <path d="M 2906 1791 
Q 2906 2416 2648 2759 
Q 2391 3103 1925 3103 
Q 1463 3103 1205 2759 
Q 947 2416 947 1791 
Q 947 1169 1205 825 
Q 1463 481 1925 481 
Q 2391 481 2648 825 
Q 2906 1169 2906 1791 
z
M 3481 434 
Q 3481 -459 3084 -895 
Q 2688 -1331 1869 -1331 
Q 1566 -1331 1297 -1286 
Q 1028 -1241 775 -1147 
L 775 -588 
Q 1028 -725 1275 -790 
Q 1522 -856 1778 -856 
Q 2344 -856 2625 -561 
Q 2906 -266 2906 331 
L 2906 616 
Q 2728 306 2450 153 
Q 2172 0 1784 0 
Q 1141 0 747 490 
Q 353 981 353 1791 
Q 353 2603 747 3093 
Q 1141 3584 1784 3584 
Q 2172 3584 2450 3431 
Q 2728 3278 2906 2969 
L 2906 3500 
L 3481 3500 
L 3481 434 
z
" id="DejaVuSans-67" transform="scale(0.015625)"/>
      </defs>
      <use xlink:href="#DejaVuSans-46"/>
      <use x="52.019531" xlink:href="#DejaVuSans-65"/>
      <use x="113.542969" xlink:href="#DejaVuSans-64"/>
      <use x="177.019531" xlink:href="#DejaVuSans-41"/>
      <use x="239.552734" xlink:href="#DejaVuSans-76"/>
      <use x="298.732422" xlink:href="#DejaVuSans-67"/>
     </g>
    </g>
    <g id="line2d_19">
     <path d="M 188.375 28.339943 
L 218.375 28.339943 
" style="fill:none;stroke:#ff7f0e;stroke-linecap:square;stroke-width:1.5;"/>
    </g>
    <g id="line2d_20"/>
    <g id="text_16">
     <!-- FedMed -->
     <g transform="translate(230.375 33.589943)scale(0.15 -0.15)">
      <defs>
       <path d="M 628 4666 
L 1569 4666 
L 2759 1491 
L 3956 4666 
L 4897 4666 
L 4897 0 
L 4281 0 
L 4281 4097 
L 3078 897 
L 2444 897 
L 1241 4097 
L 1241 0 
L 628 0 
L 628 4666 
z
" id="DejaVuSans-4d" transform="scale(0.015625)"/>
      </defs>
      <use xlink:href="#DejaVuSans-46"/>
      <use x="52.019531" xlink:href="#DejaVuSans-65"/>
      <use x="113.542969" xlink:href="#DejaVuSans-64"/>
      <use x="177.019531" xlink:href="#DejaVuSans-4d"/>
      <use x="263.298828" xlink:href="#DejaVuSans-65"/>
      <use x="324.822266" xlink:href="#DejaVuSans-64"/>
     </g>
    </g>
    <g id="line2d_21">
     <path d="M 318.624219 28.339943 
L 348.624219 28.339943 
" style="fill:none;stroke:#2ca02c;stroke-linecap:square;stroke-width:1.5;"/>
    </g>
    <g id="line2d_22"/>
    <g id="text_17">
     <!-- FedProx -->
     <g transform="translate(360.624219 33.589943)scale(0.15 -0.15)">
      <defs>
       <path d="M 1259 4147 
L 1259 2394 
L 2053 2394 
Q 2494 2394 2734 2622 
Q 2975 2850 2975 3272 
Q 2975 3691 2734 3919 
Q 2494 4147 2053 4147 
L 1259 4147 
z
M 628 4666 
L 2053 4666 
Q 2838 4666 3239 4311 
Q 3641 3956 3641 3272 
Q 3641 2581 3239 2228 
Q 2838 1875 2053 1875 
L 1259 1875 
L 1259 0 
L 628 0 
L 628 4666 
z
" id="DejaVuSans-50" transform="scale(0.015625)"/>
       <path d="M 3513 3500 
L 2247 1797 
L 3578 0 
L 2900 0 
L 1881 1375 
L 863 0 
L 184 0 
L 1544 1831 
L 300 3500 
L 978 3500 
L 1906 2253 
L 2834 3500 
L 3513 3500 
z
" id="DejaVuSans-78" transform="scale(0.015625)"/>
      </defs>
      <use xlink:href="#DejaVuSans-46"/>
      <use x="52.019531" xlink:href="#DejaVuSans-65"/>
      <use x="113.542969" xlink:href="#DejaVuSans-64"/>
      <use x="177.019531" xlink:href="#DejaVuSans-50"/>
      <use x="235.572266" xlink:href="#DejaVuSans-72"/>
      <use x="274.435547" xlink:href="#DejaVuSans-6f"/>
      <use x="332.492188" xlink:href="#DejaVuSans-78"/>
     </g>
    </g>
    <g id="line2d_23">
     <path d="M 449.377344 28.339943 
L 479.377344 28.339943 
" style="fill:none;stroke:#d62728;stroke-linecap:square;stroke-width:1.5;"/>
    </g>
    <g id="line2d_24"/>
    <g id="text_18">
     <!-- qFedAvg -->
     <g transform="translate(491.377344 33.589943)scale(0.15 -0.15)">
      <defs>
       <path d="M 947 1747 
Q 947 1113 1208 752 
Q 1469 391 1925 391 
Q 2381 391 2643 752 
Q 2906 1113 2906 1747 
Q 2906 2381 2643 2742 
Q 2381 3103 1925 3103 
Q 1469 3103 1208 2742 
Q 947 2381 947 1747 
z
M 2906 525 
Q 2725 213 2448 61 
Q 2172 -91 1784 -91 
Q 1150 -91 751 415 
Q 353 922 353 1747 
Q 353 2572 751 3078 
Q 1150 3584 1784 3584 
Q 2172 3584 2448 3432 
Q 2725 3281 2906 2969 
L 2906 3500 
L 3481 3500 
L 3481 -1331 
L 2906 -1331 
L 2906 525 
z
" id="DejaVuSans-71" transform="scale(0.015625)"/>
      </defs>
      <use xlink:href="#DejaVuSans-71"/>
      <use x="63.476562" xlink:href="#DejaVuSans-46"/>
      <use x="115.496094" xlink:href="#DejaVuSans-65"/>
      <use x="177.019531" xlink:href="#DejaVuSans-64"/>
      <use x="240.496094" xlink:href="#DejaVuSans-41"/>
      <use x="303.029297" xlink:href="#DejaVuSans-76"/>
      <use x="362.208984" xlink:href="#DejaVuSans-67"/>
     </g>
    </g>
   </g>
  </g>
 </g>
 <defs>
  <clipPath id="pa5e7b6895c">
   <rect height="319.398011" width="495.735" x="60.77" y="56.601989"/>
  </clipPath>
 </defs>
</svg>
