<?xml version="1.0" encoding="utf-8" standalone="no"?>
<!DOCTYPE svg PUBLIC "-//W3C//DTD SVG 1.1//EN"
  "http://www.w3.org/Graphics/SVG/1.1/DTD/svg11.dtd">
<svg height="345.6pt" version="1.1" viewBox="0 0 460.8 345.6" width="460.8pt" xmlns="http://www.w3.org/2000/svg" xmlns:xlink="http://www.w3.org/1999/xlink">
 <metadata>
  <rdf:RDF xmlns:cc="http://creativecommons.org/ns#" xmlns:dc="http://purl.org/dc/elements/1.1/" xmlns:rdf="http://www.w3.org/1999/02/22-rdf-syntax-ns#">
   <cc:Work>
    <dc:type rdf:resource="http://purl.org/dc/dcmitype/StillImage"/>
    <dc:date>2021-04-30T09:52:37.908265</dc:date>
    <dc:format>image/svg+xml</dc:format>
    <dc:creator>
     <cc:Agent>
      <dc:title>Matplotlib v3.4.1, https://matplotlib.org/</dc:title>
     </cc:Agent>
    </dc:creator>
   </cc:Work>
  </rdf:RDF>
 </metadata>
 <defs>
  <style type="text/css">*{stroke-linecap:butt;stroke-linejoin:round;}</style>
 </defs>
 <g id="figure_1">
  <g id="patch_1">
   <path d="M 0 345.6 
L 460.8 345.6 
L 460.8 0 
L 0 0 
z
" style="fill:#ffffff;"/>
  </g>
  <g id="axes_1">
   <g id="patch_2">
    <path d="M 44.57 303.64 
L 366.25 303.64 
L 366.25 26.88 
L 44.57 26.88 
z
" style="fill:#ffffff;"/>
   </g>
   <g id="PolyCollection_1">
    <path clip-path="url(#p7cd856a502)" d="M 59.191818 285.188434 
L 59.191818 288.167708 
L 65.159907 193.690545 
L 71.127996 148.758314 
L 77.096085 126.631532 
L 83.064174 111.455621 
L 89.032263 102.758633 
L 95.000353 95.077065 
L 100.968442 91.086179 
L 106.936531 88.177027 
L 112.90462 84.949733 
L 118.872709 78.489163 
L 124.840798 79.279353 
L 130.808887 80.542578 
L 136.776976 73.02186 
L 142.745065 69.430885 
L 148.713154 68.735643 
L 154.681243 70.975049 
L 160.649332 65.362501 
L 166.617421 63.863369 
L 172.58551 62.919289 
L 178.553599 62.656601 
L 184.521688 56.131382 
L 190.489777 57.693963 
L 196.457866 57.071942 
L 202.425955 56.199024 
L 208.394045 56.418277 
L 214.362134 55.943762 
L 220.330223 53.938028 
L 226.298312 53.899606 
L 232.266401 52.869909 
L 238.23449 51.915008 
L 244.202579 50.89732 
L 250.170668 49.001072 
L 256.138757 50.169965 
L 262.106846 48.242449 
L 268.074935 49.580964 
L 274.043024 49.348067 
L 280.011113 49.207502 
L 285.979202 47.509431 
L 291.947291 48.329591 
L 297.91538 47.320485 
L 303.883469 47.861759 
L 309.851558 49.599307 
L 315.819647 45.479012 
L 321.787737 44.602672 
L 327.755826 44.767531 
L 333.723915 44.647971 
L 339.692004 44.216254 
L 345.660093 43.299948 
L 351.628182 44.700213 
L 351.628182 41.621271 
L 351.628182 41.621271 
L 345.660093 41.805253 
L 339.692004 40.715192 
L 333.723915 40.978494 
L 327.755826 40.511425 
L 321.787737 39.46 
L 315.819647 42.753775 
L 309.851558 43.324859 
L 303.883469 41.587311 
L 297.91538 43.692378 
L 291.947291 43.030782 
L 285.979202 44.372206 
L 280.011113 45.975476 
L 274.043024 44.966138 
L 268.074935 45.254505 
L 262.106846 45.202981 
L 256.138757 46.403051 
L 250.170668 47.05068 
L 244.202579 45.849452 
L 238.23449 46.743066 
L 232.266401 47.525713 
L 226.298312 46.148506 
L 220.330223 48.89016 
L 214.362134 49.664503 
L 208.394045 49.711252 
L 202.425955 51.668053 
L 196.457866 54.270231 
L 190.489777 52.779436 
L 184.521688 51.735695 
L 178.553599 56.852047 
L 172.58551 57.631888 
L 166.617421 61.205432 
L 160.649332 59.185036 
L 154.681243 65.387813 
L 148.713154 61.372047 
L 142.745065 64.846919 
L 136.776976 69.07491 
L 130.808887 70.068176 
L 124.840798 72.895194 
L 118.872709 75.075423 
L 112.90462 77.128837 
L 106.936531 80.504224 
L 100.968442 82.807716 
L 95.000353 86.80955 
L 89.032263 93.375874 
L 83.064174 100.838081 
L 77.096085 118.849334 
L 71.127996 139.813739 
L 65.159907 176.372501 
L 59.191818 285.188434 
z
" style="fill:#1f77b4;fill-opacity:0.5;"/>
   </g>
   <g id="PolyCollection_2">
    <path clip-path="url(#p7cd856a502)" d="M 59.191818 285.188434 
L 59.191818 288.167708 
L 65.159907 237.801248 
L 71.127996 176.742241 
L 77.096085 154.562896 
L 83.064174 136.512686 
L 89.032263 118.622647 
L 95.000353 113.151148 
L 100.968442 111.68599 
L 106.936531 107.545265 
L 112.90462 105.680933 
L 118.872709 98.074251 
L 124.840798 100.956313 
L 130.808887 97.926917 
L 136.776976 96.027903 
L 142.745065 95.577156 
L 148.713154 92.826179 
L 154.681243 91.757515 
L 160.649332 89.511398 
L 166.617421 87.090655 
L 172.58551 83.137064 
L 178.553599 80.791591 
L 184.521688 79.176937 
L 190.489777 78.347895 
L 196.457866 79.681558 
L 202.425955 76.803535 
L 208.394045 72.599735 
L 214.362134 71.593659 
L 220.330223 72.368056 
L 226.298312 70.36883 
L 232.266401 69.129397 
L 238.23449 67.391251 
L 244.202579 69.426932 
L 250.170668 67.115229 
L 256.138757 66.307507 
L 262.106846 64.766991 
L 268.074935 65.577823 
L 274.043024 65.599987 
L 280.011113 64.023898 
L 285.979202 62.050515 
L 291.947291 60.474865 
L 297.91538 61.820292 
L 303.883469 57.932999 
L 309.851558 60.061439 
L 315.819647 61.310871 
L 321.787737 61.040643 
L 327.755826 58.829588 
L 333.723915 57.288878 
L 339.692004 54.97862 
L 345.660093 56.065259 
L 351.628182 56.823708 
L 351.628182 47.047009 
L 351.628182 47.047009 
L 345.660093 47.284194 
L 339.692004 52.019683 
L 333.723915 47.450613 
L 327.755826 50.253773 
L 321.787737 50.30153 
L 315.819647 52.985133 
L 309.851558 50.75947 
L 303.883469 53.061664 
L 297.91538 51.954447 
L 291.947291 53.647385 
L 285.979202 56.763114 
L 280.011113 58.612336 
L 274.043024 57.383756 
L 268.074935 60.012242 
L 262.106846 60.475565 
L 256.138757 61.020106 
L 250.170668 61.081158 
L 244.202579 62.93957 
L 238.23449 60.110117 
L 232.266401 66.190937 
L 226.298312 65.472767 
L 220.330223 65.037334 
L 214.362134 66.85426 
L 208.394045 67.759487 
L 202.425955 67.899556 
L 196.457866 68.670384 
L 190.489777 70.004047 
L 184.521688 74.040139 
L 178.553599 70.861692 
L 172.58551 80.15779 
L 166.617421 77.072972 
L 160.649332 81.081156 
L 154.681243 80.746341 
L 148.713154 84.890321 
L 142.745065 84.745666 
L 136.776976 90.202581 
L 130.808887 85.697246 
L 124.840798 92.398118 
L 118.872709 92.673858 
L 112.90462 99.488823 
L 106.936531 97.624491 
L 100.968442 101.650241 
L 95.000353 107.656539 
L 89.032263 117.127951 
L 83.064174 123.563582 
L 77.096085 145.303217 
L 71.127996 162.913718 
L 65.159907 206.628845 
L 59.191818 285.188434 
z
" style="fill:#ff7f0e;fill-opacity:0.5;"/>
   </g>
   <g id="PolyCollection_3">
    <path clip-path="url(#p7cd856a502)" d="M 59.191818 282.296142 
L 59.191818 291.06 
L 65.159907 190.723189 
L 71.127996 151.912248 
L 77.096085 131.065311 
L 83.064174 118.538398 
L 89.032263 109.775189 
L 95.000353 102.379268 
L 100.968442 92.159591 
L 106.936531 95.238754 
L 112.90462 91.921377 
L 118.872709 87.874593 
L 124.840798 87.415775 
L 130.808887 85.44414 
L 136.776976 83.36354 
L 142.745065 78.444798 
L 148.713154 77.92776 
L 154.681243 75.292221 
L 160.649332 74.210889 
L 166.617421 72.257877 
L 172.58551 72.687546 
L 178.553599 70.308227 
L 184.521688 68.54773 
L 190.489777 65.384606 
L 196.457866 64.633298 
L 202.425955 65.144669 
L 208.394045 64.549247 
L 214.362134 64.049153 
L 220.330223 63.602382 
L 226.298312 59.673011 
L 232.266401 59.724684 
L 238.23449 58.779815 
L 244.202579 56.88737 
L 250.170668 59.786178 
L 256.138757 56.136344 
L 262.106846 55.730681 
L 268.074935 54.36012 
L 274.043024 53.107721 
L 280.011113 53.095636 
L 285.979202 53.136184 
L 291.947291 52.633555 
L 297.91538 52.960468 
L 303.883469 50.380987 
L 309.851558 52.202186 
L 315.819647 51.07278 
L 321.787737 52.097024 
L 327.755826 52.997784 
L 333.723915 48.355207 
L 339.692004 50.392662 
L 345.660093 50.394349 
L 351.628182 49.056315 
L 351.628182 42.825322 
L 351.628182 42.825322 
L 345.660093 43.7461 
L 339.692004 43.574032 
L 333.723915 44.221449 
L 327.755826 46.529064 
L 321.787737 45.866031 
L 315.819647 47.411539 
L 309.851558 48.540945 
L 303.883469 46.365785 
L 297.91538 46.045115 
L 291.947291 45.503255 
L 285.979202 47.780702 
L 280.011113 46.952476 
L 274.043024 49.199204 
L 268.074935 47.599295 
L 262.106846 50.225094 
L 256.138757 49.993185 
L 250.170668 47.907144 
L 244.202579 47.157102 
L 238.23449 48.392243 
L 232.266401 51.096224 
L 226.298312 52.885445 
L 220.330223 52.604925 
L 214.362134 55.633249 
L 208.394045 57.739478 
L 202.425955 57.491565 
L 196.457866 56.439143 
L 190.489777 58.641666 
L 184.521688 58.084864 
L 178.553599 60.320727 
L 172.58551 60.89524 
L 166.617421 61.151154 
L 160.649332 63.368256 
L 154.681243 67.847077 
L 148.713154 68.51288 
L 142.745065 66.953313 
L 136.776976 71.764839 
L 130.808887 71.769296 
L 124.840798 73.794021 
L 118.872709 78.200336 
L 112.90462 81.798763 
L 106.936531 85.779087 
L 100.968442 90.422043 
L 95.000353 88.195087 
L 89.032263 91.398207 
L 83.064174 102.964308 
L 77.096085 119.280688 
L 71.127996 145.173788 
L 65.159907 179.687366 
L 59.191818 282.296142 
z
" style="fill:#2ca02c;fill-opacity:0.5;"/>
   </g>
   <g id="PolyCollection_4">
    <path clip-path="url(#p7cd856a502)" d="M 59.191818 288.936883 
L 59.191818 288.936883 
L 65.159907 208.500598 
L 71.127996 193.854737 
L 77.096085 193.633101 
L 83.064174 191.341578 
L 89.032263 198.254755 
L 95.000353 197.972998 
L 100.968442 196.562457 
L 106.936531 194.73053 
L 112.90462 194.058659 
L 118.872709 193.477261 
L 124.840798 192.374906 
L 130.808887 192.989359 
L 136.776976 192.133719 
L 142.745065 193.305595 
L 148.713154 191.839534 
L 154.681243 195.074368 
L 160.649332 195.313735 
L 166.617421 196.776037 
L 172.58551 197.960014 
L 178.553599 198.968949 
L 184.521688 198.544497 
L 190.489777 196.240991 
L 196.457866 199.408562 
L 202.425955 200.543615 
L 208.394045 202.631116 
L 214.362134 200.994582 
L 220.330223 199.831698 
L 226.298312 203.111766 
L 232.266401 202.94255 
L 238.23449 202.744509 
L 244.202579 205.414613 
L 250.170668 205.122296 
L 256.138757 203.422774 
L 262.106846 206.316933 
L 268.074935 206.883723 
L 274.043024 208.744043 
L 280.011113 207.924719 
L 285.979202 208.144982 
L 291.947291 210.285972 
L 297.91538 213.05802 
L 303.883469 210.190436 
L 309.851558 210.348389 
L 315.819647 208.234064 
L 321.787737 210.217289 
L 327.755826 206.503065 
L 333.723915 206.261866 
L 339.692004 209.611262 
L 345.660093 208.775212 
L 351.628182 206.245486 
L 351.628182 187.348301 
L 351.628182 187.348301 
L 345.660093 187.81098 
L 339.692004 187.688715 
L 333.723915 187.53782 
L 327.755826 187.529975 
L 321.787737 187.206228 
L 315.819647 187.199091 
L 309.851558 187.898725 
L 303.883469 186.917368 
L 297.91538 187.989326 
L 291.947291 187.000278 
L 285.979202 187.919598 
L 280.011113 187.673156 
L 274.043024 187.67743 
L 268.074935 188.288626 
L 262.106846 186.288537 
L 256.138757 185.984391 
L 250.170668 183.941704 
L 244.202579 185.873101 
L 238.23449 185.070368 
L 232.266401 185.846918 
L 226.298312 186.501299 
L 220.330223 187.818459 
L 214.362134 187.712525 
L 208.394045 187.283935 
L 202.425955 185.926052 
L 196.457866 186.196328 
L 190.489777 187.002919 
L 184.521688 187.760451 
L 178.553599 187.088919 
L 172.58551 186.738918 
L 166.617421 183.708821 
L 160.649332 184.89659 
L 154.681243 185.177136 
L 148.713154 184.156717 
L 142.745065 184.914369 
L 136.776976 184.782216 
L 130.808887 185.560044 
L 124.840798 181.425083 
L 118.872709 184.125004 
L 112.90462 184.737824 
L 106.936531 185.424889 
L 100.968442 185.651955 
L 95.000353 186.01215 
L 89.032263 185.675486 
L 83.064174 181.77208 
L 77.096085 182.747495 
L 71.127996 178.792216 
L 65.159907 195.017541 
L 59.191818 288.936883 
z
" style="fill:#d62728;fill-opacity:0.5;"/>
   </g>
   <g id="matplotlib.axis_1">
    <g id="xtick_1">
     <g id="line2d_1">
      <path clip-path="url(#p7cd856a502)" d="M 59.191818 303.64 
L 59.191818 26.88 
" style="fill:none;stroke:#b0b0b0;stroke-linecap:square;stroke-width:0.8;"/>
     </g>
     <g id="line2d_2">
      <defs>
       <path d="M 0 0 
L 0 3.5 
" id="m4150bff97b" style="stroke:#000000;stroke-width:0.8;"/>
      </defs>
      <g>
       <use style="stroke:#000000;stroke-width:0.8;" x="59.191818" xlink:href="#m4150bff97b" y="303.64"/>
      </g>
     </g>
     <g id="text_1">
      <!-- 0 -->
      <g transform="translate(56.010568 318.238437)scale(0.1 -0.1)">
       <defs>
        <path d="M 2034 4250 
Q 1547 4250 1301 3770 
Q 1056 3291 1056 2328 
Q 1056 1369 1301 889 
Q 1547 409 2034 409 
Q 2525 409 2770 889 
Q 3016 1369 3016 2328 
Q 3016 3291 2770 3770 
Q 2525 4250 2034 4250 
z
M 2034 4750 
Q 2819 4750 3233 4129 
Q 3647 3509 3647 2328 
Q 3647 1150 3233 529 
Q 2819 -91 2034 -91 
Q 1250 -91 836 529 
Q 422 1150 422 2328 
Q 422 3509 836 4129 
Q 1250 4750 2034 4750 
z
" id="DejaVuSans-30" transform="scale(0.015625)"/>
       </defs>
       <use xlink:href="#DejaVuSans-30"/>
      </g>
     </g>
    </g>
    <g id="xtick_2">
     <g id="line2d_3">
      <path clip-path="url(#p7cd856a502)" d="M 118.872709 303.64 
L 118.872709 26.88 
" style="fill:none;stroke:#b0b0b0;stroke-linecap:square;stroke-width:0.8;"/>
     </g>
     <g id="line2d_4">
      <g>
       <use style="stroke:#000000;stroke-width:0.8;" x="118.872709" xlink:href="#m4150bff97b" y="303.64"/>
      </g>
     </g>
     <g id="text_2">
      <!-- 10 -->
      <g transform="translate(112.510209 318.238437)scale(0.1 -0.1)">
       <defs>
        <path d="M 794 531 
L 1825 531 
L 1825 4091 
L 703 3866 
L 703 4441 
L 1819 4666 
L 2450 4666 
L 2450 531 
L 3481 531 
L 3481 0 
L 794 0 
L 794 531 
z
" id="DejaVuSans-31" transform="scale(0.015625)"/>
       </defs>
       <use xlink:href="#DejaVuSans-31"/>
       <use x="63.623047" xlink:href="#DejaVuSans-30"/>
      </g>
     </g>
    </g>
    <g id="xtick_3">
     <g id="line2d_5">
      <path clip-path="url(#p7cd856a502)" d="M 178.553599 303.64 
L 178.553599 26.88 
" style="fill:none;stroke:#b0b0b0;stroke-linecap:square;stroke-width:0.8;"/>
     </g>
     <g id="line2d_6">
      <g>
       <use style="stroke:#000000;stroke-width:0.8;" x="178.553599" xlink:href="#m4150bff97b" y="303.64"/>
      </g>
     </g>
     <g id="text_3">
      <!-- 20 -->
      <g transform="translate(172.191099 318.238437)scale(0.1 -0.1)">
       <defs>
        <path d="M 1228 531 
L 3431 531 
L 3431 0 
L 469 0 
L 469 531 
Q 828 903 1448 1529 
Q 2069 2156 2228 2338 
Q 2531 2678 2651 2914 
Q 2772 3150 2772 3378 
Q 2772 3750 2511 3984 
Q 2250 4219 1831 4219 
Q 1534 4219 1204 4116 
Q 875 4013 500 3803 
L 500 4441 
Q 881 4594 1212 4672 
Q 1544 4750 1819 4750 
Q 2544 4750 2975 4387 
Q 3406 4025 3406 3419 
Q 3406 3131 3298 2873 
Q 3191 2616 2906 2266 
Q 2828 2175 2409 1742 
Q 1991 1309 1228 531 
z
" id="DejaVuSans-32" transform="scale(0.015625)"/>
       </defs>
       <use xlink:href="#DejaVuSans-32"/>
       <use x="63.623047" xlink:href="#DejaVuSans-30"/>
      </g>
     </g>
    </g>
    <g id="xtick_4">
     <g id="line2d_7">
      <path clip-path="url(#p7cd856a502)" d="M 238.23449 303.64 
L 238.23449 26.88 
" style="fill:none;stroke:#b0b0b0;stroke-linecap:square;stroke-width:0.8;"/>
     </g>
     <g id="line2d_8">
      <g>
       <use style="stroke:#000000;stroke-width:0.8;" x="238.23449" xlink:href="#m4150bff97b" y="303.64"/>
      </g>
     </g>
     <g id="text_4">
      <!-- 30 -->
      <g transform="translate(231.87199 318.238437)scale(0.1 -0.1)">
       <defs>
        <path d="M 2597 2516 
Q 3050 2419 3304 2112 
Q 3559 1806 3559 1356 
Q 3559 666 3084 287 
Q 2609 -91 1734 -91 
Q 1441 -91 1130 -33 
Q 819 25 488 141 
L 488 750 
Q 750 597 1062 519 
Q 1375 441 1716 441 
Q 2309 441 2620 675 
Q 2931 909 2931 1356 
Q 2931 1769 2642 2001 
Q 2353 2234 1838 2234 
L 1294 2234 
L 1294 2753 
L 1863 2753 
Q 2328 2753 2575 2939 
Q 2822 3125 2822 3475 
Q 2822 3834 2567 4026 
Q 2313 4219 1838 4219 
Q 1578 4219 1281 4162 
Q 984 4106 628 3988 
L 628 4550 
Q 988 4650 1302 4700 
Q 1616 4750 1894 4750 
Q 2613 4750 3031 4423 
Q 3450 4097 3450 3541 
Q 3450 3153 3228 2886 
Q 3006 2619 2597 2516 
z
" id="DejaVuSans-33" transform="scale(0.015625)"/>
       </defs>
       <use xlink:href="#DejaVuSans-33"/>
       <use x="63.623047" xlink:href="#DejaVuSans-30"/>
      </g>
     </g>
    </g>
    <g id="xtick_5">
     <g id="line2d_9">
      <path clip-path="url(#p7cd856a502)" d="M 297.91538 303.64 
L 297.91538 26.88 
" style="fill:none;stroke:#b0b0b0;stroke-linecap:square;stroke-width:0.8;"/>
     </g>
     <g id="line2d_10">
      <g>
       <use style="stroke:#000000;stroke-width:0.8;" x="297.91538" xlink:href="#m4150bff97b" y="303.64"/>
      </g>
     </g>
     <g id="text_5">
      <!-- 40 -->
      <g transform="translate(291.55288 318.238437)scale(0.1 -0.1)">
       <defs>
        <path d="M 2419 4116 
L 825 1625 
L 2419 1625 
L 2419 4116 
z
M 2253 4666 
L 3047 4666 
L 3047 1625 
L 3713 1625 
L 3713 1100 
L 3047 1100 
L 3047 0 
L 2419 0 
L 2419 1100 
L 313 1100 
L 313 1709 
L 2253 4666 
z
" id="DejaVuSans-34" transform="scale(0.015625)"/>
       </defs>
       <use xlink:href="#DejaVuSans-34"/>
       <use x="63.623047" xlink:href="#DejaVuSans-30"/>
      </g>
     </g>
    </g>
    <g id="xtick_6">
     <g id="line2d_11">
      <path clip-path="url(#p7cd856a502)" d="M 357.596271 303.64 
L 357.596271 26.88 
" style="fill:none;stroke:#b0b0b0;stroke-linecap:square;stroke-width:0.8;"/>
     </g>
     <g id="line2d_12">
      <g>
       <use style="stroke:#000000;stroke-width:0.8;" x="357.596271" xlink:href="#m4150bff97b" y="303.64"/>
      </g>
     </g>
     <g id="text_6">
      <!-- 50 -->
      <g transform="translate(351.233771 318.238437)scale(0.1 -0.1)">
       <defs>
        <path d="M 691 4666 
L 3169 4666 
L 3169 4134 
L 1269 4134 
L 1269 2991 
Q 1406 3038 1543 3061 
Q 1681 3084 1819 3084 
Q 2600 3084 3056 2656 
Q 3513 2228 3513 1497 
Q 3513 744 3044 326 
Q 2575 -91 1722 -91 
Q 1428 -91 1123 -41 
Q 819 9 494 109 
L 494 744 
Q 775 591 1075 516 
Q 1375 441 1709 441 
Q 2250 441 2565 725 
Q 2881 1009 2881 1497 
Q 2881 1984 2565 2268 
Q 2250 2553 1709 2553 
Q 1456 2553 1204 2497 
Q 953 2441 691 2322 
L 691 4666 
z
" id="DejaVuSans-35" transform="scale(0.015625)"/>
       </defs>
       <use xlink:href="#DejaVuSans-35"/>
       <use x="63.623047" xlink:href="#DejaVuSans-30"/>
      </g>
     </g>
    </g>
    <g id="text_7">
     <!-- Global Communication Rounds -->
     <g transform="translate(128.448281 331.916562)scale(0.1 -0.1)">
      <defs>
       <path d="M 3809 666 
L 3809 1919 
L 2778 1919 
L 2778 2438 
L 4434 2438 
L 4434 434 
Q 4069 175 3628 42 
Q 3188 -91 2688 -91 
Q 1594 -91 976 548 
Q 359 1188 359 2328 
Q 359 3472 976 4111 
Q 1594 4750 2688 4750 
Q 3144 4750 3555 4637 
Q 3966 4525 4313 4306 
L 4313 3634 
Q 3963 3931 3569 4081 
Q 3175 4231 2741 4231 
Q 1884 4231 1454 3753 
Q 1025 3275 1025 2328 
Q 1025 1384 1454 906 
Q 1884 428 2741 428 
Q 3075 428 3337 486 
Q 3600 544 3809 666 
z
" id="DejaVuSans-47" transform="scale(0.015625)"/>
       <path d="M 603 4863 
L 1178 4863 
L 1178 0 
L 603 0 
L 603 4863 
z
" id="DejaVuSans-6c" transform="scale(0.015625)"/>
       <path d="M 1959 3097 
Q 1497 3097 1228 2736 
Q 959 2375 959 1747 
Q 959 1119 1226 758 
Q 1494 397 1959 397 
Q 2419 397 2687 759 
Q 2956 1122 2956 1747 
Q 2956 2369 2687 2733 
Q 2419 3097 1959 3097 
z
M 1959 3584 
Q 2709 3584 3137 3096 
Q 3566 2609 3566 1747 
Q 3566 888 3137 398 
Q 2709 -91 1959 -91 
Q 1206 -91 779 398 
Q 353 888 353 1747 
Q 353 2609 779 3096 
Q 1206 3584 1959 3584 
z
" id="DejaVuSans-6f" transform="scale(0.015625)"/>
       <path d="M 3116 1747 
Q 3116 2381 2855 2742 
Q 2594 3103 2138 3103 
Q 1681 3103 1420 2742 
Q 1159 2381 1159 1747 
Q 1159 1113 1420 752 
Q 1681 391 2138 391 
Q 2594 391 2855 752 
Q 3116 1113 3116 1747 
z
M 1159 2969 
Q 1341 3281 1617 3432 
Q 1894 3584 2278 3584 
Q 2916 3584 3314 3078 
Q 3713 2572 3713 1747 
Q 3713 922 3314 415 
Q 2916 -91 2278 -91 
Q 1894 -91 1617 61 
Q 1341 213 1159 525 
L 1159 0 
L 581 0 
L 581 4863 
L 1159 4863 
L 1159 2969 
z
" id="DejaVuSans-62" transform="scale(0.015625)"/>
       <path d="M 2194 1759 
Q 1497 1759 1228 1600 
Q 959 1441 959 1056 
Q 959 750 1161 570 
Q 1363 391 1709 391 
Q 2188 391 2477 730 
Q 2766 1069 2766 1631 
L 2766 1759 
L 2194 1759 
z
M 3341 1997 
L 3341 0 
L 2766 0 
L 2766 531 
Q 2569 213 2275 61 
Q 1981 -91 1556 -91 
Q 1019 -91 701 211 
Q 384 513 384 1019 
Q 384 1609 779 1909 
Q 1175 2209 1959 2209 
L 2766 2209 
L 2766 2266 
Q 2766 2663 2505 2880 
Q 2244 3097 1772 3097 
Q 1472 3097 1187 3025 
Q 903 2953 641 2809 
L 641 3341 
Q 956 3463 1253 3523 
Q 1550 3584 1831 3584 
Q 2591 3584 2966 3190 
Q 3341 2797 3341 1997 
z
" id="DejaVuSans-61" transform="scale(0.015625)"/>
       <path id="DejaVuSans-20" transform="scale(0.015625)"/>
       <path d="M 4122 4306 
L 4122 3641 
Q 3803 3938 3442 4084 
Q 3081 4231 2675 4231 
Q 1875 4231 1450 3742 
Q 1025 3253 1025 2328 
Q 1025 1406 1450 917 
Q 1875 428 2675 428 
Q 3081 428 3442 575 
Q 3803 722 4122 1019 
L 4122 359 
Q 3791 134 3420 21 
Q 3050 -91 2638 -91 
Q 1578 -91 968 557 
Q 359 1206 359 2328 
Q 359 3453 968 4101 
Q 1578 4750 2638 4750 
Q 3056 4750 3426 4639 
Q 3797 4528 4122 4306 
z
" id="DejaVuSans-43" transform="scale(0.015625)"/>
       <path d="M 3328 2828 
Q 3544 3216 3844 3400 
Q 4144 3584 4550 3584 
Q 5097 3584 5394 3201 
Q 5691 2819 5691 2113 
L 5691 0 
L 5113 0 
L 5113 2094 
Q 5113 2597 4934 2840 
Q 4756 3084 4391 3084 
Q 3944 3084 3684 2787 
Q 3425 2491 3425 1978 
L 3425 0 
L 2847 0 
L 2847 2094 
Q 2847 2600 2669 2842 
Q 2491 3084 2119 3084 
Q 1678 3084 1418 2786 
Q 1159 2488 1159 1978 
L 1159 0 
L 581 0 
L 581 3500 
L 1159 3500 
L 1159 2956 
Q 1356 3278 1631 3431 
Q 1906 3584 2284 3584 
Q 2666 3584 2933 3390 
Q 3200 3197 3328 2828 
z
" id="DejaVuSans-6d" transform="scale(0.015625)"/>
       <path d="M 544 1381 
L 544 3500 
L 1119 3500 
L 1119 1403 
Q 1119 906 1312 657 
Q 1506 409 1894 409 
Q 2359 409 2629 706 
Q 2900 1003 2900 1516 
L 2900 3500 
L 3475 3500 
L 3475 0 
L 2900 0 
L 2900 538 
Q 2691 219 2414 64 
Q 2138 -91 1772 -91 
Q 1169 -91 856 284 
Q 544 659 544 1381 
z
M 1991 3584 
L 1991 3584 
z
" id="DejaVuSans-75" transform="scale(0.015625)"/>
       <path d="M 3513 2113 
L 3513 0 
L 2938 0 
L 2938 2094 
Q 2938 2591 2744 2837 
Q 2550 3084 2163 3084 
Q 1697 3084 1428 2787 
Q 1159 2491 1159 1978 
L 1159 0 
L 581 0 
L 581 3500 
L 1159 3500 
L 1159 2956 
Q 1366 3272 1645 3428 
Q 1925 3584 2291 3584 
Q 2894 3584 3203 3211 
Q 3513 2838 3513 2113 
z
" id="DejaVuSans-6e" transform="scale(0.015625)"/>
       <path d="M 603 3500 
L 1178 3500 
L 1178 0 
L 603 0 
L 603 3500 
z
M 603 4863 
L 1178 4863 
L 1178 4134 
L 603 4134 
L 603 4863 
z
" id="DejaVuSans-69" transform="scale(0.015625)"/>
       <path d="M 3122 3366 
L 3122 2828 
Q 2878 2963 2633 3030 
Q 2388 3097 2138 3097 
Q 1578 3097 1268 2742 
Q 959 2388 959 1747 
Q 959 1106 1268 751 
Q 1578 397 2138 397 
Q 2388 397 2633 464 
Q 2878 531 3122 666 
L 3122 134 
Q 2881 22 2623 -34 
Q 2366 -91 2075 -91 
Q 1284 -91 818 406 
Q 353 903 353 1747 
Q 353 2603 823 3093 
Q 1294 3584 2113 3584 
Q 2378 3584 2631 3529 
Q 2884 3475 3122 3366 
z
" id="DejaVuSans-63" transform="scale(0.015625)"/>
       <path d="M 1172 4494 
L 1172 3500 
L 2356 3500 
L 2356 3053 
L 1172 3053 
L 1172 1153 
Q 1172 725 1289 603 
Q 1406 481 1766 481 
L 2356 481 
L 2356 0 
L 1766 0 
Q 1100 0 847 248 
Q 594 497 594 1153 
L 594 3053 
L 172 3053 
L 172 3500 
L 594 3500 
L 594 4494 
L 1172 4494 
z
" id="DejaVuSans-74" transform="scale(0.015625)"/>
       <path d="M 2841 2188 
Q 3044 2119 3236 1894 
Q 3428 1669 3622 1275 
L 4263 0 
L 3584 0 
L 2988 1197 
Q 2756 1666 2539 1819 
Q 2322 1972 1947 1972 
L 1259 1972 
L 1259 0 
L 628 0 
L 628 4666 
L 2053 4666 
Q 2853 4666 3247 4331 
Q 3641 3997 3641 3322 
Q 3641 2881 3436 2590 
Q 3231 2300 2841 2188 
z
M 1259 4147 
L 1259 2491 
L 2053 2491 
Q 2509 2491 2742 2702 
Q 2975 2913 2975 3322 
Q 2975 3731 2742 3939 
Q 2509 4147 2053 4147 
L 1259 4147 
z
" id="DejaVuSans-52" transform="scale(0.015625)"/>
       <path d="M 2906 2969 
L 2906 4863 
L 3481 4863 
L 3481 0 
L 2906 0 
L 2906 525 
Q 2725 213 2448 61 
Q 2172 -91 1784 -91 
Q 1150 -91 751 415 
Q 353 922 353 1747 
Q 353 2572 751 3078 
Q 1150 3584 1784 3584 
Q 2172 3584 2448 3432 
Q 2725 3281 2906 2969 
z
M 947 1747 
Q 947 1113 1208 752 
Q 1469 391 1925 391 
Q 2381 391 2643 752 
Q 2906 1113 2906 1747 
Q 2906 2381 2643 2742 
Q 2381 3103 1925 3103 
Q 1469 3103 1208 2742 
Q 947 2381 947 1747 
z
" id="DejaVuSans-64" transform="scale(0.015625)"/>
       <path d="M 2834 3397 
L 2834 2853 
Q 2591 2978 2328 3040 
Q 2066 3103 1784 3103 
Q 1356 3103 1142 2972 
Q 928 2841 928 2578 
Q 928 2378 1081 2264 
Q 1234 2150 1697 2047 
L 1894 2003 
Q 2506 1872 2764 1633 
Q 3022 1394 3022 966 
Q 3022 478 2636 193 
Q 2250 -91 1575 -91 
Q 1294 -91 989 -36 
Q 684 19 347 128 
L 347 722 
Q 666 556 975 473 
Q 1284 391 1588 391 
Q 1994 391 2212 530 
Q 2431 669 2431 922 
Q 2431 1156 2273 1281 
Q 2116 1406 1581 1522 
L 1381 1569 
Q 847 1681 609 1914 
Q 372 2147 372 2553 
Q 372 3047 722 3315 
Q 1072 3584 1716 3584 
Q 2034 3584 2315 3537 
Q 2597 3491 2834 3397 
z
" id="DejaVuSans-73" transform="scale(0.015625)"/>
      </defs>
      <use xlink:href="#DejaVuSans-47"/>
      <use x="77.490234" xlink:href="#DejaVuSans-6c"/>
      <use x="105.273438" xlink:href="#DejaVuSans-6f"/>
      <use x="166.455078" xlink:href="#DejaVuSans-62"/>
      <use x="229.931641" xlink:href="#DejaVuSans-61"/>
      <use x="291.210938" xlink:href="#DejaVuSans-6c"/>
      <use x="318.994141" xlink:href="#DejaVuSans-20"/>
      <use x="350.78125" xlink:href="#DejaVuSans-43"/>
      <use x="420.605469" xlink:href="#DejaVuSans-6f"/>
      <use x="481.787109" xlink:href="#DejaVuSans-6d"/>
      <use x="579.199219" xlink:href="#DejaVuSans-6d"/>
      <use x="676.611328" xlink:href="#DejaVuSans-75"/>
      <use x="739.990234" xlink:href="#DejaVuSans-6e"/>
      <use x="803.369141" xlink:href="#DejaVuSans-69"/>
      <use x="831.152344" xlink:href="#DejaVuSans-63"/>
      <use x="886.132812" xlink:href="#DejaVuSans-61"/>
      <use x="947.412109" xlink:href="#DejaVuSans-74"/>
      <use x="986.621094" xlink:href="#DejaVuSans-69"/>
      <use x="1014.404297" xlink:href="#DejaVuSans-6f"/>
      <use x="1075.585938" xlink:href="#DejaVuSans-6e"/>
      <use x="1138.964844" xlink:href="#DejaVuSans-20"/>
      <use x="1170.751953" xlink:href="#DejaVuSans-52"/>
      <use x="1235.734375" xlink:href="#DejaVuSans-6f"/>
      <use x="1296.916016" xlink:href="#DejaVuSans-75"/>
      <use x="1360.294922" xlink:href="#DejaVuSans-6e"/>
      <use x="1423.673828" xlink:href="#DejaVuSans-64"/>
      <use x="1487.150391" xlink:href="#DejaVuSans-73"/>
     </g>
    </g>
   </g>
   <g id="matplotlib.axis_2">
    <g id="ytick_1">
     <g id="line2d_13">
      <path clip-path="url(#p7cd856a502)" d="M 44.57 288.936883 
L 366.25 288.936883 
" style="fill:none;stroke:#b0b0b0;stroke-linecap:square;stroke-width:0.8;"/>
     </g>
     <g id="line2d_14">
      <defs>
       <path d="M 0 0 
L -3.5 0 
" id="m733c9b8f01" style="stroke:#000000;stroke-width:0.8;"/>
      </defs>
      <g>
       <use style="stroke:#000000;stroke-width:0.8;" x="44.57" xlink:href="#m733c9b8f01" y="288.936883"/>
      </g>
     </g>
     <g id="text_8">
      <!-- 10 -->
      <g transform="translate(24.845 292.736102)scale(0.1 -0.1)">
       <use xlink:href="#DejaVuSans-31"/>
       <use x="63.623047" xlink:href="#DejaVuSans-30"/>
      </g>
     </g>
    </g>
    <g id="ytick_2">
     <g id="line2d_15">
      <path clip-path="url(#p7cd856a502)" d="M 44.57 254.620314 
L 366.25 254.620314 
" style="fill:none;stroke:#b0b0b0;stroke-linecap:square;stroke-width:0.8;"/>
     </g>
     <g id="line2d_16">
      <g>
       <use style="stroke:#000000;stroke-width:0.8;" x="44.57" xlink:href="#m733c9b8f01" y="254.620314"/>
      </g>
     </g>
     <g id="text_9">
      <!-- 20 -->
      <g transform="translate(24.845 258.419532)scale(0.1 -0.1)">
       <use xlink:href="#DejaVuSans-32"/>
       <use x="63.623047" xlink:href="#DejaVuSans-30"/>
      </g>
     </g>
    </g>
    <g id="ytick_3">
     <g id="line2d_17">
      <path clip-path="url(#p7cd856a502)" d="M 44.57 220.303744 
L 366.25 220.303744 
" style="fill:none;stroke:#b0b0b0;stroke-linecap:square;stroke-width:0.8;"/>
     </g>
     <g id="line2d_18">
      <g>
       <use style="stroke:#000000;stroke-width:0.8;" x="44.57" xlink:href="#m733c9b8f01" y="220.303744"/>
      </g>
     </g>
     <g id="text_10">
      <!-- 30 -->
      <g transform="translate(24.845 224.102963)scale(0.1 -0.1)">
       <use xlink:href="#DejaVuSans-33"/>
       <use x="63.623047" xlink:href="#DejaVuSans-30"/>
      </g>
     </g>
    </g>
    <g id="ytick_4">
     <g id="line2d_19">
      <path clip-path="url(#p7cd856a502)" d="M 44.57 185.987174 
L 366.25 185.987174 
" style="fill:none;stroke:#b0b0b0;stroke-linecap:square;stroke-width:0.8;"/>
     </g>
     <g id="line2d_20">
      <g>
       <use style="stroke:#000000;stroke-width:0.8;" x="44.57" xlink:href="#m733c9b8f01" y="185.987174"/>
      </g>
     </g>
     <g id="text_11">
      <!-- 40 -->
      <g transform="translate(24.845 189.786393)scale(0.1 -0.1)">
       <use xlink:href="#DejaVuSans-34"/>
       <use x="63.623047" xlink:href="#DejaVuSans-30"/>
      </g>
     </g>
    </g>
    <g id="ytick_5">
     <g id="line2d_21">
      <path clip-path="url(#p7cd856a502)" d="M 44.57 151.670604 
L 366.25 151.670604 
" style="fill:none;stroke:#b0b0b0;stroke-linecap:square;stroke-width:0.8;"/>
     </g>
     <g id="line2d_22">
      <g>
       <use style="stroke:#000000;stroke-width:0.8;" x="44.57" xlink:href="#m733c9b8f01" y="151.670604"/>
      </g>
     </g>
     <g id="text_12">
      <!-- 50 -->
      <g transform="translate(24.845 155.469823)scale(0.1 -0.1)">
       <use xlink:href="#DejaVuSans-35"/>
       <use x="63.623047" xlink:href="#DejaVuSans-30"/>
      </g>
     </g>
    </g>
    <g id="ytick_6">
     <g id="line2d_23">
      <path clip-path="url(#p7cd856a502)" d="M 44.57 117.354035 
L 366.25 117.354035 
" style="fill:none;stroke:#b0b0b0;stroke-linecap:square;stroke-width:0.8;"/>
     </g>
     <g id="line2d_24">
      <g>
       <use style="stroke:#000000;stroke-width:0.8;" x="44.57" xlink:href="#m733c9b8f01" y="117.354035"/>
      </g>
     </g>
     <g id="text_13">
      <!-- 60 -->
      <g transform="translate(24.845 121.153253)scale(0.1 -0.1)">
       <defs>
        <path d="M 2113 2584 
Q 1688 2584 1439 2293 
Q 1191 2003 1191 1497 
Q 1191 994 1439 701 
Q 1688 409 2113 409 
Q 2538 409 2786 701 
Q 3034 994 3034 1497 
Q 3034 2003 2786 2293 
Q 2538 2584 2113 2584 
z
M 3366 4563 
L 3366 3988 
Q 3128 4100 2886 4159 
Q 2644 4219 2406 4219 
Q 1781 4219 1451 3797 
Q 1122 3375 1075 2522 
Q 1259 2794 1537 2939 
Q 1816 3084 2150 3084 
Q 2853 3084 3261 2657 
Q 3669 2231 3669 1497 
Q 3669 778 3244 343 
Q 2819 -91 2113 -91 
Q 1303 -91 875 529 
Q 447 1150 447 2328 
Q 447 3434 972 4092 
Q 1497 4750 2381 4750 
Q 2619 4750 2861 4703 
Q 3103 4656 3366 4563 
z
" id="DejaVuSans-36" transform="scale(0.015625)"/>
       </defs>
       <use xlink:href="#DejaVuSans-36"/>
       <use x="63.623047" xlink:href="#DejaVuSans-30"/>
      </g>
     </g>
    </g>
    <g id="ytick_7">
     <g id="line2d_25">
      <path clip-path="url(#p7cd856a502)" d="M 44.57 83.037465 
L 366.25 83.037465 
" style="fill:none;stroke:#b0b0b0;stroke-linecap:square;stroke-width:0.8;"/>
     </g>
     <g id="line2d_26">
      <g>
       <use style="stroke:#000000;stroke-width:0.8;" x="44.57" xlink:href="#m733c9b8f01" y="83.037465"/>
      </g>
     </g>
     <g id="text_14">
      <!-- 70 -->
      <g transform="translate(24.845 86.836684)scale(0.1 -0.1)">
       <defs>
        <path d="M 525 4666 
L 3525 4666 
L 3525 4397 
L 1831 0 
L 1172 0 
L 2766 4134 
L 525 4134 
L 525 4666 
z
" id="DejaVuSans-37" transform="scale(0.015625)"/>
       </defs>
       <use xlink:href="#DejaVuSans-37"/>
       <use x="63.623047" xlink:href="#DejaVuSans-30"/>
      </g>
     </g>
    </g>
    <g id="ytick_8">
     <g id="line2d_27">
      <path clip-path="url(#p7cd856a502)" d="M 44.57 48.720895 
L 366.25 48.720895 
" style="fill:none;stroke:#b0b0b0;stroke-linecap:square;stroke-width:0.8;"/>
     </g>
     <g id="line2d_28">
      <g>
       <use style="stroke:#000000;stroke-width:0.8;" x="44.57" xlink:href="#m733c9b8f01" y="48.720895"/>
      </g>
     </g>
     <g id="text_15">
      <!-- 80 -->
      <g transform="translate(24.845 52.520114)scale(0.1 -0.1)">
       <defs>
        <path d="M 2034 2216 
Q 1584 2216 1326 1975 
Q 1069 1734 1069 1313 
Q 1069 891 1326 650 
Q 1584 409 2034 409 
Q 2484 409 2743 651 
Q 3003 894 3003 1313 
Q 3003 1734 2745 1975 
Q 2488 2216 2034 2216 
z
M 1403 2484 
Q 997 2584 770 2862 
Q 544 3141 544 3541 
Q 544 4100 942 4425 
Q 1341 4750 2034 4750 
Q 2731 4750 3128 4425 
Q 3525 4100 3525 3541 
Q 3525 3141 3298 2862 
Q 3072 2584 2669 2484 
Q 3125 2378 3379 2068 
Q 3634 1759 3634 1313 
Q 3634 634 3220 271 
Q 2806 -91 2034 -91 
Q 1263 -91 848 271 
Q 434 634 434 1313 
Q 434 1759 690 2068 
Q 947 2378 1403 2484 
z
M 1172 3481 
Q 1172 3119 1398 2916 
Q 1625 2713 2034 2713 
Q 2441 2713 2670 2916 
Q 2900 3119 2900 3481 
Q 2900 3844 2670 4047 
Q 2441 4250 2034 4250 
Q 1625 4250 1398 4047 
Q 1172 3844 1172 3481 
z
" id="DejaVuSans-38" transform="scale(0.015625)"/>
       </defs>
       <use xlink:href="#DejaVuSans-38"/>
       <use x="63.623047" xlink:href="#DejaVuSans-30"/>
      </g>
     </g>
    </g>
    <g id="text_16">
     <!-- Test Accuracy -->
     <g transform="translate(18.765313 199.5225)rotate(-90)scale(0.1 -0.1)">
      <defs>
       <path d="M -19 4666 
L 3928 4666 
L 3928 4134 
L 2272 4134 
L 2272 0 
L 1638 0 
L 1638 4134 
L -19 4134 
L -19 4666 
z
" id="DejaVuSans-54" transform="scale(0.015625)"/>
       <path d="M 3597 1894 
L 3597 1613 
L 953 1613 
Q 991 1019 1311 708 
Q 1631 397 2203 397 
Q 2534 397 2845 478 
Q 3156 559 3463 722 
L 3463 178 
Q 3153 47 2828 -22 
Q 2503 -91 2169 -91 
Q 1331 -91 842 396 
Q 353 884 353 1716 
Q 353 2575 817 3079 
Q 1281 3584 2069 3584 
Q 2775 3584 3186 3129 
Q 3597 2675 3597 1894 
z
M 3022 2063 
Q 3016 2534 2758 2815 
Q 2500 3097 2075 3097 
Q 1594 3097 1305 2825 
Q 1016 2553 972 2059 
L 3022 2063 
z
" id="DejaVuSans-65" transform="scale(0.015625)"/>
       <path d="M 2188 4044 
L 1331 1722 
L 3047 1722 
L 2188 4044 
z
M 1831 4666 
L 2547 4666 
L 4325 0 
L 3669 0 
L 3244 1197 
L 1141 1197 
L 716 0 
L 50 0 
L 1831 4666 
z
" id="DejaVuSans-41" transform="scale(0.015625)"/>
       <path d="M 2631 2963 
Q 2534 3019 2420 3045 
Q 2306 3072 2169 3072 
Q 1681 3072 1420 2755 
Q 1159 2438 1159 1844 
L 1159 0 
L 581 0 
L 581 3500 
L 1159 3500 
L 1159 2956 
Q 1341 3275 1631 3429 
Q 1922 3584 2338 3584 
Q 2397 3584 2469 3576 
Q 2541 3569 2628 3553 
L 2631 2963 
z
" id="DejaVuSans-72" transform="scale(0.015625)"/>
       <path d="M 2059 -325 
Q 1816 -950 1584 -1140 
Q 1353 -1331 966 -1331 
L 506 -1331 
L 506 -850 
L 844 -850 
Q 1081 -850 1212 -737 
Q 1344 -625 1503 -206 
L 1606 56 
L 191 3500 
L 800 3500 
L 1894 763 
L 2988 3500 
L 3597 3500 
L 2059 -325 
z
" id="DejaVuSans-79" transform="scale(0.015625)"/>
      </defs>
      <use xlink:href="#DejaVuSans-54"/>
      <use x="44.083984" xlink:href="#DejaVuSans-65"/>
      <use x="105.607422" xlink:href="#DejaVuSans-73"/>
      <use x="157.707031" xlink:href="#DejaVuSans-74"/>
      <use x="196.916016" xlink:href="#DejaVuSans-20"/>
      <use x="228.703125" xlink:href="#DejaVuSans-41"/>
      <use x="295.361328" xlink:href="#DejaVuSans-63"/>
      <use x="350.341797" xlink:href="#DejaVuSans-63"/>
      <use x="405.322266" xlink:href="#DejaVuSans-75"/>
      <use x="468.701172" xlink:href="#DejaVuSans-72"/>
      <use x="509.814453" xlink:href="#DejaVuSans-61"/>
      <use x="571.09375" xlink:href="#DejaVuSans-63"/>
      <use x="626.074219" xlink:href="#DejaVuSans-79"/>
     </g>
    </g>
   </g>
   <g id="line2d_29">
    <path clip-path="url(#p7cd856a502)" d="M 59.191818 286.678071 
L 65.159907 185.031523 
L 71.127996 144.286026 
L 77.096085 122.740433 
L 83.064174 106.146851 
L 89.032263 98.067254 
L 95.000353 90.943308 
L 100.968442 86.946948 
L 106.936531 84.340626 
L 112.90462 81.039285 
L 118.872709 76.782293 
L 124.840798 76.087274 
L 130.808887 75.305377 
L 136.776976 71.048385 
L 142.745065 67.138902 
L 148.713154 65.053845 
L 154.681243 68.181431 
L 160.649332 62.273768 
L 166.617421 62.5344 
L 172.58551 60.275588 
L 178.553599 59.754324 
L 184.521688 53.933539 
L 190.489777 55.2367 
L 196.457866 55.671086 
L 202.425955 53.933539 
L 208.394045 53.064765 
L 214.362134 52.804133 
L 220.330223 51.414094 
L 226.298312 50.024056 
L 232.266401 50.197811 
L 238.23449 49.329037 
L 244.202579 48.373386 
L 250.170668 48.025876 
L 256.138757 48.286508 
L 262.106846 46.722715 
L 268.074935 47.417734 
L 274.043024 47.157102 
L 280.011113 47.591489 
L 285.979202 45.940819 
L 291.947291 45.680186 
L 297.91538 45.506432 
L 303.883469 44.724535 
L 309.851558 46.462083 
L 315.819647 44.116393 
L 321.787737 42.031336 
L 327.755826 42.639478 
L 333.723915 42.813233 
L 339.692004 42.465723 
L 345.660093 42.5526 
L 351.628182 43.160742 
" style="fill:none;stroke:#1f77b4;stroke-linecap:square;stroke-width:1.5;"/>
   </g>
   <g id="line2d_30">
    <path clip-path="url(#p7cd856a502)" d="M 59.191818 286.678071 
L 65.159907 222.215046 
L 71.127996 169.827979 
L 77.096085 149.933057 
L 83.064174 130.038134 
L 89.032263 117.875299 
L 95.000353 110.403843 
L 100.968442 106.668115 
L 106.936531 102.584878 
L 112.90462 102.584878 
L 118.872709 95.374055 
L 124.840798 96.677215 
L 130.808887 91.812081 
L 136.776976 93.115242 
L 142.745065 90.161411 
L 148.713154 88.85825 
L 154.681243 86.251928 
L 160.649332 85.296277 
L 166.617421 82.081814 
L 172.58551 81.647427 
L 178.553599 75.826641 
L 184.521688 76.608538 
L 190.489777 74.175971 
L 196.457866 74.175971 
L 202.425955 72.351546 
L 208.394045 70.179611 
L 214.362134 69.22396 
L 220.330223 68.702695 
L 226.298312 67.920799 
L 232.266401 67.660167 
L 238.23449 63.750684 
L 244.202579 66.183251 
L 250.170668 64.098193 
L 256.138757 63.663807 
L 262.106846 62.621278 
L 268.074935 62.795033 
L 274.043024 61.491872 
L 280.011113 61.318117 
L 285.979202 59.406814 
L 291.947291 57.061125 
L 297.91538 56.88737 
L 303.883469 55.497332 
L 309.851558 55.410454 
L 315.819647 57.148002 
L 321.787737 55.671086 
L 327.755826 54.54168 
L 333.723915 52.369746 
L 339.692004 53.499152 
L 345.660093 51.674726 
L 351.628182 51.935359 
" style="fill:none;stroke:#ff7f0e;stroke-linecap:square;stroke-width:1.5;"/>
   </g>
   <g id="line2d_31">
    <path clip-path="url(#p7cd856a502)" d="M 59.191818 286.678071 
L 65.159907 185.205278 
L 71.127996 148.543018 
L 77.096085 125.173 
L 83.064174 110.751353 
L 89.032263 100.586698 
L 95.000353 95.287177 
L 100.968442 91.290817 
L 106.936531 90.508921 
L 112.90462 86.86007 
L 118.872709 83.037465 
L 124.840798 80.604898 
L 130.808887 78.606718 
L 136.776976 77.564189 
L 142.745065 72.699055 
L 148.713154 73.22032 
L 154.681243 71.569649 
L 160.649332 68.789573 
L 166.617421 66.704515 
L 172.58551 66.791393 
L 178.553599 65.314477 
L 184.521688 63.316297 
L 190.489777 62.013136 
L 196.457866 60.53622 
L 202.425955 61.318117 
L 208.394045 61.144362 
L 214.362134 59.841201 
L 220.330223 58.103653 
L 226.298312 56.279228 
L 232.266401 55.410454 
L 238.23449 53.586029 
L 244.202579 52.022236 
L 250.170668 53.846661 
L 256.138757 53.064765 
L 262.106846 52.977887 
L 268.074935 50.979707 
L 274.043024 51.153462 
L 280.011113 50.024056 
L 285.979202 50.458443 
L 291.947291 49.068405 
L 297.91538 49.502792 
L 303.883469 48.373386 
L 309.851558 50.371566 
L 315.819647 49.242159 
L 321.787737 48.981527 
L 327.755826 49.763424 
L 333.723915 46.288328 
L 339.692004 46.983347 
L 345.660093 47.070225 
L 351.628182 45.940819 
" style="fill:none;stroke:#2ca02c;stroke-linecap:square;stroke-width:1.5;"/>
   </g>
   <g id="line2d_32">
    <path clip-path="url(#p7cd856a502)" d="M 59.191818 288.936883 
L 65.159907 201.75907 
L 71.127996 186.323476 
L 77.096085 188.190298 
L 83.064174 186.556829 
L 89.032263 191.965121 
L 95.000353 191.992574 
L 100.968442 191.107206 
L 106.936531 190.077709 
L 112.90462 189.398241 
L 118.872709 188.801133 
L 124.840798 186.899995 
L 130.808887 189.274701 
L 136.776976 188.457967 
L 142.745065 189.109982 
L 148.713154 187.998125 
L 154.681243 190.125752 
L 160.649332 190.105162 
L 166.617421 190.242429 
L 172.58551 192.349466 
L 178.553599 193.028934 
L 184.521688 193.152474 
L 190.489777 191.621955 
L 196.457866 192.802445 
L 202.425955 193.234834 
L 208.394045 194.957525 
L 214.362134 194.353554 
L 220.330223 193.825079 
L 226.298312 194.806532 
L 232.266401 194.394734 
L 238.23449 193.907438 
L 244.202579 195.643857 
L 250.170668 194.532 
L 256.138757 194.703583 
L 262.106846 196.302735 
L 268.074935 197.586175 
L 274.043024 198.210736 
L 280.011113 197.798937 
L 285.979202 198.03229 
L 291.947291 198.643125 
L 297.91538 200.523673 
L 303.883469 198.553902 
L 309.851558 199.123557 
L 315.819647 197.716578 
L 321.787737 198.711758 
L 327.755826 197.01652 
L 333.723915 196.899843 
L 339.692004 198.649988 
L 345.660093 198.293096 
L 351.628182 196.796894 
" style="fill:none;stroke:#d62728;stroke-linecap:square;stroke-width:1.5;"/>
   </g>
   <g id="patch_3">
    <path d="M 44.57 303.64 
L 44.57 26.88 
" style="fill:none;stroke:#000000;stroke-linecap:square;stroke-linejoin:miter;stroke-width:0.8;"/>
   </g>
   <g id="patch_4">
    <path d="M 366.25 303.64 
L 366.25 26.88 
" style="fill:none;stroke:#000000;stroke-linecap:square;stroke-linejoin:miter;stroke-width:0.8;"/>
   </g>
   <g id="patch_5">
    <path d="M 44.57 303.64 
L 366.25 303.64 
" style="fill:none;stroke:#000000;stroke-linecap:square;stroke-linejoin:miter;stroke-width:0.8;"/>
   </g>
   <g id="patch_6">
    <path d="M 44.57 26.88 
L 366.25 26.88 
" style="fill:none;stroke:#000000;stroke-linecap:square;stroke-linejoin:miter;stroke-width:0.8;"/>
   </g>
   <g id="text_17">
    <!-- CIFAR Local Rounds 25 -->
    <g transform="translate(137.255625 20.88)scale(0.12 -0.12)">
     <defs>
      <path d="M 628 4666 
L 1259 4666 
L 1259 0 
L 628 0 
L 628 4666 
z
" id="DejaVuSans-49" transform="scale(0.015625)"/>
      <path d="M 628 4666 
L 3309 4666 
L 3309 4134 
L 1259 4134 
L 1259 2759 
L 3109 2759 
L 3109 2228 
L 1259 2228 
L 1259 0 
L 628 0 
L 628 4666 
z
" id="DejaVuSans-46" transform="scale(0.015625)"/>
      <path d="M 628 4666 
L 1259 4666 
L 1259 531 
L 3531 531 
L 3531 0 
L 628 0 
L 628 4666 
z
" id="DejaVuSans-4c" transform="scale(0.015625)"/>
     </defs>
     <use xlink:href="#DejaVuSans-43"/>
     <use x="69.824219" xlink:href="#DejaVuSans-49"/>
     <use x="99.316406" xlink:href="#DejaVuSans-46"/>
     <use x="147.710938" xlink:href="#DejaVuSans-41"/>
     <use x="216.119141" xlink:href="#DejaVuSans-52"/>
     <use x="285.601562" xlink:href="#DejaVuSans-20"/>
     <use x="317.388672" xlink:href="#DejaVuSans-4c"/>
     <use x="371.351562" xlink:href="#DejaVuSans-6f"/>
     <use x="432.533203" xlink:href="#DejaVuSans-63"/>
     <use x="487.513672" xlink:href="#DejaVuSans-61"/>
     <use x="548.792969" xlink:href="#DejaVuSans-6c"/>
     <use x="576.576172" xlink:href="#DejaVuSans-20"/>
     <use x="608.363281" xlink:href="#DejaVuSans-52"/>
     <use x="673.345703" xlink:href="#DejaVuSans-6f"/>
     <use x="734.527344" xlink:href="#DejaVuSans-75"/>
     <use x="797.90625" xlink:href="#DejaVuSans-6e"/>
     <use x="861.285156" xlink:href="#DejaVuSans-64"/>
     <use x="924.761719" xlink:href="#DejaVuSans-73"/>
     <use x="976.861328" xlink:href="#DejaVuSans-20"/>
     <use x="1008.648438" xlink:href="#DejaVuSans-32"/>
     <use x="1072.271484" xlink:href="#DejaVuSans-35"/>
    </g>
   </g>
   <g id="legend_1">
    <g id="patch_7">
     <path d="M 373.25 196.11625 
L 447.821875 196.11625 
Q 449.821875 196.11625 449.821875 194.11625 
L 449.821875 136.40375 
Q 449.821875 134.40375 447.821875 134.40375 
L 373.25 134.40375 
Q 371.25 134.40375 371.25 136.40375 
L 371.25 194.11625 
Q 371.25 196.11625 373.25 196.11625 
z
" style="fill:#ffffff;opacity:0.8;stroke:#cccccc;stroke-linejoin:miter;"/>
    </g>
    <g id="line2d_33">
     <path d="M 375.25 142.502187 
L 395.25 142.502187 
" style="fill:none;stroke:#1f77b4;stroke-linecap:square;stroke-width:1.5;"/>
    </g>
    <g id="line2d_34"/>
    <g id="text_18">
     <!-- FedAvg -->
     <g transform="translate(403.25 146.002187)scale(0.1 -0.1)">
      <defs>
       <path d="M 191 3500 
L 800 3500 
L 1894 563 
L 2988 3500 
L 3597 3500 
L 2284 0 
L 1503 0 
L 191 3500 
z
" id="DejaVuSans-76" transform="scale(0.015625)"/>
       <path d="M 2906 1791 
Q 2906 2416 2648 2759 
Q 2391 3103 1925 3103 
Q 1463 3103 1205 2759 
Q 947 2416 947 1791 
Q 947 1169 1205 825 
Q 1463 481 1925 481 
Q 2391 481 2648 825 
Q 2906 1169 2906 1791 
z
M 3481 434 
Q 3481 -459 3084 -895 
Q 2688 -1331 1869 -1331 
Q 1566 -1331 1297 -1286 
Q 1028 -1241 775 -1147 
L 775 -588 
Q 1028 -725 1275 -790 
Q 1522 -856 1778 -856 
Q 2344 -856 2625 -561 
Q 2906 -266 2906 331 
L 2906 616 
Q 2728 306 2450 153 
Q 2172 0 1784 0 
Q 1141 0 747 490 
Q 353 981 353 1791 
Q 353 2603 747 3093 
Q 1141 3584 1784 3584 
Q 2172 3584 2450 3431 
Q 2728 3278 2906 2969 
L 2906 3500 
L 3481 3500 
L 3481 434 
z
" id="DejaVuSans-67" transform="scale(0.015625)"/>
      </defs>
      <use xlink:href="#DejaVuSans-46"/>
      <use x="52.019531" xlink:href="#DejaVuSans-65"/>
      <use x="113.542969" xlink:href="#DejaVuSans-64"/>
      <use x="177.019531" xlink:href="#DejaVuSans-41"/>
      <use x="239.552734" xlink:href="#DejaVuSans-76"/>
      <use x="298.732422" xlink:href="#DejaVuSans-67"/>
     </g>
    </g>
    <g id="line2d_35">
     <path d="M 375.25 157.180312 
L 395.25 157.180312 
" style="fill:none;stroke:#ff7f0e;stroke-linecap:square;stroke-width:1.5;"/>
    </g>
    <g id="line2d_36"/>
    <g id="text_19">
     <!-- FedMed -->
     <g transform="translate(403.25 160.680312)scale(0.1 -0.1)">
      <defs>
       <path d="M 628 4666 
L 1569 4666 
L 2759 1491 
L 3956 4666 
L 4897 4666 
L 4897 0 
L 4281 0 
L 4281 4097 
L 3078 897 
L 2444 897 
L 1241 4097 
L 1241 0 
L 628 0 
L 628 4666 
z
" id="DejaVuSans-4d" transform="scale(0.015625)"/>
      </defs>
      <use xlink:href="#DejaVuSans-46"/>
      <use x="52.019531" xlink:href="#DejaVuSans-65"/>
      <use x="113.542969" xlink:href="#DejaVuSans-64"/>
      <use x="177.019531" xlink:href="#DejaVuSans-4d"/>
      <use x="263.298828" xlink:href="#DejaVuSans-65"/>
      <use x="324.822266" xlink:href="#DejaVuSans-64"/>
     </g>
    </g>
    <g id="line2d_37">
     <path d="M 375.25 171.858437 
L 395.25 171.858437 
" style="fill:none;stroke:#2ca02c;stroke-linecap:square;stroke-width:1.5;"/>
    </g>
    <g id="line2d_38"/>
    <g id="text_20">
     <!-- FedProx -->
     <g transform="translate(403.25 175.358437)scale(0.1 -0.1)">
      <defs>
       <path d="M 1259 4147 
L 1259 2394 
L 2053 2394 
Q 2494 2394 2734 2622 
Q 2975 2850 2975 3272 
Q 2975 3691 2734 3919 
Q 2494 4147 2053 4147 
L 1259 4147 
z
M 628 4666 
L 2053 4666 
Q 2838 4666 3239 4311 
Q 3641 3956 3641 3272 
Q 3641 2581 3239 2228 
Q 2838 1875 2053 1875 
L 1259 1875 
L 1259 0 
L 628 0 
L 628 4666 
z
" id="DejaVuSans-50" transform="scale(0.015625)"/>
       <path d="M 3513 3500 
L 2247 1797 
L 3578 0 
L 2900 0 
L 1881 1375 
L 863 0 
L 184 0 
L 1544 1831 
L 300 3500 
L 978 3500 
L 1906 2253 
L 2834 3500 
L 3513 3500 
z
" id="DejaVuSans-78" transform="scale(0.015625)"/>
      </defs>
      <use xlink:href="#DejaVuSans-46"/>
      <use x="52.019531" xlink:href="#DejaVuSans-65"/>
      <use x="113.542969" xlink:href="#DejaVuSans-64"/>
      <use x="177.019531" xlink:href="#DejaVuSans-50"/>
      <use x="235.572266" xlink:href="#DejaVuSans-72"/>
      <use x="274.435547" xlink:href="#DejaVuSans-6f"/>
      <use x="332.492188" xlink:href="#DejaVuSans-78"/>
     </g>
    </g>
    <g id="line2d_39">
     <path d="M 375.25 186.536563 
L 395.25 186.536563 
" style="fill:none;stroke:#d62728;stroke-linecap:square;stroke-width:1.5;"/>
    </g>
    <g id="line2d_40"/>
    <g id="text_21">
     <!-- qFedAvg -->
     <g transform="translate(403.25 190.036563)scale(0.1 -0.1)">
      <defs>
       <path d="M 947 1747 
Q 947 1113 1208 752 
Q 1469 391 1925 391 
Q 2381 391 2643 752 
Q 2906 1113 2906 1747 
Q 2906 2381 2643 2742 
Q 2381 3103 1925 3103 
Q 1469 3103 1208 2742 
Q 947 2381 947 1747 
z
M 2906 525 
Q 2725 213 2448 61 
Q 2172 -91 1784 -91 
Q 1150 -91 751 415 
Q 353 922 353 1747 
Q 353 2572 751 3078 
Q 1150 3584 1784 3584 
Q 2172 3584 2448 3432 
Q 2725 3281 2906 2969 
L 2906 3500 
L 3481 3500 
L 3481 -1331 
L 2906 -1331 
L 2906 525 
z
" id="DejaVuSans-71" transform="scale(0.015625)"/>
      </defs>
      <use xlink:href="#DejaVuSans-71"/>
      <use x="63.476562" xlink:href="#DejaVuSans-46"/>
      <use x="115.496094" xlink:href="#DejaVuSans-65"/>
      <use x="177.019531" xlink:href="#DejaVuSans-64"/>
      <use x="240.496094" xlink:href="#DejaVuSans-41"/>
      <use x="303.029297" xlink:href="#DejaVuSans-76"/>
      <use x="362.208984" xlink:href="#DejaVuSans-67"/>
     </g>
    </g>
   </g>
  </g>
 </g>
 <defs>
  <clipPath id="p7cd856a502">
   <rect height="276.76" width="321.68" x="44.57" y="26.88"/>
  </clipPath>
 </defs>
</svg>
