<?xml version="1.0" encoding="utf-8" standalone="no"?>
<!DOCTYPE svg PUBLIC "-//W3C//DTD SVG 1.1//EN"
  "http://www.w3.org/Graphics/SVG/1.1/DTD/svg11.dtd">
<svg height="345.6pt" version="1.1" viewBox="0 0 460.8 345.6" width="460.8pt" xmlns="http://www.w3.org/2000/svg" xmlns:xlink="http://www.w3.org/1999/xlink">
 <metadata>
  <rdf:RDF xmlns:cc="http://creativecommons.org/ns#" xmlns:dc="http://purl.org/dc/elements/1.1/" xmlns:rdf="http://www.w3.org/1999/02/22-rdf-syntax-ns#">
   <cc:Work>
    <dc:type rdf:resource="http://purl.org/dc/dcmitype/StillImage"/>
    <dc:date>2021-05-07T12:06:42.860129</dc:date>
    <dc:format>image/svg+xml</dc:format>
    <dc:creator>
     <cc:Agent>
      <dc:title>Matplotlib v3.4.1, https://matplotlib.org/</dc:title>
     </cc:Agent>
    </dc:creator>
   </cc:Work>
  </rdf:RDF>
 </metadata>
 <defs>
  <style type="text/css">*{stroke-linecap:butt;stroke-linejoin:round;}</style>
 </defs>
 <g id="figure_1">
  <g id="patch_1">
   <path d="M 0 345.6 
L 460.8 345.6 
L 460.8 0 
L 0 0 
z
" style="fill:#ffffff;"/>
  </g>
  <g id="axes_1">
   <g id="patch_2">
    <path d="M 44.57 303.64 
L 450 303.64 
L 450 32.876829 
L 44.57 32.876829 
z
" style="fill:#ffffff;"/>
   </g>
   <g id="PolyCollection_1">
    <path clip-path="url(#pa3712f2d7f)" d="M 62.998636 275.824604 
L 62.998636 289.56071 
L 70.520529 202.21123 
L 78.042421 176.255069 
L 85.564314 163.782757 
L 93.086206 149.210274 
L 100.608098 136.762837 
L 108.129991 127.622383 
L 115.651883 121.212419 
L 123.173776 111.757576 
L 130.695668 105.841732 
L 138.21756 100.625155 
L 145.739453 98.457164 
L 153.261345 94.670452 
L 160.783237 91.604976 
L 168.30513 90.117336 
L 175.827022 86.557418 
L 183.348915 86.540169 
L 190.870807 81.752545 
L 198.392699 79.539392 
L 205.914592 78.253799 
L 213.436484 76.376895 
L 220.958377 72.533784 
L 228.480269 71.722189 
L 236.002161 72.016718 
L 243.524054 68.954556 
L 251.045946 68.730167 
L 258.567839 66.660339 
L 266.089731 66.4639 
L 273.611623 63.903261 
L 281.133516 63.599043 
L 288.655408 63.426977 
L 296.177301 61.858511 
L 303.699193 62.358864 
L 311.221085 60.696898 
L 318.742978 59.907684 
L 326.26487 62.273684 
L 333.786763 57.939449 
L 341.308655 57.505094 
L 348.830547 56.739382 
L 356.35244 55.55435 
L 363.874332 54.389058 
L 371.396224 54.600542 
L 378.918117 56.769413 
L 386.440009 54.367539 
L 393.961902 57.06904 
L 401.483794 53.512155 
L 409.005686 53.150809 
L 416.527579 53.855953 
L 424.049471 52.395057 
L 431.571364 51.121553 
L 431.571364 45.184246 
L 431.571364 45.184246 
L 424.049471 47.046741 
L 416.527579 48.391739 
L 409.005686 48.106568 
L 401.483794 45.269433 
L 393.961902 48.80981 
L 386.440009 49.200575 
L 378.918117 51.090068 
L 371.396224 48.802519 
L 363.874332 49.674213 
L 356.35244 50.3245 
L 348.830547 53.10073 
L 341.308655 53.655439 
L 333.786763 54.376453 
L 326.26487 52.187902 
L 318.742978 51.748007 
L 311.221085 54.755004 
L 303.699193 56.39409 
L 296.177301 56.399285 
L 288.655408 56.316293 
L 281.133516 57.134541 
L 273.611623 58.315797 
L 266.089731 59.551368 
L 258.567839 59.685035 
L 251.045946 63.392048 
L 243.524054 62.177343 
L 236.002161 67.037707 
L 228.480269 66.837078 
L 220.958377 69.821693 
L 213.436484 70.435002 
L 205.914592 71.529045 
L 198.392699 72.05903 
L 190.870807 75.787771 
L 183.348915 78.922673 
L 175.827022 76.924792 
L 168.30513 81.122347 
L 160.783237 85.576601 
L 153.261345 87.957861 
L 145.739453 92.753885 
L 138.21756 94.051998 
L 130.695668 101.214368 
L 123.173776 108.832837 
L 115.651883 112.582203 
L 108.129991 121.522132 
L 100.608098 131.52778 
L 93.086206 142.682866 
L 85.564314 155.344064 
L 78.042421 167.299538 
L 70.520529 195.150527 
L 62.998636 275.824604 
z
" style="fill:#1f77b4;fill-opacity:0.5;"/>
   </g>
   <g id="PolyCollection_2">
    <path clip-path="url(#pa3712f2d7f)" d="M 62.998636 285.171622 
L 62.998636 289.456637 
L 70.520529 210.757683 
L 78.042421 179.28261 
L 85.564314 169.832099 
L 93.086206 155.369465 
L 100.608098 145.06185 
L 108.129991 136.682111 
L 115.651883 125.116445 
L 123.173776 124.486651 
L 130.695668 118.568963 
L 138.21756 107.57855 
L 145.739453 106.499631 
L 153.261345 100.683582 
L 160.783237 98.822202 
L 168.30513 92.516619 
L 175.827022 90.725595 
L 183.348915 93.258736 
L 190.870807 92.648317 
L 198.392699 86.860754 
L 205.914592 86.299695 
L 213.436484 84.599056 
L 220.958377 82.102581 
L 228.480269 79.428493 
L 236.002161 78.292454 
L 243.524054 75.37068 
L 251.045946 74.410629 
L 258.567839 73.222101 
L 266.089731 76.359042 
L 273.611623 71.986322 
L 281.133516 72.989247 
L 288.655408 69.880058 
L 296.177301 69.422528 
L 303.699193 70.170318 
L 311.221085 66.466726 
L 318.742978 68.218914 
L 326.26487 66.477782 
L 333.786763 65.384054 
L 341.308655 65.757902 
L 348.830547 65.908103 
L 356.35244 64.45436 
L 363.874332 65.192227 
L 371.396224 65.005793 
L 378.918117 63.701341 
L 386.440009 62.456659 
L 393.961902 59.081099 
L 401.483794 58.661435 
L 409.005686 58.594136 
L 416.527579 58.841458 
L 424.049471 58.727706 
L 431.571364 58.472306 
L 431.571364 49.057071 
L 431.571364 49.057071 
L 424.049471 52.762932 
L 416.527579 50.338445 
L 409.005686 51.411029 
L 401.483794 50.518468 
L 393.961902 52.574592 
L 386.440009 52.995242 
L 378.918117 54.721508 
L 371.396224 50.611161 
L 363.874332 52.900516 
L 356.35244 54.298594 
L 348.830547 55.155587 
L 341.308655 53.325156 
L 333.786763 56.504899 
L 326.26487 58.052012 
L 318.742978 56.971091 
L 311.221085 57.732963 
L 303.699193 60.631476 
L 296.177301 60.223898 
L 288.655408 58.776052 
L 281.133516 61.278651 
L 273.611623 62.611682 
L 266.089731 63.025488 
L 258.567839 64.181797 
L 251.045946 67.284637 
L 243.524054 66.819744 
L 236.002161 68.519443 
L 228.480269 72.16993 
L 220.958377 72.301736 
L 213.436484 75.912207 
L 205.914592 75.531989 
L 198.392699 80.087561 
L 190.870807 80.241893 
L 183.348915 85.73842 
L 175.827022 84.475351 
L 168.30513 88.131063 
L 160.783237 87.767373 
L 153.261345 91.187677 
L 145.739453 95.769942 
L 138.21756 100.467865 
L 130.695668 105.652608 
L 123.173776 113.434286 
L 115.651883 120.066807 
L 108.129991 128.472507 
L 100.608098 138.248555 
L 93.086206 147.5822 
L 85.564314 157.877458 
L 78.042421 171.864417 
L 70.520529 202.449125 
L 62.998636 285.171622 
z
" style="fill:#ff7f0e;fill-opacity:0.5;"/>
   </g>
   <g id="PolyCollection_3">
    <path clip-path="url(#pa3712f2d7f)" d="M 62.998636 274.740528 
L 62.998636 283.052365 
L 70.520529 205.389308 
L 78.042421 181.466871 
L 85.564314 166.876933 
L 93.086206 164.612693 
L 100.608098 151.455142 
L 108.129991 139.428171 
L 115.651883 131.586993 
L 123.173776 127.749316 
L 130.695668 119.107388 
L 138.21756 114.117581 
L 145.739453 108.55067 
L 153.261345 105.810546 
L 160.783237 101.685322 
L 168.30513 95.548829 
L 175.827022 94.808287 
L 183.348915 90.398713 
L 190.870807 89.041735 
L 198.392699 89.836611 
L 205.914592 85.741828 
L 213.436484 83.21549 
L 220.958377 79.177622 
L 228.480269 81.048685 
L 236.002161 77.558986 
L 243.524054 75.38658 
L 251.045946 72.476409 
L 258.567839 70.345175 
L 266.089731 75.419617 
L 273.611623 70.579364 
L 281.133516 69.812676 
L 288.655408 69.869608 
L 296.177301 69.455277 
L 303.699193 65.961118 
L 311.221085 67.666427 
L 318.742978 64.938088 
L 326.26487 64.159249 
L 333.786763 63.494519 
L 341.308655 65.300648 
L 348.830547 62.228703 
L 356.35244 59.755377 
L 363.874332 61.666451 
L 371.396224 59.701001 
L 378.918117 59.752913 
L 386.440009 58.2062 
L 393.961902 57.268677 
L 401.483794 56.900688 
L 409.005686 55.78381 
L 416.527579 58.435885 
L 424.049471 55.900391 
L 431.571364 56.503888 
L 431.571364 50.035173 
L 431.571364 50.035173 
L 424.049471 51.133827 
L 416.527579 50.578965 
L 409.005686 50.260093 
L 401.483794 52.279215 
L 393.961902 52.736488 
L 386.440009 54.109702 
L 378.918117 54.708672 
L 371.396224 53.605217 
L 363.874332 58.406923 
L 356.35244 56.356735 
L 348.830547 57.184461 
L 341.308655 57.248516 
L 333.786763 60.210013 
L 326.26487 58.72002 
L 318.742978 57.115918 
L 311.221085 60.329472 
L 303.699193 58.568677 
L 296.177301 63.657253 
L 288.655408 60.437028 
L 281.133516 65.280486 
L 273.611623 63.35843 
L 266.089731 65.285333 
L 258.567839 67.553882 
L 251.045946 69.053805 
L 243.524054 68.45437 
L 236.002161 73.709331 
L 228.480269 72.200264 
L 220.958377 76.547116 
L 213.436484 76.470511 
L 205.914592 77.245225 
L 198.392699 81.23802 
L 190.870807 79.227001 
L 183.348915 85.957601 
L 175.827022 87.489921 
L 168.30513 91.040747 
L 160.783237 91.176253 
L 153.261345 95.468712 
L 145.739453 102.631745 
L 138.21756 106.802938 
L 130.695668 109.735655 
L 123.173776 119.414568 
L 115.651883 125.975204 
L 108.129991 133.648972 
L 100.608098 144.234208 
L 93.086206 155.174339 
L 85.564314 164.298729 
L 78.042421 175.62205 
L 70.520529 199.069711 
L 62.998636 274.740528 
z
" style="fill:#2ca02c;fill-opacity:0.5;"/>
   </g>
   <g id="PolyCollection_4">
    <path clip-path="url(#pa3712f2d7f)" d="M 62.998636 273.938349 
L 62.998636 291.332583 
L 70.520529 203.230525 
L 78.042421 184.182926 
L 85.564314 173.965748 
L 93.086206 170.289947 
L 100.608098 165.778887 
L 108.129991 168.500832 
L 115.651883 165.787896 
L 123.173776 165.801548 
L 130.695668 164.170288 
L 138.21756 168.261614 
L 145.739453 164.271481 
L 153.261345 166.358873 
L 160.783237 163.361197 
L 168.30513 162.777517 
L 175.827022 166.372572 
L 183.348915 165.073807 
L 190.870807 169.203633 
L 198.392699 166.841312 
L 205.914592 164.674904 
L 213.436484 164.451307 
L 220.958377 166.832829 
L 228.480269 166.028859 
L 236.002161 164.622539 
L 243.524054 163.006201 
L 251.045946 160.935778 
L 258.567839 163.105155 
L 266.089731 163.703844 
L 273.611623 167.932851 
L 281.133516 164.839613 
L 288.655408 163.872383 
L 296.177301 163.850906 
L 303.699193 164.483686 
L 311.221085 167.273106 
L 318.742978 168.087859 
L 326.26487 167.990408 
L 333.786763 164.365117 
L 341.308655 166.764334 
L 348.830547 166.5998 
L 356.35244 164.10939 
L 363.874332 162.37436 
L 371.396224 163.619693 
L 378.918117 162.998968 
L 386.440009 162.501783 
L 393.961902 165.355557 
L 401.483794 165.381667 
L 409.005686 164.118492 
L 416.527579 162.263938 
L 424.049471 163.803144 
L 431.571364 164.497112 
L 431.571364 150.226436 
L 431.571364 150.226436 
L 424.049471 149.577371 
L 416.527579 147.791591 
L 409.005686 148.231929 
L 401.483794 150.411091 
L 393.961902 148.794268 
L 386.440009 150.826575 
L 378.918117 150.824878 
L 371.396224 150.321505 
L 363.874332 148.567833 
L 356.35244 149.062498 
L 348.830547 150.262169 
L 341.308655 148.754602 
L 333.786763 147.867951 
L 326.26487 149.028031 
L 318.742978 148.056956 
L 311.221085 149.01514 
L 303.699193 147.149581 
L 296.177301 148.030105 
L 288.655408 148.478037 
L 281.133516 149.231977 
L 273.611623 145.578055 
L 266.089731 147.186192 
L 258.567839 149.766832 
L 251.045946 150.306314 
L 243.524054 148.926967 
L 236.002161 149.449051 
L 228.480269 152.280456 
L 220.958377 150.876685 
L 213.436484 152.710562 
L 205.914592 150.830992 
L 198.392699 151.428886 
L 190.870807 153.252134 
L 183.348915 152.479237 
L 175.827022 154.218596 
L 168.30513 156.379343 
L 160.783237 154.29616 
L 153.261345 153.306515 
L 145.739453 151.873334 
L 138.21756 154.389741 
L 130.695668 152.183154 
L 123.173776 152.703354 
L 115.651883 154.959742 
L 108.129991 155.754338 
L 100.608098 158.854419 
L 93.086206 164.631253 
L 85.564314 166.418858 
L 78.042421 172.800527 
L 70.520529 188.854336 
L 62.998636 273.938349 
z
" style="fill:#d62728;fill-opacity:0.5;"/>
   </g>
   <g id="matplotlib.axis_1">
    <g id="xtick_1">
     <g id="line2d_1">
      <defs>
       <path d="M 0 0 
L 0 3.5 
" id="m02fdc1fb50" style="stroke:#000000;stroke-width:0.8;"/>
      </defs>
      <g>
       <use style="stroke:#000000;stroke-width:0.8;" x="62.998636" xlink:href="#m02fdc1fb50" y="303.64"/>
      </g>
     </g>
     <g id="text_1">
      <!-- 0 -->
      <g transform="translate(59.817386 318.238437)scale(0.1 -0.1)">
       <defs>
        <path d="M 2034 4250 
Q 1547 4250 1301 3770 
Q 1056 3291 1056 2328 
Q 1056 1369 1301 889 
Q 1547 409 2034 409 
Q 2525 409 2770 889 
Q 3016 1369 3016 2328 
Q 3016 3291 2770 3770 
Q 2525 4250 2034 4250 
z
M 2034 4750 
Q 2819 4750 3233 4129 
Q 3647 3509 3647 2328 
Q 3647 1150 3233 529 
Q 2819 -91 2034 -91 
Q 1250 -91 836 529 
Q 422 1150 422 2328 
Q 422 3509 836 4129 
Q 1250 4750 2034 4750 
z
" id="DejaVuSans-30" transform="scale(0.015625)"/>
       </defs>
       <use xlink:href="#DejaVuSans-30"/>
      </g>
     </g>
    </g>
    <g id="xtick_2">
     <g id="line2d_2">
      <g>
       <use style="stroke:#000000;stroke-width:0.8;" x="138.21756" xlink:href="#m02fdc1fb50" y="303.64"/>
      </g>
     </g>
     <g id="text_2">
      <!-- 10 -->
      <g transform="translate(131.85506 318.238437)scale(0.1 -0.1)">
       <defs>
        <path d="M 794 531 
L 1825 531 
L 1825 4091 
L 703 3866 
L 703 4441 
L 1819 4666 
L 2450 4666 
L 2450 531 
L 3481 531 
L 3481 0 
L 794 0 
L 794 531 
z
" id="DejaVuSans-31" transform="scale(0.015625)"/>
       </defs>
       <use xlink:href="#DejaVuSans-31"/>
       <use x="63.623047" xlink:href="#DejaVuSans-30"/>
      </g>
     </g>
    </g>
    <g id="xtick_3">
     <g id="line2d_3">
      <g>
       <use style="stroke:#000000;stroke-width:0.8;" x="213.436484" xlink:href="#m02fdc1fb50" y="303.64"/>
      </g>
     </g>
     <g id="text_3">
      <!-- 20 -->
      <g transform="translate(207.073984 318.238437)scale(0.1 -0.1)">
       <defs>
        <path d="M 1228 531 
L 3431 531 
L 3431 0 
L 469 0 
L 469 531 
Q 828 903 1448 1529 
Q 2069 2156 2228 2338 
Q 2531 2678 2651 2914 
Q 2772 3150 2772 3378 
Q 2772 3750 2511 3984 
Q 2250 4219 1831 4219 
Q 1534 4219 1204 4116 
Q 875 4013 500 3803 
L 500 4441 
Q 881 4594 1212 4672 
Q 1544 4750 1819 4750 
Q 2544 4750 2975 4387 
Q 3406 4025 3406 3419 
Q 3406 3131 3298 2873 
Q 3191 2616 2906 2266 
Q 2828 2175 2409 1742 
Q 1991 1309 1228 531 
z
" id="DejaVuSans-32" transform="scale(0.015625)"/>
       </defs>
       <use xlink:href="#DejaVuSans-32"/>
       <use x="63.623047" xlink:href="#DejaVuSans-30"/>
      </g>
     </g>
    </g>
    <g id="xtick_4">
     <g id="line2d_4">
      <g>
       <use style="stroke:#000000;stroke-width:0.8;" x="288.655408" xlink:href="#m02fdc1fb50" y="303.64"/>
      </g>
     </g>
     <g id="text_4">
      <!-- 30 -->
      <g transform="translate(282.292908 318.238437)scale(0.1 -0.1)">
       <defs>
        <path d="M 2597 2516 
Q 3050 2419 3304 2112 
Q 3559 1806 3559 1356 
Q 3559 666 3084 287 
Q 2609 -91 1734 -91 
Q 1441 -91 1130 -33 
Q 819 25 488 141 
L 488 750 
Q 750 597 1062 519 
Q 1375 441 1716 441 
Q 2309 441 2620 675 
Q 2931 909 2931 1356 
Q 2931 1769 2642 2001 
Q 2353 2234 1838 2234 
L 1294 2234 
L 1294 2753 
L 1863 2753 
Q 2328 2753 2575 2939 
Q 2822 3125 2822 3475 
Q 2822 3834 2567 4026 
Q 2313 4219 1838 4219 
Q 1578 4219 1281 4162 
Q 984 4106 628 3988 
L 628 4550 
Q 988 4650 1302 4700 
Q 1616 4750 1894 4750 
Q 2613 4750 3031 4423 
Q 3450 4097 3450 3541 
Q 3450 3153 3228 2886 
Q 3006 2619 2597 2516 
z
" id="DejaVuSans-33" transform="scale(0.015625)"/>
       </defs>
       <use xlink:href="#DejaVuSans-33"/>
       <use x="63.623047" xlink:href="#DejaVuSans-30"/>
      </g>
     </g>
    </g>
    <g id="xtick_5">
     <g id="line2d_5">
      <g>
       <use style="stroke:#000000;stroke-width:0.8;" x="363.874332" xlink:href="#m02fdc1fb50" y="303.64"/>
      </g>
     </g>
     <g id="text_5">
      <!-- 40 -->
      <g transform="translate(357.511832 318.238437)scale(0.1 -0.1)">
       <defs>
        <path d="M 2419 4116 
L 825 1625 
L 2419 1625 
L 2419 4116 
z
M 2253 4666 
L 3047 4666 
L 3047 1625 
L 3713 1625 
L 3713 1100 
L 3047 1100 
L 3047 0 
L 2419 0 
L 2419 1100 
L 313 1100 
L 313 1709 
L 2253 4666 
z
" id="DejaVuSans-34" transform="scale(0.015625)"/>
       </defs>
       <use xlink:href="#DejaVuSans-34"/>
       <use x="63.623047" xlink:href="#DejaVuSans-30"/>
      </g>
     </g>
    </g>
    <g id="xtick_6">
     <g id="line2d_6">
      <g>
       <use style="stroke:#000000;stroke-width:0.8;" x="439.093256" xlink:href="#m02fdc1fb50" y="303.64"/>
      </g>
     </g>
     <g id="text_6">
      <!-- 50 -->
      <g transform="translate(432.730756 318.238437)scale(0.1 -0.1)">
       <defs>
        <path d="M 691 4666 
L 3169 4666 
L 3169 4134 
L 1269 4134 
L 1269 2991 
Q 1406 3038 1543 3061 
Q 1681 3084 1819 3084 
Q 2600 3084 3056 2656 
Q 3513 2228 3513 1497 
Q 3513 744 3044 326 
Q 2575 -91 1722 -91 
Q 1428 -91 1123 -41 
Q 819 9 494 109 
L 494 744 
Q 775 591 1075 516 
Q 1375 441 1709 441 
Q 2250 441 2565 725 
Q 2881 1009 2881 1497 
Q 2881 1984 2565 2268 
Q 2250 2553 1709 2553 
Q 1456 2553 1204 2497 
Q 953 2441 691 2322 
L 691 4666 
z
" id="DejaVuSans-35" transform="scale(0.015625)"/>
       </defs>
       <use xlink:href="#DejaVuSans-35"/>
       <use x="63.623047" xlink:href="#DejaVuSans-30"/>
      </g>
     </g>
    </g>
    <g id="text_7">
     <!-- Global Communication Rounds -->
     <g transform="translate(170.323281 331.916562)scale(0.1 -0.1)">
      <defs>
       <path d="M 3809 666 
L 3809 1919 
L 2778 1919 
L 2778 2438 
L 4434 2438 
L 4434 434 
Q 4069 175 3628 42 
Q 3188 -91 2688 -91 
Q 1594 -91 976 548 
Q 359 1188 359 2328 
Q 359 3472 976 4111 
Q 1594 4750 2688 4750 
Q 3144 4750 3555 4637 
Q 3966 4525 4313 4306 
L 4313 3634 
Q 3963 3931 3569 4081 
Q 3175 4231 2741 4231 
Q 1884 4231 1454 3753 
Q 1025 3275 1025 2328 
Q 1025 1384 1454 906 
Q 1884 428 2741 428 
Q 3075 428 3337 486 
Q 3600 544 3809 666 
z
" id="DejaVuSans-47" transform="scale(0.015625)"/>
       <path d="M 603 4863 
L 1178 4863 
L 1178 0 
L 603 0 
L 603 4863 
z
" id="DejaVuSans-6c" transform="scale(0.015625)"/>
       <path d="M 1959 3097 
Q 1497 3097 1228 2736 
Q 959 2375 959 1747 
Q 959 1119 1226 758 
Q 1494 397 1959 397 
Q 2419 397 2687 759 
Q 2956 1122 2956 1747 
Q 2956 2369 2687 2733 
Q 2419 3097 1959 3097 
z
M 1959 3584 
Q 2709 3584 3137 3096 
Q 3566 2609 3566 1747 
Q 3566 888 3137 398 
Q 2709 -91 1959 -91 
Q 1206 -91 779 398 
Q 353 888 353 1747 
Q 353 2609 779 3096 
Q 1206 3584 1959 3584 
z
" id="DejaVuSans-6f" transform="scale(0.015625)"/>
       <path d="M 3116 1747 
Q 3116 2381 2855 2742 
Q 2594 3103 2138 3103 
Q 1681 3103 1420 2742 
Q 1159 2381 1159 1747 
Q 1159 1113 1420 752 
Q 1681 391 2138 391 
Q 2594 391 2855 752 
Q 3116 1113 3116 1747 
z
M 1159 2969 
Q 1341 3281 1617 3432 
Q 1894 3584 2278 3584 
Q 2916 3584 3314 3078 
Q 3713 2572 3713 1747 
Q 3713 922 3314 415 
Q 2916 -91 2278 -91 
Q 1894 -91 1617 61 
Q 1341 213 1159 525 
L 1159 0 
L 581 0 
L 581 4863 
L 1159 4863 
L 1159 2969 
z
" id="DejaVuSans-62" transform="scale(0.015625)"/>
       <path d="M 2194 1759 
Q 1497 1759 1228 1600 
Q 959 1441 959 1056 
Q 959 750 1161 570 
Q 1363 391 1709 391 
Q 2188 391 2477 730 
Q 2766 1069 2766 1631 
L 2766 1759 
L 2194 1759 
z
M 3341 1997 
L 3341 0 
L 2766 0 
L 2766 531 
Q 2569 213 2275 61 
Q 1981 -91 1556 -91 
Q 1019 -91 701 211 
Q 384 513 384 1019 
Q 384 1609 779 1909 
Q 1175 2209 1959 2209 
L 2766 2209 
L 2766 2266 
Q 2766 2663 2505 2880 
Q 2244 3097 1772 3097 
Q 1472 3097 1187 3025 
Q 903 2953 641 2809 
L 641 3341 
Q 956 3463 1253 3523 
Q 1550 3584 1831 3584 
Q 2591 3584 2966 3190 
Q 3341 2797 3341 1997 
z
" id="DejaVuSans-61" transform="scale(0.015625)"/>
       <path id="DejaVuSans-20" transform="scale(0.015625)"/>
       <path d="M 4122 4306 
L 4122 3641 
Q 3803 3938 3442 4084 
Q 3081 4231 2675 4231 
Q 1875 4231 1450 3742 
Q 1025 3253 1025 2328 
Q 1025 1406 1450 917 
Q 1875 428 2675 428 
Q 3081 428 3442 575 
Q 3803 722 4122 1019 
L 4122 359 
Q 3791 134 3420 21 
Q 3050 -91 2638 -91 
Q 1578 -91 968 557 
Q 359 1206 359 2328 
Q 359 3453 968 4101 
Q 1578 4750 2638 4750 
Q 3056 4750 3426 4639 
Q 3797 4528 4122 4306 
z
" id="DejaVuSans-43" transform="scale(0.015625)"/>
       <path d="M 3328 2828 
Q 3544 3216 3844 3400 
Q 4144 3584 4550 3584 
Q 5097 3584 5394 3201 
Q 5691 2819 5691 2113 
L 5691 0 
L 5113 0 
L 5113 2094 
Q 5113 2597 4934 2840 
Q 4756 3084 4391 3084 
Q 3944 3084 3684 2787 
Q 3425 2491 3425 1978 
L 3425 0 
L 2847 0 
L 2847 2094 
Q 2847 2600 2669 2842 
Q 2491 3084 2119 3084 
Q 1678 3084 1418 2786 
Q 1159 2488 1159 1978 
L 1159 0 
L 581 0 
L 581 3500 
L 1159 3500 
L 1159 2956 
Q 1356 3278 1631 3431 
Q 1906 3584 2284 3584 
Q 2666 3584 2933 3390 
Q 3200 3197 3328 2828 
z
" id="DejaVuSans-6d" transform="scale(0.015625)"/>
       <path d="M 544 1381 
L 544 3500 
L 1119 3500 
L 1119 1403 
Q 1119 906 1312 657 
Q 1506 409 1894 409 
Q 2359 409 2629 706 
Q 2900 1003 2900 1516 
L 2900 3500 
L 3475 3500 
L 3475 0 
L 2900 0 
L 2900 538 
Q 2691 219 2414 64 
Q 2138 -91 1772 -91 
Q 1169 -91 856 284 
Q 544 659 544 1381 
z
M 1991 3584 
L 1991 3584 
z
" id="DejaVuSans-75" transform="scale(0.015625)"/>
       <path d="M 3513 2113 
L 3513 0 
L 2938 0 
L 2938 2094 
Q 2938 2591 2744 2837 
Q 2550 3084 2163 3084 
Q 1697 3084 1428 2787 
Q 1159 2491 1159 1978 
L 1159 0 
L 581 0 
L 581 3500 
L 1159 3500 
L 1159 2956 
Q 1366 3272 1645 3428 
Q 1925 3584 2291 3584 
Q 2894 3584 3203 3211 
Q 3513 2838 3513 2113 
z
" id="DejaVuSans-6e" transform="scale(0.015625)"/>
       <path d="M 603 3500 
L 1178 3500 
L 1178 0 
L 603 0 
L 603 3500 
z
M 603 4863 
L 1178 4863 
L 1178 4134 
L 603 4134 
L 603 4863 
z
" id="DejaVuSans-69" transform="scale(0.015625)"/>
       <path d="M 3122 3366 
L 3122 2828 
Q 2878 2963 2633 3030 
Q 2388 3097 2138 3097 
Q 1578 3097 1268 2742 
Q 959 2388 959 1747 
Q 959 1106 1268 751 
Q 1578 397 2138 397 
Q 2388 397 2633 464 
Q 2878 531 3122 666 
L 3122 134 
Q 2881 22 2623 -34 
Q 2366 -91 2075 -91 
Q 1284 -91 818 406 
Q 353 903 353 1747 
Q 353 2603 823 3093 
Q 1294 3584 2113 3584 
Q 2378 3584 2631 3529 
Q 2884 3475 3122 3366 
z
" id="DejaVuSans-63" transform="scale(0.015625)"/>
       <path d="M 1172 4494 
L 1172 3500 
L 2356 3500 
L 2356 3053 
L 1172 3053 
L 1172 1153 
Q 1172 725 1289 603 
Q 1406 481 1766 481 
L 2356 481 
L 2356 0 
L 1766 0 
Q 1100 0 847 248 
Q 594 497 594 1153 
L 594 3053 
L 172 3053 
L 172 3500 
L 594 3500 
L 594 4494 
L 1172 4494 
z
" id="DejaVuSans-74" transform="scale(0.015625)"/>
       <path d="M 2841 2188 
Q 3044 2119 3236 1894 
Q 3428 1669 3622 1275 
L 4263 0 
L 3584 0 
L 2988 1197 
Q 2756 1666 2539 1819 
Q 2322 1972 1947 1972 
L 1259 1972 
L 1259 0 
L 628 0 
L 628 4666 
L 2053 4666 
Q 2853 4666 3247 4331 
Q 3641 3997 3641 3322 
Q 3641 2881 3436 2590 
Q 3231 2300 2841 2188 
z
M 1259 4147 
L 1259 2491 
L 2053 2491 
Q 2509 2491 2742 2702 
Q 2975 2913 2975 3322 
Q 2975 3731 2742 3939 
Q 2509 4147 2053 4147 
L 1259 4147 
z
" id="DejaVuSans-52" transform="scale(0.015625)"/>
       <path d="M 2906 2969 
L 2906 4863 
L 3481 4863 
L 3481 0 
L 2906 0 
L 2906 525 
Q 2725 213 2448 61 
Q 2172 -91 1784 -91 
Q 1150 -91 751 415 
Q 353 922 353 1747 
Q 353 2572 751 3078 
Q 1150 3584 1784 3584 
Q 2172 3584 2448 3432 
Q 2725 3281 2906 2969 
z
M 947 1747 
Q 947 1113 1208 752 
Q 1469 391 1925 391 
Q 2381 391 2643 752 
Q 2906 1113 2906 1747 
Q 2906 2381 2643 2742 
Q 2381 3103 1925 3103 
Q 1469 3103 1208 2742 
Q 947 2381 947 1747 
z
" id="DejaVuSans-64" transform="scale(0.015625)"/>
       <path d="M 2834 3397 
L 2834 2853 
Q 2591 2978 2328 3040 
Q 2066 3103 1784 3103 
Q 1356 3103 1142 2972 
Q 928 2841 928 2578 
Q 928 2378 1081 2264 
Q 1234 2150 1697 2047 
L 1894 2003 
Q 2506 1872 2764 1633 
Q 3022 1394 3022 966 
Q 3022 478 2636 193 
Q 2250 -91 1575 -91 
Q 1294 -91 989 -36 
Q 684 19 347 128 
L 347 722 
Q 666 556 975 473 
Q 1284 391 1588 391 
Q 1994 391 2212 530 
Q 2431 669 2431 922 
Q 2431 1156 2273 1281 
Q 2116 1406 1581 1522 
L 1381 1569 
Q 847 1681 609 1914 
Q 372 2147 372 2553 
Q 372 3047 722 3315 
Q 1072 3584 1716 3584 
Q 2034 3584 2315 3537 
Q 2597 3491 2834 3397 
z
" id="DejaVuSans-73" transform="scale(0.015625)"/>
      </defs>
      <use xlink:href="#DejaVuSans-47"/>
      <use x="77.490234" xlink:href="#DejaVuSans-6c"/>
      <use x="105.273438" xlink:href="#DejaVuSans-6f"/>
      <use x="166.455078" xlink:href="#DejaVuSans-62"/>
      <use x="229.931641" xlink:href="#DejaVuSans-61"/>
      <use x="291.210938" xlink:href="#DejaVuSans-6c"/>
      <use x="318.994141" xlink:href="#DejaVuSans-20"/>
      <use x="350.78125" xlink:href="#DejaVuSans-43"/>
      <use x="420.605469" xlink:href="#DejaVuSans-6f"/>
      <use x="481.787109" xlink:href="#DejaVuSans-6d"/>
      <use x="579.199219" xlink:href="#DejaVuSans-6d"/>
      <use x="676.611328" xlink:href="#DejaVuSans-75"/>
      <use x="739.990234" xlink:href="#DejaVuSans-6e"/>
      <use x="803.369141" xlink:href="#DejaVuSans-69"/>
      <use x="831.152344" xlink:href="#DejaVuSans-63"/>
      <use x="886.132812" xlink:href="#DejaVuSans-61"/>
      <use x="947.412109" xlink:href="#DejaVuSans-74"/>
      <use x="986.621094" xlink:href="#DejaVuSans-69"/>
      <use x="1014.404297" xlink:href="#DejaVuSans-6f"/>
      <use x="1075.585938" xlink:href="#DejaVuSans-6e"/>
      <use x="1138.964844" xlink:href="#DejaVuSans-20"/>
      <use x="1170.751953" xlink:href="#DejaVuSans-52"/>
      <use x="1235.734375" xlink:href="#DejaVuSans-6f"/>
      <use x="1296.916016" xlink:href="#DejaVuSans-75"/>
      <use x="1360.294922" xlink:href="#DejaVuSans-6e"/>
      <use x="1423.673828" xlink:href="#DejaVuSans-64"/>
      <use x="1487.150391" xlink:href="#DejaVuSans-73"/>
     </g>
    </g>
   </g>
   <g id="matplotlib.axis_2">
    <g id="ytick_1">
     <g id="line2d_7">
      <defs>
       <path d="M 0 0 
L -3.5 0 
" id="mb06c11f3a7" style="stroke:#000000;stroke-width:0.8;"/>
      </defs>
      <g>
       <use style="stroke:#000000;stroke-width:0.8;" x="44.57" xlink:href="#mb06c11f3a7" y="286.984025"/>
      </g>
     </g>
     <g id="text_8">
      <!-- 10 -->
      <g transform="translate(24.845 290.783243)scale(0.1 -0.1)">
       <use xlink:href="#DejaVuSans-31"/>
       <use x="63.623047" xlink:href="#DejaVuSans-30"/>
      </g>
     </g>
    </g>
    <g id="ytick_2">
     <g id="line2d_8">
      <g>
       <use style="stroke:#000000;stroke-width:0.8;" x="44.57" xlink:href="#mb06c11f3a7" y="254.386134"/>
      </g>
     </g>
     <g id="text_9">
      <!-- 20 -->
      <g transform="translate(24.845 258.185353)scale(0.1 -0.1)">
       <use xlink:href="#DejaVuSans-32"/>
       <use x="63.623047" xlink:href="#DejaVuSans-30"/>
      </g>
     </g>
    </g>
    <g id="ytick_3">
     <g id="line2d_9">
      <g>
       <use style="stroke:#000000;stroke-width:0.8;" x="44.57" xlink:href="#mb06c11f3a7" y="221.788244"/>
      </g>
     </g>
     <g id="text_10">
      <!-- 30 -->
      <g transform="translate(24.845 225.587463)scale(0.1 -0.1)">
       <use xlink:href="#DejaVuSans-33"/>
       <use x="63.623047" xlink:href="#DejaVuSans-30"/>
      </g>
     </g>
    </g>
    <g id="ytick_4">
     <g id="line2d_10">
      <g>
       <use style="stroke:#000000;stroke-width:0.8;" x="44.57" xlink:href="#mb06c11f3a7" y="189.190354"/>
      </g>
     </g>
     <g id="text_11">
      <!-- 40 -->
      <g transform="translate(24.845 192.989572)scale(0.1 -0.1)">
       <use xlink:href="#DejaVuSans-34"/>
       <use x="63.623047" xlink:href="#DejaVuSans-30"/>
      </g>
     </g>
    </g>
    <g id="ytick_5">
     <g id="line2d_11">
      <g>
       <use style="stroke:#000000;stroke-width:0.8;" x="44.57" xlink:href="#mb06c11f3a7" y="156.592463"/>
      </g>
     </g>
     <g id="text_12">
      <!-- 50 -->
      <g transform="translate(24.845 160.391682)scale(0.1 -0.1)">
       <use xlink:href="#DejaVuSans-35"/>
       <use x="63.623047" xlink:href="#DejaVuSans-30"/>
      </g>
     </g>
    </g>
    <g id="ytick_6">
     <g id="line2d_12">
      <g>
       <use style="stroke:#000000;stroke-width:0.8;" x="44.57" xlink:href="#mb06c11f3a7" y="123.994573"/>
      </g>
     </g>
     <g id="text_13">
      <!-- 60 -->
      <g transform="translate(24.845 127.793792)scale(0.1 -0.1)">
       <defs>
        <path d="M 2113 2584 
Q 1688 2584 1439 2293 
Q 1191 2003 1191 1497 
Q 1191 994 1439 701 
Q 1688 409 2113 409 
Q 2538 409 2786 701 
Q 3034 994 3034 1497 
Q 3034 2003 2786 2293 
Q 2538 2584 2113 2584 
z
M 3366 4563 
L 3366 3988 
Q 3128 4100 2886 4159 
Q 2644 4219 2406 4219 
Q 1781 4219 1451 3797 
Q 1122 3375 1075 2522 
Q 1259 2794 1537 2939 
Q 1816 3084 2150 3084 
Q 2853 3084 3261 2657 
Q 3669 2231 3669 1497 
Q 3669 778 3244 343 
Q 2819 -91 2113 -91 
Q 1303 -91 875 529 
Q 447 1150 447 2328 
Q 447 3434 972 4092 
Q 1497 4750 2381 4750 
Q 2619 4750 2861 4703 
Q 3103 4656 3366 4563 
z
" id="DejaVuSans-36" transform="scale(0.015625)"/>
       </defs>
       <use xlink:href="#DejaVuSans-36"/>
       <use x="63.623047" xlink:href="#DejaVuSans-30"/>
      </g>
     </g>
    </g>
    <g id="ytick_7">
     <g id="line2d_13">
      <g>
       <use style="stroke:#000000;stroke-width:0.8;" x="44.57" xlink:href="#mb06c11f3a7" y="91.396683"/>
      </g>
     </g>
     <g id="text_14">
      <!-- 70 -->
      <g transform="translate(24.845 95.195902)scale(0.1 -0.1)">
       <defs>
        <path d="M 525 4666 
L 3525 4666 
L 3525 4397 
L 1831 0 
L 1172 0 
L 2766 4134 
L 525 4134 
L 525 4666 
z
" id="DejaVuSans-37" transform="scale(0.015625)"/>
       </defs>
       <use xlink:href="#DejaVuSans-37"/>
       <use x="63.623047" xlink:href="#DejaVuSans-30"/>
      </g>
     </g>
    </g>
    <g id="ytick_8">
     <g id="line2d_14">
      <g>
       <use style="stroke:#000000;stroke-width:0.8;" x="44.57" xlink:href="#mb06c11f3a7" y="58.798793"/>
      </g>
     </g>
     <g id="text_15">
      <!-- 80 -->
      <g transform="translate(24.845 62.598011)scale(0.1 -0.1)">
       <defs>
        <path d="M 2034 2216 
Q 1584 2216 1326 1975 
Q 1069 1734 1069 1313 
Q 1069 891 1326 650 
Q 1584 409 2034 409 
Q 2484 409 2743 651 
Q 3003 894 3003 1313 
Q 3003 1734 2745 1975 
Q 2488 2216 2034 2216 
z
M 1403 2484 
Q 997 2584 770 2862 
Q 544 3141 544 3541 
Q 544 4100 942 4425 
Q 1341 4750 2034 4750 
Q 2731 4750 3128 4425 
Q 3525 4100 3525 3541 
Q 3525 3141 3298 2862 
Q 3072 2584 2669 2484 
Q 3125 2378 3379 2068 
Q 3634 1759 3634 1313 
Q 3634 634 3220 271 
Q 2806 -91 2034 -91 
Q 1263 -91 848 271 
Q 434 634 434 1313 
Q 434 1759 690 2068 
Q 947 2378 1403 2484 
z
M 1172 3481 
Q 1172 3119 1398 2916 
Q 1625 2713 2034 2713 
Q 2441 2713 2670 2916 
Q 2900 3119 2900 3481 
Q 2900 3844 2670 4047 
Q 2441 4250 2034 4250 
Q 1625 4250 1398 4047 
Q 1172 3844 1172 3481 
z
" id="DejaVuSans-38" transform="scale(0.015625)"/>
       </defs>
       <use xlink:href="#DejaVuSans-38"/>
       <use x="63.623047" xlink:href="#DejaVuSans-30"/>
      </g>
     </g>
    </g>
    <g id="text_16">
     <!-- Test Accuracy -->
     <g transform="translate(18.765313 202.520914)rotate(-90)scale(0.1 -0.1)">
      <defs>
       <path d="M -19 4666 
L 3928 4666 
L 3928 4134 
L 2272 4134 
L 2272 0 
L 1638 0 
L 1638 4134 
L -19 4134 
L -19 4666 
z
" id="DejaVuSans-54" transform="scale(0.015625)"/>
       <path d="M 3597 1894 
L 3597 1613 
L 953 1613 
Q 991 1019 1311 708 
Q 1631 397 2203 397 
Q 2534 397 2845 478 
Q 3156 559 3463 722 
L 3463 178 
Q 3153 47 2828 -22 
Q 2503 -91 2169 -91 
Q 1331 -91 842 396 
Q 353 884 353 1716 
Q 353 2575 817 3079 
Q 1281 3584 2069 3584 
Q 2775 3584 3186 3129 
Q 3597 2675 3597 1894 
z
M 3022 2063 
Q 3016 2534 2758 2815 
Q 2500 3097 2075 3097 
Q 1594 3097 1305 2825 
Q 1016 2553 972 2059 
L 3022 2063 
z
" id="DejaVuSans-65" transform="scale(0.015625)"/>
       <path d="M 2188 4044 
L 1331 1722 
L 3047 1722 
L 2188 4044 
z
M 1831 4666 
L 2547 4666 
L 4325 0 
L 3669 0 
L 3244 1197 
L 1141 1197 
L 716 0 
L 50 0 
L 1831 4666 
z
" id="DejaVuSans-41" transform="scale(0.015625)"/>
       <path d="M 2631 2963 
Q 2534 3019 2420 3045 
Q 2306 3072 2169 3072 
Q 1681 3072 1420 2755 
Q 1159 2438 1159 1844 
L 1159 0 
L 581 0 
L 581 3500 
L 1159 3500 
L 1159 2956 
Q 1341 3275 1631 3429 
Q 1922 3584 2338 3584 
Q 2397 3584 2469 3576 
Q 2541 3569 2628 3553 
L 2631 2963 
z
" id="DejaVuSans-72" transform="scale(0.015625)"/>
       <path d="M 2059 -325 
Q 1816 -950 1584 -1140 
Q 1353 -1331 966 -1331 
L 506 -1331 
L 506 -850 
L 844 -850 
Q 1081 -850 1212 -737 
Q 1344 -625 1503 -206 
L 1606 56 
L 191 3500 
L 800 3500 
L 1894 763 
L 2988 3500 
L 3597 3500 
L 2059 -325 
z
" id="DejaVuSans-79" transform="scale(0.015625)"/>
      </defs>
      <use xlink:href="#DejaVuSans-54"/>
      <use x="44.083984" xlink:href="#DejaVuSans-65"/>
      <use x="105.607422" xlink:href="#DejaVuSans-73"/>
      <use x="157.707031" xlink:href="#DejaVuSans-74"/>
      <use x="196.916016" xlink:href="#DejaVuSans-20"/>
      <use x="228.703125" xlink:href="#DejaVuSans-41"/>
      <use x="295.361328" xlink:href="#DejaVuSans-63"/>
      <use x="350.341797" xlink:href="#DejaVuSans-63"/>
      <use x="405.322266" xlink:href="#DejaVuSans-75"/>
      <use x="468.701172" xlink:href="#DejaVuSans-72"/>
      <use x="509.814453" xlink:href="#DejaVuSans-61"/>
      <use x="571.09375" xlink:href="#DejaVuSans-63"/>
      <use x="626.074219" xlink:href="#DejaVuSans-79"/>
     </g>
    </g>
   </g>
   <g id="line2d_15">
    <path clip-path="url(#pa3712f2d7f)" d="M 62.998636 282.692657 
L 70.520529 198.680879 
L 78.042421 171.777303 
L 85.564314 159.56341 
L 93.086206 145.94657 
L 100.608098 134.145309 
L 108.129991 124.572257 
L 115.651883 116.897311 
L 123.173776 110.295207 
L 130.695668 103.52805 
L 138.21756 97.338577 
L 145.739453 95.605524 
L 153.261345 91.314157 
L 160.783237 88.590789 
L 168.30513 85.619842 
L 175.827022 81.741105 
L 183.348915 82.731421 
L 190.870807 78.770158 
L 198.392699 75.799211 
L 205.914592 74.891422 
L 213.436484 73.405949 
L 220.958377 71.177738 
L 228.480269 69.279633 
L 236.002161 69.527212 
L 243.524054 65.56595 
L 251.045946 66.061107 
L 258.567839 63.172687 
L 266.089731 63.007634 
L 273.611623 61.109529 
L 281.133516 60.366792 
L 288.655408 59.871635 
L 296.177301 59.128898 
L 303.699193 59.376477 
L 311.221085 57.725951 
L 318.742978 55.827846 
L 326.26487 57.230793 
L 333.786763 56.157951 
L 341.308655 55.580267 
L 348.830547 54.920056 
L 356.35244 52.939425 
L 363.874332 52.031636 
L 371.396224 51.70153 
L 378.918117 53.929741 
L 386.440009 51.784057 
L 393.961902 52.939425 
L 401.483794 49.390794 
L 409.005686 50.628688 
L 416.527579 51.123846 
L 424.049471 49.720899 
L 431.571364 48.152899 
" style="fill:none;stroke:#1f77b4;stroke-linecap:square;stroke-width:1.5;"/>
   </g>
   <g id="line2d_16">
    <path clip-path="url(#pa3712f2d7f)" d="M 62.998636 287.31413 
L 70.520529 206.603404 
L 78.042421 175.573513 
L 85.564314 163.854778 
L 93.086206 151.475833 
L 100.608098 141.655202 
L 108.129991 132.577309 
L 115.651883 122.591626 
L 123.173776 118.960469 
L 130.695668 112.110785 
L 138.21756 104.023207 
L 145.739453 101.134787 
L 153.261345 95.93563 
L 160.783237 93.294788 
L 168.30513 90.323841 
L 175.827022 87.600473 
L 183.348915 89.498578 
L 190.870807 86.445105 
L 198.392699 83.474158 
L 205.914592 80.915842 
L 213.436484 80.255632 
L 220.958377 77.202159 
L 228.480269 75.799211 
L 236.002161 73.405949 
L 243.524054 71.095212 
L 251.045946 70.847633 
L 258.567839 68.701949 
L 266.089731 69.692265 
L 273.611623 67.299002 
L 281.133516 67.133949 
L 288.655408 64.328055 
L 296.177301 64.823213 
L 303.699193 65.400897 
L 311.221085 62.099845 
L 318.742978 62.595003 
L 326.26487 62.264897 
L 333.786763 60.944477 
L 341.308655 59.541529 
L 348.830547 60.531845 
L 356.35244 59.376477 
L 363.874332 59.046372 
L 371.396224 57.808477 
L 378.918117 59.211424 
L 386.440009 57.725951 
L 393.961902 55.827846 
L 401.483794 54.589951 
L 409.005686 55.002583 
L 416.527579 54.589951 
L 424.049471 55.745319 
L 431.571364 53.764688 
" style="fill:none;stroke:#ff7f0e;stroke-linecap:square;stroke-width:1.5;"/>
   </g>
   <g id="line2d_17">
    <path clip-path="url(#pa3712f2d7f)" d="M 62.998636 278.896447 
L 70.520529 202.22951 
L 78.042421 178.54446 
L 85.564314 165.587831 
L 93.086206 159.893516 
L 100.608098 147.844675 
L 108.129991 136.538571 
L 115.651883 128.781099 
L 123.173776 123.581942 
L 130.695668 114.421522 
L 138.21756 110.460259 
L 145.739453 105.591207 
L 153.261345 100.639629 
L 160.783237 96.430787 
L 168.30513 93.294788 
L 175.827022 91.149104 
L 183.348915 88.178157 
L 190.870807 84.134368 
L 198.392699 85.537315 
L 205.914592 81.493526 
L 213.436484 79.843 
L 220.958377 77.862369 
L 228.480269 76.624474 
L 236.002161 75.634159 
L 243.524054 71.920475 
L 251.045946 70.765107 
L 258.567839 68.949528 
L 266.089731 70.352475 
L 273.611623 66.968897 
L 281.133516 67.546581 
L 288.655408 65.153318 
L 296.177301 66.556265 
L 303.699193 62.264897 
L 311.221085 63.99795 
L 318.742978 61.027003 
L 326.26487 61.439634 
L 333.786763 61.852266 
L 341.308655 61.274582 
L 348.830547 59.706582 
L 356.35244 58.056056 
L 363.874332 60.036687 
L 371.396224 56.653109 
L 378.918117 57.230793 
L 386.440009 56.157951 
L 393.961902 55.002583 
L 401.483794 54.589951 
L 409.005686 53.021951 
L 416.527579 54.507425 
L 424.049471 53.517109 
L 431.571364 53.26953 
" style="fill:none;stroke:#2ca02c;stroke-linecap:square;stroke-width:1.5;"/>
   </g>
   <g id="line2d_18">
    <path clip-path="url(#pa3712f2d7f)" d="M 62.998636 282.635466 
L 70.520529 196.04243 
L 78.042421 178.491726 
L 85.564314 170.192303 
L 93.086206 167.4606 
L 100.608098 162.316653 
L 108.129991 162.127585 
L 115.651883 160.373819 
L 123.173776 159.252451 
L 130.695668 158.176721 
L 138.21756 161.325677 
L 145.739453 158.072408 
L 153.261345 159.832694 
L 160.783237 158.828679 
L 168.30513 159.57843 
L 175.827022 160.295584 
L 183.348915 158.776522 
L 190.870807 161.227883 
L 198.392699 159.135099 
L 205.914592 157.752948 
L 213.436484 158.580935 
L 220.958377 158.854757 
L 228.480269 159.154658 
L 236.002161 157.035795 
L 243.524054 155.966584 
L 251.045946 155.621046 
L 258.567839 156.435994 
L 266.089731 155.445018 
L 273.611623 156.755453 
L 281.133516 157.035795 
L 288.655408 156.17521 
L 296.177301 155.940506 
L 303.699193 155.816634 
L 311.221085 158.144123 
L 318.742978 158.072408 
L 326.26487 158.509219 
L 333.786763 156.116534 
L 341.308655 157.759468 
L 348.830547 158.430984 
L 356.35244 156.585944 
L 363.874332 155.471096 
L 371.396224 156.970599 
L 378.918117 156.911923 
L 386.440009 156.664179 
L 393.961902 157.074912 
L 401.483794 157.896379 
L 409.005686 156.17521 
L 416.527579 155.027765 
L 424.049471 156.690257 
L 431.571364 157.361774 
" style="fill:none;stroke:#d62728;stroke-linecap:square;stroke-width:1.5;"/>
   </g>
   <g id="patch_3">
    <path d="M 44.57 303.64 
L 44.57 32.876829 
" style="fill:none;stroke:#000000;stroke-linecap:square;stroke-linejoin:miter;stroke-width:0.8;"/>
   </g>
   <g id="patch_4">
    <path d="M 450 303.64 
L 450 32.876829 
" style="fill:none;stroke:#000000;stroke-linecap:square;stroke-linejoin:miter;stroke-width:0.8;"/>
   </g>
   <g id="patch_5">
    <path d="M 44.57 303.64 
L 450 303.64 
" style="fill:none;stroke:#000000;stroke-linecap:square;stroke-linejoin:miter;stroke-width:0.8;"/>
   </g>
   <g id="patch_6">
    <path d="M 44.57 32.876829 
L 450 32.876829 
" style="fill:none;stroke:#000000;stroke-linecap:square;stroke-linejoin:miter;stroke-width:0.8;"/>
   </g>
   <g id="legend_1">
    <g id="patch_7">
     <path d="M 80.886563 28.478637 
L 413.683438 28.478637 
Q 415.683438 28.478637 415.683438 26.478637 
L 415.683438 12.800512 
Q 415.683438 10.800512 413.683438 10.800512 
L 80.886563 10.800512 
Q 78.886563 10.800512 78.886563 12.800512 
L 78.886563 26.478637 
Q 78.886563 28.478637 80.886563 28.478637 
z
" style="fill:#ffffff;opacity:0.8;stroke:#cccccc;stroke-linejoin:miter;"/>
    </g>
    <g id="line2d_19">
     <path d="M 82.886563 18.898949 
L 102.886563 18.898949 
" style="fill:none;stroke:#1f77b4;stroke-linecap:square;stroke-width:1.5;"/>
    </g>
    <g id="line2d_20"/>
    <g id="text_17">
     <!-- FedAvg -->
     <g transform="translate(110.886563 22.398949)scale(0.1 -0.1)">
      <defs>
       <path d="M 628 4666 
L 3309 4666 
L 3309 4134 
L 1259 4134 
L 1259 2759 
L 3109 2759 
L 3109 2228 
L 1259 2228 
L 1259 0 
L 628 0 
L 628 4666 
z
" id="DejaVuSans-46" transform="scale(0.015625)"/>
       <path d="M 191 3500 
L 800 3500 
L 1894 563 
L 2988 3500 
L 3597 3500 
L 2284 0 
L 1503 0 
L 191 3500 
z
" id="DejaVuSans-76" transform="scale(0.015625)"/>
       <path d="M 2906 1791 
Q 2906 2416 2648 2759 
Q 2391 3103 1925 3103 
Q 1463 3103 1205 2759 
Q 947 2416 947 1791 
Q 947 1169 1205 825 
Q 1463 481 1925 481 
Q 2391 481 2648 825 
Q 2906 1169 2906 1791 
z
M 3481 434 
Q 3481 -459 3084 -895 
Q 2688 -1331 1869 -1331 
Q 1566 -1331 1297 -1286 
Q 1028 -1241 775 -1147 
L 775 -588 
Q 1028 -725 1275 -790 
Q 1522 -856 1778 -856 
Q 2344 -856 2625 -561 
Q 2906 -266 2906 331 
L 2906 616 
Q 2728 306 2450 153 
Q 2172 0 1784 0 
Q 1141 0 747 490 
Q 353 981 353 1791 
Q 353 2603 747 3093 
Q 1141 3584 1784 3584 
Q 2172 3584 2450 3431 
Q 2728 3278 2906 2969 
L 2906 3500 
L 3481 3500 
L 3481 434 
z
" id="DejaVuSans-67" transform="scale(0.015625)"/>
      </defs>
      <use xlink:href="#DejaVuSans-46"/>
      <use x="52.019531" xlink:href="#DejaVuSans-65"/>
      <use x="113.542969" xlink:href="#DejaVuSans-64"/>
      <use x="177.019531" xlink:href="#DejaVuSans-41"/>
      <use x="239.552734" xlink:href="#DejaVuSans-76"/>
      <use x="298.732422" xlink:href="#DejaVuSans-67"/>
     </g>
    </g>
    <g id="line2d_21">
     <path d="M 167.11 18.898949 
L 187.11 18.898949 
" style="fill:none;stroke:#ff7f0e;stroke-linecap:square;stroke-width:1.5;"/>
    </g>
    <g id="line2d_22"/>
    <g id="text_18">
     <!-- FedMed -->
     <g transform="translate(195.11 22.398949)scale(0.1 -0.1)">
      <defs>
       <path d="M 628 4666 
L 1569 4666 
L 2759 1491 
L 3956 4666 
L 4897 4666 
L 4897 0 
L 4281 0 
L 4281 4097 
L 3078 897 
L 2444 897 
L 1241 4097 
L 1241 0 
L 628 0 
L 628 4666 
z
" id="DejaVuSans-4d" transform="scale(0.015625)"/>
      </defs>
      <use xlink:href="#DejaVuSans-46"/>
      <use x="52.019531" xlink:href="#DejaVuSans-65"/>
      <use x="113.542969" xlink:href="#DejaVuSans-64"/>
      <use x="177.019531" xlink:href="#DejaVuSans-4d"/>
      <use x="263.298828" xlink:href="#DejaVuSans-65"/>
      <use x="324.822266" xlink:href="#DejaVuSans-64"/>
     </g>
    </g>
    <g id="line2d_23">
     <path d="M 253.942813 18.898949 
L 273.942813 18.898949 
" style="fill:none;stroke:#2ca02c;stroke-linecap:square;stroke-width:1.5;"/>
    </g>
    <g id="line2d_24"/>
    <g id="text_19">
     <!-- FedProx -->
     <g transform="translate(281.942813 22.398949)scale(0.1 -0.1)">
      <defs>
       <path d="M 1259 4147 
L 1259 2394 
L 2053 2394 
Q 2494 2394 2734 2622 
Q 2975 2850 2975 3272 
Q 2975 3691 2734 3919 
Q 2494 4147 2053 4147 
L 1259 4147 
z
M 628 4666 
L 2053 4666 
Q 2838 4666 3239 4311 
Q 3641 3956 3641 3272 
Q 3641 2581 3239 2228 
Q 2838 1875 2053 1875 
L 1259 1875 
L 1259 0 
L 628 0 
L 628 4666 
z
" id="DejaVuSans-50" transform="scale(0.015625)"/>
       <path d="M 3513 3500 
L 2247 1797 
L 3578 0 
L 2900 0 
L 1881 1375 
L 863 0 
L 184 0 
L 1544 1831 
L 300 3500 
L 978 3500 
L 1906 2253 
L 2834 3500 
L 3513 3500 
z
" id="DejaVuSans-78" transform="scale(0.015625)"/>
      </defs>
      <use xlink:href="#DejaVuSans-46"/>
      <use x="52.019531" xlink:href="#DejaVuSans-65"/>
      <use x="113.542969" xlink:href="#DejaVuSans-64"/>
      <use x="177.019531" xlink:href="#DejaVuSans-50"/>
      <use x="235.572266" xlink:href="#DejaVuSans-72"/>
      <use x="274.435547" xlink:href="#DejaVuSans-6f"/>
      <use x="332.492188" xlink:href="#DejaVuSans-78"/>
     </g>
    </g>
    <g id="line2d_25">
     <path d="M 341.111563 18.898949 
L 361.111563 18.898949 
" style="fill:none;stroke:#d62728;stroke-linecap:square;stroke-width:1.5;"/>
    </g>
    <g id="line2d_26"/>
    <g id="text_20">
     <!-- qFedAvg -->
     <g transform="translate(369.111563 22.398949)scale(0.1 -0.1)">
      <defs>
       <path d="M 947 1747 
Q 947 1113 1208 752 
Q 1469 391 1925 391 
Q 2381 391 2643 752 
Q 2906 1113 2906 1747 
Q 2906 2381 2643 2742 
Q 2381 3103 1925 3103 
Q 1469 3103 1208 2742 
Q 947 2381 947 1747 
z
M 2906 525 
Q 2725 213 2448 61 
Q 2172 -91 1784 -91 
Q 1150 -91 751 415 
Q 353 922 353 1747 
Q 353 2572 751 3078 
Q 1150 3584 1784 3584 
Q 2172 3584 2448 3432 
Q 2725 3281 2906 2969 
L 2906 3500 
L 3481 3500 
L 3481 -1331 
L 2906 -1331 
L 2906 525 
z
" id="DejaVuSans-71" transform="scale(0.015625)"/>
      </defs>
      <use xlink:href="#DejaVuSans-71"/>
      <use x="63.476562" xlink:href="#DejaVuSans-46"/>
      <use x="115.496094" xlink:href="#DejaVuSans-65"/>
      <use x="177.019531" xlink:href="#DejaVuSans-64"/>
      <use x="240.496094" xlink:href="#DejaVuSans-41"/>
      <use x="303.029297" xlink:href="#DejaVuSans-76"/>
      <use x="362.208984" xlink:href="#DejaVuSans-67"/>
     </g>
    </g>
   </g>
  </g>
 </g>
 <defs>
  <clipPath id="pa3712f2d7f">
   <rect height="270.763171" width="405.43" x="44.57" y="32.876829"/>
  </clipPath>
 </defs>
</svg>
