<?xml version="1.0" encoding="utf-8" standalone="no"?>
<!DOCTYPE svg PUBLIC "-//W3C//DTD SVG 1.1//EN"
  "http://www.w3.org/Graphics/SVG/1.1/DTD/svg11.dtd">
<svg height="345.6pt" version="1.1" viewBox="0 0 460.8 345.6" width="460.8pt" xmlns="http://www.w3.org/2000/svg" xmlns:xlink="http://www.w3.org/1999/xlink">
 <metadata>
  <rdf:RDF xmlns:cc="http://creativecommons.org/ns#" xmlns:dc="http://purl.org/dc/elements/1.1/" xmlns:rdf="http://www.w3.org/1999/02/22-rdf-syntax-ns#">
   <cc:Work>
    <dc:type rdf:resource="http://purl.org/dc/dcmitype/StillImage"/>
    <dc:date>2021-05-07T12:06:41.553972</dc:date>
    <dc:format>image/svg+xml</dc:format>
    <dc:creator>
     <cc:Agent>
      <dc:title>Matplotlib v3.4.1, https://matplotlib.org/</dc:title>
     </cc:Agent>
    </dc:creator>
   </cc:Work>
  </rdf:RDF>
 </metadata>
 <defs>
  <style type="text/css">*{stroke-linecap:butt;stroke-linejoin:round;}</style>
 </defs>
 <g id="figure_1">
  <g id="patch_1">
   <path d="M 0 345.6 
L 460.8 345.6 
L 460.8 0 
L 0 0 
z
" style="fill:#ffffff;"/>
  </g>
  <g id="axes_1">
   <g id="patch_2">
    <path d="M 44.57 303.64 
L 450 303.64 
L 450 32.876829 
L 44.57 32.876829 
z
" style="fill:#ffffff;"/>
   </g>
   <g id="PolyCollection_1">
    <path clip-path="url(#p8bab405ce4)" d="M 62.998636 245.706888 
L 62.998636 257.318594 
L 70.520529 246.960689 
L 78.042421 224.346878 
L 85.564314 215.570811 
L 93.086206 209.85971 
L 100.608098 196.5783 
L 108.129991 185.561156 
L 115.651883 183.869049 
L 123.173776 180.422507 
L 130.695668 177.817136 
L 138.21756 163.481875 
L 145.739453 163.566331 
L 153.261345 162.04093 
L 160.783237 152.198393 
L 168.30513 151.753189 
L 175.827022 146.250947 
L 183.348915 143.815708 
L 190.870807 134.506207 
L 198.392699 134.585915 
L 205.914592 134.032514 
L 213.436484 125.612187 
L 220.958377 120.595155 
L 228.480269 123.179839 
L 236.002161 120.085062 
L 243.524054 118.763996 
L 251.045946 114.228976 
L 258.567839 111.154666 
L 266.089731 108.200588 
L 273.611623 107.548799 
L 281.133516 108.658424 
L 288.655408 100.317086 
L 296.177301 99.040632 
L 303.699193 101.9466 
L 311.221085 94.706136 
L 318.742978 93.649353 
L 326.26487 85.092397 
L 333.786763 91.609065 
L 341.308655 89.453909 
L 348.830547 92.547049 
L 356.35244 82.241828 
L 363.874332 82.357713 
L 371.396224 81.693631 
L 378.918117 80.46483 
L 386.440009 81.620386 
L 393.961902 74.039225 
L 401.483794 71.916885 
L 409.005686 67.860974 
L 416.527579 63.47597 
L 424.049471 65.422253 
L 431.571364 63.430348 
L 431.571364 54.524232 
L 431.571364 54.524232 
L 424.049471 54.128239 
L 416.527579 56.30251 
L 409.005686 56.249268 
L 401.483794 54.473233 
L 393.961902 61.698381 
L 386.440009 56.397094 
L 378.918117 68.952026 
L 371.396224 69.319138 
L 363.874332 65.691218 
L 356.35244 75.610566 
L 348.830547 71.688995 
L 341.308655 76.834023 
L 333.786763 80.150567 
L 326.26487 78.91566 
L 318.742978 84.949904 
L 311.221085 84.805071 
L 303.699193 85.54417 
L 296.177301 93.693851 
L 288.655408 92.873372 
L 281.133516 93.195559 
L 273.611623 94.761159 
L 266.089731 102.31692 
L 258.567839 100.958755 
L 251.045946 103.584132 
L 243.524054 109.080563 
L 236.002161 109.127422 
L 228.480269 111.276358 
L 220.958377 115.228967 
L 213.436484 116.823572 
L 205.914592 120.258596 
L 198.392699 120.617145 
L 190.870807 128.448428 
L 183.348915 134.186103 
L 175.827022 132.890801 
L 168.30513 138.787934 
L 160.783237 138.114743 
L 153.261345 148.335107 
L 145.739453 149.317568 
L 138.21756 156.469637 
L 130.695668 161.05734 
L 123.173776 156.172094 
L 115.651883 168.456689 
L 108.129991 172.464271 
L 100.608098 178.090214 
L 93.086206 199.00693 
L 85.564314 202.187342 
L 78.042421 205.266626 
L 70.520529 230.074216 
L 62.998636 245.706888 
z
" style="fill:#1f77b4;fill-opacity:0.5;"/>
   </g>
   <g id="PolyCollection_2">
    <path clip-path="url(#p8bab405ce4)" d="M 62.998636 255.517351 
L 62.998636 278.286444 
L 70.520529 235.833472 
L 78.042421 218.526511 
L 85.564314 213.557094 
L 93.086206 200.378321 
L 100.608098 192.573347 
L 108.129991 198.733633 
L 115.651883 184.46063 
L 123.173776 178.749377 
L 130.695668 176.559655 
L 138.21756 171.900827 
L 145.739453 166.444812 
L 153.261345 165.025209 
L 160.783237 160.292994 
L 168.30513 157.021738 
L 175.827022 158.140136 
L 183.348915 149.839001 
L 190.870807 144.336636 
L 198.392699 141.211686 
L 205.914592 142.129843 
L 213.436484 132.553429 
L 220.958377 128.282138 
L 228.480269 131.9835 
L 236.002161 125.639784 
L 243.524054 125.052692 
L 251.045946 120.686564 
L 258.567839 119.531236 
L 266.089731 117.848756 
L 273.611623 112.354806 
L 281.133516 112.808838 
L 288.655408 111.351529 
L 296.177301 106.683117 
L 303.699193 112.345345 
L 311.221085 103.864854 
L 318.742978 101.186403 
L 326.26487 96.705868 
L 333.786763 98.867791 
L 341.308655 97.258141 
L 348.830547 100.562579 
L 356.35244 95.996295 
L 363.874332 94.240954 
L 371.396224 89.110353 
L 378.918117 94.005595 
L 386.440009 91.038972 
L 393.961902 87.53443 
L 401.483794 86.61293 
L 409.005686 79.906831 
L 416.527579 80.598493 
L 424.049471 77.293416 
L 431.571364 78.28876 
L 431.571364 58.132808 
L 431.571364 58.132808 
L 424.049471 63.231927 
L 416.527579 61.978738 
L 409.005686 69.05405 
L 401.483794 69.643551 
L 393.961902 74.193751 
L 386.440009 71.145184 
L 378.918117 80.2619 
L 371.396224 79.001479 
L 363.874332 76.150753 
L 356.35244 80.323087 
L 348.830547 87.840141 
L 341.308655 88.636716 
L 333.786763 89.990904 
L 326.26487 88.961002 
L 318.742978 97.01978 
L 311.221085 93.885354 
L 303.699193 95.208326 
L 296.177301 100.870553 
L 288.655408 97.570066 
L 281.133516 105.916221 
L 273.611623 98.618677 
L 266.089731 104.980078 
L 258.567839 109.45326 
L 251.045946 116.277495 
L 243.524054 118.750992 
L 236.002161 120.215789 
L 228.480269 120.027735 
L 220.958377 120.537271 
L 213.436484 124.473531 
L 205.914592 128.34838 
L 198.392699 134.51025 
L 190.870807 135.489075 
L 183.348915 136.37036 
L 175.827022 141.520488 
L 168.30513 143.778823 
L 160.783237 146.66323 
L 153.261345 151.506491 
L 145.739453 157.382488 
L 138.21756 155.802261 
L 130.695668 163.226771 
L 123.173776 159.669124 
L 115.651883 168.093096 
L 108.129991 177.758782 
L 100.608098 175.711517 
L 93.086206 193.669132 
L 85.564314 195.309546 
L 78.042421 189.200192 
L 70.520529 219.998595 
L 62.998636 255.517351 
z
" style="fill:#ff7f0e;fill-opacity:0.5;"/>
   </g>
   <g id="PolyCollection_3">
    <path clip-path="url(#p8bab405ce4)" d="M 62.998636 242.659558 
L 62.998636 273.133225 
L 70.520529 236.270721 
L 78.042421 228.21018 
L 85.564314 218.927139 
L 93.086206 202.833132 
L 100.608098 199.843497 
L 108.129991 196.404404 
L 115.651883 178.787203 
L 123.173776 179.293625 
L 130.695668 175.084334 
L 138.21756 168.005487 
L 145.739453 168.212273 
L 153.261345 161.642457 
L 160.783237 158.518227 
L 168.30513 153.592106 
L 175.827022 146.666012 
L 183.348915 151.459775 
L 190.870807 143.416258 
L 198.392699 138.528487 
L 205.914592 143.126219 
L 213.436484 136.997001 
L 220.958377 138.529991 
L 228.480269 134.257393 
L 236.002161 134.484152 
L 243.524054 133.403546 
L 251.045946 132.483093 
L 258.567839 130.977675 
L 266.089731 131.232399 
L 273.611623 129.310957 
L 281.133516 128.887998 
L 288.655408 125.996697 
L 296.177301 125.982656 
L 303.699193 127.833475 
L 311.221085 126.703358 
L 318.742978 123.452776 
L 326.26487 124.76282 
L 333.786763 120.897672 
L 341.308655 123.225587 
L 348.830547 121.472039 
L 356.35244 119.427598 
L 363.874332 118.208455 
L 371.396224 116.852701 
L 378.918117 114.755253 
L 386.440009 114.339778 
L 393.961902 115.235981 
L 401.483794 112.663598 
L 409.005686 113.616869 
L 416.527579 112.08418 
L 424.049471 110.160286 
L 431.571364 111.492381 
L 431.571364 48.4119 
L 431.571364 48.4119 
L 424.049471 45.184246 
L 416.527579 50.783939 
L 409.005686 54.950938 
L 401.483794 52.484396 
L 393.961902 60.171451 
L 386.440009 56.963878 
L 378.918117 59.056267 
L 371.396224 65.166369 
L 363.874332 68.370365 
L 356.35244 72.622923 
L 348.830547 79.242007 
L 341.308655 78.856383 
L 333.786763 77.308511 
L 326.26487 85.070725 
L 318.742978 84.784858 
L 311.221085 91.793713 
L 303.699193 94.995359 
L 296.177301 90.918503 
L 288.655408 92.500374 
L 281.133516 96.904674 
L 273.611623 102.181402 
L 266.089731 102.08386 
L 258.567839 107.810285 
L 251.045946 109.952667 
L 243.524054 113.363976 
L 236.002161 115.703183 
L 228.480269 115.701955 
L 220.958377 119.408919 
L 213.436484 119.345997 
L 205.914592 126.212066 
L 198.392699 125.11011 
L 190.870807 132.761653 
L 183.348915 133.609649 
L 175.827022 132.475736 
L 168.30513 143.560656 
L 160.783237 142.510322 
L 153.261345 150.55748 
L 145.739453 156.071002 
L 138.21756 159.925589 
L 130.695668 164.018129 
L 123.173776 165.736513 
L 115.651883 173.538536 
L 108.129991 173.020398 
L 100.608098 178.700805 
L 93.086206 184.602683 
L 85.564314 197.007115 
L 78.042421 208.698924 
L 70.520529 215.457571 
L 62.998636 242.659558 
z
" style="fill:#2ca02c;fill-opacity:0.5;"/>
   </g>
   <g id="PolyCollection_4">
    <path clip-path="url(#p8bab405ce4)" d="M 62.998636 291.188495 
L 62.998636 291.332583 
L 70.520529 281.793536 
L 78.042421 222.415846 
L 85.564314 205.718556 
L 93.086206 207.526035 
L 100.608098 195.476427 
L 108.129991 186.816939 
L 115.651883 184.418856 
L 123.173776 173.77343 
L 130.695668 162.917218 
L 138.21756 165.818311 
L 145.739453 158.718107 
L 153.261345 153.625794 
L 160.783237 151.117671 
L 168.30513 147.971478 
L 175.827022 139.54869 
L 183.348915 139.63448 
L 190.870807 138.275481 
L 198.392699 133.397672 
L 205.914592 135.651775 
L 213.436484 130.656274 
L 220.958377 125.077257 
L 228.480269 120.228015 
L 236.002161 117.818923 
L 243.524054 115.610855 
L 251.045946 113.375797 
L 258.567839 109.806863 
L 266.089731 108.901736 
L 273.611623 104.248912 
L 281.133516 100.511524 
L 288.655408 101.915317 
L 296.177301 100.448266 
L 303.699193 97.232937 
L 311.221085 92.016328 
L 318.742978 92.063861 
L 326.26487 90.147654 
L 333.786763 87.92326 
L 341.308655 86.127211 
L 348.830547 84.161917 
L 356.35244 80.987441 
L 363.874332 79.342451 
L 371.396224 76.833902 
L 378.918117 78.094069 
L 386.440009 74.339151 
L 393.961902 74.134479 
L 401.483794 70.130221 
L 409.005686 69.998109 
L 416.527579 68.652018 
L 424.049471 65.205649 
L 431.571364 62.478232 
L 431.571364 57.303896 
L 431.571364 57.303896 
L 424.049471 58.286747 
L 416.527579 60.856057 
L 409.005686 62.355706 
L 401.483794 61.575198 
L 393.961902 63.928828 
L 386.440009 64.966915 
L 378.918117 68.308336 
L 371.396224 72.054023 
L 363.874332 73.74204 
L 356.35244 74.042239 
L 348.830547 79.837248 
L 341.308655 79.258802 
L 333.786763 82.091584 
L 326.26487 85.270493 
L 318.742978 86.127982 
L 311.221085 87.868551 
L 303.699193 90.666842 
L 296.177301 92.026311 
L 288.655408 96.520906 
L 281.133516 96.627905 
L 273.611623 99.500559 
L 266.089731 101.583854 
L 258.567839 103.7406 
L 251.045946 107.862368 
L 243.524054 108.040785 
L 236.002161 112.244638 
L 228.480269 114.572443 
L 220.958377 116.189155 
L 213.436484 118.64305 
L 205.914592 122.166758 
L 198.392699 126.420083 
L 190.870807 129.46712 
L 183.348915 133.511425 
L 175.827022 135.614448 
L 168.30513 138.754731 
L 160.783237 140.79571 
L 153.261345 144.249232 
L 145.739453 150.125626 
L 138.21756 158.208706 
L 130.695668 158.318092 
L 123.173776 166.751675 
L 115.651883 173.162679 
L 108.129991 175.717624 
L 100.608098 182.763739 
L 93.086206 195.461264 
L 85.564314 198.367415 
L 78.042421 212.667078 
L 70.520529 262.65226 
L 62.998636 291.188495 
z
" style="fill:#d62728;fill-opacity:0.5;"/>
   </g>
   <g id="matplotlib.axis_1">
    <g id="xtick_1">
     <g id="line2d_1">
      <defs>
       <path d="M 0 0 
L 0 3.5 
" id="m3599a3c758" style="stroke:#000000;stroke-width:0.8;"/>
      </defs>
      <g>
       <use style="stroke:#000000;stroke-width:0.8;" x="62.998636" xlink:href="#m3599a3c758" y="303.64"/>
      </g>
     </g>
     <g id="text_1">
      <!-- 0 -->
      <g transform="translate(59.817386 318.238437)scale(0.1 -0.1)">
       <defs>
        <path d="M 2034 4250 
Q 1547 4250 1301 3770 
Q 1056 3291 1056 2328 
Q 1056 1369 1301 889 
Q 1547 409 2034 409 
Q 2525 409 2770 889 
Q 3016 1369 3016 2328 
Q 3016 3291 2770 3770 
Q 2525 4250 2034 4250 
z
M 2034 4750 
Q 2819 4750 3233 4129 
Q 3647 3509 3647 2328 
Q 3647 1150 3233 529 
Q 2819 -91 2034 -91 
Q 1250 -91 836 529 
Q 422 1150 422 2328 
Q 422 3509 836 4129 
Q 1250 4750 2034 4750 
z
" id="DejaVuSans-30" transform="scale(0.015625)"/>
       </defs>
       <use xlink:href="#DejaVuSans-30"/>
      </g>
     </g>
    </g>
    <g id="xtick_2">
     <g id="line2d_2">
      <g>
       <use style="stroke:#000000;stroke-width:0.8;" x="138.21756" xlink:href="#m3599a3c758" y="303.64"/>
      </g>
     </g>
     <g id="text_2">
      <!-- 10 -->
      <g transform="translate(131.85506 318.238437)scale(0.1 -0.1)">
       <defs>
        <path d="M 794 531 
L 1825 531 
L 1825 4091 
L 703 3866 
L 703 4441 
L 1819 4666 
L 2450 4666 
L 2450 531 
L 3481 531 
L 3481 0 
L 794 0 
L 794 531 
z
" id="DejaVuSans-31" transform="scale(0.015625)"/>
       </defs>
       <use xlink:href="#DejaVuSans-31"/>
       <use x="63.623047" xlink:href="#DejaVuSans-30"/>
      </g>
     </g>
    </g>
    <g id="xtick_3">
     <g id="line2d_3">
      <g>
       <use style="stroke:#000000;stroke-width:0.8;" x="213.436484" xlink:href="#m3599a3c758" y="303.64"/>
      </g>
     </g>
     <g id="text_3">
      <!-- 20 -->
      <g transform="translate(207.073984 318.238437)scale(0.1 -0.1)">
       <defs>
        <path d="M 1228 531 
L 3431 531 
L 3431 0 
L 469 0 
L 469 531 
Q 828 903 1448 1529 
Q 2069 2156 2228 2338 
Q 2531 2678 2651 2914 
Q 2772 3150 2772 3378 
Q 2772 3750 2511 3984 
Q 2250 4219 1831 4219 
Q 1534 4219 1204 4116 
Q 875 4013 500 3803 
L 500 4441 
Q 881 4594 1212 4672 
Q 1544 4750 1819 4750 
Q 2544 4750 2975 4387 
Q 3406 4025 3406 3419 
Q 3406 3131 3298 2873 
Q 3191 2616 2906 2266 
Q 2828 2175 2409 1742 
Q 1991 1309 1228 531 
z
" id="DejaVuSans-32" transform="scale(0.015625)"/>
       </defs>
       <use xlink:href="#DejaVuSans-32"/>
       <use x="63.623047" xlink:href="#DejaVuSans-30"/>
      </g>
     </g>
    </g>
    <g id="xtick_4">
     <g id="line2d_4">
      <g>
       <use style="stroke:#000000;stroke-width:0.8;" x="288.655408" xlink:href="#m3599a3c758" y="303.64"/>
      </g>
     </g>
     <g id="text_4">
      <!-- 30 -->
      <g transform="translate(282.292908 318.238437)scale(0.1 -0.1)">
       <defs>
        <path d="M 2597 2516 
Q 3050 2419 3304 2112 
Q 3559 1806 3559 1356 
Q 3559 666 3084 287 
Q 2609 -91 1734 -91 
Q 1441 -91 1130 -33 
Q 819 25 488 141 
L 488 750 
Q 750 597 1062 519 
Q 1375 441 1716 441 
Q 2309 441 2620 675 
Q 2931 909 2931 1356 
Q 2931 1769 2642 2001 
Q 2353 2234 1838 2234 
L 1294 2234 
L 1294 2753 
L 1863 2753 
Q 2328 2753 2575 2939 
Q 2822 3125 2822 3475 
Q 2822 3834 2567 4026 
Q 2313 4219 1838 4219 
Q 1578 4219 1281 4162 
Q 984 4106 628 3988 
L 628 4550 
Q 988 4650 1302 4700 
Q 1616 4750 1894 4750 
Q 2613 4750 3031 4423 
Q 3450 4097 3450 3541 
Q 3450 3153 3228 2886 
Q 3006 2619 2597 2516 
z
" id="DejaVuSans-33" transform="scale(0.015625)"/>
       </defs>
       <use xlink:href="#DejaVuSans-33"/>
       <use x="63.623047" xlink:href="#DejaVuSans-30"/>
      </g>
     </g>
    </g>
    <g id="xtick_5">
     <g id="line2d_5">
      <g>
       <use style="stroke:#000000;stroke-width:0.8;" x="363.874332" xlink:href="#m3599a3c758" y="303.64"/>
      </g>
     </g>
     <g id="text_5">
      <!-- 40 -->
      <g transform="translate(357.511832 318.238437)scale(0.1 -0.1)">
       <defs>
        <path d="M 2419 4116 
L 825 1625 
L 2419 1625 
L 2419 4116 
z
M 2253 4666 
L 3047 4666 
L 3047 1625 
L 3713 1625 
L 3713 1100 
L 3047 1100 
L 3047 0 
L 2419 0 
L 2419 1100 
L 313 1100 
L 313 1709 
L 2253 4666 
z
" id="DejaVuSans-34" transform="scale(0.015625)"/>
       </defs>
       <use xlink:href="#DejaVuSans-34"/>
       <use x="63.623047" xlink:href="#DejaVuSans-30"/>
      </g>
     </g>
    </g>
    <g id="xtick_6">
     <g id="line2d_6">
      <g>
       <use style="stroke:#000000;stroke-width:0.8;" x="439.093256" xlink:href="#m3599a3c758" y="303.64"/>
      </g>
     </g>
     <g id="text_6">
      <!-- 50 -->
      <g transform="translate(432.730756 318.238437)scale(0.1 -0.1)">
       <defs>
        <path d="M 691 4666 
L 3169 4666 
L 3169 4134 
L 1269 4134 
L 1269 2991 
Q 1406 3038 1543 3061 
Q 1681 3084 1819 3084 
Q 2600 3084 3056 2656 
Q 3513 2228 3513 1497 
Q 3513 744 3044 326 
Q 2575 -91 1722 -91 
Q 1428 -91 1123 -41 
Q 819 9 494 109 
L 494 744 
Q 775 591 1075 516 
Q 1375 441 1709 441 
Q 2250 441 2565 725 
Q 2881 1009 2881 1497 
Q 2881 1984 2565 2268 
Q 2250 2553 1709 2553 
Q 1456 2553 1204 2497 
Q 953 2441 691 2322 
L 691 4666 
z
" id="DejaVuSans-35" transform="scale(0.015625)"/>
       </defs>
       <use xlink:href="#DejaVuSans-35"/>
       <use x="63.623047" xlink:href="#DejaVuSans-30"/>
      </g>
     </g>
    </g>
    <g id="text_7">
     <!-- Global Communication Rounds -->
     <g transform="translate(170.323281 331.916562)scale(0.1 -0.1)">
      <defs>
       <path d="M 3809 666 
L 3809 1919 
L 2778 1919 
L 2778 2438 
L 4434 2438 
L 4434 434 
Q 4069 175 3628 42 
Q 3188 -91 2688 -91 
Q 1594 -91 976 548 
Q 359 1188 359 2328 
Q 359 3472 976 4111 
Q 1594 4750 2688 4750 
Q 3144 4750 3555 4637 
Q 3966 4525 4313 4306 
L 4313 3634 
Q 3963 3931 3569 4081 
Q 3175 4231 2741 4231 
Q 1884 4231 1454 3753 
Q 1025 3275 1025 2328 
Q 1025 1384 1454 906 
Q 1884 428 2741 428 
Q 3075 428 3337 486 
Q 3600 544 3809 666 
z
" id="DejaVuSans-47" transform="scale(0.015625)"/>
       <path d="M 603 4863 
L 1178 4863 
L 1178 0 
L 603 0 
L 603 4863 
z
" id="DejaVuSans-6c" transform="scale(0.015625)"/>
       <path d="M 1959 3097 
Q 1497 3097 1228 2736 
Q 959 2375 959 1747 
Q 959 1119 1226 758 
Q 1494 397 1959 397 
Q 2419 397 2687 759 
Q 2956 1122 2956 1747 
Q 2956 2369 2687 2733 
Q 2419 3097 1959 3097 
z
M 1959 3584 
Q 2709 3584 3137 3096 
Q 3566 2609 3566 1747 
Q 3566 888 3137 398 
Q 2709 -91 1959 -91 
Q 1206 -91 779 398 
Q 353 888 353 1747 
Q 353 2609 779 3096 
Q 1206 3584 1959 3584 
z
" id="DejaVuSans-6f" transform="scale(0.015625)"/>
       <path d="M 3116 1747 
Q 3116 2381 2855 2742 
Q 2594 3103 2138 3103 
Q 1681 3103 1420 2742 
Q 1159 2381 1159 1747 
Q 1159 1113 1420 752 
Q 1681 391 2138 391 
Q 2594 391 2855 752 
Q 3116 1113 3116 1747 
z
M 1159 2969 
Q 1341 3281 1617 3432 
Q 1894 3584 2278 3584 
Q 2916 3584 3314 3078 
Q 3713 2572 3713 1747 
Q 3713 922 3314 415 
Q 2916 -91 2278 -91 
Q 1894 -91 1617 61 
Q 1341 213 1159 525 
L 1159 0 
L 581 0 
L 581 4863 
L 1159 4863 
L 1159 2969 
z
" id="DejaVuSans-62" transform="scale(0.015625)"/>
       <path d="M 2194 1759 
Q 1497 1759 1228 1600 
Q 959 1441 959 1056 
Q 959 750 1161 570 
Q 1363 391 1709 391 
Q 2188 391 2477 730 
Q 2766 1069 2766 1631 
L 2766 1759 
L 2194 1759 
z
M 3341 1997 
L 3341 0 
L 2766 0 
L 2766 531 
Q 2569 213 2275 61 
Q 1981 -91 1556 -91 
Q 1019 -91 701 211 
Q 384 513 384 1019 
Q 384 1609 779 1909 
Q 1175 2209 1959 2209 
L 2766 2209 
L 2766 2266 
Q 2766 2663 2505 2880 
Q 2244 3097 1772 3097 
Q 1472 3097 1187 3025 
Q 903 2953 641 2809 
L 641 3341 
Q 956 3463 1253 3523 
Q 1550 3584 1831 3584 
Q 2591 3584 2966 3190 
Q 3341 2797 3341 1997 
z
" id="DejaVuSans-61" transform="scale(0.015625)"/>
       <path id="DejaVuSans-20" transform="scale(0.015625)"/>
       <path d="M 4122 4306 
L 4122 3641 
Q 3803 3938 3442 4084 
Q 3081 4231 2675 4231 
Q 1875 4231 1450 3742 
Q 1025 3253 1025 2328 
Q 1025 1406 1450 917 
Q 1875 428 2675 428 
Q 3081 428 3442 575 
Q 3803 722 4122 1019 
L 4122 359 
Q 3791 134 3420 21 
Q 3050 -91 2638 -91 
Q 1578 -91 968 557 
Q 359 1206 359 2328 
Q 359 3453 968 4101 
Q 1578 4750 2638 4750 
Q 3056 4750 3426 4639 
Q 3797 4528 4122 4306 
z
" id="DejaVuSans-43" transform="scale(0.015625)"/>
       <path d="M 3328 2828 
Q 3544 3216 3844 3400 
Q 4144 3584 4550 3584 
Q 5097 3584 5394 3201 
Q 5691 2819 5691 2113 
L 5691 0 
L 5113 0 
L 5113 2094 
Q 5113 2597 4934 2840 
Q 4756 3084 4391 3084 
Q 3944 3084 3684 2787 
Q 3425 2491 3425 1978 
L 3425 0 
L 2847 0 
L 2847 2094 
Q 2847 2600 2669 2842 
Q 2491 3084 2119 3084 
Q 1678 3084 1418 2786 
Q 1159 2488 1159 1978 
L 1159 0 
L 581 0 
L 581 3500 
L 1159 3500 
L 1159 2956 
Q 1356 3278 1631 3431 
Q 1906 3584 2284 3584 
Q 2666 3584 2933 3390 
Q 3200 3197 3328 2828 
z
" id="DejaVuSans-6d" transform="scale(0.015625)"/>
       <path d="M 544 1381 
L 544 3500 
L 1119 3500 
L 1119 1403 
Q 1119 906 1312 657 
Q 1506 409 1894 409 
Q 2359 409 2629 706 
Q 2900 1003 2900 1516 
L 2900 3500 
L 3475 3500 
L 3475 0 
L 2900 0 
L 2900 538 
Q 2691 219 2414 64 
Q 2138 -91 1772 -91 
Q 1169 -91 856 284 
Q 544 659 544 1381 
z
M 1991 3584 
L 1991 3584 
z
" id="DejaVuSans-75" transform="scale(0.015625)"/>
       <path d="M 3513 2113 
L 3513 0 
L 2938 0 
L 2938 2094 
Q 2938 2591 2744 2837 
Q 2550 3084 2163 3084 
Q 1697 3084 1428 2787 
Q 1159 2491 1159 1978 
L 1159 0 
L 581 0 
L 581 3500 
L 1159 3500 
L 1159 2956 
Q 1366 3272 1645 3428 
Q 1925 3584 2291 3584 
Q 2894 3584 3203 3211 
Q 3513 2838 3513 2113 
z
" id="DejaVuSans-6e" transform="scale(0.015625)"/>
       <path d="M 603 3500 
L 1178 3500 
L 1178 0 
L 603 0 
L 603 3500 
z
M 603 4863 
L 1178 4863 
L 1178 4134 
L 603 4134 
L 603 4863 
z
" id="DejaVuSans-69" transform="scale(0.015625)"/>
       <path d="M 3122 3366 
L 3122 2828 
Q 2878 2963 2633 3030 
Q 2388 3097 2138 3097 
Q 1578 3097 1268 2742 
Q 959 2388 959 1747 
Q 959 1106 1268 751 
Q 1578 397 2138 397 
Q 2388 397 2633 464 
Q 2878 531 3122 666 
L 3122 134 
Q 2881 22 2623 -34 
Q 2366 -91 2075 -91 
Q 1284 -91 818 406 
Q 353 903 353 1747 
Q 353 2603 823 3093 
Q 1294 3584 2113 3584 
Q 2378 3584 2631 3529 
Q 2884 3475 3122 3366 
z
" id="DejaVuSans-63" transform="scale(0.015625)"/>
       <path d="M 1172 4494 
L 1172 3500 
L 2356 3500 
L 2356 3053 
L 1172 3053 
L 1172 1153 
Q 1172 725 1289 603 
Q 1406 481 1766 481 
L 2356 481 
L 2356 0 
L 1766 0 
Q 1100 0 847 248 
Q 594 497 594 1153 
L 594 3053 
L 172 3053 
L 172 3500 
L 594 3500 
L 594 4494 
L 1172 4494 
z
" id="DejaVuSans-74" transform="scale(0.015625)"/>
       <path d="M 2841 2188 
Q 3044 2119 3236 1894 
Q 3428 1669 3622 1275 
L 4263 0 
L 3584 0 
L 2988 1197 
Q 2756 1666 2539 1819 
Q 2322 1972 1947 1972 
L 1259 1972 
L 1259 0 
L 628 0 
L 628 4666 
L 2053 4666 
Q 2853 4666 3247 4331 
Q 3641 3997 3641 3322 
Q 3641 2881 3436 2590 
Q 3231 2300 2841 2188 
z
M 1259 4147 
L 1259 2491 
L 2053 2491 
Q 2509 2491 2742 2702 
Q 2975 2913 2975 3322 
Q 2975 3731 2742 3939 
Q 2509 4147 2053 4147 
L 1259 4147 
z
" id="DejaVuSans-52" transform="scale(0.015625)"/>
       <path d="M 2906 2969 
L 2906 4863 
L 3481 4863 
L 3481 0 
L 2906 0 
L 2906 525 
Q 2725 213 2448 61 
Q 2172 -91 1784 -91 
Q 1150 -91 751 415 
Q 353 922 353 1747 
Q 353 2572 751 3078 
Q 1150 3584 1784 3584 
Q 2172 3584 2448 3432 
Q 2725 3281 2906 2969 
z
M 947 1747 
Q 947 1113 1208 752 
Q 1469 391 1925 391 
Q 2381 391 2643 752 
Q 2906 1113 2906 1747 
Q 2906 2381 2643 2742 
Q 2381 3103 1925 3103 
Q 1469 3103 1208 2742 
Q 947 2381 947 1747 
z
" id="DejaVuSans-64" transform="scale(0.015625)"/>
       <path d="M 2834 3397 
L 2834 2853 
Q 2591 2978 2328 3040 
Q 2066 3103 1784 3103 
Q 1356 3103 1142 2972 
Q 928 2841 928 2578 
Q 928 2378 1081 2264 
Q 1234 2150 1697 2047 
L 1894 2003 
Q 2506 1872 2764 1633 
Q 3022 1394 3022 966 
Q 3022 478 2636 193 
Q 2250 -91 1575 -91 
Q 1294 -91 989 -36 
Q 684 19 347 128 
L 347 722 
Q 666 556 975 473 
Q 1284 391 1588 391 
Q 1994 391 2212 530 
Q 2431 669 2431 922 
Q 2431 1156 2273 1281 
Q 2116 1406 1581 1522 
L 1381 1569 
Q 847 1681 609 1914 
Q 372 2147 372 2553 
Q 372 3047 722 3315 
Q 1072 3584 1716 3584 
Q 2034 3584 2315 3537 
Q 2597 3491 2834 3397 
z
" id="DejaVuSans-73" transform="scale(0.015625)"/>
      </defs>
      <use xlink:href="#DejaVuSans-47"/>
      <use x="77.490234" xlink:href="#DejaVuSans-6c"/>
      <use x="105.273438" xlink:href="#DejaVuSans-6f"/>
      <use x="166.455078" xlink:href="#DejaVuSans-62"/>
      <use x="229.931641" xlink:href="#DejaVuSans-61"/>
      <use x="291.210938" xlink:href="#DejaVuSans-6c"/>
      <use x="318.994141" xlink:href="#DejaVuSans-20"/>
      <use x="350.78125" xlink:href="#DejaVuSans-43"/>
      <use x="420.605469" xlink:href="#DejaVuSans-6f"/>
      <use x="481.787109" xlink:href="#DejaVuSans-6d"/>
      <use x="579.199219" xlink:href="#DejaVuSans-6d"/>
      <use x="676.611328" xlink:href="#DejaVuSans-75"/>
      <use x="739.990234" xlink:href="#DejaVuSans-6e"/>
      <use x="803.369141" xlink:href="#DejaVuSans-69"/>
      <use x="831.152344" xlink:href="#DejaVuSans-63"/>
      <use x="886.132812" xlink:href="#DejaVuSans-61"/>
      <use x="947.412109" xlink:href="#DejaVuSans-74"/>
      <use x="986.621094" xlink:href="#DejaVuSans-69"/>
      <use x="1014.404297" xlink:href="#DejaVuSans-6f"/>
      <use x="1075.585938" xlink:href="#DejaVuSans-6e"/>
      <use x="1138.964844" xlink:href="#DejaVuSans-20"/>
      <use x="1170.751953" xlink:href="#DejaVuSans-52"/>
      <use x="1235.734375" xlink:href="#DejaVuSans-6f"/>
      <use x="1296.916016" xlink:href="#DejaVuSans-75"/>
      <use x="1360.294922" xlink:href="#DejaVuSans-6e"/>
      <use x="1423.673828" xlink:href="#DejaVuSans-64"/>
      <use x="1487.150391" xlink:href="#DejaVuSans-73"/>
     </g>
    </g>
   </g>
   <g id="matplotlib.axis_2">
    <g id="ytick_1">
     <g id="line2d_7">
      <defs>
       <path d="M 0 0 
L -3.5 0 
" id="mb8ea521d67" style="stroke:#000000;stroke-width:0.8;"/>
      </defs>
      <g>
       <use style="stroke:#000000;stroke-width:0.8;" x="44.57" xlink:href="#mb8ea521d67" y="291.296561"/>
      </g>
     </g>
     <g id="text_8">
      <!-- 10 -->
      <g transform="translate(24.845 295.09578)scale(0.1 -0.1)">
       <use xlink:href="#DejaVuSans-31"/>
       <use x="63.623047" xlink:href="#DejaVuSans-30"/>
      </g>
     </g>
    </g>
    <g id="ytick_2">
     <g id="line2d_8">
      <g>
       <use style="stroke:#000000;stroke-width:0.8;" x="44.57" xlink:href="#mb8ea521d67" y="246.269028"/>
      </g>
     </g>
     <g id="text_9">
      <!-- 20 -->
      <g transform="translate(24.845 250.068247)scale(0.1 -0.1)">
       <use xlink:href="#DejaVuSans-32"/>
       <use x="63.623047" xlink:href="#DejaVuSans-30"/>
      </g>
     </g>
    </g>
    <g id="ytick_3">
     <g id="line2d_9">
      <g>
       <use style="stroke:#000000;stroke-width:0.8;" x="44.57" xlink:href="#mb8ea521d67" y="201.241495"/>
      </g>
     </g>
     <g id="text_10">
      <!-- 30 -->
      <g transform="translate(24.845 205.040714)scale(0.1 -0.1)">
       <use xlink:href="#DejaVuSans-33"/>
       <use x="63.623047" xlink:href="#DejaVuSans-30"/>
      </g>
     </g>
    </g>
    <g id="ytick_4">
     <g id="line2d_10">
      <g>
       <use style="stroke:#000000;stroke-width:0.8;" x="44.57" xlink:href="#mb8ea521d67" y="156.213962"/>
      </g>
     </g>
     <g id="text_11">
      <!-- 40 -->
      <g transform="translate(24.845 160.013181)scale(0.1 -0.1)">
       <use xlink:href="#DejaVuSans-34"/>
       <use x="63.623047" xlink:href="#DejaVuSans-30"/>
      </g>
     </g>
    </g>
    <g id="ytick_5">
     <g id="line2d_11">
      <g>
       <use style="stroke:#000000;stroke-width:0.8;" x="44.57" xlink:href="#mb8ea521d67" y="111.186429"/>
      </g>
     </g>
     <g id="text_12">
      <!-- 50 -->
      <g transform="translate(24.845 114.985648)scale(0.1 -0.1)">
       <use xlink:href="#DejaVuSans-35"/>
       <use x="63.623047" xlink:href="#DejaVuSans-30"/>
      </g>
     </g>
    </g>
    <g id="ytick_6">
     <g id="line2d_12">
      <g>
       <use style="stroke:#000000;stroke-width:0.8;" x="44.57" xlink:href="#mb8ea521d67" y="66.158896"/>
      </g>
     </g>
     <g id="text_13">
      <!-- 60 -->
      <g transform="translate(24.845 69.958115)scale(0.1 -0.1)">
       <defs>
        <path d="M 2113 2584 
Q 1688 2584 1439 2293 
Q 1191 2003 1191 1497 
Q 1191 994 1439 701 
Q 1688 409 2113 409 
Q 2538 409 2786 701 
Q 3034 994 3034 1497 
Q 3034 2003 2786 2293 
Q 2538 2584 2113 2584 
z
M 3366 4563 
L 3366 3988 
Q 3128 4100 2886 4159 
Q 2644 4219 2406 4219 
Q 1781 4219 1451 3797 
Q 1122 3375 1075 2522 
Q 1259 2794 1537 2939 
Q 1816 3084 2150 3084 
Q 2853 3084 3261 2657 
Q 3669 2231 3669 1497 
Q 3669 778 3244 343 
Q 2819 -91 2113 -91 
Q 1303 -91 875 529 
Q 447 1150 447 2328 
Q 447 3434 972 4092 
Q 1497 4750 2381 4750 
Q 2619 4750 2861 4703 
Q 3103 4656 3366 4563 
z
" id="DejaVuSans-36" transform="scale(0.015625)"/>
       </defs>
       <use xlink:href="#DejaVuSans-36"/>
       <use x="63.623047" xlink:href="#DejaVuSans-30"/>
      </g>
     </g>
    </g>
    <g id="text_14">
     <!-- Test Accuracy -->
     <g transform="translate(18.765313 202.520914)rotate(-90)scale(0.1 -0.1)">
      <defs>
       <path d="M -19 4666 
L 3928 4666 
L 3928 4134 
L 2272 4134 
L 2272 0 
L 1638 0 
L 1638 4134 
L -19 4134 
L -19 4666 
z
" id="DejaVuSans-54" transform="scale(0.015625)"/>
       <path d="M 3597 1894 
L 3597 1613 
L 953 1613 
Q 991 1019 1311 708 
Q 1631 397 2203 397 
Q 2534 397 2845 478 
Q 3156 559 3463 722 
L 3463 178 
Q 3153 47 2828 -22 
Q 2503 -91 2169 -91 
Q 1331 -91 842 396 
Q 353 884 353 1716 
Q 353 2575 817 3079 
Q 1281 3584 2069 3584 
Q 2775 3584 3186 3129 
Q 3597 2675 3597 1894 
z
M 3022 2063 
Q 3016 2534 2758 2815 
Q 2500 3097 2075 3097 
Q 1594 3097 1305 2825 
Q 1016 2553 972 2059 
L 3022 2063 
z
" id="DejaVuSans-65" transform="scale(0.015625)"/>
       <path d="M 2188 4044 
L 1331 1722 
L 3047 1722 
L 2188 4044 
z
M 1831 4666 
L 2547 4666 
L 4325 0 
L 3669 0 
L 3244 1197 
L 1141 1197 
L 716 0 
L 50 0 
L 1831 4666 
z
" id="DejaVuSans-41" transform="scale(0.015625)"/>
       <path d="M 2631 2963 
Q 2534 3019 2420 3045 
Q 2306 3072 2169 3072 
Q 1681 3072 1420 2755 
Q 1159 2438 1159 1844 
L 1159 0 
L 581 0 
L 581 3500 
L 1159 3500 
L 1159 2956 
Q 1341 3275 1631 3429 
Q 1922 3584 2338 3584 
Q 2397 3584 2469 3576 
Q 2541 3569 2628 3553 
L 2631 2963 
z
" id="DejaVuSans-72" transform="scale(0.015625)"/>
       <path d="M 2059 -325 
Q 1816 -950 1584 -1140 
Q 1353 -1331 966 -1331 
L 506 -1331 
L 506 -850 
L 844 -850 
Q 1081 -850 1212 -737 
Q 1344 -625 1503 -206 
L 1606 56 
L 191 3500 
L 800 3500 
L 1894 763 
L 2988 3500 
L 3597 3500 
L 2059 -325 
z
" id="DejaVuSans-79" transform="scale(0.015625)"/>
      </defs>
      <use xlink:href="#DejaVuSans-54"/>
      <use x="44.083984" xlink:href="#DejaVuSans-65"/>
      <use x="105.607422" xlink:href="#DejaVuSans-73"/>
      <use x="157.707031" xlink:href="#DejaVuSans-74"/>
      <use x="196.916016" xlink:href="#DejaVuSans-20"/>
      <use x="228.703125" xlink:href="#DejaVuSans-41"/>
      <use x="295.361328" xlink:href="#DejaVuSans-63"/>
      <use x="350.341797" xlink:href="#DejaVuSans-63"/>
      <use x="405.322266" xlink:href="#DejaVuSans-75"/>
      <use x="468.701172" xlink:href="#DejaVuSans-72"/>
      <use x="509.814453" xlink:href="#DejaVuSans-61"/>
      <use x="571.09375" xlink:href="#DejaVuSans-63"/>
      <use x="626.074219" xlink:href="#DejaVuSans-79"/>
     </g>
    </g>
   </g>
   <g id="line2d_13">
    <path clip-path="url(#p8bab405ce4)" d="M 62.998636 251.512741 
L 70.520529 238.517453 
L 78.042421 214.806752 
L 85.564314 208.879077 
L 93.086206 204.43332 
L 100.608098 187.334257 
L 108.129991 179.012713 
L 115.651883 176.162869 
L 123.173776 168.2973 
L 130.695668 169.437238 
L 138.21756 159.975756 
L 145.739453 156.44195 
L 153.261345 155.188019 
L 160.783237 145.156568 
L 168.30513 145.270562 
L 175.827022 139.570874 
L 183.348915 139.000905 
L 190.870807 131.477318 
L 198.392699 127.60153 
L 205.914592 127.145555 
L 213.436484 121.21788 
L 220.958377 117.912061 
L 228.480269 117.228098 
L 236.002161 114.606242 
L 243.524054 113.922279 
L 251.045946 108.906554 
L 258.567839 106.05671 
L 266.089731 105.258754 
L 273.611623 101.154979 
L 281.133516 100.926992 
L 288.655408 96.595229 
L 296.177301 96.367241 
L 303.699193 93.745385 
L 311.221085 89.755604 
L 318.742978 89.299629 
L 326.26487 82.004028 
L 333.786763 85.879816 
L 341.308655 83.143966 
L 348.830547 82.118022 
L 356.35244 78.926197 
L 363.874332 74.024466 
L 371.396224 75.506384 
L 378.918117 74.708428 
L 386.440009 69.00874 
L 393.961902 67.868803 
L 401.483794 63.195059 
L 409.005686 62.055121 
L 416.527579 59.88924 
L 424.049471 59.775246 
L 431.571364 58.97729 
" style="fill:none;stroke:#1f77b4;stroke-linecap:square;stroke-width:1.5;"/>
   </g>
   <g id="line2d_14">
    <path clip-path="url(#p8bab405ce4)" d="M 62.998636 266.901898 
L 70.520529 227.916034 
L 78.042421 203.863352 
L 85.564314 204.43332 
L 93.086206 197.023726 
L 100.608098 184.142432 
L 108.129991 188.246207 
L 115.651883 176.276863 
L 123.173776 169.20925 
L 130.695668 169.893213 
L 138.21756 163.851544 
L 145.739453 161.91365 
L 153.261345 158.26585 
L 160.783237 153.478112 
L 168.30513 150.400281 
L 175.827022 149.830312 
L 183.348915 143.104681 
L 190.870807 139.912855 
L 198.392699 137.860968 
L 205.914592 135.239112 
L 213.436484 128.51348 
L 220.958377 124.409705 
L 228.480269 126.005617 
L 236.002161 122.927786 
L 243.524054 121.901842 
L 251.045946 118.48203 
L 258.567839 114.492248 
L 266.089731 111.414417 
L 273.611623 105.486742 
L 281.133516 109.362529 
L 288.655408 104.460798 
L 296.177301 103.776835 
L 303.699193 103.776835 
L 311.221085 98.875104 
L 318.742978 99.103091 
L 326.26487 92.833435 
L 333.786763 94.429348 
L 341.308655 92.947429 
L 348.830547 94.20136 
L 356.35244 88.159691 
L 363.874332 85.195853 
L 371.396224 84.055916 
L 378.918117 87.133747 
L 386.440009 81.092078 
L 393.961902 80.864091 
L 401.483794 78.128241 
L 409.005686 74.480441 
L 416.527579 71.288615 
L 424.049471 70.262672 
L 431.571364 68.210784 
" style="fill:none;stroke:#ff7f0e;stroke-linecap:square;stroke-width:1.5;"/>
   </g>
   <g id="line2d_15">
    <path clip-path="url(#p8bab405ce4)" d="M 62.998636 257.896391 
L 70.520529 225.864146 
L 78.042421 218.454552 
L 85.564314 207.967127 
L 93.086206 193.717907 
L 100.608098 189.272151 
L 108.129991 184.712401 
L 115.651883 176.162869 
L 123.173776 172.515069 
L 130.695668 169.551232 
L 138.21756 163.965538 
L 145.739453 162.141638 
L 153.261345 156.099969 
L 160.783237 150.514275 
L 168.30513 148.576381 
L 175.827022 139.570874 
L 183.348915 142.534712 
L 190.870807 138.088955 
L 198.392699 131.819299 
L 205.914592 134.669143 
L 213.436484 128.171499 
L 220.958377 128.969455 
L 228.480269 124.979674 
L 236.002161 125.093667 
L 243.524054 123.383761 
L 251.045946 121.21788 
L 258.567839 119.39398 
L 266.089731 116.65813 
L 273.611623 115.74618 
L 281.133516 112.896336 
L 288.655408 109.248536 
L 296.177301 108.450579 
L 303.699193 111.414417 
L 311.221085 109.248536 
L 318.742978 104.118817 
L 326.26487 104.916773 
L 333.786763 99.103091 
L 341.308655 101.040985 
L 348.830547 100.357023 
L 356.35244 96.02526 
L 363.874332 93.28941 
L 371.396224 91.009535 
L 378.918117 86.90576 
L 386.440009 85.651828 
L 393.961902 87.703716 
L 401.483794 82.573997 
L 409.005686 84.283903 
L 416.527579 81.43406 
L 424.049471 77.672266 
L 431.571364 79.952141 
" style="fill:none;stroke:#2ca02c;stroke-linecap:square;stroke-width:1.5;"/>
   </g>
   <g id="line2d_16">
    <path clip-path="url(#p8bab405ce4)" d="M 62.998636 291.260539 
L 70.520529 272.222898 
L 78.042421 217.541462 
L 85.564314 202.042985 
L 93.086206 201.493649 
L 100.608098 189.120083 
L 108.129991 181.267282 
L 115.651883 178.790767 
L 123.173776 170.262553 
L 130.695668 160.617655 
L 138.21756 162.013509 
L 145.739453 154.421867 
L 153.261345 148.937513 
L 160.783237 145.95669 
L 168.30513 143.363104 
L 175.827022 137.581569 
L 183.348915 136.572952 
L 190.870807 133.8713 
L 198.392699 129.908878 
L 205.914592 128.909266 
L 213.436484 124.649662 
L 220.958377 120.633206 
L 228.480269 117.400229 
L 236.002161 115.031781 
L 243.524054 111.82582 
L 251.045946 110.619082 
L 258.567839 106.773731 
L 266.089731 105.242795 
L 273.611623 101.874736 
L 281.133516 98.569715 
L 288.655408 99.218111 
L 296.177301 96.237288 
L 303.699193 93.94989 
L 311.221085 89.942439 
L 318.742978 89.095922 
L 326.26487 87.709074 
L 333.786763 85.007422 
L 341.308655 82.693007 
L 348.830547 81.999583 
L 356.35244 77.51484 
L 363.874332 76.542246 
L 371.396224 74.443963 
L 378.918117 73.201203 
L 386.440009 69.653033 
L 393.961902 69.031653 
L 401.483794 65.852709 
L 409.005686 66.176907 
L 416.527579 64.754037 
L 424.049471 61.746198 
L 431.571364 59.891064 
" style="fill:none;stroke:#d62728;stroke-linecap:square;stroke-width:1.5;"/>
   </g>
   <g id="patch_3">
    <path d="M 44.57 303.64 
L 44.57 32.876829 
" style="fill:none;stroke:#000000;stroke-linecap:square;stroke-linejoin:miter;stroke-width:0.8;"/>
   </g>
   <g id="patch_4">
    <path d="M 450 303.64 
L 450 32.876829 
" style="fill:none;stroke:#000000;stroke-linecap:square;stroke-linejoin:miter;stroke-width:0.8;"/>
   </g>
   <g id="patch_5">
    <path d="M 44.57 303.64 
L 450 303.64 
" style="fill:none;stroke:#000000;stroke-linecap:square;stroke-linejoin:miter;stroke-width:0.8;"/>
   </g>
   <g id="patch_6">
    <path d="M 44.57 32.876829 
L 450 32.876829 
" style="fill:none;stroke:#000000;stroke-linecap:square;stroke-linejoin:miter;stroke-width:0.8;"/>
   </g>
   <g id="legend_1">
    <g id="patch_7">
     <path d="M 80.886563 28.478637 
L 413.683438 28.478637 
Q 415.683438 28.478637 415.683438 26.478637 
L 415.683438 12.800512 
Q 415.683438 10.800512 413.683438 10.800512 
L 80.886563 10.800512 
Q 78.886563 10.800512 78.886563 12.800512 
L 78.886563 26.478637 
Q 78.886563 28.478637 80.886563 28.478637 
z
" style="fill:#ffffff;opacity:0.8;stroke:#cccccc;stroke-linejoin:miter;"/>
    </g>
    <g id="line2d_17">
     <path d="M 82.886563 18.898949 
L 102.886563 18.898949 
" style="fill:none;stroke:#1f77b4;stroke-linecap:square;stroke-width:1.5;"/>
    </g>
    <g id="line2d_18"/>
    <g id="text_15">
     <!-- FedAvg -->
     <g transform="translate(110.886563 22.398949)scale(0.1 -0.1)">
      <defs>
       <path d="M 628 4666 
L 3309 4666 
L 3309 4134 
L 1259 4134 
L 1259 2759 
L 3109 2759 
L 3109 2228 
L 1259 2228 
L 1259 0 
L 628 0 
L 628 4666 
z
" id="DejaVuSans-46" transform="scale(0.015625)"/>
       <path d="M 191 3500 
L 800 3500 
L 1894 563 
L 2988 3500 
L 3597 3500 
L 2284 0 
L 1503 0 
L 191 3500 
z
" id="DejaVuSans-76" transform="scale(0.015625)"/>
       <path d="M 2906 1791 
Q 2906 2416 2648 2759 
Q 2391 3103 1925 3103 
Q 1463 3103 1205 2759 
Q 947 2416 947 1791 
Q 947 1169 1205 825 
Q 1463 481 1925 481 
Q 2391 481 2648 825 
Q 2906 1169 2906 1791 
z
M 3481 434 
Q 3481 -459 3084 -895 
Q 2688 -1331 1869 -1331 
Q 1566 -1331 1297 -1286 
Q 1028 -1241 775 -1147 
L 775 -588 
Q 1028 -725 1275 -790 
Q 1522 -856 1778 -856 
Q 2344 -856 2625 -561 
Q 2906 -266 2906 331 
L 2906 616 
Q 2728 306 2450 153 
Q 2172 0 1784 0 
Q 1141 0 747 490 
Q 353 981 353 1791 
Q 353 2603 747 3093 
Q 1141 3584 1784 3584 
Q 2172 3584 2450 3431 
Q 2728 3278 2906 2969 
L 2906 3500 
L 3481 3500 
L 3481 434 
z
" id="DejaVuSans-67" transform="scale(0.015625)"/>
      </defs>
      <use xlink:href="#DejaVuSans-46"/>
      <use x="52.019531" xlink:href="#DejaVuSans-65"/>
      <use x="113.542969" xlink:href="#DejaVuSans-64"/>
      <use x="177.019531" xlink:href="#DejaVuSans-41"/>
      <use x="239.552734" xlink:href="#DejaVuSans-76"/>
      <use x="298.732422" xlink:href="#DejaVuSans-67"/>
     </g>
    </g>
    <g id="line2d_19">
     <path d="M 167.11 18.898949 
L 187.11 18.898949 
" style="fill:none;stroke:#ff7f0e;stroke-linecap:square;stroke-width:1.5;"/>
    </g>
    <g id="line2d_20"/>
    <g id="text_16">
     <!-- FedMed -->
     <g transform="translate(195.11 22.398949)scale(0.1 -0.1)">
      <defs>
       <path d="M 628 4666 
L 1569 4666 
L 2759 1491 
L 3956 4666 
L 4897 4666 
L 4897 0 
L 4281 0 
L 4281 4097 
L 3078 897 
L 2444 897 
L 1241 4097 
L 1241 0 
L 628 0 
L 628 4666 
z
" id="DejaVuSans-4d" transform="scale(0.015625)"/>
      </defs>
      <use xlink:href="#DejaVuSans-46"/>
      <use x="52.019531" xlink:href="#DejaVuSans-65"/>
      <use x="113.542969" xlink:href="#DejaVuSans-64"/>
      <use x="177.019531" xlink:href="#DejaVuSans-4d"/>
      <use x="263.298828" xlink:href="#DejaVuSans-65"/>
      <use x="324.822266" xlink:href="#DejaVuSans-64"/>
     </g>
    </g>
    <g id="line2d_21">
     <path d="M 253.942813 18.898949 
L 273.942813 18.898949 
" style="fill:none;stroke:#2ca02c;stroke-linecap:square;stroke-width:1.5;"/>
    </g>
    <g id="line2d_22"/>
    <g id="text_17">
     <!-- FedProx -->
     <g transform="translate(281.942813 22.398949)scale(0.1 -0.1)">
      <defs>
       <path d="M 1259 4147 
L 1259 2394 
L 2053 2394 
Q 2494 2394 2734 2622 
Q 2975 2850 2975 3272 
Q 2975 3691 2734 3919 
Q 2494 4147 2053 4147 
L 1259 4147 
z
M 628 4666 
L 2053 4666 
Q 2838 4666 3239 4311 
Q 3641 3956 3641 3272 
Q 3641 2581 3239 2228 
Q 2838 1875 2053 1875 
L 1259 1875 
L 1259 0 
L 628 0 
L 628 4666 
z
" id="DejaVuSans-50" transform="scale(0.015625)"/>
       <path d="M 3513 3500 
L 2247 1797 
L 3578 0 
L 2900 0 
L 1881 1375 
L 863 0 
L 184 0 
L 1544 1831 
L 300 3500 
L 978 3500 
L 1906 2253 
L 2834 3500 
L 3513 3500 
z
" id="DejaVuSans-78" transform="scale(0.015625)"/>
      </defs>
      <use xlink:href="#DejaVuSans-46"/>
      <use x="52.019531" xlink:href="#DejaVuSans-65"/>
      <use x="113.542969" xlink:href="#DejaVuSans-64"/>
      <use x="177.019531" xlink:href="#DejaVuSans-50"/>
      <use x="235.572266" xlink:href="#DejaVuSans-72"/>
      <use x="274.435547" xlink:href="#DejaVuSans-6f"/>
      <use x="332.492188" xlink:href="#DejaVuSans-78"/>
     </g>
    </g>
    <g id="line2d_23">
     <path d="M 341.111563 18.898949 
L 361.111563 18.898949 
" style="fill:none;stroke:#d62728;stroke-linecap:square;stroke-width:1.5;"/>
    </g>
    <g id="line2d_24"/>
    <g id="text_18">
     <!-- qFedAvg -->
     <g transform="translate(369.111563 22.398949)scale(0.1 -0.1)">
      <defs>
       <path d="M 947 1747 
Q 947 1113 1208 752 
Q 1469 391 1925 391 
Q 2381 391 2643 752 
Q 2906 1113 2906 1747 
Q 2906 2381 2643 2742 
Q 2381 3103 1925 3103 
Q 1469 3103 1208 2742 
Q 947 2381 947 1747 
z
M 2906 525 
Q 2725 213 2448 61 
Q 2172 -91 1784 -91 
Q 1150 -91 751 415 
Q 353 922 353 1747 
Q 353 2572 751 3078 
Q 1150 3584 1784 3584 
Q 2172 3584 2448 3432 
Q 2725 3281 2906 2969 
L 2906 3500 
L 3481 3500 
L 3481 -1331 
L 2906 -1331 
L 2906 525 
z
" id="DejaVuSans-71" transform="scale(0.015625)"/>
      </defs>
      <use xlink:href="#DejaVuSans-71"/>
      <use x="63.476562" xlink:href="#DejaVuSans-46"/>
      <use x="115.496094" xlink:href="#DejaVuSans-65"/>
      <use x="177.019531" xlink:href="#DejaVuSans-64"/>
      <use x="240.496094" xlink:href="#DejaVuSans-41"/>
      <use x="303.029297" xlink:href="#DejaVuSans-76"/>
      <use x="362.208984" xlink:href="#DejaVuSans-67"/>
     </g>
    </g>
   </g>
  </g>
 </g>
 <defs>
  <clipPath id="p8bab405ce4">
   <rect height="270.763171" width="405.43" x="44.57" y="32.876829"/>
  </clipPath>
 </defs>
</svg>
