<?xml version="1.0" encoding="utf-8" standalone="no"?>
<!DOCTYPE svg PUBLIC "-//W3C//DTD SVG 1.1//EN"
  "http://www.w3.org/Graphics/SVG/1.1/DTD/svg11.dtd">
<svg height="345.6pt" version="1.1" viewBox="0 0 460.8 345.6" width="460.8pt" xmlns="http://www.w3.org/2000/svg" xmlns:xlink="http://www.w3.org/1999/xlink">
 <metadata>
  <rdf:RDF xmlns:cc="http://creativecommons.org/ns#" xmlns:dc="http://purl.org/dc/elements/1.1/" xmlns:rdf="http://www.w3.org/1999/02/22-rdf-syntax-ns#">
   <cc:Work>
    <dc:type rdf:resource="http://purl.org/dc/dcmitype/StillImage"/>
    <dc:date>2021-05-07T11:38:04.638224</dc:date>
    <dc:format>image/svg+xml</dc:format>
    <dc:creator>
     <cc:Agent>
      <dc:title>Matplotlib v3.4.1, https://matplotlib.org/</dc:title>
     </cc:Agent>
    </dc:creator>
   </cc:Work>
  </rdf:RDF>
 </metadata>
 <defs>
  <style type="text/css">*{stroke-linecap:butt;stroke-linejoin:round;}</style>
 </defs>
 <g id="figure_1">
  <g id="patch_1">
   <path d="M 0 345.6 
L 460.8 345.6 
L 460.8 0 
L 0 0 
z
" style="fill:#ffffff;"/>
  </g>
  <g id="axes_1">
   <g id="patch_2">
    <path d="M 44.57 303.64 
L 450 303.64 
L 450 48.38 
L 44.57 48.38 
z
" style="fill:#ffffff;"/>
   </g>
   <g id="PolyCollection_1">
    <path clip-path="url(#pe6e657dbac)" d="M 62.998636 267.930889 
L 62.998636 282.822373 
L 70.520529 226.156456 
L 78.042421 204.952824 
L 85.564314 191.873085 
L 93.086206 183.792531 
L 100.608098 175.127299 
L 108.129991 169.084914 
L 115.651883 164.357211 
L 123.173776 159.711753 
L 130.695668 149.532855 
L 138.21756 145.107949 
L 145.739453 138.651737 
L 153.261345 133.539132 
L 160.783237 126.27468 
L 168.30513 122.884958 
L 175.827022 116.515591 
L 183.348915 116.100873 
L 190.870807 111.999389 
L 198.392699 111.555998 
L 205.914592 111.084364 
L 213.436484 105.044335 
L 220.958377 102.703824 
L 228.480269 100.316679 
L 236.002161 99.656146 
L 243.524054 95.581481 
L 251.045946 93.536663 
L 258.567839 92.973301 
L 266.089731 90.189248 
L 273.611623 89.941111 
L 281.133516 88.577408 
L 288.655408 85.757831 
L 296.177301 83.902378 
L 303.699193 83.153589 
L 311.221085 82.113454 
L 318.742978 78.230503 
L 326.26487 78.028049 
L 333.786763 77.427327 
L 341.308655 76.217757 
L 348.830547 73.738234 
L 356.35244 74.943532 
L 363.874332 75.469266 
L 371.396224 72.419275 
L 378.918117 71.681331 
L 386.440009 69.39626 
L 393.961902 69.176698 
L 401.483794 68.090366 
L 409.005686 68.928925 
L 416.527579 68.404118 
L 424.049471 65.853018 
L 431.571364 65.610544 
L 431.571364 59.982727 
L 431.571364 59.982727 
L 424.049471 62.745477 
L 416.527579 61.776074 
L 409.005686 65.521847 
L 401.483794 65.569557 
L 393.961902 62.901528 
L 386.440009 65.84536 
L 378.918117 67.514529 
L 371.396224 67.092925 
L 363.874332 70.527889 
L 356.35244 68.364739 
L 348.830547 71.468073 
L 341.308655 71.677434 
L 333.786763 73.314917 
L 326.26487 74.92857 
L 318.742978 73.14442 
L 311.221085 74.322897 
L 303.699193 77.869682 
L 296.177301 78.860759 
L 288.655408 79.85236 
L 281.133516 81.461532 
L 273.611623 85.159258 
L 266.089731 83.962103 
L 258.567839 88.928362 
L 251.045946 91.212054 
L 243.524054 92.963307 
L 236.002161 94.424579 
L 228.480269 95.662082 
L 220.958377 98.652705 
L 213.436484 101.215453 
L 205.914592 103.558414 
L 198.392699 104.984816 
L 190.870807 108.337497 
L 183.348915 110.246459 
L 175.827022 111.887946 
L 168.30513 114.376079 
L 160.783237 119.369348 
L 153.261345 123.809449 
L 145.739453 128.345192 
L 138.21756 136.124248 
L 130.695668 142.613047 
L 123.173776 151.730845 
L 115.651883 154.36119 
L 108.129991 161.81255 
L 100.608098 165.576682 
L 93.086206 175.733637 
L 85.564314 181.255672 
L 78.042421 196.01379 
L 70.520529 210.240157 
L 62.998636 267.930889 
z
" style="fill:#1f77b4;fill-opacity:0.5;"/>
   </g>
   <g id="PolyCollection_2">
    <path clip-path="url(#pe6e657dbac)" d="M 62.998636 278.961703 
L 62.998636 292.037273 
L 70.520529 226.71659 
L 78.042421 207.60917 
L 85.564314 198.198964 
L 93.086206 185.580113 
L 100.608098 178.900125 
L 108.129991 172.587165 
L 115.651883 170.555775 
L 123.173776 168.015155 
L 130.695668 158.238811 
L 138.21756 152.539381 
L 145.739453 147.840972 
L 153.261345 143.112994 
L 160.783237 133.546056 
L 168.30513 128.224855 
L 175.827022 122.454657 
L 183.348915 122.791425 
L 190.870807 119.694767 
L 198.392699 115.731237 
L 205.914592 113.002855 
L 213.436484 109.895706 
L 220.958377 106.404056 
L 228.480269 103.793427 
L 236.002161 101.991113 
L 243.524054 100.114766 
L 251.045946 98.961631 
L 258.567839 95.673781 
L 266.089731 92.582334 
L 273.611623 92.353813 
L 281.133516 92.420483 
L 288.655408 87.331989 
L 296.177301 88.857694 
L 303.699193 88.197138 
L 311.221085 88.93774 
L 318.742978 83.76257 
L 326.26487 84.877706 
L 333.786763 82.805095 
L 341.308655 81.125189 
L 348.830547 81.211491 
L 356.35244 78.576667 
L 363.874332 79.630047 
L 371.396224 79.063424 
L 378.918117 81.780867 
L 386.440009 77.2003 
L 393.961902 76.9544 
L 401.483794 76.288758 
L 409.005686 73.670359 
L 416.527579 74.4493 
L 424.049471 72.236894 
L 431.571364 74.039141 
L 431.571364 68.003773 
L 431.571364 68.003773 
L 424.049471 67.275306 
L 416.527579 70.282498 
L 409.005686 70.112421 
L 401.483794 70.341075 
L 393.961902 72.996997 
L 386.440009 72.909266 
L 378.918117 73.706466 
L 371.396224 73.260517 
L 363.874332 74.27559 
L 356.35244 74.379952 
L 348.830547 78.071914 
L 341.308655 76.892858 
L 333.786763 77.743667 
L 326.26487 81.048824 
L 318.742978 79.316906 
L 311.221085 82.366558 
L 303.699193 80.734615 
L 296.177301 84.660979 
L 288.655408 82.390612 
L 281.133516 86.950466 
L 273.611623 87.807984 
L 266.089731 86.630446 
L 258.567839 92.871007 
L 251.045946 92.74655 
L 243.524054 95.073147 
L 236.002161 95.885683 
L 228.480269 99.302968 
L 220.958377 101.437428 
L 213.436484 104.114394 
L 205.914592 105.594165 
L 198.392699 108.718059 
L 190.870807 111.872163 
L 183.348915 111.780728 
L 175.827022 117.969773 
L 168.30513 121.215245 
L 160.783237 122.853508 
L 153.261345 134.63947 
L 145.739453 138.927162 
L 138.21756 147.831342 
L 130.695668 150.198564 
L 123.173776 157.82088 
L 115.651883 156.387448 
L 108.129991 163.846235 
L 100.608098 168.130642 
L 93.086206 180.114671 
L 85.564314 187.899703 
L 78.042421 200.000569 
L 70.520529 218.537522 
L 62.998636 278.961703 
z
" style="fill:#ff7f0e;fill-opacity:0.5;"/>
   </g>
   <g id="PolyCollection_3">
    <path clip-path="url(#pe6e657dbac)" d="M 62.998636 255.963505 
L 62.998636 285.141409 
L 70.520529 233.026538 
L 78.042421 211.13133 
L 85.564314 201.170869 
L 93.086206 195.454399 
L 100.608098 182.412162 
L 108.129991 178.029649 
L 115.651883 169.547272 
L 123.173776 166.410902 
L 130.695668 161.547602 
L 138.21756 159.961595 
L 145.739453 156.549032 
L 153.261345 151.054416 
L 160.783237 147.935015 
L 168.30513 141.365031 
L 175.827022 137.206835 
L 183.348915 135.259071 
L 190.870807 132.032738 
L 198.392699 127.138721 
L 205.914592 122.407564 
L 213.436484 116.947684 
L 220.958377 115.096455 
L 228.480269 112.927466 
L 236.002161 108.689456 
L 243.524054 109.200464 
L 251.045946 105.201197 
L 258.567839 101.768904 
L 266.089731 103.06942 
L 273.611623 102.927186 
L 281.133516 101.762575 
L 288.655408 95.377255 
L 296.177301 97.255272 
L 303.699193 95.246294 
L 311.221085 94.736573 
L 318.742978 93.420119 
L 326.26487 91.068894 
L 333.786763 91.197329 
L 341.308655 88.373605 
L 348.830547 89.875316 
L 356.35244 86.326566 
L 363.874332 86.171788 
L 371.396224 87.064643 
L 378.918117 85.555435 
L 386.440009 85.480268 
L 393.961902 80.922837 
L 401.483794 81.787469 
L 409.005686 78.781997 
L 416.527579 79.071118 
L 424.049471 77.500475 
L 431.571364 78.733654 
L 431.571364 71.059573 
L 431.571364 71.059573 
L 424.049471 71.185564 
L 416.527579 72.461974 
L 409.005686 74.490962 
L 401.483794 74.016204 
L 393.961902 74.564496 
L 386.440009 77.282868 
L 378.918117 79.896586 
L 371.396224 77.43836 
L 363.874332 81.969116 
L 356.35244 81.33983 
L 348.830547 83.327017 
L 341.308655 82.772523 
L 333.786763 83.74487 
L 326.26487 88.302055 
L 318.742978 88.797884 
L 311.221085 87.48143 
L 303.699193 84.915503 
L 296.177301 88.600632 
L 288.655408 90.004141 
L 281.133516 93.583507 
L 273.611623 95.107781 
L 266.089731 94.649207 
L 258.567839 98.005929 
L 251.045946 103.114796 
L 243.524054 101.962583 
L 236.002161 103.106269 
L 228.480269 108.042098 
L 220.958377 110.776368 
L 213.436484 111.297684 
L 205.914592 114.537134 
L 198.392699 119.770664 
L 190.870807 126.73937 
L 183.348915 129.207144 
L 175.827022 133.586166 
L 168.30513 135.438416 
L 160.783237 141.363833 
L 153.261345 143.93854 
L 145.739453 151.255664 
L 138.21756 156.067922 
L 130.695668 157.961648 
L 123.173776 160.215981 
L 115.651883 163.248227 
L 108.129991 171.215493 
L 100.608098 176.481328 
L 93.086206 188.113555 
L 85.564314 194.734317 
L 78.042421 206.759435 
L 70.520529 223.932128 
L 62.998636 255.963505 
z
" style="fill:#2ca02c;fill-opacity:0.5;"/>
   </g>
   <g id="PolyCollection_4">
    <path clip-path="url(#pe6e657dbac)" d="M 62.998636 283.485935 
L 62.998636 290.244157 
L 70.520529 228.004468 
L 78.042421 204.939708 
L 85.564314 191.91329 
L 93.086206 182.366009 
L 100.608098 175.789829 
L 108.129991 164.617339 
L 115.651883 160.0066 
L 123.173776 155.359644 
L 130.695668 148.376915 
L 138.21756 143.247355 
L 145.739453 136.506989 
L 153.261345 133.649917 
L 160.783237 128.055987 
L 168.30513 124.671206 
L 175.827022 122.213908 
L 183.348915 120.310655 
L 190.870807 119.182433 
L 198.392699 119.158299 
L 205.914592 117.523241 
L 213.436484 118.844658 
L 220.958377 118.925933 
L 228.480269 118.700816 
L 236.002161 122.11347 
L 243.524054 125.422922 
L 251.045946 123.594491 
L 258.567839 122.137534 
L 266.089731 125.251516 
L 273.611623 126.448616 
L 281.133516 129.294581 
L 288.655408 127.30331 
L 296.177301 127.232198 
L 303.699193 127.181425 
L 311.221085 126.476714 
L 318.742978 130.624675 
L 326.26487 131.560184 
L 333.786763 130.713068 
L 341.308655 127.933545 
L 348.830547 130.050071 
L 356.35244 128.169185 
L 363.874332 131.922935 
L 371.396224 130.989784 
L 378.918117 130.104176 
L 386.440009 130.473639 
L 393.961902 134.019512 
L 401.483794 135.990168 
L 409.005686 133.086606 
L 416.527579 132.518565 
L 424.049471 134.470211 
L 431.571364 131.297768 
L 431.571364 119.613625 
L 431.571364 119.613625 
L 424.049471 122.089103 
L 416.527579 119.080076 
L 409.005686 121.78583 
L 401.483794 121.956136 
L 393.961902 121.690115 
L 386.440009 120.137865 
L 378.918117 117.545918 
L 371.396224 117.197612 
L 363.874332 116.139507 
L 356.35244 115.882233 
L 348.830547 116.250519 
L 341.308655 115.655543 
L 333.786763 119.248675 
L 326.26487 118.901374 
L 318.742978 115.450997 
L 311.221085 114.95067 
L 303.699193 113.746143 
L 296.177301 110.546528 
L 288.655408 111.949873 
L 281.133516 110.470915 
L 273.611623 112.267265 
L 266.089731 108.31626 
L 258.567839 111.042884 
L 251.045946 108.848699 
L 243.524054 108.907073 
L 236.002161 109.754931 
L 228.480269 108.244397 
L 220.958377 109.981058 
L 213.436484 109.525031 
L 205.914592 110.796466 
L 198.392699 111.210654 
L 190.870807 113.310738 
L 183.348915 116.243522 
L 175.827022 119.06353 
L 168.30513 121.941769 
L 160.783237 124.767203 
L 153.261345 127.832586 
L 145.739453 132.385287 
L 138.21756 137.090709 
L 130.695668 143.631853 
L 123.173776 148.032436 
L 115.651883 155.256111 
L 108.129991 162.615967 
L 100.608098 168.437222 
L 93.086206 175.680957 
L 85.564314 186.401217 
L 78.042421 197.66586 
L 70.520529 220.546691 
L 62.998636 283.485935 
z
" style="fill:#d62728;fill-opacity:0.5;"/>
   </g>
   <g id="matplotlib.axis_1">
    <g id="xtick_1">
     <g id="line2d_1">
      <defs>
       <path d="M 0 0 
L 0 3.5 
" id="m3e5b879e33" style="stroke:#000000;stroke-width:0.8;"/>
      </defs>
      <g>
       <use style="stroke:#000000;stroke-width:0.8;" x="62.998636" xlink:href="#m3e5b879e33" y="303.64"/>
      </g>
     </g>
     <g id="text_1">
      <!-- 0 -->
      <g transform="translate(59.817386 318.238437)scale(0.1 -0.1)">
       <defs>
        <path d="M 2034 4250 
Q 1547 4250 1301 3770 
Q 1056 3291 1056 2328 
Q 1056 1369 1301 889 
Q 1547 409 2034 409 
Q 2525 409 2770 889 
Q 3016 1369 3016 2328 
Q 3016 3291 2770 3770 
Q 2525 4250 2034 4250 
z
M 2034 4750 
Q 2819 4750 3233 4129 
Q 3647 3509 3647 2328 
Q 3647 1150 3233 529 
Q 2819 -91 2034 -91 
Q 1250 -91 836 529 
Q 422 1150 422 2328 
Q 422 3509 836 4129 
Q 1250 4750 2034 4750 
z
" id="DejaVuSans-30" transform="scale(0.015625)"/>
       </defs>
       <use xlink:href="#DejaVuSans-30"/>
      </g>
     </g>
    </g>
    <g id="xtick_2">
     <g id="line2d_2">
      <g>
       <use style="stroke:#000000;stroke-width:0.8;" x="138.21756" xlink:href="#m3e5b879e33" y="303.64"/>
      </g>
     </g>
     <g id="text_2">
      <!-- 10 -->
      <g transform="translate(131.85506 318.238437)scale(0.1 -0.1)">
       <defs>
        <path d="M 794 531 
L 1825 531 
L 1825 4091 
L 703 3866 
L 703 4441 
L 1819 4666 
L 2450 4666 
L 2450 531 
L 3481 531 
L 3481 0 
L 794 0 
L 794 531 
z
" id="DejaVuSans-31" transform="scale(0.015625)"/>
       </defs>
       <use xlink:href="#DejaVuSans-31"/>
       <use x="63.623047" xlink:href="#DejaVuSans-30"/>
      </g>
     </g>
    </g>
    <g id="xtick_3">
     <g id="line2d_3">
      <g>
       <use style="stroke:#000000;stroke-width:0.8;" x="213.436484" xlink:href="#m3e5b879e33" y="303.64"/>
      </g>
     </g>
     <g id="text_3">
      <!-- 20 -->
      <g transform="translate(207.073984 318.238437)scale(0.1 -0.1)">
       <defs>
        <path d="M 1228 531 
L 3431 531 
L 3431 0 
L 469 0 
L 469 531 
Q 828 903 1448 1529 
Q 2069 2156 2228 2338 
Q 2531 2678 2651 2914 
Q 2772 3150 2772 3378 
Q 2772 3750 2511 3984 
Q 2250 4219 1831 4219 
Q 1534 4219 1204 4116 
Q 875 4013 500 3803 
L 500 4441 
Q 881 4594 1212 4672 
Q 1544 4750 1819 4750 
Q 2544 4750 2975 4387 
Q 3406 4025 3406 3419 
Q 3406 3131 3298 2873 
Q 3191 2616 2906 2266 
Q 2828 2175 2409 1742 
Q 1991 1309 1228 531 
z
" id="DejaVuSans-32" transform="scale(0.015625)"/>
       </defs>
       <use xlink:href="#DejaVuSans-32"/>
       <use x="63.623047" xlink:href="#DejaVuSans-30"/>
      </g>
     </g>
    </g>
    <g id="xtick_4">
     <g id="line2d_4">
      <g>
       <use style="stroke:#000000;stroke-width:0.8;" x="288.655408" xlink:href="#m3e5b879e33" y="303.64"/>
      </g>
     </g>
     <g id="text_4">
      <!-- 30 -->
      <g transform="translate(282.292908 318.238437)scale(0.1 -0.1)">
       <defs>
        <path d="M 2597 2516 
Q 3050 2419 3304 2112 
Q 3559 1806 3559 1356 
Q 3559 666 3084 287 
Q 2609 -91 1734 -91 
Q 1441 -91 1130 -33 
Q 819 25 488 141 
L 488 750 
Q 750 597 1062 519 
Q 1375 441 1716 441 
Q 2309 441 2620 675 
Q 2931 909 2931 1356 
Q 2931 1769 2642 2001 
Q 2353 2234 1838 2234 
L 1294 2234 
L 1294 2753 
L 1863 2753 
Q 2328 2753 2575 2939 
Q 2822 3125 2822 3475 
Q 2822 3834 2567 4026 
Q 2313 4219 1838 4219 
Q 1578 4219 1281 4162 
Q 984 4106 628 3988 
L 628 4550 
Q 988 4650 1302 4700 
Q 1616 4750 1894 4750 
Q 2613 4750 3031 4423 
Q 3450 4097 3450 3541 
Q 3450 3153 3228 2886 
Q 3006 2619 2597 2516 
z
" id="DejaVuSans-33" transform="scale(0.015625)"/>
       </defs>
       <use xlink:href="#DejaVuSans-33"/>
       <use x="63.623047" xlink:href="#DejaVuSans-30"/>
      </g>
     </g>
    </g>
    <g id="xtick_5">
     <g id="line2d_5">
      <g>
       <use style="stroke:#000000;stroke-width:0.8;" x="363.874332" xlink:href="#m3e5b879e33" y="303.64"/>
      </g>
     </g>
     <g id="text_5">
      <!-- 40 -->
      <g transform="translate(357.511832 318.238437)scale(0.1 -0.1)">
       <defs>
        <path d="M 2419 4116 
L 825 1625 
L 2419 1625 
L 2419 4116 
z
M 2253 4666 
L 3047 4666 
L 3047 1625 
L 3713 1625 
L 3713 1100 
L 3047 1100 
L 3047 0 
L 2419 0 
L 2419 1100 
L 313 1100 
L 313 1709 
L 2253 4666 
z
" id="DejaVuSans-34" transform="scale(0.015625)"/>
       </defs>
       <use xlink:href="#DejaVuSans-34"/>
       <use x="63.623047" xlink:href="#DejaVuSans-30"/>
      </g>
     </g>
    </g>
    <g id="xtick_6">
     <g id="line2d_6">
      <g>
       <use style="stroke:#000000;stroke-width:0.8;" x="439.093256" xlink:href="#m3e5b879e33" y="303.64"/>
      </g>
     </g>
     <g id="text_6">
      <!-- 50 -->
      <g transform="translate(432.730756 318.238437)scale(0.1 -0.1)">
       <defs>
        <path d="M 691 4666 
L 3169 4666 
L 3169 4134 
L 1269 4134 
L 1269 2991 
Q 1406 3038 1543 3061 
Q 1681 3084 1819 3084 
Q 2600 3084 3056 2656 
Q 3513 2228 3513 1497 
Q 3513 744 3044 326 
Q 2575 -91 1722 -91 
Q 1428 -91 1123 -41 
Q 819 9 494 109 
L 494 744 
Q 775 591 1075 516 
Q 1375 441 1709 441 
Q 2250 441 2565 725 
Q 2881 1009 2881 1497 
Q 2881 1984 2565 2268 
Q 2250 2553 1709 2553 
Q 1456 2553 1204 2497 
Q 953 2441 691 2322 
L 691 4666 
z
" id="DejaVuSans-35" transform="scale(0.015625)"/>
       </defs>
       <use xlink:href="#DejaVuSans-35"/>
       <use x="63.623047" xlink:href="#DejaVuSans-30"/>
      </g>
     </g>
    </g>
    <g id="text_7">
     <!-- Global Communication Rounds -->
     <g transform="translate(170.323281 331.916562)scale(0.1 -0.1)">
      <defs>
       <path d="M 3809 666 
L 3809 1919 
L 2778 1919 
L 2778 2438 
L 4434 2438 
L 4434 434 
Q 4069 175 3628 42 
Q 3188 -91 2688 -91 
Q 1594 -91 976 548 
Q 359 1188 359 2328 
Q 359 3472 976 4111 
Q 1594 4750 2688 4750 
Q 3144 4750 3555 4637 
Q 3966 4525 4313 4306 
L 4313 3634 
Q 3963 3931 3569 4081 
Q 3175 4231 2741 4231 
Q 1884 4231 1454 3753 
Q 1025 3275 1025 2328 
Q 1025 1384 1454 906 
Q 1884 428 2741 428 
Q 3075 428 3337 486 
Q 3600 544 3809 666 
z
" id="DejaVuSans-47" transform="scale(0.015625)"/>
       <path d="M 603 4863 
L 1178 4863 
L 1178 0 
L 603 0 
L 603 4863 
z
" id="DejaVuSans-6c" transform="scale(0.015625)"/>
       <path d="M 1959 3097 
Q 1497 3097 1228 2736 
Q 959 2375 959 1747 
Q 959 1119 1226 758 
Q 1494 397 1959 397 
Q 2419 397 2687 759 
Q 2956 1122 2956 1747 
Q 2956 2369 2687 2733 
Q 2419 3097 1959 3097 
z
M 1959 3584 
Q 2709 3584 3137 3096 
Q 3566 2609 3566 1747 
Q 3566 888 3137 398 
Q 2709 -91 1959 -91 
Q 1206 -91 779 398 
Q 353 888 353 1747 
Q 353 2609 779 3096 
Q 1206 3584 1959 3584 
z
" id="DejaVuSans-6f" transform="scale(0.015625)"/>
       <path d="M 3116 1747 
Q 3116 2381 2855 2742 
Q 2594 3103 2138 3103 
Q 1681 3103 1420 2742 
Q 1159 2381 1159 1747 
Q 1159 1113 1420 752 
Q 1681 391 2138 391 
Q 2594 391 2855 752 
Q 3116 1113 3116 1747 
z
M 1159 2969 
Q 1341 3281 1617 3432 
Q 1894 3584 2278 3584 
Q 2916 3584 3314 3078 
Q 3713 2572 3713 1747 
Q 3713 922 3314 415 
Q 2916 -91 2278 -91 
Q 1894 -91 1617 61 
Q 1341 213 1159 525 
L 1159 0 
L 581 0 
L 581 4863 
L 1159 4863 
L 1159 2969 
z
" id="DejaVuSans-62" transform="scale(0.015625)"/>
       <path d="M 2194 1759 
Q 1497 1759 1228 1600 
Q 959 1441 959 1056 
Q 959 750 1161 570 
Q 1363 391 1709 391 
Q 2188 391 2477 730 
Q 2766 1069 2766 1631 
L 2766 1759 
L 2194 1759 
z
M 3341 1997 
L 3341 0 
L 2766 0 
L 2766 531 
Q 2569 213 2275 61 
Q 1981 -91 1556 -91 
Q 1019 -91 701 211 
Q 384 513 384 1019 
Q 384 1609 779 1909 
Q 1175 2209 1959 2209 
L 2766 2209 
L 2766 2266 
Q 2766 2663 2505 2880 
Q 2244 3097 1772 3097 
Q 1472 3097 1187 3025 
Q 903 2953 641 2809 
L 641 3341 
Q 956 3463 1253 3523 
Q 1550 3584 1831 3584 
Q 2591 3584 2966 3190 
Q 3341 2797 3341 1997 
z
" id="DejaVuSans-61" transform="scale(0.015625)"/>
       <path id="DejaVuSans-20" transform="scale(0.015625)"/>
       <path d="M 4122 4306 
L 4122 3641 
Q 3803 3938 3442 4084 
Q 3081 4231 2675 4231 
Q 1875 4231 1450 3742 
Q 1025 3253 1025 2328 
Q 1025 1406 1450 917 
Q 1875 428 2675 428 
Q 3081 428 3442 575 
Q 3803 722 4122 1019 
L 4122 359 
Q 3791 134 3420 21 
Q 3050 -91 2638 -91 
Q 1578 -91 968 557 
Q 359 1206 359 2328 
Q 359 3453 968 4101 
Q 1578 4750 2638 4750 
Q 3056 4750 3426 4639 
Q 3797 4528 4122 4306 
z
" id="DejaVuSans-43" transform="scale(0.015625)"/>
       <path d="M 3328 2828 
Q 3544 3216 3844 3400 
Q 4144 3584 4550 3584 
Q 5097 3584 5394 3201 
Q 5691 2819 5691 2113 
L 5691 0 
L 5113 0 
L 5113 2094 
Q 5113 2597 4934 2840 
Q 4756 3084 4391 3084 
Q 3944 3084 3684 2787 
Q 3425 2491 3425 1978 
L 3425 0 
L 2847 0 
L 2847 2094 
Q 2847 2600 2669 2842 
Q 2491 3084 2119 3084 
Q 1678 3084 1418 2786 
Q 1159 2488 1159 1978 
L 1159 0 
L 581 0 
L 581 3500 
L 1159 3500 
L 1159 2956 
Q 1356 3278 1631 3431 
Q 1906 3584 2284 3584 
Q 2666 3584 2933 3390 
Q 3200 3197 3328 2828 
z
" id="DejaVuSans-6d" transform="scale(0.015625)"/>
       <path d="M 544 1381 
L 544 3500 
L 1119 3500 
L 1119 1403 
Q 1119 906 1312 657 
Q 1506 409 1894 409 
Q 2359 409 2629 706 
Q 2900 1003 2900 1516 
L 2900 3500 
L 3475 3500 
L 3475 0 
L 2900 0 
L 2900 538 
Q 2691 219 2414 64 
Q 2138 -91 1772 -91 
Q 1169 -91 856 284 
Q 544 659 544 1381 
z
M 1991 3584 
L 1991 3584 
z
" id="DejaVuSans-75" transform="scale(0.015625)"/>
       <path d="M 3513 2113 
L 3513 0 
L 2938 0 
L 2938 2094 
Q 2938 2591 2744 2837 
Q 2550 3084 2163 3084 
Q 1697 3084 1428 2787 
Q 1159 2491 1159 1978 
L 1159 0 
L 581 0 
L 581 3500 
L 1159 3500 
L 1159 2956 
Q 1366 3272 1645 3428 
Q 1925 3584 2291 3584 
Q 2894 3584 3203 3211 
Q 3513 2838 3513 2113 
z
" id="DejaVuSans-6e" transform="scale(0.015625)"/>
       <path d="M 603 3500 
L 1178 3500 
L 1178 0 
L 603 0 
L 603 3500 
z
M 603 4863 
L 1178 4863 
L 1178 4134 
L 603 4134 
L 603 4863 
z
" id="DejaVuSans-69" transform="scale(0.015625)"/>
       <path d="M 3122 3366 
L 3122 2828 
Q 2878 2963 2633 3030 
Q 2388 3097 2138 3097 
Q 1578 3097 1268 2742 
Q 959 2388 959 1747 
Q 959 1106 1268 751 
Q 1578 397 2138 397 
Q 2388 397 2633 464 
Q 2878 531 3122 666 
L 3122 134 
Q 2881 22 2623 -34 
Q 2366 -91 2075 -91 
Q 1284 -91 818 406 
Q 353 903 353 1747 
Q 353 2603 823 3093 
Q 1294 3584 2113 3584 
Q 2378 3584 2631 3529 
Q 2884 3475 3122 3366 
z
" id="DejaVuSans-63" transform="scale(0.015625)"/>
       <path d="M 1172 4494 
L 1172 3500 
L 2356 3500 
L 2356 3053 
L 1172 3053 
L 1172 1153 
Q 1172 725 1289 603 
Q 1406 481 1766 481 
L 2356 481 
L 2356 0 
L 1766 0 
Q 1100 0 847 248 
Q 594 497 594 1153 
L 594 3053 
L 172 3053 
L 172 3500 
L 594 3500 
L 594 4494 
L 1172 4494 
z
" id="DejaVuSans-74" transform="scale(0.015625)"/>
       <path d="M 2841 2188 
Q 3044 2119 3236 1894 
Q 3428 1669 3622 1275 
L 4263 0 
L 3584 0 
L 2988 1197 
Q 2756 1666 2539 1819 
Q 2322 1972 1947 1972 
L 1259 1972 
L 1259 0 
L 628 0 
L 628 4666 
L 2053 4666 
Q 2853 4666 3247 4331 
Q 3641 3997 3641 3322 
Q 3641 2881 3436 2590 
Q 3231 2300 2841 2188 
z
M 1259 4147 
L 1259 2491 
L 2053 2491 
Q 2509 2491 2742 2702 
Q 2975 2913 2975 3322 
Q 2975 3731 2742 3939 
Q 2509 4147 2053 4147 
L 1259 4147 
z
" id="DejaVuSans-52" transform="scale(0.015625)"/>
       <path d="M 2906 2969 
L 2906 4863 
L 3481 4863 
L 3481 0 
L 2906 0 
L 2906 525 
Q 2725 213 2448 61 
Q 2172 -91 1784 -91 
Q 1150 -91 751 415 
Q 353 922 353 1747 
Q 353 2572 751 3078 
Q 1150 3584 1784 3584 
Q 2172 3584 2448 3432 
Q 2725 3281 2906 2969 
z
M 947 1747 
Q 947 1113 1208 752 
Q 1469 391 1925 391 
Q 2381 391 2643 752 
Q 2906 1113 2906 1747 
Q 2906 2381 2643 2742 
Q 2381 3103 1925 3103 
Q 1469 3103 1208 2742 
Q 947 2381 947 1747 
z
" id="DejaVuSans-64" transform="scale(0.015625)"/>
       <path d="M 2834 3397 
L 2834 2853 
Q 2591 2978 2328 3040 
Q 2066 3103 1784 3103 
Q 1356 3103 1142 2972 
Q 928 2841 928 2578 
Q 928 2378 1081 2264 
Q 1234 2150 1697 2047 
L 1894 2003 
Q 2506 1872 2764 1633 
Q 3022 1394 3022 966 
Q 3022 478 2636 193 
Q 2250 -91 1575 -91 
Q 1294 -91 989 -36 
Q 684 19 347 128 
L 347 722 
Q 666 556 975 473 
Q 1284 391 1588 391 
Q 1994 391 2212 530 
Q 2431 669 2431 922 
Q 2431 1156 2273 1281 
Q 2116 1406 1581 1522 
L 1381 1569 
Q 847 1681 609 1914 
Q 372 2147 372 2553 
Q 372 3047 722 3315 
Q 1072 3584 1716 3584 
Q 2034 3584 2315 3537 
Q 2597 3491 2834 3397 
z
" id="DejaVuSans-73" transform="scale(0.015625)"/>
      </defs>
      <use xlink:href="#DejaVuSans-47"/>
      <use x="77.490234" xlink:href="#DejaVuSans-6c"/>
      <use x="105.273438" xlink:href="#DejaVuSans-6f"/>
      <use x="166.455078" xlink:href="#DejaVuSans-62"/>
      <use x="229.931641" xlink:href="#DejaVuSans-61"/>
      <use x="291.210938" xlink:href="#DejaVuSans-6c"/>
      <use x="318.994141" xlink:href="#DejaVuSans-20"/>
      <use x="350.78125" xlink:href="#DejaVuSans-43"/>
      <use x="420.605469" xlink:href="#DejaVuSans-6f"/>
      <use x="481.787109" xlink:href="#DejaVuSans-6d"/>
      <use x="579.199219" xlink:href="#DejaVuSans-6d"/>
      <use x="676.611328" xlink:href="#DejaVuSans-75"/>
      <use x="739.990234" xlink:href="#DejaVuSans-6e"/>
      <use x="803.369141" xlink:href="#DejaVuSans-69"/>
      <use x="831.152344" xlink:href="#DejaVuSans-63"/>
      <use x="886.132812" xlink:href="#DejaVuSans-61"/>
      <use x="947.412109" xlink:href="#DejaVuSans-74"/>
      <use x="986.621094" xlink:href="#DejaVuSans-69"/>
      <use x="1014.404297" xlink:href="#DejaVuSans-6f"/>
      <use x="1075.585938" xlink:href="#DejaVuSans-6e"/>
      <use x="1138.964844" xlink:href="#DejaVuSans-20"/>
      <use x="1170.751953" xlink:href="#DejaVuSans-52"/>
      <use x="1235.734375" xlink:href="#DejaVuSans-6f"/>
      <use x="1296.916016" xlink:href="#DejaVuSans-75"/>
      <use x="1360.294922" xlink:href="#DejaVuSans-6e"/>
      <use x="1423.673828" xlink:href="#DejaVuSans-64"/>
      <use x="1487.150391" xlink:href="#DejaVuSans-73"/>
     </g>
    </g>
   </g>
   <g id="matplotlib.axis_2">
    <g id="ytick_1">
     <g id="line2d_7">
      <defs>
       <path d="M 0 0 
L -3.5 0 
" id="m69dffa0d8f" style="stroke:#000000;stroke-width:0.8;"/>
      </defs>
      <g>
       <use style="stroke:#000000;stroke-width:0.8;" x="44.57" xlink:href="#m69dffa0d8f" y="289.532814"/>
      </g>
     </g>
     <g id="text_8">
      <!-- 10 -->
      <g transform="translate(24.845 293.332033)scale(0.1 -0.1)">
       <use xlink:href="#DejaVuSans-31"/>
       <use x="63.623047" xlink:href="#DejaVuSans-30"/>
      </g>
     </g>
    </g>
    <g id="ytick_2">
     <g id="line2d_8">
      <g>
       <use style="stroke:#000000;stroke-width:0.8;" x="44.57" xlink:href="#m69dffa0d8f" y="258.29431"/>
      </g>
     </g>
     <g id="text_9">
      <!-- 20 -->
      <g transform="translate(24.845 262.093529)scale(0.1 -0.1)">
       <use xlink:href="#DejaVuSans-32"/>
       <use x="63.623047" xlink:href="#DejaVuSans-30"/>
      </g>
     </g>
    </g>
    <g id="ytick_3">
     <g id="line2d_9">
      <g>
       <use style="stroke:#000000;stroke-width:0.8;" x="44.57" xlink:href="#m69dffa0d8f" y="227.055806"/>
      </g>
     </g>
     <g id="text_10">
      <!-- 30 -->
      <g transform="translate(24.845 230.855025)scale(0.1 -0.1)">
       <use xlink:href="#DejaVuSans-33"/>
       <use x="63.623047" xlink:href="#DejaVuSans-30"/>
      </g>
     </g>
    </g>
    <g id="ytick_4">
     <g id="line2d_10">
      <g>
       <use style="stroke:#000000;stroke-width:0.8;" x="44.57" xlink:href="#m69dffa0d8f" y="195.817303"/>
      </g>
     </g>
     <g id="text_11">
      <!-- 40 -->
      <g transform="translate(24.845 199.616521)scale(0.1 -0.1)">
       <use xlink:href="#DejaVuSans-34"/>
       <use x="63.623047" xlink:href="#DejaVuSans-30"/>
      </g>
     </g>
    </g>
    <g id="ytick_5">
     <g id="line2d_11">
      <g>
       <use style="stroke:#000000;stroke-width:0.8;" x="44.57" xlink:href="#m69dffa0d8f" y="164.578799"/>
      </g>
     </g>
     <g id="text_12">
      <!-- 50 -->
      <g transform="translate(24.845 168.378017)scale(0.1 -0.1)">
       <use xlink:href="#DejaVuSans-35"/>
       <use x="63.623047" xlink:href="#DejaVuSans-30"/>
      </g>
     </g>
    </g>
    <g id="ytick_6">
     <g id="line2d_12">
      <g>
       <use style="stroke:#000000;stroke-width:0.8;" x="44.57" xlink:href="#m69dffa0d8f" y="133.340295"/>
      </g>
     </g>
     <g id="text_13">
      <!-- 60 -->
      <g transform="translate(24.845 137.139514)scale(0.1 -0.1)">
       <defs>
        <path d="M 2113 2584 
Q 1688 2584 1439 2293 
Q 1191 2003 1191 1497 
Q 1191 994 1439 701 
Q 1688 409 2113 409 
Q 2538 409 2786 701 
Q 3034 994 3034 1497 
Q 3034 2003 2786 2293 
Q 2538 2584 2113 2584 
z
M 3366 4563 
L 3366 3988 
Q 3128 4100 2886 4159 
Q 2644 4219 2406 4219 
Q 1781 4219 1451 3797 
Q 1122 3375 1075 2522 
Q 1259 2794 1537 2939 
Q 1816 3084 2150 3084 
Q 2853 3084 3261 2657 
Q 3669 2231 3669 1497 
Q 3669 778 3244 343 
Q 2819 -91 2113 -91 
Q 1303 -91 875 529 
Q 447 1150 447 2328 
Q 447 3434 972 4092 
Q 1497 4750 2381 4750 
Q 2619 4750 2861 4703 
Q 3103 4656 3366 4563 
z
" id="DejaVuSans-36" transform="scale(0.015625)"/>
       </defs>
       <use xlink:href="#DejaVuSans-36"/>
       <use x="63.623047" xlink:href="#DejaVuSans-30"/>
      </g>
     </g>
    </g>
    <g id="ytick_7">
     <g id="line2d_13">
      <g>
       <use style="stroke:#000000;stroke-width:0.8;" x="44.57" xlink:href="#m69dffa0d8f" y="102.101791"/>
      </g>
     </g>
     <g id="text_14">
      <!-- 70 -->
      <g transform="translate(24.845 105.90101)scale(0.1 -0.1)">
       <defs>
        <path d="M 525 4666 
L 3525 4666 
L 3525 4397 
L 1831 0 
L 1172 0 
L 2766 4134 
L 525 4134 
L 525 4666 
z
" id="DejaVuSans-37" transform="scale(0.015625)"/>
       </defs>
       <use xlink:href="#DejaVuSans-37"/>
       <use x="63.623047" xlink:href="#DejaVuSans-30"/>
      </g>
     </g>
    </g>
    <g id="ytick_8">
     <g id="line2d_14">
      <g>
       <use style="stroke:#000000;stroke-width:0.8;" x="44.57" xlink:href="#m69dffa0d8f" y="70.863287"/>
      </g>
     </g>
     <g id="text_15">
      <!-- 80 -->
      <g transform="translate(24.845 74.662506)scale(0.1 -0.1)">
       <defs>
        <path d="M 2034 2216 
Q 1584 2216 1326 1975 
Q 1069 1734 1069 1313 
Q 1069 891 1326 650 
Q 1584 409 2034 409 
Q 2484 409 2743 651 
Q 3003 894 3003 1313 
Q 3003 1734 2745 1975 
Q 2488 2216 2034 2216 
z
M 1403 2484 
Q 997 2584 770 2862 
Q 544 3141 544 3541 
Q 544 4100 942 4425 
Q 1341 4750 2034 4750 
Q 2731 4750 3128 4425 
Q 3525 4100 3525 3541 
Q 3525 3141 3298 2862 
Q 3072 2584 2669 2484 
Q 3125 2378 3379 2068 
Q 3634 1759 3634 1313 
Q 3634 634 3220 271 
Q 2806 -91 2034 -91 
Q 1263 -91 848 271 
Q 434 634 434 1313 
Q 434 1759 690 2068 
Q 947 2378 1403 2484 
z
M 1172 3481 
Q 1172 3119 1398 2916 
Q 1625 2713 2034 2713 
Q 2441 2713 2670 2916 
Q 2900 3119 2900 3481 
Q 2900 3844 2670 4047 
Q 2441 4250 2034 4250 
Q 1625 4250 1398 4047 
Q 1172 3844 1172 3481 
z
" id="DejaVuSans-38" transform="scale(0.015625)"/>
       </defs>
       <use xlink:href="#DejaVuSans-38"/>
       <use x="63.623047" xlink:href="#DejaVuSans-30"/>
      </g>
     </g>
    </g>
    <g id="text_16">
     <!-- Test Accuracy -->
     <g transform="translate(18.765313 210.2725)rotate(-90)scale(0.1 -0.1)">
      <defs>
       <path d="M -19 4666 
L 3928 4666 
L 3928 4134 
L 2272 4134 
L 2272 0 
L 1638 0 
L 1638 4134 
L -19 4134 
L -19 4666 
z
" id="DejaVuSans-54" transform="scale(0.015625)"/>
       <path d="M 3597 1894 
L 3597 1613 
L 953 1613 
Q 991 1019 1311 708 
Q 1631 397 2203 397 
Q 2534 397 2845 478 
Q 3156 559 3463 722 
L 3463 178 
Q 3153 47 2828 -22 
Q 2503 -91 2169 -91 
Q 1331 -91 842 396 
Q 353 884 353 1716 
Q 353 2575 817 3079 
Q 1281 3584 2069 3584 
Q 2775 3584 3186 3129 
Q 3597 2675 3597 1894 
z
M 3022 2063 
Q 3016 2534 2758 2815 
Q 2500 3097 2075 3097 
Q 1594 3097 1305 2825 
Q 1016 2553 972 2059 
L 3022 2063 
z
" id="DejaVuSans-65" transform="scale(0.015625)"/>
       <path d="M 2188 4044 
L 1331 1722 
L 3047 1722 
L 2188 4044 
z
M 1831 4666 
L 2547 4666 
L 4325 0 
L 3669 0 
L 3244 1197 
L 1141 1197 
L 716 0 
L 50 0 
L 1831 4666 
z
" id="DejaVuSans-41" transform="scale(0.015625)"/>
       <path d="M 2631 2963 
Q 2534 3019 2420 3045 
Q 2306 3072 2169 3072 
Q 1681 3072 1420 2755 
Q 1159 2438 1159 1844 
L 1159 0 
L 581 0 
L 581 3500 
L 1159 3500 
L 1159 2956 
Q 1341 3275 1631 3429 
Q 1922 3584 2338 3584 
Q 2397 3584 2469 3576 
Q 2541 3569 2628 3553 
L 2631 2963 
z
" id="DejaVuSans-72" transform="scale(0.015625)"/>
       <path d="M 2059 -325 
Q 1816 -950 1584 -1140 
Q 1353 -1331 966 -1331 
L 506 -1331 
L 506 -850 
L 844 -850 
Q 1081 -850 1212 -737 
Q 1344 -625 1503 -206 
L 1606 56 
L 191 3500 
L 800 3500 
L 1894 763 
L 2988 3500 
L 3597 3500 
L 2059 -325 
z
" id="DejaVuSans-79" transform="scale(0.015625)"/>
      </defs>
      <use xlink:href="#DejaVuSans-54"/>
      <use x="44.083984" xlink:href="#DejaVuSans-65"/>
      <use x="105.607422" xlink:href="#DejaVuSans-73"/>
      <use x="157.707031" xlink:href="#DejaVuSans-74"/>
      <use x="196.916016" xlink:href="#DejaVuSans-20"/>
      <use x="228.703125" xlink:href="#DejaVuSans-41"/>
      <use x="295.361328" xlink:href="#DejaVuSans-63"/>
      <use x="350.341797" xlink:href="#DejaVuSans-63"/>
      <use x="405.322266" xlink:href="#DejaVuSans-75"/>
      <use x="468.701172" xlink:href="#DejaVuSans-72"/>
      <use x="509.814453" xlink:href="#DejaVuSans-61"/>
      <use x="571.09375" xlink:href="#DejaVuSans-63"/>
      <use x="626.074219" xlink:href="#DejaVuSans-79"/>
     </g>
    </g>
   </g>
   <g id="line2d_15">
    <path clip-path="url(#pe6e657dbac)" d="M 62.998636 275.376631 
L 70.520529 218.198306 
L 78.042421 200.483307 
L 85.564314 186.564379 
L 93.086206 179.763084 
L 100.608098 170.351991 
L 108.129991 165.448732 
L 115.651883 159.359201 
L 123.173776 155.721299 
L 130.695668 146.072951 
L 138.21756 140.616098 
L 145.739453 133.498465 
L 153.261345 128.674291 
L 160.783237 122.822014 
L 168.30513 118.630519 
L 175.827022 114.201769 
L 183.348915 113.173666 
L 190.870807 110.168443 
L 198.392699 108.270407 
L 205.914592 107.321389 
L 213.436484 103.129894 
L 220.958377 100.678264 
L 228.480269 97.989381 
L 236.002161 97.040363 
L 243.524054 94.272394 
L 251.045946 92.374358 
L 258.567839 90.950832 
L 266.089731 87.075675 
L 273.611623 87.550184 
L 281.133516 85.01947 
L 288.655408 82.805095 
L 296.177301 81.381568 
L 303.699193 80.511635 
L 311.221085 78.218176 
L 318.742978 75.687461 
L 326.26487 76.47831 
L 333.786763 75.371122 
L 341.308655 73.947595 
L 348.830547 72.603153 
L 356.35244 71.654136 
L 363.874332 72.998578 
L 371.396224 69.7561 
L 378.918117 69.59793 
L 386.440009 67.62081 
L 393.961902 66.039113 
L 401.483794 66.829962 
L 409.005686 67.225386 
L 416.527579 65.090096 
L 424.049471 64.299247 
L 431.571364 62.796636 
" style="fill:none;stroke:#1f77b4;stroke-linecap:square;stroke-width:1.5;"/>
   </g>
   <g id="line2d_16">
    <path clip-path="url(#pe6e657dbac)" d="M 62.998636 285.499488 
L 70.520529 222.627056 
L 78.042421 203.804869 
L 85.564314 193.049334 
L 93.086206 182.847392 
L 100.608098 173.515383 
L 108.129991 168.2167 
L 115.651883 163.471611 
L 123.173776 162.918018 
L 130.695668 154.218687 
L 138.21756 150.185362 
L 145.739453 143.384067 
L 153.261345 138.876232 
L 160.783237 128.199782 
L 168.30513 124.72005 
L 175.827022 120.212215 
L 183.348915 117.286077 
L 190.870807 115.783465 
L 198.392699 112.224648 
L 205.914592 109.29851 
L 213.436484 107.00505 
L 220.958377 103.920742 
L 228.480269 101.548197 
L 236.002161 98.938398 
L 243.524054 97.593956 
L 251.045946 95.85409 
L 258.567839 94.272394 
L 266.089731 89.60639 
L 273.611623 90.080899 
L 281.133516 89.685475 
L 288.655408 84.861301 
L 296.177301 86.759336 
L 303.699193 84.465876 
L 311.221085 85.652149 
L 318.742978 81.539738 
L 326.26487 82.963265 
L 333.786763 80.274381 
L 341.308655 79.009024 
L 348.830547 79.641702 
L 356.35244 76.47831 
L 363.874332 76.952819 
L 371.396224 76.16197 
L 378.918117 77.743667 
L 386.440009 75.054783 
L 393.961902 74.975698 
L 401.483794 73.314917 
L 409.005686 71.89139 
L 416.527579 72.365899 
L 424.049471 69.7561 
L 431.571364 71.021457 
" style="fill:none;stroke:#ff7f0e;stroke-linecap:square;stroke-width:1.5;"/>
   </g>
   <g id="line2d_17">
    <path clip-path="url(#pe6e657dbac)" d="M 62.998636 270.552457 
L 70.520529 228.479333 
L 78.042421 208.945383 
L 85.564314 197.952593 
L 93.086206 191.783977 
L 100.608098 179.446745 
L 108.129991 174.622571 
L 115.651883 166.39775 
L 123.173776 163.313442 
L 130.695668 159.754625 
L 138.21756 158.014759 
L 145.739453 153.902348 
L 153.261345 147.496478 
L 160.783237 144.649424 
L 168.30513 138.401723 
L 175.827022 135.3965 
L 183.348915 132.233108 
L 190.870807 129.386054 
L 198.392699 123.454693 
L 205.914592 118.472349 
L 213.436484 114.122684 
L 220.958377 112.936412 
L 228.480269 110.484782 
L 236.002161 105.897863 
L 243.524054 105.581523 
L 251.045946 104.157997 
L 258.567839 99.887416 
L 266.089731 98.859314 
L 273.611623 99.017483 
L 281.133516 97.673041 
L 288.655408 92.690698 
L 296.177301 92.927952 
L 303.699193 90.080899 
L 311.221085 91.109001 
L 318.742978 91.109001 
L 326.26487 89.685475 
L 333.786763 87.4711 
L 341.308655 85.573064 
L 348.830547 86.601167 
L 356.35244 83.833198 
L 363.874332 84.070452 
L 371.396224 82.251501 
L 378.918117 82.72601 
L 386.440009 81.381568 
L 393.961902 77.743667 
L 401.483794 77.901836 
L 409.005686 76.636479 
L 416.527579 75.766546 
L 424.049471 74.34302 
L 431.571364 74.896613 
" style="fill:none;stroke:#2ca02c;stroke-linecap:square;stroke-width:1.5;"/>
   </g>
   <g id="line2d_18">
    <path clip-path="url(#pe6e657dbac)" d="M 62.998636 286.865046 
L 70.520529 224.275579 
L 78.042421 201.302784 
L 85.564314 189.157254 
L 93.086206 179.023483 
L 100.608098 172.113526 
L 108.129991 163.616653 
L 115.651883 157.631356 
L 123.173776 151.69604 
L 130.695668 146.004384 
L 138.21756 140.169032 
L 145.739453 134.446138 
L 153.261345 130.741251 
L 160.783237 126.411595 
L 168.30513 123.306488 
L 175.827022 120.638719 
L 183.348915 118.277088 
L 190.870807 116.246586 
L 198.392699 115.184477 
L 205.914592 114.159854 
L 213.436484 114.184844 
L 220.958377 114.453496 
L 228.480269 113.472607 
L 236.002161 115.934201 
L 243.524054 117.164998 
L 251.045946 116.221595 
L 258.567839 116.590209 
L 266.089731 116.783888 
L 273.611623 119.357941 
L 281.133516 119.882748 
L 288.655408 119.626592 
L 296.177301 118.889363 
L 303.699193 120.463784 
L 311.221085 120.713692 
L 318.742978 123.037836 
L 326.26487 125.230779 
L 333.786763 124.980871 
L 341.308655 121.794544 
L 348.830547 123.150295 
L 356.35244 122.025709 
L 363.874332 124.031221 
L 371.396224 124.093698 
L 378.918117 123.825047 
L 386.440009 125.305752 
L 393.961902 127.854814 
L 401.483794 128.973152 
L 409.005686 127.436218 
L 416.527579 125.79932 
L 424.049471 128.279657 
L 431.571364 125.455697 
" style="fill:none;stroke:#d62728;stroke-linecap:square;stroke-width:1.5;"/>
   </g>
   <g id="patch_3">
    <path d="M 44.57 303.64 
L 44.57 48.38 
" style="fill:none;stroke:#000000;stroke-linecap:square;stroke-linejoin:miter;stroke-width:0.8;"/>
   </g>
   <g id="patch_4">
    <path d="M 450 303.64 
L 450 48.38 
" style="fill:none;stroke:#000000;stroke-linecap:square;stroke-linejoin:miter;stroke-width:0.8;"/>
   </g>
   <g id="patch_5">
    <path d="M 44.57 303.64 
L 450 303.64 
" style="fill:none;stroke:#000000;stroke-linecap:square;stroke-linejoin:miter;stroke-width:0.8;"/>
   </g>
   <g id="patch_6">
    <path d="M 44.57 48.38 
L 450 48.38 
" style="fill:none;stroke:#000000;stroke-linecap:square;stroke-linejoin:miter;stroke-width:0.8;"/>
   </g>
   <g id="text_17">
    <!-- Local Rounds 05 -->
    <g transform="translate(198.174063 20.88)scale(0.12 -0.12)">
     <defs>
      <path d="M 628 4666 
L 1259 4666 
L 1259 531 
L 3531 531 
L 3531 0 
L 628 0 
L 628 4666 
z
" id="DejaVuSans-4c" transform="scale(0.015625)"/>
     </defs>
     <use xlink:href="#DejaVuSans-4c"/>
     <use x="53.962891" xlink:href="#DejaVuSans-6f"/>
     <use x="115.144531" xlink:href="#DejaVuSans-63"/>
     <use x="170.125" xlink:href="#DejaVuSans-61"/>
     <use x="231.404297" xlink:href="#DejaVuSans-6c"/>
     <use x="259.1875" xlink:href="#DejaVuSans-20"/>
     <use x="290.974609" xlink:href="#DejaVuSans-52"/>
     <use x="355.957031" xlink:href="#DejaVuSans-6f"/>
     <use x="417.138672" xlink:href="#DejaVuSans-75"/>
     <use x="480.517578" xlink:href="#DejaVuSans-6e"/>
     <use x="543.896484" xlink:href="#DejaVuSans-64"/>
     <use x="607.373047" xlink:href="#DejaVuSans-73"/>
     <use x="659.472656" xlink:href="#DejaVuSans-20"/>
     <use x="691.259766" xlink:href="#DejaVuSans-30"/>
     <use x="754.882812" xlink:href="#DejaVuSans-35"/>
    </g>
   </g>
   <g id="legend_1">
    <g id="patch_7">
     <path d="M 80.886563 45.532125 
L 413.683438 45.532125 
Q 415.683438 45.532125 415.683438 43.532125 
L 415.683438 29.854 
Q 415.683438 27.854 413.683438 27.854 
L 80.886563 27.854 
Q 78.886563 27.854 78.886563 29.854 
L 78.886563 43.532125 
Q 78.886563 45.532125 80.886563 45.532125 
z
" style="fill:#ffffff;opacity:0.8;stroke:#cccccc;stroke-linejoin:miter;"/>
    </g>
    <g id="line2d_19">
     <path d="M 82.886563 35.952438 
L 102.886563 35.952438 
" style="fill:none;stroke:#1f77b4;stroke-linecap:square;stroke-width:1.5;"/>
    </g>
    <g id="line2d_20"/>
    <g id="text_18">
     <!-- FedAvg -->
     <g transform="translate(110.886563 39.452438)scale(0.1 -0.1)">
      <defs>
       <path d="M 628 4666 
L 3309 4666 
L 3309 4134 
L 1259 4134 
L 1259 2759 
L 3109 2759 
L 3109 2228 
L 1259 2228 
L 1259 0 
L 628 0 
L 628 4666 
z
" id="DejaVuSans-46" transform="scale(0.015625)"/>
       <path d="M 191 3500 
L 800 3500 
L 1894 563 
L 2988 3500 
L 3597 3500 
L 2284 0 
L 1503 0 
L 191 3500 
z
" id="DejaVuSans-76" transform="scale(0.015625)"/>
       <path d="M 2906 1791 
Q 2906 2416 2648 2759 
Q 2391 3103 1925 3103 
Q 1463 3103 1205 2759 
Q 947 2416 947 1791 
Q 947 1169 1205 825 
Q 1463 481 1925 481 
Q 2391 481 2648 825 
Q 2906 1169 2906 1791 
z
M 3481 434 
Q 3481 -459 3084 -895 
Q 2688 -1331 1869 -1331 
Q 1566 -1331 1297 -1286 
Q 1028 -1241 775 -1147 
L 775 -588 
Q 1028 -725 1275 -790 
Q 1522 -856 1778 -856 
Q 2344 -856 2625 -561 
Q 2906 -266 2906 331 
L 2906 616 
Q 2728 306 2450 153 
Q 2172 0 1784 0 
Q 1141 0 747 490 
Q 353 981 353 1791 
Q 353 2603 747 3093 
Q 1141 3584 1784 3584 
Q 2172 3584 2450 3431 
Q 2728 3278 2906 2969 
L 2906 3500 
L 3481 3500 
L 3481 434 
z
" id="DejaVuSans-67" transform="scale(0.015625)"/>
      </defs>
      <use xlink:href="#DejaVuSans-46"/>
      <use x="52.019531" xlink:href="#DejaVuSans-65"/>
      <use x="113.542969" xlink:href="#DejaVuSans-64"/>
      <use x="177.019531" xlink:href="#DejaVuSans-41"/>
      <use x="239.552734" xlink:href="#DejaVuSans-76"/>
      <use x="298.732422" xlink:href="#DejaVuSans-67"/>
     </g>
    </g>
    <g id="line2d_21">
     <path d="M 167.11 35.952438 
L 187.11 35.952438 
" style="fill:none;stroke:#ff7f0e;stroke-linecap:square;stroke-width:1.5;"/>
    </g>
    <g id="line2d_22"/>
    <g id="text_19">
     <!-- FedMed -->
     <g transform="translate(195.11 39.452438)scale(0.1 -0.1)">
      <defs>
       <path d="M 628 4666 
L 1569 4666 
L 2759 1491 
L 3956 4666 
L 4897 4666 
L 4897 0 
L 4281 0 
L 4281 4097 
L 3078 897 
L 2444 897 
L 1241 4097 
L 1241 0 
L 628 0 
L 628 4666 
z
" id="DejaVuSans-4d" transform="scale(0.015625)"/>
      </defs>
      <use xlink:href="#DejaVuSans-46"/>
      <use x="52.019531" xlink:href="#DejaVuSans-65"/>
      <use x="113.542969" xlink:href="#DejaVuSans-64"/>
      <use x="177.019531" xlink:href="#DejaVuSans-4d"/>
      <use x="263.298828" xlink:href="#DejaVuSans-65"/>
      <use x="324.822266" xlink:href="#DejaVuSans-64"/>
     </g>
    </g>
    <g id="line2d_23">
     <path d="M 253.942813 35.952438 
L 273.942813 35.952438 
" style="fill:none;stroke:#2ca02c;stroke-linecap:square;stroke-width:1.5;"/>
    </g>
    <g id="line2d_24"/>
    <g id="text_20">
     <!-- FedProx -->
     <g transform="translate(281.942813 39.452438)scale(0.1 -0.1)">
      <defs>
       <path d="M 1259 4147 
L 1259 2394 
L 2053 2394 
Q 2494 2394 2734 2622 
Q 2975 2850 2975 3272 
Q 2975 3691 2734 3919 
Q 2494 4147 2053 4147 
L 1259 4147 
z
M 628 4666 
L 2053 4666 
Q 2838 4666 3239 4311 
Q 3641 3956 3641 3272 
Q 3641 2581 3239 2228 
Q 2838 1875 2053 1875 
L 1259 1875 
L 1259 0 
L 628 0 
L 628 4666 
z
" id="DejaVuSans-50" transform="scale(0.015625)"/>
       <path d="M 3513 3500 
L 2247 1797 
L 3578 0 
L 2900 0 
L 1881 1375 
L 863 0 
L 184 0 
L 1544 1831 
L 300 3500 
L 978 3500 
L 1906 2253 
L 2834 3500 
L 3513 3500 
z
" id="DejaVuSans-78" transform="scale(0.015625)"/>
      </defs>
      <use xlink:href="#DejaVuSans-46"/>
      <use x="52.019531" xlink:href="#DejaVuSans-65"/>
      <use x="113.542969" xlink:href="#DejaVuSans-64"/>
      <use x="177.019531" xlink:href="#DejaVuSans-50"/>
      <use x="235.572266" xlink:href="#DejaVuSans-72"/>
      <use x="274.435547" xlink:href="#DejaVuSans-6f"/>
      <use x="332.492188" xlink:href="#DejaVuSans-78"/>
     </g>
    </g>
    <g id="line2d_25">
     <path d="M 341.111563 35.952438 
L 361.111563 35.952438 
" style="fill:none;stroke:#d62728;stroke-linecap:square;stroke-width:1.5;"/>
    </g>
    <g id="line2d_26"/>
    <g id="text_21">
     <!-- qFedAvg -->
     <g transform="translate(369.111563 39.452438)scale(0.1 -0.1)">
      <defs>
       <path d="M 947 1747 
Q 947 1113 1208 752 
Q 1469 391 1925 391 
Q 2381 391 2643 752 
Q 2906 1113 2906 1747 
Q 2906 2381 2643 2742 
Q 2381 3103 1925 3103 
Q 1469 3103 1208 2742 
Q 947 2381 947 1747 
z
M 2906 525 
Q 2725 213 2448 61 
Q 2172 -91 1784 -91 
Q 1150 -91 751 415 
Q 353 922 353 1747 
Q 353 2572 751 3078 
Q 1150 3584 1784 3584 
Q 2172 3584 2448 3432 
Q 2725 3281 2906 2969 
L 2906 3500 
L 3481 3500 
L 3481 -1331 
L 2906 -1331 
L 2906 525 
z
" id="DejaVuSans-71" transform="scale(0.015625)"/>
      </defs>
      <use xlink:href="#DejaVuSans-71"/>
      <use x="63.476562" xlink:href="#DejaVuSans-46"/>
      <use x="115.496094" xlink:href="#DejaVuSans-65"/>
      <use x="177.019531" xlink:href="#DejaVuSans-64"/>
      <use x="240.496094" xlink:href="#DejaVuSans-41"/>
      <use x="303.029297" xlink:href="#DejaVuSans-76"/>
      <use x="362.208984" xlink:href="#DejaVuSans-67"/>
     </g>
    </g>
   </g>
  </g>
 </g>
 <defs>
  <clipPath id="pe6e657dbac">
   <rect height="255.26" width="405.43" x="44.57" y="48.38"/>
  </clipPath>
 </defs>
</svg>
