<?xml version="1.0" encoding="utf-8" standalone="no"?>
<!DOCTYPE svg PUBLIC "-//W3C//DTD SVG 1.1//EN"
  "http://www.w3.org/Graphics/SVG/1.1/DTD/svg11.dtd">
<svg height="345.6pt" version="1.1" viewBox="0 0 460.8 345.6" width="460.8pt" xmlns="http://www.w3.org/2000/svg" xmlns:xlink="http://www.w3.org/1999/xlink">
 <metadata>
  <rdf:RDF xmlns:cc="http://creativecommons.org/ns#" xmlns:dc="http://purl.org/dc/elements/1.1/" xmlns:rdf="http://www.w3.org/1999/02/22-rdf-syntax-ns#">
   <cc:Work>
    <dc:type rdf:resource="http://purl.org/dc/dcmitype/StillImage"/>
    <dc:date>2021-05-07T12:06:42.216713</dc:date>
    <dc:format>image/svg+xml</dc:format>
    <dc:creator>
     <cc:Agent>
      <dc:title>Matplotlib v3.4.1, https://matplotlib.org/</dc:title>
     </cc:Agent>
    </dc:creator>
   </cc:Work>
  </rdf:RDF>
 </metadata>
 <defs>
  <style type="text/css">*{stroke-linecap:butt;stroke-linejoin:round;}</style>
 </defs>
 <g id="figure_1">
  <g id="patch_1">
   <path d="M 0 345.6 
L 460.8 345.6 
L 460.8 0 
L 0 0 
z
" style="fill:#ffffff;"/>
  </g>
  <g id="axes_1">
   <g id="patch_2">
    <path d="M 44.57 303.64 
L 450 303.64 
L 450 32.876829 
L 44.57 32.876829 
z
" style="fill:#ffffff;"/>
   </g>
   <g id="PolyCollection_1">
    <path clip-path="url(#pae6a7ccc4b)" d="M 62.998636 265.762102 
L 62.998636 281.558019 
L 70.520529 221.450506 
L 78.042421 198.959075 
L 85.564314 185.084941 
L 93.086206 176.513616 
L 100.608098 167.322103 
L 108.129991 160.912734 
L 115.651883 155.897895 
L 123.173776 150.970296 
L 130.695668 140.173185 
L 138.21756 135.479533 
L 145.739453 128.631204 
L 153.261345 123.208086 
L 160.783237 115.502429 
L 168.30513 111.906833 
L 175.827022 105.150623 
L 183.348915 104.710717 
L 190.870807 100.36013 
L 198.392699 99.88981 
L 205.914592 99.389532 
L 213.436484 92.982662 
L 220.958377 90.500001 
L 228.480269 87.967873 
L 236.002161 87.267223 
L 243.524054 82.945083 
L 251.045946 80.776074 
L 258.567839 80.178496 
L 266.089731 77.225354 
L 273.611623 76.962146 
L 281.133516 75.51562 
L 288.655408 72.524795 
L 296.177301 70.556652 
L 303.699193 69.762386 
L 311.221085 68.659079 
L 318.742978 64.540296 
L 326.26487 64.325547 
L 333.786763 63.688341 
L 341.308655 62.405307 
L 348.830547 59.775191 
L 356.35244 61.053692 
L 363.874332 61.611357 
L 371.396224 58.376125 
L 378.918117 57.593362 
L 386.440009 55.169507 
L 393.961902 54.936611 
L 401.483794 53.784301 
L 409.005686 54.673789 
L 416.527579 54.117108 
L 424.049471 51.411067 
L 431.571364 51.153867 
L 431.571364 45.184246 
L 431.571364 45.184246 
L 424.049471 48.114791 
L 416.527579 47.086511 
L 409.005686 51.059782 
L 401.483794 51.110391 
L 393.961902 48.28032 
L 386.440009 51.402944 
L 378.918117 53.17349 
L 371.396224 52.72628 
L 363.874332 56.369866 
L 356.35244 54.075338 
L 348.830547 57.367152 
L 341.308655 57.589228 
L 333.786763 59.326163 
L 326.26487 61.037822 
L 318.742978 59.145312 
L 311.221085 60.395363 
L 303.699193 64.157561 
L 296.177301 65.208832 
L 288.655408 66.260657 
L 281.133516 67.967562 
L 273.611623 71.889868 
L 266.089731 70.620005 
L 258.567839 75.887888 
L 251.045946 78.31028 
L 243.524054 80.167895 
L 236.002161 81.717918 
L 228.480269 83.03058 
L 220.958377 86.202837 
L 213.436484 88.921234 
L 205.914592 91.406494 
L 198.392699 92.919528 
L 190.870807 96.475834 
L 183.348915 98.500736 
L 175.827022 100.241919 
L 168.30513 102.881168 
L 160.783237 108.177702 
L 153.261345 112.887472 
L 145.739453 117.698693 
L 138.21756 125.950208 
L 130.695668 132.833103 
L 123.173776 142.504669 
L 115.651883 145.294768 
L 108.129991 153.198684 
L 100.608098 157.19143 
L 93.086206 167.965266 
L 85.564314 173.822681 
L 78.042421 189.477131 
L 70.520529 204.567534 
L 62.998636 265.762102 
z
" style="fill:#1f77b4;fill-opacity:0.5;"/>
   </g>
   <g id="PolyCollection_2">
    <path clip-path="url(#pae6a7ccc4b)" d="M 62.998636 277.462871 
L 62.998636 291.332583 
L 70.520529 222.044661 
L 78.042421 201.776754 
L 85.564314 191.795021 
L 93.086206 178.409767 
L 100.608098 171.32407 
L 108.129991 164.627695 
L 115.651883 162.472928 
L 123.173776 159.778004 
L 130.695668 149.407895 
L 138.21756 143.362311 
L 145.739453 138.378546 
L 153.261345 133.363415 
L 160.783237 123.21543 
L 168.30513 117.571047 
L 175.827022 111.450397 
L 183.348915 111.807619 
L 190.870807 108.522886 
L 198.392699 104.318632 
L 205.914592 101.424541 
L 213.436484 98.12868 
L 220.958377 94.424965 
L 228.480269 91.65578 
L 236.002161 89.744004 
L 243.524054 87.753696 
L 251.045946 86.530526 
L 258.567839 83.042989 
L 266.089731 79.763783 
L 273.611623 79.521384 
L 281.133516 79.592103 
L 288.655408 74.19456 
L 296.177301 75.812928 
L 303.699193 75.112254 
L 311.221085 75.897836 
L 318.742978 70.408353 
L 326.26487 71.591216 
L 333.786763 69.392726 
L 341.308655 67.610792 
L 348.830547 67.702335 
L 356.35244 64.907485 
L 363.874332 66.024842 
L 371.396224 65.423805 
L 378.918117 68.306292 
L 386.440009 63.447525 
L 393.961902 63.18669 
L 401.483794 62.480621 
L 409.005686 59.703193 
L 416.527579 60.529443 
L 424.049471 58.182667 
L 431.571364 60.094374 
L 431.571364 53.692448 
L 431.571364 53.692448 
L 424.049471 52.919738 
L 416.527579 56.109571 
L 409.005686 55.929165 
L 401.483794 56.171706 
L 393.961902 58.988934 
L 386.440009 58.895875 
L 378.918117 59.741493 
L 371.396224 59.268459 
L 363.874332 60.345183 
L 356.35244 60.455884 
L 348.830547 64.372076 
L 341.308655 63.121411 
L 333.786763 64.023893 
L 326.26487 67.529788 
L 318.742978 65.692682 
L 311.221085 68.927554 
L 303.699193 67.196495 
L 296.177301 71.361326 
L 288.655408 68.953069 
L 281.133516 73.789865 
L 273.611623 74.699464 
L 266.089731 73.450409 
L 258.567839 80.06999 
L 251.045946 79.937974 
L 243.524054 82.405876 
L 236.002161 83.267762 
L 228.480269 86.892595 
L 220.958377 89.156691 
L 213.436484 91.996242 
L 205.914592 93.565886 
L 198.392699 96.879509 
L 190.870807 100.225177 
L 183.348915 100.128189 
L 175.827022 106.693125 
L 168.30513 110.135709 
L 160.783237 111.873472 
L 153.261345 124.375253 
L 145.739453 128.923357 
L 138.21756 138.368331 
L 130.695668 140.879325 
L 123.173776 148.964581 
L 115.651883 147.44409 
L 108.129991 155.355886 
L 100.608098 159.900505 
L 93.086206 172.612382 
L 85.564314 180.870237 
L 78.042421 193.706046 
L 70.520529 213.368838 
L 62.998636 277.462871 
z
" style="fill:#ff7f0e;fill-opacity:0.5;"/>
   </g>
   <g id="PolyCollection_3">
    <path clip-path="url(#pae6a7ccc4b)" d="M 62.998636 253.067881 
L 62.998636 284.017901 
L 70.520529 228.737842 
L 78.042421 205.512833 
L 85.564314 194.947424 
L 93.086206 188.883765 
L 100.608098 175.049411 
L 108.129991 170.400727 
L 115.651883 161.403174 
L 123.173776 158.076317 
L 130.695668 152.917645 
L 138.21756 151.235312 
L 145.739453 147.615488 
L 153.261345 141.787157 
L 160.783237 138.478301 
L 168.30513 131.509289 
L 175.827022 127.098546 
L 183.348915 125.032485 
L 190.870807 121.610201 
L 198.392699 116.418947 
L 205.914592 111.400444 
L 213.436484 105.608959 
L 220.958377 103.645296 
L 228.480269 101.344574 
L 236.002161 96.849169 
L 243.524054 97.391213 
L 251.045946 93.149051 
L 258.567839 89.508298 
L 266.089731 90.887801 
L 273.611623 90.736928 
L 281.133516 89.501585 
L 288.655408 82.728453 
L 296.177301 84.720532 
L 303.699193 82.589539 
L 311.221085 82.04886 
L 318.742978 80.652451 
L 326.26487 78.158425 
L 333.786763 78.294661 
L 341.308655 75.299438 
L 348.830547 76.892356 
L 356.35244 73.128072 
L 363.874332 72.963895 
L 371.396224 73.910977 
L 378.918117 72.310107 
L 386.440009 72.230376 
L 393.961902 67.396149 
L 401.483794 68.313295 
L 409.005686 65.125285 
L 416.527579 65.431967 
L 424.049471 63.765931 
L 431.571364 65.074006 
L 431.571364 56.933842 
L 431.571364 56.933842 
L 424.049471 57.067484 
L 416.527579 58.421417 
L 409.005686 60.573635 
L 401.483794 60.070043 
L 393.961902 60.651636 
L 386.440009 63.535108 
L 378.918117 66.307569 
L 371.396224 63.700043 
L 363.874332 68.505974 
L 356.35244 67.838469 
L 348.830547 69.946347 
L 341.308655 69.358176 
L 333.786763 70.389578 
L 326.26487 75.223543 
L 318.742978 75.749485 
L 311.221085 74.353077 
L 303.699193 71.63131 
L 296.177301 75.540254 
L 288.655408 77.029005 
L 281.133516 80.825763 
L 273.611623 82.442613 
L 266.089731 81.956188 
L 258.567839 85.51678 
L 251.045946 90.935933 
L 243.524054 89.71374 
L 236.002161 90.926888 
L 228.480269 96.162494 
L 220.958377 99.062829 
L 213.436484 99.615807 
L 205.914592 103.052005 
L 198.392699 108.603392 
L 190.870807 115.995341 
L 183.348915 118.612995 
L 175.827022 123.257976 
L 168.30513 125.222723 
L 160.783237 131.508019 
L 153.261345 134.2391 
L 145.739453 142.000628 
L 138.21756 147.105158 
L 130.695668 149.113899 
L 123.173776 151.505148 
L 115.651883 154.721557 
L 108.129991 163.172713 
L 100.608098 168.758368 
L 93.086206 181.097077 
L 85.564314 188.119949 
L 78.042421 200.875411 
L 70.520529 219.091084 
L 62.998636 253.067881 
z
" style="fill:#2ca02c;fill-opacity:0.5;"/>
   </g>
   <g id="PolyCollection_4">
    <path clip-path="url(#pae6a7ccc4b)" d="M 62.998636 282.261881 
L 62.998636 289.430562 
L 70.520529 223.410757 
L 78.042421 198.945163 
L 85.564314 185.127588 
L 93.086206 175.000454 
L 100.608098 168.024872 
L 108.129991 156.173822 
L 115.651883 151.28305 
L 123.173776 146.353862 
L 130.695668 138.947039 
L 138.21756 133.505936 
L 145.739453 126.356195 
L 153.261345 123.325599 
L 160.783237 117.391923 
L 168.30513 113.801568 
L 175.827022 111.195027 
L 183.348915 109.17618 
L 190.870807 107.979436 
L 198.392699 107.953835 
L 205.914592 106.219473 
L 213.436484 107.621145 
L 220.958377 107.707357 
L 228.480269 107.468567 
L 236.002161 111.088489 
L 243.524054 114.598939 
L 251.045946 112.659458 
L 258.567839 111.114014 
L 266.089731 114.417123 
L 273.611623 115.686928 
L 281.133516 118.705742 
L 288.655408 116.593532 
L 296.177301 116.518102 
L 303.699193 116.464244 
L 311.221085 115.716733 
L 318.742978 120.11662 
L 326.26487 121.108947 
L 333.786763 120.210381 
L 341.308655 117.262044 
L 348.830547 119.507117 
L 356.35244 117.511995 
L 363.874332 121.493729 
L 371.396224 120.503904 
L 378.918117 119.564508 
L 386.440009 119.956411 
L 393.961902 123.717642 
L 401.483794 125.807985 
L 409.005686 122.728076 
L 416.527579 122.125534 
L 424.049471 124.195714 
L 431.571364 120.830593 
L 431.571364 108.436816 
L 431.571364 108.436816 
L 424.049471 111.062642 
L 416.527579 107.870861 
L 409.005686 110.740948 
L 401.483794 110.921598 
L 393.961902 110.639421 
L 386.440009 108.992895 
L 378.918117 106.243527 
L 371.396224 105.874066 
L 363.874332 104.751697 
L 356.35244 104.478798 
L 348.830547 104.869452 
L 341.308655 104.23834 
L 333.786763 108.0497 
L 326.26487 107.681306 
L 318.742978 104.021371 
L 311.221085 103.490656 
L 303.699193 102.212973 
L 296.177301 98.81903 
L 288.655408 100.307607 
L 281.133516 98.738824 
L 273.611623 100.644276 
L 266.089731 96.453306 
L 258.567839 99.345532 
L 251.045946 97.018084 
L 243.524054 97.080003 
L 236.002161 97.979355 
L 228.480269 96.37708 
L 220.958377 98.219216 
L 213.436484 97.735493 
L 205.914592 99.084148 
L 198.392699 99.523492 
L 190.870807 101.751124 
L 183.348915 104.86203 
L 175.827022 107.853311 
L 168.30513 110.906359 
L 160.783237 113.903395 
L 153.261345 117.154954 
L 145.739453 121.984162 
L 138.21756 126.975367 
L 130.695668 133.913787 
L 123.173776 138.581638 
L 115.651883 146.244042 
L 108.129991 154.050897 
L 100.608098 160.225706 
L 93.086206 167.909387 
L 85.564314 179.28074 
L 78.042421 191.229539 
L 70.520529 215.500034 
L 62.998636 282.261881 
z
" style="fill:#d62728;fill-opacity:0.5;"/>
   </g>
   <g id="matplotlib.axis_1">
    <g id="xtick_1">
     <g id="line2d_1">
      <defs>
       <path d="M 0 0 
L 0 3.5 
" id="m949ee129ba" style="stroke:#000000;stroke-width:0.8;"/>
      </defs>
      <g>
       <use style="stroke:#000000;stroke-width:0.8;" x="62.998636" xlink:href="#m949ee129ba" y="303.64"/>
      </g>
     </g>
     <g id="text_1">
      <!-- 0 -->
      <g transform="translate(59.817386 318.238437)scale(0.1 -0.1)">
       <defs>
        <path d="M 2034 4250 
Q 1547 4250 1301 3770 
Q 1056 3291 1056 2328 
Q 1056 1369 1301 889 
Q 1547 409 2034 409 
Q 2525 409 2770 889 
Q 3016 1369 3016 2328 
Q 3016 3291 2770 3770 
Q 2525 4250 2034 4250 
z
M 2034 4750 
Q 2819 4750 3233 4129 
Q 3647 3509 3647 2328 
Q 3647 1150 3233 529 
Q 2819 -91 2034 -91 
Q 1250 -91 836 529 
Q 422 1150 422 2328 
Q 422 3509 836 4129 
Q 1250 4750 2034 4750 
z
" id="DejaVuSans-30" transform="scale(0.015625)"/>
       </defs>
       <use xlink:href="#DejaVuSans-30"/>
      </g>
     </g>
    </g>
    <g id="xtick_2">
     <g id="line2d_2">
      <g>
       <use style="stroke:#000000;stroke-width:0.8;" x="138.21756" xlink:href="#m949ee129ba" y="303.64"/>
      </g>
     </g>
     <g id="text_2">
      <!-- 10 -->
      <g transform="translate(131.85506 318.238437)scale(0.1 -0.1)">
       <defs>
        <path d="M 794 531 
L 1825 531 
L 1825 4091 
L 703 3866 
L 703 4441 
L 1819 4666 
L 2450 4666 
L 2450 531 
L 3481 531 
L 3481 0 
L 794 0 
L 794 531 
z
" id="DejaVuSans-31" transform="scale(0.015625)"/>
       </defs>
       <use xlink:href="#DejaVuSans-31"/>
       <use x="63.623047" xlink:href="#DejaVuSans-30"/>
      </g>
     </g>
    </g>
    <g id="xtick_3">
     <g id="line2d_3">
      <g>
       <use style="stroke:#000000;stroke-width:0.8;" x="213.436484" xlink:href="#m949ee129ba" y="303.64"/>
      </g>
     </g>
     <g id="text_3">
      <!-- 20 -->
      <g transform="translate(207.073984 318.238437)scale(0.1 -0.1)">
       <defs>
        <path d="M 1228 531 
L 3431 531 
L 3431 0 
L 469 0 
L 469 531 
Q 828 903 1448 1529 
Q 2069 2156 2228 2338 
Q 2531 2678 2651 2914 
Q 2772 3150 2772 3378 
Q 2772 3750 2511 3984 
Q 2250 4219 1831 4219 
Q 1534 4219 1204 4116 
Q 875 4013 500 3803 
L 500 4441 
Q 881 4594 1212 4672 
Q 1544 4750 1819 4750 
Q 2544 4750 2975 4387 
Q 3406 4025 3406 3419 
Q 3406 3131 3298 2873 
Q 3191 2616 2906 2266 
Q 2828 2175 2409 1742 
Q 1991 1309 1228 531 
z
" id="DejaVuSans-32" transform="scale(0.015625)"/>
       </defs>
       <use xlink:href="#DejaVuSans-32"/>
       <use x="63.623047" xlink:href="#DejaVuSans-30"/>
      </g>
     </g>
    </g>
    <g id="xtick_4">
     <g id="line2d_4">
      <g>
       <use style="stroke:#000000;stroke-width:0.8;" x="288.655408" xlink:href="#m949ee129ba" y="303.64"/>
      </g>
     </g>
     <g id="text_4">
      <!-- 30 -->
      <g transform="translate(282.292908 318.238437)scale(0.1 -0.1)">
       <defs>
        <path d="M 2597 2516 
Q 3050 2419 3304 2112 
Q 3559 1806 3559 1356 
Q 3559 666 3084 287 
Q 2609 -91 1734 -91 
Q 1441 -91 1130 -33 
Q 819 25 488 141 
L 488 750 
Q 750 597 1062 519 
Q 1375 441 1716 441 
Q 2309 441 2620 675 
Q 2931 909 2931 1356 
Q 2931 1769 2642 2001 
Q 2353 2234 1838 2234 
L 1294 2234 
L 1294 2753 
L 1863 2753 
Q 2328 2753 2575 2939 
Q 2822 3125 2822 3475 
Q 2822 3834 2567 4026 
Q 2313 4219 1838 4219 
Q 1578 4219 1281 4162 
Q 984 4106 628 3988 
L 628 4550 
Q 988 4650 1302 4700 
Q 1616 4750 1894 4750 
Q 2613 4750 3031 4423 
Q 3450 4097 3450 3541 
Q 3450 3153 3228 2886 
Q 3006 2619 2597 2516 
z
" id="DejaVuSans-33" transform="scale(0.015625)"/>
       </defs>
       <use xlink:href="#DejaVuSans-33"/>
       <use x="63.623047" xlink:href="#DejaVuSans-30"/>
      </g>
     </g>
    </g>
    <g id="xtick_5">
     <g id="line2d_5">
      <g>
       <use style="stroke:#000000;stroke-width:0.8;" x="363.874332" xlink:href="#m949ee129ba" y="303.64"/>
      </g>
     </g>
     <g id="text_5">
      <!-- 40 -->
      <g transform="translate(357.511832 318.238437)scale(0.1 -0.1)">
       <defs>
        <path d="M 2419 4116 
L 825 1625 
L 2419 1625 
L 2419 4116 
z
M 2253 4666 
L 3047 4666 
L 3047 1625 
L 3713 1625 
L 3713 1100 
L 3047 1100 
L 3047 0 
L 2419 0 
L 2419 1100 
L 313 1100 
L 313 1709 
L 2253 4666 
z
" id="DejaVuSans-34" transform="scale(0.015625)"/>
       </defs>
       <use xlink:href="#DejaVuSans-34"/>
       <use x="63.623047" xlink:href="#DejaVuSans-30"/>
      </g>
     </g>
    </g>
    <g id="xtick_6">
     <g id="line2d_6">
      <g>
       <use style="stroke:#000000;stroke-width:0.8;" x="439.093256" xlink:href="#m949ee129ba" y="303.64"/>
      </g>
     </g>
     <g id="text_6">
      <!-- 50 -->
      <g transform="translate(432.730756 318.238437)scale(0.1 -0.1)">
       <defs>
        <path d="M 691 4666 
L 3169 4666 
L 3169 4134 
L 1269 4134 
L 1269 2991 
Q 1406 3038 1543 3061 
Q 1681 3084 1819 3084 
Q 2600 3084 3056 2656 
Q 3513 2228 3513 1497 
Q 3513 744 3044 326 
Q 2575 -91 1722 -91 
Q 1428 -91 1123 -41 
Q 819 9 494 109 
L 494 744 
Q 775 591 1075 516 
Q 1375 441 1709 441 
Q 2250 441 2565 725 
Q 2881 1009 2881 1497 
Q 2881 1984 2565 2268 
Q 2250 2553 1709 2553 
Q 1456 2553 1204 2497 
Q 953 2441 691 2322 
L 691 4666 
z
" id="DejaVuSans-35" transform="scale(0.015625)"/>
       </defs>
       <use xlink:href="#DejaVuSans-35"/>
       <use x="63.623047" xlink:href="#DejaVuSans-30"/>
      </g>
     </g>
    </g>
    <g id="text_7">
     <!-- Global Communication Rounds -->
     <g transform="translate(170.323281 331.916562)scale(0.1 -0.1)">
      <defs>
       <path d="M 3809 666 
L 3809 1919 
L 2778 1919 
L 2778 2438 
L 4434 2438 
L 4434 434 
Q 4069 175 3628 42 
Q 3188 -91 2688 -91 
Q 1594 -91 976 548 
Q 359 1188 359 2328 
Q 359 3472 976 4111 
Q 1594 4750 2688 4750 
Q 3144 4750 3555 4637 
Q 3966 4525 4313 4306 
L 4313 3634 
Q 3963 3931 3569 4081 
Q 3175 4231 2741 4231 
Q 1884 4231 1454 3753 
Q 1025 3275 1025 2328 
Q 1025 1384 1454 906 
Q 1884 428 2741 428 
Q 3075 428 3337 486 
Q 3600 544 3809 666 
z
" id="DejaVuSans-47" transform="scale(0.015625)"/>
       <path d="M 603 4863 
L 1178 4863 
L 1178 0 
L 603 0 
L 603 4863 
z
" id="DejaVuSans-6c" transform="scale(0.015625)"/>
       <path d="M 1959 3097 
Q 1497 3097 1228 2736 
Q 959 2375 959 1747 
Q 959 1119 1226 758 
Q 1494 397 1959 397 
Q 2419 397 2687 759 
Q 2956 1122 2956 1747 
Q 2956 2369 2687 2733 
Q 2419 3097 1959 3097 
z
M 1959 3584 
Q 2709 3584 3137 3096 
Q 3566 2609 3566 1747 
Q 3566 888 3137 398 
Q 2709 -91 1959 -91 
Q 1206 -91 779 398 
Q 353 888 353 1747 
Q 353 2609 779 3096 
Q 1206 3584 1959 3584 
z
" id="DejaVuSans-6f" transform="scale(0.015625)"/>
       <path d="M 3116 1747 
Q 3116 2381 2855 2742 
Q 2594 3103 2138 3103 
Q 1681 3103 1420 2742 
Q 1159 2381 1159 1747 
Q 1159 1113 1420 752 
Q 1681 391 2138 391 
Q 2594 391 2855 752 
Q 3116 1113 3116 1747 
z
M 1159 2969 
Q 1341 3281 1617 3432 
Q 1894 3584 2278 3584 
Q 2916 3584 3314 3078 
Q 3713 2572 3713 1747 
Q 3713 922 3314 415 
Q 2916 -91 2278 -91 
Q 1894 -91 1617 61 
Q 1341 213 1159 525 
L 1159 0 
L 581 0 
L 581 4863 
L 1159 4863 
L 1159 2969 
z
" id="DejaVuSans-62" transform="scale(0.015625)"/>
       <path d="M 2194 1759 
Q 1497 1759 1228 1600 
Q 959 1441 959 1056 
Q 959 750 1161 570 
Q 1363 391 1709 391 
Q 2188 391 2477 730 
Q 2766 1069 2766 1631 
L 2766 1759 
L 2194 1759 
z
M 3341 1997 
L 3341 0 
L 2766 0 
L 2766 531 
Q 2569 213 2275 61 
Q 1981 -91 1556 -91 
Q 1019 -91 701 211 
Q 384 513 384 1019 
Q 384 1609 779 1909 
Q 1175 2209 1959 2209 
L 2766 2209 
L 2766 2266 
Q 2766 2663 2505 2880 
Q 2244 3097 1772 3097 
Q 1472 3097 1187 3025 
Q 903 2953 641 2809 
L 641 3341 
Q 956 3463 1253 3523 
Q 1550 3584 1831 3584 
Q 2591 3584 2966 3190 
Q 3341 2797 3341 1997 
z
" id="DejaVuSans-61" transform="scale(0.015625)"/>
       <path id="DejaVuSans-20" transform="scale(0.015625)"/>
       <path d="M 4122 4306 
L 4122 3641 
Q 3803 3938 3442 4084 
Q 3081 4231 2675 4231 
Q 1875 4231 1450 3742 
Q 1025 3253 1025 2328 
Q 1025 1406 1450 917 
Q 1875 428 2675 428 
Q 3081 428 3442 575 
Q 3803 722 4122 1019 
L 4122 359 
Q 3791 134 3420 21 
Q 3050 -91 2638 -91 
Q 1578 -91 968 557 
Q 359 1206 359 2328 
Q 359 3453 968 4101 
Q 1578 4750 2638 4750 
Q 3056 4750 3426 4639 
Q 3797 4528 4122 4306 
z
" id="DejaVuSans-43" transform="scale(0.015625)"/>
       <path d="M 3328 2828 
Q 3544 3216 3844 3400 
Q 4144 3584 4550 3584 
Q 5097 3584 5394 3201 
Q 5691 2819 5691 2113 
L 5691 0 
L 5113 0 
L 5113 2094 
Q 5113 2597 4934 2840 
Q 4756 3084 4391 3084 
Q 3944 3084 3684 2787 
Q 3425 2491 3425 1978 
L 3425 0 
L 2847 0 
L 2847 2094 
Q 2847 2600 2669 2842 
Q 2491 3084 2119 3084 
Q 1678 3084 1418 2786 
Q 1159 2488 1159 1978 
L 1159 0 
L 581 0 
L 581 3500 
L 1159 3500 
L 1159 2956 
Q 1356 3278 1631 3431 
Q 1906 3584 2284 3584 
Q 2666 3584 2933 3390 
Q 3200 3197 3328 2828 
z
" id="DejaVuSans-6d" transform="scale(0.015625)"/>
       <path d="M 544 1381 
L 544 3500 
L 1119 3500 
L 1119 1403 
Q 1119 906 1312 657 
Q 1506 409 1894 409 
Q 2359 409 2629 706 
Q 2900 1003 2900 1516 
L 2900 3500 
L 3475 3500 
L 3475 0 
L 2900 0 
L 2900 538 
Q 2691 219 2414 64 
Q 2138 -91 1772 -91 
Q 1169 -91 856 284 
Q 544 659 544 1381 
z
M 1991 3584 
L 1991 3584 
z
" id="DejaVuSans-75" transform="scale(0.015625)"/>
       <path d="M 3513 2113 
L 3513 0 
L 2938 0 
L 2938 2094 
Q 2938 2591 2744 2837 
Q 2550 3084 2163 3084 
Q 1697 3084 1428 2787 
Q 1159 2491 1159 1978 
L 1159 0 
L 581 0 
L 581 3500 
L 1159 3500 
L 1159 2956 
Q 1366 3272 1645 3428 
Q 1925 3584 2291 3584 
Q 2894 3584 3203 3211 
Q 3513 2838 3513 2113 
z
" id="DejaVuSans-6e" transform="scale(0.015625)"/>
       <path d="M 603 3500 
L 1178 3500 
L 1178 0 
L 603 0 
L 603 3500 
z
M 603 4863 
L 1178 4863 
L 1178 4134 
L 603 4134 
L 603 4863 
z
" id="DejaVuSans-69" transform="scale(0.015625)"/>
       <path d="M 3122 3366 
L 3122 2828 
Q 2878 2963 2633 3030 
Q 2388 3097 2138 3097 
Q 1578 3097 1268 2742 
Q 959 2388 959 1747 
Q 959 1106 1268 751 
Q 1578 397 2138 397 
Q 2388 397 2633 464 
Q 2878 531 3122 666 
L 3122 134 
Q 2881 22 2623 -34 
Q 2366 -91 2075 -91 
Q 1284 -91 818 406 
Q 353 903 353 1747 
Q 353 2603 823 3093 
Q 1294 3584 2113 3584 
Q 2378 3584 2631 3529 
Q 2884 3475 3122 3366 
z
" id="DejaVuSans-63" transform="scale(0.015625)"/>
       <path d="M 1172 4494 
L 1172 3500 
L 2356 3500 
L 2356 3053 
L 1172 3053 
L 1172 1153 
Q 1172 725 1289 603 
Q 1406 481 1766 481 
L 2356 481 
L 2356 0 
L 1766 0 
Q 1100 0 847 248 
Q 594 497 594 1153 
L 594 3053 
L 172 3053 
L 172 3500 
L 594 3500 
L 594 4494 
L 1172 4494 
z
" id="DejaVuSans-74" transform="scale(0.015625)"/>
       <path d="M 2841 2188 
Q 3044 2119 3236 1894 
Q 3428 1669 3622 1275 
L 4263 0 
L 3584 0 
L 2988 1197 
Q 2756 1666 2539 1819 
Q 2322 1972 1947 1972 
L 1259 1972 
L 1259 0 
L 628 0 
L 628 4666 
L 2053 4666 
Q 2853 4666 3247 4331 
Q 3641 3997 3641 3322 
Q 3641 2881 3436 2590 
Q 3231 2300 2841 2188 
z
M 1259 4147 
L 1259 2491 
L 2053 2491 
Q 2509 2491 2742 2702 
Q 2975 2913 2975 3322 
Q 2975 3731 2742 3939 
Q 2509 4147 2053 4147 
L 1259 4147 
z
" id="DejaVuSans-52" transform="scale(0.015625)"/>
       <path d="M 2906 2969 
L 2906 4863 
L 3481 4863 
L 3481 0 
L 2906 0 
L 2906 525 
Q 2725 213 2448 61 
Q 2172 -91 1784 -91 
Q 1150 -91 751 415 
Q 353 922 353 1747 
Q 353 2572 751 3078 
Q 1150 3584 1784 3584 
Q 2172 3584 2448 3432 
Q 2725 3281 2906 2969 
z
M 947 1747 
Q 947 1113 1208 752 
Q 1469 391 1925 391 
Q 2381 391 2643 752 
Q 2906 1113 2906 1747 
Q 2906 2381 2643 2742 
Q 2381 3103 1925 3103 
Q 1469 3103 1208 2742 
Q 947 2381 947 1747 
z
" id="DejaVuSans-64" transform="scale(0.015625)"/>
       <path d="M 2834 3397 
L 2834 2853 
Q 2591 2978 2328 3040 
Q 2066 3103 1784 3103 
Q 1356 3103 1142 2972 
Q 928 2841 928 2578 
Q 928 2378 1081 2264 
Q 1234 2150 1697 2047 
L 1894 2003 
Q 2506 1872 2764 1633 
Q 3022 1394 3022 966 
Q 3022 478 2636 193 
Q 2250 -91 1575 -91 
Q 1294 -91 989 -36 
Q 684 19 347 128 
L 347 722 
Q 666 556 975 473 
Q 1284 391 1588 391 
Q 1994 391 2212 530 
Q 2431 669 2431 922 
Q 2431 1156 2273 1281 
Q 2116 1406 1581 1522 
L 1381 1569 
Q 847 1681 609 1914 
Q 372 2147 372 2553 
Q 372 3047 722 3315 
Q 1072 3584 1716 3584 
Q 2034 3584 2315 3537 
Q 2597 3491 2834 3397 
z
" id="DejaVuSans-73" transform="scale(0.015625)"/>
      </defs>
      <use xlink:href="#DejaVuSans-47"/>
      <use x="77.490234" xlink:href="#DejaVuSans-6c"/>
      <use x="105.273438" xlink:href="#DejaVuSans-6f"/>
      <use x="166.455078" xlink:href="#DejaVuSans-62"/>
      <use x="229.931641" xlink:href="#DejaVuSans-61"/>
      <use x="291.210938" xlink:href="#DejaVuSans-6c"/>
      <use x="318.994141" xlink:href="#DejaVuSans-20"/>
      <use x="350.78125" xlink:href="#DejaVuSans-43"/>
      <use x="420.605469" xlink:href="#DejaVuSans-6f"/>
      <use x="481.787109" xlink:href="#DejaVuSans-6d"/>
      <use x="579.199219" xlink:href="#DejaVuSans-6d"/>
      <use x="676.611328" xlink:href="#DejaVuSans-75"/>
      <use x="739.990234" xlink:href="#DejaVuSans-6e"/>
      <use x="803.369141" xlink:href="#DejaVuSans-69"/>
      <use x="831.152344" xlink:href="#DejaVuSans-63"/>
      <use x="886.132812" xlink:href="#DejaVuSans-61"/>
      <use x="947.412109" xlink:href="#DejaVuSans-74"/>
      <use x="986.621094" xlink:href="#DejaVuSans-69"/>
      <use x="1014.404297" xlink:href="#DejaVuSans-6f"/>
      <use x="1075.585938" xlink:href="#DejaVuSans-6e"/>
      <use x="1138.964844" xlink:href="#DejaVuSans-20"/>
      <use x="1170.751953" xlink:href="#DejaVuSans-52"/>
      <use x="1235.734375" xlink:href="#DejaVuSans-6f"/>
      <use x="1296.916016" xlink:href="#DejaVuSans-75"/>
      <use x="1360.294922" xlink:href="#DejaVuSans-6e"/>
      <use x="1423.673828" xlink:href="#DejaVuSans-64"/>
      <use x="1487.150391" xlink:href="#DejaVuSans-73"/>
     </g>
    </g>
   </g>
   <g id="matplotlib.axis_2">
    <g id="ytick_1">
     <g id="line2d_7">
      <defs>
       <path d="M 0 0 
L -3.5 0 
" id="m6f08c04766" style="stroke:#000000;stroke-width:0.8;"/>
      </defs>
      <g>
       <use style="stroke:#000000;stroke-width:0.8;" x="44.57" xlink:href="#m6f08c04766" y="288.676016"/>
      </g>
     </g>
     <g id="text_8">
      <!-- 10 -->
      <g transform="translate(24.845 292.475235)scale(0.1 -0.1)">
       <use xlink:href="#DejaVuSans-31"/>
       <use x="63.623047" xlink:href="#DejaVuSans-30"/>
      </g>
     </g>
    </g>
    <g id="ytick_2">
     <g id="line2d_8">
      <g>
       <use style="stroke:#000000;stroke-width:0.8;" x="44.57" xlink:href="#m6f08c04766" y="255.540248"/>
      </g>
     </g>
     <g id="text_9">
      <!-- 20 -->
      <g transform="translate(24.845 259.339466)scale(0.1 -0.1)">
       <use xlink:href="#DejaVuSans-32"/>
       <use x="63.623047" xlink:href="#DejaVuSans-30"/>
      </g>
     </g>
    </g>
    <g id="ytick_3">
     <g id="line2d_9">
      <g>
       <use style="stroke:#000000;stroke-width:0.8;" x="44.57" xlink:href="#m6f08c04766" y="222.404479"/>
      </g>
     </g>
     <g id="text_10">
      <!-- 30 -->
      <g transform="translate(24.845 226.203697)scale(0.1 -0.1)">
       <use xlink:href="#DejaVuSans-33"/>
       <use x="63.623047" xlink:href="#DejaVuSans-30"/>
      </g>
     </g>
    </g>
    <g id="ytick_4">
     <g id="line2d_10">
      <g>
       <use style="stroke:#000000;stroke-width:0.8;" x="44.57" xlink:href="#m6f08c04766" y="189.26871"/>
      </g>
     </g>
     <g id="text_11">
      <!-- 40 -->
      <g transform="translate(24.845 193.067929)scale(0.1 -0.1)">
       <use xlink:href="#DejaVuSans-34"/>
       <use x="63.623047" xlink:href="#DejaVuSans-30"/>
      </g>
     </g>
    </g>
    <g id="ytick_5">
     <g id="line2d_11">
      <g>
       <use style="stroke:#000000;stroke-width:0.8;" x="44.57" xlink:href="#m6f08c04766" y="156.132941"/>
      </g>
     </g>
     <g id="text_12">
      <!-- 50 -->
      <g transform="translate(24.845 159.93216)scale(0.1 -0.1)">
       <use xlink:href="#DejaVuSans-35"/>
       <use x="63.623047" xlink:href="#DejaVuSans-30"/>
      </g>
     </g>
    </g>
    <g id="ytick_6">
     <g id="line2d_12">
      <g>
       <use style="stroke:#000000;stroke-width:0.8;" x="44.57" xlink:href="#m6f08c04766" y="122.997172"/>
      </g>
     </g>
     <g id="text_13">
      <!-- 60 -->
      <g transform="translate(24.845 126.796391)scale(0.1 -0.1)">
       <defs>
        <path d="M 2113 2584 
Q 1688 2584 1439 2293 
Q 1191 2003 1191 1497 
Q 1191 994 1439 701 
Q 1688 409 2113 409 
Q 2538 409 2786 701 
Q 3034 994 3034 1497 
Q 3034 2003 2786 2293 
Q 2538 2584 2113 2584 
z
M 3366 4563 
L 3366 3988 
Q 3128 4100 2886 4159 
Q 2644 4219 2406 4219 
Q 1781 4219 1451 3797 
Q 1122 3375 1075 2522 
Q 1259 2794 1537 2939 
Q 1816 3084 2150 3084 
Q 2853 3084 3261 2657 
Q 3669 2231 3669 1497 
Q 3669 778 3244 343 
Q 2819 -91 2113 -91 
Q 1303 -91 875 529 
Q 447 1150 447 2328 
Q 447 3434 972 4092 
Q 1497 4750 2381 4750 
Q 2619 4750 2861 4703 
Q 3103 4656 3366 4563 
z
" id="DejaVuSans-36" transform="scale(0.015625)"/>
       </defs>
       <use xlink:href="#DejaVuSans-36"/>
       <use x="63.623047" xlink:href="#DejaVuSans-30"/>
      </g>
     </g>
    </g>
    <g id="ytick_7">
     <g id="line2d_13">
      <g>
       <use style="stroke:#000000;stroke-width:0.8;" x="44.57" xlink:href="#m6f08c04766" y="89.861404"/>
      </g>
     </g>
     <g id="text_14">
      <!-- 70 -->
      <g transform="translate(24.845 93.660622)scale(0.1 -0.1)">
       <defs>
        <path d="M 525 4666 
L 3525 4666 
L 3525 4397 
L 1831 0 
L 1172 0 
L 2766 4134 
L 525 4134 
L 525 4666 
z
" id="DejaVuSans-37" transform="scale(0.015625)"/>
       </defs>
       <use xlink:href="#DejaVuSans-37"/>
       <use x="63.623047" xlink:href="#DejaVuSans-30"/>
      </g>
     </g>
    </g>
    <g id="ytick_8">
     <g id="line2d_14">
      <g>
       <use style="stroke:#000000;stroke-width:0.8;" x="44.57" xlink:href="#m6f08c04766" y="56.725635"/>
      </g>
     </g>
     <g id="text_15">
      <!-- 80 -->
      <g transform="translate(24.845 60.524854)scale(0.1 -0.1)">
       <defs>
        <path d="M 2034 2216 
Q 1584 2216 1326 1975 
Q 1069 1734 1069 1313 
Q 1069 891 1326 650 
Q 1584 409 2034 409 
Q 2484 409 2743 651 
Q 3003 894 3003 1313 
Q 3003 1734 2745 1975 
Q 2488 2216 2034 2216 
z
M 1403 2484 
Q 997 2584 770 2862 
Q 544 3141 544 3541 
Q 544 4100 942 4425 
Q 1341 4750 2034 4750 
Q 2731 4750 3128 4425 
Q 3525 4100 3525 3541 
Q 3525 3141 3298 2862 
Q 3072 2584 2669 2484 
Q 3125 2378 3379 2068 
Q 3634 1759 3634 1313 
Q 3634 634 3220 271 
Q 2806 -91 2034 -91 
Q 1263 -91 848 271 
Q 434 634 434 1313 
Q 434 1759 690 2068 
Q 947 2378 1403 2484 
z
M 1172 3481 
Q 1172 3119 1398 2916 
Q 1625 2713 2034 2713 
Q 2441 2713 2670 2916 
Q 2900 3119 2900 3481 
Q 2900 3844 2670 4047 
Q 2441 4250 2034 4250 
Q 1625 4250 1398 4047 
Q 1172 3844 1172 3481 
z
" id="DejaVuSans-38" transform="scale(0.015625)"/>
       </defs>
       <use xlink:href="#DejaVuSans-38"/>
       <use x="63.623047" xlink:href="#DejaVuSans-30"/>
      </g>
     </g>
    </g>
    <g id="text_16">
     <!-- Test Accuracy -->
     <g transform="translate(18.765313 202.520914)rotate(-90)scale(0.1 -0.1)">
      <defs>
       <path d="M -19 4666 
L 3928 4666 
L 3928 4134 
L 2272 4134 
L 2272 0 
L 1638 0 
L 1638 4134 
L -19 4134 
L -19 4666 
z
" id="DejaVuSans-54" transform="scale(0.015625)"/>
       <path d="M 3597 1894 
L 3597 1613 
L 953 1613 
Q 991 1019 1311 708 
Q 1631 397 2203 397 
Q 2534 397 2845 478 
Q 3156 559 3463 722 
L 3463 178 
Q 3153 47 2828 -22 
Q 2503 -91 2169 -91 
Q 1331 -91 842 396 
Q 353 884 353 1716 
Q 353 2575 817 3079 
Q 1281 3584 2069 3584 
Q 2775 3584 3186 3129 
Q 3597 2675 3597 1894 
z
M 3022 2063 
Q 3016 2534 2758 2815 
Q 2500 3097 2075 3097 
Q 1594 3097 1305 2825 
Q 1016 2553 972 2059 
L 3022 2063 
z
" id="DejaVuSans-65" transform="scale(0.015625)"/>
       <path d="M 2188 4044 
L 1331 1722 
L 3047 1722 
L 2188 4044 
z
M 1831 4666 
L 2547 4666 
L 4325 0 
L 3669 0 
L 3244 1197 
L 1141 1197 
L 716 0 
L 50 0 
L 1831 4666 
z
" id="DejaVuSans-41" transform="scale(0.015625)"/>
       <path d="M 2631 2963 
Q 2534 3019 2420 3045 
Q 2306 3072 2169 3072 
Q 1681 3072 1420 2755 
Q 1159 2438 1159 1844 
L 1159 0 
L 581 0 
L 581 3500 
L 1159 3500 
L 1159 2956 
Q 1341 3275 1631 3429 
Q 1922 3584 2338 3584 
Q 2397 3584 2469 3576 
Q 2541 3569 2628 3553 
L 2631 2963 
z
" id="DejaVuSans-72" transform="scale(0.015625)"/>
       <path d="M 2059 -325 
Q 1816 -950 1584 -1140 
Q 1353 -1331 966 -1331 
L 506 -1331 
L 506 -850 
L 844 -850 
Q 1081 -850 1212 -737 
Q 1344 -625 1503 -206 
L 1606 56 
L 191 3500 
L 800 3500 
L 1894 763 
L 2988 3500 
L 3597 3500 
L 2059 -325 
z
" id="DejaVuSans-79" transform="scale(0.015625)"/>
      </defs>
      <use xlink:href="#DejaVuSans-54"/>
      <use x="44.083984" xlink:href="#DejaVuSans-65"/>
      <use x="105.607422" xlink:href="#DejaVuSans-73"/>
      <use x="157.707031" xlink:href="#DejaVuSans-74"/>
      <use x="196.916016" xlink:href="#DejaVuSans-20"/>
      <use x="228.703125" xlink:href="#DejaVuSans-41"/>
      <use x="295.361328" xlink:href="#DejaVuSans-63"/>
      <use x="350.341797" xlink:href="#DejaVuSans-63"/>
      <use x="405.322266" xlink:href="#DejaVuSans-75"/>
      <use x="468.701172" xlink:href="#DejaVuSans-72"/>
      <use x="509.814453" xlink:href="#DejaVuSans-61"/>
      <use x="571.09375" xlink:href="#DejaVuSans-63"/>
      <use x="626.074219" xlink:href="#DejaVuSans-79"/>
     </g>
    </g>
   </g>
   <g id="line2d_15">
    <path clip-path="url(#pae6a7ccc4b)" d="M 62.998636 273.66006 
L 70.520529 213.00902 
L 78.042421 194.218103 
L 85.564314 179.453811 
L 93.086206 172.239441 
L 100.608098 162.256767 
L 108.129991 157.055709 
L 115.651883 150.596332 
L 123.173776 146.737483 
L 130.695668 136.503144 
L 138.21756 130.71487 
L 145.739453 123.164948 
L 153.261345 118.047779 
L 160.783237 111.840065 
L 168.30513 107.394 
L 175.827022 102.696271 
L 183.348915 101.605727 
L 190.870807 98.417982 
L 198.392699 96.404669 
L 205.914592 95.398013 
L 213.436484 90.951948 
L 220.958377 88.351419 
L 228.480269 85.499226 
L 236.002161 84.49257 
L 243.524054 81.556489 
L 251.045946 79.543177 
L 258.567839 78.033192 
L 266.089731 73.922679 
L 273.611623 74.426007 
L 281.133516 71.741591 
L 288.655408 69.392726 
L 296.177301 67.882742 
L 303.699193 66.959973 
L 311.221085 64.527221 
L 318.742978 61.842804 
L 326.26487 62.681684 
L 333.786763 61.507252 
L 341.308655 59.997268 
L 348.830547 58.571171 
L 356.35244 57.564515 
L 363.874332 58.990611 
L 371.396224 55.551202 
L 378.918117 55.383426 
L 386.440009 53.286226 
L 393.961902 51.608465 
L 401.483794 52.447346 
L 409.005686 52.866786 
L 416.527579 50.601809 
L 424.049471 49.762929 
L 431.571364 48.169056 
" style="fill:none;stroke:#1f77b4;stroke-linecap:square;stroke-width:1.5;"/>
   </g>
   <g id="line2d_16">
    <path clip-path="url(#pae6a7ccc4b)" d="M 62.998636 284.397727 
L 70.520529 217.706749 
L 78.042421 197.7414 
L 85.564314 186.332629 
L 93.086206 175.511074 
L 100.608098 165.612288 
L 108.129991 159.99179 
L 115.651883 154.958509 
L 123.173776 154.371293 
L 130.695668 145.14361 
L 138.21756 140.865321 
L 145.739453 133.650951 
L 153.261345 128.869334 
L 160.783237 117.544451 
L 168.30513 113.853378 
L 175.827022 109.071761 
L 183.348915 105.967904 
L 190.870807 104.374031 
L 198.392699 100.59907 
L 205.914592 97.495214 
L 213.436484 95.062461 
L 220.958377 91.790828 
L 228.480269 89.274187 
L 236.002161 86.505883 
L 243.524054 85.079786 
L 251.045946 83.23425 
L 258.567839 81.556489 
L 266.089731 76.607096 
L 273.611623 77.110424 
L 281.133516 76.690984 
L 288.655408 71.573815 
L 296.177301 73.587127 
L 303.699193 71.154375 
L 311.221085 72.412695 
L 318.742978 68.050518 
L 326.26487 69.560502 
L 333.786763 66.708309 
L 341.308655 65.366101 
L 348.830547 66.037205 
L 356.35244 62.681684 
L 363.874332 63.185012 
L 371.396224 62.346132 
L 378.918117 64.023893 
L 386.440009 61.1717 
L 393.961902 61.087812 
L 401.483794 59.326163 
L 409.005686 57.816179 
L 416.527579 58.319507 
L 424.049471 55.551202 
L 431.571364 56.893411 
" style="fill:none;stroke:#ff7f0e;stroke-linecap:square;stroke-width:1.5;"/>
   </g>
   <g id="line2d_17">
    <path clip-path="url(#pae6a7ccc4b)" d="M 62.998636 268.542891 
L 70.520529 223.914463 
L 78.042421 203.194122 
L 85.564314 191.533687 
L 93.086206 184.990421 
L 100.608098 171.903889 
L 108.129991 166.78672 
L 115.651883 158.062366 
L 123.173776 154.790733 
L 130.695668 151.015772 
L 138.21756 149.170235 
L 145.739453 144.808058 
L 153.261345 138.013128 
L 160.783237 134.99316 
L 168.30513 128.366006 
L 175.827022 125.178261 
L 183.348915 121.82274 
L 190.870807 118.802771 
L 198.392699 112.51117 
L 205.914592 107.226224 
L 213.436484 102.612383 
L 220.958377 101.354063 
L 228.480269 98.753534 
L 236.002161 93.888029 
L 243.524054 93.552477 
L 251.045946 92.042492 
L 258.567839 87.512539 
L 266.089731 86.421995 
L 273.611623 86.589771 
L 281.133516 85.163674 
L 288.655408 79.878729 
L 296.177301 80.130393 
L 303.699193 77.110424 
L 311.221085 78.200968 
L 318.742978 78.200968 
L 326.26487 76.690984 
L 333.786763 74.342119 
L 341.308655 72.328807 
L 348.830547 73.419351 
L 356.35244 70.48327 
L 363.874332 70.734934 
L 371.396224 68.80551 
L 378.918117 69.308838 
L 386.440009 67.882742 
L 393.961902 64.023893 
L 401.483794 64.191669 
L 409.005686 62.84946 
L 416.527579 61.926692 
L 424.049471 60.416708 
L 431.571364 61.003924 
" style="fill:none;stroke:#2ca02c;stroke-linecap:square;stroke-width:1.5;"/>
   </g>
   <g id="line2d_18">
    <path clip-path="url(#pae6a7ccc4b)" d="M 62.998636 285.846222 
L 70.520529 219.455395 
L 78.042421 195.087351 
L 85.564314 182.204164 
L 93.086206 171.454921 
L 100.608098 164.125289 
L 108.129991 155.112359 
L 115.651883 148.763546 
L 123.173776 142.46775 
L 130.695668 136.430413 
L 138.21756 130.240651 
L 145.739453 124.170179 
L 153.261345 120.240276 
L 160.783237 115.647659 
L 168.30513 112.353963 
L 175.827022 109.524169 
L 183.348915 107.019105 
L 190.870807 104.86528 
L 198.392699 103.738664 
L 205.914592 102.65181 
L 213.436484 102.678319 
L 220.958377 102.963287 
L 228.480269 101.922823 
L 236.002161 104.533922 
L 243.524054 105.839471 
L 251.045946 104.838771 
L 258.567839 105.229773 
L 266.089731 105.435215 
L 273.611623 108.165602 
L 281.133516 108.722283 
L 288.655408 108.45057 
L 296.177301 107.668566 
L 303.699193 109.338608 
L 311.221085 109.603695 
L 318.742978 112.068996 
L 326.26487 114.395127 
L 333.786763 114.130041 
L 341.308655 110.750192 
L 348.830547 112.188285 
L 356.35244 110.995397 
L 363.874332 113.122713 
L 371.396224 113.188985 
L 378.918117 112.904017 
L 386.440009 114.474653 
L 393.961902 117.178531 
L 401.483794 118.364792 
L 409.005686 116.734512 
L 416.527579 114.998198 
L 424.049471 117.629178 
L 431.571364 114.633704 
" style="fill:none;stroke:#d62728;stroke-linecap:square;stroke-width:1.5;"/>
   </g>
   <g id="patch_3">
    <path d="M 44.57 303.64 
L 44.57 32.876829 
" style="fill:none;stroke:#000000;stroke-linecap:square;stroke-linejoin:miter;stroke-width:0.8;"/>
   </g>
   <g id="patch_4">
    <path d="M 450 303.64 
L 450 32.876829 
" style="fill:none;stroke:#000000;stroke-linecap:square;stroke-linejoin:miter;stroke-width:0.8;"/>
   </g>
   <g id="patch_5">
    <path d="M 44.57 303.64 
L 450 303.64 
" style="fill:none;stroke:#000000;stroke-linecap:square;stroke-linejoin:miter;stroke-width:0.8;"/>
   </g>
   <g id="patch_6">
    <path d="M 44.57 32.876829 
L 450 32.876829 
" style="fill:none;stroke:#000000;stroke-linecap:square;stroke-linejoin:miter;stroke-width:0.8;"/>
   </g>
   <g id="legend_1">
    <g id="patch_7">
     <path d="M 80.886563 28.478637 
L 413.683438 28.478637 
Q 415.683438 28.478637 415.683438 26.478637 
L 415.683438 12.800512 
Q 415.683438 10.800512 413.683438 10.800512 
L 80.886563 10.800512 
Q 78.886563 10.800512 78.886563 12.800512 
L 78.886563 26.478637 
Q 78.886563 28.478637 80.886563 28.478637 
z
" style="fill:#ffffff;opacity:0.8;stroke:#cccccc;stroke-linejoin:miter;"/>
    </g>
    <g id="line2d_19">
     <path d="M 82.886563 18.898949 
L 102.886563 18.898949 
" style="fill:none;stroke:#1f77b4;stroke-linecap:square;stroke-width:1.5;"/>
    </g>
    <g id="line2d_20"/>
    <g id="text_17">
     <!-- FedAvg -->
     <g transform="translate(110.886563 22.398949)scale(0.1 -0.1)">
      <defs>
       <path d="M 628 4666 
L 3309 4666 
L 3309 4134 
L 1259 4134 
L 1259 2759 
L 3109 2759 
L 3109 2228 
L 1259 2228 
L 1259 0 
L 628 0 
L 628 4666 
z
" id="DejaVuSans-46" transform="scale(0.015625)"/>
       <path d="M 191 3500 
L 800 3500 
L 1894 563 
L 2988 3500 
L 3597 3500 
L 2284 0 
L 1503 0 
L 191 3500 
z
" id="DejaVuSans-76" transform="scale(0.015625)"/>
       <path d="M 2906 1791 
Q 2906 2416 2648 2759 
Q 2391 3103 1925 3103 
Q 1463 3103 1205 2759 
Q 947 2416 947 1791 
Q 947 1169 1205 825 
Q 1463 481 1925 481 
Q 2391 481 2648 825 
Q 2906 1169 2906 1791 
z
M 3481 434 
Q 3481 -459 3084 -895 
Q 2688 -1331 1869 -1331 
Q 1566 -1331 1297 -1286 
Q 1028 -1241 775 -1147 
L 775 -588 
Q 1028 -725 1275 -790 
Q 1522 -856 1778 -856 
Q 2344 -856 2625 -561 
Q 2906 -266 2906 331 
L 2906 616 
Q 2728 306 2450 153 
Q 2172 0 1784 0 
Q 1141 0 747 490 
Q 353 981 353 1791 
Q 353 2603 747 3093 
Q 1141 3584 1784 3584 
Q 2172 3584 2450 3431 
Q 2728 3278 2906 2969 
L 2906 3500 
L 3481 3500 
L 3481 434 
z
" id="DejaVuSans-67" transform="scale(0.015625)"/>
      </defs>
      <use xlink:href="#DejaVuSans-46"/>
      <use x="52.019531" xlink:href="#DejaVuSans-65"/>
      <use x="113.542969" xlink:href="#DejaVuSans-64"/>
      <use x="177.019531" xlink:href="#DejaVuSans-41"/>
      <use x="239.552734" xlink:href="#DejaVuSans-76"/>
      <use x="298.732422" xlink:href="#DejaVuSans-67"/>
     </g>
    </g>
    <g id="line2d_21">
     <path d="M 167.11 18.898949 
L 187.11 18.898949 
" style="fill:none;stroke:#ff7f0e;stroke-linecap:square;stroke-width:1.5;"/>
    </g>
    <g id="line2d_22"/>
    <g id="text_18">
     <!-- FedMed -->
     <g transform="translate(195.11 22.398949)scale(0.1 -0.1)">
      <defs>
       <path d="M 628 4666 
L 1569 4666 
L 2759 1491 
L 3956 4666 
L 4897 4666 
L 4897 0 
L 4281 0 
L 4281 4097 
L 3078 897 
L 2444 897 
L 1241 4097 
L 1241 0 
L 628 0 
L 628 4666 
z
" id="DejaVuSans-4d" transform="scale(0.015625)"/>
      </defs>
      <use xlink:href="#DejaVuSans-46"/>
      <use x="52.019531" xlink:href="#DejaVuSans-65"/>
      <use x="113.542969" xlink:href="#DejaVuSans-64"/>
      <use x="177.019531" xlink:href="#DejaVuSans-4d"/>
      <use x="263.298828" xlink:href="#DejaVuSans-65"/>
      <use x="324.822266" xlink:href="#DejaVuSans-64"/>
     </g>
    </g>
    <g id="line2d_23">
     <path d="M 253.942813 18.898949 
L 273.942813 18.898949 
" style="fill:none;stroke:#2ca02c;stroke-linecap:square;stroke-width:1.5;"/>
    </g>
    <g id="line2d_24"/>
    <g id="text_19">
     <!-- FedProx -->
     <g transform="translate(281.942813 22.398949)scale(0.1 -0.1)">
      <defs>
       <path d="M 1259 4147 
L 1259 2394 
L 2053 2394 
Q 2494 2394 2734 2622 
Q 2975 2850 2975 3272 
Q 2975 3691 2734 3919 
Q 2494 4147 2053 4147 
L 1259 4147 
z
M 628 4666 
L 2053 4666 
Q 2838 4666 3239 4311 
Q 3641 3956 3641 3272 
Q 3641 2581 3239 2228 
Q 2838 1875 2053 1875 
L 1259 1875 
L 1259 0 
L 628 0 
L 628 4666 
z
" id="DejaVuSans-50" transform="scale(0.015625)"/>
       <path d="M 3513 3500 
L 2247 1797 
L 3578 0 
L 2900 0 
L 1881 1375 
L 863 0 
L 184 0 
L 1544 1831 
L 300 3500 
L 978 3500 
L 1906 2253 
L 2834 3500 
L 3513 3500 
z
" id="DejaVuSans-78" transform="scale(0.015625)"/>
      </defs>
      <use xlink:href="#DejaVuSans-46"/>
      <use x="52.019531" xlink:href="#DejaVuSans-65"/>
      <use x="113.542969" xlink:href="#DejaVuSans-64"/>
      <use x="177.019531" xlink:href="#DejaVuSans-50"/>
      <use x="235.572266" xlink:href="#DejaVuSans-72"/>
      <use x="274.435547" xlink:href="#DejaVuSans-6f"/>
      <use x="332.492188" xlink:href="#DejaVuSans-78"/>
     </g>
    </g>
    <g id="line2d_25">
     <path d="M 341.111563 18.898949 
L 361.111563 18.898949 
" style="fill:none;stroke:#d62728;stroke-linecap:square;stroke-width:1.5;"/>
    </g>
    <g id="line2d_26"/>
    <g id="text_20">
     <!-- qFedAvg -->
     <g transform="translate(369.111563 22.398949)scale(0.1 -0.1)">
      <defs>
       <path d="M 947 1747 
Q 947 1113 1208 752 
Q 1469 391 1925 391 
Q 2381 391 2643 752 
Q 2906 1113 2906 1747 
Q 2906 2381 2643 2742 
Q 2381 3103 1925 3103 
Q 1469 3103 1208 2742 
Q 947 2381 947 1747 
z
M 2906 525 
Q 2725 213 2448 61 
Q 2172 -91 1784 -91 
Q 1150 -91 751 415 
Q 353 922 353 1747 
Q 353 2572 751 3078 
Q 1150 3584 1784 3584 
Q 2172 3584 2448 3432 
Q 2725 3281 2906 2969 
L 2906 3500 
L 3481 3500 
L 3481 -1331 
L 2906 -1331 
L 2906 525 
z
" id="DejaVuSans-71" transform="scale(0.015625)"/>
      </defs>
      <use xlink:href="#DejaVuSans-71"/>
      <use x="63.476562" xlink:href="#DejaVuSans-46"/>
      <use x="115.496094" xlink:href="#DejaVuSans-65"/>
      <use x="177.019531" xlink:href="#DejaVuSans-64"/>
      <use x="240.496094" xlink:href="#DejaVuSans-41"/>
      <use x="303.029297" xlink:href="#DejaVuSans-76"/>
      <use x="362.208984" xlink:href="#DejaVuSans-67"/>
     </g>
    </g>
   </g>
  </g>
 </g>
 <defs>
  <clipPath id="pae6a7ccc4b">
   <rect height="270.763171" width="405.43" x="44.57" y="32.876829"/>
  </clipPath>
 </defs>
</svg>
