<?xml version="1.0" encoding="utf-8" standalone="no"?>
<!DOCTYPE svg PUBLIC "-//W3C//DTD SVG 1.1//EN"
  "http://www.w3.org/Graphics/SVG/1.1/DTD/svg11.dtd">
<svg height="345.6pt" version="1.1" viewBox="0 0 460.8 345.6" width="460.8pt" xmlns="http://www.w3.org/2000/svg" xmlns:xlink="http://www.w3.org/1999/xlink">
 <metadata>
  <rdf:RDF xmlns:cc="http://creativecommons.org/ns#" xmlns:dc="http://purl.org/dc/elements/1.1/" xmlns:rdf="http://www.w3.org/1999/02/22-rdf-syntax-ns#">
   <cc:Work>
    <dc:type rdf:resource="http://purl.org/dc/dcmitype/StillImage"/>
    <dc:date>2021-05-07T12:06:43.442267</dc:date>
    <dc:format>image/svg+xml</dc:format>
    <dc:creator>
     <cc:Agent>
      <dc:title>Matplotlib v3.4.1, https://matplotlib.org/</dc:title>
     </cc:Agent>
    </dc:creator>
   </cc:Work>
  </rdf:RDF>
 </metadata>
 <defs>
  <style type="text/css">*{stroke-linecap:butt;stroke-linejoin:round;}</style>
 </defs>
 <g id="figure_1">
  <g id="patch_1">
   <path d="M 0 345.6 
L 460.8 345.6 
L 460.8 0 
L 0 0 
z
" style="fill:#ffffff;"/>
  </g>
  <g id="axes_1">
   <g id="patch_2">
    <path d="M 44.57 303.64 
L 450 303.64 
L 450 32.876829 
L 44.57 32.876829 
z
" style="fill:#ffffff;"/>
   </g>
   <g id="PolyCollection_1">
    <path clip-path="url(#p18b998817b)" d="M 62.998636 285.588242 
L 62.998636 288.502961 
L 70.520529 196.072927 
L 78.042421 152.114286 
L 85.564314 130.466947 
L 93.086206 115.619868 
L 100.608098 107.111325 
L 108.129991 99.596201 
L 115.651883 95.69179 
L 123.173776 92.845674 
L 130.695668 89.688308 
L 138.21756 83.367725 
L 145.739453 84.140794 
L 153.261345 85.376647 
L 160.783237 78.018888 
L 168.30513 74.505722 
L 175.827022 73.825544 
L 183.348915 76.016427 
L 190.870807 70.525492 
L 198.392699 69.058843 
L 205.914592 68.135219 
L 213.436484 67.878223 
L 220.958377 61.494393 
L 228.480269 63.023116 
L 236.002161 62.414573 
L 243.524054 61.560569 
L 251.045946 61.775071 
L 258.567839 61.310838 
L 266.089731 59.348564 
L 273.611623 59.310974 
L 281.133516 58.303589 
L 288.655408 57.369379 
L 296.177301 56.373742 
L 303.699193 54.518582 
L 311.221085 55.662148 
L 318.742978 53.776397 
L 326.26487 55.085909 
L 333.786763 54.858058 
L 341.308655 54.720539 
L 348.830547 53.059262 
L 356.35244 53.86165 
L 363.874332 52.87441 
L 371.396224 53.403956 
L 378.918117 55.103855 
L 386.440009 51.072838 
L 393.961902 50.215486 
L 401.483794 50.376773 
L 409.005686 50.259804 
L 416.527579 49.837441 
L 424.049471 48.94099 
L 431.571364 50.310914 
L 431.571364 47.298686 
L 431.571364 47.298686 
L 424.049471 47.478682 
L 416.527579 46.41224 
L 409.005686 46.669837 
L 401.483794 46.212888 
L 393.961902 45.184246 
L 386.440009 48.406651 
L 378.918117 48.965361 
L 371.396224 47.265462 
L 363.874332 49.324917 
L 356.35244 48.677656 
L 348.830547 49.990015 
L 341.308655 51.558545 
L 333.786763 50.571076 
L 326.26487 50.853195 
L 318.742978 50.802788 
L 311.221085 51.976855 
L 303.699193 52.610451 
L 296.177301 51.435251 
L 288.655408 52.309502 
L 281.133516 53.075191 
L 273.611623 51.727826 
L 266.089731 54.410073 
L 258.567839 55.167638 
L 251.045946 55.213374 
L 243.524054 57.127775 
L 236.002161 59.673569 
L 228.480269 58.215076 
L 220.958377 57.193951 
L 213.436484 62.199442 
L 205.914592 62.962385 
L 198.392699 66.458498 
L 190.870807 64.48188 
L 183.348915 70.550255 
L 175.827022 66.621503 
L 168.30513 70.021082 
L 160.783237 74.15746 
L 153.261345 75.129205 
L 145.739453 77.894967 
L 138.21756 80.027954 
L 130.695668 82.036875 
L 123.173776 85.339124 
L 115.651883 87.592705 
L 108.129991 91.507827 
L 100.608098 97.931872 
L 93.086206 105.232388 
L 85.564314 122.853374 
L 78.042421 143.363522 
L 70.520529 179.13013 
L 62.998636 285.588242 
z
" style="fill:#1f77b4;fill-opacity:0.5;"/>
   </g>
   <g id="PolyCollection_2">
    <path clip-path="url(#p18b998817b)" d="M 62.998636 285.588242 
L 62.998636 288.502961 
L 70.520529 239.22784 
L 78.042421 179.491858 
L 85.564314 157.793095 
L 93.086206 140.133996 
L 100.608098 122.631598 
L 108.129991 117.278655 
L 115.651883 115.845245 
L 123.173776 111.794241 
L 130.695668 109.970305 
L 138.21756 102.528444 
L 145.739453 105.348058 
L 153.261345 102.384303 
L 160.783237 100.526437 
L 168.30513 100.085456 
L 175.827022 97.394088 
L 183.348915 96.34858 
L 190.870807 94.151131 
L 198.392699 91.782841 
L 205.914592 87.914916 
L 213.436484 85.620265 
L 220.958377 84.040597 
L 228.480269 83.229519 
L 236.002161 84.534284 
L 243.524054 81.718622 
L 251.045946 77.60591 
L 258.567839 76.621633 
L 266.089731 77.379251 
L 273.611623 75.423344 
L 281.133516 74.210766 
L 288.655408 72.510283 
L 296.177301 74.501855 
L 303.699193 72.240242 
L 311.221085 71.450022 
L 318.742978 69.942886 
L 326.26487 70.736148 
L 333.786763 70.757833 
L 341.308655 69.215894 
L 348.830547 67.28527 
L 356.35244 65.743761 
L 363.874332 67.060036 
L 371.396224 63.256973 
L 378.918117 65.339293 
L 386.440009 66.561652 
L 393.961902 66.29728 
L 401.483794 64.134134 
L 409.005686 62.626808 
L 416.527579 60.366609 
L 424.049471 61.429703 
L 431.571364 62.171717 
L 431.571364 52.60686 
L 431.571364 52.60686 
L 424.049471 52.838905 
L 416.527579 57.471786 
L 409.005686 53.001718 
L 401.483794 55.744139 
L 393.961902 55.790861 
L 386.440009 58.416317 
L 378.918117 56.238879 
L 371.396224 58.491189 
L 363.874332 57.407964 
L 356.35244 59.064219 
L 348.830547 62.112436 
L 341.308655 63.921589 
L 333.786763 62.71963 
L 326.26487 65.291163 
L 318.742978 65.744445 
L 311.221085 66.277188 
L 303.699193 66.336917 
L 296.177301 68.155061 
L 288.655408 65.386916 
L 281.133516 71.335977 
L 273.611623 70.633369 
L 266.089731 70.207371 
L 258.567839 71.984928 
L 251.045946 72.87054 
L 243.524054 73.007574 
L 236.002161 73.7617 
L 228.480269 75.066465 
L 220.958377 79.015103 
L 213.436484 75.905526 
L 205.914592 85.000197 
L 198.392699 81.982221 
L 190.870807 85.903556 
L 183.348915 85.575996 
L 175.827022 89.630183 
L 168.30513 89.488663 
L 160.783237 94.827338 
L 153.261345 90.419624 
L 145.739453 96.975302 
L 138.21756 97.245067 
L 130.695668 103.912366 
L 123.173776 102.08843 
L 115.651883 106.02695 
L 108.129991 111.903104 
L 100.608098 121.16929 
L 93.086206 127.465473 
L 85.564314 148.734054 
L 78.042421 165.962971 
L 70.520529 208.730881 
L 62.998636 285.588242 
z
" style="fill:#ff7f0e;fill-opacity:0.5;"/>
   </g>
   <g id="PolyCollection_3">
    <path clip-path="url(#p18b998817b)" d="M 62.998636 282.75862 
L 62.998636 291.332583 
L 70.520529 193.169868 
L 78.042421 155.199882 
L 85.564314 134.804655 
L 93.086206 122.549175 
L 100.608098 113.975847 
L 108.129991 106.74018 
L 115.651883 96.741943 
L 123.173776 99.754387 
L 130.695668 96.508891 
L 138.21756 92.549793 
L 145.739453 92.100916 
L 153.261345 90.172002 
L 160.783237 88.136485 
L 168.30513 83.324322 
L 175.827022 82.818487 
L 183.348915 80.240055 
L 190.870807 79.182153 
L 198.392699 77.271459 
L 205.914592 77.691818 
L 213.436484 75.364054 
L 220.958377 73.641703 
L 228.480269 70.547118 
L 236.002161 69.812089 
L 243.524054 70.31238 
L 251.045946 69.729859 
L 258.567839 69.240602 
L 266.089731 68.803511 
L 273.611623 64.959282 
L 281.133516 65.009835 
L 288.655408 64.085439 
L 296.177301 62.234 
L 303.699193 65.069997 
L 311.221085 61.499247 
L 318.742978 61.102374 
L 326.26487 59.76151 
L 333.786763 58.536248 
L 341.308655 58.524425 
L 348.830547 58.564094 
L 356.35244 58.072356 
L 363.874332 58.392186 
L 371.396224 55.868597 
L 378.918117 57.650334 
L 386.440009 56.5454 
L 393.961902 57.547451 
L 401.483794 58.428693 
L 409.005686 53.886711 
L 416.527579 55.880019 
L 424.049471 55.88167 
L 431.571364 54.572628 
L 431.571364 48.476648 
L 431.571364 48.476648 
L 424.049471 49.377475 
L 416.527579 49.209135 
L 409.005686 49.842524 
L 401.483794 52.100137 
L 393.961902 51.451471 
L 386.440009 52.963491 
L 378.918117 54.068425 
L 371.396224 51.940396 
L 363.874332 51.626675 
L 356.35244 51.096555 
L 348.830547 53.324655 
L 341.308655 52.514375 
L 333.786763 54.71242 
L 326.26487 53.147178 
L 318.742978 55.716082 
L 311.221085 55.489198 
L 303.699193 53.448357 
L 296.177301 52.714567 
L 288.655408 53.922945 
L 281.133516 56.568336 
L 273.611623 58.318789 
L 266.089731 58.044347 
L 258.567839 61.007053 
L 251.045946 63.067644 
L 243.524054 62.825103 
L 236.002161 61.795485 
L 228.480269 63.950284 
L 220.958377 63.405546 
L 213.436484 65.592963 
L 205.914592 66.155027 
L 198.392699 66.405396 
L 190.870807 68.574458 
L 183.348915 72.956232 
L 175.827022 73.607608 
L 168.30513 72.081834 
L 160.783237 76.789104 
L 153.261345 76.793465 
L 145.739453 78.774318 
L 138.21756 83.085157 
L 130.695668 86.605613 
L 123.173776 90.499692 
L 115.651883 95.042045 
L 108.129991 92.863342 
L 100.608098 95.997057 
L 93.086206 107.312544 
L 85.564314 123.275381 
L 78.042421 148.60743 
L 70.520529 182.373169 
L 62.998636 282.75862 
z
" style="fill:#2ca02c;fill-opacity:0.5;"/>
   </g>
   <g id="PolyCollection_4">
    <path clip-path="url(#p18b998817b)" d="M 62.998636 289.25547 
L 62.998636 289.25547 
L 70.520529 210.562076 
L 78.042421 196.233561 
L 85.564314 196.016727 
L 93.086206 193.774857 
L 100.608098 200.53824 
L 108.129991 200.262588 
L 115.651883 198.882611 
L 123.173776 197.090378 
L 130.695668 196.433064 
L 138.21756 195.864265 
L 145.739453 194.785796 
L 153.261345 195.386934 
L 160.783237 194.549834 
L 168.30513 195.696318 
L 175.827022 194.262023 
L 183.348915 197.426766 
L 190.870807 197.660946 
L 198.392699 199.091563 
L 205.914592 200.249886 
L 213.436484 201.236959 
L 220.958377 200.821704 
L 228.480269 198.56811 
L 236.002161 201.667046 
L 243.524054 202.777505 
L 251.045946 204.819774 
L 258.567839 203.218701 
L 266.089731 202.081014 
L 273.611623 205.29001 
L 281.133516 205.124459 
L 288.655408 204.93071 
L 296.177301 207.542958 
L 303.699193 207.256975 
L 311.221085 205.594279 
L 318.742978 208.425727 
L 326.26487 208.980236 
L 333.786763 210.800246 
L 341.308655 209.998676 
L 348.830547 210.214166 
L 356.35244 212.308765 
L 363.874332 215.020748 
L 371.396224 212.215298 
L 378.918117 212.369829 
L 386.440009 210.301317 
L 393.961902 212.24157 
L 401.483794 208.607825 
L 409.005686 208.371853 
L 416.527579 211.648674 
L 424.049471 210.83074 
L 431.571364 208.355828 
L 431.571364 189.868107 
L 431.571364 189.868107 
L 424.049471 190.32076 
L 416.527579 190.201145 
L 409.005686 190.053519 
L 401.483794 190.045844 
L 393.961902 189.729112 
L 386.440009 189.72213 
L 378.918117 190.406604 
L 371.396224 189.446511 
L 363.874332 190.495242 
L 356.35244 189.527625 
L 348.830547 190.427025 
L 341.308655 190.185922 
L 333.786763 190.190104 
L 326.26487 190.788057 
L 318.742978 188.831305 
L 311.221085 188.53375 
L 303.699193 186.535324 
L 296.177301 188.424871 
L 288.655408 187.639532 
L 281.133516 188.399255 
L 273.611623 189.039457 
L 266.089731 190.328078 
L 258.567839 190.224439 
L 251.045946 189.805136 
L 243.524054 188.476675 
L 236.002161 188.741094 
L 228.480269 189.530208 
L 220.958377 190.271326 
L 213.436484 189.614345 
L 205.914592 189.271928 
L 198.392699 186.307486 
L 190.870807 187.469519 
L 183.348915 187.743987 
L 175.827022 186.745677 
L 168.30513 187.486913 
L 160.783237 187.357623 
L 153.261345 188.118598 
L 145.739453 184.073233 
L 138.21756 186.714652 
L 130.695668 187.314193 
L 123.173776 187.986371 
L 115.651883 188.208517 
L 108.129991 188.560907 
L 100.608098 188.231538 
L 93.086206 184.412711 
L 85.564314 185.366991 
L 78.042421 181.497415 
L 70.520529 197.37117 
L 62.998636 289.25547 
z
" style="fill:#d62728;fill-opacity:0.5;"/>
   </g>
   <g id="matplotlib.axis_1">
    <g id="xtick_1">
     <g id="line2d_1">
      <defs>
       <path d="M 0 0 
L 0 3.5 
" id="m28f9f53bac" style="stroke:#000000;stroke-width:0.8;"/>
      </defs>
      <g>
       <use style="stroke:#000000;stroke-width:0.8;" x="62.998636" xlink:href="#m28f9f53bac" y="303.64"/>
      </g>
     </g>
     <g id="text_1">
      <!-- 0 -->
      <g transform="translate(59.817386 318.238437)scale(0.1 -0.1)">
       <defs>
        <path d="M 2034 4250 
Q 1547 4250 1301 3770 
Q 1056 3291 1056 2328 
Q 1056 1369 1301 889 
Q 1547 409 2034 409 
Q 2525 409 2770 889 
Q 3016 1369 3016 2328 
Q 3016 3291 2770 3770 
Q 2525 4250 2034 4250 
z
M 2034 4750 
Q 2819 4750 3233 4129 
Q 3647 3509 3647 2328 
Q 3647 1150 3233 529 
Q 2819 -91 2034 -91 
Q 1250 -91 836 529 
Q 422 1150 422 2328 
Q 422 3509 836 4129 
Q 1250 4750 2034 4750 
z
" id="DejaVuSans-30" transform="scale(0.015625)"/>
       </defs>
       <use xlink:href="#DejaVuSans-30"/>
      </g>
     </g>
    </g>
    <g id="xtick_2">
     <g id="line2d_2">
      <g>
       <use style="stroke:#000000;stroke-width:0.8;" x="138.21756" xlink:href="#m28f9f53bac" y="303.64"/>
      </g>
     </g>
     <g id="text_2">
      <!-- 10 -->
      <g transform="translate(131.85506 318.238437)scale(0.1 -0.1)">
       <defs>
        <path d="M 794 531 
L 1825 531 
L 1825 4091 
L 703 3866 
L 703 4441 
L 1819 4666 
L 2450 4666 
L 2450 531 
L 3481 531 
L 3481 0 
L 794 0 
L 794 531 
z
" id="DejaVuSans-31" transform="scale(0.015625)"/>
       </defs>
       <use xlink:href="#DejaVuSans-31"/>
       <use x="63.623047" xlink:href="#DejaVuSans-30"/>
      </g>
     </g>
    </g>
    <g id="xtick_3">
     <g id="line2d_3">
      <g>
       <use style="stroke:#000000;stroke-width:0.8;" x="213.436484" xlink:href="#m28f9f53bac" y="303.64"/>
      </g>
     </g>
     <g id="text_3">
      <!-- 20 -->
      <g transform="translate(207.073984 318.238437)scale(0.1 -0.1)">
       <defs>
        <path d="M 1228 531 
L 3431 531 
L 3431 0 
L 469 0 
L 469 531 
Q 828 903 1448 1529 
Q 2069 2156 2228 2338 
Q 2531 2678 2651 2914 
Q 2772 3150 2772 3378 
Q 2772 3750 2511 3984 
Q 2250 4219 1831 4219 
Q 1534 4219 1204 4116 
Q 875 4013 500 3803 
L 500 4441 
Q 881 4594 1212 4672 
Q 1544 4750 1819 4750 
Q 2544 4750 2975 4387 
Q 3406 4025 3406 3419 
Q 3406 3131 3298 2873 
Q 3191 2616 2906 2266 
Q 2828 2175 2409 1742 
Q 1991 1309 1228 531 
z
" id="DejaVuSans-32" transform="scale(0.015625)"/>
       </defs>
       <use xlink:href="#DejaVuSans-32"/>
       <use x="63.623047" xlink:href="#DejaVuSans-30"/>
      </g>
     </g>
    </g>
    <g id="xtick_4">
     <g id="line2d_4">
      <g>
       <use style="stroke:#000000;stroke-width:0.8;" x="288.655408" xlink:href="#m28f9f53bac" y="303.64"/>
      </g>
     </g>
     <g id="text_4">
      <!-- 30 -->
      <g transform="translate(282.292908 318.238437)scale(0.1 -0.1)">
       <defs>
        <path d="M 2597 2516 
Q 3050 2419 3304 2112 
Q 3559 1806 3559 1356 
Q 3559 666 3084 287 
Q 2609 -91 1734 -91 
Q 1441 -91 1130 -33 
Q 819 25 488 141 
L 488 750 
Q 750 597 1062 519 
Q 1375 441 1716 441 
Q 2309 441 2620 675 
Q 2931 909 2931 1356 
Q 2931 1769 2642 2001 
Q 2353 2234 1838 2234 
L 1294 2234 
L 1294 2753 
L 1863 2753 
Q 2328 2753 2575 2939 
Q 2822 3125 2822 3475 
Q 2822 3834 2567 4026 
Q 2313 4219 1838 4219 
Q 1578 4219 1281 4162 
Q 984 4106 628 3988 
L 628 4550 
Q 988 4650 1302 4700 
Q 1616 4750 1894 4750 
Q 2613 4750 3031 4423 
Q 3450 4097 3450 3541 
Q 3450 3153 3228 2886 
Q 3006 2619 2597 2516 
z
" id="DejaVuSans-33" transform="scale(0.015625)"/>
       </defs>
       <use xlink:href="#DejaVuSans-33"/>
       <use x="63.623047" xlink:href="#DejaVuSans-30"/>
      </g>
     </g>
    </g>
    <g id="xtick_5">
     <g id="line2d_5">
      <g>
       <use style="stroke:#000000;stroke-width:0.8;" x="363.874332" xlink:href="#m28f9f53bac" y="303.64"/>
      </g>
     </g>
     <g id="text_5">
      <!-- 40 -->
      <g transform="translate(357.511832 318.238437)scale(0.1 -0.1)">
       <defs>
        <path d="M 2419 4116 
L 825 1625 
L 2419 1625 
L 2419 4116 
z
M 2253 4666 
L 3047 4666 
L 3047 1625 
L 3713 1625 
L 3713 1100 
L 3047 1100 
L 3047 0 
L 2419 0 
L 2419 1100 
L 313 1100 
L 313 1709 
L 2253 4666 
z
" id="DejaVuSans-34" transform="scale(0.015625)"/>
       </defs>
       <use xlink:href="#DejaVuSans-34"/>
       <use x="63.623047" xlink:href="#DejaVuSans-30"/>
      </g>
     </g>
    </g>
    <g id="xtick_6">
     <g id="line2d_6">
      <g>
       <use style="stroke:#000000;stroke-width:0.8;" x="439.093256" xlink:href="#m28f9f53bac" y="303.64"/>
      </g>
     </g>
     <g id="text_6">
      <!-- 50 -->
      <g transform="translate(432.730756 318.238437)scale(0.1 -0.1)">
       <defs>
        <path d="M 691 4666 
L 3169 4666 
L 3169 4134 
L 1269 4134 
L 1269 2991 
Q 1406 3038 1543 3061 
Q 1681 3084 1819 3084 
Q 2600 3084 3056 2656 
Q 3513 2228 3513 1497 
Q 3513 744 3044 326 
Q 2575 -91 1722 -91 
Q 1428 -91 1123 -41 
Q 819 9 494 109 
L 494 744 
Q 775 591 1075 516 
Q 1375 441 1709 441 
Q 2250 441 2565 725 
Q 2881 1009 2881 1497 
Q 2881 1984 2565 2268 
Q 2250 2553 1709 2553 
Q 1456 2553 1204 2497 
Q 953 2441 691 2322 
L 691 4666 
z
" id="DejaVuSans-35" transform="scale(0.015625)"/>
       </defs>
       <use xlink:href="#DejaVuSans-35"/>
       <use x="63.623047" xlink:href="#DejaVuSans-30"/>
      </g>
     </g>
    </g>
    <g id="text_7">
     <!-- Global Communication Rounds -->
     <g transform="translate(170.323281 331.916562)scale(0.1 -0.1)">
      <defs>
       <path d="M 3809 666 
L 3809 1919 
L 2778 1919 
L 2778 2438 
L 4434 2438 
L 4434 434 
Q 4069 175 3628 42 
Q 3188 -91 2688 -91 
Q 1594 -91 976 548 
Q 359 1188 359 2328 
Q 359 3472 976 4111 
Q 1594 4750 2688 4750 
Q 3144 4750 3555 4637 
Q 3966 4525 4313 4306 
L 4313 3634 
Q 3963 3931 3569 4081 
Q 3175 4231 2741 4231 
Q 1884 4231 1454 3753 
Q 1025 3275 1025 2328 
Q 1025 1384 1454 906 
Q 1884 428 2741 428 
Q 3075 428 3337 486 
Q 3600 544 3809 666 
z
" id="DejaVuSans-47" transform="scale(0.015625)"/>
       <path d="M 603 4863 
L 1178 4863 
L 1178 0 
L 603 0 
L 603 4863 
z
" id="DejaVuSans-6c" transform="scale(0.015625)"/>
       <path d="M 1959 3097 
Q 1497 3097 1228 2736 
Q 959 2375 959 1747 
Q 959 1119 1226 758 
Q 1494 397 1959 397 
Q 2419 397 2687 759 
Q 2956 1122 2956 1747 
Q 2956 2369 2687 2733 
Q 2419 3097 1959 3097 
z
M 1959 3584 
Q 2709 3584 3137 3096 
Q 3566 2609 3566 1747 
Q 3566 888 3137 398 
Q 2709 -91 1959 -91 
Q 1206 -91 779 398 
Q 353 888 353 1747 
Q 353 2609 779 3096 
Q 1206 3584 1959 3584 
z
" id="DejaVuSans-6f" transform="scale(0.015625)"/>
       <path d="M 3116 1747 
Q 3116 2381 2855 2742 
Q 2594 3103 2138 3103 
Q 1681 3103 1420 2742 
Q 1159 2381 1159 1747 
Q 1159 1113 1420 752 
Q 1681 391 2138 391 
Q 2594 391 2855 752 
Q 3116 1113 3116 1747 
z
M 1159 2969 
Q 1341 3281 1617 3432 
Q 1894 3584 2278 3584 
Q 2916 3584 3314 3078 
Q 3713 2572 3713 1747 
Q 3713 922 3314 415 
Q 2916 -91 2278 -91 
Q 1894 -91 1617 61 
Q 1341 213 1159 525 
L 1159 0 
L 581 0 
L 581 4863 
L 1159 4863 
L 1159 2969 
z
" id="DejaVuSans-62" transform="scale(0.015625)"/>
       <path d="M 2194 1759 
Q 1497 1759 1228 1600 
Q 959 1441 959 1056 
Q 959 750 1161 570 
Q 1363 391 1709 391 
Q 2188 391 2477 730 
Q 2766 1069 2766 1631 
L 2766 1759 
L 2194 1759 
z
M 3341 1997 
L 3341 0 
L 2766 0 
L 2766 531 
Q 2569 213 2275 61 
Q 1981 -91 1556 -91 
Q 1019 -91 701 211 
Q 384 513 384 1019 
Q 384 1609 779 1909 
Q 1175 2209 1959 2209 
L 2766 2209 
L 2766 2266 
Q 2766 2663 2505 2880 
Q 2244 3097 1772 3097 
Q 1472 3097 1187 3025 
Q 903 2953 641 2809 
L 641 3341 
Q 956 3463 1253 3523 
Q 1550 3584 1831 3584 
Q 2591 3584 2966 3190 
Q 3341 2797 3341 1997 
z
" id="DejaVuSans-61" transform="scale(0.015625)"/>
       <path id="DejaVuSans-20" transform="scale(0.015625)"/>
       <path d="M 4122 4306 
L 4122 3641 
Q 3803 3938 3442 4084 
Q 3081 4231 2675 4231 
Q 1875 4231 1450 3742 
Q 1025 3253 1025 2328 
Q 1025 1406 1450 917 
Q 1875 428 2675 428 
Q 3081 428 3442 575 
Q 3803 722 4122 1019 
L 4122 359 
Q 3791 134 3420 21 
Q 3050 -91 2638 -91 
Q 1578 -91 968 557 
Q 359 1206 359 2328 
Q 359 3453 968 4101 
Q 1578 4750 2638 4750 
Q 3056 4750 3426 4639 
Q 3797 4528 4122 4306 
z
" id="DejaVuSans-43" transform="scale(0.015625)"/>
       <path d="M 3328 2828 
Q 3544 3216 3844 3400 
Q 4144 3584 4550 3584 
Q 5097 3584 5394 3201 
Q 5691 2819 5691 2113 
L 5691 0 
L 5113 0 
L 5113 2094 
Q 5113 2597 4934 2840 
Q 4756 3084 4391 3084 
Q 3944 3084 3684 2787 
Q 3425 2491 3425 1978 
L 3425 0 
L 2847 0 
L 2847 2094 
Q 2847 2600 2669 2842 
Q 2491 3084 2119 3084 
Q 1678 3084 1418 2786 
Q 1159 2488 1159 1978 
L 1159 0 
L 581 0 
L 581 3500 
L 1159 3500 
L 1159 2956 
Q 1356 3278 1631 3431 
Q 1906 3584 2284 3584 
Q 2666 3584 2933 3390 
Q 3200 3197 3328 2828 
z
" id="DejaVuSans-6d" transform="scale(0.015625)"/>
       <path d="M 544 1381 
L 544 3500 
L 1119 3500 
L 1119 1403 
Q 1119 906 1312 657 
Q 1506 409 1894 409 
Q 2359 409 2629 706 
Q 2900 1003 2900 1516 
L 2900 3500 
L 3475 3500 
L 3475 0 
L 2900 0 
L 2900 538 
Q 2691 219 2414 64 
Q 2138 -91 1772 -91 
Q 1169 -91 856 284 
Q 544 659 544 1381 
z
M 1991 3584 
L 1991 3584 
z
" id="DejaVuSans-75" transform="scale(0.015625)"/>
       <path d="M 3513 2113 
L 3513 0 
L 2938 0 
L 2938 2094 
Q 2938 2591 2744 2837 
Q 2550 3084 2163 3084 
Q 1697 3084 1428 2787 
Q 1159 2491 1159 1978 
L 1159 0 
L 581 0 
L 581 3500 
L 1159 3500 
L 1159 2956 
Q 1366 3272 1645 3428 
Q 1925 3584 2291 3584 
Q 2894 3584 3203 3211 
Q 3513 2838 3513 2113 
z
" id="DejaVuSans-6e" transform="scale(0.015625)"/>
       <path d="M 603 3500 
L 1178 3500 
L 1178 0 
L 603 0 
L 603 3500 
z
M 603 4863 
L 1178 4863 
L 1178 4134 
L 603 4134 
L 603 4863 
z
" id="DejaVuSans-69" transform="scale(0.015625)"/>
       <path d="M 3122 3366 
L 3122 2828 
Q 2878 2963 2633 3030 
Q 2388 3097 2138 3097 
Q 1578 3097 1268 2742 
Q 959 2388 959 1747 
Q 959 1106 1268 751 
Q 1578 397 2138 397 
Q 2388 397 2633 464 
Q 2878 531 3122 666 
L 3122 134 
Q 2881 22 2623 -34 
Q 2366 -91 2075 -91 
Q 1284 -91 818 406 
Q 353 903 353 1747 
Q 353 2603 823 3093 
Q 1294 3584 2113 3584 
Q 2378 3584 2631 3529 
Q 2884 3475 3122 3366 
z
" id="DejaVuSans-63" transform="scale(0.015625)"/>
       <path d="M 1172 4494 
L 1172 3500 
L 2356 3500 
L 2356 3053 
L 1172 3053 
L 1172 1153 
Q 1172 725 1289 603 
Q 1406 481 1766 481 
L 2356 481 
L 2356 0 
L 1766 0 
Q 1100 0 847 248 
Q 594 497 594 1153 
L 594 3053 
L 172 3053 
L 172 3500 
L 594 3500 
L 594 4494 
L 1172 4494 
z
" id="DejaVuSans-74" transform="scale(0.015625)"/>
       <path d="M 2841 2188 
Q 3044 2119 3236 1894 
Q 3428 1669 3622 1275 
L 4263 0 
L 3584 0 
L 2988 1197 
Q 2756 1666 2539 1819 
Q 2322 1972 1947 1972 
L 1259 1972 
L 1259 0 
L 628 0 
L 628 4666 
L 2053 4666 
Q 2853 4666 3247 4331 
Q 3641 3997 3641 3322 
Q 3641 2881 3436 2590 
Q 3231 2300 2841 2188 
z
M 1259 4147 
L 1259 2491 
L 2053 2491 
Q 2509 2491 2742 2702 
Q 2975 2913 2975 3322 
Q 2975 3731 2742 3939 
Q 2509 4147 2053 4147 
L 1259 4147 
z
" id="DejaVuSans-52" transform="scale(0.015625)"/>
       <path d="M 2906 2969 
L 2906 4863 
L 3481 4863 
L 3481 0 
L 2906 0 
L 2906 525 
Q 2725 213 2448 61 
Q 2172 -91 1784 -91 
Q 1150 -91 751 415 
Q 353 922 353 1747 
Q 353 2572 751 3078 
Q 1150 3584 1784 3584 
Q 2172 3584 2448 3432 
Q 2725 3281 2906 2969 
z
M 947 1747 
Q 947 1113 1208 752 
Q 1469 391 1925 391 
Q 2381 391 2643 752 
Q 2906 1113 2906 1747 
Q 2906 2381 2643 2742 
Q 2381 3103 1925 3103 
Q 1469 3103 1208 2742 
Q 947 2381 947 1747 
z
" id="DejaVuSans-64" transform="scale(0.015625)"/>
       <path d="M 2834 3397 
L 2834 2853 
Q 2591 2978 2328 3040 
Q 2066 3103 1784 3103 
Q 1356 3103 1142 2972 
Q 928 2841 928 2578 
Q 928 2378 1081 2264 
Q 1234 2150 1697 2047 
L 1894 2003 
Q 2506 1872 2764 1633 
Q 3022 1394 3022 966 
Q 3022 478 2636 193 
Q 2250 -91 1575 -91 
Q 1294 -91 989 -36 
Q 684 19 347 128 
L 347 722 
Q 666 556 975 473 
Q 1284 391 1588 391 
Q 1994 391 2212 530 
Q 2431 669 2431 922 
Q 2431 1156 2273 1281 
Q 2116 1406 1581 1522 
L 1381 1569 
Q 847 1681 609 1914 
Q 372 2147 372 2553 
Q 372 3047 722 3315 
Q 1072 3584 1716 3584 
Q 2034 3584 2315 3537 
Q 2597 3491 2834 3397 
z
" id="DejaVuSans-73" transform="scale(0.015625)"/>
      </defs>
      <use xlink:href="#DejaVuSans-47"/>
      <use x="77.490234" xlink:href="#DejaVuSans-6c"/>
      <use x="105.273438" xlink:href="#DejaVuSans-6f"/>
      <use x="166.455078" xlink:href="#DejaVuSans-62"/>
      <use x="229.931641" xlink:href="#DejaVuSans-61"/>
      <use x="291.210938" xlink:href="#DejaVuSans-6c"/>
      <use x="318.994141" xlink:href="#DejaVuSans-20"/>
      <use x="350.78125" xlink:href="#DejaVuSans-43"/>
      <use x="420.605469" xlink:href="#DejaVuSans-6f"/>
      <use x="481.787109" xlink:href="#DejaVuSans-6d"/>
      <use x="579.199219" xlink:href="#DejaVuSans-6d"/>
      <use x="676.611328" xlink:href="#DejaVuSans-75"/>
      <use x="739.990234" xlink:href="#DejaVuSans-6e"/>
      <use x="803.369141" xlink:href="#DejaVuSans-69"/>
      <use x="831.152344" xlink:href="#DejaVuSans-63"/>
      <use x="886.132812" xlink:href="#DejaVuSans-61"/>
      <use x="947.412109" xlink:href="#DejaVuSans-74"/>
      <use x="986.621094" xlink:href="#DejaVuSans-69"/>
      <use x="1014.404297" xlink:href="#DejaVuSans-6f"/>
      <use x="1075.585938" xlink:href="#DejaVuSans-6e"/>
      <use x="1138.964844" xlink:href="#DejaVuSans-20"/>
      <use x="1170.751953" xlink:href="#DejaVuSans-52"/>
      <use x="1235.734375" xlink:href="#DejaVuSans-6f"/>
      <use x="1296.916016" xlink:href="#DejaVuSans-75"/>
      <use x="1360.294922" xlink:href="#DejaVuSans-6e"/>
      <use x="1423.673828" xlink:href="#DejaVuSans-64"/>
      <use x="1487.150391" xlink:href="#DejaVuSans-73"/>
     </g>
    </g>
   </g>
   <g id="matplotlib.axis_2">
    <g id="ytick_1">
     <g id="line2d_7">
      <defs>
       <path d="M 0 0 
L -3.5 0 
" id="ma2cb11beef" style="stroke:#000000;stroke-width:0.8;"/>
      </defs>
      <g>
       <use style="stroke:#000000;stroke-width:0.8;" x="44.57" xlink:href="#ma2cb11beef" y="289.25547"/>
      </g>
     </g>
     <g id="text_8">
      <!-- 10 -->
      <g transform="translate(24.845 293.054689)scale(0.1 -0.1)">
       <use xlink:href="#DejaVuSans-31"/>
       <use x="63.623047" xlink:href="#DejaVuSans-30"/>
      </g>
     </g>
    </g>
    <g id="ytick_2">
     <g id="line2d_8">
      <g>
       <use style="stroke:#000000;stroke-width:0.8;" x="44.57" xlink:href="#ma2cb11beef" y="255.682471"/>
      </g>
     </g>
     <g id="text_9">
      <!-- 20 -->
      <g transform="translate(24.845 259.48169)scale(0.1 -0.1)">
       <use xlink:href="#DejaVuSans-32"/>
       <use x="63.623047" xlink:href="#DejaVuSans-30"/>
      </g>
     </g>
    </g>
    <g id="ytick_3">
     <g id="line2d_9">
      <g>
       <use style="stroke:#000000;stroke-width:0.8;" x="44.57" xlink:href="#ma2cb11beef" y="222.109472"/>
      </g>
     </g>
     <g id="text_10">
      <!-- 30 -->
      <g transform="translate(24.845 225.90869)scale(0.1 -0.1)">
       <use xlink:href="#DejaVuSans-33"/>
       <use x="63.623047" xlink:href="#DejaVuSans-30"/>
      </g>
     </g>
    </g>
    <g id="ytick_4">
     <g id="line2d_10">
      <g>
       <use style="stroke:#000000;stroke-width:0.8;" x="44.57" xlink:href="#ma2cb11beef" y="188.536473"/>
      </g>
     </g>
     <g id="text_11">
      <!-- 40 -->
      <g transform="translate(24.845 192.335691)scale(0.1 -0.1)">
       <use xlink:href="#DejaVuSans-34"/>
       <use x="63.623047" xlink:href="#DejaVuSans-30"/>
      </g>
     </g>
    </g>
    <g id="ytick_5">
     <g id="line2d_11">
      <g>
       <use style="stroke:#000000;stroke-width:0.8;" x="44.57" xlink:href="#ma2cb11beef" y="154.963473"/>
      </g>
     </g>
     <g id="text_12">
      <!-- 50 -->
      <g transform="translate(24.845 158.762692)scale(0.1 -0.1)">
       <use xlink:href="#DejaVuSans-35"/>
       <use x="63.623047" xlink:href="#DejaVuSans-30"/>
      </g>
     </g>
    </g>
    <g id="ytick_6">
     <g id="line2d_12">
      <g>
       <use style="stroke:#000000;stroke-width:0.8;" x="44.57" xlink:href="#ma2cb11beef" y="121.390474"/>
      </g>
     </g>
     <g id="text_13">
      <!-- 60 -->
      <g transform="translate(24.845 125.189693)scale(0.1 -0.1)">
       <defs>
        <path d="M 2113 2584 
Q 1688 2584 1439 2293 
Q 1191 2003 1191 1497 
Q 1191 994 1439 701 
Q 1688 409 2113 409 
Q 2538 409 2786 701 
Q 3034 994 3034 1497 
Q 3034 2003 2786 2293 
Q 2538 2584 2113 2584 
z
M 3366 4563 
L 3366 3988 
Q 3128 4100 2886 4159 
Q 2644 4219 2406 4219 
Q 1781 4219 1451 3797 
Q 1122 3375 1075 2522 
Q 1259 2794 1537 2939 
Q 1816 3084 2150 3084 
Q 2853 3084 3261 2657 
Q 3669 2231 3669 1497 
Q 3669 778 3244 343 
Q 2819 -91 2113 -91 
Q 1303 -91 875 529 
Q 447 1150 447 2328 
Q 447 3434 972 4092 
Q 1497 4750 2381 4750 
Q 2619 4750 2861 4703 
Q 3103 4656 3366 4563 
z
" id="DejaVuSans-36" transform="scale(0.015625)"/>
       </defs>
       <use xlink:href="#DejaVuSans-36"/>
       <use x="63.623047" xlink:href="#DejaVuSans-30"/>
      </g>
     </g>
    </g>
    <g id="ytick_7">
     <g id="line2d_13">
      <g>
       <use style="stroke:#000000;stroke-width:0.8;" x="44.57" xlink:href="#ma2cb11beef" y="87.817475"/>
      </g>
     </g>
     <g id="text_14">
      <!-- 70 -->
      <g transform="translate(24.845 91.616694)scale(0.1 -0.1)">
       <defs>
        <path d="M 525 4666 
L 3525 4666 
L 3525 4397 
L 1831 0 
L 1172 0 
L 2766 4134 
L 525 4134 
L 525 4666 
z
" id="DejaVuSans-37" transform="scale(0.015625)"/>
       </defs>
       <use xlink:href="#DejaVuSans-37"/>
       <use x="63.623047" xlink:href="#DejaVuSans-30"/>
      </g>
     </g>
    </g>
    <g id="ytick_8">
     <g id="line2d_14">
      <g>
       <use style="stroke:#000000;stroke-width:0.8;" x="44.57" xlink:href="#ma2cb11beef" y="54.244476"/>
      </g>
     </g>
     <g id="text_15">
      <!-- 80 -->
      <g transform="translate(24.845 58.043695)scale(0.1 -0.1)">
       <defs>
        <path d="M 2034 2216 
Q 1584 2216 1326 1975 
Q 1069 1734 1069 1313 
Q 1069 891 1326 650 
Q 1584 409 2034 409 
Q 2484 409 2743 651 
Q 3003 894 3003 1313 
Q 3003 1734 2745 1975 
Q 2488 2216 2034 2216 
z
M 1403 2484 
Q 997 2584 770 2862 
Q 544 3141 544 3541 
Q 544 4100 942 4425 
Q 1341 4750 2034 4750 
Q 2731 4750 3128 4425 
Q 3525 4100 3525 3541 
Q 3525 3141 3298 2862 
Q 3072 2584 2669 2484 
Q 3125 2378 3379 2068 
Q 3634 1759 3634 1313 
Q 3634 634 3220 271 
Q 2806 -91 2034 -91 
Q 1263 -91 848 271 
Q 434 634 434 1313 
Q 434 1759 690 2068 
Q 947 2378 1403 2484 
z
M 1172 3481 
Q 1172 3119 1398 2916 
Q 1625 2713 2034 2713 
Q 2441 2713 2670 2916 
Q 2900 3119 2900 3481 
Q 2900 3844 2670 4047 
Q 2441 4250 2034 4250 
Q 1625 4250 1398 4047 
Q 1172 3844 1172 3481 
z
" id="DejaVuSans-38" transform="scale(0.015625)"/>
       </defs>
       <use xlink:href="#DejaVuSans-38"/>
       <use x="63.623047" xlink:href="#DejaVuSans-30"/>
      </g>
     </g>
    </g>
    <g id="text_16">
     <!-- Test Accuracy -->
     <g transform="translate(18.765313 202.520914)rotate(-90)scale(0.1 -0.1)">
      <defs>
       <path d="M -19 4666 
L 3928 4666 
L 3928 4134 
L 2272 4134 
L 2272 0 
L 1638 0 
L 1638 4134 
L -19 4134 
L -19 4666 
z
" id="DejaVuSans-54" transform="scale(0.015625)"/>
       <path d="M 3597 1894 
L 3597 1613 
L 953 1613 
Q 991 1019 1311 708 
Q 1631 397 2203 397 
Q 2534 397 2845 478 
Q 3156 559 3463 722 
L 3463 178 
Q 3153 47 2828 -22 
Q 2503 -91 2169 -91 
Q 1331 -91 842 396 
Q 353 884 353 1716 
Q 353 2575 817 3079 
Q 1281 3584 2069 3584 
Q 2775 3584 3186 3129 
Q 3597 2675 3597 1894 
z
M 3022 2063 
Q 3016 2534 2758 2815 
Q 2500 3097 2075 3097 
Q 1594 3097 1305 2825 
Q 1016 2553 972 2059 
L 3022 2063 
z
" id="DejaVuSans-65" transform="scale(0.015625)"/>
       <path d="M 2188 4044 
L 1331 1722 
L 3047 1722 
L 2188 4044 
z
M 1831 4666 
L 2547 4666 
L 4325 0 
L 3669 0 
L 3244 1197 
L 1141 1197 
L 716 0 
L 50 0 
L 1831 4666 
z
" id="DejaVuSans-41" transform="scale(0.015625)"/>
       <path d="M 2631 2963 
Q 2534 3019 2420 3045 
Q 2306 3072 2169 3072 
Q 1681 3072 1420 2755 
Q 1159 2438 1159 1844 
L 1159 0 
L 581 0 
L 581 3500 
L 1159 3500 
L 1159 2956 
Q 1341 3275 1631 3429 
Q 1922 3584 2338 3584 
Q 2397 3584 2469 3576 
Q 2541 3569 2628 3553 
L 2631 2963 
z
" id="DejaVuSans-72" transform="scale(0.015625)"/>
       <path d="M 2059 -325 
Q 1816 -950 1584 -1140 
Q 1353 -1331 966 -1331 
L 506 -1331 
L 506 -850 
L 844 -850 
Q 1081 -850 1212 -737 
Q 1344 -625 1503 -206 
L 1606 56 
L 191 3500 
L 800 3500 
L 1894 763 
L 2988 3500 
L 3597 3500 
L 2059 -325 
z
" id="DejaVuSans-79" transform="scale(0.015625)"/>
      </defs>
      <use xlink:href="#DejaVuSans-54"/>
      <use x="44.083984" xlink:href="#DejaVuSans-65"/>
      <use x="105.607422" xlink:href="#DejaVuSans-73"/>
      <use x="157.707031" xlink:href="#DejaVuSans-74"/>
      <use x="196.916016" xlink:href="#DejaVuSans-20"/>
      <use x="228.703125" xlink:href="#DejaVuSans-41"/>
      <use x="295.361328" xlink:href="#DejaVuSans-63"/>
      <use x="350.341797" xlink:href="#DejaVuSans-63"/>
      <use x="405.322266" xlink:href="#DejaVuSans-75"/>
      <use x="468.701172" xlink:href="#DejaVuSans-72"/>
      <use x="509.814453" xlink:href="#DejaVuSans-61"/>
      <use x="571.09375" xlink:href="#DejaVuSans-63"/>
      <use x="626.074219" xlink:href="#DejaVuSans-79"/>
     </g>
    </g>
   </g>
   <g id="line2d_15">
    <path clip-path="url(#p18b998817b)" d="M 62.998636 287.045602 
L 70.520529 187.601528 
L 78.042421 147.738904 
L 85.564314 126.66016 
L 93.086206 110.426128 
L 100.608098 102.521599 
L 108.129991 95.552014 
L 115.651883 91.642247 
L 123.173776 89.092399 
L 130.695668 85.862592 
L 138.21756 81.69784 
L 145.739453 81.01788 
L 153.261345 80.252926 
L 160.783237 76.088174 
L 168.30513 72.263402 
L 175.827022 70.223524 
L 183.348915 73.283341 
L 190.870807 67.503686 
L 198.392699 67.758671 
L 205.914592 65.548802 
L 213.436484 65.038833 
L 220.958377 59.344172 
L 228.480269 60.619096 
L 236.002161 61.044071 
L 243.524054 59.344172 
L 251.045946 58.494223 
L 258.567839 58.239238 
L 266.089731 56.879319 
L 273.611623 55.5194 
L 281.133516 55.68939 
L 288.655408 54.839441 
L 296.177301 53.904496 
L 303.699193 53.564516 
L 311.221085 53.819501 
L 318.742978 52.289592 
L 326.26487 52.969552 
L 333.786763 52.714567 
L 341.308655 53.139542 
L 348.830547 51.524638 
L 356.35244 51.269653 
L 363.874332 51.099663 
L 371.396224 50.334709 
L 378.918117 52.034608 
L 386.440009 49.739744 
L 393.961902 47.699866 
L 401.483794 48.294831 
L 409.005686 48.46482 
L 416.527579 48.124841 
L 424.049471 48.209836 
L 431.571364 48.8048 
" style="fill:none;stroke:#1f77b4;stroke-linecap:square;stroke-width:1.5;"/>
   </g>
   <g id="line2d_16">
    <path clip-path="url(#p18b998817b)" d="M 62.998636 287.045602 
L 70.520529 223.97936 
L 78.042421 172.727415 
L 85.564314 153.263575 
L 93.086206 133.799735 
L 100.608098 121.900444 
L 108.129991 114.59088 
L 115.651883 110.936097 
L 123.173776 106.941335 
L 130.695668 106.941335 
L 138.21756 99.886756 
L 145.739453 101.16168 
L 153.261345 96.401964 
L 160.783237 97.676888 
L 168.30513 94.78706 
L 175.827022 93.512136 
L 183.348915 90.962288 
L 190.870807 90.027343 
L 198.392699 86.882531 
L 205.914592 86.457556 
L 213.436484 80.762896 
L 220.958377 81.52785 
L 228.480269 79.147992 
L 236.002161 79.147992 
L 243.524054 77.363098 
L 251.045946 75.238225 
L 258.567839 74.303281 
L 266.089731 73.793311 
L 273.611623 73.028357 
L 281.133516 72.773372 
L 288.655408 68.9486 
L 296.177301 71.328458 
L 303.699193 69.288579 
L 311.221085 68.863605 
L 318.742978 67.843666 
L 326.26487 68.013655 
L 333.786763 66.738731 
L 341.308655 66.568741 
L 348.830547 64.698853 
L 356.35244 62.40399 
L 363.874332 62.234 
L 371.396224 60.874081 
L 378.918117 60.789086 
L 386.440009 62.488985 
L 393.961902 61.044071 
L 401.483794 59.939137 
L 409.005686 57.814263 
L 416.527579 58.919197 
L 424.049471 57.134304 
L 431.571364 57.389289 
" style="fill:none;stroke:#ff7f0e;stroke-linecap:square;stroke-width:1.5;"/>
   </g>
   <g id="line2d_17">
    <path clip-path="url(#p18b998817b)" d="M 62.998636 287.045602 
L 70.520529 187.771518 
L 78.042421 151.903656 
L 85.564314 129.040018 
L 93.086206 114.930859 
L 100.608098 104.986452 
L 108.129991 99.801761 
L 115.651883 95.891994 
L 123.173776 95.127039 
L 130.695668 91.557252 
L 138.21756 87.817475 
L 145.739453 85.437617 
L 153.261345 83.482733 
L 160.783237 82.462794 
L 168.30513 77.703078 
L 175.827022 78.213048 
L 183.348915 76.598144 
L 190.870807 73.878306 
L 198.392699 71.838427 
L 205.914592 71.923422 
L 213.436484 70.478508 
L 220.958377 68.523625 
L 228.480269 67.248701 
L 236.002161 65.803787 
L 243.524054 66.568741 
L 251.045946 66.398752 
L 258.567839 65.123828 
L 266.089731 63.423929 
L 273.611623 61.639035 
L 281.133516 60.789086 
L 288.655408 59.004192 
L 296.177301 57.474283 
L 303.699193 59.259177 
L 311.221085 58.494223 
L 318.742978 58.409228 
L 326.26487 56.454344 
L 333.786763 56.624334 
L 341.308655 55.5194 
L 348.830547 55.944375 
L 356.35244 54.584456 
L 363.874332 55.00943 
L 371.396224 53.904496 
L 378.918117 55.85938 
L 386.440009 54.754446 
L 393.961902 54.499461 
L 401.483794 55.264415 
L 409.005686 51.864618 
L 416.527579 52.544577 
L 424.049471 52.629572 
L 431.571364 51.524638 
" style="fill:none;stroke:#2ca02c;stroke-linecap:square;stroke-width:1.5;"/>
   </g>
   <g id="line2d_18">
    <path clip-path="url(#p18b998817b)" d="M 62.998636 289.25547 
L 70.520529 203.966623 
L 78.042421 188.865488 
L 85.564314 190.691859 
L 93.086206 189.093784 
L 100.608098 194.384889 
L 108.129991 194.411747 
L 115.651883 193.545564 
L 123.173776 192.538374 
L 130.695668 191.873629 
L 138.21756 191.289459 
L 145.739453 189.429514 
L 153.261345 191.752766 
L 160.783237 190.953729 
L 168.30513 191.591616 
L 175.827022 190.50385 
L 183.348915 192.585376 
L 190.870807 192.565232 
L 198.392699 192.699524 
L 205.914592 194.760907 
L 213.436484 195.425652 
L 220.958377 195.546515 
L 228.480269 194.049159 
L 236.002161 195.20407 
L 243.524054 195.62709 
L 251.045946 197.312455 
L 258.567839 196.72157 
L 266.089731 196.204546 
L 273.611623 197.164733 
L 281.133516 196.761857 
L 288.655408 196.285121 
L 296.177301 197.983915 
L 303.699193 196.896149 
L 311.221085 197.064014 
L 318.742978 198.628516 
L 326.26487 199.884146 
L 333.786763 200.495175 
L 341.308655 200.092299 
L 348.830547 200.320595 
L 356.35244 200.918195 
L 363.874332 202.757995 
L 371.396224 200.830905 
L 378.918117 201.388217 
L 386.440009 200.011724 
L 393.961902 200.985341 
L 401.483794 199.326835 
L 409.005686 199.212686 
L 416.527579 200.924909 
L 424.049471 200.57575 
L 431.571364 199.111967 
" style="fill:none;stroke:#d62728;stroke-linecap:square;stroke-width:1.5;"/>
   </g>
   <g id="patch_3">
    <path d="M 44.57 303.64 
L 44.57 32.876829 
" style="fill:none;stroke:#000000;stroke-linecap:square;stroke-linejoin:miter;stroke-width:0.8;"/>
   </g>
   <g id="patch_4">
    <path d="M 450 303.64 
L 450 32.876829 
" style="fill:none;stroke:#000000;stroke-linecap:square;stroke-linejoin:miter;stroke-width:0.8;"/>
   </g>
   <g id="patch_5">
    <path d="M 44.57 303.64 
L 450 303.64 
" style="fill:none;stroke:#000000;stroke-linecap:square;stroke-linejoin:miter;stroke-width:0.8;"/>
   </g>
   <g id="patch_6">
    <path d="M 44.57 32.876829 
L 450 32.876829 
" style="fill:none;stroke:#000000;stroke-linecap:square;stroke-linejoin:miter;stroke-width:0.8;"/>
   </g>
   <g id="legend_1">
    <g id="patch_7">
     <path d="M 80.886563 28.478637 
L 413.683438 28.478637 
Q 415.683438 28.478637 415.683438 26.478637 
L 415.683438 12.800512 
Q 415.683438 10.800512 413.683438 10.800512 
L 80.886563 10.800512 
Q 78.886563 10.800512 78.886563 12.800512 
L 78.886563 26.478637 
Q 78.886563 28.478637 80.886563 28.478637 
z
" style="fill:#ffffff;opacity:0.8;stroke:#cccccc;stroke-linejoin:miter;"/>
    </g>
    <g id="line2d_19">
     <path d="M 82.886563 18.898949 
L 102.886563 18.898949 
" style="fill:none;stroke:#1f77b4;stroke-linecap:square;stroke-width:1.5;"/>
    </g>
    <g id="line2d_20"/>
    <g id="text_17">
     <!-- FedAvg -->
     <g transform="translate(110.886563 22.398949)scale(0.1 -0.1)">
      <defs>
       <path d="M 628 4666 
L 3309 4666 
L 3309 4134 
L 1259 4134 
L 1259 2759 
L 3109 2759 
L 3109 2228 
L 1259 2228 
L 1259 0 
L 628 0 
L 628 4666 
z
" id="DejaVuSans-46" transform="scale(0.015625)"/>
       <path d="M 191 3500 
L 800 3500 
L 1894 563 
L 2988 3500 
L 3597 3500 
L 2284 0 
L 1503 0 
L 191 3500 
z
" id="DejaVuSans-76" transform="scale(0.015625)"/>
       <path d="M 2906 1791 
Q 2906 2416 2648 2759 
Q 2391 3103 1925 3103 
Q 1463 3103 1205 2759 
Q 947 2416 947 1791 
Q 947 1169 1205 825 
Q 1463 481 1925 481 
Q 2391 481 2648 825 
Q 2906 1169 2906 1791 
z
M 3481 434 
Q 3481 -459 3084 -895 
Q 2688 -1331 1869 -1331 
Q 1566 -1331 1297 -1286 
Q 1028 -1241 775 -1147 
L 775 -588 
Q 1028 -725 1275 -790 
Q 1522 -856 1778 -856 
Q 2344 -856 2625 -561 
Q 2906 -266 2906 331 
L 2906 616 
Q 2728 306 2450 153 
Q 2172 0 1784 0 
Q 1141 0 747 490 
Q 353 981 353 1791 
Q 353 2603 747 3093 
Q 1141 3584 1784 3584 
Q 2172 3584 2450 3431 
Q 2728 3278 2906 2969 
L 2906 3500 
L 3481 3500 
L 3481 434 
z
" id="DejaVuSans-67" transform="scale(0.015625)"/>
      </defs>
      <use xlink:href="#DejaVuSans-46"/>
      <use x="52.019531" xlink:href="#DejaVuSans-65"/>
      <use x="113.542969" xlink:href="#DejaVuSans-64"/>
      <use x="177.019531" xlink:href="#DejaVuSans-41"/>
      <use x="239.552734" xlink:href="#DejaVuSans-76"/>
      <use x="298.732422" xlink:href="#DejaVuSans-67"/>
     </g>
    </g>
    <g id="line2d_21">
     <path d="M 167.11 18.898949 
L 187.11 18.898949 
" style="fill:none;stroke:#ff7f0e;stroke-linecap:square;stroke-width:1.5;"/>
    </g>
    <g id="line2d_22"/>
    <g id="text_18">
     <!-- FedMed -->
     <g transform="translate(195.11 22.398949)scale(0.1 -0.1)">
      <defs>
       <path d="M 628 4666 
L 1569 4666 
L 2759 1491 
L 3956 4666 
L 4897 4666 
L 4897 0 
L 4281 0 
L 4281 4097 
L 3078 897 
L 2444 897 
L 1241 4097 
L 1241 0 
L 628 0 
L 628 4666 
z
" id="DejaVuSans-4d" transform="scale(0.015625)"/>
      </defs>
      <use xlink:href="#DejaVuSans-46"/>
      <use x="52.019531" xlink:href="#DejaVuSans-65"/>
      <use x="113.542969" xlink:href="#DejaVuSans-64"/>
      <use x="177.019531" xlink:href="#DejaVuSans-4d"/>
      <use x="263.298828" xlink:href="#DejaVuSans-65"/>
      <use x="324.822266" xlink:href="#DejaVuSans-64"/>
     </g>
    </g>
    <g id="line2d_23">
     <path d="M 253.942813 18.898949 
L 273.942813 18.898949 
" style="fill:none;stroke:#2ca02c;stroke-linecap:square;stroke-width:1.5;"/>
    </g>
    <g id="line2d_24"/>
    <g id="text_19">
     <!-- FedProx -->
     <g transform="translate(281.942813 22.398949)scale(0.1 -0.1)">
      <defs>
       <path d="M 1259 4147 
L 1259 2394 
L 2053 2394 
Q 2494 2394 2734 2622 
Q 2975 2850 2975 3272 
Q 2975 3691 2734 3919 
Q 2494 4147 2053 4147 
L 1259 4147 
z
M 628 4666 
L 2053 4666 
Q 2838 4666 3239 4311 
Q 3641 3956 3641 3272 
Q 3641 2581 3239 2228 
Q 2838 1875 2053 1875 
L 1259 1875 
L 1259 0 
L 628 0 
L 628 4666 
z
" id="DejaVuSans-50" transform="scale(0.015625)"/>
       <path d="M 3513 3500 
L 2247 1797 
L 3578 0 
L 2900 0 
L 1881 1375 
L 863 0 
L 184 0 
L 1544 1831 
L 300 3500 
L 978 3500 
L 1906 2253 
L 2834 3500 
L 3513 3500 
z
" id="DejaVuSans-78" transform="scale(0.015625)"/>
      </defs>
      <use xlink:href="#DejaVuSans-46"/>
      <use x="52.019531" xlink:href="#DejaVuSans-65"/>
      <use x="113.542969" xlink:href="#DejaVuSans-64"/>
      <use x="177.019531" xlink:href="#DejaVuSans-50"/>
      <use x="235.572266" xlink:href="#DejaVuSans-72"/>
      <use x="274.435547" xlink:href="#DejaVuSans-6f"/>
      <use x="332.492188" xlink:href="#DejaVuSans-78"/>
     </g>
    </g>
    <g id="line2d_25">
     <path d="M 341.111563 18.898949 
L 361.111563 18.898949 
" style="fill:none;stroke:#d62728;stroke-linecap:square;stroke-width:1.5;"/>
    </g>
    <g id="line2d_26"/>
    <g id="text_20">
     <!-- qFedAvg -->
     <g transform="translate(369.111563 22.398949)scale(0.1 -0.1)">
      <defs>
       <path d="M 947 1747 
Q 947 1113 1208 752 
Q 1469 391 1925 391 
Q 2381 391 2643 752 
Q 2906 1113 2906 1747 
Q 2906 2381 2643 2742 
Q 2381 3103 1925 3103 
Q 1469 3103 1208 2742 
Q 947 2381 947 1747 
z
M 2906 525 
Q 2725 213 2448 61 
Q 2172 -91 1784 -91 
Q 1150 -91 751 415 
Q 353 922 353 1747 
Q 353 2572 751 3078 
Q 1150 3584 1784 3584 
Q 2172 3584 2448 3432 
Q 2725 3281 2906 2969 
L 2906 3500 
L 3481 3500 
L 3481 -1331 
L 2906 -1331 
L 2906 525 
z
" id="DejaVuSans-71" transform="scale(0.015625)"/>
      </defs>
      <use xlink:href="#DejaVuSans-71"/>
      <use x="63.476562" xlink:href="#DejaVuSans-46"/>
      <use x="115.496094" xlink:href="#DejaVuSans-65"/>
      <use x="177.019531" xlink:href="#DejaVuSans-64"/>
      <use x="240.496094" xlink:href="#DejaVuSans-41"/>
      <use x="303.029297" xlink:href="#DejaVuSans-76"/>
      <use x="362.208984" xlink:href="#DejaVuSans-67"/>
     </g>
    </g>
   </g>
  </g>
 </g>
 <defs>
  <clipPath id="p18b998817b">
   <rect height="270.763171" width="405.43" x="44.57" y="32.876829"/>
  </clipPath>
 </defs>
</svg>
