<?xml version="1.0" encoding="utf-8" standalone="no"?>
<!DOCTYPE svg PUBLIC "-//W3C//DTD SVG 1.1//EN"
  "http://www.w3.org/Graphics/SVG/1.1/DTD/svg11.dtd">
<svg height="345.6pt" version="1.1" viewBox="0 0 460.8 345.6" width="460.8pt" xmlns="http://www.w3.org/2000/svg" xmlns:xlink="http://www.w3.org/1999/xlink">
 <metadata>
  <rdf:RDF xmlns:cc="http://creativecommons.org/ns#" xmlns:dc="http://purl.org/dc/elements/1.1/" xmlns:rdf="http://www.w3.org/1999/02/22-rdf-syntax-ns#">
   <cc:Work>
    <dc:type rdf:resource="http://purl.org/dc/dcmitype/StillImage"/>
    <dc:date>2021-05-05T21:55:47.363545</dc:date>
    <dc:format>image/svg+xml</dc:format>
    <dc:creator>
     <cc:Agent>
      <dc:title>Matplotlib v3.4.1, https://matplotlib.org/</dc:title>
     </cc:Agent>
    </dc:creator>
   </cc:Work>
  </rdf:RDF>
 </metadata>
 <defs>
  <style type="text/css">*{stroke-linecap:butt;stroke-linejoin:round;}</style>
 </defs>
 <g id="figure_1">
  <g id="patch_1">
   <path d="M 0 345.6 
L 460.8 345.6 
L 460.8 0 
L 0 0 
z
" style="fill:#ffffff;"/>
  </g>
  <g id="axes_1">
   <g id="patch_2">
    <path d="M 44.57 303.64 
L 450 303.64 
L 450 48.38 
L 44.57 48.38 
z
" style="fill:#ffffff;"/>
   </g>
   <g id="PolyCollection_1">
    <path clip-path="url(#peefb25235e)" d="M 62.998636 286.621837 
L 62.998636 289.369667 
L 70.520529 202.231928 
L 78.042421 160.790241 
L 85.564314 140.38237 
L 93.086206 126.385395 
L 100.608098 118.364029 
L 108.129991 111.279201 
L 115.651883 107.598345 
L 123.173776 104.91519 
L 130.695668 101.938607 
L 138.21756 95.979924 
L 145.739453 96.708728 
L 153.261345 97.87382 
L 160.783237 90.937346 
L 168.30513 87.625335 
L 175.827022 86.984102 
L 183.348915 89.049541 
L 190.870807 83.873002 
L 198.392699 82.490329 
L 205.914592 81.61959 
L 213.436484 81.377309 
L 220.958377 75.358999 
L 228.480269 76.800192 
L 236.002161 76.226492 
L 243.524054 75.421386 
L 251.045946 75.623607 
L 258.567839 75.185954 
L 266.089731 73.336035 
L 273.611623 73.300597 
L 281.133516 72.350892 
L 288.655408 71.470172 
L 296.177301 70.531543 
L 303.699193 68.782605 
L 311.221085 69.860693 
L 318.742978 68.082915 
L 326.26487 69.317448 
L 333.786763 69.102643 
L 341.308655 68.972998 
L 348.830547 67.406841 
L 356.35244 68.163287 
L 363.874332 67.232573 
L 371.396224 67.731799 
L 378.918117 69.334366 
L 386.440009 65.534155 
L 393.961902 64.725893 
L 401.483794 64.877944 
L 409.005686 64.767673 
L 416.527579 64.369493 
L 424.049471 63.52437 
L 431.571364 64.815857 
L 431.571364 61.976101 
L 431.571364 61.976101 
L 424.049471 62.14579 
L 416.527579 61.14041 
L 409.005686 61.383258 
L 401.483794 60.952473 
L 393.961902 59.982727 
L 386.440009 63.020626 
L 378.918117 63.547346 
L 371.396224 61.944779 
L 363.874332 63.886315 
L 356.35244 63.276114 
L 348.830547 64.513331 
L 341.308655 65.992051 
L 333.786763 65.061123 
L 326.26487 65.327088 
L 318.742978 65.279567 
L 311.221085 66.38641 
L 303.699193 66.983728 
L 296.177301 65.875817 
L 288.655408 66.700011 
L 281.133516 67.421858 
L 273.611623 66.151639 
L 266.089731 68.680309 
L 258.567839 69.394497 
L 251.045946 69.437615 
L 243.524054 71.242403 
L 236.002161 73.642431 
L 228.480269 72.267448 
L 220.958377 71.30479 
L 213.436484 76.023679 
L 205.914592 76.742938 
L 198.392699 80.038873 
L 190.870807 78.175431 
L 183.348915 83.896347 
L 175.827022 80.192545 
L 168.30513 83.397473 
L 160.783237 87.297014 
L 153.261345 88.213118 
L 145.739453 90.820521 
L 138.21756 92.831379 
L 130.695668 94.725274 
L 123.173776 97.838446 
L 115.651883 99.962992 
L 108.129991 103.653945 
L 100.608098 109.710167 
L 93.086206 116.592674 
L 85.564314 133.20473 
L 78.042421 152.540522 
L 70.520529 186.25923 
L 62.998636 286.621837 
z
" style="fill:#1f77b4;fill-opacity:0.5;"/>
   </g>
   <g id="PolyCollection_2">
    <path clip-path="url(#peefb25235e)" d="M 62.998636 286.621837 
L 62.998636 289.369667 
L 70.520529 242.915907 
L 78.042421 186.600247 
L 85.564314 166.143897 
L 93.086206 149.49591 
L 100.608098 132.995652 
L 108.129991 127.949205 
L 115.651883 126.597867 
L 123.173776 122.778813 
L 130.695668 121.059311 
L 138.21756 114.043551 
L 145.739453 116.701721 
L 153.261345 113.907663 
L 160.783237 112.156174 
L 168.30513 111.740442 
L 175.827022 109.203174 
L 183.348915 108.217529 
L 190.870807 106.1459 
L 198.392699 103.913212 
L 205.914592 100.266754 
L 213.436484 98.103489 
L 220.958377 96.614268 
L 228.480269 95.849631 
L 236.002161 97.079688 
L 243.524054 94.425244 
L 251.045946 90.548014 
L 258.567839 89.620095 
L 266.089731 90.334333 
L 273.611623 88.490416 
L 281.133516 87.347268 
L 288.655408 85.744149 
L 296.177301 87.621689 
L 303.699193 85.48957 
L 311.221085 84.744596 
L 318.742978 83.323754 
L 326.26487 84.071596 
L 333.786763 84.092039 
L 341.308655 82.638388 
L 348.830547 80.818306 
L 356.35244 79.36506 
L 363.874332 80.605969 
L 371.396224 77.020658 
L 378.918117 78.983751 
L 386.440009 80.136121 
L 393.961902 79.886886 
L 401.483794 77.847596 
L 409.005686 76.426576 
L 416.527579 74.295789 
L 424.049471 75.298013 
L 431.571364 75.997542 
L 431.571364 66.980343 
L 431.571364 66.980343 
L 424.049471 67.199101 
L 416.527579 71.566716 
L 409.005686 67.352592 
L 401.483794 69.93799 
L 393.961902 69.982036 
L 386.440009 72.457166 
L 378.918117 70.404402 
L 371.396224 72.527751 
L 363.874332 71.506548 
L 356.35244 73.06797 
L 348.830547 75.941655 
L 341.308655 77.647221 
L 333.786763 76.514083 
L 326.26487 78.938376 
L 318.742978 79.365705 
L 311.221085 79.867944 
L 303.699193 79.924253 
L 296.177301 81.638295 
L 288.655408 79.028647 
L 281.133516 84.637081 
L 273.611623 83.974702 
L 266.089731 83.573095 
L 258.567839 85.248874 
L 251.045946 86.083779 
L 243.524054 86.212967 
L 236.002161 86.923913 
L 228.480269 88.153971 
L 220.958377 91.876521 
L 213.436484 88.94499 
L 205.914592 97.518924 
L 198.392699 94.673749 
L 190.870807 98.370559 
L 183.348915 98.061754 
L 175.827022 101.88381 
L 168.30513 101.750393 
L 160.783237 106.78339 
L 153.261345 102.62805 
L 145.739453 108.808367 
L 138.21756 109.062686 
L 130.695668 115.348233 
L 123.173776 113.628731 
L 115.651883 117.341742 
L 108.129991 122.881443 
L 100.608098 131.617072 
L 93.086206 137.552753 
L 85.564314 157.603552 
L 78.042421 173.845988 
L 70.520529 214.165122 
L 62.998636 286.621837 
z
" style="fill:#ff7f0e;fill-opacity:0.5;"/>
   </g>
   <g id="PolyCollection_3">
    <path clip-path="url(#peefb25235e)" d="M 62.998636 283.954232 
L 62.998636 292.037273 
L 70.520529 199.49509 
L 78.042421 163.699164 
L 85.564314 144.471713 
L 93.086206 132.917949 
L 100.608098 124.835506 
L 108.129991 118.014134 
L 115.651883 108.58837 
L 123.173776 111.428329 
L 130.695668 108.368662 
L 138.21756 104.636251 
L 145.739453 104.213075 
L 153.261345 102.394606 
L 160.783237 100.475637 
L 168.30513 95.939005 
L 175.827022 95.462133 
L 183.348915 93.031335 
L 190.870807 92.034006 
L 198.392699 90.232713 
L 205.914592 90.629003 
L 213.436484 88.434521 
L 220.958377 86.810788 
L 228.480269 83.893389 
L 236.002161 83.200447 
L 243.524054 83.672092 
L 251.045946 83.122925 
L 258.567839 82.661681 
L 266.089731 82.249617 
L 273.611623 78.625498 
L 281.133516 78.673157 
L 288.655408 77.80169 
L 296.177301 76.056258 
L 303.699193 78.729874 
L 311.221085 75.363576 
L 318.742978 74.989426 
L 326.26487 73.725337 
L 333.786763 72.57023 
L 341.308655 72.559084 
L 348.830547 72.596482 
L 356.35244 72.132899 
L 363.874332 72.434417 
L 371.396224 70.055321 
L 378.918117 71.735041 
L 386.440009 70.693372 
L 393.961902 71.638048 
L 401.483794 72.468834 
L 409.005686 68.186913 
L 416.527579 70.06609 
L 424.049471 70.067646 
L 431.571364 68.833556 
L 431.571364 63.086616 
L 431.571364 63.086616 
L 424.049471 63.935863 
L 416.527579 63.777162 
L 409.005686 64.374285 
L 401.483794 66.502633 
L 393.961902 65.891108 
L 386.440009 67.316554 
L 378.918117 68.358223 
L 371.396224 66.352038 
L 363.874332 66.05628 
L 356.35244 65.556514 
L 348.830547 67.657038 
L 341.308655 66.893153 
L 333.786763 68.965344 
L 326.26487 67.489724 
L 318.742978 69.911539 
L 311.221085 69.697646 
L 303.699193 67.773658 
L 296.177301 67.081883 
L 288.655408 68.221072 
L 281.133516 70.714996 
L 273.611623 72.365222 
L 266.089731 72.106494 
L 258.567839 74.899564 
L 251.045946 76.84217 
L 243.524054 76.613516 
L 236.002161 75.642852 
L 228.480269 77.674273 
L 220.958377 77.160725 
L 213.436484 79.222896 
L 205.914592 79.752778 
L 198.392699 79.988811 
L 190.870807 82.033679 
L 183.348915 86.164565 
L 175.827022 86.778644 
L 168.30513 85.340232 
L 160.783237 89.777976 
L 153.261345 89.782087 
L 145.739453 91.649522 
L 138.21756 95.713535 
L 130.695668 99.032419 
L 123.173776 102.703533 
L 115.651883 106.985803 
L 108.129991 104.931846 
L 100.608098 107.886134 
L 93.086206 118.553726 
L 85.564314 133.602575 
L 78.042421 157.484178 
L 70.520529 189.316581 
L 62.998636 283.954232 
z
" style="fill:#2ca02c;fill-opacity:0.5;"/>
   </g>
   <g id="PolyCollection_4">
    <path clip-path="url(#peefb25235e)" d="M 62.998636 290.07909 
L 62.998636 290.07909 
L 70.520529 215.891468 
L 78.042421 202.383365 
L 85.564314 202.178947 
L 93.086206 200.06544 
L 100.608098 206.44157 
L 108.129991 206.181701 
L 115.651883 204.880737 
L 123.173776 203.191122 
L 130.695668 202.571445 
L 138.21756 202.035214 
L 145.739453 201.018495 
L 153.261345 201.585214 
L 160.783237 200.796044 
L 168.30513 201.876883 
L 175.827022 200.524712 
L 183.348915 203.50825 
L 190.870807 203.729021 
L 198.392699 205.077725 
L 205.914592 206.169726 
L 213.436484 207.100282 
L 220.958377 206.708803 
L 228.480269 204.584244 
L 236.002161 207.505743 
L 243.524054 208.55262 
L 251.045946 210.477954 
L 258.567839 208.968554 
L 266.089731 207.896008 
L 273.611623 210.921266 
L 281.133516 210.765194 
L 288.655408 210.582538 
L 296.177301 213.045216 
L 303.699193 212.775608 
L 311.221085 211.208113 
L 318.742978 213.87744 
L 326.26487 214.4002 
L 333.786763 216.116001 
L 341.308655 215.360326 
L 348.830547 215.563478 
L 356.35244 217.538146 
L 363.874332 220.094848 
L 371.396224 217.450031 
L 378.918117 217.595714 
L 386.440009 215.645639 
L 393.961902 217.474798 
L 401.483794 214.049112 
L 409.005686 213.826651 
L 416.527579 216.91585 
L 424.049471 216.144749 
L 431.571364 213.811543 
L 431.571364 196.382379 
L 431.571364 196.382379 
L 424.049471 196.809115 
L 416.527579 196.696349 
L 409.005686 196.557176 
L 401.483794 196.54994 
L 393.961902 196.251343 
L 386.440009 196.244761 
L 378.918117 196.890044 
L 371.396224 195.984923 
L 363.874332 196.973607 
L 356.35244 196.061392 
L 348.830547 196.909295 
L 341.308655 196.681998 
L 333.786763 196.68594 
L 326.26487 197.249655 
L 318.742978 195.404942 
L 311.221085 195.124425 
L 303.699193 193.240423 
L 296.177301 195.02178 
L 288.655408 194.281407 
L 281.133516 194.99763 
L 273.611623 195.601176 
L 266.089731 196.816014 
L 258.567839 196.718309 
L 251.045946 196.323014 
L 243.524054 195.070617 
L 236.002161 195.319897 
L 228.480269 196.063828 
L 220.958377 196.762511 
L 213.436484 196.143148 
L 205.914592 195.820336 
L 198.392699 193.025631 
L 190.870807 194.121129 
L 183.348915 194.379881 
L 175.827022 193.438732 
L 168.30513 194.137526 
L 160.783237 194.015639 
L 153.261345 194.733043 
L 145.739453 190.919305 
L 138.21756 193.409483 
L 130.695668 193.974696 
L 123.173776 194.608386 
L 115.651883 194.817814 
L 108.129991 195.150026 
L 100.608098 194.839516 
L 93.086206 191.239345 
L 85.564314 192.138985 
L 78.042421 188.490971 
L 70.520529 203.455837 
L 62.998636 290.07909 
z
" style="fill:#d62728;fill-opacity:0.5;"/>
   </g>
   <g id="matplotlib.axis_1">
    <g id="xtick_1">
     <g id="line2d_1">
      <defs>
       <path d="M 0 0 
L 0 3.5 
" id="m30c995379f" style="stroke:#000000;stroke-width:0.8;"/>
      </defs>
      <g>
       <use style="stroke:#000000;stroke-width:0.8;" x="62.998636" xlink:href="#m30c995379f" y="303.64"/>
      </g>
     </g>
     <g id="text_1">
      <!-- 0 -->
      <g transform="translate(59.817386 318.238437)scale(0.1 -0.1)">
       <defs>
        <path d="M 2034 4250 
Q 1547 4250 1301 3770 
Q 1056 3291 1056 2328 
Q 1056 1369 1301 889 
Q 1547 409 2034 409 
Q 2525 409 2770 889 
Q 3016 1369 3016 2328 
Q 3016 3291 2770 3770 
Q 2525 4250 2034 4250 
z
M 2034 4750 
Q 2819 4750 3233 4129 
Q 3647 3509 3647 2328 
Q 3647 1150 3233 529 
Q 2819 -91 2034 -91 
Q 1250 -91 836 529 
Q 422 1150 422 2328 
Q 422 3509 836 4129 
Q 1250 4750 2034 4750 
z
" id="DejaVuSans-30" transform="scale(0.015625)"/>
       </defs>
       <use xlink:href="#DejaVuSans-30"/>
      </g>
     </g>
    </g>
    <g id="xtick_2">
     <g id="line2d_2">
      <g>
       <use style="stroke:#000000;stroke-width:0.8;" x="138.21756" xlink:href="#m30c995379f" y="303.64"/>
      </g>
     </g>
     <g id="text_2">
      <!-- 10 -->
      <g transform="translate(131.85506 318.238437)scale(0.1 -0.1)">
       <defs>
        <path d="M 794 531 
L 1825 531 
L 1825 4091 
L 703 3866 
L 703 4441 
L 1819 4666 
L 2450 4666 
L 2450 531 
L 3481 531 
L 3481 0 
L 794 0 
L 794 531 
z
" id="DejaVuSans-31" transform="scale(0.015625)"/>
       </defs>
       <use xlink:href="#DejaVuSans-31"/>
       <use x="63.623047" xlink:href="#DejaVuSans-30"/>
      </g>
     </g>
    </g>
    <g id="xtick_3">
     <g id="line2d_3">
      <g>
       <use style="stroke:#000000;stroke-width:0.8;" x="213.436484" xlink:href="#m30c995379f" y="303.64"/>
      </g>
     </g>
     <g id="text_3">
      <!-- 20 -->
      <g transform="translate(207.073984 318.238437)scale(0.1 -0.1)">
       <defs>
        <path d="M 1228 531 
L 3431 531 
L 3431 0 
L 469 0 
L 469 531 
Q 828 903 1448 1529 
Q 2069 2156 2228 2338 
Q 2531 2678 2651 2914 
Q 2772 3150 2772 3378 
Q 2772 3750 2511 3984 
Q 2250 4219 1831 4219 
Q 1534 4219 1204 4116 
Q 875 4013 500 3803 
L 500 4441 
Q 881 4594 1212 4672 
Q 1544 4750 1819 4750 
Q 2544 4750 2975 4387 
Q 3406 4025 3406 3419 
Q 3406 3131 3298 2873 
Q 3191 2616 2906 2266 
Q 2828 2175 2409 1742 
Q 1991 1309 1228 531 
z
" id="DejaVuSans-32" transform="scale(0.015625)"/>
       </defs>
       <use xlink:href="#DejaVuSans-32"/>
       <use x="63.623047" xlink:href="#DejaVuSans-30"/>
      </g>
     </g>
    </g>
    <g id="xtick_4">
     <g id="line2d_4">
      <g>
       <use style="stroke:#000000;stroke-width:0.8;" x="288.655408" xlink:href="#m30c995379f" y="303.64"/>
      </g>
     </g>
     <g id="text_4">
      <!-- 30 -->
      <g transform="translate(282.292908 318.238437)scale(0.1 -0.1)">
       <defs>
        <path d="M 2597 2516 
Q 3050 2419 3304 2112 
Q 3559 1806 3559 1356 
Q 3559 666 3084 287 
Q 2609 -91 1734 -91 
Q 1441 -91 1130 -33 
Q 819 25 488 141 
L 488 750 
Q 750 597 1062 519 
Q 1375 441 1716 441 
Q 2309 441 2620 675 
Q 2931 909 2931 1356 
Q 2931 1769 2642 2001 
Q 2353 2234 1838 2234 
L 1294 2234 
L 1294 2753 
L 1863 2753 
Q 2328 2753 2575 2939 
Q 2822 3125 2822 3475 
Q 2822 3834 2567 4026 
Q 2313 4219 1838 4219 
Q 1578 4219 1281 4162 
Q 984 4106 628 3988 
L 628 4550 
Q 988 4650 1302 4700 
Q 1616 4750 1894 4750 
Q 2613 4750 3031 4423 
Q 3450 4097 3450 3541 
Q 3450 3153 3228 2886 
Q 3006 2619 2597 2516 
z
" id="DejaVuSans-33" transform="scale(0.015625)"/>
       </defs>
       <use xlink:href="#DejaVuSans-33"/>
       <use x="63.623047" xlink:href="#DejaVuSans-30"/>
      </g>
     </g>
    </g>
    <g id="xtick_5">
     <g id="line2d_5">
      <g>
       <use style="stroke:#000000;stroke-width:0.8;" x="363.874332" xlink:href="#m30c995379f" y="303.64"/>
      </g>
     </g>
     <g id="text_5">
      <!-- 40 -->
      <g transform="translate(357.511832 318.238437)scale(0.1 -0.1)">
       <defs>
        <path d="M 2419 4116 
L 825 1625 
L 2419 1625 
L 2419 4116 
z
M 2253 4666 
L 3047 4666 
L 3047 1625 
L 3713 1625 
L 3713 1100 
L 3047 1100 
L 3047 0 
L 2419 0 
L 2419 1100 
L 313 1100 
L 313 1709 
L 2253 4666 
z
" id="DejaVuSans-34" transform="scale(0.015625)"/>
       </defs>
       <use xlink:href="#DejaVuSans-34"/>
       <use x="63.623047" xlink:href="#DejaVuSans-30"/>
      </g>
     </g>
    </g>
    <g id="xtick_6">
     <g id="line2d_6">
      <g>
       <use style="stroke:#000000;stroke-width:0.8;" x="439.093256" xlink:href="#m30c995379f" y="303.64"/>
      </g>
     </g>
     <g id="text_6">
      <!-- 50 -->
      <g transform="translate(432.730756 318.238437)scale(0.1 -0.1)">
       <defs>
        <path d="M 691 4666 
L 3169 4666 
L 3169 4134 
L 1269 4134 
L 1269 2991 
Q 1406 3038 1543 3061 
Q 1681 3084 1819 3084 
Q 2600 3084 3056 2656 
Q 3513 2228 3513 1497 
Q 3513 744 3044 326 
Q 2575 -91 1722 -91 
Q 1428 -91 1123 -41 
Q 819 9 494 109 
L 494 744 
Q 775 591 1075 516 
Q 1375 441 1709 441 
Q 2250 441 2565 725 
Q 2881 1009 2881 1497 
Q 2881 1984 2565 2268 
Q 2250 2553 1709 2553 
Q 1456 2553 1204 2497 
Q 953 2441 691 2322 
L 691 4666 
z
" id="DejaVuSans-35" transform="scale(0.015625)"/>
       </defs>
       <use xlink:href="#DejaVuSans-35"/>
       <use x="63.623047" xlink:href="#DejaVuSans-30"/>
      </g>
     </g>
    </g>
    <g id="text_7">
     <!-- Global Communication Rounds -->
     <g transform="translate(170.323281 331.916562)scale(0.1 -0.1)">
      <defs>
       <path d="M 3809 666 
L 3809 1919 
L 2778 1919 
L 2778 2438 
L 4434 2438 
L 4434 434 
Q 4069 175 3628 42 
Q 3188 -91 2688 -91 
Q 1594 -91 976 548 
Q 359 1188 359 2328 
Q 359 3472 976 4111 
Q 1594 4750 2688 4750 
Q 3144 4750 3555 4637 
Q 3966 4525 4313 4306 
L 4313 3634 
Q 3963 3931 3569 4081 
Q 3175 4231 2741 4231 
Q 1884 4231 1454 3753 
Q 1025 3275 1025 2328 
Q 1025 1384 1454 906 
Q 1884 428 2741 428 
Q 3075 428 3337 486 
Q 3600 544 3809 666 
z
" id="DejaVuSans-47" transform="scale(0.015625)"/>
       <path d="M 603 4863 
L 1178 4863 
L 1178 0 
L 603 0 
L 603 4863 
z
" id="DejaVuSans-6c" transform="scale(0.015625)"/>
       <path d="M 1959 3097 
Q 1497 3097 1228 2736 
Q 959 2375 959 1747 
Q 959 1119 1226 758 
Q 1494 397 1959 397 
Q 2419 397 2687 759 
Q 2956 1122 2956 1747 
Q 2956 2369 2687 2733 
Q 2419 3097 1959 3097 
z
M 1959 3584 
Q 2709 3584 3137 3096 
Q 3566 2609 3566 1747 
Q 3566 888 3137 398 
Q 2709 -91 1959 -91 
Q 1206 -91 779 398 
Q 353 888 353 1747 
Q 353 2609 779 3096 
Q 1206 3584 1959 3584 
z
" id="DejaVuSans-6f" transform="scale(0.015625)"/>
       <path d="M 3116 1747 
Q 3116 2381 2855 2742 
Q 2594 3103 2138 3103 
Q 1681 3103 1420 2742 
Q 1159 2381 1159 1747 
Q 1159 1113 1420 752 
Q 1681 391 2138 391 
Q 2594 391 2855 752 
Q 3116 1113 3116 1747 
z
M 1159 2969 
Q 1341 3281 1617 3432 
Q 1894 3584 2278 3584 
Q 2916 3584 3314 3078 
Q 3713 2572 3713 1747 
Q 3713 922 3314 415 
Q 2916 -91 2278 -91 
Q 1894 -91 1617 61 
Q 1341 213 1159 525 
L 1159 0 
L 581 0 
L 581 4863 
L 1159 4863 
L 1159 2969 
z
" id="DejaVuSans-62" transform="scale(0.015625)"/>
       <path d="M 2194 1759 
Q 1497 1759 1228 1600 
Q 959 1441 959 1056 
Q 959 750 1161 570 
Q 1363 391 1709 391 
Q 2188 391 2477 730 
Q 2766 1069 2766 1631 
L 2766 1759 
L 2194 1759 
z
M 3341 1997 
L 3341 0 
L 2766 0 
L 2766 531 
Q 2569 213 2275 61 
Q 1981 -91 1556 -91 
Q 1019 -91 701 211 
Q 384 513 384 1019 
Q 384 1609 779 1909 
Q 1175 2209 1959 2209 
L 2766 2209 
L 2766 2266 
Q 2766 2663 2505 2880 
Q 2244 3097 1772 3097 
Q 1472 3097 1187 3025 
Q 903 2953 641 2809 
L 641 3341 
Q 956 3463 1253 3523 
Q 1550 3584 1831 3584 
Q 2591 3584 2966 3190 
Q 3341 2797 3341 1997 
z
" id="DejaVuSans-61" transform="scale(0.015625)"/>
       <path id="DejaVuSans-20" transform="scale(0.015625)"/>
       <path d="M 4122 4306 
L 4122 3641 
Q 3803 3938 3442 4084 
Q 3081 4231 2675 4231 
Q 1875 4231 1450 3742 
Q 1025 3253 1025 2328 
Q 1025 1406 1450 917 
Q 1875 428 2675 428 
Q 3081 428 3442 575 
Q 3803 722 4122 1019 
L 4122 359 
Q 3791 134 3420 21 
Q 3050 -91 2638 -91 
Q 1578 -91 968 557 
Q 359 1206 359 2328 
Q 359 3453 968 4101 
Q 1578 4750 2638 4750 
Q 3056 4750 3426 4639 
Q 3797 4528 4122 4306 
z
" id="DejaVuSans-43" transform="scale(0.015625)"/>
       <path d="M 3328 2828 
Q 3544 3216 3844 3400 
Q 4144 3584 4550 3584 
Q 5097 3584 5394 3201 
Q 5691 2819 5691 2113 
L 5691 0 
L 5113 0 
L 5113 2094 
Q 5113 2597 4934 2840 
Q 4756 3084 4391 3084 
Q 3944 3084 3684 2787 
Q 3425 2491 3425 1978 
L 3425 0 
L 2847 0 
L 2847 2094 
Q 2847 2600 2669 2842 
Q 2491 3084 2119 3084 
Q 1678 3084 1418 2786 
Q 1159 2488 1159 1978 
L 1159 0 
L 581 0 
L 581 3500 
L 1159 3500 
L 1159 2956 
Q 1356 3278 1631 3431 
Q 1906 3584 2284 3584 
Q 2666 3584 2933 3390 
Q 3200 3197 3328 2828 
z
" id="DejaVuSans-6d" transform="scale(0.015625)"/>
       <path d="M 544 1381 
L 544 3500 
L 1119 3500 
L 1119 1403 
Q 1119 906 1312 657 
Q 1506 409 1894 409 
Q 2359 409 2629 706 
Q 2900 1003 2900 1516 
L 2900 3500 
L 3475 3500 
L 3475 0 
L 2900 0 
L 2900 538 
Q 2691 219 2414 64 
Q 2138 -91 1772 -91 
Q 1169 -91 856 284 
Q 544 659 544 1381 
z
M 1991 3584 
L 1991 3584 
z
" id="DejaVuSans-75" transform="scale(0.015625)"/>
       <path d="M 3513 2113 
L 3513 0 
L 2938 0 
L 2938 2094 
Q 2938 2591 2744 2837 
Q 2550 3084 2163 3084 
Q 1697 3084 1428 2787 
Q 1159 2491 1159 1978 
L 1159 0 
L 581 0 
L 581 3500 
L 1159 3500 
L 1159 2956 
Q 1366 3272 1645 3428 
Q 1925 3584 2291 3584 
Q 2894 3584 3203 3211 
Q 3513 2838 3513 2113 
z
" id="DejaVuSans-6e" transform="scale(0.015625)"/>
       <path d="M 603 3500 
L 1178 3500 
L 1178 0 
L 603 0 
L 603 3500 
z
M 603 4863 
L 1178 4863 
L 1178 4134 
L 603 4134 
L 603 4863 
z
" id="DejaVuSans-69" transform="scale(0.015625)"/>
       <path d="M 3122 3366 
L 3122 2828 
Q 2878 2963 2633 3030 
Q 2388 3097 2138 3097 
Q 1578 3097 1268 2742 
Q 959 2388 959 1747 
Q 959 1106 1268 751 
Q 1578 397 2138 397 
Q 2388 397 2633 464 
Q 2878 531 3122 666 
L 3122 134 
Q 2881 22 2623 -34 
Q 2366 -91 2075 -91 
Q 1284 -91 818 406 
Q 353 903 353 1747 
Q 353 2603 823 3093 
Q 1294 3584 2113 3584 
Q 2378 3584 2631 3529 
Q 2884 3475 3122 3366 
z
" id="DejaVuSans-63" transform="scale(0.015625)"/>
       <path d="M 1172 4494 
L 1172 3500 
L 2356 3500 
L 2356 3053 
L 1172 3053 
L 1172 1153 
Q 1172 725 1289 603 
Q 1406 481 1766 481 
L 2356 481 
L 2356 0 
L 1766 0 
Q 1100 0 847 248 
Q 594 497 594 1153 
L 594 3053 
L 172 3053 
L 172 3500 
L 594 3500 
L 594 4494 
L 1172 4494 
z
" id="DejaVuSans-74" transform="scale(0.015625)"/>
       <path d="M 2841 2188 
Q 3044 2119 3236 1894 
Q 3428 1669 3622 1275 
L 4263 0 
L 3584 0 
L 2988 1197 
Q 2756 1666 2539 1819 
Q 2322 1972 1947 1972 
L 1259 1972 
L 1259 0 
L 628 0 
L 628 4666 
L 2053 4666 
Q 2853 4666 3247 4331 
Q 3641 3997 3641 3322 
Q 3641 2881 3436 2590 
Q 3231 2300 2841 2188 
z
M 1259 4147 
L 1259 2491 
L 2053 2491 
Q 2509 2491 2742 2702 
Q 2975 2913 2975 3322 
Q 2975 3731 2742 3939 
Q 2509 4147 2053 4147 
L 1259 4147 
z
" id="DejaVuSans-52" transform="scale(0.015625)"/>
       <path d="M 2906 2969 
L 2906 4863 
L 3481 4863 
L 3481 0 
L 2906 0 
L 2906 525 
Q 2725 213 2448 61 
Q 2172 -91 1784 -91 
Q 1150 -91 751 415 
Q 353 922 353 1747 
Q 353 2572 751 3078 
Q 1150 3584 1784 3584 
Q 2172 3584 2448 3432 
Q 2725 3281 2906 2969 
z
M 947 1747 
Q 947 1113 1208 752 
Q 1469 391 1925 391 
Q 2381 391 2643 752 
Q 2906 1113 2906 1747 
Q 2906 2381 2643 2742 
Q 2381 3103 1925 3103 
Q 1469 3103 1208 2742 
Q 947 2381 947 1747 
z
" id="DejaVuSans-64" transform="scale(0.015625)"/>
       <path d="M 2834 3397 
L 2834 2853 
Q 2591 2978 2328 3040 
Q 2066 3103 1784 3103 
Q 1356 3103 1142 2972 
Q 928 2841 928 2578 
Q 928 2378 1081 2264 
Q 1234 2150 1697 2047 
L 1894 2003 
Q 2506 1872 2764 1633 
Q 3022 1394 3022 966 
Q 3022 478 2636 193 
Q 2250 -91 1575 -91 
Q 1294 -91 989 -36 
Q 684 19 347 128 
L 347 722 
Q 666 556 975 473 
Q 1284 391 1588 391 
Q 1994 391 2212 530 
Q 2431 669 2431 922 
Q 2431 1156 2273 1281 
Q 2116 1406 1581 1522 
L 1381 1569 
Q 847 1681 609 1914 
Q 372 2147 372 2553 
Q 372 3047 722 3315 
Q 1072 3584 1716 3584 
Q 2034 3584 2315 3537 
Q 2597 3491 2834 3397 
z
" id="DejaVuSans-73" transform="scale(0.015625)"/>
      </defs>
      <use xlink:href="#DejaVuSans-47"/>
      <use x="77.490234" xlink:href="#DejaVuSans-6c"/>
      <use x="105.273438" xlink:href="#DejaVuSans-6f"/>
      <use x="166.455078" xlink:href="#DejaVuSans-62"/>
      <use x="229.931641" xlink:href="#DejaVuSans-61"/>
      <use x="291.210938" xlink:href="#DejaVuSans-6c"/>
      <use x="318.994141" xlink:href="#DejaVuSans-20"/>
      <use x="350.78125" xlink:href="#DejaVuSans-43"/>
      <use x="420.605469" xlink:href="#DejaVuSans-6f"/>
      <use x="481.787109" xlink:href="#DejaVuSans-6d"/>
      <use x="579.199219" xlink:href="#DejaVuSans-6d"/>
      <use x="676.611328" xlink:href="#DejaVuSans-75"/>
      <use x="739.990234" xlink:href="#DejaVuSans-6e"/>
      <use x="803.369141" xlink:href="#DejaVuSans-69"/>
      <use x="831.152344" xlink:href="#DejaVuSans-63"/>
      <use x="886.132812" xlink:href="#DejaVuSans-61"/>
      <use x="947.412109" xlink:href="#DejaVuSans-74"/>
      <use x="986.621094" xlink:href="#DejaVuSans-69"/>
      <use x="1014.404297" xlink:href="#DejaVuSans-6f"/>
      <use x="1075.585938" xlink:href="#DejaVuSans-6e"/>
      <use x="1138.964844" xlink:href="#DejaVuSans-20"/>
      <use x="1170.751953" xlink:href="#DejaVuSans-52"/>
      <use x="1235.734375" xlink:href="#DejaVuSans-6f"/>
      <use x="1296.916016" xlink:href="#DejaVuSans-75"/>
      <use x="1360.294922" xlink:href="#DejaVuSans-6e"/>
      <use x="1423.673828" xlink:href="#DejaVuSans-64"/>
      <use x="1487.150391" xlink:href="#DejaVuSans-73"/>
     </g>
    </g>
   </g>
   <g id="matplotlib.axis_2">
    <g id="ytick_1">
     <g id="line2d_7">
      <defs>
       <path d="M 0 0 
L -3.5 0 
" id="m95d313dbf0" style="stroke:#000000;stroke-width:0.8;"/>
      </defs>
      <g>
       <use style="stroke:#000000;stroke-width:0.8;" x="44.57" xlink:href="#m95d313dbf0" y="290.07909"/>
      </g>
     </g>
     <g id="text_8">
      <!-- 10 -->
      <g transform="translate(24.845 293.878308)scale(0.1 -0.1)">
       <use xlink:href="#DejaVuSans-31"/>
       <use x="63.623047" xlink:href="#DejaVuSans-30"/>
      </g>
     </g>
    </g>
    <g id="ytick_2">
     <g id="line2d_8">
      <g>
       <use style="stroke:#000000;stroke-width:0.8;" x="44.57" xlink:href="#m95d313dbf0" y="258.42839"/>
      </g>
     </g>
     <g id="text_9">
      <!-- 20 -->
      <g transform="translate(24.845 262.227609)scale(0.1 -0.1)">
       <use xlink:href="#DejaVuSans-32"/>
       <use x="63.623047" xlink:href="#DejaVuSans-30"/>
      </g>
     </g>
    </g>
    <g id="ytick_3">
     <g id="line2d_9">
      <g>
       <use style="stroke:#000000;stroke-width:0.8;" x="44.57" xlink:href="#m95d313dbf0" y="226.777691"/>
      </g>
     </g>
     <g id="text_10">
      <!-- 30 -->
      <g transform="translate(24.845 230.576909)scale(0.1 -0.1)">
       <use xlink:href="#DejaVuSans-33"/>
       <use x="63.623047" xlink:href="#DejaVuSans-30"/>
      </g>
     </g>
    </g>
    <g id="ytick_4">
     <g id="line2d_10">
      <g>
       <use style="stroke:#000000;stroke-width:0.8;" x="44.57" xlink:href="#m95d313dbf0" y="195.126991"/>
      </g>
     </g>
     <g id="text_11">
      <!-- 40 -->
      <g transform="translate(24.845 198.92621)scale(0.1 -0.1)">
       <use xlink:href="#DejaVuSans-34"/>
       <use x="63.623047" xlink:href="#DejaVuSans-30"/>
      </g>
     </g>
    </g>
    <g id="ytick_5">
     <g id="line2d_11">
      <g>
       <use style="stroke:#000000;stroke-width:0.8;" x="44.57" xlink:href="#m95d313dbf0" y="163.476292"/>
      </g>
     </g>
     <g id="text_12">
      <!-- 50 -->
      <g transform="translate(24.845 167.27551)scale(0.1 -0.1)">
       <use xlink:href="#DejaVuSans-35"/>
       <use x="63.623047" xlink:href="#DejaVuSans-30"/>
      </g>
     </g>
    </g>
    <g id="ytick_6">
     <g id="line2d_12">
      <g>
       <use style="stroke:#000000;stroke-width:0.8;" x="44.57" xlink:href="#m95d313dbf0" y="131.825592"/>
      </g>
     </g>
     <g id="text_13">
      <!-- 60 -->
      <g transform="translate(24.845 135.624811)scale(0.1 -0.1)">
       <defs>
        <path d="M 2113 2584 
Q 1688 2584 1439 2293 
Q 1191 2003 1191 1497 
Q 1191 994 1439 701 
Q 1688 409 2113 409 
Q 2538 409 2786 701 
Q 3034 994 3034 1497 
Q 3034 2003 2786 2293 
Q 2538 2584 2113 2584 
z
M 3366 4563 
L 3366 3988 
Q 3128 4100 2886 4159 
Q 2644 4219 2406 4219 
Q 1781 4219 1451 3797 
Q 1122 3375 1075 2522 
Q 1259 2794 1537 2939 
Q 1816 3084 2150 3084 
Q 2853 3084 3261 2657 
Q 3669 2231 3669 1497 
Q 3669 778 3244 343 
Q 2819 -91 2113 -91 
Q 1303 -91 875 529 
Q 447 1150 447 2328 
Q 447 3434 972 4092 
Q 1497 4750 2381 4750 
Q 2619 4750 2861 4703 
Q 3103 4656 3366 4563 
z
" id="DejaVuSans-36" transform="scale(0.015625)"/>
       </defs>
       <use xlink:href="#DejaVuSans-36"/>
       <use x="63.623047" xlink:href="#DejaVuSans-30"/>
      </g>
     </g>
    </g>
    <g id="ytick_7">
     <g id="line2d_13">
      <g>
       <use style="stroke:#000000;stroke-width:0.8;" x="44.57" xlink:href="#m95d313dbf0" y="100.174893"/>
      </g>
     </g>
     <g id="text_14">
      <!-- 70 -->
      <g transform="translate(24.845 103.974111)scale(0.1 -0.1)">
       <defs>
        <path d="M 525 4666 
L 3525 4666 
L 3525 4397 
L 1831 0 
L 1172 0 
L 2766 4134 
L 525 4134 
L 525 4666 
z
" id="DejaVuSans-37" transform="scale(0.015625)"/>
       </defs>
       <use xlink:href="#DejaVuSans-37"/>
       <use x="63.623047" xlink:href="#DejaVuSans-30"/>
      </g>
     </g>
    </g>
    <g id="ytick_8">
     <g id="line2d_14">
      <g>
       <use style="stroke:#000000;stroke-width:0.8;" x="44.57" xlink:href="#m95d313dbf0" y="68.524193"/>
      </g>
     </g>
     <g id="text_15">
      <!-- 80 -->
      <g transform="translate(24.845 72.323412)scale(0.1 -0.1)">
       <defs>
        <path d="M 2034 2216 
Q 1584 2216 1326 1975 
Q 1069 1734 1069 1313 
Q 1069 891 1326 650 
Q 1584 409 2034 409 
Q 2484 409 2743 651 
Q 3003 894 3003 1313 
Q 3003 1734 2745 1975 
Q 2488 2216 2034 2216 
z
M 1403 2484 
Q 997 2584 770 2862 
Q 544 3141 544 3541 
Q 544 4100 942 4425 
Q 1341 4750 2034 4750 
Q 2731 4750 3128 4425 
Q 3525 4100 3525 3541 
Q 3525 3141 3298 2862 
Q 3072 2584 2669 2484 
Q 3125 2378 3379 2068 
Q 3634 1759 3634 1313 
Q 3634 634 3220 271 
Q 2806 -91 2034 -91 
Q 1263 -91 848 271 
Q 434 634 434 1313 
Q 434 1759 690 2068 
Q 947 2378 1403 2484 
z
M 1172 3481 
Q 1172 3119 1398 2916 
Q 1625 2713 2034 2713 
Q 2441 2713 2670 2916 
Q 2900 3119 2900 3481 
Q 2900 3844 2670 4047 
Q 2441 4250 2034 4250 
Q 1625 4250 1398 4047 
Q 1172 3844 1172 3481 
z
" id="DejaVuSans-38" transform="scale(0.015625)"/>
       </defs>
       <use xlink:href="#DejaVuSans-38"/>
       <use x="63.623047" xlink:href="#DejaVuSans-30"/>
      </g>
     </g>
    </g>
    <g id="text_16">
     <!-- Test Accuracy -->
     <g transform="translate(18.765313 210.2725)rotate(-90)scale(0.1 -0.1)">
      <defs>
       <path d="M -19 4666 
L 3928 4666 
L 3928 4134 
L 2272 4134 
L 2272 0 
L 1638 0 
L 1638 4134 
L -19 4134 
L -19 4666 
z
" id="DejaVuSans-54" transform="scale(0.015625)"/>
       <path d="M 3597 1894 
L 3597 1613 
L 953 1613 
Q 991 1019 1311 708 
Q 1631 397 2203 397 
Q 2534 397 2845 478 
Q 3156 559 3463 722 
L 3463 178 
Q 3153 47 2828 -22 
Q 2503 -91 2169 -91 
Q 1331 -91 842 396 
Q 353 884 353 1716 
Q 353 2575 817 3079 
Q 1281 3584 2069 3584 
Q 2775 3584 3186 3129 
Q 3597 2675 3597 1894 
z
M 3022 2063 
Q 3016 2534 2758 2815 
Q 2500 3097 2075 3097 
Q 1594 3097 1305 2825 
Q 1016 2553 972 2059 
L 3022 2063 
z
" id="DejaVuSans-65" transform="scale(0.015625)"/>
       <path d="M 2188 4044 
L 1331 1722 
L 3047 1722 
L 2188 4044 
z
M 1831 4666 
L 2547 4666 
L 4325 0 
L 3669 0 
L 3244 1197 
L 1141 1197 
L 716 0 
L 50 0 
L 1831 4666 
z
" id="DejaVuSans-41" transform="scale(0.015625)"/>
       <path d="M 2631 2963 
Q 2534 3019 2420 3045 
Q 2306 3072 2169 3072 
Q 1681 3072 1420 2755 
Q 1159 2438 1159 1844 
L 1159 0 
L 581 0 
L 581 3500 
L 1159 3500 
L 1159 2956 
Q 1341 3275 1631 3429 
Q 1922 3584 2338 3584 
Q 2397 3584 2469 3576 
Q 2541 3569 2628 3553 
L 2631 2963 
z
" id="DejaVuSans-72" transform="scale(0.015625)"/>
       <path d="M 2059 -325 
Q 1816 -950 1584 -1140 
Q 1353 -1331 966 -1331 
L 506 -1331 
L 506 -850 
L 844 -850 
Q 1081 -850 1212 -737 
Q 1344 -625 1503 -206 
L 1606 56 
L 191 3500 
L 800 3500 
L 1894 763 
L 2988 3500 
L 3597 3500 
L 2059 -325 
z
" id="DejaVuSans-79" transform="scale(0.015625)"/>
      </defs>
      <use xlink:href="#DejaVuSans-54"/>
      <use x="44.083984" xlink:href="#DejaVuSans-65"/>
      <use x="105.607422" xlink:href="#DejaVuSans-73"/>
      <use x="157.707031" xlink:href="#DejaVuSans-74"/>
      <use x="196.916016" xlink:href="#DejaVuSans-20"/>
      <use x="228.703125" xlink:href="#DejaVuSans-41"/>
      <use x="295.361328" xlink:href="#DejaVuSans-63"/>
      <use x="350.341797" xlink:href="#DejaVuSans-63"/>
      <use x="405.322266" xlink:href="#DejaVuSans-75"/>
      <use x="468.701172" xlink:href="#DejaVuSans-72"/>
      <use x="509.814453" xlink:href="#DejaVuSans-61"/>
      <use x="571.09375" xlink:href="#DejaVuSans-63"/>
      <use x="626.074219" xlink:href="#DejaVuSans-79"/>
     </g>
    </g>
   </g>
   <g id="line2d_15">
    <path clip-path="url(#peefb25235e)" d="M 62.998636 287.995752 
L 70.520529 194.245579 
L 78.042421 156.665382 
L 85.564314 136.79355 
L 93.086206 121.489035 
L 100.608098 114.037098 
L 108.129991 107.466573 
L 115.651883 103.780669 
L 123.173776 101.376818 
L 130.695668 98.331941 
L 138.21756 94.405651 
L 145.739453 93.764624 
L 153.261345 93.043469 
L 160.783237 89.11718 
L 168.30513 85.511404 
L 175.827022 83.588324 
L 183.348915 86.472944 
L 190.870807 81.024216 
L 198.392699 81.264601 
L 205.914592 79.181264 
L 213.436484 78.700494 
L 220.958377 73.331894 
L 228.480269 74.53382 
L 236.002161 74.934461 
L 243.524054 73.331894 
L 251.045946 72.530611 
L 258.567839 72.290226 
L 266.089731 71.008172 
L 273.611623 69.726118 
L 281.133516 69.886375 
L 288.655408 69.085092 
L 296.177301 68.20368 
L 303.699193 67.883166 
L 311.221085 68.123551 
L 318.742978 66.681241 
L 326.26487 67.322268 
L 333.786763 67.081883 
L 341.308655 67.482525 
L 348.830547 65.960086 
L 356.35244 65.719701 
L 363.874332 65.559444 
L 371.396224 64.838289 
L 378.918117 66.440856 
L 386.440009 64.27739 
L 393.961902 62.35431 
L 401.483794 62.915208 
L 409.005686 63.075465 
L 416.527579 62.754952 
L 424.049471 62.83508 
L 431.571364 63.395979 
" style="fill:none;stroke:#1f77b4;stroke-linecap:square;stroke-width:1.5;"/>
   </g>
   <g id="line2d_16">
    <path clip-path="url(#peefb25235e)" d="M 62.998636 287.995752 
L 70.520529 228.540514 
L 78.042421 180.223117 
L 85.564314 161.873725 
L 93.086206 143.524332 
L 100.608098 132.306362 
L 108.129991 125.415324 
L 115.651883 121.969805 
L 123.173776 118.203772 
L 130.695668 118.203772 
L 138.21756 111.553119 
L 145.739453 112.755044 
L 153.261345 108.267856 
L 160.783237 109.469782 
L 168.30513 106.745418 
L 175.827022 105.543492 
L 183.348915 103.139642 
L 190.870807 102.25823 
L 198.392699 99.293481 
L 205.914592 98.892839 
L 213.436484 93.524239 
L 220.958377 94.245394 
L 228.480269 92.001801 
L 236.002161 92.001801 
L 243.524054 90.319105 
L 251.045946 88.315896 
L 258.567839 87.434484 
L 266.089731 86.953714 
L 273.611623 86.232559 
L 281.133516 85.992174 
L 288.655408 82.386398 
L 296.177301 84.629992 
L 303.699193 82.706912 
L 311.221085 82.30627 
L 318.742978 81.34473 
L 326.26487 81.504986 
L 333.786763 80.303061 
L 341.308655 80.142804 
L 348.830547 78.379981 
L 356.35244 76.216515 
L 363.874332 76.056258 
L 371.396224 74.774205 
L 378.918117 74.694076 
L 386.440009 76.296643 
L 393.961902 74.934461 
L 401.483794 73.892793 
L 409.005686 71.889584 
L 416.527579 72.931253 
L 424.049471 71.248557 
L 431.571364 71.488942 
" style="fill:none;stroke:#ff7f0e;stroke-linecap:square;stroke-width:1.5;"/>
   </g>
   <g id="line2d_17">
    <path clip-path="url(#peefb25235e)" d="M 62.998636 287.995752 
L 70.520529 194.405836 
L 78.042421 160.591671 
L 85.564314 139.037144 
L 93.086206 125.735837 
L 100.608098 116.36082 
L 108.129991 111.47299 
L 115.651883 107.787086 
L 123.173776 107.065931 
L 130.695668 103.70054 
L 138.21756 100.174893 
L 145.739453 97.931299 
L 153.261345 96.088347 
L 160.783237 95.126806 
L 168.30513 90.639619 
L 175.827022 91.120389 
L 183.348915 89.59795 
L 190.870807 87.033843 
L 198.392699 85.110762 
L 205.914592 85.190891 
L 213.436484 83.828709 
L 220.958377 81.985756 
L 228.480269 80.783831 
L 236.002161 79.421649 
L 243.524054 80.142804 
L 251.045946 79.982548 
L 258.567839 78.780622 
L 266.089731 77.178055 
L 273.611623 75.49536 
L 281.133516 74.694076 
L 288.655408 73.011381 
L 296.177301 71.569071 
L 303.699193 73.251766 
L 311.221085 72.530611 
L 318.742978 72.450482 
L 326.26487 70.60753 
L 333.786763 70.767787 
L 341.308655 69.726118 
L 348.830547 70.12676 
L 356.35244 68.844707 
L 363.874332 69.245348 
L 371.396224 68.20368 
L 378.918117 70.046632 
L 386.440009 69.004963 
L 393.961902 68.764578 
L 401.483794 69.485733 
L 409.005686 66.280599 
L 416.527579 66.921626 
L 424.049471 67.001754 
L 431.571364 65.960086 
" style="fill:none;stroke:#2ca02c;stroke-linecap:square;stroke-width:1.5;"/>
   </g>
   <g id="line2d_18">
    <path clip-path="url(#peefb25235e)" d="M 62.998636 290.07909 
L 70.520529 209.673653 
L 78.042421 195.437168 
L 85.564314 197.158966 
L 93.086206 195.652393 
L 100.608098 200.640543 
L 108.129991 200.665864 
L 115.651883 199.849275 
L 123.173776 198.899754 
L 130.695668 198.273071 
L 138.21756 197.722348 
L 145.739453 195.9689 
L 153.261345 198.159128 
L 160.783237 197.405841 
L 168.30513 198.007205 
L 175.827022 196.981722 
L 183.348915 198.944065 
L 190.870807 198.925075 
L 198.392699 199.051678 
L 205.914592 200.995031 
L 213.436484 201.621715 
L 220.958377 201.735657 
L 228.480269 200.324036 
L 236.002161 201.41282 
L 243.524054 201.811619 
L 251.045946 203.400484 
L 258.567839 202.843432 
L 266.089731 202.356011 
L 273.611623 203.261221 
L 281.133516 202.881412 
L 288.655408 202.431973 
L 296.177301 204.033498 
L 303.699193 203.008015 
L 311.221085 203.166269 
L 318.742978 204.641191 
L 326.26487 205.824928 
L 333.786763 206.40097 
L 341.308655 206.021162 
L 348.830547 206.236387 
L 356.35244 206.799769 
L 363.874332 208.534227 
L 371.396224 206.717477 
L 378.918117 207.242879 
L 386.440009 205.9452 
L 393.961902 206.86307 
L 401.483794 205.299526 
L 409.005686 205.191914 
L 416.527579 206.806099 
L 424.049471 206.476932 
L 431.571364 205.096961 
" style="fill:none;stroke:#d62728;stroke-linecap:square;stroke-width:1.5;"/>
   </g>
   <g id="patch_3">
    <path d="M 44.57 303.64 
L 44.57 48.38 
" style="fill:none;stroke:#000000;stroke-linecap:square;stroke-linejoin:miter;stroke-width:0.8;"/>
   </g>
   <g id="patch_4">
    <path d="M 450 303.64 
L 450 48.38 
" style="fill:none;stroke:#000000;stroke-linecap:square;stroke-linejoin:miter;stroke-width:0.8;"/>
   </g>
   <g id="patch_5">
    <path d="M 44.57 303.64 
L 450 303.64 
" style="fill:none;stroke:#000000;stroke-linecap:square;stroke-linejoin:miter;stroke-width:0.8;"/>
   </g>
   <g id="patch_6">
    <path d="M 44.57 48.38 
L 450 48.38 
" style="fill:none;stroke:#000000;stroke-linecap:square;stroke-linejoin:miter;stroke-width:0.8;"/>
   </g>
   <g id="text_17">
    <!-- Local Rounds 25 -->
    <g transform="translate(198.174063 20.88)scale(0.12 -0.12)">
     <defs>
      <path d="M 628 4666 
L 1259 4666 
L 1259 531 
L 3531 531 
L 3531 0 
L 628 0 
L 628 4666 
z
" id="DejaVuSans-4c" transform="scale(0.015625)"/>
     </defs>
     <use xlink:href="#DejaVuSans-4c"/>
     <use x="53.962891" xlink:href="#DejaVuSans-6f"/>
     <use x="115.144531" xlink:href="#DejaVuSans-63"/>
     <use x="170.125" xlink:href="#DejaVuSans-61"/>
     <use x="231.404297" xlink:href="#DejaVuSans-6c"/>
     <use x="259.1875" xlink:href="#DejaVuSans-20"/>
     <use x="290.974609" xlink:href="#DejaVuSans-52"/>
     <use x="355.957031" xlink:href="#DejaVuSans-6f"/>
     <use x="417.138672" xlink:href="#DejaVuSans-75"/>
     <use x="480.517578" xlink:href="#DejaVuSans-6e"/>
     <use x="543.896484" xlink:href="#DejaVuSans-64"/>
     <use x="607.373047" xlink:href="#DejaVuSans-73"/>
     <use x="659.472656" xlink:href="#DejaVuSans-20"/>
     <use x="691.259766" xlink:href="#DejaVuSans-32"/>
     <use x="754.882812" xlink:href="#DejaVuSans-35"/>
    </g>
   </g>
   <g id="legend_1">
    <g id="patch_7">
     <path d="M 80.886563 45.532125 
L 413.683438 45.532125 
Q 415.683438 45.532125 415.683438 43.532125 
L 415.683438 29.854 
Q 415.683438 27.854 413.683438 27.854 
L 80.886563 27.854 
Q 78.886563 27.854 78.886563 29.854 
L 78.886563 43.532125 
Q 78.886563 45.532125 80.886563 45.532125 
z
" style="fill:#ffffff;opacity:0.8;stroke:#cccccc;stroke-linejoin:miter;"/>
    </g>
    <g id="line2d_19">
     <path d="M 82.886563 35.952438 
L 102.886563 35.952438 
" style="fill:none;stroke:#1f77b4;stroke-linecap:square;stroke-width:1.5;"/>
    </g>
    <g id="line2d_20"/>
    <g id="text_18">
     <!-- FedAvg -->
     <g transform="translate(110.886563 39.452438)scale(0.1 -0.1)">
      <defs>
       <path d="M 628 4666 
L 3309 4666 
L 3309 4134 
L 1259 4134 
L 1259 2759 
L 3109 2759 
L 3109 2228 
L 1259 2228 
L 1259 0 
L 628 0 
L 628 4666 
z
" id="DejaVuSans-46" transform="scale(0.015625)"/>
       <path d="M 191 3500 
L 800 3500 
L 1894 563 
L 2988 3500 
L 3597 3500 
L 2284 0 
L 1503 0 
L 191 3500 
z
" id="DejaVuSans-76" transform="scale(0.015625)"/>
       <path d="M 2906 1791 
Q 2906 2416 2648 2759 
Q 2391 3103 1925 3103 
Q 1463 3103 1205 2759 
Q 947 2416 947 1791 
Q 947 1169 1205 825 
Q 1463 481 1925 481 
Q 2391 481 2648 825 
Q 2906 1169 2906 1791 
z
M 3481 434 
Q 3481 -459 3084 -895 
Q 2688 -1331 1869 -1331 
Q 1566 -1331 1297 -1286 
Q 1028 -1241 775 -1147 
L 775 -588 
Q 1028 -725 1275 -790 
Q 1522 -856 1778 -856 
Q 2344 -856 2625 -561 
Q 2906 -266 2906 331 
L 2906 616 
Q 2728 306 2450 153 
Q 2172 0 1784 0 
Q 1141 0 747 490 
Q 353 981 353 1791 
Q 353 2603 747 3093 
Q 1141 3584 1784 3584 
Q 2172 3584 2450 3431 
Q 2728 3278 2906 2969 
L 2906 3500 
L 3481 3500 
L 3481 434 
z
" id="DejaVuSans-67" transform="scale(0.015625)"/>
      </defs>
      <use xlink:href="#DejaVuSans-46"/>
      <use x="52.019531" xlink:href="#DejaVuSans-65"/>
      <use x="113.542969" xlink:href="#DejaVuSans-64"/>
      <use x="177.019531" xlink:href="#DejaVuSans-41"/>
      <use x="239.552734" xlink:href="#DejaVuSans-76"/>
      <use x="298.732422" xlink:href="#DejaVuSans-67"/>
     </g>
    </g>
    <g id="line2d_21">
     <path d="M 167.11 35.952438 
L 187.11 35.952438 
" style="fill:none;stroke:#ff7f0e;stroke-linecap:square;stroke-width:1.5;"/>
    </g>
    <g id="line2d_22"/>
    <g id="text_19">
     <!-- FedMed -->
     <g transform="translate(195.11 39.452438)scale(0.1 -0.1)">
      <defs>
       <path d="M 628 4666 
L 1569 4666 
L 2759 1491 
L 3956 4666 
L 4897 4666 
L 4897 0 
L 4281 0 
L 4281 4097 
L 3078 897 
L 2444 897 
L 1241 4097 
L 1241 0 
L 628 0 
L 628 4666 
z
" id="DejaVuSans-4d" transform="scale(0.015625)"/>
      </defs>
      <use xlink:href="#DejaVuSans-46"/>
      <use x="52.019531" xlink:href="#DejaVuSans-65"/>
      <use x="113.542969" xlink:href="#DejaVuSans-64"/>
      <use x="177.019531" xlink:href="#DejaVuSans-4d"/>
      <use x="263.298828" xlink:href="#DejaVuSans-65"/>
      <use x="324.822266" xlink:href="#DejaVuSans-64"/>
     </g>
    </g>
    <g id="line2d_23">
     <path d="M 253.942813 35.952438 
L 273.942813 35.952438 
" style="fill:none;stroke:#2ca02c;stroke-linecap:square;stroke-width:1.5;"/>
    </g>
    <g id="line2d_24"/>
    <g id="text_20">
     <!-- FedProx -->
     <g transform="translate(281.942813 39.452438)scale(0.1 -0.1)">
      <defs>
       <path d="M 1259 4147 
L 1259 2394 
L 2053 2394 
Q 2494 2394 2734 2622 
Q 2975 2850 2975 3272 
Q 2975 3691 2734 3919 
Q 2494 4147 2053 4147 
L 1259 4147 
z
M 628 4666 
L 2053 4666 
Q 2838 4666 3239 4311 
Q 3641 3956 3641 3272 
Q 3641 2581 3239 2228 
Q 2838 1875 2053 1875 
L 1259 1875 
L 1259 0 
L 628 0 
L 628 4666 
z
" id="DejaVuSans-50" transform="scale(0.015625)"/>
       <path d="M 3513 3500 
L 2247 1797 
L 3578 0 
L 2900 0 
L 1881 1375 
L 863 0 
L 184 0 
L 1544 1831 
L 300 3500 
L 978 3500 
L 1906 2253 
L 2834 3500 
L 3513 3500 
z
" id="DejaVuSans-78" transform="scale(0.015625)"/>
      </defs>
      <use xlink:href="#DejaVuSans-46"/>
      <use x="52.019531" xlink:href="#DejaVuSans-65"/>
      <use x="113.542969" xlink:href="#DejaVuSans-64"/>
      <use x="177.019531" xlink:href="#DejaVuSans-50"/>
      <use x="235.572266" xlink:href="#DejaVuSans-72"/>
      <use x="274.435547" xlink:href="#DejaVuSans-6f"/>
      <use x="332.492188" xlink:href="#DejaVuSans-78"/>
     </g>
    </g>
    <g id="line2d_25">
     <path d="M 341.111563 35.952438 
L 361.111563 35.952438 
" style="fill:none;stroke:#d62728;stroke-linecap:square;stroke-width:1.5;"/>
    </g>
    <g id="line2d_26"/>
    <g id="text_21">
     <!-- qFedAvg -->
     <g transform="translate(369.111563 39.452438)scale(0.1 -0.1)">
      <defs>
       <path d="M 947 1747 
Q 947 1113 1208 752 
Q 1469 391 1925 391 
Q 2381 391 2643 752 
Q 2906 1113 2906 1747 
Q 2906 2381 2643 2742 
Q 2381 3103 1925 3103 
Q 1469 3103 1208 2742 
Q 947 2381 947 1747 
z
M 2906 525 
Q 2725 213 2448 61 
Q 2172 -91 1784 -91 
Q 1150 -91 751 415 
Q 353 922 353 1747 
Q 353 2572 751 3078 
Q 1150 3584 1784 3584 
Q 2172 3584 2448 3432 
Q 2725 3281 2906 2969 
L 2906 3500 
L 3481 3500 
L 3481 -1331 
L 2906 -1331 
L 2906 525 
z
" id="DejaVuSans-71" transform="scale(0.015625)"/>
      </defs>
      <use xlink:href="#DejaVuSans-71"/>
      <use x="63.476562" xlink:href="#DejaVuSans-46"/>
      <use x="115.496094" xlink:href="#DejaVuSans-65"/>
      <use x="177.019531" xlink:href="#DejaVuSans-64"/>
      <use x="240.496094" xlink:href="#DejaVuSans-41"/>
      <use x="303.029297" xlink:href="#DejaVuSans-76"/>
      <use x="362.208984" xlink:href="#DejaVuSans-67"/>
     </g>
    </g>
   </g>
  </g>
 </g>
 <defs>
  <clipPath id="peefb25235e">
   <rect height="255.26" width="405.43" x="44.57" y="48.38"/>
  </clipPath>
 </defs>
</svg>
