<?xml version="1.0" encoding="utf-8" standalone="no"?>
<!DOCTYPE svg PUBLIC "-//W3C//DTD SVG 1.1//EN"
  "http://www.w3.org/Graphics/SVG/1.1/DTD/svg11.dtd">
<svg height="432pt" version="1.1" viewBox="0 0 576 432" width="576pt" xmlns="http://www.w3.org/2000/svg" xmlns:xlink="http://www.w3.org/1999/xlink">
 <metadata>
  <rdf:RDF xmlns:cc="http://creativecommons.org/ns#" xmlns:dc="http://purl.org/dc/elements/1.1/" xmlns:rdf="http://www.w3.org/1999/02/22-rdf-syntax-ns#">
   <cc:Work>
    <dc:type rdf:resource="http://purl.org/dc/dcmitype/StillImage"/>
    <dc:date>2021-05-07T22:04:39.673855</dc:date>
    <dc:format>image/svg+xml</dc:format>
    <dc:creator>
     <cc:Agent>
      <dc:title>Matplotlib v3.4.1, https://matplotlib.org/</dc:title>
     </cc:Agent>
    </dc:creator>
   </cc:Work>
  </rdf:RDF>
 </metadata>
 <defs>
  <style type="text/css">*{stroke-linecap:butt;stroke-linejoin:round;}</style>
 </defs>
 <g id="figure_1">
  <g id="patch_1">
   <path d="M 0 432 
L 576 432 
L 576 0 
L 0 0 
z
" style="fill:#ffffff;"/>
  </g>
  <g id="axes_1">
   <g id="patch_2">
    <path d="M 60.77 376 
L 556.505 376 
L 556.505 56.601989 
L 60.77 56.601989 
z
" style="fill:#ffffff;"/>
   </g>
   <g id="PolyCollection_1">
    <path clip-path="url(#p3fceacfee0)" d="M 83.303409 354.705762 
L 83.303409 358.144026 
L 92.500719 249.111587 
L 101.698029 197.257036 
L 110.895339 171.721373 
L 120.092648 154.207442 
L 129.289958 144.170584 
L 138.487268 135.305583 
L 147.684578 130.699856 
L 156.881888 127.342517 
L 166.079198 123.618021 
L 175.276507 116.162127 
L 184.473817 117.074055 
L 193.671127 118.531894 
L 202.868437 109.852524 
L 212.065747 105.708319 
L 221.263057 104.905967 
L 230.460366 107.490379 
L 239.657676 101.013154 
L 248.854986 99.283064 
L 258.052296 98.193538 
L 267.249606 97.89038 
L 276.446916 90.359877 
L 285.644225 92.163192 
L 294.841535 91.445341 
L 304.038845 90.43794 
L 313.236155 90.690972 
L 322.433465 90.143352 
L 331.630775 87.828612 
L 340.828084 87.78427 
L 350.025394 86.595937 
L 359.222704 85.493923 
L 368.420014 84.319448 
L 377.617324 82.131062 
L 386.814634 83.480036 
L 396.011943 81.255564 
L 405.209253 82.800293 
L 414.406563 82.531515 
L 423.603873 82.369295 
L 432.801183 80.409617 
L 441.998493 81.356132 
L 451.195802 80.191561 
L 460.393112 80.816226 
L 469.590422 82.821462 
L 478.787732 78.066389 
L 487.985042 77.055039 
L 497.182352 77.245296 
L 506.379661 77.107317 
L 515.576971 76.609089 
L 524.774281 75.551615 
L 533.971591 77.167608 
L 533.971591 73.614319 
L 533.971591 73.614319 
L 524.774281 73.826645 
L 515.576971 72.568648 
L 506.379661 72.872515 
L 497.182352 72.333489 
L 487.985042 71.12008 
L 478.787732 74.921298 
L 469.590422 75.580364 
L 460.393112 73.575127 
L 451.195802 76.004504 
L 441.998493 75.240981 
L 432.801183 76.789067 
L 423.603873 78.639339 
L 414.406563 77.4745 
L 405.209253 77.807294 
L 396.011943 77.747833 
L 386.814634 79.132787 
L 377.617324 79.88019 
L 368.420014 78.493899 
L 359.222704 79.525185 
L 350.025394 80.428407 
L 340.828084 78.839026 
L 331.630775 82.003063 
L 322.433465 82.896703 
L 313.236155 82.950654 
L 304.038845 85.208922 
L 294.841535 88.211994 
L 285.644225 86.491526 
L 276.446916 85.286985 
L 267.249606 91.191568 
L 258.052296 92.091553 
L 248.854986 96.215642 
L 239.657676 93.883981 
L 230.460366 101.042366 
L 221.263057 96.407926 
L 212.065747 100.418141 
L 202.868437 105.297502 
L 193.671127 106.443792 
L 184.473817 109.706345 
L 175.276507 112.222462 
L 166.079198 114.592228 
L 156.881888 118.487631 
L 147.684578 121.146003 
L 138.487268 125.764364 
L 129.289958 133.342305 
L 120.092648 141.954149 
L 110.895339 162.74024 
L 101.698029 186.934448 
L 92.500719 229.125501 
L 83.303409 354.705762 
z
" style="fill:#1f77b4;fill-opacity:0.5;"/>
   </g>
   <g id="PolyCollection_2">
    <path clip-path="url(#p3fceacfee0)" d="M 83.303409 354.705762 
L 83.303409 358.144026 
L 92.500719 300.018042 
L 101.698029 229.552204 
L 110.895339 203.95588 
L 120.092648 183.124831 
L 129.289958 162.478628 
L 138.487268 156.164183 
L 147.684578 154.473301 
L 156.881888 149.694651 
L 166.079198 147.543097 
L 175.276507 138.76452 
L 184.473817 142.090596 
L 193.671127 138.594487 
L 202.868437 136.402909 
L 212.065747 135.882719 
L 221.263057 132.707924 
L 230.460366 131.47462 
L 239.657676 128.882462 
L 248.854986 126.088777 
L 258.052296 121.52609 
L 267.249606 118.819271 
L 276.446916 116.955861 
L 285.644225 115.999096 
L 294.841535 117.538224 
L 304.038845 114.21681 
L 313.236155 109.365366 
L 322.433465 108.204293 
L 331.630775 109.097995 
L 340.828084 106.790766 
L 350.025394 105.360383 
L 359.222704 103.354456 
L 368.420014 105.703757 
L 377.617324 103.03591 
L 386.814634 102.103749 
L 396.011943 100.3259 
L 405.209253 101.261649 
L 414.406563 101.287228 
L 423.603873 99.468324 
L 432.801183 97.190919 
L 441.998493 95.372522 
L 451.195802 96.925229 
L 460.393112 92.439054 
L 469.590422 94.895403 
L 478.787732 96.337325 
L 487.985042 96.025466 
L 497.182352 93.473772 
L 506.379661 91.695699 
L 515.576971 89.029519 
L 524.774281 90.283567 
L 533.971591 91.158864 
L 533.971591 79.875954 
L 533.971591 79.875954 
L 524.774281 80.149679 
L 515.576971 85.614724 
L 506.379661 80.341737 
L 497.182352 83.576756 
L 487.985042 83.63187 
L 478.787732 86.728913 
L 469.590422 84.160361 
L 460.393112 86.817234 
L 451.195802 85.539439 
L 441.998493 87.493192 
L 432.801183 91.088934 
L 423.603873 93.22305 
L 414.406563 91.805193 
L 405.209253 94.838628 
L 396.011943 95.37333 
L 386.814634 96.001764 
L 377.617324 96.072222 
L 368.420014 98.216943 
L 359.222704 94.951581 
L 350.025394 101.96922 
L 340.828084 101.140408 
L 331.630775 100.637892 
L 322.433465 102.734736 
L 313.236155 103.779423 
L 304.038845 103.941072 
L 294.841535 104.830654 
L 285.644225 106.369783 
L 276.446916 111.027681 
L 267.249606 107.359558 
L 258.052296 118.087825 
L 248.854986 114.527756 
L 239.657676 119.153447 
L 230.460366 118.76705 
L 221.263057 123.549456 
L 212.065747 123.382516 
L 202.868437 129.680131 
L 193.671127 124.480697 
L 184.473817 132.213914 
L 175.276507 132.532135 
L 166.079198 140.397023 
L 156.881888 138.245469 
L 147.684578 142.891432 
L 138.487268 149.823068 
L 129.289958 160.753659 
L 120.092648 168.180771 
L 110.895339 193.269643 
L 101.698029 213.593241 
L 92.500719 264.043179 
L 83.303409 354.705762 
z
" style="fill:#ff7f0e;fill-opacity:0.5;"/>
   </g>
   <g id="PolyCollection_3">
    <path clip-path="url(#p3fceacfee0)" d="M 83.303409 351.367879 
L 83.303409 361.481909 
L 92.500719 245.687076 
L 101.698029 200.896871 
L 110.895339 176.838227 
L 120.092648 162.3814 
L 129.289958 152.26812 
L 138.487268 143.732773 
L 147.684578 131.93864 
L 156.881888 135.492183 
L 166.079198 131.663726 
L 175.276507 126.99349 
L 184.473817 126.463985 
L 193.671127 124.188597 
L 202.868437 121.787457 
L 212.065747 116.110927 
L 221.263057 115.514234 
L 230.460366 112.472661 
L 239.657676 111.224737 
L 248.854986 108.970841 
L 258.052296 109.466705 
L 267.249606 106.720825 
L 276.446916 104.689104 
L 285.644225 101.038665 
L 294.841535 100.171609 
L 304.038845 100.761763 
L 313.236155 100.074609 
L 322.433465 99.497471 
L 331.630775 98.981869 
L 340.828084 94.447134 
L 350.025394 94.506768 
L 359.222704 93.416331 
L 368.420014 91.232334 
L 377.617324 94.577736 
L 386.814634 90.365604 
L 396.011943 89.897443 
L 405.209253 88.315732 
L 414.406563 86.870387 
L 423.603873 86.85644 
L 432.801183 86.903235 
L 441.998493 86.32317 
L 451.195802 86.700448 
L 460.393112 83.723568 
L 469.590422 85.825344 
L 478.787732 84.52194 
L 487.985042 85.70398 
L 497.182352 86.743513 
L 506.379661 81.385694 
L 515.576971 83.737043 
L 524.774281 83.73899 
L 533.971591 82.194816 
L 533.971591 75.003868 
L 533.971591 75.003868 
L 524.774281 76.066502 
L 515.576971 75.867925 
L 506.379661 76.615085 
L 497.182352 79.278213 
L 487.985042 78.513032 
L 478.787732 80.296644 
L 469.590422 81.600048 
L 460.393112 79.089779 
L 451.195802 78.719707 
L 441.998493 78.094366 
L 432.801183 80.72268 
L 423.603873 79.766857 
L 414.406563 82.359718 
L 405.209253 80.513325 
L 396.011943 83.543658 
L 386.814634 83.276021 
L 377.617324 80.868602 
L 368.420014 80.003008 
L 359.222704 81.428436 
L 350.025394 84.548996 
L 340.828084 86.613867 
L 331.630775 86.29013 
L 322.433465 89.785001 
L 313.236155 92.215718 
L 304.038845 91.929611 
L 294.841535 90.715052 
L 285.644225 93.256899 
L 276.446916 92.614315 
L 267.249606 95.194638 
L 258.052296 95.857661 
L 248.854986 96.153001 
L 239.657676 98.711674 
L 230.460366 103.880508 
L 221.263057 104.648885 
L 212.065747 102.849049 
L 202.868437 108.401845 
L 193.671127 108.406989 
L 184.473817 110.743645 
L 175.276507 115.828804 
L 166.079198 119.981609 
L 156.881888 124.575147 
L 147.684578 129.933403 
L 138.487268 127.363358 
L 129.289958 131.059956 
L 120.092648 144.407945 
L 110.895339 163.238049 
L 101.698029 193.120274 
L 92.500719 232.95106 
L 83.303409 351.367879 
z
" style="fill:#2ca02c;fill-opacity:0.5;"/>
   </g>
   <g id="PolyCollection_4">
    <path clip-path="url(#p3fceacfee0)" d="M 83.303409 359.031702 
L 83.303409 359.031702 
L 92.500719 266.203296 
L 101.698029 249.301074 
L 110.895339 249.045292 
L 120.092648 246.400735 
L 129.289958 254.378965 
L 138.487268 254.0538 
L 147.684578 252.42595 
L 156.881888 250.311793 
L 166.079198 249.536412 
L 175.276507 248.865444 
L 184.473817 247.593259 
L 193.671127 248.302375 
L 202.868437 247.314914 
L 212.065747 248.667331 
L 221.263057 246.975406 
L 230.460366 250.708604 
L 239.657676 250.984847 
L 248.854986 252.672433 
L 258.052296 254.038816 
L 267.249606 255.203189 
L 276.446916 254.713345 
L 285.644225 252.054957 
L 294.841535 255.710529 
L 304.038845 257.02045 
L 313.236155 259.429553 
L 322.433465 257.540894 
L 331.630775 256.198854 
L 340.828084 259.984254 
L 350.025394 259.788967 
L 359.222704 259.560416 
L 368.420014 262.64188 
L 377.617324 262.304528 
L 386.814634 260.343176 
L 396.011943 263.683213 
L 405.209253 264.337324 
L 414.406563 266.484246 
L 423.603873 265.538696 
L 432.801183 265.792893 
L 441.998493 268.263727 
L 451.195802 271.46284 
L 460.393112 268.153472 
L 469.590422 268.33576 
L 478.787732 265.895699 
L 487.985042 268.184462 
L 497.182352 263.89802 
L 506.379661 263.619662 
L 515.576971 267.48507 
L 524.774281 266.520218 
L 533.971591 263.600758 
L 533.971591 241.792248 
L 533.971591 241.792248 
L 524.774281 242.326208 
L 515.576971 242.185107 
L 506.379661 242.010965 
L 497.182352 242.001911 
L 487.985042 241.628287 
L 478.787732 241.620051 
L 469.590422 242.427471 
L 460.393112 241.294925 
L 451.195802 242.53203 
L 441.998493 241.390608 
L 432.801183 242.45156 
L 423.603873 242.16715 
L 414.406563 242.172083 
L 405.209253 242.877441 
L 396.011943 240.569215 
L 386.814634 240.218213 
L 377.617324 237.860826 
L 368.420014 240.089777 
L 359.222704 239.163374 
L 350.025394 240.05956 
L 340.828084 240.814756 
L 331.630775 242.33484 
L 322.433465 242.212585 
L 313.236155 241.717966 
L 304.038845 240.150885 
L 294.841535 240.4628 
L 285.644225 241.393656 
L 276.446916 242.267894 
L 267.249606 241.492906 
L 258.052296 241.088983 
L 248.854986 237.592065 
L 239.657676 238.962823 
L 230.460366 239.286591 
L 221.263057 238.108964 
L 212.065747 238.983341 
L 202.868437 238.830828 
L 193.671127 239.72849 
L 184.473817 234.956492 
L 175.276507 238.072366 
L 166.079198 238.779597 
L 156.881888 239.572512 
L 147.684578 239.834561 
L 138.487268 240.250248 
L 129.289958 239.861717 
L 120.092648 235.356947 
L 110.895339 236.482636 
L 101.698029 231.918001 
L 92.500719 250.643022 
L 83.303409 359.031702 
z
" style="fill:#d62728;fill-opacity:0.5;"/>
   </g>
   <g id="matplotlib.axis_1">
    <g id="xtick_1">
     <g id="line2d_1">
      <defs>
       <path d="M 0 0 
L 0 3.5 
" id="m260be9d690" style="stroke:#000000;stroke-width:0.8;"/>
      </defs>
      <g>
       <use style="stroke:#000000;stroke-width:0.8;" x="83.303409" xlink:href="#m260be9d690" y="376"/>
      </g>
     </g>
     <g id="text_1">
      <!-- 0 -->
      <g transform="translate(78.531534 394.397656)scale(0.15 -0.15)">
       <defs>
        <path d="M 2034 4250 
Q 1547 4250 1301 3770 
Q 1056 3291 1056 2328 
Q 1056 1369 1301 889 
Q 1547 409 2034 409 
Q 2525 409 2770 889 
Q 3016 1369 3016 2328 
Q 3016 3291 2770 3770 
Q 2525 4250 2034 4250 
z
M 2034 4750 
Q 2819 4750 3233 4129 
Q 3647 3509 3647 2328 
Q 3647 1150 3233 529 
Q 2819 -91 2034 -91 
Q 1250 -91 836 529 
Q 422 1150 422 2328 
Q 422 3509 836 4129 
Q 1250 4750 2034 4750 
z
" id="DejaVuSans-30" transform="scale(0.015625)"/>
       </defs>
       <use xlink:href="#DejaVuSans-30"/>
      </g>
     </g>
    </g>
    <g id="xtick_2">
     <g id="line2d_2">
      <g>
       <use style="stroke:#000000;stroke-width:0.8;" x="175.276507" xlink:href="#m260be9d690" y="376"/>
      </g>
     </g>
     <g id="text_2">
      <!-- 10 -->
      <g transform="translate(165.732757 394.397656)scale(0.15 -0.15)">
       <defs>
        <path d="M 794 531 
L 1825 531 
L 1825 4091 
L 703 3866 
L 703 4441 
L 1819 4666 
L 2450 4666 
L 2450 531 
L 3481 531 
L 3481 0 
L 794 0 
L 794 531 
z
" id="DejaVuSans-31" transform="scale(0.015625)"/>
       </defs>
       <use xlink:href="#DejaVuSans-31"/>
       <use x="63.623047" xlink:href="#DejaVuSans-30"/>
      </g>
     </g>
    </g>
    <g id="xtick_3">
     <g id="line2d_3">
      <g>
       <use style="stroke:#000000;stroke-width:0.8;" x="267.249606" xlink:href="#m260be9d690" y="376"/>
      </g>
     </g>
     <g id="text_3">
      <!-- 20 -->
      <g transform="translate(257.705856 394.397656)scale(0.15 -0.15)">
       <defs>
        <path d="M 1228 531 
L 3431 531 
L 3431 0 
L 469 0 
L 469 531 
Q 828 903 1448 1529 
Q 2069 2156 2228 2338 
Q 2531 2678 2651 2914 
Q 2772 3150 2772 3378 
Q 2772 3750 2511 3984 
Q 2250 4219 1831 4219 
Q 1534 4219 1204 4116 
Q 875 4013 500 3803 
L 500 4441 
Q 881 4594 1212 4672 
Q 1544 4750 1819 4750 
Q 2544 4750 2975 4387 
Q 3406 4025 3406 3419 
Q 3406 3131 3298 2873 
Q 3191 2616 2906 2266 
Q 2828 2175 2409 1742 
Q 1991 1309 1228 531 
z
" id="DejaVuSans-32" transform="scale(0.015625)"/>
       </defs>
       <use xlink:href="#DejaVuSans-32"/>
       <use x="63.623047" xlink:href="#DejaVuSans-30"/>
      </g>
     </g>
    </g>
    <g id="xtick_4">
     <g id="line2d_4">
      <g>
       <use style="stroke:#000000;stroke-width:0.8;" x="359.222704" xlink:href="#m260be9d690" y="376"/>
      </g>
     </g>
     <g id="text_4">
      <!-- 30 -->
      <g transform="translate(349.678954 394.397656)scale(0.15 -0.15)">
       <defs>
        <path d="M 2597 2516 
Q 3050 2419 3304 2112 
Q 3559 1806 3559 1356 
Q 3559 666 3084 287 
Q 2609 -91 1734 -91 
Q 1441 -91 1130 -33 
Q 819 25 488 141 
L 488 750 
Q 750 597 1062 519 
Q 1375 441 1716 441 
Q 2309 441 2620 675 
Q 2931 909 2931 1356 
Q 2931 1769 2642 2001 
Q 2353 2234 1838 2234 
L 1294 2234 
L 1294 2753 
L 1863 2753 
Q 2328 2753 2575 2939 
Q 2822 3125 2822 3475 
Q 2822 3834 2567 4026 
Q 2313 4219 1838 4219 
Q 1578 4219 1281 4162 
Q 984 4106 628 3988 
L 628 4550 
Q 988 4650 1302 4700 
Q 1616 4750 1894 4750 
Q 2613 4750 3031 4423 
Q 3450 4097 3450 3541 
Q 3450 3153 3228 2886 
Q 3006 2619 2597 2516 
z
" id="DejaVuSans-33" transform="scale(0.015625)"/>
       </defs>
       <use xlink:href="#DejaVuSans-33"/>
       <use x="63.623047" xlink:href="#DejaVuSans-30"/>
      </g>
     </g>
    </g>
    <g id="xtick_5">
     <g id="line2d_5">
      <g>
       <use style="stroke:#000000;stroke-width:0.8;" x="451.195802" xlink:href="#m260be9d690" y="376"/>
      </g>
     </g>
     <g id="text_5">
      <!-- 40 -->
      <g transform="translate(441.652052 394.397656)scale(0.15 -0.15)">
       <defs>
        <path d="M 2419 4116 
L 825 1625 
L 2419 1625 
L 2419 4116 
z
M 2253 4666 
L 3047 4666 
L 3047 1625 
L 3713 1625 
L 3713 1100 
L 3047 1100 
L 3047 0 
L 2419 0 
L 2419 1100 
L 313 1100 
L 313 1709 
L 2253 4666 
z
" id="DejaVuSans-34" transform="scale(0.015625)"/>
       </defs>
       <use xlink:href="#DejaVuSans-34"/>
       <use x="63.623047" xlink:href="#DejaVuSans-30"/>
      </g>
     </g>
    </g>
    <g id="xtick_6">
     <g id="line2d_6">
      <g>
       <use style="stroke:#000000;stroke-width:0.8;" x="543.168901" xlink:href="#m260be9d690" y="376"/>
      </g>
     </g>
     <g id="text_6">
      <!-- 50 -->
      <g transform="translate(533.625151 394.397656)scale(0.15 -0.15)">
       <defs>
        <path d="M 691 4666 
L 3169 4666 
L 3169 4134 
L 1269 4134 
L 1269 2991 
Q 1406 3038 1543 3061 
Q 1681 3084 1819 3084 
Q 2600 3084 3056 2656 
Q 3513 2228 3513 1497 
Q 3513 744 3044 326 
Q 2575 -91 1722 -91 
Q 1428 -91 1123 -41 
Q 819 9 494 109 
L 494 744 
Q 775 591 1075 516 
Q 1375 441 1709 441 
Q 2250 441 2565 725 
Q 2881 1009 2881 1497 
Q 2881 1984 2565 2268 
Q 2250 2553 1709 2553 
Q 1456 2553 1204 2497 
Q 953 2441 691 2322 
L 691 4666 
z
" id="DejaVuSans-35" transform="scale(0.015625)"/>
       </defs>
       <use xlink:href="#DejaVuSans-35"/>
       <use x="63.623047" xlink:href="#DejaVuSans-30"/>
      </g>
     </g>
    </g>
    <g id="text_7">
     <!-- Global Communication Rounds -->
     <g transform="translate(193.194922 412.914844)scale(0.15 -0.15)">
      <defs>
       <path d="M 3809 666 
L 3809 1919 
L 2778 1919 
L 2778 2438 
L 4434 2438 
L 4434 434 
Q 4069 175 3628 42 
Q 3188 -91 2688 -91 
Q 1594 -91 976 548 
Q 359 1188 359 2328 
Q 359 3472 976 4111 
Q 1594 4750 2688 4750 
Q 3144 4750 3555 4637 
Q 3966 4525 4313 4306 
L 4313 3634 
Q 3963 3931 3569 4081 
Q 3175 4231 2741 4231 
Q 1884 4231 1454 3753 
Q 1025 3275 1025 2328 
Q 1025 1384 1454 906 
Q 1884 428 2741 428 
Q 3075 428 3337 486 
Q 3600 544 3809 666 
z
" id="DejaVuSans-47" transform="scale(0.015625)"/>
       <path d="M 603 4863 
L 1178 4863 
L 1178 0 
L 603 0 
L 603 4863 
z
" id="DejaVuSans-6c" transform="scale(0.015625)"/>
       <path d="M 1959 3097 
Q 1497 3097 1228 2736 
Q 959 2375 959 1747 
Q 959 1119 1226 758 
Q 1494 397 1959 397 
Q 2419 397 2687 759 
Q 2956 1122 2956 1747 
Q 2956 2369 2687 2733 
Q 2419 3097 1959 3097 
z
M 1959 3584 
Q 2709 3584 3137 3096 
Q 3566 2609 3566 1747 
Q 3566 888 3137 398 
Q 2709 -91 1959 -91 
Q 1206 -91 779 398 
Q 353 888 353 1747 
Q 353 2609 779 3096 
Q 1206 3584 1959 3584 
z
" id="DejaVuSans-6f" transform="scale(0.015625)"/>
       <path d="M 3116 1747 
Q 3116 2381 2855 2742 
Q 2594 3103 2138 3103 
Q 1681 3103 1420 2742 
Q 1159 2381 1159 1747 
Q 1159 1113 1420 752 
Q 1681 391 2138 391 
Q 2594 391 2855 752 
Q 3116 1113 3116 1747 
z
M 1159 2969 
Q 1341 3281 1617 3432 
Q 1894 3584 2278 3584 
Q 2916 3584 3314 3078 
Q 3713 2572 3713 1747 
Q 3713 922 3314 415 
Q 2916 -91 2278 -91 
Q 1894 -91 1617 61 
Q 1341 213 1159 525 
L 1159 0 
L 581 0 
L 581 4863 
L 1159 4863 
L 1159 2969 
z
" id="DejaVuSans-62" transform="scale(0.015625)"/>
       <path d="M 2194 1759 
Q 1497 1759 1228 1600 
Q 959 1441 959 1056 
Q 959 750 1161 570 
Q 1363 391 1709 391 
Q 2188 391 2477 730 
Q 2766 1069 2766 1631 
L 2766 1759 
L 2194 1759 
z
M 3341 1997 
L 3341 0 
L 2766 0 
L 2766 531 
Q 2569 213 2275 61 
Q 1981 -91 1556 -91 
Q 1019 -91 701 211 
Q 384 513 384 1019 
Q 384 1609 779 1909 
Q 1175 2209 1959 2209 
L 2766 2209 
L 2766 2266 
Q 2766 2663 2505 2880 
Q 2244 3097 1772 3097 
Q 1472 3097 1187 3025 
Q 903 2953 641 2809 
L 641 3341 
Q 956 3463 1253 3523 
Q 1550 3584 1831 3584 
Q 2591 3584 2966 3190 
Q 3341 2797 3341 1997 
z
" id="DejaVuSans-61" transform="scale(0.015625)"/>
       <path id="DejaVuSans-20" transform="scale(0.015625)"/>
       <path d="M 4122 4306 
L 4122 3641 
Q 3803 3938 3442 4084 
Q 3081 4231 2675 4231 
Q 1875 4231 1450 3742 
Q 1025 3253 1025 2328 
Q 1025 1406 1450 917 
Q 1875 428 2675 428 
Q 3081 428 3442 575 
Q 3803 722 4122 1019 
L 4122 359 
Q 3791 134 3420 21 
Q 3050 -91 2638 -91 
Q 1578 -91 968 557 
Q 359 1206 359 2328 
Q 359 3453 968 4101 
Q 1578 4750 2638 4750 
Q 3056 4750 3426 4639 
Q 3797 4528 4122 4306 
z
" id="DejaVuSans-43" transform="scale(0.015625)"/>
       <path d="M 3328 2828 
Q 3544 3216 3844 3400 
Q 4144 3584 4550 3584 
Q 5097 3584 5394 3201 
Q 5691 2819 5691 2113 
L 5691 0 
L 5113 0 
L 5113 2094 
Q 5113 2597 4934 2840 
Q 4756 3084 4391 3084 
Q 3944 3084 3684 2787 
Q 3425 2491 3425 1978 
L 3425 0 
L 2847 0 
L 2847 2094 
Q 2847 2600 2669 2842 
Q 2491 3084 2119 3084 
Q 1678 3084 1418 2786 
Q 1159 2488 1159 1978 
L 1159 0 
L 581 0 
L 581 3500 
L 1159 3500 
L 1159 2956 
Q 1356 3278 1631 3431 
Q 1906 3584 2284 3584 
Q 2666 3584 2933 3390 
Q 3200 3197 3328 2828 
z
" id="DejaVuSans-6d" transform="scale(0.015625)"/>
       <path d="M 544 1381 
L 544 3500 
L 1119 3500 
L 1119 1403 
Q 1119 906 1312 657 
Q 1506 409 1894 409 
Q 2359 409 2629 706 
Q 2900 1003 2900 1516 
L 2900 3500 
L 3475 3500 
L 3475 0 
L 2900 0 
L 2900 538 
Q 2691 219 2414 64 
Q 2138 -91 1772 -91 
Q 1169 -91 856 284 
Q 544 659 544 1381 
z
M 1991 3584 
L 1991 3584 
z
" id="DejaVuSans-75" transform="scale(0.015625)"/>
       <path d="M 3513 2113 
L 3513 0 
L 2938 0 
L 2938 2094 
Q 2938 2591 2744 2837 
Q 2550 3084 2163 3084 
Q 1697 3084 1428 2787 
Q 1159 2491 1159 1978 
L 1159 0 
L 581 0 
L 581 3500 
L 1159 3500 
L 1159 2956 
Q 1366 3272 1645 3428 
Q 1925 3584 2291 3584 
Q 2894 3584 3203 3211 
Q 3513 2838 3513 2113 
z
" id="DejaVuSans-6e" transform="scale(0.015625)"/>
       <path d="M 603 3500 
L 1178 3500 
L 1178 0 
L 603 0 
L 603 3500 
z
M 603 4863 
L 1178 4863 
L 1178 4134 
L 603 4134 
L 603 4863 
z
" id="DejaVuSans-69" transform="scale(0.015625)"/>
       <path d="M 3122 3366 
L 3122 2828 
Q 2878 2963 2633 3030 
Q 2388 3097 2138 3097 
Q 1578 3097 1268 2742 
Q 959 2388 959 1747 
Q 959 1106 1268 751 
Q 1578 397 2138 397 
Q 2388 397 2633 464 
Q 2878 531 3122 666 
L 3122 134 
Q 2881 22 2623 -34 
Q 2366 -91 2075 -91 
Q 1284 -91 818 406 
Q 353 903 353 1747 
Q 353 2603 823 3093 
Q 1294 3584 2113 3584 
Q 2378 3584 2631 3529 
Q 2884 3475 3122 3366 
z
" id="DejaVuSans-63" transform="scale(0.015625)"/>
       <path d="M 1172 4494 
L 1172 3500 
L 2356 3500 
L 2356 3053 
L 1172 3053 
L 1172 1153 
Q 1172 725 1289 603 
Q 1406 481 1766 481 
L 2356 481 
L 2356 0 
L 1766 0 
Q 1100 0 847 248 
Q 594 497 594 1153 
L 594 3053 
L 172 3053 
L 172 3500 
L 594 3500 
L 594 4494 
L 1172 4494 
z
" id="DejaVuSans-74" transform="scale(0.015625)"/>
       <path d="M 2841 2188 
Q 3044 2119 3236 1894 
Q 3428 1669 3622 1275 
L 4263 0 
L 3584 0 
L 2988 1197 
Q 2756 1666 2539 1819 
Q 2322 1972 1947 1972 
L 1259 1972 
L 1259 0 
L 628 0 
L 628 4666 
L 2053 4666 
Q 2853 4666 3247 4331 
Q 3641 3997 3641 3322 
Q 3641 2881 3436 2590 
Q 3231 2300 2841 2188 
z
M 1259 4147 
L 1259 2491 
L 2053 2491 
Q 2509 2491 2742 2702 
Q 2975 2913 2975 3322 
Q 2975 3731 2742 3939 
Q 2509 4147 2053 4147 
L 1259 4147 
z
" id="DejaVuSans-52" transform="scale(0.015625)"/>
       <path d="M 2906 2969 
L 2906 4863 
L 3481 4863 
L 3481 0 
L 2906 0 
L 2906 525 
Q 2725 213 2448 61 
Q 2172 -91 1784 -91 
Q 1150 -91 751 415 
Q 353 922 353 1747 
Q 353 2572 751 3078 
Q 1150 3584 1784 3584 
Q 2172 3584 2448 3432 
Q 2725 3281 2906 2969 
z
M 947 1747 
Q 947 1113 1208 752 
Q 1469 391 1925 391 
Q 2381 391 2643 752 
Q 2906 1113 2906 1747 
Q 2906 2381 2643 2742 
Q 2381 3103 1925 3103 
Q 1469 3103 1208 2742 
Q 947 2381 947 1747 
z
" id="DejaVuSans-64" transform="scale(0.015625)"/>
       <path d="M 2834 3397 
L 2834 2853 
Q 2591 2978 2328 3040 
Q 2066 3103 1784 3103 
Q 1356 3103 1142 2972 
Q 928 2841 928 2578 
Q 928 2378 1081 2264 
Q 1234 2150 1697 2047 
L 1894 2003 
Q 2506 1872 2764 1633 
Q 3022 1394 3022 966 
Q 3022 478 2636 193 
Q 2250 -91 1575 -91 
Q 1294 -91 989 -36 
Q 684 19 347 128 
L 347 722 
Q 666 556 975 473 
Q 1284 391 1588 391 
Q 1994 391 2212 530 
Q 2431 669 2431 922 
Q 2431 1156 2273 1281 
Q 2116 1406 1581 1522 
L 1381 1569 
Q 847 1681 609 1914 
Q 372 2147 372 2553 
Q 372 3047 722 3315 
Q 1072 3584 1716 3584 
Q 2034 3584 2315 3537 
Q 2597 3491 2834 3397 
z
" id="DejaVuSans-73" transform="scale(0.015625)"/>
      </defs>
      <use xlink:href="#DejaVuSans-47"/>
      <use x="77.490234" xlink:href="#DejaVuSans-6c"/>
      <use x="105.273438" xlink:href="#DejaVuSans-6f"/>
      <use x="166.455078" xlink:href="#DejaVuSans-62"/>
      <use x="229.931641" xlink:href="#DejaVuSans-61"/>
      <use x="291.210938" xlink:href="#DejaVuSans-6c"/>
      <use x="318.994141" xlink:href="#DejaVuSans-20"/>
      <use x="350.78125" xlink:href="#DejaVuSans-43"/>
      <use x="420.605469" xlink:href="#DejaVuSans-6f"/>
      <use x="481.787109" xlink:href="#DejaVuSans-6d"/>
      <use x="579.199219" xlink:href="#DejaVuSans-6d"/>
      <use x="676.611328" xlink:href="#DejaVuSans-75"/>
      <use x="739.990234" xlink:href="#DejaVuSans-6e"/>
      <use x="803.369141" xlink:href="#DejaVuSans-69"/>
      <use x="831.152344" xlink:href="#DejaVuSans-63"/>
      <use x="886.132812" xlink:href="#DejaVuSans-61"/>
      <use x="947.412109" xlink:href="#DejaVuSans-74"/>
      <use x="986.621094" xlink:href="#DejaVuSans-69"/>
      <use x="1014.404297" xlink:href="#DejaVuSans-6f"/>
      <use x="1075.585938" xlink:href="#DejaVuSans-6e"/>
      <use x="1138.964844" xlink:href="#DejaVuSans-20"/>
      <use x="1170.751953" xlink:href="#DejaVuSans-52"/>
      <use x="1235.734375" xlink:href="#DejaVuSans-6f"/>
      <use x="1296.916016" xlink:href="#DejaVuSans-75"/>
      <use x="1360.294922" xlink:href="#DejaVuSans-6e"/>
      <use x="1423.673828" xlink:href="#DejaVuSans-64"/>
      <use x="1487.150391" xlink:href="#DejaVuSans-73"/>
     </g>
    </g>
   </g>
   <g id="matplotlib.axis_2">
    <g id="ytick_1">
     <g id="line2d_7">
      <defs>
       <path d="M 0 0 
L -3.5 0 
" id="ma9012225de" style="stroke:#000000;stroke-width:0.8;"/>
      </defs>
      <g>
       <use style="stroke:#000000;stroke-width:0.8;" x="60.77" xlink:href="#ma9012225de" y="359.031702"/>
      </g>
     </g>
     <g id="text_8">
      <!-- 10 -->
      <g transform="translate(34.6825 364.73053)scale(0.15 -0.15)">
       <use xlink:href="#DejaVuSans-31"/>
       <use x="63.623047" xlink:href="#DejaVuSans-30"/>
      </g>
     </g>
    </g>
    <g id="ytick_2">
     <g id="line2d_8">
      <g>
       <use style="stroke:#000000;stroke-width:0.8;" x="60.77" xlink:href="#ma9012225de" y="319.428276"/>
      </g>
     </g>
     <g id="text_9">
      <!-- 20 -->
      <g transform="translate(34.6825 325.127104)scale(0.15 -0.15)">
       <use xlink:href="#DejaVuSans-32"/>
       <use x="63.623047" xlink:href="#DejaVuSans-30"/>
      </g>
     </g>
    </g>
    <g id="ytick_3">
     <g id="line2d_9">
      <g>
       <use style="stroke:#000000;stroke-width:0.8;" x="60.77" xlink:href="#ma9012225de" y="279.82485"/>
      </g>
     </g>
     <g id="text_10">
      <!-- 30 -->
      <g transform="translate(34.6825 285.523678)scale(0.15 -0.15)">
       <use xlink:href="#DejaVuSans-33"/>
       <use x="63.623047" xlink:href="#DejaVuSans-30"/>
      </g>
     </g>
    </g>
    <g id="ytick_4">
     <g id="line2d_10">
      <g>
       <use style="stroke:#000000;stroke-width:0.8;" x="60.77" xlink:href="#ma9012225de" y="240.221424"/>
      </g>
     </g>
     <g id="text_11">
      <!-- 40 -->
      <g transform="translate(34.6825 245.920252)scale(0.15 -0.15)">
       <use xlink:href="#DejaVuSans-34"/>
       <use x="63.623047" xlink:href="#DejaVuSans-30"/>
      </g>
     </g>
    </g>
    <g id="ytick_5">
     <g id="line2d_11">
      <g>
       <use style="stroke:#000000;stroke-width:0.8;" x="60.77" xlink:href="#ma9012225de" y="200.617998"/>
      </g>
     </g>
     <g id="text_12">
      <!-- 50 -->
      <g transform="translate(34.6825 206.316826)scale(0.15 -0.15)">
       <use xlink:href="#DejaVuSans-35"/>
       <use x="63.623047" xlink:href="#DejaVuSans-30"/>
      </g>
     </g>
    </g>
    <g id="ytick_6">
     <g id="line2d_12">
      <g>
       <use style="stroke:#000000;stroke-width:0.8;" x="60.77" xlink:href="#ma9012225de" y="161.014572"/>
      </g>
     </g>
     <g id="text_13">
      <!-- 60 -->
      <g transform="translate(34.6825 166.713401)scale(0.15 -0.15)">
       <defs>
        <path d="M 2113 2584 
Q 1688 2584 1439 2293 
Q 1191 2003 1191 1497 
Q 1191 994 1439 701 
Q 1688 409 2113 409 
Q 2538 409 2786 701 
Q 3034 994 3034 1497 
Q 3034 2003 2786 2293 
Q 2538 2584 2113 2584 
z
M 3366 4563 
L 3366 3988 
Q 3128 4100 2886 4159 
Q 2644 4219 2406 4219 
Q 1781 4219 1451 3797 
Q 1122 3375 1075 2522 
Q 1259 2794 1537 2939 
Q 1816 3084 2150 3084 
Q 2853 3084 3261 2657 
Q 3669 2231 3669 1497 
Q 3669 778 3244 343 
Q 2819 -91 2113 -91 
Q 1303 -91 875 529 
Q 447 1150 447 2328 
Q 447 3434 972 4092 
Q 1497 4750 2381 4750 
Q 2619 4750 2861 4703 
Q 3103 4656 3366 4563 
z
" id="DejaVuSans-36" transform="scale(0.015625)"/>
       </defs>
       <use xlink:href="#DejaVuSans-36"/>
       <use x="63.623047" xlink:href="#DejaVuSans-30"/>
      </g>
     </g>
    </g>
    <g id="ytick_7">
     <g id="line2d_13">
      <g>
       <use style="stroke:#000000;stroke-width:0.8;" x="60.77" xlink:href="#ma9012225de" y="121.411147"/>
      </g>
     </g>
     <g id="text_14">
      <!-- 70 -->
      <g transform="translate(34.6825 127.109975)scale(0.15 -0.15)">
       <defs>
        <path d="M 525 4666 
L 3525 4666 
L 3525 4397 
L 1831 0 
L 1172 0 
L 2766 4134 
L 525 4134 
L 525 4666 
z
" id="DejaVuSans-37" transform="scale(0.015625)"/>
       </defs>
       <use xlink:href="#DejaVuSans-37"/>
       <use x="63.623047" xlink:href="#DejaVuSans-30"/>
      </g>
     </g>
    </g>
    <g id="ytick_8">
     <g id="line2d_14">
      <g>
       <use style="stroke:#000000;stroke-width:0.8;" x="60.77" xlink:href="#ma9012225de" y="81.807721"/>
      </g>
     </g>
     <g id="text_15">
      <!-- 80 -->
      <g transform="translate(34.6825 87.506549)scale(0.15 -0.15)">
       <defs>
        <path d="M 2034 2216 
Q 1584 2216 1326 1975 
Q 1069 1734 1069 1313 
Q 1069 891 1326 650 
Q 1584 409 2034 409 
Q 2484 409 2743 651 
Q 3003 894 3003 1313 
Q 3003 1734 2745 1975 
Q 2488 2216 2034 2216 
z
M 1403 2484 
Q 997 2584 770 2862 
Q 544 3141 544 3541 
Q 544 4100 942 4425 
Q 1341 4750 2034 4750 
Q 2731 4750 3128 4425 
Q 3525 4100 3525 3541 
Q 3525 3141 3298 2862 
Q 3072 2584 2669 2484 
Q 3125 2378 3379 2068 
Q 3634 1759 3634 1313 
Q 3634 634 3220 271 
Q 2806 -91 2034 -91 
Q 1263 -91 848 271 
Q 434 634 434 1313 
Q 434 1759 690 2068 
Q 947 2378 1403 2484 
z
M 1172 3481 
Q 1172 3119 1398 2916 
Q 1625 2713 2034 2713 
Q 2441 2713 2670 2916 
Q 2900 3119 2900 3481 
Q 2900 3844 2670 4047 
Q 2441 4250 2034 4250 
Q 1625 4250 1398 4047 
Q 1172 3844 1172 3481 
z
" id="DejaVuSans-38" transform="scale(0.015625)"/>
       </defs>
       <use xlink:href="#DejaVuSans-38"/>
       <use x="63.623047" xlink:href="#DejaVuSans-30"/>
      </g>
     </g>
    </g>
    <g id="text_16">
     <!-- Test Accuracy -->
     <g transform="translate(27.562969 267.694744)rotate(-90)scale(0.15 -0.15)">
      <defs>
       <path d="M -19 4666 
L 3928 4666 
L 3928 4134 
L 2272 4134 
L 2272 0 
L 1638 0 
L 1638 4134 
L -19 4134 
L -19 4666 
z
" id="DejaVuSans-54" transform="scale(0.015625)"/>
       <path d="M 3597 1894 
L 3597 1613 
L 953 1613 
Q 991 1019 1311 708 
Q 1631 397 2203 397 
Q 2534 397 2845 478 
Q 3156 559 3463 722 
L 3463 178 
Q 3153 47 2828 -22 
Q 2503 -91 2169 -91 
Q 1331 -91 842 396 
Q 353 884 353 1716 
Q 353 2575 817 3079 
Q 1281 3584 2069 3584 
Q 2775 3584 3186 3129 
Q 3597 2675 3597 1894 
z
M 3022 2063 
Q 3016 2534 2758 2815 
Q 2500 3097 2075 3097 
Q 1594 3097 1305 2825 
Q 1016 2553 972 2059 
L 3022 2063 
z
" id="DejaVuSans-65" transform="scale(0.015625)"/>
       <path d="M 2188 4044 
L 1331 1722 
L 3047 1722 
L 2188 4044 
z
M 1831 4666 
L 2547 4666 
L 4325 0 
L 3669 0 
L 3244 1197 
L 1141 1197 
L 716 0 
L 50 0 
L 1831 4666 
z
" id="DejaVuSans-41" transform="scale(0.015625)"/>
       <path d="M 2631 2963 
Q 2534 3019 2420 3045 
Q 2306 3072 2169 3072 
Q 1681 3072 1420 2755 
Q 1159 2438 1159 1844 
L 1159 0 
L 581 0 
L 581 3500 
L 1159 3500 
L 1159 2956 
Q 1341 3275 1631 3429 
Q 1922 3584 2338 3584 
Q 2397 3584 2469 3576 
Q 2541 3569 2628 3553 
L 2631 2963 
z
" id="DejaVuSans-72" transform="scale(0.015625)"/>
       <path d="M 2059 -325 
Q 1816 -950 1584 -1140 
Q 1353 -1331 966 -1331 
L 506 -1331 
L 506 -850 
L 844 -850 
Q 1081 -850 1212 -737 
Q 1344 -625 1503 -206 
L 1606 56 
L 191 3500 
L 800 3500 
L 1894 763 
L 2988 3500 
L 3597 3500 
L 2059 -325 
z
" id="DejaVuSans-79" transform="scale(0.015625)"/>
      </defs>
      <use xlink:href="#DejaVuSans-54"/>
      <use x="44.083984" xlink:href="#DejaVuSans-65"/>
      <use x="105.607422" xlink:href="#DejaVuSans-73"/>
      <use x="157.707031" xlink:href="#DejaVuSans-74"/>
      <use x="196.916016" xlink:href="#DejaVuSans-20"/>
      <use x="228.703125" xlink:href="#DejaVuSans-41"/>
      <use x="295.361328" xlink:href="#DejaVuSans-63"/>
      <use x="350.341797" xlink:href="#DejaVuSans-63"/>
      <use x="405.322266" xlink:href="#DejaVuSans-75"/>
      <use x="468.701172" xlink:href="#DejaVuSans-72"/>
      <use x="509.814453" xlink:href="#DejaVuSans-61"/>
      <use x="571.09375" xlink:href="#DejaVuSans-63"/>
      <use x="626.074219" xlink:href="#DejaVuSans-79"/>
     </g>
    </g>
   </g>
   <g id="line2d_15">
    <path clip-path="url(#p3fceacfee0)" d="M 83.303409 356.424894 
L 92.500719 239.118544 
L 101.698029 192.095742 
L 110.895339 167.230806 
L 120.092648 148.080795 
L 129.289958 138.756445 
L 138.487268 130.534974 
L 147.684578 125.922929 
L 156.881888 122.915074 
L 166.079198 119.105124 
L 175.276507 114.192294 
L 184.473817 113.3902 
L 193.671127 112.487843 
L 202.868437 107.575013 
L 212.065747 103.06323 
L 221.263057 100.656946 
L 230.460366 104.266372 
L 239.657676 97.448567 
L 248.854986 97.749353 
L 258.052296 95.142545 
L 267.249606 94.540974 
L 276.446916 87.823431 
L 285.644225 89.327359 
L 294.841535 89.828668 
L 304.038845 87.823431 
L 313.236155 86.820813 
L 322.433465 86.520027 
L 331.630775 84.915838 
L 340.828084 83.311648 
L 350.025394 83.512172 
L 359.222704 82.509554 
L 368.420014 81.406673 
L 377.617324 81.005626 
L 386.814634 81.306412 
L 396.011943 79.501699 
L 405.209253 80.303793 
L 414.406563 80.003008 
L 423.603873 80.504317 
L 432.801183 78.599342 
L 441.998493 78.298557 
L 451.195802 78.098033 
L 460.393112 77.195676 
L 469.590422 79.200913 
L 478.787732 76.493843 
L 487.985042 74.087559 
L 497.182352 74.789392 
L 506.379661 74.989916 
L 515.576971 74.588869 
L 524.774281 74.68913 
L 533.971591 75.390963 
" style="fill:none;stroke:#1f77b4;stroke-linecap:square;stroke-width:1.5;"/>
   </g>
   <g id="line2d_16">
    <path clip-path="url(#p3fceacfee0)" d="M 83.303409 356.424894 
L 92.500719 282.03061 
L 101.698029 221.572722 
L 110.895339 198.612762 
L 120.092648 175.652801 
L 129.289958 161.616144 
L 138.487268 152.993625 
L 147.684578 148.682366 
L 156.881888 143.97006 
L 166.079198 143.97006 
L 175.276507 135.648328 
L 184.473817 137.152255 
L 193.671127 131.537592 
L 202.868437 133.04152 
L 212.065747 129.632617 
L 221.263057 128.12869 
L 230.460366 125.120835 
L 239.657676 124.017954 
L 248.854986 120.308266 
L 258.052296 119.806957 
L 267.249606 113.089414 
L 276.446916 113.991771 
L 285.644225 111.184439 
L 294.841535 111.184439 
L 304.038845 109.078941 
L 313.236155 106.572395 
L 322.433465 105.469514 
L 331.630775 104.867943 
L 340.828084 103.965587 
L 350.025394 103.664801 
L 359.222704 99.153019 
L 368.420014 101.96035 
L 377.617324 99.554066 
L 386.814634 99.052757 
L 396.011943 97.849615 
L 405.209253 98.050139 
L 414.406563 96.546211 
L 423.603873 96.345687 
L 432.801183 94.139927 
L 441.998493 91.432857 
L 451.195802 91.232334 
L 460.393112 89.628144 
L 469.590422 89.527882 
L 478.787732 91.533119 
L 487.985042 89.828668 
L 497.182352 88.525264 
L 506.379661 86.018718 
L 515.576971 87.322122 
L 524.774281 85.216623 
L 533.971591 85.517409 
" style="fill:none;stroke:#ff7f0e;stroke-linecap:square;stroke-width:1.5;"/>
   </g>
   <g id="line2d_17">
    <path clip-path="url(#p3fceacfee0)" d="M 83.303409 356.424894 
L 92.500719 239.319068 
L 101.698029 197.008572 
L 110.895339 170.038138 
L 120.092648 153.394673 
L 129.289958 141.664038 
L 138.487268 135.548066 
L 147.684578 130.936021 
L 156.881888 130.033665 
L 166.079198 125.822668 
L 175.276507 121.411147 
L 184.473817 118.603815 
L 193.671127 116.297793 
L 202.868437 115.094651 
L 212.065747 109.479988 
L 221.263057 110.081559 
L 230.460366 108.176584 
L 239.657676 104.968205 
L 248.854986 102.561921 
L 258.052296 102.662183 
L 267.249606 100.957732 
L 276.446916 98.65171 
L 285.644225 97.147782 
L 294.841535 95.443331 
L 304.038845 96.345687 
L 313.236155 96.145164 
L 322.433465 94.641236 
L 331.630775 92.635999 
L 340.828084 90.530501 
L 350.025394 89.527882 
L 359.222704 87.422384 
L 368.420014 85.617671 
L 377.617324 87.723169 
L 386.814634 86.820813 
L 396.011943 86.720551 
L 405.209253 84.414529 
L 414.406563 84.615052 
L 423.603873 83.311648 
L 432.801183 83.812958 
L 441.998493 82.208768 
L 451.195802 82.710077 
L 460.393112 81.406673 
L 469.590422 83.712696 
L 478.787732 82.409292 
L 487.985042 82.108506 
L 497.182352 83.010863 
L 506.379661 79.000389 
L 515.576971 79.802484 
L 524.774281 79.902746 
L 533.971591 78.599342 
" style="fill:none;stroke:#2ca02c;stroke-linecap:square;stroke-width:1.5;"/>
   </g>
   <g id="line2d_18">
    <path clip-path="url(#p3fceacfee0)" d="M 83.303409 359.031702 
L 92.500719 258.423159 
L 101.698029 240.609538 
L 110.895339 242.763964 
L 120.092648 240.878841 
L 129.289958 247.120341 
L 138.487268 247.152024 
L 147.684578 246.130255 
L 156.881888 244.942153 
L 166.079198 244.158005 
L 175.276507 243.468905 
L 184.473817 241.274875 
L 193.671127 244.015432 
L 202.868437 243.072871 
L 212.065747 243.825336 
L 221.263057 242.542185 
L 230.460366 244.997597 
L 239.657676 244.973835 
L 248.854986 245.132249 
L 258.052296 247.563899 
L 267.249606 248.348047 
L 276.446916 248.490619 
L 285.644225 246.724307 
L 294.841535 248.086665 
L 304.038845 248.585668 
L 313.236155 250.57376 
L 322.433465 249.876739 
L 331.630775 249.266847 
L 340.828084 250.399505 
L 350.025394 249.924263 
L 359.222704 249.361895 
L 368.420014 251.365828 
L 377.617324 250.082677 
L 386.814634 250.280694 
L 396.011943 252.126214 
L 405.209253 253.607382 
L 414.406563 254.328164 
L 423.603873 253.852923 
L 432.801183 254.122227 
L 441.998493 254.827168 
L 451.195802 256.997435 
L 460.393112 254.724199 
L 469.590422 255.381616 
L 478.787732 253.757875 
L 487.985042 254.906374 
L 497.182352 252.949965 
L 506.379661 252.815314 
L 515.576971 254.835088 
L 524.774281 254.423213 
L 533.971591 252.696503 
" style="fill:none;stroke:#d62728;stroke-linecap:square;stroke-width:1.5;"/>
   </g>
   <g id="patch_3">
    <path d="M 60.77 376 
L 60.77 56.601989 
" style="fill:none;stroke:#000000;stroke-linecap:square;stroke-linejoin:miter;stroke-width:0.8;"/>
   </g>
   <g id="patch_4">
    <path d="M 556.505 376 
L 556.505 56.601989 
" style="fill:none;stroke:#000000;stroke-linecap:square;stroke-linejoin:miter;stroke-width:0.8;"/>
   </g>
   <g id="patch_5">
    <path d="M 60.77 376 
L 556.505 376 
" style="fill:none;stroke:#000000;stroke-linecap:square;stroke-linejoin:miter;stroke-width:0.8;"/>
   </g>
   <g id="patch_6">
    <path d="M 60.77 56.601989 
L 556.505 56.601989 
" style="fill:none;stroke:#000000;stroke-linecap:square;stroke-linejoin:miter;stroke-width:0.8;"/>
   </g>
   <g id="legend_1">
    <g id="patch_7">
     <path d="M 59.039844 42.709474 
L 558.235156 42.709474 
Q 561.235156 42.709474 561.235156 39.709474 
L 561.235156 19.192287 
Q 561.235156 16.192287 558.235156 16.192287 
L 59.039844 16.192287 
Q 56.039844 16.192287 56.039844 19.192287 
L 56.039844 39.709474 
Q 56.039844 42.709474 59.039844 42.709474 
z
" style="fill:#ffffff;opacity:0.8;stroke:#cccccc;stroke-linejoin:miter;"/>
    </g>
    <g id="line2d_19">
     <path d="M 62.039844 28.339943 
L 92.039844 28.339943 
" style="fill:none;stroke:#1f77b4;stroke-linecap:square;stroke-width:1.5;"/>
    </g>
    <g id="line2d_20"/>
    <g id="text_17">
     <!-- FedAvg -->
     <g transform="translate(104.039844 33.589943)scale(0.15 -0.15)">
      <defs>
       <path d="M 628 4666 
L 3309 4666 
L 3309 4134 
L 1259 4134 
L 1259 2759 
L 3109 2759 
L 3109 2228 
L 1259 2228 
L 1259 0 
L 628 0 
L 628 4666 
z
" id="DejaVuSans-46" transform="scale(0.015625)"/>
       <path d="M 191 3500 
L 800 3500 
L 1894 563 
L 2988 3500 
L 3597 3500 
L 2284 0 
L 1503 0 
L 191 3500 
z
" id="DejaVuSans-76" transform="scale(0.015625)"/>
       <path d="M 2906 1791 
Q 2906 2416 2648 2759 
Q 2391 3103 1925 3103 
Q 1463 3103 1205 2759 
Q 947 2416 947 1791 
Q 947 1169 1205 825 
Q 1463 481 1925 481 
Q 2391 481 2648 825 
Q 2906 1169 2906 1791 
z
M 3481 434 
Q 3481 -459 3084 -895 
Q 2688 -1331 1869 -1331 
Q 1566 -1331 1297 -1286 
Q 1028 -1241 775 -1147 
L 775 -588 
Q 1028 -725 1275 -790 
Q 1522 -856 1778 -856 
Q 2344 -856 2625 -561 
Q 2906 -266 2906 331 
L 2906 616 
Q 2728 306 2450 153 
Q 2172 0 1784 0 
Q 1141 0 747 490 
Q 353 981 353 1791 
Q 353 2603 747 3093 
Q 1141 3584 1784 3584 
Q 2172 3584 2450 3431 
Q 2728 3278 2906 2969 
L 2906 3500 
L 3481 3500 
L 3481 434 
z
" id="DejaVuSans-67" transform="scale(0.015625)"/>
      </defs>
      <use xlink:href="#DejaVuSans-46"/>
      <use x="52.019531" xlink:href="#DejaVuSans-65"/>
      <use x="113.542969" xlink:href="#DejaVuSans-64"/>
      <use x="177.019531" xlink:href="#DejaVuSans-41"/>
      <use x="239.552734" xlink:href="#DejaVuSans-76"/>
      <use x="298.732422" xlink:href="#DejaVuSans-67"/>
     </g>
    </g>
    <g id="line2d_21">
     <path d="M 188.375 28.339943 
L 218.375 28.339943 
" style="fill:none;stroke:#ff7f0e;stroke-linecap:square;stroke-width:1.5;"/>
    </g>
    <g id="line2d_22"/>
    <g id="text_18">
     <!-- FedMed -->
     <g transform="translate(230.375 33.589943)scale(0.15 -0.15)">
      <defs>
       <path d="M 628 4666 
L 1569 4666 
L 2759 1491 
L 3956 4666 
L 4897 4666 
L 4897 0 
L 4281 0 
L 4281 4097 
L 3078 897 
L 2444 897 
L 1241 4097 
L 1241 0 
L 628 0 
L 628 4666 
z
" id="DejaVuSans-4d" transform="scale(0.015625)"/>
      </defs>
      <use xlink:href="#DejaVuSans-46"/>
      <use x="52.019531" xlink:href="#DejaVuSans-65"/>
      <use x="113.542969" xlink:href="#DejaVuSans-64"/>
      <use x="177.019531" xlink:href="#DejaVuSans-4d"/>
      <use x="263.298828" xlink:href="#DejaVuSans-65"/>
      <use x="324.822266" xlink:href="#DejaVuSans-64"/>
     </g>
    </g>
    <g id="line2d_23">
     <path d="M 318.624219 28.339943 
L 348.624219 28.339943 
" style="fill:none;stroke:#2ca02c;stroke-linecap:square;stroke-width:1.5;"/>
    </g>
    <g id="line2d_24"/>
    <g id="text_19">
     <!-- FedProx -->
     <g transform="translate(360.624219 33.589943)scale(0.15 -0.15)">
      <defs>
       <path d="M 1259 4147 
L 1259 2394 
L 2053 2394 
Q 2494 2394 2734 2622 
Q 2975 2850 2975 3272 
Q 2975 3691 2734 3919 
Q 2494 4147 2053 4147 
L 1259 4147 
z
M 628 4666 
L 2053 4666 
Q 2838 4666 3239 4311 
Q 3641 3956 3641 3272 
Q 3641 2581 3239 2228 
Q 2838 1875 2053 1875 
L 1259 1875 
L 1259 0 
L 628 0 
L 628 4666 
z
" id="DejaVuSans-50" transform="scale(0.015625)"/>
       <path d="M 3513 3500 
L 2247 1797 
L 3578 0 
L 2900 0 
L 1881 1375 
L 863 0 
L 184 0 
L 1544 1831 
L 300 3500 
L 978 3500 
L 1906 2253 
L 2834 3500 
L 3513 3500 
z
" id="DejaVuSans-78" transform="scale(0.015625)"/>
      </defs>
      <use xlink:href="#DejaVuSans-46"/>
      <use x="52.019531" xlink:href="#DejaVuSans-65"/>
      <use x="113.542969" xlink:href="#DejaVuSans-64"/>
      <use x="177.019531" xlink:href="#DejaVuSans-50"/>
      <use x="235.572266" xlink:href="#DejaVuSans-72"/>
      <use x="274.435547" xlink:href="#DejaVuSans-6f"/>
      <use x="332.492188" xlink:href="#DejaVuSans-78"/>
     </g>
    </g>
    <g id="line2d_25">
     <path d="M 449.377344 28.339943 
L 479.377344 28.339943 
" style="fill:none;stroke:#d62728;stroke-linecap:square;stroke-width:1.5;"/>
    </g>
    <g id="line2d_26"/>
    <g id="text_20">
     <!-- qFedAvg -->
     <g transform="translate(491.377344 33.589943)scale(0.15 -0.15)">
      <defs>
       <path d="M 947 1747 
Q 947 1113 1208 752 
Q 1469 391 1925 391 
Q 2381 391 2643 752 
Q 2906 1113 2906 1747 
Q 2906 2381 2643 2742 
Q 2381 3103 1925 3103 
Q 1469 3103 1208 2742 
Q 947 2381 947 1747 
z
M 2906 525 
Q 2725 213 2448 61 
Q 2172 -91 1784 -91 
Q 1150 -91 751 415 
Q 353 922 353 1747 
Q 353 2572 751 3078 
Q 1150 3584 1784 3584 
Q 2172 3584 2448 3432 
Q 2725 3281 2906 2969 
L 2906 3500 
L 3481 3500 
L 3481 -1331 
L 2906 -1331 
L 2906 525 
z
" id="DejaVuSans-71" transform="scale(0.015625)"/>
      </defs>
      <use xlink:href="#DejaVuSans-71"/>
      <use x="63.476562" xlink:href="#DejaVuSans-46"/>
      <use x="115.496094" xlink:href="#DejaVuSans-65"/>
      <use x="177.019531" xlink:href="#DejaVuSans-64"/>
      <use x="240.496094" xlink:href="#DejaVuSans-41"/>
      <use x="303.029297" xlink:href="#DejaVuSans-76"/>
      <use x="362.208984" xlink:href="#DejaVuSans-67"/>
     </g>
    </g>
   </g>
  </g>
 </g>
 <defs>
  <clipPath id="p3fceacfee0">
   <rect height="319.398011" width="495.735" x="60.77" y="56.601989"/>
  </clipPath>
 </defs>
</svg>
