<?xml version="1.0" encoding="utf-8" standalone="no"?>
<!DOCTYPE svg PUBLIC "-//W3C//DTD SVG 1.1//EN"
  "http://www.w3.org/Graphics/SVG/1.1/DTD/svg11.dtd">
<svg height="345.6pt" version="1.1" viewBox="0 0 460.8 345.6" width="460.8pt" xmlns="http://www.w3.org/2000/svg" xmlns:xlink="http://www.w3.org/1999/xlink">
 <metadata>
  <rdf:RDF xmlns:cc="http://creativecommons.org/ns#" xmlns:dc="http://purl.org/dc/elements/1.1/" xmlns:rdf="http://www.w3.org/1999/02/22-rdf-syntax-ns#">
   <cc:Work>
    <dc:type rdf:resource="http://purl.org/dc/dcmitype/StillImage"/>
    <dc:date>2021-05-07T11:38:03.827512</dc:date>
    <dc:format>image/svg+xml</dc:format>
    <dc:creator>
     <cc:Agent>
      <dc:title>Matplotlib v3.4.1, https://matplotlib.org/</dc:title>
     </cc:Agent>
    </dc:creator>
   </cc:Work>
  </rdf:RDF>
 </metadata>
 <defs>
  <style type="text/css">*{stroke-linecap:butt;stroke-linejoin:round;}</style>
 </defs>
 <g id="figure_1">
  <g id="patch_1">
   <path d="M 0 345.6 
L 460.8 345.6 
L 460.8 0 
L 0 0 
z
" style="fill:#ffffff;"/>
  </g>
  <g id="axes_1">
   <g id="patch_2">
    <path d="M 44.57 303.64 
L 450 303.64 
L 450 48.38 
L 44.57 48.38 
z
" style="fill:#ffffff;"/>
   </g>
   <g id="PolyCollection_1">
    <path clip-path="url(#p45d5f7e034)" d="M 62.998636 249.023982 
L 62.998636 259.970833 
L 70.520529 250.205994 
L 78.042421 228.886989 
L 85.564314 220.613416 
L 93.086206 215.229318 
L 100.608098 202.708365 
L 108.129991 192.322033 
L 115.651883 190.726812 
L 123.173776 187.477609 
L 130.695668 185.021415 
L 138.21756 171.506952 
L 145.739453 171.586573 
L 153.261345 170.148512 
L 160.783237 160.869533 
L 168.30513 160.44982 
L 175.827022 155.262621 
L 183.348915 152.966817 
L 190.870807 144.190353 
L 198.392699 144.265498 
L 205.914592 143.743782 
L 213.436484 135.805581 
L 220.958377 131.075811 
L 228.480269 133.512502 
L 236.002161 130.594924 
L 243.524054 129.349499 
L 251.045946 125.074142 
L 258.567839 122.175859 
L 266.089731 119.390923 
L 273.611623 118.776454 
L 281.133516 119.822545 
L 288.655408 111.958809 
L 296.177301 110.755442 
L 303.699193 113.495022 
L 311.221085 106.669127 
L 318.742978 105.672853 
L 326.26487 97.605845 
L 333.786763 103.749387 
L 341.308655 101.717629 
L 348.830547 104.633664 
L 356.35244 94.918492 
L 363.874332 95.027742 
L 371.396224 94.401683 
L 378.918117 93.243241 
L 386.440009 94.332632 
L 393.961902 87.185548 
L 401.483794 85.184727 
L 409.005686 81.361047 
L 416.527579 77.227116 
L 424.049471 79.061961 
L 431.571364 77.184107 
L 431.571364 68.787931 
L 431.571364 68.787931 
L 424.049471 68.414612 
L 416.527579 70.46439 
L 409.005686 70.414196 
L 401.483794 68.739852 
L 393.961902 75.551307 
L 386.440009 70.553559 
L 378.918117 82.389628 
L 371.396224 82.73572 
L 363.874332 79.315525 
L 356.35244 88.666918 
L 348.830547 84.969886 
L 341.308655 89.820323 
L 333.786763 92.946971 
L 326.26487 91.782772 
L 318.742978 97.471511 
L 311.221085 97.334971 
L 303.699193 98.031751 
L 296.177301 105.714803 
L 288.655408 104.941302 
L 281.133516 105.245042 
L 273.611623 106.721 
L 266.089731 113.844138 
L 258.567839 112.563738 
L 251.045946 115.038793 
L 243.524054 120.220514 
L 236.002161 120.264689 
L 228.480269 122.290583 
L 220.958377 126.016876 
L 213.436484 127.520178 
L 205.914592 130.758522 
L 198.392699 131.096541 
L 190.870807 138.479427 
L 183.348915 143.888577 
L 175.827022 142.667441 
L 168.30513 148.22692 
L 160.783237 147.592274 
L 153.261345 157.227448 
L 145.739453 158.153656 
L 138.21756 164.896217 
L 130.695668 169.22124 
L 123.173776 164.61571 
L 115.651883 176.196922 
L 108.129991 179.97504 
L 100.608098 185.278857 
L 93.086206 204.997939 
L 85.564314 207.996249 
L 78.042421 210.899221 
L 70.520529 234.286395 
L 62.998636 249.023982 
z
" style="fill:#1f77b4;fill-opacity:0.5;"/>
   </g>
   <g id="PolyCollection_2">
    <path clip-path="url(#p45d5f7e034)" d="M 62.998636 258.272725 
L 62.998636 279.738121 
L 70.520529 239.715892 
L 78.042421 223.399881 
L 85.564314 218.714999 
L 93.086206 206.290807 
L 100.608098 198.932725 
L 108.129991 204.740289 
L 115.651883 191.28452 
L 123.173776 185.900278 
L 130.695668 183.835934 
L 138.21756 179.443858 
L 145.739453 174.30024 
L 153.261345 172.961919 
L 160.783237 168.500658 
L 168.30513 165.416706 
L 175.827022 166.471067 
L 183.348915 158.645233 
L 190.870807 153.457918 
L 198.392699 150.511895 
L 205.914592 151.37748 
L 213.436484 142.349386 
L 220.958377 138.322658 
L 228.480269 141.81209 
L 236.002161 135.831597 
L 243.524054 135.278121 
L 251.045946 131.161986 
L 258.567839 130.072809 
L 266.089731 128.486663 
L 273.611623 123.307282 
L 281.133516 123.735317 
L 288.655408 122.36145 
L 296.177301 117.960339 
L 303.699193 123.298362 
L 311.221085 115.303442 
L 318.742978 112.778352 
L 326.26487 108.55436 
L 333.786763 110.592497 
L 341.308655 109.075012 
L 348.830547 112.190246 
L 356.35244 107.885416 
L 363.874332 106.230581 
L 371.396224 101.393744 
L 378.918117 106.008697 
L 386.440009 103.211936 
L 393.961902 99.908054 
L 401.483794 99.039316 
L 409.005686 92.71719 
L 416.527579 93.36925 
L 424.049471 90.253413 
L 431.571364 91.191766 
L 431.571364 72.18989 
L 431.571364 72.18989 
L 424.049471 76.997047 
L 416.527579 75.815612 
L 409.005686 82.485811 
L 401.483794 83.041559 
L 393.961902 87.331227 
L 386.440009 84.457212 
L 378.918117 93.051929 
L 371.396224 91.863676 
L 363.874332 89.176175 
L 356.35244 93.109613 
L 348.830547 100.196261 
L 341.308655 100.947226 
L 333.786763 102.223877 
L 326.26487 101.252944 
L 318.742978 108.850298 
L 311.221085 105.895341 
L 303.699193 107.142563 
L 296.177301 112.480587 
L 288.655408 109.369077 
L 281.133516 117.237353 
L 273.611623 110.357647 
L 266.089731 116.354811 
L 258.567839 120.571871 
L 251.045946 127.005369 
L 243.524054 129.33724 
L 236.002161 130.718166 
L 228.480269 130.540879 
L 220.958377 131.021241 
L 213.436484 134.732121 
L 205.914592 138.385107 
L 198.392699 144.194164 
L 190.870807 145.116945 
L 183.348915 145.94777 
L 175.827022 150.803015 
L 168.30513 152.932045 
L 160.783237 155.651298 
L 153.261345 160.217247 
L 145.739453 165.7568 
L 138.21756 164.267052 
L 130.695668 171.266455 
L 123.173776 167.912509 
L 115.651883 175.854147 
L 108.129991 184.966402 
L 100.608098 183.036358 
L 93.086206 199.965768 
L 85.564314 201.512257 
L 78.042421 195.752708 
L 70.520529 224.787677 
L 62.998636 258.272725 
z
" style="fill:#ff7f0e;fill-opacity:0.5;"/>
   </g>
   <g id="PolyCollection_3">
    <path clip-path="url(#p45d5f7e034)" d="M 62.998636 246.151134 
L 62.998636 274.879961 
L 70.520529 240.128105 
L 78.042421 232.529089 
L 85.564314 223.777569 
L 93.086206 208.605062 
L 100.608098 205.786606 
L 108.129991 202.544426 
L 115.651883 185.935938 
L 123.173776 186.413364 
L 130.695668 182.445086 
L 138.21756 175.771554 
L 145.739453 175.966501 
L 153.261345 169.772855 
L 160.783237 166.82751 
L 168.30513 162.183445 
L 175.827022 155.653921 
L 183.348915 160.173205 
L 190.870807 152.590239 
L 198.392699 147.982329 
L 205.914592 152.316807 
L 213.436484 146.538531 
L 220.958377 147.983746 
L 228.480269 143.955785 
L 236.002161 144.169561 
L 243.524054 143.150828 
L 251.045946 142.283077 
L 258.567839 140.863855 
L 266.089731 141.103995 
L 273.611623 139.29257 
L 281.133516 138.893828 
L 288.655408 136.168075 
L 296.177301 136.154838 
L 303.699193 137.899684 
L 311.221085 136.834274 
L 318.742978 133.769812 
L 326.26487 135.004847 
L 333.786763 131.361006 
L 341.308655 133.555632 
L 348.830547 131.902486 
L 356.35244 129.975104 
L 363.874332 128.825767 
L 371.396224 127.547639 
L 378.918117 125.570286 
L 386.440009 125.1786 
L 393.961902 126.023488 
L 401.483794 123.598393 
L 409.005686 124.497082 
L 416.527579 123.052151 
L 424.049471 121.238414 
L 431.571364 122.494237 
L 431.571364 63.025575 
L 431.571364 63.025575 
L 424.049471 59.982727 
L 416.527579 65.261797 
L 409.005686 69.190205 
L 401.483794 66.864891 
L 393.961902 74.111806 
L 386.440009 71.08789 
L 378.918117 73.060474 
L 371.396224 78.820728 
L 363.874332 81.841272 
L 356.35244 85.850339 
L 348.830547 92.090432 
L 341.308655 91.726889 
L 333.786763 90.267644 
L 326.26487 97.585414 
L 318.742978 97.315915 
L 311.221085 103.923462 
L 303.699193 106.94179 
L 296.177301 103.098364 
L 288.655408 104.589661 
L 281.133516 108.741783 
L 273.611623 113.716379 
L 266.089731 113.624422 
L 258.567839 119.022968 
L 251.045946 121.042682 
L 243.524054 124.25867 
L 236.002161 126.46394 
L 228.480269 126.462782 
L 220.958377 129.957495 
L 213.436484 129.898176 
L 205.914592 136.371113 
L 198.392699 135.332252 
L 190.870807 142.545687 
L 183.348915 143.345129 
L 175.827022 142.276141 
L 168.30513 152.726368 
L 160.783237 151.736174 
L 153.261345 159.322574 
L 145.739453 164.520406 
L 138.21756 168.154289 
L 130.695668 172.012502 
L 123.173776 173.632496 
L 115.651883 180.987796 
L 108.129991 180.499325 
L 100.608098 185.854488 
L 93.086206 191.41844 
L 85.564314 203.112627 
L 78.042421 214.134995 
L 70.520529 220.50666 
L 62.998636 246.151134 
z
" style="fill:#2ca02c;fill-opacity:0.5;"/>
   </g>
   <g id="PolyCollection_4">
    <path clip-path="url(#p45d5f7e034)" d="M 62.998636 291.901435 
L 62.998636 292.037273 
L 70.520529 283.044406 
L 78.042421 227.066523 
L 85.564314 211.325275 
L 93.086206 213.029262 
L 100.608098 201.669583 
L 108.129991 193.505914 
L 115.651883 191.245138 
L 123.173776 181.209241 
L 130.695668 170.974626 
L 138.21756 173.70961 
L 145.739453 167.015945 
L 153.261345 162.215204 
L 160.783237 159.850689 
L 168.30513 156.884639 
L 175.827022 148.944117 
L 183.348915 149.024995 
L 190.870807 147.743809 
L 198.392699 143.14529 
L 205.914592 145.270329 
L 213.436484 140.560857 
L 220.958377 135.301279 
L 228.480269 130.729692 
L 236.002161 128.458538 
L 243.524054 126.376899 
L 251.045946 124.269814 
L 258.567839 120.905227 
L 266.089731 120.051925 
L 273.611623 115.66551 
L 281.133516 112.142114 
L 288.655408 113.46553 
L 296.177301 112.082478 
L 303.699193 109.051251 
L 311.221085 104.13333 
L 318.742978 104.178142 
L 326.26487 102.371652 
L 333.786763 100.27462 
L 341.308655 98.581409 
L 348.830547 96.728642 
L 356.35244 93.735928 
L 363.874332 92.185126 
L 371.396224 89.82021 
L 378.918117 91.008223 
L 386.440009 87.468301 
L 393.961902 87.275348 
L 401.483794 83.500363 
L 409.005686 83.375815 
L 416.527579 82.106798 
L 424.049471 78.857759 
L 431.571364 76.286506 
L 431.571364 71.408439 
L 431.571364 71.408439 
L 424.049471 72.335015 
L 416.527579 74.757213 
L 409.005686 76.170996 
L 401.483794 75.435178 
L 393.961902 77.654045 
L 386.440009 78.632694 
L 378.918117 81.782794 
L 371.396224 85.314013 
L 363.874332 86.905379 
L 356.35244 87.18839 
L 348.830547 92.651592 
L 341.308655 92.106266 
L 333.786763 94.776851 
L 326.26487 97.773744 
L 318.742978 98.582136 
L 311.221085 100.223044 
L 303.699193 102.861113 
L 296.177301 104.142742 
L 288.655408 108.379988 
L 281.133516 108.480861 
L 273.611623 111.189034 
L 266.089731 113.153046 
L 258.567839 115.186302 
L 251.045946 119.072068 
L 243.524054 119.240271 
L 236.002161 123.203422 
L 228.480269 125.397943 
L 220.958377 126.922086 
L 213.436484 129.235478 
L 205.914592 132.557427 
L 198.392699 136.567219 
L 190.870807 139.439791 
L 183.348915 143.252529 
L 175.827022 145.23514 
L 168.30513 148.195618 
L 160.783237 150.119736 
L 153.261345 153.375519 
L 145.739453 158.915447 
L 138.21756 166.535711 
L 130.695668 166.638834 
L 123.173776 174.589533 
L 115.651883 180.633459 
L 108.129991 183.042115 
L 100.608098 189.684789 
L 93.086206 201.655288 
L 85.564314 204.39504 
L 78.042421 217.875943 
L 70.520529 264.999108 
L 62.998636 291.901435 
z
" style="fill:#d62728;fill-opacity:0.5;"/>
   </g>
   <g id="matplotlib.axis_1">
    <g id="xtick_1">
     <g id="line2d_1">
      <defs>
       <path d="M 0 0 
L 0 3.5 
" id="me53d49ef7d" style="stroke:#000000;stroke-width:0.8;"/>
      </defs>
      <g>
       <use style="stroke:#000000;stroke-width:0.8;" x="62.998636" xlink:href="#me53d49ef7d" y="303.64"/>
      </g>
     </g>
     <g id="text_1">
      <!-- 0 -->
      <g transform="translate(59.817386 318.238437)scale(0.1 -0.1)">
       <defs>
        <path d="M 2034 4250 
Q 1547 4250 1301 3770 
Q 1056 3291 1056 2328 
Q 1056 1369 1301 889 
Q 1547 409 2034 409 
Q 2525 409 2770 889 
Q 3016 1369 3016 2328 
Q 3016 3291 2770 3770 
Q 2525 4250 2034 4250 
z
M 2034 4750 
Q 2819 4750 3233 4129 
Q 3647 3509 3647 2328 
Q 3647 1150 3233 529 
Q 2819 -91 2034 -91 
Q 1250 -91 836 529 
Q 422 1150 422 2328 
Q 422 3509 836 4129 
Q 1250 4750 2034 4750 
z
" id="DejaVuSans-30" transform="scale(0.015625)"/>
       </defs>
       <use xlink:href="#DejaVuSans-30"/>
      </g>
     </g>
    </g>
    <g id="xtick_2">
     <g id="line2d_2">
      <g>
       <use style="stroke:#000000;stroke-width:0.8;" x="138.21756" xlink:href="#me53d49ef7d" y="303.64"/>
      </g>
     </g>
     <g id="text_2">
      <!-- 10 -->
      <g transform="translate(131.85506 318.238437)scale(0.1 -0.1)">
       <defs>
        <path d="M 794 531 
L 1825 531 
L 1825 4091 
L 703 3866 
L 703 4441 
L 1819 4666 
L 2450 4666 
L 2450 531 
L 3481 531 
L 3481 0 
L 794 0 
L 794 531 
z
" id="DejaVuSans-31" transform="scale(0.015625)"/>
       </defs>
       <use xlink:href="#DejaVuSans-31"/>
       <use x="63.623047" xlink:href="#DejaVuSans-30"/>
      </g>
     </g>
    </g>
    <g id="xtick_3">
     <g id="line2d_3">
      <g>
       <use style="stroke:#000000;stroke-width:0.8;" x="213.436484" xlink:href="#me53d49ef7d" y="303.64"/>
      </g>
     </g>
     <g id="text_3">
      <!-- 20 -->
      <g transform="translate(207.073984 318.238437)scale(0.1 -0.1)">
       <defs>
        <path d="M 1228 531 
L 3431 531 
L 3431 0 
L 469 0 
L 469 531 
Q 828 903 1448 1529 
Q 2069 2156 2228 2338 
Q 2531 2678 2651 2914 
Q 2772 3150 2772 3378 
Q 2772 3750 2511 3984 
Q 2250 4219 1831 4219 
Q 1534 4219 1204 4116 
Q 875 4013 500 3803 
L 500 4441 
Q 881 4594 1212 4672 
Q 1544 4750 1819 4750 
Q 2544 4750 2975 4387 
Q 3406 4025 3406 3419 
Q 3406 3131 3298 2873 
Q 3191 2616 2906 2266 
Q 2828 2175 2409 1742 
Q 1991 1309 1228 531 
z
" id="DejaVuSans-32" transform="scale(0.015625)"/>
       </defs>
       <use xlink:href="#DejaVuSans-32"/>
       <use x="63.623047" xlink:href="#DejaVuSans-30"/>
      </g>
     </g>
    </g>
    <g id="xtick_4">
     <g id="line2d_4">
      <g>
       <use style="stroke:#000000;stroke-width:0.8;" x="288.655408" xlink:href="#me53d49ef7d" y="303.64"/>
      </g>
     </g>
     <g id="text_4">
      <!-- 30 -->
      <g transform="translate(282.292908 318.238437)scale(0.1 -0.1)">
       <defs>
        <path d="M 2597 2516 
Q 3050 2419 3304 2112 
Q 3559 1806 3559 1356 
Q 3559 666 3084 287 
Q 2609 -91 1734 -91 
Q 1441 -91 1130 -33 
Q 819 25 488 141 
L 488 750 
Q 750 597 1062 519 
Q 1375 441 1716 441 
Q 2309 441 2620 675 
Q 2931 909 2931 1356 
Q 2931 1769 2642 2001 
Q 2353 2234 1838 2234 
L 1294 2234 
L 1294 2753 
L 1863 2753 
Q 2328 2753 2575 2939 
Q 2822 3125 2822 3475 
Q 2822 3834 2567 4026 
Q 2313 4219 1838 4219 
Q 1578 4219 1281 4162 
Q 984 4106 628 3988 
L 628 4550 
Q 988 4650 1302 4700 
Q 1616 4750 1894 4750 
Q 2613 4750 3031 4423 
Q 3450 4097 3450 3541 
Q 3450 3153 3228 2886 
Q 3006 2619 2597 2516 
z
" id="DejaVuSans-33" transform="scale(0.015625)"/>
       </defs>
       <use xlink:href="#DejaVuSans-33"/>
       <use x="63.623047" xlink:href="#DejaVuSans-30"/>
      </g>
     </g>
    </g>
    <g id="xtick_5">
     <g id="line2d_5">
      <g>
       <use style="stroke:#000000;stroke-width:0.8;" x="363.874332" xlink:href="#me53d49ef7d" y="303.64"/>
      </g>
     </g>
     <g id="text_5">
      <!-- 40 -->
      <g transform="translate(357.511832 318.238437)scale(0.1 -0.1)">
       <defs>
        <path d="M 2419 4116 
L 825 1625 
L 2419 1625 
L 2419 4116 
z
M 2253 4666 
L 3047 4666 
L 3047 1625 
L 3713 1625 
L 3713 1100 
L 3047 1100 
L 3047 0 
L 2419 0 
L 2419 1100 
L 313 1100 
L 313 1709 
L 2253 4666 
z
" id="DejaVuSans-34" transform="scale(0.015625)"/>
       </defs>
       <use xlink:href="#DejaVuSans-34"/>
       <use x="63.623047" xlink:href="#DejaVuSans-30"/>
      </g>
     </g>
    </g>
    <g id="xtick_6">
     <g id="line2d_6">
      <g>
       <use style="stroke:#000000;stroke-width:0.8;" x="439.093256" xlink:href="#me53d49ef7d" y="303.64"/>
      </g>
     </g>
     <g id="text_6">
      <!-- 50 -->
      <g transform="translate(432.730756 318.238437)scale(0.1 -0.1)">
       <defs>
        <path d="M 691 4666 
L 3169 4666 
L 3169 4134 
L 1269 4134 
L 1269 2991 
Q 1406 3038 1543 3061 
Q 1681 3084 1819 3084 
Q 2600 3084 3056 2656 
Q 3513 2228 3513 1497 
Q 3513 744 3044 326 
Q 2575 -91 1722 -91 
Q 1428 -91 1123 -41 
Q 819 9 494 109 
L 494 744 
Q 775 591 1075 516 
Q 1375 441 1709 441 
Q 2250 441 2565 725 
Q 2881 1009 2881 1497 
Q 2881 1984 2565 2268 
Q 2250 2553 1709 2553 
Q 1456 2553 1204 2497 
Q 953 2441 691 2322 
L 691 4666 
z
" id="DejaVuSans-35" transform="scale(0.015625)"/>
       </defs>
       <use xlink:href="#DejaVuSans-35"/>
       <use x="63.623047" xlink:href="#DejaVuSans-30"/>
      </g>
     </g>
    </g>
    <g id="text_7">
     <!-- Global Communication Rounds -->
     <g transform="translate(170.323281 331.916562)scale(0.1 -0.1)">
      <defs>
       <path d="M 3809 666 
L 3809 1919 
L 2778 1919 
L 2778 2438 
L 4434 2438 
L 4434 434 
Q 4069 175 3628 42 
Q 3188 -91 2688 -91 
Q 1594 -91 976 548 
Q 359 1188 359 2328 
Q 359 3472 976 4111 
Q 1594 4750 2688 4750 
Q 3144 4750 3555 4637 
Q 3966 4525 4313 4306 
L 4313 3634 
Q 3963 3931 3569 4081 
Q 3175 4231 2741 4231 
Q 1884 4231 1454 3753 
Q 1025 3275 1025 2328 
Q 1025 1384 1454 906 
Q 1884 428 2741 428 
Q 3075 428 3337 486 
Q 3600 544 3809 666 
z
" id="DejaVuSans-47" transform="scale(0.015625)"/>
       <path d="M 603 4863 
L 1178 4863 
L 1178 0 
L 603 0 
L 603 4863 
z
" id="DejaVuSans-6c" transform="scale(0.015625)"/>
       <path d="M 1959 3097 
Q 1497 3097 1228 2736 
Q 959 2375 959 1747 
Q 959 1119 1226 758 
Q 1494 397 1959 397 
Q 2419 397 2687 759 
Q 2956 1122 2956 1747 
Q 2956 2369 2687 2733 
Q 2419 3097 1959 3097 
z
M 1959 3584 
Q 2709 3584 3137 3096 
Q 3566 2609 3566 1747 
Q 3566 888 3137 398 
Q 2709 -91 1959 -91 
Q 1206 -91 779 398 
Q 353 888 353 1747 
Q 353 2609 779 3096 
Q 1206 3584 1959 3584 
z
" id="DejaVuSans-6f" transform="scale(0.015625)"/>
       <path d="M 3116 1747 
Q 3116 2381 2855 2742 
Q 2594 3103 2138 3103 
Q 1681 3103 1420 2742 
Q 1159 2381 1159 1747 
Q 1159 1113 1420 752 
Q 1681 391 2138 391 
Q 2594 391 2855 752 
Q 3116 1113 3116 1747 
z
M 1159 2969 
Q 1341 3281 1617 3432 
Q 1894 3584 2278 3584 
Q 2916 3584 3314 3078 
Q 3713 2572 3713 1747 
Q 3713 922 3314 415 
Q 2916 -91 2278 -91 
Q 1894 -91 1617 61 
Q 1341 213 1159 525 
L 1159 0 
L 581 0 
L 581 4863 
L 1159 4863 
L 1159 2969 
z
" id="DejaVuSans-62" transform="scale(0.015625)"/>
       <path d="M 2194 1759 
Q 1497 1759 1228 1600 
Q 959 1441 959 1056 
Q 959 750 1161 570 
Q 1363 391 1709 391 
Q 2188 391 2477 730 
Q 2766 1069 2766 1631 
L 2766 1759 
L 2194 1759 
z
M 3341 1997 
L 3341 0 
L 2766 0 
L 2766 531 
Q 2569 213 2275 61 
Q 1981 -91 1556 -91 
Q 1019 -91 701 211 
Q 384 513 384 1019 
Q 384 1609 779 1909 
Q 1175 2209 1959 2209 
L 2766 2209 
L 2766 2266 
Q 2766 2663 2505 2880 
Q 2244 3097 1772 3097 
Q 1472 3097 1187 3025 
Q 903 2953 641 2809 
L 641 3341 
Q 956 3463 1253 3523 
Q 1550 3584 1831 3584 
Q 2591 3584 2966 3190 
Q 3341 2797 3341 1997 
z
" id="DejaVuSans-61" transform="scale(0.015625)"/>
       <path id="DejaVuSans-20" transform="scale(0.015625)"/>
       <path d="M 4122 4306 
L 4122 3641 
Q 3803 3938 3442 4084 
Q 3081 4231 2675 4231 
Q 1875 4231 1450 3742 
Q 1025 3253 1025 2328 
Q 1025 1406 1450 917 
Q 1875 428 2675 428 
Q 3081 428 3442 575 
Q 3803 722 4122 1019 
L 4122 359 
Q 3791 134 3420 21 
Q 3050 -91 2638 -91 
Q 1578 -91 968 557 
Q 359 1206 359 2328 
Q 359 3453 968 4101 
Q 1578 4750 2638 4750 
Q 3056 4750 3426 4639 
Q 3797 4528 4122 4306 
z
" id="DejaVuSans-43" transform="scale(0.015625)"/>
       <path d="M 3328 2828 
Q 3544 3216 3844 3400 
Q 4144 3584 4550 3584 
Q 5097 3584 5394 3201 
Q 5691 2819 5691 2113 
L 5691 0 
L 5113 0 
L 5113 2094 
Q 5113 2597 4934 2840 
Q 4756 3084 4391 3084 
Q 3944 3084 3684 2787 
Q 3425 2491 3425 1978 
L 3425 0 
L 2847 0 
L 2847 2094 
Q 2847 2600 2669 2842 
Q 2491 3084 2119 3084 
Q 1678 3084 1418 2786 
Q 1159 2488 1159 1978 
L 1159 0 
L 581 0 
L 581 3500 
L 1159 3500 
L 1159 2956 
Q 1356 3278 1631 3431 
Q 1906 3584 2284 3584 
Q 2666 3584 2933 3390 
Q 3200 3197 3328 2828 
z
" id="DejaVuSans-6d" transform="scale(0.015625)"/>
       <path d="M 544 1381 
L 544 3500 
L 1119 3500 
L 1119 1403 
Q 1119 906 1312 657 
Q 1506 409 1894 409 
Q 2359 409 2629 706 
Q 2900 1003 2900 1516 
L 2900 3500 
L 3475 3500 
L 3475 0 
L 2900 0 
L 2900 538 
Q 2691 219 2414 64 
Q 2138 -91 1772 -91 
Q 1169 -91 856 284 
Q 544 659 544 1381 
z
M 1991 3584 
L 1991 3584 
z
" id="DejaVuSans-75" transform="scale(0.015625)"/>
       <path d="M 3513 2113 
L 3513 0 
L 2938 0 
L 2938 2094 
Q 2938 2591 2744 2837 
Q 2550 3084 2163 3084 
Q 1697 3084 1428 2787 
Q 1159 2491 1159 1978 
L 1159 0 
L 581 0 
L 581 3500 
L 1159 3500 
L 1159 2956 
Q 1366 3272 1645 3428 
Q 1925 3584 2291 3584 
Q 2894 3584 3203 3211 
Q 3513 2838 3513 2113 
z
" id="DejaVuSans-6e" transform="scale(0.015625)"/>
       <path d="M 603 3500 
L 1178 3500 
L 1178 0 
L 603 0 
L 603 3500 
z
M 603 4863 
L 1178 4863 
L 1178 4134 
L 603 4134 
L 603 4863 
z
" id="DejaVuSans-69" transform="scale(0.015625)"/>
       <path d="M 3122 3366 
L 3122 2828 
Q 2878 2963 2633 3030 
Q 2388 3097 2138 3097 
Q 1578 3097 1268 2742 
Q 959 2388 959 1747 
Q 959 1106 1268 751 
Q 1578 397 2138 397 
Q 2388 397 2633 464 
Q 2878 531 3122 666 
L 3122 134 
Q 2881 22 2623 -34 
Q 2366 -91 2075 -91 
Q 1284 -91 818 406 
Q 353 903 353 1747 
Q 353 2603 823 3093 
Q 1294 3584 2113 3584 
Q 2378 3584 2631 3529 
Q 2884 3475 3122 3366 
z
" id="DejaVuSans-63" transform="scale(0.015625)"/>
       <path d="M 1172 4494 
L 1172 3500 
L 2356 3500 
L 2356 3053 
L 1172 3053 
L 1172 1153 
Q 1172 725 1289 603 
Q 1406 481 1766 481 
L 2356 481 
L 2356 0 
L 1766 0 
Q 1100 0 847 248 
Q 594 497 594 1153 
L 594 3053 
L 172 3053 
L 172 3500 
L 594 3500 
L 594 4494 
L 1172 4494 
z
" id="DejaVuSans-74" transform="scale(0.015625)"/>
       <path d="M 2841 2188 
Q 3044 2119 3236 1894 
Q 3428 1669 3622 1275 
L 4263 0 
L 3584 0 
L 2988 1197 
Q 2756 1666 2539 1819 
Q 2322 1972 1947 1972 
L 1259 1972 
L 1259 0 
L 628 0 
L 628 4666 
L 2053 4666 
Q 2853 4666 3247 4331 
Q 3641 3997 3641 3322 
Q 3641 2881 3436 2590 
Q 3231 2300 2841 2188 
z
M 1259 4147 
L 1259 2491 
L 2053 2491 
Q 2509 2491 2742 2702 
Q 2975 2913 2975 3322 
Q 2975 3731 2742 3939 
Q 2509 4147 2053 4147 
L 1259 4147 
z
" id="DejaVuSans-52" transform="scale(0.015625)"/>
       <path d="M 2906 2969 
L 2906 4863 
L 3481 4863 
L 3481 0 
L 2906 0 
L 2906 525 
Q 2725 213 2448 61 
Q 2172 -91 1784 -91 
Q 1150 -91 751 415 
Q 353 922 353 1747 
Q 353 2572 751 3078 
Q 1150 3584 1784 3584 
Q 2172 3584 2448 3432 
Q 2725 3281 2906 2969 
z
M 947 1747 
Q 947 1113 1208 752 
Q 1469 391 1925 391 
Q 2381 391 2643 752 
Q 2906 1113 2906 1747 
Q 2906 2381 2643 2742 
Q 2381 3103 1925 3103 
Q 1469 3103 1208 2742 
Q 947 2381 947 1747 
z
" id="DejaVuSans-64" transform="scale(0.015625)"/>
       <path d="M 2834 3397 
L 2834 2853 
Q 2591 2978 2328 3040 
Q 2066 3103 1784 3103 
Q 1356 3103 1142 2972 
Q 928 2841 928 2578 
Q 928 2378 1081 2264 
Q 1234 2150 1697 2047 
L 1894 2003 
Q 2506 1872 2764 1633 
Q 3022 1394 3022 966 
Q 3022 478 2636 193 
Q 2250 -91 1575 -91 
Q 1294 -91 989 -36 
Q 684 19 347 128 
L 347 722 
Q 666 556 975 473 
Q 1284 391 1588 391 
Q 1994 391 2212 530 
Q 2431 669 2431 922 
Q 2431 1156 2273 1281 
Q 2116 1406 1581 1522 
L 1381 1569 
Q 847 1681 609 1914 
Q 372 2147 372 2553 
Q 372 3047 722 3315 
Q 1072 3584 1716 3584 
Q 2034 3584 2315 3537 
Q 2597 3491 2834 3397 
z
" id="DejaVuSans-73" transform="scale(0.015625)"/>
      </defs>
      <use xlink:href="#DejaVuSans-47"/>
      <use x="77.490234" xlink:href="#DejaVuSans-6c"/>
      <use x="105.273438" xlink:href="#DejaVuSans-6f"/>
      <use x="166.455078" xlink:href="#DejaVuSans-62"/>
      <use x="229.931641" xlink:href="#DejaVuSans-61"/>
      <use x="291.210938" xlink:href="#DejaVuSans-6c"/>
      <use x="318.994141" xlink:href="#DejaVuSans-20"/>
      <use x="350.78125" xlink:href="#DejaVuSans-43"/>
      <use x="420.605469" xlink:href="#DejaVuSans-6f"/>
      <use x="481.787109" xlink:href="#DejaVuSans-6d"/>
      <use x="579.199219" xlink:href="#DejaVuSans-6d"/>
      <use x="676.611328" xlink:href="#DejaVuSans-75"/>
      <use x="739.990234" xlink:href="#DejaVuSans-6e"/>
      <use x="803.369141" xlink:href="#DejaVuSans-69"/>
      <use x="831.152344" xlink:href="#DejaVuSans-63"/>
      <use x="886.132812" xlink:href="#DejaVuSans-61"/>
      <use x="947.412109" xlink:href="#DejaVuSans-74"/>
      <use x="986.621094" xlink:href="#DejaVuSans-69"/>
      <use x="1014.404297" xlink:href="#DejaVuSans-6f"/>
      <use x="1075.585938" xlink:href="#DejaVuSans-6e"/>
      <use x="1138.964844" xlink:href="#DejaVuSans-20"/>
      <use x="1170.751953" xlink:href="#DejaVuSans-52"/>
      <use x="1235.734375" xlink:href="#DejaVuSans-6f"/>
      <use x="1296.916016" xlink:href="#DejaVuSans-75"/>
      <use x="1360.294922" xlink:href="#DejaVuSans-6e"/>
      <use x="1423.673828" xlink:href="#DejaVuSans-64"/>
      <use x="1487.150391" xlink:href="#DejaVuSans-73"/>
     </g>
    </g>
   </g>
   <g id="matplotlib.axis_2">
    <g id="ytick_1">
     <g id="line2d_7">
      <defs>
       <path d="M 0 0 
L -3.5 0 
" id="mb7eb928ef3" style="stroke:#000000;stroke-width:0.8;"/>
      </defs>
      <g>
       <use style="stroke:#000000;stroke-width:0.8;" x="44.57" xlink:href="#mb7eb928ef3" y="292.003313"/>
      </g>
     </g>
     <g id="text_8">
      <!-- 10 -->
      <g transform="translate(24.845 295.802532)scale(0.1 -0.1)">
       <use xlink:href="#DejaVuSans-31"/>
       <use x="63.623047" xlink:href="#DejaVuSans-30"/>
      </g>
     </g>
    </g>
    <g id="ytick_2">
     <g id="line2d_8">
      <g>
       <use style="stroke:#000000;stroke-width:0.8;" x="44.57" xlink:href="#mb7eb928ef3" y="249.553936"/>
      </g>
     </g>
     <g id="text_9">
      <!-- 20 -->
      <g transform="translate(24.845 253.353155)scale(0.1 -0.1)">
       <use xlink:href="#DejaVuSans-32"/>
       <use x="63.623047" xlink:href="#DejaVuSans-30"/>
      </g>
     </g>
    </g>
    <g id="ytick_3">
     <g id="line2d_9">
      <g>
       <use style="stroke:#000000;stroke-width:0.8;" x="44.57" xlink:href="#mb7eb928ef3" y="207.104558"/>
      </g>
     </g>
     <g id="text_10">
      <!-- 30 -->
      <g transform="translate(24.845 210.903777)scale(0.1 -0.1)">
       <use xlink:href="#DejaVuSans-33"/>
       <use x="63.623047" xlink:href="#DejaVuSans-30"/>
      </g>
     </g>
    </g>
    <g id="ytick_4">
     <g id="line2d_10">
      <g>
       <use style="stroke:#000000;stroke-width:0.8;" x="44.57" xlink:href="#mb7eb928ef3" y="164.655181"/>
      </g>
     </g>
     <g id="text_11">
      <!-- 40 -->
      <g transform="translate(24.845 168.4544)scale(0.1 -0.1)">
       <use xlink:href="#DejaVuSans-34"/>
       <use x="63.623047" xlink:href="#DejaVuSans-30"/>
      </g>
     </g>
    </g>
    <g id="ytick_5">
     <g id="line2d_11">
      <g>
       <use style="stroke:#000000;stroke-width:0.8;" x="44.57" xlink:href="#mb7eb928ef3" y="122.205803"/>
      </g>
     </g>
     <g id="text_12">
      <!-- 50 -->
      <g transform="translate(24.845 126.005022)scale(0.1 -0.1)">
       <use xlink:href="#DejaVuSans-35"/>
       <use x="63.623047" xlink:href="#DejaVuSans-30"/>
      </g>
     </g>
    </g>
    <g id="ytick_6">
     <g id="line2d_12">
      <g>
       <use style="stroke:#000000;stroke-width:0.8;" x="44.57" xlink:href="#mb7eb928ef3" y="79.756426"/>
      </g>
     </g>
     <g id="text_13">
      <!-- 60 -->
      <g transform="translate(24.845 83.555645)scale(0.1 -0.1)">
       <defs>
        <path d="M 2113 2584 
Q 1688 2584 1439 2293 
Q 1191 2003 1191 1497 
Q 1191 994 1439 701 
Q 1688 409 2113 409 
Q 2538 409 2786 701 
Q 3034 994 3034 1497 
Q 3034 2003 2786 2293 
Q 2538 2584 2113 2584 
z
M 3366 4563 
L 3366 3988 
Q 3128 4100 2886 4159 
Q 2644 4219 2406 4219 
Q 1781 4219 1451 3797 
Q 1122 3375 1075 2522 
Q 1259 2794 1537 2939 
Q 1816 3084 2150 3084 
Q 2853 3084 3261 2657 
Q 3669 2231 3669 1497 
Q 3669 778 3244 343 
Q 2819 -91 2113 -91 
Q 1303 -91 875 529 
Q 447 1150 447 2328 
Q 447 3434 972 4092 
Q 1497 4750 2381 4750 
Q 2619 4750 2861 4703 
Q 3103 4656 3366 4563 
z
" id="DejaVuSans-36" transform="scale(0.015625)"/>
       </defs>
       <use xlink:href="#DejaVuSans-36"/>
       <use x="63.623047" xlink:href="#DejaVuSans-30"/>
      </g>
     </g>
    </g>
    <g id="text_14">
     <!-- Test Accuracy -->
     <g transform="translate(18.765313 210.2725)rotate(-90)scale(0.1 -0.1)">
      <defs>
       <path d="M -19 4666 
L 3928 4666 
L 3928 4134 
L 2272 4134 
L 2272 0 
L 1638 0 
L 1638 4134 
L -19 4134 
L -19 4666 
z
" id="DejaVuSans-54" transform="scale(0.015625)"/>
       <path d="M 3597 1894 
L 3597 1613 
L 953 1613 
Q 991 1019 1311 708 
Q 1631 397 2203 397 
Q 2534 397 2845 478 
Q 3156 559 3463 722 
L 3463 178 
Q 3153 47 2828 -22 
Q 2503 -91 2169 -91 
Q 1331 -91 842 396 
Q 353 884 353 1716 
Q 353 2575 817 3079 
Q 1281 3584 2069 3584 
Q 2775 3584 3186 3129 
Q 3597 2675 3597 1894 
z
M 3022 2063 
Q 3016 2534 2758 2815 
Q 2500 3097 2075 3097 
Q 1594 3097 1305 2825 
Q 1016 2553 972 2059 
L 3022 2063 
z
" id="DejaVuSans-65" transform="scale(0.015625)"/>
       <path d="M 2188 4044 
L 1331 1722 
L 3047 1722 
L 2188 4044 
z
M 1831 4666 
L 2547 4666 
L 4325 0 
L 3669 0 
L 3244 1197 
L 1141 1197 
L 716 0 
L 50 0 
L 1831 4666 
z
" id="DejaVuSans-41" transform="scale(0.015625)"/>
       <path d="M 2631 2963 
Q 2534 3019 2420 3045 
Q 2306 3072 2169 3072 
Q 1681 3072 1420 2755 
Q 1159 2438 1159 1844 
L 1159 0 
L 581 0 
L 581 3500 
L 1159 3500 
L 1159 2956 
Q 1341 3275 1631 3429 
Q 1922 3584 2338 3584 
Q 2397 3584 2469 3576 
Q 2541 3569 2628 3553 
L 2631 2963 
z
" id="DejaVuSans-72" transform="scale(0.015625)"/>
       <path d="M 2059 -325 
Q 1816 -950 1584 -1140 
Q 1353 -1331 966 -1331 
L 506 -1331 
L 506 -850 
L 844 -850 
Q 1081 -850 1212 -737 
Q 1344 -625 1503 -206 
L 1606 56 
L 191 3500 
L 800 3500 
L 1894 763 
L 2988 3500 
L 3597 3500 
L 2059 -325 
z
" id="DejaVuSans-79" transform="scale(0.015625)"/>
      </defs>
      <use xlink:href="#DejaVuSans-54"/>
      <use x="44.083984" xlink:href="#DejaVuSans-65"/>
      <use x="105.607422" xlink:href="#DejaVuSans-73"/>
      <use x="157.707031" xlink:href="#DejaVuSans-74"/>
      <use x="196.916016" xlink:href="#DejaVuSans-20"/>
      <use x="228.703125" xlink:href="#DejaVuSans-41"/>
      <use x="295.361328" xlink:href="#DejaVuSans-63"/>
      <use x="350.341797" xlink:href="#DejaVuSans-63"/>
      <use x="405.322266" xlink:href="#DejaVuSans-75"/>
      <use x="468.701172" xlink:href="#DejaVuSans-72"/>
      <use x="509.814453" xlink:href="#DejaVuSans-61"/>
      <use x="571.09375" xlink:href="#DejaVuSans-63"/>
      <use x="626.074219" xlink:href="#DejaVuSans-79"/>
     </g>
    </g>
   </g>
   <g id="line2d_13">
    <path clip-path="url(#p45d5f7e034)" d="M 62.998636 254.497408 
L 70.520529 242.246195 
L 78.042421 219.893105 
L 85.564314 214.304832 
L 93.086206 210.113628 
L 100.608098 193.993611 
L 108.129991 186.148537 
L 115.651883 183.461867 
L 123.173776 176.046659 
L 130.695668 177.121327 
L 138.21756 168.201585 
L 145.739453 164.870114 
L 153.261345 163.68798 
L 160.783237 154.230903 
L 168.30513 154.33837 
L 175.827022 148.965031 
L 183.348915 148.427697 
L 190.870807 141.33489 
L 198.392699 137.681019 
L 205.914592 137.251152 
L 213.436484 131.66288 
L 220.958377 128.546343 
L 228.480269 127.901543 
L 236.002161 125.429807 
L 243.524054 124.785006 
L 251.045946 120.056468 
L 258.567839 117.369798 
L 266.089731 116.617531 
L 273.611623 112.748727 
L 281.133516 112.533793 
L 288.655408 108.450056 
L 296.177301 108.235122 
L 303.699193 105.763386 
L 311.221085 102.002049 
L 318.742978 101.572182 
L 326.26487 94.694308 
L 333.786763 98.348179 
L 341.308655 95.768976 
L 348.830547 94.801775 
L 356.35244 91.792705 
L 363.874332 87.171634 
L 371.396224 88.568702 
L 378.918117 87.816434 
L 386.440009 82.443095 
L 393.961902 81.368428 
L 401.483794 76.96229 
L 409.005686 75.887622 
L 416.527579 73.845753 
L 424.049471 73.738286 
L 431.571364 72.986019 
" style="fill:none;stroke:#1f77b4;stroke-linecap:square;stroke-width:1.5;"/>
   </g>
   <g id="line2d_14">
    <path clip-path="url(#p45d5f7e034)" d="M 62.998636 269.005423 
L 70.520529 232.251784 
L 78.042421 209.576294 
L 85.564314 210.113628 
L 93.086206 203.128288 
L 100.608098 190.984542 
L 108.129991 194.853346 
L 115.651883 183.569334 
L 123.173776 176.906394 
L 130.695668 177.551194 
L 138.21756 171.855455 
L 145.739453 170.02852 
L 153.261345 166.589583 
L 160.783237 162.075978 
L 168.30513 159.174375 
L 175.827022 158.637041 
L 183.348915 152.296501 
L 190.870807 149.287432 
L 198.392699 147.35303 
L 205.914592 144.881294 
L 213.436484 138.540754 
L 220.958377 134.67195 
L 228.480269 136.176485 
L 236.002161 133.274882 
L 243.524054 132.307681 
L 251.045946 129.083677 
L 258.567839 125.32234 
L 266.089731 122.420737 
L 273.611623 116.832464 
L 281.133516 120.486335 
L 288.655408 115.865263 
L 296.177301 115.220463 
L 303.699193 115.220463 
L 311.221085 110.599391 
L 318.742978 110.814325 
L 326.26487 104.903652 
L 333.786763 106.408187 
L 341.308655 105.011119 
L 348.830547 106.193253 
L 356.35244 100.497514 
L 363.874332 97.703378 
L 371.396224 96.62871 
L 378.918117 99.530313 
L 386.440009 93.834574 
L 393.961902 93.61964 
L 401.483794 91.040438 
L 409.005686 87.601501 
L 416.527579 84.592431 
L 424.049471 83.62523 
L 431.571364 81.690828 
" style="fill:none;stroke:#ff7f0e;stroke-linecap:square;stroke-width:1.5;"/>
   </g>
   <g id="line2d_15">
    <path clip-path="url(#p45d5f7e034)" d="M 62.998636 260.515547 
L 70.520529 230.317382 
L 78.042421 223.332042 
L 85.564314 213.445098 
L 93.086206 200.011751 
L 100.608098 195.820547 
L 108.129991 191.521875 
L 115.651883 183.461867 
L 123.173776 180.02293 
L 130.695668 177.228794 
L 138.21756 171.962922 
L 145.739453 170.243453 
L 153.261345 164.547714 
L 160.783237 159.281842 
L 168.30513 157.454907 
L 175.827022 148.965031 
L 183.348915 151.759167 
L 190.870807 147.567963 
L 198.392699 141.65729 
L 205.914592 144.34396 
L 213.436484 138.218353 
L 220.958377 138.970621 
L 228.480269 135.209284 
L 236.002161 135.31675 
L 243.524054 133.704749 
L 251.045946 131.66288 
L 258.567839 129.943411 
L 266.089731 127.364209 
L 273.611623 126.504475 
L 281.133516 123.817805 
L 288.655408 120.378868 
L 296.177301 119.626601 
L 303.699193 122.420737 
L 311.221085 120.378868 
L 318.742978 115.542863 
L 326.26487 116.295131 
L 333.786763 110.814325 
L 341.308655 112.64126 
L 348.830547 111.996459 
L 356.35244 107.912722 
L 363.874332 105.333519 
L 371.396224 103.184184 
L 378.918117 99.31538 
L 386.440009 98.133245 
L 393.961902 100.067647 
L 401.483794 95.231642 
L 409.005686 96.843644 
L 416.527579 94.156974 
L 424.049471 90.610571 
L 431.571364 92.759906 
" style="fill:none;stroke:#2ca02c;stroke-linecap:square;stroke-width:1.5;"/>
   </g>
   <g id="line2d_16">
    <path clip-path="url(#p45d5f7e034)" d="M 62.998636 291.969354 
L 70.520529 274.021757 
L 78.042421 222.471233 
L 85.564314 207.860157 
L 93.086206 207.342275 
L 100.608098 195.677186 
L 108.129991 188.274014 
L 115.651883 185.939299 
L 123.173776 177.899387 
L 130.695668 168.80673 
L 138.21756 170.122661 
L 145.739453 162.965696 
L 153.261345 157.795361 
L 160.783237 154.985213 
L 168.30513 152.540129 
L 175.827022 147.089628 
L 183.348915 146.138762 
L 190.870807 143.5918 
L 198.392699 139.856255 
L 205.914592 138.913878 
L 213.436484 134.898167 
L 220.958377 131.111683 
L 228.480269 128.063817 
L 236.002161 125.83098 
L 243.524054 122.808585 
L 251.045946 121.670941 
L 258.567839 118.045764 
L 266.089731 116.602486 
L 273.611623 113.427272 
L 281.133516 110.311488 
L 288.655408 110.922759 
L 296.177301 108.11261 
L 303.699193 105.956182 
L 311.221085 102.178187 
L 318.742978 101.380139 
L 326.26487 100.072698 
L 333.786763 97.525735 
L 341.308655 95.343837 
L 348.830547 94.690117 
L 356.35244 90.462159 
L 363.874332 89.545252 
L 371.396224 87.567111 
L 378.918117 86.395509 
L 386.440009 83.050498 
L 393.961902 82.464696 
L 401.483794 79.46777 
L 409.005686 79.773406 
L 416.527579 78.432005 
L 424.049471 75.596387 
L 431.571364 73.847473 
" style="fill:none;stroke:#d62728;stroke-linecap:square;stroke-width:1.5;"/>
   </g>
   <g id="patch_3">
    <path d="M 44.57 303.64 
L 44.57 48.38 
" style="fill:none;stroke:#000000;stroke-linecap:square;stroke-linejoin:miter;stroke-width:0.8;"/>
   </g>
   <g id="patch_4">
    <path d="M 450 303.64 
L 450 48.38 
" style="fill:none;stroke:#000000;stroke-linecap:square;stroke-linejoin:miter;stroke-width:0.8;"/>
   </g>
   <g id="patch_5">
    <path d="M 44.57 303.64 
L 450 303.64 
" style="fill:none;stroke:#000000;stroke-linecap:square;stroke-linejoin:miter;stroke-width:0.8;"/>
   </g>
   <g id="patch_6">
    <path d="M 44.57 48.38 
L 450 48.38 
" style="fill:none;stroke:#000000;stroke-linecap:square;stroke-linejoin:miter;stroke-width:0.8;"/>
   </g>
   <g id="text_15">
    <!-- Local Rounds 01 -->
    <g transform="translate(198.174063 20.88)scale(0.12 -0.12)">
     <defs>
      <path d="M 628 4666 
L 1259 4666 
L 1259 531 
L 3531 531 
L 3531 0 
L 628 0 
L 628 4666 
z
" id="DejaVuSans-4c" transform="scale(0.015625)"/>
     </defs>
     <use xlink:href="#DejaVuSans-4c"/>
     <use x="53.962891" xlink:href="#DejaVuSans-6f"/>
     <use x="115.144531" xlink:href="#DejaVuSans-63"/>
     <use x="170.125" xlink:href="#DejaVuSans-61"/>
     <use x="231.404297" xlink:href="#DejaVuSans-6c"/>
     <use x="259.1875" xlink:href="#DejaVuSans-20"/>
     <use x="290.974609" xlink:href="#DejaVuSans-52"/>
     <use x="355.957031" xlink:href="#DejaVuSans-6f"/>
     <use x="417.138672" xlink:href="#DejaVuSans-75"/>
     <use x="480.517578" xlink:href="#DejaVuSans-6e"/>
     <use x="543.896484" xlink:href="#DejaVuSans-64"/>
     <use x="607.373047" xlink:href="#DejaVuSans-73"/>
     <use x="659.472656" xlink:href="#DejaVuSans-20"/>
     <use x="691.259766" xlink:href="#DejaVuSans-30"/>
     <use x="754.882812" xlink:href="#DejaVuSans-31"/>
    </g>
   </g>
   <g id="legend_1">
    <g id="patch_7">
     <path d="M 80.886563 45.532125 
L 413.683438 45.532125 
Q 415.683438 45.532125 415.683438 43.532125 
L 415.683438 29.854 
Q 415.683438 27.854 413.683438 27.854 
L 80.886563 27.854 
Q 78.886563 27.854 78.886563 29.854 
L 78.886563 43.532125 
Q 78.886563 45.532125 80.886563 45.532125 
z
" style="fill:#ffffff;opacity:0.8;stroke:#cccccc;stroke-linejoin:miter;"/>
    </g>
    <g id="line2d_17">
     <path d="M 82.886563 35.952438 
L 102.886563 35.952438 
" style="fill:none;stroke:#1f77b4;stroke-linecap:square;stroke-width:1.5;"/>
    </g>
    <g id="line2d_18"/>
    <g id="text_16">
     <!-- FedAvg -->
     <g transform="translate(110.886563 39.452438)scale(0.1 -0.1)">
      <defs>
       <path d="M 628 4666 
L 3309 4666 
L 3309 4134 
L 1259 4134 
L 1259 2759 
L 3109 2759 
L 3109 2228 
L 1259 2228 
L 1259 0 
L 628 0 
L 628 4666 
z
" id="DejaVuSans-46" transform="scale(0.015625)"/>
       <path d="M 191 3500 
L 800 3500 
L 1894 563 
L 2988 3500 
L 3597 3500 
L 2284 0 
L 1503 0 
L 191 3500 
z
" id="DejaVuSans-76" transform="scale(0.015625)"/>
       <path d="M 2906 1791 
Q 2906 2416 2648 2759 
Q 2391 3103 1925 3103 
Q 1463 3103 1205 2759 
Q 947 2416 947 1791 
Q 947 1169 1205 825 
Q 1463 481 1925 481 
Q 2391 481 2648 825 
Q 2906 1169 2906 1791 
z
M 3481 434 
Q 3481 -459 3084 -895 
Q 2688 -1331 1869 -1331 
Q 1566 -1331 1297 -1286 
Q 1028 -1241 775 -1147 
L 775 -588 
Q 1028 -725 1275 -790 
Q 1522 -856 1778 -856 
Q 2344 -856 2625 -561 
Q 2906 -266 2906 331 
L 2906 616 
Q 2728 306 2450 153 
Q 2172 0 1784 0 
Q 1141 0 747 490 
Q 353 981 353 1791 
Q 353 2603 747 3093 
Q 1141 3584 1784 3584 
Q 2172 3584 2450 3431 
Q 2728 3278 2906 2969 
L 2906 3500 
L 3481 3500 
L 3481 434 
z
" id="DejaVuSans-67" transform="scale(0.015625)"/>
      </defs>
      <use xlink:href="#DejaVuSans-46"/>
      <use x="52.019531" xlink:href="#DejaVuSans-65"/>
      <use x="113.542969" xlink:href="#DejaVuSans-64"/>
      <use x="177.019531" xlink:href="#DejaVuSans-41"/>
      <use x="239.552734" xlink:href="#DejaVuSans-76"/>
      <use x="298.732422" xlink:href="#DejaVuSans-67"/>
     </g>
    </g>
    <g id="line2d_19">
     <path d="M 167.11 35.952438 
L 187.11 35.952438 
" style="fill:none;stroke:#ff7f0e;stroke-linecap:square;stroke-width:1.5;"/>
    </g>
    <g id="line2d_20"/>
    <g id="text_17">
     <!-- FedMed -->
     <g transform="translate(195.11 39.452438)scale(0.1 -0.1)">
      <defs>
       <path d="M 628 4666 
L 1569 4666 
L 2759 1491 
L 3956 4666 
L 4897 4666 
L 4897 0 
L 4281 0 
L 4281 4097 
L 3078 897 
L 2444 897 
L 1241 4097 
L 1241 0 
L 628 0 
L 628 4666 
z
" id="DejaVuSans-4d" transform="scale(0.015625)"/>
      </defs>
      <use xlink:href="#DejaVuSans-46"/>
      <use x="52.019531" xlink:href="#DejaVuSans-65"/>
      <use x="113.542969" xlink:href="#DejaVuSans-64"/>
      <use x="177.019531" xlink:href="#DejaVuSans-4d"/>
      <use x="263.298828" xlink:href="#DejaVuSans-65"/>
      <use x="324.822266" xlink:href="#DejaVuSans-64"/>
     </g>
    </g>
    <g id="line2d_21">
     <path d="M 253.942813 35.952438 
L 273.942813 35.952438 
" style="fill:none;stroke:#2ca02c;stroke-linecap:square;stroke-width:1.5;"/>
    </g>
    <g id="line2d_22"/>
    <g id="text_18">
     <!-- FedProx -->
     <g transform="translate(281.942813 39.452438)scale(0.1 -0.1)">
      <defs>
       <path d="M 1259 4147 
L 1259 2394 
L 2053 2394 
Q 2494 2394 2734 2622 
Q 2975 2850 2975 3272 
Q 2975 3691 2734 3919 
Q 2494 4147 2053 4147 
L 1259 4147 
z
M 628 4666 
L 2053 4666 
Q 2838 4666 3239 4311 
Q 3641 3956 3641 3272 
Q 3641 2581 3239 2228 
Q 2838 1875 2053 1875 
L 1259 1875 
L 1259 0 
L 628 0 
L 628 4666 
z
" id="DejaVuSans-50" transform="scale(0.015625)"/>
       <path d="M 3513 3500 
L 2247 1797 
L 3578 0 
L 2900 0 
L 1881 1375 
L 863 0 
L 184 0 
L 1544 1831 
L 300 3500 
L 978 3500 
L 1906 2253 
L 2834 3500 
L 3513 3500 
z
" id="DejaVuSans-78" transform="scale(0.015625)"/>
      </defs>
      <use xlink:href="#DejaVuSans-46"/>
      <use x="52.019531" xlink:href="#DejaVuSans-65"/>
      <use x="113.542969" xlink:href="#DejaVuSans-64"/>
      <use x="177.019531" xlink:href="#DejaVuSans-50"/>
      <use x="235.572266" xlink:href="#DejaVuSans-72"/>
      <use x="274.435547" xlink:href="#DejaVuSans-6f"/>
      <use x="332.492188" xlink:href="#DejaVuSans-78"/>
     </g>
    </g>
    <g id="line2d_23">
     <path d="M 341.111563 35.952438 
L 361.111563 35.952438 
" style="fill:none;stroke:#d62728;stroke-linecap:square;stroke-width:1.5;"/>
    </g>
    <g id="line2d_24"/>
    <g id="text_19">
     <!-- qFedAvg -->
     <g transform="translate(369.111563 39.452438)scale(0.1 -0.1)">
      <defs>
       <path d="M 947 1747 
Q 947 1113 1208 752 
Q 1469 391 1925 391 
Q 2381 391 2643 752 
Q 2906 1113 2906 1747 
Q 2906 2381 2643 2742 
Q 2381 3103 1925 3103 
Q 1469 3103 1208 2742 
Q 947 2381 947 1747 
z
M 2906 525 
Q 2725 213 2448 61 
Q 2172 -91 1784 -91 
Q 1150 -91 751 415 
Q 353 922 353 1747 
Q 353 2572 751 3078 
Q 1150 3584 1784 3584 
Q 2172 3584 2448 3432 
Q 2725 3281 2906 2969 
L 2906 3500 
L 3481 3500 
L 3481 -1331 
L 2906 -1331 
L 2906 525 
z
" id="DejaVuSans-71" transform="scale(0.015625)"/>
      </defs>
      <use xlink:href="#DejaVuSans-71"/>
      <use x="63.476562" xlink:href="#DejaVuSans-46"/>
      <use x="115.496094" xlink:href="#DejaVuSans-65"/>
      <use x="177.019531" xlink:href="#DejaVuSans-64"/>
      <use x="240.496094" xlink:href="#DejaVuSans-41"/>
      <use x="303.029297" xlink:href="#DejaVuSans-76"/>
      <use x="362.208984" xlink:href="#DejaVuSans-67"/>
     </g>
    </g>
   </g>
  </g>
 </g>
 <defs>
  <clipPath id="p45d5f7e034">
   <rect height="255.26" width="405.43" x="44.57" y="48.38"/>
  </clipPath>
 </defs>
</svg>
