<?xml version="1.0" encoding="utf-8" standalone="no"?>
<!DOCTYPE svg PUBLIC "-//W3C//DTD SVG 1.1//EN"
  "http://www.w3.org/Graphics/SVG/1.1/DTD/svg11.dtd">
<svg height="432pt" version="1.1" viewBox="0 0 576 432" width="576pt" xmlns="http://www.w3.org/2000/svg" xmlns:xlink="http://www.w3.org/1999/xlink">
 <metadata>
  <rdf:RDF xmlns:cc="http://creativecommons.org/ns#" xmlns:dc="http://purl.org/dc/elements/1.1/" xmlns:rdf="http://www.w3.org/1999/02/22-rdf-syntax-ns#">
   <cc:Work>
    <dc:type rdf:resource="http://purl.org/dc/dcmitype/StillImage"/>
    <dc:date>2021-05-07T22:04:36.737966</dc:date>
    <dc:format>image/svg+xml</dc:format>
    <dc:creator>
     <cc:Agent>
      <dc:title>Matplotlib v3.4.1, https://matplotlib.org/</dc:title>
     </cc:Agent>
    </dc:creator>
   </cc:Work>
  </rdf:RDF>
 </metadata>
 <defs>
  <style type="text/css">*{stroke-linecap:butt;stroke-linejoin:round;}</style>
 </defs>
 <g id="figure_1">
  <g id="patch_1">
   <path d="M 0 432 
L 576 432 
L 576 0 
L 0 0 
z
" style="fill:#ffffff;"/>
  </g>
  <g id="axes_1">
   <g id="patch_2">
    <path d="M 60.77 376 
L 556.505 376 
L 556.505 56.601989 
L 60.77 56.601989 
z
" style="fill:#ffffff;"/>
   </g>
   <g id="PolyCollection_1">
    <path clip-path="url(#p5e9f18d7c9)" d="M 83.303409 331.318424 
L 83.303409 349.951624 
L 92.500719 279.047521 
L 101.698029 252.516149 
L 110.895339 236.149924 
L 120.092648 226.039007 
L 129.289958 215.196501 
L 138.487268 207.635873 
L 147.684578 201.720262 
L 156.881888 195.907561 
L 166.079198 183.171059 
L 175.276507 177.634326 
L 184.473817 169.555892 
L 193.671127 163.158666 
L 202.868437 154.068908 
L 212.065747 149.827467 
L 221.263057 141.857697 
L 230.460366 141.338775 
L 239.657676 136.20673 
L 248.854986 135.651931 
L 258.052296 135.061791 
L 267.249606 127.504111 
L 276.446916 124.575511 
L 285.644225 121.588559 
L 294.841535 120.762057 
L 304.038845 115.663569 
L 313.236155 113.10496 
L 322.433465 112.400044 
L 331.630775 108.916455 
L 340.828084 108.605969 
L 350.025394 106.899615 
L 359.222704 103.371575 
L 368.420014 101.049911 
L 377.617324 100.112978 
L 386.814634 98.811493 
L 396.011943 93.95289 
L 405.209253 93.699567 
L 414.406563 92.947905 
L 423.603873 91.434411 
L 432.801183 88.33187 
L 441.998493 89.840017 
L 451.195802 90.497851 
L 460.393112 86.681502 
L 469.590422 85.758139 
L 478.787732 82.898907 
L 487.985042 82.624178 
L 497.182352 81.264888 
L 506.379661 82.314148 
L 515.576971 81.657474 
L 524.774281 78.465371 
L 533.971591 78.161973 
L 533.971591 71.12008 
L 533.971591 71.12008 
L 524.774281 74.577013 
L 515.576971 73.364032 
L 506.379661 78.050988 
L 497.182352 78.110687 
L 487.985042 74.772275 
L 478.787732 78.45579 
L 469.590422 80.544363 
L 460.393112 80.016825 
L 451.195802 84.314876 
L 441.998493 81.608202 
L 432.801183 85.491296 
L 423.603873 85.753262 
L 414.406563 87.802188 
L 405.209253 89.821296 
L 396.011943 87.588851 
L 386.814634 89.063439 
L 377.617324 93.501407 
L 368.420014 94.741509 
L 359.222704 95.982264 
L 350.025394 97.995766 
L 340.828084 102.622602 
L 331.630775 101.124644 
L 322.433465 107.338752 
L 313.236155 110.196256 
L 304.038845 112.387539 
L 294.841535 114.215978 
L 285.644225 115.764423 
L 276.446916 119.506486 
L 267.249606 122.713164 
L 258.052296 125.64483 
L 248.854986 127.429637 
L 239.657676 131.624731 
L 230.460366 134.01335 
L 221.263057 136.067286 
L 212.065747 139.1806 
L 202.868437 145.428505 
L 193.671127 150.98425 
L 184.473817 156.659668 
L 175.276507 166.393332 
L 166.079198 174.512541 
L 156.881888 185.921327 
L 147.684578 189.212587 
L 138.487268 198.536216 
L 129.289958 203.246144 
L 120.092648 215.955191 
L 110.895339 222.864722 
L 101.698029 241.331045 
L 92.500719 259.132006 
L 83.303409 331.318424 
z
" style="fill:#1f77b4;fill-opacity:0.5;"/>
   </g>
   <g id="PolyCollection_2">
    <path clip-path="url(#p5e9f18d7c9)" d="M 83.303409 345.120901 
L 83.303409 361.481909 
L 92.500719 279.748398 
L 101.698029 255.839943 
L 110.895339 244.065278 
L 120.092648 228.275746 
L 129.289958 219.917307 
L 138.487268 212.01812 
L 147.684578 209.476311 
L 156.881888 206.297322 
L 166.079198 194.06452 
L 175.276507 186.93302 
L 184.473817 181.054064 
L 193.671127 175.138109 
L 202.868437 163.167329 
L 212.065747 156.509094 
L 221.263057 149.289045 
L 230.460366 149.710432 
L 239.657676 145.835691 
L 248.854986 140.876263 
L 258.052296 137.462332 
L 267.249606 133.574464 
L 276.446916 129.205483 
L 285.644225 125.938893 
L 294.841535 123.683721 
L 304.038845 121.335912 
L 313.236155 119.893034 
L 322.433465 115.779061 
L 331.630775 111.91084 
L 340.828084 111.624901 
L 350.025394 111.708322 
L 359.222704 105.341266 
L 368.420014 107.250327 
L 377.617324 106.423797 
L 386.814634 107.350486 
L 396.011943 100.874975 
L 405.209253 102.270306 
L 414.406563 99.67692 
L 423.603873 97.574912 
L 432.801183 97.682898 
L 441.998493 94.386034 
L 451.195802 95.704092 
L 460.393112 94.995096 
L 469.590422 98.395339 
L 478.787732 92.663834 
L 487.985042 92.356147 
L 497.182352 91.523253 
L 506.379661 88.24694 
L 515.576971 89.221602 
L 524.774281 86.453295 
L 533.971591 88.708385 
L 533.971591 81.156537 
L 533.971591 81.156537 
L 524.774281 80.245032 
L 515.576971 84.007827 
L 506.379661 83.795016 
L 497.182352 84.081123 
L 487.985042 87.404385 
L 478.787732 87.29461 
L 469.590422 88.29212 
L 460.393112 87.734119 
L 451.195802 89.004245 
L 441.998493 89.13483 
L 432.801183 93.754453 
L 423.603873 92.279142 
L 414.406563 93.343729 
L 405.209253 97.479358 
L 396.011943 95.312269 
L 386.814634 99.128193 
L 377.617324 97.086199 
L 368.420014 101.999123 
L 359.222704 99.158291 
L 350.025394 104.863879 
L 340.828084 105.936861 
L 331.630775 104.463449 
L 322.433465 112.272048 
L 313.236155 112.116319 
L 304.038845 115.027509 
L 294.841535 116.044207 
L 285.644225 120.320138 
L 276.446916 122.990914 
L 267.249606 126.340509 
L 258.052296 128.192094 
L 248.854986 132.100915 
L 239.657676 136.047537 
L 230.460366 135.933127 
L 221.263057 143.677265 
L 212.065747 147.738211 
L 202.868437 149.788113 
L 193.671127 164.535481 
L 184.473817 169.900521 
L 175.276507 181.042014 
L 166.079198 184.004037 
L 156.881888 193.541577 
L 147.684578 191.747973 
L 138.487268 201.080896 
L 129.289958 206.441826 
L 120.092648 221.437027 
L 110.895339 231.178169 
L 101.698029 246.319564 
L 92.500719 269.514212 
L 83.303409 345.120901 
z
" style="fill:#ff7f0e;fill-opacity:0.5;"/>
   </g>
   <g id="PolyCollection_3">
    <path clip-path="url(#p5e9f18d7c9)" d="M 83.303409 316.34405 
L 83.303409 352.853353 
L 92.500719 287.643817 
L 101.698029 260.247101 
L 110.895339 247.783919 
L 120.092648 240.631098 
L 129.289958 224.311798 
L 138.487268 218.828111 
L 147.684578 208.214406 
L 156.881888 204.289975 
L 166.079198 198.204695 
L 175.276507 196.22018 
L 184.473817 191.950158 
L 193.671127 185.074935 
L 202.868437 181.171737 
L 212.065747 172.950942 
L 221.263057 167.747935 
L 230.460366 165.310766 
L 239.657676 161.273767 
L 248.854986 155.150053 
L 258.052296 149.230119 
L 267.249606 142.39836 
L 276.446916 140.081982 
L 285.644225 137.368001 
L 294.841535 132.065125 
L 304.038845 132.704532 
L 313.236155 127.700387 
L 322.433465 123.405678 
L 331.630775 125.032968 
L 340.828084 124.854996 
L 350.025394 123.397759 
L 359.222704 115.408028 
L 368.420014 117.757927 
L 377.617324 115.244161 
L 386.814634 114.606365 
L 396.011943 112.959132 
L 405.209253 110.017125 
L 414.406563 110.177832 
L 423.603873 106.644603 
L 432.801183 108.523643 
L 441.998493 104.083214 
L 451.195802 103.889546 
L 460.393112 105.006744 
L 469.590422 103.118325 
L 478.787732 103.024272 
L 487.985042 97.321715 
L 497.182352 98.4036 
L 506.379661 94.642956 
L 515.576971 95.004724 
L 524.774281 93.039432 
L 533.971591 94.582466 
L 533.971591 84.980154 
L 533.971591 84.980154 
L 524.774281 85.137802 
L 515.576971 86.73493 
L 506.379661 89.273732 
L 497.182352 88.679684 
L 487.985042 89.365743 
L 478.787732 92.767148 
L 469.590422 96.037603 
L 460.393112 92.96171 
L 451.195802 98.630888 
L 441.998493 97.843484 
L 432.801183 100.329982 
L 423.603873 99.636163 
L 414.406563 100.852827 
L 405.209253 106.555076 
L 396.011943 107.175489 
L 386.814634 105.528255 
L 377.617324 102.317601 
L 368.420014 106.928675 
L 359.222704 108.684837 
L 350.025394 113.163574 
L 340.828084 115.070845 
L 331.630775 114.497048 
L 322.433465 118.697197 
L 313.236155 125.089746 
L 304.038845 123.648021 
L 294.841535 125.079077 
L 285.644225 131.255109 
L 276.446916 134.676406 
L 267.249606 135.328711 
L 258.052296 139.382123 
L 248.854986 145.930658 
L 239.657676 154.650358 
L 230.460366 157.738199 
L 221.263057 163.217518 
L 212.065747 165.535174 
L 202.868437 172.949444 
L 193.671127 176.171085 
L 184.473817 185.326749 
L 175.276507 191.348162 
L 166.079198 193.717715 
L 156.881888 196.538484 
L 147.684578 200.332629 
L 138.487268 210.301793 
L 129.289958 216.89075 
L 120.092648 231.445754 
L 110.895339 239.730084 
L 101.698029 254.776699 
L 92.500719 276.264296 
L 83.303409 316.34405 
z
" style="fill:#2ca02c;fill-opacity:0.5;"/>
   </g>
   <g id="PolyCollection_4">
    <path clip-path="url(#p5e9f18d7c9)" d="M 83.303409 350.781915 
L 83.303409 359.238244 
L 92.500719 281.359874 
L 101.698029 252.499737 
L 110.895339 236.200231 
L 120.092648 224.254048 
L 129.289958 216.025502 
L 138.487268 202.045751 
L 147.684578 196.276493 
L 156.881888 190.461918 
L 166.079198 181.724671 
L 175.276507 175.306229 
L 184.473817 166.872243 
L 193.671127 163.297287 
L 202.868437 156.297796 
L 212.065747 152.062537 
L 221.263057 148.987805 
L 230.460366 146.60633 
L 239.657676 145.194625 
L 248.854986 145.164427 
L 258.052296 143.118535 
L 267.249606 144.771978 
L 276.446916 144.873675 
L 285.644225 144.591994 
L 294.841535 148.862131 
L 304.038845 153.003133 
L 313.236155 150.71528 
L 322.433465 148.892241 
L 331.630775 152.788659 
L 340.828084 154.286548 
L 350.025394 157.847605 
L 359.222704 155.355998 
L 368.420014 155.267018 
L 377.617324 155.203486 
L 386.814634 154.321706 
L 396.011943 159.511907 
L 405.209253 160.682477 
L 414.406563 159.622509 
L 423.603873 156.144589 
L 432.801183 158.792924 
L 441.998493 156.439436 
L 451.195802 161.136374 
L 460.393112 159.968755 
L 469.590422 158.860624 
L 478.787732 159.32292 
L 487.985042 163.759749 
L 497.182352 166.225563 
L 506.379661 162.592436 
L 515.576971 161.881665 
L 524.774281 164.323693 
L 533.971591 160.354124 
L 533.971591 145.734161 
L 533.971591 145.734161 
L 524.774281 148.831641 
L 515.576971 145.066548 
L 506.379661 148.452165 
L 497.182352 148.665263 
L 487.985042 148.332401 
L 478.787732 146.390123 
L 469.590422 143.14691 
L 460.393112 142.711086 
L 451.195802 141.387116 
L 441.998493 141.065199 
L 432.801183 141.526022 
L 423.603873 140.781549 
L 414.406563 145.277511 
L 405.209253 144.842946 
L 396.011943 140.525608 
L 386.814634 139.899565 
L 377.617324 138.392383 
L 368.420014 134.388815 
L 359.222704 136.144773 
L 350.025394 134.294203 
L 340.828084 136.541915 
L 331.630775 131.598158 
L 322.433465 135.009889 
L 313.236155 132.264381 
L 304.038845 132.337423 
L 294.841535 133.398317 
L 285.644225 131.508239 
L 276.446916 133.681263 
L 267.249606 133.110652 
L 258.052296 134.701554 
L 248.854986 135.219813 
L 239.657676 137.847576 
L 230.460366 141.517267 
L 221.263057 145.045846 
L 212.065747 148.647286 
L 202.868437 152.182654 
L 193.671127 156.018262 
L 184.473817 161.714899 
L 175.276507 167.602631 
L 166.079198 175.787339 
L 156.881888 181.293636 
L 147.684578 190.332371 
L 138.487268 199.541504 
L 129.289958 206.82544 
L 120.092648 215.889274 
L 110.895339 229.303165 
L 101.698029 243.398223 
L 92.500719 272.028216 
L 83.303409 350.781915 
z
" style="fill:#d62728;fill-opacity:0.5;"/>
   </g>
   <g id="matplotlib.axis_1">
    <g id="xtick_1">
     <g id="line2d_1">
      <defs>
       <path d="M 0 0 
L 0 3.5 
" id="m9ebf1730c5" style="stroke:#000000;stroke-width:0.8;"/>
      </defs>
      <g>
       <use style="stroke:#000000;stroke-width:0.8;" x="83.303409" xlink:href="#m9ebf1730c5" y="376"/>
      </g>
     </g>
     <g id="text_1">
      <!-- 0 -->
      <g transform="translate(78.531534 394.397656)scale(0.15 -0.15)">
       <defs>
        <path d="M 2034 4250 
Q 1547 4250 1301 3770 
Q 1056 3291 1056 2328 
Q 1056 1369 1301 889 
Q 1547 409 2034 409 
Q 2525 409 2770 889 
Q 3016 1369 3016 2328 
Q 3016 3291 2770 3770 
Q 2525 4250 2034 4250 
z
M 2034 4750 
Q 2819 4750 3233 4129 
Q 3647 3509 3647 2328 
Q 3647 1150 3233 529 
Q 2819 -91 2034 -91 
Q 1250 -91 836 529 
Q 422 1150 422 2328 
Q 422 3509 836 4129 
Q 1250 4750 2034 4750 
z
" id="DejaVuSans-30" transform="scale(0.015625)"/>
       </defs>
       <use xlink:href="#DejaVuSans-30"/>
      </g>
     </g>
    </g>
    <g id="xtick_2">
     <g id="line2d_2">
      <g>
       <use style="stroke:#000000;stroke-width:0.8;" x="175.276507" xlink:href="#m9ebf1730c5" y="376"/>
      </g>
     </g>
     <g id="text_2">
      <!-- 10 -->
      <g transform="translate(165.732757 394.397656)scale(0.15 -0.15)">
       <defs>
        <path d="M 794 531 
L 1825 531 
L 1825 4091 
L 703 3866 
L 703 4441 
L 1819 4666 
L 2450 4666 
L 2450 531 
L 3481 531 
L 3481 0 
L 794 0 
L 794 531 
z
" id="DejaVuSans-31" transform="scale(0.015625)"/>
       </defs>
       <use xlink:href="#DejaVuSans-31"/>
       <use x="63.623047" xlink:href="#DejaVuSans-30"/>
      </g>
     </g>
    </g>
    <g id="xtick_3">
     <g id="line2d_3">
      <g>
       <use style="stroke:#000000;stroke-width:0.8;" x="267.249606" xlink:href="#m9ebf1730c5" y="376"/>
      </g>
     </g>
     <g id="text_3">
      <!-- 20 -->
      <g transform="translate(257.705856 394.397656)scale(0.15 -0.15)">
       <defs>
        <path d="M 1228 531 
L 3431 531 
L 3431 0 
L 469 0 
L 469 531 
Q 828 903 1448 1529 
Q 2069 2156 2228 2338 
Q 2531 2678 2651 2914 
Q 2772 3150 2772 3378 
Q 2772 3750 2511 3984 
Q 2250 4219 1831 4219 
Q 1534 4219 1204 4116 
Q 875 4013 500 3803 
L 500 4441 
Q 881 4594 1212 4672 
Q 1544 4750 1819 4750 
Q 2544 4750 2975 4387 
Q 3406 4025 3406 3419 
Q 3406 3131 3298 2873 
Q 3191 2616 2906 2266 
Q 2828 2175 2409 1742 
Q 1991 1309 1228 531 
z
" id="DejaVuSans-32" transform="scale(0.015625)"/>
       </defs>
       <use xlink:href="#DejaVuSans-32"/>
       <use x="63.623047" xlink:href="#DejaVuSans-30"/>
      </g>
     </g>
    </g>
    <g id="xtick_4">
     <g id="line2d_4">
      <g>
       <use style="stroke:#000000;stroke-width:0.8;" x="359.222704" xlink:href="#m9ebf1730c5" y="376"/>
      </g>
     </g>
     <g id="text_4">
      <!-- 30 -->
      <g transform="translate(349.678954 394.397656)scale(0.15 -0.15)">
       <defs>
        <path d="M 2597 2516 
Q 3050 2419 3304 2112 
Q 3559 1806 3559 1356 
Q 3559 666 3084 287 
Q 2609 -91 1734 -91 
Q 1441 -91 1130 -33 
Q 819 25 488 141 
L 488 750 
Q 750 597 1062 519 
Q 1375 441 1716 441 
Q 2309 441 2620 675 
Q 2931 909 2931 1356 
Q 2931 1769 2642 2001 
Q 2353 2234 1838 2234 
L 1294 2234 
L 1294 2753 
L 1863 2753 
Q 2328 2753 2575 2939 
Q 2822 3125 2822 3475 
Q 2822 3834 2567 4026 
Q 2313 4219 1838 4219 
Q 1578 4219 1281 4162 
Q 984 4106 628 3988 
L 628 4550 
Q 988 4650 1302 4700 
Q 1616 4750 1894 4750 
Q 2613 4750 3031 4423 
Q 3450 4097 3450 3541 
Q 3450 3153 3228 2886 
Q 3006 2619 2597 2516 
z
" id="DejaVuSans-33" transform="scale(0.015625)"/>
       </defs>
       <use xlink:href="#DejaVuSans-33"/>
       <use x="63.623047" xlink:href="#DejaVuSans-30"/>
      </g>
     </g>
    </g>
    <g id="xtick_5">
     <g id="line2d_5">
      <g>
       <use style="stroke:#000000;stroke-width:0.8;" x="451.195802" xlink:href="#m9ebf1730c5" y="376"/>
      </g>
     </g>
     <g id="text_5">
      <!-- 40 -->
      <g transform="translate(441.652052 394.397656)scale(0.15 -0.15)">
       <defs>
        <path d="M 2419 4116 
L 825 1625 
L 2419 1625 
L 2419 4116 
z
M 2253 4666 
L 3047 4666 
L 3047 1625 
L 3713 1625 
L 3713 1100 
L 3047 1100 
L 3047 0 
L 2419 0 
L 2419 1100 
L 313 1100 
L 313 1709 
L 2253 4666 
z
" id="DejaVuSans-34" transform="scale(0.015625)"/>
       </defs>
       <use xlink:href="#DejaVuSans-34"/>
       <use x="63.623047" xlink:href="#DejaVuSans-30"/>
      </g>
     </g>
    </g>
    <g id="xtick_6">
     <g id="line2d_6">
      <g>
       <use style="stroke:#000000;stroke-width:0.8;" x="543.168901" xlink:href="#m9ebf1730c5" y="376"/>
      </g>
     </g>
     <g id="text_6">
      <!-- 50 -->
      <g transform="translate(533.625151 394.397656)scale(0.15 -0.15)">
       <defs>
        <path d="M 691 4666 
L 3169 4666 
L 3169 4134 
L 1269 4134 
L 1269 2991 
Q 1406 3038 1543 3061 
Q 1681 3084 1819 3084 
Q 2600 3084 3056 2656 
Q 3513 2228 3513 1497 
Q 3513 744 3044 326 
Q 2575 -91 1722 -91 
Q 1428 -91 1123 -41 
Q 819 9 494 109 
L 494 744 
Q 775 591 1075 516 
Q 1375 441 1709 441 
Q 2250 441 2565 725 
Q 2881 1009 2881 1497 
Q 2881 1984 2565 2268 
Q 2250 2553 1709 2553 
Q 1456 2553 1204 2497 
Q 953 2441 691 2322 
L 691 4666 
z
" id="DejaVuSans-35" transform="scale(0.015625)"/>
       </defs>
       <use xlink:href="#DejaVuSans-35"/>
       <use x="63.623047" xlink:href="#DejaVuSans-30"/>
      </g>
     </g>
    </g>
    <g id="text_7">
     <!-- Global Communication Rounds -->
     <g transform="translate(193.194922 412.914844)scale(0.15 -0.15)">
      <defs>
       <path d="M 3809 666 
L 3809 1919 
L 2778 1919 
L 2778 2438 
L 4434 2438 
L 4434 434 
Q 4069 175 3628 42 
Q 3188 -91 2688 -91 
Q 1594 -91 976 548 
Q 359 1188 359 2328 
Q 359 3472 976 4111 
Q 1594 4750 2688 4750 
Q 3144 4750 3555 4637 
Q 3966 4525 4313 4306 
L 4313 3634 
Q 3963 3931 3569 4081 
Q 3175 4231 2741 4231 
Q 1884 4231 1454 3753 
Q 1025 3275 1025 2328 
Q 1025 1384 1454 906 
Q 1884 428 2741 428 
Q 3075 428 3337 486 
Q 3600 544 3809 666 
z
" id="DejaVuSans-47" transform="scale(0.015625)"/>
       <path d="M 603 4863 
L 1178 4863 
L 1178 0 
L 603 0 
L 603 4863 
z
" id="DejaVuSans-6c" transform="scale(0.015625)"/>
       <path d="M 1959 3097 
Q 1497 3097 1228 2736 
Q 959 2375 959 1747 
Q 959 1119 1226 758 
Q 1494 397 1959 397 
Q 2419 397 2687 759 
Q 2956 1122 2956 1747 
Q 2956 2369 2687 2733 
Q 2419 3097 1959 3097 
z
M 1959 3584 
Q 2709 3584 3137 3096 
Q 3566 2609 3566 1747 
Q 3566 888 3137 398 
Q 2709 -91 1959 -91 
Q 1206 -91 779 398 
Q 353 888 353 1747 
Q 353 2609 779 3096 
Q 1206 3584 1959 3584 
z
" id="DejaVuSans-6f" transform="scale(0.015625)"/>
       <path d="M 3116 1747 
Q 3116 2381 2855 2742 
Q 2594 3103 2138 3103 
Q 1681 3103 1420 2742 
Q 1159 2381 1159 1747 
Q 1159 1113 1420 752 
Q 1681 391 2138 391 
Q 2594 391 2855 752 
Q 3116 1113 3116 1747 
z
M 1159 2969 
Q 1341 3281 1617 3432 
Q 1894 3584 2278 3584 
Q 2916 3584 3314 3078 
Q 3713 2572 3713 1747 
Q 3713 922 3314 415 
Q 2916 -91 2278 -91 
Q 1894 -91 1617 61 
Q 1341 213 1159 525 
L 1159 0 
L 581 0 
L 581 4863 
L 1159 4863 
L 1159 2969 
z
" id="DejaVuSans-62" transform="scale(0.015625)"/>
       <path d="M 2194 1759 
Q 1497 1759 1228 1600 
Q 959 1441 959 1056 
Q 959 750 1161 570 
Q 1363 391 1709 391 
Q 2188 391 2477 730 
Q 2766 1069 2766 1631 
L 2766 1759 
L 2194 1759 
z
M 3341 1997 
L 3341 0 
L 2766 0 
L 2766 531 
Q 2569 213 2275 61 
Q 1981 -91 1556 -91 
Q 1019 -91 701 211 
Q 384 513 384 1019 
Q 384 1609 779 1909 
Q 1175 2209 1959 2209 
L 2766 2209 
L 2766 2266 
Q 2766 2663 2505 2880 
Q 2244 3097 1772 3097 
Q 1472 3097 1187 3025 
Q 903 2953 641 2809 
L 641 3341 
Q 956 3463 1253 3523 
Q 1550 3584 1831 3584 
Q 2591 3584 2966 3190 
Q 3341 2797 3341 1997 
z
" id="DejaVuSans-61" transform="scale(0.015625)"/>
       <path id="DejaVuSans-20" transform="scale(0.015625)"/>
       <path d="M 4122 4306 
L 4122 3641 
Q 3803 3938 3442 4084 
Q 3081 4231 2675 4231 
Q 1875 4231 1450 3742 
Q 1025 3253 1025 2328 
Q 1025 1406 1450 917 
Q 1875 428 2675 428 
Q 3081 428 3442 575 
Q 3803 722 4122 1019 
L 4122 359 
Q 3791 134 3420 21 
Q 3050 -91 2638 -91 
Q 1578 -91 968 557 
Q 359 1206 359 2328 
Q 359 3453 968 4101 
Q 1578 4750 2638 4750 
Q 3056 4750 3426 4639 
Q 3797 4528 4122 4306 
z
" id="DejaVuSans-43" transform="scale(0.015625)"/>
       <path d="M 3328 2828 
Q 3544 3216 3844 3400 
Q 4144 3584 4550 3584 
Q 5097 3584 5394 3201 
Q 5691 2819 5691 2113 
L 5691 0 
L 5113 0 
L 5113 2094 
Q 5113 2597 4934 2840 
Q 4756 3084 4391 3084 
Q 3944 3084 3684 2787 
Q 3425 2491 3425 1978 
L 3425 0 
L 2847 0 
L 2847 2094 
Q 2847 2600 2669 2842 
Q 2491 3084 2119 3084 
Q 1678 3084 1418 2786 
Q 1159 2488 1159 1978 
L 1159 0 
L 581 0 
L 581 3500 
L 1159 3500 
L 1159 2956 
Q 1356 3278 1631 3431 
Q 1906 3584 2284 3584 
Q 2666 3584 2933 3390 
Q 3200 3197 3328 2828 
z
" id="DejaVuSans-6d" transform="scale(0.015625)"/>
       <path d="M 544 1381 
L 544 3500 
L 1119 3500 
L 1119 1403 
Q 1119 906 1312 657 
Q 1506 409 1894 409 
Q 2359 409 2629 706 
Q 2900 1003 2900 1516 
L 2900 3500 
L 3475 3500 
L 3475 0 
L 2900 0 
L 2900 538 
Q 2691 219 2414 64 
Q 2138 -91 1772 -91 
Q 1169 -91 856 284 
Q 544 659 544 1381 
z
M 1991 3584 
L 1991 3584 
z
" id="DejaVuSans-75" transform="scale(0.015625)"/>
       <path d="M 3513 2113 
L 3513 0 
L 2938 0 
L 2938 2094 
Q 2938 2591 2744 2837 
Q 2550 3084 2163 3084 
Q 1697 3084 1428 2787 
Q 1159 2491 1159 1978 
L 1159 0 
L 581 0 
L 581 3500 
L 1159 3500 
L 1159 2956 
Q 1366 3272 1645 3428 
Q 1925 3584 2291 3584 
Q 2894 3584 3203 3211 
Q 3513 2838 3513 2113 
z
" id="DejaVuSans-6e" transform="scale(0.015625)"/>
       <path d="M 603 3500 
L 1178 3500 
L 1178 0 
L 603 0 
L 603 3500 
z
M 603 4863 
L 1178 4863 
L 1178 4134 
L 603 4134 
L 603 4863 
z
" id="DejaVuSans-69" transform="scale(0.015625)"/>
       <path d="M 3122 3366 
L 3122 2828 
Q 2878 2963 2633 3030 
Q 2388 3097 2138 3097 
Q 1578 3097 1268 2742 
Q 959 2388 959 1747 
Q 959 1106 1268 751 
Q 1578 397 2138 397 
Q 2388 397 2633 464 
Q 2878 531 3122 666 
L 3122 134 
Q 2881 22 2623 -34 
Q 2366 -91 2075 -91 
Q 1284 -91 818 406 
Q 353 903 353 1747 
Q 353 2603 823 3093 
Q 1294 3584 2113 3584 
Q 2378 3584 2631 3529 
Q 2884 3475 3122 3366 
z
" id="DejaVuSans-63" transform="scale(0.015625)"/>
       <path d="M 1172 4494 
L 1172 3500 
L 2356 3500 
L 2356 3053 
L 1172 3053 
L 1172 1153 
Q 1172 725 1289 603 
Q 1406 481 1766 481 
L 2356 481 
L 2356 0 
L 1766 0 
Q 1100 0 847 248 
Q 594 497 594 1153 
L 594 3053 
L 172 3053 
L 172 3500 
L 594 3500 
L 594 4494 
L 1172 4494 
z
" id="DejaVuSans-74" transform="scale(0.015625)"/>
       <path d="M 2841 2188 
Q 3044 2119 3236 1894 
Q 3428 1669 3622 1275 
L 4263 0 
L 3584 0 
L 2988 1197 
Q 2756 1666 2539 1819 
Q 2322 1972 1947 1972 
L 1259 1972 
L 1259 0 
L 628 0 
L 628 4666 
L 2053 4666 
Q 2853 4666 3247 4331 
Q 3641 3997 3641 3322 
Q 3641 2881 3436 2590 
Q 3231 2300 2841 2188 
z
M 1259 4147 
L 1259 2491 
L 2053 2491 
Q 2509 2491 2742 2702 
Q 2975 2913 2975 3322 
Q 2975 3731 2742 3939 
Q 2509 4147 2053 4147 
L 1259 4147 
z
" id="DejaVuSans-52" transform="scale(0.015625)"/>
       <path d="M 2906 2969 
L 2906 4863 
L 3481 4863 
L 3481 0 
L 2906 0 
L 2906 525 
Q 2725 213 2448 61 
Q 2172 -91 1784 -91 
Q 1150 -91 751 415 
Q 353 922 353 1747 
Q 353 2572 751 3078 
Q 1150 3584 1784 3584 
Q 2172 3584 2448 3432 
Q 2725 3281 2906 2969 
z
M 947 1747 
Q 947 1113 1208 752 
Q 1469 391 1925 391 
Q 2381 391 2643 752 
Q 2906 1113 2906 1747 
Q 2906 2381 2643 2742 
Q 2381 3103 1925 3103 
Q 1469 3103 1208 2742 
Q 947 2381 947 1747 
z
" id="DejaVuSans-64" transform="scale(0.015625)"/>
       <path d="M 2834 3397 
L 2834 2853 
Q 2591 2978 2328 3040 
Q 2066 3103 1784 3103 
Q 1356 3103 1142 2972 
Q 928 2841 928 2578 
Q 928 2378 1081 2264 
Q 1234 2150 1697 2047 
L 1894 2003 
Q 2506 1872 2764 1633 
Q 3022 1394 3022 966 
Q 3022 478 2636 193 
Q 2250 -91 1575 -91 
Q 1294 -91 989 -36 
Q 684 19 347 128 
L 347 722 
Q 666 556 975 473 
Q 1284 391 1588 391 
Q 1994 391 2212 530 
Q 2431 669 2431 922 
Q 2431 1156 2273 1281 
Q 2116 1406 1581 1522 
L 1381 1569 
Q 847 1681 609 1914 
Q 372 2147 372 2553 
Q 372 3047 722 3315 
Q 1072 3584 1716 3584 
Q 2034 3584 2315 3537 
Q 2597 3491 2834 3397 
z
" id="DejaVuSans-73" transform="scale(0.015625)"/>
      </defs>
      <use xlink:href="#DejaVuSans-47"/>
      <use x="77.490234" xlink:href="#DejaVuSans-6c"/>
      <use x="105.273438" xlink:href="#DejaVuSans-6f"/>
      <use x="166.455078" xlink:href="#DejaVuSans-62"/>
      <use x="229.931641" xlink:href="#DejaVuSans-61"/>
      <use x="291.210938" xlink:href="#DejaVuSans-6c"/>
      <use x="318.994141" xlink:href="#DejaVuSans-20"/>
      <use x="350.78125" xlink:href="#DejaVuSans-43"/>
      <use x="420.605469" xlink:href="#DejaVuSans-6f"/>
      <use x="481.787109" xlink:href="#DejaVuSans-6d"/>
      <use x="579.199219" xlink:href="#DejaVuSans-6d"/>
      <use x="676.611328" xlink:href="#DejaVuSans-75"/>
      <use x="739.990234" xlink:href="#DejaVuSans-6e"/>
      <use x="803.369141" xlink:href="#DejaVuSans-69"/>
      <use x="831.152344" xlink:href="#DejaVuSans-63"/>
      <use x="886.132812" xlink:href="#DejaVuSans-61"/>
      <use x="947.412109" xlink:href="#DejaVuSans-74"/>
      <use x="986.621094" xlink:href="#DejaVuSans-69"/>
      <use x="1014.404297" xlink:href="#DejaVuSans-6f"/>
      <use x="1075.585938" xlink:href="#DejaVuSans-6e"/>
      <use x="1138.964844" xlink:href="#DejaVuSans-20"/>
      <use x="1170.751953" xlink:href="#DejaVuSans-52"/>
      <use x="1235.734375" xlink:href="#DejaVuSans-6f"/>
      <use x="1296.916016" xlink:href="#DejaVuSans-75"/>
      <use x="1360.294922" xlink:href="#DejaVuSans-6e"/>
      <use x="1423.673828" xlink:href="#DejaVuSans-64"/>
      <use x="1487.150391" xlink:href="#DejaVuSans-73"/>
     </g>
    </g>
   </g>
   <g id="matplotlib.axis_2">
    <g id="ytick_1">
     <g id="line2d_7">
      <defs>
       <path d="M 0 0 
L -3.5 0 
" id="mb9c7c9c3fb" style="stroke:#000000;stroke-width:0.8;"/>
      </defs>
      <g>
       <use style="stroke:#000000;stroke-width:0.8;" x="60.77" xlink:href="#mb9c7c9c3fb" y="358.348166"/>
      </g>
     </g>
     <g id="text_8">
      <!-- 10 -->
      <g transform="translate(34.6825 364.046994)scale(0.15 -0.15)">
       <use xlink:href="#DejaVuSans-31"/>
       <use x="63.623047" xlink:href="#DejaVuSans-30"/>
      </g>
     </g>
    </g>
    <g id="ytick_2">
     <g id="line2d_8">
      <g>
       <use style="stroke:#000000;stroke-width:0.8;" x="60.77" xlink:href="#mb9c7c9c3fb" y="319.260506"/>
      </g>
     </g>
     <g id="text_9">
      <!-- 20 -->
      <g transform="translate(34.6825 324.959334)scale(0.15 -0.15)">
       <use xlink:href="#DejaVuSans-32"/>
       <use x="63.623047" xlink:href="#DejaVuSans-30"/>
      </g>
     </g>
    </g>
    <g id="ytick_3">
     <g id="line2d_9">
      <g>
       <use style="stroke:#000000;stroke-width:0.8;" x="60.77" xlink:href="#mb9c7c9c3fb" y="280.172847"/>
      </g>
     </g>
     <g id="text_10">
      <!-- 30 -->
      <g transform="translate(34.6825 285.871675)scale(0.15 -0.15)">
       <use xlink:href="#DejaVuSans-33"/>
       <use x="63.623047" xlink:href="#DejaVuSans-30"/>
      </g>
     </g>
    </g>
    <g id="ytick_4">
     <g id="line2d_10">
      <g>
       <use style="stroke:#000000;stroke-width:0.8;" x="60.77" xlink:href="#mb9c7c9c3fb" y="241.085187"/>
      </g>
     </g>
     <g id="text_11">
      <!-- 40 -->
      <g transform="translate(34.6825 246.784015)scale(0.15 -0.15)">
       <use xlink:href="#DejaVuSans-34"/>
       <use x="63.623047" xlink:href="#DejaVuSans-30"/>
      </g>
     </g>
    </g>
    <g id="ytick_5">
     <g id="line2d_11">
      <g>
       <use style="stroke:#000000;stroke-width:0.8;" x="60.77" xlink:href="#mb9c7c9c3fb" y="201.997527"/>
      </g>
     </g>
     <g id="text_12">
      <!-- 50 -->
      <g transform="translate(34.6825 207.696356)scale(0.15 -0.15)">
       <use xlink:href="#DejaVuSans-35"/>
       <use x="63.623047" xlink:href="#DejaVuSans-30"/>
      </g>
     </g>
    </g>
    <g id="ytick_6">
     <g id="line2d_12">
      <g>
       <use style="stroke:#000000;stroke-width:0.8;" x="60.77" xlink:href="#mb9c7c9c3fb" y="162.909868"/>
      </g>
     </g>
     <g id="text_13">
      <!-- 60 -->
      <g transform="translate(34.6825 168.608696)scale(0.15 -0.15)">
       <defs>
        <path d="M 2113 2584 
Q 1688 2584 1439 2293 
Q 1191 2003 1191 1497 
Q 1191 994 1439 701 
Q 1688 409 2113 409 
Q 2538 409 2786 701 
Q 3034 994 3034 1497 
Q 3034 2003 2786 2293 
Q 2538 2584 2113 2584 
z
M 3366 4563 
L 3366 3988 
Q 3128 4100 2886 4159 
Q 2644 4219 2406 4219 
Q 1781 4219 1451 3797 
Q 1122 3375 1075 2522 
Q 1259 2794 1537 2939 
Q 1816 3084 2150 3084 
Q 2853 3084 3261 2657 
Q 3669 2231 3669 1497 
Q 3669 778 3244 343 
Q 2819 -91 2113 -91 
Q 1303 -91 875 529 
Q 447 1150 447 2328 
Q 447 3434 972 4092 
Q 1497 4750 2381 4750 
Q 2619 4750 2861 4703 
Q 3103 4656 3366 4563 
z
" id="DejaVuSans-36" transform="scale(0.015625)"/>
       </defs>
       <use xlink:href="#DejaVuSans-36"/>
       <use x="63.623047" xlink:href="#DejaVuSans-30"/>
      </g>
     </g>
    </g>
    <g id="ytick_7">
     <g id="line2d_13">
      <g>
       <use style="stroke:#000000;stroke-width:0.8;" x="60.77" xlink:href="#mb9c7c9c3fb" y="123.822208"/>
      </g>
     </g>
     <g id="text_14">
      <!-- 70 -->
      <g transform="translate(34.6825 129.521036)scale(0.15 -0.15)">
       <defs>
        <path d="M 525 4666 
L 3525 4666 
L 3525 4397 
L 1831 0 
L 1172 0 
L 2766 4134 
L 525 4134 
L 525 4666 
z
" id="DejaVuSans-37" transform="scale(0.015625)"/>
       </defs>
       <use xlink:href="#DejaVuSans-37"/>
       <use x="63.623047" xlink:href="#DejaVuSans-30"/>
      </g>
     </g>
    </g>
    <g id="ytick_8">
     <g id="line2d_14">
      <g>
       <use style="stroke:#000000;stroke-width:0.8;" x="60.77" xlink:href="#mb9c7c9c3fb" y="84.734549"/>
      </g>
     </g>
     <g id="text_15">
      <!-- 80 -->
      <g transform="translate(34.6825 90.433377)scale(0.15 -0.15)">
       <defs>
        <path d="M 2034 2216 
Q 1584 2216 1326 1975 
Q 1069 1734 1069 1313 
Q 1069 891 1326 650 
Q 1584 409 2034 409 
Q 2484 409 2743 651 
Q 3003 894 3003 1313 
Q 3003 1734 2745 1975 
Q 2488 2216 2034 2216 
z
M 1403 2484 
Q 997 2584 770 2862 
Q 544 3141 544 3541 
Q 544 4100 942 4425 
Q 1341 4750 2034 4750 
Q 2731 4750 3128 4425 
Q 3525 4100 3525 3541 
Q 3525 3141 3298 2862 
Q 3072 2584 2669 2484 
Q 3125 2378 3379 2068 
Q 3634 1759 3634 1313 
Q 3634 634 3220 271 
Q 2806 -91 2034 -91 
Q 1263 -91 848 271 
Q 434 634 434 1313 
Q 434 1759 690 2068 
Q 947 2378 1403 2484 
z
M 1172 3481 
Q 1172 3119 1398 2916 
Q 1625 2713 2034 2713 
Q 2441 2713 2670 2916 
Q 2900 3119 2900 3481 
Q 2900 3844 2670 4047 
Q 2441 4250 2034 4250 
Q 1625 4250 1398 4047 
Q 1172 3844 1172 3481 
z
" id="DejaVuSans-38" transform="scale(0.015625)"/>
       </defs>
       <use xlink:href="#DejaVuSans-38"/>
       <use x="63.623047" xlink:href="#DejaVuSans-30"/>
      </g>
     </g>
    </g>
    <g id="text_16">
     <!-- Test Accuracy -->
     <g transform="translate(27.562969 267.694744)rotate(-90)scale(0.15 -0.15)">
      <defs>
       <path d="M -19 4666 
L 3928 4666 
L 3928 4134 
L 2272 4134 
L 2272 0 
L 1638 0 
L 1638 4134 
L -19 4134 
L -19 4666 
z
" id="DejaVuSans-54" transform="scale(0.015625)"/>
       <path d="M 3597 1894 
L 3597 1613 
L 953 1613 
Q 991 1019 1311 708 
Q 1631 397 2203 397 
Q 2534 397 2845 478 
Q 3156 559 3463 722 
L 3463 178 
Q 3153 47 2828 -22 
Q 2503 -91 2169 -91 
Q 1331 -91 842 396 
Q 353 884 353 1716 
Q 353 2575 817 3079 
Q 1281 3584 2069 3584 
Q 2775 3584 3186 3129 
Q 3597 2675 3597 1894 
z
M 3022 2063 
Q 3016 2534 2758 2815 
Q 2500 3097 2075 3097 
Q 1594 3097 1305 2825 
Q 1016 2553 972 2059 
L 3022 2063 
z
" id="DejaVuSans-65" transform="scale(0.015625)"/>
       <path d="M 2188 4044 
L 1331 1722 
L 3047 1722 
L 2188 4044 
z
M 1831 4666 
L 2547 4666 
L 4325 0 
L 3669 0 
L 3244 1197 
L 1141 1197 
L 716 0 
L 50 0 
L 1831 4666 
z
" id="DejaVuSans-41" transform="scale(0.015625)"/>
       <path d="M 2631 2963 
Q 2534 3019 2420 3045 
Q 2306 3072 2169 3072 
Q 1681 3072 1420 2755 
Q 1159 2438 1159 1844 
L 1159 0 
L 581 0 
L 581 3500 
L 1159 3500 
L 1159 2956 
Q 1341 3275 1631 3429 
Q 1922 3584 2338 3584 
Q 2397 3584 2469 3576 
Q 2541 3569 2628 3553 
L 2631 2963 
z
" id="DejaVuSans-72" transform="scale(0.015625)"/>
       <path d="M 2059 -325 
Q 1816 -950 1584 -1140 
Q 1353 -1331 966 -1331 
L 506 -1331 
L 506 -850 
L 844 -850 
Q 1081 -850 1212 -737 
Q 1344 -625 1503 -206 
L 1606 56 
L 191 3500 
L 800 3500 
L 1894 763 
L 2988 3500 
L 3597 3500 
L 2059 -325 
z
" id="DejaVuSans-79" transform="scale(0.015625)"/>
      </defs>
      <use xlink:href="#DejaVuSans-54"/>
      <use x="44.083984" xlink:href="#DejaVuSans-65"/>
      <use x="105.607422" xlink:href="#DejaVuSans-73"/>
      <use x="157.707031" xlink:href="#DejaVuSans-74"/>
      <use x="196.916016" xlink:href="#DejaVuSans-20"/>
      <use x="228.703125" xlink:href="#DejaVuSans-41"/>
      <use x="295.361328" xlink:href="#DejaVuSans-63"/>
      <use x="350.341797" xlink:href="#DejaVuSans-63"/>
      <use x="405.322266" xlink:href="#DejaVuSans-75"/>
      <use x="468.701172" xlink:href="#DejaVuSans-72"/>
      <use x="509.814453" xlink:href="#DejaVuSans-61"/>
      <use x="571.09375" xlink:href="#DejaVuSans-63"/>
      <use x="626.074219" xlink:href="#DejaVuSans-79"/>
     </g>
    </g>
   </g>
   <g id="line2d_15">
    <path clip-path="url(#p5e9f18d7c9)" d="M 83.303409 340.635024 
L 92.500719 269.089763 
L 101.698029 246.923597 
L 110.895339 229.507323 
L 120.092648 220.997099 
L 129.289958 209.221323 
L 138.487268 203.086044 
L 147.684578 195.466425 
L 156.881888 190.914444 
L 166.079198 178.8418 
L 175.276507 172.013829 
L 184.473817 163.10778 
L 193.671127 157.071458 
L 202.868437 149.748706 
L 212.065747 144.504033 
L 221.263057 138.962492 
L 230.460366 137.676062 
L 239.657676 133.91573 
L 248.854986 131.540784 
L 258.052296 130.353311 
L 267.249606 125.108638 
L 276.446916 122.040998 
L 285.644225 118.676491 
L 294.841535 117.489018 
L 304.038845 114.025554 
L 313.236155 111.650608 
L 322.433465 109.869398 
L 331.630775 105.020549 
L 340.828084 105.614286 
L 350.025394 102.447691 
L 359.222704 99.67692 
L 368.420014 97.89571 
L 377.617324 96.807193 
L 386.814634 93.937466 
L 396.011943 90.770871 
L 405.209253 91.760432 
L 414.406563 90.375046 
L 423.603873 88.593837 
L 432.801183 86.911583 
L 441.998493 85.72411 
L 451.195802 87.406363 
L 460.393112 83.349163 
L 469.590422 83.151251 
L 478.787732 80.677349 
L 487.985042 78.698227 
L 497.182352 79.687788 
L 506.379661 80.182568 
L 515.576971 77.510753 
L 524.774281 76.521192 
L 533.971591 74.641026 
" style="fill:none;stroke:#1f77b4;stroke-linecap:square;stroke-width:1.5;"/>
   </g>
   <g id="line2d_16">
    <path clip-path="url(#p5e9f18d7c9)" d="M 83.303409 353.301405 
L 92.500719 274.631305 
L 101.698029 251.079753 
L 110.895339 237.621723 
L 120.092648 224.856387 
L 129.289958 213.179567 
L 138.487268 206.549508 
L 147.684578 200.612142 
L 156.881888 199.919449 
L 166.079198 189.034278 
L 175.276507 183.987517 
L 184.473817 175.477293 
L 193.671127 169.836795 
L 202.868437 156.477721 
L 212.065747 152.123653 
L 221.263057 146.483155 
L 230.460366 142.821779 
L 239.657676 140.941614 
L 248.854986 136.488589 
L 258.052296 132.827213 
L 267.249606 129.957486 
L 276.446916 126.098199 
L 285.644225 123.129516 
L 294.841535 119.863964 
L 304.038845 118.181711 
L 313.236155 116.004676 
L 322.433465 114.025554 
L 331.630775 108.187144 
L 340.828084 108.780881 
L 350.025394 108.2861 
L 359.222704 102.249778 
L 368.420014 104.624725 
L 377.617324 101.754998 
L 386.814634 103.239339 
L 396.011943 98.093622 
L 405.209253 99.874832 
L 414.406563 96.510325 
L 423.603873 94.927027 
L 432.801183 95.718676 
L 441.998493 91.760432 
L 451.195802 92.354168 
L 460.393112 91.364607 
L 469.590422 93.343729 
L 478.787732 89.979222 
L 487.985042 89.880266 
L 497.182352 87.802188 
L 506.379661 86.020978 
L 515.576971 86.614715 
L 524.774281 83.349163 
L 533.971591 84.932461 
" style="fill:none;stroke:#ff7f0e;stroke-linecap:square;stroke-width:1.5;"/>
   </g>
   <g id="line2d_17">
    <path clip-path="url(#p5e9f18d7c9)" d="M 83.303409 334.598702 
L 92.500719 281.954056 
L 101.698029 257.5119 
L 110.895339 243.757002 
L 120.092648 236.038426 
L 129.289958 220.601274 
L 138.487268 214.564952 
L 147.684578 204.273518 
L 156.881888 200.41423 
L 166.079198 195.961205 
L 175.276507 193.784171 
L 184.473817 188.638454 
L 193.671127 180.62301 
L 202.868437 177.06059 
L 212.065747 169.243058 
L 221.263057 165.482726 
L 230.460366 161.524482 
L 239.657676 157.962063 
L 248.854986 150.540355 
L 258.052296 144.306121 
L 267.249606 138.863535 
L 276.446916 137.379194 
L 285.644225 134.311555 
L 294.841535 128.572101 
L 304.038845 128.176277 
L 313.236155 126.395067 
L 322.433465 121.051437 
L 331.630775 119.765008 
L 340.828084 119.96292 
L 350.025394 118.280667 
L 359.222704 112.046432 
L 368.420014 112.343301 
L 377.617324 108.780881 
L 386.814634 110.06731 
L 396.011943 110.06731 
L 405.209253 108.2861 
L 414.406563 105.51533 
L 423.603873 103.140383 
L 432.801183 104.426813 
L 441.998493 100.963349 
L 451.195802 101.260217 
L 460.393112 98.984227 
L 469.590422 99.577964 
L 478.787732 97.89571 
L 487.985042 93.343729 
L 497.182352 93.541642 
L 506.379661 91.958344 
L 515.576971 90.869827 
L 524.774281 89.088617 
L 533.971591 89.78131 
" style="fill:none;stroke:#2ca02c;stroke-linecap:square;stroke-width:1.5;"/>
   </g>
   <g id="line2d_18">
    <path clip-path="url(#p5e9f18d7c9)" d="M 83.303409 355.01008 
L 92.500719 276.694045 
L 101.698029 247.94898 
L 110.895339 232.751698 
L 120.092648 220.071661 
L 129.289958 211.425471 
L 138.487268 200.793627 
L 147.684578 193.304432 
L 156.881888 185.877777 
L 166.079198 178.756005 
L 175.276507 171.45443 
L 184.473817 164.293571 
L 193.671127 159.657775 
L 202.868437 154.240225 
L 212.065747 150.354912 
L 221.263057 147.016825 
L 230.460366 144.061798 
L 239.657676 141.5211 
L 248.854986 140.19212 
L 258.052296 138.910045 
L 267.249606 138.941315 
L 276.446916 139.277469 
L 285.644225 138.050116 
L 294.841535 141.130224 
L 304.038845 142.670278 
L 313.236155 141.48983 
L 322.433465 141.951065 
L 331.630775 142.193408 
L 340.828084 145.414231 
L 350.025394 146.070904 
L 359.222704 145.750385 
L 368.420014 144.827916 
L 377.617324 146.797935 
L 386.814634 147.110636 
L 396.011943 150.018758 
L 405.209253 152.762711 
L 414.406563 152.45001 
L 423.603873 148.463069 
L 432.801183 150.159473 
L 441.998493 148.752318 
L 451.195802 151.261745 
L 460.393112 151.339921 
L 469.590422 151.003767 
L 478.787732 152.856522 
L 487.985042 156.046075 
L 497.182352 157.445413 
L 506.379661 155.5223 
L 515.576971 153.474107 
L 524.774281 156.577667 
L 533.971591 153.044143 
" style="fill:none;stroke:#d62728;stroke-linecap:square;stroke-width:1.5;"/>
   </g>
   <g id="patch_3">
    <path d="M 60.77 376 
L 60.77 56.601989 
" style="fill:none;stroke:#000000;stroke-linecap:square;stroke-linejoin:miter;stroke-width:0.8;"/>
   </g>
   <g id="patch_4">
    <path d="M 556.505 376 
L 556.505 56.601989 
" style="fill:none;stroke:#000000;stroke-linecap:square;stroke-linejoin:miter;stroke-width:0.8;"/>
   </g>
   <g id="patch_5">
    <path d="M 60.77 376 
L 556.505 376 
" style="fill:none;stroke:#000000;stroke-linecap:square;stroke-linejoin:miter;stroke-width:0.8;"/>
   </g>
   <g id="patch_6">
    <path d="M 60.77 56.601989 
L 556.505 56.601989 
" style="fill:none;stroke:#000000;stroke-linecap:square;stroke-linejoin:miter;stroke-width:0.8;"/>
   </g>
   <g id="legend_1">
    <g id="patch_7">
     <path d="M 59.039844 42.709474 
L 558.235156 42.709474 
Q 561.235156 42.709474 561.235156 39.709474 
L 561.235156 19.192287 
Q 561.235156 16.192287 558.235156 16.192287 
L 59.039844 16.192287 
Q 56.039844 16.192287 56.039844 19.192287 
L 56.039844 39.709474 
Q 56.039844 42.709474 59.039844 42.709474 
z
" style="fill:#ffffff;opacity:0.8;stroke:#cccccc;stroke-linejoin:miter;"/>
    </g>
    <g id="line2d_19">
     <path d="M 62.039844 28.339943 
L 92.039844 28.339943 
" style="fill:none;stroke:#1f77b4;stroke-linecap:square;stroke-width:1.5;"/>
    </g>
    <g id="line2d_20"/>
    <g id="text_17">
     <!-- FedAvg -->
     <g transform="translate(104.039844 33.589943)scale(0.15 -0.15)">
      <defs>
       <path d="M 628 4666 
L 3309 4666 
L 3309 4134 
L 1259 4134 
L 1259 2759 
L 3109 2759 
L 3109 2228 
L 1259 2228 
L 1259 0 
L 628 0 
L 628 4666 
z
" id="DejaVuSans-46" transform="scale(0.015625)"/>
       <path d="M 191 3500 
L 800 3500 
L 1894 563 
L 2988 3500 
L 3597 3500 
L 2284 0 
L 1503 0 
L 191 3500 
z
" id="DejaVuSans-76" transform="scale(0.015625)"/>
       <path d="M 2906 1791 
Q 2906 2416 2648 2759 
Q 2391 3103 1925 3103 
Q 1463 3103 1205 2759 
Q 947 2416 947 1791 
Q 947 1169 1205 825 
Q 1463 481 1925 481 
Q 2391 481 2648 825 
Q 2906 1169 2906 1791 
z
M 3481 434 
Q 3481 -459 3084 -895 
Q 2688 -1331 1869 -1331 
Q 1566 -1331 1297 -1286 
Q 1028 -1241 775 -1147 
L 775 -588 
Q 1028 -725 1275 -790 
Q 1522 -856 1778 -856 
Q 2344 -856 2625 -561 
Q 2906 -266 2906 331 
L 2906 616 
Q 2728 306 2450 153 
Q 2172 0 1784 0 
Q 1141 0 747 490 
Q 353 981 353 1791 
Q 353 2603 747 3093 
Q 1141 3584 1784 3584 
Q 2172 3584 2450 3431 
Q 2728 3278 2906 2969 
L 2906 3500 
L 3481 3500 
L 3481 434 
z
" id="DejaVuSans-67" transform="scale(0.015625)"/>
      </defs>
      <use xlink:href="#DejaVuSans-46"/>
      <use x="52.019531" xlink:href="#DejaVuSans-65"/>
      <use x="113.542969" xlink:href="#DejaVuSans-64"/>
      <use x="177.019531" xlink:href="#DejaVuSans-41"/>
      <use x="239.552734" xlink:href="#DejaVuSans-76"/>
      <use x="298.732422" xlink:href="#DejaVuSans-67"/>
     </g>
    </g>
    <g id="line2d_21">
     <path d="M 188.375 28.339943 
L 218.375 28.339943 
" style="fill:none;stroke:#ff7f0e;stroke-linecap:square;stroke-width:1.5;"/>
    </g>
    <g id="line2d_22"/>
    <g id="text_18">
     <!-- FedMed -->
     <g transform="translate(230.375 33.589943)scale(0.15 -0.15)">
      <defs>
       <path d="M 628 4666 
L 1569 4666 
L 2759 1491 
L 3956 4666 
L 4897 4666 
L 4897 0 
L 4281 0 
L 4281 4097 
L 3078 897 
L 2444 897 
L 1241 4097 
L 1241 0 
L 628 0 
L 628 4666 
z
" id="DejaVuSans-4d" transform="scale(0.015625)"/>
      </defs>
      <use xlink:href="#DejaVuSans-46"/>
      <use x="52.019531" xlink:href="#DejaVuSans-65"/>
      <use x="113.542969" xlink:href="#DejaVuSans-64"/>
      <use x="177.019531" xlink:href="#DejaVuSans-4d"/>
      <use x="263.298828" xlink:href="#DejaVuSans-65"/>
      <use x="324.822266" xlink:href="#DejaVuSans-64"/>
     </g>
    </g>
    <g id="line2d_23">
     <path d="M 318.624219 28.339943 
L 348.624219 28.339943 
" style="fill:none;stroke:#2ca02c;stroke-linecap:square;stroke-width:1.5;"/>
    </g>
    <g id="line2d_24"/>
    <g id="text_19">
     <!-- FedProx -->
     <g transform="translate(360.624219 33.589943)scale(0.15 -0.15)">
      <defs>
       <path d="M 1259 4147 
L 1259 2394 
L 2053 2394 
Q 2494 2394 2734 2622 
Q 2975 2850 2975 3272 
Q 2975 3691 2734 3919 
Q 2494 4147 2053 4147 
L 1259 4147 
z
M 628 4666 
L 2053 4666 
Q 2838 4666 3239 4311 
Q 3641 3956 3641 3272 
Q 3641 2581 3239 2228 
Q 2838 1875 2053 1875 
L 1259 1875 
L 1259 0 
L 628 0 
L 628 4666 
z
" id="DejaVuSans-50" transform="scale(0.015625)"/>
       <path d="M 3513 3500 
L 2247 1797 
L 3578 0 
L 2900 0 
L 1881 1375 
L 863 0 
L 184 0 
L 1544 1831 
L 300 3500 
L 978 3500 
L 1906 2253 
L 2834 3500 
L 3513 3500 
z
" id="DejaVuSans-78" transform="scale(0.015625)"/>
      </defs>
      <use xlink:href="#DejaVuSans-46"/>
      <use x="52.019531" xlink:href="#DejaVuSans-65"/>
      <use x="113.542969" xlink:href="#DejaVuSans-64"/>
      <use x="177.019531" xlink:href="#DejaVuSans-50"/>
      <use x="235.572266" xlink:href="#DejaVuSans-72"/>
      <use x="274.435547" xlink:href="#DejaVuSans-6f"/>
      <use x="332.492188" xlink:href="#DejaVuSans-78"/>
     </g>
    </g>
    <g id="line2d_25">
     <path d="M 449.377344 28.339943 
L 479.377344 28.339943 
" style="fill:none;stroke:#d62728;stroke-linecap:square;stroke-width:1.5;"/>
    </g>
    <g id="line2d_26"/>
    <g id="text_20">
     <!-- qFedAvg -->
     <g transform="translate(491.377344 33.589943)scale(0.15 -0.15)">
      <defs>
       <path d="M 947 1747 
Q 947 1113 1208 752 
Q 1469 391 1925 391 
Q 2381 391 2643 752 
Q 2906 1113 2906 1747 
Q 2906 2381 2643 2742 
Q 2381 3103 1925 3103 
Q 1469 3103 1208 2742 
Q 947 2381 947 1747 
z
M 2906 525 
Q 2725 213 2448 61 
Q 2172 -91 1784 -91 
Q 1150 -91 751 415 
Q 353 922 353 1747 
Q 353 2572 751 3078 
Q 1150 3584 1784 3584 
Q 2172 3584 2448 3432 
Q 2725 3281 2906 2969 
L 2906 3500 
L 3481 3500 
L 3481 -1331 
L 2906 -1331 
L 2906 525 
z
" id="DejaVuSans-71" transform="scale(0.015625)"/>
      </defs>
      <use xlink:href="#DejaVuSans-71"/>
      <use x="63.476562" xlink:href="#DejaVuSans-46"/>
      <use x="115.496094" xlink:href="#DejaVuSans-65"/>
      <use x="177.019531" xlink:href="#DejaVuSans-64"/>
      <use x="240.496094" xlink:href="#DejaVuSans-41"/>
      <use x="303.029297" xlink:href="#DejaVuSans-76"/>
      <use x="362.208984" xlink:href="#DejaVuSans-67"/>
     </g>
    </g>
   </g>
  </g>
 </g>
 <defs>
  <clipPath id="p5e9f18d7c9">
   <rect height="319.398011" width="495.735" x="60.77" y="56.601989"/>
  </clipPath>
 </defs>
</svg>
