<?xml version="1.0" encoding="utf-8" standalone="no"?>
<!DOCTYPE svg PUBLIC "-//W3C//DTD SVG 1.1//EN"
  "http://www.w3.org/Graphics/SVG/1.1/DTD/svg11.dtd">
<!-- Created with matplotlib (https://matplotlib.org/) -->
<svg height="432pt" version="1.1" viewBox="0 0 576 432" width="576pt" xmlns="http://www.w3.org/2000/svg" xmlns:xlink="http://www.w3.org/1999/xlink">
 <defs>
  <style type="text/css">
*{stroke-linecap:butt;stroke-linejoin:round;}
  </style>
 </defs>
 <g id="figure_1">
  <g id="patch_1">
   <path d="M 0 432 
L 576 432 
L 576 0 
L 0 0 
z
" style="fill:#ffffff;"/>
  </g>
  <g id="axes_1">
   <g id="patch_2">
    <path d="M 61.2 374.8 
L 556.1 374.8 
L 556.1 56.448219 
L 61.2 56.448219 
z
" style="fill:#ffffff;"/>
   </g>
   <g id="PolyCollection_1">
    <path clip-path="url(#p0516e4b2b8)" d="M 83.695455 341.710558 
L 83.695455 353.729111 
L 92.877273 306.935563 
L 102.059091 271.431573 
L 111.240909 249.936095 
L 120.422727 234.784836 
L 129.604545 225.347316 
L 138.786364 216.24474 
L 147.968182 205.112801 
L 157.15 197.625833 
L 166.331818 187.715452 
L 175.513636 185.784602 
L 184.695455 175.24374 
L 193.877273 167.717367 
L 203.059091 165.96384 
L 212.240909 162.831135 
L 221.422727 156.033757 
L 230.604545 151.285443 
L 239.786364 149.512214 
L 248.968182 137.710388 
L 258.15 136.508533 
L 267.331818 134.045714 
L 276.513636 133.789581 
L 285.695455 129.90818 
L 294.877273 124.056523 
L 304.059091 123.682175 
L 313.240909 121.514895 
L 322.422727 115.564726 
L 331.604545 116.37253 
L 340.786364 113.062502 
L 349.968182 111.348381 
L 359.15 109.732772 
L 368.331818 105.220888 
L 377.513636 103.68409 
L 386.695455 101.851753 
L 395.877273 99.723878 
L 405.059091 98.265889 
L 414.240909 93.655494 
L 423.422727 94.483 
L 432.604545 93.16293 
L 441.786364 87.291571 
L 450.968182 89.577066 
L 460.15 87.705324 
L 469.331818 86.424659 
L 478.513636 84.158866 
L 487.695455 82.050693 
L 496.877273 78.326912 
L 506.059091 77.558513 
L 515.240909 78.937691 
L 524.422727 76.790113 
L 533.604545 74.071162 
L 533.604545 70.918754 
L 533.604545 70.918754 
L 524.422727 73.223952 
L 515.240909 73.972649 
L 506.059091 75.233612 
L 496.877273 78.031374 
L 487.695455 78.425425 
L 478.513636 80.967053 
L 469.331818 79.055906 
L 460.15 83.508682 
L 450.968182 85.321316 
L 441.786364 86.306444 
L 432.604545 88.513129 
L 423.422727 89.833199 
L 414.240909 92.473341 
L 405.059091 93.281145 
L 395.877273 93.08412 
L 386.695455 98.758453 
L 377.513636 98.58113 
L 368.331818 99.467745 
L 359.15 100.965138 
L 349.968182 104.137248 
L 340.786364 107.329061 
L 331.604545 108.09746 
L 322.422727 112.747261 
L 313.240909 112.727559 
L 304.059091 116.53015 
L 294.877273 121.79073 
L 285.695455 123.701877 
L 276.513636 122.933478 
L 267.331818 129.100375 
L 258.15 133.060587 
L 248.968182 135.799241 
L 239.786364 140.015586 
L 230.604545 144.448659 
L 221.422727 152.585811 
L 212.240909 154.753091 
L 203.059091 161.235229 
L 193.877273 166.870157 
L 184.695455 168.781304 
L 175.513636 177.292805 
L 166.331818 186.69092 
L 157.15 196.44368 
L 147.968182 203.378977 
L 138.786364 212.264825 
L 129.604545 217.32838 
L 120.422727 234.19376 
L 111.240909 249.108588 
L 102.059091 266.604449 
L 92.877273 304.886498 
L 83.695455 341.710558 
z
" style="fill:#1f77b4;fill-opacity:0.5;"/>
   </g>
   <g id="PolyCollection_2">
    <path clip-path="url(#p0516e4b2b8)" d="M 83.695455 347.956265 
L 83.695455 360.211249 
L 92.877273 308.255633 
L 102.059091 284.139716 
L 111.240909 258.033841 
L 120.422727 245.030161 
L 129.604545 239.37553 
L 138.786364 219.712388 
L 147.968182 213.07263 
L 157.15 201.645153 
L 166.331818 199.911328 
L 175.513636 189.666004 
L 184.695455 185.252634 
L 193.877273 179.795028 
L 203.059091 174.534448 
L 212.240909 166.279081 
L 221.422727 161.885413 
L 230.604545 156.348997 
L 239.786364 156.309592 
L 248.968182 150.359423 
L 258.15 145.630812 
L 267.331818 141.552385 
L 276.513636 141.552385 
L 285.695455 135.070247 
L 294.877273 133.297018 
L 304.059091 130.440148 
L 313.240909 128.075843 
L 322.422727 125.179568 
L 331.604545 123.386637 
L 340.786364 122.775858 
L 349.968182 118.185164 
L 359.15 115.702643 
L 368.331818 113.377743 
L 377.513636 112.550236 
L 386.695455 113.988522 
L 395.877273 108.314188 
L 405.059091 109.02348 
L 414.240909 105.240591 
L 423.422727 105.654345 
L 432.604545 104.61011 
L 441.786364 101.260677 
L 450.968182 99.34953 
L 460.15 102.777773 
L 469.331818 97.398977 
L 478.513636 95.428723 
L 487.695455 92.729474 
L 496.877273 95.014969 
L 506.059091 92.571853 
L 515.240909 93.044715 
L 524.422727 89.320933 
L 533.604545 89.360338 
L 533.604545 86.621684 
L 533.604545 86.621684 
L 524.422727 88.355508 
L 515.240909 90.306061 
L 506.059091 90.700111 
L 496.877273 91.901967 
L 487.695455 91.921669 
L 478.513636 94.483 
L 469.331818 94.778539 
L 460.15 96.965521 
L 450.968182 98.600833 
L 441.786364 99.329827 
L 432.604545 103.959925 
L 423.422727 104.570704 
L 414.240909 104.945053 
L 405.059091 106.678877 
L 395.877273 106.619769 
L 386.695455 109.614556 
L 377.513636 111.230165 
L 368.331818 112.885179 
L 359.15 115.229782 
L 349.968182 118.165462 
L 340.786364 119.62345 
L 331.604545 122.55913 
L 322.422727 123.8792 
L 313.240909 126.992203 
L 304.059091 128.509299 
L 294.877273 129.120078 
L 285.695455 134.459468 
L 276.513636 136.035672 
L 267.331818 141.493277 
L 258.15 144.527469 
L 248.968182 148.842327 
L 239.786364 151.383956 
L 230.604545 155.462383 
L 221.422727 159.796943 
L 212.240909 165.156036 
L 203.059091 167.008075 
L 193.877273 175.677196 
L 184.695455 180.129971 
L 175.513636 186.868242 
L 166.331818 190.434403 
L 157.15 199.635493 
L 147.968182 212.0678 
L 138.786364 218.687856 
L 129.604545 228.85437 
L 120.422727 242.981096 
L 111.240909 252.418616 
L 102.059091 279.292889 
L 92.877273 307.940393 
L 83.695455 347.956265 
z
" style="fill:#ff7f0e;fill-opacity:0.5;"/>
   </g>
   <g id="PolyCollection_3">
    <path clip-path="url(#p0516e4b2b8)" d="M 83.695455 342.675983 
L 83.695455 354.18227 
L 92.877273 309.516596 
L 102.059091 288.395466 
L 111.240909 275.056842 
L 120.422727 258.900754 
L 129.604545 240.38036 
L 138.786364 222.82539 
L 147.968182 209.683792 
L 157.15 205.861498 
L 166.331818 197.054459 
L 175.513636 194.059672 
L 184.695455 182.356359 
L 193.877273 177.627748 
L 203.059091 173.726644 
L 212.240909 171.736686 
L 221.422727 156.940074 
L 230.604545 155.147142 
L 239.786364 151.856817 
L 248.968182 146.399211 
L 258.15 144.094013 
L 267.331818 137.986224 
L 276.513636 135.681026 
L 285.695455 131.740516 
L 294.877273 129.06097 
L 304.059091 125.218973 
L 313.240909 125.534214 
L 322.422727 119.249102 
L 331.604545 118.658025 
L 340.786364 115.899669 
L 349.968182 111.072545 
L 359.15 110.855817 
L 368.331818 107.388169 
L 377.513636 109.575151 
L 386.695455 103.191526 
L 395.877273 101.969968 
L 405.059091 99.881498 
L 414.240909 100.866626 
L 423.422727 95.014969 
L 432.604545 93.379658 
L 441.786364 91.704941 
L 450.968182 92.571853 
L 460.15 89.183015 
L 469.331818 86.542874 
L 478.513636 87.311273 
L 487.695455 84.316486 
L 496.877273 84.217974 
L 506.059091 83.154036 
L 515.240909 81.833965 
L 524.422727 81.420212 
L 533.604545 78.149589 
L 533.604545 74.642536 
L 533.604545 74.642536 
L 524.422727 73.657409 
L 515.240909 75.864094 
L 506.059091 77.657026 
L 496.877273 79.055906 
L 487.695455 81.932478 
L 478.513636 79.351445 
L 469.331818 86.326146 
L 460.15 84.178568 
L 450.968182 86.542874 
L 441.786364 87.843242 
L 432.604545 90.700111 
L 423.422727 90.897137 
L 414.240909 95.054374 
L 405.059091 95.17259 
L 395.877273 97.950649 
L 386.695455 100.196739 
L 377.513636 103.703792 
L 368.331818 101.851753 
L 359.15 106.836497 
L 349.968182 108.629429 
L 340.786364 110.245038 
L 331.604545 112.629046 
L 322.422727 117.436468 
L 313.240909 120.864711 
L 304.059091 124.076226 
L 294.877273 125.593322 
L 285.695455 127.346849 
L 276.513636 132.430106 
L 267.331818 133.218207 
L 258.15 139.542725 
L 248.968182 141.217441 
L 239.786364 145.020033 
L 230.604545 150.733772 
L 221.422727 156.565725 
L 212.240909 163.776858 
L 203.059091 164.761985 
L 193.877273 171.185015 
L 184.695455 177.667153 
L 175.513636 186.592407 
L 166.331818 193.606513 
L 157.15 203.221356 
L 147.968182 205.408339 
L 138.786364 217.880051 
L 129.604545 236.656578 
L 120.422727 247.88703 
L 111.240909 254.822326 
L 102.059091 278.327465 
L 92.877273 302.049331 
L 83.695455 342.675983 
z
" style="fill:#2ca02c;fill-opacity:0.5;"/>
   </g>
   <g id="PolyCollection_4">
    <path clip-path="url(#p0516e4b2b8)" d="M 83.695455 349.177823 
L 83.695455 360.329464 
L 92.877273 307.526639 
L 102.059091 279.923371 
L 111.240909 254.014522 
L 120.422727 246.685175 
L 129.604545 222.51015 
L 138.786364 216.973734 
L 147.968182 207.240676 
L 157.15 193.586811 
L 166.331818 189.86303 
L 175.513636 183.75524 
L 184.695455 176.425893 
L 193.877273 167.934095 
L 203.059091 165.372764 
L 212.240909 158.595088 
L 221.422727 155.344168 
L 230.604545 151.620386 
L 239.786364 145.433787 
L 248.968182 143.365019 
L 258.15 139.365402 
L 267.331818 136.705558 
L 276.513636 131.976947 
L 285.695455 127.465064 
L 294.877273 123.662472 
L 304.059091 120.943521 
L 313.240909 119.978096 
L 322.422727 116.786283 
L 331.604545 113.161015 
L 340.786364 113.20042 
L 349.968182 111.171058 
L 359.15 110.422361 
L 368.331818 108.235378 
L 377.513636 106.048395 
L 386.695455 104.472192 
L 395.877273 102.738368 
L 405.059091 99.211612 
L 414.240909 98.541725 
L 423.422727 96.906414 
L 432.604545 95.192292 
L 441.786364 93.24174 
L 450.968182 91.626131 
L 460.15 89.14361 
L 469.331818 88.119078 
L 478.513636 85.360721 
L 487.695455 84.96667 
L 496.877273 82.464447 
L 506.059091 80.257762 
L 515.240909 79.055906 
L 524.422727 77.30238 
L 533.604545 76.553683 
L 533.604545 75.765581 
L 533.604545 75.765581 
L 524.422727 75.016884 
L 515.240909 78.346615 
L 506.059091 78.878583 
L 496.877273 79.134717 
L 487.695455 80.159249 
L 478.513636 82.326529 
L 469.331818 84.355891 
L 460.15 85.222803 
L 450.968182 86.779305 
L 441.786364 88.335806 
L 432.604545 90.345466 
L 423.422727 88.966287 
L 414.240909 92.985607 
L 405.059091 95.606046 
L 395.877273 96.532065 
L 386.695455 99.290422 
L 377.513636 100.768113 
L 368.331818 104.314571 
L 359.15 104.413084 
L 349.968182 107.09263 
L 340.786364 108.727942 
L 331.604545 113.023097 
L 322.422727 113.890009 
L 313.240909 118.185164 
L 304.059091 120.746495 
L 294.877273 121.140546 
L 285.695455 126.9725 
L 276.513636 130.518959 
L 267.331818 133.1591 
L 258.15 136.272102 
L 248.968182 140.232314 
L 239.786364 142.241974 
L 230.604545 149.137865 
L 221.422727 152.999564 
L 212.240909 158.358657 
L 203.059091 161.62928 
L 193.877273 166.259378 
L 184.695455 174.219207 
L 175.513636 182.967138 
L 166.331818 183.479404 
L 157.15 190.434403 
L 147.968182 200.522107 
L 138.786364 211.496426 
L 129.604545 220.106439 
L 120.422727 232.223505 
L 111.240909 251.394083 
L 102.059091 273.007777 
L 92.877273 296.138567 
L 83.695455 349.177823 
z
" style="fill:#d62728;fill-opacity:0.5;"/>
   </g>
   <g id="matplotlib.axis_1">
    <g id="xtick_1">
     <g id="line2d_1">
      <defs>
       <path d="M 0 0 
L 0 3.5 
" id="m42f7e40d4d" style="stroke:#000000;stroke-width:0.8;"/>
      </defs>
      <g>
       <use style="stroke:#000000;stroke-width:0.8;" x="83.695455" xlink:href="#m42f7e40d4d" y="374.8"/>
      </g>
     </g>
     <g id="text_1">
      <!-- 0 -->
      <defs>
       <path d="M 31.78125 66.40625 
Q 24.171875 66.40625 20.328125 58.90625 
Q 16.5 51.421875 16.5 36.375 
Q 16.5 21.390625 20.328125 13.890625 
Q 24.171875 6.390625 31.78125 6.390625 
Q 39.453125 6.390625 43.28125 13.890625 
Q 47.125 21.390625 47.125 36.375 
Q 47.125 51.421875 43.28125 58.90625 
Q 39.453125 66.40625 31.78125 66.40625 
z
M 31.78125 74.21875 
Q 44.046875 74.21875 50.515625 64.515625 
Q 56.984375 54.828125 56.984375 36.375 
Q 56.984375 17.96875 50.515625 8.265625 
Q 44.046875 -1.421875 31.78125 -1.421875 
Q 19.53125 -1.421875 13.0625 8.265625 
Q 6.59375 17.96875 6.59375 36.375 
Q 6.59375 54.828125 13.0625 64.515625 
Q 19.53125 74.21875 31.78125 74.21875 
z
" id="DejaVuSans-48"/>
      </defs>
      <g transform="translate(78.92358 393.197656)scale(0.15 -0.15)">
       <use xlink:href="#DejaVuSans-48"/>
      </g>
     </g>
    </g>
    <g id="xtick_2">
     <g id="line2d_2">
      <g>
       <use style="stroke:#000000;stroke-width:0.8;" x="175.513636" xlink:href="#m42f7e40d4d" y="374.8"/>
      </g>
     </g>
     <g id="text_2">
      <!-- 10 -->
      <defs>
       <path d="M 12.40625 8.296875 
L 28.515625 8.296875 
L 28.515625 63.921875 
L 10.984375 60.40625 
L 10.984375 69.390625 
L 28.421875 72.90625 
L 38.28125 72.90625 
L 38.28125 8.296875 
L 54.390625 8.296875 
L 54.390625 0 
L 12.40625 0 
z
" id="DejaVuSans-49"/>
      </defs>
      <g transform="translate(165.969886 393.197656)scale(0.15 -0.15)">
       <use xlink:href="#DejaVuSans-49"/>
       <use x="63.623047" xlink:href="#DejaVuSans-48"/>
      </g>
     </g>
    </g>
    <g id="xtick_3">
     <g id="line2d_3">
      <g>
       <use style="stroke:#000000;stroke-width:0.8;" x="267.331818" xlink:href="#m42f7e40d4d" y="374.8"/>
      </g>
     </g>
     <g id="text_3">
      <!-- 20 -->
      <defs>
       <path d="M 19.1875 8.296875 
L 53.609375 8.296875 
L 53.609375 0 
L 7.328125 0 
L 7.328125 8.296875 
Q 12.9375 14.109375 22.625 23.890625 
Q 32.328125 33.6875 34.8125 36.53125 
Q 39.546875 41.84375 41.421875 45.53125 
Q 43.3125 49.21875 43.3125 52.78125 
Q 43.3125 58.59375 39.234375 62.25 
Q 35.15625 65.921875 28.609375 65.921875 
Q 23.96875 65.921875 18.8125 64.3125 
Q 13.671875 62.703125 7.8125 59.421875 
L 7.8125 69.390625 
Q 13.765625 71.78125 18.9375 73 
Q 24.125 74.21875 28.421875 74.21875 
Q 39.75 74.21875 46.484375 68.546875 
Q 53.21875 62.890625 53.21875 53.421875 
Q 53.21875 48.921875 51.53125 44.890625 
Q 49.859375 40.875 45.40625 35.40625 
Q 44.1875 33.984375 37.640625 27.21875 
Q 31.109375 20.453125 19.1875 8.296875 
z
" id="DejaVuSans-50"/>
      </defs>
      <g transform="translate(257.788068 393.197656)scale(0.15 -0.15)">
       <use xlink:href="#DejaVuSans-50"/>
       <use x="63.623047" xlink:href="#DejaVuSans-48"/>
      </g>
     </g>
    </g>
    <g id="xtick_4">
     <g id="line2d_4">
      <g>
       <use style="stroke:#000000;stroke-width:0.8;" x="359.15" xlink:href="#m42f7e40d4d" y="374.8"/>
      </g>
     </g>
     <g id="text_4">
      <!-- 30 -->
      <defs>
       <path d="M 40.578125 39.3125 
Q 47.65625 37.796875 51.625 33 
Q 55.609375 28.21875 55.609375 21.1875 
Q 55.609375 10.40625 48.1875 4.484375 
Q 40.765625 -1.421875 27.09375 -1.421875 
Q 22.515625 -1.421875 17.65625 -0.515625 
Q 12.796875 0.390625 7.625 2.203125 
L 7.625 11.71875 
Q 11.71875 9.328125 16.59375 8.109375 
Q 21.484375 6.890625 26.8125 6.890625 
Q 36.078125 6.890625 40.9375 10.546875 
Q 45.796875 14.203125 45.796875 21.1875 
Q 45.796875 27.640625 41.28125 31.265625 
Q 36.765625 34.90625 28.71875 34.90625 
L 20.21875 34.90625 
L 20.21875 43.015625 
L 29.109375 43.015625 
Q 36.375 43.015625 40.234375 45.921875 
Q 44.09375 48.828125 44.09375 54.296875 
Q 44.09375 59.90625 40.109375 62.90625 
Q 36.140625 65.921875 28.71875 65.921875 
Q 24.65625 65.921875 20.015625 65.03125 
Q 15.375 64.15625 9.8125 62.3125 
L 9.8125 71.09375 
Q 15.4375 72.65625 20.34375 73.4375 
Q 25.25 74.21875 29.59375 74.21875 
Q 40.828125 74.21875 47.359375 69.109375 
Q 53.90625 64.015625 53.90625 55.328125 
Q 53.90625 49.265625 50.4375 45.09375 
Q 46.96875 40.921875 40.578125 39.3125 
z
" id="DejaVuSans-51"/>
      </defs>
      <g transform="translate(349.60625 393.197656)scale(0.15 -0.15)">
       <use xlink:href="#DejaVuSans-51"/>
       <use x="63.623047" xlink:href="#DejaVuSans-48"/>
      </g>
     </g>
    </g>
    <g id="xtick_5">
     <g id="line2d_5">
      <g>
       <use style="stroke:#000000;stroke-width:0.8;" x="450.968182" xlink:href="#m42f7e40d4d" y="374.8"/>
      </g>
     </g>
     <g id="text_5">
      <!-- 40 -->
      <defs>
       <path d="M 37.796875 64.3125 
L 12.890625 25.390625 
L 37.796875 25.390625 
z
M 35.203125 72.90625 
L 47.609375 72.90625 
L 47.609375 25.390625 
L 58.015625 25.390625 
L 58.015625 17.1875 
L 47.609375 17.1875 
L 47.609375 0 
L 37.796875 0 
L 37.796875 17.1875 
L 4.890625 17.1875 
L 4.890625 26.703125 
z
" id="DejaVuSans-52"/>
      </defs>
      <g transform="translate(441.424432 393.197656)scale(0.15 -0.15)">
       <use xlink:href="#DejaVuSans-52"/>
       <use x="63.623047" xlink:href="#DejaVuSans-48"/>
      </g>
     </g>
    </g>
    <g id="xtick_6">
     <g id="line2d_6">
      <g>
       <use style="stroke:#000000;stroke-width:0.8;" x="542.786364" xlink:href="#m42f7e40d4d" y="374.8"/>
      </g>
     </g>
     <g id="text_6">
      <!-- 50 -->
      <defs>
       <path d="M 10.796875 72.90625 
L 49.515625 72.90625 
L 49.515625 64.59375 
L 19.828125 64.59375 
L 19.828125 46.734375 
Q 21.96875 47.46875 24.109375 47.828125 
Q 26.265625 48.1875 28.421875 48.1875 
Q 40.625 48.1875 47.75 41.5 
Q 54.890625 34.8125 54.890625 23.390625 
Q 54.890625 11.625 47.5625 5.09375 
Q 40.234375 -1.421875 26.90625 -1.421875 
Q 22.3125 -1.421875 17.546875 -0.640625 
Q 12.796875 0.140625 7.71875 1.703125 
L 7.71875 11.625 
Q 12.109375 9.234375 16.796875 8.0625 
Q 21.484375 6.890625 26.703125 6.890625 
Q 35.15625 6.890625 40.078125 11.328125 
Q 45.015625 15.765625 45.015625 23.390625 
Q 45.015625 31 40.078125 35.4375 
Q 35.15625 39.890625 26.703125 39.890625 
Q 22.75 39.890625 18.8125 39.015625 
Q 14.890625 38.140625 10.796875 36.28125 
z
" id="DejaVuSans-53"/>
      </defs>
      <g transform="translate(533.242614 393.197656)scale(0.15 -0.15)">
       <use xlink:href="#DejaVuSans-53"/>
       <use x="63.623047" xlink:href="#DejaVuSans-48"/>
      </g>
     </g>
    </g>
    <g id="text_7">
     <!-- Global Communication Rounds -->
     <defs>
      <path d="M 59.515625 10.40625 
L 59.515625 29.984375 
L 43.40625 29.984375 
L 43.40625 38.09375 
L 69.28125 38.09375 
L 69.28125 6.78125 
Q 63.578125 2.734375 56.6875 0.65625 
Q 49.8125 -1.421875 42 -1.421875 
Q 24.90625 -1.421875 15.25 8.5625 
Q 5.609375 18.5625 5.609375 36.375 
Q 5.609375 54.25 15.25 64.234375 
Q 24.90625 74.21875 42 74.21875 
Q 49.125 74.21875 55.546875 72.453125 
Q 61.96875 70.703125 67.390625 67.28125 
L 67.390625 56.78125 
Q 61.921875 61.421875 55.765625 63.765625 
Q 49.609375 66.109375 42.828125 66.109375 
Q 29.4375 66.109375 22.71875 58.640625 
Q 16.015625 51.171875 16.015625 36.375 
Q 16.015625 21.625 22.71875 14.15625 
Q 29.4375 6.6875 42.828125 6.6875 
Q 48.046875 6.6875 52.140625 7.59375 
Q 56.25 8.5 59.515625 10.40625 
z
" id="DejaVuSans-71"/>
      <path d="M 9.421875 75.984375 
L 18.40625 75.984375 
L 18.40625 0 
L 9.421875 0 
z
" id="DejaVuSans-108"/>
      <path d="M 30.609375 48.390625 
Q 23.390625 48.390625 19.1875 42.75 
Q 14.984375 37.109375 14.984375 27.296875 
Q 14.984375 17.484375 19.15625 11.84375 
Q 23.34375 6.203125 30.609375 6.203125 
Q 37.796875 6.203125 41.984375 11.859375 
Q 46.1875 17.53125 46.1875 27.296875 
Q 46.1875 37.015625 41.984375 42.703125 
Q 37.796875 48.390625 30.609375 48.390625 
z
M 30.609375 56 
Q 42.328125 56 49.015625 48.375 
Q 55.71875 40.765625 55.71875 27.296875 
Q 55.71875 13.875 49.015625 6.21875 
Q 42.328125 -1.421875 30.609375 -1.421875 
Q 18.84375 -1.421875 12.171875 6.21875 
Q 5.515625 13.875 5.515625 27.296875 
Q 5.515625 40.765625 12.171875 48.375 
Q 18.84375 56 30.609375 56 
z
" id="DejaVuSans-111"/>
      <path d="M 48.6875 27.296875 
Q 48.6875 37.203125 44.609375 42.84375 
Q 40.53125 48.484375 33.40625 48.484375 
Q 26.265625 48.484375 22.1875 42.84375 
Q 18.109375 37.203125 18.109375 27.296875 
Q 18.109375 17.390625 22.1875 11.75 
Q 26.265625 6.109375 33.40625 6.109375 
Q 40.53125 6.109375 44.609375 11.75 
Q 48.6875 17.390625 48.6875 27.296875 
z
M 18.109375 46.390625 
Q 20.953125 51.265625 25.265625 53.625 
Q 29.59375 56 35.59375 56 
Q 45.5625 56 51.78125 48.09375 
Q 58.015625 40.1875 58.015625 27.296875 
Q 58.015625 14.40625 51.78125 6.484375 
Q 45.5625 -1.421875 35.59375 -1.421875 
Q 29.59375 -1.421875 25.265625 0.953125 
Q 20.953125 3.328125 18.109375 8.203125 
L 18.109375 0 
L 9.078125 0 
L 9.078125 75.984375 
L 18.109375 75.984375 
z
" id="DejaVuSans-98"/>
      <path d="M 34.28125 27.484375 
Q 23.390625 27.484375 19.1875 25 
Q 14.984375 22.515625 14.984375 16.5 
Q 14.984375 11.71875 18.140625 8.90625 
Q 21.296875 6.109375 26.703125 6.109375 
Q 34.1875 6.109375 38.703125 11.40625 
Q 43.21875 16.703125 43.21875 25.484375 
L 43.21875 27.484375 
z
M 52.203125 31.203125 
L 52.203125 0 
L 43.21875 0 
L 43.21875 8.296875 
Q 40.140625 3.328125 35.546875 0.953125 
Q 30.953125 -1.421875 24.3125 -1.421875 
Q 15.921875 -1.421875 10.953125 3.296875 
Q 6 8.015625 6 15.921875 
Q 6 25.140625 12.171875 29.828125 
Q 18.359375 34.515625 30.609375 34.515625 
L 43.21875 34.515625 
L 43.21875 35.40625 
Q 43.21875 41.609375 39.140625 45 
Q 35.0625 48.390625 27.6875 48.390625 
Q 23 48.390625 18.546875 47.265625 
Q 14.109375 46.140625 10.015625 43.890625 
L 10.015625 52.203125 
Q 14.9375 54.109375 19.578125 55.046875 
Q 24.21875 56 28.609375 56 
Q 40.484375 56 46.34375 49.84375 
Q 52.203125 43.703125 52.203125 31.203125 
z
" id="DejaVuSans-97"/>
      <path id="DejaVuSans-32"/>
      <path d="M 64.40625 67.28125 
L 64.40625 56.890625 
Q 59.421875 61.53125 53.78125 63.8125 
Q 48.140625 66.109375 41.796875 66.109375 
Q 29.296875 66.109375 22.65625 58.46875 
Q 16.015625 50.828125 16.015625 36.375 
Q 16.015625 21.96875 22.65625 14.328125 
Q 29.296875 6.6875 41.796875 6.6875 
Q 48.140625 6.6875 53.78125 8.984375 
Q 59.421875 11.28125 64.40625 15.921875 
L 64.40625 5.609375 
Q 59.234375 2.09375 53.4375 0.328125 
Q 47.65625 -1.421875 41.21875 -1.421875 
Q 24.65625 -1.421875 15.125 8.703125 
Q 5.609375 18.84375 5.609375 36.375 
Q 5.609375 53.953125 15.125 64.078125 
Q 24.65625 74.21875 41.21875 74.21875 
Q 47.75 74.21875 53.53125 72.484375 
Q 59.328125 70.75 64.40625 67.28125 
z
" id="DejaVuSans-67"/>
      <path d="M 52 44.1875 
Q 55.375 50.25 60.0625 53.125 
Q 64.75 56 71.09375 56 
Q 79.640625 56 84.28125 50.015625 
Q 88.921875 44.046875 88.921875 33.015625 
L 88.921875 0 
L 79.890625 0 
L 79.890625 32.71875 
Q 79.890625 40.578125 77.09375 44.375 
Q 74.3125 48.1875 68.609375 48.1875 
Q 61.625 48.1875 57.5625 43.546875 
Q 53.515625 38.921875 53.515625 30.90625 
L 53.515625 0 
L 44.484375 0 
L 44.484375 32.71875 
Q 44.484375 40.625 41.703125 44.40625 
Q 38.921875 48.1875 33.109375 48.1875 
Q 26.21875 48.1875 22.15625 43.53125 
Q 18.109375 38.875 18.109375 30.90625 
L 18.109375 0 
L 9.078125 0 
L 9.078125 54.6875 
L 18.109375 54.6875 
L 18.109375 46.1875 
Q 21.1875 51.21875 25.484375 53.609375 
Q 29.78125 56 35.6875 56 
Q 41.65625 56 45.828125 52.96875 
Q 50 49.953125 52 44.1875 
z
" id="DejaVuSans-109"/>
      <path d="M 8.5 21.578125 
L 8.5 54.6875 
L 17.484375 54.6875 
L 17.484375 21.921875 
Q 17.484375 14.15625 20.5 10.265625 
Q 23.53125 6.390625 29.59375 6.390625 
Q 36.859375 6.390625 41.078125 11.03125 
Q 45.3125 15.671875 45.3125 23.6875 
L 45.3125 54.6875 
L 54.296875 54.6875 
L 54.296875 0 
L 45.3125 0 
L 45.3125 8.40625 
Q 42.046875 3.421875 37.71875 1 
Q 33.40625 -1.421875 27.6875 -1.421875 
Q 18.265625 -1.421875 13.375 4.4375 
Q 8.5 10.296875 8.5 21.578125 
z
M 31.109375 56 
z
" id="DejaVuSans-117"/>
      <path d="M 54.890625 33.015625 
L 54.890625 0 
L 45.90625 0 
L 45.90625 32.71875 
Q 45.90625 40.484375 42.875 44.328125 
Q 39.84375 48.1875 33.796875 48.1875 
Q 26.515625 48.1875 22.3125 43.546875 
Q 18.109375 38.921875 18.109375 30.90625 
L 18.109375 0 
L 9.078125 0 
L 9.078125 54.6875 
L 18.109375 54.6875 
L 18.109375 46.1875 
Q 21.34375 51.125 25.703125 53.5625 
Q 30.078125 56 35.796875 56 
Q 45.21875 56 50.046875 50.171875 
Q 54.890625 44.34375 54.890625 33.015625 
z
" id="DejaVuSans-110"/>
      <path d="M 9.421875 54.6875 
L 18.40625 54.6875 
L 18.40625 0 
L 9.421875 0 
z
M 9.421875 75.984375 
L 18.40625 75.984375 
L 18.40625 64.59375 
L 9.421875 64.59375 
z
" id="DejaVuSans-105"/>
      <path d="M 48.78125 52.59375 
L 48.78125 44.1875 
Q 44.96875 46.296875 41.140625 47.34375 
Q 37.3125 48.390625 33.40625 48.390625 
Q 24.65625 48.390625 19.8125 42.84375 
Q 14.984375 37.3125 14.984375 27.296875 
Q 14.984375 17.28125 19.8125 11.734375 
Q 24.65625 6.203125 33.40625 6.203125 
Q 37.3125 6.203125 41.140625 7.25 
Q 44.96875 8.296875 48.78125 10.40625 
L 48.78125 2.09375 
Q 45.015625 0.34375 40.984375 -0.53125 
Q 36.96875 -1.421875 32.421875 -1.421875 
Q 20.0625 -1.421875 12.78125 6.34375 
Q 5.515625 14.109375 5.515625 27.296875 
Q 5.515625 40.671875 12.859375 48.328125 
Q 20.21875 56 33.015625 56 
Q 37.15625 56 41.109375 55.140625 
Q 45.0625 54.296875 48.78125 52.59375 
z
" id="DejaVuSans-99"/>
      <path d="M 18.3125 70.21875 
L 18.3125 54.6875 
L 36.8125 54.6875 
L 36.8125 47.703125 
L 18.3125 47.703125 
L 18.3125 18.015625 
Q 18.3125 11.328125 20.140625 9.421875 
Q 21.96875 7.515625 27.59375 7.515625 
L 36.8125 7.515625 
L 36.8125 0 
L 27.59375 0 
Q 17.1875 0 13.234375 3.875 
Q 9.28125 7.765625 9.28125 18.015625 
L 9.28125 47.703125 
L 2.6875 47.703125 
L 2.6875 54.6875 
L 9.28125 54.6875 
L 9.28125 70.21875 
z
" id="DejaVuSans-116"/>
      <path d="M 44.390625 34.1875 
Q 47.5625 33.109375 50.5625 29.59375 
Q 53.5625 26.078125 56.59375 19.921875 
L 66.609375 0 
L 56 0 
L 46.6875 18.703125 
Q 43.0625 26.03125 39.671875 28.421875 
Q 36.28125 30.8125 30.421875 30.8125 
L 19.671875 30.8125 
L 19.671875 0 
L 9.8125 0 
L 9.8125 72.90625 
L 32.078125 72.90625 
Q 44.578125 72.90625 50.734375 67.671875 
Q 56.890625 62.453125 56.890625 51.90625 
Q 56.890625 45.015625 53.6875 40.46875 
Q 50.484375 35.9375 44.390625 34.1875 
z
M 19.671875 64.796875 
L 19.671875 38.921875 
L 32.078125 38.921875 
Q 39.203125 38.921875 42.84375 42.21875 
Q 46.484375 45.515625 46.484375 51.90625 
Q 46.484375 58.296875 42.84375 61.546875 
Q 39.203125 64.796875 32.078125 64.796875 
z
" id="DejaVuSans-82"/>
      <path d="M 45.40625 46.390625 
L 45.40625 75.984375 
L 54.390625 75.984375 
L 54.390625 0 
L 45.40625 0 
L 45.40625 8.203125 
Q 42.578125 3.328125 38.25 0.953125 
Q 33.9375 -1.421875 27.875 -1.421875 
Q 17.96875 -1.421875 11.734375 6.484375 
Q 5.515625 14.40625 5.515625 27.296875 
Q 5.515625 40.1875 11.734375 48.09375 
Q 17.96875 56 27.875 56 
Q 33.9375 56 38.25 53.625 
Q 42.578125 51.265625 45.40625 46.390625 
z
M 14.796875 27.296875 
Q 14.796875 17.390625 18.875 11.75 
Q 22.953125 6.109375 30.078125 6.109375 
Q 37.203125 6.109375 41.296875 11.75 
Q 45.40625 17.390625 45.40625 27.296875 
Q 45.40625 37.203125 41.296875 42.84375 
Q 37.203125 48.484375 30.078125 48.484375 
Q 22.953125 48.484375 18.875 42.84375 
Q 14.796875 37.203125 14.796875 27.296875 
z
" id="DejaVuSans-100"/>
      <path d="M 44.28125 53.078125 
L 44.28125 44.578125 
Q 40.484375 46.53125 36.375 47.5 
Q 32.28125 48.484375 27.875 48.484375 
Q 21.1875 48.484375 17.84375 46.4375 
Q 14.5 44.390625 14.5 40.28125 
Q 14.5 37.15625 16.890625 35.375 
Q 19.28125 33.59375 26.515625 31.984375 
L 29.59375 31.296875 
Q 39.15625 29.25 43.1875 25.515625 
Q 47.21875 21.78125 47.21875 15.09375 
Q 47.21875 7.46875 41.1875 3.015625 
Q 35.15625 -1.421875 24.609375 -1.421875 
Q 20.21875 -1.421875 15.453125 -0.5625 
Q 10.6875 0.296875 5.421875 2 
L 5.421875 11.28125 
Q 10.40625 8.6875 15.234375 7.390625 
Q 20.0625 6.109375 24.8125 6.109375 
Q 31.15625 6.109375 34.5625 8.28125 
Q 37.984375 10.453125 37.984375 14.40625 
Q 37.984375 18.0625 35.515625 20.015625 
Q 33.0625 21.96875 24.703125 23.78125 
L 21.578125 24.515625 
Q 13.234375 26.265625 9.515625 29.90625 
Q 5.8125 33.546875 5.8125 39.890625 
Q 5.8125 47.609375 11.28125 51.796875 
Q 16.75 56 26.8125 56 
Q 31.78125 56 36.171875 55.265625 
Q 40.578125 54.546875 44.28125 53.078125 
z
" id="DejaVuSans-115"/>
     </defs>
     <g transform="translate(193.207422 411.714844)scale(0.15 -0.15)">
      <use xlink:href="#DejaVuSans-71"/>
      <use x="77.490234" xlink:href="#DejaVuSans-108"/>
      <use x="105.273438" xlink:href="#DejaVuSans-111"/>
      <use x="166.455078" xlink:href="#DejaVuSans-98"/>
      <use x="229.931641" xlink:href="#DejaVuSans-97"/>
      <use x="291.210938" xlink:href="#DejaVuSans-108"/>
      <use x="318.994141" xlink:href="#DejaVuSans-32"/>
      <use x="350.78125" xlink:href="#DejaVuSans-67"/>
      <use x="420.605469" xlink:href="#DejaVuSans-111"/>
      <use x="481.787109" xlink:href="#DejaVuSans-109"/>
      <use x="579.199219" xlink:href="#DejaVuSans-109"/>
      <use x="676.611328" xlink:href="#DejaVuSans-117"/>
      <use x="739.990234" xlink:href="#DejaVuSans-110"/>
      <use x="803.369141" xlink:href="#DejaVuSans-105"/>
      <use x="831.152344" xlink:href="#DejaVuSans-99"/>
      <use x="886.132812" xlink:href="#DejaVuSans-97"/>
      <use x="947.412109" xlink:href="#DejaVuSans-116"/>
      <use x="986.621094" xlink:href="#DejaVuSans-105"/>
      <use x="1014.404297" xlink:href="#DejaVuSans-111"/>
      <use x="1075.585938" xlink:href="#DejaVuSans-110"/>
      <use x="1138.964844" xlink:href="#DejaVuSans-32"/>
      <use x="1170.751953" xlink:href="#DejaVuSans-82"/>
      <use x="1235.734375" xlink:href="#DejaVuSans-111"/>
      <use x="1296.916016" xlink:href="#DejaVuSans-117"/>
      <use x="1360.294922" xlink:href="#DejaVuSans-110"/>
      <use x="1423.673828" xlink:href="#DejaVuSans-100"/>
      <use x="1487.150391" xlink:href="#DejaVuSans-115"/>
     </g>
    </g>
   </g>
   <g id="matplotlib.axis_2">
    <g id="ytick_1">
     <g id="line2d_7">
      <defs>
       <path d="M 0 0 
L -3.5 0 
" id="m335c2fad56" style="stroke:#000000;stroke-width:0.8;"/>
      </defs>
      <g>
       <use style="stroke:#000000;stroke-width:0.8;" x="61.2" xlink:href="#m335c2fad56" y="333.37638"/>
      </g>
     </g>
     <g id="text_8">
      <!-- 25 -->
      <g transform="translate(35.1125 339.075209)scale(0.15 -0.15)">
       <use xlink:href="#DejaVuSans-50"/>
       <use x="63.623047" xlink:href="#DejaVuSans-53"/>
      </g>
     </g>
    </g>
    <g id="ytick_2">
     <g id="line2d_8">
      <g>
       <use style="stroke:#000000;stroke-width:0.8;" x="61.2" xlink:href="#m335c2fad56" y="282.441356"/>
      </g>
     </g>
     <g id="text_9">
      <!-- 30 -->
      <g transform="translate(35.1125 288.140185)scale(0.15 -0.15)">
       <use xlink:href="#DejaVuSans-51"/>
       <use x="63.623047" xlink:href="#DejaVuSans-48"/>
      </g>
     </g>
    </g>
    <g id="ytick_3">
     <g id="line2d_9">
      <g>
       <use style="stroke:#000000;stroke-width:0.8;" x="61.2" xlink:href="#m335c2fad56" y="231.506332"/>
      </g>
     </g>
     <g id="text_10">
      <!-- 35 -->
      <g transform="translate(35.1125 237.205161)scale(0.15 -0.15)">
       <use xlink:href="#DejaVuSans-51"/>
       <use x="63.623047" xlink:href="#DejaVuSans-53"/>
      </g>
     </g>
    </g>
    <g id="ytick_4">
     <g id="line2d_10">
      <g>
       <use style="stroke:#000000;stroke-width:0.8;" x="61.2" xlink:href="#m335c2fad56" y="180.571308"/>
      </g>
     </g>
     <g id="text_11">
      <!-- 40 -->
      <g transform="translate(35.1125 186.270137)scale(0.15 -0.15)">
       <use xlink:href="#DejaVuSans-52"/>
       <use x="63.623047" xlink:href="#DejaVuSans-48"/>
      </g>
     </g>
    </g>
    <g id="ytick_5">
     <g id="line2d_11">
      <g>
       <use style="stroke:#000000;stroke-width:0.8;" x="61.2" xlink:href="#m335c2fad56" y="129.636284"/>
      </g>
     </g>
     <g id="text_12">
      <!-- 45 -->
      <g transform="translate(35.1125 135.335113)scale(0.15 -0.15)">
       <use xlink:href="#DejaVuSans-52"/>
       <use x="63.623047" xlink:href="#DejaVuSans-53"/>
      </g>
     </g>
    </g>
    <g id="ytick_6">
     <g id="line2d_12">
      <g>
       <use style="stroke:#000000;stroke-width:0.8;" x="61.2" xlink:href="#m335c2fad56" y="78.70126"/>
      </g>
     </g>
     <g id="text_13">
      <!-- 50 -->
      <g transform="translate(35.1125 84.400089)scale(0.15 -0.15)">
       <use xlink:href="#DejaVuSans-53"/>
       <use x="63.623047" xlink:href="#DejaVuSans-48"/>
      </g>
     </g>
    </g>
    <g id="text_14">
     <!-- Test Accuracy -->
     <defs>
      <path d="M -0.296875 72.90625 
L 61.375 72.90625 
L 61.375 64.59375 
L 35.5 64.59375 
L 35.5 0 
L 25.59375 0 
L 25.59375 64.59375 
L -0.296875 64.59375 
z
" id="DejaVuSans-84"/>
      <path d="M 56.203125 29.59375 
L 56.203125 25.203125 
L 14.890625 25.203125 
Q 15.484375 15.921875 20.484375 11.0625 
Q 25.484375 6.203125 34.421875 6.203125 
Q 39.59375 6.203125 44.453125 7.46875 
Q 49.3125 8.734375 54.109375 11.28125 
L 54.109375 2.78125 
Q 49.265625 0.734375 44.1875 -0.34375 
Q 39.109375 -1.421875 33.890625 -1.421875 
Q 20.796875 -1.421875 13.15625 6.1875 
Q 5.515625 13.8125 5.515625 26.8125 
Q 5.515625 40.234375 12.765625 48.109375 
Q 20.015625 56 32.328125 56 
Q 43.359375 56 49.78125 48.890625 
Q 56.203125 41.796875 56.203125 29.59375 
z
M 47.21875 32.234375 
Q 47.125 39.59375 43.09375 43.984375 
Q 39.0625 48.390625 32.421875 48.390625 
Q 24.90625 48.390625 20.390625 44.140625 
Q 15.875 39.890625 15.1875 32.171875 
z
" id="DejaVuSans-101"/>
      <path d="M 34.1875 63.1875 
L 20.796875 26.90625 
L 47.609375 26.90625 
z
M 28.609375 72.90625 
L 39.796875 72.90625 
L 67.578125 0 
L 57.328125 0 
L 50.6875 18.703125 
L 17.828125 18.703125 
L 11.1875 0 
L 0.78125 0 
z
" id="DejaVuSans-65"/>
      <path d="M 41.109375 46.296875 
Q 39.59375 47.171875 37.8125 47.578125 
Q 36.03125 48 33.890625 48 
Q 26.265625 48 22.1875 43.046875 
Q 18.109375 38.09375 18.109375 28.8125 
L 18.109375 0 
L 9.078125 0 
L 9.078125 54.6875 
L 18.109375 54.6875 
L 18.109375 46.1875 
Q 20.953125 51.171875 25.484375 53.578125 
Q 30.03125 56 36.53125 56 
Q 37.453125 56 38.578125 55.875 
Q 39.703125 55.765625 41.0625 55.515625 
z
" id="DejaVuSans-114"/>
      <path d="M 32.171875 -5.078125 
Q 28.375 -14.84375 24.75 -17.8125 
Q 21.140625 -20.796875 15.09375 -20.796875 
L 7.90625 -20.796875 
L 7.90625 -13.28125 
L 13.1875 -13.28125 
Q 16.890625 -13.28125 18.9375 -11.515625 
Q 21 -9.765625 23.484375 -3.21875 
L 25.09375 0.875 
L 2.984375 54.6875 
L 12.5 54.6875 
L 29.59375 11.921875 
L 46.6875 54.6875 
L 56.203125 54.6875 
z
" id="DejaVuSans-121"/>
     </defs>
     <g transform="translate(27.992969 267.017859)rotate(-90)scale(0.15 -0.15)">
      <use xlink:href="#DejaVuSans-84"/>
      <use x="44.083984" xlink:href="#DejaVuSans-101"/>
      <use x="105.607422" xlink:href="#DejaVuSans-115"/>
      <use x="157.707031" xlink:href="#DejaVuSans-116"/>
      <use x="196.916016" xlink:href="#DejaVuSans-32"/>
      <use x="228.703125" xlink:href="#DejaVuSans-65"/>
      <use x="295.361328" xlink:href="#DejaVuSans-99"/>
      <use x="350.341797" xlink:href="#DejaVuSans-99"/>
      <use x="405.322266" xlink:href="#DejaVuSans-117"/>
      <use x="468.701172" xlink:href="#DejaVuSans-114"/>
      <use x="509.814453" xlink:href="#DejaVuSans-97"/>
      <use x="571.09375" xlink:href="#DejaVuSans-99"/>
      <use x="626.074219" xlink:href="#DejaVuSans-121"/>
     </g>
    </g>
   </g>
   <g id="line2d_13">
    <path clip-path="url(#p0516e4b2b8)" d="M 83.695455 347.719835 
L 92.877273 305.91103 
L 102.059091 269.018011 
L 111.240909 249.522341 
L 120.422727 234.489298 
L 129.604545 221.337848 
L 138.786364 214.254782 
L 147.968182 204.245889 
L 157.15 197.034757 
L 166.331818 187.203186 
L 175.513636 181.538704 
L 184.695455 172.012522 
L 193.877273 167.293762 
L 203.059091 163.599535 
L 212.240909 158.792113 
L 221.422727 154.309784 
L 230.604545 147.867051 
L 239.786364 144.7639 
L 248.968182 136.754815 
L 258.15 134.78456 
L 267.331818 131.573045 
L 276.513636 128.36153 
L 285.695455 126.805029 
L 294.877273 122.923627 
L 304.059091 120.106163 
L 313.240909 117.121227 
L 322.422727 114.155993 
L 331.604545 112.234995 
L 340.786364 110.195782 
L 349.968182 107.742814 
L 359.15 105.348955 
L 368.331818 102.344317 
L 377.513636 101.13261 
L 386.695455 100.305103 
L 395.877273 96.403999 
L 405.059091 95.773517 
L 414.240909 93.064417 
L 423.422727 92.1581 
L 432.604545 90.838029 
L 441.786364 86.799007 
L 450.968182 87.449191 
L 460.15 85.607003 
L 469.331818 82.740283 
L 478.513636 82.56296 
L 487.695455 80.238059 
L 496.877273 78.179143 
L 506.059091 76.396063 
L 515.240909 76.45517 
L 524.422727 75.007033 
L 533.604545 72.494958 
" style="fill:none;stroke:#1f77b4;stroke-linecap:square;stroke-width:1.5;"/>
   </g>
   <g id="line2d_14">
    <path clip-path="url(#p0516e4b2b8)" d="M 83.695455 354.083757 
L 92.877273 308.098013 
L 102.059091 281.716303 
L 111.240909 255.226229 
L 120.422727 244.005628 
L 129.604545 234.11495 
L 138.786364 219.200122 
L 147.968182 212.570215 
L 157.15 200.640323 
L 166.331818 195.172866 
L 175.513636 188.267123 
L 184.695455 182.691303 
L 193.877273 177.736112 
L 203.059091 170.771262 
L 212.240909 165.717558 
L 221.422727 160.841178 
L 230.604545 155.90569 
L 239.786364 153.846774 
L 248.968182 149.600875 
L 258.15 145.079141 
L 267.331818 141.522831 
L 276.513636 138.794028 
L 285.695455 134.764857 
L 294.877273 131.208548 
L 304.059091 129.474724 
L 313.240909 127.534023 
L 322.422727 124.529384 
L 331.604545 122.972883 
L 340.786364 121.199654 
L 349.968182 118.175313 
L 359.15 115.466213 
L 368.331818 113.131461 
L 377.513636 111.890201 
L 386.695455 111.801539 
L 395.877273 107.466979 
L 405.059091 107.851178 
L 414.240909 105.092822 
L 423.422727 105.112524 
L 432.604545 104.285018 
L 441.786364 100.295252 
L 450.968182 98.975181 
L 460.15 99.871647 
L 469.331818 96.088758 
L 478.513636 94.955862 
L 487.695455 92.325572 
L 496.877273 93.458468 
L 506.059091 91.635982 
L 515.240909 91.675388 
L 524.422727 88.838221 
L 533.604545 87.991011 
" style="fill:none;stroke:#ff7f0e;stroke-linecap:square;stroke-width:1.5;"/>
   </g>
   <g id="line2d_15">
    <path clip-path="url(#p0516e4b2b8)" d="M 83.695455 348.429126 
L 92.877273 305.782964 
L 102.059091 283.361465 
L 111.240909 264.939584 
L 120.422727 253.393892 
L 129.604545 238.518469 
L 138.786364 220.352721 
L 147.968182 207.546065 
L 157.15 204.541427 
L 166.331818 195.330486 
L 175.513636 190.326039 
L 184.695455 180.011756 
L 193.877273 174.406382 
L 203.059091 169.244314 
L 212.240909 167.756772 
L 221.422727 156.7529 
L 230.604545 152.940457 
L 239.786364 148.438425 
L 248.968182 143.808326 
L 258.15 141.818369 
L 267.331818 135.602216 
L 276.513636 134.055566 
L 285.695455 129.543683 
L 294.877273 127.327146 
L 304.059091 124.6476 
L 313.240909 123.199462 
L 322.422727 118.342785 
L 331.604545 115.643536 
L 340.786364 113.072353 
L 349.968182 109.850987 
L 359.15 108.846157 
L 368.331818 104.619961 
L 377.513636 106.639472 
L 386.695455 101.694133 
L 395.877273 99.960308 
L 405.059091 97.527044 
L 414.240909 97.9605 
L 423.422727 92.956053 
L 432.604545 92.039885 
L 441.786364 89.774092 
L 450.968182 89.557364 
L 460.15 86.680792 
L 469.331818 86.43451 
L 478.513636 83.331359 
L 487.695455 83.124482 
L 496.877273 81.63694 
L 506.059091 80.405531 
L 515.240909 78.84903 
L 524.422727 77.53881 
L 533.604545 76.396063 
" style="fill:none;stroke:#2ca02c;stroke-linecap:square;stroke-width:1.5;"/>
   </g>
   <g id="line2d_16">
    <path clip-path="url(#p0516e4b2b8)" d="M 83.695455 354.753644 
L 92.877273 301.832603 
L 102.059091 276.465574 
L 111.240909 252.704303 
L 120.422727 239.45434 
L 129.604545 221.308294 
L 138.786364 214.23508 
L 147.968182 203.881392 
L 157.15 192.010607 
L 166.331818 186.671217 
L 175.513636 183.361189 
L 184.695455 175.32255 
L 193.877273 167.096737 
L 203.059091 163.501022 
L 212.240909 158.476872 
L 221.422727 154.171866 
L 230.604545 150.379126 
L 239.786364 143.83788 
L 248.968182 141.798667 
L 258.15 137.818752 
L 267.331818 134.932329 
L 276.513636 131.247953 
L 285.695455 127.218782 
L 294.877273 122.401509 
L 304.059091 120.845008 
L 313.240909 119.08163 
L 322.422727 115.338146 
L 331.604545 113.092056 
L 340.786364 110.964181 
L 349.968182 109.131844 
L 359.15 107.417722 
L 368.331818 106.274975 
L 377.513636 103.408254 
L 386.695455 101.881307 
L 395.877273 99.635216 
L 405.059091 97.408829 
L 414.240909 95.763666 
L 423.422727 92.936351 
L 432.604545 92.768879 
L 441.786364 90.788773 
L 450.968182 89.202718 
L 460.15 87.183207 
L 469.331818 86.237485 
L 478.513636 83.843625 
L 487.695455 82.56296 
L 496.877273 80.799582 
L 506.059091 79.568173 
L 515.240909 78.70126 
L 524.422727 76.159632 
L 533.604545 76.159632 
" style="fill:none;stroke:#d62728;stroke-linecap:square;stroke-width:1.5;"/>
   </g>
   <g id="patch_3">
    <path d="M 61.2 374.8 
L 61.2 56.448219 
" style="fill:none;stroke:#000000;stroke-linecap:square;stroke-linejoin:miter;stroke-width:0.8;"/>
   </g>
   <g id="patch_4">
    <path d="M 556.1 374.8 
L 556.1 56.448219 
" style="fill:none;stroke:#000000;stroke-linecap:square;stroke-linejoin:miter;stroke-width:0.8;"/>
   </g>
   <g id="patch_5">
    <path d="M 61.2 374.8 
L 556.1 374.8 
" style="fill:none;stroke:#000000;stroke-linecap:square;stroke-linejoin:miter;stroke-width:0.8;"/>
   </g>
   <g id="patch_6">
    <path d="M 61.2 56.448219 
L 556.1 56.448219 
" style="fill:none;stroke:#000000;stroke-linecap:square;stroke-linejoin:miter;stroke-width:0.8;"/>
   </g>
   <g id="legend_1">
    <g id="patch_7">
     <path d="M 59.052344 42.712639 
L 558.247656 42.712639 
Q 561.247656 42.712639 561.247656 39.712639 
L 561.247656 19.195452 
Q 561.247656 16.195452 558.247656 16.195452 
L 59.052344 16.195452 
Q 56.052344 16.195452 56.052344 19.195452 
L 56.052344 39.712639 
Q 56.052344 42.712639 59.052344 42.712639 
z
" style="fill:#ffffff;opacity:0.8;stroke:#cccccc;stroke-linejoin:miter;"/>
    </g>
    <g id="line2d_17">
     <path d="M 62.052344 28.343108 
L 92.052344 28.343108 
" style="fill:none;stroke:#1f77b4;stroke-linecap:square;stroke-width:1.5;"/>
    </g>
    <g id="line2d_18"/>
    <g id="text_15">
     <!-- FedAvg -->
     <defs>
      <path d="M 9.8125 72.90625 
L 51.703125 72.90625 
L 51.703125 64.59375 
L 19.671875 64.59375 
L 19.671875 43.109375 
L 48.578125 43.109375 
L 48.578125 34.8125 
L 19.671875 34.8125 
L 19.671875 0 
L 9.8125 0 
z
" id="DejaVuSans-70"/>
      <path d="M 2.984375 54.6875 
L 12.5 54.6875 
L 29.59375 8.796875 
L 46.6875 54.6875 
L 56.203125 54.6875 
L 35.6875 0 
L 23.484375 0 
z
" id="DejaVuSans-118"/>
      <path d="M 45.40625 27.984375 
Q 45.40625 37.75 41.375 43.109375 
Q 37.359375 48.484375 30.078125 48.484375 
Q 22.859375 48.484375 18.828125 43.109375 
Q 14.796875 37.75 14.796875 27.984375 
Q 14.796875 18.265625 18.828125 12.890625 
Q 22.859375 7.515625 30.078125 7.515625 
Q 37.359375 7.515625 41.375 12.890625 
Q 45.40625 18.265625 45.40625 27.984375 
z
M 54.390625 6.78125 
Q 54.390625 -7.171875 48.1875 -13.984375 
Q 42 -20.796875 29.203125 -20.796875 
Q 24.46875 -20.796875 20.265625 -20.09375 
Q 16.0625 -19.390625 12.109375 -17.921875 
L 12.109375 -9.1875 
Q 16.0625 -11.328125 19.921875 -12.34375 
Q 23.78125 -13.375 27.78125 -13.375 
Q 36.625 -13.375 41.015625 -8.765625 
Q 45.40625 -4.15625 45.40625 5.171875 
L 45.40625 9.625 
Q 42.625 4.78125 38.28125 2.390625 
Q 33.9375 0 27.875 0 
Q 17.828125 0 11.671875 7.65625 
Q 5.515625 15.328125 5.515625 27.984375 
Q 5.515625 40.671875 11.671875 48.328125 
Q 17.828125 56 27.875 56 
Q 33.9375 56 38.28125 53.609375 
Q 42.625 51.21875 45.40625 46.390625 
L 45.40625 54.6875 
L 54.390625 54.6875 
z
" id="DejaVuSans-103"/>
     </defs>
     <g transform="translate(104.052344 33.593108)scale(0.15 -0.15)">
      <use xlink:href="#DejaVuSans-70"/>
      <use x="52.019531" xlink:href="#DejaVuSans-101"/>
      <use x="113.542969" xlink:href="#DejaVuSans-100"/>
      <use x="177.019531" xlink:href="#DejaVuSans-65"/>
      <use x="239.552734" xlink:href="#DejaVuSans-118"/>
      <use x="298.732422" xlink:href="#DejaVuSans-103"/>
     </g>
    </g>
    <g id="line2d_19">
     <path d="M 188.3875 28.343108 
L 218.3875 28.343108 
" style="fill:none;stroke:#ff7f0e;stroke-linecap:square;stroke-width:1.5;"/>
    </g>
    <g id="line2d_20"/>
    <g id="text_16">
     <!-- FedMed -->
     <defs>
      <path d="M 9.8125 72.90625 
L 24.515625 72.90625 
L 43.109375 23.296875 
L 61.8125 72.90625 
L 76.515625 72.90625 
L 76.515625 0 
L 66.890625 0 
L 66.890625 64.015625 
L 48.09375 14.015625 
L 38.1875 14.015625 
L 19.390625 64.015625 
L 19.390625 0 
L 9.8125 0 
z
" id="DejaVuSans-77"/>
     </defs>
     <g transform="translate(230.3875 33.593108)scale(0.15 -0.15)">
      <use xlink:href="#DejaVuSans-70"/>
      <use x="52.019531" xlink:href="#DejaVuSans-101"/>
      <use x="113.542969" xlink:href="#DejaVuSans-100"/>
      <use x="177.019531" xlink:href="#DejaVuSans-77"/>
      <use x="263.298828" xlink:href="#DejaVuSans-101"/>
      <use x="324.822266" xlink:href="#DejaVuSans-100"/>
     </g>
    </g>
    <g id="line2d_21">
     <path d="M 318.636719 28.343108 
L 348.636719 28.343108 
" style="fill:none;stroke:#2ca02c;stroke-linecap:square;stroke-width:1.5;"/>
    </g>
    <g id="line2d_22"/>
    <g id="text_17">
     <!-- FedProx -->
     <defs>
      <path d="M 19.671875 64.796875 
L 19.671875 37.40625 
L 32.078125 37.40625 
Q 38.96875 37.40625 42.71875 40.96875 
Q 46.484375 44.53125 46.484375 51.125 
Q 46.484375 57.671875 42.71875 61.234375 
Q 38.96875 64.796875 32.078125 64.796875 
z
M 9.8125 72.90625 
L 32.078125 72.90625 
Q 44.34375 72.90625 50.609375 67.359375 
Q 56.890625 61.8125 56.890625 51.125 
Q 56.890625 40.328125 50.609375 34.8125 
Q 44.34375 29.296875 32.078125 29.296875 
L 19.671875 29.296875 
L 19.671875 0 
L 9.8125 0 
z
" id="DejaVuSans-80"/>
      <path d="M 54.890625 54.6875 
L 35.109375 28.078125 
L 55.90625 0 
L 45.3125 0 
L 29.390625 21.484375 
L 13.484375 0 
L 2.875 0 
L 24.125 28.609375 
L 4.6875 54.6875 
L 15.28125 54.6875 
L 29.78125 35.203125 
L 44.28125 54.6875 
z
" id="DejaVuSans-120"/>
     </defs>
     <g transform="translate(360.636719 33.593108)scale(0.15 -0.15)">
      <use xlink:href="#DejaVuSans-70"/>
      <use x="52.019531" xlink:href="#DejaVuSans-101"/>
      <use x="113.542969" xlink:href="#DejaVuSans-100"/>
      <use x="177.019531" xlink:href="#DejaVuSans-80"/>
      <use x="235.572266" xlink:href="#DejaVuSans-114"/>
      <use x="274.435547" xlink:href="#DejaVuSans-111"/>
      <use x="332.492188" xlink:href="#DejaVuSans-120"/>
     </g>
    </g>
    <g id="line2d_23">
     <path d="M 449.389844 28.343108 
L 479.389844 28.343108 
" style="fill:none;stroke:#d62728;stroke-linecap:square;stroke-width:1.5;"/>
    </g>
    <g id="line2d_24"/>
    <g id="text_18">
     <!-- qFedAvg -->
     <defs>
      <path d="M 14.796875 27.296875 
Q 14.796875 17.390625 18.875 11.75 
Q 22.953125 6.109375 30.078125 6.109375 
Q 37.203125 6.109375 41.296875 11.75 
Q 45.40625 17.390625 45.40625 27.296875 
Q 45.40625 37.203125 41.296875 42.84375 
Q 37.203125 48.484375 30.078125 48.484375 
Q 22.953125 48.484375 18.875 42.84375 
Q 14.796875 37.203125 14.796875 27.296875 
z
M 45.40625 8.203125 
Q 42.578125 3.328125 38.25 0.953125 
Q 33.9375 -1.421875 27.875 -1.421875 
Q 17.96875 -1.421875 11.734375 6.484375 
Q 5.515625 14.40625 5.515625 27.296875 
Q 5.515625 40.1875 11.734375 48.09375 
Q 17.96875 56 27.875 56 
Q 33.9375 56 38.25 53.625 
Q 42.578125 51.265625 45.40625 46.390625 
L 45.40625 54.6875 
L 54.390625 54.6875 
L 54.390625 -20.796875 
L 45.40625 -20.796875 
z
" id="DejaVuSans-113"/>
     </defs>
     <g transform="translate(491.389844 33.593108)scale(0.15 -0.15)">
      <use xlink:href="#DejaVuSans-113"/>
      <use x="63.476562" xlink:href="#DejaVuSans-70"/>
      <use x="115.496094" xlink:href="#DejaVuSans-101"/>
      <use x="177.019531" xlink:href="#DejaVuSans-100"/>
      <use x="240.496094" xlink:href="#DejaVuSans-65"/>
      <use x="303.029297" xlink:href="#DejaVuSans-118"/>
      <use x="362.208984" xlink:href="#DejaVuSans-103"/>
     </g>
    </g>
   </g>
  </g>
 </g>
 <defs>
  <clipPath id="p0516e4b2b8">
   <rect height="318.351781" width="494.9" x="61.2" y="56.448219"/>
  </clipPath>
 </defs>
</svg>
