<?xml version="1.0" encoding="utf-8" standalone="no"?>
<!DOCTYPE svg PUBLIC "-//W3C//DTD SVG 1.1//EN"
  "http://www.w3.org/Graphics/SVG/1.1/DTD/svg11.dtd">
<svg height="432pt" version="1.1" viewBox="0 0 576 432" width="576pt" xmlns="http://www.w3.org/2000/svg" xmlns:xlink="http://www.w3.org/1999/xlink">
 <metadata>
  <rdf:RDF xmlns:cc="http://creativecommons.org/ns#" xmlns:dc="http://purl.org/dc/elements/1.1/" xmlns:rdf="http://www.w3.org/1999/02/22-rdf-syntax-ns#">
   <cc:Work>
    <dc:type rdf:resource="http://purl.org/dc/dcmitype/StillImage"/>
    <dc:date>2021-05-07T22:05:11.155459</dc:date>
    <dc:format>image/svg+xml</dc:format>
    <dc:creator>
     <cc:Agent>
      <dc:title>Matplotlib v3.4.1, https://matplotlib.org/</dc:title>
     </cc:Agent>
    </dc:creator>
   </cc:Work>
  </rdf:RDF>
 </metadata>
 <defs>
  <style type="text/css">*{stroke-linecap:butt;stroke-linejoin:round;}</style>
 </defs>
 <g id="figure_1">
  <g id="patch_1">
   <path d="M 0 432 
L 576 432 
L 576 0 
L 0 0 
z
" style="fill:#ffffff;"/>
  </g>
  <g id="axes_1">
   <g id="patch_2">
    <path d="M 60.77 308.432182 
L 559.8 308.432182 
L 559.8 58.596 
L 60.77 58.596 
z
" style="fill:#ffffff;"/>
   </g>
   <g id="matplotlib.axis_1">
    <g id="xtick_1">
     <g id="line2d_1">
      <path clip-path="url(#p6a47e3bf90)" d="M 102.355833 308.432182 
L 102.355833 58.596 
" style="fill:none;stroke:#b0b0b0;stroke-linecap:square;stroke-width:0.8;"/>
     </g>
     <g id="line2d_2">
      <defs>
       <path d="M 0 0 
L 0 3.5 
" id="m1e1f805d43" style="stroke:#000000;stroke-width:0.8;"/>
      </defs>
      <g>
       <use style="stroke:#000000;stroke-width:0.8;" x="102.355833" xlink:href="#m1e1f805d43" y="308.432182"/>
      </g>
     </g>
     <g id="text_1">
      <!-- FedAvg CNN -->
      <g transform="translate(35.081805 388.559729)rotate(-45)scale(0.15 -0.15)">
       <defs>
        <path d="M 628 4666 
L 3309 4666 
L 3309 4134 
L 1259 4134 
L 1259 2759 
L 3109 2759 
L 3109 2228 
L 1259 2228 
L 1259 0 
L 628 0 
L 628 4666 
z
" id="DejaVuSans-46" transform="scale(0.015625)"/>
        <path d="M 3597 1894 
L 3597 1613 
L 953 1613 
Q 991 1019 1311 708 
Q 1631 397 2203 397 
Q 2534 397 2845 478 
Q 3156 559 3463 722 
L 3463 178 
Q 3153 47 2828 -22 
Q 2503 -91 2169 -91 
Q 1331 -91 842 396 
Q 353 884 353 1716 
Q 353 2575 817 3079 
Q 1281 3584 2069 3584 
Q 2775 3584 3186 3129 
Q 3597 2675 3597 1894 
z
M 3022 2063 
Q 3016 2534 2758 2815 
Q 2500 3097 2075 3097 
Q 1594 3097 1305 2825 
Q 1016 2553 972 2059 
L 3022 2063 
z
" id="DejaVuSans-65" transform="scale(0.015625)"/>
        <path d="M 2906 2969 
L 2906 4863 
L 3481 4863 
L 3481 0 
L 2906 0 
L 2906 525 
Q 2725 213 2448 61 
Q 2172 -91 1784 -91 
Q 1150 -91 751 415 
Q 353 922 353 1747 
Q 353 2572 751 3078 
Q 1150 3584 1784 3584 
Q 2172 3584 2448 3432 
Q 2725 3281 2906 2969 
z
M 947 1747 
Q 947 1113 1208 752 
Q 1469 391 1925 391 
Q 2381 391 2643 752 
Q 2906 1113 2906 1747 
Q 2906 2381 2643 2742 
Q 2381 3103 1925 3103 
Q 1469 3103 1208 2742 
Q 947 2381 947 1747 
z
" id="DejaVuSans-64" transform="scale(0.015625)"/>
        <path d="M 2188 4044 
L 1331 1722 
L 3047 1722 
L 2188 4044 
z
M 1831 4666 
L 2547 4666 
L 4325 0 
L 3669 0 
L 3244 1197 
L 1141 1197 
L 716 0 
L 50 0 
L 1831 4666 
z
" id="DejaVuSans-41" transform="scale(0.015625)"/>
        <path d="M 191 3500 
L 800 3500 
L 1894 563 
L 2988 3500 
L 3597 3500 
L 2284 0 
L 1503 0 
L 191 3500 
z
" id="DejaVuSans-76" transform="scale(0.015625)"/>
        <path d="M 2906 1791 
Q 2906 2416 2648 2759 
Q 2391 3103 1925 3103 
Q 1463 3103 1205 2759 
Q 947 2416 947 1791 
Q 947 1169 1205 825 
Q 1463 481 1925 481 
Q 2391 481 2648 825 
Q 2906 1169 2906 1791 
z
M 3481 434 
Q 3481 -459 3084 -895 
Q 2688 -1331 1869 -1331 
Q 1566 -1331 1297 -1286 
Q 1028 -1241 775 -1147 
L 775 -588 
Q 1028 -725 1275 -790 
Q 1522 -856 1778 -856 
Q 2344 -856 2625 -561 
Q 2906 -266 2906 331 
L 2906 616 
Q 2728 306 2450 153 
Q 2172 0 1784 0 
Q 1141 0 747 490 
Q 353 981 353 1791 
Q 353 2603 747 3093 
Q 1141 3584 1784 3584 
Q 2172 3584 2450 3431 
Q 2728 3278 2906 2969 
L 2906 3500 
L 3481 3500 
L 3481 434 
z
" id="DejaVuSans-67" transform="scale(0.015625)"/>
        <path id="DejaVuSans-20" transform="scale(0.015625)"/>
        <path d="M 4122 4306 
L 4122 3641 
Q 3803 3938 3442 4084 
Q 3081 4231 2675 4231 
Q 1875 4231 1450 3742 
Q 1025 3253 1025 2328 
Q 1025 1406 1450 917 
Q 1875 428 2675 428 
Q 3081 428 3442 575 
Q 3803 722 4122 1019 
L 4122 359 
Q 3791 134 3420 21 
Q 3050 -91 2638 -91 
Q 1578 -91 968 557 
Q 359 1206 359 2328 
Q 359 3453 968 4101 
Q 1578 4750 2638 4750 
Q 3056 4750 3426 4639 
Q 3797 4528 4122 4306 
z
" id="DejaVuSans-43" transform="scale(0.015625)"/>
        <path d="M 628 4666 
L 1478 4666 
L 3547 763 
L 3547 4666 
L 4159 4666 
L 4159 0 
L 3309 0 
L 1241 3903 
L 1241 0 
L 628 0 
L 628 4666 
z
" id="DejaVuSans-4e" transform="scale(0.015625)"/>
       </defs>
       <use xlink:href="#DejaVuSans-46"/>
       <use x="52.019531" xlink:href="#DejaVuSans-65"/>
       <use x="113.542969" xlink:href="#DejaVuSans-64"/>
       <use x="177.019531" xlink:href="#DejaVuSans-41"/>
       <use x="239.552734" xlink:href="#DejaVuSans-76"/>
       <use x="298.732422" xlink:href="#DejaVuSans-67"/>
       <use x="362.208984" xlink:href="#DejaVuSans-20"/>
       <use x="393.996094" xlink:href="#DejaVuSans-43"/>
       <use x="463.820312" xlink:href="#DejaVuSans-4e"/>
       <use x="538.625" xlink:href="#DejaVuSans-4e"/>
      </g>
     </g>
    </g>
    <g id="xtick_2">
     <g id="line2d_3">
      <path clip-path="url(#p6a47e3bf90)" d="M 240.975278 308.432182 
L 240.975278 58.596 
" style="fill:none;stroke:#b0b0b0;stroke-linecap:square;stroke-width:0.8;"/>
     </g>
     <g id="line2d_4">
      <g>
       <use style="stroke:#000000;stroke-width:0.8;" x="240.975278" xlink:href="#m1e1f805d43" y="308.432182"/>
      </g>
     </g>
     <g id="text_2">
      <!-- FedMed CNN -->
      <g transform="translate(170.933589 391.327389)rotate(-45)scale(0.15 -0.15)">
       <defs>
        <path d="M 628 4666 
L 1569 4666 
L 2759 1491 
L 3956 4666 
L 4897 4666 
L 4897 0 
L 4281 0 
L 4281 4097 
L 3078 897 
L 2444 897 
L 1241 4097 
L 1241 0 
L 628 0 
L 628 4666 
z
" id="DejaVuSans-4d" transform="scale(0.015625)"/>
       </defs>
       <use xlink:href="#DejaVuSans-46"/>
       <use x="52.019531" xlink:href="#DejaVuSans-65"/>
       <use x="113.542969" xlink:href="#DejaVuSans-64"/>
       <use x="177.019531" xlink:href="#DejaVuSans-4d"/>
       <use x="263.298828" xlink:href="#DejaVuSans-65"/>
       <use x="324.822266" xlink:href="#DejaVuSans-64"/>
       <use x="388.298828" xlink:href="#DejaVuSans-20"/>
       <use x="420.085938" xlink:href="#DejaVuSans-43"/>
       <use x="489.910156" xlink:href="#DejaVuSans-4e"/>
       <use x="564.714844" xlink:href="#DejaVuSans-4e"/>
      </g>
     </g>
    </g>
    <g id="xtick_3">
     <g id="line2d_5">
      <path clip-path="url(#p6a47e3bf90)" d="M 379.594722 308.432182 
L 379.594722 58.596 
" style="fill:none;stroke:#b0b0b0;stroke-linecap:square;stroke-width:0.8;"/>
     </g>
     <g id="line2d_6">
      <g>
       <use style="stroke:#000000;stroke-width:0.8;" x="379.594722" xlink:href="#m1e1f805d43" y="308.432182"/>
      </g>
     </g>
     <g id="text_3">
      <!-- FedProx CNN -->
      <g transform="translate(309.196718 391.683705)rotate(-45)scale(0.15 -0.15)">
       <defs>
        <path d="M 1259 4147 
L 1259 2394 
L 2053 2394 
Q 2494 2394 2734 2622 
Q 2975 2850 2975 3272 
Q 2975 3691 2734 3919 
Q 2494 4147 2053 4147 
L 1259 4147 
z
M 628 4666 
L 2053 4666 
Q 2838 4666 3239 4311 
Q 3641 3956 3641 3272 
Q 3641 2581 3239 2228 
Q 2838 1875 2053 1875 
L 1259 1875 
L 1259 0 
L 628 0 
L 628 4666 
z
" id="DejaVuSans-50" transform="scale(0.015625)"/>
        <path d="M 2631 2963 
Q 2534 3019 2420 3045 
Q 2306 3072 2169 3072 
Q 1681 3072 1420 2755 
Q 1159 2438 1159 1844 
L 1159 0 
L 581 0 
L 581 3500 
L 1159 3500 
L 1159 2956 
Q 1341 3275 1631 3429 
Q 1922 3584 2338 3584 
Q 2397 3584 2469 3576 
Q 2541 3569 2628 3553 
L 2631 2963 
z
" id="DejaVuSans-72" transform="scale(0.015625)"/>
        <path d="M 1959 3097 
Q 1497 3097 1228 2736 
Q 959 2375 959 1747 
Q 959 1119 1226 758 
Q 1494 397 1959 397 
Q 2419 397 2687 759 
Q 2956 1122 2956 1747 
Q 2956 2369 2687 2733 
Q 2419 3097 1959 3097 
z
M 1959 3584 
Q 2709 3584 3137 3096 
Q 3566 2609 3566 1747 
Q 3566 888 3137 398 
Q 2709 -91 1959 -91 
Q 1206 -91 779 398 
Q 353 888 353 1747 
Q 353 2609 779 3096 
Q 1206 3584 1959 3584 
z
" id="DejaVuSans-6f" transform="scale(0.015625)"/>
        <path d="M 3513 3500 
L 2247 1797 
L 3578 0 
L 2900 0 
L 1881 1375 
L 863 0 
L 184 0 
L 1544 1831 
L 300 3500 
L 978 3500 
L 1906 2253 
L 2834 3500 
L 3513 3500 
z
" id="DejaVuSans-78" transform="scale(0.015625)"/>
       </defs>
       <use xlink:href="#DejaVuSans-46"/>
       <use x="52.019531" xlink:href="#DejaVuSans-65"/>
       <use x="113.542969" xlink:href="#DejaVuSans-64"/>
       <use x="177.019531" xlink:href="#DejaVuSans-50"/>
       <use x="235.572266" xlink:href="#DejaVuSans-72"/>
       <use x="274.435547" xlink:href="#DejaVuSans-6f"/>
       <use x="332.492188" xlink:href="#DejaVuSans-78"/>
       <use x="391.671875" xlink:href="#DejaVuSans-20"/>
       <use x="423.458984" xlink:href="#DejaVuSans-43"/>
       <use x="493.283203" xlink:href="#DejaVuSans-4e"/>
       <use x="568.087891" xlink:href="#DejaVuSans-4e"/>
      </g>
     </g>
    </g>
    <g id="xtick_4">
     <g id="line2d_7">
      <path clip-path="url(#p6a47e3bf90)" d="M 518.214167 308.432182 
L 518.214167 58.596 
" style="fill:none;stroke:#b0b0b0;stroke-linecap:square;stroke-width:0.8;"/>
     </g>
     <g id="line2d_8">
      <g>
       <use style="stroke:#000000;stroke-width:0.8;" x="518.214167" xlink:href="#m1e1f805d43" y="308.432182"/>
      </g>
     </g>
     <g id="text_4">
      <!-- qFedAvg CNN -->
      <g transform="translate(444.206603 395.293264)rotate(-45)scale(0.15 -0.15)">
       <defs>
        <path d="M 947 1747 
Q 947 1113 1208 752 
Q 1469 391 1925 391 
Q 2381 391 2643 752 
Q 2906 1113 2906 1747 
Q 2906 2381 2643 2742 
Q 2381 3103 1925 3103 
Q 1469 3103 1208 2742 
Q 947 2381 947 1747 
z
M 2906 525 
Q 2725 213 2448 61 
Q 2172 -91 1784 -91 
Q 1150 -91 751 415 
Q 353 922 353 1747 
Q 353 2572 751 3078 
Q 1150 3584 1784 3584 
Q 2172 3584 2448 3432 
Q 2725 3281 2906 2969 
L 2906 3500 
L 3481 3500 
L 3481 -1331 
L 2906 -1331 
L 2906 525 
z
" id="DejaVuSans-71" transform="scale(0.015625)"/>
       </defs>
       <use xlink:href="#DejaVuSans-71"/>
       <use x="63.476562" xlink:href="#DejaVuSans-46"/>
       <use x="115.496094" xlink:href="#DejaVuSans-65"/>
       <use x="177.019531" xlink:href="#DejaVuSans-64"/>
       <use x="240.496094" xlink:href="#DejaVuSans-41"/>
       <use x="303.029297" xlink:href="#DejaVuSans-76"/>
       <use x="362.208984" xlink:href="#DejaVuSans-67"/>
       <use x="425.685547" xlink:href="#DejaVuSans-20"/>
       <use x="457.472656" xlink:href="#DejaVuSans-43"/>
       <use x="527.296875" xlink:href="#DejaVuSans-4e"/>
       <use x="602.101562" xlink:href="#DejaVuSans-4e"/>
      </g>
     </g>
    </g>
    <g id="text_5">
     <!-- Algorithms -->
     <g transform="translate(269.647891 412.896762)scale(0.15 -0.15)">
      <defs>
       <path d="M 603 4863 
L 1178 4863 
L 1178 0 
L 603 0 
L 603 4863 
z
" id="DejaVuSans-6c" transform="scale(0.015625)"/>
       <path d="M 603 3500 
L 1178 3500 
L 1178 0 
L 603 0 
L 603 3500 
z
M 603 4863 
L 1178 4863 
L 1178 4134 
L 603 4134 
L 603 4863 
z
" id="DejaVuSans-69" transform="scale(0.015625)"/>
       <path d="M 1172 4494 
L 1172 3500 
L 2356 3500 
L 2356 3053 
L 1172 3053 
L 1172 1153 
Q 1172 725 1289 603 
Q 1406 481 1766 481 
L 2356 481 
L 2356 0 
L 1766 0 
Q 1100 0 847 248 
Q 594 497 594 1153 
L 594 3053 
L 172 3053 
L 172 3500 
L 594 3500 
L 594 4494 
L 1172 4494 
z
" id="DejaVuSans-74" transform="scale(0.015625)"/>
       <path d="M 3513 2113 
L 3513 0 
L 2938 0 
L 2938 2094 
Q 2938 2591 2744 2837 
Q 2550 3084 2163 3084 
Q 1697 3084 1428 2787 
Q 1159 2491 1159 1978 
L 1159 0 
L 581 0 
L 581 4863 
L 1159 4863 
L 1159 2956 
Q 1366 3272 1645 3428 
Q 1925 3584 2291 3584 
Q 2894 3584 3203 3211 
Q 3513 2838 3513 2113 
z
" id="DejaVuSans-68" transform="scale(0.015625)"/>
       <path d="M 3328 2828 
Q 3544 3216 3844 3400 
Q 4144 3584 4550 3584 
Q 5097 3584 5394 3201 
Q 5691 2819 5691 2113 
L 5691 0 
L 5113 0 
L 5113 2094 
Q 5113 2597 4934 2840 
Q 4756 3084 4391 3084 
Q 3944 3084 3684 2787 
Q 3425 2491 3425 1978 
L 3425 0 
L 2847 0 
L 2847 2094 
Q 2847 2600 2669 2842 
Q 2491 3084 2119 3084 
Q 1678 3084 1418 2786 
Q 1159 2488 1159 1978 
L 1159 0 
L 581 0 
L 581 3500 
L 1159 3500 
L 1159 2956 
Q 1356 3278 1631 3431 
Q 1906 3584 2284 3584 
Q 2666 3584 2933 3390 
Q 3200 3197 3328 2828 
z
" id="DejaVuSans-6d" transform="scale(0.015625)"/>
       <path d="M 2834 3397 
L 2834 2853 
Q 2591 2978 2328 3040 
Q 2066 3103 1784 3103 
Q 1356 3103 1142 2972 
Q 928 2841 928 2578 
Q 928 2378 1081 2264 
Q 1234 2150 1697 2047 
L 1894 2003 
Q 2506 1872 2764 1633 
Q 3022 1394 3022 966 
Q 3022 478 2636 193 
Q 2250 -91 1575 -91 
Q 1294 -91 989 -36 
Q 684 19 347 128 
L 347 722 
Q 666 556 975 473 
Q 1284 391 1588 391 
Q 1994 391 2212 530 
Q 2431 669 2431 922 
Q 2431 1156 2273 1281 
Q 2116 1406 1581 1522 
L 1381 1569 
Q 847 1681 609 1914 
Q 372 2147 372 2553 
Q 372 3047 722 3315 
Q 1072 3584 1716 3584 
Q 2034 3584 2315 3537 
Q 2597 3491 2834 3397 
z
" id="DejaVuSans-73" transform="scale(0.015625)"/>
      </defs>
      <use xlink:href="#DejaVuSans-41"/>
      <use x="68.408203" xlink:href="#DejaVuSans-6c"/>
      <use x="96.191406" xlink:href="#DejaVuSans-67"/>
      <use x="159.667969" xlink:href="#DejaVuSans-6f"/>
      <use x="220.849609" xlink:href="#DejaVuSans-72"/>
      <use x="261.962891" xlink:href="#DejaVuSans-69"/>
      <use x="289.746094" xlink:href="#DejaVuSans-74"/>
      <use x="328.955078" xlink:href="#DejaVuSans-68"/>
      <use x="392.333984" xlink:href="#DejaVuSans-6d"/>
      <use x="489.746094" xlink:href="#DejaVuSans-73"/>
     </g>
    </g>
   </g>
   <g id="matplotlib.axis_2">
    <g id="ytick_1">
     <g id="line2d_9">
      <path clip-path="url(#p6a47e3bf90)" d="M 60.77 300.530763 
L 559.8 300.530763 
" style="fill:none;stroke:#b0b0b0;stroke-linecap:square;stroke-width:0.8;"/>
     </g>
     <g id="line2d_10">
      <defs>
       <path d="M 0 0 
L -3.5 0 
" id="m77127fc6ce" style="stroke:#000000;stroke-width:0.8;"/>
      </defs>
      <g>
       <use style="stroke:#000000;stroke-width:0.8;" x="60.77" xlink:href="#m77127fc6ce" y="300.530763"/>
      </g>
     </g>
     <g id="text_6">
      <!-- 30 -->
      <g transform="translate(34.6825 306.229591)scale(0.15 -0.15)">
       <defs>
        <path d="M 2597 2516 
Q 3050 2419 3304 2112 
Q 3559 1806 3559 1356 
Q 3559 666 3084 287 
Q 2609 -91 1734 -91 
Q 1441 -91 1130 -33 
Q 819 25 488 141 
L 488 750 
Q 750 597 1062 519 
Q 1375 441 1716 441 
Q 2309 441 2620 675 
Q 2931 909 2931 1356 
Q 2931 1769 2642 2001 
Q 2353 2234 1838 2234 
L 1294 2234 
L 1294 2753 
L 1863 2753 
Q 2328 2753 2575 2939 
Q 2822 3125 2822 3475 
Q 2822 3834 2567 4026 
Q 2313 4219 1838 4219 
Q 1578 4219 1281 4162 
Q 984 4106 628 3988 
L 628 4550 
Q 988 4650 1302 4700 
Q 1616 4750 1894 4750 
Q 2613 4750 3031 4423 
Q 3450 4097 3450 3541 
Q 3450 3153 3228 2886 
Q 3006 2619 2597 2516 
z
" id="DejaVuSans-33" transform="scale(0.015625)"/>
        <path d="M 2034 4250 
Q 1547 4250 1301 3770 
Q 1056 3291 1056 2328 
Q 1056 1369 1301 889 
Q 1547 409 2034 409 
Q 2525 409 2770 889 
Q 3016 1369 3016 2328 
Q 3016 3291 2770 3770 
Q 2525 4250 2034 4250 
z
M 2034 4750 
Q 2819 4750 3233 4129 
Q 3647 3509 3647 2328 
Q 3647 1150 3233 529 
Q 2819 -91 2034 -91 
Q 1250 -91 836 529 
Q 422 1150 422 2328 
Q 422 3509 836 4129 
Q 1250 4750 2034 4750 
z
" id="DejaVuSans-30" transform="scale(0.015625)"/>
       </defs>
       <use xlink:href="#DejaVuSans-33"/>
       <use x="63.623047" xlink:href="#DejaVuSans-30"/>
      </g>
     </g>
    </g>
    <g id="ytick_2">
     <g id="line2d_11">
      <path clip-path="url(#p6a47e3bf90)" d="M 60.77 259.907295 
L 559.8 259.907295 
" style="fill:none;stroke:#b0b0b0;stroke-linecap:square;stroke-width:0.8;"/>
     </g>
     <g id="line2d_12">
      <g>
       <use style="stroke:#000000;stroke-width:0.8;" x="60.77" xlink:href="#m77127fc6ce" y="259.907295"/>
      </g>
     </g>
     <g id="text_7">
      <!-- 40 -->
      <g transform="translate(34.6825 265.606123)scale(0.15 -0.15)">
       <defs>
        <path d="M 2419 4116 
L 825 1625 
L 2419 1625 
L 2419 4116 
z
M 2253 4666 
L 3047 4666 
L 3047 1625 
L 3713 1625 
L 3713 1100 
L 3047 1100 
L 3047 0 
L 2419 0 
L 2419 1100 
L 313 1100 
L 313 1709 
L 2253 4666 
z
" id="DejaVuSans-34" transform="scale(0.015625)"/>
       </defs>
       <use xlink:href="#DejaVuSans-34"/>
       <use x="63.623047" xlink:href="#DejaVuSans-30"/>
      </g>
     </g>
    </g>
    <g id="ytick_3">
     <g id="line2d_13">
      <path clip-path="url(#p6a47e3bf90)" d="M 60.77 219.283826 
L 559.8 219.283826 
" style="fill:none;stroke:#b0b0b0;stroke-linecap:square;stroke-width:0.8;"/>
     </g>
     <g id="line2d_14">
      <g>
       <use style="stroke:#000000;stroke-width:0.8;" x="60.77" xlink:href="#m77127fc6ce" y="219.283826"/>
      </g>
     </g>
     <g id="text_8">
      <!-- 50 -->
      <g transform="translate(34.6825 224.982654)scale(0.15 -0.15)">
       <defs>
        <path d="M 691 4666 
L 3169 4666 
L 3169 4134 
L 1269 4134 
L 1269 2991 
Q 1406 3038 1543 3061 
Q 1681 3084 1819 3084 
Q 2600 3084 3056 2656 
Q 3513 2228 3513 1497 
Q 3513 744 3044 326 
Q 2575 -91 1722 -91 
Q 1428 -91 1123 -41 
Q 819 9 494 109 
L 494 744 
Q 775 591 1075 516 
Q 1375 441 1709 441 
Q 2250 441 2565 725 
Q 2881 1009 2881 1497 
Q 2881 1984 2565 2268 
Q 2250 2553 1709 2553 
Q 1456 2553 1204 2497 
Q 953 2441 691 2322 
L 691 4666 
z
" id="DejaVuSans-35" transform="scale(0.015625)"/>
       </defs>
       <use xlink:href="#DejaVuSans-35"/>
       <use x="63.623047" xlink:href="#DejaVuSans-30"/>
      </g>
     </g>
    </g>
    <g id="ytick_4">
     <g id="line2d_15">
      <path clip-path="url(#p6a47e3bf90)" d="M 60.77 178.660358 
L 559.8 178.660358 
" style="fill:none;stroke:#b0b0b0;stroke-linecap:square;stroke-width:0.8;"/>
     </g>
     <g id="line2d_16">
      <g>
       <use style="stroke:#000000;stroke-width:0.8;" x="60.77" xlink:href="#m77127fc6ce" y="178.660358"/>
      </g>
     </g>
     <g id="text_9">
      <!-- 60 -->
      <g transform="translate(34.6825 184.359186)scale(0.15 -0.15)">
       <defs>
        <path d="M 2113 2584 
Q 1688 2584 1439 2293 
Q 1191 2003 1191 1497 
Q 1191 994 1439 701 
Q 1688 409 2113 409 
Q 2538 409 2786 701 
Q 3034 994 3034 1497 
Q 3034 2003 2786 2293 
Q 2538 2584 2113 2584 
z
M 3366 4563 
L 3366 3988 
Q 3128 4100 2886 4159 
Q 2644 4219 2406 4219 
Q 1781 4219 1451 3797 
Q 1122 3375 1075 2522 
Q 1259 2794 1537 2939 
Q 1816 3084 2150 3084 
Q 2853 3084 3261 2657 
Q 3669 2231 3669 1497 
Q 3669 778 3244 343 
Q 2819 -91 2113 -91 
Q 1303 -91 875 529 
Q 447 1150 447 2328 
Q 447 3434 972 4092 
Q 1497 4750 2381 4750 
Q 2619 4750 2861 4703 
Q 3103 4656 3366 4563 
z
" id="DejaVuSans-36" transform="scale(0.015625)"/>
       </defs>
       <use xlink:href="#DejaVuSans-36"/>
       <use x="63.623047" xlink:href="#DejaVuSans-30"/>
      </g>
     </g>
    </g>
    <g id="ytick_5">
     <g id="line2d_17">
      <path clip-path="url(#p6a47e3bf90)" d="M 60.77 138.036889 
L 559.8 138.036889 
" style="fill:none;stroke:#b0b0b0;stroke-linecap:square;stroke-width:0.8;"/>
     </g>
     <g id="line2d_18">
      <g>
       <use style="stroke:#000000;stroke-width:0.8;" x="60.77" xlink:href="#m77127fc6ce" y="138.036889"/>
      </g>
     </g>
     <g id="text_10">
      <!-- 70 -->
      <g transform="translate(34.6825 143.735718)scale(0.15 -0.15)">
       <defs>
        <path d="M 525 4666 
L 3525 4666 
L 3525 4397 
L 1831 0 
L 1172 0 
L 2766 4134 
L 525 4134 
L 525 4666 
z
" id="DejaVuSans-37" transform="scale(0.015625)"/>
       </defs>
       <use xlink:href="#DejaVuSans-37"/>
       <use x="63.623047" xlink:href="#DejaVuSans-30"/>
      </g>
     </g>
    </g>
    <g id="ytick_6">
     <g id="line2d_19">
      <path clip-path="url(#p6a47e3bf90)" d="M 60.77 97.413421 
L 559.8 97.413421 
" style="fill:none;stroke:#b0b0b0;stroke-linecap:square;stroke-width:0.8;"/>
     </g>
     <g id="line2d_20">
      <g>
       <use style="stroke:#000000;stroke-width:0.8;" x="60.77" xlink:href="#m77127fc6ce" y="97.413421"/>
      </g>
     </g>
     <g id="text_11">
      <!-- 80 -->
      <g transform="translate(34.6825 103.112249)scale(0.15 -0.15)">
       <defs>
        <path d="M 2034 2216 
Q 1584 2216 1326 1975 
Q 1069 1734 1069 1313 
Q 1069 891 1326 650 
Q 1584 409 2034 409 
Q 2484 409 2743 651 
Q 3003 894 3003 1313 
Q 3003 1734 2745 1975 
Q 2488 2216 2034 2216 
z
M 1403 2484 
Q 997 2584 770 2862 
Q 544 3141 544 3541 
Q 544 4100 942 4425 
Q 1341 4750 2034 4750 
Q 2731 4750 3128 4425 
Q 3525 4100 3525 3541 
Q 3525 3141 3298 2862 
Q 3072 2584 2669 2484 
Q 3125 2378 3379 2068 
Q 3634 1759 3634 1313 
Q 3634 634 3220 271 
Q 2806 -91 2034 -91 
Q 1263 -91 848 271 
Q 434 634 434 1313 
Q 434 1759 690 2068 
Q 947 2378 1403 2484 
z
M 1172 3481 
Q 1172 3119 1398 2916 
Q 1625 2713 2034 2713 
Q 2441 2713 2670 2916 
Q 2900 3119 2900 3481 
Q 2900 3844 2670 4047 
Q 2441 4250 2034 4250 
Q 1625 4250 1398 4047 
Q 1172 3844 1172 3481 
z
" id="DejaVuSans-38" transform="scale(0.015625)"/>
       </defs>
       <use xlink:href="#DejaVuSans-38"/>
       <use x="63.623047" xlink:href="#DejaVuSans-30"/>
      </g>
     </g>
    </g>
    <g id="text_12">
     <!-- Test Accuracy -->
     <g transform="translate(27.562969 234.907841)rotate(-90)scale(0.15 -0.15)">
      <defs>
       <path d="M -19 4666 
L 3928 4666 
L 3928 4134 
L 2272 4134 
L 2272 0 
L 1638 0 
L 1638 4134 
L -19 4134 
L -19 4666 
z
" id="DejaVuSans-54" transform="scale(0.015625)"/>
       <path d="M 3122 3366 
L 3122 2828 
Q 2878 2963 2633 3030 
Q 2388 3097 2138 3097 
Q 1578 3097 1268 2742 
Q 959 2388 959 1747 
Q 959 1106 1268 751 
Q 1578 397 2138 397 
Q 2388 397 2633 464 
Q 2878 531 3122 666 
L 3122 134 
Q 2881 22 2623 -34 
Q 2366 -91 2075 -91 
Q 1284 -91 818 406 
Q 353 903 353 1747 
Q 353 2603 823 3093 
Q 1294 3584 2113 3584 
Q 2378 3584 2631 3529 
Q 2884 3475 3122 3366 
z
" id="DejaVuSans-63" transform="scale(0.015625)"/>
       <path d="M 544 1381 
L 544 3500 
L 1119 3500 
L 1119 1403 
Q 1119 906 1312 657 
Q 1506 409 1894 409 
Q 2359 409 2629 706 
Q 2900 1003 2900 1516 
L 2900 3500 
L 3475 3500 
L 3475 0 
L 2900 0 
L 2900 538 
Q 2691 219 2414 64 
Q 2138 -91 1772 -91 
Q 1169 -91 856 284 
Q 544 659 544 1381 
z
M 1991 3584 
L 1991 3584 
z
" id="DejaVuSans-75" transform="scale(0.015625)"/>
       <path d="M 2194 1759 
Q 1497 1759 1228 1600 
Q 959 1441 959 1056 
Q 959 750 1161 570 
Q 1363 391 1709 391 
Q 2188 391 2477 730 
Q 2766 1069 2766 1631 
L 2766 1759 
L 2194 1759 
z
M 3341 1997 
L 3341 0 
L 2766 0 
L 2766 531 
Q 2569 213 2275 61 
Q 1981 -91 1556 -91 
Q 1019 -91 701 211 
Q 384 513 384 1019 
Q 384 1609 779 1909 
Q 1175 2209 1959 2209 
L 2766 2209 
L 2766 2266 
Q 2766 2663 2505 2880 
Q 2244 3097 1772 3097 
Q 1472 3097 1187 3025 
Q 903 2953 641 2809 
L 641 3341 
Q 956 3463 1253 3523 
Q 1550 3584 1831 3584 
Q 2591 3584 2966 3190 
Q 3341 2797 3341 1997 
z
" id="DejaVuSans-61" transform="scale(0.015625)"/>
       <path d="M 2059 -325 
Q 1816 -950 1584 -1140 
Q 1353 -1331 966 -1331 
L 506 -1331 
L 506 -850 
L 844 -850 
Q 1081 -850 1212 -737 
Q 1344 -625 1503 -206 
L 1606 56 
L 191 3500 
L 800 3500 
L 1894 763 
L 2988 3500 
L 3597 3500 
L 2059 -325 
z
" id="DejaVuSans-79" transform="scale(0.015625)"/>
      </defs>
      <use xlink:href="#DejaVuSans-54"/>
      <use x="44.083984" xlink:href="#DejaVuSans-65"/>
      <use x="105.607422" xlink:href="#DejaVuSans-73"/>
      <use x="157.707031" xlink:href="#DejaVuSans-74"/>
      <use x="196.916016" xlink:href="#DejaVuSans-20"/>
      <use x="228.703125" xlink:href="#DejaVuSans-41"/>
      <use x="295.361328" xlink:href="#DejaVuSans-63"/>
      <use x="350.341797" xlink:href="#DejaVuSans-63"/>
      <use x="405.322266" xlink:href="#DejaVuSans-75"/>
      <use x="468.701172" xlink:href="#DejaVuSans-72"/>
      <use x="509.814453" xlink:href="#DejaVuSans-61"/>
      <use x="571.09375" xlink:href="#DejaVuSans-63"/>
      <use x="626.074219" xlink:href="#DejaVuSans-79"/>
     </g>
    </g>
   </g>
   <g id="LineCollection_1">
    <path clip-path="url(#p6a47e3bf90)" d="M 102.355833 176.198684 
L 102.355833 168.16366 
" style="fill:none;stroke:#ff0000;stroke-width:3;"/>
   </g>
   <g id="LineCollection_2">
    <path clip-path="url(#p6a47e3bf90)" d="M 102.355833 177.631916 
L 102.355833 166.833272 
" style="fill:none;stroke:#ff0000;"/>
   </g>
   <g id="LineCollection_3">
    <path clip-path="url(#p6a47e3bf90)" d="M 102.355833 176.198684 
L 102.355833 168.16366 
" style="fill:none;stroke:#ff0000;stroke-width:3;"/>
    <path clip-path="url(#p6a47e3bf90)" d="M 240.975278 189.603821 
L 240.975278 171.419287 
" style="fill:none;stroke:#ff0000;stroke-width:3;"/>
   </g>
   <g id="LineCollection_4">
    <path clip-path="url(#p6a47e3bf90)" d="M 102.355833 177.631916 
L 102.355833 166.833272 
" style="fill:none;stroke:#ff0000;"/>
    <path clip-path="url(#p6a47e3bf90)" d="M 240.975278 193.058549 
L 240.975278 166.319051 
" style="fill:none;stroke:#ff0000;"/>
   </g>
   <g id="LineCollection_5">
    <path clip-path="url(#p6a47e3bf90)" d="M 102.355833 176.198684 
L 102.355833 168.16366 
" style="fill:none;stroke:#ff0000;stroke-width:3;"/>
    <path clip-path="url(#p6a47e3bf90)" d="M 240.975278 189.603821 
L 240.975278 171.419287 
" style="fill:none;stroke:#ff0000;stroke-width:3;"/>
    <path clip-path="url(#p6a47e3bf90)" d="M 379.594722 219.559853 
L 379.594722 162.649164 
" style="fill:none;stroke:#ff0000;stroke-width:3;"/>
   </g>
   <g id="LineCollection_6">
    <path clip-path="url(#p6a47e3bf90)" d="M 102.355833 177.631916 
L 102.355833 166.833272 
" style="fill:none;stroke:#ff0000;"/>
    <path clip-path="url(#p6a47e3bf90)" d="M 240.975278 193.058549 
L 240.975278 166.319051 
" style="fill:none;stroke:#ff0000;"/>
    <path clip-path="url(#p6a47e3bf90)" d="M 379.594722 247.565988 
L 379.594722 172.489704 
" style="fill:none;stroke:#ff0000;"/>
   </g>
   <g id="LineCollection_7">
    <path clip-path="url(#p6a47e3bf90)" d="M 102.355833 176.198684 
L 102.355833 168.16366 
" style="fill:none;stroke:#ff0000;stroke-width:3;"/>
    <path clip-path="url(#p6a47e3bf90)" d="M 240.975278 189.603821 
L 240.975278 171.419287 
" style="fill:none;stroke:#ff0000;stroke-width:3;"/>
    <path clip-path="url(#p6a47e3bf90)" d="M 379.594722 219.559853 
L 379.594722 162.649164 
" style="fill:none;stroke:#ff0000;stroke-width:3;"/>
    <path clip-path="url(#p6a47e3bf90)" d="M 518.214167 175.339692 
L 518.214167 170.67145 
" style="fill:none;stroke:#ff0000;stroke-width:3;"/>
   </g>
   <g id="LineCollection_8">
    <path clip-path="url(#p6a47e3bf90)" d="M 102.355833 177.631916 
L 102.355833 166.833272 
" style="fill:none;stroke:#ff0000;"/>
    <path clip-path="url(#p6a47e3bf90)" d="M 240.975278 193.058549 
L 240.975278 166.319051 
" style="fill:none;stroke:#ff0000;"/>
    <path clip-path="url(#p6a47e3bf90)" d="M 379.594722 247.565988 
L 379.594722 172.489704 
" style="fill:none;stroke:#ff0000;"/>
    <path clip-path="url(#p6a47e3bf90)" d="M 518.214167 176.466691 
L 518.214167 170.616911 
" style="fill:none;stroke:#ff0000;"/>
   </g>
   <g id="LineCollection_9">
    <path clip-path="url(#p6a47e3bf90)" d="M 102.355833 90.5826 
L 102.355833 83.264021 
" style="fill:none;stroke:#008000;stroke-width:3;"/>
   </g>
   <g id="LineCollection_10">
    <path clip-path="url(#p6a47e3bf90)" d="M 102.355833 89.700104 
L 102.355833 79.929903 
" style="fill:none;stroke:#008000;"/>
   </g>
   <g id="LineCollection_11">
    <path clip-path="url(#p6a47e3bf90)" d="M 102.355833 90.5826 
L 102.355833 83.264021 
" style="fill:none;stroke:#008000;stroke-width:3;"/>
    <path clip-path="url(#p6a47e3bf90)" d="M 240.975278 101.543395 
L 240.975278 93.694824 
" style="fill:none;stroke:#008000;stroke-width:3;"/>
   </g>
   <g id="LineCollection_12">
    <path clip-path="url(#p6a47e3bf90)" d="M 102.355833 89.700104 
L 102.355833 79.929903 
" style="fill:none;stroke:#008000;"/>
    <path clip-path="url(#p6a47e3bf90)" d="M 240.975278 104.098296 
L 240.975278 92.785431 
" style="fill:none;stroke:#008000;"/>
   </g>
   <g id="LineCollection_13">
    <path clip-path="url(#p6a47e3bf90)" d="M 102.355833 90.5826 
L 102.355833 83.264021 
" style="fill:none;stroke:#008000;stroke-width:3;"/>
    <path clip-path="url(#p6a47e3bf90)" d="M 240.975278 101.543395 
L 240.975278 93.694824 
" style="fill:none;stroke:#008000;stroke-width:3;"/>
    <path clip-path="url(#p6a47e3bf90)" d="M 379.594722 107.648276 
L 379.594722 97.668676 
" style="fill:none;stroke:#008000;stroke-width:3;"/>
   </g>
   <g id="LineCollection_14">
    <path clip-path="url(#p6a47e3bf90)" d="M 102.355833 89.700104 
L 102.355833 79.929903 
" style="fill:none;stroke:#008000;"/>
    <path clip-path="url(#p6a47e3bf90)" d="M 240.975278 104.098296 
L 240.975278 92.785431 
" style="fill:none;stroke:#008000;"/>
    <path clip-path="url(#p6a47e3bf90)" d="M 379.594722 108.212064 
L 379.594722 93.813873 
" style="fill:none;stroke:#008000;"/>
   </g>
   <g id="LineCollection_15">
    <path clip-path="url(#p6a47e3bf90)" d="M 102.355833 90.5826 
L 102.355833 83.264021 
" style="fill:none;stroke:#008000;stroke-width:3;"/>
    <path clip-path="url(#p6a47e3bf90)" d="M 240.975278 101.543395 
L 240.975278 93.694824 
" style="fill:none;stroke:#008000;stroke-width:3;"/>
    <path clip-path="url(#p6a47e3bf90)" d="M 379.594722 107.648276 
L 379.594722 97.668676 
" style="fill:none;stroke:#008000;stroke-width:3;"/>
    <path clip-path="url(#p6a47e3bf90)" d="M 518.214167 176.004196 
L 518.214167 160.809793 
" style="fill:none;stroke:#008000;stroke-width:3;"/>
   </g>
   <g id="LineCollection_16">
    <path clip-path="url(#p6a47e3bf90)" d="M 102.355833 89.700104 
L 102.355833 79.929903 
" style="fill:none;stroke:#008000;"/>
    <path clip-path="url(#p6a47e3bf90)" d="M 240.975278 104.098296 
L 240.975278 92.785431 
" style="fill:none;stroke:#008000;"/>
    <path clip-path="url(#p6a47e3bf90)" d="M 379.594722 108.212064 
L 379.594722 93.813873 
" style="fill:none;stroke:#008000;"/>
    <path clip-path="url(#p6a47e3bf90)" d="M 518.214167 181.422754 
L 518.214167 158.836105 
" style="fill:none;stroke:#008000;"/>
   </g>
   <g id="LineCollection_17">
    <path clip-path="url(#p6a47e3bf90)" d="M 102.355833 87.84605 
L 102.355833 80.446982 
" style="fill:none;stroke:#0000ff;stroke-width:3;"/>
   </g>
   <g id="LineCollection_18">
    <path clip-path="url(#p6a47e3bf90)" d="M 102.355833 90.728546 
L 102.355833 79.415682 
" style="fill:none;stroke:#0000ff;"/>
   </g>
   <g id="LineCollection_19">
    <path clip-path="url(#p6a47e3bf90)" d="M 102.355833 87.84605 
L 102.355833 80.446982 
" style="fill:none;stroke:#0000ff;stroke-width:3;"/>
    <path clip-path="url(#p6a47e3bf90)" d="M 240.975278 97.006553 
L 240.975278 85.273294 
" style="fill:none;stroke:#0000ff;stroke-width:3;"/>
   </g>
   <g id="LineCollection_20">
    <path clip-path="url(#p6a47e3bf90)" d="M 102.355833 90.728546 
L 102.355833 79.415682 
" style="fill:none;stroke:#0000ff;"/>
    <path clip-path="url(#p6a47e3bf90)" d="M 240.975278 97.927642 
L 240.975278 81.986787 
" style="fill:none;stroke:#0000ff;"/>
   </g>
   <g id="LineCollection_21">
    <path clip-path="url(#p6a47e3bf90)" d="M 102.355833 87.84605 
L 102.355833 80.446982 
" style="fill:none;stroke:#0000ff;stroke-width:3;"/>
    <path clip-path="url(#p6a47e3bf90)" d="M 240.975278 97.006553 
L 240.975278 85.273294 
" style="fill:none;stroke:#0000ff;stroke-width:3;"/>
    <path clip-path="url(#p6a47e3bf90)" d="M 379.594722 94.553512 
L 379.594722 86.492204 
" style="fill:none;stroke:#0000ff;stroke-width:3;"/>
   </g>
   <g id="LineCollection_22">
    <path clip-path="url(#p6a47e3bf90)" d="M 102.355833 90.728546 
L 102.355833 79.415682 
" style="fill:none;stroke:#0000ff;"/>
    <path clip-path="url(#p6a47e3bf90)" d="M 240.975278 97.927642 
L 240.975278 81.986787 
" style="fill:none;stroke:#0000ff;"/>
    <path clip-path="url(#p6a47e3bf90)" d="M 379.594722 95.870758 
L 379.594722 83.529451 
" style="fill:none;stroke:#0000ff;"/>
   </g>
   <g id="LineCollection_23">
    <path clip-path="url(#p6a47e3bf90)" d="M 102.355833 87.84605 
L 102.355833 80.446982 
" style="fill:none;stroke:#0000ff;stroke-width:3;"/>
    <path clip-path="url(#p6a47e3bf90)" d="M 240.975278 97.006553 
L 240.975278 85.273294 
" style="fill:none;stroke:#0000ff;stroke-width:3;"/>
    <path clip-path="url(#p6a47e3bf90)" d="M 379.594722 94.553512 
L 379.594722 86.492204 
" style="fill:none;stroke:#0000ff;stroke-width:3;"/>
    <path clip-path="url(#p6a47e3bf90)" d="M 518.214167 229.134593 
L 518.214167 211.350487 
" style="fill:none;stroke:#0000ff;stroke-width:3;"/>
   </g>
   <g id="LineCollection_24">
    <path clip-path="url(#p6a47e3bf90)" d="M 102.355833 90.728546 
L 102.355833 79.415682 
" style="fill:none;stroke:#0000ff;"/>
    <path clip-path="url(#p6a47e3bf90)" d="M 240.975278 97.927642 
L 240.975278 81.986787 
" style="fill:none;stroke:#0000ff;"/>
    <path clip-path="url(#p6a47e3bf90)" d="M 379.594722 95.870758 
L 379.594722 83.529451 
" style="fill:none;stroke:#0000ff;"/>
    <path clip-path="url(#p6a47e3bf90)" d="M 518.214167 237.60501 
L 518.214167 212.29659 
" style="fill:none;stroke:#0000ff;"/>
   </g>
   <g id="LineCollection_25">
    <path clip-path="url(#p6a47e3bf90)" d="M 102.355833 92.653795 
L 102.355833 89.008986 
" style="fill:none;stroke:#000000;stroke-width:3;"/>
   </g>
   <g id="LineCollection_26">
    <path clip-path="url(#p6a47e3bf90)" d="M 102.355833 94.328094 
L 102.355833 89.185883 
" style="fill:none;stroke:#000000;"/>
   </g>
   <g id="LineCollection_27">
    <path clip-path="url(#p6a47e3bf90)" d="M 102.355833 92.653795 
L 102.355833 89.008986 
" style="fill:none;stroke:#000000;stroke-width:3;"/>
    <path clip-path="url(#p6a47e3bf90)" d="M 240.975278 107.005416 
L 240.975278 95.431899 
" style="fill:none;stroke:#000000;stroke-width:3;"/>
   </g>
   <g id="LineCollection_28">
    <path clip-path="url(#p6a47e3bf90)" d="M 102.355833 94.328094 
L 102.355833 89.185883 
" style="fill:none;stroke:#000000;"/>
    <path clip-path="url(#p6a47e3bf90)" d="M 240.975278 110.78317 
L 240.975278 93.813873 
" style="fill:none;stroke:#000000;"/>
   </g>
   <g id="LineCollection_29">
    <path clip-path="url(#p6a47e3bf90)" d="M 102.355833 92.653795 
L 102.355833 89.008986 
" style="fill:none;stroke:#000000;stroke-width:3;"/>
    <path clip-path="url(#p6a47e3bf90)" d="M 240.975278 107.005416 
L 240.975278 95.431899 
" style="fill:none;stroke:#000000;stroke-width:3;"/>
    <path clip-path="url(#p6a47e3bf90)" d="M 379.594722 97.810486 
L 379.594722 90.434325 
" style="fill:none;stroke:#000000;stroke-width:3;"/>
   </g>
   <g id="LineCollection_30">
    <path clip-path="url(#p6a47e3bf90)" d="M 102.355833 94.328094 
L 102.355833 89.185883 
" style="fill:none;stroke:#000000;"/>
    <path clip-path="url(#p6a47e3bf90)" d="M 240.975278 110.78317 
L 240.975278 93.813873 
" style="fill:none;stroke:#000000;"/>
    <path clip-path="url(#p6a47e3bf90)" d="M 379.594722 98.441863 
L 379.594722 88.671662 
" style="fill:none;stroke:#000000;"/>
   </g>
   <g id="LineCollection_31">
    <path clip-path="url(#p6a47e3bf90)" d="M 102.355833 92.653795 
L 102.355833 89.008986 
" style="fill:none;stroke:#000000;stroke-width:3;"/>
    <path clip-path="url(#p6a47e3bf90)" d="M 240.975278 107.005416 
L 240.975278 95.431899 
" style="fill:none;stroke:#000000;stroke-width:3;"/>
    <path clip-path="url(#p6a47e3bf90)" d="M 379.594722 97.810486 
L 379.594722 90.434325 
" style="fill:none;stroke:#000000;stroke-width:3;"/>
    <path clip-path="url(#p6a47e3bf90)" d="M 518.214167 283.888797 
L 518.214167 261.518577 
" style="fill:none;stroke:#000000;stroke-width:3;"/>
   </g>
   <g id="LineCollection_32">
    <path clip-path="url(#p6a47e3bf90)" d="M 102.355833 94.328094 
L 102.355833 89.185883 
" style="fill:none;stroke:#000000;"/>
    <path clip-path="url(#p6a47e3bf90)" d="M 240.975278 110.78317 
L 240.975278 93.813873 
" style="fill:none;stroke:#000000;"/>
    <path clip-path="url(#p6a47e3bf90)" d="M 379.594722 98.441863 
L 379.594722 88.671662 
" style="fill:none;stroke:#000000;"/>
    <path clip-path="url(#p6a47e3bf90)" d="M 518.214167 287.6125 
L 518.214167 253.245046 
" style="fill:none;stroke:#000000;"/>
   </g>
   <g id="line2d_21">
    <defs>
     <path d="M 0 3 
C 0.795609 3 1.55874 2.683901 2.12132 2.12132 
C 2.683901 1.55874 3 0.795609 3 0 
C 3 -0.795609 2.683901 -1.55874 2.12132 -2.12132 
C 1.55874 -2.683901 0.795609 -3 0 -3 
C -0.795609 -3 -1.55874 -2.683901 -2.12132 -2.12132 
C -2.683901 -1.55874 -3 -0.795609 -3 0 
C -3 0.795609 -2.683901 1.55874 -2.12132 2.12132 
C -1.55874 2.683901 -0.795609 3 0 3 
z
" id="mde3654b8a3" style="stroke:#ff0000;"/>
    </defs>
    <g clip-path="url(#p6a47e3bf90)">
     <use style="fill:#ff0000;stroke:#ff0000;" x="102.355833" xlink:href="#mde3654b8a3" y="172.181172"/>
    </g>
   </g>
   <g id="line2d_22">
    <defs>
     <path d="M 0 1.5 
C 0.397805 1.5 0.77937 1.341951 1.06066 1.06066 
C 1.341951 0.77937 1.5 0.397805 1.5 0 
C 1.5 -0.397805 1.341951 -0.77937 1.06066 -1.06066 
C 0.77937 -1.341951 0.397805 -1.5 0 -1.5 
C -0.397805 -1.5 -0.77937 -1.341951 -1.06066 -1.06066 
C -1.341951 -0.77937 -1.5 -0.397805 -1.5 0 
C -1.5 0.397805 -1.341951 0.77937 -1.06066 1.06066 
C -0.77937 1.341951 -0.397805 1.5 0 1.5 
z
" id="m9473143782" style="stroke:#ff0000;"/>
    </defs>
    <g clip-path="url(#p6a47e3bf90)">
     <use style="fill:#ff0000;stroke:#ff0000;" x="102.355833" xlink:href="#m9473143782" y="172.181172"/>
    </g>
   </g>
   <g id="line2d_23">
    <g clip-path="url(#p6a47e3bf90)">
     <use style="fill:#ff0000;stroke:#ff0000;" x="102.355833" xlink:href="#mde3654b8a3" y="172.181172"/>
     <use style="fill:#ff0000;stroke:#ff0000;" x="240.975278" xlink:href="#mde3654b8a3" y="180.511554"/>
    </g>
   </g>
   <g id="line2d_24">
    <g clip-path="url(#p6a47e3bf90)">
     <use style="fill:#ff0000;stroke:#ff0000;" x="102.355833" xlink:href="#m9473143782" y="172.181172"/>
     <use style="fill:#ff0000;stroke:#ff0000;" x="240.975278" xlink:href="#m9473143782" y="180.511554"/>
    </g>
   </g>
   <g id="line2d_25">
    <g clip-path="url(#p6a47e3bf90)">
     <use style="fill:#ff0000;stroke:#ff0000;" x="102.355833" xlink:href="#mde3654b8a3" y="172.181172"/>
     <use style="fill:#ff0000;stroke:#ff0000;" x="240.975278" xlink:href="#mde3654b8a3" y="180.511554"/>
     <use style="fill:#ff0000;stroke:#ff0000;" x="379.594722" xlink:href="#mde3654b8a3" y="191.104509"/>
    </g>
   </g>
   <g id="line2d_26">
    <g clip-path="url(#p6a47e3bf90)">
     <use style="fill:#ff0000;stroke:#ff0000;" x="102.355833" xlink:href="#m9473143782" y="172.181172"/>
     <use style="fill:#ff0000;stroke:#ff0000;" x="240.975278" xlink:href="#m9473143782" y="180.511554"/>
     <use style="fill:#ff0000;stroke:#ff0000;" x="379.594722" xlink:href="#m9473143782" y="191.104509"/>
    </g>
   </g>
   <g id="line2d_27">
    <g clip-path="url(#p6a47e3bf90)">
     <use style="fill:#ff0000;stroke:#ff0000;" x="102.355833" xlink:href="#mde3654b8a3" y="172.181172"/>
     <use style="fill:#ff0000;stroke:#ff0000;" x="240.975278" xlink:href="#mde3654b8a3" y="180.511554"/>
     <use style="fill:#ff0000;stroke:#ff0000;" x="379.594722" xlink:href="#mde3654b8a3" y="191.104509"/>
     <use style="fill:#ff0000;stroke:#ff0000;" x="518.214167" xlink:href="#mde3654b8a3" y="173.005571"/>
    </g>
   </g>
   <g id="line2d_28">
    <g clip-path="url(#p6a47e3bf90)">
     <use style="fill:#ff0000;stroke:#ff0000;" x="102.355833" xlink:href="#m9473143782" y="172.181172"/>
     <use style="fill:#ff0000;stroke:#ff0000;" x="240.975278" xlink:href="#m9473143782" y="180.511554"/>
     <use style="fill:#ff0000;stroke:#ff0000;" x="379.594722" xlink:href="#m9473143782" y="191.104509"/>
     <use style="fill:#ff0000;stroke:#ff0000;" x="518.214167" xlink:href="#m9473143782" y="173.005571"/>
    </g>
   </g>
   <g id="line2d_29">
    <defs>
     <path d="M 0 3 
C 0.795609 3 1.55874 2.683901 2.12132 2.12132 
C 2.683901 1.55874 3 0.795609 3 0 
C 3 -0.795609 2.683901 -1.55874 2.12132 -2.12132 
C 1.55874 -2.683901 0.795609 -3 0 -3 
C -0.795609 -3 -1.55874 -2.683901 -2.12132 -2.12132 
C -2.683901 -1.55874 -3 -0.795609 -3 0 
C -3 0.795609 -2.683901 1.55874 -2.12132 2.12132 
C -1.55874 2.683901 -0.795609 3 0 3 
z
" id="m2da1ea6101" style="stroke:#008000;"/>
    </defs>
    <g clip-path="url(#p6a47e3bf90)">
     <use style="fill:#008000;stroke:#008000;" x="102.355833" xlink:href="#m2da1ea6101" y="86.92331"/>
    </g>
   </g>
   <g id="line2d_30">
    <defs>
     <path d="M 0 1.5 
C 0.397805 1.5 0.77937 1.341951 1.06066 1.06066 
C 1.341951 0.77937 1.5 0.397805 1.5 0 
C 1.5 -0.397805 1.341951 -0.77937 1.06066 -1.06066 
C 0.77937 -1.341951 0.397805 -1.5 0 -1.5 
C -0.397805 -1.5 -0.77937 -1.341951 -1.06066 -1.06066 
C -1.341951 -0.77937 -1.5 -0.397805 -1.5 0 
C -1.5 0.397805 -1.341951 0.77937 -1.06066 1.06066 
C -0.77937 1.341951 -0.397805 1.5 0 1.5 
z
" id="ma75301a963" style="stroke:#008000;"/>
    </defs>
    <g clip-path="url(#p6a47e3bf90)">
     <use style="fill:#008000;stroke:#008000;" x="102.355833" xlink:href="#ma75301a963" y="86.92331"/>
    </g>
   </g>
   <g id="line2d_31">
    <g clip-path="url(#p6a47e3bf90)">
     <use style="fill:#008000;stroke:#008000;" x="102.355833" xlink:href="#m2da1ea6101" y="86.92331"/>
     <use style="fill:#008000;stroke:#008000;" x="240.975278" xlink:href="#m2da1ea6101" y="97.619109"/>
    </g>
   </g>
   <g id="line2d_32">
    <g clip-path="url(#p6a47e3bf90)">
     <use style="fill:#008000;stroke:#008000;" x="102.355833" xlink:href="#ma75301a963" y="86.92331"/>
     <use style="fill:#008000;stroke:#008000;" x="240.975278" xlink:href="#ma75301a963" y="97.619109"/>
    </g>
   </g>
   <g id="line2d_33">
    <g clip-path="url(#p6a47e3bf90)">
     <use style="fill:#008000;stroke:#008000;" x="102.355833" xlink:href="#m2da1ea6101" y="86.92331"/>
     <use style="fill:#008000;stroke:#008000;" x="240.975278" xlink:href="#m2da1ea6101" y="97.619109"/>
     <use style="fill:#008000;stroke:#008000;" x="379.594722" xlink:href="#m2da1ea6101" y="102.658476"/>
    </g>
   </g>
   <g id="line2d_34">
    <g clip-path="url(#p6a47e3bf90)">
     <use style="fill:#008000;stroke:#008000;" x="102.355833" xlink:href="#ma75301a963" y="86.92331"/>
     <use style="fill:#008000;stroke:#008000;" x="240.975278" xlink:href="#ma75301a963" y="97.619109"/>
     <use style="fill:#008000;stroke:#008000;" x="379.594722" xlink:href="#ma75301a963" y="102.658476"/>
    </g>
   </g>
   <g id="line2d_35">
    <g clip-path="url(#p6a47e3bf90)">
     <use style="fill:#008000;stroke:#008000;" x="102.355833" xlink:href="#m2da1ea6101" y="86.92331"/>
     <use style="fill:#008000;stroke:#008000;" x="240.975278" xlink:href="#m2da1ea6101" y="97.619109"/>
     <use style="fill:#008000;stroke:#008000;" x="379.594722" xlink:href="#m2da1ea6101" y="102.658476"/>
     <use style="fill:#008000;stroke:#008000;" x="518.214167" xlink:href="#m2da1ea6101" y="168.406994"/>
    </g>
   </g>
   <g id="line2d_36">
    <g clip-path="url(#p6a47e3bf90)">
     <use style="fill:#008000;stroke:#008000;" x="102.355833" xlink:href="#ma75301a963" y="86.92331"/>
     <use style="fill:#008000;stroke:#008000;" x="240.975278" xlink:href="#ma75301a963" y="97.619109"/>
     <use style="fill:#008000;stroke:#008000;" x="379.594722" xlink:href="#ma75301a963" y="102.658476"/>
     <use style="fill:#008000;stroke:#008000;" x="518.214167" xlink:href="#ma75301a963" y="168.406994"/>
    </g>
   </g>
   <g id="line2d_37">
    <defs>
     <path d="M 0 3 
C 0.795609 3 1.55874 2.683901 2.12132 2.12132 
C 2.683901 1.55874 3 0.795609 3 0 
C 3 -0.795609 2.683901 -1.55874 2.12132 -2.12132 
C 1.55874 -2.683901 0.795609 -3 0 -3 
C -0.795609 -3 -1.55874 -2.683901 -2.12132 -2.12132 
C -2.683901 -1.55874 -3 -0.795609 -3 0 
C -3 0.795609 -2.683901 1.55874 -2.12132 2.12132 
C -1.55874 2.683901 -0.795609 3 0 3 
z
" id="mc41f0bab24" style="stroke:#0000ff;"/>
    </defs>
    <g clip-path="url(#p6a47e3bf90)">
     <use style="fill:#0000ff;stroke:#0000ff;" x="102.355833" xlink:href="#mc41f0bab24" y="84.146516"/>
    </g>
   </g>
   <g id="line2d_38">
    <defs>
     <path d="M 0 1.5 
C 0.397805 1.5 0.77937 1.341951 1.06066 1.06066 
C 1.341951 0.77937 1.5 0.397805 1.5 0 
C 1.5 -0.397805 1.341951 -0.77937 1.06066 -1.06066 
C 0.77937 -1.341951 0.397805 -1.5 0 -1.5 
C -0.397805 -1.5 -0.77937 -1.341951 -1.06066 -1.06066 
C -1.341951 -0.77937 -1.5 -0.397805 -1.5 0 
C -1.5 0.397805 -1.341951 0.77937 -1.06066 1.06066 
C -0.77937 1.341951 -0.397805 1.5 0 1.5 
z
" id="m7b38b34686" style="stroke:#0000ff;"/>
    </defs>
    <g clip-path="url(#p6a47e3bf90)">
     <use style="fill:#0000ff;stroke:#0000ff;" x="102.355833" xlink:href="#m7b38b34686" y="84.146516"/>
    </g>
   </g>
   <g id="line2d_39">
    <g clip-path="url(#p6a47e3bf90)">
     <use style="fill:#0000ff;stroke:#0000ff;" x="102.355833" xlink:href="#mc41f0bab24" y="84.146516"/>
     <use style="fill:#0000ff;stroke:#0000ff;" x="240.975278" xlink:href="#mc41f0bab24" y="91.139923"/>
    </g>
   </g>
   <g id="line2d_40">
    <g clip-path="url(#p6a47e3bf90)">
     <use style="fill:#0000ff;stroke:#0000ff;" x="102.355833" xlink:href="#m7b38b34686" y="84.146516"/>
     <use style="fill:#0000ff;stroke:#0000ff;" x="240.975278" xlink:href="#m7b38b34686" y="91.139923"/>
    </g>
   </g>
   <g id="line2d_41">
    <g clip-path="url(#p6a47e3bf90)">
     <use style="fill:#0000ff;stroke:#0000ff;" x="102.355833" xlink:href="#mc41f0bab24" y="84.146516"/>
     <use style="fill:#0000ff;stroke:#0000ff;" x="240.975278" xlink:href="#mc41f0bab24" y="91.139923"/>
     <use style="fill:#0000ff;stroke:#0000ff;" x="379.594722" xlink:href="#mc41f0bab24" y="90.522858"/>
    </g>
   </g>
   <g id="line2d_42">
    <g clip-path="url(#p6a47e3bf90)">
     <use style="fill:#0000ff;stroke:#0000ff;" x="102.355833" xlink:href="#m7b38b34686" y="84.146516"/>
     <use style="fill:#0000ff;stroke:#0000ff;" x="240.975278" xlink:href="#m7b38b34686" y="91.139923"/>
     <use style="fill:#0000ff;stroke:#0000ff;" x="379.594722" xlink:href="#m7b38b34686" y="90.522858"/>
    </g>
   </g>
   <g id="line2d_43">
    <g clip-path="url(#p6a47e3bf90)">
     <use style="fill:#0000ff;stroke:#0000ff;" x="102.355833" xlink:href="#mc41f0bab24" y="84.146516"/>
     <use style="fill:#0000ff;stroke:#0000ff;" x="240.975278" xlink:href="#mc41f0bab24" y="91.139923"/>
     <use style="fill:#0000ff;stroke:#0000ff;" x="379.594722" xlink:href="#mc41f0bab24" y="90.522858"/>
     <use style="fill:#0000ff;stroke:#0000ff;" x="518.214167" xlink:href="#mc41f0bab24" y="220.24254"/>
    </g>
   </g>
   <g id="line2d_44">
    <g clip-path="url(#p6a47e3bf90)">
     <use style="fill:#0000ff;stroke:#0000ff;" x="102.355833" xlink:href="#m7b38b34686" y="84.146516"/>
     <use style="fill:#0000ff;stroke:#0000ff;" x="240.975278" xlink:href="#m7b38b34686" y="91.139923"/>
     <use style="fill:#0000ff;stroke:#0000ff;" x="379.594722" xlink:href="#m7b38b34686" y="90.522858"/>
     <use style="fill:#0000ff;stroke:#0000ff;" x="518.214167" xlink:href="#m7b38b34686" y="220.24254"/>
    </g>
   </g>
   <g id="line2d_45">
    <defs>
     <path d="M 0 3 
C 0.795609 3 1.55874 2.683901 2.12132 2.12132 
C 2.683901 1.55874 3 0.795609 3 0 
C 3 -0.795609 2.683901 -1.55874 2.12132 -2.12132 
C 1.55874 -2.683901 0.795609 -3 0 -3 
C -0.795609 -3 -1.55874 -2.683901 -2.12132 -2.12132 
C -2.683901 -1.55874 -3 -0.795609 -3 0 
C -3 0.795609 -2.683901 1.55874 -2.12132 2.12132 
C -1.55874 2.683901 -0.795609 3 0 3 
z
" id="m41474642a3" style="stroke:#000000;"/>
    </defs>
    <g clip-path="url(#p6a47e3bf90)">
     <use style="stroke:#000000;" x="102.355833" xlink:href="#m41474642a3" y="90.831391"/>
    </g>
   </g>
   <g id="line2d_46">
    <defs>
     <path d="M 0 1.5 
C 0.397805 1.5 0.77937 1.341951 1.06066 1.06066 
C 1.341951 0.77937 1.5 0.397805 1.5 0 
C 1.5 -0.397805 1.341951 -0.77937 1.06066 -1.06066 
C 0.77937 -1.341951 0.397805 -1.5 0 -1.5 
C -0.397805 -1.5 -0.77937 -1.341951 -1.06066 -1.06066 
C -1.341951 -0.77937 -1.5 -0.397805 -1.5 0 
C -1.5 0.397805 -1.341951 0.77937 -1.06066 1.06066 
C -0.77937 1.341951 -0.397805 1.5 0 1.5 
z
" id="m7373352ebd" style="stroke:#000000;"/>
    </defs>
    <g clip-path="url(#p6a47e3bf90)">
     <use style="stroke:#000000;" x="102.355833" xlink:href="#m7373352ebd" y="90.831391"/>
    </g>
   </g>
   <g id="line2d_47">
    <g clip-path="url(#p6a47e3bf90)">
     <use style="stroke:#000000;" x="102.355833" xlink:href="#m41474642a3" y="90.831391"/>
     <use style="stroke:#000000;" x="240.975278" xlink:href="#m41474642a3" y="101.218657"/>
    </g>
   </g>
   <g id="line2d_48">
    <g clip-path="url(#p6a47e3bf90)">
     <use style="stroke:#000000;" x="102.355833" xlink:href="#m7373352ebd" y="90.831391"/>
     <use style="stroke:#000000;" x="240.975278" xlink:href="#m7373352ebd" y="101.218657"/>
    </g>
   </g>
   <g id="line2d_49">
    <g clip-path="url(#p6a47e3bf90)">
     <use style="stroke:#000000;" x="102.355833" xlink:href="#m41474642a3" y="90.831391"/>
     <use style="stroke:#000000;" x="240.975278" xlink:href="#m41474642a3" y="101.218657"/>
     <use style="stroke:#000000;" x="379.594722" xlink:href="#m41474642a3" y="94.122406"/>
    </g>
   </g>
   <g id="line2d_50">
    <g clip-path="url(#p6a47e3bf90)">
     <use style="stroke:#000000;" x="102.355833" xlink:href="#m7373352ebd" y="90.831391"/>
     <use style="stroke:#000000;" x="240.975278" xlink:href="#m7373352ebd" y="101.218657"/>
     <use style="stroke:#000000;" x="379.594722" xlink:href="#m7373352ebd" y="94.122406"/>
    </g>
   </g>
   <g id="line2d_51">
    <g clip-path="url(#p6a47e3bf90)">
     <use style="stroke:#000000;" x="102.355833" xlink:href="#m41474642a3" y="90.831391"/>
     <use style="stroke:#000000;" x="240.975278" xlink:href="#m41474642a3" y="101.218657"/>
     <use style="stroke:#000000;" x="379.594722" xlink:href="#m41474642a3" y="94.122406"/>
     <use style="stroke:#000000;" x="518.214167" xlink:href="#m41474642a3" y="272.703687"/>
    </g>
   </g>
   <g id="line2d_52">
    <g clip-path="url(#p6a47e3bf90)">
     <use style="stroke:#000000;" x="102.355833" xlink:href="#m7373352ebd" y="90.831391"/>
     <use style="stroke:#000000;" x="240.975278" xlink:href="#m7373352ebd" y="101.218657"/>
     <use style="stroke:#000000;" x="379.594722" xlink:href="#m7373352ebd" y="94.122406"/>
     <use style="stroke:#000000;" x="518.214167" xlink:href="#m7373352ebd" y="272.703687"/>
    </g>
   </g>
   <g id="patch_3">
    <path d="M 60.77 308.432182 
L 60.77 58.596 
" style="fill:none;stroke:#000000;stroke-linecap:square;stroke-linejoin:miter;stroke-width:0.8;"/>
   </g>
   <g id="patch_4">
    <path d="M 559.8 308.432182 
L 559.8 58.596 
" style="fill:none;stroke:#000000;stroke-linecap:square;stroke-linejoin:miter;stroke-width:0.8;"/>
   </g>
   <g id="patch_5">
    <path d="M 60.77 308.432182 
L 559.8 308.432182 
" style="fill:none;stroke:#000000;stroke-linecap:square;stroke-linejoin:miter;stroke-width:0.8;"/>
   </g>
   <g id="patch_6">
    <path d="M 60.77 58.596 
L 559.8 58.596 
" style="fill:none;stroke:#000000;stroke-linecap:square;stroke-linejoin:miter;stroke-width:0.8;"/>
   </g>
   <g id="legend_1">
    <g id="patch_7">
     <path d="M 149.65375 55.13776 
L 470.91625 55.13776 
Q 473.91625 55.13776 473.91625 52.13776 
L 473.91625 31.620573 
Q 473.91625 28.620573 470.91625 28.620573 
L 149.65375 28.620573 
Q 146.65375 28.620573 146.65375 31.620573 
L 146.65375 52.13776 
Q 146.65375 55.13776 149.65375 55.13776 
z
" style="fill:#ffffff;opacity:0.8;stroke:#cccccc;stroke-linejoin:miter;"/>
    </g>
    <g id="LineCollection_33">
     <path d="M 167.65375 48.268229 
L 167.65375 33.268229 
" style="fill:none;stroke:#ff0000;stroke-width:3;"/>
    </g>
    <g id="line2d_53"/>
    <g id="line2d_54">
     <g>
      <use style="fill:#ff0000;stroke:#ff0000;" x="167.65375" xlink:href="#mde3654b8a3" y="40.768229"/>
     </g>
    </g>
    <g id="text_13">
     <!-- 1 -->
     <g transform="translate(194.65375 46.018229)scale(0.15 -0.15)">
      <defs>
       <path d="M 794 531 
L 1825 531 
L 1825 4091 
L 703 3866 
L 703 4441 
L 1819 4666 
L 2450 4666 
L 2450 531 
L 3481 531 
L 3481 0 
L 794 0 
L 794 531 
z
" id="DejaVuSans-31" transform="scale(0.015625)"/>
      </defs>
      <use xlink:href="#DejaVuSans-31"/>
     </g>
    </g>
    <g id="LineCollection_34">
     <path d="M 249.1975 48.268229 
L 249.1975 33.268229 
" style="fill:none;stroke:#008000;stroke-width:3;"/>
    </g>
    <g id="line2d_55"/>
    <g id="line2d_56">
     <g>
      <use style="fill:#008000;stroke:#008000;" x="249.1975" xlink:href="#m2da1ea6101" y="40.768229"/>
     </g>
    </g>
    <g id="text_14">
     <!-- 5 -->
     <g transform="translate(276.1975 46.018229)scale(0.15 -0.15)">
      <use xlink:href="#DejaVuSans-35"/>
     </g>
    </g>
    <g id="LineCollection_35">
     <path d="M 330.74125 48.268229 
L 330.74125 33.268229 
" style="fill:none;stroke:#0000ff;stroke-width:3;"/>
    </g>
    <g id="line2d_57"/>
    <g id="line2d_58">
     <g>
      <use style="fill:#0000ff;stroke:#0000ff;" x="330.74125" xlink:href="#mc41f0bab24" y="40.768229"/>
     </g>
    </g>
    <g id="text_15">
     <!-- 10 -->
     <g transform="translate(357.74125 46.018229)scale(0.15 -0.15)">
      <use xlink:href="#DejaVuSans-31"/>
      <use x="63.623047" xlink:href="#DejaVuSans-30"/>
     </g>
    </g>
    <g id="LineCollection_36">
     <path d="M 421.82875 48.268229 
L 421.82875 33.268229 
" style="fill:none;stroke:#000000;stroke-width:3;"/>
    </g>
    <g id="line2d_59"/>
    <g id="line2d_60">
     <g>
      <use style="stroke:#000000;" x="421.82875" xlink:href="#m41474642a3" y="40.768229"/>
     </g>
    </g>
    <g id="text_16">
     <!-- 25 -->
     <g transform="translate(448.82875 46.018229)scale(0.15 -0.15)">
      <defs>
       <path d="M 1228 531 
L 3431 531 
L 3431 0 
L 469 0 
L 469 531 
Q 828 903 1448 1529 
Q 2069 2156 2228 2338 
Q 2531 2678 2651 2914 
Q 2772 3150 2772 3378 
Q 2772 3750 2511 3984 
Q 2250 4219 1831 4219 
Q 1534 4219 1204 4116 
Q 875 4013 500 3803 
L 500 4441 
Q 881 4594 1212 4672 
Q 1544 4750 1819 4750 
Q 2544 4750 2975 4387 
Q 3406 4025 3406 3419 
Q 3406 3131 3298 2873 
Q 3191 2616 2906 2266 
Q 2828 2175 2409 1742 
Q 1991 1309 1228 531 
z
" id="DejaVuSans-32" transform="scale(0.015625)"/>
      </defs>
      <use xlink:href="#DejaVuSans-32"/>
      <use x="63.623047" xlink:href="#DejaVuSans-35"/>
     </g>
    </g>
   </g>
  </g>
 </g>
 <defs>
  <clipPath id="p6a47e3bf90">
   <rect height="249.836182" width="499.03" x="60.77" y="58.596"/>
  </clipPath>
 </defs>
</svg>
